<svg xmlns="http://www.w3.org/2000/svg" fill="none" viewBox="0 0 215 153">
  <defs/>
  <path fill="#fff" d="M0 0h215v152.58H0z"/>
  <g filter="url(#filter0_d)">
    <rect width="62" height="66" x="146" y="82" fill="#F3F4FA" rx="2"/>
  </g>
  <rect width="20" height="2" x="152" y="132" fill="#495E6F" fill-opacity=".4" rx="1"/>
  <rect width="19" height="4" x="152" y="137" fill="#495E6F" fill-opacity=".2" rx="1"/>
  <circle cx="177" cy="108" r="20" fill="#495E6F" fill-opacity=".2"/>
  <path fill="#495E6F" fill-opacity=".15" d="M177.03 99.18a6.2 6.2 0 015.74 3.86 6.26 6.26 0 01-4.53 8.5 6.19 6.19 0 01-7.42-6.12 6.26 6.26 0 016.2-6.24zm0-3.18a9.34 9.34 0 00-8.67 5.81 9.47 9.47 0 002.03 10.28 9.36 9.36 0 0016.01-6.67c0-2.5-.99-4.89-2.75-6.66a9.36 9.36 0 00-6.62-2.76zm0 23.63c3.46-.05 6.89.63 10.07 2a15.57 15.57 0 01-10.05 3.69H177c-3.66 0-7.21-1.3-10.02-3.67a24.67 24.67 0 0110.05-2.02zm0-3.18c-7.23 0-12.46 2.42-15.03 4.5a18.76 18.76 0 0015 7.55h.04a18.67 18.67 0 0013.93-6.24c.14-.17.59-.69 1.03-1.28-2.46-2.33-8.15-4.55-14.98-4.55v.02z"/>
  <g filter="url(#filter1_d)">
    <rect width="62" height="66" x="77" y="82" fill="#F3F4FA" rx="2"/>
  </g>
  <rect width="20" height="2" x="83" y="132" fill="#495E6F" fill-opacity=".4" rx="1"/>
  <rect width="19" height="4" x="83" y="137" fill="#495E6F" fill-opacity=".2" rx="1"/>
  <circle cx="108" cy="108" r="20" fill="#495E6F" fill-opacity=".2"/>
  <path fill="#495E6F" fill-opacity=".15" d="M108.03 99.18a6.2 6.2 0 015.74 3.86 6.26 6.26 0 01-4.53 8.5 6.19 6.19 0 01-7.42-6.12 6.26 6.26 0 016.2-6.24zm0-3.18a9.34 9.34 0 00-8.67 5.81 9.47 9.47 0 002.03 10.28 9.36 9.36 0 0016.01-6.67c0-2.5-.99-4.89-2.75-6.66a9.36 9.36 0 00-6.62-2.76zm0 23.63c3.46-.05 6.89.63 10.07 2a15.57 15.57 0 01-10.05 3.69H108c-3.66 0-7.21-1.3-10.02-3.67a24.67 24.67 0 0110.05-2.02zm0-3.18c-7.23 0-12.46 2.42-15.03 4.5a18.76 18.76 0 0015 7.55h.04a18.67 18.67 0 0013.93-6.24c.14-.17.59-.69 1.03-1.28-2.46-2.33-8.15-4.55-14.98-4.55v.02z"/>
  <g filter="url(#filter2_d)">
    <rect width="62" height="66" x="8" y="82" fill="#F3F4FA" rx="2"/>
  </g>
  <rect width="20" height="2" x="14" y="132" fill="#495E6F" fill-opacity=".4" rx="1"/>
  <rect width="19" height="4" x="14" y="137" fill="#495E6F" fill-opacity=".2" rx="1"/>
  <circle cx="39" cy="108" r="20" fill="#495E6F" fill-opacity=".2"/>
  <path fill="#495E6F" fill-opacity=".15" d="M39.03 99.18a6.2 6.2 0 015.74 3.86 6.27 6.27 0 01-4.53 8.5 6.19 6.19 0 01-7.42-6.12 6.26 6.26 0 016.2-6.24zm0-3.18a9.35 9.35 0 00-8.67 5.81 9.47 9.47 0 002.03 10.28 9.36 9.36 0 0016.01-6.67c0-2.5-.99-4.89-2.75-6.66A9.36 9.36 0 0039.03 96zm0 23.63c3.46-.05 6.89.63 10.07 2a15.57 15.57 0 01-10.05 3.69H39c-3.66 0-7.21-1.3-10.02-3.67a24.67 24.67 0 0110.05-2.02zm0-3.18c-7.23 0-12.46 2.42-15.03 4.5a18.76 18.76 0 0015 7.55h.04a18.68 18.68 0 0013.93-6.24c.14-.17.59-.69 1.03-1.28-2.46-2.33-8.15-4.55-14.98-4.55v.02z"/>
  <g filter="url(#filter3_d)">
    <rect width="62" height="66" x="146" y="9" fill="#F3F4FA" rx="2"/>
  </g>
  <rect width="20" height="2" x="152" y="59" fill="#495E6F" fill-opacity=".4" rx="1"/>
  <rect width="19" height="4" x="152" y="64" fill="#495E6F" fill-opacity=".2" rx="1"/>
  <circle cx="177" cy="35" r="20" fill="#495E6F" fill-opacity=".2"/>
  <path fill="#495E6F" fill-opacity=".15" d="M177.03 26.18a6.2 6.2 0 015.74 3.86 6.26 6.26 0 01-4.53 8.5 6.19 6.19 0 01-6.38-2.65 6.26 6.26 0 015.17-9.7zm0-3.18a9.34 9.34 0 00-8.67 5.81 9.47 9.47 0 002.03 10.28 9.36 9.36 0 0016.01-6.67c0-2.5-.99-4.89-2.75-6.66a9.36 9.36 0 00-6.62-2.76zm0 23.63c3.46-.05 6.89.63 10.07 2a15.57 15.57 0 01-10.05 3.69H177c-3.66 0-7.21-1.3-10.02-3.67a24.67 24.67 0 0110.05-2.02zm0-3.18c-7.23 0-12.46 2.42-15.03 4.5a18.76 18.76 0 0015 7.55h.04a18.69 18.69 0 0013.93-6.24c.14-.17.59-.69 1.03-1.28-2.46-2.33-8.15-4.55-14.98-4.55v.02z"/>
  <g filter="url(#filter4_d)">
    <rect width="62" height="66" x="77" y="9" fill="#F3F4FA" rx="2"/>
  </g>
  <rect width="20" height="2" x="83" y="59" fill="#495E6F" fill-opacity=".4" rx="1"/>
  <rect width="19" height="4" x="83" y="64" fill="#495E6F" fill-opacity=".2" rx="1"/>
  <circle cx="108" cy="35" r="20" fill="#495E6F" fill-opacity=".2"/>
  <path fill="#495E6F" fill-opacity=".15" d="M108.03 26.18a6.2 6.2 0 015.74 3.86 6.26 6.26 0 01-4.53 8.5 6.19 6.19 0 01-6.38-2.65 6.26 6.26 0 015.17-9.7zm0-3.18a9.34 9.34 0 00-8.67 5.81 9.47 9.47 0 002.03 10.28 9.36 9.36 0 0016.01-6.67c0-2.5-.99-4.89-2.75-6.66a9.36 9.36 0 00-6.62-2.76zm0 23.63c3.46-.05 6.89.63 10.07 2a15.57 15.57 0 01-10.05 3.69H108c-3.66 0-7.21-1.3-10.02-3.67a24.67 24.67 0 0110.05-2.02zm0-3.18c-7.23 0-12.46 2.42-15.03 4.5a18.77 18.77 0 0015 7.55h.04a18.69 18.69 0 0013.93-6.24c.14-.17.59-.69 1.03-1.28-2.46-2.33-8.15-4.55-14.98-4.55v.02z"/>
  <g filter="url(#filter5_d)">
    <rect width="62" height="66" x="8" y="9" fill="#F3F4FA" rx="2"/>
  </g>
  <rect width="20" height="2" x="14" y="59" fill="#495E6F" fill-opacity=".4" rx="1"/>
  <rect width="19" height="4" x="14" y="64" fill="#495E6F" fill-opacity=".2" rx="1"/>
  <circle cx="39" cy="35" r="20" fill="#495E6F" fill-opacity=".2"/>
  <path fill="#495E6F" fill-opacity=".15" d="M39.03 26.18a6.2 6.2 0 015.74 3.86 6.27 6.27 0 01-4.53 8.5 6.19 6.19 0 01-6.38-2.65 6.27 6.27 0 015.17-9.7zm0-3.18a9.35 9.35 0 00-8.67 5.81 9.47 9.47 0 002.03 10.28 9.37 9.37 0 0016.01-6.67c0-2.5-.99-4.89-2.75-6.66A9.36 9.36 0 0039.03 23zm0 23.63c3.46-.05 6.89.63 10.07 2a15.57 15.57 0 01-10.05 3.69H39c-3.66 0-7.21-1.3-10.02-3.67a24.67 24.67 0 0110.05-2.02zm0-3.18c-7.23 0-12.46 2.42-15.03 4.5a18.77 18.77 0 0015 7.55h.04a18.69 18.69 0 0013.93-6.24c.14-.17.59-.69 1.03-1.28-2.46-2.33-8.15-4.55-14.98-4.55v.02z"/>
  <defs>
    <filter id="filter0_d" width="64" height="68" x="145" y="81.5" color-interpolation-filters="sRGB" filterUnits="userSpaceOnUse">
      <feFlood flood-opacity="0" result="BackgroundImageFix"/>
      <feColorMatrix in="SourceAlpha" values="0 0 0 0 0 0 0 0 0 0 0 0 0 0 0 0 0 0 127 0"/>
      <feOffset dy=".5"/>
      <feGaussianBlur stdDeviation=".5"/>
      <feColorMatrix values="0 0 0 0 0.0431373 0 0 0 0 0.0352941 0 0 0 0 0.176471 0 0 0 0.1 0"/>
      <feBlend in2="BackgroundImageFix" result="effect1_dropShadow"/>
      <feBlend in="SourceGraphic" in2="effect1_dropShadow" result="shape"/>
    </filter>
    <filter id="filter1_d" width="64" height="68" x="76" y="81.5" color-interpolation-filters="sRGB" filterUnits="userSpaceOnUse">
      <feFlood flood-opacity="0" result="BackgroundImageFix"/>
      <feColorMatrix in="SourceAlpha" values="0 0 0 0 0 0 0 0 0 0 0 0 0 0 0 0 0 0 127 0"/>
      <feOffset dy=".5"/>
      <feGaussianBlur stdDeviation=".5"/>
      <feColorMatrix values="0 0 0 0 0.0431373 0 0 0 0 0.0352941 0 0 0 0 0.176471 0 0 0 0.1 0"/>
      <feBlend in2="BackgroundImageFix" result="effect1_dropShadow"/>
      <feBlend in="SourceGraphic" in2="effect1_dropShadow" result="shape"/>
    </filter>
    <filter id="filter2_d" width="64" height="68" x="7" y="81.5" color-interpolation-filters="sRGB" filterUnits="userSpaceOnUse">
      <feFlood flood-opacity="0" result="BackgroundImageFix"/>
      <feColorMatrix in="SourceAlpha" values="0 0 0 0 0 0 0 0 0 0 0 0 0 0 0 0 0 0 127 0"/>
      <feOffset dy=".5"/>
      <feGaussianBlur stdDeviation=".5"/>
      <feColorMatrix values="0 0 0 0 0.0431373 0 0 0 0 0.0352941 0 0 0 0 0.176471 0 0 0 0.1 0"/>
      <feBlend in2="BackgroundImageFix" result="effect1_dropShadow"/>
      <feBlend in="SourceGraphic" in2="effect1_dropShadow" result="shape"/>
    </filter>
    <filter id="filter3_d" width="64" height="68" x="145" y="8.5" color-interpolation-filters="sRGB" filterUnits="userSpaceOnUse">
      <feFlood flood-opacity="0" result="BackgroundImageFix"/>
      <feColorMatrix in="SourceAlpha" values="0 0 0 0 0 0 0 0 0 0 0 0 0 0 0 0 0 0 127 0"/>
      <feOffset dy=".5"/>
      <feGaussianBlur stdDeviation=".5"/>
      <feColorMatrix values="0 0 0 0 0.0431373 0 0 0 0 0.0352941 0 0 0 0 0.176471 0 0 0 0.1 0"/>
      <feBlend in2="BackgroundImageFix" result="effect1_dropShadow"/>
      <feBlend in="SourceGraphic" in2="effect1_dropShadow" result="shape"/>
    </filter>
    <filter id="filter4_d" width="64" height="68" x="76" y="8.5" color-interpolation-filters="sRGB" filterUnits="userSpaceOnUse">
      <feFlood flood-opacity="0" result="BackgroundImageFix"/>
      <feColorMatrix in="SourceAlpha" values="0 0 0 0 0 0 0 0 0 0 0 0 0 0 0 0 0 0 127 0"/>
      <feOffset dy=".5"/>
      <feGaussianBlur stdDeviation=".5"/>
      <feColorMatrix values="0 0 0 0 0.0431373 0 0 0 0 0.0352941 0 0 0 0 0.176471 0 0 0 0.1 0"/>
      <feBlend in2="BackgroundImageFix" result="effect1_dropShadow"/>
      <feBlend in="SourceGraphic" in2="effect1_dropShadow" result="shape"/>
    </filter>
    <filter id="filter5_d" width="64" height="68" x="7" y="8.5" color-interpolation-filters="sRGB" filterUnits="userSpaceOnUse">
      <feFlood flood-opacity="0" result="BackgroundImageFix"/>
      <feColorMatrix in="SourceAlpha" values="0 0 0 0 0 0 0 0 0 0 0 0 0 0 0 0 0 0 127 0"/>
      <feOffset dy=".5"/>
      <feGaussianBlur stdDeviation=".5"/>
      <feColorMatrix values="0 0 0 0 0.0431373 0 0 0 0 0.0352941 0 0 0 0 0.176471 0 0 0 0.1 0"/>
      <feBlend in2="BackgroundImageFix" result="effect1_dropShadow"/>
      <feBlend in="SourceGraphic" in2="effect1_dropShadow" result="shape"/>
    </filter>
  </defs>
</svg>
