<svg width="200" height="200" viewBox="0 0 200 200" fill="none" xmlns="http://www.w3.org/2000/svg">
<path fill-rule="evenodd" clip-rule="evenodd" d="M56.0101 115.283H121.647C126.549 115.283 129.44 113.417 131.357 111.052C133.827 107.756 135.137 103.68 135.068 99.5013C135.115 94.8039 133.677 90.8143 131.558 88.2404C129.687 86.0043 126.641 83.913 120.874 83.913H46.6555C43.1146 83.913 40.0995 82.8996 38.1513 82.0952C36.0967 81.2215 34.1202 80.161 32.2447 78.9261C28.5179 76.4653 25.0552 73.5961 21.916 70.3678C18.499 66.9298 15.5025 63.0666 12.9943 58.8657C10.6286 54.7957 8 48.8917 8 42.087V26H120.874C139.738 26 157.829 33.7964 171.168 47.6741C184.506 61.5518 192 80.374 192 100C192 119.626 184.506 138.448 171.168 152.326C157.829 166.204 139.738 174 120.874 174H94.5882C81.7856 174 72.0134 164.991 66.6945 158.267C63.7159 154.519 61.2209 150.381 59.2726 145.96C57.1739 141.371 56.0355 136.37 55.9328 131.289L56.0101 115.283ZM32.0592 58.1739C37.239 63.6435 43.4239 67.8261 46.6555 67.8261H120.874C161.076 67.8261 159.529 131.37 121.647 131.37H71.395V131.482C71.4104 135.842 74.1008 142.116 78.1674 147.457C82.5741 153.232 88.5889 157.913 94.5882 157.913H120.874C135.637 157.913 149.795 151.812 160.234 140.951C170.673 130.09 176.538 115.359 176.538 100C176.538 84.6405 170.673 69.9101 160.234 59.0493C149.795 48.1885 135.637 42.087 120.874 42.087H23.4622C23.4622 47.0739 27.3277 53.1709 32.0592 58.1739Z" fill="#5435FF"/>
<path fill-rule="evenodd" clip-rule="evenodd" d="M39.5414 110.779C33.3875 100.13 28.8725 86.6488 28.8725 75.8705H44.3347C44.3347 82.7879 47.5508 93.4374 52.7925 102.494C54.9526 106.403 57.6804 109.941 60.8792 112.983C63.6779 115.477 65.6725 116.088 66.7549 116.088V132.175C60.5081 132.175 55.05 128.957 50.8133 125.177C46.3559 121.02 42.5524 116.162 39.5414 110.779Z" fill="#5435FF"/>
</svg>
