<svg width="582" height="626" viewBox="0 0 582 626" fill="none" xmlns="http://www.w3.org/2000/svg">
<rect width="582" height="626" rx="15" fill="white"/>
<rect x="43" y="480" width="496" height="89" rx="15" fill="#0075FF"/>
<path d="M159.461 536H168.609C171.01 536 173.063 535.524 174.768 534.572C176.472 533.62 177.773 532.243 178.669 530.438C179.577 528.634 180.031 526.465 180.031 523.931V523.897C180.031 521.363 179.577 519.216 178.669 517.456C177.762 515.685 176.456 514.34 174.751 513.422C173.058 512.503 171.01 512.044 168.609 512.044H159.461V536ZM164.475 531.85V516.178H168.011C169.483 516.178 170.734 516.477 171.763 517.074C172.792 517.661 173.572 518.53 174.104 519.681C174.646 520.832 174.917 522.243 174.917 523.914V523.947C174.917 525.674 174.652 527.124 174.12 528.297C173.6 529.47 172.825 530.355 171.796 530.953C170.767 531.551 169.505 531.85 168.011 531.85H164.475ZM190.341 536.365C192.134 536.365 193.689 536 195.006 535.27C196.323 534.528 197.341 533.465 198.06 532.082C198.791 530.699 199.156 529.038 199.156 527.102V527.068C199.156 525.143 198.791 523.493 198.06 522.121C197.33 520.738 196.301 519.681 194.973 518.95C193.656 518.209 192.106 517.838 190.324 517.838C188.553 517.838 187.009 518.209 185.692 518.95C184.375 519.692 183.351 520.754 182.621 522.138C181.891 523.51 181.525 525.154 181.525 527.068V527.102C181.525 529.027 181.885 530.682 182.604 532.065C183.324 533.449 184.342 534.511 185.659 535.253C186.976 535.994 188.537 536.365 190.341 536.365ZM190.357 532.563C189.56 532.563 188.869 532.353 188.282 531.933C187.696 531.501 187.242 530.881 186.921 530.073C186.611 529.254 186.456 528.264 186.456 527.102V527.068C186.456 525.917 186.616 524.938 186.937 524.13C187.258 523.322 187.707 522.708 188.282 522.287C188.869 521.855 189.549 521.64 190.324 521.64C191.11 521.64 191.796 521.855 192.383 522.287C192.969 522.708 193.423 523.322 193.744 524.13C194.065 524.938 194.226 525.917 194.226 527.068V527.102C194.226 528.264 194.065 529.254 193.744 530.073C193.434 530.881 192.986 531.501 192.399 531.933C191.824 532.353 191.143 532.563 190.357 532.563ZM204.287 536H209.383L212.587 523.416H212.687L215.908 536H221.071L225.786 518.203H221.004L218.298 531.401H218.199L215.028 518.203H210.379L207.225 531.401H207.126L204.436 518.203H199.555L204.287 536ZM226.998 536H231.846V525.773C231.846 524.988 231.99 524.301 232.278 523.715C232.576 523.128 232.991 522.674 233.523 522.354C234.054 522.021 234.679 521.855 235.399 521.855C236.483 521.855 237.297 522.176 237.839 522.818C238.393 523.449 238.669 524.346 238.669 525.508V536H243.517V524.512C243.517 522.42 242.98 520.787 241.907 519.614C240.844 518.43 239.333 517.838 237.374 517.838C236.035 517.838 234.912 518.131 234.004 518.718C233.097 519.304 232.41 520.107 231.946 521.125H231.846V518.203H226.998V536ZM246.024 536H250.872V512.044H246.024V536ZM261.63 536.365C263.423 536.365 264.978 536 266.296 535.27C267.613 534.528 268.631 533.465 269.35 532.082C270.081 530.699 270.446 529.038 270.446 527.102V527.068C270.446 525.143 270.081 523.493 269.35 522.121C268.62 520.738 267.59 519.681 266.262 518.95C264.945 518.209 263.396 517.838 261.614 517.838C259.843 517.838 258.299 518.209 256.982 518.95C255.665 519.692 254.641 520.754 253.911 522.138C253.18 523.51 252.815 525.154 252.815 527.068V527.102C252.815 529.027 253.175 530.682 253.894 532.065C254.614 533.449 255.632 534.511 256.949 535.253C258.266 535.994 259.826 536.365 261.63 536.365ZM261.647 532.563C260.85 532.563 260.158 532.353 259.572 531.933C258.985 531.501 258.532 530.881 258.211 530.073C257.901 529.254 257.746 528.264 257.746 527.102V527.068C257.746 525.917 257.906 524.938 258.227 524.13C258.548 523.322 258.996 522.708 259.572 522.287C260.158 521.855 260.839 521.64 261.614 521.64C262.4 521.64 263.086 521.855 263.672 522.287C264.259 522.708 264.713 523.322 265.034 524.13C265.355 524.938 265.515 525.917 265.515 527.068V527.102C265.515 528.264 265.355 529.254 265.034 530.073C264.724 530.881 264.276 531.501 263.689 531.933C263.114 532.353 262.433 532.563 261.647 532.563ZM277.569 536.282C278.354 536.282 279.079 536.166 279.743 535.934C280.408 535.69 281 535.353 281.52 534.921C282.051 534.478 282.483 533.952 282.815 533.344H282.914V536H287.762V523.798C287.762 522.603 287.447 521.557 286.816 520.66C286.196 519.764 285.322 519.072 284.193 518.585C283.064 518.087 281.73 517.838 280.192 517.838C278.631 517.838 277.281 518.081 276.141 518.568C275.012 519.044 274.127 519.708 273.485 520.561C272.854 521.413 272.494 522.387 272.406 523.482L272.389 523.682H276.822L276.855 523.532C276.977 522.957 277.303 522.481 277.834 522.104C278.366 521.728 279.085 521.54 279.992 521.54C280.944 521.54 281.669 521.772 282.167 522.237C282.665 522.691 282.914 523.311 282.914 524.097V529.492C282.914 530.112 282.748 530.671 282.416 531.169C282.095 531.656 281.647 532.043 281.072 532.331C280.507 532.608 279.865 532.746 279.146 532.746C278.305 532.746 277.635 532.563 277.137 532.198C276.639 531.822 276.39 531.307 276.39 530.654V530.621C276.39 529.99 276.633 529.487 277.12 529.11C277.607 528.723 278.316 528.502 279.245 528.446L285.454 528.048V525.026L278.515 525.458C277.043 525.558 275.792 525.829 274.763 526.271C273.734 526.714 272.948 527.323 272.406 528.098C271.863 528.861 271.592 529.785 271.592 530.87V530.903C271.592 531.944 271.841 532.873 272.339 533.692C272.848 534.5 273.551 535.137 274.448 535.602C275.344 536.055 276.384 536.282 277.569 536.282ZM296.811 536.365C297.674 536.365 298.46 536.227 299.168 535.95C299.876 535.674 300.496 535.286 301.027 534.788C301.559 534.279 301.979 533.67 302.289 532.962H302.389V536H307.236V512.044H302.389V521.291H302.289C301.968 520.572 301.536 519.957 300.994 519.448C300.463 518.928 299.843 518.53 299.135 518.253C298.426 517.976 297.652 517.838 296.811 517.838C295.316 517.838 294.027 518.209 292.942 518.95C291.869 519.681 291.039 520.738 290.452 522.121C289.866 523.493 289.572 525.148 289.572 527.085V527.102C289.572 529.027 289.86 530.682 290.436 532.065C291.022 533.449 291.858 534.511 292.942 535.253C294.027 535.994 295.316 536.365 296.811 536.365ZM298.438 532.348C297.63 532.348 296.927 532.137 296.329 531.717C295.743 531.285 295.289 530.676 294.968 529.891C294.658 529.105 294.503 528.175 294.503 527.102V527.085C294.503 526 294.663 525.071 294.984 524.296C295.305 523.51 295.759 522.907 296.346 522.486C296.932 522.066 297.63 521.855 298.438 521.855C299.223 521.855 299.91 522.071 300.496 522.503C301.094 522.924 301.559 523.527 301.891 524.312C302.234 525.087 302.405 526.011 302.405 527.085V527.102C302.405 528.175 302.239 529.105 301.907 529.891C301.575 530.676 301.11 531.285 300.513 531.717C299.915 532.137 299.223 532.348 298.438 532.348ZM316.269 536H320.735V519.797H323.059L318.045 512.708L327.342 536H330.496L339.793 512.708L334.78 519.797H337.104V536H341.57V512.044H335.776L328.969 529.26H328.869L322.063 512.044H316.269V536ZM352.627 536.365C354.42 536.365 355.975 536 357.292 535.27C358.609 534.528 359.627 533.465 360.347 532.082C361.077 530.699 361.442 529.038 361.442 527.102V527.068C361.442 525.143 361.077 523.493 360.347 522.121C359.616 520.738 358.587 519.681 357.259 518.95C355.942 518.209 354.392 517.838 352.61 517.838C350.84 517.838 349.296 518.209 347.979 518.95C346.661 519.692 345.638 520.754 344.907 522.138C344.177 523.51 343.812 525.154 343.812 527.068V527.102C343.812 529.027 344.171 530.682 344.891 532.065C345.61 533.449 346.628 534.511 347.945 535.253C349.262 535.994 350.823 536.365 352.627 536.365ZM352.644 532.563C351.847 532.563 351.155 532.353 350.568 531.933C349.982 531.501 349.528 530.881 349.207 530.073C348.897 529.254 348.742 528.264 348.742 527.102V527.068C348.742 525.917 348.903 524.938 349.224 524.13C349.545 523.322 349.993 522.708 350.568 522.287C351.155 521.855 351.836 521.64 352.61 521.64C353.396 521.64 354.082 521.855 354.669 522.287C355.256 522.708 355.709 523.322 356.03 524.13C356.351 524.938 356.512 525.917 356.512 527.068V527.102C356.512 528.264 356.351 529.254 356.03 530.073C355.72 530.881 355.272 531.501 354.686 531.933C354.11 532.353 353.429 532.563 352.644 532.563ZM369.86 536.365C370.723 536.365 371.509 536.227 372.217 535.95C372.926 535.674 373.546 535.286 374.077 534.788C374.608 534.279 375.029 533.67 375.339 532.962H375.438V536H380.286V512.044H375.438V521.291H375.339C375.018 520.572 374.586 519.957 374.044 519.448C373.512 518.928 372.893 518.53 372.184 518.253C371.476 517.976 370.701 517.838 369.86 517.838C368.366 517.838 367.077 518.209 365.992 518.95C364.918 519.681 364.088 520.738 363.502 522.121C362.915 523.493 362.622 525.148 362.622 527.085V527.102C362.622 529.027 362.91 530.682 363.485 532.065C364.072 533.449 364.907 534.511 365.992 535.253C367.077 535.994 368.366 536.365 369.86 536.365ZM371.487 532.348C370.679 532.348 369.976 532.137 369.379 531.717C368.792 531.285 368.338 530.676 368.017 529.891C367.707 529.105 367.552 528.175 367.552 527.102V527.085C367.552 526 367.713 525.071 368.034 524.296C368.355 523.51 368.809 522.907 369.395 522.486C369.982 522.066 370.679 521.855 371.487 521.855C372.273 521.855 372.959 522.071 373.546 522.503C374.143 522.924 374.608 523.527 374.94 524.312C375.283 525.087 375.455 526.011 375.455 527.085V527.102C375.455 528.175 375.289 529.105 374.957 529.891C374.625 530.676 374.16 531.285 373.562 531.717C372.965 532.137 372.273 532.348 371.487 532.348ZM390.945 536.365C392.217 536.365 393.324 536.199 394.265 535.867C395.217 535.535 396.019 535.092 396.672 534.539C397.336 533.986 397.862 533.377 398.249 532.713C398.637 532.049 398.897 531.39 399.03 530.737L399.079 530.555H394.63L394.597 530.654C394.486 530.986 394.276 531.313 393.966 531.634C393.656 531.955 393.258 532.22 392.771 532.431C392.284 532.641 391.708 532.746 391.044 532.746C390.203 532.746 389.478 532.563 388.87 532.198C388.261 531.822 387.79 531.285 387.458 530.588C387.137 529.891 386.977 529.049 386.977 528.064V526.188C386.977 525.17 387.137 524.312 387.458 523.615C387.79 522.907 388.244 522.37 388.82 522.005C389.406 521.64 390.076 521.457 390.828 521.457C391.581 521.457 392.24 521.634 392.804 521.988C393.38 522.342 393.828 522.874 394.149 523.582C394.47 524.279 394.63 525.148 394.63 526.188V528.048L396.938 525.192H384.57V528.247H399.229V526.753C399.229 524.96 398.88 523.394 398.183 522.055C397.497 520.715 396.517 519.681 395.245 518.95C393.983 518.209 392.483 517.838 390.745 517.838C389.008 517.838 387.497 518.22 386.213 518.983C384.94 519.736 383.95 520.81 383.242 522.204C382.544 523.588 382.196 525.226 382.196 527.118V527.135C382.196 529.027 382.544 530.665 383.242 532.049C383.95 533.432 384.957 534.5 386.263 535.253C387.569 535.994 389.13 536.365 390.945 536.365ZM401.172 536H406.02V512.044H401.172V536ZM415.931 536.365C417.459 536.365 418.803 536.127 419.966 535.651C421.139 535.164 422.057 534.489 422.721 533.626C423.385 532.763 423.718 531.75 423.718 530.588V530.571C423.718 529.265 423.308 528.225 422.489 527.45C421.681 526.675 420.342 526.094 418.471 525.707L415.45 525.06C414.852 524.927 414.376 524.772 414.022 524.595C413.668 524.418 413.413 524.213 413.259 523.98C413.115 523.737 413.043 523.466 413.043 523.167V523.15C413.043 522.763 413.153 522.431 413.375 522.154C413.596 521.867 413.912 521.645 414.321 521.49C414.731 521.335 415.212 521.258 415.765 521.258C416.662 521.258 417.365 521.474 417.874 521.905C418.394 522.326 418.693 522.857 418.77 523.499L418.787 523.632H423.253V523.466C423.219 522.425 422.904 521.479 422.306 520.627C421.72 519.775 420.873 519.1 419.766 518.602C418.671 518.092 417.337 517.838 415.765 517.838C414.26 517.838 412.943 518.07 411.814 518.535C410.696 518.989 409.833 519.631 409.224 520.461C408.616 521.291 408.311 522.276 408.311 523.416V523.433C408.311 524.318 408.505 525.104 408.892 525.79C409.28 526.465 409.855 527.035 410.619 527.5C411.394 527.954 412.357 528.302 413.508 528.546L416.529 529.177C417.403 529.376 418.012 529.619 418.355 529.907C418.698 530.195 418.87 530.577 418.87 531.053V531.069C418.87 531.457 418.748 531.789 418.505 532.065C418.272 532.342 417.94 532.558 417.509 532.713C417.077 532.857 416.551 532.929 415.931 532.929C414.969 532.929 414.216 532.735 413.674 532.348C413.131 531.96 412.783 531.418 412.628 530.721L412.594 530.571H407.863L407.88 530.721C408.012 531.839 408.4 532.824 409.042 533.676C409.695 534.517 410.597 535.175 411.748 535.651C412.899 536.127 414.293 536.365 415.931 536.365Z" fill="white" fill-opacity="0.8"/>
<path fill-rule="evenodd" clip-rule="evenodd" d="M291 108C299.857 108 307.037 114.984 307.037 123.6V248.4C307.037 257.016 299.857 264 291 264C282.143 264 274.963 257.016 274.963 248.4V123.6C274.963 114.984 282.143 108 291 108Z" fill="#DEE8F3"/>
<path fill-rule="evenodd" clip-rule="evenodd" d="M232.899 191.302C239.02 185.205 248.943 185.205 255.064 191.302L291 227.102L326.936 191.302C333.057 185.205 342.98 185.205 349.101 191.302C355.222 197.399 355.222 207.285 349.101 213.383L303.446 258.865C296.573 265.712 285.427 265.712 278.554 258.865L232.899 213.383C226.778 207.285 226.778 197.399 232.899 191.302Z" fill="#DEE8F3"/>
<path fill-rule="evenodd" clip-rule="evenodd" d="M150.6 217.346C159.216 217.346 166.2 224.363 166.2 233.019V295.71C166.2 304.366 173.184 311.383 181.8 311.383H400.2C408.816 311.383 415.8 304.367 415.8 295.71V233.019C415.8 224.363 422.784 217.346 431.4 217.346C440.016 217.346 447 224.363 447 233.019V295.71C447 321.678 426.047 342.729 400.2 342.729H181.8C155.953 342.729 135 321.679 135 295.71V233.019C135 224.363 141.984 217.346 150.6 217.346Z" fill="#DEE8F3"/>
</svg>
