<svg xmlns="http://www.w3.org/2000/svg" fill="none" viewBox="0 0 513 309">
  <defs/>
  <g filter="url(#filter0_d)">
    <path fill="#fff" d="M10 38.05h493v250.41H10z"/>
    <path stroke="#E5E5E5" stroke-width=".5" d="M10.25 38.3h492.5v249.91H10.25z"/>
  </g>
  <rect width="52.54" height="5.03" x="33.48" y="48.39" fill="#032359" opacity=".25" rx="2.52"/>
  <path fill="#032359" d="M27.45 66.98v-1.84l2.26-1.31h1.55v8.04h-1.78v-6.11l-2.03 1.22zM33.29 67.81c0-1.28.25-2.29.74-3.04a2.45 2.45 0 012.19-1.11c.96 0 1.7.37 2.19 1.11.5.75.75 1.76.75 3.04a5.4 5.4 0 01-.75 3.03 2.44 2.44 0 01-2.2 1.13c-.96 0-1.69-.38-2.18-1.12a5.5 5.5 0 01-.74-3.04zm2.93-2.56c-.73 0-1.1.86-1.1 2.56 0 1.7.37 2.56 1.1 2.56.73 0 1.1-.85 1.1-2.56 0-1.7-.37-2.56-1.1-2.56zM43.32 70.34h2.86v1.53H40.8v-1.39c.89-.6 1.67-1.28 2.34-2.02.68-.73 1.02-1.39 1.02-1.95 0-.35-.1-.62-.3-.81-.21-.2-.52-.31-.94-.31-.7 0-1.36.26-1.98.77v-1.73c.27-.2.62-.36 1.06-.5.43-.14.86-.21 1.28-.21.83 0 1.5.22 1.99.66.5.44.75 1.05.75 1.83 0 1.42-.9 2.8-2.7 4.13zM54.07 71.87H52L50 68.81v3.06h-1.8v-8.49H50v5.05l1.97-2.8h2.06l-2.16 3 2.2 3.24z"/>
  <path fill="#1AA475" d="M69.45 70.52c.28 0 .47-.2.47-.5V67.2l-.02-.6.46.55.59.59c.09.09.2.15.34.15.25 0 .44-.19.44-.45a.49.49 0 00-.14-.34l-1.8-1.8a.5.5 0 00-.69 0l-1.79 1.8c-.1.1-.15.21-.15.34 0 .26.2.45.45.45.15 0 .25-.06.34-.15l.6-.6.45-.54-.03.6v2.83c0 .3.2.5.48.5z"/>
  <rect width="16.77" height="5.03" x="73.72" y="65.16" fill="#032359" opacity=".5" rx="2.52"/>
  <path fill="#E5E5E5" fill-rule="evenodd" d="M109.5 79.42V45.88h.55v33.54h-.56z" clip-rule="evenodd"/>
  <rect width="52.54" height="5.03" x="134.09" y="48.39" fill="#032359" opacity=".25" rx="2.52"/>
  <path fill="#032359" d="M130.26 70.34h2.85v1.53h-5.36v-1.39c.88-.6 1.66-1.28 2.34-2.02.68-.73 1.02-1.39 1.02-1.95 0-.35-.1-.62-.31-.81-.2-.2-.52-.31-.94-.31-.7 0-1.35.26-1.98.77v-1.73c.28-.2.63-.36 1.06-.5.44-.14.86-.21 1.28-.21.84 0 1.5.22 2 .66.5.44.74 1.05.74 1.83 0 1.42-.9 2.8-2.7 4.13zM137.74 70.57c.37 0 .66-.1.84-.27a.9.9 0 00.3-.68c0-.3-.1-.54-.3-.73-.2-.18-.48-.28-.84-.28-.37 0-.65.1-.84.3-.18.21-.27.46-.27.73 0 .26.08.48.26.66.18.18.46.27.85.27zm-.02-5.46c-.32 0-.57.1-.72.28a.98.98 0 00-.24.66c0 .31.1.56.29.73.19.17.42.26.71.26a1 1 0 00.7-.26.93.93 0 00.28-.73c0-.63-.34-.94-1.02-.94zm1.81 2.66c.76.36 1.14.98 1.14 1.86 0 .7-.27 1.28-.82 1.71a3.3 3.3 0 01-2.13.65c-.88 0-1.59-.2-2.11-.61a2.05 2.05 0 01-.78-1.69c0-.87.4-1.5 1.17-1.88a1.9 1.9 0 01-1.04-1.73c0-.76.25-1.34.77-1.76a3.06 3.06 0 012-.64c.83 0 1.5.2 2.02.6.53.4.79 1 .79 1.8 0 .74-.34 1.3-1.01 1.7zM144.1 68.64h1.76V65l-1.77 3.64zm4.53 0v1.52h-.98v1.71h-1.79v-1.71h-3.53v-1.52l2.46-4.84h2.86v4.84h.98zM156.33 71.87h-2.08l-1.99-3.06v3.06h-1.8v-8.49h1.8v5.05l1.97-2.8h2.07l-2.17 3 2.2 3.24z"/>
  <path fill="#D32727" d="M171.34 65.4c-.28 0-.47.19-.47.49v2.83l.02.6-.46-.55-.6-.6a.46.46 0 00-.33-.15.44.44 0 00-.45.46c0 .12.05.24.15.34l1.8 1.79a.5.5 0 00.69 0l1.79-1.8c.1-.1.14-.2.14-.33 0-.27-.19-.46-.44-.46a.47.47 0 00-.34.16l-.6.59-.45.54.02-.6V65.9c0-.3-.19-.5-.47-.5z"/>
  <rect width="16.77" height="5.03" x="176.01" y="65.16" fill="#032359" opacity=".5" rx="2.52"/>
  <path fill="#E5E5E5" fill-rule="evenodd" d="M210.67 79.42V45.88h.56v33.54h-.56z" clip-rule="evenodd"/>
  <rect width="52.54" height="5.03" x="226.88" y="48.39" fill="#032359" opacity=".25" rx="2.52"/>
  <path fill="#032359" d="M231.63 65.33v1.36a4 4 0 01.54-.03c.88 0 1.55.22 2.02.67.47.45.7 1.07.7 1.85 0 .83-.28 1.5-.83 2.01-.56.5-1.34.75-2.35.75-.9 0-1.62-.14-2.17-.43v-1.7c.56.35 1.18.52 1.87.52 1.1 0 1.65-.4 1.65-1.18 0-.3-.12-.53-.35-.7-.22-.17-.55-.26-1-.26-.64 0-1.24.14-1.82.4V63.8h4.5v1.53h-2.76zM239.24 67.61c.5 0 .9-.18 1.2-.55-.1-1.16-.5-1.74-1.18-1.74-.32 0-.58.1-.78.3-.19.2-.28.5-.28.86 0 .33.1.6.28.82.19.2.44.31.76.31zm-2.3 4.12v-1.7c.43.21.85.31 1.27.31a2.3 2.3 0 001.49-.43c.35-.3.58-.75.69-1.37-.35.35-.89.53-1.6.53-.72 0-1.3-.23-1.76-.7a2.6 2.6 0 01-.66-1.85c0-.8.25-1.47.75-2 .5-.54 1.19-.8 2.05-.8.96 0 1.7.34 2.25 1.04s.82 1.63.82 2.83c0 1.47-.34 2.57-1.04 3.3a3.7 3.7 0 01-2.8 1.08c-.55 0-1.04-.08-1.46-.24zM246.33 71.88l4.66-8.7h1.62l-4.67 8.7h-1.61zm4.62-.59a2.28 2.28 0 01-.67-1.66c0-.65.22-1.2.67-1.65a2.26 2.26 0 011.66-.68c.65 0 1.2.22 1.65.68.46.45.69 1 .69 1.65 0 .65-.23 1.2-.69 1.66-.45.45-1 .68-1.65.68-.64 0-1.2-.23-1.66-.68zm-6.18-4.3a2.28 2.28 0 01-.68-1.66c0-.65.23-1.2.68-1.65a2.26 2.26 0 011.66-.69c.64 0 1.2.23 1.65.69.45.45.68 1 .68 1.65 0 .65-.22 1.2-.68 1.66-.46.45-1 .67-1.65.67-.65 0-1.2-.22-1.66-.67zm1.02-2.29a.85.85 0 00-.26.63c0 .24.09.46.26.64.18.17.4.26.64.26s.45-.1.63-.26a.88.88 0 000-1.27.88.88 0 00-1.27 0zm6.18 4.3a.85.85 0 00-.25.63c0 .25.08.46.25.64.18.17.4.26.64.26.25 0 .46-.09.63-.26.18-.18.27-.4.27-.64a.83.83 0 00-.27-.63.83.83 0 00-.63-.27.87.87 0 00-.64.27z"/>
  <path fill="#1AA475" d="M268.44 70.52c.28 0 .47-.2.47-.5V67.2l-.03-.6.47.55.59.59c.08.09.2.15.34.15.25 0 .44-.19.44-.45a.49.49 0 00-.14-.34l-1.8-1.8a.5.5 0 00-.69 0l-1.8 1.8c-.09.1-.14.21-.14.34 0 .26.2.45.45.45.15 0 .25-.06.34-.15l.59-.6.46-.54-.03.6v2.83c0 .3.2.5.48.5z"/>
  <rect width="9.5" height="5.03" x="273.27" y="65.16" fill="#032359" opacity=".5" rx="2.52"/>
  <rect width="10.62" height="5.03" x="16.71" y="98.14" fill="#032359" opacity=".25" rx="2.52"/>
  <rect width="10.62" height="5.03" x="16.71" y="122.18" fill="#032359" opacity=".25" rx="2.52"/>
  <rect width="10.62" height="5.03" x="16.71" y="146.21" fill="#032359" opacity=".25" rx="2.52"/>
  <rect width="10.62" height="5.03" x="16.71" y="170.25" fill="#032359" opacity=".25" rx="2.52"/>
  <rect width="10.62" height="5.03" x="16.71" y="194.28" fill="#032359" opacity=".25" rx="2.52"/>
  <rect width="10.62" height="5.03" x="16.71" y="218.32" fill="#032359" opacity=".25" rx="2.52"/>
  <rect width="10.62" height="5.03" x="16.71" y="242.35" fill="#032359" opacity=".25" rx="2.52"/>
  <rect width="10.62" height="5.03" x="16.71" y="266.39" fill="#032359" opacity=".25" rx="2.52"/>
  <rect width="22.36" height="5.03" x="23.41" y="277.01" fill="#032359" opacity=".5" rx="2.52"/>
  <rect width="22.36" height="5.03" x="113.41" y="277.01" fill="#032359" opacity=".5" rx="2.52"/>
  <rect width="22.36" height="5.03" x="203.4" y="277.01" fill="#032359" opacity=".5" rx="2.52"/>
  <rect width="22.36" height="5.03" x="293.39" y="277.01" fill="#032359" opacity=".5" rx="2.52"/>
  <rect width="22.36" height="5.03" x="383.38" y="277.01" fill="#032359" opacity=".5" rx="2.52"/>
  <rect width="22.36" height="5.03" x="473.38" y="277.01" fill="#032359" opacity=".5" rx="2.52"/>
  <path fill="#E5E5E5" fill-rule="evenodd" d="M492.38 100.76L29 101.21v-.55l463.38-.46v.56zM492.38 124.79L29 125.24v-.56l463.38-.45v.56zM492.38 148.82L29 149.27v-.56l463.38-.45v.56zM492.38 172.86L29 173.3v-.56l463.38-.45v.56zM492.38 196.9L29 197.33v-.56l463.38-.45v.56zM492.38 220.93L29 221.38v-.56l463.38-.45v.56zM492.38 244.96L29 245.41v-.56l463.38-.45v.56z" clip-rule="evenodd"/>
  <path fill="url(#paint0_linear)" fill-opacity=".15" d="M34.6 264.7h466.17v-82.36l-101.7-17.1-193.7 11.9-79.87-20.64-90.9 108.2z"/>
  <path stroke="#EA4C89" stroke-dasharray="3.6 6" stroke-width="1.9" d="M399.15 165.06l93 15"/>
  <path stroke="#FF8A00" stroke-width="1.7" d="M34 265l91-109.5 81 21.5 193-12"/>
  <path fill="url(#paint1_linear)" fill-opacity=".15" d="M168.74 263.03L34.6 264.71h466.18v-15.37l-110.4-42.2-110.4-88.88-111.23 144.77z"/>
  <path fill="#5435FF" fill-rule="evenodd" d="M280.95 117.07l111.06 89.41-1.05 1.31-109.72-88.34-110.96 144.42-136.24 1.68-.02-1.68 135.42-1.67 111.51-145.13z" clip-rule="evenodd"/>
  <path fill="#2E5BFF" fill-rule="evenodd" d="M392.82 208.59l-1.61-.61.6-1.57 1.6.6-.59 1.58zm8.08 3.05l-3.23-1.22.6-1.57 3.23 1.22-.6 1.57zm8.09 3.05l-3.24-1.22.6-1.57 3.23 1.22-.6 1.57zm8.07 3.05l-3.23-1.22.6-1.57 3.23 1.22-.6 1.57zm8.08 3.05l-3.23-1.22.6-1.57 3.23 1.22-.6 1.57zm8.09 3.05l-3.24-1.22.6-1.57 3.23 1.22-.6 1.57zm8.08 3.05l-3.24-1.22.6-1.57 3.23 1.22-.6 1.57zm8.08 3.05l-3.24-1.22.6-1.57 3.23 1.22-.6 1.57zm8.08 3.05l-3.24-1.22.6-1.57 3.23 1.22-.6 1.57zm8.08 3.05l-3.24-1.22.6-1.57 3.23 1.22-.6 1.57zm8.08 3.05l-3.24-1.22.6-1.57 3.23 1.22-.6 1.57zm8.08 3.05l-3.23-1.22.59-1.57 3.23 1.22-.6 1.57zm6.46 2.44l-1.62-.6.6-1.57 1.61.6-.59 1.57z" clip-rule="evenodd"/>
  <g filter="url(#filter1_dd)">
    <rect width="125" height="23.48" x="372.44" y="2" fill="#fff" rx="3"/>
    <path fill="#032359" d="M386.44 14.52a2.51 2.51 0 012.51-2.52h48.97a2.51 2.51 0 110 5.03h-48.97a2.51 2.51 0 01-2.51-2.52z" opacity=".5"/>
    <path fill="#032359" fill-rule="evenodd" d="M474.73 11.28a1 1 0 011.41 0l2.8 2.8 2.79-2.8a1 1 0 011.41 1.42l-3.5 3.5a1 1 0 01-1.41 0l-3.5-3.5a1 1 0 010-1.42z" clip-rule="evenodd" opacity=".5"/>
  </g>
  <circle cx="157.56" cy="15.69" r="2.24" fill="#1AA475"/>
  <rect width="134.15" height="12.86" x="10" y="9.27" fill="#032359" opacity=".5" rx="6"/>
  <rect width="52.54" height="5.03" x="163.71" y="13.18" fill="#032359" opacity=".5" rx="2.52"/>
  <defs>
    <linearGradient id="paint0_linear" x1="222.48" x2="223.6" y1="118.69" y2="266.8" gradientUnits="userSpaceOnUse">
      <stop stop-color="#FF8A00"/>
      <stop offset="1" stop-color="#FF8A00" stop-opacity="0"/>
    </linearGradient>
    <linearGradient id="paint1_linear" x1="222.48" x2="223.6" y1="118.69" y2="266.8" gradientUnits="userSpaceOnUse">
      <stop stop-color="#5435FF"/>
      <stop offset="1" stop-color="#5435FF" stop-opacity="0"/>
    </linearGradient>
    <filter id="filter0_d" width="513" height="270.41" x="0" y="38.05" color-interpolation-filters="sRGB" filterUnits="userSpaceOnUse">
      <feFlood flood-opacity="0" result="BackgroundImageFix"/>
      <feColorMatrix in="SourceAlpha" values="0 0 0 0 0 0 0 0 0 0 0 0 0 0 0 0 0 0 127 0"/>
      <feOffset dy="10"/>
      <feGaussianBlur stdDeviation="5"/>
      <feColorMatrix values="0 0 0 0 0 0 0 0 0 0 0 0 0 0 0 0 0 0 0.04 0"/>
      <feBlend in2="BackgroundImageFix" result="effect1_dropShadow"/>
      <feBlend in="SourceGraphic" in2="effect1_dropShadow" result="shape"/>
    </filter>
    <filter id="filter1_dd" width="131" height="29.48" x="369.44" y="0" color-interpolation-filters="sRGB" filterUnits="userSpaceOnUse">
      <feFlood flood-opacity="0" result="BackgroundImageFix"/>
      <feColorMatrix in="SourceAlpha" values="0 0 0 0 0 0 0 0 0 0 0 0 0 0 0 0 0 0 127 0"/>
      <feOffset dy="1"/>
      <feGaussianBlur stdDeviation="1"/>
      <feColorMatrix values="0 0 0 0 0 0 0 0 0 0 0 0 0 0 0 0 0 0 0.1 0"/>
      <feBlend in2="BackgroundImageFix" result="effect1_dropShadow"/>
      <feColorMatrix in="SourceAlpha" values="0 0 0 0 0 0 0 0 0 0 0 0 0 0 0 0 0 0 127 0"/>
      <feOffset dy="1"/>
      <feGaussianBlur stdDeviation="1.5"/>
      <feColorMatrix values="0 0 0 0 0 0 0 0 0 0 0 0 0 0 0 0 0 0 0.1 0"/>
      <feBlend in2="effect1_dropShadow" result="effect2_dropShadow"/>
      <feBlend in="SourceGraphic" in2="effect2_dropShadow" result="shape"/>
    </filter>
  </defs>
</svg>
