<svg xmlns="http://www.w3.org/2000/svg" fill="none" viewBox="0 0 330 194">
  <defs/>
  <rect width="70" height="9" y="22.27" fill="#032359" opacity=".5" rx="4.5"/>
  <path fill="#5435FF" d="M3.93 8.25h3.26V2L3.93 8.25zm7.18 0v1.96H9.47V13H7.2v-2.8H1.67V8.26L5.8.55h3.66v7.7h1.64zM11.39 15.4l1.86-4.7h2.64l-2.53 4.7H11.4zM20.39 11.04h4.95V13h-8.1v-1.82a23.39 23.39 0 003.83-3.37c1.08-1.2 1.61-2.28 1.61-3.25 0-.63-.18-1.12-.55-1.48-.36-.35-.9-.53-1.6-.53-1.04 0-2.05.4-3.01 1.18V1.5A5.97 5.97 0 0120.94.42c1.21 0 2.2.34 2.96 1a3.47 3.47 0 011.16 2.8c0 2.26-1.56 4.53-4.67 6.82zM30.87 6.73c.88 0 1.58-.34 2.11-1a4.61 4.61 0 00-.64-2.42 1.71 1.71 0 00-1.5-.84c-.59 0-1.05.2-1.41.57-.34.38-.51.9-.51 1.56 0 .65.17 1.17.53 1.56.35.38.83.57 1.42.57zm-3.55 6.06v-2.18c.66.3 1.33.45 2.02.45 2.07 0 3.26-1.13 3.57-3.38-.57.63-1.44.95-2.6.95a3.6 3.6 0 01-2.68-1.08 4 4 0 01-1.07-2.91c0-1.22.38-2.22 1.12-3.02A3.93 3.93 0 0130.72.4C32.18.4 33.3.93 34.1 2a6.85 6.85 0 011.17 4.2c0 2.27-.5 4-1.52 5.18a5.21 5.21 0 01-4.2 1.77c-.82 0-1.56-.12-2.22-.36zM37.08 3.27V1.12a5.6 5.6 0 012.71-.7c1.3 0 2.33.32 3.06.95a3.05 3.05 0 011.12 2.43 2.9 2.9 0 01-1.95 2.93c.7.18 1.26.51 1.65 1 .4.49.59 1.1.59 1.85a3.2 3.2 0 01-1.16 2.55c-.76.64-1.83.96-3.21.96-1.28 0-2.37-.2-3.27-.62v-2.23c.99.54 2.03.8 3.12.8.68 0 1.21-.16 1.6-.47.39-.33.58-.75.58-1.26 0-1.1-.9-1.65-2.68-1.65h-.72V5.74h.72c.67 0 1.24-.14 1.7-.44.45-.29.68-.7.68-1.23 0-1.06-.65-1.6-1.96-1.6-.86 0-1.72.27-2.58.8z"/>
  <rect width="328" height="18" y="45" fill="#5435FF" rx="3"/>
  <path fill="#43BEDD" d="M150 45h82v18h-82z"/>
  <path fill="#F9D06B" d="M232 45h82v18h-82z"/>
  <path fill="#EE754C" d="M314 45h13a3 3 0 013 3v12a3 3 0 01-3 3h-13V45z"/>
  <rect width="8" height="8" y="83" fill="#5435FF" rx="4"/>
  <rect width="128" height="6" x="14" y="84" fill="#032359" opacity=".25" rx="3"/>
  <path fill="#032359" d="M299.64 88.25h1.89v-3.62l-1.9 3.62zm4.16 0v1.13h-.95V91h-1.32v-1.62h-3.2v-1.13l2.4-4.45h2.12v4.45h.94zM307.14 89.99c.33 0 .59-.12.78-.35.2-.25.3-.56.3-.96 0-.36-.1-.65-.3-.86a1 1 0 00-.77-.32c-.48 0-.91.2-1.3.6.04.65.18 1.13.4 1.44.24.3.53.45.89.45zm1.89-6.17v1.24a2.14 2.14 0 00-1-.22c-.58 0-1.05.2-1.42.6-.37.39-.6.9-.7 1.52.43-.4.95-.6 1.56-.6.63 0 1.14.2 1.52.63.4.41.59.97.59 1.68 0 .72-.22 1.33-.66 1.8-.44.47-1.04.7-1.8.7-.85 0-1.5-.3-1.95-.93a4.27 4.27 0 01-.67-2.52c0-1.22.31-2.2.95-2.95a3.11 3.11 0 012.5-1.13c.4 0 .76.06 1.08.18zM310.53 90.83a.83.83 0 01-.26-.6.8.8 0 01.26-.6.83.83 0 01.6-.25c.24 0 .43.09.6.26.16.16.25.36.25.59 0 .23-.09.44-.25.6a.79.79 0 01-.6.26.83.83 0 01-.6-.26zM314.54 89.87h2.87V91h-4.7v-1.06c.86-.6 1.6-1.25 2.22-1.94.63-.7.94-1.33.94-1.88 0-.37-.1-.66-.32-.86-.21-.2-.52-.31-.92-.31-.61 0-1.2.23-1.75.68v-1.28a3.45 3.45 0 011.98-.63c.7 0 1.27.2 1.71.58.45.38.67.92.67 1.62 0 1.3-.9 2.62-2.7 3.95zM320.24 91.01l4.08-7.61h1.22l-4.1 7.61h-1.2zm3.91-.5a1.89 1.89 0 01-.57-1.38c0-.54.2-1 .57-1.39.38-.38.85-.57 1.39-.57.53 0 1 .2 1.37.57.4.39.59.85.59 1.39 0 .54-.2 1-.59 1.39-.38.38-.84.57-1.37.57-.55 0-1-.2-1.39-.57zm-5.23-3.9a1.89 1.89 0 01-.58-1.39c0-.54.2-1 .58-1.38.38-.38.84-.57 1.38-.57.55 0 1 .19 1.39.57.38.38.57.84.57 1.38 0 .54-.2 1-.58 1.4-.38.37-.84.56-1.38.56-.54 0-1-.19-1.38-.57zm.5-1.39a.86.86 0 00.88.87c.24 0 .44-.08.6-.25a.84.84 0 00.27-.62.82.82 0 00-.26-.61.86.86 0 00-1.23 0 .84.84 0 00-.26.61zm5.25 3.91a.86.86 0 00.87.87c.23 0 .43-.09.6-.25a.84.84 0 00.27-.62.82.82 0 00-.27-.62.8.8 0 00-.6-.26.82.82 0 00-.62.26.84.84 0 00-.25.62z"/>
  <rect width="8" height="8" y="100" fill="#43BEDD" rx="4"/>
  <rect width="64" height="6" x="14" y="101" fill="#032359" opacity=".25" rx="3"/>
  <path fill="#032359" d="M300.13 106.87H303V108h-4.7v-1.06c.86-.6 1.6-1.25 2.23-1.94.62-.7.93-1.33.93-1.88 0-.37-.1-.66-.32-.86-.2-.2-.52-.31-.92-.31-.6 0-1.2.23-1.75.68v-1.28a3.47 3.47 0 011.98-.63c.7 0 1.28.2 1.72.58a2 2 0 01.67 1.62c0 1.3-.9 2.62-2.7 3.95zM305.12 105.25H307v-3.62l-1.9 3.62zm4.15 0v1.13h-.94V108H307v-1.62h-3.2v-1.13l2.4-4.45h2.12v4.45h.94zM310.14 107.83a.82.82 0 01-.25-.6c0-.23.08-.43.25-.6a.82.82 0 01.6-.25.8.8 0 01.6.26.8.8 0 01.25.59c0 .23-.08.44-.25.6a.8.8 0 01-.6.26.82.82 0 01-.6-.26zM315.06 106.99c.33 0 .6-.12.79-.35.2-.25.3-.56.3-.96 0-.36-.1-.65-.3-.86a1 1 0 00-.78-.32c-.47 0-.9.2-1.3.6.05.65.19 1.13.41 1.44.24.3.53.45.88.45zm1.9-6.17v1.24a2.14 2.14 0 00-1-.22c-.58 0-1.06.2-1.42.6-.37.39-.6.9-.7 1.52.43-.4.95-.6 1.55-.6.64 0 1.15.2 1.53.63.4.41.59.97.59 1.68 0 .72-.22 1.33-.66 1.8-.44.47-1.04.7-1.8.7-.86 0-1.5-.3-1.95-.93a4.27 4.27 0 01-.68-2.52c0-1.22.32-2.2.96-2.95a3.11 3.11 0 012.5-1.13c.4 0 .75.06 1.08.18zM320.24 108.01l4.08-7.61h1.22l-4.1 7.61h-1.2zm3.91-.5a1.89 1.89 0 01-.57-1.38c0-.54.2-1 .57-1.39a1.9 1.9 0 011.39-.57c.53 0 1 .2 1.37.57.4.39.59.85.59 1.39 0 .54-.2 1-.59 1.39-.38.38-.84.57-1.37.57-.54 0-1-.2-1.39-.57zm-5.23-3.9a1.89 1.89 0 01-.58-1.39c0-.54.2-1 .58-1.38a1.9 1.9 0 011.38-.57c.55 0 1 .19 1.39.57.38.38.57.84.57 1.38 0 .54-.2 1-.58 1.4-.38.37-.84.56-1.38.56-.54 0-1-.19-1.38-.57zm.5-1.39a.86.86 0 00.88.87c.24 0 .44-.08.6-.25a.84.84 0 00.27-.62.82.82 0 00-.26-.61.86.86 0 00-1.23 0 .84.84 0 00-.26.61zm5.25 3.91a.86.86 0 001.47.62.84.84 0 00.27-.62.82.82 0 00-.27-.62.8.8 0 00-.6-.26.82.82 0 00-.62.26.84.84 0 00-.25.62z"/>
  <rect width="8" height="8" y="117" fill="#F9D06B" rx="4"/>
  <rect width="128" height="6" x="14" y="118" fill="#032359" opacity=".25" rx="3"/>
  <path fill="#032359" d="M301.11 123.87h2.87V125h-4.7v-1.06c.86-.6 1.6-1.25 2.23-1.94.62-.7.93-1.33.93-1.88 0-.37-.1-.66-.32-.86-.21-.2-.52-.31-.92-.31-.61 0-1.2.23-1.75.68v-1.28a3.47 3.47 0 011.98-.63c.7 0 1.27.2 1.71.58a2 2 0 01.68 1.62c0 1.3-.9 2.62-2.71 3.95zM305.03 119.37v-1.25c.5-.27 1.02-.4 1.57-.4.75 0 1.34.18 1.77.55.43.37.65.83.65 1.4 0 .83-.38 1.4-1.13 1.7.4.1.73.3.95.58.23.28.34.64.34 1.07 0 .6-.22 1.1-.67 1.47-.44.38-1.06.57-1.86.57-.74 0-1.37-.13-1.89-.37v-1.28c.57.3 1.18.46 1.8.46.4 0 .71-.1.93-.28a.9.9 0 00.34-.72c0-.64-.52-.96-1.55-.96h-.42v-1.11h.42c.39 0 .72-.09.98-.25a.8.8 0 00.4-.72c0-.62-.38-.92-1.14-.92-.5 0-1 .15-1.5.46zM310.26 124.83a.82.82 0 01-.25-.6c0-.23.08-.43.25-.6a.82.82 0 01.6-.25c.24 0 .44.09.6.26.17.16.25.36.25.59 0 .23-.08.44-.25.6a.79.79 0 01-.6.26.82.82 0 01-.6-.26zM314.86 121.37c.5 0 .92-.2 1.22-.58a2.67 2.67 0 00-.37-1.4.99.99 0 00-.87-.48c-.34 0-.6.1-.81.33-.2.22-.3.52-.3.9 0 .37.1.67.3.9.21.22.49.33.83.33zm-2.05 3.5v-1.26c.38.18.77.27 1.16.27 1.2 0 1.9-.66 2.07-1.96-.33.37-.83.55-1.5.55-.63 0-1.15-.2-1.56-.63a2.32 2.32 0 01-.61-1.68c0-.7.21-1.29.64-1.75.44-.47 1.02-.7 1.76-.7.85 0 1.5.3 1.95.92.46.61.68 1.42.68 2.43 0 1.31-.29 2.32-.88 3a3.02 3.02 0 01-2.43 1.03c-.47 0-.9-.07-1.28-.21zM320.24 125.01l4.08-7.61h1.22l-4.1 7.61h-1.2zm3.91-.5a1.89 1.89 0 01-.57-1.38c0-.54.2-1 .57-1.39a1.9 1.9 0 011.39-.57c.53 0 1 .2 1.37.57.4.39.59.85.59 1.39 0 .54-.2 1-.59 1.39-.38.38-.84.57-1.37.57-.54 0-1-.2-1.39-.57zm-5.23-3.9a1.89 1.89 0 01-.58-1.39c0-.54.2-1 .58-1.38a1.9 1.9 0 011.38-.57c.55 0 1 .19 1.39.57.38.38.57.84.57 1.38 0 .54-.2 1-.58 1.4-.38.37-.84.56-1.38.56-.54 0-1-.19-1.38-.57zm.5-1.39a.86.86 0 00.88.87c.24 0 .44-.08.6-.25a.84.84 0 00.27-.62.82.82 0 00-.26-.61.86.86 0 00-1.23 0 .84.84 0 00-.26.61zm5.25 3.91a.86.86 0 001.47.62.84.84 0 00.27-.62.82.82 0 00-.27-.62.8.8 0 00-.6-.26.82.82 0 00-.62.26.84.84 0 00-.25.62z"/>
  <rect width="8" height="8" y="134" fill="#EE754C" rx="4"/>
  <rect width="112" height="6" x="14" y="135" fill="#032359" opacity=".25" rx="3"/>
  <path fill="#032359" d="M306.71 135.93v1.58c.22-.04.42-.06.62-.06.77 0 1.37.2 1.78.59.43.4.64.94.64 1.62 0 .73-.24 1.32-.73 1.76-.48.44-1.16.66-2.03.66-.75 0-1.39-.13-1.9-.39v-1.26c.48.29 1.04.44 1.68.44 1.08 0 1.62-.42 1.62-1.25a.9.9 0 00-.35-.75 1.53 1.53 0 00-.98-.28c-.56 0-1.1.13-1.64.37v-4.17h3.87v1.14h-2.58zM310.77 141.84a.83.83 0 01-.25-.61.8.8 0 01.25-.6.83.83 0 01.6-.25c.24 0 .44.09.6.26.17.16.25.36.25.59 0 .24-.08.44-.25.6a.79.79 0 01-.6.26.83.83 0 01-.6-.25zM313.22 136.37v-1.25c.5-.27 1.03-.4 1.58-.4.75 0 1.34.18 1.77.55.43.36.65.83.65 1.4 0 .84-.38 1.4-1.14 1.7.41.1.73.3.96.58.23.28.34.64.34 1.07 0 .6-.22 1.1-.67 1.47-.44.38-1.06.56-1.86.56-.74 0-1.37-.12-1.9-.36v-1.28c.58.3 1.18.46 1.81.46.4 0 .7-.1.93-.28a.9.9 0 00.34-.72c0-.64-.52-.96-1.55-.96h-.42v-1.11h.42c.38 0 .71-.09.98-.26a.8.8 0 00.4-.71c0-.62-.39-.92-1.14-.92-.5 0-1 .15-1.5.46zM320.24 142.01l4.08-7.61h1.22l-4.1 7.61h-1.2zm3.91-.5a1.89 1.89 0 01-.57-1.38c0-.54.2-1 .57-1.39.38-.38.85-.57 1.39-.57.53 0 1 .2 1.37.57.4.38.59.85.59 1.39 0 .54-.2 1-.59 1.39-.38.38-.84.57-1.37.57-.55 0-1-.2-1.39-.57zm-5.23-3.9a1.89 1.89 0 01-.58-1.39c0-.54.2-1 .58-1.38.38-.38.84-.57 1.38-.57.55 0 1 .19 1.39.57.38.38.57.84.57 1.38 0 .54-.2 1-.58 1.4-.38.37-.84.56-1.38.56-.54 0-1-.19-1.38-.57zm.5-1.39a.86.86 0 00.88.87c.24 0 .44-.08.6-.25a.84.84 0 00.27-.62.82.82 0 00-.26-.61.86.86 0 00-1.23 0 .84.84 0 00-.26.61zm5.25 3.91a.86.86 0 00.87.87c.23 0 .43-.09.6-.25a.84.84 0 00.27-.62.82.82 0 00-.27-.62.8.8 0 00-.6-.26.82.82 0 00-.62.26.84.84 0 00-.25.62z"/>
  <rect width="8" height="8" y="151" fill="#FFBBB1" rx="4"/>
  <rect width="69" height="6" x="14" y="152" fill="#032359" opacity=".25" rx="3"/>
  <path fill="#032359" d="M304.31 155.37c0-1.14.23-2.03.67-2.7.45-.66 1.08-1 1.9-1 .83 0 1.47.34 1.92 1 .45.67.68 1.56.68 2.7 0 1.13-.22 2.03-.67 2.7a2.16 2.16 0 01-1.92 1.02c-.82 0-1.46-.34-1.9-1.01a4.83 4.83 0 01-.68-2.71zm1.69-1.85a4.12 4.12 0 00-.33 1.85c0 .8.1 1.43.31 1.87.22.43.52.65.9.65.4 0 .7-.22.92-.65.22-.43.33-1.06.33-1.87s-.11-1.43-.34-1.86c-.22-.42-.52-.64-.9-.64s-.67.22-.9.65zM310.53 158.84a.83.83 0 01-.26-.61.8.8 0 01.26-.6.83.83 0 01.6-.25c.24 0 .43.09.6.26.16.16.25.36.25.59 0 .24-.09.44-.25.6a.79.79 0 01-.6.26.83.83 0 01-.6-.25zM314.54 157.87h2.87V159h-4.7v-1.06c.86-.6 1.6-1.25 2.22-1.94.63-.7.94-1.33.94-1.88 0-.37-.1-.66-.32-.86-.21-.2-.52-.31-.92-.31-.61 0-1.2.23-1.75.68v-1.28a3.46 3.46 0 011.98-.63c.7 0 1.27.2 1.71.58a2 2 0 01.67 1.62c0 1.3-.9 2.62-2.7 3.95zM320.24 159.01l4.08-7.61h1.22l-4.1 7.61h-1.2zm3.91-.5a1.89 1.89 0 01-.57-1.38c0-.54.2-1 .57-1.39.38-.38.85-.57 1.39-.57.53 0 1 .2 1.37.57.4.38.59.85.59 1.39 0 .54-.2 1-.59 1.39-.38.38-.84.57-1.37.57-.55 0-1-.2-1.39-.57zm-5.23-3.9a1.89 1.89 0 01-.58-1.39c0-.54.2-1 .58-1.38.38-.38.84-.57 1.38-.57.55 0 1 .19 1.39.57.38.38.57.84.57 1.38 0 .54-.2 1-.58 1.4-.38.37-.84.56-1.38.56-.54 0-1-.19-1.38-.57zm.5-1.39a.86.86 0 00.88.87c.24 0 .44-.08.6-.25a.84.84 0 00.27-.62.82.82 0 00-.26-.61.86.86 0 00-1.23 0 .84.84 0 00-.26.61zm5.25 3.91a.86.86 0 00.87.87c.23 0 .43-.09.6-.25a.84.84 0 00.27-.62.82.82 0 00-.27-.62.8.8 0 00-.6-.26.82.82 0 00-.62.26.84.84 0 00-.25.62z"/>
  <rect width="8" height="8" y="168" fill="#019365" rx="4"/>
  <rect width="162" height="6" x="14" y="169" fill="#032359" opacity=".25" rx="3"/>
  <path fill="#032359" d="M304.31 172.37c0-1.14.23-2.03.67-2.7.45-.66 1.08-1 1.9-1 .83 0 1.47.34 1.92 1 .45.67.68 1.56.68 2.7 0 1.13-.22 2.03-.67 2.7a2.16 2.16 0 01-1.92 1.02c-.82 0-1.46-.34-1.9-1.01a4.83 4.83 0 01-.68-2.71zm1.69-1.85a4.12 4.12 0 00-.33 1.85c0 .8.1 1.43.31 1.87.22.43.52.65.9.65.4 0 .7-.22.92-.65.22-.43.33-1.06.33-1.87s-.11-1.43-.34-1.86c-.22-.42-.52-.64-.9-.64s-.67.22-.9.65zM310.53 175.84a.83.83 0 01-.26-.61.8.8 0 01.26-.6.83.83 0 01.6-.25c.24 0 .43.09.6.26.16.16.25.36.25.59 0 .24-.09.44-.25.6a.79.79 0 01-.6.26.83.83 0 01-.6-.25zM314.54 174.87h2.87V176h-4.7v-1.06c.86-.6 1.6-1.25 2.22-1.94.63-.7.94-1.33.94-1.88 0-.37-.1-.66-.32-.86-.21-.2-.52-.31-.92-.31-.61 0-1.2.23-1.75.68v-1.28a3.46 3.46 0 011.98-.63c.7 0 1.27.2 1.71.58a2 2 0 01.67 1.62c0 1.3-.9 2.62-2.7 3.95zM320.24 176.01l4.08-7.61h1.22l-4.1 7.61h-1.2zm3.91-.5a1.89 1.89 0 01-.57-1.38c0-.54.2-1 .57-1.39.38-.38.85-.57 1.39-.57.53 0 1 .2 1.37.57.4.38.59.85.59 1.39 0 .54-.2 1-.59 1.39-.38.38-.84.57-1.37.57-.55 0-1-.2-1.39-.57zm-5.23-3.9a1.89 1.89 0 01-.58-1.39c0-.54.2-1 .58-1.38.38-.38.84-.57 1.38-.57.55 0 1 .19 1.39.57.38.38.57.84.57 1.38 0 .54-.2 1-.58 1.4-.38.37-.84.56-1.38.56-.54 0-1-.19-1.38-.57zm.5-1.39a.86.86 0 00.88.87c.24 0 .44-.08.6-.25a.84.84 0 00.27-.62.82.82 0 00-.26-.61.86.86 0 00-1.23 0 .84.84 0 00-.26.61zm5.25 3.91a.86.86 0 00.87.87c.23 0 .43-.09.6-.25a.84.84 0 00.27-.62.82.82 0 00-.27-.62.8.8 0 00-.6-.26.82.82 0 00-.62.26.84.84 0 00-.25.62z"/>
  <rect width="8" height="8" y="185" fill="#4184FA" rx="4"/>
  <rect width="102" height="6" x="14" y="186" fill="#032359" opacity=".25" rx="3"/>
  <path fill="#032359" d="M303.79 189.37c0-1.14.22-2.03.67-2.7.44-.66 1.08-1 1.9-1 .83 0 1.47.34 1.91 1 .46.67.69 1.56.69 2.7 0 1.13-.23 2.03-.67 2.7a2.16 2.16 0 01-1.93 1.02c-.82 0-1.46-.34-1.9-1.01a4.84 4.84 0 01-.67-2.71zm1.68-1.85a4.12 4.12 0 00-.33 1.85c0 .8.1 1.43.32 1.87.22.43.52.65.9.65.4 0 .7-.22.91-.65.22-.43.33-1.06.33-1.87s-.11-1.43-.34-1.86c-.22-.42-.52-.64-.9-.64-.37 0-.67.22-.9.65zM310 192.84a.82.82 0 01-.25-.61c0-.23.08-.43.25-.6a.82.82 0 01.6-.25c.24 0 .44.09.6.26.17.16.25.36.25.59 0 .24-.08.44-.25.6a.79.79 0 01-.6.26.82.82 0 01-.6-.25zM312.24 189.37c0-1.14.22-2.03.67-2.7.45-.66 1.08-1 1.9-1 .83 0 1.47.34 1.92 1 .45.67.68 1.56.68 2.7 0 1.13-.22 2.03-.67 2.7a2.15 2.15 0 01-1.93 1.02c-.82 0-1.45-.34-1.9-1.01a4.84 4.84 0 01-.67-2.71zm1.68-1.85a4.12 4.12 0 00-.33 1.85c0 .8.11 1.43.32 1.87.22.43.52.65.9.65.4 0 .7-.22.92-.65.22-.43.33-1.06.33-1.87s-.12-1.43-.34-1.86c-.22-.42-.52-.64-.9-.64s-.68.22-.9.65zM320.24 193.01l4.08-7.61h1.22l-4.1 7.61h-1.2zm3.91-.5a1.89 1.89 0 01-.57-1.38c0-.54.2-1 .57-1.39.38-.38.85-.57 1.39-.57.53 0 1 .2 1.37.57.4.38.59.85.59 1.39 0 .54-.2 1-.59 1.39-.38.38-.84.57-1.37.57-.55 0-1-.2-1.39-.57zm-5.23-3.9a1.89 1.89 0 01-.58-1.39c0-.54.2-1 .58-1.38.38-.38.84-.57 1.38-.57.55 0 1 .19 1.39.57.38.38.57.84.57 1.38 0 .54-.2 1-.58 1.4-.38.37-.84.56-1.38.56-.54 0-1-.19-1.38-.57zm.5-1.39a.86.86 0 00.88.87c.24 0 .44-.08.6-.25a.84.84 0 00.27-.62.82.82 0 00-.26-.61.86.86 0 00-1.23 0 .84.84 0 00-.26.61zm5.25 3.91a.86.86 0 00.87.87c.23 0 .43-.09.6-.25a.84.84 0 00.27-.62.82.82 0 00-.27-.62.8.8 0 00-.6-.26.82.82 0 00-.62.26.84.84 0 00-.25.62z"/>
</svg>
