<svg width="200" height="200" viewBox="0 0 200 200" fill="none" xmlns="http://www.w3.org/2000/svg">
<path d="M44.2744 114.143C42.7581 114.143 42 113.196 42 111.3C42 109.892 42.6228 108.349 43.8683 106.67C45.168 104.992 45.9532 103.881 46.224 103.34C46.4947 102.798 47.1987 101.959 48.336 100.822C49.5273 99.6845 50.5562 99.0076 51.4227 98.7909C52.3433 98.5743 54.1845 98.3306 56.9464 98.0599C65.3943 97.2476 74.6004 96.7873 84.5646 96.679C95.3953 80.2705 104.222 68.0859 111.046 60.1254C100.919 61.9666 88.4908 62.8872 73.761 62.8872C53.7784 62.8872 43.7871 58.4195 43.7871 49.4842C43.7871 46.939 45.0597 44.7187 47.6049 42.8233C50.2043 40.928 53.4535 39.9803 57.3525 39.9803C61.3057 39.9803 63.2823 40.4406 63.2823 41.3612C63.2823 41.8486 62.6596 42.0923 61.414 42.0923C60.2226 42.0923 59.0854 42.5526 58.0024 43.4732C56.9734 44.3396 56.459 45.179 56.459 45.9913C56.459 47.2368 59.1125 48.1575 64.4195 48.7531C69.7266 49.3488 77.9038 49.6467 88.9511 49.6467C100.053 49.6467 112.075 48.6448 125.017 46.6412C129.295 43.1212 133.303 40.4677 137.039 38.6806C140.83 36.8935 144.675 36 148.574 36C152.473 36 155.018 36.8665 156.21 38.5994C157.401 40.3323 157.997 41.632 157.997 42.4984C158.051 43.3649 157.428 44.5021 156.128 45.9101C154.829 47.3181 153.015 48.7531 150.686 50.2153C145.217 53.5728 138.041 55.5765 129.16 56.2263C119.683 68.1942 109.908 81.7326 99.8359 96.8414C104.006 97.0039 107.905 97.3288 111.533 97.8162C115.161 98.2494 116.975 99.6574 116.975 102.04C116.975 103.015 115.432 104.883 112.345 107.645C112.02 108.024 111.614 108.593 111.127 109.351C110.26 110.651 109.394 111.3 108.528 111.3C107.715 111.3 106.768 111.192 105.684 110.975C101.461 110.813 98.2925 110.732 96.1806 110.732L90.9006 110.813C71.8386 140.489 61.9826 155.923 61.3328 157.114C60.7371 158.251 60.0602 159.118 59.302 159.714C58.598 160.309 57.7045 160.607 56.6214 160.607C55.5384 160.607 54.0221 160.418 52.0725 160.039C50.123 159.714 48.6609 159.28 47.6861 158.739C46.7114 158.251 46.224 157.629 46.224 156.871C46.224 156.058 46.4677 154.921 46.955 153.459C48.2547 149.831 57.3525 135.832 74.2484 111.463C63.2552 112.004 54.5365 112.573 48.0923 113.169L44.2744 114.143ZM147.437 40.7926C146.57 41.0633 145.514 41.4966 144.269 42.0923L147.437 40.7926Z" fill="#0D0C22"/>
<path d="M121.606 157.764C121.606 154.461 122.905 151.536 125.505 148.991C128.104 146.392 130.649 145.092 133.14 145.092C137.635 145.092 139.882 146.933 139.882 150.616C139.882 153.648 138.61 156.573 136.065 159.389C133.519 162.259 130.649 163.694 127.454 163.694C123.555 163.694 121.606 161.717 121.606 157.764Z" fill="#0D0C22"/>
</svg>
