<svg width="64" height="70" viewBox="0 0 64 70" fill="none" xmlns="http://www.w3.org/2000/svg">
<path d="M32.1008 32.1008C40.1368 32.1008 46.6512 25.5864 46.6512 17.5504C46.6512 9.51444 40.1368 3 32.1008 3C24.0649 3 17.5504 9.51444 17.5504 17.5504C17.5504 25.5864 24.0649 32.1008 32.1008 32.1008Z" fill="#8ECCFD"/>
<path fill-rule="evenodd" clip-rule="evenodd" d="M32.1008 5.5C25.4456 5.5 20.0504 10.8952 20.0504 17.5504C20.0504 24.2057 25.4456 29.6008 32.1008 29.6008C38.7561 29.6008 44.1512 24.2057 44.1512 17.5504C44.1512 10.8952 38.7561 5.5 32.1008 5.5ZM15.0504 17.5504C15.0504 8.13373 22.6841 0.5 32.1008 0.5C41.5175 0.5 49.1512 8.13373 49.1512 17.5504C49.1512 26.9671 41.5175 34.6008 32.1008 34.6008C22.6841 34.6008 15.0504 26.9671 15.0504 17.5504Z" fill="#0471FF"/>
<path d="M32.1008 67C19.9949 67 9.28578 60.8307 3 51.402C3.1164 41.7405 22.4393 40.7401 32.1008 40.7401C41.7623 40.7401 61.0852 41.7405 61.2016 51.402C54.9159 60.7143 44.2068 67 32.1008 67Z" fill="#8ECCFD"/>
<path fill-rule="evenodd" clip-rule="evenodd" d="M5.56604 50.7238C11.4633 59.0842 21.1702 64.5 32.1008 64.5C43.0128 64.5 52.7263 58.9899 58.6342 50.7166C58.4284 49.5886 57.7469 48.6019 56.4849 47.6756C54.8923 46.5067 52.5327 45.5739 49.6452 44.8785C43.895 43.4936 36.8964 43.2401 32.1008 43.2401C27.3052 43.2401 20.3066 43.4936 14.5563 44.8785C11.6689 45.5739 9.30926 46.5067 7.7167 47.6756C6.45196 48.6038 5.77026 49.5928 5.56604 50.7238ZM13.3856 40.0175C19.7413 38.4868 27.235 38.2401 32.1008 38.2401C36.9666 38.2401 44.4603 38.4868 50.816 40.0175C53.9815 40.7799 57.0782 41.9088 59.4434 43.6448C61.8791 45.4325 63.6605 47.9757 63.7014 51.3719L63.7108 52.1531L63.2737 52.8007C56.5533 62.7569 45.09 69.5 32.1008 69.5C19.1253 69.5 7.65032 62.8845 0.919855 52.7888L0.490845 52.1452L0.500162 51.3719C0.541081 47.9757 2.32245 45.4325 4.75819 43.6448C7.12335 41.9088 10.2201 40.7799 13.3856 40.0175Z" fill="#0471FF"/>
</svg>
