<svg xmlns="http://www.w3.org/2000/svg" viewBox="0 0 19.51 15.85"><defs><style>.a{fill:#516676;fill-opacity:0.7;}</style></defs><title>left-quote</title><path class="a" d="M8.67,1.76c-.92.53-1.66,1-2.22,1.37a9.59,9.59,0,0,0-1.73,1.5A6.71,6.71,0,0,0,3.46,6.47,8.37,8.37,0,0,0,2.84,9H4.25a4.16,4.16,0,0,1,2.84.91,3.22,3.22,0,0,1,1.05,2.61,3.48,3.48,0,0,1-.93,2.31,3.14,3.14,0,0,1-2.52,1.06,4,4,0,0,1-3.61-1.64A7.92,7.92,0,0,1,0,9.84,7.2,7.2,0,0,1,.82,6.39a12.23,12.23,0,0,1,2-2.82A14,14,0,0,1,5.36,1.44C6.26.85,7,.37,7.62,0Zm10.84,0c-.92.53-1.66,1-2.22,1.37a9.59,9.59,0,0,0-1.73,1.5A6.83,6.83,0,0,0,14.27,6.5,8.7,8.7,0,0,0,13.68,9h1.41a4.16,4.16,0,0,1,2.84.91A3.22,3.22,0,0,1,19,12.48a3.48,3.48,0,0,1-.93,2.31,3.14,3.14,0,0,1-2.52,1.06,4,4,0,0,1-3.61-1.64,7.92,7.92,0,0,1-1.08-4.37,7.2,7.2,0,0,1,.82-3.45,12.23,12.23,0,0,1,2-2.82A14,14,0,0,1,16.2,1.44C17.1.85,17.85.37,18.46,0Z"/></svg>