<svg width="308" height="263" fill="none" xmlns="http://www.w3.org/2000/svg"><path d="M10.509 29.672A4 4 0 0 1 14.495 26h13.162a4 4 0 0 1 3.987 4.329l-1.153 14A4 4 0 0 1 26.505 48H13.343a4 4 0 0 1-3.987-4.329l1.153-14z" fill="#0495FE" fill-opacity=".1"/><path d="M286.509 182.672a4 4 0 0 1 3.986-3.672h13.162a4 4 0 0 1 3.987 4.329l-1.153 14a3.999 3.999 0 0 1-3.986 3.671h-13.162a4 4 0 0 1-3.987-4.328l1.153-14z" fill="#0495FE" fill-opacity=".3"/><path d="M151.509 58.672a4 4 0 0 1 3.986-3.671h13.162a4 4 0 0 1 3.987 4.328l-1.153 14A4 4 0 0 1 167.505 77h-13.162a4 4 0 0 1-3.987-4.329l1.153-14z" fill="#0495FE" fill-opacity=".5"/><path d="M1.509 218.672A4 4 0 0 1 5.495 215h13.162a4 4 0 0 1 3.987 4.329l-1.153 14A4 4 0 0 1 17.505 237H4.343a4 4 0 0 1-3.987-4.328l1.153-14z" fill="#0495FE" fill-opacity=".3"/><path d="M39.503 39.668a4 4 0 0 1 3.986-3.667h59.933a4 4 0 0 1 3.986 4.332l-5.141 61.703a4 4 0 0 1-3.987 3.668H38.347a4 4 0 0 1-3.986-4.332l5.142-61.704z" fill="#fff" filter="url(#filter0_dd)"/><g clip-path="url(#clip0)"><path d="M62.727 71a8.309 8.309 0 0 1 .42-2.596l-4.709-3.608a14.102 14.102 0 0 0 0 12.409l4.71-3.608a8.309 8.309 0 0 1-.42-2.597z" fill="#FBBC05"/><path d="M58.438 64.796l4.71 3.608A8.273 8.273 0 0 1 71 62.728a8.095 8.095 0 0 1 5.155 1.845l4.072-4.073a14 14 0 0 0-21.789 4.296z" fill="#EA4335"/><path d="M71 68.455v5.41h7.51c-.7 3.436-3.628 5.408-7.51 5.408a8.273 8.273 0 0 1-7.859-5.682l-4.71 3.608A13.955 13.955 0 0 0 71.002 85c7 0 13.363-5.091 13.363-14a11.613 11.613 0 0 0-.319-2.546H71z" fill="#34A853"/><path d="M71 68.455v5.41h7.51a6.319 6.319 0 0 1-2.858 4.186l4.454 3.462c2.584-2.392 4.258-5.95 4.258-10.513a11.613 11.613 0 0 0-.319-2.545H71z" fill="#4285F4"/></g><path d="M140.673 136.667a4 4 0 0 1 3.986-3.667h38.528a4 4 0 0 1 3.986 4.333l-3.311 39.631a4 4 0 0 1-3.986 3.667h-38.528a4 4 0 0 1-3.986-4.333l3.311-39.631z" fill="#fff" filter="url(#filter1_dd)"/><path d="M169.802 151.591c-.02.13-.043.264-.07.401-.901 4.63-3.987 6.229-7.927 6.229h-2.006a.974.974 0 0 0-.963.825l-1.027 6.515-.291 1.846a.51.51 0 0 0 .292.547.51.51 0 0 0 .214.047h3.559a.855.855 0 0 0 .845-.722l.035-.181.67-4.251.043-.234a.856.856 0 0 1 .846-.723h.532c3.448 0 6.146-1.399 6.935-5.45.33-1.692.159-3.105-.713-4.098a3.38 3.38 0 0 0-.974-.751z" fill="#179BD7"/><path d="M168.859 151.214a6.936 6.936 0 0 0-.877-.195 11.143 11.143 0 0 0-1.769-.129h-5.359a.854.854 0 0 0-.845.723l-1.141 7.222-.032.21a.975.975 0 0 1 .963-.825h2.006c3.94 0 7.025-1.6 7.927-6.229.027-.137.05-.271.07-.401a4.77 4.77 0 0 0-.943-.376z" fill="#222D65"/><path d="M160.009 151.613a.854.854 0 0 1 .845-.722h5.359c.635 0 1.228.041 1.769.129.366.057.727.143 1.079.257.267.088.514.193.742.313.268-1.711-.002-2.876-.927-3.931-1.02-1.161-2.861-1.659-5.216-1.659h-6.839a.978.978 0 0 0-.966.826l-2.848 18.054a.596.596 0 0 0 .134.474.597.597 0 0 0 .446.206h4.221l1.06-6.725 1.141-7.222z" fill="#253B80"/><path d="M173.202 5.669A4 4 0 0 1 177.188 2h91.506a4 4 0 0 1 3.986 4.332l-7.842 94.232a4 4 0 0 1-3.986 3.668h-91.505a4 4 0 0 1-3.987-4.332l7.842-94.231z" fill="#fff" filter="url(#filter2_dd)"/><path fill-rule="evenodd" clip-rule="evenodd" d="M251.812 53.915c0-4.602-2.233-8.234-6.499-8.234-4.285 0-6.878 3.632-6.878 8.198 0 5.411 3.061 8.144 7.454 8.144 2.142 0 3.762-.486 4.987-1.169V57.26c-1.225.61-2.629.988-4.411.988-1.747 0-3.295-.61-3.493-2.732h8.804c0-.234.036-1.169.036-1.6zm-8.894-1.708c0-2.032 1.242-2.876 2.377-2.876 1.098 0 2.268.844 2.268 2.876h-4.645zM231.486 45.681c-1.764 0-2.898.827-3.529 1.402l-.234-1.114h-3.96V66.93l4.501-.953.018-5.088c.648.468 1.602 1.133 3.186 1.133 3.223 0 6.157-2.589 6.157-8.288-.018-5.213-2.988-8.054-6.139-8.054zm-1.08 12.387c-1.062 0-1.692-.378-2.124-.845l-.018-6.67c.468-.521 1.116-.88 2.142-.88 1.638 0 2.772 1.833 2.772 4.188 0 2.409-1.116 4.207-2.772 4.207zM217.57 44.62l4.518-.97V40l-4.518.953v3.668z" fill="#6772E5"/><path d="M222.088 45.987h-4.518v15.73h4.518v-15.73z" fill="#6772E5"/><path fill-rule="evenodd" clip-rule="evenodd" d="M212.727 47.317l-.288-1.33h-3.889v15.73h4.501v-10.66c1.062-1.385 2.862-1.133 3.42-.935v-4.135c-.576-.216-2.682-.611-3.744 1.33zM203.725 42.086l-4.393.935-.018 14.4c0 2.66 1.999 4.62 4.663 4.62 1.476 0 2.557-.27 3.151-.593v-3.65c-.576.234-3.421 1.061-3.421-1.6v-6.382h3.421v-3.829h-3.421l.018-3.901zM191.555 50.553c0-.701.576-.97 1.53-.97 1.368 0 3.097.413 4.465 1.15v-4.225c-1.494-.593-2.971-.827-4.465-.827-3.655 0-6.085 1.906-6.085 5.088 0 4.962 6.841 4.17 6.841 6.31 0 .827-.72 1.096-1.728 1.096-1.494 0-3.403-.61-4.915-1.438v4.279a12.496 12.496 0 0 0 4.915 1.025c3.745 0 6.319-1.852 6.319-5.07-.018-5.357-6.877-4.404-6.877-6.418z" fill="#6772E5"/><path d="M19.503 183.668A4 4 0 0 1 23.489 180h59.933a4 4 0 0 1 3.987 4.333l-5.143 61.703a4 4 0 0 1-3.986 3.668H18.347a4 4 0 0 1-3.986-4.332l5.142-61.704z" fill="#fff" filter="url(#filter3_dd)"/><path fill-rule="evenodd" clip-rule="evenodd" d="M51 200c8.29 0 15 6.71 15 15 0 8.291-6.71 15-15 15s-15-6.709-15-15c0-8.29 6.71-15 15-15z" fill="#49494C"/><path fill-rule="evenodd" clip-rule="evenodd" d="M58.964 221.601c-.546 1.69-1.364 2.945-2.51 3.872-1.145.928-2.672 1.418-4.581 1.582l-.382-2.509c1.255-.164 2.182-.436 2.782-.873.272-.218.654-.709.654-.709L50.4 208.455h3.764l2.618 10.855 2.782-10.855h3.654l-4.254 13.146zM45.818 208.073c.873 0 1.691.109 2.346.382.709.273 1.363.655 2.018 1.2l-1.528 2.073a5.964 5.964 0 0 0-1.254-.709c-.382-.164-.873-.218-1.31-.218-1.854 0-2.78 1.418-2.78 4.309 0 1.472.217 2.509.708 3.109.491.654 1.146.927 2.073.927.436 0 .873-.055 1.254-.218.382-.164.819-.382 1.364-.709l1.527 2.182c-1.254 1.036-2.672 1.527-4.309 1.527-1.309 0-2.4-.273-3.382-.818a5.496 5.496 0 0 1-2.181-2.4c-.491-1.037-.764-2.237-.764-3.655 0-1.364.273-2.618.764-3.654.49-1.091 1.254-1.91 2.181-2.51.928-.545 2.019-.818 3.273-.818z" fill="#fff"/><path d="M197.503 186.668a4 4 0 0 1 3.986-3.668h59.933a4 4 0 0 1 3.986 4.333l-5.141 61.703a4 4 0 0 1-3.987 3.668h-59.933a4 4 0 0 1-3.986-4.332l5.142-61.704z" fill="#fff" filter="url(#filter4_dd)"/><path d="M238.694 211.729c-2.446-10.908-7.562-13.811-8.866-15.864-.709-1.118-1.425-2.814-1.425-2.814-.074.963-.2 1.579-1.013 2.314-1.635 1.475-8.605 7.199-9.192 19.593-.545 11.556 8.422 18.682 9.613 19.417.911.452 2.02.009 2.564-.404 4.32-2.993 10.232-10.971 8.319-22.242z" fill="#10AA50"/><path d="M228.775 228.221c-.226 2.861-.387 4.527-.962 6.158 0 0 .377 2.723.639 5.607h.934a53.41 53.41 0 0 1 1.019-6.041c-1.207-.598-1.585-3.214-1.63-5.724z" fill="#B8C4C2"/><path d="M230.408 233.945c-1.222-.57-1.577-3.239-1.635-5.728.302-4.102.39-8.218.263-12.33-.063-2.155.032-19.984-.526-22.594.226.507.771 1.71 1.317 2.567 1.303 2.053 6.411 4.958 8.866 15.867 1.91 11.244-3.966 19.209-8.285 22.218z" fill="#12924F"/><defs><filter id="filter0_dd" x="28.347" y="34.001" width="85.076" height="81.703" filterUnits="userSpaceOnUse" color-interpolation-filters="sRGB"><feFlood flood-opacity="0" result="BackgroundImageFix"/><feColorMatrix in="SourceAlpha" values="0 0 0 0 0 0 0 0 0 0 0 0 0 0 0 0 0 0 127 0"/><feOffset dy="1"/><feGaussianBlur stdDeviation="1.5"/><feColorMatrix values="0 0 0 0 0 0 0 0 0 0 0 0 0 0 0 0 0 0 0.08 0"/><feBlend in2="BackgroundImageFix" result="effect1_dropShadow"/><feColorMatrix in="SourceAlpha" values="0 0 0 0 0 0 0 0 0 0 0 0 0 0 0 0 0 0 127 0"/><feOffset dy="4"/><feGaussianBlur stdDeviation="3"/><feColorMatrix values="0 0 0 0 0 0 0 0 0 0 0 0 0 0 0 0 0 0 0.11 0"/><feBlend in2="effect1_dropShadow" result="effect2_dropShadow"/><feBlend in="SourceGraphic" in2="effect2_dropShadow" result="shape"/></filter><filter id="filter1_dd" x="131.348" y="131" width="61.839" height="59.631" filterUnits="userSpaceOnUse" color-interpolation-filters="sRGB"><feFlood flood-opacity="0" result="BackgroundImageFix"/><feColorMatrix in="SourceAlpha" values="0 0 0 0 0 0 0 0 0 0 0 0 0 0 0 0 0 0 127 0"/><feOffset dy="1"/><feGaussianBlur stdDeviation="1.5"/><feColorMatrix values="0 0 0 0 0 0 0 0 0 0 0 0 0 0 0 0 0 0 0.08 0"/><feBlend in2="BackgroundImageFix" result="effect1_dropShadow"/><feColorMatrix in="SourceAlpha" values="0 0 0 0 0 0 0 0 0 0 0 0 0 0 0 0 0 0 127 0"/><feOffset dy="4"/><feGaussianBlur stdDeviation="3"/><feColorMatrix values="0 0 0 0 0 0 0 0 0 0 0 0 0 0 0 0 0 0 0.11 0"/><feBlend in2="effect1_dropShadow" result="effect2_dropShadow"/><feBlend in="SourceGraphic" in2="effect2_dropShadow" result="shape"/></filter><filter id="filter2_dd" x="159.346" y="0" width="119.348" height="114.232" filterUnits="userSpaceOnUse" color-interpolation-filters="sRGB"><feFlood flood-opacity="0" result="BackgroundImageFix"/><feColorMatrix in="SourceAlpha" values="0 0 0 0 0 0 0 0 0 0 0 0 0 0 0 0 0 0 127 0"/><feOffset dy="1"/><feGaussianBlur stdDeviation="1.5"/><feColorMatrix values="0 0 0 0 0 0 0 0 0 0 0 0 0 0 0 0 0 0 0.08 0"/><feBlend in2="BackgroundImageFix" result="effect1_dropShadow"/><feColorMatrix in="SourceAlpha" values="0 0 0 0 0 0 0 0 0 0 0 0 0 0 0 0 0 0 127 0"/><feOffset dy="4"/><feGaussianBlur stdDeviation="3"/><feColorMatrix values="0 0 0 0 0 0 0 0 0 0 0 0 0 0 0 0 0 0 0.11 0"/><feBlend in2="effect1_dropShadow" result="effect2_dropShadow"/><feBlend in="SourceGraphic" in2="effect2_dropShadow" result="shape"/></filter><filter id="filter3_dd" x="8.347" y="178" width="85.076" height="81.703" filterUnits="userSpaceOnUse" color-interpolation-filters="sRGB"><feFlood flood-opacity="0" result="BackgroundImageFix"/><feColorMatrix in="SourceAlpha" values="0 0 0 0 0 0 0 0 0 0 0 0 0 0 0 0 0 0 127 0"/><feOffset dy="1"/><feGaussianBlur stdDeviation="1.5"/><feColorMatrix values="0 0 0 0 0 0 0 0 0 0 0 0 0 0 0 0 0 0 0.08 0"/><feBlend in2="BackgroundImageFix" result="effect1_dropShadow"/><feColorMatrix in="SourceAlpha" values="0 0 0 0 0 0 0 0 0 0 0 0 0 0 0 0 0 0 127 0"/><feOffset dy="4"/><feGaussianBlur stdDeviation="3"/><feColorMatrix values="0 0 0 0 0 0 0 0 0 0 0 0 0 0 0 0 0 0 0.11 0"/><feBlend in2="effect1_dropShadow" result="effect2_dropShadow"/><feBlend in="SourceGraphic" in2="effect2_dropShadow" result="shape"/></filter><filter id="filter4_dd" x="186.347" y="181" width="85.076" height="81.703" filterUnits="userSpaceOnUse" color-interpolation-filters="sRGB"><feFlood flood-opacity="0" result="BackgroundImageFix"/><feColorMatrix in="SourceAlpha" values="0 0 0 0 0 0 0 0 0 0 0 0 0 0 0 0 0 0 127 0"/><feOffset dy="1"/><feGaussianBlur stdDeviation="1.5"/><feColorMatrix values="0 0 0 0 0 0 0 0 0 0 0 0 0 0 0 0 0 0 0.08 0"/><feBlend in2="BackgroundImageFix" result="effect1_dropShadow"/><feColorMatrix in="SourceAlpha" values="0 0 0 0 0 0 0 0 0 0 0 0 0 0 0 0 0 0 127 0"/><feOffset dy="4"/><feGaussianBlur stdDeviation="3"/><feColorMatrix values="0 0 0 0 0 0 0 0 0 0 0 0 0 0 0 0 0 0 0.11 0"/><feBlend in2="effect1_dropShadow" result="effect2_dropShadow"/><feBlend in="SourceGraphic" in2="effect2_dropShadow" result="shape"/></filter><clipPath id="clip0"><path fill="#fff" transform="translate(57 57)" d="M0 0h27.364v28H0z"/></clipPath></defs></svg>