<svg width="180" height="40" fill="none" xmlns="http://www.w3.org/2000/svg"><path d="M62.719 20.002c.608-4.216 1.743-9.324 3-12.486-3.081 3.446-6.77 8.351-9.851 13.176 2.473-.203 4.946-.65 6.85-.69zm-8.392 3.122c-1.216 2.068-2.27 4.054-3.08 5.837-.163.366-.528.366-.73.082-.487-.649-.649-1.865.202-4.136.243-.608.608-1.418 1.095-2.31-.892-.487-1.216-1.095-1.338-1.379-.203-.526-.122-.689.486-.608.568.082 1.176.163 1.825.203C55.949 15.3 61.584 7.273 65.88 3.746c.649-.527 1.054-.527 1.46.04.405.568.527.649.932 1.662.405.973.365 1.865 0 2.96a84.624 84.624 0 0 0-2.96 11.797c1.217.405 1.663 1.216 1.825 2.068.081.364-.081.486-.446.364a9.497 9.497 0 0 0-1.743-.243c-.284 2.109-.527 4.338-.608 6.487 0 .405-.243.527-.608.364-.811-.364-1.46-1.378-1.5-3.689 0-.81.04-1.865.162-3.08-2.879.202-6.163.688-8.068.648zM78.968 15.032c-1.297-.08-4.256 2.514-6.486 6.081-2.19 3.487-2.676 7.176-1.095 7.176 1.662 0 3.77-2.554 5.838-6.162 2.554-4.46 2.919-7.014 1.743-7.095zm-8.027 14.514c-3.77 0-4.54-5.108-1.175-10.054 3.202-4.662 6.486-6.527 8.513-6.527 1.784 0 2.594 1.419 2.473 2.919.69-1.216 1.378-2.23 1.744-2.595.445-.446.688-.324 1.013.122.486 1.013.446 2.797-.892 5.189-2.473 4.419-7.298 12.77-10.5 20.432-.203.446-.446.487-.73.162-.567-.648-1.054-1.419-.365-3.73.487-1.702 1.541-4.297 2.838-6.932-.892.608-1.905 1.014-2.919 1.014zM84.863 29.424c-2.878-.202-2.96-3.202-2.067-5.877.891-2.676 2.96-6.65 5.594-10.338.324-.446.73-.406 1.054-.041.892 1.338.69 3.162-.77 5.473-1.5 2.392-2.311 4.013-3.162 5.96-.852 1.986-.73 3.445.202 3.526 1.582.122 3.811-2.716 6-6.243 2.555-4.135 3.73-6.932 5.028-8.675.405-.568.689-.65 1.013-.244.608.73.933 2.514-.04 4.54-.893 1.825-2.92 4.866-3.852 6.933-1.054 2.31-.892 4.014.567 3.932 1.703-.08 3.77-2.756 5.352-5.594.203-.365.568-.405.729-.04.163.324.203 1.418-.364 2.554-1.176 2.27-3.69 4.337-6.081 4.337-2.636 0-3.69-1.662-3.365-4.013-1.419 1.905-3.568 3.973-5.838 3.81z" fill="#516677"/><path d="M110.452 14.967c-1.298-.122-4.257 2.514-6.487 6.122-2.148 3.486-2.675 7.054-1.094 7.094 1.662.04 3.77-2.554 5.837-6.121 2.554-4.46 2.919-6.973 1.744-7.095zm3.243-1.662c.365-.527.689-.608.973-.243.608.73.932 2.473-.041 4.5-.892 1.824-2.919 4.864-3.892 7.013-1.013 2.27-1.054 4.014.325 3.933 1.662-.082 3.892-2.838 5.31-5.636.203-.364.487-.405.649-.04.162.365.162 1.378-.365 2.514-1.054 2.23-3.608 4.459-5.838 4.337-2.189-.121-3.324-1.419-3.324-3.324-1.297 1.662-3.121 3.162-5.067 3.162-3.77 0-4.54-5.149-1.176-10.054 3.284-4.784 6.487-6.608 8.513-6.608 1.744 0 2.554 1.338 2.474 2.919.526-.973 1.013-1.824 1.459-2.473z" fill="#516677"/><path d="M123.986 25.445c2.027-.162 3.122.608 3.567 1.825.122.324.122.608-.405.608-2.027-.04-6.486.973-8.838 1.58-.973.244-1.378.244-1.824-.405-.365-.527-.851-1.256-1.054-1.743-.284-.69-.284-1.297.122-2.351 1.946-5.027 8.635-17.31 11.108-20.757.364-.486.729-.446.973.081.486 1.014.648 2.717-1.014 5.717-2.108 3.85-5.797 10.094-8.797 16.58 2.311-.608 4.621-1.013 6.162-1.134zM131.709 29.424c-2.878-.202-2.959-3.202-2.067-5.877.892-2.676 2.959-6.65 5.594-10.338.325-.446.73-.406 1.054-.041.892 1.338.69 3.162-.77 5.473-1.5 2.392-2.311 4.013-3.162 5.96-.851 1.986-.73 3.445.203 3.526 1.581.122 3.811-2.716 6-6.243 2.554-4.135 3.729-6.932 5.027-8.675.405-.568.689-.65 1.013-.244.608.73.933 2.514-.04 4.54-.892 1.825-2.919 4.866-3.852 6.933-1.054 2.31-.891 4.014.568 3.932 1.703-.08 3.77-2.756 5.351-5.594.203-.365.568-.405.73-.04.162.324.202 1.418-.365 2.554-1.176 2.27-3.689 4.337-6.081 4.337-2.635 0-3.689-1.662-3.365-4.013-1.419 1.905-3.567 3.973-5.838 3.81z" fill="#516677"/><path d="M158.379 13.036c1.338.202 2.595 2.189 1.581 4.297-.851 1.784-2.838 4.784-3.77 6.892-1.054 2.351-.811 4.256.649 4.175 1.662-.08 3.648-2.756 5.189-5.594.203-.365.486-.365.689-.04.284.445.203 1.378-.365 2.554-1.094 2.27-3.649 4.337-6 4.337-3.446 0-4.256-2.514-3.081-6.04 1.338-3.974 4.906-8.27 4.176-8.595-.406-.162-2.757.973-5.351 3.811-2.392 2.595-4.176 6.487-5.919 10.297-.162.365-.406.527-.771.162-.81-.81-1.054-2.149-.405-4.176.811-2.553 3.932-8.189 6.486-11.959.284-.446.609-.405.852 0 .608 1.014.567 2.392.121 3.852 1.825-1.946 4.581-4.176 5.919-3.973z" fill="#516677"/><path d="M172.723 14.967c-1.298-.122-4.257 2.514-6.487 6.122-2.149 3.486-2.675 7.054-1.094 7.094 1.662.04 3.77-2.554 5.837-6.121 2.554-4.46 2.919-6.973 1.744-7.095zm3.243-1.662c.365-.527.689-.608.973-.243.608.73.932 2.473-.041 4.5-.892 1.824-2.919 4.864-3.892 7.013-1.013 2.27-1.054 4.014.325 3.933 1.662-.082 3.891-2.838 5.31-5.636.203-.364.487-.405.649-.04.162.365.162 1.378-.365 2.514-1.054 2.23-3.608 4.459-5.838 4.337-2.189-.121-3.324-1.419-3.324-3.324-1.297 1.662-3.121 3.162-5.067 3.162-3.77 0-4.541-5.149-1.176-10.054 3.284-4.784 6.487-6.608 8.513-6.608 1.744 0 2.554 1.338 2.473 2.919.527-.973 1.014-1.824 1.46-2.473zM20.454.5C9.458.5.511 9.248.511 20s8.947 19.5 19.944 19.5c10.996 0 19.943-8.748 19.943-19.5S31.45.5 20.454.5zm0 39.5C9.176 40 0 31.028 0 20S9.176 0 20.454 0C31.734 0 40.91 8.972 40.91 20c0 5.424-2.22 10.35-5.817 13.957A20.623 20.623 0 0 1 20.455 40z" fill="#516677"/><path d="M16.262 20.454c0-7.401 4.55-13.742 11.011-16.397a17.769 17.769 0 0 0-6.767-1.33c-9.819 0-17.778 7.936-17.778 17.727 0 9.79 7.959 17.727 17.778 17.727 2.396 0 4.68-.474 6.767-1.33-6.462-2.656-11.01-8.996-11.01-16.397z" fill="#516677"/><mask id="a" maskUnits="userSpaceOnUse" x="2" y="2" width="37" height="36"><circle cx="20.496" cy="20.176" r="17.776" fill="#C4C4C4"/></mask><g mask="url(#a)" fill="#516677"><path d="M-5.787 34.712c.443-.574.676-.85 1.137-.85.46 0 .694.277 1.136.85.498.644 1.18 1.527 2.534 1.527 1.354 0 2.036-.883 2.534-1.527.443-.574.676-.85 1.137-.85.46 0 .694.277 1.137.85.497.644 1.18 1.527 2.533 1.527 1.355 0 2.037-.883 2.534-1.527.443-.573.676-.85 1.137-.85.46 0 .694.277 1.137.85.498.644 1.18 1.527 2.534 1.527 1.354 0 2.035-.883 2.533-1.527.443-.573.676-.85 1.137-.85.46 0 .694.276 1.136.85.498.644 1.18 1.527 2.534 1.527 1.354 0 2.036-.883 2.534-1.527.443-.573.676-.85 1.137-.85.46 0 .694.277 1.137.85.497.644 1.179 1.527 2.533 1.527.589 0 1.1-.165 1.565-.505.411-.3.707-.684.968-1.022.444-.574.677-.85 1.137-.85.461 0 .695.276 1.137.85.498.644 1.18 1.527 2.534 1.527 1.354 0 2.036-.883 2.534-1.527.443-.574.676-.85 1.137-.85.46 0 .694.277 1.136.85.498.644 1.18 1.527 2.534 1.527 1.355 0 2.036-.883 2.534-1.527.443-.573.676-.85 1.137-.85.461 0 .694.277 1.137.85.498.644 1.18 1.527 2.533 1.527.599 0 1.119-.172 1.59-.525l.221-.166V32.96l-.998 1.137c-.29.33-.502.447-.813.447-.46 0-.693-.276-1.136-.85-.498-.644-1.18-1.526-2.534-1.526-1.354 0-2.036.882-2.533 1.527-.443.573-.677.849-1.138.849-.46 0-.694-.276-1.137-.85-.497-.644-1.18-1.526-2.533-1.526-1.355 0-2.037.882-2.534 1.527-.443.573-.676.849-1.137.849-.46 0-.694-.276-1.137-.85-.498-.644-1.18-1.526-2.534-1.526-1.354 0-2.035.882-2.533 1.527-.106.137-.227.293-.342.422-.281.315-.49.427-.795.427-.46 0-.694-.276-1.137-.85-.497-.644-1.18-1.526-2.533-1.526-1.354 0-2.036.882-2.534 1.527-.443.573-.676.849-1.137.849-.46 0-.694-.276-1.136-.85-.498-.644-1.18-1.526-2.534-1.526-1.354 0-2.036.882-2.534 1.527-.443.573-.676.849-1.136.849-.461 0-.694-.276-1.137-.85-.498-.644-1.18-1.526-2.534-1.526-1.354 0-2.036.882-2.533 1.527-.443.573-.677.849-1.138.849-.46 0-.694-.276-1.137-.85-.497-.644-1.179-1.526-2.533-1.526-1.355 0-2.036.882-2.534 1.527-.443.573-.676.849-1.137.849-.46 0-.694-.276-1.137-.85-.498-.644-1.18-1.526-2.533-1.526-1.354 0-2.036.882-2.534 1.527a7.932 7.932 0 0 1-.342.422l-.139.156v2.125l.909-.664c.411-.3.707-.684.969-1.022zM-5.754 29.747c.443-.573.677-.849 1.137-.849.461 0 .694.276 1.137.849.498.644 1.18 1.527 2.534 1.527 1.354 0 2.036-.883 2.533-1.527.443-.573.677-.849 1.138-.849.46 0 .694.276 1.137.849.497.644 1.179 1.527 2.533 1.527 1.355 0 2.036-.882 2.534-1.527.443-.573.676-.849 1.137-.849.46 0 .694.276 1.137.849.498.645 1.18 1.527 2.533 1.527 1.355 0 2.036-.883 2.534-1.527.443-.573.676-.849 1.137-.849.46 0 .694.276 1.136.849.498.644 1.18 1.527 2.534 1.527 1.354 0 2.036-.883 2.534-1.527.443-.573.676-.849 1.137-.849.46 0 .694.276 1.136.849.498.644 1.18 1.527 2.534 1.527.589 0 1.1-.165 1.565-.504.41-.301.707-.685.968-1.023.444-.573.677-.849 1.137-.849.461 0 .694.276 1.137.849.498.644 1.18 1.527 2.534 1.527 1.354 0 2.036-.883 2.533-1.527.443-.573.677-.849 1.137-.849.461 0 .695.276 1.137.849.498.644 1.18 1.527 2.534 1.527 1.354 0 2.036-.882 2.534-1.527.443-.573.676-.849 1.137-.849.46 0 .694.276 1.137.849.498.645 1.18 1.527 2.533 1.527.599 0 1.119-.172 1.59-.525l.221-.165v-2.589l-.998 1.137c-.29.33-.502.447-.813.447-.46 0-.694-.276-1.137-.849-.498-.645-1.18-1.527-2.533-1.527-1.354 0-2.036.883-2.534 1.527-.443.573-.676.849-1.137.849-.46 0-.694-.276-1.137-.849-.498-.644-1.18-1.527-2.534-1.527-1.354 0-2.036.883-2.533 1.527-.443.573-.677.849-1.137.849-.46 0-.694-.276-1.137-.849-.498-.644-1.18-1.527-2.534-1.527-1.354 0-2.035.883-2.533 1.527-.107.138-.227.294-.342.423-.281.314-.49.426-.795.426-.46 0-.694-.276-1.137-.849-.498-.645-1.18-1.527-2.533-1.527-1.355 0-2.036.883-2.534 1.527-.443.573-.676.849-1.137.849-.46 0-.694-.276-1.137-.849-.498-.644-1.18-1.527-2.534-1.527-1.354 0-2.035.883-2.533 1.527-.443.573-.676.849-1.137.849-.46 0-.694-.276-1.136-.849-.498-.644-1.18-1.527-2.534-1.527-1.354 0-2.036.883-2.534 1.527-.443.573-.676.849-1.137.849-.46 0-.694-.276-1.137-.849-.497-.644-1.18-1.527-2.533-1.527-1.355 0-2.037.883-2.534 1.527-.443.573-.677.849-1.137.849-.46 0-.694-.276-1.137-.849-.498-.644-1.18-1.527-2.534-1.527-1.354 0-2.036.883-2.533 1.527a7.897 7.897 0 0 1-.342.423l-.139.155v2.126l.909-.665c.411-.3.707-.684.968-1.022zM-5.719 24.85c.443-.573.676-.849 1.137-.849.46 0 .694.276 1.137.85.498.644 1.18 1.526 2.533 1.526 1.355 0 2.036-.882 2.534-1.526.443-.574.676-.85 1.137-.85.46 0 .694.276 1.137.85.498.644 1.18 1.526 2.534 1.526 1.354 0 2.036-.882 2.534-1.526.442-.574.676-.85 1.136-.85.461 0 .695.276 1.138.85.497.644 1.179 1.526 2.533 1.526 1.354 0 2.036-.882 2.534-1.527.442-.573.675-.849 1.136-.849.46 0 .694.276 1.137.849.498.645 1.18 1.527 2.534 1.527 1.354 0 2.036-.882 2.533-1.526.443-.574.677-.85 1.137-.85.46 0 .694.276 1.137.85.498.644 1.18 1.526 2.534 1.526.588 0 1.1-.165 1.564-.504.412-.301.708-.684.969-1.023.443-.573.676-.849 1.137-.849.46 0 .694.276 1.137.85.498.644 1.18 1.526 2.533 1.526 1.355 0 2.036-.882 2.534-1.526.443-.574.676-.85 1.137-.85.46 0 .694.276 1.137.85.498.644 1.18 1.526 2.534 1.526 1.354 0 2.036-.882 2.534-1.526.442-.574.676-.85 1.137-.85.46 0 .693.276 1.136.85.498.644 1.18 1.526 2.534 1.526.598 0 1.118-.171 1.59-.525l.22-.165v-2.588l-.998 1.137c-.29.33-.502.446-.812.446-.46 0-.694-.275-1.137-.849-.498-.644-1.18-1.526-2.533-1.526-1.355 0-2.036.882-2.534 1.526-.443.574-.676.85-1.137.85-.461 0-.694-.276-1.137-.85-.498-.644-1.18-1.526-2.534-1.526-1.354 0-2.036.882-2.534 1.526-.443.574-.676.85-1.137.85-.46 0-.694-.276-1.136-.85-.498-.644-1.18-1.526-2.534-1.526-1.354 0-2.036.882-2.534 1.526-.106.138-.227.294-.342.423-.28.315-.488.426-.794.426-.461 0-.694-.275-1.137-.848-.498-.645-1.18-1.527-2.534-1.527-1.354 0-2.036.882-2.533 1.526-.443.574-.677.85-1.137.85-.46 0-.694-.276-1.137-.85-.498-.644-1.18-1.526-2.534-1.526-1.354 0-2.035.882-2.533 1.526-.443.574-.676.85-1.137.85-.46 0-.694-.276-1.137-.85-.498-.644-1.18-1.526-2.534-1.526-1.354 0-2.035.882-2.533 1.526-.443.574-.676.85-1.137.85-.46 0-.694-.276-1.137-.85-.498-.644-1.18-1.526-2.534-1.526-1.354 0-2.036.882-2.534 1.526-.442.574-.676.85-1.137.85-.46 0-.694-.276-1.136-.85-.498-.644-1.18-1.526-2.534-1.526-1.354 0-2.036.882-2.534 1.526a7.812 7.812 0 0 1-.341.423l-.14.155v2.126l.91-.664c.41-.301.707-.684.968-1.023zM-5.719 19.886c.443-.574.676-.85 1.137-.85.46 0 .694.276 1.137.85.497.644 1.18 1.527 2.533 1.527 1.355 0 2.036-.883 2.534-1.527.443-.574.676-.85 1.137-.85.46 0 .694.276 1.137.85.498.644 1.18 1.527 2.534 1.527 1.354 0 2.036-.883 2.534-1.527.442-.574.676-.85 1.136-.85.461 0 .695.276 1.137.85.498.644 1.18 1.527 2.534 1.527 1.354 0 2.036-.883 2.533-1.527.443-.574.676-.85 1.137-.85.46 0 .694.276 1.137.85.498.644 1.18 1.527 2.534 1.527 1.354 0 2.036-.883 2.533-1.527.443-.574.677-.85 1.137-.85.46 0 .694.276 1.137.85.498.644 1.18 1.527 2.534 1.527.588 0 1.1-.166 1.564-.505.412-.3.708-.684.969-1.022.443-.574.676-.85 1.137-.85.46 0 .694.276 1.137.85.498.644 1.18 1.527 2.533 1.527 1.355 0 2.036-.883 2.534-1.527.443-.574.676-.85 1.137-.85.46 0 .694.276 1.137.85.498.644 1.18 1.527 2.534 1.527 1.354 0 2.036-.883 2.534-1.527.442-.574.675-.85 1.137-.85.46 0 .693.276 1.136.85.498.644 1.18 1.527 2.534 1.527.598 0 1.118-.172 1.59-.526l.22-.165v-2.588l-.998 1.137c-.29.33-.502.447-.812.447-.461 0-.694-.276-1.137-.85-.498-.644-1.18-1.526-2.533-1.526-1.355 0-2.036.882-2.534 1.526-.443.574-.676.85-1.137.85-.461 0-.694-.276-1.137-.85-.498-.644-1.18-1.526-2.534-1.526-1.355 0-2.036.882-2.534 1.527-.443.573-.676.849-1.137.849-.46 0-.694-.276-1.136-.85-.498-.644-1.18-1.526-2.534-1.526-1.354 0-2.036.882-2.534 1.527-.106.137-.227.293-.342.422-.28.315-.489.427-.794.427-.461 0-.694-.276-1.137-.85-.498-.644-1.18-1.526-2.534-1.526-1.354 0-2.036.882-2.534 1.527-.442.573-.676.849-1.136.849-.461 0-.694-.276-1.137-.85-.498-.644-1.18-1.526-2.534-1.526-1.354 0-2.035.882-2.533 1.527-.443.573-.676.849-1.137.849-.46 0-.694-.276-1.137-.85-.498-.644-1.18-1.526-2.534-1.526-1.354 0-2.035.882-2.533 1.526-.443.574-.676.85-1.137.85-.46 0-.694-.276-1.137-.85-.498-.644-1.18-1.526-2.534-1.526-1.354 0-2.036.882-2.534 1.527-.442.573-.676.849-1.137.849-.46 0-.694-.276-1.136-.85-.498-.644-1.18-1.526-2.534-1.526-1.354 0-2.036.882-2.534 1.527a7.966 7.966 0 0 1-.342.422l-.138.155v2.126l.908-.664c.412-.3.708-.684.969-1.022zM-5.686 14.988c.443-.573.677-.849 1.137-.849.461 0 .694.276 1.137.85.498.644 1.18 1.526 2.534 1.526 1.354 0 2.036-.882 2.533-1.527.443-.573.677-.849 1.137-.849.461 0 .694.276 1.137.85.498.644 1.18 1.526 2.534 1.526 1.354 0 2.036-.882 2.534-1.527.443-.573.676-.849 1.137-.849.46 0 .694.276 1.137.85.497.644 1.18 1.526 2.533 1.526 1.354 0 2.036-.882 2.534-1.527.443-.573.676-.849 1.136-.849.461 0 .694.276 1.137.849.498.645 1.18 1.527 2.534 1.527 1.354 0 2.036-.882 2.534-1.527.443-.573.676-.849 1.137-.849.46 0 .694.276 1.136.85.498.644 1.18 1.526 2.534 1.526.588 0 1.1-.165 1.564-.504.412-.301.708-.685.97-1.023.442-.573.675-.849 1.136-.849.461 0 .694.276 1.137.85.498.644 1.18 1.526 2.534 1.526 1.354 0 2.036-.882 2.533-1.527.443-.573.677-.849 1.137-.849.461 0 .694.276 1.137.85.498.644 1.18 1.526 2.534 1.526 1.354 0 2.036-.882 2.534-1.527.443-.573.676-.849 1.137-.849.46 0 .694.276 1.137.85.498.644 1.179 1.526 2.533 1.526.599 0 1.119-.172 1.59-.525l.22-.165v-2.589l-.998 1.137c-.289.33-.502.447-.812.447-.46 0-.694-.276-1.137-.849-.498-.644-1.18-1.527-2.533-1.527-1.355 0-2.036.883-2.534 1.527-.443.573-.676.849-1.137.849-.46 0-.694-.276-1.137-.849-.498-.644-1.18-1.527-2.534-1.527-1.354 0-2.036.883-2.533 1.527-.443.573-.677.849-1.137.849-.461 0-.694-.275-1.137-.848-.498-.645-1.18-1.528-2.534-1.528-1.354 0-2.035.883-2.533 1.527-.107.138-.227.294-.342.423-.281.315-.49.426-.795.426-.46 0-.694-.275-1.137-.848-.498-.645-1.18-1.528-2.533-1.528-1.355 0-2.037.883-2.534 1.527-.443.574-.676.849-1.137.849-.46 0-.694-.276-1.137-.849-.498-.644-1.18-1.527-2.534-1.527-1.354 0-2.035.883-2.533 1.527-.443.573-.676.849-1.137.849-.46 0-.694-.276-1.137-.849-.498-.644-1.18-1.527-2.533-1.527-1.354 0-2.036.883-2.534 1.527-.443.573-.676.849-1.137.849-.46 0-.694-.276-1.137-.849-.498-.644-1.18-1.527-2.534-1.527-1.354 0-2.036.883-2.533 1.527-.443.573-.677.849-1.137.849-.461 0-.694-.275-1.137-.848-.498-.645-1.18-1.528-2.534-1.528-1.354 0-2.036.883-2.533 1.527a7.846 7.846 0 0 1-.342.423l-.139.155v2.126l.908-.664c.412-.301.708-.685.97-1.023zM-5.651 10.022c.443-.573.676-.848 1.137-.848.46 0 .694.275 1.137.848.498.645 1.18 1.527 2.533 1.527 1.354 0 2.036-.882 2.534-1.527.443-.573.676-.848 1.137-.848.46 0 .694.275 1.137.848.498.645 1.18 1.527 2.534 1.527 1.354 0 2.036-.882 2.534-1.527.442-.573.676-.848 1.136-.848.461 0 .694.275 1.137.848.498.645 1.18 1.527 2.534 1.527 1.354 0 2.036-.882 2.533-1.527.443-.573.676-.848 1.137-.848.46 0 .694.275 1.137.848.498.645 1.18 1.527 2.534 1.527 1.354 0 2.035-.882 2.533-1.527.443-.573.676-.848 1.137-.848.46 0 .694.275 1.137.848.498.645 1.18 1.527 2.533 1.527.589 0 1.1-.165 1.565-.504.411-.301.708-.684.969-1.023.443-.573.676-.848 1.137-.848.46 0 .694.275 1.137.848.497.645 1.179 1.527 2.533 1.527 1.355 0 2.036-.882 2.534-1.527.443-.573.676-.848 1.137-.848.46 0 .694.275 1.137.848.498.645 1.18 1.527 2.534 1.527 1.354 0 2.036-.882 2.533-1.527.443-.573.677-.848 1.137-.848.461 0 .694.275 1.137.848.498.645 1.18 1.527 2.534 1.527.598 0 1.118-.171 1.59-.525l.22-.165V8.27l-.998 1.138c-.29.33-.502.446-.812.446-.461 0-.694-.275-1.137-.849-.498-.644-1.18-1.526-2.534-1.526-1.354 0-2.035.882-2.533 1.526-.443.574-.676.85-1.137.85-.461 0-.695-.276-1.137-.85-.498-.644-1.18-1.526-2.534-1.526-1.354 0-2.036.882-2.534 1.526-.443.574-.676.85-1.137.85-.46 0-.694-.276-1.137-.85-.497-.644-1.179-1.526-2.533-1.526-1.354 0-2.036.882-2.534 1.526a8.046 8.046 0 0 1-.342.423c-.28.315-.489.426-.795.426-.46 0-.694-.275-1.136-.848-.498-.645-1.18-1.527-2.534-1.527-1.354 0-2.036.882-2.533 1.526-.443.574-.677.85-1.137.85-.461 0-.695-.276-1.137-.85-.498-.644-1.18-1.526-2.534-1.526-1.354 0-2.036.882-2.533 1.526-.443.574-.676.85-1.137.85-.461 0-.694-.276-1.137-.85-.498-.644-1.18-1.526-2.534-1.526-1.354 0-2.035.882-2.533 1.526-.443.574-.676.85-1.137.85-.461 0-.694-.276-1.137-.85-.498-.644-1.18-1.526-2.534-1.526-1.354 0-2.036.882-2.534 1.526-.443.574-.676.85-1.137.85-.46 0-.694-.276-1.136-.85-.498-.644-1.18-1.526-2.534-1.526-1.354 0-2.036.882-2.534 1.526a7.849 7.849 0 0 1-.342.423l-.138.155v2.126l.908-.664c.412-.301.708-.684.969-1.023zM-5.616 5.129c.443-.574.676-.849 1.137-.849.46 0 .694.276 1.137.849.498.644 1.18 1.527 2.533 1.527 1.355 0 2.036-.883 2.534-1.527.443-.574.676-.849 1.137-.849.46 0 .694.276 1.137.849.498.644 1.18 1.527 2.534 1.527 1.354 0 2.036-.883 2.534-1.527.442-.573.676-.849 1.136-.849.461 0 .695.276 1.137.849.498.644 1.18 1.527 2.534 1.527 1.354 0 2.036-.883 2.533-1.527.443-.573.677-.849 1.137-.849.46 0 .694.275 1.137.849.498.644 1.18 1.527 2.534 1.527 1.354 0 2.036-.883 2.533-1.527.443-.573.676-.849 1.137-.849.461 0 .694.276 1.137.849.498.644 1.18 1.527 2.534 1.527.588 0 1.1-.165 1.564-.505.412-.3.708-.684.969-1.022.443-.574.676-.849 1.137-.849.46 0 .694.276 1.137.849.498.644 1.18 1.527 2.533 1.527 1.355 0 2.036-.883 2.534-1.527.443-.574.676-.849 1.137-.849.46 0 .694.276 1.137.849.498.644 1.18 1.527 2.534 1.527 1.354 0 2.036-.883 2.534-1.527.442-.573.675-.849 1.137-.849.46 0 .693.276 1.136.849.498.644 1.18 1.527 2.534 1.527.598 0 1.118-.172 1.59-.525l.22-.166V3.377l-.998 1.137c-.29.33-.502.447-.812.447-.461 0-.694-.276-1.137-.85-.498-.644-1.18-1.526-2.533-1.526-1.355 0-2.036.882-2.534 1.527-.443.573-.676.849-1.137.849-.461 0-.694-.276-1.137-.85-.498-.644-1.18-1.526-2.534-1.526-1.355 0-2.036.883-2.534 1.527-.443.573-.676.849-1.137.849-.46 0-.694-.276-1.136-.849-.498-.645-1.18-1.527-2.534-1.527-1.354 0-2.036.882-2.534 1.527a8.07 8.07 0 0 1-.342.423c-.28.314-.489.426-.795.426-.46 0-.693-.276-1.136-.849-.498-.645-1.18-1.527-2.534-1.527-1.354 0-2.036.883-2.533 1.527-.443.573-.677.849-1.137.849-.461 0-.694-.276-1.137-.85-.498-.643-1.18-1.526-2.534-1.526-1.354 0-2.036.882-2.533 1.527-.443.573-.676.849-1.137.849-.46 0-.694-.276-1.137-.85-.498-.644-1.18-1.526-2.534-1.526-1.353 0-2.035.882-2.533 1.527-.443.573-.676.849-1.137.849-.46 0-.694-.276-1.137-.85-.498-.643-1.18-1.526-2.534-1.526-1.354 0-2.036.883-2.534 1.527-.442.573-.676.849-1.137.849-.46 0-.694-.276-1.136-.849-.498-.644-1.18-1.527-2.534-1.527-1.354 0-2.036.882-2.534 1.527a7.947 7.947 0 0 1-.342.423l-.138.155v2.126l.908-.665c.412-.3.708-.684.969-1.022z"/></g></svg>