<svg width="375" height="342" viewBox="0 0 375 342" fill="none" xmlns="http://www.w3.org/2000/svg">
<path d="M235.653 118.1C235.653 118.1 274 118.1 280.5 118.1C287 118.1 289.945 120.5 289.945 129.5C289.945 138.5 290.945 197 290.945 203.5C290.945 210 294.5 212.5 301 212.5C308 212.5 336 212.5 336 212.5" stroke="#0495FE" stroke-width="3" stroke-linecap="round"/>
<path d="M134.5 122C134.5 122 99.9422 122 92 122C84.0578 122 80 127 80 135C80 143 80 242 80 250C80 258 80 263.5 70 263.5C60 263.5 50.5 263.5 50.5 263.5" stroke="#0495FE" stroke-width="3" stroke-linecap="round"/>
<path d="M223.5 154.3C223.5 153.472 222.828 152.8 222 152.8C221.172 152.8 220.5 153.472 220.5 154.3L223.5 154.3ZM222 154.3C220.5 154.3 220.5 154.3 220.5 154.301C220.5 154.301 220.5 154.301 220.5 154.302C220.5 154.304 220.5 154.306 220.5 154.308C220.5 154.314 220.5 154.322 220.5 154.334C220.5 154.356 220.5 154.389 220.5 154.433C220.5 154.521 220.5 154.651 220.5 154.821C220.5 155.162 220.5 155.663 220.5 156.303C220.5 157.584 220.5 159.421 220.5 161.652C220.5 166.113 220.5 172.143 220.5 178.422C220.5 190.979 220.5 204.529 220.5 208.5L223.5 208.5C223.5 204.529 223.5 190.979 223.5 178.422C223.5 172.143 223.5 166.113 223.5 161.652C223.5 159.421 223.5 157.584 223.5 156.303C223.5 155.663 223.5 155.162 223.5 154.821C223.5 154.651 223.5 154.521 223.5 154.433C223.5 154.389 223.5 154.356 223.5 154.334C223.5 154.322 223.5 154.314 223.5 154.308C223.5 154.306 223.5 154.304 223.5 154.302C223.5 154.301 223.5 154.301 223.5 154.301C223.5 154.3 223.5 154.3 222 154.3ZM220.5 208.5C220.5 212.798 221.865 216.245 224.501 218.598C227.111 220.926 230.764 222 235 222L235 219C231.236 219 228.389 218.045 226.499 216.359C224.635 214.697 223.5 212.144 223.5 208.5L220.5 208.5ZM235 222C235.016 222 235.031 222 235.047 222C235.062 222 235.077 222 235.093 222C235.108 222 235.123 222 235.138 222C235.153 222 235.168 222 235.183 222C235.198 222 235.213 222 235.228 222C235.242 222 235.257 222 235.271 222C235.286 222 235.3 222 235.315 222C235.329 222 235.343 222 235.358 222C235.372 222 235.386 222 235.4 222C235.414 222 235.428 222 235.442 222C235.455 222 235.469 222 235.483 222C235.497 222 235.51 222 235.524 222C235.537 222 235.55 222 235.564 222C235.577 222 235.59 222 235.603 222C235.617 222 235.63 222 235.643 222C235.655 222 235.668 222 235.681 222C235.694 222 235.707 222 235.719 222C235.732 222 235.744 222 235.757 222C235.769 222 235.782 222 235.794 222C235.806 222 235.818 222 235.83 222C235.843 222 235.855 222 235.867 222C235.878 222 235.89 222 235.902 222C235.914 222 235.926 222 235.937 222C235.949 222 235.96 222 235.972 222C235.983 222 235.995 222 236.006 222C236.017 222 236.028 222 236.039 222C236.05 222 236.061 222 236.072 222C236.083 222 236.094 222 236.105 222C236.116 222 236.126 222 236.137 222C236.148 222 236.158 222 236.169 222C236.179 222 236.19 222 236.2 222C236.21 222 236.22 222 236.23 222C236.241 222 236.251 222 236.261 222C236.271 222 236.28 222 236.29 222C236.3 222 236.31 222 236.319 222C236.329 222 236.339 222 236.348 222C236.358 222 236.367 222 236.376 222C236.386 222 236.395 222 236.404 222C236.413 222 236.423 222 236.432 222C236.441 222 236.45 222 236.458 222C236.467 222 236.476 222 236.485 222C236.494 222 236.502 222 236.511 222C236.519 222 236.528 222 236.536 222C236.545 222 236.553 222 236.561 222C236.569 222 236.578 222 236.586 222C236.594 222 236.602 222 236.61 222C236.618 222 236.626 222 236.634 222C236.641 222 236.649 222 236.657 222C236.664 222 236.672 222 236.679 222C236.687 222 236.694 222 236.702 222C236.709 222 236.716 222 236.724 222C236.731 222 236.738 222 236.745 222C236.752 222 236.759 222 236.766 222C236.773 222 236.78 222 236.787 222C236.793 222 236.8 222 236.807 222C236.813 222 236.82 222 236.826 222C236.833 222 236.839 222 236.846 222C236.852 222 236.858 222 236.865 222C236.871 222 236.877 222 236.883 222C236.889 222 236.895 222 236.901 222C236.907 222 236.913 222 236.919 222C236.924 222 236.93 222 236.936 222C236.941 222 236.947 222 236.952 222C236.958 222 236.963 222 236.969 222C236.974 222 236.979 222 236.985 222C236.99 222 236.995 222 237 222C237.005 222 237.01 222 237.015 222C237.02 222 237.025 222 237.03 222C237.035 222 237.04 222 237.044 222C237.049 222 237.054 222 237.058 222C237.063 222 237.067 222 237.072 222C237.076 222 237.08 222 237.085 222C237.089 222 237.093 222 237.097 222C237.102 222 237.106 222 237.11 222C237.114 222 237.118 222 237.122 222C237.125 222 237.129 222 237.133 222C237.137 222 237.141 222 237.144 222C237.148 222 237.151 222 237.155 222C237.158 222 237.162 222 237.165 222C237.169 222 237.172 222 237.175 222C237.179 222 237.182 222 237.185 222C237.188 222 237.191 222 237.194 222C237.197 222 237.2 222 237.203 222C237.206 222 237.209 222 237.211 222C237.214 222 237.217 222 237.22 222C237.222 222 237.225 222 237.227 222C237.23 222 237.232 222 237.235 222C237.237 222 237.239 222 237.242 222C237.244 222 237.246 222 237.248 222C237.251 222 237.253 222 237.255 222C237.257 222 237.259 222 237.261 222C237.263 222 237.264 222 237.266 222C237.268 222 237.27 222 237.272 222C237.273 222 237.275 222 237.276 222C237.278 222 237.279 222 237.281 222C237.282 222 237.284 222 237.285 222C237.286 222 237.288 222 237.289 222C237.29 222 237.291 222 237.293 222C237.294 222 237.295 222 237.296 222C237.297 222 237.298 222 237.299 222C237.299 222 237.3 222 237.301 222C237.302 222 237.303 222 237.303 222C237.304 222 237.305 222 237.305 222C237.306 222 237.306 222 237.307 222C237.307 222 237.307 222 237.308 222C237.308 222 237.308 222 237.309 222C237.309 222 237.309 222 237.309 222C237.309 222 237.309 222 237.309 222C237.309 220.5 237.309 219 237.309 219C237.309 219 237.309 219 237.309 219C237.309 219 237.308 219 237.308 219C237.308 219 237.308 219 237.307 219C237.307 219 237.306 219 237.306 219C237.305 219 237.305 219 237.304 219C237.304 219 237.303 219 237.302 219C237.301 219 237.301 219 237.3 219C237.299 219 237.298 219 237.297 219C237.296 219 237.295 219 237.294 219C237.293 219 237.292 219 237.291 219C237.29 219 237.289 219 237.288 219C237.287 219 237.285 219 237.284 219C237.283 219 237.282 219 237.28 219C237.279 219 237.277 219 237.276 219C237.274 219 237.273 219 237.271 219C237.27 219 237.268 219 237.266 219C237.265 219 237.263 219 237.261 219C237.259 219 237.258 219 237.256 219C237.254 219 237.252 219 237.25 219C237.248 219 237.246 219 237.244 219C237.242 219 237.24 219 237.238 219C237.236 219 237.233 219 237.231 219C237.229 219 237.227 219 237.224 219C237.222 219 237.22 219 237.217 219C237.215 219 237.212 219 237.21 219C237.207 219 237.205 219 237.202 219C237.2 219 237.197 219 237.195 219C237.192 219 237.189 219 237.186 219C237.184 219 237.181 219 237.178 219C237.175 219 237.172 219 237.169 219C237.166 219 237.164 219 237.161 219C237.158 219 237.154 219 237.151 219C237.148 219 237.145 219 237.142 219C237.139 219 237.136 219 237.132 219C237.129 219 237.126 219 237.123 219C237.119 219 237.116 219 237.112 219C237.109 219 237.106 219 237.102 219C237.099 219 237.095 219 237.092 219C237.088 219 237.084 219 237.081 219C237.077 219 237.073 219 237.07 219C237.066 219 237.062 219 237.058 219C237.055 219 237.051 219 237.047 219C237.043 219 237.039 219 237.035 219C237.031 219 237.027 219 237.023 219C237.019 219 237.015 219 237.011 219C237.007 219 237.003 219 236.999 219C236.995 219 236.99 219 236.986 219C236.982 219 236.978 219 236.973 219C236.969 219 236.965 219 236.96 219C236.956 219 236.951 219 236.947 219C236.943 219 236.938 219 236.934 219C236.929 219 236.925 219 236.92 219C236.915 219 236.911 219 236.906 219C236.901 219 236.897 219 236.892 219C236.887 219 236.883 219 236.878 219C236.873 219 236.868 219 236.863 219C236.858 219 236.854 219 236.849 219C236.844 219 236.839 219 236.834 219C236.829 219 236.824 219 236.819 219C236.814 219 236.809 219 236.804 219C236.798 219 236.793 219 236.788 219C236.783 219 236.778 219 236.773 219C236.767 219 236.762 219 236.757 219C236.751 219 236.746 219 236.741 219C236.735 219 236.73 219 236.725 219C236.719 219 236.714 219 236.708 219C236.703 219 236.697 219 236.692 219C236.686 219 236.681 219 236.675 219C236.67 219 236.664 219 236.658 219C236.653 219 236.647 219 236.641 219C236.636 219 236.63 219 236.624 219C236.619 219 236.613 219 236.607 219C236.601 219 236.595 219 236.589 219C236.584 219 236.578 219 236.572 219C236.566 219 236.56 219 236.554 219C236.548 219 236.542 219 236.536 219C236.53 219 236.524 219 236.518 219C236.512 219 236.506 219 236.5 219C236.494 219 236.487 219 236.481 219C236.475 219 236.469 219 236.463 219C236.457 219 236.45 219 236.444 219C236.438 219 236.432 219 236.425 219C236.419 219 236.413 219 236.406 219C236.4 219 236.394 219 236.387 219C236.381 219 236.374 219 236.368 219C236.361 219 236.355 219 236.349 219C236.342 219 236.336 219 236.329 219C236.322 219 236.316 219 236.309 219C236.303 219 236.296 219 236.29 219C236.283 219 236.276 219 236.27 219C236.263 219 236.256 219 236.25 219C236.243 219 236.236 219 236.23 219C236.223 219 236.216 219 236.209 219C236.203 219 236.196 219 236.189 219C236.182 219 236.175 219 236.168 219C236.162 219 236.155 219 236.148 219C236.141 219 236.134 219 236.127 219C236.12 219 236.113 219 236.106 219C236.099 219 236.092 219 236.085 219C236.078 219 236.071 219 236.064 219C236.057 219 236.05 219 236.043 219C236.036 219 236.029 219 236.022 219C236.015 219 236.008 219 236.001 219C235.994 219 235.987 219 235.979 219C235.972 219 235.965 219 235.958 219C235.951 219 235.943 219 235.936 219C235.929 219 235.922 219 235.915 219C235.907 219 235.9 219 235.893 219C235.886 219 235.878 219 235.871 219C235.864 219 235.856 219 235.849 219C235.842 219 235.834 219 235.827 219C235.82 219 235.812 219 235.805 219C235.798 219 235.79 219 235.783 219C235.775 219 235.768 219 235.761 219C235.753 219 235.746 219 235.738 219C235.731 219 235.723 219 235.716 219C235.708 219 235.701 219 235.693 219C235.686 219 235.678 219 235.671 219C235.663 219 235.656 219 235.648 219C235.641 219 235.633 219 235.626 219C235.618 219 235.611 219 235.603 219C235.596 219 235.588 219 235.58 219C235.573 219 235.565 219 235.558 219C235.55 219 235.542 219 235.535 219C235.527 219 235.519 219 235.512 219C235.504 219 235.497 219 235.489 219C235.481 219 235.474 219 235.466 219C235.458 219 235.451 219 235.443 219C235.435 219 235.427 219 235.42 219C235.412 219 235.404 219 235.397 219C235.389 219 235.381 219 235.374 219C235.366 219 235.358 219 235.35 219C235.343 219 235.335 219 235.327 219C235.319 219 235.312 219 235.304 219C235.296 219 235.288 219 235.281 219C235.273 219 235.265 219 235.257 219C235.25 219 235.242 219 235.234 219C235.226 219 235.218 219 235.211 219C235.203 219 235.195 219 235.187 219C235.18 219 235.172 219 235.164 219C235.156 219 235.148 219 235.141 219C235.133 219 235.125 219 235.117 219C235.109 219 235.102 219 235.094 219C235.086 219 235.078 219 235.07 219C235.062 219 235.055 219 235.047 219C235.039 219 235.031 219 235.023 219C235.016 219 235.008 219 235 219C234.992 219 234.984 219 234.977 219C234.969 219 234.961 219 234.953 219C234.945 219 234.937 219 234.93 219C234.922 219 234.914 219 234.906 219C234.898 219 234.891 219 234.883 219C234.875 219 234.867 219 234.859 219C234.852 219 234.844 219 234.836 219C234.828 219 234.82 219 234.813 219C234.805 219 234.797 219 234.789 219C234.782 219 234.774 219 234.766 219C234.758 219 234.75 219 234.743 219C234.735 219 234.727 219 234.719 219C234.712 219 234.704 219 234.696 219C234.688 219 234.681 219 234.673 219C234.665 219 234.657 219 234.65 219C234.642 219 234.634 219 234.626 219C234.619 219 234.611 219 234.603 219C234.596 219 234.588 219 234.58 219C234.573 219 234.565 219 234.557 219C234.549 219 234.542 219 234.534 219C234.526 219 234.519 219 234.511 219C234.503 219 234.496 219 234.488 219C234.481 219 234.473 219 234.465 219C234.458 219 234.45 219 234.442 219C234.435 219 234.427 219 234.42 219C234.412 219 234.404 219 234.397 219C234.389 219 234.382 219 234.374 219C234.367 219 234.359 219 234.352 219C234.344 219 234.337 219 234.329 219C234.322 219 234.314 219 234.307 219C234.299 219 234.292 219 234.284 219C234.277 219 234.269 219 234.262 219C234.254 219 234.247 219 234.239 219C234.232 219 234.225 219 234.217 219C234.21 219 234.202 219 234.195 219C234.188 219 234.18 219 234.173 219C234.166 219 234.158 219 234.151 219C234.144 219 234.136 219 234.129 219C234.122 219 234.114 219 234.107 219C234.1 219 234.093 219 234.085 219C234.078 219 234.071 219 234.064 219C234.056 219 234.049 219 234.042 219C234.035 219 234.028 219 234.021 219C234.013 219 234.006 219 233.999 219C233.992 219 233.985 219 233.978 219C233.971 219 233.964 219 233.957 219C233.95 219 233.943 219 233.936 219C233.929 219 233.922 219 233.915 219C233.908 219 233.901 219 233.894 219C233.887 219 233.88 219 233.873 219C233.866 219 233.859 219 233.852 219C233.845 219 233.838 219 233.832 219C233.825 219 233.818 219 233.811 219C233.804 219 233.797 219 233.791 219C233.784 219 233.777 219 233.77 219C233.764 219 233.757 219 233.75 219C233.744 219 233.737 219 233.73 219C233.724 219 233.717 219 233.71 219C233.704 219 233.697 219 233.691 219C233.684 219 233.678 219 233.671 219C233.664 219 233.658 219 233.651 219C233.645 219 233.639 219 233.632 219C233.626 219 233.619 219 233.613 219C233.606 219 233.6 219 233.594 219C233.587 219 233.581 219 233.575 219C233.568 219 233.562 219 233.556 219C233.55 219 233.543 219 233.537 219C233.531 219 233.525 219 233.519 219C233.513 219 233.506 219 233.5 219C233.494 219 233.488 219 233.482 219C233.476 219 233.47 219 233.464 219C233.458 219 233.452 219 233.446 219C233.44 219 233.434 219 233.428 219C233.422 219 233.416 219 233.411 219C233.405 219 233.399 219 233.393 219C233.387 219 233.381 219 233.376 219C233.37 219 233.364 219 233.359 219C233.353 219 233.347 219 233.342 219C233.336 219 233.33 219 233.325 219C233.319 219 233.314 219 233.308 219C233.303 219 233.297 219 233.292 219C233.286 219 233.281 219 233.275 219C233.27 219 233.265 219 233.259 219C233.254 219 233.248 219 233.243 219C233.238 219 233.233 219 233.227 219C233.222 219 233.217 219 233.212 219C233.207 219 233.202 219 233.196 219C233.191 219 233.186 219 233.181 219C233.176 219 233.171 219 233.166 219C233.161 219 233.156 219 233.151 219C233.146 219 233.142 219 233.137 219C233.132 219 233.127 219 233.122 219C233.117 219 233.113 219 233.108 219C233.103 219 233.099 219 233.094 219C233.089 219 233.085 219 233.08 219C233.075 219 233.071 219 233.066 219C233.062 219 233.057 219 233.053 219C233.048 219 233.044 219 233.04 219C233.035 219 233.031 219 233.027 219C233.022 219 233.018 219 233.014 219C233.01 219 233.005 219 233.001 219C232.997 219 232.993 219 232.989 219C232.985 219 232.981 219 232.977 219C232.973 219 232.969 219 232.965 219C232.961 219 232.957 219 232.953 219C232.949 219 232.945 219 232.942 219C232.938 219 232.934 219 232.93 219C232.927 219 232.923 219 232.919 219C232.916 219 232.912 219 232.908 219C232.905 219 232.901 219 232.898 219C232.894 219 232.891 219 232.888 219C232.884 219 232.881 219 232.877 219C232.874 219 232.871 219 232.868 219C232.864 219 232.861 219 232.858 219C232.855 219 232.852 219 232.849 219C232.845 219 232.842 219 232.839 219C232.836 219 232.833 219 232.831 219C232.828 219 232.825 219 232.822 219C232.819 219 232.816 219 232.814 219C232.811 219 232.808 219 232.805 219C232.803 219 232.8 219 232.798 219C232.795 219 232.792 219 232.79 219C232.788 219 232.785 219 232.783 219C232.78 219 232.778 219 232.776 219C232.773 219 232.771 219 232.769 219C232.767 219 232.764 219 232.762 219C232.76 219 232.758 219 232.756 219C232.754 219 232.752 219 232.75 219C232.748 219 232.746 219 232.744 219C232.742 219 232.741 219 232.739 219C232.737 219 232.735 219 232.734 219C232.732 219 232.73 219 232.729 219C232.727 219 232.726 219 232.724 219C232.723 219 232.721 219 232.72 219C232.718 219 232.717 219 232.716 219C232.715 219 232.713 219 232.712 219C232.711 219 232.71 219 232.709 219C232.708 219 232.706 219 232.705 219C232.704 219 232.704 219 232.703 219C232.702 219 232.701 219 232.7 219C232.699 219 232.699 219 232.698 219C232.697 219 232.696 219 232.696 219C232.695 219 232.695 219 232.694 219C232.694 219 232.693 219 232.693 219C232.692 219 232.692 219 232.692 219C232.692 219 232.691 219 232.691 219C232.691 219 232.691 219 232.691 219C232.691 219 232.691 220.5 232.691 222C232.691 222 232.691 222 232.691 222C232.691 222 232.691 222 232.691 222C232.692 222 232.692 222 232.692 222C232.693 222 232.693 222 232.693 222C232.694 222 232.694 222 232.695 222C232.695 222 232.696 222 232.697 222C232.697 222 232.698 222 232.699 222C232.7 222 232.701 222 232.701 222C232.702 222 232.703 222 232.704 222C232.705 222 232.706 222 232.707 222C232.709 222 232.71 222 232.711 222C232.712 222 232.713 222 232.715 222C232.716 222 232.718 222 232.719 222C232.72 222 232.722 222 232.724 222C232.725 222 232.727 222 232.728 222C232.73 222 232.732 222 232.734 222C232.736 222 232.737 222 232.739 222C232.741 222 232.743 222 232.745 222C232.747 222 232.749 222 232.752 222C232.754 222 232.756 222 232.758 222C232.761 222 232.763 222 232.765 222C232.768 222 232.77 222 232.773 222C232.775 222 232.778 222 232.78 222C232.783 222 232.786 222 232.789 222C232.791 222 232.794 222 232.797 222C232.8 222 232.803 222 232.806 222C232.809 222 232.812 222 232.815 222C232.818 222 232.821 222 232.825 222C232.828 222 232.831 222 232.835 222C232.838 222 232.842 222 232.845 222C232.849 222 232.852 222 232.856 222C232.859 222 232.863 222 232.867 222C232.871 222 232.875 222 232.878 222C232.882 222 232.886 222 232.89 222C232.894 222 232.898 222 232.903 222C232.907 222 232.911 222 232.915 222C232.92 222 232.924 222 232.928 222C232.933 222 232.937 222 232.942 222C232.946 222 232.951 222 232.956 222C232.96 222 232.965 222 232.97 222C232.975 222 232.98 222 232.985 222C232.99 222 232.995 222 233 222C233.005 222 233.01 222 233.015 222C233.021 222 233.026 222 233.031 222C233.037 222 233.042 222 233.048 222C233.053 222 233.059 222 233.064 222C233.07 222 233.076 222 233.081 222C233.087 222 233.093 222 233.099 222C233.105 222 233.111 222 233.117 222C233.123 222 233.129 222 233.135 222C233.142 222 233.148 222 233.154 222C233.161 222 233.167 222 233.174 222C233.18 222 233.187 222 233.193 222C233.2 222 233.207 222 233.213 222C233.22 222 233.227 222 233.234 222C233.241 222 233.248 222 233.255 222C233.262 222 233.269 222 233.276 222C233.284 222 233.291 222 233.298 222C233.306 222 233.313 222 233.32 222C233.328 222 233.336 222 233.343 222C233.351 222 233.359 222 233.366 222C233.374 222 233.382 222 233.39 222C233.398 222 233.406 222 233.414 222C233.422 222 233.431 222 233.439 222C233.447 222 233.455 222 233.464 222C233.472 222 233.481 222 233.489 222C233.498 222 233.506 222 233.515 222C233.524 222 233.533 222 233.542 222C233.55 222 233.559 222 233.568 222C233.577 222 233.587 222 233.596 222C233.605 222 233.614 222 233.624 222C233.633 222 233.642 222 233.652 222C233.661 222 233.671 222 233.68 222C233.69 222 233.7 222 233.71 222C233.72 222 233.729 222 233.739 222C233.749 222 233.759 222 233.77 222C233.78 222 233.79 222 233.8 222C233.81 222 233.821 222 233.831 222C233.842 222 233.852 222 233.863 222C233.873 222 233.884 222 233.895 222C233.906 222 233.917 222 233.928 222C233.938 222 233.95 222 233.961 222C233.972 222 233.983 222 233.994 222C234.005 222 234.017 222 234.028 222C234.04 222 234.051 222 234.063 222C234.074 222 234.086 222 234.098 222C234.11 222 234.121 222 234.133 222C234.145 222 234.157 222 234.169 222C234.182 222 234.194 222 234.206 222C234.218 222 234.231 222 234.243 222C234.256 222 234.268 222 234.281 222C234.293 222 234.306 222 234.319 222C234.332 222 234.345 222 234.357 222C234.37 222 234.383 222 234.397 222C234.41 222 234.423 222 234.436 222C234.45 222 234.463 222 234.476 222C234.49 222 234.503 222 234.517 222C234.531 222 234.545 222 234.558 222C234.572 222 234.586 222 234.6 222C234.614 222 234.628 222 234.642 222C234.657 222 234.671 222 234.685 222C234.7 222 234.714 222 234.729 222C234.743 222 234.758 222 234.772 222C234.787 222 234.802 222 234.817 222C234.832 222 234.847 222 234.862 222C234.877 222 234.892 222 234.907 222C234.923 222 234.938 222 234.953 222C234.969 222 234.984 222 235 222L235 219C234.984 219 234.969 219 234.953 219C234.938 219 234.923 219 234.907 219C234.892 219 234.877 219 234.862 219C234.847 219 234.832 219 234.817 219C234.802 219 234.787 219 234.772 219C234.758 219 234.743 219 234.729 219C234.714 219 234.7 219 234.685 219C234.671 219 234.657 219 234.642 219C234.628 219 234.614 219 234.6 219C234.586 219 234.572 219 234.558 219C234.545 219 234.531 219 234.517 219C234.503 219 234.49 219 234.476 219C234.463 219 234.45 219 234.436 219C234.423 219 234.41 219 234.397 219C234.383 219 234.37 219 234.357 219C234.345 219 234.332 219 234.319 219C234.306 219 234.293 219 234.281 219C234.268 219 234.256 219 234.243 219C234.231 219 234.218 219 234.206 219C234.194 219 234.182 219 234.169 219C234.157 219 234.145 219 234.133 219C234.121 219 234.11 219 234.098 219C234.086 219 234.074 219 234.063 219C234.051 219 234.04 219 234.028 219C234.017 219 234.005 219 233.994 219C233.983 219 233.972 219 233.961 219C233.95 219 233.938 219 233.928 219C233.917 219 233.906 219 233.895 219C233.884 219 233.873 219 233.863 219C233.852 219 233.842 219 233.831 219C233.821 219 233.81 219 233.8 219C233.79 219 233.78 219 233.77 219C233.759 219 233.749 219 233.739 219C233.729 219 233.72 219 233.71 219C233.7 219 233.69 219 233.68 219C233.671 219 233.661 219 233.652 219C233.642 219 233.633 219 233.624 219C233.614 219 233.605 219 233.596 219C233.587 219 233.577 219 233.568 219C233.559 219 233.55 219 233.542 219C233.533 219 233.524 219 233.515 219C233.506 219 233.498 219 233.489 219C233.481 219 233.472 219 233.464 219C233.455 219 233.447 219 233.439 219C233.431 219 233.422 219 233.414 219C233.406 219 233.398 219 233.39 219C233.382 219 233.374 219 233.366 219C233.359 219 233.351 219 233.343 219C233.336 219 233.328 219 233.32 219C233.313 219 233.306 219 233.298 219C233.291 219 233.284 219 233.276 219C233.269 219 233.262 219 233.255 219C233.248 219 233.241 219 233.234 219C233.227 219 233.22 219 233.213 219C233.207 219 233.2 219 233.193 219C233.187 219 233.18 219 233.174 219C233.167 219 233.161 219 233.154 219C233.148 219 233.142 219 233.135 219C233.129 219 233.123 219 233.117 219C233.111 219 233.105 219 233.099 219C233.093 219 233.087 219 233.081 219C233.076 219 233.07 219 233.064 219C233.059 219 233.053 219 233.048 219C233.042 219 233.037 219 233.031 219C233.026 219 233.021 219 233.015 219C233.01 219 233.005 219 233 219C232.995 219 232.99 219 232.985 219C232.98 219 232.975 219 232.97 219C232.965 219 232.96 219 232.956 219C232.951 219 232.946 219 232.942 219C232.937 219 232.933 219 232.928 219C232.924 219 232.92 219 232.915 219C232.911 219 232.907 219 232.903 219C232.898 219 232.894 219 232.89 219C232.886 219 232.882 219 232.878 219C232.875 219 232.871 219 232.867 219C232.863 219 232.859 219 232.856 219C232.852 219 232.849 219 232.845 219C232.842 219 232.838 219 232.835 219C232.831 219 232.828 219 232.825 219C232.821 219 232.818 219 232.815 219C232.812 219 232.809 219 232.806 219C232.803 219 232.8 219 232.797 219C232.794 219 232.791 219 232.789 219C232.786 219 232.783 219 232.78 219C232.778 219 232.775 219 232.773 219C232.77 219 232.768 219 232.765 219C232.763 219 232.761 219 232.758 219C232.756 219 232.754 219 232.752 219C232.749 219 232.747 219 232.745 219C232.743 219 232.741 219 232.739 219C232.737 219 232.736 219 232.734 219C232.732 219 232.73 219 232.728 219C232.727 219 232.725 219 232.724 219C232.722 219 232.72 219 232.719 219C232.718 219 232.716 219 232.715 219C232.713 219 232.712 219 232.711 219C232.71 219 232.709 219 232.707 219C232.706 219 232.705 219 232.704 219C232.703 219 232.702 219 232.701 219C232.701 219 232.7 219 232.699 219C232.698 219 232.697 219 232.697 219C232.696 219 232.695 219 232.695 219C232.694 219 232.694 219 232.693 219C232.693 219 232.693 219 232.692 219C232.692 219 232.692 219 232.691 219C232.691 219 232.691 219 232.691 219C232.691 219 232.691 219 232.691 219C232.691 220.5 232.691 222 232.691 222C232.691 222 232.691 222 232.691 222C232.691 222 232.692 222 232.692 222C232.692 222 232.692 222 232.693 222C232.693 222 232.694 222 232.694 222C232.695 222 232.695 222 232.696 222C232.696 222 232.697 222 232.698 222C232.699 222 232.699 222 232.7 222C232.701 222 232.702 222 232.703 222C232.704 222 232.704 222 232.705 222C232.706 222 232.708 222 232.709 222C232.71 222 232.711 222 232.712 222C232.713 222 232.715 222 232.716 222C232.717 222 232.718 222 232.72 222C232.721 222 232.723 222 232.724 222C232.726 222 232.727 222 232.729 222C232.73 222 232.732 222 232.734 222C232.735 222 232.737 222 232.739 222C232.741 222 232.742 222 232.744 222C232.746 222 232.748 222 232.75 222C232.752 222 232.754 222 232.756 222C232.758 222 232.76 222 232.762 222C232.764 222 232.767 222 232.769 222C232.771 222 232.773 222 232.776 222C232.778 222 232.78 222 232.783 222C232.785 222 232.788 222 232.79 222C232.792 222 232.795 222 232.798 222C232.8 222 232.803 222 232.805 222C232.808 222 232.811 222 232.814 222C232.816 222 232.819 222 232.822 222C232.825 222 232.828 222 232.831 222C232.833 222 232.836 222 232.839 222C232.842 222 232.845 222 232.849 222C232.852 222 232.855 222 232.858 222C232.861 222 232.864 222 232.868 222C232.871 222 232.874 222 232.877 222C232.881 222 232.884 222 232.888 222C232.891 222 232.894 222 232.898 222C232.901 222 232.905 222 232.908 222C232.912 222 232.916 222 232.919 222C232.923 222 232.927 222 232.93 222C232.934 222 232.938 222 232.942 222C232.945 222 232.949 222 232.953 222C232.957 222 232.961 222 232.965 222C232.969 222 232.973 222 232.977 222C232.981 222 232.985 222 232.989 222C232.993 222 232.997 222 233.001 222C233.005 222 233.01 222 233.014 222C233.018 222 233.022 222 233.027 222C233.031 222 233.035 222 233.04 222C233.044 222 233.048 222 233.053 222C233.057 222 233.062 222 233.066 222C233.071 222 233.075 222 233.08 222C233.085 222 233.089 222 233.094 222C233.099 222 233.103 222 233.108 222C233.113 222 233.117 222 233.122 222C233.127 222 233.132 222 233.137 222C233.142 222 233.146 222 233.151 222C233.156 222 233.161 222 233.166 222C233.171 222 233.176 222 233.181 222C233.186 222 233.191 222 233.196 222C233.202 222 233.207 222 233.212 222C233.217 222 233.222 222 233.227 222C233.233 222 233.238 222 233.243 222C233.248 222 233.254 222 233.259 222C233.265 222 233.27 222 233.275 222C233.281 222 233.286 222 233.292 222C233.297 222 233.303 222 233.308 222C233.314 222 233.319 222 233.325 222C233.33 222 233.336 222 233.342 222C233.347 222 233.353 222 233.359 222C233.364 222 233.37 222 233.376 222C233.381 222 233.387 222 233.393 222C233.399 222 233.405 222 233.411 222C233.416 222 233.422 222 233.428 222C233.434 222 233.44 222 233.446 222C233.452 222 233.458 222 233.464 222C233.47 222 233.476 222 233.482 222C233.488 222 233.494 222 233.5 222C233.506 222 233.513 222 233.519 222C233.525 222 233.531 222 233.537 222C233.543 222 233.55 222 233.556 222C233.562 222 233.568 222 233.575 222C233.581 222 233.587 222 233.594 222C233.6 222 233.606 222 233.613 222C233.619 222 233.626 222 233.632 222C233.639 222 233.645 222 233.651 222C233.658 222 233.664 222 233.671 222C233.678 222 233.684 222 233.691 222C233.697 222 233.704 222 233.71 222C233.717 222 233.724 222 233.73 222C233.737 222 233.744 222 233.75 222C233.757 222 233.764 222 233.77 222C233.777 222 233.784 222 233.791 222C233.797 222 233.804 222 233.811 222C233.818 222 233.825 222 233.832 222C233.838 222 233.845 222 233.852 222C233.859 222 233.866 222 233.873 222C233.88 222 233.887 222 233.894 222C233.901 222 233.908 222 233.915 222C233.922 222 233.929 222 233.936 222C233.943 222 233.95 222 233.957 222C233.964 222 233.971 222 233.978 222C233.985 222 233.992 222 233.999 222C234.006 222 234.013 222 234.021 222C234.028 222 234.035 222 234.042 222C234.049 222 234.056 222 234.064 222C234.071 222 234.078 222 234.085 222C234.093 222 234.1 222 234.107 222C234.114 222 234.122 222 234.129 222C234.136 222 234.144 222 234.151 222C234.158 222 234.166 222 234.173 222C234.18 222 234.188 222 234.195 222C234.202 222 234.21 222 234.217 222C234.225 222 234.232 222 234.239 222C234.247 222 234.254 222 234.262 222C234.269 222 234.277 222 234.284 222C234.292 222 234.299 222 234.307 222C234.314 222 234.322 222 234.329 222C234.337 222 234.344 222 234.352 222C234.359 222 234.367 222 234.374 222C234.382 222 234.389 222 234.397 222C234.404 222 234.412 222 234.42 222C234.427 222 234.435 222 234.442 222C234.45 222 234.458 222 234.465 222C234.473 222 234.481 222 234.488 222C234.496 222 234.503 222 234.511 222C234.519 222 234.526 222 234.534 222C234.542 222 234.549 222 234.557 222C234.565 222 234.573 222 234.58 222C234.588 222 234.596 222 234.603 222C234.611 222 234.619 222 234.626 222C234.634 222 234.642 222 234.65 222C234.657 222 234.665 222 234.673 222C234.681 222 234.688 222 234.696 222C234.704 222 234.712 222 234.719 222C234.727 222 234.735 222 234.743 222C234.75 222 234.758 222 234.766 222C234.774 222 234.782 222 234.789 222C234.797 222 234.805 222 234.813 222C234.82 222 234.828 222 234.836 222C234.844 222 234.852 222 234.859 222C234.867 222 234.875 222 234.883 222C234.891 222 234.898 222 234.906 222C234.914 222 234.922 222 234.93 222C234.937 222 234.945 222 234.953 222C234.961 222 234.969 222 234.977 222C234.984 222 234.992 222 235 222C235.008 222 235.016 222 235.023 222C235.031 222 235.039 222 235.047 222C235.055 222 235.062 222 235.07 222C235.078 222 235.086 222 235.094 222C235.102 222 235.109 222 235.117 222C235.125 222 235.133 222 235.141 222C235.148 222 235.156 222 235.164 222C235.172 222 235.18 222 235.187 222C235.195 222 235.203 222 235.211 222C235.218 222 235.226 222 235.234 222C235.242 222 235.25 222 235.257 222C235.265 222 235.273 222 235.281 222C235.288 222 235.296 222 235.304 222C235.312 222 235.319 222 235.327 222C235.335 222 235.343 222 235.35 222C235.358 222 235.366 222 235.374 222C235.381 222 235.389 222 235.397 222C235.404 222 235.412 222 235.42 222C235.427 222 235.435 222 235.443 222C235.451 222 235.458 222 235.466 222C235.474 222 235.481 222 235.489 222C235.497 222 235.504 222 235.512 222C235.519 222 235.527 222 235.535 222C235.542 222 235.55 222 235.558 222C235.565 222 235.573 222 235.58 222C235.588 222 235.596 222 235.603 222C235.611 222 235.618 222 235.626 222C235.633 222 235.641 222 235.648 222C235.656 222 235.663 222 235.671 222C235.678 222 235.686 222 235.693 222C235.701 222 235.708 222 235.716 222C235.723 222 235.731 222 235.738 222C235.746 222 235.753 222 235.761 222C235.768 222 235.775 222 235.783 222C235.79 222 235.798 222 235.805 222C235.812 222 235.82 222 235.827 222C235.834 222 235.842 222 235.849 222C235.856 222 235.864 222 235.871 222C235.878 222 235.886 222 235.893 222C235.9 222 235.907 222 235.915 222C235.922 222 235.929 222 235.936 222C235.943 222 235.951 222 235.958 222C235.965 222 235.972 222 235.979 222C235.987 222 235.994 222 236.001 222C236.008 222 236.015 222 236.022 222C236.029 222 236.036 222 236.043 222C236.05 222 236.057 222 236.064 222C236.071 222 236.078 222 236.085 222C236.092 222 236.099 222 236.106 222C236.113 222 236.12 222 236.127 222C236.134 222 236.141 222 236.148 222C236.155 222 236.162 222 236.168 222C236.175 222 236.182 222 236.189 222C236.196 222 236.203 222 236.209 222C236.216 222 236.223 222 236.23 222C236.236 222 236.243 222 236.25 222C236.256 222 236.263 222 236.27 222C236.276 222 236.283 222 236.29 222C236.296 222 236.303 222 236.309 222C236.316 222 236.322 222 236.329 222C236.336 222 236.342 222 236.349 222C236.355 222 236.361 222 236.368 222C236.374 222 236.381 222 236.387 222C236.394 222 236.4 222 236.406 222C236.413 222 236.419 222 236.425 222C236.432 222 236.438 222 236.444 222C236.45 222 236.457 222 236.463 222C236.469 222 236.475 222 236.481 222C236.487 222 236.494 222 236.5 222C236.506 222 236.512 222 236.518 222C236.524 222 236.53 222 236.536 222C236.542 222 236.548 222 236.554 222C236.56 222 236.566 222 236.572 222C236.578 222 236.584 222 236.589 222C236.595 222 236.601 222 236.607 222C236.613 222 236.619 222 236.624 222C236.63 222 236.636 222 236.641 222C236.647 222 236.653 222 236.658 222C236.664 222 236.67 222 236.675 222C236.681 222 236.686 222 236.692 222C236.697 222 236.703 222 236.708 222C236.714 222 236.719 222 236.725 222C236.73 222 236.735 222 236.741 222C236.746 222 236.751 222 236.757 222C236.762 222 236.767 222 236.773 222C236.778 222 236.783 222 236.788 222C236.793 222 236.798 222 236.804 222C236.809 222 236.814 222 236.819 222C236.824 222 236.829 222 236.834 222C236.839 222 236.844 222 236.849 222C236.854 222 236.858 222 236.863 222C236.868 222 236.873 222 236.878 222C236.883 222 236.887 222 236.892 222C236.897 222 236.901 222 236.906 222C236.911 222 236.915 222 236.92 222C236.925 222 236.929 222 236.934 222C236.938 222 236.943 222 236.947 222C236.951 222 236.956 222 236.96 222C236.965 222 236.969 222 236.973 222C236.978 222 236.982 222 236.986 222C236.99 222 236.995 222 236.999 222C237.003 222 237.007 222 237.011 222C237.015 222 237.019 222 237.023 222C237.027 222 237.031 222 237.035 222C237.039 222 237.043 222 237.047 222C237.051 222 237.055 222 237.058 222C237.062 222 237.066 222 237.07 222C237.073 222 237.077 222 237.081 222C237.084 222 237.088 222 237.092 222C237.095 222 237.099 222 237.102 222C237.106 222 237.109 222 237.112 222C237.116 222 237.119 222 237.123 222C237.126 222 237.129 222 237.132 222C237.136 222 237.139 222 237.142 222C237.145 222 237.148 222 237.151 222C237.154 222 237.158 222 237.161 222C237.164 222 237.166 222 237.169 222C237.172 222 237.175 222 237.178 222C237.181 222 237.184 222 237.186 222C237.189 222 237.192 222 237.195 222C237.197 222 237.2 222 237.202 222C237.205 222 237.207 222 237.21 222C237.212 222 237.215 222 237.217 222C237.22 222 237.222 222 237.224 222C237.227 222 237.229 222 237.231 222C237.233 222 237.236 222 237.238 222C237.24 222 237.242 222 237.244 222C237.246 222 237.248 222 237.25 222C237.252 222 237.254 222 237.256 222C237.258 222 237.259 222 237.261 222C237.263 222 237.265 222 237.266 222C237.268 222 237.27 222 237.271 222C237.273 222 237.274 222 237.276 222C237.277 222 237.279 222 237.28 222C237.282 222 237.283 222 237.284 222C237.285 222 237.287 222 237.288 222C237.289 222 237.29 222 237.291 222C237.292 222 237.293 222 237.294 222C237.295 222 237.296 222 237.297 222C237.298 222 237.299 222 237.3 222C237.301 222 237.301 222 237.302 222C237.303 222 237.304 222 237.304 222C237.305 222 237.305 222 237.306 222C237.306 222 237.307 222 237.307 222C237.308 222 237.308 222 237.308 222C237.308 222 237.309 222 237.309 222C237.309 222 237.309 222 237.309 222C237.309 222 237.309 220.5 237.309 219C237.309 219 237.309 219 237.309 219C237.309 219 237.309 219 237.309 219C237.308 219 237.308 219 237.308 219C237.307 219 237.307 219 237.307 219C237.306 219 237.306 219 237.305 219C237.304 219 237.304 219 237.303 219C237.303 219 237.302 219 237.301 219C237.3 219 237.299 219 237.299 219C237.298 219 237.297 219 237.296 219C237.295 219 237.294 219 237.293 219C237.291 219 237.29 219 237.289 219C237.288 219 237.286 219 237.285 219C237.284 219 237.282 219 237.281 219C237.279 219 237.278 219 237.276 219C237.275 219 237.273 219 237.272 219C237.27 219 237.268 219 237.266 219C237.264 219 237.263 219 237.261 219C237.259 219 237.257 219 237.255 219C237.253 219 237.251 219 237.248 219C237.246 219 237.244 219 237.242 219C237.239 219 237.237 219 237.235 219C237.232 219 237.23 219 237.227 219C237.225 219 237.222 219 237.22 219C237.217 219 237.214 219 237.211 219C237.209 219 237.206 219 237.203 219C237.2 219 237.197 219 237.194 219C237.191 219 237.188 219 237.185 219C237.182 219 237.179 219 237.175 219C237.172 219 237.169 219 237.165 219C237.162 219 237.158 219 237.155 219C237.151 219 237.148 219 237.144 219C237.141 219 237.137 219 237.133 219C237.129 219 237.125 219 237.122 219C237.118 219 237.114 219 237.11 219C237.106 219 237.102 219 237.097 219C237.093 219 237.089 219 237.085 219C237.08 219 237.076 219 237.072 219C237.067 219 237.063 219 237.058 219C237.054 219 237.049 219 237.044 219C237.04 219 237.035 219 237.03 219C237.025 219 237.02 219 237.015 219C237.01 219 237.005 219 237 219C236.995 219 236.99 219 236.985 219C236.979 219 236.974 219 236.969 219C236.963 219 236.958 219 236.952 219C236.947 219 236.941 219 236.936 219C236.93 219 236.924 219 236.919 219C236.913 219 236.907 219 236.901 219C236.895 219 236.889 219 236.883 219C236.877 219 236.871 219 236.865 219C236.858 219 236.852 219 236.846 219C236.839 219 236.833 219 236.826 219C236.82 219 236.813 219 236.807 219C236.8 219 236.793 219 236.787 219C236.78 219 236.773 219 236.766 219C236.759 219 236.752 219 236.745 219C236.738 219 236.731 219 236.724 219C236.716 219 236.709 219 236.702 219C236.694 219 236.687 219 236.679 219C236.672 219 236.664 219 236.657 219C236.649 219 236.641 219 236.634 219C236.626 219 236.618 219 236.61 219C236.602 219 236.594 219 236.586 219C236.578 219 236.569 219 236.561 219C236.553 219 236.545 219 236.536 219C236.528 219 236.519 219 236.511 219C236.502 219 236.494 219 236.485 219C236.476 219 236.467 219 236.458 219C236.45 219 236.441 219 236.432 219C236.423 219 236.413 219 236.404 219C236.395 219 236.386 219 236.376 219C236.367 219 236.358 219 236.348 219C236.339 219 236.329 219 236.319 219C236.31 219 236.3 219 236.29 219C236.28 219 236.271 219 236.261 219C236.251 219 236.241 219 236.23 219C236.22 219 236.21 219 236.2 219C236.19 219 236.179 219 236.169 219C236.158 219 236.148 219 236.137 219C236.126 219 236.116 219 236.105 219C236.094 219 236.083 219 236.072 219C236.061 219 236.05 219 236.039 219C236.028 219 236.017 219 236.006 219C235.995 219 235.983 219 235.972 219C235.96 219 235.949 219 235.937 219C235.926 219 235.914 219 235.902 219C235.89 219 235.878 219 235.867 219C235.855 219 235.843 219 235.83 219C235.818 219 235.806 219 235.794 219C235.782 219 235.769 219 235.757 219C235.744 219 235.732 219 235.719 219C235.707 219 235.694 219 235.681 219C235.668 219 235.655 219 235.643 219C235.63 219 235.617 219 235.603 219C235.59 219 235.577 219 235.564 219C235.55 219 235.537 219 235.524 219C235.51 219 235.497 219 235.483 219C235.469 219 235.455 219 235.442 219C235.428 219 235.414 219 235.4 219C235.386 219 235.372 219 235.358 219C235.343 219 235.329 219 235.315 219C235.3 219 235.286 219 235.271 219C235.257 219 235.242 219 235.228 219C235.213 219 235.198 219 235.183 219C235.168 219 235.153 219 235.138 219C235.123 219 235.108 219 235.093 219C235.077 219 235.062 219 235.047 219C235.031 219 235.016 219 235 219L235 222ZM247 230.5C247 230.52 247 230.539 247 230.559C247 230.579 247 230.598 247 230.618C247 230.638 247 230.658 247 230.679C247 230.699 247 230.719 247 230.739C247 230.76 247 230.78 247 230.801C247 230.821 247 230.842 247 230.863C247 230.884 247 230.904 247 230.925C247 230.946 247 230.967 247 230.989C247 231.01 247 231.031 247 231.052C247 231.074 247 231.095 247 231.117C247 231.139 247 231.16 247 231.182C247 231.204 247 231.226 247 231.248C247 231.27 247 231.292 247 231.314C247 231.336 247 231.358 247 231.381C247 231.403 247 231.426 247 231.448C247 231.471 247 231.493 247 231.516C247 231.539 247 231.562 247 231.585C247 231.608 247 231.631 247 231.654C247 231.677 247 231.7 247 231.724C247 231.747 247 231.77 247 231.794C247 231.817 247 231.841 247 231.865C247 231.888 247 231.912 247 231.936C247 231.96 247 231.984 247 232.008C247 232.032 247 232.057 247 232.081C247 232.105 247 232.129 247 232.154C247 232.178 247 232.203 247 232.228C247 232.252 247 232.277 247 232.302C247 232.327 247 232.352 247 232.377C247 232.402 247 232.427 247 232.452C247 232.477 247 232.503 247 232.528C247 232.553 247 232.579 247 232.604C247 232.63 247 232.656 247 232.681C247 232.707 247 232.733 247 232.759C247 232.785 247 232.811 247 232.837C247 232.863 247 232.889 247 232.916C247 232.942 247 232.968 247 232.995C247 233.021 247 233.048 247 233.074C247 233.101 247 233.128 247 233.154C247 233.181 247 233.208 247 233.235C247 233.262 247 233.289 247 233.316C247 233.343 247 233.371 247 233.398C247 233.425 247 233.453 247 233.48C247 233.508 247 233.535 247 233.563C247 233.591 247 233.618 247 233.646C247 233.674 247 233.702 247 233.73C247 233.758 247 233.786 247 233.814C247 233.842 247 233.871 247 233.899C247 233.927 247 233.956 247 233.984C247 234.013 247 234.041 247 234.07C247 234.098 247 234.127 247 234.156C247 234.185 247 234.214 247 234.243C247 234.272 247 234.301 247 234.33C247 234.359 247 234.388 247 234.417C247 234.447 247 234.476 247 234.506C247 234.535 247 234.564 247 234.594C247 234.624 247 234.653 247 234.683C247 234.713 247 234.743 247 234.773C247 234.803 247 234.833 247 234.863C247 234.893 247 234.923 247 234.953C247 234.983 247 235.014 247 235.044C247 235.074 247 235.105 247 235.135C247 235.166 247 235.196 247 235.227C247 235.258 247 235.289 247 235.319C247 235.35 247 235.381 247 235.412C247 235.443 247 235.474 247 235.505C247 235.536 247 235.568 247 235.599C247 235.63 247 235.661 247 235.693C247 235.724 247 235.756 247 235.787C247 235.819 247 235.851 247 235.882C247 235.914 247 235.946 247 235.978C247 236.009 247 236.041 247 236.073C247 236.105 247 236.137 247 236.169C247 236.202 247 236.234 247 236.266C247 236.298 247 236.331 247 236.363C247 236.395 247 236.428 247 236.46C247 236.493 247 236.526 247 236.558C247 236.591 247 236.624 247 236.657C247 236.689 247 236.722 247 236.755C247 236.788 247 236.821 247 236.854C247 236.887 247 236.92 247 236.954C247 236.987 247 237.02 247 237.054C247 237.087 247 237.12 247 237.154C247 237.187 247 237.221 247 237.254C247 237.288 247 237.322 247 237.355C247 237.389 247 237.423 247 237.457C247 237.491 247 237.525 247 237.559C247 237.593 247 237.627 247 237.661C247 237.695 247 237.729 247 237.763C247 237.798 247 237.832 247 237.866C247 237.901 247 237.935 247 237.97C247 238.004 247 238.039 247 238.073C247 238.108 247 238.143 247 238.177C247 238.212 247 238.247 247 238.282C247 238.316 247 238.351 247 238.386C247 238.421 247 238.456 247 238.491C247 238.527 247 238.562 247 238.597C247 238.632 247 238.667 247 238.703C247 238.738 247 238.773 247 238.809C247 238.844 247 238.88 247 238.915C247 238.951 247 238.987 247 239.022C247 239.058 247 239.094 247 239.129C247 239.165 247 239.201 247 239.237C247 239.273 247 239.309 247 239.345C247 239.381 247 239.417 247 239.453C247 239.489 247 239.525 247 239.561C247 239.598 247 239.634 247 239.67C247 239.707 247 239.743 247 239.779C247 239.816 247 239.852 247 239.889C247 239.925 247 239.962 247 239.999C247 240.035 247 240.072 247 240.109C247 240.145 247 240.182 247 240.219C247 240.256 247 240.293 247 240.33C247 240.367 247 240.404 247 240.441C247 240.478 247 240.515 247 240.552C247 240.589 247 240.627 247 240.664C247 240.701 247 240.738 247 240.776C247 240.813 247 240.85 247 240.888C247 240.925 247 240.963 247 241C247 241.038 247 241.076 247 241.113C247 241.151 247 241.189 247 241.226C247 241.264 247 241.302 247 241.34C247 241.377 247 241.415 247 241.453C247 241.491 247 241.529 247 241.567C247 241.605 247 241.643 247 241.681C247 241.719 247 241.758 247 241.796C247 241.834 247 241.872 247 241.91C247 241.949 247 241.987 247 242.025C247 242.064 247 242.102 247 242.141C247 242.179 247 242.218 247 242.256C247 242.295 247 242.333 247 242.372C247 242.41 247 242.449 247 242.488C247 242.527 247 242.565 247 242.604C247 242.643 247 242.682 247 242.721C247 242.759 247 242.798 247 242.837C247 242.876 247 242.915 247 242.954C247 242.993 247 243.032 247 243.071C247 243.111 247 243.15 247 243.189C247 243.228 247 243.267 247 243.307C247 243.346 247 243.385 247 243.424C247 243.464 247 243.503 247 243.543C247 243.582 247 243.621 247 243.661C247 243.7 247 243.74 247 243.78C247 243.819 247 243.859 247 243.898C247 243.938 247 243.978 247 244.017C247 244.057 247 244.097 247 244.137C247 244.176 247 244.216 247 244.256C247 244.296 247 244.336 247 244.376C247 244.415 247 244.455 247 244.495C247 244.535 247 244.575 247 244.615C247 244.655 247 244.696 247 244.736C247 244.776 247 244.816 247 244.856C247 244.896 247 244.936 247 244.977C247 245.017 247 245.057 247 245.097C247 245.138 247 245.178 247 245.218C247 245.259 247 245.299 247 245.34C247 245.38 247 245.42 247 245.461C247 245.501 247 245.542 247 245.582C247 245.623 247 245.664 247 245.704C247 245.745 247 245.785 247 245.826C247 245.867 247 245.907 247 245.948C247 245.989 247 246.029 247 246.07C247 246.111 247 246.152 247 246.193C247 246.233 247 246.274 247 246.315C247 246.356 247 246.397 247 246.438C247 246.479 247 246.52 247 246.561C247 246.602 247 246.642 247 246.684C247 246.725 247 246.766 247 246.807C247 246.848 247 246.889 247 246.93C247 246.971 247 247.012 247 247.053C247 247.094 247 247.136 247 247.177C247 247.218 247 247.259 247 247.3C247 247.342 247 247.383 247 247.424C247 247.466 247 247.507 247 247.548C247 247.59 247 247.631 247 247.672C247 247.714 247 247.755 247 247.796C247 247.838 247 247.879 247 247.921C247 247.962 247 248.004 247 248.045C247 248.087 247 248.128 247 248.17C247 248.211 247 248.253 247 248.294C247 248.336 247 248.378 247 248.419C247 248.461 247 248.502 247 248.544C247 248.586 247 248.627 247 248.669C247 248.711 247 248.752 247 248.794C247 248.836 247 248.878 247 248.919C247 248.961 247 249.003 247 249.045C247 249.086 247 249.128 247 249.17C247 249.212 247 249.254 247 249.295C247 249.337 247 249.379 247 249.421C247 249.463 247 249.505 247 249.547C247 249.588 247 249.63 247 249.672C247 249.714 247 249.756 247 249.798C247 249.84 247 249.882 247 249.924C247 249.966 247 250.008 247 250.05C247 250.092 247 250.134 247 250.176C247 250.218 247 250.26 247 250.302C247 250.344 247 250.386 247 250.428C247 250.47 247 250.512 247 250.554C247 250.596 247 250.638 247 250.68C247 250.722 247 250.765 247 250.807C247 250.849 247 250.891 247 250.933C247 250.975 247 251.017 247 251.059C247 251.101 247 251.144 247 251.186C247 251.228 247 251.27 247 251.312C247 251.354 247 251.397 247 251.439C247 251.481 247 251.523 247 251.565C247 251.608 247 251.65 247 251.692C247 251.734 247 251.776 247 251.819C247 251.861 247 251.903 247 251.945C247 251.987 247 252.03 247 252.072C247 252.114 247 252.156 247 252.199C247 252.241 247 252.283 247 252.325C247 252.367 247 252.41 247 252.452C247 252.494 247 252.536 247 252.579C247 252.621 247 252.663 247 252.705C247 252.748 247 252.79 247 252.832C247 252.874 247 252.917 247 252.959C247 253.001 247 253.043 247 253.086C247 253.128 247 253.17 247 253.213C247 253.255 247 253.297 247 253.339C247 253.382 247 253.424 247 253.466C247 253.508 247 253.551 247 253.593C247 253.635 247 253.677 247 253.719C247 253.762 247 253.804 247 253.846C247 253.888 247 253.931 247 253.973C247 254.015 247 254.057 247 254.1C247 254.142 247 254.184 247 254.226C247 254.268 247 254.311 247 254.353C247 254.395 247 254.437 247 254.479C247 254.522 247 254.564 247 254.606C247 254.648 247 254.69 247 254.733C247 254.775 247 254.817 247 254.859C247 254.901 247 254.943 247 254.985C247 255.028 247 255.07 247 255.112C247 255.154 247 255.196 247 255.238C247 255.28 247 255.322 247 255.365C247 255.407 247 255.449 247 255.491C247 255.533 247 255.575 247 255.617C247 255.659 247 255.701 247 255.743C247 255.785 247 255.827 247 255.869C247 255.911 247 255.953 247 255.995C247 256.037 247 256.079 247 256.121C247 256.163 247 256.205 247 256.247C247 256.289 247 256.331 247 256.373C247 256.415 247 256.457 247 256.498C247 256.54 247 256.582 247 256.624C247 256.666 247 256.708 247 256.75C247 256.791 247 256.833 247 256.875C247 256.917 247 256.959 247 257C247 257.042 247 257.084 247 257.126C247 257.168 247 257.209 247 257.251C247 257.293 247 257.334 247 257.376C247 257.418 247 257.459 247 257.501C247 257.543 247 257.584 247 257.626C247 257.668 247 257.709 247 257.751C247 257.792 247 257.834 247 257.875C247 257.917 247 257.958 247 258C247 258.042 247 258.083 247 258.124C247 258.166 247 258.207 247 258.249C247 258.29 247 258.332 247 258.373C247 258.414 247 258.456 247 258.497C247 258.538 247 258.58 247 258.621C247 258.662 247 258.704 247 258.745C247 258.786 247 258.827 247 258.869C247 258.91 247 258.951 247 258.992C247 259.033 247 259.074 247 259.116C247 259.157 247 259.198 247 259.239C247 259.28 247 259.321 247 259.362C247 259.403 247 259.444 247 259.485C247 259.526 247 259.567 247 259.608C247 259.649 247 259.69 247 259.731C247 259.771 247 259.812 247 259.853C247 259.894 247 259.935 247 259.976C247 260.016 247 260.057 247 260.098C247 260.138 247 260.179 247 260.22C247 260.261 247 260.301 247 260.342C247 260.382 247 260.423 247 260.463C247 260.504 247 260.545 247 260.585C247 260.626 247 260.666 247 260.706C247 260.747 247 260.787 247 260.828C247 260.868 247 260.908 247 260.949C247 260.989 247 261.029 247 261.069C247 261.11 247 261.15 247 261.19C247 261.23 247 261.27 247 261.311C247 261.351 247 261.391 247 261.431C247 261.471 247 261.511 247 261.551C247 261.591 247 261.631 247 261.671C247 261.711 247 261.751 247 261.79C247 261.83 247 261.87 247 261.91C247 261.95 247 261.989 247 262.029C247 262.069 247 262.109 247 262.148C247 262.188 247 262.227 247 262.267C247 262.307 247 262.346 247 262.386C247 262.425 247 262.465 247 262.504C247 262.543 247 262.583 247 262.622C247 262.662 247 262.701 247 262.74C247 262.779 247 262.819 247 262.858C247 262.897 247 262.936 247 262.975C247 263.015 247 263.054 247 263.093C247 263.132 247 263.171 247 263.21C247 263.249 247 263.288 247 263.326C247 263.365 247 263.404 247 263.443C247 263.482 247 263.521 247 263.559C247 263.598 247 263.637 247 263.675C247 263.714 247 263.753 247 263.791C247 263.83 247 263.868 247 263.907C247 263.945 247 263.984 247 264.022C247 264.06 247 264.099 247 264.137C247 264.175 247 264.214 247 264.252C247 264.29 247 264.328 247 264.366C247 264.404 247 264.442 247 264.481C247 264.519 247 264.557 247 264.594C247 264.632 247 264.67 247 264.708C247 264.746 247 264.784 247 264.822C247 264.859 247 264.897 247 264.935C247 264.972 247 265.01 247 265.048C247 265.085 247 265.123 247 265.16C247 265.198 247 265.235 247 265.272C247 265.31 247 265.347 247 265.384C247 265.422 247 265.459 247 265.496C247 265.533 247 265.57 247 265.607C247 265.644 247 265.682 247 265.719C247 265.755 247 265.792 247 265.829C247 265.866 247 265.903 247 265.94C247 265.977 247 266.013 247 266.05C247 266.087 247 266.123 247 266.16C247 266.196 247 266.233 247 266.269C247 266.306 247 266.342 247 266.379C247 266.415 247 266.451 247 266.487C247 266.524 247 266.56 247 266.596C247 266.632 247 266.668 247 266.704C247 266.74 247 266.776 247 266.812C247 266.848 247 266.884 247 266.92C247 266.956 247 266.991 247 267.027C247 267.063 247 267.098 247 267.134C247 267.17 247 267.205 247 267.241C247 267.276 247 267.311 247 267.347C247 267.382 247 267.417 247 267.453C247 267.488 247 267.523 247 267.558C247 267.593 247 267.628 247 267.663C247 267.698 247 267.733 247 267.768C247 267.803 247 267.838 247 267.873C247 267.907 247 267.942 247 267.977C247 268.011 247 268.046 247 268.081C247 268.115 247 268.149 247 268.184C247 268.218 247 268.253 247 268.287C247 268.321 247 268.355 247 268.39C247 268.424 247 268.458 247 268.492C247 268.526 247 268.56 247 268.594C247 268.628 247 268.661 247 268.695C247 268.729 247 268.763 247 268.796C247 268.83 247 268.863 247 268.897C247 268.93 247 268.964 247 268.997C247 269.031 247 269.064 247 269.097C247 269.13 247 269.164 247 269.197C247 269.23 247 269.263 247 269.296C247 269.329 247 269.362 247 269.395C247 269.428 247 269.46 247 269.493C247 269.526 247 269.558 247 269.591C247 269.624 247 269.656 247 269.688C247 269.721 247 269.753 247 269.786C247 269.818 247 269.85 247 269.882C247 269.914 247 269.946 247 269.979C247 270.011 247 270.042 247 270.074C247 270.106 247 270.138 247 270.17C247 270.202 247 270.233 247 270.265C247 270.296 247 270.328 247 270.359C247 270.391 247 270.422 247 270.453C247 270.485 247 270.516 247 270.547C247 270.578 247 270.609 247 270.64C247 270.671 247 270.702 247 270.733C247 270.764 247 270.795 247 270.826C247 270.856 247 270.887 247 270.917C247 270.948 247 270.979 247 271.009C247 271.039 247 271.07 247 271.1C247 271.13 247 271.16 247 271.19C247 271.221 247 271.251 247 271.281C247 271.311 247 271.34 247 271.37C247 271.4 247 271.43 247 271.459C247 271.489 247 271.519 247 271.548C247 271.578 247 271.607 247 271.636C247 271.666 247 271.695 247 271.724C247 271.753 247 271.782 247 271.811C247 271.84 247 271.869 247 271.898C247 271.927 247 271.956 247 271.984C247 272.013 247 272.042 247 272.07C247 272.099 247 272.127 247 272.156C247 272.184 247 272.212 247 272.24C247 272.269 247 272.297 247 272.325C247 272.353 247 272.381 247 272.409C247 272.436 247 272.464 247 272.492C247 272.52 247 272.547 247 272.575C247 272.602 247 272.63 247 272.657C247 272.684 247 272.712 247 272.739C247 272.766 247 272.793 247 272.82C247 272.847 247 272.874 247 272.901C247 272.928 247 272.955 247 272.981C247 273.008 247 273.034 247 273.061C247 273.087 247 273.114 247 273.14C247 273.167 247 273.193 247 273.219C247 273.245 247 273.271 247 273.297C247 273.323 247 273.349 247 273.375C247 273.401 247 273.426 247 273.452C247 273.477 247 273.503 247 273.528C247 273.554 247 273.579 247 273.604C247 273.63 247 273.655 247 273.68C247 273.705 247 273.73 247 273.755C247 273.78 247 273.805 247 273.829C247 273.854 247 273.879 247 273.903C247 273.928 247 273.952 247 273.976C247 274.001 247 274.025 247 274.049C247 274.073 247 274.097 247 274.121C247 274.145 247 274.169 247 274.193C247 274.217 247 274.24 247 274.264C247 274.287 247 274.311 247 274.334C247 274.358 247 274.381 247 274.404C247 274.427 247 274.45 247 274.473C247 274.496 247 274.519 247 274.542C247 274.565 247 274.588 247 274.61C247 274.633 247 274.655 247 274.678C247 274.7 247 274.723 247 274.745C247 274.767 247 274.789 247 274.811C247 274.833 247 274.855 247 274.877C247 274.899 247 274.92 247 274.942C247 274.964 247 274.985 247 275.007C247 275.028 247 275.049 247 275.071C247 275.092 247 275.113 247 275.134C247 275.155 247 275.176 247 275.197C247 275.218 247 275.238 247 275.259C247 275.28 247 275.3 247 275.32C247 275.341 247 275.361 247 275.381C247 275.402 247 275.422 247 275.442C247 275.462 247 275.482 247 275.501C247 275.521 247 275.541 247 275.56C247 275.58 247 275.599 247 275.619C247 275.638 247 275.657 247 275.677C247 275.696 247 275.715 247 275.734C247 275.753 247 275.772 247 275.79C247 275.809 247 275.828 247 275.846C247 275.865 247 275.883 247 275.901C247 275.92 247 275.938 247 275.956C247 275.974 247 275.992 247 276.01C247 276.028 247 276.046 247 276.063C247 276.081 247 276.098 247 276.116C247 276.133 247 276.151 247 276.168C247 276.185 247 276.202 247 276.219C247 276.236 247 276.253 247 276.27C247 276.287 247 276.303 247 276.32C247 276.336 247 276.353 247 276.369C247 276.385 247 276.402 247 276.418C247 276.434 247 276.45 247 276.466C247 276.482 247 276.497 247 276.513C247 276.529 247 276.544 247 276.56C247 276.575 247 276.59 247 276.606C247 276.621 247 276.636 247 276.651C247 276.666 247 276.681 247 276.695C247 276.71 247 276.725 247 276.739C247 276.754 247 276.768 247 276.782C247 276.797 247 276.811 247 276.825C247 276.839 247 276.853 247 276.867C247 276.88 247 276.894 247 276.908C247 276.921 247 276.935 247 276.948C247 276.961 247 276.975 247 276.988C247 277.001 247 277.014 247 277.027C247 277.039 247 277.052 247 277.065C247 277.077 247 277.09 247 277.102C247 277.115 247 277.127 247 277.139C247 277.151 247 277.163 247 277.175C247 277.187 247 277.199 247 277.21C247 277.222 247 277.234 247 277.245C247 277.256 247 277.268 247 277.279C247 277.29 247 277.301 247 277.312C247 277.323 247 277.334 247 277.344C247 277.355 247 277.366 247 277.376C247 277.386 247 277.397 247 277.407C247 277.417 247 277.427 247 277.437C247 277.447 247 277.457 247 277.466C247 277.476 247 277.486 247 277.495C247 277.504 247 277.514 247 277.523C247 277.532 247 277.541 247 277.55C247 277.559 247 277.568 247 277.576C247 277.585 247 277.594 247 277.602C247 277.61 247 277.619 247 277.627C247 277.635 247 277.643 247 277.651C247 277.659 247 277.667 247 277.674C247 277.682 247 277.689 247 277.697C247 277.704 247 277.711 247 277.718C247 277.726 247 277.732 247 277.739C247 277.746 247 277.753 247 277.76C247 277.766 247 277.773 247 277.779C247 277.785 247 277.791 247 277.797C247 277.804 247 277.809 247 277.815C247 277.821 247 277.827 247 277.832C247 277.838 247 277.843 247 277.848C247 277.854 247 277.859 247 277.864C247 277.869 247 277.874 247 277.878C247 277.883 247 277.888 247 277.892C247 277.897 247 277.901 247 277.905C247 277.909 247 277.913 247 277.917C247 277.921 247 277.925 247 277.929C247 277.932 247 277.936 247 277.939C247 277.942 247 277.946 247 277.949C247 277.952 247 277.955 247 277.958C247 277.96 247 277.963 247 277.966C247 277.968 247 277.971 247 277.973C247 277.975 247 277.977 247 277.979C247 277.981 247 277.983 247 277.985C247 277.986 247 277.988 247 277.989C247 277.991 247 277.992 247 277.993C247 277.994 247 277.995 247 277.996C247 277.997 247 277.998 247 277.998C247 277.999 247 277.999 247 278C247 278 247 278 248.5 278C250 278 250 278 250 278C250 277.999 250 277.999 250 277.998C250 277.998 250 277.997 250 277.996C250 277.995 250 277.994 250 277.993C250 277.992 250 277.991 250 277.989C250 277.988 250 277.986 250 277.985C250 277.983 250 277.981 250 277.979C250 277.977 250 277.975 250 277.973C250 277.971 250 277.968 250 277.966C250 277.963 250 277.96 250 277.958C250 277.955 250 277.952 250 277.949C250 277.946 250 277.942 250 277.939C250 277.936 250 277.932 250 277.929C250 277.925 250 277.921 250 277.917C250 277.913 250 277.909 250 277.905C250 277.901 250 277.897 250 277.892C250 277.888 250 277.883 250 277.878C250 277.874 250 277.869 250 277.864C250 277.859 250 277.854 250 277.848C250 277.843 250 277.838 250 277.832C250 277.827 250 277.821 250 277.815C250 277.809 250 277.804 250 277.797C250 277.791 250 277.785 250 277.779C250 277.773 250 277.766 250 277.76C250 277.753 250 277.746 250 277.739C250 277.732 250 277.726 250 277.718C250 277.711 250 277.704 250 277.697C250 277.689 250 277.682 250 277.674C250 277.667 250 277.659 250 277.651C250 277.643 250 277.635 250 277.627C250 277.619 250 277.61 250 277.602C250 277.594 250 277.585 250 277.576C250 277.568 250 277.559 250 277.55C250 277.541 250 277.532 250 277.523C250 277.514 250 277.504 250 277.495C250 277.486 250 277.476 250 277.466C250 277.457 250 277.447 250 277.437C250 277.427 250 277.417 250 277.407C250 277.397 250 277.386 250 277.376C250 277.366 250 277.355 250 277.344C250 277.334 250 277.323 250 277.312C250 277.301 250 277.29 250 277.279C250 277.268 250 277.256 250 277.245C250 277.234 250 277.222 250 277.21C250 277.199 250 277.187 250 277.175C250 277.163 250 277.151 250 277.139C250 277.127 250 277.115 250 277.102C250 277.09 250 277.077 250 277.065C250 277.052 250 277.039 250 277.027C250 277.014 250 277.001 250 276.988C250 276.975 250 276.961 250 276.948C250 276.935 250 276.921 250 276.908C250 276.894 250 276.88 250 276.867C250 276.853 250 276.839 250 276.825C250 276.811 250 276.797 250 276.782C250 276.768 250 276.754 250 276.739C250 276.725 250 276.71 250 276.695C250 276.681 250 276.666 250 276.651C250 276.636 250 276.621 250 276.606C250 276.59 250 276.575 250 276.56C250 276.544 250 276.529 250 276.513C250 276.497 250 276.482 250 276.466C250 276.45 250 276.434 250 276.418C250 276.402 250 276.385 250 276.369C250 276.353 250 276.336 250 276.32C250 276.303 250 276.287 250 276.27C250 276.253 250 276.236 250 276.219C250 276.202 250 276.185 250 276.168C250 276.151 250 276.133 250 276.116C250 276.098 250 276.081 250 276.063C250 276.046 250 276.028 250 276.01C250 275.992 250 275.974 250 275.956C250 275.938 250 275.92 250 275.901C250 275.883 250 275.865 250 275.846C250 275.828 250 275.809 250 275.79C250 275.772 250 275.753 250 275.734C250 275.715 250 275.696 250 275.677C250 275.657 250 275.638 250 275.619C250 275.599 250 275.58 250 275.56C250 275.541 250 275.521 250 275.501C250 275.482 250 275.462 250 275.442C250 275.422 250 275.402 250 275.381C250 275.361 250 275.341 250 275.32C250 275.3 250 275.28 250 275.259C250 275.238 250 275.218 250 275.197C250 275.176 250 275.155 250 275.134C250 275.113 250 275.092 250 275.071C250 275.049 250 275.028 250 275.007C250 274.985 250 274.964 250 274.942C250 274.92 250 274.899 250 274.877C250 274.855 250 274.833 250 274.811C250 274.789 250 274.767 250 274.745C250 274.723 250 274.7 250 274.678C250 274.655 250 274.633 250 274.61C250 274.588 250 274.565 250 274.542C250 274.519 250 274.496 250 274.473C250 274.45 250 274.427 250 274.404C250 274.381 250 274.358 250 274.334C250 274.311 250 274.287 250 274.264C250 274.24 250 274.217 250 274.193C250 274.169 250 274.145 250 274.121C250 274.097 250 274.073 250 274.049C250 274.025 250 274.001 250 273.976C250 273.952 250 273.928 250 273.903C250 273.879 250 273.854 250 273.829C250 273.805 250 273.78 250 273.755C250 273.73 250 273.705 250 273.68C250 273.655 250 273.63 250 273.604C250 273.579 250 273.554 250 273.528C250 273.503 250 273.477 250 273.452C250 273.426 250 273.401 250 273.375C250 273.349 250 273.323 250 273.297C250 273.271 250 273.245 250 273.219C250 273.193 250 273.167 250 273.14C250 273.114 250 273.087 250 273.061C250 273.034 250 273.008 250 272.981C250 272.955 250 272.928 250 272.901C250 272.874 250 272.847 250 272.82C250 272.793 250 272.766 250 272.739C250 272.712 250 272.684 250 272.657C250 272.63 250 272.602 250 272.575C250 272.547 250 272.52 250 272.492C250 272.464 250 272.436 250 272.409C250 272.381 250 272.353 250 272.325C250 272.297 250 272.269 250 272.24C250 272.212 250 272.184 250 272.156C250 272.127 250 272.099 250 272.07C250 272.042 250 272.013 250 271.984C250 271.956 250 271.927 250 271.898C250 271.869 250 271.84 250 271.811C250 271.782 250 271.753 250 271.724C250 271.695 250 271.666 250 271.636C250 271.607 250 271.578 250 271.548C250 271.519 250 271.489 250 271.459C250 271.43 250 271.4 250 271.37C250 271.34 250 271.311 250 271.281C250 271.251 250 271.221 250 271.19C250 271.16 250 271.13 250 271.1C250 271.07 250 271.039 250 271.009C250 270.979 250 270.948 250 270.917C250 270.887 250 270.856 250 270.826C250 270.795 250 270.764 250 270.733C250 270.702 250 270.671 250 270.64C250 270.609 250 270.578 250 270.547C250 270.516 250 270.485 250 270.453C250 270.422 250 270.391 250 270.359C250 270.328 250 270.296 250 270.265C250 270.233 250 270.202 250 270.17C250 270.138 250 270.106 250 270.074C250 270.042 250 270.011 250 269.979C250 269.946 250 269.914 250 269.882C250 269.85 250 269.818 250 269.786C250 269.753 250 269.721 250 269.688C250 269.656 250 269.624 250 269.591C250 269.558 250 269.526 250 269.493C250 269.46 250 269.428 250 269.395C250 269.362 250 269.329 250 269.296C250 269.263 250 269.23 250 269.197C250 269.164 250 269.13 250 269.097C250 269.064 250 269.031 250 268.997C250 268.964 250 268.93 250 268.897C250 268.863 250 268.83 250 268.796C250 268.763 250 268.729 250 268.695C250 268.661 250 268.628 250 268.594C250 268.56 250 268.526 250 268.492C250 268.458 250 268.424 250 268.39C250 268.355 250 268.321 250 268.287C250 268.253 250 268.218 250 268.184C250 268.149 250 268.115 250 268.081C250 268.046 250 268.011 250 267.977C250 267.942 250 267.907 250 267.873C250 267.838 250 267.803 250 267.768C250 267.733 250 267.698 250 267.663C250 267.628 250 267.593 250 267.558C250 267.523 250 267.488 250 267.453C250 267.417 250 267.382 250 267.347C250 267.311 250 267.276 250 267.241C250 267.205 250 267.17 250 267.134C250 267.098 250 267.063 250 267.027C250 266.991 250 266.956 250 266.92C250 266.884 250 266.848 250 266.812C250 266.776 250 266.74 250 266.704C250 266.668 250 266.632 250 266.596C250 266.56 250 266.524 250 266.487C250 266.451 250 266.415 250 266.379C250 266.342 250 266.306 250 266.269C250 266.233 250 266.196 250 266.16C250 266.123 250 266.087 250 266.05C250 266.013 250 265.977 250 265.94C250 265.903 250 265.866 250 265.829C250 265.792 250 265.755 250 265.719C250 265.682 250 265.644 250 265.607C250 265.57 250 265.533 250 265.496C250 265.459 250 265.422 250 265.384C250 265.347 250 265.31 250 265.272C250 265.235 250 265.198 250 265.16C250 265.123 250 265.085 250 265.048C250 265.01 250 264.972 250 264.935C250 264.897 250 264.859 250 264.822C250 264.784 250 264.746 250 264.708C250 264.67 250 264.632 250 264.594C250 264.557 250 264.519 250 264.481C250 264.442 250 264.404 250 264.366C250 264.328 250 264.29 250 264.252C250 264.214 250 264.175 250 264.137C250 264.099 250 264.06 250 264.022C250 263.984 250 263.945 250 263.907C250 263.868 250 263.83 250 263.791C250 263.753 250 263.714 250 263.675C250 263.637 250 263.598 250 263.559C250 263.521 250 263.482 250 263.443C250 263.404 250 263.365 250 263.326C250 263.288 250 263.249 250 263.21C250 263.171 250 263.132 250 263.093C250 263.054 250 263.015 250 262.975C250 262.936 250 262.897 250 262.858C250 262.819 250 262.779 250 262.74C250 262.701 250 262.662 250 262.622C250 262.583 250 262.543 250 262.504C250 262.465 250 262.425 250 262.386C250 262.346 250 262.307 250 262.267C250 262.227 250 262.188 250 262.148C250 262.109 250 262.069 250 262.029C250 261.989 250 261.95 250 261.91C250 261.87 250 261.83 250 261.79C250 261.751 250 261.711 250 261.671C250 261.631 250 261.591 250 261.551C250 261.511 250 261.471 250 261.431C250 261.391 250 261.351 250 261.311C250 261.27 250 261.23 250 261.19C250 261.15 250 261.11 250 261.069C250 261.029 250 260.989 250 260.949C250 260.908 250 260.868 250 260.828C250 260.787 250 260.747 250 260.706C250 260.666 250 260.626 250 260.585C250 260.545 250 260.504 250 260.463C250 260.423 250 260.382 250 260.342C250 260.301 250 260.261 250 260.22C250 260.179 250 260.138 250 260.098C250 260.057 250 260.016 250 259.976C250 259.935 250 259.894 250 259.853C250 259.812 250 259.771 250 259.731C250 259.69 250 259.649 250 259.608C250 259.567 250 259.526 250 259.485C250 259.444 250 259.403 250 259.362C250 259.321 250 259.28 250 259.239C250 259.198 250 259.157 250 259.116C250 259.074 250 259.033 250 258.992C250 258.951 250 258.91 250 258.869C250 258.827 250 258.786 250 258.745C250 258.704 250 258.662 250 258.621C250 258.58 250 258.538 250 258.497C250 258.456 250 258.414 250 258.373C250 258.332 250 258.29 250 258.249C250 258.207 250 258.166 250 258.124C250 258.083 250 258.042 250 258C250 257.958 250 257.917 250 257.875C250 257.834 250 257.792 250 257.751C250 257.709 250 257.668 250 257.626C250 257.584 250 257.543 250 257.501C250 257.459 250 257.418 250 257.376C250 257.334 250 257.293 250 257.251C250 257.209 250 257.168 250 257.126C250 257.084 250 257.042 250 257C250 256.959 250 256.917 250 256.875C250 256.833 250 256.791 250 256.75C250 256.708 250 256.666 250 256.624C250 256.582 250 256.54 250 256.498C250 256.457 250 256.415 250 256.373C250 256.331 250 256.289 250 256.247C250 256.205 250 256.163 250 256.121C250 256.079 250 256.037 250 255.995C250 255.953 250 255.911 250 255.869C250 255.827 250 255.785 250 255.743C250 255.701 250 255.659 250 255.617C250 255.575 250 255.533 250 255.491C250 255.449 250 255.407 250 255.365C250 255.322 250 255.28 250 255.238C250 255.196 250 255.154 250 255.112C250 255.07 250 255.028 250 254.985C250 254.943 250 254.901 250 254.859C250 254.817 250 254.775 250 254.733C250 254.69 250 254.648 250 254.606C250 254.564 250 254.522 250 254.479C250 254.437 250 254.395 250 254.353C250 254.311 250 254.268 250 254.226C250 254.184 250 254.142 250 254.1C250 254.057 250 254.015 250 253.973C250 253.931 250 253.888 250 253.846C250 253.804 250 253.762 250 253.719C250 253.677 250 253.635 250 253.593C250 253.551 250 253.508 250 253.466C250 253.424 250 253.382 250 253.339C250 253.297 250 253.255 250 253.213C250 253.17 250 253.128 250 253.086C250 253.043 250 253.001 250 252.959C250 252.917 250 252.874 250 252.832C250 252.79 250 252.748 250 252.705C250 252.663 250 252.621 250 252.579C250 252.536 250 252.494 250 252.452C250 252.41 250 252.367 250 252.325C250 252.283 250 252.241 250 252.199C250 252.156 250 252.114 250 252.072C250 252.03 250 251.987 250 251.945C250 251.903 250 251.861 250 251.819C250 251.776 250 251.734 250 251.692C250 251.65 250 251.608 250 251.565C250 251.523 250 251.481 250 251.439C250 251.397 250 251.354 250 251.312C250 251.27 250 251.228 250 251.186C250 251.144 250 251.101 250 251.059C250 251.017 250 250.975 250 250.933C250 250.891 250 250.849 250 250.807C250 250.765 250 250.722 250 250.68C250 250.638 250 250.596 250 250.554C250 250.512 250 250.47 250 250.428C250 250.386 250 250.344 250 250.302C250 250.26 250 250.218 250 250.176C250 250.134 250 250.092 250 250.05C250 250.008 250 249.966 250 249.924C250 249.882 250 249.84 250 249.798C250 249.756 250 249.714 250 249.672C250 249.63 250 249.588 250 249.547C250 249.505 250 249.463 250 249.421C250 249.379 250 249.337 250 249.295C250 249.254 250 249.212 250 249.17C250 249.128 250 249.086 250 249.045C250 249.003 250 248.961 250 248.919C250 248.878 250 248.836 250 248.794C250 248.752 250 248.711 250 248.669C250 248.627 250 248.586 250 248.544C250 248.502 250 248.461 250 248.419C250 248.378 250 248.336 250 248.294C250 248.253 250 248.211 250 248.17C250 248.128 250 248.087 250 248.045C250 248.004 250 247.962 250 247.921C250 247.879 250 247.838 250 247.796C250 247.755 250 247.714 250 247.672C250 247.631 250 247.59 250 247.548C250 247.507 250 247.466 250 247.424C250 247.383 250 247.342 250 247.3C250 247.259 250 247.218 250 247.177C250 247.136 250 247.094 250 247.053C250 247.012 250 246.971 250 246.93C250 246.889 250 246.848 250 246.807C250 246.766 250 246.725 250 246.684C250 246.642 250 246.602 250 246.561C250 246.52 250 246.479 250 246.438C250 246.397 250 246.356 250 246.315C250 246.274 250 246.233 250 246.193C250 246.152 250 246.111 250 246.07C250 246.029 250 245.989 250 245.948C250 245.907 250 245.867 250 245.826C250 245.785 250 245.745 250 245.704C250 245.664 250 245.623 250 245.582C250 245.542 250 245.501 250 245.461C250 245.42 250 245.38 250 245.34C250 245.299 250 245.259 250 245.218C250 245.178 250 245.138 250 245.097C250 245.057 250 245.017 250 244.977C250 244.936 250 244.896 250 244.856C250 244.816 250 244.776 250 244.736C250 244.696 250 244.655 250 244.615C250 244.575 250 244.535 250 244.495C250 244.455 250 244.415 250 244.376C250 244.336 250 244.296 250 244.256C250 244.216 250 244.176 250 244.137C250 244.097 250 244.057 250 244.017C250 243.978 250 243.938 250 243.898C250 243.859 250 243.819 250 243.78C250 243.74 250 243.7 250 243.661C250 243.621 250 243.582 250 243.543C250 243.503 250 243.464 250 243.424C250 243.385 250 243.346 250 243.307C250 243.267 250 243.228 250 243.189C250 243.15 250 243.111 250 243.071C250 243.032 250 242.993 250 242.954C250 242.915 250 242.876 250 242.837C250 242.798 250 242.759 250 242.721C250 242.682 250 242.643 250 242.604C250 242.565 250 242.527 250 242.488C250 242.449 250 242.41 250 242.372C250 242.333 250 242.295 250 242.256C250 242.218 250 242.179 250 242.141C250 242.102 250 242.064 250 242.025C250 241.987 250 241.949 250 241.91C250 241.872 250 241.834 250 241.796C250 241.758 250 241.719 250 241.681C250 241.643 250 241.605 250 241.567C250 241.529 250 241.491 250 241.453C250 241.415 250 241.377 250 241.34C250 241.302 250 241.264 250 241.226C250 241.189 250 241.151 250 241.113C250 241.076 250 241.038 250 241C250 240.963 250 240.925 250 240.888C250 240.85 250 240.813 250 240.776C250 240.738 250 240.701 250 240.664C250 240.627 250 240.589 250 240.552C250 240.515 250 240.478 250 240.441C250 240.404 250 240.367 250 240.33C250 240.293 250 240.256 250 240.219C250 240.182 250 240.145 250 240.109C250 240.072 250 240.035 250 239.999C250 239.962 250 239.925 250 239.889C250 239.852 250 239.816 250 239.779C250 239.743 250 239.707 250 239.67C250 239.634 250 239.598 250 239.561C250 239.525 250 239.489 250 239.453C250 239.417 250 239.381 250 239.345C250 239.309 250 239.273 250 239.237C250 239.201 250 239.165 250 239.129C250 239.094 250 239.058 250 239.022C250 238.987 250 238.951 250 238.915C250 238.88 250 238.844 250 238.809C250 238.773 250 238.738 250 238.703C250 238.667 250 238.632 250 238.597C250 238.562 250 238.527 250 238.491C250 238.456 250 238.421 250 238.386C250 238.351 250 238.316 250 238.282C250 238.247 250 238.212 250 238.177C250 238.143 250 238.108 250 238.073C250 238.039 250 238.004 250 237.97C250 237.935 250 237.901 250 237.866C250 237.832 250 237.798 250 237.763C250 237.729 250 237.695 250 237.661C250 237.627 250 237.593 250 237.559C250 237.525 250 237.491 250 237.457C250 237.423 250 237.389 250 237.355C250 237.322 250 237.288 250 237.254C250 237.221 250 237.187 250 237.154C250 237.12 250 237.087 250 237.054C250 237.02 250 236.987 250 236.954C250 236.92 250 236.887 250 236.854C250 236.821 250 236.788 250 236.755C250 236.722 250 236.689 250 236.657C250 236.624 250 236.591 250 236.558C250 236.526 250 236.493 250 236.46C250 236.428 250 236.395 250 236.363C250 236.331 250 236.298 250 236.266C250 236.234 250 236.202 250 236.169C250 236.137 250 236.105 250 236.073C250 236.041 250 236.009 250 235.978C250 235.946 250 235.914 250 235.882C250 235.851 250 235.819 250 235.787C250 235.756 250 235.724 250 235.693C250 235.661 250 235.63 250 235.599C250 235.568 250 235.536 250 235.505C250 235.474 250 235.443 250 235.412C250 235.381 250 235.35 250 235.319C250 235.289 250 235.258 250 235.227C250 235.196 250 235.166 250 235.135C250 235.105 250 235.074 250 235.044C250 235.014 250 234.983 250 234.953C250 234.923 250 234.893 250 234.863C250 234.833 250 234.803 250 234.773C250 234.743 250 234.713 250 234.683C250 234.653 250 234.624 250 234.594C250 234.564 250 234.535 250 234.506C250 234.476 250 234.447 250 234.417C250 234.388 250 234.359 250 234.33C250 234.301 250 234.272 250 234.243C250 234.214 250 234.185 250 234.156C250 234.127 250 234.098 250 234.07C250 234.041 250 234.013 250 233.984C250 233.956 250 233.927 250 233.899C250 233.871 250 233.842 250 233.814C250 233.786 250 233.758 250 233.73C250 233.702 250 233.674 250 233.646C250 233.618 250 233.591 250 233.563C250 233.535 250 233.508 250 233.48C250 233.453 250 233.425 250 233.398C250 233.371 250 233.343 250 233.316C250 233.289 250 233.262 250 233.235C250 233.208 250 233.181 250 233.154C250 233.128 250 233.101 250 233.074C250 233.048 250 233.021 250 232.995C250 232.968 250 232.942 250 232.916C250 232.889 250 232.863 250 232.837C250 232.811 250 232.785 250 232.759C250 232.733 250 232.707 250 232.681C250 232.656 250 232.63 250 232.604C250 232.579 250 232.553 250 232.528C250 232.503 250 232.477 250 232.452C250 232.427 250 232.402 250 232.377C250 232.352 250 232.327 250 232.302C250 232.277 250 232.252 250 232.228C250 232.203 250 232.178 250 232.154C250 232.129 250 232.105 250 232.081C250 232.057 250 232.032 250 232.008C250 231.984 250 231.96 250 231.936C250 231.912 250 231.888 250 231.865C250 231.841 250 231.817 250 231.794C250 231.77 250 231.747 250 231.724C250 231.7 250 231.677 250 231.654C250 231.631 250 231.608 250 231.585C250 231.562 250 231.539 250 231.516C250 231.493 250 231.471 250 231.448C250 231.426 250 231.403 250 231.381C250 231.358 250 231.336 250 231.314C250 231.292 250 231.27 250 231.248C250 231.226 250 231.204 250 231.182C250 231.16 250 231.139 250 231.117C250 231.095 250 231.074 250 231.052C250 231.031 250 231.01 250 230.989C250 230.967 250 230.946 250 230.925C250 230.904 250 230.884 250 230.863C250 230.842 250 230.821 250 230.801C250 230.78 250 230.76 250 230.739C250 230.719 250 230.699 250 230.679C250 230.658 250 230.638 250 230.618C250 230.598 250 230.579 250 230.559C250 230.539 250 230.52 250 230.5L247 230.5ZM250 230.5C250 227.88 249.642 225.769 248.881 224.097C248.101 222.385 246.927 221.201 245.449 220.423C244.012 219.667 242.353 219.327 240.627 219.163C238.901 218.999 236.981 219 235 219L235 222C237.019 222 238.787 222.001 240.342 222.149C241.897 222.298 243.113 222.583 244.051 223.077C244.948 223.549 245.649 224.24 246.151 225.341C246.67 226.481 247 228.12 247 230.5L250 230.5Z" fill="#0495FE"/>
<path d="M187 170.421C187 170.421 187 216 187 221C187 226 185.5 228.5 180.5 228.5C175.5 228.5 166.5 228.5 166.5 228.5" stroke="#0495FE" stroke-width="3" stroke-linecap="round"/>
<circle cx="185" cy="120" r="118.5" stroke="#0496FF" stroke-opacity="0.1" stroke-width="3"/>
<circle cx="185" cy="120" r="78.5" stroke="#0496FF" stroke-opacity="0.3" stroke-width="3"/>
<circle cx="185" cy="120" r="49.5" stroke="#0496FF" stroke-width="3"/>
<path d="M195.422 137.682H179.509C178.476 137.682 177.504 137.267 176.774 136.511L164.649 123.989C163.732 123.045 163.461 121.632 163.956 120.398C164.452 119.161 165.609 118.359 166.906 118.359H181.764V103.017C181.764 101.682 182.538 100.487 183.734 99.9747C184.911 99.4684 186.314 99.7568 187.214 100.686L199.345 113.212C200.075 113.971 200.477 114.973 200.477 116.037V132.465C200.475 135.342 198.209 137.682 195.422 137.682ZM180.175 132.037H195.01V116.718L187.231 108.685V124.004H172.395L180.175 132.037Z" fill="#F7F7F7"/>
<circle cx="339.567" cy="207.567" r="34.5666" fill="#32384F"/>
<path d="M339.406 198.359C340.64 198.359 341.846 198.725 342.872 199.411C343.898 200.097 344.697 201.072 345.169 202.212C345.641 203.353 345.765 204.608 345.524 205.819C345.284 207.03 344.689 208.142 343.817 209.015C342.945 209.887 341.833 210.482 340.623 210.723C339.413 210.963 338.159 210.84 337.019 210.367C335.88 209.895 334.905 209.095 334.22 208.069C333.534 207.042 333.168 205.836 333.168 204.601C333.168 202.945 333.826 201.358 334.996 200.187C336.165 199.017 337.752 198.359 339.406 198.359Z" stroke="#D0E6FF" stroke-width="1.5"/>
<path d="M350.645 217.086C349.654 216.16 348.278 215.366 346.616 214.768C344.482 214 341.973 213.59 339.406 213.59C335.964 213.59 332.664 214.326 330.23 215.638C329.04 216.278 328.425 216.586 327.926 217.086" stroke="#D0E6FF" stroke-width="1.5"/>
<path d="M339.406 193.365C342.219 193.365 344.969 194.2 347.308 195.764C349.647 197.327 351.471 199.55 352.547 202.151C353.624 204.751 353.906 207.613 353.357 210.374C352.808 213.135 351.453 215.671 349.464 217.661C347.474 219.651 344.94 221.007 342.181 221.556C339.422 222.105 336.562 221.823 333.963 220.746C331.364 219.669 329.142 217.845 327.579 215.504C326.016 213.164 325.182 210.412 325.182 207.597C325.182 203.823 326.681 200.203 329.348 197.534C332.016 194.865 335.634 193.365 339.406 193.365Z" stroke="#D0E6FF" stroke-width="1.5"/>
<circle cx="137.567" cy="229.567" r="34.5666" fill="#32384F"/>
<path d="M152.745 245.385H122.714C120.535 245.385 118.762 243.612 118.762 241.432V219.291C118.762 217.111 120.535 215.338 122.714 215.338H152.745C154.924 215.338 156.696 217.111 156.696 219.291V241.432C156.696 243.612 154.924 245.385 152.745 245.385ZM122.714 216.919C121.407 216.919 120.343 217.984 120.343 219.291V241.432C120.343 242.739 121.407 243.804 122.714 243.804H152.745C154.052 243.804 155.116 242.739 155.116 241.432V219.291C155.116 217.984 154.052 216.919 152.745 216.919H122.714Z" fill="#D0E6FF"/>
<path d="M155.906 224.827H119.552C119.115 224.827 118.762 224.472 118.762 224.036C118.762 223.599 119.115 223.245 119.552 223.245H155.906C156.343 223.245 156.696 223.599 156.696 224.036C156.696 224.472 156.343 224.827 155.906 224.827Z" fill="#D0E6FF"/>
<path d="M125.085 221.664C125.957 221.664 126.665 220.956 126.665 220.082C126.665 219.209 125.957 218.501 125.085 218.501C124.212 218.501 123.504 219.209 123.504 220.082C123.504 220.956 124.212 221.664 125.085 221.664Z" fill="#D0E6FF"/>
<path d="M129.826 221.664C130.699 221.664 131.407 220.956 131.407 220.082C131.407 219.209 130.699 218.501 129.826 218.501C128.953 218.501 128.246 219.209 128.246 220.082C128.246 220.956 128.953 221.664 129.826 221.664Z" fill="#D0E6FF"/>
<path d="M134.568 221.664C135.441 221.664 136.148 220.956 136.148 220.082C136.148 219.209 135.441 218.501 134.568 218.501C133.695 218.501 132.987 219.209 132.987 220.082C132.987 220.956 133.695 221.664 134.568 221.664Z" fill="#D0E6FF"/>
<circle cx="34.5666" cy="263.567" r="34.5666" fill="#32384F"/>
<path d="M35.2539 247.543C37.4375 247.543 39.2148 249.343 39.2148 251.554C39.2148 251.914 39.1641 252.274 39.0625 252.634L38.5039 254.589H40.5352H46.4766V259.989C45.7656 259.731 45.0039 259.629 44.2422 259.629C40.3828 259.629 37.2344 262.817 37.2344 266.726C37.2344 270.634 40.3828 273.823 44.2422 273.823C45.0039 273.823 45.7656 273.72 46.4766 273.463V277.886H23.5234V254.64H29.9727H32.0039L31.4453 252.686C31.3438 252.326 31.293 251.966 31.293 251.606C31.293 249.343 33.0703 247.543 35.2539 247.543ZM35.2539 246C32.207 246 29.7695 248.52 29.7695 251.554C29.7695 252.069 29.8711 252.583 29.9727 253.097H22V279.429H48V270.84C47.0352 271.766 45.7148 272.331 44.2422 272.331C41.1953 272.331 38.7578 269.811 38.7578 266.777C38.7578 263.691 41.2461 261.223 44.2422 261.223C45.7148 261.223 47.0352 261.789 48 262.714V253.097H40.5352C40.6875 252.634 40.7383 252.12 40.7383 251.554C40.7383 248.52 38.3008 246 35.2539 246Z" fill="#D0E6FF"/>
<circle cx="248.567" cy="306.567" r="34.5666" fill="#32384F"/>
<path d="M237.493 306.478C237.493 301.418 237.493 296.357 237.493 291.296C237.493 288.988 238.995 287.501 241.329 287.501C246.128 287.501 250.925 287.501 255.72 287.501C258.106 287.501 259.563 288.976 259.563 291.384C259.563 301.472 259.563 311.561 259.563 321.65C259.563 323.975 258.072 325.454 255.73 325.455C250.902 325.455 246.074 325.455 241.246 325.455C238.991 325.455 237.493 323.937 237.493 321.66C237.493 316.599 237.493 311.539 237.493 306.478ZM238.932 293.056V318.486H258.141V293.061L238.932 293.056ZM258.184 319.999H238.872C238.872 320.749 238.846 321.437 238.872 322.122C238.927 323.287 239.681 324.02 240.862 324.068C241.407 324.094 241.953 324.068 242.498 324.068C246.981 324.068 251.459 324.068 255.932 324.068C257.413 324.068 258.15 323.32 258.174 321.845C258.184 321.248 258.184 320.649 258.184 319.999ZM238.913 291.588H258.143C258.27 289.628 257.587 288.881 255.682 288.881C250.913 288.881 246.146 288.881 241.381 288.881C239.481 288.881 238.793 289.623 238.913 291.588Z" fill="#D0E6FF"/>
<path d="M247.921 290.262H250.507" stroke="#506677" stroke-width="1.52" stroke-miterlimit="10" stroke-linecap="round"/>
<path d="M246.198 290.829C246.531 290.829 246.8 290.56 246.8 290.227C246.8 289.895 246.531 289.625 246.198 289.625C245.866 289.625 245.597 289.895 245.597 290.227C245.597 290.56 245.866 290.829 246.198 290.829Z" fill="#506677"/>
</svg>
