<svg width="375" height="342" fill="none" xmlns="http://www.w3.org/2000/svg"><path d="M235.653 118.1H280.5c6.5 0 9.445 2.4 9.445 11.4s1 67.5 1 74 3.555 9 10.055 9h35M134.5 122H92c-7.942 0-12 5-12 13v115c0 8 0 13.5-10 13.5H50.5" stroke="#0495FE" stroke-width="3" stroke-linecap="round"/><path d="M223.5 154.3a1.5 1.5 0 0 0-3 0h3zm-1.5 0l-1.5.001V208.5h3v-30.078-16.77-5.349-1.482-.388-.099-.026-.006-.001l-1.5-.001zm-1.5 54.2c0 4.298 1.365 7.745 4.001 10.098 2.61 2.328 6.263 3.402 10.499 3.402v-3c-3.764 0-6.611-.955-8.501-2.641-1.864-1.662-2.999-4.215-2.999-7.859h-3zM235 222H237.309v-3h-.001-.001-.003H232.694h-.002-.001v3H235v-3H232.701h-.008-.001-.001v3H237.309v-3h-.006H235v3zm12 8.5V278h3v-.002-.002-.003-.004-.004-.006-.006-.007-.008-.009-.01-.01-.012-.012-.013-.014-.014-.016-.016-.017-.018-.018-.019-.021-.021-.021-.023-.023-.024-.025-.026-.026-.027-.028-.029-.029-.03-.031-.032-.032-.033-.034-.035-.035-.036-.037-.037-.038-.039-.04-.04-.041-.042-.043-.043-.044-.044-.045-.046-.047-.047-.048-.049-.049-.05-.051-.051-.052-.053-.053-.054-.055-.055-.056-.056-.057-.058-.059-.059-.059-.061-.061-.061-.062-.063-.063-.064-.065-.065-.066-.066-.067-.068-.068-.069-.069-.07-.07-.071-.072-.072-.073-.073-.074-.074-.075-.076-.076-.076-.077-.078-.078-.079-.079-.08-.08-.081-.081-.082-.082-.083-.083-.084-.085-.084-.086-.086-.086-.087-.087-.088-.088-.089-.089-.089-.091-.09-.091-.092-.091-.093-.093-.093-.094-.094-.094-.095-.096-.095-.097-.096-.098-.097-.098-.098-.099-.099-.1-.1-.1-.101-.101-.101-.102-.102-.103-.103-.103-.104-.104-.105-.105-.105-.105-.106-.106-.107-.107-.107-.108-.108-.108-.109-.108-.11-.109-.11-.11-.111-.11-.112-.111-.112-.112-.112-.112-.113-.113-.114-.114-.113-.115-.114-.115-.115-.115-.116-.116-.116-.116-.117-.116-.117-.118-.117-.118-.118-.118-.118-.119-.119-.119-.119-.12-.119-.12-.12-.12-.121-.121-.12-.121-.122-.121-.122-.121-.122-.122-.122-.123-.122-.123-.123-.123-.123-.123-.124-.123-.124-.124-.124-.124-.124-.125V258v-.125-.124-.125-.125-.125-.125-.125V257v-.125-.125-.126-.126-.125-.126-.126-.126-.126-.126-.126-.126-.126-.127-.126-.127-.126-.126-.127-.127-.126-.127-.126-.127-.127-.127-.126-.127-.127-.126-.127-.127-.127-.127-.126-.127-.127-.126-.127-.127-.126-.127-.127-.126-.127-.126-.127-.126-.126-.127-.126-.126-.126-.126-.126-.126-.126-.126-.125-.126-.126-.125-.125-.126-.125-.125-.125-.125-.125-.124-.125-.124-.125-.124-.124-.124-.124-.123-.124-.123-.123-.123-.123-.123-.123-.122-.123-.122-.122-.122-.122-.121-.121-.122-.121-.12-.121-.12-.121-.12-.119-.12-.119-.12-.119-.118-.119-.118-.119-.117-.118-.118-.117-.117-.116-.117-.116-.116-.116-.115-.116-.115-.114-.115-.114-.114-.113-.114-.113V241v-.112-.112-.112-.112-.111-.111-.111-.11-.11-.11-.11-.109-.109-.108-.108-.108-.108-.107-.107-.106-.106-.106-.106-.105-.104-.105-.104-.103-.104-.103-.102-.102-.102-.102-.101-.1-.1-.1-.1-.099-.098-.099-.098-.097-.097-.097-.096-.095-.096-.095-.094-.094-.094-.093-.093-.092-.092-.091-.091-.09-.09-.09-.089-.088-.089-.087-.087-.087-.086-.086-.085-.085-.084-.084-.083-.083-.082-.082-.081-.081-.08-.079-.079-.079-.078-.078-.077-.076-.076-.075-.075-.074-.074-.073-.073-.072-.071-.071-.07-.07-.069-.069-.068-.067-.067-.066-.066-.065-.065-.063-.064-.062-.062-.062-.06-.061-.059-.059h-3zm3 0c0-2.62-.358-4.731-1.119-6.403-.78-1.712-1.954-2.896-3.432-3.674-1.437-.756-3.096-1.096-4.822-1.26-1.726-.164-3.646-.163-5.627-.163v3c2.019 0 3.787.001 5.342.149 1.555.149 2.771.434 3.709.928.897.472 1.598 1.163 2.1 2.264.519 1.14.849 2.779.849 5.159h3z" fill="#0495FE"/><path d="M187 170.421V221c0 5-1.5 7.5-6.5 7.5h-14" stroke="#0495FE" stroke-width="3" stroke-linecap="round"/><circle cx="185" cy="120" r="118.5" stroke="#0496FF" stroke-opacity=".1" stroke-width="3"/><circle cx="185" cy="120" r="78.5" stroke="#0496FF" stroke-opacity=".3" stroke-width="3"/><circle cx="185" cy="120" r="49.5" stroke="#0496FF" stroke-width="3"/><path d="M195.422 137.682h-15.913a3.776 3.776 0 0 1-2.735-1.171l-12.125-12.522a3.363 3.363 0 0 1-.693-3.591c.496-1.237 1.653-2.039 2.95-2.039h14.858v-15.342c0-1.335.774-2.53 1.97-3.042 1.177-.507 2.58-.218 3.48.711l12.131 12.526a4.051 4.051 0 0 1 1.132 2.825v16.428c-.002 2.877-2.268 5.217-5.055 5.217zm-15.247-5.645h14.835v-15.319l-7.779-8.033v15.319h-14.836l7.78 8.033z" fill="#F7F7F7"/><circle cx="339.567" cy="207.567" r="34.567" fill="#32384F"/><path d="M339.406 198.359a6.235 6.235 0 0 1 5.763 3.853 6.246 6.246 0 0 1-1.352 6.803 6.237 6.237 0 0 1-9.597-.946 6.242 6.242 0 0 1 5.186-9.71zM350.645 217.086c-.991-.926-2.367-1.72-4.029-2.318-2.134-.768-4.643-1.178-7.21-1.178-3.442 0-6.742.736-9.176 2.048-1.19.64-1.805.948-2.304 1.448" stroke="#D0E6FF" stroke-width="1.5"/><path d="M339.406 193.365a14.22 14.22 0 0 1 13.141 8.786 14.235 14.235 0 0 1-10.366 19.405 14.219 14.219 0 0 1-14.602-6.052 14.236 14.236 0 0 1 1.769-17.97 14.222 14.222 0 0 1 10.058-4.169z" stroke="#D0E6FF" stroke-width="1.5"/><circle cx="137.567" cy="229.567" r="34.567" fill="#32384F"/><path d="M152.745 245.385h-30.031a3.957 3.957 0 0 1-3.952-3.953v-22.141a3.957 3.957 0 0 1 3.952-3.953h30.031a3.956 3.956 0 0 1 3.951 3.953v22.141a3.956 3.956 0 0 1-3.951 3.953zm-30.031-28.466a2.375 2.375 0 0 0-2.371 2.372v22.141a2.375 2.375 0 0 0 2.371 2.372h30.031a2.375 2.375 0 0 0 2.371-2.372v-22.141a2.375 2.375 0 0 0-2.371-2.372h-30.031z" fill="#D0E6FF"/><path d="M155.906 224.827h-36.354a.79.79 0 0 1 0-1.582h36.354a.79.79 0 1 1 0 1.582zM125.085 221.664a1.581 1.581 0 1 0-.002-3.162 1.581 1.581 0 0 0 .002 3.162zM129.826 221.664a1.581 1.581 0 1 0 0-3.163 1.581 1.581 0 0 0 0 3.163zM134.568 221.664a1.58 1.58 0 1 0-.001-3.161 1.58 1.58 0 0 0 .001 3.161z" fill="#D0E6FF"/><circle cx="34.567" cy="263.567" r="34.567" fill="#32384F"/><path d="M46.848 254.824h.75V263.435l-.942-.25c-2.262-.6-4.074.016-5.197 1.589-1.18 1.652-1.222 4.036-.095 5.774.556.851 1.263 1.402 2.113 1.686.862.288 1.928.321 3.218.034l.913-.203V278.183c0 .113-.01.228-.017.321l-.005.065-.054.693H23.188v-.75l23.66-23.688zm0 0v.75m0-.75v.75m0 0c-.615 0-1.19 0-1.764-.031m1.764.031l-22.357-.011h.197l1.472.002c1.666.002 3.328.004 4.997-.012m13.927-.01l.04-.749-.02-.001h-.02v.75zm0 0c-.488 0-.978.002-1.468.004a151.8 151.8 0 0 1-2.942-.004m0 0l.01-.75h-.003l-.007.75zm0 0c-1.21-.01-1.671-.729-1.19-1.817m0 0l.686.304.002-.005-.687-.299zm0 0c.688-1.58.195-3.397-1.21-4.433m0 0l.446-.604-.002-.001-.444.605zm0 0c-1.425-1.047-3.415-.986-4.748.154m0 0l-.487-.571-.003.003.49.568zm0 0c-1.333 1.149-1.743 3.089-.974 4.567.277.554.123 1.118-.451 1.354m0 0l-.285-.693-.01.004.295.689zm0 0a2.439 2.439 0 0 1-.944.185m0 0v-.75h-.007l.007.75zm15.701 18.215v4.415c0 .079-.006.152-.013.241l-.007.088h-22.9v-.75l22.92-3.994zm0 0l.163-.035-.163-.732h-.75V273.138l.75.63zm-23.67-18.955h.75-.75zm0 0v.75m0-.75v.75m0 0v.046m0-.046v.046m0 0v.045m0-.045v.045m0 0v.045m0-.045v.045m0 0v.045m0-.045v.045m0 0v.045m0-.045v.045m0 0v.045m0-.045v.045m0 0v.045m0-.045v.045m0 0v.045m0-.045v.045m0 0v.045m0-.045v.045m0 0v.045m0-.045v.045m0 0v.045m0-.045v.045m0 0v.046m0-.046v.046m0 0v.045m0-.045v.045m0 0v.045m0-.045v.045m0 0v.045m0-.045v.045m0 0v.045m0-.045v.045m0 0v.045m0-.045v.045m0 0v.045m0-.045v.045m0 0v.045m0-.045v.045m0 0v.045m0-.045v.045m0 0v.045m0-.045v.045m0 0v.045m0-.045v.045m0 0v.045m0-.045v.045m0 0v.045m0-.045v.045m0 0v.045m0-.045v.045m0 0v.046m0-.046v.046m0 0v.045m0-.045v.045m0 0v.045m0-.045v.045m0 0v.045m0-.045v.045m0 0v.045m0-.045v.045m0 0v.045m0-.045v.045m0 0v.045m0-.045v.045m0 0v.045m0-.045v.045m0 0v.045m0-.045v.045m0 0v.045m0-.045v.045m0 0v.045m0-.045v.045m0 0v.045m0-.045v.045m0 0v.045m0-.045v.045m0 0v.045m0-.045v.045m0 0v.045m0-.045v.045m0 0v.045m0-.045v.045m0 0v.045m0-.045v.045m0 0v.045m0-.045v.045m0 0v.045m0-.045v.045m0 0v.045m0-.045v.045m0 0v.045m0-.045v.045m0 0v.045m0-.045v.045m0 0v.045m0-.045v.045m0 0v.045m0-.045v.045m0 0v.046m0-.046v.046m0 0v.045m0-.045v.045m0 0v.045m0-.045v.045m0 0v.045m0-.045v.045m0 0v.045m0-.045v.045m0 0v.045m0-.045v.045m0 0v.045m0-.045v.045m0 0v.045m0-.045v.045m0 0v.045m0-.045v.045m0 0v.045m0-.045v.045m0 0v.045m0-.045v.045m0 0v.045m0-.045v.045m0 0v.045m0-.045v.045m0 0v.045m0-.045v.045m0 0v.045m0-.045v.045m0 0v.045m0-.045v.045m0 0v.045m0-.045v.045m0 0v.045m0-.045v.045m0 0v.045m0-.045v.045m0 0v.045m0-.045v.045m0 0v.045m0-.045v.045m0 0v.045m0-.045v.045m0 0v.045m0-.045v.045m0 0v.045m0-.045v.045m0 0v.045m0-.045v.045m0 0v.045m0-.045v.045m0 0v.045m0-.045v.045m0 0v.045m0-.045v.045m0 0v.045m0-.045v.045m0 0v.045m0-.045v.045m0 0v.045m0-.045v.045m0 0v.045m0-.045v.045m0 0v.045m0-.045v.045m0 0v.045m0-.045v.045m0 0v.044m0-.044v.044m0 0v.045m0-.045v.045m0 0v.045m0-.045v.045m0 0v.045m0-.045v.045m0 0v.045m0-.045v.045m0 0v.045m0-.045v.045m0 0v.045m0-.045v.045m0 0v.045m0-.045v.045m0 0v.045m0-.045v.045m0 0v.045m0-.045v.045m0 0v.045m0-.045v.045m0 0v.045m0-.045v.045m0 0v.045m0-.045v.045m0 0v.045m0-.045v.045m0 0v.045m0-.045v.045m0 0v.045m0-.045v.045m0 0v.045m0-.045v.045m0 0v.045m0-.045v.045m0 0v.045m0-.045v.045m0 0v.045m0-.045v.045m0 0v.045m0-.045v.045m0 0v.045m0-.045v.045m0 0v.045m0-.045v.045m0 0v.045m0-.045v.045m0 0v.044m0-.044v.044m0 0v.045m0-.045v.045m0 0v.045m0-.045v.045m0 0v.045m0-.045v.045m0 0v.045m0-.045v.045m0 0v.045m0-.045v.045m0 0v.045m0-.045v.045m0 0v.045m0-.045v.045m0 0v.045m0-.045v.045m0 0v.045m0-.045v.045m0 0v.045m0-.045v.045m0 0v.045m0-.045v.045m0 0v.045m0-.045v.045m0 0v.045m0-.045v.045m0 0v.045m0-.045v.045m0 0v.044m0-.044v.044m0 0v.045m0-.045v.045m0 0v.045m0-.045v.045m0 0v.045m0-.045v.045m0 0v.045m0-.045v.045m0 0v.045m0-.045v.045m0 0v.045m0-.045v.045m0 0v.045m0-.045v.045m0 0v.045m0-.045v.045m0 0v.045m0-.045v.045m0 0v.045m0-.045v.045m0 0v.045m0-.045v.045m0 0v.044m0-.044v.044m0 0v.045m0-.045v.045m0 0v.045m0-.045v.045m0 0v.045m0-.045v.045m0 0v.045m0-.045v.045m0 0v.045m0-.045v.045m0 0v.045m0-.045v.045m0 0v.045m0-.045v.045m0 0v.045m0-.045v.045m0 0v.045m0-.045v.045m0 0v.045m0-.045v.045m0 0v.044m0-.044v.044m0 0v.045m0-.045v.045m0 0v.045m0-.045v.045m0 0v.045m0-.045v.045m0 0v.045m0-.045v.045m0 0v.045m0-.045v.045m0 0v.045m0-.045v.045m0 0v.045m0-.045v.045m0 0v.045m0-.045v.045m0 0v.044m0-.044v.044m0 0v.045m0-.045v.045m0 0v.045m0-.045v.045m0 0v.045m0-.045v.045m0 0v.045m0-.045v.045m0 0v.045m0-.045v.045m0 0v.045m0-.045v.045m0 0v.045m0-.045v.045m0 0v.044m0-.044v.044m0 0v.045m0-.045v.045m0 0v.045m0-.045v.045m0 0v.045m0-.045v.045m0 0v.045m0-.045v.045m0 0v.045m0-.045v.045m0 0v.045m0-.045v.045m0 0v.045m0-.045v.045m0 0v.044m0-.044v.044m0 0v.045m0-.045v.045m0 0v.045m0-.045v.045m0 0v.045m0-.045v.045m0 0v.045m0-.045v.045m0 0v.045m0-.045v.045m0 0v.045m0-.045v.045m0 0v.044m0-.044v.044m0 0v.045m0-.045v.045m0 0v.045m0-.045v.045m0 0v.045m0-.045v.045m0 0v.045m0-.045v.045m0 0v.045m0-.045v.045m0 0v.045m0-.045v.045m0 0v.044m0-.044v.044m0 0v.045m0-.045v.045m0 0v.045m0-.045v.045m0 0v.045m0-.045v.045m0 0v.045m0-.045v.045m0 0v.045m0-.045v.045m0 0v.045m0-.045v.045m0 0v.044m0-.044v.044m0 0v.045m0-.045v.045m0 0v.045m0-.045v.045m0 0v.045m0-.045v.045m0 0v.045m0-.045v.045m0 0v.045m0-.045v.045m0 0v.044m0-.044v.044m0 0v.045m0-.045v.045m0 0v.045m0-.045v.045m0 0v.045m0-.045v.045m0 0v.045m0-.045v.045m0 0v.045m0-.045v.045m0 0v.044m0-.044v.044m0 0v.045m0-.045v.045m0 0v.045m0-.045v.045m0 0v.045m0-.045v.045m0 0v.045m0-.045v.045m0 0v.045m0-.045v.045m0 0v.044m0-.044v.044m0 0v.045m0-.045v.045m0 0v.045m0-.045v.045m0 0v.045m0-.045v.045m0 0v.045m0-.045v.045m0 0v.045m0-.045v.045m0 0v.044m0-.044v.044m0 0v.045m0-.045v.045m0 0v.045m0-.045v.045m0 0v.045m0-.045v.045m0 0v.045m0-.045v.045m0 0v.045m0-.045v.045m0 0v.044m0-.044v.044m0 0v.045m0-.045v.045m0 0v.045m0-.045v.045m0 0v.045m0-.045v.045m0 0v.045m0-.045v.045m0 0v.044m0-.044v.044m0 0v.045m0-.045v.045m0 0v.045m0-.045v.045m0 0v.045m0-.045v.045m0 0v.045m0-.045v.045m0 0v.044m0-.044v.044m0 0v.045m0-.045v.045m0 0v.045m0-.045v.045m0 0v.045m0-.045v.045m0 0v.045m0-.045v.045m0 0v.044m0-.044v.044m0 0v.045m0-.045v.045m0 0v.045m0-.045v.045m0 0v.045m0-.045v.045m0 0v.045m0-.045v.045m0 0v.044m0-.044v.044m0 0v.045m0-.045v.045m0 0v.045m0-.045v.045m0 0v.045m0-.045v.045m0 0v.045m0-.045v.045m0 0v.044m0-.044v.044m0 0v.045m0-.045v.045m0 0v.045m0-.045v.045m0 0v.045m0-.045v.045m0 0v.045m0-.045v.045m0 0v.044m0-.044v.044m0 0v.045m0-.045v.045m0 0v.045m0-.045v.045m0 0v.045m0-.045v.045m0 0v.045m0-.045v.045m0 0v.044m0-.044v.044m0 0v.045m0-.045v.045m0 0v.045m0-.045v.045m0 0v.045m0-.045v.045m0 0v.044m0-.044v.044m0 0v.045m0-.045v.045m0 0v.045m0-.045v.045m0 0v.045m0-.045v.045m0 0v.045m0-.045v.045m0 0v.044m0-.044v.044m0 0v.045m0-.045v.045m0 0v.045m0-.045v.045m0 0v.045m0-.045v.045m0 0v.044m0-.044v.044m0 0v.045m0-.045v.045m0 0v.045m0-.045v.045m0 0v.045m0-.045v.045m0 0v.045m0-.045v.045m0 0v.044m0-.044v.044m0 0v.045m0-.045v.045m0 0v.045m0-.045v.045m0 0v.045m0-.045v.045m0 0v.044m0-.044v.044m0 0v.045m0-.045v.045m0 0v.045m0-.045v.045m0 0v.045m0-.045v.045m0 0v.044m0-.044v.044m0 0v.045m0-.045v.045m0 0v.045m0-.045v.045m0 0v.045m0-.045v.045m0 0v.045m0-.045v.045m0 0v.044m0-.044v.044m0 0v.045m0-.045v.045m0 0v.045m0-.045v.045m0 0v.045m0-.045v.045m0 0v.044m0-.044v.044m0 0v.045m0-.045v.045m0 0v.045m0-.045v.045m0 0v.045m0-.045v.045m0 0v.044m0-.044v.044m0 0v.045m0-.045v.045m0 0v.045m0-.045v.045m0 0v.045m0-.045v.045m0 0v.044m0-.044v.044m0 0v.045m0-.045v.045m0 0v.045m0-.045v.045m0 0v.045m0-.045v.045m0 0v.044m0-.044v.044m0 0v.045m0-.045v.045m0 0v.045m0-.045v.045m0 0v.045m0-.045v.045m0 0v.044m0-.044v.044m0 0v.045m0-.045v.045m0 0v.045m0-.045v.045m0 0v.045m0-.045v.045m0 0v.044m0-.044v.044m0 0v.045m0-.045v.045m0 0v.045m0-.045v.045m0 0v.045m0-.045v.045m0 0v.044m0-.044v.044m0 0v.045m0-.045v.045m0 0v.045m0-.045v.045m0 0v.045m0-.045v.045m0 0v.044m0-.044v.044m0 0v.045m0-.045v.045m0 0v.045m0-.045v.045m0 0v.045m0-.045v.045m0 0v.044m0-.044v.044m0 0v.045m0-.045v.045m0 0v.045m0-.045v.045m0 0v.044m0-.044v.044m0 0v.045m0-.045v.045m0 0v.045m0-.045v.045m0 0v.045m0-.045v.045m0 0v.044m0-.044v.044m0 0v.045m0-.045v.045m0 0v.045m0-.045v.045m0 0v.045m0-.045v.045m0 0v.044m0-.044v.044m0 0v.045m0-.045v.045m0 0v.045m0-.045v.045m0 0v.045m0-.045v.045m0 0v.044m0-.044v.044m0 0v.045m0-.045v.045m0 0v.045m0-.045v.045m0 0v.044m0-.044v.044m0 0v.045m0-.045v.045m0 0v.045m0-.045v.045m0 0v.045m0-.045v.045m0 0v.044m0-.044v.044m0 0v.045m0-.045v.045m0 0v.045m0-.045v.045m0 0v.045m0-.045v.045m0 0v.044m0-.044v.044m0 0v.045m0-.045v.045m0 0v.045m0-.045v.045m0 0v.044m0-.044v.044m0 0v.045m0-.045v.045m0 0v.045m0-.045v.045m0 0v.045m0-.045v.045m0 0v.044m0-.044v.044m0 0v.045m0-.045v.045m0 0v.045m0-.045v.045m0 0v.044m0-.044v.044m0 0v.045m0-.045v.045m0 0v.045m0-.045v.045m0 0v.045m0-.045v.045m0 0v.044m0-.044v.044m0 0v.045m0-.045v.045m0 0v.045m0-.045v.045m0 0v.044m0-.044v.044m0 0v.045m0-.045v.045m0 0v.045m0-.045v.045m0 0v.045m0-.045v.045m0 0v.044m0-.044v.044m0 0v.045m0-.045v.045m0 0v.045m0-.045v.045m0 0v.044m0-.044v.044m0 0v.045m0-.045v.045m0 0v.045m0-.045v.045m0 0v.045m0-.045v.045m0 0v.044m0-.044v.044m0 0v.045m0-.045v.045m0 0v.045m0-.045v.045m0 0v.044m0-.044v.044m0 0v.045m0-.045v.045m0 0v.045m0-.045v.045m0 0v.045m0-.045v.045m0 0v.044m0-.044v.044m0 0v.045m0-.045v.045m0 0v.045m0-.045v.045m0 0v.044m0-.044v.044m0 0v.045m0-.045v.045m0 0v.045m0-.045v.045m0 0v.044m0-.044v.044m0 0v.045m0-.045v.045m0 0v.045m0-.045v.045m0 0v.045m0-.045v.045m0 0v.044m0-.044v.044m0 0v.045m0-.045v.045m0 0v.045m0-.045v.045m0 0v.044m0-.044v.044m0 0v.045m0-.045v.045m0 0v.045m0-.045v.045m0 0v.045m0-.045v.045m0 0v.044m0-.044v.044m0 0v.045m0-.045v.045m0 0v.045m0-.045v.045m0 0v.044m0-.044v.044m0 0v.045m0-.045v.045m0 0v.045m0-.045v.045m0 0v.044m0-.044v.044m0 0v.045m0-.045v.045m0 0v.045m0-.045v.045m0 0v.045m0-.045v.045m0 0v.044m0-.044v.044m0 0v.045m0-.045v.045m0 0v.045m0-.045v.045m0 0v.044m0-.044v.044m0 0v.045m0-.045v.045m0 0v.045m0-.045v.045m0 0v.044m0-.044v.044m0 0v.045m0-.045v.045m0 0v.045m0-.045v.045m0 0v.044m0-.044v.044m0 0v.045m0-.045v.045m0 0v.045m0-.045v.045m0 0v.045m0-.045v.045m0 0v.044m0-.044v.044m0 0v.045m0-.045v.045m0 0v.045m0-.045v.045m0 0v.044m0-.044v.044m0 0v.045m0-.045v.045m0 0v.045m0-.045v.045m0 0v.044-.044z" stroke="#D0E6FF" stroke-width="1.5"/><circle cx="248.567" cy="306.567" r="34.567" fill="#32384F"/><path d="M237.493 306.478v-15.182c0-2.308 1.502-3.795 3.836-3.795h14.391c2.386 0 3.843 1.475 3.843 3.883v30.266c0 2.325-1.491 3.804-3.833 3.805h-14.484c-2.255 0-3.753-1.518-3.753-3.795v-15.182zm1.439-13.422v25.43h19.209v-25.425l-19.209-.005zm19.252 26.943h-19.312c0 .75-.026 1.438 0 2.123.055 1.165.809 1.898 1.99 1.946.545.026 1.091 0 1.636 0h13.434c1.481 0 2.218-.748 2.242-2.223.01-.597.01-1.196.01-1.846zm-19.271-28.411h19.23c.127-1.96-.556-2.707-2.461-2.707h-14.301c-1.9 0-2.588.742-2.468 2.707z" fill="#D0E6FF"/><path d="M247.921 290.262h2.586" stroke="#506677" stroke-width="1.52" stroke-miterlimit="10" stroke-linecap="round"/><path d="M246.198 290.829a.601.601 0 1 0 .001-1.203.601.601 0 0 0-.001 1.203z" fill="#506677"/></svg>