<svg width="165" height="36" fill="none" xmlns="http://www.w3.org/2000/svg"><g clip-path="url(#clip0)" fill="#516677"><path d="M15.56 21.563a29.53 29.53 0 0 0 1.295-5.254c9.14 1.87 9.429-7.198 9.429-7.198s-6.046-2.087-9.069 3.887c0-.648.072-1.296.072-1.943v-.432C21.39 2.706 13.185-.173 13.185-.173S8.65 5.945 15.632 10.983v.144c0 1.151-.072 2.375-.216 3.454C13.256 6.161 5.34 9.4 5.34 9.4s.648 8.133 9.932 6.622a24.725 24.725 0 0 1-1.44 5.398c-1.295-2.304-4.606-6.118-11.875-3.095 2.88 7.413 7.99 6.621 10.724 5.541-2.447 4.535-6.19 7.414-10.436 7.414-.432 0-.791.36-.791.863 0 .432.36.792.791.792 5.11 0 9.572-3.599 12.235-9.068 8.78 5.613 12.451-3.671 12.451-3.671s-5.83-4.822-11.371 1.367zM41.614 3.786c1.656 0 3.095.216 4.247.576 1.223.36 2.159.936 2.95 1.655.792.72 1.368 1.512 1.728 2.52a9.261 9.261 0 0 1 .575 3.238 9.675 9.675 0 0 1-.575 3.31c-.36 1.008-1.008 1.872-1.8 2.592-.791.72-1.799 1.295-2.95 1.727-1.224.36-2.591.576-4.175.576H38.16v8.78h-4.534V3.786h7.988zm0 12.523c.864 0 1.584-.072 2.16-.288.647-.216 1.151-.504 1.583-.935.432-.432.72-.864.935-1.44.216-.576.288-1.223.288-1.871 0-.648-.072-1.296-.288-1.8-.215-.503-.503-1.007-.935-1.367a5.177 5.177 0 0 0-1.512-.863c-.647-.216-1.367-.288-2.23-.288H38.16v8.924h3.454v-.072zM51.042 13.501c2.015-1.871 4.39-2.807 7.27-2.807 1.007 0 1.942.144 2.734.504s1.511.792 2.015 1.44c.576.575 1.008 1.295 1.296 2.159a8.38 8.38 0 0 1 .431 2.735v11.155h-1.87c-.433 0-.72-.072-.936-.216-.216-.144-.36-.36-.504-.72l-.36-1.295a8.575 8.575 0 0 1-1.296 1.08c-.431.287-.863.575-1.295.791-.432.216-.936.36-1.44.504-.503.144-1.079.144-1.727.144-.72 0-1.44-.072-2.015-.288-.648-.216-1.151-.504-1.583-.936a5.764 5.764 0 0 1-1.08-1.51 6.018 6.018 0 0 1-.36-2.088c0-.432.072-.864.216-1.367.144-.432.36-.864.72-1.296.36-.432.792-.792 1.295-1.151.504-.36 1.152-.648 1.944-.936.791-.288 1.655-.504 2.734-.648 1.008-.144 2.232-.288 3.527-.288V17.46c0-1.152-.216-2.088-.72-2.663-.503-.576-1.223-.864-2.159-.864-.648 0-1.223.072-1.655.216-.432.144-.864.36-1.152.576-.36.216-.647.36-.935.575a1.992 1.992 0 0 1-.936.216c-.288 0-.576-.072-.72-.216a4.113 4.113 0 0 1-.503-.575l-.936-1.224zm9.644 7.701c-1.223.072-2.231.144-3.023.288-.791.144-1.511.36-2.015.576-.504.216-.864.504-1.08.863-.215.288-.287.648-.287 1.08 0 .72.216 1.296.647 1.583a3.07 3.07 0 0 0 1.728.504c.863 0 1.583-.144 2.23-.504.649-.287 1.224-.791 1.872-1.439v-2.95h-.072zM81.486 11.631v1.584c0 .503-.288.791-.935.935l-1.584.288a5.91 5.91 0 0 1 .36 2.015c0 .864-.144 1.656-.504 2.375-.36.72-.791 1.296-1.44 1.8-.575.503-1.367.863-2.158 1.151a8.259 8.259 0 0 1-2.663.432c-.36 0-.648 0-1.008-.072s-.648-.072-.936-.144c-.575.36-.791.72-.791 1.152 0 .36.144.647.504.791.287.144.72.288 1.295.36.504.072 1.152.144 1.8.144.647 0 1.367.072 2.087.144.72.072 1.439.144 2.087.288.648.144 1.295.36 1.799.648.504.288.936.72 1.296 1.295.287.504.503 1.224.503 2.087 0 .792-.216 1.512-.575 2.303-.36.72-.936 1.368-1.656 1.944-.72.575-1.583 1.007-2.663 1.367-1.08.36-2.23.504-3.598.504-1.296 0-2.447-.144-3.455-.36-1.008-.288-1.8-.576-2.447-1.008-.648-.431-1.151-.935-1.44-1.511-.287-.576-.503-1.152-.503-1.727 0-.864.216-1.512.72-2.087.503-.576 1.151-1.008 2.015-1.368-.432-.216-.864-.576-1.08-.935-.144-.504-.288-1.008-.288-1.656 0-.288.072-.504.144-.792.072-.287.216-.575.432-.863.216-.288.432-.504.72-.792.288-.216.647-.504 1.007-.648-.863-.503-1.583-1.151-2.087-1.943-.504-.791-.72-1.727-.72-2.807 0-.863.144-1.655.504-2.375s.792-1.295 1.44-1.8c.647-.503 1.367-.863 2.159-1.15a8.7 8.7 0 0 1 2.735-.432c.72 0 1.44.071 2.087.215.648.144 1.223.36 1.8.648h5.037zm-4.174 17.921c0-.36-.072-.648-.288-.864-.216-.215-.504-.36-.864-.503-.36-.144-.791-.216-1.223-.288-.432-.072-.936-.072-1.512-.144-.503 0-1.08-.072-1.655-.072-.576 0-1.08-.072-1.655-.144-.432.288-.864.576-1.152.936-.288.36-.432.791-.432 1.223 0 .288.072.576.216.864.144.288.432.504.72.72.36.215.792.36 1.296.431.503.072 1.151.144 1.943.144.791 0 1.44-.072 2.015-.216.576-.144 1.007-.288 1.367-.504.36-.216.648-.431.792-.791.144-.36.432-.432.432-.792zm-4.75-10.076c.504 0 1.007-.072 1.367-.216.36-.144.72-.36.936-.576.216-.216.432-.575.576-.935.144-.36.215-.72.215-1.152 0-.863-.287-1.583-.791-2.087-.504-.504-1.296-.792-2.303-.792-1.008 0-1.8.288-2.303.792-.504.504-.792 1.224-.792 2.087 0 .432.072.792.216 1.152.144.36.288.648.576.935.288.288.576.432.935.576.432.144.864.216 1.368.216z"/><path d="M84.869 20.411c.072.936.216 1.727.504 2.375a4.27 4.27 0 0 0 1.007 1.655c.432.432.864.72 1.44.936.575.216 1.151.288 1.87.288.72 0 1.296-.072 1.728-.216.504-.144.936-.36 1.295-.504.36-.216.72-.36.936-.504.288-.143.576-.215.792-.215.36 0 .576.143.791.431l1.224 1.584c-.432.576-1.008 1.007-1.583 1.367a8.285 8.285 0 0 1-1.8.864c-.647.216-1.295.36-1.943.504-.648.072-1.295.144-1.871.144a8.847 8.847 0 0 1-3.383-.648c-1.007-.432-1.943-1.008-2.735-1.8-.791-.791-1.367-1.799-1.799-2.95-.432-1.152-.648-2.52-.648-4.103 0-1.223.216-2.375.576-3.382a7.843 7.843 0 0 1 1.655-2.807 7.134 7.134 0 0 1 2.663-1.871 9.06 9.06 0 0 1 3.527-.72c1.08 0 2.087.144 3.023.504.935.36 1.727.863 2.375 1.583.648.72 1.223 1.511 1.583 2.519.36 1.008.576 2.16.576 3.383 0 .647-.072 1.08-.216 1.295-.144.216-.432.36-.792.36H84.87v-.072zm7.989-2.519c0-.576-.073-1.08-.216-1.583-.144-.504-.36-.936-.72-1.296-.288-.36-.72-.647-1.152-.864-.504-.215-1.007-.287-1.655-.287-1.224 0-2.16.36-2.879 1.08-.72.719-1.151 1.727-1.367 2.95h7.989zM112.289 24.946v3.814H97.895V3.786h4.534v21.16h9.86zM117.328 5.873c0 .36-.072.72-.216 1.007-.144.288-.36.576-.576.864a2.589 2.589 0 0 1-.864.576 2.63 2.63 0 0 1-1.079.216 2.3 2.3 0 0 1-1.008-.216c-.288-.144-.576-.36-.864-.576a2.586 2.586 0 0 1-.575-.864 2.298 2.298 0 0 1-.216-1.007c0-.36.072-.72.216-1.08.144-.36.359-.648.575-.864.216-.216.504-.431.864-.575a2.3 2.3 0 0 1 1.008-.216c.359 0 .719.072 1.079.216.36.144.648.36.864.575.216.216.432.504.576.864.144.36.216.72.216 1.08zm-.576 5.182v17.704h-4.247V11.055h4.247zM122.438 13.213c.36-.36.719-.72 1.079-1.007.36-.288.792-.576 1.224-.792.432-.216.935-.36 1.367-.504.432-.144 1.008-.216 1.656-.216.935 0 1.799.144 2.519.504.719.36 1.367.792 1.871 1.368.504.575.863 1.295 1.151 2.087.288.791.36 1.727.36 2.735v11.3h-4.174V17.46c0-1.08-.216-1.944-.72-2.52-.504-.575-1.223-.863-2.231-.863-.72 0-1.439.144-2.015.504a7.914 7.914 0 0 0-1.799 1.367V28.76h-4.175V11.054h2.591c.576 0 .936.288 1.08.792l.216 1.367zM138.343 20.411c.072.936.216 1.727.504 2.375a4.257 4.257 0 0 0 1.007 1.655c.432.432.864.72 1.44.936.575.216 1.151.288 1.871.288s1.295-.072 1.727-.216c.504-.144.936-.36 1.296-.504.36-.216.719-.36.935-.504.288-.143.576-.215.792-.215.36 0 .576.143.792.431l1.223 1.584c-.432.576-1.007 1.007-1.583 1.367a8.303 8.303 0 0 1-1.799.864c-.648.216-1.296.36-1.944.504-.647.072-1.295.144-1.871.144a8.852 8.852 0 0 1-3.383-.648c-1.007-.432-1.943-1.008-2.735-1.8-.791-.791-1.367-1.799-1.799-2.95-.432-1.152-.648-2.52-.648-4.103 0-1.223.216-2.375.576-3.382a7.842 7.842 0 0 1 1.656-2.807 7.125 7.125 0 0 1 2.663-1.871 9.056 9.056 0 0 1 3.526-.72c1.08 0 2.087.144 3.023.504.936.36 1.727.863 2.375 1.583.648.72 1.223 1.511 1.583 2.519.36 1.008.576 2.16.576 3.383 0 .647-.072 1.08-.216 1.295-.144.216-.432.36-.792.36h-10.795v-.072zm7.989-2.519a5.61 5.61 0 0 0-.216-1.583c-.144-.504-.36-.936-.72-1.296-.288-.36-.72-.647-1.152-.864-.503-.215-1.007-.287-1.655-.287-1.223 0-2.159.36-2.879 1.08-.719.719-1.151 1.727-1.367 2.95h7.989z"/><path d="M161.374 14.51c-.144.216-.216.288-.36.36-.144.072-.287.144-.503.144-.216 0-.432-.072-.648-.144-.216-.144-.504-.216-.792-.36a3.799 3.799 0 0 0-1.079-.36c-.432-.072-.864-.144-1.368-.144-.792 0-1.439.144-1.943.504s-.72.792-.72 1.367c0 .36.144.72.36.936.216.216.576.504.936.648.432.216.863.36 1.367.504.504.144 1.008.36 1.584.503.575.144 1.079.36 1.583.648.504.216.936.504 1.367.864.432.36.72.792.936 1.295.216.504.36 1.152.36 1.8 0 .863-.144 1.655-.432 2.375-.288.72-.72 1.367-1.367 1.871a6.279 6.279 0 0 1-2.16 1.223c-.863.288-1.871.432-3.022.432-.576 0-1.152-.072-1.728-.144-.575-.072-1.151-.288-1.655-.431-.504-.144-1.008-.432-1.439-.72-.432-.288-.864-.576-1.152-.864l.936-1.655c.144-.216.288-.36.431-.432.144-.072.36-.144.648-.144.288 0 .504.072.72.216.216.144.504.288.792.504.287.216.647.36 1.079.504.432.143.936.216 1.584.216.503 0 .935-.073 1.295-.216.36-.144.648-.288.864-.504.216-.216.432-.432.503-.648.072-.288.144-.504.144-.792 0-.431-.144-.72-.359-1.007-.216-.288-.576-.504-.936-.72-.432-.216-.864-.36-1.368-.504-.503-.144-1.007-.36-1.583-.504-.504-.215-1.079-.431-1.583-.647a4.613 4.613 0 0 1-1.368-.936c-.432-.36-.719-.864-.935-1.367a5.599 5.599 0 0 1-.36-2.016c0-.72.144-1.439.432-2.087.288-.647.719-1.223 1.223-1.727.576-.504 1.224-.864 2.087-1.152.864-.287 1.8-.431 2.879-.431a9.68 9.68 0 0 1 3.311.575c1.007.432 1.799.936 2.447 1.584l-1.008 1.583z"/></g><defs><clipPath id="clip0"><path fill="#fff" d="M0 0h164.195v36H0z"/></clipPath></defs></svg>