<svg width="200" height="200" viewBox="0 0 200 200" fill="none" xmlns="http://www.w3.org/2000/svg">
<rect width="200" height="200" fill="#5435FF"/>
<g filter="url(#filter0_d)">
<path fill-rule="evenodd" clip-rule="evenodd" d="M66.38 111.617H116.544C120.29 111.617 122.5 110.198 123.965 108.401C125.853 105.896 126.854 102.797 126.801 99.6209C126.837 96.0503 125.738 93.0177 124.119 91.0611C122.689 89.3614 120.361 87.7717 115.953 87.7717H59.2306C56.5244 87.7717 54.2201 87.0014 52.7311 86.3899C51.1609 85.7258 49.6503 84.9197 48.2169 83.981C45.3687 82.1104 42.7223 79.9295 40.323 77.4755C37.7115 74.8622 35.4214 71.9256 33.5045 68.7323C31.6964 65.6386 29.6875 61.1508 29.6875 55.9783V43.75H115.953C130.37 43.75 144.197 49.6763 154.391 60.2252C164.585 70.7742 170.312 85.0816 170.312 100C170.312 114.918 164.585 129.226 154.391 139.775C144.197 150.324 130.37 156.25 115.953 156.25H95.864C86.0793 156.25 78.6108 149.402 74.5457 144.291C72.2693 141.441 70.3624 138.297 68.8734 134.936C67.2694 131.448 66.3994 127.646 66.3209 123.784L66.38 111.617ZM48.0751 68.2065C52.0339 72.3641 56.7608 75.5435 59.2306 75.5435H115.953C146.678 75.5435 145.496 123.845 116.544 123.845H78.1381V123.931C78.1499 127.245 80.2061 132.014 83.3141 136.073C86.682 140.463 91.2789 144.022 95.864 144.022H115.953C127.236 144.022 138.057 139.384 146.035 131.128C154.013 122.872 158.495 111.675 158.495 100C158.495 88.3247 154.013 77.1276 146.035 68.8719C138.057 60.6163 127.236 55.9783 115.953 55.9783H41.5047C41.5047 59.769 44.459 64.4035 48.0751 68.2065Z" fill="white"/>
<path fill-rule="evenodd" clip-rule="evenodd" d="M53.7935 108.194C49.0903 100.099 45.6396 89.8513 45.6396 81.6583H57.4569C57.4569 86.9165 59.9149 95.0116 63.9209 101.896C65.5718 104.867 67.6565 107.557 70.1013 109.869C72.2402 111.764 73.7647 112.229 74.5919 112.229V124.457C69.8177 124.457 65.6462 122.012 62.4083 119.138C59.0016 115.978 56.0948 112.285 53.7935 108.194Z" fill="white"/>
</g>
<defs>
<filter id="filter0_d" x="27.6875" y="43.75" width="144.625" height="116.5" filterUnits="userSpaceOnUse" color-interpolation-filters="sRGB">
<feFlood flood-opacity="0" result="BackgroundImageFix"/>
<feColorMatrix in="SourceAlpha" type="matrix" values="0 0 0 0 0 0 0 0 0 0 0 0 0 0 0 0 0 0 127 0"/>
<feOffset dy="2"/>
<feGaussianBlur stdDeviation="1"/>
<feColorMatrix type="matrix" values="0 0 0 0 0 0 0 0 0 0 0 0 0 0 0 0 0 0 0.15 0"/>
<feBlend mode="normal" in2="BackgroundImageFix" result="effect1_dropShadow"/>
<feBlend mode="normal" in="SourceGraphic" in2="effect1_dropShadow" result="shape"/>
</filter>
</defs>
</svg>
