<?xml version="1.0" encoding="utf-8"?>
<!-- Generator: Adobe Illustrator 25.0.1, SVG Export Plug-In . SVG Version: 6.00 Build 0)  -->
<svg version="1.1" id="Layer_1" xmlns="http://www.w3.org/2000/svg" xmlns:xlink="http://www.w3.org/1999/xlink" x="0px" y="0px" viewBox="0 0 1187.46 235.68" style="enable-background:new 0 0 1187.46 235.68;" xml:space="preserve">
  <style type="text/css">
	.st0{fill-rule:evenodd;clip-rule:evenodd;fill:#5435FF;}
	.st1{fill:#FFFFFF;}
</style>
  <g>
    <path class="st0" d="M261.24,34.51C239.88,12.41,210.92,0,180.72,0H0v25.62c0,10.84,4.21,20.24,8,26.72
		c4.02,6.69,8.81,12.84,14.28,18.32c3.49,3.57,7.24,6.84,11.19,9.83c0.28,16.98,7.37,37.91,17.03,54.52
		c4.82,8.57,10.91,16.31,18.05,22.93c2.49,2.21,5.24,4.28,8.21,6.04l-0.02,3.69c0.16,8.09,1.99,16.05,5.35,23.36
		c3.12,7.04,7.11,13.63,11.88,19.6c8.52,10.71,24.16,25.05,44.66,25.05h42.09c30.2,0,59.17-12.41,80.52-34.51
		c21.36-22.1,33.35-52.07,33.35-83.32C294.59,86.59,282.6,56.61,261.24,34.51z M89.82,142.17c-1.46-0.76-3.18-1.9-5.16-3.66
		c-5.12-4.84-9.49-10.48-12.95-16.7c-5.6-9.63-9.71-20.36-11.86-29.72c0.68,0.05,1.33,0.14,2.03,0.14h118.83
		c9.23,0,14.11,3.33,17.11,6.89c3.39,4.1,5.69,10.45,5.62,17.93c0.11,6.65-1.99,13.15-5.94,18.39c-3.07,3.77-7.7,6.74-15.55,6.74
		H89.82z M243.74,183.05c-16.71,17.29-39.38,27.01-63.02,27.01h-42.09c-9.61,0-19.24-7.45-26.29-16.65
		c-6.51-8.5-10.82-18.5-10.84-25.44v-0.18h80.46c60.65,0,63.13-101.19-1.24-101.19H61.89c-5.17,0-15.08-6.66-23.37-15.37
		c-7.58-7.97-13.76-17.68-13.76-25.62h155.96c23.64,0,46.3,9.72,63.02,27.01s26.1,40.75,26.1,65.21
		C269.84,142.3,260.45,165.75,243.74,183.05z" />
    <g>
      <path class="st1" d="M418.43,23.96c-26.71,0-46.24,0.19-58.06,0.56l-0.39,0.04c-2.55,0.43-4.13,2.39-4.13,5.13v182.62
			c0,4.02,2.48,5.45,4.54,5.45h0c17.31,0.37,35.13,0.56,52.96,0.56c9.91,0,19.72-1.02,29.17-3.02c9.51-2.02,18.99-5.47,28.18-10.26
			c9.25-4.82,17.42-10.98,24.28-18.32c6.9-7.39,12.55-17.05,16.79-28.71c4.22-11.63,6.37-24.79,6.37-39.13
			c0-28.04-8.61-51.12-25.59-68.58C475.55,32.83,450.61,23.96,418.43,23.96z M397.43,56.59c3.26-0.18,9.42-0.34,21-0.34
			c18.21,0,32.45,5.28,42.34,15.69c9.91,10.45,14.85,26.43,14.67,47.51c0,22.73-5.39,39.69-16.04,50.42
			c-10.63,10.72-25.84,16.16-45.2,16.16c-5.47,0-11.1-0.14-16.78-0.41V56.59z" />
      <path class="st1" d="M650.39,130.15c0-17.2-5-31.26-14.85-41.81c-9.92-10.6-24.65-15.98-43.78-15.98
			c-19.19,0-38.21,3.87-50.93,10.37c-2.19,0.84-3.44,2.83-3.44,5.5l3.9,21.95c0.06,1.92,0.74,3.29,2.01,4.07
			c0.88,0.55,2.38,0.98,4.5-0.07c12.28-6.32,24.8-9.53,37.21-9.53c6.88,0,12.39,1.35,16.39,4.01c3.94,2.62,6.34,5.16,7.16,7.52
			c0.92,2.69,1.39,5.4,1.39,8.06v1.81c-1-0.02-2.26-0.05-3.77-0.09c-4.15-0.09-7.83-0.14-11.04-0.14
			c-19.98,0-36.27,3.89-48.41,11.57c-12.57,7.95-18.95,19.81-18.95,35.25c0,16.12,5.67,28.33,16.84,36.29
			c10.86,7.73,25.12,11.66,42.36,11.66c20.97,0,41.74-4.73,61.4-13.93c1.76-0.58,2.86-2.07,2.83-4.28
			c-0.54-4.17-0.82-10.29-0.82-18.19V130.15z M593.17,190.82c-8.58,0-14.92-1.82-18.85-5.42c-3.91-3.58-5.81-8.12-5.81-13.89
			c0-5.78,2.26-10.15,6.9-13.35c4.92-3.39,12.22-5.11,21.7-5.11c5.4,0,9.7,0.22,12.84,0.65v34.39
			C604.95,189.91,599.32,190.82,593.17,190.82z" />
      <path class="st1" d="M744.12,72.36c-17.76,0-26.22,6.41-35.19,17.29c-0.65-4.33-1.44-7.71-2.37-10.23
			c-0.96-2.88-3.1-4.53-5.87-4.53h-27.86c-1.92,0-3.02,0.82-3.61,1.5c-0.59,0.68-1.24,1.9-0.99,3.65c0.92,10.59,1.4,23.28,1.4,37.73
			v94.83c0,3.14,2.14,5.17,5.46,5.17h30.95c3.09,0,5.17-2.08,5.17-5.17v-83.85c0-2.03,0.55-3.56,1.67-4.69
			c9.46-9.46,22.46-13.72,38.73-12.65c3.09,0,5.17-2.08,5.17-5.17l-7.81-29.43C748.8,74.13,746.89,72.36,744.12,72.36z" />
      <path class="st1" d="M971.62,74.89h-28.98c-2.7,0-4.64,1.62-5.11,4.26c-9.26,32.67-16.99,62.8-23.02,89.77
			c-3.85-16.78-11.18-46.4-22.16-89.55c-0.4-2.76-2.26-4.47-4.86-4.47h-30.39c-1.42,0-3.99,0.59-5.36,4.7
			c-9.88,37.04-17.63,66.37-23.59,89.17c-4.15-19.36-11.39-48.92-21.98-89.72l-0.14-0.41c-1.01-2.38-2.91-3.74-5.22-3.74h-31.8
			c-2.2,0-3.41,0.93-4.03,1.72c-0.63,0.79-1.28,2.19-0.75,4.54l37.74,132.09c0.96,2.88,3.31,4.53,6.43,4.53h31.23
			c3.08,0,5.23-1.85,5.68-4.84c3.18-10.85,7.15-24.53,11.9-41.02l10.83-37.56c0.79-2.74,1.49-5.26,2.1-7.55
			c3.84,16.22,10.96,45.14,21.3,86.45c0.96,2.88,3.1,4.53,5.87,4.53h31.51c1.44,0,4.11-0.55,5.89-4.58l41.31-132.1
			c0.78-2.09,0.26-3.52-0.31-4.35C975.14,75.9,973.96,74.89,971.62,74.89z M889.28,79.13C889.28,79.13,889.28,79.12,889.28,79.13
			l0.02-0.01L889.28,79.13z" />
      <path class="st1" d="M1027.85,74.89h-31.23c-3.09,0-5.17,2.08-5.17,5.17v132.25c0,3.31,2.14,5.45,5.46,5.45h30.95
			c3.09,0,5.17-2.08,5.17-5.17V80.07C1033.02,76.97,1030.94,74.89,1027.85,74.89z" />
      <path class="st1" d="M1012.66,13.55c-6.41,0-11.74,2.09-15.86,6.2c-4.12,4.12-6.2,9.45-6.2,15.85c0,6.59,1.99,11.92,5.92,15.85
			c3.93,3.93,9.26,5.92,15.86,5.92c6.59,0,11.92-1.99,15.85-5.92c3.93-3.93,5.92-9.26,5.92-15.85c0-6.37-1.97-11.69-5.87-15.8
			C1024.34,15.66,1019.09,13.55,1012.66,13.55z" />
      <path class="st1" d="M1172.45,86.07c-9.9-9.1-21.73-13.71-35.18-13.71c-14.71,0-27.74,4.42-38.81,13.16
			c-0.38-2.45-0.87-4.59-1.47-6.37l-0.3-0.63c-1.88-2.99-4.37-3.62-6.13-3.62h-27.01c-2.1,0-3.24,0.91-3.84,1.67
			c-0.57,0.74-1.16,2.02-0.74,3.97c0.73,7.78,1.1,17.84,1.1,29.92v101.86c0,3.31,2.03,5.45,5.17,5.45h30.95
			c3.31,0,5.46-2.03,5.46-5.17v-96.23c6.64-7.12,14.44-10.59,23.81-10.59c6.82,0,11.79,2.04,15.17,6.23
			c3.5,4.33,5.27,10.52,5.27,18.42v81.88c0,3.31,2.14,5.45,5.45,5.45h30.96c3.14,0,5.17-2.14,5.17-5.45v-81.04
			C1187.46,110.45,1182.41,95.24,1172.45,86.07z" />
    </g>
  </g>
</svg>
