<svg version="1.1" xmlns="http://www.w3.org/2000/svg" x="0" y="0"  viewBox="0 0 1197.46 275.68"  xml:space="preserve" style="overflow:visible">
<defs>
  <filter id="shadow" x="-20%" y="-20%" width="160%" height="160%" filterUnits="objectBoundingBox" primitiveUnits="userSpaceOnUse" color-interpolation-filters="linearRGB">
    <feDropShadow stdDeviation="10" in="SourceGraphic" dx="0" dy="10" flood-color="#000000" flood-opacity="0.4" x="0%" y="0%" width="100%" height="100%" result="dropShadow"/>
    <feDropShadow stdDeviation="10" in="SourceGraphic" dx="0" dy="25" flood-color="#000000" flood-opacity="0.2" x="0%" y="0%" width="100%" height="100%" result="dropShadow"/>
  </filter>
</defs>

  <style>
    .icon{
      fill: #fff;
      filter:url(#shadow);
    }
  	.letters{
      fill: #fff;
      filter:url(#shadow);
    }
  </style>

  <path class="icon" d="M261.24 34.51C239.88 12.41 210.92 0 180.72 0H0v25.62c0 10.84 4.21 20.24 8 26.72a95.637 95.637 0 0014.28 18.32c3.49 3.57 7.24 6.84 11.19 9.83.28 16.98 7.37 37.91 17.03 54.52a94.28 94.28 0 0018.05 22.93c2.49 2.21 5.24 4.28 8.21 6.04l-.02 3.69c.16 8.09 1.99 16.05 5.35 23.36a89.447 89.447 0 0011.88 19.6c8.52 10.71 24.16 25.05 44.66 25.05h42.09c30.2 0 59.17-12.41 80.52-34.51 21.36-22.1 33.35-52.07 33.35-83.32 0-31.26-11.99-61.24-33.35-83.34zM89.82 142.17c-1.46-.76-3.18-1.9-5.16-3.66a69.404 69.404 0 01-12.95-16.7c-5.6-9.63-9.71-20.36-11.86-29.72.68.05 1.33.14 2.03.14h118.83c9.23 0 14.11 3.33 17.11 6.89 3.39 4.1 5.69 10.45 5.62 17.93.11 6.65-1.99 13.15-5.94 18.39-3.07 3.77-7.7 6.74-15.55 6.74H89.82zm153.92 40.88c-16.71 17.29-39.38 27.01-63.02 27.01h-42.09c-9.61 0-19.24-7.45-26.29-16.65-6.51-8.5-10.82-18.5-10.84-25.44v-.18h80.46c60.65 0 63.13-101.19-1.24-101.19H61.89c-5.17 0-15.08-6.66-23.37-15.37-7.58-7.97-13.76-17.68-13.76-25.62h155.96c23.64 0 46.3 9.72 63.02 27.01s26.1 40.75 26.1 65.21c0 24.47-9.39 47.92-26.1 65.22z" fill-rule="evenodd" clip-rule="evenodd"/>
  <path class="letters" d="M418.43 23.96c-26.71 0-46.24.19-58.06.56l-.39.04c-2.55.43-4.13 2.39-4.13 5.13v182.62c0 4.02 2.48 5.45 4.54 5.45 17.31.37 35.13.56 52.96.56 9.91 0 19.72-1.02 29.17-3.02 9.51-2.02 18.99-5.47 28.18-10.26 9.25-4.82 17.42-10.98 24.28-18.32 6.9-7.39 12.55-17.05 16.79-28.71 4.22-11.63 6.37-24.79 6.37-39.13 0-28.04-8.61-51.12-25.59-68.58-17-17.47-41.94-26.34-74.12-26.34zm-21 32.63c3.26-.18 9.42-.34 21-.34 18.21 0 32.45 5.28 42.34 15.69 9.91 10.45 14.85 26.43 14.67 47.51 0 22.73-5.39 39.69-16.04 50.42-10.63 10.72-25.84 16.16-45.2 16.16-5.47 0-11.1-.14-16.78-.41V56.59zM650.39 130.15c0-17.2-5-31.26-14.85-41.81-9.92-10.6-24.65-15.98-43.78-15.98-19.19 0-38.21 3.87-50.93 10.37-2.19.84-3.44 2.83-3.44 5.5l3.9 21.95c.06 1.92.74 3.29 2.01 4.07.88.55 2.38.98 4.5-.07 12.28-6.32 24.8-9.53 37.21-9.53 6.88 0 12.39 1.35 16.39 4.01 3.94 2.62 6.34 5.16 7.16 7.52.92 2.69 1.39 5.4 1.39 8.06v1.81c-1-.02-2.26-.05-3.77-.09-4.15-.09-7.83-.14-11.04-.14-19.98 0-36.27 3.89-48.41 11.57-12.57 7.95-18.95 19.81-18.95 35.25 0 16.12 5.67 28.33 16.84 36.29 10.86 7.73 25.12 11.66 42.36 11.66 20.97 0 41.74-4.73 61.4-13.93 1.76-.58 2.86-2.07 2.83-4.28-.54-4.17-.82-10.29-.82-18.19v-54.04zm-57.22 60.67c-8.58 0-14.92-1.82-18.85-5.42-3.91-3.58-5.81-8.12-5.81-13.89 0-5.78 2.26-10.15 6.9-13.35 4.92-3.39 12.22-5.11 21.7-5.11 5.4 0 9.7.22 12.84.65v34.39c-5 1.82-10.63 2.73-16.78 2.73zM744.12 72.36c-17.76 0-26.22 6.41-35.19 17.29-.65-4.33-1.44-7.71-2.37-10.23-.96-2.88-3.1-4.53-5.87-4.53h-27.86c-1.92 0-3.02.82-3.61 1.5-.59.68-1.24 1.9-.99 3.65.92 10.59 1.4 23.28 1.4 37.73v94.83c0 3.14 2.14 5.17 5.46 5.17h30.95c3.09 0 5.17-2.08 5.17-5.17v-83.85c0-2.03.55-3.56 1.67-4.69 9.46-9.46 22.46-13.72 38.73-12.65 3.09 0 5.17-2.08 5.17-5.17l-7.81-29.43c-.17-2.68-2.08-4.45-4.85-4.45zM971.62 74.89h-28.98c-2.7 0-4.64 1.62-5.11 4.26-9.26 32.67-16.99 62.8-23.02 89.77-3.85-16.78-11.18-46.4-22.16-89.55-.4-2.76-2.26-4.47-4.86-4.47H857.1c-1.42 0-3.99.59-5.36 4.7-9.88 37.04-17.63 66.37-23.59 89.17-4.15-19.36-11.39-48.92-21.98-89.72l-.14-.41c-1.01-2.38-2.91-3.74-5.22-3.74h-31.8c-2.2 0-3.41.93-4.03 1.72-.63.79-1.28 2.19-.75 4.54l37.74 132.09c.96 2.88 3.31 4.53 6.43 4.53h31.23c3.08 0 5.23-1.85 5.68-4.84 3.18-10.85 7.15-24.53 11.9-41.02l10.83-37.56c.79-2.74 1.49-5.26 2.1-7.55 3.84 16.22 10.96 45.14 21.3 86.45.96 2.88 3.1 4.53 5.87 4.53h31.51c1.44 0 4.11-.55 5.89-4.58l41.31-132.1c.78-2.09.26-3.52-.31-4.35-.57-.86-1.75-1.87-4.09-1.87zm-82.34 4.24s0-.01 0 0l.02-.01-.02.01zM1027.85 74.89h-31.23c-3.09 0-5.17 2.08-5.17 5.17v132.25c0 3.31 2.14 5.45 5.46 5.45h30.95c3.09 0 5.17-2.08 5.17-5.17V80.07c-.01-3.1-2.09-5.18-5.18-5.18zM1012.66 13.55c-6.41 0-11.74 2.09-15.86 6.2-4.12 4.12-6.2 9.45-6.2 15.85 0 6.59 1.99 11.92 5.92 15.85 3.93 3.93 9.26 5.92 15.86 5.92 6.59 0 11.92-1.99 15.85-5.92 3.93-3.93 5.92-9.26 5.92-15.85 0-6.37-1.97-11.69-5.87-15.8-3.94-4.14-9.19-6.25-15.62-6.25zM1172.45 86.07c-9.9-9.1-21.73-13.71-35.18-13.71-14.71 0-27.74 4.42-38.81 13.16-.38-2.45-.87-4.59-1.47-6.37l-.3-.63c-1.88-2.99-4.37-3.62-6.13-3.62h-27.01c-2.1 0-3.24.91-3.84 1.67-.57.74-1.16 2.02-.74 3.97.73 7.78 1.1 17.84 1.1 29.92v101.86c0 3.31 2.03 5.45 5.17 5.45h30.95c3.31 0 5.46-2.03 5.46-5.17v-96.23c6.64-7.12 14.44-10.59 23.81-10.59 6.82 0 11.79 2.04 15.17 6.23 3.5 4.33 5.27 10.52 5.27 18.42v81.88c0 3.31 2.14 5.45 5.45 5.45h30.96c3.14 0 5.17-2.14 5.17-5.45v-81.04c-.02-20.82-5.07-36.03-15.03-45.2z"/>
</svg>
