<?xml version="1.0" encoding="utf-8"?>
<!-- Generator: Adobe Illustrator 21.0.2, SVG Export Plug-In . SVG Version: 6.00 Build 0)  -->
<svg version="1.1" id="Layer_1" xmlns:sketch="http://www.bohemiancoding.com/sketch/ns"
	 xmlns="http://www.w3.org/2000/svg" xmlns:xlink="http://www.w3.org/1999/xlink" x="0px" y="0px" viewBox="0 0 80 80"
	 style="enable-background:new 0 0 80 80;" xml:space="preserve">
<style type="text/css">
	.st0{fill:#4285F4;}
	.st1{fill:#34A853;}
	.st2{fill:#FBBC05;}
	.st3{fill:#EA4335;}
	.st4{fill:none;}
</style>
<title>btn_google_light_normal_ios</title>
<desc>Created with Sketch.</desc>
<g id="Google-Button" sketch:type="MSPage">
	<g id="_x39_-PATCH" transform="translate(-608.000000, -160.000000)" sketch:type="MSArtboardGroup">
	</g>
	<g id="btn_google_light_normal" transform="translate(-1.000000, -1.000000)" sketch:type="MSArtboardGroup">
		<g id="logo_googleg_48dp" transform="translate(15.000000, 15.000000)" sketch:type="MSLayerGroup">
			<path id="Shape" sketch:type="MSShapeGroup" class="st0" d="M64.4,26.9c0-2.8-0.3-5.6-0.7-8.2H26v15.5h21.5
				c-0.9,5-3.7,9.2-8,12.1v10h12.9C60,49.3,64.4,39.1,64.4,26.9L64.4,26.9z"/>
			<path id="Shape_1_" sketch:type="MSShapeGroup" class="st1" d="M26,66c10.8,0,19.9-3.6,26.5-9.7l-12.9-10
				c-3.6,2.4-8.2,3.8-13.5,3.8c-10.4,0-19.2-7-22.4-16.5H-9.7V44C-3.2,57,10.4,66,26,66L26,66z"/>
			<path id="Shape_2_" sketch:type="MSShapeGroup" class="st2" d="M3.6,33.6c-0.8-2.4-1.3-5-1.3-7.6s0.5-5.2,1.3-7.6V8H-9.7
				c-2.7,5.4-4.3,11.5-4.3,18s1.5,12.6,4.3,18L3.6,33.6L3.6,33.6z"/>
			<path id="Shape_3_" sketch:type="MSShapeGroup" class="st3" d="M26,1.9c5.9,0,11.1,2,15.3,6L52.8-3.6C45.8-10,36.8-14,26-14
				C10.4-14-3.2-5-9.7,8L3.6,18.4C6.8,8.9,15.6,1.9,26,1.9L26,1.9z"/>
			<path id="Shape_4_" sketch:type="MSShapeGroup" class="st4" d="M-14-14h80v80h-80V-14z"/>
		</g>
		<g id="handles_square" sketch:type="MSLayerGroup">
		</g>
	</g>
</g>
</svg>
