<svg xmlns="http://www.w3.org/2000/svg" fill="none" viewBox="0 0 400 690">
  <defs />

  <path fill="#10b981" fill-rule="evenodd"
    d="M27.5 33a2.5 2.5 0 012.5-2.5h18.96a2.5 2.5 0 010 5H30.01a2.5 2.5 0 01-2.5-2.5z" clip-rule="evenodd" />
  <path fill="rgba(255,255,255,.2)" fill-rule="evenodd"
    d="M54.46 33a2.5 2.5 0 012.5-2.5h34.75a2.5 2.5 0 010 5H56.96a2.5 2.5 0 01-2.5-2.5zM36.98 43a2.5 2.5 0 012.5-2.5h31.6a2.5 2.5 0 010 5h-31.6a2.5 2.5 0 01-2.5-2.5z"
    clip-rule="evenodd" />
  <path fill="rgba(255,255,255,.8)" fill-rule="evenodd"
    d="M76.57 43a2.5 2.5 0 012.5-2.5h12.64a2.5 2.5 0 010 5H79.07a2.5 2.5 0 01-2.5-2.5zM43.5 53a2.5 2.5 0 012.5-2.5h9.48a2.5 2.5 0 010 5H46a2.5 2.5 0 01-2.5-2.5z"
    clip-rule="evenodd" />
  <path fill="rgba(255,255,255,.2)" fill-rule="evenodd"
    d="M60.98 53a2.5 2.5 0 012.5-2.5h44.22a2.5 2.5 0 110 5H63.48a2.5 2.5 0 01-2.5-2.5z" clip-rule="evenodd" />
  <path fill="rgba(255,255,255,.8)" fill-rule="evenodd"
    d="M113.2 53a2.5 2.5 0 012.5-2.5h12.63a2.5 2.5 0 110 5H115.7a2.5 2.5 0 01-2.5-2.5z" clip-rule="evenodd" />
  <path fill="rgba(255,255,255,.2)" fill-rule="evenodd"
    d="M133.83 53a2.5 2.5 0 012.5-2.5h37.9a2.5 2.5 0 110 5h-37.9a2.5 2.5 0 01-2.5-2.5z" clip-rule="evenodd" />
  <path fill="rgba(255,255,255,.2)" fill-rule="evenodd"
    d="M179.74 53a2.5 2.5 0 012.5-2.5h50.54a2.5 2.5 0 010 5h-50.54a2.5 2.5 0 01-2.5-2.5z" clip-rule="evenodd" />
  <path fill="rgba(255,255,255,.8)" fill-rule="evenodd"
    d="M43.5 63a2.5 2.5 0 012.5-2.5h9.48a2.5 2.5 0 010 5H46a2.5 2.5 0 01-2.5-2.5z" clip-rule="evenodd" />
  <path fill="rgba(255,255,255,.2)" fill-rule="evenodd"
    d="M60.5 63a2.5 2.5 0 012.5-2.5h31.59a2.5 2.5 0 010 5H63a2.5 2.5 0 01-2.5-2.5z" clip-rule="evenodd" />
  <path fill="rgba(255,255,255,.8)" fill-rule="evenodd"
    d="M100.5 63a2.5 2.5 0 012.5-2.5h9.48a2.5 2.5 0 110 5H103a2.5 2.5 0 01-2.5-2.5z" clip-rule="evenodd" />
  <path fill="rgba(255,255,255,.2)" fill-rule="evenodd"
    d="M117.5 63a2.5 2.5 0 012.5-2.5h44.22a2.5 2.5 0 110 5H120a2.5 2.5 0 01-2.5-2.5z" clip-rule="evenodd" />
  <path fill="rgba(255,255,255,.2)" fill-rule="evenodd"
    d="M169.5 63a2.5 2.5 0 012.5-2.5h47.38a2.5 2.5 0 110 5H172a2.5 2.5 0 01-2.5-2.5z" clip-rule="evenodd" />
  <path fill="rgba(255,255,255,.2)" fill-rule="evenodd"
    d="M224.5 63a2.5 2.5 0 012.5-2.5h63.18a2.5 2.5 0 010 5H227a2.5 2.5 0 01-2.5-2.5z" clip-rule="evenodd" />
  <path fill="rgba(255,255,255,.8)" fill-rule="evenodd"
    d="M53.5 73a2.5 2.5 0 012.5-2.5h9.48a2.5 2.5 0 010 5H56a2.5 2.5 0 01-2.5-2.5z" clip-rule="evenodd" />
  <path fill="rgba(255,255,255,.2)" fill-rule="evenodd"
    d="M70.98 73a2.5 2.5 0 012.5-2.5h15.79a2.5 2.5 0 110 5h-15.8a2.5 2.5 0 01-2.5-2.5zM94.77 73a2.5 2.5 0 012.5-2.5h12.64a2.5 2.5 0 010 5H97.27a2.5 2.5 0 01-2.5-2.5z"
    clip-rule="evenodd" />
  <path fill="rgba(255,255,255,.8)" fill-rule="evenodd"
    d="M115.4 73a2.5 2.5 0 012.5-2.5h9.48a2.5 2.5 0 110 5h-9.47a2.5 2.5 0 01-2.5-2.5zM63.5 83a2.5 2.5 0 012.5-2.5h9.48a2.5 2.5 0 010 5H66a2.5 2.5 0 01-2.5-2.5z"
    clip-rule="evenodd" />
  <path fill="rgba(255,255,255,.2)" fill-rule="evenodd"
    d="M80.98 83a2.5 2.5 0 012.5-2.5h15.79a2.5 2.5 0 110 5h-15.8a2.5 2.5 0 01-2.5-2.5zM104.77 83a2.5 2.5 0 012.5-2.5h19.23a2.5 2.5 0 110 5h-19.23a2.5 2.5 0 01-2.5-2.5z"
    clip-rule="evenodd" />
  <path fill="rgba(255,255,255,.8)" fill-rule="evenodd"
    d="M132 83a2.5 2.5 0 012.5-2.5h9.48a2.5 2.5 0 110 5h-9.48A2.5 2.5 0 01132 83z" clip-rule="evenodd" />
  <path fill="rgba(255,255,255,.2)" fill-rule="evenodd"
    d="M80.98 93a2.5 2.5 0 012.5-2.5H106a2.5 2.5 0 110 5H83.48a2.5 2.5 0 01-2.5-2.5z" clip-rule="evenodd" />
  <path fill="rgba(255,255,255,.8)" fill-rule="evenodd"
    d="M63.5 93a2.5 2.5 0 012.5-2.5h9.48a2.5 2.5 0 010 5H66a2.5 2.5 0 01-2.5-2.5zM43.5 113a2.5 2.5 0 012.5-2.5h9.48a2.5 2.5 0 110 5H46a2.5 2.5 0 01-2.5-2.5z"
    clip-rule="evenodd" />
  <path fill="rgba(255,255,255,.2)" fill-rule="evenodd"
    d="M60.98 113a2.5 2.5 0 012.5-2.5h47.38a2.5 2.5 0 110 5H63.48a2.5 2.5 0 01-2.5-2.5z" clip-rule="evenodd" />
  <path fill="rgba(255,255,255,.8)" fill-rule="evenodd"
    d="M124.36 113a2.5 2.5 0 012.5-2.5h9.47a2.5 2.5 0 110 5h-9.47a2.5 2.5 0 01-2.5-2.5z" clip-rule="evenodd" />
  <path fill="rgba(255,255,255,.2)" fill-rule="evenodd"
    d="M141.83 113a2.5 2.5 0 012.5-2.5h47.38a2.5 2.5 0 110 5h-47.38a2.5 2.5 0 01-2.5-2.5z" clip-rule="evenodd" />
  <path fill="rgba(255,255,255,.2)" fill-rule="evenodd"
    d="M197.21 113a2.5 2.5 0 012.5-2.5h9.48a2.5 2.5 0 110 5h-9.48a2.5 2.5 0 01-2.5-2.5z" clip-rule="evenodd" />
  <path fill="rgba(255,255,255,.8)" fill-rule="evenodd"
    d="M214.69 113a2.5 2.5 0 012.5-2.5h9.48a2.5 2.5 0 010 5h-9.48a2.5 2.5 0 01-2.5-2.5zM43.3 123a2.5 2.5 0 012.5-2.5h9.48a2.5 2.5 0 110 5H45.8a2.5 2.5 0 01-2.5-2.5z"
    clip-rule="evenodd" />
  <path fill="rgba(255,255,255,.2)" fill-rule="evenodd"
    d="M60.78 123a2.5 2.5 0 012.5-2.5h63.17a2.5 2.5 0 110 5H63.28a2.5 2.5 0 01-2.5-2.5z" clip-rule="evenodd" />
  <path fill="rgba(255,255,255,.8)" fill-rule="evenodd"
    d="M139.95 123a2.5 2.5 0 012.5-2.5h15.8a2.5 2.5 0 110 5h-15.8a2.5 2.5 0 01-2.5-2.5z" clip-rule="evenodd" />
  <path fill="rgba(255,255,255,.2)" fill-rule="evenodd"
    d="M163.75 123a2.5 2.5 0 012.5-2.5h47.38a2.5 2.5 0 110 5h-47.38a2.5 2.5 0 01-2.5-2.5z" clip-rule="evenodd" />
  <path fill="rgba(255,255,255,.8)" fill-rule="evenodd"
    d="M219.13 123a2.5 2.5 0 012.5-2.5h9.47a2.5 2.5 0 110 5h-9.47a2.5 2.5 0 01-2.5-2.5z" clip-rule="evenodd" />
  <path fill="rgba(255,255,255,.2)" fill-rule="evenodd"
    d="M236.6 123a2.5 2.5 0 012.5-2.5h15.8a2.5 2.5 0 110 5h-15.8a2.5 2.5 0 01-2.5-2.5zM260.4 123a2.5 2.5 0 012.5-2.5h28.43a2.5 2.5 0 110 5H262.9a2.5 2.5 0 01-2.5-2.5z"
    clip-rule="evenodd" />
  <path fill="rgba(255,255,255,.8)" fill-rule="evenodd"
    d="M43.3 143a2.5 2.5 0 012.5-2.5h9.48a2.5 2.5 0 110 5H45.8a2.5 2.5 0 01-2.5-2.5z" clip-rule="evenodd" />
  <path fill="rgba(255,255,255,.2)" fill-rule="evenodd"
    d="M60.78 143a2.5 2.5 0 012.5-2.5H75.9a2.5 2.5 0 110 5H63.28a2.5 2.5 0 01-2.5-2.5zM49.5 153a2.5 2.5 0 012.5-2.5h6.32a2.5 2.5 0 110 5H52a2.5 2.5 0 01-2.5-2.5zM63.82 153a2.5 2.5 0 012.5-2.5h6.31a2.5 2.5 0 110 5h-6.31a2.5 2.5 0 01-2.5-2.5zM49.5 163a2.5 2.5 0 012.5-2.5h15.8a2.5 2.5 0 110 5H52a2.5 2.5 0 01-2.5-2.5zM73.3 163a2.5 2.5 0 012.5-2.5h6.31a2.5 2.5 0 110 5H75.8a2.5 2.5 0 01-2.5-2.5zM49.5 173a2.5 2.5 0 012.5-2.5h6.32a2.5 2.5 0 110 5H52a2.5 2.5 0 01-2.5-2.5z"
    clip-rule="evenodd" />
  <path fill="rgba(255,255,255,.8)" fill-rule="evenodd"
    d="M43.3 193a2.5 2.5 0 012.5-2.5h9.48a2.5 2.5 0 110 5H45.8a2.5 2.5 0 01-2.5-2.5z" clip-rule="evenodd" />
  <path fill="rgba(255,255,255,.2)" fill-rule="evenodd"
    d="M60.78 193a2.5 2.5 0 012.5-2.5h44.22a2.5 2.5 0 110 5H63.28a2.5 2.5 0 01-2.5-2.5z" clip-rule="evenodd" />
  <path fill="rgba(255,255,255,.2)" fill-rule="evenodd"
    d="M36.98 213a2.5 2.5 0 012.5-2.5h44.23a2.5 2.5 0 110 5H39.48a2.5 2.5 0 01-2.5-2.5z" clip-rule="evenodd" />
  <path fill="rgba(255,255,255,.8)" fill-rule="evenodd"
    d="M44.3 223a2.5 2.5 0 012.5-2.5h9.48a2.5 2.5 0 110 5H46.8a2.5 2.5 0 01-2.5-2.5z" clip-rule="evenodd" />
  <path fill="rgba(255,255,255,.2)" fill-rule="evenodd"
    d="M61.78 223a2.5 2.5 0 012.5-2.5h37.9a2.5 2.5 0 010 5h-37.9a2.5 2.5 0 01-2.5-2.5z" clip-rule="evenodd" />
  <path fill="rgba(255,255,255,.2)" fill-rule="evenodd"
    d="M115.68 223a2.5 2.5 0 012.5-2.5h34.75a2.5 2.5 0 010 5h-34.75a2.5 2.5 0 01-2.5-2.5zM158.43 223a2.5 2.5 0 012.5-2.5h15.8a2.5 2.5 0 110 5h-15.8a2.5 2.5 0 01-2.5-2.5z"
    clip-rule="evenodd" />
  <path fill="rgba(255,255,255,.2)" fill-rule="evenodd"
    d="M36.98 242a2.5 2.5 0 012.5-2.5h44.23a2.5 2.5 0 110 5H39.48a2.5 2.5 0 01-2.5-2.5z" clip-rule="evenodd" />
  <path fill="rgba(255,255,255,.8)" fill-rule="evenodd"
    d="M44.3 252a2.5 2.5 0 012.5-2.5h9.48a2.5 2.5 0 110 5H46.8a2.5 2.5 0 01-2.5-2.5z" clip-rule="evenodd" />
  <path fill="rgba(255,255,255,.2)" fill-rule="evenodd"
    d="M61.78 252a2.5 2.5 0 012.5-2.5h37.9a2.5 2.5 0 010 5h-37.9a2.5 2.5 0 01-2.5-2.5z" clip-rule="evenodd" />
  <path fill="rgba(255,255,255,.2)" fill-rule="evenodd"
    d="M115.68 252a2.5 2.5 0 012.5-2.5h34.75a2.5 2.5 0 010 5h-34.75a2.5 2.5 0 01-2.5-2.5zM158.43 252a2.5 2.5 0 012.5-2.5h90a2.5 2.5 0 010 5h-90a2.5 2.5 0 01-2.5-2.5z"
    clip-rule="evenodd" />
  <path fill="rgba(255,255,255,.2)" fill-rule="evenodd"
    d="M40.98 273a2.5 2.5 0 012.5-2.5h25.27a2.5 2.5 0 110 5H43.48a2.5 2.5 0 01-2.5-2.5z" clip-rule="evenodd" />
  <path fill="rgba(255,255,255,.8)" fill-rule="evenodd"
    d="M47.3 283a2.5 2.5 0 012.5-2.5h9.48a2.5 2.5 0 110 5H49.8a2.5 2.5 0 01-2.5-2.5z" clip-rule="evenodd" />
  <path fill="rgba(255,255,255,.2)" fill-rule="evenodd"
    d="M64.78 283a2.5 2.5 0 012.5-2.5h15.8a2.5 2.5 0 110 5h-15.8a2.5 2.5 0 01-2.5-2.5z" clip-rule="evenodd" />
  <path fill="rgba(255,255,255,.2)" fill-rule="evenodd"
    d="M88.57 283a2.5 2.5 0 012.5-2.5h47.38a2.5 2.5 0 110 5H91.07a2.5 2.5 0 01-2.5-2.5z" clip-rule="evenodd" />
  <path fill="rgba(255,255,255,.2)" fill-rule="evenodd"
    d="M143.95 283a2.5 2.5 0 012.5-2.5h34.75a2.5 2.5 0 110 5h-34.75a2.5 2.5 0 01-2.5-2.5z" clip-rule="evenodd" />
  <path fill="rgba(255,255,255,.8)" fill-rule="evenodd"
    d="M194.7 283a2.5 2.5 0 012.5-2.5h9.48a2.5 2.5 0 010 5h-9.48a2.5 2.5 0 01-2.5-2.5z" clip-rule="evenodd" />
  <path fill="rgba(255,255,255,.2)" fill-rule="evenodd"
    d="M212.18 283a2.5 2.5 0 012.5-2.5h47.38a2.5 2.5 0 010 5h-47.38a2.5 2.5 0 01-2.5-2.5z" clip-rule="evenodd" />
  <path fill="rgba(255,255,255,.2)" fill-rule="evenodd"
    d="M38.5 303a2.5 2.5 0 012.5-2.5h47.38a2.5 2.5 0 110 5H41a2.5 2.5 0 01-2.5-2.5zM51.13 313a2.5 2.5 0 012.5-2.5H94.7a2.5 2.5 0 110 5H53.63a2.5 2.5 0 01-2.5-2.5z"
    clip-rule="evenodd" />
  <path fill="rgba(255,255,255,.8)" fill-rule="evenodd"
    d="M44.82 333a2.5 2.5 0 012.5-2.5h9.47a2.5 2.5 0 110 5h-9.47a2.5 2.5 0 01-2.5-2.5z" clip-rule="evenodd" />
  <path fill="rgba(255,255,255,.2)" fill-rule="evenodd"
    d="M62.3 333a2.5 2.5 0 012.5-2.5h44.22a2.5 2.5 0 110 5H64.79a2.5 2.5 0 01-2.5-2.5z" clip-rule="evenodd" />
  <path fill="rgba(255,255,255,.8)" fill-rule="evenodd"
    d="M44.5 343a2.5 2.5 0 012.5-2.5h9.48a2.5 2.5 0 110 5H47a2.5 2.5 0 01-2.5-2.5z" clip-rule="evenodd" />
  <path fill="rgba(255,255,255,.2)" fill-rule="evenodd"
    d="M61.98 343a2.5 2.5 0 012.5-2.5h15.79a2.5 2.5 0 110 5h-15.8a2.5 2.5 0 01-2.5-2.5z" clip-rule="evenodd" />
  <path fill="rgba(255,255,255,.2)" fill-rule="evenodd"
    d="M85.77 343a2.5 2.5 0 012.5-2.5h47.38a2.5 2.5 0 010 5H88.27a2.5 2.5 0 01-2.5-2.5z" clip-rule="evenodd" />
  <path fill="rgba(255,255,255,.2)" fill-rule="evenodd"
    d="M141.15 343a2.5 2.5 0 012.5-2.5h31.59a2.5 2.5 0 110 5h-31.59a2.5 2.5 0 01-2.5-2.5z" clip-rule="evenodd" />
  <path fill="rgba(255,255,255,.8)" fill-rule="evenodd"
    d="M180.74 343a2.5 2.5 0 012.5-2.5h9.47a2.5 2.5 0 110 5h-9.47a2.5 2.5 0 01-2.5-2.5z" clip-rule="evenodd" />
  <path fill="rgba(255,255,255,.2)" fill-rule="evenodd"
    d="M198.21 343a2.5 2.5 0 012.5-2.5h47.38a2.5 2.5 0 110 5h-47.38a2.5 2.5 0 01-2.5-2.5z" clip-rule="evenodd" />
  <path fill="rgba(255,255,255,.2)" fill-rule="evenodd"
    d="M38.5 363a2.5 2.5 0 012.5-2.5h47.38a2.5 2.5 0 110 5H41a2.5 2.5 0 01-2.5-2.5z" clip-rule="evenodd" />
  <path fill="rgba(255,255,255,.8)" fill-rule="evenodd"
    d="M44.5 383a2.5 2.5 0 012.5-2.5h9.48a2.5 2.5 0 110 5H47a2.5 2.5 0 01-2.5-2.5z" clip-rule="evenodd" />
  <path fill="rgba(255,255,255,.2)" fill-rule="evenodd"
    d="M61.98 383a2.5 2.5 0 012.5-2.5h15.79a2.5 2.5 0 110 5h-15.8a2.5 2.5 0 01-2.5-2.5z" clip-rule="evenodd" />
  <path fill="rgba(255,255,255,.2)" fill-rule="evenodd"
    d="M85.77 383a2.5 2.5 0 012.5-2.5h47.38a2.5 2.5 0 010 5H88.27a2.5 2.5 0 01-2.5-2.5z" clip-rule="evenodd" />
  <path fill="rgba(255,255,255,.2)" fill-rule="evenodd"
    d="M141.15 383a2.5 2.5 0 012.5-2.5h25.27a2.5 2.5 0 010 5h-25.27a2.5 2.5 0 01-2.5-2.5z" clip-rule="evenodd" />
  <path fill="rgba(255,255,255,.8)" fill-rule="evenodd"
    d="M182.42 383a2.5 2.5 0 012.5-2.5h9.48a2.5 2.5 0 110 5h-9.48a2.5 2.5 0 01-2.5-2.5z" clip-rule="evenodd" />
  <path fill="rgba(255,255,255,.2)" fill-rule="evenodd"
    d="M199.9 383a2.5 2.5 0 012.5-2.5h41.06a2.5 2.5 0 110 5H202.4a2.5 2.5 0 01-2.5-2.5z" clip-rule="evenodd" />
  <path fill="#10b981" fill-rule="evenodd"
    d="M44.5 393a2.5 2.5 0 012.5-2.5h12.63a2.5 2.5 0 110 5H47a2.5 2.5 0 01-2.5-2.5z" clip-rule="evenodd" />
  <path fill="rgba(255,255,255,.8)" fill-rule="evenodd"
    d="M65.13 393a2.5 2.5 0 012.5-2.5h15.8a2.5 2.5 0 110 5h-15.8a2.5 2.5 0 01-2.5-2.5zM96.93 393a2.5 2.5 0 012.5-2.5h15.8a2.5 2.5 0 110 5h-15.8a2.5 2.5 0 01-2.5-2.5z"
    clip-rule="evenodd" />
  <path fill="rgba(255,255,255,.2)" fill-rule="evenodd"
    d="M120.72 393a2.5 2.5 0 012.5-2.5h47.38a2.5 2.5 0 110 5h-47.38a2.5 2.5 0 01-2.5-2.5z" clip-rule="evenodd" />
  <path fill="rgba(255,255,255,.8)" fill-rule="evenodd"
    d="M176.1 393a2.5 2.5 0 012.5-2.5h9.48a2.5 2.5 0 110 5h-9.48a2.5 2.5 0 01-2.5-2.5z" clip-rule="evenodd" />
  <path fill="rgba(255,255,255,.2)" fill-rule="evenodd"
    d="M193.58 393a2.5 2.5 0 012.5-2.5h15.8a2.5 2.5 0 110 5h-15.8a2.5 2.5 0 01-2.5-2.5zM225.37 393a2.5 2.5 0 012.5-2.5h25.27a2.5 2.5 0 110 5h-25.27a2.5 2.5 0 01-2.5-2.5z"
    clip-rule="evenodd" />
  <path fill="#10b981" fill-rule="evenodd"
    d="M44.5 413a2.5 2.5 0 012.5-2.5h12.63a2.5 2.5 0 110 5H47a2.5 2.5 0 01-2.5-2.5z" clip-rule="evenodd" />
  <path fill="rgba(255,255,255,.8)" fill-rule="evenodd"
    d="M65.13 413a2.5 2.5 0 012.5-2.5h34.75a2.5 2.5 0 110 5H67.63a2.5 2.5 0 01-2.5-2.5z" clip-rule="evenodd" />
  <path fill="rgba(255,255,255,.2)" fill-rule="evenodd"
    d="M60.3 423a2.5 2.5 0 012.5-2.5h15.79a2.5 2.5 0 110 5h-15.8a2.5 2.5 0 01-2.5-2.5z" clip-rule="evenodd" />
  <path fill="rgba(255,255,255,.8)" fill-rule="evenodd"
    d="M84.09 423a2.5 2.5 0 012.5-2.5h12.63a2.5 2.5 0 110 5H86.6a2.5 2.5 0 01-2.5-2.5z" clip-rule="evenodd" />
  <path fill="rgba(255,255,255,.2)" fill-rule="evenodd"
    d="M60.3 433a2.5 2.5 0 012.5-2.5h15.79a2.5 2.5 0 110 5h-15.8a2.5 2.5 0 01-2.5-2.5z" clip-rule="evenodd" />
  <path fill="rgba(255,255,255,.8)" fill-rule="evenodd"
    d="M84.09 433a2.5 2.5 0 012.5-2.5h12.63a2.5 2.5 0 110 5H86.6a2.5 2.5 0 01-2.5-2.5z" clip-rule="evenodd" />
  <path fill="#10b981" fill-rule="evenodd"
    d="M44.5 453a2.5 2.5 0 012.5-2.5h12.63a2.5 2.5 0 110 5H47a2.5 2.5 0 01-2.5-2.5z" clip-rule="evenodd" />
  <path fill="rgba(255,255,255,.8)" fill-rule="evenodd"
    d="M65.13 453a2.5 2.5 0 012.5-2.5h12.64a2.5 2.5 0 110 5H67.63a2.5 2.5 0 01-2.5-2.5zM60.5 463a2.5 2.5 0 012.5-2.5h9.48a2.5 2.5 0 110 5H63a2.5 2.5 0 01-2.5-2.5z"
    clip-rule="evenodd" />
  <path fill="rgba(255,255,255,.2)" fill-rule="evenodd"
    d="M77.98 463a2.5 2.5 0 012.5-2.5h44.22a2.5 2.5 0 110 5H80.48a2.5 2.5 0 01-2.5-2.5z" clip-rule="evenodd" />
  <path fill="rgba(255,255,255,.8)" fill-rule="evenodd"
    d="M138.2 463a2.5 2.5 0 012.5-2.5h9.48a2.5 2.5 0 010 5h-9.48a2.5 2.5 0 01-2.5-2.5z" clip-rule="evenodd" />
  <path fill="rgba(255,255,255,.2)" fill-rule="evenodd"
    d="M155.26 463a2.5 2.5 0 012.5-2.5h44.22a2.5 2.5 0 110 5h-44.22a2.5 2.5 0 01-2.5-2.5zM215.48 463a2.5 2.5 0 012.5-2.5h18.96a2.5 2.5 0 010 5h-18.96a2.5 2.5 0 01-2.5-2.5zM242.44 463a2.5 2.5 0 012.5-2.5h3.16a2.5 2.5 0 110 5h-3.16a2.5 2.5 0 01-2.5-2.5zM261.6 463a2.5 2.5 0 012.5-2.5h41.06a2.5 2.5 0 010 5H264.1a2.5 2.5 0 01-2.5-2.5zM318.66 463a2.5 2.5 0 012.5-2.5h18.95a2.5 2.5 0 110 5h-18.95a2.5 2.5 0 01-2.5-2.5z"
    clip-rule="evenodd" />
  <path fill="rgba(255,255,255,.8)" fill-rule="evenodd"
    d="M45.5 483a2.5 2.5 0 012.5-2.5h9.48a2.5 2.5 0 110 5H48a2.5 2.5 0 01-2.5-2.5z" clip-rule="evenodd" />
  <path fill="rgba(255,255,255,.2)" fill-rule="evenodd"
    d="M62.98 483a2.5 2.5 0 012.5-2.5h22.1a2.5 2.5 0 110 5h-22.1a2.5 2.5 0 01-2.5-2.5z" clip-rule="evenodd" />
  <path fill="rgba(255,255,255,.8)" fill-rule="evenodd"
    d="M61.1 492.51a2.5 2.5 0 012.5-2.5h34.74a2.5 2.5 0 010 5H63.6a2.5 2.5 0 01-2.5-2.5zM111.84 492.51a2.5 2.5 0 012.5-2.5h12.64a2.5 2.5 0 010 5h-12.64a2.5 2.5 0 01-2.5-2.5zM61.1 502.51a2.5 2.5 0 012.5-2.5h34.74a2.5 2.5 0 010 5H63.6a2.5 2.5 0 01-2.5-2.5zM103.84 502.51a2.5 2.5 0 012.5-2.5h12.64a2.5 2.5 0 010 5h-12.64a2.5 2.5 0 01-2.5-2.5z"
    clip-rule="evenodd" />
  <path fill="#10b981" fill-rule="evenodd"
    d="M45.5 523a2.5 2.5 0 012.5-2.5h3.16a2.5 2.5 0 110 5H48a2.5 2.5 0 01-2.5-2.5z" clip-rule="evenodd" />
  <path fill="rgba(255,255,255,.8)" fill-rule="evenodd"
    d="M56.66 523a2.5 2.5 0 012.5-2.5h9.47a2.5 2.5 0 110 5h-9.47a2.5 2.5 0 01-2.5-2.5z" clip-rule="evenodd" />
  <path fill="rgba(255,255,255,.2)" fill-rule="evenodd"
    d="M73.93 523a2.5 2.5 0 012.5-2.5h22.11a2.5 2.5 0 110 5H76.43a2.5 2.5 0 01-2.5-2.5z" clip-rule="evenodd" />
  <path fill="rgba(255,255,255,.8)" fill-rule="evenodd"
    d="M112.04 523a2.5 2.5 0 012.5-2.5h9.48a2.5 2.5 0 110 5h-9.48a2.5 2.5 0 01-2.5-2.5z" clip-rule="evenodd" />
  <path fill="rgba(255,255,255,.2)" fill-rule="evenodd"
    d="M129.52 523a2.5 2.5 0 012.5-2.5h12.63a2.5 2.5 0 110 5h-12.63a2.5 2.5 0 01-2.5-2.5zM149.74 523a2.5 2.5 0 012.5-2.5h6.32a2.5 2.5 0 010 5h-6.32a2.5 2.5 0 01-2.5-2.5z"
    clip-rule="evenodd" />
  <path fill="rgba(255,255,255,.8)" fill-rule="evenodd"
    d="M51.82 533a2.5 2.5 0 012.5-2.5h9.47a2.5 2.5 0 110 5h-9.47a2.5 2.5 0 01-2.5-2.5z" clip-rule="evenodd" />
  <path fill="rgba(255,255,255,.2)" fill-rule="evenodd"
    d="M69.3 533a2.5 2.5 0 012.5-2.5h22.1a2.5 2.5 0 110 5H71.8a2.5 2.5 0 01-2.5-2.5z" clip-rule="evenodd" />
  <path fill="rgba(255,255,255,.8)" fill-rule="evenodd"
    d="M107.67 533a2.5 2.5 0 012.5-2.5h9.48a2.5 2.5 0 110 5h-9.48a2.5 2.5 0 01-2.5-2.5z" clip-rule="evenodd" />
  <path fill="rgba(255,255,255,.2)" fill-rule="evenodd"
    d="M125.15 533a2.5 2.5 0 012.5-2.5h12.64a2.5 2.5 0 010 5h-12.64a2.5 2.5 0 01-2.5-2.5zM145.79 533a2.5 2.5 0 012.5-2.5h6.31a2.5 2.5 0 110 5h-6.31a2.5 2.5 0 01-2.5-2.5z"
    clip-rule="evenodd" />
  <path fill="rgba(255,255,255,.8)" fill-rule="evenodd"
    d="M51.5 542a2.5 2.5 0 012.5-2.5h9.48a2.5 2.5 0 110 5H54a2.5 2.5 0 01-2.5-2.5z" clip-rule="evenodd" />
  <path fill="rgba(255,255,255,.2)" fill-rule="evenodd"
    d="M68.98 542a2.5 2.5 0 012.5-2.5h22.1a2.5 2.5 0 110 5h-22.1a2.5 2.5 0 01-2.5-2.5z" clip-rule="evenodd" />
  <path fill="rgba(255,255,255,.8)" fill-rule="evenodd"
    d="M107.67 541.98a2.5 2.5 0 012.5-2.5h9.48a2.5 2.5 0 010 5h-9.48a2.5 2.5 0 01-2.5-2.5z" clip-rule="evenodd" />
  <path fill="rgba(255,255,255,.2)" fill-rule="evenodd"
    d="M125.15 541.98a2.5 2.5 0 012.5-2.5h12.64a2.5 2.5 0 010 5h-12.64a2.5 2.5 0 01-2.5-2.5zM145.79 541.98a2.5 2.5 0 012.5-2.5h6.31a2.5 2.5 0 010 5h-6.31a2.5 2.5 0 01-2.5-2.5z"
    clip-rule="evenodd" />
  <path fill="#10b981" fill-rule="evenodd"
    d="M51.82 551.98a2.5 2.5 0 012.5-2.5h9.47a2.5 2.5 0 010 5h-9.47a2.5 2.5 0 01-2.5-2.5zM69.3 551.98a2.5 2.5 0 012.5-2.5h3.15a2.5 2.5 0 010 5H71.8a2.5 2.5 0 01-2.5-2.5z"
    clip-rule="evenodd" />
  <path fill="rgba(255,255,255,.8)" fill-rule="evenodd"
    d="M88.45 551.98a2.5 2.5 0 012.5-2.5h9.48a2.5 2.5 0 010 5h-9.48a2.5 2.5 0 01-2.5-2.5z" clip-rule="evenodd" />
  <path fill="rgba(255,255,255,.2)" fill-rule="evenodd"
    d="M105.93 551.98a2.5 2.5 0 012.5-2.5h22.11a2.5 2.5 0 010 5h-22.11a2.5 2.5 0 01-2.5-2.5z" clip-rule="evenodd" />
  <path fill="rgba(255,255,255,.8)" fill-rule="evenodd"
    d="M144.1 551.98a2.5 2.5 0 012.5-2.5h9.48a2.5 2.5 0 010 5h-9.48a2.5 2.5 0 01-2.5-2.5z" clip-rule="evenodd" />
  <path fill="rgba(255,255,255,.2)" fill-rule="evenodd"
    d="M161.58 551.98a2.5 2.5 0 012.5-2.5h12.63a2.5 2.5 0 010 5h-12.63a2.5 2.5 0 01-2.5-2.5zM182.21 551.98a2.5 2.5 0 012.5-2.5h6.32a2.5 2.5 0 010 5h-6.32a2.5 2.5 0 01-2.5-2.5z"
    clip-rule="evenodd" />
  <path fill="rgba(255,255,255,.8)" fill-rule="evenodd"
    d="M45.5 571.98a2.5 2.5 0 012.5-2.5h9.48a2.5 2.5 0 010 5H48a2.5 2.5 0 01-2.5-2.5z" clip-rule="evenodd" />
  <path fill="rgba(255,255,255,.2)" fill-rule="evenodd"
    d="M62.98 571.98a2.5 2.5 0 012.5-2.5h41.06a2.5 2.5 0 010 5H65.48a2.5 2.5 0 01-2.5-2.5z" clip-rule="evenodd" />
  <path fill="rgba(255,255,255,.8)" fill-rule="evenodd"
    d="M112.04 571.98a2.5 2.5 0 012.5-2.5h9.48a2.5 2.5 0 010 5h-9.48a2.5 2.5 0 01-2.5-2.5z" clip-rule="evenodd" />
  <path fill="rgba(255,255,255,.2)" fill-rule="evenodd"
    d="M129.52 571.98a2.5 2.5 0 012.5-2.5h22.1a2.5 2.5 0 010 5h-22.1a2.5 2.5 0 01-2.5-2.5zM67.61 581.98a2.5 2.5 0 012.5-2.5h18.95a2.5 2.5 0 010 5H70.11a2.5 2.5 0 01-2.5-2.5zM94.56 581.98a2.5 2.5 0 012.5-2.5h3.16a2.5 2.5 0 010 5h-3.16a2.5 2.5 0 01-2.5-2.5zM113.72 581.98a2.5 2.5 0 012.5-2.5h41.07a2.5 2.5 0 010 5h-41.07a2.5 2.5 0 01-2.5-2.5zM162.79 581.98a2.5 2.5 0 012.5-2.5h18.95a2.5 2.5 0 010 5h-18.95a2.5 2.5 0 01-2.5-2.5z"
    clip-rule="evenodd" />
  <path fill="rgba(255,255,255,.8)" fill-rule="evenodd"
    d="M45.5 591.98a2.5 2.5 0 012.5-2.5h9.48a2.5 2.5 0 010 5H48a2.5 2.5 0 01-2.5-2.5z" clip-rule="evenodd" />
  <path fill="rgba(255,255,255,.2)" fill-rule="evenodd"
    d="M62.98 591.98a2.5 2.5 0 012.5-2.5h44.22a2.5 2.5 0 010 5H65.48a2.5 2.5 0 01-2.5-2.5zM67.61 602a2.5 2.5 0 012.5-2.5h18.95a2.5 2.5 0 110 5H70.11a2.5 2.5 0 01-2.5-2.5zM94.56 602a2.5 2.5 0 012.5-2.5h3.16a2.5 2.5 0 110 5h-3.16a2.5 2.5 0 01-2.5-2.5zM113.72 602a2.5 2.5 0 012.5-2.5h41.07a2.5 2.5 0 010 5h-41.07a2.5 2.5 0 01-2.5-2.5zM162.79 602a2.5 2.5 0 012.5-2.5h18.95a2.5 2.5 0 110 5h-18.95a2.5 2.5 0 01-2.5-2.5z"
    clip-rule="evenodd" />
  <path fill="rgba(255,255,255,.8)" fill-rule="evenodd"
    d="M43.82 623a2.5 2.5 0 012.5-2.5h9.47a2.5 2.5 0 110 5h-9.47a2.5 2.5 0 01-2.5-2.5z" clip-rule="evenodd" />
  <path fill="rgba(255,255,255,.2)" fill-rule="evenodd"
    d="M61.3 623a2.5 2.5 0 012.5-2.5h15.79a2.5 2.5 0 110 5h-15.8a2.5 2.5 0 01-2.5-2.5zM85.09 623a2.5 2.5 0 012.5-2.5h12.63a2.5 2.5 0 110 5H87.6a2.5 2.5 0 01-2.5-2.5z"
    clip-rule="evenodd" />
  <path fill="rgba(255,255,255,.2)" fill-rule="evenodd"
    d="M113.72 623a2.5 2.5 0 012.5-2.5h31.59a2.5 2.5 0 010 5h-31.59a2.5 2.5 0 01-2.5-2.5zM153.31 623a2.5 2.5 0 012.5-2.5h69.5a2.5 2.5 0 010 5h-69.5a2.5 2.5 0 01-2.5-2.5zM230.8 623a2.5 2.5 0 012.5-2.5h75.81a2.5 2.5 0 110 5h-75.8a2.5 2.5 0 01-2.5-2.5z"
    clip-rule="evenodd" />
  <path fill="#10b981" fill-rule="evenodd"
    d="M37.5 643a2.5 2.5 0 012.5-2.5h6.32a2.5 2.5 0 110 5H40a2.5 2.5 0 01-2.5-2.5z" clip-rule="evenodd" />
  <path fill="rgba(255,255,255,.2)" fill-rule="evenodd"
    d="M51.82 643a2.5 2.5 0 012.5-2.5h15.8a2.5 2.5 0 110 5h-15.8a2.5 2.5 0 01-2.5-2.5z" clip-rule="evenodd" />
  <path fill="#10b981" fill-rule="evenodd"
    d="M43.82 653a2.5 2.5 0 012.5-2.5h15.8a2.5 2.5 0 110 5h-15.8a2.5 2.5 0 01-2.5-2.5z" clip-rule="evenodd" />
  <path fill="rgba(255,255,255,.8)" fill-rule="evenodd"
    d="M67.61 653a2.5 2.5 0 012.5-2.5h9.48a2.5 2.5 0 110 5H70.1a2.5 2.5 0 01-2.5-2.5z" clip-rule="evenodd" />
  <path fill="rgba(255,255,255,.2)" fill-rule="evenodd"
    d="M85.09 653a2.5 2.5 0 012.5-2.5h18.95a2.5 2.5 0 010 5H87.59a2.5 2.5 0 01-2.5-2.5z" clip-rule="evenodd" />
  <path fill="#CBD9E8" fill-opacity=".1" fill-rule="evenodd"
    d="M12.5 33a2.5 2.5 0 015 0 2.5 2.5 0 01-5 0zM12.5 43a2.5 2.5 0 015 0 2.5 2.5 0 01-5 0zM12.5 53a2.5 2.5 0 015 0 2.5 2.5 0 01-5 0zM12.5 63a2.5 2.5 0 015 0 2.5 2.5 0 01-5 0zM12.5 73a2.5 2.5 0 015 0 2.5 2.5 0 01-5 0zM12.5 83a2.5 2.5 0 015 0 2.5 2.5 0 01-5 0zM12.5 93a2.5 2.5 0 015 0 2.5 2.5 0 01-5 0zM12.5 103a2.5 2.5 0 115 0 2.5 2.5 0 11-5 0zM12.5 113a2.5 2.5 0 115 0 2.5 2.5 0 11-5 0zM12.5 123a2.5 2.5 0 115 0 2.5 2.5 0 11-5 0zM12.5 133a2.5 2.5 0 115 0 2.5 2.5 0 11-5 0zM12.5 143a2.5 2.5 0 115 0 2.5 2.5 0 11-5 0zM12.5 153a2.5 2.5 0 115 0 2.5 2.5 0 11-5 0zM12.5 163a2.5 2.5 0 115 0 2.5 2.5 0 11-5 0zM12.5 173a2.5 2.5 0 115 0 2.5 2.5 0 11-5 0zM12.5 183a2.5 2.5 0 115 0 2.5 2.5 0 11-5 0zM12.5 193a2.5 2.5 0 115 0 2.5 2.5 0 11-5 0zM12.5 203a2.5 2.5 0 115 0 2.5 2.5 0 11-5 0zM12.5 213a2.5 2.5 0 115 0 2.5 2.5 0 11-5 0zM12.5 223a2.5 2.5 0 115 0 2.5 2.5 0 11-5 0zM12.5 233a2.5 2.5 0 115 0 2.5 2.5 0 11-5 0zM12.5 242.5a2.5 2.5 0 115 0 2.5 2.5 0 11-5 0zM12.5 252.5a2.5 2.5 0 115 0 2.5 2.5 0 11-5 0zM12.5 263a2.5 2.5 0 115 0 2.5 2.5 0 11-5 0zM12.5 273a2.5 2.5 0 115 0 2.5 2.5 0 11-5 0zM12.5 283a2.5 2.5 0 115 0 2.5 2.5 0 11-5 0zM12.5 293a2.5 2.5 0 115 0 2.5 2.5 0 11-5 0zM12.5 303a2.5 2.5 0 115 0 2.5 2.5 0 11-5 0zM12.5 313a2.5 2.5 0 115 0 2.5 2.5 0 11-5 0zM12.5 323a2.5 2.5 0 115 0 2.5 2.5 0 11-5 0zM12.5 333a2.5 2.5 0 115 0 2.5 2.5 0 11-5 0zM12.5 343a2.5 2.5 0 115 0 2.5 2.5 0 11-5 0zM12.5 353a2.5 2.5 0 115 0 2.5 2.5 0 11-5 0zM12.5 363a2.5 2.5 0 115 0 2.5 2.5 0 11-5 0zM12.5 373a2.5 2.5 0 115 0 2.5 2.5 0 11-5 0zM12.5 383a2.5 2.5 0 115 0 2.5 2.5 0 11-5 0zM12.5 393a2.5 2.5 0 115 0 2.5 2.5 0 11-5 0zM12.5 403a2.5 2.5 0 115 0 2.5 2.5 0 11-5 0zM12.5 413a2.5 2.5 0 115 0 2.5 2.5 0 11-5 0zM12.5 423a2.5 2.5 0 115 0 2.5 2.5 0 11-5 0zM12.5 433a2.5 2.5 0 115 0 2.5 2.5 0 11-5 0zM12.5 443a2.5 2.5 0 115 0 2.5 2.5 0 11-5 0zM12.5 453a2.5 2.5 0 115 0 2.5 2.5 0 11-5 0zM12.5 463a2.5 2.5 0 115 0 2.5 2.5 0 11-5 0zM12.5 473a2.5 2.5 0 115 0 2.5 2.5 0 11-5 0zM12.5 483a2.5 2.5 0 115 0 2.5 2.5 0 11-5 0zM12.5 493a2.5 2.5 0 115 0 2.5 2.5 0 11-5 0zM12.5 503a2.5 2.5 0 115 0 2.5 2.5 0 11-5 0zM12.5 513a2.5 2.5 0 115 0 2.5 2.5 0 11-5 0zM12.5 523a2.5 2.5 0 115 0 2.5 2.5 0 11-5 0zM12.5 533a2.5 2.5 0 115 0 2.5 2.5 0 11-5 0zM12.5 543a2.5 2.5 0 115 0 2.5 2.5 0 11-5 0zM12.5 553a2.5 2.5 0 115 0 2.5 2.5 0 11-5 0zM12.5 563a2.5 2.5 0 115 0 2.5 2.5 0 11-5 0zM12.5 573a2.5 2.5 0 115 0 2.5 2.5 0 11-5 0zM12.5 583a2.5 2.5 0 115 0 2.5 2.5 0 11-5 0zM12.5 593a2.5 2.5 0 115 0 2.5 2.5 0 11-5 0zM12.5 603a2.5 2.5 0 115 0 2.5 2.5 0 11-5 0zM12.5 613a2.5 2.5 0 115 0 2.5 2.5 0 11-5 0zM12.5 623a2.5 2.5 0 115 0 2.5 2.5 0 11-5 0zM12.5 633a2.5 2.5 0 115 0 2.5 2.5 0 11-5 0zM12.5 643a2.5 2.5 0 115 0 2.5 2.5 0 11-5 0zM12.5 653a2.5 2.5 0 115 0 2.5 2.5 0 11-5 0zM0 685h400v5H0v-5z"
    clip-rule="evenodd" />
</svg>