<svg xmlns="http://www.w3.org/2000/svg" viewBox="0 0 392.5 392.5"><defs><style>.cls-1{opacity:0.2;}.cls-2,.cls-3{fill:none;stroke:#0495fe;stroke-width:1.08px;}.cls-3{stroke-dasharray:10.78;}</style></defs><title>swirl_1</title><g id="Layer_2" data-name="Layer 2"><g id="Layer_1-2" data-name="Layer 1"><g class="cls-1"><path class="cls-2" d="M307.84,361.77A141.16,141.16,0,0,1,196.25,196.25M362.69,306.46A141.15,141.15,0,0,1,196.25,196.25"/><path class="cls-3" d="M392.19,234.38a141.15,141.15,0,0,1-195.94-38.13"/><path class="cls-2" d="M391.87,156.49a141.15,141.15,0,0,1-195.62,39.76"/><path class="cls-3" d="M361.77,84.66A141.16,141.16,0,0,1,196.25,196.25"/><path class="cls-2" d="M306.46,29.81A141.15,141.15,0,0,1,196.25,196.25M234.38.3a141.16,141.16,0,0,1-38.13,196M156.49.62a141.16,141.16,0,0,1,39.76,195.63M84.66,30.73A141.16,141.16,0,0,1,196.25,196.25M29.81,86A141.16,141.16,0,0,1,196.25,196.25"/><path class="cls-3" d="M.3,158.12a141.16,141.16,0,0,1,196,38.13"/><path class="cls-2" d="M.62,236a141.17,141.17,0,0,1,195.63-39.75M30.73,307.84A141.16,141.16,0,0,1,196.25,196.25"/><path class="cls-3" d="M86,362.69A141.16,141.16,0,0,1,196.25,196.25"/><path class="cls-2" d="M158.11,392.19a141.16,141.16,0,0,1,38.14-195.94M236,391.87a141.16,141.16,0,0,1-39.75-195.62"/></g></g></g></svg>