<svg width="462" height="342" viewBox="0 0 462 342" fill="none" xmlns="http://www.w3.org/2000/svg">
<rect width="462" height="342" rx="15" fill="#F3F5FA"/>
<path d="M121 2H445C453.284 2 460 8.71573 460 17V326C460 334.284 453.284 341 445 341H121V2Z" fill="white"/>
<rect opacity="0.2" x="163" y="59" width="86" height="7" rx="3.5" fill="#506677"/>
<rect opacity="0.2" x="279" y="59" width="30" height="7" rx="3.5" fill="#506677"/>
<rect opacity="0.2" x="339" y="59" width="30" height="7" rx="3.5" fill="#506677"/>
<rect opacity="0.2" x="399" y="59" width="30" height="7" rx="3.5" fill="#506677"/>
<rect opacity="0.1" x="163" y="72" width="57" height="5" rx="2.5" fill="#506677"/>
<rect opacity="0.2" x="163" y="103" width="86" height="7" rx="3.5" fill="#506677"/>
<rect opacity="0.2" x="279" y="103" width="30" height="7" rx="3.5" fill="#506677"/>
<rect opacity="0.2" x="339" y="103" width="30" height="7" rx="3.5" fill="#506677"/>
<rect opacity="0.2" x="399" y="103" width="30" height="7" rx="3.5" fill="#506677"/>
<rect opacity="0.1" x="163" y="116" width="57" height="5" rx="2.5" fill="#506677"/>
<rect opacity="0.2" x="163" y="147" width="86" height="7" rx="3.5" fill="#506677"/>
<rect opacity="0.2" x="279" y="147" width="30" height="7" rx="3.5" fill="#506677"/>
<rect opacity="0.2" x="339" y="147" width="30" height="7" rx="3.5" fill="#506677"/>
<rect opacity="0.2" x="399" y="147" width="30" height="7" rx="3.5" fill="#506677"/>
<rect opacity="0.1" x="163" y="160" width="57" height="5" rx="2.5" fill="#506677"/>
<rect opacity="0.2" x="163" y="191" width="86" height="7" rx="3.5" fill="#506677"/>
<rect opacity="0.2" x="279" y="191" width="30" height="7" rx="3.5" fill="#506677"/>
<rect opacity="0.2" x="339" y="191" width="30" height="7" rx="3.5" fill="#506677"/>
<rect opacity="0.2" x="399" y="191" width="30" height="7" rx="3.5" fill="#506677"/>
<rect opacity="0.1" x="163" y="204" width="57" height="5" rx="2.5" fill="#506677"/>
<rect opacity="0.2" x="163" y="235" width="86" height="7" rx="3.5" fill="#506677"/>
<rect opacity="0.2" x="279" y="235" width="30" height="7" rx="3.5" fill="#506677"/>
<rect opacity="0.2" x="339" y="235" width="30" height="7" rx="3.5" fill="#506677"/>
<rect opacity="0.2" x="399" y="235" width="30" height="7" rx="3.5" fill="#506677"/>
<rect opacity="0.1" x="163" y="248" width="57" height="5" rx="2.5" fill="#506677"/>
<rect opacity="0.2" x="163" y="279" width="86" height="7" rx="3.5" fill="#506677"/>
<rect opacity="0.2" x="279" y="279" width="30" height="7" rx="3.5" fill="#506677"/>
<rect opacity="0.2" x="339" y="279" width="30" height="7" rx="3.5" fill="#506677"/>
<rect opacity="0.2" x="399" y="279" width="30" height="7" rx="3.5" fill="#506677"/>
<rect opacity="0.1" x="163" y="292" width="57" height="5" rx="2.5" fill="#506677"/>
<rect x="399" y="40" width="30" height="8" rx="4" fill="#0495FE"/>
<rect x="405" y="43" width="18" height="2" rx="1" fill="white"/>
<rect x="364" y="40" width="30" height="8" rx="4" fill="#A2AEB8"/>
<rect x="370" y="43" width="18" height="2" rx="1" fill="white"/>
<rect opacity="0.5" x="39" y="60" width="52" height="7" rx="3.5" fill="#506677"/>
<path opacity="0.5" d="M30.7858 64.3567L30.3897 64.3006L30.3568 64.5328L30.5434 64.6749L30.7858 64.3567ZM30.8124 64.0007L31.2125 64.0042L31.2124 63.997L30.8124 64.0007ZM30.7858 63.6434L30.5434 63.3251L30.357 63.4671L30.3897 63.6991L30.7858 63.6434ZM31.5803 63.0382L31.8227 63.3564L31.8258 63.354L31.5803 63.0382ZM31.6252 62.8041L31.2806 63.0071L31.2819 63.0093L31.6252 62.8041ZM30.8784 61.5362L31.2231 61.3332L31.2217 61.331L30.8784 61.5362ZM30.6496 61.4582L30.508 61.084L30.5035 61.0858L30.6496 61.4582ZM29.7147 61.8251L29.4742 62.1447L29.6528 62.2791L29.8608 62.1975L29.7147 61.8251ZM29.0816 61.465L28.6857 61.5223L28.7185 61.7483L28.9296 61.835L29.0816 61.465ZM28.9412 60.4957L29.3371 60.4383L29.3358 60.4296L29.3342 60.4209L28.9412 60.4957ZM28.7489 60.3423V60.7424L28.7555 60.7423L28.7489 60.3423ZM27.2483 60.3423V59.9423L27.2453 59.9423L27.2483 60.3423ZM27.063 60.4957L26.669 60.4258L26.6671 60.4383L27.063 60.4957ZM26.9226 61.465L27.0737 61.8354L27.2857 61.7489L27.3185 61.5223L26.9226 61.465ZM26.2895 61.8251L26.1434 62.1975L26.3521 62.2794L26.5309 62.1441L26.2895 61.8251ZM25.3546 61.4582L25.5008 61.0858L25.4987 61.085L25.3546 61.4582ZM25.123 61.5362L24.7799 61.3307L24.7784 61.3332L25.123 61.5362ZM24.3762 62.8041L24.0316 62.601L24.0316 62.6011L24.3762 62.8041ZM24.4211 63.0382L24.1736 63.3524L24.1782 63.356L24.4211 63.0382ZM25.2129 63.6434L25.609 63.6991L25.6415 63.4675L25.4558 63.3256L25.2129 63.6434ZM25.1862 64.0007L24.7861 63.997L24.7862 64.0042L25.1862 64.0007ZM25.2129 64.3567L25.4558 64.6745L25.6417 64.5323L25.6089 64.3006L25.2129 64.3567ZM24.4211 64.9619L24.6626 65.2808L24.6641 65.2797L24.4211 64.9619ZM24.3762 65.2028L24.7205 64.9989L24.7147 64.9896L24.3762 65.2028ZM25.123 66.4638L25.4692 66.2633L25.4672 66.26L25.123 66.4638ZM25.3518 66.5432L25.4944 66.917L25.4984 66.9154L25.3518 66.5432ZM26.2867 66.1749L26.5281 65.8559L26.349 65.7205L26.1401 65.8028L26.2867 66.1749ZM26.9198 66.535L27.3157 66.4777L27.2829 66.2511L27.0709 66.1647L26.9198 66.535ZM27.0602 67.5044L26.6641 67.5617L26.6663 67.5742L27.0602 67.5044ZM27.2455 67.6577L27.2425 68.0577H27.2455V67.6577ZM28.7489 67.6577L28.7489 68.0577L28.7495 68.0577L28.7489 67.6577ZM28.9342 67.5044L29.3286 67.5717L29.3301 67.5617L28.9342 67.5044ZM29.0746 66.535L28.9244 66.1643L28.7116 66.2505L28.6787 66.4777L29.0746 66.535ZM29.7077 66.1749L29.8545 65.8028L29.6449 65.7202L29.4656 65.8565L29.7077 66.1749ZM30.6412 66.5432L30.7934 66.1733L30.788 66.1711L30.6412 66.5432ZM30.8784 66.4638L30.5339 66.2606L30.5315 66.2647L30.8784 66.4638ZM31.6224 65.2028L31.2844 64.9886L31.2779 64.9996L31.6224 65.2028ZM31.5803 64.9619L31.8279 64.6476L31.8227 64.6436L31.5803 64.9619ZM27.9993 65.2809L27.9997 64.8809H27.9993V65.2809ZM29.3118 64.0007L28.9118 64.0007L28.9118 64.0011L29.3118 64.0007ZM31.1818 64.4128C31.201 64.2774 31.2112 64.1409 31.2124 64.0042L30.4125 63.9972C30.4116 64.0987 30.404 64.2 30.3897 64.3006L31.1818 64.4128ZM31.2124 63.997C31.2112 63.8601 31.201 63.7233 31.1819 63.5876L30.3897 63.6991C30.4039 63.8003 30.4115 63.9023 30.4125 64.0044L31.2124 63.997ZM31.0281 63.9616L31.8227 63.3564L31.3379 62.72L30.5434 63.3251L31.0281 63.9616ZM31.8258 63.354C31.9363 63.2681 32.0134 63.1445 32.0403 63.0047L31.2546 62.8539C31.265 62.8 31.2944 62.7538 31.3348 62.7224L31.8258 63.354ZM32.0403 63.0047C32.0671 62.8646 32.0412 62.7204 31.9685 62.5988L31.2819 63.0093C31.2544 62.9633 31.2442 62.908 31.2546 62.8539L32.0403 63.0047ZM31.9699 62.601L31.2231 61.3332L30.5338 61.7392L31.2806 63.0071L31.9699 62.601ZM31.2217 61.331C31.1499 61.2108 31.0379 61.1218 30.9079 61.0775L30.6496 61.8346C30.6035 61.8189 30.5622 61.7868 30.5351 61.7415L31.2217 61.331ZM30.9079 61.0775C30.778 61.0332 30.6365 61.0355 30.508 61.0841L30.7912 61.8323C30.7456 61.8495 30.6957 61.8503 30.6496 61.8346L30.9079 61.0775ZM30.5035 61.0858L29.5686 61.4528L29.8608 62.1975L30.7957 61.8305L30.5035 61.0858ZM29.9552 61.5055C29.7336 61.3387 29.4911 61.2008 29.2336 61.095L28.9296 61.835C29.1243 61.915 29.3073 62.0192 29.4742 62.1447L29.9552 61.5055ZM29.4775 61.4077L29.3371 60.4383L28.5454 60.553L28.6857 61.5223L29.4775 61.4077ZM29.3342 60.4209C29.3078 60.2819 29.2321 60.1587 29.1232 60.0719L28.6245 60.6974C28.5861 60.6668 28.5581 60.6222 28.5483 60.5704L29.3342 60.4209ZM29.1232 60.0719C29.0147 59.9853 28.8797 59.9401 28.7424 59.9424L28.7555 60.7423C28.7091 60.743 28.6627 60.7278 28.6245 60.6974L29.1232 60.0719ZM28.7489 59.9423H27.2483V60.7423H28.7489V59.9423ZM27.2453 59.9423C27.1099 59.9433 26.9777 59.9906 26.8721 60.078L27.3822 60.6944C27.3443 60.7257 27.2979 60.742 27.2513 60.7423L27.2453 59.9423ZM26.8721 60.078C26.7663 60.1656 26.6935 60.2883 26.6692 60.4259L27.4569 60.5655C27.4476 60.6176 27.4203 60.6628 27.3822 60.6944L26.8721 60.078ZM26.6671 60.4383L26.5268 61.4077L27.3185 61.5223L27.4589 60.553L26.6671 60.4383ZM26.7715 61.0947C26.5132 61.2001 26.27 61.3384 26.0482 61.5061L26.5309 62.1441C26.6969 62.0185 26.8794 61.9147 27.0737 61.8354L26.7715 61.0947ZM26.4357 61.4528L25.5008 61.0858L25.2085 61.8305L26.1434 62.1975L26.4357 61.4528ZM25.4987 61.085C25.3697 61.0352 25.2272 61.0322 25.0963 61.0763L25.3517 61.8344C25.3058 61.8499 25.256 61.8489 25.2106 61.8314L25.4987 61.085ZM25.0963 61.0763C24.9652 61.1205 24.8523 61.2098 24.7799 61.3307L25.4662 61.7418C25.4391 61.787 25.3978 61.8189 25.3517 61.8344L25.0963 61.0763ZM24.7784 61.3332L24.0316 62.601L24.7209 63.0071L25.4677 61.7392L24.7784 61.3332ZM24.0316 62.6011C23.9602 62.7222 23.9349 62.8655 23.9616 63.0046L24.7473 62.8538C24.7575 62.9071 24.7477 62.9616 24.7209 63.0071L24.0316 62.6011ZM23.9616 63.0046C23.9883 63.1435 24.0644 63.2664 24.1736 63.3524L24.6687 62.724C24.7082 62.7551 24.7371 62.8007 24.7473 62.8538L23.9616 63.0046ZM24.1782 63.356L24.9699 63.9611L25.4558 63.3256L24.6641 62.7204L24.1782 63.356ZM24.8168 63.5876C24.7977 63.7233 24.7875 63.8601 24.7862 63.997L25.5862 64.0044C25.5871 63.9023 25.5947 63.8003 25.609 63.6991L24.8168 63.5876ZM24.7862 64.0042C24.7874 64.1409 24.7976 64.2774 24.8168 64.4128L25.6089 64.3006C25.5947 64.2 25.5871 64.0987 25.5862 63.9972L24.7862 64.0042ZM24.9699 64.0389L24.1782 64.6441L24.6641 65.2797L25.4558 64.6745L24.9699 64.0389ZM24.1797 64.643C24.065 64.7298 23.985 64.8567 23.9582 65.0007L24.7446 65.1473C24.7344 65.2023 24.7041 65.2494 24.6626 65.2808L24.1797 64.643ZM23.9582 65.0007C23.9313 65.1448 23.9602 65.2929 24.0378 65.416L24.7147 64.9896C24.7437 65.0357 24.7549 65.0921 24.7446 65.1473L23.9582 65.0007ZM24.0321 65.4067L24.7789 66.6677L25.4672 66.26L24.7204 64.999L24.0321 65.4067ZM24.7769 66.6643C24.8478 66.7867 24.9601 66.8776 25.0911 66.9231L25.3534 66.1673C25.4003 66.1836 25.4422 66.2168 25.4691 66.2633L24.7769 66.6643ZM25.0911 66.9231C25.222 66.9685 25.3649 66.9664 25.4944 66.917L25.2093 66.1695C25.2557 66.1518 25.3066 66.1511 25.3534 66.1673L25.0911 66.9231ZM25.4984 66.9154L26.4333 66.5471L26.1401 65.8028L25.2052 66.1711L25.4984 66.9154ZM26.0454 66.4939C26.2672 66.6617 26.5104 66.8 26.7687 66.9054L27.0709 66.1647C26.8766 66.0854 26.6941 65.9815 26.5281 65.8559L26.0454 66.4939ZM26.524 66.5923L26.6643 67.5617L27.4561 67.4471L27.3157 66.4777L26.524 66.5923ZM26.6663 67.5742C26.6907 67.7117 26.7635 67.8344 26.8693 67.922L27.3794 67.3057C27.4174 67.3372 27.4448 67.3824 27.4541 67.4346L26.6663 67.5742ZM26.8693 67.922C26.9749 68.0094 27.1071 68.0567 27.2425 68.0577L27.2485 67.2577C27.2951 67.2581 27.3415 67.2743 27.3794 67.3057L26.8693 67.922ZM27.2455 68.0577H28.7489V67.2577H27.2455V68.0577ZM28.7495 68.0577C28.8858 68.0576 29.0191 68.0103 29.1254 67.9223L28.6153 67.306C28.6538 67.2742 28.701 67.2578 28.7484 67.2577L28.7495 68.0577ZM29.1254 67.9223C29.2319 67.8342 29.3049 67.7103 29.3285 67.5717L28.5399 67.4371C28.549 67.3841 28.5766 67.338 28.6153 67.306L29.1254 67.9223ZM29.3301 67.5617L29.4705 66.5923L28.6787 66.4777L28.5383 67.4471L29.3301 67.5617ZM29.2248 66.9057C29.484 66.8007 29.7279 66.662 29.9498 66.4933L29.4656 65.8565C29.3004 65.9821 29.1184 66.0857 28.9244 66.1643L29.2248 66.9057ZM29.5609 66.547L30.4944 66.9153L30.788 66.1711L29.8545 65.8028L29.5609 66.547ZM30.489 66.9132C30.6206 66.9673 30.7675 66.9722 30.9023 66.927L30.6484 66.1684C30.6957 66.1526 30.747 66.1542 30.7934 66.1733L30.489 66.9132ZM30.9023 66.927C31.0373 66.8819 31.1531 66.7888 31.2253 66.663L30.5315 66.2647C30.5586 66.2176 30.6009 66.1843 30.6484 66.1684L30.9023 66.927ZM31.2229 66.6671L31.9669 65.4061L31.2779 64.9996L30.5339 66.2606L31.2229 66.6671ZM31.9603 65.417C32.0374 65.2952 32.0671 65.1488 32.0421 65.0057L31.254 65.1434C31.2445 65.0891 31.2559 65.0339 31.2845 64.9887L31.9603 65.417ZM32.0421 65.0057C32.0171 64.8628 31.9399 64.7359 31.8278 64.6477L31.3327 65.2761C31.2925 65.2444 31.2635 65.1977 31.254 65.1434L32.0421 65.0057ZM31.8227 64.6436L31.0281 64.0385L30.5434 64.6749L31.3379 65.2801L31.8227 64.6436ZM27.9993 64.8809C27.8167 64.8809 27.6389 64.828 27.4885 64.73L27.0517 65.4002C27.3331 65.5836 27.6628 65.6809 27.9993 65.6809V64.8809ZM27.4885 64.73C27.3383 64.6321 27.2227 64.494 27.1549 64.3342L26.4185 64.647C26.5494 64.9551 26.7703 65.2168 27.0517 65.4002L27.4885 64.73ZM27.1549 64.3342C27.0871 64.1746 27.0695 63.9996 27.104 63.8309L26.3201 63.671C26.2532 63.9989 26.2876 64.3387 26.4185 64.647L27.1549 64.3342ZM27.104 63.8309C27.1384 63.6621 27.2236 63.5056 27.3505 63.3818L26.7919 62.8091C26.5517 63.0434 26.387 63.3432 26.3201 63.671L27.104 63.8309ZM27.3505 63.3818C27.4775 63.258 27.6405 63.1725 27.8194 63.1378L27.6671 62.3525C27.3368 62.4165 27.0321 62.5749 26.7919 62.8091L27.3505 63.3818ZM27.8194 63.1378C27.9984 63.1031 28.1838 63.121 28.3518 63.1889L28.6514 62.4471C28.3397 62.3212 27.9973 62.2884 27.6671 62.3525L27.8194 63.1378ZM28.3518 63.1889C28.5197 63.2567 28.6616 63.3709 28.7606 63.5156L29.4206 63.0634C29.2313 62.787 28.9632 62.5731 28.6514 62.4471L28.3518 63.1889ZM28.7606 63.5156C28.8596 63.6601 28.9118 63.8289 28.9118 64.0007H29.7118C29.7118 63.6661 29.6101 63.34 29.4206 63.0634L28.7606 63.5156ZM28.9118 64.0011C28.912 64.1153 28.889 64.2286 28.844 64.3347L29.5806 64.647C29.6674 64.4422 29.7121 64.2224 29.7118 64.0003L28.9118 64.0011ZM28.844 64.3347C28.7991 64.4407 28.7328 64.5378 28.6485 64.62L29.2071 65.1927C29.3667 65.037 29.4937 64.8517 29.5806 64.647L28.844 64.3347ZM28.6485 64.62C28.5642 64.7022 28.4636 64.7679 28.3522 64.8128L28.6515 65.5547C28.8587 65.4712 29.0476 65.3483 29.2071 65.1927L28.6485 64.62ZM28.3522 64.8128C28.2407 64.8578 28.1209 64.881 27.9997 64.8809L27.9989 65.6809C28.2225 65.6811 28.4443 65.6383 28.6515 65.5547L28.3522 64.8128Z" fill="#506677"/>
<path opacity="0.2" d="M30.7858 98.3567L30.3897 98.3006L30.3568 98.5328L30.5434 98.6749L30.7858 98.3567ZM30.8124 98.0007L31.2125 98.0042L31.2124 97.997L30.8124 98.0007ZM30.7858 97.6434L30.5434 97.3251L30.357 97.4671L30.3897 97.6991L30.7858 97.6434ZM31.5803 97.0382L31.8227 97.3564L31.8258 97.354L31.5803 97.0382ZM31.6252 96.8041L31.2806 97.0071L31.2819 97.0093L31.6252 96.8041ZM30.8784 95.5362L31.2231 95.3332L31.2217 95.331L30.8784 95.5362ZM30.6496 95.4582L30.508 95.084L30.5035 95.0858L30.6496 95.4582ZM29.7147 95.8251L29.4742 96.1447L29.6528 96.2791L29.8608 96.1975L29.7147 95.8251ZM29.0816 95.465L28.6857 95.5223L28.7185 95.7483L28.9296 95.835L29.0816 95.465ZM28.9412 94.4957L29.3371 94.4383L29.3358 94.4296L29.3342 94.4209L28.9412 94.4957ZM28.7489 94.3423V94.7424L28.7555 94.7423L28.7489 94.3423ZM27.2483 94.3423V93.9423L27.2453 93.9423L27.2483 94.3423ZM27.063 94.4957L26.669 94.4258L26.6671 94.4383L27.063 94.4957ZM26.9226 95.465L27.0737 95.8354L27.2857 95.7489L27.3185 95.5223L26.9226 95.465ZM26.2895 95.8251L26.1434 96.1975L26.3521 96.2794L26.5309 96.1441L26.2895 95.8251ZM25.3546 95.4582L25.5008 95.0858L25.4987 95.085L25.3546 95.4582ZM25.123 95.5362L24.7799 95.3307L24.7784 95.3332L25.123 95.5362ZM24.3762 96.8041L24.0316 96.601L24.0316 96.6011L24.3762 96.8041ZM24.4211 97.0382L24.1736 97.3524L24.1782 97.356L24.4211 97.0382ZM25.2129 97.6434L25.609 97.6991L25.6415 97.4675L25.4558 97.3256L25.2129 97.6434ZM25.1862 98.0007L24.7861 97.997L24.7862 98.0042L25.1862 98.0007ZM25.2129 98.3567L25.4558 98.6745L25.6417 98.5323L25.6089 98.3006L25.2129 98.3567ZM24.4211 98.9619L24.6626 99.2808L24.6641 99.2797L24.4211 98.9619ZM24.3762 99.2028L24.7205 98.9989L24.7147 98.9896L24.3762 99.2028ZM25.123 100.464L25.4692 100.263L25.4672 100.26L25.123 100.464ZM25.3518 100.543L25.4944 100.917L25.4984 100.915L25.3518 100.543ZM26.2867 100.175L26.5281 99.8559L26.349 99.7205L26.1401 99.8028L26.2867 100.175ZM26.9198 100.535L27.3157 100.478L27.2829 100.251L27.0709 100.165L26.9198 100.535ZM27.0602 101.504L26.6641 101.562L26.6663 101.574L27.0602 101.504ZM27.2455 101.658L27.2425 102.058H27.2455V101.658ZM28.7489 101.658L28.7489 102.058L28.7495 102.058L28.7489 101.658ZM28.9342 101.504L29.3286 101.572L29.3301 101.562L28.9342 101.504ZM29.0746 100.535L28.9244 100.164L28.7116 100.251L28.6787 100.478L29.0746 100.535ZM29.7077 100.175L29.8545 99.8028L29.6449 99.7202L29.4656 99.8565L29.7077 100.175ZM30.6412 100.543L30.7934 100.173L30.788 100.171L30.6412 100.543ZM30.8784 100.464L30.5339 100.261L30.5315 100.265L30.8784 100.464ZM31.6224 99.2028L31.2844 98.9886L31.2779 98.9996L31.6224 99.2028ZM31.5803 98.9619L31.8279 98.6476L31.8227 98.6436L31.5803 98.9619ZM27.9993 99.2809L27.9997 98.8809H27.9993V99.2809ZM29.3118 98.0007L28.9118 98.0007L28.9118 98.0011L29.3118 98.0007ZM31.1818 98.4128C31.201 98.2774 31.2112 98.1409 31.2124 98.0042L30.4125 97.9972C30.4116 98.0987 30.404 98.2 30.3897 98.3006L31.1818 98.4128ZM31.2124 97.997C31.2112 97.8601 31.201 97.7233 31.1819 97.5876L30.3897 97.6991C30.4039 97.8003 30.4115 97.9023 30.4125 98.0044L31.2124 97.997ZM31.0281 97.9616L31.8227 97.3564L31.3379 96.72L30.5434 97.3251L31.0281 97.9616ZM31.8258 97.354C31.9363 97.2681 32.0134 97.1445 32.0403 97.0047L31.2546 96.8539C31.265 96.8 31.2944 96.7538 31.3348 96.7224L31.8258 97.354ZM32.0403 97.0047C32.0671 96.8646 32.0412 96.7204 31.9685 96.5988L31.2819 97.0093C31.2544 96.9633 31.2442 96.908 31.2546 96.8539L32.0403 97.0047ZM31.9699 96.601L31.2231 95.3332L30.5338 95.7392L31.2806 97.0071L31.9699 96.601ZM31.2217 95.331C31.1499 95.2108 31.0379 95.1218 30.9079 95.0775L30.6496 95.8346C30.6035 95.8189 30.5622 95.7868 30.5351 95.7415L31.2217 95.331ZM30.9079 95.0775C30.778 95.0332 30.6365 95.0355 30.508 95.0841L30.7912 95.8323C30.7456 95.8495 30.6957 95.8503 30.6496 95.8346L30.9079 95.0775ZM30.5035 95.0858L29.5686 95.4528L29.8608 96.1975L30.7957 95.8305L30.5035 95.0858ZM29.9552 95.5055C29.7336 95.3387 29.4911 95.2008 29.2336 95.095L28.9296 95.835C29.1243 95.915 29.3073 96.0192 29.4742 96.1447L29.9552 95.5055ZM29.4775 95.4077L29.3371 94.4383L28.5454 94.553L28.6857 95.5223L29.4775 95.4077ZM29.3342 94.4209C29.3078 94.2819 29.2321 94.1587 29.1232 94.0719L28.6245 94.6974C28.5861 94.6668 28.5581 94.6222 28.5483 94.5704L29.3342 94.4209ZM29.1232 94.0719C29.0147 93.9853 28.8797 93.9401 28.7424 93.9424L28.7555 94.7423C28.7091 94.743 28.6627 94.7278 28.6245 94.6974L29.1232 94.0719ZM28.7489 93.9423H27.2483V94.7423H28.7489V93.9423ZM27.2453 93.9423C27.1099 93.9433 26.9777 93.9906 26.8721 94.078L27.3822 94.6944C27.3443 94.7257 27.2979 94.742 27.2513 94.7423L27.2453 93.9423ZM26.8721 94.078C26.7663 94.1656 26.6935 94.2883 26.6692 94.4259L27.4569 94.5655C27.4476 94.6176 27.4203 94.6628 27.3822 94.6944L26.8721 94.078ZM26.6671 94.4383L26.5268 95.4077L27.3185 95.5223L27.4589 94.553L26.6671 94.4383ZM26.7715 95.0947C26.5132 95.2001 26.27 95.3384 26.0482 95.5061L26.5309 96.1441C26.6969 96.0185 26.8794 95.9147 27.0737 95.8354L26.7715 95.0947ZM26.4357 95.4528L25.5008 95.0858L25.2085 95.8305L26.1434 96.1975L26.4357 95.4528ZM25.4987 95.085C25.3697 95.0352 25.2272 95.0322 25.0963 95.0763L25.3517 95.8344C25.3058 95.8499 25.256 95.8489 25.2106 95.8314L25.4987 95.085ZM25.0963 95.0763C24.9652 95.1205 24.8523 95.2098 24.7799 95.3307L25.4662 95.7418C25.4391 95.787 25.3978 95.8189 25.3517 95.8344L25.0963 95.0763ZM24.7784 95.3332L24.0316 96.601L24.7209 97.0071L25.4677 95.7392L24.7784 95.3332ZM24.0316 96.6011C23.9602 96.7222 23.9349 96.8655 23.9616 97.0046L24.7473 96.8538C24.7575 96.9071 24.7477 96.9616 24.7209 97.0071L24.0316 96.6011ZM23.9616 97.0046C23.9883 97.1435 24.0644 97.2664 24.1736 97.3524L24.6687 96.724C24.7082 96.7551 24.7371 96.8007 24.7473 96.8538L23.9616 97.0046ZM24.1782 97.356L24.9699 97.9611L25.4558 97.3256L24.6641 96.7204L24.1782 97.356ZM24.8168 97.5876C24.7977 97.7233 24.7875 97.8601 24.7862 97.997L25.5862 98.0044C25.5871 97.9023 25.5947 97.8003 25.609 97.6991L24.8168 97.5876ZM24.7862 98.0042C24.7874 98.1409 24.7976 98.2774 24.8168 98.4128L25.6089 98.3006C25.5947 98.2 25.5871 98.0987 25.5862 97.9972L24.7862 98.0042ZM24.9699 98.0389L24.1782 98.6441L24.6641 99.2797L25.4558 98.6745L24.9699 98.0389ZM24.1797 98.643C24.065 98.7298 23.985 98.8567 23.9582 99.0007L24.7446 99.1473C24.7344 99.2023 24.7041 99.2494 24.6626 99.2808L24.1797 98.643ZM23.9582 99.0007C23.9313 99.1448 23.9602 99.2929 24.0378 99.416L24.7147 98.9896C24.7437 99.0357 24.7549 99.0921 24.7446 99.1473L23.9582 99.0007ZM24.0321 99.4067L24.7789 100.668L25.4672 100.26L24.7204 98.999L24.0321 99.4067ZM24.7769 100.664C24.8478 100.787 24.9601 100.878 25.0911 100.923L25.3534 100.167C25.4003 100.184 25.4422 100.217 25.4691 100.263L24.7769 100.664ZM25.0911 100.923C25.222 100.969 25.3649 100.966 25.4944 100.917L25.2093 100.17C25.2557 100.152 25.3066 100.151 25.3534 100.167L25.0911 100.923ZM25.4984 100.915L26.4333 100.547L26.1401 99.8028L25.2052 100.171L25.4984 100.915ZM26.0454 100.494C26.2672 100.662 26.5104 100.8 26.7687 100.905L27.0709 100.165C26.8766 100.085 26.6941 99.9815 26.5281 99.8559L26.0454 100.494ZM26.524 100.592L26.6643 101.562L27.4561 101.447L27.3157 100.478L26.524 100.592ZM26.6663 101.574C26.6907 101.712 26.7635 101.834 26.8693 101.922L27.3794 101.306C27.4174 101.337 27.4448 101.382 27.4541 101.435L26.6663 101.574ZM26.8693 101.922C26.9749 102.009 27.1071 102.057 27.2425 102.058L27.2485 101.258C27.2951 101.258 27.3415 101.274 27.3794 101.306L26.8693 101.922ZM27.2455 102.058H28.7489V101.258H27.2455V102.058ZM28.7495 102.058C28.8858 102.058 29.0191 102.01 29.1254 101.922L28.6153 101.306C28.6538 101.274 28.701 101.258 28.7484 101.258L28.7495 102.058ZM29.1254 101.922C29.2319 101.834 29.3049 101.71 29.3285 101.572L28.5399 101.437C28.549 101.384 28.5766 101.338 28.6153 101.306L29.1254 101.922ZM29.3301 101.562L29.4705 100.592L28.6787 100.478L28.5383 101.447L29.3301 101.562ZM29.2248 100.906C29.484 100.801 29.7279 100.662 29.9498 100.493L29.4656 99.8565C29.3004 99.9821 29.1184 100.086 28.9244 100.164L29.2248 100.906ZM29.5609 100.547L30.4944 100.915L30.788 100.171L29.8545 99.8028L29.5609 100.547ZM30.489 100.913C30.6206 100.967 30.7675 100.972 30.9023 100.927L30.6484 100.168C30.6957 100.153 30.747 100.154 30.7934 100.173L30.489 100.913ZM30.9023 100.927C31.0373 100.882 31.1531 100.789 31.2253 100.663L30.5315 100.265C30.5586 100.218 30.6009 100.184 30.6484 100.168L30.9023 100.927ZM31.2229 100.667L31.9669 99.4061L31.2779 98.9996L30.5339 100.261L31.2229 100.667ZM31.9603 99.417C32.0374 99.2952 32.0671 99.1488 32.0421 99.0057L31.254 99.1434C31.2445 99.0891 31.2559 99.0339 31.2845 98.9887L31.9603 99.417ZM32.0421 99.0057C32.0171 98.8628 31.9399 98.7359 31.8278 98.6477L31.3327 99.2761C31.2925 99.2444 31.2635 99.1977 31.254 99.1434L32.0421 99.0057ZM31.8227 98.6436L31.0281 98.0385L30.5434 98.6749L31.3379 99.2801L31.8227 98.6436ZM27.9993 98.8809C27.8167 98.8809 27.6389 98.828 27.4885 98.73L27.0517 99.4002C27.3331 99.5836 27.6628 99.6809 27.9993 99.6809V98.8809ZM27.4885 98.73C27.3383 98.6321 27.2227 98.494 27.1549 98.3342L26.4185 98.647C26.5494 98.9551 26.7703 99.2168 27.0517 99.4002L27.4885 98.73ZM27.1549 98.3342C27.0871 98.1746 27.0695 97.9996 27.104 97.8309L26.3201 97.671C26.2532 97.9989 26.2876 98.3387 26.4185 98.647L27.1549 98.3342ZM27.104 97.8309C27.1384 97.6621 27.2236 97.5056 27.3505 97.3818L26.7919 96.8091C26.5517 97.0434 26.387 97.3432 26.3201 97.671L27.104 97.8309ZM27.3505 97.3818C27.4775 97.258 27.6405 97.1725 27.8194 97.1378L27.6671 96.3525C27.3368 96.4165 27.0321 96.5749 26.7919 96.8091L27.3505 97.3818ZM27.8194 97.1378C27.9984 97.1031 28.1838 97.121 28.3518 97.1889L28.6514 96.4471C28.3397 96.3212 27.9973 96.2884 27.6671 96.3525L27.8194 97.1378ZM28.3518 97.1889C28.5197 97.2567 28.6616 97.3709 28.7606 97.5156L29.4206 97.0634C29.2313 96.787 28.9632 96.5731 28.6514 96.4471L28.3518 97.1889ZM28.7606 97.5156C28.8596 97.6601 28.9118 97.8289 28.9118 98.0007H29.7118C29.7118 97.6661 29.6101 97.34 29.4206 97.0634L28.7606 97.5156ZM28.9118 98.0011C28.912 98.1153 28.889 98.2286 28.844 98.3347L29.5806 98.647C29.6674 98.4422 29.7121 98.2224 29.7118 98.0003L28.9118 98.0011ZM28.844 98.3347C28.7991 98.4407 28.7328 98.5378 28.6485 98.62L29.2071 99.1927C29.3667 99.037 29.4937 98.8517 29.5806 98.647L28.844 98.3347ZM28.6485 98.62C28.5642 98.7022 28.4636 98.7679 28.3522 98.8128L28.6515 99.5547C28.8587 99.4712 29.0476 99.3483 29.2071 99.1927L28.6485 98.62ZM28.3522 98.8128C28.2407 98.8578 28.1209 98.881 27.9997 98.8809L27.9989 99.6809C28.2225 99.6811 28.4443 99.6383 28.6515 99.5547L28.3522 98.8128Z" fill="#506677"/>
<rect opacity="0.2" x="39" y="77" width="52" height="7" rx="3.5" fill="#506677"/>
<rect opacity="0.2" x="39" y="94" width="52" height="7" rx="3.5" fill="#506677"/>
<rect opacity="0.2" x="39" y="111" width="52" height="7" rx="3.5" fill="#506677"/>
<path d="M36.3904 36H27.1615C26.5627 36 25.9987 35.7597 25.5751 35.3214L18.5434 28.063C18.0118 27.5156 17.8546 26.697 18.1414 25.9812C18.4294 25.2642 19.1001 24.7998 19.8525 24.7998H28.4694V15.9068C28.4694 15.1328 28.9182 14.4405 29.6118 14.1433C30.2946 13.8498 31.1081 14.0169 31.6301 14.5557L38.6655 21.8165C39.0891 22.2561 39.3219 22.8369 39.3219 23.4536V32.9758C39.3207 34.6439 38.0067 36 36.3904 36ZM27.5479 32.7281H36.1516V23.8487L31.6397 19.1923V28.0717H23.036L27.5479 32.7281Z" fill="#FF0076"/>
</svg>
