<svg width="564" height="564" viewBox="0 0 564 564" fill="none" xmlns="http://www.w3.org/2000/svg">
<path d="M0 282C0 126.256 126.256 0 282 0V0C437.744 0 564 126.256 564 282V282C564 437.744 437.744 564 282 564V564C126.256 564 0 437.744 0 282V282Z" fill="url(#paint0_linear_404_377)"/>
<path d="M0 282C0 126.256 126.256 0 282 0V0C437.744 0 564 126.256 564 282V282C564 437.744 437.744 564 282 564V564C126.256 564 0 437.744 0 282V282Z" fill="url(#paint1_radial_404_377)"/>
<path d="M189.569 369.088C187.827 370.335 185.663 370.842 183.549 370.498C181.435 370.155 179.543 368.989 178.286 367.255L121.486 288.474C120.214 286.523 119.536 284.245 119.536 281.916C119.536 279.587 120.214 277.308 121.486 275.358L178.286 196.567C179.546 194.836 181.439 193.674 183.553 193.334C185.667 192.994 187.83 193.505 189.569 194.754L205.966 206.574C207.7 207.831 208.865 209.724 209.209 211.838C209.552 213.952 209.045 216.116 207.798 217.857L166.34 275.348C162.205 282.477 162.205 282.477 166.34 288.464L207.798 345.974C209.045 347.716 209.552 349.88 209.209 351.994C208.865 354.108 207.7 356 205.966 357.258L189.569 369.088Z" fill="white"/>
<path d="M301.412 369.088C299.67 370.335 297.506 370.842 295.392 370.498C293.278 370.155 291.386 368.989 290.129 367.255L233.329 288.474C232.057 286.523 231.379 284.245 231.379 281.916C231.379 279.587 232.057 277.308 233.329 275.358L290.129 196.567C291.389 194.836 293.283 193.674 295.396 193.334C297.51 192.994 299.673 193.505 301.412 194.754L317.809 206.574C319.543 207.831 320.709 209.724 321.052 211.838C321.395 213.952 320.888 216.116 319.641 217.857L278.174 275.348C274.039 282.477 274.039 282.477 278.174 288.464L319.632 345.974C320.879 347.716 321.386 349.88 321.042 351.994C320.699 354.108 319.533 356 317.799 357.258L301.412 369.088Z" fill="white"/>
<path d="M413.255 369.088C411.511 370.344 409.341 370.856 407.22 370.513C405.099 370.169 403.201 368.998 401.943 367.256L345.143 288.474C343.871 286.524 343.194 284.245 343.194 281.916C343.194 279.587 343.871 277.309 345.143 275.358L401.943 196.567C403.204 194.828 405.103 193.66 407.224 193.321C409.345 192.981 411.514 193.496 413.255 194.754L429.652 206.575C431.386 207.832 432.552 209.724 432.895 211.838C433.238 213.952 432.731 216.116 431.484 217.858L390.017 275.349C385.891 282.478 385.891 282.477 390.017 288.465L431.484 345.975C432.731 347.716 433.238 349.88 432.895 351.994C432.552 354.108 431.386 356.001 429.652 357.258L413.255 369.088Z" fill="white"/>
<defs>
<linearGradient id="paint0_linear_404_377" x1="201.56" y1="20.7983" x2="347.453" y2="839.424" gradientUnits="userSpaceOnUse">
<stop offset="0.03125"/>
<stop offset="0.348958" stop-color="#18233D"/>
</linearGradient>
<radialGradient id="paint1_radial_404_377" cx="0" cy="0" r="1" gradientUnits="userSpaceOnUse" gradientTransform="translate(275 282) rotate(61.8311) scale(559.236)">
<stop stop-color="#0F182E"/>
<stop offset="1"/>
<stop offset="1"/>
</radialGradient>
</defs>
</svg>
