<svg width="200" height="200" viewBox="0 0 200 200" fill="none" xmlns="http://www.w3.org/2000/svg">
<rect width="200" height="200" fill="#814AE6"/>
<path d="M151.562 138.062V77.5625C151.562 77.0102 151.115 76.5625 150.562 76.5625H51C50.4477 76.5625 50 77.0102 50 77.5625V138.062C50 138.615 50.4477 139.062 51 139.062H150.562C151.115 139.062 151.562 138.615 151.562 138.062Z" fill="#CBC1FF"/>
<path d="M148.563 150L53 150C51.3431 150 50 148.657 50 147L50 136.455C50 136.13 50.1573 135.826 50.4221 135.639L100.167 100.409C100.513 100.164 100.976 100.164 101.322 100.409L151.14 135.639C151.405 135.826 151.563 136.13 151.563 136.455L151.563 147C151.563 148.657 150.219 150 148.563 150Z" fill="#EAF8FF"/>
<path d="M100.195 40.2674L51.0864 75.7769C50.5444 76.1689 50.5325 76.9721 51.0626 77.3799L100.172 115.156C100.531 115.432 101.032 115.432 101.391 115.156L150.5 77.3799C151.03 76.9721 151.018 76.1689 150.476 75.7769L101.367 40.2674C101.017 40.0146 100.545 40.0146 100.195 40.2674Z" fill="#EAF8FF"/>
<path d="M57.8125 51C57.8125 50.4477 58.2602 50 58.8125 50H144.312C144.865 50 145.312 50.4477 145.312 51V82.3072C145.312 82.6249 145.161 82.9238 144.906 83.1122L101.385 115.18C101.027 115.444 100.538 115.44 100.185 115.17L58.2056 83.1127C57.9579 82.9235 57.8125 82.6296 57.8125 82.3179V51Z" fill="#7040C7"/>
<rect x="76" y="78" width="50" height="5" rx="2.5" fill="#EAF8FF"/>
<rect x="76" y="65" width="50" height="5" rx="2.5" fill="#EAF8FF"/>
</svg>
