<svg width="128" height="128" viewBox="0 0 128 128" fill="none" xmlns="http://www.w3.org/2000/svg">
<rect width="128" height="128" fill="#8B81EA"/>
<path d="M97 88V50C97 49.4477 96.5523 49 96 49H33C32.4477 49 32 49.4477 32 50V88C32 88.5523 32.4477 89 33 89H96C96.5523 89 97 88.5523 97 88Z" fill="#C9E9F8"/>
<path d="M94 96L35 96C33.3431 96 32 94.6568 32 93L32 87.5172C32 87.1928 32.1573 86.8886 32.4221 86.7011L63.8987 64.409C64.2447 64.1639 64.7078 64.1638 65.054 64.4086L96.5774 86.7011C96.8424 86.8886 97 87.193 97 87.5176L97 93C97 94.6568 95.6569 96 94 96Z" fill="#EAF8FF"/>
<path d="M63.9141 25.9237L33.0864 48.2144C32.5444 48.6064 32.5325 49.4096 33.0626 49.8174L63.8903 73.531C64.2497 73.8075 64.7503 73.8075 65.1097 73.531L95.9374 49.8174C96.4675 49.4096 96.4556 48.6064 95.9136 48.2144L65.0859 25.9237C64.7362 25.6708 64.2638 25.6708 63.9141 25.9237Z" fill="#A3D5F1"/>
<path d="M37 33C37 32.4477 37.4477 32 38 32H92C92.5523 32 93 32.4477 93 33V52.4947C93 52.8124 92.849 53.1113 92.5932 53.2997L65.1039 73.555C64.7461 73.8187 64.2571 73.8145 63.9038 73.5447L37.3931 53.3002C37.1454 53.111 37 52.8171 37 52.5054V33Z" fill="#7432E3"/>
<rect x="49" y="50" width="32" height="3" rx="1.5" fill="#EAF8FF"/>
<rect x="49" y="42" width="32" height="3" rx="1.5" fill="#EAF8FF"/>
</svg>
