<svg width="200" height="200" viewBox="0 0 200 200" fill="none" xmlns="http://www.w3.org/2000/svg">
<rect width="200" height="200" fill="#F5F5F5"/>
<path d="M109.523 150.53L90.532 131.519L131.327 90.3145L150.668 109.648L109.523 150.53Z" fill="#8AB4F8"/>
<path d="M109.66 68.6556L90.3239 49.3175L49.3212 90.3141C43.98 95.6502 43.9755 104.299 49.3123 109.639C49.3168 109.643 49.3212 109.648 49.3212 109.648L90.3239 150.644L109.293 131.59L78.3083 100.008L109.66 68.6556Z" fill="#4285F4"/>
<path d="M150.664 90.3145L109.661 49.3178C104.32 43.9774 95.6613 43.9774 90.3201 49.3178C84.9788 54.6583 84.9788 63.3155 90.3201 68.6515L131.345 109.648C136.686 114.989 145.345 114.989 150.682 109.648C156.023 104.308 156.023 95.6505 150.682 90.3145H150.664Z" fill="#8AB4F8"/>
<path d="M99.8425 154.687C107.327 154.687 113.395 148.621 113.395 141.137C113.395 133.653 107.327 127.586 99.8425 127.586C92.3577 127.586 86.29 133.653 86.29 141.137C86.29 148.621 92.3577 154.687 99.8425 154.687Z" fill="#246FDB"/>
</svg>
