<svg width="179" height="38" fill="none" xmlns="http://www.w3.org/2000/svg"><g clip-path="url(#clip0)"><path d="M168.585 28.466h-17.802c-2.343 0-4.242 2.011-4.242 4.492v.504c0 2.481 1.899 4.492 4.242 4.492h17.802c2.343 0 4.242-2.01 4.242-4.492v-.504c0-2.481-1.899-4.492-4.242-4.492z" fill="#516677"/><path d="M152.909 35.846h-1.111v-5.27h2.446a1.717 1.717 0 0 1 1.292.488 1.796 1.796 0 0 1 0 2.42 1.704 1.704 0 0 1-1.289.49h-1.334l-.004 1.872zm1.187-2.861a.794.794 0 0 0 .552-.194.73.73 0 0 0 0-1.035.813.813 0 0 0-.552-.19h-1.187v1.419h1.187zM161.261 35.838h-1.264l-1.017-1.861h-.803v1.869h-1.122v-5.27h2.419a1.7 1.7 0 0 1 1.271.475 1.657 1.657 0 0 1 .467 1.22c.018.38-.099.753-.329 1.052a1.44 1.44 0 0 1-.803.51l1.181 2.005zm-1.929-2.857a.802.802 0 0 0 .557-.194.72.72 0 0 0 0-1.033.823.823 0 0 0-.557-.19h-1.155v1.417h1.155zM164.935 35.844a2.53 2.53 0 0 1-1.015-.173 2.574 2.574 0 0 1-.867-.565 2.78 2.78 0 0 1-.741-1.892c0-.704.265-1.381.741-1.893a2.762 2.762 0 0 1 1.886-.747 2.76 2.76 0 0 1 1.885.747c.479.512.745 1.19.745 1.896s-.266 1.385-.745 1.897a2.57 2.57 0 0 1-1.889.73zm-1.09-1.438a1.546 1.546 0 0 0 1.107.476 1.52 1.52 0 0 0 1.106-.476 1.91 1.91 0 0 0 0-2.403 1.544 1.544 0 0 0-1.106-.472 1.528 1.528 0 0 0-1.107.472 1.934 1.934 0 0 0 0 2.403z" fill="#fff"/><path d="M16.713 0L.393 9.49v18.975l16.32 9.487 16.318-9.487V9.49L16.713 0zM1.484 10.123L16.713 1.27l2.826 1.65L1.484 13.377v-3.253zm0 4.52L20.642 3.556l2.831 1.646L1.484 17.928v-3.285zm0 4.555l23.083-13.36 2.818 1.639-25.9 14.992v-3.271zm0 4.54L28.48 8.112l2.895 1.683-29.89 17.292v-3.349zm15.229 12.947L1.945 28.1l3.006-1.743 14.71 8.61-2.948 1.718zm4.041-2.35L6.048 25.723l2.828-1.637 14.702 8.606-2.824 1.641zm3.914-2.276L9.966 23.454l2.817-1.63 14.69 8.601-2.805 1.634zm3.902-2.268l-14.69-8.6 2.894-1.679 14.682 8.595-2.886 1.684zm3.369-2.67l-14.07-8.238 14.07-8.144v16.383zM53.597 25.3a6.306 6.306 0 0 1-2.26-.345 5.95 5.95 0 0 1-1.944-1.119 5.014 5.014 0 0 1-1.284-1.736 4.664 4.664 0 0 1-.399-2.069 4.661 4.661 0 0 1 .399-2.068 5.012 5.012 0 0 1 1.284-1.736 5.952 5.952 0 0 1 1.944-1.119 6.306 6.306 0 0 1 2.26-.345 5.313 5.313 0 0 1 2.707.623 4.768 4.768 0 0 1 1.917 1.868l-2.023.916c-.25-.434-.617-.8-1.067-1.062a2.959 2.959 0 0 0-1.534-.419 3.54 3.54 0 0 0-1.353.222c-.429.16-.816.403-1.136.712a3.48 3.48 0 0 0-.978 2.398c0 .883.347 1.735.978 2.399.319.31.705.556 1.134.72.43.163.891.24 1.355.228a2.985 2.985 0 0 0 1.534-.413 2.817 2.817 0 0 0 1.067-1.07l2.023.904c-1.048 1.672-2.59 2.509-4.624 2.51zM70.838 25.303h-2.701l-.684-1.786h-4.776l-.7 1.786h-2.704l4.305-10.543h2.973l4.287 10.543zm-4.037-3.763L65.065 17l-1.736 4.54h3.472zM81.352 25.303h-2.538l-2.04-3.743h-1.62v3.743h-2.213V14.764H77.8c.466-.024.931.048 1.37.211.437.164.838.415 1.177.74.315.32.56.703.723 1.124.162.42.237.871.22 1.323.034.758-.2 1.503-.663 2.1a2.9 2.9 0 0 1-1.61 1.029l2.335 4.012zm-3.877-5.719c.408.016.808-.122 1.121-.387a1.434 1.434 0 0 0 .435-1.035 1.452 1.452 0 0 0-.435-1.035 1.634 1.634 0 0 0-1.121-.387h-2.32v2.844h2.32zM90.658 25.303h-6.151V14.765h5.972c.437-.024.875.033 1.288.167.414.135.794.344 1.12.617.277.244.497.54.645.867.148.328.221.68.215 1.036a2.383 2.383 0 0 1-1.958 2.423c.619.088 1.175.4 1.547.868a2.58 2.58 0 0 1 .632 1.722c.013.377-.058.752-.207 1.103-.15.35-.375.67-.663.936-.575.532-1.389.799-2.44.799zm-.717-6.317c.177.011.354-.01.522-.061.167-.052.322-.134.456-.242.118-.105.211-.233.273-.374a1.02 1.02 0 0 0 .085-.446 1.032 1.032 0 0 0-.088-.452 1.103 1.103 0 0 0-.28-.38 1.401 1.401 0 0 0-.961-.323H86.92V19l3.02-.015zm.085 4.374c.388.02.77-.095 1.072-.323.134-.115.238-.256.306-.413a1.06 1.06 0 0 0 .085-.495 1.103 1.103 0 0 0-.096-.477 1.177 1.177 0 0 0-.295-.4 1.492 1.492 0 0 0-.498-.278 1.57 1.57 0 0 0-.574-.076h-3.111v2.447l3.111.015zM101.836 25.299c-.762.02-1.52-.1-2.23-.356a5.716 5.716 0 0 1-1.899-1.134 5.095 5.095 0 0 1-1.242-1.736 4.754 4.754 0 0 1-.39-2.048 4.75 4.75 0 0 1 .39-2.046c.28-.65.703-1.24 1.242-1.734 1.132-.955 2.611-1.485 4.146-1.485 1.535 0 3.014.53 4.146 1.485a5.08 5.08 0 0 1 1.247 1.737c.281.652.414 1.35.388 2.052a4.726 4.726 0 0 1-.384 2.06 5.089 5.089 0 0 1-1.251 1.744 5.752 5.752 0 0 1-1.92 1.123 6.106 6.106 0 0 1-2.243.338zm-2.43-2.874c.317.3.695.538 1.113.701a3.655 3.655 0 0 0 2.643 0 3.413 3.413 0 0 0 1.112-.701c.631-.661.963-1.52.928-2.4a3.272 3.272 0 0 0-.928-2.402 3.413 3.413 0 0 0-1.112-.701 3.655 3.655 0 0 0-2.643 0 3.42 3.42 0 0 0-1.113.701 3.297 3.297 0 0 0-.92 2.397c-.037.88.292 1.74.92 2.405zM120.255 25.303h-2.17l-5.043-6.875v6.875h-2.25V14.76h2.314l4.897 6.623V14.76h2.252v10.543zM134.011 26.357h-2.247v-9.423h-3.097V14.76h8.411v2.174h-3.067v9.423zM147.592 25.303h-7.36V14.76h7.36v1.976h-5.144v2.228h5.034v1.977h-5.034v2.385h5.144v1.977zM156.047 25.3a5.16 5.16 0 0 1-2.034-.346 5.252 5.252 0 0 1-1.749-1.118 5.011 5.011 0 0 1-1.155-1.736 5.11 5.11 0 0 1-.359-2.069 5.11 5.11 0 0 1 .358-2.068 5.012 5.012 0 0 1 1.156-1.736 5.252 5.252 0 0 1 1.749-1.118 5.16 5.16 0 0 1 2.034-.346 4.4 4.4 0 0 1 2.435.624 4.544 4.544 0 0 1 1.727 1.867l-1.82.916a2.802 2.802 0 0 0-.962-1.062 2.465 2.465 0 0 0-1.38-.428 2.889 2.889 0 0 0-1.216.227 2.96 2.96 0 0 0-1.019.716c-.294.32-.523.697-.674 1.108-.151.411-.221.85-.206 1.289-.015.44.055.878.206 1.29.151.412.38.79.674 1.11a2.96 2.96 0 0 0 1.018.722c.385.165.8.244 1.217.232.489.002.968-.141 1.38-.413.409-.26.742-.631.962-1.07l1.82.903c-.942 1.669-2.33 2.504-4.162 2.506zM172.827 25.303h-2.257v-4.42h-4.965v4.42h-2.241V14.76h2.241v4.14h4.977v-4.14h2.245v10.543z" fill="#516677"/></g><defs><clipPath id="clip0"><path fill="#fff" transform="translate(.393)" d="M0 0h177.691v37.954H0z"/></clipPath></defs></svg>