<svg width="1000" height="1000" viewBox="0 0 1000 1000" fill="none" xmlns="http://www.w3.org/2000/svg">
<rect width="1000" height="1000" rx="200" fill="#1453F5"/>
<path d="M742.024 863H417.855C396.795 863 377.014 854.563 362.12 839.143L115.096 584.101C96.4203 564.841 90.8934 536.095 100.958 510.958C111.081 485.762 134.643 469.469 161.056 469.469H463.758V156.996C463.758 129.821 479.524 105.499 503.901 95.0245C527.87 84.7251 556.494 90.6022 574.82 109.514L821.961 364.613C836.855 380.033 845 400.457 845 422.162V756.689C845 815.285 798.806 862.942 742.024 862.942V863ZM430.713 749.008H731.669V436.418L573.831 272.5V585.09H272.933L430.771 749.008H430.713Z" fill="white"/>
</svg>
