<svg width="303" height="171" viewBox="0 0 303 171" fill="none" xmlns="http://www.w3.org/2000/svg">
<rect x="0.233337" y="0.768738" width="302" height="170" rx="6" fill="#16182D"/>
<path d="M0.233337 6.76874C0.233337 3.45503 2.91963 0.768738 6.23334 0.768738H296.233C299.547 0.768738 302.233 3.45503 302.233 6.76874V25.7687H0.233337V6.76874Z" fill="#26283C"/>
<circle cx="17.2333" cy="13.7687" r="4" fill="#3E4056"/>
<circle cx="28.2333" cy="13.7687" r="4" fill="#3E4056"/>
<circle cx="39.2333" cy="13.7687" r="4" fill="#3E4056"/>
<path d="M47.7213 47.9928H48.8093L48.9213 49.3208H48.9853C49.3907 48.8834 49.828 48.5208 50.2973 48.2328C50.7667 47.9448 51.3053 47.8008 51.9133 47.8008C52.8413 47.8008 53.5187 48.0674 53.9453 48.6008C54.3827 49.1234 54.6013 49.9021 54.6013 50.9368V55.7688H53.2893V51.1128C53.2893 50.3768 53.1507 49.8328 52.8733 49.4808C52.596 49.1181 52.1373 48.9368 51.4973 48.9368C51.2627 48.9368 51.044 48.9688 50.8413 49.0328C50.6493 49.0861 50.4573 49.1714 50.2653 49.2888C50.0733 49.4061 49.876 49.5554 49.6733 49.7368C49.4707 49.9074 49.2573 50.1101 49.0333 50.3448V55.7688H47.7213V47.9928Z" fill="#F7F7F7"/>
<path d="M58.6271 56.4248V59.0488H57.3151V47.9928H58.4031L58.5151 48.9848H58.5631C58.9258 48.6434 59.3418 48.3608 59.8111 48.1368C60.2911 47.9128 60.7711 47.8008 61.2511 47.8008C61.7738 47.8008 62.2324 47.8968 62.6271 48.0888C63.0324 48.2701 63.3684 48.5368 63.6351 48.8888C63.9124 49.2301 64.1204 49.6461 64.2591 50.1368C64.3978 50.6168 64.4671 51.1608 64.4671 51.7688C64.4671 52.4301 64.3711 53.0221 64.1791 53.5448C63.9871 54.0568 63.7258 54.4941 63.3951 54.8568C63.0751 55.2194 62.7018 55.4968 62.2751 55.6888C61.8484 55.8701 61.4004 55.9608 60.9311 55.9608C60.5684 55.9608 60.1738 55.8754 59.7471 55.7048C59.3311 55.5234 58.9471 55.2728 58.5951 54.9528L58.6271 56.4248ZM58.6271 53.9448C59.0004 54.2754 59.3738 54.5101 59.7471 54.6488C60.1204 54.7874 60.4404 54.8568 60.7071 54.8568C61.4111 54.8568 61.9871 54.5848 62.4351 54.0408C62.8831 53.4968 63.1071 52.7394 63.1071 51.7688C63.1071 51.3421 63.0644 50.9528 62.9791 50.6008C62.8938 50.2488 62.7604 49.9501 62.5791 49.7048C62.4084 49.4488 62.1844 49.2514 61.9071 49.1128C61.6298 48.9741 61.2991 48.9048 60.9151 48.9048C60.5738 48.9048 60.2058 49.0008 59.8111 49.1928C59.4271 49.3741 59.0324 49.6674 58.6271 50.0728V53.9448Z" fill="#F7F7F7"/>
<path d="M69.4048 51.7368L66.6688 47.9928H68.1248L69.3568 49.7048C69.4955 49.9181 69.6395 50.1368 69.7888 50.3608C69.9488 50.5848 70.1088 50.8034 70.2688 51.0168H70.3328C70.4822 50.8034 70.6315 50.5794 70.7808 50.3448C70.9302 50.1101 71.0742 49.8861 71.2128 49.6728L72.3808 47.9928H73.7728L71.0048 51.8488L73.9808 55.7688H72.5408L71.1808 53.9768C71.0208 53.7528 70.8502 53.5181 70.6688 53.2728C70.4982 53.0274 70.3275 52.7928 70.1568 52.5688H70.0928C69.9328 52.8034 69.7728 53.0381 69.6128 53.2728C69.4528 53.4968 69.2928 53.7314 69.1328 53.9768L67.8528 55.7688H66.4448L69.4048 51.7368Z" fill="#F7F7F7"/>
<path d="M85.8883 51.8968C85.8883 51.2461 86.0003 50.6701 86.2243 50.1688C86.459 49.6568 86.7737 49.2248 87.1683 48.8728C87.563 48.5208 88.0217 48.2541 88.5443 48.0728C89.0777 47.8914 89.6377 47.8008 90.2243 47.8008C90.8643 47.8008 91.4137 47.9128 91.8723 48.1368C92.3417 48.3608 92.7363 48.6274 93.0563 48.9368L92.4003 49.7848C92.0803 49.5074 91.7443 49.2888 91.3923 49.1288C91.051 48.9688 90.6777 48.8888 90.2723 48.8888C89.8243 48.8888 89.4137 48.9634 89.0403 49.1128C88.667 49.2514 88.347 49.4541 88.0803 49.7208C87.8243 49.9874 87.6217 50.3074 87.4723 50.6808C87.323 51.0434 87.2483 51.4488 87.2483 51.8968C87.2483 52.3448 87.3177 52.7501 87.4563 53.1128C87.6057 53.4754 87.8083 53.7901 88.0643 54.0568C88.331 54.3128 88.6457 54.5154 89.0083 54.6648C89.3817 54.8034 89.7923 54.8728 90.2403 54.8728C90.7203 54.8728 91.1577 54.7821 91.5523 54.6008C91.9577 54.4088 92.3257 54.1741 92.6563 53.8968L93.2323 54.7448C92.8057 55.1288 92.3257 55.4274 91.7923 55.6408C91.2697 55.8541 90.7203 55.9608 90.1443 55.9608C89.5363 55.9608 88.971 55.8701 88.4483 55.6888C87.9363 55.5074 87.4883 55.2461 87.1043 54.9048C86.7203 54.5528 86.4217 54.1261 86.2083 53.6248C85.995 53.1128 85.8883 52.5368 85.8883 51.8968Z" fill="#F7F7F7"/>
<path d="M96.5381 47.9928H97.6261L97.7381 49.8328H97.7861C98.1914 49.2034 98.6874 48.7074 99.2741 48.3448C99.8714 47.9821 100.533 47.8008 101.258 47.8008C101.546 47.8008 101.813 47.8274 102.058 47.8808C102.303 47.9234 102.549 48.0034 102.794 48.1208L102.49 49.2568C102.213 49.1608 101.978 49.0914 101.786 49.0488C101.605 49.0061 101.359 48.9848 101.05 48.9848C100.463 48.9848 99.8981 49.1554 99.3541 49.4968C98.8208 49.8274 98.3194 50.3981 97.8501 51.2088V55.7688H96.5381V47.9928Z" fill="#F7F7F7"/>
<path d="M104.9 51.8968C104.9 51.2568 105.012 50.6861 105.236 50.1848C105.46 49.6728 105.753 49.2408 106.116 48.8888C106.489 48.5368 106.911 48.2701 107.38 48.0888C107.86 47.8968 108.351 47.8008 108.852 47.8008C109.407 47.8008 109.903 47.8914 110.34 48.0728C110.777 48.2434 111.145 48.4888 111.444 48.8088C111.753 49.1288 111.988 49.5128 112.148 49.9608C112.308 50.4088 112.388 50.9048 112.388 51.4488C112.388 51.5874 112.383 51.7261 112.372 51.8648C112.372 51.9928 112.361 52.1048 112.34 52.2008H106.26C106.271 52.6168 106.351 52.9901 106.5 53.3208C106.66 53.6514 106.868 53.9341 107.124 54.1688C107.391 54.4034 107.7 54.5848 108.052 54.7128C108.415 54.8408 108.809 54.9048 109.236 54.9048C109.695 54.9048 110.111 54.8408 110.484 54.7128C110.868 54.5848 111.241 54.4088 111.604 54.1848L112.068 55.0488C111.684 55.2941 111.247 55.5074 110.756 55.6888C110.265 55.8701 109.705 55.9608 109.076 55.9608C108.5 55.9608 107.956 55.8701 107.444 55.6888C106.943 55.4968 106.5 55.2301 106.116 54.8888C105.743 54.5368 105.444 54.1101 105.22 53.6088C105.007 53.1074 104.9 52.5368 104.9 51.8968ZM111.172 51.2568C111.172 50.4781 110.969 49.8808 110.564 49.4648C110.159 49.0488 109.593 48.8408 108.868 48.8408C108.548 48.8408 108.239 48.8941 107.94 49.0008C107.652 49.1074 107.391 49.2674 107.156 49.4808C106.921 49.6834 106.724 49.9341 106.564 50.2328C106.404 50.5314 106.297 50.8728 106.244 51.2568H111.172Z" fill="#F7F7F7"/>
<path d="M114.686 53.7528C114.686 53.3154 114.787 52.9368 114.99 52.6168C115.203 52.2861 115.534 52.0034 115.982 51.7688C116.44 51.5341 117.027 51.3421 117.742 51.1928C118.456 51.0434 119.315 50.9261 120.318 50.8408C120.307 50.5741 120.264 50.3234 120.19 50.0888C120.115 49.8541 119.998 49.6514 119.838 49.4808C119.678 49.2994 119.464 49.1554 119.198 49.0488C118.942 48.9421 118.627 48.8888 118.254 48.8888C117.742 48.8888 117.251 48.9901 116.782 49.1928C116.312 49.3848 115.896 49.5928 115.534 49.8168L115.022 48.9208C115.214 48.7928 115.438 48.6648 115.694 48.5368C115.96 48.3981 116.238 48.2754 116.526 48.1688C116.824 48.0621 117.139 47.9768 117.47 47.9128C117.8 47.8381 118.136 47.8008 118.478 47.8008C119.544 47.8008 120.334 48.0941 120.846 48.6808C121.368 49.2568 121.63 50.0301 121.63 51.0008V55.7688H120.558L120.446 54.7128H120.398C119.96 55.0541 119.475 55.3474 118.942 55.5928C118.419 55.8381 117.88 55.9608 117.326 55.9608C116.963 55.9608 116.622 55.9074 116.302 55.8008C115.982 55.7048 115.699 55.5661 115.454 55.3848C115.219 55.1928 115.032 54.9634 114.894 54.6968C114.755 54.4194 114.686 54.1048 114.686 53.7528ZM115.966 53.6568C115.966 53.8808 116.014 54.0728 116.11 54.2328C116.206 54.3821 116.328 54.5101 116.478 54.6168C116.638 54.7128 116.819 54.7874 117.022 54.8408C117.235 54.8834 117.454 54.9048 117.678 54.9048C118.126 54.9048 118.563 54.8088 118.99 54.6168C119.427 54.4141 119.87 54.1261 120.318 53.7528V51.7048C119.486 51.7688 118.787 51.8594 118.222 51.9768C117.667 52.0941 117.219 52.2381 116.878 52.4088C116.547 52.5688 116.312 52.7554 116.174 52.9688C116.035 53.1714 115.966 53.4008 115.966 53.6568Z" fill="#F7F7F7"/>
<path d="M126.279 49.0648H124.087V48.0728L126.327 47.9928L126.503 45.8168H127.591V47.9928H131.415V49.0648H127.591V52.7608C127.591 53.1128 127.623 53.4221 127.687 53.6888C127.751 53.9448 127.858 54.1634 128.007 54.3448C128.157 54.5261 128.359 54.6648 128.615 54.7608C128.871 54.8461 129.186 54.8888 129.559 54.8888C129.933 54.8888 130.269 54.8568 130.567 54.7928C130.866 54.7288 131.154 54.6434 131.431 54.5368L131.719 55.4968C131.367 55.6248 130.978 55.7314 130.551 55.8168C130.125 55.9128 129.698 55.9608 129.271 55.9608C128.706 55.9608 128.231 55.8861 127.847 55.7368C127.463 55.5768 127.154 55.3581 126.919 55.0808C126.695 54.7928 126.53 54.4514 126.423 54.0568C126.327 53.6621 126.279 53.2248 126.279 52.7448V49.0648Z" fill="#F7F7F7"/>
<path d="M133.681 51.8968C133.681 51.2568 133.793 50.6861 134.017 50.1848C134.241 49.6728 134.534 49.2408 134.897 48.8888C135.27 48.5368 135.692 48.2701 136.161 48.0888C136.641 47.8968 137.132 47.8008 137.633 47.8008C138.188 47.8008 138.684 47.8914 139.121 48.0728C139.558 48.2434 139.926 48.4888 140.225 48.8088C140.534 49.1288 140.769 49.5128 140.929 49.9608C141.089 50.4088 141.169 50.9048 141.169 51.4488C141.169 51.5874 141.164 51.7261 141.153 51.8648C141.153 51.9928 141.142 52.1048 141.121 52.2008H135.041C135.052 52.6168 135.132 52.9901 135.281 53.3208C135.441 53.6514 135.649 53.9341 135.905 54.1688C136.172 54.4034 136.481 54.5848 136.833 54.7128C137.196 54.8408 137.59 54.9048 138.017 54.9048C138.476 54.9048 138.892 54.8408 139.265 54.7128C139.649 54.5848 140.022 54.4088 140.385 54.1848L140.849 55.0488C140.465 55.2941 140.028 55.5074 139.537 55.6888C139.046 55.8701 138.486 55.9608 137.857 55.9608C137.281 55.9608 136.737 55.8701 136.225 55.6888C135.724 55.4968 135.281 55.2301 134.897 54.8888C134.524 54.5368 134.225 54.1101 134.001 53.6088C133.788 53.1074 133.681 52.5368 133.681 51.8968ZM139.953 51.2568C139.953 50.4781 139.75 49.8808 139.345 49.4648C138.94 49.0488 138.374 48.8408 137.649 48.8408C137.329 48.8408 137.02 48.8941 136.721 49.0008C136.433 49.1074 136.172 49.2674 135.937 49.4808C135.702 49.6834 135.505 49.9341 135.345 50.2328C135.185 50.5314 135.078 50.8728 135.025 51.2568H139.953Z" fill="#F7F7F7"/>
<path d="M143.531 49.9928H150.411V50.9848H143.531V49.9928Z" fill="#F7F7F7"/>
<path d="M160.709 45.6248C160.389 45.4754 160.09 45.3794 159.813 45.3368C159.546 45.2834 159.242 45.2568 158.901 45.2568C158.197 45.2568 157.69 45.4381 157.381 45.8008C157.082 46.1528 156.933 46.6488 156.933 47.2888V47.9928H160.197V49.0648H156.933V55.7688H155.637V49.0648H153.413V48.0728L155.637 47.9928V47.3368C155.637 46.3874 155.887 45.6248 156.389 45.0488C156.901 44.4728 157.695 44.1848 158.773 44.1848C159.541 44.1848 160.287 44.3341 161.013 44.6328L160.709 45.6248Z" fill="#F7F7F7"/>
<path d="M162.654 53.7528C162.654 53.3154 162.756 52.9368 162.958 52.6168C163.172 52.2861 163.502 52.0034 163.95 51.7688C164.409 51.5341 164.996 51.3421 165.71 51.1928C166.425 51.0434 167.284 50.9261 168.286 50.8408C168.276 50.5741 168.233 50.3234 168.158 50.0888C168.084 49.8541 167.966 49.6514 167.806 49.4808C167.646 49.2994 167.433 49.1554 167.166 49.0488C166.91 48.9421 166.596 48.8888 166.222 48.8888C165.71 48.8888 165.22 48.9901 164.75 49.1928C164.281 49.3848 163.865 49.5928 163.502 49.8168L162.99 48.9208C163.182 48.7928 163.406 48.6648 163.662 48.5368C163.929 48.3981 164.206 48.2754 164.494 48.1688C164.793 48.0621 165.108 47.9768 165.438 47.9128C165.769 47.8381 166.105 47.8008 166.446 47.8008C167.513 47.8008 168.302 48.0941 168.814 48.6808C169.337 49.2568 169.598 50.0301 169.598 51.0008V55.7688H168.526L168.414 54.7128H168.366C167.929 55.0541 167.444 55.3474 166.91 55.5928C166.388 55.8381 165.849 55.9608 165.294 55.9608C164.932 55.9608 164.59 55.9074 164.27 55.8008C163.95 55.7048 163.668 55.5661 163.422 55.3848C163.188 55.1928 163.001 54.9634 162.862 54.6968C162.724 54.4194 162.654 54.1048 162.654 53.7528ZM163.934 53.6568C163.934 53.8808 163.982 54.0728 164.078 54.2328C164.174 54.3821 164.297 54.5101 164.446 54.6168C164.606 54.7128 164.788 54.7874 164.99 54.8408C165.204 54.8834 165.422 54.9048 165.646 54.9048C166.094 54.9048 166.532 54.8088 166.958 54.6168C167.396 54.4141 167.838 54.1261 168.286 53.7528V51.7048C167.454 51.7688 166.756 51.8594 166.19 51.9768C165.636 52.0941 165.188 52.2381 164.846 52.4088C164.516 52.5688 164.281 52.7554 164.142 52.9688C164.004 53.1714 163.934 53.4008 163.934 53.6568Z" fill="#F7F7F7"/>
<path d="M172.232 51.8968C172.232 51.2461 172.344 50.6701 172.568 50.1688C172.803 49.6568 173.117 49.2248 173.512 48.8728C173.907 48.5208 174.365 48.2541 174.888 48.0728C175.421 47.8914 175.981 47.8008 176.568 47.8008C177.208 47.8008 177.757 47.9128 178.216 48.1368C178.685 48.3608 179.08 48.6274 179.4 48.9368L178.744 49.7848C178.424 49.5074 178.088 49.2888 177.736 49.1288C177.395 48.9688 177.021 48.8888 176.616 48.8888C176.168 48.8888 175.757 48.9634 175.384 49.1128C175.011 49.2514 174.691 49.4541 174.424 49.7208C174.168 49.9874 173.965 50.3074 173.816 50.6808C173.667 51.0434 173.592 51.4488 173.592 51.8968C173.592 52.3448 173.661 52.7501 173.8 53.1128C173.949 53.4754 174.152 53.7901 174.408 54.0568C174.675 54.3128 174.989 54.5154 175.352 54.6648C175.725 54.8034 176.136 54.8728 176.584 54.8728C177.064 54.8728 177.501 54.7821 177.896 54.6008C178.301 54.4088 178.669 54.1741 179 53.8968L179.576 54.7448C179.149 55.1288 178.669 55.4274 178.136 55.6408C177.613 55.8541 177.064 55.9608 176.488 55.9608C175.88 55.9608 175.315 55.8701 174.792 55.6888C174.28 55.5074 173.832 55.2461 173.448 54.9048C173.064 54.5528 172.765 54.1261 172.552 53.6248C172.339 53.1128 172.232 52.5368 172.232 51.8968Z" fill="#F7F7F7"/>
<path d="M183.842 49.0648H181.65V48.0728L183.89 47.9928L184.066 45.8168H185.154V47.9928H188.978V49.0648H185.154V52.7608C185.154 53.1128 185.186 53.4221 185.25 53.6888C185.314 53.9448 185.421 54.1634 185.57 54.3448C185.719 54.5261 185.922 54.6648 186.178 54.7608C186.434 54.8461 186.749 54.8888 187.122 54.8888C187.495 54.8888 187.831 54.8568 188.13 54.7928C188.429 54.7288 188.717 54.6434 188.994 54.5368L189.282 55.4968C188.93 55.6248 188.54 55.7314 188.114 55.8168C187.687 55.9128 187.26 55.9608 186.834 55.9608C186.268 55.9608 185.794 55.8861 185.41 55.7368C185.026 55.5768 184.717 55.3581 184.482 55.0808C184.258 54.7928 184.093 54.4514 183.986 54.0568C183.89 53.6621 183.842 53.2248 183.842 52.7448V49.0648Z" fill="#F7F7F7"/>
<path d="M191.1 51.8968C191.1 51.2461 191.201 50.6701 191.404 50.1688C191.617 49.6568 191.9 49.2248 192.252 48.8728C192.604 48.5208 193.009 48.2541 193.468 48.0728C193.937 47.8914 194.428 47.8008 194.94 47.8008C195.452 47.8008 195.937 47.8914 196.396 48.0728C196.865 48.2541 197.276 48.5208 197.628 48.8728C197.98 49.2248 198.257 49.6568 198.46 50.1688C198.673 50.6701 198.78 51.2461 198.78 51.8968C198.78 52.5368 198.673 53.1128 198.46 53.6248C198.257 54.1261 197.98 54.5528 197.628 54.9048C197.276 55.2461 196.865 55.5074 196.396 55.6888C195.937 55.8701 195.452 55.9608 194.94 55.9608C194.428 55.9608 193.937 55.8701 193.468 55.6888C193.009 55.5074 192.604 55.2461 192.252 54.9048C191.9 54.5528 191.617 54.1261 191.404 53.6248C191.201 53.1128 191.1 52.5368 191.1 51.8968ZM192.46 51.8968C192.46 52.3448 192.518 52.7501 192.636 53.1128C192.753 53.4754 192.918 53.7901 193.132 54.0568C193.356 54.3128 193.617 54.5154 193.916 54.6648C194.225 54.8034 194.566 54.8728 194.94 54.8728C195.313 54.8728 195.649 54.8034 195.948 54.6648C196.257 54.5154 196.518 54.3128 196.732 54.0568C196.956 53.7901 197.126 53.4754 197.244 53.1128C197.361 52.7501 197.42 52.3448 197.42 51.8968C197.42 51.4488 197.361 51.0434 197.244 50.6808C197.126 50.3074 196.956 49.9874 196.732 49.7208C196.518 49.4541 196.257 49.2514 195.948 49.1128C195.649 48.9634 195.313 48.8888 194.94 48.8888C194.566 48.8888 194.225 48.9634 193.916 49.1128C193.617 49.2514 193.356 49.4541 193.132 49.7208C192.918 49.9874 192.753 50.3074 192.636 50.6808C192.518 51.0434 192.46 51.4488 192.46 51.8968Z" fill="#F7F7F7"/>
<path d="M202.069 47.9928H203.157L203.269 49.8328H203.317C203.723 49.2034 204.219 48.7074 204.805 48.3448C205.403 47.9821 206.064 47.8008 206.789 47.8008C207.077 47.8008 207.344 47.8274 207.589 47.8808C207.835 47.9234 208.08 48.0034 208.325 48.1208L208.021 49.2568C207.744 49.1608 207.509 49.0914 207.317 49.0488C207.136 49.0061 206.891 48.9848 206.581 48.9848C205.995 48.9848 205.429 49.1554 204.885 49.4968C204.352 49.8274 203.851 50.3981 203.381 51.2088V55.7688H202.069V47.9928Z" fill="#F7F7F7"/>
<path d="M210.687 49.9928H217.567V50.9848H210.687V49.9928Z" fill="#F7F7F7"/>
<path d="M220.217 53.7528C220.217 53.3154 220.318 52.9368 220.521 52.6168C220.734 52.2861 221.065 52.0034 221.513 51.7688C221.971 51.5341 222.558 51.3421 223.273 51.1928C223.988 51.0434 224.846 50.9261 225.849 50.8408C225.838 50.5741 225.796 50.3234 225.721 50.0888C225.646 49.8541 225.529 49.6514 225.369 49.4808C225.209 49.2994 224.996 49.1554 224.729 49.0488C224.473 48.9421 224.158 48.8888 223.785 48.8888C223.273 48.8888 222.782 48.9901 222.313 49.1928C221.844 49.3848 221.428 49.5928 221.065 49.8168L220.553 48.9208C220.745 48.7928 220.969 48.6648 221.225 48.5368C221.492 48.3981 221.769 48.2754 222.057 48.1688C222.356 48.0621 222.67 47.9768 223.001 47.9128C223.332 47.8381 223.668 47.8008 224.009 47.8008C225.076 47.8008 225.865 48.0941 226.377 48.6808C226.899 49.2568 227.161 50.0301 227.161 51.0008V55.7688H226.089L225.977 54.7128H225.929C225.491 55.0541 225.006 55.3474 224.473 55.5928C223.95 55.8381 223.412 55.9608 222.857 55.9608C222.494 55.9608 222.153 55.9074 221.833 55.8008C221.513 55.7048 221.23 55.5661 220.985 55.3848C220.75 55.1928 220.564 54.9634 220.425 54.6968C220.286 54.4194 220.217 54.1048 220.217 53.7528ZM221.497 53.6568C221.497 53.8808 221.545 54.0728 221.641 54.2328C221.737 54.3821 221.86 54.5101 222.009 54.6168C222.169 54.7128 222.35 54.7874 222.553 54.8408C222.766 54.8834 222.985 54.9048 223.209 54.9048C223.657 54.9048 224.094 54.8088 224.521 54.6168C224.958 54.4141 225.401 54.1261 225.849 53.7528V51.7048C225.017 51.7688 224.318 51.8594 223.753 51.9768C223.198 52.0941 222.75 52.2381 222.409 52.4088C222.078 52.5688 221.844 52.7554 221.705 52.9688C221.566 53.1714 221.497 53.4008 221.497 53.6568Z" fill="#F7F7F7"/>
<path d="M231.315 56.4248V59.0488H230.003V47.9928H231.091L231.203 48.9848H231.251C231.613 48.6434 232.029 48.3608 232.499 48.1368C232.979 47.9128 233.459 47.8008 233.939 47.8008C234.461 47.8008 234.92 47.8968 235.315 48.0888C235.72 48.2701 236.056 48.5368 236.323 48.8888C236.6 49.2301 236.808 49.6461 236.947 50.1368C237.085 50.6168 237.155 51.1608 237.155 51.7688C237.155 52.4301 237.059 53.0221 236.867 53.5448C236.675 54.0568 236.413 54.4941 236.083 54.8568C235.763 55.2194 235.389 55.4968 234.963 55.6888C234.536 55.8701 234.088 55.9608 233.619 55.9608C233.256 55.9608 232.861 55.8754 232.435 55.7048C232.019 55.5234 231.635 55.2728 231.283 54.9528L231.315 56.4248ZM231.315 53.9448C231.688 54.2754 232.061 54.5101 232.435 54.6488C232.808 54.7874 233.128 54.8568 233.395 54.8568C234.099 54.8568 234.675 54.5848 235.123 54.0408C235.571 53.4968 235.795 52.7394 235.795 51.7688C235.795 51.3421 235.752 50.9528 235.667 50.6008C235.581 50.2488 235.448 49.9501 235.267 49.7048C235.096 49.4488 234.872 49.2514 234.595 49.1128C234.317 48.9741 233.987 48.9048 233.603 48.9048C233.261 48.9048 232.893 49.0008 232.499 49.1928C232.115 49.3741 231.72 49.6674 231.315 50.0728V53.9448Z" fill="#F7F7F7"/>
<path d="M240.908 56.4248V59.0488H239.596V47.9928H240.684L240.796 48.9848H240.844C241.207 48.6434 241.623 48.3608 242.092 48.1368C242.572 47.9128 243.052 47.8008 243.532 47.8008C244.055 47.8008 244.514 47.8968 244.908 48.0888C245.314 48.2701 245.65 48.5368 245.916 48.8888C246.194 49.2301 246.402 49.6461 246.54 50.1368C246.679 50.6168 246.748 51.1608 246.748 51.7688C246.748 52.4301 246.652 53.0221 246.46 53.5448C246.268 54.0568 246.007 54.4941 245.676 54.8568C245.356 55.2194 244.983 55.4968 244.556 55.6888C244.13 55.8701 243.682 55.9608 243.212 55.9608C242.85 55.9608 242.455 55.8754 242.028 55.7048C241.612 55.5234 241.228 55.2728 240.876 54.9528L240.908 56.4248ZM240.908 53.9448C241.282 54.2754 241.655 54.5101 242.028 54.6488C242.402 54.7874 242.722 54.8568 242.988 54.8568C243.692 54.8568 244.268 54.5848 244.716 54.0408C245.164 53.4968 245.388 52.7394 245.388 51.7688C245.388 51.3421 245.346 50.9528 245.26 50.6008C245.175 50.2488 245.042 49.9501 244.86 49.7048C244.69 49.4488 244.466 49.2514 244.188 49.1128C243.911 48.9741 243.58 48.9048 243.196 48.9048C242.855 48.9048 242.487 49.0008 242.092 49.1928C241.708 49.3741 241.314 49.6674 240.908 50.0728V53.9448Z" fill="#F7F7F7"/>
<path opacity="0.5" d="M22.163 49.0031C22.163 48.8312 22.0849 48.6672 21.9443 48.5266L17.913 44.5109C17.7724 44.3703 17.6161 44.3156 17.4521 44.3156C17.1083 44.3156 16.8427 44.5656 16.8427 44.9172C16.8427 45.0891 16.8974 45.2531 17.0146 45.3625L18.0927 46.4797L20.3115 48.4797L18.7958 48.3703H11.4208C11.0536 48.3703 10.7958 48.6359 10.7958 49.0031C10.7958 49.3703 11.0536 49.6281 11.4208 49.6281H18.7958L20.3193 49.5187L18.0927 51.5266L17.0146 52.6359C16.8974 52.7531 16.8427 52.9172 16.8427 53.0812C16.8427 53.4328 17.1083 53.6906 17.4521 53.6906C17.6161 53.6906 17.7724 53.6281 17.913 53.4953L21.9443 49.4719C22.0849 49.3391 22.163 49.175 22.163 49.0031ZM36.8193 51.8C37.9443 51.8 39.0771 51.05 39.0771 49.1516H37.8661C37.8115 50.0734 37.4677 50.55 36.8036 50.55C36.4755 50.55 36.2021 50.4562 35.6474 49.9484C34.8271 49.1906 34.2724 48.8312 33.4521 48.8312C32.3271 48.8312 31.1865 49.5812 31.1865 51.4797H32.3974C32.4521 50.5578 32.8271 50.0812 33.4599 50.0812C33.8115 50.0812 34.1005 50.2297 34.6083 50.6828C35.5146 51.4953 35.9911 51.8 36.8193 51.8Z" fill="white"/>
</svg>
