<svg width="402" height="344" fill="none" xmlns="http://www.w3.org/2000/svg"><path d="M41.509 8.672A4 4 0 0 1 45.495 5h13.162a4 4 0 0 1 3.987 4.328l-1.153 14A4 4 0 0 1 57.505 27H44.343a4 4 0 0 1-3.987-4.328l1.153-14zM296.509 315.672a4 4 0 0 1 3.986-3.672h13.162a4 4 0 0 1 3.987 4.328l-1.153 14a4 4 0 0 1-3.986 3.672h-13.162a4 4 0 0 1-3.987-4.328l1.153-14z" fill="#0495FE" fill-opacity=".1"/><path d="M376.509 217.672a4 4 0 0 1 3.986-3.672h13.162a4 4 0 0 1 3.987 4.328l-1.153 14a4 4 0 0 1-3.986 3.672h-13.162a4 4 0 0 1-3.987-4.328l1.153-14z" fill="#0495FE" fill-opacity=".3"/><path d="M293.509 3.672A4 4 0 0 1 297.495 0h13.162a4 4 0 0 1 3.987 4.328l-1.153 14A4 4 0 0 1 309.505 22h-13.162a4 4 0 0 1-3.987-4.328l1.153-14zM84.509 325.672A4 4 0 0 1 88.495 322h13.162a4 4 0 0 1 3.987 4.328l-1.153 14a4 4 0 0 1-3.986 3.672H87.343a4 4 0 0 1-3.987-4.328l1.153-14z" fill="#0495FE" fill-opacity=".5"/><path d="M1.509 122.672A4 4 0 0 1 5.495 119h13.162a4 4 0 0 1 3.987 4.328l-1.153 14A4 4 0 0 1 17.505 141H4.343a4 4 0 0 1-3.987-4.328l1.153-14z" fill="#0495FE" fill-opacity=".3"/><path d="M46.415 23.663A4 4 0 0 1 50.401 20h341.247a4 4 0 0 1 3.986 4.337l-23.049 273a4 4 0 0 1-3.986 3.663H27.352a4 4 0 0 1-3.986-4.337l23.05-273z" fill="#fff" filter="url(#filter0_dd)"/><path d="M36.543 287.5l15.917-192h322.997l-15.917 192H36.543z" fill="#fff" stroke="#F0F1F2"/><path d="M54.853 66.247a4 4 0 0 1 4.027-3.755l19.988.175a4 4 0 0 1 3.958 4.244l-.675 11.004a4 4 0 0 1-4.028 3.754l-19.988-.174a4 4 0 0 1-3.957-4.245l.675-11.003z" fill="#fff" filter="url(#filter1_dd)"/><path d="M86.852 66.526a4 4 0 0 1 4.027-3.755l19.988.175a4 4 0 0 1 3.958 4.245l-.676 11.003a4 4 0 0 1-4.027 3.755l-19.988-.175a4 4 0 0 1-3.958-4.245l.675-11.003z" fill="#fff" filter="url(#filter2_dd)"/><path d="M118.85 66.805a4 4 0 0 1 4.028-3.754l19.988.174a4 4 0 0 1 3.957 4.245l-.675 11.003a4 4 0 0 1-4.027 3.755l-19.988-.174a4 4 0 0 1-3.958-4.245l.675-11.004z" fill="#fff" filter="url(#filter3_dd)"/><path d="M150.849 67.085a4 4 0 0 1 4.027-3.755l19.989.174a4 4 0 0 1 3.957 4.245l-.675 11.004a4 4 0 0 1-4.027 3.754l-19.989-.174a4 4 0 0 1-3.957-4.245l.675-11.003z" fill="#fff" filter="url(#filter4_dd)"/><path d="M66.478 69.776a1.179 1.179 0 1 0-2.358-.02 1.179 1.179 0 0 0 2.358.02zm6.265 2.412l-2.531-2.576-3.17 3.115-.974-.99-1.981 1.947-.01 1.178 8.642.075.024-2.75zm.627-4.317c.104.001.196.094.195.199l-.065 7.464a.202.202 0 0 1-.198.194l-9.822-.085a.202.202 0 0 1-.194-.199l.065-7.464c0-.104.094-.195.198-.194l9.821.085zm.98.205a.985.985 0 0 0-.973-.99L63.556 67a.985.985 0 0 0-.99.974l-.066 7.464a.985.985 0 0 0 .974.99l9.82.086a.985.985 0 0 0 .991-.974l.065-7.464zM104.407 74.69a.582.582 0 0 1-.176.41l-.91.888a.61.61 0 0 1-.419.156.59.59 0 0 1-.416-.17l-1.253-1.28a.59.59 0 0 1-.168-.42.589.589 0 0 1 .206-.446c.201.204.371.445.684.448a.59.59 0 0 0 .594-.584c.003-.313-.235-.487-.436-.691a.598.598 0 0 1 .86-.017l1.265 1.287c.11.112.17.26.169.42zm-4.278-4.365a.588.588 0 0 1-.206.447c-.201-.205-.37-.446-.684-.449a.59.59 0 0 0-.594.585c-.003.313.235.487.436.691a.577.577 0 0 1-.444.186.589.589 0 0 1-.416-.169l-1.266-1.288a.584.584 0 0 1 .008-.829l.91-.888a.617.617 0 0 1 .419-.162.596.596 0 0 1 .416.176l1.253 1.281c.109.112.17.266.168.42zm5.456 4.376a1.749 1.749 0 0 0-.505-1.257l-1.265-1.288a1.776 1.776 0 0 0-2.529.002l-.536-.544a1.8 1.8 0 0 0 .552-1.279 1.754 1.754 0 0 0-.499-1.25l-1.253-1.282a1.745 1.745 0 0 0-1.248-.532 1.755 1.755 0 0 0-1.25.498l-.91.888a1.756 1.756 0 0 0-.533 1.242c-.004.473.17.916.504 1.257l1.266 1.287a1.775 1.775 0 0 0 2.53-.002l.535.545a1.796 1.796 0 0 0-.552 1.278c-.004.467.17.916.499 1.25l1.253 1.282c.329.34.775.529 1.248.533.466.004.916-.17 1.25-.499l.91-.888c.335-.322.529-.775.533-1.241zM131.644 76.522c-.144-.358-.079-1.505-.075-1.929.005-.644.017-1.295.023-1.945.172-.06.436-.058.62-.056.988.008 1.811.065 2.373.99.2.327.246.727.242 1.107-.013 1.498-.926 2.049-2.326 2.037a2.194 2.194 0 0 1-.857-.204zm-.046-4.58c-.005-.141-.004-.283-.003-.424.003-.325.012-.65.015-.976.005-.62-.038-1.24-.033-1.86.265-.04.529-.075.799-.073 1.025.01 2.083.43 2.073 1.627-.013 1.417-.918 1.766-2.182 1.755a4.093 4.093 0 0 1-.669-.05zm-3.369 5.428c1.093-.034 2.205-.122 3.304-.113.54.005 1.08.046 1.62.051 1.799.016 3.726-.667 3.744-2.779.012-1.289-1.019-2.09-2.183-2.364.869-.385 1.708-.789 1.717-1.888.014-1.596-1.508-2.272-2.896-2.284-.276-.002-.558-.01-.834-.013-1.455-.013-2.917.079-4.378.09l.02.51c.202.026 1.104.077 1.195.256.145.29.081 6.158.08 6.293-.004.411.021 1.05-.197 1.41-.381.156-.78.159-1.174.254l-.018.577zM161.411 77.368c.541-.026 1.075-.114 1.622-.109.417.004.841.014 1.264.023.35.01.711.13 1.061.133.135 0 .264-.017.399-.016a3.56 3.56 0 0 0 .104-.606c-.381-.065-.761-.111-1.134-.2l-.006-.111c-.022-.258.29-1.477.354-1.771.339-1.575.745-3.161 1.054-4.748.064-.35.098-.711.236-1.042.419-.162.868-.225 1.292-.369.051-.178.096-.361.122-.545-.651.03-1.302.087-1.953.08-.798-.006-1.602-.075-2.393-.118l-.122.631c.368.065.779.019 1.115.206l-.001.154c.014.49-1.377 6.5-1.46 6.917-.045.215-.114.441-.257.618-.37.187-.794.233-1.188.352l-.109.52z" fill="#506677"/><path d="M59.416 113.545v-.82h1.149l.644-2.409h-1.793v-.814h1.998l.686-2.596h.855l-.685 2.596h1.658l.715-2.596h.855l-.703 2.596h.984v.814h-1.213l-.638 2.409h1.851v.82H63.7L63.031 116h-.867l.68-2.455h-1.635L60.564 116h-.867l.65-2.455h-.931zm2.01-.82h1.64l.662-2.409h-1.675l-.627 2.409zM66.263 113.545v-.82h1.148l.645-2.409h-1.793v-.814h1.998l.686-2.596h.855l-.685 2.596h1.658l.715-2.596h.855l-.703 2.596h.984v.814h-1.213l-.638 2.409h1.851v.82h-2.08L69.878 116h-.867l.68-2.455h-1.635L67.412 116h-.868l.65-2.455h-.931zm2.01-.82h1.64l.663-2.409H68.9l-.627 2.409zM80.824 116h-.955v-9.094h1.19l2.097 5.989 2.098-5.989h1.16V116h-1.09v-5.795l.03-.797h-.03l-.257.797-1.407 3.979h-1.183l-1.424-3.979-.229-.797h-.029l.03.797V116zM91.597 114.529c-.332.547-.732.959-1.201 1.237-.465.277-.893.416-1.283.416-.547 0-1.04-.237-1.477-.709-.433-.473-.65-1.19-.65-2.151 0-.758.144-1.433.433-2.027.29-.598.676-1.068 1.16-1.412.485-.348 1.085-.522 1.8-.522.206 0 .519.022.937.065.062.008.156.017.281.029h1.096v4.623c0 .789.082 1.43.246 1.922h-1.137c-.086-.359-.154-.85-.205-1.471zm0-1.295v-2.806a4.244 4.244 0 0 0-1.078-.153c-.672 0-1.232.26-1.682.78-.445.519-.668 1.226-.668 2.121 0 .648.121 1.138.364 1.47.246.329.525.493.838.493.34 0 .714-.172 1.125-.516.41-.344.777-.807 1.101-1.389zM94.7 116v-6.545h1.09v1.43c.34-.539.728-.942 1.166-1.207.441-.27.931-.405 1.47-.405.395 0 .79.061 1.184.182v2.361h-1.049v-1.494a2.78 2.78 0 0 0-.433-.047c-.406 0-.805.161-1.196.481-.39.32-.771.801-1.142 1.441V116H94.7zM101.283 116v-9.457h1.09v5.941l3.147-3.029h1.453l-3.141 3.029 3.223 3.516h-1.5l-3.182-3.516V116h-1.09zM112.209 114.529c-.333.547-.733.959-1.202 1.237-.465.277-.892.416-1.283.416-.547 0-1.039-.237-1.476-.709-.434-.473-.651-1.19-.651-2.151 0-.758.145-1.433.434-2.027.289-.598.676-1.068 1.16-1.412.484-.348 1.084-.522 1.799-.522.207 0 .519.022.937.065.063.008.157.017.282.029v-2.912h1.095V116h-1.095v-1.471zm0-1.295v-2.806a4.253 4.253 0 0 0-1.079-.153c-.671 0-1.232.26-1.681.78-.446.519-.668 1.226-.668 2.121 0 .648.121 1.138.363 1.47.246.329.525.493.838.493.34 0 .715-.172 1.125-.516.41-.344.777-.807 1.102-1.389zM117.38 116.182c-.938 0-1.688-.327-2.25-.979-.563-.656-.844-1.482-.844-2.478 0-.996.281-1.821.844-2.473.562-.652 1.312-.979 2.25-.979.933 0 1.681.327 2.244.979.562.652.844 1.477.844 2.473 0 .996-.282 1.822-.844 2.478-.563.652-1.311.979-2.244.979zm0-.909c.582 0 1.045-.226 1.388-.679.344-.453.516-1.076.516-1.869 0-.789-.172-1.411-.516-1.864-.343-.453-.806-.679-1.388-.679-.586 0-1.051.226-1.395.679-.344.453-.515 1.075-.515 1.864 0 .793.171 1.416.515 1.869.344.453.809.679 1.395.679zM121.807 116l-1.067-6.545h1.014l.621 3.984.164.926.158-.926 1.043-3.984h.979l1.178 3.984.205.926.135-.926.627-3.984h.837l-1.06 6.545h-1.02l-1.254-4.213-.199-.926h-.029l-.182.92-1.09 4.219h-1.06zM128.379 116v-6.545h1.089v1.43c.313-.504.69-.899 1.131-1.184.442-.285.883-.428 1.324-.428.387 0 .739.104 1.055.311.317.203.537.471.662.803.129.332.194.984.194 1.957V116h-1.09v-3.791c0-.629-.031-1.043-.094-1.242a.957.957 0 0 0-.334-.498.822.822 0 0 0-.527-.194c-.383 0-.795.182-1.237.545a4.41 4.41 0 0 0-1.084 1.366V116h-1.089zM147.264 114.998V116h-4.91v-9.094h4.816v.914h-3.633v3.088h3.27v.908h-3.27v3.182h3.727zM153.291 114.529c-.332.547-.733.959-1.201 1.237-.465.277-.893.416-1.284.416-.547 0-1.039-.237-1.476-.709-.434-.473-.651-1.19-.651-2.151 0-.758.145-1.433.434-2.027.289-.598.676-1.068 1.16-1.412.484-.348 1.084-.522 1.799-.522.207 0 .519.022.937.065.063.008.157.017.282.029v-2.912h1.095V116h-1.095v-1.471zm0-1.295v-2.806a4.245 4.245 0 0 0-1.078-.153c-.672 0-1.233.26-1.682.78-.445.519-.668 1.226-.668 2.121 0 .648.121 1.138.363 1.47.246.329.526.493.838.493.34 0 .715-.172 1.125-.516.41-.344.777-.807 1.102-1.389zM157.601 116v-5.637h-1.817v-.908h2.906v5.637h1.823V116h-2.912zm-.182-8.906c0-.246.084-.43.252-.551.168-.121.326-.182.475-.182.152 0 .312.061.48.182.168.121.252.305.252.551 0 .242-.084.424-.252.545-.168.121-.328.181-.48.181-.149 0-.307-.06-.475-.181-.168-.121-.252-.303-.252-.545zM168.086 115.736c-.511.215-.882.342-1.113.381-.23.043-.453.065-.668.065a2.94 2.94 0 0 1-1.254-.264 1.863 1.863 0 0 1-.861-.779c-.192-.344-.287-.875-.287-1.594v-2.637h-1.635V110h1.635v-2.637h1.09V110h2.912v.908h-2.912v2.619c0 .528.062.901.187 1.119.125.215.291.374.498.475.211.102.459.152.744.152.528 0 1.082-.166 1.664-.498v.961zM172.156 116.182c-.937 0-1.687-.327-2.25-.979-.562-.656-.844-1.482-.844-2.478 0-.996.282-1.821.844-2.473.563-.652 1.313-.979 2.25-.979.934 0 1.682.327 2.244.979.563.652.844 1.477.844 2.473 0 .996-.281 1.822-.844 2.478-.562.652-1.31.979-2.244.979zm0-.909c.582 0 1.045-.226 1.389-.679.343-.453.515-1.076.515-1.869 0-.789-.172-1.411-.515-1.864-.344-.453-.807-.679-1.389-.679-.586 0-1.051.226-1.395.679-.343.453-.515 1.075-.515 1.864 0 .793.172 1.416.515 1.869.344.453.809.679 1.395.679zM176.864 116v-6.545h1.09v1.43c.34-.539.729-.942 1.166-1.207.442-.27.932-.405 1.471-.405.394 0 .789.061 1.184.182v2.361h-1.049v-1.494a2.783 2.783 0 0 0-.434-.047c-.406 0-.805.161-1.195.481-.391.32-.772.801-1.143 1.441V116h-1.09z" fill="#0495FE"/><path d="M58.607 139.764v-8.074h-2.643v-1h6.44v1h-2.649v8.074h-1.148zM63.214 139.764v-9.436h1.058v4.332c.303-.503.668-.897 1.097-1.181.428-.285.856-.427 1.284-.427.36 0 .688.096.984.287.299.187.507.415.625.684a2.4 2.4 0 0 1 .193.66c.034.23.051.708.051 1.433v3.648H67.45v-3.783c0-.627-.03-1.04-.09-1.239a.95.95 0 0 0-.325-.497.783.783 0 0 0-.512-.193c-.37 0-.77.181-1.199.544a4.344 4.344 0 0 0-1.051 1.362v3.806h-1.058zM75.137 139.331c-.845.413-1.644.62-2.398.62a2.754 2.754 0 0 1-1.535-.439c-.451-.292-.813-.709-1.086-1.251a4.006 4.006 0 0 1-.017-3.467c.258-.549.618-.976 1.08-1.28a2.728 2.728 0 0 1 1.546-.462c.754 0 1.359.277 1.813.83.46.554.688 1.407.688 2.561v.234h-4.377c0 .452.091.865.273 1.239.186.374.428.655.728.842.3.187.64.281 1.023.281.682 0 1.436-.234 2.262-.702v.994zm-4.223-3.467h3.166v-.158c0-.534-.127-.958-.38-1.274-.255-.316-.594-.474-1.018-.474-.428 0-.8.162-1.114.486-.311.319-.529.793-.654 1.42zM83.505 139.764h-.926v-9.074h1.154l2.035 5.975 2.035-5.975h1.125v9.074h-1.057v-5.782l.028-.795h-.028l-.25.795-1.364 3.969h-1.149l-1.381-3.969-.222-.795h-.028l.028.795v5.782zM93.956 138.296c-.322.546-.71.957-1.165 1.234-.451.277-.866.415-1.245.415-.53 0-1.008-.236-1.432-.707-.421-.472-.631-1.187-.631-2.146 0-.756.14-1.43.42-2.023.28-.596.656-1.066 1.126-1.409.47-.347 1.051-.52 1.745-.52.2 0 .504.021.91.064.06.008.15.018.272.029h1.063v4.613c0 .787.08 1.427.239 1.918h-1.103c-.083-.359-.15-.848-.199-1.468zm0-1.292v-2.8a4.042 4.042 0 0 0-1.046-.152c-.651 0-1.195.259-1.631.777-.432.519-.648 1.224-.648 2.117 0 .647.117 1.136.352 1.467.24.328.51.491.813.491.33 0 .694-.171 1.092-.514.397-.343.754-.805 1.068-1.386zM96.966 139.764v-6.531h1.058v1.427c.33-.538.706-.939 1.13-1.204a2.63 2.63 0 0 1 1.428-.404c.382 0 .765.061 1.148.181v2.356h-1.018v-1.49a2.504 2.504 0 0 0-.42-.047c-.394 0-.781.16-1.16.479-.379.32-.748.799-1.108 1.438v3.795h-1.058zM103.353 139.764v-9.436h1.057v5.928l3.053-3.023h1.409l-3.046 3.023 3.126 3.508h-1.455l-3.087-3.508v3.508h-1.057zM113.952 138.296c-.322.546-.711.957-1.166 1.234-.451.277-.866.415-1.244.415-.531 0-1.008-.236-1.433-.707-.421-.472-.631-1.187-.631-2.146 0-.756.14-1.43.421-2.023.28-.596.655-1.066 1.125-1.409.47-.347 1.052-.52 1.745-.52.201 0 .504.021.91.064.06.008.151.018.273.029v-2.905h1.063v9.436h-1.063v-1.468zm0-1.292v-2.8a4.042 4.042 0 0 0-1.046-.152c-.652 0-1.196.259-1.632.777-.432.519-.648 1.224-.648 2.117 0 .647.118 1.136.353 1.467.239.328.509.491.813.491.329 0 .693-.171 1.091-.514.398-.343.754-.805 1.069-1.386zM118.968 139.945c-.909 0-1.637-.325-2.182-.976-.546-.655-.819-1.479-.819-2.473 0-.994.273-1.817.819-2.468.545-.65 1.273-.976 2.182-.976.906 0 1.632.326 2.177.976.546.651.819 1.474.819 2.468s-.273 1.818-.819 2.473c-.545.651-1.271.976-2.177.976zm0-.906a1.59 1.59 0 0 0 1.348-.678c.333-.452.5-1.074.5-1.865 0-.788-.167-1.407-.5-1.86a1.59 1.59 0 0 0-1.348-.678c-.568 0-1.019.226-1.352.678-.334.453-.501 1.072-.501 1.86 0 .791.167 1.413.501 1.865.333.452.784.678 1.352.678zM123.263 139.764l-1.034-6.531h.983l.603 3.976.159.924.153-.924 1.012-3.976h.949l1.143 3.976.199.924.131-.924.608-3.976h.813l-1.029 6.531h-.989l-1.217-4.204-.193-.924h-.028l-.177.918-1.057 4.21h-1.029zM129.638 139.764v-6.531h1.058v1.427c.303-.503.669-.897 1.097-1.181.428-.285.856-.427 1.284-.427.376 0 .717.103 1.024.31.307.203.521.47.642.801.125.331.188.982.188 1.953v3.648h-1.058v-3.783c0-.627-.03-1.04-.091-1.239a.952.952 0 0 0-.324-.497.782.782 0 0 0-.511-.193c-.372 0-.771.181-1.2.544a4.338 4.338 0 0 0-1.051 1.362v3.806h-1.058zM148.204 139.331c-.845.413-1.645.62-2.399.62a2.756 2.756 0 0 1-1.535-.439c-.45-.292-.812-.709-1.085-1.251a4.002 4.002 0 0 1-.017-3.467c.257-.549.617-.976 1.08-1.28a2.725 2.725 0 0 1 1.546-.462c.754 0 1.358.277 1.813.83.459.554.688 1.407.688 2.561v.234h-4.377c0 .452.091.865.273 1.239.186.374.428.655.727.842.3.187.641.281 1.024.281.682 0 1.436-.234 2.262-.702v.994zm-4.223-3.467h3.166v-.158c0-.534-.127-.958-.381-1.274-.254-.316-.593-.474-1.018-.474-.428 0-.799.162-1.114.486-.31.319-.528.793-.653 1.42zM153.806 138.296c-.322.546-.71.957-1.165 1.234-.451.277-.866.415-1.245.415-.53 0-1.008-.236-1.432-.707-.421-.472-.631-1.187-.631-2.146 0-.756.14-1.43.42-2.023.281-.596.656-1.066 1.126-1.409.47-.347 1.051-.52 1.745-.52.201 0 .504.021.909.064.061.008.152.018.273.029v-2.905h1.063v9.436h-1.063v-1.468zm0-1.292v-2.8a4.042 4.042 0 0 0-1.046-.152c-.652 0-1.195.259-1.631.777-.432.519-.648 1.224-.648 2.117 0 .647.117 1.136.352 1.467.239.328.51.491.813.491.33 0 .694-.171 1.092-.514.397-.343.754-.805 1.068-1.386zM157.987 139.764v-5.624h-1.762v-.907h2.82v5.625h1.767v.906h-2.825zm-.176-8.887c0-.245.082-.428.245-.549.162-.121.316-.182.46-.182.148 0 .303.061.466.182.163.121.244.304.244.549 0 .242-.081.423-.244.544-.163.121-.318.181-.466.181-.144 0-.298-.06-.46-.181-.163-.121-.245-.302-.245-.544zM168.16 139.501c-.497.214-.857.341-1.08.38-.224.043-.44.064-.648.064-.444 0-.849-.088-1.217-.263a1.823 1.823 0 0 1-.835-.778c-.186-.343-.279-.873-.279-1.59v-2.631h-1.586v-.906h1.586v-2.631h1.057v2.631h2.825v.906h-2.825v2.614c0 .526.061.898.182 1.116.122.215.283.372.483.474.205.101.446.152.722.152.512 0 1.05-.166 1.615-.497v.959zM172.108 139.945c-.91 0-1.637-.325-2.183-.976-.546-.655-.819-1.479-.819-2.473 0-.994.273-1.817.819-2.468.546-.65 1.273-.976 2.183-.976.905 0 1.631.326 2.177.976.546.651.818 1.474.818 2.468s-.272 1.818-.818 2.473c-.546.651-1.272.976-2.177.976zm0-.906a1.59 1.59 0 0 0 1.347-.678c.333-.452.5-1.074.5-1.865 0-.788-.167-1.407-.5-1.86a1.59 1.59 0 0 0-1.347-.678c-.569 0-1.02.226-1.353.678-.334.453-.5 1.072-.5 1.86 0 .791.166 1.413.5 1.865.333.452.784.678 1.353.678zM176.675 139.764v-6.531h1.058v1.427c.329-.538.706-.939 1.131-1.204a2.628 2.628 0 0 1 1.427-.404c.382 0 .765.061 1.148.181v2.356h-1.018v-1.49a2.504 2.504 0 0 0-.42-.047c-.394 0-.781.16-1.16.479-.379.32-.748.799-1.108 1.438v3.795h-1.058zM190.398 134.701c.326-.546.714-.957 1.165-1.234.451-.277.866-.415 1.245-.415.531 0 1.008.236 1.433.708.424.471.636 1.186.636 2.145 0 .756-.142 1.433-.426 2.029-.281.592-.656 1.062-1.126 1.409-.47.343-1.051.514-1.745.514-.197 0-.5-.021-.909-.064a7.288 7.288 0 0 0-.273-.029v2.537h-1.057v-9.068h1.057v1.468zm0 1.292v2.8c.383.102.735.152 1.057.152.641 0 1.179-.257 1.615-.771.439-.519.659-1.226.659-2.123 0-.651-.119-1.14-.358-1.467-.239-.328-.51-.491-.813-.491-.33 0-.694.171-1.091.514-.395.343-.751.805-1.069 1.386zM196.603 139.764v-6.531h1.057v1.427c.33-.538.707-.939 1.131-1.204a2.628 2.628 0 0 1 1.427-.404c.383 0 .765.061 1.148.181v2.356h-1.017v-1.49a2.514 2.514 0 0 0-.421-.047c-.394 0-.781.16-1.16.479-.379.32-.748.799-1.108 1.438v3.795h-1.057zM205.32 139.945c-.91 0-1.637-.325-2.183-.976-.546-.655-.818-1.479-.818-2.473 0-.994.272-1.817.818-2.468.546-.65 1.273-.976 2.183-.976.906 0 1.631.326 2.177.976.546.651.818 1.474.818 2.468s-.272 1.818-.818 2.473c-.546.651-1.271.976-2.177.976zm0-.906c.564 0 1.014-.226 1.347-.678.334-.452.5-1.074.5-1.865 0-.788-.166-1.407-.5-1.86a1.589 1.589 0 0 0-1.347-.678c-.569 0-1.02.226-1.353.678-.333.453-.5 1.072-.5 1.86 0 .791.167 1.413.5 1.865.333.452.784.678 1.353.678zM211.411 139.764l-2.757-6.531h1.16l2.177 5.169 2.222-5.169h1.058l-2.78 6.531h-1.08zM217.769 139.764v-5.624h-1.762v-.907h2.819v5.625h1.768v.906h-2.825zm-.176-8.887c0-.245.081-.428.244-.549.163-.121.317-.182.461-.182.148 0 .303.061.466.182.163.121.244.304.244.549 0 .242-.081.423-.244.544-.163.121-.318.181-.466.181-.144 0-.298-.06-.461-.181-.163-.121-.244-.302-.244-.544zM226.873 138.296c-.322.546-.711.957-1.165 1.234-.451.277-.866.415-1.245.415-.531 0-1.008-.236-1.433-.707-.42-.472-.631-1.187-.631-2.146 0-.756.14-1.43.421-2.023.28-.596.656-1.066 1.125-1.409.47-.347 1.052-.52 1.745-.52.201 0 .504.021.91.064.061.008.152.018.273.029v-2.905h1.063v9.436h-1.063v-1.468zm0-1.292v-2.8a4.042 4.042 0 0 0-1.046-.152c-.652 0-1.196.259-1.631.777-.432.519-.648 1.224-.648 2.117 0 .647.117 1.136.352 1.467.239.328.51.491.813.491.329 0 .693-.171 1.091-.514.398-.343.754-.805 1.069-1.386zM234.555 139.331c-.845.413-1.644.62-2.398.62a2.753 2.753 0 0 1-1.535-.439c-.451-.292-.813-.709-1.086-1.251a3.897 3.897 0 0 1-.403-1.748 4 4 0 0 1 .386-1.719c.258-.549.618-.976 1.08-1.28a2.73 2.73 0 0 1 1.546-.462c.754 0 1.359.277 1.814.83.458.554.687 1.407.687 2.561v.234h-4.376c0 .452.09.865.272 1.239.186.374.429.655.728.842.299.187.64.281 1.023.281.682 0 1.436-.234 2.262-.702v.994zm-4.223-3.467h3.166v-.158c0-.534-.127-.958-.381-1.274-.254-.316-.593-.474-1.017-.474-.428 0-.8.162-1.114.486-.311.319-.529.793-.654 1.42zM235.991 139.419v-1.152c.425.285.874.485 1.347.602.474.113.876.17 1.205.17.535 0 .919-.088 1.154-.263.235-.18.353-.402.353-.667a.658.658 0 0 0-.165-.45c-.11-.125-.383-.279-.819-.462l-.364-.152-.733-.298c-.788-.316-1.284-.608-1.489-.877-.209-.265-.313-.588-.313-.97 0-.538.201-.981.603-1.328.405-.346 1.061-.52 1.967-.52.678 0 1.32.101 1.927.304v.988c-.698-.257-1.353-.386-1.967-.386-.447 0-.798.082-1.052.246-.25.16-.375.36-.375.602 0 .234.11.421.33.561.216.141.568.302 1.057.486l.716.268c.656.246 1.116.513 1.382.801.265.289.397.649.397 1.082 0 .565-.212 1.031-.636 1.397-.421.363-1.095.544-2.024.544-.811 0-1.644-.175-2.501-.526zM253.374 138.296c-.322.546-.71.957-1.165 1.234-.451.277-.866.415-1.245.415-.53 0-1.008-.236-1.432-.707-.421-.472-.631-1.187-.631-2.146 0-.756.14-1.43.42-2.023.281-.596.656-1.066 1.126-1.409.47-.347 1.051-.52 1.745-.52.201 0 .504.021.909.064.061.008.152.018.273.029h1.063v4.613c0 .787.08 1.427.239 1.918h-1.103c-.083-.359-.149-.848-.199-1.468zm0-1.292v-2.8a4.042 4.042 0 0 0-1.046-.152c-.651 0-1.195.259-1.631.777-.432.519-.648 1.224-.648 2.117 0 .647.117 1.136.352 1.467.239.328.51.491.813.491.33 0 .694-.171 1.092-.514.398-.343.754-.805 1.068-1.386zM266.727 138.296c-.322.546-.71.957-1.165 1.234-.451.277-.866.415-1.245.415-.53 0-1.008-.236-1.432-.707-.421-.472-.631-1.187-.631-2.146 0-.756.14-1.43.42-2.023.281-.596.656-1.066 1.126-1.409.47-.347 1.052-.52 1.745-.52.201 0 .504.021.909.064.061.008.152.018.273.029h1.063v4.619c0 1.099-.015 1.77-.045 2.011a5.199 5.199 0 0 1-.137.743c-.151.58-.498 1.038-1.04 1.374-.538.335-1.19.502-1.955.502-.769 0-1.548-.202-2.336-.608v-1.099c.299.211.666.396 1.102.556.44.163.864.245 1.274.245.322 0 .627-.052.915-.158.288-.105.521-.257.699-.456.178-.199.299-.43.364-.695.064-.262.096-.61.096-1.047v-.924zm0-1.292v-2.8a4.036 4.036 0 0 0-1.046-.152c-.651 0-1.195.259-1.631.777-.432.519-.648 1.224-.648 2.117 0 .647.118 1.136.352 1.467.239.328.51.491.813.491.33 0 .694-.171 1.092-.514.398-.343.754-.805 1.068-1.386zM269.669 139.764v-6.531h1.058v1.427c.329-.538.706-.939 1.131-1.204a2.627 2.627 0 0 1 1.426-.404c.383 0 .766.061 1.149.181v2.356h-1.018v-1.49a2.504 2.504 0 0 0-.42-.047c-.395 0-.781.16-1.16.479-.379.32-.748.799-1.108 1.438v3.795h-1.058zM281.052 139.331c-.845.413-1.644.62-2.398.62a2.753 2.753 0 0 1-1.535-.439c-.451-.292-.813-.709-1.086-1.251a3.897 3.897 0 0 1-.403-1.748 4 4 0 0 1 .386-1.719c.258-.549.618-.976 1.08-1.28a2.728 2.728 0 0 1 1.546-.462c.754 0 1.359.277 1.814.83.458.554.687 1.407.687 2.561v.234h-4.377c0 .452.091.865.273 1.239.186.374.429.655.728.842.299.187.64.281 1.023.281.682 0 1.436-.234 2.262-.702v.994zm-4.223-3.467h3.166v-.158c0-.534-.127-.958-.381-1.274-.254-.316-.593-.474-1.017-.474-.428 0-.8.162-1.114.486-.311.319-.529.793-.654 1.42zM286.586 138.296c-.322.546-.71.957-1.165 1.234-.451.277-.866.415-1.245.415-.53 0-1.008-.236-1.432-.707-.421-.472-.631-1.187-.631-2.146 0-.756.14-1.43.42-2.023.281-.596.656-1.066 1.126-1.409.47-.347 1.052-.52 1.745-.52.201 0 .504.021.91.064.06.008.151.018.272.029h1.063v4.613c0 .787.08 1.427.239 1.918h-1.103c-.083-.359-.149-.848-.199-1.468zm0-1.292v-2.8a4.036 4.036 0 0 0-1.046-.152c-.651 0-1.195.259-1.631.777-.432.519-.648 1.224-.648 2.117 0 .647.118 1.136.352 1.467.239.328.51.491.813.491.33 0 .694-.171 1.092-.514.398-.343.754-.805 1.068-1.386zM294.366 139.501c-.497.214-.857.341-1.08.38-.224.043-.44.064-.648.064-.444 0-.849-.088-1.217-.263a1.823 1.823 0 0 1-.835-.778c-.186-.343-.279-.873-.279-1.59v-2.631h-1.586v-.906h1.586v-2.631h1.057v2.631h2.825v.906h-2.825v2.614c0 .526.061.898.182 1.116.122.215.283.372.483.474.205.101.446.152.722.152.512 0 1.05-.166 1.615-.497v.959zM302.609 139.764l-1.035-6.531h.983l.603 3.976.159.924.154-.924 1.011-3.976h.95l1.142 3.976.199.924.131-.924.608-3.976h.813l-1.029 6.531h-.989l-1.216-4.204-.194-.924h-.028l-.176.918-1.058 4.21h-1.028zM309.524 139.764v-6.531h1.057v1.427c.33-.538.707-.939 1.131-1.204a2.628 2.628 0 0 1 1.427-.404c.383 0 .765.061 1.148.181v2.356h-1.017v-1.49a2.514 2.514 0 0 0-.421-.047c-.394 0-.781.16-1.159.479-.379.32-.749.799-1.109 1.438v3.795h-1.057zM317.405 139.764v-5.624h-1.762v-.907h2.82v5.625h1.767v.906h-2.825zm-.176-8.887c0-.245.082-.428.245-.549.163-.121.316-.182.46-.182.148 0 .303.061.466.182.163.121.245.304.245.549 0 .242-.082.423-.245.544-.163.121-.318.181-.466.181-.144 0-.297-.06-.46-.181-.163-.121-.245-.302-.245-.544zM327.578 139.501c-.497.214-.857.341-1.08.38-.224.043-.44.064-.648.064-.444 0-.849-.088-1.217-.263a1.823 1.823 0 0 1-.835-.778c-.186-.343-.279-.873-.279-1.59v-2.631h-1.586v-.906h1.586v-2.631h1.057v2.631h2.826v.906h-2.826v2.614c0 .526.061.898.182 1.116.122.215.283.372.484.474.204.101.445.152.721.152.512 0 1.05-.166 1.615-.497v.959zM330.69 139.764v-5.624h-1.762v-.907h2.82v5.625h1.767v.906h-2.825zm-.176-8.887c0-.245.081-.428.244-.549.163-.121.317-.182.461-.182.148 0 .303.061.466.182.163.121.244.304.244.549 0 .242-.081.423-.244.544-.163.121-.318.181-.466.181-.144 0-.298-.06-.461-.181-.163-.121-.244-.302-.244-.544zM335.553 139.764v-6.531h1.058v1.427c.303-.503.669-.897 1.097-1.181.428-.285.856-.427 1.284-.427.376 0 .717.103 1.024.31.307.203.521.47.642.801.125.331.188.982.188 1.953v3.648h-1.058v-3.783c0-.627-.03-1.04-.091-1.239a.952.952 0 0 0-.324-.497.782.782 0 0 0-.511-.193c-.372 0-.771.181-1.2.544a4.338 4.338 0 0 0-1.051 1.362v3.806h-1.058zM346.436 138.296c-.322.546-.71.957-1.165 1.234-.451.277-.866.415-1.245.415-.53 0-1.008-.236-1.432-.707-.421-.472-.631-1.187-.631-2.146 0-.756.14-1.43.42-2.023.281-.596.656-1.066 1.126-1.409.47-.347 1.052-.52 1.745-.52.201 0 .504.021.91.064.06.008.151.018.272.029h1.063v4.619c0 1.099-.015 1.77-.045 2.011a5.199 5.199 0 0 1-.137.743c-.151.58-.498 1.038-1.04 1.374-.538.335-1.19.502-1.955.502-.769 0-1.548-.202-2.336-.608v-1.099c.299.211.667.396 1.102.556.44.163.864.245 1.274.245.322 0 .627-.052.915-.158.288-.105.521-.257.699-.456.178-.199.299-.43.364-.695.064-.262.096-.61.096-1.047v-.924zm0-1.292v-2.8a4.036 4.036 0 0 0-1.046-.152c-.651 0-1.195.259-1.631.777-.432.519-.648 1.224-.648 2.117 0 .647.118 1.136.352 1.467.239.328.51.491.813.491.33 0 .694-.171 1.092-.514.398-.343.754-.805 1.068-1.386zM61.852 155.296c-.844.413-1.644.619-2.398.619a2.762 2.762 0 0 1-1.535-.438c-.45-.292-.813-.71-1.086-1.251a3.904 3.904 0 0 1-.403-1.748 4 4 0 0 1 .386-1.719c.258-.55.618-.977 1.08-1.281a2.734 2.734 0 0 1 1.546-.461c.755 0 1.359.276 1.814.83.458.553.688 1.407.688 2.561v.233h-4.377c0 .452.09.866.272 1.24.186.374.429.655.728.842.3.187.64.28 1.023.28.682 0 1.436-.234 2.262-.701v.994zm-4.223-3.467h3.166v-.158c0-.534-.127-.959-.38-1.275-.255-.315-.594-.473-1.018-.473-.428 0-.8.162-1.114.485-.31.32-.529.793-.654 1.421zM63.874 155.728H62.65l2.496-3.42-2.33-3.11h1.352l1.654 2.192 1.609-2.192h1.2l-2.206 3.005 2.62 3.525h-1.358l-1.933-2.601-1.881 2.601zM70.834 150.665c.326-.545.715-.957 1.166-1.233.45-.277.866-.415 1.245-.415.53 0 1.007.235 1.432.707.424.472.637 1.187.637 2.146 0 .756-.142 1.432-.427 2.028-.28.593-.655 1.062-1.125 1.409-.47.343-1.052.515-1.745.515-.197 0-.5-.022-.91-.065l-.273-.029v2.538h-1.057v-9.068h1.057v1.467zm0 1.292v2.801c.383.101.736.152 1.058.152.64 0 1.178-.257 1.614-.772.44-.518.66-1.226.66-2.122 0-.651-.12-1.14-.359-1.468-.239-.327-.51-.491-.813-.491-.33 0-.693.172-1.091.515-.394.343-.75.805-1.069 1.385zM81.78 155.296c-.845.413-1.645.619-2.399.619a2.761 2.761 0 0 1-1.535-.438c-.45-.292-.813-.71-1.085-1.251a3.903 3.903 0 0 1-.404-1.748 4 4 0 0 1 .386-1.719c.258-.55.618-.977 1.08-1.281a2.735 2.735 0 0 1 1.547-.461c.754 0 1.358.276 1.813.83.458.553.688 1.407.688 2.561v.233h-4.377c0 .452.09.866.273 1.24.185.374.428.655.727.842.3.187.64.28 1.023.28.683 0 1.437-.234 2.263-.701v.994zm-4.224-3.467h3.166v-.158c0-.534-.126-.959-.38-1.275-.254-.315-.593-.473-1.018-.473-.428 0-.8.162-1.114.485-.31.32-.529.793-.654 1.421zM83.681 155.728v-6.53h1.058v1.426c.33-.537.706-.939 1.131-1.204a2.627 2.627 0 0 1 1.427-.403c.383 0 .765.06 1.148.181v2.356h-1.017v-1.491a2.62 2.62 0 0 0-.421-.047c-.394 0-.78.16-1.16.48-.379.319-.748.799-1.108 1.438v3.794H83.68zM91.563 155.728v-5.624h-1.762v-.906h2.82v5.624h1.767v.906h-2.825zm-.176-8.886c0-.246.081-.429.244-.55.163-.121.317-.181.46-.181.149 0 .304.06.467.181.163.121.244.304.244.55 0 .241-.081.423-.244.543-.163.121-.319.182-.466.182-.144 0-.298-.061-.46-.182-.164-.12-.245-.302-.245-.543zM101.707 155.296c-.845.413-1.645.619-2.399.619a2.762 2.762 0 0 1-1.535-.438c-.45-.292-.812-.71-1.085-1.251a3.904 3.904 0 0 1-.404-1.748 4 4 0 0 1 .387-1.719c.257-.55.617-.977 1.08-1.281a2.734 2.734 0 0 1 1.546-.461c.754 0 1.358.276 1.813.83.459.553.688 1.407.688 2.561v.233h-4.377c0 .452.091.866.273 1.24.186.374.428.655.727.842.3.187.641.28 1.024.28.682 0 1.436-.234 2.262-.701v.994zm-4.223-3.467h3.166v-.158c0-.534-.127-.959-.381-1.275-.254-.315-.593-.473-1.018-.473-.428 0-.8.162-1.114.485-.31.32-.528.793-.653 1.421zM103.069 155.728v-6.53h1.057v1.426c.303-.502.669-.896 1.097-1.181.428-.284.857-.426 1.285-.426.375 0 .716.103 1.023.309.307.203.521.47.642.801.125.332.188.983.188 1.953v3.648h-1.057v-3.782c0-.628-.031-1.041-.091-1.24a.96.96 0 0 0-.324-.497.79.79 0 0 0-.512-.193c-.371 0-.771.182-1.199.544a4.363 4.363 0 0 0-1.052 1.362v3.806h-1.057zM115.054 155.541c-.708.246-1.383.368-2.023.368-.637 0-1.203-.15-1.7-.45a3.204 3.204 0 0 1-1.154-1.227c-.276-.519-.415-1.107-.415-1.766 0-.99.313-1.812.938-2.467.629-.655 1.387-.982 2.274-.982.656 0 1.349.126 2.08.38v1.046c-.739-.347-1.4-.52-1.983-.52a2.13 2.13 0 0 0-1.092.298c-.341.195-.604.501-.79.918a3.126 3.126 0 0 0-.278 1.286c0 .589.178 1.15.534 1.684.36.534.923.801 1.688.801.231 0 .459-.016.682-.047.224-.035.637-.158 1.239-.368v1.046zM121.634 155.296c-.845.413-1.644.619-2.398.619a2.76 2.76 0 0 1-1.535-.438c-.451-.292-.813-.71-1.086-1.251a3.903 3.903 0 0 1-.403-1.748c0-.597.128-1.17.386-1.719.258-.55.618-.977 1.08-1.281a2.734 2.734 0 0 1 1.546-.461c.754 0 1.359.276 1.813.83.459.553.688 1.407.688 2.561v.233h-4.377c0 .452.091.866.273 1.24.186.374.428.655.728.842.299.187.64.28 1.023.28.682 0 1.436-.234 2.262-.701v.994zm-4.223-3.467h3.166v-.158c0-.534-.127-.959-.381-1.275-.254-.315-.593-.473-1.017-.473-.429 0-.8.162-1.114.485-.311.32-.529.793-.654 1.421zM129.906 155.728l-1.035-6.53h.983l.603 3.975.159.924.154-.924 1.011-3.975h.95l1.142 3.975.199.924.131-.924.608-3.975h.813l-1.029 6.53h-.989l-1.216-4.203-.194-.924h-.028l-.176.918-1.058 4.209h-1.028zM138.06 155.728v-5.624h-1.762v-.906h2.819v5.624h1.768v.906h-2.825zm-.176-8.886c0-.246.081-.429.244-.55.163-.121.317-.181.461-.181.147 0 .303.06.466.181.163.121.244.304.244.55 0 .241-.081.423-.244.543-.163.121-.319.182-.466.182-.144 0-.298-.061-.461-.182-.163-.12-.244-.302-.244-.543zM148.232 155.465c-.496.215-.856.341-1.08.38a3.419 3.419 0 0 1-.648.064 2.78 2.78 0 0 1-1.216-.263 1.823 1.823 0 0 1-.836-.777c-.185-.343-.278-.873-.278-1.59v-2.631h-1.586v-.906h1.586v-2.631h1.057v2.631h2.825v.906h-2.825v2.613c0 .526.061.898.182 1.117.121.214.282.372.483.473a1.6 1.6 0 0 0 .722.152c.512 0 1.05-.165 1.614-.497v.959zM149.566 155.728v-9.436h1.057v4.332c.303-.502.669-.896 1.097-1.181.428-.284.856-.426 1.285-.426.36 0 .688.095.983.286.299.187.508.415.625.684.095.207.16.427.194.661.034.23.051.707.051 1.432v3.648h-1.057v-3.782c0-.628-.031-1.041-.091-1.24a.96.96 0 0 0-.324-.497.79.79 0 0 0-.512-.193c-.371 0-.771.182-1.199.544a4.363 4.363 0 0 0-1.052 1.362v3.806h-1.057zM162.924 155.383v-1.151c.425.284.874.485 1.348.602.473.113.875.169 1.205.169.534 0 .919-.087 1.154-.263.235-.179.352-.401.352-.666a.654.654 0 0 0-.165-.45c-.11-.125-.383-.279-.818-.462l-.364-.152-.733-.298c-.789-.316-1.285-.609-1.49-.877-.208-.265-.312-.589-.312-.971 0-.538.201-.98.602-1.327.406-.347 1.061-.52 1.967-.52a6.03 6.03 0 0 1 1.927.304v.988c-.697-.258-1.353-.386-1.967-.386-.447 0-.798.082-1.051.245-.251.16-.376.361-.376.603 0 .233.11.42.33.561.216.14.569.302 1.057.485l.717.269c.655.246 1.116.512 1.381.801.265.288.398.649.398 1.081 0 .566-.212 1.031-.637 1.398-.42.362-1.095.543-2.023.543-.811 0-1.645-.175-2.502-.526zM171.272 155.728v-5.624h-1.762v-.906h2.819v5.624h1.768v.906h-2.825zm-.176-8.886c0-.246.081-.429.244-.55.163-.121.317-.181.461-.181.148 0 .303.06.466.181.163.121.244.304.244.55 0 .241-.081.423-.244.543-.163.121-.318.182-.466.182-.144 0-.298-.061-.461-.182-.163-.12-.244-.302-.244-.543zM175.658 155.728v-6.53h.926v1.497c.292-.636.563-1.074.813-1.316.254-.242.51-.362.768-.362.307 0 .553.124.739.374.189.245.284.596.284 1.052v.351c.125-.398.275-.719.449-.965a2.73 2.73 0 0 1 .551-.59c.19-.148.408-.222.654-.222.273 0 .506.118.699.356.193.238.29.712.29 1.421v4.934h-.927v-4.461c0-.366-.011-.615-.034-.748a.565.565 0 0 0-.136-.31.306.306 0 0 0-.222-.105c-.197 0-.409.156-.636.468-.224.308-.453.82-.688 1.537v3.619h-.887v-4.455c0-.577-.055-.916-.165-1.017-.11-.101-.208-.152-.295-.152-.194 0-.402.173-.626.52a7.27 7.27 0 0 0-.631 1.333v3.771h-.926zM183.756 150.665c.325-.545.714-.957 1.165-1.233.451-.277.866-.415 1.245-.415.53 0 1.008.235 1.432.707.425.472.637 1.187.637 2.146 0 .756-.142 1.432-.427 2.028-.28.593-.655 1.062-1.125 1.409-.47.343-1.052.515-1.745.515-.197 0-.5-.022-.91-.065l-.272-.029v2.538h-1.058v-9.068h1.058v1.467zm0 1.292v2.801c.382.101.735.152 1.057.152.64 0 1.178-.257 1.614-.772.44-.518.66-1.226.66-2.122 0-.651-.12-1.14-.359-1.468-.238-.327-.509-.491-.812-.491-.33 0-.694.172-1.092.515-.394.343-.75.805-1.068 1.385zM191.126 155.728v-8.524h-1.899v-.912h2.956v8.53h1.984v.906h-3.041zM201.343 155.296c-.845.413-1.644.619-2.398.619a2.76 2.76 0 0 1-1.535-.438c-.451-.292-.813-.71-1.086-1.251a3.903 3.903 0 0 1-.403-1.748c0-.597.128-1.17.386-1.719.258-.55.618-.977 1.08-1.281a2.734 2.734 0 0 1 1.546-.461c.754 0 1.359.276 1.814.83.458.553.687 1.407.687 2.561v.233h-4.377c0 .452.091.866.273 1.24.186.374.428.655.728.842.299.187.64.28 1.023.28.682 0 1.436-.234 2.262-.701v.994zm-4.223-3.467h3.166v-.158c0-.534-.127-.959-.381-1.275-.254-.315-.593-.473-1.017-.473-.428 0-.8.162-1.114.485-.311.32-.529.793-.654 1.421zM210.825 155.728v-5.08h-1.409v-.906h1.409v-.304c0-.862.095-1.499.285-1.912.189-.413.481-.752.875-1.017.398-.266.923-.398 1.575-.398.492 0 .992.053 1.5.158v1.035c-.549-.187-1.036-.281-1.461-.281-.337 0-.634.064-.892.193a1.36 1.36 0 0 0-.608.631c-.144.289-.216.78-.216 1.474v.421h2.518v.906h-2.518v5.08h-1.058zM218.605 155.909c-.91 0-1.637-.325-2.183-.976-.546-.655-.819-1.479-.819-2.473 0-.994.273-1.816.819-2.467.546-.651 1.273-.976 2.183-.976.905 0 1.631.325 2.177.976.545.651.818 1.473.818 2.467s-.273 1.818-.818 2.473c-.546.651-1.272.976-2.177.976zm0-.906a1.59 1.59 0 0 0 1.347-.678c.333-.452.5-1.074.5-1.865 0-.787-.167-1.407-.5-1.859a1.59 1.59 0 0 0-1.347-.678c-.569 0-1.02.226-1.353.678-.334.452-.5 1.072-.5 1.859 0 .791.166 1.413.5 1.865.333.452.784.678 1.353.678zM223.172 155.728v-6.53h1.058v1.426c.329-.537.706-.939 1.131-1.204a2.628 2.628 0 0 1 1.427-.403c.382 0 .765.06 1.148.181v2.356h-1.018v-1.491a2.615 2.615 0 0 0-.42-.047c-.394 0-.781.16-1.16.48-.379.319-.748.799-1.108 1.438v3.794h-1.058zM228.797 155.728v-6.53h.927v1.497c.292-.636.563-1.074.813-1.316.254-.242.509-.362.767-.362.307 0 .553.124.739.374.189.245.284.596.284 1.052v.351c.125-.398.275-.719.449-.965.178-.249.362-.446.552-.59a1.03 1.03 0 0 1 .653-.222c.273 0 .506.118.7.356.193.238.289.712.289 1.421v4.934h-.926v-4.461c0-.366-.011-.615-.034-.748a.565.565 0 0 0-.137-.31.305.305 0 0 0-.221-.105c-.197 0-.41.156-.637.468-.224.308-.453.82-.688 1.537v3.619h-.887v-4.455c0-.577-.054-.916-.164-1.017-.11-.101-.209-.152-.296-.152-.193 0-.402.173-.625.52-.22.347-.43.792-.631 1.333v3.771h-.927zM240.089 154.261c-.322.545-.71.957-1.165 1.233-.451.277-.866.415-1.245.415-.53 0-1.008-.235-1.432-.707-.421-.472-.631-1.187-.631-2.146 0-.756.14-1.43.421-2.022.28-.597.655-1.066 1.125-1.409.47-.347 1.052-.521 1.745-.521.201 0 .504.022.91.065l.272.029h1.063v4.613c0 .787.08 1.426.239 1.917h-1.103c-.083-.358-.149-.847-.199-1.467zm0-1.292v-2.801a4.035 4.035 0 0 0-1.045-.152c-.652 0-1.196.26-1.632.778-.432.518-.648 1.224-.648 2.116 0 .647.118 1.136.353 1.468.238.327.509.491.812.491.33 0 .694-.172 1.092-.515.398-.343.754-.804 1.068-1.385zM247.869 155.465c-.497.215-.857.341-1.08.38-.224.043-.44.064-.648.064-.444 0-.849-.087-1.217-.263a1.821 1.821 0 0 1-.835-.777c-.186-.343-.279-.873-.279-1.59v-2.631h-1.586v-.906h1.586v-2.631h1.057v2.631h2.826v.906h-2.826v2.613c0 .526.061.898.182 1.117.122.214.283.372.483.473.205.102.446.152.722.152.512 0 1.05-.165 1.615-.497v.959zM254.511 155.465c-.496.215-.856.341-1.08.38a3.419 3.419 0 0 1-.648.064c-.443 0-.849-.087-1.216-.263a1.823 1.823 0 0 1-.836-.777c-.186-.343-.278-.873-.278-1.59v-2.631h-1.586v-.906h1.586v-2.631h1.057v2.631h2.825v.906h-2.825v2.613c0 .526.06.898.182 1.117.121.214.282.372.483.473a1.6 1.6 0 0 0 .722.152c.511 0 1.049-.165 1.614-.497v.959zM257.624 155.728v-5.624h-1.763v-.906h2.82v5.624h1.768v.906h-2.825zm-.177-8.886c0-.246.082-.429.245-.55.163-.121.316-.181.46-.181.148 0 .303.06.466.181.163.121.245.304.245.55 0 .241-.082.423-.245.543-.163.121-.318.182-.466.182-.144 0-.297-.061-.46-.182-.163-.12-.245-.302-.245-.543zM262.487 155.728v-6.53h1.057v1.426c.303-.502.669-.896 1.097-1.181.428-.284.857-.426 1.285-.426.375 0 .716.103 1.023.309.307.203.521.47.642.801.125.332.188.983.188 1.953v3.648h-1.057v-3.782c0-.628-.031-1.041-.091-1.24a.96.96 0 0 0-.324-.497.79.79 0 0 0-.512-.193c-.371 0-.771.182-1.199.544a4.363 4.363 0 0 0-1.052 1.362v3.806h-1.057zM273.37 154.261c-.322.545-.711.957-1.166 1.233-.45.277-.865.415-1.244.415-.531 0-1.008-.235-1.433-.707-.42-.472-.631-1.187-.631-2.146 0-.756.14-1.43.421-2.022.28-.597.655-1.066 1.125-1.409.47-.347 1.052-.521 1.745-.521.201 0 .504.022.91.065l.273.029h1.063v4.618c0 1.1-.015 1.77-.046 2.012a5.181 5.181 0 0 1-.136.742c-.152.581-.499 1.039-1.04 1.374-.539.335-1.19.503-1.956.503-.769 0-1.548-.203-2.336-.608v-1.099c.299.21.667.395 1.103.555.439.164.864.246 1.273.246.322 0 .627-.053.915-.158.288-.105.521-.257.699-.456.178-.199.3-.431.364-.696.065-.261.097-.61.097-1.046v-.924zm0-1.292v-2.801a4.042 4.042 0 0 0-1.046-.152c-.652 0-1.196.26-1.632.778-.432.518-.648 1.224-.648 2.116 0 .647.118 1.136.353 1.468.239.327.51.491.813.491.329 0 .693-.172 1.091-.515s.754-.804 1.069-1.385zM278.381 156.003a.881.881 0 0 1-.654-.281.93.93 0 0 1-.273-.672c0-.265.091-.489.273-.672a.894.894 0 0 1 1.302 0 .91.91 0 0 1 .278.672.93.93 0 0 1-.273.672.877.877 0 0 1-.653.281zM289.153 155.728v-.906h1.939v-7.255h-1.939v-.912h5.025v.912h-1.938v7.255h1.938v.906h-5.025zM301.008 155.465c-.496.215-.856.341-1.08.38-.224.043-.44.064-.648.064-.443 0-.849-.087-1.216-.263a1.823 1.823 0 0 1-.836-.777c-.186-.343-.279-.873-.279-1.59v-2.631h-1.585v-.906h1.585v-2.631h1.058v2.631h2.825v.906h-2.825v2.613c0 .526.06.898.182 1.117.121.214.282.372.483.473.204.102.445.152.722.152.511 0 1.049-.165 1.614-.497v.959zM313.156 154.261c-.322.545-.71.957-1.165 1.233-.451.277-.866.415-1.245.415-.531 0-1.008-.235-1.433-.707-.42-.472-.63-1.187-.63-2.146 0-.756.14-1.43.42-2.022.281-.597.656-1.066 1.126-1.409.47-.347 1.051-.521 1.745-.521.201 0 .504.022.909.065l.273.029h1.063v4.613c0 .787.08 1.426.239 1.917h-1.103c-.083-.358-.15-.847-.199-1.467zm0-1.292v-2.801a4.042 4.042 0 0 0-1.046-.152c-.652 0-1.195.26-1.631.778-.432.518-.648 1.224-.648 2.116 0 .647.117 1.136.352 1.468.239.327.51.491.813.491.33 0 .694-.172 1.091-.515.398-.343.755-.804 1.069-1.385zM317.331 155.728v-8.524h-1.898v-.912h2.956v8.53h1.984v.906h-3.042zM322.343 155.383v-1.151a4.23 4.23 0 0 0 1.347.602c.473.113.875.169 1.205.169.534 0 .919-.087 1.154-.263.235-.179.352-.401.352-.666a.654.654 0 0 0-.165-.45c-.11-.125-.382-.279-.818-.462l-.364-.152-.733-.298c-.789-.316-1.285-.609-1.49-.877-.208-.265-.312-.589-.312-.971 0-.538.201-.98.602-1.327.406-.347 1.061-.52 1.967-.52a6.03 6.03 0 0 1 1.927.304v.988c-.697-.258-1.353-.386-1.967-.386-.447 0-.797.082-1.051.245-.25.16-.375.361-.375.603 0 .233.109.42.329.561.216.14.569.302 1.057.485l.717.269c.655.246 1.116.512 1.381.801.265.288.398.649.398 1.081 0 .566-.212 1.031-.637 1.398-.42.362-1.095.543-2.023.543-.811 0-1.645-.175-2.501-.526zM331.526 155.909c-.91 0-1.637-.325-2.183-.976-.546-.655-.818-1.479-.818-2.473 0-.994.272-1.816.818-2.467.546-.651 1.273-.976 2.183-.976.906 0 1.631.325 2.177.976s.818 1.473.818 2.467-.272 1.818-.818 2.473c-.546.651-1.271.976-2.177.976zm0-.906c.564 0 1.014-.226 1.347-.678.333-.452.5-1.074.5-1.865 0-.787-.167-1.407-.5-1.859a1.589 1.589 0 0 0-1.347-.678c-.569 0-1.02.226-1.353.678-.334.452-.5 1.072-.5 1.859 0 .791.166 1.413.5 1.865.333.452.784.678 1.353.678zM56.646 171.348v-1.152c.424.285.873.485 1.347.602.474.113.875.17 1.205.17.534 0 .919-.088 1.154-.263.235-.18.352-.402.352-.667a.658.658 0 0 0-.165-.45c-.11-.125-.382-.279-.818-.462l-.364-.152-.733-.298c-.788-.316-1.285-.608-1.49-.877-.208-.265-.312-.588-.312-.97 0-.538.2-.981.602-1.328.406-.346 1.062-.52 1.967-.52.679 0 1.32.101 1.927.304v.988c-.697-.257-1.353-.386-1.966-.386-.448 0-.798.082-1.052.246-.25.16-.375.36-.375.602 0 .234.11.421.33.561.215.141.568.302 1.057.486l.716.268c.656.246 1.116.513 1.381.801.265.289.398.649.398 1.082 0 .565-.212 1.031-.637 1.397-.42.363-1.095.544-2.023.544-.811 0-1.645-.175-2.501-.526zM67.386 170.225c-.322.546-.71.957-1.165 1.234-.45.277-.866.415-1.245.415-.53 0-1.008-.236-1.432-.707-.42-.472-.631-1.187-.631-2.146 0-.756.14-1.43.42-2.023.281-.596.656-1.066 1.126-1.409.47-.347 1.052-.52 1.745-.52.201 0 .504.021.91.064.06.008.151.018.272.029h1.064v4.613c0 .787.08 1.427.238 1.918h-1.103c-.083-.359-.15-.848-.198-1.468zm0-1.292v-2.8a3.999 3.999 0 0 0-1.045-.152c-.652 0-1.196.259-1.632.777-.432.519-.648 1.224-.648 2.117 0 .647.118 1.136.353 1.467.238.328.51.491.813.491.33 0 .693-.171 1.09-.514.399-.343.755-.805 1.07-1.386zM71.92 171.693l-2.757-6.531h1.16l2.177 5.169 2.222-5.169h1.058L73 171.693h-1.08zM81.78 171.26c-.845.413-1.645.62-2.399.62a2.754 2.754 0 0 1-1.535-.439c-.45-.292-.813-.709-1.085-1.251a4.006 4.006 0 0 1-.017-3.467c.257-.549.617-.976 1.08-1.28a2.728 2.728 0 0 1 1.546-.462c.754 0 1.358.277 1.813.83.458.554.688 1.407.688 2.561v.234h-4.377c0 .452.09.865.273 1.239.185.374.428.655.727.842.3.187.64.281 1.023.281.683 0 1.437-.234 2.263-.702v.994zm-4.224-3.467h3.166v-.158c0-.534-.126-.958-.38-1.274-.254-.316-.593-.474-1.018-.474-.428 0-.8.162-1.114.486-.31.319-.529.793-.654 1.42zM83.215 171.348v-1.152c.425.285.874.485 1.348.602.473.113.875.17 1.205.17.534 0 .919-.088 1.154-.263.234-.18.352-.402.352-.667a.658.658 0 0 0-.165-.45c-.11-.125-.383-.279-.818-.462l-.364-.152-.734-.298c-.788-.316-1.284-.608-1.489-.877-.208-.265-.312-.588-.312-.97 0-.538.2-.981.602-1.328.406-.346 1.061-.52 1.967-.52.678 0 1.32.101 1.927.304v.988c-.697-.257-1.353-.386-1.967-.386-.447 0-.798.082-1.052.246-.25.16-.375.36-.375.602 0 .234.11.421.33.561.216.141.569.302 1.057.486l.717.268c.655.246 1.116.513 1.38.801.266.289.399.649.399 1.082 0 .565-.212 1.031-.637 1.397-.42.363-1.095.544-2.023.544-.811 0-1.645-.175-2.502-.526zM101.735 171.43c-.496.214-.856.341-1.08.38a3.419 3.419 0 0 1-.648.064c-.443 0-.848-.088-1.216-.263a1.83 1.83 0 0 1-.836-.778c-.185-.343-.278-.873-.278-1.59v-2.631H96.09v-.906h1.586v-2.631h1.057v2.631h2.825v.906h-2.825v2.614c0 .526.06.898.182 1.116.121.215.282.372.483.474.205.101.445.152.722.152.512 0 1.05-.166 1.614-.497v.959zM104.848 171.693v-5.624h-1.762v-.907h2.819v5.625h1.768v.906h-2.825zm-.176-8.887c0-.245.081-.428.244-.549.163-.121.317-.182.461-.182.147 0 .303.061.466.182.163.121.244.304.244.549 0 .242-.081.423-.244.544-.163.121-.319.181-.466.181-.144 0-.298-.06-.461-.181-.163-.121-.244-.302-.244-.544zM109.234 171.693v-6.531h.926v1.497c.292-.635.563-1.074.813-1.315.254-.242.51-.363.767-.363.307 0 .554.125.739.374.19.246.285.597.285 1.053v.35c.125-.397.274-.719.449-.964.178-.25.362-.447.551-.591.19-.148.407-.222.654-.222.273 0 .506.119.699.357.193.237.29.711.29 1.42v4.935h-.927v-4.461c0-.366-.011-.616-.034-.748a.569.569 0 0 0-.136-.31.306.306 0 0 0-.222-.105c-.197 0-.409.155-.637.467-.223.308-.452.821-.687 1.538v3.619h-.887v-4.455c0-.577-.055-.916-.165-1.017-.11-.102-.208-.152-.296-.152-.193 0-.401.173-.625.52-.22.347-.43.791-.631 1.333v3.771h-.926zM121.634 171.26c-.845.413-1.644.62-2.398.62a2.753 2.753 0 0 1-1.535-.439c-.451-.292-.813-.709-1.086-1.251a3.897 3.897 0 0 1-.403-1.748 4 4 0 0 1 .386-1.719c.258-.549.618-.976 1.08-1.28a2.728 2.728 0 0 1 1.546-.462c.754 0 1.359.277 1.813.83.459.554.688 1.407.688 2.561v.234h-4.377c0 .452.091.865.273 1.239.186.374.428.655.728.842.299.187.64.281 1.023.281.682 0 1.436-.234 2.262-.702v.994zm-4.223-3.467h3.166v-.158c0-.534-.127-.958-.381-1.274-.254-.316-.593-.474-1.017-.474a1.5 1.5 0 0 0-1.114.486c-.311.319-.529.793-.654 1.42zM132.253 171.874c-.909 0-1.637-.325-2.183-.976-.545-.655-.818-1.48-.818-2.473 0-.994.273-1.817.818-2.468.546-.65 1.274-.976 2.183-.976.906 0 1.632.326 2.177.976.546.651.819 1.474.819 2.468 0 .993-.273 1.818-.819 2.473-.545.651-1.271.976-2.177.976zm0-.906c.565 0 1.014-.226 1.347-.678.334-.453.501-1.074.501-1.865 0-.788-.167-1.407-.501-1.86a1.587 1.587 0 0 0-1.347-.678c-.568 0-1.019.226-1.353.678-.333.453-.5 1.072-.5 1.86 0 .791.167 1.412.5 1.865.334.452.785.678 1.353.678zM138.344 171.693l-2.757-6.531h1.16l2.177 5.169 2.223-5.169h1.057l-2.78 6.531h-1.08zM148.204 171.26c-.845.413-1.645.62-2.399.62a2.756 2.756 0 0 1-1.535-.439c-.45-.292-.812-.709-1.085-1.251a4.002 4.002 0 0 1-.017-3.467c.257-.549.617-.976 1.08-1.28a2.725 2.725 0 0 1 1.546-.462c.754 0 1.358.277 1.813.83.459.554.688 1.407.688 2.561v.234h-4.377c0 .452.091.865.273 1.239.186.374.428.655.727.842.3.187.641.281 1.024.281.682 0 1.436-.234 2.262-.702v.994zm-4.223-3.467h3.166v-.158c0-.534-.127-.958-.381-1.274-.254-.316-.593-.474-1.018-.474-.428 0-.799.162-1.114.486-.31.319-.528.793-.653 1.42zM150.106 171.693v-6.531h1.057v1.427c.33-.538.707-.939 1.131-1.204a2.628 2.628 0 0 1 1.427-.404c.383 0 .765.061 1.148.181v2.356h-1.017v-1.49a2.514 2.514 0 0 0-.421-.047c-.394 0-.781.16-1.16.479-.379.32-.748.799-1.108 1.438v3.795h-1.057zM162.851 171.693v-9.436h1.057v4.332c.303-.503.669-.897 1.097-1.181.428-.285.856-.427 1.285-.427.36 0 .687.096.983.287.299.187.508.415.625.684.095.206.159.426.193.66.035.23.052.708.052 1.433v3.648h-1.058v-3.783c0-.627-.03-1.041-.091-1.239a.94.94 0 0 0-.324-.497.782.782 0 0 0-.511-.193c-.372 0-.771.181-1.2.544a4.338 4.338 0 0 0-1.051 1.362v3.806h-1.057zM173.665 170.225c-.322.546-.71.957-1.165 1.234-.451.277-.866.415-1.245.415-.53 0-1.008-.236-1.432-.707-.421-.472-.631-1.187-.631-2.146 0-.756.14-1.43.42-2.023.281-.596.656-1.066 1.126-1.409.47-.347 1.051-.52 1.745-.52.201 0 .504.021.909.064.061.008.152.018.273.029h1.063v4.613c0 .787.08 1.427.239 1.918h-1.103c-.083-.359-.149-.848-.199-1.468zm0-1.292v-2.8a4 4 0 0 0-1.046-.152c-.651 0-1.195.259-1.631.777-.432.519-.648 1.224-.648 2.117 0 .647.117 1.136.352 1.467.239.328.51.491.813.491.33 0 .694-.171 1.092-.514.397-.343.754-.805 1.068-1.386zM176.135 171.693v-6.531h1.058v1.427c.303-.503.669-.897 1.097-1.181.428-.285.856-.427 1.284-.427.376 0 .717.103 1.024.31.306.203.521.47.642.801.125.331.187.982.187 1.953v3.648h-1.057v-3.783c0-.627-.03-1.041-.091-1.239a.952.952 0 0 0-.324-.497.782.782 0 0 0-.511-.193c-.372 0-.772.181-1.2.544a4.338 4.338 0 0 0-1.051 1.362v3.806h-1.058zM187.018 170.225c-.322.546-.71.957-1.165 1.234-.451.277-.866.415-1.245.415-.53 0-1.008-.236-1.432-.707-.421-.472-.631-1.187-.631-2.146 0-.756.14-1.43.42-2.023.281-.596.656-1.066 1.126-1.409.47-.347 1.051-.52 1.745-.52.201 0 .504.021.909.064.061.008.152.018.273.029v-2.905h1.063v9.436h-1.063v-1.468zm0-1.292v-2.8a4 4 0 0 0-1.046-.152c-.651 0-1.195.259-1.631.777-.432.519-.648 1.224-.648 2.117 0 .647.117 1.136.352 1.467.239.328.51.491.813.491.33 0 .694-.171 1.092-.514.398-.343.754-.805 1.068-1.386zM189.83 168.471v-.906h4.411v.906h-4.411zM201.406 171.506c-.709.245-1.383.368-2.024.368-.636 0-1.203-.15-1.699-.45a3.185 3.185 0 0 1-1.154-1.228c-.277-.518-.415-1.107-.415-1.766 0-.99.312-1.812.938-2.467.629-.655 1.387-.982 2.273-.982.656 0 1.35.127 2.081.38v1.047c-.739-.347-1.4-.521-1.984-.521-.386 0-.75.1-1.091.298-.341.195-.605.501-.79.918a3.128 3.128 0 0 0-.279 1.287c0 .588.178 1.149.534 1.683.36.534.923.801 1.689.801.231 0 .458-.015.682-.047.223-.035.636-.157 1.239-.368v1.047zM203.245 171.693v-6.531h1.057v1.427c.33-.538.707-.939 1.132-1.204a2.625 2.625 0 0 1 1.426-.404c.383 0 .766.061 1.149.181v2.356h-1.018v-1.49a2.503 2.503 0 0 0-.421-.047c-.394 0-.78.16-1.159.479-.379.32-.749.799-1.109 1.438v3.795h-1.057zM213.52 170.225c-.322.546-.711.957-1.166 1.234-.45.277-.865.415-1.244.415-.531 0-1.008-.236-1.433-.707-.42-.472-.631-1.187-.631-2.146 0-.756.14-1.43.421-2.023.28-.596.655-1.066 1.125-1.409.47-.347 1.052-.52 1.745-.52.201 0 .504.021.91.064.061.008.151.018.273.029h1.063v4.613c0 .787.079 1.427.238 1.918h-1.102c-.084-.359-.15-.848-.199-1.468zm0-1.292v-2.8a4 4 0 0 0-1.046-.152c-.652 0-1.196.259-1.632.777-.432.519-.648 1.224-.648 2.117 0 .647.118 1.136.353 1.467.239.328.51.491.813.491.329 0 .693-.171 1.091-.514.398-.343.754-.805 1.069-1.386zM217.468 171.693v-5.081h-1.41v-.906h1.41v-.304c0-.861.095-1.499.284-1.912.19-.413.481-.752.875-1.017.398-.265.923-.398 1.575-.398a7.4 7.4 0 0 1 1.501.158v1.035c-.55-.187-1.037-.281-1.461-.281-.338 0-.635.065-.893.193-.257.129-.46.34-.608.632-.144.288-.216.779-.216 1.473v.421h2.518v.906h-2.518v5.081h-1.057zM227.941 171.43c-.496.214-.856.341-1.08.38a3.419 3.419 0 0 1-.648.064c-.443 0-.848-.088-1.216-.263a1.83 1.83 0 0 1-.836-.778c-.185-.343-.278-.873-.278-1.59v-2.631h-1.586v-.906h1.586v-2.631h1.057v2.631h2.825v.906h-2.825v2.614c0 .526.061.898.182 1.116.121.215.282.372.483.474.205.101.445.152.722.152.512 0 1.05-.166 1.614-.497v.959zM234.555 171.26c-.845.413-1.644.62-2.398.62a2.753 2.753 0 0 1-1.535-.439c-.451-.292-.813-.709-1.086-1.251a3.897 3.897 0 0 1-.403-1.748 4 4 0 0 1 .386-1.719c.258-.549.618-.976 1.08-1.28a2.73 2.73 0 0 1 1.546-.462c.754 0 1.359.277 1.814.83.458.554.687 1.407.687 2.561v.234h-4.376c0 .452.09.865.272 1.239.186.374.429.655.728.842.299.187.64.281 1.023.281.682 0 1.436-.234 2.262-.702v.994zm-4.223-3.467h3.166v-.158c0-.534-.127-.958-.381-1.274-.254-.316-.593-.474-1.017-.474-.428 0-.8.162-1.114.486-.311.319-.529.793-.654 1.42zM240.158 170.225c-.322.546-.711.957-1.166 1.234-.451.277-.866.415-1.244.415-.531 0-1.008-.236-1.433-.707-.421-.472-.631-1.187-.631-2.146 0-.756.14-1.43.421-2.023.28-.596.655-1.066 1.125-1.409.47-.347 1.052-.52 1.745-.52.201 0 .504.021.91.064.06.008.151.018.273.029v-2.905h1.063v9.436h-1.063v-1.468zm0-1.292v-2.8a4.005 4.005 0 0 0-1.046-.152c-.652 0-1.196.259-1.632.777-.432.519-.648 1.224-.648 2.117 0 .647.118 1.136.353 1.467.239.328.509.491.813.491.329 0 .693-.171 1.091-.514.398-.343.754-.805 1.069-1.386zM249.037 171.693v-9.074h1.148v3.906h3.263v-3.906h1.143v9.074h-1.143v-4.262h-3.263v4.262h-1.148zM257.879 171.693v-8.074h-2.643v-1h6.441v1h-2.649v8.074h-1.149zM262.851 171.693h-.927v-9.074h1.154l2.035 5.975 2.035-5.975h1.125v9.074h-1.057v-5.782l.029-.795h-.029l-.25.795-1.364 3.969h-1.148l-1.382-3.969-.221-.795h-.029l.029.795v5.782zM274.256 170.693v1h-4.763v-9.074h1.148v8.074h3.615zM287.723 171.43c-.496.214-.856.341-1.08.38a3.419 3.419 0 0 1-.648.064c-.443 0-.849-.088-1.216-.263a1.83 1.83 0 0 1-.836-.778c-.185-.343-.278-.873-.278-1.59v-2.631h-1.586v-.906h1.586v-2.631h1.057v2.631h2.825v.906h-2.825v2.614c0 .526.061.898.182 1.116.121.215.282.372.483.474.205.101.445.152.722.152.511 0 1.05-.166 1.614-.497v.959zM293.229 170.225c-.322.546-.711.957-1.165 1.234-.451.277-.866.415-1.245.415-.531 0-1.008-.236-1.433-.707-.42-.472-.631-1.187-.631-2.146 0-.756.14-1.43.421-2.023.28-.596.655-1.066 1.125-1.409.47-.347 1.052-.52 1.745-.52.201 0 .504.021.91.064.061.008.152.018.273.029h1.063v4.613c0 .787.079 1.427.238 1.918h-1.102c-.084-.359-.15-.848-.199-1.468zm0-1.292v-2.8a4 4 0 0 0-1.046-.152c-.652 0-1.196.259-1.631.777-.433.519-.649 1.224-.649 2.117 0 .647.118 1.136.353 1.467.239.328.51.491.813.491.329 0 .693-.171 1.091-.514.398-.343.754-.805 1.069-1.386zM299.939 170.225c-.322.546-.71.957-1.165 1.234-.451.277-.866.415-1.245.415-.53 0-1.008-.236-1.432-.707-.421-.472-.631-1.187-.631-2.146 0-.756.14-1.43.421-2.023.28-.596.655-1.066 1.125-1.409.47-.347 1.052-.52 1.745-.52.201 0 .504.021.91.064.06.008.151.018.272.029h1.063v4.619c0 1.099-.015 1.769-.045 2.011a5.199 5.199 0 0 1-.137.743c-.151.58-.498 1.038-1.04 1.374-.538.335-1.19.502-1.955.502-.769 0-1.548-.202-2.336-.608v-1.099c.299.211.667.396 1.102.556.44.163.864.245 1.274.245.322 0 .627-.053.915-.158.288-.105.521-.257.699-.456.178-.199.299-.43.364-.695.064-.262.096-.61.096-1.047v-.924zm0-1.292v-2.8a3.992 3.992 0 0 0-1.045-.152c-.652 0-1.196.259-1.632.777-.432.519-.648 1.224-.648 2.117 0 .647.118 1.136.353 1.467.238.328.509.491.812.491.33 0 .694-.171 1.092-.514.398-.343.754-.805 1.068-1.386zM302.415 171.348v-1.152c.425.285.874.485 1.347.602.474.113.876.17 1.206.17.534 0 .918-.088 1.153-.263.235-.18.353-.402.353-.667a.658.658 0 0 0-.165-.45c-.11-.125-.383-.279-.819-.462l-.363-.152-.734-.298c-.788-.316-1.284-.608-1.489-.877-.208-.265-.313-.588-.313-.97 0-.538.201-.981.603-1.328.405-.346 1.061-.52 1.967-.52.678 0 1.32.101 1.927.304v.988c-.698-.257-1.353-.386-1.967-.386-.447 0-.798.082-1.052.246-.25.16-.375.36-.375.602 0 .234.11.421.33.561.216.141.568.302 1.057.486l.716.268c.656.246 1.116.513 1.382.801.265.289.398.649.398 1.082 0 .565-.213 1.031-.637 1.397-.421.363-1.095.544-2.024.544-.811 0-1.644-.175-2.501-.526zM310.513 174.23v-.725c.273-.074.479-.181.619-.321.144-.137.258-.312.342-.527a2 2 0 0 0 .13-.765c-.352 0-.612-.102-.778-.305a1.03 1.03 0 0 1-.251-.66c0-.269.093-.495.279-.678a.887.887 0 0 1 .648-.281c.318 0 .593.142.824.427.231.28.347.666.347 1.157 0 .429-.091.833-.273 1.211-.182.382-.43.707-.745.976a2.11 2.11 0 0 1-1.142.491zM326.441 170.225c-.322.546-.711.957-1.165 1.234-.451.277-.866.415-1.245.415-.531 0-1.008-.236-1.433-.707-.42-.472-.631-1.187-.631-2.146 0-.756.141-1.43.421-2.023.28-.596.656-1.066 1.126-1.409.469-.347 1.051-.52 1.745-.52.2 0 .504.021.909.064.061.008.152.018.273.029h1.063v4.613c0 .787.079 1.427.239 1.918h-1.103c-.084-.359-.15-.848-.199-1.468zm0-1.292v-2.8a4 4 0 0 0-1.046-.152c-.652 0-1.196.259-1.631.777-.432.519-.648 1.224-.648 2.117 0 .647.117 1.136.352 1.467.239.328.51.491.813.491.33 0 .693-.171 1.091-.514.398-.343.754-.805 1.069-1.386zM328.911 171.693v-6.531h1.057v1.427c.303-.503.669-.897 1.097-1.181.429-.285.857-.427 1.285-.427.375 0 .716.103 1.023.31.307.203.521.47.643.801.125.331.187.982.187 1.953v3.648h-1.057v-3.783c0-.627-.03-1.041-.091-1.239a.952.952 0 0 0-.324-.497.782.782 0 0 0-.512-.193c-.371 0-.771.181-1.199.544a4.34 4.34 0 0 0-1.052 1.362v3.806h-1.057zM339.794 170.225c-.322.546-.711.957-1.165 1.234-.451.277-.866.415-1.245.415-.531 0-1.008-.236-1.433-.707-.42-.472-.631-1.187-.631-2.146 0-.756.141-1.43.421-2.023.28-.596.656-1.066 1.126-1.409.469-.347 1.051-.52 1.745-.52.2 0 .504.021.909.064.061.008.152.018.273.029v-2.905h1.063v9.436h-1.063v-1.468zm0-1.292v-2.8a4 4 0 0 0-1.046-.152c-.652 0-1.196.259-1.631.777-.432.519-.648 1.224-.648 2.117 0 .647.117 1.136.352 1.467.239.328.51.491.813.491.33 0 .693-.171 1.091-.514.398-.343.754-.805 1.069-1.386zM58.351 187.657v-5.624h-1.762v-.906h2.82v5.624h1.767v.906h-2.825zm-.176-8.886c0-.246.081-.429.244-.55.163-.121.317-.181.46-.181.148 0 .304.06.467.181.163.121.244.304.244.55 0 .241-.081.423-.244.543-.163.121-.319.182-.466.182-.144 0-.298-.061-.46-.182-.164-.12-.245-.302-.245-.543zM68.523 187.394c-.496.215-.856.341-1.08.38-.223.043-.44.064-.648.064a2.78 2.78 0 0 1-1.216-.263 1.822 1.822 0 0 1-.836-.777c-.185-.343-.278-.873-.278-1.59v-2.631h-1.586v-.906h1.586v-2.631h1.057v2.631h2.825v.906h-2.825v2.613c0 .526.06.898.182 1.117.121.214.282.372.483.473a1.6 1.6 0 0 0 .722.152c.512 0 1.05-.165 1.614-.497v.959zM71.386 182.308v-.731c.273-.074.48-.179.62-.316.143-.136.257-.31.34-.52.088-.214.131-.474.131-.778-.352 0-.612-.101-.779-.304a1.024 1.024 0 0 1-.25-.654c0-.273.093-.501.279-.684a.882.882 0 0 1 .648-.281c.318 0 .593.142.824.427.231.28.347.666.347 1.157 0 .433-.091.838-.273 1.216-.182.378-.43.702-.745.971-.31.269-.691.434-1.142.497zM76.573 187.312v-1.151c.424.284.874.485 1.347.602.474.113.876.169 1.205.169.535 0 .92-.087 1.154-.263.235-.179.353-.401.353-.666a.655.655 0 0 0-.165-.45c-.11-.125-.383-.279-.819-.462l-.364-.152-.733-.299c-.788-.315-1.285-.608-1.49-.876-.208-.265-.312-.589-.312-.971 0-.538.201-.98.603-1.327.405-.347 1.06-.52 1.966-.52.679 0 1.321.101 1.928.304v.988c-.698-.258-1.353-.386-1.967-.386-.447 0-.798.082-1.052.245-.25.16-.375.361-.375.602 0 .234.11.421.33.562.216.14.568.302 1.057.485l.716.269c.656.245 1.116.512 1.381.801.266.288.398.649.398 1.081 0 .566-.212 1.031-.636 1.398-.421.362-1.096.543-2.024.543-.81 0-1.645-.175-2.501-.526zM91.262 187.657v-5.08h-1.41v-.906h1.41v-.304c0-.862.095-1.499.284-1.912a2.44 2.44 0 0 1 .875-1.018c.398-.265.923-.397 1.575-.397.493 0 .993.053 1.5.158v1.035c-.549-.187-1.036-.281-1.46-.281-.338 0-.635.064-.893.193-.257.129-.46.339-.608.631-.144.289-.216.78-.216 1.474v.421h2.518v.906H92.32v5.08h-1.057zM100.599 186.19c-.322.545-.71.957-1.166 1.233-.45.277-.866.415-1.245.415-.53 0-1.008-.235-1.432-.707-.42-.472-.63-1.187-.63-2.146 0-.756.14-1.43.42-2.022.28-.597.655-1.066 1.125-1.409.47-.347 1.052-.521 1.745-.521.201 0 .504.022.91.065l.273.029h1.063v4.613c0 .787.079 1.426.238 1.917h-1.102c-.084-.358-.15-.848-.199-1.467zm0-1.292v-2.801a4.05 4.05 0 0 0-1.046-.152c-.652 0-1.196.26-1.632.778-.432.518-.648 1.224-.648 2.116 0 .647.118 1.136.353 1.468.239.327.51.491.813.491.33 0 .693-.172 1.091-.515s.754-.805 1.069-1.385zM103.143 187.312v-1.151a4.23 4.23 0 0 0 1.347.602c.474.113.875.169 1.205.169.534 0 .919-.087 1.154-.263.235-.179.352-.401.352-.666a.654.654 0 0 0-.165-.45c-.109-.125-.382-.279-.818-.462l-.364-.152-.733-.299c-.788-.315-1.285-.608-1.489-.876-.209-.265-.313-.589-.313-.971 0-.538.201-.98.602-1.327.406-.347 1.061-.52 1.967-.52.679 0 1.321.101 1.927.304v.988c-.697-.258-1.353-.386-1.967-.386-.447 0-.797.082-1.051.245-.25.16-.375.361-.375.602 0 .234.11.421.329.562.216.14.569.302 1.058.485l.716.269c.655.245 1.116.512 1.381.801.265.288.398.649.398 1.081 0 .566-.212 1.031-.637 1.398-.42.362-1.095.543-2.023.543-.811 0-1.645-.175-2.501-.526zM115.02 187.394c-.496.215-.856.341-1.08.38a3.419 3.419 0 0 1-.648.064c-.443 0-.849-.087-1.216-.263a1.823 1.823 0 0 1-.836-.777c-.185-.343-.278-.873-.278-1.59v-2.631h-1.586v-.906h1.586v-2.631h1.057v2.631h2.825v.906h-2.825v2.613c0 .526.061.898.182 1.117.121.214.282.372.483.473a1.6 1.6 0 0 0 .722.152c.512 0 1.05-.165 1.614-.497v.959zM121.634 187.225c-.845.413-1.644.619-2.398.619a2.76 2.76 0 0 1-1.535-.438c-.451-.292-.813-.71-1.086-1.251a3.903 3.903 0 0 1-.403-1.748c0-.597.128-1.17.386-1.719.258-.55.618-.977 1.08-1.281a2.734 2.734 0 0 1 1.546-.461c.754 0 1.359.276 1.813.83.459.553.688 1.407.688 2.56v.234h-4.377c0 .452.091.866.273 1.24.186.374.428.655.728.842.299.187.64.28 1.023.28.682 0 1.436-.234 2.262-.701v.994zm-4.223-3.467h3.166v-.158c0-.534-.127-.959-.381-1.275-.254-.315-.593-.473-1.017-.473-.429 0-.8.162-1.114.485-.311.32-.529.793-.654 1.421zM123.536 187.657v-6.53h1.057v1.426c.33-.538.707-.939 1.131-1.204a2.63 2.63 0 0 1 1.427-.403c.383 0 .766.06 1.148.181v2.356h-1.017v-1.491a2.614 2.614 0 0 0-.421-.047c-.394 0-.78.16-1.159.48-.379.319-.749.799-1.109 1.438v3.794h-1.057zM141.59 187.394c-.496.215-.856.341-1.08.38-.224.043-.44.064-.648.064-.443 0-.849-.087-1.216-.263a1.819 1.819 0 0 1-.836-.777c-.186-.343-.279-.873-.279-1.59v-2.631h-1.585v-.906h1.585v-2.631h1.058v2.631h2.825v.906h-2.825v2.613c0 .526.06.898.182 1.117.121.214.282.372.483.473.204.102.445.152.722.152.511 0 1.049-.165 1.614-.497v.959zM142.923 187.657v-9.436h1.058v4.332c.303-.502.668-.896 1.097-1.181.428-.284.856-.426 1.284-.426.36 0 .688.095.984.286.299.187.507.415.625.684.095.207.159.427.193.661.034.23.051.707.051 1.432v3.648h-1.057v-3.782c0-.628-.03-1.041-.091-1.24a.96.96 0 0 0-.324-.497.787.787 0 0 0-.511-.193c-.372 0-.772.182-1.2.544a4.36 4.36 0 0 0-1.051 1.362v3.806h-1.058zM153.738 186.19c-.322.545-.711.957-1.165 1.233-.451.277-.866.415-1.245.415-.531 0-1.008-.235-1.433-.707-.42-.472-.631-1.187-.631-2.146 0-.756.141-1.43.421-2.022.281-.597.656-1.066 1.126-1.409.469-.347 1.051-.521 1.745-.521.2 0 .504.022.909.065l.273.029h1.063v4.613c0 .787.08 1.426.239 1.917h-1.103c-.083-.358-.15-.848-.199-1.467zm0-1.292v-2.801a4.042 4.042 0 0 0-1.046-.152c-.652 0-1.196.26-1.631.778-.432.518-.648 1.224-.648 2.116 0 .647.117 1.136.352 1.468.239.327.51.491.813.491.33 0 .693-.172 1.091-.515s.754-.805 1.069-1.385zM156.208 187.657v-6.53h1.057v1.426c.304-.502.669-.896 1.097-1.181.429-.284.857-.426 1.285-.426.375 0 .716.103 1.023.309.307.203.521.47.643.801.125.332.187.983.187 1.953v3.648h-1.057v-3.782c0-.628-.03-1.041-.091-1.24a.96.96 0 0 0-.324-.497.788.788 0 0 0-.512-.193c-.371 0-.771.182-1.199.544a4.378 4.378 0 0 0-1.052 1.362v3.806h-1.057zM174.717 181.127v6.53h-1.057v-1.432c-.342.538-.72.941-1.137 1.21-.417.269-.834.403-1.251.403-.371 0-.712-.101-1.023-.304a1.626 1.626 0 0 1-.642-.806c-.122-.336-.182-.986-.182-1.953v-3.648h1.057v3.782c0 .628.028 1.043.085 1.246.061.198.169.362.324.491.159.128.33.193.512.193.371 0 .769-.18 1.194-.538a4.387 4.387 0 0 0 1.063-1.368v-3.806h1.057zM176.209 187.312v-1.151c.425.284.874.485 1.347.602.474.113.876.169 1.206.169.534 0 .918-.087 1.153-.263.235-.179.353-.401.353-.666a.654.654 0 0 0-.165-.45c-.11-.125-.383-.279-.819-.462l-.363-.152-.734-.299c-.788-.315-1.284-.608-1.489-.876-.208-.265-.312-.589-.312-.971 0-.538.2-.98.602-1.327.406-.347 1.061-.52 1.967-.52.678 0 1.32.101 1.927.304v.988c-.698-.258-1.353-.386-1.967-.386-.447 0-.798.082-1.052.245-.25.16-.375.361-.375.602 0 .234.11.421.33.562.216.14.568.302 1.057.485l.716.269c.656.245 1.116.512 1.382.801.265.288.398.649.398 1.081 0 .566-.213 1.031-.637 1.398-.421.362-1.095.543-2.024.543-.811 0-1.644-.175-2.501-.526zM184.557 187.657v-5.624h-1.762v-.906h2.819v5.624h1.768v.906h-2.825zm-.176-8.886c0-.246.081-.429.244-.55.163-.121.317-.181.461-.181.147 0 .303.06.466.181.163.121.244.304.244.55 0 .241-.081.423-.244.543-.163.121-.319.182-.466.182-.144 0-.298-.061-.461-.182-.163-.12-.244-.302-.244-.543zM189.42 187.657v-6.53h1.058v1.426c.303-.502.668-.896 1.097-1.181.428-.284.856-.426 1.284-.426.375 0 .716.103 1.023.309.307.203.521.47.643.801.125.332.187.983.187 1.953v3.648h-1.057v-3.782c0-.628-.03-1.041-.091-1.24a.96.96 0 0 0-.324-.497.788.788 0 0 0-.512-.193c-.371 0-.771.182-1.199.544a4.36 4.36 0 0 0-1.051 1.362v3.806h-1.058zM200.303 186.19c-.322.545-.71.957-1.165 1.233-.451.277-.866.415-1.245.415-.531 0-1.008-.235-1.432-.707-.421-.472-.631-1.187-.631-2.146 0-.756.14-1.43.42-2.022.281-.597.656-1.066 1.126-1.409.47-.347 1.051-.521 1.745-.521.201 0 .504.022.909.065l.273.029h1.063v4.618c0 1.1-.015 1.77-.045 2.012a5.185 5.185 0 0 1-.137.742c-.151.581-.498 1.039-1.04 1.374-.538.335-1.19.503-1.955.503-.77 0-1.548-.203-2.337-.608v-1.099c.3.21.667.395 1.103.555.44.164.864.246 1.273.246.322 0 .628-.053.916-.158.288-.105.521-.257.699-.456.178-.199.299-.431.364-.696.064-.261.096-.61.096-1.046v-.924zm0-1.292v-2.801a4.042 4.042 0 0 0-1.046-.152c-.652 0-1.195.26-1.631.778-.432.518-.648 1.224-.648 2.116 0 .647.117 1.136.352 1.468.239.327.51.491.813.491.33 0 .694-.172 1.091-.515.398-.343.755-.805 1.069-1.385zM213.52 186.19c-.322.545-.711.957-1.166 1.233-.45.277-.865.415-1.244.415-.531 0-1.008-.235-1.433-.707-.42-.472-.631-1.187-.631-2.146 0-.756.14-1.43.421-2.022.28-.597.655-1.066 1.125-1.409.47-.347 1.052-.521 1.745-.521.201 0 .504.022.91.065l.273.029h1.063v4.613c0 .787.079 1.426.238 1.917h-1.102c-.084-.358-.15-.848-.199-1.467zm0-1.292v-2.801a4.042 4.042 0 0 0-1.046-.152c-.652 0-1.196.26-1.632.778-.432.518-.648 1.224-.648 2.116 0 .647.118 1.136.353 1.468.239.327.51.491.813.491.329 0 .693-.172 1.091-.515s.754-.805 1.069-1.385zM222.934 187.657l-1.024-9.073h1.046l.603 5.524.079.918h.029l.114-.918.926-5.524h1.046l1.057 5.747.108.877h.029l.068-.883.665-5.741h.898l-1.069 9.073h-1.085l-1.137-6.15-.119-.924h-.029l-.108.924-1.023 6.15h-1.074zM231.315 187.657v-4.197l-2.626-4.876h1.302l1.961 3.601 1.955-3.601h1.177l-2.62 4.876v4.197h-1.149zM235.929 187.464v-1.111c.909.445 1.735.667 2.478.667.311 0 .608-.06.892-.181a1.39 1.39 0 0 0 .864-1.281c0-.315-.1-.61-.301-.882-.201-.277-.578-.581-1.131-.912l-.58-.345-.585-.345c-1.031-.628-1.547-1.407-1.547-2.339 0-.682.23-1.255.688-1.719.463-.467 1.183-.701 2.16-.701.629 0 1.238.093 1.825.28v1.012a5.118 5.118 0 0 0-1.893-.386c-.489 0-.885.132-1.188.397-.299.265-.449.585-.449.959 0 .371.116.678.347.924.231.246.527.472.887.678l.443.275.551.345.466.281c.967.608 1.45 1.371 1.45 2.291a2.48 2.48 0 0 1-.745 1.807c-.496.503-1.292.754-2.387.754-.349 0-.682-.031-1.001-.094-.314-.058-.729-.183-1.244-.374zM242.656 187.657v-.906h1.939v-7.255h-1.939v-.912h5.025v.912h-1.938v7.255h1.938v.906h-5.025zM249.503 187.657l-1.023-9.073h1.046l.603 5.524.079.918h.029l.113-.918.927-5.524h1.046l1.057 5.747.108.877h.028l.069-.883.665-5.741h.898l-1.069 9.073h-1.086l-1.136-6.15-.12-.924h-.028l-.108.924-1.023 6.15h-1.075zM257.885 187.657v-4.197l-2.626-4.876h1.302l1.961 3.601 1.955-3.601h1.177l-2.621 4.876v4.197h-1.148zM267.79 187.651c-.621.187-1.192.281-1.711.281-.735 0-1.39-.187-1.966-.561-.573-.374-1.022-.938-1.348-1.69-.326-.756-.488-1.61-.488-2.561 0-.939.159-1.783.477-2.531.318-.748.767-1.315 1.347-1.701a3.377 3.377 0 0 1 1.91-.579c.523 0 1.114.127 1.774.38v1.076c-.611-.363-1.217-.544-1.819-.544-.455 0-.872.16-1.251.479-.375.32-.678.79-.909 1.409a5.785 5.785 0 0 0-.341 2.023c0 .982.217 1.877.653 2.684.436.806 1.124 1.21 2.064 1.21.121 0 .274-.01.46-.029v-2.924h-.881v-.906h2.029v4.484zM271.738 187.932a.879.879 0 0 1-.653-.281.93.93 0 0 1-.273-.672c0-.265.091-.489.273-.672a.89.89 0 0 1 .653-.281c.25 0 .466.094.648.281a.906.906 0 0 1 .279.672.93.93 0 0 1-.273.672.881.881 0 0 1-.654.281zM54.745 39.447l3.206.056c.858.015 1.55.275 2.073.779.532.494.791 1.162.777 2.001-.016.896-.27 1.564-.763 2.003-.398.358-.99.585-1.776.683-.459.058-1.187.078-2.186.06l-.075 4.326-1.428-.025.172-9.883zm2.727 4.262c.615.011 1.07-.07 1.362-.242.377-.227.571-.63.581-1.208.009-.504-.162-.875-.512-1.115-.305-.201-.723-.307-1.255-.316l-1.498-.026-.05 2.883 1.371.024zm7.42-.78c.923.016 1.701.37 2.333 1.063.642.683.954 1.491.938 2.425-.017.942-.376 1.724-1.077 2.347a3.5 3.5 0 0 1-2.466.91c-.887-.016-1.66-.366-2.32-1.05-.66-.683-.983-1.468-.968-2.355.018-.989.368-1.795 1.05-2.418.684-.632 1.52-.94 2.51-.922zm-.209 5.485a2.15 2.15 0 0 0 1.551-.589c.436-.403.66-.899.67-1.486a2.046 2.046 0 0 0-.604-1.51 2.046 2.046 0 0 0-1.486-.655 2.189 2.189 0 0 0-1.58.602c-.436.403-.66.908-.67 1.515-.01.55.201 1.04.633 1.467.431.428.927.646 1.486.656zm4.717-.702c.369.259.687.451.956.577.398.194.76.293 1.087.3.224.003.406-.036.548-.117.141-.082.214-.23.218-.445.005-.289-.445-.721-1.35-1.297s-1.351-1.214-1.339-1.914c.01-.56.195-.995.555-1.307.37-.32.835-.475 1.394-.465.308.005.616.057.922.156.306.09.603.22.89.393l-.011 1.386a3.42 3.42 0 0 0-.86-.49c-.352-.156-.658-.236-.92-.24a.81.81 0 0 0-.45.117c-.122.082-.185.207-.188.375-.005.299.444.736 1.35 1.312.913.567 1.364 1.2 1.352 1.9-.01.56-.209 1.014-.598 1.362-.379.338-.853.503-1.423.493a3.604 3.604 0 0 1-1.088-.187 5.512 5.512 0 0 1-1.07-.48l.025-1.429zm7.153-6.092l-.029 1.666 1.792.031-.02 1.092-1.805-.017c-.007.382-.027 1.016-.062 1.903-.034.877-.051 1.348-.052 1.413a.962.962 0 0 0 .171.605c.128.161.313.244.556.248.233.004.52-.066.858-.21.263-.107.527-.247.791-.42l-.025 1.414c-.507.206-.822.331-.944.376-.348.115-.68.17-.997.165-.625-.011-1.088-.258-1.388-.739-.254-.406-.375-.94-.364-1.602.007-.364.027-.97.06-1.82.034-.858.051-1.315.052-1.37l-.784-.015 2.19-2.72zm14.922.625c-.59-.356-1.086-.607-1.485-.754a4.903 4.903 0 0 0-1.633-.295c-1.064-.018-1.961.335-2.693 1.06-.722.715-1.092 1.605-1.11 2.668-.02 1.083.306 1.985.974 2.706.67.72 1.54 1.09 2.614 1.11.569.01 1.14-.074 1.712-.25a7.046 7.046 0 0 0 1.666-.756l-.042 1.568c-.715.305-1.269.51-1.663.615a6.291 6.291 0 0 1-1.754.207c-1.483-.026-2.693-.537-3.627-1.533-.935-.997-1.39-2.242-1.363-3.735.025-1.427.54-2.627 1.547-3.6 1.016-.98 2.233-1.458 3.651-1.434.663.012 1.222.082 1.677.212.455.129.974.362 1.556.699l-.027 1.512zm4.398 1.225c.923.016 1.701.37 2.333 1.063.642.683.954 1.491.938 2.424-.016.943-.375 1.725-1.077 2.348a3.5 3.5 0 0 1-2.466.909c-.887-.016-1.66-.365-2.32-1.049-.66-.683-.983-1.468-.967-2.355.017-.99.367-1.795 1.05-2.418.683-.632 1.52-.94 2.508-.922zm-.208 5.485a2.15 2.15 0 0 0 1.55-.59c.437-.402.66-.898.67-1.486a2.046 2.046 0 0 0-.604-1.508 2.046 2.046 0 0 0-1.486-.657 2.189 2.189 0 0 0-1.579.603c-.436.403-.66.908-.67 1.514-.01.551.2 1.04.632 1.468.431.427.927.646 1.487.656zm5.089-5.246l1.33.023-.01.56c.275-.21.558-.373.849-.49.291-.115.596-.17.913-.165.952.016 1.6.345 1.943.986.253.47.371 1.229.352 2.274l-.058 3.332-1.316-.023.06-3.43c.011-.616-.037-1.05-.145-1.305-.17-.394-.526-.597-1.067-.606a1.9 1.9 0 0 0-.83.195 3.393 3.393 0 0 0-.722.464l-.081 4.633-1.33-.023.112-6.425zm8.735-1.514l-.029 1.666 1.792.031-.019 1.092-1.806-.018a100.19 100.19 0 0 1-.062 1.904c-.034.877-.051 1.348-.052 1.413a.967.967 0 0 0 .171.605c.128.16.313.244.556.248.233.004.519-.066.858-.21.263-.107.527-.247.791-.42l-.024 1.414c-.508.206-.823.331-.945.376-.348.115-.68.17-.997.164-.625-.01-1.088-.257-1.388-.738-.254-.406-.375-.94-.364-1.602a106 106 0 0 1 .06-1.82c.034-.858.051-1.315.052-1.371l-.784-.014 2.19-2.72zm3.912 5.137c-.01.588.168 1.063.535 1.424.377.352.878.533 1.503.544.457.008.93-.096 1.42-.311.084-.036.353-.171.805-.406l-.023 1.302c-.508.233-.894.395-1.157.483a3.833 3.833 0 0 1-1.249.189c-.989-.018-1.772-.358-2.349-1.022-.576-.672-.855-1.513-.838-2.52.015-.86.29-1.61.824-2.255.543-.643 1.239-.958 2.089-.943.97.017 1.706.389 2.206 1.117.437.633.647 1.458.629 2.475l-4.395-.077zm3.124-.912c-.086-.421-.252-.76-.5-1.016-.247-.266-.576-.403-.987-.41-.42-.007-.767.113-1.042.36-.275.248-.459.585-.55 1.013l3.079.053zm2.799-2.387l1.33.023-.01.56c.274-.21.557-.373.849-.49.291-.115.595-.17.913-.165.951.016 1.599.345 1.943.986.253.471.37 1.23.352 2.274l-.058 3.332-1.316-.023.06-3.43c.011-.616-.038-1.05-.145-1.304-.171-.395-.527-.598-1.068-.607a1.897 1.897 0 0 0-.829.196 3.398 3.398 0 0 0-.723.463l-.08 4.633-1.33-.023.112-6.425zm8.735-1.514l-.029 1.666 1.791.031-.019 1.092-1.806-.017a97.95 97.95 0 0 1-.061 1.903c-.034.877-.052 1.348-.053 1.413a.961.961 0 0 0 .172.605c.128.161.313.244.556.248.233.004.519-.066.857-.21a4.69 4.69 0 0 0 .792-.42l-.025 1.414c-.508.206-.822.331-.945.376-.347.115-.679.17-.997.165-.625-.011-1.087-.257-1.387-.739-.254-.406-.376-.94-.364-1.602.006-.364.026-.97.06-1.82.033-.858.051-1.315.052-1.37l-.784-.015 2.19-2.72z" fill="#506677" style="transform: skew(-4deg, 0deg) translateX(9px);" /><path d="M157.021 43.61a.633.633 0 0 0-.195-.46l-.957-.923a.708.708 0 0 0-.965-.008l-4.694 4.383-2.069-2.005a.709.709 0 0 0-.965-.008l-.973.907a.638.638 0 0 0-.203.456.637.637 0 0 0 .195.46l3.505 3.384a.708.708 0 0 0 .965.008l6.153-5.737a.634.634 0 0 0 .203-.457z" fill="#DDE0E3"/><defs><filter id="filter0_dd" x="17.352" y="18" width="384.297" height="293" filterUnits="userSpaceOnUse" color-interpolation-filters="sRGB"><feFlood flood-opacity="0" result="BackgroundImageFix"/><feColorMatrix in="SourceAlpha" values="0 0 0 0 0 0 0 0 0 0 0 0 0 0 0 0 0 0 127 0"/><feOffset dy="1"/><feGaussianBlur stdDeviation="1.5"/><feColorMatrix values="0 0 0 0 0 0 0 0 0 0 0 0 0 0 0 0 0 0 0.08 0"/><feBlend in2="BackgroundImageFix" result="effect1_dropShadow"/><feColorMatrix in="SourceAlpha" values="0 0 0 0 0 0 0 0 0 0 0 0 0 0 0 0 0 0 127 0"/><feOffset dy="4"/><feGaussianBlur stdDeviation="3"/><feColorMatrix values="0 0 0 0 0 0 0 0 0 0 0 0 0 0 0 0 0 0 0.11 0"/><feBlend in2="effect1_dropShadow" result="effect2_dropShadow"/><feBlend in="SourceGraphic" in2="effect2_dropShadow" result="shape"/></filter><filter id="filter1_dd" x="52.135" y="61.452" width="32.733" height="23.257" filterUnits="userSpaceOnUse" color-interpolation-filters="sRGB"><feFlood flood-opacity="0" result="BackgroundImageFix"/><feColorMatrix in="SourceAlpha" values="0 0 0 0 0 0 0 0 0 0 0 0 0 0 0 0 0 0 127 0"/><feOffset dy="1"/><feGaussianBlur stdDeviation="1"/><feColorMatrix values="0 0 0 0 0 0 0 0 0 0 0 0 0 0 0 0 0 0 0.15 0"/><feBlend in2="BackgroundImageFix" result="effect1_dropShadow"/><feColorMatrix in="SourceAlpha" values="0 0 0 0 0 0 0 0 0 0 0 0 0 0 0 0 0 0 127 0"/><feOffset/><feGaussianBlur stdDeviation=".5"/><feColorMatrix values="0 0 0 0 0 0 0 0 0 0 0 0 0 0 0 0 0 0 0.3 0"/><feBlend in2="effect1_dropShadow" result="effect2_dropShadow"/><feBlend in="SourceGraphic" in2="effect2_dropShadow" result="shape"/></filter><filter id="filter2_dd" x="84.134" y="61.731" width="32.733" height="23.257" filterUnits="userSpaceOnUse" color-interpolation-filters="sRGB"><feFlood flood-opacity="0" result="BackgroundImageFix"/><feColorMatrix in="SourceAlpha" values="0 0 0 0 0 0 0 0 0 0 0 0 0 0 0 0 0 0 127 0"/><feOffset dy="1"/><feGaussianBlur stdDeviation="1"/><feColorMatrix values="0 0 0 0 0 0 0 0 0 0 0 0 0 0 0 0 0 0 0.15 0"/><feBlend in2="BackgroundImageFix" result="effect1_dropShadow"/><feColorMatrix in="SourceAlpha" values="0 0 0 0 0 0 0 0 0 0 0 0 0 0 0 0 0 0 127 0"/><feOffset/><feGaussianBlur stdDeviation=".5"/><feColorMatrix values="0 0 0 0 0 0 0 0 0 0 0 0 0 0 0 0 0 0 0.3 0"/><feBlend in2="effect1_dropShadow" result="effect2_dropShadow"/><feBlend in="SourceGraphic" in2="effect2_dropShadow" result="shape"/></filter><filter id="filter3_dd" x="116.133" y="62.011" width="32.733" height="23.257" filterUnits="userSpaceOnUse" color-interpolation-filters="sRGB"><feFlood flood-opacity="0" result="BackgroundImageFix"/><feColorMatrix in="SourceAlpha" values="0 0 0 0 0 0 0 0 0 0 0 0 0 0 0 0 0 0 127 0"/><feOffset dy="1"/><feGaussianBlur stdDeviation="1"/><feColorMatrix values="0 0 0 0 0 0 0 0 0 0 0 0 0 0 0 0 0 0 0.15 0"/><feBlend in2="BackgroundImageFix" result="effect1_dropShadow"/><feColorMatrix in="SourceAlpha" values="0 0 0 0 0 0 0 0 0 0 0 0 0 0 0 0 0 0 127 0"/><feOffset/><feGaussianBlur stdDeviation=".5"/><feColorMatrix values="0 0 0 0 0 0 0 0 0 0 0 0 0 0 0 0 0 0 0.3 0"/><feBlend in2="effect1_dropShadow" result="effect2_dropShadow"/><feBlend in="SourceGraphic" in2="effect2_dropShadow" result="shape"/></filter><filter id="filter4_dd" x="148.132" y="62.29" width="32.733" height="23.257" filterUnits="userSpaceOnUse" color-interpolation-filters="sRGB"><feFlood flood-opacity="0" result="BackgroundImageFix"/><feColorMatrix in="SourceAlpha" values="0 0 0 0 0 0 0 0 0 0 0 0 0 0 0 0 0 0 127 0"/><feOffset dy="1"/><feGaussianBlur stdDeviation="1"/><feColorMatrix values="0 0 0 0 0 0 0 0 0 0 0 0 0 0 0 0 0 0 0.15 0"/><feBlend in2="BackgroundImageFix" result="effect1_dropShadow"/><feColorMatrix in="SourceAlpha" values="0 0 0 0 0 0 0 0 0 0 0 0 0 0 0 0 0 0 127 0"/><feOffset/><feGaussianBlur stdDeviation=".5"/><feColorMatrix values="0 0 0 0 0 0 0 0 0 0 0 0 0 0 0 0 0 0 0.3 0"/><feBlend in2="effect1_dropShadow" result="effect2_dropShadow"/><feBlend in="SourceGraphic" in2="effect2_dropShadow" result="shape"/></filter></defs></svg>