<svg width="441" height="264" fill="none" xmlns="http://www.w3.org/2000/svg">
  <path d="M238 236c33.689 0 61-10.969 61-24.5S271.689 187 238 187s-61 10.969-61 24.5 27.311 24.5 61 24.5z" stroke="#506677" stroke-opacity=".7" stroke-width="2" stroke-miterlimit="16" stroke-dasharray="6 2"/>
  <path d="M238 249c51.362 0 93-16.789 93-37.5S289.362 174 238 174c-51.363 0-93 16.789-93 37.5s41.637 37.5 93 37.5z" stroke="#506677" stroke-opacity=".3" stroke-width="2" stroke-miterlimit="16" stroke-dasharray="6 2"/>
  <path d="M238 263c71.245 0 129-23.057 129-51.5S309.245 160 238 160s-129 23.057-129 51.5S166.755 263 238 263z" stroke="#506677" stroke-opacity=".1" stroke-width="2" stroke-miterlimit="16" stroke-dasharray="6 2"/>
  <path opacity=".1" d="M0 90.473a16.272 16.272 0 0 1 8.677-14.337A16.276 16.276 0 0 1 24.907 60H46.79a16.284 16.284 0 0 1 16.103 14.243h14.189a16.28 16.28 0 0 1 16.229 16.23H0z" fill="url(#paint0_linear)"/>
  <path opacity=".1" d="M440.302 30.46a16.266 16.266 0 0 0-8.677-14.336A16.276 16.276 0 0 0 415.396 0h-21.884a16.286 16.286 0 0 0-16.103 14.243h-14.18A16.28 16.28 0 0 0 347 30.473h93.307l-.005-.013z" fill="url(#paint1_linear)"/>
  <path d="M270.969 182.55c.07-7.092 0-11.824 0-20.05C263 160 259 152.499 239.5 151.999S207.013 163 207.013 163c0 6.807.141 10.473 0 16.855-.141 5.248.845 9.36 3.029 11.913 2.465 2.837 5.001 5.673 7.748 7.233 12.96 7.659 26.131 7.659 39.303 1.844 3.803-1.56 7.466-4.113 10.706-8.651 1.691-2.269 3.099-5.248 3.17-9.644z" fill="#fff"/>
  <path d="M270.969 182c0 4.204.07 7.901 0 11.526-.071 2.247-1.479 3.769-3.17 4.929-3.24 2.319-6.903 3.624-10.706 4.422-13.172 2.972-26.343 2.972-39.303-.943-2.747-.797-5.283-2.247-7.748-3.697-2.184-1.304-3.17-3.407-3.029-6.089.141-3.262 0-6.596 0-10.076 6.128 5.8 13.665 7.104 21.201 8.119 10.425 1.305 20.849.943 31.062-1.885 4.227-1.087 8.241-2.609 11.693-6.306z" fill="#506677"/>
  <path d="M270.917 169.627c0 1.915-.14 3.901 0 5.817.211 2.695-.984 4.54-3.021 6.03-3.092 2.27-6.606 3.547-10.26 4.327-14.195 3.121-28.32 3.192-42.233-1.561a22.466 22.466 0 0 1-3.514-1.631c-3.232-1.703-5.2-4.115-4.849-8.229.281-3.476.211-6.952 0-10.428-.14-3.051 1.195-5.179 3.655-6.811 3.935-2.624 8.432-3.901 12.929-4.682 12.509-2.199 24.947-2.128 37.174 1.703 2.53.78 4.919 2.128 7.238 3.547 2.038 1.277 3.092 3.263 2.952 5.817-.211 2.128-.071 4.114-.071 6.101zm-30.287 1.206c2.249-.284 6.184-.568 9.979-1.206 3.724-.639 7.308-1.632 10.33-4.044 2.529-2.057 2.6-4.54 0-6.455-1.617-1.206-3.514-2.199-5.411-2.767-9.908-3.121-20.028-3.192-30.147-.851a26.43 26.43 0 0 0-7.87 3.263c-3.303 1.986-3.233 4.966-.07 7.165 1.475.993 3.162 1.773 4.848 2.412 5.411 1.844 11.033 2.27 18.341 2.483zM270.969 199c0 4.262.07 7.956 0 11.721-.071 2.131-1.408 3.551-3.026 4.759-3.096 2.273-6.615 3.552-10.274 4.333-13.511 3.055-26.951 3.055-40.321-.923-2.604-.782-5.067-2.202-7.389-3.623-2.111-1.279-3.026-3.268-2.955-5.896.14-3.339 0-6.606 0-10.229.915.781 1.618 1.634 2.463 2.06 2.885 1.421 5.7 3.126 8.796 3.907 14.073 3.765 28.147 3.694 42.221-.142 3.8-.995 7.389-2.557 10.485-5.967zM305.917 76.627c0 1.915-.14 3.901 0 5.817.211 2.695-.984 4.54-3.021 6.03-3.092 2.27-6.606 3.546-10.26 4.327-14.195 3.121-28.32 3.192-42.233-1.56a22.478 22.478 0 0 1-3.514-1.632c-3.232-1.703-5.2-4.115-4.849-8.23.281-3.475.211-6.951 0-10.427-.14-3.05 1.195-5.179 3.655-6.81 3.935-2.625 8.432-3.902 12.929-4.683 12.509-2.199 24.947-2.128 37.174 1.703 2.53.78 4.919 2.128 7.238 3.547 2.038 1.277 3.092 3.263 2.952 5.817-.211 2.128-.071 4.114-.071 6.1zm-30.287 1.206c2.249-.284 6.184-.568 9.979-1.206 3.724-.639 7.308-1.632 10.33-4.044 2.529-2.057 2.6-4.54 0-6.455-1.617-1.206-3.514-2.2-5.411-2.767-9.908-3.121-20.028-3.192-30.147-.851a26.45 26.45 0 0 0-7.87 3.263c-3.303 1.986-3.233 4.966-.07 7.165 1.475.993 3.162 1.773 4.848 2.412 5.411 1.844 11.033 2.27 18.341 2.483z" fill="#506677"/>
  <path d="M269 110l-14.195 9v26.136L240.801 159.3" stroke="#0495FE" stroke-opacity=".3" stroke-width="2"/>
  <circle cx="238.881" cy="161.22" r="2.881" stroke="#0495FE" stroke-opacity=".3" stroke-width="2"/>
  <path d="M305.969 90c0 4.204.07 7.901 0 11.526-.071 2.247-1.479 3.769-3.17 4.929-3.24 2.319-6.903 3.624-10.706 4.422-13.172 2.972-26.343 2.972-39.303-.943-2.747-.797-5.283-2.247-7.748-3.697-2.184-1.304-3.17-3.407-3.029-6.089.141-3.262 0-6.596 0-10.075 6.128 5.799 13.665 7.103 21.201 8.118 10.425 1.305 20.849.942 31.062-1.885 4.227-1.087 8.241-2.61 11.693-6.306zM275.898 67.609H282v1.485h-6.102V73h-2.796v-3.906H267V67.61h6.102V64h2.796v3.609z" fill="#506677"/>
  <defs>
    <linearGradient id="paint0_linear" x1="105.665" y1="89.195" x2="-123.847" y2="49.923" gradientUnits="userSpaceOnUse">
      <stop stop-color="#0495FE"/>
      <stop offset="1" stop-color="#fff" stop-opacity="0"/>
    </linearGradient>
    <linearGradient id="paint1_linear" x1="48839.4" y1="25371.4" x2="89853.8" y2="3879.81" gradientUnits="userSpaceOnUse">
      <stop stop-color="#0495FE"/>
      <stop offset="1" stop-color="#fff" stop-opacity="0"/>
    </linearGradient>
  </defs>
</svg>
