<svg width="367" height="325" fill="none" xmlns="http://www.w3.org/2000/svg"><path d="M60.509 90.672a4 4 0 0 1 3.986-3.671h13.162a4 4 0 0 1 3.987 4.328l-1.153 14A4 4 0 0 1 76.505 109H63.343a4 4 0 0 1-3.987-4.328l1.153-14z" fill="#0495FE" fill-opacity=".1"/><path d="M276.509 223.672a4 4 0 0 1 3.986-3.672h13.162a4 4 0 0 1 3.987 4.329l-1.153 14a3.999 3.999 0 0 1-3.986 3.671h-13.162a4 4 0 0 1-3.987-4.328l1.153-14z" fill="#0495FE" fill-opacity=".3"/><path d="M190.509 59.672a4 4 0 0 1 3.986-3.671h13.162a4 4 0 0 1 3.987 4.328l-1.153 14A4 4 0 0 1 206.505 78h-13.162a4 4 0 0 1-3.987-4.329l1.153-14z" fill="#0495FE" fill-opacity=".5"/><path d="M1.509 269.672A4 4 0 0 1 5.495 266h13.162a4 4 0 0 1 3.987 4.329l-1.153 14A4 4 0 0 1 17.505 288H4.343a4 4 0 0 1-3.987-4.328l1.153-14z" fill="#0495FE" fill-opacity=".3"/><path d="M187.653 140.1H243.5c6.5 0 9.445 2.4 9.445 11.4v52c0 6.5 3.555 9 10.055 9h35M169.5 149H116c-7.942 0-12 5-12 13v28c0 8 0 13.5-10 13.5H74.5M170.75 166.75v39.5c0 7.942 5 12 13 12m0 0c8 0-8 0 0 0zm0 0c8 0 13.5 0 13.5 10v19.5M122.5 61.421V134c0 5 1.5 7.5 6.5 7.5h26" stroke="#0495FE" stroke-opacity=".3" stroke-width="3"/><circle cx="169.137" cy="145.336" r="34.567" fill="#fff" filter="url(#filter0_d)"/><path d="M179.444 161.431h-14.168a3.36 3.36 0 0 1-2.435-1.042l-10.796-11.143a2.995 2.995 0 0 1-.617-3.196c.442-1.101 1.472-1.814 2.627-1.814h13.229v-13.652c0-1.189.689-2.252 1.754-2.708a2.806 2.806 0 0 1 3.098.633l10.801 11.147a3.599 3.599 0 0 1 1.008 2.514v14.619c-.002 2.56-2.019 4.642-4.501 4.642zm-13.575-5.023h13.209v-13.632l-6.927-7.148v13.632h-13.209l6.927 7.148z" fill="#FF0076"/><circle cx="324.433" cy="214.567" r="34.567" fill="#fff" filter="url(#filter1_d)"/><path fill-rule="evenodd" clip-rule="evenodd" d="M311.306 225.92l-.009.033c1.596 1.19 3.551 1.915 5.661 1.915h14.308c5.147 0 9.316-4.193 9.316-9.371 0-3.21-1.596-6.006-4.015-7.715a13.022 13.022 0 0 0-3.911-6.316l-.007.007.007-.059a13.008 13.008 0 0 0-8.543-3.21c-5.919 0-10.963 4.09-12.455 9.579a.36.36 0 0 1 .054-.031 9.374 9.374 0 0 0-4.069 7.745 9.284 9.284 0 0 0 3.663 7.423zm17.284-17.364c-1.235-.984-2.779-1.605-4.477-1.553-2.101 0-3.998.872-5.284 2.311 2.255.459 4.212 1.732 5.592 3.488l-4.169 4.194c-.566-1.243-1.801-2.123-3.242-2.123-2.007 0-3.603 1.657-3.603 3.624 0 1.45.875 2.693 2.11 3.262l-.015.016c.454.196.955.294 1.456.294h7.154v.052h7.154c2.007 0 3.603-1.656 3.603-3.624 0-2.019-1.647-3.624-3.603-3.624v-.725c0-2.226-1.029-4.246-2.676-5.592z" fill="#394853"/><circle cx="196.863" cy="276.567" r="34.567" fill="#fff" filter="url(#filter2_d)"/><path d="M188.432 275.974c0 .475.052.861.142 1.144.102.283.231.591.411.925.064.103.09.206.09.296 0 .128-.077.257-.244.385l-.81.54a.618.618 0 0 1-.334.116c-.129 0-.257-.064-.386-.18a4.048 4.048 0 0 1-.463-.604 10.219 10.219 0 0 1-.398-.758c-1.003 1.182-2.262 1.773-3.779 1.773-1.079 0-1.94-.308-2.57-.925-.63-.617-.951-1.44-.951-2.468 0-1.092.385-1.979 1.169-2.648.784-.668 1.825-1.002 3.149-1.002.437 0 .887.038 1.363.103.475.064.964.167 1.478.282v-.938c0-.977-.206-1.658-.604-2.056-.412-.399-1.106-.591-2.095-.591-.45 0-.913.051-1.389.167-.475.115-.938.257-1.388.437-.205.09-.36.141-.449.167a.82.82 0 0 1-.206.038c-.18 0-.27-.128-.27-.398v-.63c0-.206.026-.36.09-.45.064-.09.18-.18.36-.27a7.4 7.4 0 0 1 1.619-.578 7.797 7.797 0 0 1 2.005-.244c1.53 0 2.648.347 3.368 1.041.707.694 1.066 1.748 1.066 3.162v4.164h.026zm-5.218 1.954c.424 0 .861-.078 1.324-.232a2.87 2.87 0 0 0 1.221-.822c.205-.245.36-.515.437-.823.077-.308.128-.681.128-1.118v-.54c-.372-.09-.771-.167-1.182-.218a9.576 9.576 0 0 0-1.208-.078c-.861 0-1.491.167-1.915.514-.424.348-.63.836-.63 1.479 0 .604.154 1.053.475 1.362.309.321.759.476 1.35.476zm10.321 1.388c-.232 0-.386-.039-.489-.129-.103-.077-.192-.257-.27-.501l-3.02-9.935c-.077-.257-.116-.424-.116-.514 0-.206.103-.322.309-.322h1.259c.245 0 .412.039.502.129.102.077.18.257.257.501l2.159 8.509 2.005-8.509c.064-.257.141-.424.244-.501.103-.077.283-.129.514-.129h1.028c.245 0 .412.039.515.129.102.077.192.257.244.501l2.031 8.611 2.223-8.611c.077-.257.167-.424.257-.501.103-.077.27-.129.501-.129h1.196c.205 0 .321.103.321.322 0 .064-.013.128-.026.205-.013.077-.038.18-.09.322l-3.097 9.935c-.077.257-.167.424-.27.501-.103.077-.27.128-.489.128h-1.105c-.244 0-.411-.038-.514-.128-.103-.09-.193-.257-.244-.514l-1.992-8.29-1.98 8.277c-.064.257-.141.424-.244.514-.103.09-.283.129-.514.129h-1.105zm16.515.347a8.466 8.466 0 0 1-1.979-.232c-.642-.154-1.144-.321-1.478-.514-.206-.116-.347-.244-.398-.36a.894.894 0 0 1-.077-.36v-.655c0-.27.102-.399.295-.399.077 0 .154.013.231.039.078.026.193.077.322.129.437.192.912.347 1.414.449a7.702 7.702 0 0 0 1.529.155c.81 0 1.44-.142 1.877-.424.437-.283.668-.695.668-1.221 0-.36-.116-.656-.347-.9-.231-.244-.668-.463-1.298-.669l-1.864-.578c-.938-.296-1.632-.733-2.056-1.311-.424-.565-.643-1.195-.643-1.864 0-.539.116-1.015.347-1.426.231-.411.54-.771.925-1.054a4.073 4.073 0 0 1 1.337-.668 5.577 5.577 0 0 1 1.62-.219c.282 0 .578.013.861.051.295.039.565.09.835.142.257.064.501.128.733.205.231.078.411.155.54.232.18.103.308.205.385.321.077.103.116.244.116.424v.604c0 .27-.103.412-.296.412-.103 0-.27-.052-.488-.155-.733-.334-1.555-.501-2.468-.501-.733 0-1.311.116-1.709.36-.399.244-.604.617-.604 1.144 0 .36.128.668.385.912.257.245.733.489 1.414.707l1.825.579c.925.295 1.594.707 1.992 1.234.399.527.591 1.131.591 1.799 0 .553-.115 1.054-.334 1.491-.231.437-.54.822-.938 1.131-.398.321-.874.553-1.427.72-.578.18-1.182.27-1.838.27z" fill="#394853"/><path fill-rule="evenodd" clip-rule="evenodd" d="M212.48 285.909c-4.229 3.123-10.372 4.781-15.655 4.781-7.403 0-14.074-2.737-19.112-7.287-.398-.36-.038-.848.437-.566 5.45 3.162 12.172 5.077 19.125 5.077 4.691 0 9.845-.977 14.588-2.982.707-.321 1.311.463.617.977z" fill="#394853"/><path fill-rule="evenodd" clip-rule="evenodd" d="M214.241 283.905c-.54-.694-3.573-.334-4.949-.167-.411.052-.475-.308-.102-.578 2.416-1.697 6.387-1.208 6.85-.643.463.579-.128 4.55-2.391 6.452-.347.296-.681.142-.527-.244.515-1.272 1.658-4.138 1.119-4.82z" fill="#394853"/><circle cx="44.567" cy="205.549" r="34.567" fill="#fff" filter="url(#filter3_d)"/><path d="M43.413 217.899c4.836-.847 8.83-1.548 8.876-1.558l.084-.018-4.566-5.384c-2.511-2.961-4.566-5.396-4.566-5.41 0-.026 4.715-12.898 4.741-12.944.009-.015 3.217 5.476 7.778 13.312l7.821 13.442.06.103-14.51-.002-14.511-.001 8.793-1.54zm-17.414-1.642c0-.008 2.151-3.711 4.78-8.229l4.781-8.214 5.572-4.636a2194.96 2194.96 0 0 1 5.59-4.642c.01-.004-.03.097-.09.223l-6.05 12.866-5.942 12.635-4.32.005c-2.377.003-4.321-.001-4.321-.008z" fill="#394853"/><circle cx="124.449" cy="37.567" r="34.567" fill="#fff" filter="url(#filter4_d)"/><path d="M134.082 31.28c-2.394-10.675-7.401-13.516-8.676-15.526C124.712 14.66 124.01 13 124.01 13c-.072.943-.195 1.546-.991 2.265-1.599 1.443-8.421 7.046-8.996 19.175-.534 11.31 8.243 18.285 9.408 19.004.892.442 1.977.009 2.51-.396 4.228-2.929 10.014-10.737 8.141-21.768z" fill="#676671"/><path d="M124.375 47.42c-.222 2.801-.379 4.431-.941 6.028 0 0 .369 2.665.625 5.487h.914a52.31 52.31 0 0 1 .997-5.913c-1.181-.584-1.551-3.145-1.595-5.601z" fill="#676671"/><path d="M125.973 53.022c-1.196-.557-1.543-3.17-1.6-5.605.295-4.015.381-8.043.257-12.067-.061-2.11.031-19.559-.515-22.113.221.496.755 1.673 1.289 2.512 1.276 2.01 6.275 4.852 8.677 15.529 1.87 11.004-3.881 18.8-8.108 21.744z" fill="#394853"/><defs><filter id="filter0_d" x="126.57" y="107.769" width="85.133" height="85.133" filterUnits="userSpaceOnUse" color-interpolation-filters="sRGB"><feFlood flood-opacity="0" result="BackgroundImageFix"/><feColorMatrix in="SourceAlpha" values="0 0 0 0 0 0 0 0 0 0 0 0 0 0 0 0 0 0 127 0"/><feOffset dy="5"/><feGaussianBlur stdDeviation="4"/><feColorMatrix values="0 0 0 0 0 0 0 0 0 0 0 0 0 0 0 0 0 0 0.07 0"/><feBlend in2="BackgroundImageFix" result="effect1_dropShadow"/><feBlend in="SourceGraphic" in2="effect1_dropShadow" result="shape"/></filter><filter id="filter1_d" x="281.867" y="177" width="85.133" height="85.133" filterUnits="userSpaceOnUse" color-interpolation-filters="sRGB"><feFlood flood-opacity="0" result="BackgroundImageFix"/><feColorMatrix in="SourceAlpha" values="0 0 0 0 0 0 0 0 0 0 0 0 0 0 0 0 0 0 127 0"/><feOffset dy="5"/><feGaussianBlur stdDeviation="4"/><feColorMatrix values="0 0 0 0 0 0 0 0 0 0 0 0 0 0 0 0 0 0 0.07 0"/><feBlend in2="BackgroundImageFix" result="effect1_dropShadow"/><feBlend in="SourceGraphic" in2="effect1_dropShadow" result="shape"/></filter><filter id="filter2_d" x="154.296" y="239" width="85.133" height="85.133" filterUnits="userSpaceOnUse" color-interpolation-filters="sRGB"><feFlood flood-opacity="0" result="BackgroundImageFix"/><feColorMatrix in="SourceAlpha" values="0 0 0 0 0 0 0 0 0 0 0 0 0 0 0 0 0 0 127 0"/><feOffset dy="5"/><feGaussianBlur stdDeviation="4"/><feColorMatrix values="0 0 0 0 0 0 0 0 0 0 0 0 0 0 0 0 0 0 0.07 0"/><feBlend in2="BackgroundImageFix" result="effect1_dropShadow"/><feBlend in="SourceGraphic" in2="effect1_dropShadow" result="shape"/></filter><filter id="filter3_d" x="2" y="167.982" width="85.133" height="85.133" filterUnits="userSpaceOnUse" color-interpolation-filters="sRGB"><feFlood flood-opacity="0" result="BackgroundImageFix"/><feColorMatrix in="SourceAlpha" values="0 0 0 0 0 0 0 0 0 0 0 0 0 0 0 0 0 0 127 0"/><feOffset dy="5"/><feGaussianBlur stdDeviation="4"/><feColorMatrix values="0 0 0 0 0 0 0 0 0 0 0 0 0 0 0 0 0 0 0.07 0"/><feBlend in2="BackgroundImageFix" result="effect1_dropShadow"/><feBlend in="SourceGraphic" in2="effect1_dropShadow" result="shape"/></filter><filter id="filter4_d" x="81.883" y="0" width="85.133" height="85.133" filterUnits="userSpaceOnUse" color-interpolation-filters="sRGB"><feFlood flood-opacity="0" result="BackgroundImageFix"/><feColorMatrix in="SourceAlpha" values="0 0 0 0 0 0 0 0 0 0 0 0 0 0 0 0 0 0 127 0"/><feOffset dy="5"/><feGaussianBlur stdDeviation="4"/><feColorMatrix values="0 0 0 0 0 0 0 0 0 0 0 0 0 0 0 0 0 0 0.07 0"/><feBlend in2="BackgroundImageFix" result="effect1_dropShadow"/><feBlend in="SourceGraphic" in2="effect1_dropShadow" result="shape"/></filter></defs></svg>