<svg width="200" height="200" viewBox="0 0 200 200" fill="none" xmlns="http://www.w3.org/2000/svg">
<rect width="200" height="200" fill="#5233ff"/>
<path d="M111.919 42.521C112.24 42.521 112.548 42.6485 112.775 42.8754C113.002 43.1024 113.129 43.4102 113.129 43.7311V86.8706H134.487C140.585 86.8706 146.433 89.2929 150.745 93.6047C155.057 97.9164 157.479 103.764 157.479 109.862V111.919C157.479 112.24 157.352 112.548 157.125 112.775C156.898 113.002 156.59 113.129 156.269 113.129H113.129V134.487C113.129 140.585 110.707 146.433 106.395 150.745C102.084 155.057 96.2356 157.479 90.1378 157.479H88.0807C87.7597 157.479 87.452 157.352 87.225 157.125C86.9981 156.898 86.8706 156.59 86.8706 156.269V113.129H65.5126C59.4149 113.129 53.5669 110.707 49.2551 106.395C44.9433 102.084 42.521 96.2356 42.521 90.1378V88.0807C42.521 87.7597 42.6485 87.452 42.8754 87.225C43.1024 86.9981 43.4102 86.8706 43.7311 86.8706H86.8706V65.5126C86.8706 59.4149 89.2929 53.5669 93.6047 49.2551C97.9164 44.9433 103.764 42.521 109.862 42.521H111.919ZM111.919 28H109.862C99.9132 28 90.3718 31.9522 83.3368 38.9872C76.3018 46.0222 72.3496 55.5636 72.3496 65.5126V72.3496H43.7311C39.5589 72.3496 35.5577 74.007 32.6075 76.9571C29.6574 79.9073 28 83.9085 28 88.0807L28 90.1378C28 100.087 31.9522 109.628 38.9872 116.663C46.0222 123.698 55.5636 127.65 65.5126 127.65H72.3496V156.269C72.3496 160.441 74.007 164.442 76.9571 167.392C79.9073 170.343 83.9085 172 88.0807 172H90.1378C100.087 172 109.628 168.048 116.663 161.013C123.698 153.978 127.65 144.436 127.65 134.487V127.65H156.269C160.441 127.65 164.442 125.993 167.392 123.043C170.343 120.093 172 116.091 172 111.919V109.862C172 99.9132 168.048 90.3718 161.013 83.3368C153.978 76.3018 144.436 72.3496 134.487 72.3496H127.65V43.7311C127.65 39.5589 125.993 35.5577 123.043 32.6075C120.093 29.6574 116.091 28 111.919 28Z" fill="white"/>
</svg>
