<svg width="200" height="200" viewBox="0 0 200 200" fill="none" xmlns="http://www.w3.org/2000/svg">
<rect width="200" height="200" fill="#020F46"/>
<path d="M100.492 154.687C79.5457 154.687 62.5 137.642 62.5 116.696V97.852C62.5 96.2901 63.7664 95.0238 65.3283 95.0238H78.8026L78.7521 51.4092L68.1481 57.9354V82.7735C68.1481 84.3354 66.8817 85.6017 65.3198 85.6017C63.758 85.6017 62.5 84.3354 62.5 82.7735V57.6145C62.5 55.8669 63.4287 54.2037 64.9146 53.2919L76.6668 46.0651C78.2369 45.1026 80.2041 45.0604 81.8082 45.9553C83.4123 46.8502 84.4085 48.5472 84.4085 50.3877L84.4592 95.0321H100.5C112.446 95.0321 122.164 104.75 122.164 116.696C122.164 128.642 112.446 138.36 100.5 138.36C88.554 138.36 78.8365 128.642 78.8365 116.696L78.8195 100.68H68.1481V116.696C68.1481 134.527 82.6526 149.039 100.492 149.039C118.331 149.039 132.835 134.535 132.835 116.696C132.835 98.8567 118.322 84.3522 100.492 84.3522H95.5865C94.0246 84.3522 92.7583 83.0859 92.7583 81.524C92.7583 79.9622 94.0246 78.6958 95.5865 78.6958H100.492C121.438 78.6958 138.483 95.7413 138.483 116.688C138.483 137.633 121.438 154.687 100.492 154.687ZM84.4592 100.68L84.4761 116.696C84.4761 125.527 91.6608 132.711 100.492 132.711C109.323 132.711 116.507 125.527 116.507 116.696C116.507 107.865 109.323 100.68 100.492 100.68H84.4592Z" fill="#FF5B64"/>
</svg>
