<svg width="64" height="64" viewBox="0 0 64 64" fill="none" xmlns="http://www.w3.org/2000/svg">
<path d="M52.7649 45.4693H8.07219C5.34956 45.4693 3.12195 43.7389 3.12195 41.6241V3.84518C3.12195 1.73033 5.34956 0 8.07219 0H56.7083C59.4309 0 61.6585 1.73033 61.6585 3.84518V41.6241C61.6585 42.5831 61.6585 50.7095 61.6585 53.8537C59.9606 52.1607 54.2202 46.9204 52.7649 45.4693Z" fill="#8ECCFD"/>
<path fill-rule="evenodd" clip-rule="evenodd" d="M58.3289 5.67111H5.67111L5.67111 45.5289L54 45.5289L58.3289 49.68V45.5289V5.67111ZM7.11111 0C3.18375 0 0 3.18376 0 7.11111V44.0889C0 48.0162 3.18375 51.2 7.11111 51.2H51.36L64 64C64 54.64 64 48.0162 64 44.0889V7.11111C64 3.18375 60.8162 0 56.8889 0H7.11111Z" fill="#0496FF"/>
<rect x="12.4445" y="12.4444" width="38.2439" height="5.46" fill="#0496FF"/>
<rect x="12.4445" y="23" width="38.2439" height="5.46341" fill="#0496FF"/>
<rect x="12.4445" y="34" width="38.2439" height="5.46341" fill="#0496FF"/>
</svg>
