<svg width="500" height="123" viewBox="0 0 500 123" fill="none" xmlns="http://www.w3.org/2000/svg">
<path d="M102.117 122.16H50.8712C47.5464 122.16 44.4147 120.826 42.0627 118.392L3.01715 78.0882C0.0654179 75.0488 -0.807442 70.5034 0.785028 66.5287C2.38416 62.5472 6.10881 59.9684 10.2865 59.9684H58.134V10.5878C58.134 6.28991 60.6259 2.4459 64.4772 0.795524C68.2685 -0.834224 72.786 0.0941132 75.6844 3.08542L114.75 43.4028C117.102 45.844 118.395 49.0691 118.395 52.4936V105.368C118.388 114.63 111.092 122.16 102.117 122.16ZM53.0167 103.992H100.791V54.6872L75.7377 28.8313V78.1363H27.9636L53.0167 103.992Z" fill="#FF0076"/>
<path d="M247.043 58.5033C243.445 52.1066 235.449 49.5745 228.519 49.5745C205.864 49.5745 192.671 70.6305 192.671 90.8869C192.671 106.479 201.6 118.073 217.725 118.073C226.254 118.073 234.516 114.475 240.113 108.078H240.247C240.113 109.544 240.113 110.877 240.113 111.943C240.113 115.008 240.646 116.607 240.646 116.607H259.97C259.97 116.607 259.57 114.875 259.57 111.943C259.57 110.61 259.703 108.878 259.97 107.012L268.899 50.9072H248.109C247.709 53.4392 247.31 55.9713 247.043 58.5033ZM243.978 79.8258C243.978 89.954 237.315 100.349 226.387 100.349C218.524 100.349 214.127 94.7516 214.127 87.1554C214.127 77.0272 220.79 66.6325 231.718 66.6325C239.58 66.6325 243.978 72.2297 243.978 79.8258Z" fill="#506677"/>
<path d="M332.91 56.6376C328.112 51.5735 317.718 49.7078 311.188 49.7078C288.399 49.7078 271.474 67.8319 271.474 90.2205C271.474 107.012 283.468 118.073 300.127 118.073C307.989 118.073 318.917 115.808 325.314 110.61L323.448 94.3518C318.917 97.9499 311.987 100.349 306.257 100.349C297.994 100.349 292.53 95.4179 292.53 87.0222C292.53 76.4942 300.127 66.7658 311.054 66.7658C316.385 66.7658 322.382 68.7648 325.714 73.1625L332.91 56.6376Z" fill="#506677"/>
<path d="M446.759 77.427C446.759 59.4362 433.699 49.5745 416.508 49.5745C392.92 49.5745 375.462 67.0323 375.462 90.2205C375.462 108.211 388.656 117.94 405.714 117.94C429.435 117.94 446.759 100.615 446.759 77.427ZM425.703 79.6925C425.703 89.5542 419.44 100.215 408.512 100.215C400.649 100.215 396.651 94.6183 396.651 87.1554C396.651 77.2938 402.915 66.6325 413.843 66.6325C421.705 66.6325 425.703 72.2297 425.703 79.6925Z" fill="#506677"/>
<path d="M500 50.9072C498.401 49.9743 495.602 49.7078 493.737 49.7078C486.14 49.7078 480.143 54.1055 476.279 60.2358C476.679 58.6366 476.812 56.6376 476.812 55.3049C476.812 52.3731 476.412 50.9072 476.412 50.9072H455.756C455.756 50.9072 456.022 52.5064 456.022 55.0384C456.022 56.6376 455.889 58.6366 455.623 60.6356L446.827 116.607H467.616L472.281 87.422C473.48 79.0262 477.478 69.0313 487.606 69.0313C490.005 69.0313 492.67 69.4311 494.803 70.6305H495.869L500 50.9072Z" fill="#506677"/>
<path d="M179.687 67.2988H193.28L195.945 50.9072H182.219C183.285 44.6437 183.685 38.5135 191.681 38.5135C194.213 38.5135 196.745 38.9133 199.143 39.7129L202.608 24.6538C198.344 23.3212 193.413 22.9214 188.882 22.9214C169.292 22.9214 164.095 34.3822 161.429 50.9072H153.3L150.768 67.2988H158.897L150.735 118.073H171.528L179.687 67.2988Z" fill="#506677"/>
<path d="M365.663 43.5776C366.063 41.1788 366.196 39.1798 366.196 37.5806C366.196 34.6488 365.796 33.1828 365.796 33.1828H345.14C345.14 33.1828 345.407 34.782 345.407 37.3141C345.407 38.9133 345.407 40.6457 345.14 42.6447L343.807 50.9072L341.142 67.2988C339.41 78.4932 336.211 90.7536 336.211 102.348C336.211 113.275 342.475 118.073 353.003 118.073C358.2 118.073 363.131 117.14 368.062 115.941L369.661 99.0161C367.662 99.8157 365.397 100.215 363.264 100.215C359.666 100.215 357.8 99.0161 357.8 95.1514C357.8 86.0893 360.466 76.2276 361.932 67.2988H375.925L378.723 50.9072H364.597L365.663 43.5776Z" fill="#506677"/>
</svg>
