<svg id="Layer_1" data-name="Layer 1" xmlns="http://www.w3.org/2000/svg" viewBox="0 0 1241.44 769.88"><defs><style>.cls-1{opacity:0.53;}.cls-2,.cls-4{fill:#506677;}.cls-3{fill:#ff0076;}.cls-4{opacity:0.63;font-size:108.84px;font-family:Gibson-Light, Gibson;font-weight:300;letter-spacing:0.05em;}.cls-5{letter-spacing:0.03em;}.cls-6{letter-spacing:0.04em;}.cls-7{letter-spacing:0.05em;}</style></defs><title>factor</title><g class="cls-1"><path class="cls-2" d="M701.13,801c-3.38-4.61-9.47-6.72-14.88-6.72-11.11,0-18.82,10.22-18.82,21.29,0,8.82,5.55,14,14,14a29.66,29.66,0,0,0,17.46-6.31l1.89,17.08c-6.49,5.46-17.59,7.84-25.58,7.84-16.92,0-29.1-11.62-29.1-29.29,0-23.52,17.23-42.56,40.34-42.56,6.64,0,15.69,2,20.56,7.28Z" transform="translate(-126.41 -81.1)"/><path class="cls-2" d="M736.17,777.58H751l-2.94,17.22h-14.7c-1.54,9.38-4.3,19.75-4.3,29.29,0,4.06,2,5.31,5.73,5.31a18.37,18.37,0,0,0,6.72-1.25l-1.72,17.78A66.5,66.5,0,0,1,724,848.17c-11.07,0-17.65-5-17.65-16.52,0-12.18,3.36-25.06,5.17-36.83l2.76-17.23h0l1.4-8.68a40.32,40.32,0,0,0,.27-5.6,29.61,29.61,0,0,0-.27-4.31h21.7a19.66,19.66,0,0,1,.4,4.59,38,38,0,0,1-.56,6.31Z" transform="translate(-126.41 -81.1)"/><path class="cls-2" d="M750.3,846.6a17.24,17.24,0,0,1-.56-4.9,34.78,34.78,0,0,1,.56-6l7.42-48a45.89,45.89,0,0,0,.42-5.74,29.62,29.62,0,0,0-.28-4.31h21.7a19,19,0,0,1,.42,4.63,37.91,37.91,0,0,1-.56,6.29l-7.41,48a37.28,37.28,0,0,0-.42,5.17,23.74,23.74,0,0,0,.42,4.9Zm21.11-76.73c-5.89,0-10.64-3.36-10.64-9.66,0-8.12,6.43-13.86,14.42-13.86,6,0,10.64,3.36,10.64,9.65,0,8-6.41,13.87-14.42,13.87" transform="translate(-126.41 -81.1)"/><path class="cls-2" d="M811.69,848.14c-17,0-30.15-10.22-30.15-29.12,0-24.36,17.41-42.7,40.94-42.7,17.14,0,30.15,10.33,30.15,29.29,0,24.31-17.26,42.53-40.94,42.53m8.11-53.91c-10.9,0-17.14,11.2-17.14,21.54,0,7.84,4,13.72,11.82,13.72,10.9,0,17.15-11.2,17.15-21.53,0-7.84-4-13.72-11.81-13.72Z" transform="translate(-126.41 -81.1)"/><path class="cls-2" d="M898,846.6a17.24,17.24,0,0,1-.56-4.9,34.78,34.78,0,0,1,.56-6l3.92-25.06a38.89,38.89,0,0,0,.7-6.89c0-5.75-2.24-9-8.26-9-9.8,0-13,9.38-14.29,17.64l-5.46,34.17H852.75L862,787.94a46.88,46.88,0,0,0,.42-6,29.62,29.62,0,0,0-.28-4.31h21.54a20,20,0,0,1,.42,4.63,37.41,37.41,0,0,1-.42,5.17h.14c5-6.72,12.46-11.07,21-11.07,13.71,0,20.44,6.59,20.44,20.16a55.25,55.25,0,0,1-.86,9.52l-4.91,30.53a40.64,40.64,0,0,0-.42,5.17,25.21,25.21,0,0,0,.42,4.9Z" transform="translate(-126.41 -81.1)"/><path class="cls-2" d="M608.48,776.47c1.16-6.82,1.89-12.59,10.3-13.8a25.51,25.51,0,0,1,7.23-.14l3.87-18.06a55.19,55.19,0,0,0-14-.28c-21.24,2-27.13,14.27-30,32.27h-11l-2.22,17.86h10.47s-6.24,34.61-6.66,37.11-2.94,16.19-2.94,16.19l22.59-.32s-.39.14.77-7.12l8.44-45.85h15.38l-6.44,39.3c-.44,2.46-1.49,13.47-1.49,13.47l21.62-.15a104.23,104.23,0,0,1,.75-10.42c.45-4.16,5.67-31.48,5.67-31.48.82-5.18,2.09-12.77,3.22-18.82a34.24,34.24,0,0,0,.45-9.76Z" transform="translate(-126.41 -81.1)"/></g><g class="cls-1"><path class="cls-3" d="M537.17,851H484.26a12.74,12.74,0,0,1-9.09-3.77l-40.33-40.33a10.62,10.62,0,0,1,7.51-18.12h49.4V739.35a10.58,10.58,0,0,1,6.55-9.79,10.73,10.73,0,0,1,11.57,2.29l40.34,40.33a12.83,12.83,0,0,1,3.76,9.1v52.9A16.82,16.82,0,0,1,537.17,851Zm-50.7-18.18h49.32V783.48l-25.86-25.87v49.33H460.6Z" transform="translate(-126.41 -81.1)"/></g><path class="cls-2" d="M465.94,193.3h79.27l-34.05,214a140.08,140.08,0,0,0-1.52,18.81,87.31,87.31,0,0,0,1.52,17.78H437.48s-2-6.09-2-17.78c0-4.07,0-9.15.51-14.74h-.51c-21.34,24.39-52.85,38.12-85.37,38.12-61.4-5.24-87.74-48.72-87.74-108.18,0-77.24,42.51-150.64,128.9-150.64,26.43,0,56.92,7.26,70.64,31.65C462.89,212.62,464.41,203,465.94,193.3Zm-67.3,60c-41.67,0-67.08,39.64-67.08,78.26,0,29,16.77,50.32,46.75,50.32,41.67,0,67.08-39.64,67.08-78.27C445.39,274.62,428.62,253.27,398.64,253.27Z" transform="translate(-126.41 -81.1)"/><path class="cls-2" d="M739.28,278.17c-12.7-16.77-35.57-24.39-55.9-24.39-41.67,0-70.64,37.1-70.64,77.25,0,32,20.84,50.82,52.35,50.82,21.85,0,48.27-9.15,65.55-22.87l7.12,62c-24.4,19.82-66.07,28.46-96,28.46-63.53,0-109.26-42.19-109.26-106.22,0-85.38,64.54-154.49,151.44-154.49,24.9,0,50.18,2.33,68.47,21.64Z" transform="translate(-126.41 -81.1)"/><path class="cls-2" d="M879.61,193.3h53.87l-10.67,62.51H869.45c-5.59,34.05-15.76,71.66-15.76,106.21,0,14.74,7.12,19.32,20.84,19.32a67,67,0,0,0,24.39-4.58l-6.1,64.54c-18.8,4.58-37.6,8.14-57.42,8.14-40.15,0-64-18.3-64-60,0-44.22,12.19-91,18.8-133.66h-34l10.16-62.51h34.05l5.08-31.5a146.29,146.29,0,0,0,1-20.33,105.51,105.51,0,0,0-1-15.76h78.77s1.53,5.59,1.53,16.77a139.84,139.84,0,0,1-2,22.87Z" transform="translate(-126.41 -81.1)"/><path class="cls-2" d="M1020.45,449.44c-65.05,0-115.36-37.1-115.36-105.71,0-88.43,66.57-155,156.52-155,65.56,0,115.36,37.61,115.36,106.21C1177,383.37,1110.91,449.44,1020.45,449.44Zm31-195.66c-41.68,0-65.56,40.65-65.56,78.26,0,28.46,15.25,49.81,45.23,49.81,41.67,0,65.56-40.66,65.56-78.27C1096.68,275.12,1081.43,253.78,1051.45,253.78Z" transform="translate(-126.41 -81.1)"/><path class="cls-2" d="M1352.09,268.52H1348c-8.13-4.58-18.29-6.1-27.44-6.1-38.62,0-53.87,38.11-58.44,70.13l-17.79,111.29h-79.28l33.54-213.44a167.56,167.56,0,0,0,1.53-21.34,105.51,105.51,0,0,0-1-15.76h78.77s1.53,5.59,1.53,16.77a84.58,84.58,0,0,1-2,18.81c14.74-23.38,37.61-40.15,66.57-40.15,7.12,0,17.79,1,23.89,4.57Z" transform="translate(-126.41 -81.1)"/><path class="cls-2" d="M271.81,81.8c-74.43,6.43-94.53,48.49-104.69,111.5h-31l-9.66,62.51h31L126.41,449H205.7l31-193.19h39.87l12.06-63-42.27.45C250.46,169.42,254,157,277,146c10.38-5,19-7,33.94-5l13.21-55C307.89,80.93,288.67,80.34,271.81,81.8Z" transform="translate(-126.41 -81.1)"/><text class="cls-4" transform="translate(154.37 521.21)">SE<tspan class="cls-5" x="123.76" y="0">R</tspan><tspan x="181.44" y="0">VERLE</tspan><tspan class="cls-6" x="478.59" y="0">S</tspan><tspan class="cls-7" x="539.76" y="0">S CMS</tspan></text></svg>