<svg width="29" height="30" fill="none" xmlns="http://www.w3.org/2000/svg"><path d="M28.563 23.75C28.397 27.224 25.526 30 22.02 30H6.55C3.046 30 .173 27.224.007 23.75H0V6.251h.007C.173 2.776 3.046 0 6.55 0h12.096v.002h.93L16.75 2.389H6.55a4.18 4.18 0 0 0-4.169 4.18v16.863a4.18 4.18 0 0 0 4.169 4.18H22.02a4.18 4.18 0 0 0 4.169-4.18V11.63l2.381-2.347V23.75h-.008zm-8.224-10.484l-1.728 1.822c-.572.586-2.023 2.056-2.48 2.542-.38.403-.761.805-1.144 1.206a9.712 9.712 0 0 1-.538.541c-.146.135-.31.276-.498.428-.185.15-.38.27-.58.36a10.28 10.28 0 0 1-.885.385c-.389.15-.794.296-1.22.439-.4.134-.802.258-1.208.371-.38.103-.665.173-.852.204-.388.044-.646-.017-.776-.18-.13-.165-.166-.445-.109-.832.03-.212.098-.516.206-.913.107-.399.223-.811.344-1.238a45.7 45.7 0 0 1 .356-1.183c.116-.36.209-.61.281-.744.081-.199.179-.39.292-.574.107-.173.261-.364.463-.574l.604-.641c.316-.339 1.641-1.688 2.115-2.183l1.575-1.644 1.749-1.823 4.468-4.669 4.069 4.127-4.505 4.773zm7.295-7.69c-.214.224-.407.42-.577.588-.17.169-.319.319-.444.449-.143.15-.276.281-.402.393L22.163 2.88c.216-.206.47-.453.766-.743.239-.237.485-.466.738-.687.253-.206.512-.35.781-.434.235-.076.48-.114.726-.113h.066c.131.005.262.019.387.04-.003-.002-.008 0-.011-.002a.03.03 0 0 1 .011.002c.544.101 1.115.394 1.599.863.258.249.476.536.645.853.235.442.346.905.325 1.328 0 .052.004.105.004.157 0 .245-.046.488-.136.73-.09.243-.234.477-.43.702z" fill="#0495FE"/></svg>