<?xml version="1.0" encoding="utf-8"?>
<!-- Generator: Adobe Illustrator 19.2.1, SVG Export Plug-In . SVG Version: 6.00 Build 0)  -->
<svg version="1.1" id="Layer_1" xmlns="http://www.w3.org/2000/svg" xmlns:xlink="http://www.w3.org/1999/xlink" x="0px" y="0px"
	 viewBox="0 0 340 170" style="enable-background:new 0 0 340 170;" xml:space="preserve">
<style type="text/css">
	.st0{fill:#110D47;}
</style>
<g>
	<path class="st0" d="M230.7,109.6h-5.3c-0.2-0.9-0.4-1.5-0.8-1.9c-0.6-0.6-1.5-0.9-2.9-0.9c-1.3,0-2.2,0.2-2.8,0.7
		c-0.4,0.3-0.6,0.8-0.6,1.4c0,0.8,1.1,1.5,3.4,2c2.5,0.6,4.4,1,5.5,1.4c0.3,0.1,0.6,0.2,0.7,0.3c2.3,1.1,3.4,2.7,3.4,4.9
		c0,2.7-1.1,4.6-3.3,5.9c-0.3,0.2-0.5,0.3-0.8,0.4c-1.4,0.6-3.1,0.9-4.9,0.9c-2.8,0-5-0.5-6.7-1.5c-1.1-0.6-1.9-1.4-2.4-2.4
		c-0.5-1-0.8-2.1-0.8-3.4h5.6c0,1,0.4,1.7,1,2.2c0.7,0.5,1.8,0.8,3.5,0.8c1.2,0,2.2-0.3,2.8-0.8c0.5-0.4,0.7-0.9,0.7-1.4
		c0-0.9-1.1-1.6-3.3-2c-3.3-0.7-5.3-1.3-6.2-1.7c-2.2-1.1-3.4-2.7-3.4-5c0-1.8,0.6-3.4,1.7-4.6c1.5-1.6,3.7-2.4,6.6-2.4
		c2.4,0,4.3,0.4,5.8,1c0.1,0.1,0.2,0.1,0.3,0.2c1,0.6,1.8,1.3,2.4,2.3C230.5,107.2,230.7,108.3,230.7,109.6"/>
	<path class="st0" d="M227.9,96.5c0-0.1,0-0.2-0.1-0.3c-0.1-0.1-0.1-0.1-0.2-0.2c-0.1,0-0.2,0-0.4-0.1h-0.8v1h0.7c0.1,0,0.1,0,0.2,0
		c0.2,0,0.4-0.1,0.5-0.1C227.8,96.8,227.9,96.6,227.9,96.5 M228.3,95.9c0.1,0.2,0.2,0.3,0.2,0.5c0,0.3-0.1,0.5-0.3,0.7
		c-0.2,0.2-0.4,0.3-0.7,0.3c0.1,0.1,0.2,0.1,0.3,0.2l0.5,0.7l0.4,0.7H228l-0.3-0.6c-0.2-0.4-0.4-0.6-0.5-0.7c0,0,0,0-0.1-0.1
		l-0.4-0.1h-0.3V99h-0.6v-3.5h1.2c0.1,0,0.1,0,0.2,0c0.3,0,0.5,0,0.7,0.1C228,95.6,228.2,95.7,228.3,95.9z"/>
	<path class="st0" d="M229.9,97.2c0-0.5-0.1-0.9-0.4-1.4c-0.2-0.4-0.6-0.8-1-1c-0.4-0.2-0.9-0.4-1.3-0.4c0,0,0,0,0,0
		c-0.4,0-0.9,0.1-1.3,0.4c-0.4,0.2-0.8,0.6-1,1c-0.2,0.4-0.4,0.9-0.4,1.4c0,0.5,0.1,0.9,0.4,1.3c0.2,0.4,0.6,0.7,1,1
		c0.4,0.2,0.9,0.4,1.3,0.4c0,0,0,0,0,0c0.5,0,0.9-0.1,1.3-0.4c0.4-0.2,0.8-0.6,1-1C229.8,98.1,229.9,97.6,229.9,97.2 M230.4,97.2
		c0,0.5-0.1,1.1-0.4,1.6c-0.3,0.5-0.7,0.9-1.2,1.2c-0.5,0.3-1,0.4-1.6,0.4c0,0,0,0,0,0c-0.6,0-1.1-0.1-1.6-0.4
		c-0.5-0.3-0.9-0.7-1.2-1.2c-0.3-0.5-0.4-1.1-0.4-1.6c0-0.6,0.1-1.1,0.4-1.6c0.3-0.5,0.7-0.9,1.2-1.2c0.5-0.3,1-0.4,1.6-0.4
		c0,0,0,0,0,0c0.5,0,1,0.1,1.6,0.4c0.5,0.3,0.9,0.7,1.2,1.2C230.3,96.1,230.4,96.6,230.4,97.2z"/>
	<path class="st0" d="M199.1,70.9l15.1,25.4h-24.3L175.5,72l-10.9-18.4l10.9-6.6l6.9-4.2L199.1,70.9"/>
	<path class="st0" d="M210.1,114v10.4h-5v-1.2c-1.7,1.1-3.7,1.8-5.9,1.8c0,0,0,0-0.1,0c-6,0-10.9-5-10.9-11c0-6.1,4.9-11,10.9-11
		c0,0,0,0,0.1,0c2.2,0,4.2,0.7,5.9,1.8v-1.2h5V114 M205,115.2v-2.3c-0.5-2.8-3-4.9-5.9-4.9c0,0,0,0-0.1,0c-3.3,0-6,2.7-6,6.1
		c0,3.3,2.7,6,6,6.1c0,0,0,0,0.1,0C202,120.1,204.5,117.9,205,115.2z"/>
	<path class="st0" d="M186.4,114v10.4h-5v-1.2c-1.7,1.1-3.7,1.8-5.9,1.8c0,0,0,0-0.1,0c-6,0-10.9-5-10.9-11c0-6.1,4.9-11,10.9-11
		c0,0,0,0,0.1,0c2.2,0,4.2,0.7,5.9,1.8v-8.4h5V114 M181.4,115.2v-2.3c-0.5-2.8-3-4.9-5.9-4.9c0,0,0,0-0.1,0c-3.3,0-6,2.7-6,6.1
		c0,3.3,2.7,6,6,6.1c0,0,0,0,0.1,0C178.4,120.1,180.9,117.9,181.4,115.2z"/>
	<path class="st0" d="M175.5,86.3l5.9,10h-24.3l-13.5-22.6l-0.6-1l0.6-0.4l17.3-10.5L175.5,86.3"/>
	<path class="st0" d="M157.1,103h5.5v21.5h-5.5V103z"/>
	<path class="st0" d="M157.1,96.5h5.5v4.9h-5.5V96.5z"/>
	<path class="st0" d="M154.6,114v10.4h-5v-1.2c-1.7,1.1-3.7,1.8-5.9,1.8c0,0,0,0-0.1,0c-6,0-10.9-5-10.9-11c0-6.1,4.9-11,10.9-11
		c0,0,0,0,0.1,0c2.2,0,4.2,0.7,5.9,1.8v-8.4h5V114 M149.6,115.2v-2.3c-0.5-2.8-3-4.9-5.9-4.9c0,0,0,0-0.1,0c-3.3,0-6,2.7-6,6.1
		c0,3.3,2.7,6,6,6.1c0,0,0,0,0.1,0C146.6,120.1,149.1,117.9,149.6,115.2z"/>
	<path class="st0" d="M143.6,88l5,8.4h-24.3l-2.7-4.6l17.8-10.8L143.6,88"/>
	<path class="st0" d="M130.8,114v10.4h-5v-1.2c-1.7,1.1-3.7,1.8-5.9,1.8c0,0,0,0-0.1,0c-6,0-10.9-5-10.9-11c0-6.1,4.9-11,10.9-11
		c0,0,0,0,0.1,0c2.2,0,4.2,0.7,5.9,1.8v-1.2h5V114 M125.8,115.2v-2.3c-0.5-2.8-3-4.9-5.9-4.9c0,0,0,0-0.1,0c-3.3,0-5.9,2.7-5.9,6.1
		c0,3.3,2.7,6,5.9,6.1c0,0,0,0,0.1,0C122.8,120.1,125.2,117.9,125.8,115.2z"/>
</g>
</svg>
