<?xml version="1.0" encoding="utf-8"?>
<!-- Generator: Adobe Illustrator 19.2.1, SVG Export Plug-In . SVG Version: 6.00 Build 0)  -->
<svg version="1.1" id="Layer_1" xmlns="http://www.w3.org/2000/svg" xmlns:xlink="http://www.w3.org/1999/xlink" x="0px" y="0px"
	 viewBox="0 0 340 170" style="enable-background:new 0 0 340 170;" xml:space="preserve">
<style type="text/css">
	.st0{fill:#110D47;}
</style>
<g>
	<path class="st0" d="M170,98.7c7.5,0,13.6-6.1,13.6-13.6c0-7.5-6.1-13.6-13.6-13.6c-7.5,0-13.6,6.1-13.6,13.6v0l0,0
		C156.4,92.6,162.5,98.7,170,98.7z"/>
	<path class="st0" d="M170,39.8c-4.7,0-9.3,0.7-13.6,2.1V67c3.8-2.8,8.5-4.5,13.6-4.5c12.5,0,22.7,10.1,22.7,22.7
		c0,12.5-10.1,22.6-22.7,22.6c-12.5,0-22.6-10.1-22.6-22.6V45.9c-13.5,7.8-22.6,22.5-22.6,39.2c0,25,20.3,45.3,45.3,45.3
		c25,0,45.3-20.3,45.3-45.3C215.3,60.1,195,39.8,170,39.8z"/>
</g>
</svg>
