<svg version="1.1" id="Layer_1" xmlns="http://www.w3.org/2000/svg" xmlns:xlink="http://www.w3.org/1999/xlink" x="0px" y="0px"
   viewBox="0 0 340 170" style="enable-background:new 0 0 340 170;" xml:space="preserve">
  <defs>
    <style>
      .cls-1 {
        fill: #110D47;
      }
    </style>
  </defs>
  <title>city</title>
  <path class="cls-1" d="M170.41,124.93A39.66,39.66,0,1,1,209.9,85.27a39.58,39.58,0,0,1-39.49,39.66m0-81.2a41.54,41.54,0,1,0,41.35,41.54,41.5,41.5,0,0,0-41.35-41.54"/>
  <path class="cls-1" d="M170.41,124.93A39.66,39.66,0,1,1,209.9,85.27a39.58,39.58,0,0,1-39.49,39.66m0-81.2a41.54,41.54,0,1,0,41.35,41.54,41.5,41.5,0,0,0-41.35-41.54"/>
  <polygon class="cls-1" points="135.37 84.3 134.66 84.48 134.47 83.74 135.64 83.38 136.26 83.38 136.26 87.53 135.37 87.53 135.37 84.3"/>
  <path class="cls-1" d="M139.46,84.59h0a.52.52,0,0,0-.58-.48c-.37,0-.59.22-.59.48h0a.59.59,0,0,0,1.17,0m.12,1.74h0c0-.32-.29-.51-.7-.51s-.71.19-.71.51h0c0,.28.26.51.71.51s.7-.22.7-.51m-2.28.07h0a1,1,0,0,1,.66-1,1,1,0,0,1-.52-.9h0c0-.63.57-1.13,1.44-1.13s1.44.5,1.44,1.13h0a1,1,0,0,1-.53.9,1,1,0,0,1,.67,1h0c0,.77-.68,1.21-1.58,1.21s-1.58-.46-1.58-1.18"/>
  <path class="cls-1" d="M202.29,84.76h0a.64.64,0,0,0-.72-.63.61.61,0,0,0-.69.62h0a.63.63,0,0,0,.71.62.62.62,0,0,0,.7-.61m0,1.08a1.22,1.22,0,0,1-.83.28A1.29,1.29,0,0,1,200,84.79h0a1.63,1.63,0,0,1,2.75-1,2.05,2.05,0,0,1,.48,1.55h0c0,1.33-.62,2.25-1.79,2.25a2,2,0,0,1-1.34-.49l.47-.69a1.32,1.32,0,0,0,.89.35c.62,0,.8-.58.83-.93"/>
  <path class="cls-1" d="M206.09,85.9V84.62L205,85.9Zm0,.74h-2l-.15-.64,2.25-2.62H207V85.9h.55v.74H207v.89h-.86Z"/>
  <polygon class="cls-1" points="136.82 71.07 137.58 69.63 140.98 69.39 139.25 66.44 140.01 64.99 146.06 68.19 145.37 69.52 141.41 67.44 143.1 70.51 143.09 70.55 139.64 70.89 143.56 72.96 142.88 74.27 136.82 71.07"/>
  <path class="cls-1" d="M147.76,61.89,145.52,61l1,2.19Zm-4-1.61.95-1,7,2.6L150.64,63l-1.55-.6-2,2.12L147.8,66l-1.05,1.12Z"/>
  <polygon class="cls-1" points="149.17 55.27 150.35 54.55 155.28 56.5 153.09 52.88 154.37 52.11 157.91 57.98 156.82 58.65 151.73 56.64 153.99 60.37 152.71 61.15 149.17 55.27"/>
  <path class="cls-1" d="M158.35,54.08v0a3.49,3.49,0,0,1,2.45-4.4,3.53,3.53,0,0,1,2.88.26l-.61,1.33a2.55,2.55,0,0,0-1.9-.25,2,2,0,0,0-1.31,2.61h0a2,2,0,0,0,2.51,1.53,2.48,2.48,0,0,0,1.5-1.28l1.19.67a3.52,3.52,0,0,1-2.36,2,3.44,3.44,0,0,1-4.34-2.42"/>
  <polygon class="cls-1" points="166.55 48.57 168.06 48.53 168.13 51.25 170.9 51.18 170.83 48.46 172.33 48.42 172.51 55.29 171 55.33 170.93 52.57 168.16 52.64 168.23 55.4 166.72 55.44 166.55 48.57"/>
  <path class="cls-1" d="M181.19,56.23l1.25-.6A3.19,3.19,0,0,0,184,57.25c.56.26,1,.19,1.17-.17v0c.16-.35,0-.63-.88-1.38-1.11-.9-1.75-1.62-1.18-2.86h0a2.15,2.15,0,0,1,3.05-.88,4,4,0,0,1,1.94,1.87l-1.19.7a3.17,3.17,0,0,0-1.33-1.36c-.52-.25-.91-.13-1.05.17v0c-.19.41,0,.67,1,1.44,1.11.91,1.61,1.7,1.11,2.79v0c-.57,1.23-1.83,1.49-3.16.87a4.37,4.37,0,0,1-2.18-2.22"/>
  <polygon class="cls-1" points="191.16 56.62 189.51 55.36 190.35 54.25 194.86 57.7 194.02 58.81 192.36 57.54 189.06 61.9 187.86 60.98 191.16 56.62"/>
  <path class="cls-1" d="M200.37,70.59a1,1,0,0,0,1.39.6h0c.58-.29.67-.84.34-1.5l-.67-1.34-1.75.88ZM202,66.38l1.41,2.8a2.81,2.81,0,0,1,.27,2.11,2.18,2.18,0,0,1-1.13,1.23h0a2.11,2.11,0,0,1-2.55-.35l-1.44,2.6-.79-1.58,1.3-2.3-.53-1.06-2,1-.67-1.35Z"/>
  <polygon class="cls-1" points="176.62 53.17 179.14 53.72 179.84 52.5 176.91 51.86 177.2 50.5 180.78 51.28 181.06 49.96 176.02 48.86 174.57 55.58 179.66 56.69 179.94 55.37 176.32 54.59 176.62 53.17"/>
  <polygon class="cls-1" points="196.92 59.74 191.67 64.15 195.02 68.16 196.05 67.3 193.66 64.44 194.76 63.51 196.44 65.52 197.8 65.06 195.79 62.65 196.85 61.75 199.21 64.57 200.23 63.71 196.92 59.74"/>
  <path class="cls-1" d="M158.94,118.3v0a3.74,3.74,0,0,1,6.37-2.54l-1,1.13a2.58,2.58,0,0,0-1.78-.79,2.07,2.07,0,0,0-2,2.18v0a2.07,2.07,0,0,0,2,2.2,2.52,2.52,0,0,0,1.83-.82l1,1a3.66,3.66,0,0,1-6.42-2.35"/>
  <rect class="cls-1" x="166.85" y="114.78" width="1.53" height="6.99"/>
  <polygon class="cls-1" points="171.94 116.2 169.82 116.2 169.82 114.78 175.59 114.78 175.59 116.2 173.47 116.2 173.47 121.78 171.94 121.78 171.94 116.2"/>
  <polygon class="cls-1" points="178.92 119.02 176.25 114.78 178.04 114.78 179.7 117.59 181.39 114.78 183.13 114.78 180.46 118.99 180.46 121.78 178.92 121.78 178.92 119.02"/>
  <path class="cls-1" d="M170.41,127.72a42.46,42.46,0,1,1,42.27-42.45,42.41,42.41,0,0,1-42.27,42.45m0-86.72a44.27,44.27,0,1,0,44.08,44.27A44.22,44.22,0,0,0,170.41,41"/>
  <path class="cls-1" d="M170.79,85.38h7.6a26.4,26.4,0,0,0-3.82-.78,6.24,6.24,0,0,1-2.42.47c-1.85,0-2.64-.49-4.76-.62-.18,0,.12.55-1.94.65a9.34,9.34,0,0,1-2.54-.39c-.82-.2-1.51,0-1.72.67h9.6Zm-6.33-3.94v1.38c1.54.13,3.52.2,6.27.2V81.58c-1.13.29-1.46.75-1.56,1h0a4.54,4.54,0,0,1-.85-1,17,17,0,0,0-3.87-.12m6.81,0V83h.37l1.7,0c.27,0,1.21-.42,1.47-.44.67,0,1.31-.08,1.91-.14v-.48a15.31,15.31,0,0,0-5.46-.44m18.61,3.9L189.79,87H151.57l-.07-1.59H161a17.08,17.08,0,0,0-1.88-2.54c-1.44-.7-3.46-1.49-3.46-1.49l.1-.27a17,17,0,0,0,3.66,1,43,43,0,0,0,4.52.7V81.5l-.4.08a4.61,4.61,0,0,0-.77.23,1.11,1.11,0,0,0-.44.29.24.24,0,0,0-.06.09h0a3.16,3.16,0,0,1-1.07-1.82,2.41,2.41,0,0,1,.36-1.92l5.53-1.9a5.9,5.9,0,0,0-.13,1.59,4.58,4.58,0,0,0,.12.71,6.34,6.34,0,0,0,.42,1.18c.14.28.29.55.43.77a4,4,0,0,1-.24-.83,2.86,2.86,0,0,1,.65-2.27l6.7-2.33-.43,0a23.83,23.83,0,0,0-4,.65,4.45,4.45,0,0,0-1.53.77,2.73,2.73,0,0,0-.57.59h0a3.85,3.85,0,0,1-.83-2.05,1.82,1.82,0,0,1,.69-1.86l5.56-1.95a20.78,20.78,0,0,0-4.09.68,3,3,0,0,0-.36.13h0l-.09,0a2.09,2.09,0,0,0-.89.83s-.62-.16-.67-1.44a2.86,2.86,0,0,1,.7-1.88l2.4-.84v-1.3l-.67.07-.07,0h0a.19.19,0,0,0-.1.13h0a.15.15,0,0,1-.16.14h0l-1.32.09c-.06,0-.09-.08,0-.11l1.15-.4c.08,0,.13-.06.14-.12s0-.13.19-.16l1.19-.41h0V69l2.09-.73a3.32,3.32,0,0,0-.24,1.41,3.23,3.23,0,0,0,.84,1.9h0a.11.11,0,0,0,0,0,5.65,5.65,0,0,0-.05.87,3.44,3.44,0,0,0,0,.42,2.17,2.17,0,0,0,0,.25,5.56,5.56,0,0,0,.66,1.55c.14.24.28.43.37.56l.1.13h0l0,.14,0-.11-.05.17a7.82,7.82,0,0,0-.09,2,4.11,4.11,0,0,0,.12.67,11.37,11.37,0,0,0,1.67,3.3L176.83,71l-.7.08a.18.18,0,0,0-.17.15s0,0,0,0a.15.15,0,0,1-.1.12h-.09l-1.3.09c-.06,0-.09-.08,0-.11l1.15-.39,0,0h0a.11.11,0,0,0,.05-.09.15.15,0,0,1,0-.08.1.1,0,0,1,.05,0h0l.07,0h0l1.2-.42h0l0,4.45,4.39-1.52-.08.5a.06.06,0,0,1,0,0,12.61,12.61,0,0,0-.14,3.19,7.54,7.54,0,0,0,1.08,3l.09.13h0l0,0-5.3,1.83v.57c2.75-.27,4.64-.66,4.64-.66s0,.86-1.24,2a1.15,1.15,0,0,0,.12,1.63h9.12ZM161.71,72.55l1.3-.09h0a.18.18,0,0,0,.17-.14s0,0,0,0a.18.18,0,0,1,.17-.15l.68-.07v1.72l-2.16.74a3,3,0,0,0-.74,1.91c-.07,1.27.57,1.66.57,1.66h0v0a2.35,2.35,0,0,1,1.13-.83l.16,0a15.69,15.69,0,0,1,4.1-.71,5.14,5.14,0,0,1-.45-.59,4.73,4.73,0,0,1-.6-1.42v0a3.34,3.34,0,0,1,0-.89,3.23,3.23,0,0,1,.12-.51.16.16,0,0,0,0,0h0l-1.79.61,0-2.35h0l-1.17.41h0c-.13,0-.18.13-.18.16s0,.09-.1.11h0l-1.15.41c-.08,0,0,.1,0,.1m-4,8.26c.84.09,1.59.22,2,.29l.28.06a9.22,9.22,0,0,1,.9-5.81,5.38,5.38,0,0,1,.32-.53h0a10.34,10.34,0,0,0-2.52,2,12.34,12.34,0,0,0-2.72,4,9.32,9.32,0,0,1,1.79,0m23.86-7.62s0,.16-.08.46c0-.29.08-.46.08-.46"/>
  <path class="cls-1" d="M181.52,108.56a26,26,0,0,0,10.73-17.22,76.54,76.54,0,0,0,.07-19.77,25.78,25.78,0,0,1-10.8,37M145,85.27a25.66,25.66,0,0,1,4.18-14.08,76.61,76.61,0,0,0,0,20.1,27.13,27.13,0,0,0,11,17.48A25.78,25.78,0,0,1,145,85.27m25.61-25.73A25.4,25.4,0,0,1,185.07,64a129.38,129.38,0,0,0-14.28-.8h-.26a125.92,125.92,0,0,0-14.32.81,25.39,25.39,0,0,1,14.44-4.49m.09,52C156,106.73,151.67,97,150.91,91.42a77,77,0,0,1,.71-23.08,8,8,0,0,1,.42-1.69,100.7,100.7,0,0,1,18.7-1.56,99,99,0,0,1,18.7,1.59,7,7,0,0,1,.42,1.64,76.78,76.78,0,0,1,.71,23.1c-.76,5.57-5.07,15.31-19.83,20.14m27-26.29a27.17,27.17,0,0,0-5.93-17c-.37-2.14-.67-3.38-.67-3.38s-1.12-.22-3.11-.5a27,27,0,0,0-34.87,0c-1.85.27-2.87.48-2.87.48S150,66,149.71,68a27.26,27.26,0,0,0,16.42,44.16,37.56,37.56,0,0,0,4.61,1.68,44.28,44.28,0,0,0,4.55-1.69,27.27,27.27,0,0,0,22.49-26.85"/>
  <path class="cls-1" d="M166,105.82a.73.73,0,0,1-.56-.08h0l0,0a.66.66,0,0,1-.23-.5v-1.27l-13.5-16.38c.08,1.28.21,2.59.39,3.91.7,5.2,4.7,14.24,18.35,18.82l-3.8-4.61Z"/>
  <path class="cls-1" d="M176.93,102.6a1.23,1.23,0,0,0,0,.16,1.88,1.88,0,0,1-.75,1,.67.67,0,0,1,0,.24l0,1.24a.66.66,0,0,1-.24.49h0l0,0a.67.67,0,0,1-.39.12l-.2,0-1.18-.37a.71.71,0,0,1-.22-.13,1.86,1.86,0,0,1-1.08.42l2.36,2.86a31.2,31.2,0,0,0,4.61-2.64l-2.82-3.42s0,0,0,0"/>
  <path class="cls-1" d="M164,95.1a1.53,1.53,0,0,1,.72-1.16,2.12,2.12,0,0,1,.63-.29l.21-.06h0a3,3,0,0,0,1-.46,3.34,3.34,0,0,0,.81-.85l0,0a3.15,3.15,0,0,1,.3-.39,1.49,1.49,0,0,1,.22-.21l0,0-3.39-4.11h-6.79L164,95.1"/>
  <path class="cls-1" d="M170.42,87.54l4.81,5.84a3.52,3.52,0,0,0,.42.15h0l.47.16a1.43,1.43,0,0,1,.27.15l.14.09a1.79,1.79,0,0,1,.69,1,.75.75,0,0,1,.26,0l1.19.41a.7.7,0,0,1,.4.39l0,0v0a.64.64,0,0,1-.1.57l-.59.83,4.82,5.85a22.69,22.69,0,0,0,3.36-4.19l-9.39-11.35Z"/>
  <path class="cls-1" d="M183.45,87.54,188.81,94a16,16,0,0,0,.56-2.59c.18-1.34.3-2.59.39-3.9Z"/>
  <path class="cls-1" d="M170.63,92.3a1.83,1.83,0,0,1,.73-1.06l-.73-1-.77,1a1.84,1.84,0,0,1,.77,1.06"/>
  <path class="cls-1" d="M164.71,96.64a1.88,1.88,0,0,1-.79-1l-1.17.39.71,1a1.79,1.79,0,0,1,1.25-.4"/>
  <path class="cls-1" d="M167,103.52a2,2,0,0,1-1.22.43v1.22l1.2-.35a1.82,1.82,0,0,1,0-1.3"/>
  <path class="cls-1" d="M174.26,103.52a1.88,1.88,0,0,1,0,1.3l1.17.36,0-1.24a1.84,1.84,0,0,1-1.25-.42"/>
  <path class="cls-1" d="M176.5,96.65a1.84,1.84,0,0,1,1.24.36l.72-1-1.18-.41a1.83,1.83,0,0,1-.78,1.05"/>
  <path class="cls-1" d="M170,98.56a.65.65,0,1,1,.64.65.64.64,0,0,1-.64-.65"/>
  <path class="cls-1" d="M169.13,103.61a1,1,0,0,1-1-1c0-.08-.07-.11-.12-.05a2.23,2.23,0,0,0-.64,1.29,1.24,1.24,0,0,0,1.25,1.25h.13a.82.82,0,0,0,.21,0,5.66,5.66,0,0,1,1.75-.36,3.85,3.85,0,0,1,1.44.3,1.28,1.28,0,0,0,.48.09,1.24,1.24,0,0,0,1.25-1.25,2.18,2.18,0,0,0-.65-1.29s-.09,0-.09.05a1,1,0,0,1-1,1c-.41,0-.94-.35-1.47-.35s-1.13.35-1.55.35"/>
  <path class="cls-1" d="M168.57,102.1a.79.79,0,0,0,.8.79.46.46,0,0,0,.16,0l.06,0h0a2.9,2.9,0,0,1,1-.21,2.93,2.93,0,0,1,1,.2.66.66,0,0,0,.28,0,.79.79,0,0,0,.79-.79.71.71,0,0,0-.07-.32.34.34,0,0,0-.06-.12l-1.38-1.88a.19.19,0,0,0-.22,0,2,2,0,0,1-.33.06.93.93,0,0,1-.34-.06c-.08,0-.15-.06-.21,0s-1,1.38-1.31,1.8a.8.8,0,0,0-.2.52"/>
  <path class="cls-1" d="M175,101.55a1,1,0,0,1-1.26.64c-.07,0-.12,0-.08.09a2.19,2.19,0,0,0,1,1,1.25,1.25,0,0,0,1.58-.8l0-.12a.65.65,0,0,0,0-.21,5.59,5.59,0,0,1,.2-1.77,3.68,3.68,0,0,1,.73-1.26,1.64,1.64,0,0,0,.24-.43,1.25,1.25,0,0,0-.81-1.57,2.22,2.22,0,0,0-1.44.21c-.05,0,0,.08,0,.1a1,1,0,0,1,.64,1.25c-.13.4-.63.79-.79,1.29s0,1.18-.14,1.57"/>
  <path class="cls-1" d="M173.39,101.61a.8.8,0,0,0,1-.51.53.53,0,0,0,0-.16v-.09a2.81,2.81,0,0,1,.1-1A3.31,3.31,0,0,1,175,99a.58.58,0,0,0,.14-.24.8.8,0,0,0-.51-1,.93.93,0,0,0-.33,0,.61.61,0,0,0-.13,0l-2.23.72c-.1,0-.09.14-.09.2a1.74,1.74,0,0,1,0,.34.75.75,0,0,1-.16.29c-.06.07-.11.13,0,.21s1,1.39,1.32,1.81a.89.89,0,0,0,.44.34"/>
  <path class="cls-1" d="M174.82,95.36a1,1,0,0,1,.22,1.39c0,.06,0,.12.06.1a2.17,2.17,0,0,0,1.29-.67,1.23,1.23,0,0,0-.28-1.74l-.11-.07a.61.61,0,0,0-.18-.1,5.83,5.83,0,0,1-1.63-.74,3.87,3.87,0,0,1-1-1.08,1.32,1.32,0,0,0-.32-.35,1.26,1.26,0,0,0-1.76.27,2.23,2.23,0,0,0-.24,1.43c0,.06.07.06.1,0a1,1,0,0,1,1.4-.22c.34.24.55.84,1,1.14s1.12.38,1.46.62"/>
  <path class="cls-1" d="M174.41,96.88a.78.78,0,0,0-.18-1.1.32.32,0,0,0-.13-.08l-.06,0h0a2.79,2.79,0,0,1-.95-.41,3.08,3.08,0,0,1-.68-.75.89.89,0,0,0-.19-.2.79.79,0,0,0-1.11.17.79.79,0,0,0-.14.31.5.5,0,0,0,0,.12s0,2.27,0,2.34.1.13.16.15a1.19,1.19,0,0,1,.3.15.91.91,0,0,1,.24.24c.05.08.09.14.19.1s1.63-.52,2.13-.69a.8.8,0,0,0,.46-.31"/>
  <path class="cls-1" d="M168.86,93.61a1,1,0,0,1,1.39.22c0,.06.12,0,.12,0a2.22,2.22,0,0,0-.24-1.43,1.25,1.25,0,0,0-1.75-.28l-.11.08a1.05,1.05,0,0,0-.15.15,6.13,6.13,0,0,1-1.2,1.32,4,4,0,0,1-1.34.59,1.17,1.17,0,0,0-.44.2,1.24,1.24,0,0,0-.28,1.75,2.23,2.23,0,0,0,1.29.67s.08,0,0-.09a1,1,0,0,1,.22-1.39c.34-.25,1-.27,1.4-.58s.71-.94,1.05-1.19"/>
  <path class="cls-1" d="M170.19,94.5a.8.8,0,0,0-1.11-.18l-.12.1,0,.06s0,0,0,0a2.71,2.71,0,0,1-.69.77,3,3,0,0,1-.92.41.88.88,0,0,0-.26.12.8.8,0,0,0-.17,1.11,1,1,0,0,0,.24.22l.12.05,2.24.72c.1,0,.15-.05.19-.1a1.64,1.64,0,0,1,.23-.25,1.06,1.06,0,0,1,.31-.14c.09,0,.16,0,.15-.15s0-1.71,0-2.23a.73.73,0,0,0-.15-.53"/>
  <path class="cls-1" d="M165.35,98.73a1,1,0,0,1,.64-1.25c.07,0,.08-.1,0-.12a2.22,2.22,0,0,0-1.44-.21,1.23,1.23,0,0,0-.8,1.57l0,.12a1.07,1.07,0,0,0,.09.19,5.61,5.61,0,0,1,.89,1.55,3.92,3.92,0,0,1,.16,1.45,1.13,1.13,0,0,0,.05.48,1.26,1.26,0,0,0,1.59.81,2.25,2.25,0,0,0,1-1s0-.09-.07-.07a1,1,0,0,1-1.26-.64c-.13-.4,0-1-.12-1.5s-.68-1-.81-1.36"/>
  <path class="cls-1" d="M166.61,97.74a.81.81,0,0,0-.51,1,.53.53,0,0,0,.06.14.21.21,0,0,1,0,.06s0,0,0,0a2.93,2.93,0,0,1,.52.89,3.06,3.06,0,0,1,.11,1,.69.69,0,0,0,0,.28.82.82,0,0,0,1,.51.88.88,0,0,0,.28-.17.38.38,0,0,0,.09-.09s1.34-1.84,1.37-1.9,0-.16,0-.21a1.19,1.19,0,0,1-.16-.3,1,1,0,0,1-.05-.33c0-.09,0-.17-.09-.2s-1.63-.53-2.13-.68a.83.83,0,0,0-.56,0"/>
</svg>
