<svg width="251" height="60" viewBox="0 0 251 60" fill="none" xmlns="http://www.w3.org/2000/svg">
<path fill-rule="evenodd" clip-rule="evenodd" d="M149.999 46.923C138.278 55.4751 121.336 60 106.684 60C86.2175 60 67.7652 52.5339 53.8001 40.0452C52.7012 39.0497 53.6627 37.7375 54.9905 38.5067C70.0546 47.1493 88.6901 52.3982 107.921 52.3982C120.879 52.3982 135.164 49.7285 148.305 44.2533C150.274 43.3936 151.968 45.5203 149.999 46.923Z" fill="black" fill-opacity="0.5"/>
<path fill-rule="evenodd" clip-rule="evenodd" d="M154.899 41.4479C153.388 39.5475 145.009 40.5429 141.208 40.9954C140.064 41.1312 139.881 40.1357 140.934 39.4117C147.619 34.7511 158.608 36.1085 159.89 37.647C161.172 39.2307 159.569 50.0905 153.251 55.2941C152.289 56.1086 151.373 55.6561 151.785 54.6154C153.205 51.1312 156.41 43.3484 154.899 41.4479Z" fill="black" fill-opacity="0.5"/>
<path fill-rule="evenodd" clip-rule="evenodd" d="M141.483 6.56079V2.03589C141.483 1.35715 142.032 0.904663 142.627 0.904663H163.14C163.781 0.904663 164.331 1.35715 164.331 2.03589V5.9273C164.331 6.56079 163.781 7.42052 162.774 8.77799L152.151 23.7554C156.089 23.6649 160.256 24.2532 163.827 26.2441C164.651 26.6966 164.834 27.3753 164.926 28.0088V32.8505C164.926 33.5292 164.193 34.2984 163.415 33.8912C157.096 30.6333 148.717 30.2713 141.757 33.9365C141.025 34.2984 140.292 33.5292 140.292 32.8957V28.2351C140.292 27.5111 140.292 26.2441 141.071 25.1129L153.387 7.69202H142.673C142.032 7.69202 141.483 7.23953 141.483 6.56079Z" fill="black" fill-opacity="0.5"/>
<path fill-rule="evenodd" clip-rule="evenodd" d="M66.7123 34.7962H60.4853C59.89 34.7509 59.4321 34.2984 59.3864 33.7554V2.12637C59.3864 1.49288 59.9358 0.995142 60.5768 0.995142H66.3918C66.9871 1.04039 67.4907 1.49288 67.5365 2.03587V6.15353H67.6739C69.1848 2.17162 72.0237 0.316406 75.8698 0.316406C79.7617 0.316406 82.2343 2.17162 83.9742 6.15353C85.4852 2.17162 88.9192 0.316406 92.5822 0.316406C95.1921 0.316406 98.0767 1.35713 99.8166 3.75533C101.785 6.42503 101.373 10.2712 101.373 13.6649V33.6197C101.373 34.2532 100.824 34.7509 100.183 34.7509H93.9558C93.3148 34.7057 92.8569 34.2079 92.8569 33.6197V16.8776C92.8569 15.5653 92.9943 12.2169 92.6738 10.9499C92.2159 8.82323 90.7965 8.23499 89.0108 8.23499C87.4998 8.23499 85.943 9.23047 85.302 10.8142C84.661 12.3979 84.7068 15.0676 84.7068 16.8776V33.6649C84.7068 34.2984 84.1573 34.7962 83.5163 34.7962H77.1976C76.5566 34.7509 76.0987 34.2532 76.0987 33.6649V16.8776C76.0987 13.3481 76.694 8.14449 72.2526 8.14449C67.7654 8.14449 67.9486 13.2124 67.9486 16.8776V33.6649C67.9028 34.2984 67.3534 34.7962 66.7123 34.7962Z" fill="black" fill-opacity="0.5"/>
<path fill-rule="evenodd" clip-rule="evenodd" d="M181.959 0.316406C191.208 0.316406 196.244 8.14449 196.244 18.1445C196.244 27.7826 190.704 35.4749 181.959 35.4749C172.893 35.4749 167.948 27.6016 167.948 17.8278C167.948 7.96349 172.939 0.316406 181.959 0.316406ZM182.05 6.74177C177.472 6.74177 177.151 12.9409 177.151 16.7871C177.151 20.6332 177.105 28.9138 182.004 28.9138C186.858 28.9138 187.087 22.2622 187.087 18.1898C187.087 15.5201 186.949 12.3527 186.171 9.8187C185.393 7.64675 184.019 6.74177 182.05 6.74177Z" fill="black" fill-opacity="0.5"/>
<path fill-rule="evenodd" clip-rule="evenodd" d="M208.241 34.7962H202.014C201.373 34.7509 200.915 34.2532 200.915 33.6649V1.99062C200.961 1.40238 201.51 0.949893 202.105 0.949893H207.875C208.424 0.995142 208.882 1.35713 208.974 1.85487V6.69652H209.111C210.851 2.35261 213.323 0.316406 217.627 0.316406C220.42 0.316406 223.168 1.31188 224.908 4.02683C226.556 6.56077 226.556 10.8142 226.556 13.8911V33.8007C226.464 34.3437 225.961 34.7962 225.365 34.7962H219.093C218.497 34.7509 218.039 34.3437 217.994 33.8007V16.6061C217.994 13.1671 218.406 8.09924 214.102 8.09924C212.591 8.09924 211.171 9.09472 210.485 10.6332C209.615 12.5789 209.477 14.4794 209.477 16.6061V33.6197C209.431 34.2984 208.882 34.7962 208.241 34.7962Z" fill="black" fill-opacity="0.5"/>
<path fill-rule="evenodd" clip-rule="evenodd" d="M125.137 19.6833C125.137 22.0815 125.183 24.0725 123.946 26.2444C122.939 27.9639 121.382 29.0499 119.642 29.0499C117.261 29.0499 115.842 27.2399 115.842 24.5702C115.842 19.3213 120.604 18.3711 125.137 18.3711V19.6833ZM131.41 34.706C130.998 35.068 130.402 35.1133 129.944 34.8418C127.884 33.1223 127.518 32.3531 126.373 30.7241C122.939 34.163 120.512 35.2038 116.071 35.2038C110.805 35.2038 106.73 31.9911 106.73 25.611C106.73 20.5883 109.477 17.1946 113.369 15.5204C116.758 14.0724 121.474 13.801 125.091 13.3937V12.5792C125.091 11.086 125.228 9.36655 124.313 8.09958C123.58 6.96835 122.115 6.51586 120.833 6.51586C118.452 6.51586 116.346 7.73759 115.842 10.2263C115.75 10.7693 115.338 11.3123 114.743 11.3575L108.699 10.724C108.195 10.5883 107.6 10.2263 107.783 9.45705C109.157 2.2172 115.796 0 121.748 0C124.77 0 128.754 0.814483 131.135 3.07693C134.157 5.88237 133.882 9.63805 133.882 13.6652V23.258C133.882 26.1539 135.073 27.4209 136.217 28.9594C136.629 29.5024 136.721 30.1811 136.217 30.5883C134.935 31.6743 132.692 33.62 131.41 34.706Z" fill="black" fill-opacity="0.5"/>
<path fill-rule="evenodd" clip-rule="evenodd" d="M43.3607 19.6833C43.3607 22.0815 43.4065 24.0725 42.1703 26.2444C41.1629 27.9639 39.6062 29.0499 37.8662 29.0499C35.4853 29.0499 34.0659 27.2399 34.0659 24.5702C34.0659 19.3213 38.8278 18.3711 43.3607 18.3711V19.6833ZM49.6794 34.706C49.2673 35.068 48.6721 35.1132 48.2142 34.8418C46.1538 33.1223 45.7875 32.3531 44.6428 30.7241C41.2087 34.163 38.782 35.2037 34.3864 35.2037C29.0751 35.249 25 32.0363 25 25.611C25 20.6336 27.7472 17.1946 31.6392 15.5204C35.0274 14.0724 39.7435 13.801 43.3607 13.3937V12.5792C43.3607 11.086 43.4981 9.36655 42.5823 8.09958C41.8497 6.96835 40.3846 6.51586 39.1025 6.51586C36.7216 6.51586 34.6153 7.73758 34.1117 10.2263C34.0201 10.7693 33.608 11.3123 33.0128 11.3575L26.9689 10.724C26.4652 10.5883 25.87 10.2263 26.0531 9.45705C27.4267 2.17195 34.0659 0 39.9725 0C43.0402 0 46.9779 0.814483 49.4047 3.07693C52.4266 5.88237 52.1519 9.63804 52.1519 13.6652V23.258C52.1519 26.1539 53.3424 27.4209 54.4871 28.9594C54.8991 29.5024 54.9907 30.1811 54.4871 30.5883C53.205 31.6743 50.9156 33.62 49.6794 34.706Z" fill="black" fill-opacity="0.5"/>
</svg>
