<?xml version="1.0" encoding="utf-8"?>
<!-- Generator: Adobe Illustrator 19.2.1, SVG Export Plug-In . SVG Version: 6.00 Build 0)  -->
<svg version="1.1" id="Layer_1" xmlns="http://www.w3.org/2000/svg" xmlns:xlink="http://www.w3.org/1999/xlink" x="0px" y="0px"
	 viewBox="0 0 340 170" style="enable-background:new 0 0 340 170;" xml:space="preserve">
<style type="text/css">
	.st0{fill:#110D47;}
</style>
<g>
	<path class="st0" d="M150,105.4c-6.4-4.1-15.1-4.9-29-1c-14.9,3.5-19.9,5.8-26.4,1.2c-2.5-2.2-3.4-5.8-2.7-10.9
		c1.6-8.4,5.8-16.5,13.2-25.4c4.2-4.7,8-8.7,13.1-10.3c3.9-1,3.5,2.1,3.1,2.5c-0.5,0-1.3,0.1-2,0.5c-0.5,0.4-2,1.7-2.1,3.5
		c-0.1,2.7,2.7,2.2,3.9,0.7c1.3-1.7,3.2-4.9,1.7-7.9c-0.6-1.1-1.7-1.8-3.1-2.1c-4.7-0.3-9,2-13.1,4.4C98,66.8,90.9,75.3,87,84.6
		c-2.3,5.6-4.4,13.6-1.3,20.2c2.4,4.5,7.4,6.9,13.4,6.4c4.2-0.4,9.2-1.8,12.6-2.6c3.4-0.8,20.8-6.8,26.5,3.6c0,0,1.9-3.7,6.7-3.8
		c3.9-0.4,9.5,1.1,13.6,4.2C157.1,110.6,153.3,107.5,150,105.4"/>
	<path class="st0" d="M122.8,70.4c-3.3-2.1-9.8,2-15,9c-4.8,6.3-6.9,13.6-4.6,17c3.3,4,9.6-1.8,12.2-4.9l0.3-0.4
		c1.8-1.9,3.2-4.3,4.5-6.5c0,0,1.2-2,1.3-2.1c0.8-0.1,1.7-0.4,2.7-0.7c0,0-4,6.7-3.6,10c0.1,1,0,4.7,3.6,5.8c4.8,0.8,8.6-2.9,12-6.2
		c0,0,0.6-0.6,0.9-0.9c-0.1,0.3-0.2,0.8-0.2,0.8c-1.4,4.9,0.5,5.9,1.7,6.3c3.6,1,7.8-4.2,7.8-4.2c-0.1,1.6-0.4,3,1.3,4.1
		c1.6,0.6,3.3-0.3,4.5-1.1c4.5-3.2,8.1-8.2,11-12.5h-1.9c0,0-4.6,6.7-7.6,8.1c0,0-0.5,0.3-0.9,0.1c-0.4-0.3-0.2-1,0-1.5
		c0,0,11.5-20,11.5-20h-5.4c0,0-0.6,1-0.6,1c0,0-0.1-0.2-0.2-0.3c-3.4-4.7-11,2.5-16.7,10.8c-2.2,3.2-5,6.8-7.9,9.4
		c0,0-4.3,4-6.2,1.1c-0.7-1.2-0.5-2.9-0.1-4.1c2.1-6.1,5.8-11.7,10-15c1.2-0.9,2.5-1.2,3.1-0.8c0.6,0.4,0.7,1.3,0.3,1.9
		c-1,0-1.8,0.3-2.4,0.9c-1.3,1.3-1.7,2.6-1.3,3.8c1.9,2.8,5.8-2.7,5.6-6c-0.1-1.2-0.7-2.3-1.7-2.9c-1.4-0.9-3.6-0.6-5,0
		c-1.9,0.7-4.8,3.2-6.6,5.1c-2.2,2.4-5.9,5.1-7.1,4.8C122.9,79.3,126.1,72.8,122.8,70.4 M148.9,80c1.1-1.5,4.1-5.4,4.9-6
		c2.5-2.2,3.5-1.2,3.6-0.6c-2.3,4.2-5.1,9.1-7.7,13.4c0,0-0.8,1.2-0.8,1.2c-1.2,1.8-2.3,3.3-4.2,4.3c-0.3,0.1-0.7,0.1-1-0.1
		c-0.4-0.2-0.5-0.6-0.5-1C143.3,89.8,144.7,85.7,148.9,80z M119.4,82.5c0,0,0,0.1-0.1,0.2c0,0-2.4,3.9-2.4,3.9
		c-1.4,1.9-3.2,4.3-5.4,5.5c-0.7,0.2-1.6,0.4-2-0.2c-1-1.2-0.5-2.8-0.1-4.1l0.1-0.5c1.2-3.2,3.1-6,4.9-8.7c0,0,0.1,0,0.1,0
		c0,0,0,0,0,0c1.1,2.2,3.3,3.2,4.9,3.7c0,0,0,0,0,0C119.5,82.3,119.5,82.4,119.4,82.5z M121.6,77.9c0,0-1.1,2.4-1.1,2.4
		c-0.2,0.1-0.4,0.1-0.7,0l-0.5-0.1c-1.5-0.5-2.6-1.4-2.9-2.6c-0.5-2.3,1.5-4,2.3-4.7c0.8-0.6,2.1-0.9,2.8-0.3c0.5,0.5,0.6,1.2,0.6,2
		C122.3,75.7,122,76.9,121.6,77.9z"/>
	<path class="st0" d="M190.2,85.3c-0.5-1.1-1.8-1.9-3.1-1.8c-4.3,0.4-8.5,3.9-10.7,9c-1.2,2.6-1.8,4.8-2.2,8.2
		c1.3-1.5,4.1-4.1,7.2-5.5c0,0,0.4-3.3,2.6-6.2c0.8-1.2,2.4-3.2,4.3-2.6c1.6,0.5,1,5-1.1,9.2c-1.6,3.1-4,6.3-6.4,8.5
		c-2.1,1.8-5.3,4-8.1,2.3c-1.7-1-2.6-3.2-2.5-6c0.8-8,4.4-14.7,9.6-22.5c5.3-7.2,11.2-14.5,19.1-18.4c1.6-0.8,3.1-1,4.4-0.5
		c0,0-7.4,4.1-11,11.7c-0.9,1.9-2.2,4.5-0.9,6.8c0.7,1.2,1.8,1.3,2.8,1.2c4.3-1,7.1-5.1,9.4-8.8c1.3-2.8,2.5-5.6,2.5-8.7
		c0-0.4,0-0.9-0.1-1.3c2.1-1.1,6.3,0.9,6.3,0.9c3.3,1.1,10.4,6.5,12.8,7.6c1.2-1.4,3.1-3.4,4.2-4.4l-1.6-1c-2.5-1.5-5.1-3-7.7-4.4
		c-5.9-3.2-10.7-2.1-13.1-1.2c-1,0.3-1.8,0.6-1.8,0.6c-1.8-2-4.8-1.8-7-1.3c-7.9,2.3-15.2,7.8-23,17.4c-5.8,7.5-9.3,14-11.2,20.4
		c-1.5,4.3-1.9,10.7,1.7,14.4c3,3.2,7.1,2.5,9.9,1.4c6.2-3.1,11.7-9.6,14.5-17.2C190.6,90.9,191.3,87.7,190.2,85.3 M204.4,61.5
		c-0.8,9.4-8.1,15-9.9,15.4c-1.1,0.2-3-0.3-1.3-4.2c2.5-5.3,6.6-9.8,11.1-12.2C204.4,60.9,204.4,61.2,204.4,61.5z"/>
	<path class="st0" d="M247.7,62.7c-3.9,2.2-8,3.7-12.9,3.2c-1.4,1.5-2.7,3.1-3.9,4.8c6.9,1.8,14.2-2.2,18.3-5.9
		c4.3-3.8,6.5-8.5,6.5-8.5S252.5,60,247.7,62.7"/>
	<path class="st0" d="M173.5,70.6h-5.1l-2.9,4.7h5.1L173.5,70.6"/>
	<path class="st0" d="M234.8,105.9c-0.6,0.4-1.3,0.1-1-0.8c0.7-2.2,3.6-6.7,3.6-6.7l8-14.3h-5.5c-0.3,0.4-0.8,1.4-0.8,1.4
		c-0.3-0.4-1-1.4-1.3-1.6c-1.3-0.9-3.3-0.4-4.7,0.3c-5.9,3.5-10.2,10.3-13.6,15.7c0,0-3.6,5.9-5.6,6.4c-1.6,0.1-1.4-2-1.3-2.5
		c0.6-3.5,2-6.9,3.4-9.9c2.9-2,6.1-4.6,9.1-7.4c6.4-6.2,11.8-13.1,12.6-14.7c0,0-0.9,0.2-1.9,0.2c-4.9,6.9-15.1,17-18.1,18.5
		c1.4-3.3,10.1-18.9,17.6-26.4l1.2-1.1c1.8-1.8,3.7-3.6,5.2-3.9c0.2,0,0.4,0,0.5,0.4c0.1,1.4-0.4,2.4-1,3.6l-0.8,1.7
		c0,0,1.2-0.2,1.9-0.5c0.9-1.7,1.9-3.6,1.5-5.8c-0.1-0.7-0.6-1.3-1.3-1.4c-2.2-0.4-4.7,1.2-6.6,2.6l-0.1,0
		c-10,7.9-18.5,19.3-25.9,34.8c-0.5,0.4-2.6,0.9-3,0.7c0.7-1.5,1.7-3.5,2.1-5.7c0.1-0.6,0.2-1.3,0.2-1.9c0-1.4-0.3-2.6-1.5-3.5
		c-1.4-0.7-3.2-0.4-4.4,0.2c-5.3,2.2-9.3,7.7-12.1,12.1c-1.5,2.9-3.1,5.9-3.5,9.4c-0.3,2.7,0.3,4.5,1.9,5.4c1.6,0.8,3.6,0,4.4-0.4
		c5.4-2.8,9.1-8.5,12.1-13.7c0.1,0,1.7-0.1,3-0.4c0,0,0,0,0.1,0c-0.1,0.2-0.7,2.1-0.7,2.1c-1.9,5.5-2.7,9.3-1,11.5
		c2.5,3.1,6.7-0.1,10.1-4.4c-0.7,5.1,1.9,5.9,3.9,5.5c2.3-0.6,4.9-3.1,6.1-4.4c-0.4,1.5-0.3,4.2,1.8,4.4c1.4,0.3,2.5-0.5,3.8-1.2
		c4.5-2.5,9.9-10.6,11.3-13h-1.8C240.5,100.1,237.9,104,234.8,105.9 M194.4,105.3c-0.3-0.4-0.4-0.9-0.4-1.4
		c-0.1-3.1,3.3-8.6,5.6-11.6c0,0,0,0,0,0c1,2.2,3.2,3.5,4.5,4.1C202.5,100.1,196.8,108.1,194.4,105.3z M205.1,94.8
		c-0.2,0.1-3-0.8-3.5-3.4c-0.5-2.2,1.1-4,2.6-4.9c0.6-0.5,1.6-0.7,2.3-0.4c0.7,0.4,0.8,1.2,0.8,2.1c0,0.5-0.1,1.1-0.1,1.5
		c0,0,0,0.1,0,0.1C206.7,91.5,205.9,93.2,205.1,94.8z M227.5,104.3c0,0-0.5,0.5-0.5,0.5c-0.8,0.7-1.5,1.4-2.5,1
		c-0.3-0.1-0.4-0.4-0.5-0.7c0-1.9,0.8-3.7,1.7-5.5l0.2-0.5c2.4-4.1,5.2-8.9,9.4-12.2c0.7-0.5,1.5-0.9,2.3-0.6
		c0.2,0.2,0.4,0.5,0.4,0.8c0,0.1-0.1,0.3-0.1,0.4c-1.2,1.9-2.3,3.8-3.3,5.7C232.4,97.1,230.2,100.9,227.5,104.3z"/>
</g>
</svg>
