<svg width="62" height="62" xmlns="http://www.w3.org/2000/svg" fill="none" viewBox="0 0 62 62">
  <style type="text/css">
	.icon-web{fill: #110d47;}
</style>
  <defs/>
  <path fill-rule="evenodd" d="M33.5 31l-5 15 5-15z" class="icon-web" clip-rule="evenodd"/>
  <path  fill-rule="evenodd" d="M59.93 1H2.07C1.47 1 1 1.48 1 2.07v57.86c0 .6.48 1.07 1.07 1.07h57.86c.6 0 1.07-.48 1.07-1.07V2.07C61 1.48 60.52 1 59.93 1zM3.14 58.86h55.72V3.14H3.14v55.72zM2.07 17.07h57.86H2.07z" class="icon-web" clip-rule="evenodd"/>
  <path fill-rule="evenodd" d="M12.25 9.57a2.14 2.14 0 11-4.29 0 2.14 2.14 0 014.29 0zM18.68 9.57a2.14 2.14 0 11-4.29 0 2.14 2.14 0 014.29 0zM25.1 9.57a2.14 2.14 0 11-4.28 0 2.14 2.14 0 014.29 0z" class="icon-web" clip-rule="evenodd"/>
  <path  fill-rule="evenodd" d="M.5 2.07C.5 1.2 1.2.5 2.07.5h57.86c.87 0 1.57.7 1.57 1.57v57.86c0 .87-.7 1.57-1.57 1.57H2.07C1.2 61.5.5 60.8.5 59.93V2.07zm1.57-.57a.57.57 0 00-.57.57v57.86c0 .31.26.57.57.57h57.86c.31 0 .57-.26.57-.57V2.07a.57.57 0 00-.57-.57H2.07zm.57 1.14h56.72v13.93h.57a.5.5 0 010 1h-.57v41.79H2.64V17.57h-.57a.5.5 0 110-1h.57V2.64zm1 14.93v40.79h54.72V17.57H3.64zm54.72-1H3.64V3.64h54.72v12.93zM10.1 7.93a1.64 1.64 0 100 3.29 1.64 1.64 0 000-3.3zM7.46 9.57a2.64 2.64 0 115.3 0 2.64 2.64 0 01-5.3 0zm9.08-1.64a1.64 1.64 0 100 3.29 1.64 1.64 0 000-3.3zm-2.65 1.64a2.64 2.64 0 115.29 0 2.64 2.64 0 01-5.29 0zm9.07-1.64a1.64 1.64 0 100 3.29 1.64 1.64 0 000-3.3zm-2.64 1.64a2.64 2.64 0 115.29 0 2.64 2.64 0 01-5.29 0zm13.34 20.96c.26.08.4.37.31.63l-5 15a.5.5 0 11-.94-.32l5-15a.5.5 0 01.63-.31z" class="icon-web" clip-rule="evenodd"/>
  <path fill-rule="evenodd" d="M.57 17.07c0-.83.67-1.5 1.5-1.5h57.86a1.5 1.5 0 010 3H2.07a1.5 1.5 0 01-1.5-1.5zM37.28 31.38a1.5 1.5 0 012.1-.35l8.74 6.25a1.5 1.5 0 010 2.44l-8.75 6.25a1.5 1.5 0 11-1.74-2.44l7.04-5.03-7.04-5.03a1.5 1.5 0 01-.35-2.1zM24.72 31.38a1.5 1.5 0 01-.35 2.1l-7.04 5.02 7.04 5.03a1.5 1.5 0 11-1.74 2.44l-8.75-6.25a1.5 1.5 0 010-2.44l8.75-6.25a1.5 1.5 0 012.1.35zM33.97 29.58a1.5 1.5 0 01.95 1.9l-5 15a1.5 1.5 0 11-2.84-.95l5-15a1.5 1.5 0 011.9-.95z" class="icon-web" clip-rule="evenodd"/>
</svg>
