<svg width="57" height="61" viewBox="0 0 57 61" fill="none" xmlns="http://www.w3.org/2000/svg">
<style type="text/css">
	.icon-ux-path{fill:#110d47;}
</style>
<path class="icon-ux-path" fill-rule="evenodd" clip-rule="evenodd" d="M41.9997 52.2162H14.7565C14.2184 52.2162 13.7835 52.6511 13.7835 53.1892V59.027C13.7835 59.5651 14.2184 60 14.7565 60H41.9997C42.5378 60 42.9727 59.5651 42.9727 59.027V53.1892C42.9727 52.6511 42.5378 52.2162 41.9997 52.2162ZM15.7294 58.0541H41.0267V54.1622H15.7294V58.0541Z" />
<path class="icon-ux-path" fill-rule="evenodd" clip-rule="evenodd" d="M14.7565 52.0162H41.9997C42.6482 52.0162 43.1727 52.5407 43.1727 53.1892V59.027C43.1727 59.6755 42.6482 60.2 41.9997 60.2H14.7565C14.108 60.2 13.5835 59.6755 13.5835 59.027V53.1892C13.5835 52.5407 14.108 52.0162 14.7565 52.0162ZM41.0267 58.0541H15.7294V54.1622H41.0267V58.0541ZM40.8267 54.3622H15.9294V57.8541H40.8267V54.3622ZM14.7565 52.2162H41.9997C42.5378 52.2162 42.9727 52.6511 42.9727 53.1892V59.027C42.9727 59.5651 42.5378 60 41.9997 60H14.7565C14.2184 60 13.7835 59.5651 13.7835 59.027V53.1892C13.7835 52.6511 14.2184 52.2162 14.7565 52.2162Z" />
<path class="icon-ux-path" fill-rule="evenodd" clip-rule="evenodd" d="M28.3782 30.3243C26.2289 30.3243 24.4863 32.0669 24.4863 34.2162C24.4863 36.3655 26.2289 38.1081 28.3782 38.1081C30.5275 38.1081 32.2701 36.3655 32.2701 34.2162C32.2701 32.0669 30.5275 30.3243 28.3782 30.3243ZM28.3782 32.2703C29.4514 32.2703 30.3242 33.143 30.3242 34.2162C30.3242 35.2894 29.4514 36.1622 28.3782 36.1622C27.305 36.1622 26.4323 35.2894 26.4323 34.2162C26.4323 33.143 27.305 32.2703 28.3782 32.2703Z" />
<path class="icon-ux-path" fill-rule="evenodd" clip-rule="evenodd" d="M27.5794 10.082C28.2804 9.6406 29.2066 9.85108 29.648 10.5521L46.1885 36.8224C46.4602 37.2539 46.4941 37.7939 46.2784 38.2559L39.4676 52.8505C39.1173 53.6012 38.2247 53.9258 37.474 53.5755C36.7233 53.2252 36.3987 52.3326 36.7491 51.5819L43.2139 37.7286L27.1093 12.1506C26.6679 11.4495 26.8784 10.5234 27.5794 10.082Z" />
<path class="icon-ux-path" fill-rule="evenodd" clip-rule="evenodd" d="M29.1777 10.082C29.8787 10.5234 30.0892 11.4495 29.6478 12.1506L13.5431 37.7286L20.008 51.5819C20.3583 52.3326 20.0337 53.2252 19.283 53.5755C18.5323 53.9258 17.6398 53.6012 17.2894 52.8505L10.4786 38.2559C10.263 37.7939 10.2969 37.2539 10.5685 36.8224L27.1091 10.5521C27.5505 9.85108 28.4766 9.6406 29.1777 10.082Z" />
<path class="icon-ux-path" fill-rule="evenodd" clip-rule="evenodd" d="M28.3782 11.3243C28.9305 11.3243 29.3782 11.772 29.3782 12.3243V30.8108C29.3782 31.3631 28.9305 31.8108 28.3782 31.8108C27.8259 31.8108 27.3782 31.3631 27.3782 30.8108V12.3243C27.3782 11.772 27.8259 11.3243 28.3782 11.3243Z" />
<path class="icon-ux-path" fill-rule="evenodd" clip-rule="evenodd" d="M28.3782 11.1243C29.041 11.1243 29.5782 11.6616 29.5782 12.3243V30.8108C29.5782 31.4736 29.041 32.0108 28.3782 32.0108C27.7155 32.0108 27.1782 31.4736 27.1782 30.8108V12.3243C27.1782 11.6616 27.7155 11.1243 28.3782 11.1243ZM29.3782 12.3243C29.3782 11.772 28.9305 11.3243 28.3782 11.3243C27.8259 11.3243 27.3782 11.772 27.3782 12.3243V30.8108C27.3782 31.3631 27.8259 31.8108 28.3782 31.8108C28.9305 31.8108 29.3782 31.3631 29.3782 30.8108V12.3243Z" />
<path class="icon-ux-path" fill-rule="evenodd" clip-rule="evenodd" d="M24.8916 5.39189C18.0817 5.39189 12.176 8.64977 7.79832 12.4802C7.17487 13.0257 6.22723 12.9626 5.6817 12.3391C5.13618 11.7157 5.19936 10.768 5.82281 10.2225C10.5262 6.10698 17.107 2.39189 24.8916 2.39189C25.7201 2.39189 26.3916 3.06346 26.3916 3.89189C26.3916 4.72032 25.7201 5.39189 24.8916 5.39189Z" />
<path class="icon-ux-path" fill-rule="evenodd" clip-rule="evenodd" d="M31.7841 5.39189C38.5941 5.39189 44.4998 8.64977 48.8775 12.4802C49.5009 13.0257 50.4486 12.9626 50.9941 12.3391C51.5396 11.7157 51.4764 10.768 50.853 10.2225C46.1495 6.10698 39.5688 2.39189 31.7841 2.39189C30.9557 2.39189 30.2841 3.06346 30.2841 3.89189C30.2841 4.72032 30.9557 5.39189 31.7841 5.39189Z" />
<path class="icon-ux-path" fill-rule="evenodd" clip-rule="evenodd" d="M3.89189 10.2162C1.74259 10.2162 0 11.9588 0 14.1081C0 16.2574 1.74259 18 3.89189 18C6.04119 18 7.78378 16.2574 7.78378 14.1081C7.78378 11.9588 6.04119 10.2162 3.89189 10.2162ZM3.89189 12.1622C4.96508 12.1622 5.83784 13.0349 5.83784 14.1081C5.83784 15.1813 4.96508 16.0541 3.89189 16.0541C2.8187 16.0541 1.94595 15.1813 1.94595 14.1081C1.94595 13.0349 2.8187 12.1622 3.89189 12.1622Z" />
<path class="icon-ux-path" fill-rule="evenodd" clip-rule="evenodd" d="M52.7029 10.2162C50.5536 10.2162 48.811 11.9588 48.811 14.1081C48.811 16.2574 50.5536 18 52.7029 18C54.8522 18 56.5948 16.2574 56.5948 14.1081C56.5948 11.9588 54.8522 10.2162 52.7029 10.2162ZM52.7029 12.1622C53.7761 12.1622 54.6489 13.0349 54.6489 14.1081C54.6489 15.1813 53.7761 16.0541 52.7029 16.0541C51.6297 16.0541 50.757 15.1813 50.757 14.1081C50.757 13.0349 51.6297 12.1622 52.7029 12.1622Z" />
<path class="icon-ux-path" fill-rule="evenodd" clip-rule="evenodd" d="M31.2971 0H25.4593C24.9212 0 24.4863 0.435892 24.4863 0.972973V6.81081C24.4863 7.34789 24.9212 7.78378 25.4593 7.78378H31.2971C31.8352 7.78378 32.2701 7.34789 32.2701 6.81081V0.972973C32.2701 0.435892 31.8352 0 31.2971 0ZM26.4323 5.83784H30.3242V1.94595H26.4323V5.83784Z" />
</svg>
