<svg xmlns="http://www.w3.org/2000/svg" width="50" height="53" fill="none">
  <path fill="#303030" fill-rule="evenodd" d="M37 46H13a.856.856 0 0 0-.857.857V52c0 .474.383.857.857.857h24a.856.856 0 0 0 .857-.857v-5.143A.856.856 0 0 0 37 46zm-23.143 5.143h22.286v-3.429H13.857v3.429zM25 26.714a3.429 3.429 0 1 0 0 6.858 3.429 3.429 0 0 0 0-6.858zm0 1.715c.945 0 1.714.768 1.714 1.714 0 .945-.768 1.714-1.714 1.714a1.716 1.716 0 0 1-1.714-1.714c0-.946.769-1.714 1.714-1.714z" clip-rule="evenodd"/>
  <path stroke="#303030" stroke-linecap="round" stroke-linejoin="round" stroke-width="2" d="M39.571 33.143l-6 12.857 6-12.857zm0 0L25 10M10.428 33.143l6 12.857-6-12.857zm0 0L25 10M25 10.857v16.286M6 10c4-3.5 9.5-6.571 15.929-6.571M43.929 10c-4-3.5-9.5-6.571-15.929-6.571"/>
  <path fill="#303030" fill-rule="evenodd" d="M3.429 9a3.429 3.429 0 1 0 0 6.857 3.429 3.429 0 0 0 0-6.857zm0 1.714c.945 0 1.714.77 1.714 1.715 0 .945-.769 1.714-1.714 1.714a1.716 1.716 0 0 1-1.715-1.714c0-.946.77-1.715 1.715-1.715zM46.429 9a3.429 3.429 0 1 0 0 6.857 3.429 3.429 0 0 0 0-6.857zm0 1.714c.945 0 1.714.77 1.714 1.715 0 .945-.769 1.714-1.714 1.714a1.716 1.716 0 0 1-1.715-1.714c0-.946.77-1.715 1.715-1.715zM27.571 0h-5.143a.857.857 0 0 0-.857.857V6c0 .473.383.857.857.857h5.143A.857.857 0 0 0 28.428 6V.857A.857.857 0 0 0 27.571 0zm-4.285 5.143h3.428V1.714h-3.428v3.429z" clip-rule="evenodd"/>
</svg>
