<svg xmlns="http://www.w3.org/2000/svg" width="38" height="48" fill="none">
  <path fill="#303030" d="M11 0H3C1.3 0 0 1.3 0 3v42c0 1.7 1.3 3 3 3h8c1.7 0 3-1.3 3-3V3c0-1.7-1.3-3-3-3zm1 45c0 .6-.4 1-1 1H3c-.6 0-1-.4-1-1v-2h4v-2H2v-2h2v-2H2v-2h2v-2H2v-2h4v-2H2v-2h2v-2H2v-2h2v-2H2v-2h4v-2H2v-2h2v-2H2v-2h2V9H2V7h4V5H2V3c0-.6.4-1 1-1h8c.6 0 1 .4 1 1v42zM35 0h-8c-1.7 0-3 1.3-3 3v34.2l4.3 8.7c.9 1.8 2.1 2 2.7 2 .6 0 1.8-.3 2.7-2l4.3-8.7V3c0-1.7-1.3-3-3-3zm-6.2 42.4l-2.5-5.1c1.1-1.5 2.9-2.3 4.7-2.3 1.9 0 3.6.9 4.7 2.3l-2.5 5.1c-1.4-.5-3-.5-4.4 0zM27 2h8c.6 0 1 .4 1 1v31.8c-1.1-.9-2.5-1.5-4-1.7V12h-2v21.1c-1.5.2-2.9.8-4 1.7V3c0-.6.4-1 1-1z"/>
  <path fill="#303030" d="M36 11H26v2h10v-2zM36 7H26v2h10V7z"/>
</svg>
