<svg width="60" height="60" viewBox="0 0 60 60" fill="none" xmlns="http://www.w3.org/2000/svg">
<style type="text/css">
	.icon-prototype{fill:#110d47;}
</style>
<path class="icon-prototype" fill-rule="evenodd" clip-rule="evenodd" d="M24.8937 8.93616H10.2129V6.38297H24.8937V8.93616Z" />
<path class="icon-prototype" fill-rule="evenodd" clip-rule="evenodd" d="M49.1491 8.93616H34.4683V6.38297H49.1491V8.93616Z" />
<path class="icon-prototype" fill-rule="evenodd" clip-rule="evenodd" d="M43.4043 7.6596L43.4043 45.9575C43.4043 47.0808 44.113 48.5233 45.3978 49.7368C46.6663 50.9349 48.2826 51.7021 49.7872 51.7021L49.7872 54.2553C47.4621 54.2553 45.2486 53.1077 43.6447 51.593C42.0573 50.0937 40.8511 48.0257 40.8511 45.9575L40.8511 7.6596L43.4043 7.6596Z" />
<path class="icon-prototype" fill-rule="evenodd" clip-rule="evenodd" d="M43.6447 29.8909C42.0573 28.3916 40.8511 26.3235 40.8511 24.2553L43.4043 24.2553C43.4043 25.3786 44.113 26.8212 45.3978 28.0347C46.6663 29.2327 48.2826 30 49.7872 30L49.7872 32.5532C47.4621 32.5532 45.2486 31.4056 43.6447 29.8909Z" />
<path class="icon-prototype" fill-rule="evenodd" clip-rule="evenodd" d="M19.3894 28.6143C17.8019 27.115 16.5957 25.0469 16.5957 22.9787L16.5957 7.65959L19.1489 7.65959L19.1489 22.9787C19.1489 24.102 19.8576 25.5446 21.1425 26.7581C22.411 27.9561 24.0272 28.7234 25.5319 28.7234L25.5319 31.2766C23.2068 31.2766 20.9932 30.129 19.3894 28.6143Z" />
<path class="icon-prototype" fill-rule="evenodd" clip-rule="evenodd" d="M8.48936 3H3V13.5957H8.48936V3ZM0 0V16.5957H11.4894V0H0Z" />
<path class="icon-prototype" fill-rule="evenodd" clip-rule="evenodd" d="M32.7447 3H27.2554V13.5957H32.7447V3ZM24.2554 0V16.5957H35.7447V0H24.2554Z" />
<path class="icon-prototype" fill-rule="evenodd" clip-rule="evenodd" d="M32.7447 24.7021H27.2554V35.2979H32.7447V24.7021ZM24.2554 21.7021V38.2979H35.7447V21.7021H24.2554Z" />
<path class="icon-prototype" fill-rule="evenodd" clip-rule="evenodd" d="M57.0001 3H51.5107V13.5957H57.0001V3ZM48.5107 0V16.5957H60.0001V0H48.5107Z" />
<path class="icon-prototype" fill-rule="evenodd" clip-rule="evenodd" d="M57.0001 24.7021H51.5107V35.2979H57.0001V24.7021ZM48.5107 21.7021V38.2979H60.0001V21.7021H48.5107Z" />
<path class="icon-prototype" fill-rule="evenodd" clip-rule="evenodd" d="M57.0001 46.4042H51.5107V57H57.0001V46.4042ZM48.5107 43.4042V60H60.0001V43.4042H48.5107Z" />
</svg>
