<svg width="48" height="60" viewBox="0 0 48 60" fill="none" xmlns="http://www.w3.org/2000/svg">
<style type="text/css">
	.icon-branding{fill:#110d47;}
</style>
<path class="icon-branding" d="M13.75 0H3.75C1.625 0 0 1.625 0 3.75V56.25C0 58.375 1.625 60 3.75 60H13.75C15.875 60 17.5 58.375 17.5 56.25V3.75C17.5 1.625 15.875 0 13.75 0ZM15 56.25C15 57 14.5 57.5 13.75 57.5H3.75C3 57.5 2.5 57 2.5 56.25V53.75H7.5V51.25H2.5V48.75H5V46.25H2.5V43.75H5V41.25H2.5V38.75H7.5V36.25H2.5V33.75H5V31.25H2.5V28.75H5V26.25H2.5V23.75H7.5V21.25H2.5V18.75H5V16.25H2.5V13.75H5V11.25H2.5V8.75H7.5V6.25H2.5V3.75C2.5 3 3 2.5 3.75 2.5H13.75C14.5 2.5 15 3 15 3.75V56.25Z" />
<path class="icon-branding" d="M43.75 0H33.75C31.625 0 30 1.625 30 3.75V46.5L35.375 57.375C36.5 59.625 38 59.875 38.75 59.875C39.5 59.875 41 59.5 42.125 57.375L47.5 46.5V3.75C47.5 1.625 45.875 0 43.75 0ZM36 53L32.875 46.625C34.25 44.75 36.5 43.75 38.75 43.75C41.125 43.75 43.25 44.875 44.625 46.625L41.5 53C39.75 52.375 37.75 52.375 36 53ZM33.75 2.5H43.75C44.5 2.5 45 3 45 3.75V43.5C43.625 42.375 41.875 41.625 40 41.375V15H37.5V41.375C35.625 41.625 33.875 42.375 32.5 43.5V3.75C32.5 3 33 2.5 33.75 2.5Z" />
<path class="icon-branding" d="M45 13.75H32.5V16.25H45V13.75Z" />
<path class="icon-branding" d="M45 8.75H32.5V11.25H45V8.75Z" />
</svg>
