<?xml version="1.0" encoding="utf-8"?>
<!-- Generator: Adobe Illustrator 19.2.1, SVG Export Plug-In . SVG Version: 6.00 Build 0)  -->
<svg version="1.1" id="Layer_1" xmlns="http://www.w3.org/2000/svg" xmlns:xlink="http://www.w3.org/1999/xlink" x="0px" y="0px"
	 viewBox="0 0 340 170" style="enable-background:new 0 0 340 170;" xml:space="preserve">
<style type="text/css">
	.st0{fill:#110D47;}
</style>
<g>
	<path class="st0" d="M274.2,84.4h-16.7c0.2-2.1,1.7-4.1,4.4-4.1h19.7v-4H261c-8.2,0-11.6,6.1-11.6,12h23c0.8,0,2.6,0.2,2.6,2
		c0,1.9-1.6,2-4.4,2.1h-24V76.3h-7.1v16.2h-13.5c-4.1,0-4.5-3-4.5-4.5V76.3h-12.9l-10.5,6.9l-9.4-6.9h-27.6
		c-8.2,0-13.1,5.6-13.8,10.5h5.7c-2.3,1.5-3.9,3.6-4.8,5.7l-16,0c-4.1,0-4.5-3-4.5-4.5V76.3h-7.1v11c0,7.6,5.4,9.1,8.1,9.1h56.5
		l10.6-7l9.6,7h11.1l-14.8-10.8l12.2-8v10.6c0,6.9,6.8,8.2,8.7,8.2h51.5c2.5,0,9.6-0.3,9.6-5.8C283.7,85.1,278.5,84.4,274.2,84.4
		 M184.1,92.4h-26.6c0.2-2.1,2.5-4.1,5.2-4.1h15.7v-4H157c0.2-2.1,2.5-4.1,5.2-4.1H180v-2.3l12.4,9.1"/>
	<path class="st0" d="M83.7,105.3c9.3,0,17.5-3.2,22.6-8.1l-4.6,0c-4.3,3.6-10.7,5.9-17.9,5.9c-13.4,0-23.9-7.9-23.9-17.6
		c0-11.2,10.5-17.6,23.9-17.6c0.9,0,1.5,0.4,1,1.1c-2.8,3.3-10.7,13.9-12.2,16.2c-2.9,4.5-2.8,10.1,4.2,10.5h29.5
		c1.5,0,1.9-0.7,2.4-1.4c2-2.6,3-5.7,3-8.9c0-8.3-6-14.6-14.8-17.7l-1.4,2c7.3,2.7,12.1,8,12.1,15.7c0,1.3-0.2,2.6-0.6,3.9
		c-0.3,1.1-1,2-2.2,2H81.5c-3,0-1.8-3.1-0.7-4.5c1.6-2.9,10.5-14.7,12.6-16.9c0.5-0.8,2.1-2.5,0-3.1c-3-0.7-6.2-1.1-9.6-1.1
		c-15.5,0-28,7.8-28,19.8C55.7,97.5,68.3,105.3,83.7,105.3"/>
</g>
</svg>
