<svg version="1.1" id="Layer_1" xmlns="http://www.w3.org/2000/svg" xmlns:xlink="http://www.w3.org/1999/xlink" x="0px" y="0px"
   viewBox="0 0 340 170" style="enable-background:new 0 0 340 170;" xml:space="preserve">
  <defs>
    <style>
      .cls-1 {
        fill: #110D47;
      }
    </style>
  </defs>
  <title>omega</title>
  <g>
    <path class="cls-1" d="M152,51.66c8-7.61,21.61-8,30.15-1.1a17,17,0,0,1,6.27,15.35,21.44,21.44,0,0,1-9.52,14.75c2.52.11,5,.1,7.58,0,1-1.24,1.57-3.55,3.64-3.14-1.08,2.07-2.15,4.16-3.28,6.28-5.12-.09-10.23.13-15.33-.13A36.76,36.76,0,0,0,180,74c3.69-6.64,3.73-15.8-1.57-21.64a14.73,14.73,0,0,0-20.4-1.1A16.58,16.58,0,0,0,152.73,64a22.3,22.3,0,0,0,5.63,14.3c1.65,2,3.69,3.54,5.48,5.39-5.1.22-10.2.08-15.3.08-1-2.07-2.18-4.11-3.23-6.2,2.13-.55,2.63,1.93,3.72,3.14h7.45a22.78,22.78,0,0,1-8.77-11.55A17.14,17.14,0,0,1,152,51.66"/>
    <path class="cls-1" d="M234,91.21c5.56,10.6,10.8,21.39,16.31,32v.16h-5.12c-1-2.08-2.09-4.15-3.14-6.28h-16c-1.09,2.07-2.12,4.16-3.14,6.28h-5.23c5.53-10.67,11-21.44,16.31-32.17m-5.73,21.42c3.84.14,7.69,0,11.55,0-1.93-3.79-3.8-7.6-5.81-11.33-1.91,3.75-3.76,7.54-5.74,11.26"/>
    <path class="cls-1" d="M91.55,100.81A15.76,15.76,0,1,1,89.69,109v-1.57a17.51,17.51,0,0,1,1.86-6.68m10.37-3.47c-6.94,2.09-9.86,11.36-5.75,17.26a11.26,11.26,0,0,0,15.63,3.11c.23-.15.45-.31.66-.47a11.76,11.76,0,0,0,1.76-16.34,11.25,11.25,0,0,0-12.3-3.53"/>
    <path class="cls-1" d="M122.35,123.31c3.53-10.24,6.28-20.76,10-30.94,3,6.82,5.95,13.67,8.76,20.59,3-7,6.07-13.89,8.88-20.92,3.44,10.39,6.59,20.88,9.89,31.38h-4.71c-2-6.12-3.72-12.32-5.79-18.4-2.6,6.48-5.41,12.91-8.22,19.31-2.69-6.45-5.42-12.86-8.26-19.24-1.82,6.11-3.78,12.18-5.61,18.3h-4.87"/>
    <path class="cls-1" d="M198.41,92.84a16.12,16.12,0,0,1,17,6.13l-3.72,2.7a11.27,11.27,0,0,0-13.37-4.14,11.5,11.5,0,0,0-6.7,13.92,11.09,11.09,0,0,0,11.28,8.11,11.35,11.35,0,0,0,10.41-8.08H202.66v-4.42h15.57a16.37,16.37,0,0,1-4.85,12.55,15.71,15.71,0,0,1-15.82,3.77,15.91,15.91,0,0,1,.84-30.49"/>
    <path class="cls-1" d="M163.61,93h18.51v4.44H168.25v8.55H181.7v4.44H168.27v8.54h13.87v4.41H163.61V92.93"/>
  </g>
</svg>
