<svg version="1.1" id="Layer_1" xmlns="http://www.w3.org/2000/svg" xmlns:xlink="http://www.w3.org/1999/xlink" x="0px" y="0px"
   viewBox="0 0 340 170" style="enable-background:new 0 0 340 170;" xml:space="preserve">
  <defs>
    <style>
      .cls-1 {
        fill: #110D47;
      }
    </style>
  </defs>
  <title>paris</title>
  <g>
    <path class="cls-1" d="M179.09,85.67H161a49.23,49.23,0,0,1-11.4,13,24.38,24.38,0,0,0,7.57,7.39,11.93,11.93,0,0,1-.16-2c0-6.76,5.84-12.23,13.05-12.23s13.06,5.47,13.06,12.23a11,11,0,0,1-.18,2,24.6,24.6,0,0,0,7.58-7.38,49.51,49.51,0,0,1-11.42-13"/>
    <path class="cls-1" d="M178.54,84.68a49.5,49.5,0,0,1-6.26-24c-.74,0-1.47-.1-2.22-.1a13.83,13.83,0,0,0-2.24.12,49.54,49.54,0,0,1-6.26,23.94Z"/>
    <path class="cls-1" d="M173.57,60.86C174.64,76.62,181.21,88,192,96.14a24.51,24.51,0,0,0-10.89-32.92,24.77,24.77,0,0,0-7.52-2.36"/>
    <path class="cls-1" d="M170.13,92.94a10.12,10.12,0,0,0-10.36,9.86,9.3,9.3,0,0,0,1.57,5.21,24.29,24.29,0,0,0,17.56,0,9.38,9.38,0,0,0,1.57-5.21,10.11,10.11,0,0,0-10.34-9.86m-1.76,7.17h0a10.46,10.46,0,0,1,1.62-4,.14.14,0,0,1,.09,0h.11v.1h0a10.71,10.71,0,0,1,1.4,3.75c0,.75-1.51,2.71-1.51,3.78h0a.19.19,0,0,1-.19.2.2.2,0,0,1-.2-.2h0c0-1-1.51-3-1.51-3.78v-.11m.47,4h0a2.79,2.79,0,0,0-2-1.53.58.58,0,0,0-.58.56v.19h0v.09h0v.07h.38a.65.65,0,0,1-.17.62,1,1,0,0,1-.74.31,1.73,1.73,0,0,1-1.72-1.66v-.16h0a1.72,1.72,0,0,1,1.72-1.67c1.27,0,2.49,1,3.2,2.89a.11.11,0,0,1,0,.08.23.23,0,0,1-.21.23.21.21,0,0,1-.19-.11m1.32,2.78h-.17a3.29,3.29,0,0,1-.82-1.06h0l.1-.08a1.25,1.25,0,0,0,.48-.71.3.3,0,0,1,.59,0,1.27,1.27,0,0,0,.57.79v.1a3.51,3.51,0,0,1-.82,1m3.91-2.37a1,1,0,0,1-.74-.31.7.7,0,0,1-.2-.49h0v-.07h.45v-.07h0a.11.11,0,0,0,0-.08h0v-.1a.08.08,0,0,0,0-.07.58.58,0,0,0-.58-.58h0a2.78,2.78,0,0,0-2.11,1.71h0a.17.17,0,0,1-.18.11.22.22,0,0,1-.22-.22h0v-.07h0c.71-1.86,1.92-2.89,3.2-2.89h.16a1.74,1.74,0,0,1-.16,3.46"/>
    <path class="cls-1" d="M181.32,116.65c-.13-.45-.5-.45-.84-.35l-1.73.53.34,1.15,1.76-.53a.59.59,0,0,0,.5-.67.5.5,0,0,0,0-.13"/>
    <polygon class="cls-1" points="190.71 112.67 189.34 111.88 189.65 113.42 190.71 112.67"/>
    <path class="cls-1" d="M149,54.51a1.79,1.79,0,0,0-2.54.1l0,0-3,3.3,2.68,2.44,3-3.29a1.83,1.83,0,0,0-.12-2.57"/>
    <path class="cls-1" d="M170.08,42.17A42.82,42.82,0,1,0,212.87,85v0a42.77,42.77,0,0,0-42.72-42.8h0m14.15,5.56c.71.28,1.39.56,2.12.88l-4.17,10.18c-.7-.32-1.39-.61-2.12-.88Zm-16.51-2.5h6.31a4,4,0,0,1,4,3.77,4,4,0,0,1-3,3.63l2.88,4.6a26.86,26.86,0,0,0-2.79-.65l-2.4-3.81H170v3.34h0a20.59,20.59,0,0,0-2.23.08Zm-12.1,2.64c.76-.29,1.53-.57,2.31-.82l8.44,9.28c-.88.11-1.73.25-2.58.43l-1.9-2.2a31.14,31.14,0,0,0-4.7,1.64l-.11,2.91c-.78.39-1.55.82-2.28,1.26Zm-10.56,5.38a3.92,3.92,0,0,1,5.44-.31,3.87,3.87,0,0,1,.14,5.39l-3.18,3.35L150,64c-.54.52-1.07,1-1.57,1.59l-7.89-7.29Zm-.77,57a2.32,2.32,0,0,1-.46-.07,3.41,3.41,0,0,1-1.48-1.2,5,5,0,0,1-.78-1.57h0l.43-.4h0c.49,1.51,1.51,2.58,2.09,2.58a.45.45,0,0,0,.26-.08.48.48,0,0,0,.26-.36c.06-.38-.26-.85-.59-1.31l-.44-.58a1.7,1.7,0,0,1-.39-1.24.86.86,0,0,1,.33-.57,1,1,0,0,1,.57-.18c1,0,2.24,1.23,2.57,2.49h0l-.41.25h0c-.27-.91-1.27-2.09-2-2.09h-.07a.39.39,0,0,0-.32.24c-.07.15-.09.41.22.83l.39.53a2.78,2.78,0,0,1,.76,1.89.93.93,0,0,1-.41.65.84.84,0,0,1-.55.17m3.41,3.73.44-1.48-1.39-1.18-1.39.66-.47-.44,4.1-1.93.5.42-1.26,4.34Zm1.79,1.29,2.3-3.49.5.32-2.31,3.5Zm5.38,3-.51-.24-.72-4h0l-1.48,2.78-.5-.3,1.92-3.66.52.28.71,3.9h0l1.39-2.78.52.28Zm6.11-1.39-1.39-.48-1.17,3.35-.56-.19,1.17-3.35-1.39-.47.2-.57,3.26,1.15Zm3.74,2.68-1.46-.32.12-.6,1.4.34Zm7.34,1c0,.73-.82,1.22-1.85,1.2a2.15,2.15,0,0,1-.27-4.3h.34a2.39,2.39,0,0,1,1.73.78l-.42.41a1.63,1.63,0,1,0-1.63,2.5h.28c.71,0,1.22-.31,1.24-.66v-.46h-1.3v-.59h1.88Zm1.8.94-.59-4.07,3.32-.48.09.59-2.78.39.15,1.07,1.39-.2.08.59-1.39.19.18,1.25,2.78-.41.09.58Zm8.14-1.81-1.28-1.39-1.46.45.49,1.65-.56.16-1.18-3.94,2.31-.7a1.15,1.15,0,0,1,1.51.58.76.76,0,0,1,.06.18,1.09,1.09,0,0,1-.55,1.39l1.28,1.39Zm5.87-2.64-1.39-2.54h0l-.1,2.87-2.37-1.61h0l1.25,2.63-.55.25L183,115l.53-.28,2.41,1.64.08-2.92.53-.26,1.94,3.64Zm-17.74-5.46a26.28,26.28,0,1,1,26.22-26.34v.06a26.28,26.28,0,0,1-26.22,26.28m22.4,2.36-1.27-.78-1.5,1.07.29,1.49-.52.33-.87-4.42.55-.37,3.83,2.28Zm1.6-1.32-2.78-3,.43-.41,2.78,3Zm4-4.1-4-.27h0l2.35,2.12-.42.43L193.08,108l.39-.43,3.95.26h0l-2.32-2.09.4-.44,3.05,2.78Zm-1.12-49c-.57-2-3.6-5.06-5.25-4.67-.47.11-1,.83.24,2.08l1.07,1.14c2.6,2.78,3.2,5,1.55,6.5a3,3,0,0,1-2.67.57,8.08,8.08,0,0,1-4-2.54A12.29,12.29,0,0,1,185.6,59l1.6-1.21c1.79,3.8,4.76,6,5.83,5.12s-.09-2.13-1.39-3.43l-1.21-1.28c-1.26-1.32-2.08-3.42-.64-4.79,2.43-2.28,7.52,1.39,8.8,5L197,59.57"/>
    <path class="cls-1" d="M175.85,48.94A1.82,1.82,0,0,0,174,47.12h-4.09v3.65H174a1.82,1.82,0,0,0,1.82-1.83"/>
    <path class="cls-1" d="M170.08,37A48,48,0,1,0,218,85.08V85a47.94,47.94,0,0,0-47.9-48h0m31.46,79.51a44.6,44.6,0,1,1,13-31.52,44.61,44.61,0,0,1-13,31.52"/>
    <path class="cls-1" d="M157.47,49.43l-.19,4.71A31.05,31.05,0,0,1,160.56,53Z"/>
    <path class="cls-1" d="M166.66,60.86a24.52,24.52,0,0,0-18.41,35.28C159,88,165.59,76.67,166.66,60.86"/>
    <polygon class="cls-1" points="148.32 111.77 148.75 110.27 147.34 110.93 148.32 111.77"/>
  </g>
</svg>
