<svg version="1.1" id="Layer_1" xmlns="http://www.w3.org/2000/svg" xmlns:xlink="http://www.w3.org/1999/xlink" x="0px" y="0px"
   viewBox="0 0 340 170" style="enable-background:new 0 0 340 170;" xml:space="preserve">
  <defs>
    <style>
      .cls-1 {
        fill: #110D47;
      }
    </style>
  </defs>
  <title>Artboard 1</title>
  <g>
    <path class="cls-1" d="M170.7,59l-.1,69.5-17.8-6.1L152.7,41l22.8,6.3c14.6,4.1,23.5,12,23.4,26-.1,16.2-7.8,22.5-20.7,16.6v-30c-.1-4.4-7.5-7.7-7.5-.9h0"/>
    <path class="cls-1" d="M149,90.6l-2.7.9-26,9.2c-5.5,2.5-10,4.1-10.1,8.1.1,5.1,8.2,7.6,20.1,9.6,6.3,1.3,12.8.4,18.3-.7v-9.6s-10.3,3.9-12.7,4.3H131c-3.7,0-5.4-2.3-1.7-3.6l19.6-7.3.1-10.9h0"/>
    <path class="cls-1" d="M195.1,94.9c-6.8,0-16.3,1.8-20.9,4v11l12.3-4.5,9.8-3.1c10.2-1.7,14.2,1.9,4.3,4.8l-26.4,9.6v10.6l38.6-13.7c4.3-1.5,10.3-4.4,10.3-8.1-1-5.6-9.6-8.9-23-10.3-1.2-.1-2.4-.2-3.6-.2a6.15,6.15,0,0,0-1.4-.1h0"/>
  </g>
</svg>
