<svg version="1.1" id="Layer_1" xmlns="http://www.w3.org/2000/svg" xmlns:xlink="http://www.w3.org/1999/xlink" x="0px" y="0px"
   viewBox="0 0 340 170" style="enable-background:new 0 0 340 170;" xml:space="preserve">
  <defs>
    <style>
      .cls-1 {
        fill: #110D47;
      }
    </style>
  </defs>
  <title>tacobell</title>
  <g>
    <path class="cls-1" d="M139.8,97.35H133V96.7c0-9.57,0-19.15,0-28.72a29.4,29.4,0,0,1,8.56-20.74,35.1,35.1,0,0,1,12-8.17,1,1,0,0,1,.46-.11c-.11.12-.22.25-.34.37a7.59,7.59,0,0,0-2.42,5.26,16.8,16.8,0,0,0,.12,2.65.8.8,0,0,1-.28.78A20.07,20.07,0,0,0,145,59.4a35.91,35.91,0,0,0-.44,10c.2,2.41.63,4.79,1,7.17a26,26,0,0,1,.34,4.83,11,11,0,0,1-.83,4,28.44,28.44,0,0,1-2.62,4.82c-.37.55-.75,1.11-1.08,1.68a9,9,0,0,0-1.54,5.51"/>
    <path class="cls-1" d="M193.31,61.72l-.66.19A81.66,81.66,0,0,0,164.2,75.47,53.83,53.83,0,0,0,156,83a23.92,23.92,0,0,0-3,4.19,10.8,10.8,0,0,0-1.26,3.23c0,.13-.05.26-.07.39A3.75,3.75,0,0,0,154.14,95a11,11,0,0,0,4,.77,30.15,30.15,0,0,0,8.24-.94,72.58,72.58,0,0,0,28.93-14.33,30.28,30.28,0,0,0,5-5.1,12.24,12.24,0,0,0,1.76-3,7.74,7.74,0,0,0,.41-1.5,3.53,3.53,0,0,0-1.62-3.56,7.41,7.41,0,0,0-3.3-1.2,22.61,22.61,0,0,0-6.87.19,60.18,60.18,0,0,0-16.33,5.46,1.9,1.9,0,0,1-.72.23,3.27,3.27,0,0,1,.37-.28A74.56,74.56,0,0,1,195.25,63a29.75,29.75,0,0,1,8-1,12.3,12.3,0,0,1,3.86.64,8,8,0,0,1,1.5.74,3.83,3.83,0,0,1,1.6,4.14,8.57,8.57,0,0,1-1.05,2.77,21.23,21.23,0,0,1-3,4.08,54.3,54.3,0,0,1-8.66,7.43A113.41,113.41,0,0,1,177.54,93a95.57,95.57,0,0,1-16.17,5.63A45.78,45.78,0,0,1,153,99.91a17.4,17.4,0,0,1-5.38-.47,6.67,6.67,0,0,1-2.16-1,3.78,3.78,0,0,1-1.69-3.18,8.6,8.6,0,0,1,.62-3.09,21.76,21.76,0,0,1,2.79-5,45.71,45.71,0,0,1,9.66-9.73,84.5,84.5,0,0,1,31.93-15c1.38-.32,2.78-.54,4.17-.81a2.41,2.41,0,0,1,.38,0s0,0,0,0"/>
    <path class="cls-1" d="M205,77.22V97.31h-29.7c11.27-4.76,20.88-11.77,29.7-20.09"/>
    <path class="cls-1" d="M204.13,60.12a13.29,13.29,0,0,1-3-.56,29.42,29.42,0,0,1-2.9-1,8.4,8.4,0,0,1-2.86-2.06c-2.56-2.7-5.13-5.4-7.74-8.06A39.84,39.84,0,0,0,182,43.61a19.81,19.81,0,0,0-7-3.24,20.88,20.88,0,0,0-6.16-.27,14.39,14.39,0,0,0-1.47.18.79.79,0,0,1-.79-.29,9.12,9.12,0,0,0-3.48-2.6c-.54-.22-1.1-.36-1.68-.55a.94.94,0,0,1,.3-.15c10.25-1.77,19.9-.19,28.76,5.42A31.92,31.92,0,0,1,202.53,55.8c.55,1.19.95,2.44,1.41,3.67.07.18.11.37.19.65"/>
    <path class="cls-1" d="M156,121.58h17.17l-1.54,2.87h-8.32c0,.31,0,.58,0,.85s0,.56,0,.93c.67,0,1.33,0,2,0s1.29,0,1.93,0h4c.06,1,0,1.86,0,2.82h-7.87a9.35,9.35,0,0,0-.08,1.92c3.18,0,6.33,0,9.52,0v2.87c-.44.14-16,.17-16.8,0Z"/>
    <path class="cls-1" d="M148.36,83.55c0-1,.11-2,.1-3a32,32,0,0,0-.73-5.51c-.4-2.35-.87-4.7-1.15-7.07a27.65,27.65,0,0,1,.95-12.09,18.6,18.6,0,0,1,4.77-7.65,1,1,0,0,0,.32-1.06,7.63,7.63,0,0,1,2.24-7.67,4.52,4.52,0,0,1,.77-.57c-2.1,2.18-2,4.61-.95,7.26a26,26,0,0,1,8.64-4l-.7.3a27.53,27.53,0,0,0-6.91,4,14.11,14.11,0,0,0-5.23,10.08,31.77,31.77,0,0,0,.61,8.81c.42,2.2,1,4.37,1.39,6.57.32,1.63.52,3.28.78,4.91a.6.6,0,0,1-.19.63,23.42,23.42,0,0,0-4.56,5.91,1.65,1.65,0,0,1-.15.17"/>
    <path class="cls-1" d="M184.51,113.26v3.27c-.37.07-.76.16-1.16.22a33.9,33.9,0,0,1-9.7,0,11.88,11.88,0,0,1-3.44-1,5.66,5.66,0,0,1-3-6.73,5,5,0,0,1,2.15-2.88,10.55,10.55,0,0,1,3.44-1.41,23.72,23.72,0,0,1,5.37-.56,46.06,46.06,0,0,1,6,.32c.23,0,.46.09.79.15-.48,1-.95,1.89-1.44,2.85l-1-.09a18.12,18.12,0,0,0-4.88.07A6,6,0,0,0,176,108a2.6,2.6,0,0,0-1.43,2.55,2.74,2.74,0,0,0,1.51,2.59,7,7,0,0,0,2.87.62,20.46,20.46,0,0,0,4.94-.42l.6-.11"/>
    <path class="cls-1" d="M143.07,116.87h-7.38v-9.38h-4.35l-1.6-3h19.47c-.08.18-.13.34-.21.49-.35.66-.72,1.31-1.05,2a.76.76,0,0,1-.79.49c-1.12,0-2.24,0-3.35,0h-.74c0,3.15,0,6.26,0,9.41"/>
    <path class="cls-1" d="M191.86,121.58h7.41v9.29h9.39c-.6,1.11-1.13,2.11-1.68,3.12H194.52a5.58,5.58,0,0,1-1.08-.12,1.86,1.86,0,0,1-1.52-1.63,4.56,4.56,0,0,1-.08-.9q0-4.59,0-9.18c0-.17,0-.34,0-.58"/>
    <path class="cls-1" d="M181.69,121.64v9.22H191a2.1,2.1,0,0,1-.14.38c-.42.8-.86,1.59-1.27,2.39a.55.55,0,0,1-.61.36,2.25,2.25,0,0,0-.26,0H177a6.2,6.2,0,0,1-1-.07,2,2,0,0,1-1.75-1.87,4.41,4.41,0,0,1,0-.52V122c0-.13,0-.25,0-.37a65.8,65.8,0,0,1,7.44,0"/>
    <path class="cls-1" d="M197.4,68.74a10.25,10.25,0,0,0-3.08-.33,35.52,35.52,0,0,0-8.21,1.46,80.38,80.38,0,0,0-21,9.69,42.77,42.77,0,0,0-7.53,6,13.78,13.78,0,0,0-2.22,2.77,8.52,8.52,0,0,0-.8,1.89,2.21,2.21,0,0,0,1.21,2.65,3.71,3.71,0,0,0,1,.39,11.34,11.34,0,0,0,1.84.27,24.17,24.17,0,0,0,6.51-.71,66.6,66.6,0,0,0,12.3-4.2,76.19,76.19,0,0,0,14.79-8.49,31.27,31.27,0,0,0,5.37-4.91,10.06,10.06,0,0,0,1.63-2.55c.81-1.94.17-3.29-1.84-3.88m-24.86,18a10.4,10.4,0,0,1-3.65,2,10.92,10.92,0,0,1-6.78.19,9.43,9.43,0,0,1-4-2.66c.48-.43,1-.83,1.46-1.27,2.77,2.88,6,3.15,9.58,1.8a5.61,5.61,0,0,1-4.33-1.26,5,5,0,0,1-1.49-3.21,42.79,42.79,0,0,1,11.59-5.29,12.09,12.09,0,0,1,.36,1.18,8.24,8.24,0,0,1-2.76,8.5"/>
    <path class="cls-1" d="M204.83,106.5a8.32,8.32,0,0,0-2.54-1.36,16.78,16.78,0,0,0-4.55-.85,22.94,22.94,0,0,0-6.66.47,9.8,9.8,0,0,0-3.56,1.57,5.47,5.47,0,0,0,0,8.74,8.67,8.67,0,0,0,2.35,1.19,20.29,20.29,0,0,0,6.41.87c.58,0,1.42,0,2.25-.13a21.82,21.82,0,0,0,2.29-.36,9.76,9.76,0,0,0,3.82-1.63,5.42,5.42,0,0,0,.16-8.51m-6,5.8a2.29,2.29,0,0,1-1.91,1.79,5.12,5.12,0,0,1-1.46.07,2.42,2.42,0,0,1-2.14-1.8,5.83,5.83,0,0,1-.08-3.18,2.76,2.76,0,0,1,3.42-2.07,2.68,2.68,0,0,1,2.3,2.44,11.64,11.64,0,0,1,.12,1.23,10.88,10.88,0,0,1-.25,1.52"/>
    <path class="cls-1" d="M161.39,104.5h-9.55l-6.61,12.38h7.1c.4-.88.79-1.76,1.19-2.65h6l1.18,2.64H168l-6.61-12.37m-6.68,6.63,1.89-4,1.78,4a17.11,17.11,0,0,1-3.67,0"/>
    <path class="cls-1" d="M154.38,130.09a2.52,2.52,0,0,0-1.91-2.33l-.75-.26.34-.11.3-.11a2.58,2.58,0,0,0,1.71-2.37,2.5,2.5,0,0,0-1.2-2.53,5.52,5.52,0,0,0-1.3-.55,11.57,11.57,0,0,0-3.32-.28H135.72c-.13,1.19-.08,12,.06,12.45h12.16c.88,0,1.76-.06,2.64-.14a5.91,5.91,0,0,0,2.28-.61,2.9,2.9,0,0,0,1.52-3.15M143,123.87c1.24,0,2.43,0,3.62.14a1,1,0,0,1,.94,1,1,1,0,0,1-.7,1,1.36,1.36,0,0,1-.43.11c-1.13,0-2.26,0-3.43,0Zm4.72,6.51a1.14,1.14,0,0,1-.39.65l-.11.07-.12.06-.08,0a1.89,1.89,0,0,1-.51.16h-.08c-1.13,0-2.26,0-3.43,0v-2.53c.05,0,.08-.09.11-.08h2.65l.88.05a1.34,1.34,0,0,1,.3,0l.14,0a1.71,1.71,0,0,1,.23.13l.1.08a1,1,0,0,1,.16.19,1,1,0,0,1,.15.35.77.77,0,0,1,0,.27,2.25,2.25,0,0,1,0,.44"/>
    <path class="cls-1" d="M208.66,123a1.37,1.37,0,0,1-1.4,1.38,1.38,1.38,0,1,1,1.4-1.38m-2.46,0a1.06,1.06,0,0,0,1.07,1.09,1,1,0,0,0,1-1.08,1.06,1.06,0,1,0-2.11,0m.84.72h-.31V122.3a2.27,2.27,0,0,1,.52,0,.88.88,0,0,1,.47.1.38.38,0,0,1,.14.3.36.36,0,0,1-.28.32v0a.4.4,0,0,1,.24.33,1.6,1.6,0,0,0,.1.35h-.34a1.29,1.29,0,0,1-.1-.34c0-.15-.11-.22-.29-.22H207Zm0-.78h.15c.18,0,.32-.06.32-.2s-.09-.21-.29-.21a.62.62,0,0,0-.18,0Z"/>
  </g>
</svg>
