<svg version="1.1" id="Layer_1" xmlns="http://www.w3.org/2000/svg" xmlns:xlink="http://www.w3.org/1999/xlink" x="0px" y="0px"
   viewBox="0 0 340 170" style="enable-background:new 0 0 340 170;" xml:space="preserve">
  <defs>
    <style>
      .cls-1 {
        fill: #110D47;
      }
    </style>
  </defs>
  <title>toggl</title>
  <path class="cls-1" d="M258.22,102.9c-2.89,0-4.23-2-4.23-6.16V67.86c0-4.13,1.34-6.16,4.23-6.16s4.18,2,4.18,6.16V96.74c0,4.13-1.28,6.16-4.18,6.16m-25.1,11.84c-7.7,0-12.35-2.84-12.35-6.16a3.54,3.54,0,0,1,3.41-3.68h.22c2.08,0,4.61,2.25,9,2.25,4.13,0,6.6-2.52,6.6-7.12V99a8.73,8.73,0,0,1-7.65,3.95c-6.63,0-12.2-6.09-12.2-14.65s5.89-15,13.11-15a8.2,8.2,0,0,1,6.77,3,4.6,4.6,0,0,1,3.76-2.65c2.89,0,4.22,2,4.22,6.09V96.65c0,5.08-.32,8.94-2,11.66-2.47,4.13-6.86,6.33-12.86,6.33m1.23-33.33c-3.09,0-5.51,2.67-5.51,6.9s2.37,7.06,5.51,7.06S240,92.49,240,88.21s-2.45-6.9-5.57-6.9m-33.17,33.33c-7.7,0-12.37-2.84-12.37-6.16a3.57,3.57,0,0,1,3.45-3.69h.19c2.09,0,4.6,2.25,9,2.25,4.13,0,6.58-2.52,6.58-7.12v-1a8.76,8.76,0,0,1-7.65,4c-6.65,0-12.21-6.09-12.21-14.65s6-14.92,13.11-14.92a8.21,8.21,0,0,1,6.77,3,4.55,4.55,0,0,1,3.73-2.66c2.9,0,4.23,2,4.23,6.09V96.62c0,5.08-.32,8.93-2,11.66-2.45,4.13-6.85,6.32-12.84,6.32m1.24-33.32c-3.11,0-5.52,2.67-5.52,6.9s2.36,7,5.52,7,5.56-2.77,5.56-7-2.47-6.9-5.56-6.9m-31,22c-8.29,0-14.27-6.31-14.27-15.07s6-15.1,14.27-15.1,14.25,6.31,14.25,15.1-5.89,15.07-14.25,15.07m0-22.25c-3.09,0-5.56,2.68-5.56,7.06s2.35,7.17,5.56,7.17,5.57-2.77,5.57-7.17S174.7,81,171.58,81m-19.64.7h-.69V96.64c0,4.13-1.29,6.16-4.18,6.16s-4.23-2-4.23-6.16V81.78h-.32c-3,0-4.75-1.43-4.75-3.63s1.69-3.59,5.07-3.74V70.72c0-4.13,1.35-6.16,4.23-6.16s4.18,2,4.18,6.16v3.69H152c3.39,0,5.32,1.44,5.32,3.74s-1.7,3.63-5.37,3.63M96.11,113.93a29,29,0,1,1,29-29v0a29,29,0,0,1-28.95,29H96m2-46.65H94V87.45H98ZM99.72,72v4.11a10.26,10.26,0,1,1-7.48,0V72a14.16,14.16,0,1,0,7.48,0"/>
</svg>
