<svg version="1.1" id="Layer_1" xmlns="http://www.w3.org/2000/svg" xmlns:xlink="http://www.w3.org/1999/xlink" x="0px" y="0px"
   viewBox="0 0 340 170" style="enable-background:new 0 0 340 170;" xml:space="preserve">
  <defs>
    <style>
      .cls-1 {
        fill: #110D47;
      }
    </style>
  </defs>
  <title>verizon</title>
  <g>
    <polygon class="cls-1" points="260.17 64.07 249.88 86.16 246 77.78 241.79 77.78 248.19 91.48 251.57 91.48 264.33 64.07 264.33 64.07 260.17 64.07"/>
    <path class="cls-1" d="M139.6,82.3h-.16V77.78h-7.93v27.31h8.26V92.5c0-5.71,3.4-8.25,8.62-7.52h.16v-7.2a4.61,4.61,0,0,0-1.65-.22c-3.3,0-5.43,1.5-7.3,4.69"/>
    <polygon class="cls-1" points="95 77.78 89.67 95.33 89.55 95.33 84.24 77.78 75.67 77.78 85.14 105.09 93.88 105.09 103.36 77.78 95 77.78"/>
    <rect class="cls-1" x="150.9" y="77.78" width="8.36" height="27.31"/>
    <path class="cls-1" d="M124.81,80.29A13,13,0,0,0,115.64,77c-8.25,0-13.88,6.24-13.88,14.42s5.41,14.5,14.41,14.5a14.32,14.32,0,0,0,8.37-2.45A10.83,10.83,0,0,0,129.12,97h-8a5,5,0,0,1-5,2.87c-3.68,0-5.91-2.4-6.34-6.08h19.65c0-5.86-1.5-10.57-4.74-13.49m-14.86,8c.64-3.3,2.39-5.38,5.86-5.38A5.39,5.39,0,0,1,121,88.34Z"/>
    <rect class="cls-1" x="150.9" y="68.07" width="8.36" height="7.41"/>
    <path class="cls-1" d="M232.45,77a9.34,9.34,0,0,0-8.26,4.54H224V77.78h-8v27.31h8.25V89.88c0-3.47,2-5.91,5-5.91s4.35,2,4.35,5v16.22h8.26V87.27c0-6-3.62-10.3-9.48-10.3"/>
    <path class="cls-1" d="M199.66,77a14.45,14.45,0,1,0,14.48,14.45A13.93,13.93,0,0,0,200.77,77q-.56,0-1.11,0m0,22.77c-3.95,0-6-3.3-6-8.25s2.06-8.26,6-8.26,6.12,3.3,6.12,8.26-2.18,8.25-6.12,8.25"/>
    <polygon class="cls-1" points="171.65 98.37 184.28 84.18 184.28 77.78 161.55 77.78 161.55 84.35 174.33 84.35 174.33 84.5 161.55 98.8 161.55 105.09 184.86 105.09 184.86 98.53 171.65 98.53 171.65 98.37"/>
  </g>
</svg>
