<svg width="40" height="40" viewBox="0 0 40 40" fill="none" xmlns="http://www.w3.org/2000/svg">
<path d="M26.25 12.499H13.7501C13.06 12.499 12.5001 13.059 12.5001 13.7492V38.7486C12.5001 39.4384 13.06 39.9987 13.7501 39.9987H26.2501C26.9399 39.9987 27.4999 39.4384 27.4999 38.7486V13.7492C27.4999 13.059 26.9399 12.499 26.25 12.499Z" fill="#FFC107"/>
<path d="M13.7501 25H1.25028C0.559927 25 0 25.5599 0 26.25V38.7497C0 39.4394 0.559927 39.9997 1.25028 39.9997H13.7501C14.4403 39.9997 15.0003 39.4394 15.0003 38.7497V26.25C15.0003 25.5599 14.4403 25 13.7501 25Z" fill="#FFC107"/>
<path d="M38.7499 0H26.25C25.5597 0 24.9998 0.559907 24.9998 1.25039V38.7493C24.9998 39.439 25.5597 39.9994 26.25 39.9994H38.7499C39.4401 39.9994 40 39.439 40 38.7493V1.25039C40.0001 0.559907 39.4402 0 38.7499 0Z" fill="#FFA000"/>
</svg>
