<svg xmlns="http://www.w3.org/2000/svg" fill="none" viewBox="0 0 128 128">
  <defs/>
  <path fill="#000" d="M0 0h128v128H0V0z"/>
  <path fill="#FF9C3E" d="M51 63.5C51 51.074 61.074 41 73.5 41H96v22.5C96 75.926 85.926 86 73.5 86S51 75.926 51 63.5z"/>
  <path fill="#E90000" d="M32 63.5C32 51.074 42.074 41 54.5 41S77 51.074 77 63.5 66.926 86 54.5 86H32V63.5z"/>
  <path fill="#fff" d="M42 56.5a1.5 1.5 0 011.5-1.5h23a1.5 1.5 0 010 3h-23a1.5 1.5 0 01-1.5-1.5zM42 63.5a1.5 1.5 0 011.5-1.5h23a1.5 1.5 0 010 3h-23a1.5 1.5 0 01-1.5-1.5zM42 70.5a1.5 1.5 0 011.5-1.5h13a1.5 1.5 0 010 3h-13a1.5 1.5 0 01-1.5-1.5z"/>
</svg>
