<svg width="18" height="16" viewBox="0 0 18 16" fill="none" xmlns="http://www.w3.org/2000/svg">
<path fill-rule="evenodd" clip-rule="evenodd" d="M8.93384 0.021978C8.93384 0.0340659 8.90414 0.043956 8.86783 0.043956C8.83152 0.043956 8.80182 0.0538462 8.80182 0.0659341C8.80182 0.078022 8.78201 0.0879121 8.75781 0.0879121C8.7336 0.0879121 8.7138 0.0978022 8.7138 0.10989C8.7138 0.121978 8.69399 0.131868 8.66979 0.131868C8.64558 0.131868 8.62578 0.141758 8.62578 0.153846C8.62578 0.165934 8.61075 0.175824 8.59235 0.175824C8.54885 0.175824 8.27371 0.450637 8.27371 0.494088C8.27371 0.512462 8.2638 0.527473 8.2517 0.527473C8.2396 0.527473 8.2297 0.547253 8.2297 0.571429C8.2297 0.595604 8.2198 0.615385 8.20769 0.615385C8.19559 0.615385 8.18569 0.664835 8.18569 0.725275C8.18569 0.785714 8.17579 0.835165 8.16368 0.835165C8.1496 0.835165 8.14168 1.03297 8.14168 1.38462C8.14168 1.73626 8.13376 1.93407 8.11967 1.93407C8.10647 1.93407 8.09767 2.02198 8.09767 2.15385C8.09767 2.28571 8.08887 2.37363 8.07567 2.37363C8.0631 2.37363 8.05366 2.43956 8.05366 2.52747C8.05366 2.61538 8.04422 2.68132 8.03166 2.68132C8.01942 2.68132 8.00965 2.73993 8.00965 2.81319C8.00965 2.88644 7.99988 2.94506 7.98765 2.94506C7.97554 2.94506 7.96564 2.99451 7.96564 3.05495C7.96564 3.11538 7.95574 3.16484 7.94364 3.16484C7.93154 3.16484 7.92163 3.19451 7.92163 3.23077C7.92163 3.26703 7.91173 3.2967 7.89963 3.2967C7.88753 3.2967 7.87762 3.32637 7.87762 3.36264C7.87762 3.3989 7.86772 3.42857 7.85562 3.42857C7.84352 3.42857 7.83362 3.44835 7.83362 3.47253C7.83362 3.4967 7.82371 3.51648 7.81161 3.51648C7.79951 3.51648 7.78961 3.54398 7.78961 3.57756C7.78961 3.61343 7.77143 3.65171 7.7456 3.67033C7.72139 3.68776 7.70159 3.7196 7.70159 3.74112C7.70159 3.76262 7.69169 3.78022 7.67958 3.78022C7.66748 3.78022 7.65758 3.79782 7.65758 3.81932C7.65758 3.84084 7.63777 3.87268 7.61357 3.89011C7.58937 3.90754 7.56956 3.93543 7.56956 3.95209C7.56956 3.96873 7.53985 4.01009 7.50355 4.04396C7.46724 4.07782 7.43753 4.11653 7.43753 4.12996C7.43753 4.16154 6.98356 4.61538 6.95196 4.61538C6.93878 4.61538 6.88993 4.65495 6.84341 4.7033C6.79689 4.75165 6.7454 4.79121 6.72897 4.79121C6.71253 4.79121 6.68482 4.81099 6.66737 4.83517C6.64993 4.85934 6.62022 4.87912 6.60136 4.87912C6.5825 4.87912 6.5528 4.8989 6.53535 4.92308C6.5179 4.94725 6.48601 4.96703 6.46447 4.96703C6.44295 4.96703 6.42532 4.97692 6.42532 4.98901C6.42532 5.0011 6.40552 5.01099 6.38132 5.01099C6.35711 5.01099 6.33731 5.02088 6.33731 5.03297C6.33731 5.04505 6.31968 5.05494 6.29816 5.05494C6.27662 5.05494 6.24473 5.07473 6.22728 5.0989C6.20983 5.12308 6.17795 5.14286 6.15641 5.14286C6.13489 5.14286 6.11726 5.15275 6.11726 5.16484C6.11726 5.17692 6.09746 5.18681 6.07325 5.18681C6.04905 5.18681 6.02924 5.1967 6.02924 5.20879C6.02924 5.22088 6.00944 5.23077 5.98523 5.23077C5.96103 5.23077 5.94123 5.24066 5.94123 5.25275C5.94123 5.26484 5.91152 5.27473 5.87521 5.27473C5.8389 5.27473 5.8092 5.28462 5.8092 5.2967C5.8092 5.30879 5.78939 5.31868 5.76519 5.31868C5.74098 5.31868 5.72118 5.32857 5.72118 5.34066C5.72118 5.35275 5.70138 5.36264 5.67717 5.36264C5.65297 5.36264 5.63316 5.37253 5.63316 5.38462C5.63316 5.3967 5.60346 5.40659 5.56715 5.40659C5.53084 5.40659 5.50113 5.41648 5.50113 5.42857C5.50113 5.44066 5.48133 5.45055 5.45713 5.45055C5.43292 5.45055 5.41312 5.46044 5.41312 5.47253C5.41312 5.48462 5.38341 5.49451 5.3471 5.49451C5.3108 5.49451 5.28109 5.5044 5.28109 5.51648C5.28109 5.52857 5.25138 5.53846 5.21508 5.53846C5.17877 5.53846 5.14906 5.54835 5.14906 5.56044C5.14906 5.57253 5.11936 5.58242 5.08305 5.58242C5.04674 5.58242 5.01703 5.59231 5.01703 5.6044C5.01703 5.61648 4.98733 5.62637 4.95102 5.62637C4.91471 5.62637 4.88501 5.63626 4.88501 5.64835C4.88501 5.66044 4.8553 5.67033 4.81899 5.67033C4.78269 5.67033 4.75298 5.68022 4.75298 5.69231C4.75298 5.7044 4.72327 5.71429 4.68697 5.71429C4.65066 5.71429 4.62095 5.72418 4.62095 5.73626C4.62095 5.74835 4.59125 5.75824 4.55494 5.75824C4.51863 5.75824 4.48893 5.76813 4.48893 5.78022C4.48893 5.79231 4.4614 5.8022 4.42778 5.8022C4.39186 5.8022 4.35353 5.82035 4.33489 5.84615C4.31744 5.87033 4.28556 5.89011 4.26402 5.89011C4.2425 5.89011 4.22487 5.9 4.22487 5.91209C4.22487 5.92418 4.20507 5.93407 4.18086 5.93407C4.15666 5.93407 4.13685 5.94396 4.13685 5.95604C4.13685 5.96813 4.12103 5.97802 4.10167 5.97802C4.08233 5.97802 4.03873 6.00769 4.00483 6.04396C3.97092 6.08022 3.9321 6.10989 3.91857 6.10989C3.88136 6.10989 3.60874 6.38993 3.60874 6.42815C3.60874 6.44653 3.59884 6.46154 3.58674 6.46154C3.57464 6.46154 3.56473 6.48132 3.56473 6.50549C3.56473 6.52967 3.55483 6.54945 3.54273 6.54945C3.52814 6.54945 3.52073 7.78022 3.52073 10.1978C3.52073 12.6154 3.52814 13.8462 3.54273 13.8462C3.55483 13.8462 3.56473 13.8659 3.56473 13.8901C3.56473 13.9143 3.57464 13.9341 3.58674 13.9341C3.59884 13.9341 3.60874 13.9491 3.60874 13.9675C3.60874 14.0082 3.83841 14.2418 3.87848 14.2418C3.89421 14.2418 3.92136 14.2615 3.93881 14.2857C3.95626 14.3099 3.98815 14.3297 4.00969 14.3297C4.03121 14.3297 4.04883 14.3396 4.04883 14.3516C4.04883 14.3637 4.06646 14.3736 4.08798 14.3736C4.10952 14.3736 4.14141 14.3934 4.15886 14.4176C4.17631 14.4418 4.20601 14.4615 4.22487 14.4615C4.24373 14.4615 4.27344 14.4813 4.29088 14.5055C4.30833 14.5297 4.34022 14.5495 4.36176 14.5495C4.38328 14.5495 4.40091 14.5593 4.40091 14.5714C4.40091 14.5835 4.42071 14.5934 4.44492 14.5934C4.46912 14.5934 4.48893 14.6033 4.48893 14.6154C4.48893 14.6275 4.50873 14.6374 4.53293 14.6374C4.55714 14.6374 4.57694 14.6473 4.57694 14.6593C4.57694 14.6714 4.59675 14.6813 4.62095 14.6813C4.64516 14.6813 4.66496 14.6912 4.66496 14.7033C4.66496 14.7154 4.68477 14.7253 4.70897 14.7253C4.73318 14.7253 4.75298 14.7352 4.75298 14.7473C4.75298 14.7593 4.77278 14.7692 4.79699 14.7692C4.82119 14.7692 4.841 14.7791 4.841 14.7912C4.841 14.8033 4.8707 14.8132 4.90701 14.8132C4.94332 14.8132 4.97303 14.8231 4.97303 14.8352C4.97303 14.8473 4.99283 14.8571 5.01703 14.8571C5.04124 14.8571 5.06104 14.867 5.06104 14.8791C5.06104 14.8912 5.08085 14.9011 5.10505 14.9011C5.12926 14.9011 5.14906 14.911 5.14906 14.9231C5.14906 14.9352 5.17877 14.9451 5.21508 14.9451C5.25138 14.9451 5.28109 14.9549 5.28109 14.967C5.28109 14.9791 5.30089 14.989 5.3251 14.989C5.3493 14.989 5.36911 14.9989 5.36911 15.011C5.36911 15.0231 5.39881 15.033 5.43512 15.033C5.47143 15.033 5.50113 15.0429 5.50113 15.0549C5.50113 15.067 5.52094 15.0769 5.54514 15.0769C5.56935 15.0769 5.58915 15.0868 5.58915 15.0989C5.58915 15.111 5.61886 15.1209 5.65517 15.1209C5.69147 15.1209 5.72118 15.1308 5.72118 15.1429C5.72118 15.1549 5.75089 15.1648 5.78719 15.1648C5.8235 15.1648 5.85321 15.1747 5.85321 15.1868C5.85321 15.1989 5.87301 15.2088 5.89722 15.2088C5.92142 15.2088 5.94123 15.2187 5.94123 15.2308C5.94123 15.2429 5.97093 15.2527 6.00724 15.2527C6.04355 15.2527 6.07325 15.2626 6.07325 15.2747C6.07325 15.2868 6.10296 15.2967 6.13927 15.2967C6.17557 15.2967 6.20528 15.3066 6.20528 15.3187C6.20528 15.3308 6.23499 15.3407 6.27129 15.3407C6.3076 15.3407 6.33731 15.3505 6.33731 15.3626C6.33731 15.3747 6.36701 15.3846 6.40332 15.3846C6.43963 15.3846 6.46933 15.3945 6.46933 15.4066C6.46933 15.4187 6.49904 15.4286 6.53535 15.4286C6.57166 15.4286 6.60136 15.4385 6.60136 15.4506C6.60136 15.4626 6.63107 15.4725 6.66737 15.4725C6.70368 15.4725 6.73339 15.4824 6.73339 15.4945C6.73339 15.5066 6.773 15.5165 6.82141 15.5165C6.86982 15.5165 6.90942 15.5264 6.90942 15.5385C6.90942 15.5505 6.93913 15.5604 6.97544 15.5604C7.01175 15.5604 7.04145 15.5703 7.04145 15.5824C7.04145 15.5945 7.08106 15.6044 7.12947 15.6044C7.17788 15.6044 7.21749 15.6143 7.21749 15.6264C7.21749 15.6385 7.2571 15.6484 7.30551 15.6484C7.35392 15.6484 7.39352 15.6582 7.39352 15.6703C7.39352 15.6824 7.42323 15.6923 7.45954 15.6923C7.49585 15.6923 7.52555 15.7022 7.52555 15.7143C7.52555 15.7264 7.57506 15.7363 7.63557 15.7363C7.69609 15.7363 7.7456 15.7462 7.7456 15.7582C7.7456 15.7703 7.78521 15.7802 7.83362 15.7802C7.88203 15.7802 7.92163 15.7901 7.92163 15.8022C7.92163 15.8143 7.97114 15.8242 8.03166 15.8242C8.09217 15.8242 8.14168 15.8341 8.14168 15.8462C8.14168 15.8582 8.19119 15.8681 8.2517 15.8681C8.31221 15.8681 8.36172 15.878 8.36172 15.8901C8.36172 15.9027 8.42774 15.9121 8.51576 15.9121C8.60377 15.9121 8.66979 15.9215 8.66979 15.9341C8.66979 15.9469 8.74313 15.956 8.84582 15.956C8.94852 15.956 9.02186 15.9652 9.02186 15.978C9.02186 15.9925 9.67467 16 10.9363 16C12.1978 16 12.8506 15.9925 12.8506 15.978C12.8506 15.9646 12.9533 15.956 13.1147 15.956C13.2761 15.956 13.3788 15.9475 13.3788 15.9341C13.3788 15.921 13.4594 15.9121 13.5768 15.9121C13.6941 15.9121 13.7748 15.9031 13.7748 15.8901C13.7748 15.8773 13.8482 15.8681 13.9509 15.8681C14.0536 15.8681 14.1269 15.859 14.1269 15.8462C14.1269 15.8339 14.1856 15.8242 14.2589 15.8242C14.3323 15.8242 14.391 15.8144 14.391 15.8022C14.391 15.7901 14.4306 15.7802 14.479 15.7802C14.5274 15.7802 14.567 15.7703 14.567 15.7582C14.567 15.7462 14.6066 15.7363 14.655 15.7363C14.7034 15.7363 14.743 15.7264 14.743 15.7143C14.743 15.7022 14.7727 15.6923 14.8091 15.6923C14.8454 15.6923 14.8751 15.6824 14.8751 15.6703C14.8751 15.6582 14.8949 15.6484 14.9191 15.6484C14.9433 15.6484 14.9631 15.6385 14.9631 15.6264C14.9631 15.6143 14.9807 15.6044 15.0022 15.6044C15.0238 15.6044 15.0557 15.5846 15.0731 15.5604C15.0906 15.5363 15.1176 15.5165 15.1333 15.5165C15.1734 15.5165 15.4912 15.1947 15.4912 15.1542C15.4912 15.1359 15.5011 15.1209 15.5132 15.1209C15.5253 15.1209 15.5352 15.1011 15.5352 15.0769C15.5352 15.0527 15.5451 15.033 15.5572 15.033C15.5693 15.033 15.5792 15.0132 15.5792 14.989C15.5792 14.9648 15.5891 14.9451 15.6012 14.9451C15.6133 14.9451 15.6232 14.9253 15.6232 14.9011C15.6232 14.8769 15.6331 14.8571 15.6452 14.8571C15.6573 14.8571 15.6672 14.8176 15.6672 14.7692C15.6672 14.7209 15.6771 14.6813 15.6892 14.6813C15.7013 14.6813 15.7112 14.6319 15.7112 14.5714C15.7112 14.511 15.7211 14.4615 15.7332 14.4615C15.7466 14.4615 15.7552 14.3663 15.7552 14.2198C15.7552 14.0733 15.7466 13.978 15.7332 13.978C15.7211 13.978 15.7112 13.9385 15.7112 13.8901C15.7112 13.8418 15.7013 13.8022 15.6892 13.8022C15.6771 13.8022 15.6672 13.7868 15.6672 13.768C15.6672 13.7492 15.6078 13.6756 15.5352 13.6044C15.3861 13.4582 15.3688 13.4066 15.4692 13.4066C15.5055 13.4066 15.5352 13.3967 15.5352 13.3846C15.5352 13.3725 15.551 13.3626 15.5704 13.3626C15.5897 13.3626 15.6333 13.333 15.6672 13.2967C15.7011 13.2604 15.7405 13.2308 15.7547 13.2308C15.7879 13.2308 15.8433 13.1755 15.8433 13.1423C15.8433 13.1281 15.873 13.0888 15.9093 13.0549C15.9456 13.0211 15.9753 12.9775 15.9753 12.9582C15.9753 12.9389 15.9852 12.9231 15.9973 12.9231C16.0094 12.9231 16.0193 12.9033 16.0193 12.8791C16.0193 12.8549 16.0292 12.8352 16.0413 12.8352C16.0534 12.8352 16.0633 12.8154 16.0633 12.7912C16.0633 12.767 16.0732 12.7473 16.0853 12.7473C16.0974 12.7473 16.1073 12.7275 16.1073 12.7033C16.1073 12.6791 16.1172 12.6593 16.1293 12.6593C16.1414 12.6593 16.1513 12.6297 16.1513 12.5934C16.1513 12.5571 16.1612 12.5275 16.1733 12.5275C16.1854 12.5275 16.1953 12.478 16.1953 12.4176C16.1953 12.3571 16.2052 12.3077 16.2173 12.3077C16.2299 12.3077 16.2393 12.2418 16.2393 12.1538C16.2393 12.0659 16.2488 12 16.2614 12C16.2742 12 16.2834 11.9267 16.2834 11.8242C16.2834 11.7216 16.2742 11.6484 16.2614 11.6484C16.2493 11.6484 16.2393 11.5989 16.2393 11.5385C16.2393 11.478 16.2294 11.4286 16.2173 11.4286C16.2052 11.4286 16.1953 11.3989 16.1953 11.3626C16.1953 11.3264 16.1854 11.2967 16.1733 11.2967C16.1612 11.2967 16.1513 11.2692 16.1513 11.2356C16.1513 11.1998 16.1332 11.1615 16.1073 11.1429C16.0831 11.1254 16.0633 11.0978 16.0633 11.0813C16.0633 11.0649 16.0237 11.0135 15.9753 10.967C15.9269 10.9206 15.8873 10.8769 15.8873 10.8698C15.8873 10.8629 15.917 10.8571 15.9533 10.8571C15.9896 10.8571 16.0193 10.8473 16.0193 10.8352C16.0193 10.8231 16.0468 10.8132 16.0805 10.8132C16.1164 10.8132 16.1547 10.795 16.1733 10.7692C16.1908 10.7451 16.2205 10.7253 16.2393 10.7253C16.2582 10.7253 16.2879 10.7055 16.3054 10.6813C16.3228 10.6571 16.3501 10.6374 16.366 10.6374C16.4013 10.6374 16.5474 10.4946 16.5474 10.4601C16.5474 10.4464 16.5771 10.4075 16.6134 10.3736C16.6497 10.3398 16.6794 10.2962 16.6794 10.2769C16.6794 10.2576 16.6893 10.2418 16.7014 10.2418C16.7135 10.2418 16.7234 10.222 16.7234 10.1978C16.7234 10.1736 16.7334 10.1538 16.7455 10.1538C16.7576 10.1538 16.7675 10.1242 16.7675 10.0879C16.7675 10.0516 16.7774 10.022 16.7895 10.022C16.8016 10.022 16.8115 9.99231 16.8115 9.95604C16.8115 9.91978 16.8214 9.89011 16.8335 9.89011C16.8456 9.89011 16.8555 9.85055 16.8555 9.8022C16.8555 9.75385 16.8654 9.71429 16.8775 9.71429C16.8914 9.71429 16.8995 9.55312 16.8995 9.27473C16.8995 8.99633 16.8914 8.83517 16.8775 8.83517C16.8654 8.83517 16.8555 8.80549 16.8555 8.76923C16.8555 8.73297 16.8456 8.7033 16.8335 8.7033C16.8214 8.7033 16.8115 8.67363 16.8115 8.63736C16.8115 8.6011 16.8016 8.57143 16.7895 8.57143C16.7774 8.57143 16.7675 8.55165 16.7675 8.52747C16.7675 8.5033 16.7576 8.48352 16.7455 8.48352C16.7334 8.48352 16.7234 8.46771 16.7234 8.44837C16.7234 8.42906 16.6937 8.38552 16.6574 8.35165C16.6211 8.31778 16.5914 8.27848 16.5914 8.26433C16.5914 8.22941 16.5354 8.17582 16.4988 8.17582C16.4825 8.17582 16.4548 8.15604 16.4374 8.13187C16.4199 8.10769 16.3925 8.08791 16.3765 8.08791C16.3484 8.08791 16.2393 7.99257 16.2393 7.96802C16.2393 7.96143 16.279 7.95604 16.3274 7.95604C16.3758 7.95604 16.4154 7.94615 16.4154 7.93407C16.4154 7.92198 16.4451 7.91209 16.4814 7.91209C16.5177 7.91209 16.5474 7.9022 16.5474 7.89011C16.5474 7.87802 16.565 7.86813 16.5866 7.86813C16.6081 7.86813 16.64 7.84835 16.6574 7.82418C16.6749 7.8 16.702 7.78022 16.7178 7.78022C16.7551 7.78022 16.9875 7.54807 16.9875 7.51081C16.9875 7.4951 17.0073 7.46798 17.0315 7.45055C17.0557 7.43312 17.0755 7.40127 17.0755 7.37976C17.0755 7.35826 17.0854 7.34066 17.0975 7.34066C17.1096 7.34066 17.1195 7.32088 17.1195 7.2967C17.1195 7.27253 17.1294 7.25275 17.1415 7.25275C17.1536 7.25275 17.1635 7.21319 17.1635 7.16484C17.1635 7.11648 17.1734 7.07692 17.1855 7.07692C17.1993 7.07692 17.2075 6.94506 17.2075 6.72528C17.2075 6.50549 17.1993 6.37363 17.1855 6.37363C17.1734 6.37363 17.1635 6.33407 17.1635 6.28571C17.1635 6.23736 17.1536 6.1978 17.1415 6.1978C17.1294 6.1978 17.1195 6.16813 17.1195 6.13187C17.1195 6.0956 17.1096 6.06593 17.0975 6.06593C17.0854 6.06593 17.0755 6.04615 17.0755 6.02198C17.0755 5.9978 17.0656 5.97802 17.0535 5.97802C17.0414 5.97802 17.0315 5.95824 17.0315 5.93407C17.0315 5.90989 17.0216 5.89011 17.0095 5.89011C16.9974 5.89011 16.9875 5.87033 16.9875 5.84615C16.9875 5.82198 16.9776 5.8022 16.9655 5.8022C16.9534 5.8022 16.9435 5.78723 16.9435 5.76892C16.9435 5.72846 16.5816 5.36264 16.5416 5.36264C16.5259 5.36264 16.4988 5.34286 16.4814 5.31868C16.4639 5.29451 16.4321 5.27473 16.4105 5.27473C16.389 5.27473 16.3714 5.26484 16.3714 5.25275C16.3714 5.24066 16.3417 5.23077 16.3054 5.23077C16.2691 5.23077 16.2393 5.22088 16.2393 5.20879C16.2393 5.1967 16.2195 5.18681 16.1953 5.18681C16.1711 5.18681 16.1513 5.17692 16.1513 5.16484C16.1513 5.15275 16.1117 5.14286 16.0633 5.14286C16.0149 5.14286 15.9753 5.13297 15.9753 5.12088C15.9753 5.10879 15.9258 5.0989 15.8653 5.0989C15.8048 5.0989 15.7552 5.08901 15.7552 5.07692C15.7552 5.06303 15.6012 5.05494 15.3372 5.05494C15.0731 5.05494 14.9191 5.04686 14.9191 5.03297C14.9191 5.01851 14.3323 5.01099 13.2027 5.01099H11.4864V4.94506C11.4864 4.90879 11.4963 4.87912 11.5084 4.87912C11.5205 4.87912 11.5304 4.84945 11.5304 4.81319C11.5304 4.77692 11.5403 4.74725 11.5524 4.74725C11.5645 4.74725 11.5744 4.6978 11.5744 4.63736C11.5744 4.57692 11.5843 4.52747 11.5964 4.52747C11.6086 4.52747 11.6184 4.46886 11.6184 4.3956C11.6184 4.32235 11.6282 4.26374 11.6404 4.26374C11.6545 4.26374 11.6624 4.04396 11.6624 3.64835C11.6624 3.25275 11.6545 3.03297 11.6404 3.03297C11.6283 3.03297 11.6184 2.98352 11.6184 2.92308C11.6184 2.86264 11.6085 2.81319 11.5964 2.81319C11.5843 2.81319 11.5744 2.76374 11.5744 2.7033C11.5744 2.64286 11.5645 2.59341 11.5524 2.59341C11.5403 2.59341 11.5304 2.55385 11.5304 2.50549C11.5304 2.45714 11.5205 2.41758 11.5084 2.41758C11.4963 2.41758 11.4864 2.37802 11.4864 2.32967C11.4864 2.28132 11.4765 2.24176 11.4644 2.24176C11.4523 2.24176 11.4424 2.22198 11.4424 2.1978C11.4424 2.17363 11.4325 2.15385 11.4204 2.15385C11.4083 2.15385 11.3984 2.12418 11.3984 2.08791C11.3984 2.05165 11.3884 2.02198 11.3763 2.02198C11.3642 2.02198 11.3543 1.99231 11.3543 1.95604C11.3543 1.91978 11.3444 1.89011 11.3323 1.89011C11.3202 1.89011 11.3103 1.87033 11.3103 1.84615C11.3103 1.82198 11.3004 1.8022 11.2883 1.8022C11.2762 1.8022 11.2663 1.77253 11.2663 1.73626C11.2663 1.7 11.2564 1.67033 11.2443 1.67033C11.2322 1.67033 11.2223 1.65055 11.2223 1.62637C11.2223 1.6022 11.2124 1.58242 11.2003 1.58242C11.1882 1.58242 11.1783 1.56264 11.1783 1.53846C11.1783 1.51429 11.1684 1.49451 11.1563 1.49451C11.1442 1.49451 11.1343 1.4769 11.1343 1.45541C11.1343 1.43389 11.1145 1.40204 11.0903 1.38462C11.0661 1.36719 11.0463 1.33534 11.0463 1.31382C11.0463 1.29233 11.0364 1.27473 11.0243 1.27473C11.0122 1.27473 11.0023 1.25495 11.0023 1.23077C11.0023 1.20659 10.9924 1.18681 10.9803 1.18681C10.9682 1.18681 10.9583 1.17101 10.9583 1.15167C10.9583 1.13235 10.9286 1.08881 10.8922 1.05495C10.8559 1.02108 10.8262 0.981846 10.8262 0.96778C10.8262 0.953714 10.7767 0.894044 10.7162 0.835165C10.6557 0.776286 10.6062 0.717275 10.6062 0.704C10.6062 0.67244 10.4608 0.527473 10.4292 0.527473C10.4157 0.527473 10.3666 0.487912 10.3201 0.43956C10.2736 0.391209 10.2221 0.351648 10.2057 0.351648C10.1892 0.351648 10.1615 0.331868 10.1441 0.307692C10.1266 0.283516 10.0969 0.263736 10.0781 0.263736C10.0592 0.263736 10.0295 0.243956 10.0121 0.21978C9.99461 0.195604 9.96273 0.175824 9.94119 0.175824C9.91967 0.175824 9.90204 0.165934 9.90204 0.153846C9.90204 0.141758 9.87234 0.131868 9.83603 0.131868C9.79972 0.131868 9.77001 0.121978 9.77001 0.10989C9.77001 0.0978022 9.75021 0.0879121 9.72601 0.0879121C9.7018 0.0879121 9.682 0.078022 9.682 0.0659341C9.682 0.0538462 9.64239 0.043956 9.59398 0.043956C9.54557 0.043956 9.50596 0.0340659 9.50596 0.021978C9.50596 0.00846154 9.39594 0 9.2199 0C9.04387 0 8.93384 0.00846154 8.93384 0.021978ZM0.572118 6C0.572118 6.01209 0.542412 6.02198 0.506104 6.02198C0.469797 6.02198 0.440091 6.03187 0.440091 6.04396C0.440091 6.05604 0.425018 6.06593 0.4066 6.06593C0.363031 6.06593 0.132027 6.29666 0.132027 6.34018C0.132027 6.35857 0.122125 6.37363 0.110023 6.37363C0.0979202 6.37363 0.0880181 6.39341 0.0880181 6.41758C0.0880181 6.44176 0.0781161 6.46154 0.0660136 6.46154C0.0539111 6.46154 0.0440091 6.5011 0.0440091 6.54945C0.0440091 6.5978 0.034107 6.63736 0.0220045 6.63736C0.00741553 6.63736 0 7.85347 0 10.2418C0 12.63 0.00741553 13.8462 0.0220045 13.8462C0.034107 13.8462 0.0440091 13.8758 0.0440091 13.9121C0.0440091 13.9484 0.0539111 13.978 0.0660136 13.978C0.0781161 13.978 0.0880181 13.9978 0.0880181 14.022C0.0880181 14.0462 0.0979202 14.0659 0.110023 14.0659C0.122125 14.0659 0.132027 14.081 0.132027 14.0995C0.132027 14.1431 0.318824 14.3297 0.362503 14.3297C0.380965 14.3297 0.396082 14.3396 0.396082 14.3516C0.396082 14.3637 0.43569 14.3736 0.4841 14.3736C0.53251 14.3736 0.572118 14.3835 0.572118 14.3956C0.572118 14.4098 0.814168 14.4176 1.25426 14.4176C1.69435 14.4176 1.9364 14.4098 1.9364 14.3956C1.9364 14.3835 1.96611 14.3736 2.00241 14.3736C2.03872 14.3736 2.06843 14.3637 2.06843 14.3516C2.06843 14.3396 2.0835 14.3297 2.10192 14.3297C2.14549 14.3297 2.37649 14.0989 2.37649 14.0554C2.37649 14.037 2.38639 14.022 2.39849 14.022C2.4106 14.022 2.4205 13.9824 2.4205 13.9341C2.4205 13.8857 2.4304 13.8462 2.4425 13.8462C2.45709 13.8462 2.46451 12.63 2.46451 10.2418C2.46451 7.85347 2.45709 6.63736 2.4425 6.63736C2.4304 6.63736 2.4205 6.5978 2.4205 6.54945C2.4205 6.5011 2.4106 6.46154 2.39849 6.46154C2.38639 6.46154 2.37649 6.44176 2.37649 6.41758C2.37649 6.39341 2.36659 6.37363 2.35449 6.37363C2.34238 6.37363 2.33248 6.35385 2.33248 6.32967C2.33248 6.30549 2.32258 6.28571 2.31048 6.28571C2.29837 6.28571 2.28847 6.27044 2.28847 6.25176C2.28847 6.20778 2.19046 6.10989 2.14643 6.10989C2.12773 6.10989 2.11244 6.1 2.11244 6.08791C2.11244 6.07582 2.09263 6.06593 2.06843 6.06593C2.04422 6.06593 2.02442 6.05604 2.02442 6.04396C2.02442 6.03187 1.99471 6.02198 1.9584 6.02198C1.9221 6.02198 1.89239 6.01209 1.89239 6C1.89239 5.98585 1.65767 5.97802 1.23225 5.97802C0.80684 5.97802 0.572118 5.98585 0.572118 6Z" fill="#9DA4AA"/>
</svg>
