<svg width="1050" height="264" viewBox="0 0 1050 264" fill="none" xmlns="http://www.w3.org/2000/svg">
<path d="M100.509 3.67184C100.68 1.59695 102.413 0 104.495 0H117.657C119.996 0 121.836 1.99749 121.644 4.32817L120.491 18.3282C120.32 20.403 118.587 22 116.505 22H103.343C101.004 22 99.1644 20.0025 99.3563 17.6718L100.509 3.67184Z" fill="#F3C101" fill-opacity="0.1"/>
<path d="M1.50876 77.6718C1.67956 75.597 3.41337 74 5.49528 74H18.6572C20.9957 74 22.8356 75.9975 22.6437 78.3282L21.4912 92.3282C21.3204 94.403 19.5866 96 17.5047 96H4.34281C2.00425 96 0.164432 94.0025 0.356291 91.6718L1.50876 77.6718Z" fill="#F3C101" fill-opacity="0.5"/>
<path d="M1008.51 55.6718C1008.68 53.597 1010.41 52 1012.5 52H1025.66C1028 52 1029.84 53.9975 1029.64 56.3282L1028.49 70.3282C1028.32 72.403 1026.59 74 1024.5 74H1011.34C1009 74 1007.16 72.0025 1007.36 69.6718L1008.51 55.6718Z" fill="#F3C101" fill-opacity="0.5"/>
<path d="M906.509 154.672C906.68 152.597 908.413 151 910.495 151H923.657C925.996 151 927.836 152.997 927.644 155.328L926.491 169.328C926.32 171.403 924.587 173 922.505 173H909.343C907.004 173 905.164 171.003 905.356 168.672L906.509 154.672Z" fill="#F3C101" fill-opacity="0.3"/>
<path d="M1028.51 245.672C1028.68 243.597 1030.41 242 1032.5 242H1045.66C1048 242 1049.84 243.997 1049.64 246.328L1048.49 260.328C1048.32 262.403 1046.59 264 1044.5 264H1031.34C1029 264 1027.16 262.003 1027.36 259.672L1028.51 245.672Z" fill="#F3C101" fill-opacity="0.1"/>
<path d="M91.5088 192.672C91.6796 190.597 93.4134 189 95.4953 189H108.657C110.996 189 112.836 190.997 112.644 193.328L111.491 207.328C111.32 209.403 109.587 211 107.505 211H94.3428C92.0043 211 90.1644 209.003 90.3563 206.672L91.5088 192.672Z" fill="#F3C101" fill-opacity="0.3"/>
</svg>
