<svg width="259" height="212" viewBox="0 0 259 212" fill="none" xmlns="http://www.w3.org/2000/svg">
<rect x="1" width="258" height="212" rx="15" fill="white"/>
<rect y="57" width="259" height="47" fill="#F8FAFC"/>
<path d="M29.4028 42H33.2847L37.6792 27.8154H38.79V24.3853H35.5552L29.4028 42ZM32.7109 37.7275H42.7207L41.8174 34.9688H33.6143L32.7109 37.7275ZM42.1592 42H46.0288L39.8887 24.3853H37.7646V27.8154L42.1592 42ZM51.5225 42.2563C52.1572 42.2563 52.735 42.1587 53.2559 41.9634C53.7767 41.7599 54.2324 41.4751 54.623 41.1089C55.0137 40.7427 55.3229 40.3032 55.5508 39.7905H55.6484V42H59.2129V24.251H55.6484V31.1235H55.5508C55.3148 30.6027 54.9974 30.1551 54.5986 29.7808C54.208 29.3983 53.7523 29.1094 53.2314 28.9141C52.7106 28.7106 52.141 28.6089 51.5225 28.6089C50.4238 28.6089 49.4757 28.8815 48.6782 29.4268C47.8807 29.9639 47.2622 30.741 46.8228 31.7583C46.3914 32.7756 46.1758 33.9963 46.1758 35.4204V35.4326C46.1758 36.8486 46.3914 38.0693 46.8228 39.0947C47.2541 40.112 47.8685 40.8932 48.666 41.4385C49.4717 41.9837 50.4238 42.2563 51.5225 42.2563ZM52.7188 39.3022C52.1247 39.3022 51.6079 39.1476 51.1685 38.8384C50.729 38.5291 50.3913 38.0856 50.1553 37.5078C49.9193 36.9219 49.8013 36.2301 49.8013 35.4326V35.4204C49.8013 34.6229 49.9193 33.9352 50.1553 33.3574C50.3994 32.7796 50.7371 32.3361 51.1685 32.0269C51.6079 31.7176 52.1247 31.563 52.7188 31.563C53.3047 31.563 53.8174 31.7217 54.2568 32.0391C54.6963 32.3483 55.0381 32.7918 55.2822 33.3696C55.5345 33.9474 55.6606 34.6351 55.6606 35.4326V35.4448C55.6606 36.2342 55.5386 36.9178 55.2944 37.4956C55.0503 38.0734 54.7044 38.521 54.2568 38.8384C53.8174 39.1476 53.3047 39.3022 52.7188 39.3022ZM66.1104 42.2563C66.7451 42.2563 67.3229 42.1587 67.8438 41.9634C68.3646 41.7599 68.8203 41.4751 69.2109 41.1089C69.6016 40.7427 69.9108 40.3032 70.1387 39.7905H70.2363V42H73.8008V24.251H70.2363V31.1235H70.1387C69.9027 30.6027 69.5853 30.1551 69.1865 29.7808C68.7959 29.3983 68.3402 29.1094 67.8193 28.9141C67.2985 28.7106 66.7288 28.6089 66.1104 28.6089C65.0117 28.6089 64.0636 28.8815 63.2661 29.4268C62.4686 29.9639 61.8501 30.741 61.4106 31.7583C60.9793 32.7756 60.7637 33.9963 60.7637 35.4204V35.4326C60.7637 36.8486 60.9793 38.0693 61.4106 39.0947C61.842 40.112 62.4564 40.8932 63.2539 41.4385C64.0596 41.9837 65.0117 42.2563 66.1104 42.2563ZM67.3066 39.3022C66.7126 39.3022 66.1958 39.1476 65.7563 38.8384C65.3169 38.5291 64.9792 38.0856 64.7432 37.5078C64.5072 36.9219 64.3892 36.2301 64.3892 35.4326V35.4204C64.3892 34.6229 64.5072 33.9352 64.7432 33.3574C64.9873 32.7796 65.325 32.3361 65.7563 32.0269C66.1958 31.7176 66.7126 31.563 67.3066 31.563C67.8926 31.563 68.4053 31.7217 68.8447 32.0391C69.2842 32.3483 69.626 32.7918 69.8701 33.3696C70.1224 33.9474 70.2485 34.6351 70.2485 35.4326V35.4448C70.2485 36.2342 70.1265 36.9178 69.8823 37.4956C69.6382 38.0734 69.2923 38.521 68.8447 38.8384C68.4053 39.1476 67.8926 39.3022 67.3066 39.3022ZM85.7646 42.2441C86.1309 42.2441 86.4604 42.2279 86.7534 42.1953C87.0464 42.1628 87.2946 42.1302 87.498 42.0977V39.4854C87.376 39.5016 87.2498 39.5179 87.1196 39.5342C86.9976 39.5423 86.8551 39.5464 86.6924 39.5464C86.139 39.5464 85.728 39.4243 85.4595 39.1802C85.1909 38.936 85.0566 38.5088 85.0566 37.8984V31.5508H87.498V28.8652H85.0566V25.667H81.4556V28.8652H79.6001V31.5508H81.4556V38.3501C81.4556 39.7336 81.8055 40.7305 82.5054 41.3408C83.2052 41.943 84.2917 42.2441 85.7646 42.2441ZM94.9204 42.2686C96.255 42.2686 97.4066 42 98.375 41.4629C99.3434 40.9176 100.092 40.1364 100.621 39.1191C101.158 38.0938 101.427 36.869 101.427 35.4448V35.4204C101.427 33.9963 101.158 32.7756 100.621 31.7583C100.084 30.741 99.3271 29.9598 98.3506 29.4146C97.3822 28.8693 96.2388 28.5967 94.9204 28.5967C93.6102 28.5967 92.4668 28.8693 91.4902 29.4146C90.5137 29.9598 89.7568 30.7451 89.2197 31.7705C88.6826 32.7878 88.4141 34.0044 88.4141 35.4204V35.4448C88.4141 36.8608 88.6785 38.0815 89.2075 39.1069C89.7365 40.1242 90.4893 40.9054 91.4658 41.4507C92.4424 41.9959 93.5939 42.2686 94.9204 42.2686ZM94.9326 39.4731C94.3385 39.4731 93.8258 39.3185 93.3945 39.0093C92.9632 38.6919 92.6296 38.2321 92.3936 37.6299C92.1657 37.0277 92.0518 36.2993 92.0518 35.4448V35.4204C92.0518 34.5659 92.1698 33.8416 92.4058 33.2476C92.6418 32.6453 92.9754 32.1855 93.4067 31.8682C93.8381 31.5508 94.3426 31.3921 94.9204 31.3921C95.4982 31.3921 96.0028 31.5508 96.4341 31.8682C96.8654 32.1855 97.1991 32.6453 97.4351 33.2476C97.6711 33.8416 97.7891 34.5659 97.7891 35.4204V35.4448C97.7891 36.2993 97.6711 37.0277 97.4351 37.6299C97.2072 38.2321 96.8776 38.6919 96.4463 39.0093C96.0231 39.3185 95.5186 39.4731 94.9326 39.4731ZM115.649 42.3296C117.073 42.3296 118.339 42.057 119.445 41.5117C120.56 40.9665 121.459 40.2137 122.143 39.2534C122.827 38.285 123.225 37.1782 123.339 35.9331L123.352 35.7988H119.763L119.738 35.9209C119.584 36.6126 119.319 37.2026 118.945 37.6909C118.57 38.1792 118.107 38.5535 117.553 38.814C117 39.0744 116.369 39.2046 115.661 39.2046C114.725 39.2046 113.907 38.9604 113.208 38.4722C112.516 37.9839 111.983 37.2922 111.608 36.397C111.234 35.4937 111.047 34.4235 111.047 33.1865V33.1743C111.047 31.9373 111.234 30.8713 111.608 29.9761C111.983 29.0809 112.516 28.3932 113.208 27.9131C113.899 27.4248 114.713 27.1807 115.649 27.1807C116.381 27.1807 117.024 27.3149 117.578 27.5835C118.139 27.8521 118.599 28.2305 118.957 28.7188C119.315 29.1989 119.563 29.7645 119.702 30.4155L119.75 30.6108H123.339L123.327 30.4888C123.213 29.2355 122.814 28.1287 122.131 27.1685C121.455 26.2 120.56 25.4391 119.445 24.8857C118.339 24.3324 117.073 24.0557 115.649 24.0557C113.94 24.0557 112.459 24.4219 111.206 25.1543C109.952 25.8867 108.984 26.9325 108.3 28.2915C107.617 29.6506 107.275 31.2782 107.275 33.1743V33.1865C107.275 35.0827 107.613 36.7144 108.288 38.0815C108.972 39.4406 109.94 40.4904 111.193 41.231C112.455 41.9634 113.94 42.3296 115.649 42.3296ZM130.969 42.2686C132.304 42.2686 133.455 42 134.424 41.4629C135.392 40.9176 136.141 40.1364 136.67 39.1191C137.207 38.0938 137.476 36.869 137.476 35.4448V35.4204C137.476 33.9963 137.207 32.7756 136.67 31.7583C136.133 30.741 135.376 29.9598 134.399 29.4146C133.431 28.8693 132.288 28.5967 130.969 28.5967C129.659 28.5967 128.516 28.8693 127.539 29.4146C126.562 29.9598 125.806 30.7451 125.269 31.7705C124.731 32.7878 124.463 34.0044 124.463 35.4204V35.4448C124.463 36.8608 124.727 38.0815 125.256 39.1069C125.785 40.1242 126.538 40.9054 127.515 41.4507C128.491 41.9959 129.643 42.2686 130.969 42.2686ZM130.981 39.4731C130.387 39.4731 129.875 39.3185 129.443 39.0093C129.012 38.6919 128.678 38.2321 128.442 37.6299C128.215 37.0277 128.101 36.2993 128.101 35.4448V35.4204C128.101 34.5659 128.219 33.8416 128.455 33.2476C128.691 32.6453 129.024 32.1855 129.456 31.8682C129.887 31.5508 130.391 31.3921 130.969 31.3921C131.547 31.3921 132.052 31.5508 132.483 31.8682C132.914 32.1855 133.248 32.6453 133.484 33.2476C133.72 33.8416 133.838 34.5659 133.838 35.4204V35.4448C133.838 36.2993 133.72 37.0277 133.484 37.6299C133.256 38.2321 132.926 38.6919 132.495 39.0093C132.072 39.3185 131.567 39.4731 130.981 39.4731ZM139.039 42H142.603V24.251H139.039V42ZM144.789 42H148.353V24.251H144.789V42ZM156.398 42.2686C157.342 42.2686 158.164 42.1465 158.864 41.9023C159.564 41.6582 160.154 41.3327 160.634 40.9258C161.122 40.5189 161.505 40.0754 161.781 39.5952C162.066 39.1151 162.261 38.639 162.367 38.167L162.392 38.0205H159.12L159.096 38.0938C159.014 38.3379 158.86 38.578 158.632 38.814C158.404 39.0418 158.111 39.2331 157.753 39.3877C157.395 39.5342 156.968 39.6074 156.471 39.6074C155.853 39.6074 155.316 39.4731 154.86 39.2046C154.412 38.9279 154.066 38.5332 153.822 38.0205C153.586 37.4997 153.468 36.8771 153.468 36.1528V34.7612C153.468 34.0125 153.59 33.3778 153.834 32.8569C154.079 32.328 154.412 31.9292 154.835 31.6606C155.267 31.3921 155.759 31.2578 156.312 31.2578C156.874 31.2578 157.362 31.388 157.777 31.6484C158.201 31.9089 158.53 32.2995 158.766 32.8203C159.01 33.3411 159.132 33.9881 159.132 34.7612V36.1406L160.817 34.041H151.698V36.2871H162.501V35.1763C162.501 33.8579 162.249 32.7064 161.745 31.7217C161.24 30.7288 160.52 29.9598 159.584 29.4146C158.648 28.8693 157.537 28.5967 156.251 28.5967C154.974 28.5967 153.863 28.8774 152.919 29.439C151.975 30.0005 151.243 30.7939 150.722 31.8193C150.201 32.8447 149.94 34.0532 149.94 35.4448V35.457C149.94 36.8568 150.201 38.0693 150.722 39.0947C151.243 40.112 151.983 40.8973 152.943 41.4507C153.912 41.9959 155.063 42.2686 156.398 42.2686ZM169.96 42.2686C171.124 42.2686 172.137 42.0529 173 41.6216C173.863 41.1821 174.542 40.5881 175.039 39.8394C175.535 39.0825 175.816 38.228 175.881 37.2759L175.893 37.2026H172.573L172.561 37.3003C172.43 37.9676 172.146 38.4966 171.706 38.8872C171.275 39.2778 170.701 39.4731 169.985 39.4731C169.391 39.4731 168.878 39.3185 168.447 39.0093C168.015 38.6919 167.682 38.2321 167.446 37.6299C167.218 37.0277 167.104 36.2952 167.104 35.4326V35.4204C167.104 34.5822 167.218 33.862 167.446 33.2598C167.682 32.6576 168.015 32.1978 168.447 31.8804C168.878 31.5549 169.387 31.3921 169.973 31.3921C170.713 31.3921 171.299 31.5996 171.73 32.0146C172.17 32.4297 172.443 32.9505 172.548 33.5771L172.573 33.6748H175.881V33.6016C175.824 32.6494 175.547 31.799 175.051 31.0503C174.562 30.2935 173.883 29.6953 173.012 29.2559C172.141 28.8164 171.116 28.5967 169.936 28.5967C168.618 28.5967 167.474 28.8734 166.506 29.4268C165.537 29.972 164.789 30.7533 164.26 31.7705C163.739 32.7878 163.479 34.0003 163.479 35.4082V35.4204C163.479 36.8364 163.739 38.0571 164.26 39.0825C164.789 40.1079 165.537 40.8973 166.506 41.4507C167.474 41.9959 168.626 42.2686 169.96 42.2686ZM182.534 42.2441C182.9 42.2441 183.23 42.2279 183.523 42.1953C183.816 42.1628 184.064 42.1302 184.268 42.0977V39.4854C184.146 39.5016 184.019 39.5179 183.889 39.5342C183.767 39.5423 183.625 39.5464 183.462 39.5464C182.909 39.5464 182.498 39.4243 182.229 39.1802C181.96 38.936 181.826 38.5088 181.826 37.8984V31.5508H184.268V28.8652H181.826V25.667H178.225V28.8652H176.37V31.5508H178.225V38.3501C178.225 39.7336 178.575 40.7305 179.275 41.3408C179.975 41.943 181.061 42.2441 182.534 42.2441ZM185.928 42H189.493V28.8652H185.928V42ZM187.71 27.1318C188.248 27.1318 188.699 26.9487 189.065 26.5825C189.44 26.2163 189.627 25.7769 189.627 25.2642C189.627 24.7433 189.44 24.2998 189.065 23.9336C188.699 23.5674 188.248 23.3843 187.71 23.3843C187.173 23.3843 186.718 23.5674 186.343 23.9336C185.977 24.2998 185.794 24.7433 185.794 25.2642C185.794 25.7769 185.977 26.2163 186.343 26.5825C186.718 26.9487 187.173 27.1318 187.71 27.1318ZM197.538 42.2686C198.872 42.2686 200.024 42 200.992 41.4629C201.961 40.9176 202.709 40.1364 203.238 39.1191C203.775 38.0938 204.044 36.869 204.044 35.4448V35.4204C204.044 33.9963 203.775 32.7756 203.238 31.7583C202.701 30.741 201.944 29.9598 200.968 29.4146C199.999 28.8693 198.856 28.5967 197.538 28.5967C196.227 28.5967 195.084 28.8693 194.107 29.4146C193.131 29.9598 192.374 30.7451 191.837 31.7705C191.3 32.7878 191.031 34.0044 191.031 35.4204V35.4448C191.031 36.8608 191.296 38.0815 191.825 39.1069C192.354 40.1242 193.106 40.9054 194.083 41.4507C195.06 41.9959 196.211 42.2686 197.538 42.2686ZM197.55 39.4731C196.956 39.4731 196.443 39.3185 196.012 39.0093C195.58 38.6919 195.247 38.2321 195.011 37.6299C194.783 37.0277 194.669 36.2993 194.669 35.4448V35.4204C194.669 34.5659 194.787 33.8416 195.023 33.2476C195.259 32.6453 195.593 32.1855 196.024 31.8682C196.455 31.5508 196.96 31.3921 197.538 31.3921C198.115 31.3921 198.62 31.5508 199.051 31.8682C199.483 32.1855 199.816 32.6453 200.052 33.2476C200.288 33.8416 200.406 34.5659 200.406 35.4204V35.4448C200.406 36.2993 200.288 37.0277 200.052 37.6299C199.824 38.2321 199.495 38.6919 199.063 39.0093C198.64 39.3185 198.136 39.4731 197.55 39.4731ZM205.521 42H209.086V34.4438C209.086 33.866 209.192 33.3615 209.403 32.9302C209.615 32.4989 209.916 32.1611 210.307 31.917C210.705 31.6729 211.169 31.5508 211.698 31.5508C212.504 31.5508 213.106 31.7868 213.505 32.2588C213.912 32.7308 214.115 33.4022 214.115 34.2729V42H217.68V33.5161C217.68 31.978 217.285 30.7736 216.496 29.9028C215.714 29.0321 214.599 28.5967 213.151 28.5967C212.166 28.5967 211.34 28.8123 210.673 29.2437C210.014 29.675 209.517 30.265 209.184 31.0137H209.086V28.8652H205.521V42Z" fill="#1E293B" fill-opacity="0.7"/>
<path d="M36.9712 89.3296C38.4523 89.3296 39.7218 89.1058 40.7798 88.6582C41.8377 88.2025 42.6475 87.5596 43.209 86.7295C43.7786 85.8913 44.0635 84.9066 44.0635 83.7754V83.7632C44.0635 82.8436 43.8763 82.0583 43.502 81.4072C43.1276 80.748 42.5457 80.2028 41.7563 79.7715C40.967 79.3402 39.9538 79.0024 38.7168 78.7583L36.8613 78.3799C35.8441 78.1764 35.0994 77.9038 34.6274 77.562C34.1554 77.2121 33.9194 76.7604 33.9194 76.207V76.1948C33.9194 75.7716 34.0415 75.4014 34.2856 75.084C34.5298 74.7585 34.8797 74.5062 35.3354 74.3271C35.7912 74.1481 36.3283 74.0586 36.9468 74.0586C37.5653 74.0586 38.1064 74.1481 38.5703 74.3271C39.0423 74.5062 39.4207 74.7585 39.7056 75.084C39.9904 75.4095 40.1654 75.8001 40.2305 76.2559L40.2427 76.4023H43.7217L43.7095 76.1948C43.6525 75.1694 43.3433 74.2702 42.7817 73.4971C42.2284 72.724 41.4593 72.1258 40.4746 71.7026C39.4899 71.2713 38.314 71.0557 36.9468 71.0557C35.6528 71.0557 34.4972 71.2795 33.48 71.7271C32.4709 72.1746 31.6774 72.8013 31.0996 73.6069C30.5299 74.4045 30.241 75.3403 30.2329 76.4146V76.4268C30.2329 77.7614 30.6683 78.8478 31.5391 79.686C32.418 80.5161 33.7282 81.1061 35.4697 81.4561L37.3374 81.8223C38.4279 82.0501 39.2051 82.335 39.6689 82.6768C40.141 83.0104 40.377 83.4743 40.377 84.0684V84.0806C40.377 84.5282 40.2427 84.9229 39.9741 85.2646C39.7056 85.5983 39.3231 85.8587 38.8267 86.0459C38.3302 86.2331 37.7402 86.3267 37.0566 86.3267C36.3893 86.3267 35.7912 86.2371 35.2622 86.0581C34.7414 85.8709 34.3141 85.6105 33.9805 85.2769C33.6549 84.9432 33.4556 84.5526 33.3823 84.105L33.3579 83.9707H29.8667L29.8789 84.166C29.9521 85.2402 30.2817 86.1639 30.8677 86.937C31.4618 87.7101 32.2756 88.3042 33.3091 88.7192C34.3507 89.1261 35.5715 89.3296 36.9712 89.3296ZM45.7729 89H49.3374V81.4683C49.3374 80.8905 49.4432 80.3859 49.6548 79.9546C49.8745 79.5151 50.1797 79.1733 50.5703 78.9292C50.9609 78.6769 51.4167 78.5508 51.9375 78.5508C52.7513 78.5508 53.3739 78.8071 53.8052 79.3198C54.2365 79.8325 54.4521 80.5487 54.4521 81.4683V89H58.0166V80.7236C58.0166 79.6657 57.8294 78.7542 57.4551 77.9893C57.0889 77.2243 56.564 76.6343 55.8804 76.2192C55.2049 75.8042 54.387 75.5967 53.4268 75.5967C52.4502 75.5967 51.6242 75.8164 50.9487 76.2559C50.2733 76.6872 49.7687 77.3016 49.4351 78.0991H49.3374V71.251H45.7729V89ZM63.8154 89.2075C64.3932 89.2075 64.9263 89.1221 65.4146 88.9512C65.911 88.7803 66.3504 88.5361 66.7329 88.2188C67.1154 87.8932 67.4287 87.5107 67.6729 87.0713H67.7705V89H71.3228V80.0034C71.3228 79.1082 71.0949 78.3311 70.6392 77.6719C70.1834 77.0127 69.5405 76.5041 68.7104 76.146C67.8804 75.7798 66.8957 75.5967 65.7563 75.5967C64.6089 75.5967 63.616 75.7716 62.7778 76.1216C61.9478 76.4715 61.2967 76.9557 60.8247 77.5742C60.3527 78.1927 60.0801 78.9089 60.0068 79.7227L59.9946 79.8569H63.2661L63.2783 79.7593C63.376 79.3361 63.6201 78.9902 64.0107 78.7217C64.4095 78.4531 64.9385 78.3188 65.5977 78.3188C66.3057 78.3188 66.8428 78.4857 67.209 78.8193C67.5833 79.153 67.7705 79.6128 67.7705 80.1987V84.2026C67.7705 84.6584 67.6484 85.0693 67.4043 85.4355C67.1602 85.8018 66.8265 86.0907 66.4033 86.3022C65.9883 86.5057 65.5122 86.6074 64.9751 86.6074C64.3647 86.6074 63.8724 86.4691 63.498 86.1924C63.1237 85.9157 62.9365 85.5373 62.9365 85.0571V85.0327C62.9365 84.5688 63.1156 84.1986 63.4736 83.9219C63.8398 83.637 64.3729 83.4743 65.0728 83.4336L69.626 83.1284V80.9189L64.5356 81.2363C63.4451 81.3096 62.5174 81.509 61.7524 81.8345C60.9956 82.16 60.4178 82.6076 60.019 83.1772C59.6203 83.7388 59.4209 84.4224 59.4209 85.228V85.2402C59.4209 86.0133 59.604 86.701 59.9702 87.3032C60.3446 87.8973 60.8613 88.3652 61.5205 88.707C62.1878 89.0407 62.9528 89.2075 63.8154 89.2075ZM73.2764 89H76.8408V81.6514C76.8408 81.0166 76.9507 80.4795 77.1704 80.04C77.3983 79.5924 77.7238 79.2547 78.147 79.0269C78.5783 78.799 79.0951 78.6851 79.6973 78.6851C79.9577 78.6851 80.2059 78.7054 80.4419 78.7461C80.6779 78.7786 80.8773 78.8234 81.04 78.8804V75.7554C80.8936 75.7065 80.7267 75.6699 80.5396 75.6455C80.3605 75.6211 80.1693 75.6089 79.9658 75.6089C79.1846 75.6089 78.5295 75.8286 78.0005 76.2681C77.4797 76.7075 77.1257 77.326 76.9385 78.1235H76.8408V75.8652H73.2764V89ZM87.6567 89.2686C88.6007 89.2686 89.4227 89.1465 90.1226 88.9023C90.8224 88.6582 91.4124 88.3327 91.8926 87.9258C92.3809 87.5189 92.7633 87.0754 93.04 86.5952C93.3249 86.1151 93.5202 85.639 93.626 85.167L93.6504 85.0205H90.3789L90.3545 85.0938C90.2731 85.3379 90.1185 85.578 89.8906 85.814C89.6628 86.0418 89.3698 86.2331 89.0117 86.3877C88.6536 86.5342 88.2264 86.6074 87.73 86.6074C87.1115 86.6074 86.5744 86.4731 86.1187 86.2046C85.6711 85.9279 85.3252 85.5332 85.0811 85.0205C84.8451 84.4997 84.7271 83.8771 84.7271 83.1528V81.7612C84.7271 81.0125 84.8491 80.3778 85.0933 79.8569C85.3374 79.328 85.6711 78.9292 86.0942 78.6606C86.5256 78.3921 87.0179 78.2578 87.5713 78.2578C88.1328 78.2578 88.6211 78.388 89.0361 78.6484C89.4593 78.9089 89.7889 79.2995 90.0249 79.8203C90.269 80.3411 90.3911 80.9881 90.3911 81.7612V83.1406L92.0757 81.041H82.957V83.2871H93.7603V82.1763C93.7603 80.8579 93.508 79.7064 93.0034 78.7217C92.4989 77.7288 91.7786 76.9598 90.8428 76.4146C89.9069 75.8693 88.7961 75.5967 87.5103 75.5967C86.2326 75.5967 85.1217 75.8774 84.1777 76.439C83.2337 77.0005 82.5013 77.7939 81.9805 78.8193C81.4596 79.8447 81.1992 81.0532 81.1992 82.4448V82.457C81.1992 83.8568 81.4596 85.0693 81.9805 86.0947C82.5013 87.112 83.2419 87.8973 84.2021 88.4507C85.1706 88.9959 86.3221 89.2686 87.6567 89.2686ZM100.207 89H103.893V71.3853H100.207V89ZM106.213 89H109.777V81.0776C109.777 80.5812 109.871 80.1458 110.058 79.7715C110.253 79.389 110.522 79.092 110.864 78.8804C111.206 78.6606 111.604 78.5508 112.06 78.5508C112.5 78.5508 112.878 78.6403 113.195 78.8193C113.513 78.9902 113.757 79.2466 113.928 79.5884C114.099 79.922 114.184 80.3249 114.184 80.7969V89H117.639V81.0044C117.639 80.5161 117.728 80.0889 117.907 79.7227C118.094 79.3564 118.359 79.0716 118.701 78.8682C119.042 78.6566 119.437 78.5508 119.885 78.5508C120.357 78.5508 120.751 78.6403 121.069 78.8193C121.386 78.9984 121.626 79.2629 121.789 79.6128C121.96 79.9627 122.045 80.394 122.045 80.9067V89H125.61V80.0156C125.61 79.1286 125.431 78.3555 125.073 77.6963C124.715 77.029 124.214 76.5122 123.571 76.146C122.928 75.7798 122.176 75.5967 121.313 75.5967C120.678 75.5967 120.088 75.7065 119.543 75.9263C118.998 76.146 118.53 76.4552 118.139 76.854C117.749 77.2528 117.451 77.7248 117.248 78.27H117.163C117.016 77.7004 116.772 77.2161 116.43 76.8174C116.088 76.4186 115.673 76.1175 115.185 75.9141C114.697 75.7025 114.147 75.5967 113.537 75.5967C112.658 75.5967 111.893 75.8205 111.242 76.2681C110.591 76.7075 110.135 77.3016 109.875 78.0503H109.777V75.8652H106.213V89ZM131.396 89.2075C131.974 89.2075 132.507 89.1221 132.996 88.9512C133.492 88.7803 133.931 88.5361 134.314 88.2188C134.696 87.8932 135.01 87.5107 135.254 87.0713H135.352V89H138.904V80.0034C138.904 79.1082 138.676 78.3311 138.22 77.6719C137.764 77.0127 137.122 76.5041 136.292 76.146C135.461 75.7798 134.477 75.5967 133.337 75.5967C132.19 75.5967 131.197 75.7716 130.359 76.1216C129.529 76.4715 128.878 76.9557 128.406 77.5742C127.934 78.1927 127.661 78.9089 127.588 79.7227L127.576 79.8569H130.847L130.859 79.7593C130.957 79.3361 131.201 78.9902 131.592 78.7217C131.991 78.4531 132.52 78.3188 133.179 78.3188C133.887 78.3188 134.424 78.4857 134.79 78.8193C135.164 79.153 135.352 79.6128 135.352 80.1987V84.2026C135.352 84.6584 135.229 85.0693 134.985 85.4355C134.741 85.8018 134.408 86.0907 133.984 86.3022C133.569 86.5057 133.093 86.6074 132.556 86.6074C131.946 86.6074 131.453 86.4691 131.079 86.1924C130.705 85.9157 130.518 85.5373 130.518 85.0571V85.0327C130.518 84.5688 130.697 84.1986 131.055 83.9219C131.421 83.637 131.954 83.4743 132.654 83.4336L137.207 83.1284V80.9189L132.117 81.2363C131.026 81.3096 130.098 81.509 129.333 81.8345C128.577 82.16 127.999 82.6076 127.6 83.1772C127.201 83.7388 127.002 84.4224 127.002 85.228V85.2402C127.002 86.0133 127.185 86.701 127.551 87.3032C127.926 87.8973 128.442 88.3652 129.102 88.707C129.769 89.0407 130.534 89.2075 131.396 89.2075ZM146.937 93.5654C148.255 93.5654 149.394 93.3579 150.354 92.9429C151.315 92.5278 152.055 91.95 152.576 91.2095C153.105 90.4689 153.37 89.6063 153.37 88.6216V75.8652H149.805V78.0991H149.708C149.472 77.5864 149.158 77.147 148.768 76.7808C148.385 76.4064 147.938 76.1175 147.425 75.9141C146.912 75.7106 146.347 75.6089 145.728 75.6089C144.621 75.6089 143.665 75.8774 142.859 76.4146C142.054 76.9435 141.431 77.7044 140.992 78.6973C140.56 79.682 140.345 80.8701 140.345 82.2617V82.2739C140.345 83.6086 140.56 84.7642 140.992 85.7407C141.423 86.7091 142.037 87.4578 142.835 87.9868C143.632 88.5076 144.576 88.7681 145.667 88.7681C146.302 88.7681 146.88 88.6785 147.4 88.4995C147.921 88.3123 148.377 88.056 148.768 87.7305C149.166 87.3968 149.48 86.998 149.708 86.5342H149.805V88.6094C149.805 89.3418 149.561 89.9277 149.073 90.3672C148.584 90.8066 147.881 91.0264 146.961 91.0264C146.204 91.0264 145.594 90.9043 145.13 90.6602C144.674 90.416 144.377 90.1312 144.239 89.8057L144.202 89.7202H140.723L140.735 89.8301C140.849 90.5381 141.167 91.1729 141.688 91.7344C142.208 92.304 142.912 92.7516 143.799 93.0771C144.694 93.4027 145.74 93.5654 146.937 93.5654ZM146.9 86.1313C146.306 86.1313 145.785 85.9808 145.337 85.6797C144.898 85.3704 144.56 84.931 144.324 84.3613C144.088 83.7917 143.97 83.1162 143.97 82.335V82.3228C143.97 81.5415 144.088 80.8701 144.324 80.3086C144.568 79.7471 144.91 79.3158 145.35 79.0146C145.789 78.7054 146.306 78.5508 146.9 78.5508C147.486 78.5508 147.994 78.7054 148.426 79.0146C148.865 79.3239 149.207 79.7593 149.451 80.3208C149.695 80.8823 149.817 81.5537 149.817 82.335V82.3472C149.817 83.1203 149.695 83.7917 149.451 84.3613C149.215 84.9229 148.877 85.3582 148.438 85.6675C148.007 85.9767 147.494 86.1313 146.9 86.1313ZM161.317 89.2686C162.261 89.2686 163.083 89.1465 163.783 88.9023C164.483 88.6582 165.073 88.3327 165.553 87.9258C166.041 87.5189 166.424 87.0754 166.7 86.5952C166.985 86.1151 167.18 85.639 167.286 85.167L167.311 85.0205H164.039L164.015 85.0938C163.933 85.3379 163.779 85.578 163.551 85.814C163.323 86.0418 163.03 86.2331 162.672 86.3877C162.314 86.5342 161.887 86.6074 161.39 86.6074C160.772 86.6074 160.235 86.4731 159.779 86.2046C159.331 85.9279 158.985 85.5332 158.741 85.0205C158.505 84.4997 158.387 83.8771 158.387 83.1528V81.7612C158.387 81.0125 158.509 80.3778 158.753 79.8569C158.998 79.328 159.331 78.9292 159.754 78.6606C160.186 78.3921 160.678 78.2578 161.231 78.2578C161.793 78.2578 162.281 78.388 162.696 78.6484C163.119 78.9089 163.449 79.2995 163.685 79.8203C163.929 80.3411 164.051 80.9881 164.051 81.7612V83.1406L165.736 81.041H156.617V83.2871H167.42V82.1763C167.42 80.8579 167.168 79.7064 166.664 78.7217C166.159 77.7288 165.439 76.9598 164.503 76.4146C163.567 75.8693 162.456 75.5967 161.17 75.5967C159.893 75.5967 158.782 75.8774 157.838 76.439C156.894 77.0005 156.161 77.7939 155.641 78.8193C155.12 79.8447 154.859 81.0532 154.859 82.4448V82.457C154.859 83.8568 155.12 85.0693 155.641 86.0947C156.161 87.112 156.902 87.8973 157.862 88.4507C158.831 88.9959 159.982 89.2686 161.317 89.2686Z" fill="#2563EB" fill-opacity="0.8"/>
<path d="M30.5503 142H42.2202V138.96H34.2368V134.529H41.7686V131.661H34.2368V127.425H42.2202V124.385H30.5503V142ZM49.0811 142.256C49.7158 142.256 50.2936 142.159 50.8145 141.963C51.3353 141.76 51.791 141.475 52.1816 141.109C52.5723 140.743 52.8815 140.303 53.1094 139.791H53.207V142H56.7715V124.251H53.207V131.124H53.1094C52.8734 130.603 52.556 130.155 52.1572 129.781C51.7666 129.398 51.3109 129.109 50.79 128.914C50.2692 128.711 49.6995 128.609 49.0811 128.609C47.9824 128.609 47.0343 128.882 46.2368 129.427C45.4393 129.964 44.8208 130.741 44.3813 131.758C43.95 132.776 43.7344 133.996 43.7344 135.42V135.433C43.7344 136.849 43.95 138.069 44.3813 139.095C44.8127 140.112 45.4271 140.893 46.2246 141.438C47.0303 141.984 47.9824 142.256 49.0811 142.256ZM50.2773 139.302C49.6833 139.302 49.1665 139.148 48.7271 138.838C48.2876 138.529 47.9499 138.086 47.7139 137.508C47.4779 136.922 47.3599 136.23 47.3599 135.433V135.42C47.3599 134.623 47.4779 133.935 47.7139 133.357C47.958 132.78 48.2957 132.336 48.7271 132.027C49.1665 131.718 49.6833 131.563 50.2773 131.563C50.8633 131.563 51.376 131.722 51.8154 132.039C52.2549 132.348 52.5967 132.792 52.8408 133.37C53.0931 133.947 53.2192 134.635 53.2192 135.433V135.445C53.2192 136.234 53.0972 136.918 52.853 137.496C52.6089 138.073 52.263 138.521 51.8154 138.838C51.376 139.148 50.8633 139.302 50.2773 139.302ZM58.896 142H62.4604V128.865H58.896V142ZM60.6782 127.132C61.2153 127.132 61.667 126.949 62.0332 126.583C62.4076 126.216 62.5947 125.777 62.5947 125.264C62.5947 124.743 62.4076 124.3 62.0332 123.934C61.667 123.567 61.2153 123.384 60.6782 123.384C60.1411 123.384 59.6854 123.567 59.311 123.934C58.9448 124.3 58.7617 124.743 58.7617 125.264C58.7617 125.777 58.9448 126.216 59.311 126.583C59.6854 126.949 60.1411 127.132 60.6782 127.132ZM69.7607 142.244C70.127 142.244 70.4565 142.228 70.7495 142.195C71.0425 142.163 71.2907 142.13 71.4941 142.098V139.485C71.3721 139.502 71.2459 139.518 71.1157 139.534C70.9937 139.542 70.8512 139.546 70.6885 139.546C70.1351 139.546 69.7241 139.424 69.4556 139.18C69.187 138.936 69.0527 138.509 69.0527 137.898V131.551H71.4941V128.865H69.0527V125.667H65.4517V128.865H63.5962V131.551H65.4517V138.35C65.4517 139.734 65.8016 140.73 66.5015 141.341C67.2013 141.943 68.2878 142.244 69.7607 142.244ZM80.2964 142H84.0439L86.3999 132.735H86.4854L88.8657 142H92.6621L96.1411 128.865H92.6255L90.6357 138.582H90.5381L88.1943 128.865H84.7886L82.4692 138.582H82.3716L80.3818 128.865H76.793L80.2964 142ZM97.2524 142H100.817V128.865H97.2524V142ZM99.0347 127.132C99.5718 127.132 100.023 126.949 100.39 126.583C100.764 126.216 100.951 125.777 100.951 125.264C100.951 124.743 100.764 124.3 100.39 123.934C100.023 123.567 99.5718 123.384 99.0347 123.384C98.4976 123.384 98.0418 123.567 97.6675 123.934C97.3013 124.3 97.1182 124.743 97.1182 125.264C97.1182 125.777 97.3013 126.216 97.6675 126.583C98.0418 126.949 98.4976 127.132 99.0347 127.132ZM108.117 142.244C108.483 142.244 108.813 142.228 109.106 142.195C109.399 142.163 109.647 142.13 109.851 142.098V139.485C109.729 139.502 109.602 139.518 109.472 139.534C109.35 139.542 109.208 139.546 109.045 139.546C108.492 139.546 108.081 139.424 107.812 139.18C107.543 138.936 107.409 138.509 107.409 137.898V131.551H109.851V128.865H107.409V125.667H103.808V128.865H101.953V131.551H103.808V138.35C103.808 139.734 104.158 140.73 104.858 141.341C105.558 141.943 106.644 142.244 108.117 142.244ZM111.536 142H115.1V134.468C115.1 133.89 115.206 133.386 115.417 132.955C115.637 132.515 115.942 132.173 116.333 131.929C116.724 131.677 117.179 131.551 117.7 131.551C118.514 131.551 119.137 131.807 119.568 132.32C119.999 132.833 120.215 133.549 120.215 134.468V142H123.779V133.724C123.779 132.666 123.592 131.754 123.218 130.989C122.852 130.224 122.327 129.634 121.643 129.219C120.968 128.804 120.15 128.597 119.189 128.597C118.213 128.597 117.387 128.816 116.711 129.256C116.036 129.687 115.531 130.302 115.198 131.099H115.1V124.251H111.536V142ZM129.53 142H133.412L137.806 127.815H138.917V124.385H135.682L129.53 142ZM132.838 137.728H142.848L141.944 134.969H133.741L132.838 137.728ZM142.286 142H146.156L140.016 124.385H137.892V127.815L142.286 142ZM147.633 142H151.32V124.385H147.633V142Z" fill="#1E293B" fill-opacity="0.7"/>
<path d="M29.4028 192H33.2847L37.6792 177.815H38.79V174.385H35.5552L29.4028 192ZM32.7109 187.728H42.7207L41.8174 184.969H33.6143L32.7109 187.728ZM42.1592 192H46.0288L39.8887 174.385H37.7646V177.815L42.1592 192ZM51.5225 192.256C52.1572 192.256 52.735 192.159 53.2559 191.963C53.7767 191.76 54.2324 191.475 54.623 191.109C55.0137 190.743 55.3229 190.303 55.5508 189.791H55.6484V192H59.2129V174.251H55.6484V181.124H55.5508C55.3148 180.603 54.9974 180.155 54.5986 179.781C54.208 179.398 53.7523 179.109 53.2314 178.914C52.7106 178.711 52.141 178.609 51.5225 178.609C50.4238 178.609 49.4757 178.882 48.6782 179.427C47.8807 179.964 47.2622 180.741 46.8228 181.758C46.3914 182.776 46.1758 183.996 46.1758 185.42V185.433C46.1758 186.849 46.3914 188.069 46.8228 189.095C47.2541 190.112 47.8685 190.893 48.666 191.438C49.4717 191.984 50.4238 192.256 51.5225 192.256ZM52.7188 189.302C52.1247 189.302 51.6079 189.148 51.1685 188.838C50.729 188.529 50.3913 188.086 50.1553 187.508C49.9193 186.922 49.8013 186.23 49.8013 185.433V185.42C49.8013 184.623 49.9193 183.935 50.1553 183.357C50.3994 182.78 50.7371 182.336 51.1685 182.027C51.6079 181.718 52.1247 181.563 52.7188 181.563C53.3047 181.563 53.8174 181.722 54.2568 182.039C54.6963 182.348 55.0381 182.792 55.2822 183.37C55.5345 183.947 55.6606 184.635 55.6606 185.433V185.445C55.6606 186.234 55.5386 186.918 55.2944 187.496C55.0503 188.073 54.7044 188.521 54.2568 188.838C53.8174 189.148 53.3047 189.302 52.7188 189.302ZM66.1104 192.256C66.7451 192.256 67.3229 192.159 67.8438 191.963C68.3646 191.76 68.8203 191.475 69.2109 191.109C69.6016 190.743 69.9108 190.303 70.1387 189.791H70.2363V192H73.8008V174.251H70.2363V181.124H70.1387C69.9027 180.603 69.5853 180.155 69.1865 179.781C68.7959 179.398 68.3402 179.109 67.8193 178.914C67.2985 178.711 66.7288 178.609 66.1104 178.609C65.0117 178.609 64.0636 178.882 63.2661 179.427C62.4686 179.964 61.8501 180.741 61.4106 181.758C60.9793 182.776 60.7637 183.996 60.7637 185.42V185.433C60.7637 186.849 60.9793 188.069 61.4106 189.095C61.842 190.112 62.4564 190.893 63.2539 191.438C64.0596 191.984 65.0117 192.256 66.1104 192.256ZM67.3066 189.302C66.7126 189.302 66.1958 189.148 65.7563 188.838C65.3169 188.529 64.9792 188.086 64.7432 187.508C64.5072 186.922 64.3892 186.23 64.3892 185.433V185.42C64.3892 184.623 64.5072 183.935 64.7432 183.357C64.9873 182.78 65.325 182.336 65.7563 182.027C66.1958 181.718 66.7126 181.563 67.3066 181.563C67.8926 181.563 68.4053 181.722 68.8447 182.039C69.2842 182.348 69.626 182.792 69.8701 183.37C70.1224 183.947 70.2485 184.635 70.2485 185.433V185.445C70.2485 186.234 70.1265 186.918 69.8823 187.496C69.6382 188.073 69.2923 188.521 68.8447 188.838C68.4053 189.148 67.8926 189.302 67.3066 189.302ZM85.7646 192.244C86.1309 192.244 86.4604 192.228 86.7534 192.195C87.0464 192.163 87.2946 192.13 87.498 192.098V189.485C87.376 189.502 87.2498 189.518 87.1196 189.534C86.9976 189.542 86.8551 189.546 86.6924 189.546C86.139 189.546 85.728 189.424 85.4595 189.18C85.1909 188.936 85.0566 188.509 85.0566 187.898V181.551H87.498V178.865H85.0566V175.667H81.4556V178.865H79.6001V181.551H81.4556V188.35C81.4556 189.734 81.8055 190.73 82.5054 191.341C83.2052 191.943 84.2917 192.244 85.7646 192.244ZM94.9204 192.269C96.255 192.269 97.4066 192 98.375 191.463C99.3434 190.918 100.092 190.136 100.621 189.119C101.158 188.094 101.427 186.869 101.427 185.445V185.42C101.427 183.996 101.158 182.776 100.621 181.758C100.084 180.741 99.3271 179.96 98.3506 179.415C97.3822 178.869 96.2388 178.597 94.9204 178.597C93.6102 178.597 92.4668 178.869 91.4902 179.415C90.5137 179.96 89.7568 180.745 89.2197 181.771C88.6826 182.788 88.4141 184.004 88.4141 185.42V185.445C88.4141 186.861 88.6785 188.082 89.2075 189.107C89.7365 190.124 90.4893 190.905 91.4658 191.451C92.4424 191.996 93.5939 192.269 94.9204 192.269ZM94.9326 189.473C94.3385 189.473 93.8258 189.319 93.3945 189.009C92.9632 188.692 92.6296 188.232 92.3936 187.63C92.1657 187.028 92.0518 186.299 92.0518 185.445V185.42C92.0518 184.566 92.1698 183.842 92.4058 183.248C92.6418 182.645 92.9754 182.186 93.4067 181.868C93.8381 181.551 94.3426 181.392 94.9204 181.392C95.4982 181.392 96.0028 181.551 96.4341 181.868C96.8654 182.186 97.1991 182.645 97.4351 183.248C97.6711 183.842 97.7891 184.566 97.7891 185.42V185.445C97.7891 186.299 97.6711 187.028 97.4351 187.63C97.2072 188.232 96.8776 188.692 96.4463 189.009C96.0231 189.319 95.5186 189.473 94.9326 189.473ZM109.716 186.446H114.965C116.21 186.446 117.293 186.198 118.212 185.701C119.14 185.205 119.86 184.505 120.373 183.602C120.894 182.698 121.154 181.64 121.154 180.428V180.403C121.154 179.199 120.894 178.145 120.373 177.242C119.86 176.338 119.14 175.639 118.212 175.142C117.293 174.638 116.21 174.385 114.965 174.385H109.716V177.303H114.074C115.132 177.303 115.954 177.571 116.54 178.108C117.126 178.646 117.419 179.415 117.419 180.416V180.44C117.419 181.441 117.126 182.214 116.54 182.759C115.954 183.296 115.132 183.565 114.074 183.565H109.716V186.446ZM107.861 192H111.547V174.385H107.861V192ZM122.681 192H126.245V184.651C126.245 184.017 126.355 183.479 126.575 183.04C126.803 182.592 127.128 182.255 127.551 182.027C127.983 181.799 128.499 181.685 129.102 181.685C129.362 181.685 129.61 181.705 129.846 181.746C130.082 181.779 130.282 181.823 130.444 181.88V178.755C130.298 178.707 130.131 178.67 129.944 178.646C129.765 178.621 129.574 178.609 129.37 178.609C128.589 178.609 127.934 178.829 127.405 179.268C126.884 179.708 126.53 180.326 126.343 181.124H126.245V178.865H122.681V192ZM137.11 192.269C138.444 192.269 139.596 192 140.564 191.463C141.533 190.918 142.282 190.136 142.811 189.119C143.348 188.094 143.616 186.869 143.616 185.445V185.42C143.616 183.996 143.348 182.776 142.811 181.758C142.273 180.741 141.517 179.96 140.54 179.415C139.572 178.869 138.428 178.597 137.11 178.597C135.8 178.597 134.656 178.869 133.68 179.415C132.703 179.96 131.946 180.745 131.409 181.771C130.872 182.788 130.604 184.004 130.604 185.42V185.445C130.604 186.861 130.868 188.082 131.397 189.107C131.926 190.124 132.679 190.905 133.655 191.451C134.632 191.996 135.783 192.269 137.11 192.269ZM137.122 189.473C136.528 189.473 136.015 189.319 135.584 189.009C135.153 188.692 134.819 188.232 134.583 187.63C134.355 187.028 134.241 186.299 134.241 185.445V185.42C134.241 184.566 134.359 183.842 134.595 183.248C134.831 182.645 135.165 182.186 135.596 181.868C136.028 181.551 136.532 181.392 137.11 181.392C137.688 181.392 138.192 181.551 138.624 181.868C139.055 182.186 139.389 182.645 139.625 183.248C139.861 183.842 139.979 184.566 139.979 185.42V185.445C139.979 186.299 139.861 187.028 139.625 187.63C139.397 188.232 139.067 188.692 138.636 189.009C138.213 189.319 137.708 189.473 137.122 189.473ZM146.046 192H149.61V181.551H152.162V178.865H149.537V177.938C149.537 177.449 149.675 177.079 149.952 176.827C150.229 176.574 150.668 176.448 151.271 176.448C151.441 176.448 151.608 176.452 151.771 176.46C151.942 176.469 152.088 176.485 152.21 176.509V174.153C151.999 174.113 151.726 174.08 151.393 174.056C151.067 174.023 150.737 174.007 150.404 174.007C149.362 174.007 148.524 174.145 147.889 174.422C147.254 174.69 146.786 175.105 146.485 175.667C146.192 176.229 146.046 176.937 146.046 177.791V178.865H144.215V181.551H146.046V192ZM153.737 192H157.301V178.865H153.737V192ZM155.519 177.132C156.056 177.132 156.508 176.949 156.874 176.583C157.248 176.216 157.436 175.777 157.436 175.264C157.436 174.743 157.248 174.3 156.874 173.934C156.508 173.567 156.056 173.384 155.519 173.384C154.982 173.384 154.526 173.567 154.152 173.934C153.786 174.3 153.603 174.743 153.603 175.264C153.603 175.777 153.786 176.216 154.152 176.583C154.526 176.949 154.982 177.132 155.519 177.132ZM159.438 192H163.002V174.251H159.438V192ZM171.047 192.269C171.991 192.269 172.813 192.146 173.513 191.902C174.213 191.658 174.803 191.333 175.283 190.926C175.771 190.519 176.154 190.075 176.431 189.595C176.715 189.115 176.911 188.639 177.017 188.167L177.041 188.021H173.77L173.745 188.094C173.664 188.338 173.509 188.578 173.281 188.814C173.053 189.042 172.76 189.233 172.402 189.388C172.044 189.534 171.617 189.607 171.121 189.607C170.502 189.607 169.965 189.473 169.509 189.205C169.062 188.928 168.716 188.533 168.472 188.021C168.236 187.5 168.118 186.877 168.118 186.153V184.761C168.118 184.013 168.24 183.378 168.484 182.857C168.728 182.328 169.062 181.929 169.485 181.661C169.916 181.392 170.409 181.258 170.962 181.258C171.523 181.258 172.012 181.388 172.427 181.648C172.85 181.909 173.18 182.299 173.416 182.82C173.66 183.341 173.782 183.988 173.782 184.761V186.141L175.466 184.041H166.348V186.287H177.151V185.176C177.151 183.858 176.899 182.706 176.394 181.722C175.889 180.729 175.169 179.96 174.233 179.415C173.298 178.869 172.187 178.597 170.901 178.597C169.623 178.597 168.512 178.877 167.568 179.439C166.624 180 165.892 180.794 165.371 181.819C164.85 182.845 164.59 184.053 164.59 185.445V185.457C164.59 186.857 164.85 188.069 165.371 189.095C165.892 190.112 166.632 190.897 167.593 191.451C168.561 191.996 169.713 192.269 171.047 192.269Z" fill="#1E293B" fill-opacity="0.7"/>
</svg>
