<svg width="50" height="50" viewBox="0 0 50 50" fill="none" xmlns="http://www.w3.org/2000/svg">
<path d="M41.7963 50H20.8215C19.4607 50 18.1789 49.454 17.2162 48.4576L1.23492 31.9614C0.0267755 30.7174 -0.330485 28.8569 0.321311 27.2301C0.975834 25.6005 2.50033 24.545 4.21027 24.545H23.7942V4.33356C23.7942 2.57445 24.8141 1.0011 26.3904 0.325607C27.9422 -0.341447 29.7912 0.0385204 30.9775 1.26286L46.967 17.7647C47.9297 18.7639 48.4588 20.0839 48.4588 21.4856V43.1268C48.456 46.918 45.4698 50 41.7963 50ZM21.6997 42.5639H41.2536V22.3834L30.9994 11.8006V31.9811H11.4455L21.6997 42.5639Z" fill="#0496FF"/>
</svg>
