<svg xmlns="http://www.w3.org/2000/svg" fill="none" viewBox="0 0 216 104">
  <defs/>
  <path fill="#100B47" d="M0 0h216v104H0V0z"/>
  <path fill="#fff" d="M54 61.3H41.95L40.02 67h-8.24l11.69-32.3h9.1L64.28 67h-8.34L54 61.3zm-2.02-6.08l-4-11.82-3.96 11.82h7.96zM75.68 32.96V67h-7.86V32.96h7.86zM89.25 44.97a8.54 8.54 0 013.17-2.9 9.74 9.74 0 014.74-1.1 10.63 10.63 0 019.8 6.2c1.01 2 1.52 4.31 1.52 6.95 0 2.64-.5 4.97-1.52 7-.98 1.99-2.33 3.53-4.05 4.64a10.63 10.63 0 01-5.75 1.6 9.91 9.91 0 01-4.74-1.1 8.69 8.69 0 01-3.17-2.85v15.83h-7.87v-37.9h7.87v3.63zm11.22 9.15c0-1.96-.55-3.5-1.65-4.6a5.28 5.28 0 00-4-1.7c-1.57 0-2.9.57-4 1.7-1.08 1.13-1.62 2.68-1.62 4.65 0 1.96.54 3.5 1.61 4.64a5.38 5.38 0 004 1.7c1.57 0 2.9-.56 4-1.7a6.54 6.54 0 001.66-4.69zM128.38 41.06c2.95 0 5.3.98 7.09 2.94 1.78 1.93 2.66 4.6 2.66 8v15h-7.82V53.06c0-1.72-.44-3.05-1.33-4a4.68 4.68 0 00-3.59-1.43c-1.5 0-2.7.48-3.59 1.43-.88.95-1.33 2.28-1.33 4V67h-7.87V32.96h7.87v11.82a8.4 8.4 0 013.27-2.71 10.44 10.44 0 014.64-1.01zM142.04 54.12c0-2.64.49-4.95 1.47-6.95 1.01-1.99 2.38-3.52 4.1-4.6a10.63 10.63 0 015.74-1.6c1.81 0 3.4.36 4.74 1.1a8.1 8.1 0 013.17 2.9v-3.64h7.87V67h-7.87v-3.63a8.45 8.45 0 01-3.22 2.9 9.74 9.74 0 01-4.73 1.1c-2.09 0-4-.54-5.7-1.61a11.65 11.65 0 01-4.1-4.65 15.84 15.84 0 01-1.47-6.99zm19.22.05c0-1.97-.55-3.52-1.65-4.65a5.23 5.23 0 00-3.96-1.7c-1.56 0-2.9.57-4 1.7-1.07 1.1-1.61 2.64-1.61 4.6 0 1.96.54 3.53 1.61 4.7a5.38 5.38 0 004 1.7c1.57 0 2.88-.57 3.96-1.7 1.1-1.14 1.65-2.7 1.65-4.65zM178.5 67.37a4.9 4.9 0 01-3.4-1.2 4.05 4.05 0 01-1.3-3.03 4.1 4.1 0 011.3-3.09 4.8 4.8 0 013.4-1.24c1.35 0 2.45.42 3.31 1.24a4.04 4.04 0 011.34 3.09 4 4 0 01-1.34 3.03c-.86.8-1.96 1.2-3.3 1.2z"/>
</svg>
