<svg  viewBox="0 0 6933 1243" fill="none" xmlns="http://www.w3.org/2000/svg">
<path d="M2514.91 275.496C2518.82 271.209 2525.82 268.351 2531.68 268.351L2798.51 267.9C2810.25 267.9 2814.16 276.399 2806.26 283.544L2558.76 531.963L2761.29 987.737C2765.42 997.74 2760.08 1002.03 2751.29 1002.03L2496.18 1002.48C2488.81 1002.48 2482.65 999.621 2480.17 991.122L2418.27 828.743L2367.36 709.083L2289.74 796.177L2269.06 991.498C2268.61 1000.07 2263.12 1002.93 2255.75 1002.93L2021.18 1003.31C2012.38 1003.31 2007.34 997.665 2007.72 989.091L2071.19 501.578L2123.31 16.9232C2123.76 8.34928 2129.25 5.49129 2136.62 5.49129L2371.19 5.11523C2379.99 5.11523 2385.1 10.756 2384.65 19.33L2322.91 496.915L2514.99 275.647L2514.91 275.496Z" fill="#00060A"/>
<path d="M3309.32 278.504C3309.77 269.93 3315.26 267.072 3322.63 267.072L3563.06 266.696C3571.86 266.696 3576.9 272.336 3576.53 280.91L3530.5 644.401L3492.52 989.391C3492.07 997.965 3486.58 1000.82 3479.21 1000.82L3250.51 1001.2C3241.71 1001.2 3238.1 995.558 3238.55 986.984L3243.89 945.619C3196.21 988.488 3133.48 1015.64 3054.29 1015.79C2885.68 1016.09 2762.42 892.294 2740.45 708.481C2716.46 507.594 2813.71 253.684 3076.18 253.233C3175.9 253.082 3251.94 288.582 3301.8 349.803L3309.39 278.504H3309.32ZM3281.27 559.339C3270.21 466.68 3223.36 418.319 3150.11 418.47C3013.76 418.695 2993.37 604.014 3004.58 698.102C3014.96 785.045 3057.98 850.478 3135.67 850.402C3266.15 850.177 3293 657.714 3281.27 559.414V559.339Z" fill="#00060A"/>
<path d="M4404.55 558.812C4428.54 759.698 4331.3 1013.61 4068.83 1014.06C3967.68 1014.21 3891.42 977.282 3841.41 914.707L3804.4 1231.19C3803.95 1239.77 3798.46 1242.62 3791.09 1242.62L3549.23 1243C3540.43 1243 3535.39 1237.36 3535.77 1228.78L3601.87 714.121L3648.05 277.901C3648.5 269.327 3653.99 266.469 3661.36 266.469L3890.06 266.093C3898.86 266.093 3903.75 270.305 3902.02 280.308L3895.7 325.961C3944.51 280.233 4008.51 251.653 4090.64 251.503C4259.25 251.202 4382.37 373.569 4404.48 558.812H4404.55ZM4140.2 567.837C4129.82 480.894 4086.95 416.815 4009.27 416.965C3878.78 417.191 3851.71 608.225 3863.67 707.954C3874.57 799.184 3921.58 848.973 3994.83 848.822C4131.18 848.597 4151.56 663.279 4140.2 567.837Z" fill="#00060A"/>
<path d="M4979.43 278.503L4961.01 431.03C4960.56 439.604 4955.06 442.462 4947.69 442.462L4780.59 442.762L4745.84 753.531C4738.85 817.686 4768.55 833.329 4809.62 833.254C4846.24 833.254 4873.24 826.034 4896.03 820.243C4905.95 817.385 4912.5 823.101 4910.77 833.028L4894.82 969.911C4894.07 975.627 4890.31 981.343 4883.17 982.772C4832.63 1001.42 4778.4 1014.29 4724.18 1014.44C4579.03 1014.66 4459.3 945.017 4480.51 766.843L4519.62 443.214L4436.06 443.364C4427.26 443.364 4422.23 437.723 4422.6 429.149L4441.03 276.623C4441.48 268.049 4446.97 265.191 4454.34 265.191L4540.83 265.041L4559.85 92.5834C4560.31 84.0094 4565.8 81.1514 4573.17 81.1514L4812.1 80.7754C4820.9 80.7754 4826.01 86.4162 4825.56 94.9901L4803.3 264.664L4966.05 264.364C4974.84 264.364 4979.88 270.004 4979.51 278.578L4979.43 278.503Z" fill="#00060A"/>
<path d="M5232.95 986.458C5232.5 995.032 5227.01 997.89 5219.64 997.89L4976.27 998.266C4967.48 998.266 4962.44 992.625 4962.81 984.051L5009.44 637.633L5048.32 275.57C5048.77 266.996 5054.26 264.138 5061.63 264.138L5303.5 263.762C5312.3 263.762 5317.41 269.403 5316.96 277.977L5267.47 637.257L5232.95 986.533V986.458ZM5347.04 14.2147L5324.71 195.246C5324.26 203.82 5318.77 206.678 5311.4 206.678L5070.96 207.054C5062.16 207.054 5057.05 201.413 5057.5 192.839L5079.91 11.808C5080.36 3.23404 5085.85 0.376051 5093.22 0.376051L5333.66 0C5342.46 0 5347.49 5.64077 5347.12 14.2147H5347.04Z" fill="#00060A"/>
<path d="M5332.6 679.825C5306.51 454.645 5446.01 244.959 5718.11 244.433C5920.42 244.056 6085.12 362.061 6110.31 578.667C6136.64 805.2 5997.05 1014.96 5726.38 1015.49C5524.08 1015.86 5357.95 897.859 5332.6 679.825ZM5853.94 567.761C5841.68 462.317 5793.02 411.098 5726.01 411.174C5606.35 411.399 5577.1 576.787 5590.49 692.159C5602.9 799.033 5651.25 847.393 5716.76 847.318C5839.27 847.092 5866.49 675.989 5853.86 567.686L5853.94 567.761Z" fill="#00060A"/>
<path d="M6388.8 984.427C6388.35 993.001 6382.86 995.859 6375.49 995.859L6132.12 996.235C6123.32 996.235 6118.29 990.594 6118.66 982.02L6163.64 634.173L6205.6 273.54C6206.05 264.966 6211.54 262.108 6218.91 262.108L6446.19 261.732C6454.99 261.732 6460.02 267.372 6459.65 275.946L6450.25 344.388C6502.07 287.303 6580.58 244.433 6677.3 244.208C6832.67 243.907 6953.76 349.201 6929.99 543.093L6912.92 682.834L6881.41 983.6C6880.96 992.174 6875.47 995.032 6868.1 995.032L6627.66 995.408C6618.86 995.408 6613.75 989.767 6614.2 981.193L6651.13 713.144L6667.75 557.759C6674.67 480.819 6646.54 429.526 6577.65 429.601C6469.12 429.751 6431.22 566.709 6421.44 656.51L6415.58 717.807L6388.73 984.352L6388.8 984.427Z" fill="#00060A"/>
<path d="M1171.42 442.988C1171.42 429.45 1175.03 416.063 1181.5 406.06L1399.82 37.2288C1405.01 27.8275 1412.23 20.0808 1420.73 14.7409C1429.23 9.40096 1438.78 6.54297 1448.48 6.54297H1624.61C1656.95 6.54297 1683.42 37.1535 1683.42 74.0818C1683.42 87.6196 1679.97 101.308 1673.57 111.311L1476.83 442.988L1749.01 911.999C1755.62 922.905 1759.08 935.916 1758.86 949.153C1758.86 986.157 1732.38 1016.47 1700.05 1016.47H1523.91C1503.23 1016.47 1485.78 1004.28 1475.25 986.081L1181.5 480.142C1175.03 470.139 1171.42 456.676 1171.42 442.913V442.988Z" fill="#EC0006"/>
<path d="M584.131 442.989C584.131 429.451 587.515 416.064 593.983 406.061L812.383 37.1545C817.647 27.7533 824.792 20.0818 833.291 14.6667C841.789 9.32674 851.34 6.46875 861.042 6.46875H1037.48C1069.66 6.46875 1096.06 37.0793 1096.06 74.0076C1096.06 87.5454 1092.6 101.234 1086.21 111.237L889.696 442.914L1161.64 911.925C1168.26 922.831 1171.72 935.842 1171.49 949.079C1171.49 966.904 1165.25 983.976 1154.27 996.612C1143.29 1009.25 1128.4 1016.32 1112.91 1016.39H936.474C916.018 1016.39 898.344 1004.21 887.815 986.007L594.058 480.068C587.59 470.065 584.206 456.602 584.206 442.914L584.131 442.989Z" fill="#EC0006"/>
<path d="M0 442.989C0 429.451 3.3843 416.064 9.85207 406.061L228.252 37.1545C233.517 27.7533 240.661 20.0818 249.16 14.6667C257.658 9.32674 267.209 6.46875 276.911 6.46875H453.346C485.534 6.46875 511.932 37.0793 511.932 74.0076C511.932 87.5454 508.472 101.234 502.08 111.237L305.565 442.914L577.512 911.925C584.13 922.831 587.59 935.842 587.364 949.079C587.364 966.904 581.122 983.976 570.142 996.612C559.161 1009.25 544.271 1016.32 528.778 1016.39H352.343C331.887 1016.39 314.213 1004.21 303.684 986.007L9.85207 480.143C3.3843 470.14 0 456.677 0 442.989Z" fill="#EC0006"/>
</svg>
