<svg width="30" height="30" viewBox="0 0 30 30" fill="none" xmlns="http://www.w3.org/2000/svg">
<path fill-rule="evenodd" clip-rule="evenodd" d="M2 5C2 3.34315 3.34315 2 5 2H19C20.6569 2 22 3.34315 22 5H24C24 2.23858 21.7614 0 19 0H5C2.23858 0 0 2.23858 0 5V19C0 21.7614 2.23858 24 5 24V22C3.34315 22 2 20.6569 2 19V5Z" fill="#0495FE"/>
<rect x="7" y="7" width="22" height="22" rx="4" stroke="#FF0076" stroke-width="2"/>
<path d="M14.3734 21.5481C14.4785 21.4431 14.4785 21.2814 14.3734 21.1764L11.1971 18L14.3734 14.8237C14.4785 14.7186 14.4785 14.557 14.3734 14.4519L13.9693 14.0478C13.8643 13.9427 13.7026 13.9427 13.5975 14.0478L9.83121 17.8141C9.72614 17.9192 9.72614 18.0809 9.83121 18.1859L13.5975 21.9522C13.7026 22.0573 13.8643 22.0573 13.9693 21.9522L14.3734 21.5481ZM20.0553 12.9244C20.0957 12.787 20.0148 12.6415 19.8774 12.6011L19.3763 12.4637C19.247 12.4233 19.1015 12.5041 19.0611 12.6415L17.5538 17.8586L16.0465 23.0757C16.006 23.2131 16.0869 23.3586 16.2243 23.399L16.7254 23.5364C16.8547 23.5768 17.0002 23.496 17.0406 23.3586L20.0553 12.9244ZM26.2705 18.1859C26.3756 18.0809 26.3756 17.9192 26.2705 17.8141L22.5042 14.0478C22.3991 13.9427 22.2375 13.9427 22.1324 14.0478L21.7283 14.4519C21.6232 14.557 21.6232 14.7186 21.7283 14.8237L24.9046 18L21.7283 21.1764C21.6232 21.2814 21.6232 21.4431 21.7283 21.5481L22.1324 21.9522C22.2375 22.0573 22.3991 22.0573 22.5042 21.9522L26.2705 18.1859Z" fill="#FF0076"/>
<path fill-rule="evenodd" clip-rule="evenodd" d="M13.2775 13.7277C13.5593 13.4459 14.0075 13.4459 14.2894 13.7277L14.6935 14.1319C14.9753 14.4137 14.9753 14.8619 14.6935 15.1437L11.8372 18L14.6935 20.8563C14.9753 21.1381 14.9753 21.5863 14.6935 21.8681L14.2894 22.2723C14.0075 22.5541 13.5593 22.5541 13.2775 22.2723L9.51117 18.5059C9.22935 18.2241 9.22935 17.7759 9.51117 17.4941L9.83121 17.8141C9.72614 17.9192 9.72614 18.0809 9.83121 18.1859L13.5975 21.9522C13.7026 22.0573 13.8643 22.0573 13.9693 21.9522L14.3734 21.5481C14.4785 21.4431 14.4785 21.2814 14.3734 21.1764L11.1971 18L14.3734 14.8237C14.4785 14.7186 14.4785 14.557 14.3734 14.4519L13.9693 14.0478C13.8643 13.9427 13.7026 13.9427 13.5975 14.0478L9.83121 17.8141L9.51117 17.4941L13.2775 13.7277ZM20.0052 12.1668C20.378 12.2765 20.6011 12.6701 20.4898 13.0509L20.4895 13.0521L17.4748 23.4862C17.3689 23.8461 16.9843 24.0855 16.5999 23.9712L16.0965 23.8332C15.7238 23.7236 15.5007 23.3301 15.6118 22.9494L15.6122 22.9479L18.6269 12.5138C18.7328 12.1539 19.1175 11.9145 19.5018 12.0288L20.0052 12.1668ZM16.0465 23.0757C16.006 23.2131 16.0869 23.3586 16.2243 23.399L16.7254 23.5364C16.8547 23.5768 17.0002 23.496 17.0406 23.3586L20.0553 12.9244C20.0957 12.787 20.0148 12.6415 19.8774 12.6011L19.3763 12.4637C19.247 12.4233 19.1015 12.5041 19.0611 12.6415L17.5538 17.8586L16.0465 23.0757ZM21.8123 13.7277C22.0942 13.4459 22.5424 13.4459 22.8242 13.7277L26.5905 17.4941C26.8724 17.7759 26.8724 18.2241 26.5905 18.5059L22.8242 22.2723C22.5424 22.5541 22.0942 22.5541 21.8123 22.2723L21.4082 21.8681C21.1264 21.5863 21.1264 21.1381 21.4082 20.8563L24.2645 18L21.4082 15.1437C21.1264 14.8619 21.1264 14.4137 21.4082 14.1319L21.8123 13.7277ZM21.7283 21.1764C21.6232 21.2814 21.6232 21.4431 21.7283 21.5481L22.1324 21.9522C22.2375 22.0573 22.3991 22.0573 22.5042 21.9522L26.2705 18.1859C26.3756 18.0809 26.3756 17.9192 26.2705 17.8141L22.5042 14.0478C22.3991 13.9427 22.2375 13.9427 22.1324 14.0478L21.7283 14.4519C21.6232 14.557 21.6232 14.7186 21.7283 14.8237L24.9046 18L21.7283 21.1764Z" fill="#FF0076"/>
</svg>
