<svg xmlns="http://www.w3.org/2000/svg" viewBox="0 0 115.45 161.5"><title>Asset 1</title><path d="M1.5,126.12a3.66,3.66,0,0,0,4.83,3.72l102.79-27.19A6.86,6.86,0,0,0,114,96.37V66.05a3.66,3.66,0,0,0-4.83-3.72L6.33,89.52A6.87,6.87,0,0,0,1.5,95.8Z" style="fill:#31343c;opacity:0.25;isolation:isolate"/><path d="M1.5,126.12a3.66,3.66,0,0,0,4.83,3.72l102.79-27.19A6.86,6.86,0,0,0,114,96.37V66.05a3.66,3.66,0,0,0-4.83-3.72L6.33,89.52A6.87,6.87,0,0,0,1.5,95.8Z" style="fill:none;stroke:#31343c;stroke-miterlimit:10;stroke-width:3px"/><path d="M1.5,65.45a3.67,3.67,0,0,0,4.83,3.73L109.12,42A6.87,6.87,0,0,0,114,35.71V5.38a3.66,3.66,0,0,0-4.83-3.72L6.33,28.85A6.88,6.88,0,0,0,1.5,35.13Z" style="fill:#31343c;opacity:0.25;isolation:isolate"/><path d="M1.5,65.45a3.67,3.67,0,0,0,4.83,3.73L109.12,42A6.87,6.87,0,0,0,114,35.71V5.38a3.66,3.66,0,0,0-4.83-3.72L6.33,28.85A6.88,6.88,0,0,0,1.5,35.13Z" style="fill:none;stroke:#31343c;stroke-miterlimit:10;stroke-width:3px"/><path d="M114,95.49a3.66,3.66,0,0,1-4.83,3.72L6.33,72A6.88,6.88,0,0,1,1.5,65.74V35.41a3.66,3.66,0,0,1,4.83-3.72L109.12,58.88A6.86,6.86,0,0,1,114,65.16Z" style="fill:#fff;stroke:#31343c;stroke-miterlimit:10;stroke-width:3px"/><path d="M114,95.49a3.66,3.66,0,0,1-4.83,3.72L6.33,72A6.88,6.88,0,0,1,1.5,65.74V35.41a3.66,3.66,0,0,1,4.83-3.72L109.12,58.88A6.86,6.86,0,0,1,114,65.16Z" style="fill:none;stroke:#31343c;stroke-miterlimit:10;stroke-width:3px"/><path d="M114,156.12a3.66,3.66,0,0,1-4.83,3.72L6.33,132.65a6.87,6.87,0,0,1-4.83-6.28V96.05a3.66,3.66,0,0,1,4.83-3.72l102.79,27.19A6.86,6.86,0,0,1,114,125.8Z" style="fill:#fff"/><path d="M114,156.12a3.66,3.66,0,0,1-4.83,3.72L6.33,132.65a6.87,6.87,0,0,1-4.83-6.28V96.05a3.66,3.66,0,0,1,4.83-3.72l102.79,27.19A6.86,6.86,0,0,1,114,125.8Z" style="fill:none;stroke:#31343c;stroke-miterlimit:10;stroke-width:3px"/></svg>