<svg width="31" height="42" viewBox="0 0 31 42" fill="none" xmlns="http://www.w3.org/2000/svg">
<path d="M27.8448 39.6643H3.53757C2.86979 39.6643 2.33557 39.1301 2.33557 38.4623V3.53745C2.33557 2.86967 2.86979 2.33545 3.53757 2.33545H27.8448C28.5125 2.33545 29.0468 2.86967 29.0468 3.53745V38.3956C29.1135 39.1301 28.5125 39.6643 27.8448 39.6643Z" fill="#8ECCFD"/>
<path fill-rule="evenodd" clip-rule="evenodd" d="M3.67112 3.67112V38.3289H27.7112V3.67112H3.67112ZM1 3.53756C1 2.13217 2.13217 1 3.53756 1H27.8447C29.2501 1 30.3823 2.13217 30.3823 3.53756V38.3449C30.4865 39.9393 29.1566 41 27.8447 41H3.53756C2.13217 41 1 39.8678 1 38.4624V3.53756Z" fill="#0471FF"/>
<path fill-rule="evenodd" clip-rule="evenodd" d="M4.17112 4.17112V37.8289H27.2112V4.17112H4.17112ZM0.5 3.53756C0.5 1.85603 1.85603 0.5 3.53756 0.5H27.8447C29.5263 0.5 30.8823 1.85603 30.8823 3.53756V38.3293C30.9981 40.2523 29.3885 41.5 27.8447 41.5H3.53756C1.85603 41.5 0.5 40.144 0.5 38.4624V3.53756ZM30.3823 38.3449V3.53756C30.3823 2.13217 29.2501 1 27.8447 1H3.53756C2.13217 1 1 2.13217 1 3.53756V38.4624C1 39.8678 2.13217 41 3.53756 41H27.8447C29.1566 41 30.4865 39.9393 30.3823 38.3449ZM3.67112 3.67112H27.7112V38.3289H3.67112V3.67112Z" fill="#0471FF"/>
<path d="M8.14525 14.4893H23.6377C24.172 14.4893 24.5726 14.8899 24.5726 15.4241C24.5726 15.9584 24.172 16.359 23.6377 16.359H8.14525C7.61103 16.359 7.21036 15.9584 7.21036 15.4241C7.14358 14.9567 7.61103 14.4893 8.14525 14.4893Z" fill="#0471FF"/>
<path d="M8.14525 18.4292H23.6377C24.172 18.4292 24.5726 18.8299 24.5726 19.3641C24.5726 19.8983 24.172 20.299 23.6377 20.299H8.14525C7.61103 20.299 7.21036 19.8983 7.21036 19.3641C7.14358 18.8299 7.61103 18.4292 8.14525 18.4292Z" fill="#0471FF"/>
<path d="M8.14525 22.2354H23.6377C24.172 22.2354 24.5726 22.636 24.5726 23.1702C24.5726 23.7045 24.172 24.1051 23.6377 24.1051H8.14525C7.61103 24.1051 7.21036 23.7045 7.21036 23.1702C7.14358 22.7028 7.61103 22.2354 8.14525 22.2354Z" fill="#0471FF"/>
<path d="M8.14525 26.1084H23.6377C24.172 26.1084 24.5726 26.5091 24.5726 27.0433C24.5726 27.5775 24.172 27.9782 23.6377 27.9782H8.14525C7.61103 27.9782 7.21036 27.5775 7.21036 27.0433C7.14358 26.5758 7.61103 26.1084 8.14525 26.1084Z" fill="#0471FF"/>
</svg>
