<svg width="40" height="41" viewBox="0 0 40 41" fill="none" xmlns="http://www.w3.org/2000/svg">
<path d="M23.4816 38.4832L16.5366 31.5301L31.455 16.4595L38.528 23.5308L23.4816 38.4832Z" fill="#8AB4F8"/>
<path d="M23.5318 8.53777L16.4605 1.46484L1.46597 16.4594C-0.487306 18.411 -0.488925 21.5742 1.46273 23.5274C1.46435 23.5291 1.46597 23.5307 1.46597 23.5307L16.4605 38.5252L23.3974 31.556L12.0664 20.0047L23.5318 8.53777Z" fill="#4285F4"/>
<path d="M38.5264 16.4595L23.5318 1.46496C21.5785 -0.488318 18.4121 -0.488318 16.4589 1.46496C14.5056 3.41823 14.5056 6.58461 16.4589 8.53626L31.4615 23.5308C33.4148 25.4841 36.5812 25.4841 38.5328 23.5308C40.4861 21.5775 40.4861 18.4111 38.5328 16.4595H38.5264Z" fill="#8AB4F8"/>
<path d="M19.9412 40.0041C22.6784 40.0041 24.8973 37.7851 24.8973 35.0479C24.8973 32.3107 22.6784 30.0918 19.9412 30.0918C17.204 30.0918 14.9851 32.3107 14.9851 35.0479C14.9851 37.7851 17.204 40.0041 19.9412 40.0041Z" fill="#246FDB"/>
</svg>
