<svg width="305" height="105" viewBox="0 0 305 105" fill="none" xmlns="http://www.w3.org/2000/svg">
<mask id="path-1-outside-1" maskUnits="userSpaceOnUse" x="-0.172607" y="-0.230957" width="305" height="105" fill="black">
<rect fill="white" x="-0.172607" y="-0.230957" width="305" height="105"/>
<path fill-rule="evenodd" clip-rule="evenodd" d="M93.3766 18.3305C95.848 17.0145 98.2151 13.7559 97.7146 9.67224C97.1828 5.29611 93.387 1.92263 89.0386 1.95396V0.773767C91.948 0.669325 96.0461 2.28818 98.0378 6.46586C99.9879 10.5496 98.9972 15.8448 94.8469 18.9049C94.972 18.9154 95.0555 18.9154 95.1285 18.9154H97.0576C97.4643 18.9154 97.7563 19.166 97.7563 19.5316C97.7563 19.8867 97.4747 20.1478 97.068 20.1582H92.876C92.3859 20.1582 92.1565 19.918 92.1565 19.4376V15.2599C92.1565 14.8212 92.4068 14.5392 92.7718 14.5392C93.1367 14.5392 93.387 14.8212 93.387 15.2599C93.3766 16.2625 93.3766 17.2756 93.3766 18.3305ZM113.388 15.2529H118.638V16.7686H111.638V5.49512H113.388V15.2529ZM123.488 5.49512V16.7686H121.738V5.49512H123.488ZM136.291 5.49512L132.267 16.7686H130.353L126.33 5.49512H128.228L131.298 14.7998H131.345L134.423 5.49512H136.291ZM140.891 15.2529H146.297V16.7686H139.141V5.49512H146.297V7.00293H140.891V10.2998H146.008V11.7529H140.891V15.2529ZM164.091 13.2607C163.661 15.5889 161.895 16.9561 159.302 16.9561C156.138 16.9561 154.138 14.7217 154.138 11.1279C154.138 7.55762 156.153 5.30762 159.302 5.30762C161.856 5.30762 163.786 6.87793 164.083 9.22949H162.348C162.036 7.78418 160.833 6.83887 159.302 6.83887C157.255 6.83887 155.927 8.51855 155.927 11.1279C155.927 13.7607 157.239 15.4248 159.309 15.4248C160.88 15.4248 161.997 14.6201 162.348 13.2607H164.091ZM176.558 5.49512V16.7686H174.808V11.7764H169.019V16.7686H167.269V5.49512H169.019V10.2607H174.808V5.49512H176.558ZM189.423 16.7686H187.572L186.541 13.7217H182.244L181.212 16.7686H179.392L183.462 5.49512H185.353L189.423 16.7686ZM184.416 7.37012H184.369L182.689 12.3154H186.095L184.416 7.37012ZM193.969 8.46387V16.7686H192.266V5.49512H193.852L199.695 13.8076H199.758V5.49512H201.461V16.7686H199.883L194.039 8.46387H193.969ZM214.858 10.9326V12.0811C214.858 15.1357 213.053 16.9561 209.998 16.9561C206.772 16.9561 204.741 14.6982 204.741 11.0811C204.741 7.52637 206.764 5.30762 209.975 5.30762C212.483 5.30762 214.381 6.79199 214.772 9.04199H212.975C212.553 7.64355 211.452 6.83887 209.983 6.83887C207.827 6.83887 206.53 8.41699 206.53 11.0654C206.53 13.7607 207.866 15.4248 210.014 15.4248C211.842 15.4248 213.108 14.2529 213.131 12.542V12.3467H210.217V10.9326H214.858ZM219.919 15.2529H225.325V16.7686H218.169V5.49512H225.325V7.00293H219.919V10.2998H225.036V11.7529H219.919V15.2529ZM232.566 16.9561C230.019 16.9561 228.323 15.6826 228.214 13.6748H229.917C230.073 14.792 231.136 15.4639 232.636 15.4639C234.066 15.4639 235.089 14.7295 235.089 13.7217C235.089 12.8467 234.495 12.2998 232.988 11.9717L231.761 11.7139C229.503 11.2373 228.48 10.1904 228.48 8.56543C228.48 6.63574 230.175 5.30762 232.573 5.30762C234.964 5.30762 236.597 6.65918 236.652 8.62793H234.956C234.847 7.49512 233.917 6.7998 232.55 6.7998C231.23 6.7998 230.261 7.44043 230.261 8.47168C230.261 9.29199 230.839 9.83887 232.3 10.1514L233.534 10.4092C235.894 10.9092 236.863 11.8545 236.863 13.4951C236.863 15.6201 235.191 16.9561 232.566 16.9561ZM0.946601 101.657C19.0652 59.1835 52.4225 31.416 69.927 20.5395C70.5006 21.3841 71.1482 22.1743 71.8606 22.9009C54.8538 33.3792 21.6522 60.8118 3.70666 102.88C3.38364 103.637 2.50393 103.977 1.74176 103.64C0.979592 103.302 0.623587 102.414 0.946601 101.657ZM250.838 19.5735C250.017 19.1537 249.184 18.7408 248.34 18.335C248.768 17.4415 249.121 16.5048 249.389 15.5332C250.326 15.9816 251.25 16.4387 252.162 16.9045C270.975 26.52 286.48 39.1741 300.079 55.5293L300.523 50.0311L300.877 45.6397L300.987 44.2848L301.016 43.9139L301.024 43.8172L301.026 43.7925L301.027 43.7863L301.027 43.7847L301.027 43.7843C301.093 42.9598 301.817 42.3579 302.643 42.4398C303.468 42.5216 304.084 43.2563 304.017 44.0808L304.017 44.0812L304.017 44.0828L304.017 44.089L304.015 44.1137L304.007 44.2104L303.977 44.5813L303.867 45.9362L303.513 50.3276L302.759 59.668C302.694 60.4817 301.987 61.0807 301.171 61.0148L297.5 60.7185L285.04 59.713C284.213 59.6462 283.585 58.9227 283.636 58.097C283.687 57.2713 284.399 56.656 285.226 56.7227L297.686 57.7283L298.069 57.7592C298.055 57.7444 298.042 57.7293 298.03 57.7139C284.625 41.5227 269.374 29.0467 250.838 19.5735ZM83.3324 2.39266C83.3695 2.39576 83.4112 2.39924 83.4599 2.40272C81.2596 3.95891 79.831 5.97465 79.2574 8.55437C78.6839 11.1341 79.0697 13.5885 80.4045 15.8758C81.5099 17.7453 83.074 19.103 85.0658 19.9699C86.3067 20.513 87.6102 20.7637 88.9658 20.7741V19.5521C84.315 19.4999 80.5505 15.8967 80.2481 11.3325C80.1125 9.21236 80.6756 7.28017 81.927 5.56732C82.5944 4.64823 83.4077 3.89624 84.4192 3.26959V3.59336C84.4192 3.87111 84.4181 4.15 84.4169 4.42967C84.4146 4.99133 84.4123 5.5561 84.4192 6.12086C84.4297 6.49686 84.6904 6.76841 85.0345 6.76841C85.3786 6.76841 85.6497 6.49686 85.6497 6.12086C85.6602 4.66912 85.6602 3.21737 85.6497 1.76562C85.6497 1.33741 85.4516 1.14941 85.0241 1.14941H80.8529C80.4358 1.14941 80.1438 1.40008 80.1438 1.75518C80.1334 2.12073 80.4254 2.38183 80.8529 2.38183H83.147C83.2026 2.38183 83.2583 2.38647 83.3324 2.39266Z"/>
</mask>
<path fill-rule="evenodd" clip-rule="evenodd" d="M93.3766 18.3305C95.848 17.0145 98.2151 13.7559 97.7146 9.67224C97.1828 5.29611 93.387 1.92263 89.0386 1.95396V0.773767C91.948 0.669325 96.0461 2.28818 98.0378 6.46586C99.9879 10.5496 98.9972 15.8448 94.8469 18.9049C94.972 18.9154 95.0555 18.9154 95.1285 18.9154H97.0576C97.4643 18.9154 97.7563 19.166 97.7563 19.5316C97.7563 19.8867 97.4747 20.1478 97.068 20.1582H92.876C92.3859 20.1582 92.1565 19.918 92.1565 19.4376V15.2599C92.1565 14.8212 92.4068 14.5392 92.7718 14.5392C93.1367 14.5392 93.387 14.8212 93.387 15.2599C93.3766 16.2625 93.3766 17.2756 93.3766 18.3305ZM113.388 15.2529H118.638V16.7686H111.638V5.49512H113.388V15.2529ZM123.488 5.49512V16.7686H121.738V5.49512H123.488ZM136.291 5.49512L132.267 16.7686H130.353L126.33 5.49512H128.228L131.298 14.7998H131.345L134.423 5.49512H136.291ZM140.891 15.2529H146.297V16.7686H139.141V5.49512H146.297V7.00293H140.891V10.2998H146.008V11.7529H140.891V15.2529ZM164.091 13.2607C163.661 15.5889 161.895 16.9561 159.302 16.9561C156.138 16.9561 154.138 14.7217 154.138 11.1279C154.138 7.55762 156.153 5.30762 159.302 5.30762C161.856 5.30762 163.786 6.87793 164.083 9.22949H162.348C162.036 7.78418 160.833 6.83887 159.302 6.83887C157.255 6.83887 155.927 8.51855 155.927 11.1279C155.927 13.7607 157.239 15.4248 159.309 15.4248C160.88 15.4248 161.997 14.6201 162.348 13.2607H164.091ZM176.558 5.49512V16.7686H174.808V11.7764H169.019V16.7686H167.269V5.49512H169.019V10.2607H174.808V5.49512H176.558ZM189.423 16.7686H187.572L186.541 13.7217H182.244L181.212 16.7686H179.392L183.462 5.49512H185.353L189.423 16.7686ZM184.416 7.37012H184.369L182.689 12.3154H186.095L184.416 7.37012ZM193.969 8.46387V16.7686H192.266V5.49512H193.852L199.695 13.8076H199.758V5.49512H201.461V16.7686H199.883L194.039 8.46387H193.969ZM214.858 10.9326V12.0811C214.858 15.1357 213.053 16.9561 209.998 16.9561C206.772 16.9561 204.741 14.6982 204.741 11.0811C204.741 7.52637 206.764 5.30762 209.975 5.30762C212.483 5.30762 214.381 6.79199 214.772 9.04199H212.975C212.553 7.64355 211.452 6.83887 209.983 6.83887C207.827 6.83887 206.53 8.41699 206.53 11.0654C206.53 13.7607 207.866 15.4248 210.014 15.4248C211.842 15.4248 213.108 14.2529 213.131 12.542V12.3467H210.217V10.9326H214.858ZM219.919 15.2529H225.325V16.7686H218.169V5.49512H225.325V7.00293H219.919V10.2998H225.036V11.7529H219.919V15.2529ZM232.566 16.9561C230.019 16.9561 228.323 15.6826 228.214 13.6748H229.917C230.073 14.792 231.136 15.4639 232.636 15.4639C234.066 15.4639 235.089 14.7295 235.089 13.7217C235.089 12.8467 234.495 12.2998 232.988 11.9717L231.761 11.7139C229.503 11.2373 228.48 10.1904 228.48 8.56543C228.48 6.63574 230.175 5.30762 232.573 5.30762C234.964 5.30762 236.597 6.65918 236.652 8.62793H234.956C234.847 7.49512 233.917 6.7998 232.55 6.7998C231.23 6.7998 230.261 7.44043 230.261 8.47168C230.261 9.29199 230.839 9.83887 232.3 10.1514L233.534 10.4092C235.894 10.9092 236.863 11.8545 236.863 13.4951C236.863 15.6201 235.191 16.9561 232.566 16.9561ZM0.946601 101.657C19.0652 59.1835 52.4225 31.416 69.927 20.5395C70.5006 21.3841 71.1482 22.1743 71.8606 22.9009C54.8538 33.3792 21.6522 60.8118 3.70666 102.88C3.38364 103.637 2.50393 103.977 1.74176 103.64C0.979592 103.302 0.623587 102.414 0.946601 101.657ZM250.838 19.5735C250.017 19.1537 249.184 18.7408 248.34 18.335C248.768 17.4415 249.121 16.5048 249.389 15.5332C250.326 15.9816 251.25 16.4387 252.162 16.9045C270.975 26.52 286.48 39.1741 300.079 55.5293L300.523 50.0311L300.877 45.6397L300.987 44.2848L301.016 43.9139L301.024 43.8172L301.026 43.7925L301.027 43.7863L301.027 43.7847L301.027 43.7843C301.093 42.9598 301.817 42.3579 302.643 42.4398C303.468 42.5216 304.084 43.2563 304.017 44.0808L304.017 44.0812L304.017 44.0828L304.017 44.089L304.015 44.1137L304.007 44.2104L303.977 44.5813L303.867 45.9362L303.513 50.3276L302.759 59.668C302.694 60.4817 301.987 61.0807 301.171 61.0148L297.5 60.7185L285.04 59.713C284.213 59.6462 283.585 58.9227 283.636 58.097C283.687 57.2713 284.399 56.656 285.226 56.7227L297.686 57.7283L298.069 57.7592C298.055 57.7444 298.042 57.7293 298.03 57.7139C284.625 41.5227 269.374 29.0467 250.838 19.5735ZM83.3324 2.39266C83.3695 2.39576 83.4112 2.39924 83.4599 2.40272C81.2596 3.95891 79.831 5.97465 79.2574 8.55437C78.6839 11.1341 79.0697 13.5885 80.4045 15.8758C81.5099 17.7453 83.074 19.103 85.0658 19.9699C86.3067 20.513 87.6102 20.7637 88.9658 20.7741V19.5521C84.315 19.4999 80.5505 15.8967 80.2481 11.3325C80.1125 9.21236 80.6756 7.28017 81.927 5.56732C82.5944 4.64823 83.4077 3.89624 84.4192 3.26959V3.59336C84.4192 3.87111 84.4181 4.15 84.4169 4.42967C84.4146 4.99133 84.4123 5.5561 84.4192 6.12086C84.4297 6.49686 84.6904 6.76841 85.0345 6.76841C85.3786 6.76841 85.6497 6.49686 85.6497 6.12086C85.6602 4.66912 85.6602 3.21737 85.6497 1.76562C85.6497 1.33741 85.4516 1.14941 85.0241 1.14941H80.8529C80.4358 1.14941 80.1438 1.40008 80.1438 1.75518C80.1334 2.12073 80.4254 2.38183 80.8529 2.38183H83.147C83.2026 2.38183 83.2583 2.38647 83.3324 2.39266Z" fill="#0495FE"/>
<path d="M97.7146 9.67224L97.4168 9.70843L97.4168 9.70874L97.7146 9.67224ZM93.3766 18.3305H93.0766V18.8301L93.5176 18.5953L93.3766 18.3305ZM89.0386 1.95396H88.7386V2.25613L89.0407 2.25396L89.0386 1.95396ZM89.0386 0.773767L89.0278 0.47396L88.7386 0.484344V0.773767H89.0386ZM98.0378 6.46586L97.767 6.59497L97.7671 6.59514L98.0378 6.46586ZM94.8469 18.9049L94.6689 18.6635L94.026 19.1375L94.822 19.2039L94.8469 18.9049ZM97.068 20.1582V20.4583L97.0758 20.4581L97.068 20.1582ZM93.387 15.2599L93.687 15.263V15.2599H93.387ZM118.638 15.2529H118.938V14.9529H118.638V15.2529ZM113.388 15.2529H113.088V15.5529H113.388V15.2529ZM118.638 16.7686V17.0686H118.938V16.7686H118.638ZM111.638 16.7686H111.338V17.0686H111.638V16.7686ZM111.638 5.49512V5.19512H111.338V5.49512H111.638ZM113.388 5.49512H113.688V5.19512H113.388V5.49512ZM123.488 16.7686V17.0686H123.788V16.7686H123.488ZM123.488 5.49512H123.788V5.19512H123.488V5.49512ZM121.738 16.7686H121.438V17.0686H121.738V16.7686ZM121.738 5.49512V5.19512H121.438V5.49512H121.738ZM132.267 16.7686V17.0686H132.479L132.55 16.8694L132.267 16.7686ZM136.291 5.49512L136.573 5.59596L136.716 5.19512H136.291V5.49512ZM130.353 16.7686L130.071 16.8694L130.142 17.0686H130.353V16.7686ZM126.33 5.49512V5.19512H125.904L126.047 5.59596L126.33 5.49512ZM128.228 5.49512L128.513 5.40111L128.445 5.19512H128.228V5.49512ZM131.298 14.7998L131.014 14.8938L131.082 15.0998H131.298V14.7998ZM131.345 14.7998V15.0998H131.562L131.63 14.894L131.345 14.7998ZM134.423 5.49512V5.19512H134.207L134.139 5.40089L134.423 5.49512ZM146.297 15.2529H146.597V14.9529H146.297V15.2529ZM140.891 15.2529H140.591V15.5529H140.891V15.2529ZM146.297 16.7686V17.0686H146.597V16.7686H146.297ZM139.141 16.7686H138.841V17.0686H139.141V16.7686ZM139.141 5.49512V5.19512H138.841V5.49512H139.141ZM146.297 5.49512H146.597V5.19512H146.297V5.49512ZM146.297 7.00293V7.30293H146.597V7.00293H146.297ZM140.891 7.00293V6.70293H140.591V7.00293H140.891ZM140.891 10.2998H140.591V10.5998H140.891V10.2998ZM146.008 10.2998H146.308V9.9998H146.008V10.2998ZM146.008 11.7529V12.0529H146.308V11.7529H146.008ZM140.891 11.7529V11.4529H140.591V11.7529H140.891ZM164.091 13.2607L164.386 13.3152L164.451 12.9607H164.091V13.2607ZM164.083 9.22949V9.52949H164.423L164.38 9.19192L164.083 9.22949ZM162.348 9.22949L162.055 9.29289L162.106 9.52949H162.348V9.22949ZM162.348 13.2607V12.9607H162.116L162.058 13.1856L162.348 13.2607ZM176.558 16.7686V17.0686H176.858V16.7686H176.558ZM176.558 5.49512H176.858V5.19512H176.558V5.49512ZM174.808 16.7686H174.508V17.0686H174.808V16.7686ZM174.808 11.7764H175.108V11.4764H174.808V11.7764ZM169.019 11.7764V11.4764H168.719V11.7764H169.019ZM169.019 16.7686V17.0686H169.319V16.7686H169.019ZM167.269 16.7686H166.969V17.0686H167.269V16.7686ZM167.269 5.49512V5.19512H166.969V5.49512H167.269ZM169.019 5.49512H169.319V5.19512H169.019V5.49512ZM169.019 10.2607H168.719V10.5607H169.019V10.2607ZM174.808 10.2607V10.5607H175.108V10.2607H174.808ZM174.808 5.49512V5.19512H174.508V5.49512H174.808ZM187.572 16.7686L187.288 16.8647L187.357 17.0686H187.572V16.7686ZM189.423 16.7686V17.0686H189.851L189.706 16.6667L189.423 16.7686ZM186.541 13.7217L186.825 13.6255L186.756 13.4217H186.541V13.7217ZM182.244 13.7217V13.4217H182.029L181.96 13.6255L182.244 13.7217ZM181.212 16.7686V17.0686H181.428L181.497 16.8647L181.212 16.7686ZM179.392 16.7686L179.11 16.6667L178.965 17.0686H179.392V16.7686ZM183.462 5.49512V5.19512H183.252L183.18 5.39324L183.462 5.49512ZM185.353 5.49512L185.635 5.39324L185.564 5.19512H185.353V5.49512ZM184.369 7.37012V7.07012H184.154L184.085 7.27363L184.369 7.37012ZM184.416 7.37012L184.7 7.27363L184.631 7.07012H184.416V7.37012ZM182.689 12.3154L182.405 12.2189L182.27 12.6154H182.689V12.3154ZM186.095 12.3154V12.6154H186.514L186.379 12.2189L186.095 12.3154ZM193.969 16.7686V17.0686H194.269V16.7686H193.969ZM193.969 8.46387V8.16387H193.669V8.46387H193.969ZM192.266 16.7686H191.966V17.0686H192.266V16.7686ZM192.266 5.49512V5.19512H191.966V5.49512H192.266ZM193.852 5.49512L194.097 5.32258L194.007 5.19512H193.852V5.49512ZM199.695 13.8076L199.45 13.9802L199.539 14.1076H199.695V13.8076ZM199.758 13.8076V14.1076H200.058V13.8076H199.758ZM199.758 5.49512V5.19512H199.458V5.49512H199.758ZM201.461 5.49512H201.761V5.19512H201.461V5.49512ZM201.461 16.7686V17.0686H201.761V16.7686H201.461ZM199.883 16.7686L199.637 16.9412L199.727 17.0686H199.883V16.7686ZM194.039 8.46387L194.284 8.29122L194.195 8.16387H194.039V8.46387ZM214.858 10.9326H215.158V10.6326H214.858V10.9326ZM214.772 9.04199V9.34199H215.128L215.067 8.99068L214.772 9.04199ZM212.975 9.04199L212.688 9.12864L212.752 9.34199H212.975V9.04199ZM213.131 12.542L213.431 12.5461V12.542H213.131ZM213.131 12.3467H213.431V12.0467H213.131V12.3467ZM210.217 12.3467H209.917V12.6467H210.217V12.3467ZM210.217 10.9326V10.6326H209.917V10.9326H210.217ZM225.325 15.2529H225.625V14.9529H225.325V15.2529ZM219.919 15.2529H219.619V15.5529H219.919V15.2529ZM225.325 16.7686V17.0686H225.625V16.7686H225.325ZM218.169 16.7686H217.869V17.0686H218.169V16.7686ZM218.169 5.49512V5.19512H217.869V5.49512H218.169ZM225.325 5.49512H225.625V5.19512H225.325V5.49512ZM225.325 7.00293V7.30293H225.625V7.00293H225.325ZM219.919 7.00293V6.70293H219.619V7.00293H219.919ZM219.919 10.2998H219.619V10.5998H219.919V10.2998ZM225.036 10.2998H225.336V9.9998H225.036V10.2998ZM225.036 11.7529V12.0529H225.336V11.7529H225.036ZM219.919 11.7529V11.4529H219.619V11.7529H219.919ZM228.214 13.6748V13.3748H227.897L227.915 13.6911L228.214 13.6748ZM229.917 13.6748L230.214 13.6333L230.178 13.3748H229.917V13.6748ZM232.988 11.9717L233.051 11.6785L233.049 11.6781L232.988 11.9717ZM231.761 11.7139L231.699 12.0074L231.699 12.0075L231.761 11.7139ZM236.652 8.62793V8.92793H236.96L236.951 8.6196L236.652 8.62793ZM234.956 8.62793L234.658 8.65676L234.684 8.92793H234.956V8.62793ZM232.3 10.1514L232.237 10.4447L232.239 10.445L232.3 10.1514ZM233.534 10.4092L233.597 10.1157L233.596 10.1155L233.534 10.4092ZM69.927 20.5395L70.1751 20.371L70.0133 20.1327L69.7686 20.2847L69.927 20.5395ZM0.946601 101.657L1.22254 101.775L1.22254 101.775L0.946601 101.657ZM71.8606 22.9009L72.018 23.1563L72.3379 22.9591L72.0748 22.6908L71.8606 22.9009ZM3.70666 102.88L3.43072 102.762L3.43072 102.762L3.70666 102.88ZM1.74176 103.64L1.62026 103.914L1.62026 103.914L1.74176 103.64ZM248.34 18.335L248.07 18.2054L247.94 18.4756L248.21 18.6054L248.34 18.335ZM250.838 19.5735L250.702 19.8407L250.702 19.8407L250.838 19.5735ZM249.389 15.5332L249.518 15.2626L249.195 15.1079L249.1 15.4534L249.389 15.5332ZM252.162 16.9045L252.025 17.1716L252.025 17.1716L252.162 16.9045ZM300.079 55.5293L299.848 55.7211L300.319 56.2869L300.378 55.5534L300.079 55.5293ZM300.523 50.0311L300.822 50.0552L300.822 50.0552L300.523 50.0311ZM300.877 45.6397L301.176 45.6638L301.176 45.6638L300.877 45.6397ZM300.987 44.2848L300.688 44.2606L300.688 44.2606L300.987 44.2848ZM301.016 43.9139L300.717 43.8898L300.717 43.8898L301.016 43.9139ZM301.024 43.8172L301.323 43.8413L301.323 43.8412L301.024 43.8172ZM301.026 43.7925L301.325 43.8165L301.325 43.8159L301.026 43.7925ZM301.027 43.7863L301.326 43.8097L301.326 43.8095L301.027 43.7863ZM301.027 43.7847L300.73 43.7386L300.729 43.75L300.728 43.7614L301.027 43.7847ZM301.027 43.7843L301.323 43.8303L301.325 43.8194L301.326 43.8084L301.027 43.7843ZM302.643 42.4398L302.613 42.7383L302.613 42.7383L302.643 42.4398ZM304.017 44.0808L303.718 44.0567L303.718 44.0576L304.017 44.0808ZM304.017 44.0812L304.316 44.1045L304.316 44.1044L304.017 44.0812ZM304.017 44.0828L304.316 44.1076L304.316 44.106L304.017 44.0828ZM304.017 44.089L303.718 44.0641L303.718 44.065L304.017 44.089ZM304.015 44.1137L304.314 44.1378L304.314 44.1377L304.015 44.1137ZM304.007 44.2104L303.708 44.1863L303.708 44.1863L304.007 44.2104ZM303.977 44.5813L303.678 44.5571L303.678 44.5571L303.977 44.5813ZM303.867 45.9362L304.167 45.9603L304.167 45.9603L303.867 45.9362ZM303.513 50.3276L303.214 50.3035L303.214 50.3035L303.513 50.3276ZM302.759 59.668L303.058 59.6921L303.058 59.6921L302.759 59.668ZM301.171 61.0148L301.147 61.3139L301.147 61.3139L301.171 61.0148ZM297.5 60.7185L297.524 60.4195L297.524 60.4195L297.5 60.7185ZM285.04 59.713L285.064 59.4139L285.064 59.4139L285.04 59.713ZM285.226 56.7227L285.25 56.4237L285.25 56.4237L285.226 56.7227ZM297.686 57.7283L297.662 58.0273L297.662 58.0273L297.686 57.7283ZM298.069 57.7592L298.044 58.0582L298.792 58.1186L298.292 57.5593L298.069 57.7592ZM298.03 57.7139L298.261 57.5226L298.261 57.5226L298.03 57.7139ZM83.4599 2.40272L83.6331 2.64765L84.3179 2.16334L83.4813 2.10349L83.4599 2.40272ZM83.3324 2.39266L83.3075 2.69162L83.3075 2.69162L83.3324 2.39266ZM79.2574 8.55437L78.9646 8.48926L78.9646 8.48926L79.2574 8.55437ZM80.4045 15.8758L80.1454 16.027L80.1463 16.0285L80.4045 15.8758ZM85.0658 19.9699L85.1861 19.6951L85.1855 19.6948L85.0658 19.9699ZM88.9658 20.7741L88.9635 21.0741L89.2658 21.0764V20.7741H88.9658ZM88.9658 19.5521H89.2658V19.2555L88.9692 19.2522L88.9658 19.5521ZM80.2481 11.3325L79.9487 11.3517L79.9487 11.3524L80.2481 11.3325ZM81.927 5.56732L82.1692 5.74429L82.1697 5.74359L81.927 5.56732ZM84.4192 3.26959H84.7192V2.73083L84.2612 3.01457L84.4192 3.26959ZM84.4169 4.42967L84.1169 4.42843L84.1169 4.42843L84.4169 4.42967ZM84.4192 6.12086L84.1192 6.12457L84.1194 6.12918L84.4192 6.12086ZM85.6497 6.12086L85.3497 6.11871V6.12086H85.6497ZM85.6497 1.76562L85.3497 1.76562L85.3497 1.76778L85.6497 1.76562ZM80.1438 1.75518L80.4438 1.76374V1.75518H80.1438ZM97.4168 9.70874C97.9004 13.6538 95.6118 16.8004 93.2356 18.0657L93.5176 18.5953C96.0842 17.2286 98.5299 13.858 98.0124 9.63574L97.4168 9.70874ZM89.0407 2.25396C93.2337 2.22374 96.903 5.48073 97.4168 9.70843L98.0124 9.63605C97.4625 5.1115 93.5403 1.62152 89.0364 1.65397L89.0407 2.25396ZM88.7386 0.773767V1.95396H89.3386V0.773767H88.7386ZM98.3086 6.33676C96.2583 2.03607 92.039 0.365862 89.0278 0.47396L89.0493 1.07357C91.8569 0.972788 95.834 2.54029 97.767 6.59497L98.3086 6.33676ZM95.0249 19.1464C99.2966 15.9968 100.318 10.5438 98.3086 6.33659L97.7671 6.59514C99.6582 10.5553 98.6978 15.6928 94.6689 18.6635L95.0249 19.1464ZM95.1285 18.6154C95.0578 18.6154 94.9843 18.6153 94.8719 18.606L94.822 19.2039C94.9598 19.2154 95.0532 19.2154 95.1285 19.2154V18.6154ZM97.0576 18.6154H95.1285V19.2154H97.0576V18.6154ZM98.0563 19.5316C98.0563 19.2636 97.9469 19.0268 97.757 18.8606C97.5702 18.6971 97.3218 18.6154 97.0576 18.6154V19.2154C97.2002 19.2154 97.3011 19.2589 97.3619 19.3122C97.4197 19.3627 97.4563 19.434 97.4563 19.5316H98.0563ZM97.0758 20.4581C97.6124 20.4444 98.0563 20.0802 98.0563 19.5316H97.4563C97.4563 19.6931 97.3371 19.8512 97.0603 19.8583L97.0758 20.4581ZM92.876 20.4582H97.068V19.8582H92.876V20.4582ZM91.8565 19.4376C91.8565 19.7206 91.9239 19.9913 92.119 20.1889C92.3148 20.3871 92.5863 20.4582 92.876 20.4582V19.8582C92.6757 19.8582 92.5874 19.8092 92.5459 19.7673C92.5038 19.7246 92.4565 19.635 92.4565 19.4376H91.8565ZM91.8565 15.2599V19.4376H92.4565V15.2599H91.8565ZM92.7718 14.2392C92.5067 14.2392 92.2684 14.3442 92.1002 14.539C91.9353 14.73 91.8565 14.9849 91.8565 15.2599H92.4565C92.4565 15.0962 92.5029 14.9908 92.5544 14.9311C92.6026 14.8753 92.6718 14.8392 92.7718 14.8392V14.2392ZM93.687 15.2599C93.687 14.9849 93.6082 14.73 93.4433 14.539C93.2752 14.3442 93.0368 14.2392 92.7718 14.2392V14.8392C92.8717 14.8392 92.9409 14.8753 92.9892 14.9311C93.0406 14.9908 93.087 15.0962 93.087 15.2599H93.687ZM93.6766 18.3305C93.6766 17.2753 93.6766 16.2638 93.687 15.263L93.087 15.2568C93.0766 16.2612 93.0766 17.2759 93.0766 18.3305H93.6766ZM118.638 14.9529H113.388V15.5529H118.638V14.9529ZM118.938 16.7686V15.2529H118.338V16.7686H118.938ZM111.638 17.0686H118.638V16.4686H111.638V17.0686ZM111.338 5.49512V16.7686H111.938V5.49512H111.338ZM113.388 5.19512H111.638V5.79512H113.388V5.19512ZM113.688 15.2529V5.49512H113.088V15.2529H113.688ZM123.788 16.7686V5.49512H123.188V16.7686H123.788ZM121.738 17.0686H123.488V16.4686H121.738V17.0686ZM121.438 5.49512V16.7686H122.038V5.49512H121.438ZM123.488 5.19512H121.738V5.79512H123.488V5.19512ZM132.55 16.8694L136.573 5.59596L136.008 5.39428L131.985 16.6677L132.55 16.8694ZM130.353 17.0686H132.267V16.4686H130.353V17.0686ZM126.047 5.59596L130.071 16.8694L130.636 16.6677L126.612 5.39428L126.047 5.59596ZM128.228 5.19512H126.33V5.79512H128.228V5.19512ZM131.583 14.7058L128.513 5.40111L127.943 5.58912L131.014 14.8938L131.583 14.7058ZM131.345 14.4998H131.298V15.0998H131.345V14.4998ZM134.139 5.40089L131.06 14.7056L131.63 14.894L134.708 5.58934L134.139 5.40089ZM136.291 5.19512H134.423V5.79512H136.291V5.19512ZM146.297 14.9529H140.891V15.5529H146.297V14.9529ZM146.597 16.7686V15.2529H145.997V16.7686H146.597ZM139.141 17.0686H146.297V16.4686H139.141V17.0686ZM138.841 5.49512V16.7686H139.441V5.49512H138.841ZM146.297 5.19512H139.141V5.79512H146.297V5.19512ZM146.597 7.00293V5.49512H145.997V7.00293H146.597ZM140.891 7.30293H146.297V6.70293H140.891V7.30293ZM141.191 10.2998V7.00293H140.591V10.2998H141.191ZM146.008 9.9998H140.891V10.5998H146.008V9.9998ZM146.308 11.7529V10.2998H145.708V11.7529H146.308ZM140.891 12.0529H146.008V11.4529H140.891V12.0529ZM141.191 15.2529V11.7529H140.591V15.2529H141.191ZM159.302 17.2561C160.651 17.2561 161.809 16.9 162.691 16.2189C163.575 15.5362 164.159 14.5439 164.386 13.3152L163.796 13.2063C163.593 14.3057 163.079 15.1611 162.324 15.744C161.567 16.3285 160.546 16.6561 159.302 16.6561V17.2561ZM153.838 11.1279C153.838 12.9787 154.353 14.5132 155.309 15.5889C156.268 16.6686 157.645 17.2561 159.302 17.2561V16.6561C157.794 16.6561 156.589 16.1263 155.757 15.1904C154.922 14.2505 154.438 12.8709 154.438 11.1279H153.838ZM159.302 5.00762C157.652 5.00762 156.275 5.59959 155.315 6.6795C154.357 7.75567 153.838 9.28782 153.838 11.1279H154.438C154.438 9.39773 154.925 8.01972 155.763 7.07831C156.597 6.14065 157.803 5.60762 159.302 5.60762V5.00762ZM164.38 9.19192C164.062 6.67135 161.987 5.00762 159.302 5.00762V5.60762C161.725 5.60762 163.51 7.08451 163.785 9.26707L164.38 9.19192ZM162.348 9.52949H164.083V8.92949H162.348V9.52949ZM159.302 7.13887C160.699 7.13887 161.774 7.99234 162.055 9.29289L162.642 9.16609C162.298 7.57602 160.967 6.53887 159.302 6.53887V7.13887ZM156.227 11.1279C156.227 9.87096 156.547 8.87014 157.082 8.19056C157.612 7.5179 158.368 7.13887 159.302 7.13887V6.53887C158.188 6.53887 157.257 6.99967 156.611 7.81921C155.971 8.63182 155.627 9.77553 155.627 11.1279H156.227ZM159.309 15.1248C158.363 15.1248 157.605 14.7483 157.077 14.078C156.543 13.4002 156.227 12.398 156.227 11.1279H155.627C155.627 12.4907 155.966 13.6369 156.606 14.4493C157.252 15.2693 158.186 15.7248 159.309 15.7248V15.1248ZM162.058 13.1856C161.899 13.8018 161.57 14.281 161.112 14.6084C160.651 14.9371 160.043 15.1248 159.309 15.1248V15.7248C160.146 15.7248 160.881 15.5102 161.46 15.0967C162.041 14.6819 162.447 14.079 162.639 13.3359L162.058 13.1856ZM164.091 12.9607H162.348V13.5607H164.091V12.9607ZM176.858 16.7686V5.49512H176.258V16.7686H176.858ZM174.808 17.0686H176.558V16.4686H174.808V17.0686ZM174.508 11.7764V16.7686H175.108V11.7764H174.508ZM169.019 12.0764H174.808V11.4764H169.019V12.0764ZM169.319 16.7686V11.7764H168.719V16.7686H169.319ZM167.269 17.0686H169.019V16.4686H167.269V17.0686ZM166.969 5.49512V16.7686H167.569V5.49512H166.969ZM169.019 5.19512H167.269V5.79512H169.019V5.19512ZM169.319 10.2607V5.49512H168.719V10.2607H169.319ZM174.808 9.96074H169.019V10.5607H174.808V9.96074ZM174.508 5.49512V10.2607H175.108V5.49512H174.508ZM176.558 5.19512H174.808V5.79512H176.558V5.19512ZM187.572 17.0686H189.423V16.4686H187.572V17.0686ZM186.256 13.8179L187.288 16.8647L187.856 16.6724L186.825 13.6255L186.256 13.8179ZM182.244 14.0217H186.541V13.4217H182.244V14.0217ZM181.497 16.8647L182.528 13.8179L181.96 13.6255L180.928 16.6724L181.497 16.8647ZM179.392 17.0686H181.212V16.4686H179.392V17.0686ZM183.18 5.39324L179.11 16.6667L179.674 16.8704L183.745 5.597L183.18 5.39324ZM185.353 5.19512H183.462V5.79512H185.353V5.19512ZM189.706 16.6667L185.635 5.39324L185.071 5.597L189.141 16.8704L189.706 16.6667ZM184.369 7.67012H184.416V7.07012H184.369V7.67012ZM182.973 12.4119L184.653 7.4666L184.085 7.27363L182.405 12.2189L182.973 12.4119ZM186.095 12.0154H182.689V12.6154H186.095V12.0154ZM184.132 7.4666L185.811 12.4119L186.379 12.2189L184.7 7.27363L184.132 7.4666ZM194.269 16.7686V8.46387H193.669V16.7686H194.269ZM192.266 17.0686H193.969V16.4686H192.266V17.0686ZM191.966 5.49512V16.7686H192.566V5.49512H191.966ZM193.852 5.19512H192.266V5.79512H193.852V5.19512ZM199.941 13.6351L194.097 5.32258L193.606 5.66765L199.45 13.9802L199.941 13.6351ZM199.758 13.5076H199.695V14.1076H199.758V13.5076ZM199.458 5.49512V13.8076H200.058V5.49512H199.458ZM201.461 5.19512H199.758V5.79512H201.461V5.19512ZM201.761 16.7686V5.49512H201.161V16.7686H201.761ZM199.883 17.0686H201.461V16.4686H199.883V17.0686ZM193.794 8.63651L199.637 16.9412L200.128 16.5959L194.284 8.29122L193.794 8.63651ZM193.969 8.76387H194.039V8.16387H193.969V8.76387ZM215.158 12.0811V10.9326H214.558V12.0811H215.158ZM209.998 17.2561C211.585 17.2561 212.884 16.782 213.786 15.8757C214.688 14.9696 215.158 13.6673 215.158 12.0811H214.558C214.558 13.5495 214.125 14.6847 213.361 15.4524C212.597 16.22 211.466 16.6561 209.998 16.6561V17.2561ZM204.441 11.0811C204.441 12.9442 204.964 14.4907 205.936 15.5752C206.911 16.6634 208.311 17.2561 209.998 17.2561V16.6561C208.459 16.6561 207.23 16.1198 206.383 15.1748C205.533 14.2261 205.041 12.8351 205.041 11.0811H204.441ZM209.975 5.00762C208.297 5.00762 206.903 5.58959 205.932 6.65965C204.963 7.72646 204.441 9.24809 204.441 11.0811H205.041C205.041 9.35933 205.53 7.99424 206.376 7.06301C207.219 6.13502 208.442 5.60762 209.975 5.60762V5.00762ZM215.067 8.99068C214.649 6.57813 212.609 5.00762 209.975 5.00762V5.60762C212.357 5.60762 214.114 7.00585 214.476 9.09331L215.067 8.99068ZM212.975 9.34199H214.772V8.74199H212.975V9.34199ZM209.983 7.13887C211.322 7.13887 212.305 7.85937 212.688 9.12864L213.262 8.95535C212.801 7.42774 211.581 6.53887 209.983 6.53887V7.13887ZM206.83 11.0654C206.83 9.78633 207.143 8.80486 207.68 8.14897C208.21 7.50078 208.984 7.13887 209.983 7.13887V6.53887C208.825 6.53887 207.873 6.96602 207.215 7.769C206.565 8.56428 206.23 9.69609 206.23 11.0654H206.83ZM210.014 15.1248C209.025 15.1248 208.242 14.7455 207.7 14.0684C207.153 13.3837 206.83 12.3671 206.83 11.0654H206.23C206.23 12.4591 206.575 13.6221 207.232 14.4433C207.895 15.2721 208.855 15.7248 210.014 15.7248V15.1248ZM212.831 12.5379C212.821 13.3171 212.529 13.9576 212.046 14.4048C211.561 14.8533 210.864 15.1248 210.014 15.1248V15.7248C210.993 15.7248 211.842 15.4104 212.453 14.8452C213.066 14.2787 213.418 13.4779 213.431 12.5461L212.831 12.5379ZM212.831 12.3467V12.542H213.431V12.3467H212.831ZM210.217 12.6467H213.131V12.0467H210.217V12.6467ZM209.917 10.9326V12.3467H210.517V10.9326H209.917ZM214.858 10.6326H210.217V11.2326H214.858V10.6326ZM225.325 14.9529H219.919V15.5529H225.325V14.9529ZM225.625 16.7686V15.2529H225.025V16.7686H225.625ZM218.169 17.0686H225.325V16.4686H218.169V17.0686ZM217.869 5.49512V16.7686H218.469V5.49512H217.869ZM225.325 5.19512H218.169V5.79512H225.325V5.19512ZM225.625 7.00293V5.49512H225.025V7.00293H225.625ZM219.919 7.30293H225.325V6.70293H219.919V7.30293ZM220.219 10.2998V7.00293H219.619V10.2998H220.219ZM225.036 9.9998H219.919V10.5998H225.036V9.9998ZM225.336 11.7529V10.2998H224.736V11.7529H225.336ZM219.919 12.0529H225.036V11.4529H219.919V12.0529ZM220.219 15.2529V11.7529H219.619V15.2529H220.219ZM227.915 13.6911C227.974 14.7833 228.469 15.6854 229.295 16.308C230.116 16.926 231.245 17.2561 232.566 17.2561V16.6561C231.339 16.6561 230.347 16.3493 229.656 15.8287C228.971 15.3127 228.564 14.5741 228.514 13.6585L227.915 13.6911ZM229.917 13.3748H228.214V13.9748H229.917V13.3748ZM232.636 15.1639C231.206 15.1639 230.34 14.5353 230.214 13.6333L229.62 13.7164C229.806 15.0486 231.066 15.7639 232.636 15.7639V15.1639ZM234.789 13.7217C234.789 14.113 234.594 14.4634 234.225 14.7264C233.851 14.9923 233.303 15.1639 232.636 15.1639V15.7639C233.399 15.7639 234.077 15.5682 234.573 15.215C235.073 14.8589 235.389 14.3382 235.389 13.7217H234.789ZM232.924 12.2648C233.66 12.425 234.128 12.6303 234.409 12.8699C234.674 13.0953 234.789 13.3645 234.789 13.7217H235.389C235.389 13.2038 235.208 12.7621 234.798 12.4133C234.406 12.0787 233.823 11.8465 233.051 11.6785L232.924 12.2648ZM231.699 12.0075L232.926 12.2653L233.049 11.6781L231.823 11.4203L231.699 12.0075ZM228.18 8.56543C228.18 9.44772 228.461 10.197 229.064 10.7852C229.659 11.3645 230.541 11.7629 231.699 12.0074L231.823 11.4203C230.723 11.1883 229.965 10.825 229.483 10.3555C229.01 9.89484 228.78 9.30814 228.78 8.56543H228.18ZM232.573 5.00762C231.321 5.00762 230.228 5.35427 229.441 5.97773C228.649 6.60505 228.18 7.50449 228.18 8.56543H228.78C228.78 7.69668 229.158 6.96721 229.813 6.44805C230.474 5.92502 231.427 5.60762 232.573 5.60762V5.00762ZM236.951 8.6196C236.922 7.54822 236.46 6.63644 235.678 5.99729C234.901 5.36126 233.824 5.00762 232.573 5.00762V5.60762C233.714 5.60762 234.648 5.92976 235.299 6.46169C235.945 6.99052 236.327 7.73888 236.352 8.63626L236.951 8.6196ZM234.956 8.92793H236.652V8.32793H234.956V8.92793ZM232.55 7.0998C233.185 7.0998 233.691 7.26122 234.044 7.52832C234.392 7.79173 234.611 8.1715 234.658 8.65676L235.255 8.5991C235.192 7.95155 234.892 7.41726 234.406 7.0498C233.925 6.68604 233.282 6.4998 232.55 6.4998V7.0998ZM230.561 8.47168C230.561 8.06254 230.748 7.73206 231.084 7.49366C231.428 7.24968 231.934 7.0998 232.55 7.0998V6.4998C231.845 6.4998 231.207 6.67024 230.737 7.00439C230.258 7.34412 229.961 7.84957 229.961 8.47168H230.561ZM232.363 9.858C231.652 9.70597 231.199 9.50475 230.927 9.27346C230.67 9.05519 230.561 8.79869 230.561 8.47168H229.961C229.961 8.96498 230.141 9.39208 230.538 9.73045C230.921 10.0558 231.487 10.2843 232.237 10.4447L232.363 9.858ZM233.596 10.1155L232.361 9.8577L232.239 10.445L233.473 10.7028L233.596 10.1155ZM237.163 13.4951C237.163 12.6085 236.897 11.8767 236.288 11.3056C235.693 10.747 234.798 10.3703 233.597 10.1157L233.472 10.7027C234.63 10.948 235.399 11.294 235.878 11.7432C236.343 12.18 236.563 12.7411 236.563 13.4951H237.163ZM232.566 17.2561C233.926 17.2561 235.073 16.9101 235.886 16.2563C236.707 15.5968 237.163 14.6438 237.163 13.4951H236.563C236.563 14.4715 236.182 15.2489 235.511 15.7886C234.832 16.334 233.83 16.6561 232.566 16.6561V17.2561ZM69.7686 20.2847C52.2292 31.1829 18.8204 58.9929 0.670659 101.54L1.22254 101.775C19.31 59.3742 52.6159 31.649 70.0853 20.7944L69.7686 20.2847ZM72.0748 22.6908C71.3749 21.977 70.7386 21.2007 70.1751 20.371L69.6788 20.7081C70.2625 21.5675 70.9215 22.3716 71.6464 23.1109L72.0748 22.6908ZM3.9826 102.997C21.8969 61.0028 55.0465 33.6128 72.018 23.1563L71.7032 22.6454C54.661 33.1456 21.4076 60.6207 3.43072 102.762L3.9826 102.997ZM1.62026 103.914C2.53209 104.318 3.59253 103.912 3.9826 102.997L3.43072 102.762C3.17476 103.362 2.47577 103.637 1.86326 103.365L1.62026 103.914ZM0.67066 101.54C0.28191 102.451 0.711255 103.511 1.62026 103.914L1.86326 103.365C1.24793 103.093 0.965263 102.378 1.22254 101.775L0.67066 101.54ZM248.21 18.6054C249.052 19.0101 249.883 19.4219 250.702 19.8407L250.975 19.3064C250.151 18.8854 249.317 18.4715 248.47 18.0647L248.21 18.6054ZM249.1 15.4534C248.836 16.4077 248.49 17.3278 248.07 18.2054L248.611 18.4646C249.047 17.5553 249.405 16.6019 249.678 15.613L249.1 15.4534ZM252.298 16.6374C251.384 16.1704 250.458 15.7121 249.518 15.2626L249.259 15.8038C250.194 16.2511 251.116 16.7071 252.025 17.1716L252.298 16.6374ZM300.31 55.3375C286.686 38.9527 271.15 26.2723 252.298 16.6374L252.025 17.1716C270.801 26.7677 286.274 39.3955 299.848 55.7211L300.31 55.3375ZM300.224 50.007L299.78 55.5051L300.378 55.5534L300.822 50.0552L300.224 50.007ZM300.578 45.6155L300.224 50.007L300.822 50.0552L301.176 45.6638L300.578 45.6155ZM300.688 44.2606L300.578 45.6155L301.176 45.6638L301.286 44.3089L300.688 44.2606ZM300.717 43.8898L300.688 44.2606L301.286 44.3089L301.316 43.938L300.717 43.8898ZM300.725 43.793L300.717 43.8898L301.316 43.9381L301.323 43.8413L300.725 43.793ZM300.727 43.7685L300.725 43.7931L301.323 43.8412L301.325 43.8165L300.727 43.7685ZM300.728 43.7628L300.727 43.7691L301.325 43.8159L301.326 43.8097L300.728 43.7628ZM300.728 43.7614L300.728 43.763L301.326 43.8095L301.326 43.808L300.728 43.7614ZM300.73 43.7382L300.73 43.7386L301.323 43.8307L301.323 43.8303L300.73 43.7382ZM302.672 42.1412C301.68 42.0429 300.808 42.7674 300.728 43.7602L301.326 43.8084C301.379 43.1522 301.953 42.6729 302.613 42.7383L302.672 42.1412ZM304.316 44.1049C304.396 43.1165 303.66 42.2391 302.672 42.1412L302.613 42.7383C303.277 42.8041 303.772 43.3961 303.718 44.0567L304.316 44.1049ZM304.316 44.1044L304.316 44.104L303.718 44.0576L303.718 44.058L304.316 44.1044ZM304.316 44.106L304.316 44.1045L303.718 44.0579L303.718 44.0595L304.316 44.106ZM304.316 44.1139L304.316 44.1076L303.718 44.0579L303.718 44.0641L304.316 44.1139ZM304.314 44.1377L304.316 44.113L303.718 44.065L303.716 44.0896L304.314 44.1377ZM304.306 44.2346L304.314 44.1378L303.716 44.0895L303.708 44.1863L304.306 44.2346ZM304.276 44.6054L304.306 44.2345L303.708 44.1863L303.678 44.5571L304.276 44.6054ZM304.167 45.9603L304.276 44.6054L303.678 44.5571L303.568 45.912L304.167 45.9603ZM303.812 50.3517L304.167 45.9603L303.568 45.912L303.214 50.3035L303.812 50.3517ZM303.058 59.6921L303.812 50.3517L303.214 50.3035L302.46 59.6438L303.058 59.6921ZM301.147 61.3139C302.127 61.393 302.979 60.6718 303.058 59.6921L302.46 59.6438C302.408 60.2915 301.847 60.7684 301.195 60.7158L301.147 61.3139ZM297.476 61.0176L301.147 61.3139L301.195 60.7158L297.524 60.4195L297.476 61.0176ZM285.016 60.012L297.476 61.0176L297.524 60.4195L285.064 59.4139L285.016 60.012ZM283.337 58.0784C283.275 59.0681 284.027 59.9322 285.016 60.012L285.064 59.4139C284.4 59.3603 283.894 58.7774 283.935 58.1156L283.337 58.0784ZM285.25 56.4237C284.257 56.3435 283.398 57.0844 283.337 58.0784L283.935 58.1156C283.976 57.4582 284.542 56.9684 285.202 57.0217L285.25 56.4237ZM297.71 57.4293L285.25 56.4237L285.202 57.0217L297.662 58.0273L297.71 57.4293ZM298.093 57.4602L297.71 57.4293L297.662 58.0273L298.044 58.0582L298.093 57.4602ZM297.799 57.9052C297.814 57.9236 297.829 57.9415 297.845 57.9591L298.292 57.5593C298.282 57.5473 298.271 57.535 298.261 57.5226L297.799 57.9052ZM250.702 19.8407C269.199 29.2943 284.419 41.7438 297.799 57.9052L298.261 57.5226C284.832 41.3016 269.548 28.7991 250.975 19.3064L250.702 19.8407ZM83.4813 2.10349C83.4346 2.10015 83.3945 2.0968 83.3574 2.0937L83.3075 2.69162C83.3445 2.69472 83.3878 2.69833 83.4385 2.70196L83.4813 2.10349ZM79.5503 8.61948C80.1061 6.11927 81.4877 4.16503 83.6331 2.64765L83.2866 2.15779C81.0315 3.75279 79.5558 5.83002 78.9646 8.48926L79.5503 8.61948ZM80.6636 15.7246C79.3668 13.5023 78.9932 11.1251 79.5503 8.61948L78.9646 8.48926C78.3746 11.1431 78.7727 13.6747 80.1454 16.027L80.6636 15.7246ZM85.1855 19.6948C83.2499 18.8524 81.735 17.5367 80.6627 15.7231L80.1463 16.0285C81.2847 17.9539 82.8981 19.3537 84.946 20.245L85.1855 19.6948ZM88.9681 20.4741C87.6489 20.464 86.3861 20.2203 85.1861 19.6951L84.9455 20.2447C86.2273 20.8057 87.5715 21.0634 88.9635 21.0741L88.9681 20.4741ZM88.6658 19.5521V20.7741H89.2658V19.5521H88.6658ZM79.9487 11.3524C80.2615 16.0727 84.1547 19.7981 88.9624 19.8521L88.9692 19.2522C84.4752 19.2017 80.8395 15.7207 80.5474 11.3127L79.9487 11.3524ZM81.6847 5.39035C80.392 7.15992 79.8087 9.16151 79.9487 11.3517L80.5475 11.3134C80.4164 9.26321 80.9593 7.40043 82.1692 5.74429L81.6847 5.39035ZM84.2612 3.01457C83.2179 3.66095 82.3753 4.4393 81.6842 5.39105L82.1697 5.74359C82.8134 4.85716 83.5976 4.13154 84.5772 3.52462L84.2612 3.01457ZM84.7192 3.59336V3.26959H84.1192V3.59336H84.7192ZM84.7169 4.43091C84.7181 4.15135 84.7192 3.87183 84.7192 3.59336H84.1192C84.1192 3.87038 84.1181 4.14866 84.1169 4.42843L84.7169 4.43091ZM84.7192 6.11717C84.7123 5.55528 84.7146 4.99298 84.7169 4.43091L84.1169 4.42843C84.1146 4.98968 84.1123 5.55692 84.1193 6.12456L84.7192 6.11717ZM85.0345 6.46841C84.8735 6.46841 84.7256 6.3477 84.7191 6.11255L84.1194 6.12918C84.1337 6.64601 84.5072 7.06841 85.0345 7.06841V6.46841ZM85.3497 6.12086C85.3497 6.34152 85.2028 6.46841 85.0345 6.46841V7.06841C85.5545 7.06841 85.9497 6.6522 85.9497 6.12086H85.3497ZM85.3497 1.76778C85.3601 3.21809 85.3601 4.6684 85.3497 6.11871L85.9497 6.12302C85.9602 4.66984 85.9602 3.21665 85.9497 1.76347L85.3497 1.76778ZM85.0241 1.44941C85.2011 1.44941 85.2647 1.4892 85.2877 1.51161C85.3091 1.53254 85.3497 1.59177 85.3497 1.76562H85.9497C85.9497 1.51127 85.8913 1.26239 85.7068 1.08227C85.5238 0.903622 85.2746 0.849414 85.0241 0.849414V1.44941ZM80.8529 1.44941H85.0241V0.849414H80.8529V1.44941ZM80.4438 1.75518C80.4438 1.66566 80.4782 1.59738 80.537 1.54709C80.599 1.49405 80.7034 1.44941 80.8529 1.44941V0.849414C80.5853 0.849414 80.3352 0.930107 80.1469 1.09117C79.9554 1.25499 79.8438 1.48959 79.8438 1.75518H80.4438ZM80.8529 2.08183C80.6992 2.08183 80.5942 2.03528 80.5332 1.98113C80.4754 1.92989 80.441 1.85898 80.4437 1.76373L79.8439 1.74662C79.8362 2.01693 79.9426 2.25934 80.1351 2.43004C80.3243 2.59784 80.5791 2.68183 80.8529 2.68183V2.08183ZM83.147 2.08183H80.8529V2.68183H83.147V2.08183ZM83.3574 2.0937C83.2863 2.08777 83.2175 2.08183 83.147 2.08183V2.68183C83.1877 2.68183 83.2302 2.68518 83.3075 2.69162L83.3574 2.0937Z" fill="#0495FE" mask="url(#path-1-outside-1)"/>
</svg>
