<svg width="1239" height="667" viewBox="0 0 1239 667" fill="none" xmlns="http://www.w3.org/2000/svg">
<path d="M1224.25 0H14.75C6.6038 0 0 4.41755 0 9.86686V657.133C0 662.582 6.6038 667 14.75 667H1224.25C1232.4 667 1239 662.582 1239 657.133V9.86686C1239 4.41755 1232.4 0 1224.25 0Z" fill="white"/>
<path d="M188.406 100.95H56.6097C53.5768 100.95 51.1182 102.427 51.1182 104.25V107.55C51.1182 109.372 53.5768 110.85 56.6097 110.85H188.406C191.438 110.85 193.897 109.372 193.897 107.55V104.25C193.897 102.427 191.438 100.95 188.406 100.95Z" fill="#CBD5E1"/>
<path d="M188.406 280.95H56.6097C53.5768 280.95 51.1182 282.427 51.1182 284.25V287.55C51.1182 289.372 53.5768 290.85 56.6097 290.85H188.406C191.438 290.85 193.897 289.372 193.897 287.55V284.25C193.897 282.427 191.438 280.95 188.406 280.95Z" fill="#CBD5E1"/>
<rect x="25" y="96" width="19.1533" height="18.15" rx="1" fill="#CBD5E1"/>
<rect x="25" y="276" width="19.1533" height="18.15" rx="1" fill="#CBD5E1"/>
<rect x="25" y="186.75" width="19.1533" height="18.15" rx="1" fill="#CBD5E1"/>
<rect x="25" y="231.3" width="19.1533" height="18.15" rx="1" fill="#CBD5E1"/>
<path d="M111.77 145.5H56.632C53.5868 145.5 51.1182 146.977 51.1182 148.8V152.1C51.1182 153.923 53.5868 155.4 56.632 155.4H111.77C114.815 155.4 117.284 153.923 117.284 152.1V148.8C117.284 146.977 114.815 145.5 111.77 145.5Z" fill="#8585FF"/>
<rect x="25" y="142.2" width="19.1533" height="16.5" rx="1" fill="#8585FF"/>
<path d="M96.0026 190.05H56.7287C53.6301 190.05 51.1182 191.774 51.1182 193.9V197.75C51.1182 199.876 53.6301 201.6 56.7287 201.6H96.0026C99.1012 201.6 101.613 199.876 101.613 197.75V193.9C101.613 191.774 99.1012 190.05 96.0026 190.05Z" fill="#CBD5E1"/>
<path d="M151.742 236.25H56.7084C53.621 236.25 51.1182 237.727 51.1182 239.55V242.85C51.1182 244.672 53.621 246.15 56.7084 246.15H151.742C154.829 246.15 157.332 244.672 157.332 242.85V239.55C157.332 237.727 154.829 236.25 151.742 236.25Z" fill="#CBD5E1"/>
<rect x="1170.52" y="37.9717" width="85.5157" height="13.9718" rx="1" transform="rotate(-180 1170.52 37.9717)" fill="#CBD5E1"/>
<path d="M373.944 100H270.056C268.368 100 267 102.328 267 105.2V120.8C267 123.672 268.368 126 270.056 126H373.944C375.632 126 377 123.672 377 120.8V105.2C377 102.328 375.632 100 373.944 100Z" fill="#E6ECF2"/>
<rect x="1088" y="102" width="98.99" height="25.8593" rx="2" stroke="#E2E8F0" stroke-width="2"/>
<path d="M377.793 444.253H285.914C284.422 444.253 283.212 445.567 283.212 447.187V455.99C283.212 457.61 284.422 458.924 285.914 458.924H377.793C379.286 458.924 380.496 457.61 380.496 455.99V447.187C380.496 445.567 379.286 444.253 377.793 444.253Z" fill="#E6ECF2"/>
<rect x="267.932" y="428.932" width="286.951" height="195.648" rx="4.65829" stroke="#E2E8F0" stroke-width="1.86332"/>
<rect x="282.957" y="485.175" width="15.74" height="13.8599" rx="0.931658" fill="#E2E8F0"/>
<rect x="310.502" y="485.174" width="106.245" height="13.8599" rx="0.931658" fill="#E2E8F0"/>
<rect x="449.538" y="485.174" width="55.0899" height="13.8599" rx="0.931658" fill="#E2E8F0" fill-opacity="0.5"/>
<rect x="282.957" y="514.629" width="15.74" height="13.8599" rx="0.931658" fill="#E2E8F0"/>
<rect x="310.083" y="514.628" width="102.122" height="13.8605" rx="0.931658" fill="#E2E8F0"/>
<rect x="448.905" y="514.628" width="46.2741" height="13.8605" rx="0.931658" fill="#E2E8F0" fill-opacity="0.5"/>
<rect x="282.956" y="547.547" width="15.74" height="13.8599" rx="0.931658" fill="#E2E8F0"/>
<rect x="310.083" y="547.546" width="94.1438" height="13.8605" rx="0.931658" fill="#E2E8F0"/>
<rect x="449.538" y="547.546" width="55.0899" height="13.8599" rx="0.931658" fill="#E2E8F0" fill-opacity="0.5"/>
<rect x="282.957" y="580.466" width="15.74" height="13.8599" rx="0.931658" fill="#E2E8F0"/>
<rect x="310.501" y="580.465" width="106.245" height="13.8599" rx="0.931658" fill="#E2E8F0"/>
<rect x="449.538" y="580.465" width="55.0899" height="13.8599" rx="0.931658" fill="#E2E8F0" fill-opacity="0.5"/>
<path d="M698.284 444.253H606.405C604.913 444.253 603.703 445.567 603.703 447.187V455.99C603.703 457.61 604.913 458.924 606.405 458.924H698.284C699.776 458.924 700.986 457.61 700.986 455.99V447.187C700.986 445.567 699.776 444.253 698.284 444.253Z" fill="#E6ECF2"/>
<rect x="588.422" y="428.932" width="286.951" height="195.648" rx="4.65829" stroke="#E2E8F0" stroke-width="1.86332"/>
<rect x="603.447" y="485.175" width="15.74" height="13.8599" rx="0.931658" fill="#E2E8F0"/>
<rect x="630.992" y="485.174" width="106.245" height="13.8599" rx="0.931658" fill="#E2E8F0"/>
<rect x="770.029" y="485.174" width="55.0899" height="13.8599" rx="0.931658" fill="#E2E8F0" fill-opacity="0.5"/>
<rect x="603.447" y="514.629" width="15.74" height="13.8599" rx="0.931658" fill="#E2E8F0"/>
<rect x="630.573" y="514.628" width="102.122" height="13.8605" rx="0.931658" fill="#E2E8F0"/>
<rect x="769.395" y="514.628" width="46.2741" height="13.8605" rx="0.931658" fill="#E2E8F0" fill-opacity="0.5"/>
<rect x="603.447" y="547.547" width="15.74" height="13.8599" rx="0.931658" fill="#E2E8F0"/>
<rect x="630.573" y="547.546" width="94.1438" height="13.8605" rx="0.931658" fill="#E2E8F0"/>
<rect x="770.028" y="547.546" width="55.0899" height="13.8599" rx="0.931658" fill="#E2E8F0" fill-opacity="0.5"/>
<rect x="603.447" y="580.466" width="15.74" height="13.8599" rx="0.931658" fill="#E2E8F0"/>
<rect x="630.992" y="580.465" width="106.245" height="13.8599" rx="0.931658" fill="#E2E8F0"/>
<rect x="770.028" y="580.465" width="55.0899" height="13.8599" rx="0.931658" fill="#E2E8F0" fill-opacity="0.5"/>
<path d="M1015.98 444.253H924.1C922.608 444.253 921.398 445.567 921.398 447.187V455.99C921.398 457.61 922.608 458.924 924.1 458.924H1015.98C1017.47 458.924 1018.68 457.61 1018.68 455.99V447.187C1018.68 445.567 1017.47 444.253 1015.98 444.253Z" fill="#E6ECF2"/>
<rect x="906.118" y="428.932" width="286.951" height="195.648" rx="4.65829" stroke="#E2E8F0" stroke-width="1.86332"/>
<rect x="921.143" y="485.175" width="15.74" height="13.8599" rx="0.931658" fill="#E2E8F0"/>
<rect x="948.688" y="485.174" width="106.245" height="13.8599" rx="0.931658" fill="#E2E8F0"/>
<rect x="1087.72" y="485.174" width="55.0899" height="13.8599" rx="0.931658" fill="#E2E8F0" fill-opacity="0.5"/>
<rect x="921.142" y="514.629" width="15.74" height="13.8599" rx="0.931658" fill="#E2E8F0"/>
<rect x="948.269" y="514.628" width="102.122" height="13.8605" rx="0.931658" fill="#E2E8F0"/>
<rect x="1087.09" y="514.628" width="46.2741" height="13.8605" rx="0.931658" fill="#E2E8F0" fill-opacity="0.5"/>
<rect x="921.142" y="547.547" width="15.74" height="13.8599" rx="0.931658" fill="#E2E8F0"/>
<rect x="948.269" y="547.546" width="94.1438" height="13.8605" rx="0.931658" fill="#E2E8F0"/>
<rect x="1087.72" y="547.546" width="55.0899" height="13.8599" rx="0.931658" fill="#E2E8F0" fill-opacity="0.5"/>
<rect x="921.142" y="580.466" width="15.74" height="13.8599" rx="0.931658" fill="#E2E8F0"/>
<rect x="948.688" y="580.465" width="106.245" height="13.8599" rx="0.931658" fill="#E2E8F0"/>
<rect x="1087.72" y="580.465" width="55.0899" height="13.8599" rx="0.931658" fill="#E2E8F0" fill-opacity="0.5"/>
<line y1="60.1836" x2="1238" y2="60.1836" stroke="#E2E8F0"/>
<rect x="1.5" y="-1.5" width="440.283" height="212.84" rx="3.28842" transform="matrix(1 0 0 -1 265 382.839)" fill="white" stroke="#E2E8F0" stroke-width="3"/>
<rect x="-1.5" y="1.5" width="445" height="213" rx="3.28842" transform="matrix(-1 0 0 1 1187 170)" fill="white" stroke="#E2E8F0" stroke-width="3"/>
<path d="M352.032 347.545L353.19 349.17C352.641 349.561 351.931 349.649 351.304 349.402L352.032 347.545ZM402.511 311.572L401.353 309.947C401.979 309.501 402.806 309.454 403.478 309.827L402.511 311.572ZM455.89 341.163L457.788 341.778C457.604 342.345 457.177 342.8 456.622 343.019C456.068 343.237 455.444 343.197 454.923 342.908L455.89 341.163ZM490.703 233.823L488.805 233.207C489.036 232.495 489.647 231.972 490.386 231.853C491.126 231.734 491.869 232.039 492.312 232.643L490.703 233.823ZM542.342 304.252L544.078 305.236C543.745 305.825 543.135 306.204 542.459 306.244C541.783 306.284 541.134 305.978 540.733 305.432L542.342 304.252ZM575.995 244.847L574.259 243.864C574.368 243.67 574.51 243.496 574.677 243.349L575.995 244.847ZM624.152 202.491L622.835 200.993C623.281 200.601 623.88 200.428 624.467 200.521C625.054 200.615 625.569 200.965 625.871 201.478L624.152 202.491ZM293.579 322.479L352.761 345.687L351.304 349.402L292.122 326.194L293.579 322.479ZM350.874 345.92L401.353 309.947L403.669 313.196L353.19 349.17L350.874 345.92ZM403.478 309.827L456.858 339.418L454.923 342.908L401.543 313.317L403.478 309.827ZM453.993 340.547L488.805 233.207L492.601 234.439L457.788 341.778L453.993 340.547ZM492.312 232.643L543.951 303.072L540.733 305.432L489.094 235.003L492.312 232.643ZM540.606 303.269L574.259 243.864L577.731 245.83L544.078 305.236L540.606 303.269ZM574.677 243.349L622.835 200.993L625.47 203.99L577.312 246.345L574.677 243.349ZM625.871 201.478L680.991 294.892L677.554 296.92L622.434 203.505L625.871 201.478Z" fill="#9987FF"/>
<circle r="4.95284" transform="matrix(1 0 0 -1 682.74 299.982)" fill="white" stroke="#9987FF" stroke-width="3.99035"/>
<circle r="4.95284" transform="matrix(1 0 0 -1 623.558 202.506)" fill="white" stroke="#9987FF" stroke-width="3.99035"/>
<circle r="4.95284" transform="matrix(1 0 0 -1 577.14 239.64)" fill="white" stroke="#9987FF" stroke-width="3.99035"/>
<circle r="4.95284" transform="matrix(1 0 0 -1 542.328 303.463)" fill="white" stroke="#9987FF" stroke-width="3.99035"/>
<circle r="4.95284" transform="matrix(1 0 0 -1 490.108 238.479)" fill="white" stroke="#9987FF" stroke-width="3.99035"/>
<circle r="4.95284" transform="matrix(1 0 0 -1 454.135 340.597)" fill="white" stroke="#9987FF" stroke-width="3.99035"/>
<circle r="4.95284" transform="matrix(1 0 0 -1 405.397 312.747)" fill="white" stroke="#9987FF" stroke-width="3.99035"/>
<circle r="4.95284" transform="matrix(1 0 0 -1 352.018 347.56)" fill="white" stroke="#9987FF" stroke-width="3.99035"/>
<circle r="4.95284" transform="matrix(1 0 0 -1 292.836 326.672)" fill="white" stroke="#9987FF" stroke-width="3.99035"/>
<path d="M1100.51 212.936L1099.35 211.311C1099.9 210.92 1100.61 210.832 1101.24 211.079L1100.51 212.936ZM1050.03 248.909L1051.19 250.534C1050.56 250.98 1049.73 251.027 1049.06 250.654L1050.03 248.909ZM996.65 219.318L994.752 218.703C994.936 218.136 995.363 217.681 995.918 217.462C996.473 217.244 997.096 217.284 997.617 217.573L996.65 219.318ZM961.837 326.658L963.735 327.273C963.504 327.986 962.893 328.509 962.154 328.628C961.414 328.747 960.671 328.442 960.228 327.838L961.837 326.658ZM910.198 256.229L908.462 255.245C908.796 254.656 909.405 254.277 910.081 254.237C910.757 254.197 911.407 254.503 911.807 255.049L910.198 256.229ZM876.545 315.634L878.281 316.617C878.172 316.811 878.03 316.985 877.863 317.132L876.545 315.634ZM828.388 357.99L829.705 359.488C829.259 359.88 828.661 360.053 828.073 359.96C827.486 359.866 826.971 359.516 826.669 359.003L828.388 357.99ZM1158.96 238.002L1099.78 214.793L1101.24 211.079L1160.42 234.287L1158.96 238.002ZM1101.67 214.561L1051.19 250.534L1048.87 247.284L1099.35 211.311L1101.67 214.561ZM1049.06 250.654L995.682 221.063L997.617 217.573L1051 247.164L1049.06 250.654ZM998.548 219.934L963.735 327.273L959.939 326.042L994.752 218.703L998.548 219.934ZM960.228 327.838L908.589 257.409L911.807 255.049L963.446 325.478L960.228 327.838ZM911.934 257.212L878.281 316.617L874.809 314.65L908.462 255.245L911.934 257.212ZM877.863 317.132L829.705 359.488L827.07 356.491L875.228 314.136L877.863 317.132ZM826.669 359.003L771.549 265.589L774.986 263.561L830.106 356.976L826.669 359.003Z" fill="#2ACE76"/>
<circle r="4.95284" transform="matrix(-1 0 0 1 769.801 260.499)" fill="white" stroke="#2ACE76" stroke-width="3.99035"/>
<circle r="4.95284" transform="matrix(-1 0 0 1 828.982 357.975)" fill="white" stroke="#2ACE76" stroke-width="3.99035"/>
<circle r="4.95284" transform="matrix(-1 0 0 1 875.4 320.841)" fill="white" stroke="#2ACE76" stroke-width="3.99035"/>
<circle r="4.95284" transform="matrix(-1 0 0 1 910.212 257.017)" fill="white" stroke="#2ACE76" stroke-width="3.99035"/>
<circle r="4.95284" transform="matrix(-1 0 0 1 962.432 322.002)" fill="white" stroke="#2ACE76" stroke-width="3.99035"/>
<circle r="4.95284" transform="matrix(-1 0 0 1 998.405 219.884)" fill="white" stroke="#2ACE76" stroke-width="3.99035"/>
<circle r="4.95284" transform="matrix(-1 0 0 1 1047.14 247.734)" fill="white" stroke="#2ACE76" stroke-width="3.99035"/>
<circle r="4.95284" transform="matrix(-1 0 0 1 1100.52 212.921)" fill="white" stroke="#2ACE76" stroke-width="3.99035"/>
<circle r="4.95284" transform="matrix(-1 0 0 1 1159.7 233.809)" fill="white" stroke="#2ACE76" stroke-width="3.99035"/>
<path d="M351.452 324.917L352.591 326.555C352.506 326.614 352.416 326.667 352.323 326.712L351.452 324.917ZM404.832 287.783L403.692 286.146C404.162 285.819 404.749 285.71 405.304 285.845L404.832 287.783ZM452.409 299.388L453.787 300.831C453.295 301.301 452.597 301.487 451.936 301.326L452.409 299.388ZM490.703 262.834L489.326 261.391C489.741 260.995 490.307 260.796 490.879 260.847C491.45 260.897 491.973 261.192 492.312 261.655L490.703 262.834ZM542.342 333.263L544.078 334.247C543.745 334.836 543.135 335.215 542.459 335.255C541.783 335.295 541.134 334.989 540.733 334.443L542.342 333.263ZM575.995 273.858L574.259 272.875C574.368 272.681 574.51 272.507 574.677 272.36L575.995 273.858ZM624.152 231.503L622.835 230.005C623.332 229.567 624.014 229.405 624.655 229.572L624.152 231.503ZM291.979 351.553L350.581 323.122L352.323 326.712L293.721 355.143L291.979 351.553ZM350.313 323.279L403.692 286.146L405.971 289.421L352.591 326.555L350.313 323.279ZM405.304 285.845L452.882 297.449L451.936 301.326L404.359 289.722L405.304 285.845ZM451.032 297.945L489.326 261.391L492.081 264.278L453.787 300.831L451.032 297.945ZM492.312 261.655L543.951 332.084L540.733 334.443L489.094 264.014L492.312 261.655ZM540.606 332.28L574.259 272.875L577.731 274.842L544.078 334.247L540.606 332.28ZM574.677 272.36L622.835 230.005L625.47 233.001L577.312 275.357L574.677 272.36ZM624.655 229.572L680.356 244.077L679.35 247.939L623.65 233.434L624.655 229.572Z" fill="#5233FF"/>
<circle r="4.95284" transform="matrix(1 0 0 -1 405.397 289.538)" fill="white" stroke="#5233FF" stroke-width="3.99035"/>
<circle r="4.95284" transform="matrix(1 0 0 -1 454.135 298.822)" fill="white" stroke="#5233FF" stroke-width="3.99035"/>
<circle r="4.95284" transform="matrix(1 0 0 -1 490.108 265.17)" fill="white" stroke="#5233FF" stroke-width="3.99035"/>
<circle r="4.95284" transform="matrix(1 0 0 -1 542.328 331.314)" fill="white" stroke="#5233FF" stroke-width="3.99035"/>
<circle r="4.95284" transform="matrix(1 0 0 -1 577.14 272.132)" fill="white" stroke="#5233FF" stroke-width="3.99035"/>
<circle r="4.95284" transform="matrix(1 0 0 -1 623.558 232.677)" fill="white" stroke="#5233FF" stroke-width="3.99035"/>
<circle r="4.95284" transform="matrix(1 0 0 -1 679.258 246.603)" fill="white" stroke="#5233FF" stroke-width="3.99035"/>
<circle r="4.95284" transform="matrix(1 0 0 -1 352.018 324.351)" fill="white" stroke="#5233FF" stroke-width="3.99035"/>
<circle r="4.95284" transform="matrix(1 0 0 -1 292.836 353.362)" fill="white" stroke="#5233FF" stroke-width="3.99035"/>
<path d="M1101.09 235.564L1099.95 233.926C1100.03 233.867 1100.12 233.815 1100.22 233.769L1101.09 235.564ZM1047.71 272.698L1048.85 274.336C1048.38 274.662 1047.79 274.772 1047.24 274.636L1047.71 272.698ZM1000.13 261.094L998.753 259.65C999.246 259.181 999.943 258.994 1000.6 259.155L1000.13 261.094ZM961.837 297.647L963.215 299.09C962.799 299.487 962.234 299.685 961.662 299.635C961.09 299.584 960.567 299.29 960.228 298.827L961.837 297.647ZM910.198 227.218L908.462 226.235C908.796 225.646 909.405 225.266 910.081 225.226C910.757 225.187 911.407 225.492 911.807 226.038L910.198 227.218ZM876.546 286.623L878.282 287.607C878.172 287.8 878.03 287.974 877.863 288.121L876.546 286.623ZM828.388 328.979L829.705 330.477C829.208 330.914 828.526 331.076 827.885 330.909L828.388 328.979ZM1160.56 208.929L1101.96 237.359L1100.22 233.769L1158.82 205.339L1160.56 208.929ZM1102.23 237.202L1048.85 274.336L1046.57 271.06L1099.95 233.926L1102.23 237.202ZM1047.24 274.636L999.658 263.032L1000.6 259.155L1048.18 270.76L1047.24 274.636ZM1001.51 262.537L963.215 299.09L960.459 296.204L998.753 259.65L1001.51 262.537ZM960.228 298.827L908.589 228.398L911.807 226.038L963.446 296.467L960.228 298.827ZM911.934 228.201L878.282 287.607L874.81 285.64L908.462 226.235L911.934 228.201ZM877.863 288.121L829.705 330.477L827.07 327.481L875.228 285.125L877.863 288.121ZM827.885 330.909L772.184 316.404L773.19 312.543L828.891 327.048L827.885 330.909Z" fill="#5233FF"/>
<circle r="4.95284" transform="matrix(-1 0 0 1 1047.14 270.943)" fill="white" stroke="#5233FF" stroke-width="3.99035"/>
<circle r="4.95284" transform="matrix(-1 0 0 1 998.405 261.659)" fill="white" stroke="#5233FF" stroke-width="3.99035"/>
<circle r="4.95284" transform="matrix(-1 0 0 1 962.432 295.312)" fill="white" stroke="#5233FF" stroke-width="3.99035"/>
<circle r="4.95284" transform="matrix(-1 0 0 1 910.213 229.168)" fill="white" stroke="#5233FF" stroke-width="3.99035"/>
<circle r="4.95284" transform="matrix(-1 0 0 1 875.4 288.349)" fill="white" stroke="#5233FF" stroke-width="3.99035"/>
<circle r="4.95284" transform="matrix(-1 0 0 1 828.983 327.804)" fill="white" stroke="#5233FF" stroke-width="3.99035"/>
<circle r="4.95284" transform="matrix(-1 0 0 1 773.282 313.879)" fill="white" stroke="#5233FF" stroke-width="3.99035"/>
<circle r="4.95284" transform="matrix(-1 0 0 1 1100.52 236.13)" fill="white" stroke="#5233FF" stroke-width="3.99035"/>
<circle r="4.95284" transform="matrix(-1 0 0 1 1159.7 207.119)" fill="white" stroke="#5233FF" stroke-width="3.99035"/>
<path d="M56.6754 29.1357C54.8845 29.1614 54.0964 30.5868 53.0516 30.5558C52.4027 30.5416 51.8876 29.7461 51.8876 29.7461C51.8876 29.7461 51.5187 30.1247 51.8714 30.5362C52.1646 30.8956 53.1722 31.6944 54.7939 30.4865C55.7874 29.7464 56.5035 30.0994 58.2492 31.915C59.9911 33.735 61.0933 33.4374 61.0933 33.4374C61.4767 33.3871 61.7017 33.0503 61.9871 33.1138C62.2661 33.1797 62.3121 33.8421 62.6266 33.9157C62.94 33.9863 63.1711 33.3851 63.5031 33.4641C63.8352 33.5438 63.8176 34.192 64.1348 34.2667C64.5043 34.3525 64.6648 33.732 65.0194 33.8178C65.3275 33.8921 65.3667 34.5572 65.6545 34.6221C66.0011 34.7028 66.1662 34.0836 66.5304 34.1725C66.8604 34.2485 66.8374 34.9014 67.1624 34.9744C67.5198 35.0564 67.7066 34.4413 68.0447 34.5217C68.193 34.5612 68.1568 34.6092 68.3152 34.741C68.472 34.8707 69.0868 35.1612 69.3063 34.8673C69.4482 34.6376 69.0499 34.4606 68.8895 34.3809C68.7243 34.3032 62.4252 32.5595 61.8422 32.3058C61.1106 31.989 60.5286 31.0506 60.6694 30.6649C60.6762 30.6473 60.6853 30.6368 60.6944 30.626C60.5725 30.4125 60.4725 30.1714 60.3637 29.9379C60.2999 29.9356 60.231 29.9312 60.1553 29.9238C59.5351 29.8599 58.9437 29.054 56.6754 29.1357Z" fill="#E2E8F0"/>
<path d="M72.0195 34.4438C71.8138 34.176 71.4821 34.0689 71.2527 33.9655C71.0284 33.8598 71.0608 33.6409 70.8734 33.5774C70.6815 33.5156 70.3457 33.9074 70.0846 33.8257C69.8242 33.7402 69.8434 33.2535 69.6259 33.1815C69.403 33.1113 69.0155 33.4764 68.8132 33.4115C68.6092 33.3524 68.5693 32.8407 68.3727 32.7758C68.1781 32.7164 67.7644 33.0802 67.5634 33.018C67.3607 32.9498 67.3475 32.4516 67.1226 32.3776C66.8986 32.309 66.5054 32.6809 66.3102 32.6137C66.1082 32.5512 66.0886 32.0547 65.8738 31.9824C65.6566 31.9131 65.259 32.2783 65.059 32.2127C64.8526 32.1462 64.7966 31.6355 64.6084 31.5736C64.4165 31.5149 64.0416 31.8162 63.7372 31.7989C61.7169 31.6105 60.8897 30.3914 60.6944 30.6258C60.6853 30.6366 60.6759 30.6471 60.6695 30.6647C60.5286 31.0504 61.1106 31.9888 61.8423 32.3056C62.4256 32.5593 68.7243 34.303 68.8895 34.3807C69.0503 34.4604 69.4482 34.6374 69.3064 34.8671C69.0871 35.1613 68.472 34.8705 68.3153 34.7407C68.1569 34.6087 68.1933 34.561 68.0447 34.5215C67.7066 34.4411 67.5195 35.0562 67.1624 34.9742C66.8375 34.9012 66.8601 34.2482 66.5304 34.1722C66.1663 34.0834 66.0014 34.7026 65.6545 34.6218C65.3667 34.5573 65.3276 33.8919 65.0195 33.8176C64.6648 33.7318 64.5044 34.3523 64.1348 34.2665C63.8176 34.1918 63.8352 33.5433 63.5032 33.4639C63.1715 33.3852 62.9401 33.9865 62.6266 33.9155C62.3121 33.8422 62.2665 33.1798 61.9872 33.1136C61.7014 33.0501 61.4764 33.3869 61.0934 33.4372C61.0934 33.4372 59.9912 33.7348 58.2492 31.9148C56.5035 30.0992 55.7877 29.7459 54.794 30.4863C53.1719 31.6942 52.1646 30.8957 51.8714 30.536C51.5188 30.1245 51.8876 29.7459 51.8876 29.7459C51.8876 29.7459 52.4028 30.541 53.0517 30.5555C54.0964 30.5866 54.8845 29.1612 56.6754 29.1355C58.9437 29.0537 59.5352 29.8597 60.1553 29.9235C60.2313 29.931 60.2999 29.9354 60.3638 29.9377C60.7833 29.9526 60.9741 29.8567 61.3187 29.6567H61.3163C61.6379 29.5418 61.9176 30.1637 62.2544 30.0381C62.6107 29.904 62.3499 29.2774 62.7337 29.1331C63.0924 29.0051 63.3265 29.6341 63.6697 29.506C64.0304 29.3743 63.8008 28.7308 64.147 28.6052C64.5044 28.4765 64.7124 29.1122 65.083 28.9767C65.4549 28.8443 65.2147 28.2072 65.5532 28.0789C65.9025 27.9512 66.1551 28.5771 66.4983 28.4552C66.8233 28.339 66.6375 27.6725 66.976 27.5509C67.3269 27.4253 67.5543 28.0529 67.9282 27.9154C68.2359 27.808 68.0657 27.1412 68.3849 27.0203C68.7034 26.901 69 27.5195 69.332 27.3955C69.6431 27.2807 69.4611 26.6176 69.7921 26.4933C70.1427 26.3673 70.4133 26.9855 70.7447 26.8689C71.0727 26.7514 70.8234 26.2163 71.2517 26.0035C71.2517 26.0035 71.8438 25.809 71.8067 25.3746C71.8019 25.3013 71.6793 24.372 70.7038 24.1751C69.7661 23.9862 62.357 26.0356 62.2614 25.9177C61.5791 24.5706 60.7056 24.9449 60.5725 24.9746C60.4371 25.0091 59.6095 25.361 58.6934 25.0091C56.8943 24.195 55.4584 26.2656 54.4727 25.9934C53.5651 25.7384 52.8716 25.8856 52.4909 26.015C52.1427 26.1353 51.5782 26.5889 50.3811 26.1775C41.1308 23.0188 33.9014 25.7799 33.9014 25.7799C29.825 27.1419 29.3035 25.7799 29.3035 25.7799C29.3035 25.7799 27.9621 23.9575 37.4073 21.7842C50.9834 18.6661 51.3924 13.5057 51.232 13.1791C51.0091 12.7058 50.9239 13.2635 50.477 13.7766C50.1021 14.2029 49.666 13.9921 49.666 13.9921C49.2387 13.7871 48.9658 14.2752 48.9658 14.2752C48.9658 14.2752 48.4162 15.1278 47.9305 14.6427C47.4633 14.1762 46.8431 15.2294 46.6117 15.2717C46.3344 15.3206 46.1989 15.1852 45.8267 15.0143C45.2694 14.768 44.6705 15.7837 44.3644 15.8557C43.8946 15.9628 43.5656 15.3027 43.1619 15.5811C41.9557 16.4141 41.7658 16.5303 41.4409 16.206C41.2007 15.9607 41.1656 15.6949 40.3596 16.4664C39.6739 17.1237 39.3452 17.247 39.0703 16.8289C38.7869 16.408 38.8595 15.8334 37.6813 16.964C37.1189 17.5044 36.8307 17.5149 36.5088 17.272C36.266 17.0893 36.2676 16.2198 35.4225 17.0075C34.6564 17.7162 34.1001 18.027 33.8832 17.3974C33.6437 16.69 32.7405 17.5277 32.532 17.7247C32.3152 17.9216 31.8514 18.4435 31.5261 17.905C31.2008 17.3636 30.4222 18.1716 29.9591 18.6847C29.6021 19.0829 29.3129 18.7755 28.9363 18.5229C28.508 18.229 27.2257 20.0193 27.1092 20.1263C26.9916 20.228 26.9028 20.1263 26.6086 19.8771C26.1573 19.4943 24.9392 21.6214 24.7423 21.7599C24.7423 21.7599 24.6592 21.9433 24.3268 21.6261C23.8546 21.1769 21.3459 24.4787 20.3994 28.2147C19.1884 33.0042 21.1175 36.6769 21.1175 36.6769C21.1175 36.6769 21.6972 36.6945 21.9441 36.303L22.32 35.4562C22.624 34.7505 23.1233 34.9725 23.1233 34.9725L21.9407 38.4936C21.7539 38.9574 21.8667 39.613 22.2798 40.2335C22.6696 40.8567 22.9379 41.278 23.2503 41.5674C24.2103 42.4717 24.1123 41.4023 24.137 41.2685C24.2495 40.6963 24.8835 41.1357 25.3814 41.41C26.2847 41.9171 26.184 40.7976 26.3823 40.4321C26.5201 40.171 26.9639 40.1589 27.446 40.5629C27.8213 40.877 28.1945 39.814 28.1945 39.814C28.6627 37.5498 27.5625 37.288 26.9677 37.2549L25.7631 37.1995C25.7631 37.1995 25.8422 36.855 25.9675 36.5324L26.0215 36.3037C27.3352 33.0305 25.1402 32.3989 24.4832 32.4509C23.7587 32.5154 23.8093 32.054 23.8093 32.054C23.8093 32.054 27.7773 31.2727 27.0376 35.4805C27.0376 35.4805 26.8913 36.2128 26.8035 36.5952L27.8939 36.7222C28.8323 36.8394 28.9988 37.9497 28.9988 37.9497C28.9988 37.9497 32.4496 38.8614 34.4071 38.4969C34.4071 38.4969 35.282 38.2882 35.5249 37.744C35.5249 37.744 36.7926 34.7576 40.493 34.6313C40.493 34.6313 40.6234 35.0181 40.0323 35.219C39.3233 35.4582 36.9611 35.6457 36.4703 38.3588V38.3696C36.4169 38.8148 36.5362 39.763 37.5023 40.2021C38.3251 40.5733 38.6149 42.0718 38.7855 42.4761C39.2645 43.6246 39.982 42.5268 39.982 42.5268C39.982 42.5268 40.4363 41.5999 40.8268 42.1136C41.4858 42.9807 41.7918 42.544 41.9415 41.992C42.1053 41.3958 42.3441 41.1361 43.0339 41.8603C43.3288 42.1751 43.9074 41.9323 43.9648 41.3938C44.0868 40.2082 44.8877 41.1506 45.0025 41.1966C45.1393 41.2482 45.9777 41.0604 45.5085 39.7235C45.5085 39.7235 44.8748 38.4497 42.0175 37.9001C41.347 37.7731 41.4534 37.2877 41.4534 37.2877L42.0827 37.3762C42.2708 37.4066 43.9324 37.591 44.1091 37.619C51.0797 38.3071 56.3684 35.9426 56.5275 35.774C61.9422 36.8114 69.3047 36.4577 70.6869 35.9598C72.0755 35.4717 72.1792 34.6603 72.0195 34.4438ZM60.839 25.8035C60.9525 25.6211 61.0593 25.5178 61.1576 25.4681C61.5778 25.2293 61.846 25.9772 61.795 26.0045C61.7926 26.0059 61.7831 26.0089 61.7787 26.0106L61.7774 26.0157C61.7112 26.0474 60.9005 26.2775 60.8208 26.2248C60.6607 26.1136 60.839 25.8035 60.839 25.8035ZM57.7608 26.04C57.7608 26.04 57.8655 25.9079 58.0678 25.841C58.2678 25.7684 58.5698 25.7559 58.9697 26.0137C59.4294 26.3065 59.4179 26.5345 59.4179 26.5345C59.4031 26.542 59.3828 26.5494 59.3595 26.5575C59.0261 26.6862 57.6577 26.8544 57.6577 26.8544C57.3919 26.3643 57.7608 26.04 57.7608 26.04ZM32.2412 19.4194C32.4712 19.5964 32.2507 20.6168 32.0868 20.4668L30.9049 19.8416C30.9049 19.8416 32.0058 19.2471 32.2412 19.4194ZM30.3195 20.0706C30.5519 20.2439 30.3344 21.2667 30.1692 21.1147L28.9914 20.4885C28.9914 20.4885 30.0861 19.8936 30.3195 20.0706ZM29.6548 22.0663C29.8885 22.2409 29.6693 23.2654 29.5028 23.1171L28.3225 22.4831C28.3225 22.4831 29.4203 21.893 29.6548 22.0663ZM28.5303 24.7453L27.3487 24.1176C27.3487 24.1176 28.4479 23.5225 28.6809 23.6974C28.9167 23.8721 28.6914 24.8959 28.5303 24.7453ZM28.3077 26.7662L27.1298 26.1386C27.1298 26.1386 28.2263 25.5462 28.46 25.7174C28.6934 25.89 28.4759 26.9098 28.3077 26.7662ZM28.2864 20.782C28.5205 20.9563 28.2996 21.9747 28.1347 21.8298L26.9525 21.2002C26.9525 21.2002 28.0533 20.6057 28.2864 20.782ZM27.2615 22.3375C27.4929 22.5111 27.2737 23.5299 27.1105 23.3853L25.9307 22.7577C25.9307 22.7577 27.0278 22.1608 27.2615 22.3375ZM25.1554 24.7784C25.1554 24.7784 26.2563 24.1805 26.487 24.3578C26.7218 24.5308 26.5005 25.5512 26.3357 25.4036L25.1554 24.7784ZM26.0597 27.3344L24.8822 26.7044C24.8822 26.7044 25.9806 26.1136 26.2124 26.2879C26.4468 26.4612 26.2272 27.481 26.0597 27.3344ZM25.2199 23.0462C25.4523 23.2161 25.2328 24.2386 25.0676 24.0913L23.8918 23.4613C23.8918 23.4613 24.9842 22.8705 25.2199 23.0462ZM24.1583 25.1043C24.392 25.2776 24.1728 26.3041 24.0042 26.1528L22.8271 25.5262C22.8271 25.5262 23.9255 24.9364 24.1583 25.1043ZM22.6075 27.5425C22.6075 27.5425 23.7053 26.9524 23.938 27.1263C24.1735 27.2986 23.9495 28.3218 23.7874 28.1738L22.6075 27.5425ZM24.7123 29.8489L23.5337 29.2203C23.5337 29.2203 24.6322 28.6254 24.8656 28.7997C25.099 28.975 24.8761 29.9948 24.7123 29.8489ZM26.4032 31.2186L25.224 30.5927C25.224 30.5927 26.3235 29.9979 26.5566 30.1705C26.788 30.3421 26.5647 31.3696 26.4032 31.2186ZM26.9319 29.0801L25.7523 28.4494C25.7523 28.4494 26.8511 27.8593 27.0842 28.0282C27.3176 28.2035 27.0967 29.224 26.9319 29.0801ZM28.5002 32.1411L27.3234 31.5142C27.3234 31.5142 28.4158 30.9204 28.6515 31.0947C28.8843 31.2696 28.6681 32.2854 28.5002 32.1411ZM29.0667 30.1715L27.8885 29.5445C27.8885 29.5445 28.9849 28.9541 29.2177 29.1284C29.4507 29.3 29.2335 30.3221 29.0667 30.1715ZM29.4568 28.3099L28.2786 27.6813C28.2786 27.6813 29.3754 27.0912 29.6109 27.2645C29.8443 27.4401 29.6213 28.4569 29.4568 28.3099ZM31.1147 31.9033L29.9361 31.272C29.9361 31.272 31.0329 30.6829 31.2684 30.8538C31.5045 31.0278 31.2809 32.0526 31.1147 31.9033ZM31.6251 29.9425L30.4472 29.3162C30.4472 29.3162 31.5457 28.7197 31.7795 28.896C32.0092 29.0646 31.7879 30.0891 31.6251 29.9425ZM32.0524 27.8647L30.8738 27.2371C30.8738 27.2371 31.9717 26.6484 32.2068 26.8193C32.4385 26.9936 32.2172 28.0127 32.0524 27.8647ZM33.7082 31.5358L32.526 30.9082C32.526 30.9082 33.6248 30.3137 33.8602 30.487C34.092 30.665 33.8687 31.6865 33.7082 31.5358ZM34.1041 29.4378L32.9259 28.8072C32.9259 28.8072 34.0251 28.215 34.2575 28.3869C34.4909 28.5633 34.2696 29.5797 34.1041 29.4378ZM34.5152 27.2841L33.3367 26.6554C33.3367 26.6554 34.4335 26.0643 34.6682 26.2363C34.9006 26.4146 34.6804 27.432 34.5152 27.2841ZM36.2893 30.7065L35.1094 30.084C35.1094 30.084 36.2082 29.4902 36.4386 29.6628C36.675 29.8364 36.4541 30.8552 36.2893 30.7065ZM36.6119 28.64L35.4303 28.0154C35.4303 28.0154 36.5284 27.4222 36.7601 27.5935C36.9993 27.7685 36.775 28.7936 36.6119 28.64ZM37.0213 26.6146L35.839 25.9907C35.839 25.9907 36.9395 25.3938 37.1712 25.5661C37.404 25.7421 37.1837 26.7662 37.0213 26.6146ZM38.8267 30.2698L37.6475 29.6412C37.6475 29.6412 38.7433 29.047 38.9791 29.2206C39.2148 29.3963 38.9922 30.4147 38.8267 30.2698ZM39.1486 28.3403L37.9684 27.7144C37.9684 27.7144 39.0686 27.1162 39.3 27.2942C39.533 27.4634 39.3125 28.4896 39.1486 28.3403ZM39.5371 26.2825L38.3559 25.6559C38.3559 25.6559 39.4547 25.0567 39.6901 25.235C39.9229 25.4097 39.705 26.4281 39.5371 26.2825ZM41.171 30.3059L39.9945 29.6786C39.9945 29.6786 41.0913 29.0821 41.3243 29.2605C41.5581 29.4317 41.3365 30.4525 41.171 30.3059ZM41.5604 28.2346L40.3785 27.6083C40.3785 27.6083 41.479 27.0108 41.7128 27.1881C41.9438 27.3635 41.7229 28.3819 41.5604 28.2346ZM42.0019 26.1724L40.8217 25.5462C40.8217 25.5462 41.9209 24.9486 42.1546 25.1266C42.39 25.2992 42.1668 26.3217 42.0019 26.1724ZM43.6287 30.3059L42.4485 29.6753C42.4485 29.6753 43.5456 29.0825 43.779 29.2605C44.0121 29.4317 43.7949 30.4525 43.6287 30.3059ZM44.006 28.3491L42.8288 27.7198C42.8288 27.7198 43.9246 27.1317 44.158 27.2996C44.3921 27.4753 44.1719 28.4988 44.006 28.3491ZM44.4526 26.347L43.2764 25.7201C43.2764 25.7201 44.3732 25.1283 44.6076 25.2992C44.8377 25.4732 44.6174 26.4947 44.4526 26.347ZM45.9385 30.6011L44.7586 29.9675C44.7586 29.9675 45.8578 29.3794 46.0909 29.5547C46.3263 29.7246 46.1061 30.7474 45.9385 30.6011ZM46.3557 28.7041L45.1765 28.0785C45.1765 28.0785 46.2763 27.4854 46.508 27.659C46.7438 27.836 46.5161 28.8544 46.3557 28.7041ZM46.806 26.7662L45.6237 26.1413C45.6237 26.1413 46.7235 25.5475 46.9583 25.7171C47.1907 25.89 46.9667 26.9098 46.806 26.7662ZM48.6445 29.1135L47.4667 28.4923C47.4667 28.4923 48.5635 27.8968 48.7989 28.0677C49.0303 28.2431 48.8097 29.2635 48.6445 29.1135Z" fill="#CBD5E1"/>
<path d="M105.117 22.868C104.871 22.214 104.404 21.9323 103.546 21.9195C103.468 21.9171 99.5036 21.9232 99.5036 21.9232L93.6355 37.9016C93.6355 37.9016 96.4898 37.9016 96.4918 37.9016C96.7381 37.9192 96.9671 37.8803 97.1728 37.7878C97.7288 37.5344 98.0011 36.8903 98.0805 36.6704C98.0805 36.6761 98.8786 34.4443 98.9337 34.2981C99.3421 34.2981 104.523 34.296 104.838 34.296C104.961 34.6727 106.037 37.8938 106.037 37.8938H109.902L107.45 30.1176L105.117 22.868ZM99.9488 31.0175C100.378 29.8426 101.446 26.8711 101.902 25.6676C102.296 26.8813 103.916 30.9776 103.927 31.0168C103.34 31.0168 100.179 31.0175 99.9488 31.0175Z" fill="#CBD5E1"/>
<path d="M132.935 21.7954H132.933C128.361 21.8018 125.043 25.2344 125.043 29.9537C125.043 34.5776 128.434 38.0663 132.935 38.0663C137.435 38.0663 140.963 34.5054 140.963 29.9537C140.963 25.3783 137.435 21.7954 132.935 21.7954ZM133.05 34.502C130.719 34.502 128.892 32.4861 128.892 29.9108C128.892 27.3588 130.679 25.4368 133.047 25.4368C135.398 25.4368 137.102 27.3169 137.102 29.9108C137.102 32.53 135.359 34.502 133.05 34.502Z" fill="#CBD5E1"/>
<path d="M151.308 28.5202L151.158 28.4763C151.162 28.4783 149.671 28.025 149.667 28.0206L149.445 27.9415C148.227 27.5014 147.362 27.1325 147.362 26.4235C147.362 26.4056 147.362 26.3881 147.362 26.3712C147.483 25.195 149.668 25.1818 149.689 25.1818C150.894 25.1818 151.82 25.3662 152.993 25.8375L153.018 25.8466L153.068 25.8611C153.339 25.9158 153.576 25.9236 153.768 25.8814L154.093 25.7584C154.559 25.5017 155.023 24.1435 155.201 23.5712L155.259 23.3878L155.115 23.2561C155.059 23.202 154.717 22.9207 153.474 22.4565C152.21 21.9836 150.419 21.9093 150.419 21.9093L149.536 21.9053C144.923 21.9053 143.162 24.7525 143.106 26.6644C143.068 28.5695 144.152 29.5494 145.791 30.4402C146.477 30.8202 147.729 31.1694 148.638 31.4235C148.633 31.4194 149.577 31.6988 149.577 31.6988C151.296 32.2389 151.952 32.8381 151.83 33.7681C151.776 34.0754 151.195 34.5842 149.876 34.5842C148.872 34.5842 147.965 34.4305 147.02 34.1004C146.567 33.9204 146.098 33.6873 145.602 33.3931L145.578 33.3782L145.528 33.3563C145.253 33.2543 145.008 33.2114 144.797 33.2293L144.434 33.3073C143.904 33.5056 143.168 34.85 142.874 35.4185L142.757 35.6431L142.958 35.8019C142.993 35.8259 143.813 36.4775 144.509 36.8852C145.329 37.3395 146.249 37.6682 147.336 37.8881C147.775 37.9681 148.47 38.0694 149.561 38.0694C153.135 38.0694 155.732 36.2586 156.031 33.5617C156.16 31.1157 154.659 29.5197 151.308 28.5202Z" fill="#CBD5E1"/>
<path d="M157.573 22.3703C157.367 22.5601 157.259 22.8131 157.259 23.0986L157.257 25.6266C157.257 25.6266 161.569 25.6229 162.134 25.6229C162.134 26.2177 162.134 37.9069 162.134 37.9069L166.129 37.9035C166.129 37.9035 166.129 26.216 166.129 25.6229C166.662 25.6222 169.268 25.6222 169.268 25.6222C169.416 25.6222 170.194 25.6053 170.644 25.1929C170.848 24.999 170.959 24.7514 170.959 24.4619V21.942H158.95C158.802 21.9403 158.022 21.9558 157.573 22.3703Z" fill="#CBD5E1"/>
<path d="M90.418 34.2915C90.418 34.2915 87.0635 34.2915 85.9329 34.2915C85.9329 33.7024 85.9204 23.4005 85.9204 23.4005C85.9204 22.9482 85.7856 22.5891 85.513 22.3381C85.0786 21.9304 84.4318 21.9325 84.1902 21.9372L81.8335 21.9321L81.8396 37.9011H91.8378L91.8455 35.3633C91.8455 35.0386 91.7064 34.2915 90.418 34.2915Z" fill="#CBD5E1"/>
<path d="M122.981 34.5147V34.5123L122.663 34.3728C122.346 34.2864 121.973 34.3144 121.554 34.4546C120.789 34.6603 119.973 34.7272 118.994 34.6627C116.488 34.4171 114.983 32.7119 114.869 29.9853C114.982 27.2857 116.488 25.5806 119.006 25.3373C119.975 25.2728 120.79 25.3373 121.56 25.5478C121.973 25.6856 122.346 25.713 122.662 25.6238C122.663 25.6231 122.981 25.4826 122.981 25.4826C123.428 25.207 123.748 23.8028 123.899 22.9941L123.934 22.8043L123.771 22.6871C123.73 22.6573 123.603 22.5685 122.155 22.1777C120.836 21.8223 119.663 21.7784 119.084 21.7825L119.02 21.7831C115.711 21.7831 110.728 23.9676 110.585 29.9816V30.016C110.728 36.0324 115.711 38.2159 119.023 38.2159L119.084 38.2182C119.663 38.2206 120.834 38.173 122.155 37.8183C123.603 37.4308 123.73 37.341 123.773 37.3106L123.934 37.1961L123.9 37.0056C123.748 36.1925 123.428 34.7924 122.981 34.5147Z" fill="#CBD5E1"/>
<path d="M184.45 34.2861L177.409 34.2891C177.409 34.2891 177.421 31.9925 177.421 31.6121C177.999 31.6121 183.233 31.6121 183.233 31.6121L183.223 27.9174C183.223 27.9174 178.006 27.9235 177.431 27.9235C177.43 27.4867 177.431 26.0667 177.431 25.6269C178.007 25.6269 182.767 25.6204 182.767 25.6204C182.913 25.6228 183.71 25.6235 184.141 25.1931C184.443 24.8908 184.456 24.3412 184.456 24.0548V21.9453H173.381L173.383 37.9065L182.796 37.8936C183.414 37.8801 184.462 37.5167 184.462 36.2895L184.45 34.2861Z" fill="#CBD5E1"/>
<g clip-path="url(#clip0_139_2330)">
<path d="M1188 31C1188 19.9543 1196.95 11 1208 11V11C1219.05 11 1228 19.9543 1228 31V31C1228 42.0457 1219.05 51 1208 51V51C1196.95 51 1188 42.0457 1188 31V31Z" fill="url(#paint0_linear_139_2330)"/>
<path d="M1200.67 38.9712C1203.11 40.7489 1205.56 42.1712 1208 42.1712C1210.44 42.1712 1212.89 40.7489 1215.33 38.9712C1213.32 38.3578 1212.3 37.4423 1212.27 36.2245C1212.27 36.0074 1212.27 35.6992 1212.27 35.1203C1212.27 35.0284 1212.27 34.9343 1212.27 34.8379C1212.27 33.2859 1212.28 31.2379 1212.29 29.1579C1214.2 26.681 1213.5 23.7771 1212.9 23.8495C1212.17 23.9389 1205.81 17.9031 1204.59 17.5937C1203.37 17.2842 1200.27 18.2833 1199.73 21.0666C1199.2 23.8499 1198.98 30.8657 1201 33.6666C1201.58 34.4637 1202.48 34.7755 1203.72 34.6019C1203.72 35.1845 1203.73 35.5114 1203.73 36.1711C1203.72 37.4443 1202.7 38.3585 1200.67 38.9712Z" fill="url(#paint1_linear_139_2330)"/>
<path d="M1203.73 34.6C1206.67 34.2667 1208.53 33 1208.53 33C1208.53 33 1206.4 35.6667 1203.73 36.2V34.6Z" fill="#5E3015"/>
<path d="M1213.27 29.1999C1214.19 26.9906 1217.87 22.491 1214.69 19.691C1213.63 14.491 1207.73 15.0666 1203.8 16.2666C1201.16 17.0731 1199.16 18.6666 1198.73 17.4666C1196.07 19.691 1197.4 21.8666 1199.16 22.491C1200.76 23.0577 1203.45 23.6243 1208.04 23.091C1208.86 22.9957 1208.69 25.5054 1209.13 25.7767C1209.78 26.1838 1210.29 23.6243 1212.09 24.3929C1213.9 25.1614 1212.83 28.7249 1210.89 28.7249C1210.23 28.7249 1209.89 30.5578 1211.69 31.4245C1213 32.0666 1212.67 30.6355 1213.27 29.1999Z" fill="url(#paint2_linear_139_2330)"/>
<path d="M1222 43.0413C1223.27 45.6222 1224 51.5746 1224 51.5746H1192C1192 51.5746 1192.73 45.6216 1194 43.0413C1195.27 40.461 1202.68 38.0678 1202.68 38.0678C1206.78 39.6669 1209.28 39.6669 1213.32 38.0669C1213.32 38.0669 1220.73 40.4604 1222 43.0413Z" fill="url(#paint3_linear_139_2330)"/>
<path d="M1208.93 39.0002L1209.6 51.2668H1206.4L1207.07 39.0002C1207.07 39.0002 1207.69 38.3335 1208 38.3335C1208.31 38.3335 1208.93 39.0002 1208.93 39.0002Z" fill="url(#paint4_linear_139_2330)"/>
<path d="M1209.09 41.4924L1206.99 40.281L1207.07 39.0002C1207.48 38.5557 1207.79 38.3335 1208 38.3335C1208.21 38.3335 1208.52 38.5557 1208.93 39.0002L1209.09 41.4924H1209.09Z" fill="#645050"/>
<path d="M1208 38.3324L1206.67 40.7335L1202.53 38.2001L1203.73 36.4668L1208 38.0429L1212.27 36.4668L1213.47 38.2001L1209.33 40.7335L1208 38.3324Z" fill="white"/>
</g>
<defs>
<linearGradient id="paint0_linear_139_2330" x1="1208" y1="11" x2="1208" y2="51" gradientUnits="userSpaceOnUse">
<stop stop-color="#EDF6FF"/>
<stop offset="1" stop-color="#FFDDDD"/>
</linearGradient>
<linearGradient id="paint1_linear_139_2330" x1="1207.35" y1="17.5396" x2="1207.35" y2="42.1712" gradientUnits="userSpaceOnUse">
<stop stop-color="#CA7541"/>
<stop offset="1" stop-color="#C18156"/>
</linearGradient>
<linearGradient id="paint2_linear_139_2330" x1="1206.59" y1="15.4517" x2="1206.59" y2="31.5824" gradientUnits="userSpaceOnUse">
<stop stop-color="#1D0024"/>
<stop offset="1" stop-color="#100014"/>
</linearGradient>
<linearGradient id="paint3_linear_139_2330" x1="1208" y1="38.0669" x2="1208" y2="51.5746" gradientUnits="userSpaceOnUse">
<stop stop-color="#1D0024"/>
<stop offset="1" stop-color="#100014"/>
</linearGradient>
<linearGradient id="paint4_linear_139_2330" x1="1208" y1="38.3335" x2="1208" y2="51.2668" gradientUnits="userSpaceOnUse">
<stop stop-color="#EDF6FF"/>
<stop offset="1" stop-color="#FFDDDD"/>
</linearGradient>
<clipPath id="clip0_139_2330">
<path d="M1188 31C1188 19.9543 1196.95 11 1208 11V11C1219.05 11 1228 19.9543 1228 31V31C1228 42.0457 1219.05 51 1208 51V51C1196.95 51 1188 42.0457 1188 31V31Z" fill="white"/>
</clipPath>
</defs>
</svg>
