<svg width="1240" height="657" viewBox="0 0 1240 657" fill="none" xmlns="http://www.w3.org/2000/svg">
<path d="M1224.25 0H14.75C6.6038 0 0 4.35132 0 9.71894V647.281C0 652.649 6.6038 657 14.75 657H1224.25C1232.4 657 1239 652.649 1239 647.281V9.71894C1239 4.35132 1232.4 0 1224.25 0Z" fill="white"/>
<path d="M979.5 454H860.5C858.567 454 857 455.164 857 456.6V464.4C857 465.836 858.567 467 860.5 467H979.5C981.433 467 983 465.836 983 464.4V456.6C983 455.164 981.433 454 979.5 454Z" fill="#E6ECF2"/>
<rect x="862.59" y="492.781" width="20.3368" height="12.3449" rx="1" fill="#E2E8F0"/>
<rect x="898.18" y="492.78" width="137.273" height="12.3449" rx="1" fill="#E2E8F0"/>
<rect x="1077.82" y="492.78" width="71.1787" height="12.3449" rx="1" fill="#E2E8F0" fill-opacity="0.5"/>
<rect x="862.59" y="519.015" width="20.3368" height="12.3449" rx="1" fill="#E2E8F0"/>
<rect x="897.639" y="519.014" width="131.947" height="12.3454" rx="1" fill="#E2E8F0"/>
<rect x="1077" y="519.014" width="59.7883" height="12.3454" rx="1" fill="#E2E8F0" fill-opacity="0.5"/>
<rect x="862.59" y="546.792" width="20.3368" height="12.3449" rx="1" fill="#E2E8F0"/>
<rect x="897.639" y="546.791" width="121.638" height="12.3454" rx="1" fill="#E2E8F0"/>
<rect x="1077.82" y="546.791" width="71.1787" height="12.3449" rx="1" fill="#E2E8F0" fill-opacity="0.5"/>
<rect x="862.59" y="577.655" width="20.3368" height="12.3449" rx="1" fill="#E2E8F0"/>
<rect x="898.18" y="577.654" width="137.273" height="12.3449" rx="1" fill="#E2E8F0"/>
<rect x="1077.82" y="577.654" width="71.1787" height="12.3449" rx="1" fill="#E2E8F0" fill-opacity="0.5"/>
<path d="M189.406 101.95H57.6097C54.5768 101.95 52.1182 103.427 52.1182 105.25V108.55C52.1182 110.372 54.5768 111.85 57.6097 111.85H189.406C192.438 111.85 194.897 110.372 194.897 108.55V105.25C194.897 103.427 192.438 101.95 189.406 101.95Z" fill="#CBD5E1"/>
<path d="M189.406 281.95H57.6097C54.5768 281.95 52.1182 283.427 52.1182 285.25V288.55C52.1182 290.372 54.5768 291.85 57.6097 291.85H189.406C192.438 291.85 194.897 290.372 194.897 288.55V285.25C194.897 283.427 192.438 281.95 189.406 281.95Z" fill="#CBD5E1"/>
<rect x="26" y="97" width="19.1533" height="18.15" rx="1" fill="#CBD5E1"/>
<rect x="26" y="277" width="19.1533" height="18.15" rx="1" fill="#CBD5E1"/>
<rect x="26" y="187.75" width="19.1533" height="18.15" rx="1" fill="#CBD5E1"/>
<rect x="26" y="232.3" width="19.1533" height="18.15" rx="1" fill="#CBD5E1"/>
<path d="M112.77 146.5H57.632C54.5868 146.5 52.1182 147.977 52.1182 149.8V153.1C52.1182 154.923 54.5868 156.4 57.632 156.4H112.77C115.815 156.4 118.284 154.923 118.284 153.1V149.8C118.284 147.977 115.815 146.5 112.77 146.5Z" fill="#8585FF"/>
<rect x="26" y="143.2" width="19.1533" height="16.5" rx="1" fill="#8585FF"/>
<path d="M97.0026 191.05H57.7287C54.6301 191.05 52.1182 192.774 52.1182 194.9V198.75C52.1182 200.876 54.6301 202.6 57.7287 202.6H97.0026C100.101 202.6 102.613 200.876 102.613 198.75V194.9C102.613 192.774 100.101 191.05 97.0026 191.05Z" fill="#CBD5E1"/>
<path d="M152.742 237.25H57.7084C54.621 237.25 52.1182 238.727 52.1182 240.55V243.85C52.1182 245.672 54.621 247.15 57.7084 247.15H152.742C155.829 247.15 158.332 245.672 158.332 243.85V240.55C158.332 238.727 155.829 237.25 152.742 237.25Z" fill="#CBD5E1"/>
<rect x="1151.52" y="35.9717" width="85.5157" height="13.9718" rx="1" transform="rotate(-180 1151.52 35.9717)" fill="#CBD5E1"/>
<rect x="255" y="150" width="544" height="472" rx="5" stroke="#E2E8F0" stroke-width="2"/>
<rect x="829" y="152" width="357" height="470" rx="5" stroke="#E2E8F0" stroke-width="2"/>
<line x1="2" y1="58.1836" x2="1240" y2="58.1836" stroke="#E2E8F0"/>
<path d="M264.752 117.364C263.427 117.364 262.181 117.103 261.014 116.58C259.847 116.048 258.821 115.315 257.934 114.382C257.057 113.449 256.366 112.371 255.862 111.148C255.367 109.916 255.12 108.6 255.12 107.2C255.12 105.791 255.367 104.475 255.862 103.252C256.366 102.02 257.057 100.942 257.934 100.018C258.821 99.0847 259.847 98.3567 261.014 97.834C262.181 97.302 263.427 97.036 264.752 97.036C266.339 97.036 267.799 97.4047 269.134 98.142C270.469 98.87 271.575 99.8453 272.452 101.068L269.4 102.706C268.849 102.025 268.163 101.479 267.342 101.068C266.53 100.657 265.667 100.452 264.752 100.452C263.893 100.452 263.086 100.629 262.33 100.984C261.574 101.329 260.911 101.815 260.342 102.44C259.773 103.056 259.329 103.775 259.012 104.596C258.695 105.408 258.536 106.276 258.536 107.2C258.536 108.133 258.695 109.006 259.012 109.818C259.339 110.63 259.787 111.349 260.356 111.974C260.925 112.59 261.583 113.075 262.33 113.43C263.086 113.775 263.893 113.948 264.752 113.948C265.685 113.948 266.553 113.743 267.356 113.332C268.168 112.912 268.849 112.361 269.4 111.68L272.452 113.332C271.575 114.545 270.469 115.521 269.134 116.258C267.799 116.995 266.339 117.364 264.752 117.364ZM280.543 117.364C279.255 117.364 278.079 117.033 277.015 116.37C275.96 115.707 275.116 114.821 274.481 113.71C273.856 112.59 273.543 111.353 273.543 110C273.543 108.973 273.725 108.017 274.089 107.13C274.453 106.234 274.952 105.45 275.587 104.778C276.231 104.097 276.978 103.565 277.827 103.182C278.676 102.799 279.582 102.608 280.543 102.608C281.831 102.608 283.002 102.939 284.057 103.602C285.121 104.265 285.966 105.156 286.591 106.276C287.226 107.396 287.543 108.637 287.543 110C287.543 111.017 287.361 111.969 286.997 112.856C286.633 113.743 286.129 114.527 285.485 115.208C284.85 115.88 284.108 116.407 283.259 116.79C282.419 117.173 281.514 117.364 280.543 117.364ZM280.543 113.948C281.224 113.948 281.836 113.766 282.377 113.402C282.918 113.038 283.343 112.557 283.651 111.96C283.968 111.363 284.127 110.709 284.127 110C284.127 109.272 283.964 108.609 283.637 108.012C283.32 107.405 282.886 106.925 282.335 106.57C281.794 106.206 281.196 106.024 280.543 106.024C279.871 106.024 279.264 106.206 278.723 106.57C278.182 106.934 277.752 107.419 277.435 108.026C277.118 108.633 276.959 109.291 276.959 110C276.959 110.737 277.122 111.405 277.449 112.002C277.776 112.599 278.21 113.075 278.751 113.43C279.302 113.775 279.899 113.948 280.543 113.948ZM302.547 108.152V117H299.131V109.048C299.131 108.497 298.996 107.998 298.725 107.55C298.454 107.093 298.09 106.733 297.633 106.472C297.185 106.201 296.686 106.066 296.135 106.066C295.584 106.066 295.08 106.201 294.623 106.472C294.175 106.733 293.816 107.093 293.545 107.55C293.284 107.998 293.153 108.497 293.153 109.048V117H289.737L289.723 103H293.139L293.153 104.246C293.629 103.742 294.198 103.345 294.861 103.056C295.524 102.757 296.238 102.608 297.003 102.608C298.02 102.608 298.949 102.86 299.789 103.364C300.629 103.859 301.296 104.526 301.791 105.366C302.295 106.197 302.547 107.125 302.547 108.152ZM312.84 106.416H310.124V117H306.708V106.416H304.636V103H306.708V98.604H310.124V103H312.84V106.416ZM325.627 103H329.043V117H325.627L325.473 115.264C325.09 115.889 324.581 116.398 323.947 116.79C323.321 117.173 322.579 117.364 321.721 117.364C320.685 117.364 319.714 117.168 318.809 116.776C317.903 116.384 317.105 115.843 316.415 115.152C315.733 114.461 315.197 113.663 314.805 112.758C314.422 111.853 314.231 110.882 314.231 109.846C314.231 108.847 314.413 107.909 314.777 107.032C315.15 106.155 315.668 105.385 316.331 104.722C316.993 104.059 317.759 103.541 318.627 103.168C319.495 102.795 320.428 102.608 321.427 102.608C322.351 102.608 323.177 102.813 323.905 103.224C324.642 103.635 325.267 104.157 325.781 104.792L325.627 103ZM321.637 114.074C322.365 114.074 323.009 113.892 323.569 113.528C324.129 113.164 324.567 112.674 324.885 112.058C325.202 111.433 325.361 110.747 325.361 110C325.361 109.244 325.202 108.558 324.885 107.942C324.567 107.317 324.124 106.822 323.555 106.458C322.995 106.094 322.355 105.912 321.637 105.912C320.918 105.912 320.26 106.099 319.663 106.472C319.075 106.836 318.603 107.326 318.249 107.942C317.903 108.558 317.731 109.244 317.731 110C317.731 110.756 317.908 111.442 318.263 112.058C318.617 112.674 319.089 113.164 319.677 113.528C320.274 113.892 320.927 114.074 321.637 114.074ZM340.239 112.786L343.319 114.452C342.675 115.329 341.868 116.034 340.897 116.566C339.926 117.098 338.867 117.364 337.719 117.364C336.431 117.364 335.255 117.033 334.191 116.37C333.136 115.707 332.292 114.821 331.657 113.71C331.032 112.59 330.719 111.353 330.719 110C330.719 108.973 330.901 108.017 331.265 107.13C331.629 106.234 332.128 105.45 332.763 104.778C333.407 104.097 334.154 103.565 335.003 103.182C335.852 102.799 336.758 102.608 337.719 102.608C338.867 102.608 339.926 102.874 340.897 103.406C341.868 103.938 342.675 104.652 343.319 105.548L340.239 107.2C339.912 106.827 339.525 106.537 339.077 106.332C338.638 106.127 338.186 106.024 337.719 106.024C337.047 106.024 336.44 106.211 335.899 106.584C335.358 106.948 334.928 107.433 334.611 108.04C334.294 108.637 334.135 109.291 334.135 110C334.135 110.7 334.294 111.353 334.611 111.96C334.928 112.557 335.358 113.038 335.899 113.402C336.44 113.766 337.047 113.948 337.719 113.948C338.204 113.948 338.666 113.845 339.105 113.64C339.544 113.425 339.922 113.141 340.239 112.786ZM353.336 106.416H350.62V117H347.204V106.416H345.132V103H347.204V98.604H350.62V103H353.336V106.416ZM359.779 117.252C359.051 117.205 358.346 117.061 357.665 116.818C356.993 116.566 356.395 116.225 355.873 115.796C355.35 115.367 354.949 114.853 354.669 114.256L357.553 113.024C357.665 113.211 357.847 113.411 358.099 113.626C358.351 113.831 358.649 114.004 358.995 114.144C359.349 114.284 359.737 114.354 360.157 114.354C360.511 114.354 360.847 114.307 361.165 114.214C361.491 114.111 361.753 113.957 361.949 113.752C362.154 113.547 362.257 113.281 362.257 112.954C362.257 112.609 362.135 112.343 361.893 112.156C361.659 111.96 361.361 111.815 360.997 111.722C360.642 111.619 360.297 111.526 359.961 111.442C359.074 111.265 358.248 110.989 357.483 110.616C356.727 110.243 356.115 109.762 355.649 109.174C355.191 108.577 354.963 107.858 354.963 107.018C354.963 106.094 355.205 105.296 355.691 104.624C356.185 103.952 356.825 103.434 357.609 103.07C358.402 102.706 359.256 102.524 360.171 102.524C361.281 102.524 362.299 102.757 363.223 103.224C364.156 103.681 364.893 104.33 365.435 105.17L362.733 106.766C362.602 106.542 362.42 106.337 362.187 106.15C361.953 105.954 361.687 105.795 361.389 105.674C361.09 105.543 360.777 105.469 360.451 105.45C360.031 105.431 359.648 105.469 359.303 105.562C358.957 105.655 358.677 105.814 358.463 106.038C358.257 106.262 358.155 106.561 358.155 106.934C358.155 107.289 358.295 107.555 358.575 107.732C358.855 107.9 359.191 108.031 359.583 108.124C359.984 108.217 360.367 108.32 360.731 108.432C361.552 108.703 362.322 109.034 363.041 109.426C363.769 109.818 364.352 110.299 364.791 110.868C365.229 111.437 365.439 112.119 365.421 112.912C365.421 113.817 365.15 114.611 364.609 115.292C364.067 115.964 363.367 116.477 362.509 116.832C361.659 117.187 360.749 117.327 359.779 117.252Z" fill="#18303F" fill-opacity="0.6"/>
<rect x="702" y="94" width="74" height="36" rx="9.25373" fill="#5233FF"/>
<path d="M720.949 117.25V114.415H718.114V112.585H720.949V109.75H722.779V112.585H725.614V114.415H722.779V117.25H720.949ZM734.229 107.5H736.336L740.154 118H738.211L737.536 116.14H733.036L732.361 118H730.419L734.229 107.5ZM733.704 114.31H736.861L735.279 109.982L733.704 114.31ZM746.57 106.75H748.4V118H746.57V117.062C746.33 117.397 746.027 117.67 745.662 117.88C745.297 118.09 744.875 118.195 744.395 118.195C743.85 118.195 743.34 118.093 742.865 117.887C742.39 117.682 741.97 117.4 741.605 117.04C741.245 116.675 740.962 116.255 740.757 115.78C740.552 115.305 740.45 114.795 740.45 114.25C740.45 113.705 740.552 113.195 740.757 112.72C740.962 112.245 741.245 111.827 741.605 111.467C741.97 111.102 742.39 110.817 742.865 110.612C743.34 110.407 743.85 110.305 744.395 110.305C744.875 110.305 745.297 110.41 745.662 110.62C746.027 110.825 746.33 111.097 746.57 111.437V106.75ZM744.417 116.432C744.807 116.432 745.152 116.335 745.452 116.14C745.752 115.945 745.987 115.682 746.157 115.352C746.327 115.017 746.412 114.65 746.412 114.25C746.412 113.845 746.327 113.477 746.157 113.147C745.987 112.812 745.75 112.547 745.445 112.352C745.145 112.157 744.802 112.06 744.417 112.06C744.032 112.06 743.68 112.16 743.36 112.36C743.045 112.555 742.792 112.817 742.602 113.147C742.417 113.477 742.325 113.845 742.325 114.25C742.325 114.655 742.42 115.022 742.61 115.352C742.8 115.682 743.052 115.945 743.367 116.14C743.687 116.335 744.037 116.432 744.417 116.432ZM755.754 106.75H757.584V118H755.754V117.062C755.514 117.397 755.212 117.67 754.847 117.88C754.482 118.09 754.059 118.195 753.579 118.195C753.034 118.195 752.524 118.093 752.049 117.887C751.574 117.682 751.154 117.4 750.789 117.04C750.429 116.675 750.147 116.255 749.942 115.78C749.737 115.305 749.634 114.795 749.634 114.25C749.634 113.705 749.737 113.195 749.942 112.72C750.147 112.245 750.429 111.827 750.789 111.467C751.154 111.102 751.574 110.817 752.049 110.612C752.524 110.407 753.034 110.305 753.579 110.305C754.059 110.305 754.482 110.41 754.847 110.62C755.212 110.825 755.514 111.097 755.754 111.437V106.75ZM753.602 116.432C753.992 116.432 754.337 116.335 754.637 116.14C754.937 115.945 755.172 115.682 755.342 115.352C755.512 115.017 755.597 114.65 755.597 114.25C755.597 113.845 755.512 113.477 755.342 113.147C755.172 112.812 754.934 112.547 754.629 112.352C754.329 112.157 753.987 112.06 753.602 112.06C753.217 112.06 752.864 112.16 752.544 112.36C752.229 112.555 751.977 112.817 751.787 113.147C751.602 113.477 751.509 113.845 751.509 114.25C751.509 114.655 751.604 115.022 751.794 115.352C751.984 115.682 752.237 115.945 752.552 116.14C752.872 116.335 753.222 116.432 753.602 116.432Z" fill="white"/>
<g clip-path="url(#clip0_138_1078)">
<path d="M1205 29C1205 19.0589 1196.94 11 1187 11V11C1177.06 11 1169 19.0589 1169 29V29C1169 38.9411 1177.06 47 1187 47V47C1196.94 47 1205 38.9411 1205 29V29Z" fill="url(#paint0_linear_138_1078)"/>
<path d="M1183.16 32.12V34.82C1183.16 35.34 1190.84 35.1651 1190.84 34.4154C1190.84 33.7098 1190.83 30.5122 1190.84 27.2226C1192.56 24.9933 1192.56 23.6 1191.2 22.16C1189.84 20.72 1180.16 20 1180.16 20C1180.16 20 1179.43 26.9852 1179.32 28.88C1179.27 29.642 1178.78 32.12 1180.7 32.12H1183.16Z" fill="url(#paint1_linear_138_1078)"/>
<g style="mix-blend-mode:multiply">
<path d="M1183.16 31.8893C1184.73 31.7187 1186.24 31.2252 1187.6 30.4399C1187.6 30.4399 1186.64 32.7199 1183.16 33.3387V31.8893Z" fill="#FFD7B8"/>
</g>
<path d="M1174.4 40.197C1173.64 41.7456 1173.04 44.3056 1172.6 47.877H1201.4C1200.96 44.3052 1200.36 41.7452 1199.6 40.197C1198.84 38.6539 1191.8 35.684 1191.8 35.684C1191.8 35.684 1191.66 34.3264 1191.32 34.1318C1190.98 33.9371 1183.08 33.9373 1182.68 34.1318C1182.28 34.3263 1182.2 35.6833 1182.2 35.6833C1182.2 35.6833 1175.16 38.6571 1174.4 40.197Z" fill="black"/>
<path d="M1189.28 23.6247C1189.66 23.297 1190.12 23.0763 1190.78 23.4169C1192.33 24.2237 1191.3 27.3362 1189.56 27.2755C1188.96 27.2546 1189.24 28.4503 1190.84 29.24C1190.84 27.98 1192.76 24.86 1192.93 22.0194C1194.86 21.3 1194.38 18.4215 1193.05 18.4215C1193.27 15.7826 1189.04 14.4197 1187.4 15.9339C1185.74 13.9397 1181.54 14.9597 1181.29 16.6898C1178.4 15.1482 1176.5 19.5797 1179.2 21.3C1180.32 22.008 1182.92 22.2774 1186.68 22.2774C1188.48 22.2774 1187.44 26.4978 1186.88 27.86C1186.16 29.6 1182.14 29.84 1180.88 29.66C1179.9 29.5195 1179.38 29.12 1179.32 28.88C1178.42 31.28 1179.56 32.72 1181.36 32.72C1184.42 32.72 1187.48 31.82 1187.96 29.6C1188.34 27.8333 1188.32 24.9819 1189.28 23.6247Z" fill="url(#paint2_linear_138_1078)"/>
</g>
<path fill-rule="evenodd" clip-rule="evenodd" d="M34.3411 36.0346C34.0134 37.2065 32.6897 39.1342 32.0693 39.1943C31.8837 39.2107 31.6161 39.1124 31.627 38.6897C31.6489 37.7002 33.1965 35.4558 33.8332 35.2843C34.2701 35.1663 34.4645 35.5912 34.3411 36.0335V36.0346ZM45.9553 30.1139C44.6524 30.1139 43.5678 35.2865 42.5029 35.2362C41.6074 35.1936 42.3555 31.6681 40.9826 31.6582C40.1395 31.6528 39.8872 33.0672 39.5027 34.2817C39.4809 34.3516 38.8583 36.7937 37.9136 36.7937C37.3118 36.7937 36.7854 36.3131 36.7854 34.8889C36.7854 34.2227 36.7515 33.231 35.9553 33.065C34.577 32.781 34.8915 34.1976 33.6825 33.9682C30.4114 33.3522 27.9354 40.0713 29.9254 40.9691C32.3107 42.0493 34.0517 37.816 34.7638 37.9317C35.3066 38.0213 34.9538 39.8452 36.6663 39.7284C38.0621 39.6333 39.1631 36.7511 39.7059 36.7849C40.1864 36.8155 39.7681 38.5193 40.9728 38.5827C42.3817 38.6569 42.9628 36.3186 43.605 36.3066C43.7666 36.3044 43.8343 36.4256 43.8223 37.0001C43.8037 37.7832 43.6989 47.7002 43.6836 48.0224C43.6541 48.634 43.9501 48.6843 44.0833 48.6843C44.174 48.6843 45.5283 48.6559 45.7871 48.646C46.0493 48.6351 46.093 48.3905 46.0919 48.2419C46.0908 48.1818 46.2797 33.8033 46.2928 30.6927C46.295 30.1139 46.0547 30.1139 45.9542 30.1139H45.9553ZM72.2321 25.305C71.8641 26.3513 70.8003 28.03 70.1482 28.1469C69.9243 28.1862 69.6513 27.9645 69.6688 27.5811C69.7103 26.6823 71.2164 24.7731 71.828 24.6311C72.2452 24.535 72.3829 24.878 72.2321 25.305ZM86.697 23.7214C84.1555 25.3269 84.6448 19.3887 83.0982 19.3887C81.4108 19.3887 80.9182 22.9099 80.3164 22.9688C79.5803 23.0409 80.5917 20.388 79.1314 20.4459C77.5237 20.5114 76.6238 26.3426 75.4573 25.8915C74.2603 25.4284 75.1177 22.3485 73.771 22.1235C73.0753 22.0077 72.9322 22.5636 72.5172 22.8323C71.8979 23.2342 70.7839 22.5342 69.0364 24.5711C67.0596 26.8734 66.4556 30.5923 67.9628 30.8467C69.9921 31.1875 71.8411 27.7231 72.3108 27.2786C72.9639 26.656 72.5991 29.073 74.3597 29.108C76.2208 29.1451 76.78 26.075 77.3217 26.1045C77.7859 26.1307 77.2474 27.7155 78.1332 27.828C80.0532 28.0737 81.1061 23.0409 81.8957 23.1512C82.6865 23.2605 82.3894 26.2629 84.2909 26.4529C85.9062 26.6124 87.0126 24.4083 87.1622 24.0818C87.3184 23.7454 87.053 23.4975 86.697 23.7214" fill="#EA4335"/>
<path fill-rule="evenodd" clip-rule="evenodd" d="M35.2702 44.6078C35.7223 44.8273 36.3514 45.2358 36.0314 45.9686C35.801 46.4907 35.5814 46.9003 35.5334 46.9822C35.2538 47.4595 34.5755 47.7467 33.7662 47.3645C32.4709 46.7528 25.5137 43.4304 25.2909 43.3278C25.0473 43.2131 24.6498 43.2972 24.6487 43.9787V45.831C24.6487 46.0822 24.6815 46.6993 24.1703 47.0619C23.6264 47.4475 22.7374 47.9761 22.579 48.0558C22.3562 48.1694 21.7817 48.615 21.7752 47.6866C21.7599 45.8409 21.7599 42.4158 21.7599 42.2257C21.7599 42.0357 21.8025 41.6698 21.2542 41.4208C20.7594 41.1958 17.6107 39.7083 17.4152 39.6187C17.1629 39.5018 16.9729 39.0486 17.4873 38.7384C18.0989 38.3682 21.1614 36.577 21.3733 36.4263C21.7293 36.1729 21.7293 35.9304 21.7326 35.1932C21.7359 34.3631 21.6856 23.568 21.6911 23.3933C21.702 23.1126 21.6638 22.8799 22.1421 22.5719C22.6839 22.2224 23.2671 21.8424 23.4571 21.72C23.7575 21.5245 24.676 21.1412 24.6618 22.1809C24.6509 22.8799 24.6585 32.7532 24.6618 33.0165C24.6673 33.3769 24.8355 33.9284 25.4176 33.4981C32.3857 28.3507 33.3108 23.9994 31.9226 21.1215C29.0862 15.2434 14.3527 24.6274 7.97874 29.8819C6.97721 30.7076 7.00124 30.3428 7.00014 29.9442C6.99796 29.4723 7.02089 27.727 7.05912 27.4048C7.11373 26.9417 7.2295 25.4367 8.60674 24.4385C9.94139 23.4708 28.2081 11.7036 33.5161 19.2648C36.1046 22.9531 34.5242 28.7755 25.328 35.5383C24.7667 35.9512 24.6618 36.0866 24.6618 36.8325C24.6618 37.5785 24.6454 38.7056 24.6618 38.9186C24.6793 39.1327 24.7011 39.5848 25.1446 39.8087C25.588 40.0348 34.8955 44.4254 35.2702 44.6078ZM52.7724 29.5335C52.0974 28.7744 50.7409 28.7875 49.6968 29.4308C48.3206 30.2784 47.9526 31.6043 48.6297 32.3622C49.3058 33.1213 50.9233 32.9608 51.9139 32.3033C53.0487 31.5497 53.4484 30.2926 52.7724 29.5335ZM63.0826 9.30411C66.322 12.4933 60.8032 18.5385 59.4718 20.0949C58.8733 20.7917 58.3185 21.8314 59.2577 22.8264C60.2112 23.8378 61.2018 24.7738 62.0188 25.5296C63.0269 26.4634 62.7265 28.2109 62.0887 29.1556C61.6627 29.7847 60.7125 30.8954 59.6182 32.2945C58.5205 33.6991 57.5245 34.9791 57.4141 35.12C57.1055 35.4947 56.9233 35.9575 56.8937 36.4421C56.864 36.9266 56.9885 37.4082 57.2492 37.8177C58.4266 39.6438 58.5402 39.6165 59.2905 38.3125C60.5411 36.139 62.1903 34.1218 63.4463 32.691C64.5767 31.4022 65.1905 30.4815 65.3499 30.2532C66.4858 28.6324 66.5939 26.9002 65.4471 25.902C63.9279 24.5805 62.1706 23.4238 60.718 22.3196C59.8814 21.6785 60.4624 20.8922 61.3591 20.2205C64.5505 17.833 69.0022 13.8345 66.9598 9.02342C64.983 4.36854 55.6819 7.95964 55.304 17.5905C55.1697 21.0254 55.6262 30.5252 55.3696 32.9029C55.2221 34.2867 55.7486 34.1316 56.2532 33.923C56.7162 33.7308 58.4921 32.8636 58.4004 30.6006C58.3086 28.3474 58.1022 18.5178 58.0356 17.4998C57.6916 12.1984 60.979 7.23334 63.0826 9.30411ZM85.8622 19.3063V19.0693H86.0085C86.0894 19.0693 86.1931 19.0802 86.1931 19.1785C86.1931 19.2899 86.1276 19.3063 86.0293 19.3063H85.8622ZM85.6569 19.871H85.8622V19.4647H85.9594L86.1888 19.871H86.4017L86.1473 19.4548C86.2958 19.4428 86.4017 19.374 86.4017 19.1993C86.4017 18.983 86.2597 18.9109 86.0173 18.9109H85.6569V19.871Z" fill="#EA4335"/>
<path fill-rule="evenodd" clip-rule="evenodd" d="M85.9911 18.691C85.8028 18.691 85.6223 18.7658 85.4891 18.899C85.356 19.0321 85.2812 19.2127 85.2812 19.4009C85.2812 19.5892 85.356 19.7698 85.4891 19.9029C85.6223 20.0361 85.8028 20.1109 85.9911 20.1109C86.1794 20.1109 86.36 20.0361 86.4931 19.9029C86.6262 19.7698 86.701 19.5892 86.701 19.4009C86.701 19.2127 86.6262 19.0321 86.4931 18.899C86.36 18.7658 86.1794 18.691 85.9911 18.691V18.691ZM85.9911 20.2747C85.8762 20.2747 85.7623 20.2521 85.6561 20.2081C85.5499 20.1641 85.4534 20.0996 85.3721 20.0183C85.2908 19.937 85.2264 19.8405 85.1824 19.7343C85.1384 19.6281 85.1157 19.5143 85.1157 19.3993C85.1157 19.2844 85.1384 19.1705 85.1824 19.0643C85.2264 18.9581 85.2908 18.8616 85.3721 18.7803C85.4534 18.699 85.5499 18.6346 85.6561 18.5906C85.7623 18.5466 85.8762 18.5239 85.9911 18.5239C86.2233 18.5239 86.4459 18.6162 86.6101 18.7803C86.7743 18.9445 86.8665 19.1671 86.8665 19.3993C86.8665 19.6315 86.7743 19.8541 86.6101 20.0183C86.4459 20.1825 86.2233 20.2747 85.9911 20.2747" fill="white"/>
<path d="M912.21 377.834L912.504 376.878C912.215 376.789 911.902 376.836 911.651 377.005L912.21 377.834ZM950.721 389.683L950.427 390.639C950.823 390.761 951.252 390.627 951.508 390.301L950.721 389.683ZM983.308 348.21L983.877 347.388C983.442 347.087 982.848 347.176 982.521 347.592L983.308 348.21ZM1008.98 365.984L1008.41 366.807C1008.54 366.898 1008.7 366.957 1008.86 366.977L1008.98 365.984ZM1048.48 370.922L1048.36 371.914C1048.7 371.957 1049.03 371.822 1049.25 371.556L1048.48 370.922ZM1071.19 343.273L1071.64 342.378C1071.22 342.17 1070.72 342.277 1070.42 342.638L1071.19 343.273ZM1102.79 359.072L1102.34 359.967C1102.72 360.155 1103.17 360.087 1103.48 359.798L1102.79 359.072ZM870.309 407.299L912.769 378.663L911.651 377.005L869.19 405.641L870.309 407.299ZM911.916 378.79L950.427 390.639L951.015 388.728L912.504 376.878L911.916 378.79ZM951.508 390.301L984.094 348.828L982.521 347.592L949.935 389.066L951.508 390.301ZM982.738 349.032L1008.41 366.807L1009.55 365.162L983.877 347.388L982.738 349.032ZM1008.86 366.977L1048.36 371.914L1048.6 369.929L1009.11 364.992L1008.86 366.977ZM1049.25 371.556L1071.96 343.908L1070.42 342.638L1047.71 370.287L1049.25 371.556ZM1070.74 344.167L1102.34 359.967L1103.24 358.178L1071.64 342.378L1070.74 344.167ZM1103.48 359.798L1141.99 323.262L1140.61 321.811L1102.1 358.347L1103.48 359.798Z" fill="#5233FF"/>
<circle cx="912.21" cy="378.822" r="3.9373" fill="white" stroke="#5233FF" stroke-width="2"/>
<circle cx="870.737" cy="404.495" r="3.9373" fill="white" stroke="#5233FF" stroke-width="2"/>
<circle cx="951.708" cy="388.696" r="3.9373" fill="white" stroke="#5233FF" stroke-width="2"/>
<circle cx="983.307" cy="349.198" r="3.9373" fill="white" stroke="#5233FF" stroke-width="2"/>
<circle cx="1010.96" cy="365.984" r="3.9373" fill="white" stroke="#5233FF" stroke-width="2"/>
<circle cx="1048.48" cy="370.922" r="3.9373" fill="white" stroke="#5233FF" stroke-width="2"/>
<circle cx="1071.19" cy="344.26" r="3.9373" fill="white" stroke="#5233FF" stroke-width="2"/>
<circle cx="1102.79" cy="357.097" r="3.9373" fill="white" stroke="#5233FF" stroke-width="2"/>
<circle cx="1141.3" cy="322.536" r="3.9373" fill="white" stroke="#5233FF" stroke-width="2"/>
<path d="M446.209 166H345.949C344.32 166 343 167.32 343 168.949V177.795C343 179.424 344.32 180.744 345.949 180.744H446.209C447.837 180.744 449.157 179.424 449.157 177.795V168.949C449.157 167.32 447.837 166 446.209 166Z" fill="#E6ECF2"/>
<path d="M740.639 196H354.361C348.087 196 343 197.343 343 199V208C343 209.657 348.087 211 354.361 211H740.639C746.913 211 752 209.657 752 208V199C752 197.343 746.913 196 740.639 196Z" fill="#E6ECF2" fill-opacity="0.4"/>
<g clip-path="url(#clip1_138_1078)">
<path d="M273 184.5C273 174.283 281.283 166 291.5 166V166C301.717 166 310 174.283 310 184.5V184.5C310 194.717 301.717 203 291.5 203V203C281.283 203 273 194.717 273 184.5V184.5Z" fill="url(#paint3_linear_138_1078)"/>
<path d="M288.206 191.761C289.274 189.985 291.726 186.581 297.565 181.798C306.376 174.579 298.06 167.977 289.127 171.494C288.171 171.87 285.523 170.364 283.07 171.95C281.488 172.974 282.103 173.776 281.487 174.578C280.871 175.38 278.496 175.333 277.975 177.416C277.667 178.65 278.52 179.942 278.406 180.871C278.292 181.8 277.391 182.637 277.348 183.863C277.33 184.381 277.413 184.897 277.594 185.383C277.775 185.868 278.05 186.313 278.403 186.692C278.756 187.072 279.181 187.378 279.652 187.593C280.123 187.808 280.633 187.929 281.15 187.947C281.155 188.971 281.554 189.953 282.266 190.689C282.978 191.425 283.946 191.857 284.969 191.896C285.625 191.92 286.277 191.779 286.864 191.485C287.447 192.022 287.947 192.191 288.206 191.761Z" fill="url(#paint4_linear_138_1078)"/>
<path d="M288.416 189.926C288.416 188.816 288.379 183.341 288.381 183.249C285.333 183.698 285.395 177.901 288.478 179.32C289.156 179.751 291.068 179.32 290.883 175.743C294.213 179.32 298.079 175.148 298.411 178.548C298.863 183.189 298.408 188.047 295.523 188.047C295.208 188.043 294.893 188.012 294.583 187.953V189.926C294.583 191.16 296.803 191.776 296.803 191.776C296.803 191.776 292.968 195.39 291.376 195.37C289.784 195.35 286.196 191.776 286.196 191.776C286.196 191.776 288.416 191.16 288.416 189.926Z" fill="url(#paint5_linear_138_1078)"/>
<path style="mix-blend-mode:multiply" opacity="0.7" d="M294.583 187.953C293.053 187.613 291.603 186.981 290.313 186.09C290.313 186.09 291.378 188.692 294.579 189.185L294.583 187.953Z" fill="url(#paint6_linear_138_1078)"/>
<path d="M302.846 195.477C303.741 197.465 304.203 203.493 304.203 203.493H278.796C278.796 203.493 279.258 197.465 280.153 195.477C280.937 193.735 286.103 191.735 287.616 191.16C288.49 192.138 289.743 192.763 291.5 192.763C293.256 192.763 294.509 192.138 295.383 191.16C296.897 191.735 302.062 193.735 302.846 195.477Z" fill="url(#paint7_linear_138_1078)"/>
<path d="M279.915 195.517C280.587 194.241 282.796 192.901 284.838 191.999C285.857 191.549 288.91 204.48 288.91 204.48H278.683C278.683 204.48 278.56 198.095 279.915 195.517Z" fill="url(#paint8_linear_138_1078)"/>
</g>
<path d="M770.528 217H278.472C270.479 217 264 224.253 264 233.2V281.8C264 290.747 270.479 298 278.472 298H770.528C778.521 298 785 290.747 785 281.8V233.2C785 224.253 778.521 217 770.528 217Z" fill="#FAFCFF"/>
<path d="M446.209 237H345.949C344.32 237 343 238.32 343 239.949V248.795C343 250.424 344.32 251.744 345.949 251.744H446.209C447.837 251.744 449.157 250.424 449.157 248.795V239.949C449.157 238.32 447.837 237 446.209 237Z" fill="#E6ECF2"/>
<path d="M740.639 267H354.361C348.087 267 343 268.343 343 270V279C343 280.657 348.087 282 354.361 282H740.639C746.913 282 752 280.657 752 279V270C752 268.343 746.913 267 740.639 267Z" fill="#E6ECF2" fill-opacity="0.4"/>
<path d="M446.209 309H345.949C344.32 309 343 310.32 343 311.949V320.795C343 322.424 344.32 323.744 345.949 323.744H446.209C447.837 323.744 449.157 322.424 449.157 320.795V311.949C449.157 310.32 447.837 309 446.209 309Z" fill="#E6ECF2"/>
<g clip-path="url(#clip2_138_1078)">
<path d="M273 319.5C273 309.283 281.283 301 291.5 301V301C301.717 301 310 309.283 310 319.5V319.5C310 329.717 301.717 338 291.5 338V338C281.283 338 273 329.717 273 319.5V319.5Z" fill="url(#paint9_linear_138_1078)"/>
<path d="M287.554 324.283C287.539 325.434 286.594 326.306 284.717 326.873C286.978 328.517 289.239 329.833 291.5 329.833C293.761 329.833 296.023 328.517 298.284 326.873C296.42 326.306 295.474 325.459 295.447 324.332C295.447 324.132 295.46 319.72 295.469 317.796C297.236 315.505 296.587 312.818 296.033 312.885C295.354 312.968 289.471 307.385 288.342 307.099C287.214 306.813 284.347 307.737 283.854 310.311C283.36 312.886 283.154 319.375 285.025 321.966C285.558 322.704 286.409 322.99 287.554 322.83C287.555 323.369 287.554 324.283 287.554 324.283Z" fill="url(#paint10_linear_138_1078)"/>
<path d="M287.554 322.83C290.267 322.521 291.994 321.35 291.994 321.35C291.994 321.35 290.514 323.816 287.554 324.31V322.83Z" fill="#DB6F3D"/>
<path d="M296.372 317.835C297.222 315.791 300.627 311.629 297.692 309.039C296.705 304.229 291.254 304.762 287.615 305.872C285.17 306.618 283.323 308.092 282.929 306.982C280.462 309.039 281.697 311.052 283.323 311.629C284.799 312.153 287.295 312.677 291.538 312.184C292.296 312.096 292.137 314.417 292.542 314.668C293.15 315.045 293.622 312.677 295.288 313.388C296.954 314.099 295.965 317.395 294.177 317.395C293.56 317.395 293.252 319.091 294.917 319.893C296.125 320.487 295.82 319.163 296.372 317.835Z" fill="white"/>
<path d="M304.45 330.638C305.624 333.025 306.3 338.531 306.3 338.531H276.7C276.7 338.531 277.376 333.025 278.55 330.638C279.724 328.251 286.579 326.037 286.579 326.037C287.9 328.75 295.152 328.75 296.418 326.037C296.418 326.037 303.276 328.251 304.45 330.638Z" fill="url(#paint11_linear_138_1078)"/>
<mask id="mask0_138_1078" style="mask-type:alpha" maskUnits="userSpaceOnUse" x="276" y="326" width="31" height="13">
<path d="M304.45 330.638C305.624 333.025 306.3 338.531 306.3 338.531H276.7C276.7 338.531 277.376 333.025 278.55 330.638C279.724 328.251 286.579 326.037 286.579 326.037C287.9 328.75 295.152 328.75 296.418 326.037C296.418 326.037 303.276 328.251 304.45 330.638Z" fill="url(#paint12_linear_138_1078)"/>
</mask>
<g mask="url(#mask0_138_1078)">
<path d="M275.467 336.026V335.04H307.533V336.026H275.467ZM275.467 333.56V332.573H307.533V333.56H275.467ZM275.467 331.093V330.106H307.533V331.093H275.467Z" fill="#6E5C5A"/>
</g>
</g>
<path d="M740.639 339H354.361C348.087 339 343 340.343 343 342V351C343 352.657 348.087 354 354.361 354H740.639C746.913 354 752 352.657 752 351V342C752 340.343 746.913 339 740.639 339Z" fill="#E6ECF2" fill-opacity="0.4"/>
<path d="M273 394.5C273 384.283 281.283 376 291.5 376V376C301.717 376 310 384.283 310 394.5V394.5C310 404.717 301.717 413 291.5 413V413C281.283 413 273 404.717 273 394.5V394.5Z" fill="url(#paint13_linear_138_1078)"/>
<path d="M302.847 404.983C303.751 406.71 304.204 413 304.204 413H278.797C278.797 413 279.249 406.71 280.154 404.983C281.51 402.393 291.5 399.063 291.5 399.063C291.5 399.063 301.49 402.393 302.847 404.983Z" fill="url(#paint14_linear_138_1078)"/>
<path d="M302.042 397.634L282.005 395.213C281.018 389.969 282.189 386.665 285.52 385.301C287.06 380.255 293.054 380.665 294.753 381.077C300.534 382.477 302.964 387.996 302.042 397.634Z" fill="url(#paint15_linear_138_1078)"/>
<path d="M288.54 400.543V393.143C285.454 393.097 286.056 387.75 289.157 389.382C289.712 389.628 291.13 388.95 290.637 387.285C293.967 389.752 298.607 385.423 298.9 388.087C299.477 393.33 298.361 397.639 295.403 397.639C295.088 397.651 294.772 397.632 294.46 397.583V400.543C293.495 401.119 292.529 401.407 291.563 401.407C290.598 401.407 289.59 401.119 288.54 400.543Z" fill="url(#paint16_linear_138_1078)"/>
<path d="M294.46 397.583V398.57C292.61 398.57 291.171 397.686 290.144 395.918C291.377 396.741 292.816 397.296 294.46 397.583Z" fill="#DB6F3D"/>
<path d="M291.496 401.28C292.34 401.24 294.46 400.803 294.46 399.86V399.063C294.686 399.063 295.334 399.598 295.667 400.05C296.984 401.838 295.523 403.442 294.332 403.442C292.829 403.442 291.833 402.186 291.5 401.582C291.167 402.186 290.171 403.442 288.668 403.442C287.477 403.442 286.016 401.838 287.333 400.05C287.666 399.598 288.314 399.063 288.54 399.063V399.86C288.54 400.803 290.605 401.24 291.496 401.28Z" fill="white"/>
<path d="M446.209 384H345.949C344.32 384 343 385.32 343 386.949V395.795C343 397.424 344.32 398.744 345.949 398.744H446.209C447.837 398.744 449.157 397.424 449.157 395.795V386.949C449.157 385.32 447.837 384 446.209 384Z" fill="#E6ECF2"/>
<path d="M740.639 414H354.361C348.087 414 343 415.343 343 417V426C343 427.657 348.087 429 354.361 429H740.639C746.913 429 752 427.657 752 426V417C752 415.343 746.913 414 740.639 414Z" fill="#E6ECF2" fill-opacity="0.4"/>
<g clip-path="url(#clip3_138_1078)">
<path d="M273 469.5C273 459.283 281.283 451 291.5 451V451C301.717 451 310 459.283 310 469.5V469.5C310 479.717 301.717 488 291.5 488V488C281.283 488 273 479.717 273 469.5V469.5Z" fill="url(#paint17_linear_138_1078)"/>
<path d="M295.447 472.706V475.42C295.447 475.688 291.5 476.502 291.5 476.502C291.5 476.502 287.554 475.803 287.554 475.42C287.554 474.695 287.569 471.054 287.554 467.673C285.786 465.382 285.786 463.95 287.184 462.47C288.581 460.99 298.53 460.25 298.53 460.25C298.53 460.25 299.277 467.429 299.394 469.376C299.441 470.16 299.949 472.706 297.975 472.706H295.447Z" fill="url(#paint18_linear_138_1078)"/>
<path d="M295.447 472.475V473.959C292.803 473.489 291.282 472.495 290.883 470.98C292.034 471.761 293.514 472.254 295.323 472.46C295.364 472.464 295.406 472.469 295.447 472.475Z" fill="#DE6530"/>
<path d="M304.45 481.008C305.233 482.599 305.85 485.23 306.3 488.901H276.7C277.151 485.23 277.768 482.599 278.55 481.008C279.33 479.422 286.567 476.369 286.567 476.369L296.434 476.368C296.434 476.368 303.672 479.425 304.45 481.008Z" fill="url(#paint19_linear_138_1078)"/>
<path d="M292.363 477.146L292.98 488.493H290.02L290.637 477.146C290.637 477.146 291.212 476.53 291.5 476.53C291.788 476.53 292.363 477.146 292.363 477.146Z" fill="url(#paint20_linear_138_1078)"/>
<path d="M292.488 479.443L290.572 478.336L290.637 477.146C291.021 476.735 291.308 476.53 291.5 476.53C291.692 476.53 291.98 476.735 292.364 477.146L292.488 479.443Z" fill="#D24B24"/>
<path d="M291.5 476.529L290.267 478.75L286.443 476.407L287.553 474.803L291.5 476.261L295.447 474.803L296.557 476.407L292.733 478.75L291.5 476.529Z" fill="white"/>
<path d="M289.159 463.975C288.767 463.638 288.291 463.412 287.617 463.762C286.02 464.591 287.08 467.79 288.867 467.727C289.484 467.706 289.201 468.935 287.554 469.746C287.554 468.451 285.58 465.245 285.408 462.325C283.422 461.586 283.915 458.627 285.278 458.627C285.061 455.915 289.404 454.514 291.085 456.071C292.795 454.021 297.112 455.069 297.373 456.848C300.341 455.263 302.292 459.818 299.513 461.586C298.369 462.314 295.694 462.59 291.832 462.59C289.978 462.59 291.044 466.928 291.624 468.328C292.364 470.116 296.495 470.363 297.79 470.178C298.802 470.034 299.332 469.623 299.394 469.376C300.319 471.843 299.147 473.323 297.297 473.323C294.152 473.323 291.007 472.398 290.514 470.116C290.121 468.301 290.142 465.37 289.159 463.975Z" fill="url(#paint21_linear_138_1078)"/>
</g>
<path d="M446.209 459H345.949C344.32 459 343 460.32 343 461.949V470.795C343 472.424 344.32 473.744 345.949 473.744H446.209C447.837 473.744 449.157 472.424 449.157 470.795V461.949C449.157 460.32 447.837 459 446.209 459Z" fill="#E6ECF2"/>
<path d="M740.639 489H354.361C348.087 489 343 490.343 343 492V501C343 502.657 348.087 504 354.361 504H740.639C746.913 504 752 502.657 752 501V492C752 490.343 746.913 489 740.639 489Z" fill="#E6ECF2" fill-opacity="0.4"/>
<g clip-path="url(#clip4_138_1078)">
<path d="M273 545.5C273 535.283 281.283 527 291.5 527V527C301.717 527 310 535.283 310 545.5V545.5C310 555.717 301.717 564 291.5 564V564C281.283 564 273 555.717 273 545.5V545.5Z" fill="url(#paint22_linear_138_1078)"/>
<path d="M302.847 556.97C303.751 558.696 304.204 564.986 304.204 564.986H278.797C278.797 564.986 279.249 558.696 280.154 556.97C281.51 554.38 291.5 551.05 291.5 551.05C291.5 551.05 301.49 554.38 302.847 556.97Z" fill="url(#paint23_linear_138_1078)"/>
<mask id="mask1_138_1078" style="mask-type:alpha" maskUnits="userSpaceOnUse" x="278" y="551" width="27" height="14">
<path d="M302.847 556.97C303.751 558.696 304.204 564.986 304.204 564.986H278.797C278.797 564.986 279.249 558.696 280.154 556.97C281.51 554.38 291.5 551.05 291.5 551.05C291.5 551.05 301.49 554.38 302.847 556.97Z" fill="url(#paint24_linear_138_1078)"/>
</mask>
<g mask="url(#mask1_138_1078)">
<path d="M303.093 563.876C303.093 563.73 303.137 563.587 303.218 563.465C303.299 563.344 303.415 563.249 303.55 563.193C303.685 563.137 303.834 563.122 303.978 563.151C304.121 563.179 304.253 563.25 304.357 563.353C304.46 563.457 304.531 563.589 304.559 563.732C304.588 563.876 304.573 564.024 304.517 564.16C304.461 564.295 304.366 564.41 304.245 564.492C304.123 564.573 303.98 564.616 303.833 564.616C303.637 564.616 303.449 564.538 303.31 564.4C303.171 564.261 303.093 564.073 303.093 563.876V563.876ZM298.16 563.876C298.16 563.73 298.203 563.587 298.285 563.465C298.366 563.344 298.482 563.249 298.617 563.193C298.752 563.137 298.901 563.122 299.044 563.151C299.188 563.179 299.32 563.25 299.423 563.353C299.527 563.457 299.597 563.589 299.626 563.732C299.654 563.876 299.64 564.024 299.584 564.16C299.528 564.295 299.433 564.41 299.311 564.492C299.19 564.573 299.046 564.616 298.9 564.616C298.704 564.616 298.516 564.538 298.377 564.4C298.238 564.261 298.16 564.073 298.16 563.876ZM293.227 563.876C293.227 563.73 293.27 563.587 293.351 563.465C293.433 563.344 293.548 563.249 293.684 563.193C293.819 563.137 293.968 563.122 294.111 563.151C294.255 563.179 294.387 563.25 294.49 563.353C294.594 563.457 294.664 563.589 294.693 563.732C294.721 563.876 294.706 564.024 294.65 564.16C294.594 564.295 294.5 564.41 294.378 564.492C294.256 564.573 294.113 564.616 293.967 564.616C293.77 564.616 293.582 564.538 293.443 564.4C293.305 564.261 293.227 564.073 293.227 563.876ZM288.293 563.876C288.293 563.73 288.337 563.587 288.418 563.465C288.499 563.344 288.615 563.249 288.75 563.193C288.885 563.137 289.034 563.122 289.178 563.151C289.321 563.179 289.453 563.25 289.557 563.353C289.66 563.457 289.731 563.589 289.759 563.732C289.788 563.876 289.773 564.024 289.717 564.16C289.661 564.295 289.566 564.41 289.445 564.492C289.323 564.573 289.18 564.616 289.033 564.616C288.837 564.616 288.649 564.538 288.51 564.4C288.371 564.261 288.293 564.073 288.293 563.876ZM283.36 563.876C283.36 563.73 283.403 563.587 283.485 563.465C283.566 563.344 283.682 563.249 283.817 563.193C283.952 563.137 284.101 563.122 284.244 563.151C284.388 563.179 284.52 563.25 284.623 563.353C284.727 563.457 284.797 563.589 284.826 563.732C284.854 563.876 284.84 564.024 284.784 564.16C284.728 564.295 284.633 564.41 284.511 564.492C284.39 564.573 284.246 564.616 284.1 564.616C283.904 564.616 283.716 564.538 283.577 564.4C283.438 564.261 283.36 564.073 283.36 563.876ZM278.427 563.876C278.427 563.73 278.47 563.587 278.551 563.465C278.633 563.344 278.748 563.249 278.884 563.193C279.019 563.137 279.168 563.122 279.311 563.151C279.455 563.179 279.587 563.25 279.69 563.353C279.794 563.457 279.864 563.589 279.893 563.732C279.921 563.876 279.906 564.024 279.85 564.16C279.794 564.295 279.7 564.41 279.578 564.492C279.456 564.573 279.313 564.616 279.167 564.616C278.97 564.616 278.782 564.538 278.643 564.4C278.505 564.261 278.427 564.073 278.427 563.876V563.876ZM300.627 561.41C300.627 561.263 300.67 561.12 300.751 560.999C300.833 560.877 300.948 560.782 301.084 560.726C301.219 560.67 301.368 560.655 301.511 560.684C301.655 560.713 301.787 560.783 301.89 560.887C301.994 560.99 302.064 561.122 302.093 561.265C302.121 561.409 302.106 561.558 302.05 561.693C301.994 561.828 301.9 561.944 301.778 562.025C301.656 562.106 301.513 562.15 301.367 562.15C301.17 562.15 300.982 562.072 300.843 561.933C300.705 561.794 300.627 561.606 300.627 561.41ZM295.693 561.41C295.693 561.263 295.737 561.12 295.818 560.999C295.899 560.877 296.015 560.782 296.15 560.726C296.285 560.67 296.434 560.655 296.578 560.684C296.721 560.713 296.853 560.783 296.957 560.887C297.06 560.99 297.131 561.122 297.159 561.265C297.188 561.409 297.173 561.558 297.117 561.693C297.061 561.828 296.966 561.944 296.845 562.025C296.723 562.106 296.58 562.15 296.433 562.15C296.237 562.15 296.049 562.072 295.91 561.933C295.771 561.794 295.693 561.606 295.693 561.41ZM290.76 561.41C290.76 561.263 290.803 561.12 290.885 560.999C290.966 560.877 291.082 560.782 291.217 560.726C291.352 560.67 291.501 560.655 291.644 560.684C291.788 560.713 291.92 560.783 292.023 560.887C292.127 560.99 292.197 561.122 292.226 561.265C292.254 561.409 292.24 561.558 292.184 561.693C292.128 561.828 292.033 561.944 291.911 562.025C291.79 562.106 291.646 562.15 291.5 562.15C291.304 562.15 291.116 562.072 290.977 561.933C290.838 561.794 290.76 561.606 290.76 561.41V561.41ZM285.827 561.41C285.827 561.263 285.87 561.12 285.951 560.999C286.033 560.877 286.148 560.782 286.284 560.726C286.419 560.67 286.568 560.655 286.711 560.684C286.855 560.713 286.987 560.783 287.09 560.887C287.194 560.99 287.264 561.122 287.293 561.265C287.321 561.409 287.306 561.558 287.25 561.693C287.194 561.828 287.1 561.944 286.978 562.025C286.856 562.106 286.713 562.15 286.567 562.15C286.37 562.15 286.182 562.072 286.043 561.933C285.905 561.794 285.827 561.606 285.827 561.41ZM280.893 561.41C280.893 561.263 280.937 561.12 281.018 560.999C281.099 560.877 281.215 560.782 281.35 560.726C281.485 560.67 281.634 560.655 281.778 560.684C281.921 560.713 282.053 560.783 282.157 560.887C282.26 560.99 282.331 561.122 282.359 561.265C282.388 561.409 282.373 561.558 282.317 561.693C282.261 561.828 282.166 561.944 282.045 562.025C281.923 562.106 281.78 562.15 281.633 562.15C281.437 562.15 281.249 562.072 281.11 561.933C280.971 561.794 280.893 561.606 280.893 561.41ZM303.093 558.943C303.093 558.797 303.137 558.654 303.218 558.532C303.299 558.41 303.415 558.315 303.55 558.259C303.685 558.203 303.834 558.189 303.978 558.217C304.121 558.246 304.253 558.316 304.357 558.42C304.46 558.523 304.531 558.655 304.559 558.799C304.588 558.942 304.573 559.091 304.517 559.226C304.461 559.362 304.366 559.477 304.245 559.558C304.123 559.64 303.98 559.683 303.833 559.683C303.637 559.683 303.449 559.605 303.31 559.466C303.171 559.328 303.093 559.139 303.093 558.943V558.943ZM298.16 558.943C298.16 558.797 298.203 558.654 298.285 558.532C298.366 558.41 298.482 558.315 298.617 558.259C298.752 558.203 298.901 558.189 299.044 558.217C299.188 558.246 299.32 558.316 299.423 558.42C299.527 558.523 299.597 558.655 299.626 558.799C299.654 558.942 299.64 559.091 299.584 559.226C299.528 559.362 299.433 559.477 299.311 559.558C299.19 559.64 299.046 559.683 298.9 559.683C298.704 559.683 298.516 559.605 298.377 559.466C298.238 559.328 298.16 559.139 298.16 558.943ZM293.227 558.943C293.227 558.797 293.27 558.654 293.351 558.532C293.433 558.41 293.548 558.315 293.684 558.259C293.819 558.203 293.968 558.189 294.111 558.217C294.255 558.246 294.387 558.316 294.49 558.42C294.594 558.523 294.664 558.655 294.693 558.799C294.721 558.942 294.706 559.091 294.65 559.226C294.594 559.362 294.5 559.477 294.378 559.558C294.256 559.64 294.113 559.683 293.967 559.683C293.77 559.683 293.582 559.605 293.443 559.466C293.305 559.328 293.227 559.139 293.227 558.943ZM288.293 558.943C288.293 558.797 288.337 558.654 288.418 558.532C288.499 558.41 288.615 558.315 288.75 558.259C288.885 558.203 289.034 558.189 289.178 558.217C289.321 558.246 289.453 558.316 289.557 558.42C289.66 558.523 289.731 558.655 289.759 558.799C289.788 558.942 289.773 559.091 289.717 559.226C289.661 559.362 289.566 559.477 289.445 559.558C289.323 559.64 289.18 559.683 289.033 559.683C288.837 559.683 288.649 559.605 288.51 559.466C288.371 559.328 288.293 559.139 288.293 558.943ZM283.36 558.943C283.36 558.797 283.403 558.654 283.485 558.532C283.566 558.41 283.682 558.315 283.817 558.259C283.952 558.203 284.101 558.189 284.244 558.217C284.388 558.246 284.52 558.316 284.623 558.42C284.727 558.523 284.797 558.655 284.826 558.799C284.854 558.942 284.84 559.091 284.784 559.226C284.728 559.362 284.633 559.477 284.511 559.558C284.39 559.64 284.246 559.683 284.1 559.683C283.904 559.683 283.716 559.605 283.577 559.466C283.438 559.328 283.36 559.139 283.36 558.943ZM278.427 558.943C278.427 558.797 278.47 558.654 278.551 558.532C278.633 558.41 278.748 558.315 278.884 558.259C279.019 558.203 279.168 558.189 279.311 558.217C279.455 558.246 279.587 558.316 279.69 558.42C279.794 558.523 279.864 558.655 279.893 558.799C279.921 558.942 279.906 559.091 279.85 559.226C279.794 559.362 279.7 559.477 279.578 559.558C279.456 559.64 279.313 559.683 279.167 559.683C278.97 559.683 278.782 559.605 278.643 559.466C278.505 559.328 278.427 559.139 278.427 558.943V558.943ZM300.627 556.476C300.627 556.33 300.67 556.187 300.751 556.065C300.833 555.944 300.948 555.849 301.084 555.793C301.219 555.737 301.368 555.722 301.511 555.751C301.655 555.779 301.787 555.85 301.89 555.953C301.994 556.057 302.064 556.189 302.093 556.332C302.121 556.476 302.106 556.624 302.05 556.76C301.994 556.895 301.9 557.01 301.778 557.092C301.656 557.173 301.513 557.216 301.367 557.216C301.17 557.216 300.982 557.138 300.843 557C300.705 556.861 300.627 556.673 300.627 556.476ZM295.693 556.476C295.693 556.33 295.737 556.187 295.818 556.065C295.899 555.944 296.015 555.849 296.15 555.793C296.285 555.737 296.434 555.722 296.578 555.751C296.721 555.779 296.853 555.85 296.957 555.953C297.06 556.057 297.131 556.189 297.159 556.332C297.188 556.476 297.173 556.624 297.117 556.76C297.061 556.895 296.966 557.01 296.845 557.092C296.723 557.173 296.58 557.216 296.433 557.216C296.237 557.216 296.049 557.138 295.91 557C295.771 556.861 295.693 556.673 295.693 556.476ZM290.76 556.476C290.76 556.33 290.803 556.187 290.885 556.065C290.966 555.944 291.082 555.849 291.217 555.793C291.352 555.737 291.501 555.722 291.644 555.751C291.788 555.779 291.92 555.85 292.023 555.953C292.127 556.057 292.197 556.189 292.226 556.332C292.254 556.476 292.24 556.624 292.184 556.76C292.128 556.895 292.033 557.01 291.911 557.092C291.79 557.173 291.646 557.216 291.5 557.216C291.304 557.216 291.116 557.138 290.977 557C290.838 556.861 290.76 556.673 290.76 556.476V556.476ZM285.827 556.476C285.827 556.33 285.87 556.187 285.951 556.065C286.033 555.944 286.148 555.849 286.284 555.793C286.419 555.737 286.568 555.722 286.711 555.751C286.855 555.779 286.987 555.85 287.09 555.953C287.194 556.057 287.264 556.189 287.293 556.332C287.321 556.476 287.306 556.624 287.25 556.76C287.194 556.895 287.1 557.01 286.978 557.092C286.856 557.173 286.713 557.216 286.567 557.216C286.37 557.216 286.182 557.138 286.043 557C285.905 556.861 285.827 556.673 285.827 556.476ZM280.893 556.476C280.893 556.33 280.937 556.187 281.018 556.065C281.099 555.944 281.215 555.849 281.35 555.793C281.485 555.737 281.634 555.722 281.778 555.751C281.921 555.779 282.053 555.85 282.157 555.953C282.26 556.057 282.331 556.189 282.359 556.332C282.388 556.476 282.373 556.624 282.317 556.76C282.261 556.895 282.166 557.01 282.045 557.092C281.923 557.173 281.78 557.216 281.633 557.216C281.437 557.216 281.249 557.138 281.11 557C280.971 556.861 280.893 556.673 280.893 556.476ZM303.093 554.01C303.093 553.863 303.137 553.72 303.218 553.599C303.299 553.477 303.415 553.382 303.55 553.326C303.685 553.27 303.834 553.255 303.978 553.284C304.121 553.313 304.253 553.383 304.357 553.487C304.46 553.59 304.531 553.722 304.559 553.865C304.588 554.009 304.573 554.158 304.517 554.293C304.461 554.428 304.366 554.544 304.245 554.625C304.123 554.706 303.98 554.75 303.833 554.75C303.637 554.75 303.449 554.672 303.31 554.533C303.171 554.394 303.093 554.206 303.093 554.01V554.01ZM298.16 554.01C298.16 553.863 298.203 553.72 298.285 553.599C298.366 553.477 298.482 553.382 298.617 553.326C298.752 553.27 298.901 553.255 299.044 553.284C299.188 553.313 299.32 553.383 299.423 553.487C299.527 553.59 299.597 553.722 299.626 553.865C299.654 554.009 299.64 554.158 299.584 554.293C299.528 554.428 299.433 554.544 299.311 554.625C299.19 554.706 299.046 554.75 298.9 554.75C298.704 554.75 298.516 554.672 298.377 554.533C298.238 554.394 298.16 554.206 298.16 554.01V554.01ZM283.36 554.01C283.36 553.863 283.403 553.72 283.485 553.599C283.566 553.477 283.682 553.382 283.817 553.326C283.952 553.27 284.101 553.255 284.244 553.284C284.388 553.313 284.52 553.383 284.623 553.487C284.727 553.59 284.797 553.722 284.826 553.865C284.854 554.009 284.84 554.158 284.784 554.293C284.728 554.428 284.633 554.544 284.511 554.625C284.39 554.706 284.246 554.75 284.1 554.75C283.904 554.75 283.716 554.672 283.577 554.533C283.438 554.394 283.36 554.206 283.36 554.01V554.01ZM278.427 554.01C278.427 553.863 278.47 553.72 278.551 553.599C278.633 553.477 278.748 553.382 278.884 553.326C279.019 553.27 279.168 553.255 279.311 553.284C279.455 553.313 279.587 553.383 279.69 553.487C279.794 553.59 279.864 553.722 279.893 553.865C279.921 554.009 279.906 554.158 279.85 554.293C279.794 554.428 279.7 554.544 279.578 554.625C279.456 554.706 279.313 554.75 279.167 554.75C278.97 554.75 278.782 554.672 278.643 554.533C278.505 554.394 278.427 554.206 278.427 554.01V554.01Z" fill="white"/>
</g>
<path d="M292.84 533.5C292.347 531.341 294.686 529.685 297.095 530.822C302.769 533.5 299.394 537.237 297.297 536.99C295.2 536.743 293.334 535.658 292.84 533.5Z" fill="url(#paint25_linear_138_1078)"/>
<path opacity="0.6" d="M294.892 533.845C294.892 533.845 299.085 536.558 300.134 535.078C300.242 535.696 299.745 537.442 298.962 537.422C296.622 537.361 294.892 533.845 294.892 533.845Z" fill="black"/>
<path d="M294.214 547.103C291.564 548.376 291.178 548.308 285.334 543.527C276.515 536.312 284.84 529.713 293.782 533.228C303.464 537.483 300.22 544.218 294.214 547.103Z" fill="url(#paint26_linear_138_1078)"/>
<path d="M294.46 552.16C293.556 553.64 289.445 553.64 288.54 552.16V549.693C288.54 549.693 288.138 549.706 287.862 549.693C284.977 549.57 284.013 544.929 284.466 540.288C284.797 536.888 287.677 541.553 292.364 538.285C292.179 541.862 293.72 541.492 294.399 541.06C297.482 539.642 297.508 545.456 294.46 545.007V552.16Z" fill="url(#paint27_linear_138_1078)"/>
<path d="M288.54 549.693C290.205 549.569 292.686 547.831 292.686 547.831C292.686 547.831 291.499 550.37 288.54 550.802L288.54 549.693Z" fill="#DB6F3D"/>
<path d="M294.46 551.847V551.05C294.686 551.05 295.334 551.584 295.667 552.036C296.984 553.825 295.523 555.428 294.332 555.428C292.829 555.428 291.833 554.172 291.5 553.568C291.167 554.173 290.171 555.428 288.668 555.428C287.477 555.428 286.016 553.825 287.333 552.036C287.666 551.584 288.314 551.05 288.54 551.05V551.847C288.54 552.79 290.605 553.226 291.496 553.267C292.34 553.226 294.46 552.79 294.46 551.847Z" fill="white"/>
</g>
<path d="M446.209 534H345.949C344.32 534 343 535.32 343 536.949V545.795C343 547.424 344.32 548.744 345.949 548.744H446.209C447.837 548.744 449.157 547.424 449.157 545.795V536.949C449.157 535.32 447.837 534 446.209 534Z" fill="#E6ECF2"/>
<path d="M740.639 564H354.361C348.087 564 343 565.343 343 567V576C343 577.657 348.087 579 354.361 579H740.639C746.913 579 752 577.657 752 576V567C752 565.343 746.913 564 740.639 564Z" fill="#E6ECF2" fill-opacity="0.4"/>
<path d="M1046.21 191H945.949C944.32 191 943 192.32 943 193.949V202.795C943 204.424 944.32 205.744 945.949 205.744H1046.21C1047.84 205.744 1049.16 204.424 1049.16 202.795V193.949C1049.16 192.32 1047.84 191 1046.21 191Z" fill="#E6ECF2"/>
<path d="M1129.67 222H948.333C945.388 222 943 223.343 943 225V234C943 235.657 945.388 237 948.333 237H1129.67C1132.61 237 1135 235.657 1135 234V225C1135 223.343 1132.61 222 1129.67 222Z" fill="#E6ECF2" fill-opacity="0.4"/>
<g clip-path="url(#clip5_138_1078)">
<path d="M273 251.5C273 241.283 281.283 233 291.5 233V233C301.717 233 310 241.283 310 251.5V251.5C310 261.717 301.717 270 291.5 270V270C281.283 270 273 261.717 273 251.5V251.5Z" fill="url(#paint28_linear_138_1078)"/>
<path d="M295.324 254.46V255.94C295.324 257.913 298.16 258.777 298.16 258.777C298.16 258.777 294.892 261.243 291.5 261.243C288.109 261.243 284.84 258.777 284.84 258.777C284.84 258.777 287.699 257.913 287.677 255.94C287.655 253.967 287.67 252.807 287.655 249.427C285.887 247.135 286.001 245.598 286.967 244.516C290.205 240.893 299.024 242.127 299.024 242.127C299.024 242.127 299.847 251.006 297.975 253.597C297.174 254.707 295.324 254.46 295.324 254.46Z" fill="url(#paint29_linear_138_1078)"/>
<path style="mix-blend-mode:multiply" opacity="0.6" d="M295.324 254.46C292.61 254.152 291.007 252.98 291.007 252.98C292.019 254.478 293.562 255.535 295.324 255.94V254.46Z" fill="url(#paint30_linear_138_1078)"/>
<path d="M304.45 262.515C305.624 264.902 306.3 270.408 306.3 270.408H276.7C276.7 270.408 277.376 264.902 278.55 262.515C279.724 260.128 286.579 257.914 286.579 257.914C287.9 260.627 295.152 260.627 296.418 257.914C296.418 257.914 303.276 260.128 304.45 262.515Z" fill="url(#paint31_linear_138_1078)"/>
<path d="M291.007 267.287C291.007 267.189 291.036 267.094 291.09 267.012C291.144 266.931 291.221 266.868 291.311 266.831C291.402 266.793 291.501 266.784 291.596 266.803C291.692 266.822 291.78 266.869 291.849 266.938C291.918 267.007 291.965 267.095 291.984 267.19C292.003 267.286 291.993 267.385 291.956 267.475C291.919 267.565 291.855 267.643 291.774 267.697C291.693 267.751 291.598 267.78 291.5 267.78C291.369 267.78 291.244 267.728 291.151 267.635C291.059 267.543 291.007 267.417 291.007 267.287ZM291.007 264.82C291.007 264.722 291.036 264.627 291.09 264.546C291.144 264.465 291.221 264.401 291.311 264.364C291.402 264.327 291.501 264.317 291.596 264.336C291.692 264.355 291.78 264.402 291.849 264.471C291.918 264.54 291.965 264.628 291.984 264.724C292.003 264.819 291.993 264.919 291.956 265.009C291.919 265.099 291.855 265.176 291.774 265.23C291.693 265.284 291.598 265.313 291.5 265.313C291.369 265.313 291.244 265.261 291.151 265.169C291.059 265.076 291.007 264.951 291.007 264.82ZM291.007 262.353C291.007 262.256 291.036 262.16 291.09 262.079C291.144 261.998 291.221 261.935 291.311 261.897C291.402 261.86 291.501 261.85 291.596 261.869C291.692 261.888 291.78 261.935 291.849 262.004C291.918 262.073 291.965 262.161 291.984 262.257C292.003 262.353 291.993 262.452 291.956 262.542C291.919 262.632 291.855 262.709 291.774 262.763C291.693 262.818 291.598 262.847 291.5 262.847C291.369 262.847 291.244 262.795 291.151 262.702C291.059 262.61 291.007 262.484 291.007 262.353V262.353Z" fill="white"/>
<path d="M289.176 245.729C288.784 245.392 288.307 245.165 287.634 245.516C286.037 246.345 287.245 249.527 288.664 249.527C289.034 249.527 289.218 250.689 287.57 251.5C287.57 250.205 285.597 246.998 285.424 244.079C283.439 243.339 283.932 240.381 285.295 240.381C285.077 237.669 289.42 236.268 291.102 237.825C292.812 235.775 297.129 236.823 297.389 238.602C300.357 237.017 302.309 241.572 299.529 243.34C298.386 244.067 295.71 244.344 291.848 244.344C291.265 244.344 290.939 244.489 291.102 245.21C291.417 246.607 290.685 247.487 289.176 245.729Z" fill="url(#paint32_linear_138_1078)"/>
</g>
<line x1="828" y1="428.5" x2="1187" y2="428.5" stroke="#CEDDE9"/>
<line x1="828" y1="291.5" x2="1187" y2="291.5" stroke="#CEDDE9"/>
<g clip-path="url(#clip6_138_1078)">
<path d="M844 211.5C844 189.685 861.685 172 883.5 172V172C905.315 172 923 189.685 923 211.5V211.5C923 233.315 905.315 251 883.5 251V251C861.685 251 844 233.315 844 211.5V211.5Z" fill="url(#paint33_linear_138_1078)"/>
<path d="M891.663 217.82V220.98C891.663 225.193 897.72 227.037 897.72 227.037C897.72 227.037 890.741 232.303 883.5 232.303C876.258 232.303 869.28 227.037 869.28 227.037C869.28 227.037 875.384 225.193 875.336 220.98C875.289 216.767 875.321 214.291 875.289 207.073C871.515 202.181 871.757 198.898 873.821 196.589C880.735 188.853 899.563 191.487 899.563 191.487C899.563 191.487 901.32 210.445 897.325 215.977C895.613 218.347 891.663 217.82 891.663 217.82Z" fill="url(#paint34_linear_138_1078)"/>
<path style="mix-blend-mode:multiply" opacity="0.6" d="M891.663 217.82C885.87 217.162 882.447 214.66 882.447 214.66C884.608 217.858 887.902 220.116 891.663 220.98V217.82Z" fill="url(#paint35_linear_138_1078)"/>
<path d="M911.15 235.018C913.657 240.115 915.1 251.871 915.1 251.871H851.9C851.9 251.871 853.343 240.114 855.85 235.018C858.356 229.922 872.993 225.195 872.993 225.195C875.814 230.987 891.297 230.987 893.999 225.193C893.999 225.193 908.643 229.92 911.15 235.018Z" fill="url(#paint36_linear_138_1078)"/>
<path d="M882.447 245.207C882.447 244.998 882.509 244.795 882.624 244.622C882.74 244.448 882.905 244.313 883.097 244.234C883.289 244.154 883.501 244.133 883.706 244.174C883.91 244.214 884.098 244.315 884.245 244.462C884.392 244.609 884.493 244.797 884.533 245.001C884.574 245.206 884.553 245.417 884.473 245.61C884.394 245.802 884.259 245.967 884.085 246.083C883.912 246.198 883.708 246.26 883.5 246.26C883.221 246.26 882.953 246.149 882.755 245.952C882.558 245.754 882.447 245.486 882.447 245.207ZM882.447 239.94C882.447 239.732 882.509 239.528 882.624 239.355C882.74 239.182 882.905 239.047 883.097 238.967C883.289 238.887 883.501 238.866 883.706 238.907C883.91 238.948 884.098 239.048 884.245 239.195C884.392 239.343 884.493 239.53 884.533 239.735C884.574 239.939 884.553 240.151 884.473 240.343C884.394 240.536 884.259 240.7 884.085 240.816C883.912 240.932 883.708 240.993 883.5 240.993C883.221 240.993 882.953 240.882 882.755 240.685C882.558 240.487 882.447 240.219 882.447 239.94ZM882.447 234.673C882.447 234.465 882.509 234.261 882.624 234.088C882.74 233.915 882.905 233.78 883.097 233.7C883.289 233.621 883.501 233.6 883.706 233.64C883.91 233.681 884.098 233.781 884.245 233.929C884.392 234.076 884.493 234.264 884.533 234.468C884.574 234.672 884.553 234.884 884.473 235.077C884.394 235.269 884.259 235.434 884.085 235.549C883.912 235.665 883.708 235.727 883.5 235.727C883.221 235.727 882.953 235.616 882.755 235.418C882.558 235.221 882.447 234.953 882.447 234.673V234.673Z" fill="white"/>
<path d="M878.537 199.178C877.7 198.459 876.682 197.975 875.244 198.722C871.834 200.493 874.415 207.287 877.443 207.287C878.233 207.287 878.626 209.768 875.109 211.5C875.109 208.735 870.895 201.888 870.527 195.655C866.287 194.076 867.34 187.76 870.251 187.76C869.787 181.969 879.059 178.978 882.649 182.301C886.3 177.925 895.517 180.163 896.074 183.96C902.411 180.577 906.577 190.302 900.643 194.077C898.201 195.631 892.489 196.222 884.243 196.222C882.998 196.222 882.301 196.531 882.649 198.07C883.323 201.053 881.758 202.931 878.537 199.178Z" fill="url(#paint37_linear_138_1078)"/>
</g>
<defs>
<linearGradient id="paint0_linear_138_1078" x1="1187" y1="11" x2="1187" y2="44.57" gradientUnits="userSpaceOnUse">
<stop offset="0.0120133" stop-color="#4285F4"/>
</linearGradient>
<linearGradient id="paint1_linear_138_1078" x1="1185.7" y1="20" x2="1185.7" y2="35.1184" gradientUnits="userSpaceOnUse">
<stop stop-color="white"/>
<stop offset="1" stop-color="white"/>
</linearGradient>
<linearGradient id="paint2_linear_138_1078" x1="1186.06" y1="32.72" x2="1186.06" y2="14.8394" gradientUnits="userSpaceOnUse">
<stop stop-color="#0D0E11"/>
<stop offset="1"/>
</linearGradient>
<linearGradient id="paint3_linear_138_1078" x1="291.5" y1="166" x2="291.5" y2="203" gradientUnits="userSpaceOnUse">
<stop stop-color="#806A6A"/>
<stop offset="1" stop-color="#665654"/>
</linearGradient>
<linearGradient id="paint4_linear_138_1078" x1="289.664" y1="170.359" x2="288.904" y2="192.044" gradientUnits="userSpaceOnUse">
<stop stop-color="#1D0024"/>
<stop offset="1" stop-color="#100014"/>
</linearGradient>
<linearGradient id="paint5_linear_138_1078" x1="292.346" y1="175.743" x2="292.346" y2="195.37" gradientUnits="userSpaceOnUse">
<stop stop-color="#E6864E"/>
<stop offset="1" stop-color="#EB965E"/>
</linearGradient>
<linearGradient id="paint6_linear_138_1078" x1="291.12" y1="186.672" x2="291.76" y2="189.55" gradientUnits="userSpaceOnUse">
<stop stop-color="#E68349"/>
<stop offset="1" stop-color="#F09960"/>
</linearGradient>
<linearGradient id="paint7_linear_138_1078" x1="291.5" y1="203.493" x2="291.5" y2="191.16" gradientUnits="userSpaceOnUse">
<stop stop-color="#FFC9B3"/>
<stop offset="1" stop-color="#FFD2C2"/>
</linearGradient>
<linearGradient id="paint8_linear_138_1078" x1="283.795" y1="204.48" x2="283.795" y2="191.987" gradientUnits="userSpaceOnUse">
<stop stop-color="#FCF2EB"/>
<stop offset="1" stop-color="#FFF9F5"/>
</linearGradient>
<linearGradient id="paint9_linear_138_1078" x1="291.5" y1="338" x2="291.5" y2="301" gradientUnits="userSpaceOnUse">
<stop stop-color="#FFC9B3"/>
<stop offset="1" stop-color="#FFD2C2"/>
</linearGradient>
<linearGradient id="paint10_linear_138_1078" x1="290.899" y1="307.049" x2="290.899" y2="329.833" gradientUnits="userSpaceOnUse">
<stop stop-color="#E6864E"/>
<stop offset="1" stop-color="#EB965E"/>
</linearGradient>
<linearGradient id="paint11_linear_138_1078" x1="291.5" y1="326.037" x2="291.5" y2="338.531" gradientUnits="userSpaceOnUse">
<stop stop-color="#1D0024"/>
<stop offset="1" stop-color="#100014"/>
</linearGradient>
<linearGradient id="paint12_linear_138_1078" x1="291.5" y1="326.037" x2="291.5" y2="338.531" gradientUnits="userSpaceOnUse">
<stop stop-color="#1D0024"/>
<stop offset="1" stop-color="#100014"/>
</linearGradient>
<linearGradient id="paint13_linear_138_1078" x1="291.5" y1="376" x2="291.5" y2="413" gradientUnits="userSpaceOnUse">
<stop stop-color="#FFDEDE"/>
<stop offset="1" stop-color="#FFA89D"/>
</linearGradient>
<linearGradient id="paint14_linear_138_1078" x1="291.5" y1="413" x2="291.5" y2="399.063" gradientUnits="userSpaceOnUse">
<stop stop-color="#FF2424"/>
<stop offset="0.822917" stop-color="#9D645A"/>
<stop offset="1" stop-color="#FFD2C2"/>
<stop offset="1" stop-color="#4D2F2F"/>
</linearGradient>
<linearGradient id="paint15_linear_138_1078" x1="291.949" y1="380.851" x2="291.949" y2="397.634" gradientUnits="userSpaceOnUse">
<stop stop-color="#1D0024"/>
<stop offset="1" stop-color="#100014"/>
</linearGradient>
<linearGradient id="paint16_linear_138_1078" x1="292.777" y1="387.184" x2="292.777" y2="401.407" gradientUnits="userSpaceOnUse">
<stop stop-color="#E6864E"/>
<stop offset="1" stop-color="#EB965E"/>
</linearGradient>
<linearGradient id="paint17_linear_138_1078" x1="291.5" y1="488" x2="291.5" y2="451" gradientUnits="userSpaceOnUse">
<stop stop-color="#FFC9B3"/>
<stop offset="1" stop-color="#FFD2C2"/>
</linearGradient>
<linearGradient id="paint18_linear_138_1078" x1="292.832" y1="460.25" x2="292.832" y2="476.502" gradientUnits="userSpaceOnUse">
<stop stop-color="#E6864E"/>
<stop offset="1" stop-color="#EB965E"/>
</linearGradient>
<linearGradient id="paint19_linear_138_1078" x1="291.5" y1="476.368" x2="291.5" y2="488.901" gradientUnits="userSpaceOnUse">
<stop stop-color="#130027"/>
<stop offset="1" stop-color="#130017"/>
</linearGradient>
<linearGradient id="paint20_linear_138_1078" x1="291.5" y1="488.493" x2="291.5" y2="476.53" gradientUnits="userSpaceOnUse">
<stop stop-color="#E6864E"/>
<stop offset="1" stop-color="#E67240"/>
</linearGradient>
<linearGradient id="paint21_linear_138_1078" x1="292.468" y1="454.946" x2="292.468" y2="473.323" gradientUnits="userSpaceOnUse">
<stop stop-color="#130027"/>
<stop offset="1" stop-color="#130017"/>
</linearGradient>
<linearGradient id="paint22_linear_138_1078" x1="291.5" y1="564" x2="291.5" y2="527" gradientUnits="userSpaceOnUse">
<stop stop-color="#EBE8FF"/>
<stop offset="1" stop-color="#73CDFF"/>
</linearGradient>
<linearGradient id="paint23_linear_138_1078" x1="301.333" y1="562.924" x2="291.568" y2="546.349" gradientUnits="userSpaceOnUse">
<stop stop-color="#7182AD"/>
<stop offset="1" stop-color="#C5C2DF"/>
</linearGradient>
<linearGradient id="paint24_linear_138_1078" x1="301.333" y1="562.924" x2="291.568" y2="546.349" gradientUnits="userSpaceOnUse">
<stop stop-color="#E2834C"/>
<stop offset="1" stop-color="#DF6638"/>
</linearGradient>
<linearGradient id="paint25_linear_138_1078" x1="296.498" y1="530.453" x2="296.498" y2="537.002" gradientUnits="userSpaceOnUse">
<stop stop-color="#1D0024"/>
<stop offset="1" stop-color="#100014"/>
</linearGradient>
<linearGradient id="paint26_linear_138_1078" x1="290.753" y1="532.255" x2="290.753" y2="547.804" gradientUnits="userSpaceOnUse">
<stop stop-color="#1D0024"/>
<stop offset="1" stop-color="#100014"/>
</linearGradient>
<linearGradient id="paint27_linear_138_1078" x1="290.544" y1="538.285" x2="290.544" y2="553.27" gradientUnits="userSpaceOnUse">
<stop stop-color="#FFE8DB"/>
<stop offset="1" stop-color="#FFE7D7"/>
</linearGradient>
<linearGradient id="paint28_linear_138_1078" x1="291.5" y1="270" x2="291.5" y2="233" gradientUnits="userSpaceOnUse">
<stop stop-color="white"/>
<stop offset="1" stop-color="#D0D2FF"/>
</linearGradient>
<linearGradient id="paint29_linear_138_1078" x1="292.022" y1="241.924" x2="292.022" y2="261.243" gradientUnits="userSpaceOnUse">
<stop stop-color="#FFEADB"/>
<stop offset="1" stop-color="#FFEADB"/>
</linearGradient>
<linearGradient id="paint30_linear_138_1078" x1="294.508" y1="253.536" x2="293.752" y2="256.399" gradientUnits="userSpaceOnUse">
<stop stop-color="#3F45E0"/>
<stop offset="1" stop-color="#5754EB"/>
</linearGradient>
<linearGradient id="paint31_linear_138_1078" x1="291.5" y1="257.914" x2="291.5" y2="270.408" gradientUnits="userSpaceOnUse">
<stop stop-color="#1D0024"/>
<stop offset="1" stop-color="#100014"/>
</linearGradient>
<linearGradient id="paint32_linear_138_1078" x1="292.485" y1="236.7" x2="292.485" y2="251.5" gradientUnits="userSpaceOnUse">
<stop stop-color="#1D0024"/>
<stop offset="1" stop-color="#100014"/>
</linearGradient>
<linearGradient id="paint33_linear_138_1078" x1="883.5" y1="251" x2="883.5" y2="172" gradientUnits="userSpaceOnUse">
<stop stop-color="white"/>
<stop offset="1" stop-color="#D0D2FF"/>
</linearGradient>
<linearGradient id="paint34_linear_138_1078" x1="884.614" y1="191.055" x2="884.614" y2="232.303" gradientUnits="userSpaceOnUse">
<stop stop-color="#FFEADB"/>
<stop offset="1" stop-color="#FFEADB"/>
</linearGradient>
<linearGradient id="paint35_linear_138_1078" x1="889.921" y1="215.848" x2="888.307" y2="221.961" gradientUnits="userSpaceOnUse">
<stop stop-color="#9A9BAA"/>
<stop offset="1" stop-color="#BCBCE3"/>
</linearGradient>
<linearGradient id="paint36_linear_138_1078" x1="883.5" y1="225.193" x2="883.5" y2="251.871" gradientUnits="userSpaceOnUse">
<stop stop-color="#1D0024"/>
<stop offset="1" stop-color="#100014"/>
</linearGradient>
<linearGradient id="paint37_linear_138_1078" x1="885.602" y1="179.899" x2="885.602" y2="211.5" gradientUnits="userSpaceOnUse">
<stop stop-color="#1D0024"/>
<stop offset="1" stop-color="#100014"/>
</linearGradient>
<clipPath id="clip0_138_1078">
<path d="M1205 29C1205 19.0589 1196.94 11 1187 11V11C1177.06 11 1169 19.0589 1169 29V29C1169 38.9411 1177.06 47 1187 47V47C1196.94 47 1205 38.9411 1205 29V29Z" fill="white"/>
</clipPath>
<clipPath id="clip1_138_1078">
<path d="M273 184.5C273 174.283 281.283 166 291.5 166V166C301.717 166 310 174.283 310 184.5V184.5C310 194.717 301.717 203 291.5 203V203C281.283 203 273 194.717 273 184.5V184.5Z" fill="white"/>
</clipPath>
<clipPath id="clip2_138_1078">
<path d="M273 319.5C273 309.283 281.283 301 291.5 301V301C301.717 301 310 309.283 310 319.5V319.5C310 329.717 301.717 338 291.5 338V338C281.283 338 273 329.717 273 319.5V319.5Z" fill="white"/>
</clipPath>
<clipPath id="clip3_138_1078">
<path d="M273 469.5C273 459.283 281.283 451 291.5 451V451C301.717 451 310 459.283 310 469.5V469.5C310 479.717 301.717 488 291.5 488V488C281.283 488 273 479.717 273 469.5V469.5Z" fill="white"/>
</clipPath>
<clipPath id="clip4_138_1078">
<path d="M273 545.5C273 535.283 281.283 527 291.5 527V527C301.717 527 310 535.283 310 545.5V545.5C310 555.717 301.717 564 291.5 564V564C281.283 564 273 555.717 273 545.5V545.5Z" fill="white"/>
</clipPath>
<clipPath id="clip5_138_1078">
<path d="M273 251.5C273 241.283 281.283 233 291.5 233V233C301.717 233 310 241.283 310 251.5V251.5C310 261.717 301.717 270 291.5 270V270C281.283 270 273 261.717 273 251.5V251.5Z" fill="white"/>
</clipPath>
<clipPath id="clip6_138_1078">
<path d="M844 211.5C844 189.685 861.685 172 883.5 172V172C905.315 172 923 189.685 923 211.5V211.5C923 233.315 905.315 251 883.5 251V251C861.685 251 844 233.315 844 211.5V211.5Z" fill="white"/>
</clipPath>
</defs>
</svg>
