<svg width="1239" height="657" viewBox="0 0 1239 657" fill="none" xmlns="http://www.w3.org/2000/svg">
<path d="M1224.25 0H14.75C6.6038 0 0 4.35132 0 9.71894V647.281C0 652.649 6.6038 657 14.75 657H1224.25C1232.4 657 1239 652.649 1239 647.281V9.71894C1239 4.35132 1232.4 0 1224.25 0Z" fill="white"/>
<path d="M962.5 315H843.5C841.567 315 840 316.498 840 318.346V328.382C840 330.23 841.567 331.728 843.5 331.728H962.5C964.433 331.728 966 330.23 966 328.382V318.346C966 316.498 964.433 315 962.5 315Z" fill="#E6ECF2"/>
<rect x="845.59" y="364.901" width="20.3368" height="15.885" rx="1" fill="#E2E8F0"/>
<rect x="881.18" y="364.9" width="137.273" height="15.885" rx="1" fill="#E2E8F0"/>
<rect x="1060.82" y="364.9" width="71.1787" height="15.885" rx="1" fill="#E2E8F0" fill-opacity="0.5"/>
<rect x="845.59" y="398.659" width="20.3368" height="15.885" rx="1" fill="#E2E8F0"/>
<rect x="880.639" y="398.658" width="131.947" height="15.8856" rx="1" fill="#E2E8F0"/>
<rect x="1060" y="398.658" width="59.7883" height="15.8856" rx="1" fill="#E2E8F0" fill-opacity="0.5"/>
<rect x="845.59" y="434.401" width="20.3368" height="15.885" rx="1" fill="#E2E8F0"/>
<rect x="880.639" y="434.4" width="121.638" height="15.8856" rx="1" fill="#E2E8F0"/>
<rect x="1060.82" y="434.4" width="71.1787" height="15.885" rx="1" fill="#E2E8F0" fill-opacity="0.5"/>
<rect x="845.59" y="474.115" width="20.3368" height="15.885" rx="1" fill="#E2E8F0"/>
<rect x="881.18" y="474.114" width="137.273" height="15.885" rx="1" fill="#E2E8F0"/>
<rect x="1060.82" y="474.114" width="71.1787" height="15.885" rx="1" fill="#E2E8F0" fill-opacity="0.5"/>
<path d="M191.406 105.95H59.6097C56.5768 105.95 54.1182 107.427 54.1182 109.25V112.55C54.1182 114.372 56.5768 115.85 59.6097 115.85H191.406C194.438 115.85 196.897 114.372 196.897 112.55V109.25C196.897 107.427 194.438 105.95 191.406 105.95Z" fill="#CBD5E1"/>
<path d="M191.406 285.95H59.6097C56.5768 285.95 54.1182 287.427 54.1182 289.25V292.55C54.1182 294.372 56.5768 295.85 59.6097 295.85H191.406C194.438 295.85 196.897 294.372 196.897 292.55V289.25C196.897 287.427 194.438 285.95 191.406 285.95Z" fill="#CBD5E1"/>
<rect x="28" y="101" width="19.1533" height="18.15" rx="1" fill="#CBD5E1"/>
<rect x="28" y="281" width="19.1533" height="18.15" rx="1" fill="#CBD5E1"/>
<rect x="28" y="191.75" width="19.1533" height="18.15" rx="1" fill="#CBD5E1"/>
<rect x="28" y="236.3" width="19.1533" height="18.15" rx="1" fill="#CBD5E1"/>
<path d="M114.77 150.5H59.632C56.5868 150.5 54.1182 151.977 54.1182 153.8V157.1C54.1182 158.923 56.5868 160.4 59.632 160.4H114.77C117.815 160.4 120.284 158.923 120.284 157.1V153.8C120.284 151.977 117.815 150.5 114.77 150.5Z" fill="#8585FF"/>
<rect x="28" y="147.2" width="19.1533" height="16.5" rx="1" fill="#8585FF"/>
<path d="M99.0026 195.05H59.7287C56.6301 195.05 54.1182 196.774 54.1182 198.9V202.75C54.1182 204.876 56.6301 206.6 59.7287 206.6H99.0026C102.101 206.6 104.613 204.876 104.613 202.75V198.9C104.613 196.774 102.101 195.05 99.0026 195.05Z" fill="#CBD5E1"/>
<path d="M154.742 241.25H59.7084C56.621 241.25 54.1182 242.727 54.1182 244.55V247.85C54.1182 249.672 56.621 251.15 59.7084 251.15H154.742C157.829 251.15 160.332 249.672 160.332 247.85V244.55C160.332 242.727 157.829 241.25 154.742 241.25Z" fill="#CBD5E1"/>
<rect x="1157.52" y="34.9717" width="85.5157" height="13.9718" rx="1" transform="rotate(-180 1157.52 34.9717)" fill="#CBD5E1"/>
<rect x="253" y="148" width="948" height="470" rx="5" stroke="#E2E8F0" stroke-width="2"/>
<line x1="4.37114e-08" y1="62.5" x2="1236" y2="62.5001" stroke="#E2E8F0"/>
<path d="M257.68 121V101.4H261.096V117.584H269.258V121H257.68ZM277.348 121.364C276.06 121.364 274.884 121.033 273.82 120.37C272.765 119.707 271.92 118.821 271.286 117.71C270.66 116.59 270.348 115.353 270.348 114C270.348 112.973 270.53 112.017 270.894 111.13C271.258 110.234 271.757 109.45 272.392 108.778C273.036 108.097 273.782 107.565 274.632 107.182C275.481 106.799 276.386 106.608 277.348 106.608C278.636 106.608 279.807 106.939 280.862 107.602C281.926 108.265 282.77 109.156 283.396 110.276C284.03 111.396 284.348 112.637 284.348 114C284.348 115.017 284.166 115.969 283.802 116.856C283.438 117.743 282.934 118.527 282.29 119.208C281.655 119.88 280.913 120.407 280.064 120.79C279.224 121.173 278.318 121.364 277.348 121.364ZM277.348 117.948C278.029 117.948 278.64 117.766 279.182 117.402C279.723 117.038 280.148 116.557 280.456 115.96C280.773 115.363 280.932 114.709 280.932 114C280.932 113.272 280.768 112.609 280.442 112.012C280.124 111.405 279.69 110.925 279.14 110.57C278.598 110.206 278.001 110.024 277.348 110.024C276.676 110.024 276.069 110.206 275.528 110.57C274.986 110.934 274.557 111.419 274.24 112.026C273.922 112.633 273.764 113.291 273.764 114C273.764 114.737 273.927 115.405 274.254 116.002C274.58 116.599 275.014 117.075 275.556 117.43C276.106 117.775 276.704 117.948 277.348 117.948ZM295.262 116.786L298.342 118.452C297.698 119.329 296.891 120.034 295.92 120.566C294.95 121.098 293.89 121.364 292.742 121.364C291.454 121.364 290.278 121.033 289.214 120.37C288.16 119.707 287.315 118.821 286.68 117.71C286.055 116.59 285.742 115.353 285.742 114C285.742 112.973 285.924 112.017 286.288 111.13C286.652 110.234 287.152 109.45 287.786 108.778C288.43 108.097 289.177 107.565 290.026 107.182C290.876 106.799 291.781 106.608 292.742 106.608C293.89 106.608 294.95 106.874 295.92 107.406C296.891 107.938 297.698 108.652 298.342 109.548L295.262 111.2C294.936 110.827 294.548 110.537 294.1 110.332C293.662 110.127 293.209 110.024 292.742 110.024C292.07 110.024 291.464 110.211 290.922 110.584C290.381 110.948 289.952 111.433 289.634 112.04C289.317 112.637 289.158 113.291 289.158 114C289.158 114.7 289.317 115.353 289.634 115.96C289.952 116.557 290.381 117.038 290.922 117.402C291.464 117.766 292.07 117.948 292.742 117.948C293.228 117.948 293.69 117.845 294.128 117.64C294.567 117.425 294.945 117.141 295.262 116.786ZM310.974 107H314.39V121H310.974L310.82 119.264C310.438 119.889 309.929 120.398 309.294 120.79C308.669 121.173 307.927 121.364 307.068 121.364C306.032 121.364 305.062 121.168 304.156 120.776C303.251 120.384 302.453 119.843 301.762 119.152C301.081 118.461 300.544 117.663 300.152 116.758C299.77 115.853 299.578 114.882 299.578 113.846C299.578 112.847 299.76 111.909 300.124 111.032C300.498 110.155 301.016 109.385 301.678 108.722C302.341 108.059 303.106 107.541 303.974 107.168C304.842 106.795 305.776 106.608 306.774 106.608C307.698 106.608 308.524 106.813 309.252 107.224C309.99 107.635 310.615 108.157 311.128 108.792L310.974 107ZM306.984 118.074C307.712 118.074 308.356 117.892 308.916 117.528C309.476 117.164 309.915 116.674 310.232 116.058C310.55 115.433 310.708 114.747 310.708 114C310.708 113.244 310.55 112.558 310.232 111.942C309.915 111.317 309.472 110.822 308.902 110.458C308.342 110.094 307.703 109.912 306.984 109.912C306.266 109.912 305.608 110.099 305.01 110.472C304.422 110.836 303.951 111.326 303.596 111.942C303.251 112.558 303.078 113.244 303.078 114C303.078 114.756 303.256 115.442 303.61 116.058C303.965 116.674 304.436 117.164 305.024 117.528C305.622 117.892 306.275 118.074 306.984 118.074ZM324.684 110.416H321.968V121H318.552V110.416H316.48V107H318.552V102.604H321.968V107H324.684V110.416ZM326.996 107H330.412V121H326.996V107ZM328.732 105.194C328.228 105.194 327.804 105.031 327.458 104.704C327.113 104.368 326.94 103.948 326.94 103.444C326.94 102.949 327.113 102.534 327.458 102.198C327.804 101.862 328.224 101.694 328.718 101.694C329.213 101.694 329.628 101.862 329.964 102.198C330.31 102.534 330.482 102.949 330.482 103.444C330.482 103.948 330.314 104.368 329.978 104.704C329.642 105.031 329.227 105.194 328.732 105.194ZM339.61 121.364C338.322 121.364 337.146 121.033 336.082 120.37C335.027 119.707 334.182 118.821 333.548 117.71C332.922 116.59 332.61 115.353 332.61 114C332.61 112.973 332.792 112.017 333.156 111.13C333.52 110.234 334.019 109.45 334.654 108.778C335.298 108.097 336.044 107.565 336.894 107.182C337.743 106.799 338.648 106.608 339.61 106.608C340.898 106.608 342.069 106.939 343.124 107.602C344.188 108.265 345.032 109.156 345.658 110.276C346.292 111.396 346.61 112.637 346.61 114C346.61 115.017 346.428 115.969 346.064 116.856C345.7 117.743 345.196 118.527 344.552 119.208C343.917 119.88 343.175 120.407 342.326 120.79C341.486 121.173 340.58 121.364 339.61 121.364ZM339.61 117.948C340.291 117.948 340.902 117.766 341.444 117.402C341.985 117.038 342.41 116.557 342.718 115.96C343.035 115.363 343.194 114.709 343.194 114C343.194 113.272 343.03 112.609 342.704 112.012C342.386 111.405 341.952 110.925 341.402 110.57C340.86 110.206 340.263 110.024 339.61 110.024C338.938 110.024 338.331 110.206 337.79 110.57C337.248 110.934 336.819 111.419 336.502 112.026C336.184 112.633 336.026 113.291 336.026 114C336.026 114.737 336.189 115.405 336.516 116.002C336.842 116.599 337.276 117.075 337.818 117.43C338.368 117.775 338.966 117.948 339.61 117.948ZM361.613 112.152V121H358.197V113.048C358.197 112.497 358.062 111.998 357.791 111.55C357.521 111.093 357.157 110.733 356.699 110.472C356.251 110.201 355.752 110.066 355.201 110.066C354.651 110.066 354.147 110.201 353.689 110.472C353.241 110.733 352.882 111.093 352.611 111.55C352.35 111.998 352.219 112.497 352.219 113.048V121H348.803L348.789 107H352.205L352.219 108.246C352.695 107.742 353.265 107.345 353.927 107.056C354.59 106.757 355.304 106.608 356.069 106.608C357.087 106.608 358.015 106.86 358.855 107.364C359.695 107.859 360.363 108.526 360.857 109.366C361.361 110.197 361.613 111.125 361.613 112.152ZM371.129 121V101.4H378.129C379.193 101.4 380.155 101.666 381.013 102.198C381.881 102.73 382.567 103.444 383.071 104.34C383.575 105.236 383.827 106.221 383.827 107.294C383.827 108.395 383.566 109.394 383.043 110.29C382.53 111.177 381.839 111.886 380.971 112.418C380.103 112.941 379.156 113.202 378.129 113.202H374.545V121H371.129ZM374.545 109.786H377.765C378.251 109.786 378.694 109.665 379.095 109.422C379.497 109.179 379.814 108.853 380.047 108.442C380.29 108.031 380.411 107.574 380.411 107.07C380.411 106.557 380.29 106.095 380.047 105.684C379.814 105.273 379.497 104.947 379.095 104.704C378.694 104.461 378.251 104.34 377.765 104.34H374.545V109.786ZM391.563 121.364C390.275 121.364 389.099 121.033 388.035 120.37C386.98 119.707 386.135 118.816 385.501 117.696C384.875 116.576 384.563 115.339 384.563 113.986C384.563 112.969 384.745 112.017 385.109 111.13C385.473 110.234 385.972 109.45 386.607 108.778C387.251 108.097 387.997 107.565 388.847 107.182C389.696 106.799 390.601 106.608 391.563 106.608C392.655 106.608 393.653 106.841 394.559 107.308C395.473 107.765 396.248 108.395 396.883 109.198C397.517 110.001 397.979 110.915 398.269 111.942C398.558 112.969 398.623 114.042 398.465 115.162H388.231C388.361 115.685 388.576 116.156 388.875 116.576C389.173 116.987 389.551 117.318 390.009 117.57C390.466 117.813 390.984 117.939 391.563 117.948C392.16 117.957 392.701 117.817 393.187 117.528C393.681 117.229 394.092 116.828 394.419 116.324L397.905 117.136C397.335 118.377 396.486 119.395 395.357 120.188C394.227 120.972 392.963 121.364 391.563 121.364ZM388.119 112.6H395.007C394.904 112.04 394.685 111.536 394.349 111.088C394.022 110.631 393.616 110.267 393.131 109.996C392.645 109.725 392.123 109.59 391.563 109.59C391.003 109.59 390.485 109.725 390.009 109.996C389.533 110.257 389.127 110.617 388.791 111.074C388.464 111.522 388.24 112.031 388.119 112.6ZM400.757 121L400.743 107H404.159L404.173 108.246C404.649 107.742 405.218 107.345 405.881 107.056C406.543 106.757 407.257 106.608 408.023 106.608C408.536 106.608 409.049 106.683 409.563 106.832L408.219 110.276C407.864 110.136 407.509 110.066 407.155 110.066C406.604 110.066 406.1 110.201 405.643 110.472C405.195 110.733 404.835 111.093 404.565 111.55C404.303 111.998 404.173 112.497 404.173 113.048V121H400.757ZM416.025 104.06V107H419.847V110.416H416.025V121H412.609V110.416H411.083V107H412.609V104.06C412.609 103.257 412.805 102.525 413.197 101.862C413.598 101.19 414.135 100.658 414.807 100.266C415.479 99.8647 416.221 99.664 417.033 99.664C417.621 99.664 418.204 99.7853 418.783 100.028C419.361 100.271 419.875 100.644 420.323 101.148L417.859 103.556C417.775 103.397 417.653 103.281 417.495 103.206C417.345 103.122 417.191 103.08 417.033 103.08C416.762 103.08 416.524 103.178 416.319 103.374C416.123 103.561 416.025 103.789 416.025 104.06ZM428.039 121.364C426.751 121.364 425.575 121.033 424.511 120.37C423.457 119.707 422.612 118.821 421.977 117.71C421.352 116.59 421.039 115.353 421.039 114C421.039 112.973 421.221 112.017 421.585 111.13C421.949 110.234 422.449 109.45 423.083 108.778C423.727 108.097 424.474 107.565 425.323 107.182C426.173 106.799 427.078 106.608 428.039 106.608C429.327 106.608 430.499 106.939 431.553 107.602C432.617 108.265 433.462 109.156 434.087 110.276C434.722 111.396 435.039 112.637 435.039 114C435.039 115.017 434.857 115.969 434.493 116.856C434.129 117.743 433.625 118.527 432.981 119.208C432.347 119.88 431.605 120.407 430.755 120.79C429.915 121.173 429.01 121.364 428.039 121.364ZM428.039 117.948C428.721 117.948 429.332 117.766 429.873 117.402C430.415 117.038 430.839 116.557 431.147 115.96C431.465 115.363 431.623 114.709 431.623 114C431.623 113.272 431.46 112.609 431.133 112.012C430.816 111.405 430.382 110.925 429.831 110.57C429.29 110.206 428.693 110.024 428.039 110.024C427.367 110.024 426.761 110.206 426.219 110.57C425.678 110.934 425.249 111.419 424.931 112.026C424.614 112.633 424.455 113.291 424.455 114C424.455 114.737 424.619 115.405 424.945 116.002C425.272 116.599 425.706 117.075 426.247 117.43C426.798 117.775 427.395 117.948 428.039 117.948ZM437.233 121L437.219 107H440.635L440.649 108.246C441.125 107.742 441.694 107.345 442.357 107.056C443.02 106.757 443.734 106.608 444.499 106.608C445.012 106.608 445.526 106.683 446.039 106.832L444.695 110.276C444.34 110.136 443.986 110.066 443.631 110.066C443.08 110.066 442.576 110.201 442.119 110.472C441.671 110.733 441.312 111.093 441.041 111.55C440.78 111.998 440.649 112.497 440.649 113.048V121H437.233ZM447.664 121V107H451.08V108.246C451.556 107.742 452.126 107.345 452.788 107.056C453.451 106.757 454.165 106.608 454.93 106.608C455.901 106.608 456.792 106.837 457.604 107.294C458.426 107.751 459.079 108.363 459.564 109.128C460.059 108.363 460.712 107.751 461.524 107.294C462.336 106.837 463.228 106.608 464.198 106.608C465.225 106.608 466.154 106.86 466.984 107.364C467.824 107.859 468.492 108.526 468.986 109.366C469.49 110.197 469.742 111.125 469.742 112.152V121H466.326V113.062C466.326 112.521 466.191 112.026 465.92 111.578C465.659 111.121 465.304 110.757 464.856 110.486C464.418 110.206 463.923 110.066 463.372 110.066C462.822 110.066 462.322 110.201 461.874 110.472C461.436 110.733 461.081 111.088 460.81 111.536C460.54 111.984 460.404 112.493 460.404 113.062V121H456.988V113.062C456.988 112.493 456.858 111.984 456.596 111.536C456.335 111.088 455.98 110.733 455.532 110.472C455.084 110.201 454.585 110.066 454.034 110.066C453.493 110.066 452.998 110.206 452.55 110.486C452.102 110.757 451.743 111.121 451.472 111.578C451.211 112.026 451.08 112.521 451.08 113.062V121H447.664ZM482.83 107H486.246V121H482.83L482.676 119.264C482.293 119.889 481.784 120.398 481.15 120.79C480.524 121.173 479.782 121.364 478.924 121.364C477.888 121.364 476.917 121.168 476.012 120.776C475.106 120.384 474.308 119.843 473.618 119.152C472.936 118.461 472.4 117.663 472.008 116.758C471.625 115.853 471.434 114.882 471.434 113.846C471.434 112.847 471.616 111.909 471.98 111.032C472.353 110.155 472.871 109.385 473.534 108.722C474.196 108.059 474.962 107.541 475.83 107.168C476.698 106.795 477.631 106.608 478.63 106.608C479.554 106.608 480.38 106.813 481.108 107.224C481.845 107.635 482.47 108.157 482.984 108.792L482.83 107ZM478.84 118.074C479.568 118.074 480.212 117.892 480.772 117.528C481.332 117.164 481.77 116.674 482.088 116.058C482.405 115.433 482.564 114.747 482.564 114C482.564 113.244 482.405 112.558 482.088 111.942C481.77 111.317 481.327 110.822 480.758 110.458C480.198 110.094 479.558 109.912 478.84 109.912C478.121 109.912 477.463 110.099 476.866 110.472C476.278 110.836 475.806 111.326 475.452 111.942C475.106 112.558 474.934 113.244 474.934 114C474.934 114.756 475.111 115.442 475.466 116.058C475.82 116.674 476.292 117.164 476.88 117.528C477.477 117.892 478.13 118.074 478.84 118.074ZM501.859 112.152V121H498.443V113.048C498.443 112.497 498.308 111.998 498.037 111.55C497.767 111.093 497.403 110.733 496.945 110.472C496.497 110.201 495.998 110.066 495.447 110.066C494.897 110.066 494.393 110.201 493.935 110.472C493.487 110.733 493.128 111.093 492.857 111.55C492.596 111.998 492.465 112.497 492.465 113.048V121H489.049L489.035 107H492.451L492.465 108.246C492.941 107.742 493.511 107.345 494.173 107.056C494.836 106.757 495.55 106.608 496.315 106.608C497.333 106.608 498.261 106.86 499.101 107.364C499.941 107.859 500.609 108.526 501.103 109.366C501.607 110.197 501.859 111.125 501.859 112.152ZM513.055 116.786L516.135 118.452C515.491 119.329 514.684 120.034 513.713 120.566C512.743 121.098 511.683 121.364 510.535 121.364C509.247 121.364 508.071 121.033 507.007 120.37C505.953 119.707 505.108 118.821 504.473 117.71C503.848 116.59 503.535 115.353 503.535 114C503.535 112.973 503.717 112.017 504.081 111.13C504.445 110.234 504.945 109.45 505.579 108.778C506.223 108.097 506.97 107.565 507.819 107.182C508.669 106.799 509.574 106.608 510.535 106.608C511.683 106.608 512.743 106.874 513.713 107.406C514.684 107.938 515.491 108.652 516.135 109.548L513.055 111.2C512.729 110.827 512.341 110.537 511.893 110.332C511.455 110.127 511.002 110.024 510.535 110.024C509.863 110.024 509.257 110.211 508.715 110.584C508.174 110.948 507.745 111.433 507.427 112.04C507.11 112.637 506.951 113.291 506.951 114C506.951 114.7 507.11 115.353 507.427 115.96C507.745 116.557 508.174 117.038 508.715 117.402C509.257 117.766 509.863 117.948 510.535 117.948C511.021 117.948 511.483 117.845 511.921 117.64C512.36 117.425 512.738 117.141 513.055 116.786ZM524.371 121.364C523.083 121.364 521.907 121.033 520.843 120.37C519.789 119.707 518.944 118.816 518.309 117.696C517.684 116.576 517.371 115.339 517.371 113.986C517.371 112.969 517.553 112.017 517.917 111.13C518.281 110.234 518.781 109.45 519.415 108.778C520.059 108.097 520.806 107.565 521.655 107.182C522.505 106.799 523.41 106.608 524.371 106.608C525.463 106.608 526.462 106.841 527.367 107.308C528.282 107.765 529.057 108.395 529.691 109.198C530.326 110.001 530.788 110.915 531.077 111.942C531.367 112.969 531.432 114.042 531.273 115.162H521.039C521.17 115.685 521.385 116.156 521.683 116.576C521.982 116.987 522.36 117.318 522.817 117.57C523.275 117.813 523.793 117.939 524.371 117.948C524.969 117.957 525.51 117.817 525.995 117.528C526.49 117.229 526.901 116.828 527.227 116.324L530.713 117.136C530.144 118.377 529.295 119.395 528.165 120.188C527.036 120.972 525.771 121.364 524.371 121.364ZM520.927 112.6H527.815C527.713 112.04 527.493 111.536 527.157 111.088C526.831 110.631 526.425 110.267 525.939 109.996C525.454 109.725 524.931 109.59 524.371 109.59C523.811 109.59 523.293 109.725 522.817 109.996C522.341 110.257 521.935 110.617 521.599 111.074C521.273 111.522 521.049 112.031 520.927 112.6Z" fill="#18303F" fill-opacity="0.6"/>
<path d="M307.247 593V579H309.887L315.797 588.59V579H318.237V593H315.607L309.687 583.41V593H307.247ZM320.645 593V579H325.645C326.405 579 327.092 579.19 327.705 579.57C328.325 579.95 328.815 580.46 329.175 581.1C329.535 581.74 329.715 582.443 329.715 583.21C329.715 583.997 329.529 584.71 329.155 585.35C328.789 585.983 328.295 586.49 327.675 586.87C327.055 587.243 326.379 587.43 325.645 587.43H323.085V593H320.645ZM323.085 584.99H325.385C325.732 584.99 326.049 584.903 326.335 584.73C326.622 584.557 326.849 584.323 327.015 584.03C327.189 583.737 327.275 583.41 327.275 583.05C327.275 582.683 327.189 582.353 327.015 582.06C326.849 581.767 326.622 581.533 326.335 581.36C326.049 581.187 325.732 581.1 325.385 581.1H323.085V584.99ZM336.76 593.26C335.986 593.26 335.243 593.14 334.53 592.9C333.823 592.653 333.203 592.303 332.67 591.85C332.136 591.39 331.753 590.84 331.52 590.2L333.81 589.36C333.903 589.627 334.093 589.87 334.38 590.09C334.666 590.31 335.016 590.487 335.43 590.62C335.843 590.753 336.286 590.82 336.76 590.82C337.246 590.82 337.7 590.747 338.12 590.6C338.546 590.447 338.89 590.237 339.15 589.97C339.41 589.697 339.54 589.38 339.54 589.02C339.54 588.653 339.403 588.353 339.13 588.12C338.856 587.88 338.506 587.69 338.08 587.55C337.653 587.41 337.213 587.303 336.76 587.23C335.766 587.077 334.876 586.84 334.09 586.52C333.303 586.2 332.68 585.757 332.22 585.19C331.766 584.623 331.54 583.89 331.54 582.99C331.54 582.143 331.783 581.403 332.27 580.77C332.756 580.137 333.396 579.643 334.19 579.29C334.983 578.937 335.84 578.76 336.76 578.76C337.526 578.76 338.266 578.88 338.98 579.12C339.693 579.36 340.316 579.71 340.85 580.17C341.39 580.63 341.776 581.183 342.01 581.83L339.71 582.66C339.616 582.393 339.426 582.15 339.14 581.93C338.853 581.71 338.503 581.537 338.09 581.41C337.676 581.277 337.233 581.21 336.76 581.21C336.286 581.203 335.836 581.28 335.41 581.44C334.99 581.593 334.646 581.803 334.38 582.07C334.113 582.337 333.98 582.643 333.98 582.99C333.98 583.437 334.103 583.773 334.35 584C334.603 584.227 334.94 584.393 335.36 584.5C335.78 584.6 336.246 584.693 336.76 584.78C337.693 584.927 338.556 585.173 339.35 585.52C340.143 585.867 340.78 586.33 341.26 586.91C341.74 587.483 341.98 588.187 341.98 589.02C341.98 589.867 341.74 590.61 341.26 591.25C340.78 591.883 340.143 592.377 339.35 592.73C338.556 593.083 337.693 593.26 336.76 593.26Z" fill="#18303F" fill-opacity="0.6"/>
<path d="M568.009 593V579H576.789V581.44H570.449V584.28H575.479V586.72H570.449V590.56H576.789V593H568.009ZM581.815 580.9V583H584.545V585.44H581.815V593H579.375V585.44H578.285V583H579.375V580.9C579.375 580.327 579.515 579.803 579.795 579.33C580.082 578.85 580.465 578.47 580.945 578.19C581.425 577.903 581.955 577.76 582.535 577.76C582.955 577.76 583.372 577.847 583.785 578.02C584.198 578.193 584.565 578.46 584.885 578.82L583.125 580.54C583.065 580.427 582.978 580.343 582.865 580.29C582.758 580.23 582.648 580.2 582.535 580.2C582.342 580.2 582.172 580.27 582.025 580.41C581.885 580.543 581.815 580.707 581.815 580.9ZM589.198 580.9V583H591.928V585.44H589.198V593H586.758V585.44H585.668V583H586.758V580.9C586.758 580.327 586.898 579.803 587.178 579.33C587.465 578.85 587.848 578.47 588.328 578.19C588.808 577.903 589.338 577.76 589.918 577.76C590.338 577.76 590.755 577.847 591.168 578.02C591.581 578.193 591.948 578.46 592.268 578.82L590.508 580.54C590.448 580.427 590.361 580.343 590.248 580.29C590.141 580.23 590.031 580.2 589.918 580.2C589.725 580.2 589.555 580.27 589.408 580.41C589.268 580.543 589.198 580.707 589.198 580.9ZM597.78 593.26C596.86 593.26 596.02 593.023 595.26 592.55C594.506 592.077 593.903 591.443 593.45 590.65C593.003 589.85 592.78 588.967 592.78 588C592.78 587.267 592.91 586.583 593.17 585.95C593.43 585.31 593.786 584.75 594.24 584.27C594.7 583.783 595.233 583.403 595.84 583.13C596.446 582.857 597.093 582.72 597.78 582.72C598.7 582.72 599.536 582.957 600.29 583.43C601.05 583.903 601.653 584.54 602.1 585.34C602.553 586.14 602.78 587.027 602.78 588C602.78 588.727 602.65 589.407 602.39 590.04C602.13 590.673 601.77 591.233 601.31 591.72C600.856 592.2 600.326 592.577 599.72 592.85C599.12 593.123 598.473 593.26 597.78 593.26ZM597.78 590.82C598.266 590.82 598.703 590.69 599.09 590.43C599.476 590.17 599.78 589.827 600 589.4C600.226 588.973 600.34 588.507 600.34 588C600.34 587.48 600.223 587.007 599.99 586.58C599.763 586.147 599.453 585.803 599.06 585.55C598.673 585.29 598.246 585.16 597.78 585.16C597.3 585.16 596.866 585.29 596.48 585.55C596.093 585.81 595.786 586.157 595.56 586.59C595.333 587.023 595.22 587.493 595.22 588C595.22 588.527 595.336 589.003 595.57 589.43C595.803 589.857 596.113 590.197 596.5 590.45C596.893 590.697 597.32 590.82 597.78 590.82ZM604.347 593L604.337 583H606.777L606.787 583.89C607.127 583.53 607.533 583.247 608.007 583.04C608.48 582.827 608.99 582.72 609.537 582.72C609.903 582.72 610.27 582.773 610.637 582.88L609.677 585.34C609.423 585.24 609.17 585.19 608.917 585.19C608.523 585.19 608.163 585.287 607.837 585.48C607.517 585.667 607.26 585.923 607.067 586.25C606.88 586.57 606.787 586.927 606.787 587.32V593H604.347ZM617.392 585.44H615.452V593H613.012V585.44H611.532V583H613.012V579.86H615.452V583H617.392V585.44Z" fill="#18303F" fill-opacity="0.6"/>
<path d="M419.994 593.26C419.221 593.26 418.477 593.14 417.764 592.9C417.057 592.653 416.437 592.303 415.904 591.85C415.371 591.39 414.987 590.84 414.754 590.2L417.044 589.36C417.137 589.627 417.327 589.87 417.614 590.09C417.901 590.31 418.251 590.487 418.664 590.62C419.077 590.753 419.521 590.82 419.994 590.82C420.481 590.82 420.934 590.747 421.354 590.6C421.781 590.447 422.124 590.237 422.384 589.97C422.644 589.697 422.774 589.38 422.774 589.02C422.774 588.653 422.637 588.353 422.364 588.12C422.091 587.88 421.741 587.69 421.314 587.55C420.887 587.41 420.447 587.303 419.994 587.23C419.001 587.077 418.111 586.84 417.324 586.52C416.537 586.2 415.914 585.757 415.454 585.19C415.001 584.623 414.774 583.89 414.774 582.99C414.774 582.143 415.017 581.403 415.504 580.77C415.991 580.137 416.631 579.643 417.424 579.29C418.217 578.937 419.074 578.76 419.994 578.76C420.761 578.76 421.501 578.88 422.214 579.12C422.927 579.36 423.551 579.71 424.084 580.17C424.624 580.63 425.011 581.183 425.244 581.83L422.944 582.66C422.851 582.393 422.661 582.15 422.374 581.93C422.087 581.71 421.737 581.537 421.324 581.41C420.911 581.277 420.467 581.21 419.994 581.21C419.521 581.203 419.071 581.28 418.644 581.44C418.224 581.593 417.881 581.803 417.614 582.07C417.347 582.337 417.214 582.643 417.214 582.99C417.214 583.437 417.337 583.773 417.584 584C417.837 584.227 418.174 584.393 418.594 584.5C419.014 584.6 419.481 584.693 419.994 584.78C420.927 584.927 421.791 585.173 422.584 585.52C423.377 585.867 424.014 586.33 424.494 586.91C424.974 587.483 425.214 588.187 425.214 589.02C425.214 589.867 424.974 590.61 424.494 591.25C424.014 591.883 423.377 592.377 422.584 592.73C421.791 593.083 420.927 593.26 419.994 593.26ZM434.662 583H437.102V593H434.662L434.552 591.76C434.279 592.207 433.915 592.57 433.462 592.85C433.015 593.123 432.485 593.26 431.872 593.26C431.132 593.26 430.439 593.12 429.792 592.84C429.145 592.56 428.575 592.173 428.082 591.68C427.595 591.187 427.212 590.617 426.932 589.97C426.659 589.323 426.522 588.63 426.522 587.89C426.522 587.177 426.652 586.507 426.912 585.88C427.179 585.253 427.549 584.703 428.022 584.23C428.495 583.757 429.042 583.387 429.662 583.12C430.282 582.853 430.949 582.72 431.662 582.72C432.322 582.72 432.912 582.867 433.432 583.16C433.959 583.453 434.405 583.827 434.772 584.28L434.662 583ZM431.812 590.91C432.332 590.91 432.792 590.78 433.192 590.52C433.592 590.26 433.905 589.91 434.132 589.47C434.359 589.023 434.472 588.533 434.472 588C434.472 587.46 434.359 586.97 434.132 586.53C433.905 586.083 433.589 585.73 433.182 585.47C432.782 585.21 432.325 585.08 431.812 585.08C431.299 585.08 430.829 585.213 430.402 585.48C429.982 585.74 429.645 586.09 429.392 586.53C429.145 586.97 429.022 587.46 429.022 588C429.022 588.54 429.149 589.03 429.402 589.47C429.655 589.91 429.992 590.26 430.412 590.52C430.839 590.78 431.305 590.91 431.812 590.91ZM444.455 585.44H442.515V593H440.075V585.44H438.595V583H440.075V579.86H442.515V583H444.455V585.44ZM446.106 583H448.546V593H446.106V583ZM447.346 581.71C446.986 581.71 446.683 581.593 446.436 581.36C446.19 581.12 446.066 580.82 446.066 580.46C446.066 580.107 446.19 579.81 446.436 579.57C446.683 579.33 446.983 579.21 447.336 579.21C447.69 579.21 447.986 579.33 448.226 579.57C448.473 579.81 448.596 580.107 448.596 580.46C448.596 580.82 448.476 581.12 448.236 581.36C447.996 581.593 447.7 581.71 447.346 581.71ZM453.744 593.18C453.224 593.147 452.72 593.043 452.234 592.87C451.754 592.69 451.327 592.447 450.954 592.14C450.58 591.833 450.294 591.467 450.094 591.04L452.154 590.16C452.234 590.293 452.364 590.437 452.544 590.59C452.724 590.737 452.937 590.86 453.184 590.96C453.437 591.06 453.714 591.11 454.014 591.11C454.267 591.11 454.507 591.077 454.734 591.01C454.967 590.937 455.154 590.827 455.294 590.68C455.44 590.533 455.514 590.343 455.514 590.11C455.514 589.863 455.427 589.673 455.254 589.54C455.087 589.4 454.874 589.297 454.614 589.23C454.36 589.157 454.114 589.09 453.874 589.03C453.24 588.903 452.65 588.707 452.104 588.44C451.564 588.173 451.127 587.83 450.794 587.41C450.467 586.983 450.304 586.47 450.304 585.87C450.304 585.21 450.477 584.64 450.824 584.16C451.177 583.68 451.634 583.31 452.194 583.05C452.76 582.79 453.37 582.66 454.024 582.66C454.817 582.66 455.544 582.827 456.204 583.16C456.87 583.487 457.397 583.95 457.784 584.55L455.854 585.69C455.76 585.53 455.63 585.383 455.464 585.25C455.297 585.11 455.107 584.997 454.894 584.91C454.68 584.817 454.457 584.763 454.224 584.75C453.924 584.737 453.65 584.763 453.404 584.83C453.157 584.897 452.957 585.01 452.804 585.17C452.657 585.33 452.584 585.543 452.584 585.81C452.584 586.063 452.684 586.253 452.884 586.38C453.084 586.5 453.324 586.593 453.604 586.66C453.89 586.727 454.164 586.8 454.424 586.88C455.01 587.073 455.56 587.31 456.074 587.59C456.594 587.87 457.01 588.213 457.324 588.62C457.637 589.027 457.787 589.513 457.774 590.08C457.774 590.727 457.58 591.293 457.194 591.78C456.807 592.26 456.307 592.627 455.694 592.88C455.087 593.133 454.437 593.233 453.744 593.18ZM462.315 580.9V583H465.045V585.44H462.315V593H459.875V585.44H458.785V583H459.875V580.9C459.875 580.327 460.015 579.803 460.295 579.33C460.582 578.85 460.965 578.47 461.445 578.19C461.925 577.903 462.455 577.76 463.035 577.76C463.455 577.76 463.872 577.847 464.285 578.02C464.698 578.193 465.065 578.46 465.385 578.82L463.625 580.54C463.565 580.427 463.478 580.343 463.365 580.29C463.258 580.23 463.148 580.2 463.035 580.2C462.842 580.2 462.672 580.27 462.525 580.41C462.385 580.543 462.315 580.707 462.315 580.9ZM474.037 583H476.477V593H474.037L473.927 591.76C473.654 592.207 473.29 592.57 472.837 592.85C472.39 593.123 471.86 593.26 471.247 593.26C470.507 593.26 469.814 593.12 469.167 592.84C468.52 592.56 467.95 592.173 467.457 591.68C466.97 591.187 466.587 590.617 466.307 589.97C466.034 589.323 465.897 588.63 465.897 587.89C465.897 587.177 466.027 586.507 466.287 585.88C466.554 585.253 466.924 584.703 467.397 584.23C467.87 583.757 468.417 583.387 469.037 583.12C469.657 582.853 470.324 582.72 471.037 582.72C471.697 582.72 472.287 582.867 472.807 583.16C473.334 583.453 473.78 583.827 474.147 584.28L474.037 583ZM471.187 590.91C471.707 590.91 472.167 590.78 472.567 590.52C472.967 590.26 473.28 589.91 473.507 589.47C473.734 589.023 473.847 588.533 473.847 588C473.847 587.46 473.734 586.97 473.507 586.53C473.28 586.083 472.964 585.73 472.557 585.47C472.157 585.21 471.7 585.08 471.187 585.08C470.674 585.08 470.204 585.213 469.777 585.48C469.357 585.74 469.02 586.09 468.767 586.53C468.52 586.97 468.397 587.46 468.397 588C468.397 588.54 468.524 589.03 468.777 589.47C469.03 589.91 469.367 590.26 469.787 590.52C470.214 590.78 470.68 590.91 471.187 590.91ZM484.474 589.99L486.674 591.18C486.214 591.807 485.638 592.31 484.944 592.69C484.251 593.07 483.494 593.26 482.674 593.26C481.754 593.26 480.914 593.023 480.154 592.55C479.401 592.077 478.798 591.443 478.344 590.65C477.898 589.85 477.674 588.967 477.674 588C477.674 587.267 477.804 586.583 478.064 585.95C478.324 585.31 478.681 584.75 479.134 584.27C479.594 583.783 480.128 583.403 480.734 583.13C481.341 582.857 481.988 582.72 482.674 582.72C483.494 582.72 484.251 582.91 484.944 583.29C485.638 583.67 486.214 584.18 486.674 584.82L484.474 586C484.241 585.733 483.964 585.527 483.644 585.38C483.331 585.233 483.008 585.16 482.674 585.16C482.194 585.16 481.761 585.293 481.374 585.56C480.988 585.82 480.681 586.167 480.454 586.6C480.228 587.027 480.114 587.493 480.114 588C480.114 588.5 480.228 588.967 480.454 589.4C480.681 589.827 480.988 590.17 481.374 590.43C481.761 590.69 482.194 590.82 482.674 590.82C483.021 590.82 483.351 590.747 483.664 590.6C483.978 590.447 484.248 590.243 484.474 589.99ZM493.83 585.44H491.89V593H489.45V585.44H487.97V583H489.45V579.86H491.89V583H493.83V585.44ZM495.481 583H497.921V593H495.481V583ZM496.721 581.71C496.361 581.71 496.058 581.593 495.811 581.36C495.565 581.12 495.441 580.82 495.441 580.46C495.441 580.107 495.565 579.81 495.811 579.57C496.058 579.33 496.358 579.21 496.711 579.21C497.065 579.21 497.361 579.33 497.601 579.57C497.848 579.81 497.971 580.107 497.971 580.46C497.971 580.82 497.851 581.12 497.611 581.36C497.371 581.593 497.075 581.71 496.721 581.71ZM504.491 593.26C503.571 593.26 502.731 593.023 501.971 592.55C501.217 592.077 500.614 591.443 500.161 590.65C499.714 589.85 499.491 588.967 499.491 588C499.491 587.267 499.621 586.583 499.881 585.95C500.141 585.31 500.497 584.75 500.951 584.27C501.411 583.783 501.944 583.403 502.551 583.13C503.157 582.857 503.804 582.72 504.491 582.72C505.411 582.72 506.247 582.957 507.001 583.43C507.761 583.903 508.364 584.54 508.811 585.34C509.264 586.14 509.491 587.027 509.491 588C509.491 588.727 509.361 589.407 509.101 590.04C508.841 590.673 508.481 591.233 508.021 591.72C507.567 592.2 507.037 592.577 506.431 592.85C505.831 593.123 505.184 593.26 504.491 593.26ZM504.491 590.82C504.977 590.82 505.414 590.69 505.801 590.43C506.187 590.17 506.491 589.827 506.711 589.4C506.937 588.973 507.051 588.507 507.051 588C507.051 587.48 506.934 587.007 506.701 586.58C506.474 586.147 506.164 585.803 505.771 585.55C505.384 585.29 504.957 585.16 504.491 585.16C504.011 585.16 503.577 585.29 503.191 585.55C502.804 585.81 502.497 586.157 502.271 586.59C502.044 587.023 501.931 587.493 501.931 588C501.931 588.527 502.047 589.003 502.281 589.43C502.514 589.857 502.824 590.197 503.211 590.45C503.604 590.697 504.031 590.82 504.491 590.82ZM520.208 586.68V593H517.768V587.32C517.768 586.927 517.671 586.57 517.478 586.25C517.284 585.923 517.024 585.667 516.698 585.48C516.378 585.287 516.021 585.19 515.628 585.19C515.234 585.19 514.874 585.287 514.548 585.48C514.228 585.667 513.971 585.923 513.778 586.25C513.591 586.57 513.498 586.927 513.498 587.32V593H511.058L511.048 583H513.488L513.498 583.89C513.838 583.53 514.244 583.247 514.718 583.04C515.191 582.827 515.701 582.72 516.248 582.72C516.974 582.72 517.638 582.9 518.238 583.26C518.838 583.613 519.314 584.09 519.668 584.69C520.028 585.283 520.208 585.947 520.208 586.68Z" fill="#18303F" fill-opacity="0.6"/>
<path d="M683.088 593.26C682.314 593.26 681.571 593.14 680.858 592.9C680.151 592.653 679.531 592.303 678.998 591.85C678.464 591.39 678.081 590.84 677.848 590.2L680.138 589.36C680.231 589.627 680.421 589.87 680.708 590.09C680.994 590.31 681.344 590.487 681.758 590.62C682.171 590.753 682.614 590.82 683.088 590.82C683.574 590.82 684.028 590.747 684.448 590.6C684.874 590.447 685.218 590.237 685.478 589.97C685.738 589.697 685.868 589.38 685.868 589.02C685.868 588.653 685.731 588.353 685.458 588.12C685.184 587.88 684.834 587.69 684.408 587.55C683.981 587.41 683.541 587.303 683.088 587.23C682.094 587.077 681.204 586.84 680.418 586.52C679.631 586.2 679.008 585.757 678.548 585.19C678.094 584.623 677.868 583.89 677.868 582.99C677.868 582.143 678.111 581.403 678.598 580.77C679.084 580.137 679.724 579.643 680.518 579.29C681.311 578.937 682.168 578.76 683.088 578.76C683.854 578.76 684.594 578.88 685.308 579.12C686.021 579.36 686.644 579.71 687.178 580.17C687.718 580.63 688.104 581.183 688.338 581.83L686.038 582.66C685.944 582.393 685.754 582.15 685.468 581.93C685.181 581.71 684.831 581.537 684.418 581.41C684.004 581.277 683.561 581.21 683.088 581.21C682.614 581.203 682.164 581.28 681.738 581.44C681.318 581.593 680.974 581.803 680.708 582.07C680.441 582.337 680.308 582.643 680.308 582.99C680.308 583.437 680.431 583.773 680.678 584C680.931 584.227 681.268 584.393 681.688 584.5C682.108 584.6 682.574 584.693 683.088 584.78C684.021 584.927 684.884 585.173 685.678 585.52C686.471 585.867 687.108 586.33 687.588 586.91C688.068 587.483 688.308 588.187 688.308 589.02C688.308 589.867 688.068 590.61 687.588 591.25C687.108 591.883 686.471 592.377 685.678 592.73C684.884 593.083 684.021 593.26 683.088 593.26ZM696.416 589.99L698.616 591.18C698.156 591.807 697.579 592.31 696.886 592.69C696.192 593.07 695.436 593.26 694.616 593.26C693.696 593.26 692.856 593.023 692.096 592.55C691.342 592.077 690.739 591.443 690.286 590.65C689.839 589.85 689.616 588.967 689.616 588C689.616 587.267 689.746 586.583 690.006 585.95C690.266 585.31 690.622 584.75 691.076 584.27C691.536 583.783 692.069 583.403 692.676 583.13C693.282 582.857 693.929 582.72 694.616 582.72C695.436 582.72 696.192 582.91 696.886 583.29C697.579 583.67 698.156 584.18 698.616 584.82L696.416 586C696.182 585.733 695.906 585.527 695.586 585.38C695.272 585.233 694.949 585.16 694.616 585.16C694.136 585.16 693.702 585.293 693.316 585.56C692.929 585.82 692.622 586.167 692.396 586.6C692.169 587.027 692.056 587.493 692.056 588C692.056 588.5 692.169 588.967 692.396 589.4C692.622 589.827 692.929 590.17 693.316 590.43C693.702 590.69 694.136 590.82 694.616 590.82C694.962 590.82 695.292 590.747 695.606 590.6C695.919 590.447 696.189 590.243 696.416 589.99ZM704.498 593.26C703.578 593.26 702.738 593.023 701.978 592.55C701.225 592.077 700.622 591.443 700.168 590.65C699.722 589.85 699.498 588.967 699.498 588C699.498 587.267 699.628 586.583 699.888 585.95C700.148 585.31 700.505 584.75 700.958 584.27C701.418 583.783 701.952 583.403 702.558 583.13C703.165 582.857 703.812 582.72 704.498 582.72C705.418 582.72 706.255 582.957 707.008 583.43C707.768 583.903 708.372 584.54 708.818 585.34C709.272 586.14 709.498 587.027 709.498 588C709.498 588.727 709.368 589.407 709.108 590.04C708.848 590.673 708.488 591.233 708.028 591.72C707.575 592.2 707.045 592.577 706.438 592.85C705.838 593.123 705.192 593.26 704.498 593.26ZM704.498 590.82C704.985 590.82 705.422 590.69 705.808 590.43C706.195 590.17 706.498 589.827 706.718 589.4C706.945 588.973 707.058 588.507 707.058 588C707.058 587.48 706.942 587.007 706.708 586.58C706.482 586.147 706.172 585.803 705.778 585.55C705.392 585.29 704.965 585.16 704.498 585.16C704.018 585.16 703.585 585.29 703.198 585.55C702.812 585.81 702.505 586.157 702.278 586.59C702.052 587.023 701.938 587.493 701.938 588C701.938 588.527 702.055 589.003 702.288 589.43C702.522 589.857 702.832 590.197 703.218 590.45C703.612 590.697 704.038 590.82 704.498 590.82ZM711.065 593L711.055 583H713.495L713.505 583.89C713.845 583.53 714.252 583.247 714.725 583.04C715.199 582.827 715.709 582.72 716.255 582.72C716.622 582.72 716.989 582.773 717.355 582.88L716.395 585.34C716.142 585.24 715.889 585.19 715.635 585.19C715.242 585.19 714.882 585.287 714.555 585.48C714.235 585.667 713.979 585.923 713.785 586.25C713.599 586.57 713.505 586.927 713.505 587.32V593H711.065ZM722.409 593.26C721.489 593.26 720.649 593.023 719.889 592.55C719.135 592.077 718.532 591.44 718.079 590.64C717.632 589.84 717.409 588.957 717.409 587.99C717.409 587.263 717.539 586.583 717.799 585.95C718.059 585.31 718.415 584.75 718.869 584.27C719.329 583.783 719.862 583.403 720.469 583.13C721.075 582.857 721.722 582.72 722.409 582.72C723.189 582.72 723.902 582.887 724.549 583.22C725.202 583.547 725.755 583.997 726.209 584.57C726.662 585.143 726.992 585.797 727.199 586.53C727.405 587.263 727.452 588.03 727.339 588.83H720.029C720.122 589.203 720.275 589.54 720.489 589.84C720.702 590.133 720.972 590.37 721.299 590.55C721.625 590.723 721.995 590.813 722.409 590.82C722.835 590.827 723.222 590.727 723.569 590.52C723.922 590.307 724.215 590.02 724.449 589.66L726.939 590.24C726.532 591.127 725.925 591.853 725.119 592.42C724.312 592.98 723.409 593.26 722.409 593.26ZM719.949 587H724.869C724.795 586.6 724.639 586.24 724.399 585.92C724.165 585.593 723.875 585.333 723.529 585.14C723.182 584.947 722.809 584.85 722.409 584.85C722.009 584.85 721.639 584.947 721.299 585.14C720.959 585.327 720.669 585.583 720.429 585.91C720.195 586.23 720.035 586.593 719.949 587Z" fill="#18303F" fill-opacity="0.6"/>
<rect x="293" y="554" width="132" height="26" rx="5.57327" transform="rotate(-90 293 554)" fill="#CEDDE9"/>
<rect x="555" y="554" width="132" height="25" rx="5.57327" transform="rotate(-90 555 554)" fill="#CEDDE9"/>
<rect x="425" y="555" width="132" height="26" rx="5.57327" transform="rotate(-90 425 555)" fill="#CEDDE9"/>
<rect x="668" y="554" width="132" height="26" rx="5.57327" transform="rotate(-90 668 554)" fill="#CEDDE9"/>
<rect x="340" y="554" width="138" height="23" rx="5.57327" transform="rotate(-90 340 554)" fill="#33B6FF"/>
<rect x="601" y="554" width="107" height="23" rx="5.57327" transform="rotate(-90 601 554)" fill="#EB90C6"/>
<rect x="472" y="555" width="223" height="23" rx="5.57327" transform="rotate(-90 472 555)" fill="#33B6FF"/>
<rect x="715" y="554" width="223" height="23" rx="5.57327" transform="rotate(-90 715 554)" fill="#33B6FF"/>
<path d="M378.209 178H277.949C276.32 178 275 179.32 275 180.949V189.795C275 191.424 276.32 192.744 277.949 192.744H378.209C379.837 192.744 381.157 191.424 381.157 189.795V180.949C381.157 179.32 379.837 178 378.209 178Z" fill="#E6ECF2"/>
<path d="M461.667 209H280.333C277.388 209 275 210.343 275 212V221C275 222.657 277.388 224 280.333 224H461.667C464.612 224 467 222.657 467 221V212C467 210.343 464.612 209 461.667 209Z" fill="#E6ECF2" fill-opacity="0.4"/>
<line x1="252" y1="265.5" x2="1202" y2="265.5" stroke="#CEDDE9"/>
<path d="M88.8201 30.1032L94.1849 29.902L89.6833 44.7355H99.309L103.809 29.902L109.053 30.1032L111.19 23.0602H90.9553L88.8201 30.1032ZM68.8894 33.9546C67.5433 40.9101 60.1688 45.0795 52.0889 45.0795C44.0097 45.0795 38.2473 40.9109 39.5934 33.9546C40.9111 27.1411 48.3716 22.7153 56.416 22.7153C64.4596 22.7153 70.2071 27.1419 68.8894 33.9546ZM49.2656 34.0698C48.7882 36.5419 50.4981 38.2384 53.4121 38.2384C56.3277 38.2384 58.6932 36.5427 59.1714 34.0698C59.6164 31.7705 58.092 29.8452 55.036 29.8452C51.98 29.8436 49.7106 31.7705 49.2656 34.0698Z" fill="#E31837"/>
<path d="M65.8983 43.0958C68.645 44.3306 72.3646 45.0794 75.7015 45.0794C81.4277 45.0794 87.6833 42.5213 88.6838 37.3467C89.3956 33.6673 86.7909 31.8849 82.8598 31.1376L80.7594 30.7352C80.0492 30.5908 78.8775 30.4764 79.0329 29.6708C79.2049 28.78 80.4848 28.5203 81.3283 28.5203C83.3995 28.5203 85.1236 29.2392 86.596 30.1592L90.2683 24.6114C87.9185 23.3181 85.2609 22.7153 82.2396 22.7153C76.4788 22.7153 70.1963 25.5898 69.2013 30.7352C68.5448 34.1274 71.3562 35.9383 75.0087 36.4851L76.8851 36.7715C77.7357 36.9167 78.984 37.0019 78.7946 37.9787C78.6053 38.9556 77.0343 39.272 76.085 39.272C73.8717 39.272 71.9717 38.3812 70.4622 37.2891L70.0322 36.9727L65.8983 43.0958V43.0958ZM129.926 23.6061C128.001 23.0309 125.813 22.7153 123.634 22.7153C115.871 22.7153 108.816 27.7747 107.592 34.099C106.396 40.2796 111.369 45.0802 118.922 45.0802C120.642 45.0802 124.275 44.8214 125.939 44.2178L127.789 36.1118C126.002 37.3475 124.097 38.1239 121.884 38.1239C119.005 38.1239 116.866 36.2839 117.328 33.8993C117.784 31.5416 120.5 29.6739 123.38 29.6739C125.558 29.6739 127.295 30.68 128.614 31.8596L129.926 23.6061V23.6061ZM145.338 22.7153C137.294 22.7153 129.834 27.1411 128.515 33.9546C127.17 40.9101 132.932 45.0794 141.012 45.0794C149.091 45.0794 156.467 40.9109 157.812 33.9546C159.128 27.1419 153.381 22.7153 145.338 22.7153ZM143.959 29.8436C147.015 29.8436 148.54 31.7689 148.093 34.0682C147.616 36.5403 145.25 38.2368 142.334 38.2368C139.418 38.2368 137.709 36.5411 138.187 34.0682C138.633 31.7705 140.903 29.8436 143.959 29.8436V29.8436ZM42.0752 18.7416C39.6726 18.0465 36.9456 17.6646 34.2289 17.6646C24.5464 17.6646 15.7461 23.7797 14.2209 31.4241C12.7303 38.8948 18.9323 44.6967 28.3512 44.6967C30.4982 44.6967 35.0298 44.3843 37.1026 43.6552L39.409 33.8559C37.1831 35.3504 34.8057 36.2886 32.0448 36.2886C28.4522 36.2886 25.786 34.0643 26.3612 31.1795C26.9301 28.331 30.3168 26.0711 33.9085 26.0711C36.6245 26.0711 38.7912 27.2879 40.4348 28.7121L42.0752 18.7416V18.7416Z" fill="#E31837"/>
<path d="M151.889 43.6816C152.033 42.9249 152.876 42.3149 153.795 42.3149C154.706 42.3149 155.324 42.9249 155.18 43.6816C155.035 44.443 154.187 45.053 153.274 45.053C152.356 45.053 151.745 44.4422 151.889 43.6816ZM154.751 43.6816C154.866 43.0724 154.429 42.6724 153.725 42.6724C153.011 42.6724 152.433 43.0724 152.319 43.6816C152.203 44.2915 152.627 44.6955 153.343 44.6955C154.046 44.6955 154.635 44.2923 154.751 43.6816ZM154.165 44.3972H153.74L153.472 43.7905H153.194L153.078 44.3972H152.717L152.989 42.9643H153.823C154.191 42.9643 154.39 43.0661 154.327 43.403C154.279 43.6484 154.087 43.7747 153.865 43.792L154.165 44.3972ZM153.638 43.5167C153.819 43.5167 153.974 43.5167 154.004 43.3636C154.028 43.2373 153.871 43.2373 153.691 43.2373H153.299L153.248 43.5167H153.638V43.5167Z" fill="#E31837"/>
<g clip-path="url(#clip0_138_1079)">
<path d="M1182 30.5C1182 18.0736 1192.07 8 1204.5 8V8C1216.93 8 1227 18.0736 1227 30.5V30.5C1227 42.9264 1216.93 53 1204.5 53V53C1192.07 53 1182 42.9264 1182 30.5V30.5Z" fill="url(#paint0_linear_138_1079)"/>
<path d="M1209.3 34.4V37.7C1209.3 38.0267 1204.5 39.0158 1204.5 39.0158C1204.5 39.0158 1199.7 38.166 1199.7 37.7C1199.7 36.818 1199.72 32.39 1199.7 28.2782C1197.55 25.4916 1197.55 23.75 1199.25 21.95C1200.95 20.15 1213.05 19.25 1213.05 19.25C1213.05 19.25 1213.96 27.9815 1214.1 30.35C1214.16 31.3025 1214.77 34.4 1212.37 34.4H1209.3Z" fill="url(#paint1_linear_138_1079)"/>
<path d="M1209.3 34.1187V35.9243C1206.09 35.3517 1204.24 34.1437 1203.75 32.3003C1205.15 33.2503 1206.95 33.8503 1209.15 34.1003C1209.2 34.106 1209.25 34.1121 1209.3 34.1187Z" fill="#DE6530"/>
<path d="M1220.25 44.4964C1221.2 46.4321 1221.95 49.6321 1222.5 54.0964H1186.5C1187.05 49.6316 1187.8 46.4316 1188.75 44.4964C1189.7 42.5676 1198.5 38.8551 1198.5 38.8551L1210.5 38.854C1210.5 38.854 1219.3 42.5715 1220.25 44.4964Z" fill="url(#paint2_linear_138_1079)"/>
<path d="M1205.55 39.8003L1206.3 53.6003H1202.7L1203.45 39.8003C1203.45 39.8003 1204.15 39.0503 1204.5 39.0503C1204.85 39.0503 1205.55 39.8003 1205.55 39.8003Z" fill="url(#paint3_linear_138_1079)"/>
<path d="M1205.7 42.593L1203.37 41.2466L1203.45 39.8003C1203.92 39.3003 1204.27 39.0503 1204.5 39.0503C1204.73 39.0503 1205.08 39.3003 1205.55 39.8003L1205.7 42.593Z" fill="#26B523"/>
<path d="M1204.5 39.0488L1203 41.7502L1198.35 38.9002L1199.7 36.9502L1204.5 38.7233L1209.3 36.9502L1210.65 38.9002L1206 41.7502L1204.5 39.0488Z" fill="white"/>
<path d="M1201.65 23.781C1201.18 23.3714 1200.6 23.0955 1199.78 23.5212C1197.83 24.5297 1199.12 28.4204 1201.3 28.3445C1202.05 28.3184 1201.7 29.813 1199.7 30.8002C1199.7 29.2252 1197.3 25.3252 1197.09 21.7743C1194.67 20.8751 1195.27 17.277 1196.93 17.277C1196.67 13.9784 1201.95 12.2747 1203.99 14.1675C1206.07 11.6747 1211.32 12.9497 1211.64 15.1124C1215.25 13.1853 1217.62 18.7247 1214.24 20.8751C1212.85 21.7601 1209.6 22.0968 1204.9 22.0968C1202.65 22.0968 1203.95 27.3723 1204.65 29.0751C1205.55 31.2502 1210.57 31.5502 1212.15 31.3252C1213.38 31.1495 1214.02 30.6502 1214.1 30.3502C1215.22 33.3502 1213.8 35.1502 1211.55 35.1502C1207.72 35.1502 1203.9 34.0252 1203.3 31.2502C1202.82 29.0417 1202.85 25.4775 1201.65 23.781Z" fill="url(#paint4_linear_138_1079)"/>
</g>
<defs>
<linearGradient id="paint0_linear_138_1079" x1="1204.5" y1="53" x2="1204.5" y2="8" gradientUnits="userSpaceOnUse">
<stop stop-color="#CBFFB3"/>
<stop offset="0.9999" stop-color="#C0FFC7"/>
<stop offset="1" stop-color="#FFD2C2"/>
</linearGradient>
<linearGradient id="paint1_linear_138_1079" x1="1206.12" y1="19.25" x2="1206.12" y2="39.0158" gradientUnits="userSpaceOnUse">
<stop stop-color="#E6864E"/>
<stop offset="1" stop-color="#EB965E"/>
</linearGradient>
<linearGradient id="paint2_linear_138_1079" x1="1204.5" y1="38.854" x2="1204.5" y2="54.0964" gradientUnits="userSpaceOnUse">
<stop stop-color="#130027"/>
<stop offset="1" stop-color="#130017"/>
</linearGradient>
<linearGradient id="paint3_linear_138_1079" x1="1204.5" y1="53.6003" x2="1204.5" y2="39.0503" gradientUnits="userSpaceOnUse">
<stop stop-color="#03A300"/>
<stop offset="1" stop-color="#3DCA31"/>
</linearGradient>
<linearGradient id="paint4_linear_138_1079" x1="1205.68" y1="12.7993" x2="1205.68" y2="35.1502" gradientUnits="userSpaceOnUse">
<stop stop-color="#130027"/>
<stop offset="1" stop-color="#130017"/>
</linearGradient>
<clipPath id="clip0_138_1079">
<path d="M1182 30.5C1182 18.0736 1192.07 8 1204.5 8V8C1216.93 8 1227 18.0736 1227 30.5V30.5C1227 42.9264 1216.93 53 1204.5 53V53C1192.07 53 1182 42.9264 1182 30.5V30.5Z" fill="white"/>
</clipPath>
</defs>
</svg>
