<svg width="1239" height="657" viewBox="0 0 1239 657" fill="none" xmlns="http://www.w3.org/2000/svg">
<path d="M1224.25 0H14.75C6.6038 0 0 4.35132 0 9.71894V647.281C0 652.649 6.6038 657 14.75 657H1224.25C1232.4 657 1239 652.649 1239 647.281V9.71894C1239 4.35132 1232.4 0 1224.25 0Z" fill="white"/>
<path d="M962.5 315H843.5C841.567 315 840 316.498 840 318.346V328.382C840 330.23 841.567 331.728 843.5 331.728H962.5C964.433 331.728 966 330.23 966 328.382V318.346C966 316.498 964.433 315 962.5 315Z" fill="#E6ECF2"/>
<rect x="845.59" y="364.901" width="20.3368" height="15.885" rx="1" fill="#E2E8F0"/>
<rect x="881.18" y="364.9" width="137.273" height="15.885" rx="1" fill="#E2E8F0"/>
<rect x="1060.82" y="364.9" width="71.1787" height="15.885" rx="1" fill="#E2E8F0" fill-opacity="0.5"/>
<rect x="845.59" y="398.659" width="20.3368" height="15.885" rx="1" fill="#E2E8F0"/>
<rect x="880.639" y="398.658" width="131.947" height="15.8856" rx="1" fill="#E2E8F0"/>
<rect x="1060" y="398.658" width="59.7883" height="15.8856" rx="1" fill="#E2E8F0" fill-opacity="0.5"/>
<rect x="845.59" y="434.401" width="20.3368" height="15.885" rx="1" fill="#E2E8F0"/>
<rect x="880.639" y="434.4" width="121.638" height="15.8856" rx="1" fill="#E2E8F0"/>
<rect x="1060.82" y="434.4" width="71.1787" height="15.885" rx="1" fill="#E2E8F0" fill-opacity="0.5"/>
<rect x="845.59" y="474.115" width="20.3368" height="15.885" rx="1" fill="#E2E8F0"/>
<rect x="881.18" y="474.114" width="137.273" height="15.885" rx="1" fill="#E2E8F0"/>
<rect x="1060.82" y="474.114" width="71.1787" height="15.885" rx="1" fill="#E2E8F0" fill-opacity="0.5"/>
<path d="M191.406 105.95H59.6097C56.5768 105.95 54.1182 107.427 54.1182 109.25V112.55C54.1182 114.372 56.5768 115.85 59.6097 115.85H191.406C194.438 115.85 196.897 114.372 196.897 112.55V109.25C196.897 107.427 194.438 105.95 191.406 105.95Z" fill="#CBD5E1"/>
<path d="M191.406 285.95H59.6097C56.5768 285.95 54.1182 287.427 54.1182 289.25V292.55C54.1182 294.372 56.5768 295.85 59.6097 295.85H191.406C194.438 295.85 196.897 294.372 196.897 292.55V289.25C196.897 287.427 194.438 285.95 191.406 285.95Z" fill="#CBD5E1"/>
<rect x="28" y="101" width="19.1533" height="18.15" rx="1" fill="#CBD5E1"/>
<rect x="28" y="281" width="19.1533" height="18.15" rx="1" fill="#CBD5E1"/>
<rect x="28" y="191.75" width="19.1533" height="18.15" rx="1" fill="#CBD5E1"/>
<rect x="28" y="236.3" width="19.1533" height="18.15" rx="1" fill="#CBD5E1"/>
<path d="M114.77 150.5H59.632C56.5868 150.5 54.1182 151.977 54.1182 153.8V157.1C54.1182 158.923 56.5868 160.4 59.632 160.4H114.77C117.815 160.4 120.284 158.923 120.284 157.1V153.8C120.284 151.977 117.815 150.5 114.77 150.5Z" fill="#8585FF"/>
<rect x="28" y="147.2" width="19.1533" height="16.5" rx="1" fill="#8585FF"/>
<path d="M99.0026 195.05H59.7287C56.6301 195.05 54.1182 196.774 54.1182 198.9V202.75C54.1182 204.876 56.6301 206.6 59.7287 206.6H99.0026C102.101 206.6 104.613 204.876 104.613 202.75V198.9C104.613 196.774 102.101 195.05 99.0026 195.05Z" fill="#CBD5E1"/>
<path d="M154.742 241.25H59.7084C56.621 241.25 54.1182 242.727 54.1182 244.55V247.85C54.1182 249.672 56.621 251.15 59.7084 251.15H154.742C157.829 251.15 160.332 249.672 160.332 247.85V244.55C160.332 242.727 157.829 241.25 154.742 241.25Z" fill="#CBD5E1"/>
<rect x="1157.52" y="34.9717" width="85.5157" height="13.9718" rx="1" transform="rotate(-180 1157.52 34.9717)" fill="#CBD5E1"/>
<rect x="253" y="148" width="948" height="470" rx="5" stroke="#E2E8F0" stroke-width="2"/>
<line x1="4.37114e-08" y1="62.5" x2="1236" y2="62.5001" stroke="#E2E8F0"/>
<path d="M257.68 121V101.4H264.68C265.744 101.4 266.705 101.666 267.564 102.198C268.432 102.73 269.118 103.444 269.622 104.34C270.126 105.236 270.378 106.221 270.378 107.294C270.378 108.395 270.117 109.394 269.594 110.29C269.081 111.177 268.39 111.886 267.522 112.418C266.654 112.941 265.707 113.202 264.68 113.202H261.096V121H257.68ZM261.096 109.786H264.316C264.801 109.786 265.245 109.665 265.646 109.422C266.047 109.179 266.365 108.853 266.598 108.442C266.841 108.031 266.962 107.574 266.962 107.07C266.962 106.557 266.841 106.095 266.598 105.684C266.365 105.273 266.047 104.947 265.646 104.704C265.245 104.461 264.801 104.34 264.316 104.34H261.096V109.786ZM278.113 121.364C276.825 121.364 275.649 121.033 274.585 120.37C273.531 119.707 272.686 118.816 272.051 117.696C271.426 116.576 271.113 115.339 271.113 113.986C271.113 112.969 271.295 112.017 271.659 111.13C272.023 110.234 272.523 109.45 273.157 108.778C273.801 108.097 274.548 107.565 275.397 107.182C276.247 106.799 277.152 106.608 278.113 106.608C279.205 106.608 280.204 106.841 281.109 107.308C282.024 107.765 282.799 108.395 283.433 109.198C284.068 110.001 284.53 110.915 284.819 111.942C285.109 112.969 285.174 114.042 285.015 115.162H274.781C274.912 115.685 275.127 116.156 275.425 116.576C275.724 116.987 276.102 117.318 276.559 117.57C277.017 117.813 277.535 117.939 278.113 117.948C278.711 117.957 279.252 117.817 279.737 117.528C280.232 117.229 280.643 116.828 280.969 116.324L284.455 117.136C283.886 118.377 283.037 119.395 281.907 120.188C280.778 120.972 279.513 121.364 278.113 121.364ZM274.669 112.6H281.557C281.455 112.04 281.235 111.536 280.899 111.088C280.573 110.631 280.167 110.267 279.681 109.996C279.196 109.725 278.673 109.59 278.113 109.59C277.553 109.59 277.035 109.725 276.559 109.996C276.083 110.257 275.677 110.617 275.341 111.074C275.015 111.522 274.791 112.031 274.669 112.6ZM287.307 121L287.293 107H290.709L290.723 108.246C291.199 107.742 291.769 107.345 292.431 107.056C293.094 106.757 293.808 106.608 294.573 106.608C295.087 106.608 295.6 106.683 296.113 106.832L294.769 110.276C294.415 110.136 294.06 110.066 293.705 110.066C293.155 110.066 292.651 110.201 292.193 110.472C291.745 110.733 291.386 111.093 291.115 111.55C290.854 111.998 290.723 112.497 290.723 113.048V121H287.307ZM302.576 104.06V107H306.398V110.416H302.576V121H299.16V110.416H297.634V107H299.16V104.06C299.16 103.257 299.356 102.525 299.748 101.862C300.149 101.19 300.686 100.658 301.358 100.266C302.03 99.8647 302.772 99.664 303.584 99.664C304.172 99.664 304.755 99.7853 305.334 100.028C305.912 100.271 306.426 100.644 306.874 101.148L304.41 103.556C304.326 103.397 304.204 103.281 304.046 103.206C303.896 103.122 303.742 103.08 303.584 103.08C303.313 103.08 303.075 103.178 302.87 103.374C302.674 103.561 302.576 103.789 302.576 104.06ZM314.59 121.364C313.302 121.364 312.126 121.033 311.062 120.37C310.007 119.707 309.163 118.821 308.528 117.71C307.903 116.59 307.59 115.353 307.59 114C307.59 112.973 307.772 112.017 308.136 111.13C308.5 110.234 308.999 109.45 309.634 108.778C310.278 108.097 311.025 107.565 311.874 107.182C312.723 106.799 313.629 106.608 314.59 106.608C315.878 106.608 317.049 106.939 318.104 107.602C319.168 108.265 320.013 109.156 320.638 110.276C321.273 111.396 321.59 112.637 321.59 114C321.59 115.017 321.408 115.969 321.044 116.856C320.68 117.743 320.176 118.527 319.532 119.208C318.897 119.88 318.155 120.407 317.306 120.79C316.466 121.173 315.561 121.364 314.59 121.364ZM314.59 117.948C315.271 117.948 315.883 117.766 316.424 117.402C316.965 117.038 317.39 116.557 317.698 115.96C318.015 115.363 318.174 114.709 318.174 114C318.174 113.272 318.011 112.609 317.684 112.012C317.367 111.405 316.933 110.925 316.382 110.57C315.841 110.206 315.243 110.024 314.59 110.024C313.918 110.024 313.311 110.206 312.77 110.57C312.229 110.934 311.799 111.419 311.482 112.026C311.165 112.633 311.006 113.291 311.006 114C311.006 114.737 311.169 115.405 311.496 116.002C311.823 116.599 312.257 117.075 312.798 117.43C313.349 117.775 313.946 117.948 314.59 117.948ZM323.784 121L323.77 107H327.186L327.2 108.246C327.676 107.742 328.245 107.345 328.908 107.056C329.571 106.757 330.285 106.608 331.05 106.608C331.563 106.608 332.077 106.683 332.59 106.832L331.246 110.276C330.891 110.136 330.537 110.066 330.182 110.066C329.631 110.066 329.127 110.201 328.67 110.472C328.222 110.733 327.863 111.093 327.592 111.55C327.331 111.998 327.2 112.497 327.2 113.048V121H323.784ZM334.215 121V107H337.631V108.246C338.107 107.742 338.676 107.345 339.339 107.056C340.002 106.757 340.716 106.608 341.481 106.608C342.452 106.608 343.343 106.837 344.155 107.294C344.976 107.751 345.63 108.363 346.115 109.128C346.61 108.363 347.263 107.751 348.075 107.294C348.887 106.837 349.778 106.608 350.749 106.608C351.776 106.608 352.704 106.86 353.535 107.364C354.375 107.859 355.042 108.526 355.537 109.366C356.041 110.197 356.293 111.125 356.293 112.152V121H352.877V113.062C352.877 112.521 352.742 112.026 352.471 111.578C352.21 111.121 351.855 110.757 351.407 110.486C350.968 110.206 350.474 110.066 349.923 110.066C349.372 110.066 348.873 110.201 348.425 110.472C347.986 110.733 347.632 111.088 347.361 111.536C347.09 111.984 346.955 112.493 346.955 113.062V121H343.539V113.062C343.539 112.493 343.408 111.984 343.147 111.536C342.886 111.088 342.531 110.733 342.083 110.472C341.635 110.201 341.136 110.066 340.585 110.066C340.044 110.066 339.549 110.206 339.101 110.486C338.653 110.757 338.294 111.121 338.023 111.578C337.762 112.026 337.631 112.521 337.631 113.062V121H334.215ZM369.381 107H372.797V121H369.381L369.227 119.264C368.844 119.889 368.335 120.398 367.701 120.79C367.075 121.173 366.333 121.364 365.475 121.364C364.439 121.364 363.468 121.168 362.563 120.776C361.657 120.384 360.859 119.843 360.169 119.152C359.487 118.461 358.951 117.663 358.559 116.758C358.176 115.853 357.985 114.882 357.985 113.846C357.985 112.847 358.167 111.909 358.531 111.032C358.904 110.155 359.422 109.385 360.085 108.722C360.747 108.059 361.513 107.541 362.381 107.168C363.249 106.795 364.182 106.608 365.181 106.608C366.105 106.608 366.931 106.813 367.659 107.224C368.396 107.635 369.021 108.157 369.535 108.792L369.381 107ZM365.391 118.074C366.119 118.074 366.763 117.892 367.323 117.528C367.883 117.164 368.321 116.674 368.639 116.058C368.956 115.433 369.115 114.747 369.115 114C369.115 113.244 368.956 112.558 368.639 111.942C368.321 111.317 367.878 110.822 367.309 110.458C366.749 110.094 366.109 109.912 365.391 109.912C364.672 109.912 364.014 110.099 363.417 110.472C362.829 110.836 362.357 111.326 362.003 111.942C361.657 112.558 361.485 113.244 361.485 114C361.485 114.756 361.662 115.442 362.017 116.058C362.371 116.674 362.843 117.164 363.431 117.528C364.028 117.892 364.681 118.074 365.391 118.074ZM388.41 112.152V121H384.994V113.048C384.994 112.497 384.859 111.998 384.588 111.55C384.318 111.093 383.954 110.733 383.496 110.472C383.048 110.201 382.549 110.066 381.998 110.066C381.448 110.066 380.944 110.201 380.486 110.472C380.038 110.733 379.679 111.093 379.408 111.55C379.147 111.998 379.016 112.497 379.016 113.048V121H375.6L375.586 107H379.002L379.016 108.246C379.492 107.742 380.062 107.345 380.724 107.056C381.387 106.757 382.101 106.608 382.866 106.608C383.884 106.608 384.812 106.86 385.652 107.364C386.492 107.859 387.16 108.526 387.654 109.366C388.158 110.197 388.41 111.125 388.41 112.152ZM399.606 116.786L402.686 118.452C402.042 119.329 401.235 120.034 400.264 120.566C399.293 121.098 398.234 121.364 397.086 121.364C395.798 121.364 394.622 121.033 393.558 120.37C392.503 119.707 391.659 118.821 391.024 117.71C390.399 116.59 390.086 115.353 390.086 114C390.086 112.973 390.268 112.017 390.632 111.13C390.996 110.234 391.495 109.45 392.13 108.778C392.774 108.097 393.521 107.565 394.37 107.182C395.219 106.799 396.125 106.608 397.086 106.608C398.234 106.608 399.293 106.874 400.264 107.406C401.235 107.938 402.042 108.652 402.686 109.548L399.606 111.2C399.279 110.827 398.892 110.537 398.444 110.332C398.005 110.127 397.553 110.024 397.086 110.024C396.414 110.024 395.807 110.211 395.266 110.584C394.725 110.948 394.295 111.433 393.978 112.04C393.661 112.637 393.502 113.291 393.502 114C393.502 114.7 393.661 115.353 393.978 115.96C394.295 116.557 394.725 117.038 395.266 117.402C395.807 117.766 396.414 117.948 397.086 117.948C397.571 117.948 398.033 117.845 398.472 117.64C398.911 117.425 399.289 117.141 399.606 116.786ZM410.922 121.364C409.634 121.364 408.458 121.033 407.394 120.37C406.339 119.707 405.495 118.816 404.86 117.696C404.235 116.576 403.922 115.339 403.922 113.986C403.922 112.969 404.104 112.017 404.468 111.13C404.832 110.234 405.331 109.45 405.966 108.778C406.61 108.097 407.357 107.565 408.206 107.182C409.055 106.799 409.961 106.608 410.922 106.608C412.014 106.608 413.013 106.841 413.918 107.308C414.833 107.765 415.607 108.395 416.242 109.198C416.877 110.001 417.339 110.915 417.628 111.942C417.917 112.969 417.983 114.042 417.824 115.162H407.59C407.721 115.685 407.935 116.156 408.234 116.576C408.533 116.987 408.911 117.318 409.368 117.57C409.825 117.813 410.343 117.939 410.922 117.948C411.519 117.957 412.061 117.817 412.546 117.528C413.041 117.229 413.451 116.828 413.778 116.324L417.264 117.136C416.695 118.377 415.845 119.395 414.716 120.188C413.587 120.972 412.322 121.364 410.922 121.364ZM407.478 112.6H414.366C414.263 112.04 414.044 111.536 413.708 111.088C413.381 110.631 412.975 110.267 412.49 109.996C412.005 109.725 411.482 109.59 410.922 109.59C410.362 109.59 409.844 109.725 409.368 109.996C408.892 110.257 408.486 110.617 408.15 111.074C407.823 111.522 407.599 112.031 407.478 112.6ZM433.709 101.4H437.643L444.769 121H441.143L439.883 117.528H431.483L430.223 121H426.597L433.709 101.4ZM432.729 114.112H438.623L435.669 106.034L432.729 114.112ZM453.965 110.416H451.249V121H447.833V110.416H445.761V107H447.833V102.604H451.249V107H453.965V110.416ZM464 110.416H461.284V121H457.868V110.416H455.796V107H457.868V102.604H461.284V107H464V110.416ZM466.546 121L466.532 107H469.948L469.962 108.246C470.438 107.742 471.007 107.345 471.67 107.056C472.332 106.757 473.046 106.608 473.812 106.608C474.325 106.608 474.838 106.683 475.352 106.832L474.008 110.276C473.653 110.136 473.298 110.066 472.944 110.066C472.393 110.066 471.889 110.201 471.432 110.472C470.984 110.733 470.624 111.093 470.354 111.55C470.092 111.998 469.962 112.497 469.962 113.048V121H466.546ZM476.868 107H480.284V121H476.868V107ZM478.604 105.194C478.1 105.194 477.675 105.031 477.33 104.704C476.984 104.368 476.812 103.948 476.812 103.444C476.812 102.949 476.984 102.534 477.33 102.198C477.675 101.862 478.095 101.694 478.59 101.694C479.084 101.694 479.5 101.862 479.836 102.198C480.181 102.534 480.354 102.949 480.354 103.444C480.354 103.948 480.186 104.368 479.85 104.704C479.514 105.031 479.098 105.194 478.604 105.194ZM491.124 106.608C492.487 106.608 493.728 106.939 494.848 107.602C495.968 108.265 496.859 109.156 497.522 110.276C498.185 111.387 498.516 112.619 498.516 113.972C498.516 114.989 498.325 115.946 497.942 116.842C497.559 117.738 497.027 118.527 496.346 119.208C495.674 119.88 494.89 120.407 493.994 120.79C493.107 121.173 492.151 121.364 491.124 121.364C490.247 121.364 489.467 121.168 488.786 120.776C488.114 120.375 487.549 119.857 487.092 119.222V121H483.676V100H487.092V108.75C487.549 108.115 488.114 107.602 488.786 107.21C489.467 106.809 490.247 106.608 491.124 106.608ZM491.082 118.06C491.81 118.06 492.468 117.878 493.056 117.514C493.653 117.141 494.129 116.646 494.484 116.03C494.839 115.414 495.016 114.728 495.016 113.972C495.016 113.225 494.839 112.544 494.484 111.928C494.129 111.303 493.653 110.808 493.056 110.444C492.459 110.08 491.801 109.898 491.082 109.898C490.373 109.898 489.738 110.085 489.178 110.458C488.618 110.822 488.179 111.317 487.862 111.942C487.545 112.558 487.386 113.235 487.386 113.972C487.386 114.728 487.545 115.419 487.862 116.044C488.179 116.66 488.618 117.15 489.178 117.514C489.738 117.878 490.373 118.06 491.082 118.06ZM499.823 115.82V107H503.239V114.924C503.239 115.475 503.374 115.979 503.645 116.436C503.916 116.884 504.275 117.243 504.723 117.514C505.18 117.775 505.68 117.906 506.221 117.906C506.781 117.906 507.285 117.775 507.733 117.514C508.181 117.243 508.54 116.884 508.811 116.436C509.082 115.979 509.217 115.475 509.217 114.924V107H512.633L512.647 121H509.231L509.217 119.726C508.732 120.23 508.158 120.631 507.495 120.93C506.832 121.219 506.123 121.364 505.367 121.364C504.35 121.364 503.421 121.117 502.581 120.622C501.741 120.118 501.069 119.451 500.565 118.62C500.07 117.78 499.823 116.847 499.823 115.82ZM522.954 110.416H520.238V121H516.822V110.416H514.75V107H516.822V102.604H520.238V107H522.954V110.416ZM525.266 107H528.682V121H525.266V107ZM527.002 105.194C526.498 105.194 526.073 105.031 525.728 104.704C525.383 104.368 525.21 103.948 525.21 103.444C525.21 102.949 525.383 102.534 525.728 102.198C526.073 101.862 526.493 101.694 526.988 101.694C527.483 101.694 527.898 101.862 528.234 102.198C528.579 102.534 528.752 102.949 528.752 103.444C528.752 103.948 528.584 104.368 528.248 104.704C527.912 105.031 527.497 105.194 527.002 105.194ZM537.879 121.364C536.591 121.364 535.415 121.033 534.351 120.37C533.296 119.707 532.452 118.821 531.817 117.71C531.192 116.59 530.879 115.353 530.879 114C530.879 112.973 531.061 112.017 531.425 111.13C531.789 110.234 532.288 109.45 532.923 108.778C533.567 108.097 534.314 107.565 535.163 107.182C536.012 106.799 536.918 106.608 537.879 106.608C539.167 106.608 540.338 106.939 541.393 107.602C542.457 108.265 543.302 109.156 543.927 110.276C544.562 111.396 544.879 112.637 544.879 114C544.879 115.017 544.697 115.969 544.333 116.856C543.969 117.743 543.465 118.527 542.821 119.208C542.186 119.88 541.444 120.407 540.595 120.79C539.755 121.173 538.85 121.364 537.879 121.364ZM537.879 117.948C538.56 117.948 539.172 117.766 539.713 117.402C540.254 117.038 540.679 116.557 540.987 115.96C541.304 115.363 541.463 114.709 541.463 114C541.463 113.272 541.3 112.609 540.973 112.012C540.656 111.405 540.222 110.925 539.671 110.57C539.13 110.206 538.532 110.024 537.879 110.024C537.207 110.024 536.6 110.206 536.059 110.57C535.518 110.934 535.088 111.419 534.771 112.026C534.454 112.633 534.295 113.291 534.295 114C534.295 114.737 534.458 115.405 534.785 116.002C535.112 116.599 535.546 117.075 536.087 117.43C536.638 117.775 537.235 117.948 537.879 117.948ZM559.883 112.152V121H556.467V113.048C556.467 112.497 556.332 111.998 556.061 111.55C555.79 111.093 555.426 110.733 554.969 110.472C554.521 110.201 554.022 110.066 553.471 110.066C552.92 110.066 552.416 110.201 551.959 110.472C551.511 110.733 551.152 111.093 550.881 111.55C550.62 111.998 550.489 112.497 550.489 113.048V121H547.073L547.059 107H550.475L550.489 108.246C550.965 107.742 551.534 107.345 552.197 107.056C552.86 106.757 553.574 106.608 554.339 106.608C555.356 106.608 556.285 106.86 557.125 107.364C557.965 107.859 558.632 108.526 559.127 109.366C559.631 110.197 559.883 111.125 559.883 112.152Z" fill="#18303F" fill-opacity="0.6"/>
<rect x="288" y="588" width="141" height="31" rx="5.57327" transform="rotate(-90 288 588)" fill="#9987FF"/>
<rect x="356" y="588" width="186" height="30" rx="5.57327" transform="rotate(-90 356 588)" fill="#9987FF"/>
<rect x="422" y="588" width="104" height="30" rx="5.57327" transform="rotate(-90 422 588)" fill="#9987FF"/>
<rect x="488" y="588" width="254" height="30" rx="5.57327" transform="rotate(-90 488 588)" fill="#9987FF"/>
<rect x="554" y="588" width="156" height="30" rx="5.57327" transform="rotate(-90 554 588)" fill="#9987FF"/>
<rect x="620" y="588" width="273" height="30" rx="5.57327" transform="rotate(-90 620 588)" fill="#9987FF"/>
<rect x="686" y="588" width="98" height="30" rx="5.57327" transform="rotate(-90 686 588)" fill="#9987FF"/>
<rect x="752" y="588" width="156" height="30" rx="5.57327" transform="rotate(-90 752 588)" fill="#9987FF"/>
<path d="M470.209 187H369.949C368.32 187 367 188.32 367 189.949V198.795C367 200.424 368.32 201.744 369.949 201.744H470.209C471.837 201.744 473.157 200.424 473.157 198.795V189.949C473.157 188.32 471.837 187 470.209 187Z" fill="#E6ECF2"/>
<path d="M553.667 218H372.333C369.388 218 367 219.343 367 221V230C367 231.657 369.388 233 372.333 233H553.667C556.612 233 559 231.657 559 230V221C559 219.343 556.612 218 553.667 218Z" fill="#E6ECF2" fill-opacity="0.4"/>
<line x1="252" y1="265.5" x2="1202" y2="265.5" stroke="#CEDDE9"/>
<g clip-path="url(#clip0_138_1080)">
<path d="M268 207.5C268 185.685 285.685 168 307.5 168V168C329.315 168 347 185.685 347 207.5V207.5C347 229.315 329.315 247 307.5 247V247C285.685 247 268 229.315 268 207.5V207.5Z" fill="url(#paint0_linear_138_1080)"/>
<path d="M315.663 213.82V216.98C315.663 221.193 321.72 223.037 321.72 223.037C321.72 223.037 314.741 228.303 307.5 228.303C300.258 228.303 293.28 223.037 293.28 223.037C293.28 223.037 299.384 221.193 299.336 216.98C299.289 212.767 299.321 210.291 299.289 203.073C295.515 198.181 295.757 194.898 297.821 192.589C304.735 184.853 323.563 187.487 323.563 187.487C323.563 187.487 325.32 206.445 321.325 211.977C319.613 214.347 315.663 213.82 315.663 213.82Z" fill="url(#paint1_linear_138_1080)"/>
<path style="mix-blend-mode:multiply" opacity="0.6" d="M315.663 213.82C309.87 213.162 306.447 210.66 306.447 210.66C308.608 213.858 311.902 216.116 315.663 216.98V213.82Z" fill="url(#paint2_linear_138_1080)"/>
<path d="M335.15 231.018C337.657 236.115 339.1 247.871 339.1 247.871H275.9C275.9 247.871 277.343 236.114 279.85 231.018C282.356 225.922 296.993 221.195 296.993 221.195C299.814 226.987 315.297 226.987 317.999 221.193C317.999 221.193 332.643 225.92 335.15 231.018Z" fill="url(#paint3_linear_138_1080)"/>
<path d="M306.447 241.207C306.447 240.998 306.509 240.795 306.624 240.622C306.74 240.448 306.905 240.313 307.097 240.234C307.289 240.154 307.501 240.133 307.706 240.174C307.91 240.214 308.098 240.315 308.245 240.462C308.392 240.609 308.493 240.797 308.533 241.001C308.574 241.206 308.553 241.417 308.473 241.61C308.394 241.802 308.259 241.967 308.085 242.083C307.912 242.198 307.708 242.26 307.5 242.26C307.221 242.26 306.953 242.149 306.755 241.952C306.558 241.754 306.447 241.486 306.447 241.207ZM306.447 235.94C306.447 235.732 306.509 235.528 306.624 235.355C306.74 235.182 306.905 235.047 307.097 234.967C307.289 234.887 307.501 234.866 307.706 234.907C307.91 234.948 308.098 235.048 308.245 235.195C308.392 235.343 308.493 235.53 308.533 235.735C308.574 235.939 308.553 236.151 308.473 236.343C308.394 236.536 308.259 236.7 308.085 236.816C307.912 236.932 307.708 236.993 307.5 236.993C307.221 236.993 306.953 236.882 306.755 236.685C306.558 236.487 306.447 236.219 306.447 235.94ZM306.447 230.673C306.447 230.465 306.509 230.261 306.624 230.088C306.74 229.915 306.905 229.78 307.097 229.7C307.289 229.621 307.501 229.6 307.706 229.64C307.91 229.681 308.098 229.781 308.245 229.929C308.392 230.076 308.493 230.264 308.533 230.468C308.574 230.672 308.553 230.884 308.473 231.077C308.394 231.269 308.259 231.434 308.085 231.549C307.912 231.665 307.708 231.727 307.5 231.727C307.221 231.727 306.953 231.616 306.755 231.418C306.558 231.221 306.447 230.953 306.447 230.673V230.673Z" fill="white"/>
<path d="M302.537 195.178C301.7 194.459 300.682 193.975 299.244 194.722C295.834 196.493 298.415 203.287 301.443 203.287C302.233 203.287 302.626 205.768 299.109 207.5C299.109 204.735 294.895 197.888 294.527 191.655C290.287 190.076 291.34 183.76 294.251 183.76C293.787 177.969 303.059 174.978 306.649 178.301C310.3 173.925 319.517 176.163 320.074 179.96C326.411 176.577 330.577 186.302 324.643 190.077C322.201 191.631 316.489 192.222 308.243 192.222C306.998 192.222 306.301 192.531 306.649 194.07C307.323 197.053 305.758 198.931 302.537 195.178Z" fill="url(#paint4_linear_138_1080)"/>
</g>
<path d="M89.8595 30.0852L95.2988 29.8812L90.7347 44.9207H100.494L105.057 29.8812L110.373 30.0852L112.54 22.9443H92.0244L89.8595 30.0852ZM69.652 33.9901C68.2872 41.0422 60.8103 45.2695 52.6181 45.2695C44.4268 45.2695 38.5843 41.043 39.9491 33.9901C41.2852 27.082 48.8493 22.5947 57.0054 22.5947C65.1608 22.5947 70.988 27.0828 69.652 33.9901ZM49.7557 34.1069C49.2717 36.6134 51.0053 38.3334 53.9598 38.3334C56.9158 38.3334 59.3143 36.6142 59.7991 34.1069C60.2503 31.7757 58.7047 29.8236 55.6062 29.8236C52.5078 29.822 50.2069 31.7757 49.7557 34.1069Z" fill="#E31837"/>
<path d="M66.6192 43.2585C69.404 44.5106 73.1752 45.2698 76.5585 45.2698C82.3642 45.2698 88.7067 42.6761 89.7211 37.4296C90.4427 33.6992 87.8019 31.892 83.8162 31.1343L81.6866 30.7263C80.9666 30.5799 79.7786 30.4639 79.9362 29.6471C80.1106 28.7439 81.4082 28.4807 82.2634 28.4807C84.3634 28.4807 86.1115 29.2095 87.6043 30.1423L91.3276 24.5174C88.9451 23.2062 86.2507 22.595 83.1874 22.595C77.3465 22.595 70.9768 25.5094 69.968 30.7263C69.3024 34.1656 72.1528 36.0016 75.8561 36.556L77.7585 36.8464C78.6209 36.9936 79.8866 37.08 79.6946 38.0704C79.5026 39.0609 77.9097 39.3817 76.9473 39.3817C74.7033 39.3817 72.7769 38.4785 71.2464 37.3712L70.8104 37.0504L66.6192 43.2585V43.2585ZM131.536 23.4982C129.584 22.915 127.366 22.595 125.157 22.595C117.286 22.595 110.133 27.7247 108.892 34.1368C107.679 40.4033 112.721 45.2706 120.379 45.2706C122.123 45.2706 125.807 45.0082 127.494 44.3962L129.369 36.1776C127.558 37.4304 125.626 38.2177 123.382 38.2177C120.463 38.2177 118.294 36.352 118.763 33.9344C119.226 31.544 121.979 29.6503 124.899 29.6503C127.107 29.6503 128.868 30.6703 130.206 31.8664L131.536 23.4982V23.4982ZM147.162 22.595C139.007 22.595 131.443 27.0823 130.106 33.9904C128.742 41.0425 134.584 45.2698 142.776 45.2698C150.967 45.2698 158.445 41.0433 159.809 33.9904C161.144 27.0831 155.317 22.595 147.162 22.595ZM145.764 29.8223C148.862 29.8223 150.408 31.7743 149.956 34.1056C149.472 36.612 147.072 38.3321 144.116 38.3321C141.16 38.3321 139.428 36.6128 139.912 34.1056C140.364 31.7759 142.665 29.8223 145.764 29.8223V29.8223ZM42.4652 18.5662C40.0291 17.8613 37.2643 17.4741 34.5099 17.4741C24.6929 17.4741 15.7704 23.6742 14.2239 31.4248C12.7127 38.9993 19.0008 44.8818 28.5506 44.8818C30.7274 44.8818 35.3219 44.5649 37.4235 43.8257L39.7619 33.8904C37.5051 35.4056 35.0947 36.3568 32.2954 36.3568C28.653 36.3568 25.9497 34.1016 26.5329 31.1768C27.1097 28.2887 30.5434 25.9975 34.185 25.9975C36.9387 25.9975 39.1355 27.2311 40.8019 28.6751L42.4652 18.5662V18.5662Z" fill="#E31837"/>
<path d="M153.804 43.8524C153.95 43.0852 154.805 42.4668 155.737 42.4668C156.661 42.4668 157.287 43.0852 157.142 43.8524C156.994 44.6244 156.134 45.2428 155.209 45.2428C154.278 45.2428 153.658 44.6236 153.804 43.8524ZM156.706 43.8524C156.823 43.2348 156.38 42.8292 155.666 42.8292C154.942 42.8292 154.356 43.2348 154.24 43.8524C154.122 44.4708 154.553 44.8804 155.278 44.8804C155.991 44.8804 156.589 44.4716 156.706 43.8524ZM156.112 44.578H155.681L155.41 43.9628H155.127L155.01 44.578H154.644L154.92 43.1252H155.766C156.138 43.1252 156.34 43.2284 156.276 43.57C156.227 43.8188 156.033 43.9468 155.808 43.9644L156.112 44.578ZM155.578 43.6852C155.761 43.6852 155.918 43.6852 155.949 43.53C155.973 43.402 155.814 43.402 155.631 43.402H155.234L155.182 43.6852H155.578V43.6852Z" fill="#E31837"/>
<g clip-path="url(#clip1_138_1080)">
<path d="M1182 30.5C1182 18.0736 1192.07 8 1204.5 8V8C1216.93 8 1227 18.0736 1227 30.5V30.5C1227 42.9264 1216.93 53 1204.5 53V53C1192.07 53 1182 42.9264 1182 30.5V30.5Z" fill="url(#paint5_linear_138_1080)"/>
<path d="M1209.3 34.4V37.7C1209.3 38.0267 1204.5 39.0158 1204.5 39.0158C1204.5 39.0158 1199.7 38.166 1199.7 37.7C1199.7 36.818 1199.72 32.39 1199.7 28.2782C1197.55 25.4916 1197.55 23.75 1199.25 21.95C1200.95 20.15 1213.05 19.25 1213.05 19.25C1213.05 19.25 1213.96 27.9815 1214.1 30.35C1214.16 31.3025 1214.77 34.4 1212.37 34.4H1209.3Z" fill="url(#paint6_linear_138_1080)"/>
<path d="M1209.3 34.1187V35.9243C1206.09 35.3517 1204.24 34.1437 1203.75 32.3003C1205.15 33.2503 1206.95 33.8503 1209.15 34.1003C1209.2 34.106 1209.25 34.1121 1209.3 34.1187Z" fill="#DE6530"/>
<path d="M1220.25 44.4964C1221.2 46.4321 1221.95 49.6321 1222.5 54.0964H1186.5C1187.05 49.6316 1187.8 46.4316 1188.75 44.4964C1189.7 42.5676 1198.5 38.8551 1198.5 38.8551L1210.5 38.854C1210.5 38.854 1219.3 42.5715 1220.25 44.4964Z" fill="url(#paint7_linear_138_1080)"/>
<path d="M1205.55 39.8003L1206.3 53.6003H1202.7L1203.45 39.8003C1203.45 39.8003 1204.15 39.0503 1204.5 39.0503C1204.85 39.0503 1205.55 39.8003 1205.55 39.8003Z" fill="url(#paint8_linear_138_1080)"/>
<path d="M1205.7 42.593L1203.37 41.2466L1203.45 39.8003C1203.92 39.3003 1204.27 39.0503 1204.5 39.0503C1204.73 39.0503 1205.08 39.3003 1205.55 39.8003L1205.7 42.593Z" fill="#26B523"/>
<path d="M1204.5 39.0488L1203 41.7502L1198.35 38.9002L1199.7 36.9502L1204.5 38.7233L1209.3 36.9502L1210.65 38.9002L1206 41.7502L1204.5 39.0488Z" fill="white"/>
<path d="M1201.65 23.781C1201.18 23.3714 1200.6 23.0955 1199.78 23.5212C1197.83 24.5297 1199.12 28.4204 1201.3 28.3445C1202.05 28.3184 1201.7 29.813 1199.7 30.8002C1199.7 29.2252 1197.3 25.3252 1197.09 21.7743C1194.67 20.8751 1195.27 17.277 1196.93 17.277C1196.67 13.9784 1201.95 12.2747 1203.99 14.1675C1206.07 11.6747 1211.32 12.9497 1211.64 15.1124C1215.25 13.1853 1217.62 18.7247 1214.24 20.8751C1212.85 21.7601 1209.6 22.0968 1204.9 22.0968C1202.65 22.0968 1203.95 27.3723 1204.65 29.0751C1205.55 31.2502 1210.57 31.5502 1212.15 31.3252C1213.38 31.1495 1214.02 30.6502 1214.1 30.3502C1215.22 33.3502 1213.8 35.1502 1211.55 35.1502C1207.72 35.1502 1203.9 34.0252 1203.3 31.2502C1202.82 29.0417 1202.85 25.4775 1201.65 23.781Z" fill="url(#paint9_linear_138_1080)"/>
</g>
<defs>
<linearGradient id="paint0_linear_138_1080" x1="307.5" y1="247" x2="307.5" y2="168" gradientUnits="userSpaceOnUse">
<stop stop-color="white"/>
<stop offset="1" stop-color="#D0D2FF"/>
</linearGradient>
<linearGradient id="paint1_linear_138_1080" x1="308.614" y1="187.055" x2="308.614" y2="228.303" gradientUnits="userSpaceOnUse">
<stop stop-color="#FFEADB"/>
<stop offset="1" stop-color="#FFEADB"/>
</linearGradient>
<linearGradient id="paint2_linear_138_1080" x1="313.921" y1="211.848" x2="312.307" y2="217.961" gradientUnits="userSpaceOnUse">
<stop stop-color="#9A9BAA"/>
<stop offset="1" stop-color="#BCBCE3"/>
</linearGradient>
<linearGradient id="paint3_linear_138_1080" x1="307.5" y1="221.193" x2="307.5" y2="247.871" gradientUnits="userSpaceOnUse">
<stop stop-color="#1D0024"/>
<stop offset="1" stop-color="#100014"/>
</linearGradient>
<linearGradient id="paint4_linear_138_1080" x1="309.602" y1="175.899" x2="309.602" y2="207.5" gradientUnits="userSpaceOnUse">
<stop stop-color="#1D0024"/>
<stop offset="1" stop-color="#100014"/>
</linearGradient>
<linearGradient id="paint5_linear_138_1080" x1="1204.5" y1="53" x2="1204.5" y2="8" gradientUnits="userSpaceOnUse">
<stop stop-color="#CBFFB3"/>
<stop offset="0.9999" stop-color="#C0FFC7"/>
<stop offset="1" stop-color="#FFD2C2"/>
</linearGradient>
<linearGradient id="paint6_linear_138_1080" x1="1206.12" y1="19.25" x2="1206.12" y2="39.0158" gradientUnits="userSpaceOnUse">
<stop stop-color="#E6864E"/>
<stop offset="1" stop-color="#EB965E"/>
</linearGradient>
<linearGradient id="paint7_linear_138_1080" x1="1204.5" y1="38.854" x2="1204.5" y2="54.0964" gradientUnits="userSpaceOnUse">
<stop stop-color="#130027"/>
<stop offset="1" stop-color="#130017"/>
</linearGradient>
<linearGradient id="paint8_linear_138_1080" x1="1204.5" y1="53.6003" x2="1204.5" y2="39.0503" gradientUnits="userSpaceOnUse">
<stop stop-color="#03A300"/>
<stop offset="1" stop-color="#3DCA31"/>
</linearGradient>
<linearGradient id="paint9_linear_138_1080" x1="1205.68" y1="12.7993" x2="1205.68" y2="35.1502" gradientUnits="userSpaceOnUse">
<stop stop-color="#130027"/>
<stop offset="1" stop-color="#130017"/>
</linearGradient>
<clipPath id="clip0_138_1080">
<path d="M268 207.5C268 185.685 285.685 168 307.5 168V168C329.315 168 347 185.685 347 207.5V207.5C347 229.315 329.315 247 307.5 247V247C285.685 247 268 229.315 268 207.5V207.5Z" fill="white"/>
</clipPath>
<clipPath id="clip1_138_1080">
<path d="M1182 30.5C1182 18.0736 1192.07 8 1204.5 8V8C1216.93 8 1227 18.0736 1227 30.5V30.5C1227 42.9264 1216.93 53 1204.5 53V53C1192.07 53 1182 42.9264 1182 30.5V30.5Z" fill="white"/>
</clipPath>
</defs>
</svg>
