<svg width="325" height="471" viewBox="0 0 325 471" fill="none" xmlns="http://www.w3.org/2000/svg">
<path d="M321.131 0H3.86905C1.73223 0 0 3.11944 0 6.96746V464.033C0 467.881 1.73223 471 3.86905 471H321.131C323.268 471 325 467.881 325 464.033V6.96746C325 3.11944 323.268 0 321.131 0Z" fill="white"/>
<rect x="23" y="373" width="129" height="32" rx="5" stroke="#E2E8F0" stroke-width="2"/>
<rect x="22" y="318" width="219.933" height="11.3953" rx="1" fill="#E2E8F0"/>
<rect x="22" y="340.791" width="271" height="12.2093" rx="1" fill="#E2E8F0" fill-opacity="0.5"/>
<rect x="22" y="161" width="219.933" height="11.3953" rx="1" fill="#E2E8F0"/>
<rect x="22" y="183.791" width="271" height="12.2093" rx="1" fill="#E2E8F0" fill-opacity="0.5"/>
<path d="M27.0485 109L22.9315 92.9H25.8295L28.6355 103.905L31.4415 92.9H34.006L36.812 103.905L39.6065 92.9H42.5045L38.4105 109H35.225L32.718 99.248L30.2455 109H27.0485ZM47.9361 109.299C46.8781 109.299 45.9121 109.027 45.0381 108.482C44.1718 107.938 43.4779 107.206 42.9566 106.286C42.4429 105.366 42.1861 104.35 42.1861 103.238C42.1861 102.403 42.3356 101.621 42.6346 100.892C42.9336 100.156 43.3438 99.5125 43.8651 98.9605C44.3941 98.4008 45.0074 97.9638 45.7051 97.6495C46.4028 97.3352 47.1464 97.178 47.9361 97.178C48.8331 97.178 49.6534 97.3697 50.3971 97.753C51.1484 98.1287 51.7848 98.6462 52.3061 99.3055C52.8274 99.9648 53.2069 100.716 53.4446 101.559C53.6823 102.403 53.7359 103.284 53.6056 104.204H45.1991C45.3064 104.634 45.4828 105.021 45.7281 105.366C45.9734 105.703 46.2839 105.975 46.6596 106.182C47.0353 106.382 47.4608 106.485 47.9361 106.493C48.4268 106.501 48.8714 106.386 49.2701 106.148C49.6764 105.903 50.0138 105.573 50.2821 105.159L53.1456 105.826C52.6779 106.846 51.9803 107.681 51.0526 108.333C50.1249 108.977 49.0861 109.299 47.9361 109.299ZM45.1071 102.1H50.7651C50.6808 101.64 50.5006 101.226 50.2246 100.858C49.9563 100.482 49.6228 100.183 49.2241 99.961C48.8254 99.7387 48.3961 99.6275 47.9361 99.6275C47.4761 99.6275 47.0506 99.7387 46.6596 99.961C46.2686 100.176 45.9351 100.471 45.6591 100.846C45.3908 101.214 45.2068 101.632 45.1071 102.1ZM55.3195 109V91.75H58.1255V109H55.3195ZM67.8401 105.538L70.3701 106.907C69.8411 107.628 69.1779 108.206 68.3806 108.643C67.5832 109.08 66.7131 109.299 65.7701 109.299C64.7121 109.299 63.7461 109.027 62.8721 108.482C62.0057 107.938 61.3119 107.21 60.7906 106.297C60.2769 105.377 60.0201 104.362 60.0201 103.25C60.0201 102.407 60.1696 101.621 60.4686 100.892C60.7676 100.156 61.1777 99.5125 61.6991 98.9605C62.2281 98.4008 62.8414 97.9638 63.5391 97.6495C64.2367 97.3352 64.9804 97.178 65.7701 97.178C66.7131 97.178 67.5832 97.3965 68.3806 97.8335C69.1779 98.2705 69.8411 98.857 70.3701 99.593L67.8401 100.95C67.5717 100.643 67.2536 100.406 66.8856 100.237C66.5252 100.068 66.1534 99.984 65.7701 99.984C65.2181 99.984 64.7197 100.137 64.2751 100.444C63.8304 100.743 63.4777 101.142 63.2171 101.64C62.9564 102.131 62.8261 102.667 62.8261 103.25C62.8261 103.825 62.9564 104.362 63.2171 104.86C63.4777 105.351 63.8304 105.745 64.2751 106.045C64.7197 106.343 65.2181 106.493 65.7701 106.493C66.1687 106.493 66.5482 106.409 66.9086 106.24C67.2689 106.064 67.5794 105.83 67.8401 105.538ZM77.1353 109.299C76.0773 109.299 75.1113 109.027 74.2373 108.482C73.371 107.938 72.6771 107.21 72.1558 106.297C71.6421 105.377 71.3853 104.362 71.3853 103.25C71.3853 102.407 71.5348 101.621 71.8338 100.892C72.1328 100.156 72.543 99.5125 73.0643 98.9605C73.5933 98.4008 74.2066 97.9638 74.9043 97.6495C75.602 97.3352 76.3456 97.178 77.1353 97.178C78.1933 97.178 79.1555 97.4502 80.0218 97.9945C80.8958 98.5388 81.5896 99.271 82.1033 100.191C82.6246 101.111 82.8853 102.131 82.8853 103.25C82.8853 104.086 82.7358 104.868 82.4368 105.596C82.1378 106.324 81.7238 106.968 81.1948 107.528C80.6735 108.08 80.064 108.513 79.3663 108.827C78.6763 109.142 77.9326 109.299 77.1353 109.299ZM77.1353 106.493C77.695 106.493 78.1971 106.343 78.6418 106.045C79.0865 105.745 79.4353 105.351 79.6883 104.86C79.949 104.369 80.0793 103.833 80.0793 103.25C80.0793 102.652 79.9451 102.108 79.6768 101.617C79.4161 101.119 79.0596 100.724 78.6073 100.432C78.1626 100.133 77.672 99.984 77.1353 99.984C76.5833 99.984 76.085 100.133 75.6403 100.432C75.1956 100.731 74.843 101.13 74.5823 101.628C74.3216 102.127 74.1913 102.667 74.1913 103.25C74.1913 103.856 74.3255 104.404 74.5938 104.894C74.8621 105.385 75.2186 105.776 75.6633 106.067C76.1156 106.351 76.6063 106.493 77.1353 106.493ZM84.6759 109V97.5H87.4819V98.5235C87.8729 98.1095 88.3406 97.7837 88.8849 97.546C89.4292 97.3007 90.0157 97.178 90.6444 97.178C91.4417 97.178 92.1739 97.3658 92.8409 97.7415C93.5156 98.1172 94.0522 98.6193 94.4509 99.248C94.8572 98.6193 95.3939 98.1172 96.0609 97.7415C96.7279 97.3658 97.4601 97.178 98.2574 97.178C99.1007 97.178 99.8636 97.385 100.546 97.799C101.236 98.2053 101.784 98.7535 102.19 99.4435C102.604 100.126 102.811 100.889 102.811 101.732V109H100.005V102.479C100.005 102.035 99.8942 101.628 99.6719 101.26C99.4572 100.885 99.1659 100.586 98.7979 100.363C98.4376 100.133 98.0312 100.018 97.5789 100.018C97.1266 100.018 96.7164 100.13 96.3484 100.352C95.9881 100.567 95.6967 100.858 95.4744 101.226C95.2521 101.594 95.1409 102.012 95.1409 102.479V109H92.3349V102.479C92.3349 102.012 92.2276 101.594 92.0129 101.226C91.7982 100.858 91.5069 100.567 91.1389 100.352C90.7709 100.13 90.3607 100.018 89.9084 100.018C89.4637 100.018 89.0574 100.133 88.6894 100.363C88.3214 100.586 88.0262 100.885 87.8039 101.26C87.5892 101.628 87.4819 102.035 87.4819 102.479V109H84.6759ZM109.951 109.299C108.893 109.299 107.927 109.027 107.053 108.482C106.186 107.938 105.493 107.206 104.971 106.286C104.458 105.366 104.201 104.35 104.201 103.238C104.201 102.403 104.35 101.621 104.649 100.892C104.948 100.156 105.358 99.5125 105.88 98.9605C106.409 98.4008 107.022 97.9638 107.72 97.6495C108.417 97.3352 109.161 97.178 109.951 97.178C110.848 97.178 111.668 97.3697 112.412 97.753C113.163 98.1287 113.799 98.6462 114.321 99.3055C114.842 99.9648 115.222 100.716 115.459 101.559C115.697 102.403 115.751 103.284 115.62 104.204H107.214C107.321 104.634 107.497 105.021 107.743 105.366C107.988 105.703 108.299 105.975 108.674 106.182C109.05 106.382 109.475 106.485 109.951 106.493C110.441 106.501 110.886 106.386 111.285 106.148C111.691 105.903 112.028 105.573 112.297 105.159L115.16 105.826C114.693 106.846 113.995 107.681 113.067 108.333C112.14 108.977 111.101 109.299 109.951 109.299ZM107.122 102.1H112.78C112.695 101.64 112.515 101.226 112.239 100.858C111.971 100.482 111.637 100.183 111.239 99.961C110.84 99.7387 110.411 99.6275 109.951 99.6275C109.491 99.6275 109.065 99.7387 108.674 99.961C108.283 100.176 107.95 100.471 107.674 100.846C107.405 101.214 107.221 101.632 107.122 102.1ZM129.45 100.306H127.219V109H124.413V100.306H122.711V97.5H124.413V93.889H127.219V97.5H129.45V100.306ZM136.342 109.299C135.284 109.299 134.318 109.027 133.444 108.482C132.578 107.938 131.884 107.21 131.363 106.297C130.849 105.377 130.592 104.362 130.592 103.25C130.592 102.407 130.742 101.621 131.041 100.892C131.34 100.156 131.75 99.5125 132.271 98.9605C132.8 98.4008 133.414 97.9638 134.111 97.6495C134.809 97.3352 135.553 97.178 136.342 97.178C137.4 97.178 138.363 97.4502 139.229 97.9945C140.103 98.5388 140.797 99.271 141.31 100.191C141.832 101.111 142.092 102.131 142.092 103.25C142.092 104.086 141.943 104.868 141.644 105.596C141.345 106.324 140.931 106.968 140.402 107.528C139.881 108.08 139.271 108.513 138.573 108.827C137.883 109.142 137.14 109.299 136.342 109.299ZM136.342 106.493C136.902 106.493 137.404 106.343 137.849 106.045C138.294 105.745 138.642 105.351 138.895 104.86C139.156 104.369 139.286 103.833 139.286 103.25C139.286 102.652 139.152 102.108 138.884 101.617C138.623 101.119 138.267 100.724 137.814 100.432C137.37 100.133 136.879 99.984 136.342 99.984C135.79 99.984 135.292 100.133 134.847 100.432C134.403 100.731 134.05 101.13 133.789 101.628C133.529 102.127 133.398 102.667 133.398 103.25C133.398 103.856 133.533 104.404 133.801 104.894C134.069 105.385 134.426 105.776 134.87 106.067C135.323 106.351 135.813 106.493 136.342 106.493ZM23.38 137L26.508 120.9H28.831L32.7525 131.215L36.674 120.9H38.997L42.125 137H39.2615L37.3295 127.041L33.707 136.632H31.7865L28.164 127.041L26.2435 137H23.38ZM52.3332 125.5H55.1392V137H52.3332L52.2067 135.574C51.8924 136.088 51.4746 136.505 50.9532 136.827C50.4396 137.142 49.8301 137.299 49.1247 137.299C48.2737 137.299 47.4764 137.138 46.7327 136.816C45.9891 136.494 45.3336 136.049 44.7662 135.482C44.2066 134.915 43.7657 134.259 43.4437 133.515C43.1294 132.772 42.9722 131.974 42.9722 131.123C42.9722 130.303 43.1217 129.533 43.4207 128.812C43.7274 128.091 44.1529 127.459 44.6972 126.914C45.2416 126.37 45.8702 125.945 46.5832 125.638C47.2962 125.331 48.0629 125.178 48.8832 125.178C49.6422 125.178 50.3207 125.347 50.9187 125.684C51.5244 126.021 52.0381 126.451 52.4597 126.972L52.3332 125.5ZM49.0557 134.596C49.6537 134.596 50.1827 134.447 50.6427 134.148C51.1027 133.849 51.4631 133.446 51.7237 132.94C51.9844 132.427 52.1147 131.863 52.1147 131.25C52.1147 130.629 51.9844 130.065 51.7237 129.559C51.4631 129.046 51.0989 128.639 50.6312 128.34C50.1712 128.041 49.6461 127.892 49.0557 127.892C48.4654 127.892 47.9249 128.045 47.4342 128.352C46.9512 128.651 46.5641 129.053 46.2727 129.559C45.9891 130.065 45.8472 130.629 45.8472 131.25C45.8472 131.871 45.9929 132.434 46.2842 132.94C46.5756 133.446 46.9627 133.849 47.4457 134.148C47.9364 134.447 48.4731 134.596 49.0557 134.596ZM60.8233 137.207C60.2253 137.169 59.6464 137.05 59.0868 136.85C58.5348 136.643 58.0441 136.364 57.6148 136.011C57.1854 135.658 56.8558 135.237 56.6258 134.746L58.9948 133.734C59.0868 133.887 59.2363 134.052 59.4433 134.228C59.6503 134.397 59.8956 134.539 60.1793 134.654C60.4706 134.769 60.7888 134.826 61.1338 134.826C61.4251 134.826 61.7011 134.788 61.9618 134.711C62.2301 134.627 62.4448 134.501 62.6058 134.332C62.7744 134.163 62.8588 133.945 62.8588 133.676C62.8588 133.393 62.7591 133.174 62.5598 133.021C62.3681 132.86 62.1228 132.741 61.8238 132.664C61.5324 132.58 61.2488 132.503 60.9728 132.434C60.2444 132.289 59.5659 132.063 58.9373 131.756C58.3163 131.449 57.8141 131.054 57.4308 130.571C57.0551 130.081 56.8673 129.49 56.8673 128.8C56.8673 128.041 57.0666 127.386 57.4653 126.834C57.8716 126.282 58.3968 125.856 59.0408 125.557C59.6924 125.258 60.3939 125.109 61.1453 125.109C62.0576 125.109 62.8933 125.301 63.6523 125.684C64.4189 126.06 65.0246 126.592 65.4693 127.282L63.2498 128.593C63.1424 128.409 62.9929 128.241 62.8013 128.087C62.6096 127.926 62.3911 127.796 62.1458 127.696C61.9004 127.589 61.6436 127.528 61.3753 127.512C61.0303 127.497 60.7159 127.528 60.4323 127.604C60.1486 127.681 59.9186 127.811 59.7423 127.995C59.5736 128.179 59.4893 128.425 59.4893 128.731C59.4893 129.023 59.6043 129.241 59.8343 129.387C60.0643 129.525 60.3403 129.632 60.6623 129.709C60.9919 129.786 61.3063 129.87 61.6053 129.962C62.2799 130.184 62.9124 130.456 63.5028 130.778C64.1008 131.1 64.5799 131.495 64.9403 131.963C65.3006 132.431 65.4731 132.99 65.4578 133.642C65.4578 134.386 65.2354 135.037 64.7908 135.597C64.3461 136.149 63.7711 136.571 63.0658 136.862C62.3681 137.153 61.6206 137.268 60.8233 137.207ZM73.5899 128.306H71.3589V137H68.5529V128.306H66.8509V125.5H68.5529V121.889H71.3589V125.5H73.5899V128.306ZM80.482 137.299C79.424 137.299 78.458 137.027 77.584 136.482C76.7177 135.938 76.0238 135.206 75.5025 134.286C74.9888 133.366 74.732 132.35 74.732 131.238C74.732 130.403 74.8815 129.621 75.1805 128.892C75.4795 128.156 75.8897 127.512 76.411 126.96C76.94 126.401 77.5533 125.964 78.251 125.649C78.9487 125.335 79.6923 125.178 80.482 125.178C81.379 125.178 82.1993 125.37 82.943 125.753C83.6943 126.129 84.3307 126.646 84.852 127.305C85.3733 127.965 85.7528 128.716 85.9905 129.559C86.2282 130.403 86.2818 131.284 86.1515 132.204H77.745C77.8523 132.634 78.0287 133.021 78.274 133.366C78.5193 133.703 78.8298 133.975 79.2055 134.182C79.5812 134.382 80.0067 134.485 80.482 134.493C80.9727 134.501 81.4173 134.386 81.816 134.148C82.2223 133.903 82.5597 133.573 82.828 133.159L85.6915 133.826C85.2238 134.846 84.5262 135.681 83.5985 136.333C82.6708 136.977 81.632 137.299 80.482 137.299ZM77.653 130.1H83.311C83.2267 129.64 83.0465 129.226 82.7705 128.858C82.5022 128.482 82.1687 128.183 81.77 127.961C81.3713 127.739 80.942 127.627 80.482 127.627C80.022 127.627 79.5965 127.739 79.2055 127.961C78.8145 128.176 78.481 128.471 78.205 128.846C77.9367 129.214 77.7527 129.632 77.653 130.1ZM88.0341 137L88.0226 125.5H90.8286L90.8401 126.523C91.2311 126.109 91.6987 125.784 92.2431 125.546C92.7874 125.301 93.3739 125.178 94.0026 125.178C94.4242 125.178 94.8459 125.239 95.2676 125.362L94.1636 128.191C93.8722 128.076 93.5809 128.018 93.2896 128.018C92.8372 128.018 92.4232 128.13 92.0476 128.352C91.6796 128.567 91.3844 128.862 91.1621 129.237C90.9474 129.605 90.8401 130.016 90.8401 130.468V137H88.0341ZM103.149 133.538L105.679 134.907C105.15 135.628 104.487 136.206 103.689 136.643C102.892 137.08 102.022 137.299 101.079 137.299C100.021 137.299 99.0547 137.027 98.1807 136.482C97.3143 135.938 96.6205 135.21 96.0992 134.297C95.5855 133.377 95.3287 132.362 95.3287 131.25C95.3287 130.407 95.4782 129.621 95.7772 128.892C96.0762 128.156 96.4863 127.512 97.0077 126.96C97.5367 126.401 98.15 125.964 98.8477 125.649C99.5453 125.335 100.289 125.178 101.079 125.178C102.022 125.178 102.892 125.396 103.689 125.833C104.487 126.27 105.15 126.857 105.679 127.593L103.149 128.95C102.88 128.643 102.562 128.406 102.194 128.237C101.834 128.068 101.462 127.984 101.079 127.984C100.527 127.984 100.028 128.137 99.5837 128.444C99.139 128.743 98.7863 129.142 98.5257 129.64C98.265 130.131 98.1347 130.667 98.1347 131.25C98.1347 131.825 98.265 132.362 98.5257 132.86C98.7863 133.351 99.139 133.745 99.5837 134.045C100.028 134.343 100.527 134.493 101.079 134.493C101.477 134.493 101.857 134.409 102.217 134.24C102.578 134.064 102.888 133.83 103.149 133.538ZM112.444 137.299C111.386 137.299 110.42 137.027 109.546 136.482C108.68 135.938 107.986 135.21 107.464 134.297C106.951 133.377 106.694 132.362 106.694 131.25C106.694 130.407 106.843 129.621 107.142 128.892C107.441 128.156 107.852 127.512 108.373 126.96C108.902 126.401 109.515 125.964 110.213 125.649C110.911 125.335 111.654 125.178 112.444 125.178C113.502 125.178 114.464 125.45 115.33 125.994C116.204 126.539 116.898 127.271 117.412 128.191C117.933 129.111 118.194 130.131 118.194 131.25C118.194 132.086 118.044 132.868 117.745 133.596C117.446 134.324 117.032 134.968 116.503 135.528C115.982 136.08 115.373 136.513 114.675 136.827C113.985 137.142 113.241 137.299 112.444 137.299ZM112.444 134.493C113.004 134.493 113.506 134.343 113.95 134.045C114.395 133.745 114.744 133.351 114.997 132.86C115.258 132.369 115.388 131.833 115.388 131.25C115.388 130.652 115.254 130.108 114.985 129.617C114.725 129.119 114.368 128.724 113.916 128.432C113.471 128.133 112.981 127.984 112.444 127.984C111.892 127.984 111.394 128.133 110.949 128.432C110.504 128.731 110.152 129.13 109.891 129.628C109.63 130.127 109.5 130.667 109.5 131.25C109.5 131.856 109.634 132.404 109.902 132.894C110.171 133.385 110.527 133.776 110.972 134.067C111.424 134.351 111.915 134.493 112.444 134.493ZM119.996 137L119.984 125.5H122.79L122.802 126.523C123.193 126.109 123.661 125.784 124.205 125.546C124.749 125.301 125.336 125.178 125.964 125.178C126.386 125.178 126.808 125.239 127.229 125.362L126.125 128.191C125.834 128.076 125.543 128.018 125.251 128.018C124.799 128.018 124.385 128.13 124.009 128.352C123.641 128.567 123.346 128.862 123.124 129.237C122.909 129.605 122.802 130.016 122.802 130.468V137H119.996ZM136.675 119.75H139.481V137H136.675V135.562C136.307 136.076 135.843 136.494 135.283 136.816C134.723 137.138 134.076 137.299 133.34 137.299C132.504 137.299 131.722 137.142 130.994 136.827C130.265 136.513 129.621 136.08 129.062 135.528C128.51 134.968 128.076 134.324 127.762 133.596C127.448 132.868 127.291 132.086 127.291 131.25C127.291 130.414 127.448 129.632 127.762 128.904C128.076 128.176 128.51 127.535 129.062 126.983C129.621 126.424 130.265 125.987 130.994 125.672C131.722 125.358 132.504 125.201 133.34 125.201C134.076 125.201 134.723 125.362 135.283 125.684C135.843 125.998 136.307 126.416 136.675 126.937V119.75ZM133.374 134.596C133.972 134.596 134.501 134.447 134.961 134.148C135.421 133.849 135.781 133.446 136.042 132.94C136.303 132.427 136.433 131.863 136.433 131.25C136.433 130.629 136.303 130.065 136.042 129.559C135.781 129.046 135.417 128.639 134.95 128.34C134.49 128.041 133.964 127.892 133.374 127.892C132.784 127.892 132.243 128.045 131.753 128.352C131.27 128.651 130.882 129.053 130.591 129.559C130.307 130.065 130.166 130.629 130.166 131.25C130.166 131.871 130.311 132.434 130.603 132.94C130.894 133.446 131.281 133.849 131.764 134.148C132.255 134.447 132.791 134.596 133.374 134.596Z" fill="#18303F"/>
<rect x="22" y="221" width="281" height="42" rx="9.25373" fill="#5233FF"/>
<path d="M135.627 249.234C134.931 249.234 134.262 249.126 133.62 248.91C132.984 248.688 132.426 248.373 131.946 247.965C131.466 247.551 131.121 247.056 130.911 246.48L132.972 245.724C133.056 245.964 133.227 246.183 133.485 246.381C133.743 246.579 134.058 246.738 134.43 246.858C134.802 246.978 135.201 247.038 135.627 247.038C136.065 247.038 136.473 246.972 136.851 246.84C137.235 246.702 137.544 246.513 137.778 246.273C138.012 246.027 138.129 245.742 138.129 245.418C138.129 245.088 138.006 244.818 137.76 244.608C137.514 244.392 137.199 244.221 136.815 244.095C136.431 243.969 136.035 243.873 135.627 243.807C134.733 243.669 133.932 243.456 133.224 243.168C132.516 242.88 131.955 242.481 131.541 241.971C131.133 241.461 130.929 240.801 130.929 239.991C130.929 239.229 131.148 238.563 131.586 237.993C132.024 237.423 132.6 236.979 133.314 236.661C134.028 236.343 134.799 236.184 135.627 236.184C136.317 236.184 136.983 236.292 137.625 236.508C138.267 236.724 138.828 237.039 139.308 237.453C139.794 237.867 140.142 238.365 140.352 238.947L138.282 239.694C138.198 239.454 138.027 239.235 137.769 239.037C137.511 238.839 137.196 238.683 136.824 238.569C136.452 238.449 136.053 238.389 135.627 238.389C135.201 238.383 134.796 238.452 134.412 238.596C134.034 238.734 133.725 238.923 133.485 239.163C133.245 239.403 133.125 239.679 133.125 239.991C133.125 240.393 133.236 240.696 133.458 240.9C133.686 241.104 133.989 241.254 134.367 241.35C134.745 241.44 135.165 241.524 135.627 241.602C136.467 241.734 137.244 241.956 137.958 242.268C138.672 242.58 139.245 242.997 139.677 243.519C140.109 244.035 140.325 244.668 140.325 245.418C140.325 246.18 140.109 246.849 139.677 247.425C139.245 247.995 138.672 248.439 137.958 248.757C137.244 249.075 136.467 249.234 135.627 249.234ZM142.112 240H144.308V249H142.112V240ZM143.228 238.839C142.904 238.839 142.631 238.734 142.409 238.524C142.187 238.308 142.076 238.038 142.076 237.714C142.076 237.396 142.187 237.129 142.409 236.913C142.631 236.697 142.901 236.589 143.219 236.589C143.537 236.589 143.804 236.697 144.02 236.913C144.242 237.129 144.353 237.396 144.353 237.714C144.353 238.038 144.245 238.308 144.029 238.524C143.813 238.734 143.546 238.839 143.228 238.839ZM152.939 240H155.135V249.171C155.135 249.819 155.003 250.407 154.739 250.935C154.475 251.469 154.115 251.925 153.659 252.303C153.203 252.687 152.681 252.981 152.093 253.185C151.505 253.395 150.887 253.5 150.239 253.5C149.609 253.5 149.003 253.371 148.421 253.113C147.839 252.855 147.323 252.501 146.873 252.051C146.429 251.607 146.09 251.1 145.856 250.53L147.863 249.621C147.983 249.951 148.163 250.239 148.403 250.485C148.649 250.737 148.931 250.932 149.249 251.07C149.567 251.214 149.897 251.286 150.239 251.286C150.587 251.286 150.92 251.238 151.238 251.142C151.562 251.046 151.853 250.905 152.111 250.719C152.369 250.539 152.57 250.317 152.714 250.053C152.864 249.795 152.939 249.501 152.939 249.171V247.902C152.657 248.298 152.303 248.619 151.877 248.865C151.451 249.111 150.959 249.234 150.401 249.234C149.753 249.234 149.147 249.111 148.583 248.865C148.019 248.619 147.521 248.28 147.089 247.848C146.663 247.41 146.327 246.906 146.081 246.336C145.841 245.766 145.721 245.154 145.721 244.5C145.721 243.846 145.841 243.234 146.081 242.664C146.327 242.094 146.663 241.593 147.089 241.161C147.521 240.723 148.019 240.381 148.583 240.135C149.147 239.889 149.753 239.766 150.401 239.766C150.959 239.766 151.451 239.889 151.877 240.135C152.303 240.375 152.657 240.693 152.939 241.089V240ZM150.428 247.119C150.89 247.119 151.298 247.002 151.652 246.768C152.012 246.528 152.294 246.21 152.498 245.814C152.702 245.412 152.804 244.974 152.804 244.5C152.804 244.02 152.699 243.582 152.489 243.186C152.285 242.79 152.003 242.472 151.643 242.232C151.289 241.992 150.884 241.872 150.428 241.872C149.978 241.872 149.567 241.992 149.195 242.232C148.823 242.466 148.526 242.781 148.304 243.177C148.082 243.573 147.971 244.014 147.971 244.5C147.971 244.986 148.082 245.427 148.304 245.823C148.526 246.219 148.823 246.534 149.195 246.768C149.567 247.002 149.978 247.119 150.428 247.119ZM165.544 243.312V249H163.348V243.888C163.348 243.534 163.261 243.213 163.087 242.925C162.913 242.631 162.679 242.4 162.385 242.232C162.097 242.058 161.776 241.971 161.422 241.971C161.068 241.971 160.744 242.058 160.45 242.232C160.162 242.4 159.931 242.631 159.757 242.925C159.589 243.213 159.505 243.534 159.505 243.888V249H157.309L157.3 240H159.496L159.505 240.801C159.811 240.477 160.177 240.222 160.603 240.036C161.029 239.844 161.488 239.748 161.98 239.748C162.634 239.748 163.231 239.91 163.771 240.234C164.311 240.552 164.74 240.981 165.058 241.521C165.382 242.055 165.544 242.652 165.544 243.312ZM171.301 245.67V240H173.497V245.094C173.497 245.448 173.584 245.772 173.758 246.066C173.932 246.354 174.163 246.585 174.451 246.759C174.745 246.927 175.066 247.011 175.414 247.011C175.774 247.011 176.098 246.927 176.386 246.759C176.674 246.585 176.905 246.354 177.079 246.066C177.253 245.772 177.34 245.448 177.34 245.094V240H179.536L179.545 249H177.349L177.34 248.181C177.028 248.505 176.659 248.763 176.233 248.955C175.807 249.141 175.351 249.234 174.865 249.234C174.211 249.234 173.614 249.075 173.074 248.757C172.534 248.433 172.102 248.004 171.778 247.47C171.46 246.93 171.301 246.33 171.301 245.67ZM183.121 253.5H180.925V240H183.121V241.143C183.415 240.735 183.775 240.405 184.201 240.153C184.633 239.895 185.137 239.766 185.713 239.766C186.373 239.766 186.988 239.889 187.558 240.135C188.128 240.381 188.629 240.723 189.061 241.161C189.499 241.593 189.838 242.094 190.078 242.664C190.324 243.234 190.447 243.846 190.447 244.5C190.447 245.154 190.324 245.769 190.078 246.345C189.838 246.921 189.499 247.428 189.061 247.866C188.629 248.298 188.128 248.637 187.558 248.883C186.988 249.129 186.373 249.252 185.713 249.252C185.137 249.252 184.633 249.126 184.201 248.874C183.775 248.616 183.415 248.283 183.121 247.875V253.5ZM185.686 241.881C185.23 241.881 184.822 242.001 184.462 242.241C184.102 242.475 183.82 242.79 183.616 243.186C183.412 243.582 183.31 244.02 183.31 244.5C183.31 244.98 183.412 245.421 183.616 245.823C183.82 246.219 184.102 246.537 184.462 246.777C184.822 247.011 185.23 247.128 185.686 247.128C186.148 247.128 186.571 247.011 186.955 246.777C187.339 246.543 187.645 246.228 187.873 245.832C188.101 245.43 188.215 244.986 188.215 244.5C188.215 244.02 188.101 243.582 187.873 243.186C187.645 242.79 187.339 242.475 186.955 242.241C186.577 242.001 186.154 241.881 185.686 241.881Z" fill="white"/>
<ellipse cx="164.5" cy="243.5" rx="83.5" ry="41.5" fill="url(#paint0_radial_143_2545)"/>
<ellipse cx="83.5" cy="388.5" rx="59.5" ry="29.5" fill="url(#paint1_radial_143_2545)"/>
<ellipse cx="260.5" cy="46.5" rx="42.5" ry="21.5" fill="url(#paint2_radial_143_2545)"/>
<path d="M80.4187 54.2427V53.5178H80.2281L80.0076 54.0153L79.7883 53.5178H79.597V54.2427H79.7325V53.6966L79.9386 54.1678H80.0789L80.2851 53.6954V54.2427H80.4193H80.4187ZM79.2094 54.2427V53.642H79.4534V53.5196H78.83V53.642H79.074V54.2427H79.2082H79.2094Z" fill="#F79410"/>
<path d="M58.7523 57.3518H42.2561V27.9919H58.7526L58.7523 57.3518Z" fill="#FF5F00"/>
<path d="M43.302 42.6722C43.302 36.7166 46.1178 31.4113 50.5024 27.9923C47.1835 25.4005 43.0784 23.9938 38.8517 24C28.44 24 20 32.3597 20 42.6722C20 52.9848 28.44 61.3445 38.8517 61.3445C43.0785 61.3507 47.1837 59.9441 50.5027 57.3522C46.1184 53.9338 43.302 48.6282 43.302 42.6722Z" fill="#EB001B"/>
<path d="M81.0077 42.6725C81.0077 52.985 72.5677 61.3447 62.1559 61.3447C57.9287 61.3509 53.8231 59.9442 50.5034 57.3524C54.8893 53.9335 57.7051 48.6284 57.7051 42.6725C57.7051 36.7165 54.8893 31.4115 50.5034 27.9925C53.823 25.4008 57.9285 23.9942 62.1556 24.0003C72.5674 24.0003 81.0074 32.36 81.0074 42.6725" fill="#F79E1B"/>
<defs>
<radialGradient id="paint0_radial_143_2545" cx="0" cy="0" r="1" gradientUnits="userSpaceOnUse" gradientTransform="translate(164.5 243.5) rotate(90) scale(41.5 83.5)">
<stop stop-color="#FF4D00"/>
<stop offset="0.244792" stop-color="#FFA800"/>
<stop offset="0.708333" stop-color="#33FF00" stop-opacity="0.458333"/>
<stop offset="1" stop-color="white" stop-opacity="0"/>
</radialGradient>
<radialGradient id="paint1_radial_143_2545" cx="0" cy="0" r="1" gradientUnits="userSpaceOnUse" gradientTransform="translate(83.5 388.5) rotate(90) scale(29.5 59.5)">
<stop stop-color="#FF4D00"/>
<stop offset="0.244792" stop-color="#FFA800"/>
<stop offset="0.708333" stop-color="#33FF00" stop-opacity="0.458333"/>
<stop offset="1" stop-color="white" stop-opacity="0"/>
</radialGradient>
<radialGradient id="paint2_radial_143_2545" cx="0" cy="0" r="1" gradientUnits="userSpaceOnUse" gradientTransform="translate(260.5 46.5) rotate(90) scale(21.5 42.5)">
<stop stop-color="#FF4D00"/>
<stop offset="0.244792" stop-color="#FFA800"/>
<stop offset="0.708333" stop-color="#33FF00" stop-opacity="0.458333"/>
<stop offset="1" stop-color="white" stop-opacity="0"/>
</radialGradient>
</defs>
</svg>
