<svg width="1239" height="645" viewBox="0 0 1239 645" fill="none" xmlns="http://www.w3.org/2000/svg">
<path d="M1224.25 0H14.75C6.6038 0 0 4.27184 0 9.54142V635.459C0 640.728 6.6038 645 14.75 645H1224.25C1232.4 645 1239 640.728 1239 635.459V9.54142C1239 4.27184 1232.4 0 1224.25 0Z" fill="white"/>
<path d="M188.406 100.95H56.6097C53.5768 100.95 51.1182 102.427 51.1182 104.25V107.55C51.1182 109.372 53.5768 110.85 56.6097 110.85H188.406C191.438 110.85 193.897 109.372 193.897 107.55V104.25C193.897 102.427 191.438 100.95 188.406 100.95Z" fill="#CBD5E1"/>
<path d="M188.406 280.95H56.6097C53.5768 280.95 51.1182 282.427 51.1182 284.25V287.55C51.1182 289.372 53.5768 290.85 56.6097 290.85H188.406C191.438 290.85 193.897 289.372 193.897 287.55V284.25C193.897 282.427 191.438 280.95 188.406 280.95Z" fill="#CBD5E1"/>
<rect x="25" y="96" width="19.1533" height="18.15" rx="1" fill="#CBD5E1"/>
<rect x="25" y="276" width="19.1533" height="18.15" rx="1" fill="#CBD5E1"/>
<rect x="25" y="186.75" width="19.1533" height="18.15" rx="1" fill="#CBD5E1"/>
<rect x="25" y="231.3" width="19.1533" height="18.15" rx="1" fill="#CBD5E1"/>
<path d="M111.77 145.5H56.632C53.5868 145.5 51.1182 146.977 51.1182 148.8V152.1C51.1182 153.923 53.5868 155.4 56.632 155.4H111.77C114.815 155.4 117.284 153.923 117.284 152.1V148.8C117.284 146.977 114.815 145.5 111.77 145.5Z" fill="#8585FF"/>
<rect x="25" y="142.2" width="19.1533" height="16.5" rx="1" fill="#8585FF"/>
<path d="M96.0026 190.05H56.7287C53.6301 190.05 51.1182 191.774 51.1182 193.9V197.75C51.1182 199.876 53.6301 201.6 56.7287 201.6H96.0026C99.1012 201.6 101.613 199.876 101.613 197.75V193.9C101.613 191.774 99.1012 190.05 96.0026 190.05Z" fill="#CBD5E1"/>
<path d="M151.742 236.25H56.7084C53.621 236.25 51.1182 237.727 51.1182 239.55V242.85C51.1182 244.672 53.621 246.15 56.7084 246.15H151.742C154.829 246.15 157.332 244.672 157.332 242.85V239.55C157.332 237.727 154.829 236.25 151.742 236.25Z" fill="#CBD5E1"/>
<rect x="1170.52" y="37.9717" width="85.5157" height="13.9718" rx="1" transform="rotate(-180 1170.52 37.9717)" fill="#CBD5E1"/>
<path d="M373.944 100H270.056C268.368 100 267 102.328 267 105.2V120.8C267 123.672 268.368 126 270.056 126H373.944C375.632 126 377 123.672 377 120.8V105.2C377 102.328 375.632 100 373.944 100Z" fill="#E6ECF2"/>
<rect x="1088" y="102" width="98.99" height="25.8593" rx="2" stroke="#E2E8F0" stroke-width="2"/>
<path d="M1018.79 410.253H926.914C925.422 410.253 924.212 411.567 924.212 413.187V421.99C924.212 423.61 925.422 424.924 926.914 424.924H1018.79C1020.29 424.924 1021.5 423.61 1021.5 421.99V413.187C1021.5 411.567 1020.29 410.253 1018.79 410.253Z" fill="#E6ECF2"/>
<rect x="908.932" y="394.932" width="286.951" height="195.648" rx="4.65829" stroke="#E2E8F0" stroke-width="1.86332"/>
<rect x="923.957" y="451.175" width="15.74" height="13.8599" rx="0.931658" fill="#E2E8F0"/>
<rect x="951.502" y="451.174" width="106.245" height="13.8599" rx="0.931658" fill="#E2E8F0"/>
<rect x="1090.54" y="451.174" width="55.0899" height="13.8599" rx="0.931658" fill="#E2E8F0" fill-opacity="0.5"/>
<rect x="923.956" y="480.629" width="15.74" height="13.8599" rx="0.931658" fill="#E2E8F0"/>
<rect x="951.083" y="480.628" width="102.122" height="13.8605" rx="0.931658" fill="#E2E8F0"/>
<rect x="1089.9" y="480.628" width="46.2741" height="13.8605" rx="0.931658" fill="#E2E8F0" fill-opacity="0.5"/>
<rect x="923.956" y="513.547" width="15.74" height="13.8599" rx="0.931658" fill="#E2E8F0"/>
<rect x="951.083" y="513.546" width="94.1438" height="13.8605" rx="0.931658" fill="#E2E8F0"/>
<rect x="1090.54" y="513.546" width="55.0899" height="13.8599" rx="0.931658" fill="#E2E8F0" fill-opacity="0.5"/>
<rect x="923.956" y="546.466" width="15.74" height="13.8599" rx="0.931658" fill="#E2E8F0"/>
<rect x="951.502" y="546.465" width="106.245" height="13.8599" rx="0.931658" fill="#E2E8F0"/>
<rect x="1090.54" y="546.465" width="55.0899" height="13.8599" rx="0.931658" fill="#E2E8F0" fill-opacity="0.5"/>
<path d="M1015.79 178.253H923.914C922.422 178.253 921.212 179.567 921.212 181.187V189.99C921.212 191.61 922.422 192.924 923.914 192.924H1015.79C1017.29 192.924 1018.5 191.61 1018.5 189.99V181.187C1018.5 179.567 1017.29 178.253 1015.79 178.253Z" fill="#E6ECF2"/>
<rect x="905.932" y="162.932" width="286.951" height="195.648" rx="4.65829" stroke="#E2E8F0" stroke-width="1.86332"/>
<rect x="920.957" y="219.175" width="15.74" height="13.8599" rx="0.931658" fill="#E2E8F0"/>
<rect x="948.502" y="219.174" width="106.245" height="13.8599" rx="0.931658" fill="#E2E8F0"/>
<rect x="1087.54" y="219.174" width="55.0899" height="13.8599" rx="0.931658" fill="#E2E8F0" fill-opacity="0.5"/>
<rect x="920.956" y="248.629" width="15.74" height="13.8599" rx="0.931658" fill="#E2E8F0"/>
<rect x="948.083" y="248.628" width="102.122" height="13.8605" rx="0.931658" fill="#E2E8F0"/>
<rect x="1086.9" y="248.628" width="46.2741" height="13.8605" rx="0.931658" fill="#E2E8F0" fill-opacity="0.5"/>
<rect x="920.956" y="281.547" width="15.74" height="13.8599" rx="0.931658" fill="#E2E8F0"/>
<rect x="948.083" y="281.546" width="94.1438" height="13.8605" rx="0.931658" fill="#E2E8F0"/>
<rect x="1087.54" y="281.546" width="55.0899" height="13.8599" rx="0.931658" fill="#E2E8F0" fill-opacity="0.5"/>
<rect x="920.956" y="314.466" width="15.74" height="13.8599" rx="0.931658" fill="#E2E8F0"/>
<rect x="948.502" y="314.465" width="106.245" height="13.8599" rx="0.931658" fill="#E2E8F0"/>
<rect x="1087.54" y="314.465" width="55.0899" height="13.8599" rx="0.931658" fill="#E2E8F0" fill-opacity="0.5"/>
<line y1="60.1836" x2="1238" y2="60.1836" stroke="#E2E8F0"/>
<rect x="-1.5" y="1.5" width="591" height="420" rx="3.28842" transform="matrix(-1 0 0 1 858 169)" fill="white" stroke="#E2E8F0" stroke-width="3"/>
<g clip-path="url(#clip0_139_2332)">
<path d="M1228 31C1228 19.9543 1219.05 11 1208 11V11C1196.95 11 1188 19.9543 1188 31V31C1188 42.0457 1196.95 51 1208 51V51C1219.05 51 1228 42.0457 1228 31V31Z" fill="url(#paint0_linear_139_2332)"/>
<path d="M1215.33 38.9712C1212.89 40.7489 1210.44 42.1712 1208 42.1712C1205.56 42.1712 1203.11 40.7489 1200.67 38.9712C1202.68 38.3578 1203.7 37.4423 1203.73 36.2245C1203.73 36.0074 1203.73 35.6992 1203.73 35.1203C1203.73 35.0284 1203.73 34.9343 1203.73 34.8379C1203.73 33.2859 1203.72 31.2379 1203.71 29.1579C1201.8 26.681 1202.5 23.7771 1203.1 23.8495C1203.83 23.9389 1210.19 17.9031 1211.41 17.5937C1212.63 17.2842 1215.73 18.2833 1216.27 21.0666C1216.8 23.8499 1217.02 30.8657 1215 33.6666C1214.42 34.4637 1213.52 34.7755 1212.28 34.6019C1212.28 35.1845 1212.27 35.5114 1212.27 36.1711C1212.28 37.4443 1213.3 38.3585 1215.33 38.9712Z" fill="url(#paint1_linear_139_2332)"/>
<path d="M1212.27 34.6C1209.33 34.2667 1207.47 33 1207.47 33C1207.47 33 1209.6 35.6667 1212.27 36.2V34.6Z" fill="#5E3015"/>
<path d="M1202.73 29.1999C1201.81 26.9906 1198.13 22.491 1201.31 19.691C1202.37 14.491 1208.27 15.0666 1212.2 16.2666C1214.84 17.0731 1216.84 18.6666 1217.27 17.4666C1219.93 19.691 1218.6 21.8666 1216.84 22.491C1215.24 23.0577 1212.55 23.6243 1207.96 23.091C1207.14 22.9957 1207.31 25.5054 1206.87 25.7767C1206.22 26.1838 1205.71 23.6243 1203.91 24.3929C1202.1 25.1614 1203.17 28.7249 1205.11 28.7249C1205.77 28.7249 1206.11 30.5578 1204.31 31.4245C1203 32.0666 1203.33 30.6355 1202.73 29.1999Z" fill="url(#paint2_linear_139_2332)"/>
<path d="M1194 43.0413C1192.73 45.6222 1192 51.5746 1192 51.5746H1224C1224 51.5746 1223.27 45.6216 1222 43.0413C1220.73 40.461 1213.32 38.0678 1213.32 38.0678C1209.22 39.6669 1206.72 39.6669 1202.68 38.0669C1202.68 38.0669 1195.27 40.4604 1194 43.0413Z" fill="url(#paint3_linear_139_2332)"/>
<path d="M1207.07 39.0002L1206.4 51.2668H1209.6L1208.93 39.0002C1208.93 39.0002 1208.31 38.3335 1208 38.3335C1207.69 38.3335 1207.07 39.0002 1207.07 39.0002Z" fill="url(#paint4_linear_139_2332)"/>
<path d="M1206.91 41.4924L1209.01 40.281L1208.93 39.0002C1208.52 38.5557 1208.21 38.3335 1208 38.3335C1207.79 38.3335 1207.48 38.5557 1207.07 39.0002L1206.91 41.4924H1206.91Z" fill="#645050"/>
<path d="M1208 38.3324L1209.33 40.7335L1213.47 38.2001L1212.27 36.4668L1208 38.0429L1203.73 36.4668L1202.53 38.2001L1206.67 40.7335L1208 38.3324Z" fill="white"/>
</g>
<path d="M75.4187 43.2425V42.5176H75.2281L75.0076 43.0151L74.7883 42.5176H74.597V43.2425H74.7325V42.6964L74.9386 43.1676H75.0789L75.2851 42.6952V43.2425H75.4193H75.4187ZM74.2094 43.2425V42.6417H74.4534V42.5194H73.83V42.6417H74.074V43.2425H74.2082H74.2094Z" fill="#F79410"/>
<path d="M53.7523 46.3516H37.2561V16.9917H53.7526L53.7523 46.3516Z" fill="#FF5F00"/>
<path d="M38.302 31.6722C38.302 25.7166 41.1178 20.4113 45.5024 16.9923C42.1835 14.4005 38.0784 12.9938 33.8517 13C23.44 13 15 21.3597 15 31.6722C15 41.9848 23.44 50.3445 33.8517 50.3445C38.0785 50.3507 42.1837 48.9441 45.5027 46.3522C41.1184 42.9338 38.302 37.6282 38.302 31.6722Z" fill="#EB001B"/>
<path d="M76.0077 31.6722C76.0077 41.9848 67.5677 50.3445 57.1559 50.3445C52.9287 50.3506 48.8231 48.944 45.5034 46.3522C49.8893 42.9332 52.7051 37.6282 52.7051 31.6722C52.7051 25.7163 49.8893 20.4113 45.5034 16.9923C48.823 14.4006 52.9285 12.9939 57.1556 13C67.5674 13 76.0074 21.3597 76.0074 31.6722" fill="#F79E1B"/>
<path d="M339.546 220.299V219.74H339.399L339.229 220.123L339.061 219.74H338.913V220.299H339.018V219.878L339.176 220.241H339.284L339.443 219.877V220.299H339.547H339.546ZM338.615 220.299V219.836H338.803V219.742H338.322V219.836H338.51V220.299H338.614H338.615Z" fill="#F79410"/>
<path d="M322.855 222.694H310.146V200.075H322.855L322.855 222.694Z" fill="#FF5F00"/>
<path d="M310.952 211.385C310.952 206.797 313.121 202.71 316.499 200.076C313.942 198.079 310.779 196.995 307.523 197C299.502 197 293 203.44 293 211.385C293 219.33 299.502 225.77 307.523 225.77C310.78 225.775 313.942 224.691 316.499 222.694C313.121 220.061 310.952 215.973 310.952 211.385Z" fill="#EB001B"/>
<path d="M340 211.385C340 219.33 333.498 225.77 325.477 225.77C322.22 225.775 319.057 224.691 316.5 222.694C319.879 220.06 322.048 215.973 322.048 211.385C322.048 206.797 319.879 202.71 316.5 200.076C319.057 198.079 322.22 196.995 325.476 197C333.498 197 340 203.44 340 211.385" fill="#F79E1B"/>
<path d="M524.389 280H299.611C295.96 280 293 283.134 293 287V308C293 311.866 295.96 315 299.611 315H524.389C528.04 315 531 311.866 531 308V287C531 283.134 528.04 280 524.389 280Z" fill="#E6ECF2"/>
<path d="M794.667 345H307.333C299.417 345 293 348.134 293 352V373C293 376.866 299.417 380 307.333 380H794.667C802.583 380 809 376.866 809 373V352C809 348.134 802.583 345 794.667 345Z" fill="#E6ECF2"/>
<ellipse cx="605.5" cy="214.5" rx="42.5" ry="21.5" fill="url(#paint5_radial_139_2332)"/>
<ellipse cx="697.5" cy="214.5" rx="42.5" ry="21.5" fill="url(#paint6_radial_139_2332)"/>
<ellipse cx="352.5" cy="541.5" rx="42.5" ry="21.5" fill="url(#paint7_radial_139_2332)"/>
<ellipse cx="773.5" cy="214.5" rx="42.5" ry="21.5" fill="url(#paint8_radial_139_2332)"/>
<ellipse cx="363.5" cy="219.5" rx="83.5" ry="41.5" fill="url(#paint9_radial_139_2332)"/>
<ellipse cx="352.5" cy="429.5" rx="70.5" ry="35.5" fill="url(#paint10_radial_139_2332)"/>
<defs>
<linearGradient id="paint0_linear_139_2332" x1="1208" y1="11" x2="1208" y2="51" gradientUnits="userSpaceOnUse">
<stop stop-color="#EDF6FF"/>
<stop offset="1" stop-color="#FFDDDD"/>
</linearGradient>
<linearGradient id="paint1_linear_139_2332" x1="1208.65" y1="17.5396" x2="1208.65" y2="42.1712" gradientUnits="userSpaceOnUse">
<stop stop-color="#CA7541"/>
<stop offset="1" stop-color="#C18156"/>
</linearGradient>
<linearGradient id="paint2_linear_139_2332" x1="1209.41" y1="15.4517" x2="1209.41" y2="31.5824" gradientUnits="userSpaceOnUse">
<stop stop-color="#1D0024"/>
<stop offset="1" stop-color="#100014"/>
</linearGradient>
<linearGradient id="paint3_linear_139_2332" x1="1208" y1="38.0669" x2="1208" y2="51.5746" gradientUnits="userSpaceOnUse">
<stop stop-color="#1D0024"/>
<stop offset="1" stop-color="#100014"/>
</linearGradient>
<linearGradient id="paint4_linear_139_2332" x1="1208" y1="38.3335" x2="1208" y2="51.2668" gradientUnits="userSpaceOnUse">
<stop stop-color="#EDF6FF"/>
<stop offset="1" stop-color="#FFDDDD"/>
</linearGradient>
<radialGradient id="paint5_radial_139_2332" cx="0" cy="0" r="1" gradientUnits="userSpaceOnUse" gradientTransform="translate(605.5 214.5) rotate(90) scale(21.5 42.5)">
<stop stop-color="#FF4D00"/>
<stop offset="0.244792" stop-color="#FFA800"/>
<stop offset="0.708333" stop-color="#33FF00" stop-opacity="0.458333"/>
<stop offset="1" stop-color="white" stop-opacity="0"/>
</radialGradient>
<radialGradient id="paint6_radial_139_2332" cx="0" cy="0" r="1" gradientUnits="userSpaceOnUse" gradientTransform="translate(697.5 214.5) rotate(90) scale(21.5 42.5)">
<stop stop-color="#FF4D00"/>
<stop offset="0.5" stop-color="#FFA800"/>
<stop offset="1" stop-color="white" stop-opacity="0"/>
</radialGradient>
<radialGradient id="paint7_radial_139_2332" cx="0" cy="0" r="1" gradientUnits="userSpaceOnUse" gradientTransform="translate(352.5 541.5) rotate(90) scale(21.5 42.5)">
<stop stop-color="#FF4D00"/>
<stop offset="0.5" stop-color="#FFA800"/>
<stop offset="1" stop-color="white" stop-opacity="0"/>
</radialGradient>
<radialGradient id="paint8_radial_139_2332" cx="0" cy="0" r="1" gradientUnits="userSpaceOnUse" gradientTransform="translate(773.5 214.5) rotate(90) scale(21.5 42.5)">
<stop offset="0.0625" stop-color="#33FF00" stop-opacity="0.458333"/>
<stop offset="1" stop-color="white" stop-opacity="0"/>
</radialGradient>
<radialGradient id="paint9_radial_139_2332" cx="0" cy="0" r="1" gradientUnits="userSpaceOnUse" gradientTransform="translate(363.5 219.5) rotate(90) scale(41.5 83.5)">
<stop stop-color="#FF4D00"/>
<stop offset="0.244792" stop-color="#FFA800"/>
<stop offset="0.708333" stop-color="#33FF00" stop-opacity="0.458333"/>
<stop offset="1" stop-color="white" stop-opacity="0"/>
</radialGradient>
<radialGradient id="paint10_radial_139_2332" cx="0" cy="0" r="1" gradientUnits="userSpaceOnUse" gradientTransform="translate(352.5 429.5) rotate(90) scale(35.5 70.5)">
<stop stop-color="#FF4D00"/>
<stop offset="0.244792" stop-color="#FFA800"/>
<stop offset="0.708333" stop-color="#33FF00" stop-opacity="0.458333"/>
<stop offset="1" stop-color="white" stop-opacity="0"/>
</radialGradient>
<clipPath id="clip0_139_2332">
<path d="M1228 31C1228 19.9543 1219.05 11 1208 11V11C1196.95 11 1188 19.9543 1188 31V31C1188 42.0457 1196.95 51 1208 51V51C1219.05 51 1228 42.0457 1228 31V31Z" fill="white"/>
</clipPath>
</defs>
</svg>
