<svg width="1253" height="693" viewBox="0 0 1253 693" fill="none" xmlns="http://www.w3.org/2000/svg">
<path d="M1237.76 0H28.7441C20.6012 0 14 4.58974 14 10.2515V682.749C14 688.41 20.6012 693 28.7441 693H1237.76C1245.9 693 1252.5 688.41 1252.5 682.749V10.2515C1252.5 4.58974 1245.9 0 1237.76 0Z" fill="white"/>
<path d="M208.406 103.95H76.6097C73.5768 103.95 71.1182 105.427 71.1182 107.25V110.55C71.1182 112.372 73.5768 113.85 76.6097 113.85H208.406C211.438 113.85 213.897 112.372 213.897 110.55V107.25C213.897 105.427 211.438 103.95 208.406 103.95Z" fill="#CBD5E1"/>
<path d="M208.406 283.95H76.6097C73.5768 283.95 71.1182 285.427 71.1182 287.25V290.55C71.1182 292.372 73.5768 293.85 76.6097 293.85H208.406C211.438 293.85 213.897 292.372 213.897 290.55V287.25C213.897 285.427 211.438 283.95 208.406 283.95Z" fill="#CBD5E1"/>
<rect x="45" y="99" width="19.1533" height="18.15" rx="1" fill="#CBD5E1"/>
<rect x="45" y="279" width="19.1533" height="18.15" rx="1" fill="#CBD5E1"/>
<rect x="45" y="189.75" width="19.1533" height="18.15" rx="1" fill="#CBD5E1"/>
<rect x="45" y="234.3" width="19.1533" height="18.15" rx="1" fill="#CBD5E1"/>
<path d="M131.77 148.5H76.632C73.5868 148.5 71.1182 149.977 71.1182 151.8V155.1C71.1182 156.922 73.5868 158.4 76.632 158.4H131.77C134.815 158.4 137.284 156.922 137.284 155.1V151.8C137.284 149.977 134.815 148.5 131.77 148.5Z" fill="#8585FF"/>
<rect x="45" y="145.2" width="19.1533" height="16.5" rx="1" fill="#8585FF"/>
<path d="M116.003 193.05H76.7287C73.6301 193.05 71.1182 194.774 71.1182 196.9V200.75C71.1182 202.876 73.6301 204.6 76.7287 204.6H116.003C119.101 204.6 121.613 202.876 121.613 200.75V196.9C121.613 194.774 119.101 193.05 116.003 193.05Z" fill="#CBD5E1"/>
<path d="M171.742 239.25H76.7084C73.621 239.25 71.1182 240.727 71.1182 242.55V245.85C71.1182 247.672 73.621 249.15 76.7084 249.15H171.742C174.829 249.15 177.332 247.672 177.332 245.85V242.55C177.332 240.727 174.829 239.25 171.742 239.25Z" fill="#CBD5E1"/>
<rect x="1170.52" y="37.9717" width="85.5157" height="13.9718" rx="1" transform="rotate(-180 1170.52 37.9717)" fill="#CBD5E1"/>
<path d="M984.056 187H883.944C882.318 187 881 188.254 881 189.8V198.2C881 199.746 882.318 201 883.944 201H984.056C985.682 201 987 199.746 987 198.2V189.8C987 188.254 985.682 187 984.056 187Z" fill="#E6ECF2"/>
<path d="M984.056 307H883.944C882.318 307 881 308.254 881 309.8V318.2C881 319.746 882.318 321 883.944 321H984.056C985.682 321 987 319.746 987 318.2V309.8C987 308.254 985.682 307 984.056 307Z" fill="#E6ECF2"/>
<path d="M984.056 427H883.944C882.318 427 881 428.254 881 429.8V438.2C881 439.746 882.318 441 883.944 441H984.056C985.682 441 987 439.746 987 438.2V429.8C987 428.254 985.682 427 984.056 427Z" fill="#E6ECF2"/>
<path d="M395.209 172H294.949C293.32 172 292 173.32 292 174.949V183.795C292 185.424 293.32 186.744 294.949 186.744H395.209C396.837 186.744 398.157 185.424 398.157 183.795V174.949C398.157 173.32 396.837 172 395.209 172Z" fill="#E6ECF2"/>
<path d="M689.639 202H303.361C297.087 202 292 203.343 292 205V214C292 215.657 297.087 217 303.361 217H689.639C695.913 217 701 215.657 701 214V205C701 203.343 695.913 202 689.639 202Z" fill="#E6ECF2" fill-opacity="0.4"/>
<path d="M689.639 426H303.361C297.087 426 292 427.343 292 429V438C292 439.657 297.087 441 303.361 441H689.639C695.913 441 701 439.657 701 438V429C701 427.343 695.913 426 689.639 426Z" fill="#E6ECF2" fill-opacity="0.4"/>
<path d="M502.972 457H298.028C294.699 457 292 458.343 292 460V469C292 470.657 294.699 472 298.028 472H502.972C506.301 472 509 470.657 509 469V460C509 458.343 506.301 457 502.972 457Z" fill="#E6ECF2" fill-opacity="0.4"/>
<path d="M395.209 386H294.949C293.32 386 292 387.32 292 388.949V397.795C292 399.424 293.32 400.744 294.949 400.744H395.209C396.837 400.744 398.157 399.424 398.157 397.795V388.949C398.157 387.32 396.837 386 395.209 386Z" fill="#E6ECF2"/>
<path d="M395.209 577H294.949C293.32 577 292 578.32 292 579.949V588.795C292 590.424 293.32 591.744 294.949 591.744H395.209C396.837 591.744 398.157 590.424 398.157 588.795V579.949C398.157 578.32 396.837 577 395.209 577Z" fill="#E6ECF2"/>
<rect x="274" y="152" width="520" height="172" rx="5" stroke="#E2E8F0" stroke-width="2"/>
<rect x="293" y="242" width="192" height="33" rx="5" stroke="#E2E8F0" stroke-width="2"/>
<rect x="293" y="487" width="192" height="33" rx="5" stroke="#E2E8F0" stroke-width="2"/>
<rect x="882" y="224" width="288" height="56" rx="5" stroke="#E2E8F0" stroke-width="2"/>
<rect x="882" y="344" width="288" height="56" rx="5" stroke="#E2E8F0" stroke-width="2"/>
<rect x="882" y="464" width="288" height="56" rx="5" stroke="#E2E8F0" stroke-width="2"/>
<rect x="859" y="156" width="346" height="483" rx="5" stroke="#E2E8F0" stroke-width="2"/>
<rect x="274" y="366" width="520" height="172" rx="5" stroke="#E2E8F0" stroke-width="2"/>
<rect x="274" y="565" width="520" height="74" rx="5" stroke="#E2E8F0" stroke-width="2"/>
<line y1="60.1833" x2="1238" y2="60.1833" stroke="#E2E8F0"/>
<path d="M283.752 119.364C282.427 119.364 281.181 119.103 280.014 118.58C278.847 118.048 277.821 117.315 276.934 116.382C276.057 115.449 275.366 114.371 274.862 113.148C274.367 111.916 274.12 110.6 274.12 109.2C274.12 107.791 274.367 106.475 274.862 105.252C275.366 104.02 276.057 102.942 276.934 102.018C277.821 101.085 278.847 100.357 280.014 99.834C281.181 99.302 282.427 99.036 283.752 99.036C285.339 99.036 286.799 99.4047 288.134 100.142C289.469 100.87 290.575 101.845 291.452 103.068L288.4 104.706C287.849 104.025 287.163 103.479 286.342 103.068C285.53 102.657 284.667 102.452 283.752 102.452C282.893 102.452 282.086 102.629 281.33 102.984C280.574 103.329 279.911 103.815 279.342 104.44C278.773 105.056 278.329 105.775 278.012 106.596C277.695 107.408 277.536 108.276 277.536 109.2C277.536 110.133 277.695 111.006 278.012 111.818C278.339 112.63 278.787 113.349 279.356 113.974C279.925 114.59 280.583 115.075 281.33 115.43C282.086 115.775 282.893 115.948 283.752 115.948C284.685 115.948 285.553 115.743 286.356 115.332C287.168 114.912 287.849 114.361 288.4 113.68L291.452 115.332C290.575 116.545 289.469 117.521 288.134 118.258C286.799 118.995 285.339 119.364 283.752 119.364ZM294.026 119L294.012 105H297.428L297.442 106.246C297.918 105.742 298.487 105.345 299.15 105.056C299.813 104.757 300.527 104.608 301.292 104.608C301.805 104.608 302.319 104.683 302.832 104.832L301.488 108.276C301.133 108.136 300.779 108.066 300.424 108.066C299.873 108.066 299.369 108.201 298.912 108.472C298.464 108.733 298.105 109.093 297.834 109.55C297.573 109.998 297.442 110.497 297.442 111.048V119H294.026ZM309.906 119.364C308.618 119.364 307.442 119.033 306.378 118.37C305.324 117.707 304.479 116.816 303.844 115.696C303.219 114.576 302.906 113.339 302.906 111.986C302.906 110.969 303.088 110.017 303.452 109.13C303.816 108.234 304.316 107.45 304.95 106.778C305.594 106.097 306.341 105.565 307.19 105.182C308.04 104.799 308.945 104.608 309.906 104.608C310.998 104.608 311.997 104.841 312.902 105.308C313.817 105.765 314.592 106.395 315.226 107.198C315.861 108.001 316.323 108.915 316.612 109.942C316.902 110.969 316.967 112.042 316.808 113.162H306.574C306.705 113.685 306.92 114.156 307.218 114.576C307.517 114.987 307.895 115.318 308.352 115.57C308.81 115.813 309.328 115.939 309.906 115.948C310.504 115.957 311.045 115.817 311.53 115.528C312.025 115.229 312.436 114.828 312.762 114.324L316.248 115.136C315.679 116.377 314.83 117.395 313.7 118.188C312.571 118.972 311.306 119.364 309.906 119.364ZM306.462 110.6H313.35C313.248 110.04 313.028 109.536 312.692 109.088C312.366 108.631 311.96 108.267 311.474 107.996C310.989 107.725 310.466 107.59 309.906 107.59C309.346 107.59 308.828 107.725 308.352 107.996C307.876 108.257 307.47 108.617 307.134 109.074C306.808 109.522 306.584 110.031 306.462 110.6ZM329.697 105H333.113V119H329.697L329.543 117.264C329.16 117.889 328.652 118.398 328.017 118.79C327.392 119.173 326.65 119.364 325.791 119.364C324.755 119.364 323.784 119.168 322.879 118.776C321.974 118.384 321.176 117.843 320.485 117.152C319.804 116.461 319.267 115.663 318.875 114.758C318.492 113.853 318.301 112.882 318.301 111.846C318.301 110.847 318.483 109.909 318.847 109.032C319.22 108.155 319.738 107.385 320.401 106.722C321.064 106.059 321.829 105.541 322.697 105.168C323.565 104.795 324.498 104.608 325.497 104.608C326.421 104.608 327.247 104.813 327.975 105.224C328.712 105.635 329.338 106.157 329.851 106.792L329.697 105ZM325.707 116.074C326.435 116.074 327.079 115.892 327.639 115.528C328.199 115.164 328.638 114.674 328.955 114.058C329.272 113.433 329.431 112.747 329.431 112C329.431 111.244 329.272 110.558 328.955 109.942C328.638 109.317 328.194 108.822 327.625 108.458C327.065 108.094 326.426 107.912 325.707 107.912C324.988 107.912 324.33 108.099 323.733 108.472C323.145 108.836 322.674 109.326 322.319 109.942C321.974 110.558 321.801 111.244 321.801 112C321.801 112.756 321.978 113.442 322.333 114.058C322.688 114.674 323.159 115.164 323.747 115.528C324.344 115.892 324.998 116.074 325.707 116.074ZM343.407 108.416H340.691V119H337.275V108.416H335.203V105H337.275V100.604H340.691V105H343.407V108.416ZM351.797 119.364C350.509 119.364 349.333 119.033 348.269 118.37C347.214 117.707 346.37 116.816 345.735 115.696C345.11 114.576 344.797 113.339 344.797 111.986C344.797 110.969 344.979 110.017 345.343 109.13C345.707 108.234 346.206 107.45 346.841 106.778C347.485 106.097 348.232 105.565 349.081 105.182C349.93 104.799 350.836 104.608 351.797 104.608C352.889 104.608 353.888 104.841 354.793 105.308C355.708 105.765 356.482 106.395 357.117 107.198C357.752 108.001 358.214 108.915 358.503 109.942C358.792 110.969 358.858 112.042 358.699 113.162H348.465C348.596 113.685 348.81 114.156 349.109 114.576C349.408 114.987 349.786 115.318 350.243 115.57C350.7 115.813 351.218 115.939 351.797 115.948C352.394 115.957 352.936 115.817 353.421 115.528C353.916 115.229 354.326 114.828 354.653 114.324L358.139 115.136C357.57 116.377 356.72 117.395 355.591 118.188C354.462 118.972 353.197 119.364 351.797 119.364ZM348.353 110.6H355.241C355.138 110.04 354.919 109.536 354.583 109.088C354.256 108.631 353.85 108.267 353.365 107.996C352.88 107.725 352.357 107.59 351.797 107.59C351.237 107.59 350.719 107.725 350.243 107.996C349.767 108.257 349.361 108.617 349.025 109.074C348.698 109.522 348.474 110.031 348.353 110.6ZM380.044 99.4H384.076L377.342 110.166V119H373.926V110.166L367.192 99.4H371.224L375.634 106.442L380.044 99.4ZM389.778 119.364C388.49 119.364 387.314 119.033 386.25 118.37C385.195 117.707 384.35 116.821 383.716 115.71C383.09 114.59 382.778 113.353 382.778 112C382.778 110.973 382.96 110.017 383.324 109.13C383.688 108.234 384.187 107.45 384.822 106.778C385.466 106.097 386.212 105.565 387.062 105.182C387.911 104.799 388.816 104.608 389.778 104.608C391.066 104.608 392.237 104.939 393.292 105.602C394.356 106.265 395.2 107.156 395.826 108.276C396.46 109.396 396.778 110.637 396.778 112C396.778 113.017 396.596 113.969 396.232 114.856C395.868 115.743 395.364 116.527 394.72 117.208C394.085 117.88 393.343 118.407 392.494 118.79C391.654 119.173 390.748 119.364 389.778 119.364ZM389.778 115.948C390.459 115.948 391.07 115.766 391.612 115.402C392.153 115.038 392.578 114.557 392.886 113.96C393.203 113.363 393.362 112.709 393.362 112C393.362 111.272 393.198 110.609 392.872 110.012C392.554 109.405 392.12 108.925 391.57 108.57C391.028 108.206 390.431 108.024 389.778 108.024C389.106 108.024 388.499 108.206 387.958 108.57C387.416 108.934 386.987 109.419 386.67 110.026C386.352 110.633 386.194 111.291 386.194 112C386.194 112.737 386.357 113.405 386.684 114.002C387.01 114.599 387.444 115.075 387.986 115.43C388.536 115.775 389.134 115.948 389.778 115.948ZM398.069 113.82V105H401.485V112.924C401.485 113.475 401.621 113.979 401.891 114.436C402.162 114.884 402.521 115.243 402.969 115.514C403.427 115.775 403.926 115.906 404.467 115.906C405.027 115.906 405.531 115.775 405.979 115.514C406.427 115.243 406.787 114.884 407.057 114.436C407.328 113.979 407.463 113.475 407.463 112.924V105H410.879L410.893 119H407.477L407.463 117.726C406.978 118.23 406.404 118.631 405.741 118.93C405.079 119.219 404.369 119.364 403.613 119.364C402.596 119.364 401.667 119.117 400.827 118.622C399.987 118.118 399.315 117.451 398.811 116.62C398.317 115.78 398.069 114.847 398.069 113.82ZM413.71 119L413.696 105H417.112L417.126 106.246C417.602 105.742 418.171 105.345 418.834 105.056C419.496 104.757 420.21 104.608 420.976 104.608C421.489 104.608 422.002 104.683 422.516 104.832L421.172 108.276C420.817 108.136 420.462 108.066 420.108 108.066C419.557 108.066 419.053 108.201 418.596 108.472C418.148 108.733 417.788 109.093 417.518 109.55C417.256 109.998 417.126 110.497 417.126 111.048V119H413.71ZM438.252 119.364C437.169 119.364 436.128 119.196 435.13 118.86C434.14 118.515 433.272 118.025 432.526 117.39C431.779 116.746 431.242 115.976 430.916 115.08L434.122 113.904C434.252 114.277 434.518 114.618 434.92 114.926C435.321 115.234 435.811 115.481 436.39 115.668C436.968 115.855 437.589 115.948 438.252 115.948C438.933 115.948 439.568 115.845 440.156 115.64C440.753 115.425 441.234 115.131 441.598 114.758C441.962 114.375 442.144 113.932 442.144 113.428C442.144 112.915 441.952 112.495 441.57 112.168C441.187 111.832 440.697 111.566 440.1 111.37C439.502 111.174 438.886 111.025 438.252 110.922C436.861 110.707 435.615 110.376 434.514 109.928C433.412 109.48 432.54 108.859 431.896 108.066C431.261 107.273 430.944 106.246 430.944 104.986C430.944 103.801 431.284 102.765 431.966 101.878C432.647 100.991 433.543 100.301 434.654 99.806C435.764 99.3113 436.964 99.064 438.252 99.064C439.325 99.064 440.361 99.232 441.36 99.568C442.358 99.904 443.231 100.394 443.978 101.038C444.734 101.682 445.275 102.457 445.602 103.362L442.382 104.524C442.251 104.151 441.985 103.81 441.584 103.502C441.182 103.194 440.692 102.951 440.114 102.774C439.535 102.587 438.914 102.494 438.252 102.494C437.589 102.485 436.959 102.592 436.362 102.816C435.774 103.031 435.293 103.325 434.92 103.698C434.546 104.071 434.36 104.501 434.36 104.986C434.36 105.611 434.532 106.083 434.878 106.4C435.232 106.717 435.704 106.951 436.292 107.1C436.88 107.24 437.533 107.371 438.252 107.492C439.558 107.697 440.767 108.043 441.878 108.528C442.988 109.013 443.88 109.662 444.552 110.474C445.224 111.277 445.56 112.261 445.56 113.428C445.56 114.613 445.224 115.654 444.552 116.55C443.88 117.437 442.988 118.127 441.878 118.622C440.767 119.117 439.558 119.364 438.252 119.364ZM447.78 113.82V105H451.196V112.924C451.196 113.475 451.331 113.979 451.602 114.436C451.873 114.884 452.232 115.243 452.68 115.514C453.137 115.775 453.637 115.906 454.178 115.906C454.738 115.906 455.242 115.775 455.69 115.514C456.138 115.243 456.497 114.884 456.768 114.436C457.039 113.979 457.174 113.475 457.174 112.924V105H460.59L460.604 119H457.188L457.174 117.726C456.689 118.23 456.115 118.631 455.452 118.93C454.789 119.219 454.08 119.364 453.324 119.364C452.307 119.364 451.378 119.117 450.538 118.622C449.698 118.118 449.026 117.451 448.522 116.62C448.027 115.78 447.78 114.847 447.78 113.82ZM463.421 119L463.407 105H466.823L466.837 106.246C467.313 105.742 467.882 105.345 468.545 105.056C469.207 104.757 469.921 104.608 470.687 104.608C471.2 104.608 471.713 104.683 472.227 104.832L470.883 108.276C470.528 108.136 470.173 108.066 469.819 108.066C469.268 108.066 468.764 108.201 468.307 108.472C467.859 108.733 467.499 109.093 467.229 109.55C466.967 109.998 466.837 110.497 466.837 111.048V119H463.421ZM482.846 119H478.436L473.34 104.986H476.98L480.648 115.066L484.302 104.986H487.942L482.846 119ZM495.625 119.364C494.337 119.364 493.161 119.033 492.097 118.37C491.042 117.707 490.198 116.816 489.563 115.696C488.938 114.576 488.625 113.339 488.625 111.986C488.625 110.969 488.807 110.017 489.171 109.13C489.535 108.234 490.034 107.45 490.669 106.778C491.313 106.097 492.06 105.565 492.909 105.182C493.758 104.799 494.664 104.608 495.625 104.608C496.717 104.608 497.716 104.841 498.621 105.308C499.536 105.765 500.31 106.395 500.945 107.198C501.58 108.001 502.042 108.915 502.331 109.942C502.62 110.969 502.686 112.042 502.527 113.162H492.293C492.424 113.685 492.638 114.156 492.937 114.576C493.236 114.987 493.614 115.318 494.071 115.57C494.528 115.813 495.046 115.939 495.625 115.948C496.222 115.957 496.764 115.817 497.249 115.528C497.744 115.229 498.154 114.828 498.481 114.324L501.967 115.136C501.398 116.377 500.548 117.395 499.419 118.188C498.29 118.972 497.025 119.364 495.625 119.364ZM492.181 110.6H499.069C498.966 110.04 498.747 109.536 498.411 109.088C498.084 108.631 497.678 108.267 497.193 107.996C496.708 107.725 496.185 107.59 495.625 107.59C495.065 107.59 494.547 107.725 494.071 107.996C493.595 108.257 493.189 108.617 492.853 109.074C492.526 109.522 492.302 110.031 492.181 110.6ZM513.534 105H517.16L509.502 126H505.876L508.41 119L503.37 105H507.108L510.118 114.324L513.534 105Z" fill="#18303F" fill-opacity="0.6"/>
<path d="M859.2 133V119H864.2C864.96 119 865.647 119.19 866.26 119.57C866.88 119.95 867.37 120.46 867.73 121.1C868.09 121.74 868.27 122.443 868.27 123.21C868.27 123.997 868.083 124.71 867.71 125.35C867.343 125.983 866.85 126.49 866.23 126.87C865.61 127.243 864.933 127.43 864.2 127.43H861.64V133H859.2ZM861.64 124.99H863.94C864.287 124.99 864.603 124.903 864.89 124.73C865.177 124.557 865.403 124.323 865.57 124.03C865.743 123.737 865.83 123.41 865.83 123.05C865.83 122.683 865.743 122.353 865.57 122.06C865.403 121.767 865.177 121.533 864.89 121.36C864.603 121.187 864.287 121.1 863.94 121.1H861.64V124.99ZM870.098 133V119H875.468C876.228 119 876.915 119.19 877.528 119.57C878.142 119.95 878.628 120.46 878.988 121.1C879.348 121.733 879.528 122.437 879.528 123.21C879.528 123.843 879.412 124.427 879.178 124.96C878.952 125.487 878.632 125.943 878.218 126.33C877.812 126.717 877.342 127.01 876.808 127.21L880.158 133H877.348L874.108 127.43H872.538V133H870.098ZM872.538 124.99H875.188C875.535 124.99 875.852 124.903 876.138 124.73C876.425 124.557 876.655 124.323 876.828 124.03C877.002 123.737 877.088 123.41 877.088 123.05C877.088 122.683 877.002 122.353 876.828 122.06C876.655 121.767 876.425 121.533 876.138 121.36C875.852 121.187 875.535 121.1 875.188 121.1H872.538V124.99ZM882.052 133V119H890.832V121.44H884.492V124.28H889.522V126.72H884.492V130.56H890.832V133H882.052ZM897.796 133L892.716 119H895.306L899.356 130.15L903.416 119H905.996L900.916 133H897.796ZM908.094 133V119H910.534V133H908.094ZM913.243 133V119H922.023V121.44H915.683V124.28H920.713V126.72H915.683V130.56H922.023V133H913.243ZM927.488 133L923.908 119H926.428L928.868 128.57L931.308 119H933.538L935.978 128.57L938.408 119H940.928L937.368 133H934.598L932.418 124.52L930.268 133H927.488Z" fill="#18303F" fill-opacity="0.3"/>
<rect x="1033" y="543" width="138" height="42" rx="9.25373" fill="#5233FF"/>
<rect x="646" y="241" width="36" height="36" rx="9.25373" fill="#CEDDE9"/>
<rect x="650" y="473" width="36" height="36" rx="9.25373" fill="#CEDDE9"/>
<rect x="689" y="241" width="36" height="36" rx="9.25373" fill="#E2E8F0" fill-opacity="0.5"/>
<rect x="693" y="473" width="36" height="36" rx="9.25373" fill="#E2E8F0" fill-opacity="0.5"/>
<rect x="721" y="96" width="74" height="36" rx="9.25373" fill="#5233FF"/>
<path d="M1077.36 571.234C1076.66 571.234 1075.99 571.126 1075.35 570.91C1074.71 570.688 1074.16 570.373 1073.68 569.965C1073.2 569.551 1072.85 569.056 1072.64 568.48L1074.7 567.724C1074.79 567.964 1074.96 568.183 1075.22 568.381C1075.47 568.579 1075.79 568.738 1076.16 568.858C1076.53 568.978 1076.93 569.038 1077.36 569.038C1077.8 569.038 1078.2 568.972 1078.58 568.84C1078.97 568.702 1079.27 568.513 1079.51 568.273C1079.74 568.027 1079.86 567.742 1079.86 567.418C1079.86 567.088 1079.74 566.818 1079.49 566.608C1079.24 566.392 1078.93 566.221 1078.55 566.095C1078.16 565.969 1077.77 565.873 1077.36 565.807C1076.46 565.669 1075.66 565.456 1074.95 565.168C1074.25 564.88 1073.69 564.481 1073.27 563.971C1072.86 563.461 1072.66 562.801 1072.66 561.991C1072.66 561.229 1072.88 560.563 1073.32 559.993C1073.75 559.423 1074.33 558.979 1075.04 558.661C1075.76 558.343 1076.53 558.184 1077.36 558.184C1078.05 558.184 1078.71 558.292 1079.36 558.508C1080 558.724 1080.56 559.039 1081.04 559.453C1081.52 559.867 1081.87 560.365 1082.08 560.947L1080.01 561.694C1079.93 561.454 1079.76 561.235 1079.5 561.037C1079.24 560.839 1078.93 560.683 1078.55 560.569C1078.18 560.449 1077.78 560.389 1077.36 560.389C1076.93 560.383 1076.53 560.452 1076.14 560.596C1075.76 560.734 1075.46 560.923 1075.22 561.163C1074.98 561.403 1074.86 561.679 1074.86 561.991C1074.86 562.393 1074.97 562.696 1075.19 562.9C1075.42 563.104 1075.72 563.254 1076.1 563.35C1076.48 563.44 1076.9 563.524 1077.36 563.602C1078.2 563.734 1078.97 563.956 1079.69 564.268C1080.4 564.58 1080.98 564.997 1081.41 565.519C1081.84 566.035 1082.06 566.668 1082.06 567.418C1082.06 568.18 1081.84 568.849 1081.41 569.425C1080.98 569.995 1080.4 570.439 1079.69 570.757C1078.97 571.075 1078.2 571.234 1077.36 571.234ZM1083.48 567.67V562H1085.68V567.094C1085.68 567.448 1085.77 567.772 1085.94 568.066C1086.11 568.354 1086.34 568.585 1086.63 568.759C1086.93 568.927 1087.25 569.011 1087.6 569.011C1087.96 569.011 1088.28 568.927 1088.57 568.759C1088.86 568.585 1089.09 568.354 1089.26 568.066C1089.43 567.772 1089.52 567.448 1089.52 567.094V562H1091.72L1091.73 571H1089.53L1089.52 570.181C1089.21 570.505 1088.84 570.763 1088.41 570.955C1087.99 571.141 1087.53 571.234 1087.05 571.234C1086.39 571.234 1085.8 571.075 1085.26 570.757C1084.72 570.433 1084.28 570.004 1083.96 569.47C1083.64 568.93 1083.48 568.33 1083.48 567.67ZM1098.37 561.748C1099.24 561.748 1100.04 561.961 1100.76 562.387C1101.48 562.813 1102.06 563.386 1102.48 564.106C1102.91 564.82 1103.12 565.612 1103.12 566.482C1103.12 567.136 1103 567.751 1102.75 568.327C1102.51 568.903 1102.16 569.41 1101.73 569.848C1101.29 570.28 1100.79 570.619 1100.21 570.865C1099.64 571.111 1099.03 571.234 1098.37 571.234C1097.8 571.234 1097.3 571.108 1096.87 570.856C1096.43 570.598 1096.07 570.265 1095.78 569.857V571H1093.58V557.5H1095.78V563.125C1096.07 562.717 1096.43 562.387 1096.87 562.135C1097.3 561.877 1097.8 561.748 1098.37 561.748ZM1098.34 569.11C1098.81 569.11 1099.23 568.993 1099.61 568.759C1099.99 568.519 1100.3 568.201 1100.53 567.805C1100.76 567.409 1100.87 566.968 1100.87 566.482C1100.87 566.002 1100.76 565.564 1100.53 565.168C1100.3 564.766 1099.99 564.448 1099.61 564.214C1099.23 563.98 1098.8 563.863 1098.34 563.863C1097.89 563.863 1097.48 563.983 1097.12 564.223C1096.76 564.457 1096.48 564.775 1096.27 565.177C1096.07 565.573 1095.97 566.008 1095.97 566.482C1095.97 566.968 1096.07 567.412 1096.27 567.814C1096.48 568.21 1096.76 568.525 1097.12 568.759C1097.48 568.993 1097.89 569.11 1098.34 569.11ZM1104.53 571V562H1106.73V562.801C1107.03 562.477 1107.4 562.222 1107.83 562.036C1108.25 561.844 1108.71 561.748 1109.2 561.748C1109.83 561.748 1110.4 561.895 1110.92 562.189C1111.45 562.483 1111.87 562.876 1112.18 563.368C1112.5 562.876 1112.92 562.483 1113.44 562.189C1113.96 561.895 1114.54 561.748 1115.16 561.748C1115.82 561.748 1116.42 561.91 1116.95 562.234C1117.49 562.552 1117.92 562.981 1118.24 563.521C1118.56 564.055 1118.73 564.652 1118.73 565.312V571H1116.53V565.897C1116.53 565.549 1116.44 565.231 1116.27 564.943C1116.1 564.649 1115.87 564.415 1115.58 564.241C1115.3 564.061 1114.98 563.971 1114.63 563.971C1114.28 563.971 1113.96 564.058 1113.67 564.232C1113.39 564.4 1113.16 564.628 1112.98 564.916C1112.81 565.204 1112.72 565.531 1112.72 565.897V571H1110.53V565.897C1110.53 565.531 1110.44 565.204 1110.27 564.916C1110.11 564.628 1109.88 564.4 1109.59 564.232C1109.3 564.058 1108.98 563.971 1108.63 563.971C1108.28 563.971 1107.96 564.061 1107.67 564.241C1107.39 564.415 1107.15 564.649 1106.98 564.943C1106.81 565.231 1106.73 565.549 1106.73 565.897V571H1104.53ZM1120.53 562H1122.72V571H1120.53V562ZM1121.64 560.839C1121.32 560.839 1121.05 560.734 1120.83 560.524C1120.6 560.308 1120.49 560.038 1120.49 559.714C1120.49 559.396 1120.6 559.129 1120.83 558.913C1121.05 558.697 1121.32 558.589 1121.64 558.589C1121.95 558.589 1122.22 558.697 1122.44 558.913C1122.66 559.129 1122.77 559.396 1122.77 559.714C1122.77 560.038 1122.66 560.308 1122.45 560.524C1122.23 560.734 1121.96 560.839 1121.64 560.839ZM1129.71 564.196H1127.97V571H1125.77V564.196H1124.44V562H1125.77V559.174H1127.97V562H1129.71V564.196Z" fill="white"/>
<path d="M739.949 119.25V116.415H737.114V114.585H739.949V111.75H741.779V114.585H744.614V116.415H741.779V119.25H739.949ZM753.229 109.5H755.336L759.154 120H757.211L756.536 118.14H752.036L751.361 120H749.419L753.229 109.5ZM752.704 116.31H755.861L754.279 111.982L752.704 116.31ZM765.57 108.75H767.4V120H765.57V119.062C765.33 119.397 765.027 119.67 764.662 119.88C764.297 120.09 763.875 120.195 763.395 120.195C762.85 120.195 762.34 120.093 761.865 119.887C761.39 119.682 760.97 119.4 760.605 119.04C760.245 118.675 759.962 118.255 759.757 117.78C759.552 117.305 759.45 116.795 759.45 116.25C759.45 115.705 759.552 115.195 759.757 114.72C759.962 114.245 760.245 113.827 760.605 113.467C760.97 113.102 761.39 112.817 761.865 112.612C762.34 112.407 762.85 112.305 763.395 112.305C763.875 112.305 764.297 112.41 764.662 112.62C765.027 112.825 765.33 113.097 765.57 113.437V108.75ZM763.417 118.432C763.807 118.432 764.152 118.335 764.452 118.14C764.752 117.945 764.987 117.682 765.157 117.352C765.327 117.017 765.412 116.65 765.412 116.25C765.412 115.845 765.327 115.477 765.157 115.147C764.987 114.812 764.75 114.547 764.445 114.352C764.145 114.157 763.802 114.06 763.417 114.06C763.032 114.06 762.68 114.16 762.36 114.36C762.045 114.555 761.792 114.817 761.602 115.147C761.417 115.477 761.325 115.845 761.325 116.25C761.325 116.655 761.42 117.022 761.61 117.352C761.8 117.682 762.052 117.945 762.367 118.14C762.687 118.335 763.037 118.432 763.417 118.432ZM774.754 108.75H776.584V120H774.754V119.062C774.514 119.397 774.212 119.67 773.847 119.88C773.482 120.09 773.059 120.195 772.579 120.195C772.034 120.195 771.524 120.093 771.049 119.887C770.574 119.682 770.154 119.4 769.789 119.04C769.429 118.675 769.147 118.255 768.942 117.78C768.737 117.305 768.634 116.795 768.634 116.25C768.634 115.705 768.737 115.195 768.942 114.72C769.147 114.245 769.429 113.827 769.789 113.467C770.154 113.102 770.574 112.817 771.049 112.612C771.524 112.407 772.034 112.305 772.579 112.305C773.059 112.305 773.482 112.41 773.847 112.62C774.212 112.825 774.514 113.097 774.754 113.437V108.75ZM772.602 118.432C772.992 118.432 773.337 118.335 773.637 118.14C773.937 117.945 774.172 117.682 774.342 117.352C774.512 117.017 774.597 116.65 774.597 116.25C774.597 115.845 774.512 115.477 774.342 115.147C774.172 114.812 773.934 114.547 773.629 114.352C773.329 114.157 772.987 114.06 772.602 114.06C772.217 114.06 771.864 114.16 771.544 114.36C771.229 114.555 770.977 114.817 770.787 115.147C770.602 115.477 770.509 115.845 770.509 116.25C770.509 116.655 770.604 117.022 770.794 117.352C770.984 117.682 771.237 117.945 771.552 118.14C771.872 118.335 772.222 118.432 772.602 118.432Z" fill="white"/>
<path d="M56.0092 19C56.0092 19 53.2408 23.5849 53.2408 27.7559C53.2408 32.2134 56.5564 34.6651 60.7412 34.6651C65.4411 34.6651 68.5314 33.2642 76.74 31.1309L122 19.3184C122 19.3184 83.6288 35.7795 65.2801 43.2936C61.6426 44.7901 58.2304 46 53.8524 46C49.0238 46 45 43.1344 45 38.3585C45 34.7288 46.1911 32.0224 48.1869 28.6792C51.3737 23.3302 56.0092 19 56.0092 19Z" fill="#8EA6C2"/>
<g clip-path="url(#clip0_129_208)">
<path d="M1188 31C1188 21.0589 1196.06 13 1206 13V13C1215.94 13 1224 21.0589 1224 31V31C1224 40.9411 1215.94 49 1206 49V49C1196.06 49 1188 40.9411 1188 31V31Z" fill="url(#paint0_linear_129_208)"/>
<path d="M1209.84 34.12V36.82C1209.84 37.34 1202.16 37.1651 1202.16 36.4154C1202.16 35.7098 1202.17 32.5122 1202.16 29.2226C1200.44 26.9933 1200.44 25.6 1201.8 24.16C1203.16 22.72 1212.84 22 1212.84 22C1212.84 22 1213.57 28.9852 1213.68 30.88C1213.73 31.642 1214.22 34.12 1212.3 34.12H1209.84Z" fill="url(#paint1_linear_129_208)"/>
<g style="mix-blend-mode:multiply">
<path d="M1209.84 33.8893C1208.27 33.7187 1206.76 33.2252 1205.4 32.4399C1205.4 32.4399 1206.36 34.7199 1209.84 35.3387V33.8893Z" fill="#FFD7B8"/>
</g>
<path d="M1218.6 42.1968C1219.36 43.7454 1219.96 46.3054 1220.4 49.8768H1191.6C1192.04 46.305 1192.64 43.745 1193.4 42.1968C1194.16 40.6536 1201.2 37.6837 1201.2 37.6837C1201.2 37.6837 1201.34 36.3262 1201.68 36.1315C1202.02 35.9369 1209.92 35.937 1210.32 36.1315C1210.72 36.3261 1210.8 37.683 1210.8 37.683C1210.8 37.683 1217.84 40.6568 1218.6 42.1968Z" fill="white"/>
<path d="M1203.72 25.6247C1203.34 25.297 1202.88 25.0763 1202.22 25.4169C1200.67 26.2237 1201.7 29.3362 1203.44 29.2755C1204.04 29.2546 1203.76 30.4503 1202.16 31.24C1202.16 29.98 1200.24 26.86 1200.07 24.0194C1198.14 23.3 1198.62 20.4215 1199.95 20.4215C1199.73 17.7826 1203.96 16.4197 1205.6 17.9339C1207.26 15.9397 1211.46 16.9597 1211.71 18.6898C1214.6 17.1482 1216.5 21.5797 1213.8 23.3C1212.68 24.008 1210.08 24.2774 1206.32 24.2774C1204.52 24.2774 1205.56 28.4978 1206.12 29.86C1206.84 31.6 1210.86 31.84 1212.12 31.66C1213.1 31.5195 1213.62 31.12 1213.68 30.88C1214.58 33.28 1213.44 34.72 1211.64 34.72C1208.58 34.72 1205.52 33.82 1205.04 31.6C1204.66 29.8333 1204.68 26.9819 1203.72 25.6247Z" fill="url(#paint2_linear_129_208)"/>
</g>
<defs>
<linearGradient id="paint0_linear_129_208" x1="1206" y1="13" x2="1206" y2="46.57" gradientUnits="userSpaceOnUse">
<stop offset="0.0120133" stop-color="#DE00BB"/>
</linearGradient>
<linearGradient id="paint1_linear_129_208" x1="1207.3" y1="22" x2="1207.3" y2="37.1184" gradientUnits="userSpaceOnUse">
<stop stop-color="white"/>
<stop offset="1" stop-color="#FFDCC2"/>
</linearGradient>
<linearGradient id="paint2_linear_129_208" x1="1206.94" y1="34.72" x2="1206.94" y2="16.8394" gradientUnits="userSpaceOnUse">
<stop stop-color="#0D0E11"/>
<stop offset="1"/>
</linearGradient>
<clipPath id="clip0_129_208">
<path d="M1188 31C1188 21.0589 1196.06 13 1206 13V13C1215.94 13 1224 21.0589 1224 31V31C1224 40.9411 1215.94 49 1206 49V49C1196.06 49 1188 40.9411 1188 31V31Z" fill="white"/>
</clipPath>
</defs>
</svg>
