<svg width="172" height="22" viewBox="0 0 172 22" fill="none" xmlns="http://www.w3.org/2000/svg">
<path d="M146.944 8.70749V21.974H151.281V13.1412H167.067V21.974H171.401V8.73049L146.944 8.70749V8.70749ZM150.798 4.4161H167.475C169.792 3.96444 171.514 1.95922 172 0.0193742H146.274C146.755 1.95982 148.503 3.96444 150.798 4.4161V4.4161ZM133.809 21.9824C135.995 21.0731 137.172 19.5001 137.622 17.6596H118.17L118.182 0.0302722L113.821 0.042381V21.9824H133.809V21.9824ZM81.3944 4.35677H96.7963C99.1182 3.69502 101.068 1.95982 101.543 0.0363266H77.0769V13.0019H97.1018V17.5518L81.3944 17.5639C78.9329 18.2372 76.8455 19.8585 75.8043 22L77.0769 21.977H101.404V8.69114H81.3944V4.35677V4.35677ZM43.3722 4.39855H60.0437C62.3632 3.94507 64.0871 1.94166 64.5704 0H38.8455C39.3257 1.94166 41.0749 3.94507 43.3722 4.39855V4.39855ZM43.3722 13.0697H60.0437C62.3632 12.6211 64.0871 10.6158 64.5704 8.67298H38.8455C39.3257 10.6165 41.0749 12.6211 43.3722 13.0697ZM43.3722 21.98H60.0437C62.3632 21.5278 64.0871 19.5231 64.5704 17.5827H38.8455C39.3257 19.5237 41.0749 21.5278 43.3722 21.98ZM0 0.053279C0.501177 1.97072 2.19358 3.93054 4.51553 4.42155H11.5332L11.8912 4.5602V21.931H16.2734V4.5602L16.6715 4.42155H23.6954C26.0433 3.82822 27.6993 1.97072 28.1918 0.053279V0.010898H0V0.053279" fill="black"/>
</svg>
