<svg width="146" height="29" viewBox="0 0 146 29" fill="none" xmlns="http://www.w3.org/2000/svg">
<path d="M75.8595 13.0852L81.2988 12.8812L76.7347 27.9207H86.4941L91.0566 12.8812L96.3734 13.0852L98.5399 5.94434H78.0244L75.8595 13.0852ZM55.652 16.9901C54.2872 24.0422 46.8103 28.2695 38.6181 28.2695C30.4268 28.2695 24.5843 24.043 25.9491 16.9901C27.2852 10.082 34.8493 5.59473 43.0054 5.59473C51.1608 5.59473 56.988 10.0828 55.652 16.9901ZM35.7557 17.1069C35.2717 19.6134 37.0053 21.3334 39.9598 21.3334C42.9158 21.3334 45.3143 19.6142 45.7991 17.1069C46.2503 14.7757 44.7047 12.8236 41.6062 12.8236C38.5078 12.822 36.2069 14.7757 35.7557 17.1069Z" fill="#E31837"/>
<path d="M52.6192 26.2585C55.404 27.5106 59.1752 28.2698 62.5585 28.2698C68.3642 28.2698 74.7067 25.6761 75.7211 20.4296C76.4427 16.6992 73.8019 14.892 69.8162 14.1343L67.6866 13.7263C66.9666 13.5799 65.7786 13.4639 65.9362 12.6471C66.1106 11.7439 67.4082 11.4807 68.2634 11.4807C70.3634 11.4807 72.1115 12.2095 73.6043 13.1423L77.3276 7.51744C74.9451 6.20622 72.2507 5.595 69.1874 5.595C63.3465 5.595 56.9768 8.50945 55.968 13.7263C55.3024 17.1656 58.1528 19.0016 61.8561 19.556L63.7585 19.8464C64.6209 19.9936 65.8866 20.08 65.6946 21.0704C65.5026 22.0609 63.9097 22.3817 62.9473 22.3817C60.7033 22.3817 58.7769 21.4785 57.2464 20.3712L56.8104 20.0504L52.6192 26.2585V26.2585ZM117.536 6.49821C115.584 5.91501 113.366 5.595 111.157 5.595C103.286 5.595 96.1326 10.7247 94.8918 17.1368C93.679 23.4033 98.7215 28.2706 106.379 28.2706C108.123 28.2706 111.807 28.0082 113.494 27.3962L115.369 19.1776C113.558 20.4304 111.626 21.2177 109.382 21.2177C106.463 21.2177 104.294 19.352 104.763 16.9344C105.226 14.544 107.979 12.6503 110.899 12.6503C113.107 12.6503 114.868 13.6703 116.206 14.8664L117.536 6.49821V6.49821ZM133.162 5.595C125.007 5.595 117.443 10.0823 116.106 16.9904C114.742 24.0425 120.584 28.2698 128.776 28.2698C136.967 28.2698 144.445 24.0433 145.809 16.9904C147.144 10.0831 141.317 5.595 133.162 5.595ZM131.764 12.8223C134.862 12.8223 136.408 14.7743 135.956 17.1056C135.472 19.612 133.072 21.3321 130.116 21.3321C127.16 21.3321 125.428 19.6128 125.912 17.1056C126.364 14.7759 128.665 12.8223 131.764 12.8223V12.8223ZM28.4652 1.56615C26.0291 0.861344 23.2643 0.474121 20.5099 0.474121C10.6929 0.474121 1.77035 6.67423 0.223926 14.4248C-1.2873 21.9993 5.00081 27.8818 14.5506 27.8818C16.7274 27.8818 21.3219 27.5649 23.4235 26.8257L25.7619 16.8904C23.5051 18.4056 21.0947 19.3568 18.2954 19.3568C14.653 19.3568 11.9497 17.1016 12.5329 14.1768C13.1097 11.2887 16.5434 8.99747 20.185 8.99747C22.9387 8.99747 25.1355 10.2311 26.8019 11.6751L28.4652 1.56615V1.56615Z" fill="#E31837"/>
<path d="M139.804 26.8524C139.95 26.0852 140.805 25.4668 141.737 25.4668C142.661 25.4668 143.287 26.0852 143.142 26.8524C142.994 27.6244 142.134 28.2428 141.209 28.2428C140.278 28.2428 139.658 27.6236 139.804 26.8524ZM142.706 26.8524C142.823 26.2348 142.38 25.8292 141.666 25.8292C140.942 25.8292 140.356 26.2348 140.24 26.8524C140.122 27.4708 140.553 27.8804 141.278 27.8804C141.991 27.8804 142.589 27.4716 142.706 26.8524ZM142.112 27.578H141.681L141.41 26.9628H141.127L141.01 27.578H140.644L140.92 26.1252H141.766C142.138 26.1252 142.34 26.2284 142.276 26.57C142.227 26.8188 142.033 26.9468 141.808 26.9644L142.112 27.578ZM141.578 26.6852C141.761 26.6852 141.918 26.6852 141.949 26.53C141.973 26.402 141.814 26.402 141.631 26.402H141.234L141.182 26.6852H141.578V26.6852Z" fill="#E31837"/>
</svg>
