<svg width="81" height="42" viewBox="0 0 81 42" fill="none" xmlns="http://www.w3.org/2000/svg">
<path fill-rule="evenodd" clip-rule="evenodd" d="M27.3411 29.0346C27.0134 30.2065 25.6897 32.1342 25.0693 32.1943C24.8837 32.2107 24.6161 32.1124 24.627 31.6897C24.6489 30.7002 26.1965 28.4558 26.8332 28.2843C27.2701 28.1663 27.4645 28.5912 27.3411 29.0335V29.0346ZM38.9553 23.1139C37.6524 23.1139 36.5678 28.2865 35.5029 28.2362C34.6074 28.1936 35.3555 24.6681 33.9826 24.6582C33.1395 24.6528 32.8872 26.0672 32.5027 27.2817C32.4809 27.3516 31.8583 29.7937 30.9136 29.7937C30.3118 29.7937 29.7854 29.3131 29.7854 27.8889C29.7854 27.2227 29.7515 26.231 28.9553 26.065C27.577 25.781 27.8915 27.1976 26.6825 26.9682C23.4114 26.3522 20.9354 33.0713 22.9254 33.9691C25.3107 35.0493 27.0517 30.816 27.7638 30.9317C28.3066 31.0213 27.9538 32.8452 29.6663 32.7284C31.0621 32.6333 32.1631 29.7511 32.7059 29.7849C33.1864 29.8155 32.7681 31.5193 33.9728 31.5827C35.3817 31.6569 35.9628 29.3186 36.605 29.3066C36.7666 29.3044 36.8343 29.4256 36.8223 30.0001C36.8037 30.7832 36.6989 40.7002 36.6836 41.0224C36.6541 41.634 36.9501 41.6843 37.0833 41.6843C37.174 41.6843 38.5283 41.6559 38.7871 41.646C39.0493 41.6351 39.093 41.3905 39.0919 41.2419C39.0908 41.1818 39.2797 26.8033 39.2928 23.6927C39.295 23.1139 39.0547 23.1139 38.9542 23.1139H38.9553ZM65.2321 18.305C64.8641 19.3513 63.8003 21.03 63.1482 21.1469C62.9243 21.1862 62.6513 20.9645 62.6688 20.5811C62.7103 19.6823 64.2164 17.7731 64.828 17.6311C65.2452 17.535 65.3829 17.878 65.2321 18.305ZM79.697 16.7214C77.1555 18.3269 77.6448 12.3887 76.0982 12.3887C74.4108 12.3887 73.9182 15.9099 73.3164 15.9688C72.5803 16.0409 73.5917 13.388 72.1314 13.4459C70.5237 13.5114 69.6238 19.3426 68.4573 18.8915C67.2603 18.4284 68.1177 15.3485 66.771 15.1235C66.0753 15.0077 65.9322 15.5636 65.5172 15.8323C64.8979 16.2342 63.7839 15.5342 62.0364 17.5711C60.0596 19.8734 59.4556 23.5923 60.9628 23.8467C62.9921 24.1875 64.8411 20.7231 65.3108 20.2786C65.9639 19.656 65.5991 22.073 67.3597 22.108C69.2208 22.1451 69.78 19.075 70.3217 19.1045C70.7859 19.1307 70.2474 20.7155 71.1332 20.828C73.0532 21.0737 74.1061 16.0409 74.8957 16.1512C75.6865 16.2605 75.3894 19.2629 77.2909 19.4529C78.9062 19.6124 80.0126 17.4083 80.1622 17.0818C80.3184 16.7454 80.053 16.4975 79.697 16.7214" fill="#EA4335"/>
<path fill-rule="evenodd" clip-rule="evenodd" d="M28.2702 37.6078C28.7223 37.8273 29.3514 38.2358 29.0314 38.9686C28.801 39.4907 28.5814 39.9003 28.5334 39.9822C28.2538 40.4595 27.5755 40.7467 26.7662 40.3645C25.4709 39.7528 18.5137 36.4304 18.2909 36.3278C18.0473 36.2131 17.6498 36.2972 17.6487 36.9787V38.831C17.6487 39.0822 17.6815 39.6993 17.1703 40.0619C16.6264 40.4475 15.7374 40.9761 15.579 41.0558C15.3562 41.1694 14.7817 41.615 14.7752 40.6866C14.7599 38.8409 14.7599 35.4158 14.7599 35.2257C14.7599 35.0357 14.8025 34.6698 14.2542 34.4208C13.7594 34.1958 10.6107 32.7083 10.4152 32.6187C10.1629 32.5018 9.97285 32.0486 10.4873 31.7384C11.0989 31.3682 14.1614 29.577 14.3733 29.4263C14.7293 29.1729 14.7293 28.9304 14.7326 28.1932C14.7359 27.3631 14.6856 16.568 14.6911 16.3933C14.702 16.1126 14.6638 15.8799 15.1421 15.5719C15.6839 15.2224 16.2671 14.8424 16.4571 14.72C16.7575 14.5245 17.676 14.1412 17.6618 15.1809C17.6509 15.8799 17.6585 25.7532 17.6618 26.0165C17.6673 26.3769 17.8355 26.9284 18.4176 26.4981C25.3857 21.3507 26.3108 16.9994 24.9226 14.1215C22.0862 8.24339 7.35271 17.6274 0.978738 22.8819C-0.0227926 23.7076 0.00123546 23.3428 0.000143277 22.9442C-0.00204109 22.4723 0.0208946 20.727 0.059121 20.4048C0.11373 19.9417 0.229501 18.4367 1.60674 17.4385C2.94139 16.4708 21.2081 4.70364 26.5161 12.2648C29.1046 15.9531 27.5242 21.7755 18.328 28.5383C17.7667 28.9512 17.6618 29.0866 17.6618 29.8325C17.6618 30.5785 17.6454 31.7056 17.6618 31.9186C17.6793 32.1327 17.7011 32.5848 18.1446 32.8087C18.588 33.0348 27.8955 37.4254 28.2702 37.6078ZM45.7724 22.5335C45.0974 21.7744 43.7409 21.7875 42.6968 22.4308C41.3206 23.2784 40.9526 24.6043 41.6297 25.3622C42.3058 26.1213 43.9233 25.9608 44.9139 25.3033C46.0487 24.5497 46.4484 23.2926 45.7724 22.5335ZM56.0826 2.30411C59.322 5.49328 53.8032 11.5385 52.4718 13.0949C51.8733 13.7917 51.3185 14.8314 52.2577 15.8264C53.2112 16.8378 54.2018 17.7738 55.0188 18.5296C56.0269 19.4634 55.7265 21.2109 55.0887 22.1556C54.6627 22.7847 53.7125 23.8954 52.6182 25.2945C51.5205 26.6991 50.5245 27.9791 50.4141 28.12C50.1055 28.4947 49.9233 28.9575 49.8937 29.4421C49.864 29.9266 49.9885 30.4082 50.2492 30.8177C51.4266 32.6438 51.5402 32.6165 52.2905 31.3125C53.5411 29.139 55.1903 27.1218 56.4463 25.691C57.5767 24.4022 58.1905 23.4815 58.3499 23.2532C59.4858 21.6324 59.5939 19.9002 58.4471 18.902C56.9279 17.5805 55.1706 16.4238 53.718 15.3196C52.8814 14.6785 53.4624 13.8922 54.3591 13.2205C57.5505 10.833 62.0022 6.83448 59.9598 2.02342C57.983 -2.63146 48.6819 0.959636 48.304 10.5905C48.1697 14.0254 48.6262 23.5252 48.3696 25.9029C48.2221 27.2867 48.7486 27.1316 49.2532 26.923C49.7162 26.7308 51.4921 25.8636 51.4004 23.6006C51.3086 21.3474 51.1022 11.5178 51.0356 10.4998C50.6916 5.19839 53.979 0.233336 56.0826 2.30411ZM78.8622 12.3063V12.0693H79.0085C79.0894 12.0693 79.1931 12.0802 79.1931 12.1785C79.1931 12.2899 79.1276 12.3063 79.0293 12.3063H78.8622ZM78.6569 12.871H78.8622V12.4647H78.9594L79.1888 12.871H79.4017L79.1473 12.4548C79.2958 12.4428 79.4017 12.374 79.4017 12.1993C79.4017 11.983 79.2597 11.9109 79.0173 11.9109H78.6569V12.871Z" fill="#EA4335"/>
<path fill-rule="evenodd" clip-rule="evenodd" d="M78.9911 11.691C78.8028 11.691 78.6223 11.7658 78.4891 11.899C78.356 12.0321 78.2812 12.2127 78.2812 12.4009C78.2812 12.5892 78.356 12.7698 78.4891 12.9029C78.6223 13.0361 78.8028 13.1109 78.9911 13.1109C79.1794 13.1109 79.36 13.0361 79.4931 12.9029C79.6262 12.7698 79.701 12.5892 79.701 12.4009C79.701 12.2127 79.6262 12.0321 79.4931 11.899C79.36 11.7658 79.1794 11.691 78.9911 11.691V11.691ZM78.9911 13.2747C78.8762 13.2747 78.7623 13.2521 78.6561 13.2081C78.5499 13.1641 78.4534 13.0996 78.3721 13.0183C78.2908 12.937 78.2264 12.8405 78.1824 12.7343C78.1384 12.6281 78.1157 12.5143 78.1157 12.3993C78.1157 12.2844 78.1384 12.1705 78.1824 12.0643C78.2264 11.9581 78.2908 11.8616 78.3721 11.7803C78.4534 11.699 78.5499 11.6346 78.6561 11.5906C78.7623 11.5466 78.8762 11.5239 78.9911 11.5239C79.2233 11.5239 79.4459 11.6162 79.6101 11.7803C79.7743 11.9445 79.8665 12.1671 79.8665 12.3993C79.8665 12.6315 79.7743 12.8541 79.6101 13.0183C79.4459 13.1825 79.2233 13.2747 78.9911 13.2747" fill="white"/>
</svg>
