<svg width="1254" height="693" viewBox="0 0 1254 693" fill="none" xmlns="http://www.w3.org/2000/svg">
<path d="M1239.07 0H14.9286C6.68375 0 0 4.58974 0 10.2515V682.749C0 688.41 6.68375 693 14.9286 693H1239.07C1247.32 693 1254 688.41 1254 682.749V10.2515C1254 4.58974 1247.32 0 1239.07 0Z" fill="white"/>
<path d="M209.406 103.95H77.6097C74.5768 103.95 72.1182 105.427 72.1182 107.25V110.55C72.1182 112.372 74.5768 113.85 77.6097 113.85H209.406C212.438 113.85 214.897 112.372 214.897 110.55V107.25C214.897 105.427 212.438 103.95 209.406 103.95Z" fill="#CBD5E1"/>
<path d="M209.406 283.95H77.6097C74.5768 283.95 72.1182 285.427 72.1182 287.25V290.55C72.1182 292.372 74.5768 293.85 77.6097 293.85H209.406C212.438 293.85 214.897 292.372 214.897 290.55V287.25C214.897 285.427 212.438 283.95 209.406 283.95Z" fill="#CBD5E1"/>
<rect x="46" y="99" width="19.1533" height="18.15" rx="1" fill="#CBD5E1"/>
<rect x="46" y="279" width="19.1533" height="18.15" rx="1" fill="#CBD5E1"/>
<rect x="46" y="189.75" width="19.1533" height="18.15" rx="1" fill="#CBD5E1"/>
<rect x="46" y="234.3" width="19.1533" height="18.15" rx="1" fill="#CBD5E1"/>
<path d="M132.77 148.5H77.632C74.5868 148.5 72.1182 149.977 72.1182 151.8V155.1C72.1182 156.922 74.5868 158.4 77.632 158.4H132.77C135.815 158.4 138.284 156.922 138.284 155.1V151.8C138.284 149.977 135.815 148.5 132.77 148.5Z" fill="#8585FF"/>
<rect x="46" y="145.2" width="19.1533" height="16.5" rx="1" fill="#8585FF"/>
<path d="M117.003 193.05H77.7287C74.6301 193.05 72.1182 194.774 72.1182 196.9V200.75C72.1182 202.876 74.6301 204.6 77.7287 204.6H117.003C120.101 204.6 122.613 202.876 122.613 200.75V196.9C122.613 194.774 120.101 193.05 117.003 193.05Z" fill="#CBD5E1"/>
<path d="M172.742 239.25H77.7084C74.621 239.25 72.1182 240.727 72.1182 242.55V245.85C72.1182 247.672 74.621 249.15 77.7084 249.15H172.742C175.829 249.15 178.332 247.672 178.332 245.85V242.55C178.332 240.727 175.829 239.25 172.742 239.25Z" fill="#CBD5E1"/>
<rect x="1171.52" y="37.9717" width="85.5157" height="13.9718" rx="1" transform="rotate(-180 1171.52 37.9717)" fill="#CBD5E1"/>
<path d="M966.056 187H865.944C864.318 187 863 188.254 863 189.8V198.2C863 199.746 864.318 201 865.944 201H966.056C967.682 201 969 199.746 969 198.2V189.8C969 188.254 967.682 187 966.056 187Z" fill="#E6ECF2"/>
<path d="M396.209 172H295.949C294.32 172 293 173.32 293 174.949V183.795C293 185.424 294.32 186.744 295.949 186.744H396.209C397.837 186.744 399.157 185.424 399.157 183.795V174.949C399.157 173.32 397.837 172 396.209 172Z" fill="#E6ECF2"/>
<path d="M690.639 202H304.361C298.087 202 293 203.343 293 205V214C293 215.657 298.087 217 304.361 217H690.639C696.913 217 702 215.657 702 214V205C702 203.343 696.913 202 690.639 202Z" fill="#E6ECF2" fill-opacity="0.4"/>
<path d="M690.639 318H304.361C298.087 318 293 319.343 293 321V330C293 331.657 298.087 333 304.361 333H690.639C696.913 333 702 331.657 702 330V321C702 319.343 696.913 318 690.639 318Z" fill="#0074FF" fill-opacity="0.4"/>
<path d="M637.167 357H302.833C297.403 357 293 358.343 293 360V369C293 370.657 297.403 372 302.833 372H637.167C642.597 372 647 370.657 647 369V360C647 358.343 642.597 357 637.167 357Z" fill="#8F00FF" fill-opacity="0.4"/>
<path d="M575.917 396H301.083C296.619 396 293 397.343 293 399V408C293 409.657 296.619 411 301.083 411H575.917C580.381 411 584 409.657 584 408V399C584 397.343 580.381 396 575.917 396Z" fill="#00FF29" fill-opacity="0.4"/>
<rect x="275" y="152" width="520" height="498" rx="5" stroke="#E2E8F0" stroke-width="2"/>
<rect x="294" y="242" width="192" height="33" rx="5" stroke="#E2E8F0" stroke-width="2"/>
<line x1="1" y1="60.1833" x2="1239" y2="60.1833" stroke="#E2E8F0"/>
<path d="M282.736 119.364C281.653 119.364 280.613 119.196 279.614 118.86C278.625 118.515 277.757 118.025 277.01 117.39C276.263 116.746 275.727 115.976 275.4 115.08L278.606 113.904C278.737 114.277 279.003 114.618 279.404 114.926C279.805 115.234 280.295 115.481 280.874 115.668C281.453 115.855 282.073 115.948 282.736 115.948C283.417 115.948 284.052 115.845 284.64 115.64C285.237 115.425 285.718 115.131 286.082 114.758C286.446 114.375 286.628 113.932 286.628 113.428C286.628 112.915 286.437 112.495 286.054 112.168C285.671 111.832 285.181 111.566 284.584 111.37C283.987 111.174 283.371 111.025 282.736 110.922C281.345 110.707 280.099 110.376 278.998 109.928C277.897 109.48 277.024 108.859 276.38 108.066C275.745 107.273 275.428 106.246 275.428 104.986C275.428 103.801 275.769 102.765 276.45 101.878C277.131 100.991 278.027 100.301 279.138 99.806C280.249 99.3113 281.448 99.064 282.736 99.064C283.809 99.064 284.845 99.232 285.844 99.568C286.843 99.904 287.715 100.394 288.462 101.038C289.218 101.682 289.759 102.457 290.086 103.362L286.866 104.524C286.735 104.151 286.469 103.81 286.068 103.502C285.667 103.194 285.177 102.951 284.598 102.774C284.019 102.587 283.399 102.494 282.736 102.494C282.073 102.485 281.443 102.592 280.846 102.816C280.258 103.031 279.777 103.325 279.404 103.698C279.031 104.071 278.844 104.501 278.844 104.986C278.844 105.611 279.017 106.083 279.362 106.4C279.717 106.717 280.188 106.951 280.776 107.1C281.364 107.24 282.017 107.371 282.736 107.492C284.043 107.697 285.251 108.043 286.362 108.528C287.473 109.013 288.364 109.662 289.036 110.474C289.708 111.277 290.044 112.261 290.044 113.428C290.044 114.613 289.708 115.654 289.036 116.55C288.364 117.437 287.473 118.127 286.362 118.622C285.251 119.117 284.043 119.364 282.736 119.364ZM292.265 113.82V105H295.681V112.924C295.681 113.475 295.816 113.979 296.087 114.436C296.357 114.884 296.717 115.243 297.165 115.514C297.622 115.775 298.121 115.906 298.663 115.906C299.223 115.906 299.727 115.775 300.175 115.514C300.623 115.243 300.982 114.884 301.253 114.436C301.523 113.979 301.659 113.475 301.659 112.924V105H305.075L305.089 119H301.673L301.659 117.726C301.173 118.23 300.599 118.631 299.937 118.93C299.274 119.219 298.565 119.364 297.809 119.364C296.791 119.364 295.863 119.117 295.023 118.622C294.183 118.118 293.511 117.451 293.007 116.62C292.512 115.78 292.265 114.847 292.265 113.82ZM307.905 119L307.891 105H311.307L311.321 106.246C311.797 105.742 312.366 105.345 313.029 105.056C313.692 104.757 314.406 104.608 315.171 104.608C315.684 104.608 316.198 104.683 316.711 104.832L315.367 108.276C315.012 108.136 314.658 108.066 314.303 108.066C313.752 108.066 313.248 108.201 312.791 108.472C312.343 108.733 311.984 109.093 311.713 109.55C311.452 109.998 311.321 110.497 311.321 111.048V119H307.905ZM327.33 119H322.92L317.824 104.986H321.464L325.132 115.066L328.786 104.986H332.426L327.33 119ZM340.11 119.364C338.822 119.364 337.646 119.033 336.582 118.37C335.527 117.707 334.682 116.816 334.048 115.696C333.422 114.576 333.11 113.339 333.11 111.986C333.11 110.969 333.292 110.017 333.656 109.13C334.02 108.234 334.519 107.45 335.154 106.778C335.798 106.097 336.544 105.565 337.394 105.182C338.243 104.799 339.148 104.608 340.11 104.608C341.202 104.608 342.2 104.841 343.106 105.308C344.02 105.765 344.795 106.395 345.43 107.198C346.064 108.001 346.526 108.915 346.816 109.942C347.105 110.969 347.17 112.042 347.012 113.162H336.778C336.908 113.685 337.123 114.156 337.422 114.576C337.72 114.987 338.098 115.318 338.556 115.57C339.013 115.813 339.531 115.939 340.11 115.948C340.707 115.957 341.248 115.817 341.734 115.528C342.228 115.229 342.639 114.828 342.966 114.324L346.452 115.136C345.882 116.377 345.033 117.395 343.904 118.188C342.774 118.972 341.51 119.364 340.11 119.364ZM336.666 110.6H343.554C343.451 110.04 343.232 109.536 342.896 109.088C342.569 108.631 342.163 108.267 341.678 107.996C341.192 107.725 340.67 107.59 340.11 107.59C339.55 107.59 339.032 107.725 338.556 107.996C338.08 108.257 337.674 108.617 337.338 109.074C337.011 109.522 336.787 110.031 336.666 110.6ZM358.018 105H361.644L353.986 126H350.36L352.894 119L347.854 105H351.592L354.602 114.324L358.018 105ZM371.164 119V99.4H378.682C379.746 99.4 380.708 99.666 381.566 100.198C382.425 100.73 383.106 101.444 383.61 102.34C384.114 103.227 384.366 104.211 384.366 105.294C384.366 106.181 384.203 106.997 383.876 107.744C383.559 108.481 383.111 109.121 382.532 109.662C381.963 110.203 381.305 110.614 380.558 110.894L385.248 119H381.314L376.778 111.202H374.58V119H371.164ZM374.58 107.786H378.29C378.776 107.786 379.219 107.665 379.62 107.422C380.022 107.179 380.344 106.853 380.586 106.442C380.829 106.031 380.95 105.574 380.95 105.07C380.95 104.557 380.829 104.095 380.586 103.684C380.344 103.273 380.022 102.947 379.62 102.704C379.219 102.461 378.776 102.34 378.29 102.34H374.58V107.786ZM393.129 119.364C391.841 119.364 390.665 119.033 389.601 118.37C388.546 117.707 387.702 116.816 387.067 115.696C386.442 114.576 386.129 113.339 386.129 111.986C386.129 110.969 386.311 110.017 386.675 109.13C387.039 108.234 387.538 107.45 388.173 106.778C388.817 106.097 389.564 105.565 390.413 105.182C391.262 104.799 392.168 104.608 393.129 104.608C394.221 104.608 395.22 104.841 396.125 105.308C397.04 105.765 397.814 106.395 398.449 107.198C399.084 108.001 399.546 108.915 399.835 109.942C400.124 110.969 400.19 112.042 400.031 113.162H389.797C389.928 113.685 390.142 114.156 390.441 114.576C390.74 114.987 391.118 115.318 391.575 115.57C392.032 115.813 392.55 115.939 393.129 115.948C393.726 115.957 394.268 115.817 394.753 115.528C395.248 115.229 395.658 114.828 395.985 114.324L399.471 115.136C398.902 116.377 398.052 117.395 396.923 118.188C395.794 118.972 394.529 119.364 393.129 119.364ZM389.685 110.6H396.573C396.47 110.04 396.251 109.536 395.915 109.088C395.588 108.631 395.182 108.267 394.697 107.996C394.212 107.725 393.689 107.59 393.129 107.59C392.569 107.59 392.051 107.725 391.575 107.996C391.099 108.257 390.693 108.617 390.357 109.074C390.03 109.522 389.806 110.031 389.685 110.6ZM406.548 119.252C405.82 119.205 405.116 119.061 404.434 118.818C403.762 118.566 403.165 118.225 402.642 117.796C402.12 117.367 401.718 116.853 401.438 116.256L404.322 115.024C404.434 115.211 404.616 115.411 404.868 115.626C405.12 115.831 405.419 116.004 405.764 116.144C406.119 116.284 406.506 116.354 406.926 116.354C407.281 116.354 407.617 116.307 407.934 116.214C408.261 116.111 408.522 115.957 408.718 115.752C408.924 115.547 409.026 115.281 409.026 114.954C409.026 114.609 408.905 114.343 408.662 114.156C408.429 113.96 408.13 113.815 407.766 113.722C407.412 113.619 407.066 113.526 406.73 113.442C405.844 113.265 405.018 112.989 404.252 112.616C403.496 112.243 402.885 111.762 402.418 111.174C401.961 110.577 401.732 109.858 401.732 109.018C401.732 108.094 401.975 107.296 402.46 106.624C402.955 105.952 403.594 105.434 404.378 105.07C405.172 104.706 406.026 104.524 406.94 104.524C408.051 104.524 409.068 104.757 409.992 105.224C410.926 105.681 411.663 106.33 412.204 107.17L409.502 108.766C409.372 108.542 409.19 108.337 408.956 108.15C408.723 107.954 408.457 107.795 408.158 107.674C407.86 107.543 407.547 107.469 407.22 107.45C406.8 107.431 406.418 107.469 406.072 107.562C405.727 107.655 405.447 107.814 405.232 108.038C405.027 108.262 404.924 108.561 404.924 108.934C404.924 109.289 405.064 109.555 405.344 109.732C405.624 109.9 405.96 110.031 406.352 110.124C406.754 110.217 407.136 110.32 407.5 110.432C408.322 110.703 409.092 111.034 409.81 111.426C410.538 111.818 411.122 112.299 411.56 112.868C411.999 113.437 412.209 114.119 412.19 114.912C412.19 115.817 411.92 116.611 411.378 117.292C410.837 117.964 410.137 118.477 409.278 118.832C408.429 119.187 407.519 119.327 406.548 119.252ZM414.026 113.82V105H417.442V112.924C417.442 113.475 417.578 113.979 417.848 114.436C418.119 114.884 418.478 115.243 418.926 115.514C419.384 115.775 419.883 115.906 420.424 115.906C420.984 115.906 421.488 115.775 421.936 115.514C422.384 115.243 422.744 114.884 423.014 114.436C423.285 113.979 423.42 113.475 423.42 112.924V105H426.836L426.85 119H423.434L423.42 117.726C422.935 118.23 422.361 118.631 421.698 118.93C421.036 119.219 420.326 119.364 419.57 119.364C418.553 119.364 417.624 119.117 416.784 118.622C415.944 118.118 415.272 117.451 414.768 116.62C414.274 115.78 414.026 114.847 414.026 113.82ZM429.735 119V98H433.151V119H429.735ZM444.02 108.416H441.304V119H437.888V108.416H435.816V105H437.888V100.604H441.304V105H444.02V108.416ZM450.462 119.252C449.734 119.205 449.03 119.061 448.348 118.818C447.676 118.566 447.079 118.225 446.556 117.796C446.034 117.367 445.632 116.853 445.352 116.256L448.236 115.024C448.348 115.211 448.53 115.411 448.782 115.626C449.034 115.831 449.333 116.004 449.678 116.144C450.033 116.284 450.42 116.354 450.84 116.354C451.195 116.354 451.531 116.307 451.848 116.214C452.175 116.111 452.436 115.957 452.632 115.752C452.838 115.547 452.94 115.281 452.94 114.954C452.94 114.609 452.819 114.343 452.576 114.156C452.343 113.96 452.044 113.815 451.68 113.722C451.326 113.619 450.98 113.526 450.644 113.442C449.758 113.265 448.932 112.989 448.166 112.616C447.41 112.243 446.799 111.762 446.332 111.174C445.875 110.577 445.646 109.858 445.646 109.018C445.646 108.094 445.889 107.296 446.374 106.624C446.869 105.952 447.508 105.434 448.292 105.07C449.086 104.706 449.94 104.524 450.854 104.524C451.965 104.524 452.982 104.757 453.906 105.224C454.84 105.681 455.577 106.33 456.118 107.17L453.416 108.766C453.286 108.542 453.104 108.337 452.87 108.15C452.637 107.954 452.371 107.795 452.072 107.674C451.774 107.543 451.461 107.469 451.134 107.45C450.714 107.431 450.332 107.469 449.986 107.562C449.641 107.655 449.361 107.814 449.146 108.038C448.941 108.262 448.838 108.561 448.838 108.934C448.838 109.289 448.978 109.555 449.258 109.732C449.538 109.9 449.874 110.031 450.266 110.124C450.668 110.217 451.05 110.32 451.414 110.432C452.236 110.703 453.006 111.034 453.724 111.426C454.452 111.818 455.036 112.299 455.474 112.868C455.913 113.437 456.123 114.119 456.104 114.912C456.104 115.817 455.834 116.611 455.292 117.292C454.751 117.964 454.051 118.477 453.192 118.832C452.343 119.187 451.433 119.327 450.462 119.252Z" fill="#18303F" fill-opacity="0.6"/>
<path d="M872.8 119V121.44H868.52V133H866.08V121.44H861.8V119H872.8ZM873.499 133L873.489 123H875.929L875.939 123.89C876.279 123.53 876.686 123.247 877.159 123.04C877.632 122.827 878.142 122.72 878.689 122.72C879.056 122.72 879.422 122.773 879.789 122.88L878.829 125.34C878.576 125.24 878.322 125.19 878.069 125.19C877.676 125.19 877.316 125.287 876.989 125.48C876.669 125.667 876.412 125.923 876.219 126.25C876.032 126.57 875.939 126.927 875.939 127.32V133H873.499ZM884.842 133.26C883.922 133.26 883.082 133.023 882.322 132.55C881.569 132.077 880.966 131.44 880.512 130.64C880.066 129.84 879.842 128.957 879.842 127.99C879.842 127.263 879.972 126.583 880.232 125.95C880.492 125.31 880.849 124.75 881.302 124.27C881.762 123.783 882.296 123.403 882.902 123.13C883.509 122.857 884.156 122.72 884.842 122.72C885.622 122.72 886.336 122.887 886.982 123.22C887.636 123.547 888.189 123.997 888.642 124.57C889.096 125.143 889.426 125.797 889.632 126.53C889.839 127.263 889.886 128.03 889.772 128.83H882.462C882.556 129.203 882.709 129.54 882.922 129.84C883.136 130.133 883.406 130.37 883.732 130.55C884.059 130.723 884.429 130.813 884.842 130.82C885.269 130.827 885.656 130.727 886.002 130.52C886.356 130.307 886.649 130.02 886.882 129.66L889.372 130.24C888.966 131.127 888.359 131.853 887.552 132.42C886.746 132.98 885.842 133.26 884.842 133.26ZM882.382 127H887.302C887.229 126.6 887.072 126.24 886.832 125.92C886.599 125.593 886.309 125.333 885.962 125.14C885.616 124.947 885.242 124.85 884.842 124.85C884.442 124.85 884.072 124.947 883.732 125.14C883.392 125.327 883.102 125.583 882.862 125.91C882.629 126.23 882.469 126.593 882.382 127ZM900.559 126.68V133H898.119V127.32C898.119 126.927 898.023 126.57 897.829 126.25C897.636 125.923 897.376 125.667 897.049 125.48C896.729 125.287 896.373 125.19 895.979 125.19C895.586 125.19 895.226 125.287 894.899 125.48C894.579 125.667 894.323 125.923 894.129 126.25C893.943 126.57 893.849 126.927 893.849 127.32V133H891.409L891.399 123H893.839L893.849 123.89C894.189 123.53 894.596 123.247 895.069 123.04C895.543 122.827 896.053 122.72 896.599 122.72C897.326 122.72 897.989 122.9 898.589 123.26C899.189 123.613 899.666 124.09 900.019 124.69C900.379 125.283 900.559 125.947 900.559 126.68ZM909.916 118H912.356V133H909.916V131.75C909.596 132.197 909.193 132.56 908.706 132.84C908.22 133.12 907.656 133.26 907.016 133.26C906.29 133.26 905.61 133.123 904.976 132.85C904.343 132.577 903.783 132.2 903.296 131.72C902.816 131.233 902.44 130.673 902.166 130.04C901.893 129.407 901.756 128.727 901.756 128C901.756 127.273 901.893 126.593 902.166 125.96C902.44 125.327 902.816 124.77 903.296 124.29C903.783 123.803 904.343 123.423 904.976 123.15C905.61 122.877 906.29 122.74 907.016 122.74C907.656 122.74 908.22 122.88 908.706 123.16C909.193 123.433 909.596 123.797 909.916 124.25V118ZM907.046 130.91C907.566 130.91 908.026 130.78 908.426 130.52C908.826 130.26 909.14 129.91 909.366 129.47C909.593 129.023 909.706 128.533 909.706 128C909.706 127.46 909.593 126.97 909.366 126.53C909.14 126.083 908.823 125.73 908.416 125.47C908.016 125.21 907.56 125.08 907.046 125.08C906.533 125.08 906.063 125.213 905.636 125.48C905.216 125.74 904.88 126.09 904.626 126.53C904.38 126.97 904.256 127.46 904.256 128C904.256 128.54 904.383 129.03 904.636 129.47C904.89 129.91 905.226 130.26 905.646 130.52C906.073 130.78 906.54 130.91 907.046 130.91ZM917.709 133.18C917.189 133.147 916.685 133.043 916.199 132.87C915.719 132.69 915.292 132.447 914.919 132.14C914.545 131.833 914.259 131.467 914.059 131.04L916.119 130.16C916.199 130.293 916.329 130.437 916.509 130.59C916.689 130.737 916.902 130.86 917.149 130.96C917.402 131.06 917.679 131.11 917.979 131.11C918.232 131.11 918.472 131.077 918.699 131.01C918.932 130.937 919.119 130.827 919.259 130.68C919.405 130.533 919.479 130.343 919.479 130.11C919.479 129.863 919.392 129.673 919.219 129.54C919.052 129.4 918.839 129.297 918.579 129.23C918.325 129.157 918.079 129.09 917.839 129.03C917.205 128.903 916.615 128.707 916.069 128.44C915.529 128.173 915.092 127.83 914.759 127.41C914.432 126.983 914.269 126.47 914.269 125.87C914.269 125.21 914.442 124.64 914.789 124.16C915.142 123.68 915.599 123.31 916.159 123.05C916.725 122.79 917.335 122.66 917.989 122.66C918.782 122.66 919.509 122.827 920.169 123.16C920.835 123.487 921.362 123.95 921.749 124.55L919.819 125.69C919.725 125.53 919.595 125.383 919.429 125.25C919.262 125.11 919.072 124.997 918.859 124.91C918.645 124.817 918.422 124.763 918.189 124.75C917.889 124.737 917.615 124.763 917.369 124.83C917.122 124.897 916.922 125.01 916.769 125.17C916.622 125.33 916.549 125.543 916.549 125.81C916.549 126.063 916.649 126.253 916.849 126.38C917.049 126.5 917.289 126.593 917.569 126.66C917.855 126.727 918.129 126.8 918.389 126.88C918.975 127.073 919.525 127.31 920.039 127.59C920.559 127.87 920.975 128.213 921.289 128.62C921.602 129.027 921.752 129.513 921.739 130.08C921.739 130.727 921.545 131.293 921.159 131.78C920.772 132.26 920.272 132.627 919.659 132.88C919.052 133.133 918.402 133.233 917.709 133.18Z" fill="#18303F" fill-opacity="0.3"/>
<rect x="647" y="241" width="36" height="36" rx="9.25373" fill="#CEDDE9"/>
<rect x="690" y="241" width="36" height="36" rx="9.25373" fill="#E2E8F0" fill-opacity="0.5"/>
<path d="M57.0092 19C57.0092 19 54.2408 23.5849 54.2408 27.7559C54.2408 32.2134 57.5564 34.6651 61.7412 34.6651C66.4411 34.6651 69.5314 33.2642 77.74 31.1309L123 19.3184C123 19.3184 84.6288 35.7795 66.2801 43.2936C62.6426 44.7901 59.2304 46 54.8524 46C50.0238 46 46 43.1344 46 38.3585C46 34.7288 47.1911 32.0224 49.1869 28.6792C52.3737 23.3302 57.0092 19 57.0092 19Z" fill="#8EA6C2"/>
<g clip-path="url(#clip0_131_361)">
<path d="M1189 31C1189 21.0589 1197.06 13 1207 13V13C1216.94 13 1225 21.0589 1225 31V31C1225 40.9411 1216.94 49 1207 49V49C1197.06 49 1189 40.9411 1189 31V31Z" fill="url(#paint0_linear_131_361)"/>
<path d="M1210.84 34.12V36.82C1210.84 37.34 1203.16 37.1651 1203.16 36.4154C1203.16 35.7098 1203.17 32.5122 1203.16 29.2226C1201.44 26.9933 1201.44 25.6 1202.8 24.16C1204.16 22.72 1213.84 22 1213.84 22C1213.84 22 1214.57 28.9852 1214.68 30.88C1214.73 31.642 1215.22 34.12 1213.3 34.12H1210.84Z" fill="url(#paint1_linear_131_361)"/>
<g style="mix-blend-mode:multiply">
<path d="M1210.84 33.8893C1209.27 33.7187 1207.76 33.2252 1206.4 32.4399C1206.4 32.4399 1207.36 34.7199 1210.84 35.3387V33.8893Z" fill="#FFD7B8"/>
</g>
<path d="M1219.6 42.1968C1220.36 43.7454 1220.96 46.3054 1221.4 49.8768H1192.6C1193.04 46.305 1193.64 43.745 1194.4 42.1968C1195.16 40.6536 1202.2 37.6837 1202.2 37.6837C1202.2 37.6837 1202.34 36.3262 1202.68 36.1315C1203.02 35.9369 1210.92 35.937 1211.32 36.1315C1211.72 36.3261 1211.8 37.683 1211.8 37.683C1211.8 37.683 1218.84 40.6568 1219.6 42.1968Z" fill="white"/>
<path d="M1204.72 25.6247C1204.34 25.297 1203.88 25.0763 1203.22 25.4169C1201.67 26.2237 1202.7 29.3362 1204.44 29.2755C1205.04 29.2546 1204.76 30.4503 1203.16 31.24C1203.16 29.98 1201.24 26.86 1201.07 24.0194C1199.14 23.3 1199.62 20.4215 1200.95 20.4215C1200.73 17.7826 1204.96 16.4197 1206.6 17.9339C1208.26 15.9397 1212.46 16.9597 1212.71 18.6898C1215.6 17.1482 1217.5 21.5797 1214.8 23.3C1213.68 24.008 1211.08 24.2774 1207.32 24.2774C1205.52 24.2774 1206.56 28.4978 1207.12 29.86C1207.84 31.6 1211.86 31.84 1213.12 31.66C1214.1 31.5195 1214.62 31.12 1214.68 30.88C1215.58 33.28 1214.44 34.72 1212.64 34.72C1209.58 34.72 1206.52 33.82 1206.04 31.6C1205.66 29.8333 1205.68 26.9819 1204.72 25.6247Z" fill="url(#paint2_linear_131_361)"/>
</g>
<rect x="863" y="220" width="313" height="136.245" rx="2.40268" stroke="#E2E8F0" stroke-width="2"/>
<path d="M924.21 310.834L924.504 309.878C924.215 309.789 923.902 309.836 923.651 310.005L924.21 310.834ZM962.721 322.683L962.427 323.639C962.822 323.761 963.252 323.627 963.507 323.301L962.721 322.683ZM995.307 281.21L995.876 280.388C995.442 280.087 994.848 280.176 994.521 280.592L995.307 281.21ZM1020.98 298.984L1020.41 299.807C1020.54 299.898 1020.7 299.957 1020.86 299.977L1020.98 298.984ZM1060.48 303.922L1060.36 304.914C1060.7 304.957 1061.03 304.822 1061.25 304.556L1060.48 303.922ZM1083.19 276.273L1083.64 275.378C1083.22 275.17 1082.71 275.277 1082.42 275.638L1083.19 276.273ZM1114.79 292.072L1114.34 292.967C1114.72 293.155 1115.17 293.087 1115.48 292.798L1114.79 292.072ZM882.308 340.299L924.769 311.663L923.651 310.005L881.19 338.641L882.308 340.299ZM923.916 311.79L962.427 323.639L963.015 321.728L924.504 309.878L923.916 311.79ZM963.507 323.301L996.094 281.828L994.521 280.592L961.935 322.066L963.507 323.301ZM994.738 282.032L1020.41 299.807L1021.55 298.162L995.876 280.388L994.738 282.032ZM1020.86 299.977L1060.36 304.914L1060.6 302.929L1021.11 297.992L1020.86 299.977ZM1061.25 304.556L1083.96 276.908L1082.42 275.638L1059.71 303.287L1061.25 304.556ZM1082.74 277.167L1114.34 292.967L1115.24 291.178L1083.64 275.378L1082.74 277.167ZM1115.48 292.798L1153.99 256.262L1152.61 254.811L1114.1 291.347L1115.48 292.798Z" fill="#5233FF"/>
<circle cx="924.21" cy="311.821" r="3.9373" fill="white" stroke="#5233FF" stroke-width="2"/>
<circle cx="882.737" cy="337.495" r="3.9373" fill="white" stroke="#5233FF" stroke-width="2"/>
<circle cx="963.709" cy="321.696" r="3.9373" fill="white" stroke="#5233FF" stroke-width="2"/>
<circle cx="995.307" cy="282.198" r="3.9373" fill="white" stroke="#5233FF" stroke-width="2"/>
<circle cx="1022.96" cy="298.984" r="3.9373" fill="white" stroke="#5233FF" stroke-width="2"/>
<circle cx="1060.48" cy="303.922" r="3.9373" fill="white" stroke="#5233FF" stroke-width="2"/>
<circle cx="1083.19" cy="277.26" r="3.9373" fill="white" stroke="#5233FF" stroke-width="2"/>
<circle cx="1114.79" cy="290.097" r="3.9373" fill="white" stroke="#5233FF" stroke-width="2"/>
<circle cx="1153.3" cy="255.536" r="3.9373" fill="white" stroke="#5233FF" stroke-width="2"/>
<rect x="297.473" y="430.473" width="461.054" height="200.69" rx="3.53918" stroke="#E2E8F0" stroke-width="2.94603"/>
<path d="M387.637 564.273L388.07 562.865C387.644 562.734 387.182 562.803 386.813 563.052L387.637 564.273ZM444.364 581.727L443.931 583.135C444.513 583.315 445.146 583.117 445.522 582.638L444.364 581.727ZM492.364 520.637L493.202 519.425C492.562 518.982 491.687 519.114 491.206 519.726L492.364 520.637ZM530.182 546.818L529.344 548.029C529.539 548.165 529.764 548.251 529.999 548.28L530.182 546.818ZM588.364 554.091L588.181 555.553C588.683 555.615 589.181 555.417 589.502 555.026L588.364 554.091ZM621.818 513.364L622.477 512.046C621.862 511.739 621.116 511.898 620.68 512.429L621.818 513.364ZM668.364 536.637L667.705 537.954C668.259 538.231 668.928 538.132 669.378 537.705L668.364 536.637ZM325.915 607.676L388.46 565.494L386.813 563.052L324.267 605.233L325.915 607.676ZM387.203 565.681L443.931 583.135L444.797 580.32L388.07 562.865L387.203 565.681ZM445.522 582.638L493.522 521.547L491.206 519.726L443.206 580.817L445.522 582.638ZM491.525 521.848L529.344 548.029L531.02 545.607L493.202 519.425L491.525 521.848ZM529.999 548.28L588.181 555.553L588.547 552.629L530.365 545.357L529.999 548.28ZM589.502 555.026L622.957 514.299L620.68 512.429L587.226 553.156L589.502 555.026ZM621.16 514.681L667.705 537.954L669.023 535.319L622.477 512.046L621.16 514.681ZM669.378 537.705L726.105 483.887L724.077 481.75L667.35 535.568L669.378 537.705Z" fill="#5233FF"/>
<circle cx="387.636" cy="565.727" r="5.79971" fill="white" stroke="#5233FF" stroke-width="2.94603"/>
<circle cx="326.545" cy="603.546" r="5.79971" fill="white" stroke="#5233FF" stroke-width="2.94603"/>
<circle cx="445.818" cy="580.273" r="5.79971" fill="white" stroke="#5233FF" stroke-width="2.94603"/>
<circle cx="492.364" cy="522.091" r="5.79971" fill="white" stroke="#5233FF" stroke-width="2.94603"/>
<circle cx="533.091" cy="546.818" r="5.79971" fill="white" stroke="#5233FF" stroke-width="2.94603"/>
<circle cx="588.364" cy="554.091" r="5.79971" fill="white" stroke="#5233FF" stroke-width="2.94603"/>
<circle cx="621.818" cy="514.818" r="5.79971" fill="white" stroke="#5233FF" stroke-width="2.94603"/>
<circle cx="668.364" cy="533.727" r="5.79971" fill="white" stroke="#5233FF" stroke-width="2.94603"/>
<circle cx="725.091" cy="482.818" r="5.79971" fill="white" stroke="#5233FF" stroke-width="2.94603"/>
<path d="M976.9 408.445H876.64C875.011 408.445 873.691 409.765 873.691 411.394V420.24C873.691 421.869 875.011 423.189 876.64 423.189H976.9C978.528 423.189 979.848 421.869 979.848 420.24V411.394C979.848 409.765 978.528 408.445 976.9 408.445Z" fill="#E6ECF2"/>
<rect x="862" y="394" width="313.158" height="241.769" rx="5" stroke="#E2E8F0" stroke-width="2"/>
<rect x="878.412" y="452.202" width="17.1757" height="13.9291" rx="1" fill="#E2E8F0"/>
<rect x="908.47" y="452.201" width="115.936" height="13.9291" rx="1" fill="#E2E8F0"/>
<rect x="1060.19" y="452.201" width="60.1149" height="13.9291" rx="1" fill="#E2E8F0" fill-opacity="0.5"/>
<rect x="878.412" y="481.802" width="17.1757" height="13.9291" rx="1" fill="#E2E8F0"/>
<rect x="908.013" y="481.802" width="111.437" height="13.9296" rx="1" fill="#E2E8F0"/>
<rect x="1059.5" y="481.802" width="50.495" height="13.9296" rx="1" fill="#E2E8F0" fill-opacity="0.5"/>
<rect x="878.412" y="513.144" width="17.1757" height="13.9291" rx="1" fill="#E2E8F0"/>
<rect x="908.013" y="513.143" width="102.731" height="13.9296" rx="1" fill="#E2E8F0"/>
<rect x="1060.19" y="513.143" width="60.1149" height="13.9291" rx="1" fill="#E2E8F0" fill-opacity="0.5"/>
<rect x="878.412" y="547.968" width="17.1757" height="13.9291" rx="1" fill="#E2E8F0"/>
<rect x="908.47" y="547.968" width="115.936" height="13.9291" rx="1" fill="#E2E8F0"/>
<rect x="1060.19" y="547.968" width="60.1149" height="13.9291" rx="1" fill="#E2E8F0" fill-opacity="0.5"/>
<defs>
<linearGradient id="paint0_linear_131_361" x1="1207" y1="13" x2="1207" y2="46.57" gradientUnits="userSpaceOnUse">
<stop offset="0.0120133" stop-color="#DE00BB"/>
</linearGradient>
<linearGradient id="paint1_linear_131_361" x1="1208.3" y1="22" x2="1208.3" y2="37.1184" gradientUnits="userSpaceOnUse">
<stop stop-color="white"/>
<stop offset="1" stop-color="#FFDCC2"/>
</linearGradient>
<linearGradient id="paint2_linear_131_361" x1="1207.94" y1="34.72" x2="1207.94" y2="16.8394" gradientUnits="userSpaceOnUse">
<stop stop-color="#0D0E11"/>
<stop offset="1"/>
</linearGradient>
<clipPath id="clip0_131_361">
<path d="M1189 31C1189 21.0589 1197.06 13 1207 13V13C1216.94 13 1225 21.0589 1225 31V31C1225 40.9411 1216.94 49 1207 49V49C1197.06 49 1189 40.9411 1189 31V31Z" fill="white"/>
</clipPath>
</defs>
</svg>
