<svg width="325" height="471" viewBox="0 0 325 471" fill="none" xmlns="http://www.w3.org/2000/svg">
<path d="M321.131 0H3.86905C1.73223 0 0 3.11944 0 6.96746V464.033C0 467.881 1.73223 471 3.86905 471H321.131C323.268 471 325 467.881 325 464.033V6.96746C325 3.11944 323.268 0 321.131 0Z" fill="white"/>
<rect x="21" y="191" width="269" height="64" rx="5" stroke="#E2E8F0" stroke-width="2"/>
<rect x="23" y="332" width="269" height="32" rx="5" stroke="#E2E8F0" stroke-width="2"/>
<rect x="22" y="277" width="219.933" height="11.3953" rx="1" fill="#E2E8F0"/>
<rect x="22" y="299.791" width="271" height="12.2093" rx="1" fill="#E2E8F0" fill-opacity="0.5"/>
<rect x="22" y="145" width="219.933" height="11.3953" rx="1" fill="#E2E8F0"/>
<rect x="22" y="167.791" width="271" height="12.2093" rx="1" fill="#E2E8F0" fill-opacity="0.5"/>
<path d="M23.38 109V92.9H26.416L33.2125 103.928V92.9H36.0185V109H32.994L26.186 97.9715V109H23.38ZM38.7882 97.5H41.5942V109H38.7882V97.5ZM40.2142 96.0165C39.8002 96.0165 39.4514 95.8823 39.1677 95.614C38.884 95.338 38.7422 94.993 38.7422 94.579C38.7422 94.1727 38.884 93.8315 39.1677 93.5555C39.4514 93.2795 39.7964 93.1415 40.2027 93.1415C40.609 93.1415 40.9502 93.2795 41.2262 93.5555C41.5099 93.8315 41.6517 94.1727 41.6517 94.579C41.6517 94.993 41.5137 95.338 41.2377 95.614C40.9617 95.8823 40.6205 96.0165 40.2142 96.0165ZM54.6505 109H51.419L48.797 104.48L47.187 106.401V109H44.381V91.75H47.187V102.042L50.9935 97.5H54.662L50.7175 102.203L54.6505 109ZM60.7613 109.299C59.7033 109.299 58.7373 109.027 57.8633 108.482C56.997 107.938 56.3031 107.206 55.7818 106.286C55.2681 105.366 55.0113 104.35 55.0113 103.238C55.0113 102.403 55.1608 101.621 55.4598 100.892C55.7588 100.156 56.169 99.5125 56.6903 98.9605C57.2193 98.4008 57.8326 97.9638 58.5303 97.6495C59.228 97.3352 59.9716 97.178 60.7613 97.178C61.6583 97.178 62.4786 97.3697 63.2223 97.753C63.9736 98.1287 64.61 98.6462 65.1313 99.3055C65.6526 99.9648 66.0321 100.716 66.2698 101.559C66.5075 102.403 66.5611 103.284 66.4308 104.204H58.0243C58.1316 104.634 58.308 105.021 58.5533 105.366C58.7986 105.703 59.1091 105.975 59.4848 106.182C59.8605 106.382 60.286 106.485 60.7613 106.493C61.252 106.501 61.6966 106.386 62.0953 106.148C62.5016 105.903 62.839 105.573 63.1073 105.159L65.9708 105.826C65.5031 106.846 64.8055 107.681 63.8778 108.333C62.9501 108.977 61.9113 109.299 60.7613 109.299ZM57.9323 102.1H63.5903C63.506 101.64 63.3258 101.226 63.0498 100.858C62.7815 100.482 62.448 100.183 62.0493 99.961C61.6506 99.7387 61.2213 99.6275 60.7613 99.6275C60.3013 99.6275 59.8758 99.7387 59.4848 99.961C59.0938 100.176 58.7603 100.471 58.4843 100.846C58.216 101.214 58.032 101.632 57.9323 102.1ZM79.8928 109.299C79.0035 109.299 78.1486 109.161 77.3283 108.885C76.5156 108.601 75.8026 108.199 75.1893 107.677C74.576 107.148 74.1351 106.516 73.8668 105.78L76.5003 104.814C76.6076 105.121 76.8261 105.4 77.1558 105.653C77.4855 105.906 77.888 106.11 78.3633 106.263C78.8386 106.416 79.3485 106.493 79.8928 106.493C80.4525 106.493 80.9738 106.409 81.4568 106.24C81.9475 106.064 82.3423 105.822 82.6413 105.515C82.9403 105.201 83.0898 104.837 83.0898 104.423C83.0898 104.001 82.9326 103.656 82.6183 103.388C82.304 103.112 81.9015 102.893 81.4108 102.732C80.9201 102.571 80.4141 102.449 79.8928 102.364C78.7505 102.188 77.727 101.916 76.8223 101.548C75.9176 101.18 75.2008 100.67 74.6718 100.018C74.1505 99.3668 73.8898 98.5235 73.8898 97.4885C73.8898 96.5148 74.1696 95.6638 74.7293 94.9355C75.289 94.2072 76.025 93.6398 76.9373 93.2335C77.8496 92.8272 78.8348 92.624 79.8928 92.624C80.7745 92.624 81.6255 92.762 82.4458 93.038C83.2661 93.314 83.983 93.7165 84.5963 94.2455C85.2173 94.7745 85.662 95.4108 85.9303 96.1545L83.2853 97.109C83.178 96.8023 82.9595 96.5225 82.6298 96.2695C82.3001 96.0165 81.8976 95.8172 81.4223 95.6715C80.947 95.5182 80.4371 95.4415 79.8928 95.4415C79.3485 95.4338 78.831 95.522 78.3403 95.706C77.8573 95.8823 77.4625 96.1238 77.1558 96.4305C76.8491 96.7372 76.6958 97.0898 76.6958 97.4885C76.6958 98.0022 76.8376 98.3893 77.1213 98.65C77.4126 98.9107 77.7998 99.1023 78.2828 99.225C78.7658 99.34 79.3025 99.4473 79.8928 99.547C80.9661 99.7157 81.959 99.9993 82.8713 100.398C83.7836 100.797 84.5158 101.329 85.0678 101.996C85.6198 102.656 85.8958 103.465 85.8958 104.423C85.8958 105.397 85.6198 106.251 85.0678 106.987C84.5158 107.716 83.7836 108.283 82.8713 108.689C81.959 109.096 80.9661 109.299 79.8928 109.299ZM94.3438 100.306H92.1128V109H89.3068V100.306H87.6048V97.5H89.3068V93.889H92.1128V97.5H94.3438V100.306ZM101.236 109.299C100.178 109.299 99.2119 109.027 98.3379 108.482C97.4716 107.938 96.7777 107.21 96.2564 106.297C95.7427 105.377 95.4859 104.362 95.4859 103.25C95.4859 102.407 95.6354 101.621 95.9344 100.892C96.2334 100.156 96.6436 99.5125 97.1649 98.9605C97.6939 98.4008 98.3072 97.9638 99.0049 97.6495C99.7026 97.3352 100.446 97.178 101.236 97.178C102.294 97.178 103.256 97.4502 104.122 97.9945C104.996 98.5388 105.69 99.271 106.204 100.191C106.725 101.111 106.986 102.131 106.986 103.25C106.986 104.086 106.836 104.868 106.537 105.596C106.238 106.324 105.824 106.968 105.295 107.528C104.774 108.08 104.165 108.513 103.467 108.827C102.777 109.142 102.033 109.299 101.236 109.299ZM101.236 106.493C101.796 106.493 102.298 106.343 102.742 106.045C103.187 105.745 103.536 105.351 103.789 104.86C104.05 104.369 104.18 103.833 104.18 103.25C104.18 102.652 104.046 102.108 103.777 101.617C103.517 101.119 103.16 100.724 102.708 100.432C102.263 100.133 101.773 99.984 101.236 99.984C100.684 99.984 100.186 100.133 99.7409 100.432C99.2962 100.731 98.9436 101.13 98.6829 101.628C98.4222 102.127 98.2919 102.667 98.2919 103.25C98.2919 103.856 98.4261 104.404 98.6944 104.894C98.9627 105.385 99.3192 105.776 99.7639 106.067C100.216 106.351 100.707 106.493 101.236 106.493ZM108.788 109L108.776 97.5H111.582L111.594 98.5235C111.985 98.1095 112.453 97.7837 112.997 97.546C113.541 97.3007 114.128 97.178 114.756 97.178C115.178 97.178 115.6 97.2393 116.021 97.362L114.917 100.191C114.626 100.076 114.335 100.018 114.043 100.018C113.591 100.018 113.177 100.13 112.801 100.352C112.433 100.567 112.138 100.862 111.916 101.237C111.701 101.605 111.594 102.016 111.594 102.468V109H108.788ZM121.833 109.299C120.775 109.299 119.809 109.027 118.935 108.482C118.068 107.938 117.374 107.206 116.853 106.286C116.339 105.366 116.083 104.35 116.083 103.238C116.083 102.403 116.232 101.621 116.531 100.892C116.83 100.156 117.24 99.5125 117.762 98.9605C118.291 98.4008 118.904 97.9638 119.602 97.6495C120.299 97.3352 121.043 97.178 121.833 97.178C122.73 97.178 123.55 97.3697 124.294 97.753C125.045 98.1287 125.681 98.6462 126.203 99.3055C126.724 99.9648 127.103 100.716 127.341 101.559C127.579 102.403 127.632 103.284 127.502 104.204H119.096C119.203 104.634 119.379 105.021 119.625 105.366C119.87 105.703 120.18 105.975 120.556 106.182C120.932 106.382 121.357 106.485 121.833 106.493C122.323 106.501 122.768 106.386 123.167 106.148C123.573 105.903 123.91 105.573 124.179 105.159L127.042 105.826C126.574 106.846 125.877 107.681 124.949 108.333C124.021 108.977 122.983 109.299 121.833 109.299ZM119.004 102.1H124.662C124.577 101.64 124.397 101.226 124.121 100.858C123.853 100.482 123.519 100.183 123.121 99.961C122.722 99.7387 122.293 99.6275 121.833 99.6275C121.373 99.6275 120.947 99.7387 120.556 99.961C120.165 100.176 119.832 100.471 119.556 100.846C119.287 101.214 119.103 101.632 119.004 102.1ZM140.964 109.299C140.075 109.299 139.22 109.161 138.4 108.885C137.587 108.601 136.874 108.199 136.261 107.677C135.647 107.148 135.206 106.516 134.938 105.78L137.572 104.814C137.679 105.121 137.897 105.4 138.227 105.653C138.557 105.906 138.959 106.11 139.435 106.263C139.91 106.416 140.42 106.493 140.964 106.493C141.524 106.493 142.045 106.409 142.528 106.24C143.019 106.064 143.414 105.822 143.713 105.515C144.012 105.201 144.161 104.837 144.161 104.423C144.161 104.001 144.004 103.656 143.69 103.388C143.375 103.112 142.973 102.893 142.482 102.732C141.991 102.571 141.485 102.449 140.964 102.364C139.822 102.188 138.798 101.916 137.894 101.548C136.989 101.18 136.272 100.67 135.743 100.018C135.222 99.3668 134.961 98.5235 134.961 97.4885C134.961 96.5148 135.241 95.6638 135.801 94.9355C136.36 94.2072 137.096 93.6398 138.009 93.2335C138.921 92.8272 139.906 92.624 140.964 92.624C141.846 92.624 142.697 92.762 143.517 93.038C144.337 93.314 145.054 93.7165 145.668 94.2455C146.289 94.7745 146.733 95.4108 147.002 96.1545L144.357 97.109C144.249 96.8023 144.031 96.5225 143.701 96.2695C143.371 96.0165 142.969 95.8172 142.494 95.6715C142.018 95.5182 141.508 95.4415 140.964 95.4415C140.42 95.4338 139.902 95.522 139.412 95.706C138.929 95.8823 138.534 96.1238 138.227 96.4305C137.92 96.7372 137.767 97.0898 137.767 97.4885C137.767 98.0022 137.909 98.3893 138.193 98.65C138.484 98.9107 138.871 99.1023 139.354 99.225C139.837 99.34 140.374 99.4473 140.964 99.547C142.037 99.7157 143.03 99.9993 143.943 100.398C144.855 100.797 145.587 101.329 146.139 101.996C146.691 102.656 146.967 103.465 146.967 104.423C146.967 105.397 146.691 106.251 146.139 106.987C145.587 107.716 144.855 108.283 143.943 108.689C143.03 109.096 142.037 109.299 140.964 109.299ZM148.791 104.745V97.5H151.597V104.009C151.597 104.461 151.708 104.875 151.931 105.251C152.153 105.619 152.448 105.914 152.816 106.136C153.192 106.351 153.602 106.458 154.047 106.458C154.507 106.458 154.921 106.351 155.289 106.136C155.657 105.914 155.952 105.619 156.174 105.251C156.396 104.875 156.508 104.461 156.508 104.009V97.5H159.314L159.325 109H156.519L156.508 107.953C156.109 108.367 155.637 108.697 155.093 108.942C154.549 109.18 153.966 109.299 153.345 109.299C152.509 109.299 151.747 109.096 151.057 108.689C150.367 108.275 149.815 107.727 149.401 107.045C148.994 106.355 148.791 105.588 148.791 104.745ZM161.639 109L161.627 97.5H164.433L164.445 98.5235C164.836 98.1095 165.303 97.7837 165.848 97.546C166.392 97.3007 166.978 97.178 167.607 97.178C168.029 97.178 168.45 97.2393 168.872 97.362L167.768 100.191C167.477 100.076 167.185 100.018 166.894 100.018C166.442 100.018 166.028 100.13 165.652 100.352C165.284 100.567 164.989 100.862 164.767 101.237C164.552 101.605 164.445 102.016 164.445 102.468V109H161.639ZM177.595 109H173.973L169.787 97.4885H172.777L175.79 105.768L178.791 97.4885H181.781L177.595 109ZM188.092 109.299C187.034 109.299 186.068 109.027 185.194 108.482C184.328 107.938 183.634 107.206 183.113 106.286C182.599 105.366 182.342 104.35 182.342 103.238C182.342 102.403 182.492 101.621 182.791 100.892C183.09 100.156 183.5 99.5125 184.021 98.9605C184.55 98.4008 185.164 97.9638 185.861 97.6495C186.559 97.3352 187.303 97.178 188.092 97.178C188.989 97.178 189.81 97.3697 190.553 97.753C191.305 98.1287 191.941 98.6462 192.462 99.3055C192.984 99.9648 193.363 100.716 193.601 101.559C193.839 102.403 193.892 103.284 193.762 104.204H185.355C185.463 104.634 185.639 105.021 185.884 105.366C186.13 105.703 186.44 105.975 186.816 106.182C187.192 106.382 187.617 106.485 188.092 106.493C188.583 106.501 189.028 106.386 189.426 106.148C189.833 105.903 190.17 105.573 190.438 105.159L193.302 105.826C192.834 106.846 192.137 107.681 191.209 108.333C190.281 108.977 189.242 109.299 188.092 109.299ZM185.263 102.1H190.921C190.837 101.64 190.657 101.226 190.381 100.858C190.113 100.482 189.779 100.183 189.38 99.961C188.982 99.7387 188.552 99.6275 188.092 99.6275C187.632 99.6275 187.207 99.7387 186.816 99.961C186.425 100.176 186.091 100.471 185.815 100.846C185.547 101.214 185.363 101.632 185.263 102.1ZM202.803 97.5H205.782L199.491 114.75H196.513L198.594 109L194.454 97.5H197.525L199.997 105.159L202.803 97.5Z" fill="#18303F"/>
<rect x="22" y="409" width="281" height="42" rx="9.25373" fill="#5233FF"/>
<path d="M81.7635 436.234C81.0675 436.234 80.3985 436.126 79.7565 435.91C79.1205 435.688 78.5625 435.373 78.0825 434.965C77.6025 434.551 77.2575 434.056 77.0475 433.48L79.1085 432.724C79.1925 432.964 79.3635 433.183 79.6215 433.381C79.8795 433.579 80.1945 433.738 80.5665 433.858C80.9385 433.978 81.3375 434.038 81.7635 434.038C82.2015 434.038 82.6095 433.972 82.9875 433.84C83.3715 433.702 83.6805 433.513 83.9145 433.273C84.1485 433.027 84.2655 432.742 84.2655 432.418C84.2655 432.088 84.1425 431.818 83.8965 431.608C83.6505 431.392 83.3355 431.221 82.9515 431.095C82.5675 430.969 82.1715 430.873 81.7635 430.807C80.8695 430.669 80.0685 430.456 79.3605 430.168C78.6525 429.88 78.0915 429.481 77.6775 428.971C77.2695 428.461 77.0655 427.801 77.0655 426.991C77.0655 426.229 77.2845 425.563 77.7225 424.993C78.1605 424.423 78.7365 423.979 79.4505 423.661C80.1645 423.343 80.9355 423.184 81.7635 423.184C82.4535 423.184 83.1195 423.292 83.7615 423.508C84.4035 423.724 84.9645 424.039 85.4445 424.453C85.9305 424.867 86.2785 425.365 86.4885 425.947L84.4185 426.694C84.3345 426.454 84.1635 426.235 83.9055 426.037C83.6475 425.839 83.3325 425.683 82.9605 425.569C82.5885 425.449 82.1895 425.389 81.7635 425.389C81.3375 425.383 80.9325 425.452 80.5485 425.596C80.1705 425.734 79.8615 425.923 79.6215 426.163C79.3815 426.403 79.2615 426.679 79.2615 426.991C79.2615 427.393 79.3725 427.696 79.5945 427.9C79.8225 428.104 80.1255 428.254 80.5035 428.35C80.8815 428.44 81.3015 428.524 81.7635 428.602C82.6035 428.734 83.3805 428.956 84.0945 429.268C84.8085 429.58 85.3815 429.997 85.8135 430.519C86.2455 431.035 86.4615 431.668 86.4615 432.418C86.4615 433.18 86.2455 433.849 85.8135 434.425C85.3815 434.995 84.8085 435.439 84.0945 435.757C83.3805 436.075 82.6035 436.234 81.7635 436.234ZM87.8889 432.67V427H90.0849V432.094C90.0849 432.448 90.1719 432.772 90.3459 433.066C90.5199 433.354 90.7509 433.585 91.0389 433.759C91.3329 433.927 91.6539 434.011 92.0019 434.011C92.3619 434.011 92.6859 433.927 92.9739 433.759C93.2619 433.585 93.4929 433.354 93.6669 433.066C93.8409 432.772 93.9279 432.448 93.9279 432.094V427H96.1239L96.1329 436H93.9369L93.9279 435.181C93.6159 435.505 93.2469 435.763 92.8209 435.955C92.3949 436.141 91.9389 436.234 91.4529 436.234C90.7989 436.234 90.2019 436.075 89.6619 435.757C89.1219 435.433 88.6899 435.004 88.3659 434.47C88.0479 433.93 87.8889 433.33 87.8889 432.67ZM102.775 426.748C103.651 426.748 104.449 426.961 105.169 427.387C105.889 427.813 106.462 428.386 106.888 429.106C107.314 429.82 107.527 430.612 107.527 431.482C107.527 432.136 107.404 432.751 107.158 433.327C106.912 433.903 106.57 434.41 106.132 434.848C105.7 435.28 105.196 435.619 104.62 435.865C104.05 436.111 103.435 436.234 102.775 436.234C102.211 436.234 101.71 436.108 101.272 435.856C100.84 435.598 100.477 435.265 100.183 434.857V436H97.9872V422.5H100.183V428.125C100.477 427.717 100.84 427.387 101.272 427.135C101.71 426.877 102.211 426.748 102.775 426.748ZM102.748 434.11C103.216 434.11 103.639 433.993 104.017 433.759C104.401 433.519 104.707 433.201 104.935 432.805C105.163 432.409 105.277 431.968 105.277 431.482C105.277 431.002 105.163 430.564 104.935 430.168C104.707 429.766 104.401 429.448 104.017 429.214C103.633 428.98 103.21 428.863 102.748 428.863C102.292 428.863 101.884 428.983 101.524 429.223C101.164 429.457 100.882 429.775 100.678 430.177C100.474 430.573 100.372 431.008 100.372 431.482C100.372 431.968 100.474 432.412 100.678 432.814C100.882 433.21 101.164 433.525 101.524 433.759C101.884 433.993 102.292 434.11 102.748 434.11ZM108.938 436V427H111.134V427.801C111.44 427.477 111.806 427.222 112.232 427.036C112.658 426.844 113.117 426.748 113.609 426.748C114.233 426.748 114.806 426.895 115.328 427.189C115.856 427.483 116.276 427.876 116.588 428.368C116.906 427.876 117.326 427.483 117.848 427.189C118.37 426.895 118.943 426.748 119.567 426.748C120.227 426.748 120.824 426.91 121.358 427.234C121.898 427.552 122.327 427.981 122.645 428.521C122.969 429.055 123.131 429.652 123.131 430.312V436H120.935V430.897C120.935 430.549 120.848 430.231 120.674 429.943C120.506 429.649 120.278 429.415 119.99 429.241C119.708 429.061 119.39 428.971 119.036 428.971C118.682 428.971 118.361 429.058 118.073 429.232C117.791 429.4 117.563 429.628 117.389 429.916C117.215 430.204 117.128 430.531 117.128 430.897V436H114.932V430.897C114.932 430.531 114.848 430.204 114.68 429.916C114.512 429.628 114.284 429.4 113.996 429.232C113.708 429.058 113.387 428.971 113.033 428.971C112.685 428.971 112.367 429.061 112.079 429.241C111.791 429.415 111.56 429.649 111.386 429.943C111.218 430.231 111.134 430.549 111.134 430.897V436H108.938ZM124.934 427H127.13V436H124.934V427ZM126.05 425.839C125.726 425.839 125.453 425.734 125.231 425.524C125.009 425.308 124.898 425.038 124.898 424.714C124.898 424.396 125.009 424.129 125.231 423.913C125.453 423.697 125.723 423.589 126.041 423.589C126.359 423.589 126.626 423.697 126.842 423.913C127.064 424.129 127.175 424.396 127.175 424.714C127.175 425.038 127.067 425.308 126.851 425.524C126.635 425.734 126.368 425.839 126.05 425.839ZM134.118 429.196H132.372V436H130.176V429.196H128.844V427H130.176V424.174H132.372V427H134.118V429.196ZM147.791 423.4H150.383L146.054 430.321V436H143.858V430.321L139.529 423.4H142.121L144.956 427.927L147.791 423.4ZM154.049 436.234C153.221 436.234 152.465 436.021 151.781 435.595C151.103 435.169 150.56 434.599 150.152 433.885C149.75 433.165 149.549 432.37 149.549 431.5C149.549 430.84 149.666 430.225 149.9 429.655C150.134 429.079 150.455 428.575 150.863 428.143C151.277 427.705 151.757 427.363 152.303 427.117C152.849 426.871 153.431 426.748 154.049 426.748C154.877 426.748 155.63 426.961 156.308 427.387C156.992 427.813 157.535 428.386 157.937 429.106C158.345 429.826 158.549 430.624 158.549 431.5C158.549 432.154 158.432 432.766 158.198 433.336C157.964 433.906 157.64 434.41 157.226 434.848C156.818 435.28 156.341 435.619 155.795 435.865C155.255 436.111 154.673 436.234 154.049 436.234ZM154.049 434.038C154.487 434.038 154.88 433.921 155.228 433.687C155.576 433.453 155.849 433.144 156.047 432.76C156.251 432.376 156.353 431.956 156.353 431.5C156.353 431.032 156.248 430.606 156.038 430.222C155.834 429.832 155.555 429.523 155.201 429.295C154.853 429.061 154.469 428.944 154.049 428.944C153.617 428.944 153.227 429.061 152.879 429.295C152.531 429.529 152.255 429.841 152.051 430.231C151.847 430.621 151.745 431.044 151.745 431.5C151.745 431.974 151.85 432.403 152.06 432.787C152.27 433.171 152.549 433.477 152.897 433.705C153.251 433.927 153.635 434.038 154.049 434.038ZM159.379 432.67V427H161.575V432.094C161.575 432.448 161.662 432.772 161.836 433.066C162.01 433.354 162.241 433.585 162.529 433.759C162.823 433.927 163.144 434.011 163.492 434.011C163.852 434.011 164.176 433.927 164.464 433.759C164.752 433.585 164.983 433.354 165.157 433.066C165.331 432.772 165.418 432.448 165.418 432.094V427H167.614L167.623 436H165.427L165.418 435.181C165.106 435.505 164.737 435.763 164.311 435.955C163.885 436.141 163.429 436.234 162.943 436.234C162.289 436.234 161.692 436.075 161.152 435.757C160.612 435.433 160.18 435.004 159.856 434.47C159.538 433.93 159.379 433.33 159.379 432.67ZM169.434 436L169.425 427H171.621L171.63 427.801C171.936 427.477 172.302 427.222 172.728 427.036C173.154 426.844 173.613 426.748 174.105 426.748C174.435 426.748 174.765 426.796 175.095 426.892L174.231 429.106C174.003 429.016 173.775 428.971 173.547 428.971C173.193 428.971 172.869 429.058 172.575 429.232C172.287 429.4 172.056 429.631 171.882 429.925C171.714 430.213 171.63 430.534 171.63 430.888V436H169.434ZM184.887 423.4H187.416L191.997 436H189.666L188.856 433.768H183.456L182.646 436H180.315L184.887 423.4ZM184.257 431.572H188.046L186.147 426.379L184.257 431.572ZM201.61 430.312V436H199.414V430.888C199.414 430.534 199.327 430.213 199.153 429.925C198.979 429.631 198.745 429.4 198.451 429.232C198.163 429.058 197.842 428.971 197.488 428.971C197.134 428.971 196.81 429.058 196.516 429.232C196.228 429.4 195.997 429.631 195.823 429.925C195.655 430.213 195.571 430.534 195.571 430.888V436H193.375L193.366 427H195.562L195.571 427.801C195.877 427.477 196.243 427.222 196.669 427.036C197.095 426.844 197.554 426.748 198.046 426.748C198.7 426.748 199.297 426.91 199.837 427.234C200.377 427.552 200.806 427.981 201.124 428.521C201.448 429.055 201.61 429.652 201.61 430.312ZM206.058 436.162C205.59 436.132 205.137 436.039 204.699 435.883C204.267 435.721 203.883 435.502 203.547 435.226C203.211 434.95 202.953 434.62 202.773 434.236L204.627 433.444C204.699 433.564 204.816 433.693 204.978 433.831C205.14 433.963 205.332 434.074 205.554 434.164C205.782 434.254 206.031 434.299 206.301 434.299C206.529 434.299 206.745 434.269 206.949 434.209C207.159 434.143 207.327 434.044 207.453 433.912C207.585 433.78 207.651 433.609 207.651 433.399C207.651 433.177 207.573 433.006 207.417 432.886C207.267 432.76 207.075 432.667 206.841 432.607C206.613 432.541 206.391 432.481 206.175 432.427C205.605 432.313 205.074 432.136 204.582 431.896C204.096 431.656 203.703 431.347 203.403 430.969C203.109 430.585 202.962 430.123 202.962 429.583C202.962 428.989 203.118 428.476 203.43 428.044C203.748 427.612 204.159 427.279 204.663 427.045C205.173 426.811 205.722 426.694 206.31 426.694C207.024 426.694 207.678 426.844 208.272 427.144C208.872 427.438 209.346 427.855 209.694 428.395L207.957 429.421C207.873 429.277 207.756 429.145 207.606 429.025C207.456 428.899 207.285 428.797 207.093 428.719C206.901 428.635 206.7 428.587 206.49 428.575C206.22 428.563 205.974 428.587 205.752 428.647C205.53 428.707 205.35 428.809 205.212 428.953C205.08 429.097 205.014 429.289 205.014 429.529C205.014 429.757 205.104 429.928 205.284 430.042C205.464 430.15 205.68 430.234 205.932 430.294C206.19 430.354 206.436 430.42 206.67 430.492C207.198 430.666 207.693 430.879 208.155 431.131C208.623 431.383 208.998 431.692 209.28 432.058C209.562 432.424 209.697 432.862 209.685 433.372C209.685 433.954 209.511 434.464 209.163 434.902C208.815 435.334 208.365 435.664 207.813 435.892C207.267 436.12 206.682 436.21 206.058 436.162ZM215.536 436H213.358L210.352 427H212.503L214.456 432.823L216.4 427H218.569L220.513 432.823L222.466 427H224.617L221.611 436H219.433L217.48 430.15L215.536 436ZM229.564 436.234C228.736 436.234 227.98 436.021 227.296 435.595C226.618 435.169 226.075 434.596 225.667 433.876C225.265 433.156 225.064 432.361 225.064 431.491C225.064 430.837 225.181 430.225 225.415 429.655C225.649 429.079 225.97 428.575 226.378 428.143C226.792 427.705 227.272 427.363 227.818 427.117C228.364 426.871 228.946 426.748 229.564 426.748C230.266 426.748 230.908 426.898 231.49 427.198C232.078 427.492 232.576 427.897 232.984 428.413C233.392 428.929 233.689 429.517 233.875 430.177C234.061 430.837 234.103 431.527 234.001 432.247H227.422C227.506 432.583 227.644 432.886 227.836 433.156C228.028 433.42 228.271 433.633 228.565 433.795C228.859 433.951 229.192 434.032 229.564 434.038C229.948 434.044 230.296 433.954 230.608 433.768C230.926 433.576 231.19 433.318 231.4 432.994L233.641 433.516C233.275 434.314 232.729 434.968 232.003 435.478C231.277 435.982 230.464 436.234 229.564 436.234ZM227.35 430.6H231.778C231.712 430.24 231.571 429.916 231.355 429.628C231.145 429.334 230.884 429.1 230.572 428.926C230.26 428.752 229.924 428.665 229.564 428.665C229.204 428.665 228.871 428.752 228.565 428.926C228.259 429.094 227.998 429.325 227.782 429.619C227.572 429.907 227.428 430.234 227.35 430.6ZM235.475 436L235.466 427H237.662L237.671 427.801C237.977 427.477 238.343 427.222 238.769 427.036C239.195 426.844 239.654 426.748 240.146 426.748C240.476 426.748 240.806 426.796 241.136 426.892L240.272 429.106C240.044 429.016 239.816 428.971 239.588 428.971C239.234 428.971 238.91 429.058 238.616 429.232C238.328 429.4 238.097 429.631 237.923 429.925C237.755 430.213 237.671 430.534 237.671 430.888V436H235.475ZM244.765 436.162C244.297 436.132 243.844 436.039 243.406 435.883C242.974 435.721 242.59 435.502 242.254 435.226C241.918 434.95 241.66 434.62 241.48 434.236L243.334 433.444C243.406 433.564 243.523 433.693 243.685 433.831C243.847 433.963 244.039 434.074 244.261 434.164C244.489 434.254 244.738 434.299 245.008 434.299C245.236 434.299 245.452 434.269 245.656 434.209C245.866 434.143 246.034 434.044 246.16 433.912C246.292 433.78 246.358 433.609 246.358 433.399C246.358 433.177 246.28 433.006 246.124 432.886C245.974 432.76 245.782 432.667 245.548 432.607C245.32 432.541 245.098 432.481 244.882 432.427C244.312 432.313 243.781 432.136 243.289 431.896C242.803 431.656 242.41 431.347 242.11 430.969C241.816 430.585 241.669 430.123 241.669 429.583C241.669 428.989 241.825 428.476 242.137 428.044C242.455 427.612 242.866 427.279 243.37 427.045C243.88 426.811 244.429 426.694 245.017 426.694C245.731 426.694 246.385 426.844 246.979 427.144C247.579 427.438 248.053 427.855 248.401 428.395L246.664 429.421C246.58 429.277 246.463 429.145 246.313 429.025C246.163 428.899 245.992 428.797 245.8 428.719C245.608 428.635 245.407 428.587 245.197 428.575C244.927 428.563 244.681 428.587 244.459 428.647C244.237 428.707 244.057 428.809 243.919 428.953C243.787 429.097 243.721 429.289 243.721 429.529C243.721 429.757 243.811 429.928 243.991 430.042C244.171 430.15 244.387 430.234 244.639 430.294C244.897 430.354 245.143 430.42 245.377 430.492C245.905 430.666 246.4 430.879 246.862 431.131C247.33 431.383 247.705 431.692 247.987 432.058C248.269 432.424 248.404 432.862 248.392 433.372C248.392 433.954 248.218 434.464 247.87 434.902C247.522 435.334 247.072 435.664 246.52 435.892C245.974 436.12 245.389 436.21 244.765 436.162Z" fill="white"/>
<path d="M31.0092 29C31.0092 29 28.2408 33.5849 28.2408 37.7559C28.2408 42.2134 31.5564 44.6651 35.7412 44.6651C40.4411 44.6651 43.5314 43.2642 51.74 41.1309L97 29.3184C97 29.3184 58.6288 45.7795 40.2801 53.2936C36.6426 54.7901 33.2304 56 28.8524 56C24.0238 56 20 53.1344 20 48.3585C20 44.7288 21.1911 42.0224 23.1869 38.6792C26.3737 33.3302 31.0092 29 31.0092 29Z" fill="#8EA6C2"/>
</svg>
