<svg width="1239" height="693" viewBox="0 0 1239 693" fill="none" xmlns="http://www.w3.org/2000/svg">
<path d="M1223.76 0H14.7441C6.60115 0 0 4.58974 0 10.2515V682.749C0 688.41 6.60115 693 14.7441 693H1223.76C1231.9 693 1238.5 688.41 1238.5 682.749V10.2515C1238.5 4.58974 1231.9 0 1223.76 0Z" fill="white"/>
<path d="M188.406 100.95H56.6097C53.5768 100.95 51.1182 102.427 51.1182 104.25V107.55C51.1182 109.372 53.5768 110.85 56.6097 110.85H188.406C191.438 110.85 193.897 109.372 193.897 107.55V104.25C193.897 102.427 191.438 100.95 188.406 100.95Z" fill="#CBD5E1"/>
<path d="M188.406 280.95H56.6097C53.5768 280.95 51.1182 282.427 51.1182 284.25V287.55C51.1182 289.372 53.5768 290.85 56.6097 290.85H188.406C191.438 290.85 193.897 289.372 193.897 287.55V284.25C193.897 282.427 191.438 280.95 188.406 280.95Z" fill="#CBD5E1"/>
<rect x="25" y="96" width="19.1533" height="18.15" rx="1" fill="#CBD5E1"/>
<rect x="25" y="276" width="19.1533" height="18.15" rx="1" fill="#CBD5E1"/>
<rect x="25" y="186.75" width="19.1533" height="18.15" rx="1" fill="#CBD5E1"/>
<rect x="25" y="231.3" width="19.1533" height="18.15" rx="1" fill="#CBD5E1"/>
<path d="M111.77 145.5H56.632C53.5868 145.5 51.1182 146.977 51.1182 148.8V152.1C51.1182 153.922 53.5868 155.4 56.632 155.4H111.77C114.815 155.4 117.284 153.922 117.284 152.1V148.8C117.284 146.977 114.815 145.5 111.77 145.5Z" fill="#8585FF"/>
<rect x="25" y="142.2" width="19.1533" height="16.5" rx="1" fill="#8585FF"/>
<path d="M96.0026 190.05H56.7287C53.6301 190.05 51.1182 191.774 51.1182 193.9V197.75C51.1182 199.876 53.6301 201.6 56.7287 201.6H96.0026C99.1012 201.6 101.613 199.876 101.613 197.75V193.9C101.613 191.774 99.1012 190.05 96.0026 190.05Z" fill="#CBD5E1"/>
<path d="M151.742 236.25H56.7084C53.621 236.25 51.1182 237.727 51.1182 239.55V242.85C51.1182 244.672 53.621 246.15 56.7084 246.15H151.742C154.829 246.15 157.332 244.672 157.332 242.85V239.55C157.332 237.727 154.829 236.25 151.742 236.25Z" fill="#CBD5E1"/>
<rect x="1170.52" y="37.9717" width="85.5157" height="13.9718" rx="1" transform="rotate(-180 1170.52 37.9717)" fill="#CBD5E1"/>
<path d="M405.944 87H302.056C300.368 87 299 89.3281 299 92.2V107.8C299 110.672 300.368 113 302.056 113H405.944C407.632 113 409 110.672 409 107.8V92.2C409 89.3281 407.632 87 405.944 87Z" fill="#E6ECF2"/>
<path d="M995.209 153H894.949C893.32 153 892 154.32 892 155.949V164.795C892 166.424 893.32 167.744 894.949 167.744H995.209C996.837 167.744 998.157 166.424 998.157 164.795V155.949C998.157 154.32 996.837 153 995.209 153Z" fill="#E6ECF2"/>
<path d="M1000.21 429H899.949C898.32 429 897 430.32 897 431.949V440.795C897 442.424 898.32 443.744 899.949 443.744H1000.21C1001.84 443.744 1003.16 442.424 1003.16 440.795V431.949C1003.16 430.32 1001.84 429 1000.21 429Z" fill="#E6ECF2"/>
<path d="M416.209 429H315.949C314.32 429 313 430.32 313 431.949V440.795C313 442.424 314.32 443.744 315.949 443.744H416.209C417.837 443.744 419.157 442.424 419.157 440.795V431.949C419.157 430.32 417.837 429 416.209 429Z" fill="#E6ECF2"/>
<rect x="300.487" y="138.555" width="553.445" height="241.769" rx="5" stroke="#E2E8F0" stroke-width="2"/>
<rect x="1094" y="87" width="98.99" height="25.8593" rx="2" stroke="#E2E8F0" stroke-width="2"/>
<rect x="880.309" y="138.555" width="313.158" height="241.769" rx="5" stroke="#E2E8F0" stroke-width="2"/>
<rect x="880.309" y="413.666" width="313.158" height="241.769" rx="5" stroke="#E2E8F0" stroke-width="2"/>
<rect x="300.487" y="413.666" width="553.445" height="241.769" rx="5" stroke="#E2E8F0" stroke-width="2"/>
<path d="M409.183 299.488L409.919 297.098C409.196 296.876 408.412 296.992 407.786 297.415L409.183 299.488ZM477.09 320.382L476.355 322.771C477.344 323.076 478.417 322.74 479.056 321.927L477.09 320.382ZM534.55 247.251L535.973 245.196C534.886 244.443 533.401 244.667 532.584 245.707L534.55 247.251ZM579.822 278.593L578.399 280.649C578.73 280.878 579.112 281.024 579.511 281.074L579.822 278.593ZM649.47 287.299L649.16 289.78C650.011 289.886 650.857 289.549 651.402 288.886L649.47 287.299ZM689.518 238.545L690.636 236.309C689.592 235.787 688.326 236.057 687.586 236.958L689.518 238.545ZM745.236 266.405L744.118 268.641C745.059 269.111 746.194 268.942 746.957 268.218L745.236 266.405ZM335.709 352.055L410.581 301.56L407.786 297.415L332.914 347.91L335.709 352.055ZM408.448 301.877L476.355 322.771L477.826 317.993L409.919 297.098L408.448 301.877ZM479.056 321.927L536.516 248.796L532.584 245.707L475.125 318.837L479.056 321.927ZM533.127 249.307L578.399 280.649L581.245 276.538L535.973 245.196L533.127 249.307ZM579.511 281.074L649.16 289.78L649.78 284.818L580.132 276.112L579.511 281.074ZM651.402 288.886L691.449 240.132L687.586 236.958L647.538 285.712L651.402 288.886ZM688.4 240.781L744.118 268.641L746.354 264.169L690.636 236.309L688.4 240.781ZM746.957 268.218L814.864 203.794L811.423 200.166L743.516 264.591L746.957 268.218Z" fill="#5233FF"/>
<path d="M336.053 548.48L416.148 578.08L468.384 548.48L541.515 534.55L592.01 564.151L659.917 586.786L689.518 534.55L760.907 548.48L821.849 501.467" stroke="#CBD5E1" stroke-width="4" stroke-linecap="round" stroke-linejoin="round"/>
<circle cx="409.183" cy="301.229" r="6.20603" fill="white" stroke="#5233FF" stroke-width="5"/>
<circle cx="336.053" cy="346.5" r="6.20603" fill="white" stroke="#5233FF" stroke-width="5"/>
<circle cx="412.666" cy="576.339" r="6.70603" fill="white" stroke="#CBD5E1" stroke-width="4"/>
<circle cx="336.053" cy="546.739" r="6.70603" fill="white" stroke="#CBD5E1" stroke-width="4"/>
<circle cx="471.867" cy="546.739" r="6.70603" fill="white" stroke="#CBD5E1" stroke-width="4"/>
<circle cx="592.01" cy="564.151" r="6.70603" fill="white" stroke="#CBD5E1" stroke-width="4"/>
<circle cx="658.176" cy="585.045" r="6.70603" fill="white" stroke="#CBD5E1" stroke-width="4"/>
<circle cx="689.518" cy="534.55" r="6.70603" fill="white" stroke="#CBD5E1" stroke-width="4"/>
<circle cx="762.648" cy="548.48" r="6.70603" fill="white" stroke="#CBD5E1" stroke-width="4"/>
<circle cx="827.073" cy="497.985" r="6.70603" fill="white" stroke="#CBD5E1" stroke-width="4"/>
<circle cx="543.256" cy="534.55" r="6.70603" fill="white" stroke="#CBD5E1" stroke-width="4"/>
<circle cx="478.832" cy="318.641" r="6.20603" fill="white" stroke="#5233FF" stroke-width="5"/>
<circle cx="534.55" cy="248.992" r="6.20603" fill="white" stroke="#5233FF" stroke-width="5"/>
<circle cx="583.304" cy="278.593" r="6.20603" fill="white" stroke="#5233FF" stroke-width="5"/>
<circle cx="649.47" cy="287.299" r="6.20603" fill="white" stroke="#5233FF" stroke-width="5"/>
<circle cx="689.518" cy="240.286" r="6.20603" fill="white" stroke="#5233FF" stroke-width="5"/>
<circle cx="745.236" cy="262.922" r="6.20603" fill="white" stroke="#5233FF" stroke-width="5"/>
<circle cx="813.143" cy="201.98" r="6.20603" fill="white" stroke="#5233FF" stroke-width="5"/>
<rect x="896.721" y="196.757" width="17.1757" height="13.9291" rx="1" fill="#E2E8F0"/>
<rect x="926.779" y="196.756" width="115.936" height="13.9291" rx="1" fill="#E2E8F0"/>
<rect x="1078.5" y="196.756" width="60.1149" height="13.9291" rx="1" fill="#E2E8F0" fill-opacity="0.5"/>
<rect x="896.721" y="470.126" width="17.1757" height="13.9291" rx="1" fill="#E2E8F0"/>
<rect x="926.779" y="470.126" width="115.936" height="13.9291" rx="1" fill="#E2E8F0"/>
<rect x="1078.5" y="470.126" width="60.1149" height="13.9291" rx="1" fill="#E2E8F0" fill-opacity="0.5"/>
<rect x="896.721" y="226.358" width="17.1757" height="13.9291" rx="1" fill="#E2E8F0"/>
<rect x="926.322" y="226.357" width="111.437" height="13.9296" rx="1" fill="#E2E8F0"/>
<rect x="1077.81" y="226.357" width="50.495" height="13.9296" rx="1" fill="#E2E8F0" fill-opacity="0.5"/>
<rect x="896.721" y="499.727" width="17.1757" height="13.9291" rx="1" fill="#E2E8F0"/>
<rect x="926.322" y="499.726" width="111.437" height="13.9296" rx="1" fill="#E2E8F0"/>
<rect x="1077.81" y="499.726" width="50.495" height="13.9296" rx="1" fill="#E2E8F0" fill-opacity="0.5"/>
<rect x="896.721" y="257.699" width="17.1757" height="13.9291" rx="1" fill="#E2E8F0"/>
<rect x="926.322" y="257.698" width="102.731" height="13.9296" rx="1" fill="#E2E8F0"/>
<rect x="1078.5" y="257.698" width="60.1149" height="13.9291" rx="1" fill="#E2E8F0" fill-opacity="0.5"/>
<rect x="896.721" y="532.81" width="17.1757" height="13.9291" rx="1" fill="#E2E8F0"/>
<rect x="926.322" y="532.809" width="102.731" height="13.9296" rx="1" fill="#E2E8F0"/>
<rect x="1078.5" y="532.809" width="60.1149" height="13.9291" rx="1" fill="#E2E8F0" fill-opacity="0.5"/>
<rect x="896.721" y="292.523" width="17.1757" height="13.9291" rx="1" fill="#E2E8F0"/>
<rect x="926.779" y="292.523" width="115.936" height="13.9291" rx="1" fill="#E2E8F0"/>
<rect x="1078.5" y="292.523" width="60.1149" height="13.9291" rx="1" fill="#E2E8F0" fill-opacity="0.5"/>
<rect x="896.721" y="565.893" width="17.1757" height="13.9291" rx="1" fill="#E2E8F0"/>
<rect x="926.779" y="565.892" width="115.936" height="13.9291" rx="1" fill="#E2E8F0"/>
<rect x="1078.5" y="565.892" width="60.1149" height="13.9291" rx="1" fill="#E2E8F0" fill-opacity="0.5"/>
<line y1="60.1833" x2="1238" y2="60.1833" stroke="#E2E8F0"/>
<g clip-path="url(#clip0_107_63)">
<path d="M1184 31C1184 18.8497 1193.85 9 1206 9V9C1218.15 9 1228 18.8497 1228 31V31C1228 43.1503 1218.15 53 1206 53V53C1193.85 53 1184 43.1503 1184 31V31Z" fill="url(#paint0_linear_107_63)"/>
<path d="M1216.63 32.3934C1217.82 28.442 1218.56 21.6867 1213.55 17.0667C1209.73 13.5359 1199.4 13.18 1195.81 20.88C1195.21 22.1654 1196.03 24.18 1197.64 24.1067C1198.27 24.0774 1198.67 26.0867 1199.03 27.3334C1198.52 32.3934 1193.95 32.4868 1191.63 36.3534C1188.77 41.12 1192.29 48.16 1200.72 48.16C1209.15 48.16 1213.99 41.1794 1216.63 32.3934Z" fill="url(#paint1_linear_107_63)"/>
<path d="M1219.49 43.969C1220.57 46.0406 1221.11 53.5867 1221.11 53.5867H1190.89C1190.89 53.5867 1191.43 46.0406 1192.51 43.969C1194.12 40.8618 1206 36.8667 1206 36.8667C1206 36.8667 1217.88 40.8618 1219.49 43.969Z" fill="url(#paint2_linear_107_63)"/>
<path d="M1209.52 38.6268C1209.52 38.6268 1207.65 39.6535 1205.93 39.6535C1204.2 39.6535 1202.48 38.6268 1202.48 38.6268V35.4001C1202.11 35.4587 1201.73 35.481 1201.36 35.4667C1197.84 35.4664 1196.51 30.3417 1197.2 24.1068C1197.64 24.1068 1198.67 24.1068 1200.13 22.0535C1199.77 24.9135 1204.02 24.4735 1205.63 22.2001C1204.83 24.9135 1206.95 26.7468 1208.79 25.6468C1212.38 23.4898 1213.19 30.0653 1209.52 30.1201V38.6268Z" fill="url(#paint3_linear_107_63)"/>
<g style="mix-blend-mode:multiply" opacity="0.782">
<path d="M1202.48 35.4002C1204.3 35.0652 1206.04 34.3937 1207.61 33.4202C1207.61 33.4202 1205.78 36.5735 1202.48 36.5735V35.4002Z" fill="#FFD7B8"/>
</g>
<path d="M1206 39.503C1207.06 39.4551 1209.52 38.9359 1209.52 37.8142V36.8667C1209.79 36.8667 1210.56 37.5021 1210.96 38.04C1212.52 40.1667 1210.78 42.0734 1209.37 42.0734C1207.58 42.0734 1206.4 40.58 1206 39.8616C1205.6 40.5803 1204.42 42.0734 1202.63 42.0734C1201.22 42.0734 1199.48 40.1667 1201.04 38.04C1201.44 37.5021 1202.21 36.8667 1202.48 36.8667V37.8142C1202.48 38.9359 1205 39.4551 1206 39.503Z" fill="white"/>
<path d="M1205.41 49.4799C1205.41 49.3639 1205.45 49.2505 1205.51 49.154C1205.58 49.0575 1205.67 48.9823 1205.78 48.9379C1205.88 48.8935 1206 48.8819 1206.11 48.9046C1206.23 48.9272 1206.33 48.9831 1206.41 49.0651C1206.5 49.1472 1206.55 49.2517 1206.58 49.3655C1206.6 49.4793 1206.59 49.5973 1206.54 49.7045C1206.5 49.8117 1206.42 49.9033 1206.33 49.9677C1206.23 50.0322 1206.12 50.0666 1206 50.0666C1205.84 50.0666 1205.7 50.0048 1205.59 49.8948C1205.48 49.7848 1205.41 49.6355 1205.41 49.4799ZM1205.41 46.5466C1205.41 46.4306 1205.45 46.3172 1205.51 46.2207C1205.58 46.1242 1205.67 46.049 1205.78 46.0046C1205.88 45.9602 1206 45.9486 1206.11 45.9712C1206.23 45.9939 1206.33 46.0497 1206.41 46.1318C1206.5 46.2138 1206.55 46.3184 1206.58 46.4322C1206.6 46.546 1206.59 46.6639 1206.54 46.7711C1206.5 46.8783 1206.42 46.9699 1206.33 47.0344C1206.23 47.0989 1206.12 47.1333 1206 47.1333C1205.84 47.1333 1205.7 47.0715 1205.59 46.9614C1205.48 46.8514 1205.41 46.7022 1205.41 46.5466ZM1205.41 43.6133C1205.41 43.4972 1205.45 43.3838 1205.51 43.2873C1205.58 43.1909 1205.67 43.1157 1205.78 43.0713C1205.88 43.0269 1206 43.0152 1206.11 43.0379C1206.23 43.0605 1206.33 43.1164 1206.41 43.1984C1206.5 43.2805 1206.55 43.385 1206.58 43.4988C1206.6 43.6126 1206.59 43.7306 1206.54 43.8378C1206.5 43.945 1206.42 44.0366 1206.33 44.1011C1206.23 44.1655 1206.12 44.1999 1206 44.1999C1205.84 44.1999 1205.7 44.1381 1205.59 44.0281C1205.48 43.9181 1205.41 43.7689 1205.41 43.6133V43.6133Z" fill="url(#paint4_linear_107_63)"/>
</g>
<path fill-rule="evenodd" clip-rule="evenodd" d="M43.7152 42.7966C41.7642 43.8805 39.4519 44.6031 36.995 44.6031C31.9369 44.6031 27.5291 41.8572 25.1445 37.7384C25.1445 37.7384 25.1445 37.7384 25.1445 37.6662C25.1445 37.6662 25.1445 37.6662 25.1445 37.5939L27.0955 36.5823L29.0465 35.5707L29.1188 35.6429C30.7807 38.3165 33.7434 40.123 37.0673 40.123C38.1512 40.123 39.1628 39.9062 40.1022 39.6172C38.0067 37.2326 36.7783 34.1255 36.7783 30.7293C36.7783 27.3331 38.0067 24.2259 40.0299 21.8414C39.0906 21.5523 38.0789 21.3356 36.995 21.3356C33.6711 21.3356 30.564 23.142 28.902 25.9602V26.0324L25 24.0092C25 23.9369 25.0723 23.9369 25.0723 23.9369C27.4568 19.7459 31.9369 17 36.995 17C39.4519 17 41.7642 17.6503 43.7152 18.8065C45.6662 17.6503 47.9785 17 50.4353 17C55.4934 17 59.9735 19.8181 62.3581 23.9369L62.4303 24.0092L58.5283 26.0324V25.9602C56.8664 23.0698 53.7592 21.3356 50.4353 21.3356C49.3514 21.3356 48.3398 21.4801 47.4004 21.8414C49.4237 24.3705 50.6521 27.4776 50.6521 30.8738C50.6521 34.27 49.4237 37.3771 47.3281 39.7617C48.2675 40.0507 49.2791 40.2675 50.363 40.2675C53.7592 40.2675 56.6496 38.461 58.3116 35.7874C58.3116 35.7152 58.3838 35.7152 58.3838 35.7152L60.3348 36.7268L62.2858 37.7384C62.2858 37.7384 62.2858 37.7384 62.2858 37.8107C62.2858 37.8107 62.2858 37.8107 62.2858 37.8829C59.9013 41.9295 55.4934 44.7476 50.4353 44.7476C47.9062 44.6031 45.5939 43.9527 43.7152 42.7966ZM43.7152 37.3771C42.1255 35.7152 41.1138 33.4029 41.1138 30.8738C41.1138 28.417 42.0532 26.1047 43.7152 24.4427C45.3771 26.1047 46.3165 28.417 46.3165 30.8738C46.3165 33.4029 45.3049 35.7152 43.7152 37.3771Z" fill="#506677" fill-opacity="0.64"/>
<defs>
<linearGradient id="paint0_linear_107_63" x1="1206" y1="53" x2="1206" y2="9" gradientUnits="userSpaceOnUse">
<stop stop-color="#FFC9B3"/>
<stop offset="1" stop-color="#FFD2C2"/>
</linearGradient>
<linearGradient id="paint1_linear_107_63" x1="1204.08" y1="14.6597" x2="1204.08" y2="48.16" gradientUnits="userSpaceOnUse">
<stop stop-color="#130027"/>
<stop offset="1" stop-color="#130017"/>
</linearGradient>
<linearGradient id="paint2_linear_107_63" x1="1206" y1="53.5867" x2="1206" y2="36.8667" gradientUnits="userSpaceOnUse">
<stop stop-color="#E6864E"/>
<stop offset="1" stop-color="#E67240"/>
</linearGradient>
<linearGradient id="paint3_linear_107_63" x1="1204.47" y1="22.0535" x2="1204.47" y2="39.6535" gradientUnits="userSpaceOnUse">
<stop stop-color="#FFE0CC"/>
<stop offset="1" stop-color="#FFEADB"/>
</linearGradient>
<linearGradient id="paint4_linear_107_63" x1="1206" y1="43.0266" x2="1206" y2="50.0666" gradientUnits="userSpaceOnUse">
<stop stop-color="#130027"/>
<stop offset="1" stop-color="#130017"/>
</linearGradient>
<clipPath id="clip0_107_63">
<path d="M1184 31C1184 18.8497 1193.85 9 1206 9V9C1218.15 9 1228 18.8497 1228 31V31C1228 43.1503 1218.15 53 1206 53V53C1193.85 53 1184 43.1503 1184 31V31Z" fill="white"/>
</clipPath>
</defs>
</svg>
