<svg width="30" height="30" viewBox="0 0 30 30" fill="none" xmlns="http://www.w3.org/2000/svg">
<path fill-rule="evenodd" clip-rule="evenodd" d="M2 5C2 3.34315 3.34315 2 5 2H19C20.6569 2 22 3.34315 22 5H24C24 2.23858 21.7614 0 19 0H5C2.23858 0 0 2.23858 0 5V19C0 21.7614 2.23858 24 5 24V22C3.34315 22 2 20.6569 2 19V5Z" fill="#0495FE"/>
<path d="M9 11H27C28.1046 11 29 11.8954 29 13V27C29 28.1046 28.1046 29 27 29H9C7.89543 29 7 28.1046 7 27V13C7 11.8954 7.89543 11 9 11Z" stroke="#FF0076" stroke-width="2"/>
<mask id="path-3-inside-1" fill="white">
<path d="M11 7C11 6.44772 11.4477 6 12 6H24C24.5523 6 25 6.44772 25 7V12H11V7Z"/>
</mask>
<path d="M11 7C11 6.44772 11.4477 6 12 6H24C24.5523 6 25 6.44772 25 7V12H11V7Z" stroke="#FF0076" stroke-width="4" mask="url(#path-3-inside-1)"/>
<rect x="16" y="17" width="4" height="5" stroke="#FF0076" stroke-width="2"/>
<path fill-rule="evenodd" clip-rule="evenodd" d="M15 20.1969V18.1508C11.5273 17.352 8.79184 15.3776 7.70718 14.293L6.29297 15.7072C7.60809 17.0223 10.8524 19.3652 15 20.1969ZM21 20.1969V18.1508C24.4728 17.352 27.2083 15.3776 28.293 14.293L29.7072 15.7072C28.392 17.0223 25.1477 19.3652 21 20.1969Z" fill="#FF0076"/>
</svg>
