<svg width="200" height="200" viewBox="0 0 200 200" fill="none" xmlns="http://www.w3.org/2000/svg">
<rect width="200" height="200" fill="#F8F9FB"/>
<path fill-rule="evenodd" clip-rule="evenodd" d="M100 67.1875C85.4167 67.1875 76.3021 74.4792 72.6562 89.0625C78.125 81.7708 84.5052 79.0365 91.7969 80.8594C95.9572 81.8994 98.9308 84.9176 102.222 88.2586C107.584 93.701 113.79 100 127.344 100C141.927 100 151.042 92.7083 154.687 78.125C149.219 85.4167 142.839 88.151 135.547 86.3281C131.387 85.2881 128.413 82.2699 125.122 78.9289C119.76 73.4865 113.554 67.1875 100 67.1875ZM72.6562 100C58.0729 100 48.9583 107.292 45.3125 121.875C50.7812 114.583 57.1615 111.849 64.4531 113.672C68.6134 114.712 71.587 117.73 74.8784 121.071C80.2402 126.514 86.4458 132.812 100 132.812C114.583 132.812 123.698 125.521 127.344 110.937C121.875 118.229 115.495 120.964 108.203 119.141C104.043 118.101 101.069 115.082 97.7779 111.741C92.4161 106.299 86.2104 100 72.6562 100Z" fill="url(#paint0_linear)"/>
<defs>
<linearGradient id="paint0_linear" x1="42.2743" y1="67.1875" x2="154.687" y2="132.002" gradientUnits="userSpaceOnUse">
<stop stop-color="#2298BD"/>
<stop offset="1" stop-color="#0ED7B5"/>
</linearGradient>
</defs>
</svg>
