<svg xmlns="http://www.w3.org/2000/svg" fill="none" viewBox="0 0 128 128">
  <defs/>
  <path fill="#fff" d="M0 0h128v128H0z"/>
  <path fill="url(#paint0_linear)" fill-rule="evenodd" d="M64 43c-9.333 0-15.167 4.667-17.5 14 3.5-4.667 7.583-6.417 12.25-5.25 2.663.666 4.566 2.597 6.672 4.736C68.854 59.968 72.825 64 81.5 64c9.333 0 15.167-4.667 17.5-14-3.5 4.667-7.583 6.417-12.25 5.25-2.663-.666-4.566-2.597-6.672-4.736C76.646 47.032 72.675 43 64 43zM46.5 64c-9.333 0-15.167 4.667-17.5 14 3.5-4.667 7.583-6.417 12.25-5.25 2.663.666 4.566 2.597 6.672 4.736C51.354 80.969 55.325 85 64 85c9.333 0 15.167-4.667 17.5-14-3.5 4.667-7.583 6.417-12.25 5.25-2.663-.666-4.566-2.597-6.672-4.736C59.146 68.031 55.175 64 46.5 64z" clip-rule="evenodd"/>
  <path fill="#F8F9FB" d="M0 0h128v128H0z"/>
  <path fill="url(#paint1_linear)" fill-rule="evenodd" d="M64 43c-9.333 0-15.167 4.667-17.5 14 3.5-4.667 7.583-6.417 12.25-5.25 2.663.666 4.566 2.597 6.672 4.736C68.854 59.968 72.825 64 81.5 64c9.333 0 15.167-4.667 17.5-14-3.5 4.667-7.583 6.417-12.25 5.25-2.663-.666-4.566-2.597-6.672-4.736C76.646 47.032 72.675 43 64 43zM46.5 64c-9.333 0-15.167 4.667-17.5 14 3.5-4.667 7.583-6.417 12.25-5.25 2.663.666 4.566 2.597 6.672 4.736C51.354 80.969 55.325 85 64 85c9.333 0 15.167-4.667 17.5-14-3.5 4.667-7.583 6.417-12.25 5.25-2.663-.666-4.566-2.597-6.672-4.736C59.146 68.031 55.175 64 46.5 64z" clip-rule="evenodd"/>
  <defs>
    <linearGradient id="paint0_linear" x1="27.056" x2="99" y1="43" y2="84.481" gradientUnits="userSpaceOnUse">
      <stop stop-color="#2298BD"/>
      <stop offset="1" stop-color="#0ED7B5"/>
    </linearGradient>
    <linearGradient id="paint1_linear" x1="27.056" x2="99" y1="43" y2="84.481" gradientUnits="userSpaceOnUse">
      <stop stop-color="#2298BD"/>
      <stop offset="1" stop-color="#0ED7B5"/>
    </linearGradient>
  </defs>
</svg>
