<svg width="2078" height="668" viewBox="0 0 2078 668" fill="none" xmlns="http://www.w3.org/2000/svg">
<rect width="2078" height="668" rx="80" fill="url(#paint0_linear_305_377)"/>
<path d="M243.005 454.6C240.394 456.462 237.149 457.219 233.98 456.706C230.81 456.194 227.973 454.453 226.087 451.864L140.924 334.23C139.016 331.318 138 327.916 138 324.438C138 320.961 139.016 317.559 140.924 314.646L226.087 196.998C227.977 194.414 230.816 192.679 233.986 192.171C237.155 191.664 240.398 192.426 243.005 194.291L267.59 211.941C270.19 213.818 271.938 216.644 272.453 219.8C272.968 222.957 272.208 226.188 270.338 228.789L208.177 314.632C201.977 325.276 201.977 325.276 208.177 334.216L270.338 420.088C272.208 422.688 272.968 425.92 272.453 429.076C271.938 432.233 270.19 435.058 267.59 436.936L243.005 454.6Z" fill="white"/>
<path d="M410.701 454.6C408.09 456.462 404.845 457.219 401.675 456.706C398.506 456.194 395.668 454.453 393.783 451.864L308.619 334.23C306.712 331.318 305.696 327.916 305.696 324.438C305.696 320.961 306.712 317.559 308.619 314.646L393.783 196.998C395.673 194.414 398.512 192.679 401.682 192.171C404.851 191.664 408.093 192.426 410.701 194.291L435.286 211.941C437.886 213.818 439.634 216.644 440.149 219.8C440.664 222.957 439.903 226.188 438.034 228.789L375.859 314.632C369.658 325.276 369.658 325.276 375.859 334.216L438.02 420.088C439.889 422.688 440.649 425.92 440.135 429.076C439.62 432.233 437.872 435.058 435.272 436.936L410.701 454.6Z" fill="white"/>
<path d="M578.395 454.602C575.781 456.477 572.526 457.243 569.346 456.729C566.165 456.216 563.32 454.467 561.434 451.866L476.27 334.232C474.362 331.32 473.347 327.918 473.347 324.44C473.347 320.963 474.362 317.561 476.27 314.648L561.434 197.001C563.324 194.404 566.172 192.66 569.352 192.153C572.532 191.645 575.784 192.415 578.395 194.293L602.98 211.943C605.58 213.82 607.328 216.646 607.843 219.803C608.358 222.959 607.597 226.191 605.728 228.791L543.552 314.634C537.367 325.278 537.367 325.278 543.552 334.218L605.728 420.09C607.597 422.69 608.358 425.922 607.843 429.078C607.328 432.235 605.58 435.06 602.98 436.938L578.395 454.602Z" fill="white"/>
<path d="M904.285 446.775C905.954 449.644 904.601 452 901.278 452H861.229C859.424 451.896 857.669 451.369 856.102 450.462C854.536 449.555 853.203 448.292 852.209 446.775L816.129 384.122C815.84 383.477 815.385 382.921 814.81 382.511C814.235 382.102 813.561 381.855 812.859 381.795C812.157 381.735 811.452 381.864 810.816 382.17C810.18 382.476 809.638 382.946 809.244 383.534L791.054 405.339C788.727 408.421 787.381 412.137 787.19 416V445.96C787.19 447.562 786.557 449.098 785.429 450.231C784.301 451.364 782.772 452 781.177 452H748.013C746.418 452 744.889 451.364 743.761 450.231C742.634 449.098 742 447.562 742 445.96V179.04C742 177.438 742.634 175.902 743.761 174.769C744.889 173.636 746.418 173 748.013 173H781.177C782.772 173 784.301 173.636 785.429 174.769C786.557 175.902 787.19 177.438 787.19 179.04V333.43C787.19 336.752 788.919 337.386 791.054 334.834L844.618 270.626C847.199 267.872 850.735 266.218 854.495 266.005H901.534C904.841 266.005 905.803 268.089 903.684 270.626L847.895 337.446C846.84 338.841 846.201 340.509 846.052 342.254C845.903 344 846.25 345.752 847.053 347.307L904.285 446.775Z" fill="white"/>
<path d="M1047.07 272.241C1046.99 271.472 1047.08 270.694 1047.32 269.959C1047.56 269.224 1047.96 268.549 1048.48 267.978C1049 267.407 1049.64 266.953 1050.35 266.647C1051.06 266.341 1051.83 266.19 1052.61 266.203H1085.95C1087.56 266.203 1089.1 266.839 1090.23 267.971C1091.36 269.104 1092 270.64 1092 272.241V446.143C1092 447.744 1091.36 449.28 1090.23 450.413C1089.1 451.545 1087.56 452.181 1085.95 452.181H1052.61C1050.96 452.15 1049.38 451.518 1048.17 450.406C1046.96 449.294 1046.2 447.777 1046.03 446.143L1045.05 435.122C1044.76 431.816 1042.84 431.242 1040.79 433.854C1040.79 433.854 1032.7 444.135 1024.31 449.283C1015.92 454.431 1006.03 456.997 994.62 456.997C981.309 457.096 968.122 454.439 955.892 449.192C931.955 438.897 912.913 419.783 902.727 395.825C897.535 383.594 894.906 370.431 895.003 357.146C894.915 344.52 897.339 332.002 902.135 320.32C906.93 308.637 914.001 298.021 922.938 289.089C931.701 280.32 942.066 273.309 953.473 268.437C965.242 263.438 977.915 260.91 990.705 261.009C1002.25 260.816 1013.64 263.637 1023.75 269.192C1033.5 274.642 1044.37 285.708 1044.37 285.708C1046.71 288.078 1048.37 287.308 1048.09 284.002L1047.07 272.241ZM993.501 413.292C1002.6 413.453 1011.54 410.926 1019.2 406.03C1026.67 401.159 1032.71 394.384 1036.69 386.404C1040.86 377.891 1043.02 368.54 1043.02 359.064C1043.02 349.587 1040.86 340.236 1036.69 331.723C1032.69 323.723 1026.62 316.944 1019.09 312.097C1011.46 307.228 1002.56 304.708 993.501 304.851C984.258 304.761 975.181 307.307 967.335 312.188C959.354 317.136 952.788 324.058 948.27 332.283C943.752 340.508 941.436 349.758 941.546 359.139C941.467 368.516 943.818 377.754 948.371 385.955C952.925 394.156 959.525 401.04 967.531 405.94C975.321 410.786 984.324 413.334 993.501 413.292V413.292Z" fill="white"/>
<path d="M1155.5 515.953C1155.5 517.557 1154.86 519.095 1153.73 520.229C1152.59 521.363 1151.05 522 1149.45 522H1116.05C1114.44 522 1112.9 521.363 1111.77 520.229C1110.64 519.095 1110 517.557 1110 515.953V271.931C1110 270.328 1110.64 268.789 1111.77 267.655C1112.9 266.521 1114.44 265.884 1116.05 265.884H1149.45C1151.05 265.884 1152.59 266.521 1153.73 267.655C1154.86 268.789 1155.5 270.328 1155.5 271.931V283.482C1155.5 286.808 1157.3 287.488 1159.5 284.993C1159.5 284.993 1169.06 274.214 1177.93 268.938C1187.41 263.502 1198.19 260.762 1209.11 261.016C1222.22 260.888 1235.21 263.461 1247.28 268.575C1258.92 273.579 1269.51 280.763 1278.46 289.741C1287.39 298.692 1294.51 309.281 1299.44 320.929C1304.52 332.946 1307.09 345.874 1307 358.921C1307.07 371.827 1304.58 384.619 1299.67 396.557C1294.77 408.494 1287.54 419.339 1278.41 428.464C1269.46 437.442 1258.88 444.626 1247.23 449.63C1235.17 454.769 1222.18 457.368 1209.07 457.264C1198.15 457.548 1187.36 454.84 1177.87 449.433C1169 444.157 1159.44 433.393 1159.44 433.393C1157.24 430.898 1155.44 431.579 1155.44 434.905L1155.5 515.953ZM1208.55 304.798C1199.57 304.668 1190.75 307.227 1183.23 312.146C1175.78 317.055 1169.75 323.831 1165.73 331.799C1161.45 340.225 1159.28 349.562 1159.4 359.012C1159.29 368.484 1161.46 377.843 1165.73 386.3C1169.74 394.276 1175.77 401.055 1183.23 405.953C1190.75 410.884 1199.57 413.448 1208.55 413.316C1217.81 413.4 1226.91 410.88 1234.81 406.044C1246.87 398.451 1255.56 386.516 1259.09 372.701C1262.61 358.886 1260.7 344.245 1253.75 331.799C1249.19 323.773 1242.69 317.017 1234.85 312.146C1226.94 307.238 1217.8 304.689 1208.49 304.798H1208.55Z" fill="white"/>
<path d="M1418 305.585C1418 307.184 1417.36 308.718 1416.23 309.849C1415.1 310.98 1413.56 311.615 1411.96 311.615H1387.96C1386.36 311.615 1384.83 312.251 1383.69 313.381C1382.56 314.512 1381.92 316.046 1381.92 317.645V445.97C1381.92 447.569 1381.29 449.103 1380.15 450.234C1379.02 451.365 1377.48 452 1375.88 452H1342.57C1340.97 452 1339.43 451.365 1338.3 450.234C1337.17 449.103 1336.53 447.569 1336.53 445.97V317.645C1336.53 316.046 1335.89 314.512 1334.76 313.381C1333.63 312.251 1332.09 311.615 1330.49 311.615H1315.04C1313.44 311.615 1311.9 310.98 1310.77 309.849C1309.64 308.718 1309 307.184 1309 305.585V272.418C1309 270.819 1309.64 269.285 1310.77 268.154C1311.9 267.023 1313.44 266.388 1315.04 266.388H1330.49C1332.09 266.388 1333.63 265.753 1334.76 264.622C1335.89 263.491 1336.53 261.957 1336.53 260.358V214.03C1336.53 212.431 1337.17 210.897 1338.3 209.766C1339.43 208.635 1340.97 208 1342.57 208H1375.88C1377.48 208 1379.02 208.635 1380.15 209.766C1381.29 210.897 1381.92 212.431 1381.92 214.03V260.283C1381.92 261.882 1382.56 263.416 1383.69 264.547C1384.83 265.677 1386.36 266.313 1387.96 266.313H1411.96C1413.56 266.313 1415.1 266.948 1416.23 268.079C1417.36 269.21 1418 270.744 1418 272.343V305.585Z" fill="white"/>
<path d="M1452.78 242.448C1449.67 242.524 1446.57 241.979 1443.67 240.846C1440.76 239.713 1438.12 238.014 1435.88 235.848C1433.7 233.672 1431.97 231.088 1430.79 228.243C1429.61 225.399 1429 222.35 1429 219.272C1429 216.193 1429.61 213.144 1430.79 210.3C1431.97 207.456 1433.7 204.872 1435.88 202.696C1438.07 200.516 1440.69 198.8 1443.56 197.651C1446.43 196.501 1449.51 195.941 1452.6 196.005C1455.68 195.942 1458.73 196.503 1461.58 197.653C1464.44 198.803 1467.03 200.518 1469.19 202.696C1473.54 207.115 1475.98 213.058 1476 219.253C1476.02 225.449 1473.61 231.405 1469.29 235.848C1467.12 238.004 1464.55 239.7 1461.71 240.835C1458.87 241.969 1455.84 242.518 1452.78 242.448ZM1429.75 272.421C1429.75 270.822 1430.39 269.289 1431.52 268.158C1432.65 267.028 1434.19 266.393 1435.79 266.393H1468.97C1470.57 266.393 1472.1 267.028 1473.23 268.158C1474.37 269.289 1475 270.822 1475 272.421V445.972C1475 447.571 1474.37 449.104 1473.23 450.235C1472.1 451.365 1470.57 452 1468.97 452H1435.79C1434.19 452 1432.65 451.365 1431.52 450.235C1430.39 449.104 1429.75 447.571 1429.75 445.972V272.421Z" fill="white"/>
<path d="M1579.07 456.996C1562.52 457.159 1546.27 452.581 1532.24 443.803C1517.95 434.819 1506.19 422.327 1498.1 407.516C1490 392.705 1485.84 376.069 1486 359.194C1485.79 333.415 1495.53 308.545 1513.19 289.757C1521.59 280.823 1531.67 273.641 1542.86 268.624C1556.1 262.778 1570.56 260.231 1585 261.201C1599.44 262.172 1613.43 266.63 1625.76 274.194C1639.83 282.977 1651.42 295.203 1659.43 309.712C1666.67 323.001 1670.89 337.715 1671.81 352.816C1672.73 367.917 1670.31 383.034 1664.73 397.098C1660.06 408.627 1653.27 419.186 1644.73 428.24C1636.35 437.149 1626.31 444.33 1615.16 449.373C1603.82 454.473 1591.51 457.072 1579.07 456.996V456.996ZM1579.07 411.635C1587.75 411.748 1596.25 409.215 1603.45 404.374C1610.65 399.532 1616.5 392.947 1620.46 385.234C1624.59 377.088 1626.73 368.078 1626.7 358.946C1626.67 349.814 1624.47 340.82 1620.28 332.702C1616.23 324.959 1610.28 318.368 1602.98 313.547C1595.83 308.84 1587.46 306.334 1578.9 306.343C1570.34 306.351 1561.97 308.871 1554.83 313.592C1547.58 318.484 1541.68 325.131 1537.7 332.914C1533.48 341.006 1531.31 350.009 1531.38 359.134C1531.25 368.409 1533.49 377.565 1537.89 385.732C1541.99 393.397 1547.97 399.891 1555.28 404.601C1562.36 409.202 1570.63 411.627 1579.07 411.574V411.635Z" fill="white"/>
<path d="M1852.25 328.497C1852.71 332.505 1852.96 336.534 1853 340.568V445.964C1853 447.565 1852.36 449.1 1851.23 450.232C1850.1 451.364 1848.57 452 1846.97 452H1813.8C1812.2 452 1810.67 451.364 1809.54 450.232C1808.41 449.1 1807.77 447.565 1807.77 445.964V352.413C1807.73 348.378 1807.47 344.349 1807 340.342C1806.3 335.444 1804.74 330.708 1802.39 326.354C1798.89 320.429 1793.93 315.5 1787.99 312.035C1781.91 308.565 1775.03 306.74 1768.03 306.74C1761.03 306.74 1754.15 308.565 1748.07 312.035C1742.15 315.487 1737.22 320.422 1733.78 326.354C1731.47 330.719 1729.94 335.452 1729.25 340.342C1728.79 344.349 1728.54 348.379 1728.5 352.413V445.964C1728.5 447.565 1727.86 449.1 1726.73 450.232C1725.6 451.364 1724.07 452 1722.47 452H1689.21C1687.61 452 1686.08 451.364 1684.95 450.232C1683.82 449.1 1683.18 447.565 1683.18 445.964L1683 272.185C1683 270.584 1683.64 269.049 1684.77 267.917C1685.9 266.785 1687.43 266.149 1689.03 266.149H1722.2C1723.79 266.177 1725.31 266.821 1726.43 267.947C1727.56 269.073 1728.2 270.593 1728.23 272.185V276.712C1728.23 280.031 1730.35 280.967 1732.86 278.794C1732.86 278.794 1742.16 270.752 1750.95 266.859C1759.9 262.919 1769.59 260.923 1779.37 261.004C1792.36 260.864 1805.15 264.304 1816.32 270.948C1827.3 277.41 1836.47 286.552 1842.96 297.519C1849.67 308.414 1852.25 328.497 1852.25 328.497Z" fill="white"/>
<defs>
<linearGradient id="paint0_linear_305_377" x1="742.626" y1="24.6334" x2="799.75" y2="1021.73" gradientUnits="userSpaceOnUse">
<stop stop-color="#18233D"/>
<stop offset="1"/>
</linearGradient>
</defs>
</svg>
