<svg xmlns="http://www.w3.org/2000/svg" width="178" height="38" fill="none">
  <path fill="#516677" fill-opacity=".5" d="M168.485 28.5h-17.834c-2.346 0-4.249 2.014-4.249 4.498v.504c0 2.484 1.903 4.498 4.249 4.498h17.834c2.346 0 4.249-2.014 4.249-4.498v-.504c0-2.484-1.903-4.498-4.249-4.498z"/>
  <path fill="#fff" d="M152.782 35.889h-1.113v-5.275h2.45a1.72 1.72 0 0 1 1.295.487 1.8 1.8 0 0 1 0 2.423 1.717 1.717 0 0 1-1.291.49h-1.337l-.004 1.875zm1.189-2.864c.202.008.4-.062.553-.195a.73.73 0 0 0 0-1.036.817.817 0 0 0-.553-.19h-1.189v1.42h1.189zM161.148 35.881h-1.266l-1.018-1.864h-.806v1.872h-1.123v-5.276h2.423a1.7 1.7 0 0 1 1.273.476 1.668 1.668 0 0 1 .468 1.22c.018.38-.099.755-.329 1.054a1.445 1.445 0 0 1-.805.51l1.183 2.008zm-1.932-2.86a.806.806 0 0 0 .558-.194.736.736 0 0 0 .218-.517.733.733 0 0 0-.218-.518.824.824 0 0 0-.558-.19h-1.158v1.419h1.158zM164.829 35.887a2.54 2.54 0 0 1-1.885-.738 2.782 2.782 0 0 1-.743-1.895c0-.705.266-1.383.743-1.895a2.767 2.767 0 0 1 1.889-.748c.699 0 1.374.267 1.888.748.479.513.746 1.192.746 1.899 0 .706-.267 1.386-.746 1.898a2.557 2.557 0 0 1-1.892.73zm-1.092-1.44a1.538 1.538 0 0 0 1.108.477 1.523 1.523 0 0 0 1.108-.476 1.91 1.91 0 0 0 0-2.406 1.54 1.54 0 0 0-1.709-.35c-.19.081-.362.2-.507.35a1.94 1.94 0 0 0 0 2.406z"/>
  <path fill="#516677" d="M16.349 0L0 9.501V28.5l16.349 9.499 16.346-9.5V9.502L16.349 0zM1.094 10.136L16.349 1.27l2.831 1.652-18.086 10.47v-3.258zm0 4.525l19.191-11.1 2.836 1.647L1.094 17.95v-3.29zm0 4.56L24.217 5.845l2.822 1.64-25.945 15.01v-3.274zm0 4.546L28.135 8.122l2.9 1.685L1.094 27.12v-3.353zm15.255 12.962L1.555 28.133l3.012-1.744 14.734 8.62-2.952 1.72zm4.048-2.353L5.665 25.755l2.834-1.639 14.727 8.616-2.829 1.644zm3.92-2.278L9.59 23.482l2.822-1.632 14.716 8.612-2.81 1.636zm3.91-2.27L13.51 21.215l2.9-1.68 14.706 8.604-2.89 1.687zm3.374-2.674l-14.095-8.248 14.095-8.155v16.403z"/>
  <path fill="#516677" fill-opacity=".5" d="M53.297 25.33a6.32 6.32 0 0 1-2.264-.345 5.963 5.963 0 0 1-1.947-1.12 5.023 5.023 0 0 1-1.286-1.738 4.668 4.668 0 0 1-.4-2.071 4.666 4.666 0 0 1 .4-2.072c.29-.656.728-1.249 1.286-1.738a5.96 5.96 0 0 1 1.947-1.12 6.319 6.319 0 0 1 2.264-.345c.95-.034 1.89.182 2.711.624a4.776 4.776 0 0 1 1.921 1.87l-2.026.917c-.25-.434-.618-.8-1.07-1.064a2.964 2.964 0 0 0-1.536-.419 3.546 3.546 0 0 0-1.355.223c-.43.16-.818.404-1.139.712a3.484 3.484 0 0 0-.98 2.402c0 .883.349 1.736.98 2.401.32.311.707.557 1.137.72.43.164.893.242 1.357.23a2.99 2.99 0 0 0 1.537-.414 2.821 2.821 0 0 0 1.069-1.072l2.026.905c-1.05 1.674-2.594 2.512-4.632 2.514zM70.568 25.333h-2.706l-.685-1.788h-4.784l-.702 1.788h-2.709l4.314-10.555h2.978l4.294 10.555zm-4.044-3.767l-1.74-4.546-1.738 4.546h3.478zM81.1 25.333h-2.542l-2.044-3.747h-1.622v3.747h-2.217v-10.55h4.867a3.42 3.42 0 0 1 1.372.21c.438.164.84.416 1.18.74a3.335 3.335 0 0 1 .944 2.45c.035.76-.2 1.506-.663 2.103-.409.518-.977.88-1.614 1.03l2.34 4.017zm-3.884-5.725c.41.016.81-.122 1.124-.388a1.434 1.434 0 0 0 .435-1.036 1.452 1.452 0 0 0-.435-1.036 1.638 1.638 0 0 0-1.124-.387h-2.324v2.847h2.324zM90.422 25.333H84.26v-10.55h5.983c.438-.024.877.033 1.29.168.415.134.796.344 1.122.617.278.245.498.54.646.868.149.328.222.681.215 1.037a2.388 2.388 0 0 1-1.962 2.426c.621.089 1.178.401 1.551.87.42.489.643 1.098.633 1.723.013.378-.058.753-.208 1.105-.15.35-.375.67-.663.937-.577.533-1.392.8-2.445.8zm-.718-6.324a1.44 1.44 0 0 0 .522-.061c.168-.052.324-.134.457-.242.119-.106.212-.234.274-.375.062-.142.091-.293.085-.446a1.033 1.033 0 0 0-.088-.453 1.104 1.104 0 0 0-.28-.38 1.404 1.404 0 0 0-.963-.324h-3.032v2.296l3.025-.015zm.085 4.38c.39.02.772-.095 1.074-.324.134-.115.239-.256.307-.414.067-.157.096-.326.084-.495a1.104 1.104 0 0 0-.096-.478 1.18 1.18 0 0 0-.295-.4 1.494 1.494 0 0 0-.498-.278 1.573 1.573 0 0 0-.576-.077h-3.117v2.45l3.117.016zM101.619 25.33a6.094 6.094 0 0 1-2.233-.357 5.728 5.728 0 0 1-1.902-1.135 5.103 5.103 0 0 1-1.245-1.738 4.756 4.756 0 0 1-.39-2.05c-.024-.7.109-1.398.39-2.05a5.097 5.097 0 0 1 1.245-1.735c1.134-.957 2.615-1.487 4.153-1.487 1.537 0 3.019.53 4.153 1.487a5.09 5.09 0 0 1 1.249 1.739c.282.653.415 1.352.389 2.054a4.737 4.737 0 0 1-.385 2.063 5.086 5.086 0 0 1-1.253 1.746 5.764 5.764 0 0 1-1.923 1.124 6.127 6.127 0 0 1-2.248.338zm-2.433-2.878c.317.3.696.54 1.115.702a3.654 3.654 0 0 0 2.647 0 3.423 3.423 0 0 0 1.115-.702 3.285 3.285 0 0 0 .928-2.402 3.279 3.279 0 0 0-.928-2.406 3.427 3.427 0 0 0-1.115-.701 3.658 3.658 0 0 0-2.647 0c-.42.162-.798.401-1.115.701a3.3 3.3 0 0 0-.923 2.4 3.305 3.305 0 0 0 .923 2.408zM120.071 25.333h-2.174l-5.052-6.882v6.882h-2.253V14.778h2.317l4.905 6.63v-6.63h2.257v10.555zM133.851 26.389H131.6v-9.434h-3.103v-2.177h8.426v2.177h-3.072v9.434zM147.456 25.333h-7.373V14.778h7.373v1.979h-5.154v2.23h5.043v1.98h-5.043v2.387h5.154v1.98zM155.925 25.33a5.178 5.178 0 0 1-2.038-.345 5.274 5.274 0 0 1-1.752-1.12 5.022 5.022 0 0 1-1.157-1.738 5.14 5.14 0 0 1-.36-2.071 5.123 5.123 0 0 1 .36-2.072 5.02 5.02 0 0 1 1.157-1.738 5.274 5.274 0 0 1 1.752-1.119 5.178 5.178 0 0 1 2.038-.346 4.413 4.413 0 0 1 2.44.625 4.56 4.56 0 0 1 1.73 1.869l-1.823.917a2.812 2.812 0 0 0-.965-1.064 2.47 2.47 0 0 0-1.382-.427 2.898 2.898 0 0 0-1.218.226 2.943 2.943 0 0 0-1.02.717c-.295.32-.524.698-.676 1.11-.151.412-.221.85-.206 1.29-.015.44.055.88.206 1.292.151.412.381.79.676 1.111.285.312.633.559 1.019.723.385.165.801.244 1.219.232.49.003.97-.14 1.382-.413.411-.261.744-.632.965-1.072l1.823.905c-.945 1.67-2.335 2.506-4.17 2.509zM172.734 25.333h-2.261V20.91H165.5v4.424h-2.246V14.778h2.246v4.146h4.985v-4.146h2.249v10.555z"/>
</svg>
