<svg width="197" height="38" fill="none" xmlns="http://www.w3.org/2000/svg"><path opacity=".25" d="M2.13 28.965c0 .605.488.972 1.085.818l23.091-5.973c.598-.154 1.086-.774 1.086-1.379v-6.66c0-.605-.488-.973-1.086-.818L3.215 20.926c-.597.154-1.086.775-1.086 1.379v6.66z" fill="#516677"/><path d="M2.13 28.965c0 .605.488.972 1.085.818l23.091-5.973c.598-.154 1.086-.774 1.086-1.379v-6.66c0-.605-.488-.973-1.086-.818L3.215 20.926c-.597.154-1.086.775-1.086 1.379v6.66z" fill="#516677" stroke="#fff" stroke-width="3" stroke-miterlimit="10"/><path opacity=".25" d="M2.13 15.64c0 .604.488.972 1.085.817l23.091-5.972c.598-.154 1.086-.775 1.086-1.379V2.445c0-.604-.488-.972-1.086-.818L3.215 7.6c-.597.155-1.086.775-1.086 1.38v6.66z" fill="#516677"/><path d="M2.13 15.64c0 .604.488.972 1.085.817l23.091-5.972c.598-.154 1.086-.775 1.086-1.379V2.445c0-.604-.488-.972-1.086-.818L3.215 7.6c-.597.155-1.086.775-1.086 1.38v6.66z" fill="#516677" stroke="#fff" stroke-width="3" stroke-miterlimit="10"/><path d="M27.392 22.236c0 .604-.488.972-1.086.818L3.215 17.08c-.597-.154-1.086-.775-1.086-1.379v-6.66c0-.605.489-.973 1.086-.818l23.091 5.972c.598.155 1.086.775 1.086 1.38v6.66z" fill="#516677"/><path d="M27.392 22.236c0 .604-.488.972-1.086.818L3.215 17.08c-.597-.154-1.086-.775-1.086-1.379v-6.66c0-.605.489-.973 1.086-.818l23.091 5.972c.598.155 1.086.775 1.086 1.38v6.66z" fill="#516677" stroke="#fff" stroke-width="3" stroke-miterlimit="10"/><path d="M27.392 35.555c0 .604-.488.972-1.086.818L3.215 30.4c-.597-.155-1.086-.775-1.086-1.38v-6.66c0-.604.489-.972 1.086-.817l23.091 5.972c.598.154 1.086.775 1.086 1.38v6.66z" fill="#516677"/><path d="M27.392 35.555c0 .604-.488.972-1.086.818L3.215 30.4c-.597-.155-1.086-.775-1.086-1.38v-6.66c0-.604.489-.972 1.086-.817l23.091 5.972c.598.154 1.086.775 1.086 1.38v6.66z" fill="#516677" stroke="#fff" stroke-width="3" stroke-miterlimit="10"/><path opacity=".6" d="M53.272 24.37h-8.104V12.84h7.922v1.208h-6.16v3.766h5.56v1.208h-5.56v4.14h6.342v1.207zM66.9 24.37h-7.56V12.84h1.763V23.16H66.9v1.208zM82.472 24.37h-1.836l-1.344-3.5H74.24l-1.326 3.5h-1.745l4.689-11.53h2.035l4.579 11.53zm-3.616-4.69l-2-5.206h-.163l-1.998 5.206h4.16zM95.718 20.461v.835c0 1.232-.358 2.082-1.072 2.55-.715.467-1.83.7-3.344.7-.969 0-2.168-.094-3.598-.283v-1.44c1.43.297 2.665.445 3.707.445.836 0 1.475-.092 1.917-.276.442-.183.663-.553.663-1.11V20.39c0-.486-.142-.832-.427-1.04-.284-.207-.796-.31-1.535-.31h-1.38c-1.188 0-2.015-.234-2.481-.702-.467-.468-.7-1.158-.7-2.07v-.924c0-.912.33-1.587.99-2.025.66-.438 1.875-.657 3.644-.657.848 0 1.86.065 3.034.195v1.297c-1.344-.201-2.398-.302-3.161-.302-1.127 0-1.875.11-2.244.329-.37.219-.555.59-.555 1.11v1.315c0 .403.146.696.436.88.291.183.806.274 1.545.274h1.417c1.224 0 2.054.217 2.49.649.435.433.654 1.117.654 2.052zM109.636 14.048h-3.979v10.321h-1.781V14.048h-3.998V12.84h9.758v1.208zM116.995 24.37h-1.763V12.84h1.763v11.53zM131.586 24.21a15.815 15.815 0 0 1-3.307.337c-3.308 0-4.961-1.042-4.961-3.126v-5.472c0-2.203 1.653-3.305 4.961-3.305 1.102 0 2.18.113 3.234.338v1.28c-1.163-.285-2.229-.427-3.198-.427-.461 0-.866.026-1.218.08a4.641 4.641 0 0 0-1.035.284c-.34.136-.6.35-.782.64-.181.29-.272.654-.272 1.092v5.4c0 1.327 1.126 1.99 3.38 1.99.968 0 2.035-.141 3.197-.426v1.315h.001zM153.899 20.141v1.937c0 .84-.327 1.433-.981 1.776-.654.344-1.72.515-3.198.515h-4.343V12.84h4.216c1.017 0 1.814.102 2.389.303.576.201.951.45 1.127.746.175.296.263.675.263 1.137v1.545c0 .474-.136.835-.408 1.084-.273.249-.676.433-1.209.551v.071c.63.107 1.145.32 1.545.64.399.32.599.728.599 1.225zm-2.18-3.624v-1.35c0-.438-.164-.746-.491-.924-.327-.178-.872-.266-1.635-.266h-2.453v3.908h2.507c.751 0 1.284-.11 1.599-.329.315-.218.473-.565.473-1.039zm.417 5.49v-1.741c0-.308-.063-.554-.19-.737-.128-.184-.327-.314-.6-.391a3.922 3.922 0 0 0-.727-.142 11.478 11.478 0 0 0-.899-.027h-2.58v4.21h2.58c.884 0 1.508-.088 1.871-.266.364-.178.545-.48.545-.906zM168.544 12.84l-4.288 6.822v4.708h-1.762v-4.655l-4.27-6.875h2.016l3.144 5.418 3.143-5.418h2.017zM182.517 14.048h-3.979v10.321h-1.781V14.048h-3.997V12.84h9.757v1.208zM196.218 24.37h-8.104V12.84h7.922v1.208h-6.159v3.766h5.56v1.208h-5.56v4.14h6.341v1.207z" fill="#516677"/></svg>