<svg xmlns="http://www.w3.org/2000/svg" width="381" height="355" fill="none">
  <circle cx="183" cy="120" r="120" fill="#F5F8FC"/>
  <circle cx="183" cy="120" r="119" stroke="#0496FF" stroke-opacity=".08" stroke-width="2"/>
  <circle cx="183" cy="120" r="80" fill="#F5F8FC"/>
  <circle cx="183" cy="120" r="79" stroke="#0496FF" stroke-opacity=".15" stroke-width="2"/>
  <circle cx="183" cy="120" r="51" fill="#F5F8FC"/>
  <circle cx="183" cy="120" r="50" stroke="#0496FF" stroke-opacity=".3" stroke-width="2"/>
  <path fill="#0496FF" d="M193.765 138h-15.941a3.786 3.786 0 0 1-2.74-1.172l-12.145-12.537a3.369 3.369 0 0 1-.695-3.596c.498-1.239 1.656-2.041 2.956-2.041h14.884v-15.36c0-1.337.775-2.533 1.973-3.047 1.179-.507 2.584-.218 3.486.713l12.152 12.541a4.051 4.051 0 0 1 1.134 2.828v16.447c-.002 2.882-2.272 5.224-5.064 5.224zm-15.273-5.651h14.861v-15.338l-7.793-8.043v15.338h-14.861l7.793 8.043z"/>
  <circle cx="337.567" cy="207.567" r="34.567" fill="#fff" filter="url(#filter0_d)"/>
  <path stroke="#506677" stroke-width="1.5" d="M338 198.75a6.253 6.253 0 0 1 5.774 3.858 6.252 6.252 0 0 1-4.555 8.522 6.252 6.252 0 0 1-7.469-6.13c0-1.658.658-3.247 1.831-4.419A6.245 6.245 0 0 1 338 198.75zM349.258 217.5c-.993-.926-2.371-1.722-4.036-2.32-2.137-.769-4.651-1.18-7.222-1.18-3.448 0-6.754.737-9.192 2.05-1.192.642-1.808.95-2.308 1.45"/>
  <path stroke="#506677" stroke-width="1.5" d="M338 193.75a14.252 14.252 0 0 1 13.976 17.03A14.251 14.251 0 0 1 323.75 208 14.247 14.247 0 0 1 338 193.75z"/>
  <circle cx="151.567" cy="229.567" r="34.567" fill="#fff" filter="url(#filter1_d)"/>
  <path fill="#506677" d="M167.042 245.833h-30.084a3.962 3.962 0 0 1-3.958-3.958v-22.167a3.963 3.963 0 0 1 3.958-3.958h30.084a3.963 3.963 0 0 1 3.958 3.958v22.167a3.962 3.962 0 0 1-3.958 3.958zm-30.084-28.5a2.378 2.378 0 0 0-2.375 2.375v22.167a2.378 2.378 0 0 0 2.375 2.375h30.084a2.378 2.378 0 0 0 2.375-2.375v-22.167a2.378 2.378 0 0 0-2.375-2.375h-30.084z"/>
  <path fill="#506677" d="M170.208 225.25h-36.416a.792.792 0 1 1 0-1.583h36.416a.791.791 0 1 1 0 1.583zM139.333 222.083a1.584 1.584 0 1 0 0-3.167 1.584 1.584 0 0 0 0 3.167zM144.083 222.083a1.584 1.584 0 1 0 0-3.167 1.584 1.584 0 0 0 0 3.167zM148.833 222.083a1.584 1.584 0 1 0 0-3.167 1.584 1.584 0 0 0 0 3.167z"/>
  <circle cx="42.567" cy="263.567" r="34.567" fill="#fff" filter="url(#filter2_d)"/>
  <mask id="a" width="27" height="34" x="30" y="247" fill="#000" maskUnits="userSpaceOnUse">
    <path fill="#fff" d="M30 247h27v34H30z"/>
    <path d="M54.95 256.034v6.895c-2.517-.668-4.674.01-6.01 1.881-1.366 1.911-1.407 4.634-.112 6.627 1.284 1.963 3.359 2.662 6.133 2.045v5.189c0 .103-.01.195-.021.329H32v-22.976h.555c2.229 0 4.448.01 6.677-.01.319 0 .658-.062.946-.185.575-.237.729-.802.452-1.357-.771-1.479-.36-3.421.975-4.572 1.336-1.141 3.329-1.202 4.757-.154 1.407 1.038 1.9 2.856 1.212 4.439-.483 1.089-.02 1.808 1.192 1.818 1.469.021 2.948 0 4.417 0 .576.031 1.15.031 1.767.031z"/>
  </mask>
  <path fill="#506677" d="M54.95 256.034h1.5v-1.5h-1.5v1.5zm0 6.895l-.384 1.45 1.884.5v-1.95h-1.5zm-6.01 1.881l1.22.872.001-.001-1.22-.871zm-.112 6.627l-1.259.817.003.005 1.255-.822zm6.133 2.045h1.5v-1.87l-1.826.406.326 1.464zM54.94 279v1.5h1.39l.106-1.385L54.94 279zM32 279h-1.5v1.5H32V279zm0-22.976v-1.5h-1.5v1.5H32zm7.232-.01v-1.5h-.014l.014 1.5zm.946-.185l-.57-1.388-.011.005-.01.004.59 1.379zm.452-1.357l1.341-.67-.005-.011-.006-.011-1.33.692zm.975-4.572l-.974-1.141-.005.005.98 1.136zm4.757-.154l.89-1.208-.003-.002-.887 1.21zm1.212 4.439l1.372.608.004-.01-1.376-.598zm1.192 1.818l.02-1.499h-.007l-.013 1.499zm4.417 0l.08-1.497-.04-.003h-.04v1.5zm.267.031V262.929h3v-.013-.013-.014-.013-.013-.014-.013-.013-.014-.013-.013-.014-.013-.013-.013-.014-.013-.013-.014-.013-.013-.014-.013-.013-.014-.013-.013-.013-.014-.013-.013-.014-.013-.013-.014-.013-.013-.014-.013-.013-.013-.014-.013-.013-.014-.013-.013-.014-.013-.013-.014-.013-.013-.013-.014-.013-.013-.014-.013-.013-.014-.013-.013-.014-.013-.013-.014-.013-.013-.013-.014-.013-.013-.014-.013-.013-.014-.013-.013-.014-.013-.013-.014-.013-.013-.014-.013-.013-.014-.013-.013-.013-.014-.013-.013-.014-.013-.013-.014-.013-.013-.014-.013-.013-.014-.013-.013-.014-.013-.013-.014-.013-.013-.014-.013-.013-.014-.013-.013-.014-.013-.013-.014-.013-.013-.014-.013-.013-.014-.013-.013-.014-.013-.013-.014-.013-.013-.014-.013-.013-.014-.013-.013-.014-.013-.013-.014-.013-.013-.014-.013-.014-.013-.013-.014-.013-.013-.014-.013-.013-.014-.013-.013-.014-.013-.013-.014-.013-.014-.013-.013-.014-.013-.013-.014-.013-.013-.014-.013-.014-.013-.013-.014-.013-.013-.014-.013-.013-.014-.013-.014-.013-.013-.014-.013-.013-.014-.013-.014-.013-.013-.014-.013-.013-.014-.013-.014-.013-.013-.014-.013-.014-.013-.013-.014-.013-.014-.013-.013-.014-.013-.013-.014-.013-.014-.013-.013-.014-.013-.014-.013-.013-.014-.013-.014-.013-.014-.013-.013-.014-.013-.014-.013-.013-.014-.013-.014-.013-.014-.013-.013-.014-.013-.014-.013-.013-.014-.013-.014-.013-.014-.013-.013-.014-.013-.014-.013-.014-.013-.014-.013-.013-.014-.013-.014-.013-.014-.013-.014-.013-.013-.014-.013-.014-.013-.014-.013-.014-.013-.014-.013-.013-.014-.013-.014-.013-.014-.013-.014-.013-.014-.013-.014-.013-.014-.013-.014-.013-.013-.014-.013-.014-.013-.014-.013-.014-.013-.014-.013-.014-.013-.014-.013-.014-.013-.014-.013-.014-.013-.014-.013-.014-.013-.014-.013-.014-.013-.014-.013-.014-.013-.014-.014-.013-.014-.013-.014-.013-.014-.013-.014-.013-.014-.013-.014-.013-.014-.013-.014-.014-.013-.014-.013-.014-.013-.014-.013-.014-.014-.013-.014-.013-.014-.013-.014-.013-.014-.014-.013-.014-.013-.014-.013-.014-.014-.013-.014-.013-.014-.014-.013-.014-.013-.014-.013-.014-.014-.013-.014-.013-.014-.014-.013-.014-.013-.014-.014-.013-.014-.014-.013-.014-.013-.014-.014-.013-.014-.013-.014-.014-.013-.014-.014-.013-.014-.014-.013-.014-.013-.014-.014-.013-.014-.014-.013-.014-.014-.013-.014-.014-.013-.014-.014-.013-.014-.014-.013-.014-.014-.013-.014-.014-.013-.014-.014-.013-.014-.014-.014-.013-.014-.014-.013-.014-.014-.013-.014-.014-.014-.013-.014-.014-.013-.014-.014-.014-.013-.014-.014-.013-.014-.014-.014-.013-.014-.014-.014-.013-.014-.014-.014-.013-.014-.014-.014-.013-.014-.014-.014-.013-.014-.014-.014-.013-.014-.014-.014-.014-.013-.014-.014-.014h-3zm1.885 5.445c-3.018-.801-5.86 0-7.615 2.459l2.441 1.743c.915-1.281 2.39-1.837 4.405-1.302l.77-2.9zm-7.615 2.458c-1.733 2.425-1.773 5.818-.15 8.317l2.516-1.634c-.967-1.488-.925-3.54.075-4.938l-2.44-1.745zm-.148 8.322c.811 1.239 1.915 2.132 3.288 2.59 1.35.452 2.852.447 4.426.097l-.65-2.928c-1.2.266-2.124.221-2.825-.014-.68-.227-1.255-.665-1.728-1.388l-2.51 1.643zm5.889 1.223V278.671h3v-.01-.01-.01-.01-.01-.011-.01-.01-.01-.01-.01-.01-.01-.01-.011-.01-.01-.01-.01-.01-.01-.01-.01-.011-.01-.01-.01-.01-.01-.01-.01-.01-.011-.01-.01-.01-.01-.01-.01-.01-.011-.01-.01-.01-.01-.01-.01-.01-.01-.011-.01-.01-.01-.01-.01-.01-.01-.01-.011-.01-.01-.01-.01-.01-.01-.01-.011-.01-.01-.01-.01-.01-.01-.01-.01-.011-.01-.01-.01-.01-.01-.01-.01-.011-.01-.01-.01-.01-.01-.01-.01-.01-.011-.01-.01-.01-.01-.01-.01-.01-.011-.01-.01-.01-.01-.01-.01-.01-.01-.011-.01-.01-.01-.01-.01-.01-.01-.011-.01-.01-.01-.01-.01-.01-.01-.01-.011-.01-.01-.01-.01-.01-.01-.01-.011-.01-.01-.01-.01-.01-.01-.01-.01-.011-.01-.01-.01-.01-.01-.01-.01-.011-.01-.01-.01-.01-.01-.01-.01-.011-.01-.01-.01-.01-.01-.01-.01-.01-.011-.01-.01-.01-.01-.01-.01-.01-.011-.01-.01-.01-.01-.01-.01-.01-.011-.01-.01-.01-.01-.01-.01-.01-.011-.01-.01-.01-.01-.01-.01-.01-.011-.01-.01-.01-.01-.01-.01-.01-.011-.01-.01-.01-.01-.01-.01-.01-.011-.01-.01-.01-.01-.01-.01-.01-.011-.01-.01-.01-.01-.01-.01-.01-.011-.01-.01-.01-.01-.01-.01-.01-.011-.01-.01-.01-.01-.01-.01-.01-.011-.01-.01-.01-.01-.01-.01-.011-.01-.01-.01-.01-.01-.01-.01-.011-.01-.01-.01-.01-.01-.01-.01-.011-.01-.01-.01-.01-.01-.01-.011-.01-.01-.01-.01-.01-.01-.01-.011-.01-.01-.01-.01-.01-.01-.011-.01-.01-.01-.01-.01-.01-.01-.011-.01-.01-.01-.01-.01-.01-.011-.01-.01-.01-.01-.01-.01-.011-.01-.01-.01-.01-.01-.01-.011-.01-.01-.01-.01-.01-.01-.01-.011-.01-.01-.01-.01-.01-.01-.011-.01-.01-.01-.01-.01-.01-.011-.01-.01-.01-.01-.01-.01-.011-.01-.01-.01-.01-.01-.01-.011-.01-.01-.01-.01-.01-.01-.011-.01-.01-.01-.01-.01-.011-.01-.01-.01-.01-.01-.01-.011-.01-.01-.01-.01-.01-.01-.011-.01-.01-.01-.01-.01-.01-.011-.01-.01-.01-.01-.01-.011-.01-.01-.01-.01-.01-.01-.011-.01-.01-.01-.01-.01-.011-.01-.01-.01-.01-.01-.01-.011-.01-.01-.01-.01-.01-.011-.01-.01-.01-.01-.01-.01-.011-.01-.01-.01-.01-.01-.011-.01-.01-.01-.01-.01-.011-.01-.01-.01-.01-.01-.011-.01-.01-.01-.01-.01-.01-.011-.01-.01-.01-.01-.01-.011-.01-.01-.01-.01-.01-.011-.01-.01-.01-.01-.01-.011-.01-.01-.01-.01-.01-.011-.01-.01-.01-.01-.01-.011-.01-.01-.01-.01-.01-.011-.01-.01-.01-.01-.011-.01-.01-.01-.01-.01-.011-.01-.01-.01-.01-.01-.011-.01-.01h-3zm0 5.189l-.003.044-.005.068-.009.102 2.992.23c.005-.072.025-.265.025-.444h-3zm1.479-1.171H32v3H54.94v-3zM33.5 279v-.045-.044-.045-.045-.045-.044-.045-.045-.045-.044-.045-.045-.045-.044-.045-.045-.044-.045-.045-.045-.044-.045-.045-.045-.044-.045-.045-.045-.044-.045-.045-.045-.044-.045-.045-.044-.045-.045-.045-.044-.045-.045-.045-.044-.045-.045-.045-.044-.045-.045-.045-.044-.045-.045-.044-.045-.045-.045-.044-.045-.045-.045-.044-.045-.045-.045-.044-.045-.045-.045-.044-.045-.045-.045-.044-.045-.045-.045-.044-.045-.045-.045-.044-.045-.045-.045-.044-.045-.045-.044-.045-.045-.045-.044-.045-.045-.045-.044-.045-.045-.045-.044-.045-.045-.045-.044-.045-.045-.045-.045-.044-.045-.045-.045-.044-.045-.045-.045-.044-.045-.045-.045-.044-.045-.045-.045-.044-.045-.045-.045-.044-.045-.045-.045-.044-.045-.045-.045-.045-.044-.045-.045-.045-.044-.045-.045-.045-.044-.045-.045-.045-.045-.044-.045-.045-.045-.044-.045-.045-.045-.044-.045-.045-.045-.045-.044-.045-.045-.045-.044-.045-.045-.045-.045-.044-.045-.045-.045-.045-.044-.045-.045-.045-.044-.045-.045-.045-.045-.044-.045-.045-.045-.045-.044-.045-.045-.045-.045-.044-.045-.045-.045-.045-.044-.045-.045-.045-.045-.044-.045-.045-.045-.045-.044-.045-.045-.045-.045-.044-.045-.045-.045-.045-.045-.044-.045-.045-.045-.045-.044-.045-.045-.045-.045-.045-.044-.045-.045-.045-.045-.045-.044-.045-.045-.045-.045-.044-.045-.045-.045-.045-.045-.045-.044-.045-.045-.045-.045-.045-.044-.045-.045-.045-.045-.045-.044-.045-.045-.045-.045-.045-.045-.044-.045-.045-.045-.045-.045-.045-.044-.045-.045-.045-.045-.045-.045-.044-.045-.045-.045-.045-.045-.045-.045-.044-.045-.045-.045-.045-.045-.045-.045-.044-.045-.045-.045-.045-.045-.045-.045-.045-.044-.045-.045-.045-.045-.045-.045-.045-.045-.045-.044-.045-.045-.045-.045-.045-.045-.045-.045-.045-.044-.045-.045-.045-.045-.045-.045-.045-.045-.045-.045-.045-.044-.045-.045-.045-.045-.045-.045-.045-.045-.045-.045-.045-.045-.045-.045-.044-.045-.045-.045-.045-.045-.045-.045-.045-.045-.045-.045-.045-.045-.045-.045-.045-.045-.045-.045-.045-.045-.044-.045-.045-.045-.045-.045-.045-.045-.045-.045-.045-.045-.045-.045-.045-.045-.045-.045-.045-.045-.045-.045-.045-.045-.045-.045-.045-.045-.045-.045-.045-.045-.045-.045-.045-.045-.045-.045-.045-.045-.045-.045-.045-.045-.045-.045-.045-.045-.045-.045-.045-.046-.045-.045-.045-.045-.045-.045-.045-.045-.045-.045-.045-.045-.045-.045-.045-.045-.045-.045-.045-.045-.046-.045-.045-.045-.045-.045-.045-.045-.045-.045-.045-.045-.045-.046-.045-.045-.045-.045-.045-.045-.045-.045-.045-.045-.046-.045-.045-.045-.045-.045-.045-.045-.045-.045-.046-.045-.045-.045-.045-.045-.045-.045-.046-.045-.045-.045-.045-.045-.045-.046-.045-.045-.045-.045-.045-.045-.046-.045-.045-.045h-3V279h3zM32 257.524H32.554v-3h-.001-.002-.006-.001-.001-.001-.001-.001-.002-.006-.001-.001-.001-.001-.001-.002-.006-.001-.001-.001-.001-.001-.002-.006-.001-.001-.001-.001-.001-.008-.001-.001-.001-.001-.001-.008-.001-.001-.001-.001-.001-.008-.001-.001-.001-.001-.001-.008-.001-.001-.001-.001-.001-.008-.001-.001-.001-.001-.001-.008-.001-.001-.001-.001-.001-.008-.001-.001-.001-.001-.001-.008-.001-.001-.001-.001-.001-.008-.001-.001-.001-.001-.001-.008-.001-.001-.001-.001-.001-.008-.001-.001-.001-.001-.001-.008-.001-.001-.001-.001-.001-.008-.001-.001-.001-.001-.001-.008-.001-.001-.001-.001-.002-.006-.001-.001-.001-.001-.001-.002-.006-.001-.001-.001-.001-.001-.002-.006-.001-.001-.001-.001-.001-.002-.006-.001-.001-.001-.001-.001-.002-.006-.001-.001-.001-.001-.001-.002-.006-.001-.001-.001-.001-.001-.002-.006-.001-.001-.001-.001-.001-.002-.006-.001-.001-.001-.001-.001-.002-.006-.001-.001-.001-.001-.001-.002-.006-.001-.001-.001-.001-.001-.002-.006-.001-.001-.001-.001-.001-.002-.006-.001-.001-.001-.001-.001-.002-.006-.001-.001-.001-.001-.001-.002-.006-.001-.001-.001-.001-.001-.002-.006-.001-.001-.001-.001-.001-.002-.006-.001-.001-.001-.001-.001-.002-.006-.001-.001-.001-.001-.001-.002-.006-.001-.001-.001-.001-.001-.002-.006-.001-.001-.001-.001-.001-.002-.006-.001-.001-.001-.001-.001-.002-.006-.001-.001-.001-.001-.001-.002-.006-.001-.001-.001-.001-.001-.002-.006-.001-.001-.001-.001-.001-.002-.006-.001-.001-.001-.001-.001-.002H32v3zm.555 0c2.22 0 4.453.01 6.691-.01l-.028-3c-2.22.02-4.425.01-6.663.01v3zm6.677-.01c.495 0 1.039-.093 1.537-.307l-1.182-2.757a.977.977 0 0 1-.355.064v3zm1.516-.298c.654-.269 1.182-.786 1.406-1.495.215-.682.094-1.366-.183-1.919l-2.683 1.341a.269.269 0 0 1-.021-.086.579.579 0 0 1 .026-.238.667.667 0 0 1 .154-.262.51.51 0 0 1 .16-.116l1.14 2.775zm1.212-3.436c-.426-.818-.223-2.014.625-2.744l-1.959-2.272c-1.823 1.571-2.442 4.259-1.327 6.401l2.66-1.385zm.62-2.74c.796-.68 2.018-.729 2.894-.085l1.776-2.419c-1.98-1.452-4.744-1.378-6.619.223l1.949 2.281zm2.892-.087c.851.628 1.132 1.701.727 2.633l2.75 1.197c.971-2.232.266-4.797-1.697-6.245l-1.78 2.415zm.73 2.624c-.34.768-.527 1.816.076 2.741.6.92 1.631 1.178 2.475 1.185l.026-2.999c-.164-.002-.219-.028-.202-.021a.529.529 0 0 1 .214.197.534.534 0 0 1 .095.285c0 .024-.004-.03.06-.172l-2.743-1.216zm2.543 3.926c1.481.021 2.999 0 4.438 0v-3c-1.498 0-2.94.021-4.396.001l-.042 2.999zm4.358-.002c.622.034 1.238.033 1.847.033v-3c-.623 0-1.158 0-1.686-.028l-.16 2.995z" mask="url(#a)"/>
  <circle cx="246.567" cy="306.567" r="34.567" fill="#fff" filter="url(#filter3_d)"/>
  <path fill="#506677" d="M235.909 307v-15.2c0-2.311 1.505-3.8 3.843-3.8h14.416c2.391 0 3.85 1.477 3.85 3.888v30.302c0 2.328-1.494 3.808-3.84 3.81h-14.509c-2.259 0-3.76-1.52-3.76-3.8V307zm1.442-13.438v25.46h19.242v-25.455l-19.242-.005zm19.285 26.975h-19.345c0 .751-.026 1.44 0 2.126.055 1.166.81 1.9 1.993 1.948.546.026 1.094 0 1.639 0h13.458c1.483 0 2.221-.749 2.245-2.226.01-.598.01-1.197.01-1.848zm-19.304-28.445h19.263c.128-1.962-.556-2.71-2.465-2.71h-14.326c-1.903 0-2.593.743-2.472 2.71z"/>
  <path stroke="#506677" stroke-linecap="round" stroke-miterlimit="10" stroke-width="1.52" d="M246.356 290.764h2.591"/>
  <path fill="#506677" d="M244.63 291.332a.603.603 0 1 0 0-1.206.603.603 0 0 0 0 1.206z"/>
  <path fill="#0495FE" fill-opacity=".5" d="M73.277 222.923l-6.99 4.367-.287-8.237 7.277 3.87z"/>
  <path fill="#0495FE" fill-opacity=".5" fill-rule="evenodd" d="M98.5 142l23.5-7.5-.5-2-24.174 7.465-28.695 80.527 1.76.951L98.5 142z" clip-rule="evenodd"/>
  <path fill="#0495FE" fill-opacity=".5" d="M297.263 161.923l6.99 4.367.287-8.237-7.277 3.87z"/>
  <path fill="#0495FE" fill-opacity=".5" fill-rule="evenodd" d="M277.779 119.035l-30.72.907-.059-2 31.952-.942 22.957 42.492-1.759.951-22.371-41.408z" clip-rule="evenodd"/>
  <path fill="#0495FE" fill-opacity=".5" d="M170.027 187.24l-5.926 5.728-1.997-7.996 2.881.825 1.922.55 3.12.893z"/>
  <path fill="#0495FE" fill-opacity=".5" d="M166.907 186.347l-1.922-.55 3.268-11.288 1.774.491-3.12 11.347zM243.256 246.919l4.058 7.173 4.183-7.101-8.241-.072z"/>
  <path fill="#0495FE" fill-opacity=".5" fill-rule="evenodd" d="M246.496 184.729L228.5 168l.902-1.785 19.097 17.285V247l-2-.004-.003-62.267z" clip-rule="evenodd"/>
  <defs>
    <filter id="filter0_d" width="85.133" height="85.133" x="295" y="170" color-interpolation-filters="sRGB" filterUnits="userSpaceOnUse">
      <feFlood flood-opacity="0" result="BackgroundImageFix"/>
      <feColorMatrix in="SourceAlpha" values="0 0 0 0 0 0 0 0 0 0 0 0 0 0 0 0 0 0 127 0"/>
      <feOffset dy="5"/>
      <feGaussianBlur stdDeviation="4"/>
      <feColorMatrix values="0 0 0 0 0 0 0 0 0 0 0 0 0 0 0 0 0 0 0.07 0"/>
      <feBlend in2="BackgroundImageFix" result="effect1_dropShadow"/>
      <feBlend in="SourceGraphic" in2="effect1_dropShadow" result="shape"/>
    </filter>
    <filter id="filter1_d" width="85.133" height="85.133" x="109" y="192" color-interpolation-filters="sRGB" filterUnits="userSpaceOnUse">
      <feFlood flood-opacity="0" result="BackgroundImageFix"/>
      <feColorMatrix in="SourceAlpha" values="0 0 0 0 0 0 0 0 0 0 0 0 0 0 0 0 0 0 127 0"/>
      <feOffset dy="5"/>
      <feGaussianBlur stdDeviation="4"/>
      <feColorMatrix values="0 0 0 0 0 0 0 0 0 0 0 0 0 0 0 0 0 0 0.07 0"/>
      <feBlend in2="BackgroundImageFix" result="effect1_dropShadow"/>
      <feBlend in="SourceGraphic" in2="effect1_dropShadow" result="shape"/>
    </filter>
    <filter id="filter2_d" width="85.133" height="85.133" x="0" y="226" color-interpolation-filters="sRGB" filterUnits="userSpaceOnUse">
      <feFlood flood-opacity="0" result="BackgroundImageFix"/>
      <feColorMatrix in="SourceAlpha" values="0 0 0 0 0 0 0 0 0 0 0 0 0 0 0 0 0 0 127 0"/>
      <feOffset dy="5"/>
      <feGaussianBlur stdDeviation="4"/>
      <feColorMatrix values="0 0 0 0 0 0 0 0 0 0 0 0 0 0 0 0 0 0 0.07 0"/>
      <feBlend in2="BackgroundImageFix" result="effect1_dropShadow"/>
      <feBlend in="SourceGraphic" in2="effect1_dropShadow" result="shape"/>
    </filter>
    <filter id="filter3_d" width="85.133" height="85.133" x="204" y="269" color-interpolation-filters="sRGB" filterUnits="userSpaceOnUse">
      <feFlood flood-opacity="0" result="BackgroundImageFix"/>
      <feColorMatrix in="SourceAlpha" values="0 0 0 0 0 0 0 0 0 0 0 0 0 0 0 0 0 0 127 0"/>
      <feOffset dy="5"/>
      <feGaussianBlur stdDeviation="4"/>
      <feColorMatrix values="0 0 0 0 0 0 0 0 0 0 0 0 0 0 0 0 0 0 0.07 0"/>
      <feBlend in2="BackgroundImageFix" result="effect1_dropShadow"/>
      <feBlend in="SourceGraphic" in2="effect1_dropShadow" result="shape"/>
    </filter>
  </defs>
</svg>
