<svg width="930" height="264" fill="none" xmlns="http://www.w3.org/2000/svg"><path d="M100.509 3.672A4 4 0 0 1 104.495 0h13.162a4 4 0 0 1 3.987 4.329l-1.153 14A4 4 0 0 1 116.505 22h-13.162a4 4 0 0 1-3.987-4.328l1.153-14z" fill="#0495FE" fill-opacity=".1"/><path d="M1.509 77.672A4 4 0 0 1 5.495 74h13.162a4 4 0 0 1 3.987 4.328l-1.153 14A4 4 0 0 1 17.505 96H4.343a4 4 0 0 1-3.987-4.328l1.153-14zM888.509 55.672A4 4 0 0 1 892.495 52h13.162a4 4 0 0 1 3.987 4.328l-1.153 14A4 4 0 0 1 904.505 74h-13.162a4 4 0 0 1-3.987-4.328l1.153-14z" fill="#0495FE" fill-opacity=".5"/><path d="M786.509 154.672a4 4 0 0 1 3.986-3.672h13.162a4 4 0 0 1 3.987 4.328l-1.153 14a4 4 0 0 1-3.986 3.672h-13.162a4 4 0 0 1-3.987-4.328l1.153-14z" fill="#0495FE" fill-opacity=".3"/><path d="M908.509 245.672a4 4 0 0 1 3.986-3.672h13.162a4 4 0 0 1 3.987 4.328l-1.153 14a4 4 0 0 1-3.986 3.672h-13.162a4 4 0 0 1-3.987-4.328l1.153-14z" fill="#0495FE" fill-opacity=".1"/><path d="M91.509 192.672A4 4 0 0 1 95.495 189h13.162a4 4 0 0 1 3.987 4.329l-1.153 14a3.999 3.999 0 0 1-3.986 3.671H94.343a4 4 0 0 1-3.987-4.328l1.153-14z" fill="#0495FE" fill-opacity=".3"/></svg>