<svg width="200" height="200" viewBox="0 0 200 200" fill="none" xmlns="http://www.w3.org/2000/svg">
<rect width="200" height="200" fill="#232F3E"/>
<path d="M142.274 118.42C129.259 123.9 115.296 126.78 101.175 126.898C82.1797 126.875 63.5179 121.907 47.0262 112.482C45.6978 111.7 44.6821 113.068 45.776 114.084C60.6423 127.488 79.9857 134.847 100.003 134.712C115.794 134.768 131.235 130.056 144.306 121.194C146.181 119.709 144.462 117.522 142.47 118.42H142.274ZM153.995 111.583C152.706 109.981 141.454 108.575 134.461 113.38C133.406 114.162 133.601 115.177 134.734 115.021C138.641 114.552 147.236 113.537 148.76 115.49C150.283 117.443 147.041 125.531 145.595 129.164C145.165 130.219 146.103 130.688 147.08 129.828C153.917 124.437 155.597 113.224 154.268 111.583H153.995Z" fill="#FF9A00"/>
<path d="M77.5932 98.9243C77.1576 98.0726 76.7664 97.1989 76.4212 96.3067C76.1442 95.2486 76.0127 94.1577 76.0305 93.0641V81.3436C76.1723 79.6895 75.9714 78.0238 75.4404 76.4509C74.9093 74.8779 74.0595 73.4313 72.9441 72.2016C70.2716 70.0136 66.8537 68.949 63.4114 69.2325C61.5007 69.2207 59.5964 69.4571 57.7466 69.9357C56.1041 70.3238 54.5162 70.9144 53.0193 71.6938C52.6258 71.8738 52.2785 72.141 52.0035 72.4751C51.8154 72.8635 51.7345 73.2951 51.7691 73.7253V75.5224C51.7691 76.2647 52.0035 76.6554 52.5114 76.6554H53.0974L54.5039 76.1085C55.7785 75.6099 57.0834 75.1923 58.4107 74.8583C59.6913 74.556 61.0018 74.3987 62.3175 74.3895C64.4388 74.1716 66.5631 74.7726 68.2559 76.0694C69.5528 77.7169 70.1555 79.8054 69.9358 81.8905V84.5472C68.4903 84.1956 67.1229 83.9221 65.7555 83.7268C64.4598 83.559 63.1552 83.4677 61.8487 83.4533C58.6606 83.2791 55.5192 84.2799 53.0193 86.2662C51.9321 87.1733 51.0674 88.3176 50.4917 89.6113C49.916 90.9049 49.6446 92.3133 49.6985 93.7282C49.6356 95.0174 49.8429 96.3054 50.3072 97.5098C50.7714 98.7141 51.4823 99.808 52.3942 100.721C53.3627 101.649 54.5099 102.37 55.7659 102.84C57.0219 103.31 58.3604 103.52 59.7 103.456C61.7464 103.487 63.7733 103.054 65.6276 102.187C67.4819 101.321 69.1153 100.045 70.4046 98.4555C70.7416 99.1925 71.1198 99.9099 71.5376 100.604C71.9077 101.208 72.3398 101.771 72.8269 102.284C72.9665 102.437 73.1351 102.561 73.3229 102.648C73.5107 102.735 73.7139 102.784 73.9208 102.792C74.2599 102.798 74.5908 102.688 74.8584 102.479L77.1634 100.956C77.3336 100.874 77.4831 100.755 77.6006 100.607C77.7181 100.459 77.8006 100.287 77.842 100.103C77.8833 99.9185 77.8824 99.7274 77.8393 99.5436C77.7962 99.3598 77.7121 99.1881 77.5932 99.0415V98.9243ZM70.053 90.0949C70.0747 91.1605 69.9565 92.2245 69.7014 93.2594C69.5306 94.1221 69.1703 94.9361 68.6466 95.6426C67.7131 96.6974 66.5315 97.503 65.2086 97.9866C63.9501 98.4106 62.6297 98.6218 61.3018 98.6117C60.2338 98.5667 59.2034 98.2052 58.3414 97.5733C57.4794 96.9413 56.8246 96.0674 56.4603 95.0625C56.0961 94.0576 56.0387 92.9672 56.2956 91.9296C56.5524 90.8921 57.1118 89.9543 57.9028 89.2354C59.4914 88.1753 61.3902 87.68 63.2942 87.8289C64.4272 87.8289 65.5602 87.8289 66.7322 88.0243C67.9043 88.2196 68.9982 88.4149 70.053 88.6493V90.0949ZM88.1807 100.721C88.2927 101.262 88.5493 101.761 88.923 102.167C89.3406 102.435 89.8348 102.559 90.3294 102.519H93.4549C93.9623 102.564 94.4707 102.441 94.9004 102.167C95.2734 101.75 95.5177 101.235 95.6036 100.682L101.19 77.2414L106.855 100.682C106.905 101.226 107.139 101.736 107.519 102.128C107.951 102.433 108.478 102.572 109.004 102.519H112.129C112.616 102.544 113.097 102.407 113.497 102.128C113.889 101.745 114.16 101.256 114.278 100.721L123.342 72.6314C123.475 72.3488 123.554 72.0442 123.576 71.7328C123.593 71.5378 123.593 71.3418 123.576 71.1468C123.597 71.0242 123.588 70.8986 123.55 70.7803C123.512 70.662 123.446 70.5544 123.358 70.4666C123.27 70.3787 123.163 70.3131 123.044 70.2751C122.926 70.2371 122.8 70.2279 122.678 70.2482H119.279C118.787 70.2328 118.3 70.3545 117.873 70.5998C117.528 71.0047 117.286 71.4874 117.169 72.0063L110.84 96.3848L105.019 72.2016C104.953 71.6741 104.72 71.1815 104.355 70.7952C103.911 70.5211 103.39 70.3978 102.87 70.4436H99.9011C99.6417 70.3986 99.3756 70.4101 99.1209 70.477C98.8662 70.544 98.6289 70.665 98.4251 70.8317C98.2213 70.9985 98.0558 71.2071 97.9397 71.4435C97.8236 71.6798 97.7597 71.9384 97.7524 72.2016L92.0875 96.1114L86.0319 72.2016C85.9212 71.6806 85.6791 71.1964 85.3287 70.7952C84.9014 70.5157 84.3911 70.3916 83.8832 70.4436H80.367C79.781 70.4436 79.5075 70.7561 79.5075 71.3421C79.5395 71.8368 79.6448 72.324 79.8201 72.7877L88.1807 100.721ZM127.249 101.386C128.568 102.06 129.975 102.546 131.429 102.831C133.26 103.266 135.134 103.489 137.016 103.495C138.79 103.502 140.556 103.238 142.251 102.714C143.675 102.303 145.003 101.612 146.158 100.682C147.268 99.8223 148.175 98.7285 148.815 97.4788C149.458 96.167 149.78 94.7204 149.752 93.2594C149.778 91.4258 149.187 89.6368 148.072 88.1805C146.714 86.5424 144.909 85.3344 142.876 84.7035L137.719 83.0626C136.291 82.6614 134.961 81.9698 133.812 81.0311C133.461 80.7006 133.183 80.3007 132.994 79.8568C132.806 79.4129 132.712 78.9347 132.718 78.4526C132.683 77.8068 132.824 77.1636 133.127 76.5923C133.43 76.0209 133.883 75.5429 134.437 75.2099C135.844 74.5104 137.399 74.1618 138.969 74.1941C141.379 74.1502 143.768 74.6441 145.963 75.6396C146.391 75.8598 146.853 76.0052 147.33 76.0694C147.877 76.0694 148.189 75.6787 148.189 74.8973V73.1783C148.216 72.7582 148.092 72.3423 147.838 72.0063C147.556 71.6087 147.18 71.2867 146.744 71.0687C146.255 70.806 145.745 70.5839 145.22 70.4045C144.556 70.4045 143.892 70.0138 143.15 69.8575L140.806 69.4278H138.344C136.8 69.4007 135.26 69.5981 133.773 70.0138C132.365 70.4068 131.04 71.0557 129.866 71.9282C128.787 72.7139 127.893 73.7276 127.249 74.8973C126.596 76.0952 126.26 77.44 126.272 78.8042C126.289 80.7096 126.919 82.559 128.069 84.0784C129.573 85.895 131.609 87.1932 133.89 87.7898L139.165 89.4307C140.527 89.7362 141.791 90.3813 142.837 91.306C143.166 91.6412 143.425 92.0383 143.599 92.4741C143.773 92.91 143.86 93.376 143.853 93.8454C143.874 94.5432 143.707 95.2337 143.37 95.8452C143.033 96.4567 142.539 96.9668 141.939 97.3225C140.31 98.1967 138.471 98.6024 136.625 98.4945C135.169 98.5045 133.715 98.3605 132.289 98.0648C130.945 97.7907 129.635 97.3715 128.382 96.8146L127.483 96.4239H126.819C126.272 96.4239 125.96 96.8146 125.96 97.5569V99.5494C125.963 99.901 126.043 100.248 126.194 100.565C126.525 100.951 126.958 101.235 127.444 101.386H127.249Z" fill="white"/>
</svg>
