<svg width="128" height="128" viewBox="0 0 128 128" fill="none" xmlns="http://www.w3.org/2000/svg">
<rect width="128" height="128" fill="#232F3E"/>
<path d="M91.0556 74.5089C82.7255 78.0158 73.7897 79.8591 64.7518 79.9347C52.595 79.9202 40.6515 76.7404 30.0967 70.7083C29.2466 70.2083 28.5965 71.0834 29.2966 71.7335C38.8111 80.3126 51.1908 85.0219 64.0017 84.9354C74.1084 84.9713 83.9906 81.956 92.3558 76.2842C93.556 75.334 92.4558 73.9338 91.1807 74.5089H91.0556ZM98.5567 70.1332C97.7316 69.1081 90.5306 68.208 86.0549 71.2834C85.3798 71.7835 85.5048 72.4336 86.2299 72.3336C88.7303 72.0335 94.2311 71.3834 95.2062 72.6336C96.1814 73.8838 94.1061 79.0596 93.1809 81.3849C92.9059 82.06 93.506 82.36 94.1311 81.81C98.5067 78.3595 99.5819 71.1834 98.7318 70.1332H98.5567Z" fill="#FF9A00"/>
<path d="M49.6596 62.0315C49.3809 61.4864 49.1305 60.9273 48.9095 60.3563C48.7322 59.6791 48.6481 58.9809 48.6595 58.281V50.7799C48.7503 49.7213 48.6217 48.6553 48.2818 47.6485C47.9419 46.6418 47.3981 45.716 46.6842 44.929C44.9738 43.5287 42.7864 42.8474 40.5833 43.0288C39.3604 43.0212 38.1417 43.1725 36.9578 43.4788C35.9066 43.7273 34.8904 44.1052 33.9323 44.604C33.6805 44.7192 33.4582 44.8902 33.2822 45.1041C33.1619 45.3527 33.1101 45.6289 33.1322 45.9042V47.0544C33.1322 47.5294 33.2822 47.7795 33.6073 47.7795H33.9823L34.8825 47.4294C35.6983 47.1103 36.5334 46.8431 37.3828 46.6293C38.2024 46.4358 39.0411 46.3352 39.8832 46.3293C41.2408 46.1899 42.6004 46.5745 43.6838 47.4044C44.5138 48.4588 44.8995 49.7955 44.7589 51.13V52.8302C43.8338 52.6052 42.9587 52.4301 42.0835 52.3051C41.2542 52.1978 40.4193 52.1393 39.5832 52.1301C37.5427 52.0186 35.5323 52.6591 33.9323 53.9304C33.2365 54.5109 32.6831 55.2433 32.3146 56.0712C31.9462 56.8991 31.7725 57.8005 31.807 58.7061C31.7668 59.5311 31.8995 60.3555 32.1966 61.1262C32.4937 61.897 32.9486 62.5971 33.5323 63.1817C34.1521 63.7754 34.8863 64.2367 35.6902 64.5376C36.494 64.8385 37.3506 64.9727 38.208 64.932C39.5177 64.952 40.8149 64.6743 42.0016 64.1199C43.1884 63.5655 44.2338 62.7488 45.059 61.7315C45.2746 62.2032 45.5167 62.6623 45.7841 63.1067C46.0209 63.4929 46.2974 63.8532 46.6092 64.1819C46.6985 64.2797 46.8064 64.3588 46.9266 64.4146C47.0468 64.4704 47.1769 64.5018 47.3093 64.5069C47.5263 64.5107 47.7381 64.4401 47.9094 64.3069L49.3846 63.3317C49.4935 63.2794 49.5892 63.2031 49.6644 63.1086C49.7396 63.014 49.7924 62.9036 49.8189 62.7858C49.8453 62.6679 49.8447 62.5455 49.8172 62.4279C49.7896 62.3103 49.7357 62.2004 49.6596 62.1066V62.0315ZM44.8339 56.3807C44.8478 57.0628 44.7721 57.7437 44.6089 58.406C44.4996 58.9581 44.269 59.4791 43.9338 59.9312C43.3364 60.6063 42.5802 61.1219 41.7335 61.4315C40.928 61.7028 40.083 61.838 39.2331 61.8315C38.5496 61.8027 37.8902 61.5713 37.3385 61.1669C36.7868 60.7624 36.3677 60.2031 36.1346 59.56C35.9015 58.9169 35.8648 58.219 36.0291 57.555C36.1935 56.8909 36.5516 56.2907 37.0578 55.8306C38.0745 55.1522 39.2897 54.8352 40.5083 54.9305C41.2334 54.9305 41.9585 54.9305 42.7086 55.0555C43.4587 55.1805 44.1588 55.3056 44.8339 55.4556V56.3807ZM56.4356 63.1817C56.5073 63.5274 56.6715 63.8471 56.9107 64.1068C57.178 64.2784 57.4942 64.3575 57.8108 64.3319H59.8111C60.1359 64.3612 60.4612 64.282 60.7362 64.1068C60.975 63.8403 61.1313 63.5103 61.1863 63.1567L64.7618 48.1545L68.3874 63.1567C68.4189 63.5047 68.569 63.8312 68.8124 64.0818C69.0885 64.2772 69.426 64.366 69.7626 64.3319H71.7629C72.0743 64.3483 72.3823 64.2603 72.638 64.0818C72.8888 63.8369 73.0626 63.524 73.1381 63.1817L78.9389 45.2041C79.0238 45.0232 79.0747 44.8283 79.0889 44.629C79.0995 44.5042 79.0995 44.3787 79.0889 44.2539C79.1019 44.1755 79.096 44.0951 79.0717 44.0194C79.0474 43.9437 79.0054 43.8748 78.9492 43.8186C78.893 43.7624 78.8241 43.7204 78.7484 43.6961C78.6727 43.6718 78.5923 43.6659 78.5138 43.6789H76.3385C76.0234 43.669 75.7118 43.7469 75.4384 43.9039C75.2176 44.163 75.0632 44.4719 74.9883 44.804L70.9377 60.4063L67.2122 44.929C67.1698 44.5914 67.0209 44.2761 66.7871 44.0289C66.5029 43.8535 66.1697 43.7746 65.837 43.8039H63.9367C63.7707 43.7751 63.6004 43.7824 63.4374 43.8253C63.2744 43.8682 63.1225 43.9456 62.9921 44.0523C62.8616 44.159 62.7557 44.2925 62.6814 44.4438C62.6071 44.5951 62.5662 44.7606 62.5615 44.929L58.936 60.2313L55.0604 44.929C54.9896 44.5956 54.8346 44.2857 54.6104 44.0289C54.3369 43.8501 54.0103 43.7706 53.6852 43.8039H51.4349C51.0598 43.8039 50.8848 44.0039 50.8848 44.379C50.9053 44.6956 50.9727 45.0073 51.0848 45.3041L56.4356 63.1817ZM81.4393 63.6068C82.2836 64.0383 83.1841 64.3497 84.1147 64.5319C85.2863 64.8102 86.486 64.9529 87.6902 64.957C88.8259 64.9611 89.9556 64.7925 91.0407 64.4569C91.9521 64.1936 92.8021 63.7517 93.541 63.1567C94.2513 62.6062 94.8318 61.9063 95.2413 61.1064C95.6534 60.2669 95.8591 59.3411 95.8414 58.406C95.8581 57.2325 95.4794 56.0876 94.7662 55.1555C93.8968 54.1071 92.7415 53.334 91.4407 52.9302L88.1402 51.8801C87.2262 51.6233 86.375 51.1806 85.6399 50.5799C85.4151 50.3684 85.2368 50.1125 85.1163 49.8284C84.9958 49.5443 84.9357 49.2382 84.9398 48.9296C84.9171 48.5164 85.0075 48.1047 85.2014 47.739C85.3952 47.3734 85.6852 47.0675 86.0399 46.8543C86.9401 46.4066 87.9352 46.1836 88.9404 46.2042C90.4825 46.1762 92.0114 46.4922 93.416 47.1294C93.6899 47.2703 93.9859 47.3633 94.2911 47.4044C94.6412 47.4044 94.8412 47.1544 94.8412 46.6543V45.5541C94.8585 45.2852 94.7786 45.0191 94.6162 44.804C94.4356 44.5496 94.1952 44.3435 93.9161 44.2039C93.6032 44.0359 93.2771 43.8937 92.9409 43.7789C92.5159 43.7789 92.0908 43.5288 91.6158 43.4288L90.1155 43.1538H88.5403C87.5521 43.1364 86.5667 43.2628 85.6149 43.5288C84.7133 43.7803 83.8657 44.1957 83.1145 44.754C82.4235 45.2569 81.8515 45.9057 81.4393 46.6543C81.0213 47.4209 80.8062 48.2816 80.8142 49.1547C80.825 50.3742 81.2283 51.5578 81.9643 52.5302C82.9266 53.6928 84.2298 54.5237 85.6899 54.9055L89.0654 55.9557C89.9375 56.1512 90.746 56.564 91.4157 57.1558C91.626 57.3704 91.7917 57.6245 91.9033 57.9034C92.0149 58.1824 92.0701 58.4807 92.0658 58.7811C92.079 59.2276 91.9724 59.6696 91.7569 60.0609C91.5414 60.4523 91.225 60.7787 90.8406 61.0064C89.7982 61.5659 88.6212 61.8255 87.4401 61.7565C86.5079 61.7629 85.5776 61.6707 84.6647 61.4815C83.8048 61.306 82.9664 61.0377 82.1644 60.6813L81.5893 60.4313H81.1642C80.8142 60.4313 80.6141 60.6813 80.6141 61.1564V62.4316C80.6164 62.6566 80.6676 62.8785 80.7642 63.0817C80.976 63.3287 81.2534 63.5107 81.5643 63.6068H81.4393Z" fill="white"/>
</svg>
