<svg width="64" height="64" viewBox="0 0 64 64" fill="none" xmlns="http://www.w3.org/2000/svg">
<path d="M23.5367 44.7892C35.0212 44.7892 44.3313 35.4791 44.3313 23.9946C44.3313 12.51 35.0212 3.19995 23.5367 3.19995C12.0521 3.19995 2.74207 12.51 2.74207 23.9946C2.74207 35.4791 12.0521 44.7892 23.5367 44.7892Z" fill="#8ECCFD"/>
<path d="M45.7404 40.2516H42.8496L41.825 39.2636C45.4111 35.092 47.57 29.6764 47.57 23.785C47.57 10.6484 36.9217 0 23.785 0C10.6484 0 0 10.6484 0 23.785C0 36.9217 10.6484 47.57 23.785 47.57C29.6764 47.57 35.092 45.4111 39.2636 41.825L40.2516 42.8496V45.7404L58.5477 64L64 58.5477L45.7404 40.2516ZM23.785 42.2516C14.6735 42.2516 5.31847 32.8965 5.31847 23.785C5.31847 14.6735 14.6735 5.31847 23.785 5.31847C32.8965 5.31847 42.2516 14.6735 42.2516 23.785C42.2516 32.8965 32.8965 42.2516 23.785 42.2516Z" fill="#0496FF"/>
<path fill-rule="evenodd" clip-rule="evenodd" d="M41.825 10.38C42.9958 11.1118 43.3518 12.6542 42.62 13.825L30.12 33.825C29.7355 34.4402 29.1027 34.8581 28.3859 34.97C27.6691 35.082 26.939 34.8771 26.3851 34.4085L15.1826 24.9294L6.30839 34.2262C5.35504 35.2249 3.77256 35.2617 2.77381 34.3084C1.77507 33.355 1.73827 31.7726 2.69162 30.7738L13.1916 19.7738C14.1048 18.8171 15.6052 18.7372 16.6149 19.5915L27.4105 28.7263L38.38 11.175C39.1118 10.0042 40.6542 9.64823 41.825 10.38Z" fill="#0496FF"/>
</svg>
