<svg width="249" height="165" viewBox="0 0 249 165" fill="none" xmlns="http://www.w3.org/2000/svg">
<path d="M25.43 70.902C25.43 70.902 47.934 37.699 92.867 34.264V22.218C43.098 26.215 0 68.367 0 68.367C0 68.367 24.41 138.932 92.867 145.393V132.589C42.63 126.269 25.43 70.902 25.43 70.902ZM92.867 107.125V118.851C54.899 112.082 44.36 72.614 44.36 72.614C44.36 72.614 62.59 52.419 92.867 49.144V62.011C92.844 62.011 92.828 62.004 92.809 62.004C76.918 60.097 64.504 74.942 64.504 74.942C64.504 74.942 71.462 99.933 92.867 107.125ZM92.867 0V22.218C94.328 22.106 95.789 22.011 97.258 21.961C153.84 20.054 190.707 68.367 190.707 68.367C190.707 68.367 148.364 119.855 104.25 119.855C100.207 119.855 96.422 119.48 92.867 118.85V132.589C95.907 132.975 99.059 133.202 102.348 133.202C143.399 133.202 173.086 112.237 201.832 87.424C206.598 91.241 226.11 100.527 230.121 104.592C202.789 127.475 139.09 145.921 102.977 145.921C99.496 145.921 96.153 145.71 92.867 145.393V164.699H248.899V0H92.867ZM92.867 49.144V34.264C94.313 34.163 95.77 34.086 97.258 34.039C137.946 32.761 164.64 69.004 164.64 69.004C164.64 69.004 135.808 109.047 104.894 109.047C100.445 109.047 96.457 108.332 92.867 107.125V62.011C108.707 63.925 111.894 70.922 121.417 86.797L142.597 68.938C142.597 68.938 127.136 48.661 101.073 48.661C98.24 48.66 95.529 48.859 92.867 49.144Z" fill="black"/>
</svg>
