<svg width="311" height="315" viewBox="0 0 311 315" fill="none" xmlns="http://www.w3.org/2000/svg">
<path d="M138.904 0.000901874C104.45 0.000901874 73.8395 22.1867 63.1699 54.9325C52.2204 57.1896 41.8772 61.7528 32.8285 68.3185C23.7799 74.8843 16.2334 83.3019 10.6913 93.0112C-6.58872 122.877 -2.6429 160.423 20.5067 186.022C13.3596 207.463 15.8125 230.926 27.2267 250.341C44.4008 280.313 78.957 295.673 112.772 288.526C120.176 296.882 129.276 303.563 139.466 308.125C149.656 312.686 160.701 315.023 171.865 314.979C206.319 314.979 236.93 292.793 247.599 260.047C269.785 255.459 288.879 241.592 299.972 221.969C317.358 192.103 313.412 154.557 290.266 128.958V128.852C293.797 118.254 295.024 107.024 293.865 95.9137C292.706 84.8032 289.188 74.0682 283.546 64.4267C266.369 34.5609 231.809 19.1971 198.103 26.3442C190.665 18.01 181.54 11.3515 171.335 6.80997C161.129 2.26842 150.075 -0.0525256 138.904 0.000901874ZM138.904 20.4821L138.798 20.588C152.665 20.588 165.999 25.388 176.665 34.2434C176.238 34.455 175.384 34.988 174.745 35.3092L112.028 71.4679C108.827 73.2821 106.907 76.695 106.907 80.4292V165.332L79.9208 149.761V79.575C79.9148 63.9194 86.1235 48.9016 97.1831 37.8208C108.243 26.74 123.248 20.5062 138.904 20.4821ZM214.457 45.2002C224.85 45.1803 235.064 47.9045 244.068 53.0975C253.071 58.2905 260.543 65.7683 265.73 74.775C272.556 86.7221 275.114 100.695 272.767 114.241C272.34 113.92 271.49 113.496 270.953 113.175L208.236 76.9067C206.658 76.0144 204.876 75.5454 203.063 75.5454C201.251 75.5454 199.469 76.0144 197.891 76.9067L124.398 119.358V88.2112L185.09 53.1183C194.013 47.9448 204.142 45.2126 214.457 45.1964V45.2002ZM59.3337 77.4396V151.998C59.3337 155.732 61.2537 159.039 64.455 160.959L137.838 203.305L110.743 218.983L50.1571 183.996C36.6175 176.149 26.7446 163.251 22.7056 148.132C18.6665 133.013 20.7914 116.909 28.6138 103.356C35.5143 91.3948 46.3821 82.2288 59.3337 77.4396ZM199.917 95.8912L260.609 130.878C288.876 147.198 298.472 183.251 282.152 211.518L282.258 211.624C275.326 223.571 264.445 232.744 251.538 237.438V162.876C251.538 159.142 249.618 155.729 246.416 153.918L172.927 111.463L199.917 95.8912ZM155.33 121.6L186.265 139.518V175.25L155.33 193.169L124.398 175.25V139.518L155.33 121.6ZM203.969 149.761L230.954 165.332V235.412C230.954 268.052 204.501 294.505 171.971 294.505V294.399C158.21 294.399 144.77 289.599 134.21 280.748C134.637 280.536 135.597 279.999 136.13 279.678L198.847 243.519C202.049 241.705 204.074 238.292 203.965 234.558L203.969 149.761ZM186.367 195.625V226.769L125.676 261.756C97.4087 277.97 61.3558 268.37 45.0358 240.209H45.1416C38.21 228.367 35.7533 214.289 38.1004 200.743C38.5275 201.064 39.3816 201.487 39.9145 201.809L102.632 238.077C104.21 238.969 105.992 239.438 107.804 239.438C109.617 239.438 111.399 238.969 112.977 238.077L186.367 195.625Z" fill="#0F0F0F"/>
</svg>
