<svg width="596" height="602" viewBox="0 0 596 602" fill="none" xmlns="http://www.w3.org/2000/svg">
<path d="M294.302 0.00492302C269.738 0.118981 246.281 2.21249 225.641 5.86232C164.839 16.5971 153.799 39.066 153.799 80.5023V135.227H297.483V153.469H153.799H99.8757C58.1171 153.469 21.5521 178.552 10.115 226.268C-3.07751 280.962 -3.66267 315.092 10.115 372.201C20.3286 414.711 44.72 445 86.4786 445H135.881V379.397C135.881 332.003 176.914 290.197 225.641 290.197H369.158C409.108 290.197 441 257.325 441 217.231V80.5023C441 41.5886 408.15 12.3569 369.158 5.86232C344.475 1.75625 318.865 -0.109137 294.302 0.00492302ZM216.598 44.0191C231.44 44.0191 243.56 56.3291 243.56 71.4652C243.56 86.5476 231.44 98.744 216.598 98.744C201.703 98.744 189.636 86.5476 189.636 71.4652C189.636 56.3291 201.703 44.0191 216.598 44.0191Z" fill="black"/>
<path opacity=".6" d="M459.19 153V216.846C459.19 266.344 417.243 308.006 369.409 308.006H225.859C186.538 308.006 154 341.673 154 381.068V517.975C154 556.94 187.868 579.859 225.859 591.038C271.352 604.42 314.977 606.838 369.409 591.038C405.59 580.557 441.267 559.466 441.267 517.975V463.179H297.717V444.913H441.267H513.126C554.894 444.913 570.459 415.767 584.985 372.019C599.989 326.981 599.351 283.67 584.985 225.895C574.662 184.296 554.947 153 513.126 153H459.19ZM378.454 499.71C393.352 499.71 405.422 511.922 405.422 527.024C405.422 542.18 393.352 554.506 378.454 554.506C363.609 554.506 351.486 542.18 351.486 527.024C351.486 511.922 363.609 499.71 378.454 499.71Z" fill="black"/>
</svg>
