<svg width="128" height="128" viewBox="0 0 128 128" fill="none" xmlns="http://www.w3.org/2000/svg">
<rect width="128" height="128" fill="#0ACF84"/>
<path d="M31.666 62.4346C31.7197 65.4854 34.2764 67.2686 38.1436 67.2686C42.2363 67.2686 44.6748 65.292 44.6748 62.1768C44.6748 59.7383 43.1709 58.3955 39.8623 57.7617L38.2725 57.4609C36.5859 57.1387 35.877 56.6875 35.877 55.8711C35.877 54.958 36.7256 54.3135 38.1543 54.3135C39.583 54.3135 40.6357 54.9795 40.7002 56.0967H44.3633C44.3203 53.1426 42.0215 51.2305 38.1221 51.2305C34.5557 51.2305 31.9668 53.1533 31.9668 56.1396C31.9668 58.5029 33.5674 60.0176 36.6611 60.5977L38.251 60.8984C40.0879 61.2529 40.7539 61.6934 40.7539 62.5527C40.7539 63.498 39.7549 64.1855 38.2188 64.1855C36.7041 64.1855 35.5117 63.541 35.3291 62.4346H31.666Z" fill="white"/>
<path d="M57.125 63.8203H50.4434V60.6621H56.7275V57.7617H50.4434V54.6787H57.125V51.499H46.501V67H57.125V63.8203Z" fill="white"/>
<path d="M66.5781 51.2305C61.8838 51.2305 58.9189 54.3135 58.9189 59.2549C58.9189 64.1963 61.873 67.2686 66.5781 67.2686C71.2725 67.2686 74.2266 64.1963 74.2266 59.2549C74.2266 54.3135 71.2725 51.2305 66.5781 51.2305ZM66.5781 54.4316C68.7803 54.4316 70.2197 56.3008 70.2197 59.2549C70.2197 62.1982 68.7803 64.0674 66.5781 64.0674C64.3652 64.0674 62.9365 62.1982 62.9365 59.2549C62.9365 56.3008 64.376 54.4316 66.5781 54.4316Z" fill="white"/>
<path fill-rule="evenodd" clip-rule="evenodd" d="M61.3348 40C55.2204 40 49.7965 42.9542 46.4109 47.526C45.4249 48.8575 43.5461 49.1376 42.2146 48.1515C40.8831 47.1655 40.6031 45.2867 41.5891 43.9552C46.0576 37.9212 53.2386 34 61.3348 34C74.8971 34 85.8914 44.9944 85.8914 58.5566C85.8914 72.1188 74.8971 83.1131 61.3348 83.1131C53.8289 83.1131 47.1072 79.7419 42.6075 74.4416C41.5352 73.1785 41.6898 71.2853 42.9529 70.213C44.216 69.1407 46.1092 69.2954 47.1815 70.5584C50.5899 74.5733 55.6642 77.1131 61.3348 77.1131C71.5833 77.1131 79.8914 68.8051 79.8914 58.5566C79.8914 48.3081 71.5833 40 61.3348 40Z" fill="white"/>
<path fill-rule="evenodd" clip-rule="evenodd" d="M75.0143 72.9761C76.2502 71.8726 78.1467 71.98 79.2502 73.2159L94.2378 90.0019C95.3413 91.2378 95.234 93.1343 93.9981 94.2378C92.7622 95.3413 90.8657 95.234 89.7622 93.9981L74.7746 77.212C73.6711 75.9761 73.7784 74.0796 75.0143 72.9761Z" fill="white"/>
</svg>
