<svg xmlns="http://www.w3.org/2000/svg" viewBox="0 0 392.94 100">
  <path fill="#fff" d="M300.63 42.36c2.05-3.69 4-7.15 5.89-10.6 2.74-4.9 5.45-9.81 8.23-14.69s10.64-5.55 13.31-2.45a6.37 6.37 0 0 1 1.6 3.43c.22 3.63.12 7.29.12 10.93v52.19c0 3.36-1.64 5.21-5 5.3a19.16 19.16 0 0 1-5.16-.64c-2-.49-2.92-2.16-2.92-4.51v-41l-.47-.11c-1.11 1.91-2.25 3.81-3.33 5.74-2.59 4.63-5.15 9.29-7.73 13.92a5.08 5.08 0 0 1-4.7 2.82c-2.13-.05-3.53-1.35-4.53-3.25-3.45-6.51-7-13-10.46-19.48a5.69 5.69 0 0 1-.3-.85h-.48v41.83c0 3.4-1.34 5-4.77 5.52a9.45 9.45 0 0 1-6.56-1.12 3.21 3.21 0 0 1-1.8-2.89V18.39c0-3.22 2.64-5.22 5.57-5.57 5-.6 8.28 1.79 10.55 5.89 4.31 7.77 8.53 15.58 12.94 23.65zM105.94 49.53c0-10.57.1-21.15-.06-31.72a4.57 4.57 0 0 1 4.7-4.89c8.22-.17 16.47-.34 24.67.08 4.85.25 9.51 1.83 12.76 6a13.5 13.5 0 0 1 3 7 35.41 35.41 0 0 1 .46 6.47c-.34 4.12-1.26 8.15-4.33 11.24a23.81 23.81 0 0 1-3 2.23 6.67 6.67 0 0 0-.6.59c.22.22.41.53.68.65 3.48 1.59 6.31 3.94 7.72 7.54a19.1 19.1 0 0 1 1.36 6.41 52.9 52.9 0 0 1-.63 10.87c-1.27 6.71-5 11.57-11.9 13.4a30 30 0 0 1-6.94 1.14c-7.39.14-14.79.08-22.18 0a7.72 7.72 0 0 1-3.41-.74 4 4 0 0 1-2.33-3.8c.09-10.81.03-21.64.03-32.47zm13.29 2.13a4.66 4.66 0 0 0-.18.85v21.56c0 1 .53 1.19 1.38 1.15 4.09-.17 8.19-.3 12.28-.47a7.18 7.18 0 0 0 5.28-2.9c1.32-1.53 1.59-3.34 2-5.18a16.86 16.86 0 0 0-1.17-10.8c-1.55-3.24-4.71-3.93-7.8-4.15-3.91-.27-7.77-.06-11.79-.06zM119 41.51c4.21 0 8.11.05 12 0a8.11 8.11 0 0 0 3.06-.82c4.38-2 5.19-8.12 3.42-12.08-1.55-3.45-4.66-4.2-8-4.38-3-.16-6 0-9-.06-1.2 0-1.52.39-1.51 1.52.06 3.54 0 7.08 0 10.62zM210.9 41.83v22a27.25 27.25 0 0 1-3 13.15c-2.27 4.16-5.87 6.63-10.12 8.3a30.67 30.67 0 0 1-14.44 1.79c-6.21-.61-12-2.42-16.25-7.42a18.19 18.19 0 0 1-4.31-10.8c-1.2-17.19-.22-34.41-.5-51.62a3.49 3.49 0 0 1 2.08-3.4 10.41 10.41 0 0 1 8.92-.18c1.48.59 2.14 1.91 2.13 3.71q-.1 23 0 45.92c0 3.07.43 6.08 2.31 8.74a7.52 7.52 0 0 0 4.72 3.1c4 .75 8.07 1 11.62-1.68a7.43 7.43 0 0 0 3.11-5.33c.33-3.87.57-7.75.59-11.63.07-12.81 0-25.61 0-38.42 0-3.26 1.37-5 4.63-5.15a19.76 19.76 0 0 1 5.77.61 3.69 3.69 0 0 1 2.73 3.92c-.01 8.14.01 16.26.01 24.39zM365 70.4c-3.28 0-6.56.1-9.84-.05A1.89 1.89 0 0 0 353 72c-.95 3.27-1.83 6.57-2.67 9.87-1 4.05-2.62 5.7-7.91 4.25a11.66 11.66 0 0 1-2.88-1.24c-2.3-1.36-2.95-2.72-2.25-5.26.83-3 1.9-6 2.83-9s1.8-6 2.73-9 2-6.27 3-9.41c.7-2.28 1.33-4.59 2-6.87 1-3.15 2-6.28 2.95-9.42.71-2.28 1.35-4.58 2.05-6.87q1.45-4.71 2.95-9.42a13.91 13.91 0 0 0 .62-2c.55-3.67 3.52-4.52 6.36-5.16a12.16 12.16 0 0 1 8.22 1.3c2 1 2.48 2.94 3.08 4.81a816.9 816.9 0 0 1 3.62 11.6c.93 3.06 1.76 6.16 2.69 9.22s1.95 6.08 2.9 9.14c.73 2.37 1.36 4.78 2.1 7.15.94 3 2 6.08 2.9 9.13.73 2.38 1.38 4.78 2.09 7.17.66 2.23 1.22 4.51 2 6.69 1.66 4.45-.6 5.87-4 7.35a7.71 7.71 0 0 1-2.67.62c-3.81.17-5.23-1.17-6-4.91-.55-2.67-1.48-5.27-2.27-7.9-.31-1.07-.39-2.67-1.1-3.06-1-.56-2.52-.25-3.82-.26-2.52-.14-5.05-.12-7.52-.12zm.16-40.55h-.35c-2.84 10.07-5.69 20.14-8.58 30.37h17.52C370.82 50 368 39.91 365.13 29.85zM222.75 49.71c0-10.57.11-21.14-.06-31.71-.06-4.1 2.05-4.56 4.93-5.06a13.19 13.19 0 0 1 5 .5c2.33.53 3.25 1.87 3.25 4.27V73c0 2.22 0 2.22 2.19 2.22 7.24 0 14.48.12 21.71-.06a4 4 0 0 1 4.23 4.23 18.46 18.46 0 0 1-.67 5.12 2.83 2.83 0 0 1-2.92 2h-32.8c-3.23 0-4.89-1.86-4.89-5.11q.02-15.83.03-31.69zM30.94 0L62.5 30.78 43.91 50l24.84 24.84L30.94 100 0 69.06l6.25-44.53L30.94 0z"/>
</svg>
