<svg width="36" height="22" viewBox="0 0 36 22" xmlns="http://www.w3.org/2000/svg">
  <path
    d="M13.7906 2.9987C9.74165 2.9987 5.7127 2.9987 1.6637 2.9987C1.40312 2.9987 1.06236 3.09966 0.88196 2.95832C0.521158 2.69582 0 2.31216 0 1.98909C0 1.66601 0.581292 1.32274 0.922049 1.04005C1.02227 0.959278 1.24276 1.01985 1.40312 1.01985C9.42093 1.01985 17.4388 0.97947 25.4566 1.04005C31.4298 1.08043 36.02 5.70447 36 11.5602C35.98 16.0833 33.0334 20.1218 28.7038 21.4949C24.4744 22.8679 19.8441 21.3535 17.2584 17.6785C16.7973 17.0122 16.3163 16.7497 15.5345 16.8102C14.6726 16.8708 13.7906 16.8102 12.9287 16.8304C12.1871 16.8304 11.3853 16.8304 11.4053 15.841C11.4254 14.9324 12.167 14.892 12.8886 14.9122C14.1314 14.9324 15.3541 14.9727 16.5969 14.892C17.4788 14.8516 17.98 15.1747 18.441 15.9218C21.5078 20.9093 28.4031 21.4343 32.1114 16.9516C34.3363 14.2458 34.7773 11.1564 33.3341 7.9862C31.9109 4.8362 29.3653 3.18043 25.9176 2.9987C25.8174 2.9987 25.7171 2.9987 25.6169 2.9987C21.6682 2.9987 17.7394 2.9987 13.7906 2.9987Z"
    fill="#00c1a5"
  />
  <path
    d="M10.8441 5.66455C12.6882 5.66455 14.5122 5.66455 16.3563 5.66455C17.0579 5.66455 17.7194 5.7857 17.7394 6.61359C17.7795 7.52225 17.0779 7.6434 16.3563 7.6434C12.6481 7.6434 8.95991 7.6434 5.25167 7.6434C4.55011 7.6434 3.88864 7.52225 3.8686 6.69436C3.84855 5.8059 4.53007 5.66455 5.25167 5.66455C7.09577 5.68474 8.97995 5.66455 10.8441 5.66455Z"
    fill="#00c1a5"
  />
  <path
    d="M26.5591 8.20875C26.0379 10.4097 26.9199 12.0251 28.6237 13.3376C29.225 13.7818 29.4856 14.4482 28.8842 15.0741C28.2629 15.7203 27.7417 15.2962 27.1604 14.852C25.1159 13.2972 24.0936 11.3587 24.5546 8.71355C24.715 7.8049 24.5747 6.83567 24.5747 5.88663C24.5747 5.15971 24.9355 4.69528 25.6571 4.71548C26.3586 4.73567 26.5791 5.24048 26.5591 5.90682C26.539 6.65394 26.5591 7.44144 26.5591 8.20875Z"
    fill="#00c1a5"
  />
  <path
    d="M12.147 10.3088C13.1091 10.3088 14.0913 10.2886 15.0534 10.3088C15.6948 10.3088 16.1759 10.6117 16.1559 11.3184C16.1559 11.9847 15.6948 12.2674 15.0935 12.2674C13.089 12.2876 11.0846 12.2876 9.08014 12.2674C8.43871 12.2674 7.9376 11.9645 7.95764 11.2578C7.97769 10.5511 8.4788 10.3088 9.14027 10.3088C10.1425 10.3088 11.1447 10.3088 12.147 10.3088Z"
    fill="#00c1a5"
  />
</svg>