<svg width="25" height="47" viewBox="0 0 25 47" fill="none" xmlns="http://www.w3.org/2000/svg">
<g clip-path="url(#clip0)">
<path d="M21.694 18.7288C19.2479 7.82085 14.1318 4.91799 12.8283 2.86443C12.1193 1.74638 11.4028 0.050293 11.4028 0.050293C11.3286 1.01369 11.2029 1.62976 10.3896 2.36498C8.75552 3.83923 1.78533 9.56384 1.1983 21.9574C0.652749 33.5131 9.62035 40.6397 10.8108 41.375C11.7221 41.8262 12.8308 41.3838 13.3751 40.9706C17.6955 37.9777 23.6072 29.9993 21.694 18.7288Z" fill="#10AA50"/>
<path d="M11.7749 35.2207C11.5486 38.0817 11.3877 39.7474 10.8132 41.3788C10.8132 41.3788 11.1903 44.1017 11.4518 46.9856H12.3858C12.6097 44.9536 12.95 42.9364 13.4052 40.944C12.1985 40.347 11.8201 37.7306 11.7749 35.2207Z" fill="#B8C4C2"/>
<path d="M13.4077 40.944C12.1859 40.3749 11.8314 37.7053 11.7736 35.2169C12.0751 31.1143 12.1628 26.9986 12.0363 22.8867C11.9734 20.7317 12.0677 2.90253 11.5096 0.29248C11.7358 0.799532 12.2814 2.00251 12.8269 2.85943C14.1305 4.91299 19.2378 7.81712 21.6927 18.7263C23.6034 29.9702 17.7268 37.936 13.4077 40.944Z" fill="#12924F"/>
</g>
<defs>
<clipPath id="clip0">
<rect width="24.0732" height="47" fill="white" transform="translate(0 -0.000488281)"/>
</clipPath>
</defs>
</svg>
