<svg width="245" height="228" viewBox="0 0 245 228" fill="none" xmlns="http://www.w3.org/2000/svg">
<path d="M48.0445 147.766L106.935 59.9479L154.185 141.787L56.1567 160.086C49.1889 161.386 44.0966 153.653 48.0445 147.766Z" fill="#0471FF"/>
<ellipse cx="130.685" cy="101.084" rx="13" ry="47" transform="rotate(-30 130.685 101.084)" fill="#105BBB"/>
<path d="M155.68 126.361L156.864 123.604L156.869 123.606L155.68 126.361ZM185.484 147.519C186.31 148.955 185.816 150.789 184.38 151.615C182.944 152.441 181.11 151.947 180.283 150.511L185.484 147.519ZM126.639 122.45C124.986 122.329 123.746 120.89 123.867 119.238C123.989 117.586 125.428 116.345 127.08 116.467L126.639 122.45ZM155.68 126.361C156.869 123.606 156.869 123.606 156.87 123.607C156.87 123.607 156.871 123.607 156.872 123.607C156.874 123.608 156.875 123.609 156.877 123.61C156.881 123.611 156.887 123.614 156.893 123.617C156.906 123.622 156.923 123.63 156.944 123.639C156.988 123.658 157.048 123.685 157.126 123.72C157.281 123.79 157.504 123.892 157.786 124.025C158.35 124.291 159.155 124.683 160.143 125.198C162.116 126.226 164.83 127.751 167.817 129.748C173.737 133.706 180.974 139.679 185.484 147.519L180.283 150.511C176.44 143.83 170.076 138.475 164.482 134.736C161.712 132.885 159.192 131.469 157.369 130.518C156.459 130.044 155.726 129.687 155.227 129.452C154.977 129.334 154.787 129.247 154.662 129.191C154.599 129.163 154.553 129.142 154.525 129.13C154.51 129.123 154.5 129.119 154.495 129.116C154.492 129.115 154.49 129.115 154.49 129.114C154.49 129.114 154.49 129.114 154.49 129.114C154.49 129.114 154.491 129.115 154.491 129.115C154.491 129.115 154.492 129.115 155.68 126.361ZM154.497 129.117C150.36 127.341 138.283 123.309 126.639 122.45L127.08 116.467C139.556 117.386 152.292 121.641 156.864 123.604L154.497 129.117Z" fill="#F6C169"/>
<path d="M114.291 80.7346C113.224 82.0026 113.388 83.8951 114.656 84.9615C115.924 86.0279 117.816 85.8645 118.883 84.5965L114.291 80.7346ZM133.763 50.4023C133.859 48.7482 132.596 47.3297 130.942 47.234C129.288 47.1383 127.869 48.4017 127.773 50.0558L133.763 50.4023ZM116.587 82.6655C118.883 84.5965 118.883 84.5959 118.884 84.5952C118.884 84.5949 118.885 84.5942 118.885 84.5936C118.886 84.5924 118.887 84.5909 118.889 84.5892C118.892 84.5858 118.895 84.5815 118.9 84.5762C118.908 84.5656 118.92 84.5511 118.936 84.533C118.966 84.4966 119.008 84.4452 119.062 84.3791C119.169 84.2471 119.323 84.0566 119.515 83.8112C119.901 83.3205 120.445 82.6094 121.098 81.7069C122.401 79.9041 124.145 77.3253 125.922 74.2025C129.444 68.0133 133.241 59.432 133.763 50.4023L127.773 50.0558C127.328 57.7503 124.035 65.3873 120.707 71.2353C119.06 74.1311 117.44 76.5256 116.235 78.1914C115.634 79.0233 115.138 79.6704 114.797 80.1043C114.627 80.3212 114.495 80.4846 114.409 80.5909C114.366 80.644 114.334 80.6828 114.314 80.707C114.304 80.719 114.297 80.7274 114.293 80.732C114.291 80.7343 114.29 80.7357 114.289 80.7361C114.289 80.7363 114.289 80.7363 114.289 80.7361C114.29 80.7359 114.29 80.7356 114.29 80.7355C114.29 80.7351 114.291 80.7346 116.587 82.6655Z" fill="#0471FF"/>
<circle cx="130.665" cy="41.0508" r="3" transform="rotate(-30 130.665 41.0508)" fill="#0471FF"/>
<circle r="3" transform="matrix(0.998238 0.059339 0.059339 -0.998238 186.901 157.268)" fill="#F6C169"/>
<circle cx="143.567" cy="69.3976" r="4" transform="rotate(-30 143.567 69.3976)" fill="#F7C26C"/>
<rect x="163.414" y="41.7733" width="8" height="8" rx="2" transform="rotate(-30 163.414 41.7733)" fill="#EA5F88"/>
<rect x="147.658" y="152.483" width="7" height="7" rx="2" transform="rotate(-30 147.658 152.483)" fill="#F7C26C"/>
<rect x="212.169" y="82.9064" width="7" height="7" rx="2" transform="rotate(15 212.169 82.9064)" fill="#F7C26C"/>
<path d="M127.819 98.12L142.03 105.927C143.299 106.624 144.865 105.783 144.986 104.34L146.313 88.4623C146.429 87.0665 147.908 86.2199 149.171 86.8255L164.501 94.177C165.815 94.8073 167.341 93.8648 167.365 92.4072L167.659 74.9635C167.682 73.6032 169.027 72.6622 170.312 73.1071L177.084 75.4501" stroke="#EA5F88" stroke-width="6" stroke-linecap="round" stroke-linejoin="round"/>
<circle cx="185.78" cy="78.5123" r="3" transform="rotate(-30 185.78 78.5123)" fill="#EA5F88"/>
<path d="M79.8643 53.0604L82.8556 52.9879C84.895 52.9384 86.7695 51.8561 87.832 50.1148L89.3905 47.5604L89.5792 50.704C89.6924 52.5891 90.6865 54.311 92.2625 55.3515L94.8905 57.0867L91.8992 57.1593C89.8598 57.2087 87.9853 58.291 86.9228 60.0324L85.3643 62.5867L85.1756 59.4432C85.0624 57.558 84.0683 55.8362 82.4923 54.7956L79.8643 53.0604Z" fill="#F6C169"/>
<path d="M176.891 105.642L178.373 108.242C179.383 110.014 181.224 111.152 183.261 111.263L186.249 111.425L183.57 113.08C181.963 114.073 180.918 115.765 180.749 117.646L180.466 120.782L178.985 118.182C177.975 116.41 176.134 115.272 174.097 115.162L171.109 115L173.787 113.344C175.394 112.351 176.439 110.659 176.609 108.779L176.891 105.642Z" fill="#0471FF"/>
</svg>
