<svg xmlns="http://www.w3.org/2000/svg" viewBox="0 0 8515 9528">
  <defs>
    <style>
      .a, .c, .e, .k {
        fill: #fff;
      }

      .b {
        fill: #15192d;
      }

      .c {
        stroke: #eaeced;
      }

      .c, .h {
        stroke-width: 1.46px;
      }

      .d, .h, .q {
        fill: none;
      }

      .d, .e, .h {
        stroke: #adbacc;
      }

      .d, .e {
        stroke-opacity: 0.2;
        stroke-width: 2.91px;
      }

      .f {
        fill: #4d394b;
        fill-opacity: 0.07;
      }

      .g {
        fill: #f7f9fe;
      }

      .h {
        stroke-opacity: 0.4;
      }

      .i, .m, .n {
        fill: #506677;
      }

      .i {
        fill-opacity: 0.15;
      }

      .j {
        fill: #0477fe;
      }

      .k {
        fill-opacity: 0.5;
        opacity: 0.5;
        isolation: isolate;
      }

      .l {
        fill: #e5e8eb;
      }

      .n {
        fill-opacity: 0.7;
      }

      .o {
        fill: #0496ff;
      }

      .p {
        fill: #ff0076;
      }

      .q {
        stroke: #929fa5;
        stroke-miterlimit: 10;
        stroke-width: 15px;
      }
    </style>
  </defs>
  <title>icon</title>
  <path class="a" d="M4848.5,8090h-200V7990h0V7890h200v100h0Z" transform="translate(0 93)"/>
  <rect class="b" x="4476" y="8808" width="1233" height="720"/>
  <g>
    <path class="c" d="M4734.83,8950.53h750.74a10.27,10.27,0,0,1,6.05,1.83,5.22,5.22,0,0,1,2.38,4.16v440.67a5.25,5.25,0,0,1-2.38,4.17,10.34,10.34,0,0,1-6.05,1.82H4734.83a10.34,10.34,0,0,1-6.05-1.82,5.25,5.25,0,0,1-2.38-4.17V8956.52a5.22,5.22,0,0,1,2.38-4.16A10.27,10.27,0,0,1,4734.83,8950.53Z" transform="translate(0 93)"/>
    <path class="d" d="M5485.57,8951.63H4734.83c-4.05,0-7.33,2.4-7.33,5.36v439.73c0,3,3.28,5.36,7.33,5.36h750.74c4.05,0,7.33-2.4,7.33-5.36V8957C5492.9,8954,5489.62,8951.63,5485.57,8951.63Z" transform="translate(0 93)"/>
    <path class="e" d="M5476.62,9002.9H4934.21c-2.92,0-5.29,2-5.29,4.38v359.29c0,2.42,2.37,4.38,5.29,4.38h542.41c2.92,0,5.29-2,5.29-4.38V9007.28C5481.91,9004.86,5479.54,9002.9,5476.62,9002.9Z" transform="translate(0 93)"/>
    <path class="f" d="M4908.78,8960.79H4744c-4,0-7.32,2.33-7.32,5.22v416.2c0,2.88,3.28,5.22,7.32,5.22h164.8c4,0,7.32-2.34,7.32-5.22V8966C4916.1,8963.12,4912.82,8960.79,4908.78,8960.79Z" transform="translate(0 93)"/>
    <path class="g" d="M4908.78,8962.62H4744c-3,0-5.49,1.75-5.49,3.91v415.15c0,2.17,2.46,3.92,5.49,3.92h164.8c3,0,5.49-1.75,5.49-3.92V8966.53C4914.27,8964.37,4911.81,8962.62,4908.78,8962.62Z" transform="translate(0 93)"/>
    <rect class="a" x="4941.74" y="9143.51" width="87.89" height="25.64" rx="1.46" ry="1.46"/>
    <rect class="h" x="4942.47" y="9144.24" width="86.44" height="24.18" rx="0.73" ry="0.73"/>
    <path class="i" d="M5006.46,9061.5h-41.27a1.47,1.47,0,0,0-1.48,1.47v1.48a1.48,1.48,0,0,0,1.48,1.48h41.27a1.47,1.47,0,0,0,1.47-1.48V9063A1.47,1.47,0,0,0,5006.46,9061.5Z" transform="translate(0 93)"/>
    <rect class="a" x="5035.12" y="9143.51" width="31.13" height="25.64" rx="1.46" ry="1.46"/>
    <rect class="h" x="5035.85" y="9144.24" width="29.67" height="24.18" rx="0.73" ry="0.73"/>
    <path class="i" d="M5058.38,9061.5H5043c-.3,0-.55.54-.55,1.22v1.22c0,.67.25,1.22.55,1.22h15.38c.3,0,.55-.55.55-1.22v-1.22C5058.93,9062,5058.68,9061.5,5058.38,9061.5Z" transform="translate(0 93)"/>
    <path class="j" d="M5466.78,9013.89H5361.54c-1.28,0-2.31,1.35-2.31,3v19.61c0,1.66,1,3,2.31,3h105.24c1.28,0,2.31-1.35,2.31-3V9016.9C5469.09,9015.24,5468.06,9013.89,5466.78,9013.89Z" transform="translate(0 93)"/>
    <path class="k" d="M5431.31,9024.88h-32.47a1.19,1.19,0,0,0-1.16,1.22v1.22a1.19,1.19,0,0,0,1.16,1.22h32.47a1.19,1.19,0,0,0,1.16-1.22v-1.22A1.19,1.19,0,0,0,5431.31,9024.88Z" transform="translate(0 93)"/>
    <rect class="l" x="4980.19" y="9181.96" width="49.44" height="9.16" rx="1.46" ry="1.46"/>
    <rect class="a" x="4941.74" y="9181.96" width="9.16" height="9.16" rx="1.46" ry="1.46"/>
    <rect class="h" x="4942.47" y="9182.69" width="7.7" height="7.7" rx="0.73" ry="0.73"/>
    <rect class="i" x="5132.17" y="9436.49" width="38.45" height="9.16" rx="1.46" ry="1.46"/>
    <rect class="a" x="5174.29" y="9430.99" width="20.14" height="18.31" rx="1.46" ry="1.46"/>
    <rect class="h" x="5175.02" y="9431.72" width="18.69" height="16.85" rx="0.73" ry="0.73"/>
    <path class="i" d="M5186.92,9345.32h-5.13c-.1,0-.18.54-.18,1.22v1.22c0,.67.08,1.22.18,1.22h5.13c.1,0,.18-.55.18-1.22v-1.22C5187.1,9345.86,5187,9345.32,5186.92,9345.32Z" transform="translate(0 93)"/>
    <rect class="i" x="5199.92" y="9438.32" width="38.45" height="5.49" rx="1.46" ry="1.46"/>
    <rect class="a" x="5245.7" y="9430.99" width="20.14" height="18.31" rx="1.46" ry="1.46"/>
    <rect class="h" x="5246.43" y="9431.72" width="18.69" height="16.85" rx="0.73" ry="0.73"/>
    <path class="i" d="M5258.33,9345.32h-5.12c-.1,0-.19.54-.19,1.22v1.22c0,.67.09,1.22.19,1.22h5.12c.11,0,.19-.55.19-1.22v-1.22C5258.52,9345.86,5258.44,9345.32,5258.33,9345.32Z" transform="translate(0 93)"/>
    <rect class="i" x="4941.74" y="9211.26" width="21.97" height="5.49" rx="1.46" ry="1.46"/>
    <rect class="i" x="4980.19" y="9211.26" width="148.32" height="5.49" rx="1.46" ry="1.46"/>
    <rect class="i" x="5174.29" y="9211.26" width="76.91" height="5.49" rx="1.46" ry="1.46"/>
    <rect class="i" x="5296.97" y="9211.26" width="76.91" height="5.49" rx="1.46" ry="1.46"/>
    <rect class="i" x="5419.65" y="9211.26" width="49.44" height="5.49" rx="1.46" ry="1.46"/>
    <rect class="i" x="4941.74" y="9240.56" width="21.97" height="5.49" rx="1.46" ry="1.46"/>
    <rect class="i" x="4980.19" y="9240.56" width="148.32" height="5.49" rx="1.46" ry="1.46"/>
    <rect class="i" x="5174.29" y="9240.56" width="76.91" height="5.49" rx="1.46" ry="1.46"/>
    <rect class="i" x="5296.97" y="9240.56" width="76.91" height="5.49" rx="1.46" ry="1.46"/>
    <rect class="i" x="5419.65" y="9240.56" width="49.44" height="5.49" rx="1.46" ry="1.46"/>
    <rect class="i" x="4941.74" y="9269.86" width="21.97" height="5.49" rx="1.46" ry="1.46"/>
    <rect class="i" x="4980.19" y="9269.86" width="148.32" height="5.49" rx="1.46" ry="1.46"/>
    <rect class="i" x="5174.29" y="9269.86" width="76.91" height="5.49" rx="1.46" ry="1.46"/>
    <rect class="i" x="5296.97" y="9269.86" width="76.91" height="5.49" rx="1.46" ry="1.46"/>
    <rect class="i" x="5419.65" y="9269.86" width="49.44" height="5.49" rx="1.46" ry="1.46"/>
    <rect class="i" x="4941.74" y="9299.15" width="21.97" height="5.49" rx="1.46" ry="1.46"/>
    <rect class="i" x="4980.19" y="9299.15" width="148.32" height="5.49" rx="1.46" ry="1.46"/>
    <rect class="i" x="5174.29" y="9299.15" width="76.91" height="5.49" rx="1.46" ry="1.46"/>
    <rect class="i" x="5296.97" y="9299.15" width="76.91" height="5.49" rx="1.46" ry="1.46"/>
    <rect class="i" x="5419.65" y="9299.15" width="49.44" height="5.49" rx="1.46" ry="1.46"/>
    <rect class="i" x="4941.74" y="9328.45" width="21.97" height="5.49" rx="1.46" ry="1.46"/>
    <rect class="i" x="4980.19" y="9328.45" width="148.32" height="5.49" rx="1.46" ry="1.46"/>
    <rect class="i" x="5174.29" y="9328.45" width="76.91" height="5.49" rx="1.46" ry="1.46"/>
    <rect class="i" x="5296.97" y="9328.45" width="76.91" height="5.49" rx="1.46" ry="1.46"/>
    <rect class="i" x="5419.65" y="9328.45" width="49.44" height="5.49" rx="1.46" ry="1.46"/>
    <rect class="i" x="4941.74" y="9357.75" width="21.97" height="5.49" rx="1.46" ry="1.46"/>
    <rect class="i" x="4980.19" y="9357.75" width="148.32" height="5.49" rx="1.46" ry="1.46"/>
    <rect class="i" x="5174.29" y="9357.75" width="76.91" height="5.49" rx="1.46" ry="1.46"/>
    <rect class="i" x="5296.97" y="9357.75" width="76.91" height="5.49" rx="1.46" ry="1.46"/>
    <rect class="i" x="5419.65" y="9357.75" width="49.44" height="5.49" rx="1.46" ry="1.46"/>
    <rect class="i" x="4941.74" y="9387.05" width="21.97" height="5.49" rx="1.46" ry="1.46"/>
    <rect class="i" x="4980.19" y="9387.05" width="148.32" height="5.49" rx="1.46" ry="1.46"/>
    <rect class="i" x="5174.29" y="9387.05" width="76.91" height="5.49" rx="1.46" ry="1.46"/>
    <rect class="i" x="5296.97" y="9387.05" width="76.91" height="5.49" rx="1.46" ry="1.46"/>
    <rect class="i" x="5419.65" y="9387.05" width="49.44" height="5.49" rx="1.46" ry="1.46"/>
    <rect class="l" x="5174.29" y="9181.96" width="49.44" height="9.16" rx="1.46" ry="1.46"/>
    <rect class="l" x="5296.97" y="9181.96" width="49.44" height="9.16" rx="1.46" ry="1.46"/>
    <rect class="l" x="5419.65" y="9181.96" width="49.44" height="9.16" rx="1.46" ry="1.46"/>
    <path class="m" d="M4946.39,9020.08v11.29h2v-3.73h2.29a3.66,3.66,0,0,0,3.89-3.78,3.61,3.61,0,0,0-3.81-3.78Zm2,1.65h1.84a2.15,2.15,0,1,1,0,4.28h-1.83Zm9.29,9.77a3,3,0,0,0,2.58-1.45h0v1.32h1.88v-5.71c0-1.67-1.34-2.76-3.4-2.76s-3.43,1.11-3.52,2.66h1.81a1.46,1.46,0,0,1,1.63-1.13c1,0,1.55.5,1.55,1.37v.59l-2.19.13c-2,.12-3.15,1-3.15,2.48A2.53,2.53,0,0,0,4957.7,9031.5Zm.59-1.47c-.85,0-1.41-.43-1.41-1.11s.54-1.08,1.48-1.14l1.91-.12v.63A1.84,1.84,0,0,1,4958.29,9030Zm9.13,4.47c2.42,0,4-1.29,4-3.27v-8.16h-1.91v1.43h0a2.83,2.83,0,0,0-2.61-1.57c-2.12,0-3.45,1.64-3.45,4.26s1.36,4.19,3.41,4.19a2.8,2.8,0,0,0,2.59-1.49h0v1.4a1.75,1.75,0,0,1-2,1.77,1.82,1.82,0,0,1-1.85-1.07h-1.93C4963.9,9033.45,4965.37,9034.5,4967.42,9034.5Zm0-4.67c-1.23,0-2-1-2-2.63s.78-2.66,2-2.66,2,1,2,2.66S4968.68,9029.83,4967.43,9029.83Zm11.08-.94a1.77,1.77,0,0,1-1.81,1.14,2,2,0,0,1-2.09-2.22v-.12h5.8v-.63c0-2.52-1.47-4.16-3.83-4.16s-3.91,1.73-3.91,4.35,1.5,4.28,4,4.28c2,0,3.42-1.08,3.67-2.64Zm-1.92-4.48a1.9,1.9,0,0,1,1.91,2h-3.87A2,2,0,0,1,4976.59,9024.41Zm4.93,1c0,1.23.8,2,2.39,2.37l1.37.3c.87.2,1.17.48,1.17,1s-.59,1-1.53,1-1.55-.41-1.69-1.22h-1.92c.16,1.61,1.44,2.64,3.61,2.64s3.47-1.05,3.47-2.62c0-1.2-.66-1.87-2.39-2.25l-1.37-.31c-.87-.19-1.22-.52-1.22-1s.57-1,1.44-1a1.37,1.37,0,0,1,1.53,1.23h1.81c0-1.57-1.33-2.66-3.34-2.66S4981.52,9023.94,4981.52,9025.45Z" transform="translate(0 93)"/>
    <rect class="i" x="4749.47" y="9145.34" width="9.16" height="9.16" rx="1.46" ry="1.46"/>
    <path class="i" d="M4831,9116.43H4765c-1.52,0-2.75.82-2.75,1.83v1.83c0,1,1.23,1.83,2.75,1.83H4831c1.51,0,2.74-.82,2.74-1.83v-1.83C4833.7,9117.25,4832.47,9116.43,4831,9116.43Z" transform="translate(0 93)"/>
    <rect class="i" x="4749.47" y="9207.6" width="9.16" height="9.16" rx="1.46" ry="1.46"/>
    <rect class="i" x="4749.47" y="9255.21" width="9.16" height="9.16" rx="1.46" ry="1.46"/>
    <rect class="i" x="4749.47" y="9279.01" width="9.16" height="9.16" rx="1.46" ry="1.46"/>
    <path class="n" d="M4792.5,9140.23H4765c-1.52,0-2.75.82-2.75,1.83v1.84c0,1,1.23,1.83,2.75,1.83h27.46c1.52,0,2.75-.82,2.75-1.83v-1.84C4795.25,9141.05,4794,9140.23,4792.5,9140.23Z" transform="translate(0 93)"/>
    <rect class="n" x="4749.47" y="9231.4" width="9.16" height="9.16" rx="1.46" ry="1.46"/>
    <path class="i" d="M4785.08,9164h-19.94c-1.57,0-2.85.82-2.85,1.83v1.83c0,1,1.28,1.83,2.85,1.83h19.94c1.57,0,2.85-.82,2.85-1.83v-1.83C4787.93,9164.86,4786.65,9164,4785.08,9164Z" transform="translate(0 93)"/>
    <path class="i" d="M4812.6,9187.84h-47.51c-1.55,0-2.8.82-2.8,1.83v1.83c0,1,1.25,1.84,2.8,1.84h47.51c1.54,0,2.79-.82,2.79-1.84v-1.83C4815.39,9188.66,4814.14,9187.84,4812.6,9187.84Z" transform="translate(0 93)"/>
    <path class="i" d="M4814.48,9054.17H4765c-1.52,0-2.75.82-2.75,1.83v1.83c0,1,1.23,1.84,2.75,1.84h49.44c1.51,0,2.74-.82,2.74-1.84V9056C4817.22,9055,4816,9054.17,4814.48,9054.17Z" transform="translate(0 93)"/>
    <path class="i" d="M4815.39,9026.71h-62.25a1.83,1.83,0,0,0-1.83,1.83V9034a1.83,1.83,0,0,0,1.83,1.83h62.25a1.83,1.83,0,0,0,1.83-1.83v-5.49A1.83,1.83,0,0,0,4815.39,9026.71Z" transform="translate(0 93)"/>
    <path class="i" d="M4859.34,9087.13h-106.2a1.83,1.83,0,0,0-1.83,1.83v5.5a1.83,1.83,0,0,0,1.83,1.83h106.2a1.83,1.83,0,0,0,1.83-1.83V9089A1.83,1.83,0,0,0,4859.34,9087.13Z" transform="translate(0 93)"/>
    <rect class="i" x="5397.68" y="9064.77" width="53.1" height="9.16" rx="1.46" ry="1.46"/>
    <path class="i" d="M5469.09,8988.25h0a11,11,0,0,1-11-11h0a11,11,0,0,1,11-11h0a11,11,0,0,1,11,11h0A11,11,0,0,1,5469.09,8988.25Z" transform="translate(0 93)"/>
    <rect class="i" x="4780.6" y="9075.76" width="53.1" height="9.16" rx="1.46" ry="1.46"/>
    <rect class="j" x="4751.31" y="9068.44" width="21.97" height="21.97" rx="1.46" ry="1.46"/>
    <path class="g" d="M4766.28,8991.92h-4.76a1.12,1.12,0,0,1-.44-.09,1.39,1.39,0,0,1-.38-.25l-3.62-3.63a.84.84,0,0,1-.26-.49.94.94,0,0,1,.05-.55,1,1,0,0,1,.35-.43,1,1,0,0,1,.53-.16h4.44v-4.44a1,1,0,0,1,.16-.53,1,1,0,0,1,.43-.35,1,1,0,0,1,.55,0,.84.84,0,0,1,.49.26l3.63,3.62a1.39,1.39,0,0,1,.25.38,1.12,1.12,0,0,1,.09.44v4.76a1.51,1.51,0,0,1-.45,1.06A1.47,1.47,0,0,1,4766.28,8991.92Zm-4.56-1.64h4.43v-4.43l-2.32-2.33V8988h-4.44Z" transform="translate(0 93)"/>
  </g>
  <g>
    <path class="m" d="M1139.14,6277.49h79.22l-34,213.8a138.25,138.25,0,0,0-1.53,18.79,86.71,86.71,0,0,0,1.53,17.77H1110.7s-2-6.09-2-17.77c0-4.07,0-9.15.51-14.73h-.51c-21.33,24.37-52.81,38.09-85.31,38.09-61.36-5.24-87.67-48.68-87.67-108.1,0-77.19,42.47-150.54,128.8-150.54,26.41,0,56.88,7.26,70.59,31.64C1136.09,6296.79,1137.62,6287.14,1139.14,6277.49Zm-67.25,59.92c-41.64,0-67,39.61-67,78.21,0,28.95,16.76,50.27,46.72,50.27,41.64,0,67-39.61,67-78.2C1118.61,6358.74,1101.85,6337.41,1071.89,6337.41Z" transform="translate(0 93)"/>
    <path class="m" d="M1412.29,6362.3c-12.7-16.76-35.55-24.38-55.86-24.38-41.64,0-70.59,37.07-70.59,77.19,0,32,20.82,50.78,52.31,50.78,21.83,0,48.24-9.14,65.51-22.85l7.11,62c-24.38,19.8-66,28.44-96,28.44-63.48,0-109.19-42.15-109.19-106.14,0-85.32,64.5-154.38,151.34-154.38,24.88,0,50.14,2.33,68.42,21.62Z" transform="translate(0 93)"/>
    <path class="m" d="M1552.51,6277.49h53.84L1595.68,6340h-53.32c-5.59,34-15.75,71.61-15.75,106.14,0,14.73,7.11,19.3,20.83,19.3a67.11,67.11,0,0,0,24.37-4.57l-6.09,64.49c-18.79,4.57-37.58,8.13-57.39,8.13-40.12,0-64-18.29-64-59.93,0-44.18,12.18-90.9,18.79-133.56h-34l10.16-62.46h34l5.08-31.49a145.88,145.88,0,0,0,1-20.31,105.21,105.21,0,0,0-1-15.74h78.71s1.53,5.59,1.53,16.76a139.71,139.71,0,0,1-2,22.85Z" transform="translate(0 93)"/>
    <path class="m" d="M1693.25,6533.44c-65,0-115.28-37.08-115.28-105.63,0-88.37,66.53-154.89,156.41-154.89,65.51,0,115.28,37.58,115.28,106.14C1849.66,6467.42,1783.64,6533.44,1693.25,6533.44Zm31-195.52c-41.64,0-65.5,40.63-65.5,78.21,0,28.44,15.23,49.76,45.19,49.76,41.65,0,65.51-40.62,65.51-78.2C1769.42,6359.25,1754.19,6337.92,1724.22,6337.92Z" transform="translate(0 93)"/>
    <path class="m" d="M2024.65,6352.65h-4.06c-8.13-4.57-18.29-6.1-27.43-6.1-38.59,0-53.83,38.09-58.4,70.08L1917,6527.85h-79.22l33.51-213.29a167.41,167.41,0,0,0,1.53-21.33,105.21,105.21,0,0,0-1-15.74h78.71s1.53,5.59,1.53,16.76a85,85,0,0,1-2,18.79c14.72-23.36,37.58-40.12,66.52-40.12,7.11,0,17.78,1,23.87,4.57Z" transform="translate(0 93)"/>
    <path class="m" d="M945.35,6164.27c-74.32,7.08-94.65,50.25-104.81,113.22h-31L799.91,6340h31l-31,193.05h79.23l31-193.05H950L962,6277l-42.24.46c4.06-23.87,7.6-36.28,30.58-47.27,10.38-5,11.66-6.22,33.91-5l12.21-58C980.21,6162.2,966.33,6162.27,945.35,6164.27Z" transform="translate(0 93)"/>
  </g>
  <path class="o" d="M667.67,6547h-190A45.81,45.81,0,0,1,445,6533.47L300.19,6388.65a38.13,38.13,0,0,1,26.95-65.09H504.55V6146.13A38,38,0,0,1,528.07,6111a38.54,38.54,0,0,1,41.56,8.23L714.49,6264A46,46,0,0,1,728,6296.69v190A60.39,60.39,0,0,1,667.67,6547Zm-182.09-65.27H662.73V6304.59l-92.9-92.9v177.14H392.69Z" transform="translate(0 93)"/>
  <g>
    <path class="m" d="M1061.38,4945.4h56.73l-24.37,153.1a99,99,0,0,0-1.09,13.45,62.47,62.47,0,0,0,1.09,12.73H1041s-1.45-4.36-1.45-12.73c0-2.91,0-6.54.36-10.54h-.36c-15.28,17.45-37.82,27.27-61.1,27.27-43.93-3.75-62.78-34.86-62.78-77.41,0-55.27,30.42-107.79,92.24-107.79,18.91,0,40.73,5.19,50.55,22.65C1059.19,4959.22,1060.29,4952.31,1061.38,4945.4Zm-48.16,42.91c-29.82,0-48,28.37-48,56,0,20.73,12,36,33.45,36,29.82,0,48-28.36,48-56C1046.68,5003.58,1034.68,4988.31,1013.22,4988.31Z" transform="translate(0 93)"/>
    <path class="m" d="M1257,5006.13c-9.1-12-25.46-17.46-40-17.46-29.81,0-50.54,26.55-50.54,55.28,0,22.91,14.91,36.36,37.45,36.36,15.64,0,34.55-6.54,46.91-16.36l5.1,44.37c-17.46,14.18-47.28,20.36-68.73,20.36-45.46,0-78.19-30.18-78.19-76,0-61.1,46.18-110.55,108.37-110.55,17.82,0,35.9,1.66,49,15.48Z" transform="translate(0 93)"/>
    <path class="m" d="M1357.39,4945.4h38.55l-7.64,44.73h-38.18c-4,24.36-11.27,51.27-11.27,76,0,10.55,5.09,13.82,14.9,13.82a48,48,0,0,0,17.46-3.27l-4.36,46.18c-13.46,3.27-26.91,5.82-41.1,5.82-28.73,0-45.82-13.09-45.82-42.91,0-31.64,8.73-65.09,13.46-95.64H1269l7.28-44.73h24.36l3.64-22.55a104.53,104.53,0,0,0,.73-14.54,75.59,75.59,0,0,0-.73-11.28h56.36s1.09,4,1.09,12a99.86,99.86,0,0,1-1.45,16.37Z" transform="translate(0 93)"/>
    <path class="m" d="M1458.17,5128.68c-46.55,0-82.55-26.55-82.55-75.64,0-63.27,47.64-110.91,112-110.91,46.91,0,82.55,26.91,82.55,76C1570.18,5081.41,1522.9,5128.68,1458.17,5128.68Zm22.18-140c-29.82,0-46.91,29.1-46.91,56,0,20.36,10.91,35.63,32.37,35.63,29.82,0,46.91-29.09,46.91-56C1512.72,5004,1501.81,4988.67,1480.35,4988.67Z" transform="translate(0 93)"/>
    <path class="m" d="M1695.48,4999.22h-2.9c-5.82-3.27-13.1-4.36-19.64-4.36-27.64,0-38.55,27.27-41.82,50.18l-12.73,79.64h-56.73l24-152.73a120,120,0,0,0,1.09-15.28,75.35,75.35,0,0,0-.73-11.27h56.37s1.09,4,1.09,12a60.81,60.81,0,0,1-1.45,13.46c10.54-16.73,26.91-28.73,47.63-28.73,5.1,0,12.73.72,17.1,3.27Z" transform="translate(0 93)"/>
    <path class="m" d="M922.6,4864.32c-53.22,5.07-67.78,36-75.05,81.08H825.37l-6.91,44.73h22.18l-22.22,138.24h56.74l22.21-138.24H925.9l8.63-45.06-30.25.33c2.91-17.09,5.44-26,21.9-33.85,7.43-3.55,8.35-4.45,24.28-3.55l8.74-41.53C947.57,4862.84,937.63,4862.89,922.6,4864.32Z" transform="translate(0 93)"/>
  </g>
  <path class="o" d="M723.76,5138.39H587.69a32.81,32.81,0,0,1-23.39-9.69L460.61,5025a27.3,27.3,0,0,1,19.29-46.61H607V4851.33a27.22,27.22,0,0,1,16.84-25.19,27.61,27.61,0,0,1,29.76,5.89l103.74,103.73a33,33,0,0,1,9.67,23.39V5095.2A43.24,43.24,0,0,1,723.76,5138.39Zm-130.39-46.73H720.22V4964.81l-66.52-66.53v126.85H526.85Z" transform="translate(0 93)"/>
  <rect class="b" y="4744.66" width="8515" height="702.69"/>
  <g>
    <g>
      <path class="a" d="M1106.41,4932h56.73l-24.36,153.09a99,99,0,0,0-1.09,13.46,62.47,62.47,0,0,0,1.09,12.73h-52.73s-1.46-4.37-1.46-12.73c0-2.91,0-6.55.37-10.55h-.37c-15.27,17.46-37.81,27.28-61.09,27.28-43.94-3.75-62.78-34.86-62.78-77.41,0-55.27,30.42-107.8,92.24-107.8,18.91,0,40.73,5.2,50.54,22.65C1104.23,4945.82,1105.32,4938.92,1106.41,4932Zm-48.15,42.91c-29.82,0-48,28.36-48,56,0,20.73,12,36,33.45,36,29.82,0,48-28.36,48-56C1091.71,4990.19,1079.71,4974.92,1058.26,4974.92Z" transform="translate(0 93)"/>
      <path class="a" d="M1302,4992.74c-9.09-12-25.45-17.46-40-17.46-29.82,0-50.55,26.55-50.55,55.28,0,22.91,14.91,36.36,37.46,36.36,15.64,0,34.55-6.55,46.91-16.36l5.09,44.36c-17.45,14.18-47.27,20.37-68.73,20.37-45.45,0-78.18-30.19-78.18-76,0-61.09,46.18-110.55,108.37-110.55,17.82,0,35.9,1.67,49,15.49Z" transform="translate(0 93)"/>
      <path class="a" d="M1402.43,4932H1441l-7.64,44.72h-38.18c-4,24.37-11.28,51.28-11.28,76,0,10.54,5.09,13.82,14.91,13.82a47.83,47.83,0,0,0,17.46-3.28l-4.37,46.19c-13.45,3.27-26.91,5.82-41.09,5.82-28.73,0-45.82-13.1-45.82-42.92,0-31.63,8.73-65.09,13.46-95.64h-24.37l7.28-44.72h24.36l3.64-22.55a106.11,106.11,0,0,0,.72-14.55,76.38,76.38,0,0,0-.72-11.27h56.36s1.09,4,1.09,12a99.75,99.75,0,0,1-1.45,16.36Z" transform="translate(0 93)"/>
      <path class="a" d="M1503.21,5115.29c-46.55,0-82.55-26.55-82.55-75.64,0-63.28,47.64-110.92,112-110.92,46.92,0,82.55,26.91,82.55,76C1615.21,5068,1567.94,5115.29,1503.21,5115.29Zm22.18-140c-29.82,0-46.91,29.09-46.91,56,0,20.37,10.91,35.64,32.37,35.64,29.82,0,46.91-29.09,46.91-56C1557.76,4990.55,1546.85,4975.28,1525.39,4975.28Z" transform="translate(0 93)"/>
      <path class="a" d="M1740.52,4985.83h-2.91c-5.81-3.28-13.09-4.37-19.63-4.37-27.64,0-38.55,27.28-41.82,50.19l-12.73,79.64H1606.7l24-152.74a119.83,119.83,0,0,0,1.09-15.27,75.35,75.35,0,0,0-.73-11.27h56.37s1.09,4,1.09,12a60.77,60.77,0,0,1-1.46,13.45c10.55-16.73,26.92-28.73,47.64-28.73,5.09,0,12.73.73,17.1,3.28Z" transform="translate(0 93)"/>
      <path class="a" d="M967.64,4850.93c-53.22,5.07-67.78,36-75,81.08H870.4l-6.91,44.72h22.19L863.46,5115H920.2l22.21-138.24h28.53l8.62-45-30.24.33c2.91-17.1,5.44-26,21.9-33.85,7.43-3.56,8.35-4.46,24.28-3.55l8.74-41.53C992.6,4849.44,982.67,4849.5,967.64,4850.93Z" transform="translate(0 93)"/>
    </g>
    <path class="p" d="M768.8,5125H632.72a32.83,32.83,0,0,1-23.38-9.69l-103.69-103.7A27.3,27.3,0,0,1,524.94,4965H652V4837.94a27.21,27.21,0,0,1,16.84-25.19,27.58,27.58,0,0,1,29.76,5.89l103.73,103.73a32.92,32.92,0,0,1,9.68,23.38V5081.8A43.25,43.25,0,0,1,768.8,5125Zm-130.39-46.74H765.26V4951.41l-66.52-66.53v126.86H571.89Z" transform="translate(0 93)"/>
  </g>
  <g>
    <g>
      <path class="a" d="M5093.62,8810.71h14.19l-6.09,38.31a25,25,0,0,0-.27,3.36,15.77,15.77,0,0,0,.27,3.19h-13.19a10.91,10.91,0,0,1-.37-3.19c0-.72,0-1.63.09-2.63h-.09a20.36,20.36,0,0,1-15.28,6.82c-11-.94-15.71-8.72-15.71-19.37,0-13.83,7.61-27,23.08-27,4.73,0,10.19,1.3,12.64,5.67C5093.07,8814.17,5093.35,8812.44,5093.62,8810.71Zm-12.05,10.74c-7.46,0-12,7.1-12,14,0,5.19,3,9,8.37,9,7.46,0,12-7.1,12-14C5089.94,8825.27,5086.94,8821.45,5081.57,8821.45Z" transform="translate(0 93)"/>
      <path class="a" d="M5142.56,8825.91c-2.27-3-6.37-4.37-10-4.37-7.46,0-12.65,6.64-12.65,13.83,0,5.73,3.74,9.1,9.38,9.1a20.34,20.34,0,0,0,11.73-4.1l1.28,11.1c-4.37,3.55-11.83,5.1-17.2,5.1-11.37,0-19.56-7.55-19.56-19,0-15.28,11.55-27.66,27.11-27.66,4.46,0,9,.42,12.26,3.88Z" transform="translate(0 93)"/>
      <path class="a" d="M5167.68,8810.71h9.65l-1.91,11.19h-9.55c-1,6.1-2.83,12.83-2.83,19,0,2.64,1.28,3.46,3.74,3.46a12.09,12.09,0,0,0,4.36-.82l-1.09,11.55a43.08,43.08,0,0,1-10.28,1.46c-7.19,0-11.47-3.28-11.47-10.74,0-7.91,2.19-16.28,3.37-23.93h-6.1l1.82-11.19h6.1l.91-5.64a26.54,26.54,0,0,0,.18-3.64,19.11,19.11,0,0,0-.18-2.82h14.1a12.34,12.34,0,0,1,.28,3,24.4,24.4,0,0,1-.37,4.1Z" transform="translate(0 93)"/>
      <path class="a" d="M5192.9,8856.57c-11.65,0-20.65-6.64-20.65-18.93,0-15.83,11.92-27.75,28-27.75,11.74,0,20.65,6.74,20.65,19C5220.92,8844.74,5209.1,8856.57,5192.9,8856.57Zm5.55-35c-7.46,0-11.74,7.28-11.74,14,0,5.1,2.73,8.92,8.1,8.92,7.46,0,11.74-7.28,11.74-14C5206.55,8825.36,5203.82,8821.54,5198.45,8821.54Z" transform="translate(0 93)"/>
      <path class="a" d="M5252.28,8824.18h-.73a10.23,10.23,0,0,0-4.91-1.09c-6.92,0-9.65,6.82-10.47,12.55l-3.18,19.93h-14.2l6-38.22a30.39,30.39,0,0,0,.27-3.82,19.11,19.11,0,0,0-.18-2.82H5239a12.34,12.34,0,0,1,.28,3,15.42,15.42,0,0,1-.37,3.37c2.64-4.18,6.74-7.19,11.92-7.19a9.65,9.65,0,0,1,4.28.82Z" transform="translate(0 93)"/>
      <path class="a" d="M5058.9,8790.43c-13.32,1.26-17,9-18.78,20.28h-5.55l-1.73,11.19h5.55l-5.56,34.59H5047l5.56-34.59h7.13l2.16-11.27-7.57.08c.73-4.27,1.37-6.5,5.48-8.47,1.86-.89,2.09-1.11,6.08-.89l2.19-10.39C5065.14,8790.05,5062.66,8790.07,5058.9,8790.43Z" transform="translate(0 93)"/>
    </g>
    <path class="p" d="M5009.15,8859h-34a8.22,8.22,0,0,1-5.85-2.42l-25.94-26a6.83,6.83,0,0,1,4.82-11.66h31.79v-31.79a6.82,6.82,0,0,1,4.21-6.31,6.92,6.92,0,0,1,7.45,1.48l26,25.95a8.26,8.26,0,0,1,2.42,5.85v34A10.82,10.82,0,0,1,5009.15,8859Zm-32.63-11.69h31.74v-31.74l-16.64-16.65v31.74h-31.74Z" transform="translate(0 93)"/>
  </g>
  <g>
    <path class="a" d="M5606.54,4931.86v-85.7h-29.93v-17.87h81.61v17.87h-30v85.7Z" transform="translate(0 93)"/>
    <path class="a" d="M5667.45,4828.29h20.6v40.33h.43c4.09-9.69,12.49-15.14,24.19-15.14,17.08,0,26.84,11.05,26.84,28.85v49.53h-21v-45.08c0-9.9-4.88-15.93-14.43-15.93-9.9,0-15.71,7-15.71,17.08v43.93h-21Z" transform="translate(0 93)"/>
    <path class="a" d="M5821.59,4908.32c-2.3,15.07-16.08,25.19-35.1,25.19-23.69,0-37.9-15.14-37.9-39.76s14.36-40.49,37.11-40.49c22.4,0,36.54,15.15,36.54,38.55v6.39h-53.05v1.29c0,11,7,18.52,17.66,18.52,7.68,0,13.57-3.81,15.5-9.69Zm-52.18-23h32.66c-.44-9.83-6.82-16.58-16.15-16.58S5770.12,4875.73,5769.41,4885.35Z" transform="translate(0 93)"/>
    <path class="a" d="M5882.6,4893.1c0,13.28,7.83,22,21.75,22s21.68-8.68,21.68-22v-64.81h21.68v67c0,22.83-16.87,38.33-43.36,38.33s-43.42-15.5-43.42-38.33v-67h21.67Z" transform="translate(0 93)"/>
    <path class="a" d="M5961.67,4854.92h20.24v13.7h.43c4.09-9.54,12.2-15.14,24-15.14,17.09,0,26.71,10.77,26.71,28.78v49.6h-21v-45.22c0-10.05-4.74-15.79-14.14-15.79s-15.36,6.89-15.36,16.87v44.14h-21Z" transform="translate(0 93)"/>
    <path class="a" d="M6044.75,4833.74a10.91,10.91,0,1,1,10.91,10.77A10.79,10.79,0,0,1,6044.75,4833.74Zm.5,21.18h21v76.94h-21Z" transform="translate(0 93)"/>
    <path class="a" d="M6122.6,4931.86h-23.69l-26.63-76.94h22.47l16,58.42h.43l15.94-58.42H6149Z" transform="translate(0 93)"/>
    <path class="a" d="M6225,4908.32c-2.3,15.07-16.08,25.19-35.1,25.19-23.69,0-37.9-15.14-37.9-39.76s14.35-40.49,37.11-40.49c22.39,0,36.53,15.15,36.53,38.55v6.39h-53v1.29c0,11,7,18.52,17.66,18.52,7.68,0,13.56-3.81,15.5-9.69Zm-52.19-23h32.66c-.43-9.83-6.82-16.58-16.15-16.58S6173.52,4875.73,6172.8,4885.35Z" transform="translate(0 93)"/>
    <path class="a" d="M6234.93,4854.92h20.24v13.85h.43c2.73-9.76,9.26-15.08,18.3-15.08a21.36,21.36,0,0,1,6,.79v18.45a21.5,21.5,0,0,0-7.61-1.22c-10.33,0-16.36,6.32-16.36,17.16v43h-21Z" transform="translate(0 93)"/>
    <path class="a" d="M6317.87,4853.26c19.74,0,31.94,10.12,32.37,25.2h-19.31c-.64-6.25-5.31-10.48-13.06-10.48-7.25,0-12.06,3.3-12.06,8.4,0,3.94,2.87,6.6,10.62,8.25l13.14,2.8c16.08,3.37,22.68,9.69,22.68,21,0,15.14-13.85,25.12-33.66,25.12-21.25,0-33.52-9.9-34.89-25.05h20.46c1.29,6.75,6.1,10.34,14.43,10.34,7.89,0,12.77-3.23,12.77-8.26,0-4.09-2.65-6.39-10.19-8.11L6308,4899.7c-14.86-3.15-22.4-10.62-22.4-22.18C6285.64,4862.88,6298.27,4853.26,6317.87,4853.26Z" transform="translate(0 93)"/>
    <path class="a" d="M6358.17,4909.75c0-14,10.77-22.1,29.94-23.25l19.37-1.15v-5.1c0-7.18-5-11.34-12.92-11.34s-12.77,3.88-13.78,9.55h-19.16c.79-14.93,13.49-25.2,33.88-25.2,19.74,0,32.58,10.2,32.58,25.7v52.9h-20.24v-11.77h-.43c-4.3,8.18-13.85,13-23.47,13C6369.3,4933.08,6358.17,4923.61,6358.17,4909.75Zm49.31-6.1v-5.6l-16.22,1c-7.82.57-12.27,4.09-12.27,9.54,0,5.75,4.74,9.34,11.84,9.34C6400,4917.94,6407.48,4912,6407.48,4903.65Z" transform="translate(0 93)"/>
    <path class="a" d="M6440.61,4828.29h21v103.57h-21Z" transform="translate(0 93)"/>
    <path class="a" d="M6518.28,4901.35c.14,8.4,5.6,13.93,13.78,13.93,9,0,13.92-5.6,13.92-16v-71h21.68v71.13c0,22-13.21,34.52-35.39,34.52-21.17,0-35-12.77-35-32.59Z" transform="translate(0 93)"/>
    <path class="a" d="M6579.47,4909.75c0-14,10.77-22.1,29.93-23.25l19.38-1.15v-5.1c0-7.18-5-11.34-12.92-11.34s-12.78,3.88-13.78,9.55h-19.17c.79-14.93,13.5-25.2,33.88-25.2,19.74,0,32.59,10.2,32.59,25.7v52.9h-20.24v-11.77h-.43c-4.31,8.18-13.85,13-23.47,13C6590.59,4933.08,6579.47,4923.61,6579.47,4909.75Zm49.31-6.1v-5.6l-16.22,1c-7.83.57-12.28,4.09-12.28,9.54,0,5.75,4.74,9.34,11.85,9.34C6621.24,4917.94,6628.78,4912,6628.78,4903.65Z" transform="translate(0 93)"/>
    <path class="a" d="M6705.33,4931.86h-23.68L6655,4854.92h22.46l16,58.42h.43l15.93-58.42h21.9Z" transform="translate(0 93)"/>
    <path class="a" d="M6734.58,4909.75c0-14,10.77-22.1,29.93-23.25l19.38-1.15v-5.1c0-7.18-5-11.34-12.92-11.34s-12.77,3.88-13.78,9.55H6738c.79-14.93,13.49-25.2,33.88-25.2,19.74,0,32.58,10.2,32.58,25.7v52.9h-20.24v-11.77h-.43c-4.3,8.18-13.85,13-23.47,13C6745.71,4933.08,6734.58,4923.61,6734.58,4909.75Zm49.31-6.1v-5.6l-16.22,1c-7.82.57-12.27,4.09-12.27,9.54,0,5.75,4.74,9.34,11.84,9.34C6776.36,4917.94,6783.89,4912,6783.89,4903.65Z" transform="translate(0 93)"/>
    <path class="a" d="M6847.45,4853.26c19.74,0,31.94,10.12,32.38,25.2h-19.31c-.65-6.25-5.31-10.48-13.07-10.48-7.24,0-12.05,3.3-12.05,8.4,0,3.94,2.87,6.6,10.62,8.25l13.13,2.8c16.08,3.37,22.69,9.69,22.69,21,0,15.14-13.86,25.12-33.67,25.12-21.24,0-33.52-9.9-34.88-25.05h20.45c1.3,6.75,6.11,10.34,14.43,10.34,7.9,0,12.78-3.23,12.78-8.26,0-4.09-2.66-6.39-10.19-8.11l-13.14-2.73c-14.86-3.15-22.39-10.62-22.39-22.18C6815.23,4862.88,6827.86,4853.26,6847.45,4853.26Z" transform="translate(0 93)"/>
    <path class="a" d="M6941.16,4883.55c-1.22-8.11-6.6-13.85-15.22-13.85-10.33,0-16.79,8.76-16.79,23.62,0,15.14,6.46,23.75,16.87,23.75,8.39,0,13.85-5,15.14-13.42h19.52c-1.07,18.16-14.64,29.86-34.88,29.86-23.18,0-37.9-15.07-37.9-40.19,0-24.7,14.72-40.06,37.76-40.06,20.81,0,34,12.85,34.95,30.29Z" transform="translate(0 93)"/>
    <path class="a" d="M6969.33,4854.92h20.25v13.85h.43c2.72-9.76,9.26-15.08,18.3-15.08a21.42,21.42,0,0,1,6,.79v18.45a21.58,21.58,0,0,0-7.61-1.22c-10.34,0-16.37,6.32-16.37,17.16v43h-21Z" transform="translate(0 93)"/>
    <path class="a" d="M7021.2,4833.74a10.91,10.91,0,1,1,10.91,10.77A10.78,10.78,0,0,1,7021.2,4833.74Zm.5,21.18h21v76.94h-21Z" transform="translate(0 93)"/>
    <path class="a" d="M7131.55,4893.39c0,24.76-11.91,39.69-31.15,39.69-11.19,0-19.81-5.45-23.9-14.14h-.43v38h-21V4854.92h20.67v13.42h.43c4.17-9.05,12.71-14.65,23.83-14.65C7119.57,4853.69,7131.55,4868.55,7131.55,4893.39Zm-21.46,0c0-13.93-6.6-22.9-17.08-22.9-10.26,0-17,9.12-17,22.9s6.75,22.82,17,22.82C7103.49,4916.21,7110.09,4907.38,7110.09,4893.39Z" transform="translate(0 93)"/>
    <path class="a" d="M7167.41,4837.19v17.73h14.21v15.79h-14.21v36.82c0,5.88,2.87,8.68,9,8.68a33.3,33.3,0,0,0,5.1-.36v15.44a48.34,48.34,0,0,1-10,.86c-18.09,0-25.12-6-25.12-21v-40.41h-10.84v-15.79h10.84v-17.73Z" transform="translate(0 93)"/>
    <path class="a" d="M7281,4906.74h-36.39l-7.89,25.12h-22.25l36-103.57h25.48l36,103.57h-23Zm-31.72-16.22h27.06L7263,4848.1h-.5Z" transform="translate(0 93)"/>
    <path class="a" d="M7395.63,4893.39c0,24.76-11.92,39.69-31.15,39.69-11.2,0-19.81-5.45-23.9-14.14h-.44v38h-21V4854.92h20.67v13.42h.43c4.16-9.05,12.7-14.65,23.83-14.65C7383.64,4853.69,7395.63,4868.55,7395.63,4893.39Zm-21.46,0c0-13.93-6.61-22.9-17.09-22.9-10.26,0-17,9.12-17,22.9s6.75,22.82,17,22.82C7367.56,4916.21,7374.17,4907.38,7374.17,4893.39Z" transform="translate(0 93)"/>
    <path class="a" d="M7481.37,4893.39c0,24.76-11.92,39.69-31.15,39.69-11.2,0-19.81-5.45-23.91-14.14h-.43v38h-20.95V4854.92h20.67v13.42h.43c4.16-9.05,12.7-14.65,23.83-14.65C7469.38,4853.69,7481.37,4868.55,7481.37,4893.39Zm-21.46,0c0-13.93-6.61-22.9-17.09-22.9-10.26,0-17,9.12-17,22.9s6.75,22.82,17,22.82C7453.3,4916.21,7459.91,4907.38,7459.91,4893.39Z" transform="translate(0 93)"/>
    <path class="a" d="M7562.19,4828.29c21.25,0,35.89,14.14,35.89,35.45s-15.14,35.46-37,35.46h-19.38v32.66h-21.68V4828.29Zm-20.45,54h14.64c12.42,0,19.67-6.6,19.67-18.44s-7.18-18.38-19.6-18.38h-14.71Z" transform="translate(0 93)"/>
    <path class="a" d="M7608.1,4828.29h20.95v103.57H7608.1Z" transform="translate(0 93)"/>
    <path class="a" d="M7638.78,4909.75c0-14,10.77-22.1,29.93-23.25l19.38-1.15v-5.1c0-7.18-5-11.34-12.92-11.34s-12.77,3.88-13.78,9.55h-19.16c.79-14.93,13.49-25.2,33.88-25.2,19.74,0,32.58,10.2,32.58,25.7v52.9h-20.24v-11.77H7688c-4.31,8.18-13.85,13-23.47,13C7649.91,4933.08,7638.78,4923.61,7638.78,4909.75Zm49.31-6.1v-5.6l-16.22,1c-7.82.57-12.27,4.09-12.27,9.54,0,5.75,4.73,9.34,11.84,9.34C7680.56,4917.94,7688.09,4912,7688.09,4903.65Z" transform="translate(0 93)"/>
    <path class="a" d="M7747.28,4837.19v17.73h14.21v15.79h-14.21v36.82c0,5.88,2.87,8.68,9,8.68a33.39,33.39,0,0,0,5.1-.36v15.44a48.49,48.49,0,0,1-10,.86c-18.09,0-25.12-6-25.12-21v-40.41h-10.84v-15.79h10.84v-17.73Z" transform="translate(0 93)"/>
    <path class="a" d="M7777.1,4870.71h-10.48v-15.44h10.48v-5.81c0-15.07,7.11-22.11,25.34-22.11a60.17,60.17,0,0,1,10.69.94v13.85a32.33,32.33,0,0,0-5.67-.43c-6.89,0-9.9,3-9.9,8.47v5.09h15.29v15.44h-14.79v61.15h-21Z" transform="translate(0 93)"/>
    <path class="a" d="M7819.56,4893.32c0-24.91,15.07-40.06,38.11-40.06s38.12,15.08,38.12,40.06c0,25.33-14.86,40.19-38.12,40.19S7819.56,4918.58,7819.56,4893.32Zm54.91.07c0-15.29-6.61-24.12-16.8-24.12s-16.87,8.83-16.87,24.12,6.54,24.11,16.87,24.11S7874.47,4908.82,7874.47,4893.39Z" transform="translate(0 93)"/>
    <path class="a" d="M7905.08,4854.92h20.24v13.85h.43c2.73-9.76,9.26-15.08,18.31-15.08a21.28,21.28,0,0,1,5.95.79v18.45a21.48,21.48,0,0,0-7.6-1.22c-10.34,0-16.37,6.32-16.37,17.16v43h-21Z" transform="translate(0 93)"/>
    <path class="a" d="M7957.09,4854.92h20.24v13.92h.43a22.58,22.58,0,0,1,22-15.36c11.13,0,18.88,5.74,21.46,15.79h.43c3.45-9.69,12.64-15.79,23.91-15.79,15.07,0,25.19,10.34,25.19,25.84v52.54h-21v-47.3c0-8.9-4.45-13.78-12.56-13.78s-13.21,5.81-13.21,14.35v46.73h-20.17v-47.95c0-8.25-4.66-13.13-12.41-13.13-8,0-13.36,6-13.36,14.64v46.44h-20.95Z" transform="translate(0 93)"/>
    <path class="a" d="M5593.19,5078.71h-10.48v-15.44h10.48v-5.81c0-15.07,7.11-22.11,25.34-22.11a60.17,60.17,0,0,1,10.69.94v13.85a32.25,32.25,0,0,0-5.67-.43c-6.89,0-9.9,3-9.9,8.47v5.09h15.29v15.44h-14.79v61.15h-21Z" transform="translate(0 93)"/>
    <path class="a" d="M5635.65,5101.32c0-24.91,15.07-40.06,38.11-40.06s38.12,15.08,38.12,40.06c0,25.33-14.86,40.19-38.12,40.19S5635.65,5126.58,5635.65,5101.32Zm54.91.07c0-15.29-6.6-24.12-16.8-24.12s-16.87,8.83-16.87,24.12,6.54,24.11,16.87,24.11S5690.56,5116.82,5690.56,5101.39Z" transform="translate(0 93)"/>
    <path class="a" d="M5721.17,5062.92h20.24v13.85h.43c2.73-9.76,9.26-15.08,18.31-15.08a21.42,21.42,0,0,1,6,.79v18.45a21.58,21.58,0,0,0-7.61-1.22c-10.34,0-16.37,6.32-16.37,17.16v43h-21Z" transform="translate(0 93)"/>
    <path class="a" d="M5844.71,5036.29c21.24,0,35.88,14.14,35.88,35.45s-15.14,35.46-37,35.46h-19.38v32.66h-21.68V5036.29Zm-20.46,54h14.64c12.42,0,19.67-6.6,19.67-18.44s-7.18-18.38-19.6-18.38h-14.71Z" transform="translate(0 93)"/>
    <path class="a" d="M5890.11,5062.92h20.24v13.85h.43c2.72-9.76,9.26-15.08,18.3-15.08a21.42,21.42,0,0,1,6,.79v18.45a21.58,21.58,0,0,0-7.61-1.22c-10.34,0-16.37,6.32-16.37,17.16v43h-21Z" transform="translate(0 93)"/>
    <path class="a" d="M5939.31,5101.32c0-24.91,15.07-40.06,38.11-40.06s38.12,15.08,38.12,40.06c0,25.33-14.86,40.19-38.12,40.19S5939.31,5126.58,5939.31,5101.32Zm54.91.07c0-15.29-6.6-24.12-16.8-24.12s-16.86,8.83-16.86,24.12,6.53,24.11,16.86,24.11S5994.22,5116.82,5994.22,5101.39Z" transform="translate(0 93)"/>
    <path class="a" d="M6030.43,5078.71H6020v-15.44h10.48v-5.81c0-15.07,7.11-22.11,25.34-22.11a60,60,0,0,1,10.69.94v13.85a32.17,32.17,0,0,0-5.67-.43c-6.89,0-9.9,3-9.9,8.47v5.09h15.29v15.44h-14.79v61.15h-21Z" transform="translate(0 93)"/>
    <path class="a" d="M6145.89,5116.32c-2.3,15.07-16.08,25.19-35.1,25.19-23.69,0-37.9-15.14-37.9-39.76s14.36-40.49,37.11-40.49c22.39,0,36.53,15.15,36.53,38.55v6.39h-53v1.29c0,11,7,18.52,17.66,18.52,7.68,0,13.56-3.81,15.5-9.69Zm-52.18-23h32.66c-.44-9.83-6.82-16.58-16.16-16.58C6101,5076.77,6094.42,5083.73,6093.71,5093.35Z" transform="translate(0 93)"/>
    <path class="a" d="M6186.77,5061.26c19.74,0,31.94,10.12,32.37,25.2h-19.31c-.65-6.25-5.31-10.48-13.06-10.48-7.25,0-12.06,3.3-12.06,8.4,0,3.94,2.87,6.6,10.62,8.25l13.14,2.8c16.07,3.37,22.68,9.69,22.68,21,0,15.14-13.86,25.12-33.67,25.12-21.24,0-33.52-9.9-34.88-25.05h20.46c1.29,6.75,6.1,10.34,14.42,10.34,7.9,0,12.78-3.23,12.78-8.26,0-4.09-2.65-6.39-10.19-8.11l-13.14-2.73c-14.85-3.15-22.39-10.62-22.39-22.18C6154.54,5070.88,6167.17,5061.26,6186.77,5061.26Z" transform="translate(0 93)"/>
    <path class="a" d="M6261,5061.26c19.74,0,31.94,10.12,32.37,25.2H6274c-.64-6.25-5.31-10.48-13.06-10.48-7.25,0-12.06,3.3-12.06,8.4,0,3.94,2.87,6.6,10.62,8.25l13.14,2.8c16.08,3.37,22.68,9.69,22.68,21,0,15.14-13.85,25.12-33.66,25.12-21.25,0-33.52-9.9-34.89-25.05h20.46c1.29,6.75,6.1,10.34,14.43,10.34,7.89,0,12.77-3.23,12.77-8.26,0-4.09-2.65-6.39-10.19-8.11l-13.13-2.73c-14.86-3.15-22.4-10.62-22.4-22.18C6228.72,5070.88,6241.36,5061.26,6261,5061.26Z" transform="translate(0 93)"/>
    <path class="a" d="M6304.05,5041.74a10.91,10.91,0,1,1,10.91,10.77A10.79,10.79,0,0,1,6304.05,5041.74Zm.51,21.18h20.95v76.94h-20.95Z" transform="translate(0 93)"/>
    <path class="a" d="M6335.17,5101.32c0-24.91,15.07-40.06,38.12-40.06s38.11,15.08,38.11,40.06c0,25.33-14.86,40.19-38.11,40.19S6335.17,5126.58,6335.17,5101.32Zm54.91.07c0-15.29-6.6-24.12-16.79-24.12s-16.87,8.83-16.87,24.12,6.53,24.11,16.87,24.11S6390.08,5116.82,6390.08,5101.39Z" transform="translate(0 93)"/>
    <path class="a" d="M6420.7,5062.92h20.24v13.7h.43c4.09-9.54,12.2-15.14,24-15.14,17.09,0,26.7,10.77,26.7,28.78v49.6h-21v-45.22c0-10.05-4.73-15.79-14.14-15.79s-15.36,6.89-15.36,16.87v44.14H6420.7Z" transform="translate(0 93)"/>
    <path class="a" d="M6501,5117.75c0-14,10.77-22.1,29.93-23.25l19.38-1.15v-5.1c0-7.18-5-11.34-12.92-11.34s-12.78,3.88-13.78,9.55h-19.17c.79-14.93,13.5-25.2,33.88-25.2,19.74,0,32.59,10.2,32.59,25.7v52.9h-20.24v-11.77h-.43c-4.31,8.18-13.85,13-23.47,13C6512.11,5141.08,6501,5131.61,6501,5117.75Zm49.31-6.1v-5.6l-16.22,1c-7.82.57-12.28,4.09-12.28,9.54,0,5.75,4.74,9.34,11.85,9.34C6542.75,5125.94,6550.29,5120,6550.29,5111.65Z" transform="translate(0 93)"/>
    <path class="a" d="M6583.42,5036.29h21v103.57h-21Z" transform="translate(0 93)"/>
    <path class="a" d="M6646.44,5139.86V5036.29h67.83v17.87h-46.15v27.78h42.13v17.15h-42.13v40.77Z" transform="translate(0 93)"/>
    <path class="a" d="M6723.78,5062.92H6744v13.85h.43c2.73-9.76,9.26-15.08,18.31-15.08a21.28,21.28,0,0,1,5.95.79v18.45a21.48,21.48,0,0,0-7.6-1.22c-10.34,0-16.37,6.32-16.37,17.16v43h-21Z" transform="translate(0 93)"/>
    <path class="a" d="M6773,5101.32c0-24.91,15.07-40.06,38.11-40.06s38.11,15.08,38.11,40.06c0,25.33-14.85,40.19-38.11,40.19S6773,5126.58,6773,5101.32Zm54.91.07c0-15.29-6.61-24.12-16.8-24.12s-16.87,8.83-16.87,24.12,6.53,24.11,16.87,24.11S6827.9,5116.82,6827.9,5101.39Z" transform="translate(0 93)"/>
    <path class="a" d="M6858.51,5062.92h20.24v13.7h.43c4.09-9.54,12.2-15.14,24-15.14,17.08,0,26.7,10.77,26.7,28.78v49.6h-21v-45.22c0-10.05-4.74-15.79-14.14-15.79s-15.36,6.89-15.36,16.87v44.14h-21Z" transform="translate(0 93)"/>
    <path class="a" d="M6968.29,5045.19v17.73h14.22v15.79h-14.22v36.82c0,5.88,2.88,8.68,9.05,8.68a33.39,33.39,0,0,0,5.1-.36v15.44a48.49,48.49,0,0,1-10,.86c-18.09,0-25.12-6-25.12-21v-40.41H6936.5v-15.79h10.84v-17.73Z" transform="translate(0 93)"/>
    <path class="a" d="M6994.6,5106.91v-18.3h47.16v18.3Z" transform="translate(0 93)"/>
    <path class="a" d="M7126.42,5139.86H7057.8V5036.29h68.62v17.87h-46.94v25h44.29v16.65h-44.29v26.13h46.94Z" transform="translate(0 93)"/>
    <path class="a" d="M7138.81,5062.92h20.24v13.7h.43c4.09-9.54,12.2-15.14,24-15.14,17.09,0,26.71,10.77,26.71,28.78v49.6h-21v-45.22c0-10.05-4.74-15.79-14.14-15.79s-15.36,6.89-15.36,16.87v44.14h-21Z" transform="translate(0 93)"/>
    <path class="a" d="M7219.23,5101.24c0-24.4,12.21-39.55,31.51-39.55,11.13,0,19.74,5.89,23.48,14.43h.43v-39.83h21v103.57h-20.68v-13.21h-.36c-3.73,8.47-12.63,14.43-24,14.43C7231.37,5141.08,7219.23,5125.86,7219.23,5101.24Zm21.47.15c0,14.14,6.46,22.82,17,22.82s17.08-8.75,17.08-22.82-6.67-22.9-17.08-22.9S7240.7,5087.32,7240.7,5101.39Z" transform="translate(0 93)"/>
    <path class="a" d="M7377.08,5036.29c31.08,0,49.38,18.51,49.38,51.39s-18.3,52.18-49.38,52.18h-39.55V5036.29Zm-17.88,85.63h15.29c19.38,0,29.86-11.78,29.86-34.17,0-21.68-10.77-33.59-29.86-33.59H7359.2Z" transform="translate(0 93)"/>
    <path class="a" d="M7507.39,5116.32c-2.3,15.07-16.08,25.19-35.1,25.19-23.69,0-37.9-15.14-37.9-39.76s14.36-40.49,37.11-40.49c22.39,0,36.54,15.15,36.54,38.55v6.39H7455v1.29c0,11,7,18.52,17.66,18.52,7.68,0,13.56-3.81,15.5-9.69Zm-52.18-23h32.66c-.43-9.83-6.82-16.58-16.15-16.58S7455.92,5083.73,7455.21,5093.35Z" transform="translate(0 93)"/>
    <path class="a" d="M7561.26,5139.86h-23.69l-26.63-76.94h22.47l16,58.42h.43l15.93-58.42h21.89Z" transform="translate(0 93)"/>
    <path class="a" d="M7663.65,5116.32c-2.29,15.07-16.08,25.19-35.1,25.19-23.68,0-37.9-15.14-37.9-39.76s14.36-40.49,37.11-40.49c22.4,0,36.54,15.15,36.54,38.55v6.39h-53.05v1.29c0,11,7,18.52,17.66,18.52,7.68,0,13.57-3.81,15.51-9.69Zm-52.18-23h32.66c-.43-9.83-6.82-16.58-16.15-16.58S7612.19,5083.73,7611.47,5093.35Z" transform="translate(0 93)"/>
    <path class="a" d="M7674.1,5036.29h21v103.57h-21Z" transform="translate(0 93)"/>
    <path class="a" d="M7704.93,5101.32c0-24.91,15.07-40.06,38.11-40.06s38.11,15.08,38.11,40.06c0,25.33-14.86,40.19-38.11,40.19S7704.93,5126.58,7704.93,5101.32Zm54.91.07c0-15.29-6.61-24.12-16.8-24.12s-16.87,8.83-16.87,24.12,6.53,24.11,16.87,24.11S7759.84,5116.82,7759.84,5101.39Z" transform="translate(0 93)"/>
    <path class="a" d="M7866.89,5101.39c0,24.76-11.91,39.69-31.15,39.69-11.2,0-19.81-5.45-23.9-14.14h-.43v38h-21V5062.92h20.67v13.42h.43c4.17-9.05,12.71-14.65,23.83-14.65C7854.91,5061.69,7866.89,5076.55,7866.89,5101.39Zm-21.46,0c0-13.93-6.6-22.9-17.08-22.9-10.27,0-17,9.12-17,22.9s6.74,22.82,17,22.82C7838.83,5124.21,7845.43,5115.38,7845.43,5101.39Z" transform="translate(0 93)"/>
    <path class="a" d="M7946.39,5116.32c-2.3,15.07-16.08,25.19-35.1,25.19-23.69,0-37.9-15.14-37.9-39.76s14.36-40.49,37.11-40.49c22.39,0,36.53,15.15,36.53,38.55v6.39h-53v1.29c0,11,7,18.52,17.66,18.52,7.68,0,13.56-3.81,15.5-9.69Zm-52.18-23h32.66c-.44-9.83-6.82-16.58-16.16-16.58C7901.53,5076.77,7894.92,5083.73,7894.21,5093.35Z" transform="translate(0 93)"/>
    <path class="a" d="M7956.33,5062.92h20.24v13.85h.43c2.73-9.76,9.26-15.08,18.31-15.08a21.28,21.28,0,0,1,5.95.79v18.45a21.5,21.5,0,0,0-7.61-1.22c-10.33,0-16.36,6.32-16.36,17.16v43h-21Z" transform="translate(0 93)"/>
    <path class="a" d="M8039.27,5061.26c19.74,0,31.94,10.12,32.37,25.2h-19.31c-.64-6.25-5.31-10.48-13.06-10.48-7.25,0-12.06,3.3-12.06,8.4,0,3.94,2.87,6.6,10.62,8.25l13.14,2.8c16.08,3.37,22.68,9.69,22.68,21,0,15.14-13.85,25.12-33.66,25.12-21.25,0-33.52-9.9-34.89-25.05h20.46c1.29,6.75,6.1,10.34,14.43,10.34,7.89,0,12.77-3.23,12.77-8.26,0-4.09-2.65-6.39-10.19-8.11l-13.13-2.73c-14.86-3.15-22.4-10.62-22.4-22.18C8007,5070.88,8019.68,5061.26,8039.27,5061.26Z" transform="translate(0 93)"/>
  </g>
  <path d="M5523.81,5817h-1.93l-2.18-6.28h1.84l1.3,4.77h0l1.3-4.77H5526Z" transform="translate(0 93)"/>
  <rect class="b" x="4318.5" width="2186" height="2186"/>
  <g>
    <g>
      <path class="a" d="M2260.41,929h56.73l-24.36,153.09a99,99,0,0,0-1.09,13.46,62.47,62.47,0,0,0,1.09,12.73h-52.73s-1.46-4.37-1.46-12.73c0-2.91,0-6.55.37-10.55h-.37c-15.27,17.46-37.81,27.28-61.09,27.28-43.94-3.75-62.78-34.86-62.78-77.41,0-55.27,30.42-107.8,92.24-107.8,18.91,0,40.73,5.2,50.54,22.65C2258.23,942.82,2259.32,935.92,2260.41,929Zm-48.15,42.91c-29.82,0-48,28.36-48,56,0,20.73,12,36,33.45,36,29.82,0,48-28.36,48-56C2245.71,987.19,2233.71,971.92,2212.26,971.92Z" transform="translate(0 93)"/>
      <path class="a" d="M2456,989.74c-9.09-12-25.45-17.46-40-17.46-29.82,0-50.55,26.55-50.55,55.28,0,22.91,14.91,36.36,37.46,36.36,15.64,0,34.55-6.55,46.91-16.36l5.09,44.36c-17.45,14.18-47.27,20.37-68.73,20.37-45.45,0-78.18-30.19-78.18-76,0-61.09,46.18-110.55,108.37-110.55,17.82,0,35.9,1.67,49,15.49Z" transform="translate(0 93)"/>
      <path class="a" d="M2556.43,929H2595l-7.64,44.72h-38.18c-4,24.37-11.28,51.28-11.28,76,0,10.54,5.09,13.82,14.91,13.82a47.83,47.83,0,0,0,17.46-3.28l-4.37,46.19c-13.45,3.27-26.91,5.82-41.09,5.82-28.73,0-45.82-13.1-45.82-42.92,0-31.63,8.73-65.09,13.46-95.64h-24.37l7.28-44.72h24.36l3.64-22.55a106.11,106.11,0,0,0,.72-14.55,76.38,76.38,0,0,0-.72-11.27h56.36s1.09,4,1.09,12a99.75,99.75,0,0,1-1.45,16.36Z" transform="translate(0 93)"/>
      <path class="a" d="M2657.21,1112.29c-46.55,0-82.55-26.55-82.55-75.64,0-63.28,47.64-110.92,112-110.92,46.92,0,82.55,26.91,82.55,76C2769.21,1065,2721.94,1112.29,2657.21,1112.29Zm22.18-140c-29.82,0-46.91,29.09-46.91,56,0,20.37,10.91,35.64,32.37,35.64,29.82,0,46.91-29.09,46.91-56C2711.76,987.55,2700.85,972.28,2679.39,972.28Z" transform="translate(0 93)"/>
      <path class="a" d="M2894.52,982.83h-2.91c-5.81-3.28-13.09-4.37-19.63-4.37-27.64,0-38.55,27.28-41.82,50.19l-12.73,79.64H2760.7l24-152.74a119.83,119.83,0,0,0,1.09-15.27,75.35,75.35,0,0,0-.73-11.27h56.37s1.09,4,1.09,12a60.77,60.77,0,0,1-1.46,13.45c10.55-16.73,26.92-28.73,47.64-28.73,5.09,0,12.73.73,17.1,3.28Z" transform="translate(0 93)"/>
      <path class="a" d="M2121.64,847.93c-53.22,5.07-67.78,36-75,81.08H2024.4l-6.91,44.72h22.19L2017.46,1112h56.74l22.21-138.24h28.53l8.62-45.05-30.24.33c2.91-17.1,5.44-26,21.9-33.85,7.43-3.56,8.35-4.46,24.28-3.55l8.74-41.53C2146.6,846.44,2136.67,846.5,2121.64,847.93Z" transform="translate(0 93)"/>
    </g>
    <path class="p" d="M1922.8,1122H1786.72a32.83,32.83,0,0,1-23.38-9.69l-103.69-103.7A27.3,27.3,0,0,1,1678.94,962h127V834.94a27.21,27.21,0,0,1,16.84-25.19,27.58,27.58,0,0,1,29.76,5.89l103.73,103.73a32.92,32.92,0,0,1,9.68,23.38v136A43.25,43.25,0,0,1,1922.8,1122Zm-130.39-46.74h126.85V948.41l-66.52-66.53v126.86H1725.89Z" transform="translate(0 93)"/>
  </g>
  <path class="p" d="M5723.23,1460H5295.35a103.14,103.14,0,0,1-73.53-30.48l-326.07-326.08a85.85,85.85,0,0,1,60.68-146.56h399.5V557.34a85.58,85.58,0,0,1,52.95-79.21c31.65-13.16,69.38-5.68,93.59,18.53l326.18,326.17a103.58,103.58,0,0,1,30.43,73.53v427.8C5859.08,1399.07,5798.14,1460,5723.23,1460Zm-410-147h398.87V914.16L5502.92,705v398.89H5104.05Z" transform="translate(0 93)"/>
  <g>
    <g>
      <path class="m" d="M3314.34,8089.55h15.18l-6.52,41a27.34,27.34,0,0,0-.29,3.6,16.71,16.71,0,0,0,.29,3.4h-14.11a11.73,11.73,0,0,1-.39-3.4c0-.78,0-1.75.1-2.82h-.1a21.72,21.72,0,0,1-16.34,7.29c-11.75-1-16.8-9.32-16.8-20.7,0-14.79,8.14-28.84,24.68-28.84,5.06,0,10.9,1.39,13.52,6.06C3313.76,8093.25,3314.05,8091.4,3314.34,8089.55ZM3301.46,8101c-8,0-12.84,7.59-12.84,15,0,5.55,3.21,9.63,9,9.63,8,0,12.84-7.58,12.84-15C3310.41,8105.12,3307.2,8101,3301.46,8101Z" transform="translate(0 93)"/>
      <path class="m" d="M3366.67,8105.8c-2.43-3.21-6.81-4.67-10.7-4.67-8,0-13.52,7.1-13.52,14.79,0,6.13,4,9.72,10,9.72a21.84,21.84,0,0,0,12.55-4.37l1.36,11.87c-4.67,3.79-12.65,5.44-18.39,5.44-12.16,0-20.92-8.07-20.92-20.33,0-16.34,12.36-29.57,29-29.57,4.76,0,9.6.44,13.1,4.14Z" transform="translate(0 93)"/>
      <path class="m" d="M3393.53,8089.55h10.32l-2,12h-10.21c-1.07,6.52-3,13.71-3,20.33,0,2.82,1.36,3.7,4,3.7a12.69,12.69,0,0,0,4.67-.88l-1.17,12.36a46.4,46.4,0,0,1-11,1.55c-7.69,0-12.26-3.5-12.26-11.48,0-8.46,2.34-17.41,3.6-25.58h-6.52l2-12h6.52l1-6a27.3,27.3,0,0,0,.2-3.89,19.79,19.79,0,0,0-.2-3h15.08a13.62,13.62,0,0,1,.29,3.21,26.91,26.91,0,0,1-.39,4.38Z" transform="translate(0 93)"/>
      <path class="m" d="M3420.5,8138.58c-12.46,0-22.09-7.1-22.09-20.23,0-16.93,12.75-29.67,30-29.67,12.55,0,22.08,7.19,22.08,20.33C3450.46,8125.94,3437.81,8138.58,3420.5,8138.58Zm5.93-37.45c-8,0-12.55,7.78-12.55,15,0,5.45,2.92,9.53,8.66,9.53,8,0,12.55-7.78,12.55-15C3435.09,8105.21,3432.17,8101.13,3426.43,8101.13Z" transform="translate(0 93)"/>
      <path class="m" d="M3484,8104h-.77a10.92,10.92,0,0,0-5.26-1.17c-7.39,0-10.31,7.3-11.19,13.43l-3.4,21.3h-15.18l6.42-40.86a31.22,31.22,0,0,0,.29-4.08,20.81,20.81,0,0,0-.19-3h15.08a13.62,13.62,0,0,1,.29,3.21,16.4,16.4,0,0,1-.39,3.6c2.82-4.47,7.2-7.68,12.75-7.68a10.38,10.38,0,0,1,4.57.87Z" transform="translate(0 93)"/>
      <path class="m" d="M3277.22,8067.86c-14.24,1.36-18.14,9.63-20.08,21.69h-5.94l-1.85,12h5.94l-5.95,37h15.18l5.94-37h7.64l2.31-12.06-8.1.09c.78-4.57,1.46-6.95,5.86-9.05,2-1,2.24-1.2,6.5-.95l2.34-11.11C3283.89,8067.46,3281.24,8067.48,3277.22,8067.86Z" transform="translate(0 93)"/>
    </g>
    <path class="o" d="M3224,8141.18h-36.4a8.79,8.79,0,0,1-6.26-2.59l-27.74-27.74a7.3,7.3,0,0,1,5.16-12.47h34v-34a7.28,7.28,0,0,1,4.5-6.74,7.39,7.39,0,0,1,8,1.57L3233,8087a8.82,8.82,0,0,1,2.59,6.26v36.4A11.57,11.57,0,0,1,3224,8141.18Zm-34.88-12.5h33.93v-33.94l-17.79-17.8v33.94h-33.94Z" transform="translate(0 93)"/>
  </g>
  <path class="o" d="M4787.67,8051H4735a12.73,12.73,0,0,1-9.06-3.75l-40.15-40.16a10.57,10.57,0,0,1,7.47-18.05h49.2v-49.21a10.55,10.55,0,0,1,6.52-9.76,10.68,10.68,0,0,1,11.53,2.29l40.17,40.17a12.74,12.74,0,0,1,3.75,9.05v52.69A16.75,16.75,0,0,1,4787.67,8051Zm-50.5-18.1h49.13v-49.13L4760.53,7958v49.13h-49.12Z" transform="translate(0 93)"/>
  <rect class="a" x="3905" y="7973.5" width="200" height="200"/>
  <circle class="q" cx="4005" cy="8073" r="61"/>
</svg>
