<svg width="64" height="64" viewBox="0 0 64 64" fill="none" xmlns="http://www.w3.org/2000/svg">
<path d="M42.8667 18.5467H21V9.26667C21 6.92 22.92 5 25.2667 5H38.6C40.9467 5 42.8667 6.92 42.8667 9.26667V18.5467Z" fill="#8ECCFD"/>
<path fill-rule="evenodd" clip-rule="evenodd" d="M25.2667 7.75C24.4388 7.75 23.75 8.43878 23.75 9.26667V15.7967H40.1167V9.26667C40.1167 8.43878 39.4279 7.75 38.6 7.75H25.2667ZM18.25 9.26667C18.25 5.40122 21.4012 2.25 25.2667 2.25H38.6C42.4654 2.25 45.6167 5.40122 45.6167 9.26667V21.2967H18.25V9.26667Z" fill="#0496FF"/>
<path d="M59.7333 62H4.26667C1.92 62 0 60.0286 0 57.619V20.381C0 17.9714 1.92 16 4.26667 16H59.7333C62.08 16 64 17.9714 64 20.381V57.7286C64 60.0286 62.08 62 59.7333 62Z" fill="#8ECCFD"/>
<path fill-rule="evenodd" clip-rule="evenodd" d="M58.5 56.5V21.5H5.5V56.5H58.5ZM4.26667 62H59.7333C62.08 62 64 60.0286 64 57.7286V20.381C64 17.9714 62.08 16 59.7333 16H4.26667C1.92 16 0 17.9714 0 20.381V57.619C0 60.0286 1.92 62 4.26667 62Z" fill="#0496FF"/>
</svg>
