<svg width="128" height="128" viewBox="0 0 128 128" fill="none" xmlns="http://www.w3.org/2000/svg">
<rect width="128" height="128" fill="white"/>
<circle cx="64" cy="64" r="64" fill="#141C23"/>
<circle cx="64" cy="64" r="63" stroke="black" stroke-opacity="0.1" stroke-width="2"/>
<path d="M78 54H50V41.6693C50 38.5512 52.4585 36 55.4634 36H72.5366C75.5415 36 78 38.5512 78 41.6693V54Z" stroke="#7DFEC6" stroke-width="5.5" stroke-miterlimit="10"/>
<path d="M91.7333 90.25H36.2667C35.5069 90.25 34.75 89.5788 34.75 88.619V51.381C34.75 50.4212 35.5069 49.75 36.2667 49.75H91.7333C92.4931 49.75 93.25 50.4212 93.25 51.381V88.7286C93.25 89.5333 92.5378 90.25 91.7333 90.25Z" fill="#7DFEC6" stroke="#7DFEC6" stroke-width="5.5" stroke-miterlimit="10"/>
<rect width="128" height="128" fill="#141C23"/>
<path fill-rule="evenodd" clip-rule="evenodd" d="M55.4634 38.75C54.0723 38.75 52.75 39.9732 52.75 41.6693V51.25H75.25V41.6693C75.25 39.9732 73.9277 38.75 72.5366 38.75H55.4634ZM47.25 41.6693C47.25 37.1292 50.8448 33.25 55.4634 33.25H72.5366C77.1552 33.25 80.75 37.1292 80.75 41.6693V56.75H47.25V41.6693Z" fill="#7DFEC6"/>
<path d="M91.7333 90.25H36.2667C35.5069 90.25 34.75 89.5788 34.75 88.619V51.381C34.75 50.4212 35.5069 49.75 36.2667 49.75H91.7333C92.4931 49.75 93.25 50.4212 93.25 51.381V88.7286C93.25 89.5333 92.5378 90.25 91.7333 90.25Z" fill="#7DFEC6" stroke="#7DFEC6" stroke-width="5.5" stroke-miterlimit="10"/>
</svg>
