<svg width="200" height="200" viewBox="0 0 200 200" fill="none" xmlns="http://www.w3.org/2000/svg">
<rect width="200" height="200" fill="#141C23"/>
<path d="M143.333 145.312H56.6667C53 145.312 50 142.232 50 138.467V80.2827C50 76.5179 53 73.4375 56.6667 73.4375H143.333C147 73.4375 150 76.5179 150 80.2827V138.638C150 142.232 147 145.312 143.333 145.312Z" fill="#7DFEC6"/>
<path fill-rule="evenodd" clip-rule="evenodd" d="M143.333 73.4375C147 73.4375 150 76.5179 150 80.2827V138.638C150 142.232 147 145.312 143.333 145.312H56.6667C53 145.312 50 142.232 50 138.467V80.2827C50 76.5179 53 73.4375 56.6667 73.4375H73.8281V65.1083C73.8281 58.0143 79.4449 51.9531 86.6616 51.9531H113.338C120.555 51.9531 126.172 58.0143 126.172 65.1083V73.4375H143.333ZM82.4219 73.4375H117.578V65.1083C117.578 62.4581 115.512 60.5469 113.338 60.5469H86.6616C84.488 60.5469 82.4219 62.4581 82.4219 65.1083V73.4375Z" fill="#7DFEC6"/>
</svg>
