<svg width="1500" height="1200" viewBox="0 0 1500 1200" fill="none" xmlns="http://www.w3.org/2000/svg">
<path d="M1482.14 0H17.8571C7.99492 0 0 7.94761 0 17.7515V1182.25C0 1192.05 7.99492 1200 17.8571 1200H1482.14C1492.01 1200 1500 1192.05 1500 1182.25V17.7515C1500 7.94761 1492.01 0 1482.14 0Z" fill="white"/>
<rect x="216" y="246" width="125" height="18" rx="5" transform="rotate(-180 216 246)" fill="#CBD5E1" fill-opacity="0.5"/>
<rect x="216" y="535" width="125" height="18" rx="5" transform="rotate(-180 216 535)" fill="#CBD5E1" fill-opacity="0.5"/>
<rect x="662" y="513.166" width="358" height="16.8827" rx="5" transform="rotate(-180 662 513.166)" fill="#CBD5E1" fill-opacity="0.5"/>
<rect x="778" y="561" width="474" height="16.8827" rx="5" transform="rotate(-180 778 561)" fill="#CBD5E1" fill-opacity="0.5"/>
<rect x="216" y="418" width="125" height="18" rx="5" transform="rotate(-180 216 418)" fill="#CBD5E1" fill-opacity="0.5"/>
<rect x="216" y="311.75" width="160" height="18" rx="5" transform="rotate(-180 216 311.75)" fill="#CBD5E1"/>
<g clip-path="url(#clip0_736_770)">
<path d="M104.363 37.7232C103.416 36.4009 101.715 35.7974 100.201 35.7974C97.0983 35.7974 94.9424 38.7223 94.9424 41.8937C94.9424 44.4185 96.4927 45.9036 98.8398 45.9036C100.613 45.8516 102.323 45.221 103.721 44.0998L104.251 48.9913C102.437 50.5555 99.3339 51.2359 97.1006 51.2359C92.3722 51.2359 88.9688 47.9086 88.9688 42.8476C88.9688 36.1116 93.7836 30.6572 100.242 30.6572C102.095 30.6572 104.627 31.2178 105.986 32.7413L104.365 37.721L104.363 37.7232Z" fill="#1E293B"/>
<path d="M114.155 31.0276H118.301L117.479 35.9621H113.372C112.942 38.6497 112.168 41.6176 112.168 44.3482C112.168 45.51 112.716 45.8694 113.77 45.8694C114.412 45.8694 115.05 45.7496 115.648 45.5078L115.168 50.5982C113.727 50.9915 112.243 51.2085 110.747 51.2401C107.656 51.2401 105.818 49.7957 105.818 46.5068C105.818 43.0191 106.756 39.3323 107.262 35.9598L108.033 31.0254H108.045L108.434 28.5389C108.496 28.0078 108.523 27.472 108.512 26.9363C108.516 26.5249 108.491 26.1135 108.434 25.7021H114.497C114.585 26.1339 114.624 26.5747 114.61 27.0154C114.606 27.6212 114.556 28.2248 114.456 28.8215L114.153 31.0231L114.155 31.0276Z" fill="#1E293B"/>
<path d="M118.102 50.7949C117.984 50.3383 117.931 49.8659 117.947 49.3912C117.947 48.8125 118.002 48.2339 118.102 47.6642L120.176 33.912C120.249 33.3672 120.29 32.8157 120.292 32.2664C120.297 31.855 120.269 31.4414 120.212 31.0322H126.279C126.37 31.4685 126.409 31.9138 126.398 32.3568C126.393 32.9626 126.343 33.5639 126.243 34.1606L124.171 47.9129C124.101 48.4034 124.06 48.8984 124.053 49.3934C124.046 49.8636 124.085 50.336 124.171 50.7972H118.104L118.102 50.7949ZM124 28.8193C122.357 28.8193 121.027 27.8586 121.027 26.0503C121.027 23.7244 122.826 22.0811 125.057 22.0811C126.744 22.0811 128.03 23.0417 128.03 24.8478C128.039 27.1376 126.238 28.8193 124 28.8193Z" fill="#1E293B"/>
<path d="M135.26 51.2363C130.505 51.2363 126.835 48.3114 126.835 42.8954C126.835 35.9198 131.7 30.6689 138.275 30.6689C143.067 30.6689 146.7 33.6301 146.7 39.055C146.707 46.0148 141.878 51.234 135.26 51.234V51.2363ZM137.526 35.7978C134.48 35.7978 132.733 39.0053 132.733 41.9642C132.733 44.2087 133.849 45.8927 136.039 45.8927C139.085 45.8927 140.831 42.6852 140.831 39.7264C140.838 37.4818 139.725 35.7978 137.535 35.7978H137.528H137.526Z" fill="#1E293B"/>
<path d="M159.371 50.7956C159.253 50.339 159.2 49.8666 159.216 49.3919C159.216 48.8132 159.271 48.2346 159.371 47.6649L160.466 40.4904C160.587 39.8394 160.653 39.1794 160.66 38.5171C160.66 36.8715 160.034 35.9515 158.351 35.9515C155.613 35.9515 154.713 38.6369 154.36 41.0058L152.833 50.7888H146.729L149.32 33.9986C149.393 33.4244 149.432 32.8503 149.436 32.2716C149.441 31.8602 149.416 31.4466 149.359 31.0374H155.376C155.467 31.4737 155.506 31.919 155.494 32.3643C155.487 32.8616 155.449 33.3544 155.376 33.8449H155.414C156.824 31.919 158.898 30.6758 161.286 30.6758C165.117 30.6758 166.998 32.561 166.998 36.4488C166.998 37.362 166.916 38.2752 166.756 39.1726L165.386 47.9136C165.315 48.4041 165.274 48.8991 165.267 49.3941C165.261 49.8643 165.299 50.3367 165.386 50.8001L159.369 50.7933L159.371 50.7956Z" fill="#1E293B"/>
<path d="M78.4673 30.7114C78.7929 28.7561 78.9977 27.1038 81.3471 26.7602C82.2191 26.6585 82.5446 26.62 83.3664 26.7195L84.4501 21.55C83.1251 21.3194 81.7228 21.3556 80.5367 21.4686C74.6017 22.0427 72.9581 25.5554 72.1453 30.7091H69.0697L68.4482 35.8244H71.3759C71.3759 35.8244 69.6298 45.7385 69.5137 46.4528C69.3953 47.1671 68.6918 51.0889 68.6918 51.0889L75.0047 50.9984C75.0047 50.9984 74.8977 51.0391 75.221 48.9596L77.5772 35.8289H81.8707L80.0723 47.0834C79.9493 47.7887 79.6557 50.9419 79.6557 50.9419L85.6976 50.8967C85.7386 49.4727 85.7841 49.1042 85.9071 47.913C86.03 46.7218 87.4893 38.8963 87.4893 38.8963C87.7192 37.4134 88.0743 35.2412 88.3885 33.5075C88.6753 31.9297 88.516 30.7136 88.516 30.7136H78.4673V30.7091V30.7114Z" fill="#1E293B"/>
<path d="M55.4678 52.0001H40.6816C39.7232 52.0001 38.8194 51.6181 38.1387 50.9197L26.8699 39.3735C26.0184 38.5033 25.7657 37.2013 26.2256 36.0621C26.6877 34.9206 27.7623 34.1814 28.9665 34.1814H42.7738V20.0336C42.7738 18.8017 43.4932 17.7008 44.6041 17.2284C45.6991 16.7605 47.0013 17.0272 47.8391 17.8839L59.1125 29.4346C59.7909 30.133 60.1643 31.0575 60.1643 32.0385V47.1877C60.1643 49.8414 58.0562 52.0001 55.4678 52.0001ZM41.269 46.8374H54.9965V32.6828L47.7981 25.2596V39.4142H34.0706L41.269 46.8374Z" fill="#2563EB"/>
</g>
<rect x="216" y="382" width="144" height="18" rx="5" transform="rotate(-180 216 382)" fill="#CBD5E1"/>
<rect x="216" y="213" width="144" height="18" rx="5" transform="rotate(-180 216 213)" fill="#CBD5E1"/>
<rect x="216" y="502" width="144" height="18" rx="5" transform="rotate(-180 216 502)" fill="#CBD5E1"/>
<rect x="27" y="110" width="189" height="34" rx="4" fill="#F8FAFC" stroke="#CBD5E1" stroke-width="2"/>
<rect x="1286" y="18" width="189" height="34" rx="4" stroke="#CBD5E1" stroke-width="2"/>
<rect x="26" y="1025" width="189" height="100" rx="4" fill="#F8FAFC" stroke="#CBD5E1" stroke-width="2"/>
<rect x="305" y="635" width="371" height="197" rx="4" fill="#F8FAFC" stroke="#CBD5E1" stroke-width="2"/>
<rect x="716" y="635" width="713" height="197" rx="4" fill="#F8FAFC" stroke="#CBD5E1" stroke-width="2"/>
<rect x="305" y="886" width="1124" height="313" rx="4" fill="#F8FAFC" stroke="#CBD5E1" stroke-width="2"/>
<line x1="-8.74228e-08" y1="68" x2="1500" y2="67.9999" stroke="#CBD5E1" stroke-opacity="0.6" stroke-width="2"/>
<line x1="241" y1="69" x2="241" y2="1200" stroke="#E2E8F0" stroke-width="2"/>
<path d="M1074.12 219.843C1073.5 220.052 1072.5 220.052 1071.88 219.843C1066.66 218.119 1055 210.926 1055 198.735C1055 193.354 1059.48 189 1065.01 189C1068.28 189 1071.18 190.533 1073 192.901C1073.92 191.692 1075.13 190.71 1076.52 190.032C1077.91 189.355 1079.44 189.001 1080.99 189C1086.52 189 1091 193.354 1091 198.735C1091 210.926 1079.34 218.119 1074.12 219.843Z" fill="white" stroke="white" stroke-width="1.5" stroke-linecap="round" stroke-linejoin="round"/>
<path d="M1073.81 262.909C1074.83 263.931 1075.65 265.146 1076.2 266.482C1076.76 267.819 1077.04 269.253 1077.04 270.7C1077.04 272.148 1076.76 273.581 1076.2 274.918C1075.65 276.255 1074.83 277.47 1073.81 278.492C1069.5 282.785 1062.52 282.804 1058.23 278.492C1053.93 274.179 1053.91 267.203 1058.23 262.909" stroke="white" stroke-width="4.5" stroke-linecap="round" stroke-linejoin="round"/>
<path d="M1068.07 267.643C1063.59 263.158 1063.59 255.875 1068.07 251.371C1072.56 246.867 1079.84 246.886 1084.35 251.371C1088.85 255.856 1088.83 263.139 1084.35 267.643" stroke="white" stroke-width="4.5" stroke-linecap="round" stroke-linejoin="round"/>
<rect x="192" y="1100" width="125" height="18" rx="5" transform="rotate(-180 192 1100)" fill="#CBD5E1" fill-opacity="0.5"/>
<rect x="192" y="1067" width="144" height="18" rx="5" transform="rotate(-180 192 1067)" fill="#CBD5E1"/>
<rect x="956" y="459.703" width="652" height="34.7034" rx="5" transform="rotate(-180 956 459.703)" fill="#CBD5E1"/>
<rect x="305" y="122" width="1124" height="241" rx="4" fill="#F8FAFC" stroke="#CBD5E1" stroke-width="2"/>
<path d="M758.536 308.76H772.203V305.112H762.96V287.622H758.536V308.76ZM778.532 309.009C779.225 309.009 779.865 308.906 780.451 308.701C781.037 308.486 781.559 308.188 782.018 307.808C782.487 307.417 782.868 306.953 783.161 306.416H783.249V308.76H787.526V297.993C787.526 296.938 787.248 296.016 786.691 295.225C786.144 294.434 785.373 293.823 784.377 293.394C783.38 292.954 782.204 292.734 780.846 292.734C779.469 292.734 778.278 292.949 777.272 293.379C776.276 293.799 775.495 294.385 774.928 295.137C774.372 295.889 774.054 296.748 773.976 297.715L773.962 297.891H777.873L777.902 297.759C778.009 297.251 778.297 296.831 778.766 296.499C779.235 296.167 779.87 296.001 780.671 296.001C781.51 296.001 782.15 296.206 782.589 296.616C783.029 297.017 783.249 297.563 783.249 298.257V303.018C783.249 303.564 783.102 304.058 782.809 304.497C782.526 304.927 782.13 305.269 781.623 305.522C781.125 305.767 780.558 305.889 779.923 305.889C779.181 305.889 778.59 305.728 778.151 305.405C777.712 305.073 777.492 304.619 777.492 304.043V304.014C777.492 303.457 777.707 303.013 778.136 302.681C778.566 302.339 779.191 302.144 780.011 302.095L785.49 301.743V299.077L779.367 299.458C778.068 299.546 776.964 299.785 776.056 300.176C775.148 300.566 774.455 301.104 773.976 301.787C773.498 302.461 773.258 303.276 773.258 304.233V304.263C773.258 305.181 773.478 306.001 773.918 306.724C774.367 307.437 774.987 307.998 775.778 308.408C776.569 308.809 777.487 309.009 778.532 309.009ZM795.041 309.082C795.832 309.082 796.535 308.965 797.151 308.73C797.776 308.496 798.308 308.159 798.747 307.72C799.196 307.28 799.558 306.763 799.831 306.167H799.919V308.76H804.196V293.057H799.919V302.08C799.919 302.588 799.846 303.057 799.699 303.486C799.553 303.906 799.343 304.272 799.07 304.585C798.796 304.888 798.464 305.122 798.073 305.288C797.693 305.454 797.263 305.537 796.784 305.537C795.827 305.537 795.105 305.254 794.616 304.688C794.138 304.121 793.899 303.325 793.899 302.3V293.057H789.621V303.193C789.621 304.414 789.831 305.464 790.251 306.343C790.681 307.222 791.296 307.9 792.097 308.379C792.907 308.848 793.889 309.082 795.041 309.082ZM806.38 308.76H810.657V299.736C810.657 299.043 810.784 298.438 811.038 297.92C811.302 297.402 811.668 297.002 812.137 296.719C812.605 296.426 813.157 296.279 813.792 296.279C814.749 296.279 815.467 296.562 815.945 297.129C816.433 297.686 816.678 298.477 816.678 299.502V308.76H820.955V298.623C820.955 296.777 820.481 295.337 819.534 294.302C818.596 293.257 817.263 292.734 815.535 292.734C814.353 292.734 813.362 292.993 812.561 293.511C811.761 294.028 811.155 294.736 810.745 295.635H810.657V293.057H806.38V308.76ZM830.243 309.082C831.639 309.082 832.855 308.818 833.89 308.291C834.935 307.754 835.755 307.031 836.351 306.123C836.947 305.215 837.279 304.189 837.347 303.047V302.959H833.363L833.348 303.091C833.202 303.882 832.865 304.521 832.337 305.01C831.82 305.488 831.131 305.728 830.272 305.728C829.569 305.728 828.958 305.542 828.441 305.171C827.933 304.79 827.538 304.243 827.254 303.53C826.981 302.808 826.844 301.934 826.844 300.908V300.894C826.844 299.897 826.981 299.043 827.254 298.33C827.538 297.607 827.933 297.056 828.441 296.675C828.958 296.284 829.564 296.089 830.257 296.089C831.146 296.089 831.849 296.343 832.367 296.851C832.884 297.349 833.206 297.974 833.333 298.726L833.363 298.857H837.332V298.755C837.274 297.622 836.947 296.602 836.351 295.693C835.765 294.785 834.95 294.067 833.905 293.54C832.86 293.003 831.624 292.734 830.199 292.734C828.636 292.734 827.274 293.066 826.112 293.73C824.959 294.385 824.066 295.322 823.431 296.543C822.806 297.754 822.494 299.199 822.494 300.879V300.894C822.494 302.573 822.806 304.028 823.431 305.259C824.056 306.479 824.95 307.422 826.112 308.086C827.274 308.75 828.651 309.082 830.243 309.082ZM838.915 308.76H843.192V299.766C843.192 299.082 843.319 298.481 843.573 297.964C843.837 297.437 844.198 297.026 844.657 296.733C845.126 296.431 845.673 296.279 846.298 296.279C847.274 296.279 848.021 296.592 848.539 297.217C849.066 297.832 849.33 298.687 849.33 299.78V308.76H853.607V298.901C853.607 297.632 853.383 296.538 852.934 295.62C852.494 294.702 851.864 293.994 851.044 293.496C850.224 292.988 849.242 292.734 848.1 292.734C846.928 292.734 845.932 292.998 845.111 293.525C844.301 294.043 843.69 294.79 843.28 295.767H843.192V287.622H838.915V308.76ZM855.849 308.76H860.127V293.057H855.849V308.76ZM857.988 291.035C858.632 291.035 859.174 290.815 859.614 290.376C860.053 289.937 860.273 289.414 860.273 288.809C860.273 288.193 860.053 287.671 859.614 287.241C859.174 286.802 858.632 286.582 857.988 286.582C857.343 286.582 856.801 286.802 856.362 287.241C855.922 287.671 855.703 288.193 855.703 288.809C855.703 289.414 855.922 289.937 856.362 290.376C856.801 290.815 857.343 291.035 857.988 291.035ZM862.398 308.76H866.675V299.736C866.675 299.043 866.802 298.438 867.056 297.92C867.32 297.402 867.686 297.002 868.154 296.719C868.623 296.426 869.175 296.279 869.81 296.279C870.767 296.279 871.485 296.562 871.963 297.129C872.451 297.686 872.696 298.477 872.696 299.502V308.76H876.973V298.623C876.973 296.777 876.499 295.337 875.552 294.302C874.614 293.257 873.281 292.734 871.553 292.734C870.371 292.734 869.38 292.993 868.579 293.511C867.779 294.028 867.173 294.736 866.763 295.635H866.675V293.057H862.398V308.76ZM886.422 314.209C887.994 314.209 889.351 313.96 890.494 313.462C891.646 312.964 892.53 312.271 893.145 311.382C893.77 310.503 894.083 309.482 894.083 308.32V293.057H889.805V295.737H889.718C889.434 295.122 889.058 294.59 888.59 294.141C888.131 293.691 887.594 293.345 886.978 293.101C886.363 292.856 885.684 292.734 884.942 292.734C883.614 292.734 882.471 293.052 881.514 293.687C880.557 294.321 879.815 295.234 879.288 296.426C878.77 297.617 878.512 299.048 878.512 300.718V300.732C878.512 302.354 878.765 303.75 879.273 304.922C879.791 306.084 880.523 306.978 881.471 307.603C882.428 308.228 883.56 308.54 884.869 308.54C885.631 308.54 886.324 308.433 886.949 308.218C887.584 307.993 888.136 307.681 888.604 307.28C889.073 306.88 889.444 306.406 889.718 305.859H889.805V308.262C889.805 309.141 889.517 309.844 888.941 310.371C888.365 310.898 887.525 311.162 886.422 311.162C885.533 311.162 884.81 311.016 884.254 310.723C883.697 310.43 883.331 310.093 883.155 309.712L883.111 309.609H878.951L878.966 309.741C879.102 310.581 879.483 311.338 880.108 312.012C880.743 312.686 881.593 313.218 882.657 313.608C883.731 314.009 884.986 314.209 886.422 314.209ZM886.348 305.405C885.645 305.405 885.03 305.22 884.503 304.849C883.975 304.478 883.57 303.95 883.287 303.267C883.004 302.583 882.862 301.772 882.862 300.835V300.82C882.862 299.873 883.004 299.062 883.287 298.389C883.57 297.715 883.975 297.197 884.503 296.836C885.03 296.465 885.645 296.279 886.348 296.279C887.042 296.279 887.647 296.465 888.165 296.836C888.692 297.197 889.097 297.72 889.381 298.403C889.674 299.077 889.82 299.883 889.82 300.82V300.835C889.82 301.772 889.674 302.583 889.381 303.267C889.097 303.95 888.697 304.478 888.179 304.849C887.662 305.22 887.052 305.405 886.348 305.405ZM909.729 309.126C911.506 309.126 913.029 308.857 914.299 308.32C915.578 307.773 916.555 307.007 917.229 306.021C917.912 305.024 918.254 303.848 918.254 302.49V302.476C918.254 301.372 918.024 300.43 917.565 299.648C917.116 298.857 916.418 298.203 915.471 297.686C914.523 297.168 913.312 296.763 911.838 296.47L909.597 296.016C908.386 295.771 907.497 295.444 906.931 295.034C906.364 294.624 906.081 294.087 906.081 293.423V293.408C906.081 292.9 906.223 292.456 906.506 292.075C906.799 291.694 907.219 291.396 907.766 291.182C908.312 290.957 908.962 290.845 909.714 290.845C910.446 290.845 911.091 290.952 911.647 291.167C912.214 291.382 912.668 291.689 913.01 292.09C913.352 292.48 913.562 292.954 913.64 293.511L913.654 293.687H917.829L917.814 293.408C917.746 292.178 917.38 291.099 916.716 290.171C916.052 289.243 915.124 288.525 913.933 288.018C912.751 287.51 911.345 287.256 909.714 287.256C908.151 287.256 906.765 287.524 905.554 288.062C904.343 288.589 903.391 289.336 902.697 290.303C902.004 291.26 901.657 292.383 901.657 293.672V293.687C901.657 295.278 902.185 296.572 903.239 297.568C904.294 298.564 905.861 299.272 907.941 299.692L910.168 300.132C911.486 300.405 912.424 300.747 912.98 301.157C913.547 301.558 913.83 302.114 913.83 302.827V302.842C913.83 303.379 913.664 303.853 913.332 304.263C913.01 304.663 912.551 304.976 911.955 305.2C911.369 305.415 910.666 305.522 909.846 305.522C909.045 305.522 908.327 305.415 907.692 305.2C907.058 304.976 906.54 304.668 906.14 304.277C905.749 303.877 905.505 303.403 905.407 302.856L905.378 302.695H901.203L901.218 302.93C901.306 304.229 901.706 305.342 902.419 306.27C903.132 307.188 904.108 307.896 905.349 308.394C906.599 308.882 908.059 309.126 909.729 309.126ZM927.146 309.082C928.269 309.082 929.246 308.936 930.076 308.643C930.916 308.35 931.624 307.959 932.2 307.471C932.786 306.982 933.25 306.445 933.591 305.859C933.933 305.273 934.163 304.692 934.28 304.116L934.324 303.955H930.398L930.369 304.043C930.271 304.336 930.086 304.624 929.812 304.907C929.539 305.19 929.187 305.425 928.757 305.61C928.328 305.796 927.82 305.889 927.234 305.889C926.492 305.889 925.852 305.728 925.315 305.405C924.778 305.073 924.363 304.6 924.07 303.984C923.787 303.369 923.645 302.627 923.645 301.758V300.103C923.645 299.204 923.787 298.447 924.07 297.832C924.363 297.207 924.763 296.733 925.271 296.411C925.789 296.089 926.379 295.928 927.044 295.928C927.708 295.928 928.289 296.084 928.787 296.396C929.295 296.709 929.69 297.178 929.973 297.803C930.256 298.418 930.398 299.185 930.398 300.103V301.743L932.434 299.224H921.521V301.919H934.456V300.601C934.456 299.019 934.148 297.637 933.533 296.455C932.927 295.273 932.063 294.36 930.94 293.716C929.827 293.062 928.504 292.734 926.97 292.734C925.437 292.734 924.104 293.071 922.971 293.745C921.848 294.409 920.974 295.356 920.349 296.587C919.734 297.808 919.426 299.253 919.426 300.923V300.938C919.426 302.607 919.734 304.053 920.349 305.273C920.974 306.494 921.863 307.437 923.015 308.101C924.168 308.755 925.545 309.082 927.146 309.082ZM936.068 308.76H940.345V299.971C940.345 299.209 940.477 298.564 940.74 298.037C941.004 297.51 941.385 297.109 941.883 296.836C942.381 296.562 942.982 296.426 943.685 296.426C943.997 296.426 944.29 296.45 944.564 296.499C944.837 296.538 945.062 296.592 945.237 296.66V292.896C945.081 292.847 944.896 292.808 944.681 292.778C944.466 292.749 944.241 292.734 944.007 292.734C943.089 292.734 942.322 293.003 941.707 293.54C941.092 294.077 940.667 294.829 940.433 295.796H940.345V293.057H936.068V308.76ZM951.068 308.76H955.888L961.278 293.057H956.81L953.573 304.98H953.485L950.204 293.057H945.634L951.068 308.76ZM968.764 309.082C969.887 309.082 970.864 308.936 971.694 308.643C972.534 308.35 973.242 307.959 973.818 307.471C974.404 306.982 974.868 306.445 975.209 305.859C975.551 305.273 975.781 304.692 975.898 304.116L975.942 303.955H972.016L971.987 304.043C971.889 304.336 971.704 304.624 971.43 304.907C971.157 305.19 970.805 305.425 970.375 305.61C969.946 305.796 969.438 305.889 968.852 305.889C968.11 305.889 967.47 305.728 966.933 305.405C966.396 305.073 965.981 304.6 965.688 303.984C965.405 303.369 965.263 302.627 965.263 301.758V300.103C965.263 299.204 965.405 298.447 965.688 297.832C965.981 297.207 966.381 296.733 966.889 296.411C967.407 296.089 967.997 295.928 968.662 295.928C969.326 295.928 969.907 296.084 970.405 296.396C970.913 296.709 971.308 297.178 971.591 297.803C971.874 298.418 972.016 299.185 972.016 300.103V301.743L974.052 299.224H963.139V301.919H976.074V300.601C976.074 299.019 975.766 297.637 975.151 296.455C974.545 295.273 973.681 294.36 972.558 293.716C971.445 293.062 970.121 292.734 968.588 292.734C967.055 292.734 965.722 293.071 964.589 293.745C963.466 294.409 962.592 295.356 961.967 296.587C961.352 297.808 961.044 299.253 961.044 300.923V300.938C961.044 302.607 961.352 304.053 961.967 305.273C962.592 306.494 963.481 307.437 964.633 308.101C965.786 308.755 967.163 309.082 968.764 309.082ZM977.686 308.76H981.963V299.971C981.963 299.209 982.095 298.564 982.358 298.037C982.622 297.51 983.003 297.109 983.501 296.836C983.999 296.562 984.6 296.426 985.303 296.426C985.615 296.426 985.908 296.45 986.182 296.499C986.455 296.538 986.68 296.592 986.855 296.66V292.896C986.699 292.847 986.514 292.808 986.299 292.778C986.084 292.749 985.859 292.734 985.625 292.734C984.707 292.734 983.94 293.003 983.325 293.54C982.71 294.077 982.285 294.829 982.051 295.796H981.963V293.057H977.686V308.76Z" fill="#A5B3CB"/>
<rect x="1365" y="245.739" width="993" height="38.88" rx="5" transform="rotate(-180 1365 245.739)" fill="#CBD5E1"/>
<rect x="673.123" y="245.739" width="299.109" height="38.88" rx="5" transform="rotate(-180 673.123 245.739)" fill="#2563EB"/>
<rect x="802" y="933.883" width="474" height="16.8827" rx="5" transform="rotate(-180 802 933.883)" fill="#CBD5E1" fill-opacity="0.5"/>
<rect x="540" y="680.883" width="212" height="16.8827" rx="5" transform="rotate(-180 540 680.883)" fill="#CBD5E1" fill-opacity="0.5"/>
<rect x="1055" y="680.883" width="314" height="16.8827" rx="5" transform="rotate(-180 1055 680.883)" fill="#CBD5E1" fill-opacity="0.5"/>
<defs>
<clipPath id="clip0_736_770">
<rect width="141" height="35" fill="white" transform="translate(26 17)"/>
</clipPath>
</defs>
</svg>
