<svg width="2332" height="2332" viewBox="0 0 2332 2332" fill="none" xmlns="http://www.w3.org/2000/svg">
<path d="M1680.61 1903.42H982.941C937.71 1903.42 895.135 1886.05 863.204 1854.47L331.037 1328.16C291.124 1288.69 278.884 1229.22 300.703 1177.64C322.522 1125.53 373.078 1091.85 430.02 1091.85H1081.39V447.129C1081.39 390.814 1115.45 340.815 1167.6 319.237C1219.23 298.184 1280.95 310.289 1320.34 349.236L1852.5 875.539C1884.44 907.645 1902 949.223 1902 993.961V1683.95C1902.53 1805 1803.01 1903.42 1680.61 1903.42ZM1012.21 1666.05H1662.52V1022.91L1321.4 685.545V1328.69H671.092L1012.21 1666.05Z" fill="#3A4854"/>
</svg>
