<svg width="64" height="64" viewBox="0 0 64 64" fill="none" xmlns="http://www.w3.org/2000/svg">
<path fill-rule="evenodd" clip-rule="evenodd" d="M7.47114 5.60001H57.3361C61.131 5.60001 64.2073 8.73402 64.2073 12.6V50.6C64.2073 54.466 61.131 57.6 57.3361 57.6H7.47114C3.67629 57.6 0.599976 54.466 0.599976 50.6V12.6C0.599976 8.734 3.67631 5.60001 7.47114 5.60001ZM7.47114 11.6C6.92902 11.6 6.48954 12.0477 6.48954 12.6V50.6C6.48954 51.1523 6.92902 51.6 7.47114 51.6H57.3361C57.8783 51.6 58.3177 51.1523 58.3177 50.6V12.6C58.3177 12.0477 57.8783 11.6 57.3361 11.6H7.47114Z" fill="#0496FF"/>
<path d="M6.4895 11.6H58.3177V51.6H6.4895V11.6Z" fill="#8ECCFD"/>
<rect x="9.8269" y="16" width="37.54" height="5.46" fill="#0496FF"/>
</svg>
