<svg width="64" height="64" viewBox="0 0 64 64" fill="none" xmlns="http://www.w3.org/2000/svg">
<path d="M32.2308 64.0006C19.9743 64.0006 10 54.0265 10 41.7699V30.7434C10 29.8295 10.741 29.0885 11.655 29.0885H19.5395L19.5099 3.56749L13.305 7.38625V21.9203C13.305 22.8342 12.564 23.5752 11.65 23.5752C10.7361 23.5752 10 22.8342 10 21.9203V7.19851C10 6.17591 10.5434 5.20269 11.4129 4.66915L18.2897 0.440358C19.2084 -0.122822 20.3596 -0.147524 21.2982 0.376136C22.2368 0.899794 22.8197 1.89277 22.8197 2.96973L22.8494 29.0934H32.2358C39.2261 29.0934 44.9123 34.7795 44.9123 41.7699C44.9123 48.7602 39.2261 54.4463 32.2358 54.4463C25.2454 54.4463 19.5593 48.7602 19.5593 41.7699L19.5493 32.3983H13.305V41.7699C13.305 52.2035 21.7923 60.6957 32.2308 60.6957C42.6694 60.6957 51.1566 52.2085 51.1566 41.7699C51.1566 31.3313 42.6645 22.844 32.2308 22.844H29.3605C28.4466 22.844 27.7056 22.103 27.7056 21.1891C27.7056 20.2752 28.4466 19.5342 29.3605 19.5342H32.2308C44.4874 19.5342 54.4616 29.5084 54.4616 41.765C54.4616 54.0215 44.4874 64.0006 32.2308 64.0006ZM22.8494 32.3983L22.8593 41.7699C22.8593 46.9373 27.0634 51.1414 32.2308 51.1414C37.3983 51.1414 41.6023 46.9373 41.6023 41.7699C41.6023 36.6025 37.3983 32.3983 32.2308 32.3983H22.8494Z" fill="#4949E4"/>
</svg>
