<svg width="67" height="40" fill="none" xmlns="http://www.w3.org/2000/svg"><path d="M59.19 30.054a66.085 66.085 0 01-25.089 5.175 66.777 66.777 0 01-33.055-8.8c-.81-.477-1.43.358-.763.978a48.94 48.94 0 0033.103 12.592 47.889 47.889 0 0027.045-8.252c1.145-.906.095-2.241-1.121-1.693h-.12zm7.156-4.173c-.788-.978-7.656-1.837-11.925 1.097-.644.477-.525 1.097.167 1.001 2.385-.286 7.632-.906 8.562.286.93 1.193-1.05 6.13-1.932 8.348-.262.644.31.93.906.405 4.174-3.291 5.2-10.136 4.389-11.137h-.168zM19.768 18.153a16.932 16.932 0 01-.716-1.598 7.347 7.347 0 01-.238-1.98V7.421A7.369 7.369 0 0016.93 1.84 8.132 8.132 0 0011.11.027a13.475 13.475 0 00-3.458.43A12.45 12.45 0 004.767 1.53c-.24.11-.453.273-.62.477-.115.237-.165.5-.144.763v1.097c0 .453.143.692.454.692h.357l.859-.334c.778-.304 1.575-.56 2.385-.763.782-.185 1.582-.28 2.385-.286A5.104 5.104 0 0114.068 4.2a4.913 4.913 0 011.025 3.554v1.621a26.702 26.702 0 00-2.552-.5 20.318 20.318 0 00-2.385-.167 7.966 7.966 0 00-5.39 1.717A5.654 5.654 0 002.74 14.98a5.652 5.652 0 001.646 4.269 6.033 6.033 0 004.46 1.67 8.25 8.25 0 006.534-3.053c.206.45.437.888.692 1.311.226.369.49.712.787 1.026a.954.954 0 00.668.31.906.906 0 00.572-.19l1.407-.93a.763.763 0 00.263-1.17v-.071zm-4.603-5.39c.013.65-.06 1.3-.215 1.932a3.625 3.625 0 01-.644 1.455 5.175 5.175 0 01-2.098 1.43 7.296 7.296 0 01-2.385.382 3.291 3.291 0 01-2.075-5.724 5.2 5.2 0 013.29-.858c.693 0 1.384 0 2.1.119.715.12 1.383.239 2.027.381v.883zM26.23 19.25c.068.33.225.635.453.882.255.164.557.24.859.215h1.908c.31.028.62-.048.882-.215.228-.254.377-.569.43-.906l3.41-14.31 3.458 14.31c.03.332.173.643.405.883.264.186.586.27.907.238h1.908c.297.016.59-.068.834-.238.24-.234.405-.533.477-.859l5.533-17.148a1.55 1.55 0 00.143-.548c.01-.12.01-.239 0-.358a.477.477 0 00-.548-.548h-2.075c-.3-.01-.598.064-.859.214-.21.247-.358.542-.429.859l-3.864 14.882L36.51 1.84a1.527 1.527 0 00-.405-.859 1.479 1.479 0 00-.907-.214h-1.812a1.12 1.12 0 00-1.312 1.073l-3.458 14.596L24.919 1.84a1.907 1.907 0 00-.429-.859 1.36 1.36 0 00-.882-.214H21.46c-.358 0-.525.19-.525.548.02.302.084.6.191.883l5.104 17.052zm23.85.405a9.704 9.704 0 002.551.883c1.118.265 2.262.401 3.41.405 1.084.004 2.161-.157 3.196-.477a6.82 6.82 0 002.385-1.24 5.843 5.843 0 001.622-1.956c.393-.8.59-1.683.573-2.575a4.985 4.985 0 00-1.026-3.1 6.7 6.7 0 00-3.172-2.123L56.472 8.47a6.582 6.582 0 01-2.385-1.24 2.124 2.124 0 01-.668-1.574 2.17 2.17 0 011.05-1.98 5.939 5.939 0 012.766-.62 9.898 9.898 0 014.27.883c.26.134.543.223.834.262.334 0 .525-.238.525-.715v-1.05c.016-.256-.06-.51-.215-.715a1.812 1.812 0 00-.668-.573 6.204 6.204 0 00-.93-.405c-.406 0-.81-.239-1.264-.334L58.356.147h-1.503a9.73 9.73 0 00-2.79.357c-.86.24-1.668.636-2.385 1.169a5.556 5.556 0 00-1.598 1.813 4.889 4.889 0 00-.596 2.385 5.414 5.414 0 001.097 3.22 6.869 6.869 0 003.554 2.265l3.22 1.002c.831.186 1.602.58 2.241 1.144a2.17 2.17 0 01.62 1.55 2.384 2.384 0 01-1.168 2.123 6.106 6.106 0 01-3.244.716c-.89.006-1.776-.082-2.647-.263-.82-.167-1.62-.423-2.385-.763l-.549-.238h-.405c-.334 0-.525.238-.525.691v1.216c.002.215.051.427.143.62.202.236.467.41.764.501h-.12z" fill="#717485"/></svg>