<svg width="47" height="50" viewBox="0 0 47 50" fill="none" xmlns="http://www.w3.org/2000/svg">
<path d="M22.2689 22.0265V7.75763C22.2689 5.54849 20.478 3.75763 18.2689 3.75763H15.5555H6.71341H4C1.79086 3.75763 0 5.54849 0 7.75763V22.0265C0 24.2356 1.79086 26.0265 4 26.0265H18.2689C20.478 26.0265 22.2689 24.2356 22.2689 22.0265Z" fill="#6515DD"/>
<path d="M22.2689 46V31.7311C22.2689 29.5219 20.478 27.7311 18.2689 27.7311H15.5555H6.71341H4C1.79086 27.7311 0 29.5219 0 31.7311V46C0 48.2091 1.79086 50 4 50H18.2689C20.478 50 22.2689 48.2091 22.2689 46Z" fill="#6515DD"/>
<path d="M46.3935 46V31.7311C46.3935 29.5219 44.6026 27.7311 42.3935 27.7311H39.6801H30.838H28.1246C25.9155 27.7311 24.1246 29.5219 24.1246 31.7311V46C24.1246 48.2091 25.9155 50 28.1246 50H42.3935C44.6026 50 46.3935 48.2091 46.3935 46Z" fill="#6515DD"/>
<path d="M46.3963 18.2689L46.3963 4C46.3963 1.79086 44.6054 -1.06278e-07 42.3963 -9.48129e-08L39.6829 -8.07307e-08L30.8408 -3.48417e-08L28.1274 -2.07594e-08C25.9183 -9.29432e-09 24.1274 1.79086 24.1274 4L24.1274 18.2689C24.1274 20.478 25.9183 22.2689 28.1274 22.2689L42.3963 22.2689C44.6054 22.2689 46.3963 20.478 46.3963 18.2689Z" fill="#391077"/>
<path fill-rule="evenodd" clip-rule="evenodd" d="M29.4117 11.3754C29.4117 10.834 29.8507 10.395 30.3921 10.395L40.196 10.395C40.7375 10.395 41.1764 10.834 41.1764 11.3754C41.1764 11.9169 40.7375 12.3558 40.196 12.3558L30.3921 12.3558C29.8507 12.3558 29.4117 11.9169 29.4117 11.3754Z" fill="#1BFEC0"/>
<path fill-rule="evenodd" clip-rule="evenodd" d="M35.2007 5.39221C35.7422 5.39221 36.1811 5.83115 36.1811 6.3726V16.1765C36.1811 16.718 35.7422 17.1569 35.2007 17.1569C34.6592 17.1569 34.2203 16.718 34.2203 16.1765V6.3726C34.2203 5.83115 34.6592 5.39221 35.2007 5.39221Z" fill="#1BFEC0"/>
</svg>
