<svg width="47" height="50" fill="none" xmlns="http://www.w3.org/2000/svg"><path d="M22.269 22.026V7.758a4 4 0 00-4-4H4a4 4 0 00-4 4v14.268a4 4 0 004 4h14.269a4 4 0 004-4zM22.269 46V31.731a4 4 0 00-4-4H4a4 4 0 00-4 4V46a4 4 0 004 4h14.269a4 4 0 004-4zM46.394 46V31.731a4 4 0 00-4-4H28.125a4 4 0 00-4 4V46a4 4 0 004 4h14.269a4 4 0 004-4z" fill="#6515DD"/><path d="M46.396 18.269V4a4 4 0 00-4-4H28.127a4 4 0 00-4 4v14.269a4 4 0 004 4h14.27a4 4 0 004-4z" fill="#391077"/><path fill-rule="evenodd" clip-rule="evenodd" d="M29.412 11.375a.98.98 0 01.98-.98h9.804a.98.98 0 010 1.96h-9.804a.98.98 0 01-.98-.98z" fill="#1BFEC0"/><path fill-rule="evenodd" clip-rule="evenodd" d="M35.2 5.392a.98.98 0 01.981.98v9.805a.98.98 0 11-1.96 0V6.373a.98.98 0 01.98-.98z" fill="#1BFEC0"/></svg>