<svg width="91" height="90" fill="none" xmlns="http://www.w3.org/2000/svg"><path d="M90.008 45.137c.026 24.75-20.437 45.526-46.285 44.847C20.411 89.383.053 70.592 0 45.058-.052 19.63 20.411-.233 45.422.002 70.747.237 90.14 20.884 90.008 45.137zm-40.796-5.515c.68-3.71 2.352-6.952 4.991-9.617-4.52-4.757-13.198-6.403-20.15-3.816-6.324 2.352-10.427 6.873-12.57 13.407h27.755c-2.17 9.905 6.168 20.333 16.439 20.464 5.75.078 11.499.026 17.248 0 .366 0 .758-.053 1.203-.105v-1.542-15.942c-.026-11.5-10.872-19.915-21.98-17.014-2.953.758-5.54 2.196-7.788 4.443 2.849 2.718 5.018 5.75 6.063 9.696-3.841.026-7.526.026-11.211.026zm-43.567 5.88c.34 6.508 9.566 14.14 17.484 14.558 10.062.522 19.758-6.142 21.065-14.557H5.645z" fill="#717485"/></svg>