<svg width="190" height="129" viewBox="0 0 190 129" fill="none" xmlns="http://www.w3.org/2000/svg">
<g filter="url(#filter0_dd)">
<path d="M152 45C151.7 45 151.4 45 151.2 45C145.8 36.6 136.3 31 125.5 31C124.4 31 123.4 31.1 122.3 31.2C116.8 17.6 103.5 8 88 8C67.6 8 51 24.6 51 45C51 46.6 51.1 48.2 51.3 49.7C46.1 51.7 41.8 55.3 38.9 60C36.9 58.8 34.5 58 32 58C24.8 58 19 63.8 19 71C19 78.2 24.8 84 32 84C33.7 84 35.4 83.7 36.9 83.1C40.6 92.4 49.8 99 60.5 99C65.4 99 70 97.6 73.9 95.2C76.1 97 78.9 98 82 98C89.2 98 95 92.2 95 85C95 83.8 94.8 82.6 94.5 81.4C96.7 81 98.9 80.4 101 79.6C106.5 87.1 115.5 92 125.5 92C134.2 92 142.1 88.3 147.6 82.5C149 82.8 150.5 83 152 83C162.5 83 171 74.5 171 64C171 53.5 162.5 45 152 45Z" fill="white"/>
</g>
<defs>
<filter id="filter0_dd" x="0" y="0" width="190" height="129" filterUnits="userSpaceOnUse" color-interpolation-filters="sRGB">
<feFlood flood-opacity="0" result="BackgroundImageFix"/>
<feColorMatrix in="SourceAlpha" type="matrix" values="0 0 0 0 0 0 0 0 0 0 0 0 0 0 0 0 0 0 127 0"/>
<feOffset dy="4"/>
<feGaussianBlur stdDeviation="3"/>
<feColorMatrix type="matrix" values="0 0 0 0 0 0 0 0 0 0 0 0 0 0 0 0 0 0 0.08 0"/>
<feBlend mode="normal" in2="BackgroundImageFix" result="effect1_dropShadow"/>
<feColorMatrix in="SourceAlpha" type="matrix" values="0 0 0 0 0 0 0 0 0 0 0 0 0 0 0 0 0 0 127 0"/>
<feOffset dy="11"/>
<feGaussianBlur stdDeviation="9.5"/>
<feColorMatrix type="matrix" values="0 0 0 0 0 0 0 0 0 0 0 0 0 0 0 0 0 0 0.07 0"/>
<feBlend mode="normal" in2="effect1_dropShadow" result="effect2_dropShadow"/>
<feBlend mode="normal" in="SourceGraphic" in2="effect2_dropShadow" result="shape"/>
</filter>
</defs>
</svg>
