<svg width="50" height="40" viewBox="0 0 50 40" fill="none" xmlns="http://www.w3.org/2000/svg">
<path d="M42.5 25C42.4531 25 42.4141 25.0156 42.375 25.0156C42.4609 24.6094 42.5 24.1875 42.5 23.75C42.5 20.2969 39.7031 17.5 36.25 17.5C34.3281 17.5 32.6328 18.3828 31.4844 19.75C30.0312 16.9453 27.125 15 23.75 15C18.9141 15 15 18.9141 15 23.75C15 24.3203 15.0625 24.8672 15.1641 25.4062C12.1719 26.3906 10 29.1797 10 32.5C10 36.6406 13.3594 40 17.5 40H42.5C46.6406 40 50 36.6406 50 32.5C50 28.3594 46.6406 25 42.5 25Z" fill="#6515DD"/>
<path d="M31.9844 16.1328C29.8906 13.8438 26.9297 12.5 23.75 12.5C17.9766 12.5 13.2578 16.8906 12.625 22.5H7.5C3.35938 22.5 0 19.1406 0 15C0 10.8594 3.35938 7.5 7.5 7.5C7.54688 7.5 7.58594 7.51562 7.625 7.51562C8.22656 3.27344 11.8438 0 16.25 0C20 0 23.1719 2.36719 24.4141 5.67969C25.3594 5.25 26.3984 5 27.5 5C31.6406 5 35 8.35938 35 12.5C35 13.4688 34.7891 14.3672 34.4531 15.2109C33.5859 15.3984 32.75 15.6953 31.9844 16.1328Z" fill="#391077"/>
</svg>
