<svg width="152" height="91" viewBox="0 0 152 91" fill="none" xmlns="http://www.w3.org/2000/svg">
<path d="M126 63C126 70.1797 131.82 76 139 76C146.18 76 152 70.1797 152 63C152 55.8203 146.18 50 139 50C131.82 50 126 55.8203 126 63Z" fill="white"/>
<path d="M76 77C76 84.1797 81.8203 90 89 90C96.1797 90 102 84.1797 102 77C102 69.8203 96.1797 64 89 64C81.8203 64 76 69.8203 76 77Z" fill="white"/>
<path d="M15 53.5C15 70.3447 28.6553 84 45.5 84C62.3447 84 76 70.3447 76 53.5C76 36.6553 62.3447 23 45.5 23C28.6553 23 15 36.6553 15 53.5Z" fill="white"/>
<path d="M0 56C0 66.4934 8.50659 75 19 75C29.4934 75 38 66.4934 38 56C38 45.5066 29.4934 37 19 37C8.50659 37 0 45.5066 0 56Z" fill="white"/>
<path d="M46 37C46 57.4345 62.5655 74 83 74C103.435 74 120 57.4345 120 37C120 16.5655 103.435 0 83 0C62.5655 0 46 16.5655 46 37Z" fill="white"/>
<path d="M85 65.5C85 79.5833 96.4167 91 110.5 91C124.583 91 136 79.5833 136 65.5C136 51.4167 124.583 40 110.5 40C96.4167 40 85 51.4167 85 65.5Z" fill="white"/>
</svg>
