<svg width="152" height="91" fill="none" xmlns="http://www.w3.org/2000/svg"><path d="M126 63c0 7.18 5.82 13 13 13s13-5.82 13-13-5.82-13-13-13-13 5.82-13 13zM76 77c0 7.18 5.82 13 13 13s13-5.82 13-13-5.82-13-13-13-13 5.82-13 13zM15 53.5C15 70.345 28.655 84 45.5 84S76 70.345 76 53.5 62.345 23 45.5 23 15 36.655 15 53.5z" fill="#fff"/><path d="M0 56c0 10.493 8.507 19 19 19s19-8.507 19-19-8.507-19-19-19S0 45.507 0 56zM46 37c0 20.434 16.566 37 37 37 20.435 0 37-16.566 37-37S103.435 0 83 0C62.566 0 46 16.566 46 37z" fill="#fff"/><path d="M85 65.5C85 79.583 96.417 91 110.5 91S136 79.583 136 65.5 124.583 40 110.5 40 85 51.417 85 65.5z" fill="#fff"/></svg>