<svg width="50" height="40" fill="none" xmlns="http://www.w3.org/2000/svg"><path fill-rule="evenodd" clip-rule="evenodd" d="M22.59 39.155c.404 0 .807-.151 1.11-.454l15.707-15.127c.005-.005.01-.011.02-.019l.03-.029c.596-.57 5.724-5.48 5.724-11.298 0-7.387-4.513-11.8-12.052-11.8-4.412 0-8.547 3.48-10.539 5.446C20.6 3.908 16.464.43 12.052.43 4.513.429 0 4.84 0 12.228c0 6.051 5.547 11.119 5.748 11.295l15.733 15.178c.303.303.706.454 1.11.454zM9.386 10.675a3.765 3.765 0 015.325 0l7.503 7.503 7.503-7.503A3.765 3.765 0 1135.042 16L22.24 28.8l-.027-.026-.027.027L9.386 16a3.765 3.765 0 010-5.325z" fill="#6515DD"/><path d="M23.7 38.701a1.565 1.565 0 01-1.11.454c-.403 0-.806-.151-1.109-.454l-10.186-9.55 5.572-5.723 5.272 5.27L44.186 6.836c.995 1.231 4.308 4.243 5.814 5.75-4.518 4.517-10.366 10.762-10.593 10.989L23.7 38.7z" fill="#1BFEC0"/></svg>