<svg width="510" height="213" fill="none" xmlns="http://www.w3.org/2000/svg"><path d="M342.315 122.578c-2.104 0-4.033-.366-5.787-1.1a12.841 12.841 0 01-4.447-3.252c-1.244-1.402-2.216-3.108-2.917-5.117-.67-2.008-1.005-4.288-1.005-6.839 0-2.55.335-4.814 1.005-6.79.701-2.01 1.673-3.683 2.917-5.022a12.084 12.084 0 014.447-3.109c1.754-.733 3.683-1.1 5.787-1.1s4.017.367 5.739 1.1a12 12 0 014.495 3.109c1.244 1.37 2.2 3.06 2.87 5.07.701 1.976 1.052 4.224 1.052 6.742 0 2.551-.351 4.831-1.052 6.839-.67 2.009-1.626 3.715-2.87 5.117a12.729 12.729 0 01-4.495 3.252c-1.722.734-3.635 1.1-5.739 1.1zm0-6.073c2.136 0 3.826-.909 5.069-2.726 1.244-1.849 1.866-4.352 1.866-7.509 0-3.124-.622-5.563-1.866-7.317-1.243-1.753-2.933-2.63-5.069-2.63s-3.826.877-5.069 2.63c-1.244 1.754-1.865 4.193-1.865 7.317 0 3.157.621 5.66 1.865 7.509 1.243 1.817 2.933 2.726 5.069 2.726zM361.76 130.804v-32.52h5.739l.478 2.343h.191a12.856 12.856 0 013.109-2.056c1.18-.574 2.391-.861 3.634-.861 1.435 0 2.726.287 3.874.86a8.25 8.25 0 012.917 2.44c.798 1.052 1.403 2.327 1.818 3.826.446 1.466.669 3.108.669 4.926 0 2.04-.287 3.857-.861 5.451-.542 1.563-1.291 2.902-2.247 4.018-.925 1.084-1.993 1.913-3.204 2.486a8.322 8.322 0 01-3.683.861 7.394 7.394 0 01-2.965-.621 9.911 9.911 0 01-2.678-1.866l.239 3.779v6.934h-7.03zm10.808-13.965c1.212 0 2.248-.542 3.109-1.626.86-1.115 1.291-2.901 1.291-5.356 0-4.272-1.371-6.408-4.113-6.408-1.371 0-2.726.717-4.065 2.152v9.708c.638.574 1.275.973 1.913 1.196a5.63 5.63 0 001.865.334zM395.923 122.578c-1.562 0-3.172-.303-4.83-.908-1.626-.606-3.045-1.403-4.256-2.392l3.156-4.399c1.084.829 2.12 1.45 3.109 1.865a7.732 7.732 0 003.013.622c1.052 0 1.817-.176 2.295-.527.478-.35.717-.844.717-1.482 0-.383-.143-.717-.43-1.004-.255-.319-.622-.606-1.1-.861a8.533 8.533 0 00-1.53-.67 68.882 68.882 0 01-1.77-.717 22.677 22.677 0 01-2.2-1.004 9.817 9.817 0 01-2.008-1.387 7.411 7.411 0 01-1.483-1.961c-.382-.765-.574-1.642-.574-2.63 0-1.084.208-2.089.622-3.013a6.677 6.677 0 011.865-2.344c.797-.637 1.754-1.131 2.87-1.482 1.116-.383 2.359-.574 3.73-.574 1.817 0 3.411.319 4.782.956 1.371.606 2.567 1.292 3.587 2.057l-3.156 4.208c-.861-.637-1.706-1.131-2.535-1.482a6.334 6.334 0 00-2.487-.526c-1.785 0-2.678.621-2.678 1.865 0 .382.128.717.383 1.004.255.255.589.494 1.004.718.446.223.94.446 1.482.669.574.191 1.164.399 1.77.622.765.287 1.514.621 2.248 1.004.765.351 1.45.797 2.056 1.339a6 6 0 011.53 2.009c.383.765.574 1.69.574 2.774s-.207 2.088-.621 3.012c-.415.925-1.037 1.738-1.865 2.439-.829.67-1.85 1.212-3.061 1.626-1.212.383-2.615.574-4.209.574z" fill="#1D0A47"/><path d="M97.825 122.004v-31.18h8.8c2.391 0 4.543.302 6.456.908 1.913.606 3.555 1.546 4.926 2.822 1.371 1.243 2.423 2.837 3.156 4.782.734 1.945 1.1 4.256 1.1 6.934 0 2.679-.366 5.006-1.1 6.983-.733 1.976-1.769 3.618-3.108 4.925-1.339 1.276-2.949 2.232-4.83 2.87-1.849.638-3.922.956-6.217.956h-9.183zm7.031-5.691h1.339c1.339 0 2.55-.175 3.634-.526a6.813 6.813 0 002.774-1.674c.765-.797 1.355-1.833 1.769-3.108.447-1.275.67-2.854.67-4.735 0-1.849-.223-3.395-.67-4.639-.414-1.275-1.004-2.28-1.769-3.012a6.409 6.409 0 00-2.774-1.626c-1.084-.32-2.295-.479-3.634-.479h-1.339v19.799zM138.225 122.578c-1.689 0-3.268-.271-4.734-.813a11.382 11.382 0 01-3.826-2.439c-1.084-1.084-1.929-2.391-2.535-3.921-.606-1.531-.908-3.284-.908-5.261 0-1.913.318-3.635.956-5.165.638-1.562 1.467-2.869 2.487-3.921a11 11 0 013.587-2.487 10.458 10.458 0 014.16-.861c1.69 0 3.157.287 4.4.86 1.275.575 2.328 1.372 3.156 2.392.861 1.02 1.499 2.232 1.913 3.635.415 1.37.622 2.869.622 4.495 0 .638-.032 1.243-.096 1.817a12.892 12.892 0 01-.191 1.292h-14.203c.318 1.721 1.02 2.996 2.104 3.825 1.116.797 2.471 1.196 4.065 1.196 1.69 0 3.395-.526 5.117-1.578l2.343 4.256a15.465 15.465 0 01-4.065 1.961c-1.466.478-2.917.717-4.352.717zm-5.26-15.016h8.56c0-1.339-.303-2.423-.908-3.252-.606-.829-1.627-1.244-3.061-1.244-1.116 0-2.104.367-2.965 1.1-.829.733-1.371 1.865-1.626 3.396zM157.533 122.004l-7.987-23.72h7.078l3.061 11.191c.319 1.179.621 2.391.908 3.634.319 1.212.638 2.439.957 3.683h.191c.287-1.244.574-2.471.861-3.683.319-1.243.638-2.455.956-3.634l3.109-11.191h6.743l-7.747 23.72h-8.13z" fill="#6515DD"/><path d="M276.918 171.097c-34.742-38.713-66.836-74.475-89.281-99.308l2.869-32.998 31.564 2.87 90.865 100.908-32.042-1.913-3.826 30.607-.149-.166z" fill="#1D0A47"/><path d="M181.898 63.66c-35.39-31.525-67.432-19.13-86.561-9.087l-32.52-1.913 1.913-29.173c23.433-15.303 89.43-47.823 150.166 11-3.826-.431-30.607-2.352-30.607-2.352l-2.391 31.524z" fill="#1D0A47"/><path d="M88.641 59.834c-32.998 36.346-21.52 69.822-9.086 83.213l-2.87 29.651-32.041-1.913C25.036 156.437-2.224 75.137 58.034 27.792l-.956 30.129 31.563 1.913z" fill="#1D0A47"/><path d="M84.337 148.786c33.955 30.607 67.91 19.607 87.518 9.086l32.52 1.913-1.913 30.607c-21.042 20.565-98.039 42.563-152.08-13.39l32.042 2.391 1.913-30.607z" fill="#1D0A47"/><path d="M199.791 63.944l9.738-8.768 1.216 1.35-.637.78.051.056a6.716 6.716 0 011.523.405 3.34 3.34 0 011.281.88c.393.436.653.897.781 1.382.146.486.17.989.07 1.507a4.493 4.493 0 01-.636 1.552 7.249 7.249 0 01-1.298 1.503c-.597.538-1.21.934-1.837 1.19-.61.257-1.199.394-1.769.409a3.936 3.936 0 01-1.582-.3 3.494 3.494 0 01-1.268-.892 3.043 3.043 0 01-.62-1.09 4.71 4.71 0 01-.225-1.393l-1.127 1.093-2.189 1.97-1.472-1.634zm6.677-.504c.418.465.967.674 1.646.629.69-.055 1.432-.44 2.228-1.157.702-.631 1.14-1.24 1.315-1.827.175-.587.024-1.146-.454-1.677-.444-.492-1.165-.77-2.164-.831l-3.256 2.931c.013.452.083.835.211 1.15.128.313.286.574.474.782zM211.037 71.23c-.529-.587-.725-1.157-.588-1.71.137-.552.509-1.102 1.116-1.648l8.245-7.424 1.472 1.635-8.33 7.5c-.199.18-.307.346-.324.499a.458.458 0 00.103.344c.035.037.064.07.09.1a.832.832 0 00.169.13l-1.03 1.314c-.291-.133-.599-.38-.923-.74zM214.601 75.19c-.554-.616-.818-1.28-.789-1.992.038-.72.364-1.358.98-1.913.37-.333.765-.551 1.186-.656.439-.103.912-.083 1.419.061.516.154 1.075.422 1.678.806.612.393 1.28.916 2.004 1.568.172-.172.317-.354.435-.546.136-.192.219-.395.249-.61a1.172 1.172 0 00-.047-.653c-.07-.23-.211-.462-.424-.7a3.632 3.632 0 00-1.108-.83 9.33 9.33 0 00-1.341-.517l.557-1.582c.596.166 1.202.41 1.817.731a5.962 5.962 0 011.678 1.321c.785.872 1.109 1.756.972 2.652-.119.896-.667 1.784-1.643 2.663l-4.137 3.725-1.216-1.35.665-.805-.051-.057a6.793 6.793 0 01-1.577-.408 3.344 3.344 0 01-1.307-.908zm1.753-.626c.256.284.553.48.891.588.346.117.761.198 1.247.242l1.563-1.409a9.994 9.994 0 00-1.302-.989c-.385-.237-.729-.4-1.031-.487-.293-.097-.554-.12-.782-.068a1.307 1.307 0 00-.599.307c-.313.281-.455.581-.426.899.028.317.175.623.439.917zM219.849 80.674l6.98-6.284 1.216 1.35-.836.959.051.056c.585.04 1.149.142 1.691.306.551.173 1.044.501 1.479.985.674.749.923 1.511.747 2.287-.167.768-.696 1.553-1.586 2.356l-4.379 3.942-1.472-1.635 4.165-3.75c.578-.52.909-.973.993-1.357.083-.384-.05-.77-.4-1.159a1.979 1.979 0 00-.957-.605c-.347-.1-.795-.168-1.344-.206l-4.876 4.39-1.472-1.635zM119.233 29.456a4.947 4.947 0 01-1.798-.325 4.052 4.052 0 01-1.435-.957 4.414 4.414 0 01-.956-1.55c-.23-.611-.345-1.306-.345-2.084s.128-1.473.383-2.086a4.579 4.579 0 011.033-1.55c.434-.42.931-.739 1.492-.956a4.798 4.798 0 011.798-.344c.612 0 1.135.102 1.569.306a5.06 5.06 0 011.186.746l-1.071 1.435a3.252 3.252 0 00-.765-.497 1.704 1.704 0 00-.804-.192c-.765 0-1.384.287-1.855.861-.472.561-.708 1.32-.708 2.276 0 .944.229 1.703.688 2.277.472.561 1.078.842 1.818.842.37 0 .714-.077 1.033-.23.331-.166.631-.357.899-.574l.899 1.454c-.446.383-.937.67-1.473.86a4.59 4.59 0 01-1.588.288zM127.526 29.456a4.448 4.448 0 01-1.684-.325 4.293 4.293 0 01-1.434-.957 4.652 4.652 0 01-.976-1.55c-.242-.611-.363-1.306-.363-2.084s.121-1.473.363-2.086a4.654 4.654 0 01.976-1.55c.421-.42.899-.739 1.434-.956a4.234 4.234 0 011.684-.344c.586 0 1.148.115 1.683.344a4.045 4.045 0 011.435.957c.408.42.733.937.976 1.55.255.612.382 1.307.382 2.085 0 .777-.127 1.473-.382 2.085a4.668 4.668 0 01-.976 1.55c-.408.42-.886.739-1.435.956a4.443 4.443 0 01-1.683.325zm0-1.798c.688 0 1.23-.28 1.626-.842.395-.574.593-1.333.593-2.276 0-.957-.198-1.716-.593-2.277-.396-.574-.938-.86-1.626-.86-.689 0-1.231.286-1.626.86-.383.561-.574 1.32-.574 2.276 0 .944.191 1.703.574 2.277.395.561.937.842 1.626.842zM137.47 29.456c-1.186 0-2.13-.427-2.831-1.282-.689-.867-1.033-2.079-1.033-3.634 0-.766.108-1.454.325-2.066.229-.613.529-1.13.899-1.55.37-.42.791-.746 1.263-.976.484-.23.982-.344 1.492-.344.535 0 .988.096 1.358.287.37.179.74.427 1.109.746l-.076-1.511V15.72h2.2v13.505h-1.818l-.153-1.014h-.076a4.97 4.97 0 01-1.205.88 3.072 3.072 0 01-1.454.364zm.536-1.817c.701 0 1.358-.351 1.97-1.053v-4.38c-.332-.294-.657-.498-.976-.612a2.646 2.646 0 00-.937-.173c-.612 0-1.129.268-1.55.804-.42.535-.631 1.3-.631 2.295 0 1.02.179 1.799.536 2.334.37.523.899.785 1.588.785zM148.995 29.456a5 5 0 01-1.818-.325 4.437 4.437 0 01-1.473-.976 4.531 4.531 0 01-.994-1.53c-.23-.613-.345-1.308-.345-2.085 0-.766.121-1.454.364-2.066a4.828 4.828 0 01.956-1.55c.408-.42.874-.746 1.397-.976a3.955 3.955 0 011.606-.344c.638 0 1.199.108 1.684.325.484.217.886.523 1.205.919.332.395.58.867.746 1.415.166.548.249 1.148.249 1.798 0 .217-.013.421-.039.612a3.018 3.018 0 01-.057.46h-5.968c.102.841.395 1.492.88 1.95.497.447 1.128.67 1.893.67.409 0 .785-.057 1.129-.172.357-.127.708-.3 1.052-.516l.746 1.377a6.73 6.73 0 01-1.492.727 5.185 5.185 0 01-1.721.287zm-2.506-5.816h4.17c0-.727-.16-1.294-.478-1.702-.307-.42-.785-.631-1.435-.631-.561 0-1.052.197-1.473.593-.421.395-.682.975-.784 1.74z" fill="#1BFEC0"/><path fill="#1D0A47" d="M0 97h26v26H0z"/><path d="M9.39 116.461c-.434 0-.874-.102-1.32-.306a4.824 4.824 0 01-1.244-.918h-.057l-.192.995h-1.74v-13.506h2.2v3.482l-.058 1.568a5.543 5.543 0 011.282-.841c.471-.217.95-.326 1.434-.326.587 0 1.11.115 1.569.345.46.217.848.535 1.167.956.319.408.561.906.727 1.492.166.587.248 1.244.248 1.971 0 .803-.114 1.524-.344 2.161-.217.625-.51 1.155-.88 1.588-.37.434-.797.765-1.282.995a3.498 3.498 0 01-1.51.344zm-.46-1.817c.625 0 1.148-.268 1.569-.804.42-.548.631-1.358.631-2.429 0-.944-.16-1.677-.478-2.2-.319-.523-.836-.784-1.55-.784-.663 0-1.352.35-2.066 1.052v4.381c.332.293.657.497.976.612.332.114.638.172.918.172zM18.408 116.461c-1.007 0-1.74-.319-2.2-.956-.459-.651-.688-1.575-.688-2.774v-5.892h2.2v5.605c0 .778.114 1.326.344 1.645.23.319.6.478 1.11.478.408 0 .765-.102 1.07-.306.32-.204.658-.535 1.015-.994v-6.428h2.2v9.393H21.66l-.172-1.378h-.057a5.425 5.425 0 01-1.34 1.167c-.471.294-1.032.44-1.683.44zM26.245 116.232v-9.393h2.2v9.393h-2.2zm1.11-11.038c-.396 0-.721-.115-.976-.344-.255-.23-.383-.53-.383-.9 0-.369.128-.669.383-.899.255-.242.58-.363.976-.363.395 0 .72.121.975.363.255.23.383.53.383.899 0 .37-.128.67-.383.9-.255.229-.58.344-.975.344zM33.394 116.461c-.79 0-1.345-.236-1.664-.708-.319-.471-.478-1.116-.478-1.932v-11.095h2.2v11.21c0 .268.05.459.153.574.102.102.21.153.325.153h.134a.84.84 0 00.21-.038l.287 1.645c-.293.127-.682.191-1.167.191zM39.735 116.461c-1.186 0-2.13-.427-2.83-1.282-.69-.867-1.034-2.078-1.034-3.634 0-.765.108-1.454.325-2.066.23-.612.53-1.129.9-1.55.37-.42.79-.746 1.262-.975.485-.23.982-.345 1.492-.345.536 0 .988.096 1.358.287.37.179.74.428 1.11.746l-.077-1.511v-3.405h2.2v13.506h-1.817l-.153-1.014h-.077a4.999 4.999 0 01-1.205.88c-.459.242-.944.363-1.454.363zm.536-1.817c.701 0 1.358-.351 1.97-1.052v-4.381c-.331-.293-.657-.497-.975-.612a2.645 2.645 0 00-.938-.172c-.612 0-1.128.268-1.55.803-.42.536-.63 1.301-.63 2.296 0 1.02.178 1.798.535 2.334.37.522.9.784 1.588.784zM123.237 194.926c-.548 0-1.014-.083-1.396-.249a2.481 2.481 0 01-.918-.688 3.209 3.209 0 01-.517-1.072 5.923 5.923 0 01-.153-1.396v-4.476h-1.339V185.4l1.454-.096.268-2.563h1.836v2.563h2.391v1.741h-2.391v4.476c0 1.097.44 1.645 1.32 1.645.166 0 .332-.019.497-.057a2.45 2.45 0 00.479-.153l.382 1.626a6.312 6.312 0 01-.88.229 4.394 4.394 0 01-1.033.115zM130.558 194.926c-.65 0-1.256-.108-1.817-.325a4.444 4.444 0 01-1.473-.976 4.538 4.538 0 01-.995-1.53c-.229-.612-.344-1.307-.344-2.085 0-.765.121-1.454.363-2.066a4.836 4.836 0 01.957-1.55 4.37 4.37 0 011.396-.975 3.956 3.956 0 011.607-.345c.638 0 1.199.109 1.683.326.485.216.887.522 1.206.918.331.395.58.867.746 1.415a6.224 6.224 0 01.21 2.411 3.308 3.308 0 01-.057.459h-5.969c.102.841.396 1.492.88 1.951.498.446 1.129.67 1.894.67a3.55 3.55 0 001.129-.173 5.33 5.33 0 001.052-.516l.746 1.377a6.756 6.756 0 01-1.492.727 5.203 5.203 0 01-1.722.287zm-2.506-5.815h4.17c0-.727-.159-1.295-.478-1.703-.306-.421-.784-.631-1.435-.631-.561 0-1.052.198-1.473.593-.42.395-.682.975-.784 1.741zM138.857 194.926a5.41 5.41 0 01-1.932-.363 6.46 6.46 0 01-1.626-.938l1.033-1.415c.421.331.835.593 1.243.784.421.178.874.268 1.359.268.51 0 .886-.102 1.128-.306.243-.217.364-.491.364-.823a.764.764 0 00-.172-.497 1.59 1.59 0 00-.459-.402 3.854 3.854 0 00-.651-.306l-.727-.306a11.63 11.63 0 01-.937-.402 3.97 3.97 0 01-.861-.555 3.123 3.123 0 01-.612-.746 2.201 2.201 0 01-.23-1.033c0-.829.306-1.504.919-2.027.612-.523 1.447-.785 2.505-.785.651 0 1.238.115 1.76.345.523.229.976.491 1.359.784l-1.014 1.339a4.795 4.795 0 00-1.014-.574 2.481 2.481 0 00-1.052-.229c-.472 0-.823.102-1.052.306a.926.926 0 00-.326.727c0 .191.051.357.153.497.115.127.262.242.44.344.179.102.383.198.613.287.242.09.491.179.746.268.318.115.637.249.956.402.319.14.606.319.861.535.268.217.478.485.631.804.166.306.249.676.249 1.109 0 .408-.083.791-.249 1.148a2.632 2.632 0 01-.688.918 3.515 3.515 0 01-1.148.612c-.459.154-.982.23-1.569.23zM147.411 194.926c-.549 0-1.014-.083-1.397-.249a2.481 2.481 0 01-.918-.688 3.209 3.209 0 01-.517-1.072 5.923 5.923 0 01-.153-1.396v-4.476h-1.339V185.4l1.454-.096.268-2.563h1.836v2.563h2.392v1.741h-2.392v4.476c0 1.097.44 1.645 1.32 1.645.166 0 .332-.019.498-.057a2.44 2.44 0 00.478-.153l.383 1.626a6.386 6.386 0 01-.88.229 4.4 4.4 0 01-1.033.115z" fill="#1BFEC0"/><path d="M208.679 185.61c34.8-38.777 82.257-88.952 104.734-113.82l-2.869-32.999-31.564 2.87-100.43 110.951 31.564 2.391-1.435 30.607z" fill="#6515DD"/><path d="M319.152 63.66c35.39-31.525 67.431-19.13 86.561-9.087l32.52-1.913-1.913-29.173c-23.433-15.303-89.43-47.823-150.166 11 3.825-.431 30.607-2.352 30.607-2.352l2.391 31.524z" fill="#6515DD"/><path d="M412.408 59.834c32.999 36.346 21.521 69.822 9.087 83.213l2.869 29.651 32.042-1.913c19.608-14.348 46.867-95.648-13.39-142.993l.956 30.129-31.564 1.913z" fill="#6515DD"/><path d="M418.625 179.393l-1.913-30.607c-25.346 22.477-68.388 27.738-98.517.478l-32.998-2.391-2.869 29.651c39.693 49.258 124.82 45.432 168.339.478l-32.042 2.391z" fill="#6515DD"/><path d="M233.264 132.646l-6.869-6.405 1.239-1.329 1.322 1.023.052-.056c-.222-.66-.288-1.271-.2-1.834.08-.571.289-1.039.628-1.402.305-.327.595-.545.871-.653l1.138 1.584a3.863 3.863 0 00-.397.257 3.042 3.042 0 00-.381.352c-.252.271-.41.655-.474 1.154-.073.489.052 1.085.374 1.787l4.197 3.914-1.5 1.608zM240.911 124.783a5.026 5.026 0 01-1.477 1.107 4.437 4.437 0 01-1.718.412 4.548 4.548 0 01-1.798-.316c-.604-.25-1.191-.64-1.76-1.171-.559-.521-.98-1.08-1.263-1.674a4.84 4.84 0 01-.481-1.757 4.39 4.39 0 01.239-1.686c.189-.539.47-1.009.844-1.41.435-.467.897-.803 1.386-1.01a3.214 3.214 0 011.494-.255c.515.027 1.03.167 1.544.42a6.198 6.198 0 011.906 1.49c.131.14.23.258.297.355l-4.071 4.365c.685.499 1.361.728 2.027.687.666-.059 1.26-.369 1.782-.928.278-.299.493-.613.643-.943a5.29 5.29 0 00.34-1.122l1.516.394a6.778 6.778 0 01-.486 1.587 5.199 5.199 0 01-.964 1.455zm-5.962-2.134l2.844-3.05c-.532-.495-1.055-.766-1.571-.811-.517-.063-.997.143-1.44.619-.383.41-.573.904-.571 1.481.002.578.248 1.165.738 1.761zM246.245 119.063c-.539.578-1.09.823-1.653.734-.562-.088-1.142-.411-1.739-.968l-8.114-7.567 1.5-1.608 8.198 7.645c.196.182.371.276.524.279a.455.455 0 00.334-.133l.091-.098a.838.838 0 00.116-.18l1.399.912c-.107.301-.326.629-.656.984zM251.065 113.894a5.013 5.013 0 01-1.477 1.107 4.437 4.437 0 01-1.718.412 4.548 4.548 0 01-1.798-.316c-.604-.25-1.191-.64-1.76-1.171-.559-.522-.98-1.08-1.263-1.674a4.86 4.86 0 01-.481-1.757 4.409 4.409 0 01.239-1.686c.189-.539.47-1.009.844-1.41.435-.467.897-.803 1.386-1.01a3.214 3.214 0 011.494-.255c.515.027 1.03.167 1.544.42a6.222 6.222 0 011.485 1.044c.158.148.299.297.421.446.131.14.23.258.297.355l-4.071 4.365c.686.499 1.361.728 2.028.687.665-.059 1.259-.369 1.781-.928.278-.299.493-.613.644-.943.15-.348.263-.722.339-1.122l1.517.394a6.778 6.778 0 01-.486 1.587 5.224 5.224 0 01-.965 1.455zm-5.962-2.134l2.844-3.05c-.531-.495-1.055-.766-1.571-.811-.517-.063-.997.143-1.44.619-.383.41-.573.904-.571 1.481.002.578.248 1.165.738 1.761zM256.337 108.24c-.565.606-1.203.926-1.915.96-.721.025-1.385-.245-1.991-.81-.364-.339-.616-.714-.756-1.124-.142-.429-.163-.901-.064-1.419.108-.527.327-1.108.657-1.742.338-.644.801-1.355 1.387-2.133a3.028 3.028 0 00-.582-.386 1.35 1.35 0 00-.629-.194 1.154 1.154 0 00-.646.104c-.223.088-.443.25-.66.483a3.62 3.62 0 00-.73 1.176 9.273 9.273 0 00-.399 1.381l-1.625-.417a9.362 9.362 0 01.571-1.875 5.98 5.98 0 011.169-1.786c.8-.858 1.652-1.258 2.557-1.2.903.041 1.836.51 2.796 1.405l4.072 3.797-1.24 1.329-.86-.593-.052.056a6.761 6.761 0 01-.269 1.607c-.144.51-.408.97-.791 1.381zm-.776-1.692c.261-.28.431-.593.509-.938.087-.355.13-.776.132-1.264l-1.539-1.435c-.379.519-.67.98-.872 1.384-.203.404-.335.761-.396 1.07-.071.3-.071.562 0 .785.071.223.19.413.358.569.308.287.619.403.933.347.314-.056.605-.229.875-.518zM263.299 100.774a5.385 5.385 0 01-1.583 1.165 6.456 6.456 0 01-1.795.55l-.33-1.721a6.413 6.413 0 001.421-.374 3.43 3.43 0 001.122-.81c.348-.374.53-.719.546-1.035.007-.325-.111-.6-.354-.827a.758.758 0 00-.481-.213c-.19-.02-.392 0-.607.062-.214.061-.436.15-.667.267l-.72.323c-.292.145-.603.282-.933.411-.329.129-.66.213-.992.251-.324.03-.645.01-.964-.06a2.208 2.208 0 01-.912-.538c-.606-.565-.891-1.25-.856-2.054.035-.804.413-1.593 1.135-2.368.444-.475.928-.826 1.452-1.052a6.566 6.566 0 011.5-.458l.288 1.654a4.767 4.767 0 00-1.111.35 2.49 2.49 0 00-.886.614c-.321.345-.486.67-.493.978a.928.928 0 00.309.733c.14.13.296.207.469.228.171.003.355-.026.551-.087a4.57 4.57 0 00.628-.252c.23-.117.465-.238.704-.363.302-.155.617-.297.947-.426.32-.137.646-.225.978-.264.342-.048.681-.02 1.019.086.336.088.663.28.981.575.298.278.521.6.669.965.148.346.215.723.202 1.13a3.502 3.502 0 01-.335 1.256c-.201.44-.502.875-.902 1.304zM269.87 93.728a4.993 4.993 0 01-1.477 1.107 4.434 4.434 0 01-1.718.412 4.541 4.541 0 01-1.798-.316c-.604-.25-1.191-.64-1.76-1.17-.559-.522-.98-1.08-1.263-1.675a4.854 4.854 0 01-.481-1.757 4.41 4.41 0 01.239-1.686c.189-.54.47-1.01.844-1.41.435-.467.897-.803 1.386-1.01a3.202 3.202 0 011.494-.255c.515.027 1.03.167 1.544.42a6.2 6.2 0 011.485 1.044c.158.148.299.297.421.446.131.14.23.258.297.355l-4.071 4.365c.686.5 1.361.728 2.028.687.665-.06 1.259-.369 1.781-.928.278-.299.493-.613.644-.943.15-.348.263-.722.339-1.122l1.517.394a6.763 6.763 0 01-.486 1.587 5.206 5.206 0 01-.965 1.455zm-5.962-2.134l2.844-3.05c-.531-.495-1.055-.766-1.571-.811-.517-.063-.997.143-1.44.619-.383.41-.573.904-.571 1.481.002.578.248 1.165.738 1.761zM344.448 29.456c-1.186 0-2.13-.427-2.831-1.282-.689-.867-1.033-2.079-1.033-3.634 0-.766.108-1.454.325-2.066.229-.613.529-1.13.899-1.55.37-.42.791-.746 1.262-.976.485-.23.982-.344 1.493-.344.535 0 .988.096 1.358.287.37.179.739.427 1.109.746l-.076-1.511V15.72h2.2v13.505h-1.818l-.153-1.014h-.076a4.99 4.99 0 01-1.205.88c-.46.243-.944.364-1.454.364zm.535-1.817c.702 0 1.359-.351 1.971-1.053v-4.38c-.332-.294-.657-.498-.976-.612a2.646 2.646 0 00-.937-.173c-.612 0-1.129.268-1.55.804-.421.535-.631 1.3-.631 2.295 0 1.02.179 1.799.536 2.334.369.523.899.785 1.587.785zM355.972 29.456c-.65 0-1.256-.109-1.817-.325a4.437 4.437 0 01-1.473-.976 4.549 4.549 0 01-.995-1.53c-.229-.613-.344-1.308-.344-2.085 0-.766.121-1.454.363-2.066a4.847 4.847 0 01.957-1.55c.408-.42.874-.746 1.396-.976a3.963 3.963 0 011.607-.344c.638 0 1.199.108 1.684.325.484.217.886.523 1.205.919.331.395.58.867.746 1.415.166.548.249 1.148.249 1.798 0 .217-.013.421-.039.612a3.151 3.151 0 01-.057.46h-5.968c.102.841.395 1.492.88 1.95.497.447 1.128.67 1.893.67a3.55 3.55 0 001.129-.172c.357-.127.708-.3 1.052-.516l.746 1.377a6.751 6.751 0 01-1.492.727 5.187 5.187 0 01-1.722.287zm-2.506-5.816h4.171c0-.727-.16-1.294-.479-1.702-.306-.42-.784-.631-1.434-.631-.561 0-1.052.197-1.473.593-.421.395-.683.975-.785 1.74zM361.651 32.937V19.834h1.817l.153.994h.077a6.722 6.722 0 011.319-.86 3.343 3.343 0 011.512-.364c.586 0 1.103.115 1.549.344.459.217.848.536 1.167.957.319.42.561.924.727 1.511.166.587.249 1.244.249 1.97 0 .804-.115 1.524-.345 2.162-.216.625-.51 1.154-.88 1.588-.369.42-.797.746-1.281.976-.485.229-.989.344-1.511.344-.409 0-.817-.09-1.225-.268a4.691 4.691 0 01-1.186-.765l.058 1.568v2.946h-2.2zm4.093-5.298c.625 0 1.148-.268 1.569-.804.421-.548.631-1.358.631-2.43 0-.943-.159-1.676-.478-2.2-.319-.522-.835-.784-1.549-.784-.664 0-1.352.351-2.066 1.053v4.38c.344.294.676.498.994.612.319.115.619.172.899.172zM374.591 29.456c-.791 0-1.346-.236-1.664-.708-.319-.472-.479-1.116-.479-1.932V15.72h2.2v11.21c0 .267.051.459.153.574a.458.458 0 00.326.153h.133a.822.822 0 00.211-.039l.287 1.646c-.293.127-.682.19-1.167.19zM381.487 29.456a4.448 4.448 0 01-1.684-.325 4.293 4.293 0 01-1.434-.957 4.652 4.652 0 01-.976-1.55c-.242-.611-.363-1.306-.363-2.084s.121-1.473.363-2.086a4.654 4.654 0 01.976-1.55c.421-.42.899-.739 1.434-.956a4.234 4.234 0 011.684-.344c.586 0 1.148.115 1.683.344a4.045 4.045 0 011.435.957c.408.42.733.937.976 1.55.255.612.382 1.307.382 2.085 0 .777-.127 1.473-.382 2.085a4.668 4.668 0 01-.976 1.55c-.408.42-.886.739-1.435.956a4.443 4.443 0 01-1.683.325zm0-1.798c.688 0 1.23-.28 1.626-.842.395-.574.593-1.333.593-2.276 0-.957-.198-1.716-.593-2.277-.396-.574-.938-.86-1.626-.86-.689 0-1.231.286-1.626.86-.383.561-.574 1.32-.574 2.276 0 .944.191 1.703.574 2.277.395.561.937.842 1.626.842zM388.66 33.09c-.255 0-.478-.019-.67-.057a2.72 2.72 0 01-.555-.134l.402-1.722c.089.026.191.052.306.077.128.038.249.057.364.057.497 0 .892-.153 1.186-.459.306-.293.535-.676.688-1.148l.173-.593-3.692-9.277h2.238l1.626 4.61c.14.408.274.842.401 1.3l.421 1.34h.077c.115-.434.229-.874.344-1.32.128-.46.249-.9.364-1.32l1.415-4.61h2.124l-3.405 9.813a10.104 10.104 0 01-.632 1.435c-.229.42-.497.778-.803 1.071a2.828 2.828 0 01-1.033.689c-.383.166-.829.248-1.339.248z" fill="#1BFEC0"/><path fill="#6515DD" d="M478 96h32v26h-32z"/><path d="M446.263 114.431c-.816 0-1.562-.147-2.238-.44a4.993 4.993 0 01-1.741-1.301c-.485-.574-.861-1.263-1.129-2.066-.268-.803-.402-1.715-.402-2.736 0-1.007.134-1.906.402-2.697.268-.803.644-1.479 1.129-2.028a4.89 4.89 0 011.741-1.262c.676-.293 1.422-.44 2.238-.44.816 0 1.562.147 2.238.44a4.898 4.898 0 011.741 1.262c.497.549.88 1.225 1.147 2.028.268.791.402 1.69.402 2.697 0 1.021-.134 1.933-.402 2.736-.267.803-.65 1.492-1.147 2.066a5.002 5.002 0 01-1.741 1.301c-.676.293-1.422.44-2.238.44zm0-1.932a2.74 2.74 0 001.339-.326 3.009 3.009 0 001.014-.918c.28-.408.497-.892.65-1.454a7.42 7.42 0 00.23-1.913c0-1.402-.294-2.499-.88-3.29-.574-.803-1.358-1.205-2.353-1.205-.995 0-1.786.402-2.372 1.205-.574.791-.861 1.888-.861 3.29 0 .702.076 1.339.229 1.913.153.562.37 1.046.651 1.454.28.396.618.702 1.014.918.395.217.841.326 1.339.326zM454.103 117.912v-13.103h1.817l.153.994h.076a6.82 6.82 0 011.32-.861 3.346 3.346 0 011.512-.363c.586 0 1.103.115 1.549.344.459.217.848.536 1.167.957a4.5 4.5 0 01.727 1.511c.166.587.249 1.243.249 1.97 0 .804-.115 1.524-.345 2.162-.217.625-.51 1.154-.88 1.588-.37.421-.797.746-1.281.975-.485.23-.989.345-1.512.345a3.04 3.04 0 01-1.224-.268 4.72 4.72 0 01-1.186-.765l.057 1.568v2.946h-2.199zm4.093-5.299c.625 0 1.148-.267 1.569-.803.421-.548.631-1.358.631-2.429 0-.944-.159-1.677-.478-2.2-.319-.523-.835-.785-1.55-.785-.663 0-1.351.351-2.066 1.052v4.381c.345.293.676.497.995.612.319.115.619.172.899.172zM468.917 114.431c-.65 0-1.256-.109-1.817-.325a4.444 4.444 0 01-1.473-.976 4.553 4.553 0 01-.995-1.53c-.229-.613-.344-1.308-.344-2.086 0-.765.121-1.453.364-2.066a4.83 4.83 0 01.956-1.549 4.394 4.394 0 011.397-.976 3.963 3.963 0 011.606-.344c.638 0 1.199.108 1.684.325.484.217.886.523 1.205.918.332.396.58.868.746 1.416.166.548.249 1.148.249 1.798 0 .217-.013.421-.039.612a2.993 2.993 0 01-.057.459h-5.968c.102.842.395 1.493.88 1.952.497.446 1.128.669 1.893.669a3.54 3.54 0 001.129-.172c.357-.128.708-.3 1.052-.516l.746 1.377a6.778 6.778 0 01-1.492.727 5.195 5.195 0 01-1.722.287zm-2.505-5.816h4.17c0-.727-.16-1.294-.478-1.702-.307-.421-.785-.631-1.435-.631-.561 0-1.052.197-1.473.593-.421.395-.682.975-.784 1.74zM474.596 114.201v-9.392h1.817l.153 1.664h.077c.331-.612.733-1.078 1.205-1.397.472-.331.956-.497 1.454-.497.446 0 .803.064 1.071.191l-.383 1.913a4.047 4.047 0 00-.459-.115 2.993 2.993 0 00-.516-.038c-.37 0-.759.147-1.167.44-.408.281-.759.778-1.052 1.492v5.739h-2.2zM483.504 114.431c-.829 0-1.498-.249-2.009-.746-.51-.51-.765-1.18-.765-2.009 0-.497.102-.937.306-1.32.217-.395.549-.733.995-1.014.459-.28 1.033-.516 1.722-.708.701-.191 1.536-.337 2.506-.439a2.989 2.989 0 00-.115-.689 1.36 1.36 0 00-.287-.593 1.16 1.16 0 00-.517-.402c-.216-.102-.484-.153-.803-.153-.459 0-.912.089-1.358.268a9.25 9.25 0 00-1.282.65l-.803-1.473a9.475 9.475 0 011.76-.861 5.981 5.981 0 012.104-.363c1.173 0 2.047.351 2.621 1.052.586.689.88 1.69.88 3.003v5.567h-1.818l-.153-1.033h-.076a6.79 6.79 0 01-1.358.899 3.337 3.337 0 01-1.55.364zm.708-1.722c.382 0 .727-.089 1.033-.268a5.366 5.366 0 001.014-.765v-2.104a9.915 9.915 0 00-1.607.306c-.434.127-.785.274-1.052.44-.268.153-.459.331-.574.536-.115.204-.172.42-.172.65 0 .421.127.727.382.918.255.191.58.287.976.287zM494.102 114.431c-.549 0-1.014-.083-1.397-.249a2.483 2.483 0 01-.918-.689 3.211 3.211 0 01-.516-1.071 5.929 5.929 0 01-.153-1.396v-4.477h-1.339v-1.645l1.453-.095.268-2.564h1.837v2.564h2.391v1.74h-2.391v4.477c0 1.096.44 1.645 1.32 1.645.165 0 .331-.019.497-.058.178-.038.338-.089.478-.153l.383 1.626c-.255.09-.549.166-.88.23a4.447 4.447 0 01-1.033.115zM501.423 114.431a5.02 5.02 0 01-1.818-.325 4.444 4.444 0 01-1.473-.976 4.55 4.55 0 01-.994-1.53c-.23-.613-.345-1.308-.345-2.086 0-.765.122-1.453.364-2.066a4.83 4.83 0 01.956-1.549 4.394 4.394 0 011.397-.976 3.968 3.968 0 011.607-.344c.637 0 1.198.108 1.683.325.485.217.886.523 1.205.918.332.396.58.868.746 1.416a6.183 6.183 0 01.211 2.41 3.103 3.103 0 01-.058.459h-5.968c.102.842.395 1.493.88 1.952.497.446 1.128.669 1.894.669.408 0 .784-.057 1.128-.172.357-.128.708-.3 1.052-.516l.746 1.377a6.778 6.778 0 01-1.492.727 5.193 5.193 0 01-1.721.287zm-2.506-5.816h4.17c0-.727-.159-1.294-.478-1.702-.306-.421-.785-.631-1.435-.631-.561 0-1.052.197-1.473.593-.421.395-.682.975-.784 1.74zM335.561 194.697v-9.393h1.817l.153 1.282h.076a6.778 6.778 0 011.282-1.072 2.95 2.95 0 011.588-.44c.689 0 1.237.147 1.645.44.421.294.74.708.957 1.244a7.484 7.484 0 011.396-1.205 2.895 2.895 0 011.626-.479c.995 0 1.728.326 2.2.976.472.638.708 1.556.708 2.755v5.892h-2.219v-5.605c0-.778-.121-1.327-.364-1.646-.229-.318-.586-.478-1.071-.478-.587 0-1.243.389-1.97 1.167v6.562h-2.2v-5.605c0-.778-.121-1.327-.364-1.646-.229-.318-.593-.478-1.09-.478-.587 0-1.244.389-1.97 1.167v6.562h-2.2zM355.528 194.926a4.444 4.444 0 01-1.684-.325 4.29 4.29 0 01-1.435-.957 4.641 4.641 0 01-.975-1.549c-.243-.612-.364-1.307-.364-2.085s.121-1.473.364-2.085a4.656 4.656 0 01.975-1.55 4.287 4.287 0 011.435-.956 4.226 4.226 0 011.684-.345c.586 0 1.147.115 1.683.345a4.052 4.052 0 011.435.956c.408.421.733.938.975 1.55.255.612.383 1.307.383 2.085s-.128 1.473-.383 2.085a4.641 4.641 0 01-.975 1.549c-.408.421-.887.74-1.435.957a4.442 4.442 0 01-1.683.325zm0-1.798c.688 0 1.23-.281 1.626-.842.395-.574.593-1.332.593-2.276 0-.957-.198-1.715-.593-2.277-.396-.574-.938-.86-1.626-.86-.689 0-1.231.286-1.626.86-.383.562-.574 1.32-.574 2.277 0 .944.191 1.702.574 2.276.395.561.937.842 1.626.842zM362.181 194.697v-9.393h1.818l.153 1.262h.076a7.666 7.666 0 011.358-1.052c.498-.293 1.072-.44 1.722-.44 1.007 0 1.741.326 2.2.976.459.638.689 1.556.689 2.755v5.892h-2.2v-5.605c0-.778-.115-1.327-.345-1.646-.229-.318-.605-.478-1.128-.478-.408 0-.772.102-1.091.306-.306.192-.656.479-1.052.861v6.562h-2.2zM372.886 194.697v-9.393h2.199v9.393h-2.199zm1.109-11.038c-.395 0-.72-.115-.975-.345-.256-.229-.383-.529-.383-.899 0-.369.127-.669.383-.899.255-.242.58-.363.975-.363s.721.121.976.363c.255.23.382.53.382.899 0 .37-.127.67-.382.899-.255.23-.581.345-.976.345zM381.202 194.926c-.549 0-1.014-.083-1.397-.249a2.481 2.481 0 01-.918-.688 3.209 3.209 0 01-.517-1.072 5.923 5.923 0 01-.153-1.396v-4.476h-1.339V185.4l1.454-.096.268-2.563h1.836v2.563h2.392v1.741h-2.392v4.476c0 1.097.44 1.645 1.32 1.645.166 0 .332-.019.498-.057.178-.038.338-.089.478-.153l.382 1.626a6.195 6.195 0 01-.879.229 4.4 4.4 0 01-1.033.115zM388.35 194.926a4.442 4.442 0 01-1.683-.325 4.29 4.29 0 01-1.435-.957 4.641 4.641 0 01-.975-1.549c-.243-.612-.364-1.307-.364-2.085s.121-1.473.364-2.085a4.656 4.656 0 01.975-1.55 4.287 4.287 0 011.435-.956 4.224 4.224 0 011.683-.345c.587 0 1.148.115 1.684.345a4.048 4.048 0 011.434.956c.409.421.734.938.976 1.55.255.612.383 1.307.383 2.085s-.128 1.473-.383 2.085a4.627 4.627 0 01-.976 1.549c-.408.421-.886.74-1.434.957a4.444 4.444 0 01-1.684.325zm0-1.798c.689 0 1.231-.281 1.626-.842.396-.574.593-1.332.593-2.276 0-.957-.197-1.715-.593-2.277-.395-.574-.937-.86-1.626-.86-.688 0-1.23.286-1.626.86-.382.562-.574 1.32-.574 2.277 0 .944.192 1.702.574 2.276.396.561.938.842 1.626.842zM395.004 194.697v-9.393h1.817l.153 1.664h.077c.332-.612.733-1.077 1.205-1.396.472-.332.957-.498 1.454-.498.446 0 .803.064 1.071.192l-.382 1.913a3.906 3.906 0 00-.46-.115 2.896 2.896 0 00-.516-.038c-.37 0-.759.146-1.167.44-.408.28-.759.778-1.052 1.492v5.739h-2.2z" fill="#1BFEC0"/></svg>