<svg width="401" height="435" viewBox="0 0 401 435" fill="none" xmlns="http://www.w3.org/2000/svg">
<path d="M400.805 4.28027L400.805 0.804932L397.33 0.804931L397.33 4.28027L400.805 4.28027Z" fill="#6515DD"/>
<path d="M400.805 12.4126L400.805 8.93723L397.33 8.93723L397.33 12.4126L400.805 12.4126Z" fill="#6515DD"/>
<path d="M400.805 20.5449L400.805 17.0695L397.33 17.0695L397.33 20.5449L400.805 20.5449Z" fill="#6515DD"/>
<path d="M400.805 28.6771L400.805 25.2018L397.33 25.2018L397.33 28.6771L400.805 28.6771Z" fill="#6515DD"/>
<path d="M400.805 36.8094L400.805 33.3341L397.33 33.3341L397.33 36.8094L400.805 36.8094Z" fill="#6515DD"/>
<path d="M400.805 44.9417L400.805 41.4664L397.33 41.4664L397.33 44.9417L400.805 44.9417Z" fill="#6515DD"/>
<path d="M400.805 53.1435L400.805 49.6682L397.33 49.6682L397.33 53.1435L400.805 53.1435Z" fill="#6515DD"/>
<path d="M400.805 61.2758L400.805 57.8004L397.33 57.8004L397.33 61.2758L400.805 61.2758Z" fill="#6515DD"/>
<path d="M400.805 69.4081L400.805 65.9327L397.33 65.9327L397.33 69.4081L400.805 69.4081Z" fill="#6515DD"/>
<path d="M400.805 77.5403L400.805 74.065L397.33 74.065L397.33 77.5403L400.805 77.5403Z" fill="#6515DD"/>
<path d="M400.805 85.6727L400.805 82.1973L397.33 82.1973L397.33 85.6727L400.805 85.6727Z" fill="#6515DD"/>
<path d="M400.805 93.8049L400.805 90.3296L397.33 90.3296L397.33 93.8049L400.805 93.8049Z" fill="#6515DD"/>
<path d="M392.673 4.28027L392.673 0.804932L389.197 0.804931L389.197 4.28027L392.673 4.28027Z" fill="#6515DD"/>
<path d="M392.673 12.4126L392.673 8.93726L389.197 8.93726L389.197 12.4126L392.673 12.4126Z" fill="#6515DD"/>
<path d="M392.673 20.5449L392.673 17.0695L389.197 17.0695L389.197 20.5449L392.673 20.5449Z" fill="#6515DD"/>
<path d="M392.673 28.6771L392.673 25.2018L389.197 25.2018L389.197 28.6771L392.673 28.6771Z" fill="#6515DD"/>
<path d="M392.673 36.8094L392.673 33.3341L389.197 33.3341L389.197 36.8094L392.673 36.8094Z" fill="#6515DD"/>
<path d="M392.673 44.9417L392.673 41.4664L389.197 41.4664L389.197 44.9417L392.673 44.9417Z" fill="#6515DD"/>
<path d="M392.673 53.1435L392.673 49.6682L389.197 49.6682L389.197 53.1435L392.673 53.1435Z" fill="#6515DD"/>
<path d="M392.673 61.2758L392.673 57.8004L389.197 57.8004L389.197 61.2758L392.673 61.2758Z" fill="#6515DD"/>
<path d="M392.673 69.4081L392.673 65.9327L389.197 65.9327L389.197 69.4081L392.673 69.4081Z" fill="#6515DD"/>
<path d="M392.673 77.5403L392.673 74.065L389.197 74.065L389.197 77.5403L392.673 77.5403Z" fill="#6515DD"/>
<path d="M392.673 85.6727L392.673 82.1973L389.197 82.1973L389.197 85.6727L392.673 85.6727Z" fill="#6515DD"/>
<path d="M392.673 93.8049L392.673 90.3296L389.197 90.3296L389.197 93.8049L392.673 93.8049Z" fill="#6515DD"/>
<path d="M384.471 4.28027L384.471 0.804932L380.995 0.804931L380.995 4.28027L384.471 4.28027Z" fill="#6515DD"/>
<path d="M384.471 12.4126L384.471 8.93726L380.995 8.93726L380.995 12.4126L384.471 12.4126Z" fill="#6515DD"/>
<path d="M384.471 20.5449L384.471 17.0695L380.995 17.0695L380.995 20.5449L384.471 20.5449Z" fill="#6515DD"/>
<path d="M384.471 28.6771L384.471 25.2018L380.995 25.2018L380.995 28.6771L384.471 28.6771Z" fill="#6515DD"/>
<path d="M384.471 36.8094L384.471 33.3341L380.995 33.3341L380.995 36.8094L384.471 36.8094Z" fill="#6515DD"/>
<path d="M384.471 44.9417L384.471 41.4664L380.995 41.4664L380.995 44.9417L384.471 44.9417Z" fill="#6515DD"/>
<path d="M384.471 53.1435L384.471 49.6682L380.995 49.6682L380.995 53.1435L384.471 53.1435Z" fill="#6515DD"/>
<path d="M384.471 61.2758L384.471 57.8004L380.995 57.8004L380.995 61.2758L384.471 61.2758Z" fill="#6515DD"/>
<path d="M384.471 69.4081L384.471 65.9327L380.995 65.9327L380.995 69.4081L384.471 69.4081Z" fill="#6515DD"/>
<path d="M384.471 77.5403L384.471 74.065L380.995 74.065L380.995 77.5403L384.471 77.5403Z" fill="#6515DD"/>
<path d="M384.471 85.6727L384.471 82.1973L380.995 82.1973L380.995 85.6727L384.471 85.6727Z" fill="#6515DD"/>
<path d="M384.471 93.8049L384.471 90.3296L380.995 90.3296L380.995 93.8049L384.471 93.8049Z" fill="#6515DD"/>
<path d="M376.339 4.28027L376.339 0.804932L372.863 0.804931L372.863 4.28027L376.339 4.28027Z" fill="#6515DD"/>
<path d="M376.339 12.4126L376.339 8.93726L372.863 8.93726L372.863 12.4126L376.339 12.4126Z" fill="#6515DD"/>
<path d="M376.339 20.5449L376.339 17.0695L372.863 17.0695L372.863 20.5449L376.339 20.5449Z" fill="#6515DD"/>
<path d="M376.339 28.6771L376.339 25.2018L372.863 25.2018L372.863 28.6771L376.339 28.6771Z" fill="#6515DD"/>
<path d="M376.339 36.8094L376.339 33.3341L372.863 33.3341L372.863 36.8094L376.339 36.8094Z" fill="#6515DD"/>
<path d="M376.339 44.9417L376.339 41.4664L372.863 41.4664L372.863 44.9417L376.339 44.9417Z" fill="#6515DD"/>
<path d="M376.339 53.1435L376.339 49.6682L372.863 49.6682L372.863 53.1435L376.339 53.1435Z" fill="#6515DD"/>
<path d="M376.339 61.2758L376.339 57.8004L372.863 57.8004L372.863 61.2758L376.339 61.2758Z" fill="#6515DD"/>
<path d="M376.339 69.4081L376.339 65.9327L372.863 65.9327L372.863 69.4081L376.339 69.4081Z" fill="#6515DD"/>
<path d="M376.339 77.5403L376.339 74.065L372.863 74.065L372.863 77.5403L376.339 77.5403Z" fill="#6515DD"/>
<path d="M376.339 85.6727L376.339 82.1973L372.863 82.1973L372.863 85.6727L376.339 85.6727Z" fill="#6515DD"/>
<path d="M376.339 93.8049L376.339 90.3296L372.863 90.3296L372.863 93.8049L376.339 93.8049Z" fill="#6515DD"/>
<path d="M368.137 4.28027L368.137 0.804932L364.661 0.804931L364.661 4.28027L368.137 4.28027Z" fill="#6515DD"/>
<path d="M368.137 12.4126L368.137 8.93726L364.661 8.93726L364.661 12.4126L368.137 12.4126Z" fill="#6515DD"/>
<path d="M368.137 20.5449L368.137 17.0695L364.661 17.0695L364.661 20.5449L368.137 20.5449Z" fill="#6515DD"/>
<path d="M368.137 28.6771L368.137 25.2018L364.661 25.2018L364.661 28.6771L368.137 28.6771Z" fill="#6515DD"/>
<path d="M368.137 36.8094L368.137 33.3341L364.661 33.3341L364.661 36.8094L368.137 36.8094Z" fill="#6515DD"/>
<path d="M368.137 44.9417L368.137 41.4664L364.661 41.4664L364.661 44.9417L368.137 44.9417Z" fill="#6515DD"/>
<path d="M368.137 53.1435L368.137 49.6682L364.661 49.6682L364.661 53.1435L368.137 53.1435Z" fill="#6515DD"/>
<path d="M368.137 61.2758L368.137 57.8004L364.661 57.8004L364.661 61.2758L368.137 61.2758Z" fill="#6515DD"/>
<path d="M368.137 69.4081L368.137 65.9327L364.661 65.9327L364.661 69.4081L368.137 69.4081Z" fill="#6515DD"/>
<path d="M368.137 77.5403L368.137 74.065L364.661 74.065L364.661 77.5403L368.137 77.5403Z" fill="#6515DD"/>
<path d="M368.137 85.6727L368.137 82.1973L364.661 82.1973L364.661 85.6727L368.137 85.6727Z" fill="#6515DD"/>
<path d="M368.137 93.8049L368.137 90.3296L364.661 90.3296L364.661 93.8049L368.137 93.8049Z" fill="#6515DD"/>
<path d="M360.005 4.28027L360.005 0.804932L356.529 0.804931L356.529 4.28027L360.005 4.28027Z" fill="#6515DD"/>
<path d="M360.005 12.4126L360.005 8.93726L356.529 8.93726L356.529 12.4126L360.005 12.4126Z" fill="#6515DD"/>
<path d="M360.005 20.5449L360.005 17.0695L356.529 17.0695L356.529 20.5449L360.005 20.5449Z" fill="#6515DD"/>
<path d="M360.005 28.6771L360.005 25.2018L356.529 25.2018L356.529 28.6771L360.005 28.6771Z" fill="#6515DD"/>
<path d="M360.005 36.8094L360.005 33.3341L356.529 33.3341L356.529 36.8094L360.005 36.8094Z" fill="#6515DD"/>
<path d="M360.005 44.9417L360.005 41.4664L356.529 41.4664L356.529 44.9417L360.005 44.9417Z" fill="#6515DD"/>
<path d="M360.005 53.1435L360.005 49.6682L356.529 49.6682L356.529 53.1435L360.005 53.1435Z" fill="#6515DD"/>
<path d="M360.005 61.2758L360.005 57.8004L356.529 57.8004L356.529 61.2758L360.005 61.2758Z" fill="#6515DD"/>
<path d="M360.005 69.4081L360.005 65.9327L356.529 65.9327L356.529 69.4081L360.005 69.4081Z" fill="#6515DD"/>
<path d="M360.005 77.5403L360.005 74.065L356.529 74.065L356.529 77.5403L360.005 77.5403Z" fill="#6515DD"/>
<path d="M360.005 85.6727L360.005 82.1973L356.529 82.1973L356.529 85.6727L360.005 85.6727Z" fill="#6515DD"/>
<path d="M360.005 93.8049L360.005 90.3296L356.529 90.3296L356.529 93.8049L360.005 93.8049Z" fill="#6515DD"/>
<path d="M351.803 4.28027L351.803 0.804932L348.327 0.804931L348.327 4.28027L351.803 4.28027Z" fill="#6515DD"/>
<path d="M351.803 12.4126L351.803 8.93726L348.327 8.93726L348.327 12.4126L351.803 12.4126Z" fill="#6515DD"/>
<path d="M351.803 20.5449L351.803 17.0695L348.327 17.0695L348.327 20.5449L351.803 20.5449Z" fill="#6515DD"/>
<path d="M351.803 28.6771L351.803 25.2018L348.327 25.2018L348.327 28.6771L351.803 28.6771Z" fill="#6515DD"/>
<path d="M351.803 36.8094L351.803 33.3341L348.327 33.3341L348.327 36.8094L351.803 36.8094Z" fill="#6515DD"/>
<path d="M351.803 44.9417L351.803 41.4664L348.327 41.4664L348.327 44.9417L351.803 44.9417Z" fill="#6515DD"/>
<path d="M351.803 53.1435L351.803 49.6682L348.327 49.6682L348.327 53.1435L351.803 53.1435Z" fill="#6515DD"/>
<path d="M351.803 61.2758L351.803 57.8004L348.327 57.8004L348.327 61.2758L351.803 61.2758Z" fill="#6515DD"/>
<path d="M351.803 69.4081L351.803 65.9327L348.327 65.9327L348.327 69.4081L351.803 69.4081Z" fill="#6515DD"/>
<path d="M351.803 77.5403L351.803 74.065L348.327 74.065L348.327 77.5403L351.803 77.5403Z" fill="#6515DD"/>
<path d="M351.803 85.6727L351.803 82.1973L348.327 82.1973L348.327 85.6727L351.803 85.6727Z" fill="#6515DD"/>
<path d="M351.803 93.8049L351.803 90.3296L348.327 90.3296L348.327 93.8049L351.803 93.8049Z" fill="#6515DD"/>
<path d="M343.67 4.28027L343.67 0.804932L340.195 0.804931L340.195 4.28027L343.67 4.28027Z" fill="#6515DD"/>
<path d="M343.67 12.4126L343.67 8.93726L340.195 8.93726L340.195 12.4126L343.67 12.4126Z" fill="#6515DD"/>
<path d="M343.67 20.5449L343.67 17.0695L340.195 17.0695L340.195 20.5449L343.67 20.5449Z" fill="#6515DD"/>
<path d="M343.67 28.6771L343.67 25.2018L340.195 25.2018L340.195 28.6771L343.67 28.6771Z" fill="#6515DD"/>
<path d="M343.67 36.8094L343.67 33.3341L340.195 33.3341L340.195 36.8094L343.67 36.8094Z" fill="#6515DD"/>
<path d="M343.67 44.9417L343.67 41.4664L340.195 41.4664L340.195 44.9417L343.67 44.9417Z" fill="#6515DD"/>
<path d="M343.67 53.1435L343.67 49.6682L340.195 49.6682L340.195 53.1435L343.67 53.1435Z" fill="#6515DD"/>
<path d="M343.67 61.2758L343.67 57.8004L340.195 57.8004L340.195 61.2758L343.67 61.2758Z" fill="#6515DD"/>
<path d="M343.67 69.4081L343.67 65.9327L340.195 65.9327L340.195 69.4081L343.67 69.4081Z" fill="#6515DD"/>
<path d="M343.67 77.5403L343.67 74.065L340.195 74.065L340.195 77.5403L343.67 77.5403Z" fill="#6515DD"/>
<path d="M343.67 85.6727L343.67 82.1973L340.195 82.1973L340.195 85.6727L343.67 85.6727Z" fill="#6515DD"/>
<path d="M343.67 93.8049L343.67 90.3296L340.195 90.3296L340.195 93.8049L343.67 93.8049Z" fill="#6515DD"/>
<rect width="336" height="411" transform="matrix(-1 0 0 1 366 23)" fill="#0B092E"/>
<path fill-rule="evenodd" clip-rule="evenodd" d="M365 140H31V139H365V140ZM31 142.924H365V143.924H31V142.924ZM31 147.613H365V148.613H31V147.613ZM31 151.904H365V152.904H31V151.904ZM31 156H365V157H31V156Z" fill="#6337A5"/>
<path d="M270 338L270 23L366 23L366 434C340.539 434 316.121 423.886 298.118 405.882C280.114 387.879 270 363.461 270 338Z" fill="#25015A"/>
<path fill-rule="evenodd" clip-rule="evenodd" d="M332.013 372.088C340.92 380.996 353.002 386 365.6 386L365.6 387C352.737 387 340.401 381.89 331.305 372.795C322.21 363.699 317.1 351.363 317.1 338.5L317.1 23L318.1 23L318.1 338.5C318.1 351.098 323.105 363.18 332.013 372.088Z" fill="#935BE7"/>
<path d="M162.2 321.3C162.2 323.233 160.633 324.8 158.7 324.8C156.767 324.8 155.2 323.233 155.2 321.3C155.2 319.367 156.767 317.8 158.7 317.8C160.633 317.8 162.2 319.367 162.2 321.3Z" fill="#935BE7"/>
<path d="M128.2 283.3C128.2 285.233 129.767 286.8 131.7 286.8C133.633 286.8 135.2 285.233 135.2 283.3C135.2 281.367 133.633 279.8 131.7 279.8C129.767 279.8 128.2 281.367 128.2 283.3Z" fill="#935BE7"/>
<path d="M218.2 318.3C218.2 320.233 216.633 321.8 214.7 321.8C212.767 321.8 211.2 320.233 211.2 318.3C211.2 316.367 212.767 314.8 214.7 314.8C216.633 314.8 218.2 316.367 218.2 318.3Z" fill="#935BE7"/>
<path d="M257.2 186.3C257.2 184.367 255.633 182.8 253.7 182.8C251.767 182.8 250.2 184.367 250.2 186.3C250.2 188.233 251.767 189.8 253.7 189.8C255.633 189.8 257.2 188.233 257.2 186.3Z" fill="#935BE7"/>
<path fill-rule="evenodd" clip-rule="evenodd" d="M153.767 95.9668L29.9668 95.9668L29.9668 96.9668L153.767 96.9668C154.907 96.9668 156.001 97.4198 156.807 98.2262C157.614 99.0326 158.067 100.126 158.067 101.267L158.067 320.667L159.067 320.667L159.067 101.267C159.067 99.8611 158.508 98.5131 157.514 97.5191C156.521 96.5252 155.172 95.9668 153.767 95.9668Z" fill="#935BE7"/>
<path fill-rule="evenodd" clip-rule="evenodd" d="M210 229.8L158.2 229.8L158.2 230.8L210 230.8C211.141 230.8 212.234 231.253 213.041 232.059C213.847 232.866 214.3 233.959 214.3 235.1L214.3 318.5L215.3 318.5L215.3 235.1C215.3 233.694 214.742 232.346 213.748 231.352C212.754 230.358 211.406 229.8 210 229.8Z" fill="#935BE7"/>
<path fill-rule="evenodd" clip-rule="evenodd" d="M136.4 255.8L158.2 255.8L158.2 256.8L136.4 256.8C135.26 256.8 134.166 257.253 133.36 258.059C132.553 258.866 132.1 259.959 132.1 261.1L132.1 281.5L131.1 281.5L131.1 261.1C131.1 259.694 131.658 258.346 132.652 257.352C133.646 256.358 134.994 255.8 136.4 255.8Z" fill="#935BE7"/>
<path fill-rule="evenodd" clip-rule="evenodd" d="M190 219.5L158.2 219.5L158.2 218.5L190 218.5C191.14 218.5 192.234 218.047 193.041 217.241C193.847 216.434 194.3 215.34 194.3 214.2L194.3 194.8L195.3 194.8L195.3 214.2C195.3 215.606 194.742 216.954 193.748 217.948C192.754 218.942 191.406 219.5 190 219.5Z" fill="#935BE7"/>
<path fill-rule="evenodd" clip-rule="evenodd" d="M199.6 185.8L252.4 185.8L252.4 186.8L199.6 186.8C198.46 186.8 197.366 187.253 196.559 188.059C195.753 188.866 195.3 189.96 195.3 191.1L195.3 210.5L194.3 210.5L194.3 191.1C194.3 189.694 194.858 188.346 195.852 187.352C196.846 186.358 198.194 185.8 199.6 185.8Z" fill="#935BE7"/>
<path d="M30.25 338.25C55.7108 338.25 80.1288 348.364 98.1322 366.368C116.136 384.371 126.25 408.789 126.25 434.25L30.25 434.25L30.25 338.25Z" fill="#3D0D85"/>
<path fill-rule="evenodd" clip-rule="evenodd" d="M29.75 385.75C42.613 385.75 53.9492 390.86 63.0447 399.955C72.1402 409.051 77.25 421.387 77.25 434.25L76.25 434.25C76.25 421.652 71.2456 409.57 62.3376 400.662C53.4296 391.754 42.3478 386.75 29.75 386.75L29.75 385.75Z" fill="#935BE7"/>
<path fill-rule="evenodd" clip-rule="evenodd" d="M128.936 36.8063L105.472 49.6783L104.991 48.8016L128.455 35.9296L128.936 36.8063ZM184.44 35.9296L207.904 48.8016L207.423 49.6783L183.959 36.8063L184.44 35.9296ZM138.738 51.7451L124.49 71.0251L123.686 70.4308L137.934 51.1508L138.738 51.7451ZM174.874 51.1508L189.122 70.4308L188.318 71.0251L174.07 51.7451L174.874 51.1508ZM156.268 76.592L156.268 57.92H157.268L157.268 76.592H156.268Z" fill="#6515DD"/>
<path d="M156.768 57.92C164.704 57.92 172.315 54.768 177.927 49.1572C183.54 43.5463 186.694 35.936 186.696 28L126.848 28C126.85 35.9347 130.003 43.5437 135.614 49.1543C141.224 54.765 148.833 57.9179 156.768 57.92V57.92Z" fill="#3D0D85"/>
<path d="M156.768 52.992C163.397 52.992 169.755 50.3592 174.443 45.6725C179.131 40.9859 181.766 34.6291 181.768 28L131.76 28C131.761 31.2831 132.409 34.5338 133.666 37.5665C134.923 40.5992 136.766 43.3546 139.088 45.6753C141.41 47.9961 144.167 49.8367 147.2 51.0921C150.234 52.3475 153.485 52.9931 156.768 52.992Z" fill="#6515DD"/>
<path d="M156.768 44.328C161.1 44.328 165.255 42.6082 168.319 39.5466C171.384 36.485 173.108 32.3319 173.112 28L140.448 28C140.452 32.3278 142.173 36.4772 145.232 39.5381C148.292 42.5991 152.44 44.3217 156.768 44.328Z" fill="#3D0D85"/>
<path d="M156.768 80.0081C158.261 80.0081 159.472 78.7975 159.472 77.3041C159.472 75.8108 158.261 74.6001 156.768 74.6001C155.275 74.6001 154.064 75.8108 154.064 77.3041C154.064 78.7975 155.275 80.0081 156.768 80.0081Z" fill="#6515DD"/>
<path d="M189.104 73.952C190.597 73.952 191.808 72.7414 191.808 71.248C191.808 69.7546 190.597 68.544 189.104 68.544C187.611 68.544 186.4 69.7546 186.4 71.248C186.4 72.7414 187.611 73.952 189.104 73.952Z" fill="#6515DD"/>
<path d="M208.192 52.232C209.685 52.232 210.896 51.0214 210.896 49.528C210.896 48.0346 209.685 46.824 208.192 46.824C206.699 46.824 205.488 48.0346 205.488 49.528C205.488 51.0214 206.699 52.232 208.192 52.232Z" fill="#6515DD"/>
<path d="M104.704 52.232C106.197 52.232 107.408 51.0214 107.408 49.528C107.408 48.0346 106.197 46.824 104.704 46.824C103.211 46.824 102 48.0346 102 49.528C102 51.0214 103.211 52.232 104.704 52.232Z" fill="#6515DD"/>
<path d="M123.704 73.952C125.197 73.952 126.408 72.7414 126.408 71.248C126.408 69.7546 125.197 68.544 123.704 68.544C122.211 68.544 121 69.7546 121 71.248C121 72.7414 122.211 73.952 123.704 73.952Z" fill="#6515DD"/>
<path d="M0 92C0 86.4772 4.47715 82 10 82H107V107C107 112.523 102.523 117 97 117H10C4.47715 117 0 112.523 0 107V92Z" fill="#6515DD"/>
<path d="M35.8915 105H33.4615V94.995H37.9615C39.1615 94.995 40.0865 95.265 40.7365 95.805C41.3965 96.345 41.7265 97.16 41.7265 98.25C41.7265 99.36 41.3915 100.215 40.7215 100.815C40.0615 101.415 39.1415 101.715 37.9615 101.715H35.8915V105ZM37.6615 99.84C38.1515 99.84 38.5115 99.715 38.7415 99.465C38.9815 99.205 39.1015 98.855 39.1015 98.415C39.1015 97.395 38.6215 96.885 37.6615 96.885H35.8915V99.84H37.6615Z" fill="white"/>
<path d="M44.3225 94.995H46.7525V103.095H51.1025V105H44.3225V94.995Z" fill="white"/>
<path d="M59.4228 102.84H55.6878L54.9678 105H52.6728L56.4528 94.995H59.1078L62.6478 105H60.1578L59.4228 102.84ZM58.8228 101.055L57.5478 97.275L56.2878 101.055H58.8228Z" fill="white"/>
<path d="M73.5439 94.995V105H71.7139L67.0489 98.91V105H64.8139V94.995H66.8839L71.3089 100.95V94.995H73.5439Z" fill="white"/>
<path d="M0 214C0 208.477 4.47715 204 10 204H107V229C107 234.523 102.523 239 97 239H10C4.47715 239 0 234.523 0 229V214Z" fill="#6515DD"/>
<path d="M37.1364 221.645C37.6864 221.825 38.1114 222.115 38.4114 222.515C38.7214 222.905 38.8764 223.39 38.8764 223.97C38.8764 224.97 38.5314 225.725 37.8414 226.235C37.1514 226.745 36.2614 227 35.1714 227H30.5214V216.995H34.7664C35.9064 216.995 36.7914 217.22 37.4214 217.67C38.0514 218.11 38.3664 218.81 38.3664 219.77C38.3664 220.55 37.9564 221.175 37.1364 221.645ZM32.9514 220.925H34.9014C35.1714 220.925 35.4014 220.845 35.5914 220.685C35.7914 220.525 35.8914 220.285 35.8914 219.965C35.8914 219.245 35.5114 218.885 34.7514 218.885H32.9514V220.925ZM34.9914 225.125C35.3914 225.135 35.7214 225.04 35.9814 224.84C36.2514 224.64 36.3864 224.32 36.3864 223.88C36.3864 223.46 36.2514 223.16 35.9814 222.98C35.7114 222.8 35.3664 222.71 34.9464 222.71H32.9514V225.125H34.9914Z" fill="white"/>
<path d="M46.0898 227.315C44.5398 227.315 43.3848 226.985 42.6248 226.325C41.8648 225.665 41.4848 224.645 41.4848 223.265V216.995H44.0198V223.16C44.0198 223.93 44.1748 224.5 44.4848 224.87C44.7948 225.24 45.2898 225.425 45.9698 225.425C46.5998 225.425 47.0848 225.235 47.4248 224.855C47.7648 224.475 47.9348 223.91 47.9348 223.16V216.995H50.2448V223.265C50.2448 224.615 49.8698 225.63 49.1198 226.31C48.3798 226.98 47.3698 227.315 46.0898 227.315Z" fill="white"/>
<path d="M53.2686 216.995H55.6986V227H53.2686V216.995Z" fill="white"/>
<path d="M58.7243 216.995H61.1543V225.095H65.5043V227H58.7243V216.995Z" fill="white"/>
<path d="M67.9446 216.995H71.9646C73.6446 216.995 74.8896 217.415 75.6996 218.255C76.5096 219.085 76.9146 220.335 76.9146 222.005C76.9146 223.665 76.5096 224.915 75.6996 225.755C74.8896 226.585 73.6446 227 71.9646 227H67.9446V216.995ZM71.6796 225.125C72.5896 225.125 73.2746 224.87 73.7346 224.36C74.1946 223.85 74.4246 223.065 74.4246 222.005C74.4246 220.925 74.1946 220.135 73.7346 219.635C73.2746 219.125 72.5896 218.87 71.6796 218.87H70.3746V225.125H71.6796Z" fill="white"/>
<path d="M394 140C394 134.477 389.523 130 384 130H287V155C287 160.523 291.477 165 297 165H384C389.523 165 394 160.523 394 155V140Z" fill="#3D0D85"/>
<path d="M310.055 142.995H314.075C315.755 142.995 317 143.415 317.81 144.255C318.62 145.085 319.025 146.335 319.025 148.005C319.025 149.665 318.62 150.915 317.81 151.755C317 152.585 315.755 153 314.075 153H310.055V142.995ZM313.79 151.125C314.7 151.125 315.385 150.87 315.845 150.36C316.305 149.85 316.535 149.065 316.535 148.005C316.535 146.925 316.305 146.135 315.845 145.635C315.385 145.125 314.7 144.87 313.79 144.87H312.485V151.125H313.79Z" fill="white"/>
<path d="M321.619 142.995H328.474V144.87H324.049V147.045H327.889V148.935H324.049V151.125H328.474V153H321.619V142.995Z" fill="white"/>
<path d="M333.84 153H331.41V142.995H335.91C337.11 142.995 338.035 143.265 338.685 143.805C339.345 144.345 339.675 145.16 339.675 146.25C339.675 147.36 339.34 148.215 338.67 148.815C338.01 149.415 337.09 149.715 335.91 149.715H333.84V153ZM335.61 147.84C336.1 147.84 336.46 147.715 336.69 147.465C336.93 147.205 337.05 146.855 337.05 146.415C337.05 145.395 336.57 144.885 335.61 144.885H333.84V147.84H335.61Z" fill="white"/>
<path d="M342.271 142.995H344.701V151.095H349.051V153H342.271V142.995Z" fill="white"/>
<path d="M355.947 153.21C354.417 153.21 353.222 152.775 352.362 151.905C351.502 151.035 351.072 149.735 351.072 148.005C351.072 146.305 351.492 145.015 352.332 144.135C353.182 143.245 354.387 142.8 355.947 142.8C357.477 142.8 358.672 143.235 359.532 144.105C360.402 144.965 360.837 146.26 360.837 147.99C360.837 149.69 360.412 150.985 359.562 151.875C358.722 152.765 357.517 153.21 355.947 153.21ZM355.947 151.215C356.737 151.215 357.332 150.965 357.732 150.465C358.132 149.965 358.332 149.14 358.332 147.99C358.332 146.84 358.132 146.02 357.732 145.53C357.342 145.03 356.747 144.78 355.947 144.78C355.157 144.78 354.562 145.03 354.162 145.53C353.772 146.03 353.577 146.86 353.577 148.02C353.577 149.16 353.772 149.98 354.162 150.48C354.562 150.97 355.157 151.215 355.947 151.215Z" fill="white"/>
<path d="M368.164 148.71V153H365.734V148.665L361.939 142.995H364.924L367.189 146.79L369.244 142.995H371.659L368.164 148.71Z" fill="white"/>
<path d="M394 201C394 195.477 389.523 191 384 191H287V216C287 221.523 291.477 226 297 226H384C389.523 226 394 221.523 394 216V201Z" fill="#6515DD"/>
<path d="M312.446 214L310.466 210.55H308.966V214H306.536V203.995H311.411C312.561 203.995 313.451 204.26 314.081 204.79C314.711 205.32 315.026 206.11 315.026 207.16C315.026 207.81 314.846 208.415 314.486 208.975C314.126 209.525 313.626 209.895 312.986 210.085L315.536 214H312.446ZM311.006 208.765C311.936 208.765 312.401 208.27 312.401 207.28C312.401 206.82 312.291 206.47 312.071 206.23C311.851 205.99 311.531 205.87 311.111 205.87H308.966V208.765H311.006Z" fill="white"/>
<path d="M318.071 203.995H324.926V205.87H320.501V208.045H324.341V209.935H320.501V212.125H324.926V214H318.071V203.995Z" fill="white"/>
<path d="M327.862 203.995H330.292V212.095H334.642V214H327.862V203.995Z" fill="white"/>
<path d="M337.083 203.995H343.938V205.87H339.513V208.045H343.353V209.935H339.513V212.125H343.938V214H337.083V203.995Z" fill="white"/>
<path d="M352.754 211.84H349.019L348.299 214H346.004L349.784 203.995H352.439L355.979 214H353.489L352.754 211.84ZM352.154 210.055L350.879 206.275L349.619 210.055H352.154Z" fill="white"/>
<path d="M361.505 214.21C360.745 214.21 360.085 214.155 359.525 214.045C358.965 213.945 358.445 213.77 357.965 213.52V211.21C358.415 211.57 358.925 211.85 359.495 212.05C360.075 212.24 360.64 212.335 361.19 212.335C362.13 212.335 362.6 211.98 362.6 211.27C362.6 210.96 362.45 210.72 362.15 210.55C361.85 210.37 361.365 210.17 360.695 209.95C360.385 209.85 360.195 209.785 360.125 209.755C359.405 209.515 358.835 209.19 358.415 208.78C358.005 208.37 357.8 207.76 357.8 206.95C357.8 206.38 357.94 205.855 358.22 205.375C358.5 204.885 358.93 204.495 359.51 204.205C360.09 203.915 360.805 203.77 361.655 203.77C362.245 203.77 362.75 203.825 363.17 203.935C363.6 204.035 364.055 204.2 364.535 204.43V206.755C364.115 206.435 363.665 206.17 363.185 205.96C362.705 205.75 362.22 205.645 361.73 205.645C361.29 205.645 360.935 205.735 360.665 205.915C360.405 206.085 360.275 206.335 360.275 206.665C360.275 206.925 360.355 207.14 360.515 207.31C360.675 207.47 360.87 207.595 361.1 207.685C361.34 207.775 361.72 207.9 362.24 208.06C362.86 208.24 363.37 208.44 363.77 208.66C364.17 208.88 364.49 209.175 364.73 209.545C364.97 209.915 365.09 210.39 365.09 210.97C365.09 211.58 364.95 212.13 364.67 212.62C364.39 213.11 363.975 213.5 363.425 213.79C362.885 214.07 362.245 214.21 361.505 214.21Z" fill="white"/>
<path d="M367.702 203.995H374.557V205.87H370.132V208.045H373.972V209.935H370.132V212.125H374.557V214H367.702V203.995Z" fill="white"/>
<path d="M394 262C394 256.477 389.523 252 384 252H287V277C287 282.523 291.477 287 297 287H384C389.523 287 394 282.523 394 277V262Z" fill="#3D0D85"/>
<path d="M309.46 275.21C307.93 275.21 306.735 274.775 305.875 273.905C305.015 273.035 304.585 271.735 304.585 270.005C304.585 268.305 305.005 267.015 305.845 266.135C306.695 265.245 307.9 264.8 309.46 264.8C310.99 264.8 312.185 265.235 313.045 266.105C313.915 266.965 314.35 268.26 314.35 269.99C314.35 271.69 313.925 272.985 313.075 273.875C312.235 274.765 311.03 275.21 309.46 275.21ZM309.46 273.215C310.25 273.215 310.845 272.965 311.245 272.465C311.645 271.965 311.845 271.14 311.845 269.99C311.845 268.84 311.645 268.02 311.245 267.53C310.855 267.03 310.26 266.78 309.46 266.78C308.67 266.78 308.075 267.03 307.675 267.53C307.285 268.03 307.09 268.86 307.09 270.02C307.09 271.16 307.285 271.98 307.675 272.48C308.075 272.97 308.67 273.215 309.46 273.215Z" fill="white"/>
<path d="M319.395 275H316.965V264.995H321.465C322.665 264.995 323.59 265.265 324.24 265.805C324.9 266.345 325.23 267.16 325.23 268.25C325.23 269.36 324.895 270.215 324.225 270.815C323.565 271.415 322.645 271.715 321.465 271.715H319.395V275ZM321.165 269.84C321.655 269.84 322.015 269.715 322.245 269.465C322.485 269.205 322.605 268.855 322.605 268.415C322.605 267.395 322.125 266.885 321.165 266.885H319.395V269.84H321.165Z" fill="white"/>
<path d="M327.826 264.995H334.681V266.87H330.256V269.045H334.096V270.935H330.256V273.125H334.681V275H327.826V264.995Z" fill="white"/>
<path d="M343.527 275L341.547 271.55H340.047V275H337.617V264.995H342.492C343.642 264.995 344.532 265.26 345.162 265.79C345.792 266.32 346.107 267.11 346.107 268.16C346.107 268.81 345.927 269.415 345.567 269.975C345.207 270.525 344.707 270.895 344.067 271.085L346.617 275H343.527ZM342.087 269.765C343.017 269.765 343.482 269.27 343.482 268.28C343.482 267.82 343.372 267.47 343.152 267.23C342.932 266.99 342.612 266.87 342.192 266.87H340.047V269.765H342.087Z" fill="white"/>
<path d="M355.032 272.84H351.297L350.577 275H348.282L352.062 264.995H354.717L358.257 275H355.767L355.032 272.84ZM354.432 271.055L353.157 267.275L351.897 271.055H354.432Z" fill="white"/>
<path d="M361.63 266.87H358.825V264.995H366.91V266.87H364.06V275H361.63V266.87Z" fill="white"/>
<path d="M369.233 264.995H376.088V266.87H371.663V269.045H375.503V270.935H371.663V273.125H376.088V275H369.233V264.995Z" fill="white"/>
<path d="M394 323C394 317.477 389.523 313 384 313H287V338C287 343.523 291.477 348 297 348H384C389.523 348 394 343.523 394 338V323Z" fill="#6515DD"/>
<path d="M314.635 325.995V336H312.205V329.235L309.265 333.15L306.4 329.25V336H304.075V325.995H306.55L309.355 329.895L312.22 325.995H314.635Z" fill="white"/>
<path d="M322.115 336.21C320.585 336.21 319.39 335.775 318.53 334.905C317.67 334.035 317.24 332.735 317.24 331.005C317.24 329.305 317.66 328.015 318.5 327.135C319.35 326.245 320.555 325.8 322.115 325.8C323.645 325.8 324.84 326.235 325.7 327.105C326.57 327.965 327.005 329.26 327.005 330.99C327.005 332.69 326.58 333.985 325.73 334.875C324.89 335.765 323.685 336.21 322.115 336.21ZM322.115 334.215C322.905 334.215 323.5 333.965 323.9 333.465C324.3 332.965 324.5 332.14 324.5 330.99C324.5 329.84 324.3 329.02 323.9 328.53C323.51 328.03 322.915 327.78 322.115 327.78C321.325 327.78 320.73 328.03 320.33 328.53C319.94 329.03 319.745 329.86 319.745 331.02C319.745 332.16 319.94 332.98 320.33 333.48C320.73 333.97 321.325 334.215 322.115 334.215Z" fill="white"/>
<path d="M338.35 325.995V336H336.52L331.855 329.91V336H329.62V325.995H331.69L336.115 331.95V325.995H338.35Z" fill="white"/>
<path d="M341.375 325.995H343.805V336H341.375V325.995Z" fill="white"/>
<path d="M348.93 327.87H346.125V325.995H354.21V327.87H351.36V336H348.93V327.87Z" fill="white"/>
<path d="M360.916 336.21C359.386 336.21 358.191 335.775 357.331 334.905C356.471 334.035 356.041 332.735 356.041 331.005C356.041 329.305 356.461 328.015 357.301 327.135C358.151 326.245 359.356 325.8 360.916 325.8C362.446 325.8 363.641 326.235 364.501 327.105C365.371 327.965 365.806 329.26 365.806 330.99C365.806 332.69 365.381 333.985 364.531 334.875C363.691 335.765 362.486 336.21 360.916 336.21ZM360.916 334.215C361.706 334.215 362.301 333.965 362.701 333.465C363.101 332.965 363.301 332.14 363.301 330.99C363.301 329.84 363.101 329.02 362.701 328.53C362.311 328.03 361.716 327.78 360.916 327.78C360.126 327.78 359.531 328.03 359.131 328.53C358.741 329.03 358.546 329.86 358.546 331.02C358.546 332.16 358.741 332.98 359.131 333.48C359.531 333.97 360.126 334.215 360.916 334.215Z" fill="white"/>
<path d="M374.33 336L372.35 332.55H370.85V336H368.42V325.995H373.295C374.445 325.995 375.335 326.26 375.965 326.79C376.595 327.32 376.91 328.11 376.91 329.16C376.91 329.81 376.73 330.415 376.37 330.975C376.01 331.525 375.51 331.895 374.87 332.085L377.42 336H374.33ZM372.89 330.765C373.82 330.765 374.285 330.27 374.285 329.28C374.285 328.82 374.175 328.47 373.955 328.23C373.735 327.99 373.415 327.87 372.995 327.87H370.85V330.765H372.89Z" fill="white"/>
<path d="M0 153C0 147.477 4.47715 143 10 143H107V168C107 173.523 102.523 178 97 178H10C4.47715 178 0 173.523 0 168V153Z" fill="#3D0D85"/>
<path d="M37.6082 166.195C34.3282 166.195 32.6882 164.465 32.6882 161.005C32.6882 157.515 34.3282 155.77 37.6082 155.77C38.6182 155.77 39.6782 156.015 40.7882 156.505V158.62C39.8282 157.98 38.8782 157.66 37.9382 157.66C37.0182 157.66 36.3282 157.92 35.8682 158.44C35.4182 158.95 35.1932 159.805 35.1932 161.005C35.1932 162.205 35.4232 163.055 35.8832 163.555C36.3532 164.055 37.0732 164.305 38.0432 164.305C38.4432 164.305 38.8782 164.23 39.3482 164.08C39.8182 163.93 40.2982 163.695 40.7882 163.375V165.49C40.3782 165.7 39.8782 165.87 39.2882 166C38.6982 166.13 38.1382 166.195 37.6082 166.195Z" fill="white"/>
<path d="M47.9865 166.21C46.4565 166.21 45.2615 165.775 44.4015 164.905C43.5415 164.035 43.1115 162.735 43.1115 161.005C43.1115 159.305 43.5315 158.015 44.3715 157.135C45.2215 156.245 46.4265 155.8 47.9865 155.8C49.5165 155.8 50.7115 156.235 51.5715 157.105C52.4415 157.965 52.8765 159.26 52.8765 160.99C52.8765 162.69 52.4515 163.985 51.6015 164.875C50.7615 165.765 49.5565 166.21 47.9865 166.21ZM47.9865 164.215C48.7765 164.215 49.3715 163.965 49.7715 163.465C50.1715 162.965 50.3715 162.14 50.3715 160.99C50.3715 159.84 50.1715 159.02 49.7715 158.53C49.3815 158.03 48.7865 157.78 47.9865 157.78C47.1965 157.78 46.6015 158.03 46.2015 158.53C45.8115 159.03 45.6165 159.86 45.6165 161.02C45.6165 162.16 45.8115 162.98 46.2015 163.48C46.6015 163.97 47.1965 164.215 47.9865 164.215Z" fill="white"/>
<path d="M55.491 155.995H59.511C61.191 155.995 62.436 156.415 63.246 157.255C64.056 158.085 64.461 159.335 64.461 161.005C64.461 162.665 64.056 163.915 63.246 164.755C62.436 165.585 61.191 166 59.511 166H55.491V155.995ZM59.226 164.125C60.136 164.125 60.821 163.87 61.281 163.36C61.741 162.85 61.971 162.065 61.971 161.005C61.971 159.925 61.741 159.135 61.281 158.635C60.821 158.125 60.136 157.87 59.226 157.87H57.921V164.125H59.226Z" fill="white"/>
<path d="M67.0551 155.995H73.9101V157.87H69.4851V160.045H73.3251V161.935H69.4851V164.125H73.9101V166H67.0551V155.995Z" fill="white"/>
<path d="M0 275C0 269.477 4.47715 265 10 265H107V290C107 295.523 102.523 300 97 300H10C4.47715 300 0 295.523 0 290V275Z" fill="#3D0D85"/>
<path d="M37.7369 279.87H34.9319V277.995H43.0169V279.87H40.1669V288H37.7369V279.87Z" fill="white"/>
<path d="M45.3406 277.995H52.1956V279.87H47.7706V282.045H51.6106V283.935H47.7706V286.125H52.1956V288H45.3406V277.995Z" fill="white"/>
<path d="M58.4922 288.21C57.7322 288.21 57.0722 288.155 56.5122 288.045C55.9522 287.945 55.4322 287.77 54.9522 287.52V285.21C55.4022 285.57 55.9122 285.85 56.4822 286.05C57.0622 286.24 57.6272 286.335 58.1772 286.335C59.1172 286.335 59.5872 285.98 59.5872 285.27C59.5872 284.96 59.4372 284.72 59.1372 284.55C58.8372 284.37 58.3522 284.17 57.6822 283.95C57.3722 283.85 57.1822 283.785 57.1122 283.755C56.3922 283.515 55.8222 283.19 55.4022 282.78C54.9922 282.37 54.7872 281.76 54.7872 280.95C54.7872 280.38 54.9272 279.855 55.2072 279.375C55.4872 278.885 55.9172 278.495 56.4972 278.205C57.0772 277.915 57.7922 277.77 58.6422 277.77C59.2322 277.77 59.7372 277.825 60.1572 277.935C60.5872 278.035 61.0422 278.2 61.5222 278.43V280.755C61.1022 280.435 60.6522 280.17 60.1722 279.96C59.6922 279.75 59.2072 279.645 58.7172 279.645C58.2772 279.645 57.9222 279.735 57.6522 279.915C57.3922 280.085 57.2622 280.335 57.2622 280.665C57.2622 280.925 57.3422 281.14 57.5022 281.31C57.6622 281.47 57.8572 281.595 58.0872 281.685C58.3272 281.775 58.7072 281.9 59.2272 282.06C59.8472 282.24 60.3572 282.44 60.7572 282.66C61.1572 282.88 61.4772 283.175 61.7172 283.545C61.9572 283.915 62.0772 284.39 62.0772 284.97C62.0772 285.58 61.9372 286.13 61.6572 286.62C61.3772 287.11 60.9622 287.5 60.4122 287.79C59.8722 288.07 59.2322 288.21 58.4922 288.21Z" fill="white"/>
<path d="M66.7894 279.87H63.9844V277.995H72.0694V279.87H69.2194V288H66.7894V279.87Z" fill="white"/>
</svg>
