<svg width="510" height="213" viewBox="0 0 510 213" fill="none" xmlns="http://www.w3.org/2000/svg">
<path d="M342.315 122.578C340.211 122.578 338.282 122.212 336.528 121.478C334.807 120.713 333.324 119.629 332.081 118.226C330.837 116.824 329.865 115.118 329.164 113.109C328.494 111.101 328.159 108.821 328.159 106.27C328.159 103.72 328.494 101.456 329.164 99.4794C329.865 97.4708 330.837 95.797 332.081 94.4579C333.324 93.087 334.807 92.0508 336.528 91.3494C338.282 90.6161 340.211 90.2495 342.315 90.2495C344.419 90.2495 346.332 90.6161 348.054 91.3494C349.807 92.0508 351.306 93.087 352.549 94.4579C353.793 95.8289 354.749 97.5187 355.419 99.5273C356.12 101.504 356.471 103.752 356.471 106.27C356.471 108.821 356.12 111.101 355.419 113.109C354.749 115.118 353.793 116.824 352.549 118.226C351.306 119.629 349.807 120.713 348.054 121.478C346.332 122.212 344.419 122.578 342.315 122.578ZM342.315 116.505C344.451 116.505 346.141 115.596 347.384 113.779C348.628 111.93 349.25 109.427 349.25 106.27C349.25 103.146 348.628 100.707 347.384 98.9534C346.141 97.1998 344.451 96.3231 342.315 96.3231C340.179 96.3231 338.489 97.1998 337.246 98.9534C336.002 100.707 335.381 103.146 335.381 106.27C335.381 109.427 336.002 111.93 337.246 113.779C338.489 115.596 340.179 116.505 342.315 116.505Z" fill="#1D0A47"/>
<path d="M361.76 130.804V98.2838H367.499L367.977 100.627H368.168C369.093 99.7983 370.129 99.1128 371.277 98.5708C372.457 97.9969 373.668 97.71 374.911 97.71C376.346 97.71 377.637 97.9969 378.785 98.5708C379.933 99.1447 380.905 99.9577 381.702 101.01C382.5 102.062 383.105 103.337 383.52 104.836C383.966 106.302 384.189 107.944 384.189 109.762C384.189 111.802 383.902 113.619 383.328 115.213C382.786 116.776 382.037 118.115 381.081 119.231C380.156 120.315 379.088 121.144 377.877 121.717C376.697 122.291 375.469 122.578 374.194 122.578C373.174 122.578 372.186 122.371 371.229 121.957C370.273 121.51 369.38 120.889 368.551 120.091L368.79 123.87V130.804H361.76ZM372.568 116.839C373.78 116.839 374.816 116.297 375.677 115.213C376.537 114.098 376.968 112.312 376.968 109.857C376.968 105.585 375.597 103.449 372.855 103.449C371.484 103.449 370.129 104.166 368.79 105.601V115.309C369.428 115.883 370.065 116.282 370.703 116.505C371.341 116.728 371.962 116.839 372.568 116.839Z" fill="#1D0A47"/>
<path d="M395.923 122.578C394.361 122.578 392.751 122.275 391.093 121.67C389.467 121.064 388.048 120.267 386.837 119.278L389.993 114.879C391.077 115.708 392.113 116.329 393.102 116.744C394.09 117.158 395.094 117.366 396.115 117.366C397.167 117.366 397.932 117.19 398.41 116.839C398.888 116.489 399.127 115.995 399.127 115.357C399.127 114.974 398.984 114.64 398.697 114.353C398.442 114.034 398.075 113.747 397.597 113.492C397.151 113.237 396.641 113.014 396.067 112.822C395.493 112.599 394.903 112.36 394.297 112.105C393.564 111.818 392.831 111.483 392.097 111.101C391.364 110.718 390.695 110.256 390.089 109.714C389.483 109.14 388.989 108.486 388.606 107.753C388.224 106.988 388.032 106.111 388.032 105.123C388.032 104.039 388.24 103.034 388.654 102.11C389.1 101.185 389.722 100.404 390.519 99.7664C391.316 99.1287 392.273 98.6346 393.389 98.2838C394.505 97.9013 395.748 97.71 397.119 97.71C398.936 97.71 400.53 98.0288 401.901 98.6664C403.272 99.2722 404.468 99.9577 405.488 100.723L402.332 104.931C401.471 104.294 400.626 103.8 399.797 103.449C398.968 103.098 398.139 102.923 397.31 102.923C395.525 102.923 394.632 103.544 394.632 104.788C394.632 105.17 394.76 105.505 395.015 105.792C395.27 106.047 395.604 106.286 396.019 106.51C396.465 106.733 396.959 106.956 397.501 107.179C398.075 107.37 398.665 107.578 399.271 107.801C400.036 108.088 400.785 108.422 401.519 108.805C402.284 109.156 402.969 109.602 403.575 110.144C404.213 110.686 404.723 111.356 405.105 112.153C405.488 112.918 405.679 113.843 405.679 114.927C405.679 116.011 405.472 117.015 405.058 117.939C404.643 118.864 404.021 119.677 403.193 120.378C402.364 121.048 401.343 121.59 400.132 122.004C398.92 122.387 397.517 122.578 395.923 122.578Z" fill="#1D0A47"/>
<path d="M97.8254 122.004V90.8233H106.625C109.016 90.8233 111.168 91.1262 113.081 91.732C114.994 92.3377 116.636 93.2783 118.007 94.5536C119.378 95.797 120.43 97.3911 121.163 99.3359C121.897 101.281 122.263 103.592 122.263 106.27C122.263 108.949 121.897 111.276 121.163 113.253C120.43 115.229 119.394 116.871 118.055 118.178C116.716 119.454 115.106 120.41 113.225 121.048C111.376 121.686 109.303 122.004 107.008 122.004H97.8254ZM104.856 116.313H106.195C107.534 116.313 108.745 116.138 109.829 115.787C110.913 115.437 111.838 114.879 112.603 114.113C113.368 113.316 113.958 112.28 114.372 111.005C114.819 109.73 115.042 108.151 115.042 106.27C115.042 104.421 114.819 102.875 114.372 101.631C113.958 100.356 113.368 99.3519 112.603 98.6186C111.838 97.8534 110.913 97.3114 109.829 96.9926C108.745 96.6737 107.534 96.5143 106.195 96.5143H104.856V116.313Z" fill="#6515DD"/>
<path d="M138.225 122.578C136.536 122.578 134.957 122.307 133.491 121.765C132.024 121.191 130.749 120.378 129.665 119.326C128.581 118.242 127.736 116.935 127.13 115.405C126.524 113.874 126.222 112.121 126.222 110.144C126.222 108.231 126.54 106.509 127.178 104.979C127.816 103.417 128.645 102.11 129.665 101.058C130.717 99.9736 131.913 99.1446 133.252 98.5708C134.591 97.9969 135.978 97.7099 137.412 97.7099C139.102 97.7099 140.569 97.9969 141.812 98.5708C143.087 99.1446 144.14 99.9417 144.968 100.962C145.829 101.982 146.467 103.194 146.881 104.597C147.296 105.967 147.503 107.466 147.503 109.092C147.503 109.73 147.471 110.335 147.407 110.909C147.344 111.483 147.28 111.914 147.216 112.201H133.013C133.331 113.922 134.033 115.197 135.117 116.026C136.233 116.823 137.588 117.222 139.182 117.222C140.872 117.222 142.577 116.696 144.299 115.644L146.642 119.9C145.431 120.729 144.076 121.383 142.577 121.861C141.111 122.339 139.66 122.578 138.225 122.578ZM132.965 107.562H141.525C141.525 106.223 141.222 105.139 140.617 104.31C140.011 103.481 138.99 103.066 137.556 103.066C136.44 103.066 135.452 103.433 134.591 104.166C133.762 104.899 133.22 106.031 132.965 107.562Z" fill="#6515DD"/>
<path d="M157.533 122.004L149.546 98.2838H156.624L159.685 109.475C160.004 110.654 160.306 111.866 160.593 113.109C160.912 114.321 161.231 115.548 161.55 116.792H161.741C162.028 115.548 162.315 114.321 162.602 113.109C162.921 111.866 163.24 110.654 163.558 109.475L166.667 98.2838H173.41L165.663 122.004H157.533Z" fill="#6515DD"/>
<path d="M276.918 171.097C242.176 132.384 210.082 96.6223 187.637 71.7894L190.506 38.791L222.07 41.6604L312.935 142.569L280.893 140.656L277.067 171.263L276.918 171.097Z" fill="#1D0A47"/>
<path d="M181.898 63.6594C146.508 32.1348 114.466 44.5299 95.3368 54.5729L62.8166 52.66L64.7295 23.4874C88.1632 8.18384 154.16 -24.3363 214.896 34.4869C211.07 34.056 184.289 32.1348 184.289 32.1348L181.898 63.6594Z" fill="#1D0A47"/>
<path d="M88.6415 59.8335C55.6431 96.1796 67.1208 129.656 79.555 143.047L76.6855 172.698L44.6436 170.785C25.0359 156.437 -2.22368 75.1371 58.0343 27.7916L57.0778 57.9206L88.6415 59.8335Z" fill="#1D0A47"/>
<path d="M84.3373 148.786C118.292 179.393 152.247 168.393 171.855 157.872L204.375 159.785L202.462 190.392C181.42 210.957 104.423 232.955 50.3824 177.002L82.4243 179.393L84.3373 148.786Z" fill="#1D0A47"/>
<path d="M199.791 63.9439L209.529 55.1758L210.745 56.5263L210.108 57.3056L210.159 57.3625C210.67 57.4344 211.178 57.5694 211.682 57.7674C212.186 57.9654 212.613 58.2587 212.963 58.6473C213.356 59.0832 213.616 59.5438 213.744 60.0292C213.89 60.5154 213.914 61.0178 213.814 61.5363C213.715 62.0549 213.503 62.572 213.178 63.0878C212.853 63.6035 212.42 64.1046 211.88 64.591C211.283 65.1286 210.67 65.5254 210.043 65.7815C209.433 66.0385 208.844 66.1747 208.274 66.19C207.714 66.1967 207.186 66.0969 206.692 65.8903C206.197 65.6838 205.774 65.3862 205.424 64.9977C205.151 64.6944 204.945 64.3314 204.804 63.9086C204.664 63.4859 204.589 63.0214 204.579 62.5152L203.452 63.6075L201.263 65.5787L199.791 63.9439ZM206.468 63.4405C206.886 63.9049 207.435 64.1142 208.114 64.0686C208.804 64.0144 209.546 63.6289 210.342 62.9121C211.044 62.2806 211.482 61.6715 211.657 61.0847C211.832 60.4979 211.681 59.9391 211.203 59.4084C210.759 58.9155 210.038 58.6384 209.039 58.577L205.783 61.5083C205.796 61.9604 205.866 62.3434 205.994 62.6571C206.122 62.9708 206.28 63.232 206.468 63.4405Z" fill="#1BFEC0"/>
<path d="M211.037 71.2307C210.508 70.6431 210.312 70.073 210.449 69.5203C210.586 68.9676 210.958 68.4182 211.565 67.8721L219.81 60.448L221.282 62.0829L212.952 69.5837C212.753 69.7629 212.645 69.9288 212.628 70.0815C212.62 70.2256 212.655 70.3402 212.731 70.4255C212.766 70.4634 212.795 70.4966 212.821 70.5251C212.855 70.563 212.912 70.6066 212.99 70.6558L211.96 71.9699C211.669 71.8372 211.361 71.5908 211.037 71.2307Z" fill="#1BFEC0"/>
<path d="M214.601 75.1896C214.047 74.5736 213.783 73.9097 213.812 73.1978C213.85 72.4773 214.176 71.8398 214.792 71.2851C215.162 70.9523 215.557 70.7337 215.978 70.6293C216.417 70.5259 216.89 70.5462 217.397 70.6902C217.913 70.8436 218.472 71.1122 219.075 71.496C219.687 71.8893 220.355 72.4119 221.079 73.0639C221.251 72.8923 221.396 72.7102 221.514 72.5178C221.65 72.3263 221.733 72.1229 221.763 71.9077C221.81 71.6935 221.794 71.476 221.716 71.2551C221.646 71.0257 221.505 70.7926 221.292 70.5556C220.985 70.2145 220.615 69.9377 220.184 69.7255C219.761 69.5227 219.314 69.3503 218.843 69.2082L219.4 67.6256C219.996 67.7923 220.602 68.0362 221.217 68.3574C221.833 68.6786 222.392 69.1188 222.895 69.678C223.68 70.5499 224.004 71.4338 223.867 72.3296C223.748 73.2263 223.2 74.1142 222.224 74.9931L218.087 78.718L216.871 77.3675L217.536 76.5625L217.485 76.5057C216.938 76.4318 216.413 76.2959 215.908 76.0979C215.412 75.9094 214.977 75.6066 214.601 75.1896ZM216.354 74.5636C216.61 74.8479 216.907 75.0441 217.245 75.1521C217.591 75.2695 218.006 75.35 218.492 75.3935L220.055 73.9855C219.572 73.5628 219.138 73.2331 218.753 72.9962C218.368 72.7593 218.024 72.5968 217.722 72.5087C217.429 72.4121 217.168 72.3894 216.94 72.4406C216.711 72.4918 216.512 72.5943 216.341 72.7479C216.028 73.0295 215.886 73.3291 215.915 73.6466C215.943 73.9641 216.09 74.2698 216.354 74.5636Z" fill="#1BFEC0"/>
<path d="M219.849 80.6745L226.829 74.3896L228.045 75.7401L227.209 76.6986L227.26 76.7555C227.845 76.7952 228.409 76.897 228.951 77.0608C229.502 77.2342 229.995 77.5625 230.43 78.0459C231.104 78.7946 231.353 79.5571 231.177 80.3335C231.01 81.1014 230.481 81.8864 229.591 82.6885L225.212 86.631L223.74 84.9961L227.905 81.2457C228.483 80.7251 228.814 80.2729 228.898 79.889C228.981 79.505 228.848 79.1188 228.498 78.7302C228.225 78.427 227.906 78.2251 227.541 78.1247C227.194 78.0253 226.746 77.9566 226.197 77.9188L221.321 82.3093L219.849 80.6745Z" fill="#1BFEC0"/>
<path d="M119.233 29.4558C118.596 29.4558 117.996 29.3474 117.435 29.1306C116.887 28.9138 116.408 28.595 116 28.1741C115.592 27.7533 115.273 27.2368 115.044 26.6246C114.814 26.0125 114.699 25.3175 114.699 24.5395C114.699 23.7616 114.827 23.0666 115.082 22.4544C115.337 21.8423 115.681 21.3258 116.115 20.9049C116.549 20.4841 117.046 20.1652 117.607 19.9484C118.181 19.7189 118.78 19.6041 119.405 19.6041C120.017 19.6041 120.54 19.7061 120.974 19.9102C121.42 20.1142 121.816 20.3629 122.16 20.6562L121.089 22.091C120.834 21.8741 120.579 21.7084 120.324 21.5936C120.081 21.4661 119.813 21.4023 119.52 21.4023C118.755 21.4023 118.136 21.6892 117.665 22.2631C117.193 22.8242 116.957 23.5831 116.957 24.5395C116.957 25.4833 117.186 26.2421 117.645 26.8159C118.117 27.3771 118.723 27.6576 119.463 27.6576C119.833 27.6576 120.177 27.5811 120.496 27.4281C120.827 27.2623 121.127 27.071 121.395 26.8542L122.294 28.308C121.848 28.6906 121.357 28.9776 120.821 29.1689C120.298 29.3602 119.769 29.4558 119.233 29.4558Z" fill="#1BFEC0"/>
<path d="M127.526 29.4558C126.939 29.4558 126.378 29.3474 125.842 29.1306C125.307 28.9138 124.829 28.595 124.408 28.1741C124 27.7533 123.674 27.2368 123.432 26.6246C123.19 26.0125 123.069 25.3175 123.069 24.5395C123.069 23.7616 123.19 23.0666 123.432 22.4544C123.674 21.8423 124 21.3258 124.408 20.9049C124.829 20.4841 125.307 20.1652 125.842 19.9484C126.378 19.7189 126.939 19.6041 127.526 19.6041C128.112 19.6041 128.674 19.7189 129.209 19.9484C129.758 20.1652 130.236 20.4841 130.644 20.9049C131.052 21.3258 131.377 21.8423 131.62 22.4544C131.875 23.0666 132.002 23.7616 132.002 24.5395C132.002 25.3175 131.875 26.0125 131.62 26.6246C131.377 27.2368 131.052 27.7533 130.644 28.1741C130.236 28.595 129.758 28.9138 129.209 29.1306C128.674 29.3474 128.112 29.4558 127.526 29.4558ZM127.526 27.6576C128.214 27.6576 128.756 27.3771 129.152 26.8159C129.547 26.2421 129.745 25.4833 129.745 24.5395C129.745 23.5831 129.547 22.8242 129.152 22.2631C128.756 21.6892 128.214 21.4023 127.526 21.4023C126.837 21.4023 126.295 21.6892 125.9 22.2631C125.517 22.8242 125.326 23.5831 125.326 24.5395C125.326 25.4833 125.517 26.2421 125.9 26.8159C126.295 27.3771 126.837 27.6576 127.526 27.6576Z" fill="#1BFEC0"/>
<path d="M137.47 29.4558C136.284 29.4558 135.34 29.0286 134.639 28.1741C133.95 27.3069 133.606 26.0954 133.606 24.5395C133.606 23.7743 133.714 23.0857 133.931 22.4735C134.16 21.8614 134.46 21.3449 134.83 20.9241C135.2 20.5032 135.621 20.178 136.093 19.9484C136.577 19.7189 137.075 19.6041 137.585 19.6041C138.12 19.6041 138.573 19.6998 138.943 19.8911C139.313 20.0696 139.683 20.3183 140.052 20.6371L139.976 19.1259V15.7208H142.176V29.2263H140.358L140.205 28.2124H140.129C139.785 28.5567 139.383 28.85 138.924 29.0924C138.465 29.3347 137.98 29.4558 137.47 29.4558ZM138.006 27.6385C138.707 27.6385 139.364 27.2878 139.976 26.5864V22.2057C139.644 21.9124 139.319 21.7084 139 21.5936C138.694 21.4788 138.382 21.4214 138.063 21.4214C137.451 21.4214 136.934 21.6892 136.513 22.2249C136.093 22.7605 135.882 23.5257 135.882 24.5204C135.882 25.5406 136.061 26.3186 136.418 26.8542C136.788 27.3771 137.317 27.6385 138.006 27.6385Z" fill="#1BFEC0"/>
<path d="M148.995 29.4558C148.344 29.4558 147.738 29.3474 147.177 29.1306C146.616 28.9011 146.125 28.5759 145.704 28.155C145.283 27.7342 144.952 27.224 144.71 26.6246C144.48 26.0125 144.365 25.3175 144.365 24.5395C144.365 23.7743 144.486 23.0857 144.729 22.4735C144.971 21.8614 145.29 21.3449 145.685 20.9241C146.093 20.5032 146.559 20.178 147.082 19.9484C147.604 19.7189 148.14 19.6041 148.688 19.6041C149.326 19.6041 149.887 19.7125 150.372 19.9293C150.856 20.1461 151.258 20.4522 151.577 20.8475C151.909 21.2429 152.157 21.7147 152.323 22.2631C152.489 22.8115 152.572 23.4109 152.572 24.0613C152.572 24.2781 152.559 24.4821 152.533 24.6734C152.521 24.8647 152.502 25.0178 152.476 25.1325H146.508C146.61 25.9742 146.903 26.6246 147.388 27.0838C147.885 27.5301 148.516 27.7533 149.281 27.7533C149.69 27.7533 150.066 27.6959 150.41 27.5811C150.767 27.4536 151.118 27.2814 151.462 27.0646L152.208 28.4419C151.762 28.7353 151.265 28.9776 150.716 29.1689C150.168 29.3602 149.594 29.4558 148.995 29.4558ZM146.489 23.6404H150.659C150.659 22.9135 150.499 22.346 150.181 21.9379C149.874 21.5171 149.396 21.3066 148.746 21.3066C148.185 21.3066 147.694 21.5043 147.273 21.8997C146.852 22.295 146.591 22.8753 146.489 23.6404Z" fill="#1BFEC0"/>
<rect y="97" width="26" height="26" fill="#1D0A47"/>
<path d="M9.38927 116.461C8.95566 116.461 8.51569 116.359 8.06933 116.155C7.63573 115.938 7.22126 115.632 6.82592 115.237L6.76852 115.237L6.57723 116.232L4.83644 116.232L4.83644 102.726L7.03633 102.726L7.03633 106.208L6.97895 107.776C7.37429 107.432 7.80152 107.151 8.26062 106.935C8.73249 106.718 9.21073 106.609 9.69534 106.609C10.282 106.609 10.8049 106.724 11.264 106.954C11.7231 107.171 12.112 107.489 12.4309 107.91C12.7497 108.318 12.992 108.816 13.1578 109.402C13.3236 109.989 13.4065 110.646 13.4065 111.373C13.4065 112.176 13.2917 112.897 13.0621 113.534C12.8453 114.159 12.552 114.689 12.1822 115.122C11.8123 115.556 11.3851 115.887 10.9005 116.117C10.4159 116.346 9.91214 116.461 9.38927 116.461ZM8.93016 114.644C9.55505 114.644 10.0779 114.376 10.4988 113.84C10.9196 113.292 11.1301 112.482 11.1301 111.411C11.1301 110.467 10.9706 109.734 10.6518 109.211C10.333 108.688 9.81649 108.427 9.10232 108.427C8.43917 108.427 7.7505 108.777 7.03633 109.479L7.03633 113.86C7.36792 114.153 7.69311 114.357 8.01194 114.472C8.34352 114.586 8.64959 114.644 8.93016 114.644Z" fill="#1BFEC0"/>
<path d="M18.4084 116.461C17.4009 116.461 16.6676 116.142 16.2085 115.505C15.7494 114.854 15.5198 113.93 15.5198 112.731L15.5198 106.839L17.7197 106.839L17.7197 112.444C17.7197 113.222 17.8345 113.77 18.064 114.089C18.2936 114.408 18.6634 114.567 19.1736 114.567C19.5817 114.567 19.9387 114.465 20.2448 114.261C20.5636 114.057 20.9016 113.726 21.2587 113.267L21.2587 106.839L23.4586 106.839L23.4586 116.232L21.6604 116.232L21.4882 114.854L21.4308 114.854C21.0227 115.339 20.5764 115.728 20.0918 116.021C19.6199 116.315 19.0588 116.461 18.4084 116.461Z" fill="#1BFEC0"/>
<path d="M26.2451 116.232L26.2451 106.839L28.4449 106.839L28.4449 116.232L26.2451 116.232ZM27.3546 105.194C26.9592 105.194 26.634 105.079 26.379 104.85C26.1239 104.62 25.9964 104.32 25.9964 103.95C25.9964 103.581 26.1239 103.281 26.379 103.051C26.634 102.809 26.9592 102.688 27.3546 102.688C27.7499 102.688 28.0751 102.809 28.3302 103.051C28.5852 103.281 28.7128 103.581 28.7128 103.95C28.7128 104.32 28.5852 104.62 28.3302 104.85C28.0751 105.079 27.7499 105.194 27.3546 105.194Z" fill="#1BFEC0"/>
<path d="M33.3941 116.461C32.6034 116.461 32.0487 116.225 31.7298 115.753C31.411 115.282 31.2516 114.637 31.2516 113.821L31.2516 102.726L33.4515 102.726L33.4515 113.936C33.4515 114.204 33.5025 114.395 33.6045 114.51C33.7066 114.612 33.815 114.663 33.9297 114.663C33.9807 114.663 34.0254 114.663 34.0636 114.663C34.1147 114.663 34.1848 114.65 34.2741 114.625L34.561 116.27C34.2677 116.397 33.8787 116.461 33.3941 116.461Z" fill="#1BFEC0"/>
<path d="M39.7352 116.461C38.5492 116.461 37.6055 116.034 36.9041 115.179C36.2154 114.312 35.8711 113.101 35.8711 111.545C35.8711 110.78 35.9795 110.091 36.1963 109.479C36.4258 108.867 36.7255 108.35 37.0954 107.929C37.4652 107.509 37.8861 107.183 38.3579 106.954C38.8425 106.724 39.3399 106.609 39.85 106.609C40.3856 106.609 40.8384 106.705 41.2082 106.896C41.5781 107.075 41.9479 107.324 42.3177 107.642L42.2412 106.131L42.2412 102.726L44.4411 102.726L44.4411 116.232L42.6238 116.232L42.4708 115.218L42.3942 115.218C42.0499 115.562 41.6482 115.855 41.1891 116.098C40.73 116.34 40.2454 116.461 39.7352 116.461ZM40.2709 114.644C40.9723 114.644 41.6291 114.293 42.2412 113.592L42.2412 109.211C41.9096 108.918 41.5844 108.714 41.2656 108.599C40.9595 108.484 40.6471 108.427 40.3283 108.427C39.7161 108.427 39.1996 108.695 38.7788 109.23C38.3579 109.766 38.1475 110.531 38.1475 111.526C38.1475 112.546 38.326 113.324 38.6831 113.86C39.053 114.382 39.5822 114.644 40.2709 114.644Z" fill="#1BFEC0"/>
<path d="M123.237 194.926C122.689 194.926 122.223 194.843 121.841 194.677C121.471 194.512 121.165 194.282 120.923 193.989C120.693 193.683 120.521 193.326 120.406 192.917C120.304 192.497 120.253 192.031 120.253 191.521V187.045H118.914V185.4L120.368 185.304L120.636 182.741H122.472V185.304H124.863V187.045H122.472V191.521C122.472 192.618 122.912 193.166 123.792 193.166C123.958 193.166 124.124 193.147 124.289 193.109C124.468 193.07 124.627 193.019 124.768 192.956L125.15 194.582C124.895 194.671 124.602 194.747 124.27 194.811C123.951 194.888 123.607 194.926 123.237 194.926Z" fill="#1BFEC0"/>
<path d="M130.558 194.926C129.908 194.926 129.302 194.818 128.741 194.601C128.18 194.371 127.689 194.046 127.268 193.625C126.847 193.204 126.515 192.694 126.273 192.095C126.044 191.483 125.929 190.788 125.929 190.01C125.929 189.245 126.05 188.556 126.292 187.944C126.535 187.332 126.853 186.815 127.249 186.394C127.657 185.973 128.122 185.648 128.645 185.419C129.168 185.189 129.704 185.074 130.252 185.074C130.89 185.074 131.451 185.183 131.935 185.4C132.42 185.616 132.822 185.922 133.141 186.318C133.472 186.713 133.721 187.185 133.887 187.733C134.052 188.282 134.135 188.881 134.135 189.532C134.135 189.748 134.123 189.952 134.097 190.144C134.084 190.335 134.065 190.488 134.04 190.603H128.071C128.173 191.444 128.467 192.095 128.951 192.554C129.449 193 130.08 193.224 130.845 193.224C131.253 193.224 131.629 193.166 131.974 193.051C132.331 192.924 132.681 192.752 133.026 192.535L133.772 193.912C133.326 194.205 132.828 194.448 132.28 194.639C131.731 194.83 131.157 194.926 130.558 194.926ZM128.052 189.111H132.222C132.222 188.384 132.063 187.816 131.744 187.408C131.438 186.987 130.96 186.777 130.309 186.777C129.748 186.777 129.257 186.975 128.836 187.37C128.416 187.765 128.154 188.345 128.052 189.111Z" fill="#1BFEC0"/>
<path d="M138.857 194.926C138.207 194.926 137.563 194.805 136.925 194.563C136.3 194.308 135.758 193.995 135.299 193.625L136.332 192.21C136.753 192.541 137.167 192.803 137.575 192.994C137.996 193.172 138.449 193.262 138.934 193.262C139.444 193.262 139.82 193.16 140.062 192.956C140.305 192.739 140.426 192.465 140.426 192.133C140.426 191.942 140.368 191.776 140.254 191.636C140.139 191.483 139.986 191.349 139.795 191.234C139.603 191.119 139.386 191.017 139.144 190.928C138.902 190.826 138.659 190.724 138.417 190.622C138.111 190.507 137.799 190.373 137.48 190.22C137.161 190.067 136.874 189.882 136.619 189.665C136.377 189.449 136.173 189.2 136.007 188.919C135.854 188.626 135.777 188.282 135.777 187.886C135.777 187.057 136.083 186.382 136.696 185.859C137.308 185.336 138.143 185.074 139.201 185.074C139.852 185.074 140.439 185.189 140.961 185.419C141.484 185.648 141.937 185.91 142.32 186.203L141.306 187.542C140.974 187.3 140.636 187.108 140.292 186.968C139.96 186.815 139.61 186.739 139.24 186.739C138.768 186.739 138.417 186.841 138.188 187.045C137.971 187.236 137.862 187.478 137.862 187.772C137.862 187.963 137.913 188.129 138.015 188.269C138.13 188.396 138.277 188.511 138.455 188.613C138.634 188.715 138.838 188.811 139.068 188.9C139.31 188.99 139.559 189.079 139.814 189.168C140.132 189.283 140.451 189.417 140.77 189.57C141.089 189.71 141.376 189.889 141.631 190.105C141.899 190.322 142.109 190.59 142.262 190.909C142.428 191.215 142.511 191.585 142.511 192.018C142.511 192.426 142.428 192.809 142.262 193.166C142.109 193.51 141.88 193.817 141.574 194.084C141.267 194.339 140.885 194.543 140.426 194.696C139.967 194.85 139.444 194.926 138.857 194.926Z" fill="#1BFEC0"/>
<path d="M147.411 194.926C146.862 194.926 146.397 194.843 146.014 194.677C145.644 194.512 145.338 194.282 145.096 193.989C144.866 193.683 144.694 193.326 144.579 192.917C144.477 192.497 144.426 192.031 144.426 191.521V187.045H143.087V185.4L144.541 185.304L144.809 182.741H146.645V185.304H149.037V187.045H146.645V191.521C146.645 192.618 147.085 193.166 147.965 193.166C148.131 193.166 148.297 193.147 148.463 193.109C148.641 193.07 148.801 193.019 148.941 192.956L149.324 194.582C149.068 194.671 148.775 194.747 148.444 194.811C148.125 194.888 147.78 194.926 147.411 194.926Z" fill="#1BFEC0"/>
<path d="M208.679 185.61C243.479 146.833 290.936 96.6578 313.413 71.7894L310.544 38.791L278.98 41.6604L178.55 152.612L210.114 155.003L208.679 185.61Z" fill="#6515DD"/>
<path d="M319.152 63.6594C354.542 32.1348 386.583 44.5299 405.713 54.5729L438.233 52.66L436.32 23.4874C412.887 8.18384 346.89 -24.3363 286.154 34.4869C289.979 34.056 316.761 32.1348 316.761 32.1348L319.152 63.6594Z" fill="#6515DD"/>
<path d="M412.408 59.8335C445.407 96.1796 433.929 129.656 421.495 143.047L424.364 172.698L456.406 170.785C476.014 156.437 503.273 75.1371 443.016 27.7916L443.972 57.9206L412.408 59.8335Z" fill="#6515DD"/>
<path d="M418.625 179.393L416.712 148.786C391.366 171.263 348.324 176.524 318.195 149.264L285.197 146.873L282.328 176.524C322.021 225.782 407.148 221.956 450.667 177.002L418.625 179.393Z" fill="#6515DD"/>
<path d="M233.264 132.646L226.395 126.241L227.634 124.912L228.956 125.935L229.008 125.879C228.786 125.219 228.72 124.608 228.808 124.045C228.888 123.474 229.097 123.006 229.436 122.643C229.741 122.316 230.031 122.098 230.307 121.99L231.445 123.574C231.294 123.66 231.162 123.746 231.048 123.831C230.933 123.917 230.807 124.034 230.667 124.183C230.415 124.454 230.257 124.838 230.193 125.337C230.12 125.826 230.245 126.422 230.567 127.124L234.764 131.038L233.264 132.646Z" fill="#1BFEC0"/>
<path d="M240.911 124.783C240.467 125.258 239.975 125.627 239.434 125.89C238.883 126.144 238.311 126.281 237.716 126.302C237.121 126.323 236.522 126.217 235.918 125.986C235.314 125.736 234.727 125.346 234.158 124.815C233.599 124.294 233.178 123.735 232.895 123.141C232.613 122.546 232.452 121.96 232.414 121.384C232.385 120.799 232.464 120.237 232.653 119.698C232.842 119.159 233.123 118.689 233.497 118.288C233.932 117.821 234.394 117.485 234.883 117.278C235.372 117.072 235.87 116.987 236.377 117.023C236.892 117.05 237.407 117.19 237.921 117.443C238.435 117.696 238.93 118.044 239.405 118.487C239.564 118.635 239.704 118.784 239.827 118.933C239.958 119.073 240.057 119.191 240.124 119.288L236.053 123.653C236.738 124.152 237.414 124.381 238.08 124.34C238.746 124.281 239.34 123.971 239.862 123.412C240.14 123.113 240.355 122.799 240.505 122.469C240.656 122.121 240.769 121.747 240.845 121.347L242.361 121.741C242.271 122.267 242.109 122.796 241.875 123.328C241.641 123.859 241.32 124.344 240.911 124.783ZM234.949 122.649L237.793 119.599C237.261 119.104 236.738 118.833 236.222 118.788C235.705 118.725 235.225 118.931 234.782 119.407C234.399 119.817 234.209 120.311 234.211 120.888C234.213 121.466 234.459 122.053 234.949 122.649Z" fill="#1BFEC0"/>
<path d="M246.245 119.063C245.706 119.641 245.155 119.886 244.592 119.797C244.03 119.709 243.45 119.386 242.853 118.829L234.739 111.262L236.239 109.654L244.437 117.299C244.633 117.481 244.808 117.575 244.961 117.578C245.106 117.573 245.217 117.529 245.295 117.445C245.33 117.407 245.36 117.375 245.386 117.347C245.421 117.309 245.46 117.249 245.502 117.167L246.901 118.079C246.794 118.38 246.575 118.708 246.245 119.063Z" fill="#1BFEC0"/>
<path d="M251.065 113.894C250.622 114.369 250.129 114.738 249.588 115.001C249.037 115.255 248.465 115.392 247.87 115.413C247.275 115.434 246.676 115.328 246.072 115.097C245.468 114.847 244.881 114.457 244.312 113.926C243.753 113.404 243.332 112.846 243.049 112.252C242.767 111.657 242.607 111.071 242.568 110.495C242.539 109.91 242.619 109.348 242.807 108.809C242.996 108.27 243.277 107.8 243.651 107.399C244.086 106.932 244.548 106.596 245.037 106.389C245.526 106.183 246.024 106.098 246.531 106.134C247.046 106.161 247.561 106.301 248.075 106.554C248.589 106.807 249.084 107.155 249.56 107.598C249.718 107.746 249.859 107.895 249.981 108.044C250.112 108.184 250.211 108.302 250.278 108.399L246.207 112.764C246.893 113.263 247.568 113.492 248.235 113.451C248.9 113.392 249.494 113.082 250.016 112.523C250.294 112.224 250.509 111.91 250.66 111.58C250.81 111.232 250.923 110.858 250.999 110.458L252.516 110.852C252.426 111.378 252.264 111.907 252.03 112.439C251.795 112.97 251.474 113.455 251.065 113.894ZM245.103 111.76L247.947 108.71C247.416 108.215 246.892 107.944 246.376 107.899C245.859 107.836 245.379 108.042 244.936 108.518C244.553 108.928 244.363 109.422 244.365 109.999C244.367 110.577 244.613 111.164 245.103 111.76Z" fill="#1BFEC0"/>
<path d="M256.337 108.24C255.772 108.846 255.134 109.166 254.422 109.2C253.701 109.225 253.037 108.955 252.431 108.39C252.067 108.051 251.815 107.676 251.675 107.266C251.533 106.837 251.512 106.365 251.611 105.847C251.719 105.32 251.938 104.739 252.268 104.105C252.606 103.461 253.069 102.75 253.655 101.972C253.469 101.816 253.275 101.688 253.073 101.586C252.871 101.467 252.661 101.402 252.444 101.392C252.226 101.363 252.011 101.398 251.798 101.496C251.575 101.584 251.355 101.746 251.138 101.979C250.825 102.315 250.581 102.707 250.408 103.155C250.242 103.594 250.11 104.054 250.009 104.536L248.384 104.119C248.498 103.51 248.688 102.885 248.955 102.244C249.221 101.604 249.611 101.008 250.124 100.458C250.924 99.5996 251.776 99.1999 252.681 99.2585C253.584 99.2991 254.517 99.7674 255.477 100.663L259.549 104.46L258.309 105.789L257.449 105.196L257.397 105.252C257.371 105.803 257.282 106.339 257.128 106.859C256.984 107.369 256.72 107.829 256.337 108.24ZM255.561 106.548C255.822 106.268 255.992 105.955 256.07 105.61C256.157 105.255 256.2 104.834 256.202 104.346L254.663 102.911C254.284 103.43 253.993 103.891 253.791 104.295C253.588 104.699 253.456 105.056 253.395 105.365C253.324 105.665 253.324 105.927 253.395 106.15C253.466 106.373 253.585 106.563 253.753 106.719C254.061 107.006 254.372 107.122 254.686 107.066C255 107.01 255.291 106.837 255.561 106.548Z" fill="#1BFEC0"/>
<path d="M263.299 100.774C262.856 101.25 262.328 101.638 261.716 101.939C261.103 102.222 260.505 102.406 259.921 102.489L259.591 100.768C260.12 100.687 260.594 100.562 261.012 100.394C261.43 100.208 261.804 99.9376 262.134 99.5831C262.482 99.2101 262.664 98.8653 262.68 98.549C262.687 98.2239 262.569 97.9483 262.326 97.7221C262.187 97.5917 262.026 97.5206 261.845 97.5089C261.655 97.4884 261.453 97.509 261.238 97.5707C261.024 97.6323 260.802 97.7213 260.571 97.8376C260.331 97.9452 260.091 98.0529 259.851 98.1605C259.559 98.3061 259.248 98.4432 258.918 98.572C258.589 98.7008 258.258 98.7846 257.926 98.8233C257.602 98.8526 257.281 98.8323 256.962 98.7622C256.644 98.674 256.339 98.4952 256.05 98.2255C255.444 97.6602 255.159 96.9754 255.194 96.1711C255.229 95.3668 255.607 94.5776 256.329 93.8035C256.773 93.3278 257.257 92.977 257.781 92.7512C258.306 92.5253 258.806 92.3725 259.281 92.2927L259.569 93.9475C259.166 94.0247 258.795 94.1414 258.458 94.2976C258.12 94.4357 257.825 94.64 257.572 94.9105C257.251 95.2556 257.086 95.5817 257.079 95.8887C257.071 96.1777 257.174 96.4223 257.388 96.6223C257.528 96.7528 257.684 96.8285 257.857 96.8496C258.028 96.8526 258.212 96.8236 258.408 96.7626C258.605 96.7016 258.814 96.6176 259.036 96.5106C259.266 96.3943 259.501 96.2733 259.74 96.1477C260.042 95.9928 260.357 95.8509 260.687 95.7221C261.007 95.5846 261.333 95.4965 261.665 95.4578C262.007 95.4098 262.346 95.4386 262.684 95.5441C263.02 95.6316 263.347 95.8232 263.665 96.1189C263.963 96.3972 264.186 96.7188 264.334 97.0836C264.482 97.4303 264.549 97.8069 264.536 98.2134C264.514 98.6112 264.402 99.0302 264.201 99.4703C264 99.9105 263.699 100.345 263.299 100.774Z" fill="#1BFEC0"/>
<path d="M269.87 93.7276C269.427 94.2033 268.934 94.5724 268.393 94.8349C267.842 95.0888 267.27 95.2261 266.675 95.2468C266.08 95.2676 265.481 95.1622 264.877 94.9306C264.273 94.6811 263.686 94.291 263.117 93.7604C262.558 93.2386 262.137 92.6803 261.854 92.0856C261.572 91.4909 261.412 90.9055 261.373 90.3293C261.344 89.7439 261.424 89.1816 261.612 88.6427C261.801 88.1037 262.082 87.6337 262.456 87.2326C262.891 86.7663 263.353 86.4298 263.842 86.2233C264.331 86.0167 264.829 85.9317 265.336 85.9681C265.851 85.9952 266.366 86.1352 266.88 86.3879C267.394 86.6406 267.889 86.9888 268.365 87.4324C268.523 87.5802 268.664 87.7287 268.786 87.8778C268.917 88.0176 269.016 88.136 269.083 88.2329L265.012 92.5979C265.698 93.0974 266.373 93.3264 267.04 93.2851C267.705 93.2258 268.299 92.9163 268.821 92.3567C269.099 92.0582 269.314 91.7439 269.465 91.4138C269.615 91.0657 269.728 90.6918 269.804 90.2921L271.321 90.6858C271.231 91.2123 271.069 91.7413 270.835 92.2728C270.6 92.8043 270.279 93.2893 269.87 93.7276ZM263.908 91.5943L266.752 88.5444C266.221 88.0486 265.697 87.7782 265.181 87.733C264.664 87.6699 264.184 87.8761 263.741 88.3518C263.358 88.7622 263.168 89.2561 263.17 89.8335C263.172 90.4109 263.418 90.9978 263.908 91.5943Z" fill="#1BFEC0"/>
<path d="M344.448 29.4558C343.262 29.4558 342.318 29.0286 341.617 28.1741C340.928 27.3069 340.584 26.0954 340.584 24.5395C340.584 23.7743 340.692 23.0857 340.909 22.4735C341.138 21.8614 341.438 21.3449 341.808 20.9241C342.178 20.5032 342.599 20.178 343.07 19.9484C343.555 19.7189 344.052 19.6041 344.563 19.6041C345.098 19.6041 345.551 19.6998 345.921 19.8911C346.291 20.0696 346.66 20.3183 347.03 20.6371L346.954 19.1259V15.7208H349.154V29.2263H347.336L347.183 28.2124H347.107C346.762 28.5567 346.361 28.85 345.902 29.0924C345.442 29.3347 344.958 29.4558 344.448 29.4558ZM344.983 27.6385C345.685 27.6385 346.342 27.2878 346.954 26.5864V22.2057C346.622 21.9124 346.297 21.7084 345.978 21.5936C345.672 21.4788 345.36 21.4214 345.041 21.4214C344.429 21.4214 343.912 21.6892 343.491 22.2249C343.07 22.7605 342.86 23.5257 342.86 24.5204C342.86 25.5406 343.039 26.3186 343.396 26.8542C343.765 27.3771 344.295 27.6385 344.983 27.6385Z" fill="#1BFEC0"/>
<path d="M355.972 29.4558C355.322 29.4558 354.716 29.3474 354.155 29.1306C353.594 28.9011 353.103 28.5759 352.682 28.155C352.261 27.7342 351.93 27.224 351.687 26.6246C351.458 26.0125 351.343 25.3175 351.343 24.5395C351.343 23.7743 351.464 23.0857 351.706 22.4735C351.949 21.8614 352.268 21.3449 352.663 20.9241C353.071 20.5032 353.537 20.178 354.059 19.9484C354.582 19.7189 355.118 19.6041 355.666 19.6041C356.304 19.6041 356.865 19.7125 357.35 19.9293C357.834 20.1461 358.236 20.4522 358.555 20.8475C358.886 21.2429 359.135 21.7147 359.301 22.2631C359.467 22.8115 359.55 23.4109 359.55 24.0613C359.55 24.2781 359.537 24.4821 359.511 24.6734C359.499 24.8647 359.479 25.0178 359.454 25.1325H353.486C353.588 25.9742 353.881 26.6246 354.366 27.0838C354.863 27.5301 355.494 27.7533 356.259 27.7533C356.667 27.7533 357.044 27.6959 357.388 27.5811C357.745 27.4536 358.096 27.2814 358.44 27.0646L359.186 28.4419C358.74 28.7353 358.242 28.9776 357.694 29.1689C357.146 29.3602 356.572 29.4558 355.972 29.4558ZM353.466 23.6404H357.637C357.637 22.9135 357.477 22.346 357.158 21.9379C356.852 21.5171 356.374 21.3066 355.724 21.3066C355.163 21.3066 354.672 21.5043 354.251 21.8997C353.83 22.295 353.568 22.8753 353.466 23.6404Z" fill="#1BFEC0"/>
<path d="M361.651 32.9374V19.8337H363.468L363.621 20.8284H363.698C364.093 20.4968 364.533 20.2099 365.017 19.9676C365.502 19.7253 366.006 19.6041 366.529 19.6041C367.115 19.6041 367.632 19.7189 368.078 19.9484C368.537 20.1652 368.926 20.4841 369.245 20.9049C369.564 21.3258 369.806 21.8295 369.972 22.4162C370.138 23.0028 370.221 23.6596 370.221 24.3865C370.221 25.1899 370.106 25.9105 369.876 26.5481C369.66 27.173 369.366 27.7023 368.996 28.1359C368.627 28.5567 368.199 28.8819 367.715 29.1115C367.23 29.341 366.726 29.4558 366.204 29.4558C365.795 29.4558 365.387 29.3665 364.979 29.188C364.571 29.0095 364.176 28.7544 363.793 28.4228L363.851 29.9914V32.9374H361.651ZM365.744 27.6385C366.369 27.6385 366.892 27.3707 367.313 26.8351C367.734 26.2867 367.944 25.4769 367.944 24.4056C367.944 23.4619 367.785 22.7286 367.466 22.2057C367.147 21.6829 366.631 21.4214 365.917 21.4214C365.253 21.4214 364.565 21.7721 363.851 22.4735V26.8542C364.195 27.1475 364.527 27.3516 364.845 27.4663C365.164 27.5811 365.464 27.6385 365.744 27.6385Z" fill="#1BFEC0"/>
<path d="M374.591 29.4558C373.8 29.4558 373.245 29.2199 372.927 28.748C372.608 28.2762 372.448 27.6321 372.448 26.8159V15.7208H374.648V26.9307C374.648 27.1985 374.699 27.3898 374.801 27.5046C374.903 27.6066 375.012 27.6576 375.127 27.6576C375.178 27.6576 375.222 27.6576 375.26 27.6576C375.311 27.6576 375.382 27.6449 375.471 27.6194L375.758 29.2645C375.465 29.392 375.076 29.4558 374.591 29.4558Z" fill="#1BFEC0"/>
<path d="M381.487 29.4558C380.9 29.4558 380.339 29.3474 379.803 29.1306C379.268 28.9138 378.79 28.595 378.369 28.1741C377.961 27.7533 377.635 27.2368 377.393 26.6246C377.151 26.0125 377.03 25.3175 377.03 24.5395C377.03 23.7616 377.151 23.0666 377.393 22.4544C377.635 21.8423 377.961 21.3258 378.369 20.9049C378.79 20.4841 379.268 20.1652 379.803 19.9484C380.339 19.7189 380.9 19.6041 381.487 19.6041C382.073 19.6041 382.635 19.7189 383.17 19.9484C383.719 20.1652 384.197 20.4841 384.605 20.9049C385.013 21.3258 385.338 21.8423 385.581 22.4544C385.836 23.0666 385.963 23.7616 385.963 24.5395C385.963 25.3175 385.836 26.0125 385.581 26.6246C385.338 27.2368 385.013 27.7533 384.605 28.1741C384.197 28.595 383.719 28.9138 383.17 29.1306C382.635 29.3474 382.073 29.4558 381.487 29.4558ZM381.487 27.6576C382.175 27.6576 382.717 27.3771 383.113 26.8159C383.508 26.2421 383.706 25.4833 383.706 24.5395C383.706 23.5831 383.508 22.8242 383.113 22.2631C382.717 21.6892 382.175 21.4023 381.487 21.4023C380.798 21.4023 380.256 21.6892 379.861 22.2631C379.478 22.8242 379.287 23.5831 379.287 24.5395C379.287 25.4833 379.478 26.2421 379.861 26.8159C380.256 27.3771 380.798 27.6576 381.487 27.6576Z" fill="#1BFEC0"/>
<path d="M388.66 33.0904C388.405 33.0904 388.182 33.0713 387.99 33.033C387.799 33.0075 387.614 32.9629 387.435 32.8991L387.837 31.1775C387.926 31.203 388.028 31.2285 388.143 31.254C388.271 31.2922 388.392 31.3114 388.507 31.3114C389.004 31.3114 389.399 31.1583 389.693 30.8523C389.999 30.5589 390.228 30.1764 390.381 29.7045L390.554 29.1115L386.862 19.8337H389.1L390.726 24.4439C390.866 24.852 391 25.2856 391.127 25.7447C391.268 26.191 391.408 26.6374 391.548 27.0838H391.625C391.74 26.6502 391.854 26.2102 391.969 25.7638C392.097 25.3047 392.218 24.8647 392.333 24.4439L393.748 19.8337H395.872L392.467 29.6471C392.275 30.1827 392.065 30.661 391.835 31.0818C391.606 31.5027 391.338 31.8598 391.032 32.1531C390.739 32.4591 390.394 32.6887 389.999 32.8417C389.616 33.0075 389.17 33.0904 388.66 33.0904Z" fill="#1BFEC0"/>
<rect x="478" y="96" width="32" height="26" fill="#6515DD"/>
<path d="M446.263 114.431C445.447 114.431 444.701 114.284 444.025 113.991C443.349 113.685 442.768 113.251 442.284 112.69C441.799 112.116 441.423 111.427 441.155 110.624C440.887 109.821 440.753 108.909 440.753 107.888C440.753 106.881 440.887 105.982 441.155 105.191C441.423 104.388 441.799 103.712 442.284 103.163C442.768 102.615 443.349 102.194 444.025 101.901C444.701 101.608 445.447 101.461 446.263 101.461C447.079 101.461 447.825 101.608 448.501 101.901C449.177 102.194 449.757 102.615 450.242 103.163C450.739 103.712 451.122 104.388 451.389 105.191C451.657 105.982 451.791 106.881 451.791 107.888C451.791 108.909 451.657 109.821 451.389 110.624C451.122 111.427 450.739 112.116 450.242 112.69C449.757 113.251 449.177 113.685 448.501 113.991C447.825 114.284 447.079 114.431 446.263 114.431ZM446.263 112.499C446.76 112.499 447.206 112.39 447.602 112.173C447.997 111.957 448.335 111.651 448.616 111.255C448.896 110.847 449.113 110.363 449.266 109.801C449.419 109.227 449.496 108.59 449.496 107.888C449.496 106.486 449.202 105.389 448.616 104.598C448.042 103.795 447.258 103.393 446.263 103.393C445.268 103.393 444.477 103.795 443.891 104.598C443.317 105.389 443.03 106.486 443.03 107.888C443.03 108.59 443.106 109.227 443.259 109.801C443.412 110.363 443.629 110.847 443.91 111.255C444.19 111.651 444.528 111.957 444.924 112.173C445.319 112.39 445.765 112.499 446.263 112.499Z" fill="#1BFEC0"/>
<path d="M454.103 117.912L454.103 104.809L455.92 104.809L456.073 105.803L456.149 105.803C456.545 105.472 456.985 105.185 457.469 104.942C457.954 104.7 458.458 104.579 458.981 104.579C459.567 104.579 460.084 104.694 460.53 104.923C460.989 105.14 461.378 105.459 461.697 105.88C462.016 106.301 462.258 106.804 462.424 107.391C462.59 107.978 462.673 108.634 462.673 109.361C462.673 110.165 462.558 110.885 462.328 111.523C462.111 112.148 461.818 112.677 461.448 113.111C461.078 113.532 460.651 113.857 460.167 114.086C459.682 114.316 459.178 114.431 458.655 114.431C458.247 114.431 457.839 114.341 457.431 114.163C457.023 113.984 456.628 113.729 456.245 113.398L456.302 114.966L456.302 117.912L454.103 117.912ZM458.196 112.613C458.821 112.613 459.344 112.346 459.765 111.81C460.186 111.262 460.396 110.452 460.396 109.381C460.396 108.437 460.237 107.704 459.918 107.181C459.599 106.658 459.083 106.396 458.368 106.396C457.705 106.396 457.017 106.747 456.302 107.448L456.302 111.829C456.647 112.122 456.978 112.326 457.297 112.441C457.616 112.556 457.916 112.613 458.196 112.613Z" fill="#1BFEC0"/>
<path d="M468.917 114.431C468.267 114.431 467.661 114.322 467.1 114.106C466.539 113.876 466.048 113.551 465.627 113.13C465.206 112.709 464.875 112.199 464.632 111.6C464.403 110.987 464.288 110.292 464.288 109.514C464.288 108.749 464.409 108.061 464.652 107.448C464.894 106.836 465.213 106.32 465.608 105.899C466.016 105.478 466.482 105.153 467.005 104.923C467.527 104.694 468.063 104.579 468.611 104.579C469.249 104.579 469.81 104.687 470.295 104.904C470.779 105.121 471.181 105.427 471.5 105.822C471.832 106.218 472.08 106.69 472.246 107.238C472.412 107.786 472.495 108.386 472.495 109.036C472.495 109.253 472.482 109.457 472.456 109.648C472.444 109.84 472.425 109.993 472.399 110.107L466.431 110.107C466.533 110.949 466.826 111.6 467.311 112.059C467.808 112.505 468.439 112.728 469.204 112.728C469.613 112.728 469.989 112.671 470.333 112.556C470.69 112.428 471.041 112.256 471.385 112.04L472.131 113.417C471.685 113.71 471.188 113.952 470.639 114.144C470.091 114.335 469.517 114.431 468.917 114.431ZM466.412 108.615L470.582 108.615C470.582 107.888 470.422 107.321 470.104 106.913C469.797 106.492 469.319 106.282 468.669 106.282C468.108 106.282 467.617 106.479 467.196 106.875C466.775 107.27 466.514 107.85 466.412 108.615Z" fill="#1BFEC0"/>
<path d="M474.596 114.201L474.596 104.809L476.413 104.809L476.566 106.473L476.643 106.473C476.974 105.861 477.376 105.395 477.848 105.076C478.32 104.745 478.804 104.579 479.302 104.579C479.748 104.579 480.105 104.643 480.373 104.77L479.99 106.683C479.825 106.632 479.672 106.594 479.531 106.568C479.391 106.543 479.219 106.53 479.015 106.53C478.645 106.53 478.256 106.677 477.848 106.97C477.44 107.251 477.089 107.748 476.796 108.462L476.796 114.201L474.596 114.201Z" fill="#1BFEC0"/>
<path d="M483.504 114.431C482.675 114.431 482.006 114.182 481.495 113.685C480.985 113.175 480.73 112.505 480.73 111.676C480.73 111.179 480.832 110.739 481.036 110.356C481.253 109.961 481.585 109.623 482.031 109.342C482.49 109.062 483.064 108.826 483.753 108.634C484.454 108.443 485.289 108.297 486.259 108.195C486.246 107.952 486.208 107.723 486.144 107.506C486.093 107.276 485.997 107.079 485.857 106.913C485.729 106.734 485.557 106.6 485.34 106.511C485.124 106.409 484.856 106.358 484.537 106.358C484.078 106.358 483.625 106.447 483.179 106.626C482.745 106.804 482.318 107.021 481.897 107.276L481.094 105.803C481.617 105.472 482.203 105.185 482.854 104.942C483.504 104.7 484.205 104.579 484.958 104.579C486.131 104.579 487.005 104.93 487.579 105.631C488.165 106.32 488.459 107.321 488.459 108.634L488.459 114.201L486.641 114.201L486.488 113.168L486.412 113.168C485.991 113.525 485.538 113.825 485.054 114.067C484.582 114.31 484.065 114.431 483.504 114.431ZM484.212 112.709C484.594 112.709 484.939 112.62 485.245 112.441C485.564 112.263 485.902 112.008 486.259 111.676L486.259 109.572C485.621 109.648 485.085 109.75 484.652 109.878C484.218 110.005 483.867 110.152 483.6 110.318C483.332 110.471 483.141 110.649 483.026 110.854C482.911 111.058 482.854 111.274 482.854 111.504C482.854 111.925 482.981 112.231 483.236 112.422C483.491 112.613 483.816 112.709 484.212 112.709Z" fill="#1BFEC0"/>
<path d="M494.102 114.431C493.553 114.431 493.088 114.348 492.705 114.182C492.335 114.016 492.029 113.787 491.787 113.493C491.558 113.187 491.385 112.83 491.271 112.422C491.169 112.001 491.118 111.536 491.118 111.026L491.118 106.549L489.779 106.549L489.779 104.904L491.232 104.809L491.5 102.245L493.337 102.245L493.337 104.809L495.728 104.809L495.728 106.549L493.337 106.549L493.337 111.026C493.337 112.122 493.777 112.671 494.657 112.671C494.822 112.671 494.988 112.652 495.154 112.613C495.332 112.575 495.492 112.524 495.632 112.46L496.015 114.086C495.76 114.176 495.466 114.252 495.135 114.316C494.816 114.392 494.472 114.431 494.102 114.431Z" fill="#1BFEC0"/>
<path d="M501.423 114.431C500.772 114.431 500.167 114.322 499.605 114.106C499.044 113.876 498.553 113.551 498.132 113.13C497.712 112.709 497.38 112.199 497.138 111.6C496.908 110.987 496.793 110.292 496.793 109.514C496.793 108.749 496.915 108.061 497.157 107.448C497.399 106.836 497.718 106.32 498.113 105.899C498.521 105.478 498.987 105.153 499.51 104.923C500.033 104.694 500.568 104.579 501.117 104.579C501.754 104.579 502.315 104.687 502.8 104.904C503.285 105.121 503.686 105.427 504.005 105.822C504.337 106.218 504.585 106.69 504.751 107.238C504.917 107.786 505 108.386 505 109.036C505 109.253 504.987 109.457 504.962 109.648C504.949 109.84 504.93 109.993 504.904 110.107L498.936 110.107C499.038 110.949 499.331 111.6 499.816 112.059C500.313 112.505 500.944 112.728 501.71 112.728C502.118 112.728 502.494 112.671 502.838 112.556C503.195 112.428 503.546 112.256 503.89 112.04L504.636 113.417C504.19 113.71 503.693 113.952 503.144 114.144C502.596 114.335 502.022 114.431 501.423 114.431ZM498.917 108.615L503.087 108.615C503.087 107.888 502.928 107.321 502.609 106.913C502.303 106.492 501.824 106.282 501.174 106.282C500.613 106.282 500.122 106.479 499.701 106.875C499.28 107.27 499.019 107.85 498.917 108.615Z" fill="#1BFEC0"/>
<path d="M335.561 194.697V185.304H337.378L337.531 186.586H337.607C338.003 186.165 338.43 185.808 338.889 185.514C339.361 185.221 339.89 185.074 340.477 185.074C341.166 185.074 341.714 185.221 342.122 185.514C342.543 185.808 342.862 186.222 343.079 186.758C343.525 186.273 343.99 185.871 344.475 185.553C344.96 185.234 345.502 185.074 346.101 185.074C347.096 185.074 347.829 185.4 348.301 186.05C348.773 186.688 349.009 187.606 349.009 188.805V194.697H346.79V189.092C346.79 188.314 346.669 187.765 346.426 187.446C346.197 187.128 345.84 186.968 345.355 186.968C344.768 186.968 344.112 187.357 343.385 188.135V194.697H341.185V189.092C341.185 188.314 341.064 187.765 340.821 187.446C340.592 187.128 340.228 186.968 339.731 186.968C339.144 186.968 338.487 187.357 337.761 188.135V194.697H335.561Z" fill="#1BFEC0"/>
<path d="M355.528 194.926C354.941 194.926 354.38 194.818 353.844 194.601C353.308 194.384 352.83 194.065 352.409 193.644C352.001 193.224 351.676 192.707 351.434 192.095C351.191 191.483 351.07 190.788 351.07 190.01C351.07 189.232 351.191 188.537 351.434 187.925C351.676 187.313 352.001 186.796 352.409 186.375C352.83 185.954 353.308 185.636 353.844 185.419C354.38 185.189 354.941 185.074 355.528 185.074C356.114 185.074 356.675 185.189 357.211 185.419C357.759 185.636 358.238 185.954 358.646 186.375C359.054 186.796 359.379 187.313 359.621 187.925C359.876 188.537 360.004 189.232 360.004 190.01C360.004 190.788 359.876 191.483 359.621 192.095C359.379 192.707 359.054 193.224 358.646 193.644C358.238 194.065 357.759 194.384 357.211 194.601C356.675 194.818 356.114 194.926 355.528 194.926ZM355.528 193.128C356.216 193.128 356.758 192.847 357.154 192.286C357.549 191.712 357.747 190.954 357.747 190.01C357.747 189.053 357.549 188.295 357.154 187.733C356.758 187.159 356.216 186.873 355.528 186.873C354.839 186.873 354.297 187.159 353.902 187.733C353.519 188.295 353.328 189.053 353.328 190.01C353.328 190.954 353.519 191.712 353.902 192.286C354.297 192.847 354.839 193.128 355.528 193.128Z" fill="#1BFEC0"/>
<path d="M362.181 194.697V185.304H363.999L364.152 186.566H364.228C364.649 186.158 365.102 185.808 365.586 185.514C366.084 185.221 366.658 185.074 367.308 185.074C368.315 185.074 369.049 185.4 369.508 186.05C369.967 186.688 370.197 187.606 370.197 188.805V194.697H367.997V189.092C367.997 188.314 367.882 187.765 367.652 187.446C367.423 187.128 367.047 186.968 366.524 186.968C366.116 186.968 365.752 187.07 365.433 187.274C365.127 187.466 364.777 187.753 364.381 188.135V194.697H362.181Z" fill="#1BFEC0"/>
<path d="M372.886 194.697V185.304H375.085V194.697H372.886ZM373.995 183.659C373.6 183.659 373.275 183.544 373.02 183.314C372.764 183.085 372.637 182.785 372.637 182.415C372.637 182.046 372.764 181.746 373.02 181.516C373.275 181.274 373.6 181.153 373.995 181.153C374.39 181.153 374.716 181.274 374.971 181.516C375.226 181.746 375.353 182.046 375.353 182.415C375.353 182.785 375.226 183.085 374.971 183.314C374.716 183.544 374.39 183.659 373.995 183.659Z" fill="#1BFEC0"/>
<path d="M381.202 194.926C380.653 194.926 380.188 194.843 379.805 194.677C379.435 194.512 379.129 194.282 378.887 193.989C378.657 193.683 378.485 193.326 378.37 192.917C378.268 192.497 378.217 192.031 378.217 191.521V187.045H376.878V185.4L378.332 185.304L378.6 182.741H380.436V185.304H382.828V187.045H380.436V191.521C380.436 192.618 380.876 193.166 381.756 193.166C381.922 193.166 382.088 193.147 382.254 193.109C382.432 193.071 382.592 193.02 382.732 192.956L383.114 194.582C382.859 194.671 382.566 194.748 382.235 194.811C381.916 194.888 381.571 194.926 381.202 194.926Z" fill="#1BFEC0"/>
<path d="M388.35 194.926C387.764 194.926 387.203 194.818 386.667 194.601C386.131 194.384 385.653 194.065 385.232 193.644C384.824 193.224 384.499 192.707 384.257 192.095C384.014 191.483 383.893 190.788 383.893 190.01C383.893 189.232 384.014 188.537 384.257 187.925C384.499 187.313 384.824 186.796 385.232 186.375C385.653 185.954 386.131 185.636 386.667 185.419C387.203 185.189 387.764 185.074 388.35 185.074C388.937 185.074 389.498 185.189 390.034 185.419C390.582 185.636 391.06 185.954 391.468 186.375C391.877 186.796 392.202 187.313 392.444 187.925C392.699 188.537 392.827 189.232 392.827 190.01C392.827 190.788 392.699 191.483 392.444 192.095C392.202 192.707 391.877 193.224 391.468 193.644C391.06 194.065 390.582 194.384 390.034 194.601C389.498 194.818 388.937 194.926 388.35 194.926ZM388.35 193.128C389.039 193.128 389.581 192.847 389.976 192.286C390.372 191.712 390.569 190.954 390.569 190.01C390.569 189.053 390.372 188.295 389.976 187.733C389.581 187.159 389.039 186.873 388.35 186.873C387.662 186.873 387.12 187.159 386.724 187.733C386.342 188.295 386.15 189.053 386.15 190.01C386.15 190.954 386.342 191.712 386.724 192.286C387.12 192.847 387.662 193.128 388.35 193.128Z" fill="#1BFEC0"/>
<path d="M395.004 194.697V185.304H396.821L396.974 186.968H397.051C397.383 186.356 397.784 185.891 398.256 185.572C398.728 185.24 399.213 185.074 399.71 185.074C400.156 185.074 400.513 185.138 400.781 185.266L400.399 187.179C400.233 187.128 400.08 187.089 399.939 187.064C399.799 187.038 399.627 187.026 399.423 187.026C399.053 187.026 398.664 187.172 398.256 187.466C397.848 187.746 397.497 188.244 397.204 188.958V194.697H395.004Z" fill="#1BFEC0"/>
</svg>
