<svg width="239" height="66" fill="none" xmlns="http://www.w3.org/2000/svg"><path d="M20.984 40v-7.748c8.221 0 14.546-8.142 11.423-16.76-1.186-3.201-3.715-5.77-6.917-6.917C16.873 5.452 8.73 11.777 8.73 20H.982C.982 6.915 13.632-3.283 27.348.986c6.008 1.858 10.751 6.64 12.61 12.61C44.225 27.35 34.067 40 20.983 40z" fill="#717485"/><path fill-rule="evenodd" clip-rule="evenodd" d="M20.984 32.252h-7.708v-7.707h7.708v7.707zM13.276 38.182h-5.93v-5.93h5.93v5.93zM7.346 32.252h-4.98v-4.94h4.98v4.94z" fill="#717485"/><path d="M72.133 11.58c-2.292-1.582-5.139-2.412-8.459-2.412H56.44v22.966h7.234c3.32 0 6.167-.83 8.46-2.53 1.264-.87 2.252-2.134 2.924-3.676.672-1.541 1.028-3.36 1.028-5.415 0-2.016-.356-3.834-1.028-5.376-.672-1.502-1.66-2.728-2.925-3.558zM60.67 13.081h2.293c2.53 0 4.624.513 6.205 1.462 1.74 1.067 2.649 3.083 2.649 5.969 0 3.004-.91 5.099-2.648 6.245-1.503.988-3.598 1.502-6.167 1.502H60.71V13.081h-.04zM81.146 8.892c-.712 0-1.305.237-1.78.711-.474.474-.75 1.067-.75 1.74 0 .71.237 1.304.75 1.778.475.474 1.068.751 1.78.751.711 0 1.304-.237 1.778-.75a2.514 2.514 0 00.751-1.78c0-.711-.237-1.304-.75-1.739-.475-.474-1.108-.711-1.78-.711zM83.122 15.967H79.05v16.207h4.072V15.967zM97.945 17.311c-1.225-1.107-2.609-1.74-4.071-1.74-2.253 0-4.111.791-5.574 2.293-1.462 1.502-2.174 3.479-2.174 5.811 0 2.293.712 4.23 2.174 5.81 1.463 1.503 3.32 2.293 5.574 2.293 1.58 0 2.925-.434 4.032-1.304v.395c0 1.344-.356 2.372-1.068 3.123-.711.711-1.7 1.067-2.925 1.067-1.897 0-3.043-.75-4.506-2.688L86.64 35.02l.079.118c.593.83 1.502 1.66 2.728 2.45 1.225.791 2.727 1.187 4.545 1.187 2.411 0 4.388-.751 5.81-2.214 1.463-1.462 2.175-3.439 2.175-5.89V15.968h-3.993v1.344h-.039zm-1.067 9.566c-.712.79-1.62 1.186-2.807 1.186-1.186 0-2.095-.396-2.767-1.186-.711-.79-1.067-1.858-1.067-3.162 0-1.305.356-2.412 1.067-3.202.712-.79 1.62-1.226 2.767-1.226 1.186 0 2.095.396 2.807 1.226.711.79 1.067 1.897 1.067 3.202 0 1.304-.395 2.371-1.067 3.162zM109.487 15.967h-4.071v16.207h4.071V15.967zM107.511 8.892c-.712 0-1.305.237-1.779.711s-.751 1.067-.751 1.74c0 .71.237 1.304.751 1.778.474.474 1.067.751 1.779.751.711 0 1.304-.237 1.779-.75a2.516 2.516 0 00.751-1.78c0-.711-.238-1.304-.751-1.739-.475-.474-1.107-.711-1.779-.711zM118.421 11.619h-3.993v4.387h-2.332v3.716h2.332v6.72c0 2.095.435 3.597 1.265 4.467.83.87 2.293 1.304 4.388 1.304.672 0 1.344-.04 1.976-.079h.198v-3.716l-1.384.08c-.988 0-1.62-.159-1.937-.515-.316-.355-.474-1.067-.474-2.134v-6.166h3.795v-3.716h-3.795v-4.348h-.039zM145.379 9.168h-4.072v22.966h4.072V9.168zM186.527 26.363c-.711.83-1.462 1.542-2.055 1.897-.553.356-1.265.554-2.095.554-1.186 0-2.174-.435-2.965-1.344-.79-.91-1.185-2.056-1.185-3.44 0-1.383.395-2.529 1.146-3.399.79-.909 1.739-1.344 2.925-1.344 1.304 0 2.688.83 3.874 2.214l2.688-2.57c-1.74-2.292-3.993-3.36-6.681-3.36-2.253 0-4.19.83-5.771 2.412-1.581 1.581-2.371 3.637-2.371 6.048s.79 4.427 2.371 6.048c1.581 1.62 3.518 2.41 5.771 2.41 2.965 0 5.337-1.264 6.918-3.596l-2.57-2.53zM203.248 18.22a6.602 6.602 0 00-2.332-1.937c-.988-.474-2.095-.711-3.36-.711-2.293 0-4.151.83-5.534 2.49-1.344 1.66-2.056 3.676-2.056 6.087 0 2.451.751 4.467 2.254 6.048 1.462 1.542 3.478 2.332 5.889 2.332 2.728 0 5.02-1.106 6.68-3.32l.08-.119-2.649-2.569c-.237.316-.593.633-.909.949a4.539 4.539 0 01-1.186.87c-.593.316-1.304.434-2.055.434-1.147 0-2.056-.316-2.767-.988-.672-.593-1.067-1.423-1.147-2.45h10.792l.039-1.503a10.6 10.6 0 00-.435-3.004 8.949 8.949 0 00-1.304-2.609zm-8.894 3.834c.198-.79.553-1.423 1.067-1.936.554-.554 1.265-.83 2.135-.83.988 0 1.739.276 2.253.83.474.513.751 1.146.83 1.897h-6.285v.04zM218.901 17.192c-1.225-1.067-2.925-1.58-5.06-1.58a8.595 8.595 0 00-3.755.869c-1.067.553-2.095 1.423-2.767 2.609l.04.04 2.609 2.49c1.067-1.7 2.253-2.293 3.834-2.293.87 0 1.542.237 2.095.672.553.435.79 1.028.79 1.74v.79a10.112 10.112 0 00-3.004-.475c-2.016 0-3.676.475-4.901 1.423-1.226.95-1.858 2.333-1.858 4.032 0 1.502.514 2.767 1.581 3.676 1.067.87 2.372 1.344 3.913 1.344 1.542 0 3.005-.632 4.309-1.7v1.345h3.992V21.738c.079-1.937-.553-3.478-1.818-4.546zm-7.234 8.776c.475-.317 1.107-.475 1.937-.475.988 0 2.016.198 3.083.593v1.581c-.869.83-2.055 1.226-3.518 1.226-.711 0-1.264-.158-1.62-.475-.356-.316-.554-.671-.554-1.185s.238-.95.672-1.265zM236.452 17.509c-1.147-1.265-2.728-1.898-4.744-1.898-1.62 0-2.925.475-3.913 1.384v-.988h-3.992v16.206h4.071V23.24c0-1.225.277-2.213.87-2.885.593-.712 1.344-1.028 2.411-1.028.909 0 1.62.316 2.134.91.514.632.791 1.462.791 2.529v9.368h4.071v-9.368c0-2.214-.553-3.992-1.699-5.257zM136.208 17.192c-1.225-1.067-2.925-1.58-5.059-1.58a8.6 8.6 0 00-3.756.869c-1.067.553-2.095 1.423-2.767 2.609l.04.04 2.609 2.49c1.067-1.7 2.253-2.293 3.834-2.293.87 0 1.542.237 2.095.672.553.435.791 1.028.791 1.74v.79a10.123 10.123 0 00-3.005-.475c-2.016 0-3.676.475-4.901 1.423-1.225.95-1.858 2.333-1.858 4.032 0 1.502.514 2.767 1.581 3.676 1.067.87 2.372 1.344 3.913 1.344 1.542 0 3.005-.632 4.309-1.7v1.345h3.992V21.738c.04-1.937-.593-3.478-1.818-4.546zm-7.234 8.776c.475-.317 1.107-.475 1.937-.475.989 0 2.016.198 3.084.593v1.581c-.87.83-2.056 1.226-3.518 1.226-.712 0-1.265-.158-1.621-.475-.356-.316-.554-.671-.554-1.185s.198-.95.672-1.265zM160.162 32.49c-6.522 0-11.858-5.297-11.858-11.859a11.843 11.843 0 0111.858-11.858c6.522 0 11.859 5.297 11.859 11.858 0 6.562-5.337 11.859-11.859 11.859zm0-19.488c-4.229 0-7.668 3.44-7.668 7.669 0 4.23 3.439 7.668 7.668 7.668 4.23 0 7.669-3.439 7.669-7.668 0-4.23-3.439-7.668-7.669-7.668zM62.91 50c3.047 0 5.18 2.112 5.18 5.18 0 3.066-2.174 5.178-5.26 5.178h-3.393v5.383H57V50h5.91zm-3.473 8.307h2.803c2.133 0 3.331-1.137 3.331-3.128 0-1.99-1.219-3.128-3.33-3.128h-2.804v6.256zM79.159 61.496h-5.992l-1.442 4.245h-2.539L74.873 50h2.64l5.688 15.74h-2.58l-1.462-4.244zm-5.362-1.97h4.753l-2.336-6.906h-.061l-2.356 6.906zM88.806 65.74H86.37V50h6.093c3.25 0 5.26 1.869 5.26 4.814 0 2.132-1.137 3.859-3.046 4.488l3.514 6.439h-2.823l-3.21-6.053h-3.35v6.053zm0-8.022h3.433c1.889 0 2.965-1.036 2.965-2.843 0-1.747-1.137-2.824-3.026-2.824h-3.351v5.667h-.02zM105.4 65.74V52.113h-4.813V50h12.064v2.112h-4.813v13.629H105.4zM116.084 65.74V50h2.214l8.164 11.597h.082V50h2.376v15.74h-2.194l-8.164-11.597h-.102v11.598h-2.376zM143.239 65.74h-9.993V50h9.993v2.112h-7.556v4.59h7.15v2.032h-7.15v4.894h7.556v2.113zM149.616 65.74h-2.437V50h6.093c3.25 0 5.261 1.869 5.261 4.814 0 2.132-1.138 3.859-3.047 4.488L159 65.741h-2.823l-3.209-6.053h-3.352v6.053zm0-8.022h3.433c1.889 0 2.965-1.036 2.965-2.843 0-1.747-1.137-2.824-3.026-2.824h-3.372v5.667z" fill="#717485"/></svg>