<svg width="51" height="40" viewBox="0 0 51 40" fill="none" xmlns="http://www.w3.org/2000/svg">
<path fill-rule="evenodd" clip-rule="evenodd" d="M40.8495 38.2375L40.2034 39.3643C39.967 39.7819 39.4628 39.9552 39.0136 39.7898C38.0839 39.4431 37.2329 38.9467 36.4844 38.3242C36.1219 38.0248 36.0274 37.4969 36.2637 37.0872L36.9098 35.9604C36.3662 35.3301 35.9407 34.5973 35.657 33.8015H34.3569C33.8842 33.8015 33.4744 33.4627 33.3957 32.9899C33.2381 32.0444 33.2302 31.0516 33.3957 30.0667C33.4744 29.5939 33.8842 29.2472 34.3569 29.2472H35.657C35.9407 28.4514 36.3662 27.7186 36.9098 27.0883L36.2637 25.9615C36.0274 25.5518 36.114 25.0239 36.4844 24.7245C37.2329 24.102 38.0917 23.6056 39.0136 23.2589C39.4628 23.0934 39.967 23.2668 40.2034 23.6844L40.8495 24.8111C41.6769 24.6614 42.5199 24.6614 43.3473 24.8111L43.9934 23.6844C44.2298 23.2668 44.734 23.0934 45.1832 23.2589C46.1129 23.6056 46.9639 24.102 47.7124 24.7245C48.0749 25.0239 48.1694 25.5518 47.9331 25.9615L47.287 27.0883C47.8306 27.7186 48.2561 28.4514 48.5398 29.2472H49.8399C50.3126 29.2472 50.7224 29.586 50.8011 30.0588C50.9587 31.0043 50.9666 31.9971 50.8011 32.982C50.7224 33.4548 50.3126 33.8015 49.8399 33.8015H48.5398C48.2561 34.5973 47.8306 35.3301 47.287 35.9604L47.9331 37.0872C48.1694 37.4969 48.0828 38.0248 47.7124 38.3242C46.9639 38.9467 46.1051 39.4431 45.1832 39.7898C44.734 39.9552 44.2298 39.7819 43.9934 39.3643L43.3473 38.2375C42.5278 38.3873 41.6769 38.3873 40.8495 38.2375ZM40.0222 33.5966C43.0557 35.9289 46.5148 32.4699 44.1825 29.4363C41.1489 27.104 37.6899 30.563 40.0222 33.5966Z" fill="#6515DD"/>
<path fill-rule="evenodd" clip-rule="evenodd" d="M40.8495 15.0407L40.2034 16.1675C39.967 16.5851 39.4628 16.7584 39.0136 16.5929C38.0839 16.2462 37.2329 15.7498 36.4844 15.1274C36.1219 14.828 36.0274 14.3 36.2637 13.8903L36.9098 12.7636C36.3662 12.1332 35.9407 11.4004 35.657 10.6046H34.3569C33.8842 10.6046 33.4744 10.2658 33.3957 9.79306C33.2381 8.84753 33.2302 7.85474 33.3957 6.86982C33.4744 6.39706 33.8842 6.05036 34.3569 6.05036H35.657C35.9407 5.25455 36.3662 4.52177 36.9098 3.89142L36.2637 2.76468C36.0274 2.35495 36.114 1.82703 36.4844 1.52762C37.2329 0.90515 38.0917 0.40875 39.0136 0.0620588C39.4628 -0.103408 39.967 0.0699401 40.2034 0.487546L40.8495 1.61429C41.6769 1.46458 42.5199 1.46458 43.3473 1.61429L43.9934 0.487546C44.2298 0.0699401 44.734 -0.103408 45.1832 0.0620588C46.1129 0.40875 46.9639 0.90515 47.7124 1.52762C48.0749 1.82703 48.1694 2.35495 47.9331 2.76468L47.287 3.89142C47.8306 4.52177 48.2561 5.25455 48.5398 6.05036H49.8399C50.3126 6.05036 50.7224 6.38918 50.8011 6.86194C50.9587 7.80746 50.9666 8.80026 50.8011 9.78518C50.7224 10.2579 50.3126 10.6046 49.8399 10.6046H48.5398C48.2561 11.4004 47.8306 12.1332 47.287 12.7636L47.9331 13.8903C48.1694 14.3 48.0828 14.828 47.7124 15.1274C46.9639 15.7498 46.1051 16.2462 45.1832 16.5929C44.734 16.7584 44.2298 16.5851 43.9934 16.1675L43.3473 15.0407C42.5278 15.1904 41.6769 15.1904 40.8495 15.0407ZM40.0222 10.3998C43.0557 12.732 46.5148 9.27301 44.1825 6.23946C41.1489 3.90718 37.6899 7.36621 40.0222 10.3998Z" fill="#391077"/>
<path d="M40.0393 10.3843C43.0472 12.6968 46.4768 9.26715 44.1643 6.25934C41.1565 3.94684 37.7268 7.37653 40.0393 10.3843Z" fill="#1BFEC0"/>
<path fill-rule="evenodd" clip-rule="evenodd" d="M8.54594 29.7502L6.34708 31.0283C5.53735 31.5051 4.51247 31.3053 3.91284 30.585C2.67557 29.0868 1.7185 27.4118 1.05856 25.6233C0.737066 24.7607 1.09359 23.7729 1.8956 23.3095L4.09447 22.0313C3.78965 20.4301 3.78556 18.7708 4.0837 17.1435L1.87897 15.8706C1.07726 15.4078 0.714154 14.432 1.04341 13.5532C1.70191 11.7955 2.66058 10.1041 3.90549 8.5959C4.50198 7.87133 5.53625 7.68456 6.33797 8.14743L8.54269 9.42033C9.80289 8.34849 11.2419 7.52242 12.781 6.98576L12.7885 4.44241C12.7888 3.51615 13.4527 2.70577 14.3738 2.56059C16.2527 2.23788 18.1951 2.23696 20.0979 2.55163C21.0215 2.71076 21.707 3.49845 21.699 4.43807L21.6915 6.98142C23.2411 7.53757 24.6708 8.36302 25.9272 9.42692L28.1261 8.14876C28.9358 7.67201 29.9607 7.87178 30.5603 8.59211C31.7976 10.0903 32.7547 11.7653 33.4146 13.5538C33.7361 14.4164 33.3796 15.4042 32.5776 15.8676L30.3787 17.1458C30.6835 18.747 30.6876 20.4063 30.3895 22.0336L32.5942 23.3065C33.3959 23.7693 33.759 24.7451 33.4298 25.6239C32.7713 27.3817 31.8126 29.073 30.5677 30.5812C29.9712 31.3058 28.9369 31.4925 28.1352 31.0297L25.9305 29.7568C24.6703 30.8286 23.2313 31.6547 21.6921 32.1913L21.6847 34.7347C21.6844 35.6609 21.0205 36.4713 20.0993 36.6165C18.2205 36.9392 16.278 36.9401 14.3752 36.6255C13.4516 36.4663 12.7662 35.6787 12.7742 34.739L12.7817 32.1957C11.2455 31.6472 9.80237 30.8141 8.54594 29.7502ZM11.6868 21.0699C14.5476 27.9952 23.8002 25.5159 22.8152 18.0881C19.9543 11.1629 10.7017 13.6421 11.6868 21.0699Z" fill="#6515DD"/>
</svg>
