<svg width="368" height="40" viewBox="0 0 368 40" fill="none" xmlns="http://www.w3.org/2000/svg">
<rect width="368" height="40" fill="#E5E5E5"/>
<g clip-path="url(#clip0)">
<rect width="1152" height="5765" transform="translate(-306 -861)" fill="white"/>
<path d="M4.90576 12.0876C5.00545 11.6639 5.27961 11.3399 5.47899 10.991C7.27344 7.85071 9.09281 4.71043 10.8873 1.57014C11.5103 0.498459 12.4574 0 13.6537 0C20.0589 0 26.4391 0 32.8443 0C34.0157 0 34.9628 0.498457 35.5609 1.54522C36.7572 3.5889 37.9286 5.6575 39.1 7.70118C39.1498 7.77595 39.1747 7.87564 39.1997 7.97533C38.6264 7.97533 38.0532 8.00025 37.48 8.00025C35.0625 8.00025 32.62 8.02517 30.2025 8.02517C30.1277 8.02517 30.053 8.00025 29.9782 8.00025C25.5668 8.00025 21.1804 8.00025 16.7691 8.00025C16.4949 8.00025 16.2955 8.0501 16.1958 8.32425C16.146 8.42394 16.0712 8.52363 16.0214 8.62332C13.9528 12.2122 11.9091 15.8011 9.8405 19.39C9.7408 19.5645 9.69096 19.8137 9.41681 19.8635C7.89651 17.2466 6.40114 14.6796 4.90576 12.0876Z" fill="#717485" fill-opacity="0.8"/>
<path d="M4.90569 12.0879C6.40106 14.6799 7.89644 17.2469 9.36689 19.8389C9.39181 19.8888 9.41674 19.9386 9.44166 19.9884C11.6349 23.7767 13.8281 27.565 15.9964 31.3782C16.2207 31.777 16.445 31.9265 16.9185 31.9265C21.0308 31.9016 25.168 31.9016 29.2803 31.9265C29.5295 31.9265 29.8037 31.9514 30.0529 31.9514C30.003 32.0761 29.9532 32.2007 29.8784 32.3253C29.056 33.7459 28.2335 35.1665 27.4111 36.612C26.788 37.6837 26.1898 38.7803 25.5668 39.8769C25.3674 39.8769 25.168 39.9018 24.9686 39.9018C21.2302 39.9018 17.4668 39.9018 13.7284 39.9018C12.3826 39.9018 11.4106 39.3535 10.7376 38.1822C7.59736 32.6742 4.43216 27.1413 1.26695 21.6583C0.618954 20.5368 0.594029 19.4401 1.24202 18.3186C2.38848 16.3248 3.53493 14.306 4.68138 12.3122C4.75615 12.2125 4.83092 12.1627 4.90569 12.0879Z" fill="#717485" fill-opacity="0.6"/>
<path d="M25.5916 39.8767C26.2146 38.7801 26.8128 37.7084 27.4358 36.6118C28.2583 35.1912 29.0808 33.7706 29.9032 32.325C29.978 32.2004 30.0029 32.0758 30.0777 31.9512C30.2521 31.8515 30.3269 31.6521 30.4266 31.4776C31.2241 30.082 32.0466 28.6863 32.8441 27.2906C34.165 24.9977 35.4859 22.7048 36.8069 20.4119C37.0062 20.063 36.9813 19.8387 36.7819 19.4897C35.2118 16.7731 33.6416 14.0565 32.0715 11.315C31.4484 10.2184 30.7755 9.12181 30.2023 8.00028C32.6198 8.00028 35.0623 8.00028 37.4798 7.97536C38.053 7.97536 38.6262 7.95044 39.1995 7.95044C39.6979 8.64828 40.0718 9.42089 40.4955 10.1686C41.9659 12.7356 43.4613 15.3027 44.9317 17.8947C45.0314 18.0691 45.1311 18.2436 45.2308 18.4181C45.8289 19.4897 45.804 20.5365 45.2059 21.5833C43.4862 24.5491 41.7914 27.5149 40.0967 30.4807C38.6262 33.0478 37.1309 35.6149 35.6853 38.2068C35.0373 39.3533 34.0903 39.9265 32.7694 39.9016C30.5761 39.8767 28.3829 39.9016 26.1897 39.9016C25.9903 39.9016 25.7909 39.8767 25.5916 39.8767Z" fill="#717485"/>
<path d="M36.7572 19.4897C35.187 16.7731 33.6169 14.0565 32.0468 11.315C31.4237 10.2184 30.7508 9.1218 30.1775 8.00027C30.1028 8.00027 30.028 7.97534 29.9532 7.97534C25.5419 7.97534 21.1555 7.97534 16.7441 7.97534C16.4699 7.97534 16.2706 8.02519 16.1709 8.29934C16.121 8.39903 16.0463 8.49872 15.9964 8.59841C13.9278 12.1873 11.8841 15.7762 9.81554 19.3651C9.71585 19.5396 9.666 19.7888 9.39185 19.8386C9.41677 19.8885 9.44169 19.9383 9.46662 19.9882C11.6598 23.7765 13.853 27.5647 16.0213 31.3779C16.2456 31.7767 16.4699 31.9262 16.9435 31.9262C21.0558 31.9013 25.193 31.9013 29.3052 31.9262C29.5545 31.9262 29.8286 31.9512 30.0778 31.9512C30.2523 31.8515 30.3271 31.6521 30.4268 31.4776C31.2243 30.082 32.0468 28.6863 32.8443 27.2906C34.1652 24.9977 35.4861 22.7048 36.807 20.4119C36.9815 20.0629 36.9566 19.8386 36.7572 19.4897ZM23.2241 25.9198C19.9342 25.9946 17.2176 23.1783 17.2426 19.9383C17.2675 16.6236 19.9093 13.9568 23.249 13.9568C26.5388 13.9568 29.1806 16.5987 29.2055 19.9882C29.2554 23.0038 26.5637 26.0195 23.2241 25.9198Z" fill="#E1E1E1"/>
<path d="M77.0823 18.1441C78.9266 18.1441 80.746 18.1441 82.5903 18.1441C83.1137 18.1441 83.1137 18.1441 83.1884 18.6425C83.4875 21.0351 83.2632 23.4028 82.2663 25.6209C80.6962 29.1102 77.9546 31.2784 74.2411 32.076C69.9544 32.9981 65.9667 32.1757 62.5772 29.3345C59.0631 26.3936 57.3933 22.5804 57.8668 17.9945C58.3652 13.3589 60.8326 9.8946 64.9449 7.77615C68.9575 5.68263 73.0947 5.68263 77.1571 7.75123C78.0793 8.22477 78.9017 8.84784 79.6743 9.54568C80.0232 9.84475 80.0232 9.86968 79.6743 10.1937C79.0512 10.8167 78.4282 11.4398 77.8051 12.0629C77.4811 12.3869 77.4811 12.3869 77.0823 12.0629C75.8113 10.9912 74.3657 10.2934 72.6959 9.99429C68.0353 9.17184 63.5991 11.8137 62.1037 16.2998C60.5585 20.9604 62.7268 26.0197 67.1381 28.0385C70.079 29.3843 74.4156 29.1102 77.0823 26.7176C78.3285 25.596 79.0513 24.2253 79.3753 22.6302C79.5746 21.6582 79.6494 21.7579 78.6774 21.7579C76.3347 21.7579 74.0168 21.7579 71.6741 21.7579C71.5245 21.7579 71.3999 21.7579 71.2504 21.7579C71.051 21.7579 70.9762 21.6582 70.9762 21.4588C70.9762 21.3342 70.9762 21.2096 70.9762 21.1099C70.9762 20.3871 70.9762 19.6644 70.9762 18.9665C70.9762 18.0942 70.8765 18.1939 71.7239 18.1939C73.5682 18.1192 75.3128 18.1441 77.0823 18.1441Z" fill="#717485"/>
<path d="M356.967 18.6922C357.44 18.0691 357.864 17.5457 358.412 17.1221C360.232 15.7264 362.275 15.4024 364.443 16.0504C365.615 16.3993 366.487 17.1719 367.085 18.2436C367.659 19.2904 367.958 20.4368 367.958 21.6331C367.983 24.898 367.983 28.1629 367.983 31.4527C367.983 31.8764 367.983 31.9013 367.559 31.9013C366.861 31.9013 366.163 31.9013 365.465 31.9013C365.042 31.9013 365.042 31.9013 365.042 31.4527C365.042 30.0072 365.042 28.5866 365.042 27.1411C365.042 25.3965 365.091 23.6269 365.017 21.8823C364.992 21.359 364.892 20.8605 364.718 20.362C364.319 19.2654 363.521 18.6424 362.375 18.4928C360.256 18.1937 358.985 19.2405 358.188 20.7857C357.764 21.6082 357.59 22.4805 357.59 23.3777C357.59 25.9448 357.59 28.5118 357.59 31.1038C357.59 31.2533 357.59 31.378 357.59 31.5275C357.615 31.8016 357.515 31.9263 357.216 31.9263C356.468 31.9013 355.745 31.9263 354.998 31.9263C354.748 31.9263 354.624 31.8515 354.649 31.5773C354.649 31.4278 354.649 31.2533 354.649 31.1038C354.649 28.4121 354.649 25.7205 354.649 23.0288C354.649 22.3309 354.624 21.6331 354.474 20.9602C354.125 19.39 353.203 18.6174 351.608 18.4928C350.138 18.3931 349.016 18.9664 348.169 20.1627C347.471 21.1596 347.172 22.2811 347.172 23.4774C347.172 26.0445 347.172 28.6115 347.172 31.2035C347.172 31.353 347.172 31.4777 347.172 31.6272C347.172 31.8515 347.072 31.9512 346.848 31.9512C346.1 31.9512 345.328 31.9512 344.58 31.9512C344.356 31.9512 344.256 31.8764 344.256 31.6272C344.256 31.5026 344.256 31.378 344.256 31.2783C344.256 26.518 344.256 21.7577 344.256 16.9725C344.256 16.8728 344.256 16.7731 344.256 16.6735C344.231 16.3993 344.331 16.2747 344.63 16.2747C345.303 16.2996 345.976 16.2996 346.673 16.2747C347.022 16.2747 347.072 16.4242 347.072 16.6984C347.047 17.2467 347.072 17.795 347.122 18.3682C348.443 16.7482 350.088 15.7513 352.206 15.7762C354.325 15.7762 355.97 16.6485 356.967 18.6922Z" fill="#717485"/>
<path d="M168.4 20.3372C168.525 16.2 170.145 12.7607 173.758 10.393C177.497 7.95053 182.606 7.90069 186.295 10.2185C187.067 10.6921 187.74 11.2653 188.363 11.9382C188.687 12.2622 188.687 12.2871 188.363 12.5862C187.89 13.0348 187.416 13.5083 186.943 13.957C186.643 14.256 186.619 14.256 186.344 13.932C185.522 13.0348 184.575 12.312 183.428 11.9133C178.618 10.1687 172.462 12.5862 171.54 18.8668C171.166 21.4089 171.54 23.8015 173.036 25.9449C174.506 28.0633 176.6 29.2098 179.142 29.5088C182.182 29.8827 184.749 28.8608 186.893 26.7175C186.967 26.6427 187.042 26.5679 187.092 26.4932C187.242 26.2938 187.391 26.3436 187.541 26.4932C188.064 27.0165 188.587 27.5399 189.111 28.0633C189.31 28.2627 189.285 28.4122 189.111 28.6116C188.538 29.2347 187.915 29.783 187.217 30.2565C182.556 33.5463 175.378 33.1227 171.291 28.4122C169.546 26.3686 168.599 24.0009 168.45 21.3341C168.425 21.06 168.425 20.7609 168.4 20.3372Z" fill="#717485"/>
<path d="M226.121 29.758C225.872 29.8577 225.847 30.0072 225.748 30.1069C224.452 31.6521 222.807 32.4497 220.788 32.3998C220.265 32.3749 219.741 32.3251 219.243 32.2004C217.473 31.7518 216.277 30.6552 215.604 28.9355C215.23 27.9885 215.081 26.9666 215.081 25.9448C215.081 22.9042 215.081 19.8885 215.081 16.8479C215.081 16.7732 215.081 16.6984 215.081 16.5987C215.056 16.3246 215.155 16.2 215.454 16.2C216.202 16.2249 216.925 16.2249 217.673 16.2C217.922 16.2 218.046 16.2996 218.022 16.5489C218.022 16.6984 218.022 16.823 218.022 16.9726C218.022 19.6892 218.022 22.4058 218.022 25.0974C218.022 25.6707 218.046 26.2439 218.171 26.8171C218.62 28.9854 220.24 29.8079 222.233 29.6334C223.629 29.5088 224.626 28.7112 225.299 27.5149C225.773 26.6676 225.997 25.7454 225.997 24.7734C225.997 22.1565 225.997 19.5396 225.997 16.9476C225.997 16.7981 225.997 16.6735 225.997 16.5239C225.997 16.2996 226.097 16.2 226.321 16.2C227.093 16.2 227.866 16.2 228.664 16.2C228.863 16.2 228.963 16.2747 228.963 16.4741C228.963 16.5987 228.963 16.7233 228.963 16.823C228.963 21.6082 228.963 26.3934 228.963 31.1786C228.963 31.9014 228.988 31.8515 228.34 31.8515C227.741 31.8515 227.143 31.8266 226.545 31.8515C226.221 31.8515 226.121 31.7269 226.146 31.4278C226.121 30.9294 226.121 30.3811 226.121 29.758Z" fill="#717485"/>
<path d="M306.747 25.3964C306.747 23.4275 306.747 21.4586 306.747 19.4648C306.747 18.9414 306.747 18.9414 306.224 18.9414C305.551 18.9414 304.878 18.9414 304.18 18.9414C303.881 18.9414 303.806 18.8417 303.806 18.5676C303.831 17.9196 303.831 17.2467 303.806 16.5987C303.806 16.2996 303.931 16.2248 304.205 16.2248C304.853 16.2497 305.526 16.2248 306.174 16.2248C306.797 16.2248 306.747 16.2248 306.747 15.6267C306.747 15.1282 306.747 14.6298 306.747 14.1313C306.772 11.1904 308.741 9.12179 311.657 8.92241C312.504 8.87256 313.327 8.87256 314.149 9.12179C314.672 9.27133 314.672 9.27133 314.473 9.76979C314.249 10.343 313.999 10.9162 313.775 11.4895C313.675 11.7387 313.551 11.8135 313.277 11.7138C312.828 11.5642 312.38 11.5642 311.906 11.6141C310.61 11.7387 309.763 12.611 309.688 13.9319C309.663 14.555 309.663 15.1781 309.663 15.7762C309.663 16.1999 309.688 16.1999 310.087 16.2248C311.084 16.2248 312.08 16.2248 313.077 16.2248C313.775 16.2248 313.725 16.175 313.725 16.8728C313.725 17.4211 313.7 17.9943 313.725 18.5426C313.725 18.8666 313.601 18.9414 313.302 18.9414C312.255 18.9165 311.233 18.9414 310.186 18.9414C309.638 18.9414 309.638 18.9414 309.638 19.4897C309.638 23.3029 309.638 27.1161 309.638 30.9044C309.638 31.8764 309.638 31.8764 308.641 31.8764C308.143 31.8764 307.644 31.8764 307.146 31.8764C306.697 31.8764 306.672 31.8764 306.672 31.4278C306.672 30.1567 306.672 28.8856 306.672 27.5897C306.747 26.8669 306.747 26.1192 306.747 25.3964Z" fill="#717485"/>
<path d="M140.113 19.4398C140.113 15.5518 140.113 11.6638 140.113 7.77585C140.113 7.07801 140.063 7.12785 140.736 7.12785C141.633 7.12785 142.53 7.12785 143.427 7.12785C143.702 7.12785 143.851 7.20262 143.801 7.5017C143.801 7.62631 143.801 7.75093 143.801 7.85062C143.801 15.6266 143.801 23.4025 143.801 31.1784C143.801 31.976 143.876 31.9012 143.103 31.9012C142.231 31.9012 141.359 31.9012 140.462 31.9012C140.187 31.9012 140.038 31.8264 140.063 31.5274C140.088 31.3778 140.063 31.2532 140.063 31.1037C140.113 27.2157 140.113 23.3277 140.113 19.4398Z" fill="#717485"/>
<path d="M295.606 23.602C295.606 22.2063 295.606 20.8106 295.606 19.4149C295.606 18.9663 295.606 18.9414 295.133 18.9414C294.51 18.9414 293.887 18.9414 293.288 18.9414C292.865 18.9414 292.865 18.9165 292.865 18.4928C292.865 17.8697 292.865 17.2466 292.865 16.6485C292.865 16.3494 292.939 16.2248 293.263 16.2248C293.911 16.2497 294.535 16.2248 295.182 16.2248C295.606 16.2248 295.606 16.1999 295.606 15.7762C295.606 14.5051 295.606 13.234 295.606 11.9381C295.606 11.4147 295.606 11.4147 296.13 11.4147C296.778 11.4147 297.401 11.4147 298.049 11.4147C298.522 11.4147 298.522 11.4147 298.547 11.9131C298.547 12.8851 298.547 13.8571 298.547 14.854C298.547 15.1282 298.547 15.4023 298.547 15.7014C298.547 16.1999 298.547 16.1999 299.046 16.1999C299.993 16.1999 300.915 16.1999 301.862 16.1999C302.385 16.1999 302.385 16.1999 302.385 16.7232C302.385 17.2716 302.385 17.8448 302.385 18.3931C302.385 18.8915 302.385 18.8915 301.887 18.8915C300.94 18.8915 300.018 18.8915 299.07 18.8915C298.547 18.8915 298.547 18.8915 298.547 19.4398C298.547 21.8823 298.547 24.3497 298.547 26.7921C298.547 27.0413 298.572 27.3155 298.597 27.5647C298.771 28.8856 299.544 29.4589 300.865 29.409C301.139 29.409 301.413 29.3342 301.687 29.2595C301.937 29.1847 302.036 29.2595 302.136 29.4838C302.385 30.1068 302.634 30.705 302.859 31.3031C302.983 31.6521 302.983 31.7019 302.61 31.8016C300.94 32.2502 299.295 32.2253 297.725 31.4028C296.778 30.9044 296.204 30.0819 295.88 29.0601C295.681 28.437 295.606 27.8139 295.606 27.1659C295.606 26.0444 295.606 24.8232 295.606 23.602Z" fill="#717485"/>
<path d="M274.921 20.5365C274.921 24.1005 274.921 27.6644 274.921 31.2284C274.921 31.9512 274.97 31.9013 274.248 31.9013C273.6 31.9013 272.977 31.9013 272.329 31.9013C272.079 31.9013 271.955 31.8266 271.98 31.5524C271.98 31.4029 271.98 31.2783 271.98 31.1287C271.98 24.0257 271.98 16.8978 271.98 9.79473C271.98 8.92243 271.905 9.04705 272.752 9.04705C273.35 9.04705 273.949 9.04705 274.547 9.04705C274.821 9.04705 274.945 9.12182 274.921 9.42089C274.921 9.57043 274.921 9.69504 274.921 9.84458C274.921 13.4086 274.921 16.9725 274.921 20.5365Z" fill="#717485"/>
<path d="M191.653 20.4618C191.653 16.9227 191.653 13.3587 191.653 9.81968C191.653 9.67015 191.653 9.49568 191.653 9.34615C191.653 9.12184 191.753 9.02215 191.977 9.04707C192.725 9.04707 193.497 9.04707 194.245 9.04707C194.469 9.04707 194.569 9.12184 194.569 9.37107C194.569 9.52061 194.569 9.64522 194.569 9.79476C194.569 16.9227 194.569 24.0507 194.569 31.1786C194.569 32.0011 194.644 31.9014 193.821 31.9014C193.223 31.9014 192.625 31.9014 192.027 31.9014C191.753 31.9014 191.628 31.8017 191.653 31.5275C191.678 31.378 191.653 31.2534 191.653 31.1038C191.653 27.5648 191.653 24.0008 191.653 20.4618Z" fill="#717485"/>
<path d="M335.957 18.7173C336.306 17.9447 336.829 17.3466 337.527 16.873C338.972 15.901 340.518 15.602 342.187 16.0755C342.686 16.225 342.686 16.225 342.511 16.6736C342.262 17.3216 341.963 17.9696 341.739 18.6176C341.639 18.8918 341.539 18.9915 341.215 18.9167C340.518 18.7422 339.795 18.7173 339.072 18.9167C337.377 19.4152 336.43 20.6115 336.056 22.2813C335.957 22.705 335.932 23.1536 335.932 23.5773C335.932 26.0696 335.932 28.5619 335.932 31.0541C335.932 31.1538 335.932 31.2535 335.932 31.3532C335.932 31.8766 335.932 31.8766 335.408 31.8766C334.736 31.8766 334.063 31.8766 333.365 31.8766C333.091 31.8766 332.941 31.8018 332.991 31.5028C332.991 31.3781 332.991 31.2535 332.991 31.1538C332.991 26.4185 332.991 21.7081 332.991 16.9727C332.991 16.8481 332.991 16.7235 332.991 16.6238C332.966 16.2998 333.14 16.225 333.44 16.225C334.088 16.25 334.76 16.25 335.408 16.225C335.707 16.225 335.832 16.3247 335.832 16.6238C335.807 17.2967 335.832 17.9696 335.832 18.6425C335.857 18.6675 335.907 18.6924 335.957 18.7173Z" fill="#717485"/>
<path d="M137.221 16.0754C136.274 16.0754 135.352 16.0754 134.405 16.0754C134.156 16.0754 134.056 16.175 134.056 16.4243C134.056 16.7233 134.106 17.0473 134.031 17.3464C133.832 17.3464 133.757 17.1969 133.657 17.1221C133.084 16.5738 132.436 16.175 131.688 15.9258C129.595 15.2031 127.601 15.527 125.707 16.5987C122.641 18.3433 120.996 21.8824 121.545 25.3965C122.193 29.4091 125.831 32.6242 129.869 32.3999C131.314 32.3251 132.586 31.8266 133.657 30.8297C133.757 30.73 133.807 30.5805 134.031 30.6303C134.081 31.9263 134.106 33.2472 133.483 34.4684C133.109 35.2161 132.561 35.8143 131.788 36.1632C130.666 36.6866 129.495 36.8112 128.299 36.4374C127.003 36.0386 126.106 35.1663 125.507 33.9949C125.383 33.7208 125.258 33.646 124.959 33.7955C124.137 34.1694 123.314 34.4934 122.492 34.8423C122.118 35.0168 122.093 35.0167 122.292 35.4155C123.19 37.21 124.535 38.5558 126.38 39.3533C127.825 39.9764 129.346 40.1259 130.891 39.9016C133.931 39.4779 136.025 37.8829 137.047 34.942C137.47 33.7208 137.595 32.4497 137.595 31.1786C137.595 26.3436 137.595 21.5335 137.595 16.6984C137.595 16.6237 137.595 16.5489 137.595 16.4492C137.62 16.2 137.52 16.0754 137.221 16.0754ZM133.483 26.9916C131.838 29.7331 127.975 29.7829 126.106 27.1162C125.433 26.1691 125.134 25.1224 125.134 23.6519C125.208 22.007 125.931 20.387 127.701 19.415C129.694 18.3184 132.112 18.8667 133.333 20.7858C134.654 22.8045 134.729 24.9479 133.483 26.9916Z" fill="#717485"/>
<path d="M246.633 9.0473C245.885 9.07223 245.162 9.07223 244.415 9.0473C244.116 9.0473 244.041 9.17192 244.041 9.44607C244.091 12.2873 243.941 15.1534 244.141 17.9946C244.141 18.0943 244.19 18.2189 244.091 18.3435C243.916 18.3435 243.866 18.194 243.792 18.0943C242.545 16.574 240.925 15.8513 239.006 15.7765C236.614 15.6768 234.67 16.6737 233.174 18.518C230.882 21.3592 230.607 25.621 232.526 28.7364C234.097 31.2785 236.365 32.6244 239.43 32.3751C241.2 32.2256 242.67 31.5028 243.817 30.0822C243.891 29.9825 243.941 29.833 244.165 29.8081C244.165 30.3813 244.165 30.9545 244.165 31.5028C244.165 31.777 244.265 31.9016 244.539 31.8767C245.088 31.8518 245.661 31.8767 246.209 31.8767C247.032 31.8767 246.982 32.0013 246.982 31.129C246.982 24.001 246.982 16.898 246.982 9.77007C246.982 9.64545 246.982 9.52084 246.982 9.42115C247.032 9.147 246.907 9.02238 246.633 9.0473ZM242.745 28.1382C240.626 30.4561 237.038 30.1819 235.243 27.5899C233.897 25.646 233.872 22.5804 235.193 20.6365C236.315 18.9915 237.885 18.2439 239.854 18.4931C241.723 18.7174 242.969 19.814 243.692 21.5088C244.041 22.3312 244.19 23.1786 244.165 24.4497C244.141 25.5961 243.792 26.9918 242.745 28.1382Z" fill="#717485"/>
<path d="M93.008 15.5521C88.2726 15.5521 84.5591 19.1909 84.5342 23.9262C84.5342 29.2597 88.796 32.4748 92.9582 32.4C97.3446 32.4997 101.407 29.1102 101.457 24.0758C101.482 19.2407 97.7932 15.5521 93.008 15.5521ZM96.9458 26.8173C95.9738 28.4373 94.4784 29.2099 92.5594 29.0354C90.6902 28.861 89.444 27.8391 88.6714 26.1693C88.3474 25.4714 88.2228 24.7237 88.2477 24.1754C88.2477 22.3311 88.796 20.9355 90.0671 19.9136C92.1606 18.194 95.276 18.6426 96.7963 20.9105C98.0673 22.8047 98.1172 24.8484 96.9458 26.8173Z" fill="#717485"/>
<path d="M111.451 15.5519C106.342 15.5768 102.977 19.5146 102.977 23.9758C102.977 28.7859 106.815 32.4745 111.451 32.3998C115.962 32.4745 119.925 28.9106 119.9 23.9509C119.875 19.2155 116.211 15.527 111.451 15.5519ZM115.09 27.2656C113.968 28.7112 112.448 29.3093 110.653 29.0102C108.934 28.7361 107.762 27.6644 107.065 26.0943C106.915 25.7453 106.815 25.3715 106.741 24.9977C106.691 24.6737 106.691 24.3247 106.666 24.0257C106.716 22.0817 107.413 20.5115 109.083 19.5395C111.85 17.8946 115.364 19.5395 116.037 22.7546C116.386 24.3746 116.136 25.9198 115.09 27.2656Z" fill="#717485"/>
<path d="M150.456 26.3186C152.325 25.546 154.169 24.7734 156.038 24.0008C157.609 23.3528 159.204 22.7048 160.799 22.0319C161.197 21.8823 161.197 21.8574 161.048 21.4835C160.898 21.0848 160.749 20.7109 160.574 20.3122C159.677 18.443 158.406 16.9227 156.437 16.1002C152.873 14.6048 148.586 16.15 146.717 19.5894C145.695 21.4835 145.421 23.5023 145.795 25.6207C146.144 27.49 147.016 29.11 148.462 30.381C150.256 31.9512 152.375 32.5493 154.717 32.3749C157.26 32.1755 159.253 31.0041 160.774 28.9853C160.998 28.6863 160.998 28.6613 160.674 28.437C159.951 27.9386 159.204 27.465 158.481 26.9666C158.157 26.7423 158.132 26.7423 157.883 27.0663C156.736 28.5866 155.166 29.2346 153.272 29.0103C151.727 28.8109 150.655 27.9635 149.982 26.5927C150.107 26.4183 150.281 26.3934 150.456 26.3186ZM149.907 23.4525C149.758 23.5272 149.583 23.6269 149.359 23.602C149.135 21.5832 150.605 19.5146 152.649 18.9663C153.596 18.6922 154.543 18.7669 155.44 19.1906C155.739 19.3402 156.038 19.5396 156.263 19.7639C156.911 20.4119 156.886 20.5365 156.063 20.8854C154.02 21.7577 151.951 22.6051 149.907 23.4525Z" fill="#717485"/>
<path d="M268.515 11.7638C267.12 9.99422 265.201 9.097 262.958 9.07208C260.515 9.02223 258.048 9.07208 255.605 9.07208C254.932 9.07208 254.982 9.02223 254.982 9.745C254.982 13.3339 254.982 16.9228 254.982 20.5117C254.982 24.0507 254.982 27.6147 254.982 31.1538C254.982 31.3033 254.982 31.4778 254.982 31.6273C254.982 31.8516 255.082 31.9513 255.306 31.9513C256.054 31.9513 256.827 31.9513 257.574 31.9513C257.873 31.9513 257.973 31.8267 257.948 31.5525C257.948 31.403 257.948 31.2784 257.948 31.1288C257.948 28.5369 257.948 25.9449 257.948 23.3529C257.948 22.6551 257.873 22.7049 258.571 22.7049C259.992 22.7049 261.412 22.7049 262.808 22.7049C264.129 22.68 265.375 22.356 266.522 21.708C270.086 19.6394 271.058 14.9539 268.515 11.7638ZM263.232 19.7889C261.587 19.8637 259.917 19.8138 258.272 19.8138C257.948 19.8138 257.923 19.6643 257.923 19.4151C257.923 18.8169 257.923 18.2188 257.923 17.6206C257.923 17.0225 257.923 16.4243 257.923 15.8262C257.923 15.228 257.923 14.6548 257.923 14.0567C257.923 13.4585 257.923 12.8853 257.923 12.2871C257.923 11.8634 257.948 11.8385 258.347 11.8385C259.942 11.8385 261.537 11.8136 263.132 11.8634C265.251 11.9382 266.92 13.7576 266.895 15.876C266.895 17.8948 265.226 19.7142 263.232 19.7889Z" fill="#717485"/>
<path d="M291.37 31.5026C291.37 31.378 291.37 31.2534 291.37 31.1537C291.37 28.4371 291.37 25.7205 291.37 23.0288C291.37 22.5553 291.37 22.0817 291.32 21.5833C291.07 19.2405 289.974 17.4959 287.83 16.4492C287.083 16.1002 286.31 15.8759 285.488 15.8012C283.743 15.6018 282.073 15.8261 280.528 16.7482C279.531 17.3464 278.759 18.1439 278.21 19.1907C278.086 19.415 278.061 19.5645 278.36 19.6891C279.033 19.9633 279.731 20.2374 280.403 20.5614C280.678 20.686 280.802 20.6113 280.902 20.387C281.226 19.6891 281.774 19.2156 282.472 18.8916C283.818 18.2935 285.189 18.2935 286.51 18.9165C287.905 19.5645 288.678 21.035 288.503 22.5303C288.404 22.5802 288.304 22.5303 288.229 22.5054C286.759 21.8574 285.214 21.658 283.619 21.7577C282.248 21.8325 280.952 22.2063 279.78 22.954C276.466 25.0725 276.715 29.9075 280.204 31.7269C281.326 32.3001 282.547 32.4995 283.793 32.4247C285.538 32.325 286.983 31.6023 288.08 30.2564C288.204 30.1069 288.279 29.9075 288.553 29.8078C288.553 30.4309 288.553 30.9792 288.553 31.5524C288.553 31.8266 288.603 31.9512 288.902 31.9512C289.6 31.9263 290.298 31.9263 290.996 31.9512C291.295 31.9014 291.394 31.7767 291.37 31.5026ZM288.478 25.8451C288.154 27.6395 286.559 29.2097 284.715 29.6084C284.416 29.6832 284.092 29.758 283.918 29.7331C283.095 29.7081 282.422 29.5835 281.824 29.2346C280.528 28.5368 280.154 27.1411 280.902 25.87C281.375 25.0974 282.073 24.6239 282.921 24.3996C284.64 23.926 286.31 24.0506 287.93 24.7983C288.603 25.1223 288.603 25.1472 288.478 25.8451Z" fill="#717485"/>
<path d="M330.598 23.0788C330.424 21.2345 329.751 19.5646 328.455 18.1939C326.685 16.3247 324.442 15.5521 321.9 15.7764C318.909 16.0256 316.691 17.521 315.395 20.2625C314.672 21.7579 314.473 23.3778 314.623 25.0477C315.021 29.4092 318.386 32.4747 322.648 32.4249C325.339 32.3999 327.582 31.3781 329.153 29.135C330.424 27.3157 330.822 25.272 330.598 23.0788ZM326.286 28.0883C323.919 30.7052 319.682 30.0821 318.137 26.892C317.289 25.1224 317.264 23.3031 318.037 21.5086C318.909 19.4649 320.828 18.3185 323.047 18.468C325.065 18.6176 326.835 20.088 327.433 22.1317C327.607 22.7548 327.732 23.4028 327.707 23.9261C327.707 25.596 327.308 26.9418 326.286 28.0883Z" fill="#717485"/>
<path d="M212.837 23.8014C212.763 20.0879 210.395 16.3494 205.809 15.8011C203.242 15.5021 200.949 16.175 199.08 18.0442C197.435 19.714 196.762 21.7577 196.762 24.0755C196.762 24.6737 196.787 25.2718 196.912 25.87C197.385 28.2127 198.557 30.0819 200.65 31.3281C202.096 32.2004 203.691 32.4995 205.361 32.3998C207.753 32.2502 209.697 31.2782 211.143 29.3592C212.414 27.7143 212.887 25.8451 212.837 23.8014ZM208.401 28.1629C206.158 30.5056 202.395 30.1816 200.675 27.4401C199.304 25.2469 199.329 22.9291 200.675 20.7109C201.722 19.0411 203.317 18.2934 205.311 18.4679C207.23 18.6423 208.551 19.6891 209.373 21.3839C209.772 22.2312 209.921 23.1285 209.921 23.8761C209.897 25.6208 209.498 27.0164 208.401 28.1629Z" fill="#717485"/>
</g>
<defs>
<clipPath id="clip0">
<rect width="1152" height="5765" fill="white" transform="translate(-306 -861)"/>
</clipPath>
</defs>
</svg>
