<svg width="368" height="40" fill="none" xmlns="http://www.w3.org/2000/svg"><path d="M4.906 12.088c.1-.424.374-.748.573-1.097 1.794-3.14 3.614-6.28 5.408-9.42C11.51.497 12.457 0 13.654 0h19.19c1.172 0 2.119.498 2.717 1.545 1.196 2.044 2.368 4.113 3.539 6.156.05.075.075.175.1.274-.574 0-1.147.025-1.72.025-2.417 0-4.86.025-7.277.025-.075 0-.15-.025-.225-.025H16.77c-.274 0-.473.05-.573.324-.05.1-.125.2-.175.3-2.068 3.588-4.112 7.177-6.18 10.766-.1.174-.15.424-.424.473-1.52-2.616-3.016-5.183-4.511-7.775z" fill="#717485" fill-opacity=".8"/><path d="M4.906 12.088c1.495 2.592 2.99 5.159 4.46 7.75l.076.15c2.193 3.789 4.386 7.577 6.554 11.39.225.399.449.549.923.549 4.112-.025 8.249-.025 12.361 0 .25 0 .524.024.773.024-.05.125-.1.25-.175.374-.822 1.42-1.645 2.841-2.467 4.287-.623 1.072-1.221 2.168-1.844 3.265-.2 0-.399.025-.598.025h-11.24c-1.346 0-2.318-.549-2.991-1.72a3546.24 3546.24 0 00-9.471-16.524c-.648-1.121-.673-2.218-.025-3.34 1.146-1.993 2.293-4.012 3.44-6.006.074-.1.149-.15.224-.224z" fill="#717485" fill-opacity=".6"/><path d="M25.592 39.877c.623-1.097 1.22-2.169 1.844-3.265.822-1.42 1.645-2.841 2.467-4.287.075-.125.1-.25.175-.374.174-.1.249-.299.349-.473.797-1.396 1.62-2.792 2.417-4.187l3.963-6.88c.2-.348.174-.572-.025-.921-1.57-2.717-3.14-5.433-4.71-8.175-.624-1.097-1.297-2.193-1.87-3.315 2.418 0 4.86 0 7.278-.025.573 0 1.146-.025 1.72-.025.498.698.872 1.47 1.295 2.219 1.47 2.567 2.966 5.134 4.437 7.726l.299.523c.598 1.072.573 2.119-.025 3.165-1.72 2.966-3.415 5.932-5.11 8.898-1.47 2.567-2.965 5.134-4.41 7.726-.649 1.146-1.596 1.72-2.917 1.695-2.193-.025-4.386 0-6.58 0-.199 0-.398-.025-.597-.025z" fill="#717485"/><path d="M36.757 19.49a2370.22 2370.22 0 01-4.71-8.175c-.623-1.097-1.296-2.193-1.87-3.315-.074 0-.149-.025-.224-.025H16.744c-.274 0-.473.05-.573.324-.05.1-.125.2-.175.3-2.068 3.588-4.112 7.177-6.18 10.766-.1.175-.15.424-.424.474l.075.15c2.193 3.787 4.386 7.576 6.554 11.389.225.399.449.548.922.548 4.113-.025 8.25-.025 12.362 0 .25 0 .524.025.773.025.174-.1.25-.299.349-.473.797-1.396 1.62-2.792 2.417-4.187l3.963-6.88c.174-.348.15-.572-.05-.921zm-13.533 6.43c-3.29.075-6.006-2.742-5.981-5.982.024-3.314 2.666-5.981 6.006-5.981 3.29 0 5.932 2.642 5.957 6.031.05 3.016-2.642 6.032-5.982 5.932z" fill="#E1E1E1"/><path d="M77.082 18.144h5.508c.524 0 .524 0 .598.498.3 2.393.075 4.76-.922 6.979-1.57 3.49-4.311 5.657-8.025 6.455-4.287.922-8.274.1-11.664-2.742-3.514-2.94-5.184-6.754-4.71-11.34.498-4.635 2.966-8.1 7.078-10.218 4.013-2.093 8.15-2.093 12.212-.025.922.474 1.745 1.097 2.517 1.795.35.299.35.324 0 .648l-1.869 1.869c-.324.324-.324.324-.723 0a9.186 9.186 0 00-4.386-2.069c-4.66-.822-9.097 1.82-10.592 6.306-1.545 4.66.623 9.72 5.034 11.738 2.941 1.346 7.278 1.072 9.944-1.32 1.247-1.122 1.97-2.493 2.293-4.088.2-.972.274-.872-.698-.872H71.25c-.199 0-.274-.1-.274-.3v-.348-2.143c0-.873-.1-.773.748-.773 1.844-.075 3.589-.05 5.358-.05zM356.967 18.692c.473-.623.897-1.146 1.445-1.57 1.82-1.396 3.863-1.72 6.031-1.072 1.172.35 2.044 1.122 2.642 2.194a6.996 6.996 0 01.873 3.39c.025 3.264.025 6.529.025 9.819 0 .423 0 .448-.424.448h-2.094c-.423 0-.423 0-.423-.448V27.14c0-1.744.049-3.514-.025-5.259a5.328 5.328 0 00-.299-1.52c-.399-1.097-1.197-1.72-2.343-1.87-2.119-.298-3.39.748-4.187 2.294-.424.822-.598 1.694-.598 2.592v8.15c.025.274-.075.398-.374.398-.748-.025-1.471 0-2.218 0-.25 0-.374-.074-.349-.349v-.473-8.075c0-.698-.025-1.396-.175-2.069-.349-1.57-1.271-2.343-2.866-2.467-1.47-.1-2.592.473-3.439 1.67-.698.997-.997 2.118-.997 3.314v8.15c0 .225-.1.324-.324.324h-2.268c-.224 0-.324-.075-.324-.324v-.349-14.305-.3c-.025-.274.075-.398.374-.398.673.025 1.346.025 2.043 0 .349 0 .399.15.399.423-.025.549 0 1.097.05 1.67 1.321-1.62 2.966-2.617 5.084-2.592 2.119 0 3.764.872 4.761 2.916zM168.4 20.337c.125-4.137 1.745-7.576 5.358-9.944 3.739-2.442 8.848-2.492 12.537-.175a9.75 9.75 0 012.068 1.72c.324.324.324.35 0 .648-.473.449-.947.922-1.42 1.371-.3.299-.324.299-.599-.025-.822-.897-1.769-1.62-2.916-2.019-4.81-1.744-10.966.673-11.888 6.954-.374 2.542 0 4.934 1.496 7.078 1.47 2.118 3.564 3.265 6.106 3.564 3.04.374 5.607-.648 7.751-2.791.074-.075.149-.15.199-.225.15-.2.299-.15.449 0l1.57 1.57c.199.2.174.35 0 .549a10.798 10.798 0 01-1.894 1.645c-4.661 3.29-11.839 2.866-15.926-1.845-1.745-2.043-2.692-4.411-2.841-7.078-.025-.274-.025-.573-.05-.997zM226.121 29.758c-.249.1-.274.25-.373.349-1.296 1.545-2.941 2.343-4.96 2.293-.523-.025-1.047-.075-1.545-.2-1.77-.448-2.966-1.545-3.639-3.265-.374-.947-.523-1.968-.523-2.99v-9.097-.25c-.025-.273.074-.398.373-.398.748.025 1.471.025 2.219 0 .249 0 .373.1.349.349v8.548c0 .574.024 1.147.149 1.72.449 2.168 2.069 2.99 4.062 2.816 1.396-.124 2.393-.922 3.066-2.118.474-.847.698-1.77.698-2.742v-7.825-.424c0-.224.1-.324.324-.324h2.343c.199 0 .299.075.299.274V31.18c0 .722.025.673-.623.673-.599 0-1.197-.025-1.795 0-.324 0-.424-.125-.399-.424-.025-.499-.025-1.047-.025-1.67zM306.747 25.396v-5.931c0-.524 0-.524-.523-.524h-2.044c-.299 0-.374-.1-.374-.373.025-.648.025-1.321 0-1.97 0-.298.125-.373.399-.373.648.025 1.321 0 1.969 0 .623 0 .573 0 .573-.598V14.13c.025-2.94 1.994-5.01 4.91-5.209.847-.05 1.67-.05 2.492.2.523.15.523.15.324.648-.224.573-.474 1.146-.698 1.72-.1.249-.224.323-.498.224-.449-.15-.897-.15-1.371-.1-1.296.125-2.143.997-2.218 2.318-.025.623-.025 1.246-.025 1.844 0 .424.025.424.424.449h2.99c.698 0 .648-.05.648.648 0 .548-.025 1.121 0 1.67 0 .324-.124.398-.423.398-1.047-.024-2.069 0-3.116 0-.548 0-.548 0-.548.549v11.414c0 .972 0 .972-.997.972h-1.495c-.449 0-.474 0-.474-.448V27.59c.075-.723.075-1.47.075-2.194zM140.113 19.44V7.776c0-.698-.05-.648.623-.648h2.691c.275 0 .424.075.374.374V31.178c0 .798.075.723-.698.723h-2.641c-.275 0-.424-.075-.399-.374.025-.15 0-.274 0-.423.05-3.888.05-7.776.05-11.664zM295.606 23.602v-4.187c0-.449 0-.474-.473-.474h-1.845c-.423 0-.423-.024-.423-.448v-1.845c0-.299.074-.423.398-.423.648.025 1.272 0 1.919 0 .424 0 .424-.025.424-.449v-3.838c0-.523 0-.523.524-.523h1.919c.473 0 .473 0 .498.498v3.788c0 .499 0 .499.499.499h2.816c.523 0 .523 0 .523.523v1.67c0 .498 0 .498-.498.498h-2.817c-.523 0-.523 0-.523.549v7.352c0 .25.025.523.05.773.174 1.32.947 1.894 2.268 1.844.274 0 .548-.075.822-.15.25-.074.349 0 .449.225.249.623.498 1.221.723 1.82.124.348.124.398-.249.498-1.67.448-3.315.423-4.885-.4-.947-.498-1.521-1.32-1.845-2.342a6.127 6.127 0 01-.274-1.894v-3.564zM274.921 20.537v10.691c0 .723.049.673-.673.673h-1.919c-.25 0-.374-.074-.349-.349v-.423V9.795c0-.873-.075-.748.772-.748h1.795c.274 0 .398.075.374.374v11.115zM191.653 20.462V9.82v-.474c0-.224.1-.324.324-.299h2.268c.224 0 .324.075.324.324V31.18c0 .822.075.722-.748.722h-1.794c-.274 0-.399-.1-.374-.373.025-.15 0-.275 0-.424V20.462zM335.957 18.717a4.341 4.341 0 011.57-1.844c1.445-.972 2.991-1.271 4.66-.797.499.149.499.149.324.598-.249.648-.548 1.296-.772 1.944-.1.274-.2.373-.524.299-.697-.175-1.42-.2-2.143 0-1.695.498-2.642 1.694-3.016 3.364a5.751 5.751 0 00-.124 1.296v7.777c0 .523 0 .523-.524.523h-2.043c-.274 0-.424-.075-.374-.374v-.35-14.18-.35c-.025-.323.149-.398.449-.398.648.025 1.32.025 1.968 0 .299 0 .424.1.424.399-.025.673 0 1.346 0 2.018.025.026.075.05.125.075zM137.221 16.075h-2.816c-.249 0-.349.1-.349.35 0 .298.05.622-.025.921-.199 0-.274-.15-.374-.224a5.172 5.172 0 00-1.969-1.196c-2.093-.723-4.087-.399-5.981.673-3.066 1.744-4.711 5.283-4.162 8.797.648 4.013 4.286 7.228 8.324 7.004 1.445-.075 2.717-.573 3.788-1.57.1-.1.15-.25.374-.2.05 1.296.075 2.617-.548 3.838-.374.748-.922 1.346-1.695 1.695-1.122.524-2.293.648-3.489.274-1.296-.398-2.193-1.27-2.792-2.442-.124-.274-.249-.349-.548-.2-.822.374-1.645.698-2.467 1.047-.374.175-.399.175-.2.574.898 1.794 2.243 3.14 4.088 3.937 1.445.623 2.966.773 4.511.549 3.04-.424 5.134-2.02 6.156-4.96.423-1.221.548-2.492.548-3.763v-14.48-.25c.025-.249-.075-.374-.374-.374zm-3.738 10.917c-1.645 2.741-5.508 2.79-7.377.124-.673-.947-.972-1.994-.972-3.464.074-1.645.797-3.265 2.567-4.237 1.993-1.097 4.411-.548 5.632 1.37 1.321 2.02 1.396 4.163.15 6.207zM246.633 9.047c-.748.025-1.471.025-2.218 0-.299 0-.374.125-.374.4.05 2.84-.1 5.706.1 8.548 0 .1.049.224-.05.348-.175 0-.225-.149-.299-.249-1.247-1.52-2.867-2.243-4.786-2.318-2.392-.1-4.336.898-5.832 2.742-2.292 2.841-2.567 7.103-.648 10.218 1.571 2.543 3.839 3.888 6.904 3.64 1.77-.15 3.24-.873 4.387-2.294.074-.1.124-.249.348-.274v1.695c0 .274.1.399.374.374.549-.025 1.122 0 1.67 0 .823 0 .773.124.773-.748V9.77v-.349c.05-.274-.075-.399-.349-.374zm-3.888 19.091c-2.119 2.318-5.707 2.044-7.502-.548-1.346-1.944-1.371-5.01-.05-6.953 1.122-1.646 2.692-2.393 4.661-2.144 1.869.224 3.115 1.321 3.838 3.016.349.822.498 1.67.473 2.94-.024 1.147-.373 2.543-1.42 3.69zM93.008 15.552c-4.735 0-8.449 3.639-8.474 8.374 0 5.334 4.262 8.549 8.424 8.474 4.387.1 8.449-3.29 8.499-8.324.025-4.835-3.664-8.524-8.449-8.524zm3.938 11.265c-.972 1.62-2.468 2.393-4.387 2.218-1.869-.174-3.115-1.196-3.888-2.866-.324-.698-.448-1.445-.423-1.994 0-1.844.548-3.24 1.82-4.261a4.584 4.584 0 016.728.996c1.271 1.895 1.321 3.938.15 5.907zM111.451 15.552c-5.109.025-8.474 3.963-8.474 8.424 0 4.81 3.838 8.498 8.474 8.424 4.511.075 8.474-3.49 8.449-8.45-.025-4.735-3.689-8.423-8.449-8.398zm3.639 11.714c-1.122 1.445-2.642 2.043-4.437 1.744-1.719-.274-2.891-1.346-3.588-2.916a5.469 5.469 0 01-.324-1.096c-.05-.324-.05-.673-.075-.972.05-1.944.747-3.514 2.417-4.486 2.767-1.645 6.281 0 6.954 3.215.349 1.62.099 3.165-.947 4.51zM150.456 26.319c1.869-.773 3.713-1.546 5.582-2.318 1.571-.648 3.166-1.296 4.761-1.97.398-.149.398-.174.249-.547-.15-.4-.299-.773-.474-1.172-.897-1.869-2.168-3.39-4.137-4.212-3.564-1.495-7.851.05-9.72 3.49-1.022 1.893-1.296 3.912-.922 6.03.349 1.87 1.221 3.49 2.667 4.761 1.794 1.57 3.913 2.168 6.255 1.994 2.543-.2 4.536-1.37 6.057-3.39.224-.299.224-.324-.1-.548-.723-.498-1.47-.972-2.193-1.47-.324-.225-.349-.225-.598.1-1.147 1.52-2.717 2.168-4.611 1.943-1.545-.2-2.617-1.047-3.29-2.417.125-.175.299-.2.474-.274zm-.549-2.866c-.149.074-.324.174-.548.149-.224-2.019 1.246-4.087 3.29-4.636a3.867 3.867 0 012.791.225c.299.15.598.349.823.573.648.648.623.773-.2 1.121-2.043.873-4.112 1.72-6.156 2.567zM268.515 11.764c-1.395-1.77-3.314-2.667-5.557-2.692-2.443-.05-4.91 0-7.353 0-.673 0-.623-.05-.623.673V31.627c0 .225.1.324.324.324h2.268c.299 0 .399-.124.374-.399v-.423-7.776c0-.698-.075-.648.623-.648h4.237a7.74 7.74 0 003.714-.997c3.564-2.069 4.536-6.754 1.993-9.944zm-5.283 8.025c-1.645.075-3.315.025-4.96.025-.324 0-.349-.15-.349-.399v-1.794-1.795-1.77-1.769c0-.424.025-.449.424-.449 1.595 0 3.19-.024 4.785.025 2.119.075 3.788 1.895 3.763 4.013 0 2.019-1.669 3.838-3.663 3.913zM291.37 31.503v-.35-8.124c0-.474 0-.947-.05-1.446-.25-2.342-1.346-4.087-3.49-5.134a6.975 6.975 0 00-2.342-.648c-1.745-.2-3.415.025-4.96.947a6.083 6.083 0 00-2.318 2.443c-.124.224-.149.373.15.498.673.274 1.371.548 2.043.872.275.125.399.05.499-.174.324-.698.872-1.171 1.57-1.495 1.346-.598 2.717-.598 4.038.024 1.395.648 2.168 2.119 1.993 3.614-.099.05-.199 0-.274-.025-1.47-.648-3.015-.847-4.61-.747-1.371.075-2.667.448-3.839 1.196-3.314 2.119-3.065 6.953.424 8.773 1.122.573 2.343.772 3.589.698 1.745-.1 3.19-.823 4.287-2.169.124-.15.199-.349.473-.448v1.744c0 .275.05.4.349.4a29.359 29.359 0 012.094 0c.299-.05.398-.175.374-.45zm-2.892-5.658c-.324 1.795-1.919 3.365-3.763 3.763-.299.075-.623.15-.797.125-.823-.025-1.496-.15-2.094-.498-1.296-.698-1.67-2.094-.922-3.365.473-.773 1.171-1.246 2.019-1.47 1.719-.474 3.389-.35 5.009.398.673.324.673.35.548 1.047zM330.598 23.079c-.174-1.845-.847-3.514-2.143-4.885-1.77-1.87-4.013-2.642-6.555-2.418-2.991.25-5.209 1.745-6.505 4.486-.723 1.496-.922 3.116-.772 4.786.398 4.361 3.763 7.427 8.025 7.377 2.691-.025 4.934-1.047 6.505-3.29 1.271-1.82 1.669-3.863 1.445-6.056zm-4.312 5.01c-2.367 2.616-6.604 1.993-8.149-1.197-.848-1.77-.873-3.589-.1-5.383.872-2.044 2.791-3.19 5.01-3.041 2.018.15 3.788 1.62 4.386 3.664.174.623.299 1.27.274 1.794 0 1.67-.399 3.016-1.421 4.162zM212.837 23.801c-.074-3.713-2.442-7.452-7.028-8-2.567-.299-4.86.374-6.729 2.243-1.645 1.67-2.318 3.714-2.318 6.032 0 .598.025 1.196.15 1.794.473 2.343 1.645 4.212 3.738 5.458 1.446.872 3.041 1.171 4.711 1.072 2.392-.15 4.336-1.122 5.782-3.04 1.271-1.646 1.744-3.515 1.694-5.559zm-4.436 4.362c-2.243 2.343-6.006 2.019-7.726-.723-1.371-2.193-1.346-4.51 0-6.73 1.047-1.669 2.642-2.417 4.636-2.242 1.919.174 3.24 1.221 4.062 2.916.399.847.548 1.744.548 2.492-.024 1.745-.423 3.14-1.52 4.287z" fill="#717485"/></svg>