<svg width="706" height="708" viewBox="0 0 706 708" fill="none" xmlns="http://www.w3.org/2000/svg">
<rect width="706" height="706" fill="#0B092E"/>
<path d="M0 513H192V706H0V513Z" fill="#25025A"/>
<path fill-rule="evenodd" clip-rule="evenodd" d="M170.5 352.5H192.46V424.54H170.5V352.5ZM171.5 353.5V423.54H191.46V353.5H171.5Z" fill="#3D0D85"/>
<path d="M181.48 369.64C182.858 369.64 183.976 368.522 183.976 367.144C183.976 365.765 182.858 364.648 181.48 364.648C180.101 364.648 178.984 365.765 178.984 367.144C178.984 368.522 180.101 369.64 181.48 369.64Z" fill="#1BFEC0"/>
<path fill-rule="evenodd" clip-rule="evenodd" d="M181.48 365.148C180.378 365.148 179.484 366.042 179.484 367.144C179.484 368.246 180.378 369.14 181.48 369.14C182.582 369.14 183.476 368.246 183.476 367.144C183.476 366.042 182.582 365.148 181.48 365.148ZM178.484 367.144C178.484 365.489 179.825 364.148 181.48 364.148C183.135 364.148 184.476 365.489 184.476 367.144C184.476 368.799 183.135 370.14 181.48 370.14C179.825 370.14 178.484 368.799 178.484 367.144Z" fill="#1BFEC0"/>
<path fill-rule="evenodd" clip-rule="evenodd" d="M181.48 381.148C180.378 381.148 179.484 382.042 179.484 383.144C179.484 384.246 180.378 385.14 181.48 385.14C182.582 385.14 183.476 384.246 183.476 383.144C183.476 382.042 182.582 381.148 181.48 381.148ZM178.484 383.144C178.484 381.489 179.825 380.148 181.48 380.148C183.135 380.148 184.476 381.489 184.476 383.144C184.476 384.799 183.135 386.14 181.48 386.14C179.825 386.14 178.484 384.799 178.484 383.144Z" fill="#935BE7"/>
<path fill-rule="evenodd" clip-rule="evenodd" d="M181.48 394.836C180.378 394.836 179.484 395.73 179.484 396.832C179.484 397.934 180.378 398.828 181.48 398.828C182.582 398.828 183.476 397.934 183.476 396.832C183.476 395.73 182.582 394.836 181.48 394.836ZM178.484 396.832C178.484 395.177 179.825 393.836 181.48 393.836C183.135 393.836 184.476 395.177 184.476 396.832C184.476 398.487 183.135 399.828 181.48 399.828C179.825 399.828 178.484 398.487 178.484 396.832Z" fill="#935BE7"/>
<path fill-rule="evenodd" clip-rule="evenodd" d="M181.48 408.516C180.378 408.516 179.484 409.41 179.484 410.512C179.484 411.614 180.378 412.508 181.48 412.508C182.582 412.508 183.476 411.614 183.476 410.512C183.476 409.41 182.582 408.516 181.48 408.516ZM178.484 410.512C178.484 408.857 179.825 407.516 181.48 407.516C183.135 407.516 184.476 408.857 184.476 410.512C184.476 412.167 183.135 413.508 181.48 413.508C179.825 413.508 178.484 412.167 178.484 410.512Z" fill="#935BE7"/>
<path d="M0 609H576V707H0V609Z" fill="#25015A"/>
<path d="M192 0C217.461 0 241.879 10.1143 259.882 28.1178C277.886 46.1212 288 70.5392 288 96H192V0Z" fill="#3D0D85"/>
<path d="M489 418H706V707H489V418Z" fill="#3D0D85"/>
<path d="M0 609H192V705H0V609Z" fill="#3D0D85"/>
<path d="M96 513C70.5392 513 46.1212 502.886 28.1177 484.882C10.1143 466.879 -3.08337e-06 442.461 -4.19629e-06 417L96 417L96 513Z" fill="#3D0D85"/>
<path fill-rule="evenodd" clip-rule="evenodd" d="M96.5 465.5C83.637 465.5 72.3008 460.39 63.2053 451.295C54.1098 442.199 49 429.863 49 417L50 417C50 429.598 55.0044 441.68 63.9124 450.588C72.8204 459.496 83.9022 464.5 96.5 464.5L96.5 465.5Z" fill="#935BE7"/>
<path fill-rule="evenodd" clip-rule="evenodd" d="M104.3 457.372C100.268 457.372 97 460.64 97 464.672C97 468.704 100.268 471.972 104.3 471.972C108.332 471.972 111.6 468.704 111.6 464.672C111.6 460.64 108.332 457.372 104.3 457.372ZM96 464.672C96 460.088 99.716 456.372 104.3 456.372C108.884 456.372 112.6 460.088 112.6 464.672C112.6 469.256 108.884 472.972 104.3 472.972C99.716 472.972 96 469.256 96 464.672Z" fill="#935BE7"/>
<path d="M96 609H0V705H96C121.461 705 145.879 694.886 163.882 676.882C181.886 658.879 192 634.461 192 609H96Z" fill="#6515DD"/>
<path fill-rule="evenodd" clip-rule="evenodd" d="M130.088 641.988C138.996 633.08 144 620.998 144 608.4H145C145 621.263 139.89 633.599 130.795 642.695C121.699 651.79 109.363 656.9 96.5 656.9H0V655.9H96.5C109.098 655.9 121.18 650.896 130.088 641.988Z" fill="#935BE7"/>
<path fill-rule="evenodd" clip-rule="evenodd" d="M157.737 574.237C166.541 565.433 179.574 560.5 192 560.5V561.5C179.814 561.5 167.043 566.344 158.444 574.944C149.844 583.544 145 596.215 145 608.4H144C144 595.973 148.934 583.04 157.737 574.237Z" fill="#935BE7"/>
<path d="M610 514L489 514L489 418L706 418C706 443.461 695.886 467.879 677.882 485.882C659.879 503.886 635.461 514 610 514Z" fill="#25015A"/>
<path fill-rule="evenodd" clip-rule="evenodd" d="M644.088 451.988C652.996 443.08 658 430.998 658 418.4H659C659 431.263 653.89 443.599 644.795 452.695C635.699 461.79 623.363 466.9 610.5 466.9H490V465.9H610.5C623.098 465.9 635.18 460.896 644.088 451.988Z" fill="#935BE7"/>
<path fill-rule="evenodd" clip-rule="evenodd" d="M658.3 403.372C654.268 403.372 651 406.64 651 410.672C651 414.704 654.268 417.972 658.3 417.972C662.332 417.972 665.6 414.704 665.6 410.672C665.6 406.64 662.332 403.372 658.3 403.372ZM650 410.672C650 406.088 653.716 402.372 658.3 402.372C662.884 402.372 666.6 406.088 666.6 410.672C666.6 415.256 662.884 418.972 658.3 418.972C653.716 418.972 650 415.256 650 410.672Z" fill="#935BE7"/>
<rect y="96" width="706" height="96" fill="#3D0D85"/>
<path d="M610 96C610 70.5392 620.114 46.1212 638.118 28.1177C656.121 10.1143 680.539 0 706 0L706 96L610 96Z" fill="#25015A"/>
<path d="M592 319.388C592 318.069 593.069 317 594.388 317H684.012C685.331 317 686.4 318.069 686.4 319.388V319.388C686.4 320.707 685.331 321.776 684.012 321.776H594.388C593.069 321.776 592 320.707 592 319.388V319.388Z" fill="#6515DD"/>
<path d="M592 341.468C592 340.149 593.069 339.08 594.388 339.08H651.276C652.595 339.08 653.664 340.149 653.664 341.468V341.468C653.664 342.787 652.595 343.856 651.276 343.856H594.388C593.069 343.856 592 342.787 592 341.468V341.468ZM592 363.54C592 362.221 593.069 361.152 594.388 361.152H662.252C663.571 361.152 664.64 362.221 664.64 363.54V363.54C664.64 364.859 663.571 365.928 662.252 365.928H594.388C593.069 365.928 592 364.859 592 363.54V363.54Z" fill="#6515DD"/>
<path d="M592 330.428C592 329.109 593.069 328.04 594.388 328.04H629.604C630.923 328.04 631.992 329.109 631.992 330.428V330.428C631.992 331.747 630.923 332.816 629.604 332.816H594.388C593.069 332.816 592 331.747 592 330.428V330.428Z" fill="#25015A"/>
<path d="M592 352.508C592 351.189 593.069 350.12 594.388 350.12H609.868C611.187 350.12 612.256 351.189 612.256 352.508V352.508C612.256 353.827 611.187 354.896 609.868 354.896H594.388C593.069 354.896 592 353.827 592 352.508V352.508Z" fill="#935BE7"/>
<path d="M592 375.532C592 374.213 593.069 373.144 594.388 373.144H629.396C630.715 373.144 631.784 374.213 631.784 375.532V375.532C631.784 376.851 630.715 377.92 629.396 377.92H594.388C593.069 377.92 592 376.851 592 375.532V375.532Z" fill="#935BE7"/>
<path fill-rule="evenodd" clip-rule="evenodd" d="M657.5 96.5C657.5 83.637 662.61 72.3008 671.705 63.2053C680.801 54.1098 693.137 49 706 49L706 50C693.402 50 681.32 55.0044 672.412 63.9124C663.504 72.8204 658.5 83.9022 658.5 96.5L657.5 96.5Z" fill="#935BE7"/>
<path fill-rule="evenodd" clip-rule="evenodd" d="M671.705 62.7053C680.801 53.6098 693.137 48.5 706 48.5V49.5C693.402 49.5 681.32 54.5045 672.412 63.4124C663.504 72.3204 658.5 84.4022 658.5 97H657.5C657.5 84.137 662.61 71.8008 671.705 62.7053Z" fill="#935BE7"/>
<path fill-rule="evenodd" clip-rule="evenodd" d="M657.5 193V97H658.5V193H657.5Z" fill="#935BE7"/>
<path fill-rule="evenodd" clip-rule="evenodd" d="M706 115H0V114H706V115ZM0 117.924H706V118.924H0V117.924ZM0 122.613H706V123.613H0V122.613ZM0 126.904H706V127.904H0V126.904ZM0 131H706V132H0V131Z" fill="#25015A"/>
<path d="M192 96H96C70.5392 96 46.1212 106.114 28.1178 124.118C10.1143 142.121 0 166.539 0 192H192C217.461 192 241.879 181.886 259.882 163.882C277.886 145.879 288 121.461 288 96H192Z" fill="#25025A"/>
<path fill-rule="evenodd" clip-rule="evenodd" d="M548.576 662.044C544.586 662.044 540.76 660.459 537.939 657.638C535.117 654.817 533.532 650.99 533.532 647V514H532.532V647C532.532 651.255 534.223 655.336 537.231 658.345C540.24 661.354 544.321 663.044 548.576 663.044H706V662.044H548.576Z" fill="white" fill-opacity="0.5"/>
<path fill-rule="evenodd" clip-rule="evenodd" d="M546.28 666.596C544.076 666.597 541.894 666.164 539.857 665.321C537.821 664.478 535.971 663.242 534.412 661.684C532.854 660.125 531.618 658.275 530.775 656.239C529.932 654.203 529.499 652.02 529.5 649.816L529.5 514H528.5L528.5 649.816C528.499 652.151 528.958 654.464 529.851 656.621C530.744 658.779 532.054 660.74 533.705 662.391C535.357 664.042 537.317 665.352 539.475 666.245C541.632 667.138 543.945 667.597 546.28 667.596L706 667.596V666.596L546.28 666.596Z" fill="white" fill-opacity="0.5"/>
<path fill-rule="evenodd" clip-rule="evenodd" d="M549.688 657.316C546.615 657.316 543.667 656.095 541.494 653.922C539.321 651.749 538.1 648.802 538.1 645.728V514H537.1V645.728C537.1 649.067 538.426 652.269 540.787 654.629C543.148 656.99 546.35 658.316 549.688 658.316H706V657.316H549.688Z" fill="white" fill-opacity="0.5"/>
<path fill-rule="evenodd" clip-rule="evenodd" d="M550.8 652.132C548.643 652.132 546.575 651.275 545.05 649.75C543.525 648.225 542.668 646.157 542.668 644V514H541.668V644C541.668 646.422 542.63 648.745 544.343 650.457C546.055 652.17 548.378 653.132 550.8 653.132H706V652.132H550.8Z" fill="white" fill-opacity="0.5"/>
<path fill-rule="evenodd" clip-rule="evenodd" d="M548.146 646.87C549.374 648.098 551.04 648.788 552.776 648.788H706V647.788H552.776C551.305 647.788 549.894 647.204 548.853 646.163C547.813 645.123 547.228 643.712 547.228 642.24V514.04H546.228V642.24C546.228 643.977 546.918 645.642 548.146 646.87Z" fill="white" fill-opacity="0.5"/>
<path d="M288 564.728H380.8V590.304H288V564.728ZM288 530.864H380.8V556.44H288V530.864ZM288 497H380.8V522.576H288V497Z" fill="#6515DD"/>
<path d="M295.353 522.576H373.457V530.864H295.353V522.576ZM295.353 556.44H373.457V564.728H295.353V556.44ZM295.353 590.304H373.457V598.592H295.353V590.304Z" fill="#391077"/>
<path d="M370.729 512.016C371.957 512.016 372.953 511.02 372.953 509.792C372.953 508.563 371.957 507.568 370.729 507.568C369.5 507.568 368.505 508.563 368.505 509.792C368.505 511.02 369.5 512.016 370.729 512.016Z" fill="#1BFEC0"/>
<path fill-rule="evenodd" clip-rule="evenodd" d="M370.729 508.068C369.776 508.068 369.005 508.84 369.005 509.792C369.005 510.744 369.776 511.516 370.729 511.516C371.681 511.516 372.453 510.744 372.453 509.792C372.453 508.84 371.681 508.068 370.729 508.068ZM368.005 509.792C368.005 508.287 369.224 507.068 370.729 507.068C372.233 507.068 373.453 508.287 373.453 509.792C373.453 511.296 372.233 512.516 370.729 512.516C369.224 512.516 368.005 511.296 368.005 509.792Z" fill="#1BFEC0"/>
<path d="M370.729 579.88C371.957 579.88 372.953 578.884 372.953 577.656C372.953 576.427 371.957 575.432 370.729 575.432C369.5 575.432 368.505 576.427 368.505 577.656C368.505 578.884 369.5 579.88 370.729 579.88Z" fill="#1BFEC0"/>
<path fill-rule="evenodd" clip-rule="evenodd" d="M370.729 575.932C369.776 575.932 369.005 576.703 369.005 577.656C369.005 578.608 369.776 579.38 370.729 579.38C371.681 579.38 372.453 578.608 372.453 577.656C372.453 576.703 371.681 575.932 370.729 575.932ZM368.005 577.656C368.005 576.151 369.224 574.932 370.729 574.932C372.233 574.932 373.453 576.151 373.453 577.656C373.453 579.16 372.233 580.38 370.729 580.38C369.224 580.38 368.005 579.16 368.005 577.656Z" fill="#1BFEC0"/>
<path d="M370.729 545.744C371.957 545.744 372.953 544.748 372.953 543.52C372.953 542.291 371.957 541.296 370.729 541.296C369.5 541.296 368.505 542.291 368.505 543.52C368.505 544.748 369.5 545.744 370.729 545.744Z" fill="#1BFEC0"/>
<path fill-rule="evenodd" clip-rule="evenodd" d="M370.729 541.796C369.776 541.796 369.005 542.568 369.005 543.52C369.005 544.472 369.776 545.244 370.729 545.244C371.681 545.244 372.453 544.472 372.453 543.52C372.453 542.568 371.681 541.796 370.729 541.796ZM368.005 543.52C368.005 542.015 369.224 540.796 370.729 540.796C372.233 540.796 373.453 542.015 373.453 543.52C373.453 545.024 372.233 546.244 370.729 546.244C369.224 546.244 368.005 545.024 368.005 543.52Z" fill="#1BFEC0"/>
<path fill-rule="evenodd" clip-rule="evenodd" d="M520.45 281L520.45 320.05C520.45 332.236 515.606 345.007 507.006 353.606C498.406 362.207 485.735 367.05 473.55 367.05L353 367.05L353 368.05L473.55 368.05C485.977 368.05 498.91 363.116 507.713 354.313C516.517 345.51 521.45 332.476 521.45 320.05L521.45 281L520.45 281Z" fill="#935BE7"/>
<path fill-rule="evenodd" clip-rule="evenodd" d="M295.313 509.496C295.313 508.944 295.76 508.496 296.313 508.496H319.513C320.065 508.496 320.513 508.944 320.513 509.496C320.513 510.048 320.065 510.496 319.513 510.496H296.313C295.76 510.496 295.313 510.048 295.313 509.496ZM295.313 543.656C295.313 543.104 295.76 542.656 296.313 542.656H319.513C320.065 542.656 320.513 543.104 320.513 543.656C320.513 544.208 320.065 544.656 319.513 544.656H296.313C295.76 544.656 295.313 544.208 295.313 543.656ZM295.313 577.52C295.313 576.968 295.76 576.52 296.313 576.52H319.513C320.065 576.52 320.513 576.968 320.513 577.52C320.513 578.072 320.065 578.52 319.513 578.52H296.313C295.76 578.52 295.313 578.072 295.313 577.52Z" fill="#391077"/>
<path fill-rule="evenodd" clip-rule="evenodd" d="M279.088 544.664C278.372 544.664 277.685 544.948 277.179 545.455C276.672 545.961 276.388 546.648 276.388 547.364V574.828C276.388 575.544 276.672 576.231 277.179 576.737C277.685 577.243 278.372 577.528 279.088 577.528H287.888V578.528H279.088C278.107 578.528 277.166 578.138 276.472 577.444C275.778 576.75 275.388 575.809 275.388 574.828V561.5H192V560.5H275.388V547.364C275.388 546.383 275.778 545.442 276.472 544.748C277.166 544.054 278.107 543.664 279.088 543.664H287.888V544.664H279.088Z" fill="#935BE7"/>
<path fill-rule="evenodd" clip-rule="evenodd" d="M333.75 398.75L333.75 496.25L332.75 496.25L332.75 398.75L333.75 398.75Z" fill="#935BE7"/>
<path d="M379.154 377.077C379.154 351.077 358.077 330 332.077 330C306.077 330 285 351.077 285 377.077V393.554C285 396.154 287.108 398.262 289.708 398.262H374.446C377.046 398.262 379.154 396.154 379.154 393.554V377.077Z" fill="#6515DD"/>
<path fill-rule="evenodd" clip-rule="evenodd" d="M296.554 378.646C296.554 359.027 312.458 343.123 332.077 343.123C351.696 343.123 367.6 359.027 367.6 378.646C367.6 379.198 367.152 379.646 366.6 379.646C366.048 379.646 365.6 379.198 365.6 378.646C365.6 360.132 350.591 345.123 332.077 345.123C313.563 345.123 298.554 360.132 298.554 378.646C298.554 379.198 298.106 379.646 297.554 379.646C297.002 379.646 296.554 379.198 296.554 378.646Z" fill="#391077"/>
<path fill-rule="evenodd" clip-rule="evenodd" d="M332.077 345.123C313.563 345.123 298.554 360.132 298.554 378.646C298.554 379.198 298.106 379.646 297.554 379.646C297.002 379.646 296.554 379.198 296.554 378.646C296.554 359.027 312.458 343.123 332.077 343.123C341.932 343.123 350.852 347.138 357.286 353.618C357.675 354.01 357.673 354.644 357.281 355.033C356.889 355.422 356.256 355.42 355.867 355.028C349.793 348.91 341.378 345.123 332.077 345.123Z" fill="#1BFEC0"/>
<path d="M335.775 383.7C333.435 386.04 329.551 385.949 327.1 383.498C324.649 381.047 324.558 377.163 326.898 374.823C328.493 373.228 339.867 365.979 346.946 361.526C348.351 360.643 349.955 362.248 349.072 363.652C344.619 370.731 337.37 382.105 335.775 383.7Z" fill="white"/>
<path fill-rule="evenodd" clip-rule="evenodd" d="M706 276H0V275H706V276ZM0 278.924H706V279.924H0V278.924ZM0 283.613H706V284.613H0V283.613ZM0 287.904H706V288.904H0V287.904ZM0 292H706V293H0V292Z" fill="#3D0D85"/>
<path fill-rule="evenodd" clip-rule="evenodd" d="M366.96 698.202L390.424 685.33L390.905 686.206L367.441 699.078L366.96 698.202ZM311.456 699.078L287.992 686.206L288.473 685.33L311.937 698.202L311.456 699.078ZM357.158 683.263L371.406 663.983L372.21 664.577L357.962 683.857L357.158 683.263ZM321.022 683.857L306.774 664.577L307.578 663.983L321.826 683.263L321.022 683.857ZM339.628 658.416L339.628 677.088L338.628 677.088L338.628 658.416L339.628 658.416Z" fill="#6515DD"/>
<path d="M339.128 677.088C331.192 677.088 323.581 680.24 317.969 685.851C312.356 691.462 309.202 699.072 309.2 707.008L369.048 707.008C369.046 699.073 365.893 691.464 360.282 685.854C354.672 680.243 347.063 677.09 339.128 677.088V677.088Z" fill="#3D0D85"/>
<path d="M339.128 682.016C332.499 682.016 326.141 684.649 321.453 689.336C316.765 694.022 314.13 700.379 314.128 707.008L364.136 707.008C364.135 703.725 363.487 700.474 362.23 697.442C360.973 694.409 359.13 691.653 356.808 689.333C354.486 687.012 351.729 685.171 348.696 683.916C345.662 682.661 342.411 682.015 339.128 682.016Z" fill="#6515DD"/>
<path d="M339.128 690.68C334.796 690.68 330.641 692.4 327.577 695.461C324.512 698.523 322.788 702.676 322.784 707.008L355.448 707.008C355.444 702.68 353.723 698.531 350.664 695.47C347.604 692.409 343.456 690.686 339.128 690.68Z" fill="#3D0D85"/>
<path d="M339.128 655C337.635 655 336.424 656.211 336.424 657.704C336.424 659.197 337.635 660.408 339.128 660.408C340.621 660.408 341.832 659.197 341.832 657.704C341.832 656.211 340.621 655 339.128 655Z" fill="white" fill-opacity="0.5"/>
<path d="M306.792 661.056C305.299 661.056 304.088 662.267 304.088 663.76C304.088 665.253 305.299 666.464 306.792 666.464C308.285 666.464 309.496 665.253 309.496 663.76C309.496 662.267 308.285 661.056 306.792 661.056Z" fill="white" fill-opacity="0.5"/>
<path d="M287.704 682.776C286.211 682.776 285 683.987 285 685.48C285 686.973 286.211 688.184 287.704 688.184C289.197 688.184 290.408 686.973 290.408 685.48C290.408 683.987 289.197 682.776 287.704 682.776Z" fill="white" fill-opacity="0.5"/>
<path d="M391.192 682.776C389.699 682.776 388.488 683.987 388.488 685.48C388.488 686.973 389.699 688.184 391.192 688.184C392.685 688.184 393.896 686.973 393.896 685.48C393.896 683.987 392.685 682.776 391.192 682.776Z" fill="white" fill-opacity="0.5"/>
<path d="M372.192 661.056C370.699 661.056 369.488 662.267 369.488 663.76C369.488 665.253 370.699 666.464 372.192 666.464C373.685 666.464 374.896 665.253 374.896 663.76C374.896 662.267 373.685 661.056 372.192 661.056Z" fill="white" fill-opacity="0.5"/>
<path d="M472 287.364C472 274.887 472 262.389 472 249.912C472.507 249.057 473.198 248.446 474.172 248.1C486.594 243.643 498.996 239.144 511.398 234.646C513.773 233.791 516.128 232.875 518.482 232C518.827 232 519.152 232 519.497 232C519.802 232.142 520.086 232.305 520.411 232.407C534.721 237.597 549.011 242.768 563.341 247.917C564.457 248.324 565.411 248.813 566 249.892C566 262.369 566 274.867 566 287.344C565.878 288.423 565.736 289.481 565.614 290.56C564.234 303.587 558.469 314.192 548.26 322.374C541.379 327.89 533.564 331.554 525.282 334.342C523 335 520.662 335.548 519.906 335.788C519.5 335.916 518.827 336.215 518.482 336.215C518.076 336.073 517.67 335.91 517.265 335.788C508.273 333.243 499.686 329.783 492.034 324.287C480.992 316.369 474.375 305.744 472.568 292.188C472.365 290.58 472.183 288.972 472 287.364Z" fill="#6515DD"/>
<path fill-rule="evenodd" clip-rule="evenodd" d="M483.934 257.075C483.172 257.335 482.632 257.793 482.235 258.434V286.523L482.235 286.523C482.378 287.729 482.521 288.935 482.68 290.141C484.093 300.308 489.267 308.277 497.902 314.216C503.677 318.193 509.997 320.298 516.511 322.468C517.2 322.698 517.892 322.928 518.585 323.161H519.379C527.343 320.743 535.195 317.913 541.871 312.781C549.855 306.644 554.363 298.69 555.443 288.92C555.49 288.515 555.542 288.115 555.593 287.714C555.645 287.313 555.697 286.912 555.744 286.508V258.419C555.284 257.61 554.538 257.243 553.665 256.938L519.379 245H518.585C507.064 249.107 495.5 253.095 483.934 257.075ZM518.931 247C507.506 251.071 496.041 255.024 484.585 258.966L484.579 258.969L484.579 258.969C484.442 259.015 484.332 259.071 484.235 259.143V286.405C484.373 287.571 484.51 288.723 484.662 289.873C485.993 299.442 490.832 306.926 499.036 312.568L499.037 312.568C504.565 316.376 510.613 318.393 517.166 320.578C517.744 320.771 518.326 320.965 518.912 321.161H519.081C526.908 318.773 534.357 316.035 540.652 311.195L540.652 311.195C548.214 305.383 552.436 297.918 553.455 288.7L553.456 288.693L553.456 288.686C553.505 288.27 553.558 287.86 553.609 287.462L553.61 287.459C553.657 287.096 553.702 286.743 553.744 286.39V259.15C553.6 259.06 553.375 258.955 553.006 258.826C553.005 258.826 553.005 258.826 553.005 258.826L519.04 247H518.931Z" fill="#391077"/>
<path fill-rule="evenodd" clip-rule="evenodd" d="M540.807 312.409C541.133 312.855 541.036 313.48 540.591 313.807C535.575 317.482 529.903 319.905 523.948 321.738C522.568 322.164 521.189 322.563 519.82 322.96L519.68 323H518.659L518.51 322.952C518.383 322.912 518.274 322.875 518.173 322.841C518.002 322.783 517.856 322.734 517.691 322.688C511.238 321.019 505.018 318.734 499.451 315.08C498.989 314.777 498.861 314.157 499.164 313.695C499.467 313.234 500.087 313.105 500.549 313.408C505.868 316.9 511.862 319.115 518.2 320.754L518.207 320.756L518.214 320.758C518.434 320.818 518.677 320.9 518.883 320.969C518.915 320.98 518.946 320.99 518.976 321H519.396C520.723 320.616 522.041 320.233 523.358 319.827C529.187 318.033 534.634 315.692 539.409 312.193C539.854 311.867 540.48 311.964 540.807 312.409Z" fill="#1BFEC0"/>
<path d="M535.424 278.207C535.424 277.676 535.212 277.146 534.83 276.765L531.946 273.881C531.565 273.499 531.034 273.287 530.504 273.287C529.974 273.287 529.444 273.499 529.062 273.881L515.152 287.813L508.917 281.557C508.536 281.175 508.005 280.963 507.475 280.963C506.945 280.963 506.415 281.175 506.033 281.557L503.149 284.441C502.768 284.823 502.556 285.353 502.556 285.883C502.556 286.413 502.768 286.943 503.149 287.325L513.71 297.885C514.091 298.267 514.622 298.479 515.152 298.479C515.682 298.479 516.212 298.267 516.594 297.885L534.83 279.648C535.212 279.267 535.424 278.737 535.424 278.207Z" fill="white"/>
<path fill-rule="evenodd" clip-rule="evenodd" d="M192.148 47C205.011 47 217.347 52.1098 226.443 61.2053C235.538 70.3008 240.648 82.637 240.648 95.5C240.648 108.363 235.538 120.699 226.443 129.795C217.355 138.883 205.021 144.4 192.148 144.4L96.148 144.4C83.9746 144.4 72.2998 149.236 63.6918 157.844C55.079 166.457 50 178.133 50 190.3V417H49V190.3C49 177.855 54.1942 165.927 62.9847 157.137C71.7802 148.341 83.7094 143.4 96.148 143.4L192.148 143.4C204.735 143.4 216.82 138.003 225.736 129.088C234.644 120.18 239.648 108.098 239.648 95.5C239.648 82.9022 234.644 70.8204 225.736 61.9124C216.828 53.0045 204.746 48 192.148 48V47Z" fill="#935BE7"/>
<path d="M645.575 212.274C645.575 211.015 644.554 209.994 643.295 209.994C642.035 209.994 641.015 211.015 641.015 212.274C641.015 213.533 642.035 214.554 643.295 214.554C644.554 214.554 645.575 213.533 645.575 212.274Z" fill="white"/>
<path d="M637.174 227.354C637.174 226.095 636.153 225.074 634.894 225.074C633.635 225.074 632.614 226.095 632.614 227.354C632.614 228.613 633.635 229.634 634.894 229.634C636.153 229.634 637.174 228.613 637.174 227.354Z" fill="white"/>
<path fill-rule="evenodd" clip-rule="evenodd" d="M653.334 228.086L636.534 228.086L636.534 227.086L653.334 227.086C654.474 227.086 655.568 226.633 656.374 225.826C657.181 225.02 657.634 223.926 657.634 222.786L657.634 192.386L658.634 192.386L658.634 222.786C658.634 224.191 658.075 225.539 657.081 226.533C656.087 227.527 654.739 228.086 653.334 228.086Z" fill="white"/>
<path fill-rule="evenodd" clip-rule="evenodd" d="M657.734 212.634L643.234 212.634L643.234 211.634L657.734 211.634L657.734 212.634Z" fill="white"/>
</svg>
