<svg width="706" height="707" viewBox="0 0 706 707" fill="none" xmlns="http://www.w3.org/2000/svg">
<rect width="706" height="706" fill="#0B092E"/>
<path d="M0 513H192V706H0V513Z" fill="#25025A"/>
<path d="M0 609H576V707H0V609Z" fill="#25015A"/>
<path d="M192 0C217.461 0 241.879 10.1143 259.882 28.1178C277.886 46.1212 288 70.5392 288 96H192V0Z" fill="#3D0D85"/>
<path d="M489 418H706V707H489V418Z" fill="#3D0D85"/>
<path d="M0 609H192V705H0V609Z" fill="#3D0D85"/>
<path d="M96 513C70.5392 513 46.1212 502.886 28.1177 484.882C10.1143 466.879 -3.08337e-06 442.461 -4.19629e-06 417L96 417L96 513Z" fill="#3D0D85"/>
<path fill-rule="evenodd" clip-rule="evenodd" d="M96.5 465.5C83.637 465.5 72.3008 460.39 63.2053 451.295C54.1098 442.199 49 429.863 49 417L50 417C50 429.598 55.0044 441.68 63.9124 450.588C72.8204 459.496 83.9022 464.5 96.5 464.5L96.5 465.5Z" fill="#935BE7"/>
<path fill-rule="evenodd" clip-rule="evenodd" d="M104.3 457.372C100.268 457.372 97 460.64 97 464.672C97 468.704 100.268 471.972 104.3 471.972C108.332 471.972 111.6 468.704 111.6 464.672C111.6 460.64 108.332 457.372 104.3 457.372ZM96 464.672C96 460.088 99.716 456.372 104.3 456.372C108.884 456.372 112.6 460.088 112.6 464.672C112.6 469.256 108.884 472.972 104.3 472.972C99.716 472.972 96 469.256 96 464.672Z" fill="#935BE7"/>
<path d="M96 609H0V705H96C121.461 705 145.879 694.886 163.882 676.882C181.886 658.879 192 634.461 192 609H96Z" fill="#6515DD"/>
<path fill-rule="evenodd" clip-rule="evenodd" d="M130.088 641.988C138.996 633.08 144 620.998 144 608.4H145C145 621.263 139.89 633.599 130.795 642.695C121.699 651.79 109.363 656.9 96.5 656.9H0V655.9H96.5C109.098 655.9 121.18 650.896 130.088 641.988Z" fill="#935BE7"/>
<path fill-rule="evenodd" clip-rule="evenodd" d="M157.737 574.237C166.541 565.433 179.574 560.5 192 560.5V561.5C179.814 561.5 167.043 566.344 158.444 574.944C149.844 583.544 145 596.215 145 608.4H144C144 595.973 148.934 583.04 157.737 574.237Z" fill="#935BE7"/>
<path d="M610 514L489 514L489 418L706 418C706 443.461 695.886 467.879 677.882 485.882C659.879 503.886 635.461 514 610 514Z" fill="#25015A"/>
<path fill-rule="evenodd" clip-rule="evenodd" d="M644.088 451.988C652.996 443.08 658 430.998 658 418.4H659C659 431.263 653.89 443.599 644.795 452.695C635.699 461.79 623.363 466.9 610.5 466.9H490V465.9H610.5C623.098 465.9 635.18 460.896 644.088 451.988Z" fill="#935BE7"/>
<path fill-rule="evenodd" clip-rule="evenodd" d="M658.3 403.372C654.268 403.372 651 406.64 651 410.672C651 414.704 654.268 417.972 658.3 417.972C662.332 417.972 665.6 414.704 665.6 410.672C665.6 406.64 662.332 403.372 658.3 403.372ZM650 410.672C650 406.088 653.716 402.372 658.3 402.372C662.884 402.372 666.6 406.088 666.6 410.672C666.6 415.256 662.884 418.972 658.3 418.972C653.716 418.972 650 415.256 650 410.672Z" fill="#935BE7"/>
<rect y="96" width="706" height="96" fill="#3D0D85"/>
<path d="M610 96C610 70.5392 620.114 46.1212 638.118 28.1177C656.121 10.1143 680.539 0 706 0L706 96L610 96Z" fill="#25015A"/>
<path fill-rule="evenodd" clip-rule="evenodd" d="M657.5 96.5C657.5 83.637 662.61 72.3008 671.705 63.2053C680.801 54.1098 693.137 49 706 49L706 50C693.402 50 681.32 55.0044 672.412 63.9124C663.504 72.8204 658.5 83.9022 658.5 96.5L657.5 96.5Z" fill="#935BE7"/>
<path fill-rule="evenodd" clip-rule="evenodd" d="M671.705 62.7053C680.801 53.6098 693.137 48.5 706 48.5V49.5C693.402 49.5 681.32 54.5045 672.412 63.4124C663.504 72.3204 658.5 84.4022 658.5 97H657.5C657.5 84.137 662.61 71.8008 671.705 62.7053Z" fill="#935BE7"/>
<path fill-rule="evenodd" clip-rule="evenodd" d="M657.5 193V97H658.5V193H657.5Z" fill="#935BE7"/>
<path fill-rule="evenodd" clip-rule="evenodd" d="M706 115H0V114H706V115ZM0 117.924H706V118.924H0V117.924ZM0 122.613H706V123.613H0V122.613ZM0 126.904H706V127.904H0V126.904ZM0 131H706V132H0V131Z" fill="#25015A"/>
<path d="M192 96H96C70.5392 96 46.1212 106.114 28.1178 124.118C10.1143 142.121 0 166.539 0 192H192C217.461 192 241.879 181.886 259.882 163.882C277.886 145.879 288 121.461 288 96H192Z" fill="#25025A"/>
<path fill-rule="evenodd" clip-rule="evenodd" d="M478.576 662.044C474.586 662.044 470.76 660.459 467.939 657.638C465.117 654.817 463.532 650.99 463.532 647V517H462.532V647C462.532 651.255 464.223 655.336 467.231 658.345C470.24 661.354 474.321 663.044 478.576 663.044H706V662.044H478.576Z" fill="white" fill-opacity="0.5"/>
<path fill-rule="evenodd" clip-rule="evenodd" d="M476.28 666.596C474.076 666.597 471.894 666.164 469.857 665.321C467.821 664.478 465.971 663.242 464.412 661.684C462.854 660.125 461.618 658.275 460.775 656.239C459.932 654.203 459.499 652.02 459.5 649.816L459.5 507H458.5L458.5 649.816C458.499 652.151 458.958 654.464 459.851 656.621C460.744 658.779 462.054 660.74 463.705 662.391C465.357 664.042 467.317 665.352 469.475 666.245C471.632 667.138 473.945 667.597 476.28 667.596L706 667.596V666.596L476.28 666.596Z" fill="white" fill-opacity="0.5"/>
<path fill-rule="evenodd" clip-rule="evenodd" d="M479.688 657.316C476.615 657.316 473.667 656.095 471.494 653.922C469.321 651.749 468.1 648.802 468.1 645.728V517H467.1V645.728C467.1 649.067 468.426 652.269 470.787 654.629C473.148 656.99 476.35 658.316 479.688 658.316H706V657.316H479.688Z" fill="white" fill-opacity="0.5"/>
<path fill-rule="evenodd" clip-rule="evenodd" d="M480.8 652.132C478.643 652.132 476.575 651.275 475.05 649.75C473.525 648.225 472.668 646.157 472.668 644V507H471.668V644C471.668 646.422 472.63 648.745 474.343 650.457C476.055 652.17 478.378 653.132 480.8 653.132H706V652.132H480.8Z" fill="white" fill-opacity="0.5"/>
<path fill-rule="evenodd" clip-rule="evenodd" d="M478.146 646.87C479.374 648.098 481.04 648.788 482.776 648.788H706V647.788H482.776C481.305 647.788 479.894 647.204 478.853 646.163C477.813 645.123 477.228 643.712 477.228 642.24V507.04H476.228V642.24C476.228 643.977 476.918 645.642 478.146 646.87Z" fill="white" fill-opacity="0.5"/>
<path d="M228 564.728H320.8V590.304H228V564.728ZM228 530.864H320.8V556.44H228V530.864ZM228 497H320.8V522.576H228V497Z" fill="#6515DD"/>
<path d="M235.353 522.576H313.457V530.864H235.353V522.576ZM235.353 556.44H313.457V564.728H235.353V556.44ZM235.353 590.304H313.457V598.592H235.353V590.304Z" fill="#391077"/>
<path d="M310.729 512.016C311.957 512.016 312.953 511.02 312.953 509.792C312.953 508.563 311.957 507.568 310.729 507.568C309.5 507.568 308.505 508.563 308.505 509.792C308.505 511.02 309.5 512.016 310.729 512.016Z" fill="#1BFEC0"/>
<path fill-rule="evenodd" clip-rule="evenodd" d="M310.729 508.068C309.776 508.068 309.005 508.84 309.005 509.792C309.005 510.744 309.776 511.516 310.729 511.516C311.681 511.516 312.453 510.744 312.453 509.792C312.453 508.84 311.681 508.068 310.729 508.068ZM308.005 509.792C308.005 508.287 309.224 507.068 310.729 507.068C312.233 507.068 313.453 508.287 313.453 509.792C313.453 511.296 312.233 512.516 310.729 512.516C309.224 512.516 308.005 511.296 308.005 509.792Z" fill="#1BFEC0"/>
<path d="M310.729 579.88C311.957 579.88 312.953 578.884 312.953 577.656C312.953 576.427 311.957 575.432 310.729 575.432C309.5 575.432 308.505 576.427 308.505 577.656C308.505 578.884 309.5 579.88 310.729 579.88Z" fill="#1BFEC0"/>
<path fill-rule="evenodd" clip-rule="evenodd" d="M310.729 575.932C309.776 575.932 309.005 576.703 309.005 577.656C309.005 578.608 309.776 579.38 310.729 579.38C311.681 579.38 312.453 578.608 312.453 577.656C312.453 576.703 311.681 575.932 310.729 575.932ZM308.005 577.656C308.005 576.151 309.224 574.932 310.729 574.932C312.233 574.932 313.453 576.151 313.453 577.656C313.453 579.16 312.233 580.38 310.729 580.38C309.224 580.38 308.005 579.16 308.005 577.656Z" fill="#1BFEC0"/>
<path d="M310.729 545.744C311.957 545.744 312.953 544.748 312.953 543.52C312.953 542.291 311.957 541.296 310.729 541.296C309.5 541.296 308.505 542.291 308.505 543.52C308.505 544.748 309.5 545.744 310.729 545.744Z" fill="#1BFEC0"/>
<path fill-rule="evenodd" clip-rule="evenodd" d="M310.729 541.796C309.776 541.796 309.005 542.568 309.005 543.52C309.005 544.472 309.776 545.244 310.729 545.244C311.681 545.244 312.453 544.472 312.453 543.52C312.453 542.568 311.681 541.796 310.729 541.796ZM308.005 543.52C308.005 542.015 309.224 540.796 310.729 540.796C312.233 540.796 313.453 542.015 313.453 543.52C313.453 545.024 312.233 546.244 310.729 546.244C309.224 546.244 308.005 545.024 308.005 543.52Z" fill="#1BFEC0"/>
<path fill-rule="evenodd" clip-rule="evenodd" d="M235.313 509.496C235.313 508.944 235.76 508.496 236.313 508.496H259.513C260.065 508.496 260.513 508.944 260.513 509.496C260.513 510.048 260.065 510.496 259.513 510.496H236.313C235.76 510.496 235.313 510.048 235.313 509.496ZM235.313 543.656C235.313 543.104 235.76 542.656 236.313 542.656H259.513C260.065 542.656 260.513 543.104 260.513 543.656C260.513 544.208 260.065 544.656 259.513 544.656H236.313C235.76 544.656 235.313 544.208 235.313 543.656ZM235.313 577.52C235.313 576.968 235.76 576.52 236.313 576.52H259.513C260.065 576.52 260.513 576.968 260.513 577.52C260.513 578.072 260.065 578.52 259.513 578.52H236.313C235.76 578.52 235.313 578.072 235.313 577.52Z" fill="#391077"/>
<path fill-rule="evenodd" clip-rule="evenodd" d="M219.088 544.664C218.372 544.664 217.685 544.948 217.179 545.455C216.672 545.961 216.388 546.648 216.388 547.364V574.828C216.388 575.544 216.672 576.231 217.179 576.737C217.685 577.243 218.372 577.528 219.088 577.528H227.888V578.528H219.088C218.107 578.528 217.166 578.138 216.472 577.444C215.778 576.75 215.388 575.809 215.388 574.828V561.5H192V560.5H215.388V547.364C215.388 546.383 215.778 545.442 216.472 544.748C217.166 544.054 218.107 543.664 219.088 543.664H227.888V544.664H219.088Z" fill="#935BE7"/>
<path fill-rule="evenodd" clip-rule="evenodd" d="M275.75 398.75L275.75 496.25L274.75 496.25L274.75 398.75L275.75 398.75Z" fill="#935BE7"/>
<path d="M321.154 377.077C321.154 351.077 300.077 330 274.077 330C248.077 330 227 351.077 227 377.077V393.554C227 396.154 229.108 398.262 231.708 398.262H316.446C319.046 398.262 321.154 396.154 321.154 393.554V377.077Z" fill="#6515DD"/>
<path fill-rule="evenodd" clip-rule="evenodd" d="M238.554 378.646C238.554 359.027 254.458 343.123 274.077 343.123C293.696 343.123 309.6 359.027 309.6 378.646C309.6 379.198 309.152 379.646 308.6 379.646C308.048 379.646 307.6 379.198 307.6 378.646C307.6 360.132 292.591 345.123 274.077 345.123C255.563 345.123 240.554 360.132 240.554 378.646C240.554 379.198 240.106 379.646 239.554 379.646C239.002 379.646 238.554 379.198 238.554 378.646Z" fill="#391077"/>
<path fill-rule="evenodd" clip-rule="evenodd" d="M274.077 345.123C255.563 345.123 240.554 360.132 240.554 378.646C240.554 379.198 240.106 379.646 239.554 379.646C239.002 379.646 238.554 379.198 238.554 378.646C238.554 359.027 254.458 343.123 274.077 343.123C283.932 343.123 292.852 347.138 299.286 353.618C299.675 354.01 299.673 354.644 299.281 355.033C298.889 355.422 298.256 355.42 297.867 355.028C291.793 348.91 283.378 345.123 274.077 345.123Z" fill="#1BFEC0"/>
<path d="M277.775 383.7C275.435 386.04 271.551 385.949 269.1 383.498C266.649 381.047 266.558 377.163 268.898 374.823C270.493 373.228 281.867 365.979 288.946 361.526C290.351 360.643 291.955 362.248 291.072 363.652C286.619 370.731 279.37 382.105 277.775 383.7Z" fill="white"/>
<path fill-rule="evenodd" clip-rule="evenodd" d="M467.45 456.5L467.45 417.45C467.45 405.264 462.606 392.493 454.006 383.894C445.406 375.293 432.735 370.45 420.55 370.45L321 370.45L321 369.45L420.55 369.45C432.977 369.45 445.91 374.384 454.713 383.187C463.517 391.99 468.45 405.024 468.45 417.45L468.45 456.5L467.45 456.5Z" fill="#935BE7"/>
<path d="M421 471.364C421 458.887 421 446.389 421 433.912C421.507 433.057 422.198 432.446 423.172 432.1C435.594 427.643 447.996 423.144 460.398 418.646C462.773 417.791 465.128 416.875 467.482 416C467.827 416 468.152 416 468.497 416C468.802 416.142 469.086 416.305 469.411 416.407C483.721 421.597 498.011 426.768 512.341 431.917C513.457 432.324 514.411 432.813 515 433.892C515 446.369 515 458.867 515 471.344C514.878 472.423 514.736 473.481 514.614 474.56C513.234 487.587 507.469 498.192 497.26 506.374C490.379 511.89 482.564 515.554 474.282 518.342C472 519 469.662 519.548 468.906 519.788C468.5 519.916 467.827 520.215 467.482 520.215C467.076 520.073 466.67 519.91 466.265 519.788C457.273 517.243 448.686 513.783 441.034 508.287C429.992 500.369 423.375 489.744 421.568 476.188C421.365 474.58 421.183 472.972 421 471.364Z" fill="#6515DD"/>
<path fill-rule="evenodd" clip-rule="evenodd" d="M432.934 441.075C432.172 441.335 431.632 441.793 431.235 442.434V470.523L431.235 470.523C431.378 471.729 431.521 472.935 431.68 474.141C433.093 484.308 438.267 492.277 446.902 498.216C452.677 502.193 458.997 504.298 465.511 506.468C466.2 506.698 466.892 506.928 467.585 507.161H468.379C476.343 504.743 484.195 501.913 490.871 496.781C498.855 490.644 503.363 482.69 504.443 472.92C504.49 472.515 504.542 472.115 504.593 471.714C504.645 471.313 504.697 470.912 504.744 470.508V442.419C504.284 441.61 503.538 441.243 502.665 440.938L468.379 429H467.585C456.064 433.107 444.5 437.095 432.934 441.075ZM467.931 431C456.506 435.071 445.041 439.024 433.585 442.966L433.579 442.969L433.579 442.969C433.442 443.015 433.332 443.071 433.235 443.143V470.405C433.373 471.571 433.51 472.723 433.662 473.873C434.993 483.442 439.832 490.926 448.036 496.568L448.037 496.568C453.565 500.376 459.613 502.393 466.166 504.578C466.744 504.771 467.326 504.965 467.912 505.161H468.081C475.908 502.773 483.357 500.035 489.652 495.195L489.652 495.195C497.214 489.383 501.436 481.918 502.455 472.7L502.456 472.693L502.456 472.686C502.505 472.27 502.558 471.86 502.609 471.462L502.61 471.459C502.657 471.096 502.702 470.743 502.744 470.39V443.15C502.6 443.06 502.375 442.955 502.006 442.826C502.005 442.826 502.005 442.826 502.005 442.826L468.04 431H467.931Z" fill="#391077"/>
<path fill-rule="evenodd" clip-rule="evenodd" d="M489.807 496.409C490.133 496.855 490.036 497.48 489.591 497.807C484.575 501.482 478.903 503.905 472.948 505.738C471.568 506.164 470.189 506.563 468.82 506.96L468.68 507H467.659L467.51 506.952C467.383 506.912 467.274 506.875 467.173 506.841C467.002 506.783 466.856 506.734 466.691 506.688C460.238 505.019 454.018 502.734 448.451 499.08C447.989 498.777 447.861 498.157 448.164 497.695C448.467 497.234 449.087 497.105 449.549 497.408C454.868 500.9 460.862 503.115 467.2 504.754L467.207 504.756L467.214 504.758C467.434 504.818 467.677 504.9 467.883 504.969C467.915 504.98 467.946 504.99 467.976 505H468.396C469.723 504.616 471.041 504.233 472.358 503.827C478.187 502.033 483.634 499.692 488.409 496.193C488.854 495.867 489.48 495.964 489.807 496.409Z" fill="#1BFEC0"/>
<path d="M484.424 462.207C484.424 461.676 484.212 461.146 483.83 460.765L480.946 457.881C480.565 457.499 480.034 457.287 479.504 457.287C478.974 457.287 478.444 457.499 478.062 457.881L464.152 471.813L457.917 465.557C457.536 465.175 457.005 464.963 456.475 464.963C455.945 464.963 455.415 465.175 455.033 465.557L452.149 468.441C451.768 468.823 451.556 469.353 451.556 469.883C451.556 470.413 451.768 470.943 452.149 471.325L462.71 481.885C463.091 482.267 463.622 482.479 464.152 482.479C464.682 482.479 465.212 482.267 465.594 481.885L483.83 463.648C484.212 463.267 484.424 462.737 484.424 462.207Z" fill="white"/>
<path fill-rule="evenodd" clip-rule="evenodd" d="M192.148 47C205.011 47 217.347 52.1098 226.443 61.2053C235.538 70.3008 240.648 82.637 240.648 95.5C240.648 108.363 235.538 120.699 226.443 129.795C217.355 138.883 205.021 144.4 192.148 144.4L96.148 144.4C83.9746 144.4 72.2998 149.236 63.6918 157.844C55.079 166.457 50 178.133 50 190.3V417H49V190.3C49 177.855 54.1942 165.927 62.9847 157.137C71.7802 148.341 83.7094 143.4 96.148 143.4L192.148 143.4C204.735 143.4 216.82 138.003 225.736 129.088C234.644 120.18 239.648 108.098 239.648 95.5C239.648 82.9022 234.644 70.8204 225.736 61.9124C216.828 53.0045 204.746 48 192.148 48V47Z" fill="#935BE7"/>
<path fill-rule="evenodd" clip-rule="evenodd" d="M706 276H0V275H706V276ZM0 278.924H706V279.924H0V278.924ZM0 283.613H706V284.613H0V283.613ZM0 287.904H706V288.904H0V287.904ZM0 292H706V293H0V292Z" fill="#3D0D85"/>
</svg>
