<svg width="576" height="458" fill="none" xmlns="http://www.w3.org/2000/svg"><path fill-rule="evenodd" clip-rule="evenodd" d="M135.044 359.856A15.047 15.047 0 01120 374.9H0v1h120a16.044 16.044 0 0016.044-16.044v-87.752h-1v87.752z" fill="#fff" fill-opacity=".5"/><path fill-rule="evenodd" clip-rule="evenodd" d="M139.596 362.152a16.771 16.771 0 01-16.779 16.78H0v1h122.816a17.78 17.78 0 0012.575-5.205 17.77 17.77 0 005.205-12.575v-90.048h-1v90.048z" fill="#fff" fill-opacity=".5"/><path fill-rule="evenodd" clip-rule="evenodd" d="M130.316 358.744a11.59 11.59 0 01-11.588 11.588H0v1h118.728a12.585 12.585 0 0012.588-12.588v-86.64h-1v86.64z" fill="#fff" fill-opacity=".5"/><path fill-rule="evenodd" clip-rule="evenodd" d="M125.132 357.632a8.131 8.131 0 01-8.132 8.132H0v1h117a9.133 9.133 0 009.132-9.132v-85.528h-1v85.528zM478.576 452.044A15.047 15.047 0 01463.532 437V317h-1v120a16.044 16.044 0 0016.044 16.044h117.752v-1H478.576z" fill="#fff" fill-opacity=".5"/><path fill-rule="evenodd" clip-rule="evenodd" d="M476.28 456.596a16.771 16.771 0 01-16.78-16.78V317h-1v122.816a17.772 17.772 0 0017.78 17.78h120.048v-1H476.28z" fill="#fff" fill-opacity=".5"/><path fill-rule="evenodd" clip-rule="evenodd" d="M479.688 447.316a11.59 11.59 0 01-11.588-11.588V317h-1v118.728a12.585 12.585 0 0012.588 12.588h116.64v-1h-116.64z" fill="#fff" fill-opacity=".5"/><path fill-rule="evenodd" clip-rule="evenodd" d="M480.8 442.132a8.131 8.131 0 01-8.132-8.132V317h-1v117c0 2.422.962 4.745 2.675 6.457a9.129 9.129 0 006.457 2.675h115.528v-1H480.8z" fill="#fff" fill-opacity=".5"/><path fill-rule="evenodd" clip-rule="evenodd" d="M478.146 436.87a6.549 6.549 0 004.63 1.918h113.552v-1H482.776a5.547 5.547 0 01-5.548-5.548v-115.2h-1v115.2c0 1.737.69 3.402 1.918 4.63z" fill="#fff" fill-opacity=".5"/><path fill-rule="evenodd" clip-rule="evenodd" d="M264 34.45h-83c-1.82 0-3.15.702-4.047 1.75-.919 1.073-1.45 2.595-1.452 4.291l.549 45.65v.009c0 4.5-3.643 8.3-8.2 8.3h-26.9a7.462 7.462 0 00-7.5 7.5v69.5h-3v-69.5c0-5.829 4.671-10.5 10.5-10.5h26.9c2.84 0 5.195-2.395 5.2-5.291l-.549-45.65V40.5c0-2.3.718-4.55 2.172-6.25 1.478-1.727 3.647-2.8 6.327-2.8h83v3z" fill="#6515DD" fill-opacity=".5"/><path d="M238 33l-7.5 4.33v-8.66L238 33zM381 33l-7.5 4.33v-8.66L381 33z" fill="#6515DD"/><path fill-rule="evenodd" clip-rule="evenodd" d="M453.7 34.5H336.2v-3h117.5c8.428 0 15.3 6.872 15.3 15.3v202.5h-3V46.8c0-6.772-5.528-12.3-12.3-12.3z" fill="#6515DD" fill-opacity=".5"/><path d="M85 237.728h92.8v25.576H85v-25.576zm0-33.864h92.8v25.576H85v-25.576zM85 170h92.8v25.576H85V170z" fill="#6515DD"/><path d="M92.353 195.576h78.104v8.288H92.353v-8.288zm0 33.864h78.104v8.288H92.353v-8.288zm0 33.864h78.104v8.288H92.353v-8.288z" fill="#391077"/><path d="M167.729 185.016a2.224 2.224 0 100-4.449 2.224 2.224 0 000 4.449zM167.729 218.88a2.224 2.224 0 100-4.449 2.224 2.224 0 000 4.449zM167.729 252.744a2.224 2.224 0 100-4.449 2.224 2.224 0 000 4.449z" fill="#1BFEC0" stroke="#1BFEC0"/><path fill-rule="evenodd" clip-rule="evenodd" d="M92.313 182.496a1 1 0 011-1h23.2a1 1 0 010 2h-23.2a1 1 0 01-1-1zm0 34.16a1 1 0 011-1h23.2a1 1 0 010 2h-23.2a1 1 0 01-1-1zm0 33.864a1 1 0 011-1h23.2a1 1 0 010 2h-23.2a1 1 0 01-1-1z" fill="#391077"/><path d="M349.154 47.077c0-26-21.077-47.077-47.077-47.077C276.077 0 255 21.077 255 47.077v16.477c0 2.6 2.108 4.707 4.708 4.707h84.738c2.6 0 4.708-2.107 4.708-4.707V47.077z" fill="#6515DD"/><path fill-rule="evenodd" clip-rule="evenodd" d="M266.554 48.646c0-19.619 15.904-35.523 35.523-35.523 19.619 0 35.523 15.904 35.523 35.523a1 1 0 01-2 0c0-18.514-15.009-33.523-33.523-33.523-18.514 0-33.523 15.009-33.523 33.523a1 1 0 01-2 0z" fill="#391077"/><path fill-rule="evenodd" clip-rule="evenodd" d="M302.077 15.123c-18.514 0-33.523 15.009-33.523 33.523a1 1 0 01-2 0c0-19.619 15.904-35.523 35.523-35.523 9.855 0 18.775 4.015 25.209 10.496a1 1 0 01-1.419 1.409c-6.074-6.118-14.489-9.905-23.79-9.905z" fill="#1BFEC0"/><path d="M305.775 53.7c-2.34 2.34-6.224 2.25-8.675-.202-2.451-2.451-2.542-6.335-.202-8.675 1.595-1.595 12.969-8.844 20.048-13.297 1.405-.883 3.009.722 2.126 2.126-4.453 7.079-11.702 18.453-13.297 20.048z" fill="#fff"/><path d="M421 303.364v-37.452c.507-.855 1.198-1.466 2.172-1.812 12.422-4.457 24.824-8.956 37.226-13.454 2.375-.855 4.73-1.771 7.084-2.646h1.015c.305.142.589.305.914.407 14.31 5.19 28.6 10.361 42.93 15.51 1.116.407 2.07.896 2.659 1.975v37.452c-.122 1.079-.264 2.137-.386 3.216-1.38 13.027-7.145 23.632-17.355 31.814-6.881 5.516-14.695 9.18-22.977 11.968-1.928.652-3.856 1.262-5.785 1.873h-1.015c-.406-.142-.812-.305-1.218-.427-8.992-2.545-17.578-6.005-25.23-11.501-11.042-7.918-17.659-18.543-19.466-32.099-.203-1.608-.385-3.216-.568-4.824z" fill="#6515DD"/><path fill-rule="evenodd" clip-rule="evenodd" d="M432.934 273.075a3.1 3.1 0 00-1.699 1.359v28.089c.143 1.206.286 2.412.445 3.618 1.412 10.167 6.587 18.136 15.222 24.075 5.775 3.977 12.094 6.082 18.608 8.252.69.23 1.382.46 2.075.693h.794c7.964-2.418 15.816-5.248 22.492-10.38 7.984-6.137 12.492-14.091 13.572-23.861.047-.405.099-.805.15-1.206.052-.401.104-.802.151-1.206v-28.089c-.46-.809-1.206-1.176-2.079-1.481L468.379 261h-.794c-11.521 4.107-23.085 8.095-34.651 12.075zM467.931 263c-11.425 4.071-22.89 8.024-34.346 11.966l-.006.003a1.206 1.206 0 00-.344.174v27.262c.138 1.166.275 2.318.427 3.468 1.331 9.569 6.17 17.053 14.373 22.695h.002c5.528 3.808 11.576 5.825 18.129 8.01l1.746.583h.169c7.827-2.388 15.276-5.126 21.571-9.966 7.562-5.812 11.784-13.277 12.803-22.495v-.007l.001-.007c.049-.416.102-.826.153-1.224l.001-.003c.046-.363.092-.716.134-1.069v-27.24c-.144-.09-.369-.195-.738-.324h-.001L468.04 263h-.109z" fill="#391077"/><path fill-rule="evenodd" clip-rule="evenodd" d="M489.807 328.409a1.001 1.001 0 01-.216 1.398c-5.016 3.675-10.688 6.098-16.643 7.931-1.38.426-2.759.825-4.128 1.222l-.14.04h-1.021l-.149-.048c-.127-.04-.236-.077-.337-.111a8.86 8.86 0 00-.482-.153c-6.453-1.669-12.673-3.954-18.24-7.608a1 1 0 111.098-1.672c5.319 3.492 11.313 5.707 17.651 7.346l.007.002.008.002c.219.06.462.142.668.211l.093.031h.42c1.327-.384 2.645-.767 3.962-1.173 5.829-1.794 11.276-4.135 16.051-7.634a1.001 1.001 0 011.398.216z" fill="#1BFEC0"/><path d="M484.424 294.207c0-.531-.212-1.061-.594-1.442l-2.884-2.884a2.054 2.054 0 00-1.442-.594c-.53 0-1.06.212-1.442.594l-13.91 13.932-6.235-6.256a2.054 2.054 0 00-1.442-.594c-.53 0-1.06.212-1.442.594l-2.884 2.884a2.06 2.06 0 00-.593 1.442c0 .53.212 1.06.593 1.442l10.561 10.56c.381.382.911.594 1.442.594.53 0 1.06-.212 1.442-.594l18.236-18.237c.382-.381.594-.911.594-1.441z" fill="#fff"/></svg>