<svg width="576" height="458" viewBox="0 0 576 458" fill="none" xmlns="http://www.w3.org/2000/svg">
<path fill-rule="evenodd" clip-rule="evenodd" d="M135.044 359.856C135.044 363.846 133.459 367.672 130.638 370.494C127.817 373.315 123.99 374.9 120 374.9L0.000335681 374.9L0.000335693 375.9L120 375.9C124.255 375.9 128.336 374.21 131.345 371.201C134.354 368.192 136.044 364.111 136.044 359.856L136.044 272.104L135.044 272.104L135.044 359.856Z" fill="white" fill-opacity="0.5"/>
<path fill-rule="evenodd" clip-rule="evenodd" d="M139.596 362.152C139.597 364.356 139.164 366.539 138.321 368.575C137.478 370.611 136.242 372.461 134.684 374.02C133.126 375.578 131.275 376.814 129.239 377.657C127.203 378.5 125.02 378.933 122.817 378.932L0.000335684 378.932L0.000335693 379.932L122.816 379.932C122.816 379.932 122.816 379.932 122.816 379.932C125.151 379.933 127.464 379.474 129.622 378.581C131.779 377.688 133.74 376.378 135.391 374.727C137.042 373.076 138.352 371.115 139.245 368.957C140.138 366.8 140.597 364.487 140.596 362.152L140.596 272.104L139.596 272.104L139.596 362.152Z" fill="white" fill-opacity="0.5"/>
<path fill-rule="evenodd" clip-rule="evenodd" d="M130.316 358.744C130.316 361.817 129.095 364.765 126.922 366.938C124.749 369.111 121.802 370.332 118.728 370.332L0.000320423 370.332L0.000320435 371.332L118.728 371.332C122.067 371.332 125.269 370.006 127.629 367.645C129.99 365.284 131.316 362.083 131.316 358.744L131.316 272.104L130.316 272.104L130.316 358.744Z" fill="white" fill-opacity="0.5"/>
<path fill-rule="evenodd" clip-rule="evenodd" d="M125.132 357.632C125.132 359.789 124.275 361.857 122.75 363.382C121.225 364.907 119.157 365.764 117 365.764L0.000251758 365.764L0.00025177 366.764L117 366.764C119.422 366.764 121.745 365.802 123.458 364.089C125.17 362.377 126.132 360.054 126.132 357.632L126.132 272.104L125.132 272.104L125.132 357.632Z" fill="white" fill-opacity="0.5"/>
<path fill-rule="evenodd" clip-rule="evenodd" d="M478.576 452.044C474.586 452.044 470.76 450.459 467.938 447.638C465.117 444.817 463.532 440.99 463.532 437V317H462.532V437C462.532 441.255 464.223 445.336 467.231 448.345C470.24 451.354 474.321 453.044 478.576 453.044H596.328V452.044H478.576Z" fill="white" fill-opacity="0.5"/>
<path fill-rule="evenodd" clip-rule="evenodd" d="M476.28 456.596C474.076 456.597 471.893 456.164 469.857 455.321C467.821 454.478 465.971 453.242 464.412 451.684C462.854 450.125 461.618 448.275 460.775 446.239C459.932 444.203 459.499 442.02 459.5 439.816L459.5 317H458.5L458.5 439.816C458.5 439.816 458.5 439.816 458.5 439.816C458.499 442.151 458.958 444.464 459.851 446.621C460.744 448.779 462.054 450.74 463.705 452.391C465.357 454.042 467.317 455.352 469.475 456.245C471.632 457.138 473.945 457.597 476.28 457.596H596.328V456.596L476.28 456.596Z" fill="white" fill-opacity="0.5"/>
<path fill-rule="evenodd" clip-rule="evenodd" d="M479.688 447.316C476.615 447.316 473.667 446.095 471.494 443.922C469.321 441.749 468.1 438.802 468.1 435.728V317H467.1V435.728C467.1 439.067 468.426 442.269 470.787 444.629C473.148 446.99 476.35 448.316 479.688 448.316H596.328V447.316H479.688Z" fill="white" fill-opacity="0.5"/>
<path fill-rule="evenodd" clip-rule="evenodd" d="M480.8 442.132C478.643 442.132 476.575 441.275 475.05 439.75C473.525 438.225 472.668 436.157 472.668 434V317H471.668V434C471.668 436.422 472.63 438.745 474.343 440.457C476.055 442.17 478.378 443.132 480.8 443.132H596.328V442.132H480.8Z" fill="white" fill-opacity="0.5"/>
<path fill-rule="evenodd" clip-rule="evenodd" d="M478.146 436.87C479.374 438.098 481.04 438.788 482.776 438.788H596.328V437.788H482.776C481.305 437.788 479.894 437.204 478.853 436.163C477.813 435.123 477.228 433.712 477.228 432.24V317.04H476.228V432.24C476.228 433.977 476.918 435.642 478.146 436.87Z" fill="white" fill-opacity="0.5"/>
<path fill-rule="evenodd" clip-rule="evenodd" d="M264 34.45L181 34.45C179.18 34.45 177.85 35.152 176.953 36.2002C176.034 37.2735 175.503 38.7951 175.501 40.4913L176.05 86.1409V86.15C176.05 90.6494 172.407 94.45 167.85 94.45H140.95C136.778 94.45 133.45 97.7784 133.45 101.95L133.45 171.45H130.45L130.45 101.95C130.45 96.1215 135.121 91.45 140.95 91.45H167.85C170.69 91.45 173.045 89.0553 173.05 86.1585L172.501 40.509V40.5C172.501 38.1997 173.219 35.9496 174.673 34.2498C176.151 32.523 178.32 31.45 181 31.45L264 31.45V34.45Z" fill="#6515DD" fill-opacity="0.5"/>
<path d="M238 33L230.5 37.3302L230.5 28.6699L238 33Z" fill="#6515DD"/>
<path d="M381 33L373.5 37.3302L373.5 28.6699L381 33Z" fill="#6515DD"/>
<path fill-rule="evenodd" clip-rule="evenodd" d="M453.7 34.5H336.2V31.5H453.7C462.128 31.5 469 38.3716 469 46.8V249.3H466V46.8C466 40.0284 460.472 34.5 453.7 34.5Z" fill="#6515DD" fill-opacity="0.5"/>
<path d="M85.0002 237.728H177.8V263.304H85.0002V237.728ZM85.0002 203.864H177.8V229.44H85.0002V203.864ZM85.0002 170H177.8V195.576H85.0002V170Z" fill="#6515DD"/>
<path d="M92.3527 195.576H170.457V203.864H92.3527V195.576ZM92.3527 229.44H170.457V237.728H92.3527V229.44ZM92.3527 263.304H170.457V271.592H92.3527V263.304Z" fill="#391077"/>
<path d="M167.729 185.016C168.957 185.016 169.953 184.02 169.953 182.792C169.953 181.564 168.957 180.568 167.729 180.568C166.5 180.568 165.505 181.564 165.505 182.792C165.505 184.02 166.5 185.016 167.729 185.016Z" fill="#1BFEC0" stroke="#1BFEC0"/>
<path d="M167.729 218.88C168.957 218.88 169.953 217.884 169.953 216.656C169.953 215.427 168.957 214.432 167.729 214.432C166.5 214.432 165.505 215.427 165.505 216.656C165.505 217.884 166.5 218.88 167.729 218.88Z" fill="#1BFEC0" stroke="#1BFEC0"/>
<path d="M167.729 252.744C168.957 252.744 169.953 251.748 169.953 250.52C169.953 249.292 168.957 248.296 167.729 248.296C166.5 248.296 165.505 249.292 165.505 250.52C165.505 251.748 166.5 252.744 167.729 252.744Z" fill="#1BFEC0" stroke="#1BFEC0"/>
<path fill-rule="evenodd" clip-rule="evenodd" d="M92.3127 182.496C92.3127 181.944 92.7604 181.496 93.3127 181.496H116.513C117.065 181.496 117.513 181.944 117.513 182.496C117.513 183.048 117.065 183.496 116.513 183.496H93.3127C92.7604 183.496 92.3127 183.048 92.3127 182.496ZM92.3127 216.656C92.3127 216.104 92.7604 215.656 93.3127 215.656H116.513C117.065 215.656 117.513 216.104 117.513 216.656C117.513 217.208 117.065 217.656 116.513 217.656H93.3127C92.7604 217.656 92.3127 217.208 92.3127 216.656ZM92.3127 250.52C92.3127 249.968 92.7604 249.52 93.3127 249.52H116.513C117.065 249.52 117.513 249.968 117.513 250.52C117.513 251.072 117.065 251.52 116.513 251.52H93.3127C92.7604 251.52 92.3127 251.072 92.3127 250.52Z" fill="#391077"/>
<path d="M349.154 47.0769C349.154 21.0771 328.077 0 302.077 0C276.077 0 255 21.0771 255 47.0769V63.5538C255 66.1539 257.108 68.2615 259.708 68.2615H344.446C347.046 68.2615 349.154 66.1539 349.154 63.5538V47.0769Z" fill="#6515DD"/>
<path fill-rule="evenodd" clip-rule="evenodd" d="M266.554 48.6461C266.554 29.0272 282.458 13.123 302.077 13.123C321.696 13.123 337.6 29.0272 337.6 48.6461C337.6 49.1984 337.152 49.6461 336.6 49.6461C336.048 49.6461 335.6 49.1984 335.6 48.6461C335.6 30.1318 320.591 15.123 302.077 15.123C283.563 15.123 268.554 30.1318 268.554 48.6461C268.554 49.1984 268.106 49.6461 267.554 49.6461C267.002 49.6461 266.554 49.1984 266.554 48.6461Z" fill="#391077"/>
<path fill-rule="evenodd" clip-rule="evenodd" d="M302.077 15.123C283.563 15.123 268.554 30.1318 268.554 48.6461C268.554 49.1984 268.106 49.6461 267.554 49.6461C267.002 49.6461 266.554 49.1984 266.554 48.6461C266.554 29.0272 282.458 13.123 302.077 13.123C311.932 13.123 320.852 17.1378 327.286 23.6185C327.675 24.0104 327.673 24.6436 327.281 25.0327C326.889 25.4218 326.256 25.4195 325.867 25.0276C319.793 18.9096 311.378 15.123 302.077 15.123Z" fill="#1BFEC0"/>
<path d="M305.775 53.6998C303.435 56.0396 299.551 55.9494 297.1 53.4981C294.649 51.0468 294.558 47.1628 296.898 44.8229C298.493 43.2278 309.867 35.9791 316.946 31.5261C318.351 30.6429 319.955 32.2476 319.072 33.6517C314.619 40.7309 307.37 52.1048 305.775 53.6998Z" fill="white"/>
<path d="M421 303.364C421 290.887 421 278.389 421 265.912C421.507 265.057 422.198 264.446 423.172 264.1C435.594 259.643 447.996 255.144 460.398 250.646C462.773 249.791 465.128 248.875 467.482 248C467.827 248 468.152 248 468.497 248C468.802 248.142 469.086 248.305 469.411 248.407C483.721 253.597 498.011 258.768 512.341 263.917C513.457 264.324 514.411 264.813 515 265.892C515 278.369 515 290.867 515 303.344C514.878 304.423 514.736 305.481 514.614 306.56C513.234 319.587 507.469 330.192 497.259 338.374C490.378 343.89 482.564 347.554 474.282 350.342C472.354 350.994 470.426 351.604 468.497 352.215C468.152 352.215 467.827 352.215 467.482 352.215C467.076 352.073 466.67 351.91 466.264 351.788C457.272 349.243 448.686 345.783 441.034 340.287C429.992 332.369 423.375 321.744 421.568 308.188C421.365 306.58 421.183 304.972 421 303.364Z" fill="#6515DD"/>
<path d="M433.259 274.048L433.256 274.049C432.815 274.199 432.493 274.433 432.235 274.769V274.79V274.845V274.899V274.954V275.009V275.064V275.119V275.174V275.229V275.283V275.338V275.393V275.448V275.503V275.558V275.612V275.667V275.722V275.777V275.832V275.887V275.941V275.996V276.051V276.106V276.161V276.216V276.27V276.325V276.38V276.435V276.49V276.545V276.6V276.654V276.709V276.764V276.819V276.874V276.929V276.983V277.038V277.093V277.148V277.203V277.258V277.313V277.367V277.422V277.477V277.532V277.587V277.642V277.696V277.751V277.806V277.861V277.916V277.971V278.026V278.08V278.135V278.19V278.245V278.3V278.355V278.41V278.464V278.519V278.574V278.629V278.684V278.739V278.794V278.848V278.903V278.958V279.013V279.068V279.123V279.178V279.232V279.287V279.342V279.397V279.452V279.507V279.562V279.616V279.671V279.726V279.781V279.836V279.891V279.946V280V280.055V280.11V280.165V280.22V280.275V280.33V280.384V280.439V280.494V280.549V280.604V280.659V280.714V280.768V280.823V280.878V280.933V280.988V281.043V281.098V281.153V281.207V281.262V281.317V281.372V281.427V281.482V281.537V281.591V281.646V281.701V281.756V281.811V281.866V281.921V281.976V282.03V282.085V282.14V282.195V282.25V282.305V282.36V282.414V282.469V282.524V282.579V282.634V282.689V282.744V282.799V282.853V282.908V282.963V283.018V283.073V283.128V283.183V283.237V283.292V283.347V283.402V283.457V283.512V283.567V283.622V283.676V283.731V283.786V283.841V283.896V283.951V284.006V284.061V284.115V284.17V284.225V284.28V284.335V284.39V284.445V284.5V284.554V284.609V284.664V284.719V284.774V284.829V284.884V284.939V284.993V285.048V285.103V285.158V285.213V285.268V285.323V285.378V285.432V285.487V285.542V285.597V285.652V285.707V285.762V285.817V285.871V285.926V285.981V286.036V286.091V286.146V286.201V286.256V286.31V286.365V286.42V286.475V286.53V286.585V286.64V286.695V286.749V286.804V286.859V286.914V286.969V287.024V287.079V287.134V287.188V287.243V287.298V287.353V287.408V287.463V287.518V287.573V287.627V287.682V287.737V287.792V287.847V287.902V287.957V288.012V288.066V288.121V288.176V288.231V288.286V288.341V288.396V288.451V288.505V288.56V288.615V288.67V288.725V288.78V288.835V288.89V288.944V288.999V289.054V289.109V289.164V289.219V289.274V289.329V289.383V289.438V289.493V289.548V289.603V289.658V289.713V289.768V289.822V289.877V289.932V289.987V290.042V290.097V290.152V290.207V290.261V290.316V290.371V290.426V290.481V290.536V290.591V290.646V290.7V290.755V290.81V290.865V290.92V290.975V291.03V291.085V291.14V291.194V291.249V291.304V291.359V291.414V291.469V291.524V291.579V291.633V291.688V291.743V291.798V291.853V291.908V291.963V292.017V292.072V292.127V292.182V292.237V292.292V292.347V292.402V292.456V292.511V292.566V292.621V292.676V292.731V292.786V292.841V292.895V292.95V293.005V293.06V293.115V293.17V293.225V293.28V293.334V293.389V293.444V293.499V293.554V293.609V293.664V293.719V293.773V293.828V293.883V293.938V293.993V294.048V294.103V294.157V294.212V294.267V294.322V294.377V294.432V294.487V294.542V294.596V294.651V294.706V294.761V294.816V294.871V294.926V294.981V295.035V295.09V295.145V295.2V295.255V295.31V295.365V295.419V295.474V295.529V295.584V295.639V295.694V295.749V295.804V295.858V295.913V295.968V296.023V296.078V296.133V296.188V296.242V296.297V296.352V296.407V296.462V296.517V296.572V296.626V296.681V296.736V296.791V296.846V296.901V296.956V297.01V297.065V297.12V297.175V297.23V297.285V297.34V297.395V297.449V297.504V297.559V297.614V297.669V297.724V297.779V297.833V297.888V297.943V297.998V298.053V298.108V298.163V298.217V298.272V298.327V298.382V298.437V298.492V298.546V298.601V298.656V298.711V298.766V298.821V298.876V298.93V298.985V299.04V299.095V299.15V299.205V299.26V299.314V299.369V299.424V299.479V299.534V299.589V299.644V299.698V299.753V299.808V299.863V299.918V299.973V300.027V300.082V300.137V300.192V300.247V300.302V300.357V300.411V300.466V300.521V300.576V300.631V300.686V300.74V300.795V300.85V300.905V300.96V301.015V301.069V301.124V301.179V301.234V301.289V301.344V301.399V301.453V301.508V301.563V301.618V301.673V301.728V301.782V301.837V301.892V301.947V302.002V302.057V302.111V302.166V302.221V302.276V302.331V302.386V302.44V302.495V302.55H431.235L433.259 274.048ZM433.259 274.048C442.975 270.704 452.675 267.33 462.373 263.956L462.373 263.956C463.545 263.552 464.719 263.126 465.883 262.704C466.512 262.476 467.138 262.249 467.758 262.027H467.759H467.76H467.762H467.763H467.765H467.766H467.768H467.769H467.771H467.772H467.774H467.776H467.777H467.779H467.78H467.782H467.783H467.785H467.786H467.788H467.789H467.791H467.793H467.794H467.796H467.797H467.799H467.8H467.802H467.803H467.805H467.806H467.808H467.81H467.811H467.813H467.814H467.816H467.817H467.819H467.82H467.822H467.823H467.825H467.827H467.828H467.83H467.831H467.833H467.834H467.836H467.837H467.839H467.84H467.842H467.843H467.845H467.847H467.848H467.85H467.851H467.853H467.854H467.856H467.857H467.859H467.86H467.862H467.864H467.865H467.867H467.868H467.87H467.871H467.873H467.874H467.876H467.877H467.879H467.88H467.882H467.884H467.885H467.887H467.888H467.89H467.891H467.893H467.894H467.896H467.897H467.899H467.9H467.902H467.903H467.905H467.907H467.908H467.91H467.911H467.913H467.914H467.916H467.917H467.919H467.92H467.922H467.923H467.925H467.927H467.928H467.93H467.931H467.933H467.934H467.936H467.937H467.939H467.94H467.942H467.943H467.945H467.946H467.948H467.95H467.951H467.953H467.954H467.956H467.957H467.959H467.96H467.962H467.963H467.965H467.966H467.968H467.97H467.971H467.973H467.974H467.976H467.977H467.979H467.98H467.982H467.983H467.985H467.986H467.988H467.989H467.991H467.993H467.994H467.996H467.997H467.999H468H468.002H468.003H468.005H468.006H468.008H468.009H468.011H468.012H468.014H468.016H468.017H468.019H468.02H468.022H468.023H468.025H468.026H468.028H468.029H468.031H468.032H468.034H468.036H468.037H468.039H468.04H468.042H468.043H468.045H468.046H468.048H468.049H468.051H468.052H468.054H468.055H468.057H468.059H468.06H468.062H468.063H468.065H468.066H468.068H468.069H468.071H468.072H468.074H468.075H468.077H468.079H468.08H468.082H468.083H468.085H468.086H468.088H468.089H468.091H468.092H468.094H468.095H468.097H468.099H468.1H468.102H468.103H468.105H468.106H468.108H468.109H468.111H468.112H468.114H468.115H468.117H468.119H468.12H468.122H468.123H468.125H468.126H468.128H468.129H468.131H468.132H468.134H468.135H468.137H468.139H468.14H468.142H468.143H468.145H468.146H468.148H468.149H468.151H468.152H468.154H468.155C468.324 262.107 468.556 262.213 468.782 262.283C479.966 266.173 491.136 270.049 502.337 273.909C503.04 274.155 503.466 274.384 503.744 274.743V274.775V274.829V274.884V274.939V274.994V275.049V275.104V275.158V275.213V275.268V275.323V275.378V275.433V275.487V275.542V275.597V275.652V275.707V275.762V275.816V275.871V275.926V275.981V276.036V276.091V276.146V276.2V276.255V276.31V276.365V276.42V276.475V276.529V276.584V276.639V276.694V276.749V276.804V276.858V276.913V276.968V277.023V277.078V277.133V277.188V277.242V277.297V277.352V277.407V277.462V277.517V277.572V277.626V277.681V277.736V277.791V277.846V277.901V277.955V278.01V278.065V278.12V278.175V278.23V278.285V278.339V278.394V278.449V278.504V278.559V278.614V278.669V278.723V278.778V278.833V278.888V278.943V278.998V279.053V279.107V279.162V279.217V279.272V279.327V279.382V279.437V279.491V279.546V279.601V279.656V279.711V279.766V279.821V279.875V279.93V279.985V280.04V280.095V280.15V280.205V280.259V280.314V280.369V280.424V280.479V280.534V280.589V280.643V280.698V280.753V280.808V280.863V280.918V280.973V281.028V281.082V281.137V281.192V281.247V281.302V281.357V281.412V281.466V281.521V281.576V281.631V281.686V281.741V281.796V281.851V281.905V281.96V282.015V282.07V282.125V282.18V282.235V282.289V282.344V282.399V282.454V282.509V282.564V282.619V282.674V282.728V282.783V282.838V282.893V282.948V283.003V283.058V283.112V283.167V283.222V283.277V283.332V283.387V283.442V283.497V283.551V283.606V283.661V283.716V283.771V283.826V283.881V283.936V283.99V284.045V284.1V284.155V284.21V284.265V284.32V284.375V284.429V284.484V284.539V284.594V284.649V284.704V284.759V284.814V284.868V284.923V284.978V285.033V285.088V285.143V285.198V285.253V285.307V285.362V285.417V285.472V285.527V285.582V285.637V285.692V285.746V285.801V285.856V285.911V285.966V286.021V286.076V286.131V286.185V286.24V286.295V286.35V286.405V286.46V286.515V286.57V286.624V286.679V286.734V286.789V286.844V286.899V286.954V287.009V287.063V287.118V287.173V287.228V287.283V287.338V287.393V287.448V287.502V287.557V287.612V287.667V287.722V287.777V287.832V287.887V287.941V287.996V288.051V288.106V288.161V288.216V288.271V288.326V288.38V288.435V288.49V288.545V288.6V288.655V288.71V288.765V288.819V288.874V288.929V288.984V289.039V289.094V289.149V289.204V289.258V289.313V289.368V289.423V289.478V289.533V289.588V289.643V289.697V289.752V289.807V289.862V289.917V289.972V290.027V290.082V290.136V290.191V290.246V290.301V290.356V290.411V290.466V290.521V290.575V290.63V290.685V290.74V290.795V290.85V290.905V290.96V291.014V291.069V291.124V291.179V291.234V291.289V291.344V291.399V291.453V291.508V291.563V291.618V291.673V291.728V291.783V291.838V291.892V291.947V292.002V292.057V292.112V292.167V292.222V292.277V292.331V292.386V292.441V292.496V292.551V292.606V292.661V292.716V292.77V292.825V292.88V292.935V292.99V293.045V293.1V293.155V293.209V293.264V293.319V293.374V293.429V293.484V293.539V293.594V293.648V293.703V293.758V293.813V293.868V293.923V293.978V294.032V294.087V294.142V294.197V294.252V294.307V294.362V294.417V294.471V294.526V294.581V294.636V294.691V294.746V294.801V294.856V294.91V294.965V295.02V295.075V295.13V295.185V295.24V295.294V295.349V295.404V295.459V295.514V295.569V295.624V295.679V295.733V295.788V295.843V295.898V295.953V296.008V296.063V296.117V296.172V296.227V296.282V296.337V296.392V296.447V296.501V296.556V296.611V296.666V296.721V296.776V296.831V296.885V296.94V296.995V297.05V297.105V297.16V297.215V297.27V297.324V297.379V297.434V297.489V297.544V297.599V297.654V297.708V297.763V297.818V297.873V297.928V297.983V298.038V298.092V298.147V298.202V298.257V298.312V298.367V298.422V298.476V298.531V298.586V298.641V298.696V298.751V298.805V298.86V298.915V298.97V299.025V299.08V299.135V299.189V299.244V299.299V299.354V299.409V299.464V299.519V299.573V299.628V299.683V299.738V299.793V299.848V299.902V299.957V300.012V300.067V300.122V300.177V300.232V300.286V300.341V300.396V300.451V300.506V300.561V300.615V300.67V300.725V300.78V300.835V300.89V300.945V300.999V301.054V301.109V301.164V301.219V301.274V301.328V301.383V301.438V301.493V301.548V301.603V301.657V301.712V301.767V301.822V301.877V301.932V301.986V302.041V302.096V302.151V302.206V302.261V302.315V302.37V302.425V302.476C503.699 302.855 503.651 303.231 503.602 303.613L503.601 303.617C503.55 304.016 503.498 304.42 503.449 304.83L503.449 304.837M433.259 274.048L503.449 304.837M503.449 304.837C502.4 314.331 498.035 322.04 490.262 328.015L490.261 328.015M503.449 304.837L490.261 328.015M490.261 328.015C485.001 332.059 479.006 334.762 472.595 336.832L472.594 336.832M490.261 328.015L472.594 336.832M472.594 336.832C471.144 337.302 469.692 337.744 468.23 338.188M472.594 336.832L468.23 338.188M468.23 338.188H468.23H468.228H468.227H468.225H468.224H468.222H468.221H468.219H468.217H468.216H468.214H468.213H468.211H468.21H468.208H468.207H468.205H468.203H468.202H468.2H468.199H468.197H468.196H468.194H468.193H468.191H468.19H468.188H468.186H468.185H468.183H468.182H468.18H468.179H468.177H468.176H468.174H468.173H468.171H468.169H468.168H468.166H468.165H468.163H468.162H468.16H468.159H468.157H468.156H468.154H468.152H468.151H468.149H468.148H468.146H468.145H468.143H468.142H468.14H468.139H468.137H468.135H468.134H468.132H468.131H468.129H468.128H468.126H468.125H468.123H468.122H468.12H468.119H468.117H468.115H468.114H468.112H468.111H468.109H468.108H468.106H468.105H468.103H468.102H468.1H468.099H468.097H468.095H468.094H468.092H468.091H468.089H468.088H468.086H468.085H468.083H468.082H468.08H468.079H468.077H468.075H468.074H468.072H468.071H468.069H468.068H468.066H468.065H468.063H468.062H468.06H468.059H468.057H468.055H468.054H468.052H468.051H468.049H468.048H468.046H468.045H468.043H468.042H468.04H468.039H468.037H468.036H468.034H468.032H468.031H468.029H468.028H468.026H468.025H468.023H468.022H468.02H468.019H468.017H468.016H468.014H468.012H468.011H468.009H468.008H468.006H468.005H468.003H468.002H468H467.999H467.997H467.996H467.994H467.993H467.991H467.989H467.988H467.986H467.985H467.983H467.982H467.98H467.979H467.977H467.976H467.974H467.973H467.971H467.97H467.968H467.966H467.965H467.963H467.962H467.96H467.959H467.957H467.956H467.954H467.953H467.951H467.95H467.948H467.946H467.945H467.943H467.942H467.94H467.939H467.937H467.936H467.934H467.933H467.931H467.93H467.928H467.927H467.925H467.923H467.922H467.92H467.919H467.917H467.916H467.914H467.913H467.911H467.91H467.908H467.907H467.905H467.903H467.902H467.9H467.899H467.897H467.896H467.894H467.893H467.891H467.89H467.888H467.887H467.885H467.884H467.882H467.88H467.879H467.877H467.876H467.874H467.873H467.871H467.87H467.868H467.867H467.865H467.864H467.862H467.86H467.859H467.857H467.856H467.854H467.853H467.851H467.85H467.848H467.847H467.845H467.843H467.842H467.84H467.839H467.837H467.836H467.834H467.833H467.831H467.83H467.828H467.827H467.825H467.823H467.822H467.82H467.819H467.817H467.816H467.814H467.813H467.811H467.81H467.808H467.806H467.805H467.803H467.802H467.8H467.799H467.797H467.796H467.794H467.793H467.791H467.789H467.788H467.786H467.785H467.783H467.782H467.78H467.779H467.777H467.776H467.774H467.772H467.771H467.769H467.768H467.766H467.765H467.763H467.762H467.76H467.759H467.757H467.755H467.754H467.752H468.23Z" stroke="#391077" stroke-width="2"/>
<path fill-rule="evenodd" clip-rule="evenodd" d="M489.807 328.409C490.133 328.855 490.036 329.48 489.591 329.807C484.575 333.482 478.903 335.905 472.948 337.738C471.568 338.164 470.189 338.563 468.82 338.96L468.68 339H467.659L467.51 338.952C467.383 338.912 467.274 338.875 467.173 338.841C467.002 338.783 466.856 338.734 466.691 338.688C460.238 337.019 454.018 334.734 448.451 331.08C447.989 330.777 447.861 330.157 448.164 329.695C448.467 329.234 449.087 329.105 449.549 329.408C454.868 332.9 460.862 335.115 467.2 336.754L467.207 336.756L467.215 336.758C467.434 336.818 467.677 336.9 467.883 336.969C467.915 336.98 467.946 336.99 467.976 337H468.396C469.723 336.616 471.041 336.233 472.358 335.827C478.187 334.033 483.634 331.692 488.409 328.193C488.854 327.867 489.48 327.964 489.807 328.409Z" fill="#1BFEC0"/>
<path d="M484.424 294.207C484.424 293.676 484.212 293.146 483.83 292.765L480.946 289.881C480.565 289.499 480.034 289.287 479.504 289.287C478.974 289.287 478.444 289.499 478.062 289.881L464.152 303.813L457.917 297.557C457.536 297.175 457.005 296.963 456.475 296.963C455.945 296.963 455.415 297.175 455.033 297.557L452.149 300.441C451.768 300.823 451.556 301.353 451.556 301.883C451.556 302.413 451.768 302.943 452.149 303.325L462.71 313.885C463.091 314.267 463.621 314.479 464.152 314.479C464.682 314.479 465.212 314.267 465.594 313.885L483.83 295.648C484.212 295.267 484.424 294.737 484.424 294.207Z" fill="white"/>
</svg>
