<svg data-name="light-pattern" xmlns="http://www.w3.org/2000/svg" viewBox="0 0 1400 700"><path fill="transparent" d="M0 0h1400v700H0z"/><g opacity=".15" fill="#935BE7"><path d="M466 234.11H349a.87.87 0 0 1-.88-.87V116.29a.87.87 0 0 1 .88-.88h117a.87.87 0 0 1 .87.88v117a.87.87 0 0 1-.87.82zm-116.08-1.75h115.2v-115.2H349.91zm-176.31 1.75h-58.49a.87.87 0 0 1-.87-.87V116.29a.87.87 0 0 1 .87-.88h58.48a.88.88 0 0 1 .88.88v117a.87.87 0 0 1-.87.82zM116 232.36h56.72v-115.2H116z"/><path d="M115.12 234.11H-1.83a.87.87 0 0 1-.87-.87V116.29a.87.87 0 0 1 .87-.88h117a.87.87 0 0 1 .88.88v117a.87.87 0 0 1-.93.82zM-.95 232.36h115.2v-115.2H-.95zM466 234.11a.88.88 0 0 1-.88-.87V116.29a.88.88 0 0 1 .88-.88h117a.88.88 0 0 1 .88.88A118 118 0 0 1 466 234.11zm.87-117v115.2a116.22 116.22 0 0 0 115.21-115.2zm-234.79 117a.87.87 0 0 1-.87-.87V116.29a.87.87 0 0 1 .87-.88H349a.87.87 0 0 1 .87.88 118 118 0 0 1-117.79 117.82zm.88-117v115.2a116.21 116.21 0 0 0 115.2-115.2z"/><path d="M699.9 234a118 118 0 0 1-117.82-117.79.88.88 0 0 1 .87-.88H699.9a.88.88 0 0 1 .88.88v117a.88.88 0 0 1-.88.79zM583.83 117A116.22 116.22 0 0 0 699 232.29V117.08zM56.65 221.93a47.17 47.17 0 1 1 47.17-47.17 47.24 47.24 0 0 1-47.17 47.17zm0-92.59a45.43 45.43 0 1 0 45.42 45.42 45.51 45.51 0 0 0-45.42-45.42zm175.43 104.77h-117a.87.87 0 0 1-.87-.87V116.29a.87.87 0 0 1 .87-.88h117a.87.87 0 0 1 .88.88v117a.87.87 0 0 1-.88.82zM116 232.36h115.2v-115.2H116zm350 1.75H349a.87.87 0 0 1-.62-1.49l117-116.95a.86.86 0 0 1 1.23 0 .84.84 0 0 1 .26.63v117a.88.88 0 0 1-.87.88zm-114.84-1.75h114v-114z"/><path d="M817.31 234.11H700.36a.88.88 0 0 1-.88-.87V116.29a.88.88 0 0 1 .88-.88h116.95a.88.88 0 0 1 .88.88v117a.88.88 0 0 1-.88.82zm-116.08-1.75h115.21v-115.2H701.23z"/><path d="M758.83 221.93A47.17 47.17 0 1 1 806 174.76a47.25 47.25 0 0 1-47.17 47.17zm0-92.59a45.43 45.43 0 1 0 45.43 45.42 45.52 45.52 0 0 0-45.43-45.42zM349.4 116.69h-117a.87.87 0 0 1-.87-.87v-117a.87.87 0 0 1 .87-.87h117a.87.87 0 0 1 .87.87v117a.87.87 0 0 1-.87.87zm-116.08-1.75h115.2V-.26h-115.2z"/><path d="M231.57 116.69H114.62a.87.87 0 0 1-.87-.87v-117a.87.87 0 0 1 .87-.87h117a.87.87 0 0 1 .87.87v117a.87.87 0 0 1-.92.87zm-116.08-1.75h115.2V-.26H115.5zm350.89 1.75h-117a.87.87 0 0 1-.88-.87A118 118 0 0 1 466.38-2a.87.87 0 0 1 .87.87v117a.87.87 0 0 1-.87.82zm-116.08-1.75h115.2V-.26a116.22 116.22 0 0 0-115.23 115.2z"/><path d="M115.5 116.77h-117a.87.87 0 0 1-.87-.88V-1.06a.87.87 0 0 1 .87-.87 118 118 0 0 1 117.88 117.82.88.88 0 0 1-.88.88zM-.58 115h115.2A116.24 116.24 0 0 0-.6-.18zm291.01-10.49a47.17 47.17 0 1 1 47.17-47.17 47.17 47.17 0 0 1-47.17 47.17zm0-92.59a45.42 45.42 0 1 0 45.42 45.42 45.49 45.49 0 0 0-45.42-45.42z"/><path d="M115.1 116.69a.87.87 0 0 1-.88-.87v-117a.87.87 0 0 1 .88-.82h117a.88.88 0 0 1 .81.54.88.88 0 0 1-.2 1l-116.95 117a.86.86 0 0 1-.66.15zM116-.26v114l114-114zm934 234.76H933a.87.87 0 0 1-.88-.88v-117a.87.87 0 0 1 .88-.87h117a.88.88 0 0 1 .88.87v117a.88.88 0 0 1-.88.88zm-116.08-1.75h115.2V117.54h-115.2z"/><path d="M933.92 234.57H817a.87.87 0 0 1-.87-.88V116.74a.87.87 0 0 1 .87-.87A118 118 0 0 1 934.79 233.7a.88.88 0 0 1-.87.87zm-116.08-1.75h115.21a116.22 116.22 0 0 0-115.21-115.2z"/><path d="M933.53 234.5a.88.88 0 0 1-.88-.88v-117a.88.88 0 0 1 .88-.87h117a.88.88 0 0 1 .88.87.89.89 0 0 1-.26.63l-116.95 117a.9.9 0 0 1-.67.25zm.87-116.95v114l114-114zm-585 233.51h-117a.87.87 0 0 1-.87-.88v-117a.87.87 0 0 1 .87-.87h117a.87.87 0 0 1 .87.87v117a.87.87 0 0 1-.87.88zm-116.08-1.75h115.2v-115.2h-115.2z"/><path d="M231.57 351.06H114.62a.87.87 0 0 1-.87-.88v-117a.87.87 0 0 1 .87-.87h117a.87.87 0 0 1 .87.87v117a.87.87 0 0 1-.92.88zm-116.08-1.75h115.2v-115.2H115.5zm350.89 1.75h-117a.87.87 0 0 1-.88-.88 118 118 0 0 1 117.85-117.82.87.87 0 0 1 .87.87v117a.87.87 0 0 1-.84.83zm-116.08-1.75h115.2v-115.2a116.23 116.23 0 0 0-115.23 115.2z"/><path d="M115.5 351.14h-117a.87.87 0 0 1-.87-.88V233.31a.87.87 0 0 1 .87-.87 118 118 0 0 1 117.88 117.82.88.88 0 0 1-.88.88zM-.58 349.39h115.2A116.22 116.22 0 0 0-.58 234.18zm291.01-10.51a47.17 47.17 0 1 1 47.17-47.17 47.17 47.17 0 0 1-47.17 47.17zm0-92.59a45.42 45.42 0 1 0 45.42 45.42 45.41 45.41 0 0 0-45.42-45.42z"/><path d="M115.1 351.06a.87.87 0 0 1-.88-.88v-117a.87.87 0 0 1 .88-.87h117a.87.87 0 0 1 .88.87.85.85 0 0 1-.26.62l-117 117a.86.86 0 0 1-.62.26zm.9-116.95v114l114-114zm817.62 116.77h-117a.88.88 0 0 1-.87-.88V233a.87.87 0 0 1 .87-.87h117a.87.87 0 0 1 .88.87v117a.88.88 0 0 1-.88.88zm-116.07-1.76h115.2V233.91H817.54zm-176.31 1.76h-58.49a.88.88 0 0 1-.87-.88V233a.87.87 0 0 1 .87-.87h58.48a.87.87 0 0 1 .87.87v117a.88.88 0 0 1-.86.88zm-57.62-1.76h56.73V233.91h-56.73z"/><path d="M582.75 350.88H465.8a.88.88 0 0 1-.88-.88V233a.87.87 0 0 1 .88-.87h117a.87.87 0 0 1 .87.87v117a.88.88 0 0 1-.92.88zm-116.08-1.76h115.21V233.91H466.67zm466.95 1.76a.88.88 0 0 1-.87-.88V233a.87.87 0 0 1 .87-.87h117a.87.87 0 0 1 .87.87 118 118 0 0 1-117.87 117.88zm.88-117v115.2a116.21 116.21 0 0 0 115.2-115.2zm-234.79 117a.88.88 0 0 1-.87-.88V233a.87.87 0 0 1 .87-.87h116.95a.87.87 0 0 1 .88.87 118 118 0 0 1-117.83 117.88zm.88-117v115.2a116.21 116.21 0 0 0 115.2-115.2z"/><path d="M1167.53 350.79A118 118 0 0 1 1049.7 233a.88.88 0 0 1 .88-.88h117a.88.88 0 0 1 .87.88v117a.87.87 0 0 1-.92.79zm-116.08-117A116.24 116.24 0 0 0 1166.66 349V233.83zM524.27 338.68a47.18 47.18 0 1 1 47.17-47.17 47.25 47.25 0 0 1-47.17 47.17zm0-92.6a45.43 45.43 0 1 0 45.42 45.43 45.5 45.5 0 0 0-45.42-45.42zm175.44 104.8h-117a.88.88 0 0 1-.87-.88V233a.87.87 0 0 1 .87-.87h117a.88.88 0 0 1 .88.87v117a.89.89 0 0 1-.88.88zm-116.09-1.76h115.22V233.91H583.62zm350 1.76h-117a.89.89 0 0 1-.88-.87.9.9 0 0 1 .26-.63l117-116.95a.86.86 0 0 1 1.23 0 .88.88 0 0 1 .26.63V350a.89.89 0 0 1-.87.88zm-114.84-1.76h114v-114zm115.29-231.47h-117a.88.88 0 0 1-.88-.87V-.18a.88.88 0 0 1 .88-.87h117a.88.88 0 0 1 .88.87v117a.88.88 0 0 1-.88.83zM818 115.9h115.2V.7H818z"/><path d="M817.12 117.65h-117a.87.87 0 0 1-.88-.87A118 118 0 0 1 817.12-1a.87.87 0 0 1 .87.87v117a.87.87 0 0 1-.87.78zM701 115.9h115.2V.7A116.22 116.22 0 0 0 701 115.9zm350 1.75H934.07a.87.87 0 0 1-.87-.87A118 118 0 0 1 1051-1a.87.87 0 0 1 .88.88v117a.87.87 0 0 1-.88.77zm-116-1.75h115.2V.7A116.22 116.22 0 0 0 935 115.9z"/><path d="M700.16 117.73H583.21a.87.87 0 0 1-.88-.87V-.1a.87.87 0 0 1 .88-.87A118 118 0 0 1 701 116.86a.87.87 0 0 1-.87.87zM584.08 116h115.2A116.21 116.21 0 0 0 584.08.78zm233.04 1.65a.88.88 0 0 1-.88-.87V-.18a.88.88 0 0 1 .88-.87h117a.9.9 0 0 1 .81.54.88.88 0 0 1-.2 1l-116.95 117a.86.86 0 0 1-.66.16zM818 .7v113.92L932 .7z"/><path d="M582.75 117.65H465.8a.87.87 0 0 1-.88-.87V-.18a.87.87 0 0 1 .88-.82h117a.87.87 0 0 1 .87.87v117a.87.87 0 0 1-.92.78zm-116.08-1.75h115.21V.7H466.67z"/><path d="M524.27 105.47a47.17 47.17 0 1 1 47.17-47.17 47.24 47.24 0 0 1-47.17 47.17zm0-92.59a45.42 45.42 0 1 0 45.42 45.42 45.49 45.49 0 0 0-45.42-45.42zm409.35 571.71H816.68a.87.87 0 0 1-.87-.88v-117a.87.87 0 0 1 .87-.87h116.94a.87.87 0 0 1 .88.87v117a.87.87 0 0 1-.88.88zm-116.07-1.75h115.2v-115.2H817.56z"/><path d="M816.68 584.59h-117a.88.88 0 0 1-.88-.88 118 118 0 0 1 117.87-117.83.88.88 0 0 1 .88.88v117a.89.89 0 0 1-.87.83zm-116.08-1.75h115.21v-115.2a116.24 116.24 0 0 0-115.21 115.2zm349.99 1.75h-117a.87.87 0 0 1-.87-.88 118 118 0 0 1 117.83-117.83.88.88 0 0 1 .87.88v117a.88.88 0 0 1-.83.83zm-116.08-1.75h115.2v-115.2a116.24 116.24 0 0 0-115.21 115.2z"/><path d="M699.72 584.67h-117a.88.88 0 0 1-.87-.88V466.84a.88.88 0 0 1 .87-.88 118 118 0 0 1 117.86 117.83.88.88 0 0 1-.86.88zm-116.08-1.75h115.2a116.22 116.22 0 0 0-115.2-115.21zm583.91 1.67h-117a.87.87 0 0 1-.88-.88v-117a.87.87 0 0 1 .88-.87h117a.87.87 0 0 1 .87.87v117a.88.88 0 0 1-.87.88zm-116.08-1.75h115.2v-115.2h-115.21zm-234.79 1.75a.87.87 0 0 1-.87-.88v-117a.87.87 0 0 1 .87-.87h116.94a.87.87 0 0 1 .89.86.9.9 0 0 1-.26.63l-117 117a.83.83 0 0 1-.57.26zm.88-117v114l114-114z"/><path d="M582.31 584.59H465.36a.87.87 0 0 1-.87-.88v-117a.87.87 0 0 1 .87-.87h116.95a.87.87 0 0 1 .88.87v117a.87.87 0 0 1-.88.88zm-116.08-1.75h115.21v-115.2h-115.2z"/><path d="M523.84 572.41A47.18 47.18 0 1 1 571 525.24a47.26 47.26 0 0 1-47.16 47.17zm0-92.6a45.43 45.43 0 1 0 45.42 45.43 45.52 45.52 0 0 0-45.42-45.43zM1050.24 702h-117a.87.87 0 0 1-.87-.87V584.19a.87.87 0 0 1 .87-.88h117a.87.87 0 0 1 .87.88v116.95a.86.86 0 0 1-.87.86zm-116.08-1.75h115.2V585.06H934.15z"/><path d="M816.32 702a.87.87 0 0 1-.87-.87V584.19a.87.87 0 0 1 .87-.88h116.95a.87.87 0 0 1 .88.88A118 118 0 0 1 816.32 702zm.88-117v115.2A116.22 116.22 0 0 0 932.4 585zm175.05 104.83a47.17 47.17 0 1 1 47.17-47.17 47.17 47.17 0 0 1-47.17 47.17zm0-92.59a45.42 45.42 0 1 0 45.42 45.42 45.42 45.42 0 0 0-45.42-45.42zM231.8 584.21h-117a.87.87 0 0 1-.87-.87v-117a.87.87 0 0 1 .87-.87h117a.87.87 0 0 1 .87.87v117a.87.87 0 0 1-.87.87zm-116.08-1.75h115.2V467.25h-115.2z"/><path d="M349.62 584.21h-117a.87.87 0 0 1-.87-.87v-117a.87.87 0 0 1 .87-.87h117a.87.87 0 0 1 .88.87v117a.87.87 0 0 1-.88.87zm-116.07-1.75h115.2V467.25h-115.2zm-235.67 1.75a.87.87 0 0 1-.87-.87v-117a.87.87 0 0 1 .87-.87h117a.87.87 0 0 1 .88.87A118 118 0 0 1-2.12 584.21zm.88-117v115.2A116.22 116.22 0 0 0 114 467.26z"/><path d="M465.71 584.13a118 118 0 0 1-117.83-117.82.87.87 0 0 1 .88-.88h117a.87.87 0 0 1 .87.88v117a.87.87 0 0 1-.92.82zM349.63 467.18a116.22 116.22 0 0 0 115.2 115.2v-115.2zM173.8 572a47.17 47.17 0 1 1 47.2-47.14A47.24 47.24 0 0 1 173.8 572zm0-92.59a45.42 45.42 0 1 0 45.42 45.42 45.49 45.49 0 0 0-45.42-45.39z"/><path d="M349.12 584.21H232.18a.88.88 0 0 1-.88-.87.89.89 0 0 1 .26-.63l117-117a.88.88 0 0 1 1.24 0 .91.91 0 0 1 .24.58v117a.87.87 0 0 1-.92.92zm-114.84-1.75h114v-114zm815.96-114.82h-117a.87.87 0 0 1-.87-.87V349.82a.87.87 0 0 1 .87-.88h117a.87.87 0 0 1 .87.88v117a.86.86 0 0 1-.87.82zm-116.08-1.75h115.2v-115.2H934.15z"/><path d="M816.32 467.64a.87.87 0 0 1-.87-.87V349.82a.87.87 0 0 1 .87-.88h116.95a.87.87 0 0 1 .88.88 118 118 0 0 1-117.83 117.82zm.88-116.95v115.2a116.21 116.21 0 0 0 115.2-115.2zm175.05 104.77a47.17 47.17 0 1 1 47.17-47.17 47.17 47.17 0 0 1-47.17 47.17zm0-92.59a45.42 45.42 0 1 0 45.42 45.42 45.42 45.42 0 0 0-45.42-45.42zm175.32 104.77h-117a.87.87 0 0 1-.88-.87.85.85 0 0 1 .26-.62l117-117a.88.88 0 0 1 1.5.63v117a.87.87 0 0 1-.88.86zm-114.84-1.75h114v-114zM466 467.84H349.06a.87.87 0 0 1-.88-.87V350a.88.88 0 0 1 .88-.88H466a.88.88 0 0 1 .87.88v117a.87.87 0 0 1-.87.84zm-116.08-1.75h115.2V350.88H349.93zm350 1.75h-58.48a.87.87 0 0 1-.88-.87V350a.88.88 0 0 1 .88-.88h58.47a.88.88 0 0 1 .88.88v117a.87.87 0 0 1-.87.84zm-57.6-1.75h56.73V350.88h-56.74z"/><path d="M816.87 467.84h-117a.87.87 0 0 1-.87-.87V350a.88.88 0 0 1 .87-.88h117a.88.88 0 0 1 .88.88v117a.87.87 0 0 1-.88.84zm-116.07-1.75H816V350.88H700.8zm-351.74 1.75h-117a.87.87 0 0 1-.87-.87 118 118 0 0 1 117.86-117.83.87.87 0 0 1 .87.88V467a.87.87 0 0 1-.86.84zM233 466.09h115.2V350.88A116.22 116.22 0 0 0 233 466.09zm350 1.75H466a.87.87 0 0 1-.88-.87A118 118 0 0 1 583 349.12a.88.88 0 0 1 .87.88v117a.87.87 0 0 1-.87.84zm-116.08-1.75h115.2V350.88a116.24 116.24 0 0 0-115.2 115.21z"/><path d="M232.09 467.92H115.14a.88.88 0 0 1-.87-.88v-117a.87.87 0 0 1 .87-.88A118 118 0 0 1 233 467a.88.88 0 0 1-.91.92zM116 466.17h115.2A116.23 116.23 0 0 0 116 351zm642.4-10.51a47.18 47.18 0 1 1 47.17-47.18 47.26 47.26 0 0 1-47.17 47.18zm0-92.6a45.43 45.43 0 1 0 45.42 45.43 45.51 45.51 0 0 0-45.42-45.41zm-58.48 104.78H583a.88.88 0 0 1-.88-.87V350a.89.89 0 0 1 .88-.88h117a.89.89 0 0 1 .88.88v117a.88.88 0 0 1-.96.84zm-116.08-1.75h115.21V350.88H583.83zm-234.78 1.75a.87.87 0 0 1-.88-.87V350a.88.88 0 0 1 .88-.88H466a.89.89 0 0 1 .88.87.86.86 0 0 1-.26.63l-117 117a.83.83 0 0 1-.56.22zm.87-116.95v114l114-114z"/><path d="M114.69 467.84h-117a.87.87 0 0 1-.87-.87V350a.88.88 0 0 1 .87-.88h117a.88.88 0 0 1 .87.88v117a.87.87 0 0 1-.87.84zm-116.08-1.75h115.2V350.88H-1.39z"/><path d="M56.21 455.66a47.18 47.18 0 1 1 47.17-47.18 47.26 47.26 0 0 1-47.17 47.18zm0-92.6a45.43 45.43 0 1 0 45.42 45.42 45.51 45.51 0 0 0-45.42-45.41zm409.34 337.99H348.6a.88.88 0 0 1-.88-.87v-117a.88.88 0 0 1 .88-.87h117a.87.87 0 0 1 .88.87v117a.87.87 0 0 1-.93.87zm-116.08-1.75h115.21V584.1H349.47zm-176.3 1.75h-58.48a.87.87 0 0 1-.88-.87v-117a.87.87 0 0 1 .88-.87h58.47a.87.87 0 0 1 .88.87v117a.88.88 0 0 1-.87.87zm-57.6-1.75h56.73V584.1h-56.74z"/><path d="M114.69 701.05h-117a.87.87 0 0 1-.87-.87v-117a.87.87 0 0 1 .87-.87h117a.87.87 0 0 1 .87.87v117a.87.87 0 0 1-.87.87zM-1.39 699.3h115.2V584.1H-1.39zm466.94 1.75a.87.87 0 0 1-.87-.87v-117a.87.87 0 0 1 .87-.87h117a.87.87 0 0 1 .88.87 118 118 0 0 1-117.88 117.87zm.88-116.95v115.2a116.22 116.22 0 0 0 115.2-115.2zM231.65 701.05a.87.87 0 0 1-.88-.87v-117a.87.87 0 0 1 .88-.87h117a.87.87 0 0 1 .87.87 118 118 0 0 1-117.87 117.87zm.87-116.95v115.2a116.21 116.21 0 0 0 115.2-115.2z"/><path d="M699.47 701a118 118 0 0 1-117.83-117.86.87.87 0 0 1 .87-.87h117a.87.87 0 0 1 .87.87v117a.87.87 0 0 1-.91.86zM583.39 584a116.22 116.22 0 0 0 115.2 115.2V584zM56.21 688.87a47.17 47.17 0 1 1 47.17-47.17 47.25 47.25 0 0 1-47.17 47.17zm0-92.59a45.42 45.42 0 1 0 45.42 45.42 45.49 45.49 0 0 0-45.42-45.42zm175.44 104.77h-117a.87.87 0 0 1-.88-.87v-117a.87.87 0 0 1 .88-.87h117a.87.87 0 0 1 .87.87v117a.87.87 0 0 1-.87.87zm-116.08-1.75h115.2V584.1H115.56zm349.98 1.75H348.6a.88.88 0 0 1-.88-.87.89.89 0 0 1 .26-.63l117-116.95a.88.88 0 0 1 1.24 0 .9.9 0 0 1 .26.62v117a.88.88 0 0 1-.88.87zm-114.84-1.75h114V585.37z"/><path d="M816.87 701.05h-117a.87.87 0 0 1-.87-.87v-117a.87.87 0 0 1 .87-.87h117a.87.87 0 0 1 .88.87v117a.87.87 0 0 1-.88.87zM700.8 699.3H816V584.1H700.8z"/><path d="M758.4 688.87a47.17 47.17 0 1 1 47.17-47.17 47.25 47.25 0 0 1-47.17 47.17zm0-92.59a45.42 45.42 0 1 0 45.42 45.42 45.5 45.5 0 0 0-45.42-45.42zM1284 234.11h117a.87.87 0 0 0 .87-.87V116.29a.87.87 0 0 0-.87-.88h-117a.87.87 0 0 0-.88.88v117a.87.87 0 0 0 .88.82zm116-1.75h-115.2v-115.2H1400z"/><path d="M1284 234.11a.87.87 0 0 0 .87-.87V116.29a.87.87 0 0 0-.87-.88h-117a.87.87 0 0 0-.88.88A118 118 0 0 0 1284 234.11zm-.88-117v115.2a116.21 116.21 0 0 1-115.2-115.2z"/><path d="M1050 234a118 118 0 0 0 117.83-117.83.88.88 0 0 0-.87-.88H1050a.88.88 0 0 0-.87.88v117a.88.88 0 0 0 .87.83zm116.08-117a116.23 116.23 0 0 1-115.2 115.21V117.08zM1284 234.11h117a.87.87 0 0 0 .62-1.49l-117-116.95a.88.88 0 0 0-1.5.62v117a.88.88 0 0 0 .88.88zm114.84-1.75h-114v-114z"/><path d="M1283.56 116.69h117a.88.88 0 0 0 .88-.87A118 118 0 0 0 1283.56-2a.87.87 0 0 0-.87.87v117a.87.87 0 0 0 .87.82zm116.08-1.75h-115.2V-.26a116.23 116.23 0 0 1 115.23 115.2zm-116.08 236.12h117a.88.88 0 0 0 .88-.88 118 118 0 0 0-117.83-117.82.87.87 0 0 0-.88.87v117a.88.88 0 0 0 .83.83zm116.08-1.75h-115.2v-115.2a116.24 116.24 0 0 1 115.23 115.2z"/><path d="M1167.19 350.88h117a.88.88 0 0 0 .87-.88V233a.87.87 0 0 0-.87-.87h-117a.87.87 0 0 0-.88.87v117a.88.88 0 0 0 .88.88zm116.07-1.76h-115.2V233.91h115.2z"/><path d="M1225.66 338.68a47.18 47.18 0 1 0-47.17-47.17 47.26 47.26 0 0 0 47.17 47.17zm0-92.6a45.43 45.43 0 1 1-45.42 45.43 45.51 45.51 0 0 1 45.42-45.42zm-175.43 104.8h117a.88.88 0 0 0 .87-.88V233a.87.87 0 0 0-.87-.87h-117a.87.87 0 0 0-.88.87v117a.88.88 0 0 0 .88.88zm116.08-1.76H1051.1V233.91h115.21zm-116.53-231.39h117a.88.88 0 0 0 .88-.87V-.1a.88.88 0 0 0-.88-.87 118 118 0 0 0-117.88 117.83.88.88 0 0 0 .88.87zm116.08-1.73h-115.21A116.23 116.23 0 0 1 1165.86.78z"/><path d="M1167.19 117.65h117a.87.87 0 0 0 .87-.87V-.18a.87.87 0 0 0-.87-.87h-117a.87.87 0 0 0-.88.87v117a.87.87 0 0 0 .88.83zm116.07-1.75h-115.2V.7h115.2z"/><path d="M1225.66 105.47a47.17 47.17 0 1 0-47.17-47.17 47.24 47.24 0 0 0 47.17 47.17zm0-92.59a45.42 45.42 0 1 1-45.42 45.42 45.5 45.5 0 0 1 45.42-45.42zm-175.44 571.79h117a.88.88 0 0 0 .87-.88V466.84a.88.88 0 0 0-.87-.88 118 118 0 0 0-117.83 117.83.88.88 0 0 0 .83.88zm116.07-1.75h-115.2a116.23 116.23 0 0 1 115.2-115.21z"/><path d="M1167.62 584.59h117a.87.87 0 0 0 .87-.88v-117a.87.87 0 0 0-.87-.87h-117a.87.87 0 0 0-.87.87v117a.87.87 0 0 0 .87.88zm116.08-1.75h-115.2v-115.2h115.2z"/><path d="M1226.1 572.41a47.18 47.18 0 1 0-47.17-47.17 47.26 47.26 0 0 0 47.17 47.17zm0-92.6a45.43 45.43 0 1 1-45.42 45.43 45.51 45.51 0 0 1 45.42-45.43zm58.13 104.32a118 118 0 0 0 117.82-117.82.87.87 0 0 0-.87-.88h-117a.87.87 0 0 0-.88.88v117a.87.87 0 0 0 .93.82zm116.07-116.95a116.21 116.21 0 0 1-115.2 115.2v-115.2z"/><path d="M1283.93 467.84h117a.88.88 0 0 0 .88-.87V350a.89.89 0 0 0-.88-.88h-117a.89.89 0 0 0-.88.88v117a.88.88 0 0 0 .88.84zm116.07-1.75h-115.2V350.88H1400z"/><path d="M1167 467.84h117a.87.87 0 0 0 .87-.87A118 118 0 0 0 1167 349.12a.88.88 0 0 0-.88.88v117a.87.87 0 0 0 .88.84zm116.07-1.75h-115.2V350.88a116.23 116.23 0 0 1 115.2 115.21z"/><path d="M1050 467.84h117a.87.87 0 0 0 .87-.87V350a.88.88 0 0 0-.87-.88h-117a.88.88 0 0 0-.88.88v117a.87.87 0 0 0 .88.84zm116.07-1.75h-115.2V350.88h115.23zm234.81 1.75a.88.88 0 0 0 .88-.87V350a.89.89 0 0 0-.88-.88h-117a.88.88 0 0 0-.88.87.86.86 0 0 0 .26.63l117 117a.83.83 0 0 0 .62.22zm-.88-116.95v114l-114-114zm-115.62 350.16h117a.87.87 0 0 0 .87-.87v-117a.87.87 0 0 0-.87-.87h-117a.87.87 0 0 0-.87.87v117a.87.87 0 0 0 .87.87zm116.08-1.75h-115.2V584.1h115.2z"/><path d="M1284.38 701.05a.87.87 0 0 0 .88-.87v-117a.87.87 0 0 0-.88-.87h-117a.87.87 0 0 0-.87.87 118 118 0 0 0 117.87 117.87zm-.87-116.95v115.2a116.21 116.21 0 0 1-115.2-115.2z"/><path d="M1050.47 701a118 118 0 0 0 117.83-117.86.87.87 0 0 0-.88-.87h-117a.88.88 0 0 0-.88.87v117a.88.88 0 0 0 .93.86zm116.08-117a116.22 116.22 0 0 1-115.21 115.2V584zm117.83 117.05h117a.89.89 0 0 0 .88-.87.94.94 0 0 0-.26-.63L1285 582.6a.88.88 0 0 0-1.24 0 .85.85 0 0 0-.26.62v117a.87.87 0 0 0 .87.87zm114.85-1.75h-114V585.37z"/></g></svg>