<svg width="269" height="54" viewBox="0 0 269 54" fill="none" xmlns="http://www.w3.org/2000/svg">
<path d="M80.55 44.15H76.3C75.6 44.15 75.25 43.8 75.25 43.1V13.05C75.25 12.35 75.6 12 76.3 12H88.5C91.1 12 93.1167 12.7167 94.55 14.15C95.9833 15.55 96.7 17.55 96.7 20.15V24.95C96.7 27.55 95.9833 29.5667 94.55 31C93.1167 32.4 91.1 33.1 88.5 33.1H82.2C81.8 33.1 81.6 33.2833 81.6 33.65V43.1C81.6 43.8 81.25 44.15 80.55 44.15ZM82.15 27.55H87.45C88.5167 27.55 89.2667 27.3333 89.7 26.9C90.1333 26.4333 90.35 25.6833 90.35 24.65V20.45C90.35 19.3833 90.1333 18.6333 89.7 18.2C89.2667 17.7333 88.5167 17.5 87.45 17.5H82.15C81.7833 17.5 81.6 17.6833 81.6 18.05V27C81.6 27.3667 81.7833 27.55 82.15 27.55Z" fill="black"/>
<path d="M106.564 44.15H102.314C101.614 44.15 101.264 43.8 101.264 43.1V19.7C101.264 19 101.614 18.65 102.314 18.65H106.564C107.264 18.65 107.614 19 107.614 19.7V21.4H107.814C108.18 20.5 108.83 19.8167 109.764 19.35C110.697 18.8833 111.68 18.65 112.714 18.65H114.514C115.18 18.65 115.514 19 115.514 19.7V23.15C115.514 23.55 115.43 23.8333 115.264 24C115.13 24.1333 114.88 24.1833 114.514 24.15H111.064C108.764 24.15 107.614 25.45 107.614 28.05V43.1C107.614 43.8 107.264 44.15 106.564 44.15Z" fill="black"/>
<path d="M130.895 44.15H126.445C123.812 44.15 121.779 43.45 120.345 42.05C118.912 40.65 118.195 38.6333 118.195 36V26.8C118.195 24.1667 118.912 22.15 120.345 20.75C121.779 19.35 123.812 18.65 126.445 18.65H130.895C133.495 18.65 135.512 19.3667 136.945 20.8C138.412 22.2 139.145 24.2 139.145 26.8V36C139.145 38.6 138.412 40.6167 136.945 42.05C135.512 43.45 133.495 44.15 130.895 44.15ZM127.395 38.7H129.945C131.012 38.7 131.762 38.4833 132.195 38.05C132.662 37.6167 132.895 36.8667 132.895 35.8V27C132.895 25.9333 132.662 25.1833 132.195 24.75C131.762 24.3167 131.012 24.1 129.945 24.1H127.395C126.329 24.1 125.579 24.3167 125.145 24.75C124.712 25.1833 124.495 25.9333 124.495 27V35.8C124.495 36.8667 124.712 37.6167 125.145 38.05C125.579 38.4833 126.329 38.7 127.395 38.7Z" fill="black"/>
<path d="M153.485 44.15H151.435C148.868 44.15 146.918 43.45 145.585 42.05C144.285 40.65 143.635 38.6333 143.635 36V26.8C143.635 24.1667 144.285 22.15 145.585 20.75C146.918 19.35 148.868 18.65 151.435 18.65H153.485C154.518 18.65 155.501 18.8833 156.435 19.35C157.368 19.7833 158.018 20.45 158.385 21.35H158.585V10.05C158.585 9.35 158.935 9 159.635 9H163.885C164.585 9 164.935 9.35 164.935 10.05V43.1C164.935 43.8 164.585 44.15 163.885 44.15H159.635C158.935 44.15 158.585 43.8 158.585 43.1V41.45H158.385C158.018 42.35 157.368 43.0333 156.435 43.5C155.501 43.9333 154.518 44.15 153.485 44.15ZM158.585 34.85V27.95C158.585 25.4167 157.435 24.15 155.135 24.15H152.885C151.818 24.15 151.068 24.3833 150.635 24.85C150.201 25.2833 149.985 26.0333 149.985 27.1V35.7C149.985 36.7667 150.201 37.5333 150.635 38C151.068 38.4333 151.818 38.65 152.885 38.65H155.135C157.435 38.65 158.585 37.3833 158.585 34.85Z" fill="black"/>
<path d="M179.653 44.15H178.003C175.436 44.15 173.486 43.45 172.153 42.05C170.853 40.65 170.203 38.6333 170.203 36V19.7C170.203 19 170.553 18.65 171.253 18.65H175.503C176.203 18.65 176.553 19 176.553 19.7V35.7C176.553 36.7667 176.77 37.5333 177.203 38C177.67 38.4333 178.42 38.65 179.453 38.65H181.303C183.603 38.65 184.753 37.3833 184.753 34.85V19.7C184.753 19 185.103 18.65 185.803 18.65H190.003C190.736 18.65 191.103 19 191.103 19.7V43.1C191.103 43.8 190.736 44.15 190.003 44.15H185.803C185.103 44.15 184.753 43.8 184.753 43.1V41.45H184.553C184.186 42.35 183.536 43.0333 182.603 43.5C181.67 43.9333 180.686 44.15 179.653 44.15Z" fill="black"/>
<path d="M212.875 39.7V43.15C212.875 43.5167 212.792 43.7833 212.625 43.95C212.492 44.0833 212.225 44.15 211.825 44.15H204.375C201.742 44.15 199.708 43.45 198.275 42.05C196.842 40.65 196.125 38.6333 196.125 36V26.8C196.125 24.1667 196.842 22.15 198.275 20.75C199.708 19.35 201.742 18.65 204.375 18.65H211.825C212.525 18.65 212.875 19 212.875 19.7V23.15C212.875 23.5167 212.792 23.7833 212.625 23.95C212.492 24.0833 212.225 24.15 211.825 24.15H205.375C204.342 24.15 203.592 24.3833 203.125 24.85C202.692 25.2833 202.475 26.0333 202.475 27.1V35.7C202.475 36.7667 202.692 37.5333 203.125 38C203.592 38.4333 204.342 38.65 205.375 38.65H211.825C212.525 38.65 212.875 39 212.875 39.7Z" fill="black"/>
<path d="M217.732 24.15H215.732C215.332 24.15 215.048 24.0833 214.882 23.95C214.748 23.8167 214.682 23.55 214.682 23.15V19.7C214.682 19 215.032 18.65 215.732 18.65H217.732C218.098 18.65 218.282 18.4667 218.282 18.1V13.35C218.282 12.65 218.648 12.3 219.382 12.3H223.582C224.282 12.3 224.632 12.65 224.632 13.35V18.1C224.632 18.4667 224.832 18.65 225.232 18.65H229.132C229.832 18.65 230.182 19 230.182 19.7V23.15C230.182 23.5167 230.098 23.7833 229.932 23.95C229.798 24.0833 229.532 24.15 229.132 24.15H225.232C224.832 24.15 224.632 24.3333 224.632 24.7V35.75C224.632 36.7833 224.865 37.5333 225.332 38C225.798 38.4333 226.565 38.65 227.632 38.65H229.632C230.332 38.65 230.682 39 230.682 39.7V43.15C230.682 43.5167 230.598 43.7833 230.432 43.95C230.298 44.0833 230.032 44.15 229.632 44.15H226.582C223.948 44.15 221.898 43.45 220.432 42.05C218.998 40.65 218.282 38.65 218.282 36.05V24.7C218.282 24.3333 218.098 24.15 217.732 24.15Z" fill="black"/>
<path d="M253.195 38.85H258.795C259.895 38.85 260.678 38.6333 261.145 38.2C261.645 37.7333 261.895 36.9833 261.895 35.95V33.05C261.895 32.0167 261.645 31.2833 261.145 30.85C260.645 30.4167 259.828 30.2 258.695 30.2H253.195C252.828 30.2 252.645 30.3833 252.645 30.75V38.3C252.645 38.6667 252.828 38.85 253.195 38.85ZM253.195 25.05H258.295C259.362 25.05 260.145 24.8333 260.645 24.4C261.145 23.9333 261.395 23.1833 261.395 22.15V20.2C261.395 19.1667 261.145 18.4333 260.645 18C260.178 17.5333 259.412 17.3 258.345 17.3H253.195C252.828 17.3 252.645 17.4833 252.645 17.85V24.5C252.645 24.8667 252.828 25.05 253.195 25.05ZM246.295 43.1V13.05C246.295 12.35 246.645 12 247.345 12H259.345C261.978 12 264.012 12.7 265.445 14.1C266.878 15.5 267.595 17.5 267.595 20.1V22.15C267.595 24.9833 266.278 26.8167 263.645 27.65C264.978 27.85 266.045 28.4 266.845 29.3C267.645 30.1667 268.045 31.4167 268.045 33.05V36.05C268.045 38.65 267.328 40.65 265.895 42.05C264.462 43.45 262.445 44.15 259.845 44.15H247.345C246.645 44.15 246.295 43.8 246.295 43.1Z" fill="black"/>
<path d="M0 10H23V54H0V10Z" fill="#1DAEFF"/>
<path d="M25 10L42.4051 2.43257C45.0469 1.28397 48 3.22017 48 6.10085V14.4435C48 18.4248 45.6384 22.0268 41.9873 23.6142L25 31V10Z" fill="#1D94DD"/>
<path d="M25 33L42.4051 25.4326C45.0469 24.284 48 26.2202 48 29.1008V37.4435C48 41.4248 45.6384 45.0268 41.9873 46.6142L25 54V33Z" fill="#1D94DD"/>
</svg>
