<svg width="250" height="61" fill="none" xmlns="http://www.w3.org/2000/svg"><g clip-path="url(#clip0)"><path d="M77.35 7.86V4.63h-3v3.23h-1.46V.11h1.51v3.25h3V.11h1.51v7.75h-1.56zm7 0h-1.2l-.11-.38a3.28 3.28 0 01-1.7.52c-1.06 0-1.52-.7-1.52-1.66 0-1.14.51-1.57 1.7-1.57h1.4v-.62c0-.62-.18-.84-1.11-.84a8.46 8.46 0 00-1.61.17L80 2.42a7.89 7.89 0 012-.26c1.83 0 2.37.62 2.37 2l-.02 3.7zm-1.43-2.11h-1.08c-.48 0-.61.13-.61.55 0 .42.13.56.59.56a2.37 2.37 0 001.1-.29v-.82zM87.43 8a7.12 7.12 0 01-2-.32l.2-1.07a6.77 6.77 0 001.73.24c.65 0 .74-.14.74-.56 0-.42-.07-.52-1-.73-1.42-.33-1.59-.68-1.59-1.76s.49-1.65 2.16-1.65a8 8 0 011.75.2l-.14 1.11a10.66 10.66 0 00-1.6-.16c-.63 0-.74.14-.74.48 0 .34 0 .48.82.68 1.63.41 1.78.62 1.78 1.77S89.19 8 87.43 8zm6.68-.11V4c0-.3-.13-.45-.47-.45a4.14 4.14 0 00-1.52.45v3.86h-1.46V0l1.46.22v2.47a5.31 5.31 0 012.13-.54c1 0 1.32.65 1.32 1.65v4.06l-1.46.03zm2.68-6.38V.11h1.46v1.37l-1.46.03zm0 6.38V2.27h1.46v5.59l-1.46.03zm2.62-5.54c0-1.4.85-2.22 2.83-2.22.727 0 1.452.083 2.16.25l-.17 1.25a12.219 12.219 0 00-1.95-.2c-1 0-1.37.34-1.37 1.16V5.5c0 .81.33 1.16 1.37 1.16a12.219 12.219 0 001.95-.2l.17 1.25a9.373 9.373 0 01-2.16.25c-2 0-2.83-.81-2.83-2.22V2.35zM107.63 8c-2 0-2.53-1.06-2.53-2.2V4.36c0-1.15.54-2.2 2.53-2.2 1.99 0 2.53 1.06 2.53 2.2v1.41c.01 1.15-.53 2.23-2.53 2.23zm0-4.63c-.78 0-1.08.33-1.08 1v1.5c0 .63.3 1 1.08 1s1.08-.33 1.08-1V4.31c0-.63-.3-.96-1.08-.96v.02zm6.64.09a11.55 11.55 0 00-1.54.81v3.6h-1.46v-5.6h1.23l.1.62a6.64 6.64 0 011.53-.73l.14 1.3zM120.1 6a1.726 1.726 0 01-1.128 1.914 1.73 1.73 0 01-.792.086 8.36 8.36 0 01-1.55-.16v2.26l-1.46.22v-8h1.16l.14.47a3.15 3.15 0 011.84-.59c1.17 0 1.79.67 1.79 1.94V6zm-3.48.63c.424.092.856.142 1.29.15.53 0 .73-.24.73-.75v-2c0-.46-.18-.71-.72-.71a2.11 2.11 0 00-1.3.51v2.8zM81.78 19.54h-8.89v-5.31H96.7v5.31h-8.9v26.53h-6l-.02-26.53z" fill="#000"/><path d="M102.19 41.77a24.387 24.387 0 007.12-1.1l.91 4.4a24.998 24.998 0 01-8.56 1.48c-7.31 0-9.85-3.39-9.85-9V31.4c0-4.92 2.2-9.08 9.66-9.08s9.13 4.35 9.13 9.37v5h-13v1.2c.05 2.78 1.05 3.88 4.59 3.88zM97.65 32h7.41v-1.18c0-2.2-.67-3.73-3.54-3.73s-3.87 1.53-3.87 3.73V32zM126.19 27.67a45.633 45.633 0 00-6.19 3.39v15h-5.83V22.79h4.92l.38 2.58a26.08 26.08 0 016.12-3.06l.6 5.36zM140.43 27.67a45.615 45.615 0 00-6.17 3.39v15h-5.83V22.79h4.92l.38 2.58a26.1 26.1 0 016.12-3.06l.58 5.36zM159.94 46.07h-4.78l-.43-1.58a12.729 12.729 0 01-6.93 2.06c-4.25 0-6.07-2.92-6.07-6.93 0-4.73 2.06-6.55 6.79-6.55h5.59v-2.44c0-2.58-.72-3.49-4.45-3.49a32.524 32.524 0 00-6.45.72l-.72-4.45a30.374 30.374 0 018-1.1c7.31 0 9.47 2.58 9.47 8.41l-.02 15.35zm-5.83-8.8h-4.3c-1.91 0-2.44.53-2.44 2.29s.53 2.34 2.34 2.34a9.18 9.18 0 004.4-1.2v-3.43zM177.86 17.48a17.1 17.1 0 00-3.35-.38c-2.29 0-2.63 1-2.63 2.77v2.92h5.93l-.33 4.64h-5.59v18.64h-5.83V27.43h-3.73v-4.64h3.73v-3.25c0-4.83 2.25-7.22 7.41-7.22a18.47 18.47 0 015 .67l-.61 4.49zM189.24 46.55c-8 0-10.13-4.4-10.13-9.18v-5.88c0-4.78 2.15-9.18 10.13-9.18s10.13 4.4 10.13 9.18v5.88c.01 4.78-2.15 9.18-10.13 9.18zm0-19.27c-3.11 0-4.3 1.39-4.3 4v6.26c0 2.63 1.2 4 4.3 4 3.1 0 4.3-1.39 4.3-4V31.3c0-2.63-1.19-4.02-4.3-4.02zM214.38 27.67a45.615 45.615 0 00-6.17 3.39v15h-5.83V22.79h4.92l.38 2.58a26.073 26.073 0 016.12-3.06l.58 5.36zM230.4 46.07V29.82c0-1.24-.53-1.86-1.86-1.86a16.077 16.077 0 00-6.07 2v16.11h-5.83V22.79h4.45l.57 2a23.32 23.32 0 019.34-2.48 4.42 4.42 0 014.4 2.49 22.828 22.828 0 019.37-2.49c3.87 0 5.26 2.72 5.26 6.88v16.88h-5.83V29.82c0-1.24-.53-1.86-1.86-1.86a15.43 15.43 0 00-6.07 2v16.11h-5.87z" fill="#000"/><path fill-rule="evenodd" clip-rule="evenodd" d="M18.2 10.72l16.4 9.48v18.93l-16.4-9.47V10.72z" fill="#5C4EE5"/><path fill-rule="evenodd" clip-rule="evenodd" d="M36.4 20.2v18.93l16.4-9.46V10.72L36.4 20.2z" fill="#4040B2"/><path fill-rule="evenodd" clip-rule="evenodd" d="M0 .15v18.94l16.4 9.47V9.62L0 .15zM18.2 50.68l16.4 9.47V41.21l-16.4-9.47v18.94z" fill="#5C4EE5"/></g><defs><clipPath id="clip0"><path fill="#fff" d="M0 0h250v60.15H0z"/></clipPath></defs></svg>