<svg width="180" height="61" fill="none" xmlns="http://www.w3.org/2000/svg"><g clip-path="url(#clip0)"><path d="M61.23 7.86V4.63h-3v3.23h-1.46V.11h1.51v3.25h3V.11h1.51v7.75h-1.56zm7 0h-1.2L67 7.48a3.28 3.28 0 01-1.78.52c-1.06 0-1.52-.7-1.52-1.66 0-1.14.51-1.57 1.7-1.57h1.4v-.62c0-.62-.18-.84-1.11-.84a8.46 8.46 0 00-1.61.17l-.18-1.07a7.89 7.89 0 012-.26c1.83 0 2.37.62 2.37 2l-.04 3.71zM66.8 5.75h-1.08c-.48 0-.61.13-.61.55 0 .42.13.56.59.56a2.37 2.37 0 001.1-.29v-.82zM71.31 8a7.12 7.12 0 01-2-.32l.2-1.07a6.77 6.77 0 001.73.24c.65 0 .74-.14.74-.56 0-.42-.07-.52-1-.73-1.42-.33-1.59-.68-1.59-1.76s.51-1.62 2.18-1.62a8 8 0 011.75.2l-.14 1.11a10.661 10.661 0 00-1.6-.16c-.63 0-.74.14-.74.48 0 .34 0 .48.82.68 1.63.41 1.78.62 1.78 1.77S73.07 8 71.31 8zM78 7.86V4c0-.3-.13-.45-.47-.45A4.14 4.14 0 0076 4v3.86h-1.46V0L76 .22v2.47a5.31 5.31 0 012.13-.54c1 0 1.32.65 1.32 1.65v4.06H78zm2.68-6.38V.11h1.46v1.37h-1.46zm0 6.38V2.27h1.46v5.59h-1.46zm2.62-5.54c0-1.4.85-2.22 2.83-2.22a9.37 9.37 0 012.16.25l-.17 1.25a12.21 12.21 0 00-1.95-.2c-1 0-1.37.34-1.37 1.16V5.5c0 .81.33 1.16 1.37 1.16a12.21 12.21 0 001.95-.2l.17 1.25a9.37 9.37 0 01-2.16.29c-2 0-2.83-.81-2.83-2.22V2.32zM91.51 8C89.52 8 89 6.92 89 5.77V4.36c0-1.15.54-2.2 2.53-2.2 1.99 0 2.47 1.05 2.47 2.2v1.41C94 6.92 93.51 8 91.51 8zm0-4.63c-.78 0-1.08.33-1.08 1v1.5c0 .63.3 1 1.08 1s1.08-.33 1.08-1V4.31c0-.63-.3-.96-1.08-.96v.02zm6.64.09c-.533.231-1.048.502-1.54.81v3.6h-1.46v-5.6h1.23l.1.62c.473-.31.984-.56 1.52-.74l.15 1.31zM104 6a1.726 1.726 0 01-1.128 1.914 1.73 1.73 0 01-.792.086 8.36 8.36 0 01-1.55-.16v2.26l-1.53.21v-8h1.16l.14.47a3.15 3.15 0 011.84-.59c1.17 0 1.79.67 1.79 1.94L104 6zm-3.48.63c.424.092.856.142 1.29.15.53 0 .73-.24.73-.75v-2c0-.46-.18-.71-.72-.71a2.11 2.11 0 00-1.3.51v2.8z" fill="#000"/><path fill-rule="evenodd" clip-rule="evenodd" d="M0 7.34l19.45 11.24v41.43L0 48.77V7.34z" fill="#1DAEFF"/><path d="M29.07 12.19L7.94 0v8.47l14.37 8.3v25.36L29.07 46c4.19 2.42 7.61 1 7.61-3.22V24.19c0-4.19-3.42-9.59-7.61-12z" fill="#1D94DD"/><path d="M56.77 14.1h12.48c7.4 0 10.13 3 10.13 8.65v4.37c0 5.57-3 8.6-10.42 8.6h-6.14v10.37h-6.05V14.1zm12.15 5.33h-6.1v11h6.1c3.41 0 4.42-1.25 4.42-3.89v-3.32c0-2.64-1.11-3.79-4.42-3.79zM99.85 46.09H95l-.43-1.58a12.79 12.79 0 01-7 2.07c-4.27 0-6.1-2.93-6.1-7 0-4.76 2.07-6.58 6.82-6.58H94v-2.43c0-2.59-.72-3.51-4.47-3.51a32.68 32.68 0 00-6.48.72l-.72-4.47a30.52 30.52 0 018-1.1c7.35 0 9.51 2.59 9.51 8.45l.01 15.43zM94 37.25h-4.33c-1.92 0-2.45.53-2.45 2.31s.53 2.35 2.35 2.35a9.22 9.22 0 004.43-1.2v-3.46zM103.35 37.59V31.2c0-6.29 2.74-9 10.09-9 1.938.01 3.865.3 5.72.86l-.72 4.8a21.312 21.312 0 00-4.85-.62c-3.36 0-4.37 1-4.37 3.89v6.48c0 2.88 1 3.89 4.37 3.89a19.795 19.795 0 004.85-.62l.72 4.8a19.295 19.295 0 01-5.72.86c-7.35.03-10.09-2.66-10.09-8.95zM122.85 46.09V13.14l5.86-.82v33.77h-5.86zm19.89-23.39l-6.87 11.58L143 46.09h-6.44l-7.06-11.82 6.68-11.58 6.56.01zM154.94 41.76a24.51 24.51 0 007.16-1.1l.91 4.42a25.11 25.11 0 01-8.6 1.49c-7.35 0-9.89-3.41-9.89-9v-6.2c0-4.95 2.21-9.13 9.7-9.13 7.49 0 9.17 4.37 9.17 9.41v5h-13v1.2c-.02 2.81.99 3.91 4.55 3.91zm-4.56-9.85h7.44v-1.14c0-2.21-.67-3.75-3.55-3.75s-3.89 1.54-3.89 3.75v1.14zM179 27.6a45.893 45.893 0 00-6.2 3.41v15.08H167V22.7h4.95l.38 2.59a26.2 26.2 0 016.15-3.07l.52 5.38z" fill="#000"/></g><defs><clipPath id="clip0"><path fill="#fff" d="M0 0h179.05v60.01H0z"/></clipPath></defs></svg>