<svg width="270" height="44" viewBox="0 0 270 44" fill="none" xmlns="http://www.w3.org/2000/svg">
<path d="M80.55 40H76.3C75.6 40 75.25 39.65 75.25 38.95V8.89997C75.25 8.19997 75.6 7.84998 76.3 7.84998H88.5C91.1 7.84998 93.1167 8.56664 94.55 9.99997C95.9833 11.4 96.7 13.4 96.7 16V20.8C96.7 23.4 95.9833 25.4166 94.55 26.85C93.1167 28.25 91.1 28.95 88.5 28.95H82.2C81.8 28.95 81.6 29.1333 81.6 29.5V38.95C81.6 39.65 81.25 40 80.55 40ZM82.15 23.4H87.45C88.5167 23.4 89.2667 23.1833 89.7 22.75C90.1333 22.2833 90.35 21.5333 90.35 20.5V16.3C90.35 15.2333 90.1333 14.4833 89.7 14.05C89.2667 13.5833 88.5167 13.35 87.45 13.35H82.15C81.7833 13.35 81.6 13.5333 81.6 13.9V22.85C81.6 23.2166 81.7833 23.4 82.15 23.4Z" fill="black"/>
<path d="M106.564 40H102.314C101.614 40 101.264 39.65 101.264 38.95V15.55C101.264 14.85 101.614 14.5 102.314 14.5H106.564C107.264 14.5 107.614 14.85 107.614 15.55V17.25H107.814C108.18 16.35 108.83 15.6666 109.764 15.2C110.697 14.7333 111.68 14.5 112.714 14.5H114.514C115.18 14.5 115.514 14.85 115.514 15.55V19C115.514 19.4 115.43 19.6833 115.264 19.85C115.13 19.9833 114.88 20.0333 114.514 20H111.064C108.764 20 107.614 21.3 107.614 23.9V38.95C107.614 39.65 107.264 40 106.564 40Z" fill="black"/>
<path d="M130.895 40H126.445C123.812 40 121.779 39.3 120.345 37.9C118.912 36.5 118.195 34.4833 118.195 31.85V22.65C118.195 20.0166 118.912 18 120.345 16.6C121.779 15.2 123.812 14.5 126.445 14.5H130.895C133.495 14.5 135.512 15.2166 136.945 16.65C138.412 18.05 139.145 20.05 139.145 22.65V31.85C139.145 34.45 138.412 36.4666 136.945 37.9C135.512 39.3 133.495 40 130.895 40ZM127.395 34.55H129.945C131.012 34.55 131.762 34.3333 132.195 33.9C132.662 33.4666 132.895 32.7166 132.895 31.65V22.85C132.895 21.7833 132.662 21.0333 132.195 20.6C131.762 20.1666 131.012 19.95 129.945 19.95H127.395C126.329 19.95 125.579 20.1666 125.145 20.6C124.712 21.0333 124.495 21.7833 124.495 22.85V31.65C124.495 32.7166 124.712 33.4666 125.145 33.9C125.579 34.3333 126.329 34.55 127.395 34.55Z" fill="black"/>
<path d="M153.485 40H151.435C148.868 40 146.918 39.3 145.585 37.9C144.285 36.5 143.635 34.4833 143.635 31.85V22.65C143.635 20.0166 144.285 18 145.585 16.6C146.918 15.2 148.868 14.5 151.435 14.5H153.485C154.518 14.5 155.501 14.7333 156.435 15.2C157.368 15.6333 158.018 16.3 158.385 17.2H158.585V5.89997C158.585 5.19998 158.935 4.84998 159.635 4.84998H163.885C164.585 4.84998 164.935 5.19998 164.935 5.89997V38.95C164.935 39.65 164.585 40 163.885 40H159.635C158.935 40 158.585 39.65 158.585 38.95V37.3H158.385C158.018 38.2 157.368 38.8833 156.435 39.35C155.501 39.7833 154.518 40 153.485 40ZM158.585 30.7V23.8C158.585 21.2666 157.435 20 155.135 20H152.885C151.818 20 151.068 20.2333 150.635 20.7C150.201 21.1333 149.985 21.8833 149.985 22.95V31.55C149.985 32.6166 150.201 33.3833 150.635 33.85C151.068 34.2833 151.818 34.5 152.885 34.5H155.135C157.435 34.5 158.585 33.2333 158.585 30.7Z" fill="black"/>
<path d="M179.653 40H178.003C175.436 40 173.486 39.3 172.153 37.9C170.853 36.5 170.203 34.4833 170.203 31.85V15.55C170.203 14.85 170.553 14.5 171.253 14.5H175.503C176.203 14.5 176.553 14.85 176.553 15.55V31.55C176.553 32.6166 176.77 33.3833 177.203 33.85C177.67 34.2833 178.42 34.5 179.453 34.5H181.303C183.603 34.5 184.753 33.2333 184.753 30.7V15.55C184.753 14.85 185.103 14.5 185.803 14.5H190.003C190.736 14.5 191.103 14.85 191.103 15.55V38.95C191.103 39.65 190.736 40 190.003 40H185.803C185.103 40 184.753 39.65 184.753 38.95V37.3H184.553C184.186 38.2 183.536 38.8833 182.603 39.35C181.67 39.7833 180.686 40 179.653 40Z" fill="black"/>
<path d="M212.875 35.55V39C212.875 39.3666 212.792 39.6333 212.625 39.8C212.492 39.9333 212.225 40 211.825 40H204.375C201.742 40 199.708 39.3 198.275 37.9C196.842 36.5 196.125 34.4833 196.125 31.85V22.65C196.125 20.0166 196.842 18 198.275 16.6C199.708 15.2 201.742 14.5 204.375 14.5H211.825C212.525 14.5 212.875 14.85 212.875 15.55V19C212.875 19.3666 212.792 19.6333 212.625 19.8C212.492 19.9333 212.225 20 211.825 20H205.375C204.342 20 203.592 20.2333 203.125 20.7C202.692 21.1333 202.475 21.8833 202.475 22.95V31.55C202.475 32.6166 202.692 33.3833 203.125 33.85C203.592 34.2833 204.342 34.5 205.375 34.5H211.825C212.525 34.5 212.875 34.85 212.875 35.55Z" fill="black"/>
<path d="M217.732 20H215.732C215.332 20 215.048 19.9333 214.882 19.8C214.748 19.6666 214.682 19.4 214.682 19V15.55C214.682 14.85 215.032 14.5 215.732 14.5H217.732C218.098 14.5 218.282 14.3166 218.282 13.95V9.19997C218.282 8.49997 218.648 8.14997 219.382 8.14997H223.582C224.282 8.14997 224.632 8.49997 224.632 9.19997V13.95C224.632 14.3166 224.832 14.5 225.232 14.5H229.132C229.832 14.5 230.182 14.85 230.182 15.55V19C230.182 19.3666 230.098 19.6333 229.932 19.8C229.798 19.9333 229.532 20 229.132 20H225.232C224.832 20 224.632 20.1833 224.632 20.55V31.6C224.632 32.6333 224.865 33.3833 225.332 33.85C225.798 34.2833 226.565 34.5 227.632 34.5H229.632C230.332 34.5 230.682 34.85 230.682 35.55V39C230.682 39.3666 230.598 39.6333 230.432 39.8C230.298 39.9333 230.032 40 229.632 40H226.582C223.948 40 221.898 39.3 220.432 37.9C218.998 36.5 218.282 34.5 218.282 31.9V20.55C218.282 20.1833 218.098 20 217.732 20Z" fill="black"/>
<path d="M249.645 40H244.845C244.245 40 244.045 39.65 244.245 38.95L252.145 8.89997C252.378 8.19997 252.878 7.84998 253.645 7.84998H260.295C261.128 7.84998 261.628 8.19997 261.795 8.89997L269.695 38.95C269.895 39.65 269.695 40 269.095 40H264.295C263.928 40 263.678 39.9333 263.545 39.8C263.412 39.6333 263.312 39.35 263.245 38.95L261.845 33.45H252.095L250.695 38.95C250.628 39.35 250.512 39.6333 250.345 39.8C250.212 39.9333 249.978 40 249.645 40ZM256.895 13.9L253.295 28.35H260.695L257.095 13.9H256.895Z" fill="black"/>
<path d="M16 0H39L23 44H0L16 0Z" fill="#5C4EE5"/>
<path d="M29.5 34.3749L33 43.9998H56L41 2.74988L29.5 34.3749Z" fill="#4040B2"/>
</svg>
