<svg width="107" height="40" xmlns="http://www.w3.org/2000/svg"><path d="M40.688 9.063h15.657v3.592L45.663 26.193h11.175V30h-16.67V26.44l10.652-13.57H40.69V9.064zM65.56 14.804c1.207 0 2.272.214 3.193.644.941.41 1.729.973 2.364 1.689a7.023 7.023 0 011.442 2.456c.328.941.492 1.924.492 2.947v.522c0 .184-.02.379-.062.583H62.06c0 .512.102.993.307 1.443.205.45.47.85.798 1.197.348.348.747.625 1.197.83.471.204.973.306 1.505.306.675 0 1.248-.133 1.719-.399a3.83 3.83 0 001.228-1.136h4.022a9.351 9.351 0 01-.952 1.78 6.557 6.557 0 01-1.443 1.474c-.573.43-1.248.768-2.026 1.014-.757.245-1.617.368-2.579.368a8.596 8.596 0 01-3.1-.553 7.812 7.812 0 01-2.487-1.627 8.156 8.156 0 01-1.658-2.517c-.389-.982-.583-2.077-.583-3.285 0-1.044.163-2.036.49-2.978.349-.941.84-1.76 1.474-2.456a7.031 7.031 0 012.364-1.688c.942-.41 2.016-.614 3.224-.614zm-.03 2.885a3.33 3.33 0 00-1.382.277c-.41.163-.758.389-1.044.675a3.596 3.596 0 00-.706 1.013 3.78 3.78 0 00-.307 1.167h6.877a3.654 3.654 0 00-1.075-2.21c-.594-.615-1.382-.922-2.364-.922zM75.038 15.295h4.083v1.842h.123c.511-.819 1.146-1.402 1.903-1.75a5.668 5.668 0 012.456-.553c1.658 0 3.009.563 4.053 1.689 1.043 1.105 1.565 2.783 1.565 5.035V30h-4.144v-8.166c0-1.105-.246-1.934-.737-2.487-.491-.573-1.166-.86-2.026-.86-.921 0-1.678.318-2.272.952-.573.635-.86 1.566-.86 2.794V30h-4.144V15.295zM90.973 22.632c0-1.126.194-2.17.583-3.131.41-.962.962-1.791 1.658-2.487a7.818 7.818 0 012.487-1.627c.962-.389 2.006-.583 3.131-.583 1.167 0 2.231.204 3.193.614a7.058 7.058 0 012.456 1.627 7.387 7.387 0 011.627 2.486c.389.962.583 1.996.583 3.101a8.11 8.11 0 01-.583 3.07 7.813 7.813 0 01-1.627 2.487 7.944 7.944 0 01-2.487 1.719c-.962.41-2.016.614-3.162.614-1.125 0-2.17-.205-3.131-.614a7.783 7.783 0 01-2.487-1.658 8.16 8.16 0 01-1.658-2.517 8.196 8.196 0 01-.583-3.1zm4.175.03c0 .615.092 1.178.276 1.69.185.511.44.951.768 1.32.348.368.737.654 1.167.859.45.205.941.307 1.473.307 1.126 0 2.016-.4 2.671-1.197.655-.798.982-1.791.982-2.978 0-.573-.081-1.105-.245-1.597a3.891 3.891 0 00-.706-1.32 3.245 3.245 0 00-1.167-.92c-.45-.226-.962-.338-1.535-.338-1.166 0-2.077.399-2.732 1.197-.635.778-.952 1.77-.952 2.978z" fill="#1D0A47"/><path fill-rule="evenodd" clip-rule="evenodd" d="M1.158 20.432h19.35l4.704-14.31-20.643.032 3.398 6.714-6.81 7.564z" fill="#6515DD"/><path fill-rule="evenodd" clip-rule="evenodd" d="M32.154 19.568h-19.35L8.1 33.878l20.642-.032-3.398-6.714 6.81-7.564z" fill="#6515DD"/></svg>