<svg width="52" height="51" fill="none" xmlns="http://www.w3.org/2000/svg"><path fill-rule="evenodd" clip-rule="evenodd" d="M26 6.5a1 1 0 011 1v18.333a1 1 0 11-2 0V7.5a1 1 0 011-1z" fill="#391077"/><path fill-rule="evenodd" clip-rule="evenodd" d="M8 30c0-2.412 1.989-4.333 4.4-4.333h27.2c2.411 0 4.4 1.921 4.4 4.333v15a1 1 0 11-2 0V30c0-1.27-1.056-2.333-2.4-2.333H12.4c-1.344 0-2.4 1.063-2.4 2.333v15a1 1 0 11-2 0V30z" fill="#391077"/><rect x="17" width="18" height="18" rx="4" fill="#391077"/><rect y="33" width="18" height="18" rx="4" fill="#6515DD"/><path fill-rule="evenodd" clip-rule="evenodd" d="M5 42a1 1 0 011-1h6a1 1 0 110 2H6a1 1 0 01-1-1z" fill="#1BFEC0"/><rect x="34" y="33" width="18" height="18" rx="4" fill="#6515DD"/><path fill-rule="evenodd" clip-rule="evenodd" d="M39 42a1 1 0 011-1h6a1 1 0 110 2h-6a1 1 0 01-1-1z" fill="#1BFEC0"/></svg>