<svg width="600" height="385" viewBox="0 0 600 385" fill="none" xmlns="http://www.w3.org/2000/svg">
<path d="M584.2 78.6861C584.9 78.6861 585.2 78.5861 585.4 78.6861C589.9 80.9861 589.9 81.6861 585.6 84.6861C583 86.4861 580.6 88.6861 577.8 90.8861C577.2 90.6861 576.2 90.2861 575.1 89.8861C574.8 90.5861 574.7 91.0861 574.5 91.5861C573.8 93.8861 572.7 95.5861 570.3 96.7861C563.8 100.086 557.8 104.086 553 109.586C551.1 111.786 549.7 114.186 549.8 117.186C549.9 118.886 550.3 120.086 552.3 120.186C552.9 120.286 553.9 121.286 553.9 121.786C553.4 128.786 552.5 135.586 549.4 141.986C549.3 142.186 549 142.186 548.6 142.386C548.1 137.786 543.9 139.786 541.7 137.986C540.8 141.886 541.8 143.786 545.9 145.786C547.4 146.486 547.9 147.386 547.8 148.786C547.4 153.586 547.1 158.386 546.6 163.186C546.5 164.486 545.6 165.686 545.1 166.986C544.8 166.886 544.5 166.786 544.2 166.786C544.5 165.186 544.6 163.486 545 161.986C545.3 160.686 545.2 160.086 543.8 159.286C542.5 158.586 541.7 156.986 540.7 155.786C539.9 154.886 539 154.086 538.2 153.186C537.7 152.586 537.3 151.986 536.9 151.286C536.7 150.986 536.8 150.286 536.6 150.086C533.8 147.786 534.8 144.886 535.1 142.086C535.2 141.386 534.8 140.686 534.6 139.986C534 140.486 533.3 140.786 532.8 141.386C532.3 141.986 532.1 142.886 531.7 143.586C530.5 145.486 530.3 147.286 531.6 149.386C533.2 152.086 534.5 155.086 536 157.986C534.3 159.386 534.3 159.486 536.7 161.286C536.8 161.386 537 161.486 537.1 161.586C537.5 162.486 538 163.486 538.4 164.386C537.4 164.786 536.4 165.086 535 165.586C536 166.486 537.1 167.286 538 168.286C538.4 168.686 538.6 169.886 538.4 169.986C536.2 171.286 537.2 171.986 538.7 172.786C539.1 172.986 539.3 173.486 539.5 173.686C538.6 174.286 537.8 174.786 537 175.386C537.9 175.686 538.9 175.986 539.9 176.186C540.7 176.286 541.6 176.186 542.4 176.086C545.1 175.986 547.1 177.886 547 180.586C547 180.886 546.9 181.286 546.9 181.586C547 182.886 547.7 185.186 547.3 185.386C545.4 186.386 543.2 186.886 541.1 187.586C540.7 187.686 540.3 187.686 539.7 187.786C539.7 188.686 539.7 189.486 539.7 190.286C539.8 191.886 540.6 192.186 542.1 191.886C544 191.486 546 191.486 547.9 190.986C549.1 190.686 550.1 189.686 551.4 188.886C553.2 190.386 553.5 191.986 551.8 195.286C550.9 197.186 549.3 198.586 546.9 198.186C544 197.786 543.3 198.286 542.5 201.586C543.2 201.786 543.9 201.886 544.6 202.086C545.8 205.186 542.2 205.786 541.2 207.786C544.2 209.186 545.7 207.086 547.6 205.586C548.7 206.886 548.5 207.786 547.2 208.686C544.1 210.886 541 213.086 538 215.386C536.3 216.586 535.4 218.186 535.2 220.386C534.9 224.886 533.6 226.186 529.2 227.386C527 227.986 525.8 229.186 524.8 231.486C522.3 236.686 519.4 241.786 516.1 246.486C513.6 250.086 510.8 253.586 507.3 256.186C504.7 258.086 503.9 259.886 503.7 262.886C503.5 265.786 502.7 268.586 501.7 271.386C500.2 275.686 499.4 279.886 500.9 284.286C501.5 286.086 501.4 287.586 499.7 288.886C499.1 289.386 498.5 290.386 498.5 291.186C498.5 291.986 499.4 292.686 499.9 293.486C500.3 292.886 500.7 292.286 501.1 291.586C501.4 291.186 501.6 290.686 502.2 290.086C503.1 300.186 510.3 306.486 516.1 313.686C514 314.786 515.2 315.986 515.9 317.286C519.1 323.286 522.6 329.286 525.5 335.486C528.3 341.386 529.2 347.786 528.2 354.186C527.7 357.186 526.7 360.286 525 362.686C523.8 364.286 520.9 364.586 518.7 365.486C518.6 365.186 518.5 364.986 518.4 364.686C518.9 364.086 519.3 363.486 519.9 362.686C518 361.586 515.7 360.786 514.4 359.286C511.4 355.886 508.9 352.186 506.2 348.486C505.4 347.386 504.9 346.186 504.2 345.086C502.9 343.086 501.3 341.486 498.5 341.986C497.7 342.086 496.3 341.486 495.9 340.786C494.7 338.386 492.2 336.386 493.8 333.186C494.1 332.486 493.4 331.186 492.9 330.286C492.7 329.986 491.5 330.486 490.2 330.686C489.9 329.386 489.2 327.786 489.1 326.186C488.9 324.086 489.1 321.986 489.3 319.986C489.7 314.986 487.1 312.586 482.7 311.386C479.6 310.586 477 309.186 475.8 306.286C474.3 302.686 471.7 301.886 468.2 302.386C467.3 302.486 466.4 302.486 465.5 302.586C464.6 305.786 460 309.286 456.8 308.986C455.7 308.886 454.4 308.086 453.7 307.186C451 304.086 447.6 302.886 443.5 302.986C439.7 303.086 435.8 302.886 432 303.086C431.2 303.086 430.1 303.686 429.7 304.386C428 306.986 424.1 307.386 422 305.086C420.9 303.786 419.7 303.886 419 305.286C418.1 307.086 416.8 307.286 415.1 307.186C413.3 307.086 411.4 307.186 409.6 307.486C408.3 307.686 406.8 308.186 406 309.186C402.7 312.886 399.3 312.086 396.1 310.486C394.5 309.686 390.8 310.086 389.7 311.386C388.8 312.386 390 314.886 391.6 314.886C393.3 314.986 395.1 314.286 396.8 314.186C397.5 314.086 398.3 314.586 399.1 314.886C399.7 315.086 400.3 315.686 401 315.686C402.2 315.686 403.5 315.286 404.7 315.386C405.3 315.386 405.8 315.986 406.4 316.386C406 316.986 405.7 317.686 405.1 318.186C404.5 318.686 403.5 318.786 403.1 319.386C402 320.686 402.3 321.986 403.8 322.886C405.1 323.686 406.5 324.386 407.9 325.186C409 325.786 409.7 326.486 408.5 327.686C407.6 328.586 406.9 330.186 405.1 328.686C402.2 326.286 399.1 323.986 396 321.786C395.4 321.386 394.5 321.286 393.7 321.186C393.5 321.186 393.1 321.886 393.1 322.086C393.3 322.686 393.6 323.186 394 323.686C394.7 324.486 395.7 325.186 396.2 326.086C396.9 327.486 396.4 328.286 394.7 328.786C391.9 329.586 389.1 330.686 386.3 331.586C384.7 332.086 381.9 329.886 381.8 328.086C381.6 325.986 381.6 323.786 381.1 321.686C380.8 320.686 379.6 319.986 378.7 319.186C378.4 319.386 378.2 319.586 377.9 319.786C378.2 320.586 378.4 321.386 378.7 322.186C379 322.986 379.3 323.786 379.9 325.186C377.9 324.386 376.4 324.086 375.1 323.286C372.8 321.886 371.3 322.686 370.2 324.786C369.5 326.186 368.5 326.686 367 326.586C363.4 326.486 359.7 326.786 356.3 324.986C355.6 324.586 354.3 325.086 353.3 325.486C349 326.986 344.8 328.686 340.5 330.186C339.9 330.386 339.2 330.386 338.7 330.486C338.5 330.186 338.4 330.086 338.3 329.886C337.7 328.786 337 327.586 336.4 326.486C335.8 327.586 335 328.586 334.7 329.686C333 336.686 328.4 340.786 320.3 342.186C319.3 342.386 318.3 342.386 317.3 342.586C316.7 342.686 315.8 343.186 315.8 343.486C315.8 346.786 313.6 346.686 311.2 346.586C309.9 350.986 305 352.586 303.6 357.086C303.6 358.586 303.6 360.486 303.6 362.286C302.4 362.686 301.5 362.986 300.6 363.286C301.3 364.086 302 364.786 302.7 365.586C302.8 365.486 302.9 365.486 302.9 365.386C303 365.586 303.1 365.686 303.1 365.886C301.9 369.686 302.1 373.286 304.1 376.786C304.8 377.986 304.4 379.886 304.7 381.386C304.9 382.386 305.6 383.186 306.1 384.286C304.3 385.186 302.6 385.286 300.3 383.886C297.1 382.086 293.3 381.086 289.7 380.686C283.4 379.986 280.2 376.186 278.4 370.686C277.4 367.786 276.8 364.786 275.8 361.886C275.5 360.886 274.8 359.986 274.2 359.186C269.7 353.486 264.8 348.186 260.9 342.186C259.2 339.586 257.6 337.486 255.2 335.686C254.4 335.086 253.9 333.986 253.4 333.086C251 328.786 245.9 326.786 241.6 329.186C238.3 330.986 235.4 333.586 232.7 336.186C229.1 339.586 229.6 340.586 224.1 337.386C217.1 333.386 211.8 327.886 208.7 320.386C207.7 317.986 207.3 315.286 206 313.086C204.9 311.286 203.1 309.786 201.5 308.386C197.6 305.186 193.5 302.186 191.2 297.486C190.9 296.886 189.9 296.386 189.2 296.386C183.2 295.786 177.3 295.286 171.3 294.686C169.2 294.486 168.3 295.286 168.2 297.286C168.2 297.986 168 298.786 168 299.486C167.9 300.886 167.2 301.486 165.7 301.286C155.8 300.086 145.9 298.486 136 297.986C130.7 297.686 127.7 294.386 123.8 292.186C117.4 288.486 110.8 284.986 104.4 281.286C102 279.886 99.8 278.086 97.4 276.686C95.3 275.486 93.1 274.486 91 273.486C90.3 273.186 89.4 272.986 89.1 272.486C86.8 268.386 82.6 269.186 79.1 268.586C73.1 267.386 67 266.686 60.9 265.686C60.2 265.586 59.2 264.386 59.1 263.686C58.4 258.786 58 253.886 55.3 249.586C54 247.486 52.7 245.286 49.8 244.986C47.8 244.786 47.1 243.486 46.4 241.786C46 240.886 45.1 239.686 44.3 239.486C40.6 238.786 38.6 236.286 36.9 233.286C35.9 231.486 34.7 230.586 32.5 229.986C29.3 229.186 26.5 227.086 23.6 225.386C23.2 225.086 23 224.086 23 223.486C23.2 222.086 23.6 220.686 23.8 219.386C24.2 217.086 24.1 215.186 22.7 212.886C19.9 208.386 17.8 203.386 15.5 198.486C14.1 195.686 12.9 192.986 15.3 189.886C15.8 189.286 15 187.486 14.5 186.386C14.2 185.786 13.6 185.186 13 184.786C9.10003 182.186 10.3 178.186 10.4 174.586C10.4 174.186 11.2 173.886 11.4 173.386C11.7 172.586 12 171.586 11.8 170.786C11.7 170.386 10.5 169.986 9.90003 169.986C8.00003 170.086 5.50003 166.786 5.90003 164.886C6.20003 163.386 6.20003 161.586 5.80003 160.186C4.80003 156.986 3.50003 153.786 2.30003 150.686C2.20003 150.286 2.10003 149.886 2.20003 149.486C4.50003 143.786 3.80003 138.186 1.40003 132.686C-0.19997 129.086 0.900029 124.986 4.10003 122.586C5.70003 121.386 6.20003 119.986 6.30003 117.886C6.10003 103.686 8.00003 89.9861 15.8 77.7861C16.4 76.8861 16.9 75.9861 17.6 75.0861C19.3 72.9861 20.9 70.8861 20.7 67.7861C20.6 66.5861 21.5 65.0861 22.4 63.9861C25.6 60.1861 26.8 55.6861 27.4 50.9861C27.7 48.8861 28.6 47.7861 31.5 48.1861C30.6 46.6861 30.2 45.6861 29.5 44.7861C28.7 43.7861 28.5 43.1861 29.9 42.4861C30.4 42.1861 31.2 41.2861 31.1 40.9861C29.7 37.4861 31.8 33.9861 30.8 30.2861C29.9 26.6861 30 22.8861 29.9 19.0861C29.9 18.1861 30.1 16.8861 30.7 16.3861C31.1 15.9861 32.5 16.4861 33.3 16.8861C38.1 19.4861 42.8 22.1861 47.8 25.0861C47.2 25.8861 46.5 26.3861 46.3 27.0861C46.1 27.9861 46.3 28.9861 46.4 29.9861C46.5 30.7861 47.2 31.7861 47 32.1861C46.4 32.9861 45.4 33.5861 44.5 34.1861C43.8 34.5861 42.9 34.6861 42.2 34.9861C42.1 35.0861 42.3 36.2861 42.6 36.4861C43.3 36.8861 44.2 37.0861 45 37.0861C46 36.9861 46.9 36.5861 47.8 36.1861C49.3 35.5861 50 34.5861 49.8 32.8861C49.6 30.8861 50.1 29.0861 52.1 28.0861C52.6 27.8861 53 27.0861 53 26.4861C52.8 22.7861 52.7 19.1861 52.2 15.4861C52 14.0861 51.1 12.6861 50.2 10.5861C53.8 11.6861 56.9 12.5861 59.9 13.5861C66.7 15.7861 73.6 17.5861 80.2 20.2861C88 23.5861 96.3 24.0861 104.3 25.9861C114.7 28.3861 125.1 30.7861 135.6 32.7861C143.2 34.1861 150.9 34.8861 158.5 36.0861C167.2 37.5861 175.8 39.3861 184.4 40.9861C197.1 43.2861 210 43.5861 222.9 43.3861C231.9 43.2861 240.8 44.5861 249.8 44.7861C262.3 45.0861 274.8 44.9861 287.2 44.8861C292.9 44.8861 298.6 44.4861 304.3 44.2861C305.9 44.1861 307.5 44.1861 309 43.9861C311.5 43.7861 313.4 42.7861 314.3 40.2861C314.5 39.6861 315.1 39.0861 315.8 37.9861C317 40.5861 317.9 42.6861 318.9 44.6861C319.3 45.3861 320.2 46.1861 321 46.2861C324.3 46.6861 327.6 46.9861 330.9 47.0861C332.9 47.1861 334.9 47.1861 336.9 46.8861C339 46.4861 340.4 46.7861 340.9 49.0861C341 49.5861 341.4 50.0861 341.7 50.8861C344.7 48.1861 347.1 50.5861 349.3 51.9861C350.8 52.9861 352 53.0861 353.6 52.5861C358.2 51.2861 362.9 51.0861 367.9 52.6861C364.2 55.5861 360.3 57.9861 357.1 61.0861C353.8 64.2861 351.3 68.2861 348.1 72.2861C352.3 73.5861 355.5 71.7861 358.7 70.1861C359 70.4861 359.3 70.7861 359.3 71.0861C360.1 74.5861 360.2 74.5861 363.8 73.8861C369.2 72.8861 373.3 69.7861 377.2 66.1861C380 63.6861 382.9 61.3861 385.8 59.0861C386.3 58.6861 387 58.4861 387.8 58.3861C386.1 60.9861 383.2 62.9861 384.4 66.6861C384.6 66.7861 384.7 66.9861 384.8 66.9861C389 65.3861 392.1 67.8861 395.3 69.8861C399.4 72.4861 401.9 72.1861 405.6 69.0861C407.6 67.4861 410 66.3861 412.3 65.1861C413.4 64.5861 414.7 64.1861 416.1 63.5861C416.2 64.0861 416.4 64.5861 416.5 65.1861C416.8 67.6861 418.3 68.7861 420.8 68.3861C421.3 68.2861 421.8 68.1861 422.3 68.0861C425.5 67.1861 426.9 67.9861 428 70.9861C426.1 71.8861 424.2 72.8861 422.3 73.5861C421.7 73.7861 420.9 73.3861 420.2 73.1861C417.4 72.1861 415 71.5861 412.6 74.5861C410.6 77.1861 407.5 78.9861 404.8 81.1861C404.6 79.7861 404.5 79.2861 402.4 79.6861C399.4 80.1861 399.8 81.9861 399.1 83.6861C397.5 87.6861 395.6 91.5861 394.1 95.5861C393.7 96.6861 394.1 98.0861 394.1 99.3861C394.9 98.4861 395.8 97.5861 396.5 96.5861C397.9 94.5861 399.3 92.4861 400.6 90.3861C400.9 90.4861 401.3 90.6861 401.6 90.7861C401.4 92.1861 401.1 93.5861 400.9 94.9861C399.7 101.786 398.1 108.686 397.4 115.486C397.1 118.286 398.6 121.186 399.2 124.086C399.5 125.686 400 127.286 400 128.986C400 132.686 400.7 136.186 403.9 138.386C404.8 139.086 406.6 139.386 407.6 138.986C411.6 137.286 413.5 133.886 414.4 129.786C415.9 122.986 414.8 116.386 411.8 110.386C409.7 106.086 410.3 102.086 410.7 97.7861C410.7 97.3861 411 96.9861 410.9 96.5861C410.2 92.2861 413 89.6861 416 86.8861C416.2 87.4861 416.3 88.0861 416.5 88.4861C416.9 89.0861 417.5 89.5861 418 90.0861C418.4 89.4861 419 88.7861 419 88.1861C419 86.0861 419.1 84.2861 421 82.8861C421.4 82.5861 421 80.9861 420.9 79.2861C422.7 76.6861 423.2 76.5861 427 77.8861C429.9 78.8861 432.9 79.5861 435.8 80.4861C437.4 80.9861 438.7 81.4861 438.3 83.6861C438.2 84.2861 438.6 85.0861 439.1 85.6861C441.7 88.7861 441.3 92.0861 439.8 95.4861C439.1 97.0861 438.2 98.5861 437.4 100.086C437.1 100.786 436.6 101.486 436.6 102.086C436.7 102.886 437.2 103.586 437.6 104.386C438.3 103.986 439 103.686 439.5 103.186C441.3 101.386 443 99.4861 444.9 97.7861C445.4 97.3861 447.3 97.6861 447.5 98.0861C449.8 102.486 451.9 106.986 453.9 111.486C454.7 113.386 454.8 114.986 452.1 115.586C451.4 115.686 450.6 116.886 450.4 117.686C449.4 121.286 448.5 124.886 447.6 128.486C446.8 131.386 447.2 131.186 449.8 132.486C454.1 134.786 457.3 133.086 461.4 131.386C471.2 127.386 477.3 119.286 484.4 112.386C486.6 110.286 488.5 107.786 490.9 105.786C492.9 104.086 493 102.586 491.7 100.686C490.9 99.4861 490 98.1861 488.9 96.5861C489.9 96.0861 490.8 95.5861 491.7 95.2861C496.6 93.8861 501.6 92.8861 506.3 91.2861C508.6 90.4861 510.4 88.1861 512.8 87.2861C516.6 85.7861 517.6 83.6861 516.5 79.8861C516 78.0861 516.1 76.2861 513.5 76.3861C512 76.3861 511.8 75.2861 512.4 74.0861C512.7 73.5861 513 73.0861 513.4 72.6861C515.2 70.9861 516.2 69.1861 516.7 66.4861C517.2 63.6861 519.5 60.8861 521.7 58.7861C524.7 55.7861 528.7 54.3861 532.9 53.2861C537.5 52.0861 541.8 49.7861 546.2 47.8861C548.6 46.8861 551.1 45.9861 553.5 44.9861C554.2 44.6861 555.2 44.0861 555.3 43.5861C555.5 40.3861 557.9 39.8861 560.4 39.1861C561.3 27.2861 560.6 15.1861 564.4 2.98607C567.3 5.68607 569.3 4.68607 571.3 2.48607C574.9 -1.31393 578.8 -0.713931 581.2 3.98607C583 7.58607 584.1 11.4861 585.7 15.2861C586.1 16.2861 586.7 17.2861 587.6 17.8861C589.4 19.3861 591.5 20.4861 593.4 21.9861C595.2 23.3861 596.9 24.9861 598.5 26.5861C599 27.0861 599.3 28.2861 599 28.7861C597.8 30.5861 596.3 32.0861 594.9 33.7861C594 34.7861 593.2 35.7861 592.3 36.7861C591.7 37.4861 590.9 37.9861 590.3 38.6861C589.8 39.1861 589.2 39.7861 588.8 40.3861C588.4 40.9861 588.1 41.5861 587.8 42.3861C587.3 42.0861 587 41.8861 586.7 41.7861C585.9 41.3861 585.2 40.8861 584.4 40.4861C584.4 41.2861 584.4 42.0861 584.3 42.8861C583.9 44.4861 583.7 46.2861 582.8 47.7861C580 52.4861 576.9 56.9861 574.1 61.6861C573.3 63.0861 572.8 64.6861 572.2 66.2861C571.3 68.5861 571.9 70.4861 573.5 72.1861C574 72.6861 574.6 73.8861 574.3 74.3861C573 76.7861 574.2 78.5861 575.5 80.2861C576.5 81.4861 577.8 82.4861 578.7 83.6861C579.8 85.1861 581 85.3861 582.8 84.8861C586 83.9861 586.5 82.9861 584.7 79.9861C584.8 79.5861 584.6 79.2861 584.2 78.6861Z" fill="#1D0A47"/>
<path d="M361.216 199.348C361.099 199.441 361.028 199.564 361.005 199.717C360.981 199.857 360.952 199.998 360.917 200.139C360.882 200.279 360.817 200.402 360.724 200.508C360.642 200.602 360.489 200.643 360.267 200.631C360.22 200.689 360.208 200.725 360.231 200.736C360.267 200.748 360.296 200.801 360.319 200.895C360.155 200.871 360.038 200.883 359.968 200.93C359.897 200.977 359.81 201.012 359.704 201.035C359.435 200.953 359.206 200.807 359.019 200.596C358.843 200.373 358.685 200.133 358.544 199.875C358.415 199.617 358.298 199.354 358.192 199.084C358.099 198.814 357.999 198.58 357.894 198.381C357.894 198.334 357.917 198.316 357.964 198.328C357.999 198.328 358.034 198.328 358.069 198.328C358.011 198.211 357.97 198.082 357.946 197.941C357.911 197.789 357.853 197.666 357.771 197.572C358.11 196.846 358.474 196.09 358.86 195.305C359.247 194.508 359.634 193.705 360.021 192.896C360.419 192.076 360.812 191.256 361.198 190.436C361.597 189.604 361.978 188.789 362.341 187.992C362.669 188.109 362.985 188.25 363.29 188.414C363.606 188.566 363.894 188.748 364.151 188.959C364.409 189.17 364.626 189.416 364.802 189.697C364.989 189.967 365.112 190.277 365.171 190.629C365.147 190.699 365.118 190.723 365.083 190.699C365.048 190.676 365.019 190.688 364.995 190.734C365.054 190.805 365.083 190.857 365.083 190.893C365.095 190.916 365.095 190.945 365.083 190.98C365.071 191.004 365.065 191.039 365.065 191.086C365.065 191.133 365.095 191.197 365.153 191.279C365.095 191.268 365.054 191.279 365.03 191.314C365.007 191.338 364.966 191.338 364.907 191.314C364.966 191.479 364.983 191.607 364.96 191.701C364.937 191.795 364.901 191.883 364.854 191.965C364.808 192.035 364.767 192.117 364.731 192.211C364.708 192.293 364.72 192.41 364.767 192.562C364.72 192.562 364.685 192.574 364.661 192.598C364.649 192.609 364.638 192.627 364.626 192.65C364.614 192.674 364.597 192.697 364.573 192.721C364.562 192.732 364.532 192.732 364.485 192.721C364.521 193.025 364.532 193.336 364.521 193.652C364.509 193.957 364.497 194.273 364.485 194.602C364.474 194.918 364.474 195.246 364.485 195.586C364.497 195.926 364.544 196.277 364.626 196.641C365.13 196.348 365.534 195.967 365.839 195.498C366.155 195.029 366.401 194.508 366.577 193.934C366.765 193.359 366.905 192.744 366.999 192.088C367.104 191.432 367.21 190.764 367.315 190.084C367.444 189.955 367.544 189.797 367.614 189.609C367.696 189.422 367.761 189.229 367.808 189.029C367.866 188.83 367.919 188.631 367.966 188.432C368.024 188.221 368.101 188.033 368.194 187.869C368.405 187.893 368.581 187.957 368.722 188.062C368.874 188.156 369.015 188.268 369.144 188.396C369.272 188.514 369.407 188.625 369.548 188.73C369.688 188.836 369.864 188.906 370.075 188.941C370.239 189.176 370.392 189.404 370.532 189.627C370.673 189.838 370.767 190.078 370.813 190.348C370.743 190.465 370.69 190.594 370.655 190.734C370.62 190.875 370.579 191.016 370.532 191.156C370.497 191.297 370.444 191.426 370.374 191.543C370.304 191.66 370.204 191.76 370.075 191.842C370.04 192.193 369.987 192.521 369.917 192.826C369.847 193.131 369.782 193.43 369.724 193.723C369.665 194.016 369.612 194.32 369.565 194.637C369.519 194.953 369.501 195.299 369.513 195.674C369.407 196.014 369.29 196.365 369.161 196.729C369.032 197.08 368.938 197.408 368.88 197.713C368.657 197.889 368.481 198.105 368.353 198.363C368.224 198.621 368.089 198.879 367.948 199.137C367.89 199.184 367.854 199.195 367.843 199.172C367.831 199.137 367.778 199.113 367.685 199.102C367.696 199.207 367.673 199.277 367.614 199.312C367.567 199.336 367.573 199.418 367.632 199.559C367.433 199.652 367.257 199.775 367.104 199.928C366.952 200.08 366.782 200.221 366.595 200.35C366.419 200.479 366.208 200.566 365.962 200.613C365.728 200.648 365.417 200.596 365.03 200.455C364.456 200.033 363.94 199.547 363.483 198.996C363.026 198.445 362.663 197.795 362.394 197.045C362.276 197.08 362.188 197.156 362.13 197.273C362.071 197.391 362.019 197.514 361.972 197.643C361.925 197.771 361.878 197.889 361.831 197.994C361.784 198.1 361.714 198.152 361.62 198.152C361.597 198.258 361.55 198.357 361.479 198.451C361.421 198.533 361.362 198.621 361.304 198.715C361.245 198.797 361.198 198.891 361.163 198.996C361.14 199.102 361.157 199.219 361.216 199.348Z" fill="#F7F7F7"/>
<path d="M379.655 199.523C379.585 199.723 379.479 199.928 379.339 200.139C379.21 200.338 379.052 200.52 378.864 200.684C378.688 200.836 378.489 200.965 378.267 201.07C378.044 201.176 377.81 201.234 377.563 201.246C377.411 201.211 377.306 201.17 377.247 201.123C377.2 201.088 377.147 201.053 377.089 201.018C377.054 200.994 377.019 200.977 376.983 200.965C376.96 200.941 376.937 200.924 376.913 200.912L376.702 200.824L376.772 200.596C376.796 200.502 376.79 200.432 376.755 200.385C376.72 200.326 376.649 200.25 376.544 200.156C376.509 200.121 376.474 200.086 376.438 200.051C376.403 200.016 376.374 199.98 376.351 199.945L376.052 199.611L376.526 199.488C376.819 199.406 377.013 199.301 377.106 199.172C377.212 199.043 377.253 198.826 377.229 198.521C376.995 198.475 376.796 198.469 376.632 198.504C376.479 198.539 376.321 198.58 376.157 198.627C375.946 198.686 375.729 198.738 375.507 198.785C375.296 198.82 375.062 198.838 374.804 198.838C374.71 198.838 374.622 198.838 374.54 198.838C374.458 198.826 374.37 198.814 374.276 198.803L374.101 198.768C374.077 198.639 374.054 198.568 374.03 198.557C374.007 198.533 373.983 198.51 373.96 198.486C373.901 198.428 373.837 198.352 373.767 198.258C373.708 198.152 373.696 198.023 373.731 197.871C373.673 197.766 373.638 197.66 373.626 197.555C373.556 197.695 373.503 197.842 373.468 197.994L373.397 198.17L373.222 198.205C373.198 198.217 373.181 198.246 373.169 198.293C373.157 198.328 373.151 198.357 373.151 198.381L373.063 198.68C373.04 198.703 373.017 198.727 372.993 198.75C372.97 198.762 372.946 198.779 372.923 198.803C372.899 198.908 372.87 199.014 372.835 199.119C372.8 199.225 372.765 199.324 372.729 199.418C372.671 199.57 372.618 199.723 372.571 199.875C372.536 200.016 372.524 200.156 372.536 200.297L372.466 200.49C372.407 200.561 372.343 200.619 372.272 200.666C372.202 200.701 372.132 200.736 372.062 200.771C372.038 200.795 372.003 200.818 371.956 200.842C371.921 200.854 371.892 200.865 371.868 200.877L371.815 201.07L371.604 201.105C371.476 201.129 371.382 201.146 371.323 201.158C371.276 201.17 371.218 201.176 371.147 201.176L370.972 201.158C370.843 201.053 370.743 200.971 370.673 200.912C370.603 200.842 370.521 200.777 370.427 200.719C370.321 200.578 370.263 200.473 370.251 200.402C370.239 200.332 370.228 200.268 370.216 200.209C370.192 200.139 370.181 200.08 370.181 200.033C370.169 199.986 370.151 199.951 370.128 199.928L369.899 199.717L370.093 199.559L370.11 199.26C370.345 198.662 370.591 198.088 370.849 197.537C371.118 196.986 371.394 196.424 371.675 195.85C371.769 195.662 371.856 195.475 371.938 195.287C372.032 195.1 372.126 194.912 372.22 194.725C372.208 194.689 372.202 194.648 372.202 194.602C372.202 194.555 372.214 194.502 372.237 194.443C372.366 194.244 372.472 194.068 372.554 193.916C372.636 193.752 372.718 193.588 372.8 193.424C372.894 193.225 372.987 193.031 373.081 192.844C373.187 192.656 373.315 192.463 373.468 192.264L373.749 192.141C373.784 192.129 373.825 192.117 373.872 192.105C373.919 192.082 373.972 192.07 374.03 192.07L374.294 192.105C374.622 191.953 374.909 191.742 375.155 191.473C375.401 191.191 375.653 190.857 375.911 190.471L376.087 190.225L376.315 190.365C376.374 190.4 376.456 190.436 376.562 190.471C376.667 190.494 376.778 190.523 376.896 190.559C377.106 190.605 377.306 190.658 377.493 190.717C377.681 190.775 377.833 190.863 377.95 190.98C378.021 191.168 378.062 191.309 378.073 191.402C378.085 191.496 378.103 191.59 378.126 191.684C378.161 191.883 378.19 192.082 378.214 192.281C378.249 192.48 378.272 192.703 378.284 192.949C378.343 193.148 378.39 193.348 378.425 193.547C378.472 193.734 378.513 193.928 378.548 194.127C378.606 194.408 378.665 194.684 378.724 194.953C378.782 195.211 378.858 195.457 378.952 195.691C379.046 195.691 379.104 195.697 379.128 195.709C379.187 195.686 379.245 195.668 379.304 195.656C379.374 195.645 379.45 195.633 379.532 195.621L379.726 195.604L379.796 195.779C379.808 195.838 379.866 195.896 379.972 195.955C380.124 195.967 380.235 196.002 380.306 196.061C380.376 196.107 380.44 196.16 380.499 196.219C380.546 196.266 380.593 196.301 380.64 196.324L380.903 196.43L380.763 196.693C380.646 196.904 380.476 197.109 380.253 197.309C380.042 197.496 379.802 197.654 379.532 197.783C379.544 197.854 379.55 197.924 379.55 197.994C379.562 198.053 379.579 198.117 379.603 198.188C379.638 198.387 379.667 198.592 379.69 198.803C379.714 199.014 379.714 199.23 379.69 199.453L379.655 199.523ZM374.575 196.482C374.927 196.459 375.243 196.436 375.524 196.412C375.817 196.377 376.14 196.324 376.491 196.254C376.409 195.902 376.321 195.539 376.228 195.164C376.134 194.777 376.034 194.396 375.929 194.021L375.823 194.197C375.589 194.443 375.36 194.719 375.138 195.023C374.927 195.328 374.745 195.615 374.593 195.885C374.522 195.99 374.452 196.096 374.382 196.201C374.312 196.307 374.247 196.412 374.188 196.518C374.259 196.506 374.323 196.5 374.382 196.5C374.452 196.5 374.517 196.494 374.575 196.482Z" fill="#F7F7F7"/>
<path d="M380.745 193.09C380.827 192.844 380.956 192.633 381.132 192.457C381.319 192.281 381.519 192.135 381.729 192.018C381.952 191.889 382.181 191.783 382.415 191.701C382.649 191.619 382.872 191.549 383.083 191.49C383.552 191.291 384.05 191.104 384.577 190.928C385.116 190.74 385.661 190.576 386.212 190.436C386.774 190.295 387.349 190.207 387.935 190.172C388.521 190.125 389.136 190.195 389.78 190.383C389.815 190.5 389.868 190.611 389.938 190.717C390.009 190.822 390.079 190.928 390.149 191.033C390.231 191.139 390.302 191.244 390.36 191.35C390.419 191.443 390.454 191.543 390.466 191.648C390.583 191.754 390.677 191.871 390.747 192C390.817 192.117 390.829 192.275 390.782 192.475C390.665 192.568 390.548 192.656 390.431 192.738C390.325 192.809 390.208 192.873 390.079 192.932C389.646 192.826 389.206 192.791 388.761 192.826C388.315 192.861 387.917 192.891 387.565 192.914C387.46 192.809 387.331 192.756 387.179 192.756C387.038 192.756 386.886 192.779 386.722 192.826C386.569 192.873 386.411 192.92 386.247 192.967C386.095 193.014 385.948 193.025 385.808 193.002C385.69 193.096 385.544 193.16 385.368 193.195C385.204 193.219 385.022 193.242 384.823 193.266C384.812 193.324 384.823 193.365 384.858 193.389C384.894 193.4 384.899 193.436 384.876 193.494C384.946 193.576 385.034 193.635 385.14 193.67C385.257 193.705 385.374 193.74 385.491 193.775C385.62 193.811 385.731 193.857 385.825 193.916C385.919 193.963 385.983 194.045 386.019 194.162C386.194 194.162 386.347 194.203 386.476 194.285C386.604 194.367 386.71 194.467 386.792 194.584C386.874 194.701 386.933 194.83 386.968 194.971C387.015 195.1 387.038 195.217 387.038 195.322C387.073 195.416 387.114 195.457 387.161 195.445C387.208 195.434 387.261 195.457 387.319 195.516C387.354 195.668 387.442 195.826 387.583 195.99C387.724 196.143 387.835 196.312 387.917 196.5C387.94 196.793 387.958 197.057 387.97 197.291C387.981 197.514 387.94 197.742 387.847 197.977C387.671 198.41 387.425 198.797 387.108 199.137C386.804 199.477 386.452 199.781 386.054 200.051C385.667 200.309 385.251 200.531 384.806 200.719C384.36 200.906 383.927 201.064 383.505 201.193C383.458 201.182 383.411 201.182 383.364 201.193C383.317 201.205 383.306 201.176 383.329 201.105C383.235 201.188 383.13 201.24 383.013 201.264C382.907 201.287 382.79 201.293 382.661 201.281C382.532 201.281 382.397 201.275 382.257 201.264C382.128 201.252 382.005 201.258 381.888 201.281C381.806 201.199 381.729 201.117 381.659 201.035C381.601 200.965 381.554 200.871 381.519 200.754C381.46 200.754 381.431 200.725 381.431 200.666C381.442 200.607 381.425 200.578 381.378 200.578C381.448 200.461 381.478 200.396 381.466 200.385C381.466 200.361 381.448 200.344 381.413 200.332C381.39 200.32 381.366 200.309 381.343 200.297C381.319 200.273 381.313 200.244 381.325 200.209C381.372 200.115 381.39 200.01 381.378 199.893C381.366 199.764 381.354 199.635 381.343 199.506C381.331 199.377 381.337 199.254 381.36 199.137C381.396 199.02 381.483 198.926 381.624 198.855C382.022 198.902 382.397 198.891 382.749 198.82C383.112 198.738 383.452 198.627 383.769 198.486C384.085 198.346 384.384 198.193 384.665 198.029C384.958 197.865 385.245 197.719 385.526 197.59C385.562 197.484 385.608 197.396 385.667 197.326C385.737 197.256 385.808 197.191 385.878 197.133C385.948 197.074 386.013 197.01 386.071 196.939C386.13 196.869 386.171 196.781 386.194 196.676C386.206 196.594 386.183 196.547 386.124 196.535C386.077 196.512 386.054 196.465 386.054 196.395L385.86 196.342C385.638 196.213 385.386 196.107 385.104 196.025C384.823 195.932 384.583 195.832 384.384 195.727C384.255 195.797 384.132 195.814 384.015 195.779C383.909 195.744 383.769 195.709 383.593 195.674C383.194 195.65 382.808 195.609 382.433 195.551C382.069 195.492 381.718 195.387 381.378 195.234C381.354 195.176 381.325 195.123 381.29 195.076C381.255 195.029 381.19 195.018 381.097 195.041C381.026 194.947 380.956 194.859 380.886 194.777C380.815 194.684 380.751 194.584 380.692 194.479C380.716 194.338 380.733 194.221 380.745 194.127C380.757 194.021 380.722 193.922 380.64 193.828C380.687 193.676 380.722 193.553 380.745 193.459C380.769 193.365 380.769 193.242 380.745 193.09Z" fill="#F7F7F7"/>
<path d="M397.813 199.295C397.837 199.6 397.802 199.852 397.708 200.051C397.614 200.25 397.485 200.42 397.321 200.561C397.157 200.701 396.97 200.812 396.759 200.895C396.548 200.977 396.343 201.053 396.144 201.123C396.05 201.064 395.956 201.006 395.862 200.947C395.78 200.877 395.681 200.824 395.563 200.789C395.411 200.508 395.265 200.262 395.124 200.051C394.983 199.828 394.919 199.576 394.931 199.295C394.931 199.283 394.937 199.219 394.948 199.102C394.972 198.984 394.995 198.855 395.019 198.715C395.054 198.574 395.077 198.445 395.089 198.328C395.112 198.199 395.124 198.129 395.124 198.117C394.854 198.141 394.573 198.199 394.28 198.293C393.987 198.387 393.7 198.498 393.419 198.627C393.149 198.756 392.892 198.885 392.646 199.014C392.411 199.143 392.218 199.254 392.065 199.348C392.065 199.383 392.042 199.471 391.995 199.611C391.948 199.74 391.89 199.881 391.819 200.033C391.749 200.174 391.673 200.303 391.591 200.42C391.509 200.537 391.427 200.596 391.345 200.596C391.356 200.631 391.374 200.666 391.397 200.701C391.421 200.736 391.421 200.783 391.397 200.842C391.233 200.889 391.087 200.947 390.958 201.018C390.829 201.1 390.694 201.164 390.554 201.211C390.413 201.27 390.261 201.299 390.097 201.299C389.933 201.299 389.739 201.24 389.517 201.123C389.517 201.053 389.487 200.994 389.429 200.947C389.37 200.889 389.306 200.842 389.235 200.807C389.177 200.76 389.124 200.725 389.077 200.701C389.03 200.666 389.007 200.637 389.007 200.613C388.948 200.625 388.925 200.584 388.937 200.49C388.948 200.396 388.995 200.373 389.077 200.42C388.948 200.256 388.866 200.115 388.831 199.998C388.808 199.869 388.743 199.711 388.638 199.523C388.661 199.5 388.685 199.459 388.708 199.4C388.72 199.342 388.731 199.289 388.743 199.242C388.755 199.195 388.772 199.16 388.796 199.137C388.819 199.113 388.849 199.119 388.884 199.154C388.86 199.049 388.86 198.961 388.884 198.891C388.907 198.82 388.931 198.756 388.954 198.697C388.978 198.639 388.995 198.58 389.007 198.521C389.019 198.463 389.001 198.398 388.954 198.328C389.142 198.07 389.265 197.795 389.323 197.502C389.382 197.197 389.417 196.922 389.429 196.676C389.511 196.594 389.581 196.477 389.64 196.324C389.71 196.172 389.763 196.02 389.798 195.867C389.833 195.703 389.845 195.551 389.833 195.41C389.833 195.258 389.815 195.135 389.78 195.041C389.792 194.982 389.856 194.965 389.974 194.988C390.044 194.602 390.091 194.168 390.114 193.688C390.149 193.195 390.202 192.732 390.272 192.299C390.343 191.854 390.46 191.467 390.624 191.139C390.788 190.799 391.052 190.576 391.415 190.471C391.485 190.717 391.573 190.934 391.679 191.121C391.796 191.309 391.919 191.49 392.048 191.666C392.188 191.83 392.323 192 392.452 192.176C392.593 192.352 392.722 192.551 392.839 192.773C392.827 192.996 392.804 193.254 392.769 193.547C392.733 193.84 392.687 194.139 392.628 194.443C392.581 194.748 392.528 195.041 392.47 195.322C392.423 195.604 392.376 195.844 392.329 196.043C392.341 196.102 392.37 196.137 392.417 196.148C392.476 196.16 392.487 196.213 392.452 196.307C392.733 196.236 393.026 196.172 393.331 196.113C393.636 196.055 393.94 195.99 394.245 195.92C394.55 195.85 394.843 195.773 395.124 195.691C395.417 195.598 395.687 195.486 395.933 195.357C395.991 194.9 396.067 194.443 396.161 193.986C396.255 193.529 396.267 193.061 396.196 192.58C396.255 192.533 396.302 192.475 396.337 192.404C396.372 192.334 396.431 192.287 396.513 192.264C396.454 192.041 396.431 191.807 396.442 191.561C396.454 191.314 396.495 191.08 396.565 190.857C396.647 190.635 396.759 190.447 396.899 190.295C397.052 190.131 397.233 190.025 397.444 189.979C397.573 190.166 397.685 190.371 397.778 190.594C397.872 190.805 397.966 191.021 398.06 191.244C398.165 191.455 398.271 191.66 398.376 191.859C398.493 192.047 398.64 192.211 398.815 192.352C398.851 192.691 398.874 193.043 398.886 193.406C398.909 193.77 398.927 194.139 398.938 194.514C398.845 194.959 398.739 195.393 398.622 195.814C398.517 196.225 398.44 196.664 398.394 197.133C398.312 197.227 398.247 197.332 398.2 197.449C398.153 197.566 398.106 197.689 398.06 197.818C398.013 197.936 397.96 198.053 397.901 198.17C397.843 198.275 397.772 198.369 397.69 198.451C397.737 198.592 397.743 198.727 397.708 198.855C397.685 198.973 397.72 199.119 397.813 199.295Z" fill="#F7F7F7"/>
<path d="M405.144 197.906C405.132 198.07 405.091 198.229 405.021 198.381C404.962 198.521 404.886 198.662 404.792 198.803C404.698 198.932 404.593 199.061 404.476 199.189C404.37 199.307 404.265 199.412 404.159 199.506C404.194 199.658 404.194 199.775 404.159 199.857C404.136 199.928 404.13 200.039 404.142 200.191C403.966 200.66 403.696 200.971 403.333 201.123C402.981 201.287 402.647 201.258 402.331 201.035C402.202 200.941 402.091 200.824 401.997 200.684C401.915 200.531 401.798 200.438 401.646 200.402C401.681 200.203 401.663 200.004 401.593 199.805C401.522 199.605 401.446 199.5 401.364 199.488C401.329 199.242 401.276 198.979 401.206 198.697C401.136 198.416 401.071 198.135 401.013 197.854C400.954 197.561 400.901 197.279 400.854 197.01C400.819 196.729 400.808 196.471 400.819 196.236C400.831 196.119 400.808 196.014 400.749 195.92C400.702 195.826 400.667 195.715 400.644 195.586C400.597 195.316 400.579 195.035 400.591 194.742C400.614 194.438 400.626 194.15 400.626 193.881C400.626 193.623 400.608 193.348 400.573 193.055C400.55 192.75 400.526 192.463 400.503 192.193C400.479 191.912 400.468 191.66 400.468 191.438C400.468 191.203 400.497 191.021 400.556 190.893C400.626 190.752 400.72 190.641 400.837 190.559C400.966 190.465 401.083 190.365 401.188 190.26C401.446 190.283 401.651 190.389 401.804 190.576C401.956 190.764 402.015 190.939 401.979 191.104C402.226 191.256 402.419 191.455 402.56 191.701C402.712 191.936 402.829 192.205 402.911 192.51C403.005 192.803 403.069 193.119 403.104 193.459C403.14 193.787 403.169 194.115 403.192 194.443C403.216 194.76 403.239 195.064 403.263 195.357C403.286 195.65 403.333 195.902 403.403 196.113C403.837 195.492 404.2 194.941 404.493 194.461C404.786 193.969 405.085 193.5 405.39 193.055C405.694 192.609 406.034 192.158 406.409 191.701C406.784 191.244 407.271 190.729 407.868 190.154C407.985 190.166 408.079 190.189 408.149 190.225C408.231 190.26 408.302 190.289 408.36 190.312C408.419 190.336 408.489 190.359 408.571 190.383C408.653 190.395 408.765 190.389 408.905 190.365C408.952 190.482 408.987 190.57 409.011 190.629C409.034 190.676 409.052 190.729 409.063 190.787C409.087 190.834 409.11 190.898 409.134 190.98C409.169 191.062 409.222 191.18 409.292 191.332C409.327 191.367 409.339 191.414 409.327 191.473C409.315 191.531 409.304 191.59 409.292 191.648C409.292 191.695 409.292 191.73 409.292 191.754C409.292 191.777 409.321 191.777 409.38 191.754C409.345 191.918 409.28 192.07 409.187 192.211C409.104 192.34 409.069 192.498 409.081 192.686C408.812 193.037 408.513 193.4 408.185 193.775C407.868 194.15 407.546 194.537 407.218 194.936C406.901 195.334 406.597 195.756 406.304 196.201C406.011 196.635 405.759 197.092 405.548 197.572C405.489 197.572 405.442 197.59 405.407 197.625C405.384 197.66 405.36 197.701 405.337 197.748C405.313 197.783 405.284 197.818 405.249 197.854C405.226 197.889 405.19 197.906 405.144 197.906Z" fill="#F7F7F7"/>
<path d="M411.753 199.77C411.812 200.121 411.788 200.396 411.683 200.596C411.589 200.795 411.448 200.941 411.261 201.035C411.085 201.141 410.88 201.199 410.646 201.211C410.411 201.223 410.188 201.211 409.978 201.176C409.86 201.012 409.755 200.807 409.661 200.561C409.567 200.314 409.479 200.062 409.397 199.805C409.315 199.535 409.239 199.271 409.169 199.014C409.11 198.756 409.058 198.527 409.011 198.328C409.069 198.188 409.104 198.029 409.116 197.854C409.14 197.666 409.151 197.479 409.151 197.291C409.163 197.104 409.169 196.916 409.169 196.729C409.181 196.529 409.198 196.342 409.222 196.166C409.304 195.674 409.421 195.205 409.573 194.76C409.737 194.314 409.866 193.852 409.96 193.371C409.983 193.266 409.972 193.166 409.925 193.072C409.89 192.979 409.884 192.891 409.907 192.809C409.919 192.762 409.954 192.732 410.013 192.721C410.071 192.697 410.106 192.656 410.118 192.598C410.153 192.469 410.159 192.363 410.136 192.281C410.124 192.199 410.147 192.1 410.206 191.982C410.265 191.889 410.335 191.754 410.417 191.578C410.511 191.391 410.546 191.197 410.522 190.998C410.628 190.928 410.728 190.846 410.821 190.752C410.915 190.658 411.009 190.576 411.103 190.506C411.208 190.424 411.319 190.354 411.437 190.295C411.565 190.236 411.718 190.207 411.894 190.207C411.987 190.324 412.046 190.453 412.069 190.594C412.104 190.734 412.134 190.875 412.157 191.016C412.192 191.156 412.239 191.291 412.298 191.42C412.356 191.537 412.456 191.631 412.597 191.701C412.597 191.795 412.597 191.912 412.597 192.053C412.597 192.193 412.603 192.334 412.614 192.475C412.626 192.604 412.649 192.727 412.685 192.844C412.731 192.949 412.802 193.02 412.896 193.055C412.685 193.617 412.485 194.174 412.298 194.725C412.122 195.275 411.976 195.832 411.858 196.395C411.741 196.945 411.665 197.502 411.63 198.064C411.606 198.627 411.647 199.195 411.753 199.77Z" fill="#F7F7F7"/>
<path d="M418.433 200.807C418.104 200.912 417.747 201.018 417.36 201.123C416.974 201.229 416.587 201.281 416.2 201.281C415.614 201.281 415.151 201.135 414.812 200.842C414.753 200.713 414.7 200.625 414.653 200.578C414.618 200.531 414.583 200.484 414.548 200.438C414.524 200.379 414.507 200.303 414.495 200.209C414.354 200.045 414.243 199.857 414.161 199.646C414.079 199.424 414.021 199.201 413.985 198.979C413.962 198.744 413.956 198.51 413.968 198.275C413.991 198.041 414.032 197.818 414.091 197.607C414.114 197.561 414.126 197.514 414.126 197.467C414.138 197.42 414.149 197.367 414.161 197.309C414.208 197.121 414.255 196.939 414.302 196.764C414.36 196.588 414.437 196.436 414.53 196.307C414.483 196.201 414.483 196.084 414.53 195.955C414.577 195.826 414.63 195.709 414.688 195.604C414.853 195.158 414.987 194.783 415.093 194.479C415.21 194.162 415.327 193.852 415.444 193.547C415.644 193.02 415.831 192.498 416.007 191.982C416.183 191.467 416.341 190.91 416.481 190.312C416.575 190.254 416.646 190.213 416.692 190.189C416.763 190.166 416.821 190.148 416.868 190.137C417.079 190.242 417.325 190.348 417.606 190.453C417.888 190.547 418.122 190.594 418.31 190.594C418.403 190.652 418.462 190.699 418.485 190.734C418.509 190.758 418.532 190.781 418.556 190.805C418.685 190.957 418.796 191.115 418.89 191.279C418.983 191.432 419.013 191.637 418.978 191.895C418.907 192 418.854 192.053 418.819 192.053C418.761 192.287 418.696 192.486 418.626 192.65C418.567 192.814 418.503 192.979 418.433 193.143C418.351 193.318 418.274 193.494 418.204 193.67C418.134 193.846 418.075 194.062 418.028 194.32C417.981 194.379 417.946 194.432 417.923 194.479C417.911 194.525 417.894 194.578 417.87 194.637C417.847 194.695 417.817 194.76 417.782 194.83C417.759 194.889 417.718 194.941 417.659 194.988C417.624 195.293 417.565 195.539 417.483 195.727C417.413 195.914 417.337 196.102 417.255 196.289C417.114 196.629 416.985 196.969 416.868 197.309C416.763 197.648 416.698 198.035 416.675 198.469C416.733 198.445 416.786 198.434 416.833 198.434C416.892 198.434 416.944 198.434 416.991 198.434C417.097 198.434 417.22 198.451 417.36 198.486C417.712 198.299 418.093 198.188 418.503 198.152C418.925 198.117 419.341 198.094 419.751 198.082C419.915 198.082 420.079 198.082 420.243 198.082C420.407 198.082 420.56 198.07 420.7 198.047C420.806 198.105 420.87 198.141 420.894 198.152C420.929 198.152 420.976 198.152 421.034 198.152C421.116 198.152 421.187 198.158 421.245 198.17C421.386 198.299 421.521 198.393 421.649 198.451C421.778 198.51 421.913 198.562 422.054 198.609C422.183 198.656 422.306 198.709 422.423 198.768C422.552 198.814 422.675 198.885 422.792 198.979L422.915 199.734C422.997 199.84 423.032 199.91 423.021 199.945C423.021 200.039 422.997 200.109 422.95 200.156L422.985 200.35C422.81 200.385 422.687 200.426 422.616 200.473C422.558 200.52 422.499 200.572 422.44 200.631C422.347 200.643 422.276 200.648 422.229 200.648C422.194 200.648 422.159 200.648 422.124 200.648C421.96 200.648 421.761 200.678 421.526 200.736C421.21 200.631 420.882 200.578 420.542 200.578C420.413 200.578 420.278 200.584 420.138 200.596C419.997 200.607 419.856 200.619 419.716 200.631C419.575 200.654 419.429 200.672 419.276 200.684C419.136 200.695 418.989 200.701 418.837 200.701L418.433 200.807Z" fill="#F7F7F7"/>
<path d="M428.03 200.807C427.702 200.912 427.345 201.018 426.958 201.123C426.571 201.229 426.185 201.281 425.798 201.281C425.212 201.281 424.749 201.135 424.409 200.842C424.351 200.713 424.298 200.625 424.251 200.578C424.216 200.531 424.181 200.484 424.146 200.438C424.122 200.379 424.104 200.303 424.093 200.209C423.952 200.045 423.841 199.857 423.759 199.646C423.677 199.424 423.618 199.201 423.583 198.979C423.56 198.744 423.554 198.51 423.565 198.275C423.589 198.041 423.63 197.818 423.688 197.607C423.712 197.561 423.724 197.514 423.724 197.467C423.735 197.42 423.747 197.367 423.759 197.309C423.806 197.121 423.853 196.939 423.899 196.764C423.958 196.588 424.034 196.436 424.128 196.307C424.081 196.201 424.081 196.084 424.128 195.955C424.175 195.826 424.228 195.709 424.286 195.604C424.45 195.158 424.585 194.783 424.69 194.479C424.808 194.162 424.925 193.852 425.042 193.547C425.241 193.02 425.429 192.498 425.604 191.982C425.78 191.467 425.938 190.91 426.079 190.312C426.173 190.254 426.243 190.213 426.29 190.189C426.36 190.166 426.419 190.148 426.466 190.137C426.677 190.242 426.923 190.348 427.204 190.453C427.485 190.547 427.72 190.594 427.907 190.594C428.001 190.652 428.06 190.699 428.083 190.734C428.106 190.758 428.13 190.781 428.153 190.805C428.282 190.957 428.394 191.115 428.487 191.279C428.581 191.432 428.61 191.637 428.575 191.895C428.505 192 428.452 192.053 428.417 192.053C428.358 192.287 428.294 192.486 428.224 192.65C428.165 192.814 428.101 192.979 428.03 193.143C427.948 193.318 427.872 193.494 427.802 193.67C427.731 193.846 427.673 194.062 427.626 194.32C427.579 194.379 427.544 194.432 427.521 194.479C427.509 194.525 427.491 194.578 427.468 194.637C427.444 194.695 427.415 194.76 427.38 194.83C427.356 194.889 427.315 194.941 427.257 194.988C427.222 195.293 427.163 195.539 427.081 195.727C427.011 195.914 426.935 196.102 426.853 196.289C426.712 196.629 426.583 196.969 426.466 197.309C426.36 197.648 426.296 198.035 426.272 198.469C426.331 198.445 426.384 198.434 426.431 198.434C426.489 198.434 426.542 198.434 426.589 198.434C426.694 198.434 426.817 198.451 426.958 198.486C427.31 198.299 427.69 198.188 428.101 198.152C428.522 198.117 428.938 198.094 429.349 198.082C429.513 198.082 429.677 198.082 429.841 198.082C430.005 198.082 430.157 198.07 430.298 198.047C430.403 198.105 430.468 198.141 430.491 198.152C430.526 198.152 430.573 198.152 430.632 198.152C430.714 198.152 430.784 198.158 430.843 198.17C430.983 198.299 431.118 198.393 431.247 198.451C431.376 198.51 431.511 198.562 431.651 198.609C431.78 198.656 431.903 198.709 432.021 198.768C432.149 198.814 432.272 198.885 432.39 198.979L432.513 199.734C432.595 199.84 432.63 199.91 432.618 199.945C432.618 200.039 432.595 200.109 432.548 200.156L432.583 200.35C432.407 200.385 432.284 200.426 432.214 200.473C432.155 200.52 432.097 200.572 432.038 200.631C431.944 200.643 431.874 200.648 431.827 200.648C431.792 200.648 431.757 200.648 431.722 200.648C431.558 200.648 431.358 200.678 431.124 200.736C430.808 200.631 430.479 200.578 430.14 200.578C430.011 200.578 429.876 200.584 429.735 200.596C429.595 200.607 429.454 200.619 429.313 200.631C429.173 200.654 429.026 200.672 428.874 200.684C428.733 200.695 428.587 200.701 428.435 200.701L428.03 200.807Z" fill="#F7F7F7"/>
<path d="M442.796 191.104C442.808 191.186 442.808 191.25 442.796 191.297C442.796 191.332 442.79 191.367 442.778 191.402C442.778 191.438 442.778 191.479 442.778 191.525C442.778 191.561 442.79 191.619 442.813 191.701C442.567 192.1 442.28 192.375 441.952 192.527C441.636 192.668 441.29 192.773 440.915 192.844C440.54 192.902 440.153 192.967 439.755 193.037C439.368 193.107 438.981 193.26 438.595 193.494C438.442 193.436 438.302 193.436 438.173 193.494C438.056 193.553 437.88 193.57 437.646 193.547C437.575 193.617 437.487 193.67 437.382 193.705C437.276 193.729 437.171 193.758 437.065 193.793C437.112 193.898 437.13 194.01 437.118 194.127C437.118 194.232 437.136 194.32 437.171 194.391C437.581 194.426 438.032 194.42 438.524 194.373C439.028 194.326 439.521 194.297 440.001 194.285C440.013 194.344 440.007 194.385 439.983 194.408C439.96 194.42 439.954 194.449 439.966 194.496C440.048 194.555 440.13 194.631 440.212 194.725C440.294 194.807 440.376 194.889 440.458 194.971C440.54 195.053 440.622 195.123 440.704 195.182C440.798 195.229 440.903 195.246 441.021 195.234C441.067 195.328 441.097 195.434 441.108 195.551C441.132 195.656 441.12 195.768 441.073 195.885C440.886 196.014 440.698 196.148 440.511 196.289C440.323 196.418 440.124 196.535 439.913 196.641C439.714 196.746 439.497 196.834 439.263 196.904C439.04 196.963 438.788 196.986 438.507 196.975C438.448 196.975 438.401 196.975 438.366 196.975C438.343 196.975 438.308 196.957 438.261 196.922C438.167 196.98 438.032 196.998 437.856 196.975C437.692 196.951 437.563 196.969 437.47 197.027C437.341 196.969 437.183 196.945 436.995 196.957C436.819 196.957 436.661 196.934 436.521 196.887C436.333 197.133 436.163 197.396 436.011 197.678C435.858 197.959 435.724 198.258 435.606 198.574C436.005 198.633 436.333 198.656 436.591 198.645C436.86 198.633 437.112 198.615 437.347 198.592C437.581 198.557 437.821 198.527 438.067 198.504C438.313 198.469 438.624 198.457 438.999 198.469C439.233 198.34 439.509 198.258 439.825 198.223C440.153 198.176 440.452 198.105 440.722 198.012C440.815 198.047 440.897 198.111 440.968 198.205C441.038 198.287 441.103 198.369 441.161 198.451C441.231 198.521 441.302 198.586 441.372 198.645C441.442 198.703 441.53 198.727 441.636 198.715C441.683 198.762 441.712 198.82 441.724 198.891C441.747 198.949 441.765 199.008 441.776 199.066C441.788 199.125 441.806 199.178 441.829 199.225C441.864 199.26 441.917 199.271 441.987 199.26C441.812 199.646 441.606 199.945 441.372 200.156C441.149 200.355 440.892 200.508 440.599 200.613C440.306 200.719 439.978 200.801 439.614 200.859C439.263 200.918 438.87 200.988 438.437 201.07C438.331 201.094 438.243 201.088 438.173 201.053C438.103 201.029 438.021 201.018 437.927 201.018C437.657 201.076 437.335 201.129 436.96 201.176C436.585 201.223 436.204 201.24 435.817 201.229C435.431 201.217 435.062 201.164 434.71 201.07C434.358 200.988 434.071 200.836 433.849 200.613C433.755 200.531 433.69 200.438 433.655 200.332C433.632 200.215 433.556 200.127 433.427 200.068C433.415 199.916 433.392 199.746 433.356 199.559C433.321 199.371 433.286 199.178 433.251 198.979C433.216 198.768 433.187 198.562 433.163 198.363C433.151 198.164 433.163 197.982 433.198 197.818C433.233 197.643 433.304 197.484 433.409 197.344C433.526 197.203 433.567 197.051 433.532 196.887C433.591 196.875 433.626 196.846 433.638 196.799C433.649 196.74 433.696 196.717 433.778 196.729C433.849 196.518 433.925 196.318 434.007 196.131C434.089 195.943 434.171 195.762 434.253 195.586C434.347 195.41 434.435 195.234 434.517 195.059C434.61 194.871 434.698 194.666 434.78 194.443C434.616 194.291 434.493 194.127 434.411 193.951C434.341 193.764 434.288 193.582 434.253 193.406C434.218 193.219 434.188 193.031 434.165 192.844C434.142 192.645 434.101 192.445 434.042 192.246C434.159 192.07 434.3 191.93 434.464 191.824C434.64 191.707 434.827 191.613 435.026 191.543C435.226 191.473 435.442 191.414 435.677 191.367C435.911 191.32 436.157 191.268 436.415 191.209C436.884 191.057 437.3 190.939 437.663 190.857C438.038 190.775 438.401 190.711 438.753 190.664C439.116 190.605 439.491 190.553 439.878 190.506C440.265 190.459 440.704 190.389 441.196 190.295C441.302 190.4 441.401 190.453 441.495 190.453C441.542 190.348 441.595 190.318 441.653 190.365C441.724 190.4 441.753 190.365 441.741 190.26C441.858 190.459 442.005 190.629 442.181 190.77C442.368 190.898 442.573 191.01 442.796 191.104Z" fill="#F7F7F7"/>
<path d="M442.532 198.381C442.603 198.439 442.72 198.51 442.884 198.592C443.06 198.662 443.241 198.738 443.429 198.82C443.616 198.891 443.792 198.955 443.956 199.014C444.12 199.072 444.237 199.107 444.308 199.119C444.437 199.354 444.507 199.564 444.519 199.752C444.542 199.928 444.571 200.115 444.606 200.314C444.548 200.373 444.507 200.473 444.483 200.613C444.472 200.742 444.466 200.836 444.466 200.895C444.454 200.988 444.431 201.041 444.396 201.053C444.36 201.076 444.331 201.129 444.308 201.211C444.296 201.234 444.302 201.27 444.325 201.316C444.349 201.363 444.354 201.398 444.343 201.422C444.331 201.48 444.302 201.51 444.255 201.51C444.22 201.521 444.19 201.557 444.167 201.615C444.12 201.744 444.085 201.82 444.062 201.844C444.05 201.879 444.038 201.896 444.026 201.896C444.026 201.908 444.015 201.92 443.991 201.932C443.979 201.955 443.944 202.025 443.886 202.143C443.804 202.318 443.704 202.488 443.587 202.652C443.47 202.828 443.394 202.998 443.358 203.162C443.194 203.303 442.989 203.479 442.743 203.689C442.509 203.912 442.286 204.064 442.075 204.146C441.97 204.1 441.806 204.023 441.583 203.918C441.349 203.812 441.132 203.695 440.933 203.566C440.722 203.438 440.563 203.297 440.458 203.145C440.353 202.992 440.364 202.852 440.493 202.723C440.704 202.5 440.892 202.23 441.056 201.914C441.208 201.609 441.343 201.281 441.46 200.93C441.577 200.566 441.683 200.197 441.776 199.822C441.858 199.436 441.94 199.066 442.022 198.715C442.069 198.762 442.116 198.779 442.163 198.768C442.21 198.744 442.257 198.715 442.304 198.68C442.351 198.633 442.392 198.58 442.427 198.521C442.462 198.463 442.497 198.416 442.532 198.381Z" fill="#F7F7F7"/>
<path d="M453.097 191.086C453.085 190.992 453.062 190.91 453.026 190.84C453.003 190.758 452.974 190.67 452.938 190.576C452.88 190.436 452.827 190.283 452.78 190.119C452.733 189.955 452.71 189.762 452.71 189.539C452.733 189.422 452.763 189.34 452.798 189.293C452.833 189.234 452.868 189.188 452.903 189.152L452.974 188.836H453.237C453.331 188.848 453.425 188.854 453.519 188.854C453.624 188.854 453.724 188.854 453.817 188.854C454.263 188.854 454.72 188.836 455.188 188.801C455.657 188.766 456.138 188.725 456.63 188.678C457.169 188.607 457.749 188.555 458.37 188.52C458.429 188.391 458.464 188.309 458.476 188.273C458.499 188.238 458.522 188.197 458.546 188.15L458.739 188.045C459.009 188.033 459.196 188.068 459.302 188.15C459.407 188.221 459.489 188.291 459.548 188.361C459.853 188.338 460.163 188.309 460.479 188.273C460.796 188.227 461.124 188.18 461.464 188.133C461.933 188.074 462.407 188.016 462.888 187.957C463.368 187.898 463.837 187.869 464.294 187.869C464.493 187.869 464.681 187.875 464.856 187.887C465.032 187.898 465.202 187.916 465.366 187.939L465.577 188.098C465.624 188.18 465.683 188.256 465.753 188.326C465.823 188.396 465.905 188.467 465.999 188.537C466.175 188.678 466.345 188.854 466.509 189.064C466.685 189.275 466.749 189.586 466.702 189.996L466.614 190.172C466.567 190.219 466.509 190.266 466.438 190.312L466.263 190.541H466.069C465.952 190.541 465.864 190.553 465.806 190.576C465.747 190.588 465.677 190.611 465.595 190.646C465.548 190.67 465.495 190.693 465.437 190.717C465.378 190.729 465.313 190.746 465.243 190.77C465.114 190.758 465.015 190.752 464.944 190.752C464.874 190.752 464.792 190.752 464.698 190.752C464.347 190.752 463.966 190.775 463.556 190.822C463.146 190.869 462.747 190.922 462.36 190.98C462.079 191.016 461.81 191.051 461.552 191.086C461.294 191.109 461.06 191.133 460.849 191.156C460.731 191.461 460.626 191.73 460.532 191.965C460.438 192.199 460.339 192.434 460.233 192.668C460.128 192.902 460.028 193.143 459.935 193.389C459.841 193.623 459.753 193.887 459.671 194.18C459.53 194.391 459.413 194.596 459.319 194.795C459.226 194.982 459.149 195.199 459.091 195.445C458.915 195.645 458.786 195.861 458.704 196.096C458.634 196.33 458.569 196.529 458.511 196.693L458.44 196.957C458.358 197.039 458.306 197.104 458.282 197.15C458.271 197.197 458.241 197.25 458.194 197.309C458.159 197.461 458.112 197.607 458.054 197.748C458.03 197.807 458.007 197.871 457.983 197.941C457.96 198 457.954 198.047 457.966 198.082C457.942 198.211 457.907 198.311 457.86 198.381C457.86 198.451 457.854 198.521 457.843 198.592C457.831 198.662 457.819 198.732 457.808 198.803C457.784 198.885 457.767 198.961 457.755 199.031C457.743 199.09 457.749 199.148 457.772 199.207C457.808 199.254 457.843 199.301 457.878 199.348C457.913 199.395 457.942 199.453 457.966 199.523C457.989 199.547 458.019 199.564 458.054 199.576C458.089 199.588 458.118 199.605 458.142 199.629C458.235 199.711 458.323 199.758 458.405 199.77L458.581 199.98C458.651 200.402 458.587 200.73 458.388 200.965C458.177 201.234 457.825 201.369 457.333 201.369L457.087 201.352C457.005 201.27 456.958 201.217 456.946 201.193C456.841 201.146 456.753 201.105 456.683 201.07C456.612 201.047 456.548 200.994 456.489 200.912C456.466 200.889 456.437 200.877 456.401 200.877C456.366 200.865 456.337 200.848 456.313 200.824C456.196 200.789 456.103 200.748 456.032 200.701L455.839 200.596C455.851 200.479 455.856 200.396 455.856 200.35C455.763 200.221 455.687 200.08 455.628 199.928C455.581 199.775 455.54 199.617 455.505 199.453C455.47 199.324 455.435 199.207 455.399 199.102C455.376 198.996 455.335 198.902 455.276 198.82C455.253 198 455.329 197.314 455.505 196.764C455.681 196.201 455.874 195.656 456.085 195.129C456.202 194.848 456.313 194.561 456.419 194.268C456.524 193.975 456.618 193.676 456.7 193.371L456.894 193.178C456.976 193.107 457.028 193.066 457.052 193.055C457.052 192.902 457.081 192.756 457.14 192.615C457.198 192.463 457.263 192.311 457.333 192.158C457.38 192.064 457.421 191.971 457.456 191.877C457.503 191.783 457.532 191.701 457.544 191.631C457.462 191.631 457.386 191.637 457.315 191.648C457.257 191.648 457.192 191.654 457.122 191.666C456.97 191.701 456.823 191.719 456.683 191.719C456.577 191.719 456.501 191.713 456.454 191.701C456.36 191.748 456.272 191.777 456.19 191.789C456.108 191.789 456.026 191.789 455.944 191.789H455.522C455.382 191.789 455.271 191.807 455.188 191.842C455.024 191.842 454.919 191.842 454.872 191.842C454.825 191.842 454.772 191.842 454.714 191.842H454.292C454.198 191.842 454.093 191.836 453.976 191.824C453.858 191.801 453.735 191.754 453.606 191.684L453.483 191.543C453.413 191.414 453.349 191.344 453.29 191.332L453.097 191.279V191.086Z" fill="#F7F7F7"/>
<path d="M466.825 199.348C466.708 199.441 466.638 199.564 466.614 199.717C466.591 199.857 466.562 199.998 466.526 200.139C466.491 200.279 466.427 200.402 466.333 200.508C466.251 200.602 466.099 200.643 465.876 200.631C465.829 200.689 465.817 200.725 465.841 200.736C465.876 200.748 465.905 200.801 465.929 200.895C465.765 200.871 465.647 200.883 465.577 200.93C465.507 200.977 465.419 201.012 465.313 201.035C465.044 200.953 464.815 200.807 464.628 200.596C464.452 200.373 464.294 200.133 464.153 199.875C464.024 199.617 463.907 199.354 463.802 199.084C463.708 198.814 463.608 198.58 463.503 198.381C463.503 198.334 463.526 198.316 463.573 198.328C463.608 198.328 463.644 198.328 463.679 198.328C463.62 198.211 463.579 198.082 463.556 197.941C463.521 197.789 463.462 197.666 463.38 197.572C463.72 196.846 464.083 196.09 464.47 195.305C464.856 194.508 465.243 193.705 465.63 192.896C466.028 192.076 466.421 191.256 466.808 190.436C467.206 189.604 467.587 188.789 467.95 187.992C468.278 188.109 468.595 188.25 468.899 188.414C469.216 188.566 469.503 188.748 469.761 188.959C470.019 189.17 470.235 189.416 470.411 189.697C470.599 189.967 470.722 190.277 470.78 190.629C470.757 190.699 470.728 190.723 470.692 190.699C470.657 190.676 470.628 190.688 470.604 190.734C470.663 190.805 470.692 190.857 470.692 190.893C470.704 190.916 470.704 190.945 470.692 190.98C470.681 191.004 470.675 191.039 470.675 191.086C470.675 191.133 470.704 191.197 470.763 191.279C470.704 191.268 470.663 191.279 470.64 191.314C470.616 191.338 470.575 191.338 470.517 191.314C470.575 191.479 470.593 191.607 470.569 191.701C470.546 191.795 470.511 191.883 470.464 191.965C470.417 192.035 470.376 192.117 470.341 192.211C470.317 192.293 470.329 192.41 470.376 192.562C470.329 192.562 470.294 192.574 470.271 192.598C470.259 192.609 470.247 192.627 470.235 192.65C470.224 192.674 470.206 192.697 470.183 192.721C470.171 192.732 470.142 192.732 470.095 192.721C470.13 193.025 470.142 193.336 470.13 193.652C470.118 193.957 470.106 194.273 470.095 194.602C470.083 194.918 470.083 195.246 470.095 195.586C470.106 195.926 470.153 196.277 470.235 196.641C470.739 196.348 471.144 195.967 471.448 195.498C471.765 195.029 472.011 194.508 472.187 193.934C472.374 193.359 472.515 192.744 472.608 192.088C472.714 191.432 472.819 190.764 472.925 190.084C473.054 189.955 473.153 189.797 473.224 189.609C473.306 189.422 473.37 189.229 473.417 189.029C473.476 188.83 473.528 188.631 473.575 188.432C473.634 188.221 473.71 188.033 473.804 187.869C474.015 187.893 474.19 187.957 474.331 188.062C474.483 188.156 474.624 188.268 474.753 188.396C474.882 188.514 475.017 188.625 475.157 188.73C475.298 188.836 475.474 188.906 475.685 188.941C475.849 189.176 476.001 189.404 476.142 189.627C476.282 189.838 476.376 190.078 476.423 190.348C476.353 190.465 476.3 190.594 476.265 190.734C476.229 190.875 476.188 191.016 476.142 191.156C476.106 191.297 476.054 191.426 475.983 191.543C475.913 191.66 475.813 191.76 475.685 191.842C475.649 192.193 475.597 192.521 475.526 192.826C475.456 193.131 475.392 193.43 475.333 193.723C475.274 194.016 475.222 194.32 475.175 194.637C475.128 194.953 475.11 195.299 475.122 195.674C475.017 196.014 474.899 196.365 474.771 196.729C474.642 197.08 474.548 197.408 474.489 197.713C474.267 197.889 474.091 198.105 473.962 198.363C473.833 198.621 473.698 198.879 473.558 199.137C473.499 199.184 473.464 199.195 473.452 199.172C473.44 199.137 473.388 199.113 473.294 199.102C473.306 199.207 473.282 199.277 473.224 199.312C473.177 199.336 473.183 199.418 473.241 199.559C473.042 199.652 472.866 199.775 472.714 199.928C472.562 200.08 472.392 200.221 472.204 200.35C472.028 200.479 471.817 200.566 471.571 200.613C471.337 200.648 471.026 200.596 470.64 200.455C470.065 200.033 469.55 199.547 469.093 198.996C468.636 198.445 468.272 197.795 468.003 197.045C467.886 197.08 467.798 197.156 467.739 197.273C467.681 197.391 467.628 197.514 467.581 197.643C467.534 197.771 467.487 197.889 467.44 197.994C467.394 198.1 467.323 198.152 467.229 198.152C467.206 198.258 467.159 198.357 467.089 198.451C467.03 198.533 466.972 198.621 466.913 198.715C466.854 198.797 466.808 198.891 466.772 198.996C466.749 199.102 466.767 199.219 466.825 199.348Z" fill="#F7F7F7"/>
<path d="M416.5 209L418.857 216.255H426.486L420.314 220.739L422.672 227.995L416.5 223.511L410.328 227.995L412.686 220.739L406.514 216.255H414.143L416.5 209Z" fill="#1BFEC0"/>
</svg>
