<svg width="600" height="385" fill="none" xmlns="http://www.w3.org/2000/svg"><path d="M584.2 78.686c.7 0 1-.1 1.2 0 4.5 2.3 4.5 3 .2 6-2.6 1.8-5 4-7.8 6.2-.6-.2-1.6-.6-2.7-1-.3.7-.4 1.2-.6 1.7-.7 2.3-1.8 4-4.2 5.2-6.5 3.3-12.5 7.3-17.3 12.8-1.9 2.2-3.3 4.6-3.2 7.6.1 1.7.5 2.9 2.5 3 .6.1 1.6 1.1 1.6 1.6-.5 7-1.4 13.8-4.5 20.2-.1.2-.4.2-.8.4-.5-4.6-4.7-2.6-6.9-4.4-.9 3.9.1 5.8 4.2 7.8 1.5.7 2 1.6 1.9 3-.4 4.8-.7 9.6-1.2 14.4-.1 1.3-1 2.5-1.5 3.8-.3-.1-.6-.2-.9-.2.3-1.6.4-3.3.8-4.8.3-1.3.2-1.9-1.2-2.7-1.3-.7-2.1-2.3-3.1-3.5-.8-.9-1.7-1.7-2.5-2.6-.5-.6-.9-1.2-1.3-1.9-.2-.3-.1-1-.3-1.2-2.8-2.3-1.8-5.2-1.5-8 .1-.7-.3-1.4-.5-2.1-.6.5-1.3.8-1.8 1.4-.5.6-.7 1.5-1.1 2.2-1.2 1.9-1.4 3.7-.1 5.8 1.6 2.7 2.9 5.7 4.4 8.6-1.7 1.4-1.7 1.5.7 3.3.1.1.3.2.4.3.4.9.9 1.9 1.3 2.8-1 .4-2 .7-3.4 1.2 1 .9 2.1 1.7 3 2.7.4.4.6 1.6.4 1.7-2.2 1.3-1.2 2 .3 2.8.4.2.6.7.8.9-.9.6-1.7 1.1-2.5 1.7.9.3 1.9.6 2.9.8.8.1 1.7 0 2.5-.1 2.7-.1 4.7 1.8 4.6 4.5 0 .3-.1.7-.1 1 .1 1.3.8 3.6.4 3.8-1.9 1-4.1 1.5-6.2 2.2-.4.1-.8.1-1.4.2v2.5c.1 1.6.9 1.9 2.4 1.6 1.9-.4 3.9-.4 5.8-.9 1.2-.3 2.2-1.3 3.5-2.1 1.8 1.5 2.1 3.1.4 6.4-.9 1.9-2.5 3.3-4.9 2.9-2.9-.4-3.6.1-4.4 3.4.7.2 1.4.3 2.1.5 1.2 3.1-2.4 3.7-3.4 5.7 3 1.4 4.5-.7 6.4-2.2 1.1 1.3.9 2.2-.4 3.1-3.1 2.2-6.2 4.4-9.2 6.7-1.7 1.2-2.6 2.8-2.8 5-.3 4.5-1.6 5.8-6 7-2.2.6-3.4 1.8-4.4 4.1-2.5 5.2-5.4 10.3-8.7 15-2.5 3.6-5.3 7.1-8.8 9.7-2.6 1.9-3.4 3.7-3.6 6.7-.2 2.9-1 5.7-2 8.5-1.5 4.3-2.3 8.5-.8 12.9.6 1.8.5 3.3-1.2 4.6-.6.5-1.2 1.5-1.2 2.3 0 .8.9 1.5 1.4 2.3.4-.6.8-1.2 1.2-1.9.3-.4.5-.9 1.1-1.5.9 10.1 8.1 16.4 13.9 23.6-2.1 1.1-.9 2.3-.2 3.6 3.2 6 6.7 12 9.6 18.2 2.8 5.9 3.7 12.3 2.7 18.7-.5 3-1.5 6.1-3.2 8.5-1.2 1.6-4.1 1.9-6.3 2.8-.1-.3-.2-.5-.3-.8.5-.6.9-1.2 1.5-2-1.9-1.1-4.2-1.9-5.5-3.4-3-3.4-5.5-7.1-8.2-10.8-.8-1.1-1.3-2.3-2-3.4-1.3-2-2.9-3.6-5.7-3.1-.8.1-2.2-.5-2.6-1.2-1.2-2.4-3.7-4.4-2.1-7.6.3-.7-.4-2-.9-2.9-.2-.3-1.4.2-2.7.4-.3-1.3-1-2.9-1.1-4.5-.2-2.1 0-4.2.2-6.2.4-5-2.2-7.4-6.6-8.6-3.1-.8-5.7-2.2-6.9-5.1-1.5-3.6-4.1-4.4-7.6-3.9-.9.1-1.8.1-2.7.2-.9 3.2-5.5 6.7-8.7 6.4-1.1-.1-2.4-.9-3.1-1.8-2.7-3.1-6.1-4.3-10.2-4.2-3.8.1-7.7-.1-11.5.1-.8 0-1.9.6-2.3 1.3-1.7 2.6-5.6 3-7.7.7-1.1-1.3-2.3-1.2-3 .2-.9 1.8-2.2 2-3.9 1.9-1.8-.1-3.7 0-5.5.3-1.3.2-2.8.7-3.6 1.7-3.3 3.7-6.7 2.9-9.9 1.3-1.6-.8-5.3-.4-6.4.9-.9 1 .3 3.5 1.9 3.5 1.7.1 3.5-.6 5.2-.7.7-.1 1.5.4 2.3.7.6.2 1.2.8 1.9.8 1.2 0 2.5-.4 3.7-.3.6 0 1.1.6 1.7 1-.4.6-.7 1.3-1.3 1.8-.6.5-1.6.6-2 1.2-1.1 1.3-.8 2.6.7 3.5 1.3.8 2.7 1.5 4.1 2.3 1.1.6 1.8 1.3.6 2.5-.9.9-1.6 2.5-3.4 1-2.9-2.4-6-4.7-9.1-6.9-.6-.4-1.5-.5-2.3-.6-.2 0-.6.7-.6.9.2.6.5 1.1.9 1.6.7.8 1.7 1.5 2.2 2.4.7 1.4.2 2.2-1.5 2.7-2.8.8-5.6 1.9-8.4 2.8-1.6.5-4.4-1.7-4.5-3.5-.2-2.1-.2-4.3-.7-6.4-.3-1-1.5-1.7-2.4-2.5-.3.2-.5.4-.8.6.3.8.5 1.6.8 2.4.3.8.6 1.6 1.2 3-2-.8-3.5-1.1-4.8-1.9-2.3-1.4-3.8-.6-4.9 1.5-.7 1.4-1.7 1.9-3.2 1.8-3.6-.1-7.3.2-10.7-1.6-.7-.4-2 .1-3 .5-4.3 1.5-8.5 3.2-12.8 4.7-.6.2-1.3.2-1.8.3-.2-.3-.3-.4-.4-.6-.6-1.1-1.3-2.3-1.9-3.4-.6 1.1-1.4 2.1-1.7 3.2-1.7 7-6.3 11.1-14.4 12.5-1 .2-2 .2-3 .4-.6.1-1.5.6-1.5.9 0 3.3-2.2 3.2-4.6 3.1-1.3 4.4-6.2 6-7.6 10.5v5.2l-3 1c.7.8 1.4 1.5 2.1 2.3.1-.1.2-.1.2-.2.1.2.2.3.2.5-1.2 3.8-1 7.4 1 10.9.7 1.2.3 3.1.6 4.6.2 1 .9 1.8 1.4 2.9-1.8.9-3.5 1-5.8-.4-3.2-1.8-7-2.8-10.6-3.2-6.3-.7-9.5-4.5-11.3-10-1-2.9-1.6-5.9-2.6-8.8-.3-1-1-1.9-1.6-2.7-4.5-5.7-9.4-11-13.3-17-1.7-2.6-3.3-4.7-5.7-6.5-.8-.6-1.3-1.7-1.8-2.6-2.4-4.3-7.5-6.3-11.8-3.9-3.3 1.8-6.2 4.4-8.9 7-3.6 3.4-3.1 4.4-8.6 1.2-7-4-12.3-9.5-15.4-17-1-2.4-1.4-5.1-2.7-7.3-1.1-1.8-2.9-3.3-4.5-4.7-3.9-3.2-8-6.2-10.3-10.9-.3-.6-1.3-1.1-2-1.1-6-.6-11.9-1.1-17.9-1.7-2.1-.2-3 .6-3.1 2.6 0 .7-.2 1.5-.2 2.2-.1 1.4-.8 2-2.3 1.8-9.9-1.2-19.8-2.8-29.7-3.3-5.3-.3-8.3-3.6-12.2-5.8-6.4-3.7-13-7.2-19.4-10.9-2.4-1.4-4.6-3.2-7-4.6-2.1-1.2-4.3-2.2-6.4-3.2-.7-.3-1.6-.5-1.9-1-2.3-4.1-6.5-3.3-10-3.9-6-1.2-12.1-1.9-18.2-2.9-.7-.1-1.7-1.3-1.8-2-.7-4.9-1.1-9.8-3.8-14.1-1.3-2.1-2.6-4.3-5.5-4.6-2-.2-2.7-1.5-3.4-3.2-.4-.9-1.3-2.1-2.1-2.3-3.7-.7-5.7-3.2-7.4-6.2-1-1.8-2.2-2.7-4.4-3.3-3.2-.8-6-2.9-8.9-4.6-.4-.3-.6-1.3-.6-1.9.2-1.4.6-2.8.8-4.1.4-2.3.3-4.2-1.1-6.5-2.8-4.5-4.9-9.5-7.2-14.4-1.4-2.8-2.6-5.5-.2-8.6.5-.6-.3-2.4-.8-3.5-.3-.6-.9-1.2-1.5-1.6-3.9-2.6-2.7-6.6-2.6-10.2 0-.4.8-.7 1-1.2.3-.8.6-1.8.4-2.6-.1-.4-1.3-.8-1.9-.8-1.9.1-4.4-3.2-4-5.1.3-1.5.3-3.3-.1-4.7-1-3.2-2.3-6.4-3.5-9.5-.1-.4-.2-.8-.1-1.2 2.3-5.7 1.6-11.3-.8-16.8-1.6-3.6-.5-7.7 2.7-10.1 1.6-1.2 2.1-2.6 2.2-4.7-.2-14.2 1.7-27.9 9.5-40.1.6-.9 1.1-1.8 1.8-2.7 1.7-2.1 3.3-4.2 3.1-7.3-.1-1.2.8-2.7 1.7-3.8 3.2-3.8 4.4-8.3 5-13 .3-2.1 1.2-3.2 4.1-2.8-.9-1.5-1.3-2.5-2-3.4-.8-1-1-1.6.4-2.3.5-.3 1.3-1.2 1.2-1.5-1.4-3.5.7-7-.3-10.7-.9-3.6-.8-7.4-.9-11.2 0-.9.2-2.2.8-2.7.4-.4 1.8.1 2.6.5 4.8 2.6 9.5 5.3 14.5 8.2-.6.8-1.3 1.3-1.5 2-.2.9 0 1.9.1 2.9.1.8.8 1.8.6 2.2-.6.8-1.6 1.4-2.5 2-.7.4-1.6.5-2.3.8-.1.1.1 1.3.4 1.5.7.4 1.6.6 2.4.6 1-.1 1.9-.5 2.8-.9 1.5-.6 2.2-1.6 2-3.3-.2-2 .3-3.8 2.3-4.8.5-.2.9-1 .9-1.6-.2-3.7-.3-7.3-.8-11-.2-1.4-1.1-2.8-2-4.9 3.6 1.1 6.7 2 9.7 3 6.8 2.2 13.7 4 20.3 6.7 7.8 3.3 16.1 3.8 24.1 5.7 10.4 2.4 20.8 4.8 31.3 6.8 7.6 1.4 15.3 2.1 22.9 3.3 8.7 1.5 17.3 3.3 25.9 4.9 12.7 2.3 25.6 2.6 38.5 2.4 9-.1 17.9 1.2 26.9 1.4 12.5.3 25 .2 37.4.1 5.7 0 11.4-.4 17.1-.6 1.6-.1 3.2-.1 4.7-.3 2.5-.2 4.4-1.2 5.3-3.7.2-.6.8-1.2 1.5-2.3 1.2 2.6 2.1 4.7 3.1 6.7.4.7 1.3 1.5 2.1 1.6 3.3.4 6.6.7 9.9.8 2 .1 4 .1 6-.2 2.1-.4 3.5-.1 4 2.2.1.5.5 1 .8 1.8 3-2.7 5.4-.3 7.6 1.1 1.5 1 2.7 1.1 4.3.6 4.6-1.3 9.3-1.5 14.3.1-3.7 2.9-7.6 5.3-10.8 8.4-3.3 3.2-5.8 7.2-9 11.2 4.2 1.3 7.4-.5 10.6-2.1.3.3.6.6.6.9.8 3.5.9 3.5 4.5 2.8 5.4-1 9.5-4.1 13.4-7.7 2.8-2.5 5.7-4.8 8.6-7.1.5-.4 1.2-.6 2-.7-1.7 2.6-4.6 4.6-3.4 8.3.2.1.3.3.4.3 4.2-1.6 7.3.9 10.5 2.9 4.1 2.6 6.6 2.3 10.3-.8 2-1.6 4.4-2.7 6.7-3.9 1.1-.6 2.4-1 3.8-1.6.1.5.3 1 .4 1.6.3 2.5 1.8 3.6 4.3 3.2l1.5-.3c3.2-.9 4.6-.1 5.7 2.9-1.9.9-3.8 1.9-5.7 2.6-.6.2-1.4-.2-2.1-.4-2.8-1-5.2-1.6-7.6 1.4-2 2.6-5.1 4.4-7.8 6.6-.2-1.4-.3-1.9-2.4-1.5-3 .5-2.6 2.3-3.3 4-1.6 4-3.5 7.9-5 11.9-.4 1.1 0 2.5 0 3.8.8-.9 1.7-1.8 2.4-2.8 1.4-2 2.8-4.1 4.1-6.2.3.1.7.3 1 .4-.2 1.4-.5 2.8-.7 4.2-1.2 6.8-2.8 13.7-3.5 20.5-.3 2.8 1.2 5.7 1.8 8.6.3 1.6.8 3.2.8 4.9 0 3.7.7 7.2 3.9 9.4.9.7 2.7 1 3.7.6 4-1.7 5.9-5.1 6.8-9.2 1.5-6.8.4-13.4-2.6-19.4-2.1-4.3-1.5-8.3-1.1-12.6 0-.4.3-.8.2-1.2-.7-4.3 2.1-6.9 5.1-9.7.2.6.3 1.2.5 1.6.4.6 1 1.1 1.5 1.6.4-.6 1-1.3 1-1.9 0-2.1.1-3.9 2-5.3.4-.3 0-1.9-.1-3.6 1.8-2.6 2.3-2.7 6.1-1.4 2.9 1 5.9 1.7 8.8 2.6 1.6.5 2.9 1 2.5 3.2-.1.6.3 1.4.8 2 2.6 3.1 2.2 6.4.7 9.8-.7 1.6-1.6 3.1-2.4 4.6-.3.7-.8 1.4-.8 2 .1.8.6 1.5 1 2.3.7-.4 1.4-.7 1.9-1.2 1.8-1.8 3.5-3.7 5.4-5.4.5-.4 2.4-.1 2.6.3 2.3 4.4 4.4 8.9 6.4 13.4.8 1.9.9 3.5-1.8 4.1-.7.1-1.5 1.3-1.7 2.1-1 3.6-1.9 7.2-2.8 10.8-.8 2.9-.4 2.7 2.2 4 4.3 2.3 7.5.6 11.6-1.1 9.8-4 15.9-12.1 23-19 2.2-2.1 4.1-4.6 6.5-6.6 2-1.7 2.1-3.2.8-5.1-.8-1.2-1.7-2.5-2.8-4.1 1-.5 1.9-1 2.8-1.3 4.9-1.4 9.9-2.4 14.6-4 2.3-.8 4.1-3.1 6.5-4 3.8-1.5 4.8-3.6 3.7-7.4-.5-1.8-.4-3.6-3-3.5-1.5 0-1.7-1.1-1.1-2.3.3-.5.6-1 1-1.4 1.8-1.7 2.8-3.5 3.3-6.2.5-2.8 2.8-5.6 5-7.7 3-3 7-4.4 11.2-5.5 4.6-1.2 8.9-3.5 13.3-5.4 2.4-1 4.9-1.9 7.3-2.9.7-.3 1.7-.9 1.8-1.4.2-3.2 2.6-3.7 5.1-4.4.9-11.9.2-24 4-36.2 2.9 2.7 4.9 1.7 6.9-.5 3.6-3.8 7.5-3.2 9.9 1.5 1.8 3.6 2.9 7.5 4.5 11.3.4 1 1 2 1.9 2.6 1.8 1.5 3.9 2.6 5.8 4.1 1.8 1.4 3.5 3 5.1 4.6.5.5.8 1.7.5 2.2-1.2 1.8-2.7 3.3-4.1 5-.9 1-1.7 2-2.6 3-.6.7-1.4 1.2-2 1.9-.5.5-1.1 1.1-1.5 1.7-.4.6-.7 1.2-1 2-.5-.3-.8-.5-1.1-.6-.8-.4-1.5-.9-2.3-1.3 0 .8 0 1.6-.1 2.4-.4 1.6-.6 3.4-1.5 4.9-2.8 4.7-5.9 9.2-8.7 13.9-.8 1.4-1.3 3-1.9 4.6-.9 2.3-.3 4.2 1.3 5.9.5.5 1.1 1.7.8 2.2-1.3 2.4-.1 4.2 1.2 5.9 1 1.2 2.3 2.2 3.2 3.4 1.1 1.5 2.3 1.7 4.1 1.2 3.2-.9 3.7-1.9 1.9-4.9.1-.4-.1-.7-.5-1.3z" fill="#1D0A47"/><path d="M361.216 199.348a.562.562 0 00-.211.369c-.024.14-.053.281-.088.422a.873.873 0 01-.193.369c-.082.094-.235.135-.457.123-.047.058-.059.094-.036.105.036.012.065.065.088.159-.164-.024-.281-.012-.351.035a.767.767 0 01-.264.105 1.472 1.472 0 01-.685-.439 5.134 5.134 0 01-.475-.721 9.655 9.655 0 01-.352-.791 5.004 5.004 0 00-.298-.703c0-.047.023-.065.07-.053h.105a1.392 1.392 0 01-.123-.387.836.836 0 00-.175-.369c.339-.726.703-1.482 1.089-2.267.387-.797.774-1.6 1.161-2.409.398-.82.791-1.64 1.177-2.46.399-.832.78-1.647 1.143-2.444.328.117.644.258.949.422.316.152.604.334.861.545.258.211.475.457.651.738.187.27.31.58.369.932-.024.07-.053.094-.088.07-.035-.023-.064-.011-.088.035.059.071.088.123.088.159.012.023.012.052 0 .087a.244.244 0 00-.018.106c0 .047.03.111.088.193-.058-.011-.099 0-.123.035-.023.024-.064.024-.123 0 .059.165.076.293.053.387a1.014 1.014 0 01-.106.264c-.046.07-.087.152-.123.246-.023.082-.011.199.036.351-.047 0-.082.012-.106.036a.194.194 0 00-.035.052.273.273 0 01-.053.071c-.011.011-.041.011-.088 0 .036.304.047.615.036.931l-.036.95a14.67 14.67 0 000 .984c.012.34.059.691.141 1.055a3.55 3.55 0 001.213-1.143c.316-.469.562-.99.738-1.564.188-.575.328-1.19.422-1.846.105-.656.211-1.324.316-2.004.129-.129.229-.287.299-.475.082-.187.147-.38.194-.58.058-.199.111-.398.158-.597.058-.211.135-.399.228-.563.211.024.387.088.528.193.152.094.293.206.422.334.128.118.263.229.404.334.14.106.316.176.527.211.164.235.317.463.457.686.141.211.235.451.281.721-.07.117-.123.246-.158.386a5.46 5.46 0 01-.123.422c-.035.141-.088.27-.158.387a.908.908 0 01-.299.299 7.912 7.912 0 01-.158.984c-.07.305-.135.604-.193.897a18 18 0 00-.159.914 5.904 5.904 0 00-.052 1.037c-.106.34-.223.691-.352 1.055a6.27 6.27 0 00-.281.984 1.884 1.884 0 00-.527.65c-.129.258-.264.516-.405.774-.058.047-.094.058-.105.035-.012-.035-.065-.059-.158-.07.011.105-.012.175-.071.21-.047.024-.041.106.018.247a1.845 1.845 0 00-.528.369 3.646 3.646 0 01-.509.422 1.544 1.544 0 01-.633.263c-.234.035-.545-.017-.932-.158a8.69 8.69 0 01-1.547-1.459 6.416 6.416 0 01-1.089-1.951.42.42 0 00-.264.228 3.516 3.516 0 00-.158.37 5.555 5.555 0 01-.141.351c-.047.106-.117.158-.211.158a.76.76 0 01-.141.299c-.058.082-.117.17-.175.264a1.043 1.043 0 00-.141.281.556.556 0 00.053.352zM379.655 199.523c-.07.2-.176.405-.316.616a2.594 2.594 0 01-1.072.931 1.828 1.828 0 01-.704.176.834.834 0 01-.316-.123c-.047-.035-.1-.07-.158-.105a.42.42 0 00-.106-.053.254.254 0 00-.07-.053l-.211-.088.07-.228c.024-.094.018-.164-.017-.211a1.134 1.134 0 00-.211-.229l-.106-.105a.676.676 0 01-.087-.106l-.299-.334.474-.123c.293-.082.487-.187.58-.316.106-.129.147-.346.123-.651a1.508 1.508 0 00-.597-.017 9.056 9.056 0 00-.475.123c-.211.059-.428.111-.65.158a4.308 4.308 0 01-.703.053h-.264a9.195 9.195 0 00-.264-.035l-.175-.035c-.024-.129-.047-.2-.071-.211l-.07-.071a1.989 1.989 0 01-.193-.228.53.53 0 01-.036-.387.854.854 0 01-.105-.316c-.07.14-.123.287-.158.439l-.071.176-.175.035c-.024.012-.041.041-.053.088a.28.28 0 00-.018.088l-.088.299-.07.07a.27.27 0 00-.07.053 3.387 3.387 0 01-.088.316 6.77 6.77 0 01-.106.299 7.498 7.498 0 00-.158.457 1.285 1.285 0 00-.035.422l-.07.193a.89.89 0 01-.194.176l-.21.105a.421.421 0 01-.106.071.731.731 0 00-.088.035l-.053.193-.211.035-.281.053a.722.722 0 01-.176.018l-.175-.018a24.925 24.925 0 01-.299-.246 1.347 1.347 0 00-.246-.193c-.106-.141-.164-.246-.176-.317a6.523 6.523 0 00-.035-.193.56.56 0 01-.035-.176.225.225 0 00-.053-.105l-.229-.211.194-.158.017-.299a29.54 29.54 0 01.739-1.723l.826-1.687c.094-.188.181-.375.263-.563l.282-.562a.388.388 0 01.017-.282 7.81 7.81 0 00.317-.527l.246-.492c.094-.199.187-.393.281-.58.106-.188.234-.381.387-.58l.281-.123c.035-.012.076-.024.123-.036a.356.356 0 01.158-.035l.264.035c.328-.152.615-.363.861-.632a9.88 9.88 0 00.756-1.002l.176-.246.228.14c.059.035.141.071.247.106.105.023.216.052.334.088.21.046.41.099.597.158.188.058.34.146.457.263.071.188.112.329.123.422.012.094.03.188.053.282.035.199.064.398.088.597.035.199.058.422.07.668.059.199.106.399.141.598.047.187.088.381.123.58.058.281.117.557.176.826.058.258.134.504.228.738.094 0 .152.006.176.018.059-.023.117-.041.176-.053l.228-.035.194-.017.07.175c.012.059.07.117.176.176.152.012.263.047.334.106.07.046.134.099.193.158a.537.537 0 00.141.105l.263.106-.14.263a2.414 2.414 0 01-.51.616 3.083 3.083 0 01-.721.474c.012.071.018.141.018.211a1.6 1.6 0 00.053.194c.035.199.064.404.087.615.024.211.024.427 0 .65l-.035.07zm-5.08-3.041c.352-.023.668-.046.949-.07.293-.035.616-.088.967-.158-.082-.352-.17-.715-.263-1.09a34.016 34.016 0 00-.299-1.143l-.106.176a8.3 8.3 0 00-.685.826c-.211.305-.393.592-.545.862l-.211.316c-.07.106-.135.211-.194.317.071-.012.135-.018.194-.018a.96.96 0 00.193-.018z" fill="#F7F7F7"/><path d="M380.745 193.09c.082-.246.211-.457.387-.633.187-.176.387-.322.597-.439.223-.129.452-.235.686-.317.234-.082.457-.152.668-.211.469-.199.967-.386 1.494-.562a19.672 19.672 0 011.635-.492 9.362 9.362 0 011.723-.264 5.103 5.103 0 011.845.211c.035.117.088.228.158.334l.211.316c.082.106.153.211.211.317a.7.7 0 01.106.298c.117.106.211.223.281.352.07.117.082.275.035.475a7.285 7.285 0 01-.351.263 2.494 2.494 0 01-.352.194 4.145 4.145 0 00-1.318-.106c-.446.035-.844.065-1.196.088a.526.526 0 00-.386-.158c-.141 0-.293.023-.457.07-.153.047-.311.094-.475.141a.951.951 0 01-.439.035 1.008 1.008 0 01-.44.193 22.22 22.22 0 01-.545.071c-.011.058 0 .099.035.123.036.011.041.047.018.105a.58.58 0 00.264.176l.351.105c.129.036.24.082.334.141a.384.384 0 01.194.246c.175 0 .328.041.457.123a1.116 1.116 0 01.492.686c.047.129.07.246.07.351.035.094.076.135.123.123.047-.011.1.012.158.071.035.152.123.31.264.474.141.153.252.322.334.51.023.293.041.557.053.791.011.223-.03.451-.123.686-.176.433-.422.82-.739 1.16-.304.34-.656.644-1.054.914-.387.258-.803.48-1.248.668a13.81 13.81 0 01-1.301.474.305.305 0 00-.141 0c-.047.012-.058-.017-.035-.088a.673.673 0 01-.316.159 1.152 1.152 0 01-.352.017c-.129 0-.264-.006-.404-.017a1.287 1.287 0 00-.369.017 4.287 4.287 0 01-.229-.246.794.794 0 01-.14-.281c-.059 0-.088-.029-.088-.088.011-.059-.006-.088-.053-.088.07-.117.1-.182.088-.193 0-.024-.018-.041-.053-.053l-.07-.035c-.024-.024-.03-.053-.018-.088a.563.563 0 00.053-.316 50.537 50.537 0 01-.035-.387 1.287 1.287 0 01.017-.369c.036-.117.123-.211.264-.282.398.047.773.036 1.125-.035a5.467 5.467 0 001.02-.334 9.05 9.05 0 00.896-.457c.293-.164.58-.31.861-.439a.806.806 0 01.141-.264c.07-.07.141-.135.211-.193.07-.059.135-.123.193-.194a.6.6 0 00.123-.263c.012-.082-.011-.129-.07-.141-.047-.023-.07-.07-.07-.14l-.194-.053a3.375 3.375 0 00-.756-.317 4.754 4.754 0 01-.72-.298.47.47 0 01-.369.052 3.682 3.682 0 00-.422-.105 12.486 12.486 0 01-1.16-.123 4.191 4.191 0 01-1.055-.317.731.731 0 00-.088-.158c-.035-.047-.1-.058-.193-.035a5.672 5.672 0 00-.211-.264 2.541 2.541 0 01-.194-.298c.024-.141.041-.258.053-.352a.378.378 0 00-.105-.299c.047-.152.082-.275.105-.369a.942.942 0 000-.369z" fill="#F7F7F7"/><path d="M397.813 199.295c.024.305-.011.557-.105.756a1.521 1.521 0 01-.387.51c-.164.14-.351.251-.562.334-.211.082-.416.158-.615.228l-.282-.176a.806.806 0 00-.299-.158 9.308 9.308 0 00-.439-.738 1.278 1.278 0 01-.193-.756c0-.012.006-.076.017-.193.024-.118.047-.247.071-.387.035-.141.058-.27.07-.387.023-.129.035-.199.035-.211a3.89 3.89 0 00-.844.176c-.293.094-.58.205-.861.334-.27.129-.527.258-.773.387-.235.129-.428.24-.581.334 0 .035-.023.123-.07.263a5.23 5.23 0 01-.176.422c-.07.141-.146.27-.228.387-.082.117-.164.176-.246.176.011.035.029.07.052.105.024.035.024.082 0 .141-.164.047-.31.105-.439.176a1.846 1.846 0 01-.404.193 1.17 1.17 0 01-.457.088c-.164 0-.358-.059-.58-.176a.22.22 0 00-.088-.176.748.748 0 00-.194-.14.926.926 0 00-.158-.106c-.047-.035-.07-.064-.07-.088-.059.012-.082-.029-.07-.123.011-.094.058-.117.14-.07a1.368 1.368 0 01-.246-.422 1.615 1.615 0 00-.193-.475.368.368 0 00.07-.123 3.66 3.66 0 01.035-.158.216.216 0 01.053-.105c.023-.024.053-.018.088.017a.485.485 0 010-.263c.023-.071.047-.135.07-.194a.958.958 0 00.053-.176c.012-.058-.006-.123-.053-.193.188-.258.311-.533.369-.826.059-.305.094-.58.106-.826.082-.082.152-.199.211-.352.07-.152.123-.304.158-.457.035-.164.047-.316.035-.457 0-.152-.018-.275-.053-.369.012-.059.076-.076.194-.053.07-.386.117-.82.14-1.3.035-.493.088-.956.158-1.389.071-.445.188-.832.352-1.16.164-.34.428-.563.791-.668.07.246.158.463.264.65.117.188.24.369.369.545.14.164.275.334.404.51.141.176.27.375.387.597a13.054 13.054 0 01-.211 1.67c-.047.305-.1.598-.158.879-.047.282-.094.522-.141.721.012.059.041.094.088.105.059.012.07.065.035.159.281-.071.574-.135.879-.194.305-.058.609-.123.914-.193.305-.07.598-.147.879-.229.293-.093.563-.205.809-.334.058-.457.134-.914.228-1.371.094-.457.106-.925.035-1.406a.509.509 0 00.141-.176.268.268 0 01.176-.14 2.326 2.326 0 01-.071-.703 2.79 2.79 0 01.123-.704c.082-.222.194-.41.334-.562.153-.164.334-.27.545-.316.129.187.241.392.334.615.094.211.188.427.282.65.105.211.211.416.316.615.117.188.264.352.439.493.036.339.059.691.071 1.054.023.364.041.733.052 1.108-.093.445-.199.879-.316 1.3-.105.411-.182.85-.228 1.319a1.103 1.103 0 00-.194.316c-.047.117-.094.24-.14.369-.047.118-.1.235-.159.352a1.253 1.253 0 01-.211.281.685.685 0 01.018.404c-.023.118.012.264.105.44zM405.144 197.906a1.368 1.368 0 01-.123.475c-.059.14-.135.281-.229.422a4.502 4.502 0 01-.316.386 3.948 3.948 0 01-.317.317c.035.152.035.269 0 .351a.932.932 0 00-.017.334c-.176.469-.446.78-.809.932a.94.94 0 01-1.002-.088 1.382 1.382 0 01-.334-.351.525.525 0 00-.351-.282 1.164 1.164 0 00-.053-.597c-.071-.2-.147-.305-.229-.317a7.946 7.946 0 00-.158-.791 21.315 21.315 0 01-.352-1.687c-.035-.281-.046-.539-.035-.774a.484.484 0 00-.07-.316 1.226 1.226 0 01-.105-.334 3.962 3.962 0 01-.053-.844c.023-.304.035-.592.035-.861 0-.258-.018-.533-.053-.826a87.927 87.927 0 00-.07-.862 8.936 8.936 0 01-.035-.755c0-.235.029-.417.088-.545a.872.872 0 01.281-.334c.129-.094.246-.194.351-.299a.86.86 0 01.616.316c.152.188.211.363.175.528.247.152.44.351.581.597.152.235.269.504.351.809.094.293.158.609.193.949.036.328.065.656.088.984.024.317.047.621.071.914.023.293.07.545.14.756.434-.621.797-1.172 1.09-1.652.293-.492.592-.961.897-1.406a19.1 19.1 0 011.019-1.354c.375-.457.862-.972 1.459-1.547a.803.803 0 01.281.071c.082.035.153.064.211.087.059.024.129.047.211.071.082.012.194.006.334-.018l.106.264c.023.047.041.1.052.158.024.047.047.111.071.193.035.082.088.2.158.352.035.035.047.082.035.141l-.035.175v.106c0 .023.029.023.088 0-.035.164-.1.316-.193.457a.765.765 0 00-.106.475c-.269.351-.568.714-.896 1.089-.317.375-.639.762-.967 1.161-.317.398-.621.82-.914 1.265a8.708 8.708 0 00-.756 1.371.19.19 0 00-.141.053 1.123 1.123 0 00-.07.123.809.809 0 01-.088.106c-.023.035-.059.052-.105.052zM411.753 199.77c.059.351.035.626-.07.826a.91.91 0 01-.422.439 1.301 1.301 0 01-.615.176c-.235.012-.458 0-.668-.035a2.708 2.708 0 01-.317-.615 14.616 14.616 0 01-.264-.756 28.48 28.48 0 01-.228-.791c-.059-.258-.111-.487-.158-.686.058-.14.093-.299.105-.474.024-.188.035-.375.035-.563a8.79 8.79 0 00.018-.562c.012-.2.029-.387.053-.563a8.84 8.84 0 01.351-1.406c.164-.446.293-.908.387-1.389a.44.44 0 00-.035-.299.416.416 0 01-.018-.263c.012-.047.047-.077.106-.088a.163.163 0 00.105-.123.61.61 0 00.018-.317.52.52 0 01.07-.299c.059-.093.129-.228.211-.404.094-.187.129-.381.105-.58a1.87 1.87 0 00.299-.246 2.582 2.582 0 01.616-.457c.128-.059.281-.088.457-.088a.83.83 0 01.175.387c.035.14.065.281.088.422.035.14.082.275.141.404a.632.632 0 00.299.281v.352c0 .14.006.281.017.422.012.129.035.252.071.369a.37.37 0 00.211.211 55.533 55.533 0 00-.598 1.67c-.176.55-.322 1.107-.44 1.67a11.43 11.43 0 00-.228 1.669 7.595 7.595 0 00.123 1.706zM418.433 200.807c-.329.105-.686.211-1.073.316a4.364 4.364 0 01-1.16.158c-.586 0-1.049-.146-1.388-.439a.96.96 0 00-.159-.264l-.105-.14a.935.935 0 01-.053-.229 1.925 1.925 0 01-.334-.563 3.574 3.574 0 01-.176-.667 4.73 4.73 0 01-.017-.704c.023-.234.064-.457.123-.668a.312.312 0 00.035-.14c.012-.047.023-.1.035-.158.047-.188.094-.37.141-.545a1.67 1.67 0 01.228-.457.456.456 0 010-.352c.047-.129.1-.246.158-.351.165-.446.299-.821.405-1.125.117-.317.234-.627.351-.932.2-.527.387-1.049.563-1.565.176-.515.334-1.072.474-1.67.094-.058.165-.099.211-.123.071-.023.129-.041.176-.052.211.105.457.211.738.316.282.094.516.141.704.141a.62.62 0 01.175.14l.071.071c.129.152.24.31.334.474.093.153.123.358.088.616-.071.105-.124.158-.159.158a3.966 3.966 0 01-.193.597 9.123 9.123 0 01-.193.493 9.652 9.652 0 00-.229.527 3.45 3.45 0 00-.176.65.897.897 0 00-.105.159 1.273 1.273 0 01-.053.158 2.518 2.518 0 01-.088.193.38.38 0 01-.123.158 2.628 2.628 0 01-.176.739c-.07.187-.146.375-.228.562-.141.34-.27.68-.387 1.02-.105.339-.17.726-.193 1.16a.416.416 0 01.158-.035h.158c.106 0 .229.017.369.052a2.962 2.962 0 011.143-.334c.422-.035.838-.058 1.248-.07h.492c.164 0 .317-.012.457-.035.106.058.17.094.194.105h.14c.082 0 .153.006.211.018.141.129.276.223.404.281.129.059.264.111.405.158.129.047.252.1.369.159.129.046.252.117.369.211l.123.755c.082.106.117.176.106.211 0 .094-.024.164-.071.211l.035.194a1.11 1.11 0 00-.369.123 2.257 2.257 0 00-.176.158 1.759 1.759 0 01-.211.017h-.105c-.164 0-.363.03-.598.088a3.1 3.1 0 00-.984-.158 4.74 4.74 0 00-.404.018l-.422.035a5.3 5.3 0 01-.879.07l-.404.106zM428.03 200.807c-.328.105-.685.211-1.072.316a4.37 4.37 0 01-1.16.158c-.586 0-1.049-.146-1.389-.439a.94.94 0 00-.158-.264l-.105-.14a.891.891 0 01-.053-.229 1.925 1.925 0 01-.334-.563 3.498 3.498 0 01-.176-.667 4.87 4.87 0 01-.018-.704c.024-.234.065-.457.123-.668a.3.3 0 00.036-.14l.035-.158c.047-.188.094-.37.14-.545.059-.176.135-.328.229-.457a.456.456 0 010-.352c.047-.129.1-.246.158-.351.164-.446.299-.821.404-1.125.118-.317.235-.627.352-.932.199-.527.387-1.049.562-1.565a17.82 17.82 0 00.475-1.67c.094-.058.164-.099.211-.123.07-.023.129-.041.176-.052.211.105.457.211.738.316.281.094.516.141.703.141a.614.614 0 01.176.14l.07.071c.129.152.241.31.334.474.094.153.123.358.088.616-.07.105-.123.158-.158.158a4.083 4.083 0 01-.193.597 8.38 8.38 0 01-.194.493 9.634 9.634 0 00-.228.527 3.376 3.376 0 00-.176.65.897.897 0 00-.105.159c-.012.046-.03.099-.053.158a2.973 2.973 0 01-.088.193.396.396 0 01-.123.158 2.628 2.628 0 01-.176.739c-.07.187-.146.375-.228.562-.141.34-.27.68-.387 1.02-.106.339-.17.726-.194 1.16a.425.425 0 01.159-.035h.158c.105 0 .228.017.369.052a2.957 2.957 0 011.143-.334 23.25 23.25 0 011.248-.07h.492c.164 0 .316-.012.457-.035.105.058.17.094.193.105h.141c.082 0 .152.006.211.018.14.129.275.223.404.281.129.059.264.111.404.158.129.047.252.1.37.159a1.3 1.3 0 01.369.211l.123.755c.082.106.117.176.105.211 0 .094-.023.164-.07.211l.035.194c-.176.035-.299.076-.369.123a2.089 2.089 0 00-.176.158 1.774 1.774 0 01-.211.017h-.105c-.164 0-.364.03-.598.088a3.105 3.105 0 00-.984-.158c-.129 0-.264.006-.405.018l-.422.035a5.274 5.274 0 01-.878.07l-.405.106zM442.796 191.104a.512.512 0 010 .193c0 .035-.006.07-.018.105v.123c0 .036.012.094.035.176-.246.399-.533.674-.861.826a4.669 4.669 0 01-1.037.317 57.16 57.16 0 00-1.16.193c-.387.07-.774.223-1.16.457a.533.533 0 00-.422 0c-.117.059-.293.076-.527.053a.673.673 0 01-.264.158 3.406 3.406 0 00-.317.088.645.645 0 01.053.334c0 .105.018.193.053.264.41.035.861.029 1.353-.018a21.78 21.78 0 011.477-.088c.012.059.006.1-.018.123-.023.012-.029.041-.017.088.082.059.164.135.246.229l.246.246c.082.082.164.152.246.211a.565.565 0 00.317.052.91.91 0 01.087.317.554.554 0 01-.035.334 16.39 16.39 0 00-.562.404 5.103 5.103 0 01-.598.352 3.603 3.603 0 01-.65.263 2.566 2.566 0 01-.756.071h-.141c-.023 0-.058-.018-.105-.053-.094.058-.229.076-.405.053-.164-.024-.293-.006-.386.052a.996.996 0 00-.475-.07c-.176 0-.334-.023-.474-.07a5.942 5.942 0 00-.51.791c-.153.281-.287.58-.405.896.399.059.727.082.985.071.269-.012.521-.03.756-.053.234-.035.474-.065.72-.088.246-.035.557-.047.932-.035.234-.129.51-.211.826-.246a4.88 4.88 0 00.897-.211.553.553 0 01.246.193c.07.082.135.164.193.246.07.07.141.135.211.194.07.058.158.082.264.07a.315.315 0 01.088.176.968.968 0 01.052.175.66.66 0 00.053.159c.035.035.088.046.158.035-.175.386-.381.685-.615.896-.223.199-.48.352-.773.457a5.39 5.39 0 01-.985.246c-.351.059-.744.129-1.177.211a.39.39 0 01-.264-.017.76.76 0 00-.246-.035c-.27.058-.592.111-.967.158a7.472 7.472 0 01-1.143.053 4.863 4.863 0 01-1.107-.159 1.74 1.74 0 01-.861-.457.636.636 0 01-.194-.281c-.023-.117-.099-.205-.228-.264a4.639 4.639 0 00-.071-.509 59.09 59.09 0 01-.105-.58 14.039 14.039 0 01-.088-.616c-.012-.199 0-.381.035-.545.035-.175.106-.334.211-.474a.517.517 0 00.123-.457c.059-.012.094-.041.106-.088.011-.059.058-.082.14-.07a7.25 7.25 0 01.229-.598c.082-.188.164-.369.246-.545.094-.176.182-.352.264-.527.093-.188.181-.393.263-.616a1.589 1.589 0 01-.369-.492 3.516 3.516 0 01-.158-.545 9.1 9.1 0 01-.088-.562 3.53 3.53 0 00-.123-.598 1.45 1.45 0 01.422-.422c.176-.117.363-.211.562-.281.2-.07.416-.129.651-.176.234-.047.48-.099.738-.158.469-.152.885-.27 1.248-.352.375-.082.738-.146 1.09-.193a28.26 28.26 0 011.125-.158 19.85 19.85 0 001.318-.211c.106.105.205.158.299.158.047-.105.1-.135.158-.088.071.035.1 0 .088-.105.117.199.264.369.44.51.187.128.392.24.615.334z" fill="#F7F7F7"/><path d="M442.532 198.381c.071.058.188.129.352.211.176.07.357.146.545.228.187.071.363.135.527.194.164.058.281.093.352.105.129.235.199.445.211.633.023.176.052.363.087.562-.058.059-.099.159-.123.299a3.795 3.795 0 00-.017.282c-.012.093-.035.146-.07.158-.036.023-.065.076-.088.158-.012.023-.006.059.017.105.024.047.029.082.018.106-.012.058-.041.088-.088.088-.035.011-.065.047-.088.105a.874.874 0 01-.105.229c-.012.035-.024.052-.036.052 0 .012-.011.024-.035.036l-.105.211a3.256 3.256 0 01-.299.509 1.518 1.518 0 00-.229.51l-.615.527c-.234.223-.457.375-.668.457a24.192 24.192 0 01-.492-.228 4.942 4.942 0 01-.65-.352 1.53 1.53 0 01-.475-.421c-.105-.153-.094-.293.035-.422.211-.223.399-.493.563-.809.152-.305.287-.633.404-.984.117-.364.223-.733.316-1.108.082-.386.164-.756.246-1.107.047.047.094.064.141.053a.988.988 0 00.141-.088.803.803 0 00.123-.159.738.738 0 01.105-.14zM453.097 191.086a.74.74 0 00-.071-.246 3.02 3.02 0 00-.088-.264 4.273 4.273 0 01-.158-.457 2.118 2.118 0 01-.07-.58.639.639 0 01.088-.246.748.748 0 01.105-.141l.071-.316h.263c.094.012.188.018.282.018h.298c.446 0 .903-.018 1.371-.053.469-.035.95-.076 1.442-.123a23.498 23.498 0 011.74-.158c.059-.129.094-.211.106-.247.023-.035.046-.076.07-.123l.193-.105c.27-.012.457.023.563.105.105.071.187.141.246.211.305-.023.615-.052.931-.088.317-.046.645-.093.985-.14.469-.059.943-.117 1.424-.176.48-.059.949-.088 1.406-.088a8.252 8.252 0 011.072.07l.211.159c.047.082.106.158.176.228.07.07.152.141.246.211.176.141.346.317.51.527.176.211.24.522.193.932l-.088.176a1.071 1.071 0 01-.176.14l-.175.229h-.194a.754.754 0 00-.263.035 1.121 1.121 0 00-.211.07c-.047.024-.1.047-.158.071a1.551 1.551 0 00-.194.053 3.447 3.447 0 00-.299-.018h-.246c-.351 0-.732.023-1.142.07-.41.047-.809.1-1.196.158-.281.036-.55.071-.808.106-.258.023-.492.047-.703.07-.118.305-.223.574-.317.809-.094.234-.193.469-.299.703-.105.234-.205.475-.298.721a7.7 7.7 0 00-.264.791 4.806 4.806 0 00-.352.615c-.093.187-.17.404-.228.65-.176.2-.305.416-.387.651-.07.234-.135.433-.193.597l-.071.264a.908.908 0 00-.158.193.428.428 0 01-.088.159 2.807 2.807 0 01-.14.439 3.707 3.707 0 00-.071.193c-.023.059-.029.106-.017.141a.808.808 0 01-.106.299c0 .07-.006.14-.017.211l-.035.211a2.033 2.033 0 00-.053.228.306.306 0 00.017.176l.106.141a.636.636 0 01.088.175.216.216 0 00.088.053.223.223 0 01.088.053.53.53 0 00.263.141l.176.21c.07.422.006.75-.193.985-.211.269-.563.404-1.055.404l-.246-.017a.978.978 0 01-.141-.159 7.037 7.037 0 01-.263-.123.399.399 0 01-.194-.158.119.119 0 00-.088-.035.223.223 0 01-.088-.053 1.062 1.062 0 01-.281-.123l-.193-.105c.012-.117.017-.2.017-.246a1.885 1.885 0 01-.228-.422 5.585 5.585 0 01-.123-.475 5.665 5.665 0 00-.106-.351.748.748 0 00-.123-.282c-.023-.82.053-1.506.229-2.056a22.29 22.29 0 01.58-1.635c.117-.281.228-.568.334-.861.105-.293.199-.592.281-.897l.194-.193c.082-.071.134-.112.158-.123 0-.153.029-.299.088-.44.058-.152.123-.304.193-.457.047-.094.088-.187.123-.281a.91.91 0 00.088-.246c-.082 0-.158.006-.229.017-.058 0-.123.006-.193.018a1.962 1.962 0 01-.439.053c-.106 0-.182-.006-.229-.018a.88.88 0 01-.264.088H455.522a.874.874 0 00-.334.053H454.292c-.094 0-.199-.006-.316-.018a1.306 1.306 0 01-.37-.14l-.123-.141c-.07-.129-.134-.199-.193-.211l-.193-.053v-.193zM466.825 199.348a.566.566 0 00-.211.369c-.023.14-.052.281-.088.422a.862.862 0 01-.193.369c-.082.094-.234.135-.457.123-.047.058-.059.094-.035.105.035.012.064.065.088.159-.164-.024-.282-.012-.352.035a.76.76 0 01-.264.105 1.472 1.472 0 01-.685-.439 5.134 5.134 0 01-.475-.721 9.318 9.318 0 01-.351-.791 5.12 5.12 0 00-.299-.703c0-.047.023-.065.07-.053h.106a1.33 1.33 0 01-.123-.387.837.837 0 00-.176-.369c.34-.726.703-1.482 1.09-2.267.386-.797.773-1.6 1.16-2.409.398-.82.791-1.64 1.178-2.46.398-.832.779-1.647 1.142-2.444.328.117.645.258.949.422.317.152.604.334.862.545.258.211.474.457.65.738.188.27.311.58.369.932-.023.07-.052.094-.088.07-.035-.023-.064-.011-.088.035.059.071.088.123.088.159.012.023.012.052 0 .087a.262.262 0 00-.017.106c0 .047.029.111.088.193-.059-.011-.1 0-.123.035-.024.024-.065.024-.123 0 .058.165.076.293.052.387a1.011 1.011 0 01-.105.264c-.047.07-.088.152-.123.246-.024.082-.012.199.035.351-.047 0-.082.012-.105.036a.194.194 0 00-.036.052.268.268 0 01-.052.071c-.012.011-.041.011-.088 0 .035.304.047.615.035.931-.012.305-.024.621-.035.95-.012.316-.012.644 0 .984.011.34.058.691.14 1.055a3.54 3.54 0 001.213-1.143c.317-.469.563-.99.739-1.564.187-.575.328-1.19.421-1.846.106-.656.211-1.324.317-2.004.129-.129.228-.287.299-.475.082-.187.146-.38.193-.58.059-.199.111-.398.158-.597.059-.211.135-.399.229-.563.211.024.386.088.527.193.152.094.293.206.422.334.129.118.264.229.404.334.141.106.317.176.528.211.164.235.316.463.457.686.14.211.234.451.281.721-.07.117-.123.246-.158.386a6.52 6.52 0 01-.123.422c-.036.141-.088.27-.159.387a.915.915 0 01-.298.299 7.907 7.907 0 01-.159.984c-.07.305-.134.604-.193.897a18.02 18.02 0 00-.158.914 5.805 5.805 0 00-.053 1.037c-.105.34-.223.691-.351 1.055a6.391 6.391 0 00-.282.984 1.907 1.907 0 00-.527.65c-.129.258-.264.516-.404.774-.059.047-.094.058-.106.035-.012-.035-.064-.059-.158-.07.012.105-.012.175-.07.21-.047.024-.041.106.017.247a1.827 1.827 0 00-.527.369 3.598 3.598 0 01-.51.422 1.544 1.544 0 01-.633.263c-.234.035-.545-.017-.931-.158a8.655 8.655 0 01-1.547-1.459 6.418 6.418 0 01-1.09-1.951.424.424 0 00-.264.228 3.74 3.74 0 00-.158.37 5.555 5.555 0 01-.141.351c-.046.106-.117.158-.211.158a.771.771 0 01-.14.299 5.04 5.04 0 00-.176.264 1.072 1.072 0 00-.141.281.562.562 0 00.053.352z" fill="#F7F7F7"/><path d="M416.5 209l2.357 7.255h7.629l-6.172 4.484 2.358 7.256-6.172-4.484-6.172 4.484 2.358-7.256-6.172-4.484h7.629L416.5 209z" fill="#1BFEC0"/></svg>