<svg width="47" height="50" viewBox="0 0 47 50" fill="none" xmlns="http://www.w3.org/2000/svg">
<path d="M43.9984 8.17219L25.2466 0.358928C24.6754 0.12197 24.0631 0 23.4447 0C22.8263 0 22.2139 0.12197 21.6427 0.358928L2.89091 8.17219C1.14269 8.89492 0 10.6041 0 12.4988C0 31.8854 11.1827 45.2852 21.633 49.6411C22.7854 50.1196 24.0844 50.1196 25.2368 49.6411C33.6068 46.1544 46.8796 34.1122 46.8796 12.4988C46.8796 10.6041 45.7369 8.89492 43.9984 8.17219Z" fill="#6515DD"/>
<path d="M21.6427 0.358928C22.2139 0.12197 22.8263 0 23.4447 0L23.5 49.9995C22.8655 50.0083 22.2296 49.8888 21.633 49.6411C11.1827 45.2852 0 31.8854 0 12.4988C0 10.6041 1.14269 8.89492 2.89091 8.17219L21.6427 0.358928Z" fill="#391077"/>
<path fill-rule="evenodd" clip-rule="evenodd" d="M16.3133 24.6145C16.7101 24.2461 17.3304 24.2691 17.6988 24.6658L22.262 29.5C22.6304 29.8968 22.6074 30.5171 22.2106 30.8855C21.8139 31.2539 21.1935 31.231 20.8251 30.8342L16.262 26C15.8935 25.6033 15.9165 24.9829 16.3133 24.6145Z" fill="#1BFEC0"/>
<path fill-rule="evenodd" clip-rule="evenodd" d="M30.4605 17.377C30.9317 17.6438 31.0974 18.242 30.8306 18.7132L22.5372 30.5958C22.2704 31.067 21.6722 31.2327 21.201 30.9659C20.7298 30.6992 20.5641 30.101 20.8309 29.6298L29.1243 17.7472C29.3911 17.276 29.9893 17.1103 30.4605 17.377Z" fill="#1BFEC0"/>
</svg>
