<svg width="93" height="61" viewBox="0 0 93 61" fill="none" xmlns="http://www.w3.org/2000/svg">
<path d="M3.47534 0H0V3.47534H3.47534V0Z" fill="#6515DD" />
<path d="M11.6076 0H8.13229V3.47534H11.6076V0Z" fill="#6515DD" />
<path d="M19.7399 0H16.2646V3.47534H19.7399V0Z" fill="#6515DD" />
<path d="M27.8722 0H24.3969V3.47534H27.8722V0Z" fill="#6515DD" />
<path d="M36.0045 0H32.5291V3.47534H36.0045V0Z" fill="#6515DD" />
<path d="M44.1368 0H40.6614V3.47534H44.1368V0Z" fill="#6515DD" />
<path d="M52.3386 0H48.8632V3.47534H52.3386V0Z" fill="#6515DD" />
<path d="M60.4709 0H56.9955V3.47534H60.4709V0Z" fill="#6515DD" />
<path d="M68.6031 0H65.1278V3.47534H68.6031V0Z" fill="#6515DD" />
<path d="M76.7354 0H73.2601V3.47534H76.7354V0Z" fill="#6515DD" />
<path d="M84.8677 0H81.3924V3.47534H84.8677V0Z" fill="#6515DD" />
<path d="M93 0H89.5247V3.47534H93V0Z" fill="#6515DD" />
<path d="M3.47534 8.13232H0V11.6077H3.47534V8.13232Z" fill="#6515DD" />
<path d="M11.6077 8.13232H8.13232V11.6077H11.6077V8.13232Z" fill="#6515DD" />
<path d="M19.7399 8.13232H16.2646V11.6077H19.7399V8.13232Z" fill="#6515DD" />
<path d="M27.8722 8.13232H24.3969V11.6077H27.8722V8.13232Z" fill="#6515DD" />
<path d="M36.0045 8.13232H32.5291V11.6077H36.0045V8.13232Z" fill="#6515DD" />
<path d="M44.1368 8.13232H40.6614V11.6077H44.1368V8.13232Z" fill="#6515DD" />
<path d="M52.3386 8.13232H48.8632V11.6077H52.3386V8.13232Z" fill="#6515DD" />
<path d="M60.4709 8.13232H56.9955V11.6077H60.4709V8.13232Z" fill="#6515DD" />
<path d="M68.6031 8.13232H65.1278V11.6077H68.6031V8.13232Z" fill="#6515DD" />
<path d="M76.7354 8.13232H73.2601V11.6077H76.7354V8.13232Z" fill="#6515DD" />
<path d="M84.8677 8.13232H81.3924V11.6077H84.8677V8.13232Z" fill="#6515DD" />
<path d="M93 8.13232H89.5247V11.6077H93V8.13232Z" fill="#6515DD" />
<path d="M3.47534 16.3341H0V19.8094H3.47534V16.3341Z" fill="#6515DD" />
<path d="M11.6077 16.3341H8.13232V19.8094H11.6077V16.3341Z" fill="#6515DD" />
<path d="M19.7399 16.3341H16.2646V19.8094H19.7399V16.3341Z" fill="#6515DD" />
<path d="M27.8722 16.3341H24.3969V19.8094H27.8722V16.3341Z" fill="#6515DD" />
<path d="M36.0045 16.3341H32.5291V19.8094H36.0045V16.3341Z" fill="#6515DD" />
<path d="M44.1368 16.3341H40.6614V19.8094H44.1368V16.3341Z" fill="#6515DD" />
<path d="M52.3386 16.3341H48.8632V19.8094H52.3386V16.3341Z" fill="#6515DD" />
<path d="M60.4709 16.3341H56.9955V19.8094H60.4709V16.3341Z" fill="#6515DD" />
<path d="M68.6031 16.3341H65.1278V19.8094H68.6031V16.3341Z" fill="#6515DD" />
<path d="M76.7354 16.3341H73.2601V19.8094H76.7354V16.3341Z" fill="#6515DD" />
<path d="M84.8677 16.3341H81.3924V19.8094H84.8677V16.3341Z" fill="#6515DD" />
<path d="M93 16.3341H89.5247V19.8094H93V16.3341Z" fill="#6515DD" />
<path d="M3.47534 24.4664H0V27.9418H3.47534V24.4664Z" fill="#6515DD" />
<path d="M11.6077 24.4664H8.13232V27.9418H11.6077V24.4664Z" fill="#6515DD"/>
<path d="M19.7399 24.4664H16.2646V27.9418H19.7399V24.4664Z" fill="#6515DD"/>
<path d="M27.8722 24.4664H24.3969V27.9418H27.8722V24.4664Z" fill="#6515DD"/>
<path d="M36.0045 24.4664H32.5291V27.9418H36.0045V24.4664Z" fill="#6515DD"/>
<path d="M44.1368 24.4664H40.6614V27.9418H44.1368V24.4664Z" fill="#6515DD"/>
<path d="M52.3386 24.4664H48.8632V27.9418H52.3386V24.4664Z" fill="#6515DD"/>
<path d="M60.4709 24.4664H56.9955V27.9418H60.4709V24.4664Z" fill="#6515DD"/>
<path d="M68.6031 24.4664H65.1278V27.9418H68.6031V24.4664Z" fill="#6515DD"/>
<path d="M76.7354 24.4664H73.2601V27.9418H76.7354V24.4664Z" fill="#6515DD"/>
<path d="M84.8677 24.4664H81.3924V27.9418H84.8677V24.4664Z" fill="#6515DD"/>
<path d="M93 24.4664H89.5247V27.9418H93V24.4664Z" fill="#6515DD"/>
<path d="M3.47534 32.6682H0V36.1435H3.47534V32.6682Z" fill="#6515DD"/>
<path d="M11.6077 32.6682H8.13232V36.1435H11.6077V32.6682Z" fill="#6515DD"/>
<path d="M19.7399 32.6682H16.2646V36.1435H19.7399V32.6682Z" fill="#6515DD"/>
<path d="M27.8722 32.6682H24.3969V36.1435H27.8722V32.6682Z" fill="#6515DD"/>
<path d="M36.0045 32.6682H32.5291V36.1435H36.0045V32.6682Z" fill="#6515DD"/>
<path d="M44.1368 32.6682H40.6614V36.1435H44.1368V32.6682Z" fill="#6515DD"/>
<path d="M52.3386 32.6682H48.8632V36.1435H52.3386V32.6682Z" fill="#6515DD"/>
<path d="M60.4709 32.6682H56.9955V36.1435H60.4709V32.6682Z" fill="#6515DD"/>
<path d="M68.6031 32.6682H65.1278V36.1435H68.6031V32.6682Z" fill="#6515DD"/>
<path d="M76.7354 32.6682H73.2601V36.1435H76.7354V32.6682Z" fill="#6515DD"/>
<path d="M84.8677 32.6682H81.3924V36.1435H84.8677V32.6682Z" fill="#6515DD"/>
<path d="M93 32.6682H89.5247V36.1435H93V32.6682Z" fill="#6515DD"/>
<path d="M3.47534 40.8004H0V44.2758H3.47534V40.8004Z" fill="#6515DD"/>
<path d="M11.6077 40.8004H8.13232V44.2758H11.6077V40.8004Z" fill="#6515DD"/>
<path d="M19.7399 40.8004H16.2646V44.2758H19.7399V40.8004Z" fill="#6515DD"/>
<path d="M27.8722 40.8004H24.3969V44.2758H27.8722V40.8004Z" fill="#6515DD"/>
<path d="M36.0045 40.8004H32.5291V44.2758H36.0045V40.8004Z" fill="#6515DD"/>
<path d="M44.1368 40.8004H40.6614V44.2758H44.1368V40.8004Z" fill="#6515DD"/>
<path d="M52.3386 40.8004H48.8632V44.2758H52.3386V40.8004Z" fill="#6515DD"/>
<path d="M60.4709 40.8004H56.9955V44.2758H60.4709V40.8004Z" fill="#6515DD"/>
<path d="M68.6031 40.8004H65.1278V44.2758H68.6031V40.8004Z" fill="#6515DD"/>
<path d="M76.7354 40.8004H73.2601V44.2758H76.7354V40.8004Z" fill="#6515DD"/>
<path d="M84.8677 40.8004H81.3924V44.2758H84.8677V40.8004Z" fill="#6515DD"/>
<path d="M93 40.8004H89.5247V44.2758H93V40.8004Z" fill="#6515DD"/>
<path d="M3.47534 49.0022H0V52.4775H3.47534V49.0022Z" fill="#6515DD"/>
<path d="M11.6077 49.0022H8.13232V52.4775H11.6077V49.0022Z" fill="#6515DD"/>
<path d="M19.7399 49.0022H16.2646V52.4775H19.7399V49.0022Z" fill="#6515DD"/>
<path d="M27.8722 49.0022H24.3969V52.4775H27.8722V49.0022Z" fill="#6515DD"/>
<path d="M36.0045 49.0022H32.5291V52.4775H36.0045V49.0022Z" fill="#6515DD"/>
<path d="M44.1368 49.0022H40.6614V52.4775H44.1368V49.0022Z" fill="#6515DD"/>
<path d="M52.3386 49.0022H48.8632V52.4775H52.3386V49.0022Z" fill="#6515DD"/>
<path d="M60.4709 49.0022H56.9955V52.4775H60.4709V49.0022Z" fill="#6515DD"/>
<path d="M68.6031 49.0022H65.1278V52.4775H68.6031V49.0022Z" fill="#6515DD"/>
<path d="M76.7354 49.0022H73.2601V52.4775H76.7354V49.0022Z" fill="#6515DD"/>
<path d="M84.8677 49.0022H81.3924V52.4775H84.8677V49.0022Z" fill="#6515DD"/>
<path d="M93 49.0022H89.5247V52.4775H93V49.0022Z" fill="#6515DD"/>
<path d="M3.47534 57.1345H0V60.6099H3.47534V57.1345Z" fill="#6515DD"/>
<path d="M11.6077 57.1345H8.13232V60.6099H11.6077V57.1345Z" fill="#6515DD"/>
<path d="M19.7399 57.1345H16.2646V60.6099H19.7399V57.1345Z" fill="#6515DD"/>
<path d="M27.8722 57.1345H24.3969V60.6099H27.8722V57.1345Z" fill="#6515DD"/>
<path d="M36.0045 57.1345H32.5291V60.6099H36.0045V57.1345Z" fill="#6515DD"/>
<path d="M44.1368 57.1345H40.6614V60.6099H44.1368V57.1345Z" fill="#6515DD"/>
<path d="M52.3386 57.1345H48.8632V60.6099H52.3386V57.1345Z" fill="#6515DD"/>
<path d="M60.4709 57.1345H56.9955V60.6099H60.4709V57.1345Z" fill="#6515DD"/>
<path d="M68.6031 57.1345H65.1278V60.6099H68.6031V57.1345Z" fill="#6515DD"/>
<path d="M76.7354 57.1345H73.2601V60.6099H76.7354V57.1345Z" fill="#6515DD"/>
<path d="M84.8677 57.1345H81.3924V60.6099H84.8677V57.1345Z" fill="#6515DD"/>
<path d="M93 57.1345H89.5247V60.6099H93V57.1345Z" fill="#6515DD"/>
</svg>
