<svg xmlns="http://www.w3.org/2000/svg" fill="none" viewBox="0 0 521 616">
  <defs/>
  <path fill="#1BFEC0" fill-opacity=".5" d="M365.364 524.053c-8.182 0-8.182 0-8.182-9.053 0 9.053 0 9.053-8.182 9.053 8.182 0 8.182 0 8.182 8.947 0-8.947 0-8.947 8.182-8.947zM16.364 545.053c-8.182 0-8.182 0-8.182-9.053 0 9.053 0 9.053-8.182 9.053 8.182 0 8.182 0 8.182 8.947 0-8.947 0-8.947 8.182-8.947zM69.364 494.053c-8.182 0-8.182 0-8.182-9.053 0 9.053 0 9.053-8.182 9.053 8.182 0 8.182 0 8.182 8.947 0-8.947 0-8.947 8.182-8.947zM194.364 595.053c-8.182 0-8.182 0-8.182-9.053 0 9.053 0 9.053-8.182 9.053 8.182 0 8.182 0 8.182 8.947 0-8.947 0-8.947 8.182-8.947zM265.364 349.053c-8.182 0-8.182 0-8.182-9.053 0 9.053 0 9.053-8.182 9.053 8.182 0 8.182 0 8.182 8.947 0-8.947 0-8.947 8.182-8.947zM469.364 487.053c-8.182 0-8.182 0-8.182-9.053 0 9.053 0 9.053-8.182 9.053 8.182 0 8.182 0 8.182 8.947 0-8.947 0-8.947 8.182-8.947zM520.364 607.053c-8.182 0-8.182 0-8.182-9.053 0 9.053 0 9.053-8.182 9.053 8.182 0 8.182 0 8.182 8.947 0-8.947 0-8.947 8.182-8.947zM365.364 184.053c-8.182 0-8.182 0-8.182-9.053 0 9.053 0 9.053-8.182 9.053 8.182 0 8.182 0 8.182 8.947 0-8.947 0-8.947 8.182-8.947zM16.364 205.053c-8.182 0-8.182 0-8.182-9.053 0 9.053 0 9.053-8.182 9.053 8.182 0 8.182 0 8.182 8.947 0-8.947 0-8.947 8.182-8.947zM194.364 255.053c-8.182 0-8.182 0-8.182-9.053 0 9.053 0 9.053-8.182 9.053 8.182 0 8.182 0 8.182 8.947 0-8.947 0-8.947 8.182-8.947zM193.364 59.053c-8.182 0-8.182 0-8.182-9.053 0 9.053 0 9.053-8.182 9.053 8.182 0 8.182 0 8.182 8.947 0-8.947 0-8.947 8.182-8.947zM265.364 9.053c-8.182 0-8.182 0-8.182-9.053 0 9.053 0 9.053-8.182 9.053 8.182 0 8.182 0 8.182 8.947 0-8.947 0-8.947 8.182-8.947zM412.364 12.053c-8.182 0-8.182 0-8.182-9.053 0 9.053 0 9.053-8.182 9.053 8.182 0 8.182 0 8.182 8.947 0-8.947 0-8.947 8.182-8.947zM469.364 147.053c-8.182 0-8.182 0-8.182-9.053 0 9.053 0 9.053-8.182 9.053 8.182 0 8.182 0 8.182 8.947 0-8.947 0-8.947 8.182-8.947zM520.364 267.053c-8.182 0-8.182 0-8.182-9.053 0 9.053 0 9.053-8.182 9.053 8.182 0 8.182 0 8.182 8.947 0-8.947 0-8.947 8.182-8.947z"/>
</svg>
