<svg width="521" height="388" fill="none" xmlns="http://www.w3.org/2000/svg"><path d="M365.364 296.053c-8.182 0-8.182 0-8.182-9.053 0 9.053 0 9.053-8.182 9.053 8.182 0 8.182 0 8.182 8.947 0-8.947 0-8.947 8.182-8.947zM317.364 319.053c-8.182 0-8.182 0-8.182-9.053 0 9.053 0 9.053-8.182 9.053 8.182 0 8.182 0 8.182 8.947 0-8.947 0-8.947 8.182-8.947zM16.364 317.053c-8.182 0-8.182 0-8.182-9.053 0 9.053 0 9.053-8.182 9.053 8.182 0 8.182 0 8.182 8.947 0-8.947 0-8.947 8.182-8.947zM69.364 266.053c-8.182 0-8.182 0-8.182-9.053 0 9.053 0 9.053-8.182 9.053 8.182 0 8.182 0 8.182 8.947 0-8.947 0-8.947 8.182-8.947zM194.364 367.053c-8.182 0-8.182 0-8.182-9.053 0 9.053 0 9.053-8.182 9.053 8.182 0 8.182 0 8.182 8.947 0-8.947 0-8.947 8.182-8.947zM221.364 287.053c-8.182 0-8.182 0-8.182-9.053 0 9.053 0 9.053-8.182 9.053 8.182 0 8.182 0 8.182 8.947 0-8.947 0-8.947 8.182-8.947zM193.364 171.053c-8.182 0-8.182 0-8.182-9.053 0 9.053 0 9.053-8.182 9.053 8.182 0 8.182 0 8.182 8.947 0-8.947 0-8.947 8.182-8.947zM265.364 121.053c-8.182 0-8.182 0-8.182-9.053 0 9.053 0 9.053-8.182 9.053 8.182 0 8.182 0 8.182 8.947 0-8.947 0-8.947 8.182-8.947zM382.364 187.053c-8.182 0-8.182 0-8.182-9.053 0 9.053 0 9.053-8.182 9.053 8.182 0 8.182 0 8.182 8.947 0-8.947 0-8.947 8.182-8.947zM461.364 152.053c-8.182 0-8.182 0-8.182-9.053 0 9.053 0 9.053-8.182 9.053 8.182 0 8.182 0 8.182 8.947 0-8.947 0-8.947 8.182-8.947zM412.364 124.053c-8.182 0-8.182 0-8.182-9.053 0 9.053 0 9.053-8.182 9.053 8.182 0 8.182 0 8.182 8.947 0-8.947 0-8.947 8.182-8.947zM469.364 259.053c-8.182 0-8.182 0-8.182-9.053 0 9.053 0 9.053-8.182 9.053 8.182 0 8.182 0 8.182 8.947 0-8.947 0-8.947 8.182-8.947zM520.364 379.053c-8.182 0-8.182 0-8.182-9.053 0 9.053 0 9.053-8.182 9.053 8.182 0 8.182 0 8.182 8.947 0-8.947 0-8.947 8.182-8.947zM365.364 184.053c-8.182 0-8.182 0-8.182-9.053 0 9.053 0 9.053-8.182 9.053 8.182 0 8.182 0 8.182 8.947 0-8.947 0-8.947 8.182-8.947zM317.364 207.053c-8.182 0-8.182 0-8.182-9.053 0 9.053 0 9.053-8.182 9.053 8.182 0 8.182 0 8.182 8.947 0-8.947 0-8.947 8.182-8.947zM16.364 205.053c-8.182 0-8.182 0-8.182-9.053 0 9.053 0 9.053-8.182 9.053 8.182 0 8.182 0 8.182 8.947 0-8.947 0-8.947 8.182-8.947zM69.364 154.053c-8.182 0-8.182 0-8.182-9.053 0 9.053 0 9.053-8.182 9.053 8.182 0 8.182 0 8.182 8.947 0-8.947 0-8.947 8.182-8.947zM194.364 255.053c-8.182 0-8.182 0-8.182-9.053 0 9.053 0 9.053-8.182 9.053 8.182 0 8.182 0 8.182 8.947 0-8.947 0-8.947 8.182-8.947zM221.364 175.053c-8.182 0-8.182 0-8.182-9.053 0 9.053 0 9.053-8.182 9.053 8.182 0 8.182 0 8.182 8.947 0-8.947 0-8.947 8.182-8.947zM193.364 59.053c-8.182 0-8.182 0-8.182-9.053 0 9.053 0 9.053-8.182 9.053 8.182 0 8.182 0 8.182 8.947 0-8.947 0-8.947 8.182-8.947zM265.364 9.053c-8.182 0-8.182 0-8.182-9.053 0 9.053 0 9.053-8.182 9.053 8.182 0 8.182 0 8.182 8.947 0-8.947 0-8.947 8.182-8.947zM382.364 75.053c-8.182 0-8.182 0-8.182-9.053 0 9.053 0 9.053-8.182 9.053 8.182 0 8.182 0 8.182 8.947 0-8.947 0-8.947 8.182-8.947zM461.364 40.053c-8.182 0-8.182 0-8.182-9.053 0 9.053 0 9.053-8.182 9.053 8.182 0 8.182 0 8.182 8.947 0-8.947 0-8.947 8.182-8.947zM412.364 12.053c-8.182 0-8.182 0-8.182-9.053 0 9.053 0 9.053-8.182 9.053 8.182 0 8.182 0 8.182 8.947 0-8.947 0-8.947 8.182-8.947z" fill="#1BFEC0"/><path d="M469.364 147.053c-8.182 0-8.182 0-8.182-9.053 0 9.053 0 9.053-8.182 9.053 8.182 0 8.182 0 8.182 8.947 0-8.947 0-8.947 8.182-8.947zM520.364 267.053c-8.182 0-8.182 0-8.182-9.053 0 9.053 0 9.053-8.182 9.053 8.182 0 8.182 0 8.182 8.947 0-8.947 0-8.947 8.182-8.947z" fill="#1BFEC0"/></svg>