<svg width="64" height="64" viewBox="0 0 64 64" fill="none" xmlns="http://www.w3.org/2000/svg">
<path d="M37.5724 61.567L26.4599 50.4432L50.3305 26.3326L61.6478 37.6455L37.5724 61.567Z" fill="#8AB4F8"/>
<path d="M37.6527 13.6591L26.3381 2.34352L2.34566 26.3324C-0.779727 29.4547 -0.782318 34.5152 2.34048 37.6402C2.34307 37.6428 2.34566 37.6454 2.34566 37.6454L26.3381 61.6342L37.4376 50.4845L19.3073 32.0044L37.6527 13.6591Z" fill="#4285F4"/>
<path d="M61.6456 26.3326L37.6531 2.3437C34.5277 -0.781232 29.4613 -0.781232 26.3359 2.3437C23.2105 5.46862 23.2105 10.5343 26.3359 13.6567L50.3413 37.6455C53.4667 40.7705 58.5332 40.7705 61.656 37.6455C64.7814 34.5206 64.7814 29.4549 61.656 26.3326H61.6456Z" fill="#8AB4F8"/>
<path d="M31.9079 64C36.2876 64 39.838 60.45 39.838 56.071C39.838 51.6919 36.2876 48.142 31.9079 48.142C27.5282 48.142 23.9777 51.6919 23.9777 56.071C23.9777 60.45 27.5282 64 31.9079 64Z" fill="#246FDB"/>
</svg>
