<svg width="128" height="128" viewBox="0 0 128 128" fill="none" xmlns="http://www.w3.org/2000/svg">
<rect width="128" height="128" fill="#F5F5F5"/>
<path d="M71.1326 101.846L56.9086 87.6073L87.463 56.7457L101.949 71.2263L71.1326 101.846Z" fill="#8AB4F8"/>
<path d="M71.2355 40.5236L56.7527 26.0397L26.0424 56.7455C22.0419 60.7421 22.0386 67.2195 26.0358 71.2194C26.0391 71.2227 26.0424 71.2261 26.0424 71.2261L56.7527 101.932L70.9601 87.6602L47.7533 64.0057L71.2355 40.5236Z" fill="#4285F4"/>
<path d="M101.946 56.7457L71.236 26.0399C67.2355 22.04 60.7504 22.04 56.7499 26.0399C52.7494 30.0398 52.7494 36.5239 56.7499 40.5205L87.4769 71.2263C91.4774 75.2262 97.9624 75.2262 101.96 71.2263C105.96 67.2264 105.96 60.7423 101.96 56.7457H101.946Z" fill="#8AB4F8"/>
<path d="M63.882 104.96C69.488 104.96 74.0326 100.416 74.0326 94.8108C74.0326 89.2056 69.488 84.6617 63.882 84.6617C58.276 84.6617 53.7314 89.2056 53.7314 94.8108C53.7314 100.416 58.276 104.96 63.882 104.96Z" fill="#246FDB"/>
</svg>
