<svg width="1209" height="303" viewBox="0 0 1209 303" fill="none" xmlns="http://www.w3.org/2000/svg">
<g clip-path="url(#clip0)">
<path d="M586.7 116.9H641.4L617.9 264.4C617.2 269.3 616.8 273.9 616.8 277.4C616.8 285.1 617.9 289.7 617.9 289.7H567.1C567.1 289.7 565.7 285.5 565.7 277.4C565.7 274.6 565.7 271.1 566.1 267.2H565.7C551 284 529.3 293.5 506.8 293.5C464.5 289.9 446.3 259.9 446.3 218.9C446.3 165.6 475.6 115 535.2 115C553.4 115 574.5 120 583.9 136.8C584.6 130.2 585.6 123.6 586.7 116.9ZM540.3 158.2C511.6 158.2 494 185.5 494 212.2C494 232.2 505.6 246.9 526.2 246.9C554.9 246.9 572.5 219.6 572.5 192.9C572.5 173 561 158.2 540.3 158.2Z" fill="url(#paint0_linear)"/>
<path d="M775.2 175.4C766.4 163.8 750.7 158.6 736.7 158.6C708 158.6 688 184.2 688 211.9C688 234 702.4 246.9 724.1 246.9C739.2 246.9 757.4 240.6 769.3 231.1L774.2 273.9C757.4 287.6 728.6 293.5 708 293.5C664.2 293.5 632.7 264.4 632.7 220.3C632.7 161.4 677.2 113.8 737.1 113.8C754.3 113.8 771.7 115.4 784.3 128.7L775.2 175.4Z" fill="url(#paint1_linear)"/>
<path d="M872 116.9H909.1L901.7 160H864.9C861 183.5 854 209.4 854 233.2C854 243.4 858.9 246.5 868.4 246.5C874 246.5 880 245.4 885.2 243.3L881 287.8C868 291 855.1 293.4 841.4 293.4C813.7 293.4 797.2 280.8 797.2 252C797.2 221.5 805.6 189.3 810.2 159.8H786.7L793.7 116.7H817.2L820.7 95C821.4 89.7 821.4 85.2 821.4 81C821.4 74.3 820.7 70.1 820.7 70.1H875C875 70.1 876.1 74 876.1 81.7C876.1 85.9 875.8 91.2 874.7 97.5L872 116.9Z" fill="url(#paint2_linear)"/>
<path d="M969.1 293.5C924.2 293.5 889.5 267.9 889.5 220.6C889.5 159.6 935.4 113.7 997.4 113.7C1042.6 113.7 1077 139.6 1077 186.9C1077 248 1031.5 293.5 969.1 293.5ZM990.5 158.6C961.8 158.6 945.3 186.6 945.3 212.6C945.3 232.2 955.8 246.9 976.5 246.9C1005.2 246.9 1021.7 218.9 1021.7 192.9C1021.6 173.3 1011.1 158.6 990.5 158.6Z" fill="url(#paint3_linear)"/>
<path d="M1197.8 168.8H1195C1189.4 165.6 1182.4 164.6 1176.1 164.6C1149.5 164.6 1139 190.9 1135.8 213L1123.5 289.7H1068.8L1091.9 142.5C1092.6 137.2 1093 132 1093 127.8C1093 121.1 1092.3 116.9 1092.3 116.9H1146.6C1146.6 116.9 1147.7 120.8 1147.7 128.5C1147.7 132 1147.3 137.3 1146.3 141.5C1156.5 125.4 1172.2 113.8 1192.2 113.8C1197.1 113.8 1204.5 114.5 1208.7 117L1197.8 168.8Z" fill="url(#paint4_linear)"/>
<path d="M452.9 38.8C401.6 43.7 387.6 73.5 380.6 116.9H359.2L352.5 160H374L352.6 293.2H407.3L428.6 160H456.1L464.4 116.6L435.3 116.9C438.1 100.4 440.5 91.9 456.4 84.3C463.6 80.9 464.4 80 479.8 80.9L488.2 40.9C477 37.3 467.4 37.4 452.9 38.8Z" fill="url(#paint5_linear)"/>
<path d="M261.3 302.9H130.2C121.7 302.9 113.7 299.6 107.7 293.6L7.70002 193.6C0.200019 186.1 -2.09998 174.8 2.00002 165C6.10002 155.1 15.6 148.7 26.3 148.7H148.7V26.2C148.7 15.5 155.1 6 164.9 1.9C174.6 -2.1 186.2 0.199996 193.6 7.6L293.6 107.6C299.6 113.7 302.9 121.6 302.9 130.1V261.2C303 284.2 284.3 302.9 261.3 302.9ZM135.7 257.8H257.9V135.6L193.8 71.5V193.7H71.6L135.7 257.8Z" fill="url(#paint6_linear)"/>
</g>
<defs>
<linearGradient id="paint0_linear" x1="528.813" y1="-33.1768" x2="539.899" y2="300.489" gradientUnits="userSpaceOnUse">
<stop stop-color="#233C59"/>
<stop offset="1" stop-color="#475C6B"/>
</linearGradient>
<linearGradient id="paint1_linear" x1="696.816" y1="-35.373" x2="711.265" y2="300.285" gradientUnits="userSpaceOnUse">
<stop stop-color="#233C59"/>
<stop offset="1" stop-color="#475C6B"/>
</linearGradient>
<linearGradient id="paint2_linear" x1="838.466" y1="-115.266" x2="866.031" y2="300.777" gradientUnits="userSpaceOnUse">
<stop stop-color="#233C59"/>
<stop offset="1" stop-color="#475C6B"/>
</linearGradient>
<linearGradient id="paint3_linear" x1="968.799" y1="-35.556" x2="980.502" y2="300.503" gradientUnits="userSpaceOnUse">
<stop stop-color="#233C59"/>
<stop offset="1" stop-color="#475C6B"/>
</linearGradient>
<linearGradient id="paint4_linear" x1="1127.97" y1="-32.2185" x2="1142.97" y2="296.265" gradientUnits="userSpaceOnUse">
<stop stop-color="#233C59"/>
<stop offset="1" stop-color="#475C6B"/>
</linearGradient>
<linearGradient id="paint5_linear" x1="409.891" y1="-174.035" x2="442.382" y2="301.503" gradientUnits="userSpaceOnUse">
<stop stop-color="#233C59"/>
<stop offset="1" stop-color="#475C6B"/>
</linearGradient>
<linearGradient id="paint6_linear" x1="19.2132" y1="-70.4791" x2="235.203" y2="292.503" gradientUnits="userSpaceOnUse">
<stop stop-color="#04B0FF"/>
<stop offset="1" stop-color="#0496FF"/>
</linearGradient>
<clipPath id="clip0">
<rect width="1208.6" height="302.9" fill="white"/>
</clipPath>
</defs>
</svg>
