<svg xmlns="http://www.w3.org/2000/svg" viewBox="0 0 58 58"><defs><style>.a{fill:none;stroke:#506677;stroke-miterlimit:10;stroke-width:5px;}</style></defs><title>generic_1</title><path class="a" d="M48.34,31.82a20.27,20.27,0,0,0,.19-2.6,20.56,20.56,0,0,0-.19-2.61L54,22.19a1.33,1.33,0,0,0,.32-1.71L49,11.22a1.33,1.33,0,0,0-1.63-.57l-6.66,2.68a20.25,20.25,0,0,0-4.51-2.63l-1-7.08A1.37,1.37,0,0,0,33.83,2.5H23.14a1.35,1.35,0,0,0-1.32,1.12l-1,7.08a19.87,19.87,0,0,0-4.51,2.63L9.65,10.65A1.34,1.34,0,0,0,8,11.22L2.68,20.48A1.34,1.34,0,0,0,3,22.19l5.64,4.42a20.56,20.56,0,0,0-.19,2.61,20.27,20.27,0,0,0,.19,2.6L3,36.24A1.34,1.34,0,0,0,2.68,38L8,47.21a1.32,1.32,0,0,0,1.63.58l6.66-2.69a19.87,19.87,0,0,0,4.51,2.63l1,7.08a1.35,1.35,0,0,0,1.32,1.12H33.83a1.34,1.34,0,0,0,1.32-1.12l1-7.08a19.51,19.51,0,0,0,4.51-2.63l6.65,2.69A1.34,1.34,0,0,0,49,47.21L54.3,38A1.35,1.35,0,0,0,54,36.24ZM28.49,38.57a9.35,9.35,0,1,1,9.35-9.35A9.34,9.34,0,0,1,28.49,38.57Z"/></svg>