<svg width="536" height="761" viewBox="0 0 536 761" fill="none" xmlns="http://www.w3.org/2000/svg">
<rect width="535.209" height="761" rx="41.8132" fill="white"/>
<path d="M91.3811 81.1462C91.3811 77.4032 92.1909 74.0741 93.8104 71.1589C95.43 68.2077 97.6794 65.9224 100.559 64.3028C103.474 62.6473 106.767 61.8195 110.438 61.8195C114.937 61.8195 118.788 63.0072 121.991 65.3825C125.194 67.7579 127.335 70.997 128.415 75.0998H118.266C117.51 73.5163 116.43 72.3106 115.027 71.4828C113.659 70.6551 112.093 70.2412 110.33 70.2412C107.487 70.2412 105.183 71.2309 103.42 73.2104C101.656 75.1898 100.775 77.8351 100.775 81.1462C100.775 84.4573 101.656 87.1025 103.42 89.082C105.183 91.0614 107.487 92.0512 110.33 92.0512C112.093 92.0512 113.659 91.6373 115.027 90.8095C116.43 89.9817 117.51 88.7761 118.266 87.1925H128.415C127.335 91.2954 125.194 94.5345 121.991 96.9098C118.788 99.2492 114.937 100.419 110.438 100.419C106.767 100.419 103.474 99.6091 100.559 97.9895C97.6794 96.334 95.43 94.0486 93.8104 91.1334C92.1909 88.2182 91.3811 84.8891 91.3811 81.1462ZM162.734 70.0252V100.149H153.503V96.0461C152.567 97.3777 151.289 98.4574 149.67 99.2852C148.086 100.077 146.323 100.473 144.379 100.473C142.076 100.473 140.043 99.969 138.279 98.9613C136.515 97.9175 135.148 96.424 134.176 94.4805C133.204 92.537 132.719 90.2517 132.719 87.6244V70.0252H141.896V86.3827C141.896 88.3982 142.418 89.9637 143.462 91.0794C144.505 92.1951 145.909 92.753 147.672 92.753C149.472 92.753 150.894 92.1951 151.937 91.0794C152.981 89.9637 153.503 88.3982 153.503 86.3827V70.0252H162.734ZM177.517 75.0458C178.597 73.3903 179.946 72.0947 181.566 71.1589C183.185 70.1872 184.985 69.7013 186.964 69.7013V79.4726H184.427C182.124 79.4726 180.396 79.9765 179.244 80.9842C178.093 81.9559 177.517 83.6835 177.517 86.1668V100.149H168.285V70.0252H177.517V75.0458ZM199.528 75.0458C200.608 73.3903 201.958 72.0947 203.577 71.1589C205.197 70.1872 206.996 69.7013 208.976 69.7013V79.4726H206.439C204.135 79.4726 202.408 79.9765 201.256 80.9842C200.104 81.9559 199.528 83.6835 199.528 86.1668V100.149H190.297V70.0252H199.528V75.0458ZM240.705 84.6012C240.705 85.465 240.651 86.3647 240.543 87.3005H219.651C219.795 89.172 220.388 90.6116 221.432 91.6193C222.512 92.591 223.825 93.0769 225.373 93.0769C227.676 93.0769 229.278 92.1051 230.178 90.1617H240.003C239.499 92.1411 238.581 93.9226 237.25 95.5062C235.954 97.0898 234.317 98.3314 232.337 99.2312C230.358 100.131 228.144 100.581 225.697 100.581C222.746 100.581 220.118 99.951 217.815 98.6913C215.512 97.4317 213.712 95.6322 212.417 93.2928C211.121 90.9535 210.473 88.2182 210.473 85.0871C210.473 81.9559 211.103 79.2207 212.363 76.8813C213.658 74.542 215.458 72.7425 217.761 71.4828C220.064 70.2232 222.71 69.5934 225.697 69.5934C228.612 69.5934 231.203 70.2052 233.471 71.4288C235.738 72.6525 237.502 74.398 238.761 76.6654C240.057 78.9328 240.705 81.578 240.705 84.6012ZM231.257 82.1719C231.257 80.5883 230.718 79.3287 229.638 78.3929C228.558 77.4572 227.209 76.9893 225.589 76.9893C224.041 76.9893 222.728 77.4392 221.648 78.3389C220.604 79.2387 219.957 80.5163 219.705 82.1719H231.257ZM262.85 69.7013C266.377 69.7013 269.184 70.853 271.272 73.1564C273.395 75.4237 274.457 78.5549 274.457 82.5498V100.149H265.279V83.7914C265.279 81.776 264.758 80.2104 263.714 79.0947C262.67 77.979 261.266 77.4212 259.503 77.4212C257.739 77.4212 256.336 77.979 255.292 79.0947C254.248 80.2104 253.727 81.776 253.727 83.7914V100.149H244.495V70.0252H253.727V74.0201C254.662 72.6885 255.922 71.6448 257.506 70.889C259.089 70.0972 260.871 69.7013 262.85 69.7013ZM296.581 92.3211V100.149H291.885C288.538 100.149 285.928 99.3391 284.057 97.7196C282.185 96.0641 281.25 93.3828 281.25 89.6758V77.6911H277.579V70.0252H281.25V62.6833H290.481V70.0252H296.527V77.6911H290.481V89.7838C290.481 90.6835 290.697 91.3314 291.129 91.7272C291.561 92.1231 292.281 92.3211 293.288 92.3211H296.581ZM339.886 74.452C339.886 76.6474 339.383 78.6629 338.375 80.4983C337.367 82.2978 335.82 83.7554 333.732 84.8711C331.645 85.9868 329.053 86.5447 325.958 86.5447H320.236V100.149H311.004V62.2514H325.958C328.981 62.2514 331.537 62.7732 333.624 63.8169C335.712 64.8607 337.277 66.3003 338.321 68.1358C339.365 69.9712 339.886 72.0767 339.886 74.452ZM325.256 79.2027C327.02 79.2027 328.334 78.7888 329.197 77.961C330.061 77.1333 330.493 75.9636 330.493 74.452C330.493 72.9404 330.061 71.7708 329.197 70.943C328.334 70.1152 327.02 69.7013 325.256 69.7013H320.236V79.2027H325.256ZM341.777 85.0331C341.777 81.9379 342.353 79.2207 343.505 76.8813C344.692 74.542 346.294 72.7425 348.309 71.4828C350.325 70.2232 352.574 69.5934 355.057 69.5934C357.181 69.5934 359.034 70.0252 360.618 70.889C362.237 71.7528 363.479 72.8864 364.343 74.2901V70.0252H373.574V100.149H364.343V95.8841C363.443 97.2877 362.184 98.4214 360.564 99.2852C358.98 100.149 357.127 100.581 355.003 100.581C352.556 100.581 350.325 99.951 348.309 98.6913C346.294 97.3957 344.692 95.5782 343.505 93.2388C342.353 90.8635 341.777 88.1282 341.777 85.0331ZM364.343 85.0871C364.343 82.7837 363.695 80.9662 362.399 79.6346C361.14 78.3029 359.592 77.6371 357.757 77.6371C355.921 77.6371 354.356 78.3029 353.06 79.6346C351.8 80.9302 351.171 82.7297 351.171 85.0331C351.171 87.3365 351.8 89.172 353.06 90.5396C354.356 91.8712 355.921 92.537 357.757 92.537C359.592 92.537 361.14 91.8712 362.399 90.5396C363.695 89.2079 364.343 87.3904 364.343 85.0871ZM390.618 69.5934C392.741 69.5934 394.595 70.0252 396.179 70.889C397.798 71.7528 399.04 72.8864 399.904 74.2901V70.0252H409.135V100.095C409.135 102.866 408.577 105.367 407.461 107.599C406.382 109.866 404.708 111.666 402.441 112.997C400.209 114.329 397.42 114.995 394.073 114.995C389.61 114.995 385.993 113.933 383.222 111.81C380.451 109.722 378.867 106.879 378.471 103.28H387.595C387.883 104.432 388.567 105.331 389.646 105.979C390.726 106.663 392.058 107.005 393.641 107.005C395.549 107.005 397.06 106.447 398.176 105.331C399.328 104.252 399.904 102.506 399.904 100.095V95.8301C399.004 97.2337 397.762 98.3854 396.179 99.2852C394.595 100.149 392.741 100.581 390.618 100.581C388.135 100.581 385.885 99.951 383.87 98.6913C381.854 97.3957 380.253 95.5782 379.065 93.2388C377.914 90.8635 377.338 88.1282 377.338 85.0331C377.338 81.9379 377.914 79.2207 379.065 76.8813C380.253 74.542 381.854 72.7425 383.87 71.4828C385.885 70.2232 388.135 69.5934 390.618 69.5934ZM399.904 85.0871C399.904 82.7837 399.256 80.9662 397.96 79.6346C396.7 78.3029 395.153 77.6371 393.317 77.6371C391.482 77.6371 389.916 78.3029 388.621 79.6346C387.361 80.9302 386.731 82.7297 386.731 85.0331C386.731 87.3365 387.361 89.172 388.621 90.5396C389.916 91.8712 391.482 92.537 393.317 92.537C395.153 92.537 396.7 91.8712 397.96 90.5396C399.256 89.2079 399.904 87.3904 399.904 85.0871ZM443.13 84.6012C443.13 85.465 443.076 86.3647 442.968 87.3005H422.076C422.22 89.172 422.814 90.6116 423.857 91.6193C424.937 92.591 426.251 93.0769 427.798 93.0769C430.102 93.0769 431.703 92.1051 432.603 90.1617H442.428C441.924 92.1411 441.007 93.9226 439.675 95.5062C438.379 97.0898 436.742 98.3314 434.762 99.2312C432.783 100.131 430.569 100.581 428.122 100.581C425.171 100.581 422.544 99.951 420.24 98.6913C417.937 97.4317 416.137 95.6322 414.842 93.2928C413.546 90.9535 412.898 88.2182 412.898 85.0871C412.898 81.9559 413.528 79.2207 414.788 76.8813C416.083 74.542 417.883 72.7425 420.186 71.4828C422.49 70.2232 425.135 69.5934 428.122 69.5934C431.037 69.5934 433.629 70.2052 435.896 71.4288C438.163 72.6525 439.927 74.398 441.187 76.6654C442.482 78.9328 443.13 81.578 443.13 84.6012ZM433.683 82.1719C433.683 80.5883 433.143 79.3287 432.063 78.3929C430.983 77.4572 429.634 76.9893 428.014 76.9893C426.467 76.9893 425.153 77.4392 424.073 78.3389C423.03 79.2387 422.382 80.5163 422.13 82.1719H433.683Z" fill="black"/>
<path d="M147.103 172.173C144.366 169.493 142.227 166.086 140.688 161.951C139.177 157.817 138.421 153.355 138.421 148.564C138.421 143.66 139.219 139.084 140.816 134.835C142.441 130.558 144.751 127.037 147.745 124.271H151.808V124.656C148.614 127.65 146.205 131.257 144.58 135.477C142.983 139.668 142.185 144.031 142.185 148.564C142.185 152.984 142.94 157.204 144.451 161.224C145.991 165.245 148.229 168.766 151.166 171.789V172.173H147.103ZM164.943 134.408C168.193 134.408 171.002 135.021 173.368 136.247C175.763 137.444 177.588 139.169 178.843 141.422C180.126 143.674 180.767 146.326 180.767 149.377C180.767 152.428 180.126 155.08 178.843 157.332C177.588 159.556 175.763 161.267 173.368 162.465C171.002 163.634 168.193 164.218 164.943 164.218H155.662V134.408H164.943ZM164.943 161.011C168.792 161.011 171.729 159.998 173.753 157.974C175.778 155.921 176.79 153.055 176.79 149.377C176.79 145.67 175.763 142.776 173.71 140.695C171.686 138.613 168.763 137.573 164.943 137.573H159.554V161.011H164.943ZM188.938 144.587C189.622 143.247 190.592 142.206 191.846 141.465C193.129 140.723 194.683 140.353 196.508 140.353V144.373H195.482C191.119 144.373 188.938 146.74 188.938 151.473V164.218H185.046V140.78H188.938V144.587ZM198.691 152.414C198.691 150.019 199.176 147.923 200.146 146.127C201.115 144.302 202.441 142.89 204.123 141.892C205.834 140.894 207.73 140.395 209.812 140.395C211.864 140.395 213.647 140.837 215.158 141.721C216.669 142.605 217.795 143.717 218.537 145.057V140.78H222.471V164.218H218.537V159.856C217.767 161.224 216.612 162.365 215.072 163.277C213.561 164.161 211.793 164.603 209.769 164.603C207.687 164.603 205.805 164.09 204.123 163.063C202.441 162.037 201.115 160.597 200.146 158.744C199.176 156.89 198.691 154.78 198.691 152.414ZM218.537 152.457C218.537 150.689 218.18 149.149 217.467 147.837C216.755 146.526 215.785 145.528 214.559 144.843C213.361 144.131 212.036 143.774 210.581 143.774C209.127 143.774 207.801 144.116 206.604 144.801C205.406 145.485 204.451 146.483 203.738 147.795C203.025 149.106 202.669 150.646 202.669 152.414C202.669 154.21 203.025 155.778 203.738 157.118C204.451 158.43 205.406 159.442 206.604 160.155C207.801 160.839 209.127 161.182 210.581 161.182C212.036 161.182 213.361 160.839 214.559 160.155C215.785 159.442 216.755 158.43 217.467 157.118C218.18 155.778 218.537 154.224 218.537 152.457ZM237.859 140.395C239.884 140.395 241.651 140.837 243.163 141.721C244.702 142.605 245.843 143.717 246.584 145.057V140.78H250.519V164.732C250.519 166.87 250.063 168.766 249.15 170.42C248.238 172.102 246.926 173.414 245.216 174.355C243.533 175.296 241.566 175.766 239.313 175.766C236.234 175.766 233.668 175.039 231.615 173.585C229.562 172.131 228.35 170.149 227.979 167.64H231.829C232.256 169.066 233.14 170.206 234.48 171.061C235.821 171.945 237.432 172.387 239.313 172.387C241.452 172.387 243.191 171.717 244.531 170.377C245.9 169.037 246.584 167.155 246.584 164.732V159.813C245.814 161.182 244.674 162.322 243.163 163.235C241.651 164.147 239.884 164.603 237.859 164.603C235.778 164.603 233.882 164.09 232.171 163.063C230.489 162.037 229.163 160.597 228.193 158.744C227.224 156.89 226.739 154.78 226.739 152.414C226.739 150.019 227.224 147.923 228.193 146.127C229.163 144.302 230.489 142.89 232.171 141.892C233.882 140.894 235.778 140.395 237.859 140.395ZM246.584 152.457C246.584 150.689 246.228 149.149 245.515 147.837C244.802 146.526 243.833 145.528 242.607 144.843C241.409 144.131 240.083 143.774 238.629 143.774C237.175 143.774 235.849 144.116 234.651 144.801C233.454 145.485 232.499 146.483 231.786 147.795C231.073 149.106 230.717 150.646 230.717 152.414C230.717 154.21 231.073 155.778 231.786 157.118C232.499 158.43 233.454 159.442 234.651 160.155C235.849 160.839 237.175 161.182 238.629 161.182C240.083 161.182 241.409 160.839 242.607 160.155C243.833 159.442 244.802 158.43 245.515 157.118C246.228 155.778 246.584 154.224 246.584 152.457ZM279.123 164.218L275.231 160.283C273.777 161.795 272.223 162.921 270.569 163.662C268.915 164.375 267.047 164.732 264.966 164.732C262.913 164.732 261.088 164.361 259.491 163.619C257.923 162.878 256.697 161.823 255.813 160.455C254.958 159.086 254.53 157.489 254.53 155.664C254.53 153.583 255.115 151.758 256.284 150.19C257.481 148.593 259.235 147.338 261.544 146.426C260.632 145.342 259.976 144.345 259.577 143.432C259.178 142.52 258.978 141.522 258.978 140.438C258.978 139.184 259.292 138.057 259.919 137.059C260.575 136.033 261.502 135.235 262.699 134.664C263.897 134.094 265.28 133.809 266.848 133.809C268.388 133.809 269.728 134.108 270.868 134.707C272.009 135.306 272.864 136.147 273.434 137.23C274.005 138.285 274.261 139.469 274.204 140.78H270.312C270.341 139.611 270.013 138.699 269.329 138.043C268.644 137.359 267.76 137.017 266.677 137.017C265.536 137.017 264.61 137.345 263.897 138C263.212 138.628 262.87 139.44 262.87 140.438C262.87 141.294 263.098 142.12 263.555 142.919C264.039 143.717 264.838 144.701 265.95 145.87L274.846 154.809L275.616 153.611L278.524 148.736H282.716L279.208 154.809C278.724 155.664 278.153 156.562 277.498 157.503L284.212 164.218H279.123ZM264.966 161.395C266.506 161.395 267.889 161.096 269.115 160.497C270.369 159.899 271.553 158.972 272.665 157.717L263.897 148.907C260.247 150.304 258.422 152.514 258.422 155.536C258.422 157.218 259.021 158.615 260.219 159.727C261.445 160.839 263.027 161.395 264.966 161.395ZM296.285 134.408C299.535 134.408 302.344 135.021 304.71 136.247C307.105 137.444 308.93 139.169 310.185 141.422C311.468 143.674 312.109 146.326 312.109 149.377C312.109 152.428 311.468 155.08 310.185 157.332C308.93 159.556 307.105 161.267 304.71 162.465C302.344 163.634 299.535 164.218 296.285 164.218H287.004V134.408H296.285ZM296.285 161.011C300.134 161.011 303.071 159.998 305.095 157.974C307.12 155.921 308.132 153.055 308.132 149.377C308.132 145.67 307.105 142.776 305.052 140.695C303.028 138.613 300.105 137.573 296.285 137.573H290.896V161.011H296.285ZM320.28 144.587C320.964 143.247 321.934 142.206 323.188 141.465C324.471 140.723 326.025 140.353 327.85 140.353V144.373H326.824C322.461 144.373 320.28 146.74 320.28 151.473V164.218H316.388V140.78H320.28V144.587ZM341.71 164.603C339.514 164.603 337.518 164.104 335.722 163.106C333.954 162.108 332.557 160.697 331.53 158.872C330.532 157.019 330.033 154.88 330.033 152.457C330.033 150.061 330.547 147.951 331.573 146.127C332.628 144.273 334.054 142.862 335.85 141.892C337.646 140.894 339.657 140.395 341.881 140.395C344.105 140.395 346.115 140.894 347.911 141.892C349.708 142.862 351.119 144.259 352.145 146.084C353.2 147.909 353.728 150.033 353.728 152.457C353.728 154.88 353.186 157.019 352.103 158.872C351.048 160.697 349.608 162.108 347.783 163.106C345.958 164.104 343.934 164.603 341.71 164.603ZM341.71 161.182C343.107 161.182 344.418 160.854 345.644 160.198C346.87 159.542 347.854 158.558 348.596 157.247C349.365 155.935 349.75 154.338 349.75 152.457C349.75 150.575 349.38 148.978 348.638 147.666C347.897 146.355 346.927 145.385 345.73 144.758C344.532 144.102 343.235 143.774 341.838 143.774C340.412 143.774 339.101 144.102 337.903 144.758C336.734 145.385 335.793 146.355 335.08 147.666C334.367 148.978 334.011 150.575 334.011 152.457C334.011 154.367 334.353 155.978 335.037 157.29C335.75 158.601 336.691 159.585 337.86 160.241C339.029 160.868 340.312 161.182 341.71 161.182ZM361.882 145.1C362.652 143.76 363.792 142.648 365.303 141.764C366.843 140.852 368.625 140.395 370.65 140.395C372.731 140.395 374.613 140.894 376.295 141.892C378.006 142.89 379.346 144.302 380.316 146.127C381.285 147.923 381.77 150.019 381.77 152.414C381.77 154.78 381.285 156.89 380.316 158.744C379.346 160.597 378.006 162.037 376.295 163.063C374.613 164.09 372.731 164.603 370.65 164.603C368.654 164.603 366.886 164.161 365.346 163.277C363.835 162.365 362.68 161.239 361.882 159.899V175.338H357.99V140.78H361.882V145.1ZM377.792 152.414C377.792 150.646 377.436 149.106 376.723 147.795C376.01 146.483 375.041 145.485 373.815 144.801C372.617 144.116 371.291 143.774 369.837 143.774C368.411 143.774 367.086 144.131 365.86 144.843C364.662 145.528 363.692 146.54 362.951 147.88C362.238 149.192 361.882 150.717 361.882 152.457C361.882 154.224 362.238 155.778 362.951 157.118C363.692 158.43 364.662 159.442 365.86 160.155C367.086 160.839 368.411 161.182 369.837 161.182C371.291 161.182 372.617 160.839 373.815 160.155C375.041 159.442 376.01 158.43 376.723 157.118C377.436 155.778 377.792 154.21 377.792 152.414ZM384.797 172.173V171.789C387.734 168.766 389.958 165.245 391.469 161.224C393.009 157.204 393.779 152.984 393.779 148.564C393.779 144.031 392.966 139.668 391.341 135.477C389.744 131.257 387.349 127.65 384.156 124.656V124.271H388.219C391.213 127.037 393.508 130.558 395.105 134.835C396.73 139.084 397.543 143.66 397.543 148.564C397.543 153.355 396.773 157.817 395.233 161.951C393.722 166.086 391.598 169.493 388.86 172.173H384.797Z" fill="#AEBAD0"/>
<g filter="url(#filter0_d_1227_624)">
<rect x="492.201" y="363.178" width="447.998" height="145.749" rx="5.46943" transform="rotate(-180 492.201 363.178)" fill="#FAFCFD"/>
<rect x="490.409" y="361.386" width="444.414" height="142.165" rx="3.67743" transform="rotate(-180 490.409 361.386)" stroke="#B0BFD2" stroke-width="3.58399"/>
</g>
<rect x="241.322" y="340.479" width="172.031" height="101.546" rx="5.46943" transform="rotate(-180 241.322 340.479)" fill="#E5EBF2"/>
<rect x="456.361" y="281.94" width="175.615" height="22.6986" rx="5.46943" transform="rotate(-180 456.361 281.94)" fill="#CBD5E1"/>
<rect x="375.125" y="321.364" width="94.3783" height="22.6986" rx="5.46943" transform="rotate(-180 375.125 321.364)" fill="#E8EFF8"/>
<g filter="url(#filter1_d_1227_624)">
<rect x="491.006" y="535.209" width="447.998" height="145.749" rx="5.46943" transform="rotate(-180 491.006 535.209)" fill="#FAFCFD"/>
<rect x="489.214" y="533.417" width="444.414" height="142.165" rx="3.67743" transform="rotate(-180 489.214 533.417)" stroke="#B0BFD2" stroke-width="3.58399"/>
</g>
<rect x="240.127" y="512.51" width="172.031" height="101.546" rx="5.46943" transform="rotate(-180 240.127 512.51)" fill="#E5EBF2"/>
<rect x="455.166" y="453.972" width="175.615" height="22.6986" rx="5.46943" transform="rotate(-180 455.166 453.972)" fill="#CBD5E1"/>
<rect x="373.93" y="493.396" width="94.3783" height="22.6986" rx="5.46943" transform="rotate(-180 373.93 493.396)" fill="#E8EFF8"/>
<g filter="url(#filter2_d_1227_624)">
<rect x="492.201" y="707.24" width="447.998" height="145.749" rx="5.46943" transform="rotate(-180 492.201 707.24)" fill="#FAFCFD"/>
<rect x="490.409" y="705.448" width="444.414" height="142.165" rx="3.67743" transform="rotate(-180 490.409 705.448)" stroke="#B0BFD2" stroke-width="3.58399"/>
</g>
<rect x="241.322" y="684.542" width="172.031" height="101.546" rx="5.46943" transform="rotate(-180 241.322 684.542)" fill="#E5EBF2"/>
<rect x="456.361" y="626.003" width="175.615" height="22.6986" rx="5.46943" transform="rotate(-180 456.361 626.003)" fill="#CBD5E1"/>
<rect x="375.125" y="665.427" width="94.3783" height="22.6986" rx="5.46943" transform="rotate(-180 375.125 665.427)" fill="#E8EFF8"/>
<defs>
<filter id="filter0_d_1227_624" x="39.4245" y="217.429" width="457.555" height="155.306" filterUnits="userSpaceOnUse" color-interpolation-filters="sRGB">
<feFlood flood-opacity="0" result="BackgroundImageFix"/>
<feColorMatrix in="SourceAlpha" type="matrix" values="0 0 0 0 0 0 0 0 0 0 0 0 0 0 0 0 0 0 127 0" result="hardAlpha"/>
<feOffset dy="4.77865"/>
<feGaussianBlur stdDeviation="2.38932"/>
<feComposite in2="hardAlpha" operator="out"/>
<feColorMatrix type="matrix" values="0 0 0 0 0 0 0 0 0 0 0 0 0 0 0 0 0 0 0.1 0"/>
<feBlend mode="normal" in2="BackgroundImageFix" result="effect1_dropShadow_1227_624"/>
<feBlend mode="normal" in="SourceGraphic" in2="effect1_dropShadow_1227_624" result="shape"/>
</filter>
<filter id="filter1_d_1227_624" x="38.2292" y="389.46" width="457.555" height="155.306" filterUnits="userSpaceOnUse" color-interpolation-filters="sRGB">
<feFlood flood-opacity="0" result="BackgroundImageFix"/>
<feColorMatrix in="SourceAlpha" type="matrix" values="0 0 0 0 0 0 0 0 0 0 0 0 0 0 0 0 0 0 127 0" result="hardAlpha"/>
<feOffset dy="4.77865"/>
<feGaussianBlur stdDeviation="2.38932"/>
<feComposite in2="hardAlpha" operator="out"/>
<feColorMatrix type="matrix" values="0 0 0 0 0 0 0 0 0 0 0 0 0 0 0 0 0 0 0.1 0"/>
<feBlend mode="normal" in2="BackgroundImageFix" result="effect1_dropShadow_1227_624"/>
<feBlend mode="normal" in="SourceGraphic" in2="effect1_dropShadow_1227_624" result="shape"/>
</filter>
<filter id="filter2_d_1227_624" x="39.4245" y="561.491" width="457.555" height="155.306" filterUnits="userSpaceOnUse" color-interpolation-filters="sRGB">
<feFlood flood-opacity="0" result="BackgroundImageFix"/>
<feColorMatrix in="SourceAlpha" type="matrix" values="0 0 0 0 0 0 0 0 0 0 0 0 0 0 0 0 0 0 127 0" result="hardAlpha"/>
<feOffset dy="4.77865"/>
<feGaussianBlur stdDeviation="2.38932"/>
<feComposite in2="hardAlpha" operator="out"/>
<feColorMatrix type="matrix" values="0 0 0 0 0 0 0 0 0 0 0 0 0 0 0 0 0 0 0.1 0"/>
<feBlend mode="normal" in2="BackgroundImageFix" result="effect1_dropShadow_1227_624"/>
<feBlend mode="normal" in="SourceGraphic" in2="effect1_dropShadow_1227_624" result="shape"/>
</filter>
</defs>
</svg>
