<svg width="64" height="65" viewBox="0 0 64 65" fill="none" xmlns="http://www.w3.org/2000/svg">
<rect y="0.873291" width="64" height="64.1267" rx="15" fill="#1C1C1C"/>
<path fill-rule="evenodd" clip-rule="evenodd" d="M47.9247 13.1488C42.7027 12.3823 37.4317 11.9984 32.1538 12L30.5137 15.3203C30.5135 15.3203 30.5134 15.3203 30.5132 15.3203L32.1533 12C26.7981 12 21.5314 12.3918 16.3826 13.1488L16.3824 13.1488C12.0197 13.7906 9 17.6126 9 21.9032V35.1737V35.1759C9 39.4646 12.0199 43.2863 16.3823 43.928L17.9244 40.8061C17.9245 40.8061 17.9245 40.8061 17.9246 40.8061L16.3824 43.9281C18.3171 44.2128 20.267 44.4452 22.2308 44.6253V53.3461C22.2308 54.015 22.6337 54.6181 23.2517 54.8741C23.8697 55.13 24.581 54.9885 25.054 54.5156L34.0384 45.5312L34.0401 45.5295C34.3499 45.2226 34.7652 45.0455 35.2012 45.0345L35.2052 45.0344C39.4632 44.9165 43.7104 44.5471 47.9248 43.9281L47.9252 43.9281C52.2876 43.2864 55.3076 39.4669 55.3076 35.1737V21.9032C55.3076 17.61 52.2876 13.7905 47.9252 13.1488L47.9247 13.1488ZM20.8313 34.9216L17.9246 40.8061C19.9368 41.081 21.9666 41.2978 24.0126 41.4566C24.8737 41.5235 25.5384 42.2418 25.5384 43.1055V49.3534L31.7032 43.1886L31.707 43.1848C32.6156 42.282 33.835 41.7608 35.1153 41.7279C39.2424 41.6136 43.359 41.2555 47.4438 40.6556C50.0672 40.2697 51.9999 37.9457 51.9999 35.1737V21.9032C51.9999 19.1314 50.0675 16.8075 47.4443 16.4214L29.9698 16.4214L29.9698 16.4213H47.4438C42.3813 15.6783 37.2712 15.3061 32.1543 15.3077H32.1538C31.6061 15.3077 31.0594 15.3119 30.5137 15.3203L29.9698 16.4213H29.9694L30.5132 15.3203C25.8841 15.3918 21.3276 15.7651 16.8638 16.4213H29.9694L29.9693 16.4214L16.8637 16.4213C14.2407 16.8072 12.3077 19.1331 12.3077 21.9032V35.1737V35.1759C12.3077 37.9435 14.2404 40.2697 16.8638 40.6556L16.864 40.6556C17.2169 40.7076 17.5704 40.7577 17.9244 40.8061L20.8311 34.9215C20.6417 34.8616 20.4554 34.7929 20.2723 34.7152C19.473 34.3761 18.7706 33.9098 18.1651 33.3164C17.5596 32.7109 17.0812 32.0145 16.73 31.2273C16.3909 30.4401 16.2213 29.5924 16.2213 28.6841C16.2213 27.7758 16.3909 26.928 16.73 26.1408C17.0812 25.3537 17.5596 24.6633 18.1651 24.0699C18.7706 23.4644 19.473 22.9921 20.2723 22.653C21.0716 22.3139 21.9315 22.1443 22.8519 22.1443C23.4211 22.1443 23.9721 22.2049 24.505 22.326C25.0379 22.4471 25.5284 22.6288 25.9765 22.871C26.1581 22.9679 26.2913 23.1011 26.3761 23.2706C26.4201 23.3422 26.4542 23.415 26.4782 23.4891L29.9693 16.4214H29.9698L26.4784 23.4896C26.5071 23.5783 26.5214 23.6688 26.5214 23.7611C26.5214 24.0518 26.4245 24.3121 26.2308 24.5422C26.1121 24.6831 25.973 24.7809 25.8135 24.8355L24.1637 28.1754H26.2308C26.5457 28.1754 26.806 28.2844 27.0119 28.5024C27.2178 28.7083 27.3207 28.9687 27.3207 29.2836V33.1347C27.3207 33.377 27.2602 33.5768 27.1391 33.7342C27.0301 33.8917 26.9029 34.0188 26.7576 34.1157C26.2005 34.4548 25.5889 34.7273 24.9228 34.9332C24.2689 35.1269 23.5785 35.2238 22.8519 35.2238C22.1424 35.2238 21.4689 35.1231 20.8313 34.9216ZM21.8183 32.9235C22.1491 33.0038 22.4936 33.0439 22.8519 33.0439C23.2152 33.0439 23.6149 33.0076 24.0509 32.9349C24.4058 32.8758 24.7086 32.8006 24.9592 32.7093V30.3554H23.2516C23.1967 30.3554 23.1434 30.3522 23.0915 30.346L21.8183 32.9235ZM24.1634 28.1754H23.2516C22.9367 28.1754 22.6702 28.2784 22.4523 28.4843C22.2464 28.6901 22.1434 28.9505 22.1434 29.2654C22.1434 29.5803 22.2464 29.8407 22.4523 30.0465C22.6322 30.2165 22.8452 30.3163 23.0912 30.346L21.8181 32.9234C21.4223 32.8273 21.0464 32.6737 20.6902 32.4626C20.0483 32.063 19.5336 31.5301 19.146 30.864C18.7706 30.1979 18.5829 29.4713 18.5829 28.6841C18.5829 27.8848 18.7706 27.1581 19.146 26.5042C19.5336 25.8381 20.0483 25.3113 20.6902 24.9237C21.3441 24.5241 22.0647 24.3243 22.8519 24.3243C23.2273 24.3243 23.5846 24.3606 23.9237 24.4332C24.2628 24.5059 24.5837 24.6089 24.8865 24.7421C24.9834 24.7905 25.0803 24.8268 25.1772 24.8511C25.2861 24.8753 25.3891 24.8874 25.486 24.8874C25.6032 24.8874 25.7122 24.8702 25.813 24.8357L24.1634 28.1754ZM35.973 22.871C35.428 22.5077 34.8406 22.326 34.2109 22.326H30.069C29.7542 22.326 29.4877 22.435 29.2697 22.653C29.0639 22.8589 28.9609 23.1192 28.9609 23.4341V33.9341C28.9609 34.2489 29.0578 34.5154 29.2516 34.7334C29.4453 34.9392 29.6936 35.0422 29.9964 35.0422C30.3113 35.0422 30.5656 34.9392 30.7594 34.7334C30.9531 34.5154 31.05 34.2489 31.05 33.9341V30.5007H34.2109C34.8406 30.5007 35.428 30.319 35.973 29.9557C36.5301 29.5803 36.9782 29.0837 37.3173 28.4661C37.6564 27.8485 37.8259 27.1642 37.8259 26.4133C37.8259 25.6504 37.6564 24.9601 37.3173 24.3424C36.9782 23.7248 36.5301 23.2343 35.973 22.871ZM34.883 28.1391C34.665 28.3329 34.441 28.4298 34.2109 28.4298H31.05V24.4151H34.2109C34.441 24.4151 34.665 24.512 34.883 24.7057C35.101 24.8874 35.2827 25.1296 35.428 25.4324C35.5733 25.7351 35.646 26.0621 35.646 26.4133C35.646 26.7524 35.5733 27.0794 35.428 27.3943C35.2827 27.6971 35.101 27.9453 34.883 28.1391ZM42.8314 34.7334C43.0493 34.9392 43.3279 35.0422 43.667 35.0422C44.0182 35.0422 44.3028 34.9392 44.5208 34.7334C44.7509 34.5154 44.8659 34.2489 44.8659 33.9341V24.4151H47.718C48.0329 24.4151 48.2933 24.3243 48.4991 24.1426C48.7171 23.9488 48.8261 23.6945 48.8261 23.3796C48.8261 23.0647 48.7171 22.8104 48.4991 22.6166C48.2933 22.4229 48.0329 22.326 47.718 22.326H39.6523C39.3374 22.326 39.071 22.4229 38.853 22.6166C38.6471 22.7983 38.5442 23.0466 38.5442 23.3615C38.5442 23.6763 38.6471 23.9307 38.853 24.1244C39.071 24.3182 39.3374 24.4151 39.6523 24.4151H42.5044V33.9341C42.5044 34.2489 42.6134 34.5154 42.8314 34.7334Z" fill="white"/>
</svg>
