<svg width="364" height="429" viewBox="0 0 364 429" fill="none" xmlns="http://www.w3.org/2000/svg">
<rect width="359" height="428.848" rx="10" fill="white"/>
<rect x="0.5" y="-0.5" width="314" height="45.0911" rx="4.5" transform="matrix(1 0 0 -1 27 401.8)" fill="#F2F5F9" stroke="#CBD4E1"/>
<rect x="27" y="105.212" width="224" height="33.0653" rx="5" fill="#CAD3DE"/>
<path d="M171.278 113.228H44.7222C42.6665 113.228 41 114.574 41 116.234V125.252C41 126.912 42.6665 128.257 44.7222 128.257H171.278C173.334 128.257 175 126.912 175 125.252V116.234C175 114.574 173.334 113.228 171.278 113.228Z" fill="#AFB8C6"/>
<path d="M321.278 168.337H194.722C192.666 168.337 191 169.682 191 171.343V180.36C191 182.021 192.666 183.366 194.722 183.366H321.278C323.334 183.366 325 182.021 325 180.36V171.343C325 169.682 323.334 168.337 321.278 168.337Z" fill="#E6ECF2" fill-opacity="0.4"/>
<rect x="116" y="152.305" width="224" height="63.1248" rx="5" fill="#F2F5F9"/>
<rect x="27" y="239.477" width="224" height="63.1248" rx="5" fill="#CAD3DE"/>
<path d="M321.278 189.378H194.722C192.666 189.378 191 190.724 191 192.384V201.402C191 203.062 192.666 204.408 194.722 204.408H321.278C323.334 204.408 325 203.062 325 201.402V192.384C325 190.724 323.334 189.378 321.278 189.378Z" fill="#CAD3DE"/>
<path d="M319.194 167.335H155.806C153.152 167.335 151 168.681 151 170.341V179.358C151 181.019 153.152 182.364 155.806 182.364H319.194C321.848 182.364 324 181.019 324 179.358V170.341C324 168.681 321.848 167.335 319.194 167.335Z" fill="#CAD3DE"/>
<path d="M222.806 254.507H46.1944C43.3256 254.507 41 255.853 41 257.513V266.531C41 268.191 43.3256 269.537 46.1944 269.537H222.806C225.674 269.537 228 268.191 228 266.531V257.513C228 255.853 225.674 254.507 222.806 254.507Z" fill="#AFB8C6"/>
<path d="M152.806 276.551H44.1944C42.4302 276.551 41 277.896 41 279.556V288.574C41 290.234 42.4302 291.58 44.1944 291.58H152.806C154.57 291.58 156 290.234 156 288.574V279.556C156 277.896 154.57 276.551 152.806 276.551Z" fill="#AFB8C6"/>
<path d="M191.209 21.0457H90.9488C89.3202 21.0457 88 22.3685 88 24.0003V32.8643C88 34.4961 89.3202 35.8189 90.9488 35.8189H191.209C192.837 35.8189 194.157 34.4961 194.157 32.8643V24.0003C194.157 22.3685 192.837 21.0457 191.209 21.0457Z" fill="#CAD3DE"/>
<path d="M274.667 45.093H93.3333C90.3878 45.093 88 46.4388 88 48.099V57.1168C88 58.7769 90.3878 60.1227 93.3333 60.1227H274.667C277.612 60.1227 280 58.7769 280 57.1168V48.099C280 46.4388 277.612 45.093 274.667 45.093Z" fill="#F2F5F9"/>
<line x1="7" y1="83.5" x2="364" y2="83.5" stroke="#CAD3DE"/>
<path d="M305.216 368.768C305.051 368.723 304.877 368.721 304.711 368.762C304.545 368.803 304.394 368.885 304.274 369C304.153 369.116 304.068 369.26 304.027 369.417C303.987 369.574 303.991 369.739 304.042 369.894L307.125 379.358H317.924C318.176 379.358 318.418 379.452 318.596 379.621C318.775 379.789 318.875 380.017 318.875 380.255C318.875 380.494 318.775 380.722 318.596 380.89C318.418 381.059 318.176 381.153 317.924 381.153H307.125L304.042 390.617C303.991 390.772 303.987 390.937 304.027 391.094C304.068 391.251 304.153 391.395 304.274 391.51C304.394 391.626 304.545 391.708 304.711 391.749C304.877 391.79 305.051 391.788 305.216 391.743C313.604 389.44 321.513 385.801 328.604 380.985C328.727 380.901 328.826 380.792 328.895 380.665C328.964 380.538 329 380.398 329 380.255C329 380.113 328.964 379.973 328.895 379.846C328.826 379.719 328.727 379.609 328.604 379.526C321.513 374.71 313.604 371.071 305.216 368.768Z" fill="#BEC5D8"/>
<path fill-rule="evenodd" clip-rule="evenodd" d="M62.9245 21.1489C57.7026 20.3824 52.4316 19.9985 47.1537 20.0001L45.5135 23.3204C45.5134 23.3205 45.5132 23.3205 45.5131 23.3205L47.1532 20.0001C41.7979 20.0001 36.5312 20.392 31.3824 21.1489L31.3823 21.149C27.0195 21.7907 23.9999 25.6127 23.9999 29.9033V43.1738V43.176C23.9999 47.4647 27.0198 51.2864 31.3821 51.9281L32.9242 48.8062C32.9243 48.8062 32.9244 48.8062 32.9244 48.8062L31.3823 51.9282C33.317 52.2129 35.2668 52.4453 37.2306 52.6254V61.3462C37.2306 62.0151 37.6336 62.6182 38.2516 62.8742C38.8696 63.1302 39.5809 62.9887 40.0539 62.5157L49.0382 53.5313L49.0399 53.5296C49.3497 53.2227 49.765 53.0456 50.2011 53.0346L50.205 53.0345C54.463 52.9166 58.7103 52.5472 62.9247 51.9282L62.9251 51.9282C67.2875 51.2865 70.3075 47.467 70.3075 43.1738V29.9033C70.3075 25.6101 67.2875 21.7907 62.9251 21.149L62.9245 21.1489ZM35.8312 42.9217L32.9244 48.8062C34.9367 49.0811 36.9664 49.2979 39.0124 49.4567C39.8736 49.5236 40.5383 50.2419 40.5383 51.1056V57.3535L46.7031 51.1887L46.7069 51.1849C47.6155 50.2822 48.8348 49.7609 50.1152 49.728C54.2422 49.6137 58.3589 49.2556 62.4437 48.6557C65.0671 48.2698 66.9998 45.9458 66.9998 43.1738V29.9033C66.9998 27.1315 65.0673 24.8076 62.4442 24.4215L44.9697 24.4215L44.9697 24.4214H62.4437C57.3811 23.6784 52.271 23.3062 47.1542 23.3078H47.1537C46.606 23.3078 46.0593 23.312 45.5135 23.3204L44.9697 24.4214H44.9692L45.5131 23.3205C40.8839 23.3919 36.3274 23.7652 31.8637 24.4214H44.9692L44.9692 24.4215L31.8635 24.4214C29.2405 24.8073 27.3075 27.1332 27.3075 29.9033V43.1738V43.176C27.3075 45.9436 29.2403 48.2698 31.8637 48.6557L31.8638 48.6557C32.2167 48.7077 32.5702 48.7578 32.9242 48.8062L35.8309 42.9216C35.6415 42.8617 35.4553 42.793 35.2722 42.7153C34.4729 42.3762 33.7705 41.9099 33.1649 41.3165C32.5594 40.711 32.081 40.0146 31.7298 39.2274C31.3907 38.4402 31.2212 37.5925 31.2212 36.6842C31.2212 35.7759 31.3907 34.9282 31.7298 34.141C32.081 33.3538 32.5594 32.6635 33.1649 32.07C33.7705 31.4645 34.4729 30.9922 35.2722 30.6531C36.0715 30.314 36.9313 30.1444 37.8518 30.1444C38.421 30.1444 38.972 30.205 39.5049 30.3261C40.0377 30.4472 40.5282 30.6289 40.9763 30.8711C41.158 30.968 41.2912 31.1012 41.376 31.2707C41.42 31.3423 41.454 31.4151 41.4781 31.4892L44.9692 24.4215H44.9697L41.4782 31.4897C41.5069 31.5784 41.5213 31.6689 41.5213 31.7612C41.5213 32.0519 41.4244 32.3123 41.2306 32.5424C41.112 32.6833 40.9729 32.781 40.8134 32.8356L39.1636 36.1755H41.2306C41.5455 36.1755 41.8059 36.2845 42.0118 36.5025C42.2176 36.7084 42.3206 36.9688 42.3206 37.2837V41.1349C42.3206 41.3771 42.26 41.5769 42.1389 41.7343C42.0299 41.8918 41.9028 42.0189 41.7574 42.1158C41.2004 42.4549 40.5888 42.7274 39.9227 42.9333C39.2687 43.1271 38.5784 43.2239 37.8518 43.2239C37.1423 43.2239 36.4687 43.1232 35.8312 42.9217ZM36.8182 40.9236C37.1489 41.0039 37.4934 41.044 37.8518 41.044C38.2151 41.044 38.6147 41.0077 39.0507 40.935C39.4057 40.8759 39.7084 40.8007 39.959 40.7094V38.3555H38.2514C38.1966 38.3555 38.1432 38.3523 38.0914 38.3461L36.8182 40.9236ZM39.1632 36.1755H38.2514C37.9365 36.1755 37.6701 36.2785 37.4521 36.4844C37.2462 36.6903 37.1433 36.9506 37.1433 37.2655C37.1433 37.5804 37.2462 37.8408 37.4521 38.0466C37.6321 38.2166 37.8451 38.3164 38.0911 38.3461L36.8179 40.9235C36.4222 40.8274 36.0462 40.6738 35.69 40.4627C35.0481 40.0631 34.5334 39.5302 34.1459 38.8641C33.7705 38.198 33.5828 37.4714 33.5828 36.6842C33.5828 35.8849 33.7705 35.1583 34.1459 34.5043C34.5334 33.8382 35.0481 33.3114 35.69 32.9238C36.344 32.5242 37.0646 32.3244 37.8518 32.3244C38.2272 32.3244 38.5845 32.3607 38.9236 32.4334C39.2626 32.506 39.5836 32.609 39.8863 32.7422C39.9832 32.7906 40.0801 32.827 40.177 32.8512C40.286 32.8754 40.3889 32.8875 40.4858 32.8875C40.603 32.8875 40.712 32.8703 40.8129 32.8358L39.1632 36.1755ZM50.9728 30.8711C50.4279 30.5078 49.8405 30.3261 49.2107 30.3261H45.0689C44.754 30.3261 44.4876 30.4351 44.2696 30.6531C44.0637 30.859 43.9608 31.1194 43.9608 31.4342V41.9342C43.9608 42.249 44.0577 42.5155 44.2514 42.7335C44.4452 42.9393 44.6935 43.0423 44.9962 43.0423C45.3111 43.0423 45.5654 42.9393 45.7592 42.7335C45.953 42.5155 46.0499 42.249 46.0499 41.9342V38.5008H49.2107C49.8405 38.5008 50.4279 38.3191 50.9728 37.9558C51.5299 37.5804 51.978 37.0838 52.3171 36.4662C52.6562 35.8486 52.8258 35.1643 52.8258 34.4134C52.8258 33.6505 52.6562 32.9602 52.3171 32.3425C51.978 31.7249 51.5299 31.2344 50.9728 30.8711ZM49.8829 36.1392C49.6649 36.333 49.4408 36.4299 49.2107 36.4299H46.0499V32.4152H49.2107C49.4408 32.4152 49.6649 32.5121 49.8829 32.7058C50.1009 32.8875 50.2825 33.1297 50.4279 33.4325C50.5732 33.7353 50.6459 34.0622 50.6459 34.4134C50.6459 34.7525 50.5732 35.0795 50.4279 35.3944C50.2825 35.6972 50.1009 35.9454 49.8829 36.1392ZM57.8312 42.7335C58.0492 42.9393 58.3277 43.0423 58.6668 43.0423C59.0181 43.0423 59.3027 42.9393 59.5206 42.7335C59.7507 42.5155 59.8658 42.249 59.8658 41.9342V32.4152H62.7179C63.0327 32.4152 63.2931 32.3244 63.499 32.1427C63.717 31.9489 63.826 31.6946 63.826 31.3797C63.826 31.0649 63.717 30.8105 63.499 30.6168C63.2931 30.423 63.0327 30.3261 62.7179 30.3261H54.6522C54.3373 30.3261 54.0708 30.423 53.8529 30.6168C53.647 30.7984 53.544 31.0467 53.544 31.3616C53.544 31.6764 53.647 31.9308 53.8529 32.1245C54.0708 32.3183 54.3373 32.4152 54.6522 32.4152H57.5042V41.9342C57.5042 42.249 57.6132 42.5155 57.8312 42.7335Z" fill="#6B7694"/>
</svg>
