<svg width="47" height="43" viewBox="0 0 47 43" fill="none" xmlns="http://www.w3.org/2000/svg">
<path fill-rule="evenodd" clip-rule="evenodd" d="M38.9247 1.14877C33.7027 0.38231 28.4317 -0.00163224 23.1538 5.21543e-06L21.5137 3.32034C21.5135 3.32034 21.5134 3.32034 21.5132 3.32035L23.1533 5.33464e-06C17.7981 3.08454e-05 12.5314 0.391842 7.38256 1.14882L7.38243 1.14884C3.01969 1.79058 0 5.61255 0 9.90322V23.1737V23.1759C0 27.4646 3.01991 31.2863 7.38228 31.928L8.92439 28.8061C8.92445 28.8061 8.92452 28.8061 8.92458 28.8061L7.38243 31.9281C9.31713 32.2128 11.267 32.4452 13.2308 32.6253V41.3461C13.2308 42.015 13.6337 42.6181 14.2517 42.8741C14.8697 43.13 15.581 42.9885 16.054 42.5156L25.0384 33.5312L25.0401 33.5295C25.3499 33.2226 25.7652 33.0455 26.2012 33.0345L26.2052 33.0344C30.4632 32.9165 34.7104 32.5471 38.9248 31.9281L38.9252 31.9281C43.2876 31.2864 46.3076 27.4669 46.3076 23.1737V9.90322C46.3076 5.61003 43.2876 1.79054 38.9252 1.14884L38.9247 1.14877ZM11.8313 22.9216L8.92458 28.8061C10.9368 29.081 12.9666 29.2978 15.0126 29.4566C15.8737 29.5235 16.5384 30.2418 16.5384 31.1055V37.3534L22.7032 31.1886L22.707 31.1848C23.6156 30.282 24.835 29.7608 26.1153 29.7279C30.2424 29.6136 34.359 29.2555 38.4438 28.6556C41.0672 28.2697 42.9999 25.9457 42.9999 23.1737V9.90322C42.9999 7.13138 41.0675 4.80751 38.4443 4.42139L20.9698 4.42136L20.9698 4.42132H38.4438C33.3813 3.67828 28.2712 3.30608 23.1543 3.30769H23.1538C22.6061 3.30769 22.0594 3.31192 21.5137 3.32034L20.9698 4.42132H20.9694L21.5132 3.32035C16.8841 3.39179 12.3276 3.76506 7.8638 4.42132H20.9694L20.9693 4.42136L7.86368 4.42133C5.24065 4.80723 3.30769 7.13313 3.30769 9.90322V23.1737V23.1759C3.30769 25.9435 5.24041 28.2697 7.8638 28.6556L7.86396 28.6556C8.21689 28.7076 8.57037 28.7577 8.92439 28.8061L11.8311 22.9215C11.6417 22.8616 11.4554 22.7929 11.2723 22.7152C10.473 22.3761 9.77062 21.9098 9.16508 21.3164C8.55955 20.7109 8.08118 20.0145 7.72997 19.2273C7.39087 18.4401 7.22132 17.5924 7.22132 16.6841C7.22132 15.7758 7.39087 14.928 7.72997 14.1408C8.08118 13.3537 8.55955 12.6633 9.16508 12.0699C9.77062 11.4644 10.473 10.9921 11.2723 10.653C12.0716 10.3139 12.9315 10.1443 13.8519 10.1443C14.4211 10.1443 14.9721 10.2049 15.505 10.326C16.0379 10.4471 16.5284 10.6288 16.9765 10.871C17.1581 10.9679 17.2913 11.1011 17.3761 11.2706C17.4201 11.3422 17.4542 11.415 17.4782 11.4891L20.9693 4.42136H20.9698L17.4784 11.4896C17.5071 11.5783 17.5214 11.6688 17.5214 11.7611C17.5214 12.0518 17.4245 12.3121 17.2308 12.5422C17.1121 12.6831 16.973 12.7809 16.8135 12.8355L15.1637 16.1754H17.2308C17.5457 16.1754 17.806 16.2844 18.0119 16.5024C18.2178 16.7083 18.3207 16.9687 18.3207 17.2836V21.1347C18.3207 21.377 18.2602 21.5768 18.1391 21.7342C18.0301 21.8917 17.9029 22.0188 17.7576 22.1157C17.2005 22.4548 16.5889 22.7273 15.9228 22.9332C15.2689 23.1269 14.5785 23.2238 13.8519 23.2238C13.1424 23.2238 12.4689 23.1231 11.8313 22.9216ZM12.8183 20.9235C13.1491 21.0038 13.4936 21.0439 13.8519 21.0439C14.2152 21.0439 14.6149 21.0076 15.0509 20.9349C15.4058 20.8758 15.7086 20.8006 15.9592 20.7093V18.3554H14.2516C14.1967 18.3554 14.1434 18.3522 14.0915 18.346L12.8183 20.9235ZM15.1634 16.1754H14.2516C13.9367 16.1754 13.6702 16.2784 13.4523 16.4843C13.2464 16.6901 13.1434 16.9505 13.1434 17.2654C13.1434 17.5803 13.2464 17.8407 13.4523 18.0465C13.6322 18.2165 13.8452 18.3163 14.0912 18.346L12.8181 20.9234C12.4223 20.8273 12.0464 20.6737 11.6902 20.4626C11.0483 20.063 10.5336 19.5301 10.146 18.864C9.77062 18.1979 9.5829 17.4713 9.5829 16.6841C9.5829 15.8848 9.77062 15.1581 10.146 14.5042C10.5336 13.8381 11.0483 13.3113 11.6902 12.9237C12.3441 12.5241 13.0647 12.3243 13.8519 12.3243C14.2273 12.3243 14.5846 12.3606 14.9237 12.4332C15.2628 12.5059 15.5837 12.6089 15.8865 12.7421C15.9834 12.7905 16.0803 12.8268 16.1772 12.8511C16.2861 12.8753 16.3891 12.8874 16.486 12.8874C16.6032 12.8874 16.7122 12.8702 16.813 12.8357L15.1634 16.1754ZM26.973 10.871C26.428 10.5077 25.8406 10.326 25.2109 10.326H21.069C20.7542 10.326 20.4877 10.435 20.2697 10.653C20.0639 10.8589 19.9609 11.1192 19.9609 11.4341V21.9341C19.9609 22.2489 20.0578 22.5154 20.2516 22.7334C20.4453 22.9392 20.6936 23.0422 20.9964 23.0422C21.3113 23.0422 21.5656 22.9392 21.7594 22.7334C21.9531 22.5154 22.05 22.2489 22.05 21.9341V18.5007H25.2109C25.8406 18.5007 26.428 18.319 26.973 17.9557C27.5301 17.5803 27.9782 17.0837 28.3173 16.4661C28.6564 15.8485 28.8259 15.1642 28.8259 14.4133C28.8259 13.6504 28.6564 12.9601 28.3173 12.3424C27.9782 11.7248 27.5301 11.2343 26.973 10.871ZM25.883 16.1391C25.665 16.3329 25.441 16.4298 25.2109 16.4298H22.05V12.4151H25.2109C25.441 12.4151 25.665 12.512 25.883 12.7057C26.101 12.8874 26.2827 13.1296 26.428 13.4324C26.5733 13.7351 26.646 14.0621 26.646 14.4133C26.646 14.7524 26.5733 15.0794 26.428 15.3943C26.2827 15.6971 26.101 15.9453 25.883 16.1391ZM33.8314 22.7334C34.0493 22.9392 34.3279 23.0422 34.667 23.0422C35.0182 23.0422 35.3028 22.9392 35.5208 22.7334C35.7509 22.5154 35.8659 22.2489 35.8659 21.9341V12.4151H38.718C39.0329 12.4151 39.2933 12.3243 39.4991 12.1426C39.7171 11.9488 39.8261 11.6945 39.8261 11.3796C39.8261 11.0647 39.7171 10.8104 39.4991 10.6166C39.2933 10.4229 39.0329 10.326 38.718 10.326H30.6523C30.3374 10.326 30.071 10.4229 29.853 10.6166C29.6471 10.7983 29.5442 11.0466 29.5442 11.3615C29.5442 11.6763 29.6471 11.9307 29.853 12.1244C30.071 12.3182 30.3374 12.4151 30.6523 12.4151H33.5044V21.9341C33.5044 22.2489 33.6134 22.5154 33.8314 22.7334Z" fill="#242424"/>
</svg>
