<svg width="308" height="263" fill="none" xmlns="http://www.w3.org/2000/svg" xmlns:xlink="http://www.w3.org/1999/xlink"><path d="M10.509 29.672A4 4 0 0 1 14.495 26h13.162a4 4 0 0 1 3.987 4.329l-1.153 14A4 4 0 0 1 26.505 48H13.343a4 4 0 0 1-3.987-4.329l1.153-14zM286.509 182.672a4 4 0 0 1 3.986-3.672h13.162a4 4 0 0 1 3.987 4.329l-1.153 14a3.999 3.999 0 0 1-3.986 3.671h-13.162a4 4 0 0 1-3.987-4.328l1.153-14zM151.509 58.672a4 4 0 0 1 3.986-3.671h13.162a4 4 0 0 1 3.987 4.328l-1.153 14A4 4 0 0 1 167.505 77h-13.162a4 4 0 0 1-3.987-4.329l1.153-14zM1.509 218.672A4 4 0 0 1 5.495 215h13.162a4 4 0 0 1 3.987 4.329l-1.153 14A4 4 0 0 1 17.505 237H4.343a4 4 0 0 1-3.987-4.328l1.153-14z" fill="#0495FE" fill-opacity=".3"/><path d="M39.503 39.668a4 4 0 0 1 3.986-3.667h59.933a4 4 0 0 1 3.986 4.332l-5.141 61.703a4 4 0 0 1-3.987 3.668H38.347a4 4 0 0 1-3.986-4.332l5.142-61.704z" fill="#fff" filter="url(#filter0_dd)"/><path d="M62.727 71a8.312 8.312 0 0 1 .42-2.596l-4.709-3.608a14.102 14.102 0 0 0 0 12.409l4.71-3.608a8.312 8.312 0 0 1-.42-2.597z" fill="#FBBC05"/><path d="M58.438 64.796l4.71 3.608A8.273 8.273 0 0 1 71 62.728a8.095 8.095 0 0 1 5.155 1.845l4.072-4.073a14 14 0 0 0-21.789 4.296z" fill="#EA4335"/><path d="M71 68.455v5.41h7.51c-.7 3.436-3.628 5.408-7.51 5.408a8.273 8.273 0 0 1-7.859-5.682l-4.71 3.608A13.955 13.955 0 0 0 71.002 85c7 0 13.363-5.091 13.363-14a11.613 11.613 0 0 0-.319-2.546H71z" fill="#34A853"/><path d="M71 68.455v5.41h7.51a6.319 6.319 0 0 1-2.858 4.186l4.454 3.462c2.584-2.392 4.258-5.95 4.258-10.513a11.613 11.613 0 0 0-.319-2.545H71z" fill="#4285F4"/><path d="M140.673 136.667a4 4 0 0 1 3.986-3.667h38.528a4 4 0 0 1 3.986 4.333l-3.311 39.631a4 4 0 0 1-3.986 3.667h-38.528a4 4 0 0 1-3.986-4.333l3.311-39.631z" fill="#fff" filter="url(#filter1_dd)"/><path d="M169.802 151.591c-.02.13-.043.264-.07.401-.901 4.63-3.987 6.229-7.927 6.229h-2.006a.974.974 0 0 0-.963.825l-1.027 6.515-.291 1.846a.51.51 0 0 0 .292.547.51.51 0 0 0 .214.047h3.559a.855.855 0 0 0 .845-.722l.035-.181.67-4.251.043-.234a.856.856 0 0 1 .846-.723h.532c3.448 0 6.146-1.399 6.935-5.45.33-1.692.159-3.105-.713-4.098a3.38 3.38 0 0 0-.974-.751z" fill="#179BD7"/><path d="M168.859 151.214a6.936 6.936 0 0 0-.877-.195 11.143 11.143 0 0 0-1.769-.129h-5.359a.854.854 0 0 0-.845.723l-1.141 7.222-.032.21a.975.975 0 0 1 .963-.825h2.006c3.94 0 7.025-1.6 7.927-6.229.027-.137.05-.271.07-.401a4.77 4.77 0 0 0-.943-.376z" fill="#222D65"/><path d="M160.009 151.613a.854.854 0 0 1 .845-.722h5.359c.635 0 1.228.041 1.769.129.366.057.727.143 1.079.257.267.088.514.193.742.313.268-1.711-.002-2.876-.927-3.931-1.02-1.161-2.861-1.659-5.216-1.659h-6.839a.978.978 0 0 0-.966.826l-2.848 18.054a.596.596 0 0 0 .134.474.597.597 0 0 0 .446.206h4.221l1.06-6.725 1.141-7.222z" fill="#253B80"/><path d="M173.202 5.669A4 4 0 0 1 177.188 2h91.506a4 4 0 0 1 3.986 4.332l-7.842 94.232a4 4 0 0 1-3.986 3.668h-91.505a4 4 0 0 1-3.987-4.332l7.842-94.231z" fill="#fff" filter="url(#filter2_dd)"/><path fill-rule="evenodd" clip-rule="evenodd" d="M251.812 53.915c0-4.602-2.233-8.234-6.499-8.234-4.285 0-6.878 3.632-6.878 8.198 0 5.411 3.061 8.144 7.454 8.144 2.142 0 3.762-.485 4.987-1.169V57.26c-1.225.611-2.629.989-4.411.989-1.747 0-3.295-.611-3.493-2.733h8.804c0-.234.036-1.168.036-1.6zm-8.894-1.708c0-2.031 1.242-2.876 2.377-2.876 1.098 0 2.268.845 2.268 2.876h-4.645zM231.486 45.681c-1.764 0-2.898.827-3.529 1.403l-.234-1.115h-3.96v20.962l4.501-.953.018-5.088c.648.468 1.602 1.133 3.186 1.133 3.223 0 6.157-2.589 6.157-8.288-.018-5.213-2.988-8.054-6.139-8.054zm-1.08 12.387c-1.062 0-1.692-.378-2.124-.845l-.018-6.67c.468-.521 1.116-.88 2.142-.88 1.638 0 2.772 1.833 2.772 4.188 0 2.41-1.116 4.207-2.772 4.207zM217.57 44.62l4.518-.97V40l-4.518.953v3.668z" fill="#6772E5"/><path d="M222.088 45.987h-4.518v15.73h4.518v-15.73z" fill="#6772E5"/><path fill-rule="evenodd" clip-rule="evenodd" d="M212.727 47.317l-.288-1.33h-3.889v15.73h4.501v-10.66c1.062-1.385 2.862-1.133 3.42-.935v-4.135c-.576-.216-2.682-.611-3.744 1.33zM203.725 42.086l-4.393.934-.018 14.4c0 2.661 1.999 4.62 4.663 4.62 1.476 0 2.557-.269 3.151-.593v-3.649c-.576.234-3.421 1.06-3.421-1.6v-6.382h3.421v-3.83h-3.421l.018-3.9zM191.555 50.553c0-.7.576-.97 1.53-.97 1.368 0 3.097.413 4.465 1.15v-4.225c-1.494-.593-2.971-.827-4.465-.827-3.655 0-6.085 1.906-6.085 5.088 0 4.962 6.841 4.17 6.841 6.31 0 .827-.72 1.097-1.728 1.097-1.494 0-3.403-.611-4.915-1.438v4.278a12.496 12.496 0 0 0 4.915 1.025c3.745 0 6.319-1.852 6.319-5.07-.018-5.357-6.877-4.404-6.877-6.418z" fill="#6772E5"/><path d="M19.503 183.668A4 4 0 0 1 23.489 180h59.933a4 4 0 0 1 3.987 4.333l-5.143 61.703a4 4 0 0 1-3.986 3.668H18.347a4 4 0 0 1-3.986-4.332l5.142-61.704z" fill="#fff" filter="url(#filter3_dd)"/><path fill-rule="evenodd" clip-rule="evenodd" d="M51 200c8.29 0 15 6.71 15 15 0 8.291-6.71 15-15 15s-15-6.709-15-15c0-8.29 6.71-15 15-15z" fill="#49494C"/><path fill-rule="evenodd" clip-rule="evenodd" d="M58.964 221.601c-.546 1.69-1.364 2.945-2.51 3.872-1.145.928-2.672 1.418-4.581 1.582l-.382-2.509c1.255-.164 2.182-.436 2.782-.873.273-.218.654-.709.654-.709L50.4 208.455h3.764l2.618 10.855 2.782-10.855h3.654l-4.254 13.146zM45.818 208.073c.873 0 1.691.109 2.346.382.709.273 1.363.655 2.018 1.2l-1.527 2.073a5.964 5.964 0 0 0-1.255-.709c-.382-.164-.873-.218-1.309-.218-1.855 0-2.782 1.418-2.782 4.309 0 1.472.218 2.509.71 3.109.49.654 1.145.927 2.072.927.436 0 .873-.055 1.255-.218.381-.164.818-.382 1.363-.709l1.527 2.182c-1.254 1.036-2.672 1.527-4.309 1.527-1.309 0-2.4-.273-3.381-.818a5.495 5.495 0 0 1-2.182-2.4c-.491-1.037-.764-2.237-.764-3.655 0-1.364.273-2.618.764-3.654.49-1.091 1.254-1.91 2.182-2.51.927-.545 2.018-.818 3.272-.818z" fill="#fff"/><path d="M197.503 186.668a4 4 0 0 1 3.986-3.668h59.933a4 4 0 0 1 3.986 4.333l-5.141 61.703a4 4 0 0 1-3.987 3.668h-59.933a4 4 0 0 1-3.986-4.332l5.142-61.704z" fill="#fff" filter="url(#filter4_dd)"/><mask id="a" maskUnits="userSpaceOnUse" x="216" y="201" width="25" height="34"><path d="M237.614 208.567a.775.775 0 0 0-1.31-.423l-3.987 4.012-3.159-5.969a.752.752 0 0 0-1.349 0l-1.714 3.262-4.334-8.023c-.347-.652-1.329-.479-1.445.25l-4.16 26.603 11.153 6.238a2.347 2.347 0 0 0 2.253 0l11.25-6.238-3.198-19.712z" fill="#fff"/></mask><g mask="url(#a)"><path d="M237.614 208.567a.775.775 0 0 0-1.31-.423l-3.987 4.012-3.159-5.969a.752.752 0 0 0-1.349 0l-1.714 3.262-4.334-8.023c-.347-.652-1.329-.479-1.445.25l-4.16 26.603 11.153 6.238a2.347 2.347 0 0 0 2.253 0l11.25-6.238-3.198-19.712z" fill="url(#paint0_linear)"/><path d="M216.156 228.279l4.179-26.603c.116-.729 1.098-.902 1.445-.25l4.315 8.023 1.714-3.262a.771.771 0 0 1 1.368 0l11.635 22.092h-24.656z" fill="#FFA000"/><path fill="url(#pattern0)" d="M214.615 207.741h16.758v21.305h-16.758z"/><path d="M230.564 217.914l-4.488-8.464-9.92 18.829 14.408-10.365z" fill="#F57C00"/><path fill="url(#pattern1)" d="M215.385 206.206h26.968v29.559h-26.968z"/><path d="M240.812 228.279l-3.198-19.712a.775.775 0 0 0-1.31-.423l-20.148 20.135 11.153 6.238a2.347 2.347 0 0 0 2.253 0l11.25-6.238z" fill="#FFCA28"/><path d="M237.614 208.567a.775.775 0 0 0-1.31-.423l-3.987 4.012-3.159-5.969a.752.752 0 0 0-1.349 0l-1.714 3.262-4.334-8.023c-.347-.652-1.329-.479-1.445.25l-4.161 26.603h-.019l.019.019.116.057 16.026-16.007 4.007-3.993a.779.779 0 0 1 1.31.423l3.159 19.52.039-.019-3.198-19.712zm-21.42 19.673l4.141-26.372c.116-.729 1.098-.902 1.445-.25l4.315 8.023 1.714-3.263a.773.773 0 0 1 1.368 0l3.082 5.835-16.065 16.027z" fill="#fff" fill-opacity=".2"/><path opacity=".2" d="M229.562 234.325a2.347 2.347 0 0 1-2.253 0l-11.134-6.219-.019.173 11.153 6.238a2.347 2.347 0 0 0 2.253 0l11.25-6.238-.02-.173-11.23 6.219z" fill="#A52714"/><path d="M237.614 208.567a.775.775 0 0 0-1.31-.423l-3.987 4.012-3.159-5.969a.752.752 0 0 0-1.349 0l-1.714 3.262-4.334-8.023c-.347-.652-1.329-.479-1.445.25l-4.16 26.603 11.153 6.238a2.347 2.347 0 0 0 2.253 0l11.25-6.238-3.198-19.712z" fill="url(#paint1_linear)"/></g><defs><filter id="filter0_dd" x="28.347" y="34.001" width="85.076" height="81.703" filterUnits="userSpaceOnUse" color-interpolation-filters="sRGB"><feFlood flood-opacity="0" result="BackgroundImageFix"/><feColorMatrix in="SourceAlpha" values="0 0 0 0 0 0 0 0 0 0 0 0 0 0 0 0 0 0 127 0"/><feOffset dy="1"/><feGaussianBlur stdDeviation="1.5"/><feColorMatrix values="0 0 0 0 0 0 0 0 0 0 0 0 0 0 0 0 0 0 0.08 0"/><feBlend in2="BackgroundImageFix" result="effect1_dropShadow"/><feColorMatrix in="SourceAlpha" values="0 0 0 0 0 0 0 0 0 0 0 0 0 0 0 0 0 0 127 0"/><feOffset dy="4"/><feGaussianBlur stdDeviation="3"/><feColorMatrix values="0 0 0 0 0 0 0 0 0 0 0 0 0 0 0 0 0 0 0.11 0"/><feBlend in2="effect1_dropShadow" result="effect2_dropShadow"/><feBlend in="SourceGraphic" in2="effect2_dropShadow" result="shape"/></filter><filter id="filter1_dd" x="131.348" y="131" width="61.839" height="59.631" filterUnits="userSpaceOnUse" color-interpolation-filters="sRGB"><feFlood flood-opacity="0" result="BackgroundImageFix"/><feColorMatrix in="SourceAlpha" values="0 0 0 0 0 0 0 0 0 0 0 0 0 0 0 0 0 0 127 0"/><feOffset dy="1"/><feGaussianBlur stdDeviation="1.5"/><feColorMatrix values="0 0 0 0 0 0 0 0 0 0 0 0 0 0 0 0 0 0 0.08 0"/><feBlend in2="BackgroundImageFix" result="effect1_dropShadow"/><feColorMatrix in="SourceAlpha" values="0 0 0 0 0 0 0 0 0 0 0 0 0 0 0 0 0 0 127 0"/><feOffset dy="4"/><feGaussianBlur stdDeviation="3"/><feColorMatrix values="0 0 0 0 0 0 0 0 0 0 0 0 0 0 0 0 0 0 0.11 0"/><feBlend in2="effect1_dropShadow" result="effect2_dropShadow"/><feBlend in="SourceGraphic" in2="effect2_dropShadow" result="shape"/></filter><filter id="filter2_dd" x="159.346" y="0" width="119.348" height="114.232" filterUnits="userSpaceOnUse" color-interpolation-filters="sRGB"><feFlood flood-opacity="0" result="BackgroundImageFix"/><feColorMatrix in="SourceAlpha" values="0 0 0 0 0 0 0 0 0 0 0 0 0 0 0 0 0 0 127 0"/><feOffset dy="1"/><feGaussianBlur stdDeviation="1.5"/><feColorMatrix values="0 0 0 0 0 0 0 0 0 0 0 0 0 0 0 0 0 0 0.08 0"/><feBlend in2="BackgroundImageFix" result="effect1_dropShadow"/><feColorMatrix in="SourceAlpha" values="0 0 0 0 0 0 0 0 0 0 0 0 0 0 0 0 0 0 127 0"/><feOffset dy="4"/><feGaussianBlur stdDeviation="3"/><feColorMatrix values="0 0 0 0 0 0 0 0 0 0 0 0 0 0 0 0 0 0 0.11 0"/><feBlend in2="effect1_dropShadow" result="effect2_dropShadow"/><feBlend in="SourceGraphic" in2="effect2_dropShadow" result="shape"/></filter><filter id="filter3_dd" x="8.347" y="178" width="85.076" height="81.703" filterUnits="userSpaceOnUse" color-interpolation-filters="sRGB"><feFlood flood-opacity="0" result="BackgroundImageFix"/><feColorMatrix in="SourceAlpha" values="0 0 0 0 0 0 0 0 0 0 0 0 0 0 0 0 0 0 127 0"/><feOffset dy="1"/><feGaussianBlur stdDeviation="1.5"/><feColorMatrix values="0 0 0 0 0 0 0 0 0 0 0 0 0 0 0 0 0 0 0.08 0"/><feBlend in2="BackgroundImageFix" result="effect1_dropShadow"/><feColorMatrix in="SourceAlpha" values="0 0 0 0 0 0 0 0 0 0 0 0 0 0 0 0 0 0 127 0"/><feOffset dy="4"/><feGaussianBlur stdDeviation="3"/><feColorMatrix values="0 0 0 0 0 0 0 0 0 0 0 0 0 0 0 0 0 0 0.11 0"/><feBlend in2="effect1_dropShadow" result="effect2_dropShadow"/><feBlend in="SourceGraphic" in2="effect2_dropShadow" result="shape"/></filter><filter id="filter4_dd" x="186.347" y="181" width="85.076" height="81.703" filterUnits="userSpaceOnUse" color-interpolation-filters="sRGB"><feFlood flood-opacity="0" result="BackgroundImageFix"/><feColorMatrix in="SourceAlpha" values="0 0 0 0 0 0 0 0 0 0 0 0 0 0 0 0 0 0 127 0"/><feOffset dy="1"/><feGaussianBlur stdDeviation="1.5"/><feColorMatrix values="0 0 0 0 0 0 0 0 0 0 0 0 0 0 0 0 0 0 0.08 0"/><feBlend in2="BackgroundImageFix" result="effect1_dropShadow"/><feColorMatrix in="SourceAlpha" values="0 0 0 0 0 0 0 0 0 0 0 0 0 0 0 0 0 0 127 0"/><feOffset dy="4"/><feGaussianBlur stdDeviation="3"/><feColorMatrix values="0 0 0 0 0 0 0 0 0 0 0 0 0 0 0 0 0 0 0.11 0"/><feBlend in2="effect1_dropShadow" result="effect2_dropShadow"/><feBlend in="SourceGraphic" in2="effect2_dropShadow" result="shape"/></filter><pattern id="pattern0" patternContentUnits="objectBoundingBox" width="1" height="1"><use xlink:href="#image0" transform="scale(.0115 .00893)"/></pattern><pattern id="pattern1" patternContentUnits="objectBoundingBox" width="1" height="1"><use xlink:href="#image1" transform="scale(.00714 .00645)"/></pattern><linearGradient id="paint0_linear" x1="215.297" y1="206.773" x2="245.977" y2="223.056" gradientUnits="userSpaceOnUse"><stop stop-color="#fff" stop-opacity=".1"/><stop offset="1" stop-color="#fff" stop-opacity="0"/></linearGradient><linearGradient id="paint1_linear" x1="215.297" y1="206.773" x2="245.977" y2="223.056" gradientUnits="userSpaceOnUse"><stop stop-color="#fff" stop-opacity=".1"/><stop offset="1" stop-color="#fff" stop-opacity="0"/></linearGradient></defs></svg>