<svg width="160" height="316" viewBox="0 0 160 316" fill="none" xmlns="http://www.w3.org/2000/svg">
<rect width="160" height="315.385" fill="white"/>
<path d="M7.54736 23.4193C7.54736 15.9165 13.6295 9.83435 21.1323 9.83435H39.2455C39.2455 15.3968 41.9711 17.9033 43.7597 18.9493C44.7185 19.51 45.833 19.6226 46.9437 19.6226C56.9634 19.6226 109.044 19.6226 112.453 19.6226C116.227 19.6226 120.755 18.1132 120.755 9.83435H138.868C146.371 9.83435 152.453 15.9165 152.453 23.4193V293.608C152.453 301.111 146.371 307.193 138.868 307.193H21.1323C13.6295 307.193 7.54736 301.111 7.54736 293.608V23.4193Z" fill="#F2F3F7"/>
<path d="M143 71H17C14.5 71 13 72.5 13 75.0764V304.5C14 305.333 16 306.5 18 307H142C144.5 306.5 146.167 305 147 304.5V75.0764C147 72.5 145.5 71 143 71Z" fill="white"/>
<path fill-rule="evenodd" clip-rule="evenodd" d="M12.5 304.734V75.0764C12.5 73.6919 12.9047 72.5339 13.7065 71.7209C14.5091 70.9072 15.6496 70.5 17 70.5H143C144.35 70.5 145.491 70.9072 146.293 71.7209C147.095 72.5339 147.5 73.6919 147.5 75.0764V304.783L147.257 304.929C147.114 305.015 146.93 305.145 146.707 305.302C145.786 305.952 144.202 307.07 142.098 307.49L142.05 307.5H17.9384L17.8787 307.485C15.7975 306.965 13.7309 305.76 12.6799 304.884L12.5 304.734ZM13 304.5V75.0764C13 72.5 14.5 71 17 71H143C145.5 71 147 72.5 147 75.0764V304.5C146.827 304.604 146.619 304.75 146.375 304.922C145.441 305.578 143.982 306.604 142 307H18C16 306.5 14 305.333 13 304.5Z" fill="#D9DBEC"/>
<path fill-rule="evenodd" clip-rule="evenodd" d="M120 9.07959H138.868C146.788 9.07959 153.208 15.4997 153.208 23.4192V293.608C153.208 301.527 146.788 307.948 138.868 307.948H21.1321C13.2125 307.948 6.79248 301.527 6.79248 293.608V23.4192C6.79248 15.4997 13.2125 9.07959 21.1321 9.07959H40V9.83431C40 15.0878 42.5458 17.3652 44.1405 18.2978C44.9201 18.7537 45.866 18.8679 46.9436 18.8679H112.453C114.257 18.8679 116.115 18.5041 117.52 17.2666C118.908 16.0446 120 13.8399 120 9.83431V9.07959ZM21.1321 9.83431C13.6294 9.83431 7.5472 15.9165 7.5472 23.4192V293.608C7.5472 301.111 13.6294 307.193 21.1321 307.193H138.868C146.371 307.193 152.453 301.111 152.453 293.608V23.4192C152.453 15.9165 146.371 9.83431 138.868 9.83431H120.755C120.755 18.1132 116.226 19.6226 112.453 19.6226H46.9436C45.8328 19.6226 44.7183 19.51 43.7595 18.9493C41.9709 17.9033 39.2453 15.3967 39.2453 9.83431H21.1321Z" fill="#D9DBEC"/>
<path d="M132.83 14.3397C132.83 13.9229 133.168 13.585 133.585 13.585C134.002 13.585 134.34 13.9229 134.34 14.3397V17.3585C134.34 17.7754 134.002 18.1133 133.585 18.1133C133.168 18.1133 132.83 17.7754 132.83 17.3585V14.3397Z" fill="#DADDED"/>
<path d="M129.812 15.8491C129.812 15.4323 130.149 15.0944 130.566 15.0944C130.983 15.0944 131.321 15.4323 131.321 15.8491V17.3585C131.321 17.7753 130.983 18.1132 130.566 18.1132C130.149 18.1132 129.812 17.7753 129.812 17.3585V15.8491Z" fill="#DADDED"/>
<path d="M126.792 17.3585C126.792 16.9417 127.13 16.6038 127.547 16.6038C127.964 16.6038 128.302 16.9417 128.302 17.3585C128.302 17.7753 127.964 18.1132 127.547 18.1132C127.13 18.1132 126.792 17.7753 126.792 17.3585Z" fill="#DADDED"/>
<path d="M19.6226 14.085C19.6226 13.8088 19.8464 13.585 20.1226 13.585H34.2169C34.493 13.585 34.7169 13.8088 34.7169 14.085V17.6133C34.7169 17.8894 34.493 18.1133 34.2169 18.1133H20.1226C19.8464 18.1133 19.6226 17.8894 19.6226 17.6133V14.085Z" fill="#DADDED"/>
<path d="M137.358 14.085C137.358 13.8088 137.582 13.585 137.858 13.585H141.387C141.663 13.585 141.887 13.8088 141.887 14.085V17.6133C141.887 17.8894 141.663 18.1133 141.387 18.1133H137.858C137.582 18.1133 137.358 17.8894 137.358 17.6133V14.085Z" fill="#DADDED"/>
<rect x="67.9243" y="12.0754" width="24.1509" height="1.50943" rx="0.754717" fill="#DADDED"/>
<mask id="mask0" mask-type="alpha" maskUnits="userSpaceOnUse" x="7" y="9" width="146" height="299">
<path d="M7.54736 18.8344C7.54736 13.8638 11.5768 9.83435 16.5474 9.83435H39.2455C39.2455 15.9437 42.5334 18.3667 44.2567 19.217C44.9166 19.5427 45.6161 19.6226 46.352 19.6226C54.681 19.6226 108.97 19.6226 112.453 19.6226C116.227 19.6226 120.755 18.1132 120.755 9.83435H143.453C148.424 9.83435 152.453 13.8638 152.453 18.8344V298.193C152.453 303.163 148.424 307.193 143.453 307.193H16.5474C11.5768 307.193 7.54736 303.163 7.54736 298.193V18.8344Z" fill="white"/>
</mask>
<g mask="url(#mask0)">
<rect x="28.6792" y="285" width="30.1887" height="3.01887" rx="1" fill="#DEE0E2"/>
<rect x="66.415" y="285" width="30.1887" height="3.01887" rx="1" fill="#DEE0E2"/>
<rect x="28.6792" y="265.492" width="105.66" height="3.01887" fill="#C4C8CB"/>
<rect x="28.6792" y="271.53" width="45.283" height="3.01887" fill="#C4C8CB"/>
<rect x="28.6792" y="223.396" width="49.8113" height="26.3154" rx="2" fill="url(#paint0_linear)"/>
<g filter="url(#filter0_f)">
<ellipse cx="49.3555" cy="235.144" rx="8.45853" ry="7.98861" fill="url(#paint1_linear)"/>
</g>
<circle cx="49.5186" cy="236.108" r="5.86819" fill="url(#paint2_linear)"/>
<circle cx="51.8655" cy="234.935" r="1.17364" fill="#C9D5E1"/>
<circle cx="52.453" cy="232.001" r="0.586819" fill="#C9D5E1"/>
<circle cx="46.5849" cy="233.174" r="0.586819" fill="#C9D5E1"/>
<circle cx="47.7582" cy="235.522" r="0.586819" fill="#CFDCE6"/>
<circle cx="50.1054" cy="233.174" r="0.586819" fill="#C9D5E1"/>
<circle cx="45.1171" cy="235.228" r="0.293409" fill="#CFDCE6"/>
<path d="M68.1523 244.073H45.5962C45.5962 242.758 47.3769 242.1 49.1577 242.1C49.7513 238.813 53.3127 237.498 55.6871 238.813C58.0614 233.554 65.7779 234.869 65.1844 242.1C67.0838 242.1 68.1523 243.415 68.1523 244.073Z" fill="url(#paint3_linear)"/>
<path d="M32.6489 226.965L32.7253 227.733L33.358 228.175L32.5901 228.251L32.1483 228.884L32.0719 228.116L31.4392 227.674L32.2071 227.598L32.6489 226.965Z" fill="#C8F1F5"/>
<path d="M64.0738 227.567L64.7189 227.991L65.4603 227.777L65.0369 228.422L65.2509 229.163L64.6058 228.74L63.8644 228.954L64.2879 228.309L64.0738 227.567Z" fill="#C8F1F5"/>
<path d="M68.6723 237.744L68.7488 238.512L69.3814 238.954L68.6136 239.03L68.1717 239.663L68.0953 238.895L67.4626 238.453L68.2305 238.377L68.6723 237.744Z" fill="#C8F1F5"/>
<path d="M39.0768 242.434L39.4922 243.084L40.2563 243.192L39.606 243.607L39.4981 244.372L39.0826 243.721L38.3185 243.613L38.9689 243.198L39.0768 242.434Z" fill="#C8F1F5"/>
<path opacity="0.5" d="M37.3072 235.838L37.6471 236.53L38.3942 236.723L37.7014 237.063L37.5084 237.81L37.1686 237.118L36.4214 236.925L37.1142 236.585L37.3072 235.838Z" fill="#C8F1F5"/>
<path opacity="0.5" d="M72.898 227.256L73.2379 227.949L73.985 228.142L73.2922 228.482L73.0992 229.229L72.7594 228.536L72.0122 228.343L72.705 228.003L72.898 227.256Z" fill="#C8F1F5"/>
<path opacity="0.5" d="M55.7159 243.411L55.5155 244.156L55.9508 244.794L55.2056 244.593L54.5684 245.028L54.7688 244.283L54.3335 243.646L55.0787 243.846L55.7159 243.411Z" fill="#C8F1F5"/>
<path opacity="0.5" d="M43.793 225.85L43.5927 226.595L44.028 227.232L43.2828 227.032L42.6456 227.467L42.8459 226.722L42.4106 226.085L43.1559 226.285L43.793 225.85Z" fill="#C8F1F5"/>
<rect x="28.6792" y="253.585" width="87.5472" height="7.54717" rx="1" fill="#C4C8CB"/>
<path fill-rule="evenodd" clip-rule="evenodd" d="M21.132 223.896H19.0942C18.2658 223.896 17.5942 224.568 17.5942 225.396V227.434C17.5942 228.262 18.2658 228.934 19.0942 228.934H21.132C21.9604 228.934 22.632 228.262 22.632 227.434V225.396C22.632 224.568 21.9604 223.896 21.132 223.896ZM19.0942 223.396C17.9897 223.396 17.0942 224.292 17.0942 225.396V227.434C17.0942 228.539 17.9897 229.434 19.0942 229.434H21.132C22.2365 229.434 23.132 228.539 23.132 227.434V225.396C23.132 224.292 22.2365 223.396 21.132 223.396H19.0942Z" fill="#D9DBEC"/>
<path fill-rule="evenodd" clip-rule="evenodd" d="M140.457 205.874H19.5469V205.374H140.457V205.874Z" fill="#D9DBEC"/>
<rect x="28.6792" y="184" width="30.1887" height="3.01887" rx="1" fill="#DEE0E2"/>
<rect x="66.415" y="184" width="30.1887" height="3.01887" rx="1" fill="#DEE0E2"/>
<rect x="28.6792" y="164.36" width="105.66" height="3.01887" fill="#C4C8CB"/>
<rect x="28.6792" y="170.397" width="45.283" height="3.01887" fill="#C4C8CB"/>
<rect x="28.6792" y="122.264" width="49.8113" height="26.3154" rx="2" fill="#EB4A4F"/>
<circle cx="54.0551" cy="135.422" r="9.39836" fill="url(#paint4_linear)"/>
<path d="M28.6792 141.061C28.6792 141.061 35.5715 139.181 41.8369 141.061C44.7947 141.948 58.284 140.591 63.9231 140.121C70.032 139.612 78.4905 141.061 78.4905 141.061V146.58C78.4905 147.684 77.5951 148.58 76.4905 148.58H30.6792C29.5746 148.58 28.6792 147.684 28.6792 146.58V141.061Z" fill="#0194D2"/>
<path d="M28.6792 153.453C28.6792 152.901 29.1269 152.453 29.6792 152.453H126.396C126.948 152.453 127.396 152.901 127.396 153.453V159C127.396 159.552 126.948 160 126.396 160H29.6792C29.1269 160 28.6792 159.552 28.6792 159V153.453Z" fill="#C4C8CB"/>
<path fill-rule="evenodd" clip-rule="evenodd" d="M21.132 122.764H19.0942C18.2658 122.764 17.5942 123.436 17.5942 124.264V126.302C17.5942 127.13 18.2658 127.802 19.0942 127.802H21.132C21.9604 127.802 22.632 127.13 22.632 126.302V124.264C22.632 123.436 21.9604 122.764 21.132 122.764ZM19.0942 122.264C17.9897 122.264 17.0942 123.16 17.0942 124.264V126.302C17.0942 127.406 17.9897 128.302 19.0942 128.302H21.132C22.2365 128.302 23.132 127.406 23.132 126.302V124.264C23.132 123.16 22.2365 122.264 21.132 122.264H19.0942Z" fill="#D9DBEC"/>
<path fill-rule="evenodd" clip-rule="evenodd" d="M77.32 93.98H32C30.5641 93.98 29.4 95.144 29.4 96.58V102.66C29.4 104.096 30.5641 105.26 32 105.26H77.32C78.7559 105.26 79.92 104.096 79.92 102.66V96.58C79.92 95.144 78.7559 93.98 77.32 93.98ZM32 93.58C30.3431 93.58 29 94.9231 29 96.58V102.66C29 104.317 30.3431 105.66 32 105.66H77.32C78.9769 105.66 80.32 104.317 80.32 102.66V96.58C80.32 94.9231 78.9769 93.58 77.32 93.58H32Z" fill="#D9DBEC"/>
<path d="M51.6306 98.5299H36.2453C35.5079 98.5299 34.9102 99.0018 34.9102 99.584V100.638C34.9102 101.22 35.5079 101.692 36.2453 101.692H51.6306C52.368 101.692 52.9657 101.22 52.9657 100.638V99.584C52.9657 99.0018 52.368 98.5299 51.6306 98.5299Z" fill="#C4C8CB"/>
<path d="M75.5881 99.655C75.6347 99.6085 75.6347 99.5322 75.5881 99.4856L75.2791 99.1785C75.2326 99.1319 75.1581 99.1319 75.1116 99.1785L74.123 100.167L73.1345 99.1785C73.088 99.1319 73.0135 99.1319 72.967 99.1785L72.658 99.4856C72.6114 99.5322 72.6114 99.6085 72.658 99.655L74.0393 101.034C74.0858 101.081 74.1603 101.081 74.2068 101.034L75.5881 99.655Z" fill="#C4C8CB"/>
<path fill-rule="evenodd" clip-rule="evenodd" d="M21.132 96.7628H19.0942C18.2658 96.7628 17.5942 97.4344 17.5942 98.2628V100.301C17.5942 101.129 18.2658 101.801 19.0942 101.801H21.132C21.9604 101.801 22.632 101.129 22.632 100.301V98.2628C22.632 97.4344 21.9604 96.7628 21.132 96.7628ZM19.0942 96.2628C17.9897 96.2628 17.0942 97.1582 17.0942 98.2628V100.301C17.0942 101.405 17.9897 102.301 19.0942 102.301H21.132C22.2365 102.301 23.132 101.405 23.132 100.301V98.2628C23.132 97.1582 22.2365 96.2628 21.132 96.2628H19.0942Z" fill="#D9DBEC"/>
<path fill-rule="evenodd" clip-rule="evenodd" d="M121.32 75.87H76C74.5641 75.87 73.4 77.034 73.4 78.47V84.55C73.4 85.9859 74.5641 87.15 76 87.15H121.32C122.756 87.15 123.92 85.9859 123.92 84.55V78.47C123.92 77.034 122.756 75.87 121.32 75.87ZM76 75.47C74.3431 75.47 73 76.8131 73 78.47V84.55C73 86.2068 74.3431 87.55 76 87.55H121.32C122.977 87.55 124.32 86.2068 124.32 84.55V78.47C124.32 76.8131 122.977 75.47 121.32 75.47H76Z" fill="#D9DBEC"/>
<path d="M95.6306 80H80.2453C79.5079 80 78.9102 80.4719 78.9102 81.0541V82.1082C78.9102 82.6903 79.5079 83.1623 80.2453 83.1623H95.6306C96.368 83.1623 96.9657 82.6903 96.9657 82.1082V81.0541C96.9657 80.4719 96.368 80 95.6306 80Z" fill="#C4C8CB"/>
<path d="M119.588 81.1251C119.635 81.0786 119.635 81.0023 119.588 80.9557L119.279 80.6486C119.233 80.602 119.158 80.602 119.112 80.6486L118.123 81.6371L117.135 80.6486C117.088 80.602 117.014 80.602 116.967 80.6486L116.658 80.9557C116.611 81.0023 116.611 81.0786 116.658 81.1251L118.039 82.5046C118.086 82.5511 118.16 82.5511 118.207 82.5046L119.588 81.1251Z" fill="#C4C8CB"/>
<path fill-rule="evenodd" clip-rule="evenodd" d="M65.4103 75.87H20.0903C18.6544 75.87 17.4903 77.034 17.4903 78.47V84.55C17.4903 85.9859 18.6544 87.15 20.0903 87.15H65.4103C66.8463 87.15 68.0103 85.9859 68.0103 84.55V78.47C68.0103 77.034 66.8463 75.87 65.4103 75.87ZM20.0903 75.47C18.4335 75.47 17.0903 76.8131 17.0903 78.47V84.55C17.0903 86.2068 18.4335 87.55 20.0903 87.55H65.4103C67.0672 87.55 68.4103 86.2068 68.4103 84.55V78.47C68.4103 76.8131 67.0672 75.47 65.4103 75.47H20.0903Z" fill="#D9DBEC"/>
<path d="M39.7209 80H24.3357C23.5983 80 23.0005 80.4719 23.0005 81.0541V82.1082C23.0005 82.6903 23.5983 83.1623 24.3357 83.1623H39.7209C40.4583 83.1623 41.0561 82.6903 41.0561 82.1082V81.0541C41.0561 80.4719 40.4583 80 39.7209 80Z" fill="#C4C8CB"/>
<path d="M63.6785 81.1251C63.725 81.0786 63.725 81.0023 63.6785 80.9557L63.3694 80.6486C63.3229 80.602 63.2484 80.602 63.2019 80.6486L62.2134 81.6371L61.2249 80.6486C61.1783 80.602 61.1039 80.602 61.0573 80.6486L60.7483 80.9557C60.7017 81.0023 60.7017 81.0786 60.7483 81.1251L62.1296 82.5046C62.1761 82.5511 62.2506 82.5511 62.2972 82.5046L63.6785 81.1251Z" fill="#C4C8CB"/>
<path d="M145.852 49.8114H103.922C103.413 49.8114 103 50.4474 103 51.232V60.4662C103 61.2508 103.413 61.8869 103.922 61.8869H145.852C146.361 61.8869 146.774 61.2508 146.774 60.4662V51.232C146.774 50.4474 146.361 49.8114 145.852 49.8114Z" fill="#0472FF"/>
<path d="M134.044 54.3397H115.73C115.369 54.3397 115.076 54.7903 115.076 55.346V56.3523C115.076 56.9081 115.369 57.3586 115.73 57.3586H134.044C134.405 57.3586 134.698 56.9081 134.698 56.3523V55.346C134.698 54.7903 134.405 54.3397 134.044 54.3397Z" fill="#9BC7FF"/>
<rect x="13" y="52.7435" width="28" height="6.32" rx="1" fill="#889197"/>
<path fill-rule="evenodd" clip-rule="evenodd" d="M152.453 42.5142H7.54736V42.0142H152.453V42.5142Z" fill="#D9DBEC"/>
<rect x="146.949" y="29.0835" width="6.7849" height="1.45391" rx="0.726954" transform="rotate(-180 146.949 29.0835)" fill="#C4C8CB"/>
<rect x="146.949" y="31.9915" width="6.7849" height="1.45391" rx="0.726954" transform="rotate(-180 146.949 31.9915)" fill="#C4C8CB"/>
<rect x="146.949" y="34.8992" width="6.7849" height="1.45391" rx="0.726954" transform="rotate(-180 146.949 34.8992)" fill="#C4C8CB"/>
<rect x="137.57" y="37.7207" width="13.5698" height="13.5698" rx="6.7849" transform="rotate(-180 137.57 37.7207)" fill="#C4C8CB"/>
<rect x="30.6475" y="27.8319" width="30.7624" height="2.92122" rx="1" fill="#889197"/>
<rect x="30.5786" y="33.6295" width="21.5479" height="2.83525" rx="1" fill="#C4C8CB"/>
<rect x="13" y="24.52" width="13.63" height="13.63" rx="2" fill="#0472FF"/>
<g filter="url(#filter1_d)">
<path fill-rule="evenodd" clip-rule="evenodd" d="M21.765 30.9366L21.7632 30.9367L21.7615 30.9369C21.6936 30.945 21.3514 30.9863 21.0264 31.0256L20.3368 31.1091L20.075 31.9654L20.2078 31.9495C20.8501 31.8728 21.5248 31.7914 22.039 31.7292C22.2961 31.6981 22.513 31.6718 22.6657 31.6533L22.7992 31.6371C22.7852 31.7796 22.7693 31.9221 22.7534 32.0653L22.7533 32.0656C22.736 32.221 22.7186 32.3772 22.7036 32.5337C22.012 32.6131 20.5293 32.7907 19.8855 32.8811L19.8291 32.889L19.8137 32.9438C19.7421 33.1978 19.6659 33.4479 19.5896 33.6985L19.5875 33.7052C19.5106 33.9578 19.4336 34.211 19.3615 34.4673C19.1552 35.2015 18.4791 35.7401 17.6767 35.7401C16.7103 35.7401 15.9272 34.9588 15.9272 33.9955C15.9272 33.0359 16.635 32.3317 17.6835 32.2506L17.6852 32.2505L17.687 32.2503C17.7549 32.2422 18.0994 32.2006 18.4268 32.161L19.1218 32.0769L19.3717 31.222L19.2407 31.2376C18.5984 31.3144 17.9566 31.391 17.4752 31.4486L16.7805 31.5316C16.7949 31.3849 16.8148 31.1976 16.8334 31.0258C16.8395 30.9684 16.8456 30.9126 16.8512 30.8607L16.8512 30.8605C16.8611 30.7696 16.8697 30.6904 16.8755 30.6348C17.5585 30.5566 18.9191 30.3965 19.563 30.306L19.6193 30.2981L19.6348 30.2434C19.7064 29.9894 19.7826 29.7392 19.8589 29.4886L19.8609 29.4819C19.9379 29.2293 20.0149 28.9762 20.0869 28.7199C20.2932 27.9856 20.9694 27.447 21.7717 27.447C22.7382 27.447 23.5212 28.2283 23.5212 29.1917C23.5212 30.1513 22.8134 30.8554 21.765 30.9366ZM20.6196 30.0656L20.5849 30.1919L20.7148 30.1752C20.8236 30.1611 20.9489 30.1495 21.0828 30.1372L21.1415 30.1317C21.2965 30.1173 21.46 30.1013 21.6154 30.0791C21.7703 30.057 21.9203 30.0283 22.0477 29.9876C22.1728 29.9476 22.2877 29.8925 22.3613 29.8104C22.6965 29.4359 22.7146 28.9064 22.3766 28.5694C22.0403 28.2339 21.439 28.2278 21.0692 28.6483C21.0205 28.7036 20.9788 28.7952 20.9416 28.8956C20.9032 28.9994 20.8655 29.1251 20.8288 29.2585C20.7921 29.3921 20.7559 29.5353 20.721 29.674L20.7183 29.6845C20.6842 29.8199 20.6512 29.9506 20.6196 30.0656ZM18.8289 33.1216L18.8636 32.9952L18.7337 33.012C18.6249 33.026 18.4996 33.0376 18.3657 33.05L18.3069 33.0554C18.152 33.0699 17.9884 33.0859 17.8331 33.108C17.6781 33.1301 17.5282 33.1588 17.4008 33.1995C17.2757 33.2395 17.1607 33.2946 17.0872 33.3768C16.7519 33.7513 16.7339 34.2808 17.0718 34.6178C17.4082 34.9532 18.0094 34.9593 18.3792 34.5389C18.4279 34.4835 18.4697 34.3919 18.5068 34.2916C18.5452 34.1878 18.583 34.062 18.6197 33.9287C18.6564 33.795 18.6925 33.6519 18.7275 33.5132L18.7302 33.5027C18.7643 33.3673 18.7972 33.2366 18.8289 33.1216Z" fill="white"/>
</g>
</g>
<defs>
<filter id="filter0_f" x="34.897" y="221.156" width="28.9171" height="27.9772" filterUnits="userSpaceOnUse" color-interpolation-filters="sRGB">
<feFlood flood-opacity="0" result="BackgroundImageFix"/>
<feBlend mode="normal" in="SourceGraphic" in2="BackgroundImageFix" result="shape"/>
<feGaussianBlur stdDeviation="3" result="effect1_foregroundBlur"/>
</filter>
<filter id="filter1_d" x="14.9272" y="27.447" width="9.59398" height="10.2931" filterUnits="userSpaceOnUse" color-interpolation-filters="sRGB">
<feFlood flood-opacity="0" result="BackgroundImageFix"/>
<feColorMatrix in="SourceAlpha" type="matrix" values="0 0 0 0 0 0 0 0 0 0 0 0 0 0 0 0 0 0 127 0"/>
<feOffset dy="1"/>
<feGaussianBlur stdDeviation="0.5"/>
<feColorMatrix type="matrix" values="0 0 0 0 0 0 0 0 0 0 0 0 0 0 0 0 0 0 0.1 0"/>
<feBlend mode="normal" in2="BackgroundImageFix" result="effect1_dropShadow"/>
<feBlend mode="normal" in="SourceGraphic" in2="effect1_dropShadow" result="shape"/>
</filter>
<linearGradient id="paint0_linear" x1="53.5849" y1="223.396" x2="53.5849" y2="249.712" gradientUnits="userSpaceOnUse">
<stop stop-color="#0F328C"/>
<stop offset="1" stop-color="#81398D"/>
</linearGradient>
<linearGradient id="paint1_linear" x1="49.3555" y1="227.156" x2="49.3555" y2="243.133" gradientUnits="userSpaceOnUse">
<stop stop-color="#EAF3EE"/>
<stop offset="1" stop-color="#9CAED6"/>
</linearGradient>
<linearGradient id="paint2_linear" x1="49.5186" y1="230.24" x2="49.5186" y2="241.977" gradientUnits="userSpaceOnUse">
<stop stop-color="#EAF3EE"/>
<stop offset="1" stop-color="#9CAED6"/>
</linearGradient>
<linearGradient id="paint3_linear" x1="56.8742" y1="235.614" x2="56.8742" y2="244.073" gradientUnits="userSpaceOnUse">
<stop stop-color="#8CD2F6"/>
<stop offset="1" stop-color="#6F77E6"/>
</linearGradient>
<linearGradient id="paint4_linear" x1="54.0551" y1="126.024" x2="54.0551" y2="144.82" gradientUnits="userSpaceOnUse">
<stop stop-color="#F4AE34"/>
<stop offset="1" stop-color="#F4AE34" stop-opacity="0"/>
</linearGradient>
</defs>
</svg>
