<svg width="507" xmlns="http://www.w3.org/2000/svg" fill="none" viewBox="0 0 507 434">
  <defs/>
  <path fill="#fff" d="M1 0h506v434H1z"/>
  <path fill="#99ADC0" fill-opacity=".2" fill-rule="evenodd" d="M506.54 50.6H0v-1.74h506.54v1.74z" clip-rule="evenodd"/>
  <path fill="#3A4854" d="M187.1 20.54h-1.77v5.47c0 1.86 1.38 3.13 3.54 3.13s3.54-1.27 3.54-3.13v-5.47h-1.77v5.3c0 1.08-.64 1.79-1.77 1.79s-1.77-.71-1.77-1.8v-5.29zM194.94 26.59c.05 1.59 1.4 2.55 3.41 2.55 2.12 0 3.41-1.04 3.41-2.7 0-1.28-.78-2-2.56-2.36l-.9-.18c-1-.2-1.4-.52-1.4-1.04 0-.62.58-1.03 1.45-1.03.9 0 1.52.43 1.58 1.15h1.67c-.03-1.55-1.27-2.58-3.25-2.58-1.88 0-3.23 1.02-3.23 2.57 0 1.26.83 2.07 2.52 2.4l.89.18c1.06.22 1.46.53 1.46 1.09 0 .62-.65 1.08-1.6 1.08-.95 0-1.67-.43-1.78-1.13h-1.67zM209.89 27.54h-3.83V25.4h3.61v-1.36h-3.61V22h3.83v-1.46h-5.6V29h5.6v-1.46zM214.37 25.9h1.42l1.58 3.1h2l-1.78-3.36a2.48 2.48 0 001.54-2.4c0-1.67-1.12-2.7-3.06-2.7h-3.47V29h1.77v-3.1zm0-3.97h1.51c.88 0 1.43.53 1.43 1.35 0 .83-.52 1.34-1.41 1.34h-1.53v-2.7zM225.23 26.59c.05 1.59 1.4 2.55 3.4 2.55 2.12 0 3.42-1.04 3.42-2.7 0-1.28-.78-2-2.57-2.36l-.9-.18c-.99-.2-1.4-.52-1.4-1.04 0-.62.59-1.03 1.46-1.03.89 0 1.52.43 1.58 1.15h1.66c-.02-1.55-1.27-2.58-3.24-2.58-1.88 0-3.23 1.02-3.23 2.57 0 1.26.83 2.07 2.51 2.4l.9.18c1.06.22 1.45.53 1.45 1.09 0 .62-.64 1.08-1.58 1.08-.97 0-1.68-.43-1.8-1.13h-1.66zM239.93 29h1.88l-2.94-8.46h-2.08L233.86 29h1.81l.65-2.05h2.97l.64 2.05zm-2.15-6.84h.04l1.09 3.46h-2.21l1.08-3.46zM246.76 29v-7h2.45v-1.46h-6.66V22H245v7h1.76zM253.4 29v-8.46h-1.77V29h1.77zM255.93 26.59c.05 1.59 1.4 2.55 3.4 2.55 2.12 0 3.42-1.04 3.42-2.7 0-1.28-.78-2-2.57-2.36l-.9-.18c-1-.2-1.4-.52-1.4-1.04 0-.62.58-1.03 1.46-1.03.89 0 1.51.43 1.57 1.15h1.67c-.03-1.55-1.27-2.58-3.24-2.58-1.88 0-3.23 1.02-3.23 2.57 0 1.26.82 2.07 2.51 2.4l.9.18c1.05.22 1.45.53 1.45 1.09 0 .62-.64 1.08-1.59 1.08-.96 0-1.67-.43-1.78-1.13h-1.67zM267.04 29v-3.33h3.44v-1.4h-3.44V22h3.77v-1.46h-5.54V29h1.77zM278.25 29h1.88l-2.94-8.46h-2.08L272.17 29H274l.64-2.05h2.97l.65 2.05zm-2.15-6.84h.04l1.08 3.46h-2.2l1.08-3.46zM285.76 29.14c2.08 0 3.53-1.19 3.73-3.08h-1.73c-.19 1-.94 1.62-1.99 1.62-1.35 0-2.2-1.11-2.2-2.92 0-1.78.86-2.9 2.2-2.9 1.03 0 1.82.68 1.99 1.72h1.72c-.14-1.9-1.68-3.18-3.72-3.18-2.44 0-4 1.64-4 4.37 0 2.73 1.54 4.37 4 4.37zM295.54 29v-7H298v-1.46h-6.66V22h2.44v7h1.77zM302.18 29v-8.46h-1.77V29h1.77zM308.84 20.4c-2.5 0-4.08 1.68-4.08 4.38 0 2.68 1.57 4.36 4.08 4.36 2.5 0 4.08-1.68 4.08-4.36 0-2.7-1.58-4.38-4.08-4.38zm0 1.48c1.38 0 2.27 1.12 2.27 2.9 0 1.76-.89 2.88-2.27 2.88-1.39 0-2.27-1.12-2.27-2.88 0-1.78.89-2.9 2.27-2.9zM317.2 29v-5.54h.05L321.2 29h1.47v-8.46h-1.7v5.51h-.04l-3.95-5.5h-1.48V29h1.7z"/>
  <g filter="url(#filter0_dd)">
    <path fill="#F4F5FA" d="M172.45 362.66a20.69 20.69 0 0023 2.7 124.9 124.9 0 0158.36-14.34c21.07 0 40.94 5.2 58.36 14.35 7.46 3.95 16.64 2.7 23.05-2.76a124.53 124.53 0 0034.14-46.71 124.15 124.15 0 009.3-57.05 125.12 125.12 0 00-36.8-79.47 125.87 125.87 0 00-80.02-36.05 125.48 125.48 0 00-74.58 18.83 124.87 124.87 0 00-49.45 58.75 124.4 124.4 0 00-5.62 76.49 124.71 124.71 0 0040.31 65.32l-.05-.06z"/>
  </g>
  <path fill="#FF5B66" d="M154.84 249.7l-.37 3.03-.04.03a3.99 3.99 0 00.75 2.89 3.88 3.88 0 005.38.82 3.95 3.95 0 001.56-2.52l.52-3.08a93.16 93.16 0 0113.77-35.26 90 90 0 0130.02-28.7c2.7-1.38 5.22-2.97 8.07-4.23l-5.5-10.03c-2.97 1.55-5.86 3.46-8.7 5.1a100.48 100.48 0 00-30.6 30.88 102.02 102.02 0 00-14.86 41.08z"/>
  <path fill="#40CF8F" d="M301.95 173c3.86 2.02 7.47 4.3 10.93 6.57 3.23 2.57 6.74 4.73 9.57 7.56 2.9 2.72 5.84 5.25 8.26 8.14 2.4 2.77 4.97 5.6 6.86 8.3a106.47 106.47 0 0118.75 42.68 9.1 9.1 0 01-3.66 9.3 8.83 8.83 0 01-13.73-5.55v-.26l-.07-.34-.48-2.76a95.23 95.23 0 00-6.04-19.37 89.76 89.76 0 00-7.8-13.97c-1.72-2.64-3.63-4.87-5.7-7.37-1.91-2.49-4.33-4.77-6.7-7.17-2.32-2.5-5.27-4.43-7.94-6.79a91.63 91.63 0 00-11.05-6.97l7.35-12.75 1.45.75z"/>
  <path fill="#FECB42" d="M217.77 168.58l-5.98 2.74c-.94.4-1.87.85-2.79 1.33l5.5 10.03c.65-.3 1.31-.56 2-.81l5.37-2.25 5.64-1.74a34.95 34.95 0 015.72-1.38c1.93-.4 3.87-.87 5.83-1.15 3.98-.29 7.91-1 11.91-.76 7.95-.29 15.85 1 23.43 2.8a91.12 91.12 0 0119.1 7.58l6.9-12.97a100.12 100.12 0 00-49.81-10.38c-4.55 0-9.02.86-13.49 1.47-2.19.4-4.37.99-6.6 1.5a40.56 40.56 0 00-6.45 1.89l-6.28 2.1z"/>
  <circle cx="255" cy="99" r="25" fill="#FECB42"/>
  <path fill="#CF7C3D" fill-rule="evenodd" d="M244 108.45c0-.86.64-1.56 1.43-1.56h19.14c.79 0 1.43.7 1.43 1.56 0 .85-.64 1.55-1.43 1.55h-19.14c-.79 0-1.43-.7-1.43-1.55z" clip-rule="evenodd"/>
  <circle cx="246.5" cy="93.5" r="3.5" fill="#CF7C3D"/>
  <circle cx="264.5" cy="93.5" r="3.5" fill="#CF7C3D"/>
  <circle cx="133" cy="144" r="25" fill="#FF5B66"/>
  <path fill="#B24047" fill-rule="evenodd" d="M133.14 152.64c-2.98 0-6.01 1.2-8.64 3.7a1.12 1.12 0 11-1.54-1.64c3-2.84 6.56-4.31 10.18-4.31s7.19 1.47 10.19 4.31a1.12 1.12 0 11-1.55 1.63c-2.62-2.49-5.66-3.7-8.64-3.7zM121.12 135.25a1.12 1.12 0 011.56-.29l4.5 3.1a1.12 1.12 0 01-.05 1.87l-4.49 2.8a1.12 1.12 0 11-1.2-1.9l3.05-1.9-3.08-2.12a1.12 1.12 0 01-.3-1.56zM143.76 135.25c.35.51.22 1.21-.3 1.56l-3.08 2.12 3.05 1.9a1.12 1.12 0 11-1.2 1.9l-4.49-2.8a1.12 1.12 0 01-.04-1.88l4.5-3.09a1.12 1.12 0 011.56.3z" clip-rule="evenodd"/>
  <circle cx="377" cy="144" r="25" fill="#40CF8F"/>
  <path fill="#008167" fill-rule="evenodd" d="M368.04 136.37c-.92 0-1.96.4-3.26 1.4-.5.39-1.2.27-1.56-.26a1.23 1.23 0 01.24-1.65c1.5-1.15 3-1.85 4.57-1.86 1.59 0 3.06.68 4.53 1.88.5.4.58 1.14.2 1.66-.37.52-1.08.61-1.57.21-1.23-1-2.23-1.39-3.15-1.38zM387.04 136.37c-.92 0-1.96.4-3.26 1.4-.5.39-1.2.27-1.56-.26a1.23 1.23 0 01.24-1.65c1.5-1.15 3-1.85 4.57-1.86 1.59 0 3.06.68 4.53 1.88.5.4.58 1.14.2 1.66-.37.52-1.08.61-1.57.21-1.23-1-2.23-1.39-3.15-1.38z" clip-rule="evenodd"/>
  <path fill="#008167" d="M389 150c0 4.97-5.15 9-11.5 9s-11.5-4.03-11.5-9h23z"/>
  <path fill="#F2F3F7" d="M448.06 357.54a1 1 0 011.88 0l2.95 7.98a1 1 0 00.6.59l7.97 2.95a1 1 0 010 1.88l-7.98 2.95a1 1 0 00-.59.6l-2.95 7.98a1 1 0 01-1.88 0l-2.95-7.99a1 1 0 00-.6-.59l-7.98-2.95a1 1 0 010-1.88l7.99-2.95a1 1 0 00.59-.6l2.95-7.97zM471.18 158.65a1 1 0 011.88 0l2.95 7.99a1 1 0 00.6.59l7.97 2.95a1 1 0 010 1.88L476.6 175a1 1 0 00-.59.6l-2.95 7.97a1 1 0 01-1.88 0l-2.95-7.98a1 1 0 00-.6-.59l-7.98-2.95a1 1 0 010-1.88l7.99-2.95a1 1 0 00.59-.6l2.95-7.98z"/>
  <path fill="#0471FF" d="M55.94 167.53a1 1 0 00-1.88 0l-2.95 7.99a1 1 0 01-.6.59l-7.98 2.95a1 1 0 000 1.88l7.99 2.95a1 1 0 01.59.6l2.95 7.98a1 1 0 001.88 0l2.95-7.99a1 1 0 01.6-.59l7.98-2.95a1 1 0 000-1.88l-7.99-2.95a1 1 0 01-.59-.6l-2.95-7.97z"/>
  <path fill="#F2F3F7" d="M89.94 242.53a1 1 0 00-1.88 0l-2.95 7.99a1 1 0 01-.6.59l-7.98 2.95a1 1 0 000 1.88l7.99 2.95a1 1 0 01.59.6l2.95 7.98a1 1 0 001.88 0l2.95-7.99a1 1 0 01.6-.59l7.98-2.95a1 1 0 000-1.88l-7.99-2.95a1 1 0 01-.59-.6l-2.95-7.97z"/>
  <path fill="#0471FF" d="M44.06 330.65a1 1 0 00-1.88 0l-2.95 7.99a1 1 0 01-.6.59l-7.98 2.95a1 1 0 000 1.88l7.99 2.95a1 1 0 01.59.6l2.95 7.97a1 1 0 001.88 0L47 347.6a1 1 0 01.6-.59l7.97-2.95a1 1 0 000-1.88l-7.98-2.95a1 1 0 01-.59-.6l-2.95-7.98zM407.06 265.54a1 1 0 011.88 0l2.95 7.98a1 1 0 00.6.59l7.97 2.95a1 1 0 010 1.88l-7.98 2.95a1 1 0 00-.59.6l-2.95 7.98a1 1 0 01-1.88 0l-2.95-7.99a1 1 0 00-.6-.59l-7.98-2.95a1 1 0 010-1.88l7.99-2.95a1 1 0 00.59-.6l2.95-7.97z"/>
  <path fill="#3A4854" d="M245.21 259.66l82.33-72.05a5.57 5.57 0 017.84 0 5.45 5.45 0 010 7.75l-72.82 81.46a12.35 12.35 0 01-16.96-.38 12.09 12.09 0 01-.39-16.78z"/>
  <defs>
    <filter id="filter0_dd" width="314.38" height="288.6" x="96.62" y="125.07" color-interpolation-filters="sRGB" filterUnits="userSpaceOnUse">
      <feFlood flood-opacity="0" result="BackgroundImageFix"/>
      <feColorMatrix in="SourceAlpha" values="0 0 0 0 0 0 0 0 0 0 0 0 0 0 0 0 0 0 127 0"/>
      <feOffset/>
      <feGaussianBlur stdDeviation="1.5"/>
      <feColorMatrix values="0 0 0 0 0.196078 0 0 0 0 0.196078 0 0 0 0 0.364706 0 0 0 0.2 0"/>
      <feBlend in2="BackgroundImageFix" result="effect1_dropShadow"/>
      <feColorMatrix in="SourceAlpha" values="0 0 0 0 0 0 0 0 0 0 0 0 0 0 0 0 0 0 127 0"/>
      <feOffset dy="14"/>
      <feGaussianBlur stdDeviation="16"/>
      <feColorMatrix values="0 0 0 0 0.196078 0 0 0 0 0.196078 0 0 0 0 0.364706 0 0 0 0.1 0"/>
      <feBlend in2="effect1_dropShadow" result="effect2_dropShadow"/>
      <feBlend in="SourceGraphic" in2="effect2_dropShadow" result="shape"/>
    </filter>
  </defs>
</svg>
