<svg width="309" height="431" viewBox="0 0 309 431" fill="none" xmlns="http://www.w3.org/2000/svg">
<rect x="18" y="0.720581" width="290.541" height="430" fill="white"/>
<path d="M121.432 377.771C121.432 377.218 121.88 376.771 122.432 376.771H251.757C252.309 376.771 252.757 377.218 252.757 377.771V382.744C252.757 383.296 252.309 383.744 251.757 383.744H122.432C121.88 383.744 121.432 383.296 121.432 382.744V377.771Z" fill="#99ADC0" fill-opacity="0.5"/>
<path d="M121.432 364.987C121.432 364.435 121.88 363.987 122.432 363.987H283.135C283.687 363.987 284.135 364.435 284.135 364.987V369.96C284.135 370.512 283.687 370.96 283.135 370.96H122.432C121.88 370.96 121.432 370.512 121.432 369.96V364.987Z" fill="#99ADC0" fill-opacity="0.5"/>
<path d="M125.922 351.188C128.688 351.188 130.617 349.602 130.883 347.086H128.586C128.336 348.422 127.328 349.242 125.93 349.242C124.125 349.242 122.992 347.758 122.992 345.352C122.992 342.977 124.141 341.484 125.922 341.484C127.297 341.484 128.359 342.391 128.578 343.773H130.875C130.695 341.25 128.633 339.531 125.922 339.531C122.656 339.531 120.586 341.727 120.586 345.359C120.586 349 122.641 351.188 125.922 351.188Z" fill="#3A4854"/>
<path d="M132.203 351H134.484V346.219C134.484 345.117 135.117 344.359 136.195 344.359C137.234 344.359 137.766 345.016 137.766 346.094V351H140.047V345.609C140.047 343.672 138.984 342.469 137.125 342.469C135.852 342.469 134.938 343.062 134.492 344.117H134.445V339.727H132.203V351Z" fill="#3A4854"/>
<path d="M143.992 351.133C145.039 351.133 146.078 350.609 146.547 349.719H146.594V351H148.797V345.242C148.797 343.555 147.398 342.445 145.25 342.445C143.031 342.445 141.648 343.562 141.562 345.188H143.648C143.758 344.57 144.297 344.148 145.148 344.148C146.008 344.148 146.555 344.602 146.555 345.383V345.938L144.445 346.062C142.359 346.188 141.188 347.07 141.188 348.594C141.188 350.102 142.398 351.133 143.992 351.133ZM144.742 349.484C143.969 349.484 143.453 349.094 143.453 348.469C143.453 347.875 143.938 347.492 144.789 347.43L146.555 347.32V347.93C146.555 348.836 145.734 349.484 144.742 349.484Z" fill="#3A4854"/>
<path d="M150.883 340.695V342.625H149.703V344.344H150.883V348.742C150.883 350.375 151.648 351.031 153.617 351.031C154.078 351.031 154.469 350.992 154.703 350.938V349.258C154.562 349.281 154.352 349.297 154.148 349.297C153.477 349.297 153.164 348.992 153.164 348.352V344.344H154.711V342.625H153.164V340.695H150.883Z" fill="#3A4854"/>
<path d="M159.328 339.727V351H161.688V347.445H163.797C166.172 347.445 167.82 345.898 167.82 343.586C167.82 341.266 166.227 339.727 163.914 339.727H159.328ZM161.688 341.594H163.289C164.641 341.594 165.422 342.312 165.422 343.594C165.422 344.883 164.633 345.602 163.281 345.602H161.688V341.594Z" fill="#3A4854"/>
<path d="M169.023 351H171.305V346.32C171.305 345.141 171.961 344.453 173.086 344.453C173.414 344.453 173.727 344.508 173.914 344.586V342.578C173.758 342.531 173.531 342.492 173.266 342.492C172.281 342.492 171.57 343.07 171.273 344.133H171.227V342.625H169.023V351Z" fill="#3A4854"/>
<path d="M178.414 351.18C180.945 351.18 182.562 349.562 182.562 346.805C182.562 344.086 180.922 342.445 178.414 342.445C175.906 342.445 174.266 344.094 174.266 346.805C174.266 349.555 175.883 351.18 178.414 351.18ZM178.414 349.438C177.289 349.438 176.578 348.492 176.578 346.812C176.578 345.148 177.305 344.188 178.414 344.188C179.523 344.188 180.242 345.148 180.242 346.812C180.242 348.492 179.531 349.438 178.414 349.438Z" fill="#3A4854"/>
<path d="M41 402.73C36.5817 402.73 33 399.148 33 394.73L33 341C33 336.582 36.5817 333 41 333L94.73 333C99.1483 333 102.73 336.582 102.73 341L102.73 394.73C102.73 399.148 99.1483 402.73 94.73 402.73L41 402.73Z" fill="#241553"/>
<path d="M87.0408 361.894C87.0408 360.237 85.6976 358.894 84.0408 358.894H67.1774C65.5205 358.894 64.1774 360.237 64.1774 361.894V375.246C64.1774 376.903 65.5205 378.246 67.1774 378.246H73.379C74.167 378.246 74.9235 378.556 75.4848 379.109L78.1138 381.7C79.3973 382.965 81.5707 382.069 81.5896 380.267C81.6013 379.148 82.5122 378.246 83.6318 378.246H84.3115C85.8189 378.246 87.0408 377.024 87.0408 375.517V361.894Z" fill="#8D91FF"/>
<path d="M48.6892 353.781C48.6892 352.124 50.0324 350.781 51.6892 350.781H71.8596C73.5164 350.781 74.8596 352.124 74.8596 353.781V370.026C74.8596 371.683 73.5164 373.026 71.8596 373.026H64.1529C63.3626 373.026 62.6043 373.338 62.0426 373.894L58.9192 376.985C57.4483 378.441 54.9504 377.414 54.9288 375.344C54.9154 374.06 53.8706 373.026 52.5863 373.026H51.6892C50.0324 373.026 48.6892 371.683 48.6892 370.026V353.781Z" fill="#ACDAFF"/>
<path fill-rule="evenodd" clip-rule="evenodd" d="M308.541 304.045H18V303.046H308.541V304.045Z" fill="#99ADC0" fill-opacity="0.2"/>
<path d="M121.432 252.094C121.432 251.541 121.88 251.094 122.432 251.094H251.757C252.309 251.094 252.757 251.541 252.757 252.094V257.067C252.757 257.619 252.309 258.067 251.757 258.067H122.432C121.88 258.067 121.432 257.619 121.432 257.067V252.094Z" fill="#99ADC0" fill-opacity="0.5"/>
<path d="M121.432 239.31C121.432 238.758 121.88 238.31 122.432 238.31H283.135C283.687 238.31 284.135 238.758 284.135 239.31V244.283C284.135 244.835 283.687 245.283 283.135 245.283H122.432C121.88 245.283 121.432 244.835 121.432 244.283V239.31Z" fill="#99ADC0" fill-opacity="0.5"/>
<path d="M123.16 223.875V219.443H127.74V217.578H123.16V214.559H128.177V212.616H120.804V223.875H123.16Z" fill="#3A4854"/>
<path d="M132.983 224.054C135.511 224.054 137.126 222.439 137.126 219.685C137.126 216.97 135.488 215.331 132.983 215.331C130.479 215.331 128.84 216.977 128.84 219.685C128.84 222.431 130.455 224.054 132.983 224.054ZM132.983 222.314C131.86 222.314 131.15 221.37 131.15 219.693C131.15 218.031 131.876 217.071 132.983 217.071C134.091 217.071 134.809 218.031 134.809 219.693C134.809 221.37 134.099 222.314 132.983 222.314Z" fill="#3A4854"/>
<path d="M138.305 223.875H140.583V219.201C140.583 218.023 141.238 217.336 142.362 217.336C142.69 217.336 143.002 217.391 143.189 217.469V215.464C143.033 215.417 142.807 215.378 142.541 215.378C141.558 215.378 140.848 215.955 140.552 217.016H140.505V215.511H138.305V223.875Z" fill="#3A4854"/>
<path d="M151.85 215.511H149.571V220.301C149.571 221.409 148.939 222.135 147.925 222.135C146.918 222.135 146.364 221.542 146.364 220.426V215.511H144.086V220.902C144.086 222.853 145.288 224.031 147.098 224.031C148.362 224.031 149.189 223.422 149.602 222.369H149.649V223.875H151.85V215.511Z" fill="#3A4854"/>
<path d="M153.332 223.875H155.61V218.827C155.61 217.89 156.195 217.235 157.062 217.235C157.904 217.235 158.411 217.766 158.411 218.663V223.875H160.604V218.795C160.604 217.867 161.173 217.235 162.039 217.235C162.921 217.235 163.405 217.766 163.405 218.733V223.875H165.683V218.163C165.683 216.478 164.583 215.355 162.944 215.355C161.72 215.355 160.721 216.018 160.346 217.071H160.299C160.019 215.979 159.176 215.355 157.967 215.355C156.827 215.355 155.93 216.018 155.579 217.024H155.532V215.511H153.332V223.875Z" fill="#3A4854"/>
<path d="M170.489 212.616V223.875H172.846V220.325H174.952C177.324 220.325 178.971 218.78 178.971 216.47C178.971 214.153 177.379 212.616 175.069 212.616H170.489ZM172.846 214.481H174.445C175.795 214.481 176.575 215.199 176.575 216.478C176.575 217.766 175.787 218.483 174.437 218.483H172.846V214.481Z" fill="#3A4854"/>
<path d="M180.172 223.875H182.45V219.201C182.45 218.023 183.106 217.336 184.229 217.336C184.557 217.336 184.869 217.391 185.056 217.469V215.464C184.9 215.417 184.674 215.378 184.409 215.378C183.426 215.378 182.716 215.955 182.419 217.016H182.372V215.511H180.172V223.875Z" fill="#3A4854"/>
<path d="M189.551 224.054C192.079 224.054 193.694 222.439 193.694 219.685C193.694 216.97 192.055 215.331 189.551 215.331C187.046 215.331 185.407 216.977 185.407 219.685C185.407 222.431 187.023 224.054 189.551 224.054ZM189.551 222.314C188.427 222.314 187.717 221.37 187.717 219.693C187.717 218.031 188.443 217.071 189.551 217.071C190.658 217.071 191.376 218.031 191.376 219.693C191.376 221.37 190.666 222.314 189.551 222.314Z" fill="#3A4854"/>
<path d="M33.1082 214.747C33.1082 210.329 36.6899 206.747 41.1082 206.747H94.8379C99.2562 206.747 102.838 210.329 102.838 214.747V268.477C102.838 272.895 99.2562 276.477 94.8379 276.477H41.1082C36.6899 276.477 33.1082 272.895 33.1082 268.477V214.747Z" fill="black"/>
<path d="M60.8911 241.34C60.8911 234.57 66.3788 229.083 73.1483 229.083H85.4055V241.34C85.4055 248.109 79.9177 253.597 73.1483 253.597C66.3788 253.597 60.8911 248.109 60.8911 241.34Z" fill="#FF9C3E"/>
<path d="M50.5405 241.34C50.5405 234.57 56.0283 229.083 62.7977 229.083C69.5672 229.083 75.0549 234.57 75.0549 241.34C75.0549 248.109 69.5672 253.597 62.7977 253.597H50.5405V241.34Z" fill="#E90000"/>
<path d="M55.9883 237.526C55.9883 237.075 56.3541 236.709 56.8054 236.709H69.335C69.7863 236.709 70.1521 237.075 70.1521 237.526C70.1521 237.978 69.7863 238.344 69.335 238.344H56.8054C56.3541 238.344 55.9883 237.978 55.9883 237.526Z" fill="white"/>
<path d="M55.9883 241.34C55.9883 240.889 56.3541 240.523 56.8054 240.523H69.335C69.7863 240.523 70.1521 240.889 70.1521 241.34C70.1521 241.791 69.7863 242.157 69.335 242.157H56.8054C56.3541 242.157 55.9883 241.791 55.9883 241.34Z" fill="white"/>
<path d="M55.9883 245.153C55.9883 244.702 56.3541 244.336 56.8054 244.336H63.8874C64.3386 244.336 64.7045 244.702 64.7045 245.153C64.7045 245.604 64.3386 245.97 63.8874 245.97H56.8054C56.3541 245.97 55.9883 245.604 55.9883 245.153Z" fill="white"/>
<path fill-rule="evenodd" clip-rule="evenodd" d="M308.541 177.369H18V176.37H308.541V177.369Z" fill="#99ADC0" fill-opacity="0.2"/>
<path d="M120.434 124.419C120.434 123.867 120.882 123.419 121.434 123.419H250.758C251.31 123.419 251.758 123.867 251.758 124.419V129.392C251.758 129.945 251.31 130.392 250.758 130.392H121.434C120.882 130.392 120.434 129.945 120.434 129.392V124.419Z" fill="#99ADC0" fill-opacity="0.5"/>
<path d="M120.434 111.635C120.434 111.083 120.882 110.635 121.434 110.635H282.137C282.689 110.635 283.137 111.083 283.137 111.635V116.608C283.137 117.161 282.689 117.608 282.137 117.608H121.434C120.882 117.608 120.434 117.161 120.434 116.608V111.635Z" fill="#99ADC0" fill-opacity="0.5"/>
<g filter="url(#filter0_dd)">
<path d="M32.9805 87.7322C32.9805 83.3139 36.5622 79.7322 40.9805 79.7322H94.7102C99.1285 79.7322 102.71 83.3139 102.71 87.7322V141.462C102.71 145.88 99.1285 149.462 94.7102 149.462H40.9805C36.5622 149.462 32.9805 145.88 32.9805 141.462V87.7322Z" fill="#6C36E5"/>
</g>
<path d="M121.802 85.4512V96.71H126.102C129.48 96.71 131.47 94.6111 131.47 91.0377C131.47 87.4642 129.48 85.4512 126.102 85.4512H121.802ZM124.159 87.394H125.821C127.896 87.394 129.066 88.6892 129.066 91.0455C129.066 93.4798 127.927 94.7594 125.821 94.7594H124.159V87.394Z" fill="#3A4854"/>
<path d="M136.635 96.8894C139.163 96.8894 140.778 95.2743 140.778 92.5201C140.778 89.8049 139.139 88.1664 136.635 88.1664C134.13 88.1664 132.492 89.8127 132.492 92.5201C132.492 95.2665 134.107 96.8894 136.635 96.8894ZM136.635 95.1495C135.511 95.1495 134.801 94.2054 134.801 92.5279C134.801 90.866 135.527 89.9063 136.635 89.9063C137.743 89.9063 138.461 90.866 138.461 92.5279C138.461 94.2054 137.751 95.1495 136.635 95.1495Z" fill="#3A4854"/>
<path d="M149.555 91.459C149.454 89.563 148.018 88.1664 145.756 88.1664C143.251 88.1664 141.652 89.8361 141.652 92.5201C141.652 95.2509 143.251 96.8894 145.771 96.8894C147.972 96.8894 149.446 95.6176 149.563 93.6437H147.441C147.301 94.5565 146.708 95.1027 145.795 95.1027C144.663 95.1027 143.961 94.1664 143.961 92.5201C143.961 90.905 144.663 89.9531 145.787 89.9531C146.723 89.9531 147.308 90.5773 147.441 91.459H149.555Z" fill="#3A4854"/>
<path d="M150.523 90.8036C150.523 92.0598 151.342 92.8712 152.957 93.2145L154.385 93.511C155.204 93.6983 155.493 93.9479 155.493 94.3927C155.493 94.9388 154.963 95.2899 154.104 95.2899C153.199 95.2899 152.676 94.8998 152.536 94.1664H150.312C150.461 95.8127 151.795 96.8894 154.104 96.8894C156.258 96.8894 157.764 95.8049 157.764 94.1586C157.764 92.9336 157.046 92.247 155.298 91.8803L153.87 91.576C153.028 91.3966 152.715 91.1079 152.715 90.6788C152.715 90.1248 153.238 89.7659 154.026 89.7659C154.869 89.7659 155.376 90.2262 155.446 90.905H157.545C157.498 89.2665 156.172 88.1664 154.026 88.1664C151.896 88.1664 150.523 89.2119 150.523 90.8036Z" fill="#3A4854"/>
<path d="M162.25 85.4512V96.71H164.606V93.1599H166.713C169.085 93.1599 170.731 91.615 170.731 89.3055C170.731 86.9882 169.139 85.4512 166.83 85.4512H162.25ZM164.606 87.3159H166.206C167.556 87.3159 168.336 88.0338 168.336 89.3133C168.336 90.6007 167.548 91.3185 166.198 91.3185H164.606V87.3159Z" fill="#3A4854"/>
<path d="M171.933 96.71H174.211V92.0364C174.211 90.8582 174.866 90.1716 175.99 90.1716C176.318 90.1716 176.63 90.2262 176.817 90.3042V88.299C176.661 88.2522 176.435 88.2132 176.169 88.2132C175.186 88.2132 174.476 88.7906 174.18 89.8517H174.133V88.3458H171.933V96.71Z" fill="#3A4854"/>
<path d="M181.311 96.8894C183.839 96.8894 185.454 95.2743 185.454 92.5201C185.454 89.8049 183.816 88.1664 181.311 88.1664C178.807 88.1664 177.168 89.8127 177.168 92.5201C177.168 95.2665 178.783 96.8894 181.311 96.8894ZM181.311 95.1495C180.188 95.1495 179.478 94.2054 179.478 92.5279C179.478 90.866 180.203 89.9063 181.311 89.9063C182.419 89.9063 183.137 90.866 183.137 92.5279C183.137 94.2054 182.427 95.1495 181.311 95.1495Z" fill="#3A4854"/>
<path d="M54.1929 97.7101C54.1929 97.1578 54.6406 96.7101 55.1929 96.7101H72.5158C72.7801 96.7101 73.0337 96.8147 73.2211 97.0012L82.6209 106.354C82.8095 106.541 82.9155 106.796 82.9155 107.063V131.611C82.9155 132.164 82.4678 132.611 81.9155 132.611H55.1929C54.6406 132.611 54.1929 132.164 54.1929 131.611V97.7101Z" fill="#EEF9FF"/>
<rect x="58.9468" y="121.438" width="16.4215" height="2.98572" rx="1.49286" fill="#8249EB"/>
<rect x="58.9468" y="115.446" width="19.4072" height="2.98572" rx="1.49286" fill="#8249EB"/>
<rect x="58.9468" y="105.698" width="7.18067" height="7.18026" rx="3.59013" fill="#8249EB"/>
<path d="M72.9287 106.697H82.9157L72.9287 96.7101V106.697Z" fill="#CBC1FF"/>
<path fill-rule="evenodd" clip-rule="evenodd" d="M308.541 51.8556H18V50.8569H308.541V51.8556Z" fill="#99ADC0" fill-opacity="0.2"/>
<path d="M81.1423 24.562H81.1951L82.8005 30.3394H84.4705L86.7146 21.8843H84.8806L83.5447 28.0073H83.4978L81.9158 21.8843H80.4216L78.8396 28.0073H78.7927L77.4626 21.8843H75.6287L77.8669 30.3394H79.5369L81.1423 24.562Z" fill="#3A4854"/>
<path d="M92.6312 21.7378C90.1234 21.7378 88.553 23.4194 88.553 26.1147C88.553 28.8042 90.1234 30.48 92.6312 30.48C95.1331 30.48 96.7093 28.8042 96.7093 26.1147C96.7093 23.4194 95.1331 21.7378 92.6312 21.7378ZM92.6312 23.2144C94.014 23.2144 94.8987 24.3394 94.8987 26.1147C94.8987 27.8843 94.014 29.0034 92.6312 29.0034C91.2425 29.0034 90.3577 27.8843 90.3577 26.1147C90.3577 24.3394 91.2484 23.2144 92.6312 23.2144Z" fill="#3A4854"/>
<path d="M101.061 27.2456H102.479L104.056 30.3394H106.059L104.278 26.9819C105.251 26.6011 105.813 25.6636 105.813 24.5796C105.813 22.9097 104.7 21.8843 102.755 21.8843H99.2919V30.3394H101.061V27.2456ZM101.061 23.2671H102.567C103.446 23.2671 103.997 23.7944 103.997 24.6147C103.997 25.4526 103.475 25.9624 102.585 25.9624H101.061V23.2671Z" fill="#3A4854"/>
<path d="M113.886 28.8745H110.189V21.8843H108.419V30.3394H113.886V28.8745Z" fill="#3A4854"/>
<path d="M116.375 21.8843V30.3394H119.604C122.141 30.3394 123.635 28.7632 123.635 26.0796C123.635 23.396 122.141 21.8843 119.604 21.8843H116.375ZM118.145 23.3433H119.393C120.951 23.3433 121.83 24.3159 121.83 26.0854C121.83 27.9136 120.975 28.8745 119.393 28.8745H118.145V23.3433Z" fill="#3A4854"/>
<path d="M130.987 24.562H131.04L132.645 30.3394H134.315L136.559 21.8843H134.725L133.389 28.0073H133.342L131.76 21.8843H130.266L128.684 28.0073H128.637L127.307 21.8843H125.473L127.711 30.3394H129.381L130.987 24.562Z" fill="#3A4854"/>
<path d="M140.724 30.3394V21.8843H138.954V30.3394H140.724Z" fill="#3A4854"/>
<path d="M143.57 21.8843V30.3394H146.799C149.336 30.3394 150.83 28.7632 150.83 26.0796C150.83 23.396 149.336 21.8843 146.799 21.8843H143.57ZM145.34 23.3433H146.588C148.146 23.3433 149.025 24.3159 149.025 26.0854C149.025 27.9136 148.17 28.8745 146.588 28.8745H145.34V23.3433Z" fill="#3A4854"/>
<path d="M159.014 28.8745H155.182V26.7417H158.797V25.3823H155.182V23.3433H159.014V21.8843H153.412V30.3394H159.014V28.8745Z" fill="#3A4854"/>
<path d="M171.152 28.8745H167.32V26.7417H170.935V25.3823H167.32V23.3433H171.152V21.8843H165.55V30.3394H171.152V28.8745Z" fill="#3A4854"/>
<path d="M173.418 30.3394H175.328L177.191 27.3804H177.238L179.09 30.3394H181.105L178.375 26.1323V26.0913L181.141 21.8843H179.166L177.355 24.9312H177.309L175.516 21.8843H173.435L176.101 26.0562V26.103L173.418 30.3394Z" fill="#3A4854"/>
<path d="M187.327 30.3394V23.3433H189.776V21.8843H183.114V23.3433H185.557V30.3394H187.327Z" fill="#3A4854"/>
<path d="M197.796 28.8745H193.964V26.7417H197.579V25.3823H193.964V23.3433H197.796V21.8843H192.194V30.3394H197.796V28.8745Z" fill="#3A4854"/>
<path d="M202.207 30.3394V24.8022H202.259L206.214 30.3394H207.679V21.8843H205.986V27.3921H205.939L201.99 21.8843H200.513V30.3394H202.207Z" fill="#3A4854"/>
<path d="M210.209 27.9253C210.262 29.519 211.604 30.48 213.619 30.48C215.735 30.48 217.029 29.437 217.029 27.7847C217.029 26.5015 216.25 25.7808 214.463 25.4233L213.567 25.2417C212.57 25.0425 212.16 24.7202 212.16 24.1987C212.16 23.5776 212.746 23.1675 213.619 23.1675C214.51 23.1675 215.137 23.6011 215.195 24.3218H216.865C216.836 22.769 215.594 21.7378 213.619 21.7378C211.738 21.7378 210.391 22.7632 210.391 24.3101C210.391 25.5698 211.217 26.3784 212.904 26.7124L213.795 26.8882C214.856 27.105 215.254 27.4214 215.254 27.978C215.254 28.5991 214.61 29.0562 213.666 29.0562C212.705 29.0562 211.99 28.6343 211.879 27.9253H210.209Z" fill="#3A4854"/>
<path d="M221.323 30.3394V21.8843H219.553V30.3394H221.323Z" fill="#3A4854"/>
<path d="M227.984 21.7378C225.476 21.7378 223.906 23.4194 223.906 26.1147C223.906 28.8042 225.476 30.48 227.984 30.48C230.486 30.48 232.062 28.8042 232.062 26.1147C232.062 23.4194 230.486 21.7378 227.984 21.7378ZM227.984 23.2144C229.366 23.2144 230.251 24.3394 230.251 26.1147C230.251 27.8843 229.366 29.0034 227.984 29.0034C226.595 29.0034 225.71 27.8843 225.71 26.1147C225.71 24.3394 226.601 23.2144 227.984 23.2144Z" fill="#3A4854"/>
<path d="M236.338 30.3394V24.8022H236.39L240.346 30.3394H241.81V21.8843H240.117V27.3921H240.07L236.121 21.8843H234.644V30.3394H236.338Z" fill="#3A4854"/>
<path d="M244.34 27.9253C244.393 29.519 245.735 30.48 247.75 30.48C249.866 30.48 251.161 29.437 251.161 27.7847C251.161 26.5015 250.381 25.7808 248.594 25.4233L247.698 25.2417C246.702 25.0425 246.291 24.7202 246.291 24.1987C246.291 23.5776 246.877 23.1675 247.75 23.1675C248.641 23.1675 249.268 23.6011 249.327 24.3218H250.996C250.967 22.769 249.725 21.7378 247.75 21.7378C245.87 21.7378 244.522 22.7632 244.522 24.3101C244.522 25.5698 245.348 26.3784 247.036 26.7124L247.926 26.8882C248.987 27.105 249.385 27.4214 249.385 27.978C249.385 28.5991 248.741 29.0562 247.797 29.0562C246.836 29.0562 246.121 28.6343 246.01 27.9253H244.34Z" fill="#3A4854"/>
<defs>
<filter id="filter0_dd" x="0.980469" y="61.7322" width="133.73" height="133.73" filterUnits="userSpaceOnUse" color-interpolation-filters="sRGB">
<feFlood flood-opacity="0" result="BackgroundImageFix"/>
<feColorMatrix in="SourceAlpha" type="matrix" values="0 0 0 0 0 0 0 0 0 0 0 0 0 0 0 0 0 0 127 0"/>
<feOffset/>
<feGaussianBlur stdDeviation="1.5"/>
<feColorMatrix type="matrix" values="0 0 0 0 0.196078 0 0 0 0 0.196078 0 0 0 0 0.364706 0 0 0 0.2 0"/>
<feBlend mode="normal" in2="BackgroundImageFix" result="effect1_dropShadow"/>
<feColorMatrix in="SourceAlpha" type="matrix" values="0 0 0 0 0 0 0 0 0 0 0 0 0 0 0 0 0 0 127 0"/>
<feOffset dy="14"/>
<feGaussianBlur stdDeviation="16"/>
<feColorMatrix type="matrix" values="0 0 0 0 0.196078 0 0 0 0 0.196078 0 0 0 0 0.364706 0 0 0 0.1 0"/>
<feBlend mode="normal" in2="effect1_dropShadow" result="effect2_dropShadow"/>
<feBlend mode="normal" in="SourceGraphic" in2="effect2_dropShadow" result="shape"/>
</filter>
</defs>
</svg>
