<svg xmlns="http://www.w3.org/2000/svg" fill="none" viewBox="0 0 160 316">
  <defs />
  <path fill="#fff" d="M0 0h160v315.38H0z" />
  <path fill="#F2F3F7"
    d="M7.55 23.42c0-7.5 6.08-13.59 13.58-13.59h18.12c0 5.57 2.72 8.07 4.51 9.12a6.2 6.2 0 003.18.67h65.51c3.78 0 8.3-1.5 8.3-9.79h18.12c7.5 0 13.58 6.09 13.58 13.59V293.6c0 7.5-6.08 13.58-13.58 13.58H21.13c-7.5 0-13.58-6.08-13.58-13.58V23.4z" />
  <path fill="#fff"
    d="M143 71H17c-2.5 0-4 1.5-4 4.08V304.5c1 .83 3 2 5 2.5h124c2.5-.5 4.17-2 5-2.5V75.08c0-2.58-1.5-4.08-4-4.08z" />
  <path fill="#D9DBEC" fill-rule="evenodd"
    d="M12.5 304.73V75.08c0-1.39.4-2.55 1.2-3.36A4.48 4.48 0 0117 70.5h126c1.35 0 2.5.4 3.3 1.22.8.81 1.2 1.97 1.2 3.36v229.7l-.24.15c-.15.08-.33.21-.55.37-.92.65-2.5 1.77-4.61 2.19l-.05.01H17.94l-.06-.01a14.46 14.46 0 01-5.2-2.6l-.18-.16zm.5-.23V75.08C13 72.5 14.5 71 17 71h126c2.5 0 4 1.5 4 4.08V304.5c-.17.1-.38.25-.63.42-.93.66-2.39 1.68-4.37 2.08H18c-2-.5-4-1.67-5-2.5z"
    clip-rule="evenodd" />
  <path fill="#D9DBEC" fill-rule="evenodd"
    d="M120 9.08h18.87c7.92 0 14.34 6.42 14.34 14.34V293.6c0 7.92-6.42 14.34-14.34 14.34H21.13A14.34 14.34 0 016.8 293.6V23.4c0-7.91 6.42-14.33 14.34-14.33H40v.75c0 5.26 2.55 7.54 4.14 8.47.78.45 1.73.57 2.8.57h65.51c1.8 0 3.66-.37 5.07-1.6 1.39-1.23 2.48-3.43 2.48-7.44v-.75zm-98.87.75c-7.5 0-13.58 6.09-13.58 13.59V293.6c0 7.5 6.08 13.58 13.58 13.58h117.74c7.5 0 13.58-6.08 13.58-13.58V23.4c0-7.5-6.08-13.58-13.58-13.58h-18.12c0 8.28-4.52 9.8-8.3 9.8h-65.5a6.2 6.2 0 01-3.19-.68c-1.79-1.05-4.51-3.55-4.51-9.12H21.13z"
    clip-rule="evenodd" />
  <path fill="#DADDED"
    d="M132.83 14.34a.75.75 0 011.51 0v3.02a.75.75 0 01-1.51 0v-3.02zM129.81 15.85a.75.75 0 111.51 0v1.5a.75.75 0 01-1.5 0v-1.5zM126.8 17.36a.75.75 0 111.5 0 .75.75 0 01-1.5 0zM19.62 14.09c0-.28.23-.5.5-.5h14.1c.27 0 .5.22.5.5v3.52a.5.5 0 01-.5.5h-14.1a.5.5 0 01-.5-.5V14.1zM137.36 14.09c0-.28.22-.5.5-.5h3.53c.27 0 .5.22.5.5v3.52a.5.5 0 01-.5.5h-3.53a.5.5 0 01-.5-.5V14.1z" />
  <rect width="24.15" height="1.51" x="67.92" y="12.08" fill="#DADDED" rx=".75" />
  <mask id="a" width="146" height="299" x="7" y="9" maskUnits="userSpaceOnUse">
    <path fill="#fff"
      d="M7.55 18.83a9 9 0 019-9h22.7c0 6.11 3.28 8.54 5 9.39.67.32 1.37.4 2.1.4h66.1c3.78 0 8.3-1.5 8.3-9.79h22.7a9 9 0 019 9V298.2a9 9 0 01-9 9H16.55a9 9 0 01-9-9V18.83z" />
  </mask>
  <g mask="url(#a)">
    <rect width="30.19" height="3.02" x="28.68" y="285" fill="#DEE0E2" rx="1" />
    <rect width="30.19" height="3.02" x="66.42" y="285" fill="#DEE0E2" rx="1" />
    <path fill="#C4C8CB" d="M28.68 265.49h105.66v3.02H28.68zM28.68 271.53h45.28v3.02H28.68z" />
    <rect width="49.81" height="26.32" x="28.68" y="223.4" fill="url(#paint0_linear)" rx="2" />
    <g filter="url(#filter0_f)">
      <ellipse cx="49.36" cy="235.14" fill="url(#paint1_linear)" rx="8.46" ry="7.99" />
    </g>
    <circle cx="49.52" cy="236.11" r="5.87" fill="url(#paint2_linear)" />
    <circle cx="51.87" cy="234.94" r="1.17" fill="#C9D5E1" />
    <circle cx="52.45" cy="232" r=".59" fill="#C9D5E1" />
    <circle cx="46.58" cy="233.17" r=".59" fill="#C9D5E1" />
    <circle cx="47.76" cy="235.52" r=".59" fill="#CFDCE6" />
    <circle cx="50.11" cy="233.17" r=".59" fill="#C9D5E1" />
    <circle cx="45.12" cy="235.23" r=".29" fill="#CFDCE6" />
    <path fill="url(#paint3_linear)"
      d="M68.15 244.07H45.6c0-1.31 1.78-1.97 3.56-1.97a4.54 4.54 0 016.53-3.29c2.37-5.26 10.09-3.94 9.5 3.29 1.9 0 2.96 1.31 2.96 1.97z" />
    <path fill="#C8F1F5"
      d="M32.65 226.97l.08.76.63.45-.77.07-.44.63-.08-.76-.63-.45.77-.07.44-.63zM64.07 227.57l.65.42.74-.21-.42.64.21.74-.64-.42-.75.21.43-.64-.22-.74zM68.67 237.74l.08.77.63.44-.77.08-.44.63-.07-.76-.64-.45.77-.07.44-.64zM39.08 242.43l.41.65.77.11-.65.42-.11.76-.42-.65-.76-.1.65-.42.1-.77z" />
    <path fill="#C8F1F5"
      d="M37.3 235.84l.35.69.74.2-.69.33-.2.75-.33-.7-.75-.19.7-.33.19-.75zM72.9 227.26l.34.69.75.2-.7.33-.2.75-.33-.7-.75-.19.7-.34.19-.74zM55.72 243.41l-.2.75.43.63-.74-.2-.64.44.2-.75-.44-.63.75.2.64-.44zM43.8 225.85l-.2.75.43.63-.75-.2-.63.44.2-.75-.44-.63.75.2.63-.44z"
      opacity=".5" />
    <rect width="87.55" height="7.55" x="28.68" y="253.59" fill="#C4C8CB" rx="1" />
    <path fill="#D9DBEC" fill-rule="evenodd"
      d="M21.13 223.9H19.1c-.82 0-1.5.67-1.5 1.5v2.03c0 .83.68 1.5 1.5 1.5h2.04c.83 0 1.5-.67 1.5-1.5v-2.03c0-.83-.67-1.5-1.5-1.5zm-2.04-.5a2 2 0 00-2 2v2.03c0 1.1.9 2 2 2h2.04a2 2 0 002-2v-2.03a2 2 0 00-2-2H19.1zM140.46 205.87H19.55v-.5h120.9v.5z"
      clip-rule="evenodd" />
    <rect width="30.19" height="3.02" x="28.68" y="184" fill="#DEE0E2" rx="1" />
    <rect width="30.19" height="3.02" x="66.42" y="184" fill="#DEE0E2" rx="1" />
    <path fill="#C4C8CB" d="M28.68 164.36h105.66v3.02H28.68zM28.68 170.4h45.28v3.02H28.68z" />
    <rect width="49.81" height="26.32" x="28.68" y="122.26" fill="#EB4A4F" rx="2" />
    <circle cx="54.06" cy="135.42" r="9.4" fill="url(#paint4_linear)" />
    <path fill="#0194D2"
      d="M28.68 141.06s6.9-1.88 13.16 0c2.95.89 16.44-.47 22.08-.94 6.11-.5 14.57.94 14.57.94v5.52a2 2 0 01-2 2H30.68a2 2 0 01-2-2v-5.52z" />
    <path fill="#C4C8CB" d="M28.68 153.45a1 1 0 011-1h96.72a1 1 0 011 1V159a1 1 0 01-1 1H29.68a1 1 0 01-1-1v-5.55z" />
    <path fill="#D9DBEC" fill-rule="evenodd"
      d="M21.13 122.76H19.1c-.82 0-1.5.68-1.5 1.5v2.04c0 .83.68 1.5 1.5 1.5h2.04c.83 0 1.5-.67 1.5-1.5v-2.04c0-.82-.67-1.5-1.5-1.5zm-2.04-.5a2 2 0 00-2 2v2.04c0 1.1.9 2 2 2h2.04a2 2 0 002-2v-2.04a2 2 0 00-2-2H19.1zM77.32 93.98H32a2.6 2.6 0 00-2.6 2.6v6.08a2.6 2.6 0 002.6 2.6h45.32a2.6 2.6 0 002.6-2.6v-6.08a2.6 2.6 0 00-2.6-2.6zM32 93.58a3 3 0 00-3 3v6.08a3 3 0 003 3h45.32a3 3 0 003-3v-6.08a3 3 0 00-3-3H32z"
      clip-rule="evenodd" />
    <path fill="#C4C8CB"
      d="M51.63 98.53H36.25c-.74 0-1.34.47-1.34 1.05v1.06c0 .58.6 1.05 1.34 1.05h15.38c.74 0 1.34-.47 1.34-1.05v-1.06c0-.58-.6-1.05-1.34-1.05zM75.59 99.66a.12.12 0 000-.17l-.31-.31a.12.12 0 00-.17 0l-.99.99-.99-1a.12.12 0 00-.16 0l-.31.32a.12.12 0 000 .17l1.38 1.37c.05.05.12.05.17 0l1.38-1.38z" />
    <path fill="#D9DBEC" fill-rule="evenodd"
      d="M21.13 96.76H19.1c-.82 0-1.5.67-1.5 1.5v2.04c0 .83.68 1.5 1.5 1.5h2.04c.83 0 1.5-.67 1.5-1.5v-2.04c0-.83-.67-1.5-1.5-1.5zm-2.04-.5a2 2 0 00-2 2v2.04c0 1.1.9 2 2 2h2.04a2 2 0 002-2v-2.04a2 2 0 00-2-2H19.1zM121.32 75.87H76a2.6 2.6 0 00-2.6 2.6v6.08a2.6 2.6 0 002.6 2.6h45.32a2.6 2.6 0 002.6-2.6v-6.08a2.6 2.6 0 00-2.6-2.6zM76 75.47a3 3 0 00-3 3v6.08a3 3 0 003 3h45.32a3 3 0 003-3v-6.08a3 3 0 00-3-3H76z"
      clip-rule="evenodd" />
    <path fill="#C4C8CB"
      d="M95.63 80H80.25c-.74 0-1.34.47-1.34 1.05v1.06c0 .58.6 1.05 1.34 1.05h15.38c.74 0 1.34-.47 1.34-1.05v-1.06c0-.58-.6-1.05-1.34-1.05zM119.59 81.13a.12.12 0 000-.17l-.31-.31a.12.12 0 00-.17 0l-.99.99-.98-1a.12.12 0 00-.17 0l-.31.32a.12.12 0 000 .17l1.38 1.37c.05.05.12.05.17 0l1.38-1.37z" />
    <path fill="#D9DBEC" fill-rule="evenodd"
      d="M65.41 75.87H20.09a2.6 2.6 0 00-2.6 2.6v6.08a2.6 2.6 0 002.6 2.6h45.32a2.6 2.6 0 002.6-2.6v-6.08a2.6 2.6 0 00-2.6-2.6zm-45.32-.4a3 3 0 00-3 3v6.08a3 3 0 003 3h45.32a3 3 0 003-3v-6.08a3 3 0 00-3-3H20.09z"
      clip-rule="evenodd" />
    <path fill="#C4C8CB"
      d="M39.72 80H24.34c-.74 0-1.34.47-1.34 1.05v1.06c0 .58.6 1.05 1.34 1.05h15.38c.74 0 1.34-.47 1.34-1.05v-1.06c0-.58-.6-1.05-1.34-1.05zM63.68 81.13a.12.12 0 000-.17l-.31-.31a.12.12 0 00-.17 0l-.99.99-.99-1a.12.12 0 00-.16 0l-.31.32a.12.12 0 000 .17l1.38 1.37c.05.05.12.05.17 0l1.38-1.37z" />
    <path fill="#0472FF"
      d="M145.85 49.81h-41.93c-.5 0-.92.64-.92 1.42v9.24c0 .78.41 1.42.92 1.42h41.93c.51 0 .92-.64.92-1.42v-9.24c0-.78-.4-1.42-.92-1.42z" />
    <path fill="#9BC7FF"
      d="M134.04 54.34h-18.31c-.36 0-.65.45-.65 1v1.01c0 .56.29 1 .65 1h18.31c.37 0 .66-.44.66-1v-1c0-.56-.3-1.01-.66-1.01z" />
    <rect width="28" height="6.32" x="13" y="52.74" fill="#889197" rx="1" />
    <path fill="#D9DBEC" fill-rule="evenodd" d="M152.45 42.51H7.55v-.5h144.9v.5z" clip-rule="evenodd" />
    <rect width="6.78" height="1.45" x="146.95" y="29.08" fill="#C4C8CB" rx=".73"
      transform="rotate(-180 146.95 29.08)" />
    <rect width="6.78" height="1.45" x="146.95" y="31.99" fill="#C4C8CB" rx=".73" transform="rotate(-180 146.95 32)" />
    <rect width="6.78" height="1.45" x="146.95" y="34.9" fill="#C4C8CB" rx=".73" transform="rotate(-180 146.95 34.9)" />
    <rect width="13.57" height="13.57" x="137.57" y="37.72" fill="#C4C8CB" rx="6.78"
      transform="rotate(-180 137.57 37.72)" />
    <rect width="30.76" height="2.92" x="30.65" y="27.83" fill="#889197" rx="1" />
    <rect width="21.55" height="2.84" x="30.58" y="33.63" fill="#C4C8CB" rx="1" />
    <rect width="13.63" height="13.63" x="13" y="25" fill="#0472FF" rx="2" />
    <g fill="#fff" fill-rule="evenodd" clip-rule="evenodd" filter="url(#filter1_d)">
      <path
        d="M16 31.5c0-1.6 1.3-2.9 2.9-2.9h1.77a2.9 2.9 0 010 5.8H18.9A2.9 2.9 0 0116 31.5zm2.9-1.55a1.55 1.55 0 000 3.1h1.77a1.55 1.55 0 000-3.1H18.9z" />
      <path
        d="M19.31 36a.16.16 0 01-.15-.16v-8.68c0-.09.07-.16.15-.16h1.03c.09 0 .16.07.16.16v8.68c0 .09-.07.16-.16.16h-1.03z" />
    </g>
  </g>
  <defs>
    <linearGradient id="paint0_linear" x1="53.58" x2="53.58" y1="223.4" y2="249.71" gradientUnits="userSpaceOnUse">
      <stop stop-color="#0F328C" />
      <stop offset="1" stop-color="#81398D" />
    </linearGradient>
    <linearGradient id="paint1_linear" x1="49.36" x2="49.36" y1="227.16" y2="243.13" gradientUnits="userSpaceOnUse">
      <stop stop-color="#EAF3EE" />
      <stop offset="1" stop-color="#9CAED6" />
    </linearGradient>
    <linearGradient id="paint2_linear" x1="49.52" x2="49.52" y1="230.24" y2="241.98" gradientUnits="userSpaceOnUse">
      <stop stop-color="#EAF3EE" />
      <stop offset="1" stop-color="#9CAED6" />
    </linearGradient>
    <linearGradient id="paint3_linear" x1="56.87" x2="56.87" y1="235.61" y2="244.07" gradientUnits="userSpaceOnUse">
      <stop stop-color="#8CD2F6" />
      <stop offset="1" stop-color="#6F77E6" />
    </linearGradient>
    <linearGradient id="paint4_linear" x1="54.06" x2="54.06" y1="126.02" y2="144.82" gradientUnits="userSpaceOnUse">
      <stop stop-color="#F4AE34" />
      <stop offset="1" stop-color="#F4AE34" stop-opacity="0" />
    </linearGradient>
    <filter id="filter0_f" width="28.92" height="27.98" x="34.9" y="221.16" color-interpolation-filters="sRGB"
      filterUnits="userSpaceOnUse">
      <feFlood flood-opacity="0" result="BackgroundImageFix" />
      <feBlend in="SourceGraphic" in2="BackgroundImageFix" result="shape" />
      <feGaussianBlur result="effect1_foregroundBlur" stdDeviation="3" />
    </filter>
    <filter id="filter1_d" width="9.57" height="11" x="15" y="27" color-interpolation-filters="sRGB"
      filterUnits="userSpaceOnUse">
      <feFlood flood-opacity="0" result="BackgroundImageFix" />
      <feColorMatrix in="SourceAlpha" values="0 0 0 0 0 0 0 0 0 0 0 0 0 0 0 0 0 0 127 0" />
      <feOffset dy="1" />
      <feGaussianBlur stdDeviation=".5" />
      <feColorMatrix values="0 0 0 0 0 0 0 0 0 0 0 0 0 0 0 0 0 0 0.1 0" />
      <feBlend in2="BackgroundImageFix" result="effect1_dropShadow" />
      <feBlend in="SourceGraphic" in2="effect1_dropShadow" result="shape" />
    </filter>
  </defs>
</svg>