<svg width="291" height="500" viewBox="0 0 291 500" fill="none" xmlns="http://www.w3.org/2000/svg">
<rect width="291" height="500" transform="matrix(-1 0 0 1 291 0)" fill="white"/>
<rect x="82" y="455" width="113" height="8" rx="1" fill="#99ADC0" fill-opacity="0.5"/>
<path d="M60.7187 454.965L54.1601 454.022L51.1953 448.047C50.7011 447.014 49.1738 446.969 48.6347 448.047L45.7148 454.022L39.1113 454.965C37.9433 455.145 37.4941 456.582 38.3476 457.436L43.0644 462.063L41.9414 468.577C41.7617 469.744 43.0195 470.643 44.0527 470.104L49.9375 467.004L55.7773 470.104C56.8105 470.643 58.0683 469.744 57.8886 468.577L56.7656 462.063L61.4824 457.436C62.3359 456.582 61.8867 455.145 60.7187 454.965ZM54.4297 461.299L55.5078 467.498L49.9375 464.578L44.3222 467.498L45.4004 461.299L40.8632 456.897L47.1074 455.998L49.9375 450.338L52.7226 455.998L58.9668 456.897L54.4297 461.299Z" fill="#495E6F"/>
<rect x="82" y="409" width="103" height="8" rx="1" fill="#99ADC0" fill-opacity="0.5"/>
<path d="M39.7272 406.091H37.3635V422.636C37.3635 423.936 38.4272 425 39.7272 425H56.2726V422.636H39.7272V406.091ZM58.6363 401.364H44.4544C43.1544 401.364 42.0908 402.427 42.0908 403.727V417.909C42.0908 419.209 43.1544 420.273 44.4544 420.273H58.6363C59.9363 420.273 60.9999 419.209 60.9999 417.909V403.727C60.9999 402.427 59.9363 401.364 58.6363 401.364ZM58.6363 417.909H44.4544V403.727H58.6363V417.909ZM50.3635 415.545H52.7272V412H56.2726V409.636H52.7272V406.091H50.3635V409.636H46.8181V412H50.3635V415.545Z" fill="#495E6F"/>
<rect x="82" y="364" width="123" height="8" rx="1" fill="#99ADC0" fill-opacity="0.5"/>
<path d="M59.0855 364.128L57.6319 366.315C58.3329 367.713 58.6761 369.263 58.6308 370.826C58.5854 372.39 58.1528 373.918 57.3719 375.273H40.9919C39.9769 373.512 39.5564 371.471 39.7925 369.452C40.0287 367.434 40.9091 365.545 42.3031 364.066C43.6971 362.587 45.5306 361.597 47.5318 361.242C49.5329 360.887 51.5952 361.186 53.4128 362.096L55.5992 360.642C53.3732 359.215 50.7328 358.575 48.1004 358.825C45.468 359.076 42.9956 360.202 41.0788 362.023C39.1619 363.845 37.9113 366.257 37.5271 368.873C37.1428 371.489 37.6471 374.159 38.9592 376.455C39.1654 376.812 39.4616 377.109 39.8182 377.316C40.1748 377.524 40.5794 377.634 40.9919 377.636H57.3601C57.7766 377.638 58.1861 377.53 58.5472 377.322C58.9083 377.115 59.2082 376.815 59.4165 376.455C60.5054 374.568 61.0518 372.418 60.9955 370.241C60.9392 368.063 60.2823 365.944 59.0974 364.116L59.0855 364.128Z" fill="#495E6F"/>
<path d="M47.5155 372.212C47.735 372.432 47.9957 372.606 48.2826 372.725C48.5696 372.844 48.8771 372.905 49.1878 372.905C49.4984 372.905 49.806 372.844 50.0929 372.725C50.3798 372.606 50.6405 372.432 50.86 372.212L57.5491 362.178L47.5155 368.867C47.2957 369.087 47.1214 369.348 47.0024 369.634C46.8835 369.921 46.8223 370.229 46.8223 370.54C46.8223 370.85 46.8835 371.158 47.0024 371.445C47.1214 371.732 47.2957 371.992 47.5155 372.212Z" fill="#495E6F"/>
<rect x="82" y="319" width="123" height="8" rx="1" fill="#99ADC0" fill-opacity="0.5"/>
<path d="M56.2727 324.364H55.469L53.1054 326.727H55.3627L57.4545 329.091H40.909L43.0127 326.727H45.4354L43.0718 324.364H42.0909L38.5454 327.909V332.636C38.5454 333.936 39.5972 335 40.8972 335H57.4545C58.7545 335 59.8181 333.948 59.8181 332.636V327.909L56.2727 324.364ZM55.0909 318.395L49.2409 324.245L45.0572 320.062L50.9072 314.212L55.0909 318.395ZM50.08 311.706L42.5518 319.235C42.0909 319.695 42.0909 320.44 42.5518 320.901L48.4018 326.751C48.8627 327.212 49.6072 327.212 50.0681 326.751L57.5845 319.235C58.0454 318.774 58.0454 318.029 57.5845 317.568L51.7345 311.718C51.2854 311.245 50.5409 311.245 50.08 311.706Z" fill="#495E6F"/>
<rect x="82" y="274" width="87" height="8" rx="1" fill="#99ADC0" fill-opacity="0.5"/>
<path d="M58.6363 268.727V282.909H44.4544V268.727H58.6363ZM58.6363 266.364H44.4544C43.1544 266.364 42.0908 267.427 42.0908 268.727V282.909C42.0908 284.209 43.1544 285.273 44.4544 285.273H58.6363C59.9363 285.273 60.9999 284.209 60.9999 282.909V268.727C60.9999 267.427 59.9363 266.364 58.6363 266.364ZM48.5908 277.792L50.5881 280.463L53.519 276.799L57.4544 281.727H45.6363L48.5908 277.792ZM37.3635 271.091V287.636C37.3635 288.936 38.4272 290 39.7272 290H56.2726V287.636H39.7272V271.091H37.3635Z" fill="#495E6F"/>
<rect x="82" y="228" width="103" height="8" rx="1" fill="#99ADC0" fill-opacity="0.5"/>
<path d="M50.7272 222.909V231.182H39.1099L37.7272 232.565V222.909H50.7272ZM51.909 220.545H36.5453C35.8953 220.545 35.3635 221.077 35.3635 221.727V238.273L40.0908 233.545H51.909C52.559 233.545 53.0908 233.014 53.0908 232.364V221.727C53.0908 221.077 52.559 220.545 51.909 220.545ZM57.8181 225.273H55.4544V235.909H40.0908V238.273C40.0908 238.923 40.6226 239.455 41.2726 239.455H54.2726L58.9999 244.182V226.455C58.9999 225.805 58.4681 225.273 57.8181 225.273Z" fill="#495E6F"/>
<rect x="82" y="181.568" width="74" height="8.78988" rx="1" fill="#99ADC0" fill-opacity="0.5"/>
<path d="M47.9999 199.879V195.624C42.079 195.317 37.3635 190.401 37.3635 184.409C37.3635 178.216 42.3981 173.182 48.5908 173.182C54.7835 173.182 59.8181 178.216 59.8181 184.409C59.8181 190.259 55.7526 196.144 49.6899 199.064L47.9999 199.879ZM48.5908 175.545C43.6981 175.545 39.7272 179.516 39.7272 184.409C39.7272 189.302 43.6981 193.273 48.5908 193.273H50.3635V195.991C54.6653 193.273 57.4544 188.805 57.4544 184.409C57.4544 179.516 53.4835 175.545 48.5908 175.545ZM47.409 189.136H49.7726V191.5H47.409V189.136ZM49.7726 187.364H47.409C47.409 183.523 50.9544 183.818 50.9544 181.454C50.9544 180.154 49.8908 179.091 48.5908 179.091C47.2908 179.091 46.2272 180.154 46.2272 181.454H43.8635C43.8635 178.843 45.979 176.727 48.5908 176.727C51.2026 176.727 53.3181 178.843 53.3181 181.454C53.3181 184.409 49.7726 184.704 49.7726 187.364Z" fill="#495E6F"/>
<path d="M89.8127 146H92.469L87.469 131.908H84.6272L79.6272 146H82.2249L83.426 142.357H88.6116L89.8127 146ZM85.9846 134.398H86.053L88.0159 140.414H84.012L85.9846 134.398Z" fill="#0196FF"/>
<path d="M93.8069 146H96.2385V131.908H93.8069V146Z" fill="#0196FF"/>
<path d="M98.3772 146H100.809V131.908H98.3772V146Z" fill="#0196FF"/>
<path d="M107.127 131.908V146H112.274C116.492 146 118.973 143.383 118.973 138.92C118.973 134.457 116.483 131.908 112.274 131.908H107.127ZM109.647 134.037H112.01C114.823 134.037 116.405 135.775 116.405 138.93C116.405 142.143 114.842 143.871 112.01 143.871H109.647V134.037Z" fill="#0196FF"/>
<path d="M122 134.086C122.742 134.086 123.328 133.49 123.328 132.768C123.328 132.035 122.742 131.449 122 131.449C121.258 131.449 120.662 132.035 120.662 132.768C120.662 133.49 121.258 134.086 122 134.086ZM120.789 146H123.221V135.648H120.789V146Z" fill="#0196FF"/>
<path d="M125.076 138.617C125.076 140.15 126.073 141.127 128.055 141.566L129.774 141.947C130.858 142.191 131.229 142.543 131.229 143.168C131.229 143.939 130.496 144.428 129.315 144.428C128.084 144.428 127.391 143.92 127.205 142.914H124.813C125.008 144.916 126.61 146.205 129.315 146.205C131.854 146.205 133.651 144.887 133.651 142.934C133.651 141.43 132.821 140.6 130.672 140.121L128.953 139.74C127.869 139.496 127.44 139.086 127.44 138.49C127.44 137.729 128.153 137.221 129.227 137.221C130.35 137.221 131.043 137.816 131.141 138.754H133.406C133.348 136.791 131.746 135.434 129.227 135.434C126.727 135.434 125.076 136.723 125.076 138.617Z" fill="#0196FF"/>
<path d="M144.324 139.34C144.158 137.162 142.469 135.434 139.735 135.434C136.727 135.434 134.774 137.514 134.774 140.824C134.774 144.184 136.727 146.205 139.754 146.205C142.352 146.205 144.139 144.682 144.334 142.367H142.039C141.815 143.539 141.014 144.242 139.783 144.242C138.24 144.242 137.244 142.992 137.244 140.824C137.244 138.695 138.231 137.406 139.764 137.406C141.063 137.406 141.834 138.236 142.03 139.34H144.324Z" fill="#0196FF"/>
<path d="M154.969 135.648H152.537V141.635C152.537 143.139 151.668 144.135 150.262 144.135C148.895 144.135 148.172 143.334 148.172 141.85V135.648H145.74V142.338C145.74 144.73 147.166 146.186 149.412 146.186C150.985 146.186 152.03 145.463 152.576 144.203H152.625V146H154.969V135.648Z" fill="#0196FF"/>
<path d="M156.776 138.617C156.776 140.15 157.772 141.127 159.754 141.566L161.473 141.947C162.557 142.191 162.928 142.543 162.928 143.168C162.928 143.939 162.196 144.428 161.014 144.428C159.783 144.428 159.09 143.92 158.905 142.914H156.512C156.707 144.916 158.309 146.205 161.014 146.205C163.553 146.205 165.35 144.887 165.35 142.934C165.35 141.43 164.52 140.6 162.371 140.121L160.653 139.74C159.569 139.496 159.139 139.086 159.139 138.49C159.139 137.729 159.852 137.221 160.926 137.221C162.049 137.221 162.742 137.816 162.84 138.754H165.106C165.047 136.791 163.446 135.434 160.926 135.434C158.426 135.434 156.776 136.723 156.776 138.617Z" fill="#0196FF"/>
<path d="M166.717 138.617C166.717 140.15 167.713 141.127 169.696 141.566L171.414 141.947C172.498 142.191 172.869 142.543 172.869 143.168C172.869 143.939 172.137 144.428 170.955 144.428C169.725 144.428 169.031 143.92 168.846 142.914H166.453C166.649 144.916 168.25 146.205 170.955 146.205C173.494 146.205 175.291 144.887 175.291 142.934C175.291 141.43 174.461 140.6 172.313 140.121L170.594 139.74C169.51 139.496 169.08 139.086 169.08 138.49C169.08 137.729 169.793 137.221 170.867 137.221C171.99 137.221 172.684 137.816 172.781 138.754H175.047C174.989 136.791 173.387 135.434 170.867 135.434C168.367 135.434 166.717 136.723 166.717 138.617Z" fill="#0196FF"/>
<path d="M178.114 134.086C178.856 134.086 179.442 133.49 179.442 132.768C179.442 132.035 178.856 131.449 178.114 131.449C177.371 131.449 176.776 132.035 176.776 132.768C176.776 133.49 177.371 134.086 178.114 134.086ZM176.903 146H179.334V135.648H176.903V146Z" fill="#0196FF"/>
<path d="M185.955 146.205C188.992 146.205 190.965 144.184 190.965 140.824C190.965 137.475 188.973 135.434 185.955 135.434C182.938 135.434 180.946 137.484 180.946 140.824C180.946 144.184 182.918 146.205 185.955 146.205ZM185.955 144.281C184.412 144.281 183.416 143.031 183.416 140.824C183.416 138.627 184.422 137.367 185.955 137.367C187.498 137.367 188.494 138.627 188.494 140.824C188.494 143.031 187.498 144.281 185.955 144.281Z" fill="#0196FF"/>
<path d="M192.528 146H194.959V140.004C194.959 138.52 195.848 137.514 197.244 137.514C198.631 137.514 199.315 138.334 199.315 139.799V146H201.746V139.311C201.746 136.918 200.448 135.453 198.162 135.453C196.571 135.453 195.467 136.195 194.91 137.426H194.862V135.648H192.528V146Z" fill="#0196FF"/>
<path d="M203.514 138.617C203.514 140.15 204.51 141.127 206.492 141.566L208.211 141.947C209.295 142.191 209.666 142.543 209.666 143.168C209.666 143.939 208.934 144.428 207.752 144.428C206.522 144.428 205.828 143.92 205.643 142.914H203.25C203.446 144.916 205.047 146.205 207.752 146.205C210.291 146.205 212.088 144.887 212.088 142.934C212.088 141.43 211.258 140.6 209.11 140.121L207.391 139.74C206.307 139.496 205.877 139.086 205.877 138.49C205.877 137.729 206.59 137.221 207.664 137.221C208.787 137.221 209.481 137.816 209.578 138.754H211.844C211.785 136.791 210.184 135.434 207.664 135.434C205.164 135.434 203.514 136.723 203.514 138.617Z" fill="#0196FF"/>
<path d="M50.7272 130.909V139.182H39.1099L37.7272 140.565V130.909H50.7272ZM51.909 128.545H36.5453C35.8953 128.545 35.3635 129.077 35.3635 129.727V146.273L40.0908 141.545H51.909C52.559 141.545 53.0908 141.014 53.0908 140.364V129.727C53.0908 129.077 52.559 128.545 51.909 128.545ZM57.8181 133.273H55.4544V143.909H40.0908V146.273C40.0908 146.923 40.6226 147.455 41.2726 147.455H54.2726L58.9999 152.182V134.455C58.9999 133.805 58.4681 133.273 57.8181 133.273Z" fill="#0196FF"/>
<rect x="35" y="66.7954" width="212.595" height="36.4092" rx="5" fill="#0471FF"/>
<path d="M83.0215 90.1284V77.4458H80.3672V82.5962H74.6543V77.4458H72V90.1284H74.6543V84.7847H80.3672V90.1284H83.0215Z" fill="white"/>
<path d="M87.5127 90.2778C88.6904 90.2778 89.8594 89.689 90.3867 88.687H90.4395V90.1284H92.918V83.6509C92.918 81.7524 91.3447 80.5044 88.9277 80.5044C86.4316 80.5044 84.876 81.7612 84.7793 83.5894H87.126C87.249 82.895 87.8555 82.4204 88.8135 82.4204C89.7803 82.4204 90.3955 82.9302 90.3955 83.8091V84.4331L88.0225 84.5737C85.6758 84.7144 84.3574 85.7075 84.3574 87.4214C84.3574 89.1177 85.7197 90.2778 87.5127 90.2778ZM88.3564 88.4233C87.4863 88.4233 86.9062 87.9839 86.9062 87.2808C86.9062 86.6128 87.4512 86.1821 88.4092 86.1118L90.3955 85.9888V86.6743C90.3955 87.6938 89.4727 88.4233 88.3564 88.4233Z" fill="white"/>
<path d="M103.14 80.7065H100.459L98.5078 87.8608H98.4551L96.4951 80.7065H93.7441L97.0049 90.1284H99.9053L103.14 80.7065Z" fill="white"/>
<path d="M110.013 87.2456C109.775 87.9663 109.055 88.4321 108.114 88.4321C106.805 88.4321 105.952 87.5093 105.952 86.1646V86.0063H112.447V85.2241C112.447 82.3589 110.716 80.5044 107.974 80.5044C105.188 80.5044 103.43 82.4556 103.43 85.4614C103.43 88.4761 105.17 90.3306 108.07 90.3306C110.399 90.3306 112.087 89.0913 112.368 87.2456H110.013ZM108 82.4028C109.143 82.4028 109.925 83.229 109.978 84.4331H105.979C106.066 83.2554 106.875 82.4028 108 82.4028Z" fill="white"/>
<path d="M120.138 90.2778C121.315 90.2778 122.484 89.689 123.012 88.687H123.064V90.1284H125.543V83.6509C125.543 81.7524 123.97 80.5044 121.553 80.5044C119.057 80.5044 117.501 81.7612 117.404 83.5894H119.751C119.874 82.895 120.48 82.4204 121.438 82.4204C122.405 82.4204 123.021 82.9302 123.021 83.8091V84.4331L120.647 84.5737C118.301 84.7144 116.982 85.7075 116.982 87.4214C116.982 89.1177 118.345 90.2778 120.138 90.2778ZM120.981 88.4233C120.111 88.4233 119.531 87.9839 119.531 87.2808C119.531 86.6128 120.076 86.1821 121.034 86.1118L123.021 85.9888V86.6743C123.021 87.6938 122.098 88.4233 120.981 88.4233Z" fill="white"/>
<path d="M134.297 80.5571C131.915 80.5571 130.43 82.4028 130.43 85.3999C130.43 88.4146 131.897 90.2778 134.253 90.2778C135.624 90.2778 136.723 89.5571 137.162 88.52H137.215V93.2046H139.781V80.7065H137.25V82.3501H137.197C136.714 81.2778 135.668 80.5571 134.297 80.5571ZM135.123 88.2124C133.84 88.2124 133.058 87.1489 133.058 85.4175C133.058 83.686 133.84 82.6138 135.123 82.6138C136.389 82.6138 137.224 83.7036 137.224 85.4175C137.224 87.1401 136.397 88.2124 135.123 88.2124Z" fill="white"/>
<path d="M150.161 80.7065H147.595V86.103C147.595 87.3511 146.883 88.1685 145.74 88.1685C144.606 88.1685 143.982 87.5005 143.982 86.2437V80.7065H141.416V86.7798C141.416 88.9771 142.77 90.3042 144.809 90.3042C146.232 90.3042 147.164 89.6187 147.63 88.4321H147.683V90.1284H150.161V80.7065Z" fill="white"/>
<path d="M158.071 87.2456C157.834 87.9663 157.113 88.4321 156.173 88.4321C154.863 88.4321 154.011 87.5093 154.011 86.1646V86.0063H160.506V85.2241C160.506 82.3589 158.774 80.5044 156.032 80.5044C153.246 80.5044 151.488 82.4556 151.488 85.4614C151.488 88.4761 153.229 90.3306 156.129 90.3306C158.458 90.3306 160.146 89.0913 160.427 87.2456H158.071ZM156.059 82.4028C157.201 82.4028 157.983 83.229 158.036 84.4331H154.037C154.125 83.2554 154.934 82.4028 156.059 82.4028Z" fill="white"/>
<path d="M161.675 83.4751C161.675 84.8901 162.598 85.8042 164.417 86.1909L166.025 86.5249C166.948 86.7358 167.273 87.0171 167.273 87.5181C167.273 88.1333 166.676 88.5288 165.709 88.5288C164.689 88.5288 164.101 88.0894 163.942 87.2632H161.438C161.604 89.1177 163.107 90.3306 165.709 90.3306C168.135 90.3306 169.831 89.1089 169.831 87.2544C169.831 85.8745 169.022 85.1011 167.054 84.688L165.445 84.3452C164.496 84.1431 164.145 83.8179 164.145 83.3345C164.145 82.7104 164.733 82.3062 165.621 82.3062C166.57 82.3062 167.142 82.8247 167.221 83.5894H169.585C169.532 81.7437 168.038 80.5044 165.621 80.5044C163.222 80.5044 161.675 81.6821 161.675 83.4751Z" fill="white"/>
<path d="M171.782 78.5356V80.7065H170.455V82.6401H171.782V87.5884C171.782 89.4253 172.644 90.1636 174.858 90.1636C175.377 90.1636 175.816 90.1196 176.08 90.0581V88.1685C175.922 88.1948 175.685 88.2124 175.456 88.2124C174.7 88.2124 174.349 87.8696 174.349 87.1489V82.6401H176.089V80.7065H174.349V78.5356H171.782Z" fill="white"/>
<path d="M178.813 79.4321C179.561 79.4321 180.149 78.8345 180.149 78.1138C180.149 77.3843 179.561 76.7954 178.813 76.7954C178.066 76.7954 177.478 77.3843 177.478 78.1138C177.478 78.8345 178.066 79.4321 178.813 79.4321ZM177.539 90.1284H180.105V80.7065H177.539V90.1284Z" fill="white"/>
<path d="M186.144 90.3306C188.991 90.3306 190.811 88.5112 190.811 85.4087C190.811 82.3501 188.965 80.5044 186.144 80.5044C183.322 80.5044 181.477 82.3589 181.477 85.4087C181.477 88.5024 183.296 90.3306 186.144 90.3306ZM186.144 88.3706C184.878 88.3706 184.078 87.3071 184.078 85.4175C184.078 83.5454 184.896 82.4644 186.144 82.4644C187.392 82.4644 188.2 83.5454 188.2 85.4175C188.2 87.3071 187.4 88.3706 186.144 88.3706Z" fill="white"/>
<path d="M192.138 90.1284H194.704V84.7231C194.704 83.5015 195.434 82.6577 196.585 82.6577C197.736 82.6577 198.316 83.3608 198.316 84.5913V90.1284H200.883V84.0552C200.883 81.8491 199.705 80.5308 197.613 80.5308C196.163 80.5308 195.17 81.2163 194.669 82.3853H194.616V80.7065H192.138V90.1284Z" fill="white"/>
<path d="M202.148 81.0054H204.53C204.583 80.0122 205.251 79.3706 206.262 79.3706C207.264 79.3706 207.932 79.9771 207.932 80.812C207.932 81.647 207.589 82.0776 206.455 82.7544C205.242 83.4663 204.759 84.2573 204.873 85.6372L204.891 86.147H207.22V85.6812C207.22 84.8198 207.545 84.3892 208.714 83.7124C209.953 82.9829 210.595 82.0601 210.595 80.7329C210.595 78.729 208.934 77.3315 206.42 77.3315C203.722 77.3315 202.192 78.8433 202.148 81.0054ZM206.086 90.3481C206.886 90.3481 207.527 89.7417 207.527 88.9683C207.527 88.1948 206.886 87.5884 206.086 87.5884C205.295 87.5884 204.653 88.1948 204.653 88.9683C204.653 89.7417 205.295 90.3481 206.086 90.3481Z" fill="white"/>
<path fill-rule="evenodd" clip-rule="evenodd" d="M290.918 51.9221H0V50.9221H290.918V51.9221Z" fill="#99ADC0" fill-opacity="0.2"/>
<path d="M118.306 26.7886V25.8335H114.743V27.1226H116.583L116.577 27.2573C116.542 28.3062 115.74 29.0151 114.585 29.0151C113.179 29.0151 112.288 27.896 112.288 26.062C112.288 24.2632 113.126 23.2026 114.521 23.2026C115.476 23.2026 116.197 23.73 116.454 24.6147H118.23C117.978 22.9038 116.49 21.7378 114.515 21.7378C112.031 21.7378 110.484 23.3784 110.484 26.0854C110.484 28.8335 112.031 30.48 114.556 30.48C116.911 30.48 118.306 29.0913 118.306 26.7886Z" fill="#3A4854"/>
<path d="M122.687 21.8843H120.918V27.3511C120.918 29.2144 122.295 30.48 124.463 30.48C126.625 30.48 128.002 29.2144 128.002 27.3511V21.8843H126.232V27.1753C126.232 28.2593 125.594 28.9683 124.463 28.9683C123.326 28.9683 122.687 28.2593 122.687 27.1753V21.8843Z" fill="#3A4854"/>
<path d="M132.623 30.3394V21.8843H130.854V30.3394H132.623Z" fill="#3A4854"/>
<path d="M135.47 21.8843V30.3394H138.698C141.235 30.3394 142.729 28.7632 142.729 26.0796C142.729 23.396 141.235 21.8843 138.698 21.8843H135.47ZM137.239 23.3433H138.487C140.046 23.3433 140.925 24.3159 140.925 26.0854C140.925 27.9136 140.069 28.8745 138.487 28.8745H137.239V23.3433Z" fill="#3A4854"/>
<path d="M150.498 30.3394H152.378L149.437 21.8843H147.357L144.421 30.3394H146.238L146.882 28.2886H149.853L150.498 30.3394ZM148.347 23.5015H148.388L149.472 26.9644H147.263L148.347 23.5015Z" fill="#3A4854"/>
<path d="M156.379 30.3394V24.8022H156.432L160.387 30.3394H161.852V21.8843H160.158V27.3921H160.111L156.162 21.8843H154.686V30.3394H156.379Z" fill="#3A4854"/>
<path d="M168.442 30.48C170.516 30.48 171.963 29.2905 172.163 27.4038H170.44C170.253 28.4058 169.497 29.021 168.448 29.021C167.094 29.021 166.245 27.9077 166.245 26.103C166.245 24.3218 167.106 23.2026 168.442 23.2026C169.473 23.2026 170.27 23.8823 170.434 24.9194H172.157C172.022 23.0269 170.475 21.7378 168.442 21.7378C165.993 21.7378 164.44 23.3843 164.44 26.1089C164.44 28.8394 165.981 30.48 168.442 30.48Z" fill="#3A4854"/>
<path d="M180.3 28.8745H176.468V26.7417H180.083V25.3823H176.468V23.3433H180.3V21.8843H174.698V30.3394H180.3V28.8745Z" fill="#3A4854"/>
</svg>
