<svg width="549" height="349" viewBox="0 0 549 349" fill="none" xmlns="http://www.w3.org/2000/svg">
<mask id="mask0" mask-type="alpha" maskUnits="userSpaceOnUse" x="0" y="0" width="549" height="349">
<rect x="0.839355" width="548.161" height="348.662" fill="white"/>
</mask>
<g mask="url(#mask0)">
<rect x="0.225586" width="548.775" height="348.662" rx="5" fill="white"/>
<path d="M107.648 0H545C547.209 0 549 1.79086 549 4V344.662C549 346.871 547.209 348.662 545 348.662H107.648V0Z" fill="#F2F3F7"/>
<path d="M119.925 44.5136C119.925 42.3044 121.716 40.5135 123.925 40.5135H529.654C531.863 40.5135 533.654 42.3044 533.654 44.5135V348.662H119.925V44.5136Z" fill="white"/>
<path fill-rule="evenodd" clip-rule="evenodd" d="M534.154 349.162H119.425V44.5136C119.425 42.0283 121.44 40.0135 123.925 40.0135H529.654C532.139 40.0135 534.154 42.0283 534.154 44.5135V349.162ZM123.925 40.5135C121.716 40.5135 119.925 42.3044 119.925 44.5136V348.662H533.654V44.5135C533.654 42.3044 531.863 40.5135 529.654 40.5135H123.925Z" fill="#D9DBEC"/>
<path fill-rule="evenodd" clip-rule="evenodd" d="M107.75 348.938L107.75 -0.33783L108.25 -0.33783L108.25 348.938H107.75Z" fill="#D9DBEC"/>
<path fill-rule="evenodd" clip-rule="evenodd" d="M130.533 50.306H128.395C127.567 50.306 126.895 50.9776 126.895 51.806V53.9444C126.895 54.7729 127.567 55.4444 128.395 55.4444H130.533C131.362 55.4444 132.033 54.7729 132.033 53.9444V51.806C132.033 50.9776 131.362 50.306 130.533 50.306ZM128.395 49.806C127.29 49.806 126.395 50.7015 126.395 51.806V53.9444C126.395 55.049 127.29 55.9444 128.395 55.9444H130.533C131.638 55.9444 132.533 55.049 132.533 53.9444V51.806C132.533 50.7015 131.638 49.806 130.533 49.806H128.395Z" fill="#D9DBEC"/>
<path fill-rule="evenodd" clip-rule="evenodd" d="M203.007 45.8873H142.871C140.938 45.8873 139.371 47.4543 139.371 49.3873V56.1447C139.371 58.0776 140.938 59.6447 142.871 59.6447H203.007C204.94 59.6447 206.507 58.0776 206.507 56.1447V49.3873C206.507 47.4543 204.94 45.8873 203.007 45.8873ZM142.871 45.3873C140.661 45.3873 138.871 47.1782 138.871 49.3873V56.1447C138.871 58.3538 140.661 60.1447 142.871 60.1447H203.007C205.216 60.1447 207.007 58.3538 207.007 56.1447V49.3873C207.007 47.1782 205.216 45.3873 203.007 45.3873H142.871Z" fill="#D9DBEC"/>
<path d="M183.035 51.1847H145.65C144.912 51.1847 144.314 51.6566 144.314 52.2388V53.2929C144.314 53.875 144.912 54.347 145.65 54.347H183.035C183.772 54.347 184.37 53.875 184.37 53.2929V52.2388C184.37 51.6566 183.772 51.1847 183.035 51.1847Z" fill="#C4C8CB"/>
<path d="M202.532 52.2724C202.592 52.2125 202.592 52.1142 202.532 52.0542L202.134 51.6586C202.074 51.5987 201.978 51.5987 201.918 51.6586L200.645 52.9318L199.372 51.6586C199.312 51.5987 199.216 51.5987 199.156 51.6586L198.758 52.0542C198.698 52.1142 198.698 52.2125 198.758 52.2724L200.537 54.0492C200.597 54.1092 200.693 54.1092 200.753 54.0492L202.532 52.2724Z" fill="#C4C8CB"/>
<path fill-rule="evenodd" clip-rule="evenodd" d="M456.523 45.8873H403.139C401.206 45.8873 399.639 47.4543 399.639 49.3873V56.1447C399.639 58.0776 401.206 59.6447 403.139 59.6447H456.523C458.456 59.6447 460.023 58.0776 460.023 56.1447V49.3873C460.023 47.4543 458.456 45.8873 456.523 45.8873ZM403.139 45.3873C400.93 45.3873 399.139 47.1782 399.139 49.3873V56.1447C399.139 58.3538 400.93 60.1447 403.139 60.1447H456.523C458.732 60.1447 460.523 58.3538 460.523 56.1447V49.3873C460.523 47.1782 458.732 45.3873 456.523 45.3873H403.139Z" fill="#D9DBEC"/>
<path d="M424.758 51.1847H405.279C404.895 51.1847 404.583 51.6566 404.583 52.2388V53.2929C404.583 53.875 404.895 54.347 405.279 54.347H424.758C425.143 54.347 425.454 53.875 425.454 53.2929V52.2388C425.454 51.6566 425.143 51.1847 424.758 51.1847Z" fill="#C4C8CB"/>
<path d="M456.049 52.2724C456.109 52.2125 456.109 52.1142 456.049 52.0542L455.651 51.6586C455.591 51.5987 455.495 51.5987 455.435 51.6586L454.162 52.9318L452.888 51.6586C452.828 51.5987 452.732 51.5987 452.672 51.6586L452.274 52.0542C452.215 52.1142 452.215 52.2125 452.274 52.2724L454.054 54.0492C454.114 54.1092 454.209 54.1092 454.269 54.0492L456.049 52.2724Z" fill="#C4C8CB"/>
<path fill-rule="evenodd" clip-rule="evenodd" d="M523.432 45.8873H470.048C468.115 45.8873 466.548 47.4543 466.548 49.3873V56.1447C466.548 58.0776 468.115 59.6447 470.048 59.6447H523.432C525.365 59.6447 526.932 58.0776 526.932 56.1447V49.3873C526.932 47.4543 525.365 45.8873 523.432 45.8873ZM470.048 45.3873C467.839 45.3873 466.048 47.1782 466.048 49.3873V56.1447C466.048 58.3538 467.839 60.1447 470.048 60.1447H523.432C525.641 60.1447 527.432 58.3538 527.432 56.1447V49.3873C527.432 47.1782 525.641 45.3873 523.432 45.3873H470.048Z" fill="#D9DBEC"/>
<path d="M491.667 51.1847H472.188C471.804 51.1847 471.492 51.6566 471.492 52.2388V53.2929C471.492 53.875 471.804 54.347 472.188 54.347H491.667C492.051 54.347 492.363 53.875 492.363 53.2929V52.2388C492.363 51.6566 492.051 51.1847 491.667 51.1847Z" fill="#C4C8CB"/>
<path d="M522.957 52.2724C523.017 52.2125 523.017 52.1142 522.957 52.0542L522.559 51.6586C522.499 51.5987 522.403 51.5987 522.343 51.6586L521.07 52.9318L519.797 51.6586C519.737 51.5987 519.641 51.5987 519.581 51.6586L519.183 52.0542C519.123 52.1142 519.123 52.2125 519.183 52.2724L520.962 54.0492C521.022 54.1092 521.118 54.1092 521.178 54.0492L522.957 52.2724Z" fill="#C4C8CB"/>
<path d="M533.017 17.5406H486.57C486.006 17.5406 485.549 18.318 485.549 19.2768V30.5618C485.549 31.5207 486.006 32.298 486.57 32.298H533.017C533.581 32.298 534.038 31.5207 534.038 30.5618V19.2768C534.038 18.318 533.581 17.5406 533.017 17.5406Z" fill="#0472FF"/>
<path d="M521.033 23.8651H497.968C497.513 23.8651 497.145 24.2533 497.145 24.7322V25.5993C497.145 26.0781 497.513 26.4663 497.968 26.4663H521.033C521.487 26.4663 521.856 26.0781 521.856 25.5993V24.7322C521.856 24.2533 521.487 23.8651 521.033 23.8651Z" fill="white" fill-opacity="0.6"/>
<path fill-rule="evenodd" clip-rule="evenodd" d="M527.234 343.203H127.009V342.703H527.234V343.203Z" fill="#D9DBEC"/>
<rect x="139.567" y="324.97" width="15.346" height="3.06921" rx="1" fill="#C4C8CB" fill-opacity="0.5"/>
<rect x="161.052" y="324.97" width="77.3441" height="3.06921" rx="1" fill="#C4C8CB" fill-opacity="0.5"/>
<rect x="244.535" y="324.97" width="49.1073" height="3.06921" rx="1" fill="#C4C8CB" fill-opacity="0.5"/>
<rect x="299.78" y="324.97" width="18.4153" height="3.06921" rx="1" fill="#408DFF"/>
<rect x="139.567" y="314.733" width="122.768" height="3.68305" rx="1" fill="#C4C8CB"/>
<rect x="470.618" y="299.51" width="55.867" height="29.5146" rx="7" fill="#28056B"/>
<path fill-rule="evenodd" clip-rule="evenodd" d="M520.161 324.808H475.889V324.281H520.161V324.808Z" fill="white" fill-opacity="0.8"/>
<rect x="480.104" y="305.835" width="4.21638" height="17.9196" fill="url(#paint0_linear)"/>
<rect x="486.429" y="312.159" width="4.21638" height="11.595" fill="url(#paint1_linear)"/>
<rect x="492.754" y="314.267" width="4.21638" height="9.48685" fill="url(#paint2_linear)"/>
<rect x="499.079" y="312.159" width="4.21638" height="11.595" fill="url(#paint3_linear)"/>
<rect x="505.403" y="316.375" width="4.21638" height="7.37866" fill="url(#paint4_linear)"/>
<rect x="511.728" y="321.646" width="4.21638" height="2.10819" fill="url(#paint5_linear)"/>
<path fill-rule="evenodd" clip-rule="evenodd" d="M472.179 312.159H471.145V311.632H472.179V312.159ZM476.314 312.159H474.246V311.632H476.314V312.159ZM480.449 312.159H478.382V311.632H480.449V312.159ZM484.585 312.159H482.517V311.632H484.585V312.159ZM488.72 312.159H486.652V311.632H488.72V312.159ZM492.855 312.159H490.788V311.632H492.855V312.159ZM496.991 312.159H494.923V311.632H496.991V312.159ZM501.126 312.159H499.058V311.632H501.126V312.159ZM505.261 312.159H503.194V311.632H505.261V312.159ZM509.396 312.159H507.329V311.632H509.396V312.159ZM513.532 312.159H511.464V311.632H513.532V312.159ZM517.667 312.159H515.599V311.632H517.667V312.159ZM521.802 312.159H519.735V311.632H521.802V312.159ZM524.904 312.159H523.87V311.632H524.904V312.159Z" fill="white" fill-opacity="0.5"/>
<rect x="139.484" y="302.017" width="162.331" height="6.32457" rx="1" fill="#C4C8CB"/>
<path fill-rule="evenodd" clip-rule="evenodd" d="M130.533 302.279H128.395C127.567 302.279 126.895 302.951 126.895 303.779V305.917C126.895 306.746 127.567 307.417 128.395 307.417H130.533C131.362 307.417 132.033 306.746 132.033 305.917V303.779C132.033 302.951 131.362 302.279 130.533 302.279ZM128.395 301.779C127.29 301.779 126.395 302.674 126.395 303.779V305.917C126.395 307.022 127.29 307.917 128.395 307.917H130.533C131.638 307.917 132.533 307.022 132.533 305.917V303.779C132.533 302.674 131.638 301.779 130.533 301.779H128.395Z" fill="#D9DBEC"/>
<path fill-rule="evenodd" clip-rule="evenodd" d="M527.234 287.106H127.009V286.606H527.234V287.106Z" fill="#D9DBEC"/>
<rect x="139.567" y="268.873" width="15.346" height="3.06921" rx="1" fill="#C4C8CB" fill-opacity="0.5"/>
<rect x="161.052" y="268.873" width="77.3441" height="3.06921" rx="1" fill="#C4C8CB" fill-opacity="0.5"/>
<rect x="244.535" y="268.873" width="49.1073" height="3.06921" rx="1" fill="#C4C8CB" fill-opacity="0.5"/>
<rect x="299.78" y="268.873" width="18.4153" height="3.06921" rx="1" fill="#408DFF"/>
<rect x="139.567" y="258.637" width="122.768" height="3.68305" rx="1" fill="#C4C8CB"/>
<rect width="55.867" height="29.5146" rx="7" transform="matrix(-1 0 0 1 526.485 243.652)" fill="#F6F9D2"/>
<mask id="mask1" mask-type="alpha" maskUnits="userSpaceOnUse" x="470" y="243" width="57" height="31">
<rect width="55.867" height="29.5146" rx="7" transform="matrix(-1 0 0 1 526.485 243.652)" fill="#F6F9D2"/>
</mask>
<g mask="url(#mask1)">
<path d="M485.241 261.262C477.875 260.525 473.169 268.525 471.736 272.618L470.202 276.608H516.547C516.035 274.05 512.741 268.935 503.656 268.935C492.3 268.935 494.449 262.182 485.241 261.262Z" fill="#6D852F"/>
<path d="M516.24 265.558H518.696V272.311H516.24V265.558Z" fill="#8C4B2B"/>
<path d="M517.468 267.093V272.311H518.696V268.934L519.923 268.321V267.4L518.696 267.86V265.558H516.24V267.093H517.468Z" fill="#66351E"/>
<path d="M513.785 265.558H521.765C520.844 257.271 519.002 253.895 517.775 250.212C515.933 254.202 514.705 257.885 513.785 265.558Z" fill="#43722E"/>
<path d="M517.774 250.212C515.933 254.202 514.705 257.885 513.784 265.558H516.547C516.342 263.512 516.301 257.578 517.774 250.212Z" fill="#84882F"/>
<path d="M495.062 261.262C487.696 260.525 482.99 268.525 481.558 272.618L480.023 276.608H526.368C525.857 274.05 522.562 268.935 513.477 268.935C502.121 268.935 504.27 262.182 495.062 261.262Z" fill="#43722E"/>
<rect width="2.45537" height="11.663" transform="matrix(-1 0 0 1 503.349 263.717)" fill="#66351E"/>
<path d="M502.122 265.251V275.38H500.894V267.093L499.666 266.479V265.558L500.894 266.019V265.251H502.122Z" fill="#8C4B2B"/>
<path d="M502.429 255.123L496.315 263.87H508.542L502.429 255.123Z" fill="#43722E"/>
<path d="M496.315 263.87L502.429 255.123L500.587 263.87H496.315Z" fill="#83892F"/>
<path d="M502.429 250.212L496.315 258.96H508.542L502.429 250.212Z" fill="#43722E"/>
<path d="M496.315 258.96L502.429 250.212L500.587 258.96H496.315Z" fill="#83892F"/>
<path d="M502.429 245.302L496.315 254.049H508.542L502.429 245.302Z" fill="#43722E"/>
<path d="M496.315 254.049L502.429 245.302L500.587 254.049H496.315Z" fill="#83892F"/>
</g>
<circle r="3.98997" transform="matrix(-1 0 0 1 483.399 251.747)" fill="#FF9852"/>
<rect x="139.484" y="245.92" width="162.331" height="6.32457" rx="1" fill="#C4C8CB"/>
<path fill-rule="evenodd" clip-rule="evenodd" d="M130.533 246.182H128.395C127.567 246.182 126.895 246.854 126.895 247.682V249.821C126.895 250.649 127.567 251.321 128.395 251.321H130.533C131.362 251.321 132.033 250.649 132.033 249.821V247.682C132.033 246.854 131.362 246.182 130.533 246.182ZM128.395 245.682C127.29 245.682 126.395 246.578 126.395 247.682V249.821C126.395 250.925 127.29 251.821 128.395 251.821H130.533C131.638 251.821 132.533 250.925 132.533 249.821V247.682C132.533 246.578 131.638 245.682 130.533 245.682H128.395Z" fill="#D9DBEC"/>
<path fill-rule="evenodd" clip-rule="evenodd" d="M527.234 231.037H127.009V230.537H527.234V231.037Z" fill="#D9DBEC"/>
<rect x="139.567" y="212.804" width="15.346" height="3.06921" rx="1" fill="#C4C8CB" fill-opacity="0.5"/>
<rect x="161.052" y="212.804" width="77.3441" height="3.06921" rx="1" fill="#C4C8CB" fill-opacity="0.5"/>
<rect x="244.535" y="212.804" width="49.1073" height="3.06921" rx="1" fill="#C4C8CB" fill-opacity="0.5"/>
<rect x="299.78" y="212.804" width="18.4153" height="3.06921" rx="1" fill="#408DFF"/>
<rect x="139.567" y="202.568" width="122.768" height="3.68305" rx="1" fill="#C4C8CB"/>
<rect x="470.619" y="187.609" width="55.867" height="29.5146" rx="7" fill="url(#paint6_linear)"/>
<path d="M517.525 198.15H506.984C506.984 196.042 508.566 194.988 511.201 194.988C511.376 194.285 512.255 192.88 514.363 192.88C516.998 192.88 517.525 195.515 517.525 198.15Z" fill="white"/>
<path d="M482.74 196.042H493.281C493.281 193.934 491.7 192.88 489.064 192.88C488.889 192.177 488.01 190.772 485.902 190.772C483.267 190.772 482.74 193.407 482.74 196.042Z" fill="white"/>
<path d="M470.618 211.854H526.485C526.485 214.764 524.125 217.124 521.215 217.124H475.889C472.978 217.124 470.618 214.764 470.618 211.854Z" fill="#0193D2"/>
<path opacity="0.5" d="M513.836 213.73C513.836 214.346 510.495 216.42 506.282 216.445C501.535 216.473 494.603 215.088 491.173 215.088C488.607 215.088 485.429 216.18 481.686 217.066C478.524 217.066 477.48 217.066 474.568 217.066C471.656 217.066 470.618 214.231 470.618 213.246C470.618 212.261 470.618 211.854 470.618 210.044C471.77 209.382 473.302 208.978 474.985 208.978C478.561 208.978 508.44 206.941 513.836 213.73Z" fill="url(#paint7_linear)"/>
<path d="M488.538 202.894C485.903 207.11 485.014 208.164 483.267 208.164C481.521 208.164 478.524 204.625 478.524 200.259C478.524 195.892 481.521 191.826 483.267 191.826C483.825 191.826 485.903 191.826 486.957 192.88C488.538 194.988 487.484 196.042 488.538 198.678C489.376 200.651 489.065 201.313 488.538 202.894Z" fill="#71A94A"/>
<path d="M504.876 204.475C504.876 206.583 504.349 207.11 502.241 208.164C501.187 209.218 500.66 210.799 499.078 210.799C495.389 208.691 495.481 203.671 495.916 202.367C496.443 200.785 498.551 196.569 500.133 197.623C500.66 198.15 500.66 199.204 501.187 199.731C503.05 201.595 504.876 201.84 504.876 204.475Z" fill="#98C150"/>
<path fill-rule="evenodd" clip-rule="evenodd" d="M483.478 196.042C483.594 196.042 483.688 196.137 483.688 196.253V212.697C483.688 212.813 483.594 212.908 483.478 212.908C483.361 212.908 483.267 212.813 483.267 212.697V196.253C483.267 196.137 483.361 196.042 483.478 196.042Z" fill="black"/>
<path fill-rule="evenodd" clip-rule="evenodd" d="M486.045 196.941C486.131 197.02 486.136 197.153 486.058 197.239L483.633 199.874C483.554 199.96 483.421 199.966 483.335 199.887C483.25 199.808 483.244 199.675 483.323 199.589L485.747 196.954C485.826 196.868 485.96 196.862 486.045 196.941Z" fill="black"/>
<path fill-rule="evenodd" clip-rule="evenodd" d="M480.911 201.158C480.825 201.236 480.82 201.37 480.898 201.455L483.323 204.091C483.402 204.176 483.535 204.182 483.621 204.103C483.706 204.024 483.712 203.891 483.633 203.805L481.209 201.17C481.13 201.084 480.997 201.079 480.911 201.158Z" fill="black"/>
<path fill-rule="evenodd" clip-rule="evenodd" d="M501.656 202.221C501.736 202.306 501.733 202.439 501.648 202.519L499.435 204.628C499.351 204.708 499.217 204.705 499.137 204.62C499.057 204.536 499.06 204.403 499.144 204.322L501.358 202.214C501.442 202.134 501.575 202.137 501.656 202.221Z" fill="black"/>
<path fill-rule="evenodd" clip-rule="evenodd" d="M499.079 212.697L499.079 201.313C499.079 201.196 499.173 201.102 499.29 201.102C499.406 201.102 499.5 201.196 499.5 201.313L499.5 212.697C499.5 212.813 499.406 212.908 499.29 212.908C499.173 212.908 499.079 212.813 499.079 212.697Z" fill="black"/>
<path fill-rule="evenodd" clip-rule="evenodd" d="M497.876 205.38C497.793 205.462 497.793 205.596 497.876 205.678L499.141 206.943C499.223 207.025 499.356 207.025 499.439 206.943C499.521 206.861 499.521 206.727 499.439 206.645L498.174 205.38C498.092 205.298 497.958 205.298 497.876 205.38Z" fill="black"/>
<rect x="139.484" y="189.851" width="162.331" height="6.32457" rx="1" fill="#C4C8CB"/>
<path fill-rule="evenodd" clip-rule="evenodd" d="M130.533 190.114H128.395C127.567 190.114 126.895 190.785 126.895 191.614V193.752C126.895 194.58 127.567 195.252 128.395 195.252H130.533C131.362 195.252 132.033 194.58 132.033 193.752V191.614C132.033 190.785 131.362 190.114 130.533 190.114ZM128.395 189.614C127.29 189.614 126.395 190.509 126.395 191.614V193.752C126.395 194.857 127.29 195.752 128.395 195.752H130.533C131.638 195.752 132.533 194.857 132.533 193.752V191.614C132.533 190.509 131.638 189.614 130.533 189.614H128.395Z" fill="#D9DBEC"/>
<path fill-rule="evenodd" clip-rule="evenodd" d="M527.234 174.763H127.009V174.263H527.234V174.763Z" fill="#D9DBEC"/>
<rect x="139.567" y="156.53" width="15.346" height="3.06921" rx="1" fill="#C4C8CB" fill-opacity="0.5"/>
<rect x="161.052" y="156.53" width="77.3441" height="3.06921" rx="1" fill="#C4C8CB" fill-opacity="0.5"/>
<rect x="244.535" y="156.53" width="49.1073" height="3.06921" rx="1" fill="#C4C8CB" fill-opacity="0.5"/>
<rect x="299.78" y="156.53" width="18.4153" height="3.06921" rx="1" fill="#408DFF"/>
<rect x="139.567" y="144.867" width="122.768" height="3.68305" rx="1" fill="#C4C8CB"/>
<rect x="470.618" y="131.129" width="55.867" height="29.5146" rx="7" fill="url(#paint8_linear)"/>
<g filter="url(#filter0_f)">
<ellipse cx="493.808" cy="144.305" rx="9.48685" ry="8.9598" fill="url(#paint9_linear)"/>
</g>
<circle cx="493.991" cy="145.386" r="6.5816" fill="url(#paint10_linear)"/>
<circle cx="496.623" cy="144.07" r="1.31632" fill="#C9D5E1"/>
<circle cx="497.282" cy="140.779" r="0.658159" fill="#C9D5E1"/>
<circle cx="490.7" cy="142.096" r="0.658159" fill="#C9D5E1"/>
<circle cx="492.017" cy="144.728" r="0.658159" fill="#CFDCE6"/>
<circle cx="494.649" cy="142.096" r="0.658159" fill="#C9D5E1"/>
<circle cx="489.055" cy="144.399" r="0.32908" fill="#CFDCE6"/>
<path d="M514.89 154.319H489.592C489.592 152.844 491.589 152.107 493.586 152.107C494.252 148.42 498.246 146.945 500.909 148.42C503.572 142.521 512.227 143.996 511.561 152.107C513.692 152.107 514.89 153.581 514.89 154.319Z" fill="url(#paint11_linear)"/>
<path d="M475.07 135.131L475.155 135.993L475.865 136.488L475.004 136.574L474.508 137.284L474.423 136.422L473.713 135.927L474.574 135.841L475.07 135.131Z" fill="#C8F1F5"/>
<path d="M510.316 135.807L511.039 136.282L511.871 136.041L511.396 136.765L511.636 137.597L510.913 137.122L510.081 137.362L510.556 136.638L510.316 135.807Z" fill="#C8F1F5"/>
<path d="M515.474 147.221L515.559 148.082L516.269 148.577L515.408 148.663L514.912 149.373L514.826 148.511L514.117 148.016L514.978 147.93L515.474 147.221Z" fill="#C8F1F5"/>
<path d="M482.28 152.48L482.745 153.21L483.602 153.331L482.873 153.797L482.752 154.654L482.286 153.924L481.429 153.803L482.158 153.337L482.28 152.48Z" fill="#C8F1F5"/>
<path opacity="0.5" d="M480.295 145.082L480.676 145.859L481.514 146.076L480.737 146.457L480.52 147.295L480.139 146.518L479.301 146.302L480.078 145.92L480.295 145.082Z" fill="#C8F1F5"/>
<path opacity="0.5" d="M520.213 135.458L520.594 136.235L521.432 136.451L520.655 136.833L520.438 137.671L520.057 136.894L519.219 136.677L519.996 136.296L520.213 135.458Z" fill="#C8F1F5"/>
<path opacity="0.5" d="M500.941 153.577L500.716 154.412L501.205 155.127L500.369 154.902L499.654 155.391L499.879 154.555L499.391 153.84L500.227 154.065L500.941 153.577Z" fill="#C8F1F5"/>
<path opacity="0.5" d="M487.57 133.88L487.345 134.716L487.833 135.431L486.997 135.206L486.283 135.694L486.507 134.858L486.019 134.144L486.855 134.369L487.57 133.88Z" fill="#C8F1F5"/>
<rect x="139.484" y="133.577" width="162.331" height="6.32457" rx="1" fill="#C4C8CB"/>
<path fill-rule="evenodd" clip-rule="evenodd" d="M130.533 133.839H128.395C127.567 133.839 126.895 134.51 126.895 135.339V137.477C126.895 138.306 127.567 138.977 128.395 138.977H130.533C131.362 138.977 132.033 138.306 132.033 137.477V135.339C132.033 134.51 131.362 133.839 130.533 133.839ZM128.395 133.339C127.29 133.339 126.395 134.234 126.395 135.339V137.477C126.395 138.582 127.29 139.477 128.395 139.477H130.533C131.638 139.477 132.533 138.582 132.533 137.477V135.339C132.533 134.234 131.638 133.339 130.533 133.339H128.395Z" fill="#D9DBEC"/>
<path fill-rule="evenodd" clip-rule="evenodd" d="M527.234 118.289H127.009V117.789H527.234V118.289Z" fill="#D9DBEC"/>
<rect x="139.567" y="100.056" width="15.346" height="3.06921" rx="1" fill="#C4C8CB" fill-opacity="0.5"/>
<rect x="161.052" y="100.056" width="77.3441" height="3.06921" rx="1" fill="#C4C8CB" fill-opacity="0.5"/>
<rect x="244.535" y="100.056" width="49.1073" height="3.06921" rx="1" fill="#C4C8CB" fill-opacity="0.5"/>
<rect x="299.204" y="99.6594" width="18.4153" height="3.06921" rx="1" fill="#408DFF"/>
<rect x="139.567" y="88.3932" width="122.768" height="3.68305" rx="1" fill="#C4C8CB"/>
<rect x="471.042" y="74.8887" width="55.867" height="29.5146" rx="7" fill="#EB4A4F"/>
<circle cx="499.693" cy="89.4051" r="10.5409" fill="url(#paint12_linear)"/>
<path d="M471.232 95.7299C471.232 95.7299 478.963 93.6218 485.99 95.7299C489.307 96.7251 504.436 95.2029 510.761 94.6758C517.613 94.1048 527.099 95.7299 527.099 95.7299V97.1626C527.099 101.029 523.965 104.163 520.099 104.163H478.232C474.366 104.163 471.232 101.029 471.232 97.1626V95.7299Z" fill="#0194D2"/>
<rect x="139.484" y="77.1031" width="162.331" height="6.32457" rx="1" fill="#C4C8CB"/>
<path fill-rule="evenodd" clip-rule="evenodd" d="M130.533 77.3652H128.395C127.567 77.3652 126.895 78.0368 126.895 78.8652V81.0037C126.895 81.8321 127.567 82.5037 128.395 82.5037H130.533C131.362 82.5037 132.033 81.8321 132.033 81.0037V78.8652C132.033 78.0368 131.362 77.3652 130.533 77.3652ZM128.395 76.8652C127.29 76.8652 126.395 77.7607 126.395 78.8652V81.0037C126.395 82.1082 127.29 83.0037 128.395 83.0037H130.533C131.638 83.0037 132.533 82.1082 132.533 81.0037V78.8652C132.533 77.7607 131.638 76.8652 130.533 76.8652H128.395Z" fill="#D9DBEC"/>
<rect x="120.07" y="22.7435" width="53.6091" height="6.32457" rx="1" fill="#889197"/>
<rect x="24.7793" y="329.054" width="54.6319" height="3.06921" rx="1" fill="#889197"/>
<rect x="24.7793" y="335.192" width="15.346" height="2.45537" rx="1" fill="#C4C8CB"/>
<rect x="5.75" y="325.336" width="14.7573" height="14.7573" rx="2" fill="#C4C8CB"/>
<path d="M100.02 333.382C100.08 333.442 100.08 333.54 100.02 333.6L99.6223 333.996C99.5623 334.056 99.4664 334.056 99.4065 333.996L98.1332 332.723L96.86 333.996C96.8 334.056 96.7041 334.056 96.6442 333.996L96.2461 333.6C96.1862 333.54 96.1862 333.442 96.2461 333.382L98.0253 331.605C98.0853 331.545 98.1812 331.545 98.2411 331.605L100.02 333.382Z" fill="#C4C8CB"/>
<rect x="25.3926" y="224.701" width="54.8129" height="3.16228" rx="1" fill="#C4C8CB"/>
<rect x="12.709" y="223.473" width="6.13842" height="6.13842" rx="3.06921" fill="#9CA3A9" fill-opacity="0.5"/>
<rect x="6.36377" y="210.583" width="44.1966" height="3.06921" rx="1" fill="#889197"/>
<rect x="25.3931" y="87.2002" width="54.8129" height="3.16228" rx="1" fill="#C4C8CB"/>
<rect x="12.709" y="85.9725" width="6.13842" height="6.13842" rx="3.06921" fill="#9CA3A9" fill-opacity="0.5"/>
<rect x="25.3931" y="102.546" width="54.8129" height="3.16228" rx="1" fill="#C4C8CB"/>
<rect x="4.52246" y="112.368" width="99.4424" height="14.7322" rx="3" fill="#F1F4F9"/>
<rect x="25.3931" y="117.892" width="54.8129" height="3.16228" rx="1" fill="#889197"/>
<rect x="12.709" y="101.318" width="6.13842" height="6.13842" rx="3.06921" fill="#9CA3A9" fill-opacity="0.5"/>
<rect x="13.1685" y="116.485" width="6.13842" height="6.13842" rx="3.06921" fill="#9CA3A9" fill-opacity="0.5"/>
<rect x="25.3931" y="133.238" width="36.2167" height="3.06921" rx="1" fill="#C4C8CB"/>
<rect x="25.3931" y="148.584" width="54.8129" height="3.16228" rx="1" fill="#C4C8CB"/>
<rect x="25.3931" y="156.564" width="36.2167" height="3.06921" rx="1" fill="#C4C8CB"/>
<rect x="12.709" y="147.357" width="6.13842" height="6.13842" rx="3.06921" fill="#9CA3A9" fill-opacity="0.5"/>
<rect x="25.3931" y="173.138" width="54.8129" height="3.16228" rx="1" fill="#C4C8CB"/>
<rect x="12.709" y="171.91" width="6.13842" height="6.13842" rx="3.06921" fill="#9CA3A9" fill-opacity="0.5"/>
<rect x="25.3931" y="188.484" width="54.8129" height="3.16228" rx="1" fill="#C4C8CB"/>
<rect x="12.709" y="187.256" width="6.13842" height="6.13842" rx="3.06921" fill="#9CA3A9" fill-opacity="0.5"/>
<rect x="6.36377" y="73.0819" width="19.6429" height="3.06921" rx="1" fill="#889197"/>
<rect x="25.3926" y="50.9835" width="54.8129" height="3.16228" rx="1" fill="#C4C8CB"/>
<rect x="12.709" y="49.7559" width="6.13842" height="6.13842" rx="3.06921" fill="#9CA3A9" fill-opacity="0.5"/>
<rect x="6.36377" y="36.8652" width="35.6028" height="3.06921" rx="1" fill="#889197"/>
<rect x="25.4683" y="9.10486" width="33.3009" height="3.16228" rx="1" fill="#889197"/>
<rect x="25.3931" y="15.3808" width="23.326" height="3.06921" rx="1" fill="#C4C8CB"/>
<rect x="6.36035" y="5.52002" width="14.76" height="14.76" rx="2" fill="#0472FF"/>
<g filter="url(#filter1_d)">
<path fill-rule="evenodd" clip-rule="evenodd" d="M15.852 12.4686L15.8501 12.4687L15.8482 12.4689C15.7747 12.4776 15.4041 12.5224 15.0522 12.565L14.3054 12.6554L14.0219 13.5827L14.1657 13.5655C14.8612 13.4824 15.5919 13.3943 16.1487 13.3269C16.4271 13.2933 16.662 13.2648 16.8273 13.2447L16.972 13.2272C16.9568 13.3815 16.9396 13.5358 16.9223 13.6908L16.9223 13.6912C16.9035 13.8595 16.8847 14.0286 16.8684 14.1981C16.1195 14.2841 14.5138 14.4764 13.8167 14.5743L13.7557 14.5829L13.7389 14.6422C13.6614 14.9172 13.5789 15.1881 13.4962 15.4595L13.494 15.4668C13.4107 15.7403 13.3273 16.0144 13.2493 16.292C13.0259 17.0871 12.2936 17.6704 11.4248 17.6704C10.3782 17.6704 9.53027 16.8243 9.53027 15.7811C9.53027 14.7419 10.2968 13.9794 11.4321 13.8915L11.434 13.8914L11.4359 13.8911C11.5094 13.8824 11.8825 13.8374 12.237 13.7945L12.9896 13.7034L13.2603 12.7776L13.1184 12.7946C12.4229 12.8777 11.7278 12.9607 11.2066 13.023L10.4542 13.1129C10.4699 12.954 10.4915 12.7512 10.5115 12.5652C10.5182 12.503 10.5248 12.4426 10.5308 12.3864L10.5309 12.3861C10.5415 12.2877 10.5508 12.202 10.5572 12.1418C11.2968 12.0571 12.7702 11.8837 13.4675 11.7857L13.5285 11.7772L13.5452 11.7179C13.6227 11.4428 13.7052 11.1719 13.7879 10.9005L13.7901 10.8933C13.8734 10.6198 13.9568 10.3457 14.0348 10.0681C14.2582 9.27295 14.9905 8.6897 15.8593 8.6897C16.9059 8.6897 17.7538 9.5358 17.7538 10.579C17.7538 11.6182 16.9874 12.3807 15.852 12.4686ZM14.6116 11.5254L14.574 11.6622L14.7147 11.644C14.8325 11.6288 14.9683 11.6163 15.1132 11.6029L15.1769 11.597C15.3447 11.5813 15.5218 11.564 15.69 11.54C15.8578 11.5161 16.0202 11.485 16.1581 11.4409C16.2936 11.3976 16.4181 11.338 16.4977 11.249C16.8608 10.8434 16.8803 10.2701 16.5143 9.90508C16.1501 9.54183 15.499 9.53526 15.0986 9.99054C15.0458 10.0505 15.0006 10.1497 14.9604 10.2583C14.9188 10.3707 14.8779 10.5069 14.8382 10.6514C14.7984 10.7961 14.7593 10.9511 14.7214 11.1013L14.7185 11.1127C14.6816 11.2593 14.6459 11.4008 14.6116 11.5254ZM12.6725 14.8347L12.7101 14.6979L12.5694 14.716C12.4516 14.7312 12.3159 14.7438 12.1709 14.7572L12.1072 14.7631C11.9394 14.7787 11.7624 14.796 11.5941 14.82C11.4263 14.844 11.2639 14.8751 11.126 14.9191C10.9905 14.9624 10.866 15.0221 10.7864 15.1111C10.4233 15.5166 10.4038 16.09 10.7698 16.455C11.134 16.8182 11.7851 16.8248 12.1855 16.3695C12.2383 16.3096 12.2835 16.2104 12.3237 16.1017C12.3653 15.9893 12.4062 15.8531 12.4459 15.7087C12.4857 15.564 12.5248 15.409 12.5627 15.2588L12.5656 15.2474C12.6025 15.1008 12.6382 14.9593 12.6725 14.8347Z" fill="white"/>
</g>
</g>
<defs>
<filter id="filter0_f" x="478.321" y="129.345" width="30.9737" height="29.9196" filterUnits="userSpaceOnUse" color-interpolation-filters="sRGB">
<feFlood flood-opacity="0" result="BackgroundImageFix"/>
<feBlend mode="normal" in="SourceGraphic" in2="BackgroundImageFix" result="shape"/>
<feGaussianBlur stdDeviation="3" result="effect1_foregroundBlur"/>
</filter>
<filter id="filter1_d" x="8.53027" y="8.6897" width="10.2236" height="10.9807" filterUnits="userSpaceOnUse" color-interpolation-filters="sRGB">
<feFlood flood-opacity="0" result="BackgroundImageFix"/>
<feColorMatrix in="SourceAlpha" type="matrix" values="0 0 0 0 0 0 0 0 0 0 0 0 0 0 0 0 0 0 127 0"/>
<feOffset dy="1"/>
<feGaussianBlur stdDeviation="0.5"/>
<feColorMatrix type="matrix" values="0 0 0 0 0 0 0 0 0 0 0 0 0 0 0 0 0 0 0.1 0"/>
<feBlend mode="normal" in2="BackgroundImageFix" result="effect1_dropShadow"/>
<feBlend mode="normal" in="SourceGraphic" in2="effect1_dropShadow" result="shape"/>
</filter>
<linearGradient id="paint0_linear" x1="482.213" y1="305.835" x2="482.213" y2="323.754" gradientUnits="userSpaceOnUse">
<stop stop-color="#FFA807"/>
<stop offset="1" stop-color="#E239DE"/>
</linearGradient>
<linearGradient id="paint1_linear" x1="488.537" y1="312.159" x2="488.537" y2="323.754" gradientUnits="userSpaceOnUse">
<stop stop-color="#FFA807"/>
<stop offset="1" stop-color="#E239DE"/>
</linearGradient>
<linearGradient id="paint2_linear" x1="494.862" y1="314.267" x2="494.862" y2="323.754" gradientUnits="userSpaceOnUse">
<stop stop-color="#FFA807"/>
<stop offset="1" stop-color="#E239DE"/>
</linearGradient>
<linearGradient id="paint3_linear" x1="501.187" y1="312.159" x2="501.187" y2="323.754" gradientUnits="userSpaceOnUse">
<stop stop-color="#FFA807"/>
<stop offset="1" stop-color="#E239DE"/>
</linearGradient>
<linearGradient id="paint4_linear" x1="507.511" y1="316.375" x2="507.511" y2="323.754" gradientUnits="userSpaceOnUse">
<stop stop-color="#FFA807"/>
<stop offset="1" stop-color="#E239DE"/>
</linearGradient>
<linearGradient id="paint5_linear" x1="513.836" y1="321.646" x2="513.836" y2="323.754" gradientUnits="userSpaceOnUse">
<stop stop-color="#FFA807"/>
<stop offset="1" stop-color="#E239DE"/>
</linearGradient>
<linearGradient id="paint6_linear" x1="498.552" y1="187.609" x2="498.552" y2="217.124" gradientUnits="userSpaceOnUse">
<stop offset="0.572917" stop-color="#CFFCFF"/>
<stop offset="1" stop-color="#5EC5CC"/>
</linearGradient>
<linearGradient id="paint7_linear" x1="492.227" y1="208.691" x2="492.227" y2="217.066" gradientUnits="userSpaceOnUse">
<stop stop-color="#59712F"/>
<stop offset="1" stop-color="#7D974F"/>
</linearGradient>
<linearGradient id="paint8_linear" x1="498.552" y1="131.129" x2="498.552" y2="160.643" gradientUnits="userSpaceOnUse">
<stop stop-color="#0F328C"/>
<stop offset="1" stop-color="#81398D"/>
</linearGradient>
<linearGradient id="paint9_linear" x1="493.808" y1="135.345" x2="493.808" y2="153.265" gradientUnits="userSpaceOnUse">
<stop stop-color="#EAF3EE"/>
<stop offset="1" stop-color="#9CAED6"/>
</linearGradient>
<linearGradient id="paint10_linear" x1="493.991" y1="138.805" x2="493.991" y2="151.968" gradientUnits="userSpaceOnUse">
<stop stop-color="#EAF3EE"/>
<stop offset="1" stop-color="#9CAED6"/>
</linearGradient>
<linearGradient id="paint11_linear" x1="502.241" y1="144.832" x2="502.241" y2="154.319" gradientUnits="userSpaceOnUse">
<stop stop-color="#8CD2F6"/>
<stop offset="1" stop-color="#6F77E6"/>
</linearGradient>
<linearGradient id="paint12_linear" x1="499.693" y1="78.8641" x2="499.693" y2="99.946" gradientUnits="userSpaceOnUse">
<stop stop-color="#F4AE34"/>
<stop offset="1" stop-color="#F4AE34" stop-opacity="0"/>
</linearGradient>
</defs>
</svg>
