<svg width="391" height="284" viewBox="0 0 391 284" fill="none" xmlns="http://www.w3.org/2000/svg">
<g filter="url(#filter0_d)">
<rect x="18" y="13" width="418" height="248" rx="4" fill="#1B223C"/>
</g>
<path opacity="0.7" d="M39.574 36.126H41.198L42.528 39.696C42.6587 40.0413 42.7753 40.3867 42.878 40.732C42.99 41.068 43.102 41.4133 43.214 41.768H43.27C43.382 41.4133 43.4893 41.068 43.592 40.732C43.704 40.3867 43.8253 40.0413 43.956 39.696L45.286 36.126H46.826L44.152 43H42.318L39.574 36.126ZM48.3885 41.152C48.3885 40.7693 48.4772 40.4333 48.6545 40.144C48.8319 39.8453 49.1119 39.5933 49.4945 39.388C49.8772 39.1827 50.3672 39.0147 50.9645 38.884C51.5619 38.7533 52.2852 38.66 53.1345 38.604C53.1065 38.212 52.9665 37.89 52.7145 37.638C52.4625 37.386 52.0565 37.26 51.4965 37.26C51.1045 37.26 50.7172 37.3347 50.3345 37.484C49.9612 37.624 49.5972 37.792 49.2425 37.988L48.6545 36.91C49.0745 36.6673 49.5552 36.448 50.0965 36.252C50.6379 36.056 51.2025 35.958 51.7905 35.958C52.7519 35.958 53.4845 36.2147 53.9885 36.728C54.4925 37.232 54.7445 37.9647 54.7445 38.926V43H53.4285L53.3025 42.146H53.2605C52.8965 42.426 52.4905 42.6687 52.0425 42.874C51.6039 43.07 51.1512 43.168 50.6845 43.168C50.3485 43.168 50.0405 43.1167 49.7605 43.014C49.4805 42.9207 49.2379 42.7853 49.0325 42.608C48.8272 42.4307 48.6685 42.2207 48.5565 41.978C48.4445 41.726 48.3885 41.4507 48.3885 41.152ZM49.9425 41.026C49.9425 41.334 50.0592 41.558 50.2925 41.698C50.5352 41.838 50.8292 41.908 51.1745 41.908C51.5199 41.908 51.8512 41.8333 52.1685 41.684C52.4952 41.5253 52.8172 41.32 53.1345 41.068V39.612C52.5185 39.6587 52.0052 39.724 51.5945 39.808C51.1839 39.8827 50.8572 39.9807 50.6145 40.102C50.3719 40.2233 50.1992 40.3633 50.0965 40.522C49.9939 40.6713 49.9425 40.8393 49.9425 41.026ZM57.6091 36.126H58.9391L59.0791 37.68H59.1211C59.4757 37.12 59.9004 36.6953 60.3951 36.406C60.8991 36.1073 61.4497 35.958 62.0471 35.958C62.3271 35.958 62.5651 35.9813 62.7611 36.028C62.9664 36.0653 63.1717 36.1353 63.3771 36.238L63.0411 37.596C62.8171 37.5213 62.6164 37.47 62.4391 37.442C62.2711 37.4047 62.0564 37.386 61.7951 37.386C61.3191 37.386 60.8617 37.5213 60.4231 37.792C59.9844 38.0627 59.5877 38.534 59.2331 39.206V43H57.6091V36.126ZM73.5721 41.152C73.5721 40.7693 73.6608 40.4333 73.8381 40.144C74.0155 39.8453 74.2955 39.5933 74.6781 39.388C75.0608 39.1827 75.5508 39.0147 76.1481 38.884C76.7455 38.7533 77.4688 38.66 78.3181 38.604C78.2901 38.212 78.1501 37.89 77.8981 37.638C77.6461 37.386 77.2401 37.26 76.6801 37.26C76.2881 37.26 75.9008 37.3347 75.5181 37.484C75.1448 37.624 74.7808 37.792 74.4261 37.988L73.8381 36.91C74.2581 36.6673 74.7388 36.448 75.2801 36.252C75.8215 36.056 76.3861 35.958 76.9741 35.958C77.9355 35.958 78.6681 36.2147 79.1721 36.728C79.6761 37.232 79.9281 37.9647 79.9281 38.926V43H78.6121L78.4861 42.146H78.4441C78.0801 42.426 77.6741 42.6687 77.2261 42.874C76.7875 43.07 76.3348 43.168 75.8681 43.168C75.5321 43.168 75.2241 43.1167 74.9441 43.014C74.6641 42.9207 74.4215 42.7853 74.2161 42.608C74.0108 42.4307 73.8521 42.2207 73.7401 41.978C73.6281 41.726 73.5721 41.4507 73.5721 41.152ZM75.1261 41.026C75.1261 41.334 75.2428 41.558 75.4761 41.698C75.7188 41.838 76.0128 41.908 76.3581 41.908C76.7035 41.908 77.0348 41.8333 77.3521 41.684C77.6788 41.5253 78.0008 41.32 78.3181 41.068V39.612C77.7021 39.6587 77.1888 39.724 76.7781 39.808C76.3675 39.8827 76.0408 39.9807 75.7981 40.102C75.5555 40.2233 75.3828 40.3633 75.2801 40.522C75.1775 40.6713 75.1261 40.8393 75.1261 41.026ZM83.7447 43.56V45.716H82.1207V36.126H83.4507L83.5767 36.91H83.6187C83.9173 36.6393 84.258 36.4153 84.6407 36.238C85.0327 36.0513 85.4247 35.958 85.8167 35.958C86.2647 35.958 86.6613 36.042 87.0067 36.21C87.3613 36.3687 87.6553 36.602 87.8887 36.91C88.1313 37.218 88.3133 37.5867 88.4347 38.016C88.5653 38.4453 88.6307 38.926 88.6307 39.458C88.6307 40.046 88.5467 40.5733 88.3787 41.04C88.2107 41.4973 87.982 41.8847 87.6927 42.202C87.4127 42.51 87.086 42.748 86.7127 42.916C86.3487 43.084 85.9707 43.168 85.5787 43.168C85.2613 43.168 84.9347 43.098 84.5987 42.958C84.272 42.818 83.9687 42.6173 83.6887 42.356L83.7447 43.56ZM83.7447 41.208C83.9967 41.4413 84.2533 41.6047 84.5147 41.698C84.7853 41.7913 85.028 41.838 85.2427 41.838C85.7373 41.838 86.148 41.642 86.4747 41.25C86.8013 40.8487 86.9647 40.256 86.9647 39.472C86.9647 38.7813 86.8387 38.2447 86.5867 37.862C86.3347 37.4793 85.9287 37.288 85.3687 37.288C85.1073 37.288 84.8413 37.3533 84.5707 37.484C84.3 37.6147 84.0247 37.8247 83.7447 38.114V41.208ZM92.1392 43.56V45.716H90.5152V36.126H91.8452L91.9712 36.91H92.0132C92.3119 36.6393 92.6525 36.4153 93.0352 36.238C93.4272 36.0513 93.8192 35.958 94.2112 35.958C94.6592 35.958 95.0559 36.042 95.4012 36.21C95.7559 36.3687 96.0499 36.602 96.2832 36.91C96.5259 37.218 96.7079 37.5867 96.8292 38.016C96.9599 38.4453 97.0252 38.926 97.0252 39.458C97.0252 40.046 96.9412 40.5733 96.7732 41.04C96.6052 41.4973 96.3765 41.8847 96.0872 42.202C95.8072 42.51 95.4805 42.748 95.1072 42.916C94.7432 43.084 94.3652 43.168 93.9732 43.168C93.6559 43.168 93.3292 43.098 92.9932 42.958C92.6665 42.818 92.3632 42.6173 92.0832 42.356L92.1392 43.56ZM92.1392 41.208C92.3912 41.4413 92.6479 41.6047 92.9092 41.698C93.1799 41.7913 93.4225 41.838 93.6372 41.838C94.1319 41.838 94.5425 41.642 94.8692 41.25C95.1959 40.8487 95.3592 40.256 95.3592 39.472C95.3592 38.7813 95.2332 38.2447 94.9812 37.862C94.7292 37.4793 94.3232 37.288 93.7632 37.288C93.5019 37.288 93.2359 37.3533 92.9652 37.484C92.6945 37.6147 92.4192 37.8247 92.1392 38.114V41.208ZM107.248 36.224H113.464V37.4H107.248V36.224ZM107.248 39.346H113.464V40.522H107.248V39.346ZM124.093 36.126H125.423L125.549 37.162H125.605C125.932 36.8353 126.291 36.5553 126.683 36.322C127.085 36.0793 127.551 35.958 128.083 35.958C128.877 35.958 129.46 36.2007 129.833 36.686C130.207 37.162 130.393 37.848 130.393 38.744V43H128.769V38.954C128.769 38.394 128.671 37.988 128.475 37.736C128.289 37.4747 127.957 37.344 127.481 37.344C127.145 37.344 126.847 37.4233 126.585 37.582C126.324 37.7407 126.035 37.9833 125.717 38.31V43H124.093V36.126ZM132.208 39.57C132.208 39.01 132.306 38.506 132.502 38.058C132.707 37.61 132.973 37.232 133.3 36.924C133.627 36.6067 134 36.3687 134.42 36.21C134.849 36.042 135.288 35.958 135.736 35.958C136.249 35.958 136.702 36.042 137.094 36.21C137.495 36.3687 137.831 36.5927 138.102 36.882C138.373 37.162 138.578 37.5027 138.718 37.904C138.858 38.3053 138.928 38.744 138.928 39.22C138.928 39.3787 138.919 39.528 138.9 39.668C138.891 39.808 138.877 39.92 138.858 40.004H133.86C133.916 40.62 134.159 41.096 134.588 41.432C135.017 41.7587 135.545 41.922 136.17 41.922C136.525 41.922 136.856 41.8753 137.164 41.782C137.472 41.6793 137.785 41.5393 138.102 41.362L138.648 42.37C138.275 42.6033 137.859 42.7947 137.402 42.944C136.945 43.0933 136.464 43.168 135.96 43.168C135.437 43.168 134.947 43.0887 134.49 42.93C134.033 42.762 133.636 42.524 133.3 42.216C132.964 41.908 132.698 41.5347 132.502 41.096C132.306 40.648 132.208 40.1393 132.208 39.57ZM137.444 38.912C137.444 38.38 137.304 37.9647 137.024 37.666C136.744 37.358 136.329 37.204 135.778 37.204C135.311 37.204 134.896 37.3487 134.532 37.638C134.168 37.9273 133.939 38.352 133.846 38.912H137.444ZM139.818 36.126H141.414L142.044 39.696C142.1 40.0227 142.147 40.3493 142.184 40.676C142.231 41.0027 142.278 41.334 142.324 41.67H142.38C142.427 41.334 142.478 41.0027 142.534 40.676C142.59 40.3493 142.656 40.0227 142.73 39.696L143.374 36.798H144.578L145.222 39.696C145.297 40.0227 145.362 40.3493 145.418 40.676C145.484 41.0027 145.544 41.334 145.6 41.67H145.656C145.712 41.334 145.759 41.0027 145.796 40.676C145.843 40.3493 145.89 40.0227 145.936 39.696L146.566 36.126H148.05L146.776 43H144.886L144.284 40.13C144.228 39.8033 144.172 39.4767 144.116 39.15C144.07 38.8233 144.018 38.4827 143.962 38.128H143.906C143.86 38.3987 143.813 38.6927 143.766 39.01C143.729 39.318 143.673 39.696 143.598 40.144L143.01 43H141.148L139.818 36.126ZM158.217 33.844H164.041V35.216H159.841V37.806H163.411V39.178H159.841V43H158.217V33.844ZM165.912 41.152C165.912 40.7693 166.001 40.4333 166.178 40.144C166.355 39.8453 166.635 39.5933 167.018 39.388C167.401 39.1827 167.891 39.0147 168.488 38.884C169.085 38.7533 169.809 38.66 170.658 38.604C170.63 38.212 170.49 37.89 170.238 37.638C169.986 37.386 169.58 37.26 169.02 37.26C168.628 37.26 168.241 37.3347 167.858 37.484C167.485 37.624 167.121 37.792 166.766 37.988L166.178 36.91C166.598 36.6673 167.079 36.448 167.62 36.252C168.161 36.056 168.726 35.958 169.314 35.958C170.275 35.958 171.008 36.2147 171.512 36.728C172.016 37.232 172.268 37.9647 172.268 38.926V43H170.952L170.826 42.146H170.784C170.42 42.426 170.014 42.6687 169.566 42.874C169.127 43.07 168.675 43.168 168.208 43.168C167.872 43.168 167.564 43.1167 167.284 43.014C167.004 42.9207 166.761 42.7853 166.556 42.608C166.351 42.4307 166.192 42.2207 166.08 41.978C165.968 41.726 165.912 41.4507 165.912 41.152ZM167.466 41.026C167.466 41.334 167.583 41.558 167.816 41.698C168.059 41.838 168.353 41.908 168.698 41.908C169.043 41.908 169.375 41.8333 169.692 41.684C170.019 41.5253 170.341 41.32 170.658 41.068V39.612C170.042 39.6587 169.529 39.724 169.118 39.808C168.707 39.8827 168.381 39.9807 168.138 40.102C167.895 40.2233 167.723 40.3633 167.62 40.522C167.517 40.6713 167.466 40.8393 167.466 41.026ZM174.335 39.57C174.335 39.0007 174.437 38.492 174.643 38.044C174.857 37.596 175.142 37.218 175.497 36.91C175.851 36.602 176.267 36.3687 176.743 36.21C177.219 36.042 177.718 35.958 178.241 35.958C178.801 35.958 179.291 36.0513 179.711 36.238C180.14 36.4247 180.499 36.6533 180.789 36.924L180.019 37.932C179.748 37.7173 179.473 37.554 179.193 37.442C178.922 37.33 178.633 37.274 178.325 37.274C177.634 37.274 177.074 37.484 176.645 37.904C176.215 38.3147 176.001 38.87 176.001 39.57C176.001 39.9153 176.057 40.228 176.169 40.508C176.281 40.788 176.435 41.0307 176.631 41.236C176.836 41.432 177.079 41.586 177.359 41.698C177.639 41.8007 177.947 41.852 178.283 41.852C178.675 41.852 179.029 41.7773 179.347 41.628C179.673 41.4787 179.972 41.3013 180.243 41.096L180.915 42.132C180.523 42.4773 180.084 42.7387 179.599 42.916C179.113 43.084 178.623 43.168 178.129 43.168C177.587 43.168 177.083 43.0887 176.617 42.93C176.159 42.7713 175.758 42.538 175.413 42.23C175.077 41.922 174.811 41.544 174.615 41.096C174.428 40.648 174.335 40.1393 174.335 39.57ZM184.367 37.4H182.533V36.196L184.437 36.126L184.647 34.25H185.977V36.126H189.113V37.4H185.977V40.228C185.977 40.7973 186.094 41.2173 186.327 41.488C186.56 41.7493 186.971 41.88 187.559 41.88C187.858 41.88 188.128 41.8567 188.371 41.81C188.614 41.754 188.847 41.684 189.071 41.6L189.379 42.776C189.071 42.8787 188.73 42.9673 188.357 43.042C187.984 43.126 187.587 43.168 187.167 43.168C186.644 43.168 186.206 43.098 185.851 42.958C185.496 42.818 185.207 42.622 184.983 42.37C184.768 42.1087 184.61 41.796 184.507 41.432C184.414 41.068 184.367 40.6667 184.367 40.228V37.4ZM190.844 39.57C190.844 39.0007 190.937 38.492 191.124 38.044C191.32 37.596 191.576 37.218 191.894 36.91C192.211 36.602 192.58 36.3687 193 36.21C193.42 36.042 193.854 35.958 194.302 35.958C194.75 35.958 195.184 36.042 195.604 36.21C196.024 36.3687 196.392 36.602 196.71 36.91C197.027 37.218 197.279 37.596 197.466 38.044C197.662 38.492 197.76 39.0007 197.76 39.57C197.76 40.1393 197.662 40.648 197.466 41.096C197.279 41.544 197.027 41.922 196.71 42.23C196.392 42.538 196.024 42.7713 195.604 42.93C195.184 43.0887 194.75 43.168 194.302 43.168C193.854 43.168 193.42 43.0887 193 42.93C192.58 42.7713 192.211 42.538 191.894 42.23C191.576 41.922 191.32 41.544 191.124 41.096C190.937 40.648 190.844 40.1393 190.844 39.57ZM192.51 39.57C192.51 40.2607 192.668 40.816 192.986 41.236C193.303 41.6467 193.742 41.852 194.302 41.852C194.862 41.852 195.3 41.6467 195.618 41.236C195.935 40.816 196.094 40.2607 196.094 39.57C196.094 38.87 195.935 38.3147 195.618 37.904C195.3 37.484 194.862 37.274 194.302 37.274C193.742 37.274 193.303 37.484 192.986 37.904C192.668 38.3147 192.51 38.87 192.51 39.57ZM200.316 36.126H201.646L201.786 37.68H201.828C202.183 37.12 202.607 36.6953 203.102 36.406C203.606 36.1073 204.157 35.958 204.754 35.958C205.034 35.958 205.272 35.9813 205.468 36.028C205.673 36.0653 205.879 36.1353 206.084 36.238L205.748 37.596C205.524 37.5213 205.323 37.47 205.146 37.442C204.978 37.4047 204.763 37.386 204.502 37.386C204.026 37.386 203.569 37.5213 203.13 37.792C202.691 38.0627 202.295 38.534 201.94 39.206V43H200.316V36.126ZM212.659 45.478C211.716 44.694 210.969 43.77 210.419 42.706C209.877 41.642 209.607 40.4427 209.607 39.108C209.607 37.7733 209.877 36.574 210.419 35.51C210.969 34.446 211.716 33.522 212.659 32.738L213.555 33.48C212.668 34.2827 212.019 35.1367 211.609 36.042C211.198 36.9473 210.993 37.9693 210.993 39.108C210.993 40.2467 211.198 41.2687 211.609 42.174C212.019 43.0793 212.668 43.9333 213.555 44.736L212.659 45.478ZM218.701 43.196C218.701 42.944 218.706 42.7153 218.715 42.51C218.734 42.2953 218.752 42.09 218.771 41.894C218.79 41.698 218.804 41.502 218.813 41.306C218.832 41.1007 218.841 40.8813 218.841 40.648C218.841 40.5267 218.813 40.4053 218.757 40.284C218.701 40.1533 218.598 40.0413 218.449 39.948C218.3 39.8453 218.094 39.7613 217.833 39.696C217.581 39.6307 217.259 39.598 216.867 39.598V38.618C217.259 38.618 217.581 38.5853 217.833 38.52C218.094 38.4547 218.3 38.3753 218.449 38.282C218.598 38.1793 218.701 38.0673 218.757 37.946C218.813 37.8247 218.841 37.6987 218.841 37.568C218.841 37.1293 218.818 36.7187 218.771 36.336C218.724 35.944 218.701 35.5053 218.701 35.02C218.701 34.6467 218.752 34.3387 218.855 34.096C218.958 33.844 219.116 33.6433 219.331 33.494C219.546 33.3447 219.816 33.242 220.143 33.186C220.47 33.1207 220.857 33.088 221.305 33.088H222.271V33.97H221.627C221.3 33.97 221.034 33.9887 220.829 34.026C220.624 34.0633 220.46 34.1287 220.339 34.222C220.227 34.306 220.148 34.4227 220.101 34.572C220.064 34.712 220.045 34.8847 220.045 35.09C220.045 35.482 220.054 35.874 220.073 36.266C220.101 36.658 220.115 37.0687 220.115 37.498C220.115 37.9927 220.017 38.3613 219.821 38.604C219.625 38.8373 219.28 38.996 218.785 39.08V39.136C219.28 39.22 219.625 39.3833 219.821 39.626C220.017 39.8593 220.115 40.2233 220.115 40.718C220.115 41.166 220.101 41.5767 220.073 41.95C220.054 42.3233 220.045 42.7153 220.045 43.126C220.045 43.3407 220.064 43.518 220.101 43.658C220.148 43.798 220.227 43.91 220.339 43.994C220.46 44.0873 220.624 44.1527 220.829 44.19C221.034 44.2273 221.3 44.246 221.627 44.246H222.271V45.128H221.305C220.857 45.128 220.47 45.0953 220.143 45.03C219.816 44.974 219.546 44.8713 219.331 44.722C219.116 44.5727 218.958 44.372 218.855 44.12C218.752 43.8773 218.701 43.5693 218.701 43.196ZM56.6571 63.57C56.6571 63.01 56.7551 62.506 56.9511 62.058C57.1564 61.61 57.4224 61.232 57.7491 60.924C58.0757 60.6067 58.4491 60.3687 58.8691 60.21C59.2984 60.042 59.7371 59.958 60.1851 59.958C60.6984 59.958 61.1511 60.042 61.5431 60.21C61.9444 60.3687 62.2804 60.5927 62.5511 60.882C62.8217 61.162 63.0271 61.5027 63.1671 61.904C63.3071 62.3053 63.3771 62.744 63.3771 63.22C63.3771 63.3787 63.3677 63.528 63.3491 63.668C63.3397 63.808 63.3257 63.92 63.3071 64.004H58.3091C58.3651 64.62 58.6077 65.096 59.0371 65.432C59.4664 65.7587 59.9937 65.922 60.6191 65.922C60.9737 65.922 61.3051 65.8753 61.6131 65.782C61.9211 65.6793 62.2337 65.5393 62.5511 65.362L63.0971 66.37C62.7237 66.6033 62.3084 66.7947 61.8511 66.944C61.3937 67.0933 60.9131 67.168 60.4091 67.168C59.8864 67.168 59.3964 67.0887 58.9391 66.93C58.4817 66.762 58.0851 66.524 57.7491 66.216C57.4131 65.908 57.1471 65.5347 56.9511 65.096C56.7551 64.648 56.6571 64.1393 56.6571 63.57ZM61.8931 62.912C61.8931 62.38 61.7531 61.9647 61.4731 61.666C61.1931 61.358 60.7777 61.204 60.2271 61.204C59.7604 61.204 59.3451 61.3487 58.9811 61.638C58.6171 61.9273 58.3884 62.352 58.2951 62.912H61.8931ZM65.1776 57.116H68.9576V64.578C68.9576 65.0447 69.0743 65.376 69.3076 65.572C69.5409 65.7587 69.8349 65.852 70.1896 65.852C70.5256 65.852 70.9176 65.7633 71.3656 65.586L71.7436 66.776C71.4169 66.888 71.1089 66.9813 70.8196 67.056C70.5396 67.1307 70.1989 67.168 69.7976 67.168C68.9856 67.168 68.3743 66.9347 67.9636 66.468C67.5529 66.0013 67.3476 65.3433 67.3476 64.494V58.39H65.1776V57.116ZM75.3921 60.994C75.3921 60.5833 75.5228 60.2473 75.7841 59.986C76.0455 59.7153 76.3768 59.58 76.7781 59.58C77.1795 59.58 77.5108 59.7153 77.7721 59.986C78.0335 60.2473 78.1641 60.5833 78.1641 60.994C78.1641 61.4047 78.0335 61.7453 77.7721 62.016C77.5108 62.2773 77.1795 62.408 76.7781 62.408C76.3768 62.408 76.0455 62.2773 75.7841 62.016C75.5228 61.7453 75.3921 61.4047 75.3921 60.994ZM75.3921 65.754C75.3921 65.3433 75.5228 65.0073 75.7841 64.746C76.0455 64.4753 76.3768 64.34 76.7781 64.34C77.1795 64.34 77.5108 64.4753 77.7721 64.746C78.0335 65.0073 78.1641 65.3433 78.1641 65.754C78.1641 66.1647 78.0335 66.5053 77.7721 66.776C77.5108 67.0373 77.1795 67.168 76.7781 67.168C76.3768 67.168 76.0455 67.0373 75.7841 66.776C75.5228 66.5053 75.3921 66.1647 75.3921 65.754ZM92.6292 59.188L92.5872 57.396H94.5472L94.5052 59.188L94.0852 62.422H93.0492L92.6292 59.188ZM99.9317 64.27H98.8537V63.206H100.058L100.282 61.4H99.1337V60.336H100.408L100.73 57.9H101.682L101.388 60.336H103.04L103.348 57.9H104.314L104.02 60.336H105.126V61.4H103.894L103.67 63.206H104.846V64.27H103.544L103.208 67H102.228L102.564 64.27H100.912L100.59 67H99.6097L99.9317 64.27ZM102.69 63.206L102.914 61.4H101.262L101.038 63.206H102.69ZM107.15 65.152C107.15 64.7693 107.239 64.4333 107.416 64.144C107.594 63.8453 107.874 63.5933 108.256 63.388C108.639 63.1827 109.129 63.0147 109.726 62.884C110.324 62.7533 111.047 62.66 111.896 62.604C111.868 62.212 111.728 61.89 111.476 61.638C111.224 61.386 110.818 61.26 110.258 61.26C109.866 61.26 109.479 61.3347 109.096 61.484C108.723 61.624 108.359 61.792 108.004 61.988L107.416 60.91C107.836 60.6673 108.317 60.448 108.858 60.252C109.4 60.056 109.964 59.958 110.552 59.958C111.514 59.958 112.246 60.2147 112.75 60.728C113.254 61.232 113.506 61.9647 113.506 62.926V67H112.19L112.064 66.146H112.022C111.658 66.426 111.252 66.6687 110.804 66.874C110.366 67.07 109.913 67.168 109.446 67.168C109.11 67.168 108.802 67.1167 108.522 67.014C108.242 66.9207 108 66.7853 107.794 66.608C107.589 66.4307 107.43 66.2207 107.318 65.978C107.206 65.726 107.15 65.4507 107.15 65.152ZM108.704 65.026C108.704 65.334 108.821 65.558 109.054 65.698C109.297 65.838 109.591 65.908 109.936 65.908C110.282 65.908 110.613 65.8333 110.93 65.684C111.257 65.5253 111.579 65.32 111.896 65.068V63.612C111.28 63.6587 110.767 63.724 110.356 63.808C109.946 63.8827 109.619 63.9807 109.376 64.102C109.134 64.2233 108.961 64.3633 108.858 64.522C108.756 64.6713 108.704 64.8393 108.704 65.026ZM117.323 67.56V69.716H115.699V60.126H117.029L117.155 60.91H117.197C117.495 60.6393 117.836 60.4153 118.219 60.238C118.611 60.0513 119.003 59.958 119.395 59.958C119.843 59.958 120.239 60.042 120.585 60.21C120.939 60.3687 121.233 60.602 121.467 60.91C121.709 61.218 121.891 61.5867 122.013 62.016C122.143 62.4453 122.209 62.926 122.209 63.458C122.209 64.046 122.125 64.5733 121.957 65.04C121.789 65.4973 121.56 65.8847 121.271 66.202C120.991 66.51 120.664 66.748 120.291 66.916C119.927 67.084 119.549 67.168 119.157 67.168C118.839 67.168 118.513 67.098 118.177 66.958C117.85 66.818 117.547 66.6173 117.267 66.356L117.323 67.56ZM117.323 65.208C117.575 65.4413 117.831 65.6047 118.093 65.698C118.363 65.7913 118.606 65.838 118.821 65.838C119.315 65.838 119.726 65.642 120.053 65.25C120.379 64.8487 120.543 64.256 120.543 63.472C120.543 62.7813 120.417 62.2447 120.165 61.862C119.913 61.4793 119.507 61.288 118.947 61.288C118.685 61.288 118.419 61.3533 118.149 61.484C117.878 61.6147 117.603 61.8247 117.323 62.114V65.208ZM125.717 67.56V69.716H124.093V60.126H125.423L125.549 60.91H125.591C125.89 60.6393 126.231 60.4153 126.613 60.238C127.005 60.0513 127.397 59.958 127.789 59.958C128.237 59.958 128.634 60.042 128.979 60.21C129.334 60.3687 129.628 60.602 129.861 60.91C130.104 61.218 130.286 61.5867 130.407 62.016C130.538 62.4453 130.603 62.926 130.603 63.458C130.603 64.046 130.519 64.5733 130.351 65.04C130.183 65.4973 129.955 65.8847 129.665 66.202C129.385 66.51 129.059 66.748 128.685 66.916C128.321 67.084 127.943 67.168 127.551 67.168C127.234 67.168 126.907 67.098 126.571 66.958C126.245 66.818 125.941 66.6173 125.661 66.356L125.717 67.56ZM125.717 65.208C125.969 65.4413 126.226 65.6047 126.487 65.698C126.758 65.7913 127.001 65.838 127.215 65.838C127.71 65.838 128.121 65.642 128.447 65.25C128.774 64.8487 128.937 64.256 128.937 63.472C128.937 62.7813 128.811 62.2447 128.559 61.862C128.307 61.4793 127.901 61.288 127.341 61.288C127.08 61.288 126.814 61.3533 126.543 61.484C126.273 61.6147 125.997 61.8247 125.717 62.114V65.208ZM134.602 59.188L134.56 57.396H136.52L136.478 59.188L136.058 62.422H135.022L134.602 59.188ZM142.38 69.044C143.566 68.568 144.163 67.8493 144.172 66.888C144.126 66.8973 144.06 66.902 143.976 66.902C143.622 66.902 143.314 66.7993 143.052 66.594C142.791 66.3793 142.66 66.0667 142.66 65.656C142.66 65.264 142.791 64.9607 143.052 64.746C143.323 64.522 143.64 64.41 144.004 64.41C144.508 64.41 144.886 64.5967 145.138 64.97C145.39 65.3433 145.516 65.8567 145.516 66.51C145.516 67.3687 145.283 68.092 144.816 68.68C144.35 69.2773 143.678 69.7207 142.8 70.01L142.38 69.044ZM56.5311 88.57C56.5311 88.01 56.6151 87.506 56.7831 87.058C56.9511 86.61 57.1751 86.232 57.4551 85.924C57.7444 85.616 58.0711 85.378 58.4351 85.21C58.7991 85.042 59.1771 84.958 59.5691 84.958C59.9797 84.958 60.3297 85.0327 60.6191 85.182C60.9177 85.322 61.2071 85.518 61.4871 85.77L61.4171 84.608V82.116H63.0411V92H61.7111L61.5851 91.202H61.5431C61.2724 91.4727 60.9551 91.7013 60.5911 91.888C60.2364 92.0747 59.8631 92.168 59.4711 92.168C59.0324 92.168 58.6311 92.0887 58.2671 91.93C57.9031 91.762 57.5904 91.524 57.3291 91.216C57.0771 90.908 56.8811 90.5347 56.7411 90.096C56.6011 89.648 56.5311 89.1393 56.5311 88.57ZM58.1971 88.556C58.1971 89.3027 58.3417 89.872 58.6311 90.264C58.9204 90.6467 59.3311 90.838 59.8631 90.838C60.4324 90.838 60.9504 90.5627 61.4171 90.012V86.918C61.1744 86.6847 60.9317 86.5213 60.6891 86.428C60.4464 86.3347 60.1991 86.288 59.9471 86.288C59.7044 86.288 59.4757 86.3393 59.2611 86.442C59.0557 86.5447 58.8737 86.694 58.7151 86.89C58.5564 87.0767 58.4304 87.31 58.3371 87.59C58.2437 87.87 58.1971 88.192 58.1971 88.556ZM65.1776 90.152C65.1776 89.7693 65.2663 89.4333 65.4436 89.144C65.6209 88.8453 65.9009 88.5933 66.2836 88.388C66.6663 88.1827 67.1563 88.0147 67.7536 87.884C68.3509 87.7533 69.0743 87.66 69.9236 87.604C69.8956 87.212 69.7556 86.89 69.5036 86.638C69.2516 86.386 68.8456 86.26 68.2856 86.26C67.8936 86.26 67.5063 86.3347 67.1236 86.484C66.7503 86.624 66.3863 86.792 66.0316 86.988L65.4436 85.91C65.8636 85.6673 66.3443 85.448 66.8856 85.252C67.4269 85.056 67.9916 84.958 68.5796 84.958C69.5409 84.958 70.2736 85.2147 70.7776 85.728C71.2816 86.232 71.5336 86.9647 71.5336 87.926V92H70.2176L70.0916 91.146H70.0496C69.6856 91.426 69.2796 91.6687 68.8316 91.874C68.3929 92.07 67.9403 92.168 67.4736 92.168C67.1376 92.168 66.8296 92.1167 66.5496 92.014C66.2696 91.9207 66.0269 91.7853 65.8216 91.608C65.6163 91.4307 65.4576 91.2207 65.3456 90.978C65.2336 90.726 65.1776 90.4507 65.1776 90.152ZM66.7316 90.026C66.7316 90.334 66.8483 90.558 67.0816 90.698C67.3243 90.838 67.6183 90.908 67.9636 90.908C68.3089 90.908 68.6403 90.8333 68.9576 90.684C69.2843 90.5253 69.6063 90.32 69.9236 90.068V88.612C69.3076 88.6587 68.7943 88.724 68.3836 88.808C67.9729 88.8827 67.6463 88.9807 67.4036 89.102C67.1609 89.2233 66.9883 89.3633 66.8856 89.522C66.7829 89.6713 66.7316 89.8393 66.7316 90.026ZM75.2381 86.4H73.4041V85.196L75.3081 85.126L75.5181 83.25H76.8481V85.126H79.9841V86.4H76.8481V89.228C76.8481 89.7973 76.9648 90.2173 77.1981 90.488C77.4315 90.7493 77.8421 90.88 78.4301 90.88C78.7288 90.88 78.9995 90.8567 79.2421 90.81C79.4848 90.754 79.7181 90.684 79.9421 90.6L80.2501 91.776C79.9421 91.8787 79.6015 91.9673 79.2281 92.042C78.8548 92.126 78.4581 92.168 78.0381 92.168C77.5155 92.168 77.0768 92.098 76.7221 91.958C76.3675 91.818 76.0781 91.622 75.8541 91.37C75.6395 91.1087 75.4808 90.796 75.3781 90.432C75.2848 90.068 75.2381 89.6667 75.2381 89.228V86.4ZM81.9667 90.152C81.9667 89.7693 82.0553 89.4333 82.2327 89.144C82.41 88.8453 82.69 88.5933 83.0727 88.388C83.4553 88.1827 83.9453 88.0147 84.5427 87.884C85.14 87.7533 85.8633 87.66 86.7127 87.604C86.6847 87.212 86.5447 86.89 86.2927 86.638C86.0407 86.386 85.6347 86.26 85.0747 86.26C84.6827 86.26 84.2953 86.3347 83.9127 86.484C83.5393 86.624 83.1753 86.792 82.8207 86.988L82.2327 85.91C82.6527 85.6673 83.1333 85.448 83.6747 85.252C84.216 85.056 84.7807 84.958 85.3687 84.958C86.33 84.958 87.0627 85.2147 87.5667 85.728C88.0707 86.232 88.3227 86.9647 88.3227 87.926V92H87.0067L86.8807 91.146H86.8387C86.4747 91.426 86.0687 91.6687 85.6207 91.874C85.182 92.07 84.7293 92.168 84.2627 92.168C83.9267 92.168 83.6187 92.1167 83.3387 92.014C83.0587 91.9207 82.816 91.7853 82.6107 91.608C82.4053 91.4307 82.2467 91.2207 82.1347 90.978C82.0227 90.726 81.9667 90.4507 81.9667 90.152ZM83.5207 90.026C83.5207 90.334 83.6373 90.558 83.8707 90.698C84.1133 90.838 84.4073 90.908 84.7527 90.908C85.098 90.908 85.4293 90.8333 85.7467 90.684C86.0733 90.5253 86.3953 90.32 86.7127 90.068V88.612C86.0967 88.6587 85.5833 88.724 85.1727 88.808C84.762 88.8827 84.4353 88.9807 84.1927 89.102C83.95 89.2233 83.7773 89.3633 83.6747 89.522C83.572 89.6713 83.5207 89.8393 83.5207 90.026ZM92.1812 85.994C92.1812 85.5833 92.3119 85.2473 92.5732 84.986C92.8345 84.7153 93.1659 84.58 93.5672 84.58C93.9685 84.58 94.2999 84.7153 94.5612 84.986C94.8225 85.2473 94.9532 85.5833 94.9532 85.994C94.9532 86.4047 94.8225 86.7453 94.5612 87.016C94.2999 87.2773 93.9685 87.408 93.5672 87.408C93.1659 87.408 92.8345 87.2773 92.5732 87.016C92.3119 86.7453 92.1812 86.4047 92.1812 85.994ZM92.1812 90.754C92.1812 90.3433 92.3119 90.0073 92.5732 89.746C92.8345 89.4753 93.1659 89.34 93.5672 89.34C93.9685 89.34 94.2999 89.4753 94.5612 89.746C94.8225 90.0073 94.9532 90.3433 94.9532 90.754C94.9532 91.1647 94.8225 91.5053 94.5612 91.776C94.2999 92.0373 93.9685 92.168 93.5672 92.168C93.1659 92.168 92.8345 92.0373 92.5732 91.776C92.3119 91.5053 92.1812 91.1647 92.1812 90.754ZM109.572 92.196C109.572 91.944 109.577 91.7153 109.586 91.51C109.605 91.2953 109.624 91.09 109.642 90.894C109.661 90.698 109.675 90.502 109.684 90.306C109.703 90.1007 109.712 89.8813 109.712 89.648C109.712 89.5267 109.684 89.4053 109.628 89.284C109.572 89.1533 109.47 89.0413 109.32 88.948C109.171 88.8453 108.966 88.7613 108.704 88.696C108.452 88.6307 108.13 88.598 107.738 88.598V87.618C108.13 87.618 108.452 87.5853 108.704 87.52C108.966 87.4547 109.171 87.3753 109.32 87.282C109.47 87.1793 109.572 87.0673 109.628 86.946C109.684 86.8247 109.712 86.6987 109.712 86.568C109.712 86.1293 109.689 85.7187 109.642 85.336C109.596 84.944 109.572 84.5053 109.572 84.02C109.572 83.6467 109.624 83.3387 109.726 83.096C109.829 82.844 109.988 82.6433 110.202 82.494C110.417 82.3447 110.688 82.242 111.014 82.186C111.341 82.1207 111.728 82.088 112.176 82.088H113.142V82.97H112.498C112.172 82.97 111.906 82.9887 111.7 83.026C111.495 83.0633 111.332 83.1287 111.21 83.222C111.098 83.306 111.019 83.4227 110.972 83.572C110.935 83.712 110.916 83.8847 110.916 84.09C110.916 84.482 110.926 84.874 110.944 85.266C110.972 85.658 110.986 86.0687 110.986 86.498C110.986 86.9927 110.888 87.3613 110.692 87.604C110.496 87.8373 110.151 87.996 109.656 88.08V88.136C110.151 88.22 110.496 88.3833 110.692 88.626C110.888 88.8593 110.986 89.2233 110.986 89.718C110.986 90.166 110.972 90.5767 110.944 90.95C110.926 91.3233 110.916 91.7153 110.916 92.126C110.916 92.3407 110.935 92.518 110.972 92.658C111.019 92.798 111.098 92.91 111.21 92.994C111.332 93.0873 111.495 93.1527 111.7 93.19C111.906 93.2273 112.172 93.246 112.498 93.246H113.142V94.128H112.176C111.728 94.128 111.341 94.0953 111.014 94.03C110.688 93.974 110.417 93.8713 110.202 93.722C109.988 93.5727 109.829 93.372 109.726 93.12C109.624 92.8773 109.572 92.5693 109.572 92.196ZM73.2501 110.126H74.4681L74.5941 111.008H74.6361C74.7948 110.709 74.9861 110.462 75.2101 110.266C75.4435 110.061 75.7561 109.958 76.1481 109.958C76.8201 109.958 77.2401 110.341 77.4081 111.106C77.5668 110.779 77.7675 110.509 78.0101 110.294C78.2621 110.07 78.5795 109.958 78.9621 109.958C79.4475 109.958 79.8208 110.149 80.0821 110.532C80.3528 110.905 80.4881 111.437 80.4881 112.128V117H78.9621V112.254C78.9621 111.647 78.7708 111.344 78.3881 111.344C78.2015 111.344 78.0381 111.414 77.8981 111.554C77.7581 111.694 77.6228 111.909 77.4921 112.198V117H76.2321V112.254C76.2321 111.647 76.0361 111.344 75.6441 111.344C75.4575 111.344 75.2988 111.414 75.1681 111.554C75.0375 111.694 74.9068 111.909 74.7761 112.198V117H73.2501V110.126ZM81.8407 113.57C81.8407 113.01 81.9387 112.506 82.1347 112.058C82.34 111.61 82.606 111.232 82.9327 110.924C83.2593 110.607 83.6327 110.369 84.0527 110.21C84.482 110.042 84.9207 109.958 85.3687 109.958C85.882 109.958 86.3347 110.042 86.7267 110.21C87.128 110.369 87.464 110.593 87.7347 110.882C88.0053 111.162 88.2107 111.503 88.3507 111.904C88.4907 112.305 88.5607 112.744 88.5607 113.22C88.5607 113.379 88.5513 113.528 88.5327 113.668C88.5233 113.808 88.5093 113.92 88.4907 114.004H83.4927C83.5487 114.62 83.7913 115.096 84.2207 115.432C84.65 115.759 85.1773 115.922 85.8027 115.922C86.1573 115.922 86.4887 115.875 86.7967 115.782C87.1047 115.679 87.4173 115.539 87.7347 115.362L88.2807 116.37C87.9073 116.603 87.492 116.795 87.0347 116.944C86.5773 117.093 86.0967 117.168 85.5927 117.168C85.07 117.168 84.58 117.089 84.1227 116.93C83.6653 116.762 83.2687 116.524 82.9327 116.216C82.5967 115.908 82.3307 115.535 82.1347 115.096C81.9387 114.648 81.8407 114.139 81.8407 113.57ZM87.0767 112.912C87.0767 112.38 86.9367 111.965 86.6567 111.666C86.3767 111.358 85.9613 111.204 85.4107 111.204C84.944 111.204 84.5287 111.349 84.1647 111.638C83.8007 111.927 83.572 112.352 83.4787 112.912H87.0767ZM90.9912 115.082C91.3832 115.353 91.7892 115.567 92.2092 115.726C92.6385 115.875 93.1192 115.95 93.6512 115.95C94.1925 115.95 94.5892 115.875 94.8412 115.726C95.0932 115.567 95.2192 115.367 95.2192 115.124C95.2192 114.881 95.0559 114.681 94.7292 114.522C94.4025 114.354 93.8892 114.177 93.1892 113.99C92.8625 113.906 92.5452 113.803 92.2372 113.682C91.9292 113.561 91.6585 113.421 91.4252 113.262C91.1919 113.103 91.0052 112.921 90.8652 112.716C90.7252 112.511 90.6552 112.277 90.6552 112.016C90.6552 111.409 90.9165 110.915 91.4392 110.532C91.9619 110.149 92.7132 109.958 93.6932 109.958C94.2532 109.958 94.7805 110.051 95.2752 110.238C95.7699 110.425 96.1945 110.635 96.5492 110.868L95.8072 111.862C95.4992 111.657 95.1679 111.493 94.8132 111.372C94.4679 111.241 94.0992 111.176 93.7072 111.176C93.1752 111.176 92.8019 111.251 92.5872 111.4C92.3725 111.54 92.2652 111.717 92.2652 111.932C92.2652 112.053 92.3119 112.165 92.4052 112.268C92.5079 112.361 92.6432 112.45 92.8112 112.534C92.9885 112.609 93.1939 112.683 93.4272 112.758C93.6605 112.833 93.9172 112.903 94.1972 112.968C94.5985 113.071 94.9579 113.187 95.2752 113.318C95.6019 113.439 95.8772 113.579 96.1012 113.738C96.3345 113.897 96.5119 114.083 96.6332 114.298C96.7639 114.513 96.8292 114.76 96.8292 115.04C96.8292 115.339 96.7592 115.619 96.6192 115.88C96.4792 116.132 96.2739 116.356 96.0032 116.552C95.7325 116.739 95.3965 116.888 94.9952 117C94.5939 117.112 94.1319 117.168 93.6092 117.168C92.9652 117.168 92.3492 117.065 91.7612 116.86C91.1732 116.655 90.6645 116.403 90.2352 116.104L90.9912 115.082ZM99.3857 115.082C99.7777 115.353 100.184 115.567 100.604 115.726C101.033 115.875 101.514 115.95 102.046 115.95C102.587 115.95 102.984 115.875 103.236 115.726C103.488 115.567 103.614 115.367 103.614 115.124C103.614 114.881 103.45 114.681 103.124 114.522C102.797 114.354 102.284 114.177 101.584 113.99C101.257 113.906 100.94 113.803 100.632 113.682C100.324 113.561 100.053 113.421 99.8197 113.262C99.5864 113.103 99.3997 112.921 99.2597 112.716C99.1197 112.511 99.0497 112.277 99.0497 112.016C99.0497 111.409 99.3111 110.915 99.8337 110.532C100.356 110.149 101.108 109.958 102.088 109.958C102.648 109.958 103.175 110.051 103.67 110.238C104.164 110.425 104.589 110.635 104.944 110.868L104.202 111.862C103.894 111.657 103.562 111.493 103.208 111.372C102.862 111.241 102.494 111.176 102.102 111.176C101.57 111.176 101.196 111.251 100.982 111.4C100.767 111.54 100.66 111.717 100.66 111.932C100.66 112.053 100.706 112.165 100.8 112.268C100.902 112.361 101.038 112.45 101.206 112.534C101.383 112.609 101.588 112.683 101.822 112.758C102.055 112.833 102.312 112.903 102.592 112.968C102.993 113.071 103.352 113.187 103.67 113.318C103.996 113.439 104.272 113.579 104.496 113.738C104.729 113.897 104.906 114.083 105.028 114.298C105.158 114.513 105.224 114.76 105.224 115.04C105.224 115.339 105.154 115.619 105.014 115.88C104.874 116.132 104.668 116.356 104.398 116.552C104.127 116.739 103.791 116.888 103.39 117C102.988 117.112 102.526 117.168 102.004 117.168C101.36 117.168 100.744 117.065 100.156 116.86C99.5677 116.655 99.0591 116.403 98.6297 116.104L99.3857 115.082ZM107.15 115.152C107.15 114.769 107.239 114.433 107.416 114.144C107.594 113.845 107.874 113.593 108.256 113.388C108.639 113.183 109.129 113.015 109.726 112.884C110.324 112.753 111.047 112.66 111.896 112.604C111.868 112.212 111.728 111.89 111.476 111.638C111.224 111.386 110.818 111.26 110.258 111.26C109.866 111.26 109.479 111.335 109.096 111.484C108.723 111.624 108.359 111.792 108.004 111.988L107.416 110.91C107.836 110.667 108.317 110.448 108.858 110.252C109.4 110.056 109.964 109.958 110.552 109.958C111.514 109.958 112.246 110.215 112.75 110.728C113.254 111.232 113.506 111.965 113.506 112.926V117H112.19L112.064 116.146H112.022C111.658 116.426 111.252 116.669 110.804 116.874C110.366 117.07 109.913 117.168 109.446 117.168C109.11 117.168 108.802 117.117 108.522 117.014C108.242 116.921 108 116.785 107.794 116.608C107.589 116.431 107.43 116.221 107.318 115.978C107.206 115.726 107.15 115.451 107.15 115.152ZM108.704 115.026C108.704 115.334 108.821 115.558 109.054 115.698C109.297 115.838 109.591 115.908 109.936 115.908C110.282 115.908 110.613 115.833 110.93 115.684C111.257 115.525 111.579 115.32 111.896 115.068V113.612C111.28 113.659 110.767 113.724 110.356 113.808C109.946 113.883 109.619 113.981 109.376 114.102C109.134 114.223 108.961 114.363 108.858 114.522C108.756 114.671 108.704 114.839 108.704 115.026ZM116.763 117.994C116.763 118.302 116.931 118.545 117.267 118.722C117.612 118.899 118.107 118.988 118.751 118.988C119.087 118.988 119.39 118.955 119.661 118.89C119.931 118.834 120.165 118.755 120.361 118.652C120.557 118.549 120.706 118.428 120.809 118.288C120.911 118.157 120.963 118.017 120.963 117.868C120.963 117.597 120.846 117.415 120.613 117.322C120.379 117.238 120.034 117.196 119.577 117.196H118.485C118.261 117.196 118.06 117.187 117.883 117.168C117.715 117.159 117.565 117.131 117.435 117.084C117.192 117.233 117.019 117.383 116.917 117.532C116.814 117.681 116.763 117.835 116.763 117.994ZM115.419 118.204C115.419 117.933 115.512 117.672 115.699 117.42C115.885 117.168 116.156 116.949 116.511 116.762V116.706C116.324 116.603 116.161 116.459 116.021 116.272C115.881 116.085 115.811 115.847 115.811 115.558C115.811 115.325 115.885 115.096 116.035 114.872C116.184 114.639 116.385 114.433 116.637 114.256V114.2C116.394 114.032 116.184 113.799 116.007 113.5C115.839 113.201 115.755 112.847 115.755 112.436C115.755 112.044 115.829 111.694 115.979 111.386C116.137 111.078 116.343 110.821 116.595 110.616C116.856 110.401 117.155 110.238 117.491 110.126C117.836 110.014 118.2 109.958 118.583 109.958C118.993 109.958 119.353 110.014 119.661 110.126H122.475V111.316H120.865C120.986 111.456 121.093 111.629 121.187 111.834C121.28 112.03 121.327 112.249 121.327 112.492C121.327 112.875 121.257 113.211 121.117 113.5C120.977 113.789 120.781 114.032 120.529 114.228C120.286 114.424 119.997 114.573 119.661 114.676C119.325 114.769 118.965 114.816 118.583 114.816C118.237 114.816 117.887 114.755 117.533 114.634C117.253 114.811 117.113 115.021 117.113 115.264C117.113 115.703 117.547 115.922 118.415 115.922H119.815C120.711 115.922 121.383 116.053 121.831 116.314C122.288 116.575 122.517 117.005 122.517 117.602C122.517 117.938 122.423 118.255 122.237 118.554C122.05 118.853 121.784 119.109 121.439 119.324C121.103 119.548 120.687 119.721 120.193 119.842C119.707 119.973 119.161 120.038 118.555 120.038C118.079 120.038 117.649 120.001 117.267 119.926C116.884 119.851 116.553 119.735 116.273 119.576C116.002 119.427 115.792 119.235 115.643 119.002C115.493 118.778 115.419 118.512 115.419 118.204ZM118.583 113.808C118.937 113.808 119.245 113.691 119.507 113.458C119.768 113.215 119.899 112.875 119.899 112.436C119.899 112.016 119.768 111.685 119.507 111.442C119.245 111.19 118.937 111.064 118.583 111.064C118.228 111.064 117.92 111.19 117.659 111.442C117.407 111.685 117.281 112.016 117.281 112.436C117.281 112.875 117.407 113.215 117.659 113.458C117.92 113.691 118.228 113.808 118.583 113.808ZM123.813 113.57C123.813 113.01 123.911 112.506 124.107 112.058C124.313 111.61 124.579 111.232 124.905 110.924C125.232 110.607 125.605 110.369 126.025 110.21C126.455 110.042 126.893 109.958 127.341 109.958C127.855 109.958 128.307 110.042 128.699 110.21C129.101 110.369 129.437 110.593 129.707 110.882C129.978 111.162 130.183 111.503 130.323 111.904C130.463 112.305 130.533 112.744 130.533 113.22C130.533 113.379 130.524 113.528 130.505 113.668C130.496 113.808 130.482 113.92 130.463 114.004H125.465C125.521 114.62 125.764 115.096 126.193 115.432C126.623 115.759 127.15 115.922 127.775 115.922C128.13 115.922 128.461 115.875 128.769 115.782C129.077 115.679 129.39 115.539 129.707 115.362L130.253 116.37C129.88 116.603 129.465 116.795 129.007 116.944C128.55 117.093 128.069 117.168 127.565 117.168C127.043 117.168 126.553 117.089 126.095 116.93C125.638 116.762 125.241 116.524 124.905 116.216C124.569 115.908 124.303 115.535 124.107 115.096C123.911 114.648 123.813 114.139 123.813 113.57ZM129.049 112.912C129.049 112.38 128.909 111.965 128.629 111.666C128.349 111.358 127.934 111.204 127.383 111.204C126.917 111.204 126.501 111.349 126.137 111.638C125.773 111.927 125.545 112.352 125.451 112.912H129.049ZM134.154 110.994C134.154 110.583 134.285 110.247 134.546 109.986C134.807 109.715 135.139 109.58 135.54 109.58C135.941 109.58 136.273 109.715 136.534 109.986C136.795 110.247 136.926 110.583 136.926 110.994C136.926 111.405 136.795 111.745 136.534 112.016C136.273 112.277 135.941 112.408 135.54 112.408C135.139 112.408 134.807 112.277 134.546 112.016C134.285 111.745 134.154 111.405 134.154 110.994ZM134.154 115.754C134.154 115.343 134.285 115.007 134.546 114.746C134.807 114.475 135.139 114.34 135.54 114.34C135.941 114.34 136.273 114.475 136.534 114.746C136.795 115.007 136.926 115.343 136.926 115.754C136.926 116.165 136.795 116.505 136.534 116.776C136.273 117.037 135.941 117.168 135.54 117.168C135.139 117.168 134.807 117.037 134.546 116.776C134.285 116.505 134.154 116.165 134.154 115.754ZM151.391 109.188L151.349 107.396H153.309L153.267 109.188L152.847 112.422H151.811L151.391 109.188ZM157.531 107.844H159.155V111.526H162.291V107.844H163.915V117H162.291V112.94H159.155V117H157.531V107.844ZM165.786 113.57C165.786 113.01 165.884 112.506 166.08 112.058C166.285 111.61 166.551 111.232 166.878 110.924C167.205 110.607 167.578 110.369 167.998 110.21C168.427 110.042 168.866 109.958 169.314 109.958C169.827 109.958 170.28 110.042 170.672 110.21C171.073 110.369 171.409 110.593 171.68 110.882C171.951 111.162 172.156 111.503 172.296 111.904C172.436 112.305 172.506 112.744 172.506 113.22C172.506 113.379 172.497 113.528 172.478 113.668C172.469 113.808 172.455 113.92 172.436 114.004H167.438C167.494 114.62 167.737 115.096 168.166 115.432C168.595 115.759 169.123 115.922 169.748 115.922C170.103 115.922 170.434 115.875 170.742 115.782C171.05 115.679 171.363 115.539 171.68 115.362L172.226 116.37C171.853 116.603 171.437 116.795 170.98 116.944C170.523 117.093 170.042 117.168 169.538 117.168C169.015 117.168 168.525 117.089 168.068 116.93C167.611 116.762 167.214 116.524 166.878 116.216C166.542 115.908 166.276 115.535 166.08 115.096C165.884 114.648 165.786 114.139 165.786 113.57ZM171.022 112.912C171.022 112.38 170.882 111.965 170.602 111.666C170.322 111.358 169.907 111.204 169.356 111.204C168.889 111.204 168.474 111.349 168.11 111.638C167.746 111.927 167.517 112.352 167.424 112.912H171.022ZM174.307 107.116H178.087V114.578C178.087 115.045 178.203 115.376 178.437 115.572C178.67 115.759 178.964 115.852 179.319 115.852C179.655 115.852 180.047 115.763 180.495 115.586L180.873 116.776C180.546 116.888 180.238 116.981 179.949 117.056C179.669 117.131 179.328 117.168 178.927 117.168C178.115 117.168 177.503 116.935 177.093 116.468C176.682 116.001 176.477 115.343 176.477 114.494V108.39H174.307V107.116ZM182.701 107.116H186.481V114.578C186.481 115.045 186.598 115.376 186.831 115.572C187.064 115.759 187.358 115.852 187.713 115.852C188.049 115.852 188.441 115.763 188.889 115.586L189.267 116.776C188.94 116.888 188.632 116.981 188.343 117.056C188.063 117.131 187.722 117.168 187.321 117.168C186.509 117.168 185.898 116.935 185.487 116.468C185.076 116.001 184.871 115.343 184.871 114.494V108.39H182.701V107.116ZM190.844 113.57C190.844 113.001 190.937 112.492 191.124 112.044C191.32 111.596 191.576 111.218 191.894 110.91C192.211 110.602 192.58 110.369 193 110.21C193.42 110.042 193.854 109.958 194.302 109.958C194.75 109.958 195.184 110.042 195.604 110.21C196.024 110.369 196.392 110.602 196.71 110.91C197.027 111.218 197.279 111.596 197.466 112.044C197.662 112.492 197.76 113.001 197.76 113.57C197.76 114.139 197.662 114.648 197.466 115.096C197.279 115.544 197.027 115.922 196.71 116.23C196.392 116.538 196.024 116.771 195.604 116.93C195.184 117.089 194.75 117.168 194.302 117.168C193.854 117.168 193.42 117.089 193 116.93C192.58 116.771 192.211 116.538 191.894 116.23C191.576 115.922 191.32 115.544 191.124 115.096C190.937 114.648 190.844 114.139 190.844 113.57ZM192.51 113.57C192.51 114.261 192.668 114.816 192.986 115.236C193.303 115.647 193.742 115.852 194.302 115.852C194.862 115.852 195.3 115.647 195.618 115.236C195.935 114.816 196.094 114.261 196.094 113.57C196.094 112.87 195.935 112.315 195.618 111.904C195.3 111.484 194.862 111.274 194.302 111.274C193.742 111.274 193.303 111.484 192.986 111.904C192.668 112.315 192.51 112.87 192.51 113.57ZM208.585 107.844H214.409V109.216H210.209V111.806H213.779V113.178H210.209V117H208.585V107.844ZM216.279 115.152C216.279 114.769 216.368 114.433 216.545 114.144C216.722 113.845 217.002 113.593 217.385 113.388C217.768 113.183 218.258 113.015 218.855 112.884C219.452 112.753 220.176 112.66 221.025 112.604C220.997 112.212 220.857 111.89 220.605 111.638C220.353 111.386 219.947 111.26 219.387 111.26C218.995 111.26 218.608 111.335 218.225 111.484C217.852 111.624 217.488 111.792 217.133 111.988L216.545 110.91C216.965 110.667 217.446 110.448 217.987 110.252C218.528 110.056 219.093 109.958 219.681 109.958C220.642 109.958 221.375 110.215 221.879 110.728C222.383 111.232 222.635 111.965 222.635 112.926V117H221.319L221.193 116.146H221.151C220.787 116.426 220.381 116.669 219.933 116.874C219.494 117.07 219.042 117.168 218.575 117.168C218.239 117.168 217.931 117.117 217.651 117.014C217.371 116.921 217.128 116.785 216.923 116.608C216.718 116.431 216.559 116.221 216.447 115.978C216.335 115.726 216.279 115.451 216.279 115.152ZM217.833 115.026C217.833 115.334 217.95 115.558 218.183 115.698C218.426 115.838 218.72 115.908 219.065 115.908C219.41 115.908 219.742 115.833 220.059 115.684C220.386 115.525 220.708 115.32 221.025 115.068V113.612C220.409 113.659 219.896 113.724 219.485 113.808C219.074 113.883 218.748 113.981 218.505 114.102C218.262 114.223 218.09 114.363 217.987 114.522C217.884 114.671 217.833 114.839 217.833 115.026ZM224.702 113.57C224.702 113.001 224.804 112.492 225.01 112.044C225.224 111.596 225.509 111.218 225.864 110.91C226.218 110.602 226.634 110.369 227.11 110.21C227.586 110.042 228.085 109.958 228.608 109.958C229.168 109.958 229.658 110.051 230.078 110.238C230.507 110.425 230.866 110.653 231.156 110.924L230.386 111.932C230.115 111.717 229.84 111.554 229.56 111.442C229.289 111.33 229 111.274 228.692 111.274C228.001 111.274 227.441 111.484 227.012 111.904C226.582 112.315 226.368 112.87 226.368 113.57C226.368 113.915 226.424 114.228 226.536 114.508C226.648 114.788 226.802 115.031 226.998 115.236C227.203 115.432 227.446 115.586 227.726 115.698C228.006 115.801 228.314 115.852 228.65 115.852C229.042 115.852 229.396 115.777 229.714 115.628C230.04 115.479 230.339 115.301 230.61 115.096L231.282 116.132C230.89 116.477 230.451 116.739 229.966 116.916C229.48 117.084 228.99 117.168 228.496 117.168C227.954 117.168 227.45 117.089 226.984 116.93C226.526 116.771 226.125 116.538 225.78 116.23C225.444 115.922 225.178 115.544 224.982 115.096C224.795 114.648 224.702 114.139 224.702 113.57ZM234.734 111.4H232.9V110.196L234.804 110.126L235.014 108.25H236.344V110.126H239.48V111.4H236.344V114.228C236.344 114.797 236.461 115.217 236.694 115.488C236.928 115.749 237.338 115.88 237.926 115.88C238.225 115.88 238.496 115.857 238.738 115.81C238.981 115.754 239.214 115.684 239.438 115.6L239.746 116.776C239.438 116.879 239.098 116.967 238.724 117.042C238.351 117.126 237.954 117.168 237.534 117.168C237.012 117.168 236.573 117.098 236.218 116.958C235.864 116.818 235.574 116.622 235.35 116.37C235.136 116.109 234.977 115.796 234.874 115.432C234.781 115.068 234.734 114.667 234.734 114.228V111.4ZM241.211 113.57C241.211 113.001 241.304 112.492 241.491 112.044C241.687 111.596 241.943 111.218 242.261 110.91C242.578 110.602 242.947 110.369 243.367 110.21C243.787 110.042 244.221 109.958 244.669 109.958C245.117 109.958 245.551 110.042 245.971 110.21C246.391 110.369 246.759 110.602 247.077 110.91C247.394 111.218 247.646 111.596 247.833 112.044C248.029 112.492 248.127 113.001 248.127 113.57C248.127 114.139 248.029 114.648 247.833 115.096C247.646 115.544 247.394 115.922 247.077 116.23C246.759 116.538 246.391 116.771 245.971 116.93C245.551 117.089 245.117 117.168 244.669 117.168C244.221 117.168 243.787 117.089 243.367 116.93C242.947 116.771 242.578 116.538 242.261 116.23C241.943 115.922 241.687 115.544 241.491 115.096C241.304 114.648 241.211 114.139 241.211 113.57ZM242.877 113.57C242.877 114.261 243.035 114.816 243.353 115.236C243.67 115.647 244.109 115.852 244.669 115.852C245.229 115.852 245.667 115.647 245.985 115.236C246.302 114.816 246.461 114.261 246.461 113.57C246.461 112.87 246.302 112.315 245.985 111.904C245.667 111.484 245.229 111.274 244.669 111.274C244.109 111.274 243.67 111.484 243.353 111.904C243.035 112.315 242.877 112.87 242.877 113.57ZM250.683 110.126H252.013L252.153 111.68H252.195C252.55 111.12 252.975 110.695 253.469 110.406C253.973 110.107 254.524 109.958 255.121 109.958C255.401 109.958 255.639 109.981 255.835 110.028C256.041 110.065 256.246 110.135 256.451 110.238L256.115 111.596C255.891 111.521 255.691 111.47 255.513 111.442C255.345 111.405 255.131 111.386 254.869 111.386C254.393 111.386 253.936 111.521 253.497 111.792C253.059 112.063 252.662 112.534 252.307 113.206V117H250.683V110.126ZM260.702 109.216L260.66 107.62H262.256L262.214 109.216L261.99 113.584H260.926L260.702 109.216ZM260.24 115.908C260.24 115.535 260.356 115.236 260.59 115.012C260.823 114.788 261.112 114.676 261.458 114.676C261.803 114.676 262.092 114.788 262.326 115.012C262.559 115.236 262.676 115.535 262.676 115.908C262.676 116.291 262.559 116.599 262.326 116.832C262.092 117.056 261.803 117.168 261.458 117.168C261.112 117.168 260.823 117.056 260.59 116.832C260.356 116.599 260.24 116.291 260.24 115.908ZM268.914 109.188L268.872 107.396H270.832L270.79 109.188L270.37 112.422H269.334L268.914 109.188ZM57.8611 142.246C58.1784 142.246 58.4397 142.227 58.6451 142.19C58.8504 142.153 59.0137 142.087 59.1351 141.994C59.2564 141.91 59.3357 141.798 59.3731 141.658C59.4197 141.518 59.4431 141.341 59.4431 141.126C59.4431 140.715 59.4291 140.323 59.4011 139.95C59.3824 139.577 59.3731 139.166 59.3731 138.718C59.3731 138.223 59.4664 137.859 59.6531 137.626C59.8491 137.383 60.1991 137.22 60.7031 137.136V137.08C60.1991 136.996 59.8491 136.837 59.6531 136.604C59.4664 136.361 59.3731 135.993 59.3731 135.498C59.3731 135.069 59.3824 134.658 59.4011 134.266C59.4291 133.874 59.4431 133.482 59.4431 133.09C59.4431 132.885 59.4197 132.712 59.3731 132.572C59.3357 132.423 59.2564 132.306 59.1351 132.222C59.0137 132.129 58.8504 132.063 58.6451 132.026C58.4397 131.989 58.1784 131.97 57.8611 131.97H57.2171V131.088H58.1831C58.6311 131.088 59.0137 131.121 59.3311 131.186C59.6577 131.242 59.9284 131.345 60.1431 131.494C60.3577 131.643 60.5164 131.844 60.6191 132.096C60.7217 132.339 60.7731 132.647 60.7731 133.02C60.7731 133.505 60.7497 133.944 60.7031 134.336C60.6564 134.719 60.6331 135.129 60.6331 135.568C60.6331 135.699 60.6611 135.825 60.7171 135.946C60.7731 136.067 60.8757 136.179 61.0251 136.282C61.1744 136.375 61.3751 136.455 61.6271 136.52C61.8884 136.585 62.2151 136.618 62.6071 136.618V137.598C62.2151 137.598 61.8884 137.631 61.6271 137.696C61.3751 137.761 61.1744 137.845 61.0251 137.948C60.8757 138.041 60.7731 138.153 60.7171 138.284C60.6611 138.405 60.6331 138.527 60.6331 138.648C60.6331 138.881 60.6377 139.101 60.6471 139.306C60.6657 139.502 60.6844 139.698 60.7031 139.894C60.7217 140.09 60.7357 140.295 60.7451 140.51C60.7637 140.715 60.7731 140.944 60.7731 141.196C60.7731 141.569 60.7217 141.877 60.6191 142.12C60.5164 142.372 60.3577 142.573 60.1431 142.722C59.9284 142.871 59.6577 142.974 59.3311 143.03C59.0137 143.095 58.6311 143.128 58.1831 143.128H57.2171V142.246H57.8611ZM41.072 167.246C41.3893 167.246 41.6507 167.227 41.856 167.19C42.0613 167.153 42.2247 167.087 42.346 166.994C42.4673 166.91 42.5467 166.798 42.584 166.658C42.6307 166.518 42.654 166.341 42.654 166.126C42.654 165.715 42.64 165.323 42.612 164.95C42.5933 164.577 42.584 164.166 42.584 163.718C42.584 163.223 42.6773 162.859 42.864 162.626C43.06 162.383 43.41 162.22 43.914 162.136V162.08C43.41 161.996 43.06 161.837 42.864 161.604C42.6773 161.361 42.584 160.993 42.584 160.498C42.584 160.069 42.5933 159.658 42.612 159.266C42.64 158.874 42.654 158.482 42.654 158.09C42.654 157.885 42.6307 157.712 42.584 157.572C42.5467 157.423 42.4673 157.306 42.346 157.222C42.2247 157.129 42.0613 157.063 41.856 157.026C41.6507 156.989 41.3893 156.97 41.072 156.97H40.428V156.088H41.394C41.842 156.088 42.2247 156.121 42.542 156.186C42.8687 156.242 43.1393 156.345 43.354 156.494C43.5687 156.643 43.7273 156.844 43.83 157.096C43.9327 157.339 43.984 157.647 43.984 158.02C43.984 158.505 43.9607 158.944 43.914 159.336C43.8673 159.719 43.844 160.129 43.844 160.568C43.844 160.699 43.872 160.825 43.928 160.946C43.984 161.067 44.0867 161.179 44.236 161.282C44.3853 161.375 44.586 161.455 44.838 161.52C45.0993 161.585 45.426 161.618 45.818 161.618V162.598C45.426 162.598 45.0993 162.631 44.838 162.696C44.586 162.761 44.3853 162.845 44.236 162.948C44.0867 163.041 43.984 163.153 43.928 163.284C43.872 163.405 43.844 163.527 43.844 163.648C43.844 163.881 43.8487 164.101 43.858 164.306C43.8767 164.502 43.8953 164.698 43.914 164.894C43.9327 165.09 43.9467 165.295 43.956 165.51C43.9747 165.715 43.984 165.944 43.984 166.196C43.984 166.569 43.9327 166.877 43.83 167.12C43.7273 167.372 43.5687 167.573 43.354 167.722C43.1393 167.871 42.8687 167.974 42.542 168.03C42.2247 168.095 41.842 168.128 41.394 168.128H40.428V167.246H41.072ZM49.1305 167.736C50.0172 166.933 50.6659 166.079 51.0765 165.174C51.4872 164.269 51.6925 163.247 51.6925 162.108C51.6925 160.969 51.4872 159.947 51.0765 159.042C50.6659 158.137 50.0172 157.283 49.1305 156.48L50.0265 155.738C50.9692 156.522 51.7112 157.446 52.2525 158.51C52.8032 159.574 53.0785 160.773 53.0785 162.108C53.0785 163.443 52.8032 164.642 52.2525 165.706C51.7112 166.77 50.9692 167.694 50.0265 168.478L49.1305 167.736Z" fill="white"/>
<defs>
<filter id="filter0_d" x="0" y="0" width="454" height="284" filterUnits="userSpaceOnUse" color-interpolation-filters="sRGB">
<feFlood flood-opacity="0" result="BackgroundImageFix"/>
<feColorMatrix in="SourceAlpha" type="matrix" values="0 0 0 0 0 0 0 0 0 0 0 0 0 0 0 0 0 0 127 0"/>
<feOffset dy="5"/>
<feGaussianBlur stdDeviation="9"/>
<feColorMatrix type="matrix" values="0 0 0 0 0 0 0 0 0 0 0 0 0 0 0 0 0 0 0.07 0"/>
<feBlend mode="normal" in2="BackgroundImageFix" result="effect1_dropShadow"/>
<feBlend mode="normal" in="SourceGraphic" in2="effect1_dropShadow" result="shape"/>
</filter>
</defs>
</svg>
