<svg xmlns="http://www.w3.org/2000/svg" viewBox="0 0 320 132" style="enable-background:new 0 0 320 132" xml:space="preserve">
  <path d="M39.2 35.6c-12 0-21.8 9.8-21.8 21.8v1.5h8.2v-1.5c0-6.1 3.9-11.3 9.6-13v26.7h-6.3v8.2h6.3v15.1h8.2V79.3h6.3v-8.2h-6.3V44.4c5.5 1.7 9.5 7 9.5 13v1.5h8.2v-1.5c0-12-9.8-21.8-21.9-21.8zM87.3 53.8c1.1-.4 2.2-.6 3.5-.5 1.3 0 2.5.2 3.5.5s2 .8 2.7 1.3c.7.6 1.2 1.2 1.4 1.8l7.4-2.7c-.7-1.9-1.8-3.5-3.3-4.8-1.5-1.3-3.3-2.3-5.4-3-2.1-.7-4.2-1.1-6.4-1.1-2.7 0-5.1.5-7.4 1.5-2.3 1-4.1 2.5-5.5 4.3s-2.1 4-2.1 6.5c0 2.6.7 4.7 2 6.3 1.3 1.7 3.1 3 5.4 3.9 2.3.9 4.8 1.6 7.7 2 1.2.2 2.3.5 3.4.8s2 .8 2.7 1.4c.7.6 1.1 1.3 1.1 2.2 0 .9-.3 1.7-1 2.3-.7.7-1.6 1.2-2.6 1.6-1.1.4-2.3.6-3.5.6-1.3 0-2.5-.2-3.6-.5s-2-.8-2.7-1.4c-.7-.6-1.2-1.2-1.4-1.8l-7.4 2.7c.7 1.8 1.8 3.4 3.3 4.7 1.5 1.3 3.3 2.3 5.4 3 2 .7 4.2 1.1 6.4 1.1 2.7 0 5.2-.5 7.4-1.5 2.3-1 4.1-2.5 5.5-4.3s2.1-4 2.1-6.5c0-2.4-.7-4.5-2.1-6.1-1.4-1.7-3.2-3-5.5-4s-4.8-1.7-7.5-2.1c-1.3-.2-2.5-.4-3.6-.7-1.1-.2-2-.7-2.6-1.2-.7-.6-1-1.4-1-2.5 0-.9.3-1.6 1-2.3s1.6-1.2 2.7-1.5zM127.8 57.4v15.9c0 1-.2 1.9-.7 2.7-.5.8-1.1 1.4-1.9 1.9s-1.7.7-2.7.7c-1 0-1.9-.2-2.7-.7-.8-.5-1.5-1.1-2-1.9s-.7-1.7-.7-2.7V57.4h-7.9v18.1c0 2.1.5 3.9 1.5 5.6 1 1.7 2.4 3 4 4 1.7 1 3.6 1.5 5.6 1.5 1.4 0 2.8-.3 4.1-.8s2.4-1.2 3.3-2.1v2.2h7.9V57.4h-7.8zM164.9 61.1c-1.4-1.4-3-2.5-4.8-3.2-1.8-.8-3.8-1.2-5.8-1.2-1.7 0-3.1.4-4.4 1.1-1.3.7-2.3 1.6-3.2 2.8v-3.1h-7.9v42.7h7.9V82.9c.9 1.1 2 2 3.2 2.7s2.7 1.1 4.4 1.1c2.1 0 4-.4 5.8-1.2 1.8-.8 3.4-1.9 4.8-3.2 1.4-1.4 2.4-3 3.2-4.8.8-1.8 1.2-3.8 1.2-5.8 0-2.1-.4-4-1.2-5.8s-1.8-3.5-3.2-4.8zm-4.6 14.3c-.6 1.1-1.5 2-2.6 2.7-1.1.7-2.3 1-3.5 1s-2.5-.3-3.5-1-1.9-1.6-2.5-2.7c-.6-1.1-.9-2.4-.9-3.7 0-1.4.3-2.6.9-3.7s1.4-2 2.5-2.7c1-.7 2.2-1 3.5-1 1.3 0 2.5.3 3.6 1s1.9 1.6 2.6 2.7c.6 1.1.9 2.4.9 3.7 0 1.3-.3 2.6-1 3.7zM196.4 62c-1.3-1.7-2.9-3-4.8-4s-3.9-1.5-6.2-1.5c-2 0-3.8.4-5.5 1.2s-3.2 1.9-4.5 3.2c-1.3 1.4-2.3 3-3.1 4.8s-1.1 3.8-1.1 5.8c0 2.8.6 5.3 1.9 7.6 1.3 2.3 3 4.1 5.2 5.4 2.2 1.3 4.5 2 7.2 2 2.9 0 5.4-.8 7.7-2.4s4-3.7 5.2-6.2l-8-1.9c-.6.8-1.3 1.4-2.1 1.9s-1.7.7-2.7.7c-1 0-1.9-.2-2.7-.6-.8-.4-1.4-.9-1.9-1.6-.5-.7-.9-1.4-1.2-2.3h19.8c.4-2.3.3-4.5-.3-6.6-.6-1.9-1.6-3.8-2.9-5.5zm-17 6.5c.3-1 .7-1.8 1.3-2.6.6-.8 1.3-1.3 2.1-1.8.8-.4 1.7-.7 2.7-.7 1 0 1.9.2 2.7.7.8.4 1.5 1 2.1 1.8s1 1.6 1.3 2.6h-12.2zM218.4 56.6c-1.4 0-2.8.3-4.1.8s-2.4 1.2-3.3 2.1v-2.1h-7.9v28.5h7.9v-16c0-1 .2-1.9.7-2.7.5-.8 1.1-1.4 1.9-1.9.8-.5 1.7-.7 2.7-.7.7 0 1.4.1 2.1.4l3.1-8c-1-.2-2-.4-3.1-.4zM245.8 62c-1.3-1.7-2.9-3-4.8-4s-3.9-1.5-6.2-1.5c-2 0-3.8.4-5.5 1.2-1.7.8-3.2 1.9-4.5 3.2-1.3 1.4-2.3 3-3.1 4.8-.7 1.8-1.1 3.8-1.1 5.8 0 2.8.6 5.3 1.9 7.6 1.3 2.3 3 4.1 5.2 5.4s4.5 2 7.2 2c2.8 0 5.4-.8 7.7-2.4s4-3.7 5.2-6.2l-8-1.9c-.6.8-1.3 1.4-2.1 1.9s-1.7.7-2.7.7c-1 0-1.9-.2-2.7-.6-.8-.4-1.4-.9-1.9-1.6-.5-.7-.9-1.4-1.2-2.3H249c.4-2.3.3-4.5-.3-6.6-.6-1.9-1.6-3.8-2.9-5.5zm-17 6.5c.3-1 .7-1.8 1.3-2.6.6-.8 1.3-1.3 2.1-1.8.8-.4 1.7-.7 2.7-.7 1 0 1.9.2 2.7.7.8.4 1.5 1 2.1 1.8s1 1.6 1.3 2.6h-12.2zM272.4 58.6c-2.2-1.3-4.5-2-7.2-2-2 0-3.8.4-5.5 1.2s-3.2 1.9-4.5 3.2c-1.3 1.4-2.3 3-3.1 4.8s-1.1 3.8-1.1 5.9c0 2.8.6 5.3 1.9 7.5 1.3 2.3 3 4.1 5.2 5.4 2.2 1.3 4.5 2 7.2 2 2 0 3.8-.4 5.5-1.2 1.7-.8 3.2-1.9 4.5-3.2 1.3-1.4 2.3-3 3.1-4.8.7-1.8 1.1-3.7 1.1-5.8 0-2.8-.6-5.3-1.9-7.6-1.3-2.2-3-4-5.2-5.4zm-1.6 16.6c-.6 1.1-1.3 2-2.3 2.6s-2.1 1-3.3 1c-1.2 0-2.2-.3-3.2-.9s-1.7-1.5-2.3-2.6c-.6-1.1-.9-2.3-.9-3.6 0-1.3.3-2.5.8-3.6.6-1.1 1.3-2 2.3-2.6 1-.7 2.1-1 3.2-1 1.2 0 2.2.3 3.2 1 1 .6 1.7 1.5 2.3 2.6.6 1.1.9 2.3.9 3.6.1 1.2-.1 2.4-.7 3.5zM307.9 62.1c-1-1.7-2.4-3-4-4-1.7-1-3.6-1.5-5.6-1.5-1.4 0-2.8.3-4.1.8s-2.4 1.2-3.3 2.1v-2.1H283v28.5h7.9v-16c0-1 .2-1.9.7-2.7.5-.8 1.1-1.4 1.9-1.9.8-.5 1.7-.7 2.7-.7 1 0 1.9.2 2.7.7.8.5 1.5 1.1 1.9 1.9s.7 1.7.7 2.7v16h7.9V67.8c0-2.1-.5-4-1.5-5.7z"/>
</svg>
