<svg width="200" height="200" viewBox="0 0 200 200" fill="none" xmlns="http://www.w3.org/2000/svg">
<path d="M0 0H200V200H0V0Z" fill="black"/>
<path d="M79.6875 99.2188C79.6875 79.8025 95.4275 64.0625 114.844 64.0625H150V99.2188C150 118.635 134.26 134.375 114.844 134.375C95.4275 134.375 79.6875 118.635 79.6875 99.2188Z" fill="#FF9C3E"/>
<path d="M50 99.2188C50 79.8025 65.74 64.0625 85.1562 64.0625C104.573 64.0625 120.312 79.8025 120.312 99.2188C120.312 118.635 104.573 134.375 85.1562 134.375H50V99.2188Z" fill="#E90000"/>
<path d="M65.625 88.2812C65.625 86.9868 66.6743 85.9375 67.9688 85.9375H103.906C105.201 85.9375 106.25 86.9868 106.25 88.2812C106.25 89.5757 105.201 90.625 103.906 90.625H67.9687C66.6743 90.625 65.625 89.5757 65.625 88.2812Z" fill="white"/>
<path d="M65.625 99.2188C65.625 97.9243 66.6743 96.875 67.9688 96.875H103.906C105.201 96.875 106.25 97.9243 106.25 99.2188C106.25 100.513 105.201 101.562 103.906 101.562H67.9687C66.6743 101.562 65.625 100.513 65.625 99.2188Z" fill="white"/>
<path d="M65.625 110.156C65.625 108.862 66.6743 107.812 67.9688 107.812H88.2812C89.5757 107.812 90.625 108.862 90.625 110.156C90.625 111.451 89.5757 112.5 88.2812 112.5H67.9688C66.6743 112.5 65.625 111.451 65.625 110.156Z" fill="white"/>
</svg>
