<svg width="584" height="384" viewBox="0 0 584 384" fill="none" xmlns="http://www.w3.org/2000/svg">
<g filter="url(#filter0_dd)">
<path d="M557.714 48H42.2857C38.8142 48 36 50.0649 36 52.612V355.159C36 357.707 38.8142 359.771 42.2857 359.771H557.714C561.186 359.771 564 357.707 564 355.159V52.612C564 50.0649 561.186 48 557.714 48Z" fill="white"/>
<path d="M42.2857 48.5H557.714C559.355 48.5 560.82 48.9886 561.863 49.754C562.907 50.5195 563.5 51.5359 563.5 52.612V355.159C563.5 356.236 562.907 357.252 561.863 358.017C560.82 358.783 559.355 359.271 557.714 359.271H42.2857C40.6452 359.271 39.1799 358.783 38.1368 358.017C37.0934 357.252 36.5 356.236 36.5 355.159V52.612C36.5 51.5359 37.0934 50.5195 38.1368 49.754C39.1799 48.9886 40.6452 48.5 42.2857 48.5Z" stroke="#EAECED"/>
</g>
<path d="M557.714 49.2571H42.2857C39.5085 49.2571 37.2571 50.9055 37.2571 52.9388V354.833C37.2571 356.866 39.5085 358.514 42.2857 358.514H557.714C560.492 358.514 562.743 356.866 562.743 354.833V52.9388C562.743 50.9055 560.492 49.2571 557.714 49.2571Z" stroke="#ADBACC" stroke-opacity="0.2" stroke-width="2"/>
<path d="M551.567 84.4571H179.176C177.169 84.4571 175.543 85.8039 175.543 87.4653V334.135C175.543 335.796 177.169 337.143 179.176 337.143H551.567C553.573 337.143 555.2 335.796 555.2 334.135V87.4653C555.2 85.8039 553.573 84.4571 551.567 84.4571Z" fill="white" stroke="#ADBACC" stroke-opacity="0.2" stroke-width="2"/>
<path d="M161.714 55.5428H48.5714C45.7942 55.5428 43.5429 57.147 43.5429 59.1259V344.874C43.5429 346.853 45.7942 348.457 48.5714 348.457H161.714C164.491 348.457 166.743 346.853 166.743 344.874V59.1259C166.743 57.147 164.491 55.5428 161.714 55.5428Z" fill="#4D394B" fill-opacity="0.07"/>
<path d="M161.714 56.8H48.5714C46.4885 56.8 44.8 58.0038 44.8 59.4889V344.511C44.8 345.996 46.4885 347.2 48.5714 347.2H161.714C163.797 347.2 165.486 345.996 165.486 344.511V59.4889C165.486 58.0038 163.797 56.8 161.714 56.8Z" fill="#F7F9FE"/>
<rect x="184.343" y="117.143" width="60.3429" height="17.6" rx="1" fill="white"/>
<rect x="184.843" y="117.643" width="59.3429" height="16.6" rx="0.5" stroke="#ADBACC" stroke-opacity="0.4"/>
<path d="M228.778 124.686H200.441C199.882 124.686 199.429 125.14 199.429 125.7V126.714C199.429 127.274 199.882 127.728 200.441 127.728H228.778C229.337 127.728 229.79 127.274 229.79 126.714V125.7C229.79 125.14 229.337 124.686 228.778 124.686Z" fill="#506677" fill-opacity="0.15"/>
<rect x="248.457" y="117.143" width="21.3714" height="17.6" rx="1" fill="white"/>
<rect x="248.957" y="117.643" width="20.3714" height="16.6" rx="0.5" stroke="#ADBACC" stroke-opacity="0.4"/>
<path d="M264.423 124.686H253.863C253.655 124.686 253.486 125.061 253.486 125.524V126.362C253.486 126.825 253.655 127.2 253.863 127.2H264.423C264.631 127.2 264.8 126.825 264.8 126.362V125.524C264.8 125.061 264.631 124.686 264.423 124.686Z" fill="#506677" fill-opacity="0.15"/>
<path d="M544.812 92H472.559C471.682 92 470.971 92.927 470.971 94.0706V107.529C470.971 108.673 471.682 109.6 472.559 109.6H544.812C545.689 109.6 546.4 108.673 546.4 107.529V94.0706C546.4 92.927 545.689 92 544.812 92Z" fill="#0477FE"/>
<path opacity="0.5" d="M520.461 99.5428H498.168C497.728 99.5428 497.371 99.9181 497.371 100.381V101.219C497.371 101.682 497.728 102.057 498.168 102.057H520.461C520.901 102.057 521.257 101.682 521.257 101.219V100.381C521.257 99.9181 520.901 99.5428 520.461 99.5428Z" fill="white" fill-opacity="0.5"/>
<rect x="210.743" y="143.543" width="33.9429" height="6.28571" rx="1" fill="#E5E8EB"/>
<rect x="184.343" y="143.543" width="6.28571" height="6.28571" rx="1" fill="white"/>
<rect x="184.843" y="144.043" width="5.28571" height="5.28571" rx="0.5" stroke="#ADBACC" stroke-opacity="0.4"/>
<rect x="315.086" y="318.286" width="26.4" height="6.28571" rx="1" fill="#506677" fill-opacity="0.15"/>
<rect x="344" y="314.514" width="13.8286" height="12.5714" rx="1" fill="white"/>
<rect x="344.5" y="315.014" width="12.8286" height="11.5714" rx="0.5" stroke="#ADBACC" stroke-opacity="0.4"/>
<path d="M352.674 319.543H349.154C349.085 319.543 349.029 319.918 349.029 320.381V321.219C349.029 321.682 349.085 322.057 349.154 322.057H352.674C352.744 322.057 352.8 321.682 352.8 321.219V320.381C352.8 319.918 352.744 319.543 352.674 319.543Z" fill="#506677" fill-opacity="0.15"/>
<rect x="361.6" y="319.543" width="26.4" height="3.77143" rx="1" fill="#506677" fill-opacity="0.15"/>
<rect x="393.029" y="314.514" width="13.8286" height="12.5714" rx="1" fill="white"/>
<rect x="393.529" y="315.014" width="12.8286" height="11.5714" rx="0.5" stroke="#ADBACC" stroke-opacity="0.4"/>
<path d="M401.703 319.543H398.183C398.113 319.543 398.057 319.918 398.057 320.381V321.219C398.057 321.682 398.113 322.057 398.183 322.057H401.703C401.772 322.057 401.829 321.682 401.829 321.219V320.381C401.829 319.918 401.772 319.543 401.703 319.543Z" fill="#506677" fill-opacity="0.15"/>
<rect x="184.343" y="163.657" width="15.0857" height="3.77143" rx="1" fill="#506677" fill-opacity="0.15"/>
<rect x="210.743" y="163.657" width="101.829" height="3.77143" rx="1" fill="#506677" fill-opacity="0.15"/>
<rect x="344" y="163.657" width="52.8" height="3.77143" rx="1" fill="#506677" fill-opacity="0.15"/>
<rect x="428.229" y="163.657" width="52.8" height="3.77143" rx="1" fill="#506677" fill-opacity="0.15"/>
<rect x="512.457" y="163.657" width="33.9429" height="3.77143" rx="1" fill="#506677" fill-opacity="0.15"/>
<rect x="184.343" y="183.771" width="15.0857" height="3.77143" rx="1" fill="#506677" fill-opacity="0.15"/>
<rect x="210.743" y="183.771" width="101.829" height="3.77143" rx="1" fill="#506677" fill-opacity="0.15"/>
<rect x="344" y="183.771" width="52.8" height="3.77143" rx="1" fill="#506677" fill-opacity="0.15"/>
<rect x="428.229" y="183.771" width="52.8" height="3.77143" rx="1" fill="#506677" fill-opacity="0.15"/>
<rect x="512.457" y="183.771" width="33.9429" height="3.77143" rx="1" fill="#506677" fill-opacity="0.15"/>
<rect x="184.343" y="203.886" width="15.0857" height="3.77143" rx="1" fill="#506677" fill-opacity="0.15"/>
<rect x="210.743" y="203.886" width="101.829" height="3.77143" rx="1" fill="#506677" fill-opacity="0.15"/>
<rect x="344" y="203.886" width="52.8" height="3.77143" rx="1" fill="#506677" fill-opacity="0.15"/>
<rect x="428.229" y="203.886" width="52.8" height="3.77143" rx="1" fill="#506677" fill-opacity="0.15"/>
<rect x="512.457" y="203.886" width="33.9429" height="3.77143" rx="1" fill="#506677" fill-opacity="0.15"/>
<rect x="184.343" y="224" width="15.0857" height="3.77143" rx="1" fill="#506677" fill-opacity="0.15"/>
<rect x="210.743" y="224" width="101.829" height="3.77143" rx="1" fill="#506677" fill-opacity="0.15"/>
<rect x="344" y="224" width="52.8" height="3.77143" rx="1" fill="#506677" fill-opacity="0.15"/>
<rect x="428.229" y="224" width="52.8" height="3.77143" rx="1" fill="#506677" fill-opacity="0.15"/>
<rect x="512.457" y="224" width="33.9429" height="3.77143" rx="1" fill="#506677" fill-opacity="0.15"/>
<rect x="184.343" y="244.114" width="15.0857" height="3.77143" rx="1" fill="#506677" fill-opacity="0.15"/>
<rect x="210.743" y="244.114" width="101.829" height="3.77143" rx="1" fill="#506677" fill-opacity="0.15"/>
<rect x="344" y="244.114" width="52.8" height="3.77143" rx="1" fill="#506677" fill-opacity="0.15"/>
<rect x="428.229" y="244.114" width="52.8" height="3.77143" rx="1" fill="#506677" fill-opacity="0.15"/>
<rect x="512.457" y="244.114" width="33.9429" height="3.77143" rx="1" fill="#506677" fill-opacity="0.15"/>
<rect x="184.343" y="264.229" width="15.0857" height="3.77143" rx="1" fill="#506677" fill-opacity="0.15"/>
<rect x="210.743" y="264.229" width="101.829" height="3.77143" rx="1" fill="#506677" fill-opacity="0.15"/>
<rect x="344" y="264.229" width="52.8" height="3.77143" rx="1" fill="#506677" fill-opacity="0.15"/>
<rect x="428.229" y="264.229" width="52.8" height="3.77143" rx="1" fill="#506677" fill-opacity="0.15"/>
<rect x="512.457" y="264.229" width="33.9429" height="3.77143" rx="1" fill="#506677" fill-opacity="0.15"/>
<rect x="184.343" y="284.343" width="15.0857" height="3.77143" rx="1" fill="#506677" fill-opacity="0.15"/>
<rect x="210.743" y="284.343" width="101.829" height="3.77143" rx="1" fill="#506677" fill-opacity="0.15"/>
<rect x="344" y="284.343" width="52.8" height="3.77143" rx="1" fill="#506677" fill-opacity="0.15"/>
<rect x="428.229" y="284.343" width="52.8" height="3.77143" rx="1" fill="#506677" fill-opacity="0.15"/>
<rect x="512.457" y="284.343" width="33.9429" height="3.77143" rx="1" fill="#506677" fill-opacity="0.15"/>
<rect x="344" y="143.543" width="33.9429" height="6.28571" rx="1" fill="#E5E8EB"/>
<rect x="428.229" y="143.543" width="33.9429" height="6.28571" rx="1" fill="#E5E8EB"/>
<rect x="512.457" y="143.543" width="33.9429" height="6.28571" rx="1" fill="#E5E8EB"/>
<path d="M187.539 96.2495V104H188.925V101.438H190.493C192.062 101.438 193.163 100.391 193.163 98.8438C193.163 97.2969 192.094 96.2495 190.552 96.2495H187.539ZM188.925 97.3828H190.187C191.181 97.3828 191.756 97.9146 191.756 98.8438C191.756 99.7837 191.176 100.321 190.182 100.321H188.925V97.3828ZM195.301 104.091C196.031 104.091 196.745 103.71 197.073 103.092H197.1V104H198.389V100.079C198.389 98.9351 197.47 98.1885 196.058 98.1885C194.608 98.1885 193.7 98.9512 193.641 100.015H194.882C194.967 99.542 195.37 99.2358 196.004 99.2358C196.665 99.2358 197.068 99.5796 197.068 100.176V100.584L195.564 100.67C194.178 100.756 193.399 101.363 193.399 102.373C193.399 103.398 194.199 104.091 195.301 104.091ZM195.703 103.082C195.123 103.082 194.737 102.786 194.737 102.319C194.737 101.868 195.107 101.578 195.752 101.535L197.068 101.454V101.889C197.068 102.577 196.461 103.082 195.703 103.082ZM201.977 106.148C203.636 106.148 204.727 105.268 204.727 103.909V98.3066H203.416V99.2842H203.395C203.067 98.6289 202.412 98.21 201.601 98.21C200.145 98.21 199.232 99.3325 199.232 101.132C199.232 102.904 200.167 104.005 201.574 104.005C202.39 104.005 203.062 103.597 203.357 102.985H203.389V103.946C203.389 104.671 202.89 105.16 202.02 105.16C201.386 105.16 200.897 104.865 200.752 104.43H199.426C199.56 105.429 200.57 106.148 201.977 106.148ZM201.982 102.942C201.139 102.942 200.602 102.265 200.602 101.137C200.602 100.02 201.139 99.311 201.982 99.311C202.836 99.311 203.389 100.031 203.389 101.137C203.389 102.249 202.836 102.942 201.982 102.942ZM209.588 102.297C209.443 102.77 208.97 103.082 208.347 103.082C207.471 103.082 206.913 102.469 206.913 101.556V101.476H210.893V101.041C210.893 99.311 209.883 98.1885 208.266 98.1885C206.623 98.1885 205.581 99.3755 205.581 101.175C205.581 102.99 206.612 104.113 208.32 104.113C209.668 104.113 210.667 103.372 210.839 102.297H209.588ZM208.272 99.2251C209.04 99.2251 209.555 99.7891 209.582 100.595H206.924C206.977 99.7998 207.52 99.2251 208.272 99.2251ZM211.655 99.9395C211.655 100.783 212.203 101.32 213.294 101.562L214.239 101.771C214.835 101.905 215.039 102.099 215.039 102.442C215.039 102.867 214.636 103.135 213.987 103.135C213.31 103.135 212.928 102.856 212.826 102.303H211.51C211.618 103.404 212.499 104.113 213.987 104.113C215.383 104.113 216.371 103.388 216.371 102.313C216.371 101.486 215.915 101.03 214.733 100.767L213.788 100.557C213.192 100.423 212.955 100.197 212.955 99.8696C212.955 99.4507 213.347 99.1714 213.938 99.1714C214.556 99.1714 214.937 99.499 214.991 100.015H216.237C216.205 98.9351 215.324 98.1885 213.938 98.1885C212.563 98.1885 211.655 98.8975 211.655 99.9395Z" fill="#506677"/>
<rect x="52.3429" y="118.4" width="6.28571" height="6.28571" rx="1" fill="#506677" fill-opacity="0.15"/>
<path d="M108.286 162.4H63.0286C61.9871 162.4 61.1429 162.963 61.1429 163.657V164.914C61.1429 165.609 61.9871 166.171 63.0286 166.171H108.286C109.327 166.171 110.171 165.609 110.171 164.914V163.657C110.171 162.963 109.327 162.4 108.286 162.4Z" fill="#506677" fill-opacity="0.15"/>
<rect x="52.3429" y="161.143" width="6.28571" height="6.28571" rx="1" fill="#506677" fill-opacity="0.15"/>
<rect x="52.3429" y="193.829" width="6.28571" height="6.28571" rx="1" fill="#506677" fill-opacity="0.15"/>
<rect x="52.3429" y="210.171" width="6.28571" height="6.28571" rx="1" fill="#506677" fill-opacity="0.15"/>
<path d="M81.8857 178.743H63.0286C61.9871 178.743 61.1429 179.306 61.1429 180V181.257C61.1429 181.951 61.9871 182.514 63.0286 182.514H81.8857C82.9272 182.514 83.7714 181.951 83.7714 181.257V180C83.7714 179.306 82.9272 178.743 81.8857 178.743Z" fill="#506677" fill-opacity="0.7"/>
<rect x="52.3429" y="177.486" width="6.28571" height="6.28571" rx="1" fill="#506677" fill-opacity="0.7"/>
<path d="M76.7873 195.086H63.0984C62.0184 195.086 61.1429 195.649 61.1429 196.343V197.6C61.1429 198.294 62.0184 198.857 63.0984 198.857H76.7873C77.8673 198.857 78.7429 198.294 78.7429 197.6V196.343C78.7429 195.649 77.8673 195.086 76.7873 195.086Z" fill="#506677" fill-opacity="0.15"/>
<path d="M95.6812 211.429H63.0617C62.0019 211.429 61.1429 211.991 61.1429 212.686V213.943C61.1429 214.637 62.0019 215.2 63.0617 215.2H95.6812C96.7409 215.2 97.6 214.637 97.6 213.943V212.686C97.6 211.991 96.7409 211.429 95.6812 211.429Z" fill="#506677" fill-opacity="0.15"/>
<path d="M96.9714 119.657H63.0286C61.9871 119.657 61.1429 120.22 61.1429 120.914V122.171C61.1429 122.866 61.9871 123.429 63.0286 123.429H96.9714C98.0129 123.429 98.8571 122.866 98.8571 122.171V120.914C98.8571 120.22 98.0129 119.657 96.9714 119.657Z" fill="#506677" fill-opacity="0.15"/>
<path d="M97.6 100.8H54.8571C54.1628 100.8 53.6 101.363 53.6 102.057V105.829C53.6 106.523 54.1628 107.086 54.8571 107.086H97.6C98.2943 107.086 98.8571 106.523 98.8571 105.829V102.057C98.8571 101.363 98.2943 100.8 97.6 100.8Z" fill="#506677" fill-opacity="0.15"/>
<path d="M127.771 142.286H54.8571C54.1628 142.286 53.6 142.849 53.6 143.543V147.314C53.6 148.009 54.1628 148.571 54.8571 148.571H127.771C128.466 148.571 129.029 148.009 129.029 147.314V143.543C129.029 142.849 128.466 142.286 127.771 142.286Z" fill="#506677" fill-opacity="0.15"/>
<rect x="533.829" y="69.3714" width="36.4571" height="6.28571" rx="1" transform="rotate(-180 533.829 69.3714)" fill="#506677" fill-opacity="0.15"/>
<rect x="553.943" y="74.4" width="15.0857" height="15.0857" rx="7.54286" transform="rotate(-180 553.943 74.4)" fill="#506677" fill-opacity="0.15"/>
<rect x="73.7143" y="70.6285" width="36.4571" height="6.28571" rx="1" fill="#506677" fill-opacity="0.15"/>
<rect x="53.6" y="65.6" width="15.0857" height="15.0857" rx="1" fill="#0477FE"/>
<path d="M63.8776 76.9143H60.6129C60.5086 76.9146 60.4053 76.8943 60.3089 76.8543C60.2125 76.8144 60.125 76.7557 60.0515 76.6817L57.5633 74.1925C57.4716 74.1008 57.4092 73.984 57.384 73.8568C57.3587 73.7296 57.3718 73.5978 57.4214 73.478C57.4711 73.3582 57.5552 73.2559 57.663 73.1839C57.7708 73.112 57.8976 73.0736 58.0272 73.0737H61.0748V70.0241C61.0748 69.8947 61.1132 69.7682 61.1851 69.6608C61.2571 69.5533 61.3593 69.4695 61.4789 69.4203C61.5987 69.3715 61.7302 69.3589 61.8571 69.384C61.9841 69.4092 62.1008 69.4709 62.193 69.5617L64.6821 72.05C64.756 72.1237 64.8145 72.2113 64.8544 72.3078C64.8942 72.4042 64.9146 72.5076 64.9143 72.6119V75.8776C64.9139 76.1525 64.8046 76.416 64.6102 76.6104C64.4159 76.8047 64.1524 76.914 63.8776 76.9143ZM60.7488 75.7924H63.7928V72.7477L62.1965 71.1509V74.1956H59.1527L60.7488 75.7924Z" fill="#F7F9FE"/>
<defs>
<filter id="filter0_dd" x="0" y="0" width="600" height="383.771" filterUnits="userSpaceOnUse" color-interpolation-filters="sRGB">
<feFlood flood-opacity="0" result="BackgroundImageFix"/>
<feColorMatrix in="SourceAlpha" type="matrix" values="0 0 0 0 0 0 0 0 0 0 0 0 0 0 0 0 0 0 127 0"/>
<feOffset dx="15" dy="-4"/>
<feGaussianBlur stdDeviation="7.5"/>
<feColorMatrix type="matrix" values="0 0 0 0 0 0 0 0 0 0 0 0 0 0 0 0 0 0 0.05 0"/>
<feBlend mode="normal" in2="BackgroundImageFix" result="effect1_dropShadow"/>
<feColorMatrix in="SourceAlpha" type="matrix" values="0 0 0 0 0 0 0 0 0 0 0 0 0 0 0 0 0 0 127 0"/>
<feOffset dy="-12"/>
<feGaussianBlur stdDeviation="18"/>
<feColorMatrix type="matrix" values="0 0 0 0 0 0 0 0 0 0 0 0 0 0 0 0 0 0 0.1 0"/>
<feBlend mode="normal" in2="effect1_dropShadow" result="effect2_dropShadow"/>
<feBlend mode="normal" in="SourceGraphic" in2="effect2_dropShadow" result="shape"/>
</filter>
</defs>
</svg>
