<svg width="37" height="37" viewBox="0 0 37 37" fill="none" xmlns="http://www.w3.org/2000/svg">
<path d="M0 18.5C0 8.28273 8.28273 0 18.5 0V0C28.7173 0 37 8.28273 37 18.5V18.5C37 28.7173 28.7173 37 18.5 37V37C8.28273 37 0 28.7173 0 18.5V18.5Z" fill="url(#paint0_linear_138_426)"/>
<path d="M29.8469 28.9835C30.7513 30.7101 31.2035 37.0001 31.2035 37.0001H5.79688C5.79688 37.0001 6.24914 30.7101 7.15354 28.9835C8.51021 26.3935 18.5002 23.0635 18.5002 23.0635C18.5002 23.0635 28.4902 26.3935 29.8469 28.9835Z" fill="url(#paint1_linear_138_426)"/>
<path d="M29.0418 21.634L9.0054 19.2126C8.01758 13.9686 9.18925 10.6647 12.5204 9.30068C14.0603 4.25499 20.054 4.66545 21.7529 5.07676C27.5342 6.47668 29.9638 11.9958 29.0418 21.634Z" fill="url(#paint2_linear_138_426)"/>
<path d="M15.5404 24.5432V17.1432C12.4544 17.0971 13.0563 11.7496 16.157 13.3815C16.712 13.6282 18.1304 12.9499 17.637 11.2849C20.967 13.7515 25.6073 9.42252 25.9004 12.0865C26.477 17.3295 25.3613 21.6389 22.4029 21.6392C22.0876 21.6512 21.772 21.6324 21.4604 21.5832V24.5432C20.4947 25.1188 19.529 25.4065 18.5633 25.4065C17.5976 25.4065 16.5899 25.1188 15.5404 24.5432Z" fill="url(#paint3_linear_138_426)"/>
<path d="M21.4602 21.5835V22.5701C19.6102 22.5701 18.1713 21.6862 17.1436 19.9185C18.3769 20.7407 19.8158 21.2957 21.4602 21.5835Z" fill="#DB6F3D"/>
<path d="M18.4961 25.2804C19.3398 25.2401 21.4601 24.8035 21.4601 23.8602V23.0635C21.6863 23.0635 22.3339 23.5978 22.6671 24.0501C23.9838 25.8385 22.5233 27.4418 21.3321 27.4418C19.8292 27.4418 18.8331 26.186 18.5001 25.5819C18.1671 26.1863 17.1711 27.4418 15.6681 27.4418C14.477 27.4418 13.0165 25.8385 14.3332 24.0501C14.6663 23.5978 15.3139 23.0635 15.5401 23.0635V23.8602C15.5401 24.8035 17.6047 25.2401 18.4961 25.2804Z" fill="white"/>
<defs>
<linearGradient id="paint0_linear_138_426" x1="18.5" y1="0" x2="18.5" y2="37" gradientUnits="userSpaceOnUse">
<stop stop-color="#FFDEDE"/>
<stop offset="1" stop-color="#FFA89D"/>
</linearGradient>
<linearGradient id="paint1_linear_138_426" x1="18.5002" y1="37.0001" x2="18.5002" y2="23.0635" gradientUnits="userSpaceOnUse">
<stop stop-color="#FF2424"/>
<stop offset="0.822917" stop-color="#9D645A"/>
<stop offset="1" stop-color="#FFD2C2"/>
<stop offset="1" stop-color="#4D2F2F"/>
</linearGradient>
<linearGradient id="paint2_linear_138_426" x1="18.9493" y1="4.85107" x2="18.9493" y2="21.634" gradientUnits="userSpaceOnUse">
<stop stop-color="#1D0024"/>
<stop offset="1" stop-color="#100014"/>
</linearGradient>
<linearGradient id="paint3_linear_138_426" x1="19.7767" y1="11.1841" x2="19.7767" y2="25.4065" gradientUnits="userSpaceOnUse">
<stop stop-color="#E6864E"/>
<stop offset="1" stop-color="#EB965E"/>
</linearGradient>
</defs>
</svg>
