<svg width="37" height="37" viewBox="0 0 37 37" fill="none" xmlns="http://www.w3.org/2000/svg">
<g clip-path="url(#clip0_138_455)">
<path d="M0 18.5C0 8.28273 8.28273 0 18.5 0V0C28.7173 0 37 8.28273 37 18.5V18.5C37 28.7173 28.7173 37 18.5 37V37C8.28273 37 0 28.7173 0 18.5V18.5Z" fill="url(#paint0_linear_138_455)"/>
<path d="M22.4471 21.7064V24.4198C22.4471 24.6884 18.5004 25.5016 18.5004 25.5016C18.5004 25.5016 14.5538 24.803 14.5538 24.4198C14.5538 23.6946 14.5686 20.0538 14.5538 16.6729C12.7861 14.3818 12.7861 12.9498 14.1838 11.4698C15.5814 9.98976 25.5304 9.24976 25.5304 9.24976C25.5304 9.24976 26.2768 16.429 26.3938 18.3764C26.4408 19.1596 26.9488 21.7064 24.9754 21.7064H22.4471Z" fill="url(#paint1_linear_138_455)"/>
<path d="M22.4466 21.4749V22.9595C19.8033 22.4887 18.2822 21.4954 17.8833 19.9797C19.0344 20.7608 20.5144 21.2542 22.3233 21.4597C22.3644 21.4644 22.4055 21.4695 22.4466 21.4749Z" fill="#DE6530"/>
<path d="M31.4502 30.0077C32.2329 31.5993 32.8496 34.2304 33.3002 37.901H3.7002C4.15094 34.23 4.7676 31.5989 5.5502 30.0077C6.33016 28.4218 13.5669 25.3693 13.5669 25.3693L23.4335 25.3684C23.4335 25.3684 30.6717 28.425 31.4502 30.0077Z" fill="url(#paint2_linear_138_455)"/>
<path d="M19.3634 26.1465L19.98 37.4931H17.02L17.6367 26.1465C17.6367 26.1465 18.2123 25.5298 18.5 25.5298C18.7878 25.5298 19.3634 26.1465 19.3634 26.1465Z" fill="url(#paint3_linear_138_455)"/>
<path d="M19.4884 28.4427L17.5723 27.3356L17.6369 26.1465C18.0206 25.7353 18.3084 25.5298 18.5002 25.5298C18.6921 25.5298 18.9798 25.7353 19.3636 26.1465L19.4884 28.4427Z" fill="#D24B24"/>
<path d="M18.5 25.5288L17.2667 27.7499L13.4434 25.4066L14.5534 23.8032L18.5 25.2611L22.4467 23.8032L23.5567 25.4066L19.7334 27.7499L18.5 25.5288Z" fill="white"/>
<path d="M16.1594 12.9752C15.7672 12.6384 15.2906 12.4116 14.617 12.7616C13.0199 13.5908 14.0798 16.7898 15.8671 16.7274C16.4837 16.7059 16.2011 17.9348 14.5536 18.7465C14.5536 17.4515 12.5802 14.2448 12.4076 11.3253C10.4219 10.5859 10.9152 7.62749 12.2784 7.62749C12.0609 4.91527 16.4036 3.51445 18.0851 5.07079C19.7952 3.02111 24.1119 4.06945 24.3725 5.84767C27.3408 4.2632 29.2919 8.81778 26.5126 10.5859C25.3689 11.3136 22.6936 11.5904 18.8316 11.5904C16.9784 11.5904 18.0441 15.9281 18.6236 17.3282C19.3636 19.1165 23.4952 19.3632 24.7902 19.1782C25.8016 19.0337 26.3319 18.6232 26.3936 18.3765C27.3186 20.8432 26.1469 22.3232 24.2969 22.3232C21.1519 22.3232 18.0069 21.3982 17.5136 19.1165C17.1209 17.3006 17.1425 14.3701 16.1594 12.9752Z" fill="url(#paint4_linear_138_455)"/>
</g>
<defs>
<linearGradient id="paint0_linear_138_455" x1="18.5" y1="37" x2="18.5" y2="0" gradientUnits="userSpaceOnUse">
<stop stop-color="#FFC9B3"/>
<stop offset="1" stop-color="#FFD2C2"/>
</linearGradient>
<linearGradient id="paint1_linear_138_455" x1="19.8321" y1="9.24976" x2="19.8321" y2="25.5016" gradientUnits="userSpaceOnUse">
<stop stop-color="#E6864E"/>
<stop offset="1" stop-color="#EB965E"/>
</linearGradient>
<linearGradient id="paint2_linear_138_455" x1="18.5002" y1="25.3684" x2="18.5002" y2="37.901" gradientUnits="userSpaceOnUse">
<stop stop-color="#130027"/>
<stop offset="1" stop-color="#130017"/>
</linearGradient>
<linearGradient id="paint3_linear_138_455" x1="18.5" y1="37.4931" x2="18.5" y2="25.5298" gradientUnits="userSpaceOnUse">
<stop stop-color="#E6864E"/>
<stop offset="1" stop-color="#E67240"/>
</linearGradient>
<linearGradient id="paint4_linear_138_455" x1="19.4682" y1="3.9458" x2="19.4682" y2="22.3232" gradientUnits="userSpaceOnUse">
<stop stop-color="#130027"/>
<stop offset="1" stop-color="#130017"/>
</linearGradient>
<clipPath id="clip0_138_455">
<path d="M0 18.5C0 8.28273 8.28273 0 18.5 0V0C28.7173 0 37 8.28273 37 18.5V18.5C37 28.7173 28.7173 37 18.5 37V37C8.28273 37 0 28.7173 0 18.5V18.5Z" fill="white"/>
</clipPath>
</defs>
</svg>
