<svg xmlns="http://www.w3.org/2000/svg" xmlns:xlink="http://www.w3.org/1999/xlink" width="300" height="60"><style>.B{fill:#251802}</style><g transform="translate(1.181 5.339) scale(.7874)"><defs><path id="A" d="m375.3 11 .7 50.8H2L1.3 11z"/></defs><clipPath id="B"><use xlink:href="#A"/></clipPath><path d="M13 39.2V25.5l-4.5 1.8s-1.1 2.3-.9 5.7c.1 2.7 1.7 5.8 2.9 7.2zM25.1 11c1 .1 2.7.6 3.9 1.6 1.3 1.2 1.6 3.1 1.2 4.8-.4 1.5-.9 2.3-2.5 3.4S24.9 22 24.9 22v6.6L28 31l-3.1 2.8v9s2.6-2.1 4.6-6.2c0 0 .1-.2.3-.7.2 1.1.1 3.4-1.2 6.2-1 2.2-2.7 4.2-5 5.4-3.9 2.1-6.9 2.3-10 1.7-3.7-.7-7.1-2.7-9.3-6.2C2.7 40.5 2 37.7 2 34.6c.1-6.1 4.8-11.3 10.2-13.3.7-.2.9-.4 1.8-.5-.4.3-.9.6-1.5 1-1.7 1.1-3.2 3.3-3.9 5L19 22.3v14.1l-8.3 4.1c1 1.3 3.9 3.2 6.4 3.5 4.2.5 7-1.1 7-1.1v-9.2L21 31l3.1-2.4V22c-1.8-.2-4.3-1-5.5-1.3-1.9-.4-8.1-2.1-9.1-2.3-1-.1-2.2-.1-2.9.5s-1.2 1.8-.9 2.8c.2.6.6.9.9 1.2 0 0-.4 0-1-.4-1.2-.7-2.1-2-2.2-3.7A6.2 6.2 0 0 1 6 13.4c1.6-1 3.4-1.6 5.5-1.3 3.1.4 7.2 2.1 10.9 3 1.4.3 2.5.4 3.5-.1.5-.3 1.3-1.2.6-2.3-.8-1.3-2.3-1.3-3.6-1.5 1.2-.2 1.4-.2 2.2-.2" clip-path="url(#B)" class="B"/><defs><path id="C" d="m375.3 11 .7 50.8H2L1.3 11z"/></defs><clipPath id="D"><use xlink:href="#C"/></clipPath><path d="M65.8 35.6 61 39V27.8zm-.2-10.8-5.3 3.1-5 2.6v13L53.4 45l.3.3 1.9-1.5 5.9 5.1 10.2-7.8-.2-.3-5.7 4.3L61 41v-1.6l9.3-6.6z" clip-path="url(#D)" class="B"/><defs><path id="E" d="m375.3 11 .7 50.8H2L1.3 11z"/></defs><clipPath id="F"><use xlink:href="#E"/></clipPath><path d="M38.8 54c1.3.3 3.7.5 6.6-.9 3.2-1.5 4.4-4.8 4.4-8.1l.1-4.7V29.9l2-1.5-.2-.3-2 1.5-4.3-5-6.6 4.9V12.9l-6.7 5.5c.3.2 1.8.4 1.8 1.8v23.3l-3.5 2.2.2.3 1.5-1.1 4.2 3.8 6.6-5.1-.2-.3-1.6 1.2-2.2-1.5V30l2.6-1.6 3.6 3.7v11.2c0 3-.8 6.5-2.4 8.3s-2.2 1.9-3.9 2.4" clip-path="url(#F)" class="B"/><defs><path id="G" d="m375.3 11 .7 50.8H2L1.3 11z"/></defs><clipPath id="H"><use xlink:href="#G"/></clipPath><path d="M84.6 52.8c-2.6-.3-3.7-1.8-3.7-3.1 0-.8.8-2.3 2.4-2.5s3.2.5 4.6 2.1l6.1-6.5-.3-.3-1.6 1.8c-1.7-1.8-3.7-3-6.1-3.3V21.1L101.5 49s.4.3 1.1.3c.6 0 .4-.4.4-.4V20.8c1.3 0 3-.7 4-1.7 3-3 1.8-6.3 1.5-6.7-.2 1.4-1.3 2.9-3.2 2.9-2.5 0-4-1.8-4-1.8L95 20.3l.3.3 1.7-1.9c2.1 1.9 3.3 2.1 4.9 2.2v16.3L90.6 16.5c-1.1-1.7-2.7-3.2-5.2-3.2-2.9 0-5 2.5-5.3 4.6-.3 2.4 0 3 0 3s.4-2.7 2.1-2.7c1.5 0 2 .8 2.7 1.8v6.6c-1.6.1-5.4.3-5.7 4.5 0 1.6 1 3.2 1.9 3.7 1.1.7 2 .7 2 .7s-1.3-.7-.9-2.1c.4-1.2 2.7-1.4 2.8-.9v8.4c-1.3 0-5 .1-6.9 3.5-1.1 2-1 4.3.1 5.9 1 1.4 3 3.1 6.4 2.5" clip-path="url(#H)" class="B"/><defs><path id="I" d="m375.3 11 .7 50.8H2L1.3 11z"/></defs><clipPath id="J"><use xlink:href="#I"/></clipPath><path d="M118.2 35.6 113 39V27.8zm-.2-10.8-5.4 3.1-4.7 2.6v13L106 45l.3.3 1.9-1.5 5.5 5.1 10.2-7.8-.2-.3-5.7 4.3-4.6-4.2v-1.6l9.3-6.6z" clip-path="url(#J)" class="B"/><defs><path id="K" d="m375.3 11 .7 50.8H2L1.3 11z"/></defs><clipPath id="L"><use xlink:href="#K"/></clipPath><path d="m132.4 49.2-5-4-2.2 1.5-.2-.3 2.2-1.6V33.5c.1-4.6-4.4-3.5-4.1-8.4.1-2.2 2.3-3.8 3.4-4.3 1.2-.6 2.4-.6 2.4-.6s-2.1 1.2-1.6 3c.8 2.8 5.6 3 5.7 6.7v12.8l3.1 2.8.9-.7V30.9l-1.4-1.9 5-4.3 4.6 3.9-2.1 1.8v12.3l4.6 3.4.8-.5V30.9l-1.9-1.8 5-4.4 4.7 3.7 1.9-1.6.2.3-4.2 3.6v12l-10.7 6.4L138 45z" clip-path="url(#L)" class="B"/><defs><path id="M" d="m375.3 11 .7 50.8H2L1.3 11z"/></defs><clipPath id="N"><use xlink:href="#M"/></clipPath><g class="B"><path d="M352.3 35.6 347 39V27.8zm-.1-10.8-5.4 3.1-4.9 2.6v13l-2.1 1.5.3.3 1.9-1.5 5.9 5.1 10.2-7.8-.2-.3-5.7 4.3-4.7-4.2v-1.6l9.3-6.6z" clip-path="url(#N)"/><path d="m317 29.7 1.1-.9 2.9 3.6v10.7l-.9 1.2 4.2 4.5 4.5-4.3-1.8-1.7v-13l1.3-1 3.7 3.5V43l-1.5 1 4.7 4.9 6.2-5.5-.3-.3-1.5 1.3L337 42V29.8l2.5-1.7-.2-.3-2.3 1.7-4.2-4.6-6 4.6-4.3-4.4-5.8 4.4-4.3-4.4-6.2 5.2.2.3 2-1.6 2.8 3.1v10.8l-1.4 1.2 4.5 4.9 4.6-4.4-1.9-1.9zm-8.7 14.1-.2-.3-1.8 1.5-2.4-2.7V30.2l2.1-1.7-.3-.3-2 1.7-4.3-4.9-6.4 5 .8.2 1.6-1.3 2.6 2.9v12.3l-1.8 1.5.2.3 1.9-1.6 4.1 4.6zm-8.6-28 3.6 3.9-4.5 3.9-3.6-3.8z"/></g><defs><path id="O" d="m375.3 11 .7 50.8H2L1.3 11z"/></defs><clipPath id="P"><use xlink:href="#O"/></clipPath><path d="M275.2 39.2V25.5l-4.2 1.8s-1.1 2.3-.9 5.7c.1 2.7 1.7 5.8 2.9 7.2zm12-28.2c1.1.1 2.7.6 3.9 1.6 1.3 1.2 1.6 3.1 1.2 4.8-.4 1.5-.9 2.3-2.5 3.4s-2.8 1-2.8 1v6.6l3 2.6-3 2.6v8.9s2.5-1.8 4.6-5.9c0 0 .1-.2.3-.7.2 1.1.1 3.4-1.2 6.2-1 2.2-2.7 4.2-5 5.4-3.9 2.1-6.9 2.3-10 1.7-3.7-.7-7.1-2.7-9.3-6.2-1.6-2.5-2.3-5.3-2.3-8.4.1-6.1 4.8-11.3 10.2-13.3.6-.2.9-.4 1.8-.5-.4.3-.9.6-1.5 1-1.7 1.1-3.2 3.3-3.9 5l10.3-4.3v14.1l-8.2 3.9c1 1.3 3.9 3.2 6.4 3.5 4.2.5 6.9-1.3 6.9-1.3v-9.2l-3-2.6 3-2.6v-6.6c-1.8-.2-4.1-.8-5.4-1.1-1.9-.4-8.1-2.1-9.1-2.3-1-.1-2.2-.1-2.9.5s-1.2 1.8-.9 2.8c.2.6.6.9.9 1.2 0 0-.4 0-1-.4-1.2-.7-2.1-2-2.2-3.7a6.2 6.2 0 0 1 2.6-5.4c1.6-1 3.4-1.6 5.5-1.3 3.1.4 7.2 2.1 10.9 3 1.4.3 2.5.4 3.5-.1.5-.3 1.3-1.2.6-2.3-.8-1.3-2.3-1.3-3.6-1.5 1.1-.1 1.4-.1 2.2-.1" clip-path="url(#P)" class="B"/><defs><path id="Q" d="m375.3 11 .7 50.8H2L1.3 11z"/></defs><clipPath id="R"><use xlink:href="#Q"/></clipPath><path d="M365 27.4v6.5l2.8 1.9s4.8-3.8 6.6-7.2c0 0-2.2 2.9-5.1 2-2.5-.7-3.7-3.1-3.7-3.1m-5.5 17s2.1-3.4 5.8-2.7c3.5.7 5.1 4.3 5.1 4.3v-8.2l-2.9-2c-2.6 2.6-7.4 6.3-8 8.6m3.5 6.2c-.7.2-3.6-.5-4.3-3.5-.7-2.9 1.4-4.8 4.5-7.9l-3.7-3.3v-6.2s2.7-1.3 4.8-2.6l4.3-2.7s1.6 1.9 3.4 1.8c2.8-.2 2.7-2.4 2.6-2.9.5.8 1.8 3.3-3.2 8.8l4 3.1v8.1s-4.6 2.3-9.1 5.5c0 0-2.5-3-4.6-1.6-1.4 1.1-.7 2.7 1.3 3.4" clip-path="url(#R)" class="B"/><defs><path id="S" d="m375.3 11 .7 50.8H2L1.3 11z"/></defs><clipPath id="T"><use xlink:href="#S"/></clipPath><path d="m202 41.5 5.2 4.5V32.2l-5.2-4.6zm11.1-11.3 1.8-1.6.3.3-2.2 1.6v12.9l-5.2 3-4.8 2.8-6.1-5-1.6 1.4-.3-.3 2.1-1.4v-14h-.3l5.3-2.6 4.6-2.6z" clip-path="url(#T)" class="B"/><defs><path id="U" d="m375.3 11 .7 50.8H2L1.3 11z"/></defs><clipPath id="V"><use xlink:href="#U"/></clipPath><path d="m225.2 28.9 3.9-3.9s.5.5 1 .7c.3.1 1.5.7 2.5.1.6-.3.7-.4 1.3-1 .1 3-1.4 5.1-3.2 6-.8.4-3.4 1-5.8-1.7V43l2.9 2.1 2.1-1.6.2.3-6.4 5.2-4.9-4.3-1.8 1.6-.3-.3 2.2-2.3V31.8l-1.6-2.6-1.8 1.5-.3-.3 6.2-5.4z" clip-path="url(#V)" class="B"/><defs><path id="W" d="m375.3 11 .7 50.8H2L1.3 11z"/></defs><clipPath id="X"><use xlink:href="#W"/></clipPath><path d="m241.6 34.7 7.2-10.1s1 1.1 2.6 1.5c2.2.6 4.2-1.5 4.2-1.5-.4 2.7-1.8 5.8-4.7 6.3-2.6.4-5-1.5-5-1.5l-.5.7 10 14.6 2-1.7.3.3-6.9 5.8z" clip-path="url(#X)" class="B"/><defs><path id="Y" d="m375.3 11 .7 50.8H2L1.3 11z"/></defs><clipPath id="Z"><use xlink:href="#Y"/></clipPath><path d="M236 21.1c0-2.2-1.3-3.5-2.5-3.4l7.5-5.3v30.2l2.4 2.1 1.6-1.3.3.3L239 49l-4.3-3.9-1.7 1.5-.3-.3 3.4-2.5V21.1z" clip-path="url(#Z)" class="B"/><defs><path id="a" d="m375.3 11 .7 50.8H2L1.3 11z"/></defs><clipPath id="b"><use xlink:href="#a"/></clipPath><path d="M185.2 29.6s-.9 1-2.2 1c-1.4 0-2-1-2-1v4.1s.6-1 2-1 2.2.9 2.2.9zm-.2-8.8-2.5-2.6-1.5 1.1V29s.9 1.1 2.3 1.1S185 29 185 29zm-4 27.4s1.8.5 3.2-.6c1.5-1.2.8-2.8.8-2.8V34.4s-.4-1.1-1.7-1.1c-1.4 0-2.3 1.1-2.3 1.1zm-11-27.6c0-2-.9-3.2-2.2-3.2-2 0-2.5 2.7-2.5 2.7s-.4-2.1 1.5-4c1-1.1 2.9-2.6 5.9-1.9 3.1.7 4.3 3 4.3 5.1v28.1a15.4 15.4 0 0 0 1.6.3c.9.2 1.4.4 1.4.4V14.3h1v4.6l6.1-4.9 4.6 4 2.2-1.8.2.3-2.2 1.9v26.1c-.1 1.7-.4 3.4-2.1 4.4-3.7 2.1-8.2-.3-12.2-.9-3-.4-7.6-1-8.8 1.7-.4.9-.4 2.2 1 3.1 2.7 1.7 14.7-2.9 18.8-1.1 3.7 1.7 3.7 4.4 3.2 6.2-1 3.4-5.5 4.1-5.5 4.1s2.2-1.2 1.6-3.3c-.3-1-1-1.3-3.4-1.1-5.1.6-11.3 3-15.4 1.3-2.1-.9-3.6-3.4-3.5-6 .1-3.6 4.5-5.1 4.5-5.1V34.3c-.1-.5-2.4-.4-3 .6-.8 1.5 1 2.2 1 2.2s-1.4.2-2.6-1.1c-.6-.6-1.8-2.9-.2-5.1 1.3-1.8 2.9-2.1 4.9-2.3z" clip-path="url(#b)" class="B"/></g></svg>