<svg width="519" height="330" viewBox="0 0 519 330" fill="none" xmlns="http://www.w3.org/2000/svg">
<g clip-path="url(#clip0)">
<path d="M516.097 0H2.32215C1.03966 0 0 1.04046 0 2.32394V327.676C0 328.96 1.03966 330 2.32215 330H516.097C517.38 330 518.419 328.96 518.419 327.676V2.32394C518.419 1.04046 517.38 0 516.097 0Z" fill="white"/>
<path d="M101.594 0H516.678C517.294 0 517.884 0.244843 518.32 0.680667C518.755 1.11649 519 1.7076 519 2.32394V327.676C519 328.292 518.755 328.884 518.32 329.319C517.884 329.755 517.294 330 516.678 330H101.594V0Z" fill="#F2F3F7"/>
<path d="M115.527 38.4904H502.164C502.742 38.4904 503.296 38.7199 503.704 39.1285C504.112 39.5371 504.341 40.0912 504.341 40.6691V329.855H113.35V40.6691C113.35 40.0912 113.579 39.5371 113.987 39.1285C114.396 38.7199 114.949 38.4904 115.527 38.4904Z" fill="white" stroke="#D9DBEC" stroke-width="0.5"/>
<path d="M101.542 -0.360229V330.221" stroke="#D9DBEC" stroke-width="0.5"/>
<path d="M123.968 47.2864H120.485C119.924 47.2864 119.469 47.7416 119.469 48.3031V51.789C119.469 52.3505 119.924 52.8057 120.485 52.8057H123.968C124.529 52.8057 124.984 52.3505 124.984 51.789V48.3031C124.984 47.7416 124.529 47.2864 123.968 47.2864Z" stroke="#D9DBEC" stroke-width="0.5"/>
<path d="M193.238 43.1033H133.442C132.24 43.1033 131.265 44.0787 131.265 45.282V54.601C131.265 55.8042 132.24 56.7797 133.442 56.7797H193.238C194.44 56.7797 195.415 55.8042 195.415 54.601V45.282C195.415 44.0787 194.44 43.1033 193.238 43.1033Z" stroke="#D9DBEC" stroke-width="0.5"/>
<path d="M172.89 48.4426H137.535C136.838 48.4426 136.269 48.89 136.269 49.4419V50.4412C136.269 50.9932 136.838 51.4405 137.535 51.4405H172.89C173.586 51.4405 174.155 50.9932 174.155 50.4412V49.4419C174.155 48.89 173.586 48.4426 172.89 48.4426ZM191.328 49.4768C191.386 49.4187 191.386 49.3257 191.328 49.2676L190.956 48.8958C190.942 48.8817 190.926 48.8706 190.908 48.8629C190.89 48.8553 190.871 48.8514 190.852 48.8514C190.832 48.8514 190.813 48.8553 190.795 48.8629C190.777 48.8706 190.761 48.8817 190.747 48.8958L189.545 50.0984L188.344 48.8958C188.33 48.8817 188.314 48.8706 188.296 48.8629C188.278 48.8553 188.259 48.8514 188.239 48.8514C188.22 48.8514 188.2 48.8553 188.182 48.8629C188.164 48.8706 188.148 48.8817 188.135 48.8958L187.763 49.2676C187.705 49.3257 187.705 49.4187 187.763 49.4768L189.447 51.1616C189.505 51.2139 189.592 51.2139 189.65 51.1616L191.333 49.4768H191.328Z" fill="#C4C8CB"/>
<path d="M432.999 43.1033H379.59C378.388 43.1033 377.413 44.0787 377.413 45.282V54.601C377.413 55.8042 378.388 56.7797 379.59 56.7797H432.999C434.202 56.7797 435.176 55.8042 435.176 54.601V45.282C435.176 44.0787 434.202 43.1033 432.999 43.1033Z" stroke="#D9DBEC" stroke-width="0.5"/>
<path d="M401.499 48.4426H383.079C382.713 48.4426 382.417 48.89 382.417 49.4419V50.4412C382.417 50.9932 382.713 51.4405 383.079 51.4405H401.499C401.865 51.4405 402.155 50.9932 402.155 50.4412V49.4419C402.155 48.89 401.865 48.4426 401.499 48.4426ZM431.089 49.4768C431.147 49.4187 431.147 49.3257 431.089 49.2676L430.718 48.8958C430.704 48.8817 430.688 48.8706 430.67 48.8629C430.652 48.8553 430.633 48.8514 430.613 48.8514C430.594 48.8514 430.574 48.8553 430.556 48.8629C430.539 48.8706 430.522 48.8817 430.509 48.8958L429.307 50.0984L428.105 48.8958C428.092 48.8817 428.076 48.8706 428.058 48.8629C428.04 48.8553 428.02 48.8514 428.001 48.8514C427.981 48.8514 427.962 48.8553 427.944 48.8629C427.926 48.8706 427.91 48.8817 427.896 48.8958L427.525 49.2676C427.467 49.3257 427.467 49.4187 427.525 49.4768L429.208 51.1616C429.266 51.2139 429.353 51.2139 429.412 51.1616L431.095 49.4768H431.089Z" fill="#C4C8CB"/>
<path d="M496.278 43.1033H442.868C441.666 43.1033 440.691 44.0787 440.691 45.282V54.601C440.691 55.8042 441.666 56.7797 442.868 56.7797H496.278C497.48 56.7797 498.455 55.8042 498.455 54.601V45.282C498.455 44.0787 497.48 43.1033 496.278 43.1033Z" stroke="#D9DBEC" stroke-width="0.5"/>
<path d="M464.778 48.4426H446.357C445.992 48.4426 445.696 48.89 445.696 49.4419V50.4412C445.696 50.9932 445.992 51.4405 446.357 51.4405H464.778C465.144 51.4405 465.434 50.9932 465.434 50.4412V49.4419C465.434 48.89 465.144 48.4426 464.778 48.4426ZM494.368 49.4768C494.426 49.4187 494.426 49.3257 494.368 49.2676L493.996 48.8958C493.983 48.8817 493.967 48.8706 493.949 48.8629C493.931 48.8553 493.911 48.8514 493.892 48.8514C493.872 48.8514 493.853 48.8553 493.835 48.8629C493.817 48.8706 493.801 48.8817 493.787 48.8958L492.586 50.0984L491.384 48.8958C491.37 48.8817 491.354 48.8706 491.336 48.8629C491.318 48.8553 491.299 48.8514 491.279 48.8514C491.26 48.8514 491.241 48.8553 491.223 48.8629C491.205 48.8706 491.188 48.8817 491.175 48.8958L490.803 49.2676C490.745 49.3257 490.745 49.4187 490.803 49.4768L492.487 51.1616C492.545 51.2139 492.632 51.2139 492.69 51.1616L494.374 49.4768H494.368Z" fill="#C4C8CB"/>
<path d="M503.883 16.6045H459.959C459.425 16.6045 458.99 17.3365 458.99 18.2429V28.933C458.99 29.8394 459.425 30.5772 459.959 30.5772H503.883C504.417 30.5772 504.846 29.8394 504.846 28.933V18.2429C504.846 17.3365 504.417 16.6045 503.883 16.6045Z" fill="#5233ff"/>
<path d="M492.551 22.5887H470.734C470.305 22.5887 469.956 22.9548 469.956 23.4079V24.2271C469.956 24.6803 470.305 25.0521 470.734 25.0521H492.551C492.98 25.0521 493.329 24.6803 493.329 24.2271V23.4137C493.329 22.9548 492.98 22.5887 492.551 22.5887Z" fill="white" fill-opacity="0.6"/>
<path d="M119.904 324.597H498.414" stroke="#F2F3F7" stroke-width="0.5"/>
<path d="M145.715 307.574H132.362C132.042 307.574 131.782 307.834 131.782 308.155V309.898C131.782 310.219 132.042 310.479 132.362 310.479H145.715C146.035 310.479 146.295 310.219 146.295 309.898V308.155C146.295 307.834 146.035 307.574 145.715 307.574Z" fill="#C4C8CB" fill-opacity="0.5"/>
<path d="M224.668 307.574H152.681C152.361 307.574 152.101 307.834 152.101 308.155V309.898C152.101 310.219 152.361 310.479 152.681 310.479H224.668C224.988 310.479 225.248 310.219 225.248 309.898V308.155C225.248 307.834 224.988 307.574 224.668 307.574Z" fill="#C4C8CB" fill-opacity="0.5"/>
<path d="M276.916 307.574H231.634C231.314 307.574 231.054 307.834 231.054 308.155V309.898C231.054 310.219 231.314 310.479 231.634 310.479H276.916C277.237 310.479 277.497 310.219 277.497 309.898V308.155C277.497 307.834 277.237 307.574 276.916 307.574Z" fill="#C4C8CB" fill-opacity="0.5"/>
<path d="M300.138 307.574H283.883C283.562 307.574 283.302 307.834 283.302 308.155V309.898C283.302 310.219 283.562 310.479 283.883 310.479H300.138C300.458 310.479 300.718 310.219 300.718 309.898V308.155C300.718 307.834 300.458 307.574 300.138 307.574Z" fill="#5233ff"/>
<path d="M247.309 297.889H132.362C132.042 297.889 131.782 298.149 131.782 298.47V300.794C131.782 301.115 132.042 301.375 132.362 301.375H247.309C247.629 301.375 247.889 301.115 247.889 300.794V298.47C247.889 298.149 247.629 297.889 247.309 297.889Z" fill="#C4C8CB"/>
<path d="M493.642 283.48H448.935C446.691 283.48 444.871 285.301 444.871 287.547V307.347C444.871 309.593 446.691 311.414 448.935 311.414H493.642C495.887 311.414 497.706 309.593 497.706 307.347V287.547C497.706 285.301 495.887 283.48 493.642 283.48Z" fill="#28056B"/>
<path fill-rule="evenodd" clip-rule="evenodd" d="M491.726 307.423H449.858V306.923H491.726V307.423Z" fill="white" fill-opacity="0.8"/>
<path d="M453.841 289.465H457.829V306.424H453.841V289.465Z" fill="url(#paint0_linear)"/>
<path d="M459.826 295.449H463.814V306.424H459.826V295.449Z" fill="url(#paint1_linear)"/>
<path d="M465.805 297.447H469.794V306.424H465.805V297.447Z" fill="url(#paint2_linear)"/>
<path d="M471.785 295.449H475.773V306.424H471.785V295.449Z" fill="url(#paint3_linear)"/>
<path d="M477.77 299.44H481.759V306.424H477.77V299.44Z" fill="url(#paint4_linear)"/>
<path d="M483.75 304.431H487.738V306.424H483.75V304.431Z" fill="url(#paint5_linear)"/>
<path fill-rule="evenodd" clip-rule="evenodd" d="M446.346 295.449H445.371V294.955H446.346V295.449ZM450.259 295.449H448.302V294.955H450.259V295.449ZM454.172 295.449H452.215V294.955H454.172V295.449ZM458.079 295.449H456.122V294.955H458.079V295.449ZM461.991 295.449H460.035V294.955H461.991V295.449ZM465.904 295.449H463.948V294.955H465.904V295.449ZM469.811 295.449H467.855V294.955H469.811V295.449ZM473.724 295.449H471.768V294.955H473.724V295.449ZM477.637 295.449H475.68V294.955H477.637V295.449ZM481.544 295.449H479.587V294.955H481.544V295.449ZM485.457 295.449H483.5V294.955H485.457V295.449ZM489.369 295.449H487.413V294.955H489.369V295.449ZM493.277 295.449H491.32V294.955H493.277V295.449ZM496.214 295.449H495.233V294.955H496.214V295.449Z" fill="white" fill-opacity="0.5"/>
<path d="M284.643 285.851H132.281C131.961 285.851 131.701 286.111 131.701 286.432V291.254C131.701 291.575 131.961 291.835 132.281 291.835H284.643C284.964 291.835 285.224 291.575 285.224 291.254V286.432C285.224 286.111 284.964 285.851 284.643 285.851Z" fill="#C4C8CB"/>
<path d="M123.968 285.77H120.485C119.924 285.77 119.469 286.225 119.469 286.786V290.272C119.469 290.834 119.924 291.289 120.485 291.289H123.968C124.529 291.289 124.984 290.834 124.984 290.272V286.786C124.984 286.225 124.529 285.77 123.968 285.77Z" stroke="#D9DBEC" stroke-width="0.5"/>
<path d="M119.904 271.5H498.414" stroke="#F2F3F7" stroke-width="0.5"/>
<path d="M145.715 254.483H132.362C132.042 254.483 131.782 254.744 131.782 255.064V256.807C131.782 257.128 132.042 257.388 132.362 257.388H145.715C146.035 257.388 146.295 257.128 146.295 256.807V255.064C146.295 254.744 146.035 254.483 145.715 254.483Z" fill="#C4C8CB" fill-opacity="0.5"/>
<path d="M224.668 254.483H152.681C152.361 254.483 152.101 254.744 152.101 255.064V256.807C152.101 257.128 152.361 257.388 152.681 257.388H224.668C224.988 257.388 225.248 257.128 225.248 256.807V255.064C225.248 254.744 224.988 254.483 224.668 254.483Z" fill="#C4C8CB" fill-opacity="0.5"/>
<path d="M276.916 254.483H231.634C231.314 254.483 231.054 254.744 231.054 255.064V256.807C231.054 257.128 231.314 257.388 231.634 257.388H276.916C277.237 257.388 277.497 257.128 277.497 256.807V255.064C277.497 254.744 277.237 254.483 276.916 254.483Z" fill="#C4C8CB" fill-opacity="0.5"/>
<path d="M300.138 254.483H283.883C283.562 254.483 283.302 254.744 283.302 255.064V256.807C283.302 257.128 283.562 257.388 283.883 257.388H300.138C300.458 257.388 300.718 257.128 300.718 256.807V255.064C300.718 254.744 300.458 254.483 300.138 254.483Z" fill="#5233ff"/>
<path d="M247.309 244.793H132.362C132.042 244.793 131.782 245.053 131.782 245.374V247.698C131.782 248.018 132.042 248.279 132.362 248.279H247.309C247.629 248.279 247.889 248.018 247.889 247.698V245.374C247.889 245.053 247.629 244.793 247.309 244.793Z" fill="#C4C8CB"/>
<path d="M448.935 230.611H493.642C495.887 230.611 497.706 232.432 497.706 234.678V254.478C497.706 256.724 495.887 258.545 493.642 258.545H448.935C446.691 258.545 444.871 256.724 444.871 254.478V234.678C444.871 232.432 446.691 230.611 448.935 230.611Z" fill="#F6F9D2"/>
<path d="M448.935 230.611H493.642C495.887 230.611 497.706 232.432 497.706 234.678V254.478C497.706 256.724 495.887 258.545 493.642 258.545H448.935C446.691 258.545 444.871 256.724 444.871 254.478V234.678C444.871 232.432 446.691 230.611 448.935 230.611Z" fill="#F6F9D2"/>
<path d="M458.7 247.279C451.733 246.582 447.28 254.152 445.928 258.028L444.477 261.804H488.307C487.825 259.381 484.708 254.542 476.116 254.542C465.376 254.542 467.408 248.151 458.7 247.279Z" fill="#6D852F"/>
<path d="M488.017 251.346H490.339V257.737H488.017V251.346Z" fill="#8C4B2B"/>
<path d="M489.178 252.799V257.737H490.339V254.541L491.5 253.961V253.089L490.339 253.525V251.346H488.017V252.799H489.178Z" fill="#66351E"/>
<path d="M485.695 251.346H493.242C492.371 243.503 490.629 240.307 489.468 236.822C487.726 240.598 486.565 244.084 485.695 251.346Z" fill="#43722E"/>
<path d="M489.468 236.822C487.726 240.598 486.565 244.084 485.695 251.346H488.307C488.115 249.406 488.075 243.793 489.468 236.822Z" fill="#84882F"/>
<path d="M467.988 247.279C461.022 246.582 456.569 254.152 455.216 258.028L453.765 261.804H497.596C497.114 259.381 493.996 254.542 485.404 254.542C474.664 254.542 476.696 248.151 467.988 247.279Z" fill="#43722E"/>
<path d="M475.825 249.603H473.503V260.642H475.825V249.603Z" fill="#66351E"/>
<path d="M474.664 251.056V260.642H473.503V252.799L472.342 252.218V251.346L473.503 251.782V251.056H474.664Z" fill="#8C4B2B"/>
<path d="M474.955 241.469L469.172 249.748H480.737L474.955 241.469Z" fill="#43722E"/>
<path d="M469.172 249.748L474.955 241.469L473.213 249.748H469.172Z" fill="#83892F"/>
<path d="M474.955 236.822L469.172 245.101H480.737L474.955 236.822Z" fill="#43722E"/>
<path d="M469.172 245.101L474.955 236.822L473.213 245.101H469.172Z" fill="#83892F"/>
<path d="M474.955 232.174L469.172 240.453H480.737L474.955 232.174Z" fill="#43722E"/>
<path d="M469.172 240.453L474.955 232.174L473.213 240.453H469.172Z" fill="#83892F"/>
<path d="M456.958 242.05C454.874 242.05 453.185 240.36 453.185 238.274C453.185 236.188 454.874 234.498 456.958 234.498C459.042 234.498 460.732 236.188 460.732 238.274C460.732 240.36 459.042 242.05 456.958 242.05Z" fill="#FF9852"/>
<path d="M284.643 232.76H132.281C131.961 232.76 131.701 233.02 131.701 233.341V238.164C131.701 238.484 131.961 238.745 132.281 238.745H284.643C284.964 238.745 285.224 238.484 285.224 238.164V233.341C285.224 233.02 284.964 232.76 284.643 232.76Z" fill="#C4C8CB"/>
<path d="M123.968 232.679H120.485C119.924 232.679 119.469 233.134 119.469 233.696V237.182C119.469 237.743 119.924 238.198 120.485 238.198H123.968C124.529 238.198 124.984 237.743 124.984 237.182V233.696C124.984 233.134 124.529 232.679 123.968 232.679Z" stroke="#D9DBEC" stroke-width="0.5"/>
<path d="M119.904 218.433H498.414" stroke="#F2F3F7" stroke-width="0.5"/>
<path d="M145.715 201.416H132.362C132.042 201.416 131.782 201.676 131.782 201.997V203.74C131.782 204.061 132.042 204.321 132.362 204.321H145.715C146.035 204.321 146.295 204.061 146.295 203.74V201.997C146.295 201.676 146.035 201.416 145.715 201.416Z" fill="#C4C8CB" fill-opacity="0.5"/>
<path d="M224.668 201.416H152.681C152.361 201.416 152.101 201.676 152.101 201.997V203.74C152.101 204.061 152.361 204.321 152.681 204.321H224.668C224.988 204.321 225.248 204.061 225.248 203.74V201.997C225.248 201.676 224.988 201.416 224.668 201.416Z" fill="#C4C8CB" fill-opacity="0.5"/>
<path d="M276.916 201.416H231.634C231.314 201.416 231.054 201.676 231.054 201.997V203.74C231.054 204.061 231.314 204.321 231.634 204.321H276.916C277.237 204.321 277.497 204.061 277.497 203.74V201.997C277.497 201.676 277.237 201.416 276.916 201.416Z" fill="#C4C8CB" fill-opacity="0.5"/>
<path d="M300.138 201.416H283.883C283.562 201.416 283.302 201.676 283.302 201.997V203.74C283.302 204.061 283.562 204.321 283.883 204.321H300.138C300.458 204.321 300.718 204.061 300.718 203.74V201.997C300.718 201.676 300.458 201.416 300.138 201.416Z" fill="#8670ff"/>
<path d="M247.309 191.725H132.362C132.042 191.725 131.782 191.985 131.782 192.306V194.63C131.782 194.951 132.042 195.211 132.362 195.211H247.309C247.629 195.211 247.889 194.951 247.889 194.63V192.306C247.889 191.985 247.629 191.725 247.309 191.725Z" fill="#C4C8CB"/>
<path d="M493.642 177.567H448.935C446.691 177.567 444.871 179.387 444.871 181.634V201.434C444.871 203.68 446.691 205.5 448.935 205.5H493.642C495.887 205.5 497.706 203.68 497.706 201.434V181.634C497.706 179.387 495.887 177.567 493.642 177.567Z" fill="url(#paint6_linear)"/>
<path d="M489.236 187.542H479.262C479.262 185.549 480.76 184.55 483.251 184.55C483.419 183.888 484.249 182.557 486.24 182.557C488.737 182.557 489.23 185.056 489.23 187.542H489.236ZM456.337 185.549H466.305C466.305 183.551 464.807 182.557 462.316 182.557C462.148 181.889 461.318 180.559 459.327 180.559C456.83 180.559 456.337 183.057 456.337 185.549Z" fill="white"/>
<path d="M444.865 200.516H497.706V201.434C497.706 202.512 497.278 203.547 496.516 204.309C495.754 205.072 494.72 205.501 493.642 205.501H448.935C447.857 205.501 446.824 205.072 446.061 204.309C445.299 203.547 444.871 202.512 444.871 201.434V200.516H444.865Z" fill="#0193D2"/>
<path opacity="0.5" d="M485.747 202.288C485.747 202.869 482.583 204.838 478.6 204.861C474.113 204.885 467.553 203.577 464.308 203.577C461.881 203.577 458.88 204.612 455.338 205.448H448.604C445.852 205.448 444.871 202.764 444.871 201.834V198.802C446.138 198.116 447.559 197.768 448.999 197.791C452.383 197.791 480.638 195.868 485.747 202.288Z" fill="url(#paint7_linear)"/>
<path d="M461.817 192.033C459.321 196.025 458.485 197.024 456.836 197.024C455.182 197.024 452.349 193.672 452.349 189.541C452.349 185.404 455.182 181.558 456.836 181.558C457.359 181.558 459.327 181.558 460.319 182.557C461.817 184.55 460.824 185.549 461.817 188.042C462.612 189.913 462.316 190.54 461.817 192.033Z" fill="#71A94A"/>
<path d="M477.271 193.526C477.271 195.525 476.772 196.025 474.775 197.024C473.782 198.017 473.283 199.516 471.785 199.516C468.302 197.518 468.383 192.771 468.795 191.534C469.294 190.041 471.291 186.049 472.783 187.043C473.283 187.542 473.283 188.542 473.782 189.041C475.541 190.807 477.265 191.034 477.265 193.532L477.271 193.526Z" fill="#98C150"/>
<path fill-rule="evenodd" clip-rule="evenodd" d="M457.034 185.549C457.144 185.549 457.231 185.637 457.231 185.747V201.317C457.231 201.37 457.21 201.42 457.173 201.457C457.136 201.494 457.086 201.515 457.034 201.515C456.981 201.515 456.931 201.494 456.894 201.457C456.857 201.42 456.836 201.37 456.836 201.317V185.747C456.836 185.637 456.923 185.549 457.034 185.549Z" fill="black"/>
<path fill-rule="evenodd" clip-rule="evenodd" d="M459.46 186.398C459.541 186.473 459.547 186.601 459.472 186.682L457.179 189.181C457.142 189.219 457.092 189.242 457.04 189.243C456.987 189.245 456.936 189.225 456.897 189.189C456.859 189.153 456.836 189.103 456.834 189.05C456.833 188.997 456.852 188.946 456.888 188.907L459.181 186.409C459.217 186.371 459.266 186.348 459.318 186.346C459.371 186.344 459.422 186.362 459.46 186.398ZM454.607 190.389C454.587 190.407 454.571 190.428 454.559 190.452C454.548 190.476 454.542 190.502 454.54 190.529C454.539 190.555 454.544 190.582 454.553 190.607C454.562 190.632 454.577 190.654 454.595 190.674L456.888 193.172C456.906 193.191 456.928 193.206 456.952 193.217C456.975 193.228 457.001 193.234 457.027 193.235C457.053 193.235 457.08 193.231 457.104 193.222C457.128 193.213 457.151 193.199 457.17 193.181C457.189 193.163 457.204 193.141 457.215 193.117C457.226 193.093 457.232 193.068 457.233 193.042C457.233 193.015 457.229 192.989 457.22 192.965C457.21 192.94 457.197 192.918 457.179 192.899L454.885 190.401C454.85 190.362 454.801 190.339 454.749 190.337C454.696 190.335 454.645 190.354 454.607 190.389ZM474.223 191.4C474.299 191.475 474.299 191.603 474.217 191.679L472.127 193.677C472.108 193.696 472.086 193.71 472.061 193.72C472.037 193.729 472.01 193.734 471.984 193.733C471.958 193.733 471.931 193.727 471.907 193.717C471.883 193.706 471.861 193.691 471.843 193.672C471.825 193.652 471.81 193.63 471.801 193.605C471.791 193.581 471.786 193.554 471.787 193.528C471.787 193.502 471.793 193.476 471.804 193.451C471.814 193.427 471.83 193.405 471.849 193.387L473.939 191.388C473.958 191.369 473.981 191.354 474.006 191.344C474.032 191.334 474.059 191.329 474.086 191.33C474.114 191.331 474.14 191.338 474.165 191.35C474.189 191.362 474.211 191.379 474.229 191.4H474.223Z" fill="black"/>
<path fill-rule="evenodd" clip-rule="evenodd" d="M471.785 201.312V190.534C471.785 190.48 471.806 190.429 471.844 190.391C471.883 190.352 471.934 190.331 471.988 190.331C472.042 190.331 472.094 190.352 472.132 190.391C472.17 190.429 472.191 190.48 472.191 190.534V201.312C472.191 201.366 472.17 201.417 472.132 201.456C472.094 201.494 472.042 201.515 471.988 201.515C471.934 201.515 471.883 201.494 471.844 201.456C471.806 201.417 471.785 201.366 471.785 201.312Z" fill="black"/>
<path fill-rule="evenodd" clip-rule="evenodd" d="M470.647 194.386C470.628 194.405 470.613 194.427 470.602 194.451C470.592 194.476 470.587 194.502 470.587 194.529C470.587 194.555 470.592 194.581 470.602 194.606C470.613 194.63 470.628 194.653 470.647 194.671L471.843 195.868C471.862 195.886 471.884 195.901 471.908 195.911C471.933 195.922 471.959 195.927 471.985 195.927C472.012 195.927 472.038 195.922 472.062 195.911C472.087 195.901 472.109 195.886 472.127 195.868C472.146 195.849 472.161 195.827 472.171 195.802C472.181 195.778 472.186 195.752 472.186 195.725C472.186 195.699 472.181 195.673 472.171 195.648C472.161 195.624 472.146 195.602 472.127 195.583L470.932 194.386C470.913 194.367 470.891 194.352 470.867 194.341C470.842 194.331 470.816 194.326 470.789 194.326C470.763 194.326 470.737 194.331 470.712 194.341C470.688 194.352 470.666 194.367 470.647 194.386Z" fill="black"/>
<path d="M284.643 179.687H132.281C131.961 179.687 131.701 179.947 131.701 180.268V185.09C131.701 185.411 131.961 185.671 132.281 185.671H284.643C284.964 185.671 285.224 185.411 285.224 185.09V180.268C285.224 179.947 284.964 179.687 284.643 179.687Z" fill="#C4C8CB"/>
<path d="M123.968 179.612H120.485C119.924 179.612 119.469 180.067 119.469 180.629V184.114C119.469 184.676 119.924 185.131 120.485 185.131H123.968C124.529 185.131 124.984 184.676 124.984 184.114V180.629C124.984 180.067 124.529 179.612 123.968 179.612Z" stroke="#D9DBEC" stroke-width="0.5"/>
<path d="M119.904 165.174H498.414" stroke="#F2F3F7" stroke-width="0.5"/>
<path d="M145.715 148.151H132.362C132.042 148.151 131.782 148.411 131.782 148.732V150.475C131.782 150.796 132.042 151.056 132.362 151.056H145.715C146.035 151.056 146.295 150.796 146.295 150.475V148.732C146.295 148.411 146.035 148.151 145.715 148.151Z" fill="#C4C8CB" fill-opacity="0.5"/>
<path d="M224.668 148.151H152.681C152.361 148.151 152.101 148.411 152.101 148.732V150.475C152.101 150.796 152.361 151.056 152.681 151.056H224.668C224.988 151.056 225.248 150.796 225.248 150.475V148.732C225.248 148.411 224.988 148.151 224.668 148.151Z" fill="#C4C8CB" fill-opacity="0.5"/>
<path d="M276.916 148.151H231.634C231.314 148.151 231.054 148.411 231.054 148.732V150.475C231.054 150.796 231.314 151.056 231.634 151.056H276.916C277.237 151.056 277.497 150.796 277.497 150.475V148.732C277.497 148.411 277.237 148.151 276.916 148.151Z" fill="#C4C8CB" fill-opacity="0.5"/>
<path d="M300.138 148.151H283.883C283.562 148.151 283.302 148.411 283.302 148.732V150.475C283.302 150.796 283.562 151.056 283.883 151.056H300.138C300.458 151.056 300.718 150.796 300.718 150.475V148.732C300.718 148.411 300.458 148.151 300.138 148.151Z" fill="#8670ff"/>
<path d="M247.309 137.113H132.362C132.042 137.113 131.782 137.373 131.782 137.694V140.018C131.782 140.338 132.042 140.599 132.362 140.599H247.309C247.629 140.599 247.889 140.338 247.889 140.018V137.694C247.889 137.373 247.629 137.113 247.309 137.113Z" fill="#C4C8CB"/>
<path d="M493.642 124.11H448.935C446.691 124.11 444.871 125.931 444.871 128.177V147.977C444.871 150.223 446.691 152.044 448.935 152.044H493.642C495.887 152.044 497.706 150.223 497.706 147.977V128.177C497.706 125.931 495.887 124.11 493.642 124.11Z" fill="url(#paint8_linear)"/>
<path d="M466.804 145.066C471.758 145.066 475.773 141.269 475.773 136.584C475.773 131.899 471.758 128.102 466.804 128.102C461.85 128.102 457.835 131.899 457.835 136.584C457.835 141.269 461.85 145.066 466.804 145.066Z" fill="url(#paint9_linear)"/>
<path d="M466.978 143.835C470.415 143.835 473.201 141.046 473.201 137.606C473.201 134.167 470.415 131.378 466.978 131.378C463.541 131.378 460.755 134.167 460.755 137.606C460.755 141.046 463.541 143.835 466.978 143.835Z" fill="url(#paint10_linear)"/>
<path d="M469.463 137.601C470.149 137.601 470.705 137.044 470.705 136.357C470.705 135.671 470.149 135.114 469.463 135.114C468.777 135.114 468.22 135.671 468.22 136.357C468.22 137.044 468.777 137.601 469.463 137.601Z" fill="#C9D5E1"/>
<path d="M470.09 133.865C470.433 133.865 470.711 133.587 470.711 133.243C470.711 132.9 470.433 132.622 470.09 132.622C469.747 132.622 469.469 132.9 469.469 133.243C469.469 133.587 469.747 133.865 470.09 133.865Z" fill="#C9D5E1"/>
<path d="M463.861 135.114C464.204 135.114 464.482 134.836 464.482 134.492C464.482 134.149 464.204 133.871 463.861 133.871C463.518 133.871 463.239 134.149 463.239 134.492C463.239 134.836 463.518 135.114 463.861 135.114Z" fill="#C9D5E1"/>
<path d="M465.109 137.601C465.452 137.601 465.73 137.322 465.73 136.979C465.73 136.636 465.452 136.357 465.109 136.357C464.766 136.357 464.488 136.636 464.488 136.979C464.488 137.322 464.766 137.601 465.109 137.601Z" fill="#CFDCE6"/>
<path d="M467.599 135.114C467.942 135.114 468.22 134.836 468.22 134.492C468.22 134.149 467.942 133.871 467.599 133.871C467.256 133.871 466.978 134.149 466.978 134.492C466.978 134.836 467.256 135.114 467.599 135.114Z" fill="#C9D5E1"/>
<path d="M462.311 136.985C462.484 136.985 462.624 136.844 462.624 136.671C462.624 136.498 462.484 136.357 462.311 136.357C462.137 136.357 461.997 136.498 461.997 136.671C461.997 136.844 462.137 136.985 462.311 136.985Z" fill="#CFDCE6"/>
<path d="M486.74 146.06H462.816C462.816 144.665 464.702 143.968 466.589 143.968C467.228 140.477 471.001 139.082 473.521 140.477C476.04 134.893 484.22 136.293 483.593 143.962C485.608 143.962 486.74 145.357 486.74 146.054V146.06Z" fill="url(#paint11_linear)"/>
<path d="M449.08 127.898L449.161 128.712L449.835 129.182L449.022 129.264L448.552 129.937L448.471 129.124L447.797 128.653L448.61 128.572L449.08 127.898ZM482.415 128.537L483.1 128.985L483.883 128.758L483.436 129.444L483.669 130.234L482.978 129.781L482.194 130.013L482.641 129.322L482.415 128.537ZM487.291 139.344L487.372 140.157L488.046 140.622L487.233 140.709L486.763 141.377L486.682 140.564L486.008 140.093L486.821 140.012L487.291 139.338V139.344ZM455.896 144.317L456.343 145.014L457.155 145.124L456.459 145.566L456.343 146.379L455.907 145.682L455.094 145.566L455.785 145.13L455.901 144.317H455.896Z" fill="#C8F1F5"/>
<path opacity="0.5" d="M454.021 137.316L454.381 138.054L455.176 138.257L454.439 138.617L454.235 139.413L453.875 138.676L453.08 138.472L453.817 138.112L454.021 137.316ZM491.773 128.206L492.133 128.944L492.928 129.147L492.191 129.508L491.988 130.303L491.628 129.566L490.832 129.362L491.57 129.002L491.773 128.206ZM473.544 145.357L473.335 146.147L473.799 146.821L473.01 146.612L472.331 147.077L472.545 146.281L472.081 145.607L472.876 145.822L473.55 145.357H473.544ZM460.9 126.713L460.691 127.503L461.155 128.183L460.36 127.968L459.687 128.433L459.896 127.643L459.431 126.963L460.227 127.178L460.9 126.713Z" fill="#C8F1F5"/>
<path d="M284.643 126.428H132.281C131.961 126.428 131.701 126.688 131.701 127.009V131.832C131.701 132.152 131.961 132.413 132.281 132.413H284.643C284.964 132.413 285.224 132.152 285.224 131.832V127.009C285.224 126.688 284.964 126.428 284.643 126.428Z" fill="#C4C8CB"/>
<path d="M123.968 126.347H120.485C119.924 126.347 119.469 126.802 119.469 127.364V130.85C119.469 131.411 119.924 131.866 120.485 131.866H123.968C124.529 131.866 124.984 131.411 124.984 130.85V127.364C124.984 126.802 124.529 126.347 123.968 126.347Z" stroke="#D9DBEC" stroke-width="0.5"/>
<path d="M119.904 111.724H498.414" stroke="#F2F3F7" stroke-width="0.5"/>
<path d="M145.715 94.7007H132.362C132.042 94.7007 131.782 94.9608 131.782 95.2817V97.0246C131.782 97.3455 132.042 97.6056 132.362 97.6056H145.715C146.035 97.6056 146.295 97.3455 146.295 97.0246V95.2817C146.295 94.9608 146.035 94.7007 145.715 94.7007Z" fill="#C4C8CB" fill-opacity="0.5"/>
<path d="M224.668 94.7007H152.681C152.361 94.7007 152.101 94.9608 152.101 95.2817V97.0246C152.101 97.3455 152.361 97.6056 152.681 97.6056H224.668C224.988 97.6056 225.248 97.3455 225.248 97.0246V95.2817C225.248 94.9608 224.988 94.7007 224.668 94.7007Z" fill="#C4C8CB" fill-opacity="0.5"/>
<path d="M276.916 94.7007H231.634C231.314 94.7007 231.054 94.9608 231.054 95.2817V97.0246C231.054 97.3455 231.314 97.6056 231.634 97.6056H276.916C277.237 97.6056 277.497 97.3455 277.497 97.0246V95.2817C277.497 94.9608 277.237 94.7007 276.916 94.7007Z" fill="#C4C8CB" fill-opacity="0.5"/>
<path d="M300.138 94.7007H283.883C283.562 94.7007 283.302 94.9608 283.302 95.2817V97.0246C283.302 97.3455 283.562 97.6056 283.883 97.6056H300.138C300.458 97.6056 300.718 97.3455 300.718 97.0246V95.2817C300.718 94.9608 300.458 94.7007 300.138 94.7007Z" fill="#8670ff"/>
<path d="M247.309 83.662H132.362C132.042 83.662 131.782 83.9221 131.782 84.243V86.5669C131.782 86.8878 132.042 87.1479 132.362 87.1479H247.309C247.629 87.1479 247.889 86.8878 247.889 86.5669V84.243C247.889 83.9221 247.629 83.662 247.309 83.662Z" fill="#C4C8CB"/>
<path d="M494.043 70.8802H449.336C447.091 70.8802 445.272 72.7011 445.272 74.9472V94.7472C445.272 96.9932 447.091 98.8141 449.336 98.8141H494.043C496.287 98.8141 498.106 96.9932 498.106 94.7472V74.9472C498.106 72.7011 496.287 70.8802 494.043 70.8802Z" fill="#EB4A4F"/>
<path d="M472.365 94.5961C477.871 94.5961 482.333 90.1299 482.333 84.6205C482.333 79.1112 477.871 74.645 472.365 74.645C466.86 74.645 462.398 79.1112 462.398 84.6205C462.398 90.1299 466.86 94.5961 472.365 94.5961Z" fill="url(#paint12_linear)"/>
<path d="M445.446 90.6047C445.446 90.6047 452.761 88.6119 459.408 90.6047C462.543 91.5459 476.853 90.1051 482.838 89.6112C489.317 89.0651 498.286 90.6047 498.286 90.6047V94.5206C498.286 95.5992 497.858 96.6336 497.096 97.3963C496.334 98.159 495.3 98.5875 494.223 98.5875H449.516C448.438 98.5875 447.404 98.159 446.642 97.3963C445.88 96.6336 445.452 95.5992 445.452 94.5206V90.6047H445.446Z" fill="#5233ff"/>
<path d="M284.643 72.9777H132.281C131.961 72.9777 131.701 73.2378 131.701 73.5586V78.3808C131.701 78.7017 131.961 78.9618 132.281 78.9618H284.643C284.964 78.9618 285.224 78.7017 285.224 78.3808V73.5586C285.224 73.2378 284.964 72.9777 284.643 72.9777Z" fill="#C4C8CB"/>
<path d="M123.968 72.8962H120.485C119.924 72.8962 119.469 73.3514 119.469 73.913V77.3989C119.469 77.9604 119.924 78.4156 120.485 78.4156H123.968C124.529 78.4156 124.984 77.9604 124.984 77.3989V73.913C124.984 73.3514 124.529 72.8962 123.968 72.8962Z" stroke="#D9DBEC" stroke-width="0.5"/>
<path d="M116.688 27.3063C117.907 27.3063 118.656 26.6846 118.656 25.6795C118.656 24.9242 118.11 24.3607 117.332 24.2852V24.2503C117.624 24.1975 117.888 24.0443 118.079 23.8173C118.27 23.5903 118.375 23.3036 118.377 23.007C118.377 22.1355 117.704 21.5778 116.665 21.5778H114.285V27.3063H116.688ZM115.312 22.3737H116.409C117.019 22.3737 117.367 22.6584 117.367 23.158C117.367 23.6867 116.961 23.9889 116.253 23.9889H115.312V22.3737ZM115.312 26.5103V24.7151H116.415C117.199 24.7151 117.611 25.023 117.611 25.604C117.611 26.1966 117.205 26.5103 116.456 26.5103H115.312ZM119.289 27.3063H120.276V21.5778H119.289V27.3063ZM122.958 27.3876C124.188 27.3876 124.99 26.5684 124.99 25.2031C124.99 23.8378 124.177 23.007 122.958 23.007C121.727 23.007 120.92 23.8436 120.92 25.2031C120.92 26.5684 121.721 27.3876 122.952 27.3876H122.958ZM122.958 26.6091C122.331 26.6091 121.924 26.0978 121.924 25.2031C121.924 24.3084 122.331 23.7971 122.958 23.7971C123.585 23.7971 123.985 24.3084 123.985 25.2031C123.985 26.0978 123.579 26.6091 122.958 26.6091ZM127.457 28.8924C128.676 28.8924 129.489 28.2417 129.489 27.2366V23.0941H128.519V23.8204H128.502C128.38 23.5756 128.19 23.3707 127.956 23.2298C127.721 23.0888 127.452 23.0176 127.178 23.0244C126.104 23.0244 125.425 23.8552 125.425 25.1857C125.425 26.4987 126.122 27.3121 127.155 27.3121C127.759 27.3121 128.258 27.01 128.473 26.5568H128.496V27.2656C128.496 27.8001 128.13 28.1661 127.486 28.1661C127.021 28.1661 126.656 27.9454 126.551 27.6258H125.57C125.669 28.3637 126.418 28.8924 127.457 28.8924ZM127.457 26.522C126.836 26.522 126.441 26.0223 126.441 25.1857C126.441 24.3607 126.836 23.8378 127.457 23.8378C128.095 23.8378 128.502 24.3723 128.502 25.1915C128.502 26.0107 128.095 26.5278 127.457 26.5278V26.522ZM131.968 21.5778V27.3063H132.995V25.4123H134.156C135.312 25.4123 136.13 24.6396 136.13 23.495C136.13 22.3505 135.335 21.5778 134.197 21.5778H131.968ZM132.995 22.4144H133.924C134.661 22.4144 135.085 22.8036 135.085 23.495C135.085 24.1922 134.656 24.5873 133.924 24.5873H132.995V22.4144ZM138.458 27.3876C139.689 27.3876 140.49 26.5684 140.49 25.2031C140.49 23.8378 139.677 23.007 138.458 23.007C137.227 23.007 136.42 23.8436 136.42 25.2031C136.42 26.5684 137.222 27.3876 138.452 27.3876H138.458ZM138.458 26.6091C137.825 26.6091 137.425 26.0978 137.425 25.2031C137.425 24.3084 137.831 23.7971 138.452 23.7971C139.079 23.7971 139.486 24.3084 139.486 25.2031C139.486 26.0978 139.079 26.6091 138.452 26.6091H138.458ZM141.024 24.3026C141.024 24.9301 141.43 25.3251 142.237 25.5052L142.934 25.6563C143.375 25.7551 143.526 25.9003 143.526 26.1559C143.526 26.4697 143.23 26.6672 142.748 26.6672C142.249 26.6672 141.964 26.458 141.889 26.0514H140.92C140.995 26.8647 141.645 27.3876 142.748 27.3876C143.782 27.3876 144.507 26.8531 144.507 26.0572C144.507 25.4471 144.171 25.1102 143.3 24.9126L142.603 24.7616C142.162 24.6628 141.988 24.4943 141.988 24.2503C141.988 23.9424 142.278 23.7332 142.713 23.7332C143.166 23.7332 143.451 23.9772 143.491 24.3607H144.409C144.385 23.5589 143.735 23.007 142.713 23.007C141.697 23.007 141.03 23.5299 141.03 24.3026H141.024ZM145.39 22.1123V23.0999H144.786V23.8552H145.39V26.185C145.39 27.0042 145.75 27.3237 146.655 27.3237C146.864 27.3237 147.062 27.3121 147.166 27.2889V26.5336C147.074 26.5462 146.981 26.552 146.887 26.551C146.539 26.551 146.377 26.3941 146.377 26.0455V23.861H147.172V23.0941H146.377V22.1065H145.39V22.1123ZM147.747 24.3026C147.747 24.9301 148.153 25.3251 148.954 25.5052L149.651 25.6563C150.098 25.7551 150.249 25.9003 150.249 26.1559C150.249 26.4697 149.947 26.6672 149.471 26.6672C148.966 26.6672 148.687 26.458 148.612 26.0514H147.636C147.718 26.8647 148.368 27.3876 149.471 27.3876C150.498 27.3876 151.23 26.8531 151.23 26.0572C151.23 25.4471 150.893 25.1102 150.022 24.9126L149.326 24.7616C148.879 24.6628 148.705 24.4943 148.705 24.2503C148.705 23.9424 148.995 23.7332 149.43 23.7332C149.895 23.7332 150.173 23.9772 150.214 24.3607H151.131C151.108 23.5589 150.458 23.007 149.43 23.007C148.42 23.007 147.747 23.5299 147.747 24.3026Z" fill="#495E6F"/>
<path d="M74.3087 311.443H23.802C23.4814 311.443 23.2215 311.703 23.2215 312.024V313.767C23.2215 314.088 23.4814 314.348 23.802 314.348H74.3087C74.6294 314.348 74.8893 314.088 74.8893 313.767V312.024C74.8893 311.703 74.6294 311.443 74.3087 311.443Z" fill="#889197"/>
<path d="M37.1544 317.253H23.802C23.4814 317.253 23.2215 317.513 23.2215 317.834V318.996C23.2215 319.317 23.4814 319.577 23.802 319.577H37.1544C37.475 319.577 37.7349 319.317 37.7349 318.996V317.834C37.7349 317.513 37.475 317.253 37.1544 317.253Z" fill="#C4C8CB"/>
<path d="M18.0199 307.923H6.3859C5.74466 307.923 5.22483 308.443 5.22483 309.085V320.727C5.22483 321.369 5.74466 321.889 6.3859 321.889H18.0199C18.6611 321.889 19.1809 321.369 19.1809 320.727V309.085C19.1809 308.443 18.6611 307.923 18.0199 307.923Z" fill="#C4C8CB"/>
<path d="M94.3779 315.533C94.4359 315.591 94.4359 315.684 94.3779 315.743L94.0063 316.12C93.9483 316.178 93.8554 316.178 93.7973 316.12L92.5956 314.912L91.3939 316.12C91.3359 316.178 91.243 316.178 91.1849 316.12L90.8134 315.743C90.7868 315.715 90.7719 315.679 90.7719 315.641C90.7719 315.603 90.7868 315.566 90.8134 315.539L92.4969 313.854C92.555 313.796 92.6421 313.796 92.7001 313.854L94.3837 315.539L94.3779 315.533Z" fill="#C4C8CB"/>
<path d="M75.0576 212.676H24.3826C24.0619 212.676 23.802 212.936 23.802 213.257V215.087C23.802 215.408 24.0619 215.668 24.3826 215.668H75.0576C75.3782 215.668 75.6381 215.408 75.6381 215.087V213.257C75.6381 212.936 75.3782 212.676 75.0576 212.676Z" fill="#C4C8CB"/>
<path d="M17.6135 214.419C17.6135 212.814 16.3139 211.514 14.7108 211.514C13.1077 211.514 11.8081 212.814 11.8081 214.419C11.8081 216.023 13.1077 217.324 14.7108 217.324C16.3139 217.324 17.6135 216.023 17.6135 214.419Z" fill="#9CA3A9" fill-opacity="0.5"/>
<path d="M47.0235 199.313H6.38591C6.06529 199.313 5.80537 199.573 5.80537 199.894V201.637C5.80537 201.958 6.06529 202.218 6.38591 202.218H47.0235C47.3441 202.218 47.604 201.958 47.604 201.637V199.894C47.604 199.573 47.3441 199.313 47.0235 199.313Z" fill="#889197"/>
<path d="M75.0576 82.5348H24.3826C24.0619 82.5348 23.802 82.7949 23.802 83.1158V84.9459C23.802 85.2668 24.0619 85.5269 24.3826 85.5269H75.0576C75.3782 85.5269 75.6381 85.2668 75.6381 84.9459V83.1158C75.6381 82.7949 75.3782 82.5348 75.0576 82.5348Z" fill="#C4C8CB"/>
<path d="M17.6135 84.2777C17.6135 82.6734 16.3139 81.3728 14.7108 81.3728C13.1077 81.3728 11.8081 82.6734 11.8081 84.2777C11.8081 85.8821 13.1077 87.1827 14.7108 87.1827C16.3139 87.1827 17.6135 85.8821 17.6135 84.2777Z" fill="#9CA3A9" fill-opacity="0.5"/>
<path d="M75.0576 97.0594H24.3826C24.0619 97.0594 23.802 97.3196 23.802 97.6404V99.4705C23.802 99.7914 24.0619 100.052 24.3826 100.052H75.0576C75.3782 100.052 75.6381 99.7914 75.6381 99.4705V97.6404C75.6381 97.3196 75.3782 97.0594 75.0576 97.0594Z" fill="#C4C8CB"/>
<path d="M96.3691 106.355H5.80537C4.8435 106.355 4.06376 107.136 4.06376 108.098V118.556C4.06376 119.519 4.8435 120.299 5.80537 120.299H96.3691C97.331 120.299 98.1107 119.519 98.1107 118.556V108.098C98.1107 107.136 97.331 106.355 96.3691 106.355Z" fill="#F1F4F9"/>
<path d="M75.0576 111.584H24.3826C24.0619 111.584 23.802 111.844 23.802 112.165V113.995C23.802 114.316 24.0619 114.576 24.3826 114.576H75.0576C75.3782 114.576 75.6381 114.316 75.6381 113.995V112.165C75.6381 111.844 75.3782 111.584 75.0576 111.584Z" fill="#889197"/>
<path d="M17.6135 98.8024C17.6135 97.198 16.3139 95.8975 14.7108 95.8975C13.1077 95.8975 11.8081 97.198 11.8081 98.8024C11.8081 100.407 13.1077 101.707 14.7108 101.707C16.3139 101.707 17.6135 100.407 17.6135 98.8024Z" fill="#9CA3A9" fill-opacity="0.5"/>
<path d="M17.6135 113.327C17.6135 111.723 16.3139 110.422 14.7108 110.422C13.1077 110.422 11.8081 111.723 11.8081 113.327C11.8081 114.931 13.1077 116.232 14.7108 116.232C16.3139 116.232 17.6135 114.931 17.6135 113.327Z" fill="#9CA3A9" fill-opacity="0.5"/>
<path d="M57.4732 126.109H24.3826C24.0619 126.109 23.802 126.369 23.802 126.69V128.433C23.802 128.754 24.0619 129.014 24.3826 129.014H57.4732C57.7938 129.014 58.0537 128.754 58.0537 128.433V126.69C58.0537 126.369 57.7938 126.109 57.4732 126.109Z" fill="#C4C8CB"/>
<path d="M75.0576 140.633H24.3826C24.0619 140.633 23.802 140.894 23.802 141.214V143.045C23.802 143.365 24.0619 143.626 24.3826 143.626H75.0576C75.3782 143.626 75.6381 143.365 75.6381 143.045V141.214C75.6381 140.894 75.3782 140.633 75.0576 140.633Z" fill="#C4C8CB"/>
<path d="M57.4732 148.186H24.3826C24.0619 148.186 23.802 148.446 23.802 148.767V150.51C23.802 150.831 24.0619 151.091 24.3826 151.091H57.4732C57.7938 151.091 58.0537 150.831 58.0537 150.51V148.767C58.0537 148.446 57.7938 148.186 57.4732 148.186Z" fill="#C4C8CB"/>
<path d="M17.6135 142.376C17.6135 140.772 16.3139 139.471 14.7108 139.471C13.1077 139.471 11.8081 140.772 11.8081 142.376C11.8081 143.981 13.1077 145.281 14.7108 145.281C16.3139 145.281 17.6135 143.981 17.6135 142.376Z" fill="#9CA3A9" fill-opacity="0.5"/>
<path d="M75.0576 163.873H24.3826C24.0619 163.873 23.802 164.133 23.802 164.454V166.284C23.802 166.605 24.0619 166.865 24.3826 166.865H75.0576C75.3782 166.865 75.6381 166.605 75.6381 166.284V164.454C75.6381 164.133 75.3782 163.873 75.0576 163.873Z" fill="#C4C8CB"/>
<path d="M17.6135 165.616C17.6135 164.012 16.3139 162.711 14.7108 162.711C13.1077 162.711 11.8081 164.012 11.8081 165.616C11.8081 167.22 13.1077 168.521 14.7108 168.521C16.3139 168.521 17.6135 167.22 17.6135 165.616Z" fill="#9CA3A9" fill-opacity="0.5"/>
<path d="M75.0576 178.397H24.3826C24.0619 178.397 23.802 178.658 23.802 178.978V180.809C23.802 181.129 24.0619 181.39 24.3826 181.39H75.0576C75.3782 181.39 75.6381 181.129 75.6381 180.809V178.978C75.6381 178.658 75.3782 178.397 75.0576 178.397Z" fill="#C4C8CB"/>
<path d="M17.6135 180.141C17.6135 178.536 16.3139 177.236 14.7108 177.236C13.1077 177.236 11.8081 178.536 11.8081 180.141C11.8081 181.745 13.1077 183.045 14.7108 183.045C16.3139 183.045 17.6135 181.745 17.6135 180.141Z" fill="#9CA3A9" fill-opacity="0.5"/>
<path d="M23.802 69.1721H6.38591C6.06529 69.1721 5.80537 69.4322 5.80537 69.7531V71.4961C5.80537 71.8169 6.06529 72.077 6.38591 72.077H23.802C24.1226 72.077 24.3826 71.8169 24.3826 71.4961V69.7531C24.3826 69.4322 24.1226 69.1721 23.802 69.1721Z" fill="#889197"/>
<path d="M75.0576 48.2567H24.3826C24.0619 48.2567 23.802 48.5168 23.802 48.8377V50.6678C23.802 50.9887 24.0619 51.2488 24.3826 51.2488H75.0576C75.3782 51.2488 75.6381 50.9887 75.6381 50.6678V48.8377C75.6381 48.5168 75.3782 48.2567 75.0576 48.2567Z" fill="#C4C8CB"/>
<path d="M17.6135 49.9997C17.6135 48.3953 16.3139 47.0947 14.7108 47.0947C13.1077 47.0947 11.8081 48.3953 11.8081 49.9997C11.8081 51.604 13.1077 52.9046 14.7108 52.9046C16.3139 52.9046 17.6135 51.604 17.6135 49.9997Z" fill="#9CA3A9" fill-opacity="0.5"/>
<path d="M38.896 34.894H6.38591C6.06529 34.894 5.80537 35.1542 5.80537 35.475V37.218C5.80537 37.5389 6.06529 37.799 6.38591 37.799H38.896C39.2166 37.799 39.4765 37.5389 39.4765 37.218V35.475C39.4765 35.1542 39.2166 34.894 38.896 34.894Z" fill="#889197"/>
<path d="M54.7853 8.61597H24.4522C24.1316 8.61597 23.8717 8.87608 23.8717 9.19695V11.0271C23.8717 11.3479 24.1316 11.608 24.4522 11.608H54.7853C55.1059 11.608 55.3658 11.3479 55.3658 11.0271V9.19695C55.3658 8.87608 55.1059 8.61597 54.7853 8.61597Z" fill="#889197"/>
<path d="M45.2819 14.5594H24.3826C24.0619 14.5594 23.802 14.8196 23.802 15.1404V16.8834C23.802 17.2043 24.0619 17.4644 24.3826 17.4644H45.2819C45.6025 17.4644 45.8624 17.2043 45.8624 16.8834V15.1404C45.8624 14.8196 45.6025 14.5594 45.2819 14.5594Z" fill="#C4C8CB"/>
<rect x="6" y="6" width="13.97" height="13.97" rx="1" fill="#5233ff"/>
<path fill-rule="evenodd" clip-rule="evenodd" d="M9.2 13.0001C9.2 11.4013 10.4961 10.1052 12.0949 10.1052H13.8741C15.4729 10.1052 16.769 11.4013 16.769 13.0001C16.769 14.5989 15.4729 15.895 13.8741 15.895H12.0949C10.4961 15.895 9.2 14.5989 9.2 13.0001ZM12.0949 11.4469C11.2371 11.4469 10.5417 12.1423 10.5417 13.0001C10.5417 13.8579 11.2371 14.5533 12.0949 14.5533H13.8741C14.7319 14.5533 15.4273 13.8579 15.4273 13.0001C15.4273 12.1423 14.7319 11.4469 13.8741 11.4469H12.0949Z" fill="white"/>
<path fill-rule="evenodd" clip-rule="evenodd" d="M12.7568 17.5C12.5359 17.5 12.3568 17.3209 12.3568 17.1V8.9C12.3568 8.67909 12.5359 8.5 12.7568 8.5H13.2985C13.5194 8.5 13.6985 8.67909 13.6985 8.9V17.1C13.6985 17.3209 13.5194 17.5 13.2985 17.5H12.7568Z" fill="white"/>
</g>
<defs>
<linearGradient id="paint0_linear" x1="455.838" y1="289.465" x2="455.838" y2="306.424" gradientUnits="userSpaceOnUse">
<stop stop-color="#FFA807"/>
<stop offset="1" stop-color="#E239DE"/>
</linearGradient>
<linearGradient id="paint1_linear" x1="461.817" y1="295.449" x2="461.817" y2="306.424" gradientUnits="userSpaceOnUse">
<stop stop-color="#FFA807"/>
<stop offset="1" stop-color="#E239DE"/>
</linearGradient>
<linearGradient id="paint2_linear" x1="467.797" y1="297.447" x2="467.797" y2="306.424" gradientUnits="userSpaceOnUse">
<stop stop-color="#FFA807"/>
<stop offset="1" stop-color="#E239DE"/>
</linearGradient>
<linearGradient id="paint3_linear" x1="473.782" y1="295.449" x2="473.782" y2="306.424" gradientUnits="userSpaceOnUse">
<stop stop-color="#FFA807"/>
<stop offset="1" stop-color="#E239DE"/>
</linearGradient>
<linearGradient id="paint4_linear" x1="479.761" y1="299.44" x2="479.761" y2="306.424" gradientUnits="userSpaceOnUse">
<stop stop-color="#FFA807"/>
<stop offset="1" stop-color="#E239DE"/>
</linearGradient>
<linearGradient id="paint5_linear" x1="485.747" y1="304.431" x2="485.747" y2="306.424" gradientUnits="userSpaceOnUse">
<stop stop-color="#FFA807"/>
<stop offset="1" stop-color="#E239DE"/>
</linearGradient>
<linearGradient id="paint6_linear" x1="471.292" y1="177.567" x2="471.292" y2="205.5" gradientUnits="userSpaceOnUse">
<stop offset="0.57" stop-color="#CFFCFF"/>
<stop offset="1" stop-color="#5EC5CC"/>
</linearGradient>
<linearGradient id="paint7_linear" x1="465.306" y1="197.524" x2="465.306" y2="205.448" gradientUnits="userSpaceOnUse">
<stop stop-color="#59712F"/>
<stop offset="1" stop-color="#7D974F"/>
</linearGradient>
<linearGradient id="paint8_linear" x1="471.292" y1="124.11" x2="471.292" y2="152.044" gradientUnits="userSpaceOnUse">
<stop stop-color="#0F328C"/>
<stop offset="1" stop-color="#81398D"/>
</linearGradient>
<linearGradient id="paint9_linear" x1="466.804" y1="128.102" x2="466.804" y2="145.061" gradientUnits="userSpaceOnUse">
<stop stop-color="#EAF3EE"/>
<stop offset="1" stop-color="#9CAED6"/>
</linearGradient>
<linearGradient id="paint10_linear" x1="466.978" y1="131.378" x2="466.978" y2="143.835" gradientUnits="userSpaceOnUse">
<stop stop-color="#EAF3EE"/>
<stop offset="1" stop-color="#9CAED6"/>
</linearGradient>
<linearGradient id="paint11_linear" x1="474.78" y1="137.078" x2="474.78" y2="146.06" gradientUnits="userSpaceOnUse">
<stop stop-color="#8CD2F6"/>
<stop offset="1" stop-color="#6F77E6"/>
</linearGradient>
<linearGradient id="paint12_linear" x1="472.365" y1="74.645" x2="472.365" y2="94.5961" gradientUnits="userSpaceOnUse">
<stop stop-color="#F4AE34"/>
<stop offset="1" stop-color="#F4AE34" stop-opacity="0"/>
</linearGradient>
<clipPath id="clip0">
<rect width="519" height="330" fill="white"/>
</clipPath>
</defs>
</svg>
