<svg xmlns="http://www.w3.org/2000/svg" fill="none" viewBox="0 0 106 209">
  <defs/>
  <path fill="#fff" d="M0 0h106v208.94H0z"/>
  <path fill="#DADDED" fill-rule="evenodd" d="M79.5 6.02H92a9.5 9.5 0 019.5 9.5v179a9.5 9.5 0 01-9.5 9.5H14a9.5 9.5 0 01-9.5-9.5v-179a9.5 9.5 0 019.5-9.5h12.5v.5c0 3.48 1.69 4.98 2.74 5.6.52.3 1.15.38 1.86.38h43.4c1.2 0 2.43-.24 3.36-1.06.92-.81 1.64-2.27 1.64-4.92v-.5zm-65.5.5a9 9 0 00-9 9v179a9 9 0 009 9h78a9 9 0 009-9v-179a9 9 0 00-9-9H80C80 12 77 13 74.5 13H31.1a4.1 4.1 0 01-2.1-.45c-1.2-.69-3-2.35-3-6.03H14z" clip-rule="evenodd"/>
  <rect width="1" height="3" x="88" y="9" fill="#DADDED" rx=".5"/>
  <rect width="1" height="2" x="86" y="10" fill="#DADDED" rx=".5"/>
  <rect width="1" height="1" x="84" y="11" fill="#DADDED" rx=".5"/>
  <rect width="10" height="3" x="13" y="9" fill="#DADDED" rx=".5"/>
  <rect width="3" height="3" x="91" y="9" fill="#DADDED" rx=".5"/>
  <rect width="16" height="1" x="45" y="8" fill="#DADDED" rx=".5"/>
  <rect width="20" height="2" x="19" y="189" fill="#495E6F" fill-opacity=".2" rx="1"/>
  <rect width="20" height="2" x="44" y="189.23" fill="#495E6F" fill-opacity=".2" rx="1"/>
  <path fill="#495E6F" fill-opacity=".2" d="M19 175.23h70v2H19zM19 179.23h30v2H19z"/>
  <rect width="33" height="17.43" x="19" y="148" fill="url(#paint0_linear)" rx="2"/>
  <g filter="url(#filter0_f)">
    <ellipse cx="32.7" cy="155.78" fill="url(#paint1_linear)" rx="5.6" ry="5.29"/>
  </g>
  <circle cx="32.81" cy="156.42" r="3.89" fill="url(#paint2_linear)"/>
  <circle cx="34.36" cy="155.64" r=".78" fill="#C9D5E1"/>
  <circle cx="34.75" cy="153.7" r=".39" fill="#C9D5E1"/>
  <circle cx="30.86" cy="154.48" r=".39" fill="#C9D5E1"/>
  <circle cx="31.64" cy="156.03" r=".39" fill="#CFDCE6"/>
  <circle cx="33.2" cy="154.48" r=".39" fill="#C9D5E1"/>
  <circle cx="29.89" cy="155.84" r=".19" fill="#CFDCE6"/>
  <path fill="url(#paint3_linear)" d="M45.15 161.7H30.21c0-.87 1.18-1.3 2.36-1.3a3.01 3.01 0 014.32-2.19c1.58-3.48 6.69-2.61 6.3 2.18 1.25 0 1.96.87 1.96 1.3z"/>
  <path fill="#C8F1F5" d="M21.63 150.36l.05.51.42.3-.5.05-.3.42-.05-.51-.42-.3.5-.05.3-.42zM42.45 150.76l.43.28.49-.14-.28.43.14.5-.43-.29-.49.14.28-.43-.14-.49zM45.5 157.5l.05.51.42.3-.51.05-.3.42-.05-.51-.42-.3.51-.04.3-.43zM25.89 160.61l.27.43.51.08-.43.27-.07.5-.28-.42-.5-.08.43-.27.07-.5z"/>
  <path fill="#C8F1F5" d="M24.72 156.24l.22.46.5.13-.46.22-.13.5-.23-.46-.5-.13.47-.22.13-.5zM48.3 150.56l.22.46.5.12-.46.23-.13.5-.23-.47-.5-.12.47-.23.13-.5zM36.91 161.26l-.13.5.29.42-.5-.14-.42.3.13-.5-.28-.42.49.13.42-.29zM29.01 149.63l-.13.49.29.42-.5-.13-.42.29.14-.5-.3-.42.5.13.42-.28z" opacity=".5"/>
  <rect width="58" height="5" x="19" y="168" fill="#495E6F" fill-opacity=".2" rx="1"/>
  <path fill="#D9DBEC" fill-rule="evenodd" d="M13 148.5h-2a.5.5 0 00-.5.5v2c0 .28.22.5.5.5h2a.5.5 0 00.5-.5v-2a.5.5 0 00-.5-.5zm-2-.5a1 1 0 00-1 1v2a1 1 0 001 1h2a1 1 0 001-1v-2a1 1 0 00-1-1h-2zM101 136.48H5v-.5h96v.5z" clip-rule="evenodd"/>
  <rect width="20" height="2" x="19" y="122" fill="#495E6F" fill-opacity=".2" rx="1"/>
  <rect width="20" height="2" x="44" y="122.23" fill="#495E6F" fill-opacity=".2" rx="1"/>
  <path fill="#495E6F" fill-opacity=".2" d="M19 108.23h70v2H19zM19 112.23h30v2H19z"/>
  <rect width="33" height="17.43" x="19" y="81" fill="#EB4A4F" rx="2"/>
  <circle cx="35.81" cy="89.72" r="6.23" fill="url(#paint4_linear)"/>
  <path fill="#0194D2" d="M19 93.45s4.57-1.24 8.72 0c1.96.6 10.9-.3 14.63-.62 4.05-.34 9.65.62 9.65.62v2.98a2 2 0 01-2 2H21a2 2 0 01-2-2v-2.98z"/>
  <rect width="76" height="5" x="19" y="101" fill="#495E6F" fill-opacity=".2" rx="1"/>
  <path fill="#D9DBEC" fill-rule="evenodd" d="M13 81.5h-2a.5.5 0 00-.5.5v2c0 .28.22.5.5.5h2a.5.5 0 00.5-.5v-2a.5.5 0 00-.5-.5zm-2-.5a1 1 0 00-1 1v2a1 1 0 001 1h2a1 1 0 001-1v-2a1 1 0 00-1-1h-2zM55.22 62.5H19.78c-.04 0-.1.02-.17.1a.55.55 0 00-.11.34v6.12c0 .15.05.27.11.35.07.07.13.09.17.09h35.44c.04 0 .1-.02.17-.1.06-.07.11-.2.11-.34v-6.12a.55.55 0 00-.11-.35c-.07-.07-.13-.09-.17-.09zM19.78 62h35.44c.43 0 .78.42.78.94v6.12c0 .52-.35.94-.78.94H19.78c-.43 0-.78-.42-.78-.94v-6.12c0-.52.35-.94.78-.94z" clip-rule="evenodd"/>
  <path fill="#B9C2C9" d="M41.33 65H22.67c-.37 0-.67.3-.67.67v.66c0 .37.3.67.67.67h18.66c.37 0 .67-.3.67-.67v-.66c0-.37-.3-.67-.67-.67zM52.93 65h-1.86c-.04 0-.07.3-.07.67v.66c0 .37.03.67.07.67h1.86c.04 0 .07-.3.07-.67v-.66c0-.37-.03-.67-.07-.67z"/>
  <path fill="#D9DBEC" fill-rule="evenodd" d="M13 64.27h-2a.5.5 0 00-.5.5v2c0 .28.22.5.5.5h2a.5.5 0 00.5-.5v-2a.5.5 0 00-.5-.5zm-2-.5a1 1 0 00-1 1v2a1 1 0 001 1h2a1 1 0 001-1v-2a1 1 0 00-1-1h-2zM80.28 50.5H47.72c-.01 0-.06 0-.11.08a.6.6 0 00-.11.36v6.12c0 .16.05.29.1.36.06.08.1.08.12.08h32.56c.01 0 .06 0 .11-.08a.6.6 0 00.11-.36v-6.12a.6.6 0 00-.1-.36c-.06-.08-.1-.08-.12-.08zM47.72 50h32.56c.4 0 .72.42.72.94v6.12c0 .52-.32.94-.72.94H47.72c-.4 0-.72-.42-.72-.94v-6.12c0-.52.32-.94.72-.94z" clip-rule="evenodd"/>
  <path fill="#B9C2C9" d="M61.63 53H51.37c-.2 0-.37.3-.37.67v.66c0 .37.16.67.37.67h10.26c.2 0 .37-.3.37-.67v-.66c0-.37-.16-.67-.37-.67zM77.93 53h-1.86c-.04 0-.07.3-.07.67v.66c0 .37.03.67.07.67h1.86c.04 0 .07-.3.07-.67v-.66c0-.37-.03-.67-.07-.67z"/>
  <path fill="#D9DBEC" fill-rule="evenodd" d="M43.28 50.5H10.72c-.01 0-.06 0-.11.08a.6.6 0 00-.11.36v6.12c0 .16.05.29.1.36.06.08.1.08.12.08h32.56c.01 0 .06 0 .11-.08a.6.6 0 00.11-.36v-6.12a.6.6 0 00-.1-.36c-.06-.08-.1-.08-.12-.08zM10.72 50h32.56c.4 0 .72.42.72.94v6.12c0 .52-.32.94-.72.94H10.72c-.4 0-.72-.42-.72-.94v-6.12c0-.52.32-.94.72-.94z" clip-rule="evenodd"/>
  <path fill="#B9C2C9" d="M24.63 53H14.37c-.2 0-.37.3-.37.67v.66c0 .37.16.67.37.67h10.26c.2 0 .37-.3.37-.67v-.66c0-.37-.16-.67-.37-.67zM40.93 53h-1.86c-.04 0-.07.3-.07.67v.66c0 .37.03.67.07.67h1.86c.04 0 .07-.3.07-.67v-.66c0-.37-.03-.67-.07-.67z"/>
  <path fill="#189BFF" d="M98.39 33H70.61c-.34 0-.61.42-.61.94v6.12c0 .52.27.94.61.94h27.78c.34 0 .61-.42.61-.94v-6.12c0-.52-.27-.94-.61-.94z"/>
  <path fill="#fff" fill-opacity=".4" d="M90.57 36H78.43c-.24 0-.43.3-.43.67v.66c0 .37.2.67.43.67h12.14c.24 0 .43-.3.43-.67v-.66c0-.37-.2-.67-.43-.67z"/>
  <path fill="#495E6F" d="M9.14 40c.9 0 1.45-.46 1.45-1.2 0-.56-.4-.97-.97-1.03v-.02a.94.94 0 00.77-.92c0-.64-.5-1.06-1.26-1.06H7.37V40h1.77zm-1.01-3.64h.8c.46 0 .71.2.71.58 0 .4-.3.61-.82.61h-.7v-1.19zm0 3.05V38.1h.8c.59 0 .9.23.9.66 0 .43-.3.66-.86.66h-.84zM11.06 40h.73v-4.23h-.73V40zM13.77 40.06c.91 0 1.5-.6 1.5-1.61 0-1-.6-1.62-1.5-1.62s-1.5.62-1.5 1.62.59 1.61 1.5 1.61zm0-.58c-.46 0-.76-.37-.76-1.03s.3-1.04.76-1.04.76.38.76 1.04-.3 1.03-.76 1.03zM17.1 41.17c.9 0 1.5-.48 1.5-1.22v-3.06h-.72v.54h-.02a1.06 1.06 0 00-.97-.59c-.8 0-1.3.61-1.3 1.6 0 .96.51 1.56 1.28 1.56.45 0 .81-.22.97-.55h.02v.52c0 .4-.27.66-.75.66-.34 0-.6-.16-.69-.4h-.72c.07.55.62.94 1.4.94zm0-1.75c-.47 0-.76-.37-.76-.98s.3-1 .75-1c.47 0 .77.4.77 1s-.3.98-.77.98zM20.42 35.77V40h.76v-1.4h.86c.85 0 1.45-.57 1.45-1.41 0-.85-.58-1.42-1.42-1.42h-1.65zm.76.62h.69c.54 0 .85.3.85.8 0 .51-.31.8-.85.8h-.69v-1.6zM25.21 40.06c.91 0 1.5-.6 1.5-1.61 0-1-.6-1.62-1.5-1.62s-1.5.62-1.5 1.62.59 1.61 1.5 1.61zm0-.58c-.46 0-.76-.37-.76-1.03s.3-1.04.76-1.04.76.38.76 1.04-.3 1.03-.76 1.03zM27.1 37.79c0 .46.3.75.9.88l.52.11c.32.08.44.18.44.37 0 .23-.22.38-.58.38-.37 0-.58-.15-.63-.46h-.72c.06.6.54 1 1.35 1 .76 0 1.3-.4 1.3-.99 0-.45-.25-.7-.9-.84l-.5-.12c-.33-.07-.46-.2-.46-.37 0-.23.21-.38.53-.38.34 0 .55.17.58.46h.68c-.02-.6-.5-1-1.26-1-.75 0-1.24.39-1.24.96zM30.33 36.17v.72h-.44v.57h.44v1.71c0 .6.27.84.94.84.15 0 .3 0 .37-.02v-.56l-.2.01c-.26 0-.38-.11-.38-.37v-1.61h.59v-.57h-.59v-.72h-.73zM32.07 37.79c0 .46.3.75.9.88l.51.11c.33.08.44.18.44.37 0 .23-.22.38-.58.38-.37 0-.57-.15-.63-.46h-.72c.06.6.54 1 1.35 1 .76 0 1.3-.4 1.3-.99 0-.45-.25-.7-.89-.84l-.52-.12c-.32-.07-.45-.2-.45-.37 0-.23.21-.38.54-.38.33 0 .54.17.57.46h.68c-.02-.6-.5-1-1.25-1s-1.25.39-1.25.96z"/>
  <path fill="#D9DBEC" fill-rule="evenodd" d="M101 28.25H5v-.5h96v.5z" clip-rule="evenodd"/>
  <rect width="4.5" height=".96" x="97.53" y="19.27" fill="#D9DBEC" rx=".48" transform="rotate(-180 97.53 19.27)"/>
  <rect width="4.5" height=".96" x="97.53" y="21.19" fill="#D9DBEC" rx=".48" transform="rotate(-180 97.53 21.2)"/>
  <rect width="4.5" height=".96" x="97.53" y="23.12" fill="#D9DBEC" rx=".48" transform="rotate(-180 97.53 23.12)"/>
  <path fill="#F6FAFD" d="M91.31 22.99a2 2 0 01-2 2h-4.99a2 2 0 01-2-2V18c0-1.1.9-2 2-2h5a2 2 0 012 2v4.99z"/>
  <path fill="#D9DBEC" fill-rule="evenodd" d="M84.32 24.49h5c.82 0 1.5-.67 1.5-1.5V18c0-.83-.68-1.5-1.5-1.5h-5c-.83 0-1.5.67-1.5 1.5v4.99c0 .83.67 1.5 1.5 1.5zm5 .5a2 2 0 002-2V18a2 2 0 00-2-2h-5a2 2 0 00-2 2v4.99c0 1.1.9 2 2 2h5z" clip-rule="evenodd"/>
  <path fill="#F6FAFD" d="M20.06 18.28c0-1.1.9-2 2-2H59a2 2 0 012 2v4.82a2 2 0 01-2 2H22.06a2 2 0 01-2-2v-4.82z"/>
  <path fill="#D9DBEC" fill-rule="evenodd" d="M59 16.78H22.06c-.83 0-1.5.67-1.5 1.5v4.82c0 .83.67 1.5 1.5 1.5H59c.83 0 1.5-.67 1.5-1.5v-4.82c0-.83-.67-1.5-1.5-1.5zm-36.94-.5a2 2 0 00-2 2v4.82c0 1.1.9 2 2 2H59a2 2 0 002-2v-4.82a2 2 0 00-2-2H22.06z" clip-rule="evenodd"/>
  <rect width="23.94" height="1.89" x="30.77" y="20.06" fill="#C7CCE4" rx=".94"/>
  <path fill="#C7CCE4" fill-rule="evenodd" d="M25.1 18.58a2.11 2.11 0 100 4.23 2.11 2.11 0 000-4.23zm-2.52 2.11a2.52 2.52 0 115.04 0 2.52 2.52 0 01-5.04 0z" clip-rule="evenodd"/>
  <path fill="#C7CCE4" fill-rule="evenodd" d="M24.46 19.14c-.2.39-.32.94-.32 1.55 0 .62.13 1.16.32 1.55.2.4.43.57.64.57.2 0 .44-.17.63-.57.2-.39.32-.93.32-1.55 0-.61-.12-1.16-.32-1.55-.2-.4-.43-.56-.63-.56s-.44.17-.64.56zm-.36-.18c.22-.44.56-.79 1-.79.43 0 .78.35 1 .8.22.45.36 1.06.36 1.72 0 .67-.14 1.28-.36 1.73-.22.44-.57.8-1 .8-.44 0-.78-.36-1-.8a3.96 3.96 0 01-.36-1.73c0-.66.13-1.27.36-1.73z" clip-rule="evenodd"/>
  <path fill="#C7CCE4" fill-rule="evenodd" d="M25.1 21.96c-.7 0-1.31.16-1.7.4l-.2-.35a3.75 3.75 0 011.9-.46c.74 0 1.42.17 1.88.45l-.2.35a3.37 3.37 0 00-1.68-.4zM25.1 19.43c.7 0 1.3-.16 1.69-.4l.21.34c-.46.3-1.15.46-1.9.46s-1.42-.16-1.89-.44l.21-.35c.39.23.99.39 1.68.39zM27.41 20.9h-4.63v-.41h4.63v.4z" clip-rule="evenodd"/>
  <path fill="#C7CCE4" fill-rule="evenodd" d="M25.1 22.8v-4.63h.4v4.64h-.4z" clip-rule="evenodd"/>
  <path fill="#F6FAFD" d="M8.24 18.46c0-1.1.9-2 2-2h4.82a2 2 0 012 2v4.81a2 2 0 01-2 2h-4.82a2 2 0 01-2-2v-4.81z"/>
  <path fill="#D9DBEC" fill-rule="evenodd" d="M15.06 16.96h-4.82c-.83 0-1.5.67-1.5 1.5v4.81c0 .83.67 1.5 1.5 1.5h4.82c.83 0 1.5-.67 1.5-1.5v-4.81c0-.83-.67-1.5-1.5-1.5zm-4.82-.5a2 2 0 00-2 2v4.81c0 1.1.9 2 2 2h4.82a2 2 0 002-2v-4.81a2 2 0 00-2-2h-4.82z" clip-rule="evenodd"/>
  <path fill="#C7CCE4" d="M14.29 23.2h-2.18a.53.53 0 01-.38-.16l-1.66-1.66a.44.44 0 01.31-.75h2.04V18.6a.44.44 0 01.52-.42c.09.01.16.05.22.11l1.67 1.67a.53.53 0 01.15.37v2.18a.7.7 0 01-.69.7zm-2.09-.75h2.03V20.4l-1.06-1.06v2.03h-2.04l1.07 1.07z"/>
  <defs>
    <linearGradient id="paint0_linear" x1="35.5" x2="35.5" y1="148" y2="165.43" gradientUnits="userSpaceOnUse">
      <stop stop-color="#0F328C"/>
      <stop offset="1" stop-color="#81398D"/>
    </linearGradient>
    <linearGradient id="paint1_linear" x1="32.7" x2="32.7" y1="150.49" y2="161.08" gradientUnits="userSpaceOnUse">
      <stop stop-color="#EAF3EE"/>
      <stop offset="1" stop-color="#9CAED6"/>
    </linearGradient>
    <linearGradient id="paint2_linear" x1="32.81" x2="32.81" y1="152.53" y2="160.31" gradientUnits="userSpaceOnUse">
      <stop stop-color="#EAF3EE"/>
      <stop offset="1" stop-color="#9CAED6"/>
    </linearGradient>
    <linearGradient id="paint3_linear" x1="37.68" x2="37.68" y1="156.09" y2="161.7" gradientUnits="userSpaceOnUse">
      <stop stop-color="#8CD2F6"/>
      <stop offset="1" stop-color="#6F77E6"/>
    </linearGradient>
    <linearGradient id="paint4_linear" x1="35.81" x2="35.81" y1="83.49" y2="95.94" gradientUnits="userSpaceOnUse">
      <stop stop-color="#F4AE34"/>
      <stop offset="1" stop-color="#F4AE34" stop-opacity="0"/>
    </linearGradient>
    <filter id="filter0_f" width="23.21" height="22.58" x="21.09" y="144.49" color-interpolation-filters="sRGB" filterUnits="userSpaceOnUse">
      <feFlood flood-opacity="0" result="BackgroundImageFix"/>
      <feBlend in="SourceGraphic" in2="BackgroundImageFix" result="shape"/>
      <feGaussianBlur result="effect1_foregroundBlur" stdDeviation="3"/>
    </filter>
  </defs>
</svg>
