<svg width="352" height="272" viewBox="0 0 352 272" fill="none" xmlns="http://www.w3.org/2000/svg">
<path d="M346.174 1H5.21556C2.99497 1 1.19482 2.0403 1.19482 3.32358V268.676C1.19482 269.96 2.99497 271 5.21556 271H346.174C348.395 271 350.195 269.96 350.195 268.676V3.32358C350.195 2.0403 348.395 1 346.174 1Z" fill="white" stroke="#EFF1F5" stroke-width="2"/>
<path fill-rule="evenodd" clip-rule="evenodd" d="M1.19482 240H350.195V270H1.19482V240Z" fill="#F7F9FE"/>
<path d="M65.0048 14H27.3848C27.2799 14 27.1948 14.3582 27.1948 14.8V17.2C27.1948 17.6418 27.2799 18 27.3848 18H65.0048C65.1098 18 65.1948 17.6418 65.1948 17.2V14.8C65.1948 14.3582 65.1098 14 65.0048 14Z" fill="#3a4854" fill-opacity="0.15"/>
<path d="M339.924 9.67871H286.791C285.902 9.67871 285.181 10.4009 285.181 11.2918V19.3575C285.181 20.2484 285.902 20.9707 286.791 20.9707H339.924C340.813 20.9707 341.534 20.2484 341.534 19.3575V11.2918C341.534 10.4009 340.813 9.67871 339.924 9.67871Z" fill="#EAECED"/>
<path opacity="0.5" d="M321.408 14.5181H305.307C304.863 14.5181 304.502 14.8792 304.502 15.3246C304.502 15.7701 304.863 16.1312 305.307 16.1312H321.408C321.853 16.1312 322.213 15.7701 322.213 15.3246C322.213 14.8792 321.853 14.5181 321.408 14.5181Z" fill="#3a4854"/>
<path d="M255.395 92.7549H95.9955C95.5509 92.7549 95.1904 93.116 95.1904 93.5615V95.9812C95.1904 96.4266 95.5509 96.7877 95.9955 96.7877H255.395C255.839 96.7877 256.2 96.4266 256.2 95.9812V93.5615C256.2 93.116 255.839 92.7549 255.395 92.7549Z" fill="#3a4854" fill-opacity="0.15"/>
<path opacity="0.7" d="M231.243 101.627H120.147C119.702 101.627 119.342 101.988 119.342 102.434V104.853C119.342 105.299 119.702 105.66 120.147 105.66H231.243C231.688 105.66 232.048 105.299 232.048 104.853V102.434C232.048 101.988 231.688 101.627 231.243 101.627Z" fill="#3a4854" fill-opacity="0.15"/>
<path opacity="0.8" d="M120.518 76.2314V62.8442H117.716V68.2808H111.686V62.8442H108.884V76.2314H111.686V70.5908H117.716V76.2314H120.518ZM129.29 73.1885C129.039 73.9492 128.278 74.4409 127.286 74.4409C125.903 74.4409 125.004 73.4668 125.004 72.0474V71.8804H131.859V71.0547C131.859 68.0303 130.032 66.0728 127.137 66.0728C124.196 66.0728 122.341 68.1323 122.341 71.3052C122.341 74.4873 124.178 76.4448 127.239 76.4448C129.698 76.4448 131.479 75.1367 131.776 73.1885H129.29ZM127.165 68.0767C128.371 68.0767 129.197 68.9487 129.253 70.2197H125.031C125.124 68.9766 125.978 68.0767 127.165 68.0767ZM133.515 76.2314H136.224V62.8442H133.515V76.2314ZM138.307 76.2314H141.016V62.8442H138.307V76.2314ZM147.598 76.4448C150.604 76.4448 152.524 74.5244 152.524 71.2495C152.524 68.021 150.576 66.0728 147.598 66.0728C144.62 66.0728 142.672 68.0303 142.672 71.2495C142.672 74.5151 144.592 76.4448 147.598 76.4448ZM147.598 74.376C146.262 74.376 145.418 73.2534 145.418 71.2588C145.418 69.2827 146.281 68.1416 147.598 68.1416C148.915 68.1416 149.769 69.2827 149.769 71.2588C149.769 73.2534 148.925 74.376 147.598 74.376ZM164.232 76.2314C167.089 76.2314 168.861 74.7563 168.861 72.3999C168.861 70.6279 167.525 69.3013 165.707 69.1621V69.0879C167.126 68.8745 168.221 67.6499 168.221 66.1841C168.221 64.1338 166.644 62.8442 164.13 62.8442H158.304V76.2314H164.232ZM161.105 64.9316H163.406C164.714 64.9316 165.466 65.5439 165.466 66.6201C165.466 67.752 164.612 68.4106 163.119 68.4106H161.105V64.9316ZM161.105 74.144V70.2568H163.453C165.104 70.2568 166.004 70.9248 166.004 72.1772C166.004 73.4575 165.132 74.144 163.517 74.144H161.105ZM177.002 73.1885C176.751 73.9492 175.991 74.4409 174.998 74.4409C173.616 74.4409 172.716 73.4668 172.716 72.0474V71.8804H179.572V71.0547C179.572 68.0303 177.744 66.0728 174.85 66.0728C171.909 66.0728 170.053 68.1323 170.053 71.3052C170.053 74.4873 171.89 76.4448 174.952 76.4448C177.41 76.4448 179.191 75.1367 179.488 73.1885H177.002ZM174.877 68.0767C176.083 68.0767 176.909 68.9487 176.965 70.2197H172.744C172.836 68.9766 173.69 68.0767 174.877 68.0767ZM184.113 76.3892C185.356 76.3892 186.59 75.7676 187.147 74.71H187.202V76.2314H189.818V69.394C189.818 67.3901 188.158 66.0728 185.606 66.0728C182.972 66.0728 181.33 67.3994 181.228 69.3291H183.705C183.834 68.5962 184.475 68.0952 185.486 68.0952C186.506 68.0952 187.156 68.6333 187.156 69.561V70.2197L184.651 70.3682C182.174 70.5166 180.782 71.5649 180.782 73.374C180.782 75.1646 182.22 76.3892 184.113 76.3892ZM185.003 74.4316C184.085 74.4316 183.473 73.9678 183.473 73.2256C183.473 72.5205 184.048 72.0659 185.059 71.9917L187.156 71.8618V72.5854C187.156 73.6616 186.182 74.4316 185.003 74.4316ZM200.946 66.2861H198.237V71.9824C198.237 73.2998 197.486 74.1626 196.28 74.1626C195.083 74.1626 194.424 73.4575 194.424 72.1309V66.2861H191.715V72.6968C191.715 75.0161 193.144 76.417 195.296 76.417C196.799 76.417 197.783 75.6934 198.274 74.4409H198.33V76.2314H200.946V66.2861ZM203.623 63.9946V66.2861H202.222V68.3271H203.623V73.5503C203.623 75.4893 204.532 76.2686 206.87 76.2686C207.417 76.2686 207.881 76.2222 208.159 76.1572V74.1626C207.992 74.1904 207.742 74.209 207.501 74.209C206.703 74.209 206.332 73.8472 206.332 73.0864V68.3271H208.169V66.2861H206.332V63.9946H203.623ZM211.235 64.9409C212.023 64.9409 212.645 64.3101 212.645 63.5493C212.645 62.7793 212.023 62.1577 211.235 62.1577C210.446 62.1577 209.824 62.7793 209.824 63.5493C209.824 64.3101 210.446 64.9409 211.235 64.9409ZM209.889 76.2314H212.598V66.2861H209.889V76.2314ZM215.321 76.2314H218.03V68.3271H219.941V66.3325H217.965V65.6738C217.965 64.9688 218.355 64.5791 219.245 64.5791C219.514 64.5791 219.783 64.5977 219.978 64.6348V62.8442C219.663 62.7793 219.097 62.7236 218.596 62.7236C216.24 62.7236 215.321 63.6328 215.321 65.5811V66.3325H213.967V68.3271H215.321V76.2314ZM230.744 66.2861H228.035V71.9824C228.035 73.2998 227.284 74.1626 226.078 74.1626C224.881 74.1626 224.222 73.4575 224.222 72.1309V66.2861H221.514V72.6968C221.514 75.0161 222.942 76.417 225.095 76.417C226.597 76.417 227.581 75.6934 228.073 74.4409H228.128V76.2314H230.744V66.2861ZM232.762 76.2314H235.471V62.8442H232.762V76.2314ZM238.222 62.8442L238.444 71.8247H240.782L241.005 62.8442H238.222ZM239.613 76.4634C240.457 76.4634 241.125 75.8232 241.125 75.0068C241.125 74.1904 240.457 73.5503 239.613 73.5503C238.769 73.5503 238.101 74.1904 238.101 75.0068C238.101 75.8232 238.769 76.4634 239.613 76.4634Z" fill="#3a4854"/>
<path d="M254.589 127.438H96.8005C95.9113 127.438 95.1904 128.16 95.1904 129.051V139.536C95.1904 140.427 95.9113 141.149 96.8005 141.149H254.589C255.479 141.149 256.2 140.427 256.2 139.536V129.051C256.2 128.16 255.479 127.438 254.589 127.438Z" fill="#F1F4F6"/>
<path opacity="0.5" d="M186.966 133.083H164.424C163.98 133.083 163.619 133.444 163.619 133.89V134.696C163.619 135.142 163.98 135.503 164.424 135.503H186.966C187.41 135.503 187.771 135.142 187.771 134.696V133.89C187.771 133.444 187.41 133.083 186.966 133.083Z" fill="white" fill-opacity="0.5"/>
<g filter="url(#filter0_d)">
<path d="M170.06 158.894H96.8005C95.9113 158.894 95.1904 159.616 95.1904 160.507V170.992C95.1904 171.883 95.9113 172.605 96.8005 172.605H170.06C170.949 172.605 171.67 171.883 171.67 170.992V160.507C171.67 159.616 170.949 158.894 170.06 158.894Z" fill="white"/>
</g>
<path d="M145.103 164.539H122.562C122.117 164.539 121.757 164.9 121.757 165.346V166.152C121.757 166.598 122.117 166.959 122.562 166.959H145.103C145.548 166.959 145.908 166.598 145.908 166.152V165.346C145.908 164.9 145.548 164.539 145.103 164.539Z" fill="#3a4854" fill-opacity="0.15"/>
<path d="M254.589 158.894H181.33C180.441 158.894 179.72 159.616 179.72 160.507V170.992C179.72 171.883 180.441 172.605 181.33 172.605H254.589C255.479 172.605 256.2 171.883 256.2 170.992V160.507C256.2 159.616 255.479 158.894 254.589 158.894Z" fill="#5233ff"/>
<path opacity="0.5" d="M229.633 164.539H207.092C206.647 164.539 206.287 164.9 206.287 165.346V166.152C206.287 166.598 206.647 166.959 207.092 166.959H229.633C230.078 166.959 230.438 166.598 230.438 166.152V165.346C230.438 164.9 230.078 164.539 229.633 164.539Z" fill="white" fill-opacity="0.5"/>
<path opacity="0.2" fill-rule="evenodd" clip-rule="evenodd" d="M95.1904 149.215H256.2V150.021H95.1904V149.215Z" fill="white"/>
<path fill-rule="evenodd" clip-rule="evenodd" d="M1 238.744H350.39V240.357H1V238.744Z" fill="#EFF1F5"/>
<path fill-rule="evenodd" clip-rule="evenodd" d="M1 29.0366H350.39V30.6498H1V29.0366Z" fill="#E9E9E9" fill-opacity="0.4"/>
<circle cx="16.6948" cy="15.5" r="5.5" fill="#3a4854" fill-opacity="0.15"/>
<defs>
<filter id="filter0_d" x="94.1904" y="157.894" width="78.4793" height="15.7116" filterUnits="userSpaceOnUse" color-interpolation-filters="sRGB">
<feFlood flood-opacity="0" result="BackgroundImageFix"/>
<feColorMatrix in="SourceAlpha" type="matrix" values="0 0 0 0 0 0 0 0 0 0 0 0 0 0 0 0 0 0 127 0"/>
<feOffset/>
<feGaussianBlur stdDeviation="0.5"/>
<feColorMatrix type="matrix" values="0 0 0 0 0 0 0 0 0 0 0 0 0 0 0 0 0 0 0.3 0"/>
<feBlend mode="normal" in2="BackgroundImageFix" result="effect1_dropShadow"/>
<feBlend mode="normal" in="SourceGraphic" in2="effect1_dropShadow" result="shape"/>
</filter>
</defs>
</svg>
