<svg fill="none" xmlns="http://www.w3.org/2000/svg" viewBox="0 0 95 120">
  <path fill-rule="evenodd" clip-rule="evenodd" d="M93.772 72.793v18.456L46.06 118.315 1 92.111V72.814l92.772-.021z" fill="#E8EBF2"/>
  <path fill-rule="evenodd" clip-rule="evenodd" d="M46.796 45.17L1 72.814l45.796 26.622L93.81 72.813 46.796 45.17z" fill="#384854"/>
  <path fill-rule="evenodd" clip-rule="evenodd" d="M93.772 50.114v18.457L46.06 95.636 1 69.432V50.135l92.772-.02z" fill="#E8EBF2"/>
  <path fill-rule="evenodd" clip-rule="evenodd" d="M46.797 22.491L1 50.135l45.797 26.623L93.81 50.135 46.797 22.491z" fill="#384854"/>
  <path fill-rule="evenodd" clip-rule="evenodd" d="M93.772 27.623V46.08L46.06 73.145 1 46.94V27.644l92.772-.02z" fill="#E8EBF2"/>
  <path fill-rule="evenodd" clip-rule="evenodd" d="M46.796 0L1 27.644l45.796 26.622L93.81 27.644 46.796 0z" fill="#F7F9FE"/>
  <path fill-rule="evenodd" clip-rule="evenodd" d="M93.772 72.793v19.034L46.06 118.315l.263-19.048 47.448-26.474zM93.772 50.114v19.034L46.06 95.636l.263-19.048 47.448-26.474zM93.772 27.623v19.033L46.06 73.145l.263-19.048 47.448-26.474z" fill="#CED2DD"/>
  <path opacity=".2" fill-rule="evenodd" clip-rule="evenodd" d="M42.066 68.289V54.938L3.538 32.082v13.767l38.528 22.44zM42.184 90.397v-13.35L3.657 54.19v13.767l38.527 22.44zM42.184 113.076V99.725L3.657 76.868v13.768l38.527 22.44z" fill="#BDBDBD"/>
  <path d="M93.772 50.186L46.06 76.338 1 50.114" stroke="#fff" stroke-width="1.157"/>
  <path d="M93.912 72.942L46.166 99.204 1 72.794" stroke="#fff" stroke-width="1.157"/>
  <path d="M63.31 20.911c.074.043.115.1.115.16s-.041.118-.115.16l-9.89 5.71 4.897 2.827c1.398.807 2.183 1.902 2.183 3.043 0 1.141-.785 2.236-2.183 3.043l-.472.272a.568.568 0 01-.277.067.568.568 0 01-.278-.067l-9.89-5.71-4.897 2.827c-1.398.807-3.294 1.26-5.27 1.26-1.978 0-3.874-.453-5.272-1.26l-.471-.272c-.074-.042-.115-.1-.115-.16s.041-.118.115-.16l9.89-5.71-4.897-2.826c-1.398-.808-2.183-1.902-2.183-3.043 0-1.142.785-2.236 2.183-3.043l.472-.273a.57.57 0 01.277-.066c.104 0 .204.024.278.066l9.89 5.71 4.897-2.827c1.397-.807 3.294-1.26 5.27-1.26 1.978 0 3.874.453 5.272 1.26l.471.272zm3.33-1.922l-.472-.272c-2.281-1.317-5.375-2.056-8.6-2.056-3.226 0-6.32.74-8.6 2.056l-1.568.905-6.561-3.788c-.957-.552-2.254-.862-3.607-.862-1.352 0-2.65.31-3.606.862l-.472.273c-2.28 1.316-3.562 3.102-3.562 4.965 0 1.862 1.281 3.648 3.562 4.964l1.568.905-6.562 3.788c-.956.552-1.493 1.301-1.493 2.082 0 .781.537 1.53 1.493 2.082l.472.272c2.281 1.317 5.375 2.057 8.6 2.057 3.226 0 6.32-.74 8.6-2.057l1.568-.904 6.561 3.787c.956.552 2.254.863 3.607.863 1.352 0 2.65-.31 3.606-.863l.472-.272c2.28-1.317 3.562-3.103 3.562-4.965 0-1.862-1.281-3.648-3.562-4.965l-1.568-.905 6.561-3.787c.957-.553 1.494-1.302 1.494-2.082 0-.781-.537-1.53-1.494-2.082z" fill="#0471FF"/>
</svg>
