<svg width="200" height="200" viewBox="0 0 200 200" fill="none" xmlns="http://www.w3.org/2000/svg">
<rect width="200" height="200" fill="white"/>
<rect width="200" height="200" fill="#F5F5F5"/>
<path d="M153.679 95.3597L131.078 56.053C130.228 54.5457 128.999 53.2866 127.513 52.4003C126.027 51.5141 124.335 51.0313 122.605 51H77.3945C75.6642 51.0305 73.972 51.5128 72.4857 52.3992C70.9993 53.2856 69.7706 54.5452 68.9213 56.053L46.3118 95.2566C45.4523 96.7522 45 98.447 45 100.172C45 101.897 45.4523 103.592 46.3118 105.088L68.9127 144.618C69.7536 146.147 70.9758 147.432 72.4606 148.35C73.9453 149.267 75.6421 149.784 77.3859 149.851H122.596C124.34 149.791 126.038 149.28 127.525 148.367C129.012 147.454 130.236 146.171 131.078 144.643L153.679 105.337C154.545 103.817 155 102.098 155 100.348C155 98.5989 154.545 96.8797 153.679 95.3597V95.3597Z" fill="#4285F4"/>
<path opacity="0.07" d="M118.463 88.8544L87.3717 91.716L81.3562 97.7315L86.5123 102.888L81.3992 111.842L119.382 149.825H122.596C124.34 149.765 126.038 149.254 127.525 148.341C129.012 147.429 130.236 146.145 131.078 144.618L146.83 117.222L118.463 88.8544Z" fill="black"/>
<path d="M117.784 88.6138H82.1726C82.0328 88.6092 81.8935 88.6326 81.7628 88.6827C81.6322 88.7328 81.5129 88.8085 81.412 88.9054C81.3111 89.0023 81.2306 89.1185 81.1753 89.2469C81.12 89.3754 81.0909 89.5137 81.0898 89.6536V97.0182C81.0898 97.294 81.1994 97.5585 81.3944 97.7535C81.5894 97.9485 81.8539 98.058 82.1297 98.058H117.784C118.059 98.0558 118.322 97.9455 118.517 97.751C118.711 97.5565 118.822 97.2933 118.824 97.0182V89.6536C118.822 89.3785 118.711 89.1153 118.517 88.9208C118.322 88.7263 118.059 88.616 117.784 88.6138V88.6138ZM112.276 95.4886C111.854 95.4886 111.442 95.3636 111.092 95.1294C110.741 94.8952 110.468 94.5624 110.307 94.173C110.145 93.7835 110.103 93.355 110.185 92.9416C110.268 92.5282 110.471 92.1485 110.769 91.8504C111.067 91.5524 111.446 91.3494 111.86 91.2672C112.273 91.1849 112.702 91.2271 113.091 91.3884C113.481 91.5497 113.814 91.8229 114.048 92.1734C114.282 92.5238 114.407 92.9359 114.407 93.3574C114.407 93.6373 114.352 93.9144 114.245 94.173C114.138 94.4315 113.981 94.6665 113.783 94.8644C113.585 95.0623 113.35 95.2193 113.091 95.3264C112.833 95.4335 112.556 95.4886 112.276 95.4886Z" fill="white"/>
<path d="M117.784 102.767H82.1725C82.029 102.762 81.8861 102.787 81.7525 102.84C81.619 102.893 81.4977 102.972 81.3962 103.074C81.2947 103.175 81.2151 103.297 81.1624 103.43C81.1096 103.564 81.0849 103.707 81.0897 103.85V111.215C81.0919 111.49 81.2022 111.753 81.3967 111.947C81.5912 112.142 81.8544 112.252 82.1295 112.255H117.784C118.059 112.252 118.322 112.142 118.517 111.947C118.711 111.753 118.822 111.49 118.824 111.215V103.807C118.822 103.532 118.711 103.269 118.517 103.074C118.322 102.88 118.059 102.77 117.784 102.767V102.767ZM112.276 109.642C111.854 109.642 111.442 109.517 111.092 109.283C110.741 109.049 110.468 108.716 110.307 108.326C110.145 107.937 110.103 107.509 110.185 107.095C110.268 106.682 110.471 106.302 110.769 106.004C111.067 105.706 111.446 105.503 111.86 105.421C112.273 105.338 112.702 105.381 113.091 105.542C113.481 105.703 113.813 105.976 114.048 106.327C114.282 106.677 114.407 107.089 114.407 107.511C114.407 107.791 114.352 108.068 114.244 108.326C114.137 108.585 113.98 108.82 113.783 109.018C113.585 109.216 113.35 109.373 113.091 109.48C112.833 109.587 112.555 109.642 112.276 109.642Z" fill="white"/>
</svg>
