<svg width="1001" height="282" viewBox="0 0 1001 282" fill="none" xmlns="http://www.w3.org/2000/svg">
<path d="M100.509 41.6718C100.68 39.597 102.413 38 104.495 38H117.657C119.996 38 121.836 39.9975 121.644 42.3282L120.491 56.3282C120.32 58.403 118.587 60 116.505 60H103.343C101.004 60 99.1644 58.0025 99.3563 55.6718L100.509 41.6718Z" fill="#FF0076" fill-opacity="0.1"/>
<path d="M1.50876 115.671C1.67956 113.596 3.41337 112 5.49528 112H18.6572C20.9957 112 22.8356 113.997 22.6437 116.328L21.4912 130.328C21.3204 132.403 19.5866 134 17.5047 134H4.34281C2.00425 134 0.164432 132.002 0.356291 129.671L1.50876 115.671Z" fill="#FF0076" fill-opacity="0.5"/>
<path d="M211.509 220.672C211.68 218.597 213.413 217 215.495 217H228.657C230.996 217 232.836 218.997 232.644 221.328L231.491 235.328C231.32 237.403 229.587 239 227.505 239H214.343C212.004 239 210.164 237.003 210.356 234.672L211.509 220.672Z" fill="#FF0076" fill-opacity="0.3"/>
<path d="M587.509 3.67135C587.68 1.59646 589.413 -0.000488281 591.495 -0.000488281H604.657C606.996 -0.000488281 608.836 1.997 608.644 4.32768L607.491 18.3277C607.32 20.4026 605.587 21.9995 603.505 21.9995H590.343C588.004 21.9995 586.164 20.002 586.356 17.6713L587.509 3.67135Z" fill="#FF0076" fill-opacity="0.5"/>
<path d="M979.509 263.672C979.68 261.597 981.413 260 983.495 260H996.657C998.996 260 1000.84 261.997 1000.64 264.328L999.491 278.328C999.32 280.403 997.587 282 995.505 282H982.343C980.004 282 978.164 280.003 978.356 277.672L979.509 263.672Z" fill="#FF0076" fill-opacity="0.5"/>
<path d="M485.509 102.671C485.68 100.596 487.413 98.9995 489.495 98.9995H502.657C504.996 98.9995 506.836 100.997 506.644 103.328L505.491 117.328C505.32 119.403 503.587 121 501.505 121H488.343C486.004 121 484.164 119.002 484.356 116.671L485.509 102.671Z" fill="#FF0076" fill-opacity="0.3"/>
<path d="M531.509 209.672C531.68 207.597 533.413 206 535.495 206H548.657C550.996 206 552.836 207.997 552.644 210.328L551.491 224.328C551.32 226.403 549.587 228 547.505 228H534.343C532.004 228 530.164 226.003 530.356 223.672L531.509 209.672Z" fill="#FF0076" fill-opacity="0.1"/>
</svg>
