<svg version="1.1" id="Layer_1" xmlns="http://www.w3.org/2000/svg" xmlns:xlink="http://www.w3.org/1999/xlink" x="0px" y="0px"
   viewBox="0 0 340 170" style="enable-background:new 0 0 340 170;" xml:space="preserve">
  <defs>
    <style>
      .cls-1 {
        fill: #53585f;
      }
    </style>
  </defs>
  <title>chanel</title>
  <g>
    <polygon class="cls-1" points="107.19 80.62 107.19 69.08 100.72 69.08 100.72 100.8 107.19 100.8 107.19 87.28 123 87.28 123 100.82 129.5 100.82 129.5 69.08 123 69.08 123 80.62 107.19 80.62"/>
    <polygon class="cls-1" points="244.14 69.08 220.66 69.08 220.66 100.78 245.69 100.78 245.69 94.72 227.32 94.72 227.32 87.88 242.27 87.88 242.27 81.48 227.32 81.48 227.32 75.21 244.14 75.21 244.14 69.08"/>
    <polygon class="cls-1" points="203.54 100.78 208.75 100.78 208.75 69.11 202.31 69.11 202.31 88.03 188.14 69.11 179.67 69.11 179.67 100.78 185.97 100.78 185.97 77.29 203.54 100.78"/>
    <path class="cls-1" d="M158.89,69.11h-8.83L135.38,100.8h6.94l3.27-7h17.34l3.35,7h7.29ZM148.52,87.43l5.78-12.57,5.75,12.57Z"/>
    <polygon class="cls-1" points="261.65 69.08 254.97 69.08 254.97 100.78 279 100.78 279 94.72 261.65 94.72 261.65 69.08"/>
    <path class="cls-1" d="M93.07,92.2a17.09,17.09,0,0,1-15.27,9.17,16.39,16.39,0,0,1-1.37-32.74h1.44A17.11,17.11,0,0,1,92.77,77l-5.62,3.1a10.53,10.53,0,0,0-9.28-5.22,10.11,10.11,0,1,0-.62,20.21h.62a10.51,10.51,0,0,0,9.48-5.85Z"/>
  </g>
</svg>
