<?xml version="1.0" encoding="utf-8"?>
<!-- Generator: Adobe Illustrator 19.2.1, SVG Export Plug-In . SVG Version: 6.00 Build 0)  -->
<svg version="1.1" id="Layer_1" xmlns="http://www.w3.org/2000/svg" xmlns:xlink="http://www.w3.org/1999/xlink" x="0px" y="0px"
	 viewBox="0 0 340 170" style="enable-background:new 0 0 340 170;" xml:space="preserve">
<style type="text/css">
	.st0{fill:#53585F;}
</style>
<g>
	<g>
		<path class="st0" d="M217.6,57.2v47.2l5.9,5.5l7,0.6V62.6l-5.6-5.4H217.6z M224,103.9c-3.1-0.2-4.8-0.3-4.8-0.3V58.6l4.8,0V103.9z
			 M136.2,57.2v6.8c0,0,4.6,3.7,5.3,4.2c0,0.9,0,35.2,0,35.2l5.8,4.7l7-0.2c0,0,0-37.9,0-39.8c1.3,0,5.2,0,5.2,0v-5l-5.3-6H136.2z
			 M153.1,63.1h-5.3l0,39.2c-3.7,0.1-4.8,0.2-4.8,0.2V63.1h-5.3v-4.5l15.5,0V63.1z M91.6,57.2v1c0,0,0,1.7,0,3.2
			c-1.5-1.6-3.7-4.2-3.7-4.2H77.6l0,51.3l5.9,4.7l6.2-0.8c0,0,0-2.7,0-4.6c2,1.7,4.8,4,4.8,4l10.1-1V62.5l-5.5-5.3L91.6,57.2z
			 M98.1,105.4c-6.5,0.6-8.4,0.9-8.4,0.9L84,69.7l-0.3,0l0.3,37.1c-3.3,0.4-4.9,0.6-4.9,0.6l0-48.9l7.8,0l5.9,38.9l0.3,0l-0.2-38.9
			h5V105.4z M258.8,86.1C258.9,85.7,263,63,263,63l-5.6-5.8h-7.3c0,0-0.4,2.4-0.6,3.9c-1.4-1.6-3.5-3.9-3.5-3.9h-7.5
			c0,0,4.3,22.7,4.4,23c-0.1,0.3-4.1,25.8-4.1,25.8l8,6.1l4.8,0.6c0,0,0-2.8,0-4.3c2,1.6,6.6,5.2,6.6,5.2l6.3,0.9
			C264.3,114.5,258.9,86.4,258.8,86.1z M256.7,107.2l-5.7-0.6l-2.6-21.4l-0.3,0l-2.7,20.8l-5.2-0.5l4-25.2l-4.2-21.6h5.4l2.8,17.5
			h0.3l2.7-17.5h5.5l-4.1,22.2L256.7,107.2z M205.6,96.3c0-3,0-33.8,0-33.8l-5.5-5.2h-7.4v46l5.8,5.2l13.3,0.7l-0.3-6
			C211.6,103.1,206.9,97.8,205.6,96.3z M205.5,102.8c-7.9-0.4-11.2-0.5-11.2-0.5V58.6l4.9,0v39.5c5.5,0.2,6.4,0.3,6.4,0.3V102.8z
			 M125.6,67.4c1.3,0,5.7,0,5.7,0v-4.9l-5.5-5.3h-0.4l-12.8,0v47.9l5.8,4.6l12.8-0.8v-5.3c0,0-5.3-5.9-5.7-6.4v-8.6
			c1.3,0,5.8,0,5.8,0v-5.3c0,0-5.3-5.3-5.8-5.9V67.4z M125.4,63.1h-6.3v16l6.3,0v4.6l-6.3,0v15.7l6.3-0.4v4.5
			c-8.3,0.5-11.2,0.7-11.2,0.7V58.6l11.2,0V63.1z M179.1,67.4c1.3,0,5.7,0,5.7,0v-4.9l-5.5-5.3h-0.4l-12.8,0v45.7l5.8,4.9l7,0
			c0,0,0-17.5,0-19.3c1.3,0,5.8,0,5.8,0v-5.3c0,0-5.3-5.3-5.8-5.9V67.4z M178.9,63.1h-6.3v16l6.3,0v4.6l-6.3,0V102h-4.9V58.6l11.2,0
			V63.1z"/>
	</g>
</g>
</svg>
