<svg version="1.1" id="Layer_1" xmlns="http://www.w3.org/2000/svg" xmlns:xlink="http://www.w3.org/1999/xlink" x="0px" y="0px"
   viewBox="0 0 340 170" style="enable-background:new 0 0 340 170;" xml:space="preserve">
  <defs>
    <style>
      .cls-1 {
        fill: #53585f;
      }
    </style>
  </defs>
  <title>sennheiser</title>
  <path class="cls-1" d="M171.37,108.16C166,116.92,161,117,154.9,117H123.66V104.61h9.82a16.35,16.35,0,0,0,14.4-8l20.83-34.77C174,53.13,179,53,185.07,53h31.24V65.34h-9.82a16.37,16.37,0,0,0-14.4,8ZM167.68,117h48.66V68.07h-6v42.78h-37a20.54,20.54,0,0,1-5.59,6.15m4.64-64H123.66v48.93h6V59.07h37A23.51,23.51,0,0,1,172.32,53"/>
</svg>
