<?xml version="1.0" encoding="utf-8"?>
<!-- Generator: Adobe Illustrator 19.2.1, SVG Export Plug-In . SVG Version: 6.00 Build 0)  -->
<svg version="1.1" id="Layer_1" xmlns="http://www.w3.org/2000/svg" xmlns:xlink="http://www.w3.org/1999/xlink" x="0px" y="0px"
	 viewBox="0 0 340 170" style="enable-background:new 0 0 340 170;" xml:space="preserve">
<style type="text/css">
	.st0{fill:#53585F;}
</style>
<g>
	<path class="st0" d="M170.1,37.1c-2.3,0.5-22.8,3.2-25.4,4.5c-0.6,1.2-1.8,4.9-2.2,5.4c-1.6,0.4-8.3,1.6-8.7,1.9
		c-0.2,0.7-1.8,3.7-2.1,4.1c-1.4,0.4-8,1.6-8.8,2.2c-0.5,2.8-2.3,31.1,9.5,49.6c11.8,18.5,32.4,30.8,37.8,32h0
		c5.4-1.2,26-13.5,37.7-32c11.8-18.5,10-46.8,9.5-49.6c-0.8-0.6-7.4-1.8-8.8-2.2c-0.4-0.4-1.9-3.4-2.1-4.1c-0.4-0.2-7.1-1.5-8.7-1.9
		c-0.4-0.6-1.6-4.3-2.2-5.4C193,40.2,172.5,37.6,170.1,37.1 M170.1,44.3c2,0.4,19.6,2.8,21.7,3.9c0.5,1,1.5,4.1,1.9,4.6
		c1.4,0.3,7.2,1.4,7.5,1.6c0.2,0.6,1.5,3.2,1.8,3.5c1.2,0.3,6.9,1.3,7.6,1.8c0.4,2.4,1.9,26.6-8.1,42.4
		c-10.1,15.8-27.6,26.3-32.3,27.3h0c-4.6-1-22.2-11.5-32.3-27.3c-10.1-15.8-8.5-40-8.1-42.4c0.7-0.5,6.3-1.5,7.6-1.8
		c0.3-0.3,1.6-2.9,1.8-3.5c0.4-0.2,6.1-1.3,7.5-1.6c0.3-0.5,1.4-3.6,1.9-4.6C150.6,47.1,168.1,44.7,170.1,44.3z"/>
	<path class="st0" d="M173.3,52c-0.7,0.1-0.8,0.5-0.8,0.7c-0.1,22.6-0.1,46.6-0.3,69.8c0.1,0.7,1.3-0.4,2-0.8
		c8.6-4.7,35.3-30.6,19.9-39.9c11.8-7.7,9.7-15,4.5-19.1c-10.8-8.3-23.1-10.4-24.5-10.7C173.8,52,173.6,52,173.3,52 M180.5,61.3
		c0.2-0.1,7.1,2.5,10.9,5.1c4.3,3,2.9,5.8,0.3,7.5c-1.4,0.9-9.9,7-11.3,7.4C180.4,80.1,180.4,66.8,180.5,61.3z M186.8,87.2
		c0.9,0,1.8,0.3,2.5,1c0.6,0.6,3.2,3.3-2.3,11.3c-2.1,3.6-6.3,8.2-6.8,8.6c-0.1,0-0.1-0.1-0.1,0c0-2.6,0-15.2,0.1-18.7
		C180.5,89.3,184,87.1,186.8,87.2z"/>
	<path class="st0" d="M144.1,60.2c-0.7,0.3-6.7,4.1-7.3,4.7c-0.2,5.3,1.3,19.7,6.5,30.9c0.7,1.4,1.4,2.8,2.2,4
		c1.5,2.6,1.6,2.4,3.3-0.1c1.2-1.6,3-4.1,3.4-4.6c0.6,2,4.5,14.6,10,22.1c2.4,3.4,6.2,6.5,6.1,5.2c-0.2-12.8-0.5-68.3-0.1-70.6
		c-1.6,0-6.9,0.7-8,1.2c-0.1,2,0.7,40.1,0.2,44.4c-3.7-9.1-5-33-4.2-42.8c-2,0.4-6.9,2.4-7.6,3.1c-0.9,1.8,0.3,21.7,1.6,28.3
		c-0.4,0.7-1.7,2.6-1.9,2.9C145.8,84.4,143.3,70.3,144.1,60.2"/>
</g>
</svg>
