<svg width="221" height="54" viewBox="0 0 221 54" fill="none" xmlns="http://www.w3.org/2000/svg">
<path d="M45.3506 53.7505H22.8025C21.3396 53.7505 19.9617 53.1635 18.9268 52.0924L1.74674 34.3588C0.447973 33.0215 0.0639148 31.0215 0.764602 29.2726C1.46822 27.5207 3.10707 26.3861 4.94527 26.3861H25.9981V4.65862C25.9981 2.76756 27.0946 1.0762 28.7892 0.35003C30.4573 -0.367059 32.445 0.0414098 33.7204 1.35759L50.9092 19.0972C51.9441 20.1713 52.5128 21.5904 52.5128 23.0972V46.3617C52.5099 50.4373 49.2996 53.7505 45.3506 53.7505ZM23.7466 45.7566H44.7672V24.0624L33.7438 12.6858V34.38H12.7232L23.7466 45.7566Z" fill="#0495FE"/>
<path d="M109.118 25.7414C107.535 22.9268 104.017 21.8127 100.968 21.8127C90.9994 21.8127 85.1943 31.0773 85.1943 39.9901C85.1943 46.8507 89.123 51.9521 96.218 51.9521C99.9708 51.9521 103.606 50.3689 106.069 47.5543H106.128C106.069 48.1993 106.069 48.7857 106.069 49.2548C106.069 50.6034 106.304 51.3071 106.304 51.3071H114.806C114.806 51.3071 114.63 50.5448 114.63 49.2548C114.63 48.6684 114.689 47.9061 114.806 47.0852L118.735 22.3991H109.587C109.411 23.5132 109.235 24.6273 109.118 25.7414ZM107.77 35.1233C107.77 39.5797 104.838 44.1534 100.029 44.1534C96.5699 44.1534 94.6348 41.6906 94.6348 38.3483C94.6348 33.8919 97.5667 29.3182 102.375 29.3182C105.834 29.3182 107.77 31.781 107.77 35.1233Z" fill="#506677"/>
<path d="M146.9 24.9205C144.789 22.6923 140.215 21.8713 137.342 21.8713C127.315 21.8713 119.868 29.846 119.868 39.697C119.868 47.0852 125.145 51.9521 132.475 51.9521C135.934 51.9521 140.743 50.9552 143.557 48.6684L142.736 41.5147C140.743 43.0979 137.694 44.1534 135.172 44.1534C131.537 44.1534 129.133 41.9838 129.133 38.2897C129.133 33.6574 132.475 29.3769 137.283 29.3769C139.629 29.3769 142.267 30.2564 143.733 32.1914L146.9 24.9205Z" fill="#506677"/>
<path d="M196.993 34.0678C196.993 26.1518 191.247 21.8127 183.683 21.8127C173.304 21.8127 165.623 29.4941 165.623 39.697C165.623 47.6129 171.428 51.8934 178.933 51.8934C189.371 51.8934 196.993 44.2706 196.993 34.0678ZM187.729 35.0646C187.729 39.4038 184.973 44.0947 180.165 44.0947C176.705 44.0947 174.946 41.632 174.946 38.3483C174.946 34.0092 177.702 29.3182 182.51 29.3182C185.97 29.3182 187.729 31.781 187.729 35.0646Z" fill="#506677"/>
<path d="M220.419 22.3991C219.716 21.9886 218.484 21.8713 217.663 21.8713C214.321 21.8713 211.682 23.8064 209.982 26.5037C210.158 25.8 210.216 24.9205 210.216 24.3341C210.216 23.0441 210.04 22.3991 210.04 22.3991H200.952C200.952 22.3991 201.069 23.1027 201.069 24.2168C201.069 24.9205 201.01 25.8 200.893 26.6796L197.023 51.3071H206.17L208.223 38.4656C208.75 34.7715 210.51 30.3737 214.966 30.3737C216.021 30.3737 217.194 30.5496 218.132 31.0773H218.601L220.419 22.3991Z" fill="#506677"/>
<path d="M79.4813 29.6114H85.4623L86.635 22.3991H80.5954C81.0645 19.6431 81.2404 16.9458 84.7586 16.9458C85.8727 16.9458 86.9868 17.1218 88.0423 17.4736L89.5669 10.8476C87.6905 10.2612 85.5209 10.0853 83.5273 10.0853C74.9076 10.0853 72.6208 15.1281 71.4481 22.3991H67.8712L66.7571 29.6114H70.334L66.7427 51.9521H75.8917L79.4813 29.6114Z" fill="#506677"/>
<path d="M161.311 19.174C161.487 18.1186 161.545 17.239 161.545 16.5354C161.545 15.2454 161.37 14.6004 161.37 14.6004H152.281C152.281 14.6004 152.398 15.304 152.398 16.4181C152.398 17.1218 152.398 17.884 152.281 18.7636L151.694 22.3991L150.522 29.6114C149.759 34.5369 148.352 39.9315 148.352 45.0329C148.352 49.8411 151.108 51.9521 155.74 51.9521C158.027 51.9521 160.197 51.5416 162.366 51.0139L163.07 43.567C162.19 43.9188 161.194 44.0947 160.255 44.0947C158.672 44.0947 157.851 43.567 157.851 41.8665C157.851 37.8792 159.024 33.5401 159.669 29.6114H165.826L167.057 22.3991H160.842L161.311 19.174Z" fill="#506677"/>
</svg>
