<svg width="138" height="142" viewBox="0 0 138 142" fill="none" xmlns="http://www.w3.org/2000/svg">
<path d="M118.701 142H59.1331C55.2683 142 51.628 140.449 48.894 137.62L3.50716 90.7704C0.0760423 87.2373 -0.938578 81.9537 0.912523 77.3335C2.77137 72.7053 7.10093 69.7078 11.9572 69.7078H67.5754V12.3073C67.5754 7.31144 70.4721 2.84314 74.9488 0.924723C79.3558 -0.969709 84.6071 0.109398 87.9762 3.58652L133.386 50.4517C136.12 53.2894 137.623 57.0383 137.623 61.019V122.48C137.615 133.247 129.134 142 118.701 142ZM61.6271 120.881H117.16V63.5689L88.0382 33.5138V90.8263H32.5052L61.6271 120.881Z" fill="#0495FE"/>
</svg>