<svg xmlns="http://www.w3.org/2000/svg" viewBox="0 0 1200.7 319"><title>algolia</title><path d="M97.7,72.9A93.15,93.15,0,1,0,190.8,166,93.14,93.14,0,0,0,97.7,72.9Zm0,158.8a65.6,65.6,0,1,1,65.6-65.6A65.64,65.64,0,0,1,97.7,231.7Zm0-117.8v48.9a1.91,1.91,0,0,0,2.8,1.7L143.9,142a2,2,0,0,0,.8-2.7,54,54,0,0,0-45-27.3A2,2,0,0,0,97.7,113.9ZM36.9,78l-5.7-5.7a14.24,14.24,0,0,0-20.2,0L4.2,79.1a14.24,14.24,0,0,0,0,20.2l5.6,5.6a2,2,0,0,0,3-.2A110.08,110.08,0,0,1,23.7,91.9a102.84,102.84,0,0,1,12.9-11A1.9,1.9,0,0,0,36.9,78Zm91.3-14.8V51.9a14.3,14.3,0,0,0-14.3-14.3H80.6A14.3,14.3,0,0,0,66.3,51.9V63.5a2,2,0,0,0,2.5,1.9,104.21,104.21,0,0,1,29-4.1,105.63,105.63,0,0,1,28,3.8A1.94,1.94,0,0,0,128.2,63.2Z" style="fill:#fff"/><path d="M693.2,241.8q0,40.05-20.5,58.6T609.9,319c-10.3,0-31.7-2-48.8-5.8l6.3-31c14.3,3,33.2,3.8,43.1,3.8q23.55,0,33.6-9.6c6.7-6.4,10-15.9,10-28.5v-6.4a116.71,116.71,0,0,1-15.3,5.8,75.72,75.72,0,0,1-21.8,2.9,81.92,81.92,0,0,1-29.5-5.1,61.67,61.67,0,0,1-22.9-15,68.57,68.57,0,0,1-14.8-24.8c-3.5-9.9-5.3-27.6-5.3-40.6,0-12.2,1.9-27.5,5.6-37.7a72.14,72.14,0,0,1,16.5-26.3,75.59,75.59,0,0,1,26.3-17A96.35,96.35,0,0,1,628.4,77c12.7,0,24.4,1.6,35.8,3.5a286.79,286.79,0,0,1,29,6.1V241.8ZM584.5,164.6c0,16.4,3.6,34.6,10.8,42.2s16.5,11.4,27.9,11.4a59.45,59.45,0,0,0,17.6-2.6,49.28,49.28,0,0,0,13.4-6.1V112.4a154.58,154.58,0,0,0-25.8-3.3c-14.2-.4-25,5.4-32.6,14.7S584.5,149.4,584.5,164.6Zm294.3,0a95,95,0,0,1-5.8,34.1,80.67,80.67,0,0,1-16.5,27.9,72.64,72.64,0,0,1-25.6,17.9c-10,4.2-25.4,6.6-33.1,6.6s-23-2.3-32.9-6.6a74.5,74.5,0,0,1-25.5-17.9,82.45,82.45,0,0,1-16.6-27.9,92.82,92.82,0,0,1-6-34.1c0-13.2,1.8-25.9,5.8-36.7a81.31,81.31,0,0,1,16.8-27.7A75.18,75.18,0,0,1,765,82.4a82.71,82.71,0,0,1,32.6-6.2,85.4,85.4,0,0,1,32.7,6.2,71.51,71.51,0,0,1,25.6,17.8,82.49,82.49,0,0,1,16.6,27.7C876.7,138.7,878.8,151.4,878.8,164.6Zm-40,.1c0-16.9-3.7-31-10.9-40.8s-17.3-14.8-30.2-14.8-23,4.9-30.2,14.8-10.7,23.9-10.7,40.8c0,17.1,3.6,28.6,10.8,38.5s17.3,14.9,30.2,14.9,23-5,30.2-14.9S838.8,181.8,838.8,164.7Zm127.1,86.4c-64.1.3-64.1-51.8-64.1-60.1L901.7,6.2,940.8,0V183.6c0,4.7,0,34.5,25.1,34.6v32.9Zm68.9,0H995.5V82.3l39.3-6.2ZM1015.1,57.6a23.7,23.7,0,1,0-23.8-23.7A23.77,23.77,0,0,0,1015.1,57.6Zm117.4,18.6c12.9,0,23.8,1.6,32.6,4.8s15.9,7.7,21.1,13.4,8.9,13.5,11.1,21.7a100,100,0,0,1,3.4,27.1V243.8c-6,1.3-15.1,2.8-27.3,4.6a283.37,283.37,0,0,1-41.1,2.7,124.65,124.65,0,0,1-27.7-2.9,58.47,58.47,0,0,1-21.5-9.3,45,45,0,0,1-13.9-16.6c-3.3-6.8-5-16.4-5-26.4,0-9.6,1.9-15.7,5.6-22.3a47.44,47.44,0,0,1,15.3-16.2,65.85,65.85,0,0,1,22.4-9,128.33,128.33,0,0,1,26.6-2.7,131.67,131.67,0,0,1,13.6.8,116.34,116.34,0,0,1,15.2,2.7v-6.4a48.28,48.28,0,0,0-1.6-12.8,27.45,27.45,0,0,0-5.6-10.7,26.26,26.26,0,0,0-10.6-7.2,46.19,46.19,0,0,0-16.7-3,142.69,142.69,0,0,0-24.7,2.4,112.48,112.48,0,0,0-18.4,4.5l-4.7-32.1a155.51,155.51,0,0,1,21.6-5.1A170.18,170.18,0,0,1,1132.5,76.2Zm3.3,141.9c12,0,20.9-.7,27.1-1.9V176.4a79.79,79.79,0,0,0-9.4-1.9,93.22,93.22,0,0,0-13.6-1,83.47,83.47,0,0,0-13.1,1,39.37,39.37,0,0,0-11.9,3.5,21.33,21.33,0,0,0-8.5,7.2c-2.2,3.1-3.2,4.9-3.2,9.6,0,9.2,3.2,14.5,9,18S1125.9,218.1,1135.8,218.1ZM363.6,77.2c12.9,0,23.8,1.6,32.6,4.8s15.9,7.7,21.1,13.4,8.9,13.5,11.1,21.7a100,100,0,0,1,3.4,27.1V244.8c-6,1.3-15.1,2.8-27.3,4.6a283.37,283.37,0,0,1-41.1,2.7,124.65,124.65,0,0,1-27.7-2.9,58.47,58.47,0,0,1-21.5-9.3,45,45,0,0,1-13.9-16.6c-3.3-6.8-5-16.4-5-26.4,0-9.6,1.9-15.7,5.6-22.3a47.44,47.44,0,0,1,15.3-16.2,65.85,65.85,0,0,1,22.4-9,128.33,128.33,0,0,1,26.6-2.7,131.67,131.67,0,0,1,13.6.8,119.35,119.35,0,0,1,15.2,2.7v-6.4a48.28,48.28,0,0,0-1.6-12.8,27.45,27.45,0,0,0-5.6-10.7,26.26,26.26,0,0,0-10.6-7.2,46.19,46.19,0,0,0-16.7-3,142.69,142.69,0,0,0-24.7,2.4,112.48,112.48,0,0,0-18.4,4.5l-4.7-32.1a155.51,155.51,0,0,1,21.6-5.1A161.35,161.35,0,0,1,363.6,77.2Zm3.4,142c12,0,20.9-.7,27.1-1.9V177.5a79.79,79.79,0,0,0-9.4-1.9,93.22,93.22,0,0,0-13.6-1,83.47,83.47,0,0,0-13.1,1,39.37,39.37,0,0,0-11.9,3.5,21.33,21.33,0,0,0-8.5,7.2c-2.2,3.1-3.2,4.9-3.2,9.6,0,9.2,3.2,14.5,9,18S357.1,219.2,367,219.2Zm158.5,31.9c-64.1.3-64.1-51.8-64.1-60.1L461.3,6.2,500.4,0V183.6c0,4.7,0,34.5,25.1,34.6Z" style="fill:#fff"/></svg>