<svg xmlns="http://www.w3.org/2000/svg" viewBox="0 0 360.18 97.41"><title>Asset 1</title><path d="M69.37,41.69H39.11a1.41,1.41,0,0,0-1.42,1.42V57.9a1.42,1.42,0,0,0,1.42,1.42h11.8V77.71s-2.65.9-10,.9c-8.65,0-20.73-3.16-20.73-29.72S32.78,18.82,44.59,18.82c10.23,0,14.63,1.8,17.43,2.67a1.43,1.43,0,0,0,1.7-1.39L67.09,5.8a1.31,1.31,0,0,0-.54-1.1C65.41,3.88,58.47,0,40.93,0,20.73,0,0,8.6,0,49.92S23.73,97.41,43.73,97.41c16.55,0,26.6-7.08,26.6-7.08a1.23,1.23,0,0,0,.46-1.07V43.11A1.42,1.42,0,0,0,69.37,41.69Z" style="fill:#fff"/><path d="M225.36,5A1.41,1.41,0,0,0,224,3.53h-17A1.41,1.41,0,0,0,205.5,5V37.89H178.94V5a1.41,1.41,0,0,0-1.41-1.42h-17A1.41,1.41,0,0,0,159.08,5V94.13a1.42,1.42,0,0,0,1.41,1.43h17a1.42,1.42,0,0,0,1.41-1.43V56H205.5l0,38.15a1.42,1.42,0,0,0,1.41,1.43H224a1.43,1.43,0,0,0,1.41-1.43Z" style="fill:#fff"/><path d="M101.53,16.65a11,11,0,1,0-11,11.11A11,11,0,0,0,101.53,16.65Z" style="fill:#fff"/><path d="M100.31,75.32V34.15a1.42,1.42,0,0,0-1.41-1.42h-17a1.63,1.63,0,0,0-1.47,1.59v59c0,1.74,1.08,2.25,2.48,2.25h15.3c1.68,0,2.09-.82,2.09-2.27Z" style="fill:#fff"/><path d="M290.12,32.87H273.21a1.41,1.41,0,0,0-1.4,1.42V78a19.14,19.14,0,0,1-10.4,3.14c-6.1,0-7.72-2.76-7.72-8.74V34.29a1.41,1.41,0,0,0-1.4-1.42H235.12a1.41,1.41,0,0,0-1.4,1.42v41c0,17.74,9.88,22.08,23.48,22.08,11.15,0,20.15-6.17,20.15-6.17a34.29,34.29,0,0,0,.62,3.64,1.49,1.49,0,0,0,1.24.77l10.92,0a1.42,1.42,0,0,0,1.41-1.42V34.29A1.43,1.43,0,0,0,290.12,32.87Z" style="fill:#fff"/><path d="M336.35,30.86a31.76,31.76,0,0,0-16.14,4.29V5a1.41,1.41,0,0,0-1.41-1.42H301.71A1.41,1.41,0,0,0,300.3,5V94.13a1.42,1.42,0,0,0,1.41,1.43h11.86a1.43,1.43,0,0,0,1.24-.76,28.4,28.4,0,0,0,.72-4.11s7,6.62,20.22,6.62c15.53,0,24.43-7.88,24.43-35.37S346,30.86,336.35,30.86Zm-6.67,50.25a20.31,20.31,0,0,1-9.85-2.84V50a22.54,22.54,0,0,1,8.74-2.84c6.09-.54,12,1.3,12,15.82C340.53,78.33,337.88,81.36,329.68,81.11Z" style="fill:#fff"/><path d="M149.29,32.72H136.51l0-16.88c0-.64-.33-1-1.07-1H118c-.68,0-1,.3-1,.95V33.28s-8.73,2.11-9.32,2.28a1.41,1.41,0,0,0-1,1.36v11A1.42,1.42,0,0,0,108,49.31H117V75.69c0,19.6,13.75,21.52,23,21.52a38.91,38.91,0,0,0,10.15-1.67,1.32,1.32,0,0,0,.8-1.28V82.2a1.43,1.43,0,0,0-1.41-1.42c-.75,0-2.65.3-4.61.3-6.28,0-8.41-2.92-8.41-6.7V49.31h12.78a1.42,1.42,0,0,0,1.41-1.43V34.15A1.42,1.42,0,0,0,149.29,32.72Z" style="fill:#fff"/></svg>