<svg width="48" height="48" viewBox="0 0 48 48" fill="none" xmlns="http://www.w3.org/2000/svg">
<rect x="1" y="1" width="46" height="46" stroke="#00c1a5" stroke-width="2"/>
<path d="M21.2148 21.1201H25.6842V32.8712C25.6842 38.1691 22.9771 40.0164 18.6563 40.0164C17.6 40.0164 16.2464 39.8521 15.36 39.5732L15.859 36.1824C16.4747 36.3765 17.2709 36.511 18.152 36.511C20.0364 36.511 21.2095 35.7093 21.2095 32.8413V21.1201H21.2148Z" fill="#00c1a5"/>
<path d="M29.5642 35.7143C30.7426 36.2919 32.6217 36.8745 34.5326 36.8745C36.5921 36.8745 37.6803 36.0728 37.6803 34.833C37.6803 33.7027 36.7407 33.0106 34.3574 32.2388C31.0611 31.1334 28.8901 29.4255 28.8901 26.6919C28.8848 23.5201 31.7405 21.1201 36.3851 21.1201C38.6516 21.1201 40.2653 21.5334 41.4437 22.0562L40.4458 25.4222C39.6814 25.0637 38.2376 24.5409 36.3267 24.5409C34.384 24.5409 33.4444 25.3973 33.4444 26.3334C33.4444 27.5185 34.5326 28.0413 37.1229 28.9824C40.6209 30.1973 42.2399 31.9052 42.2399 34.5541C42.2399 37.6712 39.7132 40.3201 34.2725 40.3201C32.0059 40.3201 29.7713 39.7425 28.6566 39.16L29.5642 35.7143Z" fill="#00c1a5"/>
</svg>
