<svg width="54" height="54" viewBox="0 0 54 54" fill="none" xmlns="http://www.w3.org/2000/svg">
<g filter="url(#filter0_d)">
<rect x="7" y="4" width="40" height="40" rx="3" fill="url(#paint0_linear)"/>
</g>
<path d="M33.3904 35H24.1615C23.5627 35 22.9987 34.7597 22.5751 34.3214L15.5434 27.063C15.0118 26.5156 14.8546 25.697 15.1414 24.9812C15.4294 24.2642 16.1001 23.7998 16.8525 23.7998H25.4694V14.9068C25.4694 14.1328 25.9182 13.4405 26.6118 13.1433C27.2946 12.8498 28.1081 13.0169 28.6301 13.5557L35.6655 20.8165C36.0891 21.2561 36.3219 21.8369 36.3219 22.4536V31.9758C36.3207 33.6439 35.0067 35 33.3904 35ZM24.5479 31.7281H33.1516V22.8487L28.6397 18.1923V27.0717H20.036L24.5479 31.7281Z" fill="#F7F7F7"/>
<defs>
<filter id="filter0_d" x="0" y="0" width="54" height="54" filterUnits="userSpaceOnUse" color-interpolation-filters="sRGB">
<feFlood flood-opacity="0" result="BackgroundImageFix"/>
<feColorMatrix in="SourceAlpha" type="matrix" values="0 0 0 0 0 0 0 0 0 0 0 0 0 0 0 0 0 0 127 0"/>
<feOffset dy="3"/>
<feGaussianBlur stdDeviation="3.5"/>
<feColorMatrix type="matrix" values="0 0 0 0 1 0 0 0 0 1 0 0 0 0 1 0 0 0 0.2 0"/>
<feBlend mode="normal" in2="BackgroundImageFix" result="effect1_dropShadow"/>
<feBlend mode="normal" in="SourceGraphic" in2="effect1_dropShadow" result="shape"/>
</filter>
<linearGradient id="paint0_linear" x1="44.6" y1="40.8" x2="11.8" y2="8" gradientUnits="userSpaceOnUse">
<stop offset="0.364583" stop-color="#00D1B2"/>
<stop offset="1" stop-color="#00BFA3"/>
</linearGradient>
</defs>
</svg>
