<svg xmlns="http://www.w3.org/2000/svg" xmlns:xlink="http://www.w3.org/1999/xlink" viewBox="0 0 442.37 270.93"><defs><linearGradient id="a" x1="115.89" y1="115.79" x2="210.09" y2="115.79" gradientUnits="userSpaceOnUse"><stop offset="0.01" stop-color="#fff"/><stop offset="0.19" stop-color="#e8e8e8"/><stop offset="0.54" stop-color="#c3c3c3"/><stop offset="0.82" stop-color="#ababab"/><stop offset="1" stop-color="#a3a3a3"/></linearGradient><clipPath id="b"><path d="M165.53,62.85a5.1,5.1,0,0,0-5.07,0l-42,24.26a5.07,5.07,0,0,0-2.54,4.39v48.55a5.09,5.09,0,0,0,2.54,4.4l42,24.27a5.07,5.07,0,0,0,5.08,0l42-24.27a5.08,5.08,0,0,0,2.53-4.4V91.5a5.06,5.06,0,0,0-2.53-4.39Z" style="fill:none;clip-rule:evenodd"/></clipPath><linearGradient id="c" x1="115.24" y1="115.72" x2="212.42" y2="115.72" gradientUnits="userSpaceOnUse"><stop offset="0" stop-color="#a3a3a3"/><stop offset="0.18" stop-color="#ababab"/><stop offset="0.46" stop-color="#c3c3c3"/><stop offset="0.81" stop-color="#e8e8e8"/><stop offset="0.99" stop-color="#fff"/></linearGradient></defs><title>node</title><path d="M218.65,270.93a8.35,8.35,0,0,1-4.19-1.12l-13.34-7.9c-2-1.11-1-1.5-.36-1.73a27.15,27.15,0,0,0,6-2.75,1,1,0,0,1,1,.08L218,263.59a1.28,1.28,0,0,0,1.23,0l39.95-23.06a1.24,1.24,0,0,0,.61-1.08v-46.1a1.27,1.27,0,0,0-.62-1.1l-39.93-23a1.23,1.23,0,0,0-1.23,0l-39.92,23a1.27,1.27,0,0,0-.64,1.09v46.1a1.24,1.24,0,0,0,.63,1.07l10.95,6.32c5.94,3,9.57-.52,9.57-4V197.28a1.15,1.15,0,0,1,1.16-1.15h5.07a1.16,1.16,0,0,1,1.16,1.15V242.8c0,7.93-4.32,12.47-11.83,12.47-2.31,0-4.13,0-9.21-2.5l-10.47-6a8.42,8.42,0,0,1-4.19-7.29v-46.1a8.41,8.41,0,0,1,4.19-7.28l40-23.09a8.74,8.74,0,0,1,8.39,0l40,23.09a8.42,8.42,0,0,1,4.2,7.28v46.1a8.44,8.44,0,0,1-4.2,7.29l-40,23.07A8.33,8.33,0,0,1,218.65,270.93Z" style="fill:#fff"/><path d="M231,239.16c-17.48,0-21.15-8-21.15-14.75a1.15,1.15,0,0,1,1.16-1.15h5.16a1.15,1.15,0,0,1,1.15,1c.78,5.25,3.11,7.91,13.68,7.91,8.41,0,12-1.91,12-6.37,0-2.57-1-4.49-14.1-5.77-10.93-1.08-17.69-3.49-17.69-12.24,0-8.06,6.79-12.86,18.19-12.86,12.79,0,19.13,4.44,19.93,14a1.17,1.17,0,0,1-1.15,1.26H243a1.16,1.16,0,0,1-1.12-.91c-1.24-5.53-4.27-7.3-12.47-7.3-9.19,0-10.26,3.2-10.26,5.6,0,2.91,1.26,3.75,13.67,5.4s18.1,3.92,18.1,12.54S243.65,239.16,231,239.16Z" style="fill:#fff"/><path d="M288.59,190.81a7.7,7.7,0,1,1-7.7-7.7A7.72,7.72,0,0,1,288.59,190.81Zm-14.15,0a6.46,6.46,0,1,0,6.43-6.43A6.46,6.46,0,0,0,274.44,190.79Zm3.56-4.3h3c1,0,3,0,3,2.29a2,2,0,0,1-1.63,2.11c1.18.09,1.26.86,1.43,2a8.54,8.54,0,0,0,.44,2.28H282.4c0-.41-.33-2.61-.33-2.73-.11-.49-.28-.73-.89-.73h-1.51v3.46H278Zm1.63,3.79H281a1.16,1.16,0,0,0,1.3-1.22c0-1.18-.82-1.18-1.26-1.18h-1.39Z" style="fill:#fff"/><path d="M94.94,90.55a5.13,5.13,0,0,0-2.56-4.45L50,61.73a4.91,4.91,0,0,0-2.33-.67h-.44a5,5,0,0,0-2.33.67L2.56,86.1A5.15,5.15,0,0,0,0,90.55l.09,65.64a2.5,2.5,0,0,0,1.28,2.2,2.42,2.42,0,0,0,2.54,0L29.08,144a5.15,5.15,0,0,0,2.56-4.44V108.88a5.09,5.09,0,0,1,2.56-4.43l10.72-6.17a5,5,0,0,1,2.56-.69,4.9,4.9,0,0,1,2.54.69l10.72,6.17a5.12,5.12,0,0,1,2.56,4.43v30.66A5.16,5.16,0,0,0,65.86,144L91,158.39a2.44,2.44,0,0,0,2.55,0,2.53,2.53,0,0,0,1.27-2.2Z" style="fill:#fff;fill-rule:evenodd"/><path d="M298.73.32a2.56,2.56,0,0,0-3.8,2.24v65a1.79,1.79,0,0,1-2.69,1.55L281.64,63a5.12,5.12,0,0,0-5.12,0L234.15,87.45a5.13,5.13,0,0,0-2.56,4.43V140.8a5.13,5.13,0,0,0,2.56,4.43l42.37,24.47a5.09,5.09,0,0,0,5.12,0L324,145.23a5.12,5.12,0,0,0,2.55-4.43V18.86A5.13,5.13,0,0,0,324,14.39ZM294.8,124.73a1.26,1.26,0,0,1-.64,1.1l-14.54,8.39a1.27,1.27,0,0,1-1.28,0l-14.55-8.39a1.26,1.26,0,0,1-.64-1.1v-16.8a1.27,1.27,0,0,1,.64-1.11l14.55-8.4a1.27,1.27,0,0,1,1.28,0l14.54,8.4a1.27,1.27,0,0,1,.64,1.11Z" style="fill:#fff;fill-rule:evenodd"/><path d="M439.83,107.49a5.13,5.13,0,0,0,2.54-4.43V91.21a5.1,5.1,0,0,0-2.55-4.42l-42.1-24.45a5.12,5.12,0,0,0-5.12,0L350.24,86.79a5.12,5.12,0,0,0-2.56,4.43v48.9a5.12,5.12,0,0,0,2.59,4.45l42.09,24a5.1,5.1,0,0,0,5,0l25.46-14.15a2.57,2.57,0,0,0,0-4.46l-42.63-24.46a2.57,2.57,0,0,1-1.28-2.22V108a2.55,2.55,0,0,1,1.28-2.21L393.5,98.1a2.55,2.55,0,0,1,2.56,0l13.27,7.65a2.55,2.55,0,0,1,1.28,2.21V120a2.55,2.55,0,0,0,3.84,2.21Z" style="fill:#fff;fill-rule:evenodd"/><path d="M394.54,105.2a1,1,0,0,1,1,0l8.13,4.69a1,1,0,0,1,.49.85v9.39a1,1,0,0,1-.49.85l-8.13,4.69a1,1,0,0,1-1,0L386.41,121a1,1,0,0,1-.49-.85v-9.39a1,1,0,0,1,.49-.85Z" style="fill:#fff;fill-rule:evenodd"/><path d="M160.45,62.85a5.1,5.1,0,0,1,5.07,0l42,24.26a5.06,5.06,0,0,1,2.53,4.39v48.55a5.08,5.08,0,0,1-2.53,4.4l-42,24.27a5.07,5.07,0,0,1-5.08,0l-42-24.27a5.09,5.09,0,0,1-2.54-4.4V91.5a5.07,5.07,0,0,1,2.54-4.39Z" style="fill-rule:evenodd;fill:url(#a)"/><g style="clip-path:url(#b)"><path d="M160.4,62.85,118.33,87.11a5.16,5.16,0,0,0-2.64,4.39v48.55a5,5,0,0,0,1.19,3.18l47.29-80.91A5.13,5.13,0,0,0,160.4,62.85Z" style="fill:none"/><path d="M164.44,169.15a5.39,5.39,0,0,0,1-.43l41.93-24.27a4.91,4.91,0,0,0,2.33-4.4V91.5a5.31,5.31,0,0,0-1.06-3.27Z" style="fill:none"/><path d="M207.34,87.11,165.5,62.85a5.43,5.43,0,0,0-1.33-.53l-47.29,80.91a5.22,5.22,0,0,0,1.42,1.22l42.1,24.27a5,5,0,0,0,4,.43l44.19-80.92A4.37,4.37,0,0,0,207.34,87.11Z" style="fill:#4b4b4b;opacity:0.66"/><path d="M118.81,86.83l-.48.28a5.16,5.16,0,0,0-2.64,4.39v48.55a5.16,5.16,0,0,0,2.61,4.4l42.1,24.27a5,5,0,0,0,3.65.54Z" style="fill:none"/><path d="M209.69,91.5a4.9,4.9,0,0,0-2.35-4.39L165.5,62.85a5,5,0,0,0-1.17-.48l45.36,77.49Z" style="fill:none"/><path d="M165.43,168.72l41.93-24.27a4.91,4.91,0,0,0,2.33-4.4v-.19L164.33,62.37a5.11,5.11,0,0,0-3.93.48l-41.59,24,45.24,82.43A5.08,5.08,0,0,0,165.43,168.72Z" style="fill:url(#c)"/></g></svg>