<svg width="38" height="38" viewBox="0 0 38 38" fill="none" xmlns="http://www.w3.org/2000/svg">
<rect x="7.26099" y="11.9565" width="23.4783" height="3.375" fill="#00c1a5"/>
<path d="M36.1 19C36.1 28.4441 28.4441 36.1 19 36.1V37.9C29.4382 37.9 37.9 29.4382 37.9 19H36.1ZM19 36.1C9.55593 36.1 1.9 28.4441 1.9 19H0.1C0.1 29.4382 8.56182 37.9 19 37.9V36.1ZM1.9 19C1.9 9.55593 9.55593 1.9 19 1.9V0.1C8.56182 0.1 0.1 8.56182 0.1 19H1.9ZM19 1.9C28.4441 1.9 36.1 9.55593 36.1 19H37.9C37.9 8.56182 29.4382 0.1 19 0.1V1.9ZM28.1979 2.87386L10.9805 35.7434L12.575 36.5786L29.7924 3.70907L28.1979 2.87386Z" fill="#00c1a5"/>
<path d="M28.5498 14.5725C29.0696 14.5725 29.4909 14.1533 29.4909 13.6363C29.4909 13.1193 29.0696 12.7002 28.5498 12.7002C28.03 12.7002 27.6086 13.1193 27.6086 13.6363C27.6086 14.1533 28.03 14.5725 28.5498 14.5725Z" fill="white"/>
<rect x="7.26099" y="18.2173" width="23.4783" height="3.375" fill="#00c1a5"/>
<path d="M28.5498 20.8723C29.0696 20.8723 29.4909 20.4531 29.4909 19.9361C29.4909 19.4191 29.0696 19 28.5498 19C28.03 19 27.6086 19.4191 27.6086 19.9361C27.6086 20.4531 28.03 20.8723 28.5498 20.8723Z" fill="white"/>
<rect x="7.26099" y="24.478" width="23.4783" height="3.375" fill="#00c1a5"/>
<path d="M28.5498 27.1721C29.0696 27.1721 29.4909 26.7529 29.4909 26.2359C29.4909 25.7189 29.0696 25.2998 28.5498 25.2998C28.03 25.2998 27.6086 25.7189 27.6086 26.2359C27.6086 26.7529 28.03 27.1721 28.5498 27.1721Z" fill="white"/>
</svg>
