<svg xmlns="http://www.w3.org/2000/svg" width="603" height="431" fill="none">
  <rect width="454.261" height="300.178" x="70.361" y="107.069" fill="#D9E2E8" filter="url(#filter0_d)" rx="4"/>
  <rect width="515.895" height="300.178" x="39.544" y="81.96" fill="#C5D0D7" filter="url(#filter1_d)" rx="4"/>
  <g filter="url(#filter2_d)">
    <rect width="567" height="344" x="18" y="13" fill="#fff" rx="4"/>
    <rect width="566" height="343" x="18.5" y="13.5" stroke="#EAECED" rx="3.5"/>
  </g>
  <path fill="#464342" d="M246.256 82.13h-6.668v.707c2.085 0 2.421.447 2.421 3.092v4.77c0 2.644-.335 3.129-2.421 3.129-1.602-.224-2.683-1.08-4.173-2.72l-1.713-1.863c2.309-.41 3.538-1.862 3.538-3.502 0-2.048-1.75-3.613-5.029-3.613h-6.557v.707c2.086 0 2.422.447 2.422 3.092v4.77c0 2.644-.336 3.129-2.422 3.129v.707h7.414v-.707c-2.086 0-2.421-.485-2.421-3.13v-1.34h.633l4.135 5.177h10.841c5.328 0 7.637-2.83 7.637-6.221 0-3.39-2.309-6.184-7.637-6.184zm-15.609 6.072v-4.955h1.527c1.676 0 2.422 1.155 2.422 2.496 0 1.305-.746 2.459-2.422 2.459h-1.527zm15.721 5.179h-.261c-1.341 0-1.527-.335-1.527-2.05v-8.084h1.788c3.875 0 4.582 2.831 4.582 5.03 0 2.272-.708 5.104-4.582 5.104zM204.901 89.58l2.57-7.6c.746-2.198.411-2.83-1.974-2.83v-.746h7.004v.745c-2.347 0-2.906.559-3.837 3.279l-4.248 12.74h-.484l-3.8-11.66-3.874 11.66h-.484l-4.136-12.74c-.894-2.72-1.49-3.279-3.651-3.279v-.745h8.271v.745c-2.198 0-2.795.522-2.012 2.831l2.496 7.6 3.763-11.176h.708l3.688 11.177zM217.57 95.02c-4.098 0-7.451-3.018-7.451-6.706 0-3.651 3.353-6.67 7.451-6.67 4.098 0 7.451 3.019 7.451 6.67 0 3.688-3.353 6.706-7.451 6.706zm0-12.22c-3.427 0-4.62 3.092-4.62 5.514 0 2.46 1.193 5.514 4.62 5.514 3.465 0 4.657-3.055 4.657-5.514 0-2.422-1.192-5.513-4.657-5.513zM263.092 93.79v.745h-8.531v-.745c2.496 0 2.943-.633 2.943-4.359v-5.96c0-3.726-.447-4.322-2.943-4.322v-.745h7.711c3.837 0 5.961 1.974 5.961 4.62 0 2.57-2.124 4.582-5.961 4.582h-2.123v1.825c0 3.726.447 4.36 2.943 4.36zm-.82-14.045h-2.123v6.482h2.123c2.087 0 3.055-1.452 3.055-3.203 0-1.788-.968-3.28-3.055-3.28zM293.826 91.034l-.186.67c-.335 1.23-.745 1.677-3.39 1.677h-.522c-1.937 0-2.272-.448-2.272-3.093v-1.713c2.906 0 3.129.26 3.129 2.198h.708v-5.551h-.708c0 1.937-.223 2.198-3.129 2.198v-4.173h2.048c2.646 0 3.055.448 3.391 1.677l.186.707h.596l-.26-3.501h-10.954v.707c2.086 0 2.422.447 2.422 3.092v4.77c0 2.419-.285 3.029-1.93 3.115-1.563-.238-2.636-1.091-4.105-2.706l-1.714-1.863c2.31-.41 3.54-1.862 3.54-3.502 0-2.048-1.751-3.613-5.029-3.613h-6.557v.707c2.086 0 2.421.447 2.421 3.092v4.77c0 2.644-.335 3.129-2.421 3.129v.707h7.414v-.707c-2.086 0-2.422-.485-2.422-3.13v-1.34h.633l4.136 5.177h15.311l.224-3.501h-.56zm-19.744-2.832v-4.955h1.527c1.676 0 2.422 1.155 2.422 2.496 0 1.305-.746 2.459-2.422 2.459h-1.527zM301.389 95.02c-1.49 0-2.794-.783-3.353-1.267-.186.186-.521.745-.596 1.266h-.708v-5.14h.746c.298 2.459 2.011 3.911 4.209 3.911 1.192 0 2.161-.67 2.161-1.788 0-.968-.857-1.713-2.384-2.421l-2.124-1.006c-1.49-.708-2.608-1.938-2.608-3.577 0-1.788 1.677-3.315 3.987-3.315 1.229 0 2.272.447 2.906.968.186-.149.372-.559.484-1.006h.708v4.397h-.782c-.261-1.752-1.23-3.204-3.204-3.204-1.043 0-2.012.596-2.012 1.527 0 .969.782 1.49 2.571 2.31l2.048 1.006c1.789.856 2.496 2.236 2.496 3.353 0 2.347-2.049 3.985-4.545 3.985zM312.865 95.02c-1.49 0-2.794-.783-3.353-1.267-.186.186-.521.745-.596 1.266h-.708v-5.14h.745c.298 2.459 2.012 3.911 4.21 3.911 1.192 0 2.161-.67 2.161-1.788 0-.968-.857-1.713-2.384-2.421l-2.124-1.006c-1.49-.708-2.608-1.938-2.608-3.577 0-1.788 1.677-3.315 3.986-3.315 1.23 0 2.273.447 2.906.968.186-.149.373-.559.484-1.006h.708v4.397h-.782c-.261-1.752-1.229-3.204-3.204-3.204-1.043 0-2.012.596-2.012 1.527 0 .969.783 1.49 2.571 2.31l2.049 1.006c1.788.856 2.496 2.236 2.496 3.353 0 2.347-2.049 3.985-4.545 3.985zM150.731 86.218c0 6.526 3.793 12.166 9.293 14.838l-7.865-21.548a16.422 16.422 0 0 0-1.428 6.71zM178.349 85.387c0-2.038-.732-3.449-1.36-4.547-.835-1.358-1.619-2.508-1.619-3.866 0-1.516 1.15-2.927 2.769-2.927.073 0 .142.01.213.014a16.425 16.425 0 0 0-11.133-4.329c-5.76 0-10.828 2.956-13.776 7.432.387.011.752.02 1.061.02 1.725 0 4.394-.21 4.394-.21.889-.052.994 1.253.106 1.358 0 0-.893.106-1.887.158l6.004 17.858 3.608-10.821-2.569-7.038c-.887-.052-1.729-.157-1.729-.157-.888-.052-.784-1.41.105-1.358 0 0 2.722.209 4.342.209 1.725 0 4.394-.21 4.394-.21.89-.052.994 1.254.106 1.359 0 0-.895.105-1.887.157l5.958 17.723 1.645-5.495c.713-2.28 1.255-3.918 1.255-5.33z"/>
  <path fill="#464342" d="M167.507 87.66l-4.946 14.374a16.487 16.487 0 0 0 10.132-.262 1.48 1.48 0 0 1-.117-.228l-5.069-13.884zM181.687 78.308c.071.525.112 1.089.112 1.695 0 1.674-.313 3.554-1.254 5.906l-5.036 14.561c4.901-2.859 8.198-8.17 8.198-14.251a16.388 16.388 0 0 0-2.02-7.91z"/>
  <path fill="#464342" d="M167.219 67C156.622 67 148 75.621 148 86.219s8.622 19.219 19.219 19.219c10.597 0 19.22-8.621 19.22-19.22 0-10.597-8.623-19.218-19.22-19.218zm0 37.557c-10.111 0-18.338-8.227-18.338-18.338 0-10.112 8.227-18.338 18.338-18.338s18.337 8.226 18.337 18.338c0 10.111-8.226 18.338-18.337 18.338z"/>
  <path fill="#00C58E" fill-rule="evenodd" d="M408.229 233.975l-.075-.075c-.151-.301-.151-.602-.151-.903h-7.149l10.686-18.965 4.44 8.052 1.43-1.053-4.44-8.053c-.075-.15-.602-.978-1.505-.978-.376 0-.978.151-1.43.978l-10.762 19.191c-.075.15-.527 1.054-.075 1.806.151.376.602.753 1.58.753h9.031c-.978 0-1.43-.377-1.58-.753z" clip-rule="evenodd"/>
  <path fill="#108775" fill-rule="evenodd" d="M428.699 232.244l-8.655-15.578c-.15-.151-.602-.978-1.505-.978-.376 0-.903.15-1.43.978l-1.129 1.806v3.612l2.559-4.44 8.58 15.353h-3.237c.045.309-.007.625-.15.903v.075c-.452.753-1.43.753-1.58.753h5.117c.151 0 1.129 0 1.58-.753.151-.376.301-.978-.15-1.731z" clip-rule="evenodd"/>
  <path fill="#2F495E" d="M423.958 233.975v-.075l.075-.151c.075-.225.15-.526.075-.752l-.301-.828-6.773-11.891-.978-1.806h-.076l-.978 1.806-6.848 11.891-.226.828c-.056.334-.003.677.15.978.226.376.678.753 1.581.753h12.643c.226 0 1.204 0 1.656-.753zm-7.978-11.89l6.247 10.912h-12.418l6.171-10.912z"/>
  <path fill="#fff" d="M465 235c0-8.279 6.721-15 15-15s15 6.721 15 15-6.721 15-15 15-15-6.721-15-15z"/>
  <path fill="#263238" d="M482.455 234.999a2.453 2.453 0 1 1-4.908 0 2.454 2.454 0 0 1 4.908 0z"/>
  <path fill="#1976D2" d="M490.894 228.709a12.557 12.557 0 0 0-1.927-2.52l-2.837 1.638a9.479 9.479 0 0 0-2.962-1.717 11.66 11.66 0 0 0-2.293 3.271c3.158-.214 6.419.929 9.447 3.294l1.786-1.031a12.59 12.59 0 0 0-1.214-2.935z"/>
  <path fill="#42A5F5" d="M490.895 241.288c.528-.921.937-1.905 1.218-2.929l-2.837-1.638a9.45 9.45 0 0 0 .006-3.424 11.618 11.618 0 0 0-3.979-.349c1.765 2.627 2.406 6.023 1.871 9.828l1.785 1.031c.749-.755 1.4-1.601 1.936-2.519z"/>
  <path fill="#1976D2" d="M480.001 247.579a12.616 12.616 0 0 0 3.147-.41v-3.276a9.442 9.442 0 0 0 2.967-1.707 11.67 11.67 0 0 0-1.686-3.621c-1.393 2.843-4.014 5.096-7.576 6.535v2.062c1.027.271 2.085.411 3.148.417z"/>
  <path fill="#42A5F5" d="M469.107 241.29a12.59 12.59 0 0 0 1.928 2.52l2.837-1.638a9.456 9.456 0 0 0 2.962 1.717 11.646 11.646 0 0 0 2.292-3.272c-3.158.215-6.419-.928-9.447-3.293l-1.785 1.031a12.544 12.544 0 0 0 1.213 2.935z"/>
  <path fill="#1976D2" d="M469.106 228.71a12.609 12.609 0 0 0-1.218 2.93l2.837 1.638a9.445 9.445 0 0 0-.006 3.423c1.334.348 2.669.466 3.979.35-1.765-2.627-2.406-6.023-1.871-9.828l-1.786-1.031c-.748.754-1.399 1.6-1.935 2.518z"/>
  <path fill="#42A5F5" d="M480 222.42a12.616 12.616 0 0 0-3.147.41v3.276a9.46 9.46 0 0 0-2.967 1.706c.366 1.33.931 2.545 1.686 3.621 1.393-2.842 4.014-5.095 7.576-6.534v-2.062a12.619 12.619 0 0 0-3.148-.417z"/>
  <path fill="#409EFF" fill-rule="evenodd" d="M454.995 264.62c-.007 1.137-.597 1.391-.597 1.391s-10.19 5.888-10.853 6.257c-.656.281-1.095 0-1.095 0s-10.662-6.184-11.052-6.456c-.389-.272-.398-.695-.398-.695s.011-12.245 0-12.812c-.011-.567.697-.993.697-.993l10.653-6.158c.656-.346 1.295 0 1.295 0s9.411 5.47 10.454 6.058c1.022.486.896 1.49.896 1.49s.006 10.862 0 11.918zm-4.253-12.289c-2.182-1.256-7.32-4.233-7.32-4.233s-.502-.271-1.017 0l-8.364 4.819s-.555.333-.547.777c.008.444 0 10.027 0 10.027s.007.331.313.544c.305.213 8.677 5.052 8.677 5.052s.344.221.859 0c.521-.289 8.521-4.897 8.521-4.897s.464-.198.469-1.088c.002-.256.002-1.252.002-2.504l-9.419 5.708v-2.184c0-.896.694-1.488.694-1.488l8.332-5.021c.314-.328.379-.854.392-1.053l-.001-2.213-9.417 5.706V258c0-.896.595-1.29.595-1.29l7.231-4.379z" clip-rule="evenodd"/>
  <path stroke="#3a4854" stroke-width="2" d="M392 171.963h24.074v24.074H392z"/>
  <path fill="#3a4854" d="M402.524 182.436h2.428v6.383c0 2.878-1.471 3.881-3.818 3.881-.573 0-1.309-.089-1.79-.241l.271-1.841a4.24 4.24 0 0 0 1.245.178c1.024 0 1.661-.435 1.661-1.993v-6.367h.003zM407.059 190.363c.641.314 1.661.63 2.699.63 1.119 0 1.71-.435 1.71-1.108 0-.614-.51-.99-1.805-1.41-1.79-.6-2.97-1.528-2.97-3.013-.003-1.723 1.549-3.026 4.072-3.026 1.231 0 2.107.224 2.747.508l-.542 1.828a5.327 5.327 0 0 0-2.237-.478c-1.055 0-1.566.465-1.566.973 0 .644.591.928 1.998 1.439 1.901.66 2.78 1.588 2.78 3.027 0 1.693-1.372 3.132-4.328 3.132-1.231 0-2.445-.314-3.051-.63l.493-1.872z"/>
  <path fill="#0495FE" fill-opacity=".7" d="M395.109 108.393h-18.622a4.418 4.418 0 0 1-3.201-1.37l-14.19-14.646a3.938 3.938 0 0 1-.811-4.2c.581-1.447 1.935-2.385 3.453-2.385h17.388V67.849c0-1.562.905-2.96 2.305-3.559 1.378-.592 3.019-.255 4.073.832L399.7 79.772a4.732 4.732 0 0 1 1.325 3.304v19.214c-.003 3.367-2.654 6.103-5.916 6.103zm-17.843-6.602h17.361V83.873l-9.104-9.396v17.918h-17.361l9.104 9.396z"/>
  <path fill="#3a4854" d="M447.777 85.26c-1.308-2.324-4.214-3.244-6.732-3.244-8.233 0-13.027 7.651-13.027 15.013 0 5.666 3.244 9.879 9.104 9.879 3.1 0 6.102-1.307 8.136-3.632h.049c-.049.533-.049 1.017-.049 1.404 0 1.114.194 1.695.194 1.695h7.022s-.145-.629-.145-1.695c0-.484.048-1.113.145-1.791l3.245-20.389h-7.555c-.145.92-.291 1.84-.387 2.76zm-1.114 7.75c0 3.68-2.422 7.457-6.393 7.457-2.857 0-4.455-2.034-4.455-4.794 0-3.68 2.421-7.458 6.392-7.458 2.858 0 4.456 2.034 4.456 4.794zM478.98 84.582c-1.743-1.84-5.52-2.518-7.893-2.518-8.282 0-14.432 6.587-14.432 14.723 0 6.102 4.358 10.121 10.412 10.121 2.857 0 6.828-.823 9.153-2.712l-.678-5.908c-1.647 1.307-4.165 2.179-6.247 2.179-3.003 0-4.988-1.792-4.988-4.843 0-3.826 2.76-7.36 6.731-7.36 1.937 0 4.117.726 5.327 2.324l2.615-6.005zM520.353 92.137c0-6.537-4.746-10.121-10.993-10.121-8.572 0-14.916 6.344-14.916 14.77 0 6.538 4.794 10.074 10.993 10.074 8.621 0 14.916-6.296 14.916-14.723zm-7.651.824c0 3.583-2.277 7.458-6.248 7.458-2.857 0-4.31-2.034-4.31-4.746 0-3.584 2.276-7.458 6.247-7.458 2.858 0 4.311 2.034 4.311 4.746zM539.701 82.5c-.581-.339-1.598-.436-2.276-.436-2.761 0-4.94 1.598-6.344 3.826.145-.581.193-1.308.193-1.792 0-1.065-.145-1.598-.145-1.598h-7.506s.096.581.096 1.501c0 .581-.048 1.308-.145 2.034l-3.196 20.34h7.555l1.695-10.606c.436-3.05 1.888-6.683 5.569-6.683.872 0 1.84.146 2.615.582h.388l1.501-7.168zM423.299 88.457h4.94l.969-5.957h-4.989c.388-2.276.533-4.504 3.439-4.504.92 0 1.84.145 2.712.436l1.259-5.472c-1.55-.485-3.342-.63-4.988-.63-7.119 0-9.008 4.165-9.976 10.17h-2.955l-.92 5.957h2.954l-2.966 18.451h7.557l2.964-18.451zM490.883 79.837c.145-.872.194-1.599.194-2.18 0-1.065-.146-1.598-.146-1.598h-7.506s.097.581.097 1.501c0 .581 0 1.211-.097 1.938l-.484 3.002-.969 5.957c-.63 4.068-1.792 8.523-1.792 12.737 0 3.971 2.276 5.714 6.102 5.714 1.889 0 3.681-.339 5.473-.775l.581-6.15c-.727.29-1.55.436-2.325.436-1.307 0-1.985-.436-1.985-1.84 0-3.294.968-6.877 1.501-10.122h5.085l1.017-5.957h-5.134l.388-2.663z"/>
  <path fill="#516676" d="M428.885 190v-3.883h4.013v-1.634h-4.013v-2.645h4.396v-1.702h-6.46V190h2.064zM434.053 190h1.996v-4.095c0-1.032.575-1.634 1.559-1.634.287 0 .561.048.725.117v-1.757a2.038 2.038 0 0 0-.568-.075c-.861 0-1.483.506-1.743 1.435h-.041v-1.319h-1.928V190zM440.869 190.116c.916 0 1.825-.458 2.235-1.237h.041V190h1.928v-5.038c0-1.477-1.223-2.447-3.103-2.447-1.942 0-3.152.977-3.227 2.399h1.825c.096-.54.568-.909 1.313-.909.752 0 1.23.396 1.23 1.08v.485l-1.845.11c-1.826.109-2.851.882-2.851 2.215 0 1.319 1.06 2.221 2.454 2.221zm.656-1.442c-.676 0-1.128-.342-1.128-.889 0-.519.424-.854 1.169-.909l1.545-.096v.533c0 .793-.717 1.361-1.586 1.361zM446.085 190h1.996v-4.423c0-.82.513-1.394 1.272-1.394.738 0 1.182.464 1.182 1.251V190h1.921v-4.45c0-.814.499-1.367 1.258-1.367.773 0 1.196.464 1.196 1.312V190h1.996v-5.004c0-1.476-.963-2.461-2.399-2.461-1.073 0-1.948.581-2.276 1.504h-.041c-.246-.957-.985-1.504-2.044-1.504-.998 0-1.784.581-2.092 1.463h-.041v-1.326h-1.928V190zM462.745 187.758c-.185.56-.745.923-1.477.923-1.018 0-1.682-.718-1.682-1.764v-.123h5.052v-.608c0-2.229-1.346-3.671-3.479-3.671-2.167 0-3.534 1.517-3.534 3.855 0 2.345 1.353 3.787 3.609 3.787 1.811 0 3.124-.964 3.343-2.399h-1.832zm-1.566-3.767c.889 0 1.497.643 1.538 1.579h-3.11c.068-.916.697-1.579 1.572-1.579zM475.631 182.672h-1.969l-1.114 5.434h-.041l-1.306-5.434h-1.914l-1.299 5.434h-.041l-1.107-5.434h-2.01l1.948 7.328h2.099l1.319-5.182h.041l1.326 5.182h2.126l1.942-7.328zM479.384 190.157c2.215 0 3.63-1.415 3.63-3.828 0-2.379-1.436-3.814-3.63-3.814s-3.63 1.442-3.63 3.814c0 2.406 1.415 3.828 3.63 3.828zm0-1.524c-.984 0-1.607-.827-1.607-2.297 0-1.456.636-2.297 1.607-2.297s1.599.841 1.599 2.297c0 1.47-.622 2.297-1.599 2.297zM483.766 190h1.996v-4.095c0-1.032.574-1.634 1.559-1.634.287 0 .56.048.724.117v-1.757a2.03 2.03 0 0 0-.567-.075c-.861 0-1.483.506-1.743 1.435h-.041v-1.319h-1.928V190zM490.657 185.611h-.027v-5.475h-1.997V190h1.997v-2.42l.519-.56 2.099 2.98h2.297l-2.933-4.184 2.796-3.144h-2.263l-2.488 2.939z"/>
  <path fill="#516676" d="M495.579 184.825c0 1.101.718 1.812 2.133 2.113l1.251.259c.718.164.971.383.971.773 0 .478-.465.786-1.217.786-.793 0-1.251-.342-1.374-.985h-1.949c.13 1.443 1.299 2.386 3.323 2.386 1.886 0 3.206-.95 3.206-2.392 0-1.074-.629-1.675-2.16-1.996l-1.251-.267c-.739-.157-1.012-.41-1.012-.786 0-.486.458-.8 1.148-.8.739 0 1.183.403 1.245.998h1.838c-.041-1.435-1.203-2.399-3.083-2.399-1.866 0-3.069.916-3.069 2.31zM57.17 180.559h-6.387v-3.555h6.026v-2.266h-6.026v-3.398h6.387v-2.432h-9.336V183h9.336v-2.441zM61.902 183.166c1.308 0 2.607-.654 3.193-1.768h.058V183h2.754v-7.197c0-2.11-1.748-3.496-4.433-3.496-2.774 0-4.502 1.396-4.61 3.427h2.608c.137-.771.81-1.298 1.875-1.298 1.074 0 1.758.566 1.758 1.543v.693l-2.637.156c-2.608.156-4.072 1.26-4.072 3.164 0 1.885 1.513 3.174 3.506 3.174zm.937-2.061c-.967 0-1.611-.488-1.611-1.269 0-.742.605-1.221 1.67-1.299l2.207-.137v.762c0 1.133-1.026 1.943-2.266 1.943zM69.377 175.607c0 1.573 1.026 2.588 3.047 3.018l1.787.371c1.026.234 1.387.547 1.387 1.104 0 .683-.664 1.123-1.738 1.123-1.133 0-1.787-.489-1.963-1.407h-2.783c.185 2.061 1.855 3.409 4.746 3.409 2.695 0 4.58-1.358 4.58-3.418 0-1.534-.899-2.393-3.086-2.852l-1.787-.381c-1.055-.224-1.445-.586-1.445-1.123 0-.693.654-1.142 1.64-1.142 1.055 0 1.69.576 1.778 1.425h2.626c-.058-2.05-1.718-3.427-4.404-3.427-2.666 0-4.385 1.308-4.385 3.3zM80.935 186.877c2.666 0 3.984-.967 4.873-3.652l3.604-10.694h-3.008l-2.217 8.184h-.058l-2.227-8.184h-3.125L82.419 183c.01.049-.097.459-.097.508-.195.83-.713 1.162-1.748 1.162a9 9 0 0 1-.723-.029v2.207c.098.019.977.029 1.084.029z"/>
  <circle cx="112.313" cy="287.898" r="3.604" stroke="#516676" stroke-opacity=".3" stroke-width="2"/>
  <path stroke="#516676" stroke-dasharray="10 3" stroke-miterlimit="1.315" stroke-opacity=".3" stroke-width="2" d="M112.312 63v217.716"/>
  <path fill="#CBD1D6" d="M117.587 63.957c.192 0 .331-.14.418-.422.076-.282.052-.54-.072-.778l-5.107-8.535c-.096-.148-.211-.222-.345-.222-.125 0-.235.074-.331.222l-5.034 8.535a1.03 1.03 0 0 0-.072.778c.077.282.216.422.417.422h10.126z"/>
  <path stroke="#516676" stroke-dasharray="10 3" stroke-miterlimit="1.315" stroke-opacity=".3" stroke-width="2" d="M539.758 288.978H119.916"/>
  <path fill="#CBD1D6" d="M538 293.587c0 .192.141.331.422.418.282.076.541.052.778-.072l8.535-5.107c.148-.096.222-.211.222-.345 0-.125-.074-.235-.222-.331l-8.535-5.034a1.03 1.03 0 0 0-.778-.072c-.281.077-.422.216-.422.417v10.126z"/>
  <path fill="#516676" d="M305.91 329v-14.092h-3.418l-4.004 10.117h-.078l-4.004-10.117h-3.418V329h2.627v-9.512h.078l3.828 9.512h1.856l3.828-9.512h.078V329h2.627zM312.614 329.225c3.165 0 5.186-2.022 5.186-5.469 0-3.399-2.051-5.449-5.186-5.449-3.134 0-5.185 2.06-5.185 5.449 0 3.437 2.021 5.469 5.185 5.469zm0-2.178c-1.406 0-2.294-1.182-2.294-3.281 0-2.08.908-3.282 2.294-3.282 1.387 0 2.286 1.202 2.286 3.282 0 2.099-.889 3.281-2.286 3.281zM322.961 329.166c1.543 0 2.754-.811 3.262-1.963h.049V329h2.812v-14.092h-2.851v5.42h-.059c-.508-1.162-1.679-1.963-3.193-1.963-2.627 0-4.287 2.061-4.287 5.381 0 3.35 1.65 5.42 4.267 5.42zm.967-8.516c1.416 0 2.324 1.211 2.324 3.116 0 1.914-.908 3.105-2.324 3.105-1.435 0-2.314-1.182-2.314-3.105 0-1.914.879-3.116 2.314-3.116zM337.722 325.797c-.263.801-1.064 1.318-2.109 1.318-1.455 0-2.402-1.025-2.402-2.519v-.176h7.216v-.869c0-3.184-1.923-5.244-4.97-5.244-3.096 0-5.049 2.168-5.049 5.507 0 3.35 1.933 5.411 5.156 5.411 2.588 0 4.463-1.377 4.775-3.428h-2.617zm-2.236-5.381c1.269 0 2.139.918 2.197 2.256h-4.443c.097-1.309.996-2.256 2.246-2.256zM341.702 329h2.852v-5.85c0-1.474.82-2.334 2.226-2.334.41 0 .801.069 1.035.166v-2.509a2.88 2.88 0 0 0-.81-.108c-1.231 0-2.119.723-2.491 2.051h-.058v-1.885h-2.754V329zM348.787 329h2.852v-6.006c0-1.357.81-2.295 2.09-2.295 1.279 0 1.923.781 1.923 2.149V329h2.852v-6.748c0-2.451-1.309-3.916-3.633-3.916-1.611 0-2.715.762-3.271 2.06h-.059v-1.865h-2.754V329z"/>
  <defs>
    <filter id="filter0_d" width="490.261" height="336.178" x="52.361" y="94.069" color-interpolation-filters="sRGB" filterUnits="userSpaceOnUse">
      <feFlood flood-opacity="0" result="BackgroundImageFix"/>
      <feColorMatrix in="SourceAlpha" values="0 0 0 0 0 0 0 0 0 0 0 0 0 0 0 0 0 0 127 0"/>
      <feOffset dy="5"/>
      <feGaussianBlur stdDeviation="9"/>
      <feColorMatrix values="0 0 0 0 0 0 0 0 0 0 0 0 0 0 0 0 0 0 0.07 0"/>
      <feBlend in2="BackgroundImageFix" result="effect1_dropShadow"/>
      <feBlend in="SourceGraphic" in2="effect1_dropShadow" result="shape"/>
    </filter>
    <filter id="filter1_d" width="551.895" height="336.178" x="21.544" y="68.96" color-interpolation-filters="sRGB" filterUnits="userSpaceOnUse">
      <feFlood flood-opacity="0" result="BackgroundImageFix"/>
      <feColorMatrix in="SourceAlpha" values="0 0 0 0 0 0 0 0 0 0 0 0 0 0 0 0 0 0 127 0"/>
      <feOffset dy="5"/>
      <feGaussianBlur stdDeviation="9"/>
      <feColorMatrix values="0 0 0 0 0 0 0 0 0 0 0 0 0 0 0 0 0 0 0.07 0"/>
      <feBlend in2="BackgroundImageFix" result="effect1_dropShadow"/>
      <feBlend in="SourceGraphic" in2="effect1_dropShadow" result="shape"/>
    </filter>
    <filter id="filter2_d" width="603" height="380" x="0" y="0" color-interpolation-filters="sRGB" filterUnits="userSpaceOnUse">
      <feFlood flood-opacity="0" result="BackgroundImageFix"/>
      <feColorMatrix in="SourceAlpha" values="0 0 0 0 0 0 0 0 0 0 0 0 0 0 0 0 0 0 127 0"/>
      <feOffset dy="5"/>
      <feGaussianBlur stdDeviation="9"/>
      <feColorMatrix values="0 0 0 0 0 0 0 0 0 0 0 0 0 0 0 0 0 0 0.07 0"/>
      <feBlend in2="BackgroundImageFix" result="effect1_dropShadow"/>
      <feBlend in="SourceGraphic" in2="effect1_dropShadow" result="shape"/>
    </filter>
  </defs>
</svg>
