<svg width="550" height="417" viewBox="0 0 550 417" fill="none" xmlns="http://www.w3.org/2000/svg">
<g filter="url(#filter0_dd)">
<rect width="365" height="257" rx="4" transform="matrix(-1 0 0 1 490 70)" fill="white" fill-opacity="0.5"/>
</g>
<mask id="mask0" mask-type="alpha" maskUnits="userSpaceOnUse" x="125" y="70" width="365" height="257">
<rect width="365" height="257" rx="4" transform="matrix(-1 0 0 1 490 70)" fill="#F7F9FD"/>
</mask>
<g mask="url(#mask0)">
<g filter="url(#filter1_dd)">
<rect x="125" y="70" width="365" height="257" rx="4" fill="#F7F9FD"/>
</g>
<path d="M227 70H486C488.209 70 490 71.7909 490 74V323C490 325.209 488.209 327 486 327H227V70Z" fill="white"/>
<rect opacity="0.2" x="250.557" y="109.669" width="66.569" height="5.41841" rx="2.7092" fill="#3a4854"/>
<rect opacity="0.2" x="340.348" y="109.669" width="23.2217" height="5.41841" rx="2.7092" fill="#3a4854"/>
<rect opacity="0.2" x="386.79" y="109.669" width="23.2217" height="5.41841" rx="2.7092" fill="#3a4854"/>
<rect opacity="0.2" x="433.234" y="109.669" width="23.2217" height="5.41841" rx="2.7092" fill="#3a4854"/>
<rect opacity="0.1" x="250.557" y="119.732" width="44.1213" height="3.87029" rx="1.93515" fill="#3a4854"/>
<rect opacity="0.2" x="250.557" y="143.728" width="66.569" height="5.41841" rx="2.7092" fill="#3a4854"/>
<rect opacity="0.2" x="340.348" y="143.728" width="23.2217" height="5.41841" rx="2.7092" fill="#3a4854"/>
<rect opacity="0.2" x="386.79" y="143.728" width="23.2217" height="5.41841" rx="2.7092" fill="#3a4854"/>
<rect opacity="0.2" x="433.234" y="143.728" width="23.2217" height="5.41841" rx="2.7092" fill="#3a4854"/>
<rect opacity="0.1" x="250.557" y="153.791" width="44.1213" height="3.87029" rx="1.93515" fill="#3a4854"/>
<rect opacity="0.2" x="250.557" y="177.787" width="66.569" height="5.41841" rx="2.7092" fill="#3a4854"/>
<rect opacity="0.2" x="340.348" y="177.787" width="23.2217" height="5.41841" rx="2.7092" fill="#3a4854"/>
<rect opacity="0.2" x="386.79" y="177.787" width="23.2217" height="5.41841" rx="2.7092" fill="#3a4854"/>
<rect opacity="0.2" x="433.234" y="177.787" width="23.2217" height="5.41841" rx="2.7092" fill="#3a4854"/>
<rect opacity="0.1" x="250.557" y="187.849" width="44.1213" height="3.87029" rx="1.93515" fill="#3a4854"/>
<rect opacity="0.2" x="250.557" y="211.845" width="66.569" height="5.41841" rx="2.7092" fill="#3a4854"/>
<rect opacity="0.2" x="340.348" y="211.845" width="23.2217" height="5.41841" rx="2.7092" fill="#3a4854"/>
<rect opacity="0.2" x="386.79" y="211.845" width="23.2217" height="5.41841" rx="2.7092" fill="#3a4854"/>
<rect opacity="0.2" x="433.234" y="211.845" width="23.2217" height="5.41841" rx="2.7092" fill="#3a4854"/>
<rect opacity="0.1" x="250.557" y="221.908" width="44.1213" height="3.87029" rx="1.93515" fill="#3a4854"/>
<rect opacity="0.2" x="250.557" y="245.904" width="66.569" height="5.41841" rx="2.7092" fill="#3a4854"/>
<rect opacity="0.2" x="340.348" y="245.904" width="23.2217" height="5.41841" rx="2.7092" fill="#3a4854"/>
<rect opacity="0.2" x="386.79" y="245.904" width="23.2217" height="5.41841" rx="2.7092" fill="#3a4854"/>
<rect opacity="0.2" x="433.234" y="245.904" width="23.2217" height="5.41841" rx="2.7092" fill="#3a4854"/>
<rect opacity="0.1" x="250.557" y="255.967" width="44.1213" height="3.87029" rx="1.93515" fill="#3a4854"/>
<rect opacity="0.2" x="250.557" y="279.962" width="66.569" height="5.41841" rx="2.7092" fill="#3a4854"/>
<rect opacity="0.2" x="340.348" y="279.962" width="23.2217" height="5.41841" rx="2.7092" fill="#3a4854"/>
<rect opacity="0.2" x="386.79" y="279.962" width="23.2217" height="5.41841" rx="2.7092" fill="#3a4854"/>
<rect opacity="0.2" x="433.234" y="279.962" width="23.2217" height="5.41841" rx="2.7092" fill="#3a4854"/>
<rect opacity="0.1" x="250.557" y="290.025" width="44.1213" height="3.87029" rx="1.93515" fill="#3a4854"/>
<rect opacity="0.5" x="161.573" y="119.444" width="40.251" height="5.41841" rx="2.7092" fill="#0495FE"/>
<rect x="150" y="119.44" width="5.42" height="5.42" rx="2.71" fill="#3a4854" fill-opacity="0.1"/>
<rect x="150" y="146" width="5.42" height="5.42" rx="2.71" fill="#3a4854" fill-opacity="0.1"/>
<rect x="161.573" y="132.603" width="40.251" height="5.41841" rx="2.7092" fill="#3a4854" fill-opacity="0.1"/>
<rect x="161.573" y="145.761" width="40.251" height="5.41841" rx="2.7092" fill="#3a4854" fill-opacity="0.1"/>
<rect x="161.573" y="158.92" width="40.251" height="5.41841" rx="2.7092" fill="#3a4854" fill-opacity="0.1"/>
<path d="M159.554 100.866H152.41C151.946 100.866 151.51 100.68 151.182 100.34L145.739 94.722C145.327 94.2983 145.206 93.6647 145.428 93.1106C145.651 92.5556 146.17 92.1961 146.752 92.1961H153.422V85.3124C153.422 84.7132 153.77 84.1774 154.307 83.9473C154.835 83.7201 155.465 83.8495 155.869 84.2665L161.315 89.8868C161.643 90.2271 161.823 90.6767 161.823 91.1541V98.5248C161.822 99.816 160.805 100.866 159.554 100.866ZM152.709 98.3331H159.369V91.4599L155.876 87.8555V94.7287H149.217L152.709 98.3331Z" fill="#FF0076"/>
</g>
<g filter="url(#filter2_d)">
<path d="M100.138 4H11.0713C9.37505 4 8 5.37339 8 7.06756V83.7567C8 85.4508 9.37505 86.8242 11.0713 86.8242H100.138C101.834 86.8242 103.209 85.4508 103.209 83.7567V7.06756C103.209 5.37339 101.834 4 100.138 4Z" fill="white"/>
</g>
<path d="M29.4592 23.3734C29.4834 23.1907 29.4963 23.0073 29.4979 22.8223C29.4963 22.6373 29.4833 22.453 29.4592 22.2696L30.6123 21.3322C30.6632 21.2904 30.6978 21.2308 30.7098 21.1642C30.7217 21.0977 30.7103 21.0288 30.6775 20.9699L29.5936 19.0069C29.5611 18.9497 29.5099 18.9055 29.449 18.8831C29.3881 18.8614 29.3216 18.8622 29.2616 18.8862L27.9046 19.4543C27.6228 19.2283 27.314 19.041 26.9858 18.897L26.7821 17.3961C26.77 17.3288 26.7354 17.2676 26.6843 17.2243C26.6333 17.1809 26.569 17.1577 26.503 17.1593H24.325C24.2606 17.1593 24.1984 17.1833 24.1492 17.2266C24.1001 17.2699 24.0671 17.3303 24.0561 17.3961L23.8524 18.897C23.5239 19.0402 23.2149 19.2275 22.9336 19.4543L21.5766 18.8862C21.516 18.8614 21.4488 18.8599 21.3871 18.8823C21.3254 18.904 21.2734 18.9489 21.2405 19.0069L20.1566 20.9699C20.1243 21.0288 20.113 21.0977 20.125 21.1635C20.137 21.23 20.1713 21.2904 20.2218 21.3322L21.3709 22.2696C21.3467 22.453 21.3337 22.6373 21.3322 22.8223C21.3337 23.0073 21.3467 23.1907 21.3709 23.3734L20.2218 24.3108C20.1687 24.3533 20.1326 24.4153 20.1206 24.4842C20.1086 24.5531 20.1214 24.6243 20.1566 24.6839L21.2405 26.636C21.2724 26.6941 21.3234 26.739 21.3845 26.7614C21.4455 26.7847 21.5123 26.7831 21.5726 26.7583L22.9295 26.1886C23.2108 26.4154 23.5198 26.6028 23.8483 26.746L24.0521 28.2469C24.063 28.3127 24.096 28.373 24.1451 28.4164C24.1943 28.4597 24.2565 28.4837 24.321 28.4837H26.503C26.5675 28.4837 26.63 28.4597 26.6792 28.4164C26.7285 28.373 26.7613 28.3127 26.7719 28.2469L26.9756 26.746C27.3045 26.6035 27.6136 26.4162 27.8945 26.1886L29.2493 26.7583C29.3112 26.7862 29.3805 26.7885 29.4441 26.7653C29.5076 26.7429 29.5608 26.6964 29.5936 26.636L30.6734 24.6839C30.7087 24.6243 30.7219 24.5538 30.7106 24.4849C30.6994 24.4161 30.6644 24.3541 30.6123 24.3108L29.4592 23.3734ZM25.415 24.8046C25.0383 24.8046 24.67 24.6885 24.3567 24.4702C24.0435 24.2527 23.7993 23.9431 23.6551 23.5808C23.5109 23.2186 23.4732 22.8207 23.5467 22.436C23.6202 22.0513 23.8017 21.6983 24.068 21.4212C24.3345 21.1441 24.6739 20.9552 25.0434 20.8786C25.4129 20.802 25.796 20.8415 26.144 20.9916C26.4921 21.1418 26.7896 21.3957 26.9989 21.7215C27.2082 22.0474 27.3199 22.4306 27.3199 22.8223C27.3202 23.0831 27.2712 23.3409 27.1755 23.5816C27.0799 23.8216 26.9395 24.0406 26.7626 24.2249C26.5856 24.4083 26.3756 24.5546 26.1444 24.6545C25.9131 24.7535 25.6653 24.8046 25.415 24.8046Z" stroke="#3a4854" stroke-opacity="0.3" stroke-width="1.4" stroke-miterlimit="10"/>
<path opacity="0.5" d="M143.509 135.876L115.157 135.876L115.157 45.2342L90.0005 45.2342" stroke="#0495FE" stroke-width="2" stroke-linecap="round" stroke-linejoin="bevel" stroke-dasharray="2.9 5"/>
<path d="M45.2106 19.5788C45.2106 18.6592 44.8762 18.0322 44.2771 17.5167C43.6919 17.0151 42.8838 16.834 41.9503 16.834H39.2473V26.4478H40.5988V22.3236H41.9503C42.8838 22.3236 43.6919 22.1425 44.2771 21.6409C44.8762 21.1393 45.2106 20.4984 45.2106 19.5788ZM43.8173 19.5788C43.8173 20.1779 43.5665 20.6098 43.2321 20.8606C42.8838 21.0975 42.4519 21.2229 41.8388 21.2229H40.5988V17.9347H41.8388C42.4519 17.9347 42.8838 18.0601 43.2321 18.3109C43.5665 18.5477 43.8173 18.9936 43.8173 19.5788Z" fill="#3a4854"/>
<path d="M52.3006 23.1596C52.3006 21.1114 50.768 19.7042 48.8034 19.7042C46.8249 19.7042 45.2923 21.1114 45.2923 23.1596C45.2923 25.2217 46.8249 26.6011 48.8034 26.6011C50.768 26.6011 52.3006 25.2217 52.3006 23.1596ZM50.9491 23.1178C50.9491 24.4275 50.127 25.4585 48.8034 25.4585C47.4658 25.4585 46.6438 24.4275 46.6438 23.1178C46.6438 21.822 47.4658 20.791 48.8034 20.791C50.127 20.791 50.9491 21.822 50.9491 23.1178Z" fill="#3a4854"/>
<path d="M57.7385 24.5111C57.7385 23.912 57.4599 23.5218 57.2091 23.285C57.014 23.0899 56.7075 22.9227 56.4427 22.8113C56.1641 22.6998 55.9133 22.6162 55.551 22.4908C54.8962 22.2818 54.2553 22.0449 54.2553 21.5016C54.2553 20.9582 54.6732 20.6795 55.3142 20.6795C55.9551 20.6795 56.596 20.986 56.9861 21.3901L57.5435 20.568C57.1255 20.1222 56.4567 19.7042 55.2863 19.7042C54.1159 19.7042 53.057 20.373 53.057 21.5991C53.057 22.5465 53.684 22.9785 54.102 23.1875C54.4085 23.3547 54.5618 23.3825 55.0076 23.5358C55.4535 23.689 56.4985 23.912 56.4985 24.6365C56.4985 25.361 55.8436 25.5839 55.2306 25.5839C54.6175 25.5839 53.7815 25.2495 53.2799 24.6365L52.639 25.4167C53.1963 26.1413 54.102 26.6011 55.2166 26.6011C55.983 26.6011 56.596 26.3921 57.0558 26.0159C57.4877 25.6536 57.7385 25.152 57.7385 24.5111Z" fill="#3a4854"/>
<path d="M61.766 25.3053C61.766 25.3053 61.4734 25.4585 61.0833 25.4585C60.7071 25.4585 60.526 25.3331 60.4006 25.1241C60.2473 24.8455 60.2334 24.4693 60.2334 23.912V20.9164H61.8218V19.8435H60.2334V17.865H58.8958V19.8435H57.9205V20.9164H58.8958V23.9398C58.8958 24.9848 58.9516 25.5003 59.2302 25.9183C59.5089 26.3363 59.9408 26.6011 60.6375 26.6011C61.3341 26.6011 61.8496 26.3781 61.8496 26.3781L61.766 25.3053Z" fill="#3a4854"/>
<path d="M66.9985 24.5111C66.9985 23.912 66.7199 23.5218 66.4691 23.285C66.274 23.0899 65.9675 22.9227 65.7028 22.8113C65.4241 22.6998 65.1733 22.6162 64.8111 22.4908C64.1562 22.2818 63.5153 22.0449 63.5153 21.5016C63.5153 20.9582 63.9333 20.6795 64.5742 20.6795C65.2151 20.6795 65.856 20.986 66.2462 21.3901L66.8035 20.568C66.3855 20.1222 65.7167 19.7042 64.5463 19.7042C63.376 19.7042 62.317 20.373 62.317 21.5991C62.317 22.5465 62.944 22.9785 63.362 23.1875C63.6686 23.3547 63.8218 23.3825 64.2677 23.5358C64.7135 23.689 65.7585 23.912 65.7585 24.6365C65.7585 25.361 65.1037 25.5839 64.4906 25.5839C63.8775 25.5839 63.0416 25.2495 62.54 24.6365L61.8991 25.4167C62.4564 26.1413 63.362 26.6011 64.4767 26.6011C65.243 26.6011 65.856 26.3921 66.3158 26.0159C66.7478 25.6536 66.9985 25.152 66.9985 24.5111Z" fill="#3a4854"/>
<path d="M45.2106 42.0265C45.2106 41.1069 44.8762 40.4799 44.2771 39.9644C43.6919 39.4628 42.8838 39.2817 41.9503 39.2817H39.2473V48.8955H40.5988V44.7713H41.9503C42.8838 44.7713 43.6919 44.5902 44.2771 44.0886C44.8762 43.587 45.2106 42.9461 45.2106 42.0265ZM43.8173 42.0265C43.8173 42.6256 43.5665 43.0575 43.2321 43.3083C42.8838 43.5452 42.4519 43.6706 41.8388 43.6706H40.5988V40.3824H41.8388C42.4519 40.3824 42.8838 40.5078 43.2321 40.7586C43.5665 40.9954 43.8173 41.4413 43.8173 42.0265Z" fill="#3a4854"/>
<path d="M51.0291 45.05C51.0291 43.9214 50.7644 43.3641 50.3185 42.9043C49.8727 42.4584 49.2317 42.1519 48.131 42.1519C47.0303 42.1519 46.1386 42.542 45.6509 42.8207L46.055 43.7124C46.2779 43.5731 47.0861 43.1411 48.0474 43.1411C49.0088 43.1411 49.6915 43.6427 49.6915 44.6459V44.9106L47.922 44.9803C46.3894 45.05 45.3305 45.7048 45.3305 47.0006C45.3305 48.2824 46.3894 49.0487 47.6155 49.0487C48.8277 49.0487 49.4547 48.3382 49.7194 48.0595L49.7333 48.8955H51.0291V45.05ZM49.7055 47.1399C49.4547 47.5161 48.8834 48.1013 48.0196 48.1013C47.1418 48.1013 46.6541 47.5858 46.6541 46.9588C46.6541 46.3318 47.0861 45.872 48.1589 45.8163L49.7055 45.7187V47.1399Z" fill="#3a4854"/>
<path d="M58.7367 42.2773H57.413L57.427 43.3223H57.3852C56.9951 42.7092 56.2287 42.1519 55.0723 42.1519C53.3725 42.1519 51.8816 43.378 51.8816 45.4819C51.8816 47.5858 53.3725 48.8119 55.0723 48.8119C56.1869 48.8119 56.9393 48.2964 57.3852 47.6276H57.413V47.962C57.413 48.8676 57.1762 49.4946 56.9115 49.8151C56.6467 50.1495 56.0894 50.5396 55.1002 50.5396C54.1109 50.5396 53.0799 50.0101 52.7315 49.7036L52.1046 50.6371C52.2996 50.7764 53.4282 51.6264 55.0584 51.6264C56.7025 51.6264 57.5245 50.9576 58.0122 50.3584C58.4998 49.7733 58.7367 48.9651 58.7367 47.5022V42.2773ZM57.4548 45.4819C57.4548 46.7359 56.7164 47.7251 55.351 47.7251C53.9995 47.7251 53.2471 46.7359 53.2471 45.4819C53.2471 44.2279 53.9995 43.2247 55.351 43.2247C56.7164 43.2247 57.4548 44.2279 57.4548 45.4819Z" fill="#3a4854"/>
<path d="M66.2156 45.3147C66.2156 43.4616 64.9198 42.1519 63.0806 42.1519C61.2415 42.1519 59.7228 43.4895 59.7228 45.5794C59.7228 47.6833 61.0743 49.0487 63.0388 49.0487C65.0173 49.0487 65.8673 48.0734 65.9508 48.0038L65.3935 47.2374C65.2403 47.335 64.4461 48.0038 63.206 48.0038C61.9799 48.0038 61.1439 47.2096 61.0743 45.8999H66.1738C66.1738 45.8999 66.2156 45.5655 66.2156 45.3147ZM61.0882 45.0082C61.13 44.214 61.7152 43.1133 63.0388 43.1133C64.3764 43.1133 64.9337 44.2697 64.9477 45.0082H61.0882Z" fill="#3a4854"/>
<path d="M71.5839 46.9588C71.5839 46.3597 71.3053 45.9695 71.0545 45.7327C70.8594 45.5376 70.5529 45.3704 70.2882 45.259C70.0095 45.1475 69.7587 45.0639 69.3965 44.9385C68.7416 44.7295 68.1007 44.4926 68.1007 43.9492C68.1007 43.4059 68.5187 43.1272 69.1596 43.1272C69.8005 43.1272 70.4414 43.4337 70.8316 43.8378L71.3889 43.0157C70.9709 42.5699 70.3021 42.1519 69.1317 42.1519C67.9613 42.1519 66.9024 42.8207 66.9024 44.0468C66.9024 44.9942 67.5294 45.4261 67.9474 45.6351C68.2539 45.8023 68.4072 45.8302 68.8531 45.9835C69.2989 46.1367 70.3439 46.3597 70.3439 47.0842C70.3439 47.8087 69.689 48.0316 69.076 48.0316C68.4629 48.0316 67.627 47.6972 67.1254 47.0842L66.4844 47.8644C67.0418 48.5889 67.9474 49.0487 69.0621 49.0487C69.8284 49.0487 70.4414 48.8397 70.9012 48.4636C71.3331 48.1013 71.5839 47.5997 71.5839 46.9588Z" fill="#3a4854"/>
<path d="M45.127 67.894C45.127 67.1694 44.8484 66.6539 44.5419 66.2777C44.2214 65.9015 43.6362 65.5811 43.4551 65.4975L41.6856 64.759C41.1004 64.5222 40.4455 64.1878 40.4455 63.2961C40.4455 62.4043 41.1701 61.9585 42.1175 61.9585C43.065 61.9585 43.7616 62.4879 44.2353 62.9895L44.9459 62.07C44.6812 61.7913 43.7616 60.8299 42.1872 60.8299C41.2537 60.8299 40.5013 61.0946 39.9718 61.5405C39.4563 61.9724 39.094 62.6133 39.094 63.3936C39.094 64.1738 39.3727 64.7033 39.721 65.0656C40.0693 65.4417 40.4734 65.6507 40.6824 65.7483C41.0447 65.9294 41.7134 66.1941 42.215 66.3892C42.7027 66.5843 43.7755 66.9744 43.7755 67.9776C43.7755 68.9947 42.9396 69.5938 41.8946 69.5938C40.8496 69.5938 39.9439 68.8693 39.4563 68.2144L38.6621 69.1201C39.1219 69.6495 40.0833 70.7363 41.7692 70.7363C42.7306 70.7363 43.5247 70.4716 44.1239 69.9839C44.7509 69.4684 45.127 68.7299 45.127 67.894Z" fill="#3a4854"/>
<path d="M52.1797 66.9883C52.1797 65.1352 50.8839 63.8255 49.0447 63.8255C47.2056 63.8255 45.6869 65.1631 45.6869 67.253C45.6869 69.3569 47.0384 70.7224 49.0029 70.7224C50.9814 70.7224 51.8313 69.7471 51.9149 69.6774L51.3576 68.9111C51.2044 69.0086 50.4102 69.6774 49.1701 69.6774C47.944 69.6774 47.108 68.8832 47.0384 67.5735H52.1379C52.1379 67.5735 52.1797 67.2391 52.1797 66.9883ZM47.0523 66.6818C47.0941 65.8876 47.6793 64.7869 49.0029 64.7869C50.3405 64.7869 50.8978 65.9433 50.9118 66.6818H47.0523Z" fill="#3a4854"/>
<path d="M56.2244 69.4266C56.2244 69.4266 55.9318 69.5799 55.5417 69.5799C55.1655 69.5799 54.9843 69.4545 54.8589 69.2455C54.7057 68.9668 54.6918 68.5906 54.6918 68.0333V65.0377H56.2801V63.9648H54.6918V61.9864H53.3542V63.9648H52.3789V65.0377H53.3542V68.0612C53.3542 69.1061 53.4099 69.6217 53.6886 70.0396C53.9672 70.4576 54.3992 70.7224 55.0958 70.7224C55.7925 70.7224 56.308 70.4994 56.308 70.4994L56.2244 69.4266Z" fill="#3a4854"/>
<path d="M59.9972 69.4266C59.9972 69.4266 59.7046 69.5799 59.3145 69.5799C58.9383 69.5799 58.7572 69.4545 58.6318 69.2455C58.4785 68.9668 58.4646 68.5906 58.4646 68.0333V65.0377H60.0529V63.9648H58.4646V61.9864H57.127V63.9648H56.1517V65.0377H57.127V68.0612C57.127 69.1061 57.1827 69.6217 57.4614 70.0396C57.74 70.4576 58.172 70.7224 58.8686 70.7224C59.5653 70.7224 60.0808 70.4994 60.0808 70.4994L59.9972 69.4266Z" fill="#3a4854"/>
<path d="M62.3595 61.7774C62.3595 61.3036 61.9972 60.9553 61.4957 60.9553C60.9801 60.9553 60.6179 61.3036 60.6179 61.7774C60.6179 62.2511 60.9801 62.5994 61.4957 62.5994C61.9972 62.5994 62.3595 62.2511 62.3595 61.7774ZM62.1644 63.9509H60.8269V70.5691H62.1644V63.9509Z" fill="#3a4854"/>
<path d="M69.4003 66.6539C69.4003 65.0656 68.9126 63.8255 67.0316 63.8255C66.0703 63.8255 65.3597 64.341 65.0113 64.9959H64.9695L64.9835 63.9509H63.6459V70.5691H64.9835V67.2391C64.9835 65.9712 65.4433 64.9262 66.6833 64.9262C67.8676 64.9262 68.0627 65.7622 68.0627 66.8769V70.5691H69.4003V66.6539Z" fill="#3a4854"/>
<path d="M77.1751 63.9509H75.8515L75.8654 64.9959H75.8236C75.4335 64.3828 74.6672 63.8255 73.5107 63.8255C71.8109 63.8255 70.3201 65.0516 70.3201 67.1555C70.3201 69.2594 71.8109 70.4855 73.5107 70.4855C74.6254 70.4855 75.3778 69.97 75.8236 69.3012H75.8515V69.6356C75.8515 70.5412 75.6146 71.1682 75.3499 71.4887C75.0852 71.8231 74.5278 72.2132 73.5386 72.2132C72.5493 72.2132 71.5183 71.6838 71.17 71.3772L70.543 72.3107C70.738 72.4501 71.8666 73.3 73.4968 73.3C75.1409 73.3 75.9629 72.6312 76.4506 72.0321C76.9383 71.4469 77.1751 70.6388 77.1751 69.1758V63.9509ZM75.8933 67.1555C75.8933 68.4095 75.1548 69.3987 73.7894 69.3987C72.4379 69.3987 71.6855 68.4095 71.6855 67.1555C71.6855 65.9015 72.4379 64.8984 73.7894 64.8984C75.1548 64.8984 75.8933 65.9015 75.8933 67.1555Z" fill="#3a4854"/>
<path d="M83.0656 68.6324C83.0656 68.0333 82.787 67.6432 82.5362 67.4063C82.3411 67.2112 82.0346 67.044 81.7699 66.9326C81.4912 66.8211 81.2404 66.7375 80.8782 66.6121C80.2233 66.4031 79.5824 66.1663 79.5824 65.6229C79.5824 65.0795 80.0004 64.8008 80.6413 64.8008C81.2822 64.8008 81.9231 65.1074 82.3133 65.5114L82.8706 64.6894C82.4526 64.2435 81.7838 63.8255 80.6134 63.8255C79.443 63.8255 78.3841 64.4943 78.3841 65.7204C78.3841 66.6679 79.0111 67.0998 79.4291 67.3088C79.7356 67.476 79.8889 67.5038 80.3348 67.6571C80.7806 67.8104 81.8256 68.0333 81.8256 68.7578C81.8256 69.4823 81.1707 69.7053 80.5577 69.7053C79.9446 69.7053 79.1087 69.3709 78.6071 68.7578L77.9661 69.5381C78.5235 70.2626 79.4291 70.7224 80.5438 70.7224C81.3101 70.7224 81.9231 70.5134 82.3829 70.1372C82.8148 69.7749 83.0656 69.2733 83.0656 68.6324Z" fill="#3a4854"/>
<defs>
<filter id="filter0_dd" x="65" y="40" width="485" height="377" filterUnits="userSpaceOnUse" color-interpolation-filters="sRGB">
<feFlood flood-opacity="0" result="BackgroundImageFix"/>
<feColorMatrix in="SourceAlpha" type="matrix" values="0 0 0 0 0 0 0 0 0 0 0 0 0 0 0 0 0 0 127 0"/>
<feOffset dy="18"/>
<feGaussianBlur stdDeviation="18"/>
<feColorMatrix type="matrix" values="0 0 0 0 0.317647 0 0 0 0 0.4 0 0 0 0 0.462745 0 0 0 0.3 0"/>
<feBlend mode="normal" in2="BackgroundImageFix" result="effect1_dropShadow"/>
<feColorMatrix in="SourceAlpha" type="matrix" values="0 0 0 0 0 0 0 0 0 0 0 0 0 0 0 0 0 0 127 0"/>
<feOffset dy="30"/>
<feGaussianBlur stdDeviation="30"/>
<feColorMatrix type="matrix" values="0 0 0 0 0.317647 0 0 0 0 0.4 0 0 0 0 0.462745 0 0 0 0.25 0"/>
<feBlend mode="normal" in2="effect1_dropShadow" result="effect2_dropShadow"/>
<feBlend mode="normal" in="SourceGraphic" in2="effect2_dropShadow" result="shape"/>
</filter>
<filter id="filter1_dd" x="65" y="40" width="485" height="377" filterUnits="userSpaceOnUse" color-interpolation-filters="sRGB">
<feFlood flood-opacity="0" result="BackgroundImageFix"/>
<feColorMatrix in="SourceAlpha" type="matrix" values="0 0 0 0 0 0 0 0 0 0 0 0 0 0 0 0 0 0 127 0"/>
<feOffset dy="18"/>
<feGaussianBlur stdDeviation="18"/>
<feColorMatrix type="matrix" values="0 0 0 0 0.317647 0 0 0 0 0.4 0 0 0 0 0.462745 0 0 0 0.3 0"/>
<feBlend mode="normal" in2="BackgroundImageFix" result="effect1_dropShadow"/>
<feColorMatrix in="SourceAlpha" type="matrix" values="0 0 0 0 0 0 0 0 0 0 0 0 0 0 0 0 0 0 127 0"/>
<feOffset dy="30"/>
<feGaussianBlur stdDeviation="30"/>
<feColorMatrix type="matrix" values="0 0 0 0 0.317647 0 0 0 0 0.4 0 0 0 0 0.462745 0 0 0 0.25 0"/>
<feBlend mode="normal" in2="effect1_dropShadow" result="effect2_dropShadow"/>
<feBlend mode="normal" in="SourceGraphic" in2="effect2_dropShadow" result="shape"/>
</filter>
<filter id="filter2_d" x="0" y="0" width="111.209" height="98.8242" filterUnits="userSpaceOnUse" color-interpolation-filters="sRGB">
<feFlood flood-opacity="0" result="BackgroundImageFix"/>
<feColorMatrix in="SourceAlpha" type="matrix" values="0 0 0 0 0 0 0 0 0 0 0 0 0 0 0 0 0 0 127 0"/>
<feOffset dy="4"/>
<feGaussianBlur stdDeviation="4"/>
<feColorMatrix type="matrix" values="0 0 0 0 0.196078 0 0 0 0 0.196078 0 0 0 0 0.364706 0 0 0 0.2 0"/>
<feBlend mode="normal" in2="BackgroundImageFix" result="effect1_dropShadow"/>
<feBlend mode="normal" in="SourceGraphic" in2="effect1_dropShadow" result="shape"/>
</filter>
</defs>
</svg>
