<svg width="166" height="39" fill="none" xmlns="http://www.w3.org/2000/svg"><path d="M56.327 27v-5.824h6.02v-2.45h-6.02v-3.97h6.593v-2.552h-9.69V27h3.097zM64.08 27h2.994v-6.142c0-1.548.861-2.45 2.338-2.45.43 0 .84.071 1.087.173v-2.635a3.051 3.051 0 0 0-.852-.112c-1.292 0-2.225.758-2.614 2.153h-.062v-1.98H64.08V27zM74.303 27.174c1.374 0 2.738-.687 3.353-1.856h.062V27h2.891v-7.557c0-2.215-1.835-3.671-4.655-3.671-2.912 0-4.727 1.466-4.84 3.6h2.738c.143-.811.851-1.365 1.969-1.365 1.128 0 1.845.595 1.845 1.62v.729l-2.768.163c-2.738.165-4.276 1.323-4.276 3.323 0 1.979 1.59 3.332 3.681 3.332zm.984-2.163c-1.015 0-1.692-.513-1.692-1.333 0-.78.636-1.282 1.754-1.364l2.317-.144v.8c0 1.19-1.076 2.04-2.379 2.04zM82.127 27h2.994v-6.634c0-1.23.77-2.092 1.908-2.092 1.107 0 1.773.697 1.773 1.876V27h2.882v-6.675c0-1.22.748-2.051 1.887-2.051 1.158 0 1.794.697 1.794 1.969V27h2.994v-7.506c0-2.215-1.446-3.691-3.599-3.691-1.61 0-2.922.871-3.415 2.256h-.061c-.37-1.436-1.477-2.256-3.066-2.256-1.497 0-2.676.871-3.138 2.194h-.061v-1.99h-2.892V27zM107.116 23.637c-.276.84-1.117 1.384-2.214 1.384-1.528 0-2.523-1.077-2.523-2.646v-.184h7.578v-.913c0-3.342-2.02-5.506-5.22-5.506-3.25 0-5.3 2.276-5.3 5.783 0 3.517 2.029 5.68 5.413 5.68 2.718 0 4.686-1.445 5.014-3.598h-2.748zm-2.348-5.65c1.333 0 2.246.964 2.307 2.369h-4.665c.102-1.375 1.046-2.37 2.358-2.37zM126.445 16.008h-2.953l-1.671 8.152h-.062l-1.958-8.152h-2.871l-1.948 8.152h-.062l-1.661-8.152h-3.015L113.167 27h3.148l1.979-7.773h.061L120.344 27h3.189l2.912-10.992zM132.075 27.236c3.322 0 5.445-2.123 5.445-5.742 0-3.569-2.153-5.722-5.445-5.722-3.291 0-5.445 2.164-5.445 5.722 0 3.609 2.123 5.742 5.445 5.742zm0-2.287c-1.476 0-2.409-1.24-2.409-3.445 0-2.184.953-3.445 2.409-3.445s2.4 1.26 2.4 3.445c0 2.204-.933 3.445-2.4 3.445zM138.648 27h2.995v-6.142c0-1.548.861-2.45 2.337-2.45.431 0 .841.071 1.087.173v-2.635a3.048 3.048 0 0 0-.851-.112c-1.292 0-2.225.758-2.614 2.153h-.062v-1.98h-2.892V27zM148.985 20.417h-.041v-8.213h-2.994V27h2.994v-3.63l.779-.84 3.148 4.47h3.445l-4.399-6.275 4.194-4.717h-3.394l-3.732 4.409z" fill="#506677"/><path d="M156.368 19.238c0 1.65 1.077 2.717 3.199 3.168l1.877.39c1.076.246 1.456.574 1.456 1.159 0 .717-.698 1.179-1.826 1.179-1.189 0-1.876-.513-2.061-1.477h-2.922c.195 2.164 1.948 3.579 4.983 3.579 2.831 0 4.81-1.425 4.81-3.589 0-1.61-.944-2.512-3.241-2.994l-1.876-.4c-1.108-.236-1.518-.615-1.518-1.18 0-.727.687-1.199 1.723-1.199 1.107 0 1.774.605 1.866 1.497h2.758c-.061-2.153-1.804-3.599-4.624-3.599-2.799 0-4.604 1.374-4.604 3.466z" fill="#506677"/><path stroke="#506677" stroke-width="2" d="M1 1.746h36.254V38H1z"/><path d="M16.907 17.578h3.562v9.365c0 4.222-2.157 5.695-5.6 5.695-.843 0-1.921-.131-2.628-.354l.398-2.702c.49.155 1.125.262 1.827.262 1.502 0 2.437-.639 2.437-2.925v-9.34h.004zM23.561 29.209c.94.46 2.437.925 3.96.925 1.641 0 2.508-.64 2.508-1.627 0-.901-.748-1.453-2.648-2.068-2.627-.88-4.357-2.242-4.357-4.42-.004-2.528 2.272-4.44 5.973-4.44 1.806 0 3.093.328 4.032.745l-.796 2.683a7.8 7.8 0 0 0-3.282-.703c-1.549 0-2.297.683-2.297 1.429 0 .944.867 1.361 2.931 2.111 2.788.968 4.078 2.33 4.078 4.44 0 2.485-2.013 4.596-6.35 4.596-1.806 0-3.587-.46-4.475-.925l.723-2.746z" fill="#506677"/></svg>