<svg width="339" height="488" viewBox="0 0 339 488" fill="none" xmlns="http://www.w3.org/2000/svg">
<path fill-rule="evenodd" clip-rule="evenodd" d="M339 432H1V431H339V432ZM1 434.924H339V435.924H1V434.924ZM1 439.613H339V440.613H1V439.613ZM1 443.904H339V444.904H1V443.904ZM1 448H339V449H1V448Z" fill="#CBD4E0"/>
<path d="M230.5 437C228.567 437 227 438.567 227 440.5C227 442.433 228.567 444 230.5 444C232.433 444 234 442.433 234 440.5C234 438.567 232.433 437 230.5 437Z" fill="#3a4854"/>
<path d="M269.8 378C267.867 378 266.3 379.567 266.3 381.5C266.3 383.433 267.867 385 269.8 385C271.733 385 273.3 383.433 273.3 381.5C273.3 379.567 271.733 378 269.8 378Z" fill="#3a4854"/>
<path fill-rule="evenodd" clip-rule="evenodd" d="M319 445.2L319 488L318 488L318 445.2C318 444.059 317.547 442.966 316.741 442.159C315.934 441.353 314.84 440.9 313.7 440.9L230.3 440.9L230.3 439.9L313.7 439.9C315.106 439.9 316.454 440.458 317.448 441.452C318.442 442.446 319 443.794 319 445.2Z" fill="#3a4854"/>
<path fill-rule="evenodd" clip-rule="evenodd" d="M303 464.2L303 488L302 488L302 464.2C302 463.06 301.547 461.966 300.741 461.159C299.934 460.353 298.84 459.9 297.7 459.9L278.3 459.9L278.3 458.9L297.7 458.9C299.106 458.9 300.454 459.458 301.448 460.452C302.442 461.446 303 462.794 303 464.2Z" fill="#3a4854"/>
<path fill-rule="evenodd" clip-rule="evenodd" d="M269.3 454.6L269.3 382.8L270.3 382.8L270.3 454.6C270.3 455.74 270.753 456.834 271.559 457.641C272.366 458.447 273.46 458.9 274.6 458.9L294 458.9L294 459.9L274.6 459.9C273.194 459.9 271.846 459.342 270.852 458.348C269.858 457.354 269.3 456.006 269.3 454.6Z" fill="#3a4854"/>
<path d="M1.25 391.25C26.7108 391.25 51.1288 401.364 69.1322 419.368C87.1357 437.371 97.25 461.789 97.25 487.25L1.24999 487.25L1.25 391.25Z" fill="#CBD4E0"/>
<path fill-rule="evenodd" clip-rule="evenodd" d="M0.75 438.75C13.613 438.75 24.9492 443.86 34.0447 452.955C43.1402 462.051 48.25 474.387 48.25 487.25L47.25 487.25C47.25 474.652 42.2456 462.57 33.3376 453.662C24.4296 444.754 13.3478 439.75 0.75 439.75L0.75 438.75Z" fill="#3a4854"/>
<path d="M292.5 39C294.433 39 296 37.433 296 35.5C296 33.567 294.433 32 292.5 32C290.567 32 289 33.567 289 35.5C289 37.433 290.567 39 292.5 39Z" fill="#3a4854"/>
<path d="M275.5 56C277.433 56 279 54.433 279 52.5C279 50.567 277.433 49 275.5 49C273.567 49 272 50.567 272 52.5C272 54.433 273.567 56 275.5 56Z" fill="#3a4854"/>
<path d="M289.5 95C291.433 95 293 93.433 293 91.5C293 89.567 291.433 88 289.5 88C287.567 88 286 89.567 286 91.5C286 93.433 287.567 95 289.5 95Z" fill="#3a4854"/>
<path d="M250.2 154C252.133 154 253.7 152.433 253.7 150.5C253.7 148.567 252.133 147 250.2 147C248.267 147 246.7 148.567 246.7 150.5C246.7 152.433 248.267 154 250.2 154Z" fill="#3a4854"/>
<path fill-rule="evenodd" clip-rule="evenodd" d="M97.1669 30.5667L97.1669 0.766724L98.1669 0.766724L98.1669 30.5667C98.1669 31.7072 98.6199 32.8009 99.4263 33.6073C100.233 34.4137 101.326 34.8667 102.467 34.8667L291.867 34.8667V35.8667L102.467 35.8667C101.061 35.8667 99.7131 35.3083 98.7192 34.3144C97.7253 33.3204 97.1669 31.9724 97.1669 30.5667Z" fill="#3a4854"/>
<path fill-rule="evenodd" clip-rule="evenodd" d="M201 86.8L201 35H202L202 86.8C202 87.9404 202.453 89.0342 203.259 89.8406C204.066 90.647 205.16 91.1 206.3 91.1L289.7 91.1V92.1L206.3 92.1C204.894 92.1 203.546 91.5416 202.552 90.5477C201.558 89.5537 201 88.2056 201 86.8Z" fill="#3a4854"/>
<path fill-rule="evenodd" clip-rule="evenodd" d="M232 47.8L232 35H233L233 47.8C233 48.9404 233.453 50.0342 234.259 50.8406C235.066 51.647 236.16 52.1 237.3 52.1L273.7 52.1V53.1L237.3 53.1C235.894 53.1 234.546 52.5416 233.552 51.5477C232.558 50.5537 232 49.2056 232 47.8Z" fill="#3a4854"/>
<path fill-rule="evenodd" clip-rule="evenodd" d="M217 67.7999V34.9999H218V67.7999C218 68.9403 218.453 70.034 219.259 70.8404C220.066 71.6468 221.16 72.0999 222.3 72.0999H241.7V73.0999H222.3C220.894 73.0999 219.546 72.5415 218.552 71.5475C217.558 70.5536 217 69.2055 217 67.7999Z" fill="#3a4854"/>
<path fill-rule="evenodd" clip-rule="evenodd" d="M250.7 77.3999L250.7 149.2H249.7L249.7 77.3999C249.7 76.2594 249.247 75.1657 248.441 74.3593C247.634 73.5529 246.54 73.0999 245.4 73.0999L226 73.0999V72.0999L245.4 72.0999C246.806 72.0999 248.154 72.6583 249.148 73.6522C250.142 74.6462 250.7 75.9942 250.7 77.3999Z" fill="#3a4854"/>
</svg>
