<svg width="156" height="36" fill="none" xmlns="http://www.w3.org/2000/svg"><path d="M90.477 13.932h-6.14v.652c1.92 0 2.229.411 2.229 2.847v4.392c0 2.435-.309 2.881-2.23 2.881-1.474-.206-2.47-.995-3.842-2.504l-1.578-1.715c2.127-.378 3.259-1.716 3.259-3.225 0-1.887-1.612-3.328-4.631-3.328h-6.038v.652c1.92 0 2.23.411 2.23 2.847v4.392c0 2.435-.31 2.881-2.23 2.881v.652h6.827v-.652c-1.921 0-2.23-.446-2.23-2.881v-1.235h.583l3.808 4.768h9.983c4.906 0 7.033-2.607 7.033-5.73 0-3.121-2.127-5.694-7.033-5.694zm-14.374 5.592V14.96h1.407c1.543 0 2.23 1.064 2.23 2.299 0 1.2-.687 2.264-2.23 2.264h-1.407zm14.477 4.769h-.24c-1.235 0-1.406-.309-1.406-1.887V14.96h1.646c3.568 0 4.22 2.607 4.22 4.632 0 2.092-.652 4.7-4.22 4.7zM52.398 20.794l2.367-7c.687-2.023.378-2.606-1.818-2.606V10.5h6.45v.687c-2.161 0-2.676.514-3.534 3.019l-3.91 11.732h-.447l-3.5-10.738L44.44 25.94h-.446l-3.808-11.732c-.823-2.505-1.372-3.02-3.362-3.02v-.685h7.616v.686c-2.024 0-2.573.48-1.852 2.607l2.298 6.999L48.35 10.5h.652l3.396 10.293zM64.061 25.802c-3.773 0-6.86-2.779-6.86-6.175 0-3.362 3.087-6.141 6.86-6.141 3.774 0 6.861 2.779 6.861 6.14 0 3.397-3.087 6.176-6.86 6.176zm0-11.252c-3.156 0-4.254 2.847-4.254 5.077 0 2.265 1.099 5.078 4.254 5.078 3.191 0 4.289-2.813 4.289-5.078 0-2.23-1.098-5.077-4.289-5.077z" fill="#00749A"/><path d="M105.982 24.67v.686h-7.856v-.686c2.299 0 2.71-.583 2.71-4.014v-5.489c0-3.431-.411-3.98-2.71-3.98v-.686h7.101c3.534 0 5.49 1.818 5.49 4.254 0 2.368-1.956 4.22-5.49 4.22h-1.955v1.68c0 3.432.411 4.015 2.71 4.015zm-.755-12.934h-1.955v5.97h1.955c1.922 0 2.813-1.338 2.813-2.95 0-1.647-.891-3.02-2.813-3.02zM134.285 22.131l-.171.618c-.309 1.132-.687 1.544-3.122 1.544h-.481c-1.783 0-2.092-.412-2.092-2.848v-1.578c2.676 0 2.882.24 2.882 2.024h.652V16.78h-.652c0 1.784-.206 2.024-2.882 2.024v-3.842h1.886c2.437 0 2.814.412 3.122 1.544l.172.652h.549l-.24-3.225h-10.086v.652c1.921 0 2.23.411 2.23 2.847v4.392c0 2.228-.262 2.79-1.777 2.87-1.44-.22-2.428-1.006-3.78-2.493l-1.578-1.715c2.127-.378 3.259-1.716 3.259-3.225 0-1.887-1.612-3.328-4.631-3.328h-6.038v.652c1.921 0 2.229.411 2.229 2.847v4.392c0 2.435-.308 2.881-2.229 2.881v.652h6.827v-.652c-1.921 0-2.23-.446-2.23-2.881v-1.235h.583l3.808 4.768h14.1l.206-3.224h-.516zm-18.181-2.607V14.96h1.406c1.544 0 2.23 1.064 2.23 2.299 0 1.2-.686 2.264-2.23 2.264h-1.406zM141.249 25.802c-1.372 0-2.573-.72-3.087-1.167-.172.172-.481.687-.549 1.167h-.652v-4.734h.686c.275 2.264 1.852 3.602 3.877 3.602 1.097 0 1.99-.618 1.99-1.647 0-.891-.789-1.578-2.196-2.23l-1.956-.926c-1.372-.652-2.401-1.784-2.401-3.293 0-1.647 1.544-3.053 3.671-3.053 1.132 0 2.092.411 2.676.892.171-.138.343-.515.446-.927h.652v4.048h-.721c-.24-1.612-1.132-2.95-2.95-2.95-.961 0-1.853.549-1.853 1.407 0 .892.721 1.372 2.367 2.127l1.887.926c1.647.789 2.298 2.059 2.298 3.088 0 2.16-1.886 3.67-4.185 3.67zM151.815 25.802c-1.373 0-2.574-.72-3.088-1.167-.171.172-.48.687-.548 1.167h-.652v-4.734h.686c.274 2.264 1.852 3.602 3.876 3.602 1.098 0 1.99-.618 1.99-1.647 0-.891-.789-1.578-2.196-2.23l-1.955-.926c-1.372-.652-2.402-1.784-2.402-3.293 0-1.647 1.544-3.053 3.671-3.053 1.132 0 2.093.411 2.676.892.172-.138.343-.515.446-.927h.652v4.048h-.72c-.241-1.612-1.133-2.95-2.951-2.95-.96 0-1.853.549-1.853 1.407 0 .892.721 1.372 2.368 2.127l1.886.926c1.647.789 2.299 2.059 2.299 3.088 0 2.16-1.887 3.67-4.185 3.67zM2.516 17.697c0 6.01 3.492 11.203 8.556 13.664L3.83 11.52a15.124 15.124 0 0 0-1.314 6.178zM27.947 16.93c0-1.876-.674-3.175-1.252-4.187-.77-1.25-1.491-2.31-1.491-3.56 0-1.395 1.058-2.694 2.55-2.694.067 0 .13.008.196.012a15.126 15.126 0 0 0-10.252-3.986c-5.304 0-9.97 2.721-12.685 6.843.356.011.692.019.977.019 1.588 0 4.046-.193 4.046-.193.818-.048.915 1.154.097 1.25 0 0-.822.097-1.737.145l5.528 16.445 3.323-9.965-2.366-6.48c-.817-.048-1.592-.145-1.592-.145-.818-.048-.722-1.299.096-1.25 0 0 2.508.192 4 .192 1.587 0 4.045-.193 4.045-.193.82-.048.916 1.154.098 1.25 0 0-.824.098-1.738.146l5.487 16.32 1.514-5.06c.657-2.1 1.156-3.609 1.156-4.908z" fill="#464342"/><path d="M17.963 19.025l-4.555 13.237a15.183 15.183 0 0 0 9.33-.242 1.33 1.33 0 0 1-.107-.21l-4.668-12.785zM31.02 10.414c.065.483.102 1.002.102 1.56 0 1.541-.288 3.273-1.154 5.439L25.33 30.82c4.514-2.632 7.55-7.522 7.55-13.123a15.1 15.1 0 0 0-1.86-7.284z" fill="#464342"/><path d="M17.698 0C7.94 0 0 7.939 0 17.697c0 9.76 7.94 17.698 17.698 17.698s17.699-7.938 17.699-17.698C35.397 7.94 27.456 0 17.697 0zm0 34.584C8.387 34.584.81 27.01.81 17.697.811 8.387 8.387.811 17.698.811c9.31 0 16.886 7.575 16.886 16.886 0 9.312-7.576 16.887-16.886 16.887z" fill="#464342"/></svg>