<svg width="64" height="64" viewBox="0 0 64 64" fill="none" xmlns="http://www.w3.org/2000/svg">
<path d="M48.7115 62.2802H6.96862C4.63186 62.2802 2.71997 60.3683 2.71997 58.0316V16.2886C2.71997 13.9519 4.63186 12.04 6.96862 12.04H48.7115C51.0483 12.04 52.9602 13.9519 52.9602 16.2886V58.0316C52.9602 60.3683 51.0483 62.2802 48.7115 62.2802Z" fill="#8ECCFD"/>
<path fill-rule="evenodd" clip-rule="evenodd" d="M7.02183 14.8882C6.2286 14.8882 5.56802 15.5487 5.56802 16.342V57.9785C5.56802 58.7718 6.2286 59.4323 7.02183 59.4323H48.6584C49.4516 59.4323 50.1122 58.7718 50.1122 57.9785V16.342C50.1122 15.5487 49.4516 14.8882 48.6584 14.8882H7.02183ZM0 16.342C0 12.4736 3.15346 9.32013 7.02183 9.32013H48.6584C52.5268 9.32013 55.6802 12.4736 55.6802 16.342V57.9785C55.6802 61.8469 52.5268 65.0004 48.6584 65.0004H7.02183C3.15346 65.0004 0 61.8469 0 57.9785V16.342Z" fill="#0496FF"/>
<path d="M53.478 19.8746C58.091 19.8746 61.8305 16.135 61.8305 11.522C61.8305 6.90906 58.091 3.16949 53.478 3.16949C48.865 3.16949 45.1254 6.90906 45.1254 11.522C45.1254 16.135 48.865 19.8746 53.478 19.8746Z" fill="#8ECCFD"/>
<path fill-rule="evenodd" clip-rule="evenodd" d="M53.4779 5.33899C50.0631 5.33899 47.2949 8.10724 47.2949 11.522C47.2949 14.9369 50.0631 17.7051 53.4779 17.7051C56.8927 17.7051 59.661 14.9369 59.661 11.522C59.661 8.10724 56.8927 5.33899 53.4779 5.33899ZM42.9559 11.522C42.9559 5.71088 47.6668 1 53.4779 1C59.2891 1 64 5.71088 64 11.522C64 17.3332 59.2891 22.0441 53.4779 22.0441C47.6668 22.0441 42.9559 17.3332 42.9559 11.522Z" fill="#0496FF"/>
<path fill-rule="evenodd" clip-rule="evenodd" d="M42.2059 11.522C42.2059 5.29667 47.2525 0.25 53.4779 0.25C59.7033 0.25 64.75 5.29667 64.75 11.522C64.75 17.7474 59.7033 22.7941 53.4779 22.7941C47.2525 22.7941 42.2059 17.7474 42.2059 11.522ZM53.4779 1.75C48.081 1.75 43.7059 6.12509 43.7059 11.522C43.7059 16.919 48.081 21.2941 53.4779 21.2941C58.8749 21.2941 63.25 16.919 63.25 11.522C63.25 6.12509 58.8749 1.75 53.4779 1.75ZM53.4779 6.08899C50.4773 6.08899 48.0449 8.52145 48.0449 11.522C48.0449 14.5226 50.4773 16.9551 53.4779 16.9551C56.4785 16.9551 58.911 14.5226 58.911 11.522C58.911 8.52145 56.4785 6.08899 53.4779 6.08899ZM46.5449 11.522C46.5449 7.69302 49.6489 4.58899 53.4779 4.58899C57.3069 4.58899 60.411 7.69302 60.411 11.522C60.411 15.3511 57.3069 18.4551 53.4779 18.4551C49.6489 18.4551 46.5449 15.3511 46.5449 11.522Z" fill="#0496FF"/>
</svg>
