<svg xmlns="http://www.w3.org/2000/svg" fill="none" viewBox="0 0 58 58">
  <defs/>
  <path fill="#3a4854" d="M34.775 1C47.602 1 58 11.398 58 24.225v23.224H45.049a26.038 26.038 0 002.495-4.331h6.124V24.225c0-10.435-8.458-18.893-18.893-18.893-2.413 0-4.72.452-6.842 1.277a26.258 26.258 0 00-4.136-.327c-1.417 0-2.807.113-4.162.33A23.134 23.134 0 0134.775 1z"/>
  <path fill="#3a4854" fill-rule="evenodd" d="M0 32.888C0 20.06 10.398 9.663 23.225 9.663c12.826 0 23.224 10.398 23.224 23.225 0 12.826-10.398 23.224-23.224 23.224H0V32.888zm23.225-18.893c-10.435 0-18.893 8.458-18.893 18.893V51.78h18.893c10.434 0 18.893-8.46 18.893-18.893 0-10.435-8.459-18.893-18.893-18.893z" clip-rule="evenodd"/>
  <path fill="#3a4854" d="M11.04 31.074c0-1.196.63-2.166 1.408-2.166h21.588c.778 0 1.408.97 1.408 2.166s-.63 2.165-1.408 2.165H12.448c-.778 0-1.408-.97-1.408-2.165zM11.04 37.73c0-1.197.652-2.166 1.456-2.166h12.618c.804 0 1.456.97 1.456 2.165 0 1.197-.652 2.166-1.456 2.166H12.496c-.804 0-1.456-.97-1.456-2.166z"/>
</svg>
