<svg width="128" height="128" viewBox="0 0 128 128" fill="none" xmlns="http://www.w3.org/2000/svg">
<rect width="128" height="128" fill="#020F46"/>
<path d="M64.3147 99C50.9093 99 40 88.0909 40 74.6853V62.6253C40 61.6257 40.8105 60.8152 41.8101 60.8152H50.4337L50.4013 32.9019L43.6148 37.0786V52.975C43.6148 53.9746 42.8043 54.7851 41.8047 54.7851C40.8051 54.7851 40 53.9746 40 52.975V36.8733C40 35.7548 40.5944 34.6904 41.5453 34.1068L49.0667 29.4816C50.0716 28.8657 51.3306 28.8386 52.3573 29.4114C53.3839 29.9841 54.0214 31.0702 54.0214 32.2481L54.0539 60.8206H64.3201C71.9657 60.8206 78.1849 67.0397 78.1849 74.6853C78.1849 82.3309 71.9657 88.5501 64.3201 88.5501C56.6745 88.5501 50.4554 82.3309 50.4554 74.6853L50.4445 64.4353H43.6148V74.6853C43.6148 86.097 52.8977 95.3852 64.3147 95.3852C75.7318 95.3852 85.0146 86.1025 85.0146 74.6853C85.0146 63.2683 75.7264 53.9854 64.3147 53.9854H61.1754C60.1758 53.9854 59.3653 53.175 59.3653 52.1754C59.3653 51.1758 60.1758 50.3653 61.1754 50.3653H64.3147C77.7202 50.3653 88.6294 61.2744 88.6294 74.68C88.6294 88.0854 77.7202 99 64.3147 99ZM54.0539 64.4353L54.0647 74.6853C54.0647 80.3372 58.6629 84.9353 64.3147 84.9353C69.9666 84.9353 74.5647 80.3372 74.5647 74.6853C74.5647 69.0336 69.9666 64.4353 64.3147 64.4353H54.0539Z" fill="#FF5B64"/>
</svg>
