<svg width="929" height="264" viewBox="0 0 929 264" fill="none" xmlns="http://www.w3.org/2000/svg">
<path d="M100.509 3.67184C100.68 1.59695 102.413 0 104.495 0H117.657C119.996 0 121.836 1.99749 121.644 4.32817L120.491 18.3282C120.32 20.403 118.587 22 116.505 22H103.343C101.004 22 99.1644 20.0025 99.3563 17.6718L100.509 3.67184Z" fill="#55BAB5" fill-opacity="0.1"/>
<path d="M1.50876 77.6713C1.67956 75.5965 3.41337 73.9995 5.49528 73.9995H18.6572C20.9957 73.9995 22.8356 75.997 22.6437 78.3277L21.4912 92.3277C21.3204 94.4026 19.5866 95.9995 17.5047 95.9995H4.34281C2.00425 95.9995 0.164432 94.002 0.356291 91.6713L1.50876 77.6713Z" fill="#55BAB5" fill-opacity="0.5"/>
<path d="M887.509 55.6713C887.68 53.5965 889.413 51.9995 891.495 51.9995H904.657C906.996 51.9995 908.836 53.997 908.644 56.3277L907.491 70.3277C907.32 72.4026 905.587 73.9995 903.505 73.9995H890.343C888.004 73.9995 886.164 72.002 886.356 69.6713L887.509 55.6713Z" fill="#55BAB5" fill-opacity="0.5"/>
<path d="M785.509 154.671C785.68 152.596 787.413 151 789.495 151H802.657C804.996 151 806.836 152.997 806.644 155.328L805.491 169.328C805.32 171.403 803.587 173 801.505 173H788.343C786.004 173 784.164 171.002 784.356 168.671L785.509 154.671Z" fill="#55BAB5" fill-opacity="0.3"/>
<path d="M907.509 245.671C907.68 243.596 909.413 242 911.495 242H924.657C926.996 242 928.836 243.997 928.644 246.328L927.491 260.328C927.32 262.403 925.587 264 923.505 264H910.343C908.004 264 906.164 262.002 906.356 259.671L907.509 245.671Z" fill="#55BAB5" fill-opacity="0.1"/>
<path d="M91.5088 192.672C91.6796 190.597 93.4134 189 95.4953 189H108.657C110.996 189 112.836 190.997 112.644 193.328L111.491 207.328C111.32 209.403 109.587 211 107.505 211H94.3428C92.0043 211 90.1644 209.003 90.3563 206.672L91.5088 192.672Z" fill="#55BAB5" fill-opacity="0.3"/>
</svg>
