<svg xmlns="http://www.w3.org/2000/svg" viewBox="0 0 119.61 38"><defs><style>.a{fill:#516676;}</style></defs><title>Asset 1</title><path class="a" d="M12.09,8.3V8.23A3.48,3.48,0,0,0,14.2,4.74a4.47,4.47,0,0,0-1.57-3.58A5.85,5.85,0,0,0,8.79,0H0V18.14H9A6.73,6.73,0,0,0,13.06,17,5.27,5.27,0,0,0,15,12.65,4.34,4.34,0,0,0,12.09,8.3ZM4.87,4h3A1.48,1.48,0,0,1,9.54,5.51,1.49,1.49,0,0,1,7.91,7.1h-3ZM8.36,14.12H4.87V10.41H8.34a1.74,1.74,0,0,1,1.87,1.86A1.72,1.72,0,0,1,8.36,14.12Z"/><path class="a" d="M102.18,7.41h-.07V5.19H97.84V18.13h4.48V12.72c0-2.91,1.55-4.18,4.18-3.7h.1v-4a1.74,1.74,0,0,0-.74-.12A3.9,3.9,0,0,0,102.18,7.41Z"/><path class="a" d="M115.33,5.2V6.61h-.07a3.73,3.73,0,0,0-3.44-1.8c-3,0-4.94,2.89-4.94,6.59,0,4,2.4,6.11,5.15,6.11A3.83,3.83,0,0,0,115.09,16h.09v1c0,1.34-.49,2.26-1.94,2.26a1.74,1.74,0,0,1-1.81-1.11h-4.32c.43,2.89,2.81,4.31,6.2,4.31a6.55,6.55,0,0,0,4.51-1.42,6.12,6.12,0,0,0,1.79-4.65V5.2Zm-2,9c-1.26,0-2.07-1.26-2.07-3s.81-2.92,2.07-2.92,2.06,1.31,2.06,2.92S114.62,14.17,113.32,14.17Z"/><path class="a" d="M41.72,4.83c-4,0-6.65,2.77-6.65,6.86s2.61,6.85,6.65,6.85,6.6-2.74,6.6-6.85S45.76,4.83,41.72,4.83Zm2.05,6.86c0,2.28-.72,3.7-2.09,3.7s-2-1.42-2-3.7S40.3,8,41.68,8,43.77,9.43,43.77,11.69Z"/><path class="a" d="M90.57,4.79c-3.82,0-6.46,2.81-6.46,6.85s2.66,6.85,6.63,6.85C93.94,18.49,96.2,17,97,14H92.63a1.72,1.72,0,0,1-1.75,1.23c-1.36,0-2.12-.82-2.31-2.43h8.57c0-2.67-.62-4.93-2.09-6.38A6.18,6.18,0,0,0,90.57,4.79Zm-2,5.5c.16-1.49.85-2.38,2.08-2.38,1.07,0,1.93.82,2,2.38Z"/><path class="a" d="M20.42,0H15.81V18.14h4.61Z"/><path class="a" d="M78.48,4.81a4.21,4.21,0,0,0-3.63,1.73h-.07V0H70.29V18.14h4.27V16.45h0a4,4,0,0,0,3.58,2.12c3.33,0,5.35-2.53,5.35-6.93C83.54,7.75,81.69,4.81,78.48,4.81ZM76.87,15c-1.38,0-2.26-1.37-2.26-3.44s.88-3.44,2.26-3.44S79,9.5,79,11.59,78.24,15,76.87,15Z"/><path class="a" d="M64.87,4.81a4.28,4.28,0,0,0-4,2.24h-.07a3.57,3.57,0,0,0-3.44-2.24,4.08,4.08,0,0,0-3.85,2.33h-.07V5.2H49.2V18.14h4.49v-7c0-1.4.57-2.46,1.69-2.46s1.54.87,1.54,2.19v7.32h4.49v-7c0-1.4.57-2.46,1.68-2.46s1.54.87,1.54,2.19v7.32h4.49V10C69.12,7,67.84,4.81,64.87,4.81Z"/><path class="a" d="M28,4.83c-4,0-6.65,2.77-6.65,6.86s2.61,6.85,6.65,6.85,6.6-2.74,6.6-6.85S32,4.83,28,4.83ZM27.9,15.39c-1.37,0-2-1.41-2-3.7S26.53,8,27.9,8,30,9.43,30,11.69,29.28,15.39,27.9,15.39Z"/><path class="a" d="M35.78,29.12c-1.37-.19-2.49-.38-2.49-1.1s.62-1,1.29-1a1.33,1.33,0,0,1,1.52,1.23h4.22c-.17-2.53-2.09-4-5.77-4-3,0-5.51,1.49-5.51,4.14,0,3.24,2.36,3.92,4.4,4.23,1.56.27,3,.33,3,1.4,0,.88-.67,1.15-1.55,1.15A1.66,1.66,0,0,1,33,33.48H28.88c0,3,2.38,4.52,6,4.52,3.32,0,6-1.32,6-4.43C40.79,30,38,29.46,35.78,29.12Z"/><path class="a" d="M23.67,31.72c0,1.49-.69,2.29-1.85,2.29s-1.61-.58-1.61-2V24.62H15.72V33c0,3,1.42,5,4.32,5a4.35,4.35,0,0,0,3.78-2.1h.07v1.69h4.27V24.62H23.67Z"/><path class="a" d="M12.09,27.73v-.07a3.48,3.48,0,0,0,2.11-3.49,4.48,4.48,0,0,0-1.57-3.58,5.85,5.85,0,0,0-3.84-1.16H0V37.57H9a6.73,6.73,0,0,0,4.11-1.11A5.27,5.27,0,0,0,15,32.08,4.35,4.35,0,0,0,12.09,27.73ZM4.87,23.4h3a1.57,1.57,0,1,1,0,3.13h-3ZM8.36,33.55H4.87v-3.7H8.34a1.85,1.85,0,1,1,0,3.7Z"/><path class="a" d="M41.53,24.62v13H46V24.62Z"/><path class="a" d="M46,20H41.53v3.63H46Z"/><path class="a" d="M93.34,29.12c-1.37-.19-2.49-.38-2.49-1.1s.62-1,1.28-1a1.33,1.33,0,0,1,1.52,1.23h4.22c-.16-2.53-2.08-4-5.76-4-3,0-5.51,1.49-5.51,4.14,0,3.24,2.35,3.92,4.39,4.23,1.57.27,3,.33,3,1.4,0,.88-.67,1.15-1.54,1.15a1.65,1.65,0,0,1-1.83-1.68H86.43c0,3,2.38,4.52,6,4.52,3.33,0,6-1.32,6-4.43C98.35,30,95.55,29.46,93.34,29.12Z"/><path class="a" d="M55.52,24.24a4.48,4.48,0,0,0-3.9,2.17h-.07V24.62H47.28V37.56h4.49V30.47c0-1.49.69-2.45,1.83-2.45s1.68.79,1.68,2.23v7.32h4.49V29.2C59.77,26.24,58.32,24.24,55.52,24.24Z"/><path class="a" d="M81,29.12c-1.38-.19-2.49-.38-2.49-1.1s.62-1,1.28-1a1.32,1.32,0,0,1,1.51,1.23h4.23c-.17-2.53-2.09-4-5.77-4-3,0-5.51,1.49-5.51,4.14,0,3.24,2.36,3.92,4.4,4.23,1.56.27,3,.33,3,1.4,0,.88-.67,1.15-1.55,1.15a1.66,1.66,0,0,1-1.83-1.68H74c0,3,2.38,4.52,6,4.52,3.32,0,6-1.32,6-4.43C86,30,83.16,29.46,81,29.12Z"/><path class="a" d="M67,24.22c-3.82,0-6.46,2.81-6.46,6.85s2.66,6.86,6.63,6.86c3.2,0,5.46-1.49,6.22-4.45H69.08a1.72,1.72,0,0,1-1.76,1.22c-1.35,0-2.11-.82-2.3-2.43h8.57c0-2.67-.62-4.93-2.09-6.37A6.19,6.19,0,0,0,67,24.22Zm-2,5.51c.17-1.49.85-2.39,2.09-2.39,1.07,0,1.92.82,2,2.39Z"/></svg>