<svg xmlns="http://www.w3.org/2000/svg" viewBox="0 0 40.01 33.82"><defs><style>.a{fill:#506677;}</style></defs><title>chat_2</title><path class="a" d="M20.79,17.07c1.92,0,3.84,0,5.75,0,.57,0,1.17,0,1.15-.79s-.57-.72-1.1-.72H14.83c-.57,0-1.17,0-1.14.79s.68.72,1.22.72Z"/><path class="a" d="M20.56,20.33H14.81c-.52,0-1.08,0-1.12.69s.54.82,1.12.82c3.92,0,7.84,0,11.76,0,.52,0,1.08,0,1.12-.7s-.54-.81-1.12-.81Z"/><path class="a" d="M36.15,13.64V28c0,.66,0,1.71,0,2.82,0,.4,0,.82,0,1.22l-6.5-2.9A1.42,1.42,0,0,0,29,29H6.3a1,1,0,0,1-1-1V8.66a1,1,0,0,1,1-1H31.36a4.39,4.39,0,0,1,.94-1.5H6.3a2.5,2.5,0,0,0-2.51,2.5V28A2.51,2.51,0,0,0,6.3,30.46H29l7.41,3.31a.84.84,0,0,0,.31,0,.89.89,0,0,0,.89-.88c0-1.67,0-3.88,0-5V13.14A4.5,4.5,0,0,1,36.15,13.64Z"/><path class="a" d="M35.53,13.71A4.48,4.48,0,1,1,40,9.23,4.48,4.48,0,0,1,35.53,13.71Zm0-7.88a3.4,3.4,0,1,0,3.4,3.4A3.41,3.41,0,0,0,35.53,5.83Z"/><path class="a" d="M36.18,11.06h-.83V8h-.66V7.4h1.49Z"/><path class="a" d="M1.5,19.8V2.51a1,1,0,0,1,1-1H31.36a1,1,0,0,1,1,1V6.09a4.39,4.39,0,0,1,1.5-1V2.51A2.5,2.5,0,0,0,31.36,0H2.51A2.51,2.51,0,0,0,0,2.51V19.8a2.5,2.5,0,0,0,2.51,2.5H3.79V20.8H2.51A1,1,0,0,1,1.5,19.8Z"/></svg>