<svg xmlns="http://www.w3.org/2000/svg" xmlns:xlink="http://www.w3.org/1999/xlink" viewBox="0 0 62.84 85.68"><defs><style>.a{fill:none;}.b{clip-path:url(#a);}.c{fill:#eaf6fd;}.d{fill:#fff;}.e{clip-path:url(#b);}.f{fill:#ebf7fd;}.g{fill:#231f20;}</style><clipPath id="a" transform="translate(-11.42 -9.56)"><path class="a" d="M66.86,13.14H30.41A3.82,3.82,0,0,0,26.59,17v57.1a3.82,3.82,0,0,0,3.82,3.83H66.86a3.82,3.82,0,0,0,3.82-3.83V17A3.82,3.82,0,0,0,66.86,13.14Z"/></clipPath><clipPath id="b" transform="translate(-11.42 -9.56)"><path class="a" d="M67.85,15.55,49.35,26.23a5.85,5.85,0,0,0-2.83,4.47V89.79c0,1.56,1.26,2.1,2.83,1.19L67.85,80.3a5.85,5.85,0,0,0,2.83-4.47V16.74C70.68,15.18,69.42,14.64,67.85,15.55Z"/></clipPath></defs><title>icon.checkin</title><path d="M66.86,9.56H30.41A7.41,7.41,0,0,0,23,17V33.11h3.58V17a3.82,3.82,0,0,1,3.82-3.82H66.86A3.82,3.82,0,0,1,70.68,17v57.1a3.82,3.82,0,0,1-3.82,3.83H30.41a3.82,3.82,0,0,1-3.82-3.83V58.7H23V74.06a7.41,7.41,0,0,0,7.4,7.41H66.86a7.41,7.41,0,0,0,7.4-7.41V17A7.41,7.41,0,0,0,66.86,9.56Z" transform="translate(-11.42 -9.56)"/><g class="b"><path class="c" d="M70.32,18H33.87a3.82,3.82,0,0,0-3.82,3.82V79a3.82,3.82,0,0,0,3.82,3.83H70.32A3.82,3.82,0,0,0,74.14,79V21.85A3.82,3.82,0,0,0,70.32,18Z" transform="translate(-11.42 -9.56)"/></g><path class="d" d="M47.93,93.21a3.18,3.18,0,0,1-3.2-3.42V30.7a7.63,7.63,0,0,1,3.72-6L67,14a4.61,4.61,0,0,1,2.31-.68,3.18,3.18,0,0,1,3.2,3.42V75.83a7.63,7.63,0,0,1-3.72,6L50.24,92.53A4.61,4.61,0,0,1,47.93,93.21Z" transform="translate(-11.42 -9.56)"/><path d="M69.27,15.11c.84,0,1.41.58,1.41,1.63V75.83a5.85,5.85,0,0,1-2.83,4.47L49.35,91a2.89,2.89,0,0,1-1.42.44c-.84,0-1.41-.58-1.41-1.63V30.7a5.85,5.85,0,0,1,2.83-4.47l18.5-10.68a2.89,2.89,0,0,1,1.42-.44m0-3.58h0a6.38,6.38,0,0,0-3.2.92L47.56,23.13a9.41,9.41,0,0,0-4.62,7.57V89.79a5.28,5.28,0,0,0,1.3,3.59A4.86,4.86,0,0,0,47.93,95a6.41,6.41,0,0,0,3.21-.92L69.64,83.4a9.41,9.41,0,0,0,4.62-7.57V16.74A5.28,5.28,0,0,0,73,13.15a4.86,4.86,0,0,0-3.69-1.62Z" transform="translate(-11.42 -9.56)"/><g class="e"><path class="f" d="M71,19.36,52.45,30.05a5.85,5.85,0,0,0-2.83,4.46V93.6c0,1.57,1.26,2.1,2.83,1.2L71,84.12a5.88,5.88,0,0,0,2.83-4.47V20.56C73.78,19,72.52,18.46,71,19.36Z" transform="translate(-11.42 -9.56)"/></g><polygon points="36.66 43.71 43.48 39.77 43.48 51.7 36.66 55.64 36.66 43.71"/><path class="d" d="M53.42,51.91V60.4l-3.84,2.22V54.13l3.84-2.22m3-5.17-4.47,2.59-3.84,2.21-1.5.87V67.78l4.48-2.58L54.91,63l1.49-.86V46.74Z" transform="translate(-11.42 -9.56)"/><path class="g" d="M22.33,55.15l8.56-8.56a1.06,1.06,0,0,0,.31-.75,1,1,0,0,0-.31-.75l-8.56-8.57a1.05,1.05,0,0,0-.75-.3,1,1,0,0,0-.75.3l-1,1a.91.91,0,0,0-.33.75,1.17,1.17,0,0,0,.33.75l5.3,5.07H12.48a1,1,0,0,0-.75.31,1.06,1.06,0,0,0-.31.75v1.41a1.06,1.06,0,0,0,1.06,1.06H25.15l-5.3,5.08a1.13,1.13,0,0,0-.33.75.94.94,0,0,0,.33.75l1,1a1,1,0,0,0,.75.31A1.06,1.06,0,0,0,22.33,55.15Z" transform="translate(-11.42 -9.56)"/></svg>