<svg xmlns="http://www.w3.org/2000/svg" viewBox="0 0 34.26 34"><defs><style>.a{fill:#506677;}</style></defs><title>Asset 2</title><path class="a" d="M12.86,25.71A12.85,12.85,0,0,1,0,12.86,12.87,12.87,0,0,1,12.86,0,12.86,12.86,0,0,1,22,22,12.77,12.77,0,0,1,12.86,25.71Zm0-24.19a11.33,11.33,0,0,0-8,19.35,11.33,11.33,0,1,0,16-16A11.26,11.26,0,0,0,12.86,1.52Z"/><path class="a" d="M12.52,25.66A11.43,11.43,0,0,1,2.28,19.91a16,16,0,0,1-2.1-5.67.73.73,0,0,1,.18-.6.73.73,0,0,1,.57-.26H4.66a.76.76,0,0,1,.76.76v2.17h.73V13a.76.76,0,0,1,.76-.76H8.77V6.41a.76.76,0,0,1,.76-.76h3.3a.76.76,0,0,1,.76.76v7h1.29a.76.76,0,0,1,.76.76V17h1V10.51a.76.76,0,0,1,.76-.76h3.51a.76.76,0,0,1,.76.76v4h3a.79.79,0,0,1,.6.29.77.77,0,0,1,.15.64A14.82,14.82,0,0,1,23,20.54a12.54,12.54,0,0,1-4,3.52A13.28,13.28,0,0,1,12.52,25.66ZM1.86,14.9a15.55,15.55,0,0,0,1.75,4.27,9.84,9.84,0,0,0,8.91,5,11.8,11.8,0,0,0,5.8-1.41,11.16,11.16,0,0,0,3.49-3.1,13.79,13.79,0,0,0,1.9-3.6H20.94a.76.76,0,0,1-.76-.76v-4h-2v6.49a.76.76,0,0,1-.76.76H14.88a.76.76,0,0,1-.76-.76V14.9H12.83a.76.76,0,0,1-.76-.76v-7H10.29V13a.76.76,0,0,1-.76.76H7.68v3.31a.76.76,0,0,1-.77.76H4.66a.76.76,0,0,1-.76-.76V14.9Z"/><path class="a" d="M23,25.94a.76.76,0,0,1-.54-.22L19.79,23a.73.73,0,0,1-.23-.54.76.76,0,0,1,.23-.54l2.3-2.3a.76.76,0,0,1,1.08,0l2.68,2.68a.76.76,0,0,1,.23.54.73.73,0,0,1-.23.54l-2.3,2.31A.76.76,0,0,1,23,25.94ZM21.4,22.49,23,24.1l1.23-1.23-1.61-1.6Z"/><path class="a" d="M30.75,34a2.85,2.85,0,0,1-2-.84l-6.85-6.84a.76.76,0,0,1,0-1.08l3.63-3.63a.76.76,0,0,1,1.08,0l6.84,6.84a2.89,2.89,0,0,1,0,4.07l-.64.64A2.85,2.85,0,0,1,30.75,34Zm-7.26-8.22,6.3,6.3a1.35,1.35,0,0,0,1.91,0l.65-.64a1.36,1.36,0,0,0,0-1.91L26,23.22Z"/></svg>