<svg width="274" height="194" viewBox="0 0 274 194" fill="none" xmlns="http://www.w3.org/2000/svg">
<path d="M230.475 -12.4765H231.475V-13.4765H230.475V-12.4765ZM230.475 63.5816H229.475V64.0475L229.832 64.3473L230.475 63.5816ZM43.8516 51.6092L43.2716 50.7946L42.8516 51.0936V51.6092H43.8516ZM43.8516 127.667L44.4948 128.433L44.8516 128.133V127.667H43.8516ZM138.924 77.6666H137.924V77.9809L138.104 78.2387L138.924 77.6666ZM176.249 131.189H177.249V130.875L177.069 130.617L176.249 131.189ZM134.699 -11.4765H230.475V-13.4765H134.699V-11.4765ZM229.475 -12.4765V63.5816H231.475V-12.4765H229.475ZM229.832 64.3473L265.044 93.9254L266.331 92.394L231.119 62.8159L229.832 64.3473ZM271.026 95.2723C271.026 97.0537 269.582 98.4977 267.8 98.4977V100.498C270.686 100.498 273.026 98.1582 273.026 95.2723H271.026ZM267.8 98.4977C266.019 98.4977 264.575 97.0537 264.575 95.2723H262.575C262.575 98.1582 264.914 100.498 267.8 100.498V98.4977ZM264.575 95.2723C264.575 93.4909 266.019 92.0469 267.8 92.0469V90.0469C264.914 90.0469 262.575 92.3864 262.575 95.2723H264.575ZM267.8 92.0469C269.582 92.0469 271.026 93.4909 271.026 95.2723H273.026C273.026 92.3864 270.686 90.0469 267.8 90.0469V92.0469ZM131.302 -11.8829L43.2716 50.7946L44.4316 52.4238L132.462 -10.2537L131.302 -11.8829ZM42.8516 51.6092V127.667H44.8516V51.6092H42.8516ZM43.2084 126.902L7.9964 156.48L9.28278 158.011L44.4948 128.433L43.2084 126.902ZM9.04806 160.062C9.04806 161.844 7.60398 163.288 5.82261 163.288V165.288C8.70855 165.288 11.0481 162.948 11.0481 160.062H9.04806ZM5.82261 163.288C4.04125 163.288 2.59717 161.844 2.59717 160.062H0.597168C0.597168 162.948 2.93668 165.288 5.82261 165.288V163.288ZM2.59717 160.062C2.59717 158.281 4.04125 156.837 5.82261 156.837V154.837C2.93668 154.837 0.597168 157.176 0.597168 160.062H2.59717ZM5.82261 156.837C7.60398 156.837 9.04806 158.281 9.04806 160.062H11.0481C11.0481 157.176 8.70855 154.837 5.82261 154.837V156.837ZM137.924 -7.54651V77.6666H139.924V-7.54651H137.924ZM138.104 78.2387L175.429 131.761L177.069 130.617L139.744 77.0946L138.104 78.2387ZM175.249 131.189V184.007H177.249V131.189H175.249ZM179.474 188.232C179.474 190.014 178.03 191.458 176.249 191.458V193.458C179.135 193.458 181.474 191.118 181.474 188.232H179.474ZM176.249 191.458C174.468 191.458 173.024 190.014 173.024 188.232H171.024C171.024 191.118 173.363 193.458 176.249 193.458V191.458ZM173.024 188.232C173.024 186.451 174.468 185.007 176.249 185.007V183.007C173.363 183.007 171.024 185.346 171.024 188.232H173.024ZM176.249 185.007C178.03 185.007 179.474 186.451 179.474 188.232H181.474C181.474 185.346 179.135 183.007 176.249 183.007V185.007Z" fill="white" fill-opacity="0.05"/>
</svg>
