<svg xmlns="http://www.w3.org/2000/svg" viewBox="-2512.398 1277.563 89.879 81.036">
  <defs>
    <style>
      .cls-1 {
        fill: #ebf6fd;
      }

      .cls-2 {
        fill: #495772;
      }

      .cls-3 {
        fill: #151c2b;
      }

      .cls-4 {
        fill: #fff;
      }
    </style>
  </defs>
  <g id="commitments" transform="translate(-2512.445 1277.563)">
    <path id="Path_2549" data-name="Path 2549" class="cls-1" d="M123.4,71.425c1.676,2.53,1.708,4.979,1.692,7.46q-.048,24.362-.016,48.707c0,6.01,3.561,10.054,8.846,10.07,5.365.016,9.152-4.173,9.168-10.118.016-4.189.016-4.189,4.205-4.189,9.184,0,18.352-.032,27.52.032,1.676.016,2.24-.371,2.223-2.159-.081-13.5-.016-27-.048-40.49a9.021,9.021,0,0,0-8.894-9.281C153.369,71.377,138.642,71.425,123.4,71.425Z" transform="translate(-103.478 -59.905)"/>
    <path id="Path_2550" data-name="Path 2550" class="cls-2" d="M217.807,148.984h12.906c1.273,0,2.61-.032,2.562-1.772-.048-1.547-1.273-1.611-2.449-1.611H204.45c-1.273,0-2.626.032-2.562,1.772.081,1.74,1.5,1.6,2.723,1.611Z" transform="translate(-169.319 -122.141)"/>
    <path id="Path_2551" data-name="Path 2551" class="cls-2" d="M217.277,212.093H204.371c-1.176,0-2.417.016-2.5,1.547-.1,1.74,1.208,1.821,2.514,1.821h26.376c1.176,0,2.417-.016,2.5-1.547.1-1.74-1.208-1.837-2.513-1.821Z" transform="translate(-169.304 -177.919)"/>
    <path id="Path_2552" data-name="Path 2552" class="cls-2" d="M212.228,281.867h5.881c1.192,0,2.03-.483,1.966-1.8-.048-1.16-.87-1.563-1.917-1.563h-12.31c-1.192,0-2.03.483-1.966,1.8.048,1.16.87,1.563,1.917,1.563Z" transform="translate(-170.99 -233.628)"/>
    <path id="Path_2553" data-name="Path 2553" class="cls-3" d="M5.05,46.648c2.046.048,4.109.064,6.171,0,2.175-.064,2.965.935,2.932,3.029-.064,4.012-.032,8.024,0,12.052.016,1.305-.113,2.642.789,3.754q.048,10.682.1,21.381c.032,8.169,5.414,13.518,13.615,13.518,15.113.016,30.226-.306,45.307.129,8.185.226,15.854-4.624,15.5-14.759,1.1-3.061.29-4.463-2.82-4.769a40.7,40.7,0,0,0-4.205-.064c-4.56-.016-4.56-.016-4.576-4.447-.016-5.607.016-11.214-.016-16.821,0-1.305.113-2.642-.789-3.754-.032-6.284-.064-12.551-.1-18.835C76.927,28.8,71.481,23.253,63.3,23.237q-26.561-.024-53.138,0c-5.736.016-9.152,3.48-9.2,9.313-.016,1.966-.064,3.931-.081,5.9A8,8,0,0,0,.1,41.122C-.234,45.278.877,46.551,5.05,46.648Zm31.805,50.4c2.868-3.239,4.334-6.493,4.076-10.328-.113-1.643.951-1.5,2-1.5,13.7,0,27.407.032,41.1-.032,1.692,0,2,.612,1.982,2.127a9.76,9.76,0,0,1-9.409,9.7C63.57,97.111,50.535,97.047,36.856,97.047ZM16.635,26.621c16.193,0,31.854-.064,47.5.032a9.585,9.585,0,0,1,9.458,9.861c.048,14.34-.016,28.7.064,43.036.016,1.9-.58,2.3-2.368,2.288-9.748-.081-19.5-.032-29.26-.032-4.463,0-4.463,0-4.463,4.447C37.549,92.568,33.5,97.031,27.817,97c-5.607-.016-9.393-4.318-9.393-10.715q0-25.884.016-51.752C18.44,31.905,18.407,29.311,16.635,26.621ZM4.341,32.179c.113-3.3,2.175-5.543,5.108-5.559a5.582,5.582,0,0,1,5.559,5.526c.081,1.772.016,3.561.016,5.333,0,4.9,0,4.9-4.769,4.9-5.929,0-5.929,0-5.929-5.994C4.325,34.983,4.293,33.581,4.341,32.179Z" transform="translate(0 -19.483)"/>
    <path id="Path_2554" data-name="Path 2554" class="cls-1" d="M41.388,59.259c-.048,1.4,0,2.8,0,4.221a17.675,17.675,0,0,0,.274,4.4c.822.081,1.9.081,3.319.081,4.769,0,4.769,0,4.769-4.9,0-1.772.064-3.561-.016-5.333a5.894,5.894,0,0,0-1.515-3.754A5.6,5.6,0,0,0,46.5,53.7C43.563,53.716,41.485,55.94,41.388,59.259Z" transform="translate(-34.662 -45.048)"/>
    <path id="Path_2555" data-name="Path 2555" class="cls-1" d="M258.034,417.132c-1.063,0-2.111-.145-2,1.5a12.77,12.77,0,0,1-2.836,8.813c12.213.016,23.975.064,35.721-.032a9.76,9.76,0,0,0,9.41-9.7c0-.226,0-.435-.016-.612C284.876,417.164,271.455,417.148,258.034,417.132Z" transform="translate(-212.365 -349.896)"/>
    <g id="Group_76" data-name="Group 76" transform="translate(59.993)">
      <circle id="Ellipse_3" data-name="Ellipse 3" class="cls-4" cx="8.829" cy="8.829" r="8.829" transform="translate(1.208 1.208)"/>
      <path id="Path_2556" data-name="Path 2556" class="cls-2" d="M382.138,20.076a10.038,10.038,0,1,1,10.038-10.038A10.05,10.05,0,0,1,382.138,20.076Zm0-17.659a7.621,7.621,0,1,0,7.621,7.621A7.626,7.626,0,0,0,382.138,2.417Z" transform="translate(-372.1)"/>
    </g>
    <path id="Path_2557" data-name="Path 2557" class="cls-2" d="M431.96,29.424l-2.3-1.95V22.528a1.128,1.128,0,0,0-2.256,0v5.607a.059.059,0,0,0,.016.048c0,.016.016.032.016.064a.059.059,0,0,0,.016.048c0,.016.016.032.016.048s.016.032.016.048.016.032.016.048.016.032.032.048c0,.016.016.032.032.048s.016.032.032.048.016.032.032.048.016.032.032.048.016.032.032.048.016.032.032.032l.048.048c.016,0,.016.016.032.016l.016.016h0l2.707,2.288a1.129,1.129,0,0,0,.725.274,1.113,1.113,0,0,0,.87-.4A1.126,1.126,0,0,0,431.96,29.424Z" transform="translate(-358.497 -17.952)"/>
  </g>
</svg>
