<svg xmlns="http://www.w3.org/2000/svg" xmlns:xlink="http://www.w3.org/1999/xlink" viewBox="0 0 99.94 85.59"><defs><style>.a{fill:none;}.b{clip-path:url(#a);}.c{fill:#ecf7fd;}</style><clipPath id="a" transform="translate(0 -7.91)"><path class="a" d="M88,39.53h0l-3.91-2.84L50,12.09,12.28,39.24l-.24.21a4.65,4.65,0,0,0-.67.58h0A4.23,4.23,0,0,0,10.21,43v41.8A4.24,4.24,0,0,0,14.45,89H85.5a4.25,4.25,0,0,0,4.25-4.25V43A4.26,4.26,0,0,0,88,39.53Z"/></clipPath></defs><title>icon.fair.housing</title><g class="b"><path class="c" d="M92.52,44h0l-3.91-2.84L54.47,16.59,16.78,43.74l-.24.21a3.72,3.72,0,0,0-.67.58h0a4.22,4.22,0,0,0-1.17,2.91V89.25A4.25,4.25,0,0,0,19,93.5H90a4.25,4.25,0,0,0,4.25-4.25V47.44A4.22,4.22,0,0,0,92.52,44Z" transform="translate(0 -7.91)"/></g><path d="M99.16,42.91,51.07,8.26a1.88,1.88,0,0,0-2.19,0L.78,42.91A1.87,1.87,0,1,0,3,46l3.49-2.51V84.75a8,8,0,0,0,8,8H85.5a8,8,0,0,0,8-8V43.45L97,46a1.87,1.87,0,0,0,1.1.35,1.87,1.87,0,0,0,1.09-3.39ZM89.75,84.75A4.25,4.25,0,0,1,85.5,89H14.45a4.24,4.24,0,0,1-4.24-4.25V43A4.23,4.23,0,0,1,11.37,40h0a4.65,4.65,0,0,1,.67-.58l.24-.21L50,12.09l34.15,24.6L88,39.53h0A4.26,4.26,0,0,1,89.75,43Z" transform="translate(0 -7.91)"/><path d="M50.18,55.76H64.52c1.42,0,2.9,0,2.85-2C67.32,52.07,66,52,64.65,52H35.32c-1.42,0-2.92,0-2.84,2s1.68,1.78,3,1.78C40.4,55.77,45.29,55.76,50.18,55.76Z" transform="translate(0 -7.91)"/><path d="M49.61,63.9H35.26c-1.3,0-2.68,0-2.78,1.73-.1,1.93,1.34,2,2.79,2H64.59c1.3,0,2.69,0,2.78-1.73.1-1.93-1.34-2-2.79-2Z" transform="translate(0 -7.91)"/></svg>