<svg xmlns="http://www.w3.org/2000/svg" viewBox="0 0 145.69 38"><defs><style>.a{fill:#516676;}</style></defs><title>forbes</title><path class="a" d="M14.81.65h14.1c.43,0,.59.06.61.56.09,2,0,4,.09,6,0,1.16,0,2.27.08,3.41,0,.32-.1.47-.41.53s-.86.45-1.24.27-.32-.73-.47-1.11A14.58,14.58,0,0,0,25,5.74,6.65,6.65,0,0,0,20,3.35c-1.95,0-3.91,0-5.87,0-.37,0-.52.08-.53.47-.05,1.93-.11,3.85-.19,5.77-.12,2.62-.07,5.24-.1,7.87,0,.66,0,.65.65.63,1.1-.06,2.19-.11,3.29-.13a3.51,3.51,0,0,0,1.82-.45,3.63,3.63,0,0,0,1.32-1.32,8.3,8.3,0,0,0,1-2.9c.06-.32.19-.38.47-.38,1.13,0,1.13,0,1.13,1.1V24.73c0,.42-.07.58-.53.56-.95,0-.94,0-1.18-.93A6.19,6.19,0,0,0,19.52,21a3,3,0,0,0-1.83-.76c-1.35-.09-2.69-.13-4-.2-.27,0-.39.05-.39.34,0,2.64,0,5.28.19,7.92A21.47,21.47,0,0,0,14,32.6c.34,1.32.91,2.48,2.39,2.83.66.15,1.34.22,2,.34.21,0,.54,0,.59.22a4.31,4.31,0,0,1,0,1.19c0,.15-.27.12-.43.12H.85c-.27,0-.68.13-.77-.13A3.17,3.17,0,0,1,0,36c0-.18.25-.16.38-.2.55-.12,1.09-.24,1.65-.31a2.82,2.82,0,0,0,2.26-1.8,8.31,8.31,0,0,0,.69-3c.39-5.91.39-11.84.29-17.76C5.27,11,5.16,9.15,5,7.27a8.9,8.9,0,0,0-.6-2.69A3.2,3.2,0,0,0,3.31,3.06a3.32,3.32,0,0,0-1.77-.65,11,11,0,0,0-1.18-.1C.12,2.31,0,2.22,0,2,.06.46-.27.66,1.24.66Z"/><path class="a" d="M144.32,15.28c0,1,0,2,0,3,0,.71-.6.51-.93.67s-.39-.23-.44-.42a11.84,11.84,0,0,0-2.62-4.66,4.93,4.93,0,0,0-1.83-1.18,5,5,0,0,0-2.17-.27,3.54,3.54,0,0,0-3.2,3.84,3.5,3.5,0,0,0,1.49,2.81,21.15,21.15,0,0,0,4.91,2.53,11.94,11.94,0,0,1,4.59,2.92,6.19,6.19,0,0,1,1.54,4,8.65,8.65,0,0,1-1.21,5.21,9.13,9.13,0,0,1-6.11,4,20.63,20.63,0,0,1-7.31,0,21.68,21.68,0,0,1-4.55-1.08.6.6,0,0,1-.34-.24A.62.62,0,0,1,126,36q0-3.45-.14-6.92c0-.24,0-.36.28-.41l.29-.1c.46-.19.69-.11.87.42a14.3,14.3,0,0,0,1.5,3.16,6.59,6.59,0,0,0,3.82,3.15,5.05,5.05,0,0,0,4.19-.42,3.83,3.83,0,0,0-.15-6.54,24.86,24.86,0,0,0-4.14-1.87,11.36,11.36,0,0,1-4.28-2.53,7,7,0,0,1-1.86-5.74c.33-4.12,3.67-6.81,7.36-7.46a19.67,19.67,0,0,1,9.74.85,1.08,1.08,0,0,1,.3.11.76.76,0,0,1,.24.23.83.83,0,0,1,.14.3.92.92,0,0,1,0,.33c-.06.92,0,1.85,0,2.77Z"/><path class="a" d="M62.94,16.09c.28-.48.53-1,.82-1.45a8.77,8.77,0,0,1,4.43-3.89,6.16,6.16,0,0,1,4.64.07c.4.17.56.36.38.82-.79,2.06-1.56,4.14-2.31,6.21-.13.38-.26.42-.62.21a6.88,6.88,0,0,0-6.35-.57,1.74,1.74,0,0,0-.85.64,1.61,1.61,0,0,0-.27,1c-.06,2.91-.11,5.83,0,8.75a37.77,37.77,0,0,0,.36,5.42c.3,1.75,1,2.31,2.73,2.43.38,0,.79.09,1.19.1.24,0,.29.11.29.32,0,1.4.2,1.13-1.06,1.13H52.51c-.24,0-.61.13-.72-.14a2.81,2.81,0,0,1,0-1.19c0-.1.12-.1.21-.12l.57-.1a2.57,2.57,0,0,0,2.63-2.57c.23-1.79.18-3.59.25-5.39.08-2.2.1-4.4,0-6.6a40.69,40.69,0,0,0-.26-4.55c-.31-2-.81-2.53-2.86-2.79-.35,0-.63,0-.62-.54s.11-.65.6-.77c3-.59,6.07-1.21,9.09-1.83l1-.2c.58-.13.6-.1.58.51-.06,1.59-.11,3.17-.17,4.76V16Z"/><path class="a" d="M97.74,17.34a9.84,9.84,0,0,0-12-6.23,13.2,13.2,0,0,0-3,1.2v-.9c0-3.66,0-7.31.13-11,0-.36,0-.53-.46-.41s-.85.17-1.28.25L72,2c-.17,0-.34,0-.39.26-.16.65,0,.92.69,1a2.62,2.62,0,0,1,2.34,1.5,6.86,6.86,0,0,1,.51,2.18c.17,2.22.12,4.44.16,6.66q.08,6.14,0,12.27c-.06,3.49,0,7-.15,10.48,0,.39.13.51.47.58,1.47.29,2.94.59,4.42.77a25,25,0,0,0,8.18,0,12.29,12.29,0,0,0,8.54-6,15.32,15.32,0,0,0,1.92-6.3A17.2,17.2,0,0,0,97.74,17.34ZM89.85,30.85a9.65,9.65,0,0,1-2.18,3.88A4.07,4.07,0,0,1,86,35.83,4.17,4.17,0,0,1,84,36c-1.1-.12-1.09-.12-1.12-1.23-.09-2.72-.14-5.45-.12-8.28-.16-4,0-8,0-12a.41.41,0,0,1,.35-.46,4.86,4.86,0,0,1,4.33.24A6.07,6.07,0,0,1,89.64,17a13.38,13.38,0,0,1,1.16,4.43A23.24,23.24,0,0,1,89.85,30.85Z"/><path class="a" d="M50.66,18.25a10.76,10.76,0,0,0-6.75-7,14.54,14.54,0,0,0-8-.47,11.57,11.57,0,0,0-6.3,3.48A14.08,14.08,0,0,0,26,23.81a19.15,19.15,0,0,0,.77,5.87,11.17,11.17,0,0,0,6.84,7.48,14.17,14.17,0,0,0,6.92.68,11.67,11.67,0,0,0,9.94-7.53A16.72,16.72,0,0,0,50.66,18.25Zm-6.92,6.81a30.61,30.61,0,0,1-.83,7.12,7.53,7.53,0,0,1-1.15,2.55,3.31,3.31,0,0,1-5.51,0,11.62,11.62,0,0,1-1.84-4.65,34.4,34.4,0,0,1-.46-8.6,23,23,0,0,1,.87-5.71,6.91,6.91,0,0,1,1-2.15,3.32,3.32,0,0,1,5.55.22A12.35,12.35,0,0,1,43.3,19a32.51,32.51,0,0,1,.42,6.07Z"/><path class="a" d="M109.22,23c2.41,0,4.83,0,7.24,0h7.28c.42,0,.54-.11.52-.53a19.34,19.34,0,0,0-.54-4.14,10.6,10.6,0,0,0-3.58-5.93,9.71,9.71,0,0,0-6.52-2c-5.41.12-9.25,2.64-11.42,7.6a16,16,0,0,0-1,9.44,12.58,12.58,0,0,0,4.66,7.93,13.45,13.45,0,0,0,14.45.89,11.34,11.34,0,0,0,3.36-2.88c.39-.47-.11-.67-.28-1s-.38-.12-.56,0a8.74,8.74,0,0,1-6.18,1.62,7.75,7.75,0,0,1-6.31-3.76,13.21,13.21,0,0,1-1.71-6.76C108.65,23.08,108.8,23,109.22,23Zm-.5-2.43a14.51,14.51,0,0,1,1.92-6.71,4.09,4.09,0,0,1,1.09-1.18,2.28,2.28,0,0,1,.86-.41,2.17,2.17,0,0,1,1,0,2.15,2.15,0,0,1,.87.36,2.29,2.29,0,0,1,.65.7,9,9,0,0,1,1.22,3.85,21.36,21.36,0,0,1,.22,2.65c0,1,0,1-1,1.07-2.09.07-4.18.11-6.27.18C108.85,21.08,108.68,21,108.72,20.58Z"/></svg>