<svg xmlns="http://www.w3.org/2000/svg" viewBox="0 0 163.51 38"><defs><style>.a{fill:#516676;}</style></defs><title>fortune</title><path class="a" d="M163.51,6.82V.56h-15.3v37h15.3V31.26h-9V21.62h5.86V15.34h-5.86V6.82Z"/><path class="a" d="M0,.56v37H6.26V21.62h5.89V15.34H6.26V6.82h9V.56H0Z"/><path class="a" d="M133.79.56v19.6L127.36.56h-6.3v37h6.3V19.69l5.84,17.84h6.85V.56Z"/><path class="a" d="M76.78.56H71.29V6.82h5.49V37.53h6.28V6.82h5.53V.56H76.78Z"/><path class="a" d="M30.12,0a8.6,8.6,0,0,0-8.6,8.6V29.4a8.6,8.6,0,1,0,17.2,0V8.6A8.59,8.59,0,0,0,30.12,0Zm2.35,29.4a2.32,2.32,0,0,1-4.64,0V8.6a2.32,2.32,0,0,1,4.64,0Z"/><path class="a" d="M107.08,29.22a2.5,2.5,0,1,1-5,0V.56H95.82V29.25a8.75,8.75,0,1,0,17.49,0V.56h-6.26V29.24h0Z"/><path class="a" d="M64.42,16.81V9.16A8.62,8.62,0,0,0,55.81.54H47v37h6.26V6.79h2.52a2.37,2.37,0,0,1,2.37,2.37v5.67a8,8,0,0,1,0,.95v0a5,5,0,0,1-.35,1.42h0a5,5,0,0,1-3.41,2.64c.21,1,.5,2.32.77,3.61h0l3.71,14h6.26l-3.94-15A6.65,6.65,0,0,0,64.42,16.81Z"/></svg>