<svg xmlns="http://www.w3.org/2000/svg" viewBox="0 0 803.17 622.03"><defs><style>.a{fill:#ebf6fd;}.b{fill:#fff;}.c{fill:#231f20;}</style></defs><title>Asset 18</title><path class="a" d="M70,108V547.28a80.49,80.49,0,0,0,10,.65H679.08a80.24,80.24,0,0,0,80-80V80a80.51,80.51,0,0,0-.91-12H110A40.12,40.12,0,0,0,70,108Z"/><path d="M679.08,28a52.24,52.24,0,0,1,52,52V467.93a52.24,52.24,0,0,1-52,52H80a52.24,52.24,0,0,1-52-52V80A52.24,52.24,0,0,1,80,28H679.08m0-28H80A80.24,80.24,0,0,0,0,80V467.93a80.24,80.24,0,0,0,80,80H679.08a80.24,80.24,0,0,0,80-80V80a80.24,80.24,0,0,0-80-80Z"/><rect x="22.46" y="326.03" width="408.19" height="100"/><rect x="103.64" y="122.03" width="73" height="52" rx="20" ry="20"/><rect x="203.8" y="122.03" width="73" height="52" rx="20" ry="20"/><rect x="303.96" y="122.03" width="73" height="52" rx="20" ry="20"/><rect x="404.12" y="122.03" width="73" height="52" rx="20" ry="20"/><path class="b" d="M586.64,169c-68,85-201.52,66-201.52,66,0,281,146.52,372,201.52,372s201.53-91,201.53-372C788.17,235,654.64,254,586.64,169Z"/><path d="M586.64,622c-34,0-88.4-26.78-133.37-86.61-25-33.31-44.81-73.47-58.75-119.36-16.19-53.3-24.4-114.2-24.4-181V217.75l17.11,2.43a287.11,287.11,0,0,0,71.85-1.24c51.28-7.34,90.26-27.29,115.85-59.28L586.64,145l11.72,14.64c25.73,32.16,65,52.15,116.63,59.39,39.33,5.52,70.75,1.18,71.06,1.13l17.12-2.43V235c0,66.83-8.21,127.73-24.4,181C764.83,462,745.06,502.11,720,535.42c-20.79,27.66-45.33,50.43-70.95,65.85C626.83,614.66,604.66,622,586.64,622ZM400.3,251.4c1.77,80.5,17.34,186.7,76.95,266,22.55,30,70.3,74.64,109.39,74.64,12.28,0,29.83-6.15,47-16.46C656,562.12,677.54,542,696,517.39c59.61-79.29,75.18-185.49,77-266a328,328,0,0,1-62.17-2.64c-51.56-7.23-94.1-26.9-124.18-57.22-30.07,30.32-72.62,50-124.17,57.22A328,328,0,0,1,400.3,251.4Z"/><path class="a" d="M770.56,275.49c-26.92-2.51-59-9.12-88.55-24.63a276.54,276.54,0,0,1-27.61-16.3c-9.07-3.37-24.26-10.2-32.59-15.7-1.9,1.84-2.67,2.84-4.11,4.4C547.06,291.81,429.12,275,429.12,275c0,109.63,22.3,190.34,52.77,248,38.63,49.44,82.52,69,106.75,69C637.05,592,763.89,514,770.56,275.49Z"/><path class="c" d="M638.21,386.27a14,14,0,0,1,14.06,14.07v56.25a14,14,0,0,1-14.06,14.06H535.08A14,14,0,0,1,521,456.59V400.34a14,14,0,0,1,14.06-14.07h7V365.18a43.25,43.25,0,0,1,6-22.27,44.79,44.79,0,0,1,16.26-16.26,44.31,44.31,0,0,1,44.53,0,44.79,44.79,0,0,1,16.26,16.26,43.34,43.34,0,0,1,6,22.27v21.09Zm-30.47,0V365.18a21.1,21.1,0,1,0-42.19,0v21.09Z"/></svg>