<svg xmlns="http://www.w3.org/2000/svg" viewBox="0 0 555.14 757.23"><defs><style>.a{fill:#231f20;}.b{fill:#ecf8fe;}.c{fill:#fff;}</style></defs><title>Asset 20</title><path class="a" d="M196.4,373.83l108,50L176.56,700.34l-29.81-43.06-9.5-13.72-16.6,1.65-52.13,5.17L196.4,373.83m-13.83-37.62L22,683.48l101.45-10.07,58,83.82L342.06,410,182.57,336.21Z"/><path class="a" d="M357.53,373.83,485.42,650.38l-52.13-5.17-16.6-1.65-9.5,13.72-29.81,43.06L249.49,423.79l108-50m13.83-37.62L211.88,410,372.46,757.23l58-83.82L532,683.48,371.36,336.21Z"/><polygon class="b" points="226.4 393.83 109.66 646.3 120.64 645.21 137.25 643.56 146.75 657.28 152.13 665.06 167.25 663.56 176.75 677.28 183.03 686.36 302.11 428.84 226.4 393.83"/><polygon class="b" points="394.77 454.36 309.5 493.79 393.94 676.41 407.19 657.28 416.69 643.56 433.29 645.21 485.42 650.38 394.77 454.36"/><path class="c" d="M541,266.39c0,26.89-31.91,48.4-39.79,72.66-8.16,25.14,4.72,61.25-10.51,82.18-15.38,21.14-53.8,20-74.94,35.35C394.8,471.81,384.12,508.8,359,517c-24.26,7.88-54.53-15.51-81.41-15.51S220.42,524.84,196.16,517c-25.15-8.16-35.82-45.15-56.75-60.38-21.14-15.38-59.56-14.21-74.95-35.35-15.23-20.93-2.34-57-10.51-82.18-7.87-24.26-39.78-45.77-39.78-72.66S46.08,218,54,193.73c8.17-25.14-4.72-61.25,10.51-82.18,15.39-21.13,53.81-20,75-35.35C160.34,61,171,24,196.16,15.82c24.25-7.88,54.52,15.51,81.41,15.51S334.72,7.94,359,15.82C384.12,24,394.8,61,415.73,76.2c21.14,15.39,59.56,14.22,74.94,35.35,15.23,20.93,2.35,57,10.51,82.18C509.06,218,541,239.51,541,266.39Z"/><path class="b" d="M541,266.39c0-26.88-31.91-48.4-39.79-72.66-5.14-15.84-1.93-36-2.66-54-12-3.5-23.91-7-32.79-13.5-13-9.48-22.09-27.39-33.13-41.53a68,68,0,0,1-16.87-8.47,63.07,63.07,0,0,1-11.68-11.55C380.7,61,352.66,81.33,327.57,81.33c-26.89,0-57.16-23.39-81.41-15.51C221,74,210.34,111,189.41,126.2c-21.14,15.39-59.56,14.22-74.95,35.35-15.23,20.93-2.34,57-10.51,82.18C96.08,268,64.17,289.51,64.17,316.39s31.91,48.4,39.78,72.66c5.15,15.84,1.94,36,2.67,54,12,3.5,23.91,7,32.79,13.5,13,9.48,22.08,27.39,33.13,41.53a68.7,68.7,0,0,1,16.87,8.47,63.7,63.7,0,0,1,11.68,11.55c23.35,3.69,51.38-16.68,76.48-16.68,26.88,0,57.15,23.39,81.41,15.51,25.14-8.16,35.82-45.15,56.75-60.38,21.14-15.38,59.56-14.21,74.94-35.35,15.23-20.93,2.35-57,10.51-82.18C509.06,314.79,541,293.28,541,266.39Z"/><path class="a" d="M348.1,532.78c-13.25,0-26.42-4.7-39.28-9.29-11.36-4-22.08-7.87-31.25-7.87s-19.9,3.82-31.25,7.87c-17.79,6.35-36.17,12.91-54.54,7C172.67,524.23,161,507,150.64,491.76c-6.53-9.63-12.7-18.73-19.57-23.72s-17.69-8.23-29-11.53C84.55,451.4,64.67,445.6,53,429.57c-11.56-15.88-11-36.47-10.45-54.64.34-11.86.65-23.06-2.09-31.5-2.54-7.84-9.18-16.38-16.22-25.42C12.88,303.4,0,286.84,0,266.39s12.89-37,24.25-51.62c7-9,13.68-17.58,16.23-25.41,2.73-8.44,2.42-19.65,2.08-31.51C42,139.68,41.45,119.09,53,103.22c11.66-16,31.54-21.84,49.07-26.95,11.3-3.3,22-6.42,29-11.52s13-14.1,19.57-23.73C161,25.8,172.67,8.55,191.78,2.34c18.36-6,36.75.6,54.54,7,11.35,4.05,22.08,7.87,31.25,7.87s19.89-3.82,31.25-7.87C326.6,2.94,345-3.62,363.36,2.34,382.47,8.55,394.17,25.8,404.49,41c6.54,9.63,12.71,18.73,19.58,23.72s17.69,8.23,29,11.53c17.53,5.11,37.4,10.91,49.07,26.94s11,36.47,10.45,54.64c-.34,11.86-.66,23.07,2.08,31.51,2.54,7.83,9.19,16.37,16.22,25.41,11.37,14.61,24.26,31.17,24.26,51.62s-12.89,37-24.26,51.62c-7,9-13.68,17.58-16.22,25.42-2.74,8.43-2.42,19.64-2.08,31.5.52,18.17,1.1,38.76-10.45,54.64-11.67,16-31.54,21.83-49.07,26.94-11.3,3.3-22,6.42-29,11.53s-13,14.09-19.58,23.72c-10.32,15.22-22,32.47-41.13,38.68A49.06,49.06,0,0,1,348.1,532.78Zm-70.53-45.5c14.07,0,27.65,4.84,40.77,9.52,13.93,5,27.08,9.67,36.27,6.68,9.86-3.2,17.91-15.06,26.43-27.63,7.61-11.22,15.48-22.82,26.35-30.73s24.59-12,37.73-15.81c14.46-4.22,28.12-8.21,34.09-16.42,5.87-8.06,5.47-22.19,5-37.16-.39-13.74-.8-28,3.45-41.05,4.08-12.57,12.59-23.5,20.81-34.07,9.41-12.08,18.29-23.5,18.29-34.22s-8.88-22.14-18.29-34.22c-8.22-10.57-16.73-21.5-20.81-34.06-4.25-13.1-3.84-27.32-3.45-41.06.43-15,.83-29.1-5-37.16s-19.63-12.2-34.09-16.42c-13.14-3.83-26.71-7.79-37.73-15.81C396.52,79.75,388.65,68.15,381,56.93c-8.52-12.56-16.57-24.43-26.43-27.63-9.18-3-22.34,1.71-36.27,6.68-13.12,4.68-26.69,9.52-40.77,9.52S249.92,40.66,236.8,36c-13.93-5-27.09-9.66-36.27-6.68-9.87,3.2-17.91,15.07-26.43,27.63-7.62,11.22-15.49,22.82-26.36,30.73s-24.59,12-37.72,15.81c-14.46,4.22-28.12,8.21-34.1,16.42s-5.46,22.19-5,37.16c.39,13.74.79,28-3.46,41.06-4.08,12.56-12.58,23.49-20.81,34.06-9.4,12.08-18.28,23.5-18.28,34.22s8.88,22.14,18.28,34.22c8.23,10.57,16.73,21.5,20.81,34.07,4.25,13.09,3.85,27.31,3.46,41.06-.43,15-.83,29.09,5,37.15,6,8.21,19.64,12.2,34.1,16.42,13.13,3.83,26.71,7.8,37.73,15.81,10.86,7.91,18.73,19.51,26.35,30.73,8.52,12.57,16.56,24.43,26.43,27.63,9.18,3,22.34-1.71,36.27-6.68C249.92,492.12,263.49,487.28,277.57,487.28Z"/><circle class="c" cx="277.62" cy="266.25" r="142"/><path class="a" d="M277.57,436.68c-93.9,0-170.29-76.39-170.29-170.29S183.67,96.1,277.57,96.1s170.29,76.39,170.29,170.29S371.47,436.68,277.57,436.68Zm0-312.24c-78.27,0-141.95,63.68-141.95,142s63.68,142,142,142,142-63.68,142-141.95S355.84,124.44,277.57,124.44Z"/><path class="b" d="M307.62,154.25A142,142,0,0,0,193.34,380.53,142,142,0,0,0,391.9,182,141.36,141.36,0,0,0,307.62,154.25Z"/><path class="a" d="M205.61,278.35a8.09,8.09,0,0,1,0-11l11.26-11A6.8,6.8,0,0,1,222.2,254a7.73,7.73,0,0,1,5.63,2.43l34.1,34.1L335,217.46a7.75,7.75,0,0,1,5.64-2.43,6.78,6.78,0,0,1,5.32,2.43l11.27,11a8.11,8.11,0,0,1,0,11l-89.81,89.51a7.37,7.37,0,0,1-11,0Z"/></svg>