<svg xmlns="http://www.w3.org/2000/svg" viewBox="-2515 1736.992 81.666 69.908">
  <defs>
    <style>
      .cls-1 {
        fill: #ecf7fd;
      }
    </style>
  </defs>
  <g id="handshake" transform="translate(-2514.999 1736.992)">
    <path id="Path_2558" data-name="Path 2558" class="cls-1" d="M85.126,58q-4.52,5-8.967,9.947c-2.984,3.306-5.954,6.627-8.952,9.962,3.116,3.394,7.475,6.539,12.1,7.139a17.489,17.489,0,0,0,15.8-5.793c2.077-2.223,4.3-4.3,6.553-6.363a8.758,8.758,0,0,1,2.545-1.463,4.646,4.646,0,0,1,5.369,1.039q5.134,5.025,10.137,10.152a3.442,3.442,0,0,1,.614,3.774,2.893,2.893,0,0,1-2.97,1.9c-1.916.015-3.818,0-5.881,0v5.734a3.016,3.016,0,0,1-3.247,3.335c-1.551.029-3.116.015-4.666.015h-1.1c-.015.366-.059.673-.059.98,0,1.551.015,3.116,0,4.666-.029,2.267-1.185,3.408-3.438,3.408-1.8,0-3.584.015-5.383.015-.059,0-.1.044-.249.117v5.4c0,1.726-.629,2.809-1.916,3.335a3.962,3.962,0,0,1-4.1-.951Q73.716,100.37,60.1,86.407c-2.472-2.531-4.593-5.251-5.529-8.748A17.209,17.209,0,0,1,61,59.287c6.8-5.251,16.047-6.436,23.332-1.829A6.338,6.338,0,0,1,85.126,58Z" transform="translate(-46.069 -46.604)"/>
    <path id="Path_2559" data-name="Path 2559" class="cls-1" d="M257.24,80.593c-3.876-3.8-5.749-6.085-9.728-9.757-4.154-3.847-9.143-7.153-14.35-3.979a38,38,0,0,0-8.528,7.738,12.193,12.193,0,0,1-7.709,4.432c-2.326.293-3.087,1.3-5.325.234.6-.688,1.141-1.331,1.711-1.96,4.666-5.193,9.289-10.43,14.028-15.564a17.1,17.1,0,0,1,8.6-4.871c8.44-2.063,15.886-.278,21.708,6.349,4.4,5.017,1.975,10.737-.278,17.056A1.736,1.736,0,0,1,257.24,80.593Z" transform="translate(-180.648 -47.855)"/>
    <path id="Path_2560" data-name="Path 2560" d="M385.937,222.722l3.774,3.774c.775.761,1.609.995,2.414.1a1.483,1.483,0,0,0-.234-2.238c-2.633-2.633-5.266-5.281-7.9-7.914-.761-.761-1.609-.995-2.414-.1a1.483,1.483,0,0,0,.234,2.238C383.172,219.972,384.562,221.347,385.937,222.722Z" transform="translate(-325.406 -184.206)"/>
    <path id="Path_2561" data-name="Path 2561" d="M81.566,20.626A21.4,21.4,0,0,0,72.379,4.857,24.814,24.814,0,0,0,57.532.044a26.3,26.3,0,0,0-15.052,4.74,2.813,2.813,0,0,1-1.638.585,2.693,2.693,0,0,1-1.594-.57A25.878,25.878,0,0,0,24.238,0a25.28,25.28,0,0,0-16.9,6.451C1.169,11.98-1.127,18.958.511,27.164c.775,3.92,2.838,7.563,6.3,11.147C13.75,45.479,20.83,52.734,27.661,59.756l.088.088c2.458,2.516,4.915,5.047,7.373,7.563a8.044,8.044,0,0,0,5.4,2.487c.146.015.307.015.453.015h0a7.8,7.8,0,0,0,7.563-6.729,2.545,2.545,0,0,1,2.458-2.531,7.016,7.016,0,0,0,5.573-3.628,15.239,15.239,0,0,0,1.053-2.735q.241-.768.527-1.58l.351-.965,1.024-.088c3.964-.336,6.612-2.9,7.241-7.036a2.351,2.351,0,0,1,2.253-2.15A7.551,7.551,0,0,0,75.1,38.311a10.176,10.176,0,0,1,1.141-1.668A20.873,20.873,0,0,0,81.566,20.626Zm-9.143,15.8a4.5,4.5,0,0,1-4.462,2.97c-.775,0-1.551.015-2.326.015H64.173L63.7,38.94,58.468,33.7l-.219-.219a5.532,5.532,0,0,0-.834-.731c-.029.015-.044.044-.088.073a.688.688,0,0,0-.146.161,5.051,5.051,0,0,0,.731.848l3.555,3.555.892.892.848.848.468.483v3.964a4.615,4.615,0,0,1-4.827,4.944c-.556.015-1.156.015-1.872.015h-.132L49.6,41.3c-.761-.761-1.609-.995-2.414-.1a1.483,1.483,0,0,0,.234,2.238c1.375,1.375,2.75,2.75,4.125,4.14l3.057,3.057c0,.658,0,1.317-.015,1.975-.044,3.174-1.872,5-5.047,5.017H48.082c-2.458-2.472-4.93-4.93-7.4-7.4-.761-.761-1.609-.995-2.414-.1a1.483,1.483,0,0,0,.234,2.238c1.375,1.375,2.75,2.75,4.125,4.14.965.965,1.916,1.931,2.882,2.882v2.18c0,3.013-1.594,4.286-2.926,4.827a4.808,4.808,0,0,1-1.843.351,5.765,5.765,0,0,1-4.023-1.668L28.8,56.933l-.146-.161c-6.29-6.466-12.8-13.151-19.207-19.7A21.736,21.736,0,0,1,3.51,27.6a18.685,18.685,0,0,1,.366-11.044A19.7,19.7,0,0,1,10.531,7.5,22.774,22.774,0,0,1,24.384,2.882a22.5,22.5,0,0,1,12.1,3.438,6.242,6.242,0,0,1,.6.424c.073.059.161.117.249.19l1.463,1.053-4.125,4.579c-2.033,2.253-4.037,4.476-6.056,6.714q-3.116,3.467-6.246,6.948l-1.741,1.858a16.185,16.185,0,0,0,9.391,4.871,20.136,20.136,0,0,0,2.443.161,15.778,15.778,0,0,0,12-5.471c2.209-2.355,4.593-4.564,6.656-6.451a10.2,10.2,0,0,1,3.013-1.77,6.994,6.994,0,0,1,2.648-.556A6.359,6.359,0,0,1,61.247,20.8c3.277,3.2,6.7,6.627,10.181,10.2A4.925,4.925,0,0,1,72.423,36.424Zm5.164-7.256c-.336.922-.878,1.39-1.638,1.39a.966.966,0,0,1-.2-.015l-.556-.059-.395-.395c-1.185-1.156-2.37-2.34-3.525-3.5-2.589-2.589-5.281-5.252-8-7.782a9.537,9.537,0,0,0-6.539-2.823,11.17,11.17,0,0,0-5.793,1.829,36.307,36.307,0,0,0-8.1,7.387,13.651,13.651,0,0,1-8.674,4.944,15.993,15.993,0,0,1-1.843.117,13.141,13.141,0,0,1-5.807-1.346L24.6,28l1.39-1.594c.176-.2.336-.395.512-.585l.044-.059c.395-.453.775-.892,1.17-1.331,1.3-1.448,2.589-2.9,3.891-4.345,3.277-3.672,6.67-7.46,10.079-11.147a18.448,18.448,0,0,1,9.362-5.31,28.03,28.03,0,0,1,6.7-.848,21.189,21.189,0,0,1,16.471,7.665,18.077,18.077,0,0,1,4.388,8.85A19.284,19.284,0,0,1,77.587,29.168Z" transform="translate(0)"/>
  </g>
</svg>
