<svg xmlns="http://www.w3.org/2000/svg" xmlns:xlink="http://www.w3.org/1999/xlink" viewBox="0 0 801.07 541.99"><defs><style>.a{fill:none;}.b{clip-path:url(#a);}.c{fill:#ebf6fd;}.d{fill:#231f20;}</style><clipPath id="a"><path class="a" d="M770.07,259.89v197c0,15.79-5.58,28.71-13.88,32.15-8,3.31-19.84-2.09-32.55-14.8C716.77,467.42,673,426.74,614.79,373v0l-30-28.12V458a35,35,0,0,1-35,35H64.43a35,35,0,0,1-35-35V65.81a35,35,0,0,1,35-35H549.79a35,35,0,0,1,35,35V177.72l30-27.86v-.08C673,96,716.77,55.33,723.64,48.46c12.71-12.71,24.58-18.1,32.55-14.8,8.3,3.44,13.88,16.36,13.88,32.15Z"/></clipPath></defs><title>Asset 17</title><path d="M768.25,5.13C756.64.33,732.73-3.3,703,26.43c-5.81,5.82-40.12,37.71-87.64,81.67V65a65.07,65.07,0,0,0-65-65H65A65.08,65.08,0,0,0,0,65V457.17a65.08,65.08,0,0,0,65,65H550.36a65.07,65.07,0,0,0,65-65V413c47.52,44,81.83,75.86,87.64,81.67,29.73,29.73,53.64,26.11,65.25,21.3,20-8.27,32.4-31.21,32.4-59.87V65C800.65,36.35,788.23,13.41,768.25,5.13Zm2.4,254v197c0,15.8-5.58,28.72-13.88,32.16-8,3.3-19.85-2.09-32.56-14.8-6.86-6.87-50.67-47.55-108.85-101.32v0l-30-28.13V457.17a35,35,0,0,1-35,35H65a35,35,0,0,1-35-35V65A35,35,0,0,1,65,30H550.36a35,35,0,0,1,35,35V176.91l30-27.86V149c58.18-53.78,102-94.46,108.85-101.33,12.71-12.7,24.58-18.1,32.56-14.79,8.3,3.44,13.88,16.36,13.88,32.15Z"/><g class="b"><path class="c" d="M801.07,308.89v197c0,15.79-5.58,28.71-13.88,32.15-8,3.31-19.84-2.09-32.55-14.8C747.77,516.42,704,475.74,645.79,422v0l-30-28.12V507a35,35,0,0,1-35,35H95.43a35,35,0,0,1-35-35V114.81a35,35,0,0,1,35-35H580.79a35,35,0,0,1,35,35V226.72l30-27.86v-.08C704,145,747.77,104.33,754.64,97.46c12.71-12.71,24.58-18.1,32.55-14.8,8.3,3.44,13.88,16.36,13.88,32.15Z"/></g><path class="d" d="M299.55,317.65h-24.3V274.3H233.7v43.35H209.4V214.15h24.3v40h41.55v-40h24.3Z"/><path class="d" d="M393.45,305.35c-8.55,7.2-21.9,12.3-39.9,12.3h-35.1V214.15h35.1c18,0,31.35,5.1,39.9,12.45s16.8,19.2,16.8,39.3S402.15,298,393.45,305.35ZM376.5,241.6c-4.35-4-11.55-7.35-21.6-7.35H342.6V297.1h12.3c10.05,0,17.25-3.3,21.6-7.5s9.15-11,9.15-23.7S380.85,245.8,376.5,241.6Z"/></svg>