<svg xmlns="http://www.w3.org/2000/svg" viewBox="0 0 40 33.96"><defs><style>.a{fill:#3a4854;}</style></defs><title>home</title><path class="a" d="M39.69,14,20.44.14a.76.76,0,0,0-.88,0L.31,14a.8.8,0,0,0-.2.21.94.94,0,0,0-.1.28.71.71,0,0,0,0,.29.66.66,0,0,0,.12.27.85.85,0,0,0,.22.2.79.79,0,0,0,.27.1.93.93,0,0,0,.29,0,.83.83,0,0,0,.27-.12l1.4-1V30.76A3.18,3.18,0,0,0,3.52,33,3.22,3.22,0,0,0,5.79,34H34.22a3.21,3.21,0,0,0,3.2-3.2V14.23l1.39,1a.78.78,0,0,0,.56.13.75.75,0,0,0,.49-.3A.8.8,0,0,0,40,14.5.75.75,0,0,0,39.69,14ZM23.31,32.46H15.89V20.65c0-1.32,1.66-2.4,3.71-2.4s3.71,1.08,3.71,2.4Zm11.92-19.8a1.64,1.64,0,0,1,.51.6,1.71,1.71,0,0,1,.18.77V30.76a1.7,1.7,0,0,1-.5,1.2,1.68,1.68,0,0,1-1.2.5H24.81V20.65a3.56,3.56,0,0,0-1.77-3,6.46,6.46,0,0,0-3.44-.94,6.38,6.38,0,0,0-3.44.95,3.53,3.53,0,0,0-1.77,2.95V32.46H5.79a1.69,1.69,0,0,1-1.7-1.7V14a1.67,1.67,0,0,1,.46-1.16,1.18,1.18,0,0,1,.27-.23l.1-.09L20,1.67l13.67,9.85Z"/></svg>
