<svg xmlns="http://www.w3.org/2000/svg" viewBox="0 0 99.63 80.5"><defs><style>.a{fill:#ebf7fd;}</style></defs><title>icon.laws</title><rect class="a" x="24.25" y="51.54" width="28.62" height="3.53" rx="1.67" ry="1.67" transform="translate(48.62 -21.96) rotate(45)"/><path class="a" d="M11.61,73.94H46.28a.76.76,0,0,1,.76.76v3.56a0,0,0,0,1,0,0H10.85a0,0,0,0,1,0,0V74.7A.76.76,0,0,1,11.61,73.94Z"/><path d="M49.1,87.05V82.71a4.36,4.36,0,0,0-4.35-4.35H9.31A4.36,4.36,0,0,0,5,82.71v4.34H.37v3.76H53.53V87.05ZM8.72,82.71a.59.59,0,0,1,.59-.59H44.75a.59.59,0,0,1,.59.59v4H8.72Z" transform="translate(-0.37 -10.31)"/><path class="a" d="M56.6,62.62h45.27a2.55,2.55,0,0,1,2.55,2.55v.14a2.55,2.55,0,0,1-2.55,2.55H56.6a0,0,0,0,1,0,0V62.62A0,0,0,0,1,56.6,62.62Z" transform="translate(69.35 -48.13) rotate(45)"/><path class="a" d="M66.47,33.05h0L56.8,23.35s-5.7,2.94-13.09,10.33a77.63,77.63,0,0,0-7.48,8.62L50.77,56.77a77.57,77.57,0,0,0,8.61-7.47c7.39-7.39,10.33-13.09,10.33-13.09Z" transform="translate(-0.37 -10.31)"/><rect class="a" x="54.25" y="22.97" width="28.79" height="3.53" rx="1.67" ry="1.67" transform="translate(37.23 -51.6) rotate(45)"/><path d="M98.39,77.75l-32-32a63.65,63.65,0,0,0,5.29-7.24,5.7,5.7,0,0,0,6.77-1l.08-.09a5.7,5.7,0,0,0,0-8.07L61.13,12a5.72,5.72,0,0,0-8.08,0l-.08.08a5.7,5.7,0,0,0-1.21,6.27,66.9,66.9,0,0,0-12.27,9.79A67.69,67.69,0,0,0,30,39.9a5.72,5.72,0,0,0-6.82,1l-.08.08a5.7,5.7,0,0,0,0,8.07L40.45,66.36a5.72,5.72,0,0,0,8.08,0l.08-.08a5.74,5.74,0,0,0,1.26-6.17,61.61,61.61,0,0,0,7.52-5.46L89.44,86.7a5.5,5.5,0,0,0,7.8,0l1.15-1.14A5.53,5.53,0,0,0,98.39,77.75Zm-42.76-63,.08-.09a2,2,0,0,1,2.76,0L75.83,32a2,2,0,0,1,0,2.76l-.09.08a2,2,0,0,1-2.76,0L55.63,17.47A1.94,1.94,0,0,1,55.63,14.72ZM42.15,30.78a61.84,61.84,0,0,1,12-9.48L68.77,35.93A63,63,0,0,1,59.4,47.71a62.73,62.73,0,0,1-11.87,9.42L32.86,42.45A62.7,62.7,0,0,1,42.15,30.78ZM46,63.62l-.08.08a2,2,0,0,1-2.76,0L25.75,46.35a2,2,0,0,1,0-2.76l.09-.09a2,2,0,0,1,2.76,0L46,60.86A2,2,0,0,1,46,63.62ZM95.73,82.9l-1.14,1.15a1.79,1.79,0,0,1-2.5,0L60.24,52.19l3.63-3.64L95.73,80.41A1.76,1.76,0,0,1,95.73,82.9Z" transform="translate(-0.37 -10.31)"/></svg>