<svg xmlns="http://www.w3.org/2000/svg" xmlns:xlink="http://www.w3.org/1999/xlink" viewBox="0 0 100 85.64"><defs><style>.a{fill:none;}.b{clip-path:url(#a);}.c{fill:#ecf7fd;}.d{fill:#fff;}</style><clipPath id="a" transform="translate(0 -7.26)"><path class="a" d="M88.08,38.9h0l-3.92-2.84L50,11.44,12.29,38.61l-.24.21a4.17,4.17,0,0,0-.67.58h0a4.24,4.24,0,0,0-1.17,2.92V84.15a4.25,4.25,0,0,0,4.25,4.25H36V58.89A8.89,8.89,0,0,1,40.4,51.5a16.85,16.85,0,0,1,17.2,0A8.9,8.9,0,0,1,62,58.89V88.4H85.55a4.25,4.25,0,0,0,4.25-4.25V42.32A4.26,4.26,0,0,0,88.08,38.9Z"/></clipPath></defs><title>icon.listing.new</title><path d="M99.22,42.28,51.1,7.61a1.89,1.89,0,0,0-2.2,0L.78,42.28a1.88,1.88,0,1,0,2.19,3l3.49-2.52V84.15a8,8,0,0,0,8,8H85.55a8,8,0,0,0,8-8V42.83L97,45.33a1.91,1.91,0,0,0,1.09.35,1.88,1.88,0,0,0,1.1-3.4ZM58.29,88.4H39.72V58.89c0-3.31,4.15-6,9.28-6s9.29,2.69,9.29,6ZM88.08,38.9h0a4.26,4.26,0,0,1,1.72,3.42V84.15a4.25,4.25,0,0,1-4.25,4.25H62V58.89A8.9,8.9,0,0,0,57.6,51.5a16.85,16.85,0,0,0-17.2,0A8.89,8.89,0,0,0,36,58.89V88.4H14.46a4.25,4.25,0,0,1-4.25-4.25V42.32a4.24,4.24,0,0,1,1.17-2.92h0a4.17,4.17,0,0,1,.67-.58l.24-.21L50,11.44,84.16,36.06Z" transform="translate(0 -7.26)"/><g class="b"><path class="c" d="M92.58,43.4h0l-3.92-2.84L54.5,15.94,16.79,43.11l-.24.21a4.17,4.17,0,0,0-.67.58h0a4.24,4.24,0,0,0-1.17,2.92V88.65A4.25,4.25,0,0,0,19,92.9H40.47V63.39A8.89,8.89,0,0,1,44.9,56a16.85,16.85,0,0,1,17.2,0,8.9,8.9,0,0,1,4.44,7.39V92.9H90.05a4.25,4.25,0,0,0,4.25-4.25V46.82A4.26,4.26,0,0,0,92.58,43.4Z" transform="translate(0 -7.26)"/></g><circle class="d" cx="71.86" cy="16.48" r="9.82"/><path d="M71.86,34.91A11.17,11.17,0,1,1,83,23.74,11.18,11.18,0,0,1,71.86,34.91Zm0-19.64a8.48,8.48,0,1,0,8.47,8.47A8.48,8.48,0,0,0,71.86,15.27Z" transform="translate(0 -7.26)"/><rect x="70.61" y="10.23" width="2.5" height="12.5" rx="1.25" ry="1.25"/><rect x="70.61" y="17.49" width="2.5" height="12.5" rx="1.25" ry="1.25" transform="translate(95.6 -55.37) rotate(90)"/></svg>