<?xml version="1.0" encoding="utf-8"?>
<!-- Generator: Adobe Illustrator 22.0.1, SVG Export Plug-In . SVG Version: 6.00 Build 0)  -->
<svg version="1.1" id="Layer_1" xmlns="http://www.w3.org/2000/svg" xmlns:xlink="http://www.w3.org/1999/xlink" x="0px" y="0px"
	 viewBox="0 0 100 85.6" style="enable-background:new 0 0 100 85.6;" xml:space="preserve">
<style type="text/css">
	.st0{clip-path:url(#SVGID_2_);}
	.st1{fill:#ECF7FD;}
	.st2{fill:#FFFFFF;}
</style>
<title>icon.listing.new</title>
<path d="M99.2,35L51.1,0.3c-0.7-0.5-1.5-0.5-2.2,0L0.8,35c-0.9,0.5-1.3,1.6-0.8,2.5c0.5,0.9,1.6,1.3,2.5,0.8C2.7,38.3,2.8,38.2,3,38
	l3.5-2.5v41.4c0,4.4,3.6,8,8,8h71.1c4.4,0,8-3.6,8-8V35.6l3.4,2.5c0.3,0.2,0.7,0.3,1.1,0.3c1,0,1.9-0.8,1.9-1.9
	C100,35.9,99.7,35.4,99.2,35L99.2,35z M58.3,81.1H39.7V51.6c0-3.3,4.2-6,9.3-6s9.3,2.7,9.3,6V81.1z M88.1,31.6L88.1,31.6
	c1.1,0.8,1.7,2.1,1.7,3.4v41.8c0,2.3-1.9,4.2-4.2,4.2l0,0H62V51.6c-0.1-3.1-1.8-5.8-4.4-7.4c-5.3-3.1-11.9-3.1-17.2,0
	c-2.6,1.5-4.3,4.3-4.4,7.4v29.5H14.5c-2.3,0-4.2-1.9-4.2-4.2l0,0V35.1c0-1.1,0.4-2.1,1.2-2.9l0,0c0.2-0.2,0.4-0.4,0.7-0.6l0.2-0.2
	L50,4.2l34.2,24.6L88.1,31.6z"/>
<g>
	<defs>
		<path id="SVGID_1_" d="M88.1,31.6L88.1,31.6l-3.9-2.8L50,4.2L12.3,31.4l-0.2,0.2c-0.2,0.2-0.5,0.4-0.7,0.6l0,0
			c-0.7,0.8-1.2,1.8-1.2,2.9v41.8c0,2.3,1.9,4.2,4.2,4.2l0,0H36V51.6c0.1-3.1,1.8-5.8,4.4-7.4c5.3-3.1,11.9-3.1,17.2,0
			c2.6,1.5,4.3,4.3,4.4,7.4v29.5h23.6c2.3,0,4.2-1.9,4.2-4.2l0,0V35.1C89.8,33.7,89.2,32.4,88.1,31.6z"/>
	</defs>
	<clipPath id="SVGID_2_">
		<use xlink:href="#SVGID_1_"  style="overflow:visible;"/>
	</clipPath>
	<g class="st0">
		<path class="st1" d="M92.6,36.1L92.6,36.1l-3.9-2.8L54.5,8.7L16.8,35.8l-0.2,0.2c-0.2,0.2-0.5,0.4-0.7,0.6l0,0
			c-0.7,0.8-1.2,1.8-1.2,2.9v41.8c0,2.3,1.9,4.3,4.2,4.3c0,0,0,0,0,0h21.5V56.1c0.1-3.1,1.8-5.9,4.4-7.4c5.3-3.1,11.9-3.1,17.2,0
			c2.7,1.5,4.3,4.3,4.4,7.4v29.5h23.5c2.3,0,4.2-1.9,4.2-4.2V39.6C94.3,38.2,93.7,36.9,92.6,36.1z"/>
	</g>
</g>
<circle class="st2" cx="71.9" cy="16.5" r="11"/>
<path d="M71.9,29.8c-7.3,0-13.3-5.9-13.3-13.2c0-7.3,5.9-13.3,13.2-13.3c7.3,0,13.3,5.9,13.3,13.2c0,0,0,0,0,0
	C85.1,23.8,79.2,29.7,71.9,29.8z M71.9,6.4c-5.6,0-10.1,4.5-10.1,10.1c0,5.6,4.5,10.1,10.1,10.1s10.1-4.5,10.1-10.1c0,0,0,0,0,0
	C81.9,10.9,77.4,6.4,71.9,6.4z"/>
<path d="M77.1,11.2L77.1,11.2c0.6,0.6,0.6,1.5,0,2.1l-8.4,8.4c-0.6,0.6-1.5,0.6-2.1,0l0,0c-0.6-0.6-0.6-1.5,0-2.1l8.4-8.4
	C75.6,10.6,76.5,10.6,77.1,11.2z"/>
<path d="M77.1,21.7L77.1,21.7c-0.6,0.6-1.5,0.6-2.1,0l-8.4-8.4c-0.6-0.6-0.6-1.5,0-2.1l0,0c0.6-0.6,1.5-0.6,2.1,0l8.4,8.4
	C77.7,20.2,77.7,21.2,77.1,21.7z"/>
</svg>
