<svg xmlns="http://www.w3.org/2000/svg" viewBox="-2528.026 4026.397 71.554 54.903">
  <defs>
    <style>
      .cls-1 {
        fill: #010101;
      }

      .cls-2 {
        fill: #ecf7fd;
      }

      .cls-3 {
        fill: #fff;
      }
    </style>
  </defs>
  <g id="Group_81" data-name="Group 81" transform="translate(-2528.026 4026.397)">
    <path id="Path_2576" data-name="Path 2576" class="cls-1" d="M68.2,54.9H3.363A3.368,3.368,0,0,1,0,51.539V8.517A3.37,3.37,0,0,1,3.363,5.141H21a3.5,3.5,0,0,0,2.123-.959l1.957-2.238A6.28,6.28,0,0,1,29.363,0H42.012A6.28,6.28,0,0,1,46.3,1.944l1.957,2.238a3.465,3.465,0,0,0,2.123.959H68.191A3.368,3.368,0,0,1,71.554,8.5V51.539A3.349,3.349,0,0,1,68.2,54.9ZM3.363,8.019a.508.508,0,0,0-.5.5V51.539a.508.508,0,0,0,.5.5H68.2a.508.508,0,0,0,.5-.5V8.517a.508.508,0,0,0-.5-.5H50.388A6.28,6.28,0,0,1,46.1,6.075L44.147,3.837a3.5,3.5,0,0,0-2.123-.959H29.376a3.5,3.5,0,0,0-2.123.959L25.3,6.075a6.28,6.28,0,0,1-4.284,1.944Z"/>
    <path id="Path_2577" data-name="Path 2577" class="cls-2" d="M101.224,60.541A6.28,6.28,0,0,1,96.939,58.6l-1.957-2.238A3.5,3.5,0,0,0,92.86,55.4H80.211a3.5,3.5,0,0,0-2.123.959L76.119,58.6a6.28,6.28,0,0,1-4.284,1.944H54.2a.508.508,0,0,0-.5.5v39.313h61.323a.508.508,0,0,0,.5-.5V60.541Z" transform="translate(-46.832 -48.315)"/>
    <path id="Path_2578" data-name="Path 2578" class="cls-1" d="M166.164,142.528a16.664,16.664,0,1,1,16.664-16.664A16.682,16.682,0,0,1,166.164,142.528Zm0-30.45a13.786,13.786,0,1,0,13.8,13.786A13.8,13.8,0,0,0,166.164,112.077Z" transform="translate(-130.381 -95.234)"/>
    <path id="Path_2579" data-name="Path 2579" class="cls-3" d="M185.786,131.7a13.786,13.786,0,1,0,13.8,13.786A13.8,13.8,0,0,0,185.786,131.7Z" transform="translate(-150.003 -114.857)"/>
    <path id="Path_2580" data-name="Path 2580" class="cls-2" d="M209.786,157.7a13.778,13.778,0,0,0-11.523,21.345,13.787,13.787,0,0,0,20-18.442A13.841,13.841,0,0,0,209.786,157.7Z" transform="translate(-170.934 -137.532)"/>
    <path id="Path_2581" data-name="Path 2581" class="cls-1" d="M218.665,187.33a8.965,8.965,0,1,1,8.965-8.965A8.968,8.968,0,0,1,218.665,187.33Zm0-15.053a6.1,6.1,0,1,0,6.1,6.1A6.108,6.108,0,0,0,218.665,172.278Z" transform="translate(-182.882 -147.736)"/>
    <path id="Path_2582" data-name="Path 2582" class="cls-3" d="M238.2,191.9a6.1,6.1,0,1,0,6.1,6.1A6.108,6.108,0,0,0,238.2,191.9Z" transform="translate(-202.417 -167.358)"/>
  </g>
</svg>
