<svg xmlns="http://www.w3.org/2000/svg" viewBox="0 0 40 28.78"><defs><style>.a{fill:#3a4854;}</style></defs><title>luggage</title><path class="a" d="M36.52,3.56h-33A3.48,3.48,0,0,0,0,7V25.3a3.48,3.48,0,0,0,3.48,3.48h33A3.48,3.48,0,0,0,40,25.3V7A3.48,3.48,0,0,0,36.52,3.56Zm2,21.85a1.76,1.76,0,0,1-1.76,1.76H3.28a1.76,1.76,0,0,1-1.76-1.76V6.93A1.76,1.76,0,0,1,3.28,5.17H36.72a1.76,1.76,0,0,1,1.76,1.76Z"/><path class="a" d="M31.3,4.84V15.28a.87.87,0,1,1-1.73,0V4.84a.87.87,0,1,1,1.73,0Z"/><path class="a" d="M31.3,18.1V22a.87.87,0,1,1-1.73,0V18.1a.87.87,0,1,1,1.73,0Z"/><path class="a" d="M31.3,24.85v.9a.87.87,0,1,1-1.73,0v-.9a.87.87,0,1,1,1.73,0Z"/><path class="a" d="M9.87,4.84V15.28a.87.87,0,1,1-1.74,0V4.84a.87.87,0,1,1,1.74,0Z"/><path class="a" d="M9.87,18.1V22a.87.87,0,1,1-1.74,0V18.1a.87.87,0,0,1,1.74,0Z"/><path class="a" d="M9.87,24.85v.9a.87.87,0,0,1-1.74,0v-.9a.87.87,0,1,1,1.74,0Z"/><path class="a" d="M26.18,5.12H13.82V2.22A2.21,2.21,0,0,1,16,0H24a2.21,2.21,0,0,1,2.22,2.22ZM15.32,3.62h9.36V2.22A.72.72,0,0,0,24,1.5H16a.72.72,0,0,0-.72.72Z"/></svg>
