<svg xmlns="http://www.w3.org/2000/svg" xmlns:xlink="http://www.w3.org/1999/xlink" viewBox="0 0 100.05 67.69"><defs><style>.a{fill:none;}.b{clip-path:url(#a);}.c{fill:#eaf6fd;}.d{fill:#fff;}</style><clipPath id="a" transform="translate(0 -16.78)"><path class="a" d="M96.18,49.24V73.85c0,2-.7,3.59-1.73,4S92,77.61,90.38,76c-.86-.86-6.33-5.94-13.59-12.66h0L73,59.85V74a4.38,4.38,0,0,1-4.37,4.38H8.05A4.38,4.38,0,0,1,3.68,74V25a4.37,4.37,0,0,1,4.37-4.37H68.67A4.37,4.37,0,0,1,73,25V39l3.75-3.48h0c7.26-6.72,12.73-11.8,13.59-12.66C92,21.25,93.45,20.57,94.45,21s1.73,2,1.73,4Z"/></clipPath></defs><title>icon.media</title><path d="M96,17.42c-1.45-.6-4.43-1.05-8.15,2.66-.72.73-5,4.71-10.94,10.2V24.9a8.13,8.13,0,0,0-8.12-8.12H8.12A8.13,8.13,0,0,0,0,24.9v49A8.13,8.13,0,0,0,8.12,82H68.74a8.13,8.13,0,0,0,8.12-8.12V68.37c5.93,5.49,10.22,9.47,10.94,10.2,3.72,3.71,6.7,3.26,8.15,2.66,2.5-1,4-3.9,4-7.48V24.9C100,21.32,98.45,18.46,96,17.42Zm.3,31.72V73.75c0,2-.69,3.59-1.73,4S92,77.5,90.45,75.92c-.85-.86-6.33-5.94-13.59-12.66h0l-3.75-3.51V73.88a4.37,4.37,0,0,1-4.37,4.37H8.12a4.37,4.37,0,0,1-4.37-4.37v-49a4.37,4.37,0,0,1,4.37-4.37H68.74a4.37,4.37,0,0,1,4.37,4.37v14l3.75-3.48h0c7.26-6.72,12.74-11.8,13.59-12.66,1.59-1.59,3.07-2.26,4.07-1.85s1.73,2.05,1.73,4Z" transform="translate(0 -16.78)"/><g class="b"><path class="c" d="M100.05,55.36V80c0,2-.69,3.59-1.73,4s-2.48-.26-4.07-1.85c-.85-.86-6.33-5.94-13.59-12.66h0L76.91,66V80.1a4.38,4.38,0,0,1-4.37,4.38H11.92A4.38,4.38,0,0,1,7.55,80.1v-49a4.37,4.37,0,0,1,4.37-4.37H72.54a4.37,4.37,0,0,1,4.37,4.37v14l3.75-3.48h0C87.92,34.89,93.4,29.81,94.25,29c1.59-1.58,3.07-2.26,4.07-1.84s1.73,2,1.73,4Z" transform="translate(0 -16.78)"/></g><path class="d" d="M49.46,47.59l-15.08-8.7a2.07,2.07,0,0,0-3.11,1.8V58.1a2.07,2.07,0,0,0,3.11,1.79l15.08-8.7A2.08,2.08,0,0,0,49.46,47.59Z" transform="translate(0 -16.78)"/><path d="M33.34,62.05a4,4,0,0,1-2-.53,3.92,3.92,0,0,1-2-3.42V40.69a4,4,0,0,1,5.93-3.43L50.4,46a4,4,0,0,1,0,6.84L35.32,61.52A4,4,0,0,1,33.34,62.05Zm0-21.57-.11,0a.19.19,0,0,0-.1.18V58.1a.18.18,0,0,0,.1.17.19.19,0,0,0,.21,0l15.07-8.7a.21.21,0,0,0,0-.36l-15.07-8.7A.24.24,0,0,0,33.35,40.48Z" transform="translate(0 -16.78)"/></svg>