<svg xmlns="http://www.w3.org/2000/svg" viewBox="0 0 800.89 743.91"><defs><style>.a{fill:#010101;}.b{fill:#fff;}.c{fill:#ecf7fd;}.d{fill:#231f20;}</style></defs><title>month-alt</title><rect class="a" y="139" width="800.89" height="604.91" rx="69.64" ry="69.64"/><rect class="b" x="30.8" y="172.26" width="740" height="540.48" rx="35.24" ry="35.24"/><path class="c" d="M116,214.26A35.25,35.25,0,0,0,80.8,249.5V712.73H735.56A35.25,35.25,0,0,0,770.8,677.5V214.26Z"/><path class="a" d="M729.64,307.53H71.71a17.41,17.41,0,0,1,0-34.82H729.64a17.41,17.41,0,0,1,0,34.82Z"/><path class="b" d="M570,228a56.55,56.55,0,0,1-56.48-56.42l.84-101.92a55.64,55.64,0,1,1,111.28,0l.84,101.92A56.55,56.55,0,0,1,570,228Z"/><path d="M570,28a41.69,41.69,0,0,1,41.64,41.64v.23l.84,101.74a42.48,42.48,0,0,1-85,0l.84-101.74v-.23A41.69,41.69,0,0,1,570,28m0-28A69.64,69.64,0,0,0,500.4,69.64l-.84,101.86a70.48,70.48,0,0,0,141,0l-.84-101.86A69.64,69.64,0,0,0,570,0Z"/><path class="c" d="M610.27,175.82V71.36c0-.74,0-1.48-.08-2.21A34.82,34.82,0,0,0,563,101.71V206.18c0,.74,0,1.47.07,2.2a34.81,34.81,0,0,0,47.17-32.56Z"/><path class="b" d="M230.85,228a56.54,56.54,0,0,1-56.47-56.42l.83-101.92a55.65,55.65,0,0,1,111.29,0l.83,101.92A56.54,56.54,0,0,1,230.85,228Z"/><path d="M230.86,28A41.69,41.69,0,0,1,272.5,69.64v.23l.83,101.74a42.48,42.48,0,0,1-84.95,0l.83-101.74v-.23A41.69,41.69,0,0,1,230.86,28m0-28a69.65,69.65,0,0,0-69.65,69.64l-.83,101.86a70.48,70.48,0,1,0,141,0L300.5,69.64A69.64,69.64,0,0,0,230.86,0Z"/><path class="c" d="M271.08,175.82V71.36c0-.74,0-1.48-.08-2.21a34.82,34.82,0,0,0-47.16,32.56V206.18c0,.74,0,1.47.08,2.2a34.8,34.8,0,0,0,47.16-32.56Z"/><path class="d" d="M292.69,548.62c-10.7,0-21.24-3-28-6.76l5-20.15c6.61,3.78,12.9,6.14,19,6.14,10.22,0,14.16-5.35,14.16-18.09V447.92h25v63.72C327.94,534.93,316.92,548.62,292.69,548.62Z"/><path class="d" d="M427.43,544.48H402.65l-6.9-19.57H361.12l-6.9,19.57H330.57l36.6-97.28h23.65Zm-36.89-37.31-12.11-34.91-12.1,34.91Z"/><path class="d" d="M523.58,544.48H500.21l-42.66-65.89s.43,11.69.43,22v43.92H435.73V447.34h24.36l41.67,65.32s-.42-11-.42-21.25V447.34h22.24Z"/></svg>