<svg xmlns="http://www.w3.org/2000/svg" xmlns:xlink="http://www.w3.org/1999/xlink" viewBox="0 0 52.19 66.42"><defs><style>.a{fill:none;}.b{fill:#240000;}.c{clip-path:url(#a);}.d{fill:#eaf6fd;}.e{fill:#231f20;}</style><clipPath id="a" transform="translate(-22.78 -15.85)"><path class="a" d="M25.48,79H71.81V20l-6,4.73a1.4,1.4,0,0,1-1.72,0L56.58,19l-6.92,5.79a1.4,1.4,0,0,1-1.78,0L40.76,19l-7,5.79a1.41,1.41,0,0,1-1.72,0l-6.52-4.85Z"/></clipPath></defs><title>icon.paid</title><path class="b" d="M73.3,81.9H24.18a1.4,1.4,0,0,1-1.4-1.39V17.25A1.39,1.39,0,0,1,25,16.13L32.88,22,40,16.17a1.39,1.39,0,0,1,1.76,0L48.84,22l6.91-5.77a1.39,1.39,0,0,1,1.75,0L65,22l7.42-5.84A1.42,1.42,0,0,1,73.91,16a1.4,1.4,0,0,1,.78,1.26V80.51A1.39,1.39,0,0,1,73.3,81.9ZM25.57,79.11H71.9v-59l-6,4.74a1.4,1.4,0,0,1-1.72,0L56.68,19l-6.93,5.79a1.38,1.38,0,0,1-1.77,0l-7.12-5.79-7,5.79a1.4,1.4,0,0,1-1.72,0L25.57,20Z" transform="translate(-22.78 -15.85)"/><g class="c"><path class="d" d="M28.64,82.27H75v-59L69,28a1.4,1.4,0,0,1-1.72,0L59.75,22.2,52.82,28a1.39,1.39,0,0,1-1.77,0l-7.12-5.8-7,5.79a1.38,1.38,0,0,1-1.72,0l-6.52-4.85Z" transform="translate(-22.78 -15.85)"/></g><path class="e" d="M52.18,48.71a5.52,5.52,0,0,1-2.66,1l0,1.13H48l0-1.09a5.83,5.83,0,0,1-4.23-2.09l1.51-2a4.25,4.25,0,0,0,3,1.67l.06-3.41-.7-.29a7.75,7.75,0,0,1-1.84-1,3.6,3.6,0,0,1-1.43-2.93,3.8,3.8,0,0,1,1.35-3,5.13,5.13,0,0,1,2.87-1.06l0-1.11h1.47l0,1.15a5.19,5.19,0,0,1,3.44,1.66l-1.27,2A4.32,4.32,0,0,0,49.85,38l-.09,3.28,1.29.55a4,4,0,0,1,2.7,3.72A4,4,0,0,1,52.18,48.71ZM48.56,38a1.34,1.34,0,0,0-1.33,1.37,1.5,1.5,0,0,0,1,1.37l.22.11ZM50,44.47l-.33-.16-.06,3a1.53,1.53,0,0,0,1.37-1.42A1.51,1.51,0,0,0,50,44.47Z" transform="translate(-22.78 -15.85)"/><path d="M49,61.67H59.73c1.06,0,2.16,0,2.12-1.47,0-1.28-1.05-1.33-2-1.33q-10.92,0-21.83,0c-1.06,0-2.18,0-2.12,1.47s1.25,1.33,2.26,1.33Z" transform="translate(-22.78 -15.85)"/><path d="M48.62,67.73H37.94c-1,0-2,0-2.07,1.28-.08,1.44,1,1.52,2.07,1.52q10.92,0,21.84,0c1,0,2,0,2.07-1.29.07-1.44-1-1.51-2.08-1.51Z" transform="translate(-22.78 -15.85)"/></svg>