<svg xmlns="http://www.w3.org/2000/svg" xmlns:xlink="http://www.w3.org/1999/xlink" viewBox="0 0 99.89 74.47"><defs><style>.a{fill:none;}.b{fill:#fff;}.c{clip-path:url(#a);}.d{fill:#ebf7fd;}.e{fill:#231f20;}</style><clipPath id="a" transform="translate(0 -14)"><path class="a" d="M90.15,83.87,73.07,76.35H15.67a2.51,2.51,0,0,1-2.51-2.51V30.6a2.51,2.51,0,0,1,2.51-2.51h72a2.51,2.51,0,0,1,2.52,2.51V83.87Z"/></clipPath></defs><title>icon.requests</title><path d="M78.29,17.75a2.51,2.51,0,0,1,2.5,2.51V63.43a2.51,2.51,0,0,1-2.5,2.51h-72a2.52,2.52,0,0,1-2.51-2.51V20.26a2.52,2.52,0,0,1,2.51-2.51h72m0-3.75h-72A6.26,6.26,0,0,0,0,20.26V63.43a6.26,6.26,0,0,0,6.26,6.26h72a6.26,6.26,0,0,0,6.26-6.26V20.26A6.26,6.26,0,0,0,78.29,14Z" transform="translate(0 -14)"/><path class="b" d="M91.68,86.59H91.6L73.17,78.35a1.83,1.83,0,0,0-.77-.16H15.72a4.39,4.39,0,0,1-4.38-4.38V30.63a4.39,4.39,0,0,1,4.38-4.38h72a4.38,4.38,0,0,1,4.37,4.38V73.81c0,1.65,0,4.27,0,7,0,1.83,0,3.72-.06,5.39A.34.34,0,0,1,91.68,86.59Z" transform="translate(0 -14)"/><path d="M87.76,28.13a2.5,2.5,0,0,1,2.5,2.5V73.81c0,1.63,0,4.25-.06,7l0,3L73.93,76.64a3.66,3.66,0,0,0-1.53-.33H15.72a2.5,2.5,0,0,1-2.5-2.5V30.63a2.5,2.5,0,0,1,2.5-2.5h72m0-3.76h-72a6.27,6.27,0,0,0-6.26,6.26V73.81a6.26,6.26,0,0,0,6.26,6.25H72.4l18.51,8.27a2.37,2.37,0,0,0,.77.14,2.22,2.22,0,0,0,2.22-2.2c0-4.19.11-9.7.11-12.46V30.63a6.26,6.26,0,0,0-6.25-6.26Z" transform="translate(0 -14)"/><g class="c"><path class="d" d="M90.42,85.06,84,81.48H19.76A2.51,2.51,0,0,1,17.25,79V35.73a2.51,2.51,0,0,1,2.51-2.51h72a2.51,2.51,0,0,1,2.52,2.51V79C94.24,80.36,91.81,85.06,90.42,85.06Z" transform="translate(0 -14)"/></g><path d="M52,47.48H66.36c1.42,0,2.9,0,2.85-2,0-1.72-1.42-1.79-2.73-1.79H37.12c-1.43,0-2.93,0-2.85,2s1.68,1.78,3,1.78C42.2,47.49,47.09,47.48,52,47.48Z" transform="translate(0 -14)"/><path d="M51.42,55.63H37.05c-1.3,0-2.69,0-2.78,1.73-.11,1.93,1.34,2,2.79,2H66.42c1.3,0,2.69,0,2.79-1.74.1-1.93-1.35-2-2.79-2Z" transform="translate(0 -14)"/><circle class="b" cx="88.72" cy="18.06" r="9.83"/><path d="M88.72,43.23A11.18,11.18,0,1,1,99.89,32.06,11.18,11.18,0,0,1,88.72,43.23Zm0-19.66a8.49,8.49,0,1,0,8.48,8.49A8.49,8.49,0,0,0,88.72,23.57Z" transform="translate(0 -14)"/><path class="e" d="M90.33,36.63H88.26V29H86.61V27.48h3.72Z" transform="translate(0 -14)"/></svg>