<svg xmlns="http://www.w3.org/2000/svg" viewBox="-2528.026 3797.561 55.127 53.735">
  <defs>
    <style>
      .cls-1 {
        fill: #ecf7fd;
      }

      .cls-2 {
        fill: #010101;
      }

      .cls-3 {
        fill: none;
      }
    </style>
  </defs>
  <g id="Group_101" data-name="Group 101" transform="translate(-2534.575 3797.571)">
    <path id="Path_2656" data-name="Path 2656" class="cls-1" d="M164.749,69.072c2.909-8.764,4.682-17.98,4.682-19.631,0-16.624-9.29-22.442-20.755-22.442s-21.146,7.725-20.755,22.442c-.012,1.2-.293,2.872,1.418,2.652,1.992,0,1.173,3.068-1.112,7.921-.7,3.007-2.457,5.733,7.041,11.979,5.549,3.19,14.839,3.618,20.278,3.276C163.038,73.766,164.749,69.072,164.749,69.072Z" transform="translate(-111.238 -23.709)"/>
    <circle id="Ellipse_8" data-name="Ellipse 8" class="cls-2" cx="1.833" cy="1.833" r="1.833" transform="translate(34.443 50.057)"/>
    <path id="Path_2657" data-name="Path 2657" class="cls-2" d="M267.483,252.082a1.834,1.834,0,0,0,1.381,2.188,2.27,2.27,0,0,0,.4.049,1.816,1.816,0,0,0,1.785-1.43c.293-1.332.5-2.579.66-3.789h-3.7A28.979,28.979,0,0,1,267.483,252.082Z" transform="translate(-233.957 -218.661)"/>
    <path id="Path_2658" data-name="Path 2658" class="cls-2" d="M223.948,309.88a1.816,1.816,0,0,0-2.261,1.259,48.261,48.261,0,0,1-4.62,10.928,1.846,1.846,0,0,0,.672,2.506,1.78,1.78,0,0,0,.917.244,1.821,1.821,0,0,0,1.589-.917,52.226,52.226,0,0,0,4.963-11.746A1.834,1.834,0,0,0,223.948,309.88Z" transform="translate(-189.53 -271.948)"/>
    <path id="Path_2659" data-name="Path 2659" class="cls-2" d="M298.815,263.108a1.829,1.829,0,0,0,3.435,1.259,82.922,82.922,0,0,0,3.789-15.267h-3.7A81.96,81.96,0,0,1,298.815,263.108Z" transform="translate(-261.403 -218.661)"/>
    <path id="Path_2660" data-name="Path 2660" class="cls-2" d="M169.495,265.87a1.842,1.842,0,0,0,.941,2.42,1.779,1.779,0,0,0,.746.159,1.811,1.811,0,0,0,1.675-1.088c3.924-8.9,5.146-13.617,5.672-18.262h-3.691C174.3,253.354,173.113,257.693,169.495,265.87Z" transform="translate(-147.85 -218.661)"/>
    <path id="Path_2661" data-name="Path 2661" class="cls-2" d="M348.365,257.122a1.837,1.837,0,0,0-2.017,1.638c-.611,5.9-2.322,10.683-3.973,15.291-.22.611-.44,1.222-.648,1.821a1.817,1.817,0,0,0,1.125,2.335,1.743,1.743,0,0,0,.611.11,1.825,1.825,0,0,0,1.723-1.222c.208-.6.428-1.2.648-1.809A65.857,65.857,0,0,0,350,259.138,1.854,1.854,0,0,0,348.365,257.122Z" transform="translate(-299.071 -225.693)"/>
    <path id="Path_2662" data-name="Path 2662" class="cls-2" d="M130.842,259.783a1.826,1.826,0,0,0,.929,2.42,1.78,1.78,0,0,0,.746.159,1.836,1.836,0,0,0,1.675-1.088c.662-1.489,1.319-3.031,2-4.936a35.412,35.412,0,0,0,1.745-7.239h-3.7A40.341,40.341,0,0,1,130.842,259.783Z" transform="translate(-113.916 -218.661)"/>
    <path id="Path_2663" data-name="Path 2663" class="cls-2" d="M417.346,262.751a1.826,1.826,0,0,0,1.369,2.2,1.673,1.673,0,0,0,.416.049,1.838,1.838,0,0,0,1.785-1.418A125.954,125.954,0,0,0,423.629,249h-3.7A122.655,122.655,0,0,1,417.346,262.751Z" transform="translate(-365.498 -218.573)"/>
    <path id="Path_2664" data-name="Path 2664" class="cls-2" d="M91.172,253.561a1.833,1.833,0,0,0,1.137,2.335,1.709,1.709,0,0,0,.6.1,1.847,1.847,0,0,0,1.736-1.235,37.891,37.891,0,0,0,1.626-5.659H92.517A41.26,41.26,0,0,1,91.172,253.561Z" transform="translate(-79.147 -218.661)"/>
    <circle id="Ellipse_9" data-name="Ellipse 9" class="cls-2" cx="1.833" cy="1.833" r="1.833" transform="translate(26.265 1.189)"/>
    <path id="Path_2665" data-name="Path 2665" class="cls-3" d="M239.939,148.875v-.037c-.122-2.139-1.809-4.376-5.195-4.266-3.7.122-5,3.007-4.975,5.427v.122c-.037.587-.073,1.149-.1,1.7-.049.966-.11,1.87-.171,2.75h3.423c.11-1.821.11-3.581.11-5.39v-.2a1.833,1.833,0,0,1,3.667,0v.2c0,1.809,0,3.569-.11,5.39h3.264A33.031,33.031,0,0,0,239.939,148.875Z" transform="translate(-200.656 -126.906)"/>
    <path id="Path_2666" data-name="Path 2666" class="cls-3" d="M198.617,101.744c.147-6.148-.953-10.341-3.374-12.81-1.931-1.968-4.73-2.934-8.593-2.934-4.376,0-7.419,1.613-9.314,4.95-1.8,3.166-2.176,7.248-2.176,10.121,0,.721-.024,1.43-.061,2.1h2.958c.073-.941.122-1.919.183-2.958.024-.538.061-1.088.1-1.65a8.583,8.583,0,0,1,8.52-9.057,9.2,9.2,0,0,1,5.9,1.821,7.9,7.9,0,0,1,3.08,5.879,36.414,36.414,0,0,1-.061,5.989h3.471A1.9,1.9,0,0,1,198.617,101.744Z" transform="translate(-152.905 -75.497)"/>
    <path id="Path_2667" data-name="Path 2667" class="cls-2" d="M261.177,167.633a1.833,1.833,0,0,0-3.667,0v.2c0,1.809,0,3.569-.11,5.39h3.679c.11-1.821.11-3.581.11-5.39v-.2Z" transform="translate(-225.145 -145.543)"/>
    <path id="Path_2668" data-name="Path 2668" class="cls-2" d="M217.085,122.16a7.864,7.864,0,0,0-3.08-5.879,9.2,9.2,0,0,0-5.9-1.821,8.6,8.6,0,0,0-8.52,9.057c-.037.574-.061,1.125-.1,1.65-.061,1.051-.11,2.017-.183,2.958h3.679c.061-.88.11-1.8.171-2.75.037-.55.061-1.112.1-1.7v-.122c-.024-2.42,1.271-5.3,4.975-5.427,3.386-.122,5.073,2.127,5.195,4.266v.037a33.19,33.19,0,0,1-.086,5.708h3.679A34.971,34.971,0,0,0,217.085,122.16Z" transform="translate(-174.147 -100.473)"/>
    <path id="Path_2669" data-name="Path 2669" class="cls-2" d="M148.828,74.738c0-2.872.379-6.955,2.176-10.121,1.895-3.325,4.95-4.95,9.314-4.95,3.85,0,6.662.953,8.593,2.934,2.42,2.481,3.52,6.674,3.374,12.81a1.81,1.81,0,0,0,.636,1.43h2.4a1.833,1.833,0,0,0,.636-1.345c.171-7.187-1.271-12.248-4.425-15.462C168.911,57.357,165.134,56,160.318,56c-5.647,0-9.974,2.347-12.5,6.808-2.2,3.863-2.652,8.617-2.652,11.93,0,.721-.024,1.43-.061,2.1h3.679C148.8,76.156,148.828,75.459,148.828,74.738Z" transform="translate(-126.572 -49.164)"/>
    <path id="Path_2670" data-name="Path 2670" class="cls-2" d="M398.538,85.193c.134-6.979-1.369-12.309-4.6-16.33a1.835,1.835,0,0,0-2.86,2.3c2.665,3.313,3.9,7.884,3.789,13.959-.012.782-.049,1.589-.11,2.408h3.679C398.489,86.672,398.526,85.9,398.538,85.193Z" transform="translate(-342.13 -59.851)"/>
    <path id="Path_2671" data-name="Path 2671" class="cls-2" d="M93.648,50.991a17.021,17.021,0,0,1,7.481-14.167A1.832,1.832,0,1,0,99,33.842a20.619,20.619,0,0,0-9.021,17.149,54.5,54.5,0,0,1-.281,6.1h3.691A59.915,59.915,0,0,0,93.648,50.991Z" transform="translate(-77.944 -29.414)"/>
    <path id="Path_2672" data-name="Path 2672" class="cls-2" d="M263.3,3.646c4.743.574,6.686,1.332,9.779,3.19a1.881,1.881,0,0,0,.941.257,1.834,1.834,0,0,0,.941-3.41A24.464,24.464,0,0,0,263.744,0a1.835,1.835,0,0,0-.44,3.643Z" transform="translate(-228.911 0)"/>
    <g id="Group_88" data-name="Group 88" transform="translate(6.549 27.676)">
      <path id="Path_2673" data-name="Path 2673" class="cls-2" d="M47.1,228.15a1.1,1.1,0,0,0,1.1,1.1h52.927a1.1,1.1,0,0,0,1.1-1.1v-.55a1.1,1.1,0,0,0-1.1-1.1H48.2a1.1,1.1,0,0,0-1.1,1.1Z" transform="translate(-47.1 -226.5)"/>
    </g>
  </g>
</svg>
