<svg xmlns="http://www.w3.org/2000/svg" viewBox="-2521 4246.646 53.105 81.738">
  <defs>
    <style>
      .cls-1 {
        fill: #ecf7fd;
      }
    </style>
  </defs>
  <g id="Group_87" data-name="Group 87" transform="translate(-2521.035 4246.681)">
    <path id="Path_2648" data-name="Path 2648" class="cls-1" d="M79,156.9a1.908,1.908,0,0,0-1,1.75c0,.794.016,1.588-.016,2.382a1.4,1.4,0,1,1-2.755-.081c0-2.317.032-4.635.016-6.968a2.687,2.687,0,0,0-4.1-2.479,2.072,2.072,0,0,0-1.183,1.993v6.061c0,.989-.583,1.7-1.361,1.7a1.51,1.51,0,0,1-1.394-1.685c.016-2.706.049-5.413.049-8.1,0-2.317-1.394-3.371-3.662-2.787a2.2,2.2,0,0,0-1.637,2.35c-.016,2.625,0,5.251,0,7.86,0,1-.551,1.7-1.361,1.685-.826,0-1.394-.664-1.377-1.7.016-5.267.065-10.534.081-15.8q.024-3.111,0-6.223c-.016-2.317-1.572-3.419-3.792-2.723a2.338,2.338,0,0,0-1.572,2.512c-.016,4.2,0,8.411,0,12.608V172.1c0,1.572-.535,2.026-2.074,1.75-3.436-.616-6.855-1.3-10.307-1.831a8.6,8.6,0,0,0-3.144.211,2.563,2.563,0,0,0-2.058,2.528c-.113,1.264.745.5,1.977.794a6.575,6.575,0,0,0,1.945.211c1.3-.081,1.977,1.783,3.047,2.447a22.838,22.838,0,0,1,5.445,4.683c1.7,2.026,3.29,4.149,4.878,6.255,6.644,7.276,26.253,7.017,28.765-5.85a41.016,41.016,0,0,0,.843-6.887c.113-5.7.049-11.409.032-17.113A2.726,2.726,0,0,0,79,156.9Z" transform="translate(-30.42 -112.25)"/>
    <path id="Path_2649" data-name="Path 2649" d="M53.1,116.371a5.68,5.68,0,0,0-4.311-5.315,6.137,6.137,0,0,0-1.426-.178,6.033,6.033,0,0,0-2.2.421,5.808,5.808,0,0,0-2.755-4.845,5.419,5.419,0,0,0-2.966-.891,6.585,6.585,0,0,0-2.8.681,6.05,6.05,0,0,0-3.209-2.9,5.159,5.159,0,0,0-1.961-.389,6.363,6.363,0,0,0-2.236.438V94.283A5.817,5.817,0,0,0,23.414,88.4a6.011,6.011,0,0,0-1.2.113,5.829,5.829,0,0,0-4.554,5.818v33.562c-.1-.016-.194-.016-.275-.032l-2.966-.535c-1.783-.324-3.646-.664-5.461-.989a9.635,9.635,0,0,0-1.653-.146,7.918,7.918,0,0,0-5.186,1.88,5.494,5.494,0,0,0-1.928,5.721c.486,2.317,2.431,3.111,3.857,3.517a8.185,8.185,0,0,0,1.377.243c.373.049.713.1,1.053.162.146.032.292.065.454.1a5.287,5.287,0,0,1,1.685.551,18.334,18.334,0,0,1,3.468,2.771c1.329,1.458,2.577,3.03,3.792,4.554.47.583.956,1.183,1.426,1.783a3,3,0,0,1,.308.438,5.016,5.016,0,0,0,.292.421,1.908,1.908,0,0,0,1.54.843,1.685,1.685,0,0,0,.972-.308,1.771,1.771,0,0,0,.81-1.183,1.85,1.85,0,0,0-.389-1.442l-.389-.519c-1.442-1.912-2.933-3.889-4.489-5.737a23.44,23.44,0,0,0-5.542-4.781A6.332,6.332,0,0,0,7,134.1a2.285,2.285,0,0,0-.324.016H6.43a7.014,7.014,0,0,1-1.572-.211c-.972-.227-1.248-.632-1.167-1.685a2.055,2.055,0,0,1,1.669-2.09A10.292,10.292,0,0,1,7.5,129.87a4.5,4.5,0,0,1,.826.065c2.4.373,4.829.826,7.179,1.264,1.037.194,2.074.389,3.1.567a5.457,5.457,0,0,0,.81.081c1.637,0,1.815-1.313,1.815-2.317V94.137c0-1.491.7-1.88,1.215-2.042a4,4,0,0,1,1.1-.178c1.3,0,2.042.891,2.058,2.447.016,2.253.016,4.505,0,6.207-.016,2.253-.016,4.489-.032,6.741-.016,3.014-.032,6.012-.049,9.026a1.968,1.968,0,0,0,1.88,2.188,1.666,1.666,0,0,0,1.345-.648,2.446,2.446,0,0,0,.486-1.523v-7.843a1.756,1.756,0,0,1,1.28-1.88,4.074,4.074,0,0,1,1.021-.146c1.669,0,2.026,1.329,2.026,2.447,0,1.588-.016,3.209-.016,4.764-.016,1.1-.016,2.22-.016,3.322a2.357,2.357,0,0,0,.632,1.653,1.731,1.731,0,0,0,1.232.519h.016A1.993,1.993,0,0,0,37.253,117v-6.061a1.577,1.577,0,0,1,.908-1.556,2.871,2.871,0,0,1,1.264-.324,2.166,2.166,0,0,1,2.123,2.366v4.359c0,.859-.016,1.734-.016,2.593a1.935,1.935,0,0,0,1.8,2.123h.049a1.984,1.984,0,0,0,1.88-2.042c.016-.567.016-1.151.016-1.718v-.664a1.41,1.41,0,0,1,.762-1.329,2.78,2.78,0,0,1,1.377-.389,2.16,2.16,0,0,1,2.139,2.366c0,1.426,0,2.836.016,4.262.016,4.2.032,8.54-.049,12.819a33.671,33.671,0,0,1-.826,6.774c-.859,3.76-2.739,6.272-5.737,7.665-1.718.794-1.41,1.993-1.2,2.479a1.64,1.64,0,0,0,1.588,1.07,2.829,2.829,0,0,0,1.134-.275,13.154,13.154,0,0,0,6.5-6.628,22.471,22.471,0,0,0,2.123-9.367C53.167,128.995,53.135,122.286,53.1,116.371Z" transform="translate(0 -74.104)"/>
    <path id="Path_2650" data-name="Path 2650" d="M203.314,136.172l-2.236-.826c-1.053-.389-2.091-.778-3.144-1.167a2.817,2.817,0,0,0-.924-.178,1.638,1.638,0,0,0-1.6,1.183,1.766,1.766,0,0,0,1.28,2.317c1.637.616,3.322,1.232,4.926,1.831l.275.1c.178.065.34.113.486.162.065.016.113.032.162.049l.081.032h.081a1.742,1.742,0,0,0,1.766-1.458A1.641,1.641,0,0,0,203.314,136.172Z" transform="translate(-163.614 -112.314)"/>
    <path id="Path_2651" data-name="Path 2651" d="M35.065,66.079c-1.637-.713-3.29-1.426-5.1-2.2a5.741,5.741,0,0,0-.551-.194l-.146-.049-.1-.032h-.1a1.815,1.815,0,0,0-1.783,1.507,1.682,1.682,0,0,0,1.1,1.961l.211.1c1.653.713,3.355,1.459,5.04,2.172a2.714,2.714,0,0,0,1.021.227,1.581,1.581,0,0,0,1.507-1.021,1.7,1.7,0,0,0,.081-1.345A2.119,2.119,0,0,0,35.065,66.079Z" transform="translate(-22.801 -53.323)"/>
    <path id="Path_2652" data-name="Path 2652" d="M210.08,65.891a1.884,1.884,0,0,0-1.766-2.091,1.824,1.824,0,0,0-.745.162c-1.977.826-3.889,1.685-5.51,2.4a1.765,1.765,0,0,0-.989.972,1.869,1.869,0,0,0,1.637,2.431,1.915,1.915,0,0,0,.778-.162c1.977-.826,3.743-1.588,5.51-2.415a2.389,2.389,0,0,0,.843-.81,1.589,1.589,0,0,0,.113-.162l.13-.146Z" transform="translate(-168.371 -53.49)"/>
    <path id="Path_2653" data-name="Path 2653" d="M41.921,136.027a1.68,1.68,0,0,0-1.653-1.037,2.418,2.418,0,0,0-.956.259c-1.734.826-3.549,1.718-5.007,2.415a3.445,3.445,0,0,0-.5.292,1.49,1.49,0,0,1-.13.081l-.081.049-.065.081a1.794,1.794,0,0,0-.016,2.334,1.57,1.57,0,0,0,1.377.664,2.441,2.441,0,0,0,.826-.227l.243-.113c1.621-.778,3.29-1.588,4.926-2.382A1.756,1.756,0,0,0,41.921,136.027Z" transform="translate(-27.696 -113.142)"/>
    <path id="Path_2654" data-name="Path 2654" d="M94.408.019a1.686,1.686,0,0,0-1.345,1.41,2.38,2.38,0,0,0,.065,1c.47,1.864.972,3.824,1.377,5.38a5.572,5.572,0,0,0,.178.551l.049.146.032.1.065.081a1.783,1.783,0,0,0,2.269.486,1.59,1.59,0,0,0,.94-1.215,2.17,2.17,0,0,0-.065-.843l-.065-.259c-.438-1.734-.891-3.533-1.361-5.3C96.255.359,95.445-.224,94.408.019Z" transform="translate(-77.93 0)"/>
    <path id="Path_2655" data-name="Path 2655" d="M163.957.087a1.671,1.671,0,0,0-1.864.583,2.24,2.24,0,0,0-.421.908c-.5,1.864-1.021,3.808-1.426,5.364-.049.211-.081.405-.113.567a.5.5,0,0,0-.016.146l-.016.1.016.1a1.8,1.8,0,0,0,1.75,1.54,1.576,1.576,0,0,0,1.41-.616,2.206,2.206,0,0,0,.357-.762l.065-.259c.47-1.734.94-3.517,1.394-5.283A1.733,1.733,0,0,0,163.957.087Z" transform="translate(-134.126 -0.036)"/>
  </g>
</svg>
