<svg xmlns="http://www.w3.org/2000/svg" viewBox="-2527 3550.732 79.525 63.968">
  <defs>
    <style>
      .cls-1 {
        fill: #010101;
      }

      .cls-2 {
        fill: #fff;
      }

      .cls-3 {
        fill: #ecf7fd;
      }
    </style>
  </defs>
  <g id="Group_79" data-name="Group 79" transform="translate(-2527 3550.732)">
    <path id="Path_2563" data-name="Path 2563" class="cls-1" d="M72.608,63.968H6.918A6.921,6.921,0,0,1,0,57.05V20.739a6.921,6.921,0,0,1,6.918-6.918H32.852v-6.9a6.911,6.911,0,1,1,13.821,0v6.918H72.608a6.921,6.921,0,0,1,6.918,6.918V57.064A6.918,6.918,0,0,1,72.608,63.968Z"/>
    <path id="Path_2564" data-name="Path 2564" class="cls-2" d="M110.164,236.406h0l-.029-1.349a19.435,19.435,0,0,0,3.516-2.382,5.209,5.209,0,0,0,1.277-2.354,56.594,56.594,0,0,0,.416-6.4c0-3.559-1.78-7.406-6.932-7.406v0c-5.138,0-6.932,3.832-6.932,7.406a56.6,56.6,0,0,0,.416,6.4,5.209,5.209,0,0,0,1.277,2.354,18.911,18.911,0,0,0,3.516,2.382l-.029,1.349h0s.043,1.981.043,2.569c0,2.354-2.354,3.488-3.846,3.488h0c-4.478.2-5.54,1.694-5.554,1.708a8.539,8.539,0,0,0-1,1.765h24.212a8.161,8.161,0,0,0-1-1.765c-.014-.014-1.062-1.507-5.554-1.708h0c-1.478,0-3.846-1.134-3.846-3.488C110.107,238.387,110.164,236.406,110.164,236.406Z" transform="translate(-82.479 -185.428)"/>
    <path id="Path_2565" data-name="Path 2565" class="cls-2" d="M259.818,27.559a3.459,3.459,0,0,0-6.918,0V37.935a3.459,3.459,0,1,0,6.918,0Z" transform="translate(-216.603 -20.641)"/>
    <path id="Path_2566" data-name="Path 2566" class="cls-2" d="M96.708,123.859a3.461,3.461,0,0,0-3.459-3.459H67.314a6.918,6.918,0,1,1-13.835,0H27.559a3.461,3.461,0,0,0-3.459,3.459V160.17a3.461,3.461,0,0,0,3.459,3.459h3.1a18.6,18.6,0,0,1,2.009-3.875c.043-.029,1.464-3,8.64-3.1.014-.043.014-1.808.043-1.78a12.193,12.193,0,0,1-1.823-1.407A7.227,7.227,0,0,1,37.017,149a69.681,69.681,0,0,1-.847-7.2c0-5.483,2.182-11.037,10.291-11.037h.215c8.109,0,10.291,5.554,10.291,11.037a65.928,65.928,0,0,1-.847,7.2,7.227,7.227,0,0,1-2.512,4.464,12.193,12.193,0,0,1-1.823,1.407c.029-.029.029,1.737.043,1.78,7.176.086,8.6,3.071,8.64,3.1a18.6,18.6,0,0,1,2.009,3.875H93.249a3.461,3.461,0,0,0,3.459-3.459Z" transform="translate(-20.641 -103.12)"/>
    <path id="Path_2567" data-name="Path 2567" class="cls-3" d="M273.093,55.922V45.545a1.085,1.085,0,0,0-.014-.215,3.442,3.442,0,0,0-4.679,3.229V58.935a1.087,1.087,0,0,0,.014.215,3.443,3.443,0,0,0,4.679-3.229Z" transform="translate(-229.879 -38.627)"/>
    <path id="Path_2568" data-name="Path 2568" class="cls-3" d="M87.629,139.9A6.92,6.92,0,0,1,74.6,143.144,7.05,7.05,0,0,1,71.54,139.9H47.859a3.461,3.461,0,0,0-3.459,3.459V179.67a3.359,3.359,0,0,0,.043.545,3.359,3.359,0,0,0,.545.043h3.1a18.6,18.6,0,0,1,2.009-3.875c.043-.029,1.464-3,8.64-3.1.014-.029.014-.9.029-1.421-.144-.2-.287-.416-.431-.66a12.729,12.729,0,0,1-1.363-1.105,7.227,7.227,0,0,1-2.512-4.464,69.681,69.681,0,0,1-.847-7.2c0-5.483,2.182-11.037,10.291-11.037h.215c4.55,0,7.219,1.737,8.712,4.248,3.387,1.981,4.449,5.841,4.449,9.659a65.927,65.927,0,0,1-.847,7.2,7.227,7.227,0,0,1-2.512,4.464,9.959,9.959,0,0,1-.818.7c3.889.832,4.779,2.684,4.808,2.7a12,12,0,0,1,.675,1.048,4.855,4.855,0,0,1,2.2,1.823,10.031,10.031,0,0,1,.646,1h29.264a3.461,3.461,0,0,0,3.459-3.459v-36.3a3.357,3.357,0,0,0-.043-.545,3.359,3.359,0,0,0-.545-.043Z" transform="translate(-38.028 -119.821)"/>
    <path id="Path_2569" data-name="Path 2569" class="cls-1" d="M335.676,227.445H314.922a1.722,1.722,0,0,1,0-3.445h20.739a1.722,1.722,0,0,1,.014,3.445Z" transform="translate(-268.249 -191.851)"/>
    <path id="Path_2570" data-name="Path 2570" class="cls-1" d="M335.676,272.445H314.922a1.722,1.722,0,1,1,0-3.445h20.739a1.722,1.722,0,0,1,.014,3.445Z" transform="translate(-268.249 -230.393)"/>
    <path id="Path_2571" data-name="Path 2571" class="cls-1" d="M314.922,311.3H325.3a1.722,1.722,0,0,1,0,3.445H314.922a1.722,1.722,0,0,1,0-3.445Z" transform="translate(-268.249 -266.622)"/>
  </g>
</svg>
