<svg xmlns="http://www.w3.org/2000/svg" viewBox="0 0 237.78 30"><defs><style>.a{fill:#516676;}</style></defs><title>thenewyorktimes</title><path class="a" d="M17.82,3.1C17.82.63,15.38-.11,13.46,0V.38c1.15,0,2.18.37,2.18,1.24,0,.49-.39,1.23-1.54,1.23a16.86,16.86,0,0,1-4.23-1A15.75,15.75,0,0,0,5.26.75,4.26,4.26,0,0,0,.77,4.83,2.8,2.8,0,0,0,2.82,7.54L3,7.29a1.54,1.54,0,0,1-.64-1.35A1.6,1.6,0,0,1,4.1,4.58,19.32,19.32,0,0,1,8.84,5.69a39.56,39.56,0,0,0,4.75,1V10.5l-2.05,1.61v.12l1.92,1.6v5.31a6.09,6.09,0,0,1-3.21.74,6.71,6.71,0,0,1-5.12-2l5.25-2.47V6.92L4,9.76A8.72,8.72,0,0,1,7.43,6.18l-.12-.24C3.46,6.92,0,10.38,0,14.57a8.9,8.9,0,0,0,9.1,8.77c5.26,0,8.59-3.95,8.46-8.15H17.3a9.25,9.25,0,0,1-3.33,4V14l2-1.61v-.12l-2-1.6v-4A3.61,3.61,0,0,0,17.82,3.1ZM6.67,16.92l-1.54.74A7.11,7.11,0,0,1,3.72,13a9.49,9.49,0,0,1,.38-2.71L6.79,9.14Zm13.58,2.71-1.66,1.24.25.24.77-.61,2.95,2.59,3.85-2.47-.13-.25-1,.62L24,19.76V11.24l1-.74,2.17,1.73v7.53c0,4.69-1,5.43-3.33,6.29v.37c3.72.12,6.92-1,6.92-7V11.12l1.29-.86L31.79,10l-1,.74-3.2-2.59-3.72,2.71V.51h-.25L19,3.47v.25a1.8,1.8,0,0,1,1.28,2ZM44,18.28l-3.21,2.34-3.33-2.47V16.67l6.15-4V12.6L40.51,8l-6.67,3.46v8.14l-1.28,1,.25.25L34,20l4.36,3.09,5.89-4.44Zm-6.54-2V10.13l.26-.12,2.82,4.32ZM68.71,2A3.45,3.45,0,0,0,68.45.88h-.26A2.08,2.08,0,0,1,66,2.48a3.44,3.44,0,0,1-2.43-1.11L59.86,5.44l.26.25,1-1.11a4.74,4.74,0,0,0,3.21,1.23V16.06L56.78,3.47c-.64-1-1.53-2.35-3.33-2.35-2.05,0-3.84,1.73-3.72,4.57h.39c.13-.74.51-1.6,1.41-1.6A1.94,1.94,0,0,1,53.2,5.32V9.39c-2.31,0-3.85,1-3.85,2.84a2.72,2.72,0,0,0,2.18,2.84v-.25a1.09,1.09,0,0,1-.39-.86c0-.74.52-1.11,1.54-1.11h.64v5.3c-2.69,0-4.87,1.48-4.87,4s2.18,3.46,4.36,3.33v-.24c-1.41-.13-2.18-.74-2.18-1.61,0-1.11.77-1.6,1.8-1.6A3.52,3.52,0,0,1,55,23.34l3.72-3.95-.26-.25-.9,1a6.18,6.18,0,0,0-3.84-1.85V5.69l10.38,17.4h.77V5.69A4,4,0,0,0,68.71,2Zm9.22,16.29-3.2,2.34L71.4,18.15V16.67l6.15-4V12.6L74.47,8.16l-6.53,3.33v8.14l-1.29,1,.26.25L68.06,20l4.36,3.09,5.9-4.44C78.19,18.65,77.93,18.28,77.93,18.28Zm-6.4-2V10.13l.25-.12,2.82,4.32ZM99.08,9.39l-.89.74-2.44-2-2.82,2.47,1.16,1.11V21L91,19V11.49l1-.74L89,8,86.14,10.5l1.15,1.11V20.5l-.38.24-2.69-1.85v-7.4c0-1.73-.9-2.22-2.06-3-1-.5-1.41-1-1.41-1.85s.77-1.11,1.16-1.36V5.07c-1,0-3.72,1-3.85,3.46a2.91,2.91,0,0,0,1.28,2.34,2.87,2.87,0,0,1,1.29,2.22v7.16l-1.41,1,.25.25,1.28-1,3.47,2.59,3.2-2.1L91,23.09l6.92-3.83V10.87L99.6,9.64Zm24-6.79-1.29,1.12-3-2.47-4.22,3V1.49h-.39l.13,20.12a14.14,14.14,0,0,1-2.44-.5l-.12-16.78a3.07,3.07,0,0,0-3.08-3h-.13a3.59,3.59,0,0,0-3.85,3.46h.39c.13-.74.51-1.36,1.28-1.36s1.54.49,1.54,2.1v4.81c-2.44.12-3.72,1.36-3.72,3a2.41,2.41,0,0,0,2.18,2.59v-.24a1,1,0,0,1-.64-.87c0-.74.77-1,1.67-1h.25v7.66A3.48,3.48,0,0,0,105,24.94c0,2.1,1.67,3.58,4.23,3.58a22.15,22.15,0,0,0,5-.62,30.37,30.37,0,0,1,3.72-.61c1,0,1.41.49,1.41,1.11,0,.86-.39,1.23-.9,1.35V30c2.18-.37,3.33-1.6,3.33-3.46s-1.92-3-4-3a26.59,26.59,0,0,0-4.74.74,31.25,31.25,0,0,1-4.1.62c-.9,0-2.06-.37-2.06-1.6,0-1,.9-1.85,3.08-1.85a15.92,15.92,0,0,1,4,.49,19,19,0,0,0,4.36.74c1.93,0,3.59-.62,3.59-3.33V4.09l1.54-1.24Zm-5.26,7.66a2.26,2.26,0,0,1-1.54.74,1.83,1.83,0,0,1-1.54-.74V4.7L116,3.84l1.8,1.6Zm0,3.7a2.42,2.42,0,0,0-1.54-.62,2.18,2.18,0,0,0-1.54.62V10.75a2.22,2.22,0,0,0,3.08,0Zm0,5.8a2,2,0,0,1-2,2h-1V14.45a3.56,3.56,0,0,1,1.54-.74,2.26,2.26,0,0,1,1.54.74ZM135.49,11l-4.23-2.84L125,11.61v8.15l-1.28,1,.12.25,1-.74,4.1,3,6.41-3.7Zm-6.92,7.77V9.89l3.2,2.22V21ZM147.79,8.4h-.25a1.94,1.94,0,0,1-1.16.5A2.12,2.12,0,0,1,145,8.28h-.25l-2.18,2.35-2.18-2.35-3.85,2.59.13.25,1-.62L139,11.86v7.9L137.28,21l.26.25.77-.62,3.07,2.59,4-2.59-.13-.25-1.15.62-1.54-1.36V10.87a3.1,3.1,0,0,0,2.31,1.24C146.64,12.11,147.67,10.26,147.79,8.4Zm15.51,12L159,23.21l-6-8.64,4.23-6.29h.26a3.55,3.55,0,0,0,2.18,1,2.45,2.45,0,0,0,1.92-1h.26c-.13,2.47-1.93,4-3.21,4a4.48,4.48,0,0,1-2.69-1l-.38.62,6.4,9.25,1.29-.74Zm-14.22-.74-1.67,1.24.26.24.76-.61,2.95,2.59,3.85-2.47-.26-.25L154,21l-1.29-1.23V.51h-.12l-4.62,3v.25a1.64,1.64,0,0,1,1.28,1.85ZM184.84,3.1c0-2.47-2.44-3.21-4.36-3.09V.38c1.15,0,2.18.37,2.18,1.24,0,.49-.39,1.23-1.54,1.23a16.86,16.86,0,0,1-4.23-1,17.58,17.58,0,0,0-4.49-1A4.25,4.25,0,0,0,167.92,5,2.79,2.79,0,0,0,170,7.66l.13-.24a1.3,1.3,0,0,1-.77-1.24,1.6,1.6,0,0,1,1.79-1.35,19.37,19.37,0,0,1,4.75,1.11,36.9,36.9,0,0,0,4.74,1v3.83l-1.92,1.6v.13l1.92,1.6v5.31a6.19,6.19,0,0,1-3.21.74,6.71,6.71,0,0,1-5.12-2l5.25-2.46V6.92L171,9.76a8.06,8.06,0,0,1,3.47-3.58l-.13-.24c-3.85,1-7.31,4.44-7.31,8.63a8.9,8.9,0,0,0,9.1,8.77c5.26,0,8.59-3.95,8.46-8.15h-.25a9.34,9.34,0,0,1-3.34,4V14l2-1.61v-.12l-2-1.6v-4A3.68,3.68,0,0,0,184.84,3.1ZM173.56,16.92l-1.54.74A7.13,7.13,0,0,1,170.48,13a9.15,9.15,0,0,1,.39-2.71l2.69-1.12ZM189.2,2h-.13l-2.56,2.1v.12l2.17,2.34h.26l2.56-2.09V4.33Zm4,18.38-1,.62-1.29-1.23V11.12l1.29-.86-.26-.25-.9.62L188.68,8,185,10.5l.25.37.9-.61,1.15,1.35v8.15L185.61,21l.13.25.89-.62,2.82,2.47,3.85-2.47Zm21.54-.24-.9.61-1.41-1.23V11.12l1.28-1-.13-.24-1.15.86-3-2.59-3.85,2.59-2.94-2.59-3.72,2.59-2.31-2.59-3.72,2.47L193,11l.9-.62,1.28,1.36v8l-1,1,2.94,2.35L200,20.62l-1.15-1.11V11.12l1.15-.74,2,1.73v7.65l-1,1,2.95,2.35,2.82-2.47-1.16-1.11V11.12l1-.62,2.18,1.73v7.4l-.9.87L211,23.09l4-2.59Zm11.15-1.85-3.21,2.34-3.33-2.47V16.67l6.15-4V12.6L222.4,8.16l-6.67,3.45V20l4.49,3.09,5.89-4.44Zm-6.41-2V10.13l.25-.12,2.82,4.32Zm18.33-1.23-2.44-1.85a6.08,6.08,0,0,0,2.31-4.57V7.79h-.51A1.85,1.85,0,0,1,235.34,9,2.88,2.88,0,0,1,233,7.79l-5.77,3.08v4.57l2.18,1.6c-2.18,1.85-2.57,3.21-2.57,4.07a2.75,2.75,0,0,0,1.67,2.6l.13-.25a1.09,1.09,0,0,1-.52-1c0-.37.52-1,1.54-1a3.45,3.45,0,0,1,2.44,1.23l5.64-3.21Zm-1.41-3.7a13.8,13.8,0,0,1-4,3.7L231,14V9.64a3.82,3.82,0,0,0,3.34,2.22A3.87,3.87,0,0,0,236.37,11.37Zm-2.31,9.87a4.26,4.26,0,0,0-3.72-2.35,4.58,4.58,0,0,0-2.43.62,14.08,14.08,0,0,1,4.48-4l1.54,1.24v4.44Z"/></svg>