<svg xmlns="http://www.w3.org/2000/svg" viewBox="0 0 642.79 702.72"><defs><style>.a{fill:#ebf6fd;}.b{fill:#231f20;}.c{fill:#fff;}</style></defs><title>Asset 19</title><path class="a" d="M64,112V663.14A89.09,89.09,0,0,0,90,667H504c49.5,0,90-40.5,90-90V90a89.59,89.59,0,0,0-3-23H109A45.13,45.13,0,0,0,64,112Z"/><path d="M504,28a62.28,62.28,0,0,1,62,62V577a62.28,62.28,0,0,1-62,62H90a62.28,62.28,0,0,1-62-62V90A62.28,62.28,0,0,1,90,28H504m0-28H90C40.5,0,0,40.5,0,90V577c0,49.5,40.5,90,90,90H504c49.5,0,90-40.5,90-90V90c0-49.5-40.5-90-90-90Z"/><path d="M477.77,223.67H252.67a14,14,0,0,1,0-28h225.1a14,14,0,0,1,0,28Z"/><path d="M477.77,347.5H252.67a14,14,0,1,1,0-28h225.1a14,14,0,0,1,0,28Z"/><path d="M392.63,480.67h-140a14,14,0,0,1,0-28h140a14,14,0,0,1,0,28Z"/><path class="b" d="M97.14,191.47a6.25,6.25,0,0,1,0-8.44l8.67-8.44a5.23,5.23,0,0,1,4.1-1.87,6,6,0,0,1,4.34,1.87l26.25,26.25,56.25-56.25a6,6,0,0,1,4.34-1.87,5.23,5.23,0,0,1,4.1,1.87l8.67,8.44a6.25,6.25,0,0,1,0,8.44l-69.14,68.91a5.7,5.7,0,0,1-8.44,0Z"/><path class="b" d="M97.14,317.05a6.25,6.25,0,0,1,0-8.44l8.67-8.44a5.23,5.23,0,0,1,4.1-1.87,6,6,0,0,1,4.34,1.87l26.25,26.25,56.25-56.25a6,6,0,0,1,4.34-1.87,5.23,5.23,0,0,1,4.1,1.87l8.67,8.44a6.25,6.25,0,0,1,0,8.44L144.72,356a5.68,5.68,0,0,1-8.44,0Z"/><path class="b" d="M97.14,442.62a6.24,6.24,0,0,1,0-8.43l8.67-8.44a5.23,5.23,0,0,1,4.1-1.87,6,6,0,0,1,4.34,1.87L140.5,452l56.25-56.25a6,6,0,0,1,4.34-1.87,5.23,5.23,0,0,1,4.1,1.87l8.67,8.44a6.24,6.24,0,0,1,0,8.43l-69.14,68.91a5.68,5.68,0,0,1-8.44,0Z"/><circle class="c" cx="553.48" cy="613.41" r="78.56"/><path class="a" d="M499.92,636.41a78.19,78.19,0,0,0,14.14,44.94A78.54,78.54,0,0,0,617.89,568.46a78.55,78.55,0,0,0-118,67.95Z"/><path d="M553.48,702.72a89.31,89.31,0,1,1,89.31-89.31A89.41,89.41,0,0,1,553.48,702.72Zm0-157.12a67.81,67.81,0,1,0,67.81,67.81A67.89,67.89,0,0,0,553.48,545.6Z"/><path class="b" d="M503.71,621.12a5.11,5.11,0,0,1,0-6.9l7.1-6.91a4.28,4.28,0,0,1,3.36-1.53,4.9,4.9,0,0,1,3.55,1.53L539.2,628.8l46-46a4.89,4.89,0,0,1,3.55-1.54,4.31,4.31,0,0,1,3.36,1.54l7.09,6.9a5.1,5.1,0,0,1,0,6.91L542.65,653a4.65,4.65,0,0,1-6.9,0Z"/></svg>