<svg xmlns="http://www.w3.org/2000/svg" viewBox="0 0 70.37 38"><defs><style>.a{fill:#516777;}</style></defs><title>wallstreetjournal</title><path class="a" d="M2,2.58.15,2.29H0V.84H10.15V2.29H9.87c-1.15-.15-1.74.29-1.74,1.45v.73l4.35,22.35,2.6-14.66L13.63,4.77c-.29-1.89-1-2.61-2.33-2.48h-.15V.84H21V2.29h-.15c-1.6-.15-2.33.44-2.33,1.74L22.9,26.66h.29L27.12,5.19V4.33c0-1.6-.74-2.19-2.33-2h-.44V.84H32.9V2.29h-.42l-2,.29-1.3,2.9L22.31,37.83h-2l-4.2-21.17L11.74,37.83H9.58L3.05,4.77Z"/><path class="a" d="M48,.42V13.19h-1.3v-.44c0-7.25-2-10.88-6.09-10.88-2.76-.15-4.21,1.3-4.08,4.49A8,8,0,0,0,38,11l4.35,3.93,5.38,5.37a14.3,14.3,0,0,1,2.18,8c0,6.09-2.9,9.13-8.57,9.13a10.88,10.88,0,0,1-6.53-2.33l-.89,2.19h-1V24.35h1.15v.44c0,3.9.86,6.82,2.46,8.84a5.78,5.78,0,0,0,4.35,2.19c3.34,0,5.08-1.9,5.08-5.8,0-3.64-2.18-7.1-6.53-10.44S32.6,12.6,32.6,8.4a7.37,7.37,0,0,1,2.31-6.09A6.33,6.33,0,0,1,40.14,0a8.74,8.74,0,0,1,6,2.31l1-1.89Z"/><path class="a" d="M58.19,28.69c0,2.19-1,3.34-3.2,3.49l1,2.75a3.69,3.69,0,0,0,2.9,1.31l2.61-1.16.73-4V4.47c-.15-1.45-.73-2.18-2-2.18h-1V.84H70.37V2.29h-1a1.74,1.74,0,0,0-1.89,2.18V30c-.15,5.23-2.9,7.83-8.27,8a5.9,5.9,0,0,1-4.5-2A7.83,7.83,0,0,1,52.39,30l1.15-2.9,1.9-1A2.53,2.53,0,0,1,58.19,28.69Z"/></svg>