<svg xmlns="http://www.w3.org/2000/svg" viewBox="-2511.872 1515.992 78.397 69.864">
  <defs>
    <style>
      .cls-1 {
        fill: #ecf7fd;
      }

      .cls-2 {
        fill: #010101;
      }
    </style>
  </defs>
  <g id="wallet" transform="translate(-2511.872 1516.026)">
    <path id="Path_2551" data-name="Path 2551" class="cls-1" d="M116.224,207.359H58.831a5.046,5.046,0,0,1-5.031-5.031V163.8h62.424a5.046,5.046,0,0,1,5.031,5.031v33.5A5.046,5.046,0,0,1,116.224,207.359Z" transform="translate(-46.282 -140.939)"/>
    <path id="Path_2552" data-name="Path 2552" class="cls-2" d="M78.383,61.305h0a8.523,8.523,0,0,1-8.524,8.524H8.524A8.523,8.523,0,0,1,0,61.305V11.891a6.82,6.82,0,0,1,6.82-6.82H41.183l13.807-5a1.7,1.7,0,0,1,2.166,1.006l1.453,4h6.149a6.82,6.82,0,0,1,6.82,6.82V15.3h0a6.82,6.82,0,0,1,6.82,6.82V61.305ZM6.82,8.481h0a3.41,3.41,0,0,0,0,6.82H13.01a.193.193,0,0,0,.056-.042L31.778,8.481Zm49.54.307L54.557,3.8h0L51.063,5.072h0l-9.391,3.41h-.028L22.834,15.3H58.721Zm11.795,3.1a3.405,3.405,0,0,0-3.41-3.41H59.825L62.3,15.3H68.14v-3.41Zm3.41,6.82H6.82a6.755,6.755,0,0,1-3.41-.95V61.305A5.117,5.117,0,0,0,8.524,66.42H69.873a5.117,5.117,0,0,0,5.115-5.115V49.371h-6.82a6.82,6.82,0,1,1,0-13.639h6.82V22.107A3.424,3.424,0,0,0,71.564,18.711Zm3.41,27.25v-6.82h-6.82a3.41,3.41,0,0,0,0,6.82Z" transform="translate(0 0)"/>
    <path id="Path_2553" data-name="Path 2553" class="cls-1" d="M240.264,43.9l-2.795,1.02h0l-9.391,3.4h-.028L214.9,53.1h28.69Z" transform="translate(-184.869 -37.794)"/>
    <g id="Group_77" data-name="Group 77" transform="translate(26.677 36.333)">
      <path id="Path_2554" data-name="Path 2554" d="M196.783,270.15a4.005,4.005,0,0,1-1.873.727l-.028.8h-1.034l.028-.769a4.09,4.09,0,0,1-2.977-1.467L191.962,268a3.065,3.065,0,0,0,2.068,1.188l.042-2.4-.489-.2a5.062,5.062,0,0,1-1.3-.713,2.528,2.528,0,0,1-1.006-2.054,2.661,2.661,0,0,1,.95-2.082,3.692,3.692,0,0,1,2.012-.755l.028-.783H195.3l-.014.811a3.645,3.645,0,0,1,2.418,1.16l-.894,1.425a2.936,2.936,0,0,0-1.691-.964l-.056,2.306.908.391a2.794,2.794,0,0,1,1.9,2.627A2.679,2.679,0,0,1,196.783,270.15ZM194.24,262.6a.942.942,0,0,0-.936.964,1.061,1.061,0,0,0,.741.964l.154.07Zm.978,4.57-.224-.112-.042,2.152a1.064,1.064,0,0,0,.964-.992A1.076,1.076,0,0,0,195.218,267.173Z" transform="translate(-190.9 -260.2)"/>
      <path id="Path_2555" data-name="Path 2555" d="M261.383,270.15a4.005,4.005,0,0,1-1.873.727l-.028.8h-1.034l.028-.769a4.09,4.09,0,0,1-2.977-1.467L256.548,268a3.065,3.065,0,0,0,2.068,1.188l.042-2.4-.489-.2a5.063,5.063,0,0,1-1.3-.713,2.528,2.528,0,0,1-1.006-2.054,2.661,2.661,0,0,1,.95-2.082,3.693,3.693,0,0,1,2.012-.755l.028-.783h1.034l-.014.811a3.646,3.646,0,0,1,2.418,1.16L261.4,263.6a2.936,2.936,0,0,0-1.691-.964l-.056,2.306.908.391a2.8,2.8,0,0,1,1.9,2.627A2.707,2.707,0,0,1,261.383,270.15Zm-2.557-7.546a.942.942,0,0,0-.936.964,1.061,1.061,0,0,0,.741.964l.154.07Zm.978,4.57-.224-.112-.042,2.152a1.052,1.052,0,0,0,.266-2.04Z" transform="translate(-246.472 -260.2)"/>
      <path id="Path_2556" data-name="Path 2556" d="M325.8,270.15a4,4,0,0,1-1.873.727l-.028.8h-1.048l.028-.769a4.09,4.09,0,0,1-2.977-1.467L320.962,268a3.065,3.065,0,0,0,2.068,1.188l.042-2.4-.489-.2a5.061,5.061,0,0,1-1.3-.713,2.528,2.528,0,0,1-1.006-2.054,2.661,2.661,0,0,1,.95-2.082,3.692,3.692,0,0,1,2.012-.755l.028-.783H324.3l-.014.811a3.645,3.645,0,0,1,2.418,1.16l-.894,1.425a2.936,2.936,0,0,0-1.691-.964l-.056,2.306.908.391a2.794,2.794,0,0,1,1.9,2.627A2.707,2.707,0,0,1,325.8,270.15ZM323.24,262.6a.942.942,0,0,0-.936.964,1.061,1.061,0,0,0,.741.964l.154.07Zm.978,4.57-.224-.112-.042,2.152a1.052,1.052,0,0,0,.266-2.04Z" transform="translate(-301.873 -260.2)"/>
    </g>
  </g>
</svg>
