<svg width="200" height="200" viewBox="0 0 200 200" fill="none" xmlns="http://www.w3.org/2000/svg">
<rect width="200" height="200" fill="white"/>
<rect width="200" height="200" fill="white"/>
<path d="M121 59.0057V140.756C121 149.903 127.308 155 134 155C140.19 155 147 150.665 147 140.756V59.625C147 51.2394 140.81 46 134 46C127.19 46 121 51.7782 121 59.0057Z" fill="#F9AB00"/>
<path d="M87 100.908V140.862C87 149.941 93.3081 155 100 155C106.19 155 113 150.697 113 140.862V101.523C113 93.2002 106.81 88 100 88C93.1905 88 87 93.735 87 100.908Z" fill="#E37400"/>
<path d="M66 155C73.1797 155 79 149.18 79 142C79 134.82 73.1797 129 66 129C58.8203 129 53 134.82 53 142C53 149.18 58.8203 155 66 155Z" fill="#E37400"/>
</svg>
