<svg xmlns="http://www.w3.org/2000/svg" viewBox="0 0 59.33 59.33"><defs><style>.a{fill:none;stroke:#506677;stroke-miterlimit:10;stroke-width:5px;}.b{fill:#506677;}</style></defs><title>Asset 1</title><path class="a" d="M25.9,33.44a4.09,4.09,0,0,1,0-5.79l0,0c1-1,9.17-6.87,15.06-11.13a1.31,1.31,0,0,1,1.8.33,1.22,1.22,0,0,1,0,1.47c-4.25,5.9-10.07,14.08-11.13,15.06a3.88,3.88,0,0,1-5.49.32Z"/><circle class="b" cx="49.17" cy="29.67" r="2.5"/><circle class="b" cx="29.67" cy="10.17" r="2.5"/><circle class="b" cx="15.77" cy="15.77" r="2.5"/><circle class="b" cx="10.17" cy="29.67" r="2.5"/><circle class="b" cx="15.77" cy="43.57" r="2.5"/><circle class="b" cx="43.57" cy="43.57" r="2.5"/><path class="b" d="M29.67,5A24.67,24.67,0,1,1,5,29.67,24.69,24.69,0,0,1,29.67,5m0-5A29.67,29.67,0,1,0,59.33,29.67,29.67,29.67,0,0,0,29.67,0Z"/></svg>