<?xml version="1.0" encoding="utf-8"?>
<svg version="1.1" id="Layer_1" xmlns="http://www.w3.org/2000/svg" xmlns:xlink="http://www.w3.org/1999/xlink" x="0px" y="0px"
	 viewBox="0 0 58 58" style="enable-background:new 0 0 58 58;" xml:space="preserve">
<style type="text/css">
	.st0{fill:#506677;}
</style>
<path class="st0" d="M40.2,5c0.5,0,0.9,0.4,1,0.9c0,0,0,0,0,0.1v39.6c0,0.5-0.4,1-1,1H8.9c-0.5,0-1-0.5-0.9-1V5.9c0-0.5,0.4-1,0.9-1
	c0,0,0,0,0.1,0L40.2,5 M40.2-0.1H8.9C5.7,0,3,2.7,3,5.9v39.6c0,3.3,2.7,6,5.9,6h31.3c3.3,0,6-2.7,6-6V5.9C46.1,2.7,43.5,0,40.2-0.1
	L40.2-0.1z"/>
<path class="st0" d="M48.2,7h-2v5h2c0.5,0,1,0.5,1,1v39.6c0,0.5-0.4,1-1,1H17c-0.5,0-1-0.5-1-1v-1h-5v1c0,3.3,2.7,6,6,6h31.2
	c3.3,0,6-2.7,6-6V12.9C54.1,9.7,51.5,7,48.2,7z"/>
<path class="st0" d="M15,11.6h19.3c0.8,0,1.5,0.7,1.5,1.5l0,0c0,0.8-0.7,1.5-1.5,1.5H15c-0.8,0-1.5-0.7-1.5-1.5l0,0
	C13.5,12.3,14.2,11.6,15,11.6z"/>
<path class="st0" d="M15,20h19.3c0.8,0,1.5,0.7,1.5,1.5l0,0c0,0.8-0.7,1.5-1.5,1.5H15c-0.8,0-1.5-0.7-1.5-1.5l0,0
	C13.5,20.7,14.2,20,15,20z"/>
<path class="st0" d="M15,28.5h19.3c0.8,0,1.5,0.7,1.5,1.5l0,0c0,0.8-0.7,1.5-1.5,1.5H15c-0.8,0-1.5-0.7-1.5-1.5l0,0
	C13.5,29.1,14.2,28.5,15,28.5z"/>
<path class="st0" d="M15,36.9h19.3c0.8,0,1.5,0.7,1.5,1.5l0,0c0,0.8-0.7,1.5-1.5,1.5H15c-0.8,0-1.5-0.7-1.5-1.5l0,0
	C13.5,37.5,14.2,36.9,15,36.9z"/>
</svg>
