<svg width="1343" height="851" viewBox="0 0 1343 851" fill="none" xmlns="http://www.w3.org/2000/svg">
<rect x="689" y="103.563" width="42.9117" height="42.9117" rx="8" transform="rotate(-14.25 689 103.563)" fill="#FFC35A"/>
<rect x="690.215" y="104.286" width="40.9117" height="40.9117" rx="7" transform="rotate(-14.25 690.215 104.286)" stroke="black" stroke-opacity="0.1" stroke-width="2"/>
<rect x="701.221" y="118.281" width="26.4673" height="8.55805" rx="4.27903" transform="rotate(-14.25 701.221 118.281)" stroke="#4D3815" stroke-width="3"/>
<rect x="704.845" y="120.183" width="20.3795" height="3.08781" rx="1.5439" transform="rotate(-14.25 704.845 120.183)" fill="#4D3815" fill-opacity="0.3"/>
<path d="M705.225 121.68C705.015 120.853 705.515 120.013 706.341 119.803L718.312 116.763L719.072 119.756L707.101 122.796C706.275 123.006 705.435 122.506 705.225 121.68V121.68Z" fill="#4D3815"/>
<rect width="79.9113" height="79.9113" rx="30" transform="matrix(0.991445 -0.130526 0.221378 0.975188 191 96.4304)" fill="black"/>
<rect width="13.7347" height="6.24307" rx="3.12153" transform="matrix(0.991445 -0.130526 0.221378 0.975188 219.364 120.285)" fill="white"/>
<rect width="10.6132" height="6.24307" rx="3.12153" transform="matrix(0.991445 -0.130526 0.221378 0.975188 249.29 125.75)" fill="#EC4D38"/>
<rect width="18.1049" height="6.24307" rx="3.12153" transform="matrix(0.991445 -0.130526 0.221378 0.975188 236.076 118.084)" fill="#FF9C3E"/>
<rect width="26.2209" height="6.24307" rx="3.12153" transform="matrix(0.991445 -0.130526 0.221378 0.975188 217.291 111.153)" fill="#EC4D38"/>
<rect width="24.9723" height="6.24307" rx="3.12153" transform="matrix(0.991445 -0.130526 0.221378 0.975188 221.437 129.417)" fill="#EC4D38"/>
<rect width="16.8563" height="6.24307" rx="3.12153" transform="matrix(0.991445 -0.130526 0.221378 0.975188 223.51 138.549)" fill="#FF9C3E"/>
<rect width="11.2375" height="6.24307" rx="3.12153" transform="matrix(0.991445 -0.130526 0.221378 0.975188 225.583 147.681)" fill="white"/>
<rect width="12.4861" height="6.24307" rx="3.12153" transform="matrix(0.991445 -0.130526 0.221378 0.975188 239.2 145.889)" fill="#EC4D38"/>
<rect width="13.7347" height="6.24307" rx="3.12153" transform="matrix(0.991445 -0.130526 0.221378 0.975188 243.317 135.942)" fill="white"/>
<rect width="58.9994" height="58.9994" rx="15" transform="matrix(0.994522 0.104528 -0.416757 0.909018 401.588 31)" fill="#0ACF84"/>
<rect x="0.577765" y="1.01355" width="56.9994" height="56.9994" rx="14" transform="matrix(0.994522 0.104528 -0.416757 0.909018 402.014 31.0318)" stroke="black" stroke-opacity="0.1" stroke-width="2"/>
<path d="M405.027 58.7817C404.523 58.7288 403.912 59.0793 403.94 59.5168C403.991 60.3375 404.795 60.8804 406.152 61.023C408.028 61.2201 409.525 60.5095 410.124 59.2042C410.592 58.1825 410.161 57.5474 408.766 57.1224L408.095 56.9198C407.383 56.7035 407.145 56.4803 407.302 56.1383C407.477 55.7557 407.99 55.5265 408.645 55.5953C408.935 55.6258 409.165 55.7071 409.317 55.8291C409.62 56.0736 409.825 56.5025 410.279 56.5502V56.5502C410.757 56.6005 411.336 56.271 411.333 55.8491C411.326 55.0235 410.602 54.447 409.223 54.302C407.588 54.1302 406.032 54.8111 405.458 56.0624C405.004 57.0526 405.447 57.7643 406.753 58.1564L407.424 58.3591C408.198 58.5961 408.419 58.8127 408.254 59.1728C408.072 59.5689 407.482 59.8088 406.778 59.7348C406.433 59.6985 406.155 59.5995 405.979 59.451C405.691 59.2087 405.467 58.828 405.027 58.7817V58.7817Z" fill="white"/>
<path d="M415.21 61.1588C415.378 60.7909 415.189 60.4584 414.786 60.4161L413.176 60.2468C412.776 60.2048 412.588 59.8745 412.756 59.5091V59.5091C412.923 59.1437 413.383 58.8816 413.783 58.9236L415.275 59.0804C415.642 59.119 416.064 58.8782 416.218 58.5426V58.5426C416.372 58.2071 416.199 57.9037 415.832 57.8651L414.323 57.7065C413.932 57.6655 413.749 57.3431 413.912 56.9864V56.9864C414.076 56.6296 414.525 56.3737 414.915 56.4147L416.542 56.5858C416.945 56.6281 417.408 56.3642 417.577 55.9963V55.9963C417.745 55.6284 417.556 55.2958 417.153 55.2535L415.447 55.0742C414.102 54.9328 412.555 55.8147 411.992 57.044L411.055 59.0874C410.491 60.3166 411.124 61.4277 412.469 61.569L414.176 61.7484C414.578 61.7907 415.041 61.5267 415.21 61.1588V61.1588Z" fill="white"/>
<path d="M422.267 55.6731C420.115 55.4469 418.164 56.5958 417.215 58.6662C416.265 60.7367 417.029 62.1663 419.186 62.3929C421.338 62.6191 423.282 61.4742 424.232 59.4038C425.181 57.3333 424.419 55.8992 422.267 55.6731ZM421.652 57.0143C422.662 57.1204 422.962 57.9729 422.395 59.2107C421.83 60.444 420.811 61.1578 419.801 61.0517C418.787 60.945 418.491 60.093 419.056 58.8598C419.624 57.622 420.643 56.9082 421.652 57.0143Z" fill="white"/>
<path d="M408.241 63.5403C409.159 65.6823 411.295 67.2048 414.315 67.5222C419.773 68.0958 426.051 64.517 428.338 59.5287C430.625 54.5404 428.055 50.0316 422.597 49.458C419.34 49.1157 415.791 50.2524 412.972 52.2851" stroke="white" stroke-width="6" stroke-linecap="round"/>
<path d="M426.089 73.9803L422.443 66.2249" stroke="white" stroke-width="6" stroke-linecap="round"/>
<rect width="162.818" height="162.818" rx="30" transform="matrix(0.975342 0.220697 -0.301205 0.953559 1184.04 35)" fill="#020F46"/>
<rect x="0.674137" y="1.17426" width="160.818" height="160.818" rx="29" transform="matrix(0.975342 0.220697 -0.301205 0.953559 1184.41 34.9058)" stroke="black" stroke-opacity="0.1" stroke-width="2"/>
<path d="M1225.9 173.137C1209.27 169.373 1199.92 153.079 1205.05 136.818L1209.67 122.19C1210.06 120.978 1211.37 120.222 1212.61 120.503L1223.31 122.924L1233.97 89.0573L1223.95 92.2183L1217.86 111.5C1217.47 112.712 1216.16 113.468 1214.92 113.187C1213.68 112.906 1212.99 111.697 1213.37 110.485L1219.54 90.9544C1219.97 89.5978 1221.11 88.4735 1222.52 88.0327L1233.62 84.5341C1235.1 84.069 1236.68 84.3897 1237.73 85.3726C1238.78 86.3555 1239.16 87.8518 1238.71 89.2806L1227.8 123.946L1240.54 126.829C1250.02 128.975 1255.36 138.264 1252.43 147.538C1249.5 156.812 1239.4 162.609 1229.91 160.463C1220.43 158.317 1215.1 149.027 1218.02 139.753L1221.94 127.318L1213.46 125.4L1209.54 137.833C1205.17 151.675 1213.12 165.547 1227.29 168.752C1241.45 171.957 1256.53 163.304 1260.9 149.455C1265.27 135.607 1257.31 121.74 1243.15 118.536L1239.26 117.655C1238.02 117.374 1237.32 116.164 1237.7 114.951C1238.09 113.739 1239.4 112.983 1240.64 113.264L1244.54 114.145C1261.17 117.909 1270.52 134.203 1265.39 150.464C1260.25 166.724 1242.53 176.9 1225.9 173.137ZM1226.42 128.331L1222.5 140.767C1220.34 147.622 1224.28 154.49 1231.29 156.077C1238.3 157.664 1245.77 153.377 1247.94 146.522C1250.1 139.666 1246.16 132.798 1239.15 131.212L1226.42 128.331Z" fill="#FF5B64"/>
<rect width="90" height="90" rx="20" transform="matrix(0.85264 -0.522499 -0.0165799 0.999863 999.492 47.0249)" fill="black"/>
<rect width="31.6406" height="31.6406" transform="matrix(0.85264 -0.522499 -0.0165799 0.999863 1029.59 57.1125)" fill="#FF9C3E"/>
<rect width="31.6406" height="31.6406" transform="matrix(0.85264 -0.522499 -0.0165799 0.999863 1018.2 64.0928)" fill="#E90000"/>
<path d="M1024.01 71.316C1024.02 70.7336 1024.43 70.0148 1024.93 69.7104L1038.72 61.2606C1039.22 60.9563 1039.61 61.1817 1039.6 61.7641C1039.59 62.3465 1039.18 63.0654 1038.68 63.3697L1024.89 71.8195C1024.4 72.1238 1024 71.8984 1024.01 71.316Z" fill="white"/>
<path d="M1023.93 76.2372C1023.94 75.6548 1024.35 74.9359 1024.85 74.6315L1038.64 66.1818C1039.13 65.8774 1039.53 66.1028 1039.52 66.6852C1039.51 67.2676 1039.1 67.9865 1038.6 68.2908L1024.81 76.7406C1024.32 77.045 1023.92 76.8196 1023.93 76.2372Z" fill="white"/>
<path d="M1023.85 81.1583C1023.86 80.5759 1024.27 79.857 1024.77 79.5527L1032.56 74.7767C1033.06 74.4724 1033.45 74.6978 1033.44 75.2802C1033.43 75.8626 1033.02 76.5815 1032.53 76.8858L1024.73 81.6618C1024.23 81.9661 1023.84 81.7407 1023.85 81.1583Z" fill="white"/>
<path d="M998.829 87.0194C999.195 64.931 1014.76 37.6677 1033.6 26.125L1042.12 20.9C1060.96 9.35725 1075.93 17.9062 1075.57 39.9945L1075.4 49.9932C1075.03 72.0815 1059.47 99.3449 1040.63 110.888L1032.11 116.113C1013.27 127.655 998.297 119.106 998.663 97.018L998.829 87.0194Z" fill="black"/>
<path d="M1029.33 72.9307C1029.47 64.1946 1035.63 53.4117 1043.08 48.8465L1056.57 40.5804L1056.31 56.3985C1056.16 65.1346 1050 75.9175 1042.55 80.4827C1035.1 85.048 1029.18 81.6668 1029.33 72.9307Z" fill="#FF9C3E"/>
<path d="M1017.94 79.9109C1018.08 71.1748 1024.24 60.3919 1031.69 55.8267C1039.14 51.2614 1045.06 54.6426 1044.91 63.3787C1044.77 72.1148 1038.61 82.8977 1031.16 87.463L1017.67 95.729L1017.94 79.9109Z" fill="#E90000"/>
<path d="M1024.01 71.316C1024.02 70.7336 1024.43 70.0148 1024.93 69.7104L1038.72 61.2606C1039.22 60.9563 1039.61 61.1817 1039.6 61.7641C1039.59 62.3465 1039.18 63.0654 1038.68 63.3697L1024.89 71.8195C1024.4 72.1238 1024 71.8984 1024.01 71.316Z" fill="white"/>
<path d="M1023.93 76.2372C1023.94 75.6548 1024.35 74.9359 1024.85 74.6315L1038.64 66.1818C1039.13 65.8774 1039.53 66.1028 1039.52 66.6852C1039.51 67.2676 1039.1 67.9865 1038.6 68.2908L1024.81 76.7406C1024.32 77.045 1023.92 76.8196 1023.93 76.2372Z" fill="white"/>
<path d="M1023.85 81.1583C1023.86 80.5759 1024.27 79.857 1024.77 79.5527L1032.56 74.7767C1033.06 74.4724 1033.45 74.6978 1033.44 75.2802C1033.43 75.8626 1033.02 76.5815 1032.53 76.8858L1024.73 81.6618C1024.23 81.9661 1023.84 81.7407 1023.85 81.1583Z" fill="white"/>
<rect y="99.0171" width="128" height="128" rx="30" transform="rotate(-18.218 0 99.0171)" fill="#182D45"/>
<circle cx="72.0467" cy="113.204" r="13" transform="rotate(-18.218 72.0467 113.204)" fill="#3C6DF6"/>
<circle cx="72.0467" cy="113.204" r="6" transform="rotate(-18.218 72.0467 113.204)" fill="white"/>
<circle cx="58.8815" cy="165.965" r="13" transform="rotate(-18.218 58.8815 165.965)" fill="#3C6DF6"/>
<circle cx="58.8815" cy="165.965" r="6" transform="rotate(-18.218 58.8815 165.965)" fill="white"/>
<circle cx="86.4278" cy="156.898" r="13" transform="rotate(-18.218 86.4278 156.898)" fill="#3C6DF6"/>
<circle cx="86.4279" cy="156.898" r="6" transform="rotate(-18.218 86.4279 156.898)" fill="white"/>
<circle cx="113.974" cy="147.832" r="13" transform="rotate(-18.218 113.974 147.832)" fill="#3C6DF6"/>
<circle cx="113.974" cy="147.832" r="6" transform="rotate(-18.218 113.974 147.832)" fill="white"/>
<path fill-rule="evenodd" clip-rule="evenodd" d="M84.6844 157.998L70.147 113.829L73.9465 112.579L88.4839 156.748L84.6844 157.998Z" fill="white"/>
<path fill-rule="evenodd" clip-rule="evenodd" d="M105.975 130.538C105.525 130.616 104.89 130.819 103.76 131.191L57.6909 146.354C56.54 146.733 55.8531 146.996 55.4226 147.235C55.2695 147.321 55.1871 147.382 55.1463 147.417C55.1394 147.498 55.1366 147.718 55.2329 148.183C55.3731 148.86 55.6547 149.763 56.0918 151.091L60.9376 165.814L57.1381 167.065L52.2923 152.342C51.8696 151.057 51.5106 149.934 51.316 148.994C51.125 148.072 51.0188 147.014 51.4002 145.99C51.8106 144.889 52.635 144.208 53.48 143.739C54.2844 143.292 55.3115 142.926 56.4403 142.554L102.63 127.352C103.593 127.034 104.516 126.73 105.295 126.596C106.162 126.446 107.249 126.431 108.254 127.133C109.134 127.747 109.624 128.702 109.975 129.53C110.338 130.387 110.711 131.521 111.156 132.873L116.03 147.681L112.231 148.932L107.385 134.209C106.905 132.749 106.582 131.776 106.292 131.092C106.174 130.813 106.083 130.638 106.02 130.53C106.006 130.533 105.991 130.535 105.975 130.538ZM55.1116 147.452C55.111 147.452 55.114 147.448 55.1226 147.439C55.1165 147.448 55.1122 147.452 55.1116 147.452Z" fill="white"/>
<rect x="848.369" y="60.6074" width="48" height="39" rx="8" transform="rotate(11.4979 848.369 60.6074)" fill="#232F3E"/>
<rect x="849.149" y="61.7867" width="46" height="37" rx="7" transform="rotate(11.4979 849.149 61.7867)" stroke="black" stroke-opacity="0.1" stroke-width="2"/>
<path d="M877.304 89.6602C874.03 90.0846 870.634 89.967 867.309 89.314C862.842 88.4009 858.646 86.5588 855.134 83.9688C854.852 83.7559 854.56 83.9686 854.778 84.2151C857.753 87.4878 862.016 89.8192 866.729 90.751C870.441 91.5172 874.256 91.3556 877.674 90.2874C878.173 90.0934 877.854 89.5931 877.35 89.6695L877.304 89.6602ZM880.326 88.9144C880.085 88.5467 877.494 87.7397 875.662 88.3233C875.384 88.4222 875.39 88.6256 875.663 88.65C876.6 88.7473 878.661 88.9644 878.943 89.4105C879.226 89.8567 878.149 91.2469 877.667 91.872C877.525 92.0531 877.728 92.1875 877.991 92.07C879.808 91.3668 880.639 89.3046 880.391 88.9275L880.326 88.9144Z" fill="#FF9A00"/>
<path d="M862.85 82.8403C862.781 82.6567 862.722 82.471 862.676 82.2841C862.652 82.0686 862.663 81.8539 862.71 81.6457L863.166 79.4061C863.263 79.0968 863.281 78.7689 863.217 78.4429C863.153 78.117 863.01 77.7999 862.795 77.5116C862.252 76.9656 861.489 76.5987 860.669 76.4881C860.22 76.3945 859.763 76.3486 859.309 76.3515C858.908 76.3471 858.511 76.384 858.129 76.4613C858.029 76.4769 857.937 76.5113 857.86 76.562C857.8 76.6272 857.765 76.7058 857.756 76.7897L857.686 77.1331C857.657 77.2749 857.697 77.3608 857.817 77.3851L857.954 77.4131L858.306 77.3759C858.626 77.3416 858.949 77.3243 859.274 77.3239C859.587 77.3274 859.901 77.3601 860.211 77.4212C860.718 77.4811 861.195 77.6976 861.542 78.0263C861.783 78.4032 861.844 78.8311 861.711 79.2191L861.608 79.7267C861.282 79.5904 860.971 79.4727 860.657 79.3699C860.358 79.2759 860.055 79.196 859.748 79.1308C859.005 78.945 858.228 78.9859 857.562 79.2459C857.272 79.3672 857.024 79.5445 856.838 79.7642C856.652 79.9838 856.534 80.24 856.491 80.5129C856.427 80.7563 856.425 81.0123 856.488 81.2646C856.55 81.517 856.675 81.76 856.854 81.9782C857.045 82.2018 857.287 82.3944 857.564 82.5443C857.841 82.6943 858.148 82.7984 858.465 82.8503C858.946 82.9542 859.439 82.9682 859.909 82.8914C860.379 82.8146 860.812 82.6489 861.177 82.4068C861.228 82.5638 861.289 82.719 861.36 82.8716C861.424 83.0046 861.504 83.1329 861.598 83.2543C861.625 83.2902 861.66 83.3219 861.701 83.3475C861.742 83.3732 861.787 83.3923 861.836 83.4037C861.915 83.4211 861.997 83.4158 862.068 83.3888L862.67 83.2079C862.713 83.2005 862.753 83.1848 862.786 83.1622C862.82 83.1396 862.846 83.1106 862.863 83.0774C862.879 83.0442 862.887 83.0076 862.884 82.9704C862.881 82.9332 862.868 82.8964 862.845 82.8627L862.85 82.8403ZM861.42 80.7924C861.383 80.9971 861.314 81.1947 861.214 81.3803C861.14 81.537 861.024 81.6753 860.873 81.7852C860.613 81.9421 860.304 82.0395 859.974 82.0687C859.661 82.0895 859.342 82.0667 859.031 82.0012C858.781 81.9415 858.553 81.8231 858.375 81.6611C858.196 81.4991 858.076 81.3008 858.03 81.0914C857.983 80.8819 858.012 80.6708 858.113 80.4848C858.214 80.2989 858.382 80.1464 858.596 80.0469C859.01 79.9203 859.476 79.9165 859.918 80.0361C860.185 80.0903 860.451 80.1445 860.719 80.2379C860.987 80.3313 861.237 80.4209 861.476 80.5162L861.42 80.7924ZM865.27 83.6902C865.275 83.7988 865.316 83.9065 865.388 84.002C865.476 84.0732 865.588 84.1204 865.705 84.1364L866.441 84.2859C866.558 84.319 866.682 84.3197 866.794 84.2879C866.898 84.2262 866.976 84.1393 867.017 84.0379L869.242 79.8259L869.663 84.5761C869.654 84.6824 869.689 84.7911 869.763 84.8841C869.853 84.9631 869.972 85.0149 870.097 85.0298L870.833 85.1793C870.946 85.2075 871.064 85.2043 871.169 85.1701C871.276 85.1157 871.359 85.0353 871.408 84.9387L874.631 80.0047C874.673 79.9571 874.704 79.9026 874.721 79.8442C874.733 79.8077 874.74 79.7703 874.744 79.7322C874.754 79.7098 874.756 79.6853 874.752 79.6609C874.748 79.6365 874.736 79.6128 874.719 79.5918C874.702 79.5708 874.679 79.5531 874.653 79.5402C874.626 79.5273 874.597 79.5195 874.568 79.5175L873.768 79.3549C873.653 79.3284 873.534 79.3284 873.424 79.3548C873.327 79.4157 873.251 79.4964 873.204 79.59L870.768 83.9456L870.339 79.046C870.344 78.942 870.308 78.8368 870.237 78.7455C870.143 78.6719 870.026 78.6234 869.902 78.6073L869.203 78.4652C869.144 78.4442 869.081 78.4337 869.019 78.4343C868.956 78.4349 868.896 78.4467 868.841 78.4688C868.787 78.4909 868.74 78.5228 868.703 78.5625C868.667 78.6021 868.642 78.6484 868.63 78.6984L866.368 82.9962L865.873 78.1377C865.867 78.0328 865.829 77.9287 865.762 77.8353C865.673 77.7614 865.558 77.7133 865.436 77.6989L864.609 77.5307C864.471 77.5027 864.395 77.5493 864.372 77.6613C864.36 77.7574 864.366 77.8555 864.39 77.9525L865.27 83.6902ZM874.432 85.6861C874.716 85.8781 875.028 86.0384 875.359 86.1624C875.773 86.333 876.205 86.4653 876.647 86.5565C877.065 86.6427 877.49 86.6768 877.909 86.6577C878.26 86.6472 878.599 86.5788 878.907 86.4564C879.201 86.3451 879.457 86.1795 879.656 85.9713C879.859 85.7514 879.99 85.4904 880.041 85.2099C880.118 84.8608 880.048 84.4906 879.843 84.159C879.587 83.781 879.21 83.4638 878.756 83.246L877.607 82.6858C877.287 82.5408 877.001 82.345 876.767 82.1107C876.697 82.0307 876.647 81.941 876.62 81.8471C876.593 81.7533 876.59 81.6574 876.61 81.5656C876.627 81.4405 876.685 81.3244 876.779 81.2297C876.872 81.135 876.997 81.0653 877.14 81.0282C877.498 80.9618 877.878 80.9696 878.246 81.0509C878.814 81.1578 879.357 81.3665 879.834 81.6617C879.926 81.7242 880.029 81.7741 880.139 81.8092C880.268 81.8354 880.356 81.7757 880.387 81.6264L880.454 81.2979C880.476 81.2189 880.463 81.1335 880.417 81.0571C880.366 80.9677 880.29 80.8881 880.196 80.8256C880.091 80.7521 879.98 80.6852 879.863 80.6258C879.707 80.594 879.566 80.4876 879.397 80.4222L878.863 80.228L878.284 80.1102C877.922 80.0312 877.552 79.9953 877.186 80.0035C876.84 80.0112 876.503 80.0719 876.193 80.1825C875.909 80.2809 875.659 80.4319 875.462 80.6246C875.262 80.8222 875.131 81.0631 875.08 81.3244C875.01 81.6893 875.087 82.0729 875.298 82.4182C875.581 82.8373 876.009 83.1828 876.523 83.4059L877.699 83.9718C878.008 84.0953 878.28 84.279 878.49 84.5058C878.555 84.5856 878.6 84.6738 878.624 84.7655C878.648 84.8571 878.65 84.9503 878.63 85.0397C878.608 85.174 878.542 85.2979 878.439 85.3987C878.336 85.4994 878.2 85.5733 878.045 85.6125C877.628 85.7016 877.18 85.6912 876.75 85.5823C876.407 85.5145 876.071 85.4174 875.747 85.2927C875.441 85.176 875.15 85.0333 874.877 84.8669L874.68 84.7493L874.524 84.7175C874.396 84.6913 874.307 84.751 874.278 84.8929L874.201 85.2736C874.188 85.3409 874.193 85.411 874.216 85.4789C874.279 85.5685 874.37 85.6436 874.478 85.6955L874.432 85.6861Z" fill="white"/>
<g filter="url(#filter0_ddd)">
<rect x="252" y="132" width="892.381" height="568.035" rx="4" fill="white"/>
</g>
<mask id="mask0" mask-type="alpha" maskUnits="userSpaceOnUse" x="252" y="132" width="893" height="569">
<rect x="252" y="132" width="892.381" height="568.035" fill="white"/>
</mask>
<g mask="url(#mask0)">
<path d="M452.786 700.035L452.786 169.755" stroke="#D9DBEC" stroke-width="0.5"/>
<rect x="485.642" y="253.707" width="10.0873" height="10.0873" rx="1.75" stroke="#D9DBEC" stroke-width="0.5"/>
<rect x="507.951" y="245.514" width="114.48" height="23.5256" rx="1.75" stroke="#D9DBEC" stroke-width="0.5"/>
<path d="M577.605 254.702H516.74C515.539 254.702 514.566 255.471 514.566 256.419V258.135C514.566 259.082 515.539 259.851 516.74 259.851H577.605C578.805 259.851 579.778 259.082 579.778 258.135V256.419C579.778 255.471 578.805 254.702 577.605 254.702Z" fill="#495E6F" fill-opacity="0.4"/>
<path d="M613.872 254.702H607.465C607.339 254.702 607.236 255.471 607.236 256.419V258.135C607.236 259.082 607.339 259.851 607.465 259.851H613.872C613.998 259.851 614.101 259.082 614.101 258.135V256.419C614.101 255.471 613.998 254.702 613.872 254.702Z" fill="#495E6F" fill-opacity="0.4"/>
<rect x="897.51" y="245.514" width="102.467" height="23.5256" rx="1.75" stroke="#D9DBEC" stroke-width="0.5"/>
<path d="M940.678 254.702H907.042C906.378 254.702 905.84 255.471 905.84 256.419V258.135C905.84 259.082 906.378 259.851 907.042 259.851H940.678C941.341 259.851 941.879 259.082 941.879 258.135V256.419C941.879 255.471 941.341 254.702 940.678 254.702Z" fill="#495E6F" fill-opacity="0.4"/>
<path d="M991.417 254.702H985.011C984.884 254.702 984.782 255.471 984.782 256.419V258.135C984.782 259.082 984.884 259.851 985.011 259.851H991.417C991.544 259.851 991.646 259.082 991.646 258.135V256.419C991.646 255.471 991.544 254.702 991.417 254.702Z" fill="#495E6F" fill-opacity="0.4"/>
<rect x="1009.06" y="245.514" width="102.467" height="23.5256" rx="1.75" stroke="#D9DBEC" stroke-width="0.5"/>
<path d="M1052.23 254.702H1018.59C1017.93 254.702 1017.39 255.471 1017.39 256.419V258.135C1017.39 259.082 1017.93 259.851 1018.59 259.851H1052.23C1052.89 259.851 1053.43 259.082 1053.43 258.135V256.419C1053.43 255.471 1052.89 254.702 1052.23 254.702Z" fill="#506677" fill-opacity="0.4"/>
<path d="M1102.97 254.702H1096.56C1096.43 254.702 1096.33 255.471 1096.33 256.419V258.135C1096.33 259.082 1096.43 259.851 1096.56 259.851H1102.97C1103.09 259.851 1103.19 259.082 1103.19 258.135V256.419C1103.19 255.471 1103.09 254.702 1102.97 254.702Z" fill="#506677" fill-opacity="0.4"/>
<path d="M1120.41 198.928H1044.79C1043.87 198.928 1043.13 200.194 1043.13 201.755V220.128C1043.13 221.689 1043.87 222.954 1044.79 222.954H1120.41C1121.33 222.954 1122.07 221.689 1122.07 220.128V201.755C1122.07 200.194 1121.33 198.928 1120.41 198.928Z" fill="#189BFF"/>
<path d="M1100.9 209.225H1063.35C1062.61 209.225 1062.01 209.857 1062.01 210.637V212.049C1062.01 212.828 1062.61 213.46 1063.35 213.46H1100.9C1101.64 213.46 1102.24 212.828 1102.24 212.049V210.637C1102.24 209.857 1101.64 209.225 1100.9 209.225Z" fill="white" fill-opacity="0.4"/>
<rect x="767.542" y="659.098" width="22.7921" height="20.6747" rx="1.75" fill="#F6FAFD" stroke="#D9DBEC" stroke-width="0.5"/>
<rect x="775.416" y="665.712" width="6.86447" height="6.86447" fill="#B6BFC5"/>
<rect x="797.725" y="665.712" width="44.4668" height="6.86447" rx="1" fill="#495E6F" fill-opacity="0.4"/>
<rect x="849.459" y="659.098" width="22.7921" height="20.6747" rx="1.75" fill="#F6FAFD" stroke="#D9DBEC" stroke-width="0.5"/>
<rect x="857.789" y="665.712" width="6.86447" height="6.86447" fill="#B6BFC5"/>
<path d="M485.392 641.687H1111.77" stroke="#D9DBEC" stroke-width="0.5"/>
<rect x="507.701" y="615.945" width="99.5348" height="5.14835" rx="1" fill="#495E6F" fill-opacity="0.2"/>
<rect x="615.817" y="615.945" width="34.3223" height="5.14835" rx="1" fill="#495E6F" fill-opacity="0.2"/>
<rect x="507.701" y="591.919" width="271.146" height="5.14835" rx="1" fill="#495E6F" fill-opacity="0.2"/>
<rect x="1020.82" y="573.042" width="90.9542" height="48.0513" rx="2" fill="#28056B"/>
<path fill-rule="evenodd" clip-rule="evenodd" d="M1101.48 614.229H1029.4V613.371H1101.48V614.229Z" fill="white" fill-opacity="0.8"/>
<rect x="1036.27" y="583.339" width="6.86447" height="29.174" fill="url(#paint0_linear)"/>
<rect x="1046.56" y="593.635" width="6.86447" height="18.8773" fill="url(#paint1_linear)"/>
<rect x="1056.86" y="597.068" width="6.86447" height="15.4451" fill="url(#paint2_linear)"/>
<rect x="1067.16" y="593.635" width="6.86447" height="18.8773" fill="url(#paint3_linear)"/>
<rect x="1077.45" y="600.5" width="6.86447" height="12.0128" fill="url(#paint4_linear)"/>
<rect x="1087.75" y="609.08" width="6.86447" height="3.43223" fill="url(#paint5_linear)"/>
<path fill-rule="evenodd" clip-rule="evenodd" d="M1023.36 593.635H1021.68V592.777H1023.36V593.635ZM1030.09 593.635H1026.73V592.777H1030.09V593.635ZM1036.83 593.635H1033.46V592.777H1036.83V593.635ZM1043.56 593.635H1040.19V592.777H1043.56V593.635ZM1050.29 593.635H1046.92V592.777H1050.29V593.635ZM1057.02 593.635H1053.66V592.777H1057.02V593.635ZM1063.76 593.635H1060.39V592.777H1063.76V593.635ZM1070.49 593.635H1067.12V592.777H1070.49V593.635ZM1077.22 593.635H1073.85V592.777H1077.22V593.635ZM1083.95 593.635H1080.59V592.777H1083.95V593.635ZM1090.69 593.635H1087.32V592.777H1090.69V593.635ZM1097.42 593.635H1094.05V592.777H1097.42V593.635ZM1104.15 593.635H1100.78V592.777H1104.15V593.635ZM1109.2 593.635H1107.52V592.777H1109.2V593.635Z" fill="white" fill-opacity="0.5"/>
<rect x="507.701" y="573.042" width="156.167" height="10.2967" rx="1" fill="#495E6F" fill-opacity="0.2"/>
<rect x="485.642" y="572.904" width="10.0873" height="10.0873" rx="1.75" stroke="#D9DBEC" stroke-width="0.5"/>
<path d="M485.392 552.448H1111.77" stroke="#D9DBEC" stroke-width="0.5"/>
<rect x="507.701" y="526.707" width="99.5348" height="5.14835" rx="1" fill="#495E6F" fill-opacity="0.2"/>
<rect x="615.817" y="526.707" width="34.3223" height="5.14835" rx="1" fill="#495E6F" fill-opacity="0.2"/>
<rect x="507.701" y="502.681" width="271.146" height="5.14835" rx="1" fill="#495E6F" fill-opacity="0.2"/>
<rect x="1020.82" y="483.804" width="90.9542" height="48.0513" rx="2" fill="url(#paint6_linear)"/>
<path d="M1097.19 500.965H1080.03C1080.03 497.533 1082.6 495.817 1086.89 495.817C1087.18 494.672 1088.61 492.384 1092.04 492.384C1096.33 492.384 1097.19 496.675 1097.19 500.965Z" fill="white"/>
<path d="M1040.56 497.533H1057.72C1057.72 494.1 1055.14 492.384 1050.85 492.384C1050.57 491.24 1049.14 488.952 1045.7 488.952C1041.41 488.952 1040.56 493.242 1040.56 497.533Z" fill="white"/>
<path d="M1020.82 523.274H1111.77V529.855C1111.77 530.96 1110.88 531.855 1109.77 531.855H1022.82C1021.72 531.855 1020.82 530.96 1020.82 529.855V523.274Z" fill="#0193D2"/>
<path d="M1091.18 526.329C1091.18 527.332 1085.74 530.709 1078.88 530.75C1071.16 530.796 1059.87 528.539 1054.28 528.539C1050.11 528.539 1044.93 530.317 1038.84 531.76C1033.69 531.76 1029.24 531.76 1024.25 531.76C1020.82 531.76 1020.82 528.539 1020.82 528.539C1020.82 524.99 1020.82 523.274 1020.82 520.327C1022.69 519.25 1025.19 518.592 1027.93 518.592C1033.75 518.592 1082.4 515.277 1091.18 526.329Z" fill="url(#paint7_linear)"/>
<path d="M1049.99 508.687C1045.7 515.552 1044.26 517.268 1041.41 517.268C1038.57 517.268 1033.69 511.506 1033.69 504.397C1033.69 497.289 1038.57 490.668 1041.41 490.668C1042.32 490.668 1045.7 490.668 1047.42 492.384C1049.99 495.817 1048.28 497.533 1049.99 501.823C1051.36 505.036 1050.85 506.113 1049.99 508.687Z" fill="#71A94A"/>
<path d="M1076.59 511.262C1076.59 514.694 1075.74 515.552 1072.3 517.268C1070.59 518.984 1069.73 521.558 1067.16 521.558C1061.15 518.126 1061.3 509.953 1062.01 507.829C1062.86 505.255 1066.3 498.391 1068.87 500.107C1069.73 500.965 1069.73 502.681 1070.59 503.539C1073.62 506.573 1076.59 506.971 1076.59 511.262Z" fill="#98C150"/>
<path fill-rule="evenodd" clip-rule="evenodd" d="M1041.76 497.533C1041.95 497.533 1042.1 497.686 1042.1 497.876V524.647C1042.1 524.837 1041.95 524.991 1041.76 524.991C1041.57 524.991 1041.41 524.837 1041.41 524.647V497.876C1041.41 497.686 1041.57 497.533 1041.76 497.533Z" fill="black"/>
<path fill-rule="evenodd" clip-rule="evenodd" d="M1045.94 498.996C1046.08 499.124 1046.08 499.342 1045.96 499.481L1042.01 503.771C1041.88 503.911 1041.66 503.92 1041.52 503.792C1041.39 503.663 1041.38 503.446 1041.5 503.307L1045.45 499.016C1045.58 498.877 1045.8 498.868 1045.94 498.996Z" fill="black"/>
<path fill-rule="evenodd" clip-rule="evenodd" d="M1037.58 505.861C1037.44 505.989 1037.43 506.206 1037.56 506.346L1041.5 510.636C1041.63 510.775 1041.85 510.784 1041.99 510.656C1042.13 510.528 1042.14 510.311 1042.01 510.171L1038.06 505.881C1037.93 505.741 1037.72 505.732 1037.58 505.861Z" fill="black"/>
<path fill-rule="evenodd" clip-rule="evenodd" d="M1071.35 507.593C1071.48 507.73 1071.48 507.947 1071.34 508.078L1067.74 511.51C1067.6 511.641 1067.38 511.636 1067.25 511.498C1067.12 511.361 1067.12 511.144 1067.26 511.013L1070.87 507.581C1071 507.45 1071.22 507.455 1071.35 507.593Z" fill="black"/>
<path fill-rule="evenodd" clip-rule="evenodd" d="M1067.16 524.647L1067.16 506.113C1067.16 505.924 1067.31 505.77 1067.5 505.77C1067.69 505.77 1067.84 505.924 1067.84 506.113L1067.84 524.647C1067.84 524.837 1067.69 524.991 1067.5 524.991C1067.31 524.991 1067.16 524.837 1067.16 524.647Z" fill="black"/>
<path fill-rule="evenodd" clip-rule="evenodd" d="M1065.2 512.735C1065.06 512.869 1065.06 513.086 1065.2 513.22L1067.26 515.28C1067.39 515.414 1067.61 515.414 1067.74 515.28C1067.88 515.146 1067.88 514.928 1067.74 514.794L1065.68 512.735C1065.55 512.601 1065.33 512.601 1065.2 512.735Z" fill="black"/>
<rect x="507.701" y="483.804" width="331.211" height="10.2967" rx="1" fill="#495E6F" fill-opacity="0.2"/>
<rect x="485.642" y="483.666" width="10.0873" height="10.0873" rx="1.75" stroke="#D9DBEC" stroke-width="0.5"/>
<path d="M485.392 461.494H1111.77" stroke="#D9DBEC" stroke-width="0.5"/>
<rect x="507.701" y="435.753" width="99.5348" height="5.14835" rx="1" fill="#495E6F" fill-opacity="0.2"/>
<rect x="615.817" y="435.753" width="34.3223" height="5.14835" rx="1" fill="#495E6F" fill-opacity="0.2"/>
<rect x="507.701" y="411.727" width="271.146" height="5.14835" rx="1" fill="#495E6F" fill-opacity="0.2"/>
<rect x="1020.82" y="392.85" width="90.9542" height="48.0513" rx="2" fill="url(#paint8_linear)"/>
<g filter="url(#filter1_f)">
<ellipse cx="1058.57" cy="414.301" rx="15.4451" ry="14.587" fill="url(#paint9_linear)"/>
</g>
<circle cx="1058.87" cy="416.062" r="10.7152" fill="url(#paint10_linear)"/>
<circle cx="1063.16" cy="413.918" r="2.14303" fill="#C9D5E1"/>
<circle cx="1064.23" cy="408.561" r="1.07152" fill="#C9D5E1"/>
<circle cx="1053.52" cy="410.704" r="1.07152" fill="#C9D5E1"/>
<circle cx="1055.66" cy="414.99" r="1.07152" fill="#CFDCE6"/>
<circle cx="1059.94" cy="410.704" r="1.07152" fill="#C9D5E1"/>
<circle cx="1050.84" cy="414.454" r="0.535758" fill="#CFDCE6"/>
<path d="M1092.9 430.604H1051.71C1051.71 428.203 1054.96 427.003 1058.21 427.003C1059.3 421.001 1065.8 418.6 1070.14 421.001C1074.47 411.397 1088.56 413.798 1087.48 427.003C1090.95 427.003 1092.9 429.404 1092.9 430.604Z" fill="url(#paint11_linear)"/>
<path d="M1028.07 399.366L1028.21 400.769L1029.36 401.575L1027.96 401.715L1027.15 402.87L1027.01 401.468L1025.86 400.661L1027.26 400.522L1028.07 399.366Z" fill="#C8F1F5"/>
<path d="M1085.45 400.466L1086.63 401.239L1087.98 400.848L1087.21 402.026L1087.6 403.38L1086.42 402.607L1085.07 402.998L1085.84 401.82L1085.45 400.466Z" fill="#C8F1F5"/>
<path d="M1093.85 419.048L1093.99 420.45L1095.14 421.257L1093.74 421.397L1092.93 422.552L1092.79 421.15L1091.64 420.343L1093.04 420.204L1093.85 419.048Z" fill="#C8F1F5"/>
<path d="M1039.81 427.612L1040.56 428.799L1041.96 428.996L1040.77 429.755L1040.57 431.15L1039.82 429.963L1038.42 429.766L1039.61 429.007L1039.81 427.612Z" fill="#C8F1F5"/>
<path opacity="0.5" d="M1036.57 415.567L1037.19 416.832L1038.56 417.184L1037.29 417.805L1036.94 419.169L1036.32 417.904L1034.96 417.552L1036.22 416.931L1036.57 415.567Z" fill="#C8F1F5"/>
<path opacity="0.5" d="M1101.56 399.898L1102.18 401.163L1103.55 401.515L1102.28 402.136L1101.93 403.5L1101.31 402.235L1099.95 401.883L1101.21 401.262L1101.56 399.898Z" fill="#C8F1F5"/>
<path opacity="0.5" d="M1070.19 429.396L1069.82 430.757L1070.62 431.921L1069.26 431.555L1068.09 432.349L1068.46 430.989L1067.66 429.825L1069.02 430.191L1070.19 429.396Z" fill="#C8F1F5"/>
<path opacity="0.5" d="M1048.42 397.329L1048.05 398.69L1048.85 399.854L1047.49 399.488L1046.32 400.283L1046.69 398.922L1045.89 397.758L1047.25 398.124L1048.42 397.329Z" fill="#C8F1F5"/>
<rect x="507.701" y="392.85" width="296.888" height="10.2967" rx="1" fill="#495E6F" fill-opacity="0.2"/>
<rect x="485.642" y="392.712" width="10.0873" height="10.0873" rx="1.75" stroke="#D9DBEC" stroke-width="0.5"/>
<path d="M485.392 370.54H1111.77" stroke="#D9DBEC" stroke-width="0.5"/>
<rect x="507.701" y="344.799" width="99.5348" height="5.14835" rx="1" fill="#495E6F" fill-opacity="0.2"/>
<rect x="615.817" y="344.799" width="34.3223" height="5.14835" rx="1" fill="#495E6F" fill-opacity="0.2"/>
<rect x="507.701" y="320.773" width="271.146" height="5.14835" rx="1" fill="#495E6F" fill-opacity="0.2"/>
<rect x="1020.82" y="301.896" width="90.9542" height="48.0513" rx="2" fill="#EB4A4F"/>
<circle cx="1067.16" cy="325.921" r="17.1612" fill="url(#paint12_linear)"/>
<path d="M1020.82 336.218C1020.82 336.218 1033.41 332.786 1044.85 336.218C1050.25 337.838 1074.88 335.36 1085.17 334.502C1096.33 333.572 1111.77 336.218 1111.77 336.218V347.947C1111.77 349.051 1110.88 349.947 1109.77 349.947H1022.82C1021.72 349.947 1020.82 349.051 1020.82 347.947V336.218Z" fill="#0194D2"/>
<rect x="507.701" y="301.896" width="264.282" height="10.2967" rx="1" fill="#495E6F" fill-opacity="0.2"/>
<rect x="485.642" y="301.758" width="10.0873" height="10.0873" rx="1.75" stroke="#D9DBEC" stroke-width="0.5"/>
<path d="M478.725 211.247C480.229 211.247 481.142 210.485 481.142 209.245C481.142 208.312 480.473 207.624 479.516 207.531V207.492C480.238 207.375 480.8 206.716 480.8 205.959C480.8 204.889 479.975 204.201 478.695 204.201H475.771V211.247H478.725ZM477.03 205.182H478.378C479.13 205.182 479.555 205.529 479.555 206.144C479.555 206.799 479.062 207.17 478.183 207.17H477.03V205.182ZM477.03 210.265V208.063H478.383C479.35 208.063 479.857 208.439 479.857 209.157C479.857 209.88 479.364 210.265 478.437 210.265H477.03ZM481.922 211.247H483.138V204.201H481.922V211.247ZM486.433 211.349C487.952 211.349 488.938 210.339 488.938 208.659C488.938 206.984 487.942 205.964 486.433 205.964C484.924 205.964 483.928 206.989 483.928 208.659C483.928 210.339 484.915 211.349 486.433 211.349ZM486.433 210.387C485.662 210.387 485.164 209.762 485.164 208.659C485.164 207.56 485.667 206.93 486.433 206.93C487.205 206.93 487.703 207.56 487.703 208.659C487.703 209.762 487.205 210.387 486.433 210.387ZM491.97 213.2C493.478 213.2 494.47 212.399 494.47 211.164V206.071H493.278V206.96H493.259C492.961 206.364 492.365 205.983 491.628 205.983C490.305 205.983 489.475 207.004 489.475 208.639C489.475 210.251 490.324 211.252 491.603 211.252C492.346 211.252 492.956 210.881 493.225 210.324H493.254V211.198C493.254 211.857 492.8 212.302 492.009 212.302C491.433 212.302 490.988 212.033 490.856 211.637H489.65C489.772 212.546 490.69 213.2 491.97 213.2ZM491.975 210.285C491.208 210.285 490.72 209.67 490.72 208.644C490.72 207.629 491.208 206.984 491.975 206.984C492.751 206.984 493.254 207.638 493.254 208.644C493.254 209.655 492.751 210.285 491.975 210.285ZM497.525 204.201V211.247H498.785V208.918H500.21C501.636 208.918 502.637 207.966 502.637 206.559C502.637 205.153 501.665 204.201 500.264 204.201H497.525ZM498.785 205.231H499.932C500.835 205.231 501.358 205.715 501.358 206.559C501.358 207.414 500.831 207.902 499.927 207.902H498.785V205.231ZM505.503 211.349C507.021 211.349 508.008 210.339 508.008 208.659C508.008 206.984 507.011 205.964 505.503 205.964C503.994 205.964 502.998 206.989 502.998 208.659C502.998 210.339 503.984 211.349 505.503 211.349ZM505.503 210.387C504.731 210.387 504.233 209.762 504.233 208.659C504.233 207.56 504.736 206.93 505.503 206.93C506.274 206.93 506.772 207.56 506.772 208.659C506.772 209.762 506.274 210.387 505.503 210.387ZM508.666 207.555C508.666 208.322 509.164 208.81 510.155 209.03L511.015 209.22C511.557 209.343 511.742 209.518 511.742 209.831C511.742 210.217 511.376 210.461 510.785 210.461C510.17 210.461 509.823 210.207 509.73 209.704H508.534C508.632 210.705 509.433 211.349 510.785 211.349C512.055 211.349 512.953 210.69 512.953 209.714C512.953 208.962 512.538 208.547 511.464 208.307L510.605 208.117C510.063 207.995 509.848 207.79 509.848 207.492C509.848 207.111 510.204 206.857 510.741 206.857C511.303 206.857 511.649 207.155 511.698 207.624H512.831C512.802 206.642 512.001 205.964 510.741 205.964C509.491 205.964 508.666 206.608 508.666 207.555ZM514.036 204.86V206.071H513.294V207.009H514.036V209.87C514.036 210.876 514.476 211.271 515.594 211.271C515.853 211.271 516.092 211.252 516.224 211.222V210.295C516.146 210.309 515.99 210.319 515.877 210.319C515.448 210.319 515.252 210.124 515.252 209.699V207.009H516.229V206.071H515.252V204.86H514.036ZM516.936 207.555C516.936 208.322 517.434 208.81 518.425 209.03L519.285 209.22C519.827 209.343 520.012 209.518 520.012 209.831C520.012 210.217 519.646 210.461 519.055 210.461C518.44 210.461 518.093 210.207 518.001 209.704H516.804C516.902 210.705 517.703 211.349 519.055 211.349C520.325 211.349 521.223 210.69 521.223 209.714C521.223 208.962 520.808 208.547 519.734 208.307L518.875 208.117C518.333 207.995 518.118 207.79 518.118 207.492C518.118 207.111 518.474 206.857 519.011 206.857C519.573 206.857 519.92 207.155 519.968 207.624H521.101C521.072 206.642 520.271 205.964 519.011 205.964C517.761 205.964 516.936 206.608 516.936 207.555Z" fill="#495E6F"/>
<rect x="296.619" y="195.496" width="89.2381" height="5.14835" rx="1" fill="#495E6F" fill-opacity="0.4"/>
<rect x="274.323" y="190.348" width="13.7289" height="13.7289" rx="6" fill="#506677" fill-opacity="0.15"/>
<rect x="296.619" y="269.289" width="89.2381" height="5.14835" rx="1" fill="#495E6F" fill-opacity="0.4"/>
<rect x="274.323" y="264.141" width="13.7289" height="13.7289" rx="6" fill="#506677" fill-opacity="0.15"/>
<rect x="296.619" y="301.896" width="89.2381" height="5.14835" rx="1" fill="#495E6F" fill-opacity="0.4"/>
<rect x="274.323" y="296.747" width="13.7289" height="13.7289" rx="6" fill="#506677" fill-opacity="0.15"/>
<rect x="296.619" y="334.502" width="89.2381" height="5.14835" rx="1" fill="#495E6F" fill-opacity="0.4"/>
<rect x="274.323" y="329.353" width="13.7289" height="13.7289" rx="6" fill="#506677" fill-opacity="0.15"/>
<rect x="296.619" y="368.824" width="89.2381" height="5.14835" rx="1" fill="#495E6F" fill-opacity="0.7"/>
<rect x="296.619" y="397.998" width="89.2381" height="5.14835" rx="1" fill="#495E6F" fill-opacity="0.4"/>
<rect x="274.323" y="363.676" width="13.7289" height="13.7289" rx="6" fill="#506677" fill-opacity="0.7"/>
<rect x="296.619" y="428.888" width="89.2381" height="5.14835" rx="1" fill="#495E6F" fill-opacity="0.4"/>
<rect x="274.323" y="423.74" width="13.7289" height="13.7289" rx="6" fill="#506677" fill-opacity="0.15"/>
<rect x="296.619" y="461.494" width="89.2381" height="5.14835" rx="1" fill="#495E6F" fill-opacity="0.4"/>
<rect x="274.323" y="456.346" width="13.7289" height="13.7289" rx="6" fill="#506677" fill-opacity="0.15"/>
<rect x="274.309" y="238.399" width="37.7546" height="5.14835" rx="1" fill="#495E6F" fill-opacity="0.4"/>
<path d="M252 169.755H1144.38" stroke="#D9DBEC" stroke-width="0.5"/>
<rect x="1134.08" y="147.445" width="12.0128" height="2.57417" rx="1" transform="rotate(-180 1134.08 147.445)" fill="#D9DBEC"/>
<rect x="1134.08" y="152.593" width="12.0128" height="2.57417" rx="1" transform="rotate(-180 1134.08 152.593)" fill="#D9DBEC"/>
<rect x="1134.08" y="157.742" width="12.0128" height="2.57417" rx="1" transform="rotate(-180 1134.08 157.742)" fill="#D9DBEC"/>
<rect x="1117.23" y="162.487" width="23.5256" height="23.5256" rx="1.75" transform="rotate(-180 1117.23 162.487)" fill="#F6FAFD" stroke="#D9DBEC" stroke-width="0.5"/>
<rect x="295.153" y="139.115" width="111.048" height="23.5256" rx="1.75" fill="#F6FAFD" stroke="#D9DBEC" stroke-width="0.5"/>
<rect x="324.077" y="149.161" width="65.2124" height="5.14835" rx="1" fill="#C7CCE4"/>
<path fill-rule="evenodd" clip-rule="evenodd" d="M308.632 145.118C305.451 145.118 302.872 147.696 302.872 150.877C302.872 154.058 305.451 156.637 308.632 156.637C311.813 156.637 314.392 154.058 314.392 150.877C314.392 147.696 311.813 145.118 308.632 145.118ZM301.767 150.877C301.767 147.086 304.841 144.013 308.632 144.013C312.423 144.013 315.496 147.086 315.496 150.877C315.496 154.669 312.423 157.742 308.632 157.742C304.841 157.742 301.767 154.669 301.767 150.877Z" fill="#C7CCE4"/>
<path fill-rule="evenodd" clip-rule="evenodd" d="M306.894 146.661C306.369 147.712 306.028 149.202 306.028 150.877C306.028 152.553 306.369 154.043 306.894 155.094C307.436 156.177 308.082 156.637 308.632 156.637C309.181 156.637 309.828 156.177 310.37 155.094C310.895 154.043 311.236 152.553 311.236 150.877C311.236 149.202 310.895 147.712 310.37 146.661C309.828 145.577 309.181 145.118 308.632 145.118C308.082 145.118 307.436 145.577 306.894 146.661ZM305.906 146.167C306.507 144.966 307.438 144.013 308.632 144.013C309.825 144.013 310.757 144.966 311.358 146.167C311.975 147.401 312.34 149.067 312.34 150.877C312.34 152.688 311.975 154.354 311.358 155.588C310.757 156.789 309.825 157.742 308.632 157.742C307.438 157.742 306.507 156.789 305.906 155.588C305.289 154.354 304.923 152.688 304.923 150.877C304.923 149.067 305.289 147.401 305.906 146.167Z" fill="#C7CCE4"/>
<path fill-rule="evenodd" clip-rule="evenodd" d="M308.632 154.323C306.726 154.323 305.068 154.763 304.02 155.408L303.441 154.468C304.708 153.687 306.582 153.218 308.632 153.218C310.654 153.218 312.504 153.675 313.769 154.435L313.2 155.382C312.15 154.751 310.511 154.323 308.632 154.323Z" fill="#C7CCE4"/>
<path fill-rule="evenodd" clip-rule="evenodd" d="M308.632 147.432C310.538 147.432 312.196 146.992 313.243 146.347L313.822 147.288C312.555 148.068 310.682 148.537 308.632 148.537C306.61 148.537 304.76 148.08 303.495 147.321L304.063 146.374C305.114 147.004 306.753 147.432 308.632 147.432Z" fill="#C7CCE4"/>
<path fill-rule="evenodd" clip-rule="evenodd" d="M314.944 151.43H302.32V150.325H314.944V151.43Z" fill="#C7CCE4"/>
<path fill-rule="evenodd" clip-rule="evenodd" d="M308.632 156.637V144.013H309.736V156.637H308.632Z" fill="#C7CCE4"/>
<rect x="262.962" y="139.585" width="23.5256" height="23.5256" rx="1.75" fill="#F6FAFD" stroke="#D9DBEC" stroke-width="0.5"/>
<path d="M279.19 157.7H273.248C273.058 157.701 272.87 157.664 272.695 157.591C272.519 157.519 272.36 157.412 272.226 157.277L267.697 152.746C267.531 152.58 267.417 152.367 267.371 152.135C267.325 151.904 267.349 151.664 267.439 151.446C267.53 151.228 267.683 151.042 267.879 150.911C268.075 150.78 268.306 150.71 268.542 150.71H274.089V145.159C274.089 144.924 274.159 144.694 274.29 144.498C274.421 144.302 274.607 144.15 274.824 144.06C275.042 143.972 275.282 143.949 275.513 143.994C275.744 144.04 275.956 144.153 276.124 144.318L280.655 148.847C280.789 148.981 280.896 149.14 280.968 149.316C281.041 149.491 281.078 149.68 281.077 149.87V155.814C281.076 156.314 280.877 156.794 280.524 157.147C280.17 157.501 279.69 157.7 279.19 157.7ZM273.495 155.658H279.036V150.117L276.13 147.21V152.752H270.59L273.495 155.658Z" fill="#C7CCE4"/>
</g>
<path d="M547.302 94.7175L547.697 99.0418L553.37 95.3553L547.302 94.7175Z" fill="#B8B8B8"/>
<path d="M547.697 99.0416L544.738 93.7341L559.352 83.4209L547.302 94.7174L547.697 99.0416Z" fill="#E6E5E5"/>
<path d="M555.192 99.8295L547.302 94.7175L559.352 83.421L555.192 99.8295Z" fill="white"/>
<path d="M544.738 93.7341L537.468 91.5424L559.352 83.4209L544.738 93.7341Z" fill="white"/>
<rect width="42" height="42" rx="8" transform="matrix(0.994522 0.104528 0.0908064 0.995869 527.574 68.1064)" fill="#0496FF"/>
<path d="M547.302 94.7175L547.697 99.0418L553.37 95.3553L547.302 94.7175Z" fill="#B8B8B8"/>
<path d="M547.697 99.0416L544.738 93.7341L559.352 83.4209L547.302 94.7174L547.697 99.0416Z" fill="#E6E5E5"/>
<path d="M555.192 99.8295L547.302 94.7175L559.352 83.421L555.192 99.8295Z" fill="white"/>
<path d="M544.738 93.7341L537.468 91.5424L559.352 83.4209L544.738 93.7341Z" fill="white"/>
<defs>
<filter id="filter0_ddd" x="152" y="82" width="1092.38" height="768.035" filterUnits="userSpaceOnUse" color-interpolation-filters="sRGB">
<feFlood flood-opacity="0" result="BackgroundImageFix"/>
<feColorMatrix in="SourceAlpha" type="matrix" values="0 0 0 0 0 0 0 0 0 0 0 0 0 0 0 0 0 0 127 0"/>
<feOffset dy="50"/>
<feGaussianBlur stdDeviation="50"/>
<feColorMatrix type="matrix" values="0 0 0 0 0.196078 0 0 0 0 0.196078 0 0 0 0 0.364706 0 0 0 0.13 0"/>
<feBlend mode="normal" in2="BackgroundImageFix" result="effect1_dropShadow"/>
<feColorMatrix in="SourceAlpha" type="matrix" values="0 0 0 0 0 0 0 0 0 0 0 0 0 0 0 0 0 0 127 0"/>
<feOffset dy="15"/>
<feGaussianBlur stdDeviation="17.5"/>
<feColorMatrix type="matrix" values="0 0 0 0 0.196078 0 0 0 0 0.196078 0 0 0 0 0.364706 0 0 0 0.11 0"/>
<feBlend mode="normal" in2="effect1_dropShadow" result="effect2_dropShadow"/>
<feColorMatrix in="SourceAlpha" type="matrix" values="0 0 0 0 0 0 0 0 0 0 0 0 0 0 0 0 0 0 127 0"/>
<feOffset dy="5"/>
<feGaussianBlur stdDeviation="7.5"/>
<feColorMatrix type="matrix" values="0 0 0 0 0 0 0 0 0 0 0 0 0 0 0 0 0 0 0.07 0"/>
<feBlend mode="normal" in2="effect2_dropShadow" result="effect3_dropShadow"/>
<feBlend mode="normal" in="SourceGraphic" in2="effect3_dropShadow" result="shape"/>
</filter>
<filter id="filter1_f" x="1037.13" y="393.714" width="42.8901" height="41.174" filterUnits="userSpaceOnUse" color-interpolation-filters="sRGB">
<feFlood flood-opacity="0" result="BackgroundImageFix"/>
<feBlend mode="normal" in="SourceGraphic" in2="BackgroundImageFix" result="shape"/>
<feGaussianBlur stdDeviation="3" result="effect1_foregroundBlur"/>
</filter>
<linearGradient id="paint0_linear" x1="1039.7" y1="583.339" x2="1039.7" y2="612.513" gradientUnits="userSpaceOnUse">
<stop stop-color="#FFA807"/>
<stop offset="1" stop-color="#E239DE"/>
</linearGradient>
<linearGradient id="paint1_linear" x1="1049.99" y1="593.635" x2="1049.99" y2="612.513" gradientUnits="userSpaceOnUse">
<stop stop-color="#FFA807"/>
<stop offset="1" stop-color="#E239DE"/>
</linearGradient>
<linearGradient id="paint2_linear" x1="1060.29" y1="597.068" x2="1060.29" y2="612.513" gradientUnits="userSpaceOnUse">
<stop stop-color="#FFA807"/>
<stop offset="1" stop-color="#E239DE"/>
</linearGradient>
<linearGradient id="paint3_linear" x1="1070.59" y1="593.635" x2="1070.59" y2="612.513" gradientUnits="userSpaceOnUse">
<stop stop-color="#FFA807"/>
<stop offset="1" stop-color="#E239DE"/>
</linearGradient>
<linearGradient id="paint4_linear" x1="1080.88" y1="600.5" x2="1080.88" y2="612.513" gradientUnits="userSpaceOnUse">
<stop stop-color="#FFA807"/>
<stop offset="1" stop-color="#E239DE"/>
</linearGradient>
<linearGradient id="paint5_linear" x1="1091.18" y1="609.08" x2="1091.18" y2="612.513" gradientUnits="userSpaceOnUse">
<stop stop-color="#FFA807"/>
<stop offset="1" stop-color="#E239DE"/>
</linearGradient>
<linearGradient id="paint6_linear" x1="1066.3" y1="483.804" x2="1066.3" y2="531.855" gradientUnits="userSpaceOnUse">
<stop offset="0.572917" stop-color="#CFFCFF"/>
<stop offset="1" stop-color="#5EC5CC"/>
</linearGradient>
<linearGradient id="paint7_linear" x1="1056" y1="518.126" x2="1056" y2="531.76" gradientUnits="userSpaceOnUse">
<stop stop-color="#59712F"/>
<stop offset="1" stop-color="#7D974F"/>
</linearGradient>
<linearGradient id="paint8_linear" x1="1066.3" y1="392.85" x2="1066.3" y2="440.901" gradientUnits="userSpaceOnUse">
<stop stop-color="#0F328C"/>
<stop offset="1" stop-color="#81398D"/>
</linearGradient>
<linearGradient id="paint9_linear" x1="1058.57" y1="399.714" x2="1058.57" y2="428.888" gradientUnits="userSpaceOnUse">
<stop stop-color="#EAF3EE"/>
<stop offset="1" stop-color="#9CAED6"/>
</linearGradient>
<linearGradient id="paint10_linear" x1="1058.87" y1="405.346" x2="1058.87" y2="426.777" gradientUnits="userSpaceOnUse">
<stop stop-color="#EAF3EE"/>
<stop offset="1" stop-color="#9CAED6"/>
</linearGradient>
<linearGradient id="paint11_linear" x1="1072.3" y1="415.159" x2="1072.3" y2="430.604" gradientUnits="userSpaceOnUse">
<stop stop-color="#8CD2F6"/>
<stop offset="1" stop-color="#6F77E6"/>
</linearGradient>
<linearGradient id="paint12_linear" x1="1067.16" y1="308.76" x2="1067.16" y2="343.082" gradientUnits="userSpaceOnUse">
<stop stop-color="#F4AE34"/>
<stop offset="1" stop-color="#F4AE34" stop-opacity="0"/>
</linearGradient>
</defs>
</svg>
