<svg width="128" height="128" viewBox="0 0 128 128" fill="none" xmlns="http://www.w3.org/2000/svg">
<rect width="128" height="128" fill="#FFC35A"/>
<path fill-rule="evenodd" clip-rule="evenodd" d="M37.2895 53H90.7105C96.9455 53 102 58.0545 102 64.2895C102 70.5245 96.9455 75.5789 90.7105 75.5789H37.2895C31.0545 75.5789 26 70.5245 26 64.2895C26 58.0545 31.0545 53 37.2895 53ZM37.2895 56C32.7113 56 29 59.7113 29 64.2895C29 68.8676 32.7113 72.5789 37.2895 72.5789H90.7105C95.2887 72.5789 99 68.8676 99 64.2895C99 59.7113 95.2887 56 90.7105 56H37.2895Z" fill="#4D3815"/>
<rect x="33" y="59.6842" width="61.79" height="9.21053" rx="4.60526" fill="#4D3815" fill-opacity="0.3"/>
<path d="M33 64.2895C33 61.7461 35.0618 59.6842 37.6053 59.6842H74.4474V68.8947H37.6053C35.0618 68.8947 33 66.8329 33 64.2895V64.2895Z" fill="#4D3815"/>
</svg>
