<svg width="72" height="72" viewBox="0 0 72 72" fill="none" xmlns="http://www.w3.org/2000/svg">
<path d="M55.7507 66H29.7805C28.0955 66 26.5085 65.3229 25.3165 64.0874L5.52903 43.6321C4.03315 42.0895 3.5908 39.7826 4.39784 37.7653C5.20824 35.7446 7.09582 34.4358 9.21301 34.4358H33.4611V9.37361C33.4611 7.19232 34.724 5.24137 36.6757 4.40375C38.5971 3.57661 40.8865 4.04777 42.3553 5.56595L62.1529 26.0282C63.3449 27.2672 64 28.904 64 30.6421V57.4772C63.9966 62.1784 60.2991 66 55.7507 66ZM30.8678 56.7792H55.0788V31.7554L42.3824 18.6328V43.6566H18.1714L30.8678 56.7792Z" fill="#FF0076"/>
</svg>
