<svg width="100" height="100" viewBox="0 0 100 100" fill="none" xmlns="http://www.w3.org/2000/svg">
<path d="M50 90.5C74.85 90.5 95 72.03 95 49.25C95 26.47 74.85 8 50 8C25.15 8 5 26.47 5 49.25C5 59.77 9.295 69.365 16.365 76.65C18.525 78.885 20.065 81.85 19.295 84.855C18.4519 88.1409 16.8739 91.1926 14.68 93.78C16.4357 94.0953 18.2162 94.2526 20 94.25C26.41 94.25 32.35 92.24 37.225 88.815C41.275 89.915 45.565 90.5 50 90.5Z" stroke="black" stroke-width="7.5" stroke-linecap="round" stroke-linejoin="round"/>
<path d="M50.5038 70.538C46.1473 70.5416 41.8578 69.4657 38.0186 67.4065C35.2905 65.9432 32.8502 64.0157 30.8026 61.7195C29.4169 60.1656 29.9081 57.8041 31.642 56.6515V56.6515C33.3787 55.4972 35.6999 56.005 37.1754 57.4786C38.4731 58.7747 39.9577 59.8794 41.5856 60.7529C44.3279 62.2245 47.3916 62.9946 50.5038 62.9946C53.6159 62.9946 56.6797 62.2245 59.422 60.7529C61.0499 59.8794 62.5345 58.7747 63.8322 57.4786C65.3076 56.005 67.6289 55.4972 69.3655 56.6515V56.6515C71.0994 57.8041 71.5907 60.1656 70.205 61.7195C68.1574 64.0157 65.7171 65.9432 62.9889 67.4065C59.1498 69.4657 54.8603 70.5416 50.5038 70.538Z" fill="black"/>
<path d="M63.3609 34.0003C62.0895 34.0003 60.8466 34.3773 59.7894 35.0837C58.7322 35.7901 57.9083 36.7941 57.4217 37.9688C56.9352 39.1434 56.8079 40.436 57.0559 41.683C57.3039 42.9301 57.9162 44.0755 58.8153 44.9746C59.7143 45.8736 60.8598 46.4859 62.1068 46.7339C63.3538 46.982 64.6464 46.8547 65.8211 46.3681C66.9957 45.8815 67.9997 45.0576 68.7061 44.0004C69.4125 42.9432 69.7895 41.7003 69.7895 40.4289C69.7979 39.5824 69.6373 38.7427 69.3172 37.9589C68.997 37.1752 68.5238 36.4632 67.9252 35.8646C67.3266 35.266 66.6146 34.7928 65.8309 34.4727C65.0472 34.1526 64.2075 33.992 63.3609 34.0003Z" fill="black"/>
<path d="M37.6467 34.0003C36.3753 34.0003 35.1324 34.3773 34.0752 35.0837C33.018 35.7901 32.1941 36.7941 31.7075 37.9688C31.2209 39.1434 31.0936 40.436 31.3417 41.683C31.5897 42.9301 32.202 44.0755 33.101 44.9746C34.0001 45.8736 35.1455 46.4859 36.3926 46.7339C37.6396 46.982 38.9322 46.8547 40.1068 46.3681C41.2815 45.8815 42.2855 45.0576 42.9919 44.0004C43.6983 42.9432 44.0753 41.7003 44.0753 40.4289C44.0836 39.5824 43.923 38.7427 43.6029 37.9589C43.2828 37.1752 42.8096 36.4632 42.211 35.8646C41.6124 35.266 40.9004 34.7928 40.1166 34.4727C39.3329 34.1526 38.4932 33.992 37.6467 34.0003Z" fill="black"/>
</svg>
