<svg width="100" height="100" viewBox="0 0 100 100" fill="none" xmlns="http://www.w3.org/2000/svg">
<path fill-rule="evenodd" clip-rule="evenodd" d="M50 3C23.3928 3 1.25 22.8484 1.25 48C1.25 58.7988 5.36912 68.6713 12.166 76.3817L15.1874 84.2372C14.4332 86.3776 13.2933 88.3669 11.8198 90.1048C10.9525 91.1277 10.6974 92.5358 11.1508 93.7979C11.6043 95.06 12.6971 95.9839 14.0171 96.2209C15.9916 96.5756 17.9939 96.7526 20 96.75L15.1874 84.2372C15.1877 84.2363 15.188 84.2353 15.1884 84.2344L20.0028 96.75C26.5777 96.7495 32.7215 94.8656 37.9141 91.6078C41.7863 92.5205 45.838 93 50 93C76.6072 93 98.75 73.1516 98.75 48C98.75 22.8484 76.6072 3 50 3ZM15.1884 84.2344L12.1689 76.3849C12.6561 76.9375 13.157 77.4789 13.6712 78.0088C15.4603 79.8612 15.9546 81.5311 15.6627 82.673C15.5271 83.2012 15.3688 83.7221 15.1884 84.2344ZM12.1689 76.3849L1.25 48L12.166 76.3817C12.167 76.3827 12.1679 76.3838 12.1689 76.3849ZM8.75 48C8.75 27.5916 26.9072 10.5 50 10.5C73.0928 10.5 91.25 27.5916 91.25 48C91.25 68.4084 73.0928 85.5 50 85.5C45.8952 85.5 41.9358 84.9586 38.2079 83.9461C37.1319 83.6539 35.9816 83.8556 35.0692 84.4966C31.1198 87.2713 26.375 88.9838 21.236 89.2215C21.9452 87.722 22.5125 86.1538 22.9273 84.537L22.9276 84.5358C24.1749 79.6682 21.5896 75.4098 19.0615 72.794L19.0561 72.7884C12.6069 66.1431 8.75 57.4643 8.75 48ZM42.0931 41.0521L37.3211 52.2753H46.9095L42.0931 41.0521ZM49.276 57.7899L51.7661 63.5923C52.0218 64.1997 52.3735 64.6793 52.8211 65.0309C53.3006 65.3826 53.8281 65.5584 54.4035 65.5584C55.0749 65.5584 55.6823 65.3027 56.2258 64.7912C56.8012 64.2797 57.089 63.5923 57.089 62.7292C57.089 62.3775 57.009 61.9939 56.8492 61.5783L45.0526 33.4774C44.8288 32.87 44.4611 32.4064 43.9496 32.0868C43.4701 31.7351 42.9426 31.5593 42.3672 31.5593C41.7598 31.4953 41.1843 31.6392 40.6408 31.9908C40.1293 32.3425 39.7457 32.838 39.4899 33.4774L27.5495 62.1537C27.4536 62.4734 27.4056 62.7771 27.4056 63.0648C27.4056 63.7682 27.6134 64.3596 28.029 64.8391C28.4446 65.3187 29.084 65.5584 29.9472 65.5584C30.4906 65.5584 30.9862 65.3986 31.4337 65.0789C31.9133 64.7272 32.2649 64.2477 32.4887 63.6403L34.9763 57.7899H49.276ZM66.2324 64.5035C66.8398 63.928 67.1435 63.2247 67.1435 62.3935V34.6763C67.1435 33.8451 66.8398 33.1577 66.2324 32.6142C65.6569 32.0388 64.9856 31.7511 64.2183 31.7511C63.3232 31.7511 62.5879 32.0388 62.0124 32.6142C61.437 33.1577 61.1493 33.8451 61.1493 34.6763V62.3935C61.1493 63.2247 61.421 63.928 61.9645 64.5035C62.508 65.0469 63.2273 65.3187 64.1224 65.3187C64.9216 65.3187 65.625 65.0469 66.2324 64.5035Z" fill="black"/>
</svg>
