<svg width="2432" height="1444" viewBox="0 0 2432 1444" fill="none" xmlns="http://www.w3.org/2000/svg">
<rect width="2432" height="1442" fill="#292C37"/>
<rect x="477" width="1955" height="1442" fill="#2B2E3B"/>
<rect x="1759" width="673" height="1442" fill="#1E212C"/>
<rect x="477" width="1955" height="150" fill="#373B49"/>
<path d="M113.154 100H87.9873C86.3522 100 84.8166 99.3451 83.6603 98.1482L64.4825 78.352C63.0326 76.857 62.6035 74.6258 63.3849 72.6746C64.1708 70.7189 66.0001 69.4543 68.0507 69.4543H91.5509V45.2002C91.5509 43.0909 92.775 41.203 94.6674 40.39C96.5283 39.5906 98.7505 40.0467 100.173 41.5146L119.36 61.3154C120.516 62.5123 121.149 64.0976 121.149 65.7823V91.7482C121.149 96.2964 117.562 99.9955 113.154 99.9955V100ZM88.9855 91.152H112.35V66.8889L100.096 54.1656V78.4288H76.7362L88.99 91.152H88.9855Z" fill="white"/>
<rect x="63" y="224" width="200" height="50" rx="10" fill="#99A2CF" fill-opacity="0.2"/>
<rect x="63" y="292" width="264" height="50" rx="10" fill="#99A2CF" fill-opacity="0.2"/>
<rect x="63" y="360" width="180" height="50" rx="10" fill="#99A2CF" fill-opacity="0.2"/>
<rect x="63" y="428" width="248" height="50" rx="10" fill="#99A2CF" fill-opacity="0.2"/>
<rect x="63" y="496" width="200" height="50" rx="10" fill="#99A2CF" fill-opacity="0.2"/>
<rect x="139" y="1320" width="277" height="50" rx="10" fill="#99A2CF" fill-opacity="0.2"/>
<rect x="49" y="1310" width="72" height="70" rx="35" fill="#D2DDE9" fill-opacity="0.2"/>
<rect x="537" y="342" width="1108" height="154" rx="10" fill="#575C78" fill-opacity="0.2"/>
<rect x="537" y="660" width="1108" height="154" rx="10" fill="#575C78" fill-opacity="0.2"/>
<rect x="537" y="988" width="1108" height="154" rx="10" fill="#575C78" fill-opacity="0.2"/>
<rect x="537" y="1290" width="1108" height="154" rx="10" fill="#575C78" fill-opacity="0.2"/>
<rect x="537" y="249" width="264" height="50" rx="10" fill="#99A2CF" fill-opacity="0.2"/>
<rect x="537" y="567" width="264" height="50" rx="10" fill="#99A2CF" fill-opacity="0.2"/>
<rect x="537" y="50" width="504" height="50" rx="10" fill="#99A2CF" fill-opacity="0.2"/>
<rect x="1843" y="50" width="504" height="50" rx="10" fill="#99A2CF" fill-opacity="0.2"/>
<rect x="1843" y="214" width="358" height="50" rx="10" fill="#99A2CF" fill-opacity="0.2"/>
<rect x="1843" y="299" width="504" height="43" rx="10" fill="#99A2CF" fill-opacity="0.2"/>
<rect x="537" y="895" width="264" height="50" rx="10" fill="#99A2CF" fill-opacity="0.2"/>
<rect x="537" y="1197" width="264" height="50" rx="10" fill="#99A2CF" fill-opacity="0.2"/>
</svg>
