<svg width="1040" height="318" viewBox="0 0 1040 318" fill="none" xmlns="http://www.w3.org/2000/svg">
<rect width="1040" height="318" fill="#F6F9FC"/>
<path d="M78.8319 203.293C82.9803 203.293 85.8748 200.902 86.2733 197.129H82.828C82.453 199.133 80.9412 200.363 78.8436 200.363C76.1366 200.363 74.4373 198.137 74.4373 194.527C74.4373 190.965 76.16 188.727 78.8319 188.727C80.8944 188.727 82.4881 190.086 82.8162 192.16H86.2616C85.992 188.375 82.8983 185.797 78.8319 185.797C73.9334 185.797 70.828 189.09 70.828 194.539C70.828 200 73.91 203.293 78.8319 203.293ZM87.6917 203H91.1136V195.98C91.1136 194.211 92.098 193.18 93.7855 193.18C94.2777 193.18 94.7464 193.262 95.0277 193.379V190.367C94.7933 190.297 94.4534 190.238 94.055 190.238C92.5784 190.238 91.512 191.105 91.0667 192.699H90.9964V190.438H87.6917V203ZM101.169 192.699C102.692 192.699 103.735 193.801 103.805 195.406H98.4734C98.5906 193.836 99.6688 192.699 101.169 192.699ZM103.852 199.156C103.536 200.117 102.575 200.738 101.321 200.738C99.575 200.738 98.4383 199.508 98.4383 197.715V197.504H107.098V196.461C107.098 192.641 104.79 190.168 101.134 190.168C97.4188 190.168 95.075 192.77 95.075 196.777C95.075 200.797 97.3953 203.27 101.263 203.27C104.368 203.27 106.618 201.617 106.993 199.156H103.852ZM113.24 200.727C112.079 200.727 111.306 200.141 111.306 199.203C111.306 198.312 112.033 197.738 113.31 197.645L115.958 197.48V198.395C115.958 199.754 114.728 200.727 113.24 200.727ZM112.115 203.199C113.685 203.199 115.243 202.414 115.947 201.078H116.017V203H119.322V194.363C119.322 191.832 117.224 190.168 114.001 190.168C110.673 190.168 108.599 191.844 108.47 194.281H111.599C111.763 193.355 112.572 192.723 113.849 192.723C115.138 192.723 115.958 193.402 115.958 194.574V195.406L112.794 195.594C109.665 195.781 107.908 197.105 107.908 199.391C107.908 201.652 109.724 203.199 112.115 203.199ZM121.97 187.543V190.438H120.201V193.016H121.97V199.613C121.97 202.062 123.119 203.047 126.072 203.047C126.763 203.047 127.349 202.988 127.701 202.906V200.387C127.49 200.422 127.174 200.445 126.869 200.445C125.861 200.445 125.392 199.988 125.392 199.027V193.016H127.713V190.438H125.392V187.543H121.97ZM134.557 192.699C136.08 192.699 137.123 193.801 137.194 195.406H131.862C131.979 193.836 133.057 192.699 134.557 192.699ZM137.24 199.156C136.924 200.117 135.963 200.738 134.709 200.738C132.963 200.738 131.826 199.508 131.826 197.715V197.504H140.487V196.461C140.487 192.641 138.178 190.168 134.522 190.168C130.807 190.168 128.463 192.77 128.463 196.777C128.463 200.797 130.783 203.27 134.651 203.27C137.756 203.27 140.006 201.617 140.381 199.156H137.24ZM157.421 203H161.183L155.3 186.09H151.14L145.269 203H148.902L150.191 198.898H156.132L157.421 203ZM153.12 189.324H153.202L155.37 196.25H150.952L153.12 189.324ZM169.48 190.238C167.664 190.238 166.269 191.152 165.59 192.629H165.519V190.438H162.144V207.102H165.566V200.891H165.636C166.304 202.309 167.711 203.199 169.539 203.199C172.679 203.199 174.625 200.762 174.625 196.719C174.625 192.664 172.668 190.238 169.48 190.238ZM168.332 200.445C166.656 200.445 165.554 198.992 165.554 196.719C165.554 194.469 166.656 192.98 168.332 192.98C170.043 192.98 171.121 194.445 171.121 196.719C171.121 199.004 170.043 200.445 168.332 200.445ZM183.25 190.238C181.434 190.238 180.039 191.152 179.36 192.629H179.289V190.438H175.914V207.102H179.336V200.891H179.406C180.074 202.309 181.481 203.199 183.309 203.199C186.449 203.199 188.395 200.762 188.395 196.719C188.395 192.664 186.438 190.238 183.25 190.238ZM182.102 200.445C180.426 200.445 179.324 198.992 179.324 196.719C179.324 194.469 180.426 192.98 182.102 192.98C183.813 192.98 184.891 194.445 184.891 196.719C184.891 199.004 183.813 200.445 182.102 200.445Z" fill="#506677"/>
<circle cx="130" cy="128" r="24" fill="#0495FE"/>
<path d="M129.106 139H134.453V117.862H129.092L123.716 121.524V126.124L129.004 122.579H129.106V139Z" fill="#F6F9FC"/>
<path d="M294.907 198.172C295.013 201.359 297.696 203.293 301.727 203.293C305.958 203.293 308.548 201.195 308.548 197.891C308.548 195.324 306.989 193.883 303.415 193.168L301.622 192.805C299.63 192.406 298.809 191.762 298.809 190.719C298.809 189.477 299.981 188.656 301.727 188.656C303.509 188.656 304.763 189.523 304.88 190.965H308.22C308.161 187.859 305.677 185.797 301.727 185.797C297.966 185.797 295.27 187.848 295.27 190.941C295.27 193.461 296.923 195.078 300.298 195.746L302.079 196.098C304.2 196.531 304.997 197.164 304.997 198.277C304.997 199.52 303.708 200.434 301.821 200.434C299.899 200.434 298.47 199.59 298.247 198.172H294.907ZM315.579 192.699C317.103 192.699 318.146 193.801 318.216 195.406H312.884C313.001 193.836 314.079 192.699 315.579 192.699ZM318.263 199.156C317.947 200.117 316.986 200.738 315.732 200.738C313.986 200.738 312.849 199.508 312.849 197.715V197.504H321.509V196.461C321.509 192.641 319.2 190.168 315.544 190.168C311.829 190.168 309.486 192.77 309.486 196.777C309.486 200.797 311.806 203.27 315.673 203.27C318.779 203.27 321.029 201.617 321.404 199.156H318.263ZM323.713 187.543V190.438H321.943V193.016H323.713V199.613C323.713 202.062 324.861 203.047 327.814 203.047C328.506 203.047 329.092 202.988 329.443 202.906V200.387C329.232 200.422 328.916 200.445 328.611 200.445C327.603 200.445 327.135 199.988 327.135 199.027V193.016H329.455V190.438H327.135V187.543H323.713ZM342.451 190.438H339.03V197.633C339.03 199.297 338.08 200.387 336.557 200.387C335.045 200.387 334.213 199.496 334.213 197.82V190.438H330.791V198.535C330.791 201.465 332.596 203.234 335.315 203.234C337.213 203.234 338.455 202.32 339.076 200.738H339.147V203H342.451V190.438ZM351.534 190.238C349.717 190.238 348.323 191.152 347.643 192.629H347.573V190.438H344.198V207.102H347.62V200.891H347.69C348.358 202.309 349.764 203.199 351.592 203.199C354.733 203.199 356.678 200.762 356.678 196.719C356.678 192.664 354.721 190.238 351.534 190.238ZM350.385 200.445C348.71 200.445 347.608 198.992 347.608 196.719C347.608 194.469 348.71 192.98 350.385 192.98C352.096 192.98 353.175 194.445 353.175 196.719C353.175 199.004 352.096 200.445 350.385 200.445ZM268.756 215.09V232H275.213C280.287 232 283.275 228.848 283.275 223.48C283.275 218.113 280.287 215.09 275.213 215.09H268.756ZM272.295 218.008H274.791C277.908 218.008 279.666 219.953 279.666 223.492C279.666 227.148 277.955 229.07 274.791 229.07H272.295V218.008ZM289.569 229.727C288.409 229.727 287.635 229.141 287.635 228.203C287.635 227.312 288.362 226.738 289.639 226.645L292.288 226.48V227.395C292.288 228.754 291.057 229.727 289.569 229.727ZM288.444 232.199C290.014 232.199 291.573 231.414 292.276 230.078H292.346V232H295.651V223.363C295.651 220.832 293.553 219.168 290.331 219.168C287.002 219.168 284.928 220.844 284.799 223.281H287.928C288.092 222.355 288.901 221.723 290.178 221.723C291.467 221.723 292.288 222.402 292.288 223.574V224.406L289.124 224.594C285.995 224.781 284.237 226.105 284.237 228.391C284.237 230.652 286.053 232.199 288.444 232.199ZM297.175 223.129C297.175 225.016 298.405 226.234 300.831 226.75L302.976 227.195C304.206 227.477 304.64 227.852 304.64 228.52C304.64 229.34 303.843 229.867 302.554 229.867C301.194 229.867 300.409 229.281 300.198 228.18H296.858C297.081 230.652 299.085 232.27 302.554 232.27C305.788 232.27 308.05 230.641 308.05 228.168C308.05 226.328 306.972 225.297 304.347 224.746L302.202 224.289C300.937 224.02 300.468 223.586 300.468 222.941C300.468 222.109 301.253 221.57 302.437 221.57C303.702 221.57 304.464 222.262 304.569 223.281H307.722C307.651 220.82 305.659 219.168 302.437 219.168C299.237 219.168 297.175 220.738 297.175 223.129ZM309.339 232H312.761V224.828C312.761 223.176 313.71 222.039 315.328 222.039C316.886 222.039 317.683 223.023 317.683 224.641V232H321.105V223.914C321.105 221.008 319.511 219.203 316.722 219.203C314.812 219.203 313.441 220.094 312.773 221.676H312.703V215.09H309.339V232ZM330.281 232.199C333.445 232.199 335.379 229.762 335.379 225.719C335.379 221.664 333.434 219.238 330.27 219.238C328.477 219.238 327.082 220.129 326.391 221.617H326.32V215.09H322.898V232H326.273V229.844H326.344C327.035 231.309 328.441 232.199 330.281 232.199ZM329.098 221.98C330.797 221.98 331.875 223.434 331.875 225.719C331.875 228.016 330.809 229.445 329.098 229.445C327.434 229.445 326.309 227.992 326.309 225.719C326.309 223.469 327.445 221.98 329.098 221.98ZM342.446 232.27C346.243 232.27 348.668 229.844 348.668 225.707C348.668 221.629 346.207 219.168 342.446 219.168C338.684 219.168 336.223 221.641 336.223 225.707C336.223 229.832 338.649 232.27 342.446 232.27ZM342.446 229.656C340.758 229.656 339.692 228.238 339.692 225.719C339.692 223.223 340.782 221.781 342.446 221.781C344.11 221.781 345.188 223.223 345.188 225.719C345.188 228.238 344.122 229.656 342.446 229.656ZM354.81 229.727C353.649 229.727 352.876 229.141 352.876 228.203C352.876 227.312 353.603 226.738 354.88 226.645L357.528 226.48V227.395C357.528 228.754 356.298 229.727 354.81 229.727ZM353.685 232.199C355.255 232.199 356.813 231.414 357.517 230.078H357.587V232H360.892V223.363C360.892 220.832 358.794 219.168 355.571 219.168C352.243 219.168 350.169 220.844 350.04 223.281H353.169C353.333 222.355 354.142 221.723 355.419 221.723C356.708 221.723 357.528 222.402 357.528 223.574V224.406L354.364 224.594C351.235 224.781 349.478 226.105 349.478 228.391C349.478 230.652 351.294 232.199 353.685 232.199ZM362.626 232H366.048V224.98C366.048 223.211 367.033 222.18 368.72 222.18C369.212 222.18 369.681 222.262 369.962 222.379V219.367C369.728 219.297 369.388 219.238 368.99 219.238C367.513 219.238 366.447 220.105 366.001 221.699H365.931V219.438H362.626V232ZM375.131 232.199C376.982 232.199 378.435 231.227 379.045 229.844H379.103V232H382.478V215.09H379.057V221.594H378.986C378.377 220.199 376.971 219.238 375.154 219.238C372.002 219.238 370.01 221.711 370.01 225.695C370.01 229.715 371.99 232.199 375.131 232.199ZM376.291 221.98C377.99 221.98 379.08 223.434 379.08 225.719C379.08 228.016 377.99 229.445 376.291 229.445C374.568 229.445 373.514 228.027 373.514 225.719C373.514 223.422 374.568 221.98 376.291 221.98Z" fill="#506677"/>
<circle cx="326" cy="128" r="24" fill="#0495FE"/>
<path d="M317.724 124.469H322.646C322.646 122.608 324.037 121.378 325.883 121.378C327.523 121.378 328.681 122.462 328.681 123.985C328.681 125.289 328.139 126.241 325.531 128.585L318.031 135.338V139H334.145V134.869H324.945V134.767L329.076 131.002C332.504 127.896 333.881 126.358 333.881 123.634C333.881 119.942 330.731 117.335 325.883 117.335C321.02 117.335 317.724 120.191 317.724 124.469Z" fill="#F6F9FC"/>
<path d="M512.113 203H515.875L509.992 186.09H505.832L499.96 203H503.593L504.882 198.898H510.824L512.113 203ZM507.812 189.324H507.894L510.062 196.25H505.644L507.812 189.324ZM521.031 203.199C522.883 203.199 524.336 202.227 524.945 200.844H525.004V203H528.379V186.09H524.957V192.594H524.887C524.277 191.199 522.871 190.238 521.055 190.238C517.902 190.238 515.91 192.711 515.91 196.695C515.91 200.715 517.891 203.199 521.031 203.199ZM522.191 192.98C523.891 192.98 524.98 194.434 524.98 196.719C524.98 199.016 523.891 200.445 522.191 200.445C520.469 200.445 519.414 199.027 519.414 196.719C519.414 194.422 520.469 192.98 522.191 192.98ZM534.848 203.199C536.7 203.199 538.153 202.227 538.762 200.844H538.821V203H542.196V186.09H538.774V192.594H538.704C538.094 191.199 536.688 190.238 534.872 190.238C531.719 190.238 529.727 192.711 529.727 196.695C529.727 200.715 531.708 203.199 534.848 203.199ZM536.008 192.98C537.708 192.98 538.797 194.434 538.797 196.719C538.797 199.016 537.708 200.445 536.008 200.445C534.286 200.445 533.231 199.027 533.231 196.719C533.231 194.422 534.286 192.98 536.008 192.98ZM476.269 229.07H468.605V224.805H475.836V222.086H468.605V218.008H476.269V215.09H465.066V232H476.269V229.07ZM483.219 227.641L485.61 232H489.325L485.434 225.648L489.36 219.438H485.633L483.407 223.68H483.336L481.075 219.438H477.219L481.133 225.742L477.196 232H480.793L483.149 227.641H483.219ZM491.165 216.543V219.438H489.395V222.016H491.165V228.613C491.165 231.062 492.313 232.047 495.266 232.047C495.958 232.047 496.544 231.988 496.895 231.906V229.387C496.684 229.422 496.368 229.445 496.063 229.445C495.055 229.445 494.587 228.988 494.587 228.027V222.016H496.907V219.438H494.587V216.543H491.165ZM503.751 221.699C505.275 221.699 506.318 222.801 506.388 224.406H501.056C501.173 222.836 502.251 221.699 503.751 221.699ZM506.435 228.156C506.118 229.117 505.158 229.738 503.904 229.738C502.158 229.738 501.021 228.508 501.021 226.715V226.504H509.681V225.461C509.681 221.641 507.372 219.168 503.716 219.168C500.001 219.168 497.658 221.77 497.658 225.777C497.658 229.797 499.978 232.27 503.845 232.27C506.95 232.27 509.2 230.617 509.575 228.156H506.435ZM510.97 232H514.392V224.793C514.392 223.164 515.365 222.039 516.9 222.039C518.435 222.039 519.209 222.977 519.209 224.617V232H522.631V223.902C522.631 220.961 521.06 219.203 518.271 219.203C516.338 219.203 515.013 220.117 514.345 221.676H514.275V219.438H510.97V232ZM524.108 223.129C524.108 225.016 525.338 226.234 527.764 226.75L529.908 227.195C531.139 227.477 531.572 227.852 531.572 228.52C531.572 229.34 530.776 229.867 529.487 229.867C528.127 229.867 527.342 229.281 527.131 228.18H523.791C524.014 230.652 526.018 232.27 529.487 232.27C532.721 232.27 534.983 230.641 534.983 228.168C534.983 226.328 533.905 225.297 531.28 224.746L529.135 224.289C527.869 224.02 527.401 223.586 527.401 222.941C527.401 222.109 528.186 221.57 529.369 221.57C530.635 221.57 531.397 222.262 531.502 223.281H534.655C534.584 220.82 532.592 219.168 529.369 219.168C526.17 219.168 524.108 220.738 524.108 223.129ZM536.249 232H539.671V219.438H536.249V232ZM537.948 217.738C538.944 217.738 539.729 216.941 539.729 215.98C539.729 215.008 538.944 214.223 537.948 214.223C536.952 214.223 536.167 215.008 536.167 215.98C536.167 216.941 536.952 217.738 537.948 217.738ZM547.241 232.27C551.038 232.27 553.464 229.844 553.464 225.707C553.464 221.629 551.003 219.168 547.241 219.168C543.48 219.168 541.019 221.641 541.019 225.707C541.019 229.832 543.445 232.27 547.241 232.27ZM547.241 229.656C545.554 229.656 544.488 228.238 544.488 225.719C544.488 223.223 545.577 221.781 547.241 221.781C548.905 221.781 549.984 223.223 549.984 225.719C549.984 228.238 548.917 229.656 547.241 229.656ZM554.754 232H558.175V224.793C558.175 223.164 559.148 222.039 560.683 222.039C562.218 222.039 562.992 222.977 562.992 224.617V232H566.414V223.902C566.414 220.961 564.843 219.203 562.054 219.203C560.121 219.203 558.797 220.117 558.129 221.676H558.058V219.438H554.754V232ZM567.891 223.129C567.891 225.016 569.121 226.234 571.547 226.75L573.692 227.195C574.922 227.477 575.356 227.852 575.356 228.52C575.356 229.34 574.559 229.867 573.27 229.867C571.91 229.867 571.125 229.281 570.914 228.18H567.574C567.797 230.652 569.801 232.27 573.27 232.27C576.504 232.27 578.766 230.641 578.766 228.168C578.766 226.328 577.688 225.297 575.063 224.746L572.918 224.289C571.652 224.02 571.184 223.586 571.184 222.941C571.184 222.109 571.969 221.57 573.152 221.57C574.418 221.57 575.18 222.262 575.285 223.281H578.438C578.367 220.82 576.375 219.168 573.152 219.168C569.953 219.168 567.891 220.738 567.891 223.129Z" fill="#506677"/>
<circle cx="522" cy="128" r="24" fill="#0495FE"/>
<path d="M519.158 129.977H521.458C523.802 129.977 525.12 130.943 525.12 132.701C525.12 134.254 523.787 135.309 521.868 135.309C519.788 135.309 518.514 134.254 518.382 132.818H513.255C513.46 136.876 516.888 139.527 521.868 139.527C527.171 139.527 530.584 136.979 530.584 133.023C530.584 130.167 528.562 128.365 525.369 128.043V127.94C527.786 127.457 529.749 125.729 529.749 123.019C529.749 119.43 526.424 117.335 521.839 117.335C517.166 117.335 513.943 119.884 513.753 123.927H518.631C518.748 122.33 519.979 121.334 521.839 121.334C523.641 121.334 524.754 122.242 524.754 123.78C524.754 125.318 523.494 126.329 521.429 126.329H519.158V129.977Z" fill="#F6F9FC"/>
<path d="M669.744 203.293C673.893 203.293 676.787 200.902 677.186 197.129H673.74C673.365 199.133 671.854 200.363 669.756 200.363C667.049 200.363 665.35 198.137 665.35 194.527C665.35 190.965 667.072 188.727 669.744 188.727C671.807 188.727 673.4 190.086 673.729 192.16H677.174C676.904 188.375 673.811 185.797 669.744 185.797C664.846 185.797 661.74 189.09 661.74 194.539C661.74 200 664.822 203.293 669.744 203.293ZM690.206 190.438H686.784V197.633C686.784 199.297 685.835 200.387 684.311 200.387C682.799 200.387 681.967 199.496 681.967 197.82V190.438H678.545V198.535C678.545 201.465 680.35 203.234 683.069 203.234C684.967 203.234 686.21 202.32 686.831 200.738H686.901V203H690.206V190.438ZM691.741 194.129C691.741 196.016 692.972 197.234 695.397 197.75L697.542 198.195C698.772 198.477 699.206 198.852 699.206 199.52C699.206 200.34 698.409 200.867 697.12 200.867C695.761 200.867 694.976 200.281 694.765 199.18H691.425C691.647 201.652 693.651 203.27 697.12 203.27C700.355 203.27 702.616 201.641 702.616 199.168C702.616 197.328 701.538 196.297 698.913 195.746L696.769 195.289C695.503 195.02 695.034 194.586 695.034 193.941C695.034 193.109 695.819 192.57 697.003 192.57C698.269 192.57 699.03 193.262 699.136 194.281H702.288C702.218 191.82 700.226 190.168 697.003 190.168C693.804 190.168 691.741 191.738 691.741 194.129ZM704.738 187.543V190.438H702.968V193.016H704.738V199.613C704.738 202.062 705.886 203.047 708.839 203.047C709.531 203.047 710.117 202.988 710.468 202.906V200.387C710.257 200.422 709.941 200.445 709.636 200.445C708.628 200.445 708.16 199.988 708.16 199.027V193.016H710.48V190.438H708.16V187.543H704.738ZM717.453 203.27C721.25 203.27 723.676 200.844 723.676 196.707C723.676 192.629 721.215 190.168 717.453 190.168C713.691 190.168 711.23 192.641 711.23 196.707C711.23 200.832 713.656 203.27 717.453 203.27ZM717.453 200.656C715.766 200.656 714.699 199.238 714.699 196.719C714.699 194.223 715.789 192.781 717.453 192.781C719.117 192.781 720.195 194.223 720.195 196.719C720.195 199.238 719.129 200.656 717.453 200.656ZM724.965 203H728.387V195.418C728.387 194.012 729.266 193.027 730.567 193.027C731.832 193.027 732.594 193.824 732.594 195.172V203H735.887V195.371C735.887 193.977 736.743 193.027 738.043 193.027C739.368 193.027 740.094 193.824 740.094 195.277V203H743.516V194.422C743.516 191.891 741.864 190.203 739.403 190.203C737.563 190.203 736.063 191.199 735.5 192.781H735.43C735.008 191.141 733.743 190.203 731.926 190.203C730.215 190.203 728.868 191.199 728.34 192.711H728.27V190.438H724.965V203ZM745.263 203H748.685V190.438H745.263V203ZM746.962 188.738C747.958 188.738 748.743 187.941 748.743 186.98C748.743 186.008 747.958 185.223 746.962 185.223C745.966 185.223 745.181 186.008 745.181 186.98C745.181 187.941 745.966 188.738 746.962 188.738ZM750.255 203H760.626V200.375H754.603V200.316L760.486 192.605V190.438H750.349V193.051H756.513V193.121L750.255 201.055V203ZM767.553 192.699C769.076 192.699 770.119 193.801 770.189 195.406H764.857C764.975 193.836 766.053 192.699 767.553 192.699ZM770.236 199.156C769.92 200.117 768.959 200.738 767.705 200.738C765.959 200.738 764.822 199.508 764.822 197.715V197.504H773.482V196.461C773.482 192.641 771.174 190.168 767.518 190.168C763.803 190.168 761.459 192.77 761.459 196.777C761.459 200.797 763.779 203.27 767.646 203.27C770.752 203.27 773.002 201.617 773.377 199.156H770.236Z" fill="#506677"/>
<circle cx="718" cy="128" r="24" fill="#0495FE"/>
<path d="M719.406 139H724.489V135.396H727.17V131.222H724.489V117.862H717.019C713.034 123.824 710.822 127.428 708.962 131.017V135.396H719.406V139ZM713.459 131.266C715.158 127.984 716.872 125.26 719.45 121.554H719.553V131.412H713.459V131.266Z" fill="#F6F9FC"/>
<path d="M886.563 200.07H879.169V186.09H875.63V203H886.563V200.07ZM892.74 200.727C891.579 200.727 890.806 200.141 890.806 199.203C890.806 198.312 891.533 197.738 892.81 197.645L895.458 197.48V198.395C895.458 199.754 894.228 200.727 892.74 200.727ZM891.615 203.199C893.185 203.199 894.743 202.414 895.447 201.078H895.517V203H898.822V194.363C898.822 191.832 896.724 190.168 893.501 190.168C890.173 190.168 888.099 191.844 887.97 194.281H891.099C891.263 193.355 892.072 192.723 893.349 192.723C894.638 192.723 895.458 193.402 895.458 194.574V195.406L892.294 195.594C889.165 195.781 887.408 197.105 887.408 199.391C887.408 201.652 889.224 203.199 891.615 203.199ZM912.158 190.438H908.736V197.633C908.736 199.297 907.787 200.387 906.263 200.387C904.752 200.387 903.92 199.496 903.92 197.82V190.438H900.498V198.535C900.498 201.465 902.303 203.234 905.021 203.234C906.92 203.234 908.162 202.32 908.783 200.738H908.853V203H912.158V190.438ZM913.905 203H917.326V195.793C917.326 194.164 918.299 193.039 919.834 193.039C921.369 193.039 922.143 193.977 922.143 195.617V203H925.565V194.902C925.565 191.961 923.994 190.203 921.205 190.203C919.272 190.203 917.948 191.117 917.28 192.676H917.209V190.438H913.905V203ZM938.667 195.113C938.514 192.266 936.358 190.168 932.96 190.168C929.198 190.168 926.796 192.676 926.796 196.707C926.796 200.809 929.198 203.27 932.983 203.27C936.288 203.27 938.503 201.359 938.678 198.395H935.491C935.28 199.766 934.389 200.586 933.018 200.586C931.319 200.586 930.264 199.18 930.264 196.707C930.264 194.281 931.319 192.852 933.007 192.852C934.413 192.852 935.292 193.789 935.491 195.113H938.667ZM939.933 203H943.355V195.828C943.355 194.176 944.304 193.039 945.921 193.039C947.48 193.039 948.277 194.023 948.277 195.641V203H951.698V194.914C951.698 192.008 950.105 190.203 947.316 190.203C945.405 190.203 944.034 191.094 943.366 192.676H943.296V186.09H939.933V203Z" fill="#506677"/>
<circle cx="914" cy="128" r="24" fill="#0495FE"/>
<path d="M914.249 139.527C919.332 139.527 922.76 136.451 922.76 131.881C922.76 127.882 919.889 124.996 915.89 124.996C913.692 124.996 911.964 125.919 911.129 127.34H911.026L911.451 121.993H921.441V117.862H907.218L906.31 130.46H910.968C911.539 129.405 912.696 128.644 914.249 128.644C916.285 128.644 917.691 130.021 917.691 132.013C917.691 134.005 916.3 135.396 914.249 135.396C912.477 135.396 911.1 134.386 910.836 132.789H905.958C906.031 136.744 909.459 139.527 914.249 139.527Z" fill="#F6F9FC"/>
<path d="M296.061 129.061C296.646 128.475 296.646 127.525 296.061 126.939L286.515 117.393C285.929 116.808 284.979 116.808 284.393 117.393C283.808 117.979 283.808 118.929 284.393 119.515L292.879 128L284.393 136.485C283.808 137.071 283.808 138.021 284.393 138.607C284.979 139.192 285.929 139.192 286.515 138.607L296.061 129.061ZM162 129.5H295V126.5H162V129.5Z" fill="#0495FE"/>
<path d="M491.061 129.061C491.646 128.475 491.646 127.525 491.061 126.939L481.515 117.393C480.929 116.808 479.979 116.808 479.393 117.393C478.808 117.979 478.808 118.929 479.393 119.515L487.879 128L479.393 136.485C478.808 137.071 478.808 138.021 479.393 138.607C479.979 139.192 480.929 139.192 481.515 138.607L491.061 129.061ZM357 129.5H490V126.5H357V129.5Z" fill="#0495FE"/>
<path d="M687.061 129.061C687.646 128.475 687.646 127.525 687.061 126.939L677.515 117.393C676.929 116.808 675.979 116.808 675.393 117.393C674.808 117.979 674.808 118.929 675.393 119.515L683.879 128L675.393 136.485C674.808 137.071 674.808 138.021 675.393 138.607C675.979 139.192 676.929 139.192 677.515 138.607L687.061 129.061ZM553 129.5H686V126.5H553V129.5Z" fill="#0495FE"/>
<path d="M883.061 129.061C883.646 128.475 883.646 127.525 883.061 126.939L873.515 117.393C872.929 116.808 871.979 116.808 871.393 117.393C870.808 117.979 870.808 118.929 871.393 119.515L879.879 128L871.393 136.485C870.808 137.071 870.808 138.021 871.393 138.607C871.979 139.192 872.929 139.192 873.515 138.607L883.061 129.061ZM749 129.5H882V126.5H749V129.5Z" fill="#0495FE"/>
</svg>
