<svg id="Layer_1" data-name="Layer 1" xmlns="http://www.w3.org/2000/svg" viewBox="0 0 681.98 876.31"><defs><style>.cls-1{fill:#f60;}.cls-2{fill:#fff;}</style></defs><rect class="cls-1" width="499.65" height="499.65"/><path class="cls-2" d="M229.2,457.82a21.17,21.17,0,0,1-7-1.08,20.62,20.62,0,0,1-13.78-19.45V312.47H83.84a20.9,20.9,0,0,1-18.91-11.89,20.69,20.69,0,0,1,2.7-22.15l187-228.57a20.67,20.67,0,0,1,36.75,13V187.65H416.16a20.9,20.9,0,0,1,18.91,11.89,20.69,20.69,0,0,1-2.7,22.15l-187,228.57A21.07,21.07,0,0,1,229.2,457.82ZM127.61,270.59H229.2A20.82,20.82,0,0,1,250,291.4v87.26L372.39,229H270.8A20.82,20.82,0,0,1,250,208.18V120.92Z" transform="translate(-0.18 -0.18)"/><path class="cls-1" d="M680.7,876.49a1.5,1.5,0,0,0,0-3,1.5,1.5,0,0,0,0,3Z" transform="translate(-0.18 -0.18)"/></svg>