<svg width="64" height="64" viewBox="0 0 64 64" fill="none" xmlns="http://www.w3.org/2000/svg">
<path d="M55.8092 59.6186H8.19059C5.52393 59.6186 3.42871 57.5234 3.42871 54.8567V22.476C11.6191 17.0475 32 3.42857 32 3.42857C32 3.42857 52.6665 17.2379 60.5711 22.476V54.8567C60.5711 57.4281 58.4758 59.6186 55.8092 59.6186Z" fill="#8ECCFD"/>
<path fill-rule="evenodd" clip-rule="evenodd" d="M33.0584 1.84478L32.0001 3.42851L30.9419 1.8448C31.5825 1.41675 32.4178 1.41674 33.0584 1.84478ZM32.0001 5.71924L29.7455 7.22523C27.7067 8.58693 24.903 10.4591 21.8432 12.5009C16.1295 16.3138 9.52053 20.72 5.33366 23.4984V54.8567C5.33366 56.4713 6.5761 57.7138 8.19079 57.7138H55.8095C57.3995 57.7138 58.6665 56.4009 58.6665 54.8567V23.4984C54.5937 20.7959 47.9986 16.3989 42.2642 12.5723C39.1866 10.5186 36.356 8.6286 34.2949 7.25204L32.0001 5.71924ZM44.3787 9.4036C50.5339 13.511 57.6742 18.2712 61.6235 20.8882C62.1559 21.241 62.476 21.8373 62.476 22.476V54.8567C62.476 58.4552 59.5528 61.5234 55.8095 61.5234H8.19079C4.47218 61.5234 1.52417 58.5752 1.52417 54.8567V22.476C1.52417 21.8373 1.84426 21.2411 2.37662 20.8882C6.46893 18.176 13.6092 13.4157 19.7286 9.33218C22.788 7.2907 25.5912 5.41883 27.6297 4.05733L30.9419 1.8448C30.942 1.84469 30.9419 1.8448 32.0001 3.42851C33.0584 1.84478 33.0583 1.84468 33.0584 1.84478L36.4107 4.0841C38.4715 5.4605 41.3016 7.35022 44.3787 9.4036Z" fill="#0496FF"/>
<path fill-rule="evenodd" clip-rule="evenodd" d="M33.6933 0.894451C33.6933 0.894469 33.6931 0.894434 33.6933 0.894451V0.894451ZM33.6933 0.894451C32.6684 0.209811 31.3318 0.20975 30.3071 0.894474C30.3071 0.894443 30.3071 0.894504 30.3071 0.894474L26.9951 3.10694C24.9565 4.46839 22.1533 6.34017 19.0943 8.38153C12.9747 12.4653 5.83583 17.2245 1.74527 19.9357C0.893492 20.5003 0.381348 21.454 0.381348 22.476V54.8567C0.381348 59.2064 3.84103 62.6662 8.19082 62.6662H55.8095C60.2001 62.6662 63.6189 59.0702 63.6189 54.8567V22.476C63.6189 21.454 63.1068 20.5 62.2548 19.9355C58.3072 17.3196 51.1686 12.5606 45.0131 8.45297C41.9362 6.39971 39.1063 4.51009 37.0455 3.13377C37.0455 3.13379 37.0455 3.13376 37.0455 3.13377L33.6933 0.894451ZM31.0499 4.06347L30.6265 3.42985L28.2646 5.00765C26.226 6.3692 23.4225 8.24122 20.363 10.2828C14.2439 14.3662 7.10209 19.1275 3.00804 21.8409C2.7951 21.982 2.66706 22.2205 2.66706 22.476V54.8567C2.66706 57.9441 5.1034 60.3805 8.19082 60.3805H55.8095C58.9055 60.3805 61.3332 57.8401 61.3332 54.8567V22.476C61.3332 22.2205 61.2052 21.982 60.9922 21.8409C57.0411 19.2227 49.8993 14.4615 43.7443 10.3542C40.6671 8.30074 37.8368 6.41093 35.776 5.03448L33.3737 3.42984L32.9504 4.06345C32.7383 4.38081 32.3819 4.57135 32.0002 4.57137C31.6185 4.57137 31.262 4.38083 31.0499 4.06347ZM32.0002 7.09361L30.3804 8.17557C28.3415 9.53733 25.5375 11.4096 22.4776 13.4515C16.9913 17.1127 10.6782 21.3218 6.47655 24.1114V54.8567C6.47655 55.8401 7.20732 56.571 8.19082 56.571H55.8095C56.7564 56.571 57.5237 55.7816 57.5237 54.8567V24.1115C53.4236 21.3894 47.1302 17.1934 41.6299 13.523C38.5521 11.4691 35.7215 9.57905 33.6602 8.20242L32.0002 7.09361ZM31.3654 4.7689C31.7497 4.51221 32.2507 4.5122 32.635 4.76888L34.9297 6.30165C34.9297 6.30165 34.9297 6.30164 34.9297 6.30165C36.9907 7.67816 39.8211 9.56811 42.8986 11.6217C48.6332 15.4484 55.227 19.8446 59.2985 22.5461C59.6175 22.7578 59.8094 23.1154 59.8094 23.4984V54.8567C59.8094 57.0202 58.0425 58.8567 55.8095 58.8567H8.19082C5.94495 58.8567 4.19084 57.1025 4.19084 54.8567V23.4984C4.19084 23.1153 4.38268 22.7578 4.70178 22.546C8.88726 19.7687 15.495 15.3632 21.2089 11.5503C24.2685 9.50856 27.0722 7.63649 29.1109 6.27486L31.3654 4.7689Z" fill="#0496FF"/>
<path fill-rule="evenodd" clip-rule="evenodd" d="M1.81963 21.4566C2.38248 20.5679 3.55921 20.3039 4.44793 20.8666L32 38.3163L59.552 20.8666C60.4407 20.3039 61.6176 20.5679 62.1803 21.4566C62.7432 22.3455 62.4791 23.5221 61.5903 24.085L33.0192 42.1801C32.3968 42.5742 31.6031 42.5742 30.9809 42.1801L2.40965 24.085C1.52094 23.5221 1.25677 22.3455 1.81963 21.4566Z" fill="#0496FF"/>
<path fill-rule="evenodd" clip-rule="evenodd" d="M58.9405 19.9011C60.3625 19.0005 62.2453 19.4232 63.1459 20.8453C64.0463 22.2671 63.6237 24.1499 62.2017 25.0505L33.6306 43.1456C32.6349 43.7762 31.365 43.7762 30.3693 43.1456L1.79811 25.0505C0.376152 24.1499 -0.0465128 22.2671 0.854058 20.8453C1.75462 19.4232 3.63741 19.0005 5.05935 19.9011L32 36.9635L58.9405 19.9011ZM61.2147 22.0681C60.9897 21.7128 60.519 21.607 60.1635 21.8322L32.6115 39.2818C32.238 39.5183 31.7618 39.5183 31.3885 39.2818L3.83637 21.8322C3.4809 21.607 3.01021 21.7128 2.78507 22.0681C2.55994 22.4236 2.6656 22.8943 3.02107 23.1195L31.5924 41.2146C31.8412 41.3722 32.1586 41.3722 32.4076 41.2146L60.9787 23.1195C61.3342 22.8943 61.44 22.4236 61.2147 22.0681Z" fill="#0496FF"/>
</svg>
