<svg width="528" height="312" viewBox="0 0 528 312" fill="none" xmlns="http://www.w3.org/2000/svg">
<path d="M6.28571 0.5H521.714C523.355 0.5 524.82 0.988594 525.863 1.75395C526.907 2.51952 527.5 3.53587 527.5 4.612V307.159C527.5 308.236 526.907 309.252 525.863 310.017C524.82 310.783 523.355 311.271 521.714 311.271H6.28571C4.64516 311.271 3.17994 310.783 2.13683 310.017C1.09344 309.252 0.5 308.236 0.5 307.159V4.612C0.5 3.53587 1.09344 2.51952 2.13683 1.75395C3.17994 0.988594 4.64516 0.5 6.28571 0.5Z" fill="white" stroke="#EAECED"/>
<path d="M521.714 1.25714H6.28571C3.50851 1.25714 1.25714 2.90546 1.25714 4.93877V306.833C1.25714 308.866 3.50851 310.514 6.28571 310.514H521.714C524.492 310.514 526.743 308.866 526.743 306.833V4.93877C526.743 2.90546 524.492 1.25714 521.714 1.25714Z" stroke="#ADBACC" stroke-opacity="0.2" stroke-width="2"/>
<path d="M515.567 36.4571H143.176C141.169 36.4571 139.543 37.8039 139.543 39.4653V286.135C139.543 287.796 141.169 289.143 143.176 289.143H515.567C517.573 289.143 519.2 287.796 519.2 286.135V39.4653C519.2 37.8039 517.573 36.4571 515.567 36.4571Z" fill="white" stroke="#ADBACC" stroke-opacity="0.2" stroke-width="2"/>
<path d="M125.714 7.54285H12.5714C9.79422 7.54285 7.54285 9.14703 7.54285 11.1259V296.874C7.54285 298.853 9.79422 300.457 12.5714 300.457H125.714C128.491 300.457 130.743 298.853 130.743 296.874V11.1259C130.743 9.14703 128.491 7.54285 125.714 7.54285Z" fill="#4D394B" fill-opacity="0.07"/>
<path d="M125.714 8.79999H12.5714C10.4885 8.79999 8.8 10.0038 8.8 11.4889V296.511C8.8 297.996 10.4885 299.2 12.5714 299.2H125.714C127.797 299.2 129.486 297.996 129.486 296.511V11.4889C129.486 10.0038 127.797 8.79999 125.714 8.79999Z" fill="#F7F9FE"/>
<rect x="148.343" y="69.1428" width="60.3429" height="17.6" rx="1" fill="white"/>
<rect x="148.843" y="69.6428" width="59.3429" height="16.6" rx="0.5" stroke="#ADBACC" stroke-opacity="0.4"/>
<path d="M192.778 76.6857H164.441C163.882 76.6857 163.429 77.1396 163.429 77.6996V78.7136C163.429 79.2736 163.882 79.7276 164.441 79.7276H192.778C193.337 79.7276 193.79 79.2736 193.79 78.7136V77.6996C193.79 77.1396 193.337 76.6857 192.778 76.6857Z" fill="#506677" fill-opacity="0.15"/>
<rect x="212.457" y="69.1428" width="21.3714" height="17.6" rx="1" fill="white"/>
<rect x="212.957" y="69.6428" width="20.3714" height="16.6" rx="0.5" stroke="#ADBACC" stroke-opacity="0.4"/>
<path d="M228.423 76.6857H217.863C217.655 76.6857 217.486 77.0609 217.486 77.5238V78.3619C217.486 78.8247 217.655 79.2 217.863 79.2H228.423C228.631 79.2 228.8 78.8247 228.8 78.3619V77.5238C228.8 77.0609 228.631 76.6857 228.423 76.6857Z" fill="#506677" fill-opacity="0.15"/>
<path d="M508.812 44H436.559C435.682 44 434.971 44.927 434.971 46.0706V59.5294C434.971 60.673 435.682 61.6 436.559 61.6H508.812C509.689 61.6 510.4 60.673 510.4 59.5294V46.0706C510.4 44.927 509.689 44 508.812 44Z" fill="#0477FE"/>
<path opacity="0.5" d="M484.461 51.5428H462.168C461.728 51.5428 461.371 51.9181 461.371 52.3809V53.219C461.371 53.6819 461.728 54.0571 462.168 54.0571H484.461C484.901 54.0571 485.257 53.6819 485.257 53.219V52.3809C485.257 51.9181 484.901 51.5428 484.461 51.5428Z" fill="white" fill-opacity="0.5"/>
<rect x="174.743" y="95.5428" width="33.9429" height="6.28571" rx="1" fill="#E5E8EB"/>
<rect x="148.343" y="95.5428" width="6.28571" height="6.28571" rx="1" fill="white"/>
<rect x="148.843" y="96.0428" width="5.28571" height="5.28571" rx="0.5" stroke="#ADBACC" stroke-opacity="0.4"/>
<rect x="279.086" y="270.286" width="26.4" height="6.28571" rx="1" fill="#506677" fill-opacity="0.15"/>
<rect x="308" y="266.514" width="13.8286" height="12.5714" rx="1" fill="white"/>
<rect x="308.5" y="267.014" width="12.8286" height="11.5714" rx="0.5" stroke="#ADBACC" stroke-opacity="0.4"/>
<path d="M316.674 271.543H313.154C313.085 271.543 313.029 271.918 313.029 272.381V273.219C313.029 273.682 313.085 274.057 313.154 274.057H316.674C316.744 274.057 316.8 273.682 316.8 273.219V272.381C316.8 271.918 316.744 271.543 316.674 271.543Z" fill="#506677" fill-opacity="0.15"/>
<rect x="325.6" y="271.543" width="26.4" height="3.77143" rx="1" fill="#506677" fill-opacity="0.15"/>
<rect x="357.029" y="266.514" width="13.8286" height="12.5714" rx="1" fill="white"/>
<rect x="357.529" y="267.014" width="12.8286" height="11.5714" rx="0.5" stroke="#ADBACC" stroke-opacity="0.4"/>
<path d="M365.703 271.543H362.183C362.113 271.543 362.057 271.918 362.057 272.381V273.219C362.057 273.682 362.113 274.057 362.183 274.057H365.703C365.772 274.057 365.829 273.682 365.829 273.219V272.381C365.829 271.918 365.772 271.543 365.703 271.543Z" fill="#506677" fill-opacity="0.15"/>
<rect x="148.343" y="115.657" width="15.0857" height="3.77143" rx="1" fill="#506677" fill-opacity="0.15"/>
<rect x="174.743" y="115.657" width="101.829" height="3.77143" rx="1" fill="#506677" fill-opacity="0.15"/>
<rect x="308" y="115.657" width="52.8" height="3.77143" rx="1" fill="#506677" fill-opacity="0.15"/>
<rect x="392.229" y="115.657" width="52.8" height="3.77143" rx="1" fill="#506677" fill-opacity="0.15"/>
<rect x="476.457" y="115.657" width="33.9429" height="3.77143" rx="1" fill="#506677" fill-opacity="0.15"/>
<rect x="148.343" y="135.771" width="15.0857" height="3.77143" rx="1" fill="#506677" fill-opacity="0.15"/>
<rect x="174.743" y="135.771" width="101.829" height="3.77143" rx="1" fill="#506677" fill-opacity="0.15"/>
<rect x="308" y="135.771" width="52.8" height="3.77143" rx="1" fill="#506677" fill-opacity="0.15"/>
<rect x="392.229" y="135.771" width="52.8" height="3.77143" rx="1" fill="#506677" fill-opacity="0.15"/>
<rect x="476.457" y="135.771" width="33.9429" height="3.77143" rx="1" fill="#506677" fill-opacity="0.15"/>
<rect x="148.343" y="155.886" width="15.0857" height="3.77143" rx="1" fill="#506677" fill-opacity="0.15"/>
<rect x="174.743" y="155.886" width="101.829" height="3.77143" rx="1" fill="#506677" fill-opacity="0.15"/>
<rect x="308" y="155.886" width="52.8" height="3.77143" rx="1" fill="#506677" fill-opacity="0.15"/>
<rect x="392.229" y="155.886" width="52.8" height="3.77143" rx="1" fill="#506677" fill-opacity="0.15"/>
<rect x="476.457" y="155.886" width="33.9429" height="3.77143" rx="1" fill="#506677" fill-opacity="0.15"/>
<rect x="148.343" y="176" width="15.0857" height="3.77143" rx="1" fill="#506677" fill-opacity="0.15"/>
<rect x="174.743" y="176" width="101.829" height="3.77143" rx="1" fill="#506677" fill-opacity="0.15"/>
<rect x="308" y="176" width="52.8" height="3.77143" rx="1" fill="#506677" fill-opacity="0.15"/>
<rect x="392.229" y="176" width="52.8" height="3.77143" rx="1" fill="#506677" fill-opacity="0.15"/>
<rect x="476.457" y="176" width="33.9429" height="3.77143" rx="1" fill="#506677" fill-opacity="0.15"/>
<rect x="148.343" y="196.114" width="15.0857" height="3.77143" rx="1" fill="#506677" fill-opacity="0.15"/>
<rect x="174.743" y="196.114" width="101.829" height="3.77143" rx="1" fill="#506677" fill-opacity="0.15"/>
<rect x="308" y="196.114" width="52.8" height="3.77143" rx="1" fill="#506677" fill-opacity="0.15"/>
<rect x="392.229" y="196.114" width="52.8" height="3.77143" rx="1" fill="#506677" fill-opacity="0.15"/>
<rect x="476.457" y="196.114" width="33.9429" height="3.77143" rx="1" fill="#506677" fill-opacity="0.15"/>
<rect x="148.343" y="216.229" width="15.0857" height="3.77143" rx="1" fill="#506677" fill-opacity="0.15"/>
<rect x="174.743" y="216.229" width="101.829" height="3.77143" rx="1" fill="#506677" fill-opacity="0.15"/>
<rect x="308" y="216.229" width="52.8" height="3.77143" rx="1" fill="#506677" fill-opacity="0.15"/>
<rect x="392.229" y="216.229" width="52.8" height="3.77143" rx="1" fill="#506677" fill-opacity="0.15"/>
<rect x="476.457" y="216.229" width="33.9429" height="3.77143" rx="1" fill="#506677" fill-opacity="0.15"/>
<rect x="148.343" y="236.343" width="15.0857" height="3.77143" rx="1" fill="#506677" fill-opacity="0.15"/>
<rect x="174.743" y="236.343" width="101.829" height="3.77143" rx="1" fill="#506677" fill-opacity="0.15"/>
<rect x="308" y="236.343" width="52.8" height="3.77143" rx="1" fill="#506677" fill-opacity="0.15"/>
<rect x="392.229" y="236.343" width="52.8" height="3.77143" rx="1" fill="#506677" fill-opacity="0.15"/>
<rect x="476.457" y="236.343" width="33.9429" height="3.77143" rx="1" fill="#506677" fill-opacity="0.15"/>
<rect x="308" y="95.5428" width="33.9429" height="6.28571" rx="1" fill="#E5E8EB"/>
<rect x="392.229" y="95.5428" width="33.9429" height="6.28571" rx="1" fill="#E5E8EB"/>
<rect x="476.457" y="95.5428" width="33.9429" height="6.28571" rx="1" fill="#E5E8EB"/>
<path d="M151.539 48.2495V56H152.925V53.438H154.493C156.062 53.438 157.163 52.3906 157.163 50.8438C157.163 49.2969 156.094 48.2495 154.552 48.2495H151.539ZM152.925 49.3828H154.187C155.181 49.3828 155.756 49.9146 155.756 50.8438C155.756 51.7837 155.176 52.3208 154.182 52.3208H152.925V49.3828ZM159.301 56.0913C160.031 56.0913 160.745 55.71 161.073 55.0923H161.1V56H162.389V52.0791C162.389 50.9351 161.47 50.1885 160.058 50.1885C158.608 50.1885 157.7 50.9512 157.641 52.0146H158.882C158.967 51.542 159.37 51.2358 160.004 51.2358C160.665 51.2358 161.068 51.5796 161.068 52.1758V52.584L159.564 52.6699C158.178 52.7559 157.399 53.3628 157.399 54.3726C157.399 55.3984 158.199 56.0913 159.301 56.0913ZM159.703 55.0815C159.123 55.0815 158.737 54.7861 158.737 54.3188C158.737 53.8677 159.107 53.5776 159.752 53.5347L161.068 53.4541V53.8892C161.068 54.5767 160.461 55.0815 159.703 55.0815ZM165.977 58.1484C167.636 58.1484 168.727 57.2676 168.727 55.9087V50.3066H167.416V51.2842H167.395C167.067 50.6289 166.412 50.21 165.601 50.21C164.145 50.21 163.232 51.3325 163.232 53.1318C163.232 54.9043 164.167 56.0054 165.574 56.0054C166.39 56.0054 167.062 55.5972 167.357 54.9849H167.389V55.9463C167.389 56.6714 166.89 57.1602 166.02 57.1602C165.386 57.1602 164.897 56.8647 164.752 56.4297H163.426C163.56 57.4287 164.57 58.1484 165.977 58.1484ZM165.982 54.9419C165.139 54.9419 164.602 54.2651 164.602 53.1372C164.602 52.02 165.139 51.311 165.982 51.311C166.836 51.311 167.389 52.0308 167.389 53.1372C167.389 54.249 166.836 54.9419 165.982 54.9419ZM173.588 54.2974C173.443 54.77 172.97 55.0815 172.347 55.0815C171.471 55.0815 170.913 54.4692 170.913 53.5562V53.4756H174.893V53.0405C174.893 51.311 173.883 50.1885 172.266 50.1885C170.623 50.1885 169.581 51.3755 169.581 53.1748C169.581 54.9902 170.612 56.1128 172.32 56.1128C173.668 56.1128 174.667 55.3716 174.839 54.2974H173.588ZM172.272 51.2251C173.04 51.2251 173.555 51.7891 173.582 52.5947H170.924C170.977 51.7998 171.52 51.2251 172.272 51.2251ZM175.655 51.9395C175.655 52.7827 176.203 53.3198 177.294 53.5615L178.239 53.771C178.835 53.9053 179.039 54.0986 179.039 54.4424C179.039 54.8667 178.636 55.1353 177.987 55.1353C177.31 55.1353 176.928 54.856 176.826 54.3027H175.51C175.618 55.4038 176.499 56.1128 177.987 56.1128C179.383 56.1128 180.371 55.3877 180.371 54.3135C180.371 53.4863 179.915 53.0298 178.733 52.7666L177.788 52.5571C177.192 52.4229 176.955 52.1973 176.955 51.8696C176.955 51.4507 177.347 51.1714 177.938 51.1714C178.556 51.1714 178.937 51.499 178.991 52.0146H180.237C180.205 50.9351 179.324 50.1885 177.938 50.1885C176.563 50.1885 175.655 50.8975 175.655 51.9395Z" fill="#506677"/>
<rect x="16.3429" y="70.4" width="6.28571" height="6.28571" rx="1" fill="#506677" fill-opacity="0.15"/>
<path d="M72.2857 114.4H27.0286C25.9871 114.4 25.1429 114.963 25.1429 115.657V116.914C25.1429 117.609 25.9871 118.171 27.0286 118.171H72.2857C73.3272 118.171 74.1714 117.609 74.1714 116.914V115.657C74.1714 114.963 73.3272 114.4 72.2857 114.4Z" fill="#506677" fill-opacity="0.15"/>
<rect x="16.3429" y="113.143" width="6.28571" height="6.28571" rx="1" fill="#506677" fill-opacity="0.15"/>
<rect x="16.3429" y="145.829" width="6.28571" height="6.28571" rx="1" fill="#506677" fill-opacity="0.15"/>
<rect x="16.3429" y="162.171" width="6.28571" height="6.28571" rx="1" fill="#506677" fill-opacity="0.15"/>
<path d="M45.8857 130.743H27.0286C25.9871 130.743 25.1429 131.306 25.1429 132V133.257C25.1429 133.951 25.9871 134.514 27.0286 134.514H45.8857C46.9272 134.514 47.7714 133.951 47.7714 133.257V132C47.7714 131.306 46.9272 130.743 45.8857 130.743Z" fill="#506677" fill-opacity="0.7"/>
<rect x="16.3429" y="129.486" width="6.28571" height="6.28571" rx="1" fill="#506677" fill-opacity="0.7"/>
<path d="M40.7873 147.086H27.0984C26.0184 147.086 25.1429 147.649 25.1429 148.343V149.6C25.1429 150.294 26.0184 150.857 27.0984 150.857H40.7873C41.8673 150.857 42.7429 150.294 42.7429 149.6V148.343C42.7429 147.649 41.8673 147.086 40.7873 147.086Z" fill="#506677" fill-opacity="0.15"/>
<path d="M59.6812 163.429H27.0617C26.0019 163.429 25.1429 163.991 25.1429 164.686V165.943C25.1429 166.637 26.0019 167.2 27.0617 167.2H59.6812C60.7409 167.2 61.6 166.637 61.6 165.943V164.686C61.6 163.991 60.7409 163.429 59.6812 163.429Z" fill="#506677" fill-opacity="0.15"/>
<path d="M60.9714 71.6571H27.0286C25.9871 71.6571 25.1429 72.2199 25.1429 72.9142V74.1714C25.1429 74.8657 25.9871 75.4285 27.0286 75.4285H60.9714C62.0129 75.4285 62.8571 74.8657 62.8571 74.1714V72.9142C62.8571 72.2199 62.0129 71.6571 60.9714 71.6571Z" fill="#506677" fill-opacity="0.15"/>
<path d="M61.6 52.8H18.8571C18.1628 52.8 17.6 53.3628 17.6 54.0571V57.8286C17.6 58.5229 18.1628 59.0857 18.8571 59.0857H61.6C62.2943 59.0857 62.8571 58.5229 62.8571 57.8286V54.0571C62.8571 53.3628 62.2943 52.8 61.6 52.8Z" fill="#506677" fill-opacity="0.15"/>
<path d="M91.7714 94.2857H18.8571C18.1628 94.2857 17.6 94.8485 17.6 95.5428V99.3143C17.6 100.009 18.1628 100.571 18.8571 100.571H91.7714C92.4657 100.571 93.0286 100.009 93.0286 99.3143V95.5428C93.0286 94.8485 92.4657 94.2857 91.7714 94.2857Z" fill="#506677" fill-opacity="0.15"/>
<rect x="497.829" y="21.3714" width="36.4571" height="6.28571" rx="1" transform="rotate(-180 497.829 21.3714)" fill="#506677" fill-opacity="0.15"/>
<rect x="517.943" y="26.4" width="15.0857" height="15.0857" rx="7.54286" transform="rotate(-180 517.943 26.4)" fill="#506677" fill-opacity="0.15"/>
<rect x="37.7143" y="22.6285" width="36.4571" height="6.28571" rx="1" fill="#506677" fill-opacity="0.15"/>
<rect x="17.6" y="17.6" width="15.0857" height="15.0857" rx="1" fill="#0477FE"/>
<path d="M27.8776 28.9143H24.6129C24.5086 28.9146 24.4053 28.8943 24.3089 28.8543C24.2125 28.8144 24.125 28.7557 24.0515 28.6817L21.5633 26.1925C21.4716 26.1008 21.4092 25.984 21.384 25.8568C21.3587 25.7296 21.3718 25.5978 21.4214 25.478C21.4711 25.3582 21.5552 25.2559 21.663 25.1839C21.7708 25.112 21.8976 25.0736 22.0272 25.0737H25.0748V22.0241C25.0748 21.8947 25.1132 21.7682 25.1851 21.6608C25.2571 21.5533 25.3593 21.4695 25.4789 21.4203C25.5987 21.3715 25.7302 21.3589 25.8571 21.384C25.9841 21.4092 26.1008 21.4709 26.193 21.5617L28.6821 24.05C28.756 24.1237 28.8145 24.2113 28.8544 24.3078C28.8942 24.4042 28.9146 24.5076 28.9143 24.6119V27.8776C28.9139 28.1525 28.8046 28.416 28.6102 28.6104C28.4159 28.8047 28.1524 28.914 27.8776 28.9143ZM24.7488 27.7924H27.7928V24.7477L26.1965 23.1509V26.1956H23.1527L24.7488 27.7924Z" fill="#F7F9FE"/>
</svg>
