<svg width="42" height="47" viewBox="0 0 42 47" fill="none" xmlns="http://www.w3.org/2000/svg">
<path fill-rule="evenodd" clip-rule="evenodd" d="M20.8441 0C20.2104 0 19.5942 0.131073 19.0491 0.439612L1.79503 10.4038C0.678461 11.0466 0 12.2618 0 13.5542V33.4459C0 34.7376 0.678461 35.9514 1.79503 36.5962L6.30087 39.1972C8.49005 40.2762 9.29746 40.2595 10.2939 40.2595C13.5352 40.2595 15.3858 38.2928 15.3858 34.8745V15.2393C15.3858 14.9617 15.1455 14.763 14.873 14.763H12.7116C12.4347 14.763 12.1988 14.9617 12.1988 15.2393V34.8745C12.1988 36.3897 10.6206 37.9134 8.05926 36.6329L3.37025 33.8855C3.20467 33.7953 3.07717 33.636 3.07717 33.4459V13.5542C3.07717 13.3653 3.20321 13.1736 3.37025 13.078L20.5877 3.15045C20.7489 3.05784 20.9409 3.05784 21.1006 3.15045L38.318 13.078C38.4822 13.1765 38.6111 13.3596 38.6111 13.5542V33.4459C38.6111 33.636 38.5158 33.8305 38.3547 33.9221L21.1006 43.8497C20.9526 43.9376 20.7489 43.9376 20.5877 43.8497L16.1551 41.2121C16.0233 41.1347 15.843 41.1406 15.7155 41.2121C14.492 41.9057 14.2619 41.9864 13.1146 42.3844C12.8318 42.4828 12.4024 42.6361 13.2611 43.117L19.0491 46.5238C19.6001 46.8427 20.214 47 20.8441 47C21.483 47 22.0882 46.8427 22.6392 46.5238L39.8933 36.5962C41.0098 35.9468 41.6883 34.7376 41.6883 33.4459V13.5542C41.6883 12.2618 41.0098 11.0493 39.8933 10.4038L22.6392 0.439612C22.0985 0.131073 21.4779 0 20.8441 0ZM25.4599 14.2138C20.5467 14.2138 17.6204 16.3048 17.6204 19.782C17.6204 23.5542 20.5247 24.5906 25.2401 25.0572C30.8816 25.6094 31.3211 26.4377 31.3211 27.5482C31.3211 29.4743 29.7855 30.2956 26.1559 30.2956C21.5959 30.2956 20.5936 29.1572 20.258 26.8888C20.2185 26.6456 20.0309 26.4492 19.7818 26.4492H17.5472C17.2717 26.4492 17.0343 26.6861 17.0343 26.9621C17.0343 29.8657 18.6139 33.2996 26.1559 33.2996C31.6157 33.2996 34.7647 31.1565 34.7647 27.4017C34.7647 23.6793 32.2209 22.6802 26.9252 21.98C21.5739 21.272 21.0639 20.9255 21.0639 19.6722C21.0639 18.6377 21.4962 17.2543 25.4599 17.2543C29.0001 17.2543 30.3086 18.0178 30.8449 20.4048C30.8918 20.6292 31.0896 20.8078 31.3211 20.8078H33.5558C33.6935 20.8078 33.8268 20.7233 33.9221 20.6245C34.0159 20.519 34.0818 20.4002 34.0686 20.2583C33.7228 16.1473 30.9812 14.2138 25.4599 14.2138Z" fill="#83CD29"/>
</svg>
