<svg width="200" height="200" viewBox="0 0 200 200" fill="none" xmlns="http://www.w3.org/2000/svg">
<rect width="200" height="200" fill="#0ACF84"/>
<path d="M49.478 97.554C49.562 102.321 53.5567 105.107 59.5992 105.107C65.9941 105.107 69.8043 102.019 69.8043 97.1512C69.8043 93.3411 67.4544 91.243 62.2847 90.2527L59.8006 89.7827C57.1654 89.2792 56.0576 88.5742 56.0576 87.2986C56.0576 85.8719 57.3836 84.8648 59.616 84.8648C61.8483 84.8648 63.4932 85.9055 63.5939 87.6511H69.3175C69.2504 83.0353 65.6584 80.0476 59.5656 80.0476C53.9931 80.0476 49.948 83.0521 49.948 87.7182C49.948 91.4108 52.4489 93.7775 57.2829 94.6838L59.767 95.1538C62.6372 95.7077 63.6779 96.3959 63.6779 97.7386C63.6779 99.2157 62.1169 100.29 59.7167 100.29C57.35 100.29 55.4869 99.2828 55.2016 97.554H49.478Z" fill="#D5FAD0"/>
<path d="M89.2577 99.7192H78.8176V94.7845H88.6367V90.2527H78.8176V85.4355H89.2577V80.4672H72.6577V104.688H89.2577V99.7192Z" fill="#D5FAD0"/>
<path d="M104.028 80.0476C96.6933 80.0476 92.0607 84.8648 92.0607 92.5858C92.0607 100.307 96.6765 105.107 104.028 105.107C111.363 105.107 115.979 100.307 115.979 92.5858C115.979 84.8648 111.363 80.0476 104.028 80.0476ZM104.028 85.0494C107.469 85.0494 109.718 87.97 109.718 92.5858C109.718 97.1848 107.469 100.105 104.028 100.105C100.571 100.105 98.3382 97.1848 98.3382 92.5858C98.3382 87.97 100.587 85.0494 104.028 85.0494Z" fill="#D5FAD0"/>
<path fill-rule="evenodd" clip-rule="evenodd" d="M95.8355 62.5C86.2816 62.5 77.8069 67.1159 72.5168 74.2594C70.9762 76.3398 68.0406 76.7774 65.9602 75.2367C63.8797 73.6961 63.4421 70.7605 64.9828 68.6801C71.9647 59.2519 83.1851 53.125 95.8355 53.125C117.026 53.125 134.205 70.3037 134.205 91.4946C134.205 112.686 117.026 129.864 95.8355 129.864C84.1074 129.864 73.6049 124.597 66.574 116.315C64.8985 114.341 65.1402 111.383 67.1137 109.708C69.0873 108.032 72.0454 108.274 73.7208 110.248C79.0465 116.521 86.9752 120.489 95.8355 120.489C111.849 120.489 124.83 107.508 124.83 91.4946C124.83 75.4813 111.849 62.5 95.8355 62.5Z" fill="#D5FAD0"/>
<path fill-rule="evenodd" clip-rule="evenodd" d="M117.21 114.025C119.141 112.301 122.104 112.469 123.828 114.4L147.246 140.628C148.971 142.559 148.803 145.522 146.872 147.247C144.941 148.971 141.977 148.803 140.253 146.872L116.835 120.644C115.111 118.713 115.279 115.749 117.21 114.025Z" fill="#D5FAD0"/>
</svg>
