<svg width="455" height="557" viewBox="0 0 455 557" fill="none" xmlns="http://www.w3.org/2000/svg">
<path d="M209.6 41.6695C209.6 41.6695 330.031 83.0261 270.715 198.214C270.363 198.918 270.559 203.3 270.559 204.905C270.637 214.334 270.167 223.607 269.659 232.88C295.599 181.977 336.878 171.452 366.614 171.452C387.585 171.452 402.806 176.694 402.806 176.694C402.806 176.694 399.597 284.096 298.808 284.096C288.361 284.096 276.897 282.962 264.259 280.418C259.916 307.259 253.382 332.652 244.696 356.245C276.388 321.227 308.902 310.546 336.839 310.546C380.386 310.546 412.665 336.565 412.665 336.565C412.665 336.565 381.012 415.404 307.885 415.404C285.779 415.404 259.916 408.205 229.985 389.463C190.389 469.438 125.243 520.85 49.8861 520.967H49.8078C43.0781 520.967 37.7569 515.685 37.7569 509.073C37.7569 502.46 43.0781 497.061 49.8469 497.061C112.566 496.983 167.539 455.391 203.3 389.581C189.841 394.824 172.391 399.597 153.532 399.597C116.166 399.597 73.3227 380.777 45.3865 309.294C73.5575 297.712 97.6984 293.017 118.318 293.017C175.638 293.017 205.765 329.209 219.733 353.898C229.124 330.031 236.245 303.933 240.705 276.114C229.319 277.914 218.834 278.697 209.13 278.697C102.707 278.697 94.5683 180.177 94.5683 180.177C94.5683 180.177 116.557 171.334 144.141 171.334C179.942 171.334 225.133 186.28 243.561 255.025C245.361 238.749 246.574 222.042 246.496 204.944C246.496 204.279 246.3 202.713 246.026 202.518C143.554 130.525 209.561 41.7087 209.561 41.7087M196.649 0.0391263L181.311 20.6978C177.634 25.6277 145.785 70.5448 155.136 128.452C155.566 131.191 156.114 133.929 156.701 136.629C152.593 136.316 148.406 136.16 144.141 136.16C110.727 136.16 84.3172 146.411 81.4219 147.545L57.3201 157.249L59.472 183.111C59.7459 186.515 62.7586 217.112 82.0479 248.061C84.4737 251.974 87.2126 255.964 90.3036 259.955C71.6794 262.812 52.1554 268.367 32.0053 276.662L0 289.809L12.5987 322.049C27.8971 361.214 48.9862 390.715 75.279 409.731C90.6166 420.804 107.402 428.238 125.478 431.955C102.433 451.283 76.492 461.769 49.7687 461.808C23.7497 461.808 2.50408 482.975 2.50408 509.033C2.50408 535.092 23.7106 556.142 49.7687 556.142C93.864 556.063 136.903 541.274 174.347 513.337C200.64 493.735 224.272 467.52 243.874 436.493C265.746 445.844 287.148 450.579 307.846 450.579C403.705 450.579 443.653 353.78 445.297 349.633L455 325.453L434.733 309.098C432.072 306.946 415.952 294.465 391.146 285.27C402.688 274.549 412.431 261.442 420.099 246.105C436.493 213.278 437.863 181.272 437.98 177.751L438.763 151.849L414.23 143.398C412.118 142.655 392.711 136.238 366.575 136.238C350.924 136.238 336.134 138.468 322.323 142.772C322.91 125.322 319.975 108.536 313.519 92.4946C289.809 33.453 227.95 10.7597 220.985 8.37303L196.649 0V0.0391263Z" fill="#393939"/>
</svg>
