<svg width="200" height="200" viewBox="0 0 200 200" fill="none" xmlns="http://www.w3.org/2000/svg">
<rect y="200" width="200" height="200" transform="rotate(-90 0 200)" fill="#FA5855"/>
<path d="M50 50C64.8055 50 78.8582 50 93.6637 50C92.0326 52.4187 90.4015 54.3283 89.2723 56.3651C88.5194 57.6381 87.7666 59.1658 87.7666 60.6934C87.6412 77.1153 87.6412 93.5373 87.7666 109.959C87.7666 116.324 88.8959 122.562 91.9072 128.418C96.2986 136.693 103.325 140.13 112.359 140.003C121.895 139.748 128.795 135.038 131.807 125.745C133.438 121.035 134.442 115.815 134.567 110.85C134.944 95.3195 134.693 79.6614 134.693 64.1305C134.693 62.8575 134.065 61.3299 133.187 60.1842C130.552 56.8743 127.666 53.8191 124.529 50.2546C133.187 50.2546 141.343 50.2546 150 50.2546C148.62 52.2914 147.114 54.0737 146.11 55.9832C145.232 57.7654 144.354 59.8023 144.228 61.7118C143.977 77.1153 144.103 92.5189 144.103 107.922C144.103 115.688 143.35 123.453 140.213 130.582C135.571 141.403 126.913 147.131 115.872 148.914C101.568 151.205 87.5157 150.187 74.4668 142.803C63.0489 136.311 56.5245 126.381 56.1481 113.015C55.7716 96.5926 55.8971 80.2979 56.0226 64.0032C56.0226 60.1842 55.3952 57.0016 52.8858 54.0737C51.8821 53.0553 51.2547 51.7822 50 50Z" fill="#F7F7F7"/>
</svg>
