<svg width="127" height="144" viewBox="0 0 127 144" fill="none" xmlns="http://www.w3.org/2000/svg">
<g filter="url(#filter0_di)">
<circle cx="116.942" cy="81.9913" r="9.05797" fill="#1B223C"/>
</g>
<path fill-rule="evenodd" clip-rule="evenodd" d="M117.021 78.1094C116.916 78.1094 116.814 78.131 116.724 78.182L113.874 79.828C113.69 79.9342 113.578 80.1349 113.578 80.3484V83.6343C113.578 83.8477 113.69 84.0482 113.874 84.1547L114.618 84.5844C114.98 84.7626 115.113 84.7599 115.278 84.7599C115.814 84.7599 116.119 84.435 116.119 83.8703V80.6268C116.119 80.5809 116.08 80.5481 116.035 80.5481H115.677C115.632 80.5481 115.593 80.5809 115.593 80.6268V83.8703C115.593 84.1206 115.332 84.3723 114.909 84.1608L114.134 83.707C114.107 83.692 114.086 83.6657 114.086 83.6343V80.3484C114.086 80.3172 114.107 80.2855 114.134 80.2697L116.979 78.6298C117.005 78.6145 117.037 78.6145 117.063 78.6298L119.907 80.2697C119.935 80.286 119.956 80.3163 119.956 80.3484V83.6343C119.956 83.6657 119.94 83.6979 119.913 83.713L117.063 85.3529C117.039 85.3675 117.005 85.3675 116.979 85.3529L116.246 84.9172C116.225 84.9045 116.195 84.9054 116.174 84.9172C115.972 85.0318 115.934 85.0451 115.744 85.1109C115.697 85.1272 115.626 85.1525 115.768 85.2319L116.724 85.7947C116.815 85.8474 116.917 85.8734 117.021 85.8734C117.126 85.8734 117.226 85.8474 117.317 85.7947L120.168 84.1547C120.352 84.0475 120.464 83.8477 120.464 83.6343V80.3484C120.464 80.1349 120.352 79.9346 120.168 79.828L117.317 78.182C117.228 78.131 117.126 78.1094 117.021 78.1094ZM117.783 80.4574C116.972 80.4574 116.488 80.8028 116.488 81.3772C116.488 82.0003 116.968 82.1715 117.747 82.2486C118.679 82.3398 118.752 82.4766 118.752 82.6601C118.752 82.9783 118.498 83.1139 117.898 83.1139C117.145 83.1139 116.98 82.9259 116.924 82.5512C116.918 82.511 116.887 82.4785 116.845 82.4785H116.476C116.431 82.4785 116.392 82.5177 116.392 82.5633C116.392 83.0429 116.652 83.6102 117.898 83.6102C118.8 83.6102 119.32 83.2562 119.32 82.6359C119.32 82.021 118.9 81.8559 118.025 81.7403C117.141 81.6233 117.057 81.5661 117.057 81.359C117.057 81.1882 117.129 80.9596 117.783 80.9596C118.368 80.9596 118.584 81.0857 118.673 81.4801C118.681 81.5171 118.713 81.5466 118.752 81.5466H119.121C119.143 81.5466 119.166 81.5327 119.181 81.5164C119.197 81.4989 119.208 81.4793 119.205 81.4559C119.148 80.7768 118.695 80.4574 117.783 80.4574Z" fill="white" stroke="white" stroke-width="0.5"/>
<g filter="url(#filter1_di)">
<circle cx="28.9503" cy="44.7242" r="9.05797" fill="#1B223C"/>
</g>
<path opacity="0.3" d="M27.5197 46.8212C27.5197 46.5965 27.3359 46.4126 27.1112 46.4126C26.8864 46.4126 26.7026 46.5965 26.7026 46.8212C26.7026 47.1235 26.6249 47.3932 26.4983 47.6179C26.5677 47.6302 26.6331 47.6383 26.7026 47.6383C27.152 47.6383 27.5197 47.2706 27.5197 46.8212Z" fill="white"/>
<path d="M29.052 46.004L32.7128 42.3431C32.8722 42.1838 32.8722 41.9264 32.7128 41.7671L32.1653 41.2196C32.0836 41.1378 31.9815 41.1011 31.8793 41.1011C31.7772 41.1011 31.671 41.1419 31.5892 41.2196L27.9284 44.8804L29.052 46.004ZM26.7027 48.4555C27.6056 48.4555 28.337 47.7241 28.337 46.8211C28.337 46.1429 27.7895 45.5954 27.1112 45.5954C26.433 45.5954 25.8855 46.1429 25.8855 46.8211C25.8855 47.3564 25.4116 47.6383 25.0684 47.6383C25.4442 48.1368 26.0857 48.4555 26.7027 48.4555ZM26.7027 46.8211C26.7027 46.5964 26.8865 46.4126 27.1112 46.4126C27.336 46.4126 27.5198 46.5964 27.5198 46.8211C27.5198 47.2706 27.1521 47.6383 26.7027 47.6383C26.6332 47.6383 26.5678 47.6301 26.4984 47.6179C26.625 47.3932 26.7027 47.1235 26.7027 46.8211Z" fill="white"/>
<g filter="url(#filter2_di)">
<circle cx="95.4618" cy="44.7242" r="9.05797" fill="#1B223C"/>
</g>
<path d="M94.4525 46.5099L92.6668 44.7242L94.4525 42.9385L93.909 42.395L91.5798 44.7242L93.909 47.0534L94.4525 46.5099ZM96.4711 46.5099L98.2569 44.7242L96.4711 42.9385L97.0146 42.395L99.3438 44.7242L97.0146 47.0534L96.4711 46.5099Z" fill="white"/>
<g filter="url(#filter3_di)">
<circle cx="10.058" cy="82.2501" r="9.05797" fill="#1B223C"/>
</g>
<path d="M9.95867 78.3682C8.15773 78.3682 6.6936 79.8323 6.6936 81.6332C6.6936 83.3757 8.06493 84.8055 9.78682 84.8949V86.1321L10.2783 85.895C12.0414 85.0461 13.2237 83.3345 13.2237 81.6332C13.2237 79.8323 11.7596 78.3682 9.95867 78.3682ZM10.4742 85.0014V84.2109H9.95867C8.53579 84.2109 7.38099 83.0561 7.38099 81.6332C7.38099 80.2103 8.53579 79.0555 9.95867 79.0555C11.3815 79.0555 12.5363 80.2103 12.5363 81.6332C12.5363 82.9152 11.7252 84.2143 10.4742 85.0014ZM9.61498 83.008H10.3024V83.6954H9.61498V83.008ZM9.95867 79.3992C9.19911 79.3992 8.5839 80.0144 8.5839 80.774H9.27128C9.27128 80.3959 9.58061 80.0866 9.95867 80.0866C10.3367 80.0866 10.646 80.3959 10.646 80.774C10.646 81.4614 9.61498 81.3755 9.61498 82.4925H10.3024C10.3024 81.7191 11.3334 81.6332 11.3334 80.774C11.3334 80.0144 10.7182 79.3992 9.95867 79.3992Z" fill="white"/>
<g filter="url(#filter4_di)">
<circle cx="64.4059" cy="24.2792" r="9.05797" fill="#1B223C"/>
</g>
<path d="M65.9617 25.2135H65.6343L65.5183 25.1016C65.9244 24.6293 66.1688 24.0161 66.1688 23.3491C66.1688 21.8617 64.9632 20.656 63.4758 20.656C61.9884 20.656 60.7827 21.8617 60.7827 23.3491C60.7827 24.8364 61.9884 26.0421 63.4758 26.0421C64.1428 26.0421 64.756 25.7977 65.2283 25.3916L65.3402 25.5076V25.8349L67.4118 27.9024L68.0291 27.2851L65.9617 25.2135ZM63.4758 25.2135C62.4441 25.2135 61.6113 24.3807 61.6113 23.3491C61.6113 22.3174 62.4441 21.4846 63.4758 21.4846C64.5074 21.4846 65.3402 22.3174 65.3402 23.3491C65.3402 24.3807 64.5074 25.2135 63.4758 25.2135Z" fill="white"/>
<g filter="url(#filter5_di)">
<circle cx="28.9503" cy="114.341" r="9.05797" fill="#1B223C"/>
</g>
<path d="M30.8881 114.202H31.5383V110.459L25.0684 116.929H28.808V116.282H26.6309L30.8881 112.022V114.202ZM32.7579 117.033L32.4118 116.764C32.4183 116.712 32.4247 116.661 32.4247 116.606C32.4247 116.551 32.4215 116.499 32.4118 116.447L32.7547 116.179C32.7838 116.153 32.7935 116.111 32.7741 116.075L32.4506 115.516C32.4312 115.48 32.3891 115.467 32.3503 115.48L31.9492 115.642C31.8651 115.577 31.7745 115.522 31.6742 115.483L31.6127 115.056C31.6095 115.017 31.5739 114.988 31.5351 114.988H30.8881C30.8493 114.988 30.8137 115.017 30.8072 115.056L30.7458 115.483C30.6487 115.525 30.5549 115.577 30.4708 115.642L30.0697 115.48C30.0341 115.467 29.992 115.48 29.9694 115.516L29.6459 116.075C29.6265 116.111 29.6329 116.153 29.6653 116.179L30.0082 116.447C30.0017 116.499 29.9985 116.551 29.9985 116.606C29.9985 116.661 30.0017 116.712 30.0082 116.764L29.6653 117.033C29.6362 117.059 29.6265 117.101 29.6459 117.136L29.9694 117.696C29.9888 117.731 30.0308 117.744 30.0697 117.731L30.4708 117.57C30.5549 117.634 30.6455 117.689 30.7458 117.728L30.8072 118.155C30.8137 118.194 30.8461 118.223 30.8881 118.223H31.5351C31.5739 118.223 31.6095 118.194 31.616 118.155L31.6774 117.728C31.7745 117.686 31.8683 117.634 31.9492 117.57L32.3536 117.731C32.3891 117.744 32.4312 117.731 32.4538 117.696L32.7773 117.136C32.7967 117.101 32.787 117.059 32.7579 117.033ZM31.2116 117.091C30.9431 117.091 30.7264 116.874 30.7264 116.606C30.7264 116.337 30.9431 116.12 31.2116 116.12C31.4801 116.12 31.6969 116.337 31.6969 116.606C31.6969 116.874 31.4801 117.091 31.2116 117.091Z" fill="white"/>
<g filter="url(#filter6_di)">
<circle cx="95.203" cy="114.341" r="9.05797" fill="#1B223C"/>
</g>
<path fill-rule="evenodd" clip-rule="evenodd" d="M95.2216 110.459C94.2957 110.458 93.3996 110.787 92.6941 111.387C91.9885 111.987 91.5196 112.818 91.3713 113.732C91.2231 114.646 91.4052 115.583 91.885 116.375C92.3648 117.167 93.1109 117.762 93.9897 118.054C94.1859 118.09 94.2553 117.968 94.2553 117.865C94.2553 117.762 94.2553 117.528 94.2553 117.202C93.1669 117.439 92.9372 116.679 92.9372 116.679C92.865 116.443 92.7116 116.24 92.5043 116.107C92.1527 115.868 92.533 115.868 92.533 115.868C92.6563 115.885 92.7739 115.93 92.8771 116C92.9803 116.07 93.0663 116.162 93.1286 116.269C93.1815 116.365 93.2529 116.45 93.3386 116.518C93.4243 116.587 93.5226 116.637 93.628 116.668C93.7333 116.698 93.8436 116.707 93.9525 116.694C94.0613 116.682 94.1667 116.648 94.2624 116.595C94.2774 116.398 94.3623 116.213 94.5016 116.073C93.6357 115.975 92.7267 115.64 92.7267 114.16C92.7208 113.773 92.8638 113.399 93.1262 113.114C93.0094 112.778 93.023 112.41 93.1645 112.083C93.1645 112.083 93.4922 111.978 94.2361 112.483C94.8749 112.307 95.5492 112.307 96.188 112.483C96.9319 111.978 97.2573 112.083 97.2573 112.083C97.4007 112.407 97.4178 112.772 97.3051 113.107C97.5675 113.391 97.7105 113.766 97.7046 114.153C97.7046 115.65 96.7932 115.978 95.9249 116.066C96.018 116.16 96.0899 116.272 96.1357 116.396C96.1815 116.52 96.2002 116.652 96.1904 116.784C96.1904 117.305 96.1904 117.726 96.1904 117.853C96.1904 117.98 96.2598 118.078 96.4583 118.04C97.3271 117.74 98.0621 117.143 98.5335 116.354C99.0048 115.565 99.1821 114.635 99.0342 113.728C98.8862 112.821 98.4224 111.996 97.7248 111.398C97.0272 110.799 96.1406 110.467 95.2216 110.459Z" fill="white"/>
<path d="M88.4741 134.008C88.4741 132.722 89.5169 131.679 90.8033 131.679H94.2324L95.3323 130.644L96.4322 131.679H99.8613C101.148 131.679 102.19 132.722 102.19 134.008C102.19 135.295 101.148 136.338 99.8613 136.338H90.8033C89.5169 136.338 88.4741 135.295 88.4741 134.008Z" fill="white"/>
<path d="M92.7674 134.184V133.957H91.7929V134.219H92.4686V134.262C92.4686 134.664 92.1764 134.939 91.7514 134.939C91.2633 134.939 90.9612 134.566 90.9612 133.963C90.9612 133.371 91.2583 133.015 91.7514 133.015C92.0884 133.015 92.3391 133.2 92.4387 133.523H92.7525C92.6628 133.047 92.2694 132.74 91.7514 132.74C91.0807 132.74 90.6541 133.216 90.6541 133.965C90.6541 134.727 91.0824 135.215 91.7514 135.215C92.3906 135.215 92.7674 134.832 92.7674 134.184Z" fill="#1B223C"/>
<path d="M93.2655 133.142C93.3667 133.142 93.4464 133.06 93.4464 132.961C93.4464 132.859 93.3667 132.78 93.2655 132.78C93.1659 132.78 93.0845 132.859 93.0845 132.961C93.0845 133.06 93.1659 133.142 93.2655 133.142ZM93.121 135.175H93.4099V133.449H93.121V135.175Z" fill="#1B223C"/>
<path d="M93.893 133.032V133.449H93.6357V133.686H93.893V134.727C93.893 135.059 94.0159 135.188 94.333 135.188C94.401 135.188 94.4807 135.183 94.5156 135.175V134.933C94.4957 134.936 94.4292 134.941 94.396 134.941C94.2483 134.941 94.1819 134.87 94.1819 134.712V133.686H94.5172V133.449H94.1819V133.032H93.893Z" fill="#1B223C"/>
<path d="M94.841 135.175H95.1298V134.169C95.1298 133.87 95.3075 133.674 95.5947 133.674C95.8653 133.674 96.0031 133.839 96.0031 134.113V135.175H96.2919V134.06C96.2919 133.674 96.0628 133.419 95.6843 133.419C95.422 133.419 95.2328 133.532 95.1365 133.724H95.1298V132.78H94.841V135.175Z" fill="#1B223C"/>
<path d="M98.0766 133.449H97.7877V134.463C97.7877 134.757 97.6184 134.949 97.3378 134.949C97.0706 134.949 96.9394 134.798 96.9394 134.518V133.449H96.6505V134.569C96.6505 134.961 96.8713 135.205 97.2482 135.205C97.5138 135.205 97.6931 135.094 97.796 134.895H97.8027V135.175H98.0766V133.449Z" fill="#1B223C"/>
<path d="M99.3101 135.205C99.7517 135.205 100.044 134.855 100.044 134.312C100.044 133.771 99.75 133.419 99.3151 133.419C99.071 133.419 98.8702 133.54 98.7623 133.738H98.7556V132.78H98.4667V135.175H98.7423V134.883H98.749C98.8602 135.082 99.0578 135.205 99.3101 135.205ZM99.2537 133.673C99.5591 133.673 99.7484 133.92 99.7484 134.312C99.7484 134.707 99.5591 134.951 99.2537 134.951C98.9615 134.951 98.754 134.697 98.754 134.312C98.754 133.928 98.9615 133.673 99.2537 133.673Z" fill="#1B223C"/>
<g filter="url(#filter7_di)">
<circle cx="62.5941" cy="132.714" r="9.05797" fill="#1B223C"/>
</g>
<path d="M64.9719 132.082C64.7519 130.966 63.7717 130.128 62.5941 130.128C61.6592 130.128 60.8473 130.658 60.4429 131.435C59.4691 131.538 58.7122 132.363 58.7122 133.363C58.7122 134.434 59.5824 135.304 60.6532 135.304H64.8586C65.7515 135.304 66.4761 134.579 66.4761 133.686C66.4761 132.832 65.813 132.14 64.9719 132.082ZM64.8586 134.657H60.6532C59.9382 134.657 59.3592 134.078 59.3592 133.363C59.3592 132.7 59.8541 132.147 60.5108 132.079L60.857 132.043L61.0187 131.736C61.326 131.144 61.9277 130.775 62.5941 130.775C63.4417 130.775 64.1728 131.377 64.3378 132.208L64.4349 132.693L64.9298 132.729C65.4345 132.761 65.8291 133.185 65.8291 133.686C65.8291 134.22 65.3924 134.657 64.8586 134.657Z" fill="white"/>
<path d="M74.4782 81.1661C75.5261 79.8123 75.0022 78.6894 73.273 78.6894H67.9179C67.5422 78.7129 67.1663 78.6448 66.8226 78.4908C66.479 78.3369 66.1777 78.1017 65.9448 77.8055C65.7119 77.5093 65.5542 77.1609 65.4854 76.7903C65.4165 76.4196 65.4385 76.0378 65.5495 75.6775L69.2488 61.1847C69.668 59.5056 69.144 59.2432 68.0856 60.6075L50.7103 82.7822C49.6623 84.136 50.1863 85.2589 51.9155 85.2589H57.2706C57.6463 85.2354 58.0222 85.3035 58.3658 85.4574C58.7095 85.6114 59.0107 85.8466 59.2436 86.1428C59.4766 86.439 59.6342 86.7874 59.7031 87.158C59.7719 87.5287 59.7499 87.9105 59.639 88.2708L55.9397 102.795C55.5205 104.474 56.0444 104.737 57.1029 103.372L74.4782 81.1661Z" fill="#FF0076"/>
<path d="M53.3793 78.6805C53.5663 77.7457 54.3871 77.0728 55.3405 77.0728H71.0241C72.2862 77.0728 73.2328 78.2274 72.9853 79.465L71.809 85.3464C71.622 86.2813 70.8012 86.9542 69.8478 86.9542H54.1642C52.9021 86.9542 51.9555 85.7995 52.2031 84.5619L53.3793 78.6805Z" fill="#F5F8FC"/>
<path d="M61.0624 79.5232L59.2521 83.2544L58.6197 79.5232H57.2996L58.3905 84.9777H59.5604L62.3826 79.5232H61.0624Z" fill="#FF0076"/>
<path d="M62.9335 79.5232L62.0719 84.9777H63.313L64.1746 79.5232H62.9335Z" fill="#FF0076"/>
<path d="M68.7778 80.8908C68.7778 79.8789 67.9952 79.5232 67.1019 79.5232H65.2204L64.3588 84.9777H65.5999L65.9161 82.9619H66.5564C67.8608 82.9698 68.7778 82.2584 68.7778 80.8908ZM67.505 81.0963C67.505 81.6892 67.094 81.9659 66.5406 81.9659H66.0663L66.2955 80.5192H66.7699C67.1572 80.5192 67.505 80.6378 67.505 81.0963Z" fill="#FF0076"/>
<path d="M6.12793 5V0.772461H5.37207V5H6.12793Z" fill="#FF0076"/>
<path d="M9.54688 4.36133H7.62793V0.772461H6.87207V5H9.54688V4.36133Z" fill="#FF0076"/>
<path d="M12.7637 4.36133H10.8447V0.772461H10.0889V5H12.7637V4.36133Z" fill="#FF0076"/>
<path d="M13.9033 0.772461H13.1475V3.50879C13.1475 4.43164 13.8154 5.07031 14.8848 5.07031C15.957 5.07031 16.6221 4.43164 16.6221 3.50879V0.772461H15.8691V3.44141C15.8691 4.01855 15.5117 4.41113 14.8848 4.41113C14.2578 4.41113 13.9033 4.01855 13.9033 3.44141V0.772461Z" fill="#FF0076"/>
<path d="M17.1963 3.81934C17.2314 4.59277 17.8789 5.07031 18.8574 5.07031C19.874 5.07031 20.5098 4.56055 20.5098 3.75195C20.5098 3.125 20.1377 2.76758 19.2471 2.58301L18.79 2.48926C18.2627 2.37793 18.0518 2.19336 18.0518 1.90625C18.0518 1.55176 18.3857 1.3291 18.8545 1.3291C19.3379 1.3291 19.6719 1.56934 19.707 1.96777H20.4307C20.4131 1.21191 19.7949 0.702148 18.8604 0.702148C17.9434 0.702148 17.29 1.20605 17.29 1.9502C17.29 2.56836 17.6855 2.9668 18.5322 3.13965L18.9863 3.2334C19.5371 3.34766 19.748 3.53516 19.748 3.83984C19.748 4.19141 19.3936 4.44336 18.8838 4.44336C18.3564 4.44336 17.9756 4.20898 17.9199 3.81934H17.1963Z" fill="#FF0076"/>
<path d="M22.8623 5V1.41113H24.125V0.772461H20.8438V1.41113H22.1094V5H22.8623Z" fill="#FF0076"/>
<path d="M25.3994 3.40918H26.2168L27.0488 5H27.9102L26.9873 3.29492C27.4912 3.11328 27.7842 2.64746 27.7842 2.08789C27.7842 1.2793 27.2363 0.772461 26.3223 0.772461H24.6436V5H25.3994V3.40918ZM25.3994 1.38477H26.2373C26.7148 1.38477 27.0107 1.66016 27.0107 2.10547C27.0107 2.5625 26.7324 2.8291 26.252 2.8291H25.3994V1.38477Z" fill="#FF0076"/>
<path d="M31.1562 5H31.9531L30.4531 0.772461H29.6006L28.1006 5H28.8799L29.2402 3.90723H30.7959L31.1562 5ZM30.0078 1.51953H30.0283L30.6172 3.32422H29.416L30.0078 1.51953Z" fill="#FF0076"/>
<path d="M33.6143 5V1.41113H34.877V0.772461H31.5957V1.41113H32.8613V5H33.6143Z" fill="#FF0076"/>
<path d="M36.1514 5V0.772461H35.3955V5H36.1514Z" fill="#FF0076"/>
<path d="M38.7588 0.702148C37.5254 0.702148 36.752 1.54297 36.752 2.8877C36.752 4.23242 37.5254 5.07031 38.7588 5.07031C39.9893 5.07031 40.7627 4.23242 40.7627 2.8877C40.7627 1.54297 39.9893 0.702148 38.7588 0.702148ZM38.7588 1.34668C39.5117 1.34668 39.9922 1.94434 39.9922 2.8877C39.9922 3.82812 39.5117 4.42578 38.7588 4.42578C38.0029 4.42578 37.5254 3.82812 37.5254 2.8877C37.5254 1.94434 38.0029 1.34668 38.7588 1.34668Z" fill="#FF0076"/>
<path d="M42.0957 5V2.03516H42.1221L44.2227 5H44.873V0.772461H44.1465V3.73438H44.1201L42.0225 0.772461H41.3662V5H42.0957Z" fill="#FF0076"/>
<path d="M45.4443 3.81934C45.4795 4.59277 46.127 5.07031 47.1055 5.07031C48.1221 5.07031 48.7578 4.56055 48.7578 3.75195C48.7578 3.125 48.3857 2.76758 47.4951 2.58301L47.0381 2.48926C46.5107 2.37793 46.2998 2.19336 46.2998 1.90625C46.2998 1.55176 46.6338 1.3291 47.1025 1.3291C47.5859 1.3291 47.9199 1.56934 47.9551 1.96777H48.6787C48.6611 1.21191 48.043 0.702148 47.1084 0.702148C46.1914 0.702148 45.5381 1.20605 45.5381 1.9502C45.5381 2.56836 45.9336 2.9668 46.7803 3.13965L47.2344 3.2334C47.7852 3.34766 47.9961 3.53516 47.9961 3.83984C47.9961 4.19141 47.6416 4.44336 47.1318 4.44336C46.6045 4.44336 46.2236 4.20898 46.168 3.81934H45.4443Z" fill="#FF0076"/>
<defs>
<filter id="filter0_di" x="106.884" y="72.9333" width="20.1159" height="20.1159" filterUnits="userSpaceOnUse" color-interpolation-filters="sRGB">
<feFlood flood-opacity="0" result="BackgroundImageFix"/>
<feColorMatrix in="SourceAlpha" type="matrix" values="0 0 0 0 0 0 0 0 0 0 0 0 0 0 0 0 0 0 127 0"/>
<feOffset dy="1"/>
<feGaussianBlur stdDeviation="0.5"/>
<feColorMatrix type="matrix" values="0 0 0 0 1 0 0 0 0 1 0 0 0 0 1 0 0 0 0.16 0"/>
<feBlend mode="normal" in2="BackgroundImageFix" result="effect1_dropShadow"/>
<feBlend mode="normal" in="SourceGraphic" in2="effect1_dropShadow" result="shape"/>
<feColorMatrix in="SourceAlpha" type="matrix" values="0 0 0 0 0 0 0 0 0 0 0 0 0 0 0 0 0 0 127 0" result="hardAlpha"/>
<feOffset dy="1"/>
<feComposite in2="hardAlpha" operator="arithmetic" k2="-1" k3="1"/>
<feColorMatrix type="matrix" values="0 0 0 0 0 0 0 0 0 0 0 0 0 0 0 0 0 0 0.42 0"/>
<feBlend mode="normal" in2="shape" result="effect2_innerShadow"/>
</filter>
<filter id="filter1_di" x="18.8923" y="35.6663" width="20.1159" height="20.1159" filterUnits="userSpaceOnUse" color-interpolation-filters="sRGB">
<feFlood flood-opacity="0" result="BackgroundImageFix"/>
<feColorMatrix in="SourceAlpha" type="matrix" values="0 0 0 0 0 0 0 0 0 0 0 0 0 0 0 0 0 0 127 0"/>
<feOffset dy="1"/>
<feGaussianBlur stdDeviation="0.5"/>
<feColorMatrix type="matrix" values="0 0 0 0 1 0 0 0 0 1 0 0 0 0 1 0 0 0 0.16 0"/>
<feBlend mode="normal" in2="BackgroundImageFix" result="effect1_dropShadow"/>
<feBlend mode="normal" in="SourceGraphic" in2="effect1_dropShadow" result="shape"/>
<feColorMatrix in="SourceAlpha" type="matrix" values="0 0 0 0 0 0 0 0 0 0 0 0 0 0 0 0 0 0 127 0" result="hardAlpha"/>
<feOffset dy="1"/>
<feComposite in2="hardAlpha" operator="arithmetic" k2="-1" k3="1"/>
<feColorMatrix type="matrix" values="0 0 0 0 0 0 0 0 0 0 0 0 0 0 0 0 0 0 0.42 0"/>
<feBlend mode="normal" in2="shape" result="effect2_innerShadow"/>
</filter>
<filter id="filter2_di" x="85.4038" y="35.6663" width="20.1159" height="20.1159" filterUnits="userSpaceOnUse" color-interpolation-filters="sRGB">
<feFlood flood-opacity="0" result="BackgroundImageFix"/>
<feColorMatrix in="SourceAlpha" type="matrix" values="0 0 0 0 0 0 0 0 0 0 0 0 0 0 0 0 0 0 127 0"/>
<feOffset dy="1"/>
<feGaussianBlur stdDeviation="0.5"/>
<feColorMatrix type="matrix" values="0 0 0 0 1 0 0 0 0 1 0 0 0 0 1 0 0 0 0.16 0"/>
<feBlend mode="normal" in2="BackgroundImageFix" result="effect1_dropShadow"/>
<feBlend mode="normal" in="SourceGraphic" in2="effect1_dropShadow" result="shape"/>
<feColorMatrix in="SourceAlpha" type="matrix" values="0 0 0 0 0 0 0 0 0 0 0 0 0 0 0 0 0 0 127 0" result="hardAlpha"/>
<feOffset dy="1"/>
<feComposite in2="hardAlpha" operator="arithmetic" k2="-1" k3="1"/>
<feColorMatrix type="matrix" values="0 0 0 0 0 0 0 0 0 0 0 0 0 0 0 0 0 0 0.42 0"/>
<feBlend mode="normal" in2="shape" result="effect2_innerShadow"/>
</filter>
<filter id="filter3_di" x="0" y="73.1921" width="20.1159" height="20.1159" filterUnits="userSpaceOnUse" color-interpolation-filters="sRGB">
<feFlood flood-opacity="0" result="BackgroundImageFix"/>
<feColorMatrix in="SourceAlpha" type="matrix" values="0 0 0 0 0 0 0 0 0 0 0 0 0 0 0 0 0 0 127 0"/>
<feOffset dy="1"/>
<feGaussianBlur stdDeviation="0.5"/>
<feColorMatrix type="matrix" values="0 0 0 0 1 0 0 0 0 1 0 0 0 0 1 0 0 0 0.16 0"/>
<feBlend mode="normal" in2="BackgroundImageFix" result="effect1_dropShadow"/>
<feBlend mode="normal" in="SourceGraphic" in2="effect1_dropShadow" result="shape"/>
<feColorMatrix in="SourceAlpha" type="matrix" values="0 0 0 0 0 0 0 0 0 0 0 0 0 0 0 0 0 0 127 0" result="hardAlpha"/>
<feOffset dy="1"/>
<feComposite in2="hardAlpha" operator="arithmetic" k2="-1" k3="1"/>
<feColorMatrix type="matrix" values="0 0 0 0 0 0 0 0 0 0 0 0 0 0 0 0 0 0 0.42 0"/>
<feBlend mode="normal" in2="shape" result="effect2_innerShadow"/>
</filter>
<filter id="filter4_di" x="54.3479" y="15.2212" width="20.1159" height="20.1159" filterUnits="userSpaceOnUse" color-interpolation-filters="sRGB">
<feFlood flood-opacity="0" result="BackgroundImageFix"/>
<feColorMatrix in="SourceAlpha" type="matrix" values="0 0 0 0 0 0 0 0 0 0 0 0 0 0 0 0 0 0 127 0"/>
<feOffset dy="1"/>
<feGaussianBlur stdDeviation="0.5"/>
<feColorMatrix type="matrix" values="0 0 0 0 1 0 0 0 0 1 0 0 0 0 1 0 0 0 0.16 0"/>
<feBlend mode="normal" in2="BackgroundImageFix" result="effect1_dropShadow"/>
<feBlend mode="normal" in="SourceGraphic" in2="effect1_dropShadow" result="shape"/>
<feColorMatrix in="SourceAlpha" type="matrix" values="0 0 0 0 0 0 0 0 0 0 0 0 0 0 0 0 0 0 127 0" result="hardAlpha"/>
<feOffset dy="1"/>
<feComposite in2="hardAlpha" operator="arithmetic" k2="-1" k3="1"/>
<feColorMatrix type="matrix" values="0 0 0 0 0 0 0 0 0 0 0 0 0 0 0 0 0 0 0.42 0"/>
<feBlend mode="normal" in2="shape" result="effect2_innerShadow"/>
</filter>
<filter id="filter5_di" x="18.8923" y="105.283" width="20.1159" height="20.1159" filterUnits="userSpaceOnUse" color-interpolation-filters="sRGB">
<feFlood flood-opacity="0" result="BackgroundImageFix"/>
<feColorMatrix in="SourceAlpha" type="matrix" values="0 0 0 0 0 0 0 0 0 0 0 0 0 0 0 0 0 0 127 0"/>
<feOffset dy="1"/>
<feGaussianBlur stdDeviation="0.5"/>
<feColorMatrix type="matrix" values="0 0 0 0 1 0 0 0 0 1 0 0 0 0 1 0 0 0 0.16 0"/>
<feBlend mode="normal" in2="BackgroundImageFix" result="effect1_dropShadow"/>
<feBlend mode="normal" in="SourceGraphic" in2="effect1_dropShadow" result="shape"/>
<feColorMatrix in="SourceAlpha" type="matrix" values="0 0 0 0 0 0 0 0 0 0 0 0 0 0 0 0 0 0 127 0" result="hardAlpha"/>
<feOffset dy="1"/>
<feComposite in2="hardAlpha" operator="arithmetic" k2="-1" k3="1"/>
<feColorMatrix type="matrix" values="0 0 0 0 0 0 0 0 0 0 0 0 0 0 0 0 0 0 0.42 0"/>
<feBlend mode="normal" in2="shape" result="effect2_innerShadow"/>
</filter>
<filter id="filter6_di" x="85.145" y="105.283" width="20.1159" height="20.1159" filterUnits="userSpaceOnUse" color-interpolation-filters="sRGB">
<feFlood flood-opacity="0" result="BackgroundImageFix"/>
<feColorMatrix in="SourceAlpha" type="matrix" values="0 0 0 0 0 0 0 0 0 0 0 0 0 0 0 0 0 0 127 0"/>
<feOffset dy="1"/>
<feGaussianBlur stdDeviation="0.5"/>
<feColorMatrix type="matrix" values="0 0 0 0 1 0 0 0 0 1 0 0 0 0 1 0 0 0 0.16 0"/>
<feBlend mode="normal" in2="BackgroundImageFix" result="effect1_dropShadow"/>
<feBlend mode="normal" in="SourceGraphic" in2="effect1_dropShadow" result="shape"/>
<feColorMatrix in="SourceAlpha" type="matrix" values="0 0 0 0 0 0 0 0 0 0 0 0 0 0 0 0 0 0 127 0" result="hardAlpha"/>
<feOffset dy="1"/>
<feComposite in2="hardAlpha" operator="arithmetic" k2="-1" k3="1"/>
<feColorMatrix type="matrix" values="0 0 0 0 0 0 0 0 0 0 0 0 0 0 0 0 0 0 0.42 0"/>
<feBlend mode="normal" in2="shape" result="effect2_innerShadow"/>
</filter>
<filter id="filter7_di" x="52.5361" y="123.656" width="20.1159" height="20.1159" filterUnits="userSpaceOnUse" color-interpolation-filters="sRGB">
<feFlood flood-opacity="0" result="BackgroundImageFix"/>
<feColorMatrix in="SourceAlpha" type="matrix" values="0 0 0 0 0 0 0 0 0 0 0 0 0 0 0 0 0 0 127 0"/>
<feOffset dy="1"/>
<feGaussianBlur stdDeviation="0.5"/>
<feColorMatrix type="matrix" values="0 0 0 0 1 0 0 0 0 1 0 0 0 0 1 0 0 0 0.16 0"/>
<feBlend mode="normal" in2="BackgroundImageFix" result="effect1_dropShadow"/>
<feBlend mode="normal" in="SourceGraphic" in2="effect1_dropShadow" result="shape"/>
<feColorMatrix in="SourceAlpha" type="matrix" values="0 0 0 0 0 0 0 0 0 0 0 0 0 0 0 0 0 0 127 0" result="hardAlpha"/>
<feOffset dy="1"/>
<feComposite in2="hardAlpha" operator="arithmetic" k2="-1" k3="1"/>
<feColorMatrix type="matrix" values="0 0 0 0 0 0 0 0 0 0 0 0 0 0 0 0 0 0 0.42 0"/>
<feBlend mode="normal" in2="shape" result="effect2_innerShadow"/>
</filter>
</defs>
</svg>
