<svg width="116" height="120" viewBox="0 0 116 120" fill="none" xmlns="http://www.w3.org/2000/svg">
<path d="M109 83.0637C107.099 84.2099 105.236 85.3772 103.111 86.0637C102.532 86.2509 101.413 86.2973 101 86.8137C100.634 87.2714 99.0745 88.0434 99.1111 87.897C99.7302 85.4205 100.504 82.5572 101.75 80.3137C102.375 79.1883 100.28 81.3891 100.056 82.2303C99.6798 83.6393 100.348 81.5921 99.8889 81.1748C98.3375 79.7645 93.9126 84.3693 92.8056 85.2303C92.3704 85.5688 92.6623 84.9812 92.7222 84.8414C92.9295 84.3577 91.6934 84.8859 91.4444 84.7303C91.1334 84.5359 92.1112 82.9924 91.3611 83.5081C90.2852 84.2478 89.8676 85.4739 89 86.3414C88.8631 86.4783 86.3585 88.4007 85.75 88.5359C84.7604 88.7558 84.9214 87.2835 84.5 86.6748C83.2796 84.912 79.1073 85.1661 77.2778 85.0914C74.9734 84.9974 73.4466 85.7467 71.2778 86.0359C69.708 86.2452 70.5014 83.0115 70.1667 83.2303C69.6754 83.5516 66.8433 86.756 67.1111 85.9525C68.7945 80.9022 56.9315 89.747 57.4722 87.3137C58.0749 84.6014 49.791 93.3009 53.75 86.8414C57.373 80.9302 51.3749 89.0913 50.1111 86.5637C49.6048 85.5511 50.7788 84.6357 50.4722 83.8692C50.3925 83.67 49.033 84.2637 48.9444 84.2859C47.6116 84.6191 46.198 84.5954 44.8333 84.5637C43.5171 84.5331 44.3322 82.6814 43.6389 82.8414C42.2684 83.1577 39.6823 84.0866 38.3056 83.5359C37.9927 83.4107 38.6574 83.0358 38.6111 82.897C38.5851 82.8191 35.5108 84.3613 35.2778 84.4525C34.3882 84.8007 30 87.0565 30 85.5637C30 84.1529 26.2287 86.7225 25.2222 86.9525C23.0534 87.4483 24.6177 83.4984 23.5 82.6748C21.2151 80.9911 16.4528 82.7742 14.0556 83.0081C11.9108 83.2174 12.4018 81.0429 11.3611 81.147C7.85185 81.4979 5.72714 84.2456 3 86.0637" stroke="#3a4854" stroke-width="2" stroke-linecap="round" stroke-linejoin="round"/>
<path d="M4.7749 98.5933C7.46075 98.0561 9.88292 97.8833 12.6041 97.8833C14.3023 97.8833 17.3869 97.249 18.9739 97.8044C21.9471 98.845 25.7571 97.8833 28.9132 97.8833C34.3026 97.8833 39.4954 97.1734 44.887 97.1734C46.5057 97.1734 48.0936 96.6512 49.6792 96.9959C51.0892 97.3024 52.4368 96.7008 53.8403 96.8973C55.0748 97.0701 56.2383 97.1734 57.4886 97.1734C66.2163 97.1734 74.9424 98.2383 83.6385 98.2383C87.0868 98.2383 90.4256 97.8833 93.8933 97.8833C94.8748 97.8833 100.774 97.9259 100.618 98.2383" stroke="#3a4854" stroke-width="2" stroke-linecap="round" stroke-linejoin="round"/>
<path d="M3 108.888C16.8685 110.134 31.036 110.42 44.8476 108.966C54.9031 107.908 64.7917 108.533 74.8627 108.533C87.3531 108.533 124.823 108.888 112.332 108.888" stroke="#3a4854" stroke-width="2" stroke-linecap="round" stroke-linejoin="round"/>
<path d="M3.35498 118.472C10.2928 118.472 17.2443 118.351 24.1802 118.492C27.8936 118.567 31.5555 118.531 35.2633 118.472C37.1121 118.442 38.9283 117.809 40.7851 117.762C43.9615 117.68 47.118 117.812 50.2511 118.097C52.4637 118.298 54.5414 117.762 56.6801 117.762C62.0236 117.762 67.2591 118.472 72.5751 118.472C73.9358 118.472 75.2965 118.472 76.6573 118.472C77.6416 118.472 79.6966 118.93 80.3845 118.472" stroke="#3a4854" stroke-width="2" stroke-linecap="round" stroke-linejoin="round"/>
<path d="M1.49994 25.3889C1.59059 17.5926 1.99994 9.81573 1.99994 1.99999L14 1.99999C19.5812 2.33824 25.8316 1.80837 31.3888 1.99999C41.6404 2.3535 51.8963 2.49999 62.1111 2.49999C71.8969 2.49999 81.5469 3.31013 91.3333 2.6111C93.7262 2.44018 100.866 1.34267 102.917 2.77777C103.881 3.4532 103.5 5.40903 103.5 6.38888C103.5 12.979 104.5 19.447 104.5 26.0555C104.5 37.2798 105.5 48.4862 105.5 59.6944C105.5 61.0924 106.462 66 104.5 66C100.927 66 96.7377 66.9481 93.1666 67.5C86.0952 68.5928 79.3574 69 72.2222 69C63.7993 69 55.1714 68.0258 46.7222 67.6111C34.1781 66.9954 21.5152 67.6936 8.99994 68.3889C3.63178 68.6871 4.09391 66.3523 3.47216 62C2.77384 57.1117 2.49994 51.9936 2.49994 47C2.49994 39.8002 1.41656 32.5592 1.49994 25.3889Z" fill="white" stroke="#3a4854" stroke-width="2" stroke-linecap="round" stroke-linejoin="round"/>
<path d="M5.5 68C10.9305 66.0893 16.3892 63.8064 21.6111 61.3889C25.9462 59.3819 29.4166 55.9504 33.3333 53.2778C38.7061 49.6116 43.6448 45.4351 49.3056 42.2222C59.8062 36.2624 69.1112 28.765 78.9444 21.8333C82.3077 19.4625 84.7192 17.1666 87.5 14.2222C89.4638 12.1429 91.6018 10.2685 94.25 9.25C97.7232 7.91417 106.828 1.33583 103.5 3" stroke="#3a4854" stroke-width="2" stroke-linecap="round" stroke-linejoin="round"/>
<path d="M2.5 1.5C15.4419 10.5437 28.8688 18.2143 43.0556 25.2222C48.212 27.7694 52.9687 30.9091 58 33.6111C61.2477 35.3552 63.6841 38.3483 66.4444 40.7222C69.4051 43.2684 72.7819 45.1136 76.1111 47.1111C79.2097 48.9702 83.6017 50.1291 86.2222 52.5C90.1047 56.0127 93.2406 60.6062 98 63.1111C98.4791 63.3632 104.5 66.7764 104.5 65.5" stroke="#3a4854" stroke-width="2" stroke-linecap="round" stroke-linejoin="round"/>
</svg>
