<svg width="424" height="318" viewBox="0 0 424 318" fill="none" xmlns="http://www.w3.org/2000/svg">
<path d="M0 4C0 1.79086 1.79086 0 4 0H420C422.209 0 424 1.79086 424 4V244H0V4Z" fill="#3a4854" fill-opacity="0.1"/>
<path d="M388.565 218H36.4354C34.5381 218 33 218.442 33 218.988V300.012C33 300.558 34.5381 301 36.4354 301H388.565C390.462 301 392 300.558 392 300.012V218.988C392 218.442 390.462 218 388.565 218Z" fill="white"/>
<rect x="277" y="260" width="100" height="6" rx="3" fill="#3a4854"/>
<rect x="277" y="271" width="100" height="3" rx="1.5" fill="#3a4854"/>
<rect x="277" y="278" width="100" height="3" rx="1.5" fill="#3a4854"/>
<rect x="277" y="285" width="86" height="3" rx="1.5" fill="#3a4854"/>
<path fill-rule="evenodd" clip-rule="evenodd" d="M276 231H298V253H276V231ZM278 233V251H296V233H278ZM287 240.586L294.293 233.293L295.707 234.707L288.414 242L295.707 249.293L294.293 250.707L287 243.414L279.707 250.707L278.293 249.293L285.586 242L278.293 234.707L279.707 233.293L287 240.586Z" fill="#3a4854"/>
<rect x="162" y="260" width="100" height="6" rx="3" fill="#3a4854"/>
<rect x="162" y="271" width="100" height="3" rx="1.5" fill="#3a4854"/>
<rect x="162" y="278" width="100" height="3" rx="1.5" fill="#3a4854"/>
<rect x="162" y="285" width="86" height="3" rx="1.5" fill="#3a4854"/>
<path fill-rule="evenodd" clip-rule="evenodd" d="M161 231H183V253H161V231ZM163 233V251H181V233H163ZM172 240.586L179.293 233.293L180.707 234.707L173.414 242L180.707 249.293L179.293 250.707L172 243.414L164.707 250.707L163.293 249.293L170.586 242L163.293 234.707L164.707 233.293L172 240.586Z" fill="#3a4854"/>
<rect x="47" y="260" width="100" height="6" rx="3" fill="#3a4854"/>
<rect x="47" y="271" width="100" height="3" rx="1.5" fill="#3a4854"/>
<rect x="47" y="278" width="100" height="3" rx="1.5" fill="#3a4854"/>
<rect x="47" y="285" width="86" height="3" rx="1.5" fill="#3a4854"/>
<path fill-rule="evenodd" clip-rule="evenodd" d="M46 231H68V253H46V231ZM48 233V251H66V233H48ZM57 240.586L64.2929 233.293L65.7071 234.707L58.4142 242L65.7071 249.293L64.2929 250.707L57 243.414L49.7071 250.707L48.2929 249.293L55.5858 242L48.2929 234.707L49.7071 233.293L57 240.586Z" fill="#3a4854"/>
<rect x="45" y="130" width="36" height="3" rx="1.5" fill="#3a4854"/>
<rect x="45" y="141" width="36" height="3" rx="1.5" fill="#3a4854"/>
<rect x="45" y="152" width="36" height="3" rx="1.5" fill="#3a4854"/>
<rect x="45" y="163" width="36" height="3" rx="1.5" fill="#3a4854"/>
<circle cx="37" cy="131" r="3" fill="#3a4854"/>
<circle cx="37" cy="142" r="3" fill="#3a4854"/>
<circle cx="37" cy="153" r="3" fill="#3a4854"/>
<circle cx="37" cy="164" r="3" fill="#3a4854"/>
<rect x="114" y="130" width="36" height="3" rx="1.5" fill="#3a4854"/>
<rect x="114" y="141" width="36" height="3" rx="1.5" fill="#3a4854"/>
<rect x="114" y="152" width="36" height="3" rx="1.5" fill="#3a4854"/>
<rect x="114" y="163" width="36" height="3" rx="1.5" fill="#3a4854"/>
<circle cx="105" cy="131" r="3" fill="#3a4854"/>
<circle cx="105" cy="142" r="3" fill="#3a4854"/>
<circle cx="105" cy="153" r="3" fill="#3a4854"/>
<circle cx="105" cy="164" r="3" fill="#3a4854"/>
<rect x="34" y="178" width="49" height="10" fill="#3a4854"/>
<path d="M37.4727 105.446H35.0938V101.068H34.4785V106H37.4727V105.446Z" fill="#3a4854"/>
<path d="M39.4277 106.062C40.4087 106.062 41.0718 105.354 41.0718 104.223C41.0718 103.088 40.4087 102.384 39.4277 102.384C38.4434 102.384 37.7803 103.088 37.7803 104.223C37.7803 105.354 38.4434 106.062 39.4277 106.062ZM39.4277 105.539C38.7988 105.539 38.3853 105.06 38.3853 104.223C38.3853 103.385 38.7988 102.907 39.4277 102.907C40.0566 102.907 40.4668 103.385 40.4668 104.223C40.4668 105.06 40.0566 105.539 39.4277 105.539Z" fill="#3a4854"/>
<path d="M41.6733 106H42.2681V103.785C42.2681 103.283 42.5688 102.951 43.0303 102.951C43.1738 102.951 43.3003 102.968 43.3481 102.985V102.408C43.3003 102.401 43.2114 102.384 43.1089 102.384C42.6919 102.384 42.3638 102.633 42.2476 103.026H42.2339V102.445H41.6733V106Z" fill="#3a4854"/>
<path d="M46.021 104.981C45.9219 105.316 45.5903 105.545 45.1392 105.545C44.5 105.545 44.1001 105.098 44.1001 104.417V104.383H46.6499V104.158C46.6499 103.081 46.0586 102.384 45.0981 102.384C44.1172 102.384 43.4883 103.132 43.4883 104.236C43.4883 105.354 44.1069 106.062 45.1255 106.062C45.9014 106.062 46.5029 105.604 46.6055 104.981H46.021ZM45.0879 102.9C45.6484 102.9 46.021 103.324 46.0347 103.918H44.1035C44.1411 103.327 44.5308 102.9 45.0879 102.9Z" fill="#3a4854"/>
<path d="M47.2515 106H47.8462V103.771C47.8462 103.279 48.188 102.91 48.6597 102.91C49.1006 102.91 49.3877 103.19 49.3877 103.618V106H49.9824V103.741C49.9824 103.259 50.314 102.91 50.7856 102.91C51.2539 102.91 51.5239 103.197 51.5239 103.683V106H52.1187V103.546C52.1187 102.842 51.6641 102.384 50.96 102.384C50.4609 102.384 50.0439 102.637 49.8457 103.061H49.832C49.6782 102.63 49.3193 102.384 48.834 102.384C48.3555 102.384 47.9932 102.637 47.8257 103.013H47.812V102.445H47.2515V106Z" fill="#3a4854"/>
<path d="M54.6411 101.813C54.8496 101.813 55.0137 101.646 55.0137 101.44C55.0137 101.232 54.8496 101.068 54.6411 101.068C54.436 101.068 54.2686 101.232 54.2686 101.44C54.2686 101.646 54.436 101.813 54.6411 101.813ZM54.3438 106H54.9385V102.445H54.3438V106Z" fill="#3a4854"/>
<path d="M57.4678 102.384C56.9517 102.384 56.5381 102.647 56.3193 103.047H56.3057V102.445H55.7417V107.186H56.3364V105.422H56.3501C56.562 105.812 56.9722 106.062 57.4814 106.062C58.377 106.062 58.9888 105.337 58.9888 104.223C58.9888 103.108 58.3735 102.384 57.4678 102.384ZM57.3516 105.539C56.7432 105.539 56.333 105.016 56.333 104.223C56.333 103.433 56.7432 102.907 57.3516 102.907C57.9839 102.907 58.3804 103.419 58.3804 104.223C58.3804 105.029 57.9839 105.539 57.3516 105.539Z" fill="#3a4854"/>
<path d="M59.5288 103.426C59.5288 103.939 59.8535 104.25 60.5234 104.411L61.0874 104.547C61.4941 104.646 61.6343 104.793 61.6343 105.05C61.6343 105.371 61.3369 105.576 60.855 105.576C60.373 105.576 60.0996 105.381 60.0278 104.975H59.4331C59.5015 105.641 60.021 106.062 60.855 106.062C61.6479 106.062 62.2324 105.624 62.2324 105.005C62.2324 104.496 61.9727 104.216 61.2549 104.042L60.6909 103.905C60.2944 103.809 60.1133 103.642 60.1133 103.396C60.1133 103.084 60.4004 102.869 60.8345 102.869C61.272 102.869 61.5454 103.098 61.5898 103.471H62.1572C62.1333 102.842 61.6138 102.384 60.8345 102.384C60.0654 102.384 59.5288 102.818 59.5288 103.426Z" fill="#3a4854"/>
<path d="M65.77 102.445H65.1753V104.534C65.1753 105.139 64.8267 105.535 64.249 105.535C63.6987 105.535 63.4287 105.224 63.4287 104.646V102.445H62.834V104.752C62.834 105.559 63.2886 106.062 64.0645 106.062C64.6113 106.062 64.9805 105.833 65.1924 105.422H65.2061V106H65.77V102.445Z" fill="#3a4854"/>
<path d="M66.5425 106H67.1372V103.771C67.1372 103.279 67.479 102.91 67.9507 102.91C68.3916 102.91 68.6787 103.19 68.6787 103.618V106H69.2734V103.741C69.2734 103.259 69.605 102.91 70.0767 102.91C70.5449 102.91 70.8149 103.197 70.8149 103.683V106H71.4097V103.546C71.4097 102.842 70.9551 102.384 70.251 102.384C69.752 102.384 69.335 102.637 69.1367 103.061H69.123C68.9692 102.63 68.6104 102.384 68.125 102.384C67.6465 102.384 67.2842 102.637 67.1167 103.013H67.103V102.445H66.5425V106Z" fill="#3a4854"/>
<path d="M74.9507 106.062C75.4634 106.062 75.8701 105.809 76.0991 105.398H76.1094V106H76.6768V101.068H76.082V103.023H76.0684C75.8564 102.633 75.4463 102.384 74.937 102.384C74.0415 102.384 73.4297 103.108 73.4297 104.223C73.4297 105.337 74.0449 106.062 74.9507 106.062ZM75.0635 102.907C75.6753 102.907 76.0854 103.43 76.0854 104.223C76.0854 105.019 75.6753 105.539 75.0635 105.539C74.4346 105.539 74.0381 105.029 74.0381 104.223C74.0381 103.419 74.4346 102.907 75.0635 102.907Z" fill="#3a4854"/>
<path d="M78.9531 106.062C79.9341 106.062 80.5972 105.354 80.5972 104.223C80.5972 103.088 79.9341 102.384 78.9531 102.384C77.9688 102.384 77.3057 103.088 77.3057 104.223C77.3057 105.354 77.9688 106.062 78.9531 106.062ZM78.9531 105.539C78.3242 105.539 77.9106 105.06 77.9106 104.223C77.9106 103.385 78.3242 102.907 78.9531 102.907C79.582 102.907 79.9922 103.385 79.9922 104.223C79.9922 105.06 79.582 105.539 78.9531 105.539Z" fill="#3a4854"/>
<path d="M81.2295 106H81.8242V101.068H81.2295V106Z" fill="#3a4854"/>
<path d="M84.1006 106.062C85.0815 106.062 85.7446 105.354 85.7446 104.223C85.7446 103.088 85.0815 102.384 84.1006 102.384C83.1162 102.384 82.4531 103.088 82.4531 104.223C82.4531 105.354 83.1162 106.062 84.1006 106.062ZM84.1006 105.539C83.4717 105.539 83.0581 105.06 83.0581 104.223C83.0581 103.385 83.4717 102.907 84.1006 102.907C84.7295 102.907 85.1396 103.385 85.1396 104.223C85.1396 105.06 84.7295 105.539 84.1006 105.539Z" fill="#3a4854"/>
<path d="M86.3462 106H86.9409V103.785C86.9409 103.283 87.2417 102.951 87.7031 102.951C87.8467 102.951 87.9731 102.968 88.021 102.985V102.408C87.9731 102.401 87.8843 102.384 87.7817 102.384C87.3647 102.384 87.0366 102.633 86.9204 103.026H86.9067V102.445H86.3462V106Z" fill="#3a4854"/>
<path d="M89.8804 103.426C89.8804 103.939 90.2051 104.25 90.875 104.411L91.439 104.547C91.8457 104.646 91.9858 104.793 91.9858 105.05C91.9858 105.371 91.6885 105.576 91.2065 105.576C90.7246 105.576 90.4512 105.381 90.3794 104.975H89.7847C89.853 105.641 90.3726 106.062 91.2065 106.062C91.9995 106.062 92.584 105.624 92.584 105.005C92.584 104.496 92.3242 104.216 91.6064 104.042L91.0425 103.905C90.646 103.809 90.4648 103.642 90.4648 103.396C90.4648 103.084 90.752 102.869 91.186 102.869C91.6235 102.869 91.897 103.098 91.9414 103.471H92.5088C92.4849 102.842 91.9653 102.384 91.186 102.384C90.417 102.384 89.8804 102.818 89.8804 103.426Z" fill="#3a4854"/>
<path d="M93.5308 101.813C93.7393 101.813 93.9033 101.646 93.9033 101.44C93.9033 101.232 93.7393 101.068 93.5308 101.068C93.3257 101.068 93.1582 101.232 93.1582 101.44C93.1582 101.646 93.3257 101.813 93.5308 101.813ZM93.2334 106H93.8281V102.445H93.2334V106Z" fill="#3a4854"/>
<path d="M94.8228 101.587V102.445H94.293V102.934H94.8228V105.077C94.8228 105.761 95.0757 106.027 95.7285 106.027C95.8687 106.027 96.0327 106.017 96.1045 106V105.501C96.0635 105.508 95.9268 105.518 95.8584 105.518C95.5542 105.518 95.4175 105.371 95.4175 105.046V102.934H96.1079V102.445H95.4175V101.587H94.8228Z" fill="#3a4854"/>
<path d="M99.2183 106.062C99.6968 106.062 100.148 105.795 100.36 105.388H100.374V106H100.938V103.542C100.938 102.835 100.411 102.384 99.5771 102.384C98.7363 102.384 98.21 102.855 98.1689 103.471H98.7432C98.8184 103.122 99.1055 102.907 99.5635 102.907C100.056 102.907 100.343 103.167 100.343 103.601V103.898L99.3242 103.956C98.5039 104.004 98.0356 104.387 98.0356 104.995C98.0356 105.634 98.5107 106.062 99.2183 106.062ZM99.3516 105.556C98.9243 105.556 98.6406 105.333 98.6406 104.995C98.6406 104.66 98.9141 104.448 99.3926 104.417L100.343 104.359V104.65C100.343 105.163 99.9121 105.556 99.3516 105.556Z" fill="#3a4854"/>
<path d="M101.693 106H102.288V103.771C102.288 103.279 102.629 102.91 103.101 102.91C103.542 102.91 103.829 103.19 103.829 103.618V106H104.424V103.741C104.424 103.259 104.755 102.91 105.227 102.91C105.695 102.91 105.965 103.197 105.965 103.683V106H106.56V103.546C106.56 102.842 106.105 102.384 105.401 102.384C104.902 102.384 104.485 102.637 104.287 103.061H104.273C104.12 102.63 103.761 102.384 103.275 102.384C102.797 102.384 102.435 102.637 102.267 103.013H102.253V102.445H101.693V106Z" fill="#3a4854"/>
<path d="M109.677 104.981C109.578 105.316 109.247 105.545 108.795 105.545C108.156 105.545 107.756 105.098 107.756 104.417V104.383H110.306V104.158C110.306 103.081 109.715 102.384 108.754 102.384C107.773 102.384 107.145 103.132 107.145 104.236C107.145 105.354 107.763 106.062 108.782 106.062C109.558 106.062 110.159 105.604 110.262 104.981H109.677ZM108.744 102.9C109.305 102.9 109.677 103.324 109.691 103.918H107.76C107.797 103.327 108.187 102.9 108.744 102.9Z" fill="#3a4854"/>
<path d="M111.099 101.587V102.445H110.569V102.934H111.099V105.077C111.099 105.761 111.352 106.027 112.005 106.027C112.145 106.027 112.309 106.017 112.381 106V105.501C112.34 105.508 112.203 105.518 112.135 105.518C111.831 105.518 111.694 105.371 111.694 105.046V102.934H112.384V102.445H111.694V101.587H111.099Z" fill="#3a4854"/>
<path d="M113.427 106.981L113.895 105.241H113.263L112.931 106.981H113.427Z" fill="#3a4854"/>
<path d="M118.844 103.611C118.769 102.972 118.239 102.384 117.351 102.384C116.37 102.384 115.717 103.102 115.717 104.223C115.717 105.368 116.373 106.062 117.357 106.062C118.164 106.062 118.759 105.562 118.851 104.855H118.267C118.164 105.282 117.846 105.539 117.361 105.539C116.746 105.539 116.322 105.05 116.322 104.223C116.322 103.416 116.739 102.907 117.354 102.907C117.877 102.907 118.178 103.225 118.263 103.611H118.844Z" fill="#3a4854"/>
<path d="M120.871 106.062C121.852 106.062 122.515 105.354 122.515 104.223C122.515 103.088 121.852 102.384 120.871 102.384C119.887 102.384 119.224 103.088 119.224 104.223C119.224 105.354 119.887 106.062 120.871 106.062ZM120.871 105.539C120.242 105.539 119.829 105.06 119.829 104.223C119.829 103.385 120.242 102.907 120.871 102.907C121.5 102.907 121.91 103.385 121.91 104.223C121.91 105.06 121.5 105.539 120.871 105.539Z" fill="#3a4854"/>
<path d="M123.117 106H123.711V103.908C123.711 103.307 124.077 102.91 124.638 102.91C125.185 102.91 125.455 103.225 125.455 103.799V106H126.049V103.693C126.049 102.886 125.598 102.384 124.819 102.384C124.269 102.384 123.889 102.63 123.691 103.013H123.677V102.445H123.117V106Z" fill="#3a4854"/>
<path d="M126.747 103.426C126.747 103.939 127.071 104.25 127.741 104.411L128.305 104.547C128.712 104.646 128.852 104.793 128.852 105.05C128.852 105.371 128.555 105.576 128.073 105.576C127.591 105.576 127.317 105.381 127.246 104.975H126.651C126.719 105.641 127.239 106.062 128.073 106.062C128.866 106.062 129.45 105.624 129.45 105.005C129.45 104.496 129.19 104.216 128.473 104.042L127.909 103.905C127.512 103.809 127.331 103.642 127.331 103.396C127.331 103.084 127.618 102.869 128.052 102.869C128.49 102.869 128.763 103.098 128.808 103.471H129.375C129.351 102.842 128.832 102.384 128.052 102.384C127.283 102.384 126.747 102.818 126.747 103.426Z" fill="#3a4854"/>
<path d="M132.427 104.981C132.328 105.316 131.997 105.545 131.545 105.545C130.906 105.545 130.506 105.098 130.506 104.417V104.383H133.056V104.158C133.056 103.081 132.465 102.384 131.504 102.384C130.523 102.384 129.895 103.132 129.895 104.236C129.895 105.354 130.513 106.062 131.532 106.062C132.308 106.062 132.909 105.604 133.012 104.981H132.427ZM131.494 102.9C132.055 102.9 132.427 103.324 132.441 103.918H130.51C130.547 103.327 130.937 102.9 131.494 102.9Z" fill="#3a4854"/>
<path d="M136.611 103.611C136.536 102.972 136.006 102.384 135.117 102.384C134.136 102.384 133.483 103.102 133.483 104.223C133.483 105.368 134.14 106.062 135.124 106.062C135.931 106.062 136.525 105.562 136.618 104.855H136.033C135.931 105.282 135.613 105.539 135.127 105.539C134.512 105.539 134.088 105.05 134.088 104.223C134.088 103.416 134.505 102.907 135.121 102.907C135.644 102.907 135.944 103.225 136.03 103.611H136.611Z" fill="#3a4854"/>
<path d="M137.356 101.587V102.445H136.826V102.934H137.356V105.077C137.356 105.761 137.609 106.027 138.262 106.027C138.402 106.027 138.566 106.017 138.638 106V105.501C138.597 105.508 138.46 105.518 138.392 105.518C138.087 105.518 137.951 105.371 137.951 105.046V102.934H138.641V102.445H137.951V101.587H137.356Z" fill="#3a4854"/>
<path d="M141.533 104.981C141.434 105.316 141.102 105.545 140.651 105.545C140.012 105.545 139.612 105.098 139.612 104.417V104.383H142.162V104.158C142.162 103.081 141.57 102.384 140.61 102.384C139.629 102.384 139 103.132 139 104.236C139 105.354 139.619 106.062 140.637 106.062C141.413 106.062 142.015 105.604 142.117 104.981H141.533ZM140.6 102.9C141.16 102.9 141.533 103.324 141.546 103.918H139.615C139.653 103.327 140.042 102.9 140.6 102.9Z" fill="#3a4854"/>
<path d="M142.955 101.587V102.445H142.425V102.934H142.955V105.077C142.955 105.761 143.208 106.027 143.86 106.027C144 106.027 144.165 106.017 144.236 106V105.501C144.195 105.508 144.059 105.518 143.99 105.518C143.686 105.518 143.549 105.371 143.549 105.046V102.934H144.24V102.445H143.549V101.587H142.955Z" fill="#3a4854"/>
<path d="M147.794 102.445H147.2V104.534C147.2 105.139 146.851 105.535 146.273 105.535C145.723 105.535 145.453 105.224 145.453 104.646V102.445H144.858V104.752C144.858 105.559 145.313 106.062 146.089 106.062C146.636 106.062 147.005 105.833 147.217 105.422H147.23V106H147.794V102.445Z" fill="#3a4854"/>
<path d="M148.567 106H149.162V103.785C149.162 103.283 149.462 102.951 149.924 102.951C150.067 102.951 150.194 102.968 150.242 102.985V102.408C150.194 102.401 150.105 102.384 150.002 102.384C149.585 102.384 149.257 102.633 149.141 103.026H149.127V102.445H148.567V106Z" fill="#3a4854"/>
<path d="M153.202 106.062C153.68 106.062 154.131 105.795 154.343 105.388H154.357V106H154.921V103.542C154.921 102.835 154.395 102.384 153.561 102.384C152.72 102.384 152.193 102.855 152.152 103.471H152.727C152.802 103.122 153.089 102.907 153.547 102.907C154.039 102.907 154.326 103.167 154.326 103.601V103.898L153.308 103.956C152.487 104.004 152.019 104.387 152.019 104.995C152.019 105.634 152.494 106.062 153.202 106.062ZM153.335 105.556C152.908 105.556 152.624 105.333 152.624 104.995C152.624 104.66 152.897 104.448 153.376 104.417L154.326 104.359V104.65C154.326 105.163 153.896 105.556 153.335 105.556Z" fill="#3a4854"/>
<path d="M157.023 106.062C157.536 106.062 157.942 105.809 158.171 105.398H158.182V106H158.749V101.068H158.154V103.023H158.141C157.929 102.633 157.519 102.384 157.009 102.384C156.114 102.384 155.502 103.108 155.502 104.223C155.502 105.337 156.117 106.062 157.023 106.062ZM157.136 102.907C157.748 102.907 158.158 103.43 158.158 104.223C158.158 105.019 157.748 105.539 157.136 105.539C156.507 105.539 156.11 105.029 156.11 104.223C156.11 103.419 156.507 102.907 157.136 102.907Z" fill="#3a4854"/>
<path d="M159.88 101.813C160.089 101.813 160.253 101.646 160.253 101.44C160.253 101.232 160.089 101.068 159.88 101.068C159.675 101.068 159.508 101.232 159.508 101.44C159.508 101.646 159.675 101.813 159.88 101.813ZM159.583 106H160.178V102.445H159.583V106Z" fill="#3a4854"/>
<path d="M162.707 102.384C162.191 102.384 161.777 102.647 161.559 103.047H161.545V102.445H160.981V107.186H161.576V105.422H161.589C161.801 105.812 162.211 106.062 162.721 106.062C163.616 106.062 164.228 105.337 164.228 104.223C164.228 103.108 163.613 102.384 162.707 102.384ZM162.591 105.539C161.982 105.539 161.572 105.016 161.572 104.223C161.572 103.433 161.982 102.907 162.591 102.907C163.223 102.907 163.62 103.419 163.62 104.223C163.62 105.029 163.223 105.539 162.591 105.539Z" fill="#3a4854"/>
<path d="M165.158 101.813C165.366 101.813 165.53 101.646 165.53 101.44C165.53 101.232 165.366 101.068 165.158 101.068C164.953 101.068 164.785 101.232 164.785 101.44C164.785 101.646 164.953 101.813 165.158 101.813ZM164.86 106H165.455V102.445H164.86V106Z" fill="#3a4854"/>
<path d="M166.197 103.426C166.197 103.939 166.521 104.25 167.191 104.411L167.755 104.547C168.162 104.646 168.302 104.793 168.302 105.05C168.302 105.371 168.005 105.576 167.523 105.576C167.041 105.576 166.768 105.381 166.696 104.975H166.101C166.169 105.641 166.689 106.062 167.523 106.062C168.316 106.062 168.9 105.624 168.9 105.005C168.9 104.496 168.641 104.216 167.923 104.042L167.359 103.905C166.962 103.809 166.781 103.642 166.781 103.396C166.781 103.084 167.068 102.869 167.502 102.869C167.94 102.869 168.213 103.098 168.258 103.471H168.825C168.801 102.842 168.282 102.384 167.502 102.384C166.733 102.384 166.197 102.818 166.197 103.426Z" fill="#3a4854"/>
<path d="M172.472 103.611C172.397 102.972 171.867 102.384 170.979 102.384C169.998 102.384 169.345 103.102 169.345 104.223C169.345 105.368 170.001 106.062 170.985 106.062C171.792 106.062 172.387 105.562 172.479 104.855H171.895C171.792 105.282 171.474 105.539 170.989 105.539C170.374 105.539 169.95 105.05 169.95 104.223C169.95 103.416 170.367 102.907 170.982 102.907C171.505 102.907 171.806 103.225 171.891 103.611H172.472Z" fill="#3a4854"/>
<path d="M173.354 101.813C173.562 101.813 173.727 101.646 173.727 101.44C173.727 101.232 173.562 101.068 173.354 101.068C173.149 101.068 172.981 101.232 172.981 101.44C172.981 101.646 173.149 101.813 173.354 101.813ZM173.057 106H173.651V102.445H173.057V106Z" fill="#3a4854"/>
<path d="M174.455 106H175.049V103.908C175.049 103.307 175.415 102.91 175.976 102.91C176.522 102.91 176.792 103.225 176.792 103.799V106H177.387V103.693C177.387 102.886 176.936 102.384 176.157 102.384C175.606 102.384 175.227 102.63 175.029 103.013H175.015V102.445H174.455V106Z" fill="#3a4854"/>
<path d="M179.612 107.34C180.593 107.34 181.219 106.776 181.219 105.928V102.445H180.651V103.043H180.641C180.405 102.63 179.988 102.384 179.486 102.384C178.566 102.384 177.972 103.095 177.972 104.209C177.972 105.313 178.566 106.027 179.472 106.027C179.971 106.027 180.392 105.774 180.61 105.388H180.624V105.949C180.624 106.479 180.251 106.834 179.636 106.834C179.192 106.834 178.84 106.619 178.724 106.294H178.112C178.211 106.899 178.83 107.34 179.612 107.34ZM179.592 105.504C178.98 105.504 178.58 105.005 178.58 104.209C178.58 103.413 178.98 102.907 179.592 102.907C180.21 102.907 180.624 103.426 180.624 104.209C180.624 104.992 180.21 105.504 179.592 105.504Z" fill="#3a4854"/>
<path d="M185.789 104.981C185.689 105.316 185.358 105.545 184.907 105.545C184.268 105.545 183.868 105.098 183.868 104.417V104.383H186.417V104.158C186.417 103.081 185.826 102.384 184.866 102.384C183.885 102.384 183.256 103.132 183.256 104.236C183.256 105.354 183.875 106.062 184.893 106.062C185.669 106.062 186.271 105.604 186.373 104.981H185.789ZM184.855 102.9C185.416 102.9 185.789 103.324 185.802 103.918H183.871C183.909 103.327 184.298 102.9 184.855 102.9Z" fill="#3a4854"/>
<path d="M187.05 106H187.645V101.068H187.05V106Z" fill="#3a4854"/>
<path d="M188.776 101.813C188.984 101.813 189.148 101.646 189.148 101.44C189.148 101.232 188.984 101.068 188.776 101.068C188.571 101.068 188.403 101.232 188.403 101.44C188.403 101.646 188.571 101.813 188.776 101.813ZM188.479 106H189.073V102.445H188.479V106Z" fill="#3a4854"/>
<path d="M190.068 101.587V102.445H189.538V102.934H190.068V105.077C190.068 105.761 190.321 106.027 190.974 106.027C191.114 106.027 191.278 106.017 191.35 106V105.501C191.309 105.508 191.172 105.518 191.104 105.518C190.799 105.518 190.663 105.371 190.663 105.046V102.934H191.353V102.445H190.663V101.587H190.068Z" fill="#3a4854"/>
<path d="M192.396 106.981L192.864 105.241H192.231L191.9 106.981H192.396Z" fill="#3a4854"/>
<path d="M194.798 103.426C194.798 103.939 195.123 104.25 195.793 104.411L196.357 104.547C196.764 104.646 196.904 104.793 196.904 105.05C196.904 105.371 196.606 105.576 196.125 105.576C195.643 105.576 195.369 105.381 195.297 104.975H194.703C194.771 105.641 195.291 106.062 196.125 106.062C196.917 106.062 197.502 105.624 197.502 105.005C197.502 104.496 197.242 104.216 196.524 104.042L195.96 103.905C195.564 103.809 195.383 103.642 195.383 103.396C195.383 103.084 195.67 102.869 196.104 102.869C196.542 102.869 196.815 103.098 196.859 103.471H197.427C197.403 102.842 196.883 102.384 196.104 102.384C195.335 102.384 194.798 102.818 194.798 103.426Z" fill="#3a4854"/>
<path d="M200.479 104.981C200.38 105.316 200.048 105.545 199.597 105.545C198.958 105.545 198.558 105.098 198.558 104.417V104.383H201.108V104.158C201.108 103.081 200.517 102.384 199.556 102.384C198.575 102.384 197.946 103.132 197.946 104.236C197.946 105.354 198.565 106.062 199.583 106.062C200.359 106.062 200.961 105.604 201.063 104.981H200.479ZM199.546 102.9C200.106 102.9 200.479 103.324 200.493 103.918H198.562C198.599 103.327 198.989 102.9 199.546 102.9Z" fill="#3a4854"/>
<path d="M203.056 106.062C203.569 106.062 203.976 105.809 204.205 105.398H204.215V106H204.782V101.068H204.188V103.023H204.174C203.962 102.633 203.552 102.384 203.042 102.384C202.147 102.384 201.535 103.108 201.535 104.223C201.535 105.337 202.15 106.062 203.056 106.062ZM203.169 102.907C203.781 102.907 204.191 103.43 204.191 104.223C204.191 105.019 203.781 105.539 203.169 105.539C202.54 105.539 202.144 105.029 202.144 104.223C202.144 103.419 202.54 102.907 203.169 102.907Z" fill="#3a4854"/>
<path d="M35.7329 117.062C36.2456 117.062 36.6523 116.809 36.8813 116.398H36.8916V117H37.459V112.068H36.8643V114.023H36.8506C36.6387 113.633 36.2285 113.384 35.7192 113.384C34.8237 113.384 34.2119 114.108 34.2119 115.223C34.2119 116.337 34.8271 117.062 35.7329 117.062ZM35.8457 113.907C36.4575 113.907 36.8677 114.43 36.8677 115.223C36.8677 116.019 36.4575 116.539 35.8457 116.539C35.2168 116.539 34.8203 116.029 34.8203 115.223C34.8203 114.419 35.2168 113.907 35.8457 113.907Z" fill="#3a4854"/>
<path d="M39.7354 117.062C40.7163 117.062 41.3794 116.354 41.3794 115.223C41.3794 114.088 40.7163 113.384 39.7354 113.384C38.751 113.384 38.0879 114.088 38.0879 115.223C38.0879 116.354 38.751 117.062 39.7354 117.062ZM39.7354 116.539C39.1064 116.539 38.6929 116.06 38.6929 115.223C38.6929 114.385 39.1064 113.907 39.7354 113.907C40.3643 113.907 40.7744 114.385 40.7744 115.223C40.7744 116.06 40.3643 116.539 39.7354 116.539Z" fill="#3a4854"/>
<path d="M45.7749 115.981C45.6758 116.316 45.3442 116.545 44.8931 116.545C44.2539 116.545 43.854 116.098 43.854 115.417V115.383H46.4038V115.158C46.4038 114.081 45.8125 113.384 44.8521 113.384C43.8711 113.384 43.2422 114.132 43.2422 115.236C43.2422 116.354 43.8608 117.062 44.8794 117.062C45.6553 117.062 46.2568 116.604 46.3594 115.981H45.7749ZM44.8418 113.9C45.4023 113.9 45.7749 114.324 45.7886 114.918H43.8574C43.895 114.327 44.2847 113.9 44.8418 113.9Z" fill="#3a4854"/>
<path d="M47.3335 112.813C47.542 112.813 47.7061 112.646 47.7061 112.44C47.7061 112.232 47.542 112.068 47.3335 112.068C47.1284 112.068 46.9609 112.232 46.9609 112.44C46.9609 112.646 47.1284 112.813 47.3335 112.813ZM47.0361 117H47.6309V113.445H47.0361V117Z" fill="#3a4854"/>
<path d="M51.353 113.445H50.7583V115.534C50.7583 116.139 50.4097 116.535 49.832 116.535C49.2817 116.535 49.0117 116.224 49.0117 115.646V113.445H48.417V115.752C48.417 116.559 48.8716 117.062 49.6475 117.062C50.1943 117.062 50.5635 116.833 50.7754 116.422H50.7891V117H51.353V113.445Z" fill="#3a4854"/>
<path d="M52.064 114.426C52.064 114.939 52.3887 115.25 53.0586 115.411L53.6226 115.547C54.0293 115.646 54.1694 115.793 54.1694 116.05C54.1694 116.371 53.8721 116.576 53.3901 116.576C52.9082 116.576 52.6348 116.381 52.563 115.975H51.9683C52.0366 116.641 52.5562 117.062 53.3901 117.062C54.1831 117.062 54.7676 116.624 54.7676 116.005C54.7676 115.496 54.5078 115.216 53.79 115.042L53.2261 114.905C52.8296 114.809 52.6484 114.642 52.6484 114.396C52.6484 114.084 52.9355 113.869 53.3696 113.869C53.8071 113.869 54.0806 114.098 54.125 114.471H54.6924C54.6685 113.842 54.1489 113.384 53.3696 113.384C52.6006 113.384 52.064 113.818 52.064 114.426Z" fill="#3a4854"/>
<path d="M55.3862 117H55.981V114.771C55.981 114.279 56.3228 113.91 56.7944 113.91C57.2354 113.91 57.5225 114.19 57.5225 114.618V117H58.1172V114.741C58.1172 114.259 58.4487 113.91 58.9204 113.91C59.3887 113.91 59.6587 114.197 59.6587 114.683V117H60.2534V114.546C60.2534 113.842 59.7988 113.384 59.0947 113.384C58.5957 113.384 58.1787 113.637 57.9805 114.061H57.9668C57.813 113.63 57.4541 113.384 56.9688 113.384C56.4902 113.384 56.1279 113.637 55.9604 114.013H55.9468V113.445H55.3862V117Z" fill="#3a4854"/>
<path d="M62.4854 117.062C63.4663 117.062 64.1294 116.354 64.1294 115.223C64.1294 114.088 63.4663 113.384 62.4854 113.384C61.501 113.384 60.8379 114.088 60.8379 115.223C60.8379 116.354 61.501 117.062 62.4854 117.062ZM62.4854 116.539C61.8564 116.539 61.4429 116.06 61.4429 115.223C61.4429 114.385 61.8564 113.907 62.4854 113.907C63.1143 113.907 63.5244 114.385 63.5244 115.223C63.5244 116.06 63.1143 116.539 62.4854 116.539Z" fill="#3a4854"/>
<path d="M66.0776 117.062C66.5903 117.062 66.9971 116.809 67.2261 116.398H67.2363V117H67.8037V112.068H67.209V114.023H67.1953C66.9834 113.633 66.5732 113.384 66.064 113.384C65.1685 113.384 64.5566 114.108 64.5566 115.223C64.5566 116.337 65.1719 117.062 66.0776 117.062ZM66.1904 113.907C66.8022 113.907 67.2124 114.43 67.2124 115.223C67.2124 116.019 66.8022 116.539 66.1904 116.539C65.5615 116.539 65.165 116.029 65.165 115.223C65.165 114.419 65.5615 113.907 66.1904 113.907Z" fill="#3a4854"/>
<path d="M70.2339 112.587V113.445H69.7041V113.934H70.2339V116.077C70.2339 116.761 70.4868 117.027 71.1396 117.027C71.2798 117.027 71.4438 117.017 71.5156 117V116.501C71.4746 116.508 71.3379 116.518 71.2695 116.518C70.9653 116.518 70.8286 116.371 70.8286 116.046V113.934H71.519V113.445H70.8286V112.587H70.2339Z" fill="#3a4854"/>
<path d="M74.4106 115.981C74.3115 116.316 73.98 116.545 73.5288 116.545C72.8896 116.545 72.4897 116.098 72.4897 115.417V115.383H75.0396V115.158C75.0396 114.081 74.4482 113.384 73.4878 113.384C72.5068 113.384 71.8779 114.132 71.8779 115.236C71.8779 116.354 72.4966 117.062 73.5151 117.062C74.291 117.062 74.8926 116.604 74.9951 115.981H74.4106ZM73.4775 113.9C74.0381 113.9 74.4106 114.324 74.4243 114.918H72.4932C72.5308 114.327 72.9204 113.9 73.4775 113.9Z" fill="#3a4854"/>
<path d="M75.6411 117H76.2358V114.771C76.2358 114.279 76.5776 113.91 77.0493 113.91C77.4902 113.91 77.7773 114.19 77.7773 114.618V117H78.3721V114.741C78.3721 114.259 78.7036 113.91 79.1753 113.91C79.6436 113.91 79.9136 114.197 79.9136 114.683V117H80.5083V114.546C80.5083 113.842 80.0537 113.384 79.3496 113.384C78.8506 113.384 78.4336 113.637 78.2354 114.061H78.2217C78.0679 113.63 77.709 113.384 77.2236 113.384C76.7451 113.384 76.3828 113.637 76.2153 114.013H76.2017V113.445H75.6411V117Z" fill="#3a4854"/>
<path d="M82.9932 113.384C82.4771 113.384 82.0635 113.647 81.8447 114.047H81.8311V113.445H81.2671V118.186H81.8618V116.422H81.8755C82.0874 116.812 82.4976 117.062 83.0068 117.062C83.9023 117.062 84.5142 116.337 84.5142 115.223C84.5142 114.108 83.8989 113.384 82.9932 113.384ZM82.877 116.539C82.2686 116.539 81.8584 116.016 81.8584 115.223C81.8584 114.433 82.2686 113.907 82.877 113.907C83.5093 113.907 83.9058 114.419 83.9058 115.223C83.9058 116.029 83.5093 116.539 82.877 116.539Z" fill="#3a4854"/>
<path d="M86.5889 117.062C87.5698 117.062 88.2329 116.354 88.2329 115.223C88.2329 114.088 87.5698 113.384 86.5889 113.384C85.6045 113.384 84.9414 114.088 84.9414 115.223C84.9414 116.354 85.6045 117.062 86.5889 117.062ZM86.5889 116.539C85.96 116.539 85.5464 116.06 85.5464 115.223C85.5464 114.385 85.96 113.907 86.5889 113.907C87.2178 113.907 87.6279 114.385 87.6279 115.223C87.6279 116.06 87.2178 116.539 86.5889 116.539Z" fill="#3a4854"/>
<path d="M88.8345 117H89.4292V114.785C89.4292 114.283 89.73 113.951 90.1914 113.951C90.335 113.951 90.4614 113.968 90.5093 113.985V113.408C90.4614 113.401 90.3726 113.384 90.27 113.384C89.853 113.384 89.5249 113.633 89.4087 114.026H89.395V113.445H88.8345V117Z" fill="#3a4854"/>
<path d="M92.7583 112.813C92.9668 112.813 93.1309 112.646 93.1309 112.44C93.1309 112.232 92.9668 112.068 92.7583 112.068C92.5532 112.068 92.3857 112.232 92.3857 112.44C92.3857 112.646 92.5532 112.813 92.7583 112.813ZM92.4609 117H93.0557V113.445H92.4609V117Z" fill="#3a4854"/>
<path d="M93.8589 117H94.4536V114.908C94.4536 114.307 94.8193 113.91 95.3799 113.91C95.9268 113.91 96.1968 114.225 96.1968 114.799V117H96.7915V114.693C96.7915 113.886 96.3403 113.384 95.561 113.384C95.0107 113.384 94.6313 113.63 94.4331 114.013H94.4194V113.445H93.8589V117Z" fill="#3a4854"/>
<path d="M100.503 114.611C100.428 113.972 99.8984 113.384 99.0098 113.384C98.0288 113.384 97.376 114.102 97.376 115.223C97.376 116.368 98.0322 117.062 99.0166 117.062C99.8232 117.062 100.418 116.562 100.51 115.855H99.9258C99.8232 116.282 99.5054 116.539 99.02 116.539C98.4048 116.539 97.981 116.05 97.981 115.223C97.981 114.416 98.3979 113.907 99.0132 113.907C99.5361 113.907 99.8369 114.225 99.9224 114.611H100.503Z" fill="#3a4854"/>
<path d="M101.385 112.813C101.594 112.813 101.758 112.646 101.758 112.44C101.758 112.232 101.594 112.068 101.385 112.068C101.18 112.068 101.013 112.232 101.013 112.44C101.013 112.646 101.18 112.813 101.385 112.813ZM101.088 117H101.683V113.445H101.088V117Z" fill="#3a4854"/>
<path d="M103.833 117.062C104.345 117.062 104.752 116.809 104.981 116.398H104.991V117H105.559V112.068H104.964V114.023H104.95C104.738 113.633 104.328 113.384 103.819 113.384C102.923 113.384 102.312 114.108 102.312 115.223C102.312 116.337 102.927 117.062 103.833 117.062ZM103.945 113.907C104.557 113.907 104.967 114.43 104.967 115.223C104.967 116.019 104.557 116.539 103.945 116.539C103.316 116.539 102.92 116.029 102.92 115.223C102.92 114.419 103.316 113.907 103.945 113.907Z" fill="#3a4854"/>
<path d="M106.69 112.813C106.898 112.813 107.062 112.646 107.062 112.44C107.062 112.232 106.898 112.068 106.69 112.068C106.485 112.068 106.317 112.232 106.317 112.44C106.317 112.646 106.485 112.813 106.69 112.813ZM106.393 117H106.987V113.445H106.393V117Z" fill="#3a4854"/>
<path d="M109.137 117.062C109.65 117.062 110.057 116.809 110.286 116.398H110.296V117H110.863V112.068H110.269V114.023H110.255C110.043 113.633 109.633 113.384 109.124 113.384C108.228 113.384 107.616 114.108 107.616 115.223C107.616 116.337 108.231 117.062 109.137 117.062ZM109.25 113.907C109.862 113.907 110.272 114.43 110.272 115.223C110.272 116.019 109.862 116.539 109.25 116.539C108.621 116.539 108.225 116.029 108.225 115.223C108.225 114.419 108.621 113.907 109.25 113.907Z" fill="#3a4854"/>
<path d="M114.585 113.445H113.991V115.534C113.991 116.139 113.642 116.535 113.064 116.535C112.514 116.535 112.244 116.224 112.244 115.646V113.445H111.649V115.752C111.649 116.559 112.104 117.062 112.88 117.062C113.427 117.062 113.796 116.833 114.008 116.422H114.021V117H114.585V113.445Z" fill="#3a4854"/>
<path d="M115.358 117H115.953V114.908C115.953 114.307 116.318 113.91 116.879 113.91C117.426 113.91 117.696 114.225 117.696 114.799V117H118.291V114.693C118.291 113.886 117.839 113.384 117.06 113.384C116.51 113.384 116.13 113.63 115.932 114.013H115.918V113.445H115.358V117Z" fill="#3a4854"/>
<path d="M119.241 112.587V113.445H118.711V113.934H119.241V116.077C119.241 116.761 119.494 117.027 120.146 117.027C120.287 117.027 120.451 117.017 120.522 117V116.501C120.481 116.508 120.345 116.518 120.276 116.518C119.972 116.518 119.835 116.371 119.835 116.046V113.934H120.526V113.445H119.835V112.587H119.241Z" fill="#3a4854"/>
<path d="M125.516 113.445H124.921V115.534C124.921 116.139 124.573 116.535 123.995 116.535C123.445 116.535 123.175 116.224 123.175 115.646V113.445H122.58V115.752C122.58 116.559 123.035 117.062 123.811 117.062C124.357 117.062 124.727 116.833 124.938 116.422H124.952V117H125.516V113.445Z" fill="#3a4854"/>
<path d="M126.48 112.587V113.445H125.95V113.934H126.48V116.077C126.48 116.761 126.733 117.027 127.386 117.027C127.526 117.027 127.69 117.017 127.762 117V116.501C127.721 116.508 127.584 116.518 127.516 116.518C127.211 116.518 127.075 116.371 127.075 116.046V113.934H127.765V113.445H127.075V112.587H126.48Z" fill="#3a4854"/>
<path d="M129.867 117H130.462V112.068H129.867V117Z" fill="#3a4854"/>
<path d="M132.304 117.062C132.783 117.062 133.234 116.795 133.446 116.388H133.459V117H134.023V114.542C134.023 113.835 133.497 113.384 132.663 113.384C131.822 113.384 131.296 113.855 131.255 114.471H131.829C131.904 114.122 132.191 113.907 132.649 113.907C133.142 113.907 133.429 114.167 133.429 114.601V114.898L132.41 114.956C131.59 115.004 131.122 115.387 131.122 115.995C131.122 116.634 131.597 117.062 132.304 117.062ZM132.438 116.556C132.01 116.556 131.727 116.333 131.727 115.995C131.727 115.66 132 115.448 132.479 115.417L133.429 115.359V115.65C133.429 116.163 132.998 116.556 132.438 116.556Z" fill="#3a4854"/>
<path d="M136.546 117.062C137.455 117.062 138.057 116.34 138.057 115.223C138.057 114.108 137.452 113.384 136.556 113.384C136.054 113.384 135.64 113.633 135.418 114.04H135.404V112.068H134.81V117H135.377V116.398H135.391C135.62 116.809 136.026 117.062 136.546 117.062ZM136.43 113.907C137.059 113.907 137.448 114.416 137.448 115.223C137.448 116.036 137.059 116.539 136.43 116.539C135.828 116.539 135.401 116.016 135.401 115.223C135.401 114.433 135.828 113.907 136.43 113.907Z" fill="#3a4854"/>
<path d="M140.135 117.062C141.116 117.062 141.779 116.354 141.779 115.223C141.779 114.088 141.116 113.384 140.135 113.384C139.15 113.384 138.487 114.088 138.487 115.223C138.487 116.354 139.15 117.062 140.135 117.062ZM140.135 116.539C139.506 116.539 139.092 116.06 139.092 115.223C139.092 114.385 139.506 113.907 140.135 113.907C140.764 113.907 141.174 114.385 141.174 115.223C141.174 116.06 140.764 116.539 140.135 116.539Z" fill="#3a4854"/>
<path d="M142.38 117H142.975V114.785C142.975 114.283 143.276 113.951 143.737 113.951C143.881 113.951 144.007 113.968 144.055 113.985V113.408C144.007 113.401 143.918 113.384 143.816 113.384C143.399 113.384 143.071 113.633 142.955 114.026H142.941V113.445H142.38V117Z" fill="#3a4854"/>
<path d="M146.728 115.981C146.629 116.316 146.297 116.545 145.846 116.545C145.207 116.545 144.807 116.098 144.807 115.417V115.383H147.357V115.158C147.357 114.081 146.766 113.384 145.805 113.384C144.824 113.384 144.195 114.132 144.195 115.236C144.195 116.354 144.814 117.062 145.833 117.062C146.608 117.062 147.21 116.604 147.312 115.981H146.728ZM145.795 113.9C146.355 113.9 146.728 114.324 146.742 114.918H144.811C144.848 114.327 145.238 113.9 145.795 113.9Z" fill="#3a4854"/>
<path d="M151.752 115.981C151.653 116.316 151.322 116.545 150.871 116.545C150.231 116.545 149.832 116.098 149.832 115.417V115.383H152.381V115.158C152.381 114.081 151.79 113.384 150.83 113.384C149.849 113.384 149.22 114.132 149.22 115.236C149.22 116.354 149.838 117.062 150.857 117.062C151.633 117.062 152.234 116.604 152.337 115.981H151.752ZM150.819 113.9C151.38 113.9 151.752 114.324 151.766 114.918H149.835C149.873 114.327 150.262 113.9 150.819 113.9Z" fill="#3a4854"/>
<path d="M153.174 112.587V113.445H152.645V113.934H153.174V116.077C153.174 116.761 153.427 117.027 154.08 117.027C154.22 117.027 154.384 117.017 154.456 117V116.501C154.415 116.508 154.278 116.518 154.21 116.518C153.906 116.518 153.769 116.371 153.769 116.046V113.934H154.459V113.445H153.769V112.587H153.174Z" fill="#3a4854"/>
<path d="M93.1431 86L96.0005 81.0679H95.3101L92.9893 85.1899H92.9756L92.3535 81.0679H91.7588L92.521 86H93.1431Z" fill="#3a4854"/>
<path d="M96.1509 86L97.2002 81.0679H96.5713L95.522 86H96.1509Z" fill="#3a4854"/>
<path d="M98.1572 81.0679L97.1079 86H97.7402L98.1128 84.2397H99.3057C100.437 84.2397 101.305 83.5527 101.305 82.4009C101.305 81.584 100.676 81.0679 99.8901 81.0679H98.1572ZM98.6699 81.6147H99.6782C100.28 81.6147 100.663 81.9224 100.663 82.4556C100.663 83.2485 100.116 83.6929 99.2681 83.6929H98.229L98.6699 81.6147Z" fill="#3a4854"/>
<path d="M34 84.6732H35.4113L34.0239 93H37.6339L39.0206 84.6736H40.8357L41.3847 81.9066L39.4604 81.9264C39.6461 80.8775 39.779 80.2539 41.1029 79.8507C41.6024 79.6987 41.982 79.4993 42.3986 79.6311L43 77.2154C42.2598 76.9923 41.3847 76.9664 40.6172 77.0305C37.2287 77.3129 36.3136 79.1607 35.8511 81.9277H34.4398L34 84.6732Z" fill="#3a4854"/>
<path d="M48.6368 82.1118H52L50.5554 91.2069C50.516 91.4716 50.4944 91.7387 50.4909 92.0063C50.4866 92.2598 50.5082 92.513 50.5554 92.762H47.4294C47.4294 92.762 47.3445 92.5032 47.3445 92.0063C47.3445 91.8334 47.3445 91.6175 47.3661 91.3799H47.3445C46.4391 92.4165 45.1022 93 43.7225 93C41.1175 92.7773 40 90.9294 40 88.4023C40 85.1195 41.8036 82 45.4688 82C46.5902 82 47.8838 82.3086 48.4658 83.3451C48.5074 82.9329 48.5719 82.524 48.6368 82.1118ZM45.7815 84.6618C44.0136 84.6618 42.9355 86.3465 42.9355 87.9879C42.9355 89.2204 43.647 90.1265 44.919 90.1265C46.6869 90.1265 47.765 88.4418 47.765 86.8C47.765 85.5679 47.0535 84.6605 45.7815 84.6605V84.6618Z" fill="#3a4854"/>
<path d="M60.4626 85.7737C59.9429 85.0661 59.0069 84.7446 58.1749 84.7446C56.4695 84.7446 55.2839 86.31 55.2839 88.004C55.2839 89.3541 56.1368 90.1482 57.4264 90.1482C58.3206 90.1482 59.4018 89.7621 60.109 89.1833L60.4004 91.7992C59.4018 92.6355 57.6965 93 56.4716 93C53.8715 93 52 91.2199 52 88.5183C52 84.9159 54.6414 82 58.1978 82C59.2169 82 60.2515 82.0983 61 82.913L60.4626 85.7737Z" fill="#3a4854"/>
<path d="M66.569 81.924H69L68.5185 84.6271H66.1106C65.8583 86.0995 65.3994 87.7258 65.3994 89.2198C65.3994 89.8572 65.7207 90.0552 66.3398 90.0552C66.7163 90.0555 67.0896 89.9883 67.4404 89.8572L67.1652 92.648C66.3168 92.8461 65.4684 93 64.574 93C62.7622 93 61.6859 92.2087 61.6859 90.4055C61.6859 88.4933 62.236 86.4705 62.5343 84.6258H61L61.4585 81.9227H62.995L63.2243 80.5606C63.2606 80.2689 63.2757 79.9752 63.2694 79.6815C63.2721 79.4536 63.2571 79.2258 63.2243 79H66.7789C66.7789 79 66.8479 79.2417 66.8479 79.7252C66.8462 80.0566 66.816 80.3874 66.7577 80.7141L66.569 81.924Z" fill="#3a4854"/>
<path d="M73.0917 93C70.2205 93 68 91.4347 68 88.5398C68 84.8088 70.9382 82 74.9083 82C77.802 82 80 83.5869 80 86.4813C80.0013 90.2123 77.0843 93 73.0917 93ZM74.4599 84.7446C72.6203 84.7446 71.5663 86.4597 71.5663 88.0466C71.5663 89.2474 72.2394 90.1482 73.5626 90.1482C75.4018 90.1482 76.4562 88.4327 76.4562 86.8458C76.4562 85.645 75.7831 84.7446 74.4599 84.7446Z" fill="#3a4854"/>
<path d="M87.2994 85.4404H87.1179C86.7571 85.243 86.3063 85.1774 85.9003 85.1774C84.1867 85.1774 83.51 86.8207 83.3072 88.2013L82.5178 93H79L80.4882 83.7968C80.531 83.4918 80.5537 83.1844 80.5561 82.8766C80.5588 82.6493 80.544 82.4222 80.5118 82.1971H84.007C84.007 82.1971 84.0748 82.4381 84.0748 82.9202C84.0766 83.1929 84.0468 83.4649 83.9861 83.7312C84.6401 82.7231 85.6549 82 86.9399 82C87.2559 82 87.7293 82.0431 88 82.1971L87.2994 85.4404Z" fill="#3a4854"/>
<rect x="34" y="61" width="76" height="5" rx="2.5" fill="#3a4854"/>
<path d="M323.393 125.112C324.574 123.652 323.984 122.441 322.035 122.441H316C315.576 122.466 315.153 122.393 314.765 122.227C314.378 122.061 314.039 121.807 313.776 121.488C313.514 121.168 313.336 120.793 313.258 120.393C313.181 119.993 313.206 119.582 313.331 119.193L317.5 103.565C317.972 101.755 317.382 101.472 316.189 102.943L296.607 126.854C295.426 128.314 296.016 129.525 297.965 129.525H304C304.424 129.5 304.847 129.573 305.235 129.739C305.622 129.905 305.961 130.159 306.224 130.478C306.486 130.798 306.664 131.173 306.742 131.573C306.819 131.973 306.794 132.384 306.669 132.773L302.5 148.435C302.028 150.245 302.618 150.528 303.811 149.057L323.393 125.112Z" fill="#3a4854"/>
<path d="M299 120H321V131H299V120Z" fill="white"/>
<path fill-rule="evenodd" clip-rule="evenodd" d="M319 122H301V129H319V122ZM299 120V131H321V120H299Z" fill="#3a4854"/>
<path fill-rule="evenodd" clip-rule="evenodd" d="M310 67C305.029 67 301 71.0294 301 76C301 80.9706 305.029 85 310 85C314.971 85 319 80.9706 319 76C319 71.0294 314.971 67 310 67ZM299 76C299 69.9249 303.925 65 310 65C316.075 65 321 69.9249 321 76C321 82.0751 316.075 87 310 87C303.925 87 299 82.0751 299 76ZM308.514 76L303.166 70.1764L304.639 68.8236L309.872 74.5216L315.105 68.8236L316.578 70.1764L311.23 76L316.578 81.8236L315.105 83.1764L309.872 77.4785L304.639 83.1764L303.166 81.8236L308.514 76Z" fill="#3a4854"/>
<path fill-rule="evenodd" clip-rule="evenodd" d="M277 86C272.029 86 268 90.0294 268 95C268 99.9706 272.029 104 277 104C281.971 104 286 99.9706 286 95C286 90.0294 281.971 86 277 86ZM266 95C266 88.9249 270.925 84 277 84C283.075 84 288 88.9249 288 95C288 101.075 283.075 106 277 106C270.925 106 266 101.075 266 95ZM275.514 95L270.166 89.1764L271.639 87.8236L276.872 93.5216L282.105 87.8236L283.578 89.1764L278.23 95L283.578 100.824L282.105 102.176L276.872 96.4785L271.639 102.176L270.166 100.824L275.514 95Z" fill="#3a4854"/>
<path fill-rule="evenodd" clip-rule="evenodd" d="M260 116C255.029 116 251 120.029 251 125C251 129.971 255.029 134 260 134C264.971 134 269 129.971 269 125C269 120.029 264.971 116 260 116ZM249 125C249 118.925 253.925 114 260 114C266.075 114 271 118.925 271 125C271 131.075 266.075 136 260 136C253.925 136 249 131.075 249 125ZM258.514 125L253.166 119.176L254.639 117.824L259.872 123.522L265.105 117.824L266.578 119.176L261.23 125L266.578 130.824L265.105 132.176L259.872 126.478L254.639 132.176L253.166 130.824L258.514 125Z" fill="#3a4854"/>
<path fill-rule="evenodd" clip-rule="evenodd" d="M277 144C272.029 144 268 148.029 268 153C268 157.971 272.029 162 277 162C281.971 162 286 157.971 286 153C286 148.029 281.971 144 277 144ZM266 153C266 146.925 270.925 142 277 142C283.075 142 288 146.925 288 153C288 159.075 283.075 164 277 164C270.925 164 266 159.075 266 153ZM275.514 153L270.166 147.176L271.639 145.824L276.872 151.522L282.105 145.824L283.578 147.176L278.23 153L283.578 158.824L282.105 160.176L276.872 154.478L271.639 160.176L270.166 158.824L275.514 153Z" fill="#3a4854"/>
<path fill-rule="evenodd" clip-rule="evenodd" d="M310 164C305.029 164 301 168.029 301 173C301 177.971 305.029 182 310 182C314.971 182 319 177.971 319 173C319 168.029 314.971 164 310 164ZM299 173C299 166.925 303.925 162 310 162C316.075 162 321 166.925 321 173C321 179.075 316.075 184 310 184C303.925 184 299 179.075 299 173ZM308.514 173L303.166 167.176L304.639 165.824L309.872 171.522L315.105 165.824L316.578 167.176L311.23 173L316.578 178.824L315.105 180.176L309.872 174.478L304.639 180.176L303.166 178.824L308.514 173Z" fill="#3a4854"/>
<path fill-rule="evenodd" clip-rule="evenodd" d="M344 144C339.029 144 335 148.029 335 153C335 157.971 339.029 162 344 162C348.971 162 353 157.971 353 153C353 148.029 348.971 144 344 144ZM333 153C333 146.925 337.925 142 344 142C350.075 142 355 146.925 355 153C355 159.075 350.075 164 344 164C337.925 164 333 159.075 333 153ZM342.514 153L337.166 147.176L338.639 145.824L343.872 151.522L349.105 145.824L350.578 147.176L345.23 153L350.578 158.824L349.105 160.176L343.872 154.478L338.639 160.176L337.166 158.824L342.514 153Z" fill="#3a4854"/>
<path fill-rule="evenodd" clip-rule="evenodd" d="M357 116C352.029 116 348 120.029 348 125C348 129.971 352.029 134 357 134C361.971 134 366 129.971 366 125C366 120.029 361.971 116 357 116ZM346 125C346 118.925 350.925 114 357 114C363.075 114 368 118.925 368 125C368 131.075 363.075 136 357 136C350.925 136 346 131.075 346 125ZM355.514 125L350.166 119.176L351.639 117.824L356.872 123.522L362.105 117.824L363.578 119.176L358.23 125L363.578 130.824L362.105 132.176L356.872 126.478L351.639 132.176L350.166 130.824L355.514 125Z" fill="#3a4854"/>
<path fill-rule="evenodd" clip-rule="evenodd" d="M344 103C348.418 103 352 99.4183 352 95C352 90.5817 348.418 87 344 87C339.582 87 336 90.5817 336 95C336 99.4183 339.582 103 344 103ZM344 105C349.523 105 354 100.523 354 95C354 89.4772 349.523 85 344 85C338.477 85 334 89.4772 334 95C334 100.523 338.477 105 344 105Z" fill="#3a4854"/>
<path fill-rule="evenodd" clip-rule="evenodd" d="M337.166 100.824L349.105 87.8236L350.578 89.1764L338.639 102.176L337.166 100.824Z" fill="#3a4854"/>
<path fill-rule="evenodd" clip-rule="evenodd" d="M350.578 100.824L338.639 87.8236L337.166 89.1764L349.105 102.176L350.578 100.824Z" fill="#3a4854"/>
<path d="M235.652 24V21.6992H238.016V20.8789H235.652V19.2148H238.238V18.3633H234.645V24H235.652Z" fill="#3a4854"/>
<path d="M239.883 24.0664C240.414 24.0664 240.934 23.7891 241.172 23.3398H241.191V24H242.129V21.1484C242.129 20.3164 241.461 19.7734 240.434 19.7734C239.379 19.7734 238.719 20.3281 238.676 21.1016H239.578C239.641 20.7578 239.934 20.5352 240.395 20.5352C240.875 20.5352 241.168 20.7852 241.168 21.2188V21.5156L240.074 21.5781C239.066 21.6406 238.5 22.082 238.5 22.8164C238.5 23.5625 239.082 24.0664 239.883 24.0664ZM240.176 23.332C239.754 23.332 239.473 23.1172 239.473 22.7773C239.473 22.4492 239.742 22.2383 240.211 22.207L241.168 22.1484V22.4648C241.168 22.9648 240.727 23.332 240.176 23.332Z" fill="#3a4854"/>
<path d="M246.562 21.3359C246.496 20.4648 245.82 19.7734 244.727 19.7734C243.523 19.7734 242.742 20.6055 242.742 21.9297C242.742 23.2734 243.523 24.082 244.734 24.082C245.773 24.082 246.488 23.4727 246.566 22.5469H245.648C245.559 23.0156 245.238 23.2969 244.746 23.2969C244.129 23.2969 243.73 22.7969 243.73 21.9297C243.73 21.0781 244.125 20.5625 244.738 20.5625C245.258 20.5625 245.566 20.8945 245.645 21.3359H246.562Z" fill="#3a4854"/>
<path d="M247.418 18.8906V19.8594H246.824V20.6094H247.418V22.8984C247.418 23.7031 247.77 24.0195 248.664 24.0195C248.871 24.0195 249.062 24.0039 249.168 23.9805V23.2383C249.105 23.25 248.98 23.2578 248.891 23.2578C248.547 23.2578 248.391 23.1016 248.391 22.7617V20.6094H249.172V19.8594H248.391V18.8906H247.418Z" fill="#3a4854"/>
<path d="M251.59 24.082C252.805 24.082 253.594 23.2734 253.594 21.9297C253.594 20.5898 252.797 19.7734 251.59 19.7734C250.383 19.7734 249.586 20.5938 249.586 21.9297C249.586 23.2734 250.375 24.082 251.59 24.082ZM251.59 23.3125C250.973 23.3125 250.574 22.8125 250.574 21.9297C250.574 21.0508 250.977 20.5469 251.59 20.5469C252.207 20.5469 252.605 21.0508 252.605 21.9297C252.605 22.8125 252.207 23.3125 251.59 23.3125Z" fill="#3a4854"/>
<path d="M254.219 24H255.191V21.5898C255.191 21.0078 255.523 20.6523 256.074 20.6523C256.238 20.6523 256.387 20.6758 256.469 20.707V19.8281C256.398 19.8125 256.289 19.7891 256.164 19.7891C255.676 19.7891 255.312 20.0781 255.172 20.582H255.152V19.8594H254.219V24Z" fill="#3a4854"/>
<path d="M258.309 22.4609C258.309 23.4609 259.027 24.1211 260.102 24.1211C261.246 24.1211 261.926 23.457 261.926 22.3086V18.3633H260.922V22.3008C260.922 22.9102 260.629 23.2383 260.09 23.2383C259.621 23.2383 259.301 22.9258 259.289 22.4609H258.309Z" fill="#3a4854"/>
<path d="M262.715 22.4258C262.762 23.457 263.625 24.0938 264.93 24.0938C266.285 24.0938 267.133 23.4141 267.133 22.3359C267.133 21.5 266.637 21.0234 265.449 20.7773L264.84 20.6523C264.137 20.5039 263.855 20.2578 263.855 19.875C263.855 19.4023 264.301 19.1055 264.926 19.1055C265.57 19.1055 266.016 19.4258 266.062 19.957H267.027C267.004 18.9492 266.18 18.2695 264.934 18.2695C263.711 18.2695 262.84 18.9414 262.84 19.9336C262.84 20.7578 263.367 21.2891 264.496 21.5195L265.102 21.6445C265.836 21.7969 266.117 22.0469 266.117 22.4531C266.117 22.9219 265.645 23.2578 264.965 23.2578C264.262 23.2578 263.754 22.9453 263.68 22.4258H262.715Z" fill="#3a4854"/>
<path d="M281.824 24L283.785 18.3633H282.699L281.27 22.918H281.246L279.816 18.3633H278.707L280.668 24H281.824Z" fill="#3a4854"/>
<path d="M285.395 24V18.3633H284.387V24H285.395Z" fill="#3a4854"/>
<path d="M286.387 18.3633V24H287.395V22.1367H288.535C289.676 22.1367 290.477 21.375 290.477 20.25C290.477 19.125 289.699 18.3633 288.578 18.3633H286.387ZM287.395 19.1875H288.312C289.035 19.1875 289.453 19.5742 289.453 20.25C289.453 20.9336 289.031 21.3242 288.309 21.3242H287.395V19.1875Z" fill="#3a4854"/>
<path d="M304.855 24.0938C306.188 24.0938 307.109 23.3633 307.285 22.1562H306.297C306.141 22.8359 305.605 23.2383 304.859 23.2383C303.883 23.2383 303.266 22.4453 303.266 21.1797C303.266 19.9219 303.887 19.125 304.855 19.125C305.586 19.125 306.16 19.5898 306.293 20.2969H307.285C307.16 19.0859 306.164 18.2695 304.855 18.2695C303.254 18.2695 302.234 19.3828 302.234 21.1797C302.234 22.9883 303.246 24.0938 304.855 24.0938Z" fill="#3a4854"/>
<path d="M309.156 24.0664C309.688 24.0664 310.207 23.7891 310.445 23.3398H310.465V24H311.402V21.1484C311.402 20.3164 310.734 19.7734 309.707 19.7734C308.652 19.7734 307.992 20.3281 307.949 21.1016H308.852C308.914 20.7578 309.207 20.5352 309.668 20.5352C310.148 20.5352 310.441 20.7852 310.441 21.2188V21.5156L309.348 21.5781C308.34 21.6406 307.773 22.082 307.773 22.8164C307.773 23.5625 308.355 24.0664 309.156 24.0664ZM309.449 23.332C309.027 23.332 308.746 23.1172 308.746 22.7773C308.746 22.4492 309.016 22.2383 309.484 22.207L310.441 22.1484V22.4648C310.441 22.9648 310 23.332 309.449 23.332Z" fill="#3a4854"/>
<path d="M312.188 24H313.16V21.5898C313.16 21.0078 313.492 20.6523 314.043 20.6523C314.207 20.6523 314.355 20.6758 314.438 20.707V19.8281C314.367 19.8125 314.258 19.7891 314.133 19.7891C313.645 19.7891 313.281 20.0781 313.141 20.582H313.121V19.8594H312.188V24Z" fill="#3a4854"/>
<path d="M317.523 22.7617C317.418 23.1055 317.074 23.332 316.621 23.332C315.984 23.332 315.578 22.8867 315.578 22.2227V22.1641H318.473V21.8477C318.473 20.5898 317.738 19.7734 316.562 19.7734C315.367 19.7734 314.609 20.6367 314.609 21.9453C314.609 23.2656 315.359 24.082 316.602 24.082C317.582 24.082 318.309 23.543 318.434 22.7617H317.523ZM316.566 20.5273C317.125 20.5273 317.5 20.9375 317.52 21.5234H315.586C315.625 20.9453 316.02 20.5273 316.566 20.5273Z" fill="#3a4854"/>
<path d="M321.844 22.7617C321.738 23.1055 321.395 23.332 320.941 23.332C320.305 23.332 319.898 22.8867 319.898 22.2227V22.1641H322.793V21.8477C322.793 20.5898 322.059 19.7734 320.883 19.7734C319.688 19.7734 318.93 20.6367 318.93 21.9453C318.93 23.2656 319.68 24.082 320.922 24.082C321.902 24.082 322.629 23.543 322.754 22.7617H321.844ZM320.887 20.5273C321.445 20.5273 321.82 20.9375 321.84 21.5234H319.906C319.945 20.9453 320.34 20.5273 320.887 20.5273Z" fill="#3a4854"/>
<path d="M323.422 24H324.395V21.5898C324.395 21.0078 324.727 20.6523 325.277 20.6523C325.441 20.6523 325.59 20.6758 325.672 20.707V19.8281C325.602 19.8125 325.492 19.7891 325.367 19.7891C324.879 19.7891 324.516 20.0781 324.375 20.582H324.355V19.8594H323.422V24Z" fill="#3a4854"/>
<path d="M326.098 21.0469C326.098 21.6602 326.496 22.0508 327.289 22.2266L327.977 22.3789C328.41 22.4766 328.559 22.6172 328.559 22.8672C328.559 23.1758 328.266 23.3711 327.793 23.3711C327.301 23.3711 327.023 23.168 326.949 22.7656H325.992C326.07 23.5664 326.711 24.082 327.793 24.082C328.809 24.082 329.527 23.5547 329.527 22.7734C329.527 22.1719 329.195 21.8398 328.336 21.6484L327.648 21.4961C327.215 21.3984 327.043 21.2344 327.043 20.9961C327.043 20.6914 327.328 20.4883 327.758 20.4883C328.207 20.4883 328.484 20.7266 328.523 21.1016H329.43C329.406 20.3164 328.766 19.7734 327.758 19.7734C326.758 19.7734 326.098 20.2891 326.098 21.0469Z" fill="#3a4854"/>
<path d="M343.82 24C345.023 24 345.754 23.3906 345.754 22.3984C345.754 21.6523 345.219 21.1016 344.453 21.0273V20.9961C345.031 20.9023 345.48 20.375 345.48 19.7695C345.48 18.9141 344.82 18.3633 343.797 18.3633H341.457V24H343.82ZM342.465 19.1484H343.543C344.145 19.1484 344.484 19.4258 344.484 19.918C344.484 20.4414 344.09 20.7383 343.387 20.7383H342.465V19.1484ZM342.465 23.2148V21.4531H343.547C344.32 21.4531 344.727 21.7539 344.727 22.3281C344.727 22.9062 344.332 23.2148 343.59 23.2148H342.465Z" fill="#3a4854"/>
<path d="M346.402 24H347.375V18.3633H346.402V24Z" fill="#3a4854"/>
<path d="M350.035 24.082C351.25 24.082 352.039 23.2734 352.039 21.9297C352.039 20.5898 351.242 19.7734 350.035 19.7734C348.828 19.7734 348.031 20.5938 348.031 21.9297C348.031 23.2734 348.82 24.082 350.035 24.082ZM350.035 23.3125C349.418 23.3125 349.02 22.8125 349.02 21.9297C349.02 21.0508 349.422 20.5469 350.035 20.5469C350.652 20.5469 351.051 21.0508 351.051 21.9297C351.051 22.8125 350.652 23.3125 350.035 23.3125Z" fill="#3a4854"/>
<path d="M354.488 25.5625C355.695 25.5625 356.488 24.9219 356.488 23.9336V19.8594H355.535V20.5703H355.52C355.281 20.0938 354.805 19.7891 354.215 19.7891C353.156 19.7891 352.492 20.6055 352.492 21.9141C352.492 23.2031 353.172 24.0039 354.195 24.0039C354.789 24.0039 355.277 23.707 355.492 23.2617H355.516V23.9609C355.516 24.4883 355.152 24.8438 354.52 24.8438C354.059 24.8438 353.703 24.6289 353.598 24.3125H352.633C352.73 25.0391 353.465 25.5625 354.488 25.5625ZM354.492 23.2305C353.879 23.2305 353.488 22.7383 353.488 21.918C353.488 21.1055 353.879 20.5898 354.492 20.5898C355.113 20.5898 355.516 21.1133 355.516 21.918C355.516 22.7266 355.113 23.2305 354.492 23.2305Z" fill="#3a4854"/>
<path d="M368.355 22.4258C368.402 23.457 369.266 24.0938 370.57 24.0938C371.926 24.0938 372.773 23.4141 372.773 22.3359C372.773 21.5 372.277 21.0234 371.09 20.7773L370.48 20.6523C369.777 20.5039 369.496 20.2578 369.496 19.875C369.496 19.4023 369.941 19.1055 370.566 19.1055C371.211 19.1055 371.656 19.4258 371.703 19.957H372.668C372.645 18.9492 371.82 18.2695 370.574 18.2695C369.352 18.2695 368.48 18.9414 368.48 19.9336C368.48 20.7578 369.008 21.2891 370.137 21.5195L370.742 21.6445C371.477 21.7969 371.758 22.0469 371.758 22.4531C371.758 22.9219 371.285 23.2578 370.605 23.2578C369.902 23.2578 369.395 22.9453 369.32 22.4258H368.355Z" fill="#3a4854"/>
<path d="M373.938 19.2344C374.234 19.2344 374.469 18.9961 374.469 18.707C374.469 18.4141 374.234 18.1797 373.938 18.1797C373.641 18.1797 373.402 18.4141 373.402 18.707C373.402 18.9961 373.641 19.2344 373.938 19.2344ZM373.453 24H374.426V19.8594H373.453V24Z" fill="#3a4854"/>
<path d="M377.066 25.5625C378.273 25.5625 379.066 24.9219 379.066 23.9336V19.8594H378.113V20.5703H378.098C377.859 20.0938 377.383 19.7891 376.793 19.7891C375.734 19.7891 375.07 20.6055 375.07 21.9141C375.07 23.2031 375.75 24.0039 376.773 24.0039C377.367 24.0039 377.855 23.707 378.07 23.2617H378.094V23.9609C378.094 24.4883 377.73 24.8438 377.098 24.8438C376.637 24.8438 376.281 24.6289 376.176 24.3125H375.211C375.309 25.0391 376.043 25.5625 377.066 25.5625ZM377.07 23.2305C376.457 23.2305 376.066 22.7383 376.066 21.918C376.066 21.1055 376.457 20.5898 377.07 20.5898C377.691 20.5898 378.094 21.1133 378.094 21.918C378.094 22.7266 377.691 23.2305 377.07 23.2305Z" fill="#3a4854"/>
<path d="M379.859 24H380.832V21.6016C380.832 21.0078 381.188 20.6055 381.746 20.6055C382.301 20.6055 382.574 20.9336 382.574 21.5195V24H383.547V21.3242C383.547 20.3672 383.027 19.7812 382.113 19.7812C381.477 19.7812 381.035 20.0781 380.812 20.5703H380.793V19.8594H379.859V24Z" fill="#3a4854"/>
<path d="M387.035 24V18.3633H386.027V24H387.035Z" fill="#3a4854"/>
<path d="M387.93 24H388.902V21.6016C388.902 21.0078 389.258 20.6055 389.816 20.6055C390.371 20.6055 390.645 20.9336 390.645 21.5195V24H391.617V21.3242C391.617 20.3672 391.098 19.7812 390.184 19.7812C389.547 19.7812 389.105 20.0781 388.883 20.5703H388.863V19.8594H387.93V24Z" fill="#3a4854"/>
<path d="M60.7737 22.896C60.4958 22.4944 59.9958 22.3113 59.5511 22.3113C58.6393 22.3113 58.0059 23.2 58.0059 24.1628C58.0059 24.93 58.4613 25.3806 59.1511 25.3806C59.672 25.3651 60.1749 25.173 60.585 24.8325L60.741 26.3184C60.2076 26.7935 59.2958 27 58.6398 27C57.2506 27 56.25 25.9893 56.25 24.4525C56.25 22.4065 57.6647 20.75 59.5624 20.75C60.1071 20.75 60.8506 20.9206 61.25 21.3831L60.7737 22.896Z" fill="#3a4854"/>
<path d="M63.7544 20.0735H65L64.7533 21.7639H63.5193C63.3899 22.6847 63.1576 23.7015 63.1576 24.6378C63.1576 25.0361 63.3223 25.159 63.6395 25.159C63.8324 25.1597 64.0236 25.1178 64.2039 25.0355L64.0595 26.7799C63.6262 26.9149 63.1802 26.9892 62.7313 27C61.8023 27 61.25 26.5051 61.25 25.3784C61.25 24.1835 61.5319 22.9197 61.6839 21.7646L61.9155 20.0741H61.919L62.0363 19.2221C62.0548 19.0399 62.0629 18.8562 62.0594 18.6726C62.0605 18.5315 62.053 18.3904 62.0363 18.25H63.8578C63.8844 18.3978 63.896 18.5491 63.8919 18.7003C63.8908 18.9075 63.8752 19.1148 63.8451 19.3194L63.7544 20.0735Z" fill="#3a4854"/>
<path d="M65.0589 26.9993C65.0146 26.8401 64.9953 26.6754 65.001 26.5108C65.0017 26.309 65.021 26.108 65.0589 25.9097L65.8294 21.1204C65.8566 20.9303 65.8716 20.7388 65.873 20.5474C65.8744 20.404 65.8644 20.2599 65.8437 20.1179H68.0988C68.1324 20.2695 68.1474 20.4246 68.1424 20.579C68.141 20.7896 68.1217 20.9996 68.0845 21.2068L67.314 25.9962C67.2876 26.167 67.2725 26.3392 67.2704 26.5115C67.2675 26.6754 67.2825 26.8394 67.314 27L65.0589 26.9993ZM67.2518 19.3466C66.6407 19.3466 66.1468 19.0118 66.1468 18.3826C66.1468 17.5723 66.8151 17 67.6449 17C68.2718 17 68.75 17.3348 68.75 17.9634C68.7536 18.7607 68.0838 19.3466 67.2518 19.3466Z" fill="#3a4854"/>
<path d="M71.4007 27C69.9048 27 68.75 26.1109 68.75 24.4656C68.75 22.3456 70.2804 20.75 72.3493 20.75C73.8567 20.75 75 21.6499 75 23.2987C75.0018 25.414 73.4829 27 71.4007 27ZM72.1133 22.3085C71.1551 22.3085 70.6059 23.2832 70.6059 24.1824C70.6059 24.8644 70.9567 25.3763 71.6457 25.3763C72.6039 25.3763 73.1532 24.4016 73.1532 23.5023C73.1556 22.8204 72.8048 22.3085 72.1158 22.3085H72.1133Z" fill="#3a4854"/>
<path d="M78.8975 26.9982C78.8613 26.8562 78.8447 26.7093 78.8495 26.5625C78.8501 26.3826 78.8661 26.2033 78.8975 26.0265L79.2354 23.7979C79.2728 23.596 79.2929 23.391 79.2953 23.1848C79.2953 22.6738 79.102 22.3881 78.5833 22.3881C77.739 22.3881 77.4616 23.2221 77.3525 23.9576L76.8818 26.9963H75L75.7986 21.7817C75.8211 21.6036 75.833 21.4249 75.8342 21.2456C75.8354 21.1178 75.8276 20.9893 75.8104 20.8626H77.6661C77.694 20.9978 77.7064 21.1361 77.7023 21.2744C77.6999 21.4286 77.6881 21.5816 77.6661 21.7339H77.678C78.1126 21.1361 78.7523 20.75 79.4886 20.75C80.6702 20.75 81.25 21.3356 81.25 22.5429C81.2494 22.8268 81.2245 23.1101 81.1759 23.3891L80.7532 26.1042C80.7312 26.2565 80.7188 26.4101 80.717 26.5637C80.7146 26.71 80.7271 26.8562 80.7532 27L78.8975 26.9982Z" fill="#3a4854"/>
<path d="M53.1136 20.1416C53.2146 19.4838 53.2785 18.9274 54.0085 18.8114C54.2792 18.7769 54.3807 18.7643 54.6358 18.7974L54.9721 17.0573C54.5605 16.9797 54.1244 16.9917 53.7558 17.0301C51.9117 17.2231 51.4009 18.4055 51.1488 20.1403H50.193L50 21.8619H50.9098C50.9098 21.8619 50.3674 25.1989 50.331 25.4396C50.2945 25.6803 50.0759 27 50.0759 27L52.0371 26.9695C52.0371 26.9695 52.0037 26.9828 52.1046 26.2831L52.837 21.8639H54.171L53.6125 25.6518C53.5742 25.8892 53.4828 26.9509 53.4828 26.9509L55.3604 26.9357C55.373 26.4562 55.3873 26.3322 55.4256 25.9317C55.4638 25.5304 55.9172 22.8971 55.9172 22.8971C55.9889 22.3977 56.0988 21.6669 56.1968 21.0833C56.2858 20.5521 56.2362 20.143 56.2362 20.143H53.1136V20.1416Z" fill="#3a4854"/>
<path d="M44.3508 28H39.1569C38.9909 28.0006 38.8265 27.9682 38.6732 27.9047C38.5199 27.8412 38.3807 27.7478 38.2638 27.63L34.3052 23.67C34.1594 23.5241 34.0601 23.3382 34.02 23.1359C33.9798 22.9335 34.0005 22.7238 34.0795 22.5333C34.1586 22.3427 34.2923 22.1799 34.4639 22.0654C34.6354 21.9509 34.8371 21.8899 35.0433 21.8901H39.8917V17.0383C39.8917 16.8325 39.9528 16.6314 40.0673 16.4603C40.1818 16.2893 40.3444 16.1561 40.5346 16.0777C40.7253 16.0001 40.9345 15.9801 41.1364 16.0201C41.3383 16.0601 41.524 16.1583 41.6707 16.3028L45.6307 20.2615C45.7482 20.3787 45.8413 20.5181 45.9047 20.6715C45.9681 20.8249 46.0005 20.9893 46 21.1553V26.3508C45.9994 26.7881 45.8255 27.2074 45.5163 27.5165C45.2071 27.8257 44.788 27.9996 44.3508 28ZM39.3731 26.2152H44.2158V21.3714L41.6762 18.8311V23.6749H36.8339L39.3731 26.2152Z" fill="#3a4854"/>
</svg>
