<svg
    class="main-logo"
    viewBox="0 0 122 122"
    fill="none"
    xmlns="http://www.w3.org/2000/svg"
  >
    <path
      d="M101.983 122H50.8045C47.484 122 44.3565 120.668 42.0075 118.237L3.01319 77.9858C0.0653321 74.9503 -0.806383 70.4109 0.783998 66.4414C2.38103 62.4651 6.1008 59.8898 10.2731 59.8898H58.0577V10.5739C58.0577 6.28166 60.5464 2.44269 64.3926 0.79448C68.1789 -0.83313 72.6906 0.0939898 75.5852 3.08138L114.599 43.3458C116.948 45.7838 118.239 49.0047 118.239 52.4248V105.229C118.233 114.48 110.946 122 101.983 122ZM52.9472 103.856H100.659V54.6155L75.6384 28.7935V78.0339H27.927L52.9472 103.856Z"
      fill="currentColor"
    />
  </svg>
