<svg width="1040" height="454" viewBox="0 0 1040 454" fill="none" xmlns="http://www.w3.org/2000/svg">
<rect width="1040" height="640" fill="#F6F9FC"/>
<rect x="830.5" y="85.5" width="160" height="47" rx="23.5" fill="white" stroke="#3a4854" stroke-width="3"/>
<path d="M871.483 112.746C871.633 115.507 873.964 117.258 877.466 117.258C881.076 117.258 883.375 115.421 883.375 112.499C883.375 110.243 882.042 108.943 878.798 108.256L877.101 107.901C875.092 107.472 874.297 106.72 874.297 105.592C874.297 104.174 875.629 103.293 877.445 103.293C879.325 103.293 880.603 104.249 880.753 105.807H883.084C883.009 103.1 880.764 101.241 877.477 101.241C874.179 101.241 871.848 103.067 871.848 105.721C871.848 107.955 873.255 109.395 876.36 110.05L878.046 110.404C880.12 110.855 880.936 111.607 880.936 112.811C880.936 114.196 879.529 115.206 877.563 115.206C875.501 115.206 874.04 114.282 873.825 112.746H871.483ZM890.212 107.364C891.834 107.364 892.929 108.578 892.983 110.308H887.333C887.451 108.6 888.59 107.364 890.212 107.364ZM892.972 113.681C892.661 114.669 891.683 115.335 890.362 115.335C888.504 115.335 887.322 114.035 887.322 112.069V111.93H895.304V111.135C895.304 107.708 893.348 105.495 890.212 105.495C887.021 105.495 884.98 107.858 884.98 111.403C884.98 114.97 886.989 117.215 890.308 117.215C892.897 117.215 894.852 115.743 895.175 113.681H892.972ZM898.005 103.024V105.699H896.361V107.536H898.005V114.024C898.005 116.205 898.897 117.075 901.185 117.075C901.7 117.075 902.216 117.032 902.474 116.968V115.131C902.323 115.163 901.947 115.185 901.711 115.185C900.766 115.185 900.336 114.744 900.336 113.767V107.536H902.484V105.699H900.336V103.024H898.005ZM905.293 103.024V105.699H903.65V107.536H905.293V114.024C905.293 116.205 906.185 117.075 908.473 117.075C908.989 117.075 909.504 117.032 909.762 116.968V115.131C909.612 115.163 909.236 115.185 908.999 115.185C908.054 115.185 907.624 114.744 907.624 113.767V107.536H909.773V105.699H907.624V103.024H905.293ZM911.98 117H914.3V105.699H911.98V117ZM913.14 103.873C913.881 103.873 914.472 103.271 914.472 102.541C914.472 101.8 913.881 101.209 913.14 101.209C912.399 101.209 911.798 101.8 911.798 102.541C911.798 103.271 912.399 103.873 913.14 103.873ZM916.894 117H919.215V110.415C919.215 108.664 920.268 107.504 921.9 107.504C923.512 107.504 924.307 108.438 924.307 110.136V117H926.638V109.685C926.638 107.096 925.209 105.506 922.717 105.506C920.976 105.506 919.773 106.301 919.161 107.59H919.107V105.699H916.894V117ZM933.915 115.12C932.132 115.12 930.972 113.681 930.972 111.317C930.972 108.965 932.132 107.472 933.915 107.472C935.731 107.472 936.923 108.997 936.923 111.317C936.923 113.648 935.731 115.12 933.915 115.12ZM933.937 121.254C937.159 121.254 939.243 119.492 939.243 116.796V105.699H936.988V107.633H936.945C936.257 106.322 934.946 105.517 933.346 105.517C930.446 105.517 928.598 107.751 928.598 111.307C928.598 114.83 930.456 117.043 933.292 117.043C934.904 117.043 936.236 116.237 936.869 115.013H936.912V116.871C936.912 118.418 935.838 119.449 934.023 119.449C932.701 119.449 931.67 118.826 931.337 117.881H929.006C929.296 119.836 931.273 121.254 933.937 121.254ZM941.558 108.9C941.558 110.544 942.622 111.575 944.77 112.069L946.607 112.499C947.842 112.778 948.261 113.208 948.261 113.938C948.261 114.862 947.402 115.442 946.005 115.442C944.587 115.442 943.782 114.862 943.567 113.681H941.268C941.483 115.829 943.18 117.215 946.005 117.215C948.669 117.215 950.592 115.797 950.592 113.734C950.592 112.102 949.711 111.199 947.402 110.662L945.565 110.243C944.34 109.964 943.825 109.48 943.825 108.771C943.825 107.869 944.663 107.257 945.919 107.257C947.219 107.257 948.025 107.944 948.154 109.04H950.334C950.259 106.956 948.551 105.495 945.919 105.495C943.32 105.495 941.558 106.881 941.558 108.9Z" fill="#3a4854"/>
<rect x="830.5" y="337.5" width="160" height="47" rx="23.5" fill="white" stroke="#3a4854" stroke-width="3"/>
<path d="M881.865 364.746C882.015 367.507 884.346 369.258 887.848 369.258C891.458 369.258 893.757 367.421 893.757 364.499C893.757 362.243 892.425 360.943 889.18 360.256L887.483 359.901C885.474 359.472 884.679 358.72 884.679 357.592C884.679 356.174 886.012 355.293 887.827 355.293C889.707 355.293 890.985 356.249 891.136 357.807H893.467C893.391 355.1 891.146 353.241 887.859 353.241C884.561 353.241 882.23 355.067 882.23 357.721C882.23 359.955 883.638 361.395 886.742 362.05L888.429 362.404C890.502 362.855 891.318 363.607 891.318 364.811C891.318 366.196 889.911 367.206 887.945 367.206C885.883 367.206 884.422 366.282 884.207 364.746H881.865ZM896.544 355.024V357.699H894.9V359.536H896.544V366.024C896.544 368.205 897.436 369.075 899.724 369.075C900.239 369.075 900.755 369.032 901.013 368.968V367.131C900.862 367.163 900.486 367.185 900.25 367.185C899.305 367.185 898.875 366.744 898.875 365.767V359.536H901.024V357.699H898.875V355.024H896.544ZM904.284 373.211C906.625 373.211 907.743 372.33 908.709 369.591L912.942 357.699H910.493L907.635 366.895H907.592L904.735 357.699H902.221L906.303 369.011C906.303 369.021 906.099 369.688 906.099 369.709C905.744 370.869 905.164 371.32 904.09 371.32C903.897 371.32 903.51 371.32 903.338 371.277V373.157C903.51 373.189 904.09 373.211 904.284 373.211ZM914.612 369H916.932V353.499H914.612V369ZM924.264 359.364C925.886 359.364 926.981 360.578 927.035 362.308H921.385C921.503 360.6 922.642 359.364 924.264 359.364ZM927.024 365.681C926.713 366.669 925.735 367.335 924.414 367.335C922.556 367.335 921.374 366.035 921.374 364.069V363.93H929.355V363.135C929.355 359.708 927.4 357.495 924.264 357.495C921.073 357.495 919.032 359.858 919.032 363.403C919.032 366.97 921.041 369.215 924.36 369.215C926.949 369.215 928.904 367.743 929.226 365.681H927.024ZM931.176 360.9C931.176 362.544 932.239 363.575 934.388 364.069L936.225 364.499C937.46 364.778 937.879 365.208 937.879 365.938C937.879 366.862 937.02 367.442 935.623 367.442C934.205 367.442 933.4 366.862 933.185 365.681H930.886C931.101 367.829 932.798 369.215 935.623 369.215C938.287 369.215 940.21 367.797 940.21 365.734C940.21 364.102 939.329 363.199 937.02 362.662L935.183 362.243C933.958 361.964 933.443 361.48 933.443 360.771C933.443 359.869 934.28 359.257 935.537 359.257C936.837 359.257 937.643 359.944 937.772 361.04H939.952C939.877 358.956 938.169 357.495 935.537 357.495C932.938 357.495 931.176 358.881 931.176 360.9Z" fill="#3a4854"/>
<rect x="45.5" y="86.5" width="160" height="47" rx="23.5" fill="white" stroke="#3a4854" stroke-width="3"/>
<path d="M97.3807 101.499V117H99.7869V111.704H103.117C106.157 111.704 108.295 109.62 108.295 106.591C108.295 103.572 106.2 101.499 103.192 101.499H97.3807ZM99.7869 103.529H102.558C104.642 103.529 105.835 104.646 105.835 106.602C105.835 108.557 104.642 109.685 102.548 109.685H99.7869V103.529ZM110.427 117H112.747V101.499H110.427V117ZM125.041 105.699H122.721V112.284C122.721 114.046 121.711 115.206 120.036 115.206C118.435 115.206 117.619 114.282 117.619 112.563V105.699H115.298V113.015C115.298 115.604 116.802 117.204 119.262 117.204C120.992 117.204 122.141 116.441 122.764 115.088H122.818V117H125.041V105.699ZM132.373 115.12C130.589 115.12 129.429 113.681 129.429 111.317C129.429 108.965 130.589 107.472 132.373 107.472C134.188 107.472 135.381 108.997 135.381 111.317C135.381 113.648 134.188 115.12 132.373 115.12ZM132.394 121.254C135.617 121.254 137.701 119.492 137.701 116.796V105.699H135.445V107.633H135.402C134.714 106.322 133.404 105.517 131.803 105.517C128.903 105.517 127.055 107.751 127.055 111.307C127.055 114.83 128.914 117.043 131.75 117.043C133.361 117.043 134.693 116.237 135.327 115.013H135.37V116.871C135.37 118.418 134.296 119.449 132.48 119.449C131.159 119.449 130.128 118.826 129.795 117.881H127.464C127.754 119.836 129.73 121.254 132.394 121.254ZM140.295 117H142.615V105.699H140.295V117ZM141.455 103.873C142.196 103.873 142.787 103.271 142.787 102.541C142.787 101.8 142.196 101.209 141.455 101.209C140.714 101.209 140.112 101.8 140.112 102.541C140.112 103.271 140.714 103.873 141.455 103.873ZM145.209 117H147.529V110.415C147.529 108.664 148.582 107.504 150.215 107.504C151.826 107.504 152.621 108.438 152.621 110.136V117H154.952V109.685C154.952 107.096 153.524 105.506 151.031 105.506C149.291 105.506 148.088 106.301 147.476 107.59H147.422V105.699H145.209V117Z" fill="#3a4854"/>
<g opacity="0.4">
<circle r="5" transform="matrix(1 0 0 -1 599 234)" fill="#3a4854"/>
<path d="M824.5 109C795.5 109 785.557 114.5 785.557 134.5M784.5 194.5C784.5 216 778 235 748.5 235C729.3 235 614.833 235 600.5 235M784.5 194.5C784.5 188.851 784.832 138.866 785.557 134.5M784.5 194.5L785.557 134.5" stroke="#3a4854" stroke-width="3"/>
<path d="M824.5 361C795.5 361 785.557 355.5 785.557 335.5M784.5 275.5C784.5 254 778 235 748.5 235C729.3 235 614.833 235 600.5 235M784.5 275.5C784.5 281.149 784.832 331.134 785.557 335.5M784.5 275.5L785.557 335.5" stroke="#3a4854" stroke-width="3"/>
<path d="M828.061 110.061C828.646 109.475 828.646 108.525 828.061 107.939L818.515 98.3934C817.929 97.8076 816.979 97.8076 816.393 98.3934C815.808 98.9792 815.808 99.9289 816.393 100.515L824.879 109L816.393 117.485C815.808 118.071 815.808 119.021 816.393 119.607C816.979 120.192 817.929 120.192 818.515 119.607L828.061 110.061ZM824 110.5L827 110.5L827 107.5L824 107.5L824 110.5Z" fill="#3a4854"/>
<path d="M828.061 362.061C828.646 361.475 828.646 360.525 828.061 359.939L818.515 350.393C817.929 349.808 816.979 349.808 816.393 350.393C815.808 350.979 815.808 351.929 816.393 352.515L824.879 361L816.393 369.485C815.808 370.071 815.808 371.021 816.393 371.607C816.979 372.192 817.929 372.192 818.515 371.607L828.061 362.061ZM824 362.5L827 362.5L827 359.5L824 359.5L824 362.5Z" fill="#3a4854"/>
</g>
<g opacity="0.4">
<circle cx="208" cy="109" r="5" transform="rotate(-180 208 109)" fill="#3a4854"/>
<circle cx="208" cy="361" r="5" transform="rotate(-180 208 361)" fill="#3a4854"/>
<path d="M206.5 109C235.5 109 245.443 114.5 245.443 134.5M246.5 194.5C246.5 216 253 235 282.5 235C301.7 235 416.167 235 430.5 235M246.5 194.5C246.5 188.851 246.168 138.866 245.443 134.5M246.5 194.5L245.443 134.5" stroke="#3a4854" stroke-width="3"/>
<path d="M206.5 361C235.5 361 245.443 355.5 245.443 335.5M246.5 275.5C246.5 254 253 235 282.5 235C301.7 235 416.167 235 430.5 235M246.5 275.5C246.5 281.149 246.168 331.134 245.443 335.5M246.5 275.5L245.443 335.5" stroke="#3a4854" stroke-width="3"/>
<path d="M443.061 236.061C443.646 235.475 443.646 234.525 443.061 233.939L433.515 224.393C432.929 223.808 431.979 223.808 431.393 224.393C430.808 224.979 430.808 225.929 431.393 226.515L439.879 235L431.393 243.485C430.808 244.071 430.808 245.021 431.393 245.607C431.979 246.192 432.929 246.192 433.515 245.607L443.061 236.061ZM371 236.5H442V233.5H371V236.5Z" fill="#3a4854"/>
</g>
<rect x="45.5" y="337.5" width="160" height="47" rx="23.5" fill="white" stroke="#3a4854" stroke-width="3"/>
<path d="M99.9506 369V355.572H104.688V353.499H92.7963V355.572H97.5444V369H99.9506ZM106.68 369H109.001V362.469C109.001 360.686 110.053 359.504 111.772 359.504C113.405 359.504 114.243 360.503 114.243 362.168V369H116.574V361.717C116.574 359.16 115.092 357.506 112.61 357.506C110.891 357.506 109.656 358.269 109.033 359.59H108.979V353.499H106.68V369ZM123.766 359.364C125.388 359.364 126.483 360.578 126.537 362.308H120.887C121.005 360.6 122.144 359.364 123.766 359.364ZM126.526 365.681C126.215 366.669 125.237 367.335 123.916 367.335C122.058 367.335 120.876 366.035 120.876 364.069V363.93H128.857V363.135C128.857 359.708 126.902 357.495 123.766 357.495C120.575 357.495 118.534 359.858 118.534 363.403C118.534 366.97 120.543 369.215 123.862 369.215C126.451 369.215 128.406 367.743 128.729 365.681H126.526ZM130.882 369H133.202V362.018C133.202 360.567 134.18 359.493 135.555 359.493C136.866 359.493 137.693 360.32 137.693 361.62V369H139.97V361.942C139.97 360.514 140.926 359.493 142.301 359.493C143.676 359.493 144.46 360.331 144.46 361.792V369H146.791V361.233C146.791 358.988 145.33 357.506 143.096 357.506C141.485 357.506 140.153 358.344 139.573 359.719H139.519C139.068 358.312 137.929 357.506 136.361 357.506C134.835 357.506 133.654 358.344 133.149 359.601H133.095V357.699H130.882V369ZM153.983 359.364C155.605 359.364 156.701 360.578 156.754 362.308H151.104C151.222 360.6 152.361 359.364 153.983 359.364ZM156.744 365.681C156.432 366.669 155.455 367.335 154.133 367.335C152.275 367.335 151.093 366.035 151.093 364.069V363.93H159.075V363.135C159.075 359.708 157.12 357.495 153.983 357.495C150.793 357.495 148.752 359.858 148.752 363.403C148.752 366.97 150.76 369.215 154.08 369.215C156.669 369.215 158.624 367.743 158.946 365.681H156.744Z" fill="#3a4854"/>
<rect x="516" y="167.121" width="95.9949" height="95.9949" transform="rotate(45 516 167.121)" fill="white" stroke="#3a4854" stroke-width="3"/>
<path d="M504.639 244H508.401L502.518 227.09H498.358L492.487 244H496.12L497.409 239.898H503.35L504.639 244ZM500.339 230.324H500.421L502.589 237.25H498.171L500.339 230.324ZM510.855 227.09V244H514.395V238.668H517.559C521.121 238.668 523.594 236.348 523.594 232.879C523.594 229.398 521.203 227.09 517.734 227.09H510.855ZM514.395 229.891H516.797C518.824 229.891 519.996 230.969 519.996 232.891C519.996 234.824 518.812 235.902 516.785 235.902H514.395V229.891ZM526.411 227.09V244H529.95V238.668H533.115C536.677 238.668 539.15 236.348 539.15 232.879C539.15 229.398 536.759 227.09 533.29 227.09H526.411ZM529.95 229.891H532.353C534.38 229.891 535.552 230.969 535.552 232.891C535.552 234.824 534.368 235.902 532.341 235.902H529.95V229.891Z" fill="#3a4854"/>
<path d="M334.682 172H337.228L331.631 156.499H329.031L323.435 172H325.938L327.356 167.811H333.264L334.682 172ZM330.278 159.077H330.342L332.652 165.877H327.968L330.278 159.077ZM342.819 172.193C344.462 172.193 345.751 171.366 346.417 170.077H346.46V172H348.716V156.499H346.385V162.579H346.342C345.708 161.333 344.419 160.517 342.797 160.517C339.961 160.517 338.071 162.783 338.071 166.35C338.071 169.916 339.961 172.193 342.819 172.193ZM343.431 162.472C345.214 162.472 346.407 164.008 346.407 166.35C346.407 168.713 345.214 170.228 343.431 170.228C341.594 170.228 340.445 168.734 340.445 166.35C340.445 163.976 341.594 162.472 343.431 162.472ZM355.564 172.193C357.208 172.193 358.497 171.366 359.163 170.077H359.206V172H361.462V156.499H359.131V162.579H359.088C358.454 161.333 357.165 160.517 355.543 160.517C352.707 160.517 350.816 162.783 350.816 166.35C350.816 169.916 352.707 172.193 355.564 172.193ZM356.176 162.472C357.96 162.472 359.152 164.008 359.152 166.35C359.152 168.713 357.96 170.228 356.176 170.228C354.34 170.228 353.19 168.734 353.19 166.35C353.19 163.976 354.34 162.472 356.176 162.472ZM369.432 158.024V160.699H367.788V162.536H369.432V169.024C369.432 171.205 370.324 172.075 372.612 172.075C373.127 172.075 373.643 172.032 373.901 171.968V170.131C373.75 170.163 373.374 170.185 373.138 170.185C372.193 170.185 371.763 169.744 371.763 168.767V162.536H373.911V160.699H371.763V158.024H369.432ZM380.62 172.215C383.853 172.215 385.98 169.991 385.98 166.35C385.98 162.719 383.842 160.495 380.62 160.495C377.397 160.495 375.259 162.719 375.259 166.35C375.259 169.991 377.386 172.215 380.62 172.215ZM380.62 170.303C378.804 170.303 377.623 168.863 377.623 166.35C377.623 163.847 378.804 162.407 380.62 162.407C382.435 162.407 383.617 163.847 383.617 166.35C383.617 168.863 382.446 170.303 380.62 170.303ZM286.565 182.499V198H292.033C296.652 198 299.37 195.121 299.37 190.223C299.37 185.335 296.642 182.499 292.033 182.499H286.565ZM288.972 184.572H291.808C295.084 184.572 296.91 186.592 296.91 190.244C296.91 193.907 295.095 195.916 291.808 195.916H288.972V184.572ZM306.336 188.364C307.958 188.364 309.054 189.578 309.108 191.308H303.457C303.575 189.6 304.714 188.364 306.336 188.364ZM309.097 194.681C308.785 195.669 307.808 196.335 306.487 196.335C304.628 196.335 303.447 195.035 303.447 193.069V192.93H311.428V192.135C311.428 188.708 309.473 186.495 306.336 186.495C303.146 186.495 301.105 188.858 301.105 192.403C301.105 195.97 303.114 198.215 306.433 198.215C309.022 198.215 310.977 196.743 311.299 194.681H309.097ZM319.339 186.517C317.707 186.517 316.407 187.344 315.741 188.644H315.698V186.699H313.453V201.738H315.773V196.142H315.827C316.471 197.398 317.76 198.193 319.382 198.193C322.218 198.193 324.098 195.927 324.098 192.35C324.098 188.772 322.208 186.517 319.339 186.517ZM318.727 196.228C316.944 196.228 315.762 194.702 315.762 192.35C315.762 190.019 316.955 188.472 318.727 188.472C320.564 188.472 321.713 189.986 321.713 192.35C321.713 194.724 320.564 196.228 318.727 196.228ZM330.839 188.364C332.461 188.364 333.556 189.578 333.61 191.308H327.96C328.078 189.6 329.217 188.364 330.839 188.364ZM333.599 194.681C333.288 195.669 332.31 196.335 330.989 196.335C329.131 196.335 327.949 195.035 327.949 193.069V192.93H335.93V192.135C335.93 188.708 333.975 186.495 330.839 186.495C327.648 186.495 325.607 188.858 325.607 192.403C325.607 195.97 327.616 198.215 330.935 198.215C333.524 198.215 335.479 196.743 335.802 194.681H333.599ZM337.955 198H340.275V191.415C340.275 189.664 341.328 188.504 342.961 188.504C344.572 188.504 345.367 189.438 345.367 191.136V198H347.698V190.685C347.698 188.096 346.27 186.506 343.777 186.506C342.037 186.506 340.834 187.301 340.222 188.59H340.168V186.699H337.955V198ZM354.407 198.193C356.05 198.193 357.339 197.366 358.005 196.077H358.048V198H360.304V182.499H357.973V188.579H357.93C357.296 187.333 356.007 186.517 354.385 186.517C351.549 186.517 349.659 188.783 349.659 192.35C349.659 195.916 351.549 198.193 354.407 198.193ZM355.019 188.472C356.802 188.472 357.994 190.008 357.994 192.35C357.994 194.713 356.802 196.228 355.019 196.228C353.182 196.228 352.033 194.734 352.033 192.35C352.033 189.976 353.182 188.472 355.019 188.472ZM367.635 188.364C369.257 188.364 370.353 189.578 370.407 191.308H364.756C364.875 189.6 366.013 188.364 367.635 188.364ZM370.396 194.681C370.085 195.669 369.107 196.335 367.786 196.335C365.927 196.335 364.746 195.035 364.746 193.069V192.93H372.727V192.135C372.727 188.708 370.772 186.495 367.635 186.495C364.445 186.495 362.404 188.858 362.404 192.403C362.404 195.97 364.413 198.215 367.732 198.215C370.321 198.215 372.276 196.743 372.598 194.681H370.396ZM374.752 198H377.072V191.415C377.072 189.664 378.125 188.504 379.758 188.504C381.369 188.504 382.164 189.438 382.164 191.136V198H384.495V190.685C384.495 188.096 383.066 186.506 380.574 186.506C378.834 186.506 377.631 187.301 377.018 188.59H376.965V186.699H374.752V198ZM396.66 190.588C396.456 188.364 394.684 186.495 391.773 186.495C388.561 186.495 386.455 188.762 386.455 192.35C386.455 196.002 388.561 198.215 391.794 198.215C394.512 198.215 396.435 196.582 396.682 194.176H394.447C394.179 195.486 393.244 196.271 391.816 196.271C390.011 196.271 388.819 194.831 388.819 192.35C388.819 189.922 390 188.429 391.794 188.429C393.309 188.429 394.211 189.385 394.447 190.588H396.66ZM398.621 198H400.941V186.699H398.621V198ZM399.781 184.873C400.522 184.873 401.113 184.271 401.113 183.541C401.113 182.8 400.522 182.209 399.781 182.209C399.04 182.209 398.438 182.8 398.438 183.541C398.438 184.271 399.04 184.873 399.781 184.873ZM408.261 188.364C409.884 188.364 410.979 189.578 411.033 191.308H405.383C405.501 189.6 406.639 188.364 408.261 188.364ZM411.022 194.681C410.711 195.669 409.733 196.335 408.412 196.335C406.553 196.335 405.372 195.035 405.372 193.069V192.93H413.353V192.135C413.353 188.708 411.398 186.495 408.261 186.495C405.071 186.495 403.03 188.858 403.03 192.403C403.03 195.97 405.039 198.215 408.358 198.215C410.947 198.215 412.902 196.743 413.224 194.681H411.022ZM415.174 189.9C415.174 191.544 416.237 192.575 418.386 193.069L420.223 193.499C421.458 193.778 421.877 194.208 421.877 194.938C421.877 195.862 421.018 196.442 419.621 196.442C418.203 196.442 417.397 195.862 417.183 194.681H414.884C415.099 196.829 416.796 198.215 419.621 198.215C422.285 198.215 424.208 196.797 424.208 194.734C424.208 193.102 423.327 192.199 421.018 191.662L419.181 191.243C417.956 190.964 417.44 190.48 417.44 189.771C417.44 188.869 418.278 188.257 419.535 188.257C420.835 188.257 421.641 188.944 421.77 190.04H423.95C423.875 187.956 422.167 186.495 419.535 186.495C416.936 186.495 415.174 187.881 415.174 189.9Z" fill="#3a4854"/>
<path opacity="0.65" d="M56.8151 160.849C58.1921 160.849 58.822 160.314 59.4738 158.535L62.4694 150.383H61.1291L59.0197 156.726H58.9978L56.8884 150.383H55.5261L58.3386 158.007L58.1628 158.542C57.8698 159.428 57.4743 159.772 56.7639 159.772C56.6027 159.772 56.405 159.765 56.2658 159.736V160.805C56.405 160.834 56.6613 160.849 56.8151 160.849ZM65.9886 157.048C65.0731 157.048 64.4651 156.572 64.4651 155.847C64.4651 155.129 65.0511 154.675 66.0765 154.609L68.1126 154.484V155.107C68.1126 156.206 67.1898 157.048 65.9886 157.048ZM65.7029 158.132C66.7283 158.132 67.6951 157.561 68.1492 156.689H68.1785V158H69.387V152.734C69.387 151.218 68.2591 150.251 66.472 150.251C64.6702 150.251 63.5423 151.262 63.4544 152.58H64.6849C64.846 151.833 65.4612 151.372 66.4427 151.372C67.4974 151.372 68.1126 151.928 68.1126 152.858V153.496L65.93 153.62C64.1722 153.723 63.1688 154.543 63.1688 155.847C63.1688 157.216 64.1868 158.132 65.7029 158.132ZM71.1557 158H72.4301V153.254C72.4301 152.177 73.0746 151.467 74.0634 151.467C74.371 151.467 74.642 151.503 74.7445 151.54V150.302C74.642 150.288 74.4516 150.251 74.2318 150.251C73.3383 150.251 72.6352 150.786 72.3861 151.628H72.3568V150.383H71.1557V158ZM75.9346 158H77.209V153.518C77.209 152.229 77.9927 151.379 79.1939 151.379C80.3657 151.379 80.9443 152.053 80.9443 153.283V158H82.2188V153.056C82.2188 151.328 81.252 150.251 79.582 150.251C78.4028 150.251 77.5898 150.778 77.165 151.599H77.1357V150.383H75.9346V158ZM89.7331 157.048C88.8176 157.048 88.2097 156.572 88.2097 155.847C88.2097 155.129 88.7956 154.675 89.821 154.609L91.8571 154.484V155.107C91.8571 156.206 90.9343 157.048 89.7331 157.048ZM89.4475 158.132C90.4729 158.132 91.4397 157.561 91.8938 156.689H91.923V158H93.1315V152.734C93.1315 151.218 92.0036 150.251 90.2165 150.251C88.4147 150.251 87.2868 151.262 87.1989 152.58H88.4294C88.5905 151.833 89.2058 151.372 90.1872 151.372C91.2419 151.372 91.8571 151.928 91.8571 152.858V153.496L89.6745 153.62C87.9167 153.723 86.9133 154.543 86.9133 155.847C86.9133 157.216 87.9314 158.132 89.4475 158.132ZM97.7859 158.132C98.8846 158.132 99.7562 157.59 100.247 156.711H100.269V158H101.485V147.431H100.21V151.621H100.181C99.7269 150.786 98.848 150.251 97.7566 150.251C95.8377 150.251 94.5267 151.804 94.5267 154.191C94.5267 156.579 95.845 158.132 97.7859 158.132ZM98.0276 151.372C99.3387 151.372 100.218 152.492 100.218 154.191C100.218 155.898 99.3387 157.011 98.0276 157.011C96.68 157.011 95.8304 155.92 95.8304 154.191C95.8304 152.47 96.68 151.372 98.0276 151.372ZM106.242 158.132C107.34 158.132 108.212 157.59 108.703 156.711H108.725V158H109.94V147.431H108.666V151.621H108.637C108.183 150.786 107.304 150.251 106.212 150.251C104.293 150.251 102.982 151.804 102.982 154.191C102.982 156.579 104.301 158.132 106.242 158.132ZM106.483 151.372C107.794 151.372 108.673 152.492 108.673 154.191C108.673 155.898 107.794 157.011 106.483 157.011C105.136 157.011 104.286 155.92 104.286 154.191C104.286 152.47 105.136 151.372 106.483 151.372ZM115.448 158H116.722V151.43H118.275V150.383H116.715V149.541C116.715 148.786 117.045 148.42 117.733 148.42C117.945 148.42 118.158 148.442 118.312 148.464V147.431C118.129 147.402 117.821 147.373 117.535 147.373C116.129 147.373 115.448 148.068 115.448 149.533V150.383H114.386V151.43H115.448V158ZM121.816 157.048C120.901 157.048 120.293 156.572 120.293 155.847C120.293 155.129 120.879 154.675 121.904 154.609L123.94 154.484V155.107C123.94 156.206 123.017 157.048 121.816 157.048ZM121.53 158.132C122.556 158.132 123.523 157.561 123.977 156.689H124.006V158H125.215V152.734C125.215 151.218 124.087 150.251 122.3 150.251C120.498 150.251 119.37 151.262 119.282 152.58H120.512C120.674 151.833 121.289 151.372 122.27 151.372C123.325 151.372 123.94 151.928 123.94 152.858V153.496L121.758 153.62C120 153.723 118.996 154.543 118.996 155.847C118.996 157.216 120.014 158.132 121.53 158.132ZM133.311 152.88C133.15 151.511 132.015 150.251 130.111 150.251C128.009 150.251 126.61 151.789 126.61 154.191C126.61 156.645 128.016 158.132 130.125 158.132C131.854 158.132 133.128 157.062 133.326 155.546H132.074C131.854 156.462 131.173 157.011 130.133 157.011C128.814 157.011 127.906 155.964 127.906 154.191C127.906 152.463 128.8 151.372 130.118 151.372C131.239 151.372 131.883 152.053 132.066 152.88H133.311ZM135.058 148.544V150.383H133.923V151.43H135.058V156.022C135.058 157.487 135.6 158.059 136.999 158.059C137.299 158.059 137.651 158.037 137.805 158V156.931C137.717 156.945 137.424 156.967 137.277 156.967C136.625 156.967 136.332 156.652 136.332 155.957V151.43H137.812V150.383H136.332V148.544H135.058ZM142.261 158.132C144.363 158.132 145.784 156.616 145.784 154.191C145.784 151.76 144.363 150.251 142.261 150.251C140.152 150.251 138.731 151.76 138.731 154.191C138.731 156.616 140.152 158.132 142.261 158.132ZM142.261 157.011C140.914 157.011 140.027 155.986 140.027 154.191C140.027 152.397 140.914 151.372 142.261 151.372C143.609 151.372 144.488 152.397 144.488 154.191C144.488 155.986 143.609 157.011 142.261 157.011ZM147.223 158H148.498V153.254C148.498 152.177 149.142 151.467 150.131 151.467C150.439 151.467 150.71 151.503 150.812 151.54V150.302C150.71 150.288 150.519 150.251 150.299 150.251C149.406 150.251 148.703 150.786 148.454 151.628H148.424V150.383H147.223V158ZM156.499 154.309V153.122H151.695V154.309H156.499ZM161.989 150.251C160.883 150.251 159.996 150.815 159.528 151.672H159.498V150.383H158.29V160.542H159.564V156.762H159.594C160.048 157.597 160.927 158.132 162.018 158.132C163.937 158.132 165.248 156.579 165.248 154.191C165.248 151.804 163.93 150.251 161.989 150.251ZM161.74 157.011C160.436 157.011 159.557 155.891 159.557 154.191C159.557 152.5 160.436 151.372 161.74 151.372C163.095 151.372 163.944 152.47 163.944 154.191C163.944 155.92 163.095 157.011 161.74 157.011ZM166.753 158H168.027V147.431H166.753V158ZM176.153 150.383H174.879V154.858C174.879 156.154 174.132 157.004 172.894 157.004C171.715 157.004 171.136 156.337 171.136 155.1V150.383H169.862V155.327C169.862 157.055 170.836 158.132 172.499 158.132C173.67 158.132 174.461 157.641 174.916 156.762H174.945V158H176.153V150.383ZM181.057 156.938C179.746 156.938 178.889 155.869 178.889 154.162C178.889 152.456 179.746 151.372 181.057 151.372C182.382 151.372 183.269 152.485 183.269 154.162C183.269 155.839 182.382 156.938 181.057 156.938ZM181.101 160.871C183.203 160.871 184.543 159.663 184.543 157.846V150.383H183.327V151.665H183.305C182.8 150.778 181.906 150.251 180.83 150.251C178.859 150.251 177.585 151.774 177.585 154.162C177.585 156.528 178.859 158.059 180.8 158.059C181.87 158.059 182.771 157.517 183.239 156.689H183.269V157.89C183.269 159.025 182.47 159.787 181.152 159.787C180.2 159.787 179.445 159.326 179.196 158.63H177.885C178.098 159.926 179.423 160.871 181.101 160.871ZM186.422 158H187.696V150.383H186.422V158ZM187.059 149.028C187.506 149.028 187.857 148.669 187.857 148.229C187.857 147.783 187.506 147.431 187.059 147.431C186.619 147.431 186.26 147.783 186.26 148.229C186.26 148.669 186.619 149.028 187.059 149.028ZM189.567 158H190.842V153.518C190.842 152.229 191.625 151.379 192.826 151.379C193.998 151.379 194.577 152.053 194.577 153.283V158H195.851V153.056C195.851 151.328 194.885 150.251 193.215 150.251C192.035 150.251 191.222 150.778 190.798 151.599H190.768V150.383H189.567V158Z" fill="#3a4854"/>
<path opacity="0.65" d="M58.0845 412.849C59.4614 412.849 60.0913 412.314 60.7432 410.535L63.7388 402.383H62.3984L60.2891 408.726H60.2671L58.1577 402.383H56.7954L59.6079 410.007L59.4321 410.542C59.1392 411.428 58.7437 411.772 58.0332 411.772C57.8721 411.772 57.6743 411.765 57.5352 411.736V412.805C57.6743 412.834 57.9307 412.849 58.0845 412.849ZM67.2579 409.048C66.3424 409.048 65.7345 408.572 65.7345 407.847C65.7345 407.129 66.3204 406.675 67.3458 406.609L69.3819 406.484V407.107C69.3819 408.206 68.4591 409.048 67.2579 409.048ZM66.9723 410.132C67.9977 410.132 68.9645 409.561 69.4186 408.689H69.4479V410H70.6563V404.734C70.6563 403.218 69.5284 402.251 67.7413 402.251C65.9396 402.251 64.8116 403.262 64.7237 404.58H65.9542C66.1153 403.833 66.7306 403.372 67.712 403.372C68.7667 403.372 69.3819 403.928 69.3819 404.858V405.496L67.1993 405.62C65.4415 405.723 64.4381 406.543 64.4381 407.847C64.4381 409.216 65.4562 410.132 66.9723 410.132ZM72.425 410H73.6994V405.254C73.6994 404.177 74.3439 403.467 75.3327 403.467C75.6403 403.467 75.9113 403.503 76.0139 403.54V402.302C75.9113 402.288 75.7209 402.251 75.5012 402.251C74.6076 402.251 73.9045 402.786 73.6555 403.628H73.6262V402.383H72.425V410ZM77.2039 410H78.4783V405.518C78.4783 404.229 79.262 403.379 80.4632 403.379C81.6351 403.379 82.2137 404.053 82.2137 405.283V410H83.4881V405.056C83.4881 403.328 82.5213 402.251 80.8514 402.251C79.6722 402.251 78.8592 402.778 78.4344 403.599H78.4051V402.383H77.2039V410ZM91.0024 409.048C90.0869 409.048 89.479 408.572 89.479 407.847C89.479 407.129 90.0649 406.675 91.0903 406.609L93.1265 406.484V407.107C93.1265 408.206 92.2036 409.048 91.0024 409.048ZM90.7168 410.132C91.7422 410.132 92.709 409.561 93.1631 408.689H93.1924V410H94.4009V404.734C94.4009 403.218 93.2729 402.251 91.4858 402.251C89.6841 402.251 88.5562 403.262 88.4683 404.58H89.6987C89.8599 403.833 90.4751 403.372 91.4565 403.372C92.5112 403.372 93.1265 403.928 93.1265 404.858V405.496L90.9438 405.62C89.186 405.723 88.1826 406.543 88.1826 407.847C88.1826 409.216 89.2007 410.132 90.7168 410.132ZM99.0553 410.132C100.154 410.132 101.025 409.59 101.516 408.711H101.538V410H102.754V399.431H101.48V403.621H101.45C100.996 402.786 100.117 402.251 99.026 402.251C97.107 402.251 95.796 403.804 95.796 406.191C95.796 408.579 97.1144 410.132 99.0553 410.132ZM99.297 403.372C100.608 403.372 101.487 404.492 101.487 406.191C101.487 407.898 100.608 409.011 99.297 409.011C97.9493 409.011 97.0997 407.92 97.0997 406.191C97.0997 404.47 97.9493 403.372 99.297 403.372ZM107.511 410.132C108.61 410.132 109.481 409.59 109.972 408.711H109.994V410H111.21V399.431H109.935V403.621H109.906C109.452 402.786 108.573 402.251 107.482 402.251C105.563 402.251 104.252 403.804 104.252 406.191C104.252 408.579 105.57 410.132 107.511 410.132ZM107.753 403.372C109.064 403.372 109.943 404.492 109.943 406.191C109.943 407.898 109.064 409.011 107.753 409.011C106.405 409.011 105.555 407.92 105.555 406.191C105.555 404.47 106.405 403.372 107.753 403.372ZM116.717 410H117.992V403.43H119.544V402.383H117.984V401.541C117.984 400.786 118.314 400.42 119.002 400.42C119.215 400.42 119.427 400.442 119.581 400.464V399.431C119.398 399.402 119.09 399.373 118.805 399.373C117.398 399.373 116.717 400.068 116.717 401.533V402.383H115.655V403.43H116.717V410ZM123.085 409.048C122.17 409.048 121.562 408.572 121.562 407.847C121.562 407.129 122.148 406.675 123.173 406.609L125.209 406.484V407.107C125.209 408.206 124.287 409.048 123.085 409.048ZM122.8 410.132C123.825 410.132 124.792 409.561 125.246 408.689H125.275V410H126.484V404.734C126.484 403.218 125.356 402.251 123.569 402.251C121.767 402.251 120.639 403.262 120.551 404.58H121.782C121.943 403.833 122.558 403.372 123.54 403.372C124.594 403.372 125.209 403.928 125.209 404.858V405.496L123.027 405.62C121.269 405.723 120.266 406.543 120.266 407.847C120.266 409.216 121.284 410.132 122.8 410.132ZM134.581 404.88C134.42 403.511 133.284 402.251 131.38 402.251C129.278 402.251 127.879 403.789 127.879 406.191C127.879 408.645 129.285 410.132 131.395 410.132C133.123 410.132 134.398 409.062 134.595 407.546H133.343C133.123 408.462 132.442 409.011 131.402 409.011C130.084 409.011 129.175 407.964 129.175 406.191C129.175 404.463 130.069 403.372 131.387 403.372C132.508 403.372 133.152 404.053 133.336 404.88H134.581ZM136.327 400.544V402.383H135.192V403.43H136.327V408.022C136.327 409.487 136.869 410.059 138.268 410.059C138.569 410.059 138.92 410.037 139.074 410V408.931C138.986 408.945 138.693 408.967 138.547 408.967C137.895 408.967 137.602 408.652 137.602 407.957V403.43H139.081V402.383H137.602V400.544H136.327ZM143.531 410.132C145.633 410.132 147.054 408.616 147.054 406.191C147.054 403.76 145.633 402.251 143.531 402.251C141.421 402.251 140 403.76 140 406.191C140 408.616 141.421 410.132 143.531 410.132ZM143.531 409.011C142.183 409.011 141.297 407.986 141.297 406.191C141.297 404.397 142.183 403.372 143.531 403.372C144.878 403.372 145.757 404.397 145.757 406.191C145.757 407.986 144.878 409.011 143.531 409.011ZM148.493 410H149.767V405.254C149.767 404.177 150.412 403.467 151.4 403.467C151.708 403.467 151.979 403.503 152.081 403.54V402.302C151.979 402.288 151.788 402.251 151.569 402.251C150.675 402.251 149.972 402.786 149.723 403.628H149.694V402.383H148.493V410ZM157.769 406.309V405.122H152.964V406.309H157.769ZM159.969 400.544V402.383H158.834V403.43H159.969V408.022C159.969 409.487 160.511 410.059 161.91 410.059C162.211 410.059 162.562 410.037 162.716 410V408.931C162.628 408.945 162.335 408.967 162.189 408.967C161.537 408.967 161.244 408.652 161.244 407.957V403.43H162.723V402.383H161.244V400.544H159.969ZM164.301 410H165.576V405.562C165.576 404.243 166.36 403.379 167.627 403.379C168.821 403.379 169.428 404.104 169.428 405.312V410H170.703V405.078C170.703 403.379 169.692 402.251 168.022 402.251C166.865 402.251 166.03 402.749 165.605 403.599H165.576V399.431H164.301V410ZM175.526 403.357C176.727 403.357 177.525 404.265 177.554 405.54H173.416C173.497 404.272 174.332 403.357 175.526 403.357ZM177.525 407.817C177.313 408.535 176.602 409.026 175.636 409.026C174.266 409.026 173.409 408.066 173.409 406.609V406.536H178.873V406.052C178.873 403.745 177.606 402.251 175.548 402.251C173.446 402.251 172.098 403.855 172.098 406.221C172.098 408.616 173.424 410.132 175.606 410.132C177.269 410.132 178.558 409.15 178.778 407.817H177.525ZM180.312 410H181.586V405.225C181.586 404.17 182.319 403.379 183.329 403.379C184.274 403.379 184.89 403.979 184.89 404.895V410H186.164V405.159C186.164 404.126 186.874 403.379 187.885 403.379C188.889 403.379 189.467 403.994 189.467 405.034V410H190.742V404.741C190.742 403.232 189.767 402.251 188.259 402.251C187.189 402.251 186.296 402.793 185.871 403.701H185.842C185.512 402.778 184.743 402.251 183.703 402.251C182.678 402.251 181.901 402.793 181.542 403.599H181.513V402.383H180.312V410ZM195.572 403.357C196.773 403.357 197.571 404.265 197.601 405.54H193.462C193.543 404.272 194.378 403.357 195.572 403.357ZM197.571 407.817C197.359 408.535 196.648 409.026 195.682 409.026C194.312 409.026 193.455 408.066 193.455 406.609V406.536H198.919V406.052C198.919 403.745 197.652 402.251 195.594 402.251C193.492 402.251 192.144 403.855 192.144 406.221C192.144 408.616 193.47 410.132 195.652 410.132C197.315 410.132 198.604 409.15 198.824 407.817H197.571Z" fill="#3a4854"/>
<path opacity="0.65" d="M864.234 405H865.508V398.43H867.061V397.383H865.501V396.541C865.501 395.786 865.83 395.42 866.519 395.42C866.731 395.42 866.944 395.442 867.097 395.464V394.431C866.914 394.402 866.607 394.373 866.321 394.373C864.915 394.373 864.234 395.068 864.234 396.533V397.383H863.172V398.43H864.234V405ZM870.602 404.048C869.686 404.048 869.078 403.572 869.078 402.847C869.078 402.129 869.664 401.675 870.69 401.609L872.726 401.484V402.107C872.726 403.206 871.803 404.048 870.602 404.048ZM870.316 405.132C871.342 405.132 872.308 404.561 872.763 403.689H872.792V405H874V399.734C874 398.218 872.872 397.251 871.085 397.251C869.283 397.251 868.156 398.262 868.068 399.58H869.298C869.459 398.833 870.075 398.372 871.056 398.372C872.111 398.372 872.726 398.928 872.726 399.858V400.496L870.543 400.62C868.785 400.723 867.782 401.543 867.782 402.847C867.782 404.216 868.8 405.132 870.316 405.132ZM882.097 399.88C881.936 398.511 880.801 397.251 878.896 397.251C876.794 397.251 875.395 398.789 875.395 401.191C875.395 403.645 876.802 405.132 878.911 405.132C880.64 405.132 881.914 404.062 882.112 402.546H880.859C880.64 403.462 879.958 404.011 878.918 404.011C877.6 404.011 876.692 402.964 876.692 401.191C876.692 399.463 877.585 398.372 878.904 398.372C880.024 398.372 880.669 399.053 880.852 399.88H882.097ZM883.844 395.544V397.383H882.708V398.43H883.844V403.022C883.844 404.487 884.386 405.059 885.785 405.059C886.085 405.059 886.437 405.037 886.59 405V403.931C886.502 403.945 886.209 403.967 886.063 403.967C885.411 403.967 885.118 403.652 885.118 402.957V398.43H886.598V397.383H885.118V395.544H883.844ZM891.047 405.132C893.149 405.132 894.57 403.616 894.57 401.191C894.57 398.76 893.149 397.251 891.047 397.251C888.938 397.251 887.517 398.76 887.517 401.191C887.517 403.616 888.938 405.132 891.047 405.132ZM891.047 404.011C889.699 404.011 888.813 402.986 888.813 401.191C888.813 399.397 889.699 398.372 891.047 398.372C892.395 398.372 893.274 399.397 893.274 401.191C893.274 402.986 892.395 404.011 891.047 404.011ZM896.009 405H897.283V400.254C897.283 399.177 897.928 398.467 898.917 398.467C899.224 398.467 899.495 398.503 899.598 398.54V397.302C899.495 397.288 899.305 397.251 899.085 397.251C898.192 397.251 897.488 397.786 897.239 398.628H897.21V397.383H896.009V405ZM905.285 401.309V400.122H900.48V401.309H905.285ZM906.944 399.485C906.944 400.583 907.64 401.25 909.075 401.594L910.284 401.887C911.155 402.1 911.455 402.415 911.455 402.964C911.455 403.652 910.818 404.092 909.786 404.092C908.753 404.092 908.167 403.674 908.013 402.803H906.739C906.885 404.231 907.998 405.132 909.786 405.132C911.485 405.132 912.737 404.194 912.737 402.869C912.737 401.777 912.181 401.177 910.642 400.803L909.434 400.51C908.584 400.305 908.196 399.946 908.196 399.419C908.196 398.752 908.811 398.291 909.742 398.291C910.679 398.291 911.265 398.782 911.36 399.58H912.576C912.525 398.232 911.412 397.251 909.742 397.251C908.094 397.251 906.944 398.181 906.944 399.485ZM914.623 395.544V397.383H913.488V398.43H914.623V403.022C914.623 404.487 915.165 405.059 916.564 405.059C916.864 405.059 917.216 405.037 917.37 405V403.931C917.282 403.945 916.989 403.967 916.842 403.967C916.19 403.967 915.897 403.652 915.897 402.957V398.43H917.377V397.383H915.897V395.544H914.623ZM919.526 407.849C920.903 407.849 921.533 407.314 922.185 405.535L925.181 397.383H923.84L921.731 403.726H921.709L919.6 397.383H918.237L921.05 405.007L920.874 405.542C920.581 406.428 920.186 406.772 919.475 406.772C919.314 406.772 919.116 406.765 918.977 406.736V407.805C919.116 407.834 919.373 407.849 919.526 407.849ZM926.4 405H927.675V394.431H926.4V405ZM932.6 398.357C933.801 398.357 934.599 399.265 934.629 400.54H930.491C930.571 399.272 931.406 398.357 932.6 398.357ZM934.599 402.817C934.387 403.535 933.677 404.026 932.71 404.026C931.34 404.026 930.483 403.066 930.483 401.609V401.536H935.947V401.052C935.947 398.745 934.68 397.251 932.622 397.251C930.52 397.251 929.172 398.855 929.172 401.221C929.172 403.616 930.498 405.132 932.68 405.132C934.343 405.132 935.632 404.15 935.852 402.817H934.599ZM937.254 399.485C937.254 400.583 937.95 401.25 939.386 401.594L940.594 401.887C941.466 402.1 941.766 402.415 941.766 402.964C941.766 403.652 941.129 404.092 940.096 404.092C939.063 404.092 938.477 403.674 938.324 402.803H937.049C937.196 404.231 938.309 405.132 940.096 405.132C941.795 405.132 943.048 404.194 943.048 402.869C943.048 401.777 942.491 401.177 940.953 400.803L939.745 400.51C938.895 400.305 938.507 399.946 938.507 399.419C938.507 398.752 939.122 398.291 940.052 398.291C940.99 398.291 941.576 398.782 941.671 399.58H942.887C942.835 398.232 941.722 397.251 940.052 397.251C938.404 397.251 937.254 398.181 937.254 399.485ZM945.6 405.073C946.069 405.073 946.435 404.707 946.435 404.238C946.435 403.77 946.069 403.403 945.6 403.403C945.131 403.403 944.765 403.77 944.765 404.238C944.765 404.707 945.131 405.073 945.6 405.073ZM954.371 399.88C954.21 398.511 953.074 397.251 951.17 397.251C949.068 397.251 947.669 398.789 947.669 401.191C947.669 403.645 949.075 405.132 951.185 405.132C952.913 405.132 954.188 404.062 954.385 402.546H953.133C952.913 403.462 952.232 404.011 951.192 404.011C949.874 404.011 948.965 402.964 948.965 401.191C948.965 399.463 949.859 398.372 951.177 398.372C952.298 398.372 952.942 399.053 953.126 399.88H954.371ZM955.575 399.485C955.575 400.583 956.271 401.25 957.707 401.594L958.915 401.887C959.787 402.1 960.087 402.415 960.087 402.964C960.087 403.652 959.45 404.092 958.417 404.092C957.384 404.092 956.799 403.674 956.645 402.803H955.37C955.517 404.231 956.63 405.132 958.417 405.132C960.116 405.132 961.369 404.194 961.369 402.869C961.369 401.777 960.812 401.177 959.274 400.803L958.066 400.51C957.216 400.305 956.828 399.946 956.828 399.419C956.828 398.752 957.443 398.291 958.373 398.291C959.311 398.291 959.897 398.782 959.992 399.58H961.208C961.156 398.232 960.043 397.251 958.373 397.251C956.725 397.251 955.575 398.181 955.575 399.485ZM962.713 399.485C962.713 400.583 963.408 401.25 964.844 401.594L966.053 401.887C966.924 402.1 967.224 402.415 967.224 402.964C967.224 403.652 966.587 404.092 965.554 404.092C964.522 404.092 963.936 403.674 963.782 402.803H962.508C962.654 404.231 963.767 405.132 965.554 405.132C967.254 405.132 968.506 404.194 968.506 402.869C968.506 401.777 967.95 401.177 966.411 400.803L965.203 400.51C964.353 400.305 963.965 399.946 963.965 399.419C963.965 398.752 964.58 398.291 965.511 398.291C966.448 398.291 967.034 398.782 967.129 399.58H968.345C968.294 398.232 967.18 397.251 965.511 397.251C963.863 397.251 962.713 398.181 962.713 399.485Z" fill="#3a4854"/>
<path opacity="0.65" d="M857.965 156H859.239V149.43H860.792V148.383H859.232V147.541C859.232 146.786 859.561 146.42 860.25 146.42C860.462 146.42 860.675 146.442 860.829 146.464V145.431C860.645 145.402 860.338 145.373 860.052 145.373C858.646 145.373 857.965 146.068 857.965 147.533V148.383H856.903V149.43H857.965V156ZM864.333 155.048C863.417 155.048 862.81 154.572 862.81 153.847C862.81 153.129 863.396 152.675 864.421 152.609L866.457 152.484V153.107C866.457 154.206 865.534 155.048 864.333 155.048ZM864.047 156.132C865.073 156.132 866.04 155.561 866.494 154.689H866.523V156H867.731V150.734C867.731 149.218 866.604 148.251 864.816 148.251C863.015 148.251 861.887 149.262 861.799 150.58H863.029C863.19 149.833 863.806 149.372 864.787 149.372C865.842 149.372 866.457 149.928 866.457 150.858V151.496L864.274 151.62C862.517 151.723 861.513 152.543 861.513 153.847C861.513 155.216 862.531 156.132 864.047 156.132ZM875.828 150.88C875.667 149.511 874.532 148.251 872.628 148.251C870.525 148.251 869.127 149.789 869.127 152.191C869.127 154.645 870.533 156.132 872.642 156.132C874.371 156.132 875.645 155.062 875.843 153.546H874.59C874.371 154.462 873.69 155.011 872.65 155.011C871.331 155.011 870.423 153.964 870.423 152.191C870.423 150.463 871.317 149.372 872.635 149.372C873.755 149.372 874.4 150.053 874.583 150.88H875.828ZM877.575 146.544V148.383H876.44V149.43H877.575V154.022C877.575 155.487 878.117 156.059 879.516 156.059C879.816 156.059 880.168 156.037 880.321 156V154.931C880.234 154.945 879.941 154.967 879.794 154.967C879.142 154.967 878.849 154.652 878.849 153.957V149.43H880.329V148.383H878.849V146.544H877.575ZM884.778 156.132C886.88 156.132 888.301 154.616 888.301 152.191C888.301 149.76 886.88 148.251 884.778 148.251C882.669 148.251 881.248 149.76 881.248 152.191C881.248 154.616 882.669 156.132 884.778 156.132ZM884.778 155.011C883.43 155.011 882.544 153.986 882.544 152.191C882.544 150.397 883.43 149.372 884.778 149.372C886.126 149.372 887.005 150.397 887.005 152.191C887.005 153.986 886.126 155.011 884.778 155.011ZM889.74 156H891.015V151.254C891.015 150.177 891.659 149.467 892.648 149.467C892.955 149.467 893.226 149.503 893.329 149.54V148.302C893.226 148.288 893.036 148.251 892.816 148.251C891.923 148.251 891.22 148.786 890.971 149.628H890.941V148.383H889.74V156ZM899.016 152.309V151.122H894.211V152.309H899.016ZM900.675 150.485C900.675 151.583 901.371 152.25 902.806 152.594L904.015 152.887C904.886 153.1 905.187 153.415 905.187 153.964C905.187 154.652 904.549 155.092 903.517 155.092C902.484 155.092 901.898 154.674 901.744 153.803H900.47C900.616 155.231 901.73 156.132 903.517 156.132C905.216 156.132 906.468 155.194 906.468 153.869C906.468 152.777 905.912 152.177 904.374 151.803L903.165 151.51C902.316 151.305 901.927 150.946 901.927 150.419C901.927 149.752 902.543 149.291 903.473 149.291C904.41 149.291 904.996 149.782 905.091 150.58H906.307C906.256 149.232 905.143 148.251 903.473 148.251C901.825 148.251 900.675 149.181 900.675 150.485ZM910.998 149.357C912.199 149.357 912.998 150.265 913.027 151.54H908.889C908.969 150.272 909.804 149.357 910.998 149.357ZM912.998 153.817C912.785 154.535 912.075 155.026 911.108 155.026C909.738 155.026 908.882 154.066 908.882 152.609V152.536H914.345V152.052C914.345 149.745 913.078 148.251 911.02 148.251C908.918 148.251 907.571 149.855 907.571 152.221C907.571 154.616 908.896 156.132 911.079 156.132C912.741 156.132 914.03 155.15 914.25 153.817H912.998ZM916.195 146.544V148.383H915.059V149.43H916.195V154.022C916.195 155.487 916.737 156.059 918.136 156.059C918.436 156.059 918.787 156.037 918.941 156V154.931C918.853 154.945 918.56 154.967 918.414 154.967C917.762 154.967 917.469 154.652 917.469 153.957V149.43H918.949V148.383H917.469V146.544H916.195ZM920.871 146.544V148.383H919.736V149.43H920.871V154.022C920.871 155.487 921.413 156.059 922.812 156.059C923.112 156.059 923.464 156.037 923.618 156V154.931C923.53 154.945 923.237 154.967 923.09 154.967C922.438 154.967 922.145 154.652 922.145 153.957V149.43H923.625V148.383H922.145V146.544H920.871ZM925.203 156H926.478V148.383H925.203V156ZM925.84 147.028C926.287 147.028 926.639 146.669 926.639 146.229C926.639 145.783 926.287 145.431 925.84 145.431C925.401 145.431 925.042 145.783 925.042 146.229C925.042 146.669 925.401 147.028 925.84 147.028ZM928.349 156H929.623V151.518C929.623 150.229 930.407 149.379 931.608 149.379C932.78 149.379 933.358 150.053 933.358 151.283V156H934.633V151.056C934.633 149.328 933.666 148.251 931.996 148.251C930.817 148.251 930.004 148.778 929.579 149.599H929.55V148.383H928.349V156ZM939.507 154.938C938.196 154.938 937.339 153.869 937.339 152.162C937.339 150.456 938.196 149.372 939.507 149.372C940.833 149.372 941.719 150.485 941.719 152.162C941.719 153.839 940.833 154.938 939.507 154.938ZM939.551 158.871C941.653 158.871 942.993 157.663 942.993 155.846V148.383H941.778V149.665H941.756C941.25 148.778 940.357 148.251 939.28 148.251C937.31 148.251 936.035 149.774 936.035 152.162C936.035 154.528 937.31 156.059 939.251 156.059C940.32 156.059 941.221 155.517 941.69 154.689H941.719V155.89C941.719 157.025 940.921 157.787 939.602 157.787C938.65 157.787 937.896 157.326 937.647 156.63H936.336C936.548 157.926 937.874 158.871 939.551 158.871ZM944.674 150.485C944.674 151.583 945.37 152.25 946.805 152.594L948.014 152.887C948.886 153.1 949.186 153.415 949.186 153.964C949.186 154.652 948.549 155.092 947.516 155.092C946.483 155.092 945.897 154.674 945.743 153.803H944.469C944.616 155.231 945.729 156.132 947.516 156.132C949.215 156.132 950.468 155.194 950.468 153.869C950.468 152.777 949.911 152.177 948.373 151.803L947.164 151.51C946.315 151.305 945.927 150.946 945.927 150.419C945.927 149.752 946.542 149.291 947.472 149.291C948.409 149.291 948.995 149.782 949.091 150.58H950.306C950.255 149.232 949.142 148.251 947.472 148.251C945.824 148.251 944.674 149.181 944.674 150.485ZM953.02 156.073C953.489 156.073 953.855 155.707 953.855 155.238C953.855 154.77 953.489 154.403 953.02 154.403C952.551 154.403 952.185 154.77 952.185 155.238C952.185 155.707 952.551 156.073 953.02 156.073ZM957.242 148.383H955.968V156.388C955.968 157.238 955.667 157.553 954.84 157.553C954.833 157.553 954.657 157.553 954.642 157.553V158.615C954.657 158.622 954.862 158.622 954.884 158.622C956.51 158.622 957.242 157.919 957.242 156.374V148.383ZM956.598 147.028C957.044 147.028 957.396 146.669 957.396 146.229C957.396 145.783 957.044 145.431 956.598 145.431C956.158 145.431 955.799 145.783 955.799 146.229C955.799 146.669 956.158 147.028 956.598 147.028ZM958.982 150.485C958.982 151.583 959.677 152.25 961.113 152.594L962.321 152.887C963.193 153.1 963.493 153.415 963.493 153.964C963.493 154.652 962.856 155.092 961.823 155.092C960.791 155.092 960.205 154.674 960.051 153.803H958.776C958.923 155.231 960.036 156.132 961.823 156.132C963.523 156.132 964.775 155.194 964.775 153.869C964.775 152.777 964.218 152.177 962.68 151.803L961.472 151.51C960.622 151.305 960.234 150.946 960.234 150.419C960.234 149.752 960.849 149.291 961.779 149.291C962.717 149.291 963.303 149.782 963.398 150.58H964.614C964.563 149.232 963.449 148.251 961.779 148.251C960.131 148.251 958.982 149.181 958.982 150.485Z" fill="#3a4854"/>
<path d="M626.345 198.258C629.911 198.258 632.339 196.378 632.93 193.177H630.534C630.051 195.046 628.515 196.152 626.355 196.152C623.509 196.152 621.704 193.864 621.704 190.244C621.704 186.656 623.53 184.347 626.345 184.347C628.45 184.347 630.104 185.646 630.534 187.634H632.919C632.511 184.4 629.857 182.241 626.345 182.241C622.016 182.241 619.244 185.335 619.244 190.244C619.244 195.186 621.994 198.258 626.345 198.258ZM644.73 186.699H642.409V193.284C642.409 195.046 641.4 196.206 639.724 196.206C638.123 196.206 637.307 195.282 637.307 193.563V186.699H634.986V194.015C634.986 196.604 636.49 198.204 638.95 198.204C640.68 198.204 641.829 197.441 642.452 196.088H642.506V198H644.73V186.699ZM647.044 189.9C647.044 191.544 648.108 192.575 650.256 193.069L652.093 193.499C653.329 193.778 653.747 194.208 653.747 194.938C653.747 195.862 652.888 196.442 651.492 196.442C650.074 196.442 649.268 195.862 649.053 194.681H646.754C646.969 196.829 648.666 198.215 651.492 198.215C654.156 198.215 656.079 196.797 656.079 194.734C656.079 193.102 655.198 192.199 652.888 191.662L651.051 191.243C649.827 190.964 649.311 190.48 649.311 189.771C649.311 188.869 650.149 188.257 651.406 188.257C652.706 188.257 653.511 188.944 653.64 190.04H655.821C655.746 187.956 654.038 186.495 651.406 186.495C648.806 186.495 647.044 187.881 647.044 189.9ZM658.78 184.024V186.699H657.136V188.536H658.78V195.024C658.78 197.205 659.672 198.075 661.96 198.075C662.475 198.075 662.991 198.032 663.249 197.968V196.131C663.098 196.163 662.722 196.185 662.486 196.185C661.541 196.185 661.111 195.744 661.111 194.767V188.536H663.259V186.699H661.111V184.024H658.78ZM669.968 198.215C673.201 198.215 675.328 195.991 675.328 192.35C675.328 188.719 673.19 186.495 669.968 186.495C666.745 186.495 664.607 188.719 664.607 192.35C664.607 195.991 666.734 198.215 669.968 198.215ZM669.968 196.303C668.152 196.303 666.971 194.863 666.971 192.35C666.971 189.847 668.152 188.407 669.968 188.407C671.783 188.407 672.965 189.847 672.965 192.35C672.965 194.863 671.794 196.303 669.968 196.303ZM677.342 198H679.662V191.018C679.662 189.567 680.64 188.493 682.015 188.493C683.325 188.493 684.153 189.32 684.153 190.62V198H686.43V190.942C686.43 189.514 687.386 188.493 688.761 188.493C690.136 188.493 690.92 189.331 690.92 190.792V198H693.251V190.233C693.251 187.988 691.79 186.506 689.556 186.506C687.945 186.506 686.613 187.344 686.033 188.719H685.979C685.528 187.312 684.389 186.506 682.821 186.506C681.295 186.506 680.114 187.344 679.609 188.601H679.555V186.699H677.342V198ZM695.792 198H698.112V186.699H695.792V198ZM696.952 184.873C697.693 184.873 698.284 184.271 698.284 183.541C698.284 182.8 697.693 182.209 696.952 182.209C696.211 182.209 695.609 182.8 695.609 183.541C695.609 184.271 696.211 184.873 696.952 184.873ZM700.47 198H709.224V196.152H703.284V196.109L709.16 188.289V186.699H700.513V188.547H706.496V188.59L700.47 196.507V198ZM715.879 188.364C717.501 188.364 718.597 189.578 718.651 191.308H713C713.118 189.6 714.257 188.364 715.879 188.364ZM718.64 194.681C718.328 195.669 717.351 196.335 716.029 196.335C714.171 196.335 712.989 195.035 712.989 193.069V192.93H720.971V192.135C720.971 188.708 719.016 186.495 715.879 186.495C712.689 186.495 710.648 188.858 710.648 192.403C710.648 195.97 712.656 198.215 715.976 198.215C718.565 198.215 720.52 196.743 720.842 194.681H718.64Z" fill="#3a4854"/>
</svg>
