<svg xmlns="http://www.w3.org/2000/svg" xmlns:xlink="http://www.w3.org/1999/xlink" viewBox="0 0 1334 490">
  <defs>
    <style>
      .a {
        fill: none;
      }

      .b {
        fill: url(#a);
      }

      .c {
        fill: url(#b);
      }

      .d {
        fill: url(#c);
      }

      .e {
        fill: url(#d);
      }

      .f {
        fill: url(#e);
      }

      .g {
        fill: url(#f);
      }

      .h {
        fill: url(#g);
      }

      .i {
        opacity: 0.39;
      }

      .j {
        fill: #506677;
      }
    </style>
    <linearGradient id="a" x1="598.84" y1="54.99" x2="613.84" y2="383.48" gradientUnits="userSpaceOnUse">
      <stop offset="0" stop-color="#2b6cac"/>
      <stop offset="0.18" stop-color="#376a9b"/>
      <stop offset="0.45" stop-color="#456887"/>
      <stop offset="0.73" stop-color="#4d667b"/>
      <stop offset="1" stop-color="#506677"/>
    </linearGradient>
    <linearGradient id="b" x1="762.78" y1="47.51" x2="777.78" y2="375.99" xlink:href="#a"/>
    <linearGradient id="c" x1="903.75" y1="41.07" x2="918.75" y2="369.55" xlink:href="#a"/>
    <linearGradient id="d" x1="1035.81" y1="35.04" x2="1050.81" y2="363.52" xlink:href="#a"/>
    <linearGradient id="e" x1="1190.97" y1="27.95" x2="1205.97" y2="356.44" xlink:href="#a"/>
    <linearGradient id="f" x1="475.77" y1="60.61" x2="490.77" y2="389.1" xlink:href="#a"/>
    <linearGradient id="g" x1="82.21" y1="-10.31" x2="298.2" y2="352.68" gradientUnits="userSpaceOnUse">
      <stop offset="0" stop-color="#04b0ff"/>
      <stop offset="1" stop-color="#0471FF"/>
    </linearGradient>
  </defs>
  <title>factor-logo-2</title>
  <rect class="a" width="1334" height="490"/>
  <g>
    <path class="b" d="M649.68,177.07h54.67L680.87,324.61a96,96,0,0,0-1,13,60.09,60.09,0,0,0,1,12.26H630.06s-1.4-4.2-1.4-12.26c0-2.81,0-6.31.35-10.17h-.35a78.38,78.38,0,0,1-58.88,26.29c-42.34-3.61-60.5-33.59-60.5-74.6,0-53.27,29.31-103.88,88.89-103.88,18.22,0,39.25,5,48.71,21.83C647.58,190.39,648.63,183.73,649.68,177.07Zm-46.4,41.35c-28.74,0-46.26,27.34-46.26,54,0,20,11.56,34.7,32.24,34.7,28.74,0,46.26-27.34,46.26-54C635.52,233.14,624,218.42,603.28,218.42Z" transform="translate(0.38 0.39)"/>
    <path class="c" d="M838.18,235.59c-8.76-11.56-24.53-16.82-38.55-16.82-28.73,0-48.71,25.59-48.71,53.27,0,22.08,14.37,35,36.1,35,15.07,0,33.29-6.31,45.21-15.77l4.9,42.75c-16.82,13.67-45.56,19.63-66.23,19.63-43.81,0-75.35-29.09-75.35-73.25,0-58.87,44.51-106.53,104.43-106.53,17.18,0,34.61,1.6,47.22,14.92Z" transform="translate(0.38 0.39)"/>
    <path class="d" d="M935,177.07H972.1l-7.36,43.11h-36.8c-3.85,23.48-10.86,49.41-10.86,73.24,0,10.16,4.91,13.32,14.37,13.32a46.06,46.06,0,0,0,16.82-3.16l-4.2,44.51c-13,3.15-25.94,5.61-39.61,5.61-27.68,0-44.15-12.62-44.15-41.36,0-30.49,8.41-62.73,13-92.16H849.79l7-43.11h23.48l3.51-21.73a101.27,101.27,0,0,0,.7-14,72.94,72.94,0,0,0-.7-10.86h54.32s1,3.85,1,11.56a96.17,96.17,0,0,1-1.4,15.77Z" transform="translate(0.38 0.39)"/>
    <path class="e" d="M1032.08,353.7c-44.86,0-79.56-25.59-79.56-72.9,0-61,45.91-106.88,107.94-106.88,45.21,0,79.55,25.93,79.55,73.24C1140,308.14,1094.46,353.7,1032.08,353.7Zm21.37-134.93c-28.74,0-45.21,28-45.21,54,0,19.63,10.52,34.35,31.19,34.35,28.74,0,45.21-28,45.21-54C1084.64,233.49,1074.13,218.77,1053.45,218.77Z" transform="translate(0.38 0.39)"/>
    <path class="f" d="M1260.77,228.94H1258c-5.61-3.16-12.62-4.21-18.92-4.21-26.64,0-37.15,26.29-40.31,48.36l-12.26,76.75h-54.67l23.13-147.19a116.06,116.06,0,0,0,1-14.72,72.94,72.94,0,0,0-.7-10.86h54.32s1.05,3.85,1.05,11.56a58.55,58.55,0,0,1-1.4,13c10.16-16.12,25.93-27.68,45.91-27.68,4.9,0,12.26.7,16.47,3.15Z" transform="translate(0.38 0.39)"/>
    <path class="g" d="M516,98.94c-51.29,4.88-65.32,34.67-72.33,78.13H422.24l-6.66,43.11H437L415.54,353.4h54.69l21.4-133.22h27.49l8.32-43.43-29.15.32c2.8-16.47,5.24-25,21.1-32.62,7.16-3.43,8.05-4.29,23.41-3.42l8.42-40C540,97.5,530.43,97.56,516,98.94Z" transform="translate(0.38 0.39)"/>
  </g>
  <path class="h" d="M324.32,363.06H193.19a31.58,31.58,0,0,1-22.53-9.34L70.72,253.78a26.31,26.31,0,0,1,18.6-44.91H211.75V86.42A26.23,26.23,0,0,1,228,62.14a26.61,26.61,0,0,1,28.69,5.68l100,100A31.77,31.77,0,0,1,366,190.32V321.43A41.68,41.68,0,0,1,324.32,363.06ZM198.66,318H320.91V195.77L256.8,131.66V253.91H134.56Z" transform="translate(0.38 0.39)"/>
  <g class="i">
    <path class="j" d="M422,435.42c-1.07,6.5-3.65,12.94-11.62,12.94a10.72,10.72,0,0,1-3.85-.53l.86-5.18a8.66,8.66,0,0,0,2.86.47c4.31,0,5-4.58,5.57-7.9L420,408.87a15.75,15.75,0,0,1,1.66-5.18h6.11a16.29,16.29,0,0,0-1.53,4.85Zm2.85-37.9a3.23,3.23,0,0,1-3.45-3.26,4.78,4.78,0,0,1,4.71-4.71,3.21,3.21,0,0,1,3.45,3.32A4.67,4.67,0,0,1,424.81,397.52Z" transform="translate(0.38 0.39)"/>
    <path class="j" d="M459.72,433.16a10,10,0,0,0,.2,2.19h-6a8.87,8.87,0,0,1-.2-2.12,13,13,0,0,1,.34-3,15.26,15.26,0,0,1-11.69,5.84c-7.89,0-12.47-5.51-12.47-13.21,0-9.95,6.57-19.71,17.52-19.71,4.18,0,7.83,1.72,9.76,5.51l.79-4.91h6.18l-4.25,26.94A22.42,22.42,0,0,0,459.72,433.16Zm-11.88-24.69c-7.17,0-11.55,6.77-11.55,13.41,0,5,2.86,8.69,8,8.69,7.23,0,11.55-6.84,11.55-13.47C455.88,412.12,453.09,408.47,447.84,408.47Z" transform="translate(0.38 0.39)"/>
    <path class="j" d="M498.82,403.76,481.1,435.35h-5.38L468,403.76h6.51l5.18,23.56,12.67-23.56Z" transform="translate(0.38 0.39)"/>
    <path class="j" d="M527.36,433.16a10,10,0,0,0,.2,2.19h-6a8.87,8.87,0,0,1-.2-2.12,13,13,0,0,1,.34-3A15.26,15.26,0,0,1,510,436.08c-7.9,0-12.48-5.51-12.48-13.21,0-9.95,6.58-19.71,17.53-19.71,4.18,0,7.83,1.72,9.75,5.51l.8-4.91h6.17L527.5,430.7A22.42,22.42,0,0,0,527.36,433.16Zm-11.88-24.69c-7.17,0-11.55,6.77-11.55,13.41,0,5,2.86,8.69,8,8.69,7.24,0,11.55-6.84,11.55-13.47C523.51,412.12,520.73,408.47,515.48,408.47Z" transform="translate(0.38 0.39)"/>
    <path class="j" d="M555.51,411.19a9.11,9.11,0,0,0-6.84-3.25c-2.72,0-5.57,1.26-5.57,4.38,0,5,13.8,3.52,13.8,12.41,0,7.1-6.37,11.35-13.21,11.35-4.38,0-8.69-1.86-11-5.71l3.51-3.65a10.09,10.09,0,0,0,8.3,4.38c3,0,6.51-1.46,6.51-5,0-5.71-13.68-3.72-13.68-12.28,0-6.37,5.45-10.56,11.75-10.56,4,0,7.17,1.2,9.76,4.39Z" transform="translate(0.38 0.39)"/>
    <path class="j" d="M587.17,412.45a9.63,9.63,0,0,0-8.3-4c-7,0-11.68,6.77-11.68,13.27,0,5.11,3.06,8.83,8.37,8.83a15.8,15.8,0,0,0,9.89-3.65l1.12,4.85c-3.12,2.85-8.29,4.31-12.74,4.31-7.9,0-13.08-5.77-13.08-13.47,0-10.09,7.77-19.39,18.52-19.39,4,0,8.57,1.4,10.82,4.52Z" transform="translate(0.38 0.39)"/>
    <path class="j" d="M610.94,409.73h-.34a6.64,6.64,0,0,0-3.18-.6c-5.45,0-7.7,6-8.43,10.42l-2.52,15.8h-6.18l4.25-27a16.32,16.32,0,0,0,.13-2.45,9.84,9.84,0,0,0-.2-2.19h6.24a8.87,8.87,0,0,1,.2,2.12,14.91,14.91,0,0,1-.26,2.79h.06c1.8-3.12,4.72-5.45,8.43-5.45a7,7,0,0,1,3.12.54Z" transform="translate(0.38 0.39)"/>
    <path class="j" d="M618,433.16a10,10,0,0,0,.2,2.19h-6.3a8.87,8.87,0,0,1-.2-2.12,17.49,17.49,0,0,1,.26-3l3.52-21.77a19.57,19.57,0,0,0,.2-2.52,9.84,9.84,0,0,0-.2-2.19h6.17a8.87,8.87,0,0,1,.2,2.12,18.64,18.64,0,0,1-.26,3.05l-3.45,21.77A15.35,15.35,0,0,0,618,433.16Zm2.26-35.64a3.24,3.24,0,0,1-3.45-3.32,4.77,4.77,0,0,1,4.71-4.65,3.21,3.21,0,0,1,3.45,3.32A4.72,4.72,0,0,1,620.23,397.52Z" transform="translate(0.38 0.39)"/>
    <path class="j" d="M630.19,445.51a10.45,10.45,0,0,0,.19,2.19h-6.17a8.91,8.91,0,0,1-.2-2.13,17.52,17.52,0,0,1,.27-3l5.37-34.12a17.92,17.92,0,0,0,.2-2.52,9.84,9.84,0,0,0-.2-2.19h6a8.87,8.87,0,0,1,.2,2.12,16.88,16.88,0,0,1-.27,2.92h.07a15,15,0,0,1,11.61-5.58c7.84,0,12.42,5.45,12.42,13,0,10-6.71,19.85-17.73,19.85-4.18,0-7.76-1.66-9.55-5.57l-2.06,12.54A16.45,16.45,0,0,0,630.19,445.51Zm15-37c-7.24,0-11.55,6.84-11.55,13.47,0,5,2.79,8.63,8,8.63,7.17,0,11.55-6.84,11.55-13.47C653.22,412.12,650.36,408.47,645.19,408.47Z" transform="translate(0.38 0.39)"/>
    <path class="j" d="M675,403.82h7.24l-.8,5.25h-7.3c-.8,5-2.66,12.67-2.66,17.92,0,2.25.4,3.52,2.79,3.52a9.74,9.74,0,0,0,3.65-.73l-.46,5.24a17.24,17.24,0,0,1-5.78,1.06c-4.78,0-6.64-2.52-6.64-6.84,0-6.5,1.93-14.07,2.86-20.17h-4.45l.86-5.25h4.45l.73-4.64a19.71,19.71,0,0,0,.2-2.53,10,10,0,0,0-.2-2.19h6.24a8.91,8.91,0,0,1,.2,2.13,18.9,18.9,0,0,1-.27,3.05Z" transform="translate(0.38 0.39)"/>
    <path class="j" d="M723.58,433.16a10,10,0,0,0,.2,2.19h-6a8.87,8.87,0,0,1-.2-2.12,12.93,12.93,0,0,1,.33-3,15.23,15.23,0,0,1-11.68,5.84c-7.9,0-12.48-5.51-12.48-13.21,0-9.95,6.57-19.71,17.52-19.71,4.18,0,7.83,1.72,9.76,5.51l.8-4.91H728l-4.25,26.94A24.13,24.13,0,0,0,723.58,433.16ZM711.7,408.47c-7.17,0-11.55,6.77-11.55,13.41,0,5,2.85,8.69,8,8.69,7.23,0,11.55-6.84,11.55-13.47C719.73,412.12,716.94,408.47,711.7,408.47Z" transform="translate(0.38 0.39)"/>
    <path class="j" d="M736.12,445.51a10,10,0,0,0,.2,2.19h-6.17a8.91,8.91,0,0,1-.2-2.13,17.52,17.52,0,0,1,.27-3l5.37-34.12a17.92,17.92,0,0,0,.2-2.52,9.84,9.84,0,0,0-.2-2.19h6a8.87,8.87,0,0,1,.2,2.12,16.88,16.88,0,0,1-.27,2.92h.07a14.94,14.94,0,0,1,11.61-5.58c7.84,0,12.42,5.45,12.42,13,0,10-6.71,19.85-17.73,19.85-4.18,0-7.76-1.66-9.56-5.57l-2,12.54A15.28,15.28,0,0,0,736.12,445.51Zm15-37c-7.24,0-11.55,6.84-11.55,13.47,0,5,2.78,8.63,8,8.63,7.17,0,11.55-6.84,11.55-13.47C759.16,412.12,756.3,408.47,751.13,408.47Z" transform="translate(0.38 0.39)"/>
    <path class="j" d="M773.56,445.51a10,10,0,0,0,.2,2.19h-6.17a8.91,8.91,0,0,1-.2-2.13,18.46,18.46,0,0,1,.26-3L773,408.47a19.57,19.57,0,0,0,.2-2.52,9.84,9.84,0,0,0-.2-2.19h6a9.31,9.31,0,0,1,.19,2.12,16.76,16.76,0,0,1-.26,2.92H779a14.93,14.93,0,0,1,11.61-5.58c7.83,0,12.41,5.45,12.41,13,0,10-6.7,19.85-17.72,19.85-4.18,0-7.77-1.66-9.56-5.57l-2.06,12.54A16.45,16.45,0,0,0,773.56,445.51Zm15-37c-7.23,0-11.55,6.84-11.55,13.47,0,5,2.79,8.63,8,8.63,7.16,0,11.54-6.84,11.54-13.47C796.59,412.12,793.74,408.47,788.56,408.47Z" transform="translate(0.38 0.39)"/>
    <path class="j" d="M813.06,433.16a10,10,0,0,0,.2,2.19H807a8.87,8.87,0,0,1-.2-2.12,17.62,17.62,0,0,1,.27-3l5.71-36a19.24,19.24,0,0,0,.19-2.52,10.45,10.45,0,0,0-.19-2.19H819a9.36,9.36,0,0,1,.19,2.13,18.82,18.82,0,0,1-.26,3.05l-5.71,36A16.51,16.51,0,0,0,813.06,433.16Z" transform="translate(0.38 0.39)"/>
    <path class="j" d="M827.33,433.16a10,10,0,0,0,.2,2.19h-6.31a8.87,8.87,0,0,1-.2-2.12,17.62,17.62,0,0,1,.27-3l3.52-21.77A19.36,19.36,0,0,0,825,406a10.33,10.33,0,0,0-.19-2.19H831a8.87,8.87,0,0,1,.2,2.12,18.8,18.8,0,0,1-.27,3.05l-3.45,21.77A16.51,16.51,0,0,0,827.33,433.16Zm2.25-35.64a3.24,3.24,0,0,1-3.45-3.32,4.77,4.77,0,0,1,4.72-4.65,3.21,3.21,0,0,1,3.45,3.32A4.73,4.73,0,0,1,829.58,397.52Z" transform="translate(0.38 0.39)"/>
    <path class="j" d="M861.05,412.45a9.65,9.65,0,0,0-8.3-4c-7,0-11.68,6.77-11.68,13.27,0,5.11,3,8.83,8.36,8.83a15.75,15.75,0,0,0,9.89-3.65l1.13,4.85c-3.12,2.85-8.3,4.31-12.74,4.31-7.9,0-13.08-5.77-13.08-13.47,0-10.09,7.77-19.39,18.52-19.39,4,0,8.56,1.4,10.82,4.52Z" transform="translate(0.38 0.39)"/>
    <path class="j" d="M894.17,433.16a10,10,0,0,0,.2,2.19h-6a8.87,8.87,0,0,1-.2-2.12,13.51,13.51,0,0,1,.33-3,15.23,15.23,0,0,1-11.68,5.84c-7.9,0-12.48-5.51-12.48-13.21,0-9.95,6.57-19.71,17.52-19.71,4.19,0,7.84,1.72,9.76,5.51l.8-4.91h6.17L894.3,430.7A24.13,24.13,0,0,0,894.17,433.16Zm-11.88-24.69c-7.17,0-11.55,6.77-11.55,13.41,0,5,2.85,8.69,8,8.69,7.24,0,11.55-6.84,11.55-13.47C890.32,412.12,887.53,408.47,882.29,408.47Z" transform="translate(0.38 0.39)"/>
    <path class="j" d="M914.09,403.82h7.23l-.8,5.25h-7.3c-.79,5-2.65,12.67-2.65,17.92,0,2.25.4,3.52,2.79,3.52a9.82,9.82,0,0,0,3.65-.73l-.47,5.24a17.23,17.23,0,0,1-5.77,1.06c-4.78,0-6.64-2.52-6.64-6.84,0-6.5,1.92-14.07,2.85-20.17h-4.44l.86-5.25h4.45l.73-4.64a19.5,19.5,0,0,0,.19-2.53,10.45,10.45,0,0,0-.19-2.19h6.23a8.91,8.91,0,0,1,.2,2.13,18.73,18.73,0,0,1-.26,3.05Z" transform="translate(0.38 0.39)"/>
    <path class="j" d="M927.82,433.16a10,10,0,0,0,.2,2.19h-6.3a8.87,8.87,0,0,1-.2-2.12,18.58,18.58,0,0,1,.26-3l3.52-21.77a17.92,17.92,0,0,0,.2-2.52,9.84,9.84,0,0,0-.2-2.19h6.18a8.87,8.87,0,0,1,.2,2.12,18.8,18.8,0,0,1-.27,3.05L928,430.7A15.35,15.35,0,0,0,927.82,433.16Zm2.26-35.64a3.24,3.24,0,0,1-3.45-3.32,4.77,4.77,0,0,1,4.71-4.65,3.21,3.21,0,0,1,3.45,3.32A4.72,4.72,0,0,1,930.08,397.52Z" transform="translate(0.38 0.39)"/>
    <path class="j" d="M948.93,436.08c-8,0-13.8-5.24-13.8-13.41,0-10.48,8-19.45,19-19.45,8,0,13.74,5.32,13.74,13.48C967.85,427.19,959.89,436.08,948.93,436.08Zm4.32-27.61c-7,0-11.68,6.7-11.68,13.27,0,5.05,3,8.83,8.23,8.83,7,0,11.68-6.7,11.68-13.34C961.48,412.19,958.49,408.47,953.25,408.47Z" transform="translate(0.38 0.39)"/>
    <path class="j" d="M997.85,433.16a10,10,0,0,0,.2,2.19h-6.3a8.87,8.87,0,0,1-.2-2.12,17.49,17.49,0,0,1,.26-3l2-12.48a23.28,23.28,0,0,0,.34-3.72c0-3.58-1.46-5.44-5.18-5.44-6,0-8.56,5.71-9.43,10.89L977,435.35h-6.17l4.25-26.88a19.57,19.57,0,0,0,.2-2.52,9.84,9.84,0,0,0-.2-2.19h6.17a8.87,8.87,0,0,1,.2,2.12,16.88,16.88,0,0,1-.27,2.92h.07a12.53,12.53,0,0,1,10.22-5.58c6.17,0,9.09,3.06,9.09,9.17a24.75,24.75,0,0,1-.39,4.31l-2.19,14A15.35,15.35,0,0,0,997.85,433.16Z" transform="translate(0.38 0.39)"/>
    <path class="j" d="M1021.62,445.51a10,10,0,0,0,.2,2.19h-6.18a8.91,8.91,0,0,1-.2-2.13,17.52,17.52,0,0,1,.27-3l5.38-34.12a19.36,19.36,0,0,0,.19-2.52,10.33,10.33,0,0,0-.19-2.19h6a8.87,8.87,0,0,1,.2,2.12,16.88,16.88,0,0,1-.27,2.92h.07a15,15,0,0,1,11.62-5.58c7.83,0,12.41,5.45,12.41,13,0,10-6.71,19.85-17.72,19.85-4.19,0-7.77-1.66-9.56-5.57l-2.06,12.54A16.45,16.45,0,0,0,1021.62,445.51Zm15-37c-7.24,0-11.55,6.84-11.55,13.47,0,5,2.79,8.63,8,8.63,7.17,0,11.55-6.84,11.55-13.47C1044.65,412.12,1041.8,408.47,1036.62,408.47Z" transform="translate(0.38 0.39)"/>
    <path class="j" d="M1061.11,433.16a10,10,0,0,0,.2,2.19H1055a8.87,8.87,0,0,1-.2-2.12,17.49,17.49,0,0,1,.26-3l5.71-36a19.43,19.43,0,0,0,.2-2.52,10,10,0,0,0-.2-2.19H1067a8.91,8.91,0,0,1,.2,2.13,19,19,0,0,1-.27,3.05l-5.71,36A16.51,16.51,0,0,0,1061.11,433.16Z" transform="translate(0.38 0.39)"/>
    <path class="j" d="M1098.35,433.16a10,10,0,0,0,.2,2.19h-6a8.87,8.87,0,0,1-.2-2.12,13.51,13.51,0,0,1,.33-3,15.23,15.23,0,0,1-11.68,5.84c-7.9,0-12.48-5.51-12.48-13.21,0-9.95,6.57-19.71,17.52-19.71,4.19,0,7.84,1.72,9.76,5.51l.8-4.91h6.17l-4.25,26.94A24.13,24.13,0,0,0,1098.35,433.16Zm-11.88-24.69c-7.17,0-11.55,6.77-11.55,13.41,0,5,2.85,8.69,8,8.69,7.24,0,11.55-6.84,11.55-13.47C1094.5,412.12,1091.71,408.47,1086.47,408.47Z" transform="translate(0.38 0.39)"/>
    <path class="j" d="M1118.26,403.82h7.24l-.8,5.25h-7.3c-.79,5-2.65,12.67-2.65,17.92,0,2.25.39,3.52,2.78,3.52a9.74,9.74,0,0,0,3.65-.73l-.46,5.24a17.24,17.24,0,0,1-5.78,1.06c-4.77,0-6.63-2.52-6.63-6.84,0-6.5,1.92-14.07,2.85-20.17h-4.45l.87-5.25H1112l.73-4.64a18,18,0,0,0,.2-2.53,10,10,0,0,0-.2-2.19H1119a8.91,8.91,0,0,1,.2,2.13,18.73,18.73,0,0,1-.26,3.05Z" transform="translate(0.38 0.39)"/>
    <path class="j" d="M1130.21,409.07h-4.31l.86-5.25h4.31c1.07-7,2.79-15,11.75-15a15,15,0,0,1,5.18.73l-1.13,4.85a9.79,9.79,0,0,0-3.38-.6c-5.51,0-5.58,6-6.24,10h7.23l-.79,5.25h-7.24l-5.38,33.45a16.62,16.62,0,0,1-1.59,5.18h-6.17a16.42,16.42,0,0,0,1.53-4.85Z" transform="translate(0.38 0.39)"/>
    <path class="j" d="M1155.44,436.08c-8,0-13.81-5.24-13.81-13.41,0-10.48,8-19.45,19-19.45,8,0,13.74,5.32,13.74,13.48C1174.35,427.19,1166.39,436.08,1155.44,436.08Zm4.31-27.61c-7,0-11.68,6.7-11.68,13.27,0,5.05,3,8.83,8.23,8.83,7,0,11.68-6.7,11.68-13.34C1168,412.19,1165,408.47,1159.75,408.47Z" transform="translate(0.38 0.39)"/>
    <path class="j" d="M1198,409.73h-.33a6.64,6.64,0,0,0-3.18-.6c-5.45,0-7.7,6-8.43,10.42l-2.53,15.8h-6.17l4.25-27a16.32,16.32,0,0,0,.13-2.45,9.84,9.84,0,0,0-.2-2.19h6.24a8.87,8.87,0,0,1,.2,2.12,15,15,0,0,1-.27,2.79h.07c1.79-3.12,4.71-5.45,8.43-5.45a7,7,0,0,1,3.12.54Z" transform="translate(0.38 0.39)"/>
    <path class="j" d="M1242.46,433.16a10,10,0,0,0,.2,2.19h-6.24a8.87,8.87,0,0,1-.2-2.12,17.49,17.49,0,0,1,.26-3l2.13-13.27a15.92,15.92,0,0,0,.33-3.06c0-3-1.06-5.31-4.45-5.31-5.38,0-8.1,5.78-8.83,10.36l-2.59,16.39h-6.23l2.92-18.38a24.31,24.31,0,0,0,.26-3.12c0-3-1.06-5.25-4.38-5.25-5.44,0-8.16,5.78-8.89,10.36l-2.59,16.39H1198l4.25-26.88a17.92,17.92,0,0,0,.2-2.52,9.84,9.84,0,0,0-.2-2.19h6.11a8.87,8.87,0,0,1,.2,2.12,16.88,16.88,0,0,1-.27,2.92h.14a12,12,0,0,1,9.62-5.58c4.18,0,7.24,1.86,8,6.11,2.46-3.58,6.17-6.11,10.62-6.11,6,0,8.63,3.39,8.63,9.1a25,25,0,0,1-.33,3.91l-2.32,14.47A15.83,15.83,0,0,0,1242.46,433.16Z" transform="translate(0.38 0.39)"/>
  </g>
</svg>
