<svg width="560" height="549" viewBox="0 0 560 549" fill="none" xmlns="http://www.w3.org/2000/svg">
<path d="M58.3333 257.021C42.864 257.021 28.0267 250.875 17.0827 239.938C6.1452 228.996 0 214.157 0 198.688C0 183.218 6.14586 168.381 17.0827 157.437C28.0253 146.5 42.864 140.354 58.3333 140.354C73.8027 140.354 88.64 146.5 99.584 157.437C110.521 168.38 116.667 183.218 116.667 198.688C116.667 214.157 110.521 228.994 99.584 239.938C88.6413 250.876 73.8027 257.021 58.3333 257.021ZM58.3333 163.688C49.0521 163.688 40.1453 167.375 33.584 173.938C27.0227 180.5 23.334 189.407 23.334 198.687C23.334 207.967 27.0215 216.875 33.584 223.436C40.1465 229.998 49.0533 233.686 58.3333 233.686C67.6133 233.686 76.5213 229.999 83.0827 223.436C89.644 216.874 93.3327 207.967 93.3327 198.687C93.3327 189.407 89.6452 180.499 83.0827 173.938C76.5201 167.376 67.6133 163.688 58.3333 163.688Z" fill="black"/>
<path d="M501.667 152.021C492.01 152.042 482.5 149.635 474.016 145.021C469.75 142.734 465.828 139.87 462.349 136.505C452.896 128.078 446.6 116.677 444.5 104.188C443.713 100.745 443.323 97.219 443.333 93.6878C443.333 78.2185 449.479 63.3812 460.416 52.4372C471.359 41.4997 486.197 35.3545 501.667 35.3545C517.136 35.3545 531.973 41.5004 542.917 52.4372C553.855 63.3798 560 78.2185 560 93.6878C560 109.157 553.854 123.994 542.917 134.938C531.975 145.876 517.136 152.021 501.667 152.021ZM501.667 58.6874C492.385 58.6874 483.479 62.3749 476.917 68.9374C470.356 75.5 466.667 84.4068 466.667 93.6868C466.464 95.666 466.464 97.6608 466.667 99.6346C468.152 107.364 472.277 114.332 478.334 119.353C480.412 121.353 482.771 123.041 485.334 124.369C490.323 127.176 495.943 128.661 501.667 128.687C514.172 128.687 525.725 122.015 531.979 111.187C538.229 100.359 538.229 87.0146 531.979 76.1866C525.724 65.3585 514.172 58.6874 501.667 58.6874Z" fill="black"/>
<path d="M501.666 502.021C486.197 502.021 471.36 495.875 460.416 484.938C449.478 473.995 443.333 459.157 443.333 443.687C443.104 440.932 443.104 438.161 443.333 435.406C445.078 422.937 450.854 411.379 459.781 402.505C463.703 398.609 468.135 395.27 472.968 392.588C488.718 383.916 507.588 382.994 524.108 390.088C540.635 397.182 552.958 411.5 557.521 428.891C562.083 446.287 558.369 464.808 547.453 479.099C536.541 493.385 519.646 501.845 501.666 502.021ZM501.666 408.687C495.791 408.693 490.015 410.177 484.864 413.005C481.895 414.672 479.15 416.708 476.697 419.073C471.416 424.463 468.02 431.422 467.015 438.906C466.801 440.489 466.681 442.088 466.666 443.687C466.666 452.969 470.353 461.875 476.916 468.437C483.478 474.998 492.385 478.687 501.665 478.687C510.945 478.687 519.853 474.999 526.414 468.437C532.976 461.874 536.664 452.967 536.664 443.687C536.664 434.407 532.977 425.499 526.414 418.938C519.852 412.377 510.945 408.688 501.665 408.688L501.666 408.687Z" fill="black"/>
<path d="M69.9996 420.354C55.9116 420.359 42.2916 415.266 31.6663 406.016C21.036 396.76 14.1196 383.974 12.1876 370.016C10.2556 356.057 13.4428 341.876 21.1564 330.084C28.87 318.292 40.5937 309.693 54.1564 305.87C67.7191 302.053 82.2084 303.271 94.9431 309.303C107.677 315.334 117.798 325.772 123.432 338.688C126.703 346.032 128.375 353.985 128.333 362.021C128.333 377.491 122.188 392.328 111.251 403.272C100.308 414.209 85.469 420.354 69.9996 420.354ZM69.9996 327.021C57.4944 327.021 45.9423 333.693 39.6876 344.521C33.4376 355.349 33.4376 368.693 39.6876 379.521C45.9428 390.349 57.4943 397.021 69.9996 397.021C79.2808 397.021 88.1876 393.333 94.7489 386.771C101.31 380.208 104.999 371.302 104.999 362.022C105.046 357.235 104.051 352.501 102.082 348.136C99.374 341.876 94.8948 336.537 89.1968 332.787C83.4938 329.032 76.822 327.031 69.9996 327.021Z" fill="black"/>
<path d="M280 338.688C268.656 338.683 257.557 335.37 248.068 329.151C238.578 322.933 231.104 314.083 226.568 303.687C223.297 296.344 221.625 288.39 221.667 280.354C221.745 261.775 230.667 244.349 245.693 233.422C260.72 222.5 280.048 219.381 297.745 225.031C315.443 230.682 329.385 244.427 335.303 262.037C339.428 273.979 339.428 286.963 335.303 298.906C332.537 307.416 327.824 315.166 321.532 321.537C310.501 332.516 295.568 338.682 280.001 338.687L280 338.688ZM280 245.354C270.719 245.354 261.812 249.042 255.25 255.604C248.689 262.167 245 271.074 245 280.354C244.954 285.14 245.948 289.875 247.917 294.239C252.516 304.901 262.1 312.588 273.505 314.766C284.911 316.938 296.656 313.313 304.849 305.089C308.531 301.391 311.36 296.927 313.136 292.021C314.427 288.271 315.057 284.323 315 280.354C315.016 276.667 314.427 273 313.25 269.505C310.964 262.49 306.516 256.375 300.542 252.036C294.573 247.698 287.38 245.36 280 245.354Z" fill="black"/>
<path d="M280.946 105.688L300.769 93.3809L489.049 396.688L469.226 408.995L280.946 105.688Z" fill="black"/>
<path d="M310.026 485.927L450.906 426.677L459.953 448.187L319.073 507.438L310.026 485.927Z" fill="black"/>
<path d="M268.333 117.021C250.593 117.136 233.797 109.037 222.833 95.0889C211.447 81.0583 207.207 62.5423 211.354 44.9529C215.499 27.3649 227.562 12.6876 244.015 5.21827C260.468 -2.25053 279.458 -1.6776 295.427 6.7808C311.396 15.2339 322.547 30.6141 325.615 48.4208C326.344 51.7905 326.698 55.2385 326.667 58.6864C326.667 74.1557 320.521 88.9931 309.584 99.9371C298.642 110.875 283.803 117.02 268.334 117.02L268.333 117.021ZM268.333 23.6876C255.828 23.6876 244.275 30.3595 238.021 41.1876C231.771 52.0157 231.771 65.3596 238.021 76.1876C244.276 87.0157 255.827 93.6876 268.333 93.6876C274.208 93.6824 279.984 92.198 285.135 89.3699C290.958 86.1147 295.761 81.3125 299.015 75.4899C301.885 70.3544 303.375 64.568 303.333 58.6872C303.536 56.708 303.536 54.7132 303.333 52.7393C301.917 44.5205 297.614 37.078 291.198 31.75C284.781 26.4271 276.67 23.5679 268.333 23.6876Z" fill="black"/>
<path d="M88.7334 159.488L225.973 77.7803L237.911 97.8269L100.671 179.535L88.7334 159.488Z" fill="black"/>
<path d="M280.399 443.275L469.653 128.795L489.642 140.826L300.389 455.306L280.399 443.275Z" fill="black"/>
<path d="M310.213 61.2479L318.228 39.3359L459.895 91.1533L451.88 113.065L310.213 61.2479Z" fill="black"/>
<path d="M268.333 548.688C252.864 548.688 238.027 542.542 227.083 531.606C216.145 520.663 210 505.824 210 490.355C210 469.516 221.12 450.256 239.167 439.839C257.213 429.417 279.453 429.417 297.5 439.839C315.547 450.256 326.667 469.516 326.667 490.355C326.896 493.11 326.896 495.881 326.667 498.636C324.661 512.631 317.641 525.423 306.907 534.631C296.177 543.834 282.469 548.828 268.333 548.688ZM268.333 455.355C259.052 455.355 250.145 459.042 243.584 465.605C237.023 472.167 233.334 481.074 233.334 490.354C232.48 502.859 238.36 514.87 248.761 521.86C259.162 528.854 272.506 529.766 283.761 524.25C295.021 518.74 302.479 507.641 303.334 495.136C303.438 493.547 303.438 491.948 303.334 490.354C303.329 484.037 301.61 477.834 298.365 472.412C295.12 466.99 290.469 462.547 284.901 459.552C279.828 456.766 274.125 455.318 268.333 455.355Z" fill="black"/>
<path d="M108.733 332.448L233.373 288.088L241.196 310.072L116.556 354.432L108.733 332.448Z" fill="black"/>
<path d="M307.479 322.168L319.844 302.335L475.831 399.6L463.466 419.434L307.479 322.168Z" fill="black"/>
<path d="M101.613 399.581L113.54 379.523L236.78 452.815L224.853 472.873L101.613 399.581Z" fill="black"/>
<path d="M304.573 236.527L463.413 118.735L477.315 137.475L318.475 255.267L304.573 236.527Z" fill="black"/>
<path d="M97.3867 228.861L104.621 206.694L240.728 251.106L233.493 273.273L97.3867 228.861Z" fill="black"/>
<path d="M74.0264 245.047L92.693 231.053L252.4 444.066L233.733 458.061L74.0264 245.047Z" fill="black"/>
<path d="M83.7334 315.048L235.427 92.4346L254.708 105.575L103.015 328.189L83.7334 315.048Z" fill="black"/>
</svg>
