<svg xmlns="http://www.w3.org/2000/svg" width="164" height="62"><defs><style>.b{fill:#ea6c00}.c{fill:#2b3945}</style></defs><g stroke="#e7e7e7" stroke-miterlimit="10" fill="#fff"><rect width="164" height="62" rx="6" stroke="none"/><rect x=".5" y=".5" width="163" height="61" rx="5.5" fill="none"/></g><path class="b" d="M30.976 9.166l.7 2.274h2.276l-1.839 1.405.7 2.274-1.837-1.406-1.84 1.406.7-2.274-1.837-1.405h2.274zM30.976 46.585l.7 2.275h2.276l-1.839 1.405.7 2.273-1.84-1.4-1.839 1.4.7-2.273-1.835-1.405h2.274zM40.331 12.568l.7 2.274h2.276l-1.84 1.406.7 2.273-1.836-1.406-1.84 1.406.7-2.273-1.837-1.406h2.274zM47.985 19.017l.7 2.274h2.276l-1.84 1.405.7 2.274-1.836-1.405-1.84 1.405.7-2.274-1.837-1.405h2.274zM47.985 37.231l.7 2.275h2.276l-1.84 1.405.7 2.273-1.84-1.4-1.84 1.4.7-2.273-1.833-1.405h2.274zM13.967 19.017l.7 2.274h2.276l-1.839 1.405.7 2.274-1.837-1.405-1.84 1.405.7-2.274-1.837-1.405h2.274zM49.685 27.876l.7 2.274h2.276l-1.84 1.405.7 2.274-1.839-1.4-1.84 1.4.7-2.274-1.834-1.405h2.274zM12.266 27.876l.7 2.274h2.276l-1.84 1.405.7 2.274-1.839-1.4-1.84 1.4.7-2.274-1.834-1.405h2.274zM13.967 37.231l.7 2.275h2.276l-1.839 1.405.7 2.273-1.839-1.4-1.84 1.4.7-2.273-1.835-1.405h2.274zM42.031 44.885l.7 2.274h2.276l-1.84 1.406.7 2.274-1.836-1.406-1.84 1.405.7-2.274-1.837-1.405h2.274zM21.621 12.568l.7 2.274h2.276l-1.84 1.406.7 2.273-1.836-1.406-1.84 1.406.7-2.273-1.837-1.406h2.274zM19.919 44.885l.7 2.275h2.277l-1.84 1.4.7 2.274-1.84-1.4-1.839 1.4.7-2.274-1.834-1.4h2.274z"/><path class="c" d="M35.843 29.514h-.664v-2.059a4.283 4.283 0 00-4.2-4.348 4.283 4.283 0 00-4.2 4.348v2.059h-.672a1.351 1.351 0 00-1.328 1.373v5.492a1.351 1.351 0 001.328 1.373h9.737a1.351 1.351 0 001.328-1.373v-5.492a1.351 1.351 0 00-1.329-1.373z"/><path d="M32.966 29.514h-3.983v-2.06a2.029 2.029 0 011.992-2.059 2.029 2.029 0 011.991 2.059z" fill="#fff"/><path class="c" d="M74.069 31.149a7.771 7.771 0 01-5.277-1.919 6.826 6.826 0 01-2.19-5.201 6.824 6.824 0 012.19-5.2 7.772 7.772 0 015.277-1.918 6.551 6.551 0 015.9 3.2l-2.984 1.567a3.447 3.447 0 00-2.916-1.63 3.773 3.773 0 00-2.767 1.147 4.072 4.072 0 00-1.081 2.834 4.074 4.074 0 001.081 2.836 3.772 3.772 0 002.767 1.146 4.275 4.275 0 002.607-.825v-1.155H73.51v-2.95h6.661v5.385a7.96 7.96 0 01-6.102 2.683zm40.086-.247l-3.553-.001V17.138h6.9a4.443 4.443 0 014.8 4.581 4.2 4.2 0 01-2.751 4.127l2.812 5.053h-4.074l-2.314-4.661h-1.82v4.665zm0-10.773v3.096h2.813a1.584 1.584 0 001.716-1.547 1.584 1.584 0 00-1.716-1.547zm-13.3 10.772h-3.553V17.138h6.9a4.442 4.442 0 014.8 4.581c0 2.7-1.928 4.518-4.8 4.518h-3.35v4.664zm0-10.771v3.095h2.875a1.525 1.525 0 001.655-1.527 1.543 1.543 0 00-1.655-1.568zM88.073 30.901h-5.814V17.138h5.793a7.879 7.879 0 015.362 1.834 6.535 6.535 0 012.1 5.038 6.569 6.569 0 01-2.1 5.047 7.821 7.821 0 01-5.341 1.844zm-2.256-10.668v7.578h2.235a3.761 3.761 0 002.821-1.132 3.849 3.849 0 001.006-2.668 3.518 3.518 0 00-3.806-3.777zM71.58 40.13a2.531 2.531 0 00-.22-.57 1.577 1.577 0 00-.36-.45 1.6 1.6 0 00-.515-.3 2.04 2.04 0 00-.685-.1 2 2 0 00-.985.23 1.931 1.931 0 00-.675.615 2.774 2.774 0 00-.385.875 4.03 4.03 0 00-.125 1 4.03 4.03 0 00.125 1 2.774 2.774 0 00.385.875 1.931 1.931 0 00.675.615 2 2 0 00.985.23 1.777 1.777 0 00.74-.15 1.647 1.647 0 00.55-.4 1.882 1.882 0 00.36-.595 2.849 2.849 0 00.17-.73h1.22a3.384 3.384 0 01-.275 1.17 2.869 2.869 0 01-.635.915 2.806 2.806 0 01-.94.595 3.257 3.257 0 01-1.19.215 3.367 3.367 0 01-1.435-.3 3.157 3.157 0 01-1.075-.8 3.6 3.6 0 01-.675-1.19 4.408 4.408 0 01-.235-1.45 4.378 4.378 0 01.235-1.44 3.6 3.6 0 01.675-1.19 3.213 3.213 0 011.075-.81 3.319 3.319 0 011.435-.3 3.781 3.781 0 011.13.165 2.921 2.921 0 01.935.48 2.493 2.493 0 01.655.765 2.661 2.661 0 01.31 1.03zm5.69-1.42a2 2 0 00-.985.23 1.931 1.931 0 00-.675.615 2.774 2.774 0 00-.385.875 4.03 4.03 0 00-.125 1 4.03 4.03 0 00.125 1 2.774 2.774 0 00.385.875 1.931 1.931 0 00.675.615 2 2 0 00.985.23 2 2 0 00.985-.23 1.931 1.931 0 00.675-.615 2.774 2.774 0 00.385-.875 4.03 4.03 0 00.125-1 4.03 4.03 0 00-.125-1 2.774 2.774 0 00-.385-.875 1.931 1.931 0 00-.675-.615 2 2 0 00-.985-.23zm0-1.02a3.319 3.319 0 011.435.3 3.213 3.213 0 011.075.81 3.6 3.6 0 01.675 1.19 4.378 4.378 0 01.235 1.44 4.408 4.408 0 01-.235 1.45 3.6 3.6 0 01-.675 1.19 3.157 3.157 0 01-1.08.805 3.367 3.367 0 01-1.435.3 3.367 3.367 0 01-1.435-.3 3.157 3.157 0 01-1.07-.805 3.6 3.6 0 01-.675-1.19 4.408 4.408 0 01-.235-1.45 4.378 4.378 0 01.235-1.44 3.6 3.6 0 01.675-1.19 3.213 3.213 0 011.075-.81 3.319 3.319 0 011.435-.3zm4.79.17h1.76l1.97 5.59h.02l1.92-5.59h1.74V45h-1.19v-5.51h-.02L86.28 45h-1.03l-1.98-5.51h-.02V45h-1.19zm9.16 0h3.15a2.994 2.994 0 011.24.22 1.957 1.957 0 01.74.55 1.868 1.868 0 01.355.72 3.058 3.058 0 01.1.72 3 3 0 01-.1.715 1.871 1.871 0 01-.355.715 1.915 1.915 0 01-.74.545 3.055 3.055 0 01-1.24.215h-1.9V45h-1.25zm1.25 3.38h1.83a1.63 1.63 0 00.43-.06 1.231 1.231 0 00.4-.195 1 1 0 00.3-.36 1.235 1.235 0 00.115-.565 1.461 1.461 0 00-.1-.58.927.927 0 00-.27-.365.961.961 0 00-.39-.185 2.117 2.117 0 00-.47-.05H92.47zm5.67-3.38h1.25v6.06h3.63V45h-4.88zm5.99 0h1.25V45h-1.25zm4.94 0h1.33l2.75 7.14h-1.34l-.67-1.89h-2.85l-.67 1.89h-1.29zm-.44 4.3h2.18l-1.07-3.07h-.03zm5.4-4.3h1.32l3.26 5.26h.02v-5.26h1.19V45h-1.32l-3.25-5.25h-.03V45h-1.19zm6.84 0h5.78v1.08h-2.27V45h-1.25v-6.06h-2.26z"/></svg>
