<svg width="128" height="128" viewBox="0 0 128 128" fill="none" xmlns="http://www.w3.org/2000/svg">
<rect width="128" height="128" fill="#182D45"/>
<circle cx="64" cy="36" r="13" fill="#3C6DF6"/>
<circle cx="64" cy="36" r="6" fill="white"/>
<circle cx="35" cy="82" r="13" fill="#3C6DF6"/>
<circle cx="35" cy="82" r="6" fill="white"/>
<circle cx="64" cy="82" r="13" fill="#3C6DF6"/>
<circle cx="64" cy="82" r="6" fill="white"/>
<circle cx="93" cy="82" r="13" fill="#3C6DF6"/>
<circle cx="93" cy="82" r="6" fill="white"/>
<path fill-rule="evenodd" clip-rule="evenodd" d="M62 82.5V36H66V82.5H62Z" fill="white"/>
<path fill-rule="evenodd" clip-rule="evenodd" d="M90.8085 63.0722C90.3567 63.0052 89.6897 63 88.5 63H40C38.7884 63 38.0535 63.0358 37.5698 63.1284C37.3978 63.1613 37.3004 63.1936 37.2506 63.2144C37.2188 63.2888 37.1472 63.4975 37.0933 63.9693C37.0148 64.6563 37 65.602 37 67L37 82.5H33L33 67C33 65.648 33.0102 64.4687 33.1192 63.5151C33.2261 62.5794 33.4561 61.5408 34.1383 60.6881C34.8724 59.7704 35.8683 59.3815 36.8177 59.1997C37.7216 59.0267 38.8116 59 40 59L88.6269 59C89.6415 58.9998 90.6133 58.9996 91.3947 59.1153C92.2654 59.2443 93.3021 59.5695 94.0375 60.55C94.6813 61.4083 94.8481 62.4693 94.9228 63.3652C95.0001 64.2926 95 65.4868 95 66.9104V82.5H91V67C91 65.4632 90.9983 64.438 90.9366 63.6973C90.9115 63.3962 90.8794 63.2004 90.8537 63.0792C90.8396 63.0769 90.8245 63.0745 90.8085 63.0722ZM37.2066 63.2371C37.206 63.2369 37.2103 63.2336 37.2212 63.2279C37.2127 63.2345 37.2072 63.2374 37.2066 63.2371Z" fill="white"/>
</svg>
