<svg width="64" height="64" viewBox="0 0 64 64" fill="none" xmlns="http://www.w3.org/2000/svg">
<path d="M38.1491 9.36687H26.0481V21.4679H38.1491V9.36687Z" fill="#8ECCFD"/>
<path fill-rule="evenodd" clip-rule="evenodd" d="M23.6812 7H40.516V23.8347H23.6812V7ZM28.415 11.7337V19.101H35.7822V11.7337H28.415Z" fill="#0496FF"/>
<path d="M38.1491 43.4139H26.0481V55.5149H38.1491V43.4139Z" fill="#8ECCFD"/>
<path fill-rule="evenodd" clip-rule="evenodd" d="M23.6812 41.047H40.516V57.8818H23.6812V41.047ZM28.415 45.7808V53.148H35.7822V45.7808H28.415Z" fill="#0496FF"/>
<path d="M61.6331 43.4139H49.5321V55.5149H61.6331V43.4139Z" fill="#8ECCFD"/>
<path fill-rule="evenodd" clip-rule="evenodd" d="M47.1653 41.047H64V57.8818H47.1653V41.047ZM51.899 45.7808V53.148H59.2663V45.7808H51.899Z" fill="#0496FF"/>
<path d="M14.5625 43.4139H2.46155V55.5149H14.5625V43.4139Z" fill="#8ECCFD"/>
<path fill-rule="evenodd" clip-rule="evenodd" d="M0 40.9523H17.0241V57.9764H0V40.9523ZM4.92308 45.8754V53.0533H12.101V45.8754H4.92308Z" fill="#0496FF"/>
<path fill-rule="evenodd" clip-rule="evenodd" d="M31.9718 20.3317C33.2789 20.3181 34.3495 21.3668 34.363 22.6739L34.5681 42.4662C34.5817 43.7733 33.533 44.8439 32.2259 44.8575C30.9188 44.871 29.8482 43.8224 29.8346 42.5153L29.6295 22.723C29.616 21.4158 30.6646 20.3452 31.9718 20.3317Z" fill="#0496FF"/>
<path fill-rule="evenodd" clip-rule="evenodd" d="M50.8961 35.1151C50.906 35.1153 50.927 35.1158 50.9579 35.1173C51.0279 35.1207 51.1427 35.1291 51.2864 35.1495C51.5859 35.192 51.9448 35.2771 52.2723 35.4304C52.5909 35.5796 52.8256 35.7665 52.9855 35.9977C53.1334 36.2118 53.3187 36.6081 53.3187 37.3632V42.4907C53.3187 43.7979 54.3784 44.8576 55.6856 44.8576C56.9928 44.8576 58.0525 43.7979 58.0525 42.4907V37.3632C58.0525 35.7596 57.6353 34.3997 56.8796 33.3062C56.1357 32.2299 55.1654 31.558 54.2791 31.1431C53.4016 30.7324 52.5555 30.5484 51.9512 30.4627C51.6431 30.4189 51.3814 30.3985 51.1878 30.3891C51.0906 30.3844 51.0094 30.3824 50.9467 30.3817C50.9153 30.3813 50.8885 30.3813 50.8666 30.3814L50.8543 30.3815H12.193L11.9804 30.4207L12.4092 32.7484C11.9804 30.4207 11.9793 30.4209 11.9781 30.4211L11.9758 30.4215L11.9708 30.4225L11.9597 30.4246L11.9331 30.4298C11.9133 30.4338 11.8896 30.4387 11.8623 30.4446C11.8076 30.4565 11.738 30.4726 11.6555 30.4937C11.4911 30.5357 11.2722 30.5984 11.0166 30.6881C10.5127 30.8649 9.82617 31.1607 9.12417 31.641C7.66071 32.6423 6.14537 34.4621 6.14537 37.3632V42.4907C6.14537 43.7979 7.20506 44.8576 8.51224 44.8576C9.81943 44.8576 10.8791 43.7979 10.8791 42.4907V37.3632C10.8791 36.3673 11.3122 35.8797 11.7972 35.5478C12.0695 35.3616 12.3572 35.2344 12.5839 35.1548C12.628 35.1393 12.6683 35.1262 12.7037 35.1153H50.8909L50.8961 35.1151Z" fill="#0496FF"/>
</svg>
