<svg width="1239" height="693" viewBox="0 0 1239 693" fill="none" xmlns="http://www.w3.org/2000/svg">
<g clip-path="url(#clip0_114_182)">
<path d="M1223.76 0H14.7441C6.60115 0 0 4.58974 0 10.2515V682.749C0 688.41 6.60115 693 14.7441 693H1223.76C1231.9 693 1238.5 688.41 1238.5 682.749V10.2515C1238.5 4.58974 1231.9 0 1223.76 0Z" fill="white"/>
<path d="M154.793 536.464C155 535.845 155.9 535.845 156.107 536.464L157.156 539.605C157.202 539.74 157.289 539.857 157.407 539.94C157.525 540.023 157.667 540.068 157.813 540.068H161.208C161.877 540.068 162.155 540.902 161.614 541.285L158.867 543.225C158.749 543.309 158.662 543.426 158.617 543.561C158.572 543.696 158.572 543.842 158.617 543.976L159.665 547.117C159.873 547.737 159.144 548.251 158.603 547.868L155.856 545.928C155.738 545.844 155.596 545.799 155.45 545.799C155.304 545.799 155.162 545.844 155.044 545.928L152.297 547.868C151.756 548.251 151.028 547.736 151.235 547.117L152.283 543.976C152.329 543.842 152.329 543.696 152.283 543.561C152.238 543.426 152.151 543.309 152.033 543.225L149.286 541.285C148.744 540.902 149.023 540.068 149.692 540.068H153.087C153.233 540.068 153.375 540.024 153.493 539.94C153.611 539.857 153.699 539.74 153.744 539.605L154.793 536.464Z" fill="#5233FF" stroke="#5233FF" stroke-width="0.624" stroke-linecap="round" stroke-linejoin="round"/>
<path d="M170.993 536.464C171.2 535.845 172.1 535.845 172.307 536.464L173.356 539.605C173.401 539.74 173.489 539.857 173.607 539.94C173.725 540.023 173.867 540.068 174.013 540.068H177.408C178.077 540.068 178.355 540.902 177.814 541.285L175.067 543.225C174.949 543.309 174.862 543.426 174.817 543.561C174.772 543.696 174.772 543.842 174.817 543.976L175.865 547.117C176.073 547.737 175.344 548.251 174.803 547.868L172.056 545.928C171.938 545.844 171.796 545.799 171.65 545.799C171.504 545.799 171.362 545.844 171.244 545.928L168.497 547.868C167.956 548.251 167.227 547.736 167.435 547.117L168.483 543.976C168.528 543.842 168.528 543.696 168.483 543.561C168.438 543.426 168.351 543.309 168.233 543.225L165.486 541.285C164.944 540.902 165.223 540.068 165.892 540.068H169.287C169.433 540.068 169.575 540.024 169.693 539.94C169.811 539.857 169.899 539.74 169.944 539.605L170.993 536.464Z" fill="#5233FF" stroke="#5233FF" stroke-width="0.624" stroke-linecap="round" stroke-linejoin="round"/>
<path d="M187.193 536.464C187.4 535.845 188.3 535.845 188.507 536.464L189.556 539.605C189.602 539.74 189.689 539.857 189.807 539.94C189.925 540.023 190.067 540.068 190.213 540.068H193.608C194.277 540.068 194.555 540.902 194.014 541.285L191.268 543.225C191.15 543.309 191.062 543.426 191.017 543.561C190.972 543.696 190.972 543.842 191.017 543.976L192.065 547.117C192.273 547.737 191.544 548.251 191.003 547.868L188.256 545.928C188.138 545.844 187.996 545.799 187.85 545.799C187.704 545.799 187.562 545.844 187.444 545.928L184.697 547.868C184.156 548.251 183.428 547.736 183.635 547.117L184.683 543.976C184.729 543.842 184.729 543.696 184.684 543.561C184.638 543.426 184.551 543.309 184.433 543.225L181.686 541.285C181.144 540.902 181.424 540.068 182.092 540.068H185.487C185.633 540.068 185.775 540.024 185.893 539.94C186.011 539.857 186.099 539.74 186.144 539.605L187.193 536.464Z" fill="#5233FF" stroke="#5233FF" stroke-width="0.624" stroke-linecap="round" stroke-linejoin="round"/>
<path d="M203.393 536.464C203.6 535.845 204.5 535.845 204.707 536.464L205.756 539.605C205.801 539.74 205.889 539.857 206.007 539.94C206.125 540.023 206.267 540.068 206.413 540.068H209.808C210.477 540.068 210.755 540.902 210.214 541.285L207.467 543.225C207.349 543.309 207.262 543.426 207.217 543.561C207.172 543.696 207.172 543.842 207.217 543.976L208.265 547.117C208.473 547.737 207.744 548.251 207.203 547.868L204.456 545.928C204.338 545.844 204.196 545.799 204.05 545.799C203.904 545.799 203.762 545.844 203.644 545.928L200.897 547.868C200.356 548.251 199.627 547.736 199.835 547.117L200.883 543.976C200.928 543.842 200.929 543.696 200.883 543.561C200.838 543.426 200.751 543.309 200.633 543.225L197.886 541.285C197.344 540.902 197.623 540.068 198.292 540.068H201.687C201.833 540.068 201.975 540.024 202.093 539.94C202.211 539.857 202.299 539.74 202.344 539.605L203.393 536.464Z" fill="#5233FF" stroke="#5233FF" stroke-width="0.624" stroke-linecap="round" stroke-linejoin="round"/>
<path d="M219.593 536.464C219.8 535.845 220.701 535.845 220.907 536.464L221.956 539.605C222.002 539.74 222.089 539.857 222.207 539.94C222.325 540.023 222.467 540.068 222.613 540.068H226.008C226.677 540.068 226.955 540.902 226.414 541.285L223.668 543.225C223.55 543.309 223.462 543.426 223.417 543.561C223.372 543.696 223.372 543.842 223.417 543.976L224.465 547.117C224.673 547.737 223.944 548.251 223.403 547.868L220.656 545.928C220.538 545.844 220.396 545.799 220.25 545.799C220.104 545.799 219.962 545.844 219.844 545.928L217.097 547.868C216.556 548.251 215.828 547.736 216.035 547.117L217.083 543.976C217.129 543.842 217.129 543.696 217.084 543.561C217.038 543.426 216.951 543.309 216.833 543.225L214.086 541.285C213.544 540.902 213.824 540.068 214.492 540.068H217.887C218.033 540.068 218.175 540.024 218.293 539.94C218.411 539.857 218.499 539.74 218.544 539.605L219.593 536.464Z" fill="#5233FF" stroke="#5233FF" stroke-width="0.624" stroke-linecap="round" stroke-linejoin="round"/>
<rect x="230.516" y="518.972" width="85.5157" height="13.9718" rx="1" transform="rotate(-180 230.516 518.972)" fill="#CBD5E1"/>
<rect x="425.516" y="415.972" width="85.5157" height="13.9718" rx="1" transform="rotate(-180 425.516 415.972)" fill="#CBD5E1"/>
<rect x="539.516" y="415.972" width="85.5157" height="13.9718" rx="1" transform="rotate(-180 539.516 415.972)" fill="#CBD5E1"/>
<rect x="657.516" y="415.972" width="85.5157" height="13.9718" rx="1" transform="rotate(-180 657.516 415.972)" fill="#CBD5E1"/>
<rect x="38" y="114" width="553.445" height="241.769" rx="5" stroke="#E2E8F0" stroke-width="2"/>
<rect x="38" y="386" width="181" height="47" rx="5" stroke="#E2E8F0" stroke-width="2"/>
<rect x="986" y="386" width="181" height="47" rx="5" stroke="#E2E8F0" stroke-width="2"/>
<rect x="264" y="546" width="702" height="14" rx="1" fill="#E2E8F0"/>
<rect x="264" y="574" width="865" height="15" rx="1" fill="#E2E8F0" fill-opacity="0.5"/>
<rect x="1036" y="502" width="129" height="17" rx="1" fill="#E2E8F0" fill-opacity="0.5"/>
<g clip-path="url(#clip1_114_182)">
<path d="M41 530C41 505.699 60.6995 486 85 486V486C109.301 486 129 505.699 129 530V530C129 554.301 109.301 574 85 574V574C60.6995 574 41 554.301 41 530V530Z" fill="url(#paint0_linear_114_182)"/>
<path d="M106.267 532.787C108.646 524.884 110.113 511.373 100.107 502.133C92.4595 495.072 71.8 494.36 64.6134 509.76C63.4136 512.331 65.0534 516.36 68.28 516.213C69.5481 516.155 70.3334 520.173 71.0667 522.667C70.04 532.787 60.8933 532.974 56.2534 540.707C50.5334 550.24 57.5734 564.32 74.44 564.32C91.3067 564.32 100.976 550.359 106.267 532.787Z" fill="url(#paint1_linear_114_182)"/>
<path d="M111.987 555.938C114.138 560.081 115.213 575.173 115.213 575.173H54.7866C54.7866 575.173 55.8623 560.081 58.0133 555.938C61.24 549.723 85 541.733 85 541.733C85 541.733 108.76 549.723 111.987 555.938Z" fill="url(#paint2_linear_114_182)"/>
<path d="M92.04 545.253C92.04 545.253 88.2953 547.307 84.8504 547.307C81.4055 547.307 77.96 545.253 77.96 545.253V538.8C77.2189 538.917 76.4681 538.962 75.7183 538.933C68.6818 538.933 66.0286 528.683 67.4 516.213C68.28 516.213 70.3333 516.213 73.2666 512.107C72.5333 517.827 81.04 516.947 84.2666 512.4C82.6533 517.827 86.9066 521.493 90.5733 519.293C97.7632 514.979 99.3795 528.13 92.04 528.24V545.253Z" fill="url(#paint3_linear_114_182)"/>
<g style="mix-blend-mode:multiply" opacity="0.782">
<path d="M77.96 538.8C81.5987 538.13 85.0805 536.787 88.2266 534.84C88.2266 534.84 84.56 541.147 77.96 541.147V538.8Z" fill="#FFD7B8"/>
</g>
<path d="M85.0098 547.006C87.1297 546.91 92.0401 545.872 92.0401 543.628V541.733C92.5781 541.733 94.1184 543.004 94.9107 544.08C98.0423 548.333 94.5687 552.147 91.7357 552.147C88.1611 552.147 85.7921 549.16 85.0001 547.723C84.2081 549.161 81.8392 552.147 78.2646 552.147C75.4316 552.147 71.958 548.333 75.0896 544.08C75.8819 543.004 77.4222 541.733 77.9601 541.733V543.628C77.9601 545.872 83.0031 546.91 85.0098 547.006Z" fill="white"/>
<path d="M83.8267 566.96C83.8267 566.728 83.8955 566.501 84.0244 566.308C84.1533 566.115 84.3366 565.965 84.551 565.876C84.7654 565.787 85.0013 565.764 85.2289 565.809C85.4565 565.854 85.6656 565.966 85.8297 566.13C85.9938 566.294 86.1055 566.504 86.1508 566.731C86.1961 566.959 86.1728 567.195 86.084 567.409C85.9952 567.623 85.8448 567.807 85.6519 567.936C85.4589 568.065 85.2321 568.133 85 568.133C84.6888 568.133 84.3904 568.01 84.1703 567.79C83.9503 567.57 83.8267 567.271 83.8267 566.96ZM83.8267 561.093C83.8267 560.861 83.8955 560.634 84.0244 560.441C84.1533 560.249 84.3366 560.098 84.551 560.009C84.7654 559.921 85.0013 559.897 85.2289 559.943C85.4565 559.988 85.6656 560.1 85.8297 560.264C85.9938 560.428 86.1055 560.637 86.1508 560.864C86.1961 561.092 86.1728 561.328 86.084 561.542C85.9952 561.757 85.8448 561.94 85.6519 562.069C85.4589 562.198 85.2321 562.267 85 562.267C84.6888 562.267 84.3904 562.143 84.1703 561.923C83.9503 561.703 83.8267 561.405 83.8267 561.093ZM83.8267 555.227C83.8267 554.995 83.8955 554.768 84.0244 554.575C84.1533 554.382 84.3366 554.231 84.551 554.143C84.7654 554.054 85.0013 554.031 85.2289 554.076C85.4565 554.121 85.6656 554.233 85.8297 554.397C85.9938 554.561 86.1055 554.77 86.1508 554.998C86.1961 555.225 86.1728 555.461 86.084 555.676C85.9952 555.89 85.8448 556.073 85.6519 556.202C85.4589 556.331 85.2321 556.4 85 556.4C84.6888 556.4 84.3904 556.276 84.1703 556.056C83.9503 555.836 83.8267 555.538 83.8267 555.227V555.227Z" fill="url(#paint4_linear_114_182)"/>
</g>
<path d="M57.5853 44L52.0167 53.1037L46.4649 44H37L47.7358 59.6859L47.7525 71H56.2809V59.6859L67 44H57.5853Z" fill="#8EA6C2"/>
<path d="M69 44L69.0165 71H92V64.4342H77.4554V60.5864H89.7993V54.4955H77.4554V50.6477H91.6029V44H69Z" fill="#8EA6C2"/>
<path d="M95 44V50.664H104.064V71H112.936V50.6477H122V44H95Z" fill="#8EA6C2"/>
<path d="M124 44V71H133L132.982 44H124Z" fill="#8EA6C2"/>
<path d="M134.1 293V268.5H142.798C144.058 268.5 145.195 268.757 146.21 269.27C147.237 269.783 148.048 270.524 148.643 271.492C149.249 272.449 149.553 273.598 149.553 274.94C149.553 275.593 149.448 276.235 149.238 276.865C149.028 277.495 148.73 278.049 148.345 278.527C147.96 279.006 147.493 279.344 146.945 279.542C147.692 279.729 148.31 280.067 148.8 280.557C149.302 281.036 149.698 281.596 149.99 282.237C150.282 282.879 150.486 283.544 150.603 284.232C150.731 284.921 150.795 285.574 150.795 286.192C150.795 287.499 150.48 288.666 149.85 289.692C149.22 290.719 148.374 291.53 147.313 292.125C146.263 292.708 145.102 293 143.83 293H134.1ZM137.74 289.85H143.48C144.227 289.85 144.903 289.663 145.51 289.29C146.128 288.917 146.618 288.403 146.98 287.75C147.342 287.085 147.523 286.338 147.523 285.51C147.523 284.787 147.342 284.104 146.98 283.462C146.618 282.809 146.128 282.284 145.51 281.887C144.903 281.491 144.227 281.292 143.48 281.292H137.74V289.85ZM137.74 278.195H142.413C143.369 278.195 144.192 277.903 144.88 277.32C145.568 276.737 145.913 275.937 145.913 274.923C145.913 273.837 145.568 273.027 144.88 272.49C144.192 271.942 143.369 271.667 142.413 271.667H137.74V278.195ZM167.061 275.5H170.701V293H167.043L166.903 290.462C166.39 291.361 165.696 292.084 164.821 292.632C163.946 293.181 162.913 293.455 161.723 293.455C160.44 293.455 159.232 293.216 158.101 292.737C156.969 292.247 155.972 291.571 155.108 290.707C154.257 289.844 153.592 288.852 153.113 287.732C152.635 286.601 152.396 285.387 152.396 284.092C152.396 282.844 152.629 281.672 153.096 280.575C153.562 279.467 154.21 278.498 155.038 277.67C155.867 276.842 156.823 276.194 157.908 275.727C159.005 275.249 160.177 275.01 161.426 275.01C162.697 275.01 163.817 275.302 164.786 275.885C165.766 276.457 166.577 277.192 167.218 278.09L167.061 275.5ZM161.636 289.937C162.662 289.937 163.561 289.687 164.331 289.185C165.101 288.672 165.696 287.983 166.116 287.12C166.547 286.257 166.763 285.3 166.763 284.25C166.763 283.188 166.547 282.226 166.116 281.362C165.684 280.499 165.083 279.817 164.313 279.315C163.555 278.802 162.662 278.545 161.636 278.545C160.621 278.545 159.693 278.802 158.853 279.315C158.013 279.828 157.348 280.517 156.858 281.38C156.368 282.243 156.123 283.2 156.123 284.25C156.123 285.312 156.374 286.274 156.876 287.137C157.389 287.989 158.06 288.672 158.888 289.185C159.728 289.687 160.644 289.937 161.636 289.937ZM179.443 293.333C178.521 293.274 177.623 293.088 176.748 292.772C175.873 292.457 175.103 292.032 174.438 291.495C173.784 290.947 173.294 290.305 172.968 289.57L176.065 288.24C176.217 288.555 176.479 288.864 176.853 289.167C177.238 289.471 177.687 289.722 178.2 289.92C178.714 290.107 179.25 290.2 179.81 290.2C180.359 290.2 180.866 290.124 181.333 289.972C181.811 289.809 182.202 289.564 182.505 289.237C182.809 288.911 182.96 288.52 182.96 288.065C182.96 287.552 182.785 287.155 182.435 286.875C182.097 286.583 181.671 286.362 181.158 286.21C180.644 286.058 180.131 285.912 179.618 285.772C178.474 285.516 177.424 285.166 176.468 284.722C175.523 284.267 174.77 283.69 174.21 282.99C173.65 282.278 173.37 281.409 173.37 280.382C173.37 279.262 173.674 278.294 174.28 277.477C174.887 276.649 175.68 276.013 176.66 275.57C177.652 275.127 178.708 274.905 179.828 274.905C181.228 274.905 182.511 275.202 183.678 275.797C184.844 276.392 185.737 277.209 186.355 278.247L183.468 279.962C183.293 279.612 183.03 279.297 182.68 279.017C182.33 278.737 181.934 278.516 181.49 278.352C181.047 278.177 180.586 278.078 180.108 278.055C179.513 278.032 178.959 278.102 178.445 278.265C177.944 278.417 177.541 278.662 177.238 279C176.934 279.338 176.783 279.77 176.783 280.295C176.783 280.808 176.964 281.193 177.325 281.45C177.687 281.695 178.142 281.893 178.69 282.045C179.25 282.197 179.822 282.366 180.405 282.552C181.444 282.879 182.418 283.282 183.328 283.76C184.238 284.227 184.973 284.804 185.533 285.492C186.093 286.181 186.361 287.021 186.338 288.012C186.338 289.109 186.005 290.072 185.34 290.9C184.687 291.728 183.835 292.358 182.785 292.79C181.735 293.222 180.621 293.403 179.443 293.333ZM196.795 293.455C195.185 293.455 193.715 293.041 192.385 292.212C191.067 291.384 190.011 290.276 189.218 288.887C188.436 287.487 188.045 285.942 188.045 284.25C188.045 282.967 188.273 281.771 188.728 280.662C189.183 279.542 189.807 278.562 190.6 277.722C191.405 276.871 192.338 276.206 193.4 275.727C194.462 275.249 195.593 275.01 196.795 275.01C198.137 275.01 199.368 275.29 200.488 275.85C201.608 276.398 202.564 277.162 203.358 278.142C204.151 279.111 204.734 280.231 205.108 281.502C205.481 282.762 205.592 284.104 205.44 285.527H191.948C192.099 286.332 192.391 287.062 192.823 287.715C193.266 288.357 193.826 288.864 194.503 289.237C195.191 289.611 195.955 289.803 196.795 289.815C197.682 289.815 198.487 289.593 199.21 289.15C199.945 288.707 200.546 288.094 201.013 287.312L204.705 288.17C204.005 289.722 202.949 290.993 201.538 291.985C200.126 292.965 198.545 293.455 196.795 293.455ZM191.825 282.745H201.765C201.648 281.905 201.351 281.147 200.873 280.47C200.406 279.782 199.817 279.239 199.105 278.842C198.405 278.434 197.635 278.23 196.795 278.23C195.967 278.23 195.197 278.428 194.485 278.825C193.785 279.222 193.202 279.764 192.735 280.452C192.28 281.129 191.977 281.893 191.825 282.745ZM221.937 266.75H225.577V293H221.937V290.428C221.365 291.337 220.618 292.072 219.697 292.632C218.775 293.181 217.696 293.455 216.459 293.455C215.187 293.455 213.997 293.216 212.889 292.737C211.781 292.259 210.801 291.6 209.949 290.76C209.109 289.908 208.45 288.928 207.972 287.82C207.493 286.712 207.254 285.522 207.254 284.25C207.254 282.978 207.493 281.788 207.972 280.68C208.45 279.56 209.109 278.58 209.949 277.74C210.801 276.888 211.781 276.223 212.889 275.745C213.997 275.267 215.187 275.027 216.459 275.027C217.696 275.027 218.775 275.307 219.697 275.867C220.618 276.416 221.365 277.139 221.937 278.037V266.75ZM216.494 289.937C217.521 289.937 218.419 289.687 219.189 289.185C219.959 288.672 220.554 287.983 220.974 287.12C221.406 286.257 221.622 285.3 221.622 284.25C221.622 283.188 221.406 282.226 220.974 281.362C220.542 280.499 219.942 279.817 219.172 279.315C218.413 278.802 217.521 278.545 216.494 278.545C215.479 278.545 214.552 278.802 213.712 279.315C212.883 279.828 212.218 280.517 211.717 281.38C211.227 282.243 210.982 283.2 210.982 284.25C210.982 285.312 211.232 286.274 211.734 287.137C212.247 287.989 212.918 288.672 213.747 289.185C214.587 289.687 215.502 289.937 216.494 289.937ZM245.877 293.455C244.267 293.455 242.797 293.041 241.467 292.212C240.149 291.384 239.093 290.276 238.3 288.887C237.518 287.487 237.127 285.942 237.127 284.25C237.127 282.967 237.355 281.771 237.81 280.662C238.265 279.542 238.889 278.562 239.682 277.722C240.487 276.871 241.42 276.206 242.482 275.727C243.544 275.249 244.675 275.01 245.877 275.01C247.487 275.01 248.951 275.424 250.27 276.252C251.6 277.081 252.655 278.195 253.437 279.595C254.23 280.995 254.627 282.547 254.627 284.25C254.627 285.522 254.4 286.712 253.945 287.82C253.49 288.928 252.86 289.908 252.055 290.76C251.261 291.6 250.334 292.259 249.272 292.737C248.222 293.216 247.09 293.455 245.877 293.455ZM245.877 289.815C246.845 289.815 247.715 289.558 248.485 289.045C249.255 288.532 249.861 287.855 250.305 287.015C250.76 286.163 250.987 285.242 250.987 284.25C250.987 283.235 250.754 282.302 250.287 281.45C249.832 280.598 249.22 279.922 248.45 279.42C247.68 278.907 246.822 278.65 245.877 278.65C244.92 278.65 244.051 278.907 243.27 279.42C242.5 279.933 241.887 280.616 241.432 281.467C240.989 282.319 240.767 283.247 240.767 284.25C240.767 285.288 241 286.227 241.467 287.067C241.934 287.907 242.552 288.578 243.322 289.08C244.104 289.57 244.955 289.815 245.877 289.815ZM273.204 282.027V293H269.564V282.92C269.564 282.138 269.372 281.427 268.987 280.785C268.614 280.143 268.106 279.636 267.464 279.262C266.834 278.877 266.123 278.685 265.329 278.685C264.559 278.685 263.854 278.877 263.212 279.262C262.57 279.636 262.057 280.143 261.672 280.785C261.287 281.427 261.094 282.138 261.094 282.92V293H257.454V275.5H261.094V277.355C261.701 276.632 262.448 276.06 263.334 275.64C264.221 275.22 265.178 275.01 266.204 275.01C267.499 275.01 268.678 275.325 269.739 275.955C270.801 276.585 271.641 277.431 272.259 278.492C272.889 279.554 273.204 280.732 273.204 282.027Z" fill="#18303F" fill-opacity="0.25"/>
<path d="M287.328 293V272.14H284.406L285.403 268.5H290.968V293H287.328ZM295.172 294.96L296.257 289.045H299.897L297.587 294.96H295.172ZM313.892 293V286.735H303.41V283.077L313.017 268.5H317.532V283.095H319.772V286.735H317.532V293H313.892ZM307.645 283.077L313.892 283.095L313.857 273.522L307.645 283.077ZM323.268 293V289.762C324.096 289.074 325.047 288.275 326.121 287.365C327.194 286.443 328.285 285.469 329.393 284.442C330.501 283.404 331.522 282.372 332.456 281.345C333.389 280.307 334.141 279.327 334.713 278.405C335.296 277.472 335.588 276.661 335.588 275.972C335.588 275.191 335.396 274.479 335.011 273.837C334.637 273.184 334.13 272.665 333.488 272.28C332.846 271.883 332.135 271.685 331.353 271.685C330.571 271.685 329.854 271.883 329.201 272.28C328.559 272.665 328.04 273.184 327.643 273.837C327.258 274.479 327.066 275.191 327.066 275.972H323.426C323.426 274.491 323.787 273.155 324.511 271.965C325.246 270.763 326.208 269.812 327.398 269.112C328.6 268.401 329.918 268.045 331.353 268.045C332.8 268.045 334.118 268.401 335.308 269.112C336.498 269.824 337.449 270.781 338.161 271.982C338.872 273.172 339.228 274.502 339.228 275.972C339.228 276.789 339.059 277.629 338.721 278.492C338.382 279.356 337.91 280.237 337.303 281.135C336.708 282.033 336.014 282.943 335.221 283.865C334.427 284.787 333.576 285.708 332.666 286.63C331.756 287.552 330.828 288.462 329.883 289.36H339.438V293H323.268ZM350.341 293.455C348.86 293.455 347.53 293.111 346.351 292.423C345.185 291.734 344.263 290.812 343.586 289.657C342.91 288.502 342.571 287.219 342.571 285.807H346.211C346.211 286.542 346.386 287.213 346.736 287.82C347.086 288.427 347.571 288.911 348.189 289.272C348.807 289.634 349.525 289.815 350.341 289.815C351.076 289.815 351.759 289.634 352.389 289.272C353.019 288.911 353.526 288.427 353.911 287.82C354.296 287.213 354.489 286.542 354.489 285.807C354.489 284.874 354.244 284.092 353.754 283.462C353.264 282.832 352.581 282.366 351.706 282.062C350.843 281.747 349.846 281.59 348.714 281.59V278.72C350.254 278.72 351.485 278.417 352.406 277.81C353.328 277.203 353.789 276.299 353.789 275.097C353.789 274.467 353.62 273.896 353.281 273.382C352.955 272.857 352.517 272.443 351.969 272.14C351.432 271.825 350.855 271.667 350.236 271.667C349.595 271.667 348.976 271.825 348.381 272.14C347.798 272.443 347.32 272.857 346.946 273.382C346.573 273.896 346.386 274.467 346.386 275.097H342.746C342.746 274.129 342.945 273.219 343.341 272.367C343.75 271.504 344.298 270.752 344.986 270.11C345.686 269.457 346.48 268.949 347.366 268.587C348.265 268.214 349.204 268.027 350.184 268.027C351.467 268.027 352.657 268.348 353.754 268.99C354.862 269.62 355.749 270.472 356.414 271.545C357.091 272.607 357.429 273.791 357.429 275.097C357.429 276.136 357.172 277.122 356.659 278.055C356.157 278.977 355.457 279.63 354.559 280.015C355.341 280.295 355.994 280.738 356.519 281.345C357.056 281.94 357.458 282.628 357.726 283.41C357.995 284.18 358.129 284.979 358.129 285.807C358.129 287.207 357.773 288.491 357.061 289.657C356.35 290.812 355.399 291.734 354.209 292.423C353.031 293.111 351.741 293.455 350.341 293.455ZM369.701 293V275.5H373.341V277.355C373.947 276.632 374.694 276.06 375.581 275.64C376.467 275.22 377.424 275.01 378.451 275.01C379.104 275.01 379.751 275.097 380.393 275.272L378.941 278.947C378.486 278.772 378.031 278.685 377.576 278.685C376.806 278.685 376.1 278.877 375.458 279.262C374.816 279.636 374.303 280.143 373.918 280.785C373.533 281.427 373.341 282.138 373.341 282.92V293H369.701ZM389.295 293.455C387.685 293.455 386.215 293.041 384.885 292.212C383.567 291.384 382.511 290.276 381.718 288.887C380.936 287.487 380.545 285.942 380.545 284.25C380.545 282.967 380.773 281.771 381.228 280.662C381.683 279.542 382.307 278.562 383.1 277.722C383.905 276.871 384.838 276.206 385.9 275.727C386.962 275.249 388.093 275.01 389.295 275.01C390.637 275.01 391.868 275.29 392.988 275.85C394.108 276.398 395.064 277.162 395.858 278.142C396.651 279.111 397.234 280.231 397.608 281.502C397.981 282.762 398.092 284.104 397.94 285.527H384.448C384.599 286.332 384.891 287.062 385.323 287.715C385.766 288.357 386.326 288.864 387.003 289.237C387.691 289.611 388.455 289.803 389.295 289.815C390.182 289.815 390.987 289.593 391.71 289.15C392.445 288.707 393.046 288.094 393.513 287.312L397.205 288.17C396.505 289.722 395.449 290.993 394.038 291.985C392.626 292.965 391.045 293.455 389.295 293.455ZM384.325 282.745H394.265C394.148 281.905 393.851 281.147 393.373 280.47C392.906 279.782 392.317 279.239 391.605 278.842C390.905 278.434 390.135 278.23 389.295 278.23C388.467 278.23 387.697 278.428 386.985 278.825C386.285 279.222 385.702 279.764 385.235 280.452C384.78 281.129 384.477 281.893 384.325 282.745ZM410.028 293H405.355L398.968 275.465H402.853L407.683 288.8L412.53 275.465H416.398L410.028 293ZM419.124 275.5H422.764V293H419.124V275.5ZM420.979 272.962C420.419 272.962 419.953 272.782 419.579 272.42C419.206 272.058 419.019 271.603 419.019 271.055C419.019 270.518 419.206 270.069 419.579 269.707C419.953 269.334 420.414 269.147 420.962 269.147C421.499 269.147 421.954 269.334 422.327 269.707C422.7 270.069 422.887 270.518 422.887 271.055C422.887 271.603 422.7 272.058 422.327 272.42C421.965 272.782 421.516 272.962 420.979 272.962ZM434.344 293.455C432.734 293.455 431.264 293.041 429.934 292.212C428.616 291.384 427.56 290.276 426.766 288.887C425.985 287.487 425.594 285.942 425.594 284.25C425.594 282.967 425.821 281.771 426.276 280.662C426.731 279.542 427.356 278.562 428.149 277.722C428.954 276.871 429.887 276.206 430.949 275.727C432.011 275.249 433.142 275.01 434.344 275.01C435.686 275.01 436.916 275.29 438.036 275.85C439.156 276.398 440.113 277.162 440.906 278.142C441.7 279.111 442.283 280.231 442.656 281.502C443.03 282.762 443.141 284.104 442.989 285.527H429.496C429.648 286.332 429.94 287.062 430.371 287.715C430.815 288.357 431.375 288.864 432.051 289.237C432.74 289.611 433.504 289.803 434.344 289.815C435.231 289.815 436.036 289.593 436.759 289.15C437.494 288.707 438.095 288.094 438.561 287.312L442.254 288.17C441.554 289.722 440.498 290.993 439.086 291.985C437.675 292.965 436.094 293.455 434.344 293.455ZM429.374 282.745H439.314C439.197 281.905 438.9 281.147 438.421 280.47C437.955 279.782 437.366 279.239 436.654 278.842C435.954 278.434 435.184 278.23 434.344 278.23C433.516 278.23 432.746 278.428 432.034 278.825C431.334 279.222 430.751 279.764 430.284 280.452C429.829 281.129 429.526 281.893 429.374 282.745ZM453.502 293H449.879L444.017 275.5H447.587L451.717 287.785L455.812 275.5H459.487L463.582 287.785L467.694 275.5H471.264L465.419 293H461.762L457.632 280.627L453.502 293ZM479.13 293.333C478.209 293.274 477.31 293.088 476.435 292.772C475.56 292.457 474.79 292.032 474.125 291.495C473.472 290.947 472.982 290.305 472.655 289.57L475.753 288.24C475.904 288.555 476.167 288.864 476.54 289.167C476.925 289.471 477.374 289.722 477.888 289.92C478.401 290.107 478.938 290.2 479.498 290.2C480.046 290.2 480.554 290.124 481.02 289.972C481.499 289.809 481.889 289.564 482.193 289.237C482.496 288.911 482.648 288.52 482.648 288.065C482.648 287.552 482.473 287.155 482.123 286.875C481.784 286.583 481.359 286.362 480.845 286.21C480.332 286.058 479.819 285.912 479.305 285.772C478.162 285.516 477.112 285.166 476.155 284.722C475.21 284.267 474.458 283.69 473.898 282.99C473.338 282.278 473.058 281.409 473.058 280.382C473.058 279.262 473.361 278.294 473.968 277.477C474.574 276.649 475.368 276.013 476.348 275.57C477.339 275.127 478.395 274.905 479.515 274.905C480.915 274.905 482.199 275.202 483.365 275.797C484.532 276.392 485.424 277.209 486.043 278.247L483.155 279.962C482.98 279.612 482.718 279.297 482.368 279.017C482.018 278.737 481.621 278.516 481.178 278.352C480.734 278.177 480.274 278.078 479.795 278.055C479.2 278.032 478.646 278.102 478.133 278.265C477.631 278.417 477.229 278.662 476.925 279C476.622 279.338 476.47 279.77 476.47 280.295C476.47 280.808 476.651 281.193 477.013 281.45C477.374 281.695 477.829 281.893 478.378 282.045C478.938 282.197 479.509 282.366 480.093 282.552C481.131 282.879 482.105 283.282 483.015 283.76C483.925 284.227 484.66 284.804 485.22 285.492C485.78 286.181 486.049 287.021 486.025 288.012C486.025 289.109 485.693 290.072 485.028 290.9C484.374 291.728 483.523 292.358 482.473 292.79C481.423 293.222 480.309 293.403 479.13 293.333Z" fill="#18303F" fill-opacity="0.6"/>
<path d="M272.232 502.4H276.166L283.292 522H279.666L278.406 518.528H270.006L268.746 522H265.12L272.232 502.4ZM271.252 515.112H277.146L274.192 507.034L271.252 515.112ZM285.422 522V508H288.838V509.246C289.314 508.742 289.884 508.345 290.546 508.056C291.209 507.757 291.923 507.608 292.688 507.608C293.659 507.608 294.55 507.837 295.362 508.294C296.184 508.751 296.837 509.363 297.322 510.128C297.817 509.363 298.47 508.751 299.282 508.294C300.094 507.837 300.986 507.608 301.956 507.608C302.983 507.608 303.912 507.86 304.742 508.364C305.582 508.859 306.25 509.526 306.744 510.366C307.248 511.197 307.5 512.125 307.5 513.152V522H304.084V514.062C304.084 513.521 303.949 513.026 303.678 512.578C303.417 512.121 303.062 511.757 302.614 511.486C302.176 511.206 301.681 511.066 301.13 511.066C300.58 511.066 300.08 511.201 299.632 511.472C299.194 511.733 298.839 512.088 298.568 512.536C298.298 512.984 298.162 513.493 298.162 514.062V522H294.746V514.062C294.746 513.493 294.616 512.984 294.354 512.536C294.093 512.088 293.738 511.733 293.29 511.472C292.842 511.201 292.343 511.066 291.792 511.066C291.251 511.066 290.756 511.206 290.308 511.486C289.86 511.757 289.501 512.121 289.23 512.578C288.969 513.026 288.838 513.521 288.838 514.062V522H285.422ZM320.588 508H324.004V522H320.588L320.434 520.264C320.051 520.889 319.542 521.398 318.908 521.79C318.282 522.173 317.54 522.364 316.682 522.364C315.646 522.364 314.675 522.168 313.77 521.776C312.864 521.384 312.066 520.843 311.376 520.152C310.694 519.461 310.158 518.663 309.766 517.758C309.383 516.853 309.192 515.882 309.192 514.846C309.192 513.847 309.374 512.909 309.738 512.032C310.111 511.155 310.629 510.385 311.292 509.722C311.954 509.059 312.72 508.541 313.588 508.168C314.456 507.795 315.389 507.608 316.388 507.608C317.312 507.608 318.138 507.813 318.866 508.224C319.603 508.635 320.228 509.157 320.742 509.792L320.588 508ZM316.598 519.074C317.326 519.074 317.97 518.892 318.53 518.528C319.09 518.164 319.528 517.674 319.846 517.058C320.163 516.433 320.322 515.747 320.322 515C320.322 514.244 320.163 513.558 319.846 512.942C319.528 512.317 319.085 511.822 318.516 511.458C317.956 511.094 317.316 510.912 316.598 510.912C315.879 510.912 315.221 511.099 314.624 511.472C314.036 511.836 313.564 512.326 313.21 512.942C312.864 513.558 312.692 514.244 312.692 515C312.692 515.756 312.869 516.442 313.224 517.058C313.578 517.674 314.05 518.164 314.638 518.528C315.235 518.892 315.888 519.074 316.598 519.074ZM338.189 511.416L331.147 518.584H338.189V522H326.233V518.584L333.275 511.416H326.233V508H338.189V511.416ZM340.985 508H344.401V522H340.985V508ZM342.721 506.194C342.217 506.194 341.792 506.031 341.447 505.704C341.101 505.368 340.929 504.948 340.929 504.444C340.929 503.949 341.101 503.534 341.447 503.198C341.792 502.862 342.212 502.694 342.707 502.694C343.201 502.694 343.617 502.862 343.953 503.198C344.298 503.534 344.471 503.949 344.471 504.444C344.471 504.948 344.303 505.368 343.967 505.704C343.631 506.031 343.215 506.194 342.721 506.194ZM360.481 513.152V522H357.065V514.048C357.065 513.497 356.929 512.998 356.659 512.55C356.388 512.093 356.024 511.733 355.567 511.472C355.119 511.201 354.619 511.066 354.069 511.066C353.518 511.066 353.014 511.201 352.557 511.472C352.109 511.733 351.749 512.093 351.479 512.55C351.217 512.998 351.087 513.497 351.087 514.048V522H347.671L347.657 508H351.073L351.087 509.246C351.563 508.742 352.132 508.345 352.795 508.056C353.457 507.757 354.171 507.608 354.937 507.608C355.954 507.608 356.883 507.86 357.723 508.364C358.563 508.859 359.23 509.526 359.725 510.366C360.229 511.197 360.481 512.125 360.481 513.152ZM373.384 508H376.8V522.266C376.8 523.274 376.595 524.189 376.184 525.01C375.774 525.841 375.214 526.55 374.504 527.138C373.795 527.735 372.983 528.193 372.068 528.51C371.154 528.837 370.192 529 369.184 529C368.204 529 367.262 528.799 366.356 528.398C365.451 527.997 364.648 527.446 363.948 526.746C363.258 526.055 362.73 525.267 362.366 524.38L365.488 522.966C365.675 523.479 365.955 523.927 366.328 524.31C366.711 524.702 367.15 525.005 367.644 525.22C368.139 525.444 368.652 525.556 369.184 525.556C369.726 525.556 370.244 525.481 370.738 525.332C371.242 525.183 371.695 524.963 372.096 524.674C372.498 524.394 372.81 524.049 373.034 523.638C373.268 523.237 373.384 522.779 373.384 522.266V520.292C372.946 520.908 372.395 521.407 371.732 521.79C371.07 522.173 370.304 522.364 369.436 522.364C368.428 522.364 367.486 522.173 366.608 521.79C365.731 521.407 364.956 520.88 364.284 520.208C363.622 519.527 363.099 518.743 362.716 517.856C362.343 516.969 362.156 516.017 362.156 515C362.156 513.983 362.343 513.031 362.716 512.144C363.099 511.257 363.622 510.478 364.284 509.806C364.956 509.125 365.731 508.593 366.608 508.21C367.486 507.827 368.428 507.636 369.436 507.636C370.304 507.636 371.07 507.827 371.732 508.21C372.395 508.583 372.946 509.078 373.384 509.694V508ZM369.478 519.074C370.197 519.074 370.832 518.892 371.382 518.528C371.942 518.155 372.381 517.66 372.698 517.044C373.016 516.419 373.174 515.737 373.174 515C373.174 514.253 373.011 513.572 372.684 512.956C372.367 512.34 371.928 511.845 371.368 511.472C370.818 511.099 370.188 510.912 369.478 510.912C368.778 510.912 368.139 511.099 367.56 511.472C366.982 511.836 366.52 512.326 366.174 512.942C365.829 513.558 365.656 514.244 365.656 515C365.656 515.756 365.829 516.442 366.174 517.058C366.52 517.674 366.982 518.164 367.56 518.528C368.139 518.892 368.778 519.074 369.478 519.074ZM379.916 516.12V502.4H382.8V516.12H379.916ZM381.372 522.364C380.878 522.364 380.458 522.191 380.112 521.846C379.776 521.501 379.608 521.081 379.608 520.586C379.608 520.101 379.776 519.69 380.112 519.354C380.458 519.018 380.878 518.85 381.372 518.85C381.848 518.85 382.254 519.018 382.59 519.354C382.926 519.69 383.094 520.101 383.094 520.586C383.094 521.081 382.926 521.501 382.59 521.846C382.254 522.191 381.848 522.364 381.372 522.364Z" fill="#18303F" fill-opacity="0.6"/>
<path d="M143.275 230V217.925H121V207.537L140.913 177.5H153.625V207.575H157.713V217.925H153.625V230H143.275ZM132.963 207.537L143.275 207.575L143.238 191.487L132.963 207.537ZM167.451 230.975C166.001 230.975 164.763 230.475 163.738 229.475C162.738 228.45 162.238 227.2 162.238 225.725C162.238 224.3 162.738 223.075 163.738 222.05C164.763 221.025 166.001 220.512 167.451 220.512C168.901 220.512 170.138 221.025 171.163 222.05C172.188 223.075 172.701 224.3 172.701 225.725C172.701 227.2 172.188 228.45 171.163 229.475C170.138 230.475 168.901 230.975 167.451 230.975ZM193.57 230.975C190.42 230.975 187.545 230.213 184.945 228.687C182.345 227.162 180.27 225.112 178.72 222.537C177.195 219.937 176.433 217.062 176.433 213.912H186.783C186.783 215.112 187.083 216.225 187.683 217.25C188.283 218.275 189.095 219.1 190.12 219.725C191.145 220.325 192.295 220.625 193.57 220.625C194.795 220.625 195.92 220.325 196.945 219.725C197.995 219.1 198.833 218.275 199.458 217.25C200.083 216.225 200.395 215.112 200.395 213.912C200.395 212.262 199.945 210.887 199.045 209.787C198.145 208.687 196.883 207.862 195.258 207.312C193.633 206.762 191.733 206.487 189.558 206.487V198.575C192.458 198.575 194.745 198.062 196.42 197.037C198.095 195.987 198.933 194.437 198.933 192.387C198.933 191.362 198.683 190.437 198.183 189.612C197.683 188.762 197.008 188.087 196.158 187.587C195.308 187.062 194.37 186.8 193.345 186.8C192.32 186.8 191.308 187.062 190.308 187.587C189.308 188.087 188.483 188.762 187.833 189.612C187.208 190.437 186.895 191.362 186.895 192.387H176.545C176.545 190.187 176.995 188.125 177.895 186.2C178.795 184.275 180.02 182.587 181.57 181.137C183.145 179.662 184.933 178.512 186.933 177.687C188.933 176.862 191.033 176.45 193.233 176.45C196.108 176.45 198.758 177.162 201.183 178.587C203.633 180.012 205.595 181.937 207.07 184.362C208.545 186.762 209.283 189.437 209.283 192.387C209.283 194.262 208.858 196.15 208.008 198.05C207.183 199.95 205.97 201.312 204.37 202.137C205.77 202.662 206.933 203.562 207.858 204.837C208.808 206.087 209.52 207.525 209.995 209.15C210.495 210.75 210.745 212.337 210.745 213.912C210.745 217.037 209.97 219.9 208.42 222.5C206.87 225.075 204.795 227.137 202.195 228.687C199.595 230.213 196.72 230.975 193.57 230.975Z" fill="#2F3742"/>
<path d="M262.31 185.547C263.001 183.484 266.002 183.484 266.69 185.547L270.188 196.016C270.338 196.465 270.631 196.856 271.024 197.134C271.417 197.412 271.89 197.561 272.375 197.562H283.693C285.924 197.562 286.85 200.339 285.047 201.616L275.892 208.084C275.498 208.362 275.206 208.754 275.055 209.204C274.905 209.654 274.905 210.139 275.056 210.588L278.551 221.057C279.242 223.122 276.813 224.838 275.01 223.561L265.854 217.093C265.461 216.814 264.987 216.665 264.5 216.665C264.014 216.665 263.54 216.814 263.146 217.093L253.991 223.561C252.188 224.838 249.758 223.12 250.449 221.057L253.945 210.588C254.095 210.139 254.095 209.654 253.945 209.204C253.795 208.754 253.502 208.362 253.109 208.084L243.953 201.616C242.148 200.339 243.078 197.562 245.307 197.562H256.623C257.109 197.562 257.582 197.412 257.976 197.135C258.369 196.857 258.662 196.465 258.813 196.016L262.31 185.547Z" fill="#5233FF" stroke="#5233FF" stroke-width="2.08" stroke-linecap="round" stroke-linejoin="round"/>
<path d="M316.31 185.547C317.001 183.484 320.002 183.484 320.69 185.547L324.188 196.016C324.338 196.465 324.631 196.856 325.024 197.134C325.417 197.412 325.89 197.561 326.375 197.562H337.693C339.924 197.562 340.85 200.339 339.047 201.616L329.892 208.084C329.498 208.362 329.206 208.754 329.055 209.204C328.905 209.654 328.905 210.139 329.056 210.588L332.551 221.057C333.242 223.122 330.813 224.838 329.01 223.561L319.854 217.093C319.461 216.814 318.987 216.665 318.5 216.665C318.014 216.665 317.54 216.814 317.146 217.093L307.991 223.561C306.188 224.838 303.758 223.12 304.449 221.057L307.945 210.588C308.095 210.139 308.095 209.654 307.945 209.204C307.795 208.754 307.502 208.362 307.109 208.084L297.953 201.616C296.148 200.339 297.078 197.562 299.307 197.562H310.623C311.109 197.562 311.582 197.412 311.976 197.135C312.369 196.857 312.662 196.465 312.813 196.016L316.31 185.547Z" fill="#5233FF" stroke="#5233FF" stroke-width="2.08" stroke-linecap="round" stroke-linejoin="round"/>
<path d="M370.31 185.547C371.001 183.484 374.002 183.484 374.69 185.547L378.188 196.016C378.338 196.465 378.631 196.856 379.024 197.134C379.417 197.412 379.89 197.561 380.375 197.562H391.693C393.924 197.562 394.85 200.339 393.047 201.616L383.892 208.084C383.498 208.362 383.206 208.754 383.055 209.204C382.905 209.654 382.905 210.139 383.056 210.588L386.551 221.057C387.242 223.122 384.813 224.838 383.01 223.561L373.854 217.093C373.461 216.814 372.987 216.665 372.5 216.665C372.014 216.665 371.54 216.814 371.146 217.093L361.991 223.561C360.188 224.838 357.758 223.12 358.449 221.057L361.945 210.588C362.095 210.139 362.095 209.654 361.945 209.204C361.795 208.754 361.502 208.362 361.109 208.084L351.953 201.616C350.148 200.339 351.078 197.562 353.307 197.562H364.623C365.109 197.562 365.582 197.412 365.976 197.135C366.369 196.857 366.662 196.465 366.813 196.016L370.31 185.547Z" fill="#5233FF" stroke="#5233FF" stroke-width="2.08" stroke-linecap="round" stroke-linejoin="round"/>
<path d="M424.31 185.547C425.001 183.484 428.002 183.484 428.69 185.547L432.188 196.016C432.338 196.465 432.631 196.856 433.024 197.134C433.417 197.412 433.89 197.561 434.375 197.562H445.693C447.924 197.562 448.85 200.339 447.047 201.616L437.892 208.084C437.498 208.362 437.206 208.754 437.055 209.204C436.905 209.654 436.905 210.139 437.056 210.588L440.551 221.057C441.242 223.122 438.813 224.838 437.01 223.561L427.854 217.093C427.461 216.814 426.987 216.665 426.5 216.665C426.014 216.665 425.54 216.814 425.146 217.093L415.991 223.561C414.188 224.838 411.758 223.12 412.449 221.057L415.945 210.588C416.095 210.139 416.095 209.654 415.945 209.204C415.795 208.754 415.502 208.362 415.109 208.084L405.953 201.616C404.148 200.339 405.078 197.562 407.307 197.562H418.623C419.109 197.562 419.582 197.412 419.976 197.135C420.369 196.857 420.662 196.465 420.813 196.016L424.31 185.547Z" fill="#5233FF" stroke="#5233FF" stroke-width="2.08" stroke-linecap="round" stroke-linejoin="round"/>
<path d="M478.31 185.547C479.001 183.484 482.002 183.484 482.69 185.547L486.188 196.016C486.338 196.465 486.631 196.856 487.024 197.134C487.417 197.412 487.89 197.561 488.375 197.562H499.693C501.924 197.562 502.85 200.339 501.047 201.616L491.892 208.084C491.498 208.362 491.206 208.754 491.055 209.204C490.905 209.654 490.905 210.139 491.056 210.588L494.551 221.057C495.242 223.122 492.813 224.838 491.01 223.561L481.854 217.093C481.461 216.814 480.987 216.665 480.5 216.665C480.014 216.665 479.54 216.814 479.146 217.093L469.991 223.561C468.188 224.838 465.758 223.12 466.449 221.057L469.945 210.588C470.095 210.139 470.095 209.654 469.945 209.204C469.795 208.754 469.502 208.362 469.109 208.084L459.953 201.616C458.148 200.339 459.078 197.562 461.307 197.562H472.623C473.109 197.562 473.582 197.412 473.976 197.135C474.369 196.857 474.662 196.465 474.813 196.016L478.31 185.547Z" fill="#5233FF" stroke="#5233FF" stroke-width="2.08" stroke-linecap="round" stroke-linejoin="round"/>
<path d="M649.109 134.89C649.506 133.703 651.233 133.703 651.629 134.89L653.641 140.913C653.727 141.171 653.896 141.396 654.122 141.556C654.348 141.716 654.62 141.802 654.899 141.802H661.41C662.694 141.802 663.227 143.4 662.189 144.134L656.922 147.855C656.696 148.015 656.528 148.241 656.441 148.5C656.355 148.758 656.355 149.037 656.441 149.296L658.452 155.319C658.85 156.507 657.452 157.494 656.415 156.759L651.148 153.038C650.921 152.878 650.649 152.792 650.369 152.792C650.089 152.792 649.816 152.878 649.59 153.038L644.323 156.759C643.286 157.494 641.888 156.505 642.285 155.319L644.296 149.296C644.383 149.037 644.383 148.758 644.297 148.5C644.21 148.241 644.042 148.015 643.815 147.855L638.548 144.134C637.51 143.4 638.045 141.802 639.327 141.802H645.837C646.117 141.802 646.389 141.716 646.615 141.556C646.842 141.397 647.01 141.171 647.097 140.913L649.109 134.89Z" fill="#5233FF" stroke="#5233FF" stroke-width="1.1966" stroke-linecap="round" stroke-linejoin="round"/>
<path d="M680.175 134.89C680.572 133.703 682.298 133.703 682.694 134.89L684.707 140.913C684.793 141.171 684.962 141.396 685.188 141.556C685.414 141.716 685.686 141.802 685.965 141.802H692.476C693.76 141.802 694.292 143.4 693.255 144.134L687.988 147.855C687.762 148.015 687.593 148.241 687.507 148.5C687.42 148.758 687.421 149.037 687.507 149.296L689.518 155.319C689.915 156.507 688.518 157.494 687.481 156.759L682.213 153.038C681.987 152.878 681.714 152.792 681.435 152.792C681.155 152.792 680.882 152.878 680.656 153.038L675.389 156.759C674.351 157.494 672.954 156.505 673.351 155.319L675.362 149.296C675.449 149.037 675.449 148.758 675.362 148.5C675.276 148.241 675.107 148.015 674.881 147.855L669.614 144.134C668.576 143.4 669.111 141.802 670.393 141.802H676.903C677.182 141.802 677.455 141.716 677.681 141.556C677.907 141.397 678.076 141.171 678.162 140.913L680.175 134.89Z" fill="#5233FF" stroke="#5233FF" stroke-width="1.1966" stroke-linecap="round" stroke-linejoin="round"/>
<path d="M711.24 134.89C711.638 133.703 713.364 133.703 713.76 134.89L715.772 140.913C715.859 141.171 716.027 141.396 716.253 141.556C716.479 141.716 716.751 141.802 717.031 141.802H723.542C724.825 141.802 725.358 143.4 724.32 144.134L719.053 147.855C718.827 148.015 718.659 148.241 718.572 148.5C718.486 148.758 718.486 149.037 718.573 149.296L720.583 155.319C720.981 156.507 719.583 157.494 718.546 156.759L713.279 153.038C713.053 152.878 712.78 152.792 712.5 152.792C712.22 152.792 711.948 152.878 711.721 153.038L706.454 156.759C705.417 157.494 704.019 156.505 704.417 155.319L706.428 149.296C706.514 149.037 706.514 148.758 706.428 148.5C706.341 148.241 706.173 148.015 705.947 147.855L700.68 144.134C699.641 143.4 700.176 141.802 701.459 141.802H707.968C708.248 141.802 708.52 141.716 708.747 141.556C708.973 141.397 709.141 141.171 709.228 140.913L711.24 134.89Z" fill="#5233FF" stroke="#5233FF" stroke-width="1.1966" stroke-linecap="round" stroke-linejoin="round"/>
<path d="M742.306 134.89C742.703 133.703 744.429 133.703 744.826 134.89L746.838 140.913C746.924 141.171 747.093 141.396 747.319 141.556C747.545 141.716 747.817 141.802 748.096 141.802H754.607C755.891 141.802 756.423 143.4 755.386 144.134L750.119 147.855C749.893 148.015 749.724 148.241 749.638 148.5C749.552 148.758 749.552 149.037 749.638 149.296L751.649 155.319C752.047 156.507 750.649 157.494 749.612 156.759L744.345 153.038C744.118 152.878 743.846 152.792 743.566 152.792C743.286 152.792 743.013 152.878 742.787 153.038L737.52 156.759C736.483 157.494 735.085 156.505 735.482 155.319L737.493 149.296C737.58 149.037 737.58 148.758 737.493 148.5C737.407 148.241 737.239 148.015 737.012 147.855L731.745 144.134C730.707 143.4 731.242 141.802 732.524 141.802H739.034C739.313 141.802 739.586 141.716 739.812 141.556C740.038 141.397 740.207 141.171 740.294 140.913L742.306 134.89Z" fill="#5233FF" stroke="#5233FF" stroke-width="1.1966" stroke-linecap="round" stroke-linejoin="round"/>
<path d="M773.372 134.89C773.769 133.703 775.495 133.703 775.891 134.89L777.903 140.913C777.99 141.171 778.158 141.396 778.384 141.556C778.61 141.716 778.883 141.802 779.162 141.802H785.673C786.957 141.802 787.489 143.4 786.452 144.134L781.185 147.855C780.959 148.015 780.79 148.241 780.704 148.5C780.617 148.758 780.617 149.037 780.704 149.296L782.715 155.319C783.112 156.507 781.715 157.494 780.677 156.759L775.41 153.038C775.184 152.878 774.911 152.792 774.631 152.792C774.352 152.792 774.079 152.878 773.852 153.038L768.585 156.759C767.548 157.494 766.151 156.505 766.548 155.319L768.559 149.296C768.645 149.037 768.645 148.758 768.559 148.5C768.473 148.241 768.304 148.015 768.078 147.855L762.811 144.134C761.772 143.4 762.308 141.802 763.59 141.802H770.1C770.379 141.802 770.652 141.716 770.878 141.556C771.104 141.397 771.273 141.171 771.359 140.913L773.372 134.89Z" fill="#5233FF" stroke="#5233FF" stroke-width="1.1966" stroke-linecap="round" stroke-linejoin="round"/>
<path d="M649.109 175.89C649.506 174.703 651.233 174.703 651.629 175.89L653.641 181.913C653.727 182.171 653.896 182.396 654.122 182.556C654.348 182.716 654.62 182.802 654.899 182.802H661.41C662.694 182.802 663.227 184.4 662.189 185.134L656.922 188.855C656.696 189.015 656.528 189.241 656.441 189.5C656.355 189.758 656.355 190.037 656.441 190.296L658.452 196.319C658.85 197.507 657.452 198.494 656.415 197.759L651.148 194.038C650.921 193.878 650.649 193.792 650.369 193.792C650.089 193.792 649.816 193.878 649.59 194.038L644.323 197.759C643.286 198.494 641.888 197.505 642.285 196.319L644.296 190.296C644.383 190.037 644.383 189.758 644.297 189.5C644.21 189.241 644.042 189.015 643.815 188.855L638.548 185.134C637.51 184.4 638.045 182.802 639.327 182.802H645.837C646.117 182.802 646.389 182.716 646.615 182.556C646.842 182.397 647.01 182.171 647.097 181.913L649.109 175.89Z" fill="#5233FF" stroke="#5233FF" stroke-width="1.1966" stroke-linecap="round" stroke-linejoin="round"/>
<path d="M680.175 175.89C680.572 174.703 682.298 174.703 682.694 175.89L684.707 181.913C684.793 182.171 684.962 182.396 685.188 182.556C685.414 182.716 685.686 182.802 685.965 182.802H692.476C693.76 182.802 694.292 184.4 693.255 185.134L687.988 188.855C687.762 189.015 687.593 189.241 687.507 189.5C687.42 189.758 687.421 190.037 687.507 190.296L689.518 196.319C689.915 197.507 688.518 198.494 687.481 197.759L682.213 194.038C681.987 193.878 681.714 193.792 681.435 193.792C681.155 193.792 680.882 193.878 680.656 194.038L675.389 197.759C674.351 198.494 672.954 197.505 673.351 196.319L675.362 190.296C675.449 190.037 675.449 189.758 675.362 189.5C675.276 189.241 675.107 189.015 674.881 188.855L669.614 185.134C668.576 184.4 669.111 182.802 670.393 182.802H676.903C677.182 182.802 677.455 182.716 677.681 182.556C677.907 182.397 678.076 182.171 678.162 181.913L680.175 175.89Z" fill="#5233FF" stroke="#5233FF" stroke-width="1.1966" stroke-linecap="round" stroke-linejoin="round"/>
<path d="M711.24 175.89C711.638 174.703 713.364 174.703 713.76 175.89L715.772 181.913C715.859 182.171 716.027 182.396 716.253 182.556C716.479 182.716 716.751 182.802 717.031 182.802H723.542C724.825 182.802 725.358 184.4 724.32 185.134L719.053 188.855C718.827 189.015 718.659 189.241 718.572 189.5C718.486 189.758 718.486 190.037 718.573 190.296L720.583 196.319C720.981 197.507 719.583 198.494 718.546 197.759L713.279 194.038C713.053 193.878 712.78 193.792 712.5 193.792C712.22 193.792 711.948 193.878 711.721 194.038L706.454 197.759C705.417 198.494 704.019 197.505 704.417 196.319L706.428 190.296C706.514 190.037 706.514 189.758 706.428 189.5C706.341 189.241 706.173 189.015 705.947 188.855L700.68 185.134C699.641 184.4 700.176 182.802 701.459 182.802H707.968C708.248 182.802 708.52 182.716 708.747 182.556C708.973 182.397 709.141 182.171 709.228 181.913L711.24 175.89Z" fill="#5233FF" stroke="#5233FF" stroke-width="1.1966" stroke-linecap="round" stroke-linejoin="round"/>
<path d="M742.306 175.89C742.703 174.703 744.429 174.703 744.826 175.89L746.838 181.913C746.924 182.171 747.093 182.396 747.319 182.556C747.545 182.716 747.817 182.802 748.096 182.802H754.607C755.891 182.802 756.423 184.4 755.386 185.134L750.119 188.855C749.893 189.015 749.724 189.241 749.638 189.5C749.552 189.758 749.552 190.037 749.638 190.296L751.649 196.319C752.047 197.507 750.649 198.494 749.612 197.759L744.345 194.038C744.118 193.878 743.846 193.792 743.566 193.792C743.286 193.792 743.013 193.878 742.787 194.038L737.52 197.759C736.483 198.494 735.085 197.505 735.482 196.319L737.493 190.296C737.58 190.037 737.58 189.758 737.493 189.5C737.407 189.241 737.239 189.015 737.012 188.855L731.745 185.134C730.707 184.4 731.242 182.802 732.524 182.802H739.034C739.313 182.802 739.586 182.716 739.812 182.556C740.038 182.397 740.207 182.171 740.294 181.913L742.306 175.89Z" fill="#5233FF" stroke="#5233FF" stroke-width="1.1966" stroke-linecap="round" stroke-linejoin="round"/>
<path d="M773.109 175.89C773.506 174.703 775.233 174.703 775.629 175.89L777.641 181.913C777.727 182.171 777.896 182.396 778.122 182.556C778.348 182.716 778.62 182.802 778.899 182.802H785.41C786.694 182.802 787.227 184.4 786.189 185.134L780.922 188.855C780.696 189.015 780.528 189.241 780.441 189.5C780.355 189.758 780.355 190.037 780.441 190.296L782.452 196.319C782.85 197.507 781.452 198.494 780.415 197.759L775.148 194.038C774.921 193.878 774.649 193.792 774.369 193.792C774.089 193.792 773.816 193.878 773.59 194.038L768.323 197.759C767.286 198.494 765.888 197.505 766.285 196.319L768.296 190.296C768.383 190.037 768.383 189.758 768.297 189.5C768.21 189.241 768.042 189.015 767.815 188.855L762.548 185.134C761.51 184.4 762.045 182.802 763.327 182.802H769.837C770.117 182.802 770.389 182.716 770.615 182.556C770.842 182.397 771.01 182.171 771.097 181.913L773.109 175.89Z" fill="#CEDDE9" stroke="#CEDDE9" stroke-width="1.1966" stroke-linecap="round" stroke-linejoin="round"/>
<path d="M649.109 221.89C649.506 220.703 651.233 220.703 651.629 221.89L653.641 227.913C653.727 228.171 653.896 228.396 654.122 228.556C654.348 228.716 654.62 228.802 654.899 228.802H661.41C662.694 228.802 663.227 230.4 662.189 231.134L656.922 234.855C656.696 235.015 656.528 235.241 656.441 235.5C656.355 235.758 656.355 236.037 656.441 236.296L658.452 242.319C658.85 243.507 657.452 244.494 656.415 243.759L651.148 240.038C650.921 239.878 650.649 239.792 650.369 239.792C650.089 239.792 649.816 239.878 649.59 240.038L644.323 243.759C643.286 244.494 641.888 243.505 642.285 242.319L644.296 236.296C644.383 236.037 644.383 235.758 644.297 235.5C644.21 235.241 644.042 235.015 643.815 234.855L638.548 231.134C637.51 230.4 638.045 228.802 639.327 228.802H645.837C646.117 228.802 646.389 228.716 646.615 228.556C646.842 228.397 647.01 228.171 647.097 227.913L649.109 221.89Z" fill="#5233FF" stroke="#5233FF" stroke-width="1.1966" stroke-linecap="round" stroke-linejoin="round"/>
<path d="M680.175 221.89C680.572 220.703 682.298 220.703 682.694 221.89L684.707 227.913C684.793 228.171 684.962 228.396 685.188 228.556C685.414 228.716 685.686 228.802 685.965 228.802H692.476C693.76 228.802 694.292 230.4 693.255 231.134L687.988 234.855C687.762 235.015 687.593 235.241 687.507 235.5C687.42 235.758 687.421 236.037 687.507 236.296L689.518 242.319C689.915 243.507 688.518 244.494 687.481 243.759L682.213 240.038C681.987 239.878 681.714 239.792 681.435 239.792C681.155 239.792 680.882 239.878 680.656 240.038L675.389 243.759C674.351 244.494 672.954 243.505 673.351 242.319L675.362 236.296C675.449 236.037 675.449 235.758 675.362 235.5C675.276 235.241 675.107 235.015 674.881 234.855L669.614 231.134C668.576 230.4 669.111 228.802 670.393 228.802H676.903C677.182 228.802 677.455 228.716 677.681 228.556C677.907 228.397 678.076 228.171 678.162 227.913L680.175 221.89Z" fill="#5233FF" stroke="#5233FF" stroke-width="1.1966" stroke-linecap="round" stroke-linejoin="round"/>
<path d="M711.24 221.89C711.638 220.703 713.364 220.703 713.76 221.89L715.772 227.913C715.859 228.171 716.027 228.396 716.253 228.556C716.479 228.716 716.751 228.802 717.031 228.802H723.542C724.825 228.802 725.358 230.4 724.32 231.134L719.053 234.855C718.827 235.015 718.659 235.241 718.572 235.5C718.486 235.758 718.486 236.037 718.573 236.296L720.583 242.319C720.981 243.507 719.583 244.494 718.546 243.759L713.279 240.038C713.053 239.878 712.78 239.792 712.5 239.792C712.22 239.792 711.948 239.878 711.721 240.038L706.454 243.759C705.417 244.494 704.019 243.505 704.417 242.319L706.428 236.296C706.514 236.037 706.514 235.758 706.428 235.5C706.341 235.241 706.173 235.015 705.947 234.855L700.68 231.134C699.641 230.4 700.176 228.802 701.459 228.802H707.968C708.248 228.802 708.52 228.716 708.747 228.556C708.973 228.397 709.141 228.171 709.228 227.913L711.24 221.89Z" fill="#5233FF" stroke="#5233FF" stroke-width="1.1966" stroke-linecap="round" stroke-linejoin="round"/>
<path d="M742.306 221.89C742.703 220.703 744.429 220.703 744.826 221.89L746.838 227.913C746.924 228.171 747.093 228.396 747.319 228.556C747.545 228.716 747.817 228.802 748.096 228.802H754.607C755.891 228.802 756.423 230.4 755.386 231.134L750.119 234.855C749.893 235.015 749.724 235.241 749.638 235.5C749.552 235.758 749.552 236.037 749.638 236.296L751.649 242.319C752.047 243.507 750.649 244.494 749.612 243.759L744.345 240.038C744.118 239.878 743.846 239.792 743.566 239.792C743.286 239.792 743.013 239.878 742.787 240.038L737.52 243.759C736.483 244.494 735.085 243.505 735.482 242.319L737.493 236.296C737.58 236.037 737.58 235.758 737.493 235.5C737.407 235.241 737.239 235.015 737.012 234.855L731.745 231.134C730.707 230.4 731.242 228.802 732.524 228.802H739.034C739.313 228.802 739.586 228.716 739.812 228.556C740.038 228.397 740.207 228.171 740.294 227.913L742.306 221.89Z" fill="#CEDDE9" stroke="#CEDDE9" stroke-width="1.1966" stroke-linecap="round" stroke-linejoin="round"/>
<path d="M773.372 221.89C773.769 220.703 775.495 220.703 775.891 221.89L777.903 227.913C777.99 228.171 778.158 228.396 778.384 228.556C778.61 228.716 778.883 228.802 779.162 228.802H785.673C786.957 228.802 787.489 230.4 786.452 231.134L781.185 234.855C780.959 235.015 780.79 235.241 780.704 235.5C780.617 235.758 780.617 236.037 780.704 236.296L782.715 242.319C783.112 243.507 781.715 244.494 780.677 243.759L775.41 240.038C775.184 239.878 774.911 239.792 774.631 239.792C774.352 239.792 774.079 239.878 773.852 240.038L768.585 243.759C767.548 244.494 766.151 243.505 766.548 242.319L768.559 236.296C768.645 236.037 768.645 235.758 768.559 235.5C768.473 235.241 768.304 235.015 768.078 234.855L762.811 231.134C761.772 230.4 762.308 228.802 763.59 228.802H770.1C770.379 228.802 770.652 228.716 770.878 228.556C771.104 228.397 771.273 228.171 771.359 227.913L773.372 221.89Z" fill="#CEDDE9" stroke="#CEDDE9" stroke-width="1.1966" stroke-linecap="round" stroke-linejoin="round"/>
<path d="M649.109 267.89C649.506 266.703 651.233 266.703 651.629 267.89L653.641 273.913C653.727 274.171 653.896 274.396 654.122 274.556C654.348 274.716 654.62 274.802 654.899 274.802H661.41C662.694 274.802 663.227 276.4 662.189 277.134L656.922 280.855C656.696 281.015 656.528 281.241 656.441 281.5C656.355 281.758 656.355 282.037 656.441 282.296L658.452 288.319C658.85 289.507 657.452 290.494 656.415 289.759L651.148 286.038C650.921 285.878 650.649 285.792 650.369 285.792C650.089 285.792 649.816 285.878 649.59 286.038L644.323 289.759C643.286 290.494 641.888 289.505 642.285 288.319L644.296 282.296C644.383 282.037 644.383 281.758 644.297 281.5C644.21 281.241 644.042 281.015 643.815 280.855L638.548 277.134C637.51 276.4 638.045 274.802 639.327 274.802H645.837C646.117 274.802 646.389 274.716 646.615 274.556C646.842 274.397 647.01 274.171 647.097 273.913L649.109 267.89Z" fill="#5233FF" stroke="#5233FF" stroke-width="1.1966" stroke-linecap="round" stroke-linejoin="round"/>
<path d="M680.175 267.89C680.572 266.703 682.298 266.703 682.694 267.89L684.707 273.913C684.793 274.171 684.962 274.396 685.188 274.556C685.414 274.716 685.686 274.802 685.965 274.802H692.476C693.76 274.802 694.292 276.4 693.255 277.134L687.988 280.855C687.762 281.015 687.593 281.241 687.507 281.5C687.42 281.758 687.421 282.037 687.507 282.296L689.518 288.319C689.915 289.507 688.518 290.494 687.481 289.759L682.213 286.038C681.987 285.878 681.714 285.792 681.435 285.792C681.155 285.792 680.882 285.878 680.656 286.038L675.389 289.759C674.351 290.494 672.954 289.505 673.351 288.319L675.362 282.296C675.449 282.037 675.449 281.758 675.362 281.5C675.276 281.241 675.107 281.015 674.881 280.855L669.614 277.134C668.576 276.4 669.111 274.802 670.393 274.802H676.903C677.182 274.802 677.455 274.716 677.681 274.556C677.907 274.397 678.076 274.171 678.162 273.913L680.175 267.89Z" fill="#5233FF" stroke="#5233FF" stroke-width="1.1966" stroke-linecap="round" stroke-linejoin="round"/>
<path d="M711.24 267.89C711.638 266.703 713.364 266.703 713.76 267.89L715.772 273.913C715.859 274.171 716.027 274.396 716.253 274.556C716.479 274.716 716.751 274.802 717.031 274.802H723.542C724.825 274.802 725.358 276.4 724.32 277.134L719.053 280.855C718.827 281.015 718.659 281.241 718.572 281.5C718.486 281.758 718.486 282.037 718.573 282.296L720.583 288.319C720.981 289.507 719.583 290.494 718.546 289.759L713.279 286.038C713.053 285.878 712.78 285.792 712.5 285.792C712.22 285.792 711.948 285.878 711.721 286.038L706.454 289.759C705.417 290.494 704.019 289.505 704.417 288.319L706.428 282.296C706.514 282.037 706.514 281.758 706.428 281.5C706.341 281.241 706.173 281.015 705.947 280.855L700.68 277.134C699.641 276.4 700.176 274.802 701.459 274.802H707.968C708.248 274.802 708.52 274.716 708.747 274.556C708.973 274.397 709.141 274.171 709.228 273.913L711.24 267.89Z" fill="#CEDDE9" stroke="#CEDDE9" stroke-width="1.1966" stroke-linecap="round" stroke-linejoin="round"/>
<path d="M742.306 267.89C742.703 266.703 744.429 266.703 744.826 267.89L746.838 273.913C746.924 274.171 747.093 274.396 747.319 274.556C747.545 274.716 747.817 274.802 748.096 274.802H754.607C755.891 274.802 756.423 276.4 755.386 277.134L750.119 280.855C749.893 281.015 749.724 281.241 749.638 281.5C749.552 281.758 749.552 282.037 749.638 282.296L751.649 288.319C752.047 289.507 750.649 290.494 749.612 289.759L744.345 286.038C744.118 285.878 743.846 285.792 743.566 285.792C743.286 285.792 743.013 285.878 742.787 286.038L737.52 289.759C736.483 290.494 735.085 289.505 735.482 288.319L737.493 282.296C737.58 282.037 737.58 281.758 737.493 281.5C737.407 281.241 737.239 281.015 737.012 280.855L731.745 277.134C730.707 276.4 731.242 274.802 732.524 274.802H739.034C739.313 274.802 739.586 274.716 739.812 274.556C740.038 274.397 740.207 274.171 740.294 273.913L742.306 267.89Z" fill="#CEDDE9" stroke="#CEDDE9" stroke-width="1.1966" stroke-linecap="round" stroke-linejoin="round"/>
<path d="M773.372 267.89C773.769 266.703 775.495 266.703 775.891 267.89L777.903 273.913C777.99 274.171 778.158 274.396 778.384 274.556C778.61 274.716 778.883 274.802 779.162 274.802H785.673C786.957 274.802 787.489 276.4 786.452 277.134L781.185 280.855C780.959 281.015 780.79 281.241 780.704 281.5C780.617 281.758 780.617 282.037 780.704 282.296L782.715 288.319C783.112 289.507 781.715 290.494 780.677 289.759L775.41 286.038C775.184 285.878 774.911 285.792 774.631 285.792C774.352 285.792 774.079 285.878 773.852 286.038L768.585 289.759C767.548 290.494 766.151 289.505 766.548 288.319L768.559 282.296C768.645 282.037 768.645 281.758 768.559 281.5C768.473 281.241 768.304 281.015 768.078 280.855L762.811 277.134C761.772 276.4 762.308 274.802 763.59 274.802H770.1C770.379 274.802 770.652 274.716 770.878 274.556C771.104 274.397 771.273 274.171 771.359 273.913L773.372 267.89Z" fill="#CEDDE9" stroke="#CEDDE9" stroke-width="1.1966" stroke-linecap="round" stroke-linejoin="round"/>
<path d="M649.109 313.89C649.506 312.703 651.233 312.703 651.629 313.89L653.641 319.913C653.727 320.171 653.896 320.396 654.122 320.556C654.348 320.716 654.62 320.802 654.899 320.802H661.41C662.694 320.802 663.227 322.4 662.189 323.134L656.922 326.855C656.696 327.015 656.528 327.241 656.441 327.5C656.355 327.758 656.355 328.037 656.441 328.296L658.452 334.319C658.85 335.507 657.452 336.494 656.415 335.759L651.148 332.038C650.921 331.878 650.649 331.792 650.369 331.792C650.089 331.792 649.816 331.878 649.59 332.038L644.323 335.759C643.286 336.494 641.888 335.505 642.285 334.319L644.296 328.296C644.383 328.037 644.383 327.758 644.297 327.5C644.21 327.241 644.042 327.015 643.815 326.855L638.548 323.134C637.51 322.4 638.045 320.802 639.327 320.802H645.837C646.117 320.802 646.389 320.716 646.615 320.556C646.842 320.397 647.01 320.171 647.097 319.913L649.109 313.89Z" fill="#5233FF" stroke="#5233FF" stroke-width="1.1966" stroke-linecap="round" stroke-linejoin="round"/>
<path d="M680.175 313.89C680.572 312.703 682.298 312.703 682.694 313.89L684.707 319.913C684.793 320.171 684.962 320.396 685.188 320.556C685.414 320.716 685.686 320.802 685.965 320.802H692.476C693.76 320.802 694.292 322.4 693.255 323.134L687.988 326.855C687.762 327.015 687.593 327.241 687.507 327.5C687.42 327.758 687.421 328.037 687.507 328.296L689.518 334.319C689.915 335.507 688.518 336.494 687.481 335.759L682.213 332.038C681.987 331.878 681.714 331.792 681.435 331.792C681.155 331.792 680.882 331.878 680.656 332.038L675.389 335.759C674.351 336.494 672.954 335.505 673.351 334.319L675.362 328.296C675.449 328.037 675.449 327.758 675.362 327.5C675.276 327.241 675.107 327.015 674.881 326.855L669.614 323.134C668.576 322.4 669.111 320.802 670.393 320.802H676.903C677.182 320.802 677.455 320.716 677.681 320.556C677.907 320.397 678.076 320.171 678.162 319.913L680.175 313.89Z" fill="#CEDDE9" stroke="#CEDDE9" stroke-width="1.1966" stroke-linecap="round" stroke-linejoin="round"/>
<path d="M711.24 313.89C711.638 312.703 713.364 312.703 713.76 313.89L715.772 319.913C715.859 320.171 716.027 320.396 716.253 320.556C716.479 320.716 716.751 320.802 717.031 320.802H723.542C724.825 320.802 725.358 322.4 724.32 323.134L719.053 326.855C718.827 327.015 718.659 327.241 718.572 327.5C718.486 327.758 718.486 328.037 718.573 328.296L720.583 334.319C720.981 335.507 719.583 336.494 718.546 335.759L713.279 332.038C713.053 331.878 712.78 331.792 712.5 331.792C712.22 331.792 711.948 331.878 711.721 332.038L706.454 335.759C705.417 336.494 704.019 335.505 704.417 334.319L706.428 328.296C706.514 328.037 706.514 327.758 706.428 327.5C706.341 327.241 706.173 327.015 705.947 326.855L700.68 323.134C699.641 322.4 700.176 320.802 701.459 320.802H707.968C708.248 320.802 708.52 320.716 708.747 320.556C708.973 320.397 709.141 320.171 709.228 319.913L711.24 313.89Z" fill="#CEDDE9" stroke="#CEDDE9" stroke-width="1.1966" stroke-linecap="round" stroke-linejoin="round"/>
<path d="M742.306 313.89C742.703 312.703 744.429 312.703 744.826 313.89L746.838 319.913C746.924 320.171 747.093 320.396 747.319 320.556C747.545 320.716 747.817 320.802 748.096 320.802H754.607C755.891 320.802 756.423 322.4 755.386 323.134L750.119 326.855C749.893 327.015 749.724 327.241 749.638 327.5C749.552 327.758 749.552 328.037 749.638 328.296L751.649 334.319C752.047 335.507 750.649 336.494 749.612 335.759L744.345 332.038C744.118 331.878 743.846 331.792 743.566 331.792C743.286 331.792 743.013 331.878 742.787 332.038L737.52 335.759C736.483 336.494 735.085 335.505 735.482 334.319L737.493 328.296C737.58 328.037 737.58 327.758 737.493 327.5C737.407 327.241 737.239 327.015 737.012 326.855L731.745 323.134C730.707 322.4 731.242 320.802 732.524 320.802H739.034C739.313 320.802 739.586 320.716 739.812 320.556C740.038 320.397 740.207 320.171 740.294 319.913L742.306 313.89Z" fill="#CEDDE9" stroke="#CEDDE9" stroke-width="1.1966" stroke-linecap="round" stroke-linejoin="round"/>
<path d="M773.372 313.89C773.769 312.703 775.495 312.703 775.891 313.89L777.903 319.913C777.99 320.171 778.158 320.396 778.384 320.556C778.61 320.716 778.883 320.802 779.162 320.802H785.673C786.957 320.802 787.489 322.4 786.452 323.134L781.185 326.855C780.959 327.015 780.79 327.241 780.704 327.5C780.617 327.758 780.617 328.037 780.704 328.296L782.715 334.319C783.112 335.507 781.715 336.494 780.677 335.759L775.41 332.038C775.184 331.878 774.911 331.792 774.631 331.792C774.352 331.792 774.079 331.878 773.852 332.038L768.585 335.759C767.548 336.494 766.151 335.505 766.548 334.319L768.559 328.296C768.645 328.037 768.645 327.758 768.559 327.5C768.473 327.241 768.304 327.015 768.078 326.855L762.811 323.134C761.772 322.4 762.308 320.802 763.59 320.802H770.1C770.379 320.802 770.652 320.716 770.878 320.556C771.104 320.397 771.273 320.171 771.359 319.913L773.372 313.89Z" fill="#CEDDE9" stroke="#CEDDE9" stroke-width="1.1966" stroke-linecap="round" stroke-linejoin="round"/>
<path d="M817.875 154.325C816.783 154.325 815.792 154.075 814.9 153.575C814.017 153.075 813.313 152.404 812.788 151.562C812.263 150.721 812 149.783 812 148.75C812 147.992 812.158 147.271 812.475 146.587C812.792 145.904 813.225 145.308 813.775 144.8C813.35 144.342 813.008 143.825 812.75 143.25C812.492 142.667 812.363 142.05 812.363 141.4C812.363 140.433 812.613 139.554 813.113 138.762C813.613 137.971 814.275 137.342 815.1 136.875C815.933 136.408 816.858 136.175 817.875 136.175C818.883 136.175 819.804 136.408 820.638 136.875C821.471 137.342 822.138 137.971 822.638 138.762C823.138 139.554 823.388 140.433 823.388 141.4C823.388 142.05 823.258 142.667 823 143.25C822.75 143.825 822.404 144.342 821.963 144.8C822.538 145.308 822.979 145.904 823.288 146.587C823.604 147.271 823.763 147.992 823.763 148.75C823.763 149.775 823.496 150.712 822.963 151.562C822.438 152.404 821.729 153.075 820.838 153.575C819.954 154.075 818.967 154.325 817.875 154.325ZM817.875 150.875C818.292 150.875 818.671 150.779 819.013 150.587C819.354 150.396 819.625 150.142 819.825 149.825C820.025 149.5 820.125 149.142 820.125 148.75C820.125 148.35 820.025 147.992 819.825 147.675C819.625 147.35 819.354 147.092 819.013 146.9C818.671 146.708 818.292 146.612 817.875 146.612C817.458 146.612 817.079 146.708 816.738 146.9C816.396 147.092 816.121 147.35 815.913 147.675C815.713 147.992 815.613 148.35 815.613 148.75C815.613 149.142 815.713 149.5 815.913 149.825C816.121 150.142 816.396 150.396 816.738 150.587C817.079 150.779 817.458 150.875 817.875 150.875ZM817.875 143.162C818.217 143.162 818.529 143.083 818.812 142.925C819.096 142.767 819.321 142.554 819.488 142.287C819.663 142.012 819.75 141.717 819.75 141.4C819.75 141.075 819.663 140.779 819.488 140.513C819.321 140.246 819.096 140.033 818.812 139.875C818.529 139.708 818.217 139.625 817.875 139.625C817.525 139.625 817.208 139.708 816.925 139.875C816.642 140.033 816.417 140.246 816.25 140.513C816.083 140.779 816 141.075 816 141.4C816 141.717 816.083 142.012 816.25 142.287C816.417 142.554 816.642 142.767 816.925 142.925C817.208 143.083 817.525 143.162 817.875 143.162ZM825.77 154V150.925C826.27 150.575 826.878 150.125 827.595 149.575C828.311 149.017 829.057 148.404 829.832 147.737C830.607 147.062 831.328 146.379 831.995 145.687C832.67 144.996 833.215 144.342 833.632 143.725C834.057 143.108 834.27 142.579 834.27 142.137C834.27 141.679 834.157 141.258 833.932 140.875C833.707 140.492 833.407 140.187 833.032 139.962C832.657 139.737 832.24 139.625 831.782 139.625C831.324 139.625 830.903 139.737 830.52 139.962C830.145 140.187 829.84 140.492 829.607 140.875C829.382 141.258 829.27 141.679 829.27 142.137H825.82C825.82 141.012 826.09 140 826.632 139.1C827.182 138.2 827.907 137.487 828.807 136.962C829.715 136.437 830.707 136.175 831.782 136.175C832.874 136.175 833.87 136.442 834.77 136.975C835.67 137.508 836.386 138.229 836.92 139.137C837.453 140.037 837.72 141.037 837.72 142.137C837.72 142.704 837.632 143.254 837.457 143.787C837.29 144.321 837.045 144.854 836.72 145.387C836.395 145.912 835.999 146.45 835.532 147C835.074 147.542 834.553 148.108 833.97 148.7C833.395 149.283 832.774 149.9 832.107 150.55H837.77V154H825.77ZM845.734 154.325C844.684 154.325 843.726 154.071 842.859 153.562C841.992 153.054 841.301 152.371 840.784 151.512C840.276 150.646 840.021 149.687 840.021 148.637H843.471C843.471 149.037 843.571 149.408 843.771 149.75C843.971 150.092 844.242 150.367 844.584 150.575C844.926 150.775 845.309 150.875 845.734 150.875C846.142 150.875 846.517 150.775 846.859 150.575C847.209 150.367 847.488 150.092 847.696 149.75C847.905 149.408 848.009 149.037 848.009 148.637C848.009 148.087 847.859 147.629 847.559 147.262C847.259 146.896 846.838 146.621 846.296 146.437C845.755 146.254 845.121 146.162 844.396 146.162V143.525C845.363 143.525 846.126 143.354 846.684 143.012C847.242 142.662 847.521 142.146 847.521 141.462C847.521 141.121 847.438 140.812 847.271 140.537C847.105 140.254 846.88 140.029 846.596 139.862C846.313 139.687 846.001 139.6 845.659 139.6C845.317 139.6 844.98 139.687 844.646 139.862C844.313 140.029 844.038 140.254 843.821 140.537C843.613 140.812 843.509 141.121 843.509 141.462H840.059C840.059 140.729 840.209 140.042 840.509 139.4C840.809 138.758 841.217 138.196 841.734 137.712C842.259 137.221 842.855 136.837 843.521 136.562C844.188 136.287 844.888 136.15 845.621 136.15C846.58 136.15 847.463 136.387 848.271 136.862C849.088 137.337 849.742 137.979 850.234 138.787C850.726 139.587 850.971 140.479 850.971 141.462C850.971 142.087 850.83 142.717 850.546 143.35C850.271 143.983 849.867 144.437 849.334 144.712C849.801 144.887 850.188 145.187 850.496 145.612C850.813 146.029 851.051 146.508 851.209 147.05C851.376 147.583 851.459 148.112 851.459 148.637C851.459 149.679 851.201 150.633 850.684 151.5C850.167 152.358 849.476 153.046 848.609 153.562C847.742 154.071 846.784 154.325 845.734 154.325Z" fill="#5233FF"/>
<path d="M810 198V194.925C810.5 194.575 811.108 194.125 811.825 193.575C812.542 193.017 813.288 192.404 814.063 191.737C814.838 191.062 815.558 190.379 816.225 189.687C816.9 188.996 817.446 188.342 817.863 187.725C818.288 187.108 818.5 186.579 818.5 186.137C818.5 185.679 818.388 185.258 818.163 184.875C817.938 184.492 817.638 184.187 817.263 183.962C816.888 183.737 816.471 183.625 816.013 183.625C815.554 183.625 815.133 183.737 814.75 183.962C814.375 184.187 814.071 184.492 813.838 184.875C813.613 185.258 813.5 185.679 813.5 186.137H810.05C810.05 185.012 810.321 184 810.863 183.1C811.413 182.2 812.138 181.487 813.038 180.962C813.946 180.437 814.938 180.175 816.013 180.175C817.104 180.175 818.1 180.442 819 180.975C819.9 181.508 820.617 182.229 821.15 183.137C821.683 184.037 821.95 185.037 821.95 186.137C821.95 186.704 821.863 187.254 821.688 187.787C821.521 188.321 821.275 188.854 820.95 189.387C820.625 189.912 820.229 190.45 819.763 191C819.304 191.542 818.783 192.108 818.2 192.7C817.625 193.283 817.004 193.9 816.338 194.55H822V198H810ZM831.17 198V193.975H823.745V190.512L830.383 180.5H834.62V190.525H835.983V193.975H834.62V198H831.17ZM827.733 190.512L831.17 190.525L831.158 185.162L827.733 190.512ZM844.454 198.325C843.312 198.325 842.279 198.05 841.354 197.5C840.437 196.942 839.708 196.204 839.166 195.287C838.633 194.362 838.366 193.354 838.366 192.262H841.816C841.816 192.746 841.933 193.187 842.166 193.587C842.408 193.979 842.729 194.292 843.129 194.525C843.529 194.758 843.97 194.875 844.454 194.875C844.929 194.875 845.362 194.758 845.754 194.525C846.154 194.292 846.47 193.979 846.704 193.587C846.945 193.187 847.066 192.746 847.066 192.262C847.066 191.779 846.966 191.333 846.766 190.925C846.575 190.517 846.241 190.192 845.766 189.95C845.291 189.7 844.637 189.575 843.804 189.575H839.229L841.141 180.5H849.866V183.95H843.941L843.491 186.125L844.466 186.15C845.658 186.192 846.704 186.487 847.604 187.037C848.512 187.587 849.225 188.317 849.741 189.225C850.258 190.133 850.516 191.146 850.516 192.262C850.516 193.087 850.358 193.867 850.041 194.6C849.733 195.333 849.3 195.979 848.741 196.537C848.191 197.096 847.55 197.533 846.816 197.85C846.083 198.167 845.295 198.325 844.454 198.325Z" fill="#5233FF"/>
<path d="M818.3 242V227.95H816L816.925 224.5H821.75V242H818.3ZM830.615 242.325C829.524 242.325 828.532 242.075 827.64 241.575C826.757 241.075 826.053 240.404 825.528 239.562C825.003 238.721 824.74 237.783 824.74 236.75C824.74 235.992 824.899 235.271 825.215 234.587C825.532 233.904 825.965 233.308 826.515 232.8C826.09 232.342 825.749 231.825 825.49 231.25C825.232 230.667 825.103 230.05 825.103 229.4C825.103 228.433 825.353 227.554 825.853 226.762C826.353 225.971 827.015 225.342 827.84 224.875C828.674 224.408 829.599 224.175 830.615 224.175C831.624 224.175 832.544 224.408 833.378 224.875C834.211 225.342 834.878 225.971 835.378 226.762C835.878 227.554 836.128 228.433 836.128 229.4C836.128 230.05 835.999 230.667 835.74 231.25C835.49 231.825 835.144 232.342 834.703 232.8C835.278 233.308 835.719 233.904 836.028 234.587C836.344 235.271 836.503 235.992 836.503 236.75C836.503 237.775 836.236 238.712 835.703 239.562C835.178 240.404 834.469 241.075 833.578 241.575C832.694 242.075 831.707 242.325 830.615 242.325ZM830.615 238.875C831.032 238.875 831.411 238.779 831.753 238.587C832.094 238.396 832.365 238.142 832.565 237.825C832.765 237.5 832.865 237.142 832.865 236.75C832.865 236.35 832.765 235.992 832.565 235.675C832.365 235.35 832.094 235.092 831.753 234.9C831.411 234.708 831.032 234.612 830.615 234.612C830.199 234.612 829.819 234.708 829.478 234.9C829.136 235.092 828.861 235.35 828.653 235.675C828.453 235.992 828.353 236.35 828.353 236.75C828.353 237.142 828.453 237.5 828.653 237.825C828.861 238.142 829.136 238.396 829.478 238.587C829.819 238.779 830.199 238.875 830.615 238.875ZM830.615 231.162C830.957 231.162 831.269 231.083 831.553 230.925C831.836 230.767 832.061 230.554 832.228 230.287C832.403 230.012 832.49 229.717 832.49 229.4C832.49 229.075 832.403 228.779 832.228 228.513C832.061 228.246 831.836 228.033 831.553 227.875C831.269 227.708 830.957 227.625 830.615 227.625C830.265 227.625 829.949 227.708 829.665 227.875C829.382 228.033 829.157 228.246 828.99 228.513C828.824 228.779 828.74 229.075 828.74 229.4C828.74 229.717 828.824 230.012 828.99 230.287C829.157 230.554 829.382 230.767 829.665 230.925C829.949 231.083 830.265 231.162 830.615 231.162ZM845.11 242.325C844.101 242.325 843.181 242.092 842.347 241.625C841.514 241.15 840.789 240.496 840.172 239.662C839.564 238.829 839.093 237.867 838.76 236.775C838.426 235.675 838.26 234.5 838.26 233.25C838.26 232 838.426 230.829 838.76 229.737C839.093 228.637 839.564 227.671 840.172 226.837C840.789 226.004 841.514 225.354 842.347 224.887C843.181 224.412 844.101 224.175 845.11 224.175C846.118 224.175 847.039 224.412 847.872 224.887C848.706 225.354 849.422 226.004 850.022 226.837C850.631 227.671 851.101 228.637 851.435 229.737C851.768 230.829 851.935 232 851.935 233.25C851.935 234.5 851.768 235.675 851.435 236.775C851.101 237.867 850.631 238.829 850.022 239.662C849.422 240.496 848.706 241.15 847.872 241.625C847.039 242.092 846.118 242.325 845.11 242.325ZM845.11 238.875C845.935 238.875 846.614 238.608 847.147 238.075C847.681 237.542 848.072 236.846 848.322 235.987C848.581 235.129 848.71 234.217 848.71 233.25C848.71 232.225 848.572 231.287 848.297 230.437C848.031 229.587 847.631 228.908 847.097 228.4C846.564 227.883 845.901 227.625 845.11 227.625C844.485 227.625 843.943 227.779 843.485 228.087C843.035 228.396 842.66 228.817 842.36 229.35C842.068 229.883 841.847 230.487 841.697 231.162C841.556 231.829 841.485 232.525 841.485 233.25C841.485 234.217 841.614 235.129 841.872 235.987C842.139 236.837 842.539 237.533 843.072 238.075C843.614 238.608 844.293 238.875 845.11 238.875Z" fill="#5233FF"/>
<path d="M825.263 288L833.363 273.95H824.5V270.5H837.363V273.95L829.238 288H825.263ZM838.867 288V284.925C839.367 284.575 839.976 284.125 840.692 283.575C841.409 283.017 842.155 282.404 842.93 281.737C843.705 281.062 844.426 280.379 845.092 279.687C845.767 278.996 846.313 278.342 846.73 277.725C847.155 277.108 847.367 276.579 847.367 276.137C847.367 275.679 847.255 275.258 847.03 274.875C846.805 274.492 846.505 274.187 846.13 273.962C845.755 273.737 845.338 273.625 844.88 273.625C844.421 273.625 844.001 273.737 843.617 273.962C843.242 274.187 842.938 274.492 842.705 274.875C842.48 275.258 842.367 275.679 842.367 276.137H838.917C838.917 275.012 839.188 274 839.73 273.1C840.28 272.2 841.005 271.487 841.905 270.962C842.813 270.437 843.805 270.175 844.88 270.175C845.971 270.175 846.967 270.442 847.867 270.975C848.767 271.508 849.484 272.229 850.017 273.137C850.551 274.037 850.817 275.037 850.817 276.137C850.817 276.704 850.73 277.254 850.555 277.787C850.388 278.321 850.142 278.854 849.817 279.387C849.492 279.912 849.096 280.45 848.63 281C848.171 281.542 847.651 282.108 847.067 282.7C846.492 283.283 845.871 283.9 845.205 284.55H850.867V288H838.867Z" fill="#5233FF"/>
<path d="M824.3 334V319.95H822L822.925 316.5H827.75V334H824.3ZM833.04 334V319.95H830.74L831.665 316.5H836.49V334H833.04ZM839.48 334V330.925C839.98 330.575 840.589 330.125 841.305 329.575C842.022 329.017 842.768 328.404 843.543 327.737C844.318 327.062 845.039 326.379 845.705 325.687C846.38 324.996 846.926 324.342 847.343 323.725C847.768 323.108 847.98 322.579 847.98 322.137C847.98 321.679 847.868 321.258 847.643 320.875C847.418 320.492 847.118 320.187 846.743 319.962C846.368 319.737 845.951 319.625 845.493 319.625C845.035 319.625 844.614 319.737 844.23 319.962C843.855 320.187 843.551 320.492 843.318 320.875C843.093 321.258 842.98 321.679 842.98 322.137H839.53C839.53 321.012 839.801 320 840.343 319.1C840.893 318.2 841.618 317.487 842.518 316.962C843.426 316.437 844.418 316.175 845.493 316.175C846.585 316.175 847.58 316.442 848.48 316.975C849.38 317.508 850.097 318.229 850.63 319.137C851.164 320.037 851.43 321.037 851.43 322.137C851.43 322.704 851.343 323.254 851.168 323.787C851.001 324.321 850.755 324.854 850.43 325.387C850.105 325.912 849.71 326.45 849.243 327C848.785 327.542 848.264 328.108 847.68 328.7C847.105 329.283 846.485 329.9 845.818 330.55H851.48V334H839.48Z" fill="#5233FF"/>
<rect x="917" y="113" width="111.045" height="111.045" rx="9.25373" fill="#F7FAFF" fill-opacity="0.5"/>
<rect x="918" y="114" width="109.045" height="109.045" rx="8.25373" stroke="#E2E8F0" stroke-opacity="0.7" stroke-width="2"/>
<rect x="917" y="242" width="111.045" height="111.045" rx="9.25373" fill="#F7FAFF" fill-opacity="0.5"/>
<rect x="918" y="243" width="109.045" height="109.045" rx="8.25373" stroke="#E2E8F0" stroke-opacity="0.7" stroke-width="2"/>
<rect x="1054.96" y="114" width="109.045" height="109.045" rx="8.25373" fill="#F7FAFF" fill-opacity="0.5" stroke="#E2E8F0" stroke-width="2"/>
<rect x="1054.96" y="243" width="109.045" height="109.045" rx="8.25373" fill="#F7FAFF" fill-opacity="0.5" stroke="#E2E8F0" stroke-width="2"/>
<path fill-rule="evenodd" clip-rule="evenodd" d="M960 146C957.791 146 956 147.791 956 150V152C947.163 152 940 159.163 940 168C940 176.837 947.163 184 956 184V186C956 188.209 957.791 190 960 190H994C996.209 190 998 188.209 998 186V150C998 147.791 996.209 146 994 146H960ZM956 157C949.925 157 945 161.925 945 168C945 174.075 949.925 179 956 179V157Z" fill="#8585FF"/>
<path fill-rule="evenodd" clip-rule="evenodd" d="M960 275C957.791 275 956 276.791 956 279V281C947.163 281 940 288.163 940 297C940 305.837 947.163 313 956 313V315C956 317.209 957.791 319 960 319H994C996.209 319 998 317.209 998 315V279C998 276.791 996.209 275 994 275H960ZM956 286C949.925 286 945 290.925 945 297C945 303.075 949.925 308 956 308V286Z" fill="#85FFAE"/>
<path fill-rule="evenodd" clip-rule="evenodd" d="M1096 146C1093.79 146 1092 147.791 1092 150V152C1083.16 152 1076 159.163 1076 168C1076 176.837 1083.16 184 1092 184V186C1092 188.209 1093.79 190 1096 190H1130C1132.21 190 1134 188.209 1134 186V150C1134 147.791 1132.21 146 1130 146H1096ZM1092 157C1085.92 157 1081 161.925 1081 168C1081 174.075 1085.92 179 1092 179V157Z" fill="#BCCEE3"/>
<path fill-rule="evenodd" clip-rule="evenodd" d="M1096 275C1093.79 275 1092 276.791 1092 279V281C1083.16 281 1076 288.163 1076 297C1076 305.837 1083.16 313 1092 313V315C1092 317.209 1093.79 319 1096 319H1130C1132.21 319 1134 317.209 1134 315V279C1134 276.791 1132.21 275 1130 275H1096ZM1092 286C1085.92 286 1081 290.925 1081 297C1081 303.075 1085.92 308 1092 308V286Z" fill="#FFD099"/>
<path d="M1154.63 403.875L1143.5 415L1132.38 403.875" stroke="#CBD5E1" stroke-width="3.17857" stroke-linecap="round" stroke-linejoin="round"/>
</g>
<defs>
<linearGradient id="paint0_linear_114_182" x1="85" y1="574" x2="85" y2="486" gradientUnits="userSpaceOnUse">
<stop stop-color="#FFC9B3"/>
<stop offset="1" stop-color="#FFD2C2"/>
</linearGradient>
<linearGradient id="paint1_linear_114_182" x1="81.1521" y1="497.319" x2="81.1521" y2="564.32" gradientUnits="userSpaceOnUse">
<stop stop-color="#130027"/>
<stop offset="1" stop-color="#130017"/>
</linearGradient>
<linearGradient id="paint2_linear_114_182" x1="85" y1="575.173" x2="85" y2="541.733" gradientUnits="userSpaceOnUse">
<stop stop-color="#E6864E"/>
<stop offset="1" stop-color="#E67240"/>
</linearGradient>
<linearGradient id="paint3_linear_114_182" x1="81.9336" y1="512.107" x2="81.9336" y2="547.307" gradientUnits="userSpaceOnUse">
<stop stop-color="#FFE0CC"/>
<stop offset="1" stop-color="#FFEADB"/>
</linearGradient>
<linearGradient id="paint4_linear_114_182" x1="85" y1="554.053" x2="85" y2="568.133" gradientUnits="userSpaceOnUse">
<stop stop-color="#130027"/>
<stop offset="1" stop-color="#130017"/>
</linearGradient>
<clipPath id="clip0_114_182">
<rect width="1238.5" height="693" fill="white"/>
</clipPath>
<clipPath id="clip1_114_182">
<path d="M41 530C41 505.699 60.6995 486 85 486V486C109.301 486 129 505.699 129 530V530C129 554.301 109.301 574 85 574V574C60.6995 574 41 554.301 41 530V530Z" fill="white"/>
</clipPath>
</defs>
</svg>
