<svg width="1239" height="657" viewBox="0 0 1239 657" fill="none" xmlns="http://www.w3.org/2000/svg">
<path d="M1224.25 0H14.75C6.6038 0 0 4.35132 0 9.71894V647.281C0 652.649 6.6038 657 14.75 657H1224.25C1232.4 657 1239 652.649 1239 647.281V9.71894C1239 4.35132 1232.4 0 1224.25 0Z" fill="white"/>
<path d="M194.406 102.95H62.6097C59.5768 102.95 57.1182 104.427 57.1182 106.25V109.55C57.1182 111.372 59.5768 112.85 62.6097 112.85H194.406C197.438 112.85 199.897 111.372 199.897 109.55V106.25C199.897 104.427 197.438 102.95 194.406 102.95Z" fill="#CBD5E1"/>
<path d="M194.406 282.95H62.6097C59.5768 282.95 57.1182 284.427 57.1182 286.25V289.55C57.1182 291.372 59.5768 292.85 62.6097 292.85H194.406C197.438 292.85 199.897 291.372 199.897 289.55V286.25C199.897 284.427 197.438 282.95 194.406 282.95Z" fill="#CBD5E1"/>
<rect x="31" y="98" width="19.1533" height="18.15" rx="1" fill="#CBD5E1"/>
<rect x="31" y="278" width="19.1533" height="18.15" rx="1" fill="#CBD5E1"/>
<rect x="31" y="188.75" width="19.1533" height="18.15" rx="1" fill="#CBD5E1"/>
<rect x="31" y="233.3" width="19.1533" height="18.15" rx="1" fill="#CBD5E1"/>
<path d="M117.77 147.5H62.632C59.5868 147.5 57.1182 148.977 57.1182 150.8V154.1C57.1182 155.923 59.5868 157.4 62.632 157.4H117.77C120.815 157.4 123.284 155.923 123.284 154.1V150.8C123.284 148.977 120.815 147.5 117.77 147.5Z" fill="#8585FF"/>
<rect x="31" y="144.2" width="19.1533" height="16.5" rx="1" fill="#8585FF"/>
<path d="M102.003 192.05H62.7287C59.6301 192.05 57.1182 193.774 57.1182 195.9V199.75C57.1182 201.876 59.6301 203.6 62.7287 203.6H102.003C105.101 203.6 107.613 201.876 107.613 199.75V195.9C107.613 193.774 105.101 192.05 102.003 192.05Z" fill="#CBD5E1"/>
<path d="M157.742 238.25H62.7084C59.621 238.25 57.1182 239.727 57.1182 241.55V244.85C57.1182 246.672 59.621 248.15 62.7084 248.15H157.742C160.829 248.15 163.332 246.672 163.332 244.85V241.55C163.332 239.727 160.829 238.25 157.742 238.25Z" fill="#CBD5E1"/>
<rect x="1156.52" y="36.9717" width="85.5157" height="13.9718" rx="1" transform="rotate(-180 1156.52 36.9717)" fill="#CBD5E1"/>
<rect x="260" y="151" width="544" height="472" rx="5" stroke="#E2E8F0" stroke-width="2"/>
<rect x="834" y="153" width="357" height="470" rx="5" stroke="#E2E8F0" stroke-width="2"/>
<rect x="1" y="-1" width="313" height="44" rx="5" transform="matrix(1 0 0 -1 853 554)" fill="#E6ECF2" fill-opacity="0.1" stroke="#E2E8F0" stroke-width="2"/>
<line x1="1" y1="59.5" x2="1239" y2="59.4999" stroke="#E2E8F0"/>
<path d="M261.1 118V98.4H264.516V118H261.1ZM281.133 109.152V118H277.717V110.048C277.717 109.497 277.582 108.998 277.311 108.55C277.04 108.093 276.676 107.733 276.219 107.472C275.771 107.201 275.272 107.066 274.721 107.066C274.17 107.066 273.666 107.201 273.209 107.472C272.761 107.733 272.402 108.093 272.131 108.55C271.87 108.998 271.739 109.497 271.739 110.048V118H268.323L268.309 104H271.725L271.739 105.246C272.215 104.742 272.784 104.345 273.447 104.056C274.11 103.757 274.824 103.608 275.589 103.608C276.606 103.608 277.535 103.86 278.375 104.364C279.215 104.859 279.882 105.526 280.377 106.366C280.881 107.197 281.133 108.125 281.133 109.152ZM291.452 103.608C292.815 103.608 294.056 103.939 295.176 104.602C296.296 105.265 297.188 106.156 297.85 107.276C298.513 108.387 298.844 109.619 298.844 110.972C298.844 111.989 298.653 112.946 298.27 113.842C297.888 114.738 297.356 115.527 296.674 116.208C296.002 116.88 295.218 117.407 294.322 117.79C293.436 118.173 292.479 118.364 291.452 118.364C290.575 118.364 289.796 118.168 289.114 117.776C288.442 117.375 287.878 116.857 287.42 116.222V118H284.004V97H287.42V105.75C287.878 105.115 288.442 104.602 289.114 104.21C289.796 103.809 290.575 103.608 291.452 103.608ZM291.41 115.06C292.138 115.06 292.796 114.878 293.384 114.514C293.982 114.141 294.458 113.646 294.812 113.03C295.167 112.414 295.344 111.728 295.344 110.972C295.344 110.225 295.167 109.544 294.812 108.928C294.458 108.303 293.982 107.808 293.384 107.444C292.787 107.08 292.129 106.898 291.41 106.898C290.701 106.898 290.066 107.085 289.506 107.458C288.946 107.822 288.508 108.317 288.19 108.942C287.873 109.558 287.714 110.235 287.714 110.972C287.714 111.728 287.873 112.419 288.19 113.044C288.508 113.66 288.946 114.15 289.506 114.514C290.066 114.878 290.701 115.06 291.41 115.06ZM307.254 118.364C305.966 118.364 304.79 118.033 303.726 117.37C302.671 116.707 301.827 115.821 301.192 114.71C300.567 113.59 300.254 112.353 300.254 111C300.254 109.973 300.436 109.017 300.8 108.13C301.164 107.234 301.663 106.45 302.298 105.778C302.942 105.097 303.689 104.565 304.538 104.182C305.387 103.799 306.293 103.608 307.254 103.608C308.542 103.608 309.713 103.939 310.768 104.602C311.832 105.265 312.677 106.156 313.302 107.276C313.937 108.396 314.254 109.637 314.254 111C314.254 112.017 314.072 112.969 313.708 113.856C313.344 114.743 312.84 115.527 312.196 116.208C311.561 116.88 310.819 117.407 309.97 117.79C309.13 118.173 308.225 118.364 307.254 118.364ZM307.254 114.948C307.935 114.948 308.547 114.766 309.088 114.402C309.629 114.038 310.054 113.557 310.362 112.96C310.679 112.363 310.838 111.709 310.838 111C310.838 110.272 310.675 109.609 310.348 109.012C310.031 108.405 309.597 107.925 309.046 107.57C308.505 107.206 307.907 107.024 307.254 107.024C306.582 107.024 305.975 107.206 305.434 107.57C304.893 107.934 304.463 108.419 304.146 109.026C303.829 109.633 303.67 110.291 303.67 111C303.67 111.737 303.833 112.405 304.16 113.002C304.487 113.599 304.921 114.075 305.462 114.43C306.013 114.775 306.61 114.948 307.254 114.948ZM314.725 118L319.849 110.972L314.767 103.986H318.981L321.949 108.06L324.931 103.986H329.145L324.063 110.972L329.187 118H324.973L321.949 113.856L318.939 118H314.725Z" fill="#18303F" fill-opacity="0.6"/>
<rect x="1114" y="95" width="74" height="36" rx="9.25373" fill="#0D0E11"/>
<rect x="1094" y="568" width="74" height="36" rx="9.25373" fill="#5233FF"/>
<rect x="859" y="292" width="224" height="33" rx="9.25373" fill="#9987FF"/>
<path d="M999.278 301H872.722C870.666 301 869 302.343 869 304V313C869 314.657 870.666 316 872.722 316H999.278C1001.33 316 1003 314.657 1003 313V304C1003 302.343 1001.33 301 999.278 301Z" fill="#DED8FF"/>
<path d="M1147.28 356H1020.72C1018.67 356 1017 357.343 1017 359V368C1017 369.657 1018.67 371 1020.72 371H1147.28C1149.33 371 1151 369.657 1151 368V359C1151 357.343 1149.33 356 1147.28 356Z" fill="#E6ECF2" fill-opacity="0.4"/>
<rect x="942" y="340" width="224" height="63" rx="9.25373" fill="#CEDDE9"/>
<rect x="853" y="427" width="224" height="63" rx="9.25373" fill="#9987FF"/>
<path d="M1117.25 592.195C1116.67 592.195 1116.11 592.105 1115.58 591.925C1115.05 591.74 1114.58 591.477 1114.18 591.137C1113.78 590.792 1113.49 590.38 1113.32 589.9L1115.04 589.27C1115.11 589.47 1115.25 589.652 1115.46 589.817C1115.68 589.982 1115.94 590.115 1116.25 590.215C1116.56 590.315 1116.89 590.365 1117.25 590.365C1117.61 590.365 1117.95 590.31 1118.27 590.2C1118.59 590.085 1118.85 589.927 1119.04 589.727C1119.24 589.522 1119.33 589.285 1119.33 589.015C1119.33 588.74 1119.23 588.515 1119.03 588.34C1118.82 588.16 1118.56 588.017 1118.24 587.912C1117.92 587.807 1117.59 587.727 1117.25 587.672C1116.5 587.557 1115.84 587.38 1115.25 587.14C1114.66 586.9 1114.19 586.567 1113.84 586.142C1113.5 585.717 1113.33 585.167 1113.33 584.492C1113.33 583.857 1113.52 583.302 1113.88 582.827C1114.25 582.352 1114.73 581.982 1115.32 581.717C1115.92 581.452 1116.56 581.32 1117.25 581.32C1117.82 581.32 1118.38 581.41 1118.91 581.59C1119.45 581.77 1119.92 582.032 1120.32 582.377C1120.72 582.722 1121.01 583.137 1121.19 583.622L1119.46 584.245C1119.39 584.045 1119.25 583.863 1119.03 583.698C1118.82 583.532 1118.56 583.402 1118.25 583.307C1117.94 583.207 1117.6 583.157 1117.25 583.157C1116.89 583.152 1116.56 583.21 1116.24 583.33C1115.92 583.445 1115.66 583.602 1115.46 583.802C1115.26 584.002 1115.16 584.232 1115.16 584.492C1115.16 584.827 1115.26 585.08 1115.44 585.25C1115.63 585.42 1115.88 585.545 1116.2 585.625C1116.51 585.7 1116.86 585.77 1117.25 585.835C1117.95 585.945 1118.6 586.13 1119.19 586.39C1119.79 586.65 1120.26 586.997 1120.62 587.432C1120.98 587.862 1121.16 588.39 1121.16 589.015C1121.16 589.65 1120.98 590.207 1120.62 590.687C1120.26 591.162 1119.79 591.532 1119.19 591.797C1118.6 592.063 1117.95 592.195 1117.25 592.195ZM1125.89 592.195C1125.2 592.195 1124.57 592.017 1124 591.662C1123.44 591.307 1122.99 590.83 1122.65 590.23C1122.31 589.63 1122.14 588.967 1122.14 588.242C1122.14 587.697 1122.24 587.187 1122.44 586.712C1122.63 586.232 1122.9 585.812 1123.24 585.452C1123.58 585.087 1123.98 584.802 1124.44 584.597C1124.89 584.392 1125.38 584.29 1125.89 584.29C1126.48 584.29 1127.01 584.415 1127.5 584.665C1127.99 584.91 1128.4 585.247 1128.74 585.677C1129.08 586.107 1129.33 586.597 1129.49 587.147C1129.64 587.697 1129.68 588.272 1129.59 588.872H1124.11C1124.18 589.152 1124.29 589.405 1124.45 589.63C1124.61 589.85 1124.82 590.027 1125.06 590.162C1125.31 590.292 1125.58 590.36 1125.89 590.365C1126.21 590.37 1126.5 590.295 1126.76 590.14C1127.03 589.98 1127.25 589.765 1127.42 589.495L1129.29 589.93C1128.99 590.595 1128.53 591.14 1127.93 591.565C1127.32 591.985 1126.64 592.195 1125.89 592.195ZM1124.05 587.5H1127.74C1127.68 587.2 1127.57 586.93 1127.39 586.69C1127.21 586.445 1126.99 586.25 1126.73 586.105C1126.47 585.96 1126.19 585.887 1125.89 585.887C1125.59 585.887 1125.32 585.96 1125.06 586.105C1124.81 586.245 1124.59 586.437 1124.41 586.682C1124.23 586.922 1124.11 587.195 1124.05 587.5ZM1137.68 587.26V592H1135.85V587.74C1135.85 587.445 1135.78 587.177 1135.63 586.937C1135.49 586.692 1135.29 586.5 1135.05 586.36C1134.81 586.215 1134.54 586.142 1134.25 586.142C1133.95 586.142 1133.68 586.215 1133.44 586.36C1133.2 586.5 1133 586.692 1132.86 586.937C1132.72 587.177 1132.65 587.445 1132.65 587.74V592H1130.82L1130.81 584.5H1132.64L1132.65 585.167C1132.9 584.897 1133.21 584.685 1133.56 584.53C1133.92 584.37 1134.3 584.29 1134.71 584.29C1135.26 584.29 1135.75 584.425 1136.2 584.695C1136.65 584.96 1137.01 585.317 1137.28 585.767C1137.55 586.212 1137.68 586.71 1137.68 587.26ZM1144.7 580.75H1146.53V592H1144.7V591.062C1144.46 591.397 1144.16 591.67 1143.79 591.88C1143.43 592.09 1143 592.195 1142.52 592.195C1141.98 592.195 1141.47 592.093 1140.99 591.887C1140.52 591.682 1140.1 591.4 1139.73 591.04C1139.37 590.675 1139.09 590.255 1138.89 589.78C1138.68 589.305 1138.58 588.795 1138.58 588.25C1138.58 587.705 1138.68 587.195 1138.89 586.72C1139.09 586.245 1139.37 585.827 1139.73 585.467C1140.1 585.102 1140.52 584.817 1140.99 584.612C1141.47 584.407 1141.98 584.305 1142.52 584.305C1143 584.305 1143.43 584.41 1143.79 584.62C1144.16 584.825 1144.46 585.097 1144.7 585.437V580.75ZM1142.55 590.432C1142.94 590.432 1143.28 590.335 1143.58 590.14C1143.88 589.945 1144.12 589.682 1144.29 589.352C1144.46 589.017 1144.54 588.65 1144.54 588.25C1144.54 587.845 1144.46 587.477 1144.29 587.147C1144.12 586.812 1143.88 586.547 1143.57 586.352C1143.27 586.157 1142.93 586.06 1142.55 586.06C1142.16 586.06 1141.81 586.16 1141.49 586.36C1141.17 586.555 1140.92 586.817 1140.73 587.147C1140.55 587.477 1140.45 587.845 1140.45 588.25C1140.45 588.655 1140.55 589.022 1140.74 589.352C1140.93 589.682 1141.18 589.945 1141.5 590.14C1141.82 590.335 1142.17 590.432 1142.55 590.432Z" fill="white"/>
<path d="M1147.28 377H1020.72C1018.67 377 1017 378.343 1017 380V389C1017 390.657 1018.67 392 1020.72 392H1147.28C1149.33 392 1151 390.657 1151 389V380C1151 378.343 1149.33 377 1147.28 377Z" fill="#8EA6C2"/>
<path d="M1145.19 355H981.806C979.152 355 977 356.343 977 358V367C977 368.657 979.152 370 981.806 370H1145.19C1147.85 370 1150 368.657 1150 367V358C1150 356.343 1147.85 355 1145.19 355Z" fill="#8EA6C2"/>
<path d="M1048.81 442H872.194C869.326 442 867 443.343 867 445V454C867 455.657 869.326 457 872.194 457H1048.81C1051.67 457 1054 455.657 1054 454V445C1054 443.343 1051.67 442 1048.81 442Z" fill="#DED8FF"/>
<path d="M978.806 464H870.194C868.43 464 867 465.343 867 467V476C867 477.657 868.43 479 870.194 479H978.806C980.57 479 982 477.657 982 476V467C982 465.343 980.57 464 978.806 464Z" fill="#DED8FF"/>
<path d="M1136.61 118V107.5H1138.59L1143.02 114.692V107.5H1144.85V118H1142.88L1138.44 110.807V118H1136.61ZM1149.84 118.195C1149.15 118.195 1148.52 118.017 1147.95 117.662C1147.38 117.307 1146.93 116.83 1146.59 116.23C1146.26 115.63 1146.09 114.967 1146.09 114.242C1146.09 113.697 1146.19 113.187 1146.38 112.712C1146.58 112.232 1146.84 111.812 1147.18 111.452C1147.53 111.087 1147.93 110.802 1148.38 110.597C1148.84 110.392 1149.32 110.29 1149.84 110.29C1150.42 110.29 1150.96 110.415 1151.44 110.665C1151.93 110.91 1152.35 111.247 1152.69 111.677C1153.03 112.107 1153.28 112.597 1153.43 113.147C1153.59 113.697 1153.62 114.272 1153.54 114.872H1148.05C1148.12 115.152 1148.24 115.405 1148.4 115.63C1148.56 115.85 1148.76 116.027 1149.01 116.162C1149.25 116.292 1149.53 116.36 1149.84 116.365C1150.16 116.37 1150.45 116.295 1150.71 116.14C1150.97 115.98 1151.19 115.765 1151.37 115.495L1153.24 115.93C1152.93 116.595 1152.48 117.14 1151.87 117.565C1151.27 117.985 1150.59 118.195 1149.84 118.195ZM1147.99 113.5H1151.68C1151.63 113.2 1151.51 112.93 1151.33 112.69C1151.16 112.445 1150.94 112.25 1150.68 112.105C1150.42 111.96 1150.14 111.887 1149.84 111.887C1149.54 111.887 1149.26 111.96 1149.01 112.105C1148.75 112.245 1148.53 112.437 1148.35 112.682C1148.18 112.922 1148.06 113.195 1147.99 113.5ZM1158.27 118H1156.46L1153.95 110.5H1155.75L1157.37 115.352L1158.99 110.5H1160.8L1162.42 115.352L1164.05 110.5H1165.84L1163.34 118H1161.52L1159.89 113.125L1158.27 118Z" fill="white"/>
<g clip-path="url(#clip0_138_1077)">
<path d="M1210 30C1210 20.0589 1201.94 12 1192 12V12C1182.06 12 1174 20.0589 1174 30V30C1174 39.9411 1182.06 48 1192 48V48C1201.94 48 1210 39.9411 1210 30V30Z" fill="url(#paint0_linear_138_1077)"/>
<path d="M1188.16 33.12V35.82C1188.16 36.34 1195.84 36.1651 1195.84 35.4154C1195.84 34.7098 1195.83 31.5122 1195.84 28.2226C1197.56 25.9933 1197.56 24.6 1196.2 23.16C1194.84 21.72 1185.16 21 1185.16 21C1185.16 21 1184.43 27.9852 1184.32 29.88C1184.27 30.642 1183.78 33.12 1185.7 33.12H1188.16Z" fill="url(#paint1_linear_138_1077)"/>
<g style="mix-blend-mode:multiply">
<path d="M1188.16 32.8893C1189.73 32.7187 1191.24 32.2252 1192.6 31.4399C1192.6 31.4399 1191.64 33.7199 1188.16 34.3387V32.8893Z" fill="#FFD7B8"/>
</g>
<path d="M1179.4 41.197C1178.64 42.7456 1178.04 45.3056 1177.6 48.877H1206.4C1205.96 45.3052 1205.36 42.7452 1204.6 41.197C1203.84 39.6539 1196.8 36.684 1196.8 36.684C1196.8 36.684 1196.66 35.3264 1196.32 35.1318C1195.98 34.9371 1188.08 34.9373 1187.68 35.1318C1187.28 35.3263 1187.2 36.6833 1187.2 36.6833C1187.2 36.6833 1180.16 39.6571 1179.4 41.197Z" fill="black"/>
<path d="M1194.28 24.6247C1194.66 24.297 1195.12 24.0763 1195.78 24.4169C1197.33 25.2237 1196.3 28.3362 1194.56 28.2755C1193.96 28.2546 1194.24 29.4503 1195.84 30.24C1195.84 28.98 1197.76 25.86 1197.93 23.0194C1199.86 22.3 1199.38 19.4215 1198.05 19.4215C1198.27 16.7826 1194.04 15.4197 1192.4 16.9339C1190.74 14.9397 1186.54 15.9597 1186.29 17.6898C1183.4 16.1482 1181.5 20.5797 1184.2 22.3C1185.32 23.008 1187.92 23.2774 1191.68 23.2774C1193.48 23.2774 1192.44 27.4978 1191.88 28.86C1191.16 30.6 1187.14 30.84 1185.88 30.66C1184.9 30.5195 1184.38 30.12 1184.32 29.88C1183.42 32.28 1184.56 33.72 1186.36 33.72C1189.42 33.72 1192.48 32.82 1192.96 30.6C1193.34 28.8333 1193.32 25.9819 1194.28 24.6247Z" fill="url(#paint2_linear_138_1077)"/>
</g>
<path d="M451.209 167H350.949C349.32 167 348 168.32 348 169.949V178.795C348 180.424 349.32 181.744 350.949 181.744H451.209C452.837 181.744 454.157 180.424 454.157 178.795V169.949C454.157 168.32 452.837 167 451.209 167Z" fill="#E6ECF2"/>
<path d="M745.639 197H359.361C353.087 197 348 198.343 348 200V209C348 210.657 353.087 212 359.361 212H745.639C751.913 212 757 210.657 757 209V200C757 198.343 751.913 197 745.639 197Z" fill="#E6ECF2" fill-opacity="0.4"/>
<g clip-path="url(#clip1_138_1077)">
<path d="M278 185.5C278 175.283 286.283 167 296.5 167V167C306.717 167 315 175.283 315 185.5V185.5C315 195.717 306.717 204 296.5 204V204C286.283 204 278 195.717 278 185.5V185.5Z" fill="url(#paint3_linear_138_1077)"/>
<path d="M293.206 192.761C294.274 190.985 296.726 187.581 302.565 182.798C311.376 175.579 303.06 168.977 294.127 172.494C293.171 172.87 290.523 171.364 288.07 172.95C286.488 173.974 287.103 174.776 286.487 175.578C285.871 176.38 283.496 176.333 282.975 178.416C282.667 179.65 283.52 180.942 283.406 181.871C283.292 182.8 282.391 183.637 282.348 184.863C282.33 185.381 282.413 185.897 282.594 186.383C282.775 186.868 283.05 187.313 283.403 187.692C283.756 188.072 284.181 188.378 284.652 188.593C285.123 188.808 285.633 188.929 286.15 188.947C286.155 189.971 286.554 190.953 287.266 191.689C287.978 192.425 288.946 192.857 289.969 192.896C290.625 192.92 291.277 192.779 291.864 192.485C292.447 193.022 292.947 193.191 293.206 192.761Z" fill="url(#paint4_linear_138_1077)"/>
<path d="M293.416 190.926C293.416 189.816 293.379 184.341 293.381 184.249C290.333 184.698 290.395 178.901 293.478 180.32C294.156 180.751 296.068 180.32 295.883 176.743C299.213 180.32 303.079 176.148 303.411 179.548C303.863 184.189 303.408 189.047 300.523 189.047C300.208 189.043 299.893 189.012 299.583 188.953V190.926C299.583 192.16 301.803 192.776 301.803 192.776C301.803 192.776 297.968 196.39 296.376 196.37C294.784 196.35 291.196 192.776 291.196 192.776C291.196 192.776 293.416 192.16 293.416 190.926Z" fill="url(#paint5_linear_138_1077)"/>
<path style="mix-blend-mode:multiply" opacity="0.7" d="M299.583 188.953C298.053 188.613 296.603 187.981 295.313 187.09C295.313 187.09 296.378 189.692 299.579 190.185L299.583 188.953Z" fill="url(#paint6_linear_138_1077)"/>
<path d="M307.846 196.477C308.741 198.465 309.203 204.493 309.203 204.493H283.796C283.796 204.493 284.258 198.465 285.153 196.477C285.937 194.735 291.103 192.735 292.616 192.16C293.49 193.138 294.743 193.763 296.5 193.763C298.256 193.763 299.509 193.138 300.383 192.16C301.897 192.735 307.062 194.735 307.846 196.477Z" fill="url(#paint7_linear_138_1077)"/>
<path d="M284.915 196.517C285.587 195.241 287.796 193.901 289.838 192.999C290.857 192.549 293.91 205.48 293.91 205.48H283.683C283.683 205.48 283.56 199.095 284.915 196.517Z" fill="url(#paint8_linear_138_1077)"/>
</g>
<path d="M775.528 218H283.472C275.479 218 269 225.253 269 234.2V282.8C269 291.747 275.479 299 283.472 299H775.528C783.521 299 790 291.747 790 282.8V234.2C790 225.253 783.521 218 775.528 218Z" fill="#FAFCFF"/>
<path d="M451.209 238H350.949C349.32 238 348 239.32 348 240.949V249.795C348 251.424 349.32 252.744 350.949 252.744H451.209C452.837 252.744 454.157 251.424 454.157 249.795V240.949C454.157 239.32 452.837 238 451.209 238Z" fill="#E6ECF2"/>
<path d="M745.639 268H359.361C353.087 268 348 269.343 348 271V280C348 281.657 353.087 283 359.361 283H745.639C751.913 283 757 281.657 757 280V271C757 269.343 751.913 268 745.639 268Z" fill="#E6ECF2" fill-opacity="0.4"/>
<path d="M451.209 310H350.949C349.32 310 348 311.32 348 312.949V321.795C348 323.424 349.32 324.744 350.949 324.744H451.209C452.837 324.744 454.157 323.424 454.157 321.795V312.949C454.157 311.32 452.837 310 451.209 310Z" fill="#E6ECF2"/>
<g clip-path="url(#clip2_138_1077)">
<path d="M278 320.5C278 310.283 286.283 302 296.5 302V302C306.717 302 315 310.283 315 320.5V320.5C315 330.717 306.717 339 296.5 339V339C286.283 339 278 330.717 278 320.5V320.5Z" fill="url(#paint9_linear_138_1077)"/>
<path d="M292.554 325.283C292.539 326.434 291.594 327.306 289.717 327.873C291.978 329.517 294.239 330.833 296.5 330.833C298.761 330.833 301.023 329.517 303.284 327.873C301.42 327.306 300.474 326.459 300.447 325.332C300.447 325.132 300.46 320.72 300.469 318.796C302.236 316.505 301.587 313.818 301.033 313.885C300.354 313.968 294.471 308.385 293.342 308.099C292.214 307.813 289.347 308.737 288.854 311.311C288.36 313.886 288.154 320.375 290.025 322.966C290.558 323.704 291.409 323.99 292.554 323.83C292.555 324.369 292.554 325.283 292.554 325.283Z" fill="url(#paint10_linear_138_1077)"/>
<path d="M292.554 323.83C295.267 323.521 296.994 322.35 296.994 322.35C296.994 322.35 295.514 324.816 292.554 325.31V323.83Z" fill="#DB6F3D"/>
<path d="M301.372 318.835C302.222 316.791 305.627 312.629 302.692 310.039C301.705 305.229 296.254 305.762 292.615 306.872C290.17 307.618 288.323 309.092 287.929 307.982C285.462 310.039 286.697 312.052 288.323 312.629C289.799 313.153 292.295 313.677 296.538 313.184C297.296 313.096 297.137 315.417 297.542 315.668C298.15 316.045 298.622 313.677 300.288 314.388C301.954 315.099 300.965 318.395 299.177 318.395C298.56 318.395 298.252 320.091 299.917 320.893C301.125 321.487 300.82 320.163 301.372 318.835Z" fill="white"/>
<path d="M309.45 331.638C310.624 334.025 311.3 339.531 311.3 339.531H281.7C281.7 339.531 282.376 334.025 283.55 331.638C284.724 329.251 291.579 327.037 291.579 327.037C292.9 329.75 300.152 329.75 301.418 327.037C301.418 327.037 308.276 329.251 309.45 331.638Z" fill="url(#paint11_linear_138_1077)"/>
<mask id="mask0_138_1077" style="mask-type:alpha" maskUnits="userSpaceOnUse" x="281" y="327" width="31" height="13">
<path d="M309.45 331.638C310.624 334.025 311.3 339.531 311.3 339.531H281.7C281.7 339.531 282.376 334.025 283.55 331.638C284.724 329.251 291.579 327.037 291.579 327.037C292.9 329.75 300.152 329.75 301.418 327.037C301.418 327.037 308.276 329.251 309.45 331.638Z" fill="url(#paint12_linear_138_1077)"/>
</mask>
<g mask="url(#mask0_138_1077)">
<path d="M280.467 337.026V336.04H312.533V337.026H280.467ZM280.467 334.56V333.573H312.533V334.56H280.467ZM280.467 332.093V331.106H312.533V332.093H280.467Z" fill="#6E5C5A"/>
</g>
</g>
<path d="M745.639 340H359.361C353.087 340 348 341.343 348 343V352C348 353.657 353.087 355 359.361 355H745.639C751.913 355 757 353.657 757 352V343C757 341.343 751.913 340 745.639 340Z" fill="#E6ECF2" fill-opacity="0.4"/>
<path d="M278 395.5C278 385.283 286.283 377 296.5 377V377C306.717 377 315 385.283 315 395.5V395.5C315 405.717 306.717 414 296.5 414V414C286.283 414 278 405.717 278 395.5V395.5Z" fill="url(#paint13_linear_138_1077)"/>
<path d="M307.847 405.983C308.751 407.71 309.204 414 309.204 414H283.797C283.797 414 284.249 407.71 285.154 405.983C286.51 403.393 296.5 400.063 296.5 400.063C296.5 400.063 306.49 403.393 307.847 405.983Z" fill="url(#paint14_linear_138_1077)"/>
<path d="M307.042 398.634L287.005 396.213C286.018 390.969 287.189 387.665 290.52 386.301C292.06 381.255 298.054 381.665 299.753 382.077C305.534 383.477 307.964 388.996 307.042 398.634Z" fill="url(#paint15_linear_138_1077)"/>
<path d="M293.54 401.543V394.143C290.454 394.097 291.056 388.75 294.157 390.382C294.712 390.628 296.13 389.95 295.637 388.285C298.967 390.752 303.607 386.423 303.9 389.087C304.477 394.33 303.361 398.639 300.403 398.639C300.088 398.651 299.772 398.632 299.46 398.583V401.543C298.495 402.119 297.529 402.407 296.563 402.407C295.598 402.407 294.59 402.119 293.54 401.543Z" fill="url(#paint16_linear_138_1077)"/>
<path d="M299.46 398.583V399.57C297.61 399.57 296.171 398.686 295.144 396.918C296.377 397.741 297.816 398.296 299.46 398.583Z" fill="#DB6F3D"/>
<path d="M296.496 402.28C297.34 402.24 299.46 401.803 299.46 400.86V400.063C299.686 400.063 300.334 400.598 300.667 401.05C301.984 402.838 300.523 404.442 299.332 404.442C297.829 404.442 296.833 403.186 296.5 402.582C296.167 403.186 295.171 404.442 293.668 404.442C292.477 404.442 291.016 402.838 292.333 401.05C292.666 400.598 293.314 400.063 293.54 400.063V400.86C293.54 401.803 295.605 402.24 296.496 402.28Z" fill="white"/>
<path d="M451.209 385H350.949C349.32 385 348 386.32 348 387.949V396.795C348 398.424 349.32 399.744 350.949 399.744H451.209C452.837 399.744 454.157 398.424 454.157 396.795V387.949C454.157 386.32 452.837 385 451.209 385Z" fill="#E6ECF2"/>
<path d="M745.639 415H359.361C353.087 415 348 416.343 348 418V427C348 428.657 353.087 430 359.361 430H745.639C751.913 430 757 428.657 757 427V418C757 416.343 751.913 415 745.639 415Z" fill="#E6ECF2" fill-opacity="0.4"/>
<g clip-path="url(#clip3_138_1077)">
<path d="M278 470.5C278 460.283 286.283 452 296.5 452V452C306.717 452 315 460.283 315 470.5V470.5C315 480.717 306.717 489 296.5 489V489C286.283 489 278 480.717 278 470.5V470.5Z" fill="url(#paint17_linear_138_1077)"/>
<path d="M300.447 473.706V476.42C300.447 476.688 296.5 477.502 296.5 477.502C296.5 477.502 292.554 476.803 292.554 476.42C292.554 475.695 292.569 472.054 292.554 468.673C290.786 466.382 290.786 464.95 292.184 463.47C293.581 461.99 303.53 461.25 303.53 461.25C303.53 461.25 304.277 468.429 304.394 470.376C304.441 471.16 304.949 473.706 302.975 473.706H300.447Z" fill="url(#paint18_linear_138_1077)"/>
<path d="M300.447 473.475V474.959C297.803 474.489 296.282 473.495 295.883 471.98C297.034 472.761 298.514 473.254 300.323 473.46C300.364 473.464 300.406 473.469 300.447 473.475Z" fill="#DE6530"/>
<path d="M309.45 482.008C310.233 483.599 310.85 486.23 311.3 489.901H281.7C282.151 486.23 282.768 483.599 283.55 482.008C284.33 480.422 291.567 477.369 291.567 477.369L301.434 477.368C301.434 477.368 308.672 480.425 309.45 482.008Z" fill="url(#paint19_linear_138_1077)"/>
<path d="M297.363 478.146L297.98 489.493H295.02L295.637 478.146C295.637 478.146 296.212 477.53 296.5 477.53C296.788 477.53 297.363 478.146 297.363 478.146Z" fill="url(#paint20_linear_138_1077)"/>
<path d="M297.488 480.443L295.572 479.336L295.637 478.146C296.021 477.735 296.308 477.53 296.5 477.53C296.692 477.53 296.98 477.735 297.364 478.146L297.488 480.443Z" fill="#D24B24"/>
<path d="M296.5 477.529L295.267 479.75L291.443 477.407L292.553 475.803L296.5 477.261L300.447 475.803L301.557 477.407L297.733 479.75L296.5 477.529Z" fill="white"/>
<path d="M294.159 464.975C293.767 464.638 293.291 464.412 292.617 464.762C291.02 465.591 292.08 468.79 293.867 468.727C294.484 468.706 294.201 469.935 292.554 470.746C292.554 469.451 290.58 466.245 290.408 463.325C288.422 462.586 288.915 459.627 290.278 459.627C290.061 456.915 294.404 455.514 296.085 457.071C297.795 455.021 302.112 456.069 302.373 457.848C305.341 456.263 307.292 460.818 304.513 462.586C303.369 463.314 300.694 463.59 296.832 463.59C294.978 463.59 296.044 467.928 296.624 469.328C297.364 471.116 301.495 471.363 302.79 471.178C303.802 471.034 304.332 470.623 304.394 470.376C305.319 472.843 304.147 474.323 302.297 474.323C299.152 474.323 296.007 473.398 295.514 471.116C295.121 469.301 295.142 466.37 294.159 464.975Z" fill="url(#paint21_linear_138_1077)"/>
</g>
<path d="M451.209 460H350.949C349.32 460 348 461.32 348 462.949V471.795C348 473.424 349.32 474.744 350.949 474.744H451.209C452.837 474.744 454.157 473.424 454.157 471.795V462.949C454.157 461.32 452.837 460 451.209 460Z" fill="#E6ECF2"/>
<path d="M745.639 490H359.361C353.087 490 348 491.343 348 493V502C348 503.657 353.087 505 359.361 505H745.639C751.913 505 757 503.657 757 502V493C757 491.343 751.913 490 745.639 490Z" fill="#E6ECF2" fill-opacity="0.4"/>
<g clip-path="url(#clip4_138_1077)">
<path d="M278 546.5C278 536.283 286.283 528 296.5 528V528C306.717 528 315 536.283 315 546.5V546.5C315 556.717 306.717 565 296.5 565V565C286.283 565 278 556.717 278 546.5V546.5Z" fill="url(#paint22_linear_138_1077)"/>
<path d="M307.847 557.97C308.751 559.696 309.204 565.986 309.204 565.986H283.797C283.797 565.986 284.249 559.696 285.154 557.97C286.51 555.38 296.5 552.05 296.5 552.05C296.5 552.05 306.49 555.38 307.847 557.97Z" fill="url(#paint23_linear_138_1077)"/>
<mask id="mask1_138_1077" style="mask-type:alpha" maskUnits="userSpaceOnUse" x="283" y="552" width="27" height="14">
<path d="M307.847 557.97C308.751 559.696 309.204 565.986 309.204 565.986H283.797C283.797 565.986 284.249 559.696 285.154 557.97C286.51 555.38 296.5 552.05 296.5 552.05C296.5 552.05 306.49 555.38 307.847 557.97Z" fill="url(#paint24_linear_138_1077)"/>
</mask>
<g mask="url(#mask1_138_1077)">
<path d="M308.093 564.876C308.093 564.73 308.137 564.587 308.218 564.465C308.299 564.344 308.415 564.249 308.55 564.193C308.685 564.137 308.834 564.122 308.978 564.151C309.121 564.179 309.253 564.25 309.357 564.353C309.46 564.457 309.531 564.589 309.559 564.732C309.588 564.876 309.573 565.024 309.517 565.16C309.461 565.295 309.366 565.41 309.245 565.492C309.123 565.573 308.98 565.616 308.833 565.616C308.637 565.616 308.449 565.538 308.31 565.4C308.171 565.261 308.093 565.073 308.093 564.876V564.876ZM303.16 564.876C303.16 564.73 303.203 564.587 303.285 564.465C303.366 564.344 303.482 564.249 303.617 564.193C303.752 564.137 303.901 564.122 304.044 564.151C304.188 564.179 304.32 564.25 304.423 564.353C304.527 564.457 304.597 564.589 304.626 564.732C304.654 564.876 304.64 565.024 304.584 565.16C304.528 565.295 304.433 565.41 304.311 565.492C304.19 565.573 304.046 565.616 303.9 565.616C303.704 565.616 303.516 565.538 303.377 565.4C303.238 565.261 303.16 565.073 303.16 564.876ZM298.227 564.876C298.227 564.73 298.27 564.587 298.351 564.465C298.433 564.344 298.548 564.249 298.684 564.193C298.819 564.137 298.968 564.122 299.111 564.151C299.255 564.179 299.387 564.25 299.49 564.353C299.594 564.457 299.664 564.589 299.693 564.732C299.721 564.876 299.706 565.024 299.65 565.16C299.594 565.295 299.5 565.41 299.378 565.492C299.256 565.573 299.113 565.616 298.967 565.616C298.77 565.616 298.582 565.538 298.443 565.4C298.305 565.261 298.227 565.073 298.227 564.876ZM293.293 564.876C293.293 564.73 293.337 564.587 293.418 564.465C293.499 564.344 293.615 564.249 293.75 564.193C293.885 564.137 294.034 564.122 294.178 564.151C294.321 564.179 294.453 564.25 294.557 564.353C294.66 564.457 294.731 564.589 294.759 564.732C294.788 564.876 294.773 565.024 294.717 565.16C294.661 565.295 294.566 565.41 294.445 565.492C294.323 565.573 294.18 565.616 294.033 565.616C293.837 565.616 293.649 565.538 293.51 565.4C293.371 565.261 293.293 565.073 293.293 564.876ZM288.36 564.876C288.36 564.73 288.403 564.587 288.485 564.465C288.566 564.344 288.682 564.249 288.817 564.193C288.952 564.137 289.101 564.122 289.244 564.151C289.388 564.179 289.52 564.25 289.623 564.353C289.727 564.457 289.797 564.589 289.826 564.732C289.854 564.876 289.84 565.024 289.784 565.16C289.728 565.295 289.633 565.41 289.511 565.492C289.39 565.573 289.246 565.616 289.1 565.616C288.904 565.616 288.716 565.538 288.577 565.4C288.438 565.261 288.36 565.073 288.36 564.876ZM283.427 564.876C283.427 564.73 283.47 564.587 283.551 564.465C283.633 564.344 283.748 564.249 283.884 564.193C284.019 564.137 284.168 564.122 284.311 564.151C284.455 564.179 284.587 564.25 284.69 564.353C284.794 564.457 284.864 564.589 284.893 564.732C284.921 564.876 284.906 565.024 284.85 565.16C284.794 565.295 284.7 565.41 284.578 565.492C284.456 565.573 284.313 565.616 284.167 565.616C283.97 565.616 283.782 565.538 283.643 565.4C283.505 565.261 283.427 565.073 283.427 564.876V564.876ZM305.627 562.41C305.627 562.263 305.67 562.12 305.751 561.999C305.833 561.877 305.948 561.782 306.084 561.726C306.219 561.67 306.368 561.655 306.511 561.684C306.655 561.713 306.787 561.783 306.89 561.887C306.994 561.99 307.064 562.122 307.093 562.265C307.121 562.409 307.106 562.558 307.05 562.693C306.994 562.828 306.9 562.944 306.778 563.025C306.656 563.106 306.513 563.15 306.367 563.15C306.17 563.15 305.982 563.072 305.843 562.933C305.705 562.794 305.627 562.606 305.627 562.41ZM300.693 562.41C300.693 562.263 300.737 562.12 300.818 561.999C300.899 561.877 301.015 561.782 301.15 561.726C301.285 561.67 301.434 561.655 301.578 561.684C301.721 561.713 301.853 561.783 301.957 561.887C302.06 561.99 302.131 562.122 302.159 562.265C302.188 562.409 302.173 562.558 302.117 562.693C302.061 562.828 301.966 562.944 301.845 563.025C301.723 563.106 301.58 563.15 301.433 563.15C301.237 563.15 301.049 563.072 300.91 562.933C300.771 562.794 300.693 562.606 300.693 562.41ZM295.76 562.41C295.76 562.263 295.803 562.12 295.885 561.999C295.966 561.877 296.082 561.782 296.217 561.726C296.352 561.67 296.501 561.655 296.644 561.684C296.788 561.713 296.92 561.783 297.023 561.887C297.127 561.99 297.197 562.122 297.226 562.265C297.254 562.409 297.24 562.558 297.184 562.693C297.128 562.828 297.033 562.944 296.911 563.025C296.79 563.106 296.646 563.15 296.5 563.15C296.304 563.15 296.116 563.072 295.977 562.933C295.838 562.794 295.76 562.606 295.76 562.41V562.41ZM290.827 562.41C290.827 562.263 290.87 562.12 290.951 561.999C291.033 561.877 291.148 561.782 291.284 561.726C291.419 561.67 291.568 561.655 291.711 561.684C291.855 561.713 291.987 561.783 292.09 561.887C292.194 561.99 292.264 562.122 292.293 562.265C292.321 562.409 292.306 562.558 292.25 562.693C292.194 562.828 292.1 562.944 291.978 563.025C291.856 563.106 291.713 563.15 291.567 563.15C291.37 563.15 291.182 563.072 291.043 562.933C290.905 562.794 290.827 562.606 290.827 562.41ZM285.893 562.41C285.893 562.263 285.937 562.12 286.018 561.999C286.099 561.877 286.215 561.782 286.35 561.726C286.485 561.67 286.634 561.655 286.778 561.684C286.921 561.713 287.053 561.783 287.157 561.887C287.26 561.99 287.331 562.122 287.359 562.265C287.388 562.409 287.373 562.558 287.317 562.693C287.261 562.828 287.166 562.944 287.045 563.025C286.923 563.106 286.78 563.15 286.633 563.15C286.437 563.15 286.249 563.072 286.11 562.933C285.971 562.794 285.893 562.606 285.893 562.41ZM308.093 559.943C308.093 559.797 308.137 559.654 308.218 559.532C308.299 559.41 308.415 559.315 308.55 559.259C308.685 559.203 308.834 559.189 308.978 559.217C309.121 559.246 309.253 559.316 309.357 559.42C309.46 559.523 309.531 559.655 309.559 559.799C309.588 559.942 309.573 560.091 309.517 560.226C309.461 560.362 309.366 560.477 309.245 560.558C309.123 560.64 308.98 560.683 308.833 560.683C308.637 560.683 308.449 560.605 308.31 560.466C308.171 560.328 308.093 560.139 308.093 559.943V559.943ZM303.16 559.943C303.16 559.797 303.203 559.654 303.285 559.532C303.366 559.41 303.482 559.315 303.617 559.259C303.752 559.203 303.901 559.189 304.044 559.217C304.188 559.246 304.32 559.316 304.423 559.42C304.527 559.523 304.597 559.655 304.626 559.799C304.654 559.942 304.64 560.091 304.584 560.226C304.528 560.362 304.433 560.477 304.311 560.558C304.19 560.64 304.046 560.683 303.9 560.683C303.704 560.683 303.516 560.605 303.377 560.466C303.238 560.328 303.16 560.139 303.16 559.943ZM298.227 559.943C298.227 559.797 298.27 559.654 298.351 559.532C298.433 559.41 298.548 559.315 298.684 559.259C298.819 559.203 298.968 559.189 299.111 559.217C299.255 559.246 299.387 559.316 299.49 559.42C299.594 559.523 299.664 559.655 299.693 559.799C299.721 559.942 299.706 560.091 299.65 560.226C299.594 560.362 299.5 560.477 299.378 560.558C299.256 560.64 299.113 560.683 298.967 560.683C298.77 560.683 298.582 560.605 298.443 560.466C298.305 560.328 298.227 560.139 298.227 559.943ZM293.293 559.943C293.293 559.797 293.337 559.654 293.418 559.532C293.499 559.41 293.615 559.315 293.75 559.259C293.885 559.203 294.034 559.189 294.178 559.217C294.321 559.246 294.453 559.316 294.557 559.42C294.66 559.523 294.731 559.655 294.759 559.799C294.788 559.942 294.773 560.091 294.717 560.226C294.661 560.362 294.566 560.477 294.445 560.558C294.323 560.64 294.18 560.683 294.033 560.683C293.837 560.683 293.649 560.605 293.51 560.466C293.371 560.328 293.293 560.139 293.293 559.943ZM288.36 559.943C288.36 559.797 288.403 559.654 288.485 559.532C288.566 559.41 288.682 559.315 288.817 559.259C288.952 559.203 289.101 559.189 289.244 559.217C289.388 559.246 289.52 559.316 289.623 559.42C289.727 559.523 289.797 559.655 289.826 559.799C289.854 559.942 289.84 560.091 289.784 560.226C289.728 560.362 289.633 560.477 289.511 560.558C289.39 560.64 289.246 560.683 289.1 560.683C288.904 560.683 288.716 560.605 288.577 560.466C288.438 560.328 288.36 560.139 288.36 559.943ZM283.427 559.943C283.427 559.797 283.47 559.654 283.551 559.532C283.633 559.41 283.748 559.315 283.884 559.259C284.019 559.203 284.168 559.189 284.311 559.217C284.455 559.246 284.587 559.316 284.69 559.42C284.794 559.523 284.864 559.655 284.893 559.799C284.921 559.942 284.906 560.091 284.85 560.226C284.794 560.362 284.7 560.477 284.578 560.558C284.456 560.64 284.313 560.683 284.167 560.683C283.97 560.683 283.782 560.605 283.643 560.466C283.505 560.328 283.427 560.139 283.427 559.943V559.943ZM305.627 557.476C305.627 557.33 305.67 557.187 305.751 557.065C305.833 556.944 305.948 556.849 306.084 556.793C306.219 556.737 306.368 556.722 306.511 556.751C306.655 556.779 306.787 556.85 306.89 556.953C306.994 557.057 307.064 557.189 307.093 557.332C307.121 557.476 307.106 557.624 307.05 557.76C306.994 557.895 306.9 558.01 306.778 558.092C306.656 558.173 306.513 558.216 306.367 558.216C306.17 558.216 305.982 558.138 305.843 558C305.705 557.861 305.627 557.673 305.627 557.476ZM300.693 557.476C300.693 557.33 300.737 557.187 300.818 557.065C300.899 556.944 301.015 556.849 301.15 556.793C301.285 556.737 301.434 556.722 301.578 556.751C301.721 556.779 301.853 556.85 301.957 556.953C302.06 557.057 302.131 557.189 302.159 557.332C302.188 557.476 302.173 557.624 302.117 557.76C302.061 557.895 301.966 558.01 301.845 558.092C301.723 558.173 301.58 558.216 301.433 558.216C301.237 558.216 301.049 558.138 300.91 558C300.771 557.861 300.693 557.673 300.693 557.476ZM295.76 557.476C295.76 557.33 295.803 557.187 295.885 557.065C295.966 556.944 296.082 556.849 296.217 556.793C296.352 556.737 296.501 556.722 296.644 556.751C296.788 556.779 296.92 556.85 297.023 556.953C297.127 557.057 297.197 557.189 297.226 557.332C297.254 557.476 297.24 557.624 297.184 557.76C297.128 557.895 297.033 558.01 296.911 558.092C296.79 558.173 296.646 558.216 296.5 558.216C296.304 558.216 296.116 558.138 295.977 558C295.838 557.861 295.76 557.673 295.76 557.476V557.476ZM290.827 557.476C290.827 557.33 290.87 557.187 290.951 557.065C291.033 556.944 291.148 556.849 291.284 556.793C291.419 556.737 291.568 556.722 291.711 556.751C291.855 556.779 291.987 556.85 292.09 556.953C292.194 557.057 292.264 557.189 292.293 557.332C292.321 557.476 292.306 557.624 292.25 557.76C292.194 557.895 292.1 558.01 291.978 558.092C291.856 558.173 291.713 558.216 291.567 558.216C291.37 558.216 291.182 558.138 291.043 558C290.905 557.861 290.827 557.673 290.827 557.476ZM285.893 557.476C285.893 557.33 285.937 557.187 286.018 557.065C286.099 556.944 286.215 556.849 286.35 556.793C286.485 556.737 286.634 556.722 286.778 556.751C286.921 556.779 287.053 556.85 287.157 556.953C287.26 557.057 287.331 557.189 287.359 557.332C287.388 557.476 287.373 557.624 287.317 557.76C287.261 557.895 287.166 558.01 287.045 558.092C286.923 558.173 286.78 558.216 286.633 558.216C286.437 558.216 286.249 558.138 286.11 558C285.971 557.861 285.893 557.673 285.893 557.476ZM308.093 555.01C308.093 554.863 308.137 554.72 308.218 554.599C308.299 554.477 308.415 554.382 308.55 554.326C308.685 554.27 308.834 554.255 308.978 554.284C309.121 554.313 309.253 554.383 309.357 554.487C309.46 554.59 309.531 554.722 309.559 554.865C309.588 555.009 309.573 555.158 309.517 555.293C309.461 555.428 309.366 555.544 309.245 555.625C309.123 555.706 308.98 555.75 308.833 555.75C308.637 555.75 308.449 555.672 308.31 555.533C308.171 555.394 308.093 555.206 308.093 555.01V555.01ZM303.16 555.01C303.16 554.863 303.203 554.72 303.285 554.599C303.366 554.477 303.482 554.382 303.617 554.326C303.752 554.27 303.901 554.255 304.044 554.284C304.188 554.313 304.32 554.383 304.423 554.487C304.527 554.59 304.597 554.722 304.626 554.865C304.654 555.009 304.64 555.158 304.584 555.293C304.528 555.428 304.433 555.544 304.311 555.625C304.19 555.706 304.046 555.75 303.9 555.75C303.704 555.75 303.516 555.672 303.377 555.533C303.238 555.394 303.16 555.206 303.16 555.01V555.01ZM288.36 555.01C288.36 554.863 288.403 554.72 288.485 554.599C288.566 554.477 288.682 554.382 288.817 554.326C288.952 554.27 289.101 554.255 289.244 554.284C289.388 554.313 289.52 554.383 289.623 554.487C289.727 554.59 289.797 554.722 289.826 554.865C289.854 555.009 289.84 555.158 289.784 555.293C289.728 555.428 289.633 555.544 289.511 555.625C289.39 555.706 289.246 555.75 289.1 555.75C288.904 555.75 288.716 555.672 288.577 555.533C288.438 555.394 288.36 555.206 288.36 555.01V555.01ZM283.427 555.01C283.427 554.863 283.47 554.72 283.551 554.599C283.633 554.477 283.748 554.382 283.884 554.326C284.019 554.27 284.168 554.255 284.311 554.284C284.455 554.313 284.587 554.383 284.69 554.487C284.794 554.59 284.864 554.722 284.893 554.865C284.921 555.009 284.906 555.158 284.85 555.293C284.794 555.428 284.7 555.544 284.578 555.625C284.456 555.706 284.313 555.75 284.167 555.75C283.97 555.75 283.782 555.672 283.643 555.533C283.505 555.394 283.427 555.206 283.427 555.01V555.01Z" fill="white"/>
</g>
<path d="M297.84 534.5C297.347 532.341 299.686 530.685 302.095 531.822C307.769 534.5 304.394 538.237 302.297 537.99C300.2 537.743 298.334 536.658 297.84 534.5Z" fill="url(#paint25_linear_138_1077)"/>
<path opacity="0.6" d="M299.892 534.845C299.892 534.845 304.085 537.558 305.134 536.078C305.242 536.696 304.745 538.442 303.962 538.422C301.622 538.361 299.892 534.845 299.892 534.845Z" fill="black"/>
<path d="M299.214 548.103C296.564 549.376 296.178 549.308 290.334 544.527C281.515 537.312 289.84 530.713 298.782 534.228C308.464 538.483 305.22 545.218 299.214 548.103Z" fill="url(#paint26_linear_138_1077)"/>
<path d="M299.46 553.16C298.556 554.64 294.445 554.64 293.54 553.16V550.693C293.54 550.693 293.138 550.706 292.862 550.693C289.977 550.57 289.013 545.929 289.466 541.288C289.797 537.888 292.677 542.553 297.364 539.285C297.179 542.862 298.72 542.492 299.399 542.06C302.482 540.642 302.508 546.456 299.46 546.007V553.16Z" fill="url(#paint27_linear_138_1077)"/>
<path d="M293.54 550.693C295.205 550.569 297.686 548.831 297.686 548.831C297.686 548.831 296.499 551.37 293.54 551.802L293.54 550.693Z" fill="#DB6F3D"/>
<path d="M299.46 552.847V552.05C299.686 552.05 300.334 552.584 300.667 553.036C301.984 554.825 300.523 556.428 299.332 556.428C297.829 556.428 296.833 555.172 296.5 554.568C296.167 555.173 295.171 556.428 293.668 556.428C292.477 556.428 291.016 554.825 292.333 553.036C292.666 552.584 293.314 552.05 293.54 552.05V552.847C293.54 553.79 295.605 554.226 296.496 554.267C297.34 554.226 299.46 553.79 299.46 552.847Z" fill="white"/>
</g>
<path d="M451.209 535H350.949C349.32 535 348 536.32 348 537.949V546.795C348 548.424 349.32 549.744 350.949 549.744H451.209C452.837 549.744 454.157 548.424 454.157 546.795V537.949C454.157 536.32 452.837 535 451.209 535Z" fill="#E6ECF2"/>
<path d="M745.639 565H359.361C353.087 565 348 566.343 348 568V577C348 578.657 353.087 580 359.361 580H745.639C751.913 580 757 578.657 757 577V568C757 566.343 751.913 565 745.639 565Z" fill="#E6ECF2" fill-opacity="0.4"/>
<path d="M1051.21 192H950.949C949.32 192 948 193.32 948 194.949V203.795C948 205.424 949.32 206.744 950.949 206.744H1051.21C1052.84 206.744 1054.16 205.424 1054.16 203.795V194.949C1054.16 193.32 1052.84 192 1051.21 192Z" fill="#E6ECF2"/>
<path d="M1134.67 223H953.333C950.388 223 948 224.343 948 226V235C948 236.657 950.388 238 953.333 238H1134.67C1137.61 238 1140 236.657 1140 235V226C1140 224.343 1137.61 223 1134.67 223Z" fill="#E6ECF2" fill-opacity="0.4"/>
<g clip-path="url(#clip5_138_1077)">
<path d="M278 252.5C278 242.283 286.283 234 296.5 234V234C306.717 234 315 242.283 315 252.5V252.5C315 262.717 306.717 271 296.5 271V271C286.283 271 278 262.717 278 252.5V252.5Z" fill="url(#paint28_linear_138_1077)"/>
<path d="M300.324 255.46V256.94C300.324 258.913 303.16 259.777 303.16 259.777C303.16 259.777 299.892 262.243 296.5 262.243C293.109 262.243 289.84 259.777 289.84 259.777C289.84 259.777 292.699 258.913 292.677 256.94C292.655 254.967 292.67 253.807 292.655 250.427C290.887 248.135 291.001 246.598 291.967 245.516C295.205 241.893 304.024 243.127 304.024 243.127C304.024 243.127 304.847 252.006 302.975 254.597C302.174 255.707 300.324 255.46 300.324 255.46Z" fill="url(#paint29_linear_138_1077)"/>
<path style="mix-blend-mode:multiply" opacity="0.6" d="M300.324 255.46C297.61 255.152 296.007 253.98 296.007 253.98C297.019 255.478 298.562 256.535 300.324 256.94V255.46Z" fill="url(#paint30_linear_138_1077)"/>
<path d="M309.45 263.515C310.624 265.902 311.3 271.408 311.3 271.408H281.7C281.7 271.408 282.376 265.902 283.55 263.515C284.724 261.128 291.579 258.914 291.579 258.914C292.9 261.627 300.152 261.627 301.418 258.914C301.418 258.914 308.276 261.128 309.45 263.515Z" fill="url(#paint31_linear_138_1077)"/>
<path d="M296.007 268.287C296.007 268.189 296.036 268.094 296.09 268.012C296.144 267.931 296.221 267.868 296.311 267.831C296.402 267.793 296.501 267.784 296.596 267.803C296.692 267.822 296.78 267.869 296.849 267.938C296.918 268.007 296.965 268.095 296.984 268.19C297.003 268.286 296.993 268.385 296.956 268.475C296.919 268.565 296.855 268.643 296.774 268.697C296.693 268.751 296.598 268.78 296.5 268.78C296.369 268.78 296.244 268.728 296.151 268.635C296.059 268.543 296.007 268.417 296.007 268.287ZM296.007 265.82C296.007 265.722 296.036 265.627 296.09 265.546C296.144 265.465 296.221 265.401 296.311 265.364C296.402 265.327 296.501 265.317 296.596 265.336C296.692 265.355 296.78 265.402 296.849 265.471C296.918 265.54 296.965 265.628 296.984 265.724C297.003 265.819 296.993 265.919 296.956 266.009C296.919 266.099 296.855 266.176 296.774 266.23C296.693 266.284 296.598 266.313 296.5 266.313C296.369 266.313 296.244 266.261 296.151 266.169C296.059 266.076 296.007 265.951 296.007 265.82ZM296.007 263.353C296.007 263.256 296.036 263.16 296.09 263.079C296.144 262.998 296.221 262.935 296.311 262.897C296.402 262.86 296.501 262.85 296.596 262.869C296.692 262.888 296.78 262.935 296.849 263.004C296.918 263.073 296.965 263.161 296.984 263.257C297.003 263.353 296.993 263.452 296.956 263.542C296.919 263.632 296.855 263.709 296.774 263.763C296.693 263.818 296.598 263.847 296.5 263.847C296.369 263.847 296.244 263.795 296.151 263.702C296.059 263.61 296.007 263.484 296.007 263.353V263.353Z" fill="white"/>
<path d="M294.176 246.729C293.784 246.392 293.307 246.165 292.634 246.516C291.037 247.345 292.245 250.527 293.664 250.527C294.034 250.527 294.218 251.689 292.57 252.5C292.57 251.205 290.597 247.998 290.424 245.079C288.439 244.339 288.932 241.381 290.295 241.381C290.077 238.669 294.42 237.268 296.102 238.825C297.812 236.775 302.129 237.823 302.389 239.602C305.357 238.017 307.309 242.572 304.529 244.34C303.386 245.067 300.71 245.344 296.848 245.344C296.265 245.344 295.939 245.489 296.102 246.21C296.417 247.607 295.685 248.487 294.176 246.729Z" fill="url(#paint32_linear_138_1077)"/>
</g>
<line x1="833" y1="270.5" x2="1192" y2="270.5" stroke="#CEDDE9"/>
<g clip-path="url(#clip6_138_1077)">
<path d="M849 212.5C849 190.685 866.685 173 888.5 173V173C910.315 173 928 190.685 928 212.5V212.5C928 234.315 910.315 252 888.5 252V252C866.685 252 849 234.315 849 212.5V212.5Z" fill="url(#paint33_linear_138_1077)"/>
<path d="M896.663 218.82V221.98C896.663 226.193 902.72 228.037 902.72 228.037C902.72 228.037 895.741 233.303 888.5 233.303C881.258 233.303 874.28 228.037 874.28 228.037C874.28 228.037 880.384 226.193 880.336 221.98C880.289 217.767 880.321 215.291 880.289 208.073C876.515 203.181 876.757 199.898 878.821 197.589C885.735 189.853 904.563 192.487 904.563 192.487C904.563 192.487 906.32 211.445 902.325 216.977C900.613 219.347 896.663 218.82 896.663 218.82Z" fill="url(#paint34_linear_138_1077)"/>
<path style="mix-blend-mode:multiply" opacity="0.6" d="M896.663 218.82C890.87 218.162 887.447 215.66 887.447 215.66C889.608 218.858 892.902 221.116 896.663 221.98V218.82Z" fill="url(#paint35_linear_138_1077)"/>
<path d="M916.15 236.018C918.657 241.115 920.1 252.871 920.1 252.871H856.9C856.9 252.871 858.343 241.114 860.85 236.018C863.356 230.922 877.993 226.195 877.993 226.195C880.814 231.987 896.297 231.987 898.999 226.193C898.999 226.193 913.643 230.92 916.15 236.018Z" fill="url(#paint36_linear_138_1077)"/>
<path d="M887.447 246.207C887.447 245.998 887.509 245.795 887.624 245.622C887.74 245.448 887.905 245.313 888.097 245.234C888.289 245.154 888.501 245.133 888.706 245.174C888.91 245.214 889.098 245.315 889.245 245.462C889.392 245.609 889.493 245.797 889.533 246.001C889.574 246.206 889.553 246.417 889.473 246.61C889.394 246.802 889.259 246.967 889.085 247.083C888.912 247.198 888.708 247.26 888.5 247.26C888.221 247.26 887.953 247.149 887.755 246.952C887.558 246.754 887.447 246.486 887.447 246.207ZM887.447 240.94C887.447 240.732 887.509 240.528 887.624 240.355C887.74 240.182 887.905 240.047 888.097 239.967C888.289 239.887 888.501 239.866 888.706 239.907C888.91 239.948 889.098 240.048 889.245 240.195C889.392 240.343 889.493 240.53 889.533 240.735C889.574 240.939 889.553 241.151 889.473 241.343C889.394 241.536 889.259 241.7 889.085 241.816C888.912 241.932 888.708 241.993 888.5 241.993C888.221 241.993 887.953 241.882 887.755 241.685C887.558 241.487 887.447 241.219 887.447 240.94ZM887.447 235.673C887.447 235.465 887.509 235.261 887.624 235.088C887.74 234.915 887.905 234.78 888.097 234.7C888.289 234.621 888.501 234.6 888.706 234.64C888.91 234.681 889.098 234.781 889.245 234.929C889.392 235.076 889.493 235.264 889.533 235.468C889.574 235.672 889.553 235.884 889.473 236.077C889.394 236.269 889.259 236.434 889.085 236.549C888.912 236.665 888.708 236.727 888.5 236.727C888.221 236.727 887.953 236.616 887.755 236.418C887.558 236.221 887.447 235.953 887.447 235.673V235.673Z" fill="white"/>
<path d="M883.537 200.178C882.7 199.459 881.682 198.975 880.244 199.722C876.834 201.493 879.415 208.287 882.443 208.287C883.233 208.287 883.626 210.768 880.109 212.5C880.109 209.735 875.895 202.888 875.527 196.655C871.287 195.076 872.34 188.76 875.251 188.76C874.787 182.969 884.059 179.978 887.649 183.301C891.3 178.925 900.517 181.163 901.074 184.96C907.411 181.577 911.577 191.302 905.643 195.077C903.201 196.631 897.489 197.222 889.243 197.222C887.998 197.222 887.301 197.531 887.649 199.07C888.323 202.053 886.758 203.931 883.537 200.178Z" fill="url(#paint37_linear_138_1077)"/>
</g>
<path d="M147.606 26.1243V36.9787H151.136V29.7518H163.984V36.9787H167.512V26.1431L147.606 26.1243V26.1243ZM150.743 22.6132H164.317C166.202 22.2436 167.605 20.603 168 19.0159H147.06C147.452 20.6035 148.874 22.2436 150.743 22.6132V22.6132ZM136.914 36.9856C138.694 36.2416 139.652 34.9546 140.018 33.4487H124.185L124.195 19.0248L120.645 19.0347V36.9856H136.914V36.9856ZM94.2512 22.5646H106.788C108.678 22.0232 110.265 20.6035 110.652 19.0297H90.7371V29.6379H107.036V33.3606L94.2512 33.3705C92.2477 33.9213 90.5487 35.2479 89.7011 37L90.7371 36.9812H110.538V26.1109H94.2512V22.5646V22.5646ZM63.3029 22.5988H76.8728C78.7608 22.2278 80.1639 20.5886 80.5573 19H59.6185C60.0093 20.5886 61.4331 22.2278 63.3029 22.5988V22.5988ZM63.3029 29.6934H76.8728C78.7608 29.3263 80.1639 27.6857 80.5573 26.0961H59.6185C60.0093 27.6862 61.4331 29.3263 63.3029 29.6934ZM63.3029 36.9837H76.8728C78.7608 36.6136 80.1639 34.9735 80.5573 33.3858H59.6185C60.0093 34.974 61.4331 36.6136 63.3029 36.9837ZM28 19.0436C28.4079 20.6124 29.7855 22.2159 31.6754 22.6176H37.3875L37.6789 22.7311V36.9435H41.2458V22.7311L41.5699 22.6176H47.287C49.198 22.1322 50.5459 20.6124 50.9468 19.0436V19.0089H28V19.0436" fill="black"/>
<defs>
<linearGradient id="paint0_linear_138_1077" x1="1192" y1="12" x2="1192" y2="45.57" gradientUnits="userSpaceOnUse">
<stop offset="0.0120133" stop-color="#4285F4"/>
</linearGradient>
<linearGradient id="paint1_linear_138_1077" x1="1190.7" y1="21" x2="1190.7" y2="36.1184" gradientUnits="userSpaceOnUse">
<stop stop-color="white"/>
<stop offset="1" stop-color="white"/>
</linearGradient>
<linearGradient id="paint2_linear_138_1077" x1="1191.06" y1="33.72" x2="1191.06" y2="15.8394" gradientUnits="userSpaceOnUse">
<stop stop-color="#0D0E11"/>
<stop offset="1"/>
</linearGradient>
<linearGradient id="paint3_linear_138_1077" x1="296.5" y1="167" x2="296.5" y2="204" gradientUnits="userSpaceOnUse">
<stop stop-color="#806A6A"/>
<stop offset="1" stop-color="#665654"/>
</linearGradient>
<linearGradient id="paint4_linear_138_1077" x1="294.664" y1="171.359" x2="293.904" y2="193.044" gradientUnits="userSpaceOnUse">
<stop stop-color="#1D0024"/>
<stop offset="1" stop-color="#100014"/>
</linearGradient>
<linearGradient id="paint5_linear_138_1077" x1="297.346" y1="176.743" x2="297.346" y2="196.37" gradientUnits="userSpaceOnUse">
<stop stop-color="#E6864E"/>
<stop offset="1" stop-color="#EB965E"/>
</linearGradient>
<linearGradient id="paint6_linear_138_1077" x1="296.12" y1="187.672" x2="296.76" y2="190.55" gradientUnits="userSpaceOnUse">
<stop stop-color="#E68349"/>
<stop offset="1" stop-color="#F09960"/>
</linearGradient>
<linearGradient id="paint7_linear_138_1077" x1="296.5" y1="204.493" x2="296.5" y2="192.16" gradientUnits="userSpaceOnUse">
<stop stop-color="#FFC9B3"/>
<stop offset="1" stop-color="#FFD2C2"/>
</linearGradient>
<linearGradient id="paint8_linear_138_1077" x1="288.795" y1="205.48" x2="288.795" y2="192.987" gradientUnits="userSpaceOnUse">
<stop stop-color="#FCF2EB"/>
<stop offset="1" stop-color="#FFF9F5"/>
</linearGradient>
<linearGradient id="paint9_linear_138_1077" x1="296.5" y1="339" x2="296.5" y2="302" gradientUnits="userSpaceOnUse">
<stop stop-color="#FFC9B3"/>
<stop offset="1" stop-color="#FFD2C2"/>
</linearGradient>
<linearGradient id="paint10_linear_138_1077" x1="295.899" y1="308.049" x2="295.899" y2="330.833" gradientUnits="userSpaceOnUse">
<stop stop-color="#E6864E"/>
<stop offset="1" stop-color="#EB965E"/>
</linearGradient>
<linearGradient id="paint11_linear_138_1077" x1="296.5" y1="327.037" x2="296.5" y2="339.531" gradientUnits="userSpaceOnUse">
<stop stop-color="#1D0024"/>
<stop offset="1" stop-color="#100014"/>
</linearGradient>
<linearGradient id="paint12_linear_138_1077" x1="296.5" y1="327.037" x2="296.5" y2="339.531" gradientUnits="userSpaceOnUse">
<stop stop-color="#1D0024"/>
<stop offset="1" stop-color="#100014"/>
</linearGradient>
<linearGradient id="paint13_linear_138_1077" x1="296.5" y1="377" x2="296.5" y2="414" gradientUnits="userSpaceOnUse">
<stop stop-color="#FFDEDE"/>
<stop offset="1" stop-color="#FFA89D"/>
</linearGradient>
<linearGradient id="paint14_linear_138_1077" x1="296.5" y1="414" x2="296.5" y2="400.063" gradientUnits="userSpaceOnUse">
<stop stop-color="#FF2424"/>
<stop offset="0.822917" stop-color="#9D645A"/>
<stop offset="1" stop-color="#FFD2C2"/>
<stop offset="1" stop-color="#4D2F2F"/>
</linearGradient>
<linearGradient id="paint15_linear_138_1077" x1="296.949" y1="381.851" x2="296.949" y2="398.634" gradientUnits="userSpaceOnUse">
<stop stop-color="#1D0024"/>
<stop offset="1" stop-color="#100014"/>
</linearGradient>
<linearGradient id="paint16_linear_138_1077" x1="297.777" y1="388.184" x2="297.777" y2="402.407" gradientUnits="userSpaceOnUse">
<stop stop-color="#E6864E"/>
<stop offset="1" stop-color="#EB965E"/>
</linearGradient>
<linearGradient id="paint17_linear_138_1077" x1="296.5" y1="489" x2="296.5" y2="452" gradientUnits="userSpaceOnUse">
<stop stop-color="#FFC9B3"/>
<stop offset="1" stop-color="#FFD2C2"/>
</linearGradient>
<linearGradient id="paint18_linear_138_1077" x1="297.832" y1="461.25" x2="297.832" y2="477.502" gradientUnits="userSpaceOnUse">
<stop stop-color="#E6864E"/>
<stop offset="1" stop-color="#EB965E"/>
</linearGradient>
<linearGradient id="paint19_linear_138_1077" x1="296.5" y1="477.368" x2="296.5" y2="489.901" gradientUnits="userSpaceOnUse">
<stop stop-color="#130027"/>
<stop offset="1" stop-color="#130017"/>
</linearGradient>
<linearGradient id="paint20_linear_138_1077" x1="296.5" y1="489.493" x2="296.5" y2="477.53" gradientUnits="userSpaceOnUse">
<stop stop-color="#E6864E"/>
<stop offset="1" stop-color="#E67240"/>
</linearGradient>
<linearGradient id="paint21_linear_138_1077" x1="297.468" y1="455.946" x2="297.468" y2="474.323" gradientUnits="userSpaceOnUse">
<stop stop-color="#130027"/>
<stop offset="1" stop-color="#130017"/>
</linearGradient>
<linearGradient id="paint22_linear_138_1077" x1="296.5" y1="565" x2="296.5" y2="528" gradientUnits="userSpaceOnUse">
<stop stop-color="#EBE8FF"/>
<stop offset="1" stop-color="#73CDFF"/>
</linearGradient>
<linearGradient id="paint23_linear_138_1077" x1="306.333" y1="563.924" x2="296.568" y2="547.349" gradientUnits="userSpaceOnUse">
<stop stop-color="#7182AD"/>
<stop offset="1" stop-color="#C5C2DF"/>
</linearGradient>
<linearGradient id="paint24_linear_138_1077" x1="306.333" y1="563.924" x2="296.568" y2="547.349" gradientUnits="userSpaceOnUse">
<stop stop-color="#E2834C"/>
<stop offset="1" stop-color="#DF6638"/>
</linearGradient>
<linearGradient id="paint25_linear_138_1077" x1="301.498" y1="531.453" x2="301.498" y2="538.002" gradientUnits="userSpaceOnUse">
<stop stop-color="#1D0024"/>
<stop offset="1" stop-color="#100014"/>
</linearGradient>
<linearGradient id="paint26_linear_138_1077" x1="295.753" y1="533.255" x2="295.753" y2="548.804" gradientUnits="userSpaceOnUse">
<stop stop-color="#1D0024"/>
<stop offset="1" stop-color="#100014"/>
</linearGradient>
<linearGradient id="paint27_linear_138_1077" x1="295.544" y1="539.285" x2="295.544" y2="554.27" gradientUnits="userSpaceOnUse">
<stop stop-color="#FFE8DB"/>
<stop offset="1" stop-color="#FFE7D7"/>
</linearGradient>
<linearGradient id="paint28_linear_138_1077" x1="296.5" y1="271" x2="296.5" y2="234" gradientUnits="userSpaceOnUse">
<stop stop-color="white"/>
<stop offset="1" stop-color="#D0D2FF"/>
</linearGradient>
<linearGradient id="paint29_linear_138_1077" x1="297.022" y1="242.924" x2="297.022" y2="262.243" gradientUnits="userSpaceOnUse">
<stop stop-color="#FFEADB"/>
<stop offset="1" stop-color="#FFEADB"/>
</linearGradient>
<linearGradient id="paint30_linear_138_1077" x1="299.508" y1="254.536" x2="298.752" y2="257.399" gradientUnits="userSpaceOnUse">
<stop stop-color="#3F45E0"/>
<stop offset="1" stop-color="#5754EB"/>
</linearGradient>
<linearGradient id="paint31_linear_138_1077" x1="296.5" y1="258.914" x2="296.5" y2="271.408" gradientUnits="userSpaceOnUse">
<stop stop-color="#1D0024"/>
<stop offset="1" stop-color="#100014"/>
</linearGradient>
<linearGradient id="paint32_linear_138_1077" x1="297.485" y1="237.7" x2="297.485" y2="252.5" gradientUnits="userSpaceOnUse">
<stop stop-color="#1D0024"/>
<stop offset="1" stop-color="#100014"/>
</linearGradient>
<linearGradient id="paint33_linear_138_1077" x1="888.5" y1="252" x2="888.5" y2="173" gradientUnits="userSpaceOnUse">
<stop stop-color="white"/>
<stop offset="1" stop-color="#D0D2FF"/>
</linearGradient>
<linearGradient id="paint34_linear_138_1077" x1="889.614" y1="192.055" x2="889.614" y2="233.303" gradientUnits="userSpaceOnUse">
<stop stop-color="#FFEADB"/>
<stop offset="1" stop-color="#FFEADB"/>
</linearGradient>
<linearGradient id="paint35_linear_138_1077" x1="894.921" y1="216.848" x2="893.307" y2="222.961" gradientUnits="userSpaceOnUse">
<stop stop-color="#9A9BAA"/>
<stop offset="1" stop-color="#BCBCE3"/>
</linearGradient>
<linearGradient id="paint36_linear_138_1077" x1="888.5" y1="226.193" x2="888.5" y2="252.871" gradientUnits="userSpaceOnUse">
<stop stop-color="#1D0024"/>
<stop offset="1" stop-color="#100014"/>
</linearGradient>
<linearGradient id="paint37_linear_138_1077" x1="890.602" y1="180.899" x2="890.602" y2="212.5" gradientUnits="userSpaceOnUse">
<stop stop-color="#1D0024"/>
<stop offset="1" stop-color="#100014"/>
</linearGradient>
<clipPath id="clip0_138_1077">
<path d="M1210 30C1210 20.0589 1201.94 12 1192 12V12C1182.06 12 1174 20.0589 1174 30V30C1174 39.9411 1182.06 48 1192 48V48C1201.94 48 1210 39.9411 1210 30V30Z" fill="white"/>
</clipPath>
<clipPath id="clip1_138_1077">
<path d="M278 185.5C278 175.283 286.283 167 296.5 167V167C306.717 167 315 175.283 315 185.5V185.5C315 195.717 306.717 204 296.5 204V204C286.283 204 278 195.717 278 185.5V185.5Z" fill="white"/>
</clipPath>
<clipPath id="clip2_138_1077">
<path d="M278 320.5C278 310.283 286.283 302 296.5 302V302C306.717 302 315 310.283 315 320.5V320.5C315 330.717 306.717 339 296.5 339V339C286.283 339 278 330.717 278 320.5V320.5Z" fill="white"/>
</clipPath>
<clipPath id="clip3_138_1077">
<path d="M278 470.5C278 460.283 286.283 452 296.5 452V452C306.717 452 315 460.283 315 470.5V470.5C315 480.717 306.717 489 296.5 489V489C286.283 489 278 480.717 278 470.5V470.5Z" fill="white"/>
</clipPath>
<clipPath id="clip4_138_1077">
<path d="M278 546.5C278 536.283 286.283 528 296.5 528V528C306.717 528 315 536.283 315 546.5V546.5C315 556.717 306.717 565 296.5 565V565C286.283 565 278 556.717 278 546.5V546.5Z" fill="white"/>
</clipPath>
<clipPath id="clip5_138_1077">
<path d="M278 252.5C278 242.283 286.283 234 296.5 234V234C306.717 234 315 242.283 315 252.5V252.5C315 262.717 306.717 271 296.5 271V271C286.283 271 278 262.717 278 252.5V252.5Z" fill="white"/>
</clipPath>
<clipPath id="clip6_138_1077">
<path d="M849 212.5C849 190.685 866.685 173 888.5 173V173C910.315 173 928 190.685 928 212.5V212.5C928 234.315 910.315 252 888.5 252V252C866.685 252 849 234.315 849 212.5V212.5Z" fill="white"/>
</clipPath>
</defs>
</svg>
