<svg width="708" height="736" viewBox="0 0 708 736" fill="none" xmlns="http://www.w3.org/2000/svg">
<path d="M699.571 0H8.42857C3.7736 0 0 4.87453 0 10.8876V725.112C0 731.125 3.7736 736 8.42857 736H699.571C704.226 736 708 731.125 708 725.112V10.8876C708 4.87453 704.226 0 699.571 0Z" fill="white"/>
<rect x="55" y="407" width="435" height="27" rx="1" fill="#5F5BFF"/>
<rect x="56" y="459" width="558" height="23" rx="1" fill="#CBD5E1"/>
<rect x="56" y="507" width="558" height="23" rx="1" fill="#CBD5E1"/>
<rect x="413" y="574" width="201" height="23" rx="1" fill="#CBD5E1"/>
<rect x="60" y="266" width="601" height="73" rx="11" stroke="#8EA6C2" stroke-width="2"/>
<path d="M78.2358 566.541C78.9239 564.486 81.9128 564.486 82.5986 566.541L86.0829 576.97C86.2328 577.417 86.5243 577.807 86.9157 578.083C87.3071 578.36 87.7783 578.509 88.262 578.509H99.536C101.759 578.509 102.681 581.276 100.885 582.548L91.7646 588.991C91.3729 589.268 91.0813 589.659 90.9317 590.107C90.7821 590.555 90.7822 591.038 90.932 591.486L94.414 601.914C95.1021 603.971 92.6821 605.68 90.8861 604.409L81.766 597.965C81.374 597.688 80.9018 597.538 80.4172 597.538C79.9326 597.538 79.4604 597.688 79.0684 597.965L69.9483 604.409C68.1523 605.68 65.7323 603.969 66.4205 601.914L69.9024 591.486C70.0522 591.038 70.0523 590.555 69.9027 590.107C69.7531 589.659 69.4616 589.268 69.0698 588.991L59.9497 582.548C58.1513 581.276 59.078 578.509 61.2984 578.509H72.5701C73.0542 578.509 73.526 578.36 73.9178 578.084C74.3096 577.807 74.6015 577.417 74.7515 576.97L78.2358 566.541Z" fill="#FF9900" stroke="#FF9900" stroke-width="4.42" stroke-linecap="round" stroke-linejoin="round"/>
<path d="M132.027 566.541C132.715 564.486 135.704 564.486 136.39 566.541L139.874 576.97C140.024 577.417 140.316 577.807 140.707 578.083C141.099 578.36 141.57 578.509 142.053 578.509H153.328C155.55 578.509 156.472 581.276 154.676 582.548L145.556 588.991C145.164 589.268 144.873 589.659 144.723 590.107C144.574 590.555 144.574 591.038 144.723 591.486L148.205 601.914C148.894 603.971 146.474 605.68 144.678 604.409L135.557 597.965C135.165 597.688 134.693 597.538 134.209 597.538C133.724 597.538 133.252 597.688 132.86 597.965L123.74 604.409C121.944 605.68 119.524 603.969 120.212 601.914L123.694 591.486C123.844 591.038 123.844 590.555 123.694 590.107C123.545 589.659 123.253 589.268 122.861 588.991L113.741 582.548C111.943 581.276 112.87 578.509 115.09 578.509H126.362C126.846 578.509 127.317 578.36 127.709 578.084C128.101 577.807 128.393 577.417 128.543 576.97L132.027 566.541Z" fill="#FF9900" stroke="#FF9900" stroke-width="4.42" stroke-linecap="round" stroke-linejoin="round"/>
<path d="M185.819 566.541C186.507 564.486 189.496 564.486 190.182 566.541L193.666 576.97C193.816 577.417 194.107 577.807 194.499 578.083C194.89 578.36 195.361 578.509 195.845 578.509H207.119C209.342 578.509 210.264 581.276 208.468 582.548L199.348 588.991C198.956 589.268 198.664 589.659 198.515 590.107C198.365 590.555 198.365 591.038 198.515 591.486L201.997 601.914C202.685 603.971 200.265 605.68 198.469 604.409L189.349 597.965C188.957 597.688 188.485 597.538 188 597.538C187.516 597.538 187.043 597.688 186.651 597.965L177.531 604.409C175.735 605.68 173.315 603.969 174.003 601.914L177.485 591.486C177.635 591.038 177.635 590.555 177.486 590.107C177.336 589.659 177.045 589.268 176.653 588.991L167.533 582.548C165.734 581.276 166.661 578.509 168.881 578.509H180.153C180.637 578.509 181.109 578.36 181.501 578.084C181.893 577.807 182.184 577.417 182.335 576.97L185.819 566.541Z" fill="#FF9900" stroke="#FF9900" stroke-width="4.42" stroke-linecap="round" stroke-linejoin="round"/>
<path d="M239.61 566.541C240.298 564.486 243.287 564.486 243.973 566.541L247.457 576.97C247.607 577.417 247.899 577.807 248.29 578.083C248.682 578.36 249.153 578.509 249.637 578.509H260.911C263.133 578.509 264.055 581.276 262.259 582.548L253.139 588.991C252.747 589.268 252.456 589.659 252.306 590.107C252.157 590.555 252.157 591.038 252.306 591.486L255.788 601.914C256.477 603.971 254.057 605.68 252.261 604.409L243.14 597.965C242.748 597.688 242.276 597.538 241.792 597.538C241.307 597.538 240.835 597.688 240.443 597.965L231.323 604.409C229.527 605.68 227.107 603.969 227.795 601.914L231.277 591.486C231.427 591.038 231.427 590.555 231.277 590.107C231.128 589.659 230.836 589.268 230.444 588.991L221.324 582.548C219.526 581.276 220.453 578.509 222.673 578.509H233.945C234.429 578.509 234.9 578.36 235.292 578.084C235.684 577.807 235.976 577.417 236.126 576.97L239.61 566.541Z" fill="#FF9900" stroke="#FF9900" stroke-width="4.42" stroke-linecap="round" stroke-linejoin="round"/>
<path d="M293.402 566.541C294.09 564.486 297.079 564.486 297.765 566.541L301.249 576.97C301.399 577.417 301.69 577.807 302.082 578.083C302.473 578.36 302.944 578.509 303.428 578.509H314.702C316.925 578.509 317.847 581.276 316.051 582.548L306.931 588.991C306.539 589.268 306.247 589.659 306.098 590.107C305.948 590.555 305.948 591.038 306.098 591.486L309.58 601.914C310.268 603.971 307.848 605.68 306.052 604.409L296.932 597.965C296.54 597.688 296.068 597.538 295.583 597.538C295.099 597.538 294.626 597.688 294.234 597.965L285.114 604.409C283.318 605.68 280.898 603.969 281.586 601.914L285.068 591.486C285.218 591.038 285.218 590.555 285.069 590.107C284.919 589.659 284.628 589.268 284.236 588.991L275.116 582.548C273.317 581.276 274.244 578.509 276.464 578.509H287.736C288.22 578.509 288.692 578.36 289.084 578.084C289.476 577.807 289.767 577.417 289.918 576.97L293.402 566.541Z" fill="#FF9900" stroke="#FF9900" stroke-width="4.42" stroke-linecap="round" stroke-linejoin="round"/>
<path d="M329.26 140.137C329.26 156.032 316.77 167.744 301.443 167.744C286.115 167.744 273.626 156.032 273.626 140.137C273.626 124.131 286.115 112.531 301.443 112.531C316.77 112.531 329.26 124.131 329.26 140.137ZM317.083 140.137C317.083 130.205 309.844 123.409 301.443 123.409C293.041 123.409 285.803 130.205 285.803 140.137C285.803 149.97 293.041 156.865 301.443 156.865C309.844 156.865 317.083 149.958 317.083 140.137Z" fill="#EA4335"/>
<path d="M389.269 140.137C389.269 156.032 376.779 167.744 361.452 167.744C346.125 167.744 333.635 156.032 333.635 140.137C333.635 124.144 346.125 112.531 361.452 112.531C376.779 112.531 389.269 124.131 389.269 140.137ZM377.092 140.137C377.092 130.205 369.853 123.409 361.452 123.409C353.051 123.409 345.812 130.205 345.812 140.137C345.812 149.97 353.051 156.865 361.452 156.865C369.853 156.865 377.092 149.958 377.092 140.137Z" fill="#FBBC05"/>
<path d="M446.778 114.199V163.761C446.778 184.148 434.701 192.475 420.424 192.475C406.984 192.475 398.895 183.526 395.845 176.207L406.447 171.814C408.334 176.307 412.96 181.609 420.411 181.609C429.55 181.609 435.214 175.996 435.214 165.429V161.458H434.788C432.063 164.806 426.812 167.731 420.186 167.731C406.322 167.731 393.62 155.708 393.62 140.237C393.62 124.654 406.322 112.531 420.186 112.531C426.8 112.531 432.051 115.456 434.788 118.705H435.214V114.211H446.778V114.199ZM436.076 140.237C436.076 130.516 429.563 123.409 421.274 123.409C412.873 123.409 405.834 130.516 405.834 140.237C405.834 149.858 412.873 156.865 421.274 156.865C429.563 156.865 436.076 149.858 436.076 140.237Z" fill="#4285F4"/>
<path d="M465.843 85.149V166.051H453.966V85.149H465.843Z" fill="#34A853"/>
<path d="M512.125 149.223L521.577 155.496C518.526 159.989 511.175 167.731 498.473 167.731C482.721 167.731 470.957 155.608 470.957 140.125C470.957 123.708 482.821 112.519 497.111 112.519C511.5 112.519 518.539 123.92 520.839 130.081L522.102 133.217L485.034 148.501C487.872 154.04 492.285 156.865 498.473 156.865C504.674 156.865 508.975 153.828 512.125 149.223ZM483.033 139.291L507.812 129.048C506.45 125.6 502.349 123.198 497.523 123.198C491.335 123.198 482.721 128.637 483.033 139.291V139.291Z" fill="#EA4335"/>
<path d="M228.669 132.956V121.244H268.313C268.7 123.285 268.9 125.7 268.9 128.313C268.9 137.1 266.488 147.966 258.711 155.708C251.148 163.549 241.484 167.731 228.682 167.731C204.953 167.731 185 148.489 185 124.866C185 101.242 204.953 82 228.682 82C241.809 82 251.16 87.1279 258.186 93.8117L249.885 102.076C244.847 97.3714 238.021 93.7121 228.669 93.7121C211.342 93.7121 197.789 107.615 197.789 124.866C197.789 142.116 211.342 156.019 228.669 156.019C239.908 156.019 246.309 151.526 250.41 147.443C253.736 144.133 255.923 139.403 256.786 132.943L228.669 132.956V132.956Z" fill="#4285F4"/>
<path d="M115.875 318.875L103.625 306.625L115.875 318.875ZM107.708 296.417C107.708 298.293 107.339 300.152 106.62 301.886C105.902 303.62 104.85 305.195 103.522 306.522C102.195 307.85 100.62 308.902 98.8859 309.62C97.1519 310.339 95.2935 310.708 93.4167 310.708C91.5399 310.708 89.6814 310.339 87.9475 309.62C86.2135 308.902 84.638 307.85 83.3109 306.522C81.9838 305.195 80.9311 303.62 80.2129 301.886C79.4947 300.152 79.125 298.293 79.125 296.417C79.125 292.626 80.6307 288.991 83.3109 286.311C85.9911 283.631 89.6263 282.125 93.4167 282.125C97.2071 282.125 100.842 283.631 103.522 286.311C106.203 288.991 107.708 292.626 107.708 296.417Z" stroke="#8EA6C2" stroke-width="4.08333" stroke-linecap="round" stroke-linejoin="round"/>
</svg>
