<svg xmlns="http://www.w3.org/2000/svg" viewBox="0 0 240.31 48.06">
  <title>twitter</title>
  <path d="M19.75,48.06A19.75,19.75,0,0,1,0,28.31L.06,5.65a5.66,5.66,0,0,1,11.31,0v8.49H25.51a5.65,5.65,0,0,1,0,11.3H11.37v2.85a8.46,8.46,0,0,0,8.46,8.46h8.51a5.66,5.66,0,0,1,0,11.31Z" fill="black" fill-opacity="0.5" />
  <path d="M131.42,48.06a19.69,19.69,0,0,1-19.68-19.75V5.65a5.66,5.66,0,0,1,11.31,0v8.49h8.47a5.65,5.65,0,1,1,0,11.3h-8.47v2.85a8.45,8.45,0,0,0,8.45,8.46h2.85a5.66,5.66,0,1,1,0,11.31Z" fill="black" fill-opacity="0.5" />
  <path d="M161.11,48.06a19.7,19.7,0,0,1-19.69-19.75V5.65a5.66,5.66,0,0,1,11.31,0v8.49h8.48a5.65,5.65,0,1,1,0,11.3h-8.48v2.85a8.46,8.46,0,0,0,8.46,8.46H164a5.66,5.66,0,0,1,0,11.31Z" fill="black" fill-opacity="0.5"/>
  <path d="M209.31,31.1a16.88,16.88,0,0,1,16.87-17h8.48a5.65,5.65,0,1,1,0,11.3h-8.48a5.67,5.67,0,0,0-5.66,5.66l.1,11.31a5.66,5.66,0,0,1-11.31,0Z" fill="black" fill-opacity="0.5"/>
  <path d="M86.29,14.14a5.65,5.65,0,0,0-5.65,5.65V31.1a5.66,5.66,0,0,1-11.31,0V19.79a5.66,5.66,0,0,0-11.31,0V31.1a5.66,5.66,0,0,1-11.31,0V19.79a5.66,5.66,0,0,0-11.31,0V31.1A17,17,0,0,0,63.68,43.72,16.95,16.95,0,0,0,92,31.1V19.79A5.65,5.65,0,0,0,86.29,14.14Z" fill="black" fill-opacity="0.5"/>
  <g>
  <path d="M101.84,14.14a5.65,5.65,0,0,0-5.65,5.65V42.41a5.66,5.66,0,0,0,11.31,0V19.79A5.65,5.65,0,0,0,101.84,14.14Z" fill="black" fill-opacity="0.5"/>
  <circle cx="101.84" cy="5.65" r="5.65" fill="black" fill-opacity="0.5"/>
  </g>
  <path d="M205,28.27c0,2-.83,5.64-3.78,5.64H182.59a5.65,5.65,0,0,0,5.48,4.26h12.05a4.95,4.95,0,0,1,0,9.89H188.07c-9.37,0-17-7.65-17-18.38,0-9.41,7.59-15.54,17-15.54s17,6.32,17,14.13Zm-11.3-1.41c0-2.6-2.53-4.71-5.66-4.71s-5.65,2.11-5.65,4.71Z" fill="black" fill-opacity="0.5"/>
</svg>