<svg xmlns="http://www.w3.org/2000/svg" viewBox="0 0 1233.4 229">
  <path fill="rgba(48,48,48,.5)" d="M106 0c10.5 0 20.2.8 29.1 3.2 8.9 1.6 16.2 4.9 22.7 8.9s11.3 9.7 14.6 17c3.2 7.3 4.9 16.2 4.9 25.9 0 11.3-2.4 21-8.1 28.3-4.9 7.3-12.9 13.8-22.7 18.6 13.8 4 24.3 11.3 30.7 21s10.5 21.8 10.5 35.6c0 11.3-2.4 21-6.5 29.1-4 8.1-10.5 15.4-17.8 20.2-7.3 4.9-16.2 8.9-25.9 11.3-9.7 2.4-19.4 4-29.1 4L0 223.3V0h106zm-6.5 90.6c8.9 0 16.2-2.4 21.8-6.5s8.1-11.3 8.1-20.2c0-4.9-.8-9.7-2.4-12.9-1.6-3.2-4-5.7-7.3-8.1-3.2-1.6-6.5-3.2-10.5-4-4-.8-8.1-.8-12.9-.8H49.4v52.6c0-.1 50.1-.1 50.1-.1zm2.4 95.5c4.9 0 9.7-.8 13.8-1.6 4-.8 8.1-2.4 11.3-4.9s5.7-4.9 8.1-8.9c1.6-4 3.2-8.9 3.2-14.6 0-11.3-3.2-19.4-9.7-25.1-6.5-4.9-15.4-7.3-25.9-7.3H49.4V186h52.5zM258.1 185.3c6.5 6.5 16.2 9.7 29.1 9.7 8.9 0 17-2.4 23.5-6.5 6.5-4.9 10.5-9.7 12.1-14.6h39.6c-6.5 19.4-16.2 33.2-29.1 42.1-12.9 8.1-28.3 12.9-46.9 12.9-12.9 0-24.3-2.4-34.8-6.5-10.5-4-18.6-9.7-25.9-17.8-7.3-7.3-12.9-16.2-16.2-26.7-4-10.5-5.7-21.8-5.7-34.8 0-12.1 1.6-23.5 5.7-34s9.7-19.4 17-27.5c7.3-7.3 16.2-13.8 25.9-17.8 10.5-4 21-6.5 34-6.5 13.8 0 25.9 2.4 36.4 8.1 10.5 5.7 18.6 12.1 25.1 21.8 6.5 8.9 11.3 19.4 14.6 30.7 1.6 11.3 2.4 22.7 1.6 35.6H246.8c0 13.2 4.8 25.3 11.3 31.8zm51-85c-5.7-5.7-14.6-8.9-25.1-8.9-7.3 0-12.9 1.6-17.8 4s-8.1 5.7-11.3 8.9c-3.2 3.2-4.9 7.3-5.7 11.3-.8 4-1.6 7.3-1.6 10.5h72.8c-1.6-12-5.7-20.1-11.3-25.8zm-71.2-84.9h90.6v21.8h-90.6V15.4zM427.2 0v84.1h.8c5.7-9.7 12.9-16.2 21.8-20.2s17-6.5 25.9-6.5c12.1 0 21.8 1.6 29.1 4.9 7.3 3.2 13.8 8.1 17.8 13.8 4 5.7 7.3 12.9 8.9 21 1.6 8.1 2.4 17 2.4 27.5v99.5h-44.5v-91.4c0-13.8-2.4-23.5-6.5-29.9S471.7 93 461.2 93c-12.1 0-21 4-25.9 10.5-5.7 7.3-8.1 19.4-8.1 35.6v85h-44.5V0h44.5zM566.4 85.8c4.9-7.3 10.5-12.1 17.8-17 7.3-4 15.4-7.3 24.3-8.9 8.9-1.6 17.8-2.4 26.7-2.4 8.1 0 16.2.8 25.1 1.6 8.1.8 16.2 3.2 22.7 6.5 7.3 3.2 12.1 8.1 17 13.8 4 5.7 6.5 13.8 6.5 23.5v85c0 7.3.8 14.6 1.6 21 .8 6.5 3.2 12.1 5.7 15.4h-45.3c-1.6-1.6-2.4-4.9-3.2-7.3-.8-2.4-.8-5.7-.8-8.1-7.3 7.3-15.4 12.1-25.1 15.4-9.7 3.2-19.4 4-29.1 4-8.1 0-14.6-.8-21.8-3.2-6.5-1.6-12.1-4.9-17.8-8.9-4.9-4-8.9-8.9-12.1-15.4-2.4-6.5-4-12.9-4-21.8s1.6-17 4.9-22.7c3.2-5.7 7.3-10.5 12.1-14.6 4.9-3.2 11.3-6.5 17.8-8.1 6.5-1.6 12.9-3.2 20.2-4 6.5-.8 12.9-1.6 19.4-2.4 6.5-.8 12.1-1.6 17-2.4 4.9-1.6 8.9-3.2 12.1-5.7 3.2-2.4 4-5.7 4-10.5 0-4.9-.8-8.9-2.4-11.3-1.6-2.4-4-4.9-6.5-6.5-2.4-1.6-5.7-2.4-8.9-3.2-3.2-.8-7.3-.8-11.3-.8-8.9 0-15.4 1.6-20.2 5.7-4.9 4-8.1 10.5-8.9 18.6h-44.5c-.3-10 2.9-18.9 7-25.3zm88.2 63.1c-2.4.8-5.7 1.6-8.9 2.4s-6.5.8-10.5 1.6c-3.2.8-7.3.8-10.5 1.6s-6.5 1.6-9.7 2.4c-3.2.8-6.5 2.4-8.1 4-2.4 1.6-4 4-5.7 6.5-2.4 3.2-2.4 6.5-2.4 10.5s.8 7.3 2.4 9.7c1.6 2.4 3.2 4.9 5.7 6.5 2.4 1.6 5.7 2.4 8.9 3.2 3.2.8 6.5.8 10.5.8 8.9 0 15.4-1.6 20.2-4 4.9-3.2 8.1-6.5 10.5-10.5 2.4-4 4-8.1 4-12.1.8-4 .8-7.3.8-9.7v-17c-2.4 1.6-4.8 3.3-7.2 4.1zM773.5 61.5v22.7h.8C780 74.5 787.2 68 796.1 64s18.6-6.5 27.5-6.5c12.1 0 21.8 1.6 29.1 4.9 8.1 3.2 13.8 8.1 17.8 13.8 4 5.7 7.3 12.9 9.7 21 1.6 8.1 2.4 17 2.4 27.5v99.5h-44.5v-91.4c0-13.8-2.4-23.5-6.5-29.9-4-6.5-11.3-10.5-22.7-10.5-12.1 0-21 4.9-26.7 12.1-5.7 7.3-8.1 19.4-8.1 35.6v85h-44.5V61.5h43.9zM982.3 90.6c-7.3 0-12.9 1.6-17.8 4.9-4.9 3.2-8.9 7.3-12.1 12.9-3.2 4.9-4.9 10.5-6.5 17-1.6 6.5-1.6 12.1-1.6 18.6 0 5.7.8 12.1 1.6 17.8 1.6 6.5 3.2 11.3 6.5 16.2 3.2 4.9 6.5 8.9 11.3 12.1 4.9 3.2 10.5 4.9 17.8 4.9 10.5 0 18.6-3.2 25.1-8.9 5.7-5.7 9.7-13.8 10.5-24.3h42.9c-3.2 21.8-11.3 38-25.1 49.4-13.8 11.3-31.6 17-53.4 17-12.1 0-23.5-2.4-33.2-6.5-10.5-4-18.6-9.7-25.9-17-7.3-7.3-12.9-16.2-17-25.9-4-10.5-5.7-21-5.7-33.2 0-12.9 1.6-24.3 5.7-34.8 4-10.5 8.9-20.2 16.2-28.3 7.3-8.1 16.2-13.8 25.9-18.6 10.5-4 21.8-6.5 34.8-6.5 9.7 0 18.6 1.6 27.5 4 8.9 2.4 17 6.5 23.5 11.3 7.3 4.9 12.9 11.3 17 19.4 4 7.3 6.5 17 7.3 27.5h-43.7c-1.7-19.3-12.2-29-31.6-29zM1127.1 185.3c6.5 6.5 17 9.7 29.1 9.7 8.9 0 17-2.4 23.5-6.5 6.5-4.9 10.5-9.7 12.1-14.6h38.8c-6.5 19.4-16.2 33.2-29.1 42.1-12.9 8.1-28.3 12.9-46.9 12.9-12.9 0-24.3-2.4-34.8-6.5-10.5-4-18.6-9.7-25.9-17.8-7.3-7.3-12.9-16.2-16.2-26.7-4-10.5-5.7-21.8-5.7-34.8 0-12.1 1.6-23.5 5.7-34 4-10.5 9.7-19.4 17-27.5 7.3-7.3 16.2-13.8 25.9-17.8 10.5-4 21.8-6.5 34-6.5 13.8 0 25.9 2.4 35.6 8.1 10.5 5.7 18.6 12.1 25.1 21.8 6.5 8.9 11.3 19.4 14.6 30.7 3.2 11.3 4 23.5 3.2 36.4h-117.3c0 12.4 4.8 24.5 11.3 31zm51.8-85c-5.7-5.7-14.6-8.9-25.1-8.9-7.3 0-12.9 1.6-17.8 4s-8.9 5.7-11.3 8.9c-2.4 3.2-4.9 7.3-5.7 11.3-.8 4-1.6 7.3-1.6 10.5h72.8c-2.4-12-6.5-20.1-11.3-25.8z"/>
</svg>
