<svg width="209" height="30" viewBox="0 0 209 30" fill="none" xmlns="http://www.w3.org/2000/svg">
<g clip-path="url(#clip0)">
<path d="M26.5175 10.606H25.6915C23.3439 3.72576 21.9962 0.89477 18.0401 0.89477H17.5184V28.6905H21.2137V29.5779H5.34584V28.6905H9.04109V0.89477H8.47593C4.51984 0.89477 3.04174 4.06378 0.824585 10.6131H-0.0303955L0.40434 0.00744629H26.0537L26.5175 10.606Z" fill="black" fill-opacity="0.5"/>
<path d="M37.5612 9.04224C44.8647 9.04224 48.3426 12.3803 48.3426 19.2253C48.3426 26.0704 45.0386 30 37.3003 30C29.9968 30 26.3015 26.1972 26.3015 19.6056C26.3015 12.676 30.5619 9.04224 37.5612 9.04224ZM39.9957 17.662C39.9957 13.0986 39.8653 9.8028 37.4307 9.8028C34.7789 9.8028 34.6484 13.0986 34.6484 17.8732V21.169C34.6484 26.0986 34.7354 29.2394 37.3873 29.2394C39.8653 29.2394 39.9957 26.7465 39.9957 21.2535V17.662Z" fill="black" fill-opacity="0.5"/>
<path d="M60.0371 9.4648V13.3521C60.7616 11.2394 62.1673 9.04226 66.1668 9.04226C69.2535 9.04226 71.5576 10.3521 72.2966 13.6056C72.6705 12.2528 73.507 11.0639 74.6685 10.2346C75.8299 9.40519 77.2472 8.98471 78.6872 9.04226C82.4694 9.04226 85.0778 10.9859 85.0778 16.0845V28.8169H87.5124V29.5775H75.4702V28.8169H76.9918V15.0845C76.9918 11.493 76.5136 11.0704 75.731 11.0704C74.166 11.0704 72.5575 13.3521 72.5575 16.9014V28.8169H74.1225V29.5775H62.9498V28.8169H64.4569V15.0845C64.4569 11.493 63.9787 11.0704 63.1961 11.0704C61.5876 11.0704 60.0226 13.7324 60.0226 17.1549V28.8169H61.5876V29.5775H49.5599V28.8169H51.951V10.2254H49.5599V9.4648H60.0371Z" fill="black" fill-opacity="0.5"/>
<path d="M108.988 0C117.161 0 121.987 1.77465 121.987 8.40845C121.987 15.5915 116.292 17.4507 107.858 17.4507H107.51V28.7746H112.944V29.5775H96.207V28.7746H99.0328V0.809859H96.207V0H108.988ZM107.539 16.6479H108.452C112.075 16.6479 113.06 14.1972 113.06 9.29577V7.2676C113.06 2.49296 112.017 0.802817 108.713 0.802817H107.539V16.6479Z" fill="black" fill-opacity="0.5"/>
<path d="M133.855 9.04224C141.159 9.04224 144.637 12.3803 144.637 19.2253C144.637 26.0704 141.333 30 133.594 30C126.291 30 122.595 26.1972 122.595 19.6056C122.595 12.676 126.856 9.04224 133.855 9.04224ZM136.29 17.662C136.29 13.0986 136.159 9.8028 133.725 9.8028C131.073 9.8028 130.942 13.0986 130.942 17.8732V21.169C130.942 26.0986 131.029 29.2394 133.681 29.2394C136.159 29.2394 136.29 26.7465 136.29 21.2535V17.662Z" fill="black" fill-opacity="0.5"/>
<path d="M146.854 22.4366H147.375C148.984 27.5916 151.636 29.0704 155.201 29.0704C158.418 29.0704 159.635 27.9296 159.635 26.324C159.635 24.4225 157.505 24 154.201 23.1127C150.723 22.1831 146.854 20.8733 146.854 16.1831C146.854 11.8733 149.897 9.04226 154.505 9.04226C156.025 9.03995 157.526 9.3722 158.896 10.0141C159.264 10.2132 159.677 10.3219 160.099 10.331C160.751 10.331 161.055 9.99297 161.62 8.92255H162.098V15.3873H161.577C160.012 11.5 157.795 9.89438 154.708 9.89438C151.81 9.89438 150.665 11.0352 150.665 12.3451C150.665 14.2887 153.273 14.7535 156.143 15.5141C159.577 16.4014 163.388 17.7535 163.388 22.7394C163.388 27.5563 160.171 29.9648 155.259 29.9648C153.441 29.9909 151.646 29.5693 150.042 28.7394C149.795 28.5705 149.513 28.4553 149.216 28.4014C148.651 28.4014 148.042 28.7817 147.346 29.9648H146.825L146.854 22.4366Z" fill="black" fill-opacity="0.5"/>
<path d="M176.111 9.04224C182.937 9.04224 185.849 12.3803 185.589 18.676H173.329V20.3239C173.329 25.3098 174.242 28.6901 178.459 28.6901C181.676 28.6901 183.85 26.7042 184.806 23.4507L185.589 23.5774C184.589 27.2112 182.328 30 176.169 30C168.431 30 164.953 25.6901 164.953 19.5634C164.939 12.2535 170.069 9.04224 176.111 9.04224ZM177.85 17.831V15.7605C177.85 11.3239 177.503 9.84505 175.72 9.84505C174.199 9.84505 173.373 11.2535 173.373 15.7605V17.831H177.85Z" fill="black" fill-opacity="0.5"/>
<path d="M197.631 17.493V28.8169H200.718V29.5775H187.154V28.8169H189.545V10.2254H187.154V9.46482H197.631V13.5212C197.908 12.2347 198.639 11.0827 199.697 10.2648C200.756 9.44689 202.075 9.01443 203.427 9.04228C205.992 9.04228 208.036 10.3521 208.036 13.5634C208.036 15.9719 206.731 17.5775 204.413 17.5775C201.515 17.5775 200.109 15.8028 201.022 12.8028H202.587C203.456 11.0705 202.587 10.6479 201.674 10.6479C199.587 10.6479 197.631 13.6902 197.631 17.493Z" fill="black" fill-opacity="0.5"/>
</g>
<defs>
<clipPath id="clip0">
<rect width="208.064" height="30" fill="white"/>
</clipPath>
</defs>
</svg>
