<svg width="410" height="100" viewBox="0 0 410 100" fill="none" xmlns="http://www.w3.org/2000/svg"><path fill-rule="evenodd" clip-rule="evenodd" d="M404.98 69.2494C403.711 68.3309 402.705 68.1997 401.874 69.9492C387.615 100.785 363.602 85.3891 366.008 86.745C371.344 84.2956 385.341 73.0984 383.241 57.5711C381.973 48.0797 373.837 43.8808 365.177 45.4116C350.087 48.036 344.576 64.3069 347.375 78.697C347.856 81.1902 348.731 83.2022 349.65 85.2142C332.635 99.0794 325.856 72.836 325.068 69.6868C325.025 69.5118 338.234 58.5333 341.908 32.3337C345.757 4.90931 337.009 -0.120678 328.043 0.054278C311.466 0.360451 307.004 34.958 312.996 63.782C312.515 63.9132 310.153 65.2254 306.392 65.3566C303.68 56.8275 292.089 49.3482 289.071 52.2349C281.504 59.4519 290.908 73.5358 297.557 74.6293C293.576 99.1669 268.645 93.0872 273.281 62.3386C281.373 47.2924 287.584 24.8543 286.447 11.3389C286.053 6.57139 282.51 0.141756 274.506 0.447929C259.11 1.06028 257.448 35.6578 259.241 60.2392C259.154 59.6268 258.279 63.2134 251.98 65.0067C250.493 56.7401 237.153 48.3859 234.004 52.4099C228.143 59.8893 238.334 73.2297 243.145 74.1482C239.165 98.6858 214.234 92.606 218.87 61.8575C227.006 46.8113 233.173 24.4169 232.079 10.9016C231.686 6.134 228.143 -0.295634 220.138 0.010539C204.742 0.622885 203.08 35.2204 204.874 59.8018C204.786 59.1894 203.911 62.9073 197.35 64.6568C197.132 53.897 183.748 48.9982 180.511 52.4099C174.781 58.5333 181.823 71.0864 188.34 74.1482C184.36 98.6858 159.429 92.606 164.065 61.8575C172.157 46.8113 178.368 24.3732 177.231 10.8578C176.881 6.134 173.338 -0.295634 165.333 0.010539C149.937 0.622885 148.713 36.97 150.506 61.5513C145.432 83.2896 128.418 110.408 130.648 56.0402C130.867 52.2349 131.086 50.7915 129.205 49.3482C127.762 48.2547 124.525 48.7795 122.775 48.8233C120.632 48.9108 120.064 50.1792 119.626 52.06C118.533 56.9587 118.314 61.7263 118.139 68.2434C118.052 71.3051 117.789 72.7048 116.608 76.86C115.427 81.0152 108.779 88.5821 105.105 87.3136C100.031 85.5641 101.693 71.2614 102.655 61.4201C103.443 53.6346 100.906 50.1792 94.4325 48.9108C90.6272 48.1235 88.3091 48.2547 84.3726 46.9862C80.611 45.8053 79.78 38.7196 71.8195 41.0815C67.4456 42.3937 70.2449 51.6226 69.1951 58.4896C64.0339 92.2124 53.3179 93.1309 48.3316 76.7725C70.726 21.8363 54.7613 0.185495 45.4448 0.185495C35.7348 0.185495 24.6251 6.87756 29.3051 49.7418C27.0307 49.0857 26.3309 48.7358 23.794 48.7358C9.66632 48.6921 0 60.1517 0 74.2794C0 88.4071 9.66632 99.8667 23.8378 99.8667C32.1919 99.8667 38.0529 96.0614 42.5143 90.2004C45.4011 94.3556 48.944 99.9542 55.4173 99.6918C74.6625 98.9482 80.2611 59.4519 80.9172 57.2212C82.9729 57.5274 84.9412 58.1397 86.822 58.4459C89.9712 58.927 90.2336 60.1954 90.1461 63.3446C89.3151 90.2004 94.2576 99.6043 105.499 99.6043C111.753 99.6043 117.352 93.4371 121.201 89.0632C124.088 95.0117 128.636 99.4293 134.804 99.6043C149.675 99.9542 155.405 76.2476 154.88 79.3531C154.486 81.8025 159.691 99.4293 175.044 99.5168C194.026 99.6043 197.569 78.7408 197.963 75.2417C198.05 74.6293 198.007 74.5418 197.963 75.2417C197.963 75.2854 197.963 75.3729 197.963 75.4603C203.999 74.3231 207.104 71.1302 207.104 71.1302C207.104 71.1302 211.959 99.8667 229.849 99.5606C248.438 99.2106 251.98 80.3591 252.418 76.685C252.505 75.8977 252.462 75.8103 252.418 76.685C252.418 76.7288 252.418 76.7725 252.418 76.7725C259.591 74.1482 261.472 71.5676 261.472 71.5676C261.472 71.5676 265.321 99.7355 284.216 99.9979C301.056 100.217 307.31 82.9397 307.354 75.7228C310.197 75.7665 315.446 74.017 315.315 73.9295C315.315 73.9295 321.482 98.5546 338.715 99.823C346.807 100.435 352.886 95.2741 356.342 92.9122C364.477 99.5168 391.552 107.915 408.654 78.9157C411.103 74.8043 405.898 69.8618 404.98 69.2494ZM23.1379 90.2879C14.8713 90.2879 9.57885 82.6336 9.57885 74.4106C9.57885 66.1877 14.4339 58.5333 22.7006 58.5333C26.4184 58.5333 28.4741 58.927 31.4046 61.4639C31.9295 63.5196 33.4166 68.2872 34.1602 70.4741C35.1224 73.3609 36.3034 75.854 37.4406 78.5221C35.7348 85.4328 30.3111 90.2879 23.1379 90.2879ZM43.2579 61.6826C42.908 61.114 42.9955 61.4639 42.6018 60.939C41.1147 56.8275 38.1842 47.6423 37.8343 37.1887C37.4406 25.3792 39.4089 11.5139 45.2261 11.5139C49.1627 11.5139 53.3616 39.5944 43.2579 61.6826ZM159.647 49.3919C158.729 42.3937 158.685 11.1203 166.165 11.995C170.32 13.6571 163.54 43.1372 159.647 49.3919ZM214.452 49.3919C213.534 42.3937 213.49 11.1203 220.97 11.995C225.125 13.6571 218.345 43.1372 214.452 49.3919ZM268.82 49.8293C267.901 42.831 267.858 11.5576 275.337 12.4324C279.492 14.0508 272.713 43.5746 268.82 49.8293ZM328.83 10.1143C335.697 9.41443 335.391 39.3757 321.657 58.2709C319.863 51.4476 317.152 12.4762 328.83 10.1143ZM357.698 74.6293C355.511 63.4759 361.197 56.1714 367.058 55.3841C369.114 55.078 372.088 56.3901 372.656 58.8833C373.619 63.5633 372.525 70.5178 359.36 79.3094C359.404 79.3531 358.179 77.0787 357.698 74.6293ZM125.05 40.2504C129.73 40.2504 133.535 36.4451 133.535 31.7651C133.535 27.085 129.73 23.2797 125.05 23.2797C120.37 23.2797 116.564 27.085 116.564 31.7651C116.564 36.4451 120.37 40.2504 125.05 40.2504Z" fill="rgba(48,48,48,.5)"/></svg>