<svg xmlns="http://www.w3.org/2000/svg" width="50" height="48" fill="none">
  <path fill="#303030" fill-rule="evenodd" d="M27 24l-4 12 4-12zM48.143 0H1.857A.857.857 0 0 0 1 .857v46.286c0 .474.383.857.857.857h46.286a.856.856 0 0 0 .857-.857V.857A.857.857 0 0 0 48.143 0zM2.714 46.286h44.572V1.714H2.714v44.572zM1.857 12.857h46.286H1.857z" clip-rule="evenodd"/>
  <path fill="#303030" fill-rule="evenodd" d="M10 6.857a1.715 1.715 0 1 1-3.43-.001 1.715 1.715 0 0 1 3.43.001zM15.143 6.857a1.715 1.715 0 1 1-3.43-.001 1.715 1.715 0 0 1 3.43.001zM20.286 6.857a1.715 1.715 0 1 1-3.43-.001 1.715 1.715 0 0 1 3.43.001z" clip-rule="evenodd"/>
  <path stroke="#222" stroke-linecap="round" stroke-linejoin="round" stroke-width="2" d="M1.857 12.857h46.286"/>
  <path stroke="#303030" stroke-linecap="round" stroke-linejoin="round" stroke-width="2" d="M31 35l3.5-2.5L38 30l-3.5-2.5L31 25M19 35l-3.5-2.5L12 30l3.5-2.5L19 25M27 24l-4 12"/>
</svg>
