<svg width="64" height="64" viewBox="0 0 64 64" fill="none" xmlns="http://www.w3.org/2000/svg">
<path d="M56.7366 41.8081C49.1205 45.0145 40.9506 46.6997 32.6874 46.7689C21.5726 46.7556 10.6528 43.8484 1.00274 38.3333C0.225479 37.8761 -0.368894 38.6762 0.2712 39.2706C8.97011 47.1144 20.2887 51.4201 32.0015 51.341C41.242 51.3737 50.2771 48.6169 57.9253 43.4312C59.0226 42.5625 58.0168 41.2823 56.8509 41.8081H56.7366ZM63.5947 37.8075C62.8403 36.8703 56.2565 36.0473 52.1645 38.8591C51.5472 39.3163 51.6616 39.9107 52.3245 39.8193C54.6106 39.5449 59.6399 38.9506 60.5314 40.0936C61.423 41.2366 59.5256 45.9687 58.6797 48.0948C58.4283 48.712 58.9769 48.9863 59.5484 48.4834C63.549 45.3286 64.532 38.7677 63.7547 37.8075H63.5947Z" fill="#FF9A00"/>
<path d="M18.8888 30.4003C18.634 29.9019 18.405 29.3906 18.203 28.8686C18.0409 28.2495 17.964 27.6111 17.9744 26.9712V20.1131C18.0574 19.1451 17.9398 18.1705 17.6291 17.2501C17.3184 16.3297 16.8211 15.4832 16.1684 14.7637C14.6046 13.4834 12.6047 12.8605 10.5905 13.0263C9.47239 13.0194 8.35815 13.1577 7.27569 13.4378C6.31464 13.6649 5.3855 14.0105 4.50958 14.4665C4.27933 14.5719 4.07608 14.7282 3.9152 14.9237C3.80513 15.151 3.75778 15.4036 3.77804 15.6553V16.7068C3.77804 17.1412 3.9152 17.3698 4.21239 17.3698H4.5553L5.37827 17.0497C6.12413 16.758 6.88766 16.5137 7.66432 16.3182C8.41364 16.1413 9.18048 16.0493 9.95037 16.0439C11.1916 15.9164 12.4346 16.2681 13.4252 17.0269C14.184 17.9909 14.5367 19.213 14.4082 20.4331V21.9876C13.5623 21.7819 12.7622 21.6218 11.9621 21.5075C11.2039 21.4094 10.4405 21.3559 9.67604 21.3475C7.81051 21.2456 5.97236 21.8312 4.50958 22.9935C3.87339 23.5242 3.36741 24.1939 3.03054 24.9508C2.69368 25.7078 2.53491 26.5319 2.56644 27.3598C2.52963 28.1142 2.65094 28.8679 2.92258 29.5726C3.19423 30.2773 3.6102 30.9174 4.14381 31.4518C4.71054 31.9946 5.38179 32.4164 6.11672 32.6915C6.85165 32.9666 7.63487 33.0893 8.41872 33.0521C9.61619 33.0704 10.8022 32.8165 11.8872 32.3096C12.9723 31.8027 13.9281 31.0561 14.6825 30.1259C14.8796 30.5572 15.101 30.977 15.3454 31.3833C15.562 31.7363 15.8148 32.0658 16.0998 32.3663C16.1815 32.4557 16.2802 32.5281 16.3901 32.5791C16.4999 32.6301 16.6189 32.6588 16.7399 32.6635C16.9383 32.6669 17.132 32.6024 17.2886 32.4806L18.6374 31.589C18.7369 31.5412 18.8244 31.4714 18.8931 31.385C18.9619 31.2985 19.0102 31.1976 19.0344 31.0898C19.0586 30.982 19.0581 30.8702 19.0328 30.7626C19.0076 30.6551 18.9584 30.5546 18.8888 30.4688V30.4003ZM14.4767 25.2338C14.4894 25.8574 14.4202 26.4799 14.271 27.0855C14.1711 27.5903 13.9602 28.0666 13.6538 28.48C13.1076 29.0972 12.4162 29.5686 11.642 29.8516C10.9056 30.0997 10.133 30.2233 9.356 30.2174C8.73112 30.191 8.12817 29.9795 7.62376 29.6097C7.11935 29.2399 6.73623 28.7286 6.52308 28.1406C6.30993 27.5526 6.27637 26.9145 6.42666 26.3074C6.57695 25.7003 6.9043 25.1515 7.36714 24.7309C8.2967 24.1106 9.40777 23.8208 10.5219 23.9079C11.1848 23.9079 11.8478 23.9079 12.5336 24.0222C13.2194 24.1365 13.8595 24.2508 14.4767 24.388V25.2338ZM25.084 31.4518C25.1496 31.7679 25.2997 32.0603 25.5184 32.2977C25.7627 32.4545 26.0519 32.5268 26.3413 32.5034H28.1702C28.4671 32.5302 28.7645 32.4579 29.016 32.2977C29.2343 32.054 29.3772 31.7523 29.4275 31.429L32.6965 17.7127L36.0113 31.429C36.0402 31.7471 36.1773 32.0457 36.3999 32.2748C36.6524 32.4534 36.961 32.5347 37.2686 32.5034H39.0975C39.3822 32.5185 39.6638 32.438 39.8976 32.2748C40.1269 32.0509 40.2858 31.7648 40.3548 31.4518L45.6584 15.0152C45.7361 14.8498 45.7826 14.6716 45.7956 14.4894C45.8052 14.3753 45.8052 14.2606 45.7956 14.1465C45.8075 14.0747 45.8021 14.0012 45.7799 13.932C45.7576 13.8628 45.7192 13.7999 45.6678 13.7484C45.6164 13.697 45.5535 13.6586 45.4843 13.6364C45.4151 13.6142 45.3415 13.6088 45.2698 13.6207H43.2809C42.9928 13.6116 42.7079 13.6829 42.458 13.8264C42.2561 14.0633 42.1149 14.3458 42.0465 14.6494L38.3431 28.9143L34.9369 14.7637C34.8981 14.455 34.762 14.1668 34.5482 13.9407C34.2884 13.7804 33.9837 13.7082 33.6795 13.735H31.9422C31.7903 13.7087 31.6346 13.7154 31.4856 13.7546C31.3366 13.7937 31.1977 13.8645 31.0785 13.9621C30.9592 14.0597 30.8623 14.1818 30.7944 14.3201C30.7265 14.4584 30.6891 14.6097 30.6848 14.7637L27.3701 28.7543L23.8267 14.7637C23.7619 14.4588 23.6202 14.1755 23.4152 13.9407C23.1652 13.7772 22.8665 13.7046 22.5694 13.735H20.5119C20.169 13.735 20.009 13.9179 20.009 14.2608C20.0277 14.5502 20.0893 14.8353 20.1919 15.1066L25.084 31.4518ZM47.9445 31.8405C48.7164 32.235 49.5398 32.5197 50.3906 32.6863C51.4617 32.9408 52.5586 33.0712 53.6596 33.0749C54.698 33.0787 55.7309 32.9245 56.7229 32.6177C57.5562 32.377 58.3333 31.973 59.009 31.429C59.6583 30.9257 60.1891 30.2857 60.5635 29.5544C60.9402 28.7868 61.1283 27.9404 61.1121 27.0855C61.1275 26.0126 60.7812 24.9658 60.1291 24.1136C59.3343 23.1551 58.2779 22.4482 57.0887 22.0791L54.0711 21.1189C53.2354 20.8841 52.4572 20.4795 51.785 19.9302C51.5796 19.7368 51.4165 19.5028 51.3064 19.2431C51.1962 18.9833 51.1412 18.7035 51.1449 18.4214C51.1242 18.0435 51.2069 17.6672 51.3841 17.3328C51.5614 16.9985 51.8264 16.7188 52.1508 16.524C52.9738 16.1146 53.8837 15.9107 54.8026 15.9296C56.2125 15.9039 57.6105 16.1929 58.8947 16.7754C59.1451 16.9043 59.4157 16.9893 59.6948 17.0269C60.0148 17.0269 60.1977 16.7983 60.1977 16.3411V15.3352C60.2135 15.0893 60.1404 14.846 59.992 14.6494C59.8269 14.4167 59.607 14.2283 59.3519 14.1007C59.0658 13.9471 58.7676 13.8171 58.4603 13.7121C58.0717 13.7121 57.683 13.4835 57.2487 13.3921L55.8771 13.1406H54.4369C53.5334 13.1247 52.6324 13.2403 51.7622 13.4835C50.9379 13.7134 50.163 14.0932 49.4761 14.6037C48.8443 15.0635 48.3214 15.6566 47.9445 16.3411C47.5624 17.042 47.3657 17.8289 47.373 18.6271C47.3828 19.7421 47.7516 20.8243 48.4246 21.7133C49.3043 22.7762 50.4958 23.5359 51.8308 23.885L54.9169 24.8452C55.7143 25.0239 56.4535 25.4014 57.0658 25.9425C57.2581 26.1386 57.4096 26.371 57.5116 26.626C57.6136 26.881 57.6641 27.1538 57.6602 27.4284C57.6723 27.8367 57.5747 28.2407 57.3777 28.5985C57.1807 28.9564 56.8915 29.2549 56.54 29.463C55.587 29.9745 54.5108 30.2119 53.431 30.1488C52.5787 30.1546 51.7281 30.0704 50.8935 29.8973C50.1072 29.7369 49.3407 29.4917 48.6074 29.1658L48.0816 28.9372H47.693C47.373 28.9372 47.1901 29.1658 47.1901 29.6001V30.766C47.1921 30.9718 47.2389 31.1746 47.3272 31.3604C47.5209 31.5862 47.7745 31.7526 48.0588 31.8405H47.9445Z" fill="#343B45"/>
</svg>
