<svg width="24" height="24" xmlns="http://www.w3.org/2000/svg"><g fill="#0496ff" fill-rule="evenodd"><path d="M12 24c6.627 0 12-5.373 12-12S18.627 0 12 0 0 5.373 0 12s5.373 12 12 12zm0-2c5.523 0 10-4.477 10-10S17.523 2 12 2 2 6.477 2 12s4.477 10 10 10z"/><path d="M12.405 15.59l.81-3.287c.116-.174.116-.432.116-.606 0-.692-.464-1.125-1.62-1.125-1.04 0-1.851.433-2.198.952l.348.26c.577-.518 1.388-.432 1.272.26l-.81 3.199c-.117.348-.117.52-.117.693 0 .605.464 1.038 1.62 1.038 1.157 0 1.852-.431 2.314-1.038l-.348-.26c-.693.607-1.504.433-1.387-.086zM12.983 9.362c.925 0 1.504-.519 1.504-1.126 0-.605-.695-1.21-1.504-1.21-.925 0-1.504.519-1.504 1.21 0 .693.695 1.126 1.504 1.126z"/></g></svg>
