<svg width="27" height="34" fill="none" xmlns="http://www.w3.org/2000/svg"><mask id="a" maskUnits="userSpaceOnUse" x="0" y="0" width="27" height="34" fill="#000"><path fill="#fff" d="M0 0h27v34H0z"/><path d="M24.95 9.034v6.895c-2.517-.668-4.674.01-6.01 1.88-1.366 1.912-1.407 4.635-.113 6.628 1.285 1.963 3.36 2.662 6.134 2.045v5.19c0 .102-.01.194-.021.328H2V9.024h.555c2.229 0 4.448.01 6.677-.01.319 0 .658-.062.946-.185.575-.237.729-.802.451-1.357-.77-1.48-.36-3.421.976-4.572 1.336-1.14 3.329-1.202 4.757-.154 1.407 1.038 1.9 2.856 1.212 4.439-.483 1.089-.02 1.808 1.192 1.818 1.469.021 2.948 0 4.417 0 .576.031 1.15.031 1.767.031z"/></mask><path d="M24.95 9.034h2v-2h-2v2zm0 6.895l-.513 1.933 2.513.667v-2.6h-2zm-6.01 1.88l1.627 1.164.001-.001-1.628-1.162zm-.113 6.628l-1.677 1.09.004.005 1.674-1.095zm6.134 2.045h2V23.99l-2.434.54.434 1.953zM24.94 32v2h1.852l.142-1.847L24.94 32zM2 32H0v2h2v-2zM2 9.024v-2H0v2h2zm7.232-.01v-2h-.019l.02 2zm.946-.185l-.76-1.85-.015.006-.014.006.789 1.838zm.451-1.357l1.79-.894-.008-.015-.008-.014-1.774.923zm.976-4.572l-1.298-1.521-.007.006L11.605 2.9zm4.757-.154l1.187-1.61-.004-.003-1.183 1.613zm1.212 4.439l1.829.81.005-.013-1.834-.797zm1.192 1.818l.028-2h-.011l-.017 2zm4.417 0l.107-1.997-.053-.003h-.054v2zm-.233.031V15.93h4v-.013-.014-.013-.013-.013-.014-.013-.013-.014-.013-.013-.013-.014-.013-.014-.013-.013-.013-.014-.013-.013-.014-.013-.013-.013-.014-.013-.013-.014-.013-.013-.014-.013-.013-.014-.013-.013-.013-.014-.013-.014-.013-.013-.013-.014-.013-.013-.014-.013-.013-.013-.014-.013-.014-.013-.013-.013-.014-.013-.013-.014-.013-.013-.014-.013-.013-.014-.013-.013-.013-.014-.013-.013-.014-.013-.013-.014-.013-.013-.014-.013-.013-.014-.013-.013-.014-.013-.013-.013-.014-.013-.014-.013-.013-.014-.013-.013-.013-.014-.013-.013-.014-.013-.013-.014-.013-.013-.014-.013-.013-.014-.013-.013-.014-.013-.013-.014-.013-.013-.014-.013-.013-.014-.013-.013-.014-.013-.013-.014-.013-.013-.014-.013-.013-.014-.013-.013-.014-.013-.013-.014-.013-.013-.014-.013-.013-.014-.013-.014-.013-.013-.013-.014-.013-.014-.013-.013-.014-.013-.013-.014-.013-.013-.014-.013-.014-.013-.013-.014-.013-.013-.014-.013-.013-.014-.013-.013-.014-.013-.014-.013-.013-.014-.013-.013-.014-.013-.013-.014-.013-.014-.013-.013-.014-.013-.013-.014-.013-.014-.013-.013-.014-.013-.014-.013-.013-.014-.013-.013-.014-.013-.014-.013-.013-.014-.013-.013-.014-.013-.014-.013-.013-.014-.013-.014-.013-.013-.014-.013-.014-.013-.014-.013-.013-.014-.013-.014-.013-.013-.014-.013-.014-.013-.013-.014-.013-.014-.013-.013-.014-.013-.014-.013-.014-.013-.014-.013-.013-.014-.013-.014-.013-.014-.013-.013-.014-.013-.014-.013-.013-.014-.013-.014-.013-.014-.013-.014-.013-.014-.013-.013-.014-.013-.014-.013-.014-.013-.014-.013-.014-.013-.014-.013-.013-.014-.013-.014-.013-.014-.013-.014-.013-.014-.013-.014-.013-.014-.013-.014-.013-.013-.014-.013-.014-.013-.014-.013-.014-.013-.014-.013-.014-.013-.014-.013-.014-.013-.014-.013-.014-.013-.014-.013-.014-.013-.014-.013-.014-.013-.014-.014-.013-.013-.014-.014-.013-.014-.013-.014-.013-.014-.013-.014-.013-.014-.013-.014-.014-.013-.014-.013-.014-.013-.014-.013-.014-.013-.014-.014-.013-.014-.013-.014-.013-.014-.014-.013-.014-.013-.014-.013-.014-.013-.014-.014-.013-.014-.013-.014-.014-.013-.014-.013-.014-.013-.014-.014-.013-.014-.013-.014-.014-.013-.014-.014-.013-.014-.013-.014-.014-.013-.014-.013-.014-.014-.013-.014-.014-.013-.014-.013-.014-.014-.013-.014-.014-.013-.014-.014-.013-.014-.013-.014-.014-.013-.014-.014-.013-.014-.014-.013-.014-.014-.013-.014-.014-.013-.014-.014-.013-.014-.014-.013-.014-.014-.013-.014-.014-.014-.013-.014-.014-.013-.014-.014-.013-.014-.014-.014-.013-.014-.014-.013-.014-.014-.014-.013-.014-.014-.013-.014-.014-.014-.013-.014-.014-.014-.013-.014-.014-.014-.013-.014-.014-.014-.013-.014-.014-.014V9.2v-.014-.014-.014-.013-.014-.014-.014-.014-.013-.014-.014-.014h-4zm2.513 4.962c-3.185-.845-6.254-.004-8.15 2.651l3.255 2.325c.775-1.085 2.021-1.6 3.87-1.11l1.025-3.866zm-8.15 2.65c-1.855 2.596-1.895 6.213-.163 8.88l3.355-2.178c-.857-1.32-.815-3.148.063-4.375l-3.255-2.327zm-.16 8.886c.868 1.326 2.06 2.294 3.548 2.792 1.46.487 3.057.474 4.694.11l-.868-3.904c-1.137.252-1.965.198-2.558 0-.563-.188-1.051-.55-1.468-1.188l-3.347 2.19zm5.808.95V31.671h4v-.01-.01-.01-.01-.01-.01-.01-.01-.01-.011-.01-.01-.01-.01-.01-.01-.01-.01-.011-.01-.01-.01-.01-.01-.01-.01-.01-.011-.01-.01-.01-.01-.01-.01-.01-.011-.01-.01-.01-.01-.01-.01-.01-.01-.011-.01-.01-.01-.01-.01-.01-.01-.01-.011-.01-.01-.01-.01-.01-.01-.01-.011-.01-.01-.01-.01-.01-.01-.01-.01-.011-.01-.01-.01-.01-.01-.01-.01-.01-.011-.01-.01-.01-.01-.01-.01-.01-.011-.01-.01-.01-.01-.01-.01-.01-.01-.011-.01-.01-.01-.01-.01-.01-.01-.011-.01-.01-.01-.01-.01-.01-.01-.01-.011-.01-.01-.01-.01-.01-.01-.01-.011-.01-.01-.01-.01-.01-.01-.01-.01-.011-.01-.01-.01-.01-.01-.01-.01-.011-.01-.01-.01-.01-.01-.01-.01-.011-.01-.01-.01-.01-.01-.01-.01-.01-.011-.01-.01-.01-.01-.01-.01-.01-.011-.01-.01-.01-.01-.01-.01-.01-.011-.01-.01-.01-.01-.01-.01-.01-.011-.01-.01-.01-.01-.01-.01-.01-.01-.011-.01-.01-.01-.01-.01-.01-.01-.011-.01-.01-.01-.01-.01-.01-.01-.011-.01-.01-.01-.01-.01-.01-.01-.011-.01-.01-.01-.01-.01-.01-.01-.011-.01-.01-.01-.01-.01-.01-.01-.011-.01-.01-.01-.01-.01-.01-.01-.011-.01-.01-.01-.01-.01-.01-.011-.01-.01-.01-.01-.01-.01-.01-.011-.01-.01-.01-.01-.01-.01-.01-.011-.01-.01-.01V29v-.01-.01-.011-.01-.01-.01-.01-.01-.01-.01-.011-.01-.01-.01-.01-.01-.01-.01-.011-.01-.01-.01-.01-.01-.01-.011-.01-.01-.01-.01-.01-.01-.011-.01-.01-.01-.01-.01-.01-.01-.011-.01-.01-.01-.01-.01-.01-.011-.01-.01-.01-.01-.01-.01-.011-.01-.01-.01-.01-.01-.01-.01-.011-.01-.01-.01-.01-.01-.01-.011-.01-.01-.01-.01-.01-.01-.011-.01-.01-.01-.01-.01-.01-.011-.01-.01-.01-.01-.01-.01-.011-.01-.01-.01-.01-.01-.01-.011-.01-.01-.01-.01-.01-.01-.011-.01-.01-.01-.01-.01-.011-.01-.01-.01-.01-.01-.01-.011-.01-.01-.01-.01-.01-.01-.011-.01-.01-.01-.01-.01-.01-.011-.01-.01-.01-.01-.01-.011-.01-.01-.01-.01-.01-.01-.011-.01-.01-.01-.01-.01-.011-.01-.01-.01-.01-.01-.01-.011-.01-.01-.01-.01-.01-.011-.01-.01-.01-.01-.01-.011-.01-.01-.01-.01-.01-.01-.011-.01-.01-.01-.01-.01-.011-.01-.01-.01-.01-.01-.011-.01-.01-.01-.01-.01-.011-.01V27v-.01-.01-.01-.011-.01-.01-.01-.01-.01-.01-.011-.01-.01-.01-.01-.01-.011-.01-.01-.01-.01-.011-.01-.01-.01-.01-.01-.011-.01-.01-.01-.01-.01-.011-.01-.01-.01-.01-.01-.011-.01-.01-.01-.01-.01-.011-.01-.01-.01-.01-.01h-4zm0 5.19c0-.017 0-.022-.002.006a6.225 6.225 0 0 1-.005.064l-.008.105 3.988.306c.004-.05.027-.277.027-.482h-4zM24.94 30H2v4H24.94v-4zM4 32v-.045-.044-.045-.045-.045-.044-.045-.045-.045-.044-.045-.045-.044-.045-.045-.045-.044-.045-.045-.045-.044-.045-.045-.045-.044-.045-.045-.045-.044-.045-.045-.044-.045-.045-.045-.044-.045-.045-.045-.044-.045-.045-.045-.044-.045-.045-.045-.044-.045-.045-.045-.044-.045-.045-.044-.045-.045-.045-.044-.045-.045-.045-.044-.045-.045-.045-.044-.045-.045-.045-.044-.045-.045-.045-.044-.045-.045-.044-.045-.045-.045-.045-.044-.045-.045-.044-.045-.045-.045-.044-.045-.045-.045-.044-.045-.045-.045-.044-.045-.045-.045-.045-.044-.045-.045-.044-.045-.045-.045-.045-.044-.045-.045-.044-.045-.045-.045-.045-.044-.045-.045-.045-.044-.045-.045-.045-.044-.045-.045-.045-.044-.045-.045-.045-.045-.044-.045-.045-.044-.045-.045-.045-.045-.044-.045-.045-.045-.044-.045-.045-.045-.044-.045-.045-.045-.045-.044-.045-.045-.045-.044-.045-.045-.045-.045-.044-.045-.045-.045-.045-.044-.045-.045-.045-.044-.045-.045-.045-.044-.045-.045-.045-.045-.044-.045-.045-.045-.045-.044-.045-.045-.045-.045-.044-.045-.045-.045-.045-.044-.045-.045-.045-.045-.044-.045-.045-.045-.045-.044-.045-.045-.045-.045-.044-.045-.045-.045-.045-.044-.045-.045-.045-.045-.045-.044-.045-.045-.045-.045-.044-.045-.045-.045-.045-.045-.044-.045-.045-.045-.045-.044-.045-.045-.045-.045-.045-.044-.045-.045-.045-.045-.045-.044-.045-.045-.045-.045-.045-.045-.044-.045-.045-.045-.045-.045-.045-.044V20v-.045-.045-.045-.045-.044-.045-.045-.045-.045-.045-.045-.044-.045-.045-.045-.045-.045-.045-.045-.044-.045-.045-.045-.045-.045-.045-.044-.045-.045-.045-.045-.045-.045-.045-.045-.044-.045-.045-.045-.045-.045-.045-.045-.044-.045-.045-.045-.045-.045-.045-.045-.045-.045-.044-.045-.045-.045-.045-.045-.045-.045-.045-.045-.044-.045-.045-.045-.045-.045-.045-.045-.045-.045-.045-.045-.044-.045-.045-.045-.045-.045-.045-.045-.045-.045-.045-.045-.045-.045-.044-.046-.044-.045-.045-.045-.045-.045-.045-.045-.045-.045-.045-.045-.045-.045-.045-.045-.045-.045-.045-.045-.044-.045-.045-.045-.045-.045-.045-.045-.045-.045-.045-.045-.045-.045-.045-.045-.045-.045-.045-.045-.045-.045-.045-.045-.045-.045-.045-.045-.045-.045-.045-.045-.045-.045-.045-.045-.045-.045-.045-.045-.045-.045-.045-.045-.045-.045-.045-.045-.045-.045-.045-.045-.045-.046-.045-.045-.045-.045-.045-.045-.045-.045-.045-.045-.045-.045V12v-.045-.045-.045-.045-.045-.046-.045-.045-.045-.045-.045-.045-.045-.045-.045-.045-.045-.045-.045-.045-.046-.045-.045-.045-.045-.045-.045-.045-.045-.045-.045-.046-.045-.045-.045-.045-.045-.045-.045-.046-.045-.045-.045-.045-.045-.045-.045-.045-.046-.045-.045-.045-.045-.045-.045-.046-.045-.045-.045-.045-.045-.045-.046-.045-.045-.045H0V32h4zM2 11.024H2.554v-4h-.001-.002-.006-.001-.001-.001-.001-.001-.002-.006-.001-.001-.001-.001-.001-.008-.001-.001-.001-.001-.001-.001-.006-.001-.001-.001-.001-.001H2.5h-.008-.001-.001-.001-.001-.001-.008-.001-.001-.001-.001-.001-.008-.001-.001-.001-.001-.001-.008-.001-.001-.001-.001-.001-.008-.001-.001-.001-.001-.001-.008-.001-.001-.001-.001-.001-.008-.001-.001-.001-.001-.001-.008-.001H2.4h-.001-.001-.001-.008-.001-.001-.001-.001-.001-.008-.001-.001-.001-.001-.001-.008-.001-.001-.001-.001-.001-.006-.001-.001-.001-.001-.001-.001-.001-.006-.001-.001-.001-.001-.001-.001-.001-.006-.001-.001-.001-.001-.001-.001-.001-.006-.001-.001-.001-.001-.001-.001-.001H2.3 2.3h-.001-.001-.001-.001-.001-.001-.006-.001-.001-.001-.001-.001-.001-.001-.006-.001-.001-.001-.001-.001-.001-.001-.006-.001-.001-.001-.001-.001-.001-.001-.006-.001-.001-.001-.001-.001-.001-.001-.006-.001-.001-.001-.001-.001-.001-.001-.006-.001-.001-.001-.001-.001-.001-.001-.006-.001-.001-.001-.001-.001-.001-.001-.006-.001-.001-.001-.001-.001-.001-.001-.006-.001-.001-.001-.001-.001-.001-.001-.006-.001-.001-.001-.001-.001-.001-.001-.006-.001-.001-.001-.001-.001-.001-.001-.006-.001-.001-.001-.001-.001-.001-.001-.006-.001-.001-.001-.001-.001-.001-.001-.006-.001-.001-.001-.001-.001-.001-.001-.006-.001-.001-.001H2.1 2.1h-.001-.001-.006-.001-.001-.001-.001-.001-.001-.001-.006-.001-.001-.001-.001-.001-.001-.001-.006-.001-.001-.001-.001-.001-.001-.001-.006-.001-.001-.001-.001-.001-.001-.001-.006-.001-.001-.001-.001-.001-.001-.001-.006-.001-.001-.001-.001-.001-.001-.002-.006-.001-.001-.001-.001-.001-.002H2v4zm.555 0c2.217 0 4.454.01 6.696-.01l-.037-4c-2.217.02-4.418.01-6.66.01v4zm6.677-.01c.554 0 1.166-.104 1.733-.347L9.39 6.991c.004-.002-.013.005-.05.012a.586.586 0 0 1-.107.01v4zm1.705-.335c.777-.32 1.421-.943 1.694-1.807.261-.83.11-1.649-.213-2.294L8.841 8.367c-.045-.09-.135-.35-.025-.699.12-.383.4-.606.601-.69l1.52 3.7zm1.466-4.13c-.31-.597-.177-1.544.508-2.134L10.3 1.385C8.314 3.096 7.625 6.034 8.856 8.396l3.547-1.847zm.501-2.128c.617-.527 1.582-.572 2.274-.063l2.367-3.225c-2.163-1.587-5.184-1.508-7.238.246l2.597 3.042zm2.271-.066c.666.492.877 1.316.565 2.032l3.668 1.595c1.065-2.448.29-5.262-1.86-6.846l-2.373 3.22zm.57 2.02c-.373.842-.62 2.09.114 3.216.73 1.12 1.967 1.405 2.89 1.412l.034-4c-.289-.002.11-.083.427.404.32.492.083.835.193.588l-3.657-1.62zm2.993 4.628c1.485.021 3.016 0 4.445 0v-4c-1.508 0-2.936.021-4.39 0l-.055 4zm4.338-.002c.638.034 1.268.033 1.874.033v-4c-.626 0-1.147 0-1.66-.028l-.214 3.995z" fill="#0495FE" mask="url(#a)"/></svg>