<svg width="200" height="200" viewBox="0 0 200 200" fill="none" xmlns="http://www.w3.org/2000/svg">
<path d="M0 0H200V200H0V0Z" fill="#FECB42"/>
<path d="M44.9995 84C44.9995 80.6863 47.6858 78 50.9995 78H62.5709C65.8846 78 68.5709 80.6863 68.5709 84V149C68.5709 152.314 65.8846 155 62.5709 155H50.9995C47.6858 155 44.9995 152.314 44.9995 149V84ZM88.9995 51C88.9995 47.6863 91.6858 45 94.9995 45H105C108.313 45 111 47.6863 111 51V149C111 152.314 108.313 155 105 155H94.9995C91.6858 155 88.9995 152.314 88.9995 149V51ZM133 113.857C133 110.543 135.686 107.857 139 107.857H149C152.313 107.857 155 110.543 155 113.857V149C155 152.314 152.313 155 149 155H139C135.686 155 133 152.314 133 149V113.857Z" fill="#CF7C3D"/>
</svg>
