<svg width="1040" height="640" viewBox="0 0 1040 640" fill="none" xmlns="http://www.w3.org/2000/svg">
<rect width="1040" height="640" fill="#F6F9FC"/>
<rect x="830.5" y="173.5" width="160" height="47" rx="23.5" stroke="#0495FE" stroke-width="3"/>
<path d="M858.71 200.574C858.807 203.496 861.267 205.269 864.962 205.269C868.84 205.269 871.214 203.346 871.214 200.316C871.214 197.964 869.786 196.643 866.509 195.987L864.866 195.654C863.04 195.289 862.288 194.698 862.288 193.742C862.288 192.604 863.362 191.852 864.962 191.852C866.595 191.852 867.745 192.646 867.852 193.968H870.914C870.86 191.121 868.583 189.23 864.962 189.23C861.514 189.23 859.043 191.11 859.043 193.946C859.043 196.256 860.558 197.738 863.652 198.351L865.285 198.673C867.229 199.07 867.959 199.65 867.959 200.671C867.959 201.81 866.778 202.647 865.048 202.647C863.287 202.647 861.976 201.874 861.772 200.574H858.71ZM883.691 202.314H876.666V198.404H883.294V195.912H876.666V192.174H883.691V189.499H873.422V205H883.691V202.314ZM893.203 205V192.174H897.693V189.499H885.48V192.174H889.959V205H893.203ZM906.658 205V192.174H911.148V189.499H898.934V192.174H903.413V205H906.658ZM916.406 205V189.499H913.162V205H916.406ZM922.309 205V194.849H922.405L929.656 205H932.342V189.499H929.237V199.597H929.151L921.911 189.499H919.204V205H922.309ZM949.008 198.49V196.739H942.477V199.103H945.85L945.839 199.35C945.775 201.272 944.303 202.572 942.187 202.572C939.609 202.572 937.976 200.521 937.976 197.158C937.976 193.86 939.512 191.916 942.069 191.916C943.82 191.916 945.141 192.883 945.613 194.505H948.868C948.406 191.368 945.678 189.23 942.058 189.23C937.503 189.23 934.667 192.238 934.667 197.201C934.667 202.239 937.503 205.269 942.133 205.269C946.451 205.269 949.008 202.712 949.008 198.49ZM950.786 200.574C950.882 203.496 953.342 205.269 957.038 205.269C960.916 205.269 963.29 203.346 963.29 200.316C963.29 197.964 961.861 196.643 958.584 195.987L956.941 195.654C955.115 195.289 954.363 194.698 954.363 193.742C954.363 192.604 955.437 191.852 957.038 191.852C958.67 191.852 959.82 192.646 959.927 193.968H962.989C962.935 191.121 960.658 189.23 957.038 189.23C953.589 189.23 951.119 191.11 951.119 193.946C951.119 196.256 952.633 197.738 955.727 198.351L957.36 198.673C959.304 199.07 960.035 199.65 960.035 200.671C960.035 201.81 958.853 202.647 957.124 202.647C955.362 202.647 954.051 201.874 953.847 200.574H950.786Z" fill="#0495FE"/>
<rect x="830.5" y="425.5" width="160" height="47" rx="23.5" stroke="#0495FE" stroke-width="3"/>
<path d="M871.037 452.574C871.134 455.496 873.594 457.269 877.289 457.269C881.167 457.269 883.541 455.346 883.541 452.316C883.541 449.964 882.112 448.643 878.836 447.987L877.192 447.654C875.366 447.289 874.614 446.698 874.614 445.742C874.614 444.604 875.688 443.852 877.289 443.852C878.922 443.852 880.071 444.646 880.179 445.968H883.24C883.186 443.121 880.909 441.23 877.289 441.23C873.841 441.23 871.37 443.11 871.37 445.946C871.37 448.256 872.885 449.738 875.978 450.351L877.611 450.673C879.555 451.07 880.286 451.65 880.286 452.671C880.286 453.81 879.104 454.647 877.375 454.647C875.613 454.647 874.303 453.874 874.098 452.574H871.037ZM892.698 457V444.174H897.189V441.499H884.975V444.174H889.454V457H892.698ZM906.851 457V451.21L912.254 441.499H908.774L905.293 448.116H905.218L901.748 441.499H898.214L903.607 451.21V457H906.851ZM924.076 454.314H917.298V441.499H914.053V457H924.076V454.314ZM936.488 454.314H929.463V450.404H936.091V447.912H929.463V444.174H936.488V441.499H926.219V457H936.488V454.314ZM938.459 452.574C938.556 455.496 941.016 457.269 944.711 457.269C948.589 457.269 950.963 455.346 950.963 452.316C950.963 449.964 949.534 448.643 946.258 447.987L944.614 447.654C942.788 447.289 942.036 446.698 942.036 445.742C942.036 444.604 943.111 443.852 944.711 443.852C946.344 443.852 947.493 444.646 947.601 445.968H950.662C950.609 443.121 948.331 441.23 944.711 441.23C941.263 441.23 938.792 443.11 938.792 445.946C938.792 448.256 940.307 449.738 943.401 450.351L945.033 450.673C946.978 451.07 947.708 451.65 947.708 452.671C947.708 453.81 946.527 454.647 944.797 454.647C943.035 454.647 941.725 453.874 941.521 452.574H938.459Z" fill="#0495FE"/>
<rect x="45.5" y="174.5" width="160" height="47" rx="23.5" stroke="#0495FE" stroke-width="3"/>
<path d="M87.6482 191.499V207H90.8924V202.112H93.7928C97.0584 202.112 99.325 199.985 99.325 196.806C99.325 193.615 97.1336 191.499 93.9539 191.499H87.6482ZM90.8924 194.066H93.0945C94.9529 194.066 96.0271 195.055 96.0271 196.816C96.0271 198.589 94.9422 199.577 93.0838 199.577H90.8924V194.066ZM111.49 204.314H104.712V191.499H101.468V207H111.49V204.314ZM116.383 191.499H113.139V201.521C113.139 204.938 115.663 207.269 119.638 207.269C123.602 207.269 126.126 204.938 126.126 201.521V191.499H122.882V201.199C122.882 203.187 121.711 204.486 119.638 204.486C117.554 204.486 116.383 203.187 116.383 201.199V191.499ZM142.793 200.49V198.739H136.261V201.103H139.634L139.624 201.35C139.559 203.272 138.088 204.572 135.971 204.572C133.393 204.572 131.76 202.521 131.76 199.158C131.76 195.86 133.297 193.916 135.853 193.916C137.604 193.916 138.925 194.883 139.398 196.505H142.653C142.191 193.368 139.463 191.23 135.842 191.23C131.288 191.23 128.452 194.238 128.452 199.201C128.452 204.239 131.288 207.269 135.918 207.269C140.236 207.269 142.793 204.712 142.793 200.49ZM148.405 207V191.499H145.161V207H148.405ZM154.308 207V196.849H154.404L161.655 207H164.341V191.499H161.237V201.597H161.151L153.91 191.499H151.203V207H154.308Z" fill="#0495FE"/>
<circle r="5" transform="matrix(1 0 0 -1 599 322)" fill="#0495FE"/>
<path d="M824.5 197C795.5 197 785.557 202.5 785.557 222.5M784.5 282.5C784.5 304 778 323 748.5 323C729.3 323 614.833 323 600.5 323M784.5 282.5C784.5 276.851 784.832 226.866 785.557 222.5M784.5 282.5L785.557 222.5" stroke="#0496FF" stroke-width="3"/>
<path d="M824.5 449C795.5 449 785.557 443.5 785.557 423.5M784.5 363.5C784.5 342 778 323 748.5 323C729.3 323 614.833 323 600.5 323M784.5 363.5C784.5 369.149 784.832 419.134 785.557 423.5M784.5 363.5L785.557 423.5" stroke="#0496FF" stroke-width="3"/>
<path d="M828.061 198.061C828.646 197.475 828.646 196.525 828.061 195.939L818.515 186.393C817.929 185.808 816.979 185.808 816.393 186.393C815.808 186.979 815.808 187.929 816.393 188.515L824.879 197L816.393 205.485C815.808 206.071 815.808 207.021 816.393 207.607C816.979 208.192 817.929 208.192 818.515 207.607L828.061 198.061ZM824 198.5L827 198.5L827 195.5L824 195.5L824 198.5Z" fill="#0495FE"/>
<path d="M828.061 450.061C828.646 449.475 828.646 448.525 828.061 447.939L818.515 438.393C817.929 437.808 816.979 437.808 816.393 438.393C815.808 438.979 815.808 439.929 816.393 440.515L824.879 449L816.393 457.485C815.808 458.071 815.808 459.021 816.393 459.607C816.979 460.192 817.929 460.192 818.515 459.607L828.061 450.061ZM824 450.5L827 450.5L827 447.5L824 447.5L824 450.5Z" fill="#0495FE"/>
<circle cx="208" cy="197" r="5" transform="rotate(-180 208 197)" fill="#0495FE"/>
<circle cx="208" cy="449" r="5" transform="rotate(-180 208 449)" fill="#0495FE"/>
<path d="M206.5 197C235.5 197 245.443 202.5 245.443 222.5M246.5 282.5C246.5 304 253 323 282.5 323C301.7 323 416.167 323 430.5 323M246.5 282.5C246.5 276.851 246.168 226.866 245.443 222.5M246.5 282.5L245.443 222.5" stroke="#0496FF" stroke-width="3"/>
<path d="M206.5 449C235.5 449 245.443 443.5 245.443 423.5M246.5 363.5C246.5 342 253 323 282.5 323C301.7 323 416.167 323 430.5 323M246.5 363.5C246.5 369.149 246.168 419.134 245.443 423.5M246.5 363.5L245.443 423.5" stroke="#0496FF" stroke-width="3"/>
<path d="M443.061 324.061C443.646 323.475 443.646 322.525 443.061 321.939L433.515 312.393C432.929 311.808 431.979 311.808 431.393 312.393C430.808 312.979 430.808 313.929 431.393 314.515L439.879 323L431.393 331.485C430.808 332.071 430.808 333.021 431.393 333.607C431.979 334.192 432.929 334.192 433.515 333.607L443.061 324.061ZM371 324.5H442V321.5H371V324.5Z" fill="#0495FE"/>
<rect x="45.5" y="425.5" width="160" height="47" rx="23.5" stroke="#0495FE" stroke-width="3"/>
<path d="M97.0502 457V444.174H101.54V441.499H89.3266V444.174H93.8061V457H97.0502ZM117.025 457V441.499H113.781V447.794H106.799V441.499H103.554V457H106.799V450.469H113.781V457H117.025ZM130.093 454.314H123.067V450.404H129.695V447.912H123.067V444.174H130.093V441.499H119.823V457H130.093V454.314ZM149.069 457V441.499H145.309L140.905 452.628H140.819L136.414 441.499H132.655V457H135.544V446.537H135.63L139.841 457H141.882L146.093 446.537H146.179V457H149.069ZM162.136 454.314H155.111V450.404H161.739V447.912H155.111V444.174H162.136V441.499H151.867V457H162.136V454.314Z" fill="#0495FE"/>
<rect x="516" y="255.121" width="95.9949" height="95.9949" transform="rotate(45 516 255.121)" fill="#F6F9FC" stroke="#0495FE" stroke-width="3"/>
<path d="M504.639 332H508.401L502.518 315.09H498.358L492.487 332H496.12L497.409 327.898H503.35L504.639 332ZM500.339 318.324H500.421L502.589 325.25H498.171L500.339 318.324ZM510.855 315.09V332H514.395V326.668H517.559C521.121 326.668 523.594 324.348 523.594 320.879C523.594 317.398 521.203 315.09 517.734 315.09H510.855ZM514.395 317.891H516.797C518.824 317.891 519.996 318.969 519.996 320.891C519.996 322.824 518.812 323.902 516.785 323.902H514.395V317.891ZM526.411 315.09V332H529.95V326.668H533.115C536.677 326.668 539.15 324.348 539.15 320.879C539.15 317.398 536.759 315.09 533.29 315.09H526.411ZM529.95 317.891H532.353C534.38 317.891 535.552 318.969 535.552 320.891C535.552 322.824 534.368 323.902 532.341 323.902H529.95V317.891Z" fill="#0495FE"/>
<path d="M626.324 303.293C630.473 303.293 633.367 300.902 633.766 297.129H630.32C629.945 299.133 628.434 300.363 626.336 300.363C623.629 300.363 621.93 298.137 621.93 294.527C621.93 290.965 623.652 288.727 626.324 288.727C628.387 288.727 629.98 290.086 630.309 292.16H633.754C633.484 288.375 630.391 285.797 626.324 285.797C621.426 285.797 618.32 289.09 618.32 294.539C618.32 300 621.402 303.293 626.324 303.293ZM647.266 290.438H643.844V297.633C643.844 299.297 642.895 300.387 641.371 300.387C639.859 300.387 639.027 299.496 639.027 297.82V290.438H635.605V298.535C635.605 301.465 637.41 303.234 640.129 303.234C642.027 303.234 643.27 302.32 643.891 300.738H643.961V303H647.266V290.438ZM649.281 294.129C649.281 296.016 650.512 297.234 652.938 297.75L655.082 298.195C656.312 298.477 656.746 298.852 656.746 299.52C656.746 300.34 655.949 300.867 654.66 300.867C653.301 300.867 652.516 300.281 652.305 299.18H648.965C649.188 301.652 651.191 303.27 654.66 303.27C657.895 303.27 660.156 301.641 660.156 299.168C660.156 297.328 659.078 296.297 656.453 295.746L654.309 295.289C653.043 295.02 652.574 294.586 652.574 293.941C652.574 293.109 653.359 292.57 654.543 292.57C655.809 292.57 656.57 293.262 656.676 294.281H659.828C659.758 291.82 657.766 290.168 654.543 290.168C651.344 290.168 649.281 291.738 649.281 294.129ZM662.758 287.543V290.438H660.988V293.016H662.758V299.613C662.758 302.062 663.906 303.047 666.859 303.047C667.551 303.047 668.137 302.988 668.488 302.906V300.387C668.277 300.422 667.961 300.445 667.656 300.445C666.648 300.445 666.18 299.988 666.18 299.027V293.016H668.5V290.438H666.18V287.543H662.758ZM675.953 303.27C679.75 303.27 682.176 300.844 682.176 296.707C682.176 292.629 679.715 290.168 675.953 290.168C672.191 290.168 669.73 292.641 669.73 296.707C669.73 300.832 672.156 303.27 675.953 303.27ZM675.953 300.656C674.266 300.656 673.199 299.238 673.199 296.719C673.199 294.223 674.289 292.781 675.953 292.781C677.617 292.781 678.695 294.223 678.695 296.719C678.695 299.238 677.629 300.656 675.953 300.656ZM683.945 303H687.367V295.418C687.367 294.012 688.246 293.027 689.547 293.027C690.812 293.027 691.574 293.824 691.574 295.172V303H694.867V295.371C694.867 293.977 695.723 293.027 697.023 293.027C698.348 293.027 699.074 293.824 699.074 295.277V303H702.496V294.422C702.496 291.891 700.844 290.203 698.383 290.203C696.543 290.203 695.043 291.199 694.48 292.781H694.41C693.988 291.141 692.723 290.203 690.906 290.203C689.195 290.203 687.848 291.199 687.32 292.711H687.25V290.438H683.945V303ZM704.723 303H708.145V290.438H704.723V303ZM706.422 288.738C707.418 288.738 708.203 287.941 708.203 286.98C708.203 286.008 707.418 285.223 706.422 285.223C705.426 285.223 704.641 286.008 704.641 286.98C704.641 287.941 705.426 288.738 706.422 288.738ZM710.195 303H720.566V300.375H714.543V300.316L720.426 292.605V290.438H710.289V293.051H716.453V293.121L710.195 301.055V303ZM727.973 292.699C729.496 292.699 730.539 293.801 730.609 295.406H725.277C725.395 293.836 726.473 292.699 727.973 292.699ZM730.656 299.156C730.34 300.117 729.379 300.738 728.125 300.738C726.379 300.738 725.242 299.508 725.242 297.715V297.504H733.902V296.461C733.902 292.641 731.594 290.168 727.938 290.168C724.223 290.168 721.879 292.77 721.879 296.777C721.879 300.797 724.199 303.27 728.066 303.27C731.172 303.27 733.422 301.617 733.797 299.156H730.656Z" fill="#506677"/>
<path d="M295.211 296.168C297.098 296.625 297.742 297.152 297.742 298.207C297.742 299.285 296.91 300.023 295.211 300.164V296.168ZM294.039 292.793C292.398 292.359 291.707 291.75 291.707 290.801C291.707 289.84 292.516 289.066 294.039 288.914V292.793ZM295.211 293.062V288.926C296.57 289.09 297.496 289.828 297.66 291.129H300.777C300.672 288.328 298.516 286.5 295.211 286.289V284.391H294.039V286.277C290.77 286.453 288.426 288.281 288.426 291.105C288.426 293.637 290.102 295.008 293.172 295.699L294.039 295.898V300.164C292.387 300.012 291.52 299.18 291.32 297.961H288.191C288.273 300.902 290.699 302.637 294.039 302.801V304.676H295.211V302.789C298.586 302.59 301.012 300.809 301.012 297.844C301.012 295.277 299.336 293.988 296.125 293.262L295.211 293.062ZM309.895 307.652C313.094 307.652 314.676 306.504 315.742 303.281L320.066 290.438H316.457L313.797 300.258H313.727L311.055 290.438H307.305L311.676 303.012C311.688 303.059 311.559 303.562 311.559 303.609C311.324 304.605 310.703 305.004 309.461 305.004C309.332 305.004 308.711 305.004 308.594 304.98V307.617C308.711 307.641 309.766 307.652 309.895 307.652ZM325.879 300.727C324.719 300.727 323.945 300.141 323.945 299.203C323.945 298.312 324.672 297.738 325.949 297.645L328.598 297.48V298.395C328.598 299.754 327.367 300.727 325.879 300.727ZM324.754 303.199C326.324 303.199 327.883 302.414 328.586 301.078H328.656V303H331.961V294.363C331.961 291.832 329.863 290.168 326.641 290.168C323.312 290.168 321.238 291.844 321.109 294.281H324.238C324.402 293.355 325.211 292.723 326.488 292.723C327.777 292.723 328.598 293.402 328.598 294.574V295.406L325.434 295.594C322.305 295.781 320.547 297.105 320.547 299.391C320.547 301.652 322.363 303.199 324.754 303.199ZM334.176 303H337.598V295.98C337.598 294.211 338.582 293.18 340.27 293.18C340.762 293.18 341.23 293.262 341.512 293.379V290.367C341.277 290.297 340.938 290.238 340.539 290.238C339.062 290.238 337.996 291.105 337.551 292.699H337.48V290.438H334.176V303ZM342.918 303H346.34V295.793C346.34 294.164 347.312 293.039 348.848 293.039C350.383 293.039 351.156 293.977 351.156 295.617V303H354.578V294.902C354.578 291.961 353.008 290.203 350.219 290.203C348.285 290.203 346.961 291.117 346.293 292.676H346.223V290.438H342.918V303ZM366.355 300.727C365.195 300.727 364.422 300.141 364.422 299.203C364.422 298.312 365.148 297.738 366.426 297.645L369.074 297.48V298.395C369.074 299.754 367.844 300.727 366.355 300.727ZM365.23 303.199C366.801 303.199 368.359 302.414 369.062 301.078H369.133V303H372.438V294.363C372.438 291.832 370.34 290.168 367.117 290.168C363.789 290.168 361.715 291.844 361.586 294.281H364.715C364.879 293.355 365.688 292.723 366.965 292.723C368.254 292.723 369.074 293.402 369.074 294.574V295.406L365.91 295.594C362.781 295.781 361.023 297.105 361.023 299.391C361.023 301.652 362.84 303.199 365.23 303.199ZM379.316 303.199C381.168 303.199 382.621 302.227 383.23 300.844H383.289V303H386.664V286.09H383.242V292.594H383.172C382.562 291.199 381.156 290.238 379.34 290.238C376.188 290.238 374.195 292.711 374.195 296.695C374.195 300.715 376.176 303.199 379.316 303.199ZM380.477 292.98C382.176 292.98 383.266 294.434 383.266 296.719C383.266 299.016 382.176 300.445 380.477 300.445C378.754 300.445 377.699 299.027 377.699 296.719C377.699 294.422 378.754 292.98 380.477 292.98ZM393.613 303.199C395.465 303.199 396.918 302.227 397.527 300.844H397.586V303H400.961V286.09H397.539V292.594H397.469C396.859 291.199 395.453 290.238 393.637 290.238C390.484 290.238 388.492 292.711 388.492 296.695C388.492 300.715 390.473 303.199 393.613 303.199ZM394.773 292.98C396.473 292.98 397.562 294.434 397.562 296.719C397.562 299.016 396.473 300.445 394.773 300.445C393.051 300.445 391.996 299.027 391.996 296.719C391.996 294.422 393.051 292.98 394.773 292.98Z" fill="#506677"/>
</svg>
