<svg width="1040" height="640" viewBox="0 0 1040 640" fill="none" xmlns="http://www.w3.org/2000/svg">
<rect width="1040" height="640" fill="#F6F9FC"/>
<path d="M132.962 246.09V263H136.501V257.668H139.665C143.227 257.668 145.7 255.348 145.7 251.879C145.7 248.398 143.309 246.09 139.841 246.09H132.962ZM136.501 248.891H138.903C140.93 248.891 142.102 249.969 142.102 251.891C142.102 253.824 140.919 254.902 138.891 254.902H136.501V248.891ZM159.451 260.07H152.057V246.09H148.518V263H159.451V260.07ZM165.269 246.09H161.73V257.023C161.73 260.75 164.484 263.281 168.82 263.281C173.144 263.281 175.898 260.75 175.898 257.023V246.09H172.359V256.672C172.359 258.84 171.081 260.258 168.82 260.258C166.546 260.258 165.269 258.84 165.269 256.672V246.09ZM194.559 255.898V253.988H187.434V256.566H191.114L191.102 256.836C191.032 258.934 189.426 260.352 187.118 260.352C184.305 260.352 182.524 258.113 182.524 254.445C182.524 250.848 184.2 248.727 186.989 248.727C188.899 248.727 190.34 249.781 190.856 251.551H194.407C193.903 248.129 190.926 245.797 186.977 245.797C182.008 245.797 178.915 249.078 178.915 254.492C178.915 259.988 182.008 263.281 187.059 263.281C191.77 263.281 194.559 260.504 194.559 255.898ZM201.162 263V246.09H197.623V263H201.162ZM208.081 263V251.926H208.187L216.097 263H219.027V246.09H215.64V257.105H215.546L207.648 246.09H204.695V263H208.081Z" fill="#8291A5"/>
<g filter="url(#filter0_dd)">
<circle cx="176" cy="168" r="52" fill="white"/>
</g>
<path d="M202.091 150.875C201.652 150.436 200.939 150.436 200.5 150.875L194.932 156.446L186.976 148.49L192.547 142.921C192.985 142.483 192.985 141.769 192.547 141.331C192.108 140.892 191.395 140.892 190.956 141.331L185.385 146.899L181.407 142.921C180.968 142.483 180.255 142.483 179.816 142.921L171.068 151.669C166.829 155.908 166.24 162.517 169.147 167.91L164.701 172.356C164.489 172.565 164.372 172.853 164.372 173.15C164.372 173.449 164.491 173.735 164.701 173.947L166.291 175.537L156.747 185.084C154.553 187.278 154.553 190.847 156.747 193.038C158.941 195.234 162.509 195.232 164.701 193.038L171.862 185.878C172.711 185.028 174.193 185.028 175.044 185.878C175.921 186.756 175.921 188.183 175.044 189.06L171.257 192.847C170.818 193.283 170.818 193.999 171.257 194.438C171.478 194.656 171.766 194.766 172.054 194.766C172.342 194.766 172.63 194.653 172.85 194.438L176.637 190.648C178.39 188.896 178.39 186.043 176.637 184.288C175.786 183.437 174.657 182.969 173.455 182.969C172.254 182.969 171.122 183.437 170.274 184.288L163.11 191.445C161.794 192.761 159.654 192.761 158.338 191.445C157.021 190.129 157.021 187.989 158.338 186.673L167.882 177.126L169.475 178.719C169.696 178.939 169.984 179.048 170.272 179.048C170.56 179.048 170.848 178.937 171.068 178.719L175.516 174.271C177.496 175.337 179.677 175.96 181.924 176.057C182.136 176.069 182.347 176.071 182.554 176.071C186.094 176.071 189.343 174.766 191.752 172.354L200.503 163.603C200.941 163.165 200.941 162.451 200.503 162.013L196.525 158.035L202.093 152.464C202.53 152.025 202.53 151.314 202.091 150.875ZM182.998 166.785C182.149 167.635 181.02 168.103 179.816 168.103C178.615 168.103 177.485 167.635 176.635 166.785C175.784 165.934 175.316 164.805 175.316 163.603C175.316 162.402 175.784 161.27 176.635 160.422C178.333 158.721 181.299 158.721 182.998 160.422C183.848 161.27 184.316 162.402 184.316 163.603C184.316 164.805 183.848 165.934 182.998 166.785ZM194.137 163.603C193.917 163.824 193.629 163.932 193.341 163.932C193.053 163.932 192.765 163.822 192.544 163.603L179.816 150.875C179.377 150.436 179.377 149.721 179.816 149.284C180.255 148.846 180.968 148.846 181.407 149.284L194.135 162.013C194.576 162.451 194.576 163.165 194.137 163.603Z" fill="#506677"/>
<path d="M143.458 519V505.008H148.357V502.09H135.033V505.008H139.919V519H143.458ZM165.729 519V502.09H162.19V508.957H154.573V502.09H151.034V519H154.573V511.875H162.19V519H165.729ZM180.465 516.07H172.801V511.805H180.031V509.086H172.801V505.008H180.465V502.09H169.262V519H180.465V516.07ZM201.646 519V502.09H197.544L192.74 514.23H192.646L187.841 502.09H183.74V519H186.892V507.586H186.986L191.579 519H193.806L198.4 507.586H198.493V519H201.646ZM216.381 516.07H208.717V511.805H215.948V509.086H208.717V505.008H216.381V502.09H205.178V519H216.381V516.07Z" fill="#8291A5"/>
<g filter="url(#filter1_dd)">
<circle cx="176" cy="416" r="52" fill="white"/>
</g>
<g clip-path="url(#clip0)">
<path d="M200.777 394H151.21C149.994 394 149 394.994 149 396.21V404.185V437.645H203V404.185V396.21C203 394.994 202.006 394 200.777 394ZM161.225 398.132H199.091V402.316H161.225V398.132ZM155.237 397.753C156.597 397.753 157.695 398.851 157.695 400.211C157.695 401.57 156.597 402.669 155.237 402.669C153.877 402.669 152.779 401.57 152.779 400.211C152.779 398.864 153.877 397.753 155.237 397.753ZM199.182 433.84H193.677V427.067H172.875V433.84H167.423V426.884H158.349V433.84H152.805V407.99H199.182V433.84Z" fill="#506677"/>
<path d="M193.691 412.815H158.349V421.536H193.691V412.815Z" fill="#506677"/>
</g>
<path d="M803.277 258.172C803.382 261.359 806.066 263.281 810.097 263.281C814.328 263.281 816.917 261.195 816.917 257.891C816.917 255.324 815.359 253.883 811.785 253.168L809.992 252.805C808 252.406 807.179 251.762 807.179 250.719C807.179 249.477 808.351 248.656 810.097 248.656C811.878 248.656 813.132 249.523 813.25 250.965H816.589C816.531 247.859 814.046 245.797 810.097 245.797C806.335 245.797 803.64 247.848 803.64 250.941C803.64 253.461 805.292 255.078 808.667 255.746L810.449 256.098C812.57 256.531 813.367 257.164 813.367 258.277C813.367 259.52 812.078 260.434 810.191 260.434C808.269 260.434 806.839 259.59 806.617 258.172H803.277ZM831.009 260.07H823.345V255.805H830.575V253.086H823.345V249.008H831.009V246.09H819.805V263H831.009V260.07ZM841.865 263V249.008H846.764V246.09H833.44V249.008H838.326V263H841.865ZM857.023 263V249.008H861.921V246.09H848.597V249.008H853.484V263H857.023ZM868.137 263V246.09H864.598V263H868.137ZM875.057 263V251.926H875.162L883.072 263H886.002V246.09H882.615V257.105H882.521L874.623 246.09H871.67V263H875.057ZM904.663 255.898V253.988H897.538V256.566H901.218L901.206 256.836C901.136 258.934 899.53 260.352 897.222 260.352C894.409 260.352 892.628 258.113 892.628 254.445C892.628 250.848 894.304 248.727 897.093 248.727C899.003 248.727 900.445 249.781 900.96 251.551H904.511C904.007 248.129 901.03 245.797 897.081 245.797C892.113 245.797 889.019 249.078 889.019 254.492C889.019 259.988 892.113 263.281 897.163 263.281C901.874 263.281 904.663 260.504 904.663 255.898ZM907.083 258.172C907.188 261.359 909.872 263.281 913.903 263.281C918.133 263.281 920.723 261.195 920.723 257.891C920.723 255.324 919.165 253.883 915.59 253.168L913.797 252.805C911.805 252.406 910.985 251.762 910.985 250.719C910.985 249.477 912.157 248.656 913.903 248.656C915.684 248.656 916.938 249.523 917.055 250.965H920.395C920.336 247.859 917.852 245.797 913.903 245.797C910.141 245.797 907.446 247.848 907.446 250.941C907.446 253.461 909.098 255.078 912.473 255.746L914.254 256.098C916.375 256.531 917.172 257.164 917.172 258.277C917.172 259.52 915.883 260.434 913.997 260.434C912.075 260.434 910.645 259.59 910.422 258.172H907.083Z" fill="#8291A5"/>
<g filter="url(#filter2_dd)">
<circle cx="862" cy="168" r="52" fill="white"/>
</g>
<path d="M889 173.342V162.658H881.764C881.303 160.934 880.62 159.313 879.75 157.811L884.87 152.691L877.326 145.13L872.206 150.25C870.704 149.38 869.066 148.697 867.359 148.236V141H856.675V148.236C854.951 148.697 853.33 149.38 851.828 150.25L846.708 145.13L839.13 152.691L844.25 157.811C843.38 159.313 842.697 160.951 842.236 162.658H835V173.342H842.236C842.697 175.066 843.38 176.687 844.25 178.189L839.13 183.309L846.674 190.853L851.794 185.733C853.296 186.603 854.934 187.286 856.641 187.747V194.983H867.325V187.764C869.049 187.303 870.67 186.62 872.172 185.75L877.292 190.87L884.853 183.326L879.733 178.206C880.603 176.704 881.286 175.066 881.747 173.359H889V173.342ZM862 177.796C856.59 177.796 852.204 173.393 852.204 168C852.204 162.607 856.607 158.204 862 158.204C867.41 158.204 871.796 162.607 871.796 168C871.796 173.41 867.41 177.796 862 177.796Z" fill="#506677"/>
<path d="M817.204 514.172C817.309 517.359 819.993 519.281 824.024 519.281C828.255 519.281 830.845 517.195 830.845 513.891C830.845 511.324 829.286 509.883 825.712 509.168L823.919 508.805C821.927 508.406 821.106 507.762 821.106 506.719C821.106 505.477 822.278 504.656 824.024 504.656C825.805 504.656 827.059 505.523 827.177 506.965H830.516C830.458 503.859 827.973 501.797 824.024 501.797C820.263 501.797 817.567 503.848 817.567 506.941C817.567 509.461 819.22 511.078 822.595 511.746L824.376 512.098C826.497 512.531 827.294 513.164 827.294 514.277C827.294 515.52 826.005 516.434 824.118 516.434C822.196 516.434 820.766 515.59 820.544 514.172H817.204ZM841.315 519V505.008H846.213V502.09H832.889V505.008H837.775V519H841.315ZM857.234 519V512.684L863.128 502.09H859.331L855.535 509.309H855.452L851.667 502.09H847.812L853.695 512.684V519H857.234ZM876.505 516.07H869.11V502.09H865.571V519H876.505V516.07ZM890.525 516.07H882.861V511.805H890.092V509.086H882.861V505.008H890.525V502.09H879.322V519H890.525V516.07ZM893.155 514.172C893.261 517.359 895.945 519.281 899.976 519.281C904.206 519.281 906.796 517.195 906.796 513.891C906.796 511.324 905.238 509.883 901.663 509.168L899.87 508.805C897.878 508.406 897.058 507.762 897.058 506.719C897.058 505.477 898.23 504.656 899.976 504.656C901.757 504.656 903.011 505.523 903.128 506.965H906.468C906.409 503.859 903.925 501.797 899.976 501.797C896.214 501.797 893.519 503.848 893.519 506.941C893.519 509.461 895.171 511.078 898.546 511.746L900.327 512.098C902.448 512.531 903.245 513.164 903.245 514.277C903.245 515.52 901.956 516.434 900.07 516.434C898.148 516.434 896.718 515.59 896.495 514.172H893.155Z" fill="#8291A5"/>
<g filter="url(#filter3_dd)">
<circle cx="862" cy="416" r="52" fill="white"/>
</g>
<rect x="835" y="392" width="54" height="21" rx="10.5" fill="#506677"/>
<path d="M845.294 410.188C849.488 410.188 852.888 406.788 852.888 402.594C852.888 398.4 849.488 395 845.294 395C841.1 395 837.7 398.4 837.7 402.594C837.7 406.788 841.1 410.188 845.294 410.188Z" fill="white"/>
<rect x="835" y="424" width="54" height="21" rx="10.5" fill="#506677"/>
<path d="M878.706 442.188C882.9 442.188 886.3 438.788 886.3 434.594C886.3 430.4 882.9 427 878.706 427C874.512 427 871.112 430.4 871.112 434.594C871.112 438.788 874.512 442.188 878.706 442.188Z" fill="white"/>
<line x1="597" y1="317" x2="795" y2="317" stroke="#99CEFA" stroke-width="4"/>
<path d="M804.411 315.586L794.413 305.586C793.631 304.805 792.367 304.805 791.585 305.586C790.803 306.368 790.803 307.632 791.585 308.414L798.171 315H759C757.894 315 757 315.896 757 317C757 318.106 757.894 319 759 319H798.171L791.585 325.586C790.803 326.368 790.803 327.632 791.585 328.414C791.975 328.804 792.487 329 792.999 329C793.511 329 794.023 328.804 794.413 328.414L804.411 318.416C805.193 317.634 805.183 316.358 804.411 315.586Z" fill="#99CEFA"/>
<path d="M656.225 302.258C659.791 302.258 662.219 300.378 662.81 297.177H660.414C659.931 299.046 658.395 300.152 656.235 300.152C653.389 300.152 651.584 297.864 651.584 294.244C651.584 290.656 653.41 288.347 656.225 288.347C658.33 288.347 659.984 289.646 660.414 291.634H662.799C662.391 288.4 659.737 286.241 656.225 286.241C651.896 286.241 649.124 289.335 649.124 294.244C649.124 299.186 651.874 302.258 656.225 302.258ZM674.39 290.699H672.069V297.284C672.069 299.046 671.06 300.206 669.384 300.206C667.783 300.206 666.967 299.282 666.967 297.563V290.699H664.646V298.015C664.646 300.604 666.15 302.204 668.61 302.204C670.34 302.204 671.489 301.441 672.112 300.088H672.166V302H674.39V290.699ZM676.484 293.9C676.484 295.544 677.548 296.575 679.696 297.069L681.533 297.499C682.769 297.778 683.188 298.208 683.188 298.938C683.188 299.862 682.328 300.442 680.932 300.442C679.514 300.442 678.708 299.862 678.493 298.681H676.194C676.409 300.829 678.106 302.215 680.932 302.215C683.596 302.215 685.519 300.797 685.519 298.734C685.519 297.102 684.638 296.199 682.328 295.662L680.491 295.243C679.267 294.964 678.751 294.48 678.751 293.771C678.751 292.869 679.589 292.257 680.846 292.257C682.146 292.257 682.951 292.944 683.08 294.04H685.261C685.186 291.956 683.478 290.495 680.846 290.495C678.246 290.495 676.484 291.881 676.484 293.9ZM688 288.024V290.699H686.356V292.536H688V299.024C688 301.205 688.892 302.075 691.18 302.075C691.695 302.075 692.211 302.032 692.469 301.968V300.131C692.318 300.163 691.942 300.185 691.706 300.185C690.761 300.185 690.331 299.744 690.331 298.767V292.536H692.479V290.699H690.331V288.024H688ZM698.968 302.215C702.201 302.215 704.328 299.991 704.328 296.35C704.328 292.719 702.19 290.495 698.968 290.495C695.745 290.495 693.607 292.719 693.607 296.35C693.607 299.991 695.734 302.215 698.968 302.215ZM698.968 300.303C697.152 300.303 695.971 298.863 695.971 296.35C695.971 293.847 697.152 292.407 698.968 292.407C700.783 292.407 701.965 293.847 701.965 296.35C701.965 298.863 700.794 300.303 698.968 300.303ZM706.122 302H708.442V295.018C708.442 293.567 709.42 292.493 710.795 292.493C712.105 292.493 712.933 293.32 712.933 294.62V302H715.21V294.942C715.21 293.514 716.166 292.493 717.541 292.493C718.916 292.493 719.7 293.331 719.7 294.792V302H722.031V294.233C722.031 291.988 720.57 290.506 718.336 290.506C716.725 290.506 715.393 291.344 714.812 292.719H714.759C714.308 291.312 713.169 290.506 711.601 290.506C710.075 290.506 708.894 291.344 708.389 292.601H708.335V290.699H706.122V302ZM725.512 288.873C726.253 288.873 726.844 288.271 726.844 287.541C726.844 286.8 726.253 286.209 725.512 286.209C724.771 286.209 724.169 286.8 724.169 287.541C724.169 288.271 724.771 288.873 725.512 288.873ZM724.352 302H726.672V290.699H724.352V302ZM728.81 302H737.564V300.152H731.624V300.109L737.5 292.289V290.699H728.853V292.547H734.836V292.59L728.81 300.507V302ZM746.76 298.681C746.448 299.669 745.471 300.335 744.149 300.335C742.291 300.335 741.109 299.035 741.109 297.069V296.93H749.091V296.135C749.091 292.708 747.136 290.495 743.999 290.495C740.809 290.495 738.768 292.858 738.768 296.403C738.768 299.97 740.776 302.215 744.096 302.215C746.685 302.215 748.64 300.743 748.962 298.681H746.76ZM743.999 292.364C745.621 292.364 746.717 293.578 746.771 295.308H741.12C741.238 293.6 742.377 292.364 743.999 292.364Z" fill="#506677"/>
<line x1="176" y1="317" x2="414" y2="317" stroke="#99CEFA" stroke-width="4"/>
<line x1="175" y1="346" x2="175" y2="285" stroke="#99CEFA" stroke-width="4"/>
<path d="M423.411 315.586L413.413 305.586C412.631 304.805 411.367 304.805 410.585 305.586C409.803 306.368 409.803 307.632 410.585 308.414L417.171 315H378C376.894 315 376 315.896 376 317C376 318.106 376.894 319 378 319H417.171L410.585 325.586C409.803 326.368 409.803 327.632 410.585 328.414C410.975 328.804 411.487 329 411.999 329C412.511 329 413.023 328.804 413.413 328.414L423.411 318.416C424.193 317.634 424.183 316.358 423.411 315.586Z" fill="#99CEFA"/>
<rect x="205" y="295" width="180" height="42" fill="white" stroke="#506677" stroke-width="2" stroke-linejoin="round" stroke-dasharray="7 5"/>
<path d="M252.316 327H252.82C253.391 327 253.777 327.059 253.981 327.176C254.184 327.301 254.285 327.523 254.285 327.844C254.285 328.117 254.203 328.324 254.039 328.465C253.883 328.605 253.652 328.676 253.348 328.676H247.945C247.578 328.676 247.32 328.613 247.172 328.488C247.031 328.363 246.961 328.148 246.961 327.844C246.961 327.562 247.035 327.352 247.184 327.211C247.34 327.07 247.57 327 247.875 327H250.418L252.316 323.262L248.016 314.836C247.5 314.836 247.145 314.773 246.949 314.648C246.762 314.523 246.668 314.305 246.668 313.992C246.668 313.719 246.746 313.516 246.902 313.383C247.059 313.242 247.293 313.172 247.606 313.172H250.875C251.313 313.172 251.606 313.234 251.754 313.359C251.902 313.477 251.977 313.688 251.977 313.992C251.977 314.305 251.879 314.523 251.684 314.648C251.488 314.773 251.129 314.836 250.606 314.836H250.172L253.348 321.293L256.582 314.836H256.125C255.586 314.836 255.215 314.773 255.012 314.648C254.809 314.523 254.707 314.305 254.707 313.992C254.707 313.688 254.781 313.477 254.93 313.359C255.078 313.234 255.375 313.172 255.82 313.172H258.715C259.035 313.172 259.27 313.242 259.418 313.383C259.574 313.516 259.652 313.719 259.652 313.992C259.652 314.289 259.566 314.5 259.395 314.625C259.223 314.75 258.918 314.82 258.481 314.836L252.316 327ZM270.211 318.82C269.781 318.68 269.363 318.578 268.957 318.516C268.559 318.445 268.16 318.41 267.762 318.41C266.559 318.41 265.609 318.613 264.914 319.02C264.219 319.426 263.871 319.973 263.871 320.66C263.871 321.191 264.086 321.629 264.516 321.973C264.953 322.316 265.508 322.488 266.18 322.488C267.172 322.488 268.09 322.23 268.934 321.715C269.785 321.191 270.211 320.648 270.211 320.086V318.82ZM270.305 322.512C269.664 323.09 268.965 323.531 268.207 323.836C267.457 324.141 266.684 324.293 265.887 324.293C264.723 324.293 263.781 323.969 263.063 323.32C262.352 322.672 261.996 321.828 261.996 320.789C261.996 319.555 262.469 318.598 263.414 317.918C264.367 317.238 265.703 316.898 267.422 316.898C267.875 316.898 268.332 316.93 268.793 316.992C269.254 317.047 269.727 317.137 270.211 317.262V317.18C270.211 316.281 269.996 315.617 269.566 315.188C269.137 314.758 268.469 314.543 267.563 314.543C266.953 314.543 266.273 314.707 265.523 315.035C264.773 315.363 264.277 315.527 264.035 315.527C263.809 315.527 263.621 315.438 263.473 315.258C263.324 315.07 263.25 314.832 263.25 314.543C263.25 314.082 263.68 313.691 264.539 313.371C265.406 313.051 266.512 312.891 267.856 312.891C269.231 312.891 270.27 313.242 270.973 313.945C271.676 314.641 272.027 315.672 272.027 317.039V322.348H272.602C273.156 322.348 273.527 322.406 273.715 322.523C273.902 322.641 273.996 322.852 273.996 323.156C273.996 323.438 273.918 323.648 273.762 323.789C273.606 323.93 273.371 324 273.059 324H271.219C271 324 270.82 323.934 270.68 323.801C270.539 323.668 270.445 323.477 270.398 323.227L270.305 322.512ZM280.875 322.348H284.766C285.07 322.348 285.293 322.414 285.434 322.547C285.582 322.672 285.656 322.875 285.656 323.156C285.656 323.477 285.586 323.699 285.445 323.824C285.313 323.941 285.063 324 284.695 324H277.031C276.727 324 276.496 323.93 276.34 323.789C276.184 323.648 276.106 323.438 276.106 323.156C276.106 322.883 276.184 322.68 276.34 322.547C276.504 322.414 276.754 322.348 277.09 322.348H279.129V314.836H278.332C277.574 314.836 277.102 314.777 276.914 314.66C276.727 314.535 276.633 314.312 276.633 313.992C276.633 313.719 276.707 313.516 276.856 313.383C277.012 313.242 277.246 313.172 277.559 313.172H280.231C280.441 313.172 280.602 313.215 280.711 313.301C280.82 313.379 280.875 313.496 280.875 313.652V315.645C281.617 314.715 282.391 314.023 283.195 313.57C284 313.117 284.867 312.891 285.797 312.891C286.492 312.891 287.055 313.031 287.484 313.312C287.914 313.594 288.129 313.957 288.129 314.402C288.129 314.691 288.02 314.949 287.801 315.176C287.59 315.395 287.356 315.504 287.098 315.504C286.918 315.504 286.613 315.387 286.184 315.152C285.762 314.91 285.383 314.789 285.047 314.789C284.438 314.789 283.793 315.008 283.113 315.445C282.441 315.875 281.695 316.559 280.875 317.496V322.348ZM292.078 322.348V314.836H291.856C291.324 314.836 290.957 314.773 290.754 314.648C290.559 314.523 290.461 314.305 290.461 313.992C290.461 313.703 290.543 313.496 290.707 313.371C290.871 313.238 291.137 313.172 291.504 313.172H292.055H293.18C293.391 313.172 293.555 313.215 293.672 313.301C293.789 313.387 293.848 313.504 293.848 313.652V314.449C294.418 313.918 294.981 313.527 295.535 313.277C296.098 313.02 296.68 312.891 297.281 312.891C298.461 312.891 299.387 313.258 300.059 313.992C300.738 314.727 301.078 315.742 301.078 317.039V322.348H301.629C302.02 322.348 302.301 322.414 302.473 322.547C302.645 322.672 302.731 322.875 302.731 323.156C302.731 323.461 302.637 323.68 302.449 323.812C302.27 323.938 301.945 324 301.477 324H298.887C298.387 324 298.066 323.941 297.926 323.824C297.785 323.707 297.715 323.484 297.715 323.156C297.715 322.852 297.797 322.641 297.961 322.523C298.125 322.406 298.434 322.348 298.887 322.348H299.297V317.473C299.297 316.559 299.09 315.863 298.676 315.387C298.262 314.902 297.66 314.66 296.871 314.66C296.074 314.66 295.371 314.93 294.762 315.469C294.152 316.008 293.848 316.676 293.848 317.473V322.348H294.258C294.727 322.348 295.043 322.406 295.207 322.523C295.371 322.641 295.453 322.852 295.453 323.156C295.453 323.484 295.383 323.707 295.242 323.824C295.102 323.941 294.758 324 294.211 324H292.078H291.445C291.125 324 290.883 323.934 290.719 323.801C290.563 323.66 290.484 323.445 290.484 323.156C290.484 322.844 290.574 322.633 290.754 322.523C290.941 322.406 291.301 322.348 291.832 322.348H292.078ZM327.867 318.82C327.438 318.68 327.02 318.578 326.613 318.516C326.215 318.445 325.816 318.41 325.418 318.41C324.215 318.41 323.266 318.613 322.57 319.02C321.875 319.426 321.527 319.973 321.527 320.66C321.527 321.191 321.742 321.629 322.172 321.973C322.609 322.316 323.164 322.488 323.836 322.488C324.828 322.488 325.746 322.23 326.59 321.715C327.441 321.191 327.867 320.648 327.867 320.086V318.82ZM327.961 322.512C327.32 323.09 326.621 323.531 325.863 323.836C325.113 324.141 324.34 324.293 323.543 324.293C322.379 324.293 321.438 323.969 320.719 323.32C320.008 322.672 319.652 321.828 319.652 320.789C319.652 319.555 320.125 318.598 321.07 317.918C322.023 317.238 323.359 316.898 325.078 316.898C325.531 316.898 325.988 316.93 326.449 316.992C326.91 317.047 327.383 317.137 327.867 317.262V317.18C327.867 316.281 327.652 315.617 327.223 315.188C326.793 314.758 326.125 314.543 325.219 314.543C324.609 314.543 323.93 314.707 323.18 315.035C322.43 315.363 321.934 315.527 321.691 315.527C321.465 315.527 321.277 315.438 321.129 315.258C320.981 315.07 320.906 314.832 320.906 314.543C320.906 314.082 321.336 313.691 322.195 313.371C323.063 313.051 324.168 312.891 325.512 312.891C326.887 312.891 327.926 313.242 328.629 313.945C329.332 314.641 329.684 315.672 329.684 317.039V322.348H330.258C330.813 322.348 331.184 322.406 331.371 322.523C331.559 322.641 331.652 322.852 331.652 323.156C331.652 323.438 331.574 323.648 331.418 323.789C331.262 323.93 331.027 324 330.715 324H328.875C328.656 324 328.477 323.934 328.336 323.801C328.195 323.668 328.102 323.477 328.055 323.227L327.961 322.512ZM343.207 324C343.043 324 342.926 323.961 342.856 323.883C342.793 323.797 342.762 323.637 342.762 323.402V322.441C342.293 323.027 341.707 323.484 341.004 323.812C340.301 324.133 339.539 324.293 338.719 324.293C337.242 324.293 336.004 323.77 335.004 322.723C334.012 321.668 333.516 320.359 333.516 318.797C333.516 317.18 334.047 315.836 335.109 314.766C336.172 313.688 337.496 313.148 339.082 313.148C339.887 313.148 340.609 313.293 341.25 313.582C341.891 313.863 342.441 314.281 342.902 314.836V310.348H342.281C341.602 310.348 341.16 310.289 340.957 310.172C340.762 310.047 340.664 309.824 340.664 309.504C340.664 309.223 340.742 309.012 340.898 308.871C341.063 308.73 341.297 308.66 341.602 308.66H344.004C344.238 308.66 344.406 308.699 344.508 308.777C344.617 308.855 344.672 308.977 344.672 309.141V322.348H345.199C345.582 322.348 345.859 322.414 346.031 322.547C346.203 322.672 346.289 322.875 346.289 323.156C346.289 323.422 346.215 323.629 346.066 323.777C345.918 323.926 345.719 324 345.469 324H343.207ZM335.531 318.738C335.531 319.816 335.879 320.699 336.574 321.387C337.27 322.074 338.152 322.418 339.223 322.418C340.301 322.418 341.188 322.062 341.883 321.352C342.578 320.633 342.926 319.723 342.926 318.621C342.926 317.535 342.578 316.641 341.883 315.938C341.195 315.234 340.309 314.883 339.223 314.883C338.121 314.883 337.231 315.238 336.551 315.949C335.871 316.66 335.531 317.59 335.531 318.738ZM357.621 324C357.457 324 357.34 323.961 357.27 323.883C357.207 323.797 357.176 323.637 357.176 323.402V322.441C356.707 323.027 356.121 323.484 355.418 323.812C354.715 324.133 353.953 324.293 353.133 324.293C351.656 324.293 350.418 323.77 349.418 322.723C348.426 321.668 347.93 320.359 347.93 318.797C347.93 317.18 348.461 315.836 349.523 314.766C350.586 313.688 351.91 313.148 353.496 313.148C354.301 313.148 355.023 313.293 355.664 313.582C356.305 313.863 356.856 314.281 357.316 314.836V310.348H356.695C356.016 310.348 355.574 310.289 355.371 310.172C355.176 310.047 355.078 309.824 355.078 309.504C355.078 309.223 355.156 309.012 355.313 308.871C355.477 308.73 355.711 308.66 356.016 308.66H358.418C358.652 308.66 358.82 308.699 358.922 308.777C359.031 308.855 359.086 308.977 359.086 309.141V322.348H359.613C359.996 322.348 360.273 322.414 360.445 322.547C360.617 322.672 360.703 322.875 360.703 323.156C360.703 323.422 360.629 323.629 360.481 323.777C360.332 323.926 360.133 324 359.883 324H357.621ZM349.945 318.738C349.945 319.816 350.293 320.699 350.988 321.387C351.684 322.074 352.566 322.418 353.637 322.418C354.715 322.418 355.602 322.062 356.297 321.352C356.992 320.633 357.34 319.723 357.34 318.621C357.34 317.535 356.992 316.641 356.297 315.938C355.609 315.234 354.723 314.883 353.637 314.883C352.535 314.883 351.645 315.238 350.965 315.949C350.285 316.66 349.945 317.59 349.945 318.738Z" fill="#0496FF"/>
<path d="M232.652 323.203L232.512 325.922C232.496 326.273 232.418 326.527 232.277 326.684C232.137 326.848 231.91 326.93 231.598 326.93C231.34 326.93 231.152 326.855 231.035 326.707C230.918 326.559 230.859 326.32 230.859 325.992V325.781L231 323.133C230.68 323.078 230.371 322.988 230.074 322.863C229.777 322.73 229.477 322.559 229.172 322.348C229.063 322.527 228.941 322.66 228.809 322.746C228.676 322.832 228.52 322.875 228.34 322.875C228.027 322.875 227.781 322.773 227.602 322.57C227.422 322.359 227.332 322.074 227.332 321.715V320.086C227.332 319.805 227.418 319.574 227.59 319.395C227.77 319.215 228.004 319.125 228.293 319.125C228.746 319.125 229.074 319.43 229.277 320.039C229.332 320.227 229.379 320.355 229.418 320.426C229.582 320.715 229.965 320.98 230.566 321.223C231.176 321.457 231.801 321.574 232.441 321.574C233.176 321.574 233.766 321.402 234.211 321.059C234.664 320.715 234.891 320.27 234.891 319.723C234.891 319.238 234.731 318.844 234.41 318.539C234.09 318.227 233.379 317.879 232.277 317.496L230.227 316.805C229.438 316.531 228.809 316.086 228.34 315.469C227.871 314.844 227.637 314.145 227.637 313.371C227.637 312.363 227.984 311.551 228.68 310.934C229.383 310.316 230.356 309.961 231.598 309.867L231.645 308.977C231.668 308.656 231.754 308.418 231.902 308.262C232.051 308.098 232.254 308.016 232.512 308.016C232.777 308.016 232.981 308.09 233.121 308.238C233.262 308.379 233.332 308.586 233.332 308.859V309L233.262 309.938C233.551 310.016 233.832 310.105 234.106 310.207C234.387 310.301 234.656 310.41 234.914 310.535C235.031 310.395 235.148 310.293 235.266 310.23C235.383 310.16 235.512 310.125 235.652 310.125C235.918 310.125 236.109 310.199 236.227 310.348C236.344 310.488 236.402 310.734 236.402 311.086V312.527C236.402 312.816 236.332 313.039 236.191 313.195C236.051 313.344 235.848 313.418 235.582 313.418C235.191 313.418 234.887 313.176 234.668 312.691C234.621 312.566 234.582 312.473 234.551 312.41C234.395 312.098 234.106 311.852 233.684 311.672C233.262 311.492 232.766 311.402 232.195 311.402C231.406 311.402 230.773 311.57 230.297 311.906C229.82 312.242 229.582 312.688 229.582 313.242C229.582 313.688 229.731 314.074 230.027 314.402C230.324 314.723 230.762 314.977 231.34 315.164L233.59 315.914C234.731 316.281 235.566 316.766 236.098 317.367C236.637 317.961 236.906 318.707 236.906 319.605C236.906 320.629 236.523 321.465 235.758 322.113C235 322.762 233.965 323.125 232.652 323.203Z" fill="#506677"/>
<path d="M508.639 412H512.401L506.518 395.09H502.358L496.487 412H500.12L501.409 407.898H507.35L508.639 412ZM504.339 398.324H504.421L506.589 405.25H502.171L504.339 398.324ZM514.855 395.09V412H518.395V406.668H521.559C525.121 406.668 527.594 404.348 527.594 400.879C527.594 397.398 525.203 395.09 521.734 395.09H514.855ZM518.395 397.891H520.797C522.824 397.891 523.996 398.969 523.996 400.891C523.996 402.824 522.812 403.902 520.785 403.902H518.395V397.891ZM530.411 395.09V412H533.95V406.668H537.115C540.677 406.668 543.15 404.348 543.15 400.879C543.15 397.398 540.759 395.09 537.29 395.09H530.411ZM533.95 397.891H536.353C538.38 397.891 539.552 398.969 539.552 400.891C539.552 402.824 538.368 403.902 536.341 403.902H533.95V397.891Z" fill="#8291A5"/>
<g filter="url(#filter4_dd)">
<circle cx="520" cy="317" r="52" fill="white"/>
</g>
<path d="M519.399 331.711C519.399 331.099 519.442 330.485 519.525 329.851L516.942 328.356C516.404 328.046 516.22 327.355 516.53 326.82L521.012 319.066C521.323 318.528 522.007 318.344 522.547 318.655L525.155 320.153C526.293 319.312 527.733 318.52 528.917 318.004V315.5C528.917 314.879 529.421 314.375 530.042 314.375H538.742C539.363 314.375 539.867 314.879 539.867 315.5V318.027C540.743 318.463 541.514 319.046 542.252 319.656V303.125C542.25 302.504 541.746 302 541.125 302H537.75V298.625C537.75 298.004 537.246 297.5 536.625 297.5H508.5V294.125C508.5 293.504 507.996 293 507.375 293H496.125C495.504 293 495 293.504 495 294.125V329C495 331.482 497.018 333.5 499.5 333.5H519.521C519.444 332.89 519.399 332.294 519.399 331.711ZM501.75 303.125V329C501.75 330.24 500.74 331.25 499.5 331.25C498.26 331.25 497.25 330.24 497.25 329V295.25H506.25V298.625C506.25 299.246 506.754 299.75 507.375 299.75H535.5V302H502.875C502.254 302 501.75 302.504 501.75 303.125Z" fill="#506677"/>
<path d="M546.588 335.136C546.176 334.899 545.958 334.427 546.043 333.959C546.185 333.199 546.257 332.44 546.257 331.713C546.257 330.984 546.185 330.251 546.041 329.47C545.953 329.002 546.174 328.53 546.586 328.291L548.867 326.973L545.517 321.172L543.256 322.486C542.842 322.725 542.322 322.68 541.957 322.367L541.579 322.043C540.511 321.118 539.5 320.248 538.348 319.82C537.907 319.656 537.615 319.235 537.615 318.767V316.625H531.164V318.765C531.164 319.233 530.872 319.653 530.431 319.818C528.952 320.367 527.04 321.462 525.982 322.365C525.62 322.677 525.105 322.725 524.691 322.486L522.396 321.165L519.039 326.973L521.32 328.289C521.732 328.528 521.948 329 521.863 329.468C521.719 330.253 521.647 330.987 521.647 331.711C521.647 332.445 521.716 333.176 521.86 333.957C521.948 334.425 521.73 334.897 521.318 335.133L519.034 336.452L522.387 342.259L524.691 340.936C525.103 340.702 525.62 340.747 525.982 341.058C527.017 341.944 529.927 343.215 531.52 343.807C531.961 343.971 532.253 344.39 532.253 344.86V347H537.615V344.862C537.615 344.392 537.905 343.972 538.346 343.81C539.307 343.452 540.223 342.619 541.111 341.814C541.393 341.557 541.674 341.301 541.955 341.06C542.32 340.747 542.839 340.702 543.251 340.941L545.524 342.257L548.869 336.454L546.588 335.136ZM533.952 338.806C530.041 338.806 526.86 335.622 526.86 331.711C526.86 327.801 530.041 324.619 533.952 324.619C537.865 324.619 541.046 327.801 541.046 331.711C541.046 335.622 537.862 338.806 533.952 338.806Z" fill="#506677"/>
<defs>
<filter id="filter0_dd" x="118" y="114" width="116" height="116" filterUnits="userSpaceOnUse" color-interpolation-filters="sRGB">
<feFlood flood-opacity="0" result="BackgroundImageFix"/>
<feColorMatrix in="SourceAlpha" type="matrix" values="0 0 0 0 0 0 0 0 0 0 0 0 0 0 0 0 0 0 127 0"/>
<feOffset dy="1"/>
<feGaussianBlur stdDeviation="1.5"/>
<feColorMatrix type="matrix" values="0 0 0 0 0 0 0 0 0 0 0 0 0 0 0 0 0 0 0.08 0"/>
<feBlend mode="normal" in2="BackgroundImageFix" result="effect1_dropShadow"/>
<feColorMatrix in="SourceAlpha" type="matrix" values="0 0 0 0 0 0 0 0 0 0 0 0 0 0 0 0 0 0 127 0"/>
<feOffset dy="4"/>
<feGaussianBlur stdDeviation="3"/>
<feColorMatrix type="matrix" values="0 0 0 0 0.196078 0 0 0 0 0.196078 0 0 0 0 0.364706 0 0 0 0.11 0"/>
<feBlend mode="normal" in2="effect1_dropShadow" result="effect2_dropShadow"/>
<feBlend mode="normal" in="SourceGraphic" in2="effect2_dropShadow" result="shape"/>
</filter>
<filter id="filter1_dd" x="118" y="362" width="116" height="116" filterUnits="userSpaceOnUse" color-interpolation-filters="sRGB">
<feFlood flood-opacity="0" result="BackgroundImageFix"/>
<feColorMatrix in="SourceAlpha" type="matrix" values="0 0 0 0 0 0 0 0 0 0 0 0 0 0 0 0 0 0 127 0"/>
<feOffset dy="1"/>
<feGaussianBlur stdDeviation="1.5"/>
<feColorMatrix type="matrix" values="0 0 0 0 0 0 0 0 0 0 0 0 0 0 0 0 0 0 0.08 0"/>
<feBlend mode="normal" in2="BackgroundImageFix" result="effect1_dropShadow"/>
<feColorMatrix in="SourceAlpha" type="matrix" values="0 0 0 0 0 0 0 0 0 0 0 0 0 0 0 0 0 0 127 0"/>
<feOffset dy="4"/>
<feGaussianBlur stdDeviation="3"/>
<feColorMatrix type="matrix" values="0 0 0 0 0.196078 0 0 0 0 0.196078 0 0 0 0 0.364706 0 0 0 0.11 0"/>
<feBlend mode="normal" in2="effect1_dropShadow" result="effect2_dropShadow"/>
<feBlend mode="normal" in="SourceGraphic" in2="effect2_dropShadow" result="shape"/>
</filter>
<filter id="filter2_dd" x="804" y="114" width="116" height="116" filterUnits="userSpaceOnUse" color-interpolation-filters="sRGB">
<feFlood flood-opacity="0" result="BackgroundImageFix"/>
<feColorMatrix in="SourceAlpha" type="matrix" values="0 0 0 0 0 0 0 0 0 0 0 0 0 0 0 0 0 0 127 0"/>
<feOffset dy="1"/>
<feGaussianBlur stdDeviation="1.5"/>
<feColorMatrix type="matrix" values="0 0 0 0 0 0 0 0 0 0 0 0 0 0 0 0 0 0 0.08 0"/>
<feBlend mode="normal" in2="BackgroundImageFix" result="effect1_dropShadow"/>
<feColorMatrix in="SourceAlpha" type="matrix" values="0 0 0 0 0 0 0 0 0 0 0 0 0 0 0 0 0 0 127 0"/>
<feOffset dy="4"/>
<feGaussianBlur stdDeviation="3"/>
<feColorMatrix type="matrix" values="0 0 0 0 0.196078 0 0 0 0 0.196078 0 0 0 0 0.364706 0 0 0 0.11 0"/>
<feBlend mode="normal" in2="effect1_dropShadow" result="effect2_dropShadow"/>
<feBlend mode="normal" in="SourceGraphic" in2="effect2_dropShadow" result="shape"/>
</filter>
<filter id="filter3_dd" x="804" y="362" width="116" height="116" filterUnits="userSpaceOnUse" color-interpolation-filters="sRGB">
<feFlood flood-opacity="0" result="BackgroundImageFix"/>
<feColorMatrix in="SourceAlpha" type="matrix" values="0 0 0 0 0 0 0 0 0 0 0 0 0 0 0 0 0 0 127 0"/>
<feOffset dy="1"/>
<feGaussianBlur stdDeviation="1.5"/>
<feColorMatrix type="matrix" values="0 0 0 0 0 0 0 0 0 0 0 0 0 0 0 0 0 0 0.08 0"/>
<feBlend mode="normal" in2="BackgroundImageFix" result="effect1_dropShadow"/>
<feColorMatrix in="SourceAlpha" type="matrix" values="0 0 0 0 0 0 0 0 0 0 0 0 0 0 0 0 0 0 127 0"/>
<feOffset dy="4"/>
<feGaussianBlur stdDeviation="3"/>
<feColorMatrix type="matrix" values="0 0 0 0 0.196078 0 0 0 0 0.196078 0 0 0 0 0.364706 0 0 0 0.11 0"/>
<feBlend mode="normal" in2="effect1_dropShadow" result="effect2_dropShadow"/>
<feBlend mode="normal" in="SourceGraphic" in2="effect2_dropShadow" result="shape"/>
</filter>
<filter id="filter4_dd" x="462" y="263" width="116" height="116" filterUnits="userSpaceOnUse" color-interpolation-filters="sRGB">
<feFlood flood-opacity="0" result="BackgroundImageFix"/>
<feColorMatrix in="SourceAlpha" type="matrix" values="0 0 0 0 0 0 0 0 0 0 0 0 0 0 0 0 0 0 127 0"/>
<feOffset dy="1"/>
<feGaussianBlur stdDeviation="1.5"/>
<feColorMatrix type="matrix" values="0 0 0 0 0 0 0 0 0 0 0 0 0 0 0 0 0 0 0.08 0"/>
<feBlend mode="normal" in2="BackgroundImageFix" result="effect1_dropShadow"/>
<feColorMatrix in="SourceAlpha" type="matrix" values="0 0 0 0 0 0 0 0 0 0 0 0 0 0 0 0 0 0 127 0"/>
<feOffset dy="4"/>
<feGaussianBlur stdDeviation="3"/>
<feColorMatrix type="matrix" values="0 0 0 0 0.196078 0 0 0 0 0.196078 0 0 0 0 0.364706 0 0 0 0.11 0"/>
<feBlend mode="normal" in2="effect1_dropShadow" result="effect2_dropShadow"/>
<feBlend mode="normal" in="SourceGraphic" in2="effect2_dropShadow" result="shape"/>
</filter>
<clipPath id="clip0">
<rect width="54" height="43.6446" fill="white" transform="translate(149 394)"/>
</clipPath>
</defs>
</svg>
