<svg width="2089" height="1134" viewBox="0 0 2089 1134" fill="none" xmlns="http://www.w3.org/2000/svg">
<g clip-path="url(#clip0)">
<rect width="2089" height="1134" fill="white"/>
<ellipse cx="1023" cy="741.333" rx="348.667" ry="348.667" fill="#D7EEFF"/>
<circle cx="848.667" cy="392.667" r="348.667" fill="#D7EEFF"/>
<ellipse cx="1197.33" cy="392.667" rx="348.667" ry="348.667" fill="#D7EEFF"/>
<path d="M1023 694.688C931.097 641.525 865.712 547.618 851.544 437.666C902.172 409.019 960.677 392.667 1023 392.667C1085.32 392.667 1143.83 409.019 1194.46 437.666C1180.29 547.618 1114.9 641.525 1023 694.688Z" fill="white"/>
<path d="M1194.46 437.666C1196.35 422.934 1197.33 407.915 1197.33 392.667C1197.33 263.611 1127.22 150.931 1023 90.6454C918.783 150.931 848.667 263.611 848.667 392.667C848.667 407.915 849.646 422.934 851.544 437.666C902.173 409.019 960.677 392.667 1023 392.667C1085.32 392.667 1143.83 409.019 1194.46 437.666Z" fill="#ADDDFF"/>
<path d="M851.544 437.666C758.129 490.523 691.526 585.238 677.21 696.334C727.839 724.982 786.343 741.333 848.667 741.333C912.174 741.333 971.716 724.354 1023 694.688C931.097 641.525 865.711 547.618 851.544 437.666Z" fill="#ADDDFF"/>
<path d="M1194.46 437.666C1180.29 547.618 1114.9 641.525 1023 694.688C1074.28 724.354 1133.83 741.333 1197.33 741.333C1259.66 741.333 1318.16 724.982 1368.79 696.334C1354.47 585.238 1287.87 490.523 1194.46 437.666Z" fill="#ADDDFF"/>
<path d="M1063.25 580.947H1003.39C1001.48 580.953 999.585 580.58 997.819 579.847C996.053 579.115 994.451 578.039 993.105 576.682L947.485 531.046C945.806 529.366 944.663 527.226 944.199 524.896C943.736 522.566 943.974 520.151 944.883 517.956C945.792 515.761 947.33 513.885 949.305 512.565C951.279 511.245 953.6 510.54 955.975 510.539H1011.86V454.625C1011.86 452.249 1012.56 449.927 1013.88 447.953C1015.21 445.978 1017.08 444.442 1019.28 443.538C1021.48 442.644 1023.89 442.413 1026.22 442.874C1028.54 443.334 1030.68 444.467 1032.38 446.132L1078.02 491.794C1079.37 493.143 1080.44 494.745 1081.17 496.508C1081.9 498.271 1082.28 500.161 1082.27 502.069V561.937C1082.27 566.981 1080.26 571.816 1076.69 575.38C1073.13 578.945 1068.29 580.947 1063.25 580.947ZM1005.89 560.371H1061.69V504.557L1032.43 475.283V531.106H976.626L1005.89 560.371Z" fill="url(#paint0_linear)"/>
<path d="M1243.6 384.744V367.344H1261.46V361.899H1243.6V348.734H1263.1V343.174H1237.14V384.744H1243.6ZM1266.2 384.744H1272.42V366.595C1272.42 362.303 1274.9 359.623 1278.9 359.623C1280.11 359.623 1281.21 359.767 1281.7 359.969V354.179C1281.24 354.092 1280.46 353.948 1279.57 353.948C1275.99 353.948 1273.29 356.051 1272.28 359.595H1272.13V354.438H1266.2V384.744ZM1292.03 385.263C1296 385.263 1299.83 383.131 1301.59 379.761H1301.74V384.744H1307.7V363.858C1307.7 357.78 1303 353.89 1295.66 353.89C1288.17 353.89 1283.5 357.924 1283.15 363.397H1289.03C1289.58 360.689 1291.83 358.961 1295.43 358.961C1299.23 358.961 1301.51 360.977 1301.51 364.348V366.681L1293.21 367.171C1286.01 367.575 1281.94 370.83 1281.94 376.131C1281.94 381.576 1286.09 385.263 1292.03 385.263ZM1293.76 380.337C1290.41 380.337 1288.22 378.608 1288.22 375.958C1288.22 373.365 1290.33 371.723 1294.04 371.464L1301.51 371.003V373.394C1301.51 377.341 1298.11 380.337 1293.76 380.337ZM1311.98 384.744H1318.2V366.019C1318.2 362.13 1320.82 359.249 1324.51 359.249C1328.03 359.249 1330.24 361.467 1330.24 364.953V384.744H1336.35V365.817C1336.35 361.986 1338.92 359.249 1342.6 359.249C1346.29 359.249 1348.39 361.496 1348.39 365.414V384.744H1354.64V363.916C1354.64 357.895 1350.73 353.919 1344.73 353.919C1340.41 353.919 1336.84 356.166 1335.29 359.854H1335.14C1333.93 356.08 1330.88 353.919 1326.67 353.919C1322.58 353.919 1319.41 356.166 1318.06 359.537H1317.91V354.438H1311.98V384.744ZM1378.98 375.843C1378.14 378.493 1375.52 380.279 1371.97 380.279C1366.99 380.279 1363.82 376.793 1363.82 371.521V371.147H1385.23V369.015C1385.23 359.825 1379.98 353.89 1371.57 353.89C1363.02 353.89 1357.54 360.228 1357.54 369.735C1357.54 379.3 1362.93 385.321 1371.83 385.321C1378.77 385.321 1384.02 381.374 1384.88 375.843H1378.98ZM1371.57 358.903C1375.92 358.903 1378.86 362.159 1379 366.797H1363.85C1364.17 362.216 1367.22 358.903 1371.57 358.903ZM1428.23 354.438H1422.06L1416.53 378.291H1416.38L1410.05 354.438H1404.05L1397.75 378.291H1397.63L1392.1 354.438H1385.88L1394.2 384.744H1400.63L1406.94 362.043H1407.08L1413.45 384.744H1419.93L1428.23 354.438ZM1443.11 385.321C1451.78 385.321 1457.48 379.357 1457.48 369.591C1457.48 359.854 1451.75 353.89 1443.11 353.89C1434.46 353.89 1428.73 359.854 1428.73 369.591C1428.73 379.357 1434.44 385.321 1443.11 385.321ZM1443.11 380.193C1438.24 380.193 1435.07 376.332 1435.07 369.591C1435.07 362.879 1438.24 359.018 1443.11 359.018C1447.98 359.018 1451.14 362.879 1451.14 369.591C1451.14 376.332 1448 380.193 1443.11 380.193ZM1460.52 384.744H1466.75V366.595C1466.75 362.303 1469.22 359.623 1473.23 359.623C1474.44 359.623 1475.53 359.767 1476.02 359.969V354.179C1475.56 354.092 1474.78 353.948 1473.89 353.948C1470.32 353.948 1467.61 356.051 1466.6 359.595H1466.46V354.438H1460.52V384.744ZM1484.62 367.43H1484.57V343.174H1478.34V384.744H1484.57V373.855L1487.16 371.291L1497.44 384.744H1504.67L1491.62 367.488L1504.18 354.438H1496.87L1484.62 367.43Z" fill="#2D74B6" fill-opacity="0.5"/>
<path d="M547.662 343.174V384.744H562.325C574.713 384.744 582.002 377.024 582.002 363.887C582.002 350.779 574.684 343.174 562.325 343.174H547.662ZM554.115 348.734H561.72C570.507 348.734 575.405 354.15 575.405 363.945C575.405 373.768 570.536 379.156 561.72 379.156H554.115V348.734ZM594.463 385.263C598.439 385.263 602.27 383.131 604.028 379.761H604.172V384.744H610.135V363.858C610.135 357.78 605.439 353.89 598.093 353.89C590.603 353.89 585.936 357.924 585.59 363.397H591.467C592.014 360.689 594.261 358.961 597.863 358.961C601.665 358.961 603.941 360.977 603.941 364.348V366.681L595.644 367.171C588.442 367.575 584.38 370.83 584.38 376.131C584.38 381.576 588.529 385.263 594.463 385.263ZM596.192 380.337C592.85 380.337 590.66 378.608 590.66 375.958C590.66 373.365 592.763 371.723 596.48 371.464L603.941 371.003V373.394C603.941 377.341 600.542 380.337 596.192 380.337ZM613.867 363.023C613.867 367.43 616.719 370.196 622.481 371.521L627.407 372.674C630.72 373.423 631.844 374.575 631.844 376.534C631.844 379.012 629.539 380.567 625.794 380.567C621.991 380.567 619.831 379.012 619.255 375.843H613.09C613.666 381.604 618.218 385.321 625.794 385.321C632.939 385.321 638.095 381.518 638.095 375.987C638.095 371.608 635.733 369.188 629.539 367.747L624.613 366.624C621.329 365.875 619.946 364.578 619.946 362.677C619.946 360.257 622.193 358.615 625.564 358.615C629.05 358.615 631.21 360.459 631.556 363.397H637.404C637.202 357.808 632.622 353.89 625.564 353.89C618.592 353.89 613.867 357.607 613.867 363.023ZM641.396 384.744H647.618V367.229C647.618 362.447 650.442 359.278 655.051 359.278C659.43 359.278 661.677 361.957 661.677 366.422V384.744H667.928V365.212C667.928 358.356 663.953 353.919 657.298 353.919C652.689 353.919 649.376 355.965 647.705 359.508H647.561V343.174H641.396V384.744ZM688.312 385.263C696.004 385.263 700.959 379.213 700.959 369.591C700.959 359.998 695.975 353.948 688.341 353.948C684.049 353.948 680.592 356.08 678.777 359.595H678.633V343.174H672.41V384.744H678.46V379.588H678.575C680.448 383.102 683.876 385.263 688.312 385.263ZM686.641 359.191C691.539 359.191 694.564 363.224 694.564 369.591C694.564 376.015 691.539 379.991 686.641 379.991C681.917 379.991 678.604 375.9 678.604 369.591C678.604 363.34 681.917 359.191 686.641 359.191ZM717.079 385.321C725.751 385.321 731.455 379.357 731.455 369.591C731.455 359.854 725.722 353.89 717.079 353.89C708.437 353.89 702.704 359.854 702.704 369.591C702.704 379.357 708.408 385.321 717.079 385.321ZM717.079 380.193C712.211 380.193 709.042 376.332 709.042 369.591C709.042 362.879 712.211 359.018 717.079 359.018C721.948 359.018 725.117 362.879 725.117 369.591C725.117 376.332 721.977 380.193 717.079 380.193ZM743.369 385.263C747.345 385.263 751.176 383.131 752.933 379.761H753.077V384.744H759.041V363.858C759.041 357.78 754.345 353.89 746.999 353.89C739.509 353.89 734.842 357.924 734.496 363.397H740.373C740.92 360.689 743.167 358.961 746.768 358.961C750.571 358.961 752.847 360.977 752.847 364.348V366.681L744.55 367.171C737.348 367.575 733.286 370.83 733.286 376.131C733.286 381.576 737.434 385.263 743.369 385.263ZM745.098 380.337C741.756 380.337 739.566 378.608 739.566 375.958C739.566 373.365 741.669 371.723 745.386 371.464L752.847 371.003V373.394C752.847 377.341 749.448 380.337 745.098 380.337ZM763.321 384.744H769.543V366.595C769.543 362.303 772.021 359.623 776.025 359.623C777.235 359.623 778.33 359.767 778.82 359.969V354.179C778.359 354.092 777.581 353.948 776.688 353.948C773.116 353.948 770.408 356.051 769.399 359.595H769.255V354.438H763.321V384.744ZM790.964 385.263C795.372 385.263 798.829 383.045 800.615 379.588H800.73V384.744H806.78V343.174H800.529V359.479H800.413C798.714 356.138 795.257 353.948 790.907 353.948C783.301 353.948 778.231 360.027 778.231 369.591C778.231 379.156 783.301 385.263 790.964 385.263ZM792.606 359.191C797.389 359.191 800.586 363.311 800.586 369.591C800.586 375.929 797.389 379.991 792.606 379.991C787.68 379.991 784.598 375.987 784.598 369.591C784.598 363.224 787.68 359.191 792.606 359.191Z" fill="#2D74B6" fill-opacity="0.5"/>
<path d="M932.539 918.427H912.604V905.52H931.473V900.162H912.604V888.005H932.539V882.445H906.151V924.016H932.539V918.427ZM947.997 912.867L954.68 924.016H961.537L951.713 908.689L961.652 893.709H954.796L948.256 904.685H948.141L941.515 893.709H934.543L944.396 908.891L934.399 924.016H941.14L947.853 912.867H947.997ZM965.615 886.536V893.709H961.207V898.635H965.615V916.036C965.615 921.884 968.006 924.217 974.142 924.217C975.525 924.217 976.908 924.102 977.599 923.929V919.003C977.196 919.089 976.188 919.147 975.554 919.147C973.019 919.147 971.867 917.966 971.867 915.344V898.635H977.628V893.709H971.867V886.536H965.615ZM1000.32 915.114C999.481 917.764 996.86 919.55 993.316 919.55C988.332 919.55 985.163 916.064 985.163 910.792V910.418H1006.57V908.286C1006.57 899.096 1001.33 893.162 992.913 893.162C984.357 893.162 978.883 899.499 978.883 909.006C978.883 918.571 984.27 924.592 993.172 924.592C1000.12 924.592 1005.36 920.645 1006.22 915.114H1000.32ZM992.913 898.174C997.263 898.174 1000.2 901.43 1000.35 906.068H985.192C985.509 901.487 988.563 898.174 992.913 898.174ZM1009.64 924.016H1015.86V906.356C1015.86 901.66 1018.68 898.549 1023.06 898.549C1027.38 898.549 1029.52 901.055 1029.52 905.607V924.016H1035.77V904.397C1035.77 897.454 1031.94 893.19 1025.25 893.19C1020.59 893.19 1017.36 895.322 1015.72 898.779H1015.57V893.709H1009.64V924.016ZM1039.47 902.294C1039.47 906.702 1042.32 909.467 1048.08 910.792L1053.01 911.945C1056.32 912.694 1057.45 913.846 1057.45 915.805C1057.45 918.283 1055.14 919.838 1051.4 919.838C1047.6 919.838 1045.43 918.283 1044.86 915.114H1038.69C1039.27 920.875 1043.82 924.592 1051.4 924.592C1058.54 924.592 1063.7 920.789 1063.7 915.258C1063.7 910.879 1061.34 908.459 1055.14 907.018L1050.22 905.895C1046.93 905.146 1045.55 903.85 1045.55 901.948C1045.55 899.528 1047.8 897.886 1051.17 897.886C1054.65 897.886 1056.81 899.73 1057.16 902.668H1063.01C1062.81 897.08 1058.23 893.162 1051.17 893.162C1044.2 893.162 1039.47 896.878 1039.47 902.294ZM1070.08 888.811C1072.07 888.811 1073.65 887.198 1073.65 885.239C1073.65 883.251 1072.07 881.667 1070.08 881.667C1068.09 881.667 1066.48 883.251 1066.48 885.239C1066.48 887.198 1068.09 888.811 1070.08 888.811ZM1066.97 924.016H1073.19V893.709H1066.97V924.016ZM1090.81 924.592C1099.48 924.592 1105.19 918.628 1105.19 908.862C1105.19 899.125 1099.45 893.162 1090.81 893.162C1082.17 893.162 1076.44 899.125 1076.44 908.862C1076.44 918.628 1082.14 924.592 1090.81 924.592ZM1090.81 919.464C1085.94 919.464 1082.77 915.603 1082.77 908.862C1082.77 902.15 1085.94 898.289 1090.81 898.289C1095.68 898.289 1098.85 902.15 1098.85 908.862C1098.85 915.603 1095.71 919.464 1090.81 919.464ZM1108.23 924.016H1114.45V906.356C1114.45 901.66 1117.27 898.549 1121.65 898.549C1125.97 898.549 1128.11 901.055 1128.11 905.607V924.016H1134.36V904.397C1134.36 897.454 1130.53 893.19 1123.84 893.19C1119.18 893.19 1115.95 895.322 1114.31 898.779H1114.16V893.709H1108.23V924.016ZM1138.06 902.294C1138.06 906.702 1140.91 909.467 1146.67 910.792L1151.6 911.945C1154.91 912.694 1156.04 913.846 1156.04 915.805C1156.04 918.283 1153.73 919.838 1149.99 919.838C1146.19 919.838 1144.02 918.283 1143.45 915.114H1137.28C1137.86 920.875 1142.41 924.592 1149.99 924.592C1157.13 924.592 1162.29 920.789 1162.29 915.258C1162.29 910.879 1159.93 908.459 1153.73 907.018L1148.81 905.895C1145.52 905.146 1144.14 903.85 1144.14 901.948C1144.14 899.528 1146.39 897.886 1149.76 897.886C1153.24 897.886 1155.4 899.73 1155.75 902.668H1161.6C1161.4 897.08 1156.82 893.162 1149.76 893.162C1142.79 893.162 1138.06 896.878 1138.06 902.294Z" fill="#2D74B6" fill-opacity="0.5"/>
</g>
<defs>
<linearGradient id="paint0_linear" x1="952.73" y1="410.455" x2="1051.37" y2="576.178" gradientUnits="userSpaceOnUse">
<stop stop-color="#04B0FF"/>
<stop offset="1" stop-color="#0496FF"/>
</linearGradient>
<clipPath id="clip0">
<rect width="2089" height="1134" fill="white"/>
</clipPath>
</defs>
</svg>
