<svg width="200" height="200" viewBox="0 0 200 200" fill="none" xmlns="http://www.w3.org/2000/svg">
<path d="M0 200L4.71939e-06 0L200 4.71939e-06L200 200L0 200Z" fill="#FECB42"/>
<path fill-rule="evenodd" clip-rule="evenodd" d="M82 63C72.0589 63 64 71.0589 64 81C64 90.0655 70.7046 97.5702 79.4248 98.8176C81.065 99.0522 82.2044 100.572 81.9698 102.212C81.7352 103.852 80.2154 104.992 78.5752 104.757C66.9417 103.093 58 93.0933 58 81C58 67.7452 68.7452 57 82 57C93.895 57 103.764 65.6505 105.668 77.0036C105.942 78.6376 104.84 80.1845 103.206 80.4587C101.572 80.7328 100.025 79.6304 99.751 77.9964C98.3231 69.4855 90.916 63 82 63Z" fill="#FFEFC6"/>
<path fill-rule="evenodd" clip-rule="evenodd" d="M82 49C64.3269 49 50 63.3269 50 81C50 98.6731 64.3269 113 82 113C83.6569 113 85 114.343 85 116C85 117.657 83.6569 119 82 119C61.0132 119 44 101.987 44 81C44 60.0132 61.0132 43 82 43C102.987 43 120 60.0132 120 81C120 82.6569 118.657 84 117 84C115.343 84 114 82.6569 114 81C114 63.3269 99.6731 49 82 49Z" fill="#FFEFC6"/>
<path fill-rule="evenodd" clip-rule="evenodd" d="M107.151 143.95C106.177 145.105 104.324 144.804 103.765 143.401L78.3049 79.5281C77.6427 77.8669 79.327 76.2381 80.9651 76.9555L142.165 103.758C143.495 104.341 143.781 106.101 142.703 107.075L129.5 119L154.195 145.119C154.926 145.893 154.923 147.104 154.188 147.874L146.427 156.005C145.646 156.823 144.344 156.832 143.553 156.025L118.5 130.5L107.151 143.95Z" fill="#CF7C3D"/>
</svg>
