<svg width="168" height="50" viewBox="0 0 168 50" fill="none" xmlns="http://www.w3.org/2000/svg">
<path fill-rule="evenodd" clip-rule="evenodd" d="M104.166 39.1024C94.3979 46.2291 80.2802 49.9999 68.0703 49.9999C51.0145 49.9999 35.6377 43.7782 24.0001 33.3709C23.0844 32.5414 23.8856 31.4478 24.9922 32.0889C37.5455 39.291 53.075 43.665 69.1005 43.665C79.8986 43.665 91.8033 41.4403 102.754 36.8777C104.395 36.1613 105.807 37.9335 104.166 39.1024Z" fill="black"/>
<path fill-rule="evenodd" clip-rule="evenodd" d="M108.249 34.5399C106.989 32.9562 100.007 33.7858 96.8399 34.1628C95.886 34.276 95.7334 33.4464 96.611 32.8431C102.182 28.9592 111.339 30.0904 112.408 31.3725C113.476 32.6923 112.14 41.742 106.875 46.0784C106.074 46.7571 105.311 46.38 105.654 45.5128C106.837 42.6093 109.508 36.1236 108.249 34.5399Z" fill="black"/>
<path fill-rule="evenodd" clip-rule="evenodd" d="M97.0688 5.46733V1.69659C97.0688 1.13098 97.5267 0.753906 98.0227 0.753906H115.117C115.651 0.753906 116.109 1.13098 116.109 1.69659V4.93943C116.109 5.46733 115.651 6.18377 114.811 7.31499L105.959 19.7961C109.241 19.7207 112.713 20.2109 115.689 21.87C116.376 22.2471 116.528 22.8127 116.605 23.3406V27.3753C116.605 27.9409 115.994 28.582 115.346 28.2426C110.08 25.5277 103.097 25.226 97.2978 28.2803C96.6873 28.582 96.0768 27.9409 96.0768 27.413V23.5292C96.0768 22.9258 96.0768 21.87 96.7254 20.9274L106.989 6.41001H98.0609C97.5267 6.41001 97.0688 6.03294 97.0688 5.46733Z" fill="black"/>
<path fill-rule="evenodd" clip-rule="evenodd" d="M34.7601 28.9967H29.5709C29.0749 28.959 28.6933 28.5819 28.6552 28.1294V1.77197C28.6552 1.24406 29.113 0.829283 29.6472 0.829283H34.493C34.989 0.86699 35.4088 1.24406 35.4469 1.69655V5.12793H35.5614C36.8205 1.80968 39.1862 0.263672 42.3913 0.263672C45.6346 0.263672 47.695 1.80968 49.1449 5.12793C50.4041 1.80968 53.2658 0.263672 56.3183 0.263672C58.4931 0.263672 60.897 1.13094 62.3469 3.12943C63.9876 5.35417 63.6442 8.5593 63.6442 11.3874V28.0163C63.6442 28.5442 63.1863 28.959 62.6521 28.959H57.4629C56.9288 28.9213 56.5472 28.5065 56.5472 28.0163V14.0646C56.5472 12.9711 56.6617 10.1807 56.3946 9.12491C56.013 7.35266 54.8302 6.86247 53.3421 6.86247C52.0829 6.86247 50.7856 7.69203 50.2514 9.01179C49.7173 10.3315 49.7554 12.5563 49.7554 14.0646V28.054C49.7554 28.5819 49.2976 28.9967 48.7634 28.9967H43.4978C42.9637 28.959 42.5821 28.5442 42.5821 28.054V14.0646C42.5821 11.1234 43.0781 6.78705 39.377 6.78705C35.6377 6.78705 35.7903 11.0103 35.7903 14.0646V28.054C35.7522 28.5819 35.2943 28.9967 34.7601 28.9967Z" fill="black"/>
<path fill-rule="evenodd" clip-rule="evenodd" d="M130.799 0.263672C138.506 0.263672 142.703 6.78705 142.703 15.1204C142.703 23.1521 138.087 29.5623 130.799 29.5623C123.244 29.5623 119.123 23.0012 119.123 14.8564C119.123 6.63622 123.282 0.263672 130.799 0.263672ZM130.875 5.61812C127.059 5.61812 126.792 10.784 126.792 13.9892C126.792 17.1943 126.754 24.0947 130.837 24.0947C134.881 24.0947 135.072 18.5518 135.072 15.1581C135.072 12.9334 134.958 10.2938 134.309 8.18222C133.66 6.37227 132.516 5.61812 130.875 5.61812Z" fill="black"/>
<path fill-rule="evenodd" clip-rule="evenodd" d="M152.7 28.9967H147.511C146.977 28.959 146.595 28.5442 146.595 28.054V1.65885C146.633 1.16865 147.091 0.791575 147.587 0.791575H152.395C152.853 0.829283 153.234 1.13094 153.311 1.54572V5.58041H153.425C154.875 1.9605 156.936 0.263672 160.522 0.263672C162.85 0.263672 165.139 1.09323 166.589 3.35568C167.963 5.46729 167.963 9.01179 167.963 11.5759V28.1671C167.886 28.6196 167.467 28.9967 166.971 28.9967H161.743C161.247 28.959 160.866 28.6196 160.828 28.1671V13.8383C160.828 10.9726 161.171 6.74934 157.584 6.74934C156.325 6.74934 155.142 7.57891 154.57 8.86096C153.845 10.4824 153.73 12.0661 153.73 13.8383V28.0163C153.692 28.5819 153.234 28.9967 152.7 28.9967Z" fill="black"/>
<path fill-rule="evenodd" clip-rule="evenodd" d="M83.4472 16.4027C83.4472 18.4012 83.4853 20.0603 82.4551 21.8703C81.6157 23.3032 80.3184 24.2081 78.8685 24.2081C76.8843 24.2081 75.7015 22.6999 75.7015 20.4751C75.7015 16.1011 79.6697 15.3092 83.4472 15.3092V16.4027ZM88.6745 28.9216C88.3311 29.2232 87.8351 29.2609 87.4536 29.0347C85.7365 27.6018 85.4313 26.9608 84.4774 25.6033C81.6157 28.4691 79.5934 29.3364 75.8923 29.3364C71.5043 29.3364 68.1085 26.6591 68.1085 21.3424C68.1085 17.1569 70.3978 14.3288 73.6411 12.9336C76.4646 11.727 80.3947 11.5008 83.409 11.1614V10.4827C83.409 9.23831 83.5235 7.80543 82.7604 6.74962C82.1499 5.80694 80.9289 5.42986 79.8605 5.42986C77.8764 5.42986 76.1212 6.44796 75.7015 8.52187C75.6252 8.97436 75.2818 9.42685 74.7858 9.46456L69.7492 8.93665C69.3295 8.82353 68.8334 8.52187 68.986 7.88084C70.1307 1.84766 75.6634 0 80.6236 0C83.1419 0 86.4615 0.678733 88.4456 2.5641C90.9639 4.90196 90.735 8.03167 90.735 11.3876V19.3816C90.735 21.7949 91.727 22.8507 92.6809 24.1327C93.0243 24.5852 93.1006 25.1508 92.6809 25.4902C91.6126 26.3952 89.7429 28.0166 88.6745 28.9216Z" fill="black"/>
<path fill-rule="evenodd" clip-rule="evenodd" d="M15.3006 16.4027C15.3006 18.4012 15.3387 20.0603 14.3085 21.8703C13.4691 23.3032 12.1718 24.2081 10.7218 24.2081C8.73772 24.2081 7.55489 22.6998 7.55489 20.4751C7.55489 16.1011 11.5231 15.3092 15.3006 15.3092V16.4027ZM20.5661 28.9216C20.2227 29.2232 19.7266 29.2609 19.3451 29.0347C17.6281 27.6018 17.3228 26.9608 16.3689 25.6033C13.5072 28.4691 11.485 29.3363 7.82198 29.3363C3.39588 29.3741 0 26.6968 0 21.3424C0 17.1946 2.28936 14.3288 5.53262 12.9336C8.35616 11.727 12.2862 11.5008 15.3006 11.1614V10.4827C15.3006 9.23831 15.415 7.80543 14.6519 6.74962C14.0414 5.80694 12.8204 5.42986 11.752 5.42986C9.76793 5.42986 8.01276 6.44796 7.59304 8.52187C7.51673 8.97436 7.17333 9.42685 6.6773 9.46455L1.64071 8.93665C1.22099 8.82353 0.724964 8.52187 0.877588 7.88084C2.02227 1.80995 7.55489 0 12.477 0C15.0335 0 18.3149 0.678733 20.3371 2.5641C22.8554 4.90196 22.6265 8.03167 22.6265 11.3876V19.3816C22.6265 21.7949 23.6186 22.8507 24.5725 24.1327C24.9159 24.5852 24.9922 25.1508 24.5725 25.4902C23.5041 26.3952 21.5963 28.0166 20.5661 28.9216Z" fill="black"/>
</svg>
