<svg width="135" height="50" viewBox="0 0 135 50" fill="none" xmlns="http://www.w3.org/2000/svg">
<path fill-rule="evenodd" clip-rule="evenodd" d="M83.3329 41.2823C75.5185 46.9836 64.2243 50.0002 54.4564 50.0002C40.8117 50.0002 28.5102 45.0228 19.2001 36.697C18.4675 36.0334 19.1086 35.1586 19.9938 35.6714C30.0365 41.4331 42.4601 44.9323 55.2805 44.9323C63.9191 44.9323 73.4428 43.1526 82.2035 39.5025C83.516 38.9293 84.6455 40.3471 83.3329 41.2823Z" fill="#B3B3B3"/>
<path fill-rule="evenodd" clip-rule="evenodd" d="M86.5991 37.6319C85.5918 36.365 80.0057 37.0286 77.4722 37.3303C76.709 37.4208 76.5869 36.7571 77.289 36.2745C81.7456 33.1674 89.0716 34.0724 89.9263 35.098C90.781 36.1538 89.7126 43.3936 85.5002 46.8627C84.8592 47.4057 84.2487 47.1041 84.5234 46.4102C85.4697 44.0875 87.6064 38.8989 86.5991 37.6319Z" fill="#B3B3B3"/>
<path fill-rule="evenodd" clip-rule="evenodd" d="M77.6553 14.3738V11.3572C77.6553 10.9047 78.0216 10.603 78.4184 10.603H92.0935C92.5209 10.603 92.8872 10.9047 92.8872 11.3572V13.9515C92.8872 14.3738 92.5209 14.9469 91.8493 15.8519L84.7676 25.8368C87.3927 25.7765 90.1705 26.1687 92.5514 27.496C93.1009 27.7976 93.223 28.2501 93.284 28.6724V31.9002C93.284 32.3527 92.7956 32.8655 92.2767 32.594C88.0643 30.4221 82.4782 30.1807 77.8384 32.6242C77.35 32.8655 76.8616 32.3527 76.8616 31.9304V28.8233C76.8616 28.3406 76.8616 27.496 77.3806 26.7418L85.5917 15.1279H78.4489C78.0216 15.1279 77.6553 14.8263 77.6553 14.3738Z" fill="#B3B3B3"/>
<path fill-rule="evenodd" clip-rule="evenodd" d="M27.8082 33.1974H23.6568C23.26 33.1673 22.9547 32.8656 22.9242 32.5036V11.4176C22.9242 10.9953 23.2905 10.6634 23.7178 10.6634H27.5945C27.9913 10.6936 28.3271 10.9953 28.3576 11.3572V14.1024H28.4492C29.4565 11.4477 31.3491 10.2109 33.9131 10.2109C36.5078 10.2109 38.1561 11.4477 39.3161 14.1024C40.3234 11.4477 42.6127 10.2109 45.0547 10.2109C46.7947 10.2109 48.7177 10.9048 49.8777 12.5036C51.1902 14.2833 50.9155 16.8475 50.9155 19.1099V32.4131C50.9155 32.8354 50.5492 33.1673 50.1219 33.1673H45.9705C45.5431 33.1371 45.2379 32.8053 45.2379 32.4131V21.2517C45.2379 20.3769 45.3295 18.1446 45.1158 17.2999C44.8105 15.8821 43.8643 15.49 42.6738 15.49C41.6665 15.49 40.6286 16.1536 40.2013 17.2094C39.7739 18.2653 39.8044 20.045 39.8044 21.2517V32.4433C39.8044 32.8656 39.4382 33.1974 39.0108 33.1974H34.7984C34.371 33.1673 34.0658 32.8354 34.0658 32.4433V21.2517C34.0658 18.8987 34.4626 15.4297 31.5017 15.4297C28.5102 15.4297 28.6323 18.8082 28.6323 21.2517V32.4433C28.6018 32.8656 28.2355 33.1974 27.8082 33.1974Z" fill="#B3B3B3"/>
<path fill-rule="evenodd" clip-rule="evenodd" d="M104.639 10.2109C110.805 10.2109 114.163 15.4297 114.163 22.0963C114.163 28.5217 110.47 33.6499 104.639 33.6499C98.5954 33.6499 95.2987 28.401 95.2987 21.8852C95.2987 15.309 98.6259 10.2109 104.639 10.2109ZM104.7 14.4945C101.648 14.4945 101.434 18.6272 101.434 21.1914C101.434 23.7555 101.404 29.2758 104.67 29.2758C107.905 29.2758 108.058 24.8414 108.058 22.1265C108.058 20.3467 107.967 18.2351 107.448 16.5458C106.929 15.0978 106.013 14.4945 104.7 14.4945Z" fill="#B3B3B3"/>
<path fill-rule="evenodd" clip-rule="evenodd" d="M122.161 33.1974H118.009C117.582 33.1673 117.277 32.8354 117.277 32.4433V11.3271C117.307 10.9349 117.673 10.6333 118.07 10.6333H121.916C122.283 10.6634 122.588 10.9048 122.649 11.2366V14.4643H122.741C123.901 11.5684 125.549 10.2109 128.418 10.2109C130.28 10.2109 132.112 10.8746 133.272 12.6845C134.371 14.3738 134.371 17.2094 134.371 19.2607V32.5338C134.309 32.8958 133.974 33.1974 133.577 33.1974H129.395C128.998 33.1673 128.693 32.8958 128.662 32.5338V21.0707C128.662 18.7781 128.937 15.3995 126.068 15.3995C125.06 15.3995 124.114 16.0631 123.656 17.0888C123.076 18.3859 122.985 19.6529 122.985 21.0707V32.4131C122.954 32.8656 122.588 33.1974 122.161 33.1974Z" fill="#B3B3B3"/>
<path fill-rule="evenodd" clip-rule="evenodd" d="M66.7579 23.1222C66.7579 24.721 66.7884 26.0483 65.9642 27.4963C65.2927 28.6426 64.2548 29.3666 63.0949 29.3666C61.5076 29.3666 60.5613 28.1599 60.5613 26.3801C60.5613 22.8809 63.7359 22.2474 66.7579 22.2474V23.1222ZM70.9398 33.1373C70.6651 33.3786 70.2682 33.4088 69.963 33.2278C68.5894 32.0815 68.3452 31.5687 67.5821 30.4827C65.2927 32.7753 63.6749 33.4691 60.714 33.4691C57.2036 33.4691 54.4869 31.3274 54.4869 27.0739C54.4869 23.7255 56.3184 21.4631 58.913 20.3469C61.1718 19.3816 64.3159 19.2006 66.7274 18.9291V18.3861C66.7274 17.3907 66.8189 16.2444 66.2084 15.3997C65.72 14.6456 64.7432 14.3439 63.8885 14.3439C62.3012 14.3439 60.8971 15.1584 60.5613 16.8175C60.5003 17.1795 60.2256 17.5415 59.8287 17.5717L55.7994 17.1493C55.4637 17.0588 55.0669 16.8175 55.189 16.3047C56.1047 11.4781 60.5308 10 64.499 10C66.5137 10 69.1693 10.543 70.7566 12.0513C72.7713 13.9216 72.5881 16.4254 72.5881 19.1101V25.5053C72.5881 27.4359 73.3818 28.2806 74.1449 29.3062C74.4196 29.6682 74.4807 30.1207 74.1449 30.3922C73.2902 31.1162 71.7945 32.4133 70.9398 33.1373Z" fill="#B3B3B3"/>
<path fill-rule="evenodd" clip-rule="evenodd" d="M12.2405 23.1222C12.2405 24.721 12.271 26.0483 11.4468 27.4963C10.7753 28.6426 9.73743 29.3666 8.57749 29.3666C6.9902 29.3666 6.04392 28.1599 6.04392 26.3801C6.04392 22.8809 9.21851 22.2474 12.2405 22.2474V23.1222ZM16.4529 33.1373C16.1782 33.3786 15.7814 33.4088 15.4761 33.2278C14.1025 32.0815 13.8583 31.5687 13.0952 30.4827C10.8058 32.7753 9.18799 33.4691 6.2576 33.4691C2.71671 33.4993 0 31.3575 0 27.0739C0 23.7557 1.83149 21.4631 4.42611 20.3469C6.68495 19.3816 9.82901 19.2006 12.2405 18.9291V18.3861C12.2405 17.3907 12.332 16.2444 11.7216 15.3997C11.2332 14.6456 10.2564 14.3439 9.40166 14.3439C7.81437 14.3439 6.41022 15.1584 6.07445 16.8175C6.0134 17.1795 5.73868 17.5415 5.34185 17.5717L1.31257 17.1493C0.976796 17.0588 0.579973 16.8175 0.702072 16.3047C1.61782 11.448 6.04392 10 9.98163 10C12.0268 10 14.6519 10.543 16.2698 12.0513C18.2844 13.9216 18.1012 16.4254 18.1012 19.1101V25.5053C18.1012 27.4359 18.8949 28.2806 19.658 29.3062C19.9327 29.6682 19.9938 30.1207 19.658 30.3922C18.8033 31.1162 17.2771 32.4133 16.4529 33.1373Z" fill="#B3B3B3"/>
</svg>
