<?xml version="1.0" encoding="iso-8859-1"?>
<!-- Generator: Adobe Illustrator 19.0.0, SVG Export Plug-In . SVG Version: 6.00 Build 0)  -->
<svg version="1.1" id="Capa_1" xmlns="http://www.w3.org/2000/svg" xmlns:xlink="http://www.w3.org/1999/xlink" x="0px" y="0px"
	 viewBox="0 0 58 58" style="enable-background:new 0 0 58 58;" xml:space="preserve">
<circle style="fill:#F76363;" cx="29" cy="29" r="29"/>
<path style="fill:#FFFFFF;" d="M10,32c-1.104,0-2-0.896-2-2c0-7.72,6.28-14,14-14h14c1.104,0,2,0.896,2,2s-0.896,2-2,2H22
	c-5.514,0-10,4.486-10,10C12,31.104,11.104,32,10,32z"/>
<path style="fill:#FFFFFF;" d="M26.002,28c-0.618,0-1.228-0.285-1.619-0.823c-0.65-0.894-0.452-2.145,0.44-2.794L33.6,18
	l-8.776-6.383c-0.893-0.649-1.091-1.9-0.44-2.794c0.648-0.892,1.899-1.091,2.794-0.44L40.4,18l-13.224,9.617
	C26.821,27.876,26.409,28,26.002,28z"/>
<path style="fill:#FFFFFF;" d="M35,42H21c-1.104,0-2-0.896-2-2s0.896-2,2-2h14c5.514,0,10-4.486,10-10c0-1.104,0.896-2,2-2
	s2,0.896,2,2C49,35.72,42.72,42,35,42z"/>
<path style="fill:#FFFFFF;" d="M30.998,50c-0.407,0-0.819-0.124-1.175-0.383L16.6,40l13.224-9.617
	c0.895-0.652,2.144-0.452,2.794,0.44c0.65,0.894,0.452,2.145-0.44,2.794L23.4,40l8.776,6.383c0.893,0.649,1.091,1.9,0.44,2.794
	C32.227,49.715,31.616,50,30.998,50z"/>
<g>
</g>
<g>
</g>
<g>
</g>
<g>
</g>
<g>
</g>
<g>
</g>
<g>
</g>
<g>
</g>
<g>
</g>
<g>
</g>
<g>
</g>
<g>
</g>
<g>
</g>
<g>
</g>
<g>
</g>
</svg>
