<svg width="216" height="40" viewBox="0 0 216 40" fill="none" xmlns="http://www.w3.org/2000/svg">
<path d="M18.5153 0C20.3493 0 22.0437 0.139738 23.5983 0.558952C25.1528 0.838428 26.428 1.41485 27.5633 2.11354C28.6987 2.81223 29.5371 3.80786 30.1135 5.08297C30.6725 6.35808 30.9694 7.91266 30.9694 9.60699C30.9694 11.5808 30.5502 13.2751 29.5546 14.5502C28.6987 15.8253 27.3013 16.9607 25.5895 17.7991C28 18.4978 29.8341 19.7729 30.952 21.4673C32.0699 23.1616 32.786 25.2751 32.786 27.6856C32.786 29.6594 32.3668 31.3537 31.6507 32.7686C30.952 34.1834 29.8166 35.4585 28.5415 36.2969C27.2664 37.1528 25.7118 37.8515 24.0175 38.2707C22.3231 38.69 20.6288 38.9694 18.9345 38.9694L0 39.0044V0H18.5153ZM17.3799 15.8253C18.9345 15.8253 20.2096 15.4061 21.1878 14.69C22.1659 13.9738 22.6026 12.7162 22.6026 11.1616C22.6026 10.3057 22.4629 9.46725 22.1834 8.9083C21.9039 8.34935 21.4847 7.91266 20.9083 7.49345C20.3493 7.21397 19.7729 6.9345 19.0742 6.79476C18.3755 6.65502 17.6594 6.65502 16.821 6.65502H8.62882V15.8428C8.62882 15.8253 17.3799 15.8253 17.3799 15.8253ZM17.7991 32.5066C18.655 32.5066 19.4935 32.3668 20.2096 32.2271C20.9083 32.0873 21.6245 31.8079 22.1834 31.3712C22.7424 30.9345 23.179 30.5153 23.5983 29.8166C23.8777 29.1179 24.1572 28.262 24.1572 27.2664C24.1572 25.2926 23.5983 23.8777 22.4629 22.8821C21.3275 22.0262 19.7729 21.607 17.9389 21.607H8.62882V32.4891H17.7991V32.5066ZM45.083 32.3668C46.2183 33.5022 47.9127 34.0611 50.1659 34.0611C51.7205 34.0611 53.1354 33.6419 54.2708 32.9258C55.4061 32.0699 56.1048 31.2314 56.3843 30.3755H63.3013C62.1659 33.7642 60.4716 36.1747 58.2183 37.7293C55.9651 39.1441 53.2751 39.9825 50.0262 39.9825C47.7729 39.9825 45.7817 39.5633 43.9476 38.8472C42.1135 38.1485 40.6987 37.1528 39.4236 35.738C38.1485 34.4629 37.1703 32.9083 36.5939 31.0742C35.8952 29.2402 35.5983 27.2664 35.5983 24.9956C35.5983 22.8821 35.8777 20.8908 36.5939 19.0568C37.31 17.2227 38.2882 15.6681 39.5633 14.2533C40.8384 12.9782 42.393 11.8428 44.0873 11.1441C45.9214 10.4454 47.7555 10.0087 50.0262 10.0087C52.4367 10.0087 54.5502 10.4279 56.3843 11.4236C58.2183 12.4192 59.6332 13.5371 60.7686 15.2314C61.9039 16.786 62.7424 18.6201 63.3188 20.5939C63.5983 22.5677 63.738 24.559 63.5983 26.8122H43.1092C43.1092 29.1179 43.9476 31.2314 45.083 32.3668V32.3668ZM53.9913 17.5197C52.9956 16.524 51.4411 15.9651 49.607 15.9651C48.3319 15.9651 47.3537 16.2445 46.4978 16.6638C45.6419 17.083 45.083 17.6594 44.524 18.2183C43.9651 18.7773 43.6681 19.4935 43.5284 20.1921C43.3887 20.8908 43.2489 21.4672 43.2489 22.0262H55.9651C55.6856 19.9301 54.9694 18.5153 53.9913 17.5197V17.5197ZM41.5546 2.68996H57.3799V6.49782H41.5546V2.68996V2.68996ZM74.6201 0V14.69H74.7598C75.7555 12.9956 77.0131 11.8603 78.5677 11.1616C80.1223 10.4629 81.5371 10.0262 83.0917 10.0262C85.2053 10.0262 86.8996 10.3057 88.1747 10.8821C89.4498 11.441 90.5852 12.2969 91.2839 13.2926C91.9825 14.2882 92.559 15.5459 92.8384 16.9607C93.1179 18.3755 93.2577 19.9301 93.2577 21.7642V39.1441H85.4847V23.179C85.4847 20.7686 85.0655 19.0742 84.3494 17.9563C83.6332 16.8384 82.393 16.2445 80.559 16.2445C78.4454 16.2445 76.8908 16.9432 76.0349 18.0786C75.0393 19.3537 74.6201 21.4673 74.6201 24.2969V39.1441H66.8472V0H74.6201ZM98.9345 14.9869C99.7904 13.7118 100.769 12.8734 102.044 12.0175C103.319 11.3188 104.734 10.7424 106.288 10.4629C107.843 10.1834 109.397 10.0437 110.952 10.0437C112.367 10.0437 113.782 10.1834 115.336 10.3231C116.751 10.4629 118.166 10.8821 119.301 11.4585C120.576 12.0175 121.415 12.8734 122.271 13.869C122.969 14.8646 123.406 16.2795 123.406 17.9738V32.821C123.406 34.0961 123.546 35.3712 123.686 36.4891C123.825 37.6245 124.245 38.6026 124.681 39.179H116.769C116.489 38.8996 116.349 38.3231 116.21 37.9039C116.07 37.4847 116.07 36.9083 116.07 36.4891C114.795 37.7642 113.38 38.6026 111.686 39.179C109.991 39.738 108.297 39.8777 106.603 39.8777C105.188 39.8777 104.052 39.738 102.795 39.3188C101.659 39.0393 100.681 38.4629 99.6856 37.7642C98.8297 37.0655 98.131 36.2096 97.5721 35.0742C97.1528 33.9389 96.8734 32.821 96.8734 31.2664C96.8734 29.7118 97.1529 28.2969 97.7293 27.3013C98.2882 26.3057 99.0044 25.4672 99.8428 24.7511C100.699 24.1921 101.817 23.6157 102.952 23.3362C104.087 23.0568 105.205 22.7773 106.48 22.6376C107.616 22.4978 108.734 22.3581 109.869 22.2183C111.004 22.0786 111.983 21.9389 112.838 21.7991C113.694 21.5197 114.393 21.2402 114.952 20.8035C115.511 20.3843 115.651 19.8079 115.651 18.9694C115.651 18.1135 115.511 17.4148 115.231 16.9956C114.952 16.5764 114.533 16.1397 114.096 15.8603C113.677 15.5808 113.1 15.441 112.541 15.3013C111.983 15.1616 111.266 15.1616 110.568 15.1616C109.013 15.1616 107.878 15.441 107.039 16.1572C106.183 16.8559 105.624 17.9913 105.485 19.4061H97.7118C97.6594 17.6594 98.2184 16.1048 98.9345 14.9869V14.9869ZM114.341 26.0087C113.921 26.1485 113.345 26.2882 112.786 26.4279C112.227 26.5677 111.651 26.5677 110.952 26.7074C110.393 26.8472 109.677 26.8472 109.118 26.9869C108.559 27.1266 107.983 27.2664 107.424 27.4061C106.865 27.5459 106.288 27.8253 106.009 28.1048C105.59 28.3843 105.31 28.8035 105.013 29.2402C104.594 29.7991 104.594 30.3755 104.594 31.0742C104.594 31.7729 104.734 32.3493 105.013 32.7686C105.293 33.1878 105.572 33.6245 106.009 33.9039C106.428 34.1834 107.004 34.3231 107.563 34.4629C108.122 34.6026 108.699 34.6026 109.397 34.6026C110.952 34.6026 112.087 34.3231 112.926 33.9039C113.782 33.345 114.341 32.7686 114.76 32.0699C115.179 31.3712 115.459 30.655 115.459 29.9563C115.598 29.2576 115.598 28.6812 115.598 28.262V25.2926C115.179 25.5721 114.76 25.869 114.341 26.0087V26.0087ZM135.109 10.7424V14.7074H135.249C136.245 13.0131 137.502 11.8777 139.057 11.179C140.611 10.4803 142.306 10.0437 143.86 10.0437C145.974 10.0437 147.668 10.3231 148.943 10.8996C150.358 11.4585 151.354 12.3144 152.052 13.31C152.751 14.3057 153.328 15.5633 153.747 16.9782C154.026 18.393 154.166 19.9476 154.166 21.7817V39.1616H146.393V23.1965C146.393 20.786 145.974 19.0917 145.258 17.9738C144.559 16.8384 143.284 16.1397 141.293 16.1397C139.179 16.1397 137.624 16.9956 136.629 18.2533C135.633 19.5284 135.214 21.6419 135.214 24.4716V39.3188H127.441V10.7424H135.109V10.7424ZM171.581 15.8253C170.306 15.8253 169.328 16.1048 168.472 16.6812C167.616 17.2402 166.917 17.9563 166.358 18.9345C165.799 19.7904 165.502 20.7686 165.223 21.9039C164.943 23.0393 164.943 24.0175 164.943 25.1528C164.943 26.1485 165.083 27.2664 165.223 28.262C165.502 29.3974 165.782 30.2358 166.358 31.0917C166.917 31.9476 167.493 32.6463 168.332 33.2052C169.188 33.7642 170.166 34.0611 171.441 34.0611C173.275 34.0611 174.69 33.5022 175.825 32.5066C176.821 31.5109 177.52 30.0961 177.659 28.262H185.153C184.594 32.0699 183.179 34.8996 180.769 36.8908C178.358 38.8646 175.249 39.8603 171.441 39.8603C169.328 39.8603 167.336 39.441 165.642 38.7249C163.808 38.0262 162.393 37.0306 161.118 35.7555C159.843 34.4804 158.865 32.9258 158.148 31.2314C157.45 29.3974 157.153 27.5633 157.153 25.4323C157.153 23.179 157.432 21.1878 158.148 19.3537C158.847 17.5197 159.703 15.8253 160.978 14.4105C162.253 12.9956 163.808 12 165.502 11.1616C167.336 10.4629 169.31 10.0262 171.581 10.0262C173.275 10.0262 174.83 10.3057 176.384 10.7249C177.939 11.1441 179.354 11.8603 180.489 12.6987C181.764 13.5546 182.742 14.6725 183.459 16.0873C184.157 17.3624 184.594 19.0568 184.734 20.8908H177.1C176.804 17.5197 174.969 15.8253 171.581 15.8253V15.8253ZM196.873 32.3668C198.009 33.5022 199.843 34.0611 201.956 34.0611C203.511 34.0611 204.926 33.6419 206.061 32.9258C207.197 32.0699 207.895 31.2314 208.175 30.3755H214.952C213.817 33.7642 212.122 36.1747 209.869 37.7293C207.616 39.1441 204.926 39.9825 201.677 39.9825C199.424 39.9825 197.432 39.5633 195.598 38.8472C193.764 38.1485 192.349 37.1528 191.074 35.738C189.799 34.4629 188.821 32.9083 188.245 31.0742C187.546 29.2402 187.249 27.2664 187.249 24.9956C187.249 22.8821 187.528 20.8908 188.245 19.0568C188.943 17.2227 189.939 15.6681 191.214 14.2533C192.489 12.9782 194.044 11.8428 195.738 11.1441C197.572 10.4454 199.546 10.0087 201.677 10.0087C204.087 10.0087 206.201 10.4279 207.895 11.4236C209.729 12.4192 211.144 13.5371 212.28 15.2314C213.415 16.786 214.253 18.6201 214.83 20.5939C215.389 22.5677 215.528 24.6987 215.389 26.952H194.9C194.9 29.1179 195.738 31.2314 196.873 32.3668V32.3668ZM205.921 17.5197C204.926 16.524 203.371 15.9651 201.537 15.9651C200.262 15.9651 199.284 16.2445 198.428 16.6638C197.572 17.083 196.873 17.6594 196.454 18.2183C196.035 18.7773 195.598 19.4935 195.459 20.1921C195.319 20.8908 195.179 21.4672 195.179 22.0262H207.895C207.476 19.9301 206.76 18.5153 205.921 17.5197V17.5197Z" fill="#B3B3B3"/>
</svg>
