<svg width="186" height="50" viewBox="0 0 186 50" fill="none" xmlns="http://www.w3.org/2000/svg">
<g clip-path="url(#clip0)">
<path d="M181.671 32.2515H166.924C164.983 32.2515 163.41 33.8315 163.41 35.7806V36.1767C163.41 38.1258 164.983 39.7058 166.924 39.7058H181.671C183.612 39.7058 185.185 38.1258 185.185 36.1767V35.7806C185.185 33.8315 183.612 32.2515 181.671 32.2515Z" fill="#B3B3B3"/>
<path d="M169.248 38.0731H168.363V33.8848H170.311C170.5 33.8746 170.689 33.9037 170.866 33.9703C171.043 34.0369 171.205 34.1396 171.341 34.2719C171.58 34.5345 171.713 34.8776 171.713 35.2335C171.713 35.5895 171.58 35.9326 171.341 36.1952C171.206 36.3283 171.045 36.4317 170.868 36.4988C170.692 36.566 170.503 36.5954 170.314 36.5853H169.251L169.248 38.0731ZM170.194 35.799C170.354 35.8054 170.511 35.7503 170.633 35.6448C170.688 35.5911 170.731 35.5271 170.76 35.4564C170.789 35.3858 170.805 35.3101 170.805 35.2335C170.805 35.157 170.789 35.0812 170.76 35.0106C170.731 34.94 170.688 34.876 170.633 34.8223C170.51 34.7192 170.354 34.6654 170.194 34.6711H169.248V35.799H170.194Z" fill="white"/>
<path d="M175.634 38.0729H174.617L173.798 36.5911H173.15V38.079H172.247V33.8846H174.195C174.382 33.8751 174.57 33.9037 174.746 33.9686C174.921 34.0336 175.082 34.1336 175.219 34.2626C175.344 34.3901 175.442 34.542 175.507 34.709C175.572 34.8759 175.602 35.0543 175.595 35.2333C175.61 35.5354 175.516 35.8326 175.33 36.071C175.166 36.2754 174.938 36.4181 174.683 36.4762L175.634 38.0729ZM174.081 35.7988C174.244 35.8057 174.404 35.7506 174.529 35.6446C174.585 35.5915 174.629 35.5277 174.659 35.457C174.689 35.3863 174.705 35.3102 174.705 35.2333C174.705 35.1564 174.689 35.0803 174.659 35.0097C174.629 34.939 174.585 34.8751 174.529 34.8221C174.403 34.7184 174.244 34.6646 174.081 34.6709H173.15V35.7988H174.081Z" fill="white"/>
<path d="M178.248 38.1426C177.961 38.1529 177.675 38.1046 177.407 38.0007C177.138 37.8967 176.894 37.7393 176.688 37.5378C176.294 37.1179 176.074 36.5624 176.074 35.9849C176.074 35.4075 176.294 34.8519 176.688 34.4321C177.114 34.0381 177.672 33.8193 178.251 33.8193C178.83 33.8193 179.388 34.0381 179.814 34.4321C180.21 34.8523 180.431 35.4091 180.431 35.988C180.431 36.5668 180.21 37.1237 179.814 37.5439C179.606 37.7443 179.361 37.9006 179.092 38.0035C178.823 38.1063 178.536 38.1537 178.248 38.1426ZM177.345 36.9632C177.464 37.0866 177.606 37.1847 177.764 37.2517C177.921 37.3187 178.091 37.3532 178.262 37.3532C178.433 37.3532 178.602 37.3187 178.759 37.2517C178.917 37.1847 179.059 37.0866 179.178 36.9632C179.406 36.6855 179.53 36.337 179.53 35.9774C179.53 35.6177 179.406 35.2692 179.178 34.9915C179.059 34.8689 178.916 34.7715 178.759 34.705C178.601 34.6385 178.432 34.6042 178.262 34.6042C178.091 34.6042 177.922 34.6385 177.764 34.705C177.607 34.7715 177.464 34.8689 177.345 34.9915C177.121 35.2709 176.999 35.6188 176.999 35.9774C176.999 36.336 177.121 36.6838 177.345 36.9632Z" fill="white"/>
<path d="M21.5584 0L0 12.5015V37.4985L21.5584 49.997L43.1137 37.4985V12.5015L21.5584 0ZM1.44224 13.3362L21.5584 1.67231L25.2919 3.84662L1.44224 17.6213V13.3362ZM1.44224 19.2906L26.7492 4.68429L30.4888 6.85255L1.44224 23.618V19.2906ZM1.44224 25.2903L31.9341 7.69022L35.6556 9.8494L1.44224 29.5996V25.2903ZM1.44224 31.2719L37.1009 10.6871L40.9248 12.9037L1.44224 35.6841V31.2719ZM21.5584 48.3277L2.05045 37.0177L6.02189 34.7224L25.4515 46.0657L21.5584 48.3277ZM26.8968 45.231L7.47016 33.8878L11.2067 31.7316L30.6273 43.0688L26.8968 45.231ZM32.0666 42.2342L12.646 30.8969L16.3675 28.7499L35.773 40.081L32.0666 42.2342ZM37.2213 39.2464L17.8158 27.9152L21.6397 25.7046L41.0332 37.0267L37.2213 39.2464ZM41.6715 35.7294L23.0849 24.876L41.6715 14.1466V35.7294Z" fill="#B3B3B3"/>
<path d="M68.0775 29.7053C67.3466 29.7293 66.6182 29.6081 65.9341 29.3487C65.25 29.0892 64.6236 28.6965 64.091 28.1932C63.5635 27.6884 63.1485 27.0771 62.8734 26.3994C62.5984 25.7218 62.4695 24.9933 62.4952 24.2619C62.4693 23.5306 62.5981 22.802 62.8732 22.1243C63.1483 21.4467 63.5633 20.8353 64.091 20.3306C64.6236 19.8273 65.25 19.4347 65.9341 19.1752C66.6182 18.9157 67.3466 18.7945 68.0775 18.8186C68.9765 18.7831 69.8668 19.0065 70.6436 19.4625C71.4203 19.9185 72.051 20.588 72.4614 21.3921L70.5435 22.3386C70.3072 21.8905 69.9584 21.5121 69.5318 21.2409C69.0996 20.957 68.5939 20.8066 68.0775 20.8084C67.6386 20.7933 67.2014 20.8714 66.7946 21.0376C66.3879 21.2038 66.0206 21.4545 65.7169 21.7731C65.119 22.459 64.7893 23.3397 64.7893 24.2513C64.7893 25.163 65.119 26.0437 65.7169 26.7296C66.0193 27.0509 66.3859 27.3044 66.7928 27.4733C67.1996 27.6421 67.6375 27.7226 68.0775 27.7094C68.5932 27.7117 69.0984 27.5636 69.5318 27.283C69.9628 27.0131 70.3125 26.6305 70.5435 26.1762L72.4614 27.1106C71.4678 28.8384 70.0065 29.7032 68.0775 29.7053Z" fill="#B3B3B3"/>
<path d="M84.8815 29.5148H82.3373L81.6929 27.7306H77.1946L76.5352 29.5148H73.9879L78.0437 18.9819H80.8438L84.8815 29.5148ZM81.0787 25.7559L79.4437 21.2197L77.8088 25.7559H81.0787Z" fill="#B3B3B3"/>
<path d="M95.7631 29.5149H93.2008L91.1413 25.7742H89.5063V29.5149H87.2722V18.9821H92.1771C92.6473 18.958 93.1175 19.0297 93.5594 19.1929C94.0013 19.356 94.4057 19.6074 94.7484 19.9317C95.0658 20.252 95.314 20.6345 95.4777 21.0554C95.6414 21.4763 95.717 21.9266 95.6999 22.3781C95.735 23.1356 95.4977 23.8805 95.0314 24.4768C94.6198 24.9932 94.0471 25.3554 93.4055 25.505L95.7631 29.5149ZM91.8489 23.7995C92.2609 23.8157 92.6644 23.6778 92.981 23.4124C93.1198 23.2786 93.2302 23.118 93.3057 22.9403C93.3811 22.7626 93.42 22.5713 93.42 22.3781C93.42 22.1849 93.3811 21.9937 93.3057 21.816C93.2302 21.6383 93.1198 21.4777 92.981 21.3439C92.6644 21.0785 92.2609 20.9406 91.8489 20.9568H89.5063V23.7995H91.8489Z" fill="#B3B3B3"/>
<path d="M104.48 29.5149H98.7952V18.982H104.314C104.718 18.9578 105.123 19.0145 105.505 19.149C105.887 19.2834 106.239 19.4929 106.539 19.7653C106.796 20.0097 106.999 20.305 107.136 20.6324C107.273 20.9599 107.34 21.3123 107.334 21.6674C107.355 22.2514 107.17 22.824 106.813 23.2853C106.494 23.7002 106.036 23.9857 105.525 24.0897C106.097 24.178 106.611 24.49 106.955 24.9576C107.342 25.4461 107.548 26.0542 107.539 26.6783C107.551 27.0552 107.485 27.4304 107.347 27.781C107.209 28.1315 107.001 28.4499 106.735 28.7165C106.203 29.2487 105.451 29.5149 104.48 29.5149ZM103.817 23.2006C103.98 23.2124 104.144 23.1918 104.299 23.1399C104.454 23.088 104.597 23.0059 104.721 22.8982C104.83 22.7926 104.916 22.665 104.973 22.5238C105.03 22.3827 105.057 22.231 105.052 22.0787C105.057 21.9238 105.029 21.7697 104.97 21.6264C104.912 21.4831 104.823 21.3538 104.712 21.2471C104.47 21.0255 104.15 20.9091 103.823 20.9235H101.026V23.2157L103.817 23.2006ZM103.896 27.5734C104.255 27.5939 104.608 27.4784 104.886 27.2498C105.01 27.1352 105.107 26.9943 105.169 26.8373C105.232 26.6803 105.259 26.5113 105.248 26.3426C105.251 26.1792 105.221 26.0169 105.159 25.8659C105.097 25.7149 105.004 25.5786 104.886 25.4656C104.753 25.3433 104.597 25.249 104.427 25.1883C104.256 25.1275 104.076 25.1015 103.896 25.1118H101.02V27.5583L103.896 27.5734Z" fill="#B3B3B3"/>
<path d="M115.602 29.7055C114.88 29.7275 114.161 29.6024 113.488 29.3379C112.816 29.0734 112.203 28.6748 111.688 28.1663C111.177 27.6559 110.776 27.0454 110.51 26.3727C110.243 25.7001 110.118 24.9797 110.14 24.2562C110.118 23.5331 110.244 22.8131 110.51 22.141C110.776 21.4688 111.177 20.8589 111.688 20.3491C112.761 19.362 114.164 18.8145 115.619 18.8145C117.074 18.8145 118.476 19.362 119.55 20.3491C120.063 20.8594 120.465 21.4706 120.732 22.1445C120.999 22.8184 121.124 23.5404 121.1 24.2652C121.127 24.9926 121.003 25.7177 120.736 26.3944C120.469 27.0711 120.065 27.6848 119.55 28.1965C119.027 28.7026 118.408 29.0972 117.73 29.3566C117.051 29.6159 116.328 29.7346 115.602 29.7055ZM113.299 26.7359C113.599 27.0458 113.958 27.2922 114.354 27.4604C114.75 27.6286 115.176 27.7153 115.607 27.7153C116.037 27.7153 116.463 27.6286 116.86 27.4604C117.256 27.2922 117.615 27.0458 117.915 26.7359C118.513 26.0527 118.827 25.1653 118.794 24.2562C118.829 23.3459 118.514 22.4571 117.915 21.7734C117.615 21.4635 117.256 21.2171 116.86 21.0489C116.463 20.8807 116.037 20.794 115.607 20.794C115.176 20.794 114.75 20.8807 114.354 21.0489C113.958 21.2171 113.599 21.4635 113.299 21.7734C112.705 22.4577 112.393 23.3431 112.426 24.2501C112.391 25.1601 112.704 26.049 113.299 26.7359Z" fill="#B3B3B3"/>
<path d="M133.463 29.5148H131.31L126.309 22.6471V29.5148H124.078V18.9819H126.372L131.229 25.5986V18.9819H133.463V29.5148Z" fill="#B3B3B3"/>
<path d="M147.061 29.5148H144.826V20.9567H141.746V18.9819H150.111V20.9567H147.061V29.5148Z" fill="#B3B3B3"/>
<path d="M160.378 29.5148H152.956V18.9819H160.378V20.9567H155.19V23.1824H160.267V25.1571H155.19V27.5401H160.378V29.5148Z" fill="#B3B3B3"/>
<path d="M168.613 29.7056C167.882 29.7294 167.154 29.608 166.47 29.3486C165.786 29.0891 165.159 28.6966 164.626 28.1936C164.099 27.6888 163.684 27.0774 163.409 26.3998C163.134 25.7222 163.005 24.9937 163.031 24.2623C163.005 23.531 163.134 22.8024 163.409 22.1247C163.684 21.447 164.099 20.8357 164.626 20.331C165.159 19.828 165.786 19.4355 166.47 19.1761C167.154 18.9166 167.882 18.7953 168.613 18.819C169.512 18.784 170.403 19.0076 171.18 19.4635C171.957 19.9194 172.588 20.5886 173 21.3925L171.082 22.339C170.844 21.8907 170.495 21.5124 170.067 21.2413C169.636 20.9542 169.13 20.8007 168.613 20.7997C168.174 20.786 167.738 20.8657 167.332 21.0335C166.926 21.2014 166.56 21.4535 166.258 21.7735C165.949 22.1044 165.707 22.4936 165.548 22.9187C165.389 23.3438 165.315 23.7963 165.331 24.2502C165.315 24.7046 165.389 25.1576 165.548 25.5832C165.707 26.0088 165.949 26.3985 166.258 26.73C166.559 27.0521 166.925 27.3065 167.33 27.4765C167.736 27.6464 168.173 27.728 168.613 27.7158C169.129 27.7182 169.634 27.57 170.067 27.2894C170.499 27.0196 170.85 26.6371 171.082 26.1826L173 27.117C172.006 28.8408 170.544 29.7036 168.613 29.7056Z" fill="#B3B3B3"/>
<path d="M185.173 29.5148H182.927V25.0996H177.986V29.5148H175.755V18.9819H177.986V23.1189H182.939V18.9819H185.173V29.5148Z" fill="#B3B3B3"/>
</g>
<defs>
<clipPath id="clip0">
<rect width="185.185" height="50" fill="white"/>
</clipPath>
</defs>
</svg>
