<svg width="205" height="50" viewBox="0 0 205 50" fill="none" xmlns="http://www.w3.org/2000/svg">
<path fill-rule="evenodd" clip-rule="evenodd" d="M202.49 34.6247C201.856 34.1654 201.352 34.0999 200.937 34.9746C193.807 50.3925 181.801 42.6946 183.004 43.3725C185.672 42.1478 192.67 36.5492 191.62 28.7855C190.986 24.0398 186.919 21.9404 182.589 22.7058C175.044 24.018 172.288 32.1534 173.688 39.3485C173.928 40.5951 174.365 41.6011 174.825 42.6071C166.317 49.5397 162.928 36.418 162.534 34.8434C162.512 34.7559 169.117 29.2666 170.954 16.1668C172.878 2.45465 168.504 -0.060339 164.021 0.027139C155.733 0.180225 153.502 17.479 156.498 31.891C156.258 31.9566 155.076 32.6127 153.196 32.6783C151.84 28.4137 146.045 24.6741 144.536 26.1175C140.752 29.726 145.454 36.7679 148.779 37.3147C146.788 49.5835 134.323 46.5436 136.641 31.1693C140.687 23.6462 143.792 12.4271 143.223 5.66945C143.026 3.28569 141.255 0.070878 137.253 0.223964C129.555 0.53014 128.724 17.8289 129.62 30.1196C129.577 29.8134 129.139 31.6067 125.99 32.5033C125.246 28.37 118.576 24.193 117.002 26.205C114.071 29.9447 119.167 36.6149 121.573 37.0741C119.583 49.3429 107.117 46.303 109.435 30.9287C113.503 23.4056 116.586 12.2084 116.039 5.4508C115.843 3.067 114.072 -0.147817 110.069 0.0052695C102.371 0.311442 101.54 17.6102 102.437 29.9009C102.393 29.5947 101.956 31.4536 98.675 32.3284C98.566 26.9485 91.874 24.4991 90.2555 26.205C87.3905 29.2667 90.9115 35.5432 94.17 37.0741C92.18 49.3429 79.7145 46.303 82.0325 30.9287C86.0785 23.4056 89.184 12.1866 88.6155 5.4289C88.4405 3.067 86.669 -0.147817 82.6665 0.0052695C74.9685 0.311442 74.3565 18.485 75.253 30.7757C72.716 41.6448 64.209 55.204 65.324 28.0201C65.4335 26.1174 65.543 25.3958 64.6025 24.6741C63.881 24.1274 62.2625 24.3897 61.3875 24.4116C60.316 24.4554 60.032 25.0896 59.813 26.03C59.2665 28.4794 59.157 30.8632 59.0695 34.1217C59.026 35.6526 58.8945 36.3524 58.304 38.43C57.7135 40.5076 54.3895 44.291 52.5525 43.6568C50.0155 42.782 50.8465 35.6307 51.3275 30.7101C51.7215 26.8173 50.453 25.0896 47.2163 24.4554C45.3136 24.0618 44.1545 24.1273 42.1863 23.4931C40.3055 22.9026 39.89 19.3598 35.9098 20.5408C33.7228 21.1969 35.1224 25.8113 34.5975 29.2448C32.0169 46.1062 26.659 46.5654 24.1658 38.3862C35.363 10.9181 27.3807 0.0927475 22.7224 0.0927475C17.8674 0.0927475 12.3125 3.43878 14.6525 24.8709C13.5153 24.5428 13.1655 24.3679 11.897 24.3679C4.83316 24.3461 0 30.0759 0 37.1397C0 44.2036 4.83316 49.9333 11.9189 49.9333C16.0959 49.9333 19.0265 48.0307 21.2572 45.1002C22.7006 47.1778 24.472 49.9771 27.7087 49.8459C37.3313 49.4741 40.1305 29.7259 40.4586 28.6106C41.4864 28.7637 42.4706 29.0698 43.411 29.2229C44.9856 29.4635 45.1168 30.0977 45.0731 31.6723C44.6576 45.1002 47.1288 49.8022 52.7495 49.8022C55.8765 49.8022 58.676 46.7186 60.6005 44.5316C62.044 47.5059 64.318 49.7147 67.402 49.8022C74.8375 49.9771 77.7025 38.1238 77.44 39.6766C77.243 40.9013 79.8455 49.7146 87.522 49.7584C97.013 49.8021 98.7845 39.3704 98.9815 37.6208C99.025 37.3146 99.0035 37.2709 98.9815 37.6208C98.9815 37.6427 98.9815 37.6864 98.9815 37.7301C101.999 37.1615 103.552 35.5651 103.552 35.5651C103.552 35.5651 105.979 49.9334 114.924 49.7803C124.219 49.6053 125.99 40.1795 126.209 38.3425C126.252 37.9488 126.231 37.9051 126.209 38.3425C126.209 38.3644 126.209 38.3862 126.209 38.3862C129.795 37.0741 130.736 35.7838 130.736 35.7838C130.736 35.7838 132.661 49.8678 142.108 49.999C150.528 50.1085 153.655 41.4699 153.677 37.8614C155.099 37.8833 157.723 37.0085 157.658 36.9647C157.658 36.9647 160.741 49.2773 169.357 49.9115C173.403 50.2175 176.443 47.6371 178.171 46.4561C182.239 49.7584 195.776 53.9575 204.327 39.4579C205.551 37.4022 202.949 34.9309 202.49 34.6247ZM11.5689 45.144C7.43565 45.144 4.78942 41.3168 4.78942 37.2053C4.78942 33.0938 7.21695 29.2666 11.3503 29.2666C13.2092 29.2666 14.2371 29.4635 15.7023 30.732C15.9648 31.7598 16.7083 34.1436 17.0801 35.237C17.5612 36.6804 18.1517 37.927 18.7203 39.2611C17.8674 42.7164 15.1555 45.144 11.5689 45.144ZM21.629 30.8413C21.454 30.557 21.4977 30.7319 21.3009 30.4695C20.5573 28.4137 19.0921 23.8212 18.9172 18.5944C18.7203 12.6896 19.7045 5.75695 22.6131 5.75695C24.5814 5.75695 26.6808 19.7972 21.629 30.8413ZM79.8235 24.6959C79.3645 21.1968 79.3425 5.56015 83.0825 5.9975C85.16 6.82855 81.77 21.5686 79.8235 24.6959ZM107.226 24.6959C106.767 21.1968 106.745 5.56015 110.485 5.9975C112.563 6.82855 109.172 21.5686 107.226 24.6959ZM134.41 24.9146C133.951 21.4155 133.929 5.7788 137.669 6.2162C139.746 7.0254 136.357 21.7873 134.41 24.9146ZM164.415 5.05715C167.848 4.70721 167.696 19.6878 160.829 29.1355C159.932 25.7238 158.576 6.2381 164.415 5.05715ZM178.849 37.3147C177.755 31.738 180.599 28.0857 183.529 27.6921C184.557 27.539 186.044 28.1951 186.328 29.4417C186.81 31.7817 186.262 35.2589 179.68 39.6547C179.702 39.6766 179.089 38.5394 178.849 37.3147ZM62.525 20.1252C64.865 20.1252 66.7675 18.2226 66.7675 15.8826C66.7675 13.5425 64.865 11.6398 62.525 11.6398C60.185 11.6398 58.282 13.5425 58.282 15.8826C58.282 18.2226 60.185 20.1252 62.525 20.1252Z" fill="#B3B3B3"/>
</svg>
