<?xml version="1.0" encoding="iso-8859-1"?>
<!-- Generator: Adobe Illustrator 17.1.0, SVG Export Plug-In . SVG Version: 6.00 Build 0)  -->
<!DOCTYPE svg PUBLIC "-//W3C//DTD SVG 1.1//EN" "http://www.w3.org/Graphics/SVG/1.1/DTD/svg11.dtd">
<svg version="1.1" id="Capa_1" xmlns="http://www.w3.org/2000/svg" xmlns:xlink="http://www.w3.org/1999/xlink" x="0px" y="0px"
	 viewBox="0 0 187.333 187.333" style="enable-background:new 0 0 187.333 187.333;" xml:space="preserve">
<path d="M175.831,169.265c-1.054,0-2.014-0.667-2.363-1.69c-0.078-0.216-5.542-14.626-38.789-34.154
	c-28.401-16.682-58.29-17.979-66.773-17.979c-0.465,0-0.884,0.003-1.252,0.009c-1.187,3.741-4.691,6.46-8.82,6.46h-5.791
	l5.893,34.792c0.275,1.631-0.179,3.291-1.246,4.554c-1.066,1.263-2.627,1.987-4.28,1.987H39.706c-2.744,0-5.068-1.964-5.526-4.669
	l-6.209-36.664h-8.138c-5.101,0-9.25-4.149-9.25-9.25v-2.375H6.981c-3.85,0-6.981-3.132-6.981-6.982V84.018
	c0-3.85,3.132-6.982,6.981-6.982h3.602v-2.375c0-5.101,4.149-9.25,9.25-9.25h38c4.129,0,7.634,2.719,8.82,6.46
	c0.368,0.005,0.787,0.009,1.252,0.009c8.483,0,38.372-1.296,66.773-17.979c33.332-19.578,38.739-34.012,38.789-34.155
	c0.406-1.147,1.584-1.845,2.784-1.642c1.2,0.206,2.081,1.235,2.081,2.453v51.309c5.135,1.087,9,5.656,9,11.11v21.37
	c0,5.455-3.865,10.023-9,11.11v51.309c0,1.227-0.89,2.272-2.101,2.468C176.098,169.254,175.964,169.265,175.831,169.265z
	 M33.042,121.911l6.067,35.829c0.05,0.292,0.301,0.504,0.597,0.504h12.702c0.231,0,0.379-0.117,0.462-0.214
	c0.083-0.098,0.174-0.263,0.135-0.493l-6.034-35.626H33.042z M67.905,110.442c11.282,0,40.621,1.819,69.307,18.667
	c20.479,12.029,30.921,22.29,36.121,28.913V29.3c-5.2,6.623-15.642,16.883-36.121,28.913C108.526,75.06,79.188,76.879,67.905,76.879
	c-0.291,0-0.565-0.001-0.822-0.003v33.569C67.34,110.443,67.614,110.442,67.905,110.442z M49.083,116.911h8.75
	c2.344,0,4.25-1.907,4.25-4.25v-38c0-2.343-1.906-4.25-4.25-4.25h-38c-2.344,0-4.25,1.907-4.25,4.25v38
	c0,2.343,1.906,4.25,4.25,4.25H49.083z M178.333,77.072v33.178c2.342-0.938,4-3.231,4-5.904v-21.37
	C182.333,80.303,180.675,78.01,178.333,77.072z M6.981,82.036C5.889,82.036,5,82.925,5,84.018v19.286
	c0,1.093,0.889,1.982,1.981,1.982h3.602v-23.25H6.981z"/>
<g>
</g>
<g>
</g>
<g>
</g>
<g>
</g>
<g>
</g>
<g>
</g>
<g>
</g>
<g>
</g>
<g>
</g>
<g>
</g>
<g>
</g>
<g>
</g>
<g>
</g>
<g>
</g>
<g>
</g>
</svg>
