<svg xmlns="http://www.w3.org/2000/svg" viewBox="0 0 58 58">
  <defs>
    <style>
      .a{fill:#506677}
    </style>
  </defs>
  <path d="M44.9 20.53v26a.92.92 0 0 1-1 .9H6.2a1 1 0 0 1-1-.9V8.03a.92.92 0 0 1 1-.9h26l4.9-4.9H6.2A6 6 0 0 0 0 8.03v38.4a6 6 0 0 0 6.2 5.8h37.6a6 6 0 0 0 6.2-5.8v-31.1z" class="a"/>
  <path d="M51.79 4.52a1.51 1.51 0 0 1 0 2.12l-29.5 29.5a5.45 5.45 0 0 1-2.54 1.29l-5 .8A.94.94 0 0 1 13.61 37l1.06-4.54a6.27 6.27 0 0 1 1.4-2.52L45.57.44a1.51 1.51 0 0 1 2.12 0z" class="a"/>
</svg>
