<svg id="Capa_1" enable-background="new 0 0 513.946 513.946" height="512" viewBox="0 0 513.946 513.946" width="512" xmlns="http://www.w3.org/2000/svg"><path d="m91.949 294.454h124.037v47.458h-6.472c-3.573 0-6.472 2.359-6.472 5.932v112.173c0 29.784 24.145 53.929 53.929 53.929s53.929-24.145 53.929-53.929v-112.173c0-3.573-2.898-5.932-6.472-5.932h-6.471v-47.458h124.037c20.229.013 36.643-16.367 36.672-36.596v-251.926c0-3.573-2.898-5.932-6.472-5.932h-390.445c-3.574 0-6.472 2.359-6.472 5.932v251.925c.03 20.23 16.443 36.609 36.672 36.597zm206.01 165.563c0 22.636-18.35 40.986-40.986 40.986s-40.986-18.35-40.986-40.986v-105.162h81.973v105.162zm-12.943-118.105h-56.086v-47.458h56.086zm136.981-60.401h-330.048c-13.084.021-23.708-10.569-23.729-23.653v-34.59h377.505v34.59c-.02 13.084-10.644 23.674-23.728 23.653zm-240.525-268.568v60.401c0 3.574 2.897 6.472 6.472 6.472s6.472-2.897 6.472-6.472v-60.401h84.13v103.544c0 3.574 2.897 6.472 6.472 6.472 3.574 0 6.471-2.897 6.471-6.472v-103.544h73.344v38.829c0 3.574 2.897 6.472 6.472 6.472s6.471-2.897 6.471-6.472v-38.829h67.951v197.381h-377.506v-197.381z"/><path d="m256.973 430.691c-13.86 0-25.131 10.814-25.131 24.106s11.274 24.106 25.131 24.106 25.131-10.814 25.131-24.106-11.271-24.106-25.131-24.106zm0 35.27c-6.722 0-12.188-5.008-12.188-11.163s5.469-11.163 12.188-11.163 12.188 5.008 12.188 11.163-5.466 11.163-12.188 11.163z"/></svg>