<svg id="Layer_1" height="512" viewBox="0 0 512 512" width="512" xmlns="http://www.w3.org/2000/svg" data-name="Layer 1"><path d="m442.873 48.64h-60.352a10.75 10.75 0 0 0 -10.737 10.738v25.757h-231.568v-25.757a10.75 10.75 0 0 0 -10.737-10.738h-60.352a10.75 10.75 0 0 0 -10.738 10.738v63.513a10.75 10.75 0 0 0 10.738 10.738h24.173v244.742h-24.173a10.75 10.75 0 0 0 -10.738 10.738v63.513a10.75 10.75 0 0 0 10.738 10.738h60.352a10.75 10.75 0 0 0 10.737-10.738v-25.757h231.568v25.757a10.75 10.75 0 0 0 10.737 10.738h60.352a10.75 10.75 0 0 0 10.738-10.738v-63.513a10.75 10.75 0 0 0 -10.738-10.738h-24.173v-244.742h24.176a10.75 10.75 0 0 0 10.738-10.738v-63.513a10.75 10.75 0 0 0 -10.741-10.738zm-372.484 12h57.827v60.989h-57.827zm57.827 390.72h-57.827v-60.989h57.827zm313.4 0h-57.832v-60.989h57.827zm-34.916-72.989h-24.179a10.75 10.75 0 0 0 -10.737 10.738v25.756h-231.568v-25.756a10.75 10.75 0 0 0 -10.737-10.738h-24.179v-244.742h24.176a10.75 10.75 0 0 0 10.737-10.738v-25.756h231.571v25.756a10.75 10.75 0 0 0 10.737 10.738h24.179zm34.914-256.742h-57.83v-60.989h57.827z"/></svg>