<svg width="250" height="50" viewBox="0 0 250 50" fill="none" xmlns="http://www.w3.org/2000/svg">
<path d="M20.5305 49.9592C15.0855 49.9592 9.86345 47.7962 6.01324 43.9459C2.16303 40.0957 0 34.8737 0 29.4287L0.0623711 5.87323C0.126148 4.35693 0.773368 2.92393 1.86882 1.87359C2.96427 0.823244 4.42321 0.236816 5.94084 0.236816C7.45848 0.236816 8.91742 0.823244 10.0129 1.87359C11.1083 2.92393 11.7555 4.35693 11.8193 5.87323V14.6987H26.5181C28.0758 14.6987 29.5697 15.3175 30.6711 16.419C31.7726 17.5204 32.3914 19.0143 32.3914 20.572C32.3914 22.1297 31.7726 23.6236 30.6711 24.725C29.5697 25.8265 28.0758 26.4453 26.5181 26.4453H11.8193V29.4079C11.8193 31.7403 12.7459 33.9772 14.3951 35.6264C16.0444 37.2757 18.2812 38.2022 20.6136 38.2022H29.4599C30.9762 38.266 32.4092 38.9132 33.4596 40.0087C34.5099 41.1041 35.0964 42.5631 35.0964 44.0807C35.0964 45.5983 34.5099 47.0573 33.4596 48.1527C32.4092 49.2482 30.9762 49.8954 29.4599 49.9592H20.5305Z" fill="#B3B3B3"/>
<path d="M136.614 49.9592C133.921 49.9578 131.256 49.4253 128.77 48.3922C126.283 47.3591 124.025 45.8456 122.125 43.9385C120.225 42.0314 118.719 39.7681 117.695 37.2783C116.671 34.7884 116.148 32.121 116.156 29.4287V5.87323C116.22 4.35693 116.867 2.92393 117.962 1.87359C119.058 0.823244 120.517 0.236816 122.034 0.236816C123.552 0.236816 125.011 0.823244 126.106 1.87359C127.202 2.92393 127.849 4.35693 127.913 5.87323V14.6987H136.718C138.275 14.6987 139.769 15.3175 140.871 16.419C141.972 17.5204 142.591 19.0143 142.591 20.572C142.591 22.1297 141.972 23.6236 140.871 24.725C139.769 25.8265 138.275 26.4453 136.718 26.4453H127.913V29.4079C127.911 30.5623 128.138 31.7057 128.578 32.7726C129.019 33.8395 129.666 34.809 130.482 35.6258C131.298 36.4426 132.266 37.0905 133.333 37.5326C134.399 37.9747 135.542 38.2022 136.697 38.2022H139.659C140.452 38.1689 141.243 38.2962 141.986 38.5766C142.728 38.857 143.406 39.2847 143.979 39.8338C144.551 40.383 145.007 41.0423 145.318 41.7721C145.63 42.502 145.79 43.2872 145.79 44.0807C145.79 44.8742 145.63 45.6595 145.318 46.3893C145.007 47.1191 144.551 47.7785 143.979 48.3276C143.406 48.8768 142.728 49.3044 141.986 49.5848C141.243 49.8652 140.452 49.9925 139.659 49.9592H136.614Z" fill="#B3B3B3"/>
<path d="M167.477 49.9592C164.784 49.9578 162.118 49.4254 159.631 48.3924C157.144 47.3594 154.886 45.8461 152.985 43.9391C151.083 42.0322 149.577 39.7689 148.552 37.2791C147.526 34.7892 147.002 32.1215 147.009 29.4287V5.87323C147.072 4.35693 147.72 2.92393 148.815 1.87359C149.911 0.823244 151.369 0.236816 152.887 0.236816C154.405 0.236816 155.864 0.823244 156.959 1.87359C158.055 2.92393 158.702 4.35693 158.766 5.87323V14.6987H167.581C169.138 14.6987 170.632 15.3175 171.734 16.419C172.835 17.5204 173.454 19.0143 173.454 20.572C173.454 22.1297 172.835 23.6236 171.734 24.725C170.632 25.8265 169.138 26.4453 167.581 26.4453H158.766V29.4079C158.766 30.5628 158.993 31.7064 159.435 32.7734C159.877 33.8403 160.525 34.8098 161.341 35.6264C162.158 36.4431 163.127 37.0909 164.194 37.5328C165.261 37.9748 166.405 38.2022 167.56 38.2022H170.481C171.997 38.266 173.43 38.9132 174.481 40.0087C175.531 41.1041 176.117 42.5631 176.117 44.0807C176.117 45.5983 175.531 47.0573 174.481 48.1527C173.43 49.2482 171.997 49.8954 170.481 49.9592H167.477Z" fill="#B3B3B3"/>
<path d="M217.581 32.329C217.565 30.0151 218.006 27.7208 218.88 25.5782C219.754 23.4355 221.043 21.4868 222.673 19.8444C224.303 18.2019 226.242 16.898 228.377 16.0077C230.513 15.1175 232.804 14.6585 235.118 14.6572H243.933C244.705 14.6572 245.468 14.8091 246.181 15.1043C246.893 15.3995 247.541 15.8321 248.086 16.3775C248.632 16.9229 249.064 17.5703 249.359 18.2829C249.655 18.9955 249.807 19.7592 249.807 20.5305C249.807 21.3018 249.655 22.0655 249.359 22.7781C249.064 23.4907 248.632 24.1382 248.086 24.6835C247.541 25.2289 246.893 25.6615 246.181 25.9567C245.468 26.2519 244.705 26.4038 243.933 26.4038H235.118C233.559 26.4065 232.064 27.0273 230.961 28.1301C229.858 29.2329 229.237 30.7278 229.235 32.2874L229.338 44.0444C229.275 45.5607 228.627 46.9937 227.532 48.044C226.437 49.0944 224.978 49.6808 223.46 49.6808C221.942 49.6808 220.483 49.0944 219.388 48.044C218.292 46.9937 217.645 45.5607 217.581 44.0444V32.329Z" fill="#B3B3B3"/>
<path d="M89.7 14.6986C88.1423 14.6986 86.6484 15.3174 85.547 16.4188C84.4455 17.5203 83.8267 19.0142 83.8267 20.5718V32.3288C83.763 33.8451 83.1157 35.2781 82.0203 36.3284C80.9248 37.3788 79.4659 37.9652 77.9483 37.9652C76.4306 37.9652 74.9717 37.3788 73.8762 36.3284C72.7808 35.2781 72.1336 33.8451 72.0698 32.3288V20.5718C72.006 19.0556 71.3588 17.6225 70.2633 16.5722C69.1679 15.5219 67.709 14.9354 66.1913 14.9354C64.6737 14.9354 63.2147 15.5219 62.1193 16.5722C61.0238 17.6225 60.3766 19.0556 60.3128 20.5718V32.3288C60.2491 33.8451 59.6018 35.2781 58.5064 36.3284C57.4109 37.3788 55.952 37.9652 54.4344 37.9652C52.9167 37.9652 51.4578 37.3788 50.3623 36.3284C49.2669 35.2781 48.6197 33.8451 48.5559 32.3288V20.5718C48.4921 19.0556 47.8449 17.6225 46.7495 16.5722C45.654 15.5219 44.1951 14.9354 42.6774 14.9354C41.1598 14.9354 39.7008 15.5219 38.6054 16.5722C37.5099 17.6225 36.8627 19.0556 36.799 20.5718V32.3288C36.8186 35.7252 37.8166 39.0439 39.6734 41.8879C41.5302 44.7318 44.1673 46.9804 47.2689 48.3645C50.3705 49.7486 53.8053 50.2095 57.1621 49.6922C60.5189 49.1749 63.6555 47.7012 66.1965 45.4475C68.7285 47.7377 71.8713 49.2429 75.2428 49.7802C78.6144 50.3175 82.0694 49.8638 85.1878 48.4741C88.3063 47.0845 90.9538 44.8188 92.8086 41.9525C94.6634 39.0863 95.6456 35.7428 95.6357 32.3288V20.5718C95.6357 19.7953 95.4817 19.0264 95.1827 18.3097C94.8836 17.5931 94.4454 16.9428 93.8934 16.3966C93.3414 15.8504 92.6866 15.4191 91.9668 15.1276C91.247 14.8362 90.4765 14.6903 89.7 14.6986V14.6986Z" fill="#B3B3B3"/>
<path d="M105.864 14.6987C105.093 14.6987 104.329 14.8507 103.617 15.1458C102.904 15.441 102.257 15.8736 101.711 16.419C101.166 16.9644 100.733 17.6118 100.438 18.3244C100.143 19.037 99.9912 19.8007 99.9912 20.572V44.0859C100.055 45.6022 100.702 47.0352 101.798 48.0856C102.893 49.1359 104.352 49.7223 105.87 49.7223C107.387 49.7223 108.846 49.1359 109.942 48.0856C111.037 47.0352 111.684 45.6022 111.748 44.0859V20.572C111.748 19.7999 111.596 19.0353 111.3 18.322C111.004 17.6087 110.571 16.9608 110.024 16.4153C109.478 15.8698 108.829 15.4374 108.115 15.1428C107.402 14.8483 106.637 14.6974 105.864 14.6987V14.6987Z" fill="#B3B3B3"/>
<path d="M105.864 11.7466C109.108 11.7466 111.738 9.117 111.738 5.87328C111.738 2.62956 109.108 0 105.864 0C102.621 0 99.9912 2.62956 99.9912 5.87328C99.9912 9.117 102.621 11.7466 105.864 11.7466Z" fill="#B3B3B3"/>
<path d="M213.101 29.3871C213.101 31.4662 212.238 35.25 209.172 35.25H189.806C190.127 36.5167 190.862 37.64 191.894 38.4421C192.926 39.2441 194.195 39.6792 195.502 39.6783H208.028C209.352 39.7379 210.601 40.3055 211.517 41.263C212.432 42.2204 212.943 43.4941 212.943 44.8188C212.943 46.1434 212.432 47.4171 211.517 48.3746C210.601 49.3321 209.352 49.8997 208.028 49.9592H195.502C185.762 49.9592 177.83 42.0069 177.83 30.8528C177.83 21.071 185.72 14.6987 195.502 14.6987C205.284 14.6987 213.174 21.2685 213.174 29.3871H213.101ZM201.355 27.9214C201.355 25.2187 198.725 23.0253 195.471 23.0253C192.217 23.0253 189.598 25.2187 189.598 27.9214H201.355Z" fill="#B3B3B3"/>
</svg>
