<svg width="237" height="40" viewBox="0 0 237 40" fill="none" xmlns="http://www.w3.org/2000/svg">
<path d="M11.775 10.1457L8.83838 5.07155L11.775 0H33.9679L36.902 5.07155L33.9679 10.1457H11.775Z" fill="#B3B3B3"/>
<path d="M11.775 39.9976L8.83838 34.926L11.775 29.8545H33.9679L36.902 34.926L33.9679 39.9976H11.775Z" fill="#B3B3B3"/>
<path d="M2.93665 25.0793L0 20.0051L2.93665 14.9336H43.4862L46.4229 20.0051L43.4862 25.0793H2.93665Z" fill="#B3B3B3"/>
<path d="M64.6632 24.494L63.2621 18.8217L61.861 24.494H59.3379L56.6882 15.4492H59.3638L60.7649 21.4851L62.347 15.4492H64.1798L65.7593 21.4851L67.1475 15.4492H69.8385L67.1888 24.494H64.6632Z" fill="#B3B3B3"/>
<path d="M74.608 24.494V15.4492H81.3938V17.4835H76.9992V18.8938H81.3008V20.9281H76.994V22.4751H81.3887V24.494H74.608Z" fill="#B3B3B3"/>
<path d="M93.0861 24.4941L92.6285 23.2049H88.9784L88.5208 24.4941H85.8246L89.3067 15.4468H92.3157L95.7901 24.4941H93.0861ZM90.8112 17.7518L89.6324 21.1577H91.9771L90.8112 17.7518Z" fill="#B3B3B3"/>
<path d="M105.652 24.494L104.101 21.4567H102.886V24.494H100.5V15.4492H105.133C107.188 15.4492 108.351 16.7771 108.351 18.4607C108.38 19.0512 108.215 19.6351 107.882 20.1243C107.549 20.6135 107.066 20.9815 106.505 21.1731L108.387 24.494H105.652ZM105.911 18.4452C105.911 17.8213 105.394 17.4809 104.76 17.4809H102.886V19.4198H104.773C105.404 19.4224 105.916 19.0795 105.916 18.4478L105.911 18.4452Z" fill="#B3B3B3"/>
<path d="M119.968 24.4941L119.511 23.2049H115.863L115.403 24.4941H112.71L116.192 15.4468H119.203L122.673 24.4941H119.968ZM117.694 17.7518L116.515 21.1577H118.86L117.694 17.7518Z" fill="#B3B3B3"/>
<path d="M127.375 24.494V15.4492H132.615C134.458 15.4492 135.319 16.6146 135.319 17.7542C135.339 18.2284 135.192 18.6946 134.902 19.0715C134.613 19.4485 134.201 19.7123 133.737 19.8169C134.246 19.9165 134.703 20.1938 135.027 20.5992C135.35 21.0046 135.517 21.5115 135.5 22.0291C135.5 23.344 134.597 24.4836 132.78 24.4836L127.375 24.494ZM132.896 18.1874C132.896 17.7517 132.563 17.4809 132.077 17.4809H129.75V18.8913H132.077C132.563 18.8938 132.896 18.636 132.896 18.19V18.1874ZM133.077 21.6862C133.077 21.2375 132.744 20.9127 132.162 20.9127H129.771V22.4597H132.173C132.731 22.4622 133.077 22.1735 133.077 21.6887V21.6862Z" fill="#B3B3B3"/>
<path d="M140.789 24.494V15.4492H143.175V22.4622H146.892V24.494H140.789Z" fill="#B3B3B3"/>
<path d="M152.135 24.494V15.4492H158.918V17.4835H154.523V18.8938H158.825V20.9281H154.521V22.4751H158.915V24.494H152.135Z" fill="#B3B3B3"/>
<path d="M178.963 24.494L177.562 18.8217L176.16 24.494H173.635L170.985 15.4492H173.663L175.064 21.4851L176.646 15.4492H178.477L180.059 21.4851L181.447 15.4492H184.138L181.488 24.494H178.963Z" fill="#B3B3B3"/>
<path d="M188.158 19.9794C188.158 17.2258 190.283 15.2998 193.111 15.2998C195.939 15.2998 198.051 17.2258 198.051 19.9794C198.051 22.7331 195.949 24.6591 193.106 24.6591C190.262 24.6591 188.158 22.7331 188.158 19.9794ZM195.623 19.9794C195.623 18.5021 194.639 17.3625 193.111 17.3625C191.583 17.3625 190.588 18.5021 190.588 19.9794C190.588 21.4568 191.586 22.5964 193.111 22.5964C194.636 22.5964 195.623 21.4439 195.623 19.9794Z" fill="#B3B3B3"/>
<path d="M208.44 24.494L206.889 21.4567H205.667V24.494H203.281V15.4492H207.916C209.968 15.4492 211.134 16.7771 211.134 18.4607C211.162 19.0511 210.997 19.6348 210.665 20.1239C210.332 20.613 209.849 20.9812 209.288 21.1731L211.173 24.494H208.44ZM208.699 18.4452C208.699 17.8213 208.182 17.4809 207.546 17.4809H205.659V19.4198H207.546C208.19 19.4224 208.704 19.0795 208.704 18.4478L208.699 18.4452Z" fill="#B3B3B3"/>
<path d="M216.428 24.494V15.4492H218.814V22.4622H222.532V24.494H216.428Z" fill="#B3B3B3"/>
<path d="M227.774 24.494V15.4492H231.652C234.565 15.4492 236.659 17.1586 236.659 19.9664C236.659 22.7742 234.573 24.494 231.672 24.494H227.774ZM234.237 19.9639C234.237 18.5664 233.376 17.4809 231.683 17.4809H230.17V22.4622H231.67C233.283 22.4622 234.226 21.3097 234.226 19.9664L234.237 19.9639Z" fill="#B3B3B3"/>
</svg>
