<svg xmlns="http://www.w3.org/2000/svg" viewBox="0 0 58 43.75">
  <path d="M18.76 7.47c0-1.31.07-2.5 0-3.68A3.51 3.51 0 0 1 22.41 0h13.18a3.51 3.51 0 0 1 3.66 3.75c-.08 1.18 0 2.37 0 3.68h14.86a3.54 3.54 0 0 1 3.4 2 4.88 4.88 0 0 1 .47 2v28.38a3.76 3.76 0 0 1-4 4H4a3.77 3.77 0 0 1-4-4V11.49a3.76 3.76 0 0 1 4-4h14.76zM5.3 25.17a2.75 2.75 0 0 0 0 .34v12.28c0 .71.35.71.87.71h45.76c.68 0 .88-.19.87-.88V25.81v-.65H34.85c-.05 0-.09.07-.09.09v1.94A1.58 1.58 0 0 1 33.05 29h-6.74c-1.15 0-1.65-.61-1.65-1.76v-2zm47.44-4.31V13.2c0-.57-.44-.47-.78-.47H6.04c-.62 0-.8.19-.79.8v6.75a5 5 0 0 0 .06.57h19.35v-2.73a1.47 1.47 0 0 1 1.6-1.57h6.43c1.45 0 2 .59 2.05 2v2.29zM22.87 7.41h12.26V4.89c0-.48-.23-.62-.67-.62H23.52c-.44 0-.68.12-.67.6.03 1.13.02 1.33.02 2.54zm5.07 18.37h3.49v-6h-3.49z" fill="#506677"/>
</svg>
