<svg xmlns="http://www.w3.org/2000/svg" viewBox="0 0 59.33 59.33">
  <defs>
    <style>
      .a{fill:#506677}
    </style>
  </defs>
  <path d="M29.66 0v5a24.76 24.76 0 0 1 18.08 7.88 24.7 24.7 0 0 1 1.43 31.9c-5.06-2.84-12-4.47-19.5-4.47s-14.45 1.62-19.5 4.46A24.66 24.66 0 0 1 29.66 5V0m0 0A29.66 29.66 0 0 0 7.93 49.86c.5.53 1 1 1.54 1.54 3.83-3.62 11.44-6.09 20.2-6.09S46 47.78 49.86 51.4A29.67 29.67 0 0 0 29.66 0z" class="a"/>
  <path d="M29.67 13.26a9.81 9.81 0 1 1-9.81 9.81 9.81 9.81 0 0 1 9.81-9.81m0-5a14.81 14.81 0 1 0 14.8 14.81 14.82 14.82 0 0 0-14.8-14.81zM29.67 45.39a39.28 39.28 0 0 1 15.9 3.13 24.66 24.66 0 0 1-15.87 5.81h-.07a24.68 24.68 0 0 1-15.83-5.77 39.12 39.12 0 0 1 15.87-3.17m0-5c-11.41 0-19.67 3.81-23.73 7.08.5.65 1.43 1.76 1.68 2.05a29.63 29.63 0 0 0 22 9.81h.07a29.63 29.63 0 0 0 22-9.81c.21-.26.92-1.08 1.62-2-3.89-3.67-12.87-7.16-23.66-7.16z" class="a"/>
</svg>
