<svg width="200" height="120" viewBox="0 0 200 120" fill="none" xmlns="http://www.w3.org/2000/svg">
<rect width="200" height="120" fill="white"/>
<rect x="21" y="25" width="77" height="70" rx="4" fill="#155DFC" fill-opacity="0.25" stroke="#155DFC" stroke-width="2"/>
<path d="M39.5483 62.096C39.079 62.096 38.679 61.976 38.3483 61.736C38.023 61.496 37.7723 61.16 37.5963 60.728C37.4257 60.2907 37.3403 59.784 37.3403 59.208C37.3403 58.6267 37.4257 58.12 37.5963 57.688C37.7723 57.2507 38.0257 56.912 38.3563 56.672C38.687 56.4267 39.0843 56.304 39.5483 56.304C40.151 56.304 40.631 56.4693 40.9883 56.8C41.3457 57.1253 41.5537 57.568 41.6123 58.128H40.6763C40.6283 57.8347 40.5083 57.592 40.3163 57.4C40.1297 57.2027 39.871 57.104 39.5403 57.104C39.119 57.104 38.791 57.2907 38.5563 57.664C38.3217 58.0373 38.2043 58.552 38.2043 59.208C38.2043 59.8587 38.3217 60.3707 38.5563 60.744C38.791 61.112 39.119 61.296 39.5403 61.296C39.8817 61.296 40.143 61.208 40.3243 61.032C40.5057 60.8507 40.623 60.6133 40.6763 60.32H41.6123C41.527 60.8693 41.311 61.304 40.9643 61.624C40.6177 61.9387 40.1457 62.096 39.5483 62.096ZM44.3292 62.096C43.9505 62.096 43.6119 62.0107 43.3132 61.84C43.0145 61.6693 42.7799 61.4293 42.6092 61.12C42.4385 60.8053 42.3532 60.4373 42.3532 60.016C42.3532 59.5947 42.4385 59.2293 42.6092 58.92C42.7799 58.6053 43.0145 58.3627 43.3132 58.192C43.6119 58.0213 43.9532 57.936 44.3372 57.936C44.7212 57.936 45.0599 58.0213 45.3532 58.192C45.6519 58.3627 45.8839 58.6053 46.0492 58.92C46.2199 59.2293 46.3052 59.5947 46.3052 60.016C46.3052 60.4373 46.2199 60.8053 46.0492 61.12C45.8785 61.4293 45.6439 61.6693 45.3452 61.84C45.0519 62.0107 44.7132 62.096 44.3292 62.096ZM44.3292 61.288C44.5319 61.288 44.7185 61.2427 44.8892 61.152C45.0599 61.0613 45.1959 60.9227 45.2972 60.736C45.4039 60.544 45.4572 60.304 45.4572 60.016C45.4572 59.7227 45.4039 59.4827 45.2972 59.296C45.1959 59.1093 45.0599 58.9707 44.8892 58.88C44.7239 58.7893 44.5399 58.744 44.3372 58.744C44.1345 58.744 43.9479 58.7893 43.7772 58.88C43.6065 58.9707 43.4679 59.1093 43.3612 59.296C43.2599 59.4827 43.2092 59.7227 43.2092 60.016C43.2092 60.4533 43.3185 60.776 43.5372 60.984C43.7612 61.1867 44.0252 61.288 44.3292 61.288ZM47.3501 62V58.032H48.0861L48.1581 58.624H48.1981C48.3047 58.432 48.4701 58.2693 48.6941 58.136C48.9181 58.0027 49.1767 57.936 49.4701 57.936C49.9554 57.936 50.3207 58.0827 50.5661 58.376C50.8114 58.6693 50.9341 59.1013 50.9341 59.672V62H50.0861V59.776C50.0861 59.4453 50.0167 59.1893 49.8781 59.008C49.7394 58.8267 49.5207 58.736 49.2221 58.736C48.9287 58.736 48.6834 58.8347 48.4861 59.032C48.2941 59.2293 48.1981 59.5147 48.1981 59.888V62H47.3501ZM54.3549 62C53.9656 62 53.6563 61.9067 53.4269 61.72C53.1976 61.528 53.0829 61.1893 53.0829 60.704V58.752H52.0829V58.032H52.6749C52.9469 58.032 53.1069 57.8987 53.1549 57.632L53.2749 56.992H53.9309V58.032H55.4989V58.752H53.9309V60.688C53.9309 60.896 53.9763 61.0427 54.0669 61.128C54.1629 61.208 54.3256 61.248 54.5549 61.248H55.4829V62H54.3549ZM58.3598 62.096C58.0452 62.096 57.7812 62.0427 57.5678 61.936C57.3545 61.824 57.1945 61.6773 57.0878 61.496C56.9812 61.3093 56.9278 61.1067 56.9278 60.888C56.9278 60.4987 57.0692 60.1947 57.3518 59.976C57.6398 59.7573 58.0452 59.648 58.5678 59.648H59.5918V59.56C59.5918 58.9627 59.3145 58.664 58.7598 58.664C58.5305 58.664 58.3358 58.7147 58.1758 58.816C58.0212 58.912 57.9172 59.0693 57.8638 59.288H57.0158C57.0585 58.872 57.2372 58.544 57.5518 58.304C57.8718 58.0587 58.2745 57.936 58.7598 57.936C59.3465 57.936 59.7732 58.08 60.0398 58.368C60.3065 58.656 60.4398 59.0533 60.4398 59.56V62H59.7198L59.6478 61.416H59.5918C59.4745 61.6027 59.3278 61.7627 59.1518 61.896C58.9758 62.0293 58.7118 62.096 58.3598 62.096ZM58.5198 61.384C58.8665 61.384 59.1252 61.28 59.2958 61.072C59.4718 60.8587 59.5678 60.5893 59.5838 60.264H58.6558C58.3518 60.264 58.1358 60.3147 58.0078 60.416C57.8852 60.512 57.8238 60.648 57.8238 60.824C57.8238 61 57.8852 61.1387 58.0078 61.24C58.1358 61.336 58.3065 61.384 58.5198 61.384ZM63.5727 62.096C63.2047 62.096 62.874 62.0107 62.5807 61.84C62.2927 61.6693 62.066 61.4293 61.9007 61.12C61.7354 60.8053 61.6527 60.4373 61.6527 60.016C61.6527 59.5947 61.7354 59.2293 61.9007 58.92C62.0714 58.6107 62.3007 58.3707 62.5887 58.2C62.8767 58.024 63.2047 57.936 63.5727 57.936C64.0794 57.936 64.4874 58.064 64.7967 58.32C65.1114 58.5707 65.3114 58.9173 65.3967 59.36H64.5087C64.4554 59.168 64.346 59.016 64.1807 58.904C64.0207 58.792 63.8154 58.736 63.5647 58.736C63.3834 58.736 63.21 58.784 63.0447 58.88C62.8847 58.976 62.754 59.12 62.6527 59.312C62.5567 59.4987 62.5087 59.7333 62.5087 60.016C62.5087 60.2933 62.5567 60.528 62.6527 60.72C62.754 60.912 62.8847 61.0587 63.0447 61.16C63.21 61.256 63.3834 61.304 63.5647 61.304C63.8207 61.304 64.026 61.248 64.1807 61.136C64.3354 61.024 64.4447 60.8693 64.5087 60.672H65.3967C65.29 61.1093 65.082 61.456 64.7727 61.712C64.4634 61.968 64.0634 62.096 63.5727 62.096ZM68.7456 62C68.3562 62 68.0469 61.9067 67.8176 61.72C67.5882 61.528 67.4736 61.1893 67.4736 60.704V58.752H66.4736V58.032H67.0656C67.3376 58.032 67.4976 57.8987 67.5456 57.632L67.6656 56.992H68.3216V58.032H69.8896V58.752H68.3216V60.688C68.3216 60.896 68.3669 61.0427 68.4576 61.128C68.5536 61.208 68.7162 61.248 68.9456 61.248H69.8736V62H68.7456ZM77.8913 62.096C77.5127 62.096 77.174 62.0187 76.8753 61.864C76.582 61.7093 76.35 61.4747 76.1793 61.16C76.0087 60.84 75.9233 60.4373 75.9233 59.952V56.4H76.7713V60C76.7713 60.4267 76.8727 60.7573 77.0753 60.992C77.278 61.2213 77.5553 61.336 77.9073 61.336C78.2593 61.336 78.5367 61.2213 78.7393 60.992C78.942 60.7573 79.0433 60.4267 79.0433 60V56.4H79.8913V59.952C79.8913 60.4373 79.8033 60.84 79.6273 61.16C79.4513 61.4747 79.2113 61.7093 78.9073 61.864C78.6087 62.0187 78.27 62.096 77.8913 62.096ZM82.7362 62.096C82.2135 62.096 81.7975 61.9733 81.4882 61.728C81.1789 61.4827 81.0029 61.1573 80.9602 60.752H81.8322C81.8642 60.9387 81.9575 61.0907 82.1122 61.208C82.2722 61.3253 82.4829 61.384 82.7442 61.384C82.9949 61.384 83.1869 61.3333 83.3202 61.232C83.4589 61.1253 83.5282 61.0027 83.5282 60.864C83.5282 60.6613 83.4455 60.5227 83.2802 60.448C83.1202 60.3733 82.8829 60.3173 82.5682 60.28C82.2962 60.248 82.0482 60.1867 81.8242 60.096C81.6055 60 81.4322 59.872 81.3042 59.712C81.1762 59.5467 81.1122 59.3413 81.1122 59.096C81.1122 58.7493 81.2482 58.4693 81.5202 58.256C81.7922 58.0427 82.1709 57.936 82.6562 57.936C83.1415 57.936 83.5175 58.0453 83.7842 58.264C84.0509 58.4827 84.2055 58.7813 84.2482 59.16H83.4322C83.4109 59 83.3282 58.8747 83.1842 58.784C83.0402 58.688 82.8615 58.64 82.6482 58.64C82.4295 58.64 82.2562 58.6827 82.1282 58.768C82.0002 58.848 81.9362 58.9547 81.9362 59.088C81.9362 59.376 82.2455 59.552 82.8642 59.616C83.1575 59.648 83.4189 59.704 83.6482 59.784C83.8775 59.8587 84.0589 59.9787 84.1922 60.144C84.3255 60.304 84.3922 60.5307 84.3922 60.824C84.3975 61.064 84.3282 61.28 84.1842 61.472C84.0455 61.664 83.8509 61.816 83.6002 61.928C83.3549 62.04 83.0669 62.096 82.7362 62.096Z" fill="#155DFC"/>
<rect x="110" y="53" width="69" height="11" rx="4" fill="#155DFC" fill-opacity="0.4" stroke="#155DFC" stroke-width="2"/>
<rect x="110" y="36" width="34" height="5" rx="2.5" fill="#155DFC" fill-opacity="0.4" stroke="#0367FF" stroke-width="2"/>
<rect x="110" y="73" width="69" height="11" rx="4" fill="#155DFC" fill-opacity="0.4" stroke="#155DFC" stroke-width="2"/>
</svg>
