<svg width="128" height="128" viewBox="0 0 128 128" fill="none" xmlns="http://www.w3.org/2000/svg">
<rect x="7.62939e-06" width="128" height="128" fill="#2F80ED"/>
<path fill-rule="evenodd" clip-rule="evenodd" d="M28.7778 24H99.2222V104.167H28.7778V24ZM36.7778 32V96.1667H91.2222V32H36.7778Z" fill="#6DA6F2"/>
<path d="M52.273 49.6L48.373 48.95V45.85H55.823C56.9564 45.85 58.423 45.7833 60.223 45.65C60.6564 45.6167 61.173 45.5833 61.773 45.55C62.373 45.5167 63.073 45.5 63.873 45.5C68.9064 45.5 72.423 46.2167 74.423 47.65C76.4564 49.05 77.473 51.15 77.473 53.95C77.473 56.4167 76.723 58.4833 75.223 60.15C73.7564 61.7833 71.823 62.7833 69.423 63.15C72.723 63.1167 75.3064 63.8667 77.173 65.4C79.073 66.9333 80.023 69.0667 80.023 71.8C80.023 75.2667 78.8064 78.05 76.373 80.15C73.9397 82.25 69.873 83.3 64.173 83.3C62.673 83.3 61.2897 83.25 60.023 83.15C59.6897 83.15 59.123 83.1167 58.323 83.05C57.523 83.0167 56.7064 83 55.873 83H48.323V80L52.273 79.5V49.6ZM59.523 62.05C59.8897 62.0833 60.6397 62.1 61.773 62.1H64.123C66.1564 62.1 67.673 61.4667 68.673 60.2C69.673 58.9333 70.173 57.15 70.173 54.85C70.173 52.65 69.6564 51.05 68.623 50.05C67.5897 49.05 65.873 48.55 63.473 48.55C62.8397 48.55 61.523 48.6167 59.523 48.75V62.05ZM59.523 79.7C60.2897 80 61.7564 80.15 63.923 80.15C66.7564 80.15 68.8064 79.4833 70.073 78.15C71.3397 76.8167 71.973 74.8833 71.973 72.35C71.973 69.9167 71.3897 68.1833 70.223 67.15C69.0897 66.0833 67.273 65.55 64.773 65.55C61.973 65.55 60.223 65.5833 59.523 65.65V79.7Z" fill="white"/>
</svg>
