<?xml version="1.0" encoding="utf-8"?>
<!-- Generator: Adobe Illustrator 22.0.1, SVG Export Plug-In . SVG Version: 6.00 Build 0)  -->
<svg version="1.1" id="Layer_1" xmlns="http://www.w3.org/2000/svg" xmlns:xlink="http://www.w3.org/1999/xlink" x="0px" y="0px"
	 viewBox="0 0 460 600" style="enable-background:new 0 0 460 600;" xml:space="preserve">
<style type="text/css">
	.st0{fill:#737373;}
	.st1{fill:#9B9B9B;}
	.st2{fill:#05668D;}
	.st3{enable-background:new    ;}
	.st4{fill:#00658F;}
	.st5{fill:#FFFFFF;}
	.st6{fill:#028090;}
	.st7{fill:#00A896;}
	.st8{fill:#02C39A;}
	.st9{fill:#5CA4A9;}
</style>
<g>
	<g>
		<polygon class="st0" points="366,373 364,373 364,251 259,251 259,249 366,249 		"/>
	</g>
	<g>
		<path class="st0" d="M250,250l15-4v8L250,250z"/>
	</g>
	<g>
		<polygon class="st0" points="366,556 248,556 248,554 364,554 364,430 366,430 		"/>
	</g>
	<g>
		<rect x="148" y="68" class="st1" width="2" height="23"/>
	</g>
	<g>
		<path class="st1" d="M149,100l-4-11h8L149,100z"/>
	</g>
	<g>
		<rect x="148" y="168" class="st1" width="2" height="23"/>
	</g>
	<g>
		<path class="st1" d="M149,200l-4-11h8L149,200z"/>
	</g>
	<g>
		<rect x="148" y="298" class="st1" width="2" height="23"/>
	</g>
	<g>
		<path class="st1" d="M149,330l-4-11h8L149,330z"/>
	</g>
	<g>
		<rect x="148" y="398" class="st1" width="2" height="23"/>
	</g>
	<g>
		<path class="st1" d="M149,430l-4-11h8L149,430z"/>
	</g>
	<g>
		<rect x="148" y="498" class="st1" width="2" height="23"/>
	</g>
	<g>
		<path class="st1" d="M149,530l-4-11h8L149,530z"/>
	</g>
	<g transform="translate(50 20)">
		<g>
			<path class="st2" d="M179,50H21C9.4,50,0,40.6,0,29v-8C0,9.4,9.4,0,21,0h158c11.6,0,21,9.4,21,21v8C200,40.6,190.6,50,179,50z
				 M21,2C10.5,2,2,10.5,2,21v8c0,10.5,8.5,19,19,19h158c10.5,0,19-8.5,19-19v-8c0-10.5-8.5-19-19-19H21z"/>
		</g>
		<g class="st3">
			<path class="st4" d="M25.2,31V17.4H27V31H25.2z"/>
			<path class="st4" d="M30,31v-9.9h1.5v1.4c0.7-1.1,1.8-1.6,3.1-1.6c0.6,0,1.1,0.1,1.6,0.3c0.5,0.2,0.9,0.5,1.1,0.8
				c0.2,0.3,0.4,0.8,0.5,1.2c0.1,0.3,0.1,0.9,0.1,1.6V31h-1.7v-6c0-0.7-0.1-1.2-0.2-1.5c-0.1-0.3-0.4-0.6-0.7-0.8s-0.7-0.3-1.2-0.3
				c-0.7,0-1.3,0.2-1.8,0.7c-0.5,0.5-0.8,1.3-0.8,2.6V31H30z"/>
			<path class="st4" d="M47,27.4l1.6,0.2c-0.2,1.1-0.6,2-1.4,2.7c-0.7,0.6-1.6,1-2.7,1c-1.3,0-2.4-0.4-3.3-1.3
				C40.4,29,40,27.8,40,26.1c0-1.1,0.2-2,0.5-2.8s0.9-1.4,1.6-1.8c0.7-0.4,1.5-0.6,2.4-0.6c1.1,0,1.9,0.3,2.6,0.8
				c0.7,0.5,1.1,1.3,1.3,2.3l-1.6,0.3c-0.2-0.7-0.4-1.2-0.8-1.5c-0.4-0.3-0.9-0.5-1.4-0.5c-0.8,0-1.5,0.3-2,0.9
				c-0.5,0.6-0.8,1.6-0.8,2.9c0,1.3,0.3,2.3,0.8,2.9c0.5,0.6,1.2,0.9,2,0.9c0.7,0,1.2-0.2,1.6-0.6C46.6,28.8,46.8,28.2,47,27.4z"/>
			<path class="st4" d="M49.4,26.1c0-1.8,0.5-3.2,1.5-4.1c0.8-0.7,1.9-1.1,3.1-1.1c1.4,0,2.5,0.4,3.3,1.3c0.9,0.9,1.3,2.1,1.3,3.7
				c0,1.3-0.2,2.3-0.6,3c-0.4,0.7-0.9,1.3-1.7,1.7c-0.7,0.4-1.5,0.6-2.4,0.6c-1.4,0-2.5-0.4-3.3-1.3C49.8,29,49.4,27.7,49.4,26.1z
				 M51.1,26.1c0,1.3,0.3,2.2,0.8,2.8c0.5,0.6,1.2,0.9,2.1,0.9c0.8,0,1.5-0.3,2.1-0.9s0.8-1.6,0.8-2.9c0-1.2-0.3-2.1-0.8-2.8
				c-0.6-0.6-1.2-0.9-2.1-0.9c-0.8,0-1.5,0.3-2.1,0.9C51.4,23.9,51.1,24.8,51.1,26.1z"/>
			<path class="st4" d="M60.6,31v-9.9h1.5v1.4c0.3-0.5,0.7-0.9,1.2-1.2c0.5-0.3,1.1-0.4,1.8-0.4c0.7,0,1.3,0.2,1.8,0.5
				c0.5,0.3,0.8,0.7,1,1.3c0.8-1.2,1.8-1.7,3-1.7c1,0,1.7,0.3,2.3,0.8c0.5,0.5,0.8,1.4,0.8,2.5V31h-1.7v-6.2c0-0.7-0.1-1.1-0.2-1.4
				c-0.1-0.3-0.3-0.5-0.6-0.7c-0.3-0.2-0.6-0.3-1-0.3c-0.7,0-1.3,0.2-1.7,0.7s-0.7,1.2-0.7,2.2V31h-1.7v-6.4c0-0.7-0.1-1.3-0.4-1.7
				s-0.7-0.6-1.3-0.6c-0.5,0-0.9,0.1-1.3,0.4c-0.4,0.2-0.7,0.6-0.9,1.1c-0.2,0.5-0.3,1.2-0.3,2.1V31H60.6z"/>
			<path class="st4" d="M76.4,19.3v-1.9h1.7v1.9H76.4z M76.4,31v-9.9h1.7V31H76.4z"/>
			<path class="st4" d="M80.6,31v-9.9h1.5v1.4c0.7-1.1,1.8-1.6,3.1-1.6c0.6,0,1.1,0.1,1.6,0.3c0.5,0.2,0.9,0.5,1.1,0.8
				c0.2,0.3,0.4,0.8,0.5,1.2c0.1,0.3,0.1,0.9,0.1,1.6V31H87v-6c0-0.7-0.1-1.2-0.2-1.5c-0.1-0.3-0.4-0.6-0.7-0.8
				c-0.3-0.2-0.7-0.3-1.2-0.3c-0.7,0-1.3,0.2-1.8,0.7c-0.5,0.5-0.8,1.3-0.8,2.6V31H80.6z"/>
			<path class="st4" d="M90.9,31.8l1.6,0.2c0.1,0.5,0.3,0.9,0.6,1.1c0.4,0.3,1,0.5,1.7,0.5c0.8,0,1.4-0.2,1.8-0.5s0.7-0.7,0.9-1.3
				c0.1-0.3,0.1-1.1,0.1-2.1c-0.7,0.9-1.6,1.3-2.7,1.3c-1.4,0-2.4-0.5-3.1-1.5s-1.1-2.1-1.1-3.5c0-0.9,0.2-1.8,0.5-2.6
				c0.3-0.8,0.8-1.4,1.5-1.8s1.4-0.6,2.3-0.6c1.2,0,2.1,0.5,2.9,1.4v-1.2h1.5v8.5c0,1.5-0.2,2.6-0.5,3.3c-0.3,0.6-0.8,1.1-1.5,1.5
				c-0.7,0.4-1.5,0.6-2.5,0.6c-1.2,0-2.1-0.3-2.8-0.8C91.2,33.7,90.9,32.9,90.9,31.8z M92.3,25.9c0,1.3,0.3,2.2,0.8,2.8
				s1.2,0.9,1.9,0.9c0.8,0,1.4-0.3,1.9-0.9c0.5-0.6,0.8-1.5,0.8-2.8c0-1.2-0.3-2.1-0.8-2.7c-0.5-0.6-1.2-0.9-1.9-0.9
				c-0.7,0-1.4,0.3-1.9,0.9C92.5,23.8,92.3,24.7,92.3,25.9z"/>
			<path class="st4" d="M107.3,31V17.4h6c1.2,0,2.1,0.1,2.8,0.4c0.6,0.2,1.1,0.7,1.5,1.3c0.4,0.6,0.6,1.3,0.6,2c0,1-0.3,1.8-0.9,2.4
				c-0.6,0.7-1.6,1.1-2.9,1.3c0.5,0.2,0.8,0.5,1.1,0.7c0.5,0.5,1,1.1,1.5,1.8l2.4,3.7H117l-1.8-2.8c-0.5-0.8-1-1.4-1.3-1.9
				c-0.3-0.4-0.6-0.7-0.9-0.9c-0.3-0.2-0.5-0.3-0.8-0.4c-0.2,0-0.5-0.1-1-0.1h-2.1v6H107.3z M109.1,23.4h3.9c0.8,0,1.5-0.1,1.9-0.3
				c0.5-0.2,0.8-0.4,1.1-0.8c0.2-0.4,0.4-0.8,0.4-1.2c0-0.6-0.2-1.2-0.7-1.6c-0.5-0.4-1.2-0.6-2.2-0.6h-4.3V23.4z"/>
			<path class="st4" d="M127.5,27.8l1.7,0.2c-0.3,1-0.8,1.8-1.5,2.3s-1.7,0.8-2.8,0.8c-1.4,0-2.6-0.4-3.4-1.3
				c-0.8-0.9-1.3-2.1-1.3-3.7c0-1.7,0.4-2.9,1.3-3.9s2-1.4,3.3-1.4c1.3,0,2.4,0.4,3.2,1.3c0.8,0.9,1.3,2.2,1.3,3.8
				c0,0.1,0,0.2,0,0.4h-7.3c0.1,1.1,0.4,1.9,0.9,2.5c0.5,0.6,1.2,0.9,2.1,0.9c0.6,0,1.1-0.2,1.6-0.5S127.3,28.5,127.5,27.8z
				 M122,25.1h5.5c-0.1-0.8-0.3-1.5-0.6-1.9c-0.5-0.6-1.2-1-2.1-1c-0.8,0-1.4,0.3-1.9,0.8C122.4,23.6,122.1,24.3,122,25.1z"/>
			<path class="st4" d="M137.6,34.8V30c-0.3,0.4-0.6,0.7-1.1,0.9c-0.5,0.2-1,0.4-1.5,0.4c-1.2,0-2.2-0.5-3-1.4
				c-0.8-0.9-1.3-2.2-1.3-3.8c0-1,0.2-1.9,0.5-2.7c0.3-0.8,0.8-1.4,1.5-1.8c0.7-0.4,1.4-0.6,2.1-0.6c1.2,0,2.2,0.5,2.9,1.5v-1.3h1.5
				v13.6H137.6z M132.5,26c0,1.3,0.3,2.2,0.8,2.9c0.5,0.6,1.2,1,1.9,1c0.7,0,1.3-0.3,1.8-0.9c0.5-0.6,0.8-1.5,0.8-2.8
				c0-1.3-0.3-2.3-0.8-3c-0.5-0.7-1.2-1-1.9-1c-0.7,0-1.3,0.3-1.8,0.9C132.7,23.8,132.5,24.7,132.5,26z"/>
			<path class="st4" d="M148.4,31v-1.4c-0.8,1.1-1.8,1.7-3.1,1.7c-0.6,0-1.1-0.1-1.6-0.3c-0.5-0.2-0.9-0.5-1.1-0.8
				c-0.2-0.3-0.4-0.8-0.5-1.2c-0.1-0.3-0.1-0.8-0.1-1.6v-6.1h1.7v5.5c0,0.9,0,1.5,0.1,1.8c0.1,0.4,0.3,0.8,0.7,1
				c0.3,0.2,0.8,0.4,1.3,0.4s1-0.1,1.4-0.4c0.4-0.3,0.8-0.6,0.9-1c0.2-0.4,0.3-1.1,0.3-1.9v-5.3h1.7V31H148.4z"/>
			<path class="st4" d="M159.2,27.8l1.7,0.2c-0.3,1-0.8,1.8-1.5,2.3c-0.7,0.6-1.7,0.8-2.8,0.8c-1.4,0-2.6-0.4-3.4-1.3
				c-0.8-0.9-1.3-2.1-1.3-3.7c0-1.7,0.4-2.9,1.3-3.9s2-1.4,3.3-1.4c1.3,0,2.4,0.4,3.2,1.3c0.8,0.9,1.3,2.2,1.3,3.8
				c0,0.1,0,0.2,0,0.4h-7.3c0.1,1.1,0.4,1.9,0.9,2.5c0.6,0.6,1.2,0.9,2.1,0.9c0.6,0,1.1-0.2,1.6-0.5C158.6,29,159,28.5,159.2,27.8z
				 M153.7,25.1h5.5c-0.1-0.8-0.3-1.5-0.6-1.9c-0.5-0.6-1.2-1-2.1-1c-0.8,0-1.4,0.3-1.9,0.8C154.1,23.6,153.8,24.3,153.7,25.1z"/>
			<path class="st4" d="M162.4,28.1l1.7-0.3c0.1,0.7,0.4,1.2,0.8,1.5c0.4,0.4,1,0.5,1.8,0.5c0.8,0,1.3-0.2,1.7-0.5
				c0.4-0.3,0.6-0.7,0.6-1.1c0-0.4-0.2-0.7-0.5-0.9c-0.2-0.1-0.8-0.3-1.7-0.6c-1.2-0.3-2.1-0.6-2.5-0.8c-0.5-0.2-0.8-0.5-1.1-0.9
				c-0.2-0.4-0.4-0.8-0.4-1.3c0-0.4,0.1-0.8,0.3-1.2s0.5-0.7,0.8-0.9c0.3-0.2,0.6-0.4,1.1-0.5c0.4-0.1,0.9-0.2,1.4-0.2
				c0.8,0,1.5,0.1,2,0.3c0.6,0.2,1,0.5,1.3,0.9c0.3,0.4,0.5,0.9,0.6,1.5l-1.6,0.2c-0.1-0.5-0.3-0.9-0.6-1.2s-0.9-0.4-1.5-0.4
				c-0.8,0-1.3,0.1-1.6,0.4c-0.3,0.3-0.5,0.6-0.5,0.9c0,0.2,0.1,0.4,0.2,0.6c0.1,0.2,0.3,0.3,0.6,0.4c0.2,0.1,0.7,0.2,1.5,0.4
				c1.2,0.3,2,0.6,2.5,0.8c0.5,0.2,0.8,0.5,1.1,0.9c0.3,0.4,0.4,0.9,0.4,1.4c0,0.6-0.2,1.1-0.5,1.6c-0.3,0.5-0.8,0.9-1.4,1.1
				c-0.6,0.3-1.3,0.4-2.1,0.4c-1.3,0-2.3-0.3-2.9-0.8S162.6,29.1,162.4,28.1z"/>
			<path class="st4" d="M176.2,29.5l0.2,1.5c-0.5,0.1-0.9,0.1-1.3,0.1c-0.6,0-1.1-0.1-1.4-0.3c-0.3-0.2-0.6-0.4-0.7-0.8
				c-0.1-0.3-0.2-1-0.2-2v-5.7h-1.2v-1.3h1.2v-2.4l1.7-1v3.4h1.7v1.3h-1.7v5.8c0,0.5,0,0.8,0.1,0.9c0.1,0.1,0.2,0.2,0.3,0.3
				c0.1,0.1,0.3,0.1,0.6,0.1C175.6,29.6,175.9,29.5,176.2,29.5z"/>
		</g>
	</g>
	<g transform="translate(50 100)">
		<g>
			<path class="st2" d="M20,0h160c11,0,20,9,20,20v30c0,11-9,20-20,20H20C9,70,0,61,0,50V20C0,9,9,0,20,0z"/>
		</g>
		<g class="st3">
			<path class="st5" d="M43,31v-8.6h-1.5v-1.3H43v-1c0-0.7,0.1-1.2,0.2-1.5c0.2-0.4,0.4-0.8,0.8-1.1c0.4-0.3,1-0.4,1.7-0.4
				c0.5,0,1,0.1,1.6,0.2l-0.3,1.5c-0.3-0.1-0.7-0.1-1-0.1c-0.5,0-0.9,0.1-1.1,0.3c-0.2,0.2-0.3,0.6-0.3,1.2v0.9h1.9v1.3h-1.9V31H43z
				"/>
			<path class="st5" d="M54.4,29.8c-0.6,0.5-1.2,0.9-1.8,1.1c-0.6,0.2-1.2,0.3-1.8,0.3c-1.1,0-1.9-0.3-2.5-0.8
				c-0.6-0.5-0.9-1.2-0.9-2c0-0.5,0.1-0.9,0.3-1.3c0.2-0.4,0.5-0.7,0.9-1s0.8-0.4,1.2-0.5c0.3-0.1,0.8-0.2,1.5-0.2
				c1.3-0.2,2.3-0.4,3-0.6c0-0.2,0-0.4,0-0.4c0-0.7-0.2-1.2-0.5-1.4c-0.4-0.4-1.1-0.6-1.9-0.6c-0.8,0-1.4,0.1-1.7,0.4
				c-0.4,0.3-0.7,0.8-0.8,1.5L47.6,24c0.1-0.7,0.4-1.3,0.7-1.7s0.8-0.8,1.5-1c0.6-0.2,1.4-0.3,2.2-0.3c0.8,0,1.5,0.1,2.1,0.3
				c0.5,0.2,0.9,0.4,1.2,0.7s0.4,0.7,0.5,1.1c0.1,0.3,0.1,0.8,0.1,1.5v2.2c0,1.6,0,2.5,0.1,2.9s0.2,0.8,0.4,1.2h-1.7
				C54.5,30.7,54.4,30.2,54.4,29.8z M54.2,26.1c-0.6,0.2-1.5,0.5-2.7,0.6c-0.7,0.1-1.2,0.2-1.5,0.3c-0.3,0.1-0.5,0.3-0.7,0.5
				c-0.2,0.2-0.2,0.5-0.2,0.8c0,0.4,0.2,0.8,0.5,1.1s0.8,0.4,1.5,0.4c0.6,0,1.2-0.1,1.7-0.4c0.5-0.3,0.9-0.7,1.1-1.2
				c0.2-0.4,0.3-0.9,0.3-1.7V26.1z"/>
			<path class="st5" d="M64.9,27.4l1.6,0.2c-0.2,1.1-0.6,2-1.4,2.7c-0.7,0.6-1.6,1-2.7,1c-1.3,0-2.4-0.4-3.3-1.3
				C58.4,29,58,27.8,58,26.1c0-1.1,0.2-2,0.5-2.8s0.9-1.4,1.6-1.8c0.7-0.4,1.5-0.6,2.4-0.6c1.1,0,1.9,0.3,2.6,0.8
				c0.7,0.5,1.1,1.3,1.3,2.3l-1.6,0.3c-0.2-0.7-0.4-1.2-0.8-1.5c-0.4-0.3-0.9-0.5-1.4-0.5c-0.8,0-1.5,0.3-2,0.9
				c-0.5,0.6-0.8,1.6-0.8,2.9c0,1.3,0.3,2.3,0.8,2.9c0.5,0.6,1.2,0.9,2,0.9c0.7,0,1.2-0.2,1.6-0.6C64.5,28.8,64.8,28.2,64.9,27.4z"
				/>
			<path class="st5" d="M71.6,29.5l0.2,1.5c-0.5,0.1-0.9,0.1-1.3,0.1c-0.6,0-1.1-0.1-1.4-0.3c-0.3-0.2-0.6-0.4-0.7-0.8
				c-0.1-0.3-0.2-1-0.2-2v-5.7h-1.2v-1.3h1.2v-2.4l1.7-1v3.4h1.7v1.3H70v5.8c0,0.5,0,0.8,0.1,0.9c0.1,0.1,0.2,0.2,0.3,0.3
				c0.1,0.1,0.3,0.1,0.6,0.1C71.1,29.6,71.3,29.5,71.6,29.5z"/>
			<path class="st5" d="M72.6,26.1c0-1.8,0.5-3.2,1.5-4.1c0.8-0.7,1.9-1.1,3.1-1.1c1.4,0,2.5,0.4,3.3,1.3c0.9,0.9,1.3,2.1,1.3,3.7
				c0,1.3-0.2,2.3-0.6,3c-0.4,0.7-0.9,1.3-1.7,1.7c-0.7,0.4-1.5,0.6-2.4,0.6c-1.4,0-2.5-0.4-3.3-1.3C73.1,29,72.6,27.7,72.6,26.1z
				 M74.4,26.1c0,1.3,0.3,2.2,0.8,2.8s1.2,0.9,2.1,0.9c0.8,0,1.5-0.3,2.1-0.9c0.5-0.6,0.8-1.6,0.8-2.9c0-1.2-0.3-2.1-0.8-2.8
				s-1.2-0.9-2.1-0.9c-0.8,0-1.5,0.3-2.1,0.9S74.4,24.8,74.4,26.1z"/>
			<path class="st5" d="M83.8,31v-9.9h1.5v1.5c0.4-0.7,0.7-1.2,1.1-1.4c0.3-0.2,0.7-0.3,1.1-0.3c0.6,0,1.1,0.2,1.7,0.5L88.6,23
				c-0.4-0.2-0.8-0.4-1.2-0.4c-0.4,0-0.7,0.1-1,0.3c-0.3,0.2-0.5,0.5-0.6,0.9c-0.2,0.6-0.3,1.2-0.3,1.9V31H83.8z"/>
			<path class="st5" d="M89.8,26.6l1.7-0.1c0.1,0.7,0.3,1.2,0.6,1.7c0.3,0.4,0.8,0.8,1.4,1.1c0.6,0.3,1.3,0.4,2.1,0.4
				c0.7,0,1.3-0.1,1.8-0.3c0.5-0.2,0.9-0.5,1.2-0.8c0.3-0.4,0.4-0.7,0.4-1.2c0-0.4-0.1-0.8-0.4-1.1c-0.2-0.3-0.7-0.6-1.2-0.8
				c-0.4-0.1-1.2-0.4-2.4-0.7c-1.2-0.3-2.1-0.6-2.6-0.8c-0.6-0.3-1.1-0.8-1.5-1.3c-0.3-0.5-0.5-1.1-0.5-1.7c0-0.7,0.2-1.3,0.6-1.9
				c0.4-0.6,1-1,1.7-1.4c0.7-0.3,1.6-0.5,2.5-0.5c1,0,1.9,0.2,2.7,0.5c0.8,0.3,1.4,0.8,1.8,1.4s0.6,1.3,0.7,2.1l-1.7,0.1
				c-0.1-0.9-0.4-1.5-0.9-1.9c-0.5-0.4-1.3-0.7-2.4-0.7c-1.1,0-1.9,0.2-2.4,0.6c-0.5,0.4-0.7,0.9-0.7,1.4c0,0.5,0.2,0.9,0.5,1.2
				c0.3,0.3,1.3,0.6,2.7,1c1.5,0.3,2.5,0.6,3,0.9c0.8,0.4,1.4,0.8,1.8,1.4c0.4,0.6,0.6,1.2,0.6,1.9c0,0.7-0.2,1.4-0.6,2
				c-0.4,0.6-1,1.1-1.8,1.5s-1.7,0.5-2.6,0.5c-1.2,0-2.3-0.2-3.1-0.5c-0.8-0.4-1.5-0.9-2-1.6C90,28.4,89.8,27.5,89.8,26.6z"/>
			<path class="st5" d="M109.6,27.8l1.7,0.2c-0.3,1-0.8,1.8-1.5,2.3s-1.7,0.8-2.8,0.8c-1.4,0-2.6-0.4-3.4-1.3
				c-0.8-0.9-1.3-2.1-1.3-3.7c0-1.7,0.4-2.9,1.3-3.9s2-1.4,3.3-1.4c1.3,0,2.4,0.4,3.2,1.3c0.8,0.9,1.3,2.2,1.3,3.8
				c0,0.1,0,0.2,0,0.4H104c0.1,1.1,0.4,1.9,0.9,2.5c0.5,0.6,1.2,0.9,2.1,0.9c0.6,0,1.1-0.2,1.6-0.5S109.3,28.5,109.6,27.8z
				 M104.1,25.1h5.5c-0.1-0.8-0.3-1.5-0.6-1.9c-0.5-0.6-1.2-1-2.1-1c-0.8,0-1.4,0.3-1.9,0.8C104.4,23.6,104.2,24.3,104.1,25.1z"/>
			<path class="st5" d="M113.4,31v-9.9h1.5v1.5c0.4-0.7,0.7-1.2,1.1-1.4c0.3-0.2,0.7-0.3,1.1-0.3c0.6,0,1.1,0.2,1.7,0.5l-0.6,1.5
				c-0.4-0.2-0.8-0.4-1.2-0.4c-0.4,0-0.7,0.1-1,0.3c-0.3,0.2-0.5,0.5-0.6,0.9c-0.2,0.6-0.3,1.2-0.3,1.9V31H113.4z"/>
			<path class="st5" d="M122.5,31l-3.7-9.9h1.8l2.1,5.9c0.2,0.6,0.4,1.3,0.6,2c0.1-0.5,0.4-1.1,0.6-1.9l2.2-6h1.7L124,31H122.5z"/>
			<path class="st5" d="M136,27.8l1.7,0.2c-0.3,1-0.8,1.8-1.5,2.3c-0.7,0.6-1.7,0.8-2.8,0.8c-1.4,0-2.6-0.4-3.4-1.3
				c-0.8-0.9-1.3-2.1-1.3-3.7c0-1.7,0.4-2.9,1.3-3.9s2-1.4,3.3-1.4c1.3,0,2.4,0.4,3.2,1.3c0.8,0.9,1.3,2.2,1.3,3.8
				c0,0.1,0,0.2,0,0.4h-7.3c0.1,1.1,0.4,1.9,0.9,2.5c0.6,0.6,1.2,0.9,2.1,0.9c0.6,0,1.1-0.2,1.6-0.5C135.4,29,135.7,28.5,136,27.8z
				 M130.5,25.1h5.5c-0.1-0.8-0.3-1.5-0.6-1.9c-0.5-0.6-1.2-1-2.1-1c-0.8,0-1.4,0.3-1.9,0.8C130.8,23.6,130.5,24.3,130.5,25.1z"/>
			<path class="st5" d="M139.8,31v-9.9h1.5v1.5c0.4-0.7,0.7-1.2,1.1-1.4c0.3-0.2,0.7-0.3,1.1-0.3c0.6,0,1.1,0.2,1.7,0.5l-0.6,1.5
				c-0.4-0.2-0.8-0.4-1.2-0.4c-0.4,0-0.7,0.1-1,0.3c-0.3,0.2-0.5,0.5-0.6,0.9c-0.2,0.6-0.3,1.2-0.3,1.9V31H139.8z"/>
			<path class="st5" d="M146.6,31V17.4h1.8V31H146.6z"/>
			<path class="st5" d="M151.4,31v-9.9h1.5v1.4c0.7-1.1,1.8-1.6,3.1-1.6c0.6,0,1.1,0.1,1.6,0.3c0.5,0.2,0.9,0.5,1.1,0.8
				c0.2,0.3,0.4,0.8,0.5,1.2c0.1,0.3,0.1,0.9,0.1,1.6V31h-1.7v-6c0-0.7-0.1-1.2-0.2-1.5c-0.1-0.3-0.4-0.6-0.7-0.8s-0.7-0.3-1.2-0.3
				c-0.7,0-1.3,0.2-1.8,0.7c-0.5,0.5-0.8,1.3-0.8,2.6V31H151.4z"/>
			<path class="st5" d="M162,19.3v-1.9h1.7v1.9H162z M162,31v-9.9h1.7V31H162z"/>
			<path class="st5" d="M169.8,29.5l0.2,1.5c-0.5,0.1-0.9,0.1-1.3,0.1c-0.6,0-1.1-0.1-1.4-0.3c-0.3-0.2-0.6-0.4-0.7-0.8
				c-0.1-0.3-0.2-1-0.2-2v-5.7h-1.2v-1.3h1.2v-2.4l1.7-1v3.4h1.7v1.3h-1.7v5.8c0,0.5,0,0.8,0.1,0.9s0.2,0.2,0.3,0.3
				c0.1,0.1,0.3,0.1,0.6,0.1C169.3,29.6,169.5,29.5,169.8,29.5z"/>
		</g>
		<g class="st3">
			<path class="st5" d="M41.2,50.5c0.5,0.3,1.3,0.6,2.2,0.6c1.2,0,2-0.7,2-1.6c0-0.9-0.5-1.4-1.8-1.9c-1.5-0.5-2.5-1.3-2.5-2.7
				c0-1.5,1.2-2.6,3.1-2.6c1,0,1.7,0.2,2.1,0.5l-0.3,1c-0.3-0.2-0.9-0.4-1.8-0.4c-1.3,0-1.8,0.8-1.8,1.4c0,0.9,0.6,1.3,1.9,1.8
				c1.6,0.6,2.4,1.4,2.4,2.8c0,1.5-1.1,2.7-3.3,2.7c-0.9,0-1.9-0.3-2.4-0.6L41.2,50.5z"/>
			<path class="st5" d="M49.7,43.3v1.9h1.8v0.9h-1.8v3.7c0,0.8,0.2,1.3,0.9,1.3c0.3,0,0.6,0,0.7-0.1l0.1,0.9
				c-0.2,0.1-0.6,0.2-1.1,0.2c-0.6,0-1-0.2-1.3-0.5c-0.4-0.4-0.5-1-0.5-1.8v-3.7h-1.1v-0.9h1.1v-1.6L49.7,43.3z"/>
			<path class="st5" d="M58.9,48.6c0,2.5-1.7,3.6-3.4,3.6c-1.8,0-3.2-1.3-3.2-3.5c0-2.3,1.5-3.6,3.4-3.6
				C57.6,45.1,58.9,46.5,58.9,48.6z M53.5,48.6c0,1.5,0.9,2.6,2.1,2.6c1.2,0,2.1-1.1,2.1-2.6c0-1.1-0.6-2.6-2-2.6
				C54.1,46,53.5,47.3,53.5,48.6z"/>
			<path class="st5" d="M60.4,47.3c0-0.8,0-1.5-0.1-2.1h1.1l0,1.3h0.1c0.3-0.9,1.1-1.5,1.9-1.5c0.1,0,0.2,0,0.4,0v1.2
				c-0.1,0-0.3,0-0.4,0c-0.9,0-1.5,0.7-1.7,1.6c0,0.2-0.1,0.4-0.1,0.6V52h-1.2V47.3z"/>
			<path class="st5" d="M65.5,48.8c0,1.7,1.1,2.4,2.3,2.4c0.9,0,1.4-0.2,1.9-0.4l0.2,0.9c-0.4,0.2-1.2,0.4-2.3,0.4
				c-2.1,0-3.3-1.4-3.3-3.4c0-2,1.2-3.7,3.2-3.7c2.2,0,2.8,1.9,2.8,3.2c0,0.3,0,0.4,0,0.6H65.5z M69.2,48c0-0.8-0.3-2-1.7-2
				c-1.2,0-1.8,1.1-1.9,2H69.2z"/>
			<path class="st5" d="M79.5,52l-0.1-0.9h0c-0.4,0.5-1.1,1-2.1,1c-1.4,0-2.1-1-2.1-1.9c0-1.6,1.5-2.5,4.1-2.5v-0.1
				c0-0.6-0.2-1.6-1.5-1.6c-0.6,0-1.3,0.2-1.8,0.5l-0.3-0.8c0.6-0.4,1.4-0.6,2.2-0.6c2.1,0,2.6,1.4,2.6,2.8v2.5c0,0.6,0,1.2,0.1,1.6
				H79.5z M79.3,48.5c-1.3,0-2.9,0.2-2.9,1.5c0,0.8,0.5,1.2,1.2,1.2c0.9,0,1.4-0.6,1.6-1.1c0-0.1,0.1-0.3,0.1-0.4V48.5z"/>
			<path class="st5" d="M87.3,51.7c-0.3,0.2-1,0.4-1.9,0.4c-2,0-3.4-1.4-3.4-3.5c0-2.1,1.4-3.6,3.6-3.6c0.7,0,1.4,0.2,1.7,0.4
				l-0.3,1c-0.3-0.2-0.8-0.3-1.4-0.3c-1.6,0-2.4,1.1-2.4,2.6c0,1.6,1,2.5,2.4,2.5c0.7,0,1.2-0.2,1.5-0.3L87.3,51.7z"/>
			<path class="st5" d="M90.5,43.3v1.9h1.8v0.9h-1.8v3.7c0,0.8,0.2,1.3,0.9,1.3c0.3,0,0.6,0,0.7-0.1l0.1,0.9
				c-0.2,0.1-0.6,0.2-1.1,0.2c-0.6,0-1-0.2-1.3-0.5c-0.4-0.4-0.5-1-0.5-1.8v-3.7h-1.1v-0.9h1.1v-1.6L90.5,43.3z"/>
			<path class="st5" d="M95,43.3c0,0.4-0.3,0.8-0.8,0.8c-0.4,0-0.7-0.3-0.7-0.8c0-0.4,0.3-0.8,0.8-0.8C94.7,42.5,95,42.9,95,43.3z
				 M93.6,52v-6.8h1.2V52H93.6z"/>
			<path class="st5" d="M103,48.6c0,2.5-1.7,3.6-3.4,3.6c-1.8,0-3.2-1.3-3.2-3.5c0-2.3,1.5-3.6,3.4-3.6
				C101.7,45.1,103,46.5,103,48.6z M97.6,48.6c0,1.5,0.9,2.6,2.1,2.6c1.2,0,2.1-1.1,2.1-2.6c0-1.1-0.6-2.6-2-2.6
				C98.3,46,97.6,47.3,97.6,48.6z"/>
			<path class="st5" d="M104.6,47.1c0-0.7,0-1.3-0.1-1.8h1.1l0.1,1.1h0c0.3-0.6,1.1-1.3,2.2-1.3c0.9,0,2.4,0.6,2.4,2.9v4h-1.2v-3.9
				c0-1.1-0.4-2-1.6-2c-0.8,0-1.4,0.6-1.7,1.3c-0.1,0.2-0.1,0.4-0.1,0.6V52h-1.2V47.1z"/>
		</g>
	</g>
	<g transform="translate(50 200)">
		<g>
			<path class="st6" d="M20,0h160c11,0,20,9,20,20v60c0,11-9,20-20,20H20C9,100,0,91,0,80V20C0,9,9,0,20,0z"/>
		</g>
		<g class="st3">
			<path class="st5" d="M52.7,31v-9.9h1.5v1.4c0.3-0.5,0.7-0.9,1.2-1.2c0.5-0.3,1.1-0.4,1.8-0.4c0.7,0,1.3,0.2,1.8,0.5
				c0.5,0.3,0.8,0.7,1,1.3c0.8-1.2,1.8-1.7,3-1.7c1,0,1.7,0.3,2.3,0.8c0.5,0.5,0.8,1.4,0.8,2.5V31h-1.7v-6.2c0-0.7-0.1-1.1-0.2-1.4
				c-0.1-0.3-0.3-0.5-0.6-0.7c-0.3-0.2-0.6-0.3-1-0.3c-0.7,0-1.3,0.2-1.7,0.7c-0.5,0.5-0.7,1.2-0.7,2.2V31h-1.7v-6.4
				c0-0.7-0.1-1.3-0.4-1.7c-0.3-0.4-0.7-0.6-1.3-0.6c-0.5,0-0.9,0.1-1.3,0.4c-0.4,0.2-0.7,0.6-0.9,1.1c-0.2,0.5-0.3,1.2-0.3,2.1V31
				H52.7z"/>
			<path class="st5" d="M68.5,19.3v-1.9h1.7v1.9H68.5z M68.5,31v-9.9h1.7V31H68.5z"/>
			<path class="st5" d="M79.1,31v-1.2c-0.6,1-1.5,1.5-2.8,1.5c-0.8,0-1.5-0.2-2.2-0.6c-0.7-0.4-1.2-1-1.5-1.8
				c-0.4-0.8-0.5-1.7-0.5-2.7c0-1,0.2-1.9,0.5-2.7c0.3-0.8,0.8-1.4,1.5-1.8c0.7-0.4,1.4-0.6,2.2-0.6c0.6,0,1.1,0.1,1.6,0.4
				c0.5,0.2,0.8,0.6,1.1,1v-4.9h1.7V31H79.1z M73.8,26.1c0,1.3,0.3,2.2,0.8,2.8c0.5,0.6,1.2,0.9,1.9,0.9c0.7,0,1.3-0.3,1.9-0.9
				c0.5-0.6,0.8-1.5,0.8-2.7c0-1.3-0.3-2.3-0.8-3s-1.2-0.9-1.9-0.9c-0.7,0-1.4,0.3-1.9,0.9C74.1,23.8,73.8,24.8,73.8,26.1z"/>
			<path class="st5" d="M89.7,31v-1.2c-0.6,1-1.5,1.5-2.8,1.5c-0.8,0-1.5-0.2-2.2-0.6c-0.7-0.4-1.2-1-1.5-1.8
				c-0.4-0.8-0.5-1.7-0.5-2.7c0-1,0.2-1.9,0.5-2.7c0.3-0.8,0.8-1.4,1.5-1.8c0.7-0.4,1.4-0.6,2.2-0.6c0.6,0,1.1,0.1,1.6,0.4
				c0.5,0.2,0.8,0.6,1.1,1v-4.9h1.7V31H89.7z M84.4,26.1c0,1.3,0.3,2.2,0.8,2.8c0.5,0.6,1.2,0.9,1.9,0.9c0.7,0,1.3-0.3,1.9-0.9
				c0.5-0.6,0.8-1.5,0.8-2.7c0-1.3-0.3-2.3-0.8-3s-1.2-0.9-1.9-0.9c-0.7,0-1.4,0.3-1.9,0.9C84.7,23.8,84.4,24.8,84.4,26.1z"/>
			<path class="st5" d="M93.8,31V17.4h1.7V31H93.8z"/>
			<path class="st5" d="M104.8,27.8l1.7,0.2c-0.3,1-0.8,1.8-1.5,2.3c-0.7,0.6-1.7,0.8-2.8,0.8c-1.4,0-2.6-0.4-3.4-1.3
				c-0.8-0.9-1.3-2.1-1.3-3.7c0-1.7,0.4-2.9,1.3-3.9s2-1.4,3.3-1.4c1.3,0,2.4,0.4,3.2,1.3c0.8,0.9,1.3,2.2,1.3,3.8
				c0,0.1,0,0.2,0,0.4h-7.3c0.1,1.1,0.4,1.9,0.9,2.5c0.6,0.6,1.2,0.9,2.1,0.9c0.6,0,1.1-0.2,1.6-0.5C104.2,29,104.6,28.5,104.8,27.8
				z M99.3,25.1h5.5c-0.1-0.8-0.3-1.5-0.6-1.9c-0.5-0.6-1.2-1-2.1-1c-0.8,0-1.4,0.3-1.9,0.8C99.7,23.6,99.4,24.3,99.3,25.1z"/>
			<path class="st5" d="M110.5,31l-3-9.9h1.7l1.6,5.7l0.6,2.1c0-0.1,0.2-0.8,0.5-2l1.6-5.8h1.7l1.5,5.7l0.5,1.9l0.6-1.9l1.7-5.7h1.6
				l-3.1,9.9h-1.7l-1.6-5.9l-0.4-1.7l-2,7.6H110.5z"/>
			<path class="st5" d="M128.8,29.8c-0.6,0.5-1.2,0.9-1.8,1.1c-0.6,0.2-1.2,0.3-1.8,0.3c-1.1,0-1.9-0.3-2.5-0.8
				c-0.6-0.5-0.9-1.2-0.9-2c0-0.5,0.1-0.9,0.3-1.3c0.2-0.4,0.5-0.7,0.9-1c0.4-0.2,0.8-0.4,1.2-0.5c0.3-0.1,0.8-0.2,1.5-0.2
				c1.3-0.2,2.3-0.4,3-0.6c0-0.2,0-0.4,0-0.4c0-0.7-0.2-1.2-0.5-1.4c-0.4-0.4-1.1-0.6-1.9-0.6c-0.8,0-1.4,0.1-1.7,0.4
				c-0.4,0.3-0.7,0.8-0.8,1.5l-1.6-0.2c0.1-0.7,0.4-1.3,0.7-1.7c0.3-0.4,0.8-0.8,1.5-1c0.6-0.2,1.4-0.3,2.2-0.3
				c0.8,0,1.5,0.1,2.1,0.3c0.5,0.2,0.9,0.4,1.2,0.7c0.2,0.3,0.4,0.7,0.5,1.1c0.1,0.3,0.1,0.8,0.1,1.5v2.2c0,1.6,0,2.5,0.1,2.9
				c0.1,0.4,0.2,0.8,0.4,1.2h-1.7C129,30.7,128.8,30.2,128.8,29.8z M128.7,26.1c-0.6,0.2-1.5,0.5-2.7,0.6c-0.7,0.1-1.2,0.2-1.5,0.3
				c-0.3,0.1-0.5,0.3-0.7,0.5c-0.2,0.2-0.2,0.5-0.2,0.8c0,0.4,0.2,0.8,0.5,1.1c0.3,0.3,0.8,0.4,1.5,0.4c0.6,0,1.2-0.1,1.7-0.4
				c0.5-0.3,0.9-0.7,1.1-1.2c0.2-0.4,0.3-0.9,0.3-1.7V26.1z"/>
			<path class="st5" d="M132.9,31v-9.9h1.5v1.5c0.4-0.7,0.7-1.2,1.1-1.4c0.3-0.2,0.7-0.3,1.1-0.3c0.6,0,1.1,0.2,1.7,0.5l-0.6,1.5
				c-0.4-0.2-0.8-0.4-1.2-0.4c-0.4,0-0.7,0.1-1,0.3c-0.3,0.2-0.5,0.5-0.6,0.9c-0.2,0.6-0.3,1.2-0.3,1.9V31H132.9z"/>
			<path class="st5" d="M146,27.8l1.7,0.2c-0.3,1-0.8,1.8-1.5,2.3c-0.7,0.6-1.7,0.8-2.8,0.8c-1.4,0-2.6-0.4-3.4-1.3
				c-0.8-0.9-1.3-2.1-1.3-3.7c0-1.7,0.4-2.9,1.3-3.9s2-1.4,3.3-1.4c1.3,0,2.4,0.4,3.2,1.3c0.8,0.9,1.3,2.2,1.3,3.8
				c0,0.1,0,0.2,0,0.4h-7.3c0.1,1.1,0.4,1.9,0.9,2.5c0.6,0.6,1.2,0.9,2.1,0.9c0.6,0,1.1-0.2,1.6-0.5C145.4,29,145.8,28.5,146,27.8z
				 M140.5,25.1h5.5c-0.1-0.8-0.3-1.5-0.6-1.9c-0.5-0.6-1.2-1-2.1-1c-0.8,0-1.4,0.3-1.9,0.8C140.9,23.6,140.6,24.3,140.5,25.1z"/>
		</g>
		<g class="st3">
			<path class="st5" d="M22,44.6V52h-0.9v-5.9c-0.6,0.5-1.2,0.9-1.8,1.1v-0.8c0.5-0.3,0.9-0.5,1.3-0.8c0.4-0.3,0.6-0.6,0.8-0.9H22z"
				/>
			<path class="st5" d="M26.4,50.7V52h-1.2v-1.3H26.4z"/>
			<path class="st5" d="M32.5,52v-5.8h-1v-0.9h1v-0.3c0-1,0.2-1.8,0.8-2.4c0.5-0.4,1.1-0.6,1.7-0.6c0.4,0,0.8,0.1,1.1,0.2l-0.2,1
				c-0.2-0.1-0.4-0.2-0.8-0.2c-1.1,0-1.3,0.9-1.3,2v0.4h1.6v0.9h-1.6V52H32.5z"/>
			<path class="st5" d="M40.2,52l-0.1-0.9h0c-0.4,0.5-1.1,1-2.1,1c-1.4,0-2.1-1-2.1-1.9c0-1.6,1.5-2.5,4.1-2.5v-0.1
				c0-0.6-0.2-1.6-1.5-1.6c-0.6,0-1.3,0.2-1.8,0.5l-0.3-0.8c0.6-0.4,1.4-0.6,2.2-0.6c2.1,0,2.6,1.4,2.6,2.8v2.5c0,0.6,0,1.2,0.1,1.6
				H40.2z M40,48.5c-1.3,0-2.9,0.2-2.9,1.5c0,0.8,0.5,1.2,1.2,1.2c0.9,0,1.4-0.6,1.6-1.1c0-0.1,0.1-0.3,0.1-0.4V48.5z"/>
			<path class="st5" d="M48,51.7c-0.3,0.2-1,0.4-1.9,0.4c-2,0-3.4-1.4-3.4-3.5c0-2.1,1.4-3.6,3.6-3.6c0.7,0,1.4,0.2,1.7,0.4l-0.3,1
				c-0.3-0.2-0.8-0.3-1.4-0.3c-1.6,0-2.4,1.1-2.4,2.6c0,1.6,1,2.5,2.4,2.5c0.7,0,1.2-0.2,1.5-0.3L48,51.7z"/>
			<path class="st5" d="M51.2,43.3v1.9h1.8v0.9h-1.8v3.7c0,0.8,0.2,1.3,0.9,1.3c0.3,0,0.6,0,0.7-0.1l0.1,0.9
				c-0.2,0.1-0.6,0.2-1.1,0.2c-0.6,0-1-0.2-1.3-0.5c-0.4-0.4-0.5-1-0.5-1.8v-3.7h-1.1v-0.9h1.1v-1.6L51.2,43.3z"/>
			<path class="st5" d="M60.4,48.6c0,2.5-1.7,3.6-3.4,3.6c-1.8,0-3.2-1.3-3.2-3.5c0-2.3,1.5-3.6,3.4-3.6
				C59,45.1,60.4,46.5,60.4,48.6z M55,48.6c0,1.5,0.9,2.6,2.1,2.6c1.2,0,2.1-1.1,2.1-2.6c0-1.1-0.6-2.6-2-2.6
				C55.6,46,55,47.3,55,48.6z"/>
			<path class="st5" d="M61.9,47.3c0-0.8,0-1.5-0.1-2.1h1.1l0,1.3H63c0.3-0.9,1.1-1.5,1.9-1.5c0.1,0,0.2,0,0.4,0v1.2
				c-0.1,0-0.3,0-0.4,0c-0.9,0-1.5,0.7-1.7,1.6c0,0.2-0.1,0.4-0.1,0.6V52h-1.2V47.3z"/>
			<path class="st5" d="M69.6,47.9v0.9H66v-0.9H69.6z"/>
			<path class="st5" d="M76,51.7c-0.3,0.2-1,0.4-1.9,0.4c-2,0-3.4-1.4-3.4-3.5c0-2.1,1.4-3.6,3.6-3.6c0.7,0,1.4,0.2,1.7,0.4l-0.3,1
				c-0.3-0.2-0.8-0.3-1.4-0.3c-1.6,0-2.4,1.1-2.4,2.6c0,1.6,1,2.5,2.4,2.5c0.7,0,1.2-0.2,1.5-0.3L76,51.7z"/>
			<path class="st5" d="M83.5,48.6c0,2.5-1.7,3.6-3.4,3.6c-1.8,0-3.2-1.3-3.2-3.5c0-2.3,1.5-3.6,3.4-3.6
				C82.2,45.1,83.5,46.5,83.5,48.6z M78.1,48.6c0,1.5,0.9,2.6,2.1,2.6c1.2,0,2.1-1.1,2.1-2.6c0-1.1-0.6-2.6-2-2.6
				C78.7,46,78.1,47.3,78.1,48.6z"/>
			<path class="st5" d="M85,47.1c0-0.7,0-1.3-0.1-1.8h1.1l0.1,1.1h0c0.3-0.6,1.1-1.3,2.2-1.3c0.9,0,2.4,0.6,2.4,2.9v4h-1.2v-3.9
				c0-1.1-0.4-2-1.6-2c-0.8,0-1.4,0.6-1.7,1.3c-0.1,0.2-0.1,0.4-0.1,0.6V52H85V47.1z"/>
			<path class="st5" d="M92.9,52v-5.8h-1v-0.9h1v-0.4c0-1.8,1.1-3,3-3c0.6,0,1.4,0.2,1.7,0.4l-0.4,0.9c-0.3-0.2-0.8-0.4-1.4-0.4
				c-1.3,0-1.7,0.9-1.7,2v0.3h3.9V52h-1.2v-5.8h-2.7V52H92.9z"/>
			<path class="st5" d="M106,45.2c0,0.5-0.1,1-0.1,1.9V51c0,1.6-0.3,2.5-1,3.1c-0.7,0.6-1.6,0.8-2.5,0.8c-0.8,0-1.7-0.2-2.3-0.6
				l0.3-0.9c0.4,0.3,1.1,0.5,2,0.5c1.3,0,2.2-0.7,2.2-2.4v-0.8h0c-0.4,0.6-1.1,1.1-2.2,1.1c-1.7,0-2.9-1.4-2.9-3.3
				c0-2.3,1.5-3.6,3.1-3.6c1.2,0,1.8,0.6,2.1,1.2h0l0.1-1H106z M104.7,47.9c0-0.2,0-0.4-0.1-0.6c-0.2-0.7-0.8-1.3-1.7-1.3
				c-1.2,0-2,1-2,2.6c0,1.3,0.7,2.4,2,2.4c0.8,0,1.4-0.5,1.7-1.3c0.1-0.2,0.1-0.4,0.1-0.7V47.9z"/>
			<path class="st5" d="M109.2,50.7V52H108v-1.3H109.2z"/>
			<path class="st5" d="M109.6,54c0.6,0,1.1-0.2,1.3-0.5c0.3-0.4,0.5-0.9,0.5-2.5v-5.7h1.2v6.1c0,1.3-0.2,2.2-0.8,2.8
				c-0.5,0.5-1.4,0.8-2.1,0.8L109.6,54z M112.8,43.3c0,0.4-0.3,0.8-0.8,0.8c-0.5,0-0.8-0.3-0.8-0.8c0-0.4,0.3-0.8,0.8-0.8
				C112.5,42.5,112.8,42.9,112.8,43.3z"/>
			<path class="st5" d="M114.5,50.7c0.4,0.2,1,0.5,1.6,0.5c0.9,0,1.3-0.4,1.3-1c0-0.6-0.4-0.9-1.3-1.2c-1.2-0.4-1.8-1.1-1.8-1.9
				c0-1.1,0.9-2,2.3-2c0.7,0,1.3,0.2,1.7,0.4l-0.3,0.9c-0.3-0.2-0.8-0.4-1.4-0.4c-0.7,0-1.1,0.4-1.1,0.9c0,0.6,0.4,0.8,1.3,1.1
				c1.2,0.4,1.8,1,1.8,2c0,1.2-0.9,2-2.5,2c-0.7,0-1.4-0.2-1.9-0.5L114.5,50.7z"/>
			<path class="st5" d="M126.3,48.6c0,2.5-1.7,3.6-3.4,3.6c-1.8,0-3.2-1.3-3.2-3.5c0-2.3,1.5-3.6,3.4-3.6
				C125,45.1,126.3,46.5,126.3,48.6z M121,48.6c0,1.5,0.9,2.6,2.1,2.6c1.2,0,2.1-1.1,2.1-2.6c0-1.1-0.6-2.6-2-2.6
				C121.6,46,121,47.3,121,48.6z"/>
			<path class="st5" d="M127.9,47.1c0-0.7,0-1.3-0.1-1.8h1.1l0.1,1.1h0c0.3-0.6,1.1-1.3,2.2-1.3c0.9,0,2.4,0.6,2.4,2.9v4h-1.2v-3.9
				c0-1.1-0.4-2-1.6-2c-0.8,0-1.4,0.6-1.7,1.3c-0.1,0.2-0.1,0.4-0.1,0.6V52h-1.2V47.1z"/>
		</g>
		<g>
		</g>
		<g class="st3">
			<path class="st5" d="M18.7,62.5c0.1-0.6,0.4-1.1,0.8-1.5c0.4-0.4,1-0.5,1.6-0.5c0.7,0,1.2,0.2,1.7,0.6c0.4,0.4,0.6,0.9,0.6,1.5
				c0,0.3-0.1,0.6-0.2,0.9s-0.3,0.5-0.5,0.8c-0.2,0.3-0.8,0.7-1.7,1.4c-0.5,0.4-0.8,0.6-1,0.9c-0.2,0.2-0.3,0.4-0.4,0.6h3.8V68h-4.9
				c0-0.5,0.2-0.9,0.5-1.3c0.3-0.4,0.8-0.9,1.6-1.6c0.8-0.6,1.3-1.1,1.6-1.4c0.2-0.3,0.4-0.7,0.4-1c0-0.4-0.1-0.7-0.4-1
				s-0.6-0.4-1-0.4c-0.8,0-1.3,0.4-1.6,1.3L18.7,62.5z"/>
			<path class="st5" d="M26.4,66.7V68h-1.2v-1.3H26.4z"/>
			<path class="st5" d="M32.4,63.1c0-0.7,0-1.3-0.1-1.8h1.1l0.1,1.1h0c0.4-0.6,1-1.2,2.1-1.2c0.9,0,1.6,0.6,1.9,1.4h0
				c0.2-0.4,0.5-0.7,0.8-0.9c0.4-0.3,0.9-0.5,1.5-0.5c0.9,0,2.2,0.6,2.2,2.9v4h-1.2v-3.8c0-1.3-0.5-2.1-1.5-2.1
				c-0.7,0-1.2,0.5-1.5,1.1c-0.1,0.2-0.1,0.4-0.1,0.6V68h-1.2v-4.1c0-1.1-0.5-1.9-1.4-1.9c-0.8,0-1.3,0.6-1.5,1.2
				c-0.1,0.2-0.1,0.4-0.1,0.6V68h-1.2V63.1z"/>
			<path class="st5" d="M47.8,68l-0.1-0.9h0c-0.4,0.5-1.1,1-2.1,1c-1.4,0-2.1-1-2.1-1.9c0-1.6,1.5-2.5,4.1-2.5v-0.1
				c0-0.6-0.2-1.6-1.5-1.6c-0.6,0-1.3,0.2-1.8,0.5L44,61.7c0.6-0.4,1.4-0.6,2.2-0.6c2.1,0,2.6,1.4,2.6,2.8v2.5c0,0.6,0,1.2,0.1,1.6
				H47.8z M47.6,64.5c-1.3,0-2.9,0.2-2.9,1.5c0,0.8,0.5,1.2,1.2,1.2c0.9,0,1.4-0.6,1.6-1.1c0-0.1,0.1-0.3,0.1-0.4V64.5z"/>
			<path class="st5" d="M52.2,59.3v1.9H54v0.9h-1.8v3.7c0,0.8,0.2,1.3,0.9,1.3c0.3,0,0.6,0,0.7-0.1l0.1,0.9
				c-0.2,0.1-0.6,0.2-1.1,0.2c-0.6,0-1-0.2-1.3-0.5c-0.4-0.4-0.5-1-0.5-1.8v-3.7H50v-0.9H51v-1.6L52.2,59.3z"/>
			<path class="st5" d="M60.1,67.7c-0.3,0.2-1,0.4-1.9,0.4c-2,0-3.4-1.4-3.4-3.5c0-2.1,1.4-3.6,3.6-3.6c0.7,0,1.4,0.2,1.7,0.4
				l-0.3,1c-0.3-0.2-0.8-0.3-1.4-0.3c-1.6,0-2.4,1.1-2.4,2.6c0,1.6,1,2.5,2.4,2.5c0.7,0,1.2-0.2,1.5-0.3L60.1,67.7z"/>
			<path class="st5" d="M61.6,58.1h1.2v4.2h0c0.2-0.4,0.5-0.7,0.9-0.9c0.4-0.2,0.8-0.3,1.3-0.3c0.9,0,2.4,0.6,2.4,2.9v4h-1.2v-3.9
				c0-1.1-0.4-2-1.6-2c-0.8,0-1.4,0.6-1.7,1.2c-0.1,0.2-0.1,0.4-0.1,0.6V68h-1.2V58.1z"/>
			<path class="st5" d="M70.7,59.3c0,0.4-0.3,0.8-0.8,0.8c-0.4,0-0.7-0.3-0.7-0.8c0-0.4,0.3-0.8,0.8-0.8
				C70.4,58.5,70.7,58.9,70.7,59.3z M69.3,68v-6.8h1.2V68H69.3z"/>
			<path class="st5" d="M72.6,63.1c0-0.7,0-1.3-0.1-1.8h1.1l0.1,1.1h0c0.3-0.6,1.1-1.3,2.2-1.3c0.9,0,2.4,0.6,2.4,2.9v4h-1.2v-3.9
				c0-1.1-0.4-2-1.6-2c-0.8,0-1.4,0.6-1.7,1.3c-0.1,0.2-0.1,0.4-0.1,0.6V68h-1.2V63.1z"/>
			<path class="st5" d="M86.2,61.2c0,0.5-0.1,1-0.1,1.9V67c0,1.6-0.3,2.5-1,3.1c-0.7,0.6-1.6,0.8-2.5,0.8c-0.8,0-1.7-0.2-2.3-0.6
				l0.3-0.9c0.4,0.3,1.1,0.5,2,0.5c1.3,0,2.2-0.7,2.2-2.4v-0.8h0c-0.4,0.6-1.1,1.1-2.2,1.1c-1.7,0-2.9-1.4-2.9-3.3
				c0-2.3,1.5-3.6,3.1-3.6c1.2,0,1.8,0.6,2.1,1.2h0l0.1-1H86.2z M85,63.9c0-0.2,0-0.4-0.1-0.6c-0.2-0.7-0.8-1.3-1.7-1.3
				c-1.2,0-2,1-2,2.6c0,1.3,0.7,2.4,2,2.4c0.8,0,1.4-0.5,1.7-1.3c0.1-0.2,0.1-0.4,0.1-0.7V63.9z"/>
			<path class="st5" d="M92.1,58.1h1.2V68h-1.2V58.1z"/>
			<path class="st5" d="M99.2,68l-0.1-0.9h0c-0.4,0.5-1.1,1-2.1,1c-1.4,0-2.1-1-2.1-1.9c0-1.6,1.5-2.5,4.1-2.5v-0.1
				c0-0.6-0.2-1.6-1.5-1.6c-0.6,0-1.3,0.2-1.8,0.5l-0.3-0.8c0.6-0.4,1.4-0.6,2.2-0.6c2.1,0,2.6,1.4,2.6,2.8v2.5c0,0.6,0,1.2,0.1,1.6
				H99.2z M99,64.5c-1.3,0-2.9,0.2-2.9,1.5c0,0.8,0.5,1.2,1.2,1.2c0.9,0,1.4-0.6,1.6-1.1c0-0.1,0.1-0.3,0.1-0.4V64.5z"/>
			<path class="st5" d="M102.5,61.2l1.5,4c0.2,0.4,0.3,1,0.4,1.4h0c0.1-0.4,0.3-0.9,0.4-1.4l1.3-4h1.3l-1.8,4.8
				c-0.9,2.3-1.5,3.5-2.3,4.2c-0.6,0.5-1.2,0.7-1.5,0.8l-0.3-1c0.3-0.1,0.7-0.3,1.1-0.6c0.3-0.3,0.8-0.7,1-1.4
				c0.1-0.1,0.1-0.2,0.1-0.3s0-0.2-0.1-0.3l-2.5-6.2H102.5z"/>
			<path class="st5" d="M114.6,64.6c0,2.5-1.7,3.6-3.4,3.6c-1.8,0-3.2-1.3-3.2-3.5c0-2.3,1.5-3.6,3.4-3.6
				C113.3,61.1,114.6,62.5,114.6,64.6z M109.3,64.6c0,1.5,0.9,2.6,2.1,2.6c1.2,0,2.1-1.1,2.1-2.6c0-1.1-0.6-2.6-2-2.6
				C109.9,62,109.3,63.3,109.3,64.6z"/>
			<path class="st5" d="M121.9,66.2c0,0.7,0,1.3,0.1,1.8h-1.1l-0.1-1.1h0c-0.3,0.5-1,1.3-2.2,1.3c-1.1,0-2.3-0.6-2.3-3v-4h1.2V65
				c0,1.3,0.4,2.2,1.5,2.2c0.8,0,1.4-0.6,1.6-1.1c0.1-0.2,0.1-0.4,0.1-0.6v-4.2h1.2V66.2z"/>
			<path class="st5" d="M125.4,59.3v1.9h1.8v0.9h-1.8v3.7c0,0.8,0.2,1.3,0.9,1.3c0.3,0,0.6,0,0.7-0.1l0.1,0.9
				c-0.2,0.1-0.6,0.2-1.1,0.2c-0.6,0-1-0.2-1.3-0.5c-0.4-0.4-0.5-1-0.5-1.8v-3.7h-1.1v-0.9h1.1v-1.6L125.4,59.3z"/>
		</g>
		<g>
		</g>
		<g class="st3">
			<path class="st5" d="M18.8,78.3c0.1-0.5,0.4-0.9,0.8-1.3s0.9-0.5,1.5-0.5c0.6,0,1.1,0.2,1.5,0.5s0.6,0.8,0.6,1.4
				c0,0.8-0.3,1.3-1,1.6c0.4,0.1,0.7,0.3,0.9,0.6c0.3,0.3,0.4,0.7,0.4,1.2c0,0.7-0.2,1.3-0.7,1.7c-0.4,0.4-1.1,0.6-1.8,0.6
				c-0.7,0-1.2-0.2-1.6-0.6c-0.4-0.4-0.7-0.9-0.8-1.5l0.8-0.1c0.1,0.4,0.3,0.8,0.6,1c0.3,0.2,0.7,0.4,1.1,0.4c0.5,0,0.9-0.1,1.2-0.4
				c0.3-0.3,0.4-0.6,0.4-1.1c0-0.4-0.1-0.7-0.4-1s-0.7-0.4-1.2-0.4c-0.2,0-0.4,0-0.6,0.1l0.1-0.8c0.5,0,0.8,0,1-0.1s0.4-0.2,0.5-0.3
				c0.1-0.1,0.2-0.3,0.3-0.4c0.1-0.1,0.1-0.3,0.1-0.5c0-0.4-0.1-0.6-0.4-0.8c-0.2-0.2-0.5-0.3-0.9-0.3c-0.7,0-1.2,0.4-1.5,1.1
				L18.8,78.3z"/>
			<path class="st5" d="M26.4,82.7V84h-1.2v-1.3H26.4z"/>
			<path class="st5" d="M32.4,79.1c0-0.7,0-1.3-0.1-1.8h1.1l0.1,1.1h0c0.4-0.6,1-1.2,2.1-1.2c0.9,0,1.6,0.6,1.9,1.4h0
				c0.2-0.4,0.5-0.7,0.8-0.9c0.4-0.3,0.9-0.5,1.5-0.5c0.9,0,2.2,0.6,2.2,2.9v4h-1.2v-3.8c0-1.3-0.5-2.1-1.5-2.1
				c-0.7,0-1.2,0.5-1.5,1.1c-0.1,0.2-0.1,0.4-0.1,0.6V84h-1.2v-4.1c0-1.1-0.5-1.9-1.4-1.9c-0.8,0-1.3,0.6-1.5,1.2
				c-0.1,0.2-0.1,0.4-0.1,0.6V84h-1.2V79.1z"/>
			<path class="st5" d="M47.8,84l-0.1-0.9h0c-0.4,0.5-1.1,1-2.1,1c-1.4,0-2.1-1-2.1-1.9c0-1.6,1.5-2.5,4.1-2.5v-0.1
				c0-0.6-0.2-1.6-1.5-1.6c-0.6,0-1.3,0.2-1.8,0.5L44,77.7c0.6-0.4,1.4-0.6,2.2-0.6c2.1,0,2.6,1.4,2.6,2.8v2.5c0,0.6,0,1.2,0.1,1.6
				H47.8z M47.6,80.5c-1.3,0-2.9,0.2-2.9,1.5c0,0.8,0.5,1.2,1.2,1.2c0.9,0,1.4-0.6,1.6-1.1c0-0.1,0.1-0.3,0.1-0.4V80.5z"/>
			<path class="st5" d="M52.2,75.3v1.9H54v0.9h-1.8v3.7c0,0.8,0.2,1.3,0.9,1.3c0.3,0,0.6,0,0.7-0.1l0.1,0.9
				c-0.2,0.1-0.6,0.2-1.1,0.2c-0.6,0-1-0.2-1.3-0.5c-0.4-0.4-0.5-1-0.5-1.8v-3.7H50v-0.9H51v-1.6L52.2,75.3z"/>
			<path class="st5" d="M60.1,83.7c-0.3,0.2-1,0.4-1.9,0.4c-2,0-3.4-1.4-3.4-3.5c0-2.1,1.4-3.6,3.6-3.6c0.7,0,1.4,0.2,1.7,0.4
				l-0.3,1c-0.3-0.2-0.8-0.3-1.4-0.3c-1.6,0-2.4,1.1-2.4,2.6c0,1.6,1,2.5,2.4,2.5c0.7,0,1.2-0.2,1.5-0.3L60.1,83.7z"/>
			<path class="st5" d="M61.6,74.1h1.2v4.2h0c0.2-0.4,0.5-0.7,0.9-0.9c0.4-0.2,0.8-0.3,1.3-0.3c0.9,0,2.4,0.6,2.4,2.9v4h-1.2v-3.9
				c0-1.1-0.4-2-1.6-2c-0.8,0-1.4,0.6-1.7,1.2c-0.1,0.2-0.1,0.4-0.1,0.6V84h-1.2V74.1z"/>
			<path class="st5" d="M70.7,75.3c0,0.4-0.3,0.8-0.8,0.8c-0.4,0-0.7-0.3-0.7-0.8c0-0.4,0.3-0.8,0.8-0.8
				C70.4,74.5,70.7,74.9,70.7,75.3z M69.3,84v-6.8h1.2V84H69.3z"/>
			<path class="st5" d="M72.6,79.1c0-0.7,0-1.3-0.1-1.8h1.1l0.1,1.1h0c0.3-0.6,1.1-1.3,2.2-1.3c0.9,0,2.4,0.6,2.4,2.9v4h-1.2v-3.9
				c0-1.1-0.4-2-1.6-2c-0.8,0-1.4,0.6-1.7,1.3c-0.1,0.2-0.1,0.4-0.1,0.6V84h-1.2V79.1z"/>
			<path class="st5" d="M86.2,77.2c0,0.5-0.1,1-0.1,1.9V83c0,1.6-0.3,2.5-1,3.1c-0.7,0.6-1.6,0.8-2.5,0.8c-0.8,0-1.7-0.2-2.3-0.6
				l0.3-0.9c0.4,0.3,1.1,0.5,2,0.5c1.3,0,2.2-0.7,2.2-2.4v-0.8h0c-0.4,0.6-1.1,1.1-2.2,1.1c-1.7,0-2.9-1.4-2.9-3.3
				c0-2.3,1.5-3.6,3.1-3.6c1.2,0,1.8,0.6,2.1,1.2h0l0.1-1H86.2z M85,79.9c0-0.2,0-0.4-0.1-0.6c-0.2-0.7-0.8-1.3-1.7-1.3
				c-1.2,0-2,1-2,2.6c0,1.3,0.7,2.4,2,2.4c0.8,0,1.4-0.5,1.7-1.3c0.1-0.2,0.1-0.4,0.1-0.7V79.9z"/>
			<path class="st5" d="M92.1,79.4c0-0.9,0-1.6-0.1-2.2h1.1l0.1,1.2h0c0.5-0.8,1.3-1.3,2.4-1.3c1.6,0,2.9,1.4,2.9,3.4
				c0,2.4-1.5,3.6-3.1,3.6c-0.9,0-1.7-0.4-2.1-1.1h0v3.7h-1.2V79.4z M93.3,81.2c0,0.2,0,0.4,0.1,0.5c0.2,0.9,1,1.4,1.8,1.4
				c1.3,0,2.1-1.1,2.1-2.6c0-1.4-0.7-2.5-2-2.5c-0.8,0-1.6,0.6-1.9,1.5c0,0.2-0.1,0.3-0.1,0.5V81.2z"/>
			<path class="st5" d="M103.8,84l-0.1-0.9h0c-0.4,0.5-1.1,1-2.1,1c-1.4,0-2.1-1-2.1-1.9c0-1.6,1.5-2.5,4.1-2.5v-0.1
				c0-0.6-0.2-1.6-1.5-1.6c-0.6,0-1.3,0.2-1.8,0.5l-0.3-0.8c0.6-0.4,1.4-0.6,2.2-0.6c2.1,0,2.6,1.4,2.6,2.8v2.5c0,0.6,0,1.2,0.1,1.6
				H103.8z M103.6,80.5c-1.3,0-2.9,0.2-2.9,1.5c0,0.8,0.5,1.2,1.2,1.2c0.9,0,1.4-0.6,1.6-1.1c0-0.1,0.1-0.3,0.1-0.4V80.5z"/>
			<path class="st5" d="M112.7,77.2c0,0.5-0.1,1-0.1,1.9V83c0,1.6-0.3,2.5-1,3.1c-0.7,0.6-1.6,0.8-2.5,0.8c-0.8,0-1.7-0.2-2.3-0.6
				l0.3-0.9c0.4,0.3,1.1,0.5,2,0.5c1.3,0,2.2-0.7,2.2-2.4v-0.8h0c-0.4,0.6-1.1,1.1-2.2,1.1c-1.7,0-2.9-1.4-2.9-3.3
				c0-2.3,1.5-3.6,3.1-3.6c1.2,0,1.8,0.6,2.1,1.2h0l0.1-1H112.7z M111.4,79.9c0-0.2,0-0.4-0.1-0.6c-0.2-0.7-0.8-1.3-1.7-1.3
				c-1.2,0-2,1-2,2.6c0,1.3,0.7,2.4,2,2.4c0.8,0,1.4-0.5,1.7-1.3c0.1-0.2,0.1-0.4,0.1-0.7V79.9z"/>
			<path class="st5" d="M115.3,80.8c0,1.7,1.1,2.4,2.3,2.4c0.9,0,1.4-0.2,1.9-0.4l0.2,0.9c-0.4,0.2-1.2,0.4-2.3,0.4
				c-2.1,0-3.3-1.4-3.3-3.4c0-2,1.2-3.7,3.2-3.7c2.2,0,2.8,1.9,2.8,3.2c0,0.3,0,0.4,0,0.6H115.3z M118.9,80c0-0.8-0.3-2-1.7-2
				c-1.2,0-1.8,1.1-1.9,2H118.9z"/>
			<path class="st5" d="M131.5,84c-0.3-0.3-0.5-0.5-0.9-0.9c-0.8,0.8-1.7,1.1-2.8,1.1c-1.8,0-2.9-1.2-2.9-2.6c0-1.3,0.8-2.2,1.8-2.8
				v0c-0.5-0.6-0.8-1.3-0.8-2c0-1.1,0.8-2.3,2.4-2.3c1.2,0,2.1,0.8,2.1,2c0,1-0.6,1.8-2.1,2.5v0c0.8,0.9,1.7,2,2.3,2.6
				c0.4-0.7,0.7-1.6,0.9-2.8h1.1c-0.3,1.5-0.7,2.7-1.4,3.5c0.5,0.5,1,1.1,1.6,1.7H131.5z M130,82.4c-0.6-0.6-1.6-1.8-2.7-3
				c-0.5,0.3-1.2,0.9-1.2,1.9c0,1.1,0.8,1.9,1.9,1.9C128.9,83.2,129.6,82.9,130,82.4z M127.1,76.6c0,0.7,0.3,1.2,0.7,1.7
				c1-0.5,1.6-1,1.6-1.8c0-0.6-0.3-1.2-1.1-1.2C127.5,75.2,127.1,75.9,127.1,76.6z"/>
			<path class="st5" d="M142.7,83.7c-0.3,0.2-1,0.4-1.9,0.4c-2,0-3.4-1.4-3.4-3.5c0-2.1,1.4-3.6,3.6-3.6c0.7,0,1.4,0.2,1.7,0.4
				l-0.3,1c-0.3-0.2-0.8-0.3-1.4-0.3c-1.6,0-2.4,1.1-2.4,2.6c0,1.6,1,2.5,2.4,2.5c0.7,0,1.2-0.2,1.5-0.3L142.7,83.7z"/>
			<path class="st5" d="M144.2,74.1h1.2v4.2h0c0.2-0.4,0.5-0.7,0.9-0.9c0.4-0.2,0.8-0.3,1.3-0.3c0.9,0,2.4,0.6,2.4,2.9v4h-1.2v-3.9
				c0-1.1-0.4-2-1.6-2c-0.8,0-1.4,0.6-1.7,1.2c-0.1,0.2-0.1,0.4-0.1,0.6V84h-1.2V74.1z"/>
			<path class="st5" d="M153.3,75.3c0,0.4-0.3,0.8-0.8,0.8c-0.4,0-0.7-0.3-0.7-0.8c0-0.4,0.3-0.8,0.8-0.8
				C153,74.5,153.3,74.9,153.3,75.3z M152,84v-6.8h1.2V84H152z"/>
			<path class="st5" d="M155.2,74.1h1.2V84h-1.2V74.1z"/>
			<path class="st5" d="M164.4,74.1v8.2c0,0.6,0,1.3,0.1,1.8h-1.1l-0.1-1.2h0c-0.4,0.8-1.2,1.3-2.3,1.3c-1.6,0-2.9-1.4-2.9-3.4
				c0-2.3,1.4-3.6,3-3.6c1,0,1.7,0.5,2,1h0v-4H164.4z M163.2,80c0-0.2,0-0.4-0.1-0.5c-0.2-0.8-0.9-1.4-1.8-1.4c-1.3,0-2,1.1-2,2.6
				c0,1.4,0.7,2.5,2,2.5c0.8,0,1.6-0.5,1.8-1.5c0-0.2,0.1-0.3,0.1-0.5V80z"/>
			<path class="st5" d="M166.4,79.3c0-0.8,0-1.5-0.1-2.1h1.1l0,1.3h0.1c0.3-0.9,1.1-1.5,1.9-1.5c0.1,0,0.2,0,0.4,0v1.2
				c-0.1,0-0.3,0-0.4,0c-0.9,0-1.5,0.7-1.7,1.6c0,0.2-0.1,0.4-0.1,0.6V84h-1.2V79.3z"/>
			<path class="st5" d="M171.6,80.8c0,1.7,1.1,2.4,2.3,2.4c0.9,0,1.4-0.2,1.9-0.4l0.2,0.9c-0.4,0.2-1.2,0.4-2.3,0.4
				c-2.1,0-3.3-1.4-3.3-3.4c0-2,1.2-3.7,3.2-3.7c2.2,0,2.8,1.9,2.8,3.2c0,0.3,0,0.4,0,0.6H171.6z M175.2,80c0-0.8-0.3-2-1.7-2
				c-1.2,0-1.8,1.1-1.9,2H175.2z"/>
			<path class="st5" d="M177.9,79.1c0-0.7,0-1.3-0.1-1.8h1.1l0.1,1.1h0c0.3-0.6,1.1-1.3,2.2-1.3c0.9,0,2.4,0.6,2.4,2.9v4h-1.2v-3.9
				c0-1.1-0.4-2-1.6-2c-0.8,0-1.4,0.6-1.7,1.3c-0.1,0.2-0.1,0.4-0.1,0.6V84h-1.2V79.1z"/>
		</g>
	</g>
	<g transform="translate(50 330)">
		<g>
			<path class="st7" d="M20,0h160c11,0,20,9,20,20v30c0,11-9,20-20,20H20C9,70,0,61,0,50V20C0,9,9,0,20,0z"/>
		</g>
		<g class="st3">
			<path class="st5" d="M64.9,31l-3.7-9.9h1.8L65,27c0.2,0.6,0.4,1.3,0.6,2c0.1-0.5,0.4-1.1,0.6-1.9l2.2-6h1.7L66.5,31H64.9z"/>
			<path class="st5" d="M78.1,29.8c-0.6,0.5-1.2,0.9-1.8,1.1c-0.6,0.2-1.2,0.3-1.8,0.3c-1.1,0-1.9-0.3-2.5-0.8
				c-0.6-0.5-0.9-1.2-0.9-2c0-0.5,0.1-0.9,0.3-1.3c0.2-0.4,0.5-0.7,0.9-1c0.4-0.2,0.8-0.4,1.2-0.5c0.3-0.1,0.8-0.2,1.5-0.2
				c1.3-0.2,2.3-0.4,3-0.6c0-0.2,0-0.4,0-0.4c0-0.7-0.2-1.2-0.5-1.4c-0.4-0.4-1.1-0.6-1.9-0.6c-0.8,0-1.4,0.1-1.7,0.4
				c-0.4,0.3-0.7,0.8-0.8,1.5L71.4,24c0.1-0.7,0.4-1.3,0.7-1.7c0.3-0.4,0.8-0.8,1.5-1c0.6-0.2,1.4-0.3,2.2-0.3c0.8,0,1.5,0.1,2,0.3
				s0.9,0.4,1.2,0.7c0.2,0.3,0.4,0.7,0.5,1.1c0.1,0.3,0.1,0.8,0.1,1.5v2.2c0,1.6,0,2.5,0.1,2.9c0.1,0.4,0.2,0.8,0.4,1.2h-1.7
				C78.3,30.7,78.2,30.2,78.1,29.8z M78,26.1c-0.6,0.2-1.5,0.5-2.7,0.6c-0.7,0.1-1.2,0.2-1.5,0.3c-0.3,0.1-0.5,0.3-0.7,0.5
				c-0.2,0.2-0.2,0.5-0.2,0.8c0,0.4,0.2,0.8,0.5,1.1c0.3,0.3,0.8,0.4,1.5,0.4c0.6,0,1.2-0.1,1.7-0.4c0.5-0.3,0.9-0.7,1.1-1.2
				c0.2-0.4,0.3-0.9,0.3-1.7V26.1z"/>
			<path class="st5" d="M82.2,31V17.4h1.7V31H82.2z"/>
			<path class="st5" d="M86.5,19.3v-1.9h1.7v1.9H86.5z M86.5,31v-9.9h1.7V31H86.5z"/>
			<path class="st5" d="M97.1,31v-1.2c-0.6,1-1.5,1.5-2.8,1.5c-0.8,0-1.5-0.2-2.2-0.6c-0.7-0.4-1.2-1-1.5-1.8
				c-0.4-0.8-0.5-1.7-0.5-2.7c0-1,0.2-1.9,0.5-2.7c0.3-0.8,0.8-1.4,1.5-1.8c0.7-0.4,1.4-0.6,2.2-0.6c0.6,0,1.1,0.1,1.6,0.4
				c0.5,0.2,0.8,0.6,1.1,1v-4.9h1.7V31H97.1z M91.8,26.1c0,1.3,0.3,2.2,0.8,2.8c0.5,0.6,1.2,0.9,1.9,0.9c0.7,0,1.3-0.3,1.9-0.9
				c0.5-0.6,0.8-1.5,0.8-2.7c0-1.3-0.3-2.3-0.8-3s-1.2-0.9-1.9-0.9c-0.7,0-1.4,0.3-1.9,0.9C92.1,23.8,91.8,24.8,91.8,26.1z"/>
			<path class="st5" d="M107.7,29.8c-0.6,0.5-1.2,0.9-1.8,1.1c-0.6,0.2-1.2,0.3-1.8,0.3c-1.1,0-1.9-0.3-2.5-0.8
				c-0.6-0.5-0.9-1.2-0.9-2c0-0.5,0.1-0.9,0.3-1.3c0.2-0.4,0.5-0.7,0.9-1c0.4-0.2,0.8-0.4,1.2-0.5c0.3-0.1,0.8-0.2,1.5-0.2
				c1.3-0.2,2.3-0.4,3-0.6c0-0.2,0-0.4,0-0.4c0-0.7-0.2-1.2-0.5-1.4c-0.4-0.4-1.1-0.6-1.9-0.6c-0.8,0-1.4,0.1-1.7,0.4
				c-0.4,0.3-0.7,0.8-0.8,1.5L101,24c0.1-0.7,0.4-1.3,0.7-1.7c0.3-0.4,0.8-0.8,1.5-1c0.6-0.2,1.4-0.3,2.2-0.3c0.8,0,1.5,0.1,2,0.3
				s0.9,0.4,1.2,0.7c0.2,0.3,0.4,0.7,0.5,1.1c0.1,0.3,0.1,0.8,0.1,1.5v2.2c0,1.6,0,2.5,0.1,2.9c0.1,0.4,0.2,0.8,0.4,1.2H108
				C107.8,30.7,107.7,30.2,107.7,29.8z M107.5,26.1c-0.6,0.2-1.5,0.5-2.7,0.6c-0.7,0.1-1.2,0.2-1.5,0.3c-0.3,0.1-0.5,0.3-0.7,0.5
				c-0.2,0.2-0.2,0.5-0.2,0.8c0,0.4,0.2,0.8,0.5,1.1c0.3,0.3,0.8,0.4,1.5,0.4c0.6,0,1.2-0.1,1.7-0.4c0.5-0.3,0.9-0.7,1.1-1.2
				c0.2-0.4,0.3-0.9,0.3-1.7V26.1z"/>
			<path class="st5" d="M115.5,29.5l0.2,1.5c-0.5,0.1-0.9,0.1-1.3,0.1c-0.6,0-1.1-0.1-1.4-0.3c-0.3-0.2-0.6-0.4-0.7-0.8
				c-0.1-0.3-0.2-1-0.2-2v-5.7h-1.2v-1.3h1.2v-2.4l1.7-1v3.4h1.7v1.3h-1.7v5.8c0,0.5,0,0.8,0.1,0.9s0.2,0.2,0.3,0.3
				c0.1,0.1,0.3,0.1,0.6,0.1C114.9,29.6,115.2,29.5,115.5,29.5z"/>
			<path class="st5" d="M123.8,27.8l1.7,0.2c-0.3,1-0.8,1.8-1.5,2.3s-1.7,0.8-2.8,0.8c-1.4,0-2.6-0.4-3.4-1.3
				c-0.8-0.9-1.3-2.1-1.3-3.7c0-1.7,0.4-2.9,1.3-3.9s2-1.4,3.3-1.4c1.3,0,2.4,0.4,3.2,1.3c0.8,0.9,1.3,2.2,1.3,3.8
				c0,0.1,0,0.2,0,0.4h-7.3c0.1,1.1,0.4,1.9,0.9,2.5c0.5,0.6,1.2,0.9,2.1,0.9c0.6,0,1.1-0.2,1.6-0.5S123.6,28.5,123.8,27.8z
				 M118.4,25.1h5.5c-0.1-0.8-0.3-1.5-0.6-1.9c-0.5-0.6-1.2-1-2.1-1c-0.8,0-1.4,0.3-1.9,0.8C118.7,23.6,118.4,24.3,118.4,25.1z"/>
			<path class="st5" d="M130.9,35c-0.9-1.2-1.7-2.5-2.3-4.1c-0.6-1.6-1-3.2-1-4.8c0-1.5,0.2-2.9,0.7-4.2c0.6-1.6,1.4-3.1,2.6-4.7
				h1.2c-0.7,1.3-1.2,2.2-1.5,2.8c-0.4,0.9-0.7,1.7-0.9,2.7c-0.3,1.2-0.4,2.3-0.4,3.5c0,3,0.9,5.9,2.8,8.9H130.9z"/>
			<path class="st5" d="M135.1,35h-1.2c1.8-3,2.8-5.9,2.8-8.9c0-1.2-0.1-2.3-0.4-3.5c-0.2-0.9-0.5-1.8-0.9-2.7
				c-0.2-0.6-0.7-1.5-1.5-2.8h1.2c1.2,1.6,2,3.1,2.6,4.7c0.5,1.3,0.7,2.8,0.7,4.2c0,1.7-0.3,3.3-1,4.8C136.8,32.5,136,33.8,135.1,35
				z"/>
		</g>
		<g class="st3">
			<path class="st5" d="M23.7,42.7c0.6-0.1,1.4-0.2,2.3-0.2c1.2,0,2.1,0.3,2.6,0.8c0.5,0.4,0.8,1.1,0.8,2c0,0.9-0.3,1.5-0.7,2
				c-0.6,0.7-1.7,1-2.9,1c-0.4,0-0.7,0-1-0.1V52h-1.2V42.7z M24.9,47.2c0.3,0.1,0.6,0.1,1,0.1c1.5,0,2.4-0.7,2.4-2
				c0-1.2-0.9-1.8-2.2-1.8c-0.5,0-0.9,0-1.1,0.1V47.2z"/>
			<path class="st5" d="M34.5,52l-0.1-0.9h0c-0.4,0.5-1.1,1-2.1,1c-1.4,0-2.1-1-2.1-1.9c0-1.6,1.5-2.5,4.1-2.5v-0.1
				c0-0.6-0.2-1.6-1.5-1.6c-0.6,0-1.3,0.2-1.8,0.5l-0.3-0.8c0.6-0.4,1.4-0.6,2.2-0.6c2.1,0,2.6,1.4,2.6,2.8v2.5c0,0.6,0,1.2,0.1,1.6
				H34.5z M34.3,48.5c-1.3,0-2.9,0.2-2.9,1.5c0,0.8,0.5,1.2,1.2,1.2c0.9,0,1.4-0.6,1.6-1.1c0-0.1,0.1-0.3,0.1-0.4V48.5z"/>
			<path class="st5" d="M43.3,45.2c0,0.5-0.1,1-0.1,1.9V51c0,1.6-0.3,2.5-1,3.1c-0.7,0.6-1.6,0.8-2.5,0.8c-0.8,0-1.7-0.2-2.3-0.6
				l0.3-0.9c0.4,0.3,1.1,0.5,2,0.5c1.3,0,2.2-0.7,2.2-2.4v-0.8h0c-0.4,0.6-1.1,1.1-2.2,1.1c-1.7,0-2.9-1.4-2.9-3.3
				c0-2.3,1.5-3.6,3.1-3.6c1.2,0,1.8,0.6,2.1,1.2h0l0.1-1H43.3z M42,47.9c0-0.2,0-0.4-0.1-0.6c-0.2-0.7-0.8-1.3-1.7-1.3
				c-1.2,0-2,1-2,2.6c0,1.3,0.7,2.4,2,2.4c0.8,0,1.4-0.5,1.7-1.3c0.1-0.2,0.1-0.4,0.1-0.7V47.9z"/>
			<path class="st5" d="M46,48.8c0,1.7,1.1,2.4,2.3,2.4c0.9,0,1.4-0.2,1.9-0.4l0.2,0.9c-0.4,0.2-1.2,0.4-2.3,0.4
				c-2.1,0-3.3-1.4-3.3-3.4c0-2,1.2-3.7,3.2-3.7c2.2,0,2.8,1.9,2.8,3.2c0,0.3,0,0.4,0,0.6H46z M49.6,48c0-0.8-0.3-2-1.7-2
				c-1.2,0-1.8,1.1-1.9,2H49.6z"/>
			<path class="st5" d="M52.1,50.7c0.4,0.2,1,0.5,1.6,0.5c0.9,0,1.3-0.4,1.3-1c0-0.6-0.4-0.9-1.3-1.2c-1.2-0.4-1.8-1.1-1.8-1.9
				c0-1.1,0.9-2,2.3-2c0.7,0,1.3,0.2,1.7,0.4l-0.3,0.9C55.5,46.2,55,46,54.3,46c-0.7,0-1.1,0.4-1.1,0.9c0,0.6,0.4,0.8,1.3,1.1
				c1.2,0.4,1.8,1,1.8,2c0,1.2-0.9,2-2.5,2c-0.7,0-1.4-0.2-1.9-0.5L52.1,50.7z"/>
			<path class="st5" d="M67.7,52c-0.3-0.3-0.5-0.5-0.9-0.9c-0.8,0.8-1.7,1.1-2.8,1.1c-1.8,0-2.9-1.2-2.9-2.6c0-1.3,0.8-2.2,1.8-2.8
				v0c-0.5-0.6-0.8-1.3-0.8-2c0-1.1,0.8-2.3,2.4-2.3c1.2,0,2.1,0.8,2.1,2c0,1-0.6,1.8-2.1,2.5v0c0.8,0.9,1.7,2,2.3,2.6
				c0.4-0.7,0.7-1.6,0.9-2.8H69c-0.3,1.5-0.7,2.7-1.4,3.5c0.5,0.5,1,1.1,1.6,1.7H67.7z M66.2,50.4c-0.6-0.6-1.6-1.8-2.7-3
				c-0.5,0.3-1.2,0.9-1.2,1.9c0,1.1,0.8,1.9,1.9,1.9C65.1,51.2,65.8,50.9,66.2,50.4z M63.3,44.6c0,0.7,0.3,1.2,0.7,1.7
				c1-0.5,1.6-1,1.6-1.8c0-0.6-0.3-1.2-1.1-1.2C63.7,43.2,63.3,43.9,63.3,44.6z"/>
			<path class="st5" d="M78.9,51.7c-0.3,0.2-1,0.4-1.9,0.4c-2,0-3.4-1.4-3.4-3.5c0-2.1,1.4-3.6,3.6-3.6c0.7,0,1.4,0.2,1.7,0.4
				l-0.3,1c-0.3-0.2-0.8-0.3-1.4-0.3c-1.6,0-2.4,1.1-2.4,2.6c0,1.6,1,2.5,2.4,2.5c0.7,0,1.2-0.2,1.5-0.3L78.9,51.7z"/>
			<path class="st5" d="M80.4,42.1h1.2v4.2h0c0.2-0.4,0.5-0.7,0.9-0.9c0.4-0.2,0.8-0.3,1.3-0.3c0.9,0,2.4,0.6,2.4,2.9v4h-1.2v-3.9
				c0-1.1-0.4-2-1.6-2c-0.8,0-1.4,0.6-1.7,1.2c-0.1,0.2-0.1,0.4-0.1,0.6V52h-1.2V42.1z"/>
			<path class="st5" d="M89.5,43.3c0,0.4-0.3,0.8-0.8,0.8c-0.4,0-0.7-0.3-0.7-0.8c0-0.4,0.3-0.8,0.8-0.8
				C89.2,42.5,89.5,42.9,89.5,43.3z M88.1,52v-6.8h1.2V52H88.1z"/>
			<path class="st5" d="M91.4,42.1h1.2V52h-1.2V42.1z"/>
			<path class="st5" d="M100.6,42.1v8.2c0,0.6,0,1.3,0.1,1.8h-1.1l-0.1-1.2h0c-0.4,0.8-1.2,1.3-2.3,1.3c-1.6,0-2.9-1.4-2.9-3.4
				c0-2.3,1.4-3.6,3-3.6c1,0,1.7,0.5,2,1h0v-4H100.6z M99.3,48c0-0.2,0-0.4-0.1-0.5c-0.2-0.8-0.9-1.4-1.8-1.4c-1.3,0-2,1.1-2,2.6
				c0,1.4,0.7,2.5,2,2.5c0.8,0,1.6-0.5,1.8-1.5c0-0.2,0.1-0.3,0.1-0.5V48z"/>
			<path class="st5" d="M102.6,47.3c0-0.8,0-1.5-0.1-2.1h1.1l0,1.3h0.1c0.3-0.9,1.1-1.5,1.9-1.5c0.1,0,0.2,0,0.4,0v1.2
				c-0.1,0-0.3,0-0.4,0c-0.9,0-1.5,0.7-1.7,1.6c0,0.2-0.1,0.4-0.1,0.6V52h-1.2V47.3z"/>
			<path class="st5" d="M107.7,48.8c0,1.7,1.1,2.4,2.3,2.4c0.9,0,1.4-0.2,1.9-0.4l0.2,0.9c-0.4,0.2-1.2,0.4-2.3,0.4
				c-2.1,0-3.3-1.4-3.3-3.4c0-2,1.2-3.7,3.2-3.7c2.2,0,2.8,1.9,2.8,3.2c0,0.3,0,0.4,0,0.6H107.7z M111.4,48c0-0.8-0.3-2-1.7-2
				c-1.2,0-1.8,1.1-1.9,2H111.4z"/>
			<path class="st5" d="M114.1,47.1c0-0.7,0-1.3-0.1-1.8h1.1l0.1,1.1h0c0.3-0.6,1.1-1.3,2.2-1.3c0.9,0,2.4,0.6,2.4,2.9v4h-1.2v-3.9
				c0-1.1-0.4-2-1.6-2c-0.8,0-1.4,0.6-1.7,1.3c-0.1,0.2-0.1,0.4-0.1,0.6V52h-1.2V47.1z"/>
		</g>
	</g>
	<g transform="translate(50 430)">
		<g>
			<path class="st8" d="M20,0h160c11,0,20,9,20,20v30c0,11-9,20-20,20H20C9,70,0,61,0,50V20C0,9,9,0,20,0z"/>
		</g>
		<g class="st3">
			<path class="st5" d="M23.3,29.8c-0.6,0.5-1.1,0.8-1.7,1.1s-1.1,0.3-1.7,0.3c-1,0-1.8-0.2-2.4-0.8c-0.6-0.5-0.8-1.1-0.8-1.9
				c0-0.5,0.1-0.9,0.3-1.3c0.2-0.4,0.5-0.7,0.8-0.9s0.7-0.4,1.1-0.5c0.3-0.1,0.8-0.2,1.4-0.2c1.3-0.2,2.2-0.3,2.8-0.5
				c0-0.2,0-0.4,0-0.4c0-0.6-0.1-1.1-0.4-1.4c-0.4-0.4-1-0.5-1.8-0.5c-0.7,0-1.3,0.1-1.6,0.4s-0.6,0.7-0.8,1.4l-1.5-0.2
				c0.1-0.7,0.4-1.2,0.7-1.6c0.3-0.4,0.8-0.7,1.4-0.9c0.6-0.2,1.3-0.3,2.1-0.3c0.8,0,1.4,0.1,1.9,0.3s0.9,0.4,1.1,0.7
				c0.2,0.3,0.4,0.6,0.5,1.1c0.1,0.3,0.1,0.8,0.1,1.5v2.1c0,1.5,0,2.4,0.1,2.8c0.1,0.4,0.2,0.8,0.4,1.1h-1.7
				C23.4,30.7,23.3,30.3,23.3,29.8z M23.1,26.3c-0.6,0.2-1.4,0.4-2.6,0.6c-0.7,0.1-1.1,0.2-1.4,0.3s-0.5,0.3-0.6,0.5
				s-0.2,0.5-0.2,0.8c0,0.4,0.2,0.8,0.5,1.1s0.8,0.4,1.4,0.4c0.6,0,1.2-0.1,1.6-0.4s0.8-0.6,1-1.1c0.2-0.4,0.3-0.9,0.3-1.6V26.3z"/>
			<path class="st5" d="M26.5,28.2l1.6-0.2c0.1,0.6,0.3,1.1,0.7,1.4s1,0.5,1.7,0.5c0.7,0,1.3-0.1,1.6-0.4s0.5-0.6,0.5-1
				c0-0.4-0.2-0.6-0.5-0.8c-0.2-0.1-0.8-0.3-1.6-0.5c-1.2-0.3-2-0.5-2.4-0.8s-0.8-0.5-1-0.9c-0.2-0.4-0.3-0.8-0.3-1.3
				c0-0.4,0.1-0.8,0.3-1.2c0.2-0.4,0.4-0.6,0.8-0.9c0.2-0.2,0.6-0.3,1-0.5s0.9-0.2,1.4-0.2c0.7,0,1.4,0.1,1.9,0.3s1,0.5,1.2,0.9
				c0.3,0.4,0.4,0.8,0.5,1.4l-1.5,0.2c-0.1-0.5-0.3-0.9-0.6-1.1s-0.8-0.4-1.4-0.4c-0.7,0-1.2,0.1-1.6,0.4s-0.5,0.5-0.5,0.8
				c0,0.2,0.1,0.4,0.2,0.6c0.1,0.2,0.3,0.3,0.6,0.4c0.2,0.1,0.6,0.2,1.4,0.4c1.1,0.3,1.9,0.5,2.3,0.7s0.8,0.5,1,0.8s0.4,0.8,0.4,1.4
				c0,0.5-0.2,1-0.5,1.5c-0.3,0.5-0.8,0.8-1.3,1.1c-0.6,0.3-1.2,0.4-2,0.4c-1.2,0-2.1-0.3-2.8-0.8S26.7,29.2,26.5,28.2z"/>
			<path class="st5" d="M36.1,34.6l-0.2-1.5c0.3,0.1,0.6,0.1,0.9,0.1c0.4,0,0.6-0.1,0.8-0.2s0.4-0.3,0.5-0.5
				c0.1-0.2,0.3-0.6,0.5-1.2c0-0.1,0.1-0.2,0.1-0.4l-3.5-9.4H37l1.9,5.4c0.3,0.7,0.5,1.4,0.7,2.2c0.2-0.7,0.4-1.4,0.7-2.1l2-5.4h1.6
				l-3.6,9.5c-0.4,1-0.7,1.7-0.9,2.1c-0.3,0.5-0.6,0.9-1,1.1c-0.4,0.2-0.8,0.4-1.3,0.4C36.8,34.8,36.5,34.7,36.1,34.6z"/>
			<path class="st5" d="M45.2,31v-9.3h1.4V23c0.7-1,1.7-1.5,3-1.5c0.6,0,1.1,0.1,1.6,0.3c0.5,0.2,0.8,0.5,1.1,0.8s0.4,0.7,0.5,1.2
				c0.1,0.3,0.1,0.8,0.1,1.5V31h-1.6v-5.7c0-0.6-0.1-1.1-0.2-1.4s-0.3-0.6-0.7-0.8c-0.3-0.2-0.7-0.3-1.1-0.3c-0.7,0-1.3,0.2-1.7,0.6
				s-0.7,1.2-0.7,2.4V31H45.2z"/>
			<path class="st5" d="M61.3,27.6l1.6,0.2c-0.2,1.1-0.6,1.9-1.3,2.5c-0.7,0.6-1.6,0.9-2.6,0.9c-1.3,0-2.3-0.4-3.1-1.3
				c-0.8-0.8-1.2-2-1.2-3.6c0-1,0.2-1.9,0.5-2.6s0.8-1.3,1.5-1.7c0.7-0.4,1.4-0.6,2.2-0.6c1,0,1.8,0.3,2.5,0.8s1.1,1.2,1.2,2.2
				l-1.5,0.2c-0.1-0.6-0.4-1.1-0.8-1.4s-0.8-0.5-1.3-0.5c-0.8,0-1.4,0.3-1.9,0.9c-0.5,0.6-0.7,1.5-0.7,2.7c0,1.3,0.2,2.2,0.7,2.7
				s1.1,0.9,1.9,0.9c0.6,0,1.1-0.2,1.6-0.6S61.2,28.4,61.3,27.6z"/>
			<path class="st5" d="M64.4,31V18.1h4.4c1,0,1.8,0.1,2.3,0.2c0.7,0.2,1.4,0.5,1.9,0.9c0.7,0.6,1.2,1.3,1.5,2.2
				c0.3,0.9,0.5,1.9,0.5,3.1c0,1-0.1,1.8-0.3,2.6s-0.5,1.4-0.9,1.9c-0.4,0.5-0.7,0.9-1.2,1.2s-0.9,0.5-1.5,0.6S69.8,31,69,31H64.4z
				 M66.1,29.5h2.8c0.8,0,1.5-0.1,2-0.2s0.9-0.4,1.2-0.7c0.4-0.4,0.7-0.9,0.9-1.6c0.2-0.7,0.3-1.5,0.3-2.5c0-1.3-0.2-2.4-0.7-3.1
				c-0.4-0.7-1-1.2-1.6-1.5c-0.5-0.2-1.2-0.3-2.2-0.3h-2.7V29.5z"/>
			<path class="st5" d="M83.3,29.8c-0.6,0.5-1.1,0.8-1.7,1.1s-1.1,0.3-1.7,0.3c-1,0-1.8-0.2-2.4-0.8c-0.6-0.5-0.8-1.1-0.8-1.9
				c0-0.5,0.1-0.9,0.3-1.3c0.2-0.4,0.5-0.7,0.8-0.9s0.7-0.4,1.1-0.5c0.3-0.1,0.8-0.2,1.4-0.2c1.3-0.2,2.2-0.3,2.8-0.5
				c0-0.2,0-0.4,0-0.4c0-0.6-0.1-1.1-0.4-1.4c-0.4-0.4-1-0.5-1.8-0.5c-0.7,0-1.3,0.1-1.6,0.4s-0.6,0.7-0.8,1.4l-1.5-0.2
				c0.1-0.7,0.4-1.2,0.7-1.6c0.3-0.4,0.8-0.7,1.4-0.9c0.6-0.2,1.3-0.3,2.1-0.3c0.8,0,1.4,0.1,1.9,0.3s0.9,0.4,1.1,0.7
				c0.2,0.3,0.4,0.6,0.5,1.1c0.1,0.3,0.1,0.8,0.1,1.5v2.1c0,1.5,0,2.4,0.1,2.8c0.1,0.4,0.2,0.8,0.4,1.1h-1.7
				C83.4,30.7,83.3,30.3,83.3,29.8z M83.1,26.3c-0.6,0.2-1.4,0.4-2.6,0.6c-0.7,0.1-1.1,0.2-1.4,0.3s-0.5,0.3-0.6,0.5
				s-0.2,0.5-0.2,0.8c0,0.4,0.2,0.8,0.5,1.1s0.8,0.4,1.4,0.4c0.6,0,1.2-0.1,1.6-0.4s0.8-0.6,1-1.1c0.2-0.4,0.3-0.9,0.3-1.6V26.3z"/>
			<path class="st5" d="M90.6,29.6l0.2,1.4c-0.4,0.1-0.8,0.1-1.2,0.1c-0.6,0-1-0.1-1.3-0.3s-0.5-0.4-0.7-0.7s-0.2-0.9-0.2-1.9v-5.4
				h-1.2v-1.2h1.2v-2.3l1.6-0.9v3.3h1.6v1.2h-1.6v5.5c0,0.5,0,0.7,0.1,0.9s0.1,0.2,0.3,0.3s0.3,0.1,0.5,0.1
				C90.1,29.6,90.4,29.6,90.6,29.6z"/>
			<path class="st5" d="M98.3,29.8c-0.6,0.5-1.1,0.8-1.7,1.1s-1.1,0.3-1.7,0.3c-1,0-1.8-0.2-2.4-0.8c-0.6-0.5-0.8-1.1-0.8-1.9
				c0-0.5,0.1-0.9,0.3-1.3c0.2-0.4,0.5-0.7,0.8-0.9s0.7-0.4,1.1-0.5c0.3-0.1,0.8-0.2,1.4-0.2c1.3-0.2,2.2-0.3,2.8-0.5
				c0-0.2,0-0.4,0-0.4c0-0.6-0.1-1.1-0.4-1.4c-0.4-0.4-1-0.5-1.8-0.5c-0.7,0-1.3,0.1-1.6,0.4s-0.6,0.7-0.8,1.4l-1.5-0.2
				c0.1-0.7,0.4-1.2,0.7-1.6c0.3-0.4,0.8-0.7,1.4-0.9c0.6-0.2,1.3-0.3,2.1-0.3c0.8,0,1.4,0.1,1.9,0.3s0.9,0.4,1.1,0.7
				c0.2,0.3,0.4,0.6,0.5,1.1c0.1,0.3,0.1,0.8,0.1,1.5v2.1c0,1.5,0,2.4,0.1,2.8c0.1,0.4,0.2,0.8,0.4,1.1h-1.7
				C98.4,30.7,98.3,30.3,98.3,29.8z M98.2,26.3c-0.6,0.2-1.4,0.4-2.6,0.6c-0.7,0.1-1.1,0.2-1.4,0.3s-0.5,0.3-0.6,0.5
				s-0.2,0.5-0.2,0.8c0,0.4,0.2,0.8,0.5,1.1s0.8,0.4,1.4,0.4c0.6,0,1.2-0.1,1.6-0.4s0.8-0.6,1-1.1c0.2-0.4,0.3-0.9,0.3-1.6V26.3z"/>
			<path class="st5" d="M105.2,34.8c-0.9-1.1-1.6-2.4-2.2-3.9s-0.9-3-0.9-4.6c0-1.4,0.2-2.7,0.7-4c0.5-1.5,1.3-3,2.4-4.4h1.1
				c-0.7,1.2-1.2,2.1-1.4,2.6c-0.4,0.8-0.6,1.7-0.8,2.5c-0.3,1.1-0.4,2.2-0.4,3.3c0,2.8,0.9,5.6,2.6,8.4H105.2z"/>
			<path class="st5" d="M109.2,34.8h-1.1c1.8-2.8,2.6-5.6,2.6-8.4c0-1.1-0.1-2.2-0.4-3.3c-0.2-0.9-0.5-1.7-0.8-2.5
				c-0.2-0.5-0.7-1.4-1.4-2.6h1.1c1.1,1.5,1.9,2.9,2.4,4.4c0.5,1.3,0.7,2.6,0.7,4c0,1.6-0.3,3.1-0.9,4.6S110.1,33.7,109.2,34.8z"/>
			<path class="st5" d="M126.6,29.5c-0.5,0.6-1.1,1-1.7,1.3c-0.6,0.3-1.3,0.4-2,0.4c-1.3,0-2.4-0.4-3.1-1.3
				c-0.6-0.7-0.9-1.5-0.9-2.4c0-0.8,0.3-1.5,0.8-2.2c0.5-0.6,1.3-1.2,2.3-1.7c-0.6-0.7-1-1.2-1.2-1.6s-0.3-0.8-0.3-1.2
				c0-0.8,0.3-1.4,0.9-2c0.6-0.6,1.4-0.9,2.3-0.9c0.9,0,1.6,0.3,2.2,0.8s0.8,1.2,0.8,1.9c0,1.2-0.8,2.3-2.4,3.1l2.3,2.9
				c0.3-0.5,0.5-1.1,0.6-1.8l1.6,0.4c-0.3,1.1-0.7,2.1-1.1,2.8c0.6,0.8,1.3,1.4,2,2l-1.1,1.3C127.9,30.9,127.2,30.3,126.6,29.5z
				 M125.6,28.2l-2.9-3.6c-0.9,0.5-1.4,1-1.7,1.4s-0.4,0.9-0.4,1.3c0,0.5,0.2,1.1,0.6,1.6s1,0.8,1.8,0.8c0.5,0,1-0.1,1.5-0.4
				S125.3,28.7,125.6,28.2z M123.3,22.8c0.7-0.4,1.1-0.8,1.3-1.1s0.3-0.6,0.3-1c0-0.4-0.1-0.8-0.4-1.1c-0.3-0.3-0.6-0.4-1-0.4
				c-0.4,0-0.8,0.1-1.1,0.4s-0.4,0.6-0.4,1c0,0.2,0.1,0.4,0.2,0.6c0.1,0.2,0.3,0.5,0.5,0.7L123.3,22.8z"/>
			<path class="st5" d="M136.6,31v-8.1h-1.4v-1.2h1.4v-1c0-0.6,0.1-1.1,0.2-1.4c0.2-0.4,0.4-0.7,0.8-1c0.4-0.3,0.9-0.4,1.6-0.4
				c0.4,0,0.9,0.1,1.5,0.2l-0.2,1.4c-0.3-0.1-0.6-0.1-0.9-0.1c-0.5,0-0.8,0.1-1,0.3s-0.3,0.6-0.3,1.2v0.9h1.8v1.2h-1.8V31H136.6z"/>
			<path class="st5" d="M147.6,28l1.6,0.2c-0.3,1-0.7,1.7-1.4,2.2s-1.6,0.8-2.7,0.8c-1.4,0-2.4-0.4-3.2-1.3c-0.8-0.8-1.2-2-1.2-3.5
				c0-1.6,0.4-2.8,1.2-3.7s1.9-1.3,3.1-1.3c1.2,0,2.3,0.4,3.1,1.3s1.2,2,1.2,3.6c0,0.1,0,0.2,0,0.4h-7c0.1,1,0.3,1.8,0.9,2.4
				s1.2,0.8,2,0.8c0.6,0,1.1-0.2,1.5-0.5S147.4,28.7,147.6,28z M142.4,25.4h5.2c-0.1-0.8-0.3-1.4-0.6-1.8c-0.5-0.6-1.2-0.9-2-0.9
				c-0.7,0-1.3,0.2-1.8,0.7S142.4,24.6,142.4,25.4z"/>
			<path class="st5" d="M154.7,29.6l0.2,1.4c-0.4,0.1-0.8,0.1-1.2,0.1c-0.6,0-1-0.1-1.3-0.3s-0.5-0.4-0.7-0.7s-0.2-0.9-0.2-1.9v-5.4
				h-1.2v-1.2h1.2v-2.3l1.6-0.9v3.3h1.6v1.2h-1.6v5.5c0,0.5,0,0.7,0.1,0.9s0.1,0.2,0.3,0.3s0.3,0.1,0.5,0.1
				C154.1,29.6,154.4,29.6,154.7,29.6z"/>
			<path class="st5" d="M162.3,27.6l1.6,0.2c-0.2,1.1-0.6,1.9-1.3,2.5c-0.7,0.6-1.6,0.9-2.6,0.9c-1.3,0-2.3-0.4-3.1-1.3
				c-0.8-0.8-1.2-2-1.2-3.6c0-1,0.2-1.9,0.5-2.6s0.8-1.3,1.5-1.7c0.7-0.4,1.4-0.6,2.2-0.6c1,0,1.8,0.3,2.5,0.8s1.1,1.2,1.2,2.2
				l-1.5,0.2c-0.1-0.6-0.4-1.1-0.8-1.4s-0.8-0.5-1.3-0.5c-0.8,0-1.4,0.3-1.9,0.9c-0.5,0.6-0.7,1.5-0.7,2.7c0,1.3,0.2,2.2,0.7,2.7
				s1.1,0.9,1.9,0.9c0.6,0,1.1-0.2,1.6-0.6S162.2,28.4,162.3,27.6z"/>
			<path class="st5" d="M165.2,31V18.1h1.6v4.6c0.7-0.9,1.7-1.3,2.8-1.3c0.7,0,1.3,0.1,1.8,0.4c0.5,0.3,0.9,0.6,1.1,1.1
				s0.3,1.2,0.3,2.1V31h-1.6v-5.9c0-0.8-0.2-1.4-0.5-1.7c-0.3-0.4-0.8-0.5-1.5-0.5c-0.5,0-0.9,0.1-1.3,0.4c-0.4,0.2-0.7,0.6-0.9,1
				s-0.3,1-0.3,1.7V31H165.2z"/>
			<path class="st5" d="M178.2,34.8c-0.9-1.1-1.6-2.4-2.2-3.9s-0.9-3-0.9-4.6c0-1.4,0.2-2.7,0.7-4c0.5-1.5,1.3-3,2.4-4.4h1.1
				c-0.7,1.2-1.2,2.1-1.4,2.6c-0.4,0.8-0.6,1.7-0.8,2.5c-0.3,1.1-0.4,2.2-0.4,3.3c0,2.8,0.9,5.6,2.6,8.4H178.2z"/>
			<path class="st5" d="M182.3,34.8h-1.1c1.8-2.8,2.6-5.6,2.6-8.4c0-1.1-0.1-2.2-0.4-3.3c-0.2-0.9-0.5-1.7-0.8-2.5
				c-0.2-0.5-0.7-1.4-1.4-2.6h1.1c1.1,1.5,1.9,2.9,2.4,4.4c0.5,1.3,0.7,2.6,0.7,4c0,1.6-0.3,3.1-0.9,4.6
				C183.9,32.4,183.1,33.7,182.3,34.8z"/>
		</g>
		<g class="st3">
			<path class="st5" d="M23.7,42.7c0.6-0.1,1.4-0.2,2.3-0.2c1.2,0,2.1,0.3,2.6,0.8c0.5,0.4,0.8,1.1,0.8,2c0,0.9-0.3,1.5-0.7,2
				c-0.6,0.7-1.7,1-2.9,1c-0.4,0-0.7,0-1-0.1V52h-1.2V42.7z M24.9,47.2c0.3,0.1,0.6,0.1,1,0.1c1.5,0,2.4-0.7,2.4-2
				c0-1.2-0.9-1.8-2.2-1.8c-0.5,0-0.9,0-1.1,0.1V47.2z"/>
			<path class="st5" d="M34.5,52l-0.1-0.9h0c-0.4,0.5-1.1,1-2.1,1c-1.4,0-2.1-1-2.1-1.9c0-1.6,1.5-2.5,4.1-2.5v-0.1
				c0-0.6-0.2-1.6-1.5-1.6c-0.6,0-1.3,0.2-1.8,0.5l-0.3-0.8c0.6-0.4,1.4-0.6,2.2-0.6c2.1,0,2.6,1.4,2.6,2.8v2.5c0,0.6,0,1.2,0.1,1.6
				H34.5z M34.3,48.5c-1.3,0-2.9,0.2-2.9,1.5c0,0.8,0.5,1.2,1.2,1.2c0.9,0,1.4-0.6,1.6-1.1c0-0.1,0.1-0.3,0.1-0.4V48.5z"/>
			<path class="st5" d="M43.3,45.2c0,0.5-0.1,1-0.1,1.9V51c0,1.6-0.3,2.5-1,3.1c-0.7,0.6-1.6,0.8-2.5,0.8c-0.8,0-1.7-0.2-2.3-0.6
				l0.3-0.9c0.4,0.3,1.1,0.5,2,0.5c1.3,0,2.2-0.7,2.2-2.4v-0.8h0c-0.4,0.6-1.1,1.1-2.2,1.1c-1.7,0-2.9-1.4-2.9-3.3
				c0-2.3,1.5-3.6,3.1-3.6c1.2,0,1.8,0.6,2.1,1.2h0l0.1-1H43.3z M42,47.9c0-0.2,0-0.4-0.1-0.6c-0.2-0.7-0.8-1.3-1.7-1.3
				c-1.2,0-2,1-2,2.6c0,1.3,0.7,2.4,2,2.4c0.8,0,1.4-0.5,1.7-1.3c0.1-0.2,0.1-0.4,0.1-0.7V47.9z"/>
			<path class="st5" d="M46,48.8c0,1.7,1.1,2.4,2.3,2.4c0.9,0,1.4-0.2,1.9-0.4l0.2,0.9c-0.4,0.2-1.2,0.4-2.3,0.4
				c-2.1,0-3.3-1.4-3.3-3.4c0-2,1.2-3.7,3.2-3.7c2.2,0,2.8,1.9,2.8,3.2c0,0.3,0,0.4,0,0.6H46z M49.6,48c0-0.8-0.3-2-1.7-2
				c-1.2,0-1.8,1.1-1.9,2H49.6z"/>
			<path class="st5" d="M52.1,50.7c0.4,0.2,1,0.5,1.6,0.5c0.9,0,1.3-0.4,1.3-1c0-0.6-0.4-0.9-1.3-1.2c-1.2-0.4-1.8-1.1-1.8-1.9
				c0-1.1,0.9-2,2.3-2c0.7,0,1.3,0.2,1.7,0.4l-0.3,0.9C55.5,46.2,55,46,54.3,46c-0.7,0-1.1,0.4-1.1,0.9c0,0.6,0.4,0.8,1.3,1.1
				c1.2,0.4,1.8,1,1.8,2c0,1.2-0.9,2-2.5,2c-0.7,0-1.4-0.2-1.9-0.5L52.1,50.7z"/>
			<path class="st5" d="M67.7,52c-0.3-0.3-0.5-0.5-0.9-0.9c-0.8,0.8-1.7,1.1-2.8,1.1c-1.8,0-2.9-1.2-2.9-2.6c0-1.3,0.8-2.2,1.8-2.8
				v0c-0.5-0.6-0.8-1.3-0.8-2c0-1.1,0.8-2.3,2.4-2.3c1.2,0,2.1,0.8,2.1,2c0,1-0.6,1.8-2.1,2.5v0c0.8,0.9,1.7,2,2.3,2.6
				c0.4-0.7,0.7-1.6,0.9-2.8H69c-0.3,1.5-0.7,2.7-1.4,3.5c0.5,0.5,1,1.1,1.6,1.7H67.7z M66.2,50.4c-0.6-0.6-1.6-1.8-2.7-3
				c-0.5,0.3-1.2,0.9-1.2,1.9c0,1.1,0.8,1.9,1.9,1.9C65.1,51.2,65.8,50.9,66.2,50.4z M63.3,44.6c0,0.7,0.3,1.2,0.7,1.7
				c1-0.5,1.6-1,1.6-1.8c0-0.6-0.3-1.2-1.1-1.2C63.7,43.2,63.3,43.9,63.3,44.6z"/>
			<path class="st5" d="M78.9,51.7c-0.3,0.2-1,0.4-1.9,0.4c-2,0-3.4-1.4-3.4-3.5c0-2.1,1.4-3.6,3.6-3.6c0.7,0,1.4,0.2,1.7,0.4
				l-0.3,1c-0.3-0.2-0.8-0.3-1.4-0.3c-1.6,0-2.4,1.1-2.4,2.6c0,1.6,1,2.5,2.4,2.5c0.7,0,1.2-0.2,1.5-0.3L78.9,51.7z"/>
			<path class="st5" d="M80.4,42.1h1.2v4.2h0c0.2-0.4,0.5-0.7,0.9-0.9c0.4-0.2,0.8-0.3,1.3-0.3c0.9,0,2.4,0.6,2.4,2.9v4h-1.2v-3.9
				c0-1.1-0.4-2-1.6-2c-0.8,0-1.4,0.6-1.7,1.2c-0.1,0.2-0.1,0.4-0.1,0.6V52h-1.2V42.1z"/>
			<path class="st5" d="M89.5,43.3c0,0.4-0.3,0.8-0.8,0.8c-0.4,0-0.7-0.3-0.7-0.8c0-0.4,0.3-0.8,0.8-0.8
				C89.2,42.5,89.5,42.9,89.5,43.3z M88.1,52v-6.8h1.2V52H88.1z"/>
			<path class="st5" d="M91.4,42.1h1.2V52h-1.2V42.1z"/>
			<path class="st5" d="M100.6,42.1v8.2c0,0.6,0,1.3,0.1,1.8h-1.1l-0.1-1.2h0c-0.4,0.8-1.2,1.3-2.3,1.3c-1.6,0-2.9-1.4-2.9-3.4
				c0-2.3,1.4-3.6,3-3.6c1,0,1.7,0.5,2,1h0v-4H100.6z M99.3,48c0-0.2,0-0.4-0.1-0.5c-0.2-0.8-0.9-1.4-1.8-1.4c-1.3,0-2,1.1-2,2.6
				c0,1.4,0.7,2.5,2,2.5c0.8,0,1.6-0.5,1.8-1.5c0-0.2,0.1-0.3,0.1-0.5V48z"/>
			<path class="st5" d="M102.6,47.3c0-0.8,0-1.5-0.1-2.1h1.1l0,1.3h0.1c0.3-0.9,1.1-1.5,1.9-1.5c0.1,0,0.2,0,0.4,0v1.2
				c-0.1,0-0.3,0-0.4,0c-0.9,0-1.5,0.7-1.7,1.6c0,0.2-0.1,0.4-0.1,0.6V52h-1.2V47.3z"/>
			<path class="st5" d="M107.7,48.8c0,1.7,1.1,2.4,2.3,2.4c0.9,0,1.4-0.2,1.9-0.4l0.2,0.9c-0.4,0.2-1.2,0.4-2.3,0.4
				c-2.1,0-3.3-1.4-3.3-3.4c0-2,1.2-3.7,3.2-3.7c2.2,0,2.8,1.9,2.8,3.2c0,0.3,0,0.4,0,0.6H107.7z M111.4,48c0-0.8-0.3-2-1.7-2
				c-1.2,0-1.8,1.1-1.9,2H111.4z"/>
			<path class="st5" d="M114.1,47.1c0-0.7,0-1.3-0.1-1.8h1.1l0.1,1.1h0c0.3-0.6,1.1-1.3,2.2-1.3c0.9,0,2.4,0.6,2.4,2.9v4h-1.2v-3.9
				c0-1.1-0.4-2-1.6-2c-0.8,0-1.4,0.6-1.7,1.3c-0.1,0.2-0.1,0.4-0.1,0.6V52h-1.2V47.1z"/>
		</g>
	</g>
	<g transform="translate(50 530)">
		<g>
			<path class="st9" d="M179,50H21C9.4,50,0,40.6,0,29v-8C0,9.4,9.4,0,21,0h158c11.6,0,21,9.4,21,21v8C200,40.6,190.6,50,179,50z
				 M21,2C10.5,2,2,10.5,2,21v8c0,10.5,8.5,19,19,19h158c10.5,0,19-8.5,19-19v-8c0-10.5-8.5-19-19-19H21z"/>
		</g>
		<g class="st3">
			<path class="st9" d="M70.3,31V17.4h6c1.2,0,2.1,0.1,2.8,0.4c0.6,0.2,1.1,0.7,1.5,1.3c0.4,0.6,0.6,1.3,0.6,2c0,1-0.3,1.8-0.9,2.4
				c-0.6,0.7-1.6,1.1-2.9,1.3c0.5,0.2,0.8,0.5,1.1,0.7c0.5,0.5,1,1.1,1.5,1.8l2.4,3.7h-2.3l-1.8-2.8c-0.5-0.8-1-1.4-1.3-1.9
				c-0.3-0.4-0.6-0.7-0.9-0.9c-0.3-0.2-0.5-0.3-0.8-0.4c-0.2,0-0.5-0.1-1-0.1h-2.1v6H70.3z M72.1,23.4H76c0.8,0,1.5-0.1,1.9-0.3
				c0.5-0.2,0.8-0.4,1.1-0.8c0.2-0.4,0.4-0.8,0.4-1.2c0-0.6-0.2-1.2-0.7-1.6c-0.5-0.4-1.2-0.6-2.2-0.6h-4.3V23.4z"/>
			<path class="st9" d="M90.6,27.8l1.7,0.2c-0.3,1-0.8,1.8-1.5,2.3s-1.7,0.8-2.8,0.8c-1.4,0-2.6-0.4-3.4-1.3
				c-0.8-0.9-1.3-2.1-1.3-3.7c0-1.7,0.4-2.9,1.3-3.9s2-1.4,3.3-1.4c1.3,0,2.4,0.4,3.2,1.3c0.8,0.9,1.3,2.2,1.3,3.8
				c0,0.1,0,0.2,0,0.4H85c0.1,1.1,0.4,1.9,0.9,2.5c0.5,0.6,1.2,0.9,2.1,0.9c0.6,0,1.1-0.2,1.6-0.5S90.3,28.5,90.6,27.8z M85.1,25.1
				h5.5c-0.1-0.8-0.3-1.5-0.6-1.9c-0.5-0.6-1.2-1-2.1-1c-0.8,0-1.4,0.3-1.9,0.8C85.4,23.6,85.1,24.3,85.1,25.1z"/>
			<path class="st9" d="M94.4,31v-9.9h1.5v1.4c0.7-1.1,1.8-1.6,3.1-1.6c0.6,0,1.1,0.1,1.6,0.3c0.5,0.2,0.9,0.5,1.1,0.8
				c0.2,0.3,0.4,0.8,0.5,1.2c0.1,0.3,0.1,0.9,0.1,1.6V31h-1.7v-6c0-0.7-0.1-1.2-0.2-1.5c-0.1-0.3-0.4-0.6-0.7-0.8s-0.7-0.3-1.2-0.3
				c-0.7,0-1.3,0.2-1.8,0.7c-0.5,0.5-0.8,1.3-0.8,2.6V31H94.4z"/>
			<path class="st9" d="M111.3,31v-1.2c-0.6,1-1.5,1.5-2.8,1.5c-0.8,0-1.5-0.2-2.2-0.6c-0.7-0.4-1.2-1-1.5-1.8
				c-0.4-0.8-0.5-1.7-0.5-2.7c0-1,0.2-1.9,0.5-2.7c0.3-0.8,0.8-1.4,1.5-1.8c0.7-0.4,1.4-0.6,2.2-0.6c0.6,0,1.1,0.1,1.6,0.4
				c0.5,0.2,0.8,0.6,1.1,1v-4.9h1.7V31H111.3z M106.1,26.1c0,1.3,0.3,2.2,0.8,2.8c0.5,0.6,1.2,0.9,1.9,0.9c0.7,0,1.3-0.3,1.9-0.9
				c0.5-0.6,0.8-1.5,0.8-2.7c0-1.3-0.3-2.3-0.8-3s-1.2-0.9-1.9-0.9c-0.7,0-1.4,0.3-1.9,0.9C106.3,23.8,106.1,24.8,106.1,26.1z"/>
			<path class="st9" d="M122.3,27.8L124,28c-0.3,1-0.8,1.8-1.5,2.3c-0.7,0.6-1.7,0.8-2.8,0.8c-1.4,0-2.6-0.4-3.4-1.3
				c-0.8-0.9-1.3-2.1-1.3-3.7c0-1.7,0.4-2.9,1.3-3.9s2-1.4,3.3-1.4c1.3,0,2.4,0.4,3.2,1.3c0.8,0.9,1.3,2.2,1.3,3.8
				c0,0.1,0,0.2,0,0.4h-7.3c0.1,1.1,0.4,1.9,0.9,2.5c0.6,0.6,1.2,0.9,2.1,0.9c0.6,0,1.1-0.2,1.6-0.5C121.7,29,122,28.5,122.3,27.8z
				 M116.8,25.1h5.5c-0.1-0.8-0.3-1.5-0.6-1.9c-0.5-0.6-1.2-1-2.1-1c-0.8,0-1.4,0.3-1.9,0.8C117.1,23.6,116.8,24.3,116.8,25.1z"/>
			<path class="st9" d="M126.1,31v-9.9h1.5v1.5c0.4-0.7,0.7-1.2,1.1-1.4c0.3-0.2,0.7-0.3,1.1-0.3c0.6,0,1.1,0.2,1.7,0.5l-0.6,1.5
				c-0.4-0.2-0.8-0.4-1.2-0.4c-0.4,0-0.7,0.1-1,0.3c-0.3,0.2-0.5,0.5-0.6,0.9c-0.2,0.6-0.3,1.2-0.3,1.9V31H126.1z"/>
		</g>
	</g>
	<g transform="translate(301 372)">
		<g>
			<path class="st0" d="M109,60H21C9.4,60,0,50.6,0,39V21C0,9.4,9.4,0,21,0h88c11.6,0,21,9.4,21,21v18C130,50.6,120.6,60,109,60z
				 M21,2C10.5,2,2,10.5,2,21v18c0,10.5,8.5,19,19,19h88c10.5,0,19-8.5,19-19V21c0-10.5-8.5-19-19-19H21z"/>
		</g>
		<g class="st3">
			<path class="st0" d="M32.7,28V15.8h1.7l6.4,9.6v-9.6h1.5V28h-1.7l-6.4-9.6V28H32.7z"/>
			<path class="st0" d="M50.6,26.9c-0.6,0.5-1.1,0.8-1.6,1c-0.5,0.2-1.1,0.3-1.6,0.3c-1,0-1.7-0.2-2.2-0.7c-0.5-0.5-0.8-1.1-0.8-1.8
				c0-0.4,0.1-0.8,0.3-1.2c0.2-0.4,0.5-0.6,0.8-0.9s0.7-0.4,1.1-0.5c0.3-0.1,0.7-0.2,1.3-0.2c1.2-0.1,2.1-0.3,2.7-0.5
				c0-0.2,0-0.3,0-0.4c0-0.6-0.1-1-0.4-1.3c-0.4-0.3-0.9-0.5-1.7-0.5c-0.7,0-1.2,0.1-1.6,0.4s-0.6,0.7-0.7,1.3l-1.5-0.2
				c0.1-0.6,0.4-1.1,0.7-1.5c0.3-0.4,0.7-0.7,1.3-0.9c0.6-0.2,1.2-0.3,2-0.3c0.8,0,1.4,0.1,1.8,0.3c0.5,0.2,0.8,0.4,1,0.7
				c0.2,0.3,0.4,0.6,0.5,1c0,0.3,0.1,0.7,0.1,1.4v2c0,1.4,0,2.3,0.1,2.6s0.2,0.7,0.4,1.1h-1.6C50.7,27.7,50.6,27.3,50.6,26.9z
				 M50.5,23.6c-0.5,0.2-1.4,0.4-2.4,0.6c-0.6,0.1-1,0.2-1.3,0.3c-0.3,0.1-0.5,0.3-0.6,0.5c-0.1,0.2-0.2,0.4-0.2,0.7
				c0,0.4,0.2,0.7,0.5,1s0.7,0.4,1.3,0.4c0.6,0,1.1-0.1,1.5-0.4s0.8-0.6,1-1c0.2-0.3,0.2-0.8,0.2-1.5V23.6z"/>
			<path class="st0" d="M56.8,28l-3.4-8.8H55l1.9,5.3c0.2,0.6,0.4,1.2,0.6,1.8c0.1-0.5,0.3-1,0.6-1.7l2-5.4h1.5L58.1,28H56.8z"/>
			<path class="st0" d="M62.8,17.5v-1.7h1.5v1.7H62.8z M62.8,28v-8.8h1.5V28H62.8z"/>
			<path class="st0" d="M66.3,28.7l1.5,0.2c0.1,0.4,0.2,0.8,0.5,1c0.4,0.3,0.9,0.4,1.5,0.4c0.7,0,1.2-0.1,1.6-0.4
				c0.4-0.3,0.6-0.7,0.8-1.2c0.1-0.3,0.1-0.9,0.1-1.9c-0.7,0.8-1.5,1.2-2.4,1.2c-1.2,0-2.1-0.4-2.8-1.3s-1-1.9-1-3.1
				c0-0.8,0.2-1.6,0.5-2.3c0.3-0.7,0.7-1.3,1.3-1.6s1.3-0.6,2-0.6c1,0,1.9,0.4,2.6,1.3v-1.1h1.4v7.6c0,1.4-0.1,2.3-0.4,2.9
				c-0.3,0.6-0.7,1-1.3,1.4c-0.6,0.3-1.4,0.5-2.2,0.5c-1.1,0-1.9-0.2-2.5-0.7C66.6,30.4,66.3,29.7,66.3,28.7z M67.5,23.4
				c0,1.2,0.2,2,0.7,2.5c0.5,0.5,1,0.8,1.7,0.8c0.7,0,1.3-0.3,1.7-0.8s0.7-1.4,0.7-2.5c0-1.1-0.2-1.9-0.7-2.4
				c-0.5-0.5-1.1-0.8-1.7-0.8c-0.7,0-1.2,0.3-1.7,0.8C67.8,21.6,67.5,22.4,67.5,23.4z"/>
			<path class="st0" d="M81.8,26.9c-0.6,0.5-1.1,0.8-1.6,1c-0.5,0.2-1.1,0.3-1.6,0.3c-1,0-1.7-0.2-2.2-0.7c-0.5-0.5-0.8-1.1-0.8-1.8
				c0-0.4,0.1-0.8,0.3-1.2c0.2-0.4,0.5-0.6,0.8-0.9c0.3-0.2,0.7-0.4,1.1-0.5c0.3-0.1,0.7-0.2,1.3-0.2c1.2-0.1,2.1-0.3,2.7-0.5
				c0-0.2,0-0.3,0-0.4c0-0.6-0.1-1-0.4-1.3c-0.4-0.3-0.9-0.5-1.7-0.5c-0.7,0-1.2,0.1-1.6,0.4c-0.3,0.2-0.6,0.7-0.7,1.3l-1.5-0.2
				c0.1-0.6,0.4-1.1,0.7-1.5c0.3-0.4,0.7-0.7,1.3-0.9c0.6-0.2,1.2-0.3,2-0.3c0.8,0,1.4,0.1,1.8,0.3c0.5,0.2,0.8,0.4,1,0.7
				c0.2,0.3,0.4,0.6,0.5,1c0,0.3,0.1,0.7,0.1,1.4v2c0,1.4,0,2.3,0.1,2.6c0.1,0.4,0.2,0.7,0.4,1.1h-1.6
				C81.9,27.7,81.8,27.3,81.8,26.9z M81.7,23.6c-0.5,0.2-1.4,0.4-2.4,0.6c-0.6,0.1-1,0.2-1.3,0.3c-0.3,0.1-0.5,0.3-0.6,0.5
				c-0.1,0.2-0.2,0.4-0.2,0.7c0,0.4,0.2,0.7,0.5,1c0.3,0.3,0.7,0.4,1.3,0.4c0.6,0,1.1-0.1,1.5-0.4s0.8-0.6,1-1
				c0.2-0.3,0.2-0.8,0.2-1.5V23.6z"/>
			<path class="st0" d="M88.8,26.7L89,28c-0.4,0.1-0.8,0.1-1.1,0.1c-0.5,0-1-0.1-1.3-0.3c-0.3-0.2-0.5-0.4-0.6-0.7
				c-0.1-0.3-0.2-0.9-0.2-1.8v-5.1h-1.1v-1.2h1.1V17l1.5-0.9v3.1h1.5v1.2h-1.5v5.2c0,0.4,0,0.7,0.1,0.8s0.1,0.2,0.3,0.3
				c0.1,0.1,0.3,0.1,0.5,0.1C88.3,26.7,88.5,26.7,88.8,26.7z"/>
			<path class="st0" d="M96.2,25.2l1.5,0.2c-0.2,0.9-0.7,1.6-1.4,2.1c-0.7,0.5-1.5,0.7-2.5,0.7c-1.3,0-2.3-0.4-3.1-1.2
				c-0.8-0.8-1.1-1.9-1.1-3.3c0-1.5,0.4-2.6,1.1-3.5s1.8-1.2,3-1.2c1.2,0,2.1,0.4,2.9,1.2c0.7,0.8,1.1,1.9,1.1,3.4
				c0,0.1,0,0.2,0,0.4h-6.6c0.1,1,0.3,1.7,0.8,2.2c0.5,0.5,1.1,0.8,1.8,0.8c0.5,0,1-0.1,1.4-0.4C95.7,26.3,96,25.8,96.2,25.2z
				 M91.3,22.7h4.9c-0.1-0.7-0.3-1.3-0.6-1.7c-0.5-0.6-1.1-0.9-1.9-0.9c-0.7,0-1.3,0.2-1.7,0.7C91.7,21.4,91.4,22,91.3,22.7z"/>
		</g>
		<g class="st3">
			<path class="st0" d="M14.6,41.6v-0.5l5.4-2.4v0.7l-4.5,1.9l4.5,1.9v0.7L14.6,41.6z"/>
			<path class="st0" d="M21.8,45v-5.8h-1v-0.9h1v-0.3c0-1,0.2-1.8,0.8-2.4c0.5-0.4,1.1-0.6,1.7-0.6c0.4,0,0.8,0.1,1.1,0.2l-0.2,1
				c-0.2-0.1-0.4-0.2-0.8-0.2c-1.1,0-1.3,0.9-1.3,2v0.4h1.6v0.9H23V45H21.8z"/>
			<path class="st0" d="M29.5,45l-0.1-0.9h0c-0.4,0.5-1.1,1-2.1,1c-1.4,0-2.1-1-2.1-1.9c0-1.6,1.5-2.5,4.1-2.5v-0.1
				c0-0.6-0.2-1.6-1.5-1.6c-0.6,0-1.3,0.2-1.8,0.5l-0.3-0.8c0.6-0.4,1.4-0.6,2.2-0.6c2.1,0,2.6,1.4,2.6,2.8v2.5c0,0.6,0,1.2,0.1,1.6
				H29.5z M29.4,41.5c-1.3,0-2.9,0.2-2.9,1.5c0,0.8,0.5,1.2,1.2,1.2c0.9,0,1.4-0.6,1.6-1.1c0-0.1,0.1-0.3,0.1-0.4V41.5z"/>
			<path class="st0" d="M37.4,44.7c-0.3,0.2-1,0.4-1.9,0.4c-2,0-3.4-1.4-3.4-3.5c0-2.1,1.4-3.6,3.6-3.6c0.7,0,1.4,0.2,1.7,0.4
				l-0.3,1c-0.3-0.2-0.8-0.3-1.4-0.3c-1.6,0-2.4,1.1-2.4,2.6c0,1.6,1,2.5,2.4,2.5c0.7,0,1.2-0.2,1.5-0.3L37.4,44.7z"/>
			<path class="st0" d="M40.5,36.3v1.9h1.8v0.9h-1.8v3.7c0,0.8,0.2,1.3,0.9,1.3c0.3,0,0.6,0,0.7-0.1l0.1,0.9
				c-0.2,0.1-0.6,0.2-1.1,0.2c-0.6,0-1-0.2-1.3-0.5c-0.3-0.4-0.5-1-0.5-1.8v-3.7h-1.1v-0.9h1.1v-1.6L40.5,36.3z"/>
			<path class="st0" d="M49.7,41.6c0,2.5-1.7,3.6-3.4,3.6c-1.8,0-3.2-1.3-3.2-3.5c0-2.3,1.5-3.6,3.4-3.6
				C48.3,38.1,49.7,39.5,49.7,41.6z M44.3,41.6c0,1.5,0.9,2.6,2.1,2.6c1.2,0,2.1-1.1,2.1-2.6c0-1.1-0.6-2.6-2-2.6
				C44.9,39,44.3,40.3,44.3,41.6z"/>
			<path class="st0" d="M51.2,40.3c0-0.8,0-1.5-0.1-2.1h1.1l0,1.3h0.1c0.3-0.9,1.1-1.5,1.9-1.5c0.1,0,0.2,0,0.3,0v1.2
				c-0.1,0-0.3,0-0.4,0c-0.9,0-1.5,0.7-1.7,1.6c0,0.2-0.1,0.4-0.1,0.6V45h-1.2V40.3z"/>
			<path class="st0" d="M58.9,40.9v0.9h-3.7v-0.9H58.9z"/>
			<path class="st0" d="M60.5,35.1h1.2V45h-1.2V35.1z"/>
			<path class="st0" d="M65.1,36.3c0,0.4-0.3,0.8-0.8,0.8c-0.4,0-0.7-0.3-0.7-0.8c0-0.4,0.3-0.8,0.8-0.8
				C64.8,35.5,65.1,35.9,65.1,36.3z M63.8,45v-6.8H65V45H63.8z"/>
			<path class="st0" d="M67,40.1c0-0.7,0-1.3-0.1-1.8h1.1l0.1,1.1h0c0.3-0.6,1.1-1.3,2.2-1.3c0.9,0,2.4,0.6,2.4,2.9v4h-1.2v-3.9
				c0-1.1-0.4-2-1.6-2c-0.8,0-1.4,0.6-1.7,1.3c-0.1,0.2-0.1,0.4-0.1,0.6V45H67V40.1z"/>
			<path class="st0" d="M76,41.3L76,41.3c0.2-0.2,0.4-0.5,0.6-0.8l2-2.3h1.5L77.5,41l3,4H79l-2.3-3.2L76,42.5V45h-1.2v-9.9H76V41.3z
				"/>
			<path class="st0" d="M86.5,41.1v0.5l-5.4,2.3v-0.7l4.5-1.9l-4.5-1.9v-0.7L86.5,41.1z"/>
		</g>
	</g>
</g>
</svg>
