<svg xmlns="http://www.w3.org/2000/svg" x="0" y="0" version="1.1" viewBox="0 0 59.3 59.3" xml:space="preserve">
  <style type="text/css">
    .st0{fill:#506677}
  </style>
  <path d="M18.7 41.7l.3-.3 8.3-8.3c.2-.2.3-.2.5-.2.8.3 1.7-.1 2.2-.9.4-.8.3-1.7-.3-2.3-.6-.6-1.6-.7-2.3-.3-.8.4-1.1 1.3-.9 2.2.1.2.1.3-.1.5-2.9 2.8-5.7 5.7-8.6 8.6-.4-.4-.9-.9-1.4-1.3.5-1.1 1.1-2.3 1.7-3.6 1.7-3.7 3.5-7.3 5.2-11 .1-.3.3-.4.6-.5 2.7-1 5.5-2 8.2-2.9.3-.1.4-.1.6.1 1.7 1.8 3.5 3.5 5.3 5.3.2.2.2.3.1.5l-3 8.4c-.1.1-.2.3-.4.4-4.8 2.3-9.7 4.6-14.5 6.9-.1 0-.2 0-.4-.2-.3-.4-.7-.7-1.1-1.1zM35.7 14.9c.5 0 .9.2 1.2.6l5.3 5.3 1.8 1.8c.7.7.7 1.6 0 2.3l-1.6 1.6c-.7.7-1.6.7-2.3 0-2.4-2.4-4.8-4.7-7.1-7.1-.7-.7-.7-1.6 0-2.3l1.6-1.6c.3-.4.6-.6 1.1-.6zM43.1 18.5l-2.4-2.4c-.8-.8-.8-2.1 0-2.8l9.4-9.4c.8-.8 2.1-.8 2.8 0l2.4 2.4c.8.8.8 2.1 0 2.8l-9.4 9.4c-.8.8-2.1.8-2.8 0z" class="st0"/>
  <path d="M49.5 22.9v26c0 .5-.4.9-1 .9H10.8c-.5 0-1-.4-1-.9V10.4c0-.5.4-.9 1-.9h26l4.9-4.9H10.8c-3.4 0-6.2 2.6-6.2 5.8v38.4c0 3.2 2.8 5.8 6.2 5.8h37.6c3.4 0 6.2-2.6 6.2-5.8V17.7l-5.1 5.2z" class="st0"/>
</svg>
