<svg width="200" height="200" viewBox="0 0 200 200" fill="none" xmlns="http://www.w3.org/2000/svg">
<rect width="200" height="200" fill="#182D45"/>
<circle cx="100" cy="56.25" r="20.3125" fill="#3C6DF6"/>
<circle cx="100" cy="56.25" r="9.375" fill="white"/>
<circle cx="54.6875" cy="128.125" r="20.3125" fill="#3C6DF6"/>
<circle cx="54.6875" cy="128.125" r="9.375" fill="white"/>
<circle cx="100" cy="128.125" r="20.3125" fill="#3C6DF6"/>
<circle cx="100" cy="128.125" r="9.375" fill="white"/>
<circle cx="145.312" cy="128.125" r="20.3125" fill="#3C6DF6"/>
<circle cx="145.312" cy="128.125" r="9.375" fill="white"/>
<path fill-rule="evenodd" clip-rule="evenodd" d="M96.875 128.906V56.25H103.125V128.906H96.875Z" fill="white"/>
<path fill-rule="evenodd" clip-rule="evenodd" d="M141.888 98.5503C141.182 98.4457 140.14 98.4375 138.281 98.4375H62.5C60.6069 98.4375 59.4585 98.4934 58.7028 98.6381C58.4341 98.6896 58.2819 98.74 58.2041 98.7724C58.1544 98.8887 58.0425 99.2149 57.9583 99.952C57.8356 101.025 57.8125 102.503 57.8125 104.688L57.8125 128.906H51.5625L51.5625 104.688C51.5625 102.575 51.5784 100.732 51.7487 99.2423C51.9158 97.7804 52.2752 96.1575 53.341 94.8252C54.4882 93.3913 56.0442 92.7836 57.5277 92.4996C58.9399 92.2292 60.6431 92.1875 62.5 92.1875L138.479 92.1875C140.065 92.1872 141.583 92.1869 142.804 92.3677C144.165 92.5693 145.785 93.0774 146.934 94.6094C147.939 95.9505 148.2 97.6083 148.317 99.0081C148.438 100.457 148.438 102.323 148.438 104.548V128.906H142.188V104.688C142.188 102.286 142.185 100.684 142.088 99.5271C142.049 99.0566 141.999 98.7506 141.959 98.5613C141.937 98.5577 141.913 98.554 141.888 98.5503ZM58.1353 98.808C58.1344 98.8076 58.141 98.8024 58.1581 98.7936C58.1448 98.8039 58.1362 98.8084 58.1353 98.808Z" fill="white"/>
</svg>
