<svg xmlns="http://www.w3.org/2000/svg" fill="none" viewBox="0 0 200 200">
  <defs/>
  <path fill="url(#paint0_linear)" d="M0 0h200v200H0z"/>
  <g filter="url(#filter0_d)">
    <path fill="#fff" fill-rule="evenodd" d="M126.87 90.95h-.04l-9.68 1.17-9.08 1.1-3.45 11.28 1.75-.21a16442.46 16442.46 0 0032.36-3.9l1.76-.21c-.18 1.87-.4 3.75-.6 5.63-.23 2.05-.46 4.11-.66 6.17-9.1 1.05-28.63 3.39-37.1 4.58l-.75.1-.2.72c-.95 3.35-1.95 6.64-2.95 9.94l-.03.09a481.96 481.96 0 00-2.98 10.03 23.04 23.04 0 01-22.18 16.77A23 23 0 0150 131.23c0-12.63 9.32-21.9 23.13-22.97h.02l.02-.01 9.74-1.17 9.16-1.11 3.29-11.26-1.73.2-23.25 2.78-9.14 1.1c.19-1.93.45-4.4.7-6.66.07-.76.15-1.5.23-2.18l.32-2.97c9-1.03 26.9-3.14 35.39-4.33l.74-.1.2-.73c.95-3.34 1.95-6.64 2.95-9.94l.03-.08c1.01-3.33 2.03-6.66 2.98-10.04A23.04 23.04 0 01126.96 45 23 23 0 01150 67.97c0 12.64-9.32 21.91-23.13 22.98zM111.8 79.48l-.46 1.67 1.71-.22c1.44-.19 3.09-.34 4.85-.5l.77-.08c2.04-.19 4.2-.4 6.24-.69 2.04-.3 4.02-.67 5.7-1.2 1.64-.53 3.16-1.26 4.13-2.34 4.41-4.93 4.65-11.9.2-16.34-4.43-4.42-12.35-4.5-17.22 1.04-.64.73-1.19 1.93-1.68 3.26-.5 1.36-1 3.02-1.48 4.77-.49 1.76-.96 3.65-1.42 5.48l-.04.13c-.45 1.79-.88 3.5-1.3 5.02zm-23.58 40.24l.46-1.66-1.71.22c-1.44.19-3.09.34-4.85.5l-.77.07c-2.04.2-4.2.4-6.24.7-2.04.29-4.02.67-5.7 1.2-1.64.53-3.16 1.25-4.13 2.33-4.41 4.94-4.65 11.9-.2 16.35 4.43 4.41 12.35 4.5 17.22-1.04.64-.73 1.19-1.94 1.68-3.26.5-1.37 1-3.02 1.48-4.78.49-1.76.96-3.64 1.42-5.47l.04-.14c.45-1.78.88-3.5 1.3-5.02z" clip-rule="evenodd"/>
  </g>
  <defs>
    <linearGradient id="paint0_linear" x1="100" x2="100" y1="0" y2="200" gradientUnits="userSpaceOnUse">
      <stop stop-color="#0496FF"/>
      <stop offset=".45" stop-color="#286BFF"/>
      <stop offset="1" stop-color="#5435FF"/>
    </linearGradient>
    <filter id="filter0_d" width="104" height="113.21" x="48" y="45" color-interpolation-filters="sRGB" filterUnits="userSpaceOnUse">
      <feFlood flood-opacity="0" result="BackgroundImageFix"/>
      <feColorMatrix in="SourceAlpha" values="0 0 0 0 0 0 0 0 0 0 0 0 0 0 0 0 0 0 127 0"/>
      <feOffset dy="2"/>
      <feGaussianBlur stdDeviation="1"/>
      <feColorMatrix values="0 0 0 0 0 0 0 0 0 0 0 0 0 0 0 0 0 0 0.15 0"/>
      <feBlend in2="BackgroundImageFix" result="effect1_dropShadow"/>
      <feBlend in="SourceGraphic" in2="effect1_dropShadow" result="shape"/>
    </filter>
  </defs>
</svg>
