<svg width="200" height="200" viewBox="0 0 200 200" fill="none" xmlns="http://www.w3.org/2000/svg">
<rect width="200" height="200" fill="#0471FF"/>
<path d="M136.206 155H86.4346C83.2076 155 80.1702 153.758 77.8923 151.501L39.9276 113.87C37.0802 111.048 36.207 106.795 37.7636 103.107C39.3201 99.3821 42.9268 96.9737 46.989 96.9737H93.4581V50.8762C93.4581 46.8497 95.8877 43.2748 99.6082 41.7319C103.291 40.2267 107.695 41.0922 110.504 43.8769L148.469 81.5074C150.747 83.803 152 86.7758 152 89.9742V139.308C152.038 147.963 144.938 155 136.206 155ZM88.5226 138.029H134.916V92.0441L110.58 67.9229V113.907H64.1871L88.5226 138.029Z" fill="white"/>
</svg>
