<?xml version="1.0" encoding="utf-8"?>
<svg version="1.1" id="Layer_1" xmlns="http://www.w3.org/2000/svg" xmlns:xlink="http://www.w3.org/1999/xlink" x="0px" y="0px"
	 viewBox="0 0 200 200" style="enable-background:new 0 0 200 200;" xml:space="preserve">
<style type="text/css">
	.st0{fill:#FFFFFF;}
	.st1{fill:#15192D;}
	.st2{fill:#FFFFFF;stroke:#EAECED;stroke-width:1.4565;}
	.st3{fill:none;stroke:#ADBACC;stroke-width:2.9131;stroke-opacity:0.2;}
	.st4{fill:#FFFFFF;stroke:#ADBACC;stroke-width:2.9131;stroke-opacity:0.2;}
	.st5{fill:#4D394B;fill-opacity:7.000000e-02;}
	.st6{fill:#F7F9FE;}
	.st7{fill:none;stroke:#ADBACC;stroke-width:1.4565;stroke-opacity:0.4;}
	.st8{fill:#506677;fill-opacity:0.15;}
	.st9{fill:#0477FE;}
	.st10{opacity:0.5;fill:#FFFFFF;fill-opacity:0.5;enable-background:new    ;}
	.st11{fill:#E5E8EB;}
	.st12{fill:#506677;}
	.st13{fill:#506677;fill-opacity:0.7;}
	.st14{fill:#0496FF;}
	.st15{fill:#FF0076;}
</style>
<path class="st0" d="M200,200H0c0,0,0-44.8,0-100v0C0,44.8,0,0,0,0h200c0,0,0,44.8,0,100v0C200,155.2,200,200,200,200z"/>
<rect x="-172.5" y="825" class="st1" width="1233" height="720"/>
<g>
	<path class="st2" d="M86.3,1060.5h750.7c2.4,0,4.5,0.7,6,1.8c1.5,1.1,2.4,2.6,2.4,4.2v440.7c0,1.6-0.9,3-2.4,4.2
		c-1.5,1.1-3.7,1.8-6,1.8H86.3c-2.4,0-4.5-0.7-6-1.8c-1.5-1.1-2.4-2.6-2.4-4.2v-440.7c0-1.6,0.9-3,2.4-4.2
		C81.8,1061.2,83.9,1060.5,86.3,1060.5z"/>
	<path class="st3" d="M837.1,1061.6H86.3c-4,0-7.3,2.4-7.3,5.4v439.7c0,3,3.3,5.4,7.3,5.4h750.7c4,0,7.3-2.4,7.3-5.4V1067
		C844.4,1064,841.1,1061.6,837.1,1061.6z"/>
	<path class="st4" d="M828.1,1112.9H285.7c-2.9,0-5.3,2-5.3,4.4v359.3c0,2.4,2.4,4.4,5.3,4.4h542.4c2.9,0,5.3-2,5.3-4.4v-359.3
		C833.4,1114.9,831,1112.9,828.1,1112.9z"/>
	<path class="st5" d="M260.3,1070.8H95.5c-4,0-7.3,2.3-7.3,5.2v416.2c0,2.9,3.3,5.2,7.3,5.2h164.8c4,0,7.3-2.3,7.3-5.2V1076
		C267.6,1073.1,264.3,1070.8,260.3,1070.8z"/>
	<path class="st6" d="M260.3,1072.6H95.5c-3,0-5.5,1.8-5.5,3.9v415.1c0,2.2,2.5,3.9,5.5,3.9h164.8c3,0,5.5-1.8,5.5-3.9v-415.1
		C265.8,1074.4,263.3,1072.6,260.3,1072.6z"/>
	<path class="st0" d="M294.7,1160.5h85c0.8,0,1.5,0.7,1.5,1.5v22.7c0,0.8-0.7,1.5-1.5,1.5h-85c-0.8,0-1.5-0.7-1.5-1.5V1162
		C293.2,1161.2,293.9,1160.5,294.7,1160.5z"/>
	<path class="st7" d="M294.7,1161.2h85c0.4,0,0.7,0.3,0.7,0.7v22.7c0,0.4-0.3,0.7-0.7,0.7h-85c-0.4,0-0.7-0.3-0.7-0.7V1162
		C294,1161.6,294.3,1161.2,294.7,1161.2z"/>
	<path class="st8" d="M358,1171.5h-41.3c-0.8,0-1.5,0.7-1.5,1.5v1.5c0,0.8,0.7,1.5,1.5,1.5H358c0.8,0,1.5-0.7,1.5-1.5v-1.5
		C359.4,1172.2,358.8,1171.5,358,1171.5z"/>
	<path class="st0" d="M388.1,1160.5h28.2c0.8,0,1.5,0.7,1.5,1.5v22.7c0,0.8-0.7,1.5-1.5,1.5h-28.2c-0.8,0-1.5-0.7-1.5-1.5V1162
		C386.6,1161.2,387.3,1160.5,388.1,1160.5z"/>
	<path class="st7" d="M388.1,1161.2h28.2c0.4,0,0.7,0.3,0.7,0.7v22.7c0,0.4-0.3,0.7-0.7,0.7h-28.2c-0.4,0-0.7-0.3-0.7-0.7V1162
		C387.4,1161.6,387.7,1161.2,388.1,1161.2z"/>
	<path class="st8" d="M409.9,1171.5h-15.4c-0.3,0-0.5,0.5-0.5,1.2v1.2c0,0.7,0.2,1.2,0.5,1.2h15.4c0.3,0,0.5-0.5,0.5-1.2v-1.2
		C410.4,1172,410.2,1171.5,409.9,1171.5z"/>
	<path class="st9" d="M818.3,1123.9H713c-1.3,0-2.3,1.4-2.3,3v19.6c0,1.7,1,3,2.3,3h105.2c1.3,0,2.3-1.4,2.3-3v-19.6
		C820.6,1125.2,819.6,1123.9,818.3,1123.9z"/>
	<path class="st10" d="M782.8,1134.9h-32.5c-0.6,0-1.2,0.5-1.2,1.2v1.2c0,0.7,0.5,1.2,1.2,1.2h32.5c0.6,0,1.2-0.5,1.2-1.2v-1.2
		C784,1135.4,783.5,1134.9,782.8,1134.9z"/>
	<path class="st11" d="M333.1,1199h46.5c0.8,0,1.5,0.7,1.5,1.5v6.2c0,0.8-0.7,1.5-1.5,1.5h-46.5c-0.8,0-1.5-0.7-1.5-1.5v-6.2
		C331.7,1199.6,332.3,1199,333.1,1199z"/>
	<path class="st0" d="M294.7,1199h6.2c0.8,0,1.5,0.7,1.5,1.5v6.2c0,0.8-0.7,1.5-1.5,1.5h-6.2c-0.8,0-1.5-0.7-1.5-1.5v-6.2
		C293.2,1199.6,293.9,1199,294.7,1199z"/>
	<path class="st7" d="M294.7,1199.7h6.2c0.4,0,0.7,0.3,0.7,0.7v6.2c0,0.4-0.3,0.7-0.7,0.7h-6.2c-0.4,0-0.7-0.3-0.7-0.7v-6.2
		C294,1200,294.3,1199.7,294.7,1199.7z"/>
	<path class="st8" d="M485.1,1453.5h35.5c0.8,0,1.5,0.7,1.5,1.5v6.2c0,0.8-0.7,1.5-1.5,1.5h-35.5c-0.8,0-1.5-0.7-1.5-1.5v-6.2
		C483.7,1454.1,484.3,1453.5,485.1,1453.5z"/>
	<path class="st0" d="M527.2,1448h17.2c0.8,0,1.5,0.7,1.5,1.5v15.4c0,0.8-0.7,1.5-1.5,1.5h-17.2c-0.8,0-1.5-0.7-1.5-1.5v-15.4
		C525.8,1448.6,526.4,1448,527.2,1448z"/>
	<path class="st7" d="M527.2,1448.7h17.2c0.4,0,0.7,0.3,0.7,0.7v15.4c0,0.4-0.3,0.7-0.7,0.7h-17.2c-0.4,0-0.7-0.3-0.7-0.7v-15.4
		C526.5,1449,526.8,1448.7,527.2,1448.7z"/>
	<path class="st8" d="M538.4,1455.3h-5.1c-0.1,0-0.2,0.5-0.2,1.2v1.2c0,0.7,0.1,1.2,0.2,1.2h5.1c0.1,0,0.2-0.5,0.2-1.2v-1.2
		C538.6,1455.9,538.5,1455.3,538.4,1455.3z"/>
	<path class="st8" d="M552.9,1455.3h35.5c0.8,0,1.5,0.7,1.5,1.5v2.6c0,0.8-0.7,1.5-1.5,1.5h-35.5c-0.8,0-1.5-0.7-1.5-1.5v-2.6
		C551.4,1456,552.1,1455.3,552.9,1455.3z"/>
	<path class="st0" d="M598.7,1448h17.2c0.8,0,1.5,0.7,1.5,1.5v15.4c0,0.8-0.7,1.5-1.5,1.5h-17.2c-0.8,0-1.5-0.7-1.5-1.5v-15.4
		C597.2,1448.6,597.9,1448,598.7,1448z"/>
	<path class="st7" d="M598.7,1448.7h17.2c0.4,0,0.7,0.3,0.7,0.7v15.4c0,0.4-0.3,0.7-0.7,0.7h-17.2c-0.4,0-0.7-0.3-0.7-0.7v-15.4
		C597.9,1449,598.3,1448.7,598.7,1448.7z"/>
	<path class="st8" d="M609.8,1455.3h-5.1c-0.1,0-0.2,0.5-0.2,1.2v1.2c0,0.7,0.1,1.2,0.2,1.2h5.1c0.1,0,0.2-0.5,0.2-1.2v-1.2
		C610,1455.9,609.9,1455.3,609.8,1455.3z"/>
	<path class="st8" d="M294.7,1228.3h19.1c0.8,0,1.5,0.7,1.5,1.5v2.6c0,0.8-0.7,1.5-1.5,1.5h-19.1c-0.8,0-1.5-0.7-1.5-1.5v-2.6
		C293.2,1228.9,293.9,1228.3,294.7,1228.3z"/>
	<path class="st8" d="M333.1,1228.3h145.4c0.8,0,1.5,0.7,1.5,1.5v2.6c0,0.8-0.7,1.5-1.5,1.5H333.1c-0.8,0-1.5-0.7-1.5-1.5v-2.6
		C331.7,1228.9,332.3,1228.3,333.1,1228.3z"/>
	<path class="st8" d="M527.2,1228.3h74c0.8,0,1.5,0.7,1.5,1.5v2.6c0,0.8-0.7,1.5-1.5,1.5h-74c-0.8,0-1.5-0.7-1.5-1.5v-2.6
		C525.8,1228.9,526.4,1228.3,527.2,1228.3z"/>
	<path class="st8" d="M649.9,1228.3h74c0.8,0,1.5,0.7,1.5,1.5v2.6c0,0.8-0.7,1.5-1.5,1.5h-74c-0.8,0-1.5-0.7-1.5-1.5v-2.6
		C648.5,1228.9,649.1,1228.3,649.9,1228.3z"/>
	<path class="st8" d="M772.6,1228.3h46.5c0.8,0,1.5,0.7,1.5,1.5v2.6c0,0.8-0.7,1.5-1.5,1.5h-46.5c-0.8,0-1.5-0.7-1.5-1.5v-2.6
		C771.2,1228.9,771.8,1228.3,772.6,1228.3z"/>
	<path class="st8" d="M294.7,1257.6h19.1c0.8,0,1.5,0.7,1.5,1.5v2.6c0,0.8-0.7,1.5-1.5,1.5h-19.1c-0.8,0-1.5-0.7-1.5-1.5v-2.6
		C293.2,1258.2,293.9,1257.6,294.7,1257.6z"/>
	<path class="st8" d="M333.1,1257.6h145.4c0.8,0,1.5,0.7,1.5,1.5v2.6c0,0.8-0.7,1.5-1.5,1.5H333.1c-0.8,0-1.5-0.7-1.5-1.5v-2.6
		C331.7,1258.2,332.3,1257.6,333.1,1257.6z"/>
	<path class="st8" d="M527.2,1257.6h74c0.8,0,1.5,0.7,1.5,1.5v2.6c0,0.8-0.7,1.5-1.5,1.5h-74c-0.8,0-1.5-0.7-1.5-1.5v-2.6
		C525.8,1258.2,526.4,1257.6,527.2,1257.6z"/>
	<path class="st8" d="M649.9,1257.6h74c0.8,0,1.5,0.7,1.5,1.5v2.6c0,0.8-0.7,1.5-1.5,1.5h-74c-0.8,0-1.5-0.7-1.5-1.5v-2.6
		C648.5,1258.2,649.1,1257.6,649.9,1257.6z"/>
	<path class="st8" d="M772.6,1257.6h46.5c0.8,0,1.5,0.7,1.5,1.5v2.6c0,0.8-0.7,1.5-1.5,1.5h-46.5c-0.8,0-1.5-0.7-1.5-1.5v-2.6
		C771.2,1258.2,771.8,1257.6,772.6,1257.6z"/>
	<path class="st8" d="M294.7,1286.9h19.1c0.8,0,1.5,0.7,1.5,1.5v2.6c0,0.8-0.7,1.5-1.5,1.5h-19.1c-0.8,0-1.5-0.7-1.5-1.5v-2.6
		C293.2,1287.5,293.9,1286.9,294.7,1286.9z"/>
	<path class="st8" d="M333.1,1286.9h145.4c0.8,0,1.5,0.7,1.5,1.5v2.6c0,0.8-0.7,1.5-1.5,1.5H333.1c-0.8,0-1.5-0.7-1.5-1.5v-2.6
		C331.7,1287.5,332.3,1286.9,333.1,1286.9z"/>
	<path class="st8" d="M527.2,1286.9h74c0.8,0,1.5,0.7,1.5,1.5v2.6c0,0.8-0.7,1.5-1.5,1.5h-74c-0.8,0-1.5-0.7-1.5-1.5v-2.6
		C525.8,1287.5,526.4,1286.9,527.2,1286.9z"/>
	<path class="st8" d="M649.9,1286.9h74c0.8,0,1.5,0.7,1.5,1.5v2.6c0,0.8-0.7,1.5-1.5,1.5h-74c-0.8,0-1.5-0.7-1.5-1.5v-2.6
		C648.5,1287.5,649.1,1286.9,649.9,1286.9z"/>
	<path class="st8" d="M772.6,1286.9h46.5c0.8,0,1.5,0.7,1.5,1.5v2.6c0,0.8-0.7,1.5-1.5,1.5h-46.5c-0.8,0-1.5-0.7-1.5-1.5v-2.6
		C771.2,1287.5,771.8,1286.9,772.6,1286.9z"/>
	<path class="st8" d="M294.7,1316.2h19.1c0.8,0,1.5,0.7,1.5,1.5v2.6c0,0.8-0.7,1.5-1.5,1.5h-19.1c-0.8,0-1.5-0.7-1.5-1.5v-2.6
		C293.2,1316.8,293.9,1316.2,294.7,1316.2z"/>
	<path class="st8" d="M333.1,1316.2h145.4c0.8,0,1.5,0.7,1.5,1.5v2.6c0,0.8-0.7,1.5-1.5,1.5H333.1c-0.8,0-1.5-0.7-1.5-1.5v-2.6
		C331.7,1316.8,332.3,1316.2,333.1,1316.2z"/>
	<path class="st8" d="M527.2,1316.2h74c0.8,0,1.5,0.7,1.5,1.5v2.6c0,0.8-0.7,1.5-1.5,1.5h-74c-0.8,0-1.5-0.7-1.5-1.5v-2.6
		C525.8,1316.8,526.4,1316.2,527.2,1316.2z"/>
	<path class="st8" d="M649.9,1316.2h74c0.8,0,1.5,0.7,1.5,1.5v2.6c0,0.8-0.7,1.5-1.5,1.5h-74c-0.8,0-1.5-0.7-1.5-1.5v-2.6
		C648.5,1316.8,649.1,1316.2,649.9,1316.2z"/>
	<path class="st8" d="M772.6,1316.2h46.5c0.8,0,1.5,0.7,1.5,1.5v2.6c0,0.8-0.7,1.5-1.5,1.5h-46.5c-0.8,0-1.5-0.7-1.5-1.5v-2.6
		C771.2,1316.8,771.8,1316.2,772.6,1316.2z"/>
	<path class="st8" d="M294.7,1345.5h19.1c0.8,0,1.5,0.7,1.5,1.5v2.6c0,0.8-0.7,1.5-1.5,1.5h-19.1c-0.8,0-1.5-0.7-1.5-1.5v-2.6
		C293.2,1346.1,293.9,1345.5,294.7,1345.5z"/>
	<path class="st8" d="M333.1,1345.5h145.4c0.8,0,1.5,0.7,1.5,1.5v2.6c0,0.8-0.7,1.5-1.5,1.5H333.1c-0.8,0-1.5-0.7-1.5-1.5v-2.6
		C331.7,1346.1,332.3,1345.5,333.1,1345.5z"/>
	<path class="st8" d="M527.2,1345.5h74c0.8,0,1.5,0.7,1.5,1.5v2.6c0,0.8-0.7,1.5-1.5,1.5h-74c-0.8,0-1.5-0.7-1.5-1.5v-2.6
		C525.8,1346.1,526.4,1345.5,527.2,1345.5z"/>
	<path class="st8" d="M649.9,1345.5h74c0.8,0,1.5,0.7,1.5,1.5v2.6c0,0.8-0.7,1.5-1.5,1.5h-74c-0.8,0-1.5-0.7-1.5-1.5v-2.6
		C648.5,1346.1,649.1,1345.5,649.9,1345.5z"/>
	<path class="st8" d="M772.6,1345.5h46.5c0.8,0,1.5,0.7,1.5,1.5v2.6c0,0.8-0.7,1.5-1.5,1.5h-46.5c-0.8,0-1.5-0.7-1.5-1.5v-2.6
		C771.2,1346.1,771.8,1345.5,772.6,1345.5z"/>
	<path class="st8" d="M294.7,1374.7h19.1c0.8,0,1.5,0.7,1.5,1.5v2.6c0,0.8-0.7,1.5-1.5,1.5h-19.1c-0.8,0-1.5-0.7-1.5-1.5v-2.6
		C293.2,1375.4,293.9,1374.7,294.7,1374.7z"/>
	<path class="st8" d="M333.1,1374.7h145.4c0.8,0,1.5,0.7,1.5,1.5v2.6c0,0.8-0.7,1.5-1.5,1.5H333.1c-0.8,0-1.5-0.7-1.5-1.5v-2.6
		C331.7,1375.4,332.3,1374.7,333.1,1374.7z"/>
	<path class="st8" d="M527.2,1374.7h74c0.8,0,1.5,0.7,1.5,1.5v2.6c0,0.8-0.7,1.5-1.5,1.5h-74c-0.8,0-1.5-0.7-1.5-1.5v-2.6
		C525.8,1375.4,526.4,1374.7,527.2,1374.7z"/>
	<path class="st8" d="M649.9,1374.7h74c0.8,0,1.5,0.7,1.5,1.5v2.6c0,0.8-0.7,1.5-1.5,1.5h-74c-0.8,0-1.5-0.7-1.5-1.5v-2.6
		C648.5,1375.4,649.1,1374.7,649.9,1374.7z"/>
	<path class="st8" d="M772.6,1374.7h46.5c0.8,0,1.5,0.7,1.5,1.5v2.6c0,0.8-0.7,1.5-1.5,1.5h-46.5c-0.8,0-1.5-0.7-1.5-1.5v-2.6
		C771.2,1375.4,771.8,1374.7,772.6,1374.7z"/>
	<path class="st8" d="M294.7,1404h19.1c0.8,0,1.5,0.7,1.5,1.5v2.6c0,0.8-0.7,1.5-1.5,1.5h-19.1c-0.8,0-1.5-0.7-1.5-1.5v-2.6
		C293.2,1404.7,293.9,1404,294.7,1404z"/>
	<path class="st8" d="M333.1,1404h145.4c0.8,0,1.5,0.7,1.5,1.5v2.6c0,0.8-0.7,1.5-1.5,1.5H333.1c-0.8,0-1.5-0.7-1.5-1.5v-2.6
		C331.7,1404.7,332.3,1404,333.1,1404z"/>
	<path class="st8" d="M527.2,1404h74c0.8,0,1.5,0.7,1.5,1.5v2.6c0,0.8-0.7,1.5-1.5,1.5h-74c-0.8,0-1.5-0.7-1.5-1.5v-2.6
		C525.8,1404.7,526.4,1404,527.2,1404z"/>
	<path class="st8" d="M649.9,1404h74c0.8,0,1.5,0.7,1.5,1.5v2.6c0,0.8-0.7,1.5-1.5,1.5h-74c-0.8,0-1.5-0.7-1.5-1.5v-2.6
		C648.5,1404.7,649.1,1404,649.9,1404z"/>
	<path class="st8" d="M772.6,1404h46.5c0.8,0,1.5,0.7,1.5,1.5v2.6c0,0.8-0.7,1.5-1.5,1.5h-46.5c-0.8,0-1.5-0.7-1.5-1.5v-2.6
		C771.2,1404.7,771.8,1404,772.6,1404z"/>
	<path class="st11" d="M527.2,1199h46.5c0.8,0,1.5,0.7,1.5,1.5v6.2c0,0.8-0.7,1.5-1.5,1.5h-46.5c-0.8,0-1.5-0.7-1.5-1.5v-6.2
		C525.8,1199.6,526.4,1199,527.2,1199z"/>
	<path class="st11" d="M649.9,1199h46.5c0.8,0,1.5,0.7,1.5,1.5v6.2c0,0.8-0.7,1.5-1.5,1.5h-46.5c-0.8,0-1.5-0.7-1.5-1.5v-6.2
		C648.5,1199.6,649.1,1199,649.9,1199z"/>
	<path class="st11" d="M772.6,1199h46.5c0.8,0,1.5,0.7,1.5,1.5v6.2c0,0.8-0.7,1.5-1.5,1.5h-46.5c-0.8,0-1.5-0.7-1.5-1.5v-6.2
		C771.2,1199.6,771.8,1199,772.6,1199z"/>
	<path class="st12" d="M297.9,1130.1v11.3h2v-3.7h2.3c2.3,0,3.9-1.5,3.9-3.8c0-2.3-1.6-3.8-3.8-3.8H297.9z M299.9,1131.7h1.8
		c1.4,0,2.3,0.8,2.3,2.1c0,1.4-0.8,2.2-2.3,2.2h-1.8V1131.7z M309.2,1141.5c1.1,0,2.1-0.6,2.6-1.5h0v1.3h1.9v-5.7
		c0-1.7-1.3-2.8-3.4-2.8c-2.1,0-3.4,1.1-3.5,2.7h1.8c0.1-0.7,0.7-1.1,1.6-1.1c1,0,1.5,0.5,1.5,1.4v0.6l-2.2,0.1
		c-2,0.1-3.2,1-3.2,2.5C306.4,1140.5,307.6,1141.5,309.2,1141.5z M309.8,1140c-0.8,0-1.4-0.4-1.4-1.1c0-0.7,0.5-1.1,1.5-1.1l1.9-0.1
		v0.6C311.8,1139.3,310.9,1140,309.8,1140z M318.9,1144.5c2.4,0,4-1.3,4-3.3v-8.2H321v1.4h0c-0.5-1-1.4-1.6-2.6-1.6
		c-2.1,0-3.5,1.6-3.5,4.3c0,2.6,1.4,4.2,3.4,4.2c1.2,0,2.2-0.6,2.6-1.5h0v1.4c0,1.1-0.7,1.8-2,1.8c-0.9,0-1.6-0.4-1.8-1.1h-1.9
		C315.4,1143.4,316.9,1144.5,318.9,1144.5z M318.9,1139.8c-1.2,0-2-1-2-2.6c0-1.6,0.8-2.7,2-2.7c1.2,0,2,1,2,2.7
		C321,1138.8,320.2,1139.8,318.9,1139.8z M330,1138.9c-0.2,0.7-0.9,1.1-1.8,1.1c-1.3,0-2.1-0.9-2.1-2.2v-0.1h5.8v-0.6
		c0-2.5-1.5-4.2-3.8-4.2c-2.4,0-3.9,1.7-3.9,4.3c0,2.6,1.5,4.3,4,4.3c2,0,3.4-1.1,3.7-2.6H330z M328.1,1134.4c1.1,0,1.9,0.8,1.9,2
		h-3.9C326.2,1135.3,327,1134.4,328.1,1134.4z M333,1135.5c0,1.2,0.8,2,2.4,2.4l1.4,0.3c0.9,0.2,1.2,0.5,1.2,1c0,0.6-0.6,1-1.5,1
		c-1,0-1.5-0.4-1.7-1.2h-1.9c0.2,1.6,1.4,2.6,3.6,2.6c2,0,3.5-1.1,3.5-2.6c0-1.2-0.7-1.9-2.4-2.3l-1.4-0.3c-0.9-0.2-1.2-0.5-1.2-1
		c0-0.6,0.6-1,1.4-1c0.9,0,1.5,0.5,1.5,1.2h1.8c0-1.6-1.3-2.7-3.3-2.7C334.3,1132.9,333,1133.9,333,1135.5z"/>
	<path class="st8" d="M102.4,1162.3h6.2c0.8,0,1.5,0.7,1.5,1.5v6.2c0,0.8-0.7,1.5-1.5,1.5h-6.2c-0.8,0-1.5-0.7-1.5-1.5v-6.2
		C101,1163,101.6,1162.3,102.4,1162.3z"/>
	<path class="st8" d="M182.5,1226.4h-65.9c-1.5,0-2.7,0.8-2.7,1.8v1.8c0,1,1.2,1.8,2.7,1.8h65.9c1.5,0,2.7-0.8,2.7-1.8v-1.8
		C185.2,1227.3,184,1226.4,182.5,1226.4z"/>
	<path class="st8" d="M102.4,1224.6h6.2c0.8,0,1.5,0.7,1.5,1.5v6.2c0,0.8-0.7,1.5-1.5,1.5h-6.2c-0.8,0-1.5-0.7-1.5-1.5v-6.2
		C101,1225.3,101.6,1224.6,102.4,1224.6z"/>
	<path class="st8" d="M102.4,1272.2h6.2c0.8,0,1.5,0.7,1.5,1.5v6.2c0,0.8-0.7,1.5-1.5,1.5h-6.2c-0.8,0-1.5-0.7-1.5-1.5v-6.2
		C101,1272.9,101.6,1272.2,102.4,1272.2z"/>
	<path class="st8" d="M102.4,1296h6.2c0.8,0,1.5,0.7,1.5,1.5v6.2c0,0.8-0.7,1.5-1.5,1.5h-6.2c-0.8,0-1.5-0.7-1.5-1.5v-6.2
		C101,1296.7,101.6,1296,102.4,1296z"/>
	<path class="st13" d="M144,1250.2h-27.5c-1.5,0-2.7,0.8-2.7,1.8v1.8c0,1,1.2,1.8,2.7,1.8H144c1.5,0,2.7-0.8,2.7-1.8v-1.8
		C146.8,1251.1,145.5,1250.2,144,1250.2z"/>
	<path class="st13" d="M102.4,1248.4h6.2c0.8,0,1.5,0.7,1.5,1.5v6.2c0,0.8-0.7,1.5-1.5,1.5h-6.2c-0.8,0-1.5-0.7-1.5-1.5v-6.2
		C101,1249.1,101.6,1248.4,102.4,1248.4z"/>
	<path class="st8" d="M136.6,1274h-19.9c-1.6,0-2.8,0.8-2.8,1.8v1.8c0,1,1.3,1.8,2.8,1.8h19.9c1.6,0,2.8-0.8,2.8-1.8v-1.8
		C139.4,1274.9,138.2,1274,136.6,1274z"/>
	<path class="st8" d="M164.1,1297.8h-47.5c-1.5,0-2.8,0.8-2.8,1.8v1.8c0,1,1.3,1.8,2.8,1.8h47.5c1.5,0,2.8-0.8,2.8-1.8v-1.8
		C166.9,1298.7,165.6,1297.8,164.1,1297.8z"/>
	<path class="st8" d="M166,1164.2h-49.4c-1.5,0-2.7,0.8-2.7,1.8v1.8c0,1,1.2,1.8,2.7,1.8H166c1.5,0,2.7-0.8,2.7-1.8v-1.8
		C168.7,1165,167.5,1164.2,166,1164.2z"/>
	<path class="st8" d="M166.9,1136.7h-62.3c-1,0-1.8,0.8-1.8,1.8v5.5c0,1,0.8,1.8,1.8,1.8h62.3c1,0,1.8-0.8,1.8-1.8v-5.5
		C168.7,1137.5,167.9,1136.7,166.9,1136.7z"/>
	<path class="st8" d="M210.8,1197.1H104.6c-1,0-1.8,0.8-1.8,1.8v5.5c0,1,0.8,1.8,1.8,1.8h106.2c1,0,1.8-0.8,1.8-1.8v-5.5
		C212.7,1198,211.9,1197.1,210.8,1197.1z"/>
	<path class="st8" d="M800.8,1090.9h-50.2c-0.8,0-1.5-0.7-1.5-1.5v-6.2c0-0.8,0.7-1.5,1.5-1.5h50.2c0.8,0,1.5,0.7,1.5,1.5v6.2
		C802.3,1090.3,801.6,1090.9,800.8,1090.9z"/>
	<path class="st8" d="M820.6,1098.3L820.6,1098.3c-6.1,0-11-4.9-11-11l0,0c0-6.1,4.9-11,11-11l0,0c6.1,0,11,4.9,11,11l0,0
		C831.6,1093.3,826.7,1098.3,820.6,1098.3z"/>
	<path class="st8" d="M133.6,1092.8h50.2c0.8,0,1.5,0.7,1.5,1.5v6.2c0,0.8-0.7,1.5-1.5,1.5h-50.2c-0.8,0-1.5-0.7-1.5-1.5v-6.2
		C132.1,1093.4,132.8,1092.8,133.6,1092.8z"/>
	<path class="st9" d="M104.3,1085.4h19.1c0.8,0,1.5,0.7,1.5,1.5v19.1c0,0.8-0.7,1.5-1.5,1.5h-19.1c-0.8,0-1.5-0.7-1.5-1.5v-19.1
		C102.8,1086.1,103.5,1085.4,104.3,1085.4z"/>
	<path class="st6" d="M117.8,1101.9H113c-0.2,0-0.3,0-0.4-0.1c-0.1-0.1-0.3-0.1-0.4-0.3l-3.6-3.6c-0.1-0.1-0.2-0.3-0.3-0.5
		c0-0.2,0-0.4,0.1-0.6c0.1-0.2,0.2-0.3,0.4-0.4c0.2-0.1,0.3-0.2,0.5-0.2h4.4v-4.4c0-0.2,0.1-0.4,0.2-0.5c0.1-0.2,0.3-0.3,0.4-0.4
		c0.2-0.1,0.4-0.1,0.6-0.1c0.2,0,0.4,0.1,0.5,0.3l3.6,3.6c0.1,0.1,0.2,0.2,0.3,0.4c0.1,0.1,0.1,0.3,0.1,0.4v4.8
		c0,0.4-0.2,0.8-0.4,1.1C118.6,1101.8,118.2,1101.9,117.8,1101.9z M113.2,1100.3h4.4v-4.4l-2.3-2.3v4.4h-4.4L113.2,1100.3z"/>
</g>
<g>
	<path class="st12" d="M-3509.4-1612.5h79.2l-34,213.8c-1,7.1-1.5,13.7-1.5,18.8c0,11.2,1.5,17.8,1.5,17.8h-73.6c0,0-2-6.1-2-17.8
		c0-4.1,0-9.1,0.5-14.7h-0.5c-21.3,24.4-52.8,38.1-85.3,38.1c-61.4-5.2-87.7-48.7-87.7-108.1c0-77.2,42.5-150.5,128.8-150.5
		c26.4,0,56.9,7.3,70.6,31.6C-3512.4-1593.2-3510.9-1602.9-3509.4-1612.5z M-3576.6-1552.6c-41.6,0-67,39.6-67,78.2
		c0,28.9,16.8,50.3,46.7,50.3c41.6,0,67-39.6,67-78.2C-3529.9-1531.3-3546.6-1552.6-3576.6-1552.6z"/>
	<path class="st12" d="M-3236.2-1527.7c-12.7-16.8-35.5-24.4-55.9-24.4c-41.6,0-70.6,37.1-70.6,77.2c0,32,20.8,50.8,52.3,50.8
		c21.8,0,48.2-9.1,65.5-22.9l7.1,62c-24.4,19.8-66,28.4-96,28.4c-63.5,0-109.2-42.1-109.2-106.1c0-85.3,64.5-154.4,151.3-154.4
		c24.9,0,50.1,2.3,68.4,21.6L-3236.2-1527.7z"/>
	<path class="st12" d="M-3096-1612.5h53.8l-10.7,62.5h-53.3c-5.6,34-15.7,71.6-15.7,106.1c0,14.7,7.1,19.3,20.8,19.3
		c8.1,0,16.8-1.5,24.4-4.6l-6.1,64.5c-18.8,4.6-37.6,8.1-57.4,8.1c-40.1,0-64-18.3-64-59.9c0-44.2,12.2-90.9,18.8-133.6h-34
		l10.2-62.5h34l5.1-31.5c1-7.6,1-14.2,1-20.3c0-9.6-1-15.7-1-15.7h78.7c0,0,1.5,5.6,1.5,16.8c0,6.1-0.5,13.7-2,22.9L-3096-1612.5z"
		/>
	<path class="st12" d="M-2955.3-1356.6c-65,0-115.3-37.1-115.3-105.6c0-88.4,66.5-154.9,156.4-154.9c65.5,0,115.3,37.6,115.3,106.1
		C-2798.8-1422.6-2864.9-1356.6-2955.3-1356.6z M-2924.3-1552.1c-41.6,0-65.5,40.6-65.5,78.2c0,28.4,15.2,49.8,45.2,49.8
		c41.6,0,65.5-40.6,65.5-78.2C-2879.1-1530.7-2894.3-1552.1-2924.3-1552.1z"/>
	<path class="st12" d="M-2623.9-1537.4h-4.1c-8.1-4.6-18.3-6.1-27.4-6.1c-38.6,0-53.8,38.1-58.4,70.1l-17.8,111.2h-79.2l33.5-213.3
		c1-7.6,1.5-15.2,1.5-21.3c0-9.6-1-15.7-1-15.7h78.7c0,0,1.5,5.6,1.5,16.8c0,5.1-0.5,12.7-2,18.8c14.7-23.4,37.6-40.1,66.5-40.1
		c7.1,0,17.8,1,23.9,4.6L-2623.9-1537.4z"/>
	<path class="st12" d="M-3703.2-1725.7c-74.3,7.1-94.6,50.3-104.8,113.2h-31l-9.6,62.5h31l-31,193h79.2l31-193h39.8l12-62.9
		l-42.2,0.5c4.1-23.9,7.6-36.3,30.6-47.3c10.4-5,11.7-6.2,33.9-5l12.2-58C-3668.3-1727.8-3682.2-1727.7-3703.2-1725.7z"/>
</g>
<g>
	<path class="st14" d="M-3980.8-1343h-190c-12.3,0-23.9-4.8-32.7-13.5l-144.8-144.8c-10.9-10.9-14.2-27.2-8.3-41.5
		c5.9-14.3,19.7-23.6,35.2-23.6h177.4v-177.4c0-15.4,9.2-29.3,23.5-35.2c14.1-5.8,30.8-2.5,41.6,8.2L-3934-1626
		c8.7,8.8,13.5,20.3,13.5,32.7v190C-3920.5-1370.1-3947.6-1343-3980.8-1343z M-4162.9-1408.3h177.1v-177.1l-92.9-92.9v177.1h-177.1
		L-4162.9-1408.3z"/>
</g>
<polygon style="fill:none;" points="-4087.2,-1133.5 -4100.5,-1133.5 -4100.5,-1133.5 -4087.2,-1133.5 "/>
<g>
	<path class="st12" d="M-3587.1-2944.6h56.7l-24.4,153.1c-0.7,5.1-1.1,9.8-1.1,13.5c0,8,1.1,12.7,1.1,12.7h-52.7
		c0,0-1.5-4.4-1.5-12.7c0-2.9,0-6.5,0.4-10.5h-0.4c-15.3,17.5-37.8,27.3-61.1,27.3c-43.9-3.7-62.8-34.9-62.8-77.4
		c0-55.3,30.4-107.8,92.2-107.8c18.9,0,40.7,5.2,50.5,22.7C-3589.3-2930.8-3588.2-2937.7-3587.1-2944.6z M-3635.3-2901.7
		c-29.8,0-48,28.4-48,56c0,20.7,12,36,33.5,36c29.8,0,48-28.4,48-56C-3601.8-2886.4-3613.8-2901.7-3635.3-2901.7z"/>
	<path class="st12" d="M-3391.5-2883.9c-9.1-12-25.5-17.5-40-17.5c-29.8,0-50.5,26.5-50.5,55.3c0,22.9,14.9,36.4,37.5,36.4
		c15.6,0,34.5-6.5,46.9-16.4l5.1,44.4c-17.5,14.2-47.3,20.4-68.7,20.4c-45.5,0-78.2-30.2-78.2-76c0-61.1,46.2-110.5,108.4-110.5
		c17.8,0,35.9,1.7,49,15.5L-3391.5-2883.9z"/>
	<path class="st12" d="M-3291.1-2944.6h38.5l-7.6,44.7h-38.2c-4,24.4-11.3,51.3-11.3,76c0,10.5,5.1,13.8,14.9,13.8
		c5.8,0,12-1.1,17.5-3.3l-4.4,46.2c-13.5,3.3-26.9,5.8-41.1,5.8c-28.7,0-45.8-13.1-45.8-42.9c0-31.6,8.7-65.1,13.5-95.6h-24.4
		l7.3-44.7h24.4l3.6-22.5c0.7-5.5,0.7-10.2,0.7-14.5c0-6.9-0.7-11.3-0.7-11.3h56.4c0,0,1.1,4,1.1,12c0,4.4-0.4,9.8-1.5,16.4
		L-3291.1-2944.6z"/>
	<path class="st12" d="M-3190.3-2761.3c-46.5,0-82.5-26.5-82.5-75.6c0-63.3,47.6-110.9,112-110.9c46.9,0,82.5,26.9,82.5,76
		C-3078.3-2808.6-3125.6-2761.3-3190.3-2761.3z M-3168.1-2901.3c-29.8,0-46.9,29.1-46.9,56c0,20.4,10.9,35.6,32.4,35.6
		c29.8,0,46.9-29.1,46.9-56C-3135.8-2886.1-3146.7-2901.3-3168.1-2901.3z"/>
	<path class="st12" d="M-2953-2890.8h-2.9c-5.8-3.3-13.1-4.4-19.6-4.4c-27.6,0-38.5,27.3-41.8,50.2l-12.7,79.6h-56.7l24-152.7
		c0.7-5.5,1.1-10.9,1.1-15.3c0-6.9-0.7-11.3-0.7-11.3h56.4c0,0,1.1,4,1.1,12c0,3.6-0.4,9.1-1.5,13.5c10.5-16.7,26.9-28.7,47.6-28.7
		c5.1,0,12.7,0.7,17.1,3.3L-2953-2890.8z"/>
	<path class="st12" d="M-3725.9-3025.7c-53.2,5.1-67.8,36-75.1,81.1h-22.2l-6.9,44.7h22.2l-22.2,138.2h56.7l22.2-138.2h28.5
		l8.6-45.1l-30.2,0.3c2.9-17.1,5.4-26,21.9-33.8c7.4-3.6,8.3-4.5,24.3-3.5l8.7-41.5C-3700.9-3027.2-3710.9-3027.1-3725.9-3025.7z"/>
</g>
<g>
	<path class="st14" d="M-3924.7-2751.6h-136.1c-8.8,0-17.1-3.4-23.4-9.7l-103.7-103.7c-7.8-7.8-10.2-19.5-5.9-29.7
		c4.2-10.3,14.1-16.9,25.2-16.9h127v-127.1c0-11.1,6.6-21,16.8-25.2c10.1-4.2,22.1-1.8,29.8,5.9l103.7,103.7
		c6.2,6.3,9.7,14.6,9.7,23.4v136C-3881.5-2771-3900.9-2751.6-3924.7-2751.6z M-4055.1-2798.3h126.9v-126.9l-66.5-66.5v126.9h-126.8
		L-4055.1-2798.3z"/>
</g>
<polygon style="fill:none;" points="-4175.2,-2495.5 -4188.5,-2495.5 -4188.5,-2495.5 -4175.2,-2495.5 "/>
<rect x="-4648.5" y="-3238.3" class="st1" width="8515" height="702.7"/>
<g>
	<g>
		<path class="st0" d="M-3542.1-2958h56.7l-24.4,153.1c-0.7,5.1-1.1,9.8-1.1,13.5c0,8,1.1,12.7,1.1,12.7h-52.7c0,0-1.5-4.4-1.5-12.7
			c0-2.9,0-6.5,0.4-10.5h-0.4c-15.3,17.5-37.8,27.3-61.1,27.3c-43.9-3.7-62.8-34.9-62.8-77.4c0-55.3,30.4-107.8,92.2-107.8
			c18.9,0,40.7,5.2,50.5,22.7C-3544.3-2944.2-3543.2-2951.1-3542.1-2958z M-3590.2-2915.1c-29.8,0-48,28.4-48,56
			c0,20.7,12,36,33.5,36c29.8,0,48-28.4,48-56C-3556.8-2899.8-3568.8-2915.1-3590.2-2915.1z"/>
		<path class="st0" d="M-3346.5-2897.3c-9.1-12-25.5-17.5-40-17.5c-29.8,0-50.5,26.5-50.5,55.3c0,22.9,14.9,36.4,37.5,36.4
			c15.6,0,34.5-6.5,46.9-16.4l5.1,44.4c-17.5,14.2-47.3,20.4-68.7,20.4c-45.5,0-78.2-30.2-78.2-76c0-61.1,46.2-110.5,108.4-110.5
			c17.8,0,35.9,1.7,49,15.5L-3346.5-2897.3z"/>
		<path class="st0" d="M-3246.1-2958h38.5l-7.6,44.7h-38.2c-4,24.4-11.3,51.3-11.3,76c0,10.5,5.1,13.8,14.9,13.8
			c5.8,0,12-1.1,17.5-3.3l-4.4,46.2c-13.5,3.3-26.9,5.8-41.1,5.8c-28.7,0-45.8-13.1-45.8-42.9c0-31.6,8.7-65.1,13.5-95.6h-24.4
			l7.3-44.7h24.4l3.6-22.5c0.7-5.5,0.7-10.2,0.7-14.5c0-6.9-0.7-11.3-0.7-11.3h56.4c0,0,1.1,4,1.1,12c0,4.4-0.4,9.8-1.5,16.4
			L-3246.1-2958z"/>
		<path class="st0" d="M-3145.3-2774.7c-46.5,0-82.5-26.5-82.5-75.6c0-63.3,47.6-110.9,112-110.9c46.9,0,82.5,26.9,82.5,76
			C-3033.3-2822-3080.6-2774.7-3145.3-2774.7z M-3123.1-2914.7c-29.8,0-46.9,29.1-46.9,56c0,20.4,10.9,35.6,32.4,35.6
			c29.8,0,46.9-29.1,46.9-56C-3090.7-2899.4-3101.7-2914.7-3123.1-2914.7z"/>
		<path class="st0" d="M-2908-2904.2h-2.9c-5.8-3.3-13.1-4.4-19.6-4.4c-27.6,0-38.5,27.3-41.8,50.2l-12.7,79.6h-56.7l24-152.7
			c0.7-5.5,1.1-10.9,1.1-15.3c0-6.9-0.7-11.3-0.7-11.3h56.4c0,0,1.1,4,1.1,12c0,3.6-0.4,9.1-1.5,13.5c10.5-16.7,26.9-28.7,47.6-28.7
			c5.1,0,12.7,0.7,17.1,3.3L-2908-2904.2z"/>
		<path class="st0" d="M-3680.9-3039.1c-53.2,5.1-67.8,36-75.1,81.1h-22.2l-6.9,44.7h22.2L-3785-2775h56.7l22.2-138.2h28.5l8.6-45.1
			l-30.2,0.3c2.9-17.1,5.4-26,21.9-33.8c7.4-3.6,8.3-4.5,24.3-3.5l8.7-41.5C-3655.9-3040.6-3665.8-3040.5-3680.9-3039.1z"/>
	</g>
	<g>
		<path class="st15" d="M-3879.7-2765h-136.1c-8.8,0-17.1-3.4-23.4-9.7l-103.7-103.7c-7.8-7.8-10.2-19.5-5.9-29.7
			c4.2-10.3,14.1-16.9,25.2-16.9h127v-127.1c0-11.1,6.6-21,16.8-25.2c10.1-4.2,22.1-1.8,29.8,5.9l103.7,103.7
			c6.2,6.3,9.7,14.6,9.7,23.4v136C-3836.5-2784.4-3855.9-2765-3879.7-2765z M-4010.1-2811.7h126.9v-126.9l-66.5-66.5v126.9h-126.8
			L-4010.1-2811.7z"/>
	</g>
</g>
<g>
	<g>
		<path class="st0" d="M445.1,920.7h14.2l-6.1,38.3c-0.2,1.3-0.3,2.5-0.3,3.4c0,2,0.3,3.2,0.3,3.2H440c0,0-0.4-1.1-0.4-3.2
			c0-0.7,0-1.6,0.1-2.6h-0.1c-3.8,4.4-9.5,6.8-15.3,6.8c-11-0.9-15.7-8.7-15.7-19.4c0-13.8,7.6-27,23.1-27c4.7,0,10.2,1.3,12.6,5.7
			C444.6,924.2,444.8,922.4,445.1,920.7z M433.1,931.4c-7.5,0-12,7.1-12,14c0,5.2,3,9,8.4,9c7.5,0,12-7.1,12-14
			C441.4,935.3,438.4,931.4,433.1,931.4z"/>
		<path class="st0" d="M494.1,935.9c-2.3-3-6.4-4.4-10-4.4c-7.5,0-12.6,6.6-12.6,13.8c0,5.7,3.7,9.1,9.4,9.1c3.9,0,8.6-1.6,11.7-4.1
			l1.3,11.1c-4.4,3.5-11.8,5.1-17.2,5.1c-11.4,0-19.6-7.6-19.6-19c0-15.3,11.6-27.7,27.1-27.7c4.5,0,9,0.4,12.3,3.9L494.1,935.9z"/>
		<path class="st0" d="M519.2,920.7h9.6l-1.9,11.2h-9.6c-1,6.1-2.8,12.8-2.8,19c0,2.6,1.3,3.5,3.7,3.5c1.5,0,3-0.3,4.4-0.8
			l-1.1,11.6c-3.4,0.8-6.7,1.5-10.3,1.5c-7.2,0-11.5-3.3-11.5-10.7c0-7.9,2.2-16.3,3.4-23.9h-6.1l1.8-11.2h6.1l0.9-5.6
			c0.2-1.4,0.2-2.5,0.2-3.6c0-1.7-0.2-2.8-0.2-2.8H520c0,0,0.3,1,0.3,3c0,1.1-0.1,2.5-0.4,4.1L519.2,920.7z"/>
		<path class="st0" d="M544.4,966.6c-11.6,0-20.7-6.6-20.7-18.9c0-15.8,11.9-27.8,28-27.8c11.7,0,20.7,6.7,20.7,19
			C572.4,954.7,560.6,966.6,544.4,966.6z M550,931.5c-7.5,0-11.7,7.3-11.7,14c0,5.1,2.7,8.9,8.1,8.9c7.5,0,11.7-7.3,11.7-14
			C558,935.4,555.3,931.5,550,931.5z"/>
		<path class="st0" d="M603.8,934.2H603c-1.5-0.8-3.3-1.1-4.9-1.1c-6.9,0-9.6,6.8-10.5,12.6l-3.2,19.9h-14.2l6-38.2
			c0.2-1.4,0.3-2.7,0.3-3.8c0-1.7-0.2-2.8-0.2-2.8h14.1c0,0,0.3,1,0.3,3c0,0.9-0.1,2.3-0.4,3.4c2.6-4.2,6.7-7.2,11.9-7.2
			c1.3,0,3.2,0.2,4.3,0.8L603.8,934.2z"/>
		<path class="st0" d="M410.4,900.4c-13.3,1.3-17,9-18.8,20.3h-5.6l-1.7,11.2h5.6l-5.6,34.6h14.2l5.6-34.6h7.1l2.2-11.3l-7.6,0.1
			c0.7-4.3,1.4-6.5,5.5-8.5c1.9-0.9,2.1-1.1,6.1-0.9l2.2-10.4C416.6,900.1,414.2,900.1,410.4,900.4z"/>
	</g>
	<g>
		<path class="st15" d="M360.6,969h-34c-2.2,0-4.3-0.9-5.9-2.4l-25.9-25.9c-2-2-2.5-4.9-1.5-7.4c1.1-2.6,3.5-4.2,6.3-4.2h31.8v-31.8
			c0-2.8,1.7-5.2,4.2-6.3c2.5-1,5.5-0.5,7.4,1.5l26,26c1.6,1.6,2.4,3.6,2.4,5.9v34C371.5,964.2,366.6,969,360.6,969z M328,957.3
			h31.7v-31.7l-16.6-16.6v31.7h-31.7L328,957.3z"/>
	</g>
</g>
<text transform="matrix(1 0 0 1 924.665 -2958.1384)"><tspan x="0" y="0" class="st0" style="font-family:'SFProDisplay-Bold'; font-size:147px; letter-spacing:-1;">The Universal JavaScript App Platform</tspan><tspan x="7.6" y="208" class="st0" style="font-family:'SFProDisplay-Bold'; font-size:147px; letter-spacing:-1;">for Professional Front-End Developers</tspan></text>
<rect x="-1162.5" y="-5409" style="fill:none;" width="0" height="8"/>
<text transform="matrix(1 0 0 1 871.166 -2072.9988)" style="font-family:'SFProDisplay-Bold'; font-size:12px;">v</text>
<rect x="-330" y="-7983" class="st1" width="2186" height="2186"/>
<g>
	<g>
		<path class="st0" d="M-2388.1-6961h56.7l-24.4,153.1c-0.7,5.1-1.1,9.8-1.1,13.5c0,8,1.1,12.7,1.1,12.7h-52.7c0,0-1.5-4.4-1.5-12.7
			c0-2.9,0-6.5,0.4-10.5h-0.4c-15.3,17.5-37.8,27.3-61.1,27.3c-43.9-3.7-62.8-34.9-62.8-77.4c0-55.3,30.4-107.8,92.2-107.8
			c18.9,0,40.7,5.2,50.5,22.7C-2390.3-6947.2-2389.2-6954.1-2388.1-6961z M-2436.2-6918.1c-29.8,0-48,28.4-48,56
			c0,20.7,12,36,33.5,36c29.8,0,48-28.4,48-56C-2402.8-6902.8-2414.8-6918.1-2436.2-6918.1z"/>
		<path class="st0" d="M-2192.5-6900.3c-9.1-12-25.5-17.5-40-17.5c-29.8,0-50.5,26.5-50.5,55.3c0,22.9,14.9,36.4,37.5,36.4
			c15.6,0,34.5-6.5,46.9-16.4l5.1,44.4c-17.5,14.2-47.3,20.4-68.7,20.4c-45.5,0-78.2-30.2-78.2-76c0-61.1,46.2-110.5,108.4-110.5
			c17.8,0,35.9,1.7,49,15.5L-2192.5-6900.3z"/>
		<path class="st0" d="M-2092.1-6961h38.5l-7.6,44.7h-38.2c-4,24.4-11.3,51.3-11.3,76c0,10.5,5.1,13.8,14.9,13.8
			c5.8,0,12-1.1,17.5-3.3l-4.4,46.2c-13.5,3.3-26.9,5.8-41.1,5.8c-28.7,0-45.8-13.1-45.8-42.9c0-31.6,8.7-65.1,13.5-95.6h-24.4
			l7.3-44.7h24.4l3.6-22.5c0.7-5.5,0.7-10.2,0.7-14.5c0-6.9-0.7-11.3-0.7-11.3h56.4c0,0,1.1,4,1.1,12c0,4.4-0.4,9.8-1.5,16.4
			L-2092.1-6961z"/>
		<path class="st0" d="M-1991.3-6777.7c-46.5,0-82.5-26.5-82.5-75.6c0-63.3,47.6-110.9,112-110.9c46.9,0,82.5,26.9,82.5,76
			C-1879.3-6825-1926.6-6777.7-1991.3-6777.7z M-1969.1-6917.7c-29.8,0-46.9,29.1-46.9,56c0,20.4,10.9,35.6,32.4,35.6
			c29.8,0,46.9-29.1,46.9-56C-1936.7-6902.4-1947.7-6917.7-1969.1-6917.7z"/>
		<path class="st0" d="M-1754-6907.2h-2.9c-5.8-3.3-13.1-4.4-19.6-4.4c-27.6,0-38.5,27.3-41.8,50.2l-12.7,79.6h-56.7l24-152.7
			c0.7-5.5,1.1-10.9,1.1-15.3c0-6.9-0.7-11.3-0.7-11.3h56.4c0,0,1.1,4,1.1,12c0,3.6-0.4,9.1-1.5,13.5c10.5-16.7,26.9-28.7,47.6-28.7
			c5.1,0,12.7,0.7,17.1,3.3L-1754-6907.2z"/>
		<path class="st0" d="M-2526.9-7042.1c-53.2,5.1-67.8,36-75.1,81.1h-22.2l-6.9,44.7h22.2L-2631-6778h56.7l22.2-138.2h28.5l8.6-45.1
			l-30.2,0.3c2.9-17.1,5.4-26,21.9-33.8c7.4-3.6,8.3-4.5,24.3-3.5l8.7-41.5C-2501.9-7043.6-2511.8-7043.5-2526.9-7042.1z"/>
	</g>
	<g>
		<path class="st15" d="M-2725.7-6768h-136.1c-8.8,0-17.1-3.4-23.4-9.7l-103.7-103.7c-7.8-7.8-10.2-19.5-5.9-29.7
			c4.2-10.3,14.1-16.9,25.2-16.9h127v-127.1c0-11.1,6.6-21,16.8-25.2c10.1-4.2,22.1-1.8,29.8,5.9l103.7,103.7
			c6.2,6.3,9.7,14.6,9.7,23.4v136C-2682.5-6787.4-2701.9-6768-2725.7-6768z M-2856.1-6814.7h126.9v-126.9l-66.5-66.5v126.9h-126.8
			L-2856.1-6814.7z"/>
	</g>
</g>
<g>
	<path class="st15" d="M1074.7-6430H646.8c-27.8,0-53.9-10.8-73.5-30.5l-326.1-326.1c-24.6-24.6-31.9-61.3-18.6-93.5
		c13.3-32.2,44.5-53,79.3-53h399.5v-399.5c0-34.8,20.8-65.9,52.9-79.2c31.7-13.2,69.4-5.7,93.6,18.5l326.2,326.2
		c19.6,19.8,30.4,45.8,30.4,73.5v427.8C1210.6-6490.9,1149.6-6430,1074.7-6430z M664.7-6577h398.9v-398.9L854.4-7185v398.9H455.5
		L664.7-6577z"/>
</g>
<g>
	<g>
		<path class="st12" d="M-1334.2,199.6h15.2l-6.5,41c-0.2,1.4-0.3,2.6-0.3,3.6c0,2.1,0.3,3.4,0.3,3.4h-14.1c0,0-0.4-1.2-0.4-3.4
			c0-0.8,0-1.8,0.1-2.8h-0.1c-4.1,4.7-10.1,7.3-16.3,7.3c-11.8-1-16.8-9.3-16.8-20.7c0-14.8,8.1-28.8,24.7-28.8
			c5.1,0,10.9,1.4,13.5,6.1C-1334.7,203.2-1334.5,201.4-1334.2,199.6z M-1347,211c-8,0-12.8,7.6-12.8,15c0,5.5,3.2,9.6,9,9.6
			c8,0,12.8-7.6,12.8-15C-1338.1,215.1-1341.3,211-1347,211z"/>
		<path class="st12" d="M-1281.8,215.8c-2.4-3.2-6.8-4.7-10.7-4.7c-8,0-13.5,7.1-13.5,14.8c0,6.1,4,9.7,10,9.7
			c4.2,0,9.2-1.8,12.6-4.4l1.4,11.9c-4.7,3.8-12.6,5.4-18.4,5.4c-12.2,0-20.9-8.1-20.9-20.3c0-16.3,12.4-29.6,29-29.6
			c4.8,0,9.6,0.4,13.1,4.1L-1281.8,215.8z"/>
		<path class="st12" d="M-1255,199.6h10.3l-2,12h-10.2c-1.1,6.5-3,13.7-3,20.3c0,2.8,1.4,3.7,4,3.7c1.6,0,3.2-0.3,4.7-0.9l-1.2,12.4
			c-3.6,0.9-7.2,1.6-11,1.6c-7.7,0-12.3-3.5-12.3-11.5c0-8.5,2.3-17.4,3.6-25.6h-6.5l1.9-12h6.5l1-6c0.2-1.5,0.2-2.7,0.2-3.9
			c0-1.8-0.2-3-0.2-3h15.1c0,0,0.3,1.1,0.3,3.2c0,1.2-0.1,2.6-0.4,4.4L-1255,199.6z"/>
		<path class="st12" d="M-1228,248.6c-12.5,0-22.1-7.1-22.1-20.2c0-16.9,12.7-29.7,30-29.7c12.6,0,22.1,7.2,22.1,20.3
			C-1198,235.9-1210.7,248.6-1228,248.6z M-1222.1,211.1c-8,0-12.5,7.8-12.5,15c0,5.4,2.9,9.5,8.7,9.5c8,0,12.5-7.8,12.5-15
			C-1213.4,215.2-1216.3,211.1-1222.1,211.1z"/>
		<path class="st12" d="M-1164.5,214h-0.8c-1.6-0.9-3.5-1.2-5.3-1.2c-7.4,0-10.3,7.3-11.2,13.4l-3.4,21.3h-15.2l6.4-40.9
			c0.2-1.5,0.3-2.9,0.3-4.1c0-1.8-0.2-3-0.2-3h15.1c0,0,0.3,1.1,0.3,3.2c0,1-0.1,2.4-0.4,3.6c2.8-4.5,7.2-7.7,12.7-7.7
			c1.4,0,3.4,0.2,4.6,0.9L-1164.5,214z"/>
		<path class="st12" d="M-1371.3,177.9c-14.2,1.4-18.1,9.6-20.1,21.7h-5.9l-1.8,12h5.9l-5.9,37h15.2l5.9-37h7.6l2.3-12.1l-8.1,0.1
			c0.8-4.6,1.5-6.9,5.9-9.1c2-1,2.2-1.2,6.5-0.9l2.3-11.1C-1364.6,177.5-1367.3,177.5-1371.3,177.9z"/>
	</g>
	<g>
		<path class="st14" d="M-1424.5,251.2h-36.4c-2.4,0-4.6-0.9-6.3-2.6l-27.7-27.7c-2.1-2.1-2.7-5.2-1.6-8c1.1-2.7,3.8-4.5,6.7-4.5h34
			v-34c0-3,1.8-5.6,4.5-6.7c2.7-1.1,5.9-0.5,8,1.6l27.8,27.8c1.7,1.7,2.6,3.9,2.6,6.3v36.4C-1412.9,246-1418.1,251.2-1424.5,251.2z
			 M-1459.4,238.7h33.9v-33.9l-17.8-17.8v33.9h-33.9L-1459.4,238.7z"/>
	</g>
</g>
<polygon style="fill:none;" points="-59.2,1562.5 -72.5,1562.5 -72.5,1562.5 -59.2,1562.5 "/>
<g>
	<path class="st14" d="M139.2,161H86.5c-3.4,0-6.6-1.3-9.1-3.8l-40.2-40.2c-3-3-3.9-7.6-2.3-11.5c1.6-4,5.5-6.5,9.8-6.5h49.2V49.8
		c0-4.3,2.6-8.1,6.5-9.8c3.9-1.6,8.5-0.7,11.5,2.3l40.2,40.2c2.4,2.4,3.7,5.6,3.7,9.1v52.7C155.9,153.5,148.4,161,139.2,161z
		 M88.7,142.9h49.1V93.8L112,68v49.1H62.9L88.7,142.9z"/>
</g>
</svg>
