<svg width="1589" height="1169" viewBox="0 0 1589 1169" fill="none" xmlns="http://www.w3.org/2000/svg">
<mask id="mask0_1227_644" style="mask-type:alpha" maskUnits="userSpaceOnUse" x="0" y="0" width="1589" height="1169">
<rect width="1589" height="1169" rx="55" fill="white"/>
</mask>
<g mask="url(#mask0_1227_644)">
<rect x="-16" y="-25" width="1655" height="1217.54" fill="white"/>
<rect x="-15" width="133" height="1218" fill="#F7F9FD"/>
<line x1="443.825" y1="205.292" x2="444.384" y2="205.292" stroke="black" stroke-width="0.558524"/>
<path d="M507.113 495.464C507.113 498.251 504.854 500.511 502.066 500.511L255.03 500.511C252.242 500.511 249.983 498.251 249.983 495.464L249.983 454.479C249.983 451.692 252.242 449.432 255.03 449.432L502.066 449.432C504.854 449.432 507.113 451.692 507.113 454.479L507.113 495.464Z" fill="#E3EBF4"/>
<path d="M1048.32 494.247C1048.32 497.035 1046.06 499.294 1043.28 499.294L796.239 499.294C793.451 499.294 791.192 497.035 791.192 494.247L791.192 453.263C791.192 450.476 793.451 448.216 796.239 448.216L1043.28 448.216C1046.06 448.216 1048.32 450.476 1048.32 453.263L1048.32 494.247Z" fill="#E3EBF4"/>
<path d="M1411 493.031C1411 495.819 1408.74 498.078 1405.95 498.078L1158.92 498.078C1156.13 498.078 1153.87 495.819 1153.87 493.031L1153.87 452.047C1153.87 449.26 1156.13 447 1158.92 447L1405.95 447C1408.74 447 1411 449.26 1411 452.047L1411 493.031Z" fill="#E3EBF4"/>
<path d="M507.113 615.862C507.113 618.65 504.854 620.909 502.066 620.909L255.03 620.909C252.242 620.909 249.983 618.65 249.983 615.862L249.983 574.878C249.983 572.091 252.242 569.831 255.03 569.831L502.066 569.831C504.854 569.831 507.113 572.091 507.113 574.878L507.113 615.862Z" fill="#E3EBF4"/>
<path d="M1048.32 614.646C1048.32 617.434 1046.06 619.693 1043.28 619.693L796.239 619.693C793.451 619.693 791.192 617.434 791.192 614.646L791.192 573.662C791.192 570.875 793.451 568.615 796.239 568.615L1043.28 568.615C1046.06 568.615 1048.32 570.875 1048.32 573.662L1048.32 614.646Z" fill="#E3EBF4"/>
<path d="M1411 613.43C1411 616.218 1408.74 618.477 1405.95 618.477L1158.92 618.477C1156.13 618.477 1153.87 616.218 1153.87 613.43L1153.87 572.446C1153.87 569.658 1156.13 567.399 1158.92 567.399L1405.95 567.399C1408.74 567.399 1411 569.658 1411 572.446L1411 613.43Z" fill="#E3EBF4"/>
<path d="M507.113 736.261C507.113 739.049 504.854 741.308 502.066 741.308L255.03 741.308C252.242 741.308 249.983 739.049 249.983 736.261L249.983 695.277C249.983 692.49 252.242 690.23 255.03 690.23L502.066 690.23C504.854 690.23 507.113 692.49 507.113 695.277L507.113 736.261Z" fill="#E3EBF4"/>
<path d="M1048.32 735.045C1048.32 737.833 1046.06 740.092 1043.28 740.092L796.239 740.092C793.451 740.092 791.192 737.833 791.192 735.045L791.192 694.061C791.192 691.274 793.451 689.014 796.239 689.014L1043.28 689.014C1046.06 689.014 1048.32 691.274 1048.32 694.061L1048.32 735.045Z" fill="#E3EBF4"/>
<path d="M1411 733.829C1411 736.616 1408.74 738.876 1405.95 738.876L1158.92 738.876C1156.13 738.876 1153.87 736.616 1153.87 733.829L1153.87 692.845C1153.87 690.057 1156.13 687.798 1158.92 687.798L1405.95 687.798C1408.74 687.798 1411 690.057 1411 692.845L1411 733.829Z" fill="#E3EBF4"/>
<path d="M507.113 856.66C507.113 859.447 504.854 861.707 502.066 861.707L255.03 861.707C252.242 861.707 249.983 859.447 249.983 856.66L249.983 815.676C249.983 812.888 252.242 810.629 255.03 810.629L502.066 810.629C504.854 810.629 507.113 812.888 507.113 815.676L507.113 856.66Z" fill="#E3EBF4"/>
<path d="M1048.32 855.444C1048.32 858.231 1046.06 860.491 1043.28 860.491L796.239 860.491C793.451 860.491 791.192 858.231 791.192 855.444L791.192 814.46C791.192 811.672 793.451 809.413 796.239 809.413L1043.28 809.413C1046.06 809.413 1048.32 811.672 1048.32 814.46L1048.32 855.444Z" fill="#E3EBF4"/>
<path d="M1411 854.228C1411 857.015 1408.74 859.275 1405.95 859.275L1158.92 859.275C1156.13 859.275 1153.87 857.015 1153.87 854.228L1153.87 813.244C1153.87 810.456 1156.13 808.197 1158.92 808.197L1405.95 808.197C1408.74 808.197 1411 810.456 1411 813.244L1411 854.228Z" fill="#E3EBF4"/>
<path d="M507.113 977.059C507.113 979.846 504.854 982.106 502.066 982.106L255.03 982.106C252.242 982.106 249.983 979.846 249.983 977.059L249.983 936.075C249.983 933.287 252.242 931.028 255.03 931.028L502.066 931.028C504.854 931.028 507.113 933.287 507.113 936.075L507.113 977.059Z" fill="#E3EBF4"/>
<path d="M1048.32 975.843C1048.32 978.63 1046.06 980.89 1043.28 980.89L796.239 980.89C793.451 980.89 791.192 978.63 791.192 975.843L791.192 934.859C791.192 932.071 793.451 929.812 796.239 929.812L1043.28 929.812C1046.06 929.812 1048.32 932.071 1048.32 934.859L1048.32 975.843Z" fill="#E3EBF4"/>
<path d="M1411 974.627C1411 977.414 1408.74 979.674 1405.95 979.674L1158.92 979.674C1156.13 979.674 1153.87 977.414 1153.87 974.627L1153.87 933.642C1153.87 930.855 1156.13 928.595 1158.92 928.595L1405.95 928.595C1408.74 928.595 1411 930.855 1411 933.642L1411 974.627Z" fill="#E3EBF4"/>
<path d="M507.113 1097.46C507.113 1100.25 504.854 1102.5 502.066 1102.5L255.03 1102.5C252.242 1102.5 249.983 1100.25 249.983 1097.46L249.983 1056.47C249.983 1053.69 252.242 1051.43 255.03 1051.43L502.066 1051.43C504.854 1051.43 507.113 1053.69 507.113 1056.47L507.113 1097.46Z" fill="#E3EBF4"/>
<path d="M1048.32 1096.24C1048.32 1099.03 1046.06 1101.29 1043.28 1101.29L796.239 1101.29C793.451 1101.29 791.192 1099.03 791.192 1096.24L791.192 1055.26C791.192 1052.47 793.451 1050.21 796.239 1050.21L1043.28 1050.21C1046.06 1050.21 1048.32 1052.47 1048.32 1055.26L1048.32 1096.24Z" fill="#E3EBF4"/>
<path d="M1411 1095.03C1411 1097.81 1408.74 1100.07 1405.95 1100.07L1158.92 1100.07C1156.13 1100.07 1153.87 1097.81 1153.87 1095.03L1153.87 1054.04C1153.87 1051.25 1156.13 1048.99 1158.92 1048.99L1405.95 1048.99C1408.74 1048.99 1411 1051.25 1411 1054.04L1411 1095.03Z" fill="#E3EBF4"/>
<path d="M292.694 318.821C292.694 322.018 291.851 324.981 290.166 327.713C288.539 330.386 286.098 332.595 282.843 334.338C279.647 336.023 275.841 336.953 271.424 337.128V344.189H265.845V337.041C259.684 336.517 254.715 334.687 250.938 331.549C247.16 328.352 245.155 324.023 244.923 318.56H260.788C261.137 322.047 262.823 324.284 265.845 325.272V311.499C261.312 310.336 257.679 309.203 254.948 308.099C252.274 306.995 249.921 305.222 247.887 302.781C245.853 300.34 244.836 296.999 244.836 292.756C244.836 287.468 246.783 283.225 250.676 280.029C254.628 276.832 259.684 275.031 265.845 274.624V267.563H271.424V274.624C277.526 275.089 282.349 276.861 285.895 279.942C289.44 283.022 291.416 287.293 291.822 292.756H275.87C275.521 289.618 274.039 287.584 271.424 286.654V300.166C276.247 301.503 279.967 302.694 282.582 303.74C285.197 304.786 287.522 306.53 289.556 308.971C291.648 311.353 292.694 314.637 292.694 318.821ZM260.614 292.059C260.614 293.512 261.05 294.732 261.922 295.72C262.852 296.708 264.159 297.58 265.845 298.335V286.218C264.217 286.509 262.939 287.148 262.009 288.136C261.079 289.066 260.614 290.373 260.614 292.059ZM271.424 325.534C273.167 325.243 274.533 324.546 275.521 323.441C276.567 322.337 277.09 320.971 277.09 319.344C277.09 317.833 276.596 316.613 275.608 315.683C274.678 314.695 273.283 313.852 271.424 313.155V325.534ZM301.081 290.926C301.313 284.707 303.347 279.913 307.183 276.542C311.018 273.171 316.22 271.486 322.787 271.486C327.146 271.486 330.865 272.241 333.945 273.752C337.083 275.263 339.437 277.326 341.006 279.942C342.633 282.557 343.447 285.492 343.447 288.746C343.447 292.582 342.488 295.72 340.57 298.161C338.652 300.544 336.415 302.171 333.858 303.043V303.391C337.171 304.496 339.786 306.326 341.704 308.883C343.621 311.44 344.58 314.724 344.58 318.734C344.58 322.337 343.738 325.534 342.052 328.323C340.425 331.055 338.013 333.205 334.817 334.774C331.679 336.343 327.93 337.128 323.571 337.128C316.597 337.128 311.018 335.413 306.834 331.984C302.708 328.556 300.528 323.383 300.296 316.467H314.767C314.825 319.025 315.551 321.059 316.946 322.57C318.341 324.023 320.375 324.749 323.048 324.749C325.315 324.749 327.058 324.11 328.279 322.831C329.557 321.495 330.197 319.751 330.197 317.601C330.197 314.811 329.296 312.806 327.494 311.586C325.751 310.307 322.932 309.668 319.038 309.668H316.249V297.551H319.038C322.002 297.551 324.385 297.057 326.187 296.069C328.046 295.023 328.976 293.192 328.976 290.577C328.976 288.485 328.395 286.857 327.233 285.695C326.07 284.533 324.472 283.952 322.438 283.952C320.23 283.952 318.573 284.62 317.469 285.957C316.423 287.293 315.813 288.95 315.639 290.926H301.081ZM362.056 302.432C356.593 299.527 353.862 294.965 353.862 288.746C353.862 285.608 354.675 282.76 356.302 280.203C357.93 277.588 360.4 275.525 363.712 274.014C367.025 272.445 371.093 271.66 375.917 271.66C380.74 271.66 384.779 272.445 388.034 274.014C391.346 275.525 393.816 277.588 395.444 280.203C397.071 282.76 397.884 285.608 397.884 288.746C397.884 291.884 397.129 294.616 395.618 296.941C394.165 299.265 392.189 301.096 389.69 302.432C392.828 303.943 395.24 306.036 396.926 308.709C398.611 311.324 399.454 314.404 399.454 317.949C399.454 322.076 398.407 325.65 396.315 328.672C394.223 331.636 391.375 333.902 387.772 335.471C384.227 337.041 380.275 337.825 375.917 337.825C371.558 337.825 367.577 337.041 363.974 335.471C360.429 333.902 357.61 331.636 355.518 328.672C353.426 325.65 352.38 322.076 352.38 317.949C352.38 314.346 353.222 311.237 354.908 308.622C356.593 305.948 358.976 303.885 362.056 302.432ZM383.414 291.013C383.414 288.63 382.716 286.799 381.321 285.521C379.985 284.184 378.183 283.516 375.917 283.516C373.65 283.516 371.819 284.184 370.425 285.521C369.088 286.857 368.42 288.717 368.42 291.1C368.42 293.366 369.117 295.168 370.512 296.505C371.907 297.783 373.708 298.422 375.917 298.422C378.125 298.422 379.927 297.754 381.321 296.417C382.716 295.081 383.414 293.279 383.414 291.013ZM375.917 308.883C373.185 308.883 370.977 309.639 369.291 311.15C367.606 312.603 366.763 314.637 366.763 317.252C366.763 319.693 367.577 321.698 369.204 323.267C370.89 324.836 373.127 325.621 375.917 325.621C378.706 325.621 380.886 324.836 382.455 323.267C384.082 321.698 384.896 319.693 384.896 317.252C384.896 314.695 384.053 312.661 382.367 311.15C380.74 309.639 378.59 308.883 375.917 308.883ZM437.848 290.141C437.383 287.991 436.57 286.392 435.407 285.346C434.245 284.242 432.589 283.69 430.438 283.69C427.126 283.69 424.743 285.143 423.29 288.049C421.837 290.896 421.082 295.43 421.024 301.648C422.302 299.614 424.133 298.016 426.516 296.853C428.956 295.691 431.63 295.11 434.536 295.11C440.231 295.11 444.793 296.911 448.222 300.515C451.709 304.118 453.452 309.145 453.452 315.596C453.452 319.838 452.581 323.558 450.837 326.754C449.152 329.95 446.653 332.449 443.34 334.251C440.086 336.053 436.221 336.953 431.746 336.953C422.796 336.953 416.578 334.164 413.091 328.585C409.604 322.947 407.86 314.869 407.86 304.35C407.86 293.308 409.691 285.114 413.352 279.767C417.072 274.362 423 271.66 431.136 271.66C435.495 271.66 439.156 272.532 442.12 274.275C445.142 275.961 447.408 278.198 448.919 280.988C450.488 283.777 451.418 286.828 451.709 290.141H437.848ZM430.961 306.878C428.462 306.878 426.37 307.634 424.685 309.145C423.058 310.598 422.244 312.69 422.244 315.421C422.244 318.211 423 320.39 424.511 321.959C426.08 323.529 428.288 324.313 431.136 324.313C433.693 324.313 435.698 323.558 437.151 322.047C438.662 320.477 439.417 318.356 439.417 315.683C439.417 312.951 438.691 310.801 437.238 309.232C435.785 307.663 433.693 306.878 430.961 306.878ZM477.662 322.831L467.986 347.85H458.484L463.54 322.831H477.662ZM528.233 285.957H501.034V297.987C502.197 296.708 503.824 295.662 505.916 294.848C508.008 294.035 510.275 293.628 512.716 293.628C517.074 293.628 520.677 294.616 523.525 296.592C526.431 298.568 528.552 301.125 529.889 304.263C531.226 307.401 531.894 310.801 531.894 314.462C531.894 321.262 529.976 326.667 526.14 330.677C522.305 334.629 516.9 336.605 509.926 336.605C505.277 336.605 501.238 335.82 497.809 334.251C494.38 332.624 491.736 330.386 489.876 327.539C488.016 324.691 486.999 321.407 486.825 317.688H501.383C501.732 319.49 502.574 321.001 503.911 322.221C505.248 323.383 507.078 323.964 509.403 323.964C512.134 323.964 514.168 323.093 515.505 321.349C516.842 319.606 517.51 317.281 517.51 314.375C517.51 311.528 516.813 309.348 515.418 307.837C514.023 306.326 511.989 305.571 509.316 305.571C507.34 305.571 505.713 306.065 504.434 307.053C503.156 307.983 502.313 309.232 501.906 310.801H487.522V272.881H528.233V285.957ZM538.379 303.914C538.379 293.918 540.297 286.044 544.132 280.29C548.026 274.537 554.273 271.66 562.875 271.66C571.476 271.66 577.694 274.537 581.53 280.29C585.424 286.044 587.37 293.918 587.37 303.914C587.37 314.027 585.424 321.959 581.53 327.713C577.694 333.466 571.476 336.343 562.875 336.343C554.273 336.343 548.026 333.466 544.132 327.713C540.297 321.959 538.379 314.027 538.379 303.914ZM572.725 303.914C572.725 298.045 572.086 293.541 570.807 290.402C569.529 287.206 566.885 285.608 562.875 285.608C558.865 285.608 556.22 287.206 554.942 290.402C553.663 293.541 553.024 298.045 553.024 303.914C553.024 307.866 553.256 311.15 553.721 313.765C554.186 316.322 555.116 318.414 556.511 320.042C557.964 321.611 560.085 322.395 562.875 322.395C565.664 322.395 567.756 321.611 569.151 320.042C570.604 318.414 571.563 316.322 572.028 313.765C572.493 311.15 572.725 307.866 572.725 303.914ZM593.503 303.914C593.503 293.918 595.42 286.044 599.256 280.29C603.15 274.537 609.397 271.66 617.998 271.66C626.6 271.66 632.818 274.537 636.654 280.29C640.547 286.044 642.494 293.918 642.494 303.914C642.494 314.027 640.547 321.959 636.654 327.713C632.818 333.466 626.6 336.343 617.998 336.343C609.397 336.343 603.15 333.466 599.256 327.713C595.42 321.959 593.503 314.027 593.503 303.914ZM627.849 303.914C627.849 298.045 627.21 293.541 625.931 290.402C624.653 287.206 622.008 285.608 617.998 285.608C613.988 285.608 611.344 287.206 610.066 290.402C608.787 293.541 608.148 298.045 608.148 303.914C608.148 307.866 608.38 311.15 608.845 313.765C609.31 316.322 610.24 318.414 611.635 320.042C613.088 321.611 615.209 322.395 617.998 322.395C620.788 322.395 622.88 321.611 624.275 320.042C625.728 318.414 626.687 316.322 627.152 313.765C627.617 311.15 627.849 307.866 627.849 303.914Z" fill="#2F364E"/>
<path d="M789.054 286.828V272.968H813.201V336.605H797.684V286.828H789.054ZM839.177 322.831L829.501 347.85H819.999L825.055 322.831H839.177ZM855.401 302.432C849.938 299.527 847.206 294.965 847.206 288.746C847.206 285.608 848.02 282.76 849.647 280.203C851.274 277.588 853.744 275.525 857.057 274.014C860.37 272.445 864.438 271.66 869.261 271.66C874.085 271.66 878.124 272.445 881.379 274.014C884.691 275.525 887.161 277.588 888.788 280.203C890.416 282.76 891.229 285.608 891.229 288.746C891.229 291.884 890.474 294.616 888.963 296.941C887.51 299.265 885.534 301.096 883.035 302.432C886.173 303.943 888.585 306.036 890.27 308.709C891.956 311.324 892.798 314.404 892.798 317.949C892.798 322.076 891.752 325.65 889.66 328.672C887.568 331.636 884.72 333.902 881.117 335.471C877.572 337.041 873.62 337.825 869.261 337.825C864.903 337.825 860.922 337.041 857.319 335.471C853.773 333.902 850.955 331.636 848.863 328.672C846.77 325.65 845.724 322.076 845.724 317.949C845.724 314.346 846.567 311.237 848.252 308.622C849.938 305.948 852.321 303.885 855.401 302.432ZM876.758 291.013C876.758 288.63 876.061 286.799 874.666 285.521C873.329 284.184 871.528 283.516 869.261 283.516C866.995 283.516 865.164 284.184 863.769 285.521C862.433 286.857 861.764 288.717 861.764 291.1C861.764 293.366 862.462 295.168 863.857 296.505C865.251 297.783 867.053 298.422 869.261 298.422C871.47 298.422 873.271 297.754 874.666 296.417C876.061 295.081 876.758 293.279 876.758 291.013ZM869.261 308.883C866.53 308.883 864.322 309.639 862.636 311.15C860.951 312.603 860.108 314.637 860.108 317.252C860.108 319.693 860.922 321.698 862.549 323.267C864.234 324.836 866.472 325.621 869.261 325.621C872.051 325.621 874.23 324.836 875.799 323.267C877.427 321.698 878.24 319.693 878.24 317.252C878.24 314.695 877.398 312.661 875.712 311.15C874.085 309.639 871.935 308.883 869.261 308.883ZM899.2 324.662C901.176 323.093 902.077 322.366 901.903 322.482C907.598 317.775 912.073 313.91 915.327 310.888C918.64 307.866 921.429 304.699 923.696 301.386C925.963 298.074 927.096 294.848 927.096 291.71C927.096 289.327 926.544 287.468 925.439 286.131C924.335 284.794 922.679 284.126 920.471 284.126C918.262 284.126 916.519 284.969 915.24 286.654C914.02 288.281 913.409 290.606 913.409 293.628H899.026C899.142 288.688 900.188 284.562 902.164 281.249C904.198 277.937 906.842 275.496 910.097 273.927C913.409 272.357 917.071 271.573 921.081 271.573C927.997 271.573 933.198 273.345 936.685 276.891C940.23 280.436 942.003 285.056 942.003 290.751C942.003 296.97 939.881 302.752 935.639 308.099C931.396 313.387 925.992 318.56 919.424 323.616H942.961V335.733H899.2V324.662ZM946.212 286.828V272.968H970.359V336.605H954.842V286.828H946.212Z" fill="#2F364E"/>
<path d="M1157.19 286.434C1157.43 280.216 1159.46 275.421 1163.3 272.05C1167.13 268.68 1172.33 266.994 1178.9 266.994C1183.26 266.994 1186.98 267.75 1190.06 269.261C1193.2 270.772 1195.55 272.835 1197.12 275.45C1198.75 278.065 1199.56 281 1199.56 284.255C1199.56 288.09 1198.6 291.229 1196.68 293.67C1194.76 296.052 1192.53 297.68 1189.97 298.551V298.9C1193.28 300.004 1195.9 301.835 1197.82 304.392C1199.73 306.949 1200.69 310.233 1200.69 314.243C1200.69 317.846 1199.85 321.042 1198.16 323.832C1196.54 326.563 1194.13 328.713 1190.93 330.283C1187.79 331.852 1184.04 332.636 1179.68 332.636C1172.71 332.636 1167.13 330.922 1162.95 327.493C1158.82 324.064 1156.64 318.892 1156.41 311.976H1170.88C1170.94 314.533 1171.66 316.567 1173.06 318.078C1174.45 319.531 1176.49 320.258 1179.16 320.258C1181.43 320.258 1183.17 319.618 1184.39 318.34C1185.67 317.003 1186.31 315.26 1186.31 313.109C1186.31 310.32 1185.41 308.315 1183.61 307.094C1181.86 305.816 1179.04 305.177 1175.15 305.177H1172.36V293.059H1175.15C1178.11 293.059 1180.5 292.565 1182.3 291.577C1184.16 290.531 1185.09 288.701 1185.09 286.085C1185.09 283.993 1184.51 282.366 1183.35 281.204C1182.18 280.041 1180.58 279.46 1178.55 279.46C1176.34 279.46 1174.69 280.129 1173.58 281.465C1172.54 282.802 1171.93 284.458 1171.75 286.434H1157.19ZM1216.16 332.811C1213.55 332.811 1211.4 332.055 1209.71 330.544C1208.09 328.975 1207.27 327.057 1207.27 324.791C1207.27 322.466 1208.09 320.519 1209.71 318.95C1211.4 317.381 1213.55 316.596 1216.16 316.596C1218.72 316.596 1220.81 317.381 1222.44 318.95C1224.13 320.519 1224.97 322.466 1224.97 324.791C1224.97 327.057 1224.13 328.975 1222.44 330.544C1220.81 332.055 1218.72 332.811 1216.16 332.811ZM1230.92 320.781V308.751L1258.46 269.348H1275.11V307.879H1282.26V320.781H1275.11V332.113H1260.21V320.781H1230.92ZM1261.25 285.737L1246.61 307.879H1261.25V285.737ZM1286.6 284.516C1286.6 279.809 1287.94 276.177 1290.61 273.62C1293.34 271.062 1296.86 269.784 1301.16 269.784C1305.46 269.784 1308.94 271.062 1311.62 273.62C1314.29 276.177 1315.63 279.809 1315.63 284.516C1315.63 289.224 1314.29 292.856 1311.62 295.413C1308.94 297.97 1305.46 299.249 1301.16 299.249C1296.86 299.249 1293.34 297.97 1290.61 295.413C1287.94 292.856 1286.6 289.224 1286.6 284.516ZM1345.79 270.743L1312.23 332.113H1297.84L1331.41 270.743H1345.79ZM1301.07 278.501C1298.28 278.501 1296.89 280.506 1296.89 284.516C1296.89 288.468 1298.28 290.444 1301.07 290.444C1302.41 290.444 1303.45 289.95 1304.21 288.962C1304.96 287.974 1305.34 286.492 1305.34 284.516C1305.34 280.506 1303.92 278.501 1301.07 278.501ZM1328.09 318.34C1328.09 313.632 1329.43 310 1332.1 307.443C1334.78 304.886 1338.26 303.607 1342.56 303.607C1346.86 303.607 1350.35 304.886 1353.03 307.443C1355.7 310 1357.04 313.632 1357.04 318.34C1357.04 323.047 1355.7 326.679 1353.03 329.237C1350.35 331.794 1346.86 333.072 1342.56 333.072C1338.26 333.072 1334.78 331.794 1332.1 329.237C1329.43 326.679 1328.09 323.047 1328.09 318.34ZM1342.48 312.325C1341.14 312.325 1340.09 312.819 1339.34 313.807C1338.64 314.795 1338.29 316.306 1338.29 318.34C1338.29 322.292 1339.69 324.268 1342.48 324.268C1343.81 324.268 1344.86 323.774 1345.62 322.786C1346.37 321.798 1346.75 320.316 1346.75 318.34C1346.75 316.364 1346.37 314.882 1345.62 313.894C1344.86 312.848 1343.81 312.325 1342.48 312.325Z" fill="#2F364E"/>
</g>
</svg>
