<svg width="690" height="484" viewBox="0 0 690 484" fill="none" xmlns="http://www.w3.org/2000/svg">
<rect width="690" height="484" rx="48.1992" fill="white"/>
<path d="M214.963 130.545C211.768 130.545 208.906 130.026 206.375 128.989C203.844 127.952 201.811 126.417 200.276 124.384C198.783 122.351 197.994 119.903 197.912 117.041H209.237C209.403 118.659 209.963 119.903 210.918 120.775C211.872 121.604 213.116 122.019 214.651 122.019C216.228 122.019 217.473 121.667 218.385 120.961C219.298 120.215 219.754 119.198 219.754 117.912C219.754 116.833 219.381 115.941 218.634 115.236C217.929 114.531 217.037 113.95 215.958 113.494C214.921 113.037 213.428 112.519 211.478 111.938C208.657 111.067 206.354 110.195 204.57 109.324C202.786 108.453 201.251 107.167 199.965 105.466C198.679 103.765 198.036 101.546 198.036 98.8074C198.036 94.7417 199.509 91.5679 202.454 89.2862C205.4 86.9629 209.237 85.8013 213.967 85.8013C218.779 85.8013 222.658 86.9629 225.604 89.2862C228.549 91.5679 230.126 94.7624 230.333 98.8696H218.821C218.738 97.4591 218.219 96.3597 217.265 95.5714C216.311 94.7417 215.087 94.3268 213.594 94.3268C212.307 94.3268 211.27 94.6795 210.482 95.3847C209.694 96.0485 209.3 97.0235 209.3 98.3095C209.3 99.7201 209.963 100.819 211.291 101.608C212.619 102.396 214.693 103.246 217.514 104.159C220.335 105.113 222.617 106.026 224.359 106.897C226.143 107.769 227.678 109.034 228.964 110.693C230.25 112.353 230.893 114.489 230.893 117.103C230.893 119.592 230.25 121.853 228.964 123.886C227.72 125.919 225.894 127.537 223.488 128.74C221.082 129.943 218.24 130.545 214.963 130.545ZM269.242 95.3847V130.109H258.6V125.38C257.522 126.915 256.049 128.159 254.182 129.113C252.357 130.026 250.324 130.483 248.084 130.483C245.428 130.483 243.084 129.902 241.052 128.74C239.019 127.537 237.442 125.815 236.322 123.575C235.202 121.335 234.642 118.7 234.642 115.672V95.3847H245.221V114.24C245.221 116.564 245.823 118.368 247.026 119.654C248.229 120.941 249.847 121.584 251.88 121.584C253.954 121.584 255.593 120.941 256.796 119.654C257.999 118.368 258.6 116.564 258.6 114.24V95.3847H269.242ZM285.038 100.301C286.033 98.6829 287.465 97.3761 289.331 96.3804C291.198 95.3847 293.335 94.8869 295.741 94.8869C298.604 94.8869 301.197 95.6129 303.52 97.0649C305.843 98.517 307.669 100.591 308.996 103.288C310.365 105.985 311.05 109.117 311.05 112.685C311.05 116.253 310.365 119.406 308.996 122.144C307.669 124.84 305.843 126.935 303.52 128.429C301.197 129.881 298.604 130.607 295.741 130.607C293.293 130.607 291.157 130.13 289.331 129.176C287.506 128.18 286.075 126.873 285.038 125.255V130.109H274.396V84.0588H285.038V100.301ZM300.222 112.685C300.222 110.03 299.475 107.955 297.981 106.462C296.529 104.927 294.725 104.159 292.567 104.159C290.452 104.159 288.647 104.927 287.153 106.462C285.701 107.997 284.975 110.092 284.975 112.747C284.975 115.402 285.701 117.497 287.153 119.032C288.647 120.567 290.452 121.335 292.567 121.335C294.683 121.335 296.488 120.567 297.981 119.032C299.475 117.456 300.222 115.34 300.222 112.685ZM328.269 130.607C325.241 130.607 322.544 130.088 320.18 129.051C317.815 128.014 315.948 126.604 314.579 124.82C313.21 122.994 312.442 120.961 312.276 118.721H322.793C322.918 119.924 323.478 120.899 324.473 121.646C325.469 122.393 326.693 122.766 328.145 122.766C329.473 122.766 330.489 122.517 331.194 122.019C331.941 121.48 332.314 120.795 332.314 119.966C332.314 118.97 331.796 118.244 330.759 117.788C329.722 117.29 328.041 116.75 325.718 116.17C323.229 115.589 321.155 114.987 319.495 114.365C317.836 113.701 316.404 112.685 315.201 111.316C313.998 109.905 313.397 108.017 313.397 105.653C313.397 103.661 313.936 101.857 315.014 100.239C316.135 98.5792 317.753 97.2724 319.868 96.3182C322.026 95.364 324.577 94.8869 327.523 94.8869C331.879 94.8869 335.302 95.9655 337.791 98.1229C340.321 100.28 341.773 103.143 342.147 106.711H332.314C332.149 105.507 331.609 104.553 330.696 103.848C329.825 103.143 328.664 102.79 327.212 102.79C325.967 102.79 325.013 103.039 324.349 103.537C323.685 103.993 323.353 104.636 323.353 105.466C323.353 106.462 323.872 107.208 324.909 107.706C325.988 108.204 327.647 108.702 329.887 109.2C332.46 109.864 334.555 110.527 336.173 111.191C337.791 111.813 339.201 112.851 340.404 114.303C341.649 115.713 342.292 117.622 342.334 120.028C342.334 122.061 341.753 123.886 340.591 125.504C339.471 127.081 337.832 128.325 335.675 129.238C333.559 130.151 331.091 130.607 328.269 130.607ZM344.239 112.747C344.239 109.138 344.965 105.985 346.417 103.288C347.91 100.591 349.964 98.517 352.578 97.0649C355.233 95.6129 358.261 94.8869 361.663 94.8869C366.019 94.8869 369.649 96.0278 372.554 98.3095C375.499 100.591 377.428 103.807 378.341 107.955H367.015C366.061 105.3 364.215 103.972 361.477 103.972C359.527 103.972 357.971 104.74 356.809 106.275C355.648 107.769 355.067 109.926 355.067 112.747C355.067 115.568 355.648 117.746 356.809 119.281C357.971 120.775 359.527 121.521 361.477 121.521C364.215 121.521 366.061 120.194 367.015 117.539H378.341C377.428 121.604 375.499 124.799 372.554 127.122C369.608 129.445 365.978 130.607 361.663 130.607C358.261 130.607 355.233 129.881 352.578 128.429C349.964 126.977 347.91 124.903 346.417 122.206C344.965 119.509 344.239 116.356 344.239 112.747ZM392.185 101.172C393.43 99.2637 394.986 97.7702 396.852 96.6916C398.719 95.5714 400.794 95.0113 403.075 95.0113V106.275H400.151C397.495 106.275 395.504 106.856 394.177 108.017C392.849 109.138 392.185 111.129 392.185 113.992V130.109H381.544V95.3847H392.185V101.172ZM411.024 91.7754C409.157 91.7754 407.622 91.2361 406.419 90.1574C405.258 89.0373 404.677 87.6682 404.677 86.0502C404.677 84.3907 405.258 83.0217 406.419 81.943C407.622 80.8229 409.157 80.2628 411.024 80.2628C412.85 80.2628 414.343 80.8229 415.505 81.943C416.708 83.0217 417.31 84.3907 417.31 86.0502C417.31 87.6682 416.708 89.0373 415.505 90.1574C414.343 91.2361 412.85 91.7754 411.024 91.7754ZM416.314 95.3847V130.109H405.673V95.3847H416.314ZM432.178 100.301C433.173 98.6829 434.605 97.3761 436.472 96.3804C438.339 95.3847 440.475 94.8869 442.881 94.8869C445.744 94.8869 448.337 95.6129 450.66 97.0649C452.983 98.517 454.809 100.591 456.136 103.288C457.505 105.985 458.19 109.117 458.19 112.685C458.19 116.253 457.505 119.406 456.136 122.144C454.809 124.84 452.983 126.935 450.66 128.429C448.337 129.881 445.744 130.607 442.881 130.607C440.434 130.607 438.297 130.13 436.472 129.176C434.646 128.18 433.215 126.873 432.178 125.255V130.109H421.536V84.0588H432.178V100.301ZM447.362 112.685C447.362 110.03 446.615 107.955 445.122 106.462C443.67 104.927 441.865 104.159 439.708 104.159C437.592 104.159 435.787 104.927 434.294 106.462C432.842 107.997 432.116 110.092 432.116 112.747C432.116 115.402 432.842 117.497 434.294 119.032C435.787 120.567 437.592 121.335 439.708 121.335C441.823 121.335 443.628 120.567 445.122 119.032C446.615 117.456 447.362 115.34 447.362 112.685ZM494.016 112.187C494.016 113.183 493.954 114.22 493.83 115.298H469.747C469.913 117.456 470.597 119.115 471.8 120.277C473.045 121.397 474.559 121.957 476.343 121.957C478.998 121.957 480.844 120.837 481.882 118.597H493.207C492.627 120.878 491.569 122.932 490.034 124.757C488.54 126.583 486.653 128.014 484.371 129.051C482.089 130.088 479.538 130.607 476.717 130.607C473.315 130.607 470.286 129.881 467.631 128.429C464.976 126.977 462.901 124.903 461.408 122.206C459.914 119.509 459.168 116.356 459.168 112.747C459.168 109.138 459.894 105.985 461.346 103.288C462.839 100.591 464.914 98.517 467.569 97.0649C470.224 95.6129 473.273 94.8869 476.717 94.8869C480.077 94.8869 483.064 95.5922 485.678 97.0027C488.291 98.4133 490.324 100.425 491.776 103.039C493.27 105.653 494.016 108.702 494.016 112.187ZM483.126 109.387C483.126 107.561 482.504 106.109 481.259 105.03C480.015 103.952 478.459 103.412 476.592 103.412C474.808 103.412 473.294 103.931 472.049 104.968C470.846 106.005 470.099 107.478 469.809 109.387H483.126Z" fill="#50546A"/>
<rect x="426.997" y="412.095" width="336.596" height="78.3854" rx="16.1382" transform="rotate(-180 426.997 412.095)" fill="#FAFCFD" stroke="#B0BFD2" stroke-width="2.30545"/>
<rect x="602.211" y="413.247" width="144.091" height="80.6909" rx="17.2909" transform="rotate(-180 602.211 413.247)" fill="black"/>
<rect x="602.211" y="212.673" width="512.964" height="29.9709" rx="6.30476" transform="rotate(-180 602.211 212.673)" fill="#D9E4F1"/>
<rect x="522.673" y="268.004" width="433.425" height="29.9709" rx="6.30476" transform="rotate(-180 522.673 268.004)" fill="#D9E4F1"/>
</svg>
