<svg width="28" height="48" viewBox="0 0 28 48" fill="none" xmlns="http://www.w3.org/2000/svg">
<path d="M0 24C0 17.6 0 11.2 0 4.8C0 1.88073 1.90036 0 4.85455 0C10.9273 0 16.9971 0 23.064 0C26.0836 0 27.9273 1.86545 27.9273 4.91127C27.9273 17.6691 27.9273 30.4276 27.9273 43.1869C27.9273 46.128 26.04 47.9978 23.0771 48C16.968 48 10.8589 48 4.74982 48C1.896 48 0 46.08 0 43.2C0 36.8 0 30.4 0 24ZM1.82182 7.02545V39.1855H26.1273V7.032L1.82182 7.02545ZM26.1818 41.0989H1.74545C1.74545 42.048 1.71273 42.9185 1.74545 43.7847C1.81527 45.2575 2.76873 46.1847 4.26327 46.2458C4.95273 46.2785 5.64436 46.2458 6.33382 46.2458C12.0065 46.2458 17.6727 46.2458 23.3324 46.2458C25.2065 46.2458 26.1382 45.2989 26.1687 43.4335C26.1818 42.6785 26.1818 41.9215 26.1818 41.0989ZM1.79782 5.16873H26.1295C26.2909 2.69018 25.4269 1.74545 23.016 1.74545C16.9811 1.74545 10.9491 1.74545 4.92 1.74545C2.51564 1.74545 1.64509 2.68364 1.79782 5.16873Z" fill="#00c1a5"/>
<path d="M13.1956 3.49072H16.4683" stroke="#00c1a5" stroke-width="1.52" stroke-miterlimit="10" stroke-linecap="round"/>
<path d="M11.0161 4.20894C11.4366 4.20894 11.7775 3.86803 11.7775 3.44749C11.7775 3.02695 11.4366 2.68604 11.0161 2.68604C10.5956 2.68604 10.2546 3.02695 10.2546 3.44749C10.2546 3.86803 10.5956 4.20894 11.0161 4.20894Z" fill="#00c1a5"/>
</svg>
