<svg xmlns="http://www.w3.org/2000/svg" viewBox="0 0 141 145">
  <style>
    path { fill: #000; } /* Default color for light mode */
    @media (prefers-color-scheme: dark) {
      path { fill: #fff; } /* Color for dark mode */
    }
  </style>
  <path d="M121.209 145H60.388c-3.952 0-7.663-1.583-10.458-4.475L3.583 92.686c-3.504-3.613-5.54-9.005-3.653-13.72 1.9-4.727 6.32-7.783 11.276-7.783H69V12.567c0-5.097 2.958-9.66 7.532-11.625 4.497-1.932 9.867-.83 13.306 2.718l46.369 47.853c2.795 2.893 4.323 6.724 4.323 10.796v62.752c0 10.992-8.667 19.932-19.321 19.932V145zM62.8 123.621h56.466V64.983L89.652 34.235v58.637H33.197l29.614 30.749H62.8z"/>
</svg>
