<svg width="309" xmlns="http://www.w3.org/2000/svg" fill="none" viewBox="0 0 309 431">
  <defs/>
  <path fill="#fff" d="M18 .72h290.54v430H18z"/>
  <path fill="#99ADC0" fill-opacity=".5" d="M121.43 377.77a1 1 0 011-1h129.33a1 1 0 011 1v4.97a1 1 0 01-1 1H122.43a1 1 0 01-1-1v-4.97zM121.43 364.99a1 1 0 011-1h160.7a1 1 0 011 1v4.97a1 1 0 01-1 1h-160.7a1 1 0 01-1-1v-4.97z"/>
  <path fill="#3A4854" d="M128.08 348.6h-4.92v-9.31h-2.36v11.25h7.28v-1.94zM133 350.73c2.53 0 4.14-1.62 4.14-4.38 0-2.71-1.64-4.35-4.14-4.35s-4.14 1.65-4.14 4.36c0 2.74 1.61 4.37 4.14 4.37zm0-1.75c-1.12 0-1.84-.94-1.84-2.62 0-1.66.73-2.62 1.84-2.62 1.1 0 1.82.96 1.82 2.62 0 1.68-.7 2.63-1.82 2.63zM138.32 350.55h2.28v-4.68c0-1.18.65-1.86 1.78-1.86.33 0 .64.05.83.13v-2a2.32 2.32 0 00-.65-.1c-.99 0-1.7.59-2 1.65h-.04v-1.5h-2.2v8.36zM149.4 347.99c-.21.64-.85 1.05-1.69 1.05-1.16 0-1.92-.82-1.92-2.01v-.14h5.77v-.7c0-2.54-1.54-4.19-3.97-4.19-2.47 0-4.03 1.73-4.03 4.4 0 2.68 1.54 4.33 4.12 4.33 2.06 0 3.56-1.1 3.81-2.74h-2.09zm-1.79-4.3c1.02 0 1.71.73 1.76 1.8h-3.55c.08-1.05.8-1.8 1.8-1.8zM152.74 350.55h2.28v-5.05c0-.94.58-1.6 1.45-1.6.84 0 1.35.54 1.35 1.43v5.22h2.2v-5.08c0-.93.56-1.57 1.43-1.57.88 0 1.36.54 1.36 1.5v5.15h2.28v-5.72c0-1.68-1.1-2.8-2.74-2.8-1.22 0-2.22.66-2.6 1.71h-.04c-.28-1.1-1.13-1.72-2.34-1.72-1.14 0-2.03.67-2.38 1.68h-.05v-1.52h-2.2v8.37zM169.9 339.29v11.25h2.35V347h2.1c2.38 0 4.03-1.54 4.03-3.85 0-2.32-1.6-3.85-3.9-3.85h-4.58zm2.35 1.86h1.6c1.35 0 2.13.72 2.13 2 0 1.29-.79 2-2.14 2h-1.59v-4zM179.58 350.55h2.28v-4.68c0-1.18.65-1.86 1.78-1.86.32 0 .64.05.82.13v-2a2.31 2.31 0 00-.64-.1c-.99 0-1.7.59-2 1.65h-.04v-1.5h-2.2v8.36zM188.96 350.73c2.53 0 4.14-1.62 4.14-4.38 0-2.71-1.64-4.35-4.14-4.35s-4.15 1.65-4.15 4.36c0 2.74 1.62 4.37 4.15 4.37zm0-1.75c-1.13 0-1.84-.94-1.84-2.62 0-1.66.73-2.62 1.84-2.62 1.1 0 1.82.96 1.82 2.62 0 1.68-.7 2.63-1.82 2.63z"/>
  <path fill="#FD6B78" d="M33.1 341.1a8 8 0 018-8h53.74a8 8 0 018 8v53.73a8 8 0 01-8 8H41.1a8 8 0 01-8-8V341.1z"/>
  <path fill="#99ADC0" fill-opacity=".2" fill-rule="evenodd" d="M308.54 304.05H18v-1h290.54v1z" clip-rule="evenodd"/>
  <path fill="#99ADC0" fill-opacity=".5" d="M121.43 252.1a1 1 0 011-1h129.33a1 1 0 011 1v4.97a1 1 0 01-1 1H122.43a1 1 0 01-1-1v-4.98zM121.43 239.31a1 1 0 011-1h160.7a1 1 0 011 1v4.97a1 1 0 01-1 1h-160.7a1 1 0 01-1-1v-4.97z"/>
  <path fill="#3A4854" d="M121.8 212.45v11.26h4.3c3.38 0 5.37-2.1 5.37-5.67 0-3.58-1.99-5.59-5.37-5.59h-4.3zm2.36 1.94h1.66c2.08 0 3.25 1.3 3.25 3.66 0 2.43-1.14 3.71-3.25 3.71h-1.66v-7.37zM136.63 223.89c2.53 0 4.15-1.62 4.15-4.37 0-2.72-1.64-4.35-4.15-4.35-2.5 0-4.14 1.64-4.14 4.35 0 2.75 1.62 4.37 4.14 4.37zm0-1.74c-1.12 0-1.83-.94-1.83-2.62 0-1.66.73-2.62 1.83-2.62 1.11 0 1.83.96 1.83 2.62 0 1.68-.7 2.62-1.83 2.62zM149.56 218.46c-.1-1.9-1.54-3.3-3.8-3.3-2.5 0-4.1 1.68-4.1 4.36 0 2.73 1.6 4.37 4.11 4.37 2.2 0 3.68-1.27 3.8-3.25h-2.13c-.14.92-.73 1.46-1.65 1.46-1.13 0-1.83-.93-1.83-2.58 0-1.62.7-2.57 1.83-2.57.93 0 1.52.63 1.65 1.5h2.12zM150.52 217.8c0 1.26.82 2.07 2.44 2.41l1.42.3c.82.19 1.11.44 1.11.88 0 .55-.53.9-1.39.9-.9 0-1.42-.39-1.56-1.12h-2.23c.15 1.64 1.48 2.72 3.8 2.72 2.15 0 3.65-1.08 3.65-2.73 0-1.23-.71-1.91-2.46-2.28l-1.43-.3c-.84-.18-1.16-.47-1.16-.9 0-.56.53-.91 1.32-.91.84 0 1.35.46 1.42 1.13h2.1c-.05-1.63-1.38-2.73-3.52-2.73-2.13 0-3.5 1.04-3.5 2.63zM162.25 212.45v11.26h2.36v-3.55h2.1c2.38 0 4.02-1.54 4.02-3.85 0-2.32-1.6-3.86-3.9-3.86h-4.58zm2.36 1.87h1.6c1.35 0 2.13.71 2.13 2 0 1.28-.8 2-2.14 2h-1.6v-4zM171.93 223.71h2.28v-4.67c0-1.18.66-1.87 1.78-1.87.33 0 .64.06.83.13v-2a2.31 2.31 0 00-.65-.09c-.98 0-1.7.58-1.99 1.64h-.05v-1.5h-2.2v8.36zM181.31 223.89c2.53 0 4.14-1.62 4.14-4.37 0-2.72-1.63-4.35-4.14-4.35-2.5 0-4.14 1.64-4.14 4.35 0 2.75 1.61 4.37 4.14 4.37zm0-1.74c-1.12 0-1.83-.94-1.83-2.62 0-1.66.72-2.62 1.83-2.62 1.1 0 1.83.96 1.83 2.62 0 1.68-.71 2.62-1.83 2.62z"/>
  <g filter="url(#filter0_dd)">
    <path fill="#6C36E5" d="M32.98 214.73a8 8 0 018-8h53.73a8 8 0 018 8v53.73a8 8 0 01-8 8H40.98a8 8 0 01-8-8v-53.73z"/>
  </g>
  <path fill="#EEF9FF" d="M54.2 224.71a1 1 0 011-1h17.32a1 1 0 01.7.3l9.4 9.34a1 1 0 01.3.71v24.55a1 1 0 01-1 1H55.19a1 1 0 01-1-1v-33.9z"/>
  <rect width="16.42" height="2.99" x="58.95" y="248.44" fill="#8249EB" rx="1.49"/>
  <rect width="19.41" height="2.99" x="58.95" y="242.45" fill="#8249EB" rx="1.49"/>
  <rect width="7.18" height="7.18" x="58.95" y="232.7" fill="#8249EB" rx="3.59"/>
  <path fill="#CBC1FF" d="M72.93 233.7h9.99l-10-9.99v9.99z"/>
  <path fill="#99ADC0" fill-opacity=".2" fill-rule="evenodd" d="M308.54 177.37H18v-1h290.54v1z" clip-rule="evenodd"/>
  <path fill="#99ADC0" fill-opacity=".5" d="M120.43 124.42a1 1 0 011-1h129.33a1 1 0 011 1v4.97a1 1 0 01-1 1H121.43a1 1 0 01-1-1v-4.97zM120.43 111.64a1 1 0 011-1h160.7a1 1 0 011 1v4.97a1 1 0 01-1 1h-160.7a1 1 0 01-1-1v-4.97z"/>
  <path fill="#3A4854" d="M123.16 96.87v-4.43h4.58v-1.86h-4.58v-3.02h5.02v-1.94h-7.38v11.25h2.36zM132.98 97.05c2.53 0 4.15-1.61 4.15-4.36 0-2.72-1.64-4.36-4.15-4.36-2.5 0-4.14 1.65-4.14 4.36 0 2.74 1.62 4.36 4.14 4.36zm0-1.74c-1.12 0-1.83-.94-1.83-2.62 0-1.66.73-2.62 1.83-2.62 1.11 0 1.83.96 1.83 2.62 0 1.68-.71 2.62-1.83 2.62zM138.3 96.87h2.28V92.2c0-1.18.66-1.86 1.78-1.86.33 0 .64.05.83.13v-2a2.32 2.32 0 00-.65-.1c-.98 0-1.7.59-1.99 1.65h-.05v-1.5h-2.2v8.35zM151.85 88.51h-2.28v4.8c0 1.1-.63 1.83-1.64 1.83-1.01 0-1.57-.6-1.57-1.71V88.5h-2.27v5.4c0 1.94 1.2 3.12 3 3.12 1.27 0 2.1-.6 2.51-1.66h.05v1.5h2.2v-8.36zM153.33 96.87h2.28v-5.04c0-.94.58-1.6 1.45-1.6.84 0 1.35.54 1.35 1.43v5.21h2.2V91.8c0-.93.56-1.56 1.43-1.56.88 0 1.37.53 1.37 1.5v5.13h2.27v-5.7c0-1.7-1.1-2.82-2.74-2.82-1.22 0-2.22.67-2.6 1.72h-.04c-.28-1.1-1.12-1.72-2.33-1.72-1.14 0-2.04.67-2.4 1.67h-.04v-1.5h-2.2v8.35zM170.49 85.62v11.25h2.36v-3.55h2.1c2.37 0 4.02-1.54 4.02-3.85 0-2.32-1.6-3.85-3.9-3.85h-4.58zm2.36 1.86h1.6c1.34 0 2.13.72 2.13 2 0 1.29-.8 2-2.14 2h-1.6v-4zM180.17 96.87h2.28V92.2c0-1.18.66-1.86 1.78-1.86.33 0 .64.05.83.13v-2a2.31 2.31 0 00-.65-.1c-.98 0-1.7.59-2 1.65h-.04v-1.5h-2.2v8.35zM189.55 97.05c2.53 0 4.14-1.61 4.14-4.36 0-2.72-1.63-4.36-4.14-4.36-2.5 0-4.14 1.65-4.14 4.36 0 2.74 1.61 4.36 4.14 4.36zm0-1.74c-1.12 0-1.83-.94-1.83-2.62 0-1.66.72-2.62 1.83-2.62 1.1 0 1.83.96 1.83 2.62 0 1.68-.71 2.62-1.83 2.62z"/>
  <path fill="#000" d="M33.1 87.75a8 8 0 018-8h53.74a8 8 0 018 8v53.73a8 8 0 01-8 8H41.1a8 8 0 01-8-8V87.75z"/>
  <path fill="#FF9C3E" d="M60.9 114.34c0-6.77 5.48-12.26 12.25-12.26H85.4v12.26a12.26 12.26 0 01-24.52 0z"/>
  <path fill="#E90000" d="M50.54 114.34A12.26 12.26 0 1162.8 126.6H50.54v-12.26z"/>
  <path fill="#fff" d="M55.99 110.53c0-.45.36-.82.82-.82h12.52a.82.82 0 010 1.63H56.81a.82.82 0 01-.82-.81zM55.99 114.34c0-.45.36-.82.82-.82h12.52a.82.82 0 010 1.64H56.81a.82.82 0 01-.82-.82zM55.99 118.15c0-.45.36-.81.82-.81h7.08a.82.82 0 010 1.63H56.8a.82.82 0 01-.82-.82z"/>
  <path fill="#99ADC0" fill-opacity=".2" fill-rule="evenodd" d="M308.54 51.86H18v-1h290.54v1z" clip-rule="evenodd"/>
  <path fill="#3A4854" d="M86.59 21.86v8.44h1.77v-2.66h1.58c1.78 0 3.01-1.16 3.01-2.9 0-1.73-1.2-2.88-2.93-2.88H86.6zm1.77 1.4h1.2c1 0 1.6.53 1.6 1.5 0 .96-.6 1.5-1.61 1.5h-1.2v-3zM97.2 27.21h1.42l1.57 3.1h2l-1.77-3.36a2.48 2.48 0 001.53-2.4c0-1.67-1.11-2.7-3.06-2.7h-3.45v8.45h1.76v-3.09zm0-3.97h1.5c.88 0 1.43.52 1.43 1.34 0 .84-.52 1.35-1.4 1.35H97.2v-2.7zM110.14 28.84h-3.82V26.7h3.6v-1.36h-3.6v-2.04h3.83v-1.45h-5.6v8.44h5.6v-1.46zM121.8 30.3v-8.44h-2.05l-2.4 6.06h-.04l-2.4-6.06h-2.05v8.44h1.57v-5.7h.05l2.3 5.7h1.1l2.3-5.7h.05v5.7h1.57zM126.41 30.3v-8.44h-1.77v8.44h1.77zM131.02 21.86h-1.77v5.46c0 1.86 1.38 3.12 3.54 3.12s3.54-1.26 3.54-3.12v-5.46h-1.77v5.28c0 1.08-.64 1.8-1.77 1.8s-1.77-.72-1.77-1.8v-5.28zM148.12 30.3v-8.44h-2.05l-2.4 6.06h-.05l-2.4-6.06h-2.04v8.44h1.57v-5.7h.05l2.3 5.7h1.1l2.3-5.7h.04v5.7h1.58zM160.37 28.84h-3.83V26.7h3.61v-1.36h-3.6v-2.04h3.82v-1.45h-5.6v8.44h5.6v-1.46zM162.63 30.3h1.9l1.87-2.95h.05l1.85 2.95h2l-2.72-4.2v-.04l2.76-4.2h-1.97l-1.8 3.04h-.05l-1.8-3.04h-2.07l2.66 4.16v.05l-2.68 4.23zM176.52 30.3v-6.99h2.45v-1.45h-6.66v1.45h2.44v7h1.77zM186.98 28.84h-3.83V26.7h3.61v-1.36h-3.6v-2.04h3.82v-1.45h-5.6v8.44h5.6v-1.46zM191.38 30.3v-5.53h.06l3.95 5.53h1.46v-8.44h-1.7v5.5h-.04l-3.94-5.5h-1.48v8.44h1.7zM199.38 27.89c.05 1.6 1.39 2.55 3.4 2.55 2.11 0 3.4-1.04 3.4-2.69 0-1.28-.77-2-2.56-2.36l-.9-.18c-.99-.2-1.4-.52-1.4-1.04 0-.62.59-1.03 1.46-1.03.89 0 1.52.43 1.57 1.15h1.67c-.03-1.55-1.27-2.58-3.24-2.58-1.88 0-3.22 1.02-3.22 2.57 0 1.26.82 2.07 2.5 2.4l.9.17c1.06.22 1.45.54 1.45 1.1 0 .61-.64 1.07-1.58 1.07-.96 0-1.68-.42-1.79-1.13h-1.66zM210.47 30.3v-8.44h-1.76v8.44h1.76zM217.13 21.71c-2.5 0-4.08 1.68-4.08 4.37 0 2.69 1.57 4.36 4.08 4.36 2.5 0 4.07-1.67 4.07-4.36 0-2.69-1.57-4.37-4.07-4.37zm0 1.48c1.38 0 2.26 1.12 2.26 2.9 0 1.76-.88 2.88-2.26 2.88-1.39 0-2.27-1.12-2.27-2.89s.89-2.9 2.27-2.9zM225.47 30.3v-5.53h.05l3.95 5.53h1.47v-8.44h-1.7v5.5h-.04l-3.95-5.5h-1.47v8.44h1.69zM233.46 27.89c.05 1.6 1.4 2.55 3.4 2.55 2.12 0 3.41-1.04 3.41-2.69 0-1.28-.78-2-2.56-2.36l-.9-.18c-.99-.2-1.4-.52-1.4-1.04 0-.62.59-1.03 1.46-1.03.89 0 1.51.43 1.57 1.15h1.67c-.03-1.55-1.27-2.58-3.24-2.58-1.88 0-3.23 1.02-3.23 2.57 0 1.26.83 2.07 2.51 2.4l.9.17c1.05.22 1.45.54 1.45 1.1 0 .61-.64 1.07-1.59 1.07-.95 0-1.67-.42-1.78-1.13h-1.67z"/>
  <defs>
    <filter id="filter0_dd" width="133.73" height="133.73" x=".98" y="188.73" color-interpolation-filters="sRGB" filterUnits="userSpaceOnUse">
      <feFlood flood-opacity="0" result="BackgroundImageFix"/>
      <feColorMatrix in="SourceAlpha" values="0 0 0 0 0 0 0 0 0 0 0 0 0 0 0 0 0 0 127 0"/>
      <feOffset/>
      <feGaussianBlur stdDeviation="1.5"/>
      <feColorMatrix values="0 0 0 0 0.196078 0 0 0 0 0.196078 0 0 0 0 0.364706 0 0 0 0.2 0"/>
      <feBlend in2="BackgroundImageFix" result="effect1_dropShadow"/>
      <feColorMatrix in="SourceAlpha" values="0 0 0 0 0 0 0 0 0 0 0 0 0 0 0 0 0 0 127 0"/>
      <feOffset dy="14"/>
      <feGaussianBlur stdDeviation="16"/>
      <feColorMatrix values="0 0 0 0 0.196078 0 0 0 0 0.196078 0 0 0 0 0.364706 0 0 0 0.1 0"/>
      <feBlend in2="effect1_dropShadow" result="effect2_dropShadow"/>
      <feBlend in="SourceGraphic" in2="effect2_dropShadow" result="shape"/>
    </filter>
  </defs>
</svg>
