<svg width="230" xmlns="http://www.w3.org/2000/svg" fill="none" viewBox="0 0 266 112">
  <defs/>
  <path fill="#fff" d="M265.03.69H.06v110.5h264.97z"/>
  <rect width="83.68" height="9.65" x="90.17" y="18.92" fill="#CCD6E0" rx="1"/>
  <path fill="#DA3E4C" d="M145.37 91.87a8 8 0 01-8-8V51.6a8 8 0 018-8h32.28a8 8 0 018 8v32.27a8 8 0 01-8 8h-32.28z"/>
  <path fill="#F1CF54" d="M205.45 91.87a8 8 0 01-8-8V51.6a8 8 0 018-8h32.27a8 8 0 018 8v32.27a8 8 0 01-8 8h-32.27z"/>
  <path fill="#6C36E6" d="M86 92.27a8 8 0 01-8-8V52a8 8 0 018-8h32.27a8 8 0 018 8v32.27a8 8 0 01-8 8H86z"/>
  <path fill="#EEF9FF" d="M93 57a1 1 0 011-1h11.14a1 1 0 01.7.3l6.1 6.06a1 1 0 01.3.71v15.98a1 1 0 01-1 1H94a1 1 0 01-1-1V57z"/>
  <rect width="11" height="2" x="96.18" y="72.56" fill="#8249EB" rx="1"/>
  <rect width="13" height="2" x="96.18" y="68.55" fill="#8249EB" rx="1"/>
  <rect width="4.81" height="4.81" x="96.18" y="62.02" fill="#8249EB" rx="2.4"/>
  <path fill="#CBC1FF" d="M105.55 62.69h6.69L105.55 56v6.69z"/>
  <path fill="#000" d="M26.3 91.87a8 8 0 01-8-8V51.6a8 8 0 018-8h32.27a8 8 0 018 8v32.27a8 8 0 01-8 8H26.29z"/>
  <path fill="#FF9C3E" d="M37.6 67.73c0-4.44 3.85-8.04 8.59-8.04h8.58v8.04c0 4.45-3.84 8.05-8.58 8.05s-8.59-3.6-8.59-8.05z"/>
  <path fill="#E90000" d="M31.17 67.73a8.05 8.05 0 118.04 8.05h-8.04v-8.05z"/>
  <path fill="#fff" d="M34.38 65.59c0-.3.23-.54.5-.54h7.6c.27 0 .49.24.49.54 0 .3-.22.53-.5.53h-7.59c-.27 0-.5-.24-.5-.53zM34.38 69.88c0-.3.28-.54.6-.54h5.24c.33 0 .6.24.6.54 0 .3-.27.54-.6.54h-5.23c-.33 0-.6-.24-.6-.54z"/>
</svg>
