<svg width="307" height="300" viewBox="0 0 307 300" fill="none" xmlns="http://www.w3.org/2000/svg">
<path d="M307 0H0V300H307V0Z" fill="white"/>
<rect x="45" y="269" width="158" height="3" rx="1" fill="#99ADC0" fill-opacity="0.5"/>
<rect x="45" y="260" width="96" height="4" rx="1" fill="#99ADC0"/>
<rect x="45" y="279" width="20" height="3" rx="1" fill="#99ADC0" fill-opacity="0.3"/>
<rect x="252" y="272" width="23" height="3" rx="1" fill="#99ADC0" fill-opacity="0.3"/>
<path d="M270.71 262.601H271.44V259.078H270.708L269.797 259.71V260.365L270.696 259.754H270.71V262.601Z" fill="#99ADC0"/>
<path d="M272.19 260.15H272.874C272.874 259.811 273.14 259.574 273.491 259.574C273.809 259.574 274.026 259.789 274.026 260.072C274.026 260.316 273.926 260.484 273.479 260.914L272.231 262.096V262.601H274.792V262.015H273.196V262L273.936 261.292C274.531 260.724 274.744 260.458 274.744 260.025C274.744 259.439 274.246 259 273.491 259C272.727 259 272.19 259.471 272.19 260.15Z" fill="#99ADC0"/>
<rect x="236" y="272" width="13" height="3" rx="1" fill="#99ADC0" fill-opacity="0.3"/>
<rect x="263" y="258" width="5" height="5" rx="1" fill="#99ADC0"/>
<rect x="71" y="279" width="57" height="3" rx="1" fill="#99ADC0" fill-opacity="0.3"/>
<rect x="20" y="258" width="16" height="16" rx="8" fill="#99ADC0"/>
<rect x="45" y="231" width="109" height="3" rx="1" fill="#99ADC0" fill-opacity="0.5"/>
<rect x="45" y="222" width="140" height="4" rx="1" fill="#99ADC0"/>
<rect x="45" y="241" width="20" height="3" rx="1" fill="#99ADC0" fill-opacity="0.3"/>
<rect x="252" y="234" width="23" height="3" rx="1" fill="#99ADC0" fill-opacity="0.3"/>
<path d="M270.515 224.604H271.245V221.081H270.513L269.602 221.713V222.367L270.5 221.757H270.515V224.604Z" fill="#99ADC0"/>
<path d="M273.323 224.682C274.238 224.682 274.792 223.979 274.792 222.812C274.792 221.525 274.099 221 273.323 221C272.537 221 271.965 221.52 271.965 222.25C271.965 222.936 272.48 223.4 273.135 223.4C273.596 223.4 273.945 223.17 274.072 222.829H274.087C274.092 223.585 273.855 224.098 273.325 224.098C273.03 224.098 272.812 223.964 272.734 223.712H272.007C272.1 224.284 272.632 224.682 273.323 224.682ZM273.325 222.853C272.957 222.853 272.683 222.589 272.683 222.221C272.683 221.864 272.969 221.588 273.333 221.588C273.694 221.588 273.979 221.869 273.979 222.233C273.979 222.594 273.696 222.853 273.325 222.853Z" fill="#99ADC0"/>
<rect x="236" y="234" width="13" height="3" rx="1" fill="#99ADC0" fill-opacity="0.3"/>
<rect x="262" y="220" width="5" height="5" rx="1" fill="#99ADC0"/>
<rect x="71" y="241" width="57" height="3" rx="1" fill="#99ADC0" fill-opacity="0.3"/>
<rect x="20" y="220" width="16" height="16" rx="8" fill="#99ADC0"/>
<rect x="45" y="193" width="109" height="3" rx="1" fill="#99ADC0" fill-opacity="0.5"/>
<rect x="45" y="184" width="160" height="4" rx="1" fill="#99ADC0"/>
<rect x="45" y="203" width="20" height="3" rx="1" fill="#99ADC0" fill-opacity="0.3"/>
<rect x="252" y="196" width="23" height="3" rx="1" fill="#99ADC0" fill-opacity="0.3"/>
<path d="M269.041 184.15H269.724C269.724 183.811 269.99 183.574 270.342 183.574C270.659 183.574 270.876 183.789 270.876 184.072C270.876 184.316 270.776 184.484 270.33 184.914L269.082 186.096V186.601H271.643V186.015H270.046V186L270.786 185.292C271.382 184.724 271.594 184.458 271.594 184.025C271.594 183.439 271.096 183 270.342 183C269.578 183 269.041 183.471 269.041 184.15Z" fill="#99ADC0"/>
<path d="M272.952 185.051H273.354C273.782 185.051 274.033 185.241 274.031 185.583C274.031 185.881 273.777 186.086 273.408 186.086C273.02 186.086 272.766 185.891 272.742 185.603H272.039C272.07 186.25 272.612 186.679 273.408 186.679C274.226 186.679 274.78 186.254 274.78 185.615C274.78 185.131 274.438 184.821 273.916 184.772V184.758C274.331 184.672 274.651 184.382 274.651 183.933C274.651 183.369 274.148 183 273.403 183C272.666 183 272.153 183.413 272.117 184.057H272.793C272.815 183.752 273.057 183.566 273.403 183.566C273.755 183.566 273.953 183.75 273.953 184.038C273.953 184.326 273.713 184.526 273.345 184.526H272.952V185.051Z" fill="#99ADC0"/>
<rect x="262" y="182" width="5" height="5" rx="1" fill="#99ADC0"/>
<rect x="71" y="203" width="57" height="3" rx="1" fill="#99ADC0" fill-opacity="0.3"/>
<rect x="20" y="182" width="16" height="16" rx="8" fill="#99ADC0"/>
<rect x="45" y="150" width="109" height="3" rx="1" fill="#99ADC0" fill-opacity="0.5"/>
<rect x="45" y="131" width="164" height="4" rx="1" fill="#99ADC0"/>
<rect x="45" y="140" width="70" height="4" rx="1" fill="#99ADC0"/>
<rect x="45" y="160" width="20" height="3" rx="1" fill="#99ADC0" fill-opacity="0.3"/>
<rect x="252" y="160" width="23" height="3" rx="1" fill="#99ADC0" fill-opacity="0.3"/>
<path d="M273.55 133.078C274.466 133.078 275.02 132.375 275.02 131.208C275.02 129.921 274.327 129.396 273.55 129.396C272.764 129.396 272.193 129.917 272.193 130.646C272.193 131.333 272.708 131.796 273.362 131.796C273.824 131.796 274.173 131.567 274.3 131.225H274.314C274.319 131.982 274.083 132.495 273.553 132.495C273.257 132.495 273.04 132.36 272.962 132.109H272.234C272.327 132.68 272.859 133.078 273.55 133.078ZM273.553 131.25C273.184 131.25 272.911 130.986 272.911 130.617C272.911 130.261 273.196 129.985 273.56 129.985C273.921 129.985 274.207 130.266 274.207 130.629C274.207 130.991 273.924 131.25 273.553 131.25Z" fill="#99ADC0"/>
<rect x="236" y="160" width="13" height="3" rx="1" fill="#99ADC0" fill-opacity="0.3"/>
<rect x="246" y="153" width="29" height="3" rx="1" fill="#99ADC0" fill-opacity="0.3"/>
<rect x="257" y="146" width="18" height="3" rx="1" fill="#99ADC0" fill-opacity="0.3"/>
<rect x="265" y="129" width="5" height="5" rx="1" fill="#99ADC0"/>
<rect x="71" y="160" width="57" height="3" rx="1" fill="#99ADC0" fill-opacity="0.3"/>
<rect x="20" y="129" width="16" height="16" rx="8" fill="#99ADC0"/>
<rect x="45" y="97" width="109" height="3" rx="1" fill="#99ADC0" fill-opacity="0.5"/>
<rect x="45" y="88" width="83" height="4" rx="1" fill="#99ADC0"/>
<rect x="45" y="107" width="20" height="3" rx="1" fill="#99ADC0" fill-opacity="0.3"/>
<rect x="252" y="107" width="23" height="3" rx="1" fill="#99ADC0" fill-opacity="0.3"/>
<path d="M272.208 88.1499H272.891C272.891 87.8105 273.157 87.5737 273.509 87.5737C273.826 87.5737 274.043 87.7886 274.043 88.0718C274.043 88.3159 273.943 88.4844 273.497 88.9141L272.249 90.0957V90.6011H274.81V90.0151H273.213V90.0005L273.953 89.2925C274.549 88.7236 274.761 88.4575 274.761 88.0254C274.761 87.4395 274.263 87 273.509 87C272.745 87 272.208 87.4712 272.208 88.1499Z" fill="#99ADC0"/>
<rect x="262" y="100" width="13" height="3" rx="1" fill="#99ADC0" fill-opacity="0.3"/>
<rect x="265" y="86" width="5" height="5" rx="1" fill="#99ADC0"/>
<rect x="71" y="107" width="57" height="3" rx="1" fill="#99ADC0" fill-opacity="0.3"/>
<rect x="20" y="86" width="16" height="16" rx="8" fill="#99ADC0"/>
<rect x="13" y="42" width="268" height="37" rx="2" fill="#F2F3F7"/>
<rect x="45" y="59" width="75" height="3" rx="1" fill="#99ADC0" fill-opacity="0.5"/>
<rect x="45.3381" y="49.5719" width="40.0428" height="4.88327" rx="1" fill="#99ADC0"/>
<rect x="45" y="69" width="23" height="3" rx="1" fill="#99ADC0" fill-opacity="0.3"/>
<rect x="252" y="69" width="23" height="3" rx="1" fill="#99ADC0" fill-opacity="0.3"/>
<path d="M270.913 52.6035H271.643V49.0806H270.911L270 49.7129V50.3672L270.898 49.7568H270.913V52.6035Z" fill="#99ADC0"/>
<path d="M273.855 52.6816C274.641 52.6816 275.212 52.1616 275.212 51.4316C275.212 50.77 274.746 50.2842 274.065 50.2842C273.589 50.2842 273.242 50.5234 273.105 50.8506H273.091C273.088 50.0791 273.342 49.5835 273.855 49.5835C274.146 49.5835 274.355 49.73 274.438 49.9814H275.166C275.068 49.4004 274.541 49 273.857 49C272.942 49 272.385 49.7031 272.385 50.8701C272.385 52.0859 273.013 52.6816 273.855 52.6816ZM273.845 52.0957C273.484 52.0957 273.201 51.8125 273.201 51.4487C273.201 51.0898 273.479 50.8286 273.853 50.8286C274.221 50.8286 274.495 51.0923 274.495 51.4634C274.492 51.8174 274.207 52.0957 273.845 52.0957Z" fill="#99ADC0"/>
<rect x="236" y="69" width="13" height="3" rx="1" fill="#99ADC0" fill-opacity="0.3"/>
<rect x="262" y="62" width="13" height="3" rx="1" fill="#99ADC0" fill-opacity="0.3"/>
<rect x="263" y="48" width="5" height="5" rx="1" fill="#99ADC0"/>
<rect x="74" y="69" width="57" height="3" rx="1" fill="#99ADC0" fill-opacity="0.3"/>
<rect x="20" y="48" width="16" height="16" rx="8" fill="#99ADC0"/>
<path fill-rule="evenodd" clip-rule="evenodd" d="M279 15.5H216C215.172 15.5 214.5 16.1716 214.5 17V28C214.5 28.8284 215.172 29.5 216 29.5H279C279.828 29.5 280.5 28.8284 280.5 28V17C280.5 16.1716 279.828 15.5 279 15.5ZM216 15C214.895 15 214 15.8954 214 17V28C214 29.1046 214.895 30 216 30H279C280.105 30 281 29.1046 281 28V17C281 15.8954 280.105 15 279 15H216Z" fill="#99ADC0"/>
<rect x="219" y="21" width="16" height="3" rx="1" fill="#99ADC0" fill-opacity="0.5"/>
<path fill-rule="evenodd" clip-rule="evenodd" d="M49 15.5H15C14.1716 15.5 13.5 16.1716 13.5 17V28C13.5 28.8284 14.1716 29.5 15 29.5H49C49.8284 29.5 50.5 28.8284 50.5 28V17C50.5 16.1716 49.8284 15.5 49 15.5ZM15 15C13.8954 15 13 15.8954 13 17V28C13 29.1046 13.8954 30 15 30H49C50.1046 30 51 29.1046 51 28V17C51 15.8954 50.1046 15 49 15H15Z" fill="#99ADC0"/>
<rect x="18" y="21" width="16" height="3" rx="1" fill="#99ADC0" fill-opacity="0.5"/>
<rect x="44" y="21" width="3" height="3" rx="1" fill="#99ADC0" fill-opacity="0.5"/>
</svg>
