<svg width="160" xmlns="http://www.w3.org/2000/svg" fill="none" viewBox="0 0 160 152">
  <defs/>
  <path fill="#fff" d="M0 0h160v152H0z"/>
  <path fill="#99ADC0" d="M6 15h44.87L56 20.5 50.87 26H6V15zM57 15h44.87l5.13 5.5-5.13 5.5H57l3.85-5.5L57 15zM108 15h45v11h-45l3.86-5.5L108 15z"/>
  <path fill="#fff" fill-opacity=".5" d="M116 20.24a1 1 0 011-1h28a1 1 0 011 1v.93a1 1 0 01-1 1h-28a1 1 0 01-1-1v-.93zM67 20.24a1 1 0 011-1h28a1 1 0 011 1v.93a1 1 0 01-1 1H68a1 1 0 01-1-1v-.93zM14 20.24a1 1 0 011-1h28a1 1 0 011 1v.93a1 1 0 01-1 1H15a1 1 0 01-1-1v-.93z"/>
  <path fill="#99ADC0" fill-opacity=".3" d="M30 66a1 1 0 011-1h68.32a1 1 0 011 1v.93a1 1 0 01-1 1H31a1 1 0 01-1-1V66z"/>
  <path fill="#0471FF" d="M11 66a1 1 0 011-1h15a1 1 0 011 1v.93a1 1 0 01-1 1H12a1 1 0 01-1-1V66z"/>
  <rect width="40" height="8" x="11" y="53" fill="#99ADC0" rx="1"/>
  <path fill="#F4F5FA" d="M11 77h94v53.05H11z"/>
  <path fill="#99ADC0" fill-opacity=".3" d="M114 97a1 1 0 011-1h22a1 1 0 011 1v1a1 1 0 01-1 1h-22a1 1 0 01-1-1v-1zM114 101.5a1 1 0 011-1h31a1 1 0 011 1v1a1 1 0 01-1 1h-31a1 1 0 01-1-1v-1zM114 106a1 1 0 011-1h29a1 1 0 011 1v1a1 1 0 01-1 1h-29a1 1 0 01-1-1v-1zM114 110.5a1 1 0 011-1h8a1 1 0 011 1v1a1 1 0 01-1 1h-8a1 1 0 01-1-1v-1z"/>
</svg>
