<svg width="300"  viewBox="0 0 319 348" fill="none" xmlns="http://www.w3.org/2000/svg">
<rect width="318.613" height="347.577" transform="matrix(-1 0 0 1 318.613 0)" fill="white"/>
<path d="M15.8755 28.661C15.9282 30.2548 17.27 31.2157 19.2856 31.2157C21.4009 31.2157 22.6958 30.1728 22.6958 28.5204C22.6958 27.2372 21.9165 26.5165 20.1294 26.1591L19.2329 25.9774C18.2368 25.7782 17.8267 25.456 17.8267 24.9345C17.8267 24.3134 18.4126 23.9032 19.2856 23.9032C20.1763 23.9032 20.8032 24.3368 20.8618 25.0575H22.5317C22.5024 23.5048 21.2603 22.4735 19.2856 22.4735C17.4048 22.4735 16.0571 23.4989 16.0571 25.0458C16.0571 26.3056 16.8833 27.1142 18.5708 27.4482L19.4614 27.6239C20.522 27.8407 20.9204 28.1571 20.9204 28.7138C20.9204 29.3349 20.2759 29.7919 19.3325 29.7919C18.3716 29.7919 17.6567 29.37 17.5454 28.661H15.8755Z" fill="#99ADC0" fill-opacity="0.8"/>
<path d="M26.9893 22.62H25.2198V28.0868C25.2198 29.9501 26.5967 31.2157 28.7647 31.2157C30.9268 31.2157 32.3038 29.9501 32.3038 28.0868V22.62H30.5342V27.911C30.5342 28.995 29.8956 29.704 28.7647 29.704C27.628 29.704 26.9893 28.995 26.9893 27.911V22.62Z" fill="#99ADC0" fill-opacity="0.8"/>
<path d="M35.1559 22.62V31.0751H36.9254V28.4091H38.5074C40.2887 28.4091 41.525 27.2489 41.525 25.5146C41.525 23.7743 40.3297 22.62 38.5953 22.62H35.1559ZM36.9254 24.0204H38.1266C39.1403 24.0204 39.7262 24.5595 39.7262 25.5204C39.7262 26.4872 39.1344 27.0263 38.1207 27.0263H36.9254V24.0204Z" fill="#99ADC0" fill-opacity="0.8"/>
<path d="M44.0138 22.62V31.0751H45.7834V28.4091H47.3654C49.1467 28.4091 50.383 27.2489 50.383 25.5146C50.383 23.7743 49.1877 22.62 47.4533 22.62H44.0138ZM45.7834 24.0204H46.9846C47.9982 24.0204 48.5842 24.5595 48.5842 25.5204C48.5842 26.4872 47.9924 27.0263 46.9787 27.0263H45.7834V24.0204Z" fill="#99ADC0" fill-opacity="0.8"/>
<path d="M56.6863 22.4735C54.1785 22.4735 52.6081 24.1552 52.6081 26.8505C52.6081 29.5399 54.1785 31.2157 56.6863 31.2157C59.1882 31.2157 60.7644 29.5399 60.7644 26.8505C60.7644 24.1552 59.1882 22.4735 56.6863 22.4735ZM56.6863 23.9501C58.0691 23.9501 58.9538 25.0751 58.9538 26.8505C58.9538 28.62 58.0691 29.7392 56.6863 29.7392C55.2976 29.7392 54.4128 28.62 54.4128 26.8505C54.4128 25.0751 55.3035 23.9501 56.6863 23.9501Z" fill="#99ADC0" fill-opacity="0.8"/>
<path d="M65.1165 27.9814H66.5345L68.1106 31.0751H70.1146L68.3333 27.7177C69.306 27.3368 69.8685 26.3993 69.8685 25.3153C69.8685 23.6454 68.7552 22.62 66.8099 22.62H63.347V31.0751H65.1165V27.9814ZM65.1165 24.0028H66.6224C67.5013 24.0028 68.0521 24.5302 68.0521 25.3505C68.0521 26.1884 67.5306 26.6982 66.6399 26.6982H65.1165V24.0028Z" fill="#99ADC0" fill-opacity="0.8"/>
<path d="M76.2655 31.0751V24.079H78.7147V22.62H72.0526V24.079H74.496V31.0751H76.2655Z" fill="#99ADC0" fill-opacity="0.8"/>
<rect x="49.8228" y="291.486" width="116.932" height="3.21831" rx="1" fill="#99ADC0" fill-opacity="0.5"/>
<rect x="49.8228" y="281.831" width="89.0399" height="4.29108" rx="1" fill="#99ADC0"/>
<rect x="49.8228" y="302.214" width="21.4554" height="3.21831" rx="1" fill="#99ADC0" fill-opacity="0.3"/>
<rect x="271.886" y="302.214" width="24.6737" height="3.21831" rx="1" fill="#99ADC0" fill-opacity="0.3"/>
<path d="M293.564 281.992H294.298C294.298 281.628 294.583 281.374 294.96 281.374C295.301 281.374 295.534 281.604 295.534 281.908C295.534 282.17 295.427 282.351 294.947 282.812L293.609 284.079V284.621H296.356V283.993H294.644V283.977L295.437 283.218C296.076 282.607 296.304 282.322 296.304 281.858C296.304 281.23 295.77 280.758 294.96 280.758C294.141 280.758 293.564 281.264 293.564 281.992Z" fill="#99ADC0"/>
<rect x="282.614" y="294.704" width="13.946" height="3.21831" rx="1" fill="#99ADC0" fill-opacity="0.3"/>
<rect x="285.833" y="279.685" width="5.36385" height="5.36385" rx="1" fill="#99ADC0"/>
<rect x="77.7148" y="302.214" width="61.1479" height="3.21831" rx="1" fill="#99ADC0" fill-opacity="0.3"/>
<rect x="23.0039" y="279.686" width="17.1643" height="17.1643" rx="8.58216" fill="#99ADC0"/>
<rect x="49.8228" y="236.775" width="116.932" height="3.21831" rx="1" fill="#99ADC0" fill-opacity="0.5"/>
<rect x="49.8228" y="216.392" width="175.934" height="4.29108" rx="1" fill="#99ADC0"/>
<rect x="49.8228" y="226.047" width="75.0939" height="4.29108" rx="1" fill="#99ADC0"/>
<rect x="49.8228" y="247.502" width="21.4554" height="3.21831" rx="1" fill="#99ADC0" fill-opacity="0.3"/>
<rect x="271.886" y="247.502" width="24.6737" height="3.21831" rx="1" fill="#99ADC0" fill-opacity="0.3"/>
<path d="M295.005 218.621C295.987 218.621 296.582 217.867 296.582 216.615C296.582 215.235 295.838 214.672 295.005 214.672C294.162 214.672 293.549 215.23 293.549 216.013C293.549 216.749 294.101 217.246 294.803 217.246C295.298 217.246 295.673 217 295.809 216.634H295.825C295.83 217.445 295.576 217.995 295.008 217.995C294.691 217.995 294.458 217.851 294.374 217.582H293.593C293.693 218.194 294.264 218.621 295.005 218.621ZM295.008 216.66C294.612 216.66 294.319 216.377 294.319 215.981C294.319 215.599 294.625 215.303 295.016 215.303C295.403 215.303 295.71 215.604 295.71 215.994C295.71 216.382 295.406 216.66 295.008 216.66Z" fill="#99ADC0"/>
<rect x="254.722" y="247.502" width="13.946" height="3.21831" rx="1" fill="#99ADC0" fill-opacity="0.3"/>
<rect x="265.45" y="239.993" width="31.1103" height="3.21831" rx="1" fill="#99ADC0" fill-opacity="0.3"/>
<rect x="277.25" y="232.484" width="19.3099" height="3.21831" rx="1" fill="#99ADC0" fill-opacity="0.3"/>
<rect x="285.833" y="214.247" width="5.36385" height="5.36385" rx="1" fill="#99ADC0"/>
<rect x="77.7148" y="247.502" width="61.1479" height="3.21831" rx="1" fill="#99ADC0" fill-opacity="0.3"/>
<rect x="23.0039" y="214.247" width="17.1643" height="17.1643" rx="8.58216" fill="#99ADC0"/>
<rect x="49.8228" y="171.336" width="116.932" height="3.21831" rx="1" fill="#99ADC0" fill-opacity="0.5"/>
<rect x="49.8228" y="161.681" width="89.0399" height="4.29108" rx="1" fill="#99ADC0"/>
<rect x="49.8228" y="182.063" width="21.4554" height="3.21831" rx="1" fill="#99ADC0" fill-opacity="0.3"/>
<rect x="271.886" y="182.063" width="24.6737" height="3.21831" rx="1" fill="#99ADC0" fill-opacity="0.3"/>
<path d="M293.564 161.842H294.298C294.298 161.478 294.583 161.223 294.96 161.223C295.301 161.223 295.534 161.454 295.534 161.758C295.534 162.02 295.427 162.2 294.947 162.661L293.609 163.929V164.471H296.356V163.843H294.644V163.827L295.437 163.067C296.076 162.457 296.304 162.172 296.304 161.708C296.304 161.079 295.77 160.608 294.96 160.608C294.141 160.608 293.564 161.113 293.564 161.842Z" fill="#99ADC0"/>
<rect x="282.614" y="174.554" width="13.946" height="3.21831" rx="1" fill="#99ADC0" fill-opacity="0.3"/>
<rect x="285.833" y="159.535" width="5.36385" height="5.36385" rx="1" fill="#99ADC0"/>
<rect x="77.7148" y="182.063" width="61.1479" height="3.21831" rx="1" fill="#99ADC0" fill-opacity="0.3"/>
<rect x="23.0039" y="159.535" width="17.1643" height="17.1643" rx="8.58216" fill="#99ADC0"/>
<rect x="15.4946" y="90.8779" width="287.502" height="39.6925" rx="2" fill="#99ADC0" fill-opacity="0.14"/>
<rect x="49.8228" y="109.115" width="80.4577" height="3.21831" rx="1" fill="#99ADC0" fill-opacity="0.5"/>
<rect x="50.1855" y="99.0008" width="42.9567" height="5.23863" rx="1" fill="#0471FF"/>
<rect x="49.8228" y="119.843" width="24.6737" height="3.21831" rx="1" fill="#99ADC0" fill-opacity="0.3"/>
<rect x="271.886" y="119.843" width="24.6737" height="3.21831" rx="1" fill="#99ADC0" fill-opacity="0.3"/>
<path d="M292.176 102.253H292.959V98.4737H292.173L291.196 99.1521V99.854L292.16 99.1992H292.176V102.253Z" fill="#99ADC0"/>
<path d="M295.332 102.337C296.175 102.337 296.788 101.779 296.788 100.996C296.788 100.286 296.288 99.7649 295.557 99.7649C295.046 99.7649 294.674 100.022 294.528 100.373H294.512C294.509 99.5449 294.782 99.0133 295.332 99.0133C295.643 99.0133 295.869 99.1704 295.958 99.4402H296.738C296.633 98.8168 296.068 98.3873 295.334 98.3873C294.352 98.3873 293.755 99.1416 293.755 100.394C293.755 101.698 294.428 102.337 295.332 102.337ZM295.321 101.708C294.934 101.708 294.63 101.404 294.63 101.014C294.63 100.629 294.928 100.349 295.329 100.349C295.725 100.349 296.018 100.632 296.018 101.03C296.015 101.41 295.709 101.708 295.321 101.708Z" fill="#99ADC0"/>
<rect x="254.722" y="119.843" width="13.946" height="3.21831" rx="1" fill="#99ADC0" fill-opacity="0.3"/>
<rect x="282.614" y="112.333" width="13.946" height="3.21831" rx="1" fill="#99ADC0" fill-opacity="0.3"/>
<rect x="283.687" y="97.3145" width="5.36385" height="5.36385" rx="1" fill="#99ADC0"/>
<rect x="80.9331" y="119.843" width="61.1479" height="3.21831" rx="1" fill="#99ADC0" fill-opacity="0.3"/>
<rect x="23.0039" y="97.3145" width="17.1643" height="17.1643" rx="8.58216" fill="#99ADC0"/>
<path fill-rule="evenodd" clip-rule="evenodd" d="M54.2599 62.4132H17.4946C16.6662 62.4132 15.9946 63.0848 15.9946 63.9132V76.0047C15.9946 76.8332 16.6662 77.5047 17.4946 77.5047H54.2599C55.0883 77.5047 55.7599 76.8332 55.7599 76.0047V63.9132C55.7599 63.0848 55.0883 62.4132 54.2599 62.4132ZM17.4946 61.9132C16.3901 61.9132 15.4946 62.8086 15.4946 63.9132V76.0047C15.4946 77.1093 16.3901 78.0047 17.4946 78.0047H54.2599C55.3645 78.0047 56.2599 77.1093 56.2599 76.0047V63.9132C56.2599 62.8086 55.3645 61.9132 54.2599 61.9132H17.4946Z" fill="#99ADC0"/>
<rect x="20.8584" y="68.3498" width="17.1643" height="3.21831" rx="1" fill="#99ADC0" fill-opacity="0.5"/>
<rect x="48.7505" y="68.3498" width="3.21831" height="3.21831" rx="1" fill="#99ADC0" fill-opacity="0.5"/>
</svg>
