<svg width="549" xmlns="http://www.w3.org/2000/svg" fill="none" viewBox="0 0 549 349">
  <defs/>
  <mask id="a" width="549" height="349" x="0" y="0" maskUnits="userSpaceOnUse">
    <path fill="#fff" d="M.84 0H549v348.66H.84z"/>
  </mask>
  <g mask="url(#a)">
    <rect width="548.77" height="348.66" x=".23" fill="#fff" rx="5"/>
    <path fill="#F2F3F7" d="M107.65 0H545a4 4 0 014 4v340.66a4 4 0 01-4 4H107.65V0z"/>
    <path fill="#fff" d="M119.92 44.51a4 4 0 014-4h405.73a4 4 0 014 4v304.15H119.93V44.51z"/>
    <path fill="#D9DBEC" fill-rule="evenodd" d="M534.15 349.16H119.43V44.51a4.5 4.5 0 014.5-4.5h405.72a4.5 4.5 0 014.5 4.5v304.65zM123.93 40.51a4 4 0 00-4 4v304.15h413.72V44.51a4 4 0 00-4-4H123.93zM107.75 348.94V-.34h.5v349.28h-.5z" clip-rule="evenodd"/>
    <path fill="#D9DBEC" fill-rule="evenodd" d="M130.53 50.3h-2.13c-.83 0-1.5.68-1.5 1.5v2.14c0 .83.67 1.5 1.5 1.5h2.13c.83 0 1.5-.67 1.5-1.5v-2.13c0-.83-.67-1.5-1.5-1.5zm-2.13-.5a2 2 0 00-2 2v2.14c0 1.1.89 2 2 2h2.13a2 2 0 002-2v-2.13a2 2 0 00-2-2h-2.13zM203 45.89h-60.13a3.5 3.5 0 00-3.5 3.5v6.75a3.5 3.5 0 003.5 3.5h60.14a3.5 3.5 0 003.5-3.5V49.4a3.5 3.5 0 00-3.5-3.5zm-60.13-.5a4 4 0 00-4 4v6.75a4 4 0 004 4h60.14a4 4 0 004-4V49.4a4 4 0 00-4-4h-60.14z" clip-rule="evenodd"/>
    <path fill="#C4C8CB" d="M183.03 51.18h-37.38c-.74 0-1.34.48-1.34 1.06v1.05c0 .59.6 1.06 1.34 1.06h37.38c.74 0 1.34-.47 1.34-1.06v-1.05c0-.58-.6-1.06-1.34-1.06zM202.53 52.27a.15.15 0 000-.22l-.4-.4a.15.15 0 00-.21 0l-1.27 1.28-1.28-1.27a.15.15 0 00-.21 0l-.4.4a.15.15 0 000 .21l1.78 1.78c.06.06.15.06.21 0l1.78-1.78z"/>
    <path fill="#D9DBEC" fill-rule="evenodd" d="M456.52 45.89h-53.38a3.5 3.5 0 00-3.5 3.5v6.75a3.5 3.5 0 003.5 3.5h53.38a3.5 3.5 0 003.5-3.5V49.4a3.5 3.5 0 00-3.5-3.5zm-53.38-.5a4 4 0 00-4 4v6.75a4 4 0 004 4h53.38a4 4 0 004-4V49.4a4 4 0 00-4-4h-53.38z" clip-rule="evenodd"/>
    <path fill="#C4C8CB" d="M424.76 51.18h-19.48c-.38 0-.7.48-.7 1.06v1.05c0 .59.31 1.06.7 1.06h19.48c.38 0 .7-.47.7-1.06v-1.05c0-.58-.32-1.06-.7-1.06zM456.05 52.27a.15.15 0 000-.22l-.4-.4a.15.15 0 00-.21 0l-1.28 1.28-1.27-1.27a.15.15 0 00-.22 0l-.4.4a.15.15 0 000 .21l1.78 1.78c.06.06.16.06.22 0l1.78-1.78z"/>
    <path fill="#D9DBEC" fill-rule="evenodd" d="M523.43 45.89h-53.38a3.5 3.5 0 00-3.5 3.5v6.75a3.5 3.5 0 003.5 3.5h53.38a3.5 3.5 0 003.5-3.5V49.4a3.5 3.5 0 00-3.5-3.5zm-53.38-.5a4 4 0 00-4 4v6.75a4 4 0 004 4h53.38a4 4 0 004-4V49.4a4 4 0 00-4-4h-53.38z" clip-rule="evenodd"/>
    <path fill="#C4C8CB" d="M491.67 51.18h-19.48c-.39 0-.7.48-.7 1.06v1.05c0 .59.31 1.06.7 1.06h19.48c.38 0 .7-.47.7-1.06v-1.05c0-.58-.32-1.06-.7-1.06zM522.96 52.27a.15.15 0 000-.22l-.4-.4a.15.15 0 00-.22 0l-1.27 1.28-1.27-1.27a.15.15 0 00-.22 0l-.4.4a.15.15 0 000 .21l1.78 1.78c.06.06.16.06.22 0l1.78-1.78z"/>
    <path fill="#0472FF" d="M533.02 17.54h-46.45c-.56 0-1.02.78-1.02 1.74v11.28c0 .96.46 1.74 1.02 1.74h46.45c.56 0 1.02-.78 1.02-1.74V19.28c0-.96-.46-1.74-1.02-1.74z"/>
    <path fill="#fff" fill-opacity=".6" d="M521.03 23.87h-23.06a.85.85 0 00-.83.86v.87c0 .48.37.87.83.87h23.06c.46 0 .83-.4.83-.87v-.87a.85.85 0 00-.83-.86z"/>
    <path fill="#D9DBEC" fill-rule="evenodd" d="M527.23 343.2H127.01v-.5h400.22v.5z" clip-rule="evenodd"/>
    <rect width="15.35" height="3.07" x="139.57" y="324.97" fill="#C4C8CB" fill-opacity=".5" rx="1"/>
    <rect width="77.34" height="3.07" x="161.05" y="324.97" fill="#C4C8CB" fill-opacity=".5" rx="1"/>
    <rect width="49.11" height="3.07" x="244.53" y="324.97" fill="#C4C8CB" fill-opacity=".5" rx="1"/>
    <rect width="18.42" height="3.07" x="299.78" y="324.97" fill="#408DFF" rx="1"/>
    <rect width="122.77" height="3.68" x="139.57" y="314.73" fill="#C4C8CB" rx="1"/>
    <rect width="55.87" height="29.51" x="470.62" y="299.51" fill="#28056B" rx="7"/>
    <path fill="#fff" fill-opacity=".8" fill-rule="evenodd" d="M520.16 324.8h-44.27v-.52h44.27v.53z" clip-rule="evenodd"/>
    <path fill="url(#paint0_linear)" d="M480.1 305.83h4.22v17.92h-4.22z"/>
    <path fill="url(#paint1_linear)" d="M486.43 312.16h4.22v11.6h-4.22z"/>
    <path fill="url(#paint2_linear)" d="M492.75 314.27h4.22v9.49h-4.22z"/>
    <path fill="url(#paint3_linear)" d="M499.08 312.16h4.22v11.6h-4.22z"/>
    <path fill="url(#paint4_linear)" d="M505.4 316.38h4.22v7.38h-4.22z"/>
    <path fill="url(#paint5_linear)" d="M511.73 321.65h4.22v2.11h-4.22z"/>
    <path fill="#fff" fill-opacity=".5" fill-rule="evenodd" d="M472.18 312.16h-1.04v-.53h1.04v.53zm4.13 0h-2.06v-.53h2.06v.53zm4.14 0h-2.07v-.53h2.07v.53zm4.13 0h-2.06v-.53h2.06v.53zm4.14 0h-2.07v-.53h2.07v.53zm4.13 0h-2.06v-.53h2.06v.53zm4.14 0h-2.07v-.53H497v.53zm4.14 0h-2.07v-.53h2.07v.53zm4.13 0h-2.07v-.53h2.07v.53zm4.14 0h-2.07v-.53h2.07v.53zm4.13 0h-2.07v-.53h2.07v.53zm4.14 0h-2.07v-.53h2.07v.53zm4.13 0h-2.07v-.53h2.07v.53zm3.1 0h-1.03v-.53h1.03v.53z" clip-rule="evenodd"/>
    <rect width="162.33" height="6.32" x="139.48" y="302.02" fill="#C4C8CB" rx="1"/>
    <path fill="#D9DBEC" fill-rule="evenodd" d="M130.53 302.28h-2.13c-.83 0-1.5.67-1.5 1.5v2.14c0 .83.67 1.5 1.5 1.5h2.13c.83 0 1.5-.67 1.5-1.5v-2.14c0-.83-.67-1.5-1.5-1.5zm-2.13-.5a2 2 0 00-2 2v2.14c0 1.1.89 2 2 2h2.13a2 2 0 002-2v-2.14a2 2 0 00-2-2h-2.13zM527.23 287.1H127.01v-.5h400.22v.5z" clip-rule="evenodd"/>
    <rect width="15.35" height="3.07" x="139.57" y="268.87" fill="#C4C8CB" fill-opacity=".5" rx="1"/>
    <rect width="77.34" height="3.07" x="161.05" y="268.87" fill="#C4C8CB" fill-opacity=".5" rx="1"/>
    <rect width="49.11" height="3.07" x="244.53" y="268.87" fill="#C4C8CB" fill-opacity=".5" rx="1"/>
    <rect width="18.42" height="3.07" x="299.78" y="268.87" fill="#408DFF" rx="1"/>
    <rect width="122.77" height="3.68" x="139.57" y="258.64" fill="#C4C8CB" rx="1"/>
    <rect width="55.87" height="29.51" fill="#F6F9D2" rx="7" transform="matrix(-1 0 0 1 526.49 243.65)"/>
    <mask id="b" width="57" height="31" x="470" y="243" maskUnits="userSpaceOnUse">
      <rect width="55.87" height="29.51" fill="#F6F9D2" rx="7" transform="matrix(-1 0 0 1 526.49 243.65)"/>
    </mask>
    <g mask="url(#b)">
      <path fill="#6D852F" d="M485.24 261.26c-7.37-.74-12.07 7.26-13.5 11.36l-1.54 3.99h46.35c-.51-2.56-3.8-7.68-12.9-7.68-11.35 0-9.2-6.75-18.41-7.67z"/>
      <path fill="#8C4B2B" d="M516.24 265.56h2.46v6.75h-2.46v-6.75z"/>
      <path fill="#66351E" d="M517.47 267.1v5.21h1.23v-3.38l1.22-.6v-.93l-1.22.46v-2.3h-2.46v1.53h1.23z"/>
      <path fill="#43722E" d="M513.78 265.56h7.98c-.92-8.29-2.76-11.66-3.99-15.35-1.84 4-3.06 7.67-3.99 15.35z"/>
      <path fill="#84882F" d="M517.77 250.21c-1.84 4-3.06 7.67-3.99 15.35h2.77c-.2-2.05-.25-7.98 1.22-15.35z"/>
      <path fill="#43722E" d="M495.06 261.26c-7.36-.74-12.07 7.26-13.5 11.36l-1.54 3.99h46.35c-.51-2.56-3.8-7.68-12.9-7.68-11.35 0-9.2-6.75-18.4-7.67z"/>
      <path fill="#66351E" d="M503.35 263.72h-2.46v11.66h2.46z"/>
      <path fill="#8C4B2B" d="M502.12 265.25v10.13h-1.23v-8.29l-1.22-.61v-.92l1.22.46v-.77h1.23z"/>
      <path fill="#43722E" d="M502.43 255.12l-6.12 8.75h12.23l-6.11-8.75z"/>
      <path fill="#83892F" d="M496.31 263.87l6.12-8.75-1.84 8.75h-4.28z"/>
      <path fill="#43722E" d="M502.43 250.21l-6.12 8.75h12.23l-6.11-8.75z"/>
      <path fill="#83892F" d="M496.31 258.96l6.12-8.75-1.84 8.75h-4.28z"/>
      <path fill="#43722E" d="M502.43 245.3l-6.12 8.75h12.23l-6.11-8.75z"/>
      <path fill="#83892F" d="M496.31 254.05l6.12-8.75-1.84 8.75h-4.28z"/>
    </g>
    <circle r="3.99" fill="#FF9852" transform="matrix(-1 0 0 1 483.4 251.75)"/>
    <rect width="162.33" height="6.32" x="139.48" y="245.92" fill="#C4C8CB" rx="1"/>
    <path fill="#D9DBEC" fill-rule="evenodd" d="M130.53 246.18h-2.13c-.83 0-1.5.67-1.5 1.5v2.14c0 .83.67 1.5 1.5 1.5h2.13c.83 0 1.5-.67 1.5-1.5v-2.14c0-.83-.67-1.5-1.5-1.5zm-2.13-.5a2 2 0 00-2 2v2.14c0 1.1.89 2 2 2h2.13a2 2 0 002-2v-2.14a2 2 0 00-2-2h-2.13zM527.23 231.04H127.01v-.5h400.22v.5z" clip-rule="evenodd"/>
    <rect width="15.35" height="3.07" x="139.57" y="212.8" fill="#C4C8CB" fill-opacity=".5" rx="1"/>
    <rect width="77.34" height="3.07" x="161.05" y="212.8" fill="#C4C8CB" fill-opacity=".5" rx="1"/>
    <rect width="49.11" height="3.07" x="244.53" y="212.8" fill="#C4C8CB" fill-opacity=".5" rx="1"/>
    <rect width="18.42" height="3.07" x="299.78" y="212.8" fill="#408DFF" rx="1"/>
    <rect width="122.77" height="3.68" x="139.57" y="202.57" fill="#C4C8CB" rx="1"/>
    <rect width="55.87" height="29.51" x="470.62" y="187.61" fill="url(#paint6_linear)" rx="7"/>
    <path fill="#fff" d="M517.52 198.15h-10.54c0-2.1 1.58-3.16 4.22-3.16.18-.7 1.06-2.11 3.16-2.11 2.64 0 3.16 2.63 3.16 5.27zM482.74 196.04h10.54c0-2.1-1.58-3.16-4.22-3.16-.17-.7-1.05-2.1-3.16-2.1-2.63 0-3.16 2.63-3.16 5.26z"/>
    <path fill="#0193D2" d="M470.62 211.85h55.87a5.27 5.27 0 01-5.28 5.27H475.9a5.27 5.27 0 01-5.27-5.27z"/>
    <path fill="url(#paint7_linear)" d="M513.84 213.73c0 .62-3.35 2.69-7.56 2.72-4.74.02-11.68-1.36-15.1-1.36-2.57 0-5.75 1.09-9.5 1.98h-7.11c-2.91 0-3.95-2.84-3.95-3.82v-3.2a8.87 8.87 0 014.37-1.07c3.57 0 33.45-2.04 38.85 4.75z" opacity=".5"/>
    <path fill="#71A94A" d="M488.54 202.9c-2.64 4.21-3.53 5.26-5.27 5.26-1.75 0-4.75-3.53-4.75-7.9 0-4.37 3-8.43 4.75-8.43.55 0 2.63 0 3.69 1.05 1.58 2.1.52 3.16 1.58 5.8.83 1.97.52 2.63 0 4.21z"/>
    <path fill="#98C150" d="M504.88 204.47c0 2.11-.53 2.64-2.64 3.7-1.05 1.05-1.58 2.63-3.16 2.63-3.7-2.1-3.6-7.13-3.16-8.43.52-1.59 2.63-5.8 4.21-4.75.53.53.53 1.58 1.06 2.11 1.86 1.87 3.69 2.11 3.69 4.75z"/>
    <path fill="#000" fill-rule="evenodd" d="M483.48 196.04c.11 0 .2.1.2.21v16.45a.21.21 0 11-.41 0v-16.45c0-.11.1-.2.2-.2z" clip-rule="evenodd"/>
    <path fill="#000" fill-rule="evenodd" d="M486.05 196.94c.08.08.09.21 0 .3l-2.42 2.63a.21.21 0 01-.3.02.21.21 0 010-.3l2.42-2.64c.08-.08.2-.09.3 0zM480.91 201.16a.2.2 0 00-.01.3l2.42 2.63a.21.21 0 00.31-.28l-2.42-2.64a.2.2 0 00-.3-.01zM501.65 202.22a.2.2 0 010 .3l-2.21 2.1a.21.21 0 01-.3 0 .21.21 0 010-.3l2.22-2.1a.21.21 0 01.3 0z" clip-rule="evenodd"/>
    <path fill="#000" fill-rule="evenodd" d="M499.08 212.7V201.3a.21.21 0 01.42 0v11.39a.21.21 0 01-.42 0z" clip-rule="evenodd"/>
    <path fill="#000" fill-rule="evenodd" d="M497.88 205.38a.21.21 0 000 .3l1.26 1.26a.21.21 0 00.3-.3l-1.27-1.26a.21.21 0 00-.3 0z" clip-rule="evenodd"/>
    <rect width="162.33" height="6.32" x="139.48" y="189.85" fill="#C4C8CB" rx="1"/>
    <path fill="#D9DBEC" fill-rule="evenodd" d="M130.53 190.11h-2.13c-.83 0-1.5.67-1.5 1.5v2.14c0 .83.67 1.5 1.5 1.5h2.13c.83 0 1.5-.67 1.5-1.5v-2.14c0-.83-.67-1.5-1.5-1.5zm-2.13-.5a2 2 0 00-2 2v2.14c0 1.1.89 2 2 2h2.13a2 2 0 002-2v-2.14a2 2 0 00-2-2h-2.13zM527.23 174.76H127.01v-.5h400.22v.5z" clip-rule="evenodd"/>
    <rect width="15.35" height="3.07" x="139.57" y="156.53" fill="#C4C8CB" fill-opacity=".5" rx="1"/>
    <rect width="77.34" height="3.07" x="161.05" y="156.53" fill="#C4C8CB" fill-opacity=".5" rx="1"/>
    <rect width="49.11" height="3.07" x="244.53" y="156.53" fill="#C4C8CB" fill-opacity=".5" rx="1"/>
    <rect width="18.42" height="3.07" x="299.78" y="156.53" fill="#408DFF" rx="1"/>
    <rect width="122.77" height="3.68" x="139.57" y="144.87" fill="#C4C8CB" rx="1"/>
    <rect width="55.87" height="29.51" x="470.62" y="131.13" fill="url(#paint8_linear)" rx="7"/>
    <g filter="url(#filter0_f)">
      <ellipse cx="493.81" cy="144.31" fill="url(#paint9_linear)" rx="9.49" ry="8.96"/>
    </g>
    <circle cx="493.99" cy="145.39" r="6.58" fill="url(#paint10_linear)"/>
    <circle cx="496.62" cy="144.07" r="1.32" fill="#C9D5E1"/>
    <circle cx="497.28" cy="140.78" r=".66" fill="#C9D5E1"/>
    <circle cx="490.7" cy="142.1" r=".66" fill="#C9D5E1"/>
    <circle cx="492.02" cy="144.73" r=".66" fill="#CFDCE6"/>
    <circle cx="494.65" cy="142.1" r=".66" fill="#C9D5E1"/>
    <circle cx="489.06" cy="144.4" r=".33" fill="#CFDCE6"/>
    <path fill="url(#paint11_linear)" d="M514.89 154.32h-25.3c0-1.48 2-2.21 4-2.21.66-3.69 4.66-5.17 7.32-3.69 2.66-5.9 11.32-4.42 10.65 3.69 2.13 0 3.33 1.47 3.33 2.2z"/>
    <path fill="#C8F1F5" d="M475.07 135.13l.08.86.72.5-.87.08-.5.71-.08-.86-.7-.5.85-.08.5-.7zM510.32 135.8l.72.48.83-.24-.47.72.24.84-.73-.48-.83.24.48-.72-.24-.83zM515.47 147.22l.09.86.7.5-.85.08-.5.71-.08-.86-.71-.5.86-.08.5-.7zM482.28 152.48l.47.73.85.12-.73.47-.12.85-.46-.73-.86-.12.73-.46.12-.86z"/>
    <path fill="#C8F1F5" d="M480.3 145.08l.38.78.83.22-.77.38-.22.83-.38-.77-.84-.22.78-.38.21-.84zM520.21 135.46l.38.78.84.21-.77.38-.22.84-.38-.78-.84-.21.78-.38.21-.84zM500.94 153.58l-.22.83.48.72-.83-.23-.72.49.23-.83-.49-.72.84.22.71-.48zM487.57 133.88l-.23.84.5.71-.84-.22-.72.48.23-.83-.5-.72.84.23.72-.49z" opacity=".5"/>
    <rect width="162.33" height="6.32" x="139.48" y="133.58" fill="#C4C8CB" rx="1"/>
    <path fill="#D9DBEC" fill-rule="evenodd" d="M130.53 133.84h-2.13c-.83 0-1.5.67-1.5 1.5v2.14c0 .83.67 1.5 1.5 1.5h2.13c.83 0 1.5-.67 1.5-1.5v-2.14c0-.83-.67-1.5-1.5-1.5zm-2.13-.5a2 2 0 00-2 2v2.14c0 1.1.89 2 2 2h2.13a2 2 0 002-2v-2.14a2 2 0 00-2-2h-2.13zM527.23 118.29H127.01v-.5h400.22v.5z" clip-rule="evenodd"/>
    <rect width="15.35" height="3.07" x="139.57" y="100.06" fill="#C4C8CB" fill-opacity=".5" rx="1"/>
    <rect width="77.34" height="3.07" x="161.05" y="100.06" fill="#C4C8CB" fill-opacity=".5" rx="1"/>
    <rect width="49.11" height="3.07" x="244.53" y="100.06" fill="#C4C8CB" fill-opacity=".5" rx="1"/>
    <rect width="18.42" height="3.07" x="299.2" y="99.66" fill="#408DFF" rx="1"/>
    <rect width="122.77" height="3.68" x="139.57" y="88.39" fill="#C4C8CB" rx="1"/>
    <rect width="55.87" height="29.51" x="471.04" y="74.89" fill="#EB4A4F" rx="7"/>
    <circle cx="499.69" cy="89.41" r="10.54" fill="url(#paint12_linear)"/>
    <path fill="#0194D2" d="M471.23 95.73s7.73-2.1 14.76 0c3.32 1 18.45-.53 24.77-1.05 6.85-.58 16.34 1.05 16.34 1.05v1.43a7 7 0 01-7 7h-41.87a7 7 0 01-7-7v-1.43z"/>
    <rect width="162.33" height="6.32" x="139.48" y="77.1" fill="#C4C8CB" rx="1"/>
    <path fill="#D9DBEC" fill-rule="evenodd" d="M130.53 77.37h-2.13c-.83 0-1.5.67-1.5 1.5V81c0 .83.67 1.5 1.5 1.5h2.13c.83 0 1.5-.67 1.5-1.5v-2.13c0-.83-.67-1.5-1.5-1.5zm-2.13-.5a2 2 0 00-2 2V81c0 1.1.89 2 2 2h2.13a2 2 0 002-2v-2.13a2 2 0 00-2-2h-2.13z" clip-rule="evenodd"/>
    <rect width="53.61" height="6.32" x="120.07" y="22.74" fill="#889197" rx="1"/>
    <rect width="54.63" height="3.07" x="24.78" y="329.05" fill="#889197" rx="1"/>
    <rect width="15.35" height="2.46" x="24.78" y="335.19" fill="#C4C8CB" rx="1"/>
    <rect width="14.76" height="14.76" x="5.75" y="325.34" fill="#C4C8CB" rx="2"/>
    <path fill="#C4C8CB" d="M100.02 333.38c.06.06.06.16 0 .22l-.4.4a.15.15 0 01-.21 0l-1.28-1.28-1.27 1.28a.15.15 0 01-.22 0l-.4-.4a.15.15 0 010-.22l1.79-1.77a.15.15 0 01.21 0l1.78 1.77z"/>
    <rect width="54.81" height="3.16" x="25.39" y="224.7" fill="#C4C8CB" rx="1"/>
    <rect width="6.14" height="6.14" x="12.71" y="223.47" fill="#9CA3A9" fill-opacity=".5" rx="3.07"/>
    <rect width="44.2" height="3.07" x="6.36" y="210.58" fill="#889197" rx="1"/>
    <rect width="54.81" height="3.16" x="25.39" y="87.2" fill="#C4C8CB" rx="1"/>
    <rect width="6.14" height="6.14" x="12.71" y="85.97" fill="#9CA3A9" fill-opacity=".5" rx="3.07"/>
    <rect width="54.81" height="3.16" x="25.39" y="102.55" fill="#C4C8CB" rx="1"/>
    <rect width="99.44" height="14.73" x="4.52" y="112.37" fill="#F1F4F9" rx="3"/>
    <rect width="54.81" height="3.16" x="25.39" y="117.89" fill="#889197" rx="1"/>
    <rect width="6.14" height="6.14" x="12.71" y="101.32" fill="#9CA3A9" fill-opacity=".5" rx="3.07"/>
    <rect width="6.14" height="6.14" x="13.17" y="116.48" fill="#9CA3A9" fill-opacity=".5" rx="3.07"/>
    <rect width="36.22" height="3.07" x="25.39" y="133.24" fill="#C4C8CB" rx="1"/>
    <rect width="54.81" height="3.16" x="25.39" y="148.58" fill="#C4C8CB" rx="1"/>
    <rect width="36.22" height="3.07" x="25.39" y="156.56" fill="#C4C8CB" rx="1"/>
    <rect width="6.14" height="6.14" x="12.71" y="147.36" fill="#9CA3A9" fill-opacity=".5" rx="3.07"/>
    <rect width="54.81" height="3.16" x="25.39" y="173.14" fill="#C4C8CB" rx="1"/>
    <rect width="6.14" height="6.14" x="12.71" y="171.91" fill="#9CA3A9" fill-opacity=".5" rx="3.07"/>
    <rect width="54.81" height="3.16" x="25.39" y="188.48" fill="#C4C8CB" rx="1"/>
    <rect width="6.14" height="6.14" x="12.71" y="187.26" fill="#9CA3A9" fill-opacity=".5" rx="3.07"/>
    <rect width="19.64" height="3.07" x="6.36" y="73.08" fill="#889197" rx="1"/>
    <rect width="54.81" height="3.16" x="25.39" y="50.98" fill="#C4C8CB" rx="1"/>
    <rect width="6.14" height="6.14" x="12.71" y="49.76" fill="#9CA3A9" fill-opacity=".5" rx="3.07"/>
    <rect width="35.6" height="3.07" x="6.36" y="36.87" fill="#889197" rx="1"/>
    <rect width="33.3" height="3.16" x="25.47" y="9.1" fill="#889197" rx="1"/>
    <rect width="23.33" height="3.07" x="25.39" y="15.38" fill="#C4C8CB" rx="1"/>
    <rect width="14.76" height="14.76" x="6.36" y="5.52" fill="#0472FF" rx="2"/>
    <path fill="#fff" d="M16.31 16.8h-3.65a.88.88 0 01-.63-.25l-2.78-2.79a.73.73 0 01.52-1.25h3.4v-3.4a.73.73 0 011.26-.52l2.78 2.78a.88.88 0 01.26.63v3.65a1.16 1.16 0 01-1.16 1.16zm-3.5-1.25h3.4v-3.4l-1.78-1.79v3.4h-3.4l1.78 1.8z"/>
  </g>
  <defs>
    <linearGradient id="paint0_linear" x1="482.21" x2="482.21" y1="305.83" y2="323.75" gradientUnits="userSpaceOnUse">
      <stop stop-color="#FFA807"/>
      <stop offset="1" stop-color="#E239DE"/>
    </linearGradient>
    <linearGradient id="paint1_linear" x1="488.54" x2="488.54" y1="312.16" y2="323.75" gradientUnits="userSpaceOnUse">
      <stop stop-color="#FFA807"/>
      <stop offset="1" stop-color="#E239DE"/>
    </linearGradient>
    <linearGradient id="paint2_linear" x1="494.86" x2="494.86" y1="314.27" y2="323.75" gradientUnits="userSpaceOnUse">
      <stop stop-color="#FFA807"/>
      <stop offset="1" stop-color="#E239DE"/>
    </linearGradient>
    <linearGradient id="paint3_linear" x1="501.19" x2="501.19" y1="312.16" y2="323.75" gradientUnits="userSpaceOnUse">
      <stop stop-color="#FFA807"/>
      <stop offset="1" stop-color="#E239DE"/>
    </linearGradient>
    <linearGradient id="paint4_linear" x1="507.51" x2="507.51" y1="316.38" y2="323.75" gradientUnits="userSpaceOnUse">
      <stop stop-color="#FFA807"/>
      <stop offset="1" stop-color="#E239DE"/>
    </linearGradient>
    <linearGradient id="paint5_linear" x1="513.84" x2="513.84" y1="321.65" y2="323.75" gradientUnits="userSpaceOnUse">
      <stop stop-color="#FFA807"/>
      <stop offset="1" stop-color="#E239DE"/>
    </linearGradient>
    <linearGradient id="paint6_linear" x1="498.55" x2="498.55" y1="187.61" y2="217.12" gradientUnits="userSpaceOnUse">
      <stop offset=".57" stop-color="#CFFCFF"/>
      <stop offset="1" stop-color="#5EC5CC"/>
    </linearGradient>
    <linearGradient id="paint7_linear" x1="492.23" x2="492.23" y1="208.69" y2="217.07" gradientUnits="userSpaceOnUse">
      <stop stop-color="#59712F"/>
      <stop offset="1" stop-color="#7D974F"/>
    </linearGradient>
    <linearGradient id="paint8_linear" x1="498.55" x2="498.55" y1="131.13" y2="160.64" gradientUnits="userSpaceOnUse">
      <stop stop-color="#0F328C"/>
      <stop offset="1" stop-color="#81398D"/>
    </linearGradient>
    <linearGradient id="paint9_linear" x1="493.81" x2="493.81" y1="135.34" y2="153.26" gradientUnits="userSpaceOnUse">
      <stop stop-color="#EAF3EE"/>
      <stop offset="1" stop-color="#9CAED6"/>
    </linearGradient>
    <linearGradient id="paint10_linear" x1="493.99" x2="493.99" y1="138.81" y2="151.97" gradientUnits="userSpaceOnUse">
      <stop stop-color="#EAF3EE"/>
      <stop offset="1" stop-color="#9CAED6"/>
    </linearGradient>
    <linearGradient id="paint11_linear" x1="502.24" x2="502.24" y1="144.83" y2="154.32" gradientUnits="userSpaceOnUse">
      <stop stop-color="#8CD2F6"/>
      <stop offset="1" stop-color="#6F77E6"/>
    </linearGradient>
    <linearGradient id="paint12_linear" x1="499.69" x2="499.69" y1="78.86" y2="99.95" gradientUnits="userSpaceOnUse">
      <stop stop-color="#F4AE34"/>
      <stop offset="1" stop-color="#F4AE34" stop-opacity="0"/>
    </linearGradient>
    <filter id="filter0_f" width="30.97" height="29.92" x="478.32" y="129.34" color-interpolation-filters="sRGB" filterUnits="userSpaceOnUse">
      <feFlood flood-opacity="0" result="BackgroundImageFix"/>
      <feBlend in="SourceGraphic" in2="BackgroundImageFix" result="shape"/>
      <feGaussianBlur result="effect1_foregroundBlur" stdDeviation="3"/>
    </filter>
  </defs>
</svg>
