<svg width="200" height="200" viewBox="0 0 200 200" fill="none" xmlns="http://www.w3.org/2000/svg">
<rect width="200" height="200" fill="#007FFE"/>
<path d="M0 200L4.71939e-06 0L200 4.71939e-06L200 200L0 200Z" fill="#6D37E7"/>
<path d="M130 56V50.5C130 47.475 127.525 45 124.5 45H58.5C55.475 45 53 47.475 53 50.5V72.5C53 75.525 55.475 78 58.5 78H124.5C127.525 78 130 75.525 130 72.5V67H135.5V89H80.5V149.5C80.5 152.525 82.975 155 86 155H97C100.025 155 102.5 152.525 102.5 149.5V100H146.5V56H130Z" fill="#DACAFF"/>
<path d="M130 50.5V56V67V72.5C130 75.525 127.525 78 124.5 78H58.5C55.475 78 53 75.525 53 72.5V50.5C53 47.475 55.475 45 58.5 45H124.5C127.525 45 130 47.475 130 50.5Z" fill="#EEF9FF"/>
</svg>
