<svg width="200" height="200" viewBox="0 0 200 200" fill="none" xmlns="http://www.w3.org/2000/svg">
<rect width="200" height="200" fill="#007FFE"/>
<path d="M0 200L4.71939e-06 0L200 4.71939e-06L200 200L0 200Z" fill="#00524E"/>
<path d="M0 200L4.71939e-06 0L200 4.71939e-06L200 200L0 200Z" fill="#0DE37D"/>
<path d="M99.75 45C73.955 45 53 65.955 53 91.75C53 117.545 73.955 138.5 99.75 138.5H102.5V155C129.23 142.13 146.5 116.5 146.5 91.75C146.5 65.955 125.545 45 99.75 45ZM105.25 124.75H94.25V113.75H105.25V124.75ZM107.45 98.46C107.395 98.515 107.34 98.625 107.285 98.735C107.01 99.175 106.735 99.615 106.515 100.055C106.405 100.22 106.35 100.44 106.295 100.66C106.13 101.045 105.965 101.43 105.855 101.815C105.47 102.97 105.305 104.18 105.305 105.555H94.25C94.25 102.75 94.69 100.385 95.35 98.405C95.35 98.35 95.35 98.295 95.405 98.24C95.46 98.02 95.625 97.91 95.68 97.69C96.01 96.81 96.395 96.04 96.89 95.27C97.055 94.995 97.275 94.72 97.44 94.445C97.605 94.225 97.715 93.95 97.88 93.785L97.935 93.84C102.555 87.79 110.09 85.92 110.695 79.1C111.19 73.71 107.34 68.485 102.06 67.385C96.34 66.175 91.17 69.53 89.41 74.425C88.64 76.405 86.825 78 84.57 78H83.47C80.17 78 77.75 74.755 78.685 71.565C81.71 61.555 91.72 54.57 103.05 56.22C112.345 57.595 119.77 65.24 121.365 74.535C123.785 87.955 112.4 91.2 107.45 98.46Z" fill="#00524E"/>
<path d="M105.25 124.75H94.2501V113.75H105.25V124.75ZM107.45 98.46C107.395 98.515 107.34 98.625 107.285 98.735C107.01 99.175 106.735 99.615 106.515 100.055C106.405 100.22 106.35 100.44 106.295 100.66C106.13 101.045 105.965 101.43 105.855 101.815C105.47 102.97 105.305 104.18 105.305 105.555H94.2501C94.2501 102.75 94.6901 100.385 95.3501 98.405C95.3501 98.35 95.3501 98.295 95.4051 98.24C95.4601 98.02 95.6251 97.91 95.6801 97.69C96.0101 96.81 96.3951 96.04 96.8901 95.27C97.0551 94.995 97.2751 94.72 97.4401 94.445C97.6051 94.225 97.7151 93.95 97.8801 93.785L97.9351 93.84C102.555 87.79 110.09 85.92 110.695 79.1C111.19 73.71 107.34 68.485 102.06 67.385C96.3401 66.175 91.1701 69.53 89.4101 74.425C88.6401 76.405 86.8251 78 84.5701 78H83.4701C80.1701 78 77.7501 74.755 78.6851 71.565C81.7101 61.555 91.7201 54.57 103.05 56.22C112.345 57.595 119.77 65.24 121.365 74.535C123.785 87.955 112.4 91.2 107.45 98.46Z" fill="white"/>
</svg>
