<svg width="200" height="200" viewBox="0 0 200 200" fill="none" xmlns="http://www.w3.org/2000/svg">
<path d="M0 200L4.71939e-06 0L200 4.71939e-06L200 200L0 200Z" fill="#FF5504"/>
<path d="M60.4113 155C68.9227 155 75.8226 148.1 75.8226 139.589C75.8226 131.077 68.9227 124.177 60.4113 124.177C51.8999 124.177 45 131.077 45 139.589C45 148.1 51.8999 155 60.4113 155Z" fill="white"/>
<path opacity="0.8" d="M45 85.0129V105.019C72.5707 105.019 94.9807 127.429 94.9807 155H114.987C114.987 116.33 83.6697 85.0129 45 85.0129Z" fill="white"/>
<path opacity="0.6" d="M45 45V65.0064C94.6979 65.0064 134.994 105.302 134.994 155H155C155 94.2738 105.726 45 45 45Z" fill="white"/>
</svg>
