<svg width="200" height="200" viewBox="0 0 200 200" fill="none" xmlns="http://www.w3.org/2000/svg">
<path d="M0 200L4.71939e-06 0L200 4.71939e-06L200 200L0 200Z" fill="#FECB42"/>
<path d="M134.737 108.895C123.563 108.895 114.474 117.984 114.474 129.158C114.474 140.332 123.563 149.421 134.737 149.421C145.911 149.421 155 140.332 155 129.158C155 117.984 145.911 108.895 134.737 108.895ZM146.316 132.053H137.5V140.5H131.737V132.053H123.158V126.263H131.737V117.5H137.5V126.263H146.316V132.053ZM106.079 132.053C105.963 131.068 105.789 130.142 105.789 129.158C105.789 113.179 118.758 100.211 134.737 100.211C140.063 100.211 144.926 101.716 149.211 104.205V62.5789C149.211 56.2105 144 51 137.632 51H56.5789C50.2105 51 45 56.2105 45 62.5789V120.474C45 126.842 50.2105 132.053 56.5789 132.053H106.079ZM97.1053 94.421L56.5789 74.1579V62.5789L97.1053 82.8421L137.632 62.5789V74.1579L97.1053 94.421Z" fill="#082B5A"/>
<path d="M146.316 132.053H137.5V140.5H131.737V132.053H123.158V126.263H131.737V117.5H137.5V126.263H146.316V132.053Z" fill="#FFF7CA"/>
<path d="M97.1054 94.421L56.5791 74.1579V62.5789L97.1054 82.8421L137.632 62.5789V74.1579L97.1054 94.421Z" fill="#FFF7CA"/>
</svg>
