<svg width="200" height="200" viewBox="0 0 200 200" fill="none" xmlns="http://www.w3.org/2000/svg">
<rect width="200" height="200" fill="#141C23"/>
<path d="M0 200L4.71939e-06 0L200 4.71939e-06L200 200L0 200Z" fill="#141C23"/>
<path d="M149.495 71.6986L129.242 70.7167L128.064 57.5095C127.818 54.7355 125.339 52.7962 122.442 53.0171L49.7785 58.9824C46.8817 59.2279 44.7951 61.56 45.016 64.3095L50.2203 122.195C50.4658 124.969 52.9698 126.908 55.842 126.687L59.5242 126.393L58.9351 137.636C58.7878 140.729 61.1935 143.233 64.434 143.405L145.493 147.259C148.734 147.406 151.41 145.148 151.581 142.055L154.994 77.4184C155.141 74.3498 152.711 71.8459 149.495 71.6986ZM62.3473 72.9997L60.6044 106.091L56.3329 112.155L52.4052 68.4582C52.4052 68.4091 52.4052 68.3845 52.4052 68.3354C52.4052 68.2863 52.4052 68.2618 52.4052 68.2127C52.5279 66.9853 53.4607 66.0033 54.7373 65.9051L118.809 60.6517C120.086 60.5535 121.19 61.3882 121.387 62.5911C121.387 62.6402 121.46 62.6402 121.46 62.6893C121.46 62.7138 121.534 62.7384 121.534 62.7875L122.197 70.3484L68.4354 67.7708C65.195 67.6726 62.4946 69.9311 62.3473 72.9997ZM144.364 131.155L132.9 117.58L126.149 109.552C125.56 108.841 124.603 108.251 123.547 108.202C122.491 108.153 121.706 108.571 120.822 109.209L116.796 112.13C115.937 112.646 115.274 112.989 114.366 112.94C113.482 112.891 112.696 112.547 112.132 112.007C111.935 111.811 111.567 111.467 111.273 111.173L100.766 99.1684C100.005 98.2111 98.7529 97.5973 97.3781 97.5237C95.9789 97.45 94.6287 98.0392 93.745 98.8984L68.9263 125.607L67.257 127.424L67.3307 125.755L69 94.1114L69.8101 78.6704C69.8101 78.6213 69.8101 78.5722 69.8101 78.5476C69.8101 78.4986 69.8101 78.4495 69.8101 78.4249C70.1538 77.0993 71.3321 76.1419 72.7314 76.2155L122.86 78.6213L129.905 78.965L144.217 79.6523C145.641 79.726 146.745 80.8061 146.77 82.1563C146.77 82.2054 146.844 82.2299 146.844 82.279C146.844 82.3281 146.917 82.3527 146.917 82.4018L144.364 131.155Z" fill="#7DFEC6"/>
<path d="M128.776 101.672C133.538 101.672 137.417 97.7937 137.417 93.0313C137.417 88.2689 133.563 84.3902 128.776 84.3902C124.013 84.3902 120.135 88.2443 120.135 93.0313C120.135 97.8183 123.989 101.672 128.776 101.672Z" fill="#7DFEC6"/>
</svg>
