<svg width="200" height="200" viewBox="0 0 200 200" fill="none" xmlns="http://www.w3.org/2000/svg">
<g clip-path="url(#clip0)">
<rect width="200" height="200" fill="white"/>
<path d="M0 200L4.71939e-06 0L200 4.71939e-06L200 200L0 200Z" fill="#241553"/>
<path d="M152 79C152 77.3431 150.657 76 149 76H93C91.3431 76 90 77.3431 90 79V125.478C90 127.135 91.3431 128.478 93 128.478H117.058C117.846 128.478 118.602 128.788 119.163 129.342L132.05 142.041C133.935 143.899 137.127 142.583 137.155 139.936L137.244 131.447C137.261 129.802 138.599 128.478 140.244 128.478H149C150.657 128.478 152 127.135 152 125.478V79Z" fill="#8D91FF"/>
<path d="M48 57C48 55.3431 49.3431 54 51 54H115.968C117.625 54 118.968 55.3431 118.968 57V111.323C118.968 112.979 117.625 114.323 115.968 114.323H87.8223C87.032 114.323 86.2736 114.634 85.712 115.19L70.1129 130.628C68.2293 132.493 65.0304 131.178 65.0028 128.527L64.8858 117.291C64.8686 115.647 63.5306 114.323 61.8859 114.323H51C49.3431 114.323 48 112.979 48 111.323V57Z" fill="#ACDAFF"/>
</g>
<defs>
<clipPath id="clip0">
<rect width="200" height="200" fill="white"/>
</clipPath>
</defs>
</svg>
