<svg width="200" xmlns="http://www.w3.org/2000/svg" viewBox="0 0 200 200">
  <defs/>
  <path fill="#FECB42" d="M0 200V0h200v200H0z"/>
  <path fill="#FFEFC6" fill-rule="evenodd" stroke="#FFEFC6" stroke-width="2" d="M78.46 43.1c0 .07-.38.11-.93.11s-.93.05-.93.11-.27.1-.62.1c-.34 0-.62.06-.62.12 0 .05-.23.1-.51.1-.29 0-.52.05-.52.1 0 .07-.19.12-.41.12-.23 0-.42.04-.42.1 0 .06-.18.11-.41.11-.23 0-.41.05-.41.1 0 .07-.19.11-.42.11-.22 0-.41.05-.41.11s-.14.1-.3.1c-.18 0-.32.06-.32.12 0 .05-.14.1-.3.1-.18 0-.32.05-.32.11s-.14.1-.3.1c-.18 0-.32.06-.32.11 0 .06-.14.11-.3.11-.18 0-.32.05-.32.1 0 .07-.14.12-.3.12-.18 0-.32.04-.32.1 0 .06-.1.11-.2.11-.12 0-.21.05-.21.1 0 .07-.14.11-.31.11-.17 0-.31.05-.31.11s-.1.1-.2.1c-.12 0-.21.06-.21.12 0 .05-.1.1-.21.1-.11 0-.2.05-.2.1 0 .07-.1.12-.21.12-.12 0-.21.04-.21.1 0 .06-.14.11-.31.11-.17 0-.3.05-.3.1 0 .07-.1.11-.2.11s-.24.1-.33.22c-.08.12-.23.21-.33.21s-.18.05-.18.11-.1.1-.2.1c-.12 0-.22.06-.22.11 0 .06-.09.11-.2.11-.12 0-.2.05-.2.1 0 .07-.1.12-.21.12-.12 0-.21.04-.21.1 0 .06-.08.1-.19.1-.1 0-.25.1-.33.22-.08.12-.22.22-.3.22-.1 0-.24.1-.32.21-.08.12-.23.22-.33.22s-.18.04-.18.1c0 .06-.08.11-.17.11-.09 0-.3.14-.45.32-.16.18-.36.32-.43.32-.08 0-.21.1-.3.22-.08.11-.2.21-.29.21-.08 0-.27.15-.43.32-.16.18-.34.32-.41.32-.07 0-.3.2-.52.43-.22.24-.45.43-.51.43s-.53.43-1.04.96c-.5.53-.97.97-1.03.97-.14 0-.83.7-.83.85 0 .07-.41.55-.93 1.07-.5.53-.93 1.01-.93 1.08 0 .07-.18.3-.4.53-.24.23-.42.47-.42.54 0 .07-.14.26-.31.42-.17.17-.31.36-.31.43s-.14.27-.31.43c-.17.17-.31.37-.31.45 0 .08-.1.22-.2.3-.12.09-.21.23-.21.32 0 .1-.1.24-.21.32-.11.09-.2.23-.2.32 0 .1-.1.24-.21.33-.12.08-.21.24-.21.34 0 .1-.05.2-.1.2-.06 0-.1.09-.1.2 0 .12-.05.22-.11.22s-.1.08-.1.19c0 .1-.1.26-.21.34-.11.09-.2.24-.2.35 0 .1-.05.19-.1.19-.07 0-.11.1-.11.21 0 .12-.05.22-.1.22-.06 0-.1.1-.1.21 0 .12-.06.22-.11.22-.06 0-.1.1-.1.21 0 .12-.05.21-.1.21-.07 0-.11.1-.11.22s-.05.21-.1.21c-.06 0-.1.1-.1.22 0 .11-.06.21-.11.21-.06 0-.1.15-.1.32 0 .18-.05.32-.1.32-.07 0-.11.1-.11.22s-.05.21-.1.21c-.06 0-.1.1-.1.22 0 .11-.05.21-.11.21s-.1.14-.1.32-.05.32-.1.32c-.07 0-.11.1-.11.22 0 .11-.05.21-.1.21-.06 0-.1.15-.1.32 0 .18-.05.32-.11.32s-.1.15-.1.32c0 .18-.05.33-.1.33-.06 0-.11.14-.11.32 0 .17-.05.32-.1.32-.06 0-.1.2-.1.43 0 .23-.05.42-.11.42s-.1.15-.1.33c0 .17-.05.32-.1.32-.06 0-.11.19-.11.43 0 .23-.05.42-.1.42-.06 0-.1.2-.1.43 0 .24-.05.43-.11.43s-.1.24-.1.54c0 .29-.05.53-.1.53-.06 0-.11.29-.11.64 0 .36-.05.65-.1.65-.06 0-.1.32-.1.75 0 .42-.05.74-.11.74s-.1.47-.1 1.18c0 .72-.04 1.18-.1 1.18-.07 0-.11.75-.11 2.03 0 1.29.04 2.04.1 2.04.07 0 .1.46.1 1.18 0 .71.05 1.17.11 1.17s.1.36.1.86.05.86.1.86c.06 0 .11.24.11.53 0 .3.05.54.1.54.06 0 .1.24.1.53 0 .3.05.54.1.54.07 0 .11.2.11.43 0 .23.05.43.1.43.06 0 .1.19.1.42 0 .24.06.43.11.43.06 0 .1.2.1.43 0 .24.05.43.1.43.07 0 .11.14.11.32s.05.32.1.32c.06 0 .1.15.1.32 0 .18.06.32.11.32.06 0 .1.15.1.33 0 .17.05.32.1.32.07 0 .11.14.11.32 0 .17.05.32.1.32.06 0 .1.1.1.21 0 .12.05.22.11.22s.1.14.1.32.05.32.1.32c.07 0 .11.1.11.21 0 .12.05.22.1.22.06 0 .1.14.1.32s.05.32.11.32.1.1.1.21c0 .12.05.22.1.22.06 0 .11.1.11.21 0 .12.05.22.1.22.06 0 .1.1.1.21 0 .12.05.22.11.22s.1.1.1.2c0 .13.05.22.1.22.06 0 .11.1.11.22s.05.21.1.21c.06 0 .1.1.1.22 0 .11.05.21.11.21s.1.1.1.21c0 .12.05.22.1.22.06 0 .11.08.11.19 0 .1.1.26.2.34.12.09.21.24.21.35 0 .1.05.19.1.19.06 0 .11.09.11.19s.1.26.2.34c.12.09.21.23.21.33 0 .09.1.23.21.32.11.08.2.23.2.32s.1.24.21.32c.12.08.2.23.2.32 0 .1.1.24.22.32.1.09.2.22.2.3 0 .09.14.29.31.45.17.17.31.36.31.43s.19.3.42.54c.22.22.4.46.4.53 0 .06.29.4.63.75s.62.68.62.75c0 .14 2.34 2.57 2.48 2.57.06 0 .38.29.72.64.33.36.66.64.72.64.07 0 .3.2.52.43.22.24.45.43.52.43.06 0 .25.15.4.32.17.18.36.32.44.32.08 0 .2.1.29.22.08.12.22.21.31.21s.23.1.31.22c.08.11.22.21.31.21s.23.1.31.21c.08.12.22.22.3.22.1 0 .24.1.32.21.08.12.23.22.33.22s.19.04.19.1c0 .06.08.11.18.11.1 0 .25.1.33.22.08.11.23.2.33.2s.19.06.19.12.1.1.2.1c.12 0 .21.05.21.11s.1.1.2.1c.12 0 .21.06.21.11 0 .06.1.11.21.11.11 0 .2.05.2.1 0 .07.1.11.21.11.12 0 .21.05.21.11s.1.1.2.1c.12 0 .21.06.21.12 0 .05.1.1.21.1.11 0 .2.05.2.11s.1.1.21.1c.12 0 .21.06.21.11 0 .06.14.11.31.11.17 0 .3.05.3.1.01.07.1.12.22.12.11 0 .2.04.2.1 0 .06.14.11.31.11.17 0 .31.05.31.1 0 .07.1.11.2.11.12 0 .22.05.22.11s.13.1.3.1c.18 0 .31.06.31.12 0 .05.14.1.31.1.18 0 .31.05.31.11s.14.1.31.1c.17 0 .31.05.31.11s.14.11.31.11c.17 0 .31.05.31.1 0 .07.19.12.42.12.22 0 .41.04.41.1 0 .06.19.1.41.1.23 0 .42.06.42.12s.18.1.4.1c.24 0 .42.05.42.11s.23.1.52.1c.28 0 .52.06.52.12 0 .05.23.1.51.1.29 0 .52.05.52.1 0 .07.34.12.82.12.49 0 .83.04.83.1 0 .07.45.11 1.14.11.68 0 1.13.04 1.13.1 0 .07.45.11 1.14.11s1.13-.04 1.13-.1c0-.06.14-.11.31-.11.17 0 .31-.05.31-.1 0-.07.07-.11.16-.11.26 0 .88-.72.88-1.02 0-.15.04-.27.1-.27.06 0 .1-.28.1-.64s-.04-.64-.1-.64c-.06 0-.1-.13-.1-.28 0-.3-.62-1-.88-1-.09 0-.16-.06-.16-.12 0-.05-.18-.1-.4-.1-.24 0-.42-.05-.42-.11 0-.07-.66-.1-1.76-.1s-1.75-.05-1.75-.11c0-.07-.35-.11-.83-.11s-.83-.05-.83-.1c0-.07-.27-.11-.62-.11-.34 0-.62-.05-.62-.11s-.18-.11-.4-.11c-.24 0-.42-.05-.42-.1 0-.07-.23-.11-.52-.11-.28 0-.51-.05-.51-.11s-.14-.1-.31-.1c-.17 0-.31-.06-.31-.11 0-.06-.19-.11-.42-.11-.22 0-.41-.05-.41-.1 0-.07-.14-.12-.31-.12-.17 0-.31-.04-.31-.1 0-.06-.14-.11-.3-.11-.18 0-.32-.05-.32-.1 0-.07-.1-.11-.2-.11-.12 0-.21-.05-.21-.11s-.14-.1-.31-.1c-.17 0-.31-.06-.31-.12s-.14-.1-.31-.1c-.17 0-.31-.05-.31-.11s-.1-.1-.2-.1c-.12 0-.21-.06-.21-.11 0-.06-.1-.11-.21-.11-.11 0-.2-.05-.2-.1 0-.07-.1-.11-.21-.11-.12 0-.21-.05-.21-.11s-.13-.1-.29-.1a.56.56 0 01-.43-.22c-.09-.12-.24-.22-.34-.22-.1 0-.18-.05-.18-.1 0-.06-.1-.11-.2-.11-.12 0-.21-.05-.21-.1 0-.07-.1-.12-.21-.12-.11 0-.2-.04-.2-.1 0-.06-.1-.11-.21-.11-.12 0-.2-.05-.2-.1 0-.07-.1-.11-.2-.11s-.24-.1-.33-.22c-.08-.12-.22-.21-.3-.21-.1 0-.23-.1-.32-.22-.08-.11-.23-.21-.33-.21s-.18-.05-.18-.1c0-.07-.08-.11-.17-.11-.09 0-.3-.15-.45-.33-.16-.17-.35-.32-.43-.32-.08 0-.21-.1-.3-.21-.08-.12-.2-.22-.28-.22-.08 0-.32-.19-.54-.42-.22-.24-.45-.43-.51-.43-.07 0-.49-.39-.94-.86a5.64 5.64 0 00-.92-.85 5.2 5.2 0 01-1.24-1.3c0-.06-.38-.49-.83-.95-.46-.47-.83-.9-.83-.97 0-.07-.14-.26-.3-.43-.18-.16-.32-.35-.32-.42 0-.08-.14-.27-.3-.43-.18-.17-.32-.37-.32-.45 0-.08-.09-.22-.2-.3-.12-.09-.2-.23-.2-.32-.01-.1-.1-.24-.22-.32-.11-.09-.2-.23-.2-.33 0-.09-.1-.23-.2-.32-.12-.08-.22-.24-.22-.34 0-.1-.04-.2-.1-.2-.06 0-.1-.08-.1-.18 0-.1-.1-.26-.2-.35-.12-.08-.22-.24-.22-.34 0-.1-.04-.2-.1-.2-.06 0-.1-.09-.1-.2 0-.12-.05-.22-.1-.22-.06 0-.1-.1-.1-.22 0-.11-.05-.2-.11-.2-.06-.01-.1-.1-.1-.22s-.05-.22-.1-.22c-.06 0-.11-.1-.11-.21 0-.12-.05-.22-.1-.22-.06 0-.1-.1-.1-.21 0-.12-.05-.21-.11-.21s-.1-.1-.1-.22-.05-.21-.1-.21c-.06 0-.11-.1-.11-.22 0-.11-.05-.21-.1-.21-.06 0-.1-.15-.1-.32 0-.18-.05-.32-.11-.32s-.1-.1-.1-.22-.05-.21-.1-.21c-.06 0-.11-.15-.11-.32 0-.18-.05-.32-.1-.32-.06 0-.1-.15-.1-.33 0-.17-.05-.32-.11-.32s-.1-.1-.1-.21c0-.12-.05-.21-.1-.21-.06 0-.11-.2-.11-.43 0-.24-.05-.43-.1-.43-.06 0-.1-.15-.1-.32 0-.18-.05-.32-.11-.32s-.1-.2-.1-.43c0-.24-.05-.43-.1-.43-.06 0-.11-.2-.11-.43 0-.23-.05-.43-.1-.43-.06 0-.1-.24-.1-.53 0-.3-.05-.54-.11-.54s-.1-.28-.1-.64-.05-.64-.1-.64c-.07 0-.11-.4-.11-.97s-.04-.96-.1-.96c-.07 0-.1-1.1-.1-3.1s.03-3.11.1-3.11c.06 0 .1-.4.1-.96 0-.57.04-.97.1-.97.06 0 .1-.28.1-.64s.05-.64.11-.64.1-.24.1-.54c0-.3.05-.53.1-.53.06 0 .11-.2.11-.43 0-.24.05-.43.1-.43.06 0 .1-.2.1-.43 0-.23.05-.43.11-.43s.1-.14.1-.32c0-.17.05-.32.1-.32.06 0 .11-.14.11-.32s.05-.32.1-.32c.06 0 .1-.15.1-.32 0-.18.05-.32.11-.32s.1-.15.1-.32c0-.18.05-.33.1-.33.06 0 .1-.14.1-.32 0-.17.06-.32.11-.32.06 0 .1-.1.1-.21 0-.12.05-.22.1-.22.07 0 .11-.14.11-.32 0-.17.05-.32.1-.32.06 0 .1-.1.1-.21 0-.12.06-.22.11-.22.06 0 .1-.1.1-.21 0-.12.05-.22.1-.22.07 0 .11-.1.11-.21 0-.12.05-.21.1-.21.06 0 .1-.1.1-.22s.05-.21.11-.21.1-.1.1-.22c0-.11.05-.21.1-.21.07 0 .11-.1.11-.21 0-.12.05-.22.1-.22.06 0 .1-.08.1-.19 0-.1.1-.26.21-.34.12-.09.21-.24.21-.35 0-.1.05-.19.1-.19.06 0 .1-.1.1-.21 0-.12.05-.22.11-.22s.1-.08.1-.19c0-.1.1-.26.21-.34.11-.09.2-.23.2-.32 0-.1.1-.24.21-.33.12-.08.21-.22.21-.3 0-.08.14-.28.31-.45.17-.16.31-.36.31-.44 0-.08.1-.22.2-.3.12-.09.21-.22.21-.3 0-.08.19-.33.42-.56.22-.23.4-.47.4-.53 0-.15 4-4.29 4.15-4.29.06 0 .29-.2.5-.43.22-.23.46-.43.53-.43.06 0 .25-.14.4-.32.17-.17.35-.32.42-.32s.25-.14.41-.32c.16-.18.36-.32.43-.32.08 0 .21-.1.3-.22.08-.11.23-.2.33-.2s.18-.06.18-.12.08-.1.19-.1c.1 0 .25-.1.33-.22.08-.12.23-.21.33-.21s.18-.05.18-.1c0-.07.09-.12.19-.12s.25-.1.33-.21c.08-.12.23-.21.33-.21s.19-.05.19-.11.09-.1.2-.1c.12 0 .21-.06.21-.12 0-.05.1-.1.2-.1.12 0 .21-.05.21-.1 0-.07.1-.12.2-.12.12 0 .22-.04.22-.1 0-.06.09-.11.2-.11.12 0 .2-.05.2-.1 0-.07.1-.11.22-.11.1 0 .2-.05.2-.11s.14-.1.31-.1c.17 0 .31-.06.31-.12 0-.05.1-.1.2-.1.12 0 .21-.05.21-.11s.14-.1.31-.1c.18 0 .31-.06.31-.11 0-.06.1-.11.21-.11.11 0 .2-.05.2-.1 0-.07.15-.12.32-.12s.3-.04.3-.1c0-.06.15-.11.32-.11s.3-.05.3-.1c0-.07.15-.11.32-.11s.3-.05.3-.11.2-.1.42-.1c.23 0 .41-.06.41-.12 0-.05.19-.1.42-.1.22 0 .4-.05.4-.1 0-.07.2-.12.42-.12.23 0 .42-.04.42-.1 0-.06.23-.11.51-.11.29 0 .52-.05.52-.1 0-.07.27-.11.62-.11.34 0 .62-.05.62-.11 0-.07.41-.1 1.03-.1.62 0 1.03-.05 1.03-.12 0-.06.93-.1 2.58-.1 1.66 0 2.59.04 2.59.1 0 .07.4.11 1.03.11.62 0 1.03.04 1.03.1 0 .07.28.12.62.12.35 0 .62.04.62.1 0 .06.23.1.52.1.28 0 .51.06.51.12s.19.1.42.1c.22 0 .4.05.4.11s.2.1.42.1c.23 0 .42.06.42.11 0 .06.18.11.4.11.24 0 .42.05.42.1 0 .07.14.12.31.12.17 0 .31.04.31.1 0 .06.14.11.31.11.17 0 .31.05.31.1 0 .07.14.11.31.11.17 0 .31.05.31.11s.1.1.2.1c.12 0 .21.06.21.12 0 .05.14.1.31.1.17 0 .31.05.31.11s.1.1.21.1c.11 0 .2.05.2.11s.1.11.21.11c.12 0 .2.05.2.1 0 .07.15.12.32.12s.3.04.3.1c0 .06.1.1.22.1.1 0 .2.06.2.12s.1.1.2.1c.12 0 .22.05.22.11s.09.1.2.1c.12 0 .2.06.2.11 0 .06.1.11.21.11.12 0 .21.05.21.1 0 .07.08.12.19.12.1 0 .25.1.33.21.08.12.23.21.33.21s.18.05.18.11.09.1.19.1.25.1.33.22c.08.12.22.22.31.22s.23.1.31.21c.08.12.23.21.33.21s.19.05.19.11.07.1.16.1c.1 0 .3.15.46.33.16.18.34.32.4.32.08 0 .26.15.42.32.16.18.35.32.41.32.07 0 .3.2.52.43.22.24.45.43.51.43.15 0 3.93 3.93 3.93 4.08 0 .06.19.3.42.52.22.23.4.47.4.54 0 .07.15.26.32.43.17.16.3.36.3.43s.15.26.32.42c.17.17.3.37.3.45 0 .08.1.22.21.3.12.09.21.24.21.35 0 .1.05.19.1.19.06 0 .1.09.1.19s.1.26.21.34c.12.09.21.25.21.35 0 .1.05.19.1.19.06 0 .1.09.1.2 0 .1.1.25.21.34.12.08.21.24.21.34 0 .1.05.2.1.2.06 0 .1.09.1.2 0 .12.05.22.11.22s.1.1.1.21c0 .12.05.22.1.22.06 0 .11.1.11.21 0 .12.05.22.1.22.06 0 .1.1.1.21 0 .12.05.21.1.21.07 0 .11.1.11.22s.05.21.1.21c.06 0 .1.15.1.32 0 .18.06.33.11.33.06 0 .1.1.1.2 0 .13.05.22.1.22.07 0 .11.15.11.32 0 .18.05.33.1.33.06 0 .1.1.1.21 0 .12.05.21.11.21s.1.15.1.33c0 .17.05.32.1.32.07 0 .11.14.11.32 0 .17.05.32.1.32.06 0 .1.14.1.32s.05.32.11.32.1.2.1.43c0 .24.05.43.1.43.07 0 .11.14.11.32s.05.32.1.32c.06 0 .1.24.1.54 0 .29.06.53.11.53.06 0 .1.24.1.54 0 .3.05.53.1.53.06 0 .11.29.11.64 0 .36.05.65.1.65.07 0 .1.39.1.96s.05.96.11.96a6 6 0 01.1 1.72c0 1.07.04 1.71.1 1.71.06 0 .11.12.11.27 0 .3.82 1.23 1.08 1.23.09 0 .16.05.16.1 0 .07.34.11.83.11.48 0 .82-.04.82-.1 0-.06.07-.11.16-.11.2 0 .88-.7.88-.9 0-.1.04-.17.1-.17.05 0 .1-.15.1-.32 0-.18.05-.32.1-.32.07 0 .1-.4.1-.97s-.03-.96-.1-.96c-.06 0-.1-.5-.1-1.29 0-.78-.04-1.28-.1-1.28-.06 0-.1-.36-.1-.86s-.05-.85-.1-.85c-.07 0-.11-.29-.11-.65 0-.35-.05-.64-.1-.64-.06 0-.1-.2-.1-.43 0-.23-.05-.43-.11-.43s-.1-.24-.1-.53c0-.3-.05-.54-.1-.54-.06 0-.11-.19-.11-.42 0-.24-.05-.43-.1-.43-.06 0-.1-.15-.1-.32 0-.18-.05-.33-.11-.33s-.1-.19-.1-.42c0-.24-.05-.43-.1-.43-.06 0-.11-.15-.11-.32 0-.18-.05-.32-.1-.32-.06 0-.1-.15-.1-.33 0-.17-.05-.32-.11-.32s-.1-.1-.1-.21c0-.12-.05-.21-.1-.21-.06 0-.11-.15-.11-.33 0-.17-.05-.32-.1-.32-.06 0-.1-.1-.1-.21 0-.12-.05-.22-.11-.22s-.1-.14-.1-.32c0-.17-.05-.32-.1-.32-.06 0-.11-.1-.11-.21 0-.12-.05-.22-.1-.22-.06 0-.1-.1-.1-.21 0-.12-.05-.21-.11-.21s-.1-.15-.1-.33c0-.17-.05-.32-.1-.32-.06 0-.11-.1-.11-.21 0-.12-.05-.22-.1-.22-.06 0-.1-.1-.1-.21 0-.12-.05-.21-.1-.21-.07 0-.11-.1-.11-.22s-.05-.21-.1-.21c-.06 0-.1-.1-.1-.22 0-.11-.06-.21-.11-.21-.06 0-.1-.09-.1-.2 0-.1-.1-.25-.21-.34-.12-.08-.2-.24-.2-.34 0-.1-.06-.2-.11-.2-.06 0-.1-.08-.1-.18 0-.1-.1-.26-.21-.35-.11-.08-.2-.24-.2-.34 0-.1-.05-.2-.11-.2s-.1-.08-.1-.18c0-.1-.1-.26-.21-.35-.11-.08-.2-.23-.2-.32s-.1-.23-.21-.32c-.12-.08-.21-.22-.21-.3 0-.08-.14-.28-.31-.45-.17-.16-.31-.36-.31-.43s-.14-.26-.31-.43c-.17-.16-.31-.35-.31-.42s-.19-.31-.41-.54a1.72 1.72 0 01-.42-.53c0-.07-.46-.6-1.03-1.18a6.51 6.51 0 01-1.03-1.23.16.16 0 00-.16-.16c-.09 0-.67-.53-1.29-1.18a9.73 9.73 0 00-1.24-1.18c-.06 0-.3-.2-.51-.43-.22-.23-.45-.43-.52-.43s-.25-.14-.41-.32c-.16-.17-.36-.32-.43-.32-.08 0-.21-.1-.3-.21-.08-.12-.22-.22-.3-.22-.1 0-.23-.1-.31-.21-.09-.12-.23-.22-.31-.22-.1 0-.23-.1-.31-.21-.09-.12-.23-.21-.31-.21-.1 0-.23-.1-.32-.22-.08-.12-.23-.21-.33-.21s-.18-.05-.18-.1c0-.07-.08-.12-.19-.12-.1 0-.24-.1-.33-.21-.08-.12-.23-.21-.33-.21s-.18-.05-.18-.11-.1-.1-.21-.1c-.11 0-.2-.06-.2-.12 0-.05-.1-.1-.21-.1-.12 0-.21-.05-.21-.11s-.1-.1-.2-.1c-.12 0-.21-.06-.21-.11 0-.06-.09-.11-.19-.11s-.25-.1-.33-.22a.56.56 0 00-.44-.2c-.15 0-.28-.06-.28-.12s-.1-.1-.2-.1c-.12 0-.22-.05-.22-.11s-.09-.1-.2-.1c-.12 0-.2-.06-.2-.11 0-.06-.1-.11-.21-.11-.12 0-.21-.05-.21-.1 0-.07-.14-.12-.31-.12-.17 0-.31-.04-.31-.1 0-.06-.1-.11-.2-.11-.12 0-.21-.05-.21-.1 0-.07-.14-.11-.31-.11-.17 0-.31-.05-.31-.11s-.14-.1-.31-.1c-.17 0-.31-.06-.31-.12 0-.05-.14-.1-.31-.1-.17 0-.31-.05-.31-.11s-.14-.1-.31-.1c-.17 0-.31-.05-.31-.11s-.14-.11-.31-.11c-.17 0-.31-.05-.31-.1 0-.07-.19-.12-.42-.12-.22 0-.4-.04-.4-.1 0-.06-.2-.1-.42-.1-.23 0-.41-.06-.41-.12s-.19-.1-.42-.1c-.22 0-.41-.05-.41-.11s-.23-.1-.52-.1c-.28 0-.51-.06-.51-.11 0-.07-.31-.11-.73-.11-.4 0-.72-.05-.72-.1 0-.07-.34-.12-.83-.12-.48 0-.82-.04-.82-.1 0-.07-1.28-.11-3.62-.11s-3.61.04-3.61.1zm1.45 15c0 .06-.35.1-.83.1s-.83.05-.83.11-.23.1-.51.1c-.29 0-.52.06-.52.12 0 .05-.19.1-.41.1-.23 0-.42.05-.42.11s-.18.1-.4.1c-.24 0-.42.05-.42.11s-.14.11-.31.11c-.17 0-.31.05-.31.1 0 .07-.14.12-.31.12-.17 0-.31.04-.31.1 0 .06-.1.1-.2.1-.12 0-.21.06-.21.12s-.14.1-.31.1c-.17 0-.31.05-.31.11s-.1.1-.21.1c-.11 0-.2.06-.2.11 0 .06-.1.11-.21.11-.12 0-.21.05-.21.1 0 .07-.1.12-.2.12-.12 0-.21.04-.21.1 0 .06-.1.11-.21.11-.11 0-.2.05-.2.1 0 .07-.1.11-.21.11-.12 0-.2.05-.2.11s-.1.1-.22.1c-.1 0-.2.06-.2.12 0 .05-.09.1-.19.1s-.25.1-.33.22c-.08.11-.22.21-.3.21-.1 0-.24.1-.32.21-.08.12-.22.22-.3.22-.1 0-.24.1-.32.21-.08.12-.21.22-.29.22-.07 0-.32.19-.53.43a1.7 1.7 0 01-.51.42c-.15 0-2.9 2.86-2.9 3 0 .07-.19.31-.42.54-.22.22-.4.47-.4.55 0 .08-.1.22-.21.3-.12.09-.21.23-.21.33 0 .09-.1.23-.2.32-.12.08-.21.23-.21.32s-.1.23-.21.32c-.11.08-.2.24-.2.34 0 .1-.05.2-.11.2s-.1.08-.1.18c0 .1-.1.26-.21.35-.11.08-.2.24-.2.34 0 .1-.05.2-.11.2s-.1.1-.1.2c0 .13-.05.22-.1.22-.06 0-.11.15-.11.32 0 .18-.05.33-.1.33-.06 0-.1.1-.1.21 0 .12-.05.21-.11.21s-.1.1-.1.22-.05.21-.1.21c-.06 0-.11.15-.11.32 0 .18-.05.32-.1.32-.06 0-.1.15-.1.33 0 .17-.05.32-.11.32s-.1.14-.1.32c0 .17-.05.32-.1.32-.06 0-.1.14-.1.32s-.06.32-.11.32c-.06 0-.1.2-.1.43 0 .24-.05.43-.1.43-.07 0-.11.24-.11.53 0 .3-.05.54-.1.54-.06 0-.1.28-.1.64s-.05.64-.11.64c-.07 0-.1 1.04-.1 2.9 0 1.85.03 2.89.1 2.89.06 0 .1.28.1.64s.05.64.1.64c.06 0 .1.24.1.54 0 .3.05.53.11.53s.1.2.1.43c0 .24.05.43.1.43.06 0 .11.14.11.32s.05.32.1.32c.06 0 .1.2.1.43 0 .23.05.43.11.43s.1.14.1.32c0 .17.05.32.1.32.06 0 .11.1.11.21 0 .12.05.22.1.22.06 0 .1.14.1.32s.05.32.11.32.1.1.1.21c0 .12.05.22.1.22.06 0 .11.1.11.21 0 .12.05.22.1.22.06 0 .1.1.1.21 0 .12.05.22.11.22s.1.1.1.2c0 .13.05.22.1.22.06 0 .1.1.1.22s.06.21.11.21c.06 0 .1.09.1.2 0 .1.1.25.21.34.12.08.2.23.2.32s.1.23.22.32c.1.08.2.23.2.32 0 .1.1.24.2.32.12.09.22.22.22.3 0 .09.13.29.3.45.18.17.31.36.31.43 0 .06.28.4.62.75.35.35.62.68.62.75 0 .16.27.43.41.43.07 0 .53.43 1.04.96.5.53.97.96 1.04.96.06 0 .25.15.4.33.16.17.36.32.44.32.08 0 .2.1.29.21.08.12.22.22.3.22.1 0 .24.1.32.2.08.13.23.22.33.22s.18.05.18.11.09.1.19.1.25.1.33.22c.08.12.23.22.33.22s.19.04.19.1c0 .06.09.11.2.11.12 0 .21.05.21.1 0 .07.1.11.2.11.12 0 .21.05.21.11s.1.1.21.1c.11 0 .2.06.2.11 0 .06.1.11.21.11.12 0 .21.05.21.1 0 .07.14.12.3.12.18 0 .32.05.32.1 0 .06.14.11.3.11.18 0 .32.05.32.1 0 .07.1.11.2.11.12 0 .21.05.21.11s.14.1.31.1c.17 0 .31.06.31.12s.19.1.41.1c.23 0 .42.05.42.11s.18.1.41.1c.23 0 .41.05.41.11s.19.11.42.11c.22 0 .41-.05.41-.1 0-.07.14-.11.31-.11.17 0 .31-.05.31-.11s.07-.1.16-.1c.2 0 .67-.48.67-.7 0-.09.04-.16.1-.16.06 0 .1-.15.1-.33 0-.17.05-.32.1-.32.06 0 .1-.19.1-.42 0-.24-.04-.43-.1-.43-.05 0-.1-.12-.1-.27 0-.38-1.03-1.45-1.39-1.45-.14 0-.26-.04-.26-.1 0-.06-.19-.11-.41-.11-.23 0-.42-.05-.42-.1 0-.07-.14-.11-.3-.11-.18 0-.32-.05-.32-.11s-.14-.1-.3-.1c-.18 0-.32-.06-.32-.12 0-.05-.13-.1-.3-.1-.18 0-.31-.05-.31-.1 0-.07-.1-.12-.21-.12-.12 0-.2-.04-.2-.1 0-.06-.1-.11-.21-.11-.12 0-.21-.05-.21-.1 0-.07-.1-.11-.2-.11-.12 0-.21-.05-.21-.11s-.1-.1-.21-.1c-.11 0-.2-.06-.2-.12 0-.05-.1-.1-.21-.1-.12 0-.21-.05-.21-.11s-.08-.1-.18-.1c-.1 0-.25-.1-.34-.22-.08-.12-.22-.22-.3-.22-.1 0-.23-.1-.32-.2-.08-.13-.2-.22-.29-.22-.08 0-.27-.15-.43-.32-.16-.18-.34-.33-.4-.33-.15 0-2.9-2.85-2.9-3 0-.07-.14-.26-.31-.42-.17-.17-.31-.37-.31-.45 0-.08-.1-.22-.21-.3-.11-.09-.2-.23-.2-.32 0-.1-.1-.24-.21-.32-.12-.09-.21-.24-.21-.35 0-.1-.05-.19-.1-.19-.06 0-.1-.1-.1-.21 0-.12-.05-.22-.11-.22s-.1-.1-.1-.21c0-.12-.05-.22-.1-.22-.06 0-.1-.1-.1-.21 0-.12-.06-.21-.11-.21-.06 0-.1-.1-.1-.22s-.05-.21-.1-.21c-.07 0-.11-.15-.11-.32 0-.18-.05-.33-.1-.33-.06 0-.1-.1-.1-.21 0-.12-.06-.21-.11-.21-.06 0-.1-.15-.1-.32 0-.18-.05-.33-.1-.33-.07 0-.11-.14-.11-.32 0-.17-.05-.32-.1-.32-.06 0-.1-.2-.1-.43 0-.23-.06-.43-.11-.43-.06 0-.1-.24-.1-.53 0-.3-.05-.54-.1-.54-.07 0-.11-.35-.11-.85s-.04-.86-.1-.86c-.07 0-.1-.6-.1-1.6s.03-1.61.1-1.61c.06 0 .1-.36.1-.86s.04-.85.1-.85c.06 0 .1-.25.1-.54 0-.3.05-.54.1-.54.06 0 .11-.14.11-.32 0-.17.05-.32.1-.32.06 0 .1-.19.1-.43 0-.23.05-.42.11-.42s.1-.15.1-.33c0-.17.05-.32.1-.32.06 0 .11-.1.11-.21 0-.12.05-.21.1-.21.06 0 .1-.1.1-.22s.05-.21.11-.21.1-.15.1-.32c0-.18.05-.33.1-.33.06 0 .11-.1.11-.21 0-.12.05-.21.1-.21.06 0 .1-.09.1-.2 0-.1.1-.25.21-.34.12-.08.21-.24.21-.34 0-.1.05-.2.1-.2.06 0 .1-.08.1-.19 0-.1.1-.25.21-.34.12-.08.21-.23.21-.32 0-.1.1-.24.2-.32.12-.09.21-.22.21-.3 0-.08.19-.33.42-.56.22-.23.4-.46.4-.53 0-.15 1.93-2.15 2.08-2.15.06 0 .3-.19.51-.42.22-.24.46-.43.54-.43.08 0 .2-.1.29-.22.08-.11.22-.21.3-.21.1 0 .23-.1.32-.21.08-.12.23-.22.33-.22s.18-.05.18-.1c0-.06.1-.11.21-.11.11 0 .2-.05.2-.11s.09-.1.19-.1.25-.1.33-.22c.08-.12.23-.22.34-.22.1 0 .18-.04.18-.1 0-.06.14-.11.3-.11.18 0 .32-.05.32-.1 0-.07.1-.11.2-.11.12 0 .21-.05.21-.11s.14-.1.31-.1c.17 0 .31-.06.31-.12 0-.05.14-.1.31-.1.17 0 .31-.05.31-.1 0-.07.14-.12.31-.12.17 0 .31-.04.31-.1 0-.06.19-.11.41-.11.23 0 .42-.05.42-.1 0-.07.23-.11.51-.11.29 0 .52-.05.52-.11 0-.07.38-.1.93-.1s.93-.05.93-.12c0-.06.38-.1.93-.1s.93.04.93.1c0 .07.44.11 1.13.11.7 0 1.14.04 1.14.1 0 .07.23.12.52.12.28 0 .51.04.51.1 0 .06.19.11.41.11.23 0 .42.05.42.1 0 .07.14.11.3.11.18 0 .32.05.32.11s.14.1.3.1c.18 0 .32.06.32.12 0 .05.14.1.3.1.18 0 .32.05.32.1 0 .07.09.12.2.12.12 0 .21.04.21.1 0 .06.1.11.2.11.12 0 .21.05.21.1 0 .07.1.11.2.11.12 0 .22.05.22.11s.09.1.2.1c.12 0 .2.06.2.12 0 .05.1.1.22.1.1 0 .2.05.2.11s.08.1.19.1c.1 0 .25.1.33.22.08.12.23.22.33.22s.18.04.18.1c0 .06.08.1.17.1.1 0 .3.15.45.33.16.18.35.32.42.32.06 0 .3.2.51.43.22.24.45.43.51.43.15 0 1.87 1.78 1.87 1.93 0 .07.19.3.41.53.23.23.42.48.42.56 0 .08.09.21.2.3.12.08.2.23.2.32 0 .1.1.24.21.32.12.09.21.24.21.34 0 .11.05.2.1.2.06 0 .1.1.1.21 0 .12.05.21.11.21s.1.09.1.2c0 .1.1.25.21.34.12.09.2.28.2.45 0 .16.05.3.11.3s.1.1.1.21c0 .12.05.22.1.22.06 0 .11.1.11.21 0 .12.05.22.1.22.06 0 .1.14.1.32 0 .17.05.32.11.32s.1.1.1.21c0 .12.05.22.1.22.06 0 .11.19.11.42 0 .24.05.43.1.43.06 0 .1.2.1.43 0 .24.05.43.11.43s.1.14.1.32.05.32.1.32c.06 0 .11.08.11.16 0 .22.88 1.13 1.08 1.13.09 0 .16.04.16.1 0 .06.27.11.62.11.34 0 .62-.05.62-.1 0-.07.12-.11.26-.11.3 0 1.18-.85 1.18-1.13 0-.08.05-.16.1-.16.07 0 .11-.36.11-.86s-.04-.85-.1-.85c-.06 0-.1-.2-.1-.43 0-.24-.05-.43-.1-.43-.07 0-.11-.14-.11-.32s-.05-.32-.1-.32c-.06 0-.1-.15-.1-.32 0-.18-.05-.32-.11-.32s-.1-.15-.1-.32c0-.18-.05-.33-.1-.33-.07 0-.11-.14-.11-.32 0-.17-.05-.32-.1-.32-.06 0-.1-.1-.1-.21 0-.12-.06-.22-.11-.22-.06 0-.1-.1-.1-.21 0-.12-.05-.21-.1-.21-.06 0-.11-.1-.11-.22s-.05-.21-.1-.21c-.06 0-.1-.14-.1-.3a.6.6 0 00-.22-.45c-.1-.09-.2-.24-.2-.35 0-.1-.05-.19-.1-.19-.06 0-.1-.1-.1-.21 0-.12-.05-.22-.11-.22s-.1-.08-.1-.19c0-.1-.1-.26-.21-.34-.11-.09-.2-.23-.2-.32 0-.1-.1-.24-.21-.32-.12-.09-.21-.22-.21-.3 0-.09-.14-.29-.31-.45-.17-.17-.31-.36-.31-.43s-.19-.31-.41-.54a1.75 1.75 0 01-.42-.52c0-.16-2.33-2.58-2.48-2.58-.06 0-.3-.2-.51-.43-.22-.24-.46-.43-.54-.43-.08 0-.2-.1-.29-.21-.08-.12-.21-.22-.29-.22-.08 0-.27-.14-.43-.32-.16-.17-.36-.32-.45-.32-.1 0-.17-.05-.17-.1 0-.07-.08-.11-.18-.11-.1 0-.25-.1-.34-.22-.08-.12-.23-.21-.33-.21s-.18-.05-.18-.1c0-.07-.1-.12-.2-.12-.12 0-.22-.04-.22-.1 0-.06-.09-.11-.2-.11-.12 0-.2-.05-.2-.1 0-.07-.1-.11-.22-.11-.1 0-.2-.05-.2-.11s-.1-.1-.2-.1c-.12 0-.21-.06-.21-.12 0-.05-.1-.1-.21-.1-.12 0-.2-.05-.2-.11s-.15-.1-.32-.1-.3-.05-.3-.11-.1-.11-.21-.11c-.12 0-.21-.05-.21-.1 0-.07-.14-.12-.31-.12-.17 0-.31-.04-.31-.1 0-.06-.14-.1-.31-.1-.17 0-.31-.06-.31-.12s-.19-.1-.41-.1c-.23 0-.42-.05-.42-.11s-.18-.1-.4-.1c-.24 0-.42-.06-.42-.11 0-.06-.23-.11-.52-.11-.28 0-.51-.05-.51-.1 0-.07-.35-.12-.83-.12s-.83-.04-.83-.1c0-.07-.79-.11-2.17-.11-1.37 0-2.16.04-2.16.1z" clip-rule="evenodd"/>
  <path fill="#CF7C3D" fill-rule="evenodd" d="M79.2 76.44c0 .06-.1.11-.2.11-.12 0-.21.05-.21.1 0 .07-.08.11-.16.11-.1 0-.28.12-.42.27-.14.14-.25.33-.25.43 0 .09-.05.16-.1.16-.06 0-.1.19-.1.42 0 .23-.06.45-.14.48-.1.05-.1.08 0 .13.08.03.13.25.13.48 0 .23.05.42.1.42.06 0 .11.1.11.21 0 .12.05.22.1.22.06 0 .1.14.1.32 0 .17.05.32.11.32s.1.1.1.21c0 .12.05.22.1.22.06 0 .11.1.11.21 0 .12.05.22.1.22.06 0 .1.14.1.32 0 .17.05.32.1.32.07 0 .11.1.11.21 0 .12.05.22.1.22.06 0 .1.1.1.21 0 .12.06.21.11.21.06 0 .1.15.1.33 0 .17.05.32.1.32.07 0 .11.1.11.21 0 .12.05.22.1.22.06 0 .1.1.1.2 0 .13.06.22.11.22.06 0 .1.15.1.32 0 .18.05.33.1.33.07 0 .11.1.11.21 0 .12.05.21.1.21.06 0 .1.15.1.33 0 .17.05.32.11.32s.1.1.1.21c0 .12.05.21.1.21.07 0 .11.1.11.22s.05.21.1.21c.06 0 .1.15.1.32 0 .18.05.33.11.33s.1.1.1.21c0 .12.05.21.1.21.06 0 .11.1.11.22s.05.21.1.21c.06 0 .1.15.1.32 0 .18.05.32.11.32s.1.1.1.22.05.21.1.21c.06 0 .11.1.11.22 0 .11.05.21.1.21.06 0 .1.15.1.32 0 .18.05.32.11.32s.1.1.1.22.05.21.1.21c.06 0 .11.1.11.22 0 .11.05.21.1.21.06 0 .1.14.1.32s.05.32.11.32.1.1.1.22c0 .11.05.21.1.21.06 0 .11.1.11.22 0 .11.05.2.1.2.06 0 .1.15.1.33 0 .18.05.32.11.32s.1.1.1.22c0 .11.05.21.1.21.06 0 .11.1.11.21 0 .12.05.22.1.22.06 0 .1.14.1.32s.05.32.1.32c.07 0 .11.1.11.21 0 .12.05.22.1.22.06 0 .1.1.1.21 0 .12.06.22.11.22.06 0 .1.14.1.32s.05.32.1.32c.07 0 .11.1.11.21 0 .12.05.22.1.22.06 0 .1.1.1.21 0 .12.06.22.11.22.06 0 .1.14.1.32 0 .17.05.32.1.32.07 0 .11.1.11.21 0 .12.05.22.1.22.06 0 .1.14.1.32 0 .17.06.32.11.32.06 0 .1.1.1.21 0 .12.05.22.1.22.07 0 .11.1.11.21 0 .12.05.22.1.22.06 0 .1.14.1.32 0 .17.05.32.11.32s.1.1.1.21c0 .12.05.22.1.22.06 0 .11.1.11.21 0 .12.05.22.1.22.06 0 .1.14.1.32 0 .17.05.32.11.32s.1.1.1.21c0 .12.05.22.1.22.06 0 .11.1.11.21 0 .12.05.21.1.21.06 0 .1.15.1.33 0 .17.05.32.11.32s.1.1.1.21c0 .12.05.22.1.22.06 0 .11.1.11.2 0 .13.05.22.1.22.06 0 .1.15.1.32 0 .18.05.33.11.33s.1.1.1.21c0 .12.05.21.1.21.06 0 .11.1.11.22s.05.21.1.21c.06 0 .1.15.1.32 0 .18.05.33.11.33s.1.1.1.2c0 .13.05.22.1.22.06 0 .11.1.11.22 0 .11.05.21.1.21.06 0 .1.15.1.32 0 .18.05.32.1.32.07 0 .11.1.11.22s.05.21.1.21c.06 0 .1.1.1.22 0 .11.06.21.11.21.06 0 .1.15.1.32 0 .18.05.32.1.32.07 0 .11.1.11.22s.05.21.1.21c.06 0 .1.1.1.22 0 .11.06.2.11.2.06 0 .1.15.1.33 0 .18.05.32.1.32.07 0 .11.1.11.22 0 .11.05.21.1.21.06 0 .1.14.1.32s.05.32.11.32.1.1.1.22c0 .11.05.21.1.21.07 0 .11.1.11.22 0 .11.05.2.1.2.06 0 .1.15.1.33 0 .18.05.32.11.32s.1.1.1.22c0 .11.05.21.1.21.06 0 .11.1.11.21 0 .12.05.22.1.22.06 0 .1.14.1.32s.05.32.11.32.1.1.1.22c0 .11.05.2.1.2.06 0 .11.1.11.22s.05.22.1.22c.06 0 .1.14.1.32s.05.32.11.32.1.1.1.21c0 .12.05.22.1.22.06 0 .11.1.11.21 0 .12.05.22.1.22.06 0 .1.14.1.32 0 .17.05.32.11.32s.1.1.1.21c0 .12.05.22.1.22.06 0 .11.1.11.21 0 .12.05.22.1.22.06 0 .1.14.1.32 0 .17.05.32.11.32s.1.1.1.21c0 .12.05.22.1.22.06 0 .11.1.11.21 0 .12.05.21.1.21.06 0 .1.15.1.33 0 .17.05.32.11.32s.1.1.1.21c0 .12.05.22.1.22.06 0 .1.1.1.2 0 .13.06.22.11.22.06 0 .1.15.1.32 0 .18.05.33.1.33.07 0 .11.1.11.21 0 .12.05.21.1.21.06 0 .1.1.1.22s.06.21.11.21c.06 0 .1.15.1.32 0 .18.05.33.1.33.07 0 .11.1.11.2 0 .13.05.22.1.22.06 0 .1.15.1.32 0 .18.06.33.11.33.06 0 .1.1.1.2 0 .13.05.22.1.22.07 0 .11.1.11.22s.05.21.1.21c.06 0 .1.15.1.32 0 .18.05.32.11.32s.1.1.1.22.05.21.1.21c.06 0 .11.1.11.22 0 .11.05.21.1.21.06 0 .1.14.1.32s.05.32.11.32.1.1.1.22.05.21.1.21c.06 0 .11.1.11.22 0 .11.05.21.1.21.06 0 .1.14.1.32s.05.32.11.32.1.1.1.22c0 .11.05.21.1.21.06 0 .11.1.11.21 0 .12.05.22.1.22.06 0 .1.14.1.32s.05.32.11.32.1.1.1.22c0 .11.05.21.1.21.06 0 .11.1.11.21 0 .12.05.22.1.22.06 0 .1.14.1.32s.05.32.11.32.1.1.1.21c0 .12.05.22.1.22.06 0 .11.1.11.21 0 .12.05.22.1.22.06 0 .1.14.1.32 0 .17.05.32.11.32s.1.1.1.21c0 .12.05.22.1.22.06 0 .1.1.1.21 0 .12.06.22.11.22.06 0 .1.14.1.32 0 .17.05.32.1.32.07 0 .11.1.11.21 0 .12.05.22.1.22.06 0 .1.1.1.21 0 .12.06.22.11.22.06 0 .1.14.1.32 0 .17.05.32.1.32.07 0 .11.1.11.21 0 .12.05.22.1.22.06 0 .1.14.1.32 0 .17.06.32.11.32.06 0 .1.1.1.21 0 .12.05.22.1.22.06 0 .11.1.11.21 0 .12.05.21.1.21.06 0 .1.15.1.33 0 .17.05.32.11.32s.1.1.1.21c0 .12.05.22.1.22.06 0 .11.1.11.21 0 .12.05.21.1.21.06 0 .1.15.1.33 0 .17.05.32.11.32s.1.1.1.21c0 .12.05.21.1.21.07 0 .11.1.11.22s.05.21.1.21c.06 0 .1.15.1.32 0 .18.05.32.11.32s.1.08.1.17c0 .21.67.9.88.9.09 0 .16.05.16.11s.09.11.2.11c.12 0 .21.05.21.1 0 .07.23.11.52.11.28 0 .51-.04.51-.1 0-.06.12-.11.26-.11.2 0 .52-.27 1.24-1.02.54-.55.98-1.06.98-1.12 0-.07.42-.55.93-1.07.51-.53.93-1.01.93-1.07 0-.07.37-.5.83-.97.45-.46.82-.9.82-.96 0-.06.42-.54.93-1.07s.93-1 .93-1.07a7 7 0 01.93-1.07c.51-.53.93-1.01.93-1.07 0-.07.37-.5.83-.97.45-.46.82-.9.82-.96 0-.15.9-1.07 1.03-1.07.06 0 5.73 5.83 12.6 12.96a748.15 748.15 0 0012.65 12.95c.09 0 .16.05.16.1 0 .07.14.11.3.11.18 0 .32.05.32.11s.1.1.2.1c.12 0 .21-.04.21-.1 0-.06.18-.1.4-.1.26 0 .43-.07.53-.22.08-.12.21-.21.28-.21.16 0 6.43-6.48 6.43-6.65 0-.06.42-.54.93-1.06.69-.7.93-1.03.93-1.23 0-.15.05-.27.1-.27.06 0 .11-.2.11-.43 0-.24-.05-.43-.1-.43-.06 0-.1-.13-.1-.3a.6.6 0 00-.21-.45c-.12-.08-.21-.21-.21-.29 0-.07-5.62-5.97-12.5-13.1l-12.5-12.95.68-.7a4 4 0 01.78-.69c.06 0 .43-.34.82-.75.4-.41.76-.75.83-.75.06 0 .43-.34.82-.75.4-.41.77-.75.83-.75.06 0 .48-.38.93-.85.45-.48.87-.86.93-.86.06 0 .43-.34.82-.75.4-.41.77-.75.83-.75.06 0 .43-.34.83-.75.39-.41.76-.75.82-.75.06 0 .44-.34.83-.75.4-.41.76-.75.82-.75.17 0 1.86-1.8 1.86-1.98 0-.09.05-.16.1-.16.06 0 .11-.14.11-.31 0-.17.06-.34.13-.38.1-.05.1-.07 0-.12-.08-.04-.13-.26-.13-.54 0-.43-.05-.53-.56-1.06a2.44 2.44 0 00-.73-.59c-.08 0-.16-.05-.16-.1 0-.06-.13-.11-.3-.11-.18 0-.31-.05-.31-.1 0-.07-.1-.12-.21-.12-.12 0-.2-.04-.2-.1 0-.06-.1-.11-.22-.11-.1 0-.2-.05-.2-.1 0-.07-.14-.11-.31-.11-.17 0-.31-.05-.31-.11s-.1-.1-.2-.1c-.12 0-.21-.06-.21-.11 0-.06-.1-.11-.21-.11-.11 0-.2-.05-.2-.11s-.15-.1-.32-.1-.3-.06-.3-.11c0-.06-.1-.11-.21-.11-.12 0-.21-.05-.21-.1 0-.07-.1-.11-.2-.11-.12 0-.21-.05-.21-.11s-.14-.1-.31-.1c-.17 0-.31-.06-.31-.12s-.1-.1-.2-.1c-.12 0-.21-.05-.21-.11s-.15-.1-.31-.1c-.18 0-.31-.05-.31-.11s-.1-.11-.21-.11c-.12 0-.2-.05-.2-.1 0-.07-.1-.12-.22-.12-.1 0-.2-.04-.2-.1 0-.06-.14-.11-.31-.11-.17 0-.31-.05-.31-.1 0-.07-.1-.11-.2-.11-.12 0-.21-.05-.21-.11s-.1-.1-.21-.1c-.11 0-.2-.06-.2-.12 0-.05-.15-.1-.32-.1s-.3-.05-.3-.1c0-.07-.1-.12-.21-.12-.12 0-.21-.04-.21-.1 0-.06-.1-.11-.2-.11-.12 0-.21-.05-.21-.1 0-.07-.14-.11-.31-.11-.17 0-.31-.05-.31-.11s-.1-.1-.2-.1c-.12 0-.22-.06-.22-.12 0-.05-.09-.1-.2-.1-.12 0-.2-.05-.2-.11s-.15-.1-.32-.1-.3-.06-.3-.11c0-.06-.1-.11-.22-.11-.1 0-.2-.05-.2-.1 0-.07-.1-.12-.2-.12-.12 0-.21-.04-.21-.1 0-.06-.14-.1-.31-.1-.17-.01-.31-.06-.31-.12s-.1-.1-.21-.1c-.11 0-.2-.05-.2-.11s-.1-.1-.21-.1c-.12 0-.21-.06-.21-.11 0-.06-.14-.11-.31-.11-.17 0-.31-.05-.31-.1 0-.07-.1-.12-.2-.12-.12 0-.21-.04-.21-.1 0-.06-.1-.11-.2-.11-.12 0-.22-.05-.22-.1 0-.07-.14-.11-.3-.11-.18 0-.32-.05-.32-.11s-.09-.1-.2-.1c-.12 0-.2-.06-.2-.12 0-.05-.1-.1-.22-.1-.1 0-.2-.05-.2-.11s-.14-.1-.31-.1c-.17 0-.31-.05-.31-.11s-.1-.11-.2-.11c-.12 0-.21-.05-.21-.1 0-.07-.1-.12-.21-.12-.12 0-.2-.04-.2-.1 0-.06-.15-.1-.32-.1s-.3-.06-.3-.12-.1-.1-.21-.1c-.12 0-.21-.05-.21-.11s-.1-.1-.2-.1c-.12 0-.21-.06-.21-.11 0-.06-.14-.11-.31-.11-.17 0-.31-.05-.31-.1 0-.07-.1-.12-.21-.12-.11 0-.2-.04-.2-.1 0-.06-.1-.11-.21-.11-.12 0-.2-.05-.2-.1 0-.07-.15-.11-.32-.11s-.3-.05-.3-.11-.1-.1-.22-.1c-.1 0-.2-.06-.2-.12 0-.05-.1-.1-.2-.1-.12 0-.21-.05-.21-.1 0-.07-.14-.12-.31-.12-.17 0-.31-.04-.31-.1 0-.06-.1-.11-.21-.11-.11 0-.2-.05-.2-.1 0-.07-.1-.11-.21-.11-.12 0-.21-.05-.21-.11s-.14-.1-.31-.1c-.17 0-.31-.06-.31-.12 0-.05-.1-.1-.2-.1-.12 0-.21-.05-.21-.11s-.1-.1-.21-.1c-.11 0-.2-.06-.2-.11 0-.06-.15-.11-.32-.11s-.3-.05-.3-.1c0-.07-.1-.12-.21-.12-.12 0-.2-.04-.2-.1 0-.06-.1-.11-.22-.11-.1 0-.2-.05-.2-.1 0-.07-.14-.11-.31-.11-.17 0-.31-.05-.31-.11s-.1-.1-.2-.1c-.12 0-.22-.06-.22-.12 0-.05-.09-.1-.2-.1-.11 0-.2-.05-.2-.1 0-.07-.15-.12-.32-.12s-.3-.04-.3-.1c0-.06-.1-.11-.21-.11-.12 0-.21-.05-.21-.1 0-.07-.14-.11-.31-.11-.17 0-.31-.05-.31-.11s-.1-.1-.2-.1c-.12 0-.21-.06-.21-.12 0-.05-.1-.1-.21-.1-.11 0-.2-.05-.2-.11s-.15-.1-.32-.1-.3-.06-.3-.11c0-.06-.1-.11-.21-.11-.12 0-.2-.05-.2-.1 0-.07-.1-.12-.22-.12-.1 0-.2-.04-.2-.1 0-.06-.14-.1-.31-.1-.17-.01-.31-.06-.31-.12s-.1-.1-.2-.1c-.12 0-.22-.05-.22-.11s-.09-.1-.2-.1c-.11 0-.2-.06-.2-.11 0-.06-.15-.11-.32-.11s-.3-.05-.3-.1c0-.07-.1-.12-.21-.12-.12 0-.21-.04-.21-.1 0-.06-.1-.11-.2-.11-.12 0-.21-.05-.21-.1 0-.07-.14-.11-.31-.11-.17 0-.31-.05-.31-.11s-.1-.1-.21-.1c-.11 0-.2-.06-.2-.12 0-.05-.1-.1-.21-.1-.12 0-.21-.05-.21-.11s-.14-.1-.31-.1c-.17 0-.3-.05-.3-.11s-.1-.11-.22-.11c-.1 0-.2-.05-.2-.1 0-.07-.1-.12-.2-.12-.12 0-.22-.04-.22-.1 0-.06-.14-.1-.3-.1-.18 0-.31-.06-.31-.12s-.1-.1-.21-.1c-.12 0-.2-.05-.2-.11s-.1-.1-.22-.1c-.1 0-.2-.06-.2-.11 0-.06-.14-.11-.31-.11-.17 0-.31-.05-.31-.1 0-.07-.1-.12-.2-.12-.12 0-.21-.04-.21-.1 0-.06-.1-.11-.21-.11-.11 0-.2-.05-.2-.1 0-.07-.15-.11-.32-.11s-.3-.05-.3-.11-.1-.1-.21-.1c-.12 0-.21-.06-.21-.12 0-.05-.1-.1-.2-.1-.12 0-.21-.05-.21-.1 0-.07-.14-.12-.31-.12-.17 0-.31-.04-.31-.1 0-.06-.1-.11-.2-.11-.12 0-.22-.05-.22-.1 0-.07-.09-.11-.2-.11-.12 0-.2-.05-.2-.11s-.15-.1-.32-.1-.3-.06-.3-.12c0-.05-.1-.1-.21-.1-.12 0-.21-.05-.21-.11s-.1-.1-.2-.1c-.12 0-.21-.06-.21-.11 0-.06-.14-.11-.31-.11-.17 0-.31-.05-.31-.1 0-.07-.1-.12-.21-.12-.11 0-.2-.04-.2-.1 0-.06-.1-.11-.21-.11-.12 0-.21-.05-.21-.1 0-.07-.14-.11-.31-.11-.17 0-.31-.05-.31-.11s-.1-.1-.2-.1c-.12 0-.21-.06-.21-.12 0-.05-.1-.1-.2-.1-.12 0-.22-.05-.22-.1 0-.07-.14-.12-.3-.12-.18 0-.32-.04-.32-.1 0-.06-.09-.11-.2-.11-.12 0-.2-.05-.2-.1 0-.07-.1-.11-.22-.11-.1 0-.2-.05-.2-.11s-.14-.1-.31-.1c-.17 0-.31-.06-.31-.12 0-.05-.1-.1-.2-.1-.12 0-.21-.05-.21-.11s-.1-.1-.21-.1c-.11 0-.2-.06-.2-.11 0-.06-.15-.11-.32-.11s-.3-.05-.3-.1c0-.07-.1-.12-.21-.12-.12 0-.21-.04-.21-.1 0-.06-.1-.1-.2-.1-.12 0-.21-.06-.21-.12s-.14-.1-.31-.1c-.17 0-.31-.05-.31-.11s-.1-.1-.21-.1c-.11 0-.2-.06-.2-.11 0-.06-.15-.11-.32-.11s-.3-.05-.3-.1c0-.07-.1-.12-.21-.12-.12 0-.2-.04-.2-.1 0-.06-.1-.11-.22-.11-.1 0-.2-.05-.2-.1 0-.07-.14-.11-.31-.11-.17 0-.31-.05-.31-.11s-.1-.1-.2-.1c-.12 0-.21-.06-.21-.12 0-.05-.1-.1-.21-.1-.11 0-.2-.05-.2-.11s-.15-.1-.32-.1-.3-.05-.3-.11-.1-.11-.21-.11c-.12 0-.21-.05-.21-.1 0-.07-.1-.12-.2-.12-.12 0-.21-.04-.21-.1 0-.06-.14-.1-.31-.1-.17 0-.31-.06-.31-.12s-.1-.1-.21-.1c-.11 0-.2-.05-.2-.11s-.1-.1-.21-.1c-.12 0-.2-.06-.2-.11 0-.06-.15-.11-.32-.11s-.3-.05-.3-.1c0-.07-.1-.12-.22-.12-.1 0-.2-.04-.2-.1 0-.06-.1-.11-.2-.11-.12 0-.22-.05-.22-.1 0-.07-.3-.11-.72-.11-.41 0-.72.04-.72.1z" clip-rule="evenodd"/>
</svg>
