<svg width="200" height="200" viewBox="0 0 200 200" fill="none" xmlns="http://www.w3.org/2000/svg">
<rect width="200" height="200" fill="#007FFE"/>
<path d="M0 200L4.71939e-06 0L200 4.71939e-06L200 200L0 200Z" fill="#007FFE"/>
<path d="M45 67V144C45 150.05 49.95 155 56 155H133V144H56V67H45Z" fill="#040656"/>
<path d="M105.665 114.905L94.5 100L78 122H144L122 94.5L105.665 114.905Z" fill="#ABD5FF"/>
<path d="M155 122V56C155 49.95 150.05 45 144 45H78C71.95 45 67 49.95 67 56V122C67 128.05 71.95 133 78 133H144C150.05 133 155 128.05 155 122ZM94.5 100L105.665 114.905L122 94.5L144 122H78L94.5 100Z" fill="#040656"/>
</svg>
