<svg width="200" height="200" viewBox="0 0 200 200" fill="none" xmlns="http://www.w3.org/2000/svg">
<rect width="200" height="200" fill="#007FFE"/>
<path d="M0 200L4.71939e-06 0L200 4.71939e-06L200 200L0 200Z" fill="#E6373D"/>
<path d="M121.819 94.7273C130.873 94.7273 138.128 87.4182 138.128 78.3636C138.128 69.3091 130.873 62 121.819 62C112.764 62 105.455 69.3091 105.455 78.3636C105.455 87.4182 112.764 94.7273 121.819 94.7273ZM121.819 105.636C120.237 105.636 118.437 105.745 116.528 105.909C122.855 110.491 127.273 116.655 127.273 124.727V138.364H160.001V124.727C160.001 112.018 134.528 105.636 121.819 105.636Z" fill="#ED9592"/>
<path d="M78.1818 94.7273C87.2364 94.7273 94.4909 87.4182 94.4909 78.3636C94.4909 69.3091 87.2364 62 78.1818 62C69.1273 62 61.8182 69.3091 61.8182 78.3636C61.8182 87.4182 69.1273 94.7273 78.1818 94.7273ZM78.1818 105.636C65.4727 105.636 40 112.018 40 124.727V138.364H116.364V124.727C116.364 112.018 90.8909 105.636 78.1818 105.636Z" fill="#FEFFF8"/>
</svg>
