<svg width="200" height="200" viewBox="0 0 200 200" fill="none" xmlns="http://www.w3.org/2000/svg">
<g clip-path="url(#clip0)">
<rect width="200" height="200" fill="white"/>
<rect width="200" height="200" fill="#2F80ED"/>
<rect x="72.5479" y="130.503" width="4" height="81.9608" transform="rotate(-135 72.5479 130.503)" fill="#6DA6F2"/>
<rect x="69.4971" y="72.5476" width="4" height="81.9608" transform="rotate(-45 69.4971 72.5476)" fill="#6DA6F2"/>
<rect x="59.0195" y="102.157" width="4" height="81.9608" transform="rotate(-90 59.0195 102.157)" fill="#6DA6F2"/>
<rect x="97.8428" y="59.0196" width="4" height="81.9608" fill="#6DA6F2"/>
<rect x="92.4512" y="45" width="15.098" height="15.098" rx="7.54902" fill="white"/>
<rect x="92.4512" y="139.902" width="15.098" height="15.098" rx="7.54902" fill="white"/>
<rect x="55.7715" y="66.4471" width="15.098" height="15.098" rx="7.54902" transform="rotate(-45 55.7715 66.4471)" fill="white"/>
<rect x="122.877" y="133.553" width="15.098" height="15.098" rx="7.54902" transform="rotate(-45 122.877 133.553)" fill="white"/>
<rect x="45" y="107.549" width="15.098" height="15.098" rx="7.54902" transform="rotate(-90 45 107.549)" fill="white"/>
<rect x="139.902" y="107.549" width="15.098" height="15.098" rx="7.54902" transform="rotate(-90 139.902 107.549)" fill="white"/>
<rect x="66.4463" y="144.229" width="15.098" height="15.098" rx="7.54902" transform="rotate(-135 66.4463 144.229)" fill="white"/>
<rect x="133.554" y="77.1232" width="15.098" height="15.098" rx="7.54902" transform="rotate(-135 133.554 77.1232)" fill="white"/>
<rect x="69" y="69" width="63" height="63" rx="31.5" fill="white"/>
<path d="M100.526 132.315C92.1969 132.315 84.6427 129.063 79 123.786C80.1037 115.261 85.6267 109.816 92.3971 107.458C94.8947 108.776 97.6762 109.463 100.5 109.461C103.328 109.463 106.113 108.774 108.613 107.454C115.395 109.812 120.929 115.265 122.024 123.81C116.385 129.074 108.844 132.317 100.526 132.317V132.315Z" fill="#2F80ED"/>
<path d="M112.934 91.9843C112.935 95.161 111.676 98.2084 109.431 100.457C107.187 102.705 104.141 103.969 100.965 103.973C97.7891 103.969 94.7449 102.705 92.5013 100.458C90.2577 98.2105 88.9983 95.1642 89 91.9886C88.998 90.4157 89.3059 88.8578 89.9062 87.4039C90.5065 85.9501 91.3874 84.6287 92.4985 83.5154C93.6096 82.4021 94.9292 81.5186 96.3818 80.9154C97.8345 80.3122 99.3918 80.0011 100.965 80C104.141 80.0023 107.186 81.2662 109.431 83.5136C111.675 85.761 112.935 88.808 112.934 91.9843V91.9843Z" fill="#2F80ED"/>
</g>
<defs>
<clipPath id="clip0">
<rect width="200" height="200" fill="white"/>
</clipPath>
</defs>
</svg>
