<svg xmlns="http://www.w3.org/2000/svg" fill="none" viewBox="0 0 200 200">
  <defs/>
  <path fill="#241553" d="M0 200V0h200v200H0z"/>
  <path fill="#8D91FF" d="M155 77.27a3 3 0 00-3-3H92.42a3 3 0 00-3 3v49.5a3 3 0 003 3h25.7a3 3 0 012.1.87l13.97 13.77a3 3 0 005.1-2.1l.1-9.57a3 3 0 013-2.97H152a3 3 0 003-3v-49.5z"/>
  <path fill="#ACDAFF" d="M45 54a3 3 0 013-3h69.06a3 3 0 013 3v57.8a3 3 0 01-3 3H87.05a3 3 0 00-2.11.87L68.1 132.34a3 3 0 01-5.11-2.1l-.13-12.47a3 3 0 00-3-2.97H48a3 3 0 01-3-3V54z"/>
</svg>
