<svg width="200" height="200" viewBox="0 0 200 200" fill="none" xmlns="http://www.w3.org/2000/svg">
<g clip-path="url(#clip0)">
<rect width="200" height="200" fill="white"/>
<path d="M0 200L4.71939e-06 0L200 4.71939e-06L200 200L0 200Z" fill="#E6373D"/>
<path opacity="0.7" d="M90.1504 124.103V134.978C90.1504 135.255 90.3742 135.478 90.6504 135.478H120.926C121.059 135.478 121.186 135.531 121.28 135.625L140.877 155.218C141.19 155.531 141.726 155.313 141.73 154.87L141.925 135.973C141.928 135.699 142.151 135.478 142.425 135.478H157.559C157.835 135.478 158.059 135.255 158.059 134.978V77.666C158.059 77.3898 157.835 77.166 157.559 77.166H131.094V124.103H90.1504Z" fill="#F4F4EC"/>
<path d="M45 50.5C45 50.2239 45.2239 50 45.5 50H124.5C124.776 50 125 50.2239 125 50.5V117.5C125 117.776 124.776 118 124.5 118H88.7056C88.5739 118 88.4475 118.052 88.3539 118.145L65.0894 141.169C64.7754 141.48 64.2423 141.261 64.2377 140.819L64.0052 118.495C64.0023 118.221 63.7793 118 63.5052 118H45.5C45.2239 118 45 117.776 45 117.5V50.5Z" fill="#F4F4EC"/>
</g>
<defs>
<clipPath id="clip0">
<rect width="200" height="200" fill="white"/>
</clipPath>
</defs>
</svg>
