<svg width="43" height="35" fill="none" xmlns="http://www.w3.org/2000/svg">
  <mask id="a" fill="#fff">
    <path d="M0 12.493v-2.3c.504-1.364 1.545-1.808 2.955-1.808 12.358.016 24.732.016 37.09 0 1.41 0 2.451.444 2.955 1.807v2.3c-.05.296-.134.576-.168.872-.134 1.413-.252 2.826-.403 4.239-.587 5.471-1.209 10.926-1.763 16.398-.067.74-.302.937-1.04.937-6.381-.033-12.745-.017-19.125-.017H3.308c-.437 0-.873.099-.94-.591A2977.26 2977.26 0 0 0 .486 16.716 324.537 324.537 0 0 0 0 12.492zM19.709 4.392H37.17c1.791 0 2.93.981 2.963 2.595H2.867C2.95 5.5 2.85 3.964 3.15 2.492 3.52.735 4.741.007 6.784.007c2.511-.016 5.023 0 7.534 0 .586 0 1.172-.016 1.758.016 2.327.126 3.6 1.393 3.633 3.609.016.206 0 .411 0 .76z"/>
  </mask>
  <path d="M0 12.493h-2v.12l.014.119L0 12.492zm0-2.3l-1.876-.694-.124.336v.357h2zm2.955-1.808l.003-2h-.003v2zm37.09 0v-2h-.003l.003 2zM43 10.192h2v-.357l-.124-.336-1.876.693zm0 2.3l1.972.336.028-.166v-.17h-2zm-.168.872l-1.987-.226-.002.018-.002.018 1.991.19zm-.403 4.239l1.989.213-1.989-.213zM40.666 34l-1.99-.202v.01l-.002.011 1.992.18zm-1.04.937l-.011 2h.01v-2zM2.366 34.33l1.991-.194-.001-.01-1.99.204zM.487 16.716l-1.989.212v.004l1.989-.216zM19.709 4.391h-2v2h2v-2zm20.424 2.595v2h2.042l-.042-2.041-2 .042zm-37.266 0L.87 6.875.75 8.988h2.116v-2zm.284-4.495l-1.957-.41-.002.009 1.96.401zM6.784.007v2h.013l-.013-2zm9.292.016l.108-1.997-.108 1.997zm3.633 3.609l-2 .03v.066l.006.066 1.994-.162zM2 12.492v-.004-.004-.005-.004-.005-.004-.005-.004-.005-.005-.004-.005-.004-.005-.004-.005-.004-.005-.004-.005-.004-.005-.004-.005-.004-.005-.004-.005-.004-.005-.004-.005-.004-.005-.004-.005-.004-.005-.005-.004-.005-.004-.005-.004-.005-.004-.005-.004-.005-.004-.005-.004-.005-.004-.005-.004-.005-.004-.005-.004-.005-.004-.005-.004-.005-.004-.005-.004-.005-.004-.005-.004-.005-.004-.005-.004-.005-.004-.005-.004-.005-.004-.005-.004-.005-.004-.005-.004-.005-.004-.005-.004-.005-.004-.005-.004-.005-.004-.005-.004-.005-.004-.005-.004-.005-.004-.005-.004V12v-.004-.005-.004-.005-.004-.004-.005-.005-.004-.005-.004-.004-.005-.004-.005-.004-.005-.004-.005-.004-.005-.004-.005-.004-.005-.004-.005-.004-.005-.004-.005-.004-.005-.004-.005-.004-.005-.004-.005-.004-.005-.004-.005-.004-.005-.004-.005-.004-.005-.004-.004-.005-.004-.005-.004-.005-.004-.005-.004-.005-.004-.005-.004-.005-.004-.005-.004-.005-.004-.005-.004-.005-.004-.005-.004-.004-.005-.004-.005-.004-.005-.004-.005-.004-.005-.004-.005-.004-.005-.004-.005-.004-.005-.004-.005-.004-.005-.004-.005-.004-.005-.004-.004-.005-.004-.005-.004-.005-.004-.005-.004-.005-.004-.005-.004-.005-.004-.005-.004-.005-.004-.005-.004-.005-.004-.004-.005-.004-.005-.004-.005-.004-.005-.004-.005-.004-.005-.004-.005-.004-.005-.004-.005-.004-.005-.004-.004-.005-.004-.005-.004-.005-.004-.005-.004-.005-.004-.005-.004-.005-.004-.005-.004-.005-.004-.005-.004-.004-.005-.004-.005-.004-.005-.004-.005-.004-.005-.004-.005-.004-.005-.004-.005-.004-.005-.004-.004-.005-.005-.004-.004-.005-.004-.005-.004-.005-.004-.005-.004-.005-.004-.005-.004-.005-.004-.005-.004-.005-.004-.005-.004-.004-.005-.004-.005-.004-.005-.004-.005-.004-.005-.004-.005-.004-.005-.004-.005-.004-.005-.004-.005-.004-.005-.004-.005-.004-.005-.004-.005-.004-.004-.005-.004-.005-.004-.005-.004-.005-.004-.005-.004-.005-.004-.005-.004-.005-.004-.005-.004-.005-.004-.005-.004-.005-.004-.005-.004-.005-.004-.005-.004-.005-.004-.005-.004-.005-.004-.004-.005-.004-.005-.004-.005-.004-.005-.004-.005-.004-.005-.004-.005-.004-.005-.004-.005-.004-.005-.004-.005-.004-.005-.004-.005-.004-.005-.004-.005-.004-.005-.004-.005-.004-.005-.004-.005-.004-.005-.004-.005-.004-.005-.004-.005-.004-.005-.004-.005-.004-.005-.004-.005-.004-.005-.004-.005-.004-.005-.004-.005-.004-.005-.004-.005-.004-.005-.004-.005-.004-.005-.004-.005-.004-.005-.004-.005-.004-.005-.004-.005-.004-.005-.004-.005-.004-.005-.004-.005-.004-.005-.005-.004-.005-.004-.005-.004-.005-.004-.005-.004-.005-.004-.005-.004-.005-.004-.005-.004-.005-.004-.005-.004-.005-.004-.005-.004-.005-.004-.005-.005-.004-.005-.004-.005h-4V12.493h4zm-.124-1.607a.995.995 0 0 1 .15-.286.31.31 0 0 1 .093-.08c.087-.048.316-.134.836-.134v-4c-.89 0-1.887.136-2.8.65-.963.543-1.637 1.396-2.031 2.464l3.752 1.386zm1.076-.5c12.36.016 24.736.016 37.096 0l-.006-4c-12.356.016-24.728.016-37.084 0l-.006 4zm37.093 0c.52 0 .75.086.836.135a.31.31 0 0 1 .094.08c.032.039.089.123.149.285L44.876 9.5c-.395-1.068-1.068-1.921-2.032-2.464-.912-.514-1.909-.65-2.8-.65v4zm.955-.193V12.493h4v-.005-.004-.005-.004-.005-.004-.005-.004-.005-.005-.004-.005-.004-.005-.004-.005-.004-.005-.004-.005-.004-.005-.004-.005-.004-.005-.004-.005-.004-.005-.004-.005-.004-.005-.004-.005-.004-.005-.005-.004-.005-.004-.005-.004-.005-.004-.005-.004-.005-.004-.005-.004-.005-.004-.005-.004-.005-.004-.005-.004-.005-.004-.005-.004-.005-.004-.005-.004-.005-.004-.005-.004-.005-.004-.005-.004-.005-.004-.005-.004-.005-.004-.005-.004-.005-.004-.005-.004-.005-.004-.005-.004-.005-.004-.005-.004-.005-.004-.005-.004-.005-.004-.005-.004-.005-.004-.005-.004V12v-.004-.005-.004-.005-.004-.004-.005-.005-.004-.005-.004-.004-.005-.004-.005-.004-.005-.004-.005-.004-.005-.004-.005-.004-.005-.004-.005-.004-.005-.004-.005-.004-.005-.004-.005-.004-.005-.004-.005-.004-.005-.004-.005-.004-.005-.004-.005-.004-.005-.004-.004-.005-.004-.005-.004-.005-.004-.005-.004-.005-.004-.005-.004-.005-.004-.005-.004-.005-.004-.005-.004-.005-.004-.005-.004-.004-.005-.004-.005-.004-.005-.004-.005-.004-.005-.004-.005-.004-.005-.004-.005-.004-.005-.004-.005-.004-.005-.004-.005-.004-.005-.004-.004-.005-.004-.005-.004-.005-.004-.005-.004-.005-.004-.005-.004-.005-.004-.005-.004-.005-.004-.005-.004-.005-.004-.004-.005-.004-.005-.004-.005-.004-.005-.004-.005-.004-.005-.004-.005-.004-.005-.004-.005-.004-.005-.004-.004-.005-.004-.005-.004-.005-.004-.005-.004-.005-.004-.005-.004-.005-.004-.005-.004-.005-.004-.005-.004-.004-.005-.004-.005-.004-.005-.004-.005-.004-.005-.004-.005-.004-.005-.004-.005-.004-.005-.004-.004-.005-.005-.004-.004-.005-.004-.005-.004-.005-.004-.005-.004-.005-.004-.005-.004-.005-.004-.005-.004-.005-.004-.005-.004-.004-.005-.004-.005-.004-.005-.004-.005-.004-.005-.004-.005-.004-.005-.004-.005-.004-.005-.004-.005-.004-.005-.004-.005-.004-.005-.004-.005-.004-.004-.005-.004-.005-.004-.005-.004-.005-.004-.005-.004-.005-.004-.005-.004-.005-.004-.005-.004-.005-.004-.005-.004-.005-.004-.005-.004-.005-.004-.005-.004-.005-.004-.005-.004-.005-.004-.004-.005-.004-.005-.004-.005-.004-.005-.004-.005-.004-.005-.004-.005-.004-.005-.004-.005-.004-.005-.004-.005-.004-.005-.004-.005-.004-.005-.004-.005-.004-.005-.004-.005-.004-.005-.004-.005-.004-.005-.004-.005-.004-.005-.004-.005-.004-.005-.004-.005-.004-.005-.004-.005-.004-.005-.004-.005-.004-.005-.004-.005-.004-.005-.004-.005-.004-.005-.004-.005-.004-.005-.004-.005-.004-.005-.004-.005-.004-.005-.004-.005-.004-.005-.004-.005-.004-.005-.004-.005-.004-.005-.005-.004-.005-.004-.005-.004-.005-.004-.005-.004-.005-.004-.005-.004-.005-.004-.005-.004-.005-.004-.005-.004-.005-.004-.005-.004-.005-.004-.005-.005-.004-.005-.004-.005h-4zm.028 1.965c-.014.088-.032.163-.072.343a6.244 6.244 0 0 0-.111.638l3.974.451c.005-.04.015-.1.044-.233.024-.107.073-.32.109-.527l-3.944-.672zm-.187 1.017c-.137 1.447-.25 2.817-.4 4.216l3.977.425c.152-1.426.274-2.882.405-4.262l-3.982-.379zm-.4 4.215c-.586 5.454-1.21 10.932-1.765 16.41l3.98.403c.553-5.464 1.172-10.896 1.762-16.386l-3.977-.427zM38.674 33.82c-.01.106-.016.074.018-.024.042-.119.147-.34.377-.545.227-.202.453-.277.56-.302.089-.021.11-.011-.004-.011v4c.423 0 1.345-.025 2.1-.696.772-.686.892-1.614.933-2.06l-3.984-.362zm.961-.883c-6.387-.032-12.76-.016-19.134-.016v4c6.387 0 12.74-.016 19.114.017l.02-4zm-19.134-.016H3.308v4H20.5v-4zm-17.193 0c-.086 0-.17.002-.213.004a2.311 2.311 0 0 1-.08 0c-.031 0 .133-.005.358.076.282.101.579.305.784.62.177.272.199.494.201.515l-3.981.387c.035.366.137.835.428 1.282.32.49.766.8 1.22.962.397.142.756.156.931.158.097.002.186 0 .239-.002l.113-.002v-4zm1.049 1.204c-.605-5.89-1.244-11.76-1.882-17.626l-3.976.433C-.863 22.799-.226 28.659.378 34.534l3.979-.409zM2.476 16.503a326.31 326.31 0 0 0-.49-4.249l-3.972.478c.168 1.396.335 2.797.484 4.196l3.978-.425zM19.709 6.392H20.78v-4h-.002-.002-.002-.003-.002-.002-.002-.002-.002-.003-.002-.002-.002-.002-.002-.002-.003-.002-.002-.002-.002-.002-.002-.003-.002-.002-.002-.002-.002-.002-.003-.002-.002-.002-.002-.002-.002-.003-.002-.002-.002-.002-.002-.002-.002-.003-.002-.002-.002-.002-.002-.002-.002-.003-.002-.002-.002-.002-.002-.002-.002-.002-.003-.002-.002-.002-.002-.002-.002-.002-.002-.003-.002-.002-.002-.002-.002-.002-.002-.002-.002-.003-.002-.002-.002-.002-.002-.002-.002-.002-.002-.005-.002-.002-.002-.002-.002-.002-.002-.002-.002-.002-.005-.002-.002-.002-.002-.002-.002-.002-.002-.002-.002-.002-.002-.002-.005-.002-.002-.002-.002-.002-.002-.002-.002-.002-.002-.002-.002-.002-.002-.002-.002-.007-.002-.002-.002-.002-.002-.002-.002-.002-.002-.002-.002-.002-.002-.002-.002-.002-.002-.002-.002-.002-.002-.002-.002-.002-.002-.002-.002-.002H20.361h-.002-.002-.002-.002-.002-.002-.002-.002-.002-.002-.002-.002-.002-.002-.002-.002-.002-.002-.002-.002-.002-.002-.002-.002-.002-.002H20.3h-.002-.002-.002-.002-.002-.002-.002-.002-.002-.002-.002-.002-.002-.002-.007-.002-.002-.002-.002-.002-.002-.002-.002-.002-.002-.007-.002-.002-.002-.002-.002-.002-.002-.002-.007-.002-.002-.002-.002-.002-.002-.002H20.192h-.002-.002-.002-.002-.002-.007-.002-.002-.002-.002-.002-.005-.002-.002-.002-.002-.002-.007-.002-.002-.002-.002-.007-.002-.002-.002-.002-.007-.002-.002-.002-.005-.002-.002-.002-.002-.007-.002-.002-.007-.002-.002-.002-.005-.002-.002-.002-.005-.002-.002-.002-.005-.002-.002-.002-.005-.002-.002-.005-.002-.002-.002-.005-.002-.002-.005-.002H20h-.005-.002-.002-.005-.002-.002-.007-.002-.007-.002-.005-.002-.002-.005-.002-.002-.003-.002-.002-.005-.002-.002-.005-.002-.005-.002-.005-.002-.002-.005-.002-.005-.002-.005-.002-.005-.002-.005-.002-.005-.002-.007-.005-.002-.005-.002-.005-.002-.005-.002-.005-.002-.005-.005-.002-.005-.002-.003-.002-.005-.002-.005-.005-.002-.005-.005-.002-.005-.005-.002-.005-.005-.005-.002-.003-.002-.005-.005-.002-.003-.002-.005-.002v4zm1.071 0H37.17v-4H20.78v4zm16.39 0c.542 0 .765.146.826.2.035.03.131.118.138.437l3.999-.083c-.027-1.295-.517-2.505-1.508-3.37-.964-.84-2.206-1.184-3.455-1.184v4zm2.963-1.405H2.867v4H40.133v-4zM4.863 7.1c.043-.764.044-1.662.063-2.305.022-.716.068-1.334.185-1.902l-3.92-.802c-.184.904-.239 1.79-.263 2.582C.902 5.538.911 6.15.87 6.875l3.994.225zm.246-4.198c.098-.466.247-.586.335-.643.15-.1.522-.252 1.34-.252v-4c-1.224 0-2.485.213-3.548.916C2.11-.332 1.464.79 1.194 2.082l3.915.82zm1.688-.895c2.504-.016 4.992 0 7.52 0v-4c-2.492 0-5.027-.016-7.545 0l.025 4zm7.52 0c.659 0 1.137-.015 1.65.013l.217-3.994c-.658-.036-1.352-.019-1.866-.019v4zm1.65.013c.834.045 1.21.278 1.375.442.154.153.356.472.367 1.2l4-.06c-.023-1.489-.474-2.91-1.547-3.977-1.06-1.054-2.485-1.518-3.978-1.6l-.217 3.995zm1.748 1.774s.002.02 0 .13c-.001.092-.006.27-.006.468h4c0-.138.018-.619-.007-.922l-3.987.324z" fill="#506677" mask="url(#a)"/>
  <path fill="#506677" d="M21 15h2v14h-2z"/>
  <path fill="#506677" d="M29 21v2H15v-2z"/>
</svg>
