<svg width="45" height="46" viewBox="0 0 45 46" fill="none" xmlns="http://www.w3.org/2000/svg">
<g clip-path="url(#clip0)">
<path d="M23.8 21C23.8 22.1 23 23.4 22 23.9L2.8 34.1C1.8 34.6 1 34.1 1 33V14.3C1 13.2 1.8 11.9 2.8 11.4L22 1.20001C23 0.700009 23.8 1.20001 23.8 2.30001V21Z" fill="white" stroke="#506677" stroke-width="2" stroke-miterlimit="10"/>
<path d="M33.7 26.5C33.7 27.6 32.9 28.9 31.9 29.4L12.7 39.6C11.7 40.1 10.9 39.6 10.9 38.5V19.8C10.9 18.7 11.7 17.4 12.7 16.9L31.9 6.70001C32.9 6.20001 33.7 6.70001 33.7 7.80001V26.5V26.5Z" fill="white" stroke="#506677" stroke-width="2" stroke-miterlimit="10"/>
<path d="M43.3 31C43.3 32.1 42.5 33.4 41.5 33.9L22.3 44.1C21.3 44.6 20.5 44.1 20.5 43V24.3C20.5 23.2 21.3 21.9 22.3 21.4L41.5 11.3C42.5 10.8 43.3 11.3 43.3 12.4V31Z" fill="white" stroke="#506677" stroke-width="2" stroke-miterlimit="10"/>
</g>
<defs>
<clipPath id="clip0">
<rect width="44.3" height="45.3" fill="white"/>
</clipPath>
</defs>
</svg>
