<svg width="44" height="44" viewBox="0 0 44 44" fill="none" xmlns="http://www.w3.org/2000/svg">
<path d="M7.77819 2.12124L2.12134 7.77809C0.919254 8.98018 0.919254 10.8187 2.12134 12.0207L26.3044 36.2038L35.4968 39.3151C37.406 39.9515 38.3959 39.2443 38.8202 38.8201C39.2444 38.3958 39.8808 37.3352 39.3152 35.4967L36.2039 26.3043L12.0208 2.12124C10.8187 0.919158 8.98027 0.919158 7.77819 2.12124ZM33.3755 36.4866L28.0014 34.6482C27.7186 32.8097 28.4257 30.9712 29.6985 29.6984C31.042 28.3549 32.8805 27.7892 34.6482 28.0013L36.4867 33.3754C35.1432 34.0118 34.0119 35.1431 33.3755 36.4866ZM3.53555 9.19231L9.1924 3.53545C9.61667 3.11119 10.1824 3.11119 10.6066 3.53545L33.0926 26.0214C31.6784 26.1629 30.2642 26.7286 29.0621 27.6478L14.1422 12.7278L12.7279 14.1421L27.6479 29.062C26.7287 30.2641 26.163 31.6783 26.0215 33.0925L3.53555 10.6065C3.11129 10.1823 3.11129 9.61657 3.53555 9.19231Z" fill="#506677"/>
<path d="M16.2635 9.1923L9.19241 16.2634L10.6066 17.6776L17.6777 10.6065L16.2635 9.1923Z" fill="#506677"/>
<path d="M13.435 6.36387L6.36398 13.4349L7.77819 14.8492L14.8493 7.77808L13.435 6.36387Z" fill="#506677"/>
<path fill-rule="evenodd" clip-rule="evenodd" d="M32.9917 2.12129L38.6486 7.77814C39.8507 8.98022 39.8507 10.8187 38.6486 12.0208L28.8679 21.8014L27.4537 20.3872L37.2344 10.6066C37.6586 10.1823 37.6586 9.61662 37.2344 9.19236L31.5775 3.5355C31.1533 3.11124 30.5876 3.11124 30.1633 3.5355L20.3826 13.3162L18.9684 11.902L28.7491 2.12129C29.9512 0.919206 31.7897 0.919206 32.9917 2.12129ZM11.902 18.9684L4.56605 26.3043L1.45477 35.4967C0.81838 37.4059 1.52549 38.3959 1.94975 38.8201C2.37401 39.2444 3.43468 39.8808 5.27315 39.3151L14.4655 36.2038L21.8015 28.8679L20.3873 27.4536L14.7484 33.0926C14.607 31.6783 14.0413 30.2641 13.122 29.0621L16.2829 26.0215L14.8686 24.6073L11.7078 27.6478C10.5057 26.7286 9.09153 26.1629 7.67732 26.0215L13.3162 20.3826L11.902 18.9684ZM6.12168 28.0014L4.2832 33.3754C5.62671 34.0118 6.75808 35.1432 7.39447 36.4867L12.7685 34.6482C12.9806 32.8804 12.4149 31.042 11.0714 29.6985C9.79864 28.4257 7.96016 27.7186 6.12168 28.0014Z" fill="#506677"/>
<path d="M31.5775 16.2635L24.5065 9.19238L23.0923 10.6066L30.1633 17.6777L31.5775 16.2635Z" fill="#506677"/>
<path d="M34.406 13.435L27.3349 6.36395L25.9207 7.77817L32.9918 14.8492L34.406 13.435Z" fill="#506677"/>
</svg>
