<svg xmlns="http://www.w3.org/2000/svg" viewBox="0 0 500.37 478.47"><defs><style>.cls-1,.cls-2{fill:none;stroke:#0495fe;stroke-width:1.15px;isolation:isolate;}.cls-2{stroke-dasharray:13.15;opacity:0.2;}</style></defs><title>circles3</title><g id="Layer_2" data-name="Layer 2"><g id="Layer_1-2" data-name="Layer 1"><path class="cls-1" d="M333.19,250.2A83.11,83.11,0,1,1,250.09,167,83.17,83.17,0,0,1,333.19,250.2Z"/><path class="cls-2" d="M499.79,311.29c0,92-74.5,166.61-166.41,166.61S167,403.29,167,311.29s74.5-166.62,166.39-166.62S499.79,219.27,499.79,311.29Z"/><path class="cls-2" d="M333.39,311.29c0,92-74.5,166.61-166.41,166.61S.57,403.29.57,311.29,75.08,144.66,167,144.66s166.39,74.6,166.39,166.62Z"/><path class="cls-2" d="M416.39,167c0,91.91-74.41,166.41-166.21,166.41S84,258.91,84,167,158.38.57,250.19.57,416.39,75.08,416.39,167Z"/></g></g></svg>