<svg xmlns="http://www.w3.org/2000/svg" viewBox="0 0 500.43 500.43"><defs><style>.cls-1,.cls-2,.cls-3{fill:none;stroke:#0495fe;stroke-width:1.14px;}.cls-1,.cls-2{opacity:0.2;}.cls-2{stroke-dasharray:11.42;}</style></defs><title>glow</title><g id="Layer_2" data-name="Layer 2"><g id="Layer_1-2" data-name="Layer 1"><path class="cls-1" d="M215,263.92.22,351.82M231.86,285.6,141.6,499.07"/><path class="cls-2" d="M259.29,285.6l88,214.62"/><path class="cls-1" d="M285.42,263.92,499.07,354.1M285.42,236.52l214.8-87.9"/><path class="cls-3" d="M259.29,214.83,349.55,2.5"/><path class="cls-2" d="M231.86,214.83,143.89.22"/><path class="cls-1" d="M215,236.52,1.36,146.34M211.3,249.64l-163.38.58"/><path class="cls-2" d="M221.58,275.33l-144,143.84"/><path class="cls-1" d="M245.58,283.32l.57,204.34M273,275.33,417,419.17"/><path class="cls-2" d="M292.42,250.22l204.51-.58"/><path class="cls-1" d="M273,226.24,417,82.41M246.15,216l-.57-204.34m-24,214.61L77.62,82.41"/></g></g></svg>