<svg width="308" height="211" viewBox="0 0 308 211" fill="none" xmlns="http://www.w3.org/2000/svg">
<path d="M297.491 3.67232C297.32 1.59744 295.587 0.000488281 293.505 0.000488281H280.343C278.004 0.000488281 276.164 1.99798 276.356 4.32866L277.509 18.3287C277.68 20.4035 279.413 22.0005 281.495 22.0005H294.657C296.996 22.0005 298.836 20.003 298.644 17.6723L297.491 3.67232Z" fill="#0495FE" fill-opacity="0.3"/>
<path d="M21.4912 156.672C21.3204 154.597 19.5866 153 17.5047 153H4.34281C2.00425 153 0.164432 154.998 0.356292 157.329L1.50876 171.329C1.67956 173.404 3.41337 175 5.49528 175H18.6572C20.9958 175 22.8356 173.003 22.6437 170.672L21.4912 156.672Z" fill="#0495FE" fill-opacity="0.3"/>
<path d="M156.491 32.6723C156.32 30.5974 154.587 29.0005 152.505 29.0005H139.343C137.004 29.0005 135.164 30.998 135.356 33.3287L136.509 47.3287C136.68 49.4035 138.413 51.0005 140.495 51.0005H153.657C155.996 51.0005 157.836 49.003 157.644 46.6723L156.491 32.6723Z" fill="#0495FE" fill-opacity="0.3"/>
<path d="M306.491 192.672C306.32 190.597 304.587 189 302.505 189H289.343C287.004 189 285.164 190.998 285.356 193.329L286.509 207.329C286.68 209.404 288.413 211 290.495 211H303.657C305.996 211 307.836 209.003 307.644 206.672L306.491 192.672Z" fill="#0495FE" fill-opacity="0.3"/>
</svg>
