<svg width="308" height="211" viewBox="0 0 308 211" fill="none" xmlns="http://www.w3.org/2000/svg">
<path d="M10.5088 3.67232C10.6796 1.59744 12.4134 0.000488281 14.4953 0.000488281H27.6572C29.9957 0.000488281 31.8356 1.99798 31.6437 4.32866L30.4912 18.3287C30.3204 20.4035 28.5866 22.0005 26.5047 22.0005H13.3428C11.0042 22.0005 9.16443 20.003 9.35629 17.6723L10.5088 3.67232Z" fill="#0495FE" fill-opacity="0.3"/>
<path d="M286.509 156.672C286.68 154.597 288.413 153 290.495 153H303.657C305.996 153 307.836 154.998 307.644 157.329L306.491 171.329C306.32 173.404 304.587 175 302.505 175H289.343C287.004 175 285.164 173.003 285.356 170.672L286.509 156.672Z" fill="#0495FE" fill-opacity="0.3"/>
<path d="M151.509 32.6723C151.68 30.5974 153.413 29.0005 155.495 29.0005H168.657C170.996 29.0005 172.836 30.998 172.644 33.3287L171.491 47.3287C171.32 49.4035 169.587 51.0005 167.505 51.0005H154.343C152.004 51.0005 150.164 49.003 150.356 46.6723L151.509 32.6723Z" fill="#0495FE" fill-opacity="0.3"/>
<path d="M1.50876 192.672C1.67956 190.597 3.41337 189 5.49528 189H18.6572C20.9957 189 22.8356 190.998 22.6437 193.329L21.4912 207.329C21.3204 209.404 19.5866 211 17.5047 211H4.34281C2.00425 211 0.164432 209.003 0.356292 206.672L1.50876 192.672Z" fill="#0495FE" fill-opacity="0.3"/>
</svg>
