<svg width="520" height="354" fill="none" xmlns="http://www.w3.org/2000/svg"><path d="M482 20a7 7 0 0 1 7-7h23.587a7 7 0 0 1 6.989 7.4l-17.198 300.001A7 7 0 0 1 495.39 327H489a7 7 0 0 1-7-7V20z" fill="url(#paint0_linear)" fill-opacity=".08"/><g filter="url(#filter0_dd)"><rect x="38" y="2" width="462" height="342" rx="4" fill="#F7F9FD"/><rect x="38.5" y="2.5" width="461" height="341" rx="3.5" stroke="#EAECED"/></g><path d="M159 4h335a4 4 0 0 1 4 4v331a4 4 0 0 1-4 4H159V4z" fill="#fff"/><rect opacity=".2" x="201" y="61" width="86" height="7" rx="3.5" fill="#506677"/><rect opacity=".2" x="317" y="61" width="30" height="7" rx="3.5" fill="#506677"/><rect opacity=".2" x="377" y="61" width="30" height="7" rx="3.5" fill="#506677"/><rect opacity=".2" x="437" y="61" width="30" height="7" rx="3.5" fill="#506677"/><rect opacity=".1" x="201" y="74" width="57" height="5" rx="2.5" fill="#506677"/><rect opacity=".2" x="201" y="105" width="86" height="7" rx="3.5" fill="#506677"/><rect opacity=".2" x="317" y="105" width="30" height="7" rx="3.5" fill="#506677"/><rect opacity=".2" x="377" y="105" width="30" height="7" rx="3.5" fill="#506677"/><rect opacity=".2" x="437" y="105" width="30" height="7" rx="3.5" fill="#506677"/><rect opacity=".1" x="201" y="118" width="57" height="5" rx="2.5" fill="#506677"/><rect opacity=".2" x="201" y="149" width="86" height="7" rx="3.5" fill="#506677"/><rect opacity=".2" x="317" y="149" width="30" height="7" rx="3.5" fill="#506677"/><rect opacity=".2" x="377" y="149" width="30" height="7" rx="3.5" fill="#506677"/><rect opacity=".2" x="437" y="149" width="30" height="7" rx="3.5" fill="#506677"/><rect opacity=".1" x="201" y="162" width="57" height="5" rx="2.5" fill="#506677"/><rect opacity=".2" x="201" y="193" width="86" height="7" rx="3.5" fill="#506677"/><rect opacity=".2" x="317" y="193" width="30" height="7" rx="3.5" fill="#506677"/><rect opacity=".2" x="377" y="193" width="30" height="7" rx="3.5" fill="#506677"/><rect opacity=".2" x="437" y="193" width="30" height="7" rx="3.5" fill="#506677"/><rect opacity=".1" x="201" y="206" width="57" height="5" rx="2.5" fill="#506677"/><rect opacity=".2" x="201" y="237" width="86" height="7" rx="3.5" fill="#506677"/><rect opacity=".2" x="317" y="237" width="30" height="7" rx="3.5" fill="#506677"/><rect opacity=".2" x="377" y="237" width="30" height="7" rx="3.5" fill="#506677"/><rect opacity=".2" x="437" y="237" width="30" height="7" rx="3.5" fill="#506677"/><rect opacity=".1" x="201" y="250" width="57" height="5" rx="2.5" fill="#506677"/><rect opacity=".2" x="201" y="281" width="86" height="7" rx="3.5" fill="#506677"/><rect opacity=".2" x="317" y="281" width="30" height="7" rx="3.5" fill="#506677"/><rect opacity=".2" x="377" y="281" width="30" height="7" rx="3.5" fill="#506677"/><rect opacity=".2" x="437" y="281" width="30" height="7" rx="3.5" fill="#506677"/><rect opacity=".1" x="201" y="294" width="57" height="5" rx="2.5" fill="#506677"/><rect opacity=".5" x="437" y="42" width="30" height="8" rx="4" fill="#0495FE"/><rect x="443" y="45" width="18" height="2" rx="1" fill="#fff"/><rect x="402" y="42" width="30" height="8" rx="4" fill="#A2AEB8"/><rect x="408" y="45" width="18" height="2" rx="1" fill="#fff"/><rect opacity=".5" x="77" y="62" width="52" height="7" rx="3.5" fill="#0495FE"/><path opacity=".5" d="M68.786 66.357l-.396-.056-.033.232.186.142.243-.318zm.026-.356l.4.003v-.007l-.4.004zm-.026-.358l-.243-.318-.186.142.033.232.396-.056zm.794-.605l.243.318.003-.002-.246-.316zm.045-.234l-.344.203v.002l.344-.205zm-.747-1.268l.345-.203-.001-.002-.344.205zm-.228-.078l-.142-.374-.004.002.146.372zm-.935.367l-.24.32.178.134.208-.081-.146-.373zm-.633-.36l-.396.057.032.226.212.087.152-.37zm-.14-.97l.395-.057-.001-.008-.002-.01-.393.076zm-.193-.153v.4h.007l-.007-.4zm-1.5 0v-.4h-.004l.003.4zm-.186.154l-.394-.07-.002.012.396.058zm-.14.969l.15.37.213-.086.032-.227-.395-.057zm-.633.36l-.147.373.21.081.178-.135-.242-.319zm-.935-.367l.146-.372-.002-.001-.144.373zm-.232.078l-.343-.205-.002.002.345.203zm-.747 1.268l-.344-.203.344.203zm.045.234l-.247.314.004.004.243-.318zm.792.605l.396.056.032-.231-.185-.142-.243.317zm-.027.358l-.4-.004v.007l.4-.003zm.027.356l.243.317.186-.142-.033-.231-.396.056zm-.792.605l.242.319.001-.001-.243-.318zm-.045.24l.345-.203-.006-.01-.339.214zm.747 1.262l.346-.2-.002-.004-.344.204zm.229.08l.142.373.004-.002-.146-.372zm.935-.37l.241-.318-.179-.135-.209.082.147.372zm.633.361l.396-.057-.033-.227-.212-.086-.151.37zm.14.97l-.396.057.002.012.394-.07zm.186.153l-.003.4h.003v-.4zm1.503 0v.4-.4zm.185-.154l.395.068.001-.01-.396-.058zm.14-.969l-.15-.37-.212.085-.033.228.396.057zm.634-.36l.147-.372-.21-.083-.18.136.243.319zm.933.368l.152-.37-.005-.002-.147.372zm.237-.08l-.344-.202-.003.004.347.199zm.744-1.26l-.338-.214-.006.01.344.204zm-.042-.241l.248-.314-.005-.004-.243.318zM66 67.28v-.4.4zM67.311 66h-.4.4zm1.87.412c.019-.136.03-.272.03-.409l-.8-.007a2.3 2.3 0 0 1-.022.304l.792.112zm.03-.416a3.135 3.135 0 0 0-.03-.41l-.792.112c.014.101.022.203.022.305l.8-.007zm-.184-.035l.795-.606-.485-.636-.795.605.485.637zm.798-.608a.582.582 0 0 0 .214-.35l-.785-.15c.01-.054.04-.1.08-.132l.49.632zm.214-.35a.579.579 0 0 0-.072-.405l-.686.41a.222.222 0 0 1-.027-.155l.785.15zm-.07-.403l-.747-1.268-.69.406.748 1.268.689-.406zm-.748-1.27a.585.585 0 0 0-.314-.254l-.258.758a.214.214 0 0 1-.115-.093l.687-.411zm-.314-.254a.591.591 0 0 0-.4.007l.283.748a.21.21 0 0 1-.141.003l.258-.758zm-.404.009l-.935.367.292.745.935-.367-.293-.745zm-.549.42a3.26 3.26 0 0 0-.721-.411l-.304.74c.194.08.377.184.544.31l.481-.64zm-.477-.098l-.14-.97-.793.115.14.97.793-.115zm-.144-.987a.586.586 0 0 0-.21-.35l-.5.626a.213.213 0 0 1-.076-.127l.786-.15zm-.21-.35a.595.595 0 0 0-.382-.129l.013.8a.205.205 0 0 1-.13-.045l.498-.625zm-.375-.129h-1.5v.8h1.5v-.8zm-1.504 0a.592.592 0 0 0-.373.136l.51.616a.208.208 0 0 1-.13.048l-.007-.8zm-.373.136a.584.584 0 0 0-.203.348l.788.14a.217.217 0 0 1-.075.128l-.51-.616zm-.205.36l-.14.97.791.114.14-.969-.79-.115zm.105.657a3.21 3.21 0 0 0-.724.411l.483.638c.166-.126.348-.23.543-.309l-.302-.74zm-.336.358l-.935-.367-.292.745.934.367.293-.745zm-.937-.368a.593.593 0 0 0-.403-.009l.256.758a.207.207 0 0 1-.141-.003l.288-.746zm-.403-.009a.587.587 0 0 0-.316.255l.686.41a.213.213 0 0 1-.114.093l-.256-.758zm-.318.257l-.746 1.268.689.406.747-1.268-.69-.406zm-.746 1.268a.58.58 0 0 0-.07.404l.785-.151a.22.22 0 0 1-.026.153l-.69-.406zm-.07.404a.583.583 0 0 0 .212.347l.495-.628c.04.031.068.077.078.13l-.785.15zm.216.351l.792.605.486-.635-.792-.606-.486.636zm.639.232c-.02.135-.03.272-.03.409l.8.007c0-.102.008-.204.022-.305l-.792-.111zm-.03.416c0 .137.01.273.03.409l.792-.112a2.317 2.317 0 0 1-.023-.304l-.8.007zm.183.035l-.792.605.486.636.792-.606-.486-.635zm-.79.604a.582.582 0 0 0-.222.358l.787.146a.217.217 0 0 1-.082.134l-.483-.638zm-.222.358a.58.58 0 0 0 .08.415l.677-.426a.22.22 0 0 1 .03.157l-.787-.146zm.074.406l.747 1.26.688-.407-.747-1.261-.688.408zm.745 1.257c.07.123.183.214.314.26l.262-.757c.047.017.09.05.116.096l-.692.401zm.314.26a.59.59 0 0 0 .403-.007l-.285-.748a.21.21 0 0 1 .144-.002l-.262.756zm.407-.009l.935-.368-.293-.744-.935.368.293.744zm.547-.421c.222.168.465.306.724.411l.302-.74a2.407 2.407 0 0 1-.543-.31l-.483.639zm.479.098l.14.97.792-.115-.14-.97-.792.115zm.142.982c.025.138.097.26.203.348l.51-.616a.217.217 0 0 1 .075.129l-.788.14zm.203.348a.592.592 0 0 0 .374.136l.006-.8c.046 0 .093.016.13.048l-.51.616zm.377.136h1.503v-.8h-1.503v.8zm1.504 0a.59.59 0 0 0 .375-.136l-.51-.616a.21.21 0 0 1 .133-.048l.001.8zm.375-.136a.582.582 0 0 0 .204-.35l-.79-.135c.01-.053.038-.099.076-.131l.51.616zm.205-.36l.14-.97-.791-.114-.14.97.791.114zm-.105-.656c.259-.105.503-.244.725-.413l-.484-.636c-.166.125-.348.229-.542.307l.3.742zm.336-.359l.933.368.294-.744-.933-.368-.294.744zm.928.366a.592.592 0 0 0 .413.014l-.254-.759a.208.208 0 0 1 .145.005l-.304.74zm.413.014a.587.587 0 0 0 .323-.264l-.694-.398a.213.213 0 0 1 .117-.097l.254.759zm.32-.26l.745-1.26-.69-.407-.743 1.26.689.407zm.738-1.25a.582.582 0 0 0 .082-.411l-.788.137a.22.22 0 0 1 .03-.154l.676.428zm.082-.411a.584.584 0 0 0-.214-.358l-.495.628a.216.216 0 0 1-.079-.133l.788-.137zm-.22-.362l-.794-.606-.485.637.795.605.485-.636zM66 66.88a.936.936 0 0 1-.51-.151l-.437.67c.281.184.61.28.947.28v-.8zm-.51-.151a.887.887 0 0 1-.334-.396l-.737.313c.131.308.352.57.634.753l.436-.67zm-.334-.396a.85.85 0 0 1-.051-.503l-.784-.16c-.067.328-.032.668.099.976l.736-.313zm-.051-.503a.87.87 0 0 1 .246-.45l-.558-.572c-.24.234-.405.534-.472.862l.784.16zm.246-.45a.924.924 0 0 1 .47-.243l-.153-.785c-.33.064-.635.222-.875.456l.558.573zm.47-.243a.943.943 0 0 1 .532.05l.3-.74a1.743 1.743 0 0 0-.985-.095l.152.785zm.532.05c.168.069.31.183.409.328l.66-.453a1.706 1.706 0 0 0-.77-.616l-.3.742zm.409.328a.858.858 0 0 1 .15.485h.8c0-.335-.1-.661-.29-.938l-.66.453zm.15.485a.85.85 0 0 1-.067.334l.737.312c.086-.205.131-.425.13-.647l-.8.001zm-.067.334a.876.876 0 0 1-.195.285l.558.573a1.68 1.68 0 0 0 .374-.546l-.737-.312zm-.195.285a.913.913 0 0 1-.297.193l.3.742c.207-.084.396-.207.555-.362l-.558-.573zm-.297.193a.94.94 0 0 1-.352.068l-.001.8c.224 0 .445-.043.653-.126l-.3-.742z" fill="#506677"/><path opacity=".2" d="M68.786 100.357l-.396-.056-.033.232.186.142.243-.318zm.026-.356l.4.003v-.007l-.4.004zm-.026-.358l-.243-.318-.186.142.033.232.396-.056zm.794-.605l.243.318.003-.002-.246-.316zm.045-.234l-.344.203v.002l.344-.205zm-.747-1.268l.345-.203-.001-.002-.344.205zm-.228-.078l-.142-.374-.004.002.146.372zm-.935.367l-.24.32.178.134.208-.081-.146-.373zm-.633-.36l-.396.057.032.226.212.087.152-.37zm-.14-.97l.395-.057-.001-.008-.002-.01-.393.076zm-.193-.153v.4h.007l-.007-.4zm-1.5 0v-.4h-.004l.003.4zm-.186.154l-.394-.07-.002.012.396.058zm-.14.969l.15.37.213-.086.032-.227-.395-.057zm-.633.36l-.147.373.21.081.178-.135-.242-.319zm-.935-.367l.146-.372-.002-.001-.144.373zm-.232.078l-.343-.205-.002.002.345.203zm-.747 1.268l-.344-.203.344.203zm.045.234l-.247.314.004.004.243-.318zm.792.605l.396.056.032-.231-.185-.142-.243.317zm-.027.358l-.4-.004v.007l.4-.003zm.027.356l.243.317.186-.142-.033-.231-.396.056zm-.792.605l.242.319.001-.001-.243-.318zm-.045.241l.345-.204-.006-.009-.339.213zm.747 1.261l.346-.201-.002-.003-.344.204zm.229.079l.142.374.004-.002-.146-.372zm.935-.368l.241-.319-.179-.136-.209.083.147.372zm.633.36l.396-.057-.033-.227-.212-.086-.151.37zm.14.969l-.396.058.002.012.394-.07zm.186.154l-.003.4h.003v-.4zm1.503 0v.4-.4zm.185-.154l.395.068.001-.01-.396-.058zm.14-.969l-.15-.371-.212.087-.033.227.396.057zm.634-.36l.147-.372-.21-.083-.18.137.243.318zm.933.368l.152-.37-.005-.002-.147.372zm.237-.079l-.344-.203-.003.004.347.199zm.744-1.261l-.338-.214-.006.011.344.203zm-.042-.241l.248-.314-.005-.004-.243.318zm-3.58.319v-.4.4zm1.312-1.28h-.4.4zm1.87.412c.019-.136.03-.272.03-.409l-.8-.007c0 .102-.008.203-.022.304l.792.112zm.03-.416a3.135 3.135 0 0 0-.03-.41l-.792.112c.014.101.022.203.022.305l.8-.007zm-.184-.035l.795-.606-.485-.636-.795.605.485.637zm.798-.608a.582.582 0 0 0 .214-.35l-.785-.15c.01-.054.04-.1.08-.132l.49.632zm.214-.35a.579.579 0 0 0-.072-.405l-.686.41a.222.222 0 0 1-.027-.155l.785.15zm-.07-.403l-.747-1.268-.69.406.748 1.268.689-.406zm-.748-1.27a.585.585 0 0 0-.314-.254l-.258.758a.214.214 0 0 1-.115-.093l.687-.411zm-.314-.254a.591.591 0 0 0-.4.007l.283.748a.21.21 0 0 1-.141.003l.258-.757zm-.404.009l-.935.367.292.745.935-.367-.293-.745zm-.549.42a3.26 3.26 0 0 0-.721-.411l-.304.74c.194.08.377.184.544.31l.481-.64zm-.477-.098l-.14-.97-.793.115.14.97.793-.115zm-.144-.987a.586.586 0 0 0-.21-.35l-.5.626a.213.213 0 0 1-.076-.127l.786-.15zm-.21-.35a.595.595 0 0 0-.382-.129l.013.8a.205.205 0 0 1-.13-.045l.498-.625zm-.375-.129h-1.5v.8h1.5v-.8zm-1.504 0a.592.592 0 0 0-.373.136l.51.616a.208.208 0 0 1-.13.048l-.007-.8zm-.373.136a.584.584 0 0 0-.203.348l.788.14a.217.217 0 0 1-.075.128l-.51-.616zm-.205.36l-.14.97.791.114.14-.969-.79-.115zm.105.657a3.21 3.21 0 0 0-.724.411l.483.638c.166-.126.348-.23.543-.309l-.302-.74zm-.336.358l-.935-.367-.292.745.934.367.293-.745zm-.937-.368a.593.593 0 0 0-.403-.009l.256.758a.207.207 0 0 1-.141-.003l.288-.746zm-.403-.009a.587.587 0 0 0-.316.255l.686.41a.213.213 0 0 1-.114.093l-.256-.758zm-.318.257l-.746 1.268.689.406.747-1.268-.69-.406zm-.746 1.268a.58.58 0 0 0-.07.404l.785-.151a.22.22 0 0 1-.026.153l-.69-.406zm-.07.404a.583.583 0 0 0 .212.347l.495-.628c.04.031.068.077.078.13l-.785.15zm.216.351l.792.605.486-.635-.792-.606-.486.636zm.639.232c-.02.135-.03.272-.03.409l.8.007c0-.102.008-.204.022-.305l-.792-.111zm-.03.416c0 .137.01.273.03.409l.792-.112a2.325 2.325 0 0 1-.023-.304l-.8.007zm.183.035l-.792.605.486.636.792-.606-.486-.635zm-.79.604a.584.584 0 0 0-.222.358l.787.146a.22.22 0 0 1-.082.134l-.483-.638zm-.222.358a.578.578 0 0 0 .08.415l.677-.426c.029.046.04.102.03.157l-.787-.146zm.074.406l.747 1.261.688-.408-.747-1.261-.688.408zm.745 1.257a.58.58 0 0 0 .314.259l.262-.756c.047.017.09.05.116.096l-.692.401zm.314.259c.131.046.274.043.403-.006l-.285-.747a.21.21 0 0 1 .144-.003l-.262.756zm.407-.008l.935-.368-.293-.744-.935.368.293.744zm.547-.421c.222.168.465.306.724.411l.302-.74a2.42 2.42 0 0 1-.543-.309l-.483.638zm.479.098l.14.97.792-.115-.14-.969-.792.114zm.142.982c.025.138.097.26.203.348l.51-.616a.213.213 0 0 1 .075.129l-.788.139zm.203.348a.595.595 0 0 0 .374.136l.006-.8c.046 0 .093.016.13.048l-.51.616zm.377.136h1.503v-.8h-1.503v.8zm1.504 0a.59.59 0 0 0 .375-.136l-.51-.616a.208.208 0 0 1 .133-.048l.001.8zm.375-.136a.582.582 0 0 0 .204-.35l-.79-.135a.218.218 0 0 1 .076-.131l.51.616zm.205-.36l.14-.97-.791-.114-.14.969.791.115zm-.105-.656c.259-.105.503-.244.725-.413l-.484-.636a2.353 2.353 0 0 1-.542.307l.3.742zm.336-.359l.933.368.294-.744-.933-.368-.294.744zm.928.366a.594.594 0 0 0 .413.014l-.254-.759a.213.213 0 0 1 .145.005l-.304.74zm.413.014a.585.585 0 0 0 .323-.264l-.694-.398a.215.215 0 0 1 .117-.097l.254.759zm.32-.26l.745-1.261-.69-.406-.743 1.261.689.406zm.738-1.25a.581.581 0 0 0 .082-.411l-.788.137a.217.217 0 0 1 .03-.154l.676.428zm.082-.411a.583.583 0 0 0-.214-.358l-.495.628a.216.216 0 0 1-.079-.133l.788-.137zm-.22-.362l-.794-.606-.485.637.795.605.485-.636zm-3.823.237a.937.937 0 0 1-.51-.151l-.437.67c.281.184.61.281.947.281v-.8zm-.51-.151a.887.887 0 0 1-.334-.396l-.737.313c.131.308.352.57.634.753l.436-.67zm-.334-.396a.849.849 0 0 1-.051-.503l-.784-.16a1.65 1.65 0 0 0 .099.976l.736-.313zm-.051-.503a.87.87 0 0 1 .246-.45l-.558-.572c-.24.234-.405.534-.472.862l.784.16zm.246-.45a.924.924 0 0 1 .47-.243l-.153-.785c-.33.064-.635.222-.875.456l.558.573zm.47-.243a.943.943 0 0 1 .532.05l.3-.74a1.743 1.743 0 0 0-.985-.095l.152.785zm.532.05c.168.069.31.183.409.328l.66-.453a1.706 1.706 0 0 0-.77-.616l-.3.742zm.409.328a.858.858 0 0 1 .15.485h.8c0-.335-.1-.661-.29-.938l-.66.453zm.15.485a.852.852 0 0 1-.067.334l.737.312c.086-.205.131-.425.13-.647l-.8.001zm-.067.334a.873.873 0 0 1-.195.285l.558.573a1.68 1.68 0 0 0 .374-.546l-.737-.312zm-.195.285a.919.919 0 0 1-.297.193l.3.742a1.73 1.73 0 0 0 .555-.362l-.558-.573zm-.297.193a.942.942 0 0 1-.352.068l-.001.8c.224 0 .445-.043.653-.126l-.3-.742z" fill="#506677"/><rect x="77" y="79" width="52" height="7" rx="3.5" fill="#506677" fill-opacity=".1"/><rect x="77" y="96" width="52" height="7" rx="3.5" fill="#506677" fill-opacity=".1"/><rect x="77" y="113" width="52" height="7" rx="3.5" fill="#506677" fill-opacity=".1"/><path d="M74.39 38h-9.228c-.6 0-1.163-.24-1.587-.679l-7.032-7.258a1.95 1.95 0 0 1-.402-2.082 1.848 1.848 0 0 1 1.712-1.181h8.616v-8.893c0-.774.45-1.466 1.143-1.764a1.828 1.828 0 0 1 2.018.413l7.035 7.26c.424.44.657 1.02.657 1.638v9.522C77.32 36.644 76.007 38 74.39 38zm-8.842-3.272h8.604v-8.88l-4.512-4.656v8.88h-8.604l4.512 4.656z" fill="#FF0076"/><g filter="url(#filter1_dd)"><path d="M125.032 190H9.968A3.965 3.965 0 0 0 6 193.963v99.074A3.965 3.965 0 0 0 9.968 297h115.064a3.965 3.965 0 0 0 3.968-3.963v-99.074a3.965 3.965 0 0 0-3.968-3.963z" fill="#fff"/><path d="M9.968 190.5h115.064a3.465 3.465 0 0 1 3.468 3.463v99.074a3.465 3.465 0 0 1-3.468 3.463H9.968a3.465 3.465 0 0 1-3.468-3.463v-99.074a3.465 3.465 0 0 1 3.468-3.463z" stroke="#000" stroke-opacity=".03"/></g><path d="M33.723 215.028l-.694-.092-.051.388.304.247.441-.543zm.05-.712l.7.006v-.012l-.7.006zm-.05-.714l-.441-.543-.304.247.051.387.694-.091zm1.49-1.211l.442.543.002-.002-.444-.541zm.126-.217l-.689-.124v.001l.689.123zm-.042-.251l-.613.338.002.003.611-.341zm-1.4-2.536l.613-.338-.004-.007-.609.345zm-.187-.16l.242-.657-.007-.002-.235.659zm-.242.004l-.26-.65-.01.004.27.646zm-1.753.734l-.438.546.325.26.383-.16-.27-.646zm-1.187-.72l-.694.094.053.389.36.158.281-.641zm-.263-1.939l.694-.094-.003-.015-.002-.014-.69.123zm-.36-.306v.7h.016l-.017-.7zm-3.162.306l-.69-.115-.002.01-.002.011.694.094zm-.263 1.939l.28.642.36-.158.054-.39-.694-.094zm-1.187.72l-.27.646.384.161.325-.262-.44-.545zm-1.753-.734l.27-.646-.005-.002-.265.648zm-.245-.005l.232.661.007-.003-.239-.658zm-.19.161l-.608-.346-.004.008.613.338zm-1.4 2.536l-.612-.338v.001l.612.337zm-.04.25l.688-.124v-.001l-.689.125zm.125.218l-.447.54.004.003.443-.543zm1.484 1.211l.694.092.051-.387-.302-.247-.443.542zm-.05.714l-.7-.006v.012l.7-.006zm.05.712l.443.543.302-.248-.051-.387-.694.092zm-1.484 1.211l.438.546.004-.003-.442-.543zm-.131.224l.69.121v-.001l-.69-.12zm.046.258l.612-.34-.004-.008-.005-.008-.603.356zm1.4 2.522l.614-.337-.001-.003-.612.34zm.187.162l.249-.654-.008-.003-.241.657zm.243-.004l.266.648.005-.002-.271-.646zm1.753-.736l.439-.545-.325-.262-.385.162.27.645zm1.187.72l.693-.094-.053-.39-.36-.158-.28.642zm.263 1.939l-.694.094.002.01.001.011.69-.115zm3.514 0l.69.111.002-.008.001-.009-.693-.094zm.263-1.939l-.278-.642-.363.157-.053.391.694.094zm1.187-.72l.271-.645-.386-.163-.326.264.44.544zm1.75.736l.288-.638-.008-.004-.008-.003-.272.645zm.252.009l-.234-.66-.006.003.24.657zm.193-.167l-.612-.339-.003.005.615.334zm1.395-2.522l-.603-.356-.005.009-.005.008.613.339zm.048-.257l-.69.113.69-.113zm-.127-.225l.448-.538-.006-.005-.442.543zm-8.082.206l.4-.574v-.001l-.4.575zm-.906-1.149l.65-.259-.65.259zm-.14-1.479l-.688-.131.688.131zm.674-1.311l-.505-.485.505.485zm2.681-.555l.278-.643-.277.643zm1.52 2.365h-.7v.001l.7-.001zm-.187.981l.65.259-.65-.259zm-.533.831l.503.486.002-.001-.505-.485zm-.8.555l.277.644.001-.001-.277-.643zm4.977-1.563a6.47 6.47 0 0 0 .056-.798l-1.4-.012c-.001.21-.016.419-.044.626l1.388.184zm.056-.81a6.56 6.56 0 0 0-.056-.799l-1.388.182c.028.209.042.419.044.629l1.4-.012zm-.308-.165l1.49-1.211-.883-1.086-1.49 1.211.883 1.086zm1.492-1.213a1.06 1.06 0 0 0 .371-.635l-1.378-.246a.337.337 0 0 1 .119-.201l.888 1.082zm.37-.634a1.078 1.078 0 0 0-.119-.716l-1.222.682a.321.321 0 0 1-.036-.214l1.378.248zm-.117-.713l-1.4-2.536-1.226.676 1.4 2.536 1.226-.676zm-1.404-2.543a1.058 1.058 0 0 0-.554-.472l-.484 1.314a.344.344 0 0 1-.18-.151l1.218-.691zm-.561-.474a1.04 1.04 0 0 0-.737.013l.52 1.3a.36.36 0 0 1-.253.006l.47-1.319zm-.747.017l-1.753.734.54 1.292 1.753-.734-.54-1.292zm-1.045.834a6.014 6.014 0 0 0-1.344-.815l-.562 1.282c.367.161.713.371 1.03.625l.876-1.092zm-.931-.268l-.264-1.939-1.387.188.263 1.939 1.388-.188zm-.268-1.968a1.08 1.08 0 0 0-.363-.633l-.905 1.068a.323.323 0 0 1-.11-.188l1.378-.247zm-.363-.633a1.05 1.05 0 0 0-.703-.25l.033 1.4a.35.35 0 0 1-.235-.082l.905-1.068zm-.687-.25H27.09v1.4h2.814v-1.4zm-2.814 0c-.258 0-.502.097-.69.262l.926 1.05a.359.359 0 0 1-.236.088v-1.4zm-.69.262c-.188.166-.307.39-.347.629l1.38.23a.325.325 0 0 1-.107.191l-.926-1.05zm-.35.65l-.264 1.939 1.388.188.263-1.939-1.388-.188zm.15 1.391a5.937 5.937 0 0 0-1.346.817l.878 1.09c.315-.254.66-.463 1.028-.623l-.56-1.284zm-.637.716l-1.753-.734-.54 1.292 1.753.734.54-1.292zm-1.758-.736a1.04 1.04 0 0 0-.75-.015l.48 1.316a.362.362 0 0 1-.26-.005l.53-1.296zm-.742-.017a1.055 1.055 0 0 0-.566.475l1.217.692a.35.35 0 0 1-.187.154l-.464-1.321zm-.57.483l-1.4 2.536 1.225.676 1.4-2.536-1.225-.676zm-1.4 2.537a1.08 1.08 0 0 0-.117.712l1.377-.25a.318.318 0 0 1-.034.212l-1.227-.674zm-.117.711c.043.24.168.468.367.634l.893-1.079a.33.33 0 0 1 .117.197l-1.377.248zm.371.637l1.485 1.211.885-1.085-1.485-1.211-.885 1.085zm1.233.576a6.55 6.55 0 0 0-.056.8l1.4.012c.002-.21.017-.42.044-.628l-1.388-.184zm-.056.812c.002.268.021.534.056.798l1.388-.184a5.075 5.075 0 0 1-.044-.625l-1.4.011zm.308.164l-1.485 1.211.885 1.085 1.485-1.211-.885-1.085zm-1.48 1.207a1.068 1.068 0 0 0-.383.65l1.38.24a.332.332 0 0 1-.122.202l-.875-1.092zm-.383.649a1.08 1.08 0 0 0 .134.735l1.205-.712a.32.32 0 0 1 .04.219l-1.379-.242zm.124.719l1.4 2.522 1.225-.68-1.4-2.522-1.225.68zm1.4 2.519c.118.217.313.392.557.482l.483-1.314c.086.032.15.091.186.158l-1.227.674zm.55.479c.25.095.52.087.758-.01l-.532-1.295a.37.37 0 0 1 .272-.003l-.498 1.308zm.763-.012l1.753-.736-.542-1.291-1.753.736.542 1.291zm1.042-.837a5.9 5.9 0 0 0 1.347.817l.56-1.284a4.479 4.479 0 0 1-1.028-.623l-.879 1.09zm.933.269l.263 1.939 1.387-.188-.263-1.939-1.387.188zm.266 1.96c.04.239.16.463.348.629l.926-1.05c.061.054.096.122.107.192l-1.38.229zm.348.629c.188.166.432.262.69.262v-1.4a.36.36 0 0 1 .236.088l-.926 1.05zm.69.262h2.82v-1.4h-2.82v1.4zm2.82 0c.257 0 .502-.096.69-.262l-.926-1.05a.354.354 0 0 1 .235-.088v1.4zm.69-.262c.189-.166.309-.392.348-.633l-1.383-.222a.328.328 0 0 1 .11-.195l.924 1.05zm.35-.65l.264-1.939-1.388-.188-.263 1.939 1.387.188zm-.152-1.391a5.794 5.794 0 0 0 1.35-.818l-.882-1.088a4.435 4.435 0 0 1-1.024.622l.556 1.284zm.638-.717l1.75.736.543-1.29-1.75-.736-.543 1.29zm1.734.729c.247.112.526.121.78.029l-.481-1.315a.363.363 0 0 1 .276.01l-.575 1.276zm.772.031c.252-.089.454-.269.575-.493l-1.23-.668a.344.344 0 0 1 .188-.159l.467 1.32zm.573-.488l1.395-2.522-1.226-.678-1.395 2.522 1.226.678zm1.385-2.505c.129-.219.177-.476.136-.726l-1.382.226a.317.317 0 0 1 .04-.212l1.206.712zm.136-.725a1.068 1.068 0 0 0-.37-.651l-.896 1.076a.33.33 0 0 1-.116-.2l1.382-.225zm-.376-.656l-1.49-1.211-.883 1.086 1.49 1.211.883-1.086zm-7.156.481a1.69 1.69 0 0 1-.967-.306l-.8 1.148a3.09 3.09 0 0 0 1.767.558v-1.4zm-.968-.307a1.837 1.837 0 0 1-.655-.833l-1.301.518a3.234 3.234 0 0 0 1.157 1.465l.799-1.15zm-.655-.833a1.955 1.955 0 0 1-.103-1.089l-1.376-.262a3.355 3.355 0 0 0 .178 1.869l1.3-.518zm-.103-1.088c.07-.367.242-.699.49-.958l-1.01-.97a3.294 3.294 0 0 0-.855 1.665l1.375.263zm.49-.958c.248-.258.561-.431.898-.5l-.285-1.371a3.131 3.131 0 0 0-1.622.901l1.01.97zm.898-.5c.335-.07.684-.035 1.002.103l.555-1.286a3.07 3.07 0 0 0-1.841-.188l.284 1.371zm1.002.103c.32.137.596.372.793.678l1.178-.756a3.19 3.19 0 0 0-1.416-1.208l-.555 1.286zm.793.678c.197.307.304.671.304 1.044h1.4c0-.638-.182-1.265-.526-1.8l-1.178.756zm.304 1.045c0 .249-.047.494-.138.722l1.302.517c.156-.394.236-.815.236-1.241l-1.4.002zm-.137.721c-.091.228-.223.434-.388.605l1.01.97c.292-.304.522-.664.678-1.057l-1.3-.518zm-.387.604a1.76 1.76 0 0 1-.573.398l.555 1.286c.386-.167.734-.41 1.025-.712l-1.007-.972zm-.57.398a1.69 1.69 0 0 1-.667.137v1.4c.419 0 .832-.085 1.218-.25l-.552-1.287z" fill="#506677" fill-opacity=".3"/><path opacity=".5" d="M102.5 127v25H81v32.5" stroke="#0495FE" stroke-width="2" stroke-linecap="round" stroke-linejoin="bevel" stroke-dasharray="2.9 5"/><path d="M54.072 210.126c0-1.188-.432-1.998-1.206-2.664-.756-.648-1.8-.882-3.006-.882h-3.492V219h1.746v-5.328h1.746c1.206 0 2.25-.234 3.006-.882.774-.648 1.206-1.476 1.206-2.664zm-1.8 0c0 .774-.324 1.332-.756 1.656-.45.306-1.008.468-1.8.468h-1.602v-4.248h1.602c.792 0 1.35.162 1.8.486.432.306.756.882.756 1.638zM63.231 214.752c0-2.646-1.98-4.464-4.517-4.464-2.556 0-4.536 1.818-4.536 4.464 0 2.664 1.98 4.446 4.536 4.446 2.538 0 4.517-1.782 4.517-4.446zm-1.745-.054c0 1.692-1.063 3.024-2.772 3.024-1.728 0-2.79-1.332-2.79-3.024 0-1.674 1.062-3.006 2.79-3.006 1.71 0 2.772 1.332 2.772 3.006zM70.257 216.498c0-.774-.36-1.278-.684-1.584-.252-.252-.648-.468-.99-.612-.36-.144-.684-.252-1.152-.414-.846-.27-1.674-.576-1.674-1.278 0-.702.54-1.062 1.368-1.062.828 0 1.656.396 2.16.918l.72-1.062c-.54-.576-1.404-1.116-2.916-1.116s-2.88.864-2.88 2.448c0 1.224.81 1.782 1.35 2.052.396.216.594.252 1.17.45s1.926.486 1.926 1.422c0 .936-.846 1.224-1.638 1.224-.792 0-1.872-.432-2.52-1.224l-.828 1.008c.72.936 1.89 1.53 3.33 1.53.99 0 1.782-.27 2.376-.756.558-.468.882-1.116.882-1.944zM75.46 217.524s-.378.198-.882.198c-.486 0-.72-.162-.882-.432-.198-.36-.216-.846-.216-1.566v-3.87h2.052v-1.386H73.48v-2.556h-1.728v2.556h-1.26v1.386h1.26v3.906c0 1.35.072 2.016.432 2.556s.918.882 1.818.882 1.566-.288 1.566-.288l-.108-1.386zM82.22 216.498c0-.774-.36-1.278-.684-1.584-.252-.252-.648-.468-.99-.612-.36-.144-.684-.252-1.152-.414-.846-.27-1.674-.576-1.674-1.278 0-.702.54-1.062 1.368-1.062.828 0 1.656.396 2.16.918l.72-1.062c-.54-.576-1.404-1.116-2.916-1.116s-2.88.864-2.88 2.448c0 1.224.81 1.782 1.35 2.052.396.216.594.252 1.17.45s1.926.486 1.926 1.422c0 .936-.846 1.224-1.638 1.224-.792 0-1.872-.432-2.52-1.224l-.828 1.008c.72.936 1.89 1.53 3.33 1.53.99 0 1.782-.27 2.376-.756.558-.468.882-1.116.882-1.944zM54.072 239.126c0-1.188-.432-1.998-1.206-2.664-.756-.648-1.8-.882-3.006-.882h-3.492V248h1.746v-5.328h1.746c1.206 0 2.25-.234 3.006-.882.774-.648 1.206-1.476 1.206-2.664zm-1.8 0c0 .774-.324 1.332-.756 1.656-.45.306-1.008.468-1.8.468h-1.602v-4.248h1.602c.792 0 1.35.162 1.8.486.432.306.756.882.756 1.638zM61.589 243.032c0-1.458-.342-2.178-.918-2.772-.576-.576-1.404-.972-2.826-.972-1.422 0-2.574.504-3.204.864l.522 1.152c.288-.18 1.332-.738 2.574-.738 1.242 0 2.124.648 2.124 1.944v.342l-2.286.09c-1.98.09-3.348.936-3.348 2.61 0 1.656 1.368 2.646 2.952 2.646 1.566 0 2.376-.918 2.718-1.278l.018 1.08h1.674v-4.968zm-1.71 2.7c-.324.486-1.062 1.242-2.178 1.242-1.134 0-1.764-.666-1.764-1.476 0-.81.558-1.404 1.944-1.476l1.998-.126v1.836zM71.546 239.45h-1.71l.018 1.35H69.8c-.504-.792-1.494-1.512-2.988-1.512-2.196 0-4.122 1.584-4.122 4.302 0 2.718 1.926 4.302 4.122 4.302 1.44 0 2.412-.666 2.988-1.53h.036v.432c0 1.17-.306 1.98-.648 2.394-.342.432-1.062.936-2.34.936-1.278 0-2.61-.684-3.06-1.08l-.81 1.206c.252.18 1.71 1.278 3.816 1.278 2.124 0 3.186-.864 3.816-1.638.63-.756.936-1.8.936-3.69v-6.75zm-1.656 4.14c0 1.62-.954 2.898-2.718 2.898-1.746 0-2.718-1.278-2.718-2.898s.972-2.916 2.718-2.916c1.764 0 2.718 1.296 2.718 2.916zM81.208 243.374c0-2.394-1.674-4.086-4.05-4.086s-4.338 1.728-4.338 4.428c0 2.718 1.746 4.482 4.284 4.482 2.556 0 3.654-1.26 3.762-1.35l-.72-.99c-.198.126-1.224.99-2.826.99-1.584 0-2.664-1.026-2.754-2.718h6.588s.054-.432.054-.756zm-6.624-.396c.054-1.026.81-2.448 2.52-2.448 1.728 0 2.448 1.494 2.466 2.448h-4.986zM88.144 245.498c0-.774-.36-1.278-.684-1.584-.252-.252-.648-.468-.99-.612-.36-.144-.684-.252-1.153-.414-.845-.27-1.673-.576-1.673-1.278 0-.702.54-1.062 1.367-1.062.829 0 1.657.396 2.16.918l.72-1.062c-.54-.576-1.404-1.116-2.916-1.116-1.511 0-2.88.864-2.88 2.448 0 1.224.81 1.782 1.35 2.052.397.216.595.252 1.17.45.577.198 1.927.486 1.927 1.422 0 .936-.847 1.224-1.639 1.224-.791 0-1.872-.432-2.52-1.224l-.828 1.008c.72.936 1.89 1.53 3.33 1.53.99 0 1.782-.27 2.376-.756.559-.468.883-1.116.883-1.944zM53.964 272.544c0-.936-.36-1.602-.756-2.088-.414-.486-1.17-.9-1.404-1.008l-2.286-.954c-.756-.306-1.602-.738-1.602-1.89s.936-1.728 2.16-1.728c1.224 0 2.124.684 2.736 1.332l.918-1.188c-.342-.36-1.53-1.602-3.564-1.602-1.206 0-2.178.342-2.862.918-.666.558-1.134 1.386-1.134 2.394 0 1.008.36 1.692.81 2.16.45.486.972.756 1.242.882.468.234 1.332.576 1.98.828.63.252 2.016.756 2.016 2.052 0 1.314-1.08 2.088-2.43 2.088s-2.52-.936-3.15-1.782l-1.026 1.17c.594.684 1.836 2.088 4.014 2.088 1.242 0 2.268-.342 3.042-.972.81-.666 1.296-1.62 1.296-2.7zM63.075 271.374c0-2.394-1.674-4.086-4.05-4.086s-4.338 1.728-4.338 4.428c0 2.718 1.746 4.482 4.284 4.482 2.556 0 3.654-1.26 3.762-1.35l-.72-.99c-.198.126-1.224.99-2.826.99-1.584 0-2.664-1.026-2.754-2.718h6.588s.054-.432.054-.756zm-6.624-.396c.054-1.026.81-2.448 2.52-2.448 1.728 0 2.448 1.494 2.466 2.448h-4.986zM68.3 274.524s-.377.198-.881.198c-.486 0-.72-.162-.882-.432-.198-.36-.216-.846-.216-1.566v-3.87h2.052v-1.386H66.32v-2.556h-1.728v2.556h-1.26v1.386h1.26v3.906c0 1.35.072 2.016.432 2.556s.918.882 1.818.882 1.566-.288 1.566-.288l-.108-1.386z" fill="#506677"/><path d="M73.175 274.524s-.378.198-.882.198c-.486 0-.72-.162-.882-.432-.198-.36-.216-.846-.216-1.566v-3.87h2.052v-1.386h-2.052v-2.556h-1.728v2.556h-1.26v1.386h1.26v3.906c0 1.35.072 2.016.432 2.556s.918.882 1.818.882 1.566-.288 1.566-.288l-.108-1.386zM76.227 264.642c0-.612-.469-1.062-1.117-1.062-.665 0-1.133.45-1.133 1.062 0 .612.468 1.062 1.133 1.062.648 0 1.117-.45 1.117-1.062zm-.252 2.808h-1.728V276h1.728v-8.55zM85.323 270.942c0-2.052-.63-3.654-3.06-3.654-1.243 0-2.16.666-2.61 1.512h-.055l.019-1.35h-1.729V276h1.728v-4.302c0-1.638.594-2.988 2.197-2.988 1.53 0 1.781 1.08 1.781 2.52V276h1.729v-5.058zM95.367 267.45h-1.71l.018 1.35h-.054c-.504-.792-1.494-1.512-2.988-1.512-2.196 0-4.122 1.584-4.122 4.302 0 2.718 1.926 4.302 4.122 4.302 1.44 0 2.412-.666 2.988-1.53h.036v.432c0 1.17-.306 1.98-.648 2.394-.342.432-1.062.936-2.34.936-1.278 0-2.61-.684-3.06-1.08l-.81 1.206c.252.18 1.71 1.278 3.816 1.278 2.124 0 3.186-.864 3.816-1.638.63-.756.936-1.8.936-3.69v-6.75zm-1.656 4.14c0 1.62-.954 2.898-2.718 2.898-1.746 0-2.718-1.278-2.718-2.898s.972-2.916 2.718-2.916c1.764 0 2.718 1.296 2.718 2.916zM102.977 273.498c0-.774-.36-1.278-.684-1.584-.252-.252-.648-.468-.99-.612-.36-.144-.684-.252-1.152-.414-.846-.27-1.674-.576-1.674-1.278 0-.702.54-1.062 1.368-1.062.828 0 1.656.396 2.16.918l.72-1.062c-.54-.576-1.404-1.116-2.916-1.116s-2.88.864-2.88 2.448c0 1.224.81 1.782 1.35 2.052.396.216.594.252 1.17.45s1.926.486 1.926 1.422c0 .936-.846 1.224-1.638 1.224-.792 0-1.872-.432-2.52-1.224l-.828 1.008c.72.936 1.89 1.53 3.33 1.53.99 0 1.782-.27 2.376-.756.558-.468.882-1.116.882-1.944z" fill="#506677"/><defs><filter id="filter0_dd" x="32" y="0" width="474" height="354" filterUnits="userSpaceOnUse" color-interpolation-filters="sRGB"><feFlood flood-opacity="0" result="BackgroundImageFix"/><feColorMatrix in="SourceAlpha" values="0 0 0 0 0 0 0 0 0 0 0 0 0 0 0 0 0 0 127 0"/><feOffset dy="1"/><feGaussianBlur stdDeviation="1.5"/><feColorMatrix values="0 0 0 0 0 0 0 0 0 0 0 0 0 0 0 0 0 0 0.08 0"/><feBlend in2="BackgroundImageFix" result="effect1_dropShadow"/><feColorMatrix in="SourceAlpha" values="0 0 0 0 0 0 0 0 0 0 0 0 0 0 0 0 0 0 127 0"/><feOffset dy="4"/><feGaussianBlur stdDeviation="3"/><feColorMatrix values="0 0 0 0 0 0 0 0 0 0 0 0 0 0 0 0 0 0 0.11 0"/><feBlend in2="effect1_dropShadow" result="effect2_dropShadow"/><feBlend in="SourceGraphic" in2="effect2_dropShadow" result="shape"/></filter><filter id="filter1_dd" x="0" y="188" width="135" height="119" filterUnits="userSpaceOnUse" color-interpolation-filters="sRGB"><feFlood flood-opacity="0" result="BackgroundImageFix"/><feColorMatrix in="SourceAlpha" values="0 0 0 0 0 0 0 0 0 0 0 0 0 0 0 0 0 0 127 0"/><feOffset dy="1"/><feGaussianBlur stdDeviation="1.5"/><feColorMatrix values="0 0 0 0 0 0 0 0 0 0 0 0 0 0 0 0 0 0 0.08 0"/><feBlend in2="BackgroundImageFix" result="effect1_dropShadow"/><feColorMatrix in="SourceAlpha" values="0 0 0 0 0 0 0 0 0 0 0 0 0 0 0 0 0 0 127 0"/><feOffset dy="4"/><feGaussianBlur stdDeviation="3"/><feColorMatrix values="0 0 0 0 0 0 0 0 0 0 0 0 0 0 0 0 0 0 0.11 0"/><feBlend in2="effect1_dropShadow" result="effect2_dropShadow"/><feBlend in="SourceGraphic" in2="effect2_dropShadow" result="shape"/></filter><linearGradient id="paint0_linear" x1="508" y1="13" x2="422" y2="341" gradientUnits="userSpaceOnUse"><stop stop-color="#516676"/><stop offset="1" stop-color="#516676" stop-opacity="0"/></linearGradient></defs></svg>