<svg width="410" height="378" viewBox="0 0 410 378" fill="none" xmlns="http://www.w3.org/2000/svg">
<path d="M209 164H282.46V222.336L309.467 245.022" stroke="#0495FE" stroke-opacity="0.3" stroke-width="2"/>
<circle cx="311.088" cy="246.642" r="3.24088" stroke="#0495FE" stroke-opacity="0.3" stroke-width="2"/>
<path d="M186 166L121.409 200V240.409L94.4014 263.095" stroke="#0495FE" stroke-opacity="0.3" stroke-width="2"/>
<circle cx="92.2409" cy="265.256" r="3.24088" stroke="#0495FE" stroke-opacity="0.3" stroke-width="2"/>
<path d="M193.029 183.569L221.657 224.62V265.131" stroke="#0495FE" stroke-opacity="0.3" stroke-width="2"/>
<circle cx="221.657" cy="268.372" r="3.24088" stroke="#0495FE" stroke-opacity="0.3" stroke-width="2"/>
<path d="M164.868 164.044L136.241 142.993L136.241 102.482" stroke="#0495FE" stroke-opacity="0.3" stroke-width="2"/>
<circle cx="136.241" cy="98.2406" r="3.24088" transform="rotate(-180 136.241 98.2406)" stroke="#0495FE" stroke-opacity="0.3" stroke-width="2"/>
<g filter="url(#filter0_d)">
<circle cx="188.168" cy="169.891" r="38.8905" fill="white"/>
</g>
<path d="M199.765 188H183.824C182.79 188 181.816 187.585 181.084 186.828L168.939 174.291C168.02 173.345 167.749 171.931 168.244 170.695C168.742 169.456 169.9 168.654 171.2 168.654H186.084V153.294C186.084 151.957 186.859 150.761 188.057 150.247C189.236 149.741 190.641 150.029 191.543 150.96L203.695 163.501C204.427 164.261 204.829 165.264 204.829 166.329V182.776C204.827 185.658 202.557 188 199.765 188ZM184.492 182.349H199.353V167.011L191.56 158.968V174.306H176.699L184.492 182.349Z" fill="#FF0076"/>
<g filter="url(#filter1_d)">
<circle cx="362.891" cy="276.891" r="38.8905" fill="white"/>
</g>
<path d="M367.567 270.272H368.725L371.968 267.01L372.142 265.612C369.594 263.398 366.235 262 362.529 262C355.87 262 350.196 266.602 348.517 272.777C348.864 272.544 349.617 272.718 349.617 272.718L356.044 271.67C356.044 271.67 356.392 271.146 356.565 271.146C358.013 269.515 360.155 268.524 362.529 268.524C364.44 268.466 366.177 269.165 367.567 270.272Z" fill="#506677"/>
<path d="M376.542 272.777C375.79 269.981 374.226 267.534 372.142 265.67L367.567 270.272C369.42 271.786 370.578 274.058 370.578 276.563V277.379C372.778 277.379 374.631 279.184 374.631 281.456C374.631 283.67 372.836 285.534 370.578 285.534H362.529L361.719 286.35V291.184L362.529 292H370.578C376.369 292 381.059 287.282 381.059 281.456C381.059 277.845 379.264 274.699 376.542 272.777Z" fill="#506677"/>
<path d="M354.481 292H362.53V285.475H354.481C353.902 285.475 353.323 285.359 352.802 285.126L351.643 285.475L348.401 288.738L348.111 289.844C349.906 291.184 352.107 292 354.481 292Z" fill="#506677"/>
<path d="M354.481 270.913C348.69 270.913 344 275.631 344 281.456C344 284.893 345.621 287.922 348.169 289.845L352.859 285.126C351.47 284.485 350.485 283.087 350.485 281.456C350.485 279.243 352.28 277.379 354.539 277.379C356.16 277.379 357.55 278.369 358.187 279.767L362.877 275.049C360.908 272.544 357.897 270.913 354.481 270.913Z" fill="#506677"/>
<g filter="url(#filter2_d)">
<circle cx="222.737" cy="326.11" r="38.8905" fill="white"/>
</g>
<path d="M213.252 325.443C213.252 325.978 213.31 326.412 213.411 326.73C213.527 327.048 213.672 327.395 213.874 327.771C213.946 327.886 213.975 328.002 213.975 328.103C213.975 328.248 213.889 328.393 213.701 328.537L212.79 329.145C212.659 329.231 212.529 329.275 212.414 329.275C212.269 329.275 212.124 329.202 211.98 329.072C211.777 328.855 211.604 328.624 211.459 328.393C211.315 328.147 211.17 327.872 211.011 327.539C209.883 328.87 208.466 329.535 206.76 329.535C205.545 329.535 204.576 329.188 203.867 328.494C203.159 327.8 202.797 326.874 202.797 325.717C202.797 324.488 203.231 323.491 204.113 322.739C204.995 321.987 206.167 321.611 207.656 321.611C208.148 321.611 208.654 321.654 209.189 321.726C209.724 321.799 210.273 321.914 210.852 322.044V320.989C210.852 319.89 210.62 319.123 210.172 318.675C209.709 318.227 208.929 318.01 207.815 318.01C207.309 318.01 206.788 318.068 206.253 318.198C205.718 318.328 205.198 318.487 204.692 318.69C204.46 318.791 204.287 318.849 204.186 318.878C204.084 318.907 204.012 318.921 203.954 318.921C203.752 318.921 203.651 318.776 203.651 318.473V317.764C203.651 317.533 203.679 317.359 203.752 317.258C203.824 317.157 203.954 317.056 204.157 316.954C204.663 316.694 205.27 316.477 205.979 316.304C206.687 316.116 207.439 316.029 208.234 316.029C209.955 316.029 211.213 316.419 212.023 317.2C212.818 317.981 213.223 319.167 213.223 320.757V325.443H213.252ZM207.381 327.641C207.859 327.641 208.35 327.554 208.871 327.38C209.391 327.207 209.854 326.889 210.244 326.455C210.476 326.18 210.649 325.876 210.736 325.529C210.823 325.182 210.881 324.763 210.881 324.271V323.664C210.461 323.563 210.013 323.476 209.55 323.418C209.088 323.36 208.639 323.331 208.191 323.331C207.222 323.331 206.514 323.519 206.037 323.91C205.559 324.3 205.328 324.85 205.328 325.573C205.328 326.252 205.501 326.759 205.863 327.106C206.21 327.467 206.716 327.641 207.381 327.641ZM218.993 329.202C218.733 329.202 218.559 329.159 218.444 329.058C218.328 328.971 218.227 328.769 218.14 328.494L214.742 317.316C214.655 317.027 214.612 316.839 214.612 316.737C214.612 316.506 214.727 316.376 214.959 316.376H216.376C216.65 316.376 216.838 316.419 216.94 316.521C217.055 316.607 217.142 316.81 217.229 317.085L219.658 326.657L221.914 317.085C221.986 316.795 222.073 316.607 222.189 316.521C222.305 316.434 222.507 316.376 222.767 316.376H223.924C224.199 316.376 224.387 316.419 224.503 316.521C224.618 316.607 224.719 316.81 224.777 317.085L227.062 326.773L229.564 317.085C229.65 316.795 229.752 316.607 229.853 316.521C229.969 316.434 230.157 316.376 230.417 316.376H231.762C231.993 316.376 232.123 316.492 232.123 316.737C232.123 316.81 232.109 316.882 232.094 316.969C232.08 317.056 232.051 317.171 231.993 317.33L228.508 328.508C228.421 328.798 228.32 328.985 228.204 329.072C228.089 329.159 227.901 329.217 227.655 329.217H226.411C226.137 329.217 225.949 329.173 225.833 329.072C225.717 328.971 225.616 328.783 225.558 328.494L223.317 319.167L221.09 328.479C221.018 328.769 220.931 328.957 220.815 329.058C220.699 329.159 220.497 329.202 220.237 329.202H218.993ZM237.575 329.593C236.823 329.593 236.071 329.506 235.348 329.333C234.625 329.159 234.061 328.971 233.685 328.754C233.454 328.624 233.294 328.479 233.237 328.349C233.179 328.219 233.15 328.074 233.15 327.944V327.207C233.15 326.903 233.266 326.759 233.482 326.759C233.569 326.759 233.656 326.773 233.743 326.802C233.83 326.831 233.96 326.889 234.104 326.947C234.596 327.163 235.131 327.337 235.695 327.453C236.273 327.568 236.837 327.626 237.416 327.626C238.327 327.626 239.035 327.467 239.527 327.149C240.019 326.831 240.279 326.368 240.279 325.775C240.279 325.37 240.149 325.038 239.888 324.763C239.628 324.488 239.136 324.242 238.428 324.011L236.331 323.36C235.276 323.028 234.495 322.536 234.017 321.885C233.54 321.249 233.294 320.541 233.294 319.789C233.294 319.181 233.425 318.646 233.685 318.184C233.945 317.721 234.292 317.316 234.726 316.998C235.16 316.665 235.652 316.419 236.23 316.246C236.808 316.072 237.416 316 238.052 316C238.37 316 238.703 316.014 239.021 316.058C239.353 316.101 239.657 316.159 239.961 316.217C240.25 316.289 240.525 316.362 240.785 316.448C241.045 316.535 241.248 316.622 241.392 316.709C241.595 316.824 241.739 316.94 241.826 317.07C241.913 317.186 241.956 317.345 241.956 317.547V318.227C241.956 318.531 241.841 318.69 241.624 318.69C241.508 318.69 241.32 318.632 241.074 318.516C240.25 318.14 239.324 317.952 238.298 317.952C237.474 317.952 236.823 318.082 236.375 318.357C235.926 318.632 235.695 319.051 235.695 319.644C235.695 320.049 235.84 320.396 236.129 320.671C236.418 320.945 236.953 321.22 237.719 321.466L239.773 322.117C240.814 322.449 241.566 322.912 242.014 323.505C242.462 324.098 242.679 324.777 242.679 325.529C242.679 326.151 242.549 326.715 242.303 327.207C242.043 327.699 241.696 328.132 241.248 328.479C240.799 328.841 240.264 329.101 239.643 329.289C238.992 329.492 238.312 329.593 237.575 329.593Z" fill="#506677"/>
<path fill-rule="evenodd" clip-rule="evenodd" d="M240.308 336.621C235.551 340.135 228.639 342 222.695 342C214.366 342 206.861 338.92 201.193 333.801C200.744 333.396 201.149 332.847 201.684 333.165C207.816 336.722 215.378 338.877 223.201 338.877C228.48 338.877 234.278 337.778 239.614 335.522C240.409 335.16 241.089 336.042 240.308 336.621Z" fill="#506677"/>
<path fill-rule="evenodd" clip-rule="evenodd" d="M242.289 334.366C241.682 333.585 238.269 333.99 236.722 334.178C236.259 334.236 236.187 333.831 236.606 333.527C239.325 331.618 243.793 332.168 244.314 332.804C244.834 333.455 244.169 337.923 241.624 340.063C241.234 340.396 240.858 340.222 241.031 339.788C241.61 338.357 242.897 335.132 242.289 334.366Z" fill="#506677"/>
<g filter="url(#filter3_d)">
<circle cx="46.8905" cy="302.891" r="38.8905" fill="white"/>
</g>
<path d="M45.5924 316.786C51.0334 315.833 55.5274 315.044 55.579 315.033L55.6729 315.014L50.536 308.956C47.7107 305.624 45.3991 302.885 45.3991 302.869C45.3991 302.839 50.7034 288.357 50.7332 288.306C50.7432 288.288 54.3529 294.467 59.4834 303.283C64.2867 311.537 68.2467 318.343 68.2835 318.407L68.3505 318.522L52.025 318.52L35.6996 318.518L45.5924 316.786ZM26 314.938C26 314.93 28.4205 310.764 31.3788 305.681L36.7577 296.439L43.0261 291.223C46.4737 288.355 49.3038 286.004 49.3151 286C49.3265 285.996 49.2811 286.109 49.2143 286.252C49.1476 286.394 46.0846 292.908 42.4077 300.726L35.7225 314.942L30.8613 314.948C28.1876 314.951 26 314.947 26 314.938Z" fill="#506677"/>
<g filter="url(#filter4_d)">
<circle cx="137.891" cy="41.8905" r="38.8905" fill="white"/>
</g>
<path d="M124.87 47.5032L128.39 24.6979C128.511 23.9207 129.543 23.7366 129.907 24.4321L133.69 31.5906L124.87 47.5032ZM149.895 53.0459L146.537 32.0406C146.435 31.3861 145.626 31.1202 145.161 31.5906L124 53.0459L135.713 59.6932C136.442 60.1023 137.352 60.1023 138.08 59.6932L149.895 53.0459ZM140.387 34.72L137.676 29.5044C137.372 28.9113 136.543 28.9113 136.239 29.5044L124.324 50.9802L140.387 34.72Z" fill="#506677"/>
<defs>
<filter id="filter0_d" x="141.277" y="128" width="93.781" height="93.781" filterUnits="userSpaceOnUse" color-interpolation-filters="sRGB">
<feFlood flood-opacity="0" result="BackgroundImageFix"/>
<feColorMatrix in="SourceAlpha" type="matrix" values="0 0 0 0 0 0 0 0 0 0 0 0 0 0 0 0 0 0 127 0"/>
<feOffset dy="5"/>
<feGaussianBlur stdDeviation="4"/>
<feColorMatrix type="matrix" values="0 0 0 0 0 0 0 0 0 0 0 0 0 0 0 0 0 0 0.07 0"/>
<feBlend mode="normal" in2="BackgroundImageFix" result="effect1_dropShadow"/>
<feBlend mode="normal" in="SourceGraphic" in2="effect1_dropShadow" result="shape"/>
</filter>
<filter id="filter1_d" x="316" y="235" width="93.781" height="93.781" filterUnits="userSpaceOnUse" color-interpolation-filters="sRGB">
<feFlood flood-opacity="0" result="BackgroundImageFix"/>
<feColorMatrix in="SourceAlpha" type="matrix" values="0 0 0 0 0 0 0 0 0 0 0 0 0 0 0 0 0 0 127 0"/>
<feOffset dy="5"/>
<feGaussianBlur stdDeviation="4"/>
<feColorMatrix type="matrix" values="0 0 0 0 0 0 0 0 0 0 0 0 0 0 0 0 0 0 0.07 0"/>
<feBlend mode="normal" in2="BackgroundImageFix" result="effect1_dropShadow"/>
<feBlend mode="normal" in="SourceGraphic" in2="effect1_dropShadow" result="shape"/>
</filter>
<filter id="filter2_d" x="175.847" y="284.219" width="93.781" height="93.781" filterUnits="userSpaceOnUse" color-interpolation-filters="sRGB">
<feFlood flood-opacity="0" result="BackgroundImageFix"/>
<feColorMatrix in="SourceAlpha" type="matrix" values="0 0 0 0 0 0 0 0 0 0 0 0 0 0 0 0 0 0 127 0"/>
<feOffset dy="5"/>
<feGaussianBlur stdDeviation="4"/>
<feColorMatrix type="matrix" values="0 0 0 0 0 0 0 0 0 0 0 0 0 0 0 0 0 0 0.07 0"/>
<feBlend mode="normal" in2="BackgroundImageFix" result="effect1_dropShadow"/>
<feBlend mode="normal" in="SourceGraphic" in2="effect1_dropShadow" result="shape"/>
</filter>
<filter id="filter3_d" x="0" y="261" width="93.781" height="93.781" filterUnits="userSpaceOnUse" color-interpolation-filters="sRGB">
<feFlood flood-opacity="0" result="BackgroundImageFix"/>
<feColorMatrix in="SourceAlpha" type="matrix" values="0 0 0 0 0 0 0 0 0 0 0 0 0 0 0 0 0 0 127 0"/>
<feOffset dy="5"/>
<feGaussianBlur stdDeviation="4"/>
<feColorMatrix type="matrix" values="0 0 0 0 0 0 0 0 0 0 0 0 0 0 0 0 0 0 0.07 0"/>
<feBlend mode="normal" in2="BackgroundImageFix" result="effect1_dropShadow"/>
<feBlend mode="normal" in="SourceGraphic" in2="effect1_dropShadow" result="shape"/>
</filter>
<filter id="filter4_d" x="91" y="0" width="93.781" height="93.781" filterUnits="userSpaceOnUse" color-interpolation-filters="sRGB">
<feFlood flood-opacity="0" result="BackgroundImageFix"/>
<feColorMatrix in="SourceAlpha" type="matrix" values="0 0 0 0 0 0 0 0 0 0 0 0 0 0 0 0 0 0 127 0"/>
<feOffset dy="5"/>
<feGaussianBlur stdDeviation="4"/>
<feColorMatrix type="matrix" values="0 0 0 0 0 0 0 0 0 0 0 0 0 0 0 0 0 0 0.07 0"/>
<feBlend mode="normal" in2="BackgroundImageFix" result="effect1_dropShadow"/>
<feBlend mode="normal" in="SourceGraphic" in2="effect1_dropShadow" result="shape"/>
</filter>
</defs>
</svg>
