<svg width="371" height="300" fill="none" xmlns="http://www.w3.org/2000/svg"><path fill="#fff" d="M.097 0h370.039v300H.097z"/><rect x="105.034" y="28.016" width="104.936" height="12.427" rx="6.213" fill="#506677" fill-opacity=".5"/><rect x="105.034" y="54.25" width="219.538" height="13.807" rx="6.904" fill="#506677" fill-opacity=".2"/><rect x="42.9" y="39.062" width="19.33" height="19.33" rx="9.665" fill="#506677" fill-opacity=".2"/><path fill="#506677" fill-opacity=".05" d="M.097 94.553h370.039v103.891H.097z"/><rect x="103.866" y="129.201" width="104.936" height="12.427" rx="6.213" fill="#506677" fill-opacity=".5"/><rect x="218.385" y="129.572" width="23.346" height="11.673" rx="5.837" fill="#0495FE"/><rect x="103.866" y="155.436" width="219.538" height="13.807" rx="6.904" fill="#506677" fill-opacity=".2"/><rect x="41.733" y="140.248" width="19.33" height="19.33" rx="9.665" fill="#506677" fill-opacity=".5"/><rect x="47.256" y="145.771" width="8.284" height="8.284" rx="4.142" fill="#fff"/><path d="M.097 93.969h370.039M.097 199.027h370.039" stroke="#B4DFFF" stroke-width="2" stroke-linejoin="round" stroke-dasharray="6 3"/><rect x="105.034" y="228.794" width="104.936" height="12.427" rx="6.213" fill="#506677" fill-opacity=".5"/><rect x="105.034" y="255.028" width="219.538" height="13.807" rx="6.904" fill="#506677" fill-opacity=".2"/><rect x="42.9" y="239.84" width="19.33" height="19.33" rx="9.665" fill="#506677" fill-opacity=".2"/></svg>