<svg width="113" height="171" viewBox="0 0 113 171" fill="none" xmlns="http://www.w3.org/2000/svg">
<rect width="113" height="171" rx="4" fill="#F7F9FE"/>
<path d="M37.9375 49.7266V61H40.2969V57.4453H42.4062C44.7812 57.4453 46.4297 55.8984 46.4297 53.5859C46.4297 51.2656 44.8359 49.7266 42.5234 49.7266H37.9375ZM40.2969 51.5938H41.8984C43.25 51.5938 44.0312 52.3125 44.0312 53.5938C44.0312 54.8828 43.2422 55.6016 41.8906 55.6016H40.2969V51.5938ZM51.1953 61.1797C53.7266 61.1797 55.3438 59.5625 55.3438 56.8047C55.3438 54.0859 53.7031 52.4453 51.1953 52.4453C48.6875 52.4453 47.0469 54.0938 47.0469 56.8047C47.0469 59.5547 48.6641 61.1797 51.1953 61.1797ZM51.1953 59.4375C50.0703 59.4375 49.3594 58.4922 49.3594 56.8125C49.3594 55.1484 50.0859 54.1875 51.1953 54.1875C52.3047 54.1875 53.0234 55.1484 53.0234 56.8125C53.0234 58.4922 52.3125 59.4375 51.1953 59.4375ZM56.3828 55.0859C56.3828 56.3438 57.2031 57.1562 58.8203 57.5L60.25 57.7969C61.0703 57.9844 61.3594 58.2344 61.3594 58.6797C61.3594 59.2266 60.8281 59.5781 59.9688 59.5781C59.0625 59.5781 58.5391 59.1875 58.3984 58.4531H56.1719C56.3203 60.1016 57.6562 61.1797 59.9688 61.1797C62.125 61.1797 63.6328 60.0938 63.6328 58.4453C63.6328 57.2188 62.9141 56.5312 61.1641 56.1641L59.7344 55.8594C58.8906 55.6797 58.5781 55.3906 58.5781 54.9609C58.5781 54.4062 59.1016 54.0469 59.8906 54.0469C60.7344 54.0469 61.2422 54.5078 61.3125 55.1875H63.4141C63.3672 53.5469 62.0391 52.4453 59.8906 52.4453C57.7578 52.4453 56.3828 53.4922 56.3828 55.0859ZM65.3672 50.6953V52.625H64.1875V54.3438H65.3672V58.7422C65.3672 60.375 66.1328 61.0312 68.1016 61.0312C68.5625 61.0312 68.9531 60.9922 69.1875 60.9375V59.2578C69.0469 59.2812 68.8359 59.2969 68.6328 59.2969C67.9609 59.2969 67.6484 58.9922 67.6484 58.3516V54.3438H69.1953V52.625H67.6484V50.6953H65.3672ZM70.3047 55.0859C70.3047 56.3438 71.125 57.1562 72.7422 57.5L74.1719 57.7969C74.9922 57.9844 75.2812 58.2344 75.2812 58.6797C75.2812 59.2266 74.75 59.5781 73.8906 59.5781C72.9844 59.5781 72.4609 59.1875 72.3203 58.4531H70.0938C70.2422 60.1016 71.5781 61.1797 73.8906 61.1797C76.0469 61.1797 77.5547 60.0938 77.5547 58.4453C77.5547 57.2188 76.8359 56.5312 75.0859 56.1641L73.6562 55.8594C72.8125 55.6797 72.5 55.3906 72.5 54.9609C72.5 54.4062 73.0234 54.0469 73.8125 54.0469C74.6562 54.0469 75.1641 54.5078 75.2344 55.1875H77.3359C77.2891 53.5469 75.9609 52.4453 73.8125 52.4453C71.6797 52.4453 70.3047 53.4922 70.3047 55.0859Z" fill="#506677"/>
<path d="M38.0938 17.7266V29H39.5V24.9766H42.1016C44.2188 24.9766 45.7266 23.4844 45.7266 21.3438C45.7266 19.2109 44.2344 17.7266 42.1172 17.7266H38.0938ZM39.5 18.9766H41.75C43.3672 18.9766 44.2812 19.8516 44.2812 21.3438C44.2812 22.8438 43.3594 23.7266 41.75 23.7266H39.5V18.9766ZM48.8047 29.1406C49.8984 29.1406 50.9297 28.5312 51.4141 27.6016H51.4453V29H52.7344V23.3828C52.7344 21.7656 51.5312 20.7344 49.625 20.7344C47.7031 20.7344 46.5 21.8125 46.4062 23.2188H47.7188C47.8906 22.4219 48.5469 21.9297 49.5938 21.9297C50.7188 21.9297 51.375 22.5234 51.375 23.5156V24.1953L49.0469 24.3281C47.1719 24.4375 46.1016 25.3125 46.1016 26.7031C46.1016 28.1641 47.1875 29.1406 48.8047 29.1406ZM49.1094 27.9844C48.1328 27.9844 47.4844 27.4766 47.4844 26.7031C47.4844 25.9375 48.1094 25.4531 49.2031 25.3828L51.375 25.25V25.9141C51.375 27.0859 50.3906 27.9844 49.1094 27.9844ZM57.8125 32.0625C60.0547 32.0625 61.4844 30.7734 61.4844 28.8359V20.875H60.1875V22.2422H60.1641C59.625 21.2969 58.6719 20.7344 57.5234 20.7344C55.4219 20.7344 54.0625 22.3594 54.0625 24.9062C54.0625 27.4297 55.4219 29.0625 57.4922 29.0625C58.6328 29.0625 59.5938 28.4844 60.0938 27.6016H60.125V28.8828C60.125 30.0938 59.2734 30.9062 57.8672 30.9062C56.8516 30.9062 56.0469 30.4141 55.7812 29.6719H54.3828C54.6094 31.0547 56.0234 32.0625 57.8125 32.0625ZM57.7656 27.8672C56.3672 27.8672 55.4531 26.7266 55.4531 24.9062C55.4531 23.0859 56.3672 21.9297 57.7656 21.9297C59.1797 21.9297 60.125 23.1172 60.125 24.9062C60.125 26.6953 59.1797 27.8672 57.7656 27.8672ZM68.6484 26.6719C68.4219 27.4375 67.6641 27.9609 66.6328 27.9609C65.1719 27.9609 64.2578 26.9375 64.2578 25.3828V25.3047H70.0859V24.7891C70.0859 22.3281 68.7344 20.7344 66.5391 20.7344C64.2969 20.7344 62.8594 22.4453 62.8594 24.9688C62.8594 27.5234 64.2734 29.1406 66.6016 29.1406C68.375 29.1406 69.75 28.0938 69.9844 26.6719H68.6484ZM66.5156 21.9141C67.7969 21.9141 68.6484 22.8828 68.6797 24.2422H64.2656C64.3516 22.8906 65.2422 21.9141 66.5156 21.9141ZM71.3203 23.1172C71.3203 24.2891 72.0625 25 73.5938 25.3672L74.8828 25.6797C75.8125 25.9062 76.1328 26.2422 76.1328 26.8281C76.1328 27.5625 75.4531 28.0312 74.3516 28.0312C73.25 28.0312 72.625 27.5859 72.4609 26.6562H71.1016C71.2578 28.1797 72.4453 29.1406 74.3516 29.1406C76.1641 29.1406 77.5 28.1406 77.5 26.7266C77.5 25.5625 76.9062 24.9219 75.2656 24.5234L73.9766 24.2109C73.0703 23.9922 72.6562 23.6094 72.6562 23.0469C72.6562 22.3359 73.3125 21.8438 74.3047 21.8438C75.3047 21.8438 75.9297 22.3672 76.0312 23.2188H77.3281C77.2734 21.7812 76.0859 20.7344 74.3047 20.7344C72.5469 20.7344 71.3203 21.7266 71.3203 23.1172ZM39.5 93V88.1172H44.4922V86.8672H39.5V82.9922H44.9375V81.7266H38.0938V93H39.5ZM49.3906 93.1406C51.6328 93.1406 53.1484 91.5234 53.1484 88.9375C53.1484 86.3438 51.6328 84.7344 49.3906 84.7344C47.1406 84.7344 45.625 86.3438 45.625 88.9375C45.625 91.5234 47.1406 93.1406 49.3906 93.1406ZM49.3906 91.9453C47.9531 91.9453 47.0078 90.8516 47.0078 88.9375C47.0078 87.0234 47.9531 85.9297 49.3906 85.9297C50.8281 85.9297 51.7656 87.0234 51.7656 88.9375C51.7656 90.8516 50.8281 91.9453 49.3906 91.9453ZM54.5234 93H55.8828V87.9375C55.8828 86.7891 56.5703 86.0312 57.625 86.0312C57.9531 86.0312 58.2422 86.0703 58.3516 86.1094V84.7891C58.2422 84.7734 58.0391 84.7344 57.8047 84.7344C56.8516 84.7344 56.1016 85.3047 55.8359 86.2031H55.8047V84.875H54.5234V93ZM59.4609 93H60.8203V87.9062C60.8203 86.7812 61.6016 85.9375 62.6797 85.9375C63.6875 85.9375 64.3438 86.5781 64.3438 87.5547V93H65.7031V87.8359C65.7031 86.7344 66.4609 85.9375 67.5391 85.9375C68.6094 85.9375 69.2266 86.5938 69.2266 87.7031V93H70.5859V87.3906C70.5859 85.7812 69.5469 84.7344 67.9375 84.7344C66.7969 84.7344 65.8438 85.3125 65.3906 86.2812H65.3594C65.0078 85.2969 64.1875 84.7344 63.0781 84.7344C61.9844 84.7344 61.1562 85.3125 60.7734 86.1719H60.7422V84.875H59.4609V93ZM72.1797 87.1172C72.1797 88.2891 72.9219 89 74.4531 89.3672L75.7422 89.6797C76.6719 89.9062 76.9922 90.2422 76.9922 90.8281C76.9922 91.5625 76.3125 92.0312 75.2109 92.0312C74.1094 92.0312 73.4844 91.5859 73.3203 90.6562H71.9609C72.1172 92.1797 73.3047 93.1406 75.2109 93.1406C77.0234 93.1406 78.3594 92.1406 78.3594 90.7266C78.3594 89.5625 77.7656 88.9219 76.125 88.5234L74.8359 88.2109C73.9297 87.9922 73.5156 87.6094 73.5156 87.0469C73.5156 86.3359 74.1719 85.8438 75.1641 85.8438C76.1641 85.8438 76.7891 86.3672 76.8906 87.2188H78.1875C78.1328 85.7812 76.9453 84.7344 75.1641 84.7344C73.4062 84.7344 72.1797 85.7266 72.1797 87.1172ZM39.5 113.727H38.0938V121.047C38.0938 123.453 39.7734 125.188 42.5703 125.188C45.3672 125.188 47.0469 123.453 47.0469 121.047V113.727H45.6406V120.953C45.6406 122.656 44.5234 123.891 42.5703 123.891C40.6172 123.891 39.5 122.656 39.5 120.953V113.727ZM48.8828 119.117C48.8828 120.289 49.625 121 51.1562 121.367L52.4453 121.68C53.375 121.906 53.6953 122.242 53.6953 122.828C53.6953 123.562 53.0156 124.031 51.9141 124.031C50.8125 124.031 50.1875 123.586 50.0234 122.656H48.6641C48.8203 124.18 50.0078 125.141 51.9141 125.141C53.7266 125.141 55.0625 124.141 55.0625 122.727C55.0625 121.562 54.4688 120.922 52.8281 120.523L51.5391 120.211C50.6328 119.992 50.2188 119.609 50.2188 119.047C50.2188 118.336 50.875 117.844 51.8672 117.844C52.8672 117.844 53.4922 118.367 53.5938 119.219H54.8906C54.8359 117.781 53.6484 116.734 51.8672 116.734C50.1094 116.734 48.8828 117.727 48.8828 119.117ZM61.8672 122.672C61.6406 123.438 60.8828 123.961 59.8516 123.961C58.3906 123.961 57.4766 122.938 57.4766 121.383V121.305H63.3047V120.789C63.3047 118.328 61.9531 116.734 59.7578 116.734C57.5156 116.734 56.0781 118.445 56.0781 120.969C56.0781 123.523 57.4922 125.141 59.8203 125.141C61.5938 125.141 62.9688 124.094 63.2031 122.672H61.8672ZM59.7344 117.914C61.0156 117.914 61.8672 118.883 61.8984 120.242H57.4844C57.5703 118.891 58.4609 117.914 59.7344 117.914ZM64.6797 125H66.0391V119.938C66.0391 118.789 66.7266 118.031 67.7812 118.031C68.1094 118.031 68.3984 118.07 68.5078 118.109V116.789C68.3984 116.773 68.1953 116.734 67.9609 116.734C67.0078 116.734 66.2578 117.305 65.9922 118.203H65.9609V116.875H64.6797V125ZM69.4766 119.117C69.4766 120.289 70.2188 121 71.75 121.367L73.0391 121.68C73.9688 121.906 74.2891 122.242 74.2891 122.828C74.2891 123.562 73.6094 124.031 72.5078 124.031C71.4062 124.031 70.7812 123.586 70.6172 122.656H69.2578C69.4141 124.18 70.6016 125.141 72.5078 125.141C74.3203 125.141 75.6562 124.141 75.6562 122.727C75.6562 121.562 75.0625 120.922 73.4219 120.523L72.1328 120.211C71.2266 119.992 70.8125 119.609 70.8125 119.047C70.8125 118.336 71.4688 117.844 72.4609 117.844C73.4609 117.844 74.0859 118.367 74.1875 119.219H75.4844C75.4297 117.781 74.2422 116.734 72.4609 116.734C70.7031 116.734 69.4766 117.727 69.4766 119.117ZM42.7344 157.188C45.2266 157.188 46.8984 155.945 47.4141 153.719H45.9922C45.5859 155.094 44.3984 155.891 42.7422 155.891C40.5156 155.891 39.1016 154.125 39.1016 151.359C39.1016 148.617 40.5312 146.836 42.7344 146.836C44.3438 146.836 45.6328 147.805 45.9922 149.281H47.4141C47.0547 147.031 45.1875 145.539 42.7344 145.539C39.6484 145.539 37.6562 147.82 37.6562 151.359C37.6562 154.93 39.625 157.188 42.7344 157.188ZM55.5391 148.875H54.1797V153.648C54.1797 155.031 53.3828 155.938 52.0625 155.938C50.8047 155.938 50.1875 155.227 50.1875 153.906V148.875H48.8281V154.148C48.8281 155.992 49.8672 157.141 51.6406 157.141C52.8906 157.141 53.7344 156.617 54.2188 155.68H54.25V157H55.5391V148.875ZM57.1641 151.117C57.1641 152.289 57.9062 153 59.4375 153.367L60.7266 153.68C61.6562 153.906 61.9766 154.242 61.9766 154.828C61.9766 155.562 61.2969 156.031 60.1953 156.031C59.0938 156.031 58.4688 155.586 58.3047 154.656H56.9453C57.1016 156.18 58.2891 157.141 60.1953 157.141C62.0078 157.141 63.3438 156.141 63.3438 154.727C63.3438 153.562 62.75 152.922 61.1094 152.523L59.8203 152.211C58.9141 151.992 58.5 151.609 58.5 151.047C58.5 150.336 59.1562 149.844 60.1484 149.844C61.1484 149.844 61.7734 150.367 61.875 151.219H63.1719C63.1172 149.781 61.9297 148.734 60.1484 148.734C58.3906 148.734 57.1641 149.727 57.1641 151.117ZM65.1953 146.914V148.875H63.9844V149.992H65.1953V154.891C65.1953 156.453 65.7734 157.062 67.2656 157.062C67.5859 157.062 67.9609 157.039 68.125 157V155.859C68.0312 155.875 67.7188 155.898 67.5625 155.898C66.8672 155.898 66.5547 155.562 66.5547 154.82V149.992H68.1328V148.875H66.5547V146.914H65.1953ZM72.7188 157.141C74.9609 157.141 76.4766 155.523 76.4766 152.938C76.4766 150.344 74.9609 148.734 72.7188 148.734C70.4688 148.734 68.9531 150.344 68.9531 152.938C68.9531 155.523 70.4688 157.141 72.7188 157.141ZM72.7188 155.945C71.2812 155.945 70.3359 154.852 70.3359 152.938C70.3359 151.023 71.2812 149.93 72.7188 149.93C74.1562 149.93 75.0938 151.023 75.0938 152.938C75.0938 154.852 74.1562 155.945 72.7188 155.945ZM77.8516 157H79.2109V151.906C79.2109 150.781 79.9922 149.938 81.0703 149.938C82.0781 149.938 82.7344 150.578 82.7344 151.555V157H84.0938V151.836C84.0938 150.734 84.8516 149.938 85.9297 149.938C87 149.938 87.6172 150.594 87.6172 151.703V157H88.9766V151.391C88.9766 149.781 87.9375 148.734 86.3281 148.734C85.1875 148.734 84.2344 149.312 83.7812 150.281H83.75C83.3984 149.297 82.5781 148.734 81.4688 148.734C80.375 148.734 79.5469 149.312 79.1641 150.172H79.1328V148.875H77.8516V157ZM91.8594 157.078C92.3594 157.078 92.75 156.688 92.75 156.188C92.75 155.688 92.3594 155.297 91.8594 155.297C91.3594 155.297 90.9688 155.688 90.9688 156.188C90.9688 156.688 91.3594 157.078 91.8594 157.078ZM95.9219 157.078C96.4219 157.078 96.8125 156.688 96.8125 156.188C96.8125 155.688 96.4219 155.297 95.9219 155.297C95.4219 155.297 95.0312 155.688 95.0312 156.188C95.0312 156.688 95.4219 157.078 95.9219 157.078ZM99.9844 157.078C100.484 157.078 100.875 156.688 100.875 156.188C100.875 155.688 100.484 155.297 99.9844 155.297C99.4844 155.297 99.0938 155.688 99.0938 156.188C99.0938 156.688 99.4844 157.078 99.9844 157.078Z" fill="#506677" fill-opacity="0.7"/>
<g opacity="0.7">
<path d="M26.7325 88.7801C26.7682 88.5221 26.7872 88.262 26.7894 88.0015C26.7871 87.7401 26.7681 87.479 26.7325 87.2199L28.4275 85.8963C28.5023 85.8367 28.5531 85.7522 28.5707 85.6582C28.5883 85.5641 28.5715 85.4669 28.5233 85.3843L26.9302 82.6113C26.8824 82.5294 26.8071 82.4673 26.7176 82.436C26.6281 82.4047 26.5304 82.4063 26.4421 82.4406L24.4477 83.2432C24.0334 82.9235 23.5794 82.6587 23.0972 82.4556L22.7977 80.3354C22.78 80.2401 22.7291 80.154 22.654 80.0926C22.5789 80.0312 22.4844 79.9984 22.3874 80.0001H19.1863C19.0915 80.0008 19 80.0348 18.9278 80.0961C18.8555 80.1574 18.8071 80.2421 18.791 80.3354L18.4915 82.4556C18.0087 82.6576 17.5546 82.9224 17.141 83.2432L15.1466 82.4406C15.0574 82.4053 14.9586 82.4032 14.8679 82.4345C14.7773 82.4658 14.7009 82.5285 14.6525 82.6113L13.0594 85.3843C13.0118 85.4671 12.9953 85.5641 13.0129 85.658C13.0305 85.7518 13.0809 85.8364 13.1552 85.8963L14.8441 87.2199C14.8086 87.479 14.7896 87.7401 14.7872 88.0015C14.7895 88.262 14.8085 88.5221 14.8441 88.7801L13.1552 90.1037C13.0771 90.1643 13.0242 90.2516 13.0065 90.3489C12.9888 90.4462 13.0076 90.5465 13.0594 90.6308L14.6525 93.3887C14.6993 93.4716 14.7745 93.5348 14.8641 93.5667C14.9538 93.5986 15.052 93.5971 15.1406 93.5624L17.135 92.7569C17.5486 93.0777 18.0027 93.3425 18.4855 93.5445L18.785 95.6646C18.8011 95.758 18.8495 95.8427 18.9218 95.904C18.994 95.9653 19.0855 95.9993 19.1803 96H22.3874C22.4824 95.9999 22.5741 95.9661 22.6465 95.9047C22.7189 95.8433 22.7671 95.7582 22.7827 95.6646L23.0822 93.5445C23.5656 93.3436 24.0199 93.0787 24.4327 92.7569L26.4241 93.5624C26.5151 93.6008 26.617 93.6043 26.7103 93.5722C26.8037 93.5402 26.882 93.4749 26.9302 93.3887L28.5173 90.6308C28.5691 90.547 28.5885 90.4473 28.572 90.3503C28.5554 90.2532 28.504 90.1656 28.4275 90.1037L26.7325 88.7801ZM20.7883 90.8014C20.2346 90.8014 19.6932 90.6372 19.2328 90.3296C18.7724 90.0219 18.4135 89.5846 18.2016 89.073C17.9896 88.5614 17.9342 87.9984 18.0422 87.4553C18.1503 86.9122 18.4169 86.4133 18.8085 86.0217C19.2001 85.6301 19.699 85.3634 20.2421 85.2554C20.7852 85.1474 21.3482 85.2028 21.8598 85.4147C22.3714 85.6267 22.8087 85.9855 23.1164 86.446C23.424 86.9064 23.5883 87.4478 23.5883 88.0015C23.5887 88.3693 23.5165 88.7336 23.3759 89.0735C23.2354 89.4134 23.0291 89.7222 22.7691 89.9822C22.509 90.2423 22.2002 90.4485 21.8603 90.5891C21.5204 90.7297 21.1561 90.8018 20.7883 90.8014Z" stroke="#506677" stroke-width="1.6" stroke-miterlimit="10"/>
</g>
<g opacity="0.7">
<path d="M20.9987 111V112.348C21.9136 112.35 22.8186 112.539 23.6573 112.904C24.496 113.27 25.2507 113.804 25.8745 114.473C26.9466 115.63 27.5738 117.129 27.6444 118.704C27.715 120.279 27.2245 121.829 26.2601 123.076C24.8955 122.31 23.024 121.871 21.0014 121.871C18.9788 121.871 17.1045 122.308 15.7427 123.073C14.9804 122.09 14.5091 120.913 14.3826 119.675C14.256 118.438 14.4791 117.189 15.0266 116.072C15.5741 114.955 16.424 114.014 17.4797 113.355C18.5354 112.697 19.7546 112.348 20.9987 112.348V111ZM20.9987 111C19.4411 110.999 17.9172 111.454 16.6141 112.307C15.3109 113.16 14.2852 114.375 13.6629 115.803C13.0406 117.231 12.8488 118.809 13.1109 120.345C13.3731 121.88 14.0778 123.306 15.1386 124.446C15.2734 124.589 15.4083 124.716 15.5539 124.861C16.5868 123.885 18.639 123.219 21.0014 123.219C23.3638 123.219 25.4052 123.885 26.4462 124.861C27.6234 123.767 28.4437 122.344 28.8002 120.776C29.1567 119.209 29.033 117.571 28.4451 116.075C27.8572 114.579 26.8324 113.295 25.5042 112.389C24.176 111.484 22.606 111 20.9987 111V111Z" fill="#506677"/>
<path d="M21.0014 114.576C21.5246 114.576 22.0361 114.731 22.4712 115.022C22.9062 115.312 23.2453 115.726 23.4456 116.209C23.6458 116.692 23.6982 117.224 23.5961 117.738C23.494 118.251 23.2421 118.722 22.8721 119.092C22.5021 119.462 22.0307 119.714 21.5175 119.816C21.0043 119.918 20.4724 119.866 19.989 119.666C19.5056 119.465 19.0924 119.126 18.8017 118.691C18.511 118.256 18.3558 117.745 18.3558 117.221C18.3558 116.52 18.6346 115.847 19.1307 115.351C19.6268 114.855 20.2997 114.576 21.0014 114.576V114.576ZM21.0014 113.228C20.2113 113.227 19.4389 113.461 18.7817 113.899C18.1246 114.338 17.6123 114.961 17.3096 115.691C17.0068 116.421 16.9274 117.224 17.0812 117.999C17.235 118.774 17.6151 119.486 18.1736 120.045C18.7321 120.603 19.4437 120.984 20.2185 121.138C20.9933 121.293 21.7965 121.214 22.5265 120.912C23.2564 120.609 23.8804 120.098 24.3193 119.441C24.7583 118.784 24.9926 118.012 24.9926 117.221C24.9919 116.163 24.5713 115.148 23.823 114.399C23.0747 113.65 22.06 113.229 21.0014 113.228V113.228ZM21.0014 123.241C22.4738 123.221 23.9342 123.508 25.2893 124.085C24.0918 125.095 22.5761 125.65 21.0095 125.652H20.9906C19.4291 125.65 17.918 125.099 16.7216 124.096C18.073 123.515 19.5308 123.224 21.0014 123.241V123.241ZM21.0014 121.892C17.9244 121.892 15.6968 122.92 14.6019 123.802C14.7368 123.977 14.9876 124.276 15.055 124.354C15.8035 125.186 16.7184 125.852 17.7405 126.307C18.7625 126.763 19.8689 126.999 20.9879 127H21.0068C22.1258 126.999 23.2322 126.763 24.2542 126.307C25.2762 125.852 26.1912 125.186 26.9397 124.354C26.9963 124.284 27.1878 124.063 27.3766 123.815C26.3275 122.825 23.9058 121.884 20.996 121.884L21.0014 121.892Z" fill="#506677"/>
</g>
<path opacity="0.7" d="M30.1333 154.667L24.0667 148.6C24.6667 147.067 24.3333 145.267 23.0667 144C21.7333 142.667 19.7333 142.4 18.1333 143.134L21 146L19 148L16.0667 145.134C15.2667 146.734 15.6 148.734 16.9333 150.067C18.2 151.334 20 151.667 21.5333 151.067L27.6 157.134C27.8667 157.4 28.2667 157.4 28.5333 157.134L30.0667 155.6C30.4 155.334 30.4 154.867 30.1333 154.667Z" stroke="#506677" stroke-width="1.6"/>
<path d="M26.3862 53.6635V60.8359C26.3856 60.8707 26.3778 60.905 26.3634 60.9367C26.3489 60.9683 26.3281 60.9967 26.3022 61.02C26.2764 61.0433 26.246 61.061 26.213 61.072C26.18 61.0831 26.145 61.0872 26.1103 61.0842H15.7103C15.6417 61.0845 15.5754 61.0593 15.5244 61.0134C15.4734 60.9675 15.4413 60.9042 15.4345 60.8359V50.2152C15.4351 50.1804 15.4429 50.1461 15.4573 50.1144C15.4718 50.0828 15.4926 50.0544 15.5185 50.0311C15.5443 50.0078 15.5747 49.9901 15.6077 49.9791C15.6407 49.968 15.6757 49.9639 15.7103 49.9669H22.8828L24.2345 48.6152H15.7103C15.493 48.6078 15.2762 48.6434 15.0726 48.7198C14.869 48.7963 14.6824 48.9121 14.5235 49.0607C14.3647 49.2093 14.2367 49.3878 14.1469 49.5858C14.057 49.7839 14.0071 49.9978 14 50.2152V60.8083C14.0071 61.0257 14.057 61.2396 14.1469 61.4377C14.2367 61.6358 14.3647 61.8142 14.5235 61.9628C14.6824 62.1114 14.869 62.2272 15.0726 62.3037C15.2762 62.3801 15.493 62.4157 15.7103 62.4083H26.0828C26.3001 62.4157 26.5169 62.3801 26.7205 62.3037C26.9241 62.2272 27.1107 62.1114 27.2696 61.9628C27.4284 61.8142 27.5564 61.6358 27.6462 61.4377C27.7361 61.2396 27.786 61.0257 27.7931 60.8083V52.229L26.3862 53.6635Z" fill="#506677"/>
<path d="M28.2868 49.2464C28.3636 49.3243 28.4067 49.4294 28.4067 49.5388C28.4067 49.6482 28.3636 49.7533 28.2868 49.8312L20.1489 57.9691C19.951 58.1478 19.7092 58.2706 19.4482 58.325L18.0689 58.5457C18.0228 58.5589 17.974 58.559 17.9278 58.5461C17.8817 58.5332 17.84 58.5078 17.8074 58.4726C17.7748 58.4375 17.7526 58.394 17.7433 58.347C17.7339 58.3 17.7378 58.2513 17.7544 58.2064L18.0468 56.954C18.1198 56.6954 18.252 56.4574 18.433 56.2588L26.5709 48.1209C26.6489 48.044 26.7539 48.001 26.8634 48.001C26.9728 48.001 27.0778 48.044 27.1558 48.1209L28.2868 49.2464Z" fill="#506677"/>
<g opacity="0.7">
<path d="M24.1398 16.3901C24.276 16.3901 24.3851 16.4992 24.4123 16.6354C24.4123 16.6354 24.4123 16.6354 24.4123 16.6627V27.4566C24.4123 27.5929 24.3033 27.7292 24.1398 27.7292H15.6082C15.4719 27.7292 15.3356 27.5929 15.3629 27.4566V16.6354C15.3629 16.4992 15.4719 16.3629 15.6082 16.3629C15.6082 16.3629 15.6082 16.3629 15.6354 16.3629L24.1398 16.3901ZM24.1398 15H15.6082C14.736 15.0273 14 15.7632 14 16.6354V27.4294C14 28.3289 14.736 29.0648 15.6082 29.0648H24.1398C25.0393 29.0648 25.7752 28.3289 25.7752 27.4294V16.6354C25.7479 15.7632 25.0393 15.0273 24.1398 15Z" fill="#506677"/>
<path d="M26.3203 16.9355H25.7752V18.2984H26.3203C26.4566 18.2984 26.5929 18.4347 26.5929 18.571V29.3649C26.5929 29.5012 26.4838 29.6375 26.3203 29.6375H17.816C17.6797 29.6375 17.5434 29.5012 17.5434 29.3649V29.0924H16.1805V29.3649C16.1805 30.2644 16.9165 31.0004 17.816 31.0004H26.3203C27.2198 31.0004 27.9557 30.2644 27.9557 29.3649V18.5437C27.9285 17.6715 27.2198 16.9355 26.3203 16.9355Z" fill="#506677"/>
<path d="M17.2709 18.1885H22.5316C22.7497 18.1885 22.9405 18.3793 22.9405 18.5973C22.9405 18.8154 22.7497 19.0062 22.5316 19.0062H17.2709C17.0529 19.0062 16.8621 18.8154 16.8621 18.5973C16.8621 18.3793 17.0529 18.1885 17.2709 18.1885Z" fill="#506677"/>
<path d="M17.2709 20.4785H22.5316C22.7497 20.4785 22.9405 20.6693 22.9405 20.8874C22.9405 21.1054 22.7497 21.2962 22.5316 21.2962H17.2709C17.0529 21.2962 16.8621 21.1054 16.8621 20.8874C16.8621 20.6693 17.0529 20.4785 17.2709 20.4785Z" fill="#506677"/>
<path d="M17.2709 22.7959H22.5316C22.7497 22.7959 22.9405 22.9867 22.9405 23.2048C22.9405 23.4228 22.7497 23.6136 22.5316 23.6136H17.2709C17.0529 23.6136 16.8621 23.4228 16.8621 23.2048C16.8621 22.9594 17.0529 22.7959 17.2709 22.7959Z" fill="#506677"/>
<path d="M17.2709 25.085H22.5316C22.7497 25.085 22.9405 25.2758 22.9405 25.4938C22.9405 25.7119 22.7497 25.9027 22.5316 25.9027H17.2709C17.0529 25.9027 16.8621 25.7119 16.8621 25.4938C16.8621 25.2485 17.0529 25.085 17.2709 25.085Z" fill="#506677"/>
</g>
</svg>
