<svg width="41" height="32" viewBox="0 0 41 32" fill="none" xmlns="http://www.w3.org/2000/svg">
<path d="M23.8252 1.31787H16.1564V8.98671H23.8252V1.31787Z" fill="#8ECCFD"/>
<path fill-rule="evenodd" clip-rule="evenodd" d="M14.8608 0.0224609H25.1207V10.2823H14.8608V0.0224609ZM17.4518 2.61347V7.6913H22.5297V2.61347H17.4518Z" fill="#0471FF"/>
<path d="M23.8252 22.8281H16.1564V30.497H23.8252V22.8281Z" fill="#8ECCFD"/>
<path fill-rule="evenodd" clip-rule="evenodd" d="M14.8608 21.5327H25.1207V31.7926H14.8608V21.5327ZM17.4518 24.1237V29.2016H22.5297V24.1237H17.4518Z" fill="#0471FF"/>
<path d="M38.7265 22.8281H31.0576V30.497H38.7265V22.8281Z" fill="#8ECCFD"/>
<path fill-rule="evenodd" clip-rule="evenodd" d="M29.7622 21.5327H40.0221V31.7926H29.7622V21.5327ZM32.3532 24.1237V29.2016H37.431V24.1237H32.3532Z" fill="#0471FF"/>
<path d="M8.98634 22.8281H1.3175V30.497H8.98634V22.8281Z" fill="#8ECCFD"/>
<path fill-rule="evenodd" clip-rule="evenodd" d="M0.0219727 21.5327H10.2818V31.7926H0.0219727V21.5327ZM2.61298 24.1237V29.2016H7.69081V24.1237H2.61298Z" fill="#0471FF"/>
<path fill-rule="evenodd" clip-rule="evenodd" d="M19.9467 8.43952C20.6622 8.43236 21.248 9.00655 21.2551 9.722L21.3798 22.1917C21.387 22.9071 20.8128 23.4929 20.0973 23.5001C19.3819 23.5072 18.7961 22.933 18.7889 22.2176L18.6643 9.74791C18.6571 9.03246 19.2313 8.44667 19.9467 8.43952Z" fill="#0471FF"/>
<path fill-rule="evenodd" clip-rule="evenodd" d="M31.8857 17.3274C31.8923 17.3274 31.908 17.3278 31.9314 17.3289C31.9786 17.3313 32.0545 17.3371 32.1489 17.3509C32.3441 17.3794 32.5828 17.4368 32.8048 17.5432C33.0212 17.6469 33.1961 17.784 33.3201 17.9675C33.4387 18.143 33.5654 18.4405 33.5654 18.9623V22.2044C33.5654 22.9199 34.1455 23.4999 34.861 23.4999C35.5764 23.4999 36.1565 22.9199 36.1565 22.2044V18.9623C36.1565 17.9877 35.9091 17.1708 35.4666 16.5163C35.0295 15.8697 34.4561 15.4613 33.9244 15.2065C33.3982 14.9544 32.8887 14.8404 32.5228 14.787C32.3366 14.7599 32.1787 14.7471 32.0623 14.7412C32.0039 14.7383 31.9553 14.737 31.918 14.7366C31.8994 14.7363 31.8836 14.7363 31.8707 14.7364L31.8623 14.7364H7.50225L7.39143 14.7558L7.61475 16.0319C7.39143 14.7558 7.39082 14.7559 7.39019 14.756L7.38889 14.7563L7.38611 14.7568L7.37982 14.7579L7.36439 14.7608C7.35286 14.763 7.33885 14.7658 7.32252 14.7692C7.28989 14.776 7.24781 14.7853 7.19762 14.7977C7.09755 14.8223 6.96338 14.8595 6.80622 14.9132C6.49593 15.0192 6.07384 15.1973 5.64299 15.4881C4.74698 16.0929 3.82532 17.1922 3.82532 18.9623V22.2044C3.82532 22.9199 4.40533 23.4999 5.12082 23.4999C5.83631 23.4999 6.41633 22.9199 6.41633 22.2044V18.9623C6.41633 18.2385 6.74163 17.8726 7.09259 17.6357C7.28522 17.5056 7.48661 17.4188 7.64393 17.365C7.69072 17.349 7.73155 17.3367 7.76453 17.3274H31.8817L31.8857 17.3274C31.8855 17.3274 31.8858 17.3274 31.8857 17.3274Z" fill="#0471FF"/>
</svg>
