<?xml version="1.0" encoding="utf-8"?>
<!-- Generator: Adobe Illustrator 22.0.1, SVG Export Plug-In . SVG Version: 6.00 Build 0)  -->
<svg version="1.1" id="Layer_1" xmlns="http://www.w3.org/2000/svg" xmlns:xlink="http://www.w3.org/1999/xlink" x="0px" y="0px"
	 viewBox="0 0 24 24" style="enable-background:new 0 0 24 24;" xml:space="preserve">
<style type="text/css">
	.st0{fill:#FFFFFF;}
</style>
<g>
	<path class="st0" d="M18,24.5c-0.9,0-1.7-0.2-2.5-0.7c-6-4-11.3-9.3-15.3-15.3c-1.2-1.8-0.9-4.1,0.6-5.6l1.3-1.3
		c1.3-1.3,3.4-1.3,4.7,0l2.5,2.5c1.3,1.3,1.3,3.4,0,4.7c0,0,0,0,0,0L9.1,8.8C11,11,13,13,15.2,14.9l0.2-0.2c0.6-0.6,1.5-1,2.3-1
		c0,0,0,0,0,0c0.9,0,1.7,0.3,2.3,1l2.5,2.5c1.3,1.3,1.3,3.4,0,4.7l-1.3,1.3C20.3,24.1,19.2,24.5,18,24.5z M4.5,2.5
		c-0.4,0-0.7,0.1-0.9,0.4L2.2,4.2c-0.8,0.8-1,2.1-0.3,3.1c3.8,5.8,8.9,10.9,14.8,14.8c1,0.6,2.3,0.5,3.1-0.3l1.3-1.3
		c0.5-0.5,0.5-1.3,0-1.9l-2.5-2.5c-0.2-0.2-0.6-0.4-0.9-0.4l0,0c-0.4,0-0.7,0.1-0.9,0.4L16,16.9c-0.4,0.4-0.9,0.4-1.3,0.1
		c-2.8-2.3-5.4-4.9-7.7-7.7C6.7,9,6.7,8.4,7.1,8l0.8-0.8c0.5-0.5,0.5-1.3,0-1.9L5.4,2.9C5.2,2.6,4.8,2.5,4.5,2.5z M8.6,7.9L8.6,7.9
		L8.6,7.9z"/>
</g>
</svg>
