<svg width="200" height="200" viewBox="0 0 200 200" fill="none" xmlns="http://www.w3.org/2000/svg">
<rect width="200" height="200" fill="#5435FF"/>
<path d="M100 34.375C87.2524 34.375 74.791 38.2129 64.1918 45.4034C53.5925 52.5939 45.3314 62.814 40.4531 74.7714C35.5748 86.7287 34.2984 99.8863 36.7854 112.58C39.2723 125.274 45.4109 136.934 54.4248 146.086C63.4387 155.238 74.9232 161.47 87.4258 163.995C99.9285 166.52 112.888 165.224 124.665 160.271C136.442 155.318 146.509 146.931 153.591 136.169C160.673 125.408 164.453 112.756 164.453 99.8137L164.453 34.4854L124.741 34.4854L124.741 99.8137C124.741 104.782 123.29 109.638 120.571 113.769C117.853 117.9 113.989 121.12 109.468 123.021C104.947 124.922 99.9726 125.419 95.1733 124.45C90.3741 123.481 85.9657 121.089 82.5056 117.576C79.0455 114.063 76.6892 109.587 75.7346 104.714C74.7799 99.8415 75.2699 94.7909 77.1425 90.201C79.015 85.6111 82.1861 81.688 86.2547 78.9279C90.3233 76.1677 95.1067 74.6945 100 74.6945L124.741 74.6945L124.741 34.375L100 34.375Z" fill="white"/>
</svg>
