<svg xmlns="http://www.w3.org/2000/svg" width="269" height="66" fill="none"><path d="M0 31.094h5.494L.093 64.836h14.053l5.397-33.74h7.066l2.137-11.213-7.49.08c.722-4.25 1.24-6.778 6.393-8.411 1.944-.616 3.422-1.424 5.044-.89l2.34-9.79c-2.88-.903-6.287-1.008-9.275-.748C12.568 1.268 9.006 8.756 7.206 19.968H1.712L0 31.094z" fill="#3a4854"/><path d="M60.161 19.968H74.21l-6.034 38.088a25.03 25.03 0 0 0-.27 3.347 15.607 15.607 0 0 0 .27 3.165H55.118s-.355-1.084-.355-3.165c0-.724 0-1.628.09-2.623h-.09c-3.782 4.34-9.366 6.784-15.129 6.784-10.88-.932-15.549-8.67-15.549-19.253 0-13.747 7.534-26.811 22.843-26.811 4.684 0 10.088 1.292 12.52 5.633.173-1.726.442-3.438.713-5.165zM48.235 30.647c-7.385 0-11.888 7.055-11.888 13.928 0 5.162 2.972 8.956 8.285 8.956 7.384 0 11.888-7.055 11.888-13.93 0-5.16-2.972-8.96-8.285-8.96v.006zM108.602 35.073c-2.251-2.984-6.304-4.34-9.907-4.34-7.384 0-12.518 6.602-12.518 13.748 0 5.695 3.693 9.045 9.277 9.045 3.872 0 8.554-1.629 11.617-4.07l1.261 11.034c-4.324 3.528-11.708 5.066-17.012 5.066-11.259 0-19.363-7.51-19.363-18.905 0-15.196 11.438-27.496 26.838-27.496 4.412 0 8.892.415 12.134 3.851l-2.327 12.067zM133.47 19.968h9.547l-1.891 11.125h-9.456c-.991 6.06-2.793 12.754-2.793 18.904 0 2.623 1.262 3.438 3.693 3.438a11.833 11.833 0 0 0 4.323-.815l-1.081 11.487c-3.332.815-6.664 1.449-10.176 1.449-7.115 0-11.342-3.258-11.342-10.68 0-7.87 2.16-16.195 3.332-23.788H111.6l1.801-11.125h6.034l.9-5.607c.143-1.2.202-2.41.177-3.618a18.796 18.796 0 0 0-.177-2.805h13.96s.271.995.271 2.985a25.01 25.01 0 0 1-.355 4.07l-.741 4.98z" fill="#3a4854"/><path d="M158.429 65.556c-11.528 0-20.443-6.603-20.443-18.814 0-15.74 11.797-27.587 27.738-27.587 11.618 0 20.443 6.694 20.443 18.903.006 15.739-11.707 27.498-27.738 27.498zm5.494-34.824c-7.386 0-11.618 7.235-11.618 13.929 0 5.065 2.702 8.865 8.015 8.865 7.385 0 11.619-7.237 11.619-13.93 0-5.066-2.703-8.864-8.016-8.864zM217.202 33.356h-.725c-1.441-.815-3.241-1.086-4.863-1.086-6.844 0-9.547 6.783-10.356 12.482l-3.153 19.807h-14.05l5.944-37.988c.171-1.259.261-2.527.271-3.798a18.797 18.797 0 0 0-.177-2.805h13.959s.271.995.271 2.985a15.132 15.132 0 0 1-.354 3.348c2.612-4.161 6.665-7.146 11.797-7.146 1.262 0 3.153.178 4.234.813l-2.798 13.388z" fill="#3a4854"/><path d="M228.678 21.608A2 2 0 0 1 230.64 20h35.92a2 2 0 0 1 1.962 2.392l-3.2 16A2 2 0 0 1 263.36 40h-35.92a2 2 0 0 1-1.962-2.392l3.2-16z" fill="#0471ff"/><path d="M243.9 24.96l-3.664 7.552-1.28-7.552h-2.672L238.492 36h2.368l5.712-11.04H243.9zM247.687 24.96L245.943 36h2.512l1.744-11.04h-2.512zM259.516 27.728c0-2.048-1.584-2.768-3.392-2.768h-3.808L250.572 36h2.512l.64-4.08h1.296c2.64.016 4.496-1.424 4.496-4.192zm-2.576.416c0 1.2-.832 1.76-1.952 1.76h-.96l.464-2.928h.96c.784 0 1.488.24 1.488 1.168z" fill="#fff"/></svg>