<svg width="200" height="200" viewBox="0 0 200 200" fill="none" xmlns="http://www.w3.org/2000/svg">
<path d="M0 0H200V200H0V0Z" fill="black"/>
<path d="M79.6875 99.2188C79.6875 79.8025 95.4275 64.0625 114.844 64.0625H150V99.2188C150 118.635 134.26 134.375 114.844 134.375C95.4275 134.375 79.6875 118.635 79.6875 99.2188Z" fill="#FECB42"/>
<path d="M50 99.1562C50 79.74 65.74 64 85.1562 64C104.573 64 120.312 79.74 120.312 99.1562C120.312 118.573 104.573 134.312 85.1562 134.312H50V99.1562Z" fill="#FF5B66"/>
<rect x="64" y="103" width="31" height="8" rx="4" fill="white"/>
<rect x="64" y="87" width="43" height="8" rx="4" fill="white"/>
</svg>
