<svg width="24" height="24" viewBox="0 0 24 24" fill="none" xmlns="http://www.w3.org/2000/svg">
<path fill-rule="evenodd" clip-rule="evenodd" d="M12 0C5.37258 0 0 5.37258 0 12C0 18.6274 5.37258 24 12 24C18.6274 24 24 18.6274 24 12C24 5.37258 18.6274 0 12 0ZM12.6241 16.4223C12.3404 16.8212 11.9291 17 11.3972 17C10.9291 17 10.5461 16.8556 10.2411 16.5117L7.39007 13.3824C7.0922 13.0523 7 12.7909 7 12.4539C7 11.718 7.58156 11.1609 8.3617 11.1609C8.79433 11.1609 9.11347 11.3054 9.38298 11.6011L11.3759 13.7882L15.4326 7.66713C15.7589 7.18569 16.0993 7 16.617 7C17.4043 7 18 7.55708 18 8.28611C18 8.54058 17.9149 8.82944 17.7234 9.11142L12.6241 16.4223Z" fill="#C5D4E0"/>
</svg>
