<svg width="357" height="214" viewBox="0 0 357 214" fill="none" xmlns="http://www.w3.org/2000/svg">
<path d="M28.5 26C28.3962 26.8564 27.0476 34.3506 28.8333 35C30.7887 35.7111 33.0578 35.5733 35.1111 35.5C38.7744 35.3692 42.8633 33.7554 46.5 34.6111C50.4801 35.5476 54.3111 34.5 58.2778 34.5C60.3563 34.5 59.5 29.2122 59.5 27.6111C59.5 26.6898 59.9279 24.4834 59.2222 23.7778C58.431 22.9866 55.6626 23.3965 54.8889 23.8889C54.34 24.2382 50.9051 23.5 49.9444 23.5C47.6852 23.5 45.4259 23.5 43.1667 23.5C40.8254 23.5 36.9898 23.6081 35.1111 25.1111C33.2666 26.5867 29.8082 26 27.5 26" stroke="#3a4854" stroke-width="2" stroke-linecap="round" stroke-linejoin="round"/>
<path d="M28 34.5C30.49 34.1552 33.2899 33.9554 35.625 32.9861C37.2283 32.3206 38.7358 31.4865 40.3333 30.8056C43.0602 29.6433 45.9159 29.2318 48.6944 28.3056C51.2155 27.4652 53.4739 26.2206 55.9444 25.3056C56.5317 25.0881 57.153 24.6157 57.7639 24.5139C58.9409 24.3177 58.8196 24.1181 57.5 24.25" stroke="#3a4854" stroke-width="2" stroke-linecap="round" stroke-linejoin="round"/>
<path d="M28.5 26C30.6326 26.7957 32.8053 27.6235 35.0139 28.1389C36.489 28.4831 37.9524 28.5331 39.4167 28.8056C41.7975 29.2485 44.0283 30 46.4583 30C47.7234 30 48.8594 30.5 50.1389 30.5C51.1141 30.5 52.1016 30.8273 53.0278 31.125C55.0615 31.7787 57.4158 32.0829 59.25 33" stroke="#3a4854" stroke-width="2" stroke-linecap="round" stroke-linejoin="round"/>
<path d="M1.00146 214C1.00146 170.325 1 115.664 1 72.25C1 49.9151 2.99697 27.4602 2.99697 5.63226C9.82295 4.80487 17.1746 4.87769 24.0278 4.97222C36.4625 5.14373 48.8979 5.28934 61.3333 5.47222C70.3254 5.60445 79.5553 5.29365 88.5556 4.97222C97.0326 4.66946 105.715 3.70684 114.167 2.88888C121.069 2.22089 128.297 2.84531 135.111 1.88888C141.699 0.964246 148.91 1.24652 155.556 1.74999C167.876 2.68338 180.341 2.49999 192.694 2.49999C209.034 2.49999 225.319 3.49999 241.667 3.49999C244.135 3.49999 246.773 4.17245 249.139 3.74999C253.301 3.00671 257.88 3.49999 262.083 3.49999H328.833C331.528 3.49999 346 3 349.526 3C349.526 21.9397 350.779 33.8035 349.526 52.6599C348.374 69.9983 351.468 87.0682 351.468 104.362C351.468 125.845 352.901 146.927 353.52 168.364C353.794 177.861 353.99 187.479 354.463 196.971C354.684 201.404 357.808 209.643 354.463 212.999" stroke="#3a4854" stroke-width="2" stroke-linejoin="round"/>
<path d="M304.5 25.5C305.87 25.5 311.05 25.9603 312.389 24.8889C313.676 23.8589 314.848 23.7083 316.5 23.4722C319.47 23.0479 328.5 23.5 325.5 23.5" stroke="#3a4854" stroke-width="2" stroke-linecap="round" stroke-linejoin="round"/>
<path d="M289.5 24C285.024 25.6655 277.396 25.8633 272.722 24.5278C271.073 24.0566 267.871 26 266 26" stroke="#3a4854" stroke-width="2" stroke-linecap="round" stroke-linejoin="round"/>
<path d="M252 26C243.34 27.4138 234.107 26.5 225.5 26.5" stroke="#3a4854" stroke-width="2" stroke-linecap="round" stroke-linejoin="round"/>
<path d="M184.5 28C187.673 28.0622 191.847 29.2427 194.917 28.6944C197.25 28.2778 199.002 28 201.444 28C202.507 28 207.104 27 206 27" stroke="#3a4854" stroke-width="2" stroke-linecap="round" stroke-linejoin="round"/>
<path d="M141.5 28.5C147.309 28.5 152.934 27.5 158.722 27.5C159.315 27.5 164.735 26.8824 163.5 27.5" stroke="#3a4854" stroke-width="2" stroke-linecap="round" stroke-linejoin="round"/>
<path d="M35 67C39.4317 67 44.0352 66.038 48.3333 66.6111C50.6844 66.9246 53.6285 67.6525 55.9722 67.4722C57.6495 67.3432 59.6159 66.3921 61.1111 67.3889C62.577 68.3662 65.139 66.7298 66.7778 67.0278C68.5361 67.3475 69.9382 67.5 71.7778 67.5C73.2858 67.5 74.4118 67.7578 75.8056 67.9722C77.9448 68.3014 79.8935 67.5 82 67.5C86.1722 67.5 90.2936 68 94.5 68C97.2952 68 100.499 69.1578 103.222 68.25C104.942 67.6767 107.088 68 108.889 68C111.725 68 114.191 67.5 117 67.5C118.475 67.5 119.795 66.8301 121.278 67.0278C121.905 67.1114 125.087 68.1739 124.5 67" stroke="#3a4854" stroke-width="2" stroke-linecap="round" stroke-linejoin="round"/>
<path d="M35 109.5C53.4436 109.5 71.9838 110 90.4722 110C93.5597 110 96.5772 109.569 99.6111 109.5C102.531 109.434 106.272 108.814 109.056 109.278C111.532 109.691 113.875 109 116.389 109C118.655 109 122.017 109.675 124.111 109.111C126.752 108.4 129.812 108.254 132.528 108.028C135.806 107.755 140.167 107.189 143.389 107.611C147.6 108.163 152.001 107.528 155.778 107.972C158.716 108.318 162.41 108.444 165.25 108.444C167.92 108.444 171.383 109 174 109" stroke="#3a4854" stroke-width="2" stroke-linecap="round" stroke-linejoin="round"/>
<path d="M36 119C47.213 119 58.1333 118 69.3889 118C81.7596 118 93.9489 118.5 106.389 118.5C116.427 118.5 126.313 118 136.444 118C138.296 118 140.148 118 142 118C143.863 118 145.371 119 147.25 119C148.162 119 153.55 120.099 153 119" stroke="#3a4854" stroke-width="2" stroke-linecap="round" stroke-linejoin="round"/>
<path d="M35.75 135.25C36.0909 135.686 36.8186 136.805 37.4444 136.944C38.1329 137.097 38.815 135.148 39 134.639C39.1849 134.13 40.8823 132.368 40.75 132.5" stroke="#3a4854" stroke-width="2" stroke-linecap="round" stroke-linejoin="round"/>
<path d="M44 135.5C47.1369 135.147 50.6188 134.75 53.75 134.75C54.9137 134.75 56.0629 134.5 57.25 134.5" stroke="#3a4854" stroke-width="2" stroke-linecap="round" stroke-linejoin="round"/>
<path d="M36.75 145.25C37.3404 145.697 38.0959 145.977 38.625 146.389C39.3947 146.988 39.25 146.378 39.25 145.625C39.25 144.848 39.243 142.378 40 142" stroke="#3a4854" stroke-width="2" stroke-linecap="round" stroke-linejoin="round"/>
<path d="M44 144.75C47.2513 144.317 50.4832 144.75 53.75 144.75C56.4318 144.75 59.0752 145 61.75 145C63.3753 145 64.9822 145.25 66.625 145.25C67.2339 145.25 70.587 145.25 68.5 145.25" stroke="#3a4854" stroke-width="2" stroke-linecap="round" stroke-linejoin="round"/>
<path d="M35.75 154.5C36.2807 154.707 37.3529 154.879 37.75 155.375C37.8913 155.552 38.4597 156.163 38.5139 156.028C39.06 154.663 39.4069 152.993 39.6944 151.556C39.8407 150.824 39.5805 150.129 40 149.5" stroke="#3a4854" stroke-width="2" stroke-linecap="round" stroke-linejoin="round"/>
<path d="M43.75 155C49.9475 155 56.1649 154.75 62.375 154.75C66.8047 154.75 71.2093 155.5 75.6528 155.5C77.1315 155.5 78.5353 155.25 80.0278 155.25C83.1064 155.25 92.3286 154.75 89.25 154.75" stroke="#3a4854" stroke-width="2" stroke-linecap="round" stroke-linejoin="round"/>
<path d="M43.75 164C46.5357 164.544 55.0882 163.5 52.25 163.5" stroke="#3a4854" stroke-width="2" stroke-linecap="round" stroke-linejoin="round"/>
<path d="M35.5 164.75C35.9095 165.073 38.25 167.318 38.25 165.764C38.25 165.022 38.3144 164.337 38.5139 163.639C38.6617 163.122 39.6506 160.949 39.5 161.25" stroke="#3a4854" stroke-width="2" stroke-linecap="round" stroke-linejoin="round"/>
<path d="M107.5 135.75C109.216 137.05 108.889 135.907 109.556 134.5C109.74 134.11 110.071 133.858 110.25 133.5" stroke="#3a4854" stroke-width="2" stroke-linecap="round" stroke-linejoin="round"/>
<path d="M107.25 145.25C107.744 146.412 108.131 147.467 109 146.25C109.414 145.67 109.602 144.824 110.25 144.5" stroke="#3a4854" stroke-width="2" stroke-linecap="round" stroke-linejoin="round"/>
<path d="M107.25 154.25C108.184 155.846 108.326 156.763 109.375 154.875C109.728 154.239 110 152.925 110 152.25" stroke="#3a4854" stroke-width="2" stroke-linecap="round" stroke-linejoin="round"/>
<path d="M107 163.75C107.706 164.721 108.75 167.068 108.75 164.5C108.75 163.255 109.776 162.948 110.25 162" stroke="#3a4854" stroke-width="2" stroke-linecap="round" stroke-linejoin="round"/>
<path d="M114.75 135.5C121.151 134.375 127.759 135.648 134.25 134.875C141.289 134.037 148.476 135.25 155.5 135.25" stroke="#3a4854" stroke-width="2" stroke-linecap="round" stroke-linejoin="round"/>
<path d="M114.25 144.5C118.282 144.819 122.415 144.959 126.444 144.556C129.825 144.218 133.169 144.503 136.556 144.306C139.767 144.118 143.073 144 146.278 144C147.559 144 148.873 144.093 150.139 143.875C152.616 143.448 155.131 144 157.611 144C158.939 144 160.785 143.19 162 144" stroke="#3a4854" stroke-width="2" stroke-linecap="round" stroke-linejoin="round"/>
<path d="M115 155.5C120.272 155.5 125.406 155.44 130.625 154.986C132.443 154.828 134.184 154.23 136.056 154.556C137.538 154.813 139.002 154.5 140.5 154.5" stroke="#3a4854" stroke-width="2" stroke-linecap="round" stroke-linejoin="round"/>
<path d="M114 164.75C117.182 164.75 120.321 165 123.556 165C125.545 165 127.776 165.621 129.75 165.194C130.683 164.993 131.858 164.811 132.806 165.056C133.914 165.342 135.045 164.974 136.194 165C137.342 165.025 142.985 166.031 143.5 165" stroke="#3a4854" stroke-width="2" stroke-linecap="round" stroke-linejoin="round"/>
<path d="M36.2382 94.2222C33.8239 95.5188 35.5332 93.7078 36.4049 92.8056C37.8175 91.3433 36.669 92.3887 35.9049 92.9444C35.776 93.0382 40.9629 89.2537 38.0438 92.3056C36.6769 93.7345 37.5503 93.1735 38.9326 92.3889C40.17 91.6866 41.3051 90.8654 42.4882 90.0833C43.1931 89.6174 42.8214 89.9357 42.4604 90.2639C38.9057 93.4954 43.4006 90.0487 43.1826 90.7222C43.0924 91.0012 41.713 92.7138 41.4049 92.6111C40.8699 92.4328 42.3727 92.03 42.8771 91.7778C43.8273 91.3027 44.8132 90.8998 45.7521 90.4028C47.024 89.7294 43.6607 92.3842 42.5438 93.2917C42.0621 93.6831 40.5326 94.6783 41.1271 94.5C42.4822 94.0935 43.934 92.7668 45.0438 91.9444C45.2903 91.7617 48.7405 89.0499 47.4326 90.3889C47.0335 90.7975 46.69 91.2552 46.2938 91.6667C45.7404 92.2413 47.4033 91.2213 47.4326 91.2083C48.0487 90.9368 51.6343 89.2043 49.6826 90.7222C49.2525 91.0568 48.7757 91.3285 48.3493 91.6667C48.1361 91.8358 49.8952 90.9724 50.141 90.8472C51.1986 90.3085 54.219 88.8301 51.5576 90.5C50.6078 91.096 49.6477 91.6758 48.7104 92.2917C47.4295 93.1334 50.5993 91.635 50.7104 91.5833C51.7574 91.0962 52.8361 90.639 53.8493 90.0833C53.8751 90.0692 54.3849 89.6519 54.1826 89.9722C53.6174 90.8672 52.6257 91.3625 51.9049 92.0833C51.0027 92.9855 54.1997 90.9568 55.2799 90.2778C57.2488 89.0402 53.6943 90.6625 53.266 90.8611C52.9149 91.0239 50.5326 92.5956 51.4882 91.9167C52.1934 91.4156 53.7081 89.75 54.5993 89.75C54.8205 89.75 54.8078 91.4588 54.8632 91.6806C55.1793 92.945 57.5696 90.5324 58.016 90.1944C58.8177 89.5874 59.3861 88.8897 58.9326 90.25C58.4928 91.5695 56.958 95.4259 57.6549 94.2222C58.1318 93.3984 58.4048 92.4694 58.8771 91.6389C59.251 90.9813 59.8483 90.3981 60.1549 89.7083C60.4107 89.1326 58.7927 90.9156 59.2382 91.3611C59.4606 91.5835 59.6859 90.9173 59.9326 90.7222C60.0337 90.6423 61.154 89.764 61.0438 90.3889C60.9774 90.7648 59.5964 92.3481 60.0438 91.9167C60.2717 91.6969 62.1564 89.8933 62.4326 90.1389C62.807 90.4716 61.6409 91.7919 61.5299 92.0694C61.2439 92.7843 62.6568 91.0202 63.2243 90.5C64.3523 89.466 64.5226 89.8562 63.9326 91.0833C63.2414 92.5211 63.6352 91.7653 64.4049 91.1111C64.689 90.8696 67.9604 89.0751 67.9604 89.9167C67.9604 91.1123 67.2684 92.4389 66.8771 93.5417C66.3406 95.0536 66.9035 93.7017 67.3493 93C67.5779 92.6402 70.1496 89.1013 70.6826 89.5278C71.1078 89.8679 69.119 92.7419 68.9049 93.0417C67.9689 94.3521 70.8786 91.9213 71.1271 91.7361C72.1358 90.9845 74.5598 89.2568 73.2382 91.6667C73.0599 91.9917 71.556 94.3689 72.4604 93.1389C72.8438 92.6176 74.7406 89 75.3493 89C75.4077 89 74.2038 92.3118 74.0993 92.5556C73.0659 94.9669 75.2274 92.8353 76.0299 92.2083C76.2958 92.0006 79.5632 89.9262 79.3215 90.375C79.2089 90.5841 78.23 92.137 78.7382 91.2222C79.125 90.5259 80.2833 88.4967 80.1271 89.2778C79.7532 91.1471 78.4787 93.2774 77.6549 95C77.3437 95.6506 78.0041 94.8334 78.0715 94.7639C79.0131 93.7929 80.0013 92.8701 80.9326 91.8889C83.0423 89.6662 81.6829 90.755 81.7382 91.9167C81.764 92.4583 86.8234 90.1108 85.2938 92.1111C84.5264 93.1146 86.0411 91.5793 86.5715 91.25C89.0078 89.7378 84.3387 93.8752 87.0993 91.6667C89.531 89.7213 84.5507 94.9231 87.1132 92.5833C87.6612 92.083 88.1909 91.6761 87.6549 92.5694C87.2317 93.2747 89.2026 91.9305 89.8215 91.3889C90.4315 90.8552 87.2444 93.3524 87.9188 92.9028C88.635 92.4253 89.069 91.1658 89.9882 91.4722" stroke="#3a4854" stroke-width="2" stroke-linecap="round" stroke-linejoin="round"/>
<path d="M96.75 87.5C97.1354 87.5604 102.906 87.5476 102.944 87.6111C103.219 88.069 105.334 87.75 106.097 87.75C106.599 87.75 106.478 91.0812 106.5 91.5C106.511 91.7162 106.996 93.0783 106.319 92.8889C105.539 92.6704 104.311 92.9444 103.5 92.9444C102.129 92.9444 101.373 92.9444 100 92.9444C99.37 92.9444 97.5379 93.0803 97.0556 92.6944C96.3617 92.1394 97.25 91.61 97.25 90.875C97.25 89.715 97 88.6387 97 87.5" stroke="#3a4854" stroke-width="2" stroke-linecap="round" stroke-linejoin="round"/>
<path d="M35.5 177.25C36.0106 179.931 36.0278 182.503 36.0278 185.111C36.0278 185.537 36 186.191 36 186.694C36 187.693 36.7912 187.684 37.6111 187.806C40.3204 188.207 43.1501 188.25 45.8889 188.25C50.7177 188.25 55.6764 188.603 60.5 188C66.1098 187.299 71.8076 187.25 77.3056 187.25C79.2184 187.25 81.0814 187 82.875 187C84.5607 187 83.25 184.726 83.25 183.625C83.25 182.126 83.5 180.706 83.5 179.25C83.5 179.001 83.6555 177.527 83.5972 177.514C82.6901 177.312 81.741 177.652 80.8611 177.736C77.8487 178.023 74.6867 177.797 71.6944 177.75C68.8819 177.706 66.2335 177.75 63.4167 177.75C62.141 177.75 60.9468 177.85 59.7222 177.986C58.068 178.17 56.5151 178 54.875 178C52.0454 178 49.3514 178.252 46.5417 178.486C45.6411 178.561 44.7617 178.5 43.8889 178.306C42.7678 178.056 41.7396 178.55 40.6389 178.306C39.6288 178.081 38.6331 178.2 37.6111 177.944C36.7393 177.726 35.6501 177.5 34.75 177.5" stroke="#3a4854" stroke-width="2" stroke-linecap="round" stroke-linejoin="round"/>
<path d="M41.25 184C42.0637 183.376 43.4839 182.25 44.625 182.25C45.8578 182.25 43.98 184.543 44.2917 184.361C45.2056 183.828 46.4827 183.276 47.5556 183.25C48.221 183.234 48.9413 183.339 49.5833 183.125C50.1498 182.936 49.7703 183.756 49.75 184.111C49.6907 185.148 50.2099 184.79 50.875 184.125C51.3534 183.647 52.21 184 53.25 184C54.741 184 56.2095 183.824 57.6944 183.694C58.9737 183.583 60.4363 183.08 61.7222 183.264C62.0583 183.312 61.9676 183.889 62.0556 183.889C62.4974 183.889 63.224 183.145 63.5833 182.917C63.7307 182.823 63.9325 183 64.125 183C64.5412 183 64.4352 182.722 64.75 182.556C65.5263 182.145 65.4626 182.876 66.0556 182.639C66.9463 182.283 66.6407 182.095 67.5139 181.986C67.9556 181.931 69.936 181.339 70.25 181.889C70.7497 182.763 73.6631 182.11 73.8056 182.056C75.2721 181.492 73.072 183.79 74.75 183C75.3282 182.728 76.3674 182.25 77 182.25" stroke="#3a4854" stroke-width="2" stroke-linecap="round" stroke-linejoin="round"/>
<path d="M241 132.847C242.961 130.894 245.274 128.774 246.2 126.111C246.774 124.461 247.489 120.988 249.052 119.988C249.989 119.388 250.746 118.134 251.549 117.334C252.974 115.916 254.346 114.349 255.612 112.788C256.859 111.252 258 110.021 258.799 108.298C259.936 105.845 262.509 103.11 264.484 101.284C266.02 99.8641 267.203 98.0759 268.677 96.6081C270.537 94.7567 269.431 97.6148 269.013 98.7791C267.983 101.651 266.979 104.654 266.329 107.63C265.952 109.356 265.475 111.061 264.894 112.733C264.337 114.334 264.259 115.982 263.738 117.594C263.502 118.325 261.698 125.062 263.142 124.757C264.659 124.436 266.131 124.526 267.69 124.497C268.943 124.474 270.117 123.863 271.343 123.829C273.102 123.78 274.427 123.161 276.151 123.161C277.548 123.161 278.379 122.813 277.829 124.237C276.994 126.397 276.04 125.833 274.623 127.243C272.539 129.318 271.583 132.429 270.019 134.851C267.669 138.491 265.252 141.472 262.154 144.555C259.003 147.693 257.168 151.927 253.581 154.705C252.469 155.566 251.561 156.638 250.226 157.229C249.878 157.382 249.164 158.652 249.555 157.563C249.781 156.933 249.951 156.031 250.039 155.373C250.653 150.795 251.156 146.285 252.667 141.939C253.238 140.298 254.572 139.075 255.351 137.523C256.16 135.912 256.512 133.996 257.439 132.439C257.748 131.92 258.902 130.843 258.296 130.843C257.361 130.843 256.345 131.177 255.351 131.177C253.7 131.177 251.708 131.12 250.133 131.585C248.783 131.983 247.045 132.513 245.697 132.513C244.78 132.513 241.985 132.556 241.671 133.181" stroke="#3a4854" stroke-width="2" stroke-linecap="round" stroke-linejoin="round"/>
<path d="M246.279 131.932C247.451 128.819 248.092 125.528 249.1 122.371C250.439 122.371 250.549 122.609 251.773 122.675C252.806 122.73 253.856 122.675 254.89 122.675C257.274 122.675 259.55 122.371 261.934 122.371C263.955 122.371 266.565 122.902 268.467 122.304C269.359 122.023 273.727 121.602 273.993 122.826C274.083 123.237 273.235 125.435 273.004 125.862C272.27 127.211 272.087 129.146 271.601 130.633C271.306 131.539 272.131 134.206 271.601 134.748C271.087 135.273 267.582 134.815 266.768 134.815H259.608C257.142 134.815 254.818 134.208 252.366 134.208C250.594 134.208 248.913 134.815 247.088 134.815C245.754 134.815 245.863 133.037 246.279 131.932Z" fill="white" stroke="#3a4854" stroke-width="2" stroke-linecap="round" stroke-linejoin="round"/>
<path d="M251.78 127.894C252.757 127.498 254.229 126.486 253.553 127.951C253.426 128.225 253.251 128.587 253.072 128.826C253 128.924 252.448 129.107 252.533 129.281C252.63 129.481 258.1 127.207 258.775 127.121C260.118 126.949 262.37 126.978 263.764 127.165C263.905 127.184 263.6 128.582 263.452 128.871C263.189 129.385 264.883 128.839 265.192 129.171C265.687 129.7 265.208 129.609 266.336 129.49C267.008 129.419 267.179 128.826 267.637 129.137" stroke="#3a4854" stroke-width="2" stroke-linecap="round" stroke-linejoin="round"/>
<path d="M223.375 81C221.596 81.2846 219.524 82.0336 218.688 83.7986C218.488 84.2199 218.035 84.482 218 84.9722C217.974 85.3404 217.726 85.8704 217.556 86.1875C217.158 86.9257 216.764 87.7324 216.653 88.5555C216.51 89.6152 216.936 90.6163 216.993 91.6667C217.034 92.4212 217.073 93.1716 217.222 93.9167C217.49 95.2534 218.005 96.6845 219.326 97.2014C222.301 98.3655 225.797 98 228.944 98C230.183 98 231.125 97.3392 231.75 96.3125C232.21 95.5576 232.344 94.634 232.625 93.8055C232.951 92.845 233.179 92.0644 233.347 91.0555C233.717 88.8363 234.296 86.1708 232.563 84.4375C231.82 83.695 230.766 83.2148 229.931 82.5555C229.111 81.9085 228.143 81.1871 227.056 81.125C226.013 81.0654 225.019 80.75 223.944 80.75C223.314 80.75 222.42 80.6025 221.875 80.875" stroke="#3a4854" stroke-width="2" stroke-linecap="round" stroke-linejoin="round"/>
<path d="M224.625 90.125C225.257 89.4927 225.929 88.9226 226.681 88.4444C227.06 88.2027 227.442 87.8651 227.5 87.375C227.542 87.0159 228.115 86.25 228.5 86.25" stroke="#3a4854" stroke-width="2" stroke-linecap="round" stroke-linejoin="round"/>
<path d="M222.5 91C221.657 91.5018 221 92.1137 221 93.125C221 93.6974 222.1 94.2055 222.625 93.9722C223.077 93.7713 223.674 92.5798 223.472 92.125C223.316 91.7743 223.259 90.2546 223 90.125" stroke="#3a4854" stroke-width="2" stroke-linecap="round" stroke-linejoin="round"/>
<path d="M259.313 60.375C258.041 60.6171 257.002 61.1722 255.872 61.7778C255.548 61.9512 255.187 62.0563 254.917 62.2986C254.534 62.6416 254.165 63.0043 253.781 63.3472C253.058 63.9948 252.375 65.0164 252.375 66.0278C252.375 66.8799 252.313 67.7558 252.313 68.6181C252.313 69.8227 252.281 71.0058 252.504 72.191C252.624 72.8333 253.026 73.4356 253.389 73.9653C253.853 74.6421 254.398 75.3328 255.038 75.8507C255.7 76.3862 256.369 76.8943 257.097 77.3403C257.566 77.6273 258.065 77.8714 258.611 77.9514C258.856 77.9873 259.19 78.1434 259.438 78.0903C259.981 77.9738 260.557 78 261.111 78C261.84 78 262.565 77.9375 263.292 77.9375C264.987 77.9375 266.198 76.962 267.326 75.7986C267.489 75.6312 267.674 75.4343 267.799 75.2361C268.002 74.9134 268.278 74.6633 268.486 74.3507C268.597 74.1845 268.643 73.938 268.691 73.7465C268.815 73.2495 269.149 72.7946 269.34 72.3194C269.826 71.1112 269.938 69.8203 269.938 68.5347C269.938 68.027 269.875 67.5368 269.875 67.0312C269.875 66.3668 269.865 65.6431 269.764 64.9861C269.591 63.8602 268.907 62.6158 268.201 61.7153C267.89 61.3176 267.272 60.8269 266.813 60.5972C266.106 60.2439 265.28 59.9587 264.5 59.8403C264.001 59.7645 263.31 59.7229 262.816 59.7847C262.466 59.8285 262.087 59.9375 261.736 59.9375C260.927 59.9375 260.123 60 259.313 60" stroke="#3a4854" stroke-width="2" stroke-linecap="round" stroke-linejoin="round"/>
<path d="M260.312 65.25C259.97 65.3168 259.731 65.4041 259.424 65.5139C259.119 65.6226 258.716 65.73 258.465 65.9236C257.827 66.4158 257.75 66.9698 257.75 67.7535C257.75 68.3392 257.921 69.0949 258.406 69.4722C258.779 69.7624 259.193 69.9821 259.632 70.1528C260.016 70.302 260.191 70.1446 260.562 70.125C261.234 70.0896 261.874 69.9512 262.139 69.2361C262.423 68.4679 263 67.8402 263 66.9757C263 66.6726 262.917 66.2702 262.715 66.0312C262.603 65.898 262.446 65.8543 262.312 65.75C262.128 65.6058 261.872 65.7045 261.694 65.5938C261.526 65.4882 261.232 65.4839 261.035 65.4028C260.79 65.302 260.656 65.25 260.375 65.25" stroke="#3a4854" stroke-width="2" stroke-linecap="round" stroke-linejoin="round"/>
<path d="M262 69.5C262.507 69.6782 263.091 69.8309 263.549 70.125C263.839 70.3117 263.994 70.5841 264.253 70.809C264.5 71.0227 264.67 71.1153 264.75 71.434C264.802 71.6426 264.975 71.912 265.125 72.0625" stroke="#3a4854" stroke-width="2" stroke-linecap="round" stroke-linejoin="round"/>
<path d="M295.625 99.7262C296.896 99.4841 297.936 98.9289 299.066 98.3234C299.39 98.15 299.751 98.0449 300.021 97.8026C300.403 97.4596 300.773 97.0969 301.156 96.754C301.88 96.1064 302.562 95.0848 302.562 94.0734C302.562 93.2213 302.625 92.3454 302.625 91.4831C302.625 90.2785 302.656 89.0954 302.434 87.9102C302.314 87.2679 301.912 86.6656 301.549 86.1359C301.084 85.4591 300.539 84.7684 299.899 84.2505C299.238 83.715 298.569 83.2069 297.84 82.7609C297.371 82.4739 296.873 82.2298 296.326 82.1498C296.081 82.1139 295.748 81.9578 295.5 82.0109C294.956 82.1274 294.381 82.1012 293.826 82.1012C293.097 82.1012 292.373 82.1637 291.646 82.1637C289.951 82.1637 288.739 83.1392 287.611 84.3026C287.449 84.47 287.264 84.6669 287.139 84.8651C286.935 85.1878 286.66 85.4379 286.451 85.7505C286.341 85.9167 286.294 86.1632 286.246 86.3547C286.122 86.8516 285.788 87.3066 285.597 87.7818C285.111 88.99 285 90.2809 285 91.5665C285 92.0742 285.062 92.5644 285.062 93.0699C285.062 93.7344 285.072 94.4581 285.174 95.1151C285.347 96.241 286.03 97.4854 286.736 98.3859C287.048 98.7836 287.666 99.2743 288.125 99.504C288.832 99.8573 289.657 100.143 290.437 100.261C290.937 100.337 291.627 100.378 292.121 100.316C292.472 100.273 292.851 100.164 293.201 100.164C294.011 100.164 294.814 100.101 295.625 100.101" stroke="#3a4854" stroke-width="2" stroke-linecap="round" stroke-linejoin="round"/>
<path d="M289.875 90.75C290.554 90.0907 291.032 89.3434 291.681 88.6944C291.986 88.3885 292.24 87.9423 292.625 87.75" stroke="#3a4854" stroke-width="2" stroke-linecap="round" stroke-linejoin="round"/>
<path d="M290.125 90.875C290.949 91.6995 292.5 92.1234 292.5 93.375" stroke="#3a4854" stroke-width="2" stroke-linecap="round" stroke-linejoin="round"/>
<path d="M295.625 92.875C296.378 92.427 297.202 92.0505 297.931 91.5694C298.32 91.3123 299.269 90.8037 298.688 90.375C298.341 90.1194 297.95 89.9432 297.618 89.6736C296.905 89.0945 296.307 88.0287 295.5 87.625" stroke="#3a4854" stroke-width="2" stroke-linecap="round" stroke-linejoin="round"/>
<path d="M204.5 119.875C203.392 119.875 202.377 120.093 201.313 120.257C200.534 120.377 198.778 121.174 198.5 122.007C198.254 122.746 197.934 123.534 197.597 124.236C196.906 125.677 196.557 126.971 196.278 128.542C195.879 130.785 196.344 132.939 197.438 134.882C198.144 136.138 199.137 136.371 200.208 137.181C201.089 137.846 202.621 138.571 203.75 138.625C204.488 138.66 205.182 138.875 205.931 138.875C206.852 138.875 208.06 139.103 208.931 138.812C210.385 138.328 211.11 138.155 211.868 136.701C212.57 135.357 213.157 133.817 213.472 132.333C213.859 130.515 214.375 128.828 214.375 126.931C214.375 125.5 214.271 123.771 213.188 122.687C212.499 121.999 211.117 121.118 210.118 120.993C209.622 120.931 208.779 120.585 208.306 120.375C207.758 120.132 207.101 120.142 206.528 119.972C206.174 119.867 205.292 119.563 204.972 119.653C204.608 119.755 204.257 119.875 203.875 119.875" stroke="#3a4854" stroke-width="2" stroke-linecap="round" stroke-linejoin="round"/>
<path d="M204.625 132.125C204.805 131.205 204.463 130.16 205.312 129.688C206.28 129.15 206.375 128.416 206.375 127.333C206.375 126.469 205.779 125.096 204.812 126.063C204.168 126.707 203.815 127.343 203 127.75" stroke="#3a4854" stroke-width="2" stroke-linecap="round" stroke-linejoin="round"/>
<path d="M204.75 135C204.676 134.987 204.168 134.83 204.125 135C204.107 135.073 204.17 135.19 204.25 135.194C204.49 135.209 204.535 134.896 204.312 135.069C203.779 135.484 204.851 135 204.125 135" stroke="#3a4854" stroke-width="2" stroke-linecap="round" stroke-linejoin="round"/>
<path d="M226.375 153.875C225.57 153.568 224.763 153.625 223.917 153.625C223.252 153.625 222.464 153.516 221.813 153.688C220.904 153.927 220.135 154.292 219.299 154.688C218.299 155.161 217.215 155.891 216.75 156.938C216.39 157.747 216.255 158.613 215.938 159.438C215.621 160.26 215.491 161.381 215.382 162.257C215.205 163.677 215.552 165.329 215.875 166.701C216.247 168.281 217.113 169.885 218.695 170.563C219.674 170.982 220.597 171.493 221.618 171.813C222.228 172.003 223.055 172.25 223.695 172.25C224.704 172.25 225.584 172.429 226.583 172.153C227.02 172.032 227.535 172.081 227.931 171.903C228.689 171.562 229.329 171.216 230.028 170.75C231.299 169.902 231.984 168.893 232.5 167.431C232.943 166.175 233.952 164.828 234 163.472C234.038 162.401 234.401 161.036 234.097 159.972C233.682 158.518 232.582 158.332 231.597 157.347C230.936 156.686 230.485 156.145 229.611 155.708C228.906 155.356 228.22 155.204 227.472 154.972C227.289 154.915 226.579 154.852 226.5 154.694C226.298 154.289 225.969 153.75 225.5 153.75" stroke="#3a4854" stroke-width="2" stroke-linecap="round" stroke-linejoin="round"/>
<path d="M227 163.125C225.775 163.155 225.25 164.133 225.25 165.25C225.25 166.361 226.639 166.5 227.528 166.5C228.797 166.5 228.365 165.09 228.125 164.25C228.01 163.846 227.366 163.868 227.306 163.597C227.286 163.507 227.125 162.958 227.125 163.125" stroke="#3a4854" stroke-width="2" stroke-linecap="round" stroke-linejoin="round"/>
<path d="M227.095 163.247C227.095 162.158 227.095 161.068 227.095 159.979C227.095 159.708 227.19 159.223 227.088 158.967C227.065 158.91 226.728 159.241 226.682 159.274C226.558 159.363 226.304 159.526 226.226 159.658C225.857 160.286 225.136 160.577 224.667 161.125C224.197 161.673 223.524 162.233 222.994 162.734C222.555 163.149 221.805 163.694 221.52 164.208C221.205 164.775 220.413 164.913 221.683 164.913C222.489 164.913 223.154 164.785 223.955 164.785C224.5 164.785 224.988 164.8 224.916 164.657" stroke="#3a4854" stroke-width="2" stroke-linecap="round" stroke-linejoin="round"/>
<path d="M259.312 172.312C258.925 172.373 258.487 172.5 258.097 172.5C257.498 172.5 257.001 172.697 256.413 172.781C256.028 172.836 255.661 172.83 255.312 173.014C254.987 173.185 254.685 173.57 254.396 173.806C254.192 173.971 254.007 174.163 253.805 174.333C253.546 174.552 253.435 174.888 253.16 175.09C252.969 175.23 252.828 175.587 252.653 175.688C252.357 175.857 251.977 176.48 251.844 176.778C251.737 177.015 251.591 177.234 251.5 177.479C251.396 177.76 251.405 178.086 251.344 178.378C251.138 179.365 251.125 180.446 251.125 181.451C251.125 182.139 251.052 182.868 251.139 183.549C251.222 184.202 251.399 184.718 251.736 185.299C251.958 185.681 252.157 186.071 252.396 186.444C252.7 186.921 252.965 187.498 253.319 187.934C253.662 188.356 254.178 188.603 254.469 189.056C254.628 189.304 255.141 189.415 255.41 189.5C255.818 189.629 256.245 189.641 256.663 189.722C257.26 189.837 257.836 189.926 258.444 189.938C258.698 189.942 258.935 190.048 259.191 190.066C259.838 190.112 260.475 190.125 261.125 190.125C261.816 190.125 262.454 189.848 263.125 189.736C263.667 189.646 264.055 189.255 264.5 188.969C265.045 188.618 265.532 188.135 266 187.691C266.43 187.283 266.92 186.951 267.285 186.479C267.644 186.014 267.532 185.425 267.687 184.903C267.895 184.207 268.048 183.504 268.139 182.785C268.194 182.346 268.171 181.914 268.191 181.472C268.206 181.142 268.305 180.815 268.312 180.486C268.325 179.925 268.246 179.377 268.187 178.819C268.124 178.22 267.911 177.697 267.805 177.118C267.604 176.009 266.74 175.683 265.819 175.222C265.196 174.91 264.842 174.31 264.333 173.861C263.896 173.475 263.424 173.169 262.969 172.812C262.872 172.737 262.787 172.652 262.694 172.573C262.621 172.51 262.541 172.569 262.451 172.535C262.214 172.444 262.078 172.336 261.816 172.281C261.615 172.239 261.425 172.203 261.222 172.174C260.617 172.087 259.987 172.062 259.375 172.062" stroke="#3a4854" stroke-width="2" stroke-linecap="round" stroke-linejoin="round"/>
<path d="M258.687 183.625C259.889 183.465 261.076 183.479 262.264 183.236C262.519 183.184 262.654 183.165 262.875 183.049C263.089 182.936 263.482 182.749 263.611 182.549C263.927 182.057 263.808 181.599 263.625 181.097C263.505 180.767 263.127 180.625 262.816 180.625C262.594 180.625 261.822 180.679 261.75 180.535C261.614 180.263 261.737 179.946 261.674 179.66C261.608 179.366 261.452 178.933 261.201 178.75C260.905 178.533 260.549 178.062 260.156 178.062C259.825 178.062 259.526 178.051 259.219 178.187C258.752 178.395 258.509 178.807 258.219 179.226C258.1 179.398 258.062 179.643 258.062 179.847C258.062 179.899 258.062 180.361 258.028 180.337C257.602 180.033 256.975 179.914 256.465 180.049C255.631 180.269 255.549 181.145 255.628 181.903C255.699 182.571 256.066 183.512 256.781 183.681C256.925 183.714 257.269 183.732 257.406 183.656C257.677 183.506 258.258 183.75 258.562 183.75" stroke="#3a4854" stroke-width="2" stroke-linecap="round" stroke-linejoin="round"/>
<path d="M314.363 119.239C313.255 119.239 312.24 119.457 311.176 119.62C310.397 119.74 308.641 120.537 308.363 121.37C308.117 122.11 307.798 122.897 307.461 123.6C306.769 125.04 306.42 126.335 306.141 127.905C305.742 130.149 306.208 132.302 307.301 134.245C308.007 135.501 309 135.735 310.072 136.544C310.953 137.21 312.484 137.935 313.613 137.989C314.351 138.024 315.045 138.239 315.794 138.239C316.716 138.239 317.923 138.466 318.794 138.176C320.248 137.691 320.973 137.518 321.731 136.065C322.433 134.72 323.02 133.18 323.336 131.697C323.722 129.879 324.238 128.191 324.238 126.294C324.238 124.863 324.134 123.134 323.051 122.051C322.362 121.363 320.981 120.481 319.981 120.357C319.486 120.295 318.642 119.949 318.169 119.739C317.621 119.495 316.965 119.506 316.391 119.336C316.037 119.231 315.155 118.927 314.836 119.016C314.471 119.118 314.12 119.239 313.738 119.239" stroke="#3a4854" stroke-width="2" stroke-linecap="round" stroke-linejoin="round"/>
<path d="M310.375 131.875C311.033 132.744 311.775 132.768 312.681 132.25C313.211 131.947 313.346 130.645 313.375 130.125C313.422 129.276 313.615 128.221 313.312 127.375C313.096 126.769 313.125 126.023 313.125 125.375" stroke="#3a4854" stroke-width="2" stroke-linecap="round" stroke-linejoin="round"/>
<path d="M318.5 126C317.347 125.775 316.106 125.91 315.743 127.181C315.633 127.565 315.427 128.014 315.653 128.375C315.904 128.777 316.536 129.089 316.938 129.313C317.404 129.572 318.25 129.796 318.25 130.444C318.25 131.204 318.84 131.699 318 132.097C317.247 132.454 316.071 132.375 315.25 132.375" stroke="#3a4854" stroke-width="2" stroke-linecap="round" stroke-linejoin="round"/>
<path d="M291.75 153.125C290.978 153.125 290.088 152.963 289.375 153.319C288.941 153.536 288.547 153.851 288.097 154.028C287.273 154.352 286.434 155.368 285.875 156.007C285.166 156.818 284.844 157.979 284.569 159C284.09 160.78 283.943 162.758 284.444 164.542C285.347 167.752 287.782 170.75 291.187 171.507C292.5 171.799 293.718 171.984 295.062 171.75C295.593 171.658 296.182 171.485 296.653 171.222C296.939 171.062 297.29 171.029 297.562 170.861C297.809 170.71 297.913 170.457 298.181 170.319C300.973 168.883 302.612 165.632 303.187 162.639C303.393 161.569 303.027 160.469 302.868 159.437C302.706 158.385 302.037 157.123 301.194 156.472C300.306 155.787 299.793 154.844 298.75 154.347C298.326 154.145 297.838 154.121 297.431 153.931C296.598 153.542 295.585 153.172 294.681 153C293.093 152.698 291.689 152.134 290.062 152.562C289.617 152.68 288.5 152.928 288.5 153.5" stroke="#3a4854" stroke-width="2" stroke-linecap="round" stroke-linejoin="round"/>
<path d="M292.25 177.625C292.803 176.68 293.494 175.792 294.187 174.944C294.596 174.445 294.423 174.312 294.944 174.972C295.363 175.502 295.784 176.035 296.194 176.562C296.736 177.259 297.5 177.217 298.305 177.028C299.139 176.832 300.015 176.875 300.903 176.875C301.621 176.875 302.75 176.922 302.75 177.937C302.75 178.707 303.25 179.516 303.25 180.306C303.25 182.074 301.497 182.375 300.097 182.375C299.493 182.375 298.889 182.25 298.278 182.25C297.86 182.25 296.828 181.935 296.5 182.181C296.37 182.278 295.803 182.245 295.597 182.25C294.982 182.264 294.384 182.375 293.757 182.375C293.004 182.375 291.762 183 291 183C290.283 183 289.675 182.412 288.931 182.375C287.824 182.32 288.125 181.281 288.125 180.312C288.125 179.964 288.583 178.842 288.93 178.743C289.116 178.69 289.506 178.337 289.625 178.187C289.841 177.917 290.472 178.029 290.722 177.847C291.121 177.557 291.881 177.665 292.375 177.5" stroke="#3a4854" stroke-width="2" stroke-linecap="round" stroke-linejoin="round"/>
<path d="M291.875 180.438C292.173 180.438 292.484 180.465 292.778 180.406C292.921 180.378 293.077 180.312 293.222 180.312C293.603 180.312 293.986 180.083 294.375 180.062C294.903 180.035 295.398 180.062 295.924 180.062C296.191 180.062 296.452 180 296.722 180C297.049 180 297.37 180.062 297.688 180.062C297.803 180.062 297.89 179.988 298 180.003C298.162 180.027 298.301 180.062 298.469 180.062C298.563 180.062 298.896 180.062 298.875 180.062" stroke="#3a4854" stroke-width="2" stroke-linecap="round" stroke-linejoin="round"/>
<path d="M292.438 166.125C291.714 166.111 290.742 165.549 290.472 164.847C290.391 164.635 290.238 164.428 290.125 164.229C290.007 164.02 290.016 163.731 289.997 163.497C289.95 162.933 290.02 162.32 289.924 161.764C289.832 161.239 289.91 160.869 290.094 160.378C290.322 159.77 290.827 159.531 291.382 159.264C292.324 158.81 293.48 158.438 294.535 158.438C294.949 158.438 295.484 158.534 295.847 158.722C296.149 158.878 296.334 159.077 296.569 159.312C296.809 159.552 297.239 159.766 297.389 160.076C297.62 160.555 297.898 160.883 297.941 161.438C297.995 162.136 298.003 162.791 297.924 163.493C297.856 164.096 297.734 164.602 297.392 165.104C297.015 165.659 296.047 166.025 295.41 166.139C294.361 166.326 293.236 166.3 292.188 166.125" stroke="#3a4854" stroke-width="2" stroke-linecap="round" stroke-linejoin="round"/>
</svg>
