<svg width="507" height="434" viewBox="0 0 507 434" fill="none" xmlns="http://www.w3.org/2000/svg">
<rect x="1" width="506" height="434" fill="white"/>
<path d="M74.0526 326.925L26.9614 412.875H479.037V132.833L422.527 206.677L365.199 194.168L275.93 262.363L224.335 235.73L133.838 349.119L74.0526 326.925Z" fill="url(#paint0_linear)"/>
<path fill-rule="evenodd" clip-rule="evenodd" d="M485.072 125.005C485.975 124.935 486.765 125.598 486.836 126.487L487.995 140.962C488.066 141.85 487.392 142.627 486.489 142.697C485.586 142.767 484.797 142.104 484.725 141.215L483.877 130.623L423.544 200.133L367.571 192.035L279.618 257.54L225.748 234.252L133.944 342.312L78.3947 320.613L25.8102 408.958L22.98 407.328L76.9876 316.591L132.95 338.452L224.812 230.323L279.174 253.823L366.688 188.646L422.227 196.682L481.383 128.528L470.616 129.362C469.714 129.432 468.924 128.769 468.853 127.881C468.782 126.992 469.456 126.216 470.359 126.146L485.072 125.005Z" fill="#0471FF"/>
<ellipse cx="23.9746" cy="407.489" rx="5.97456" ry="5.38542" fill="#0471FF"/>
<ellipse cx="77.2467" cy="318.875" rx="5.47668" ry="5.875" fill="#0471FF"/>
<ellipse cx="134.008" cy="339.927" rx="5.47668" ry="5.38542" fill="#0471FF"/>
<ellipse cx="225.683" cy="232.708" rx="5.97456" ry="5.875" fill="#0471FF"/>
<ellipse cx="279.387" cy="255.229" rx="5.47668" ry="5.875" fill="#0471FF"/>
<ellipse cx="367.015" cy="190.604" rx="5.47668" ry="5.875" fill="#0471FF"/>
<ellipse cx="423.772" cy="197.948" rx="5.47668" ry="5.38542" fill="#0471FF"/>
<path fill-rule="evenodd" clip-rule="evenodd" d="M506.54 50.5984H0V48.8572H506.54V50.5984Z" fill="#99ADC0" fill-opacity="0.2"/>
<path d="M191.937 29V20.5449H189.886L187.484 26.6152H187.437L185.035 20.5449H182.984V29H184.56V23.293H184.607L186.904 29H188.017L190.314 23.293H190.361V29H191.937Z" fill="#3A4854"/>
<path d="M200.32 29H202.201L199.26 20.5449H197.18L194.244 29H196.061L196.705 26.9492H199.676L200.32 29ZM198.17 22.1621H198.211L199.295 25.625H197.086L198.17 22.1621Z" fill="#3A4854"/>
<path d="M206.202 29V23.4629H206.255L210.21 29H211.674V20.5449H209.981V26.0527H209.934L205.985 20.5449H204.508V29H206.202Z" fill="#3A4854"/>
<path d="M220.064 29H221.945L219.003 20.5449H216.923L213.987 29H215.804L216.448 26.9492H219.419L220.064 29ZM217.913 22.1621H217.954L219.038 25.625H216.829L217.913 22.1621Z" fill="#3A4854"/>
<path d="M231.4 25.4492V24.4941H227.838V25.7832H229.677L229.672 25.918C229.636 26.9668 228.834 27.6758 227.679 27.6758C226.273 27.6758 225.383 26.5566 225.383 24.7227C225.383 22.9238 226.22 21.8633 227.615 21.8633C228.57 21.8633 229.291 22.3906 229.549 23.2754H231.324C231.072 21.5645 229.584 20.3984 227.609 20.3984C225.125 20.3984 223.578 22.0391 223.578 24.7461C223.578 27.4941 225.125 29.1406 227.65 29.1406C230.006 29.1406 231.4 27.752 231.4 25.4492Z" fill="#3A4854"/>
<path d="M239.614 27.5352H235.782V25.4023H239.397V24.043H235.782V22.0039H239.614V20.5449H234.012V29H239.614V27.5352Z" fill="#3A4854"/>
<path d="M252.062 29H253.978L252.402 27.3535C252.859 26.7207 253.117 25.8301 253.117 24.7988V24.2539H251.693V24.6992C251.693 25.4258 251.593 25.9355 251.388 26.2988L249.783 24.5645C250.955 23.9258 251.494 23.2344 251.494 22.3672C251.494 21.2305 250.521 20.4336 249.138 20.4336C247.761 20.4336 246.742 21.2656 246.742 22.3965C246.742 23.0176 247.029 23.5449 247.79 24.3301C247.767 24.3418 247.497 24.4883 247.41 24.5352C246.331 25.127 245.845 25.8242 245.845 26.7852C245.845 28.2207 246.999 29.1523 248.792 29.1523C249.818 29.1523 250.785 28.8359 251.412 28.2969L252.062 29ZM248.992 23.7676C248.417 23.2109 248.206 22.877 248.206 22.4844C248.206 21.957 248.599 21.5703 249.144 21.5703C249.695 21.5703 250.07 21.9453 250.07 22.4844C250.07 22.9941 249.759 23.3691 248.992 23.7676ZM248.341 25.3496C248.394 25.3203 248.511 25.2559 248.576 25.2266L250.515 27.3242C250.187 27.6816 249.578 27.9102 248.968 27.9102C248.06 27.9102 247.445 27.4062 247.445 26.6504C247.445 26.1289 247.703 25.7539 248.341 25.3496Z" fill="#3A4854"/>
<path d="M268.788 29V20.5449H266.737L264.335 26.6152H264.288L261.885 20.5449H259.835V29H261.411V23.293H261.458L263.754 29H264.868L267.165 23.293H267.211V29H268.788Z" fill="#3A4854"/>
<path d="M277.171 29H279.052L276.11 20.5449H274.03L271.095 29H272.911L273.556 26.9492H276.526L277.171 29ZM275.021 22.1621H275.062L276.146 25.625H273.937L275.021 22.1621Z" fill="#3A4854"/>
<path d="M283.129 29V20.5449H281.359V29H283.129Z" fill="#3A4854"/>
<path d="M287.668 29V23.4629H287.721L291.676 29H293.141V20.5449H291.447V26.0527H291.401L287.451 20.5449H285.975V29H287.668Z" fill="#3A4854"/>
<path d="M299.784 29V22.0039H302.233V20.5449H295.571V22.0039H298.014V29H299.784Z" fill="#3A4854"/>
<path d="M309.04 29H310.921L307.98 20.5449H305.9L302.964 29H304.781L305.425 26.9492H308.396L309.04 29ZM306.89 22.1621H306.931L308.015 25.625H305.806L306.89 22.1621Z" fill="#3A4854"/>
<path d="M314.998 29V20.5449H313.228V29H314.998Z" fill="#3A4854"/>
<path d="M319.538 29V23.4629H319.59L323.545 29H325.01V20.5449H323.317V26.0527H323.27L319.321 20.5449H317.844V29H319.538Z" fill="#3A4854"/>
<defs>
<linearGradient id="paint0_linear" x1="252.999" y1="132.833" x2="252.999" y2="412.875" gradientUnits="userSpaceOnUse">
<stop stop-color="white" stop-opacity="0.08"/>
<stop offset="1" stop-color="white" stop-opacity="0"/>
</linearGradient>
</defs>
</svg>
