<svg width="573" height="398" viewBox="0 0 573 398" fill="none" xmlns="http://www.w3.org/2000/svg">
<path d="M67.5 280.5L10 387H562V40L493 131.5L423 116L314 200.5L251 167.5L140.5 308L67.5 280.5Z" fill="url(#paint0_linear)"/>
<path d="M38.6621 371V365.806L43.1357 358.317H40.9561L37.7217 363.916H37.6602L34.4258 358.317H32.2285L36.6934 365.806V371H38.6621Z" fill="#0471ff"/>
<path d="M51.1584 358.106C47.5021 358.106 45.217 360.629 45.217 364.663C45.217 368.697 47.5021 371.211 51.1584 371.211C54.8059 371.211 57.0998 368.697 57.0998 364.663C57.0998 360.629 54.8059 358.106 51.1584 358.106ZM51.1584 359.838C53.5666 359.838 55.0783 361.701 55.0783 364.663C55.0783 367.616 53.5666 369.479 51.1584 369.479C48.7502 369.479 47.2297 367.616 47.2297 364.663C47.2297 361.701 48.7502 359.838 51.1584 359.838Z" fill="#0471ff"/>
<path d="M62.7494 358.317H60.7807V366.544C60.7807 369.277 62.7318 371.211 65.9135 371.211C69.0951 371.211 71.0463 369.277 71.0463 366.544V358.317H69.0863V366.377C69.0863 368.188 67.935 369.462 65.9135 369.462C63.892 369.462 62.7494 368.188 62.7494 366.377V358.317Z" fill="#0471ff"/>
<path d="M77.1529 366.122H79.86L82.4439 371H84.7115L81.8727 365.814C83.4195 365.296 84.3336 363.907 84.3336 362.193C84.3336 359.829 82.7076 358.317 80.0973 358.317H75.1842V371H77.1529V366.122ZM77.1529 359.97H79.86C81.3805 359.97 82.3033 360.831 82.3033 362.246C82.3033 363.696 81.4332 364.531 79.9127 364.531H77.1529V359.97Z" fill="#0471ff"/>
<path d="M38.2842 397V386.014H42.1602V384.317H32.4307V386.014H36.3154V397H38.2842Z" fill="#0471ff"/>
<path d="M47.5373 392.122H50.2443L52.8283 397H55.0959L52.257 391.814C53.8039 391.296 54.718 389.907 54.718 388.193C54.718 385.829 53.092 384.317 50.4816 384.317H45.5686V397H47.5373V392.122ZM47.5373 385.97H50.2443C51.7648 385.97 52.6877 386.831 52.6877 388.246C52.6877 389.696 51.8176 390.531 50.2971 390.531H47.5373V385.97Z" fill="#0471ff"/>
<path d="M66.6869 397H68.7699L64.1908 384.317H62.0639L57.4848 397H59.5326L60.6928 393.572H65.5268L66.6869 397ZM63.0834 386.427H63.1361L65.0258 391.99H61.1938L63.0834 386.427Z" fill="#0471ff"/>
<path d="M73.9361 397V391.691H79.3854V390.03H73.9361V386.014H79.8863V384.317H71.9674V397H73.9361Z" fill="#0471ff"/>
<path d="M85.3689 397V391.691H90.8182V390.03H85.3689V386.014H91.3191V384.317H83.4002V397H85.3689Z" fill="#0471ff"/>
<path d="M96.8018 397V384.317H94.833V397H96.8018Z" fill="#0471ff"/>
<path d="M106.292 397.211C109.21 397.211 111.196 395.673 111.68 393.054H109.72C109.324 394.583 108.068 395.488 106.301 395.488C103.972 395.488 102.495 393.616 102.495 390.654C102.495 387.719 103.989 385.829 106.292 385.829C108.015 385.829 109.368 386.893 109.72 388.519H111.671C111.337 385.873 109.166 384.106 106.292 384.106C102.75 384.106 100.483 386.638 100.483 390.654C100.483 394.697 102.733 397.211 106.292 397.211Z" fill="#0471ff"/>
<path fill-rule="evenodd" clip-rule="evenodd" d="M568.843 30.0063C569.944 29.9195 570.907 30.7419 570.994 31.843L572.408 49.7874C572.494 50.8886 571.672 51.8516 570.571 51.9383C569.47 52.0251 568.507 51.2027 568.42 50.1016L567.385 36.9707L493.803 123.14L425.539 113.101L318.271 194.304L252.571 165.436L140.607 299.393L72.8581 272.493L8.7259 382.011L5.27417 379.989L71.142 267.508L139.393 294.607L251.429 160.565L317.729 189.697L424.461 108.899L492.197 118.861L564.344 34.3732L551.213 35.4077C550.112 35.4945 549.149 34.6721 549.062 33.571C548.975 32.4698 549.797 31.5068 550.899 31.4201L568.843 30.0063Z" fill="#0471ff"/>
<circle cx="7" cy="381" r="7" fill="#0471ff"/>
<circle cx="72" cy="271" r="7" fill="#0471ff"/>
<circle cx="141" cy="297" r="7" fill="#0471ff"/>
<circle cx="253" cy="164" r="7" fill="#0471ff"/>
<circle cx="318" cy="192" r="7" fill="#0471ff"/>
<circle cx="425" cy="112" r="7" fill="#0471ff"/>
<circle cx="494" cy="121" r="7" fill="#0471ff"/>
<defs>
<linearGradient id="paint0_linear" x1="286" y1="40" x2="286" y2="387" gradientUnits="userSpaceOnUse">
<stop stop-color="#3a4854" stop-opacity="0.08"/>
<stop offset="1" stop-color="#3a4854" stop-opacity="0"/>
</linearGradient>
</defs>
</svg>
