<svg width="96" height="172" viewBox="0 0 96 172" fill="none" xmlns="http://www.w3.org/2000/svg">
<path d="M93.9195 82.8168C97.9689 77.5858 95.9442 73.2469 89.2628 73.2469H68.5707C67.1188 73.3378 65.6665 73.0746 64.3385 72.4797C63.0106 71.8849 61.8467 70.9761 60.9467 69.8316C60.0467 68.6871 59.4375 67.3409 59.1714 65.9087C58.9053 64.4764 58.9904 63.001 59.4191 61.6089L73.7133 5.60864C75.333 -0.879441 73.3084 -1.8932 69.2186 3.37836L2.08049 89.0616C-1.96885 94.2926 0.0558147 98.6315 6.73723 98.6315H27.4294C28.8813 98.5405 30.3335 98.8038 31.6615 99.3986C32.9894 99.9935 34.1533 100.902 35.0533 102.047C35.9533 103.191 36.5625 104.537 36.8286 105.97C37.0947 107.402 37.0096 108.877 36.5809 110.269L22.2867 166.391C20.667 172.879 22.6916 173.893 26.7815 168.622L93.9195 82.8168Z" fill="#3A4854"/>
<path d="M13.3148 68.6078C13.5018 67.6729 14.3226 67 15.276 67H87.5604C88.8225 67 89.7691 68.1546 89.5216 69.3922L82.6852 103.574C82.4983 104.509 81.6774 105.182 80.7241 105.182H8.43965C7.17755 105.182 6.23097 104.027 6.47848 102.79L13.3148 68.6078Z" fill="white"/>
<path d="M42.0811 76.469L35.0862 90.8865L32.6426 76.469H27.5415L31.7568 97.5454H36.2775L47.1822 76.469H42.0811Z" fill="#0471FF"/>
<path d="M49.3111 76.469L45.9816 97.5454H50.7773L54.1067 76.469H49.3111Z" fill="#0471FF"/>
<path d="M71.8933 81.7534C71.8933 77.8435 68.8693 76.469 65.4176 76.469H58.1478L54.8184 97.5454H59.614L60.8358 89.7563H63.31C68.35 89.7868 71.8933 87.0377 71.8933 81.7534ZM66.9754 82.5475C66.9754 84.8385 65.3871 85.9075 63.2489 85.9075H61.4162L62.302 80.3177H64.1347C65.6314 80.3177 66.9754 80.7759 66.9754 82.5475Z" fill="#0471FF"/>
</svg>
