<svg width="424" height="318" viewBox="0 0 424 318" fill="none" xmlns="http://www.w3.org/2000/svg">
<path d="M418.952 0H5.04762C2.2599 0 0 2.10612 0 4.70414V313.296C0 315.894 2.2599 318 5.04762 318H418.952C421.74 318 424 315.894 424 313.296V4.70414C424 2.10612 421.74 0 418.952 0Z" fill="white"/>
<rect x="289" y="267" width="100" height="6" rx="3" fill="#506677"/>
<rect x="289" y="278" width="100" height="3" rx="1.5" fill="#506677"/>
<rect x="289" y="285" width="100" height="3" rx="1.5" fill="#506677"/>
<rect x="289" y="292" width="86" height="3" rx="1.5" fill="#506677"/>
<path fill-rule="evenodd" clip-rule="evenodd" d="M307 241H291V257H307V241ZM289 239V259H309V239H289Z" fill="#506677"/>
<path fill-rule="evenodd" clip-rule="evenodd" d="M290.293 256.293L306.293 240.293L307.707 241.707L291.707 257.707L290.293 256.293Z" fill="#506677"/>
<path fill-rule="evenodd" clip-rule="evenodd" d="M307.707 256.293L291.707 240.293L290.293 241.707L306.293 257.707L307.707 256.293Z" fill="#506677"/>
<rect x="163" y="267" width="100" height="6" rx="3" fill="#506677"/>
<rect x="163" y="278" width="100" height="3" rx="1.5" fill="#506677"/>
<rect x="163" y="285" width="100" height="3" rx="1.5" fill="#506677"/>
<rect x="163" y="292" width="86" height="3" rx="1.5" fill="#506677"/>
<path fill-rule="evenodd" clip-rule="evenodd" d="M181 241H165V257H181V241ZM163 239V259H183V239H163Z" fill="#506677"/>
<path fill-rule="evenodd" clip-rule="evenodd" d="M164.293 256.293L180.293 240.293L181.707 241.707L165.707 257.707L164.293 256.293Z" fill="#506677"/>
<path fill-rule="evenodd" clip-rule="evenodd" d="M181.707 256.293L165.707 240.293L164.293 241.707L180.293 257.707L181.707 256.293Z" fill="#506677"/>
<rect x="35" y="267" width="100" height="6" rx="3" fill="#506677"/>
<rect x="35" y="278" width="100" height="3" rx="1.5" fill="#506677"/>
<rect x="35" y="285" width="100" height="3" rx="1.5" fill="#506677"/>
<rect x="35" y="292" width="86" height="3" rx="1.5" fill="#506677"/>
<path fill-rule="evenodd" clip-rule="evenodd" d="M53 241H37V257H53V241ZM35 239V259H55V239H35Z" fill="#506677"/>
<path fill-rule="evenodd" clip-rule="evenodd" d="M36.2929 256.293L52.2929 240.293L53.7071 241.707L37.7071 257.707L36.2929 256.293Z" fill="#506677"/>
<path fill-rule="evenodd" clip-rule="evenodd" d="M53.7071 256.293L37.7071 240.293L36.2929 241.707L52.2929 257.707L53.7071 256.293Z" fill="#506677"/>
<path d="M46 145.5C46 144.672 46.6716 144 47.5 144H80.5C81.3284 144 82 144.672 82 145.5V145.5C82 146.328 81.3284 147 80.5 147H47.5C46.6716 147 46 146.328 46 145.5V145.5Z" fill="#506677"/>
<path d="M46 156.5C46 155.672 46.6716 155 47.5 155H80.5C81.3284 155 82 155.672 82 156.5V156.5C82 157.328 81.3284 158 80.5 158H47.5C46.6716 158 46 157.328 46 156.5V156.5Z" fill="#506677"/>
<path d="M46 167.5C46 166.672 46.6716 166 47.5 166H80.5C81.3284 166 82 166.672 82 167.5V167.5C82 168.328 81.3284 169 80.5 169H47.5C46.6716 169 46 168.328 46 167.5V167.5Z" fill="#506677"/>
<circle cx="38" cy="145" r="3" fill="#506677"/>
<circle cx="38" cy="156" r="3" fill="#506677"/>
<circle cx="38" cy="167" r="3" fill="#506677"/>
<path d="M115 145.5C115 144.672 115.672 144 116.5 144H149.5C150.328 144 151 144.672 151 145.5V145.5C151 146.328 150.328 147 149.5 147H116.5C115.672 147 115 146.328 115 145.5V145.5Z" fill="#506677"/>
<path d="M115 156.5C115 155.672 115.672 155 116.5 155H149.5C150.328 155 151 155.672 151 156.5V156.5C151 157.328 150.328 158 149.5 158H116.5C115.672 158 115 157.328 115 156.5V156.5Z" fill="#506677"/>
<path d="M115 167.5C115 166.672 115.672 166 116.5 166H149.5C150.328 166 151 166.672 151 167.5V167.5C151 168.328 150.328 169 149.5 169H116.5C115.672 169 115 168.328 115 167.5V167.5Z" fill="#506677"/>
<path d="M109 145C109 146.657 107.657 148 106 148C104.343 148 103 146.657 103 145C103 143.343 104.343 142 106 142C107.657 142 109 143.343 109 145Z" fill="#506677"/>
<circle cx="106" cy="156" r="3" fill="#506677"/>
<circle cx="106" cy="167" r="3" fill="#506677"/>
<path d="M35 182H84V192H35V182Z" fill="#506677"/>
<path d="M38.2163 109.086H38.2505L39.3887 113H39.9697L41.313 108.068H40.6704L39.6826 112.094H39.6553L38.5444 108.068H37.9224L36.8115 112.094H36.7842L35.7964 108.068H35.1538L36.4971 113H37.0781L38.2163 109.086Z" fill="#506677"/>
<path d="M43.8354 111.981C43.7363 112.316 43.4048 112.545 42.9536 112.545C42.3145 112.545 41.9146 112.098 41.9146 111.417V111.383H44.4644V111.158C44.4644 110.081 43.873 109.384 42.9126 109.384C41.9316 109.384 41.3027 110.132 41.3027 111.236C41.3027 112.354 41.9214 113.062 42.9399 113.062C43.7158 113.062 44.3174 112.604 44.4199 111.981H43.8354ZM42.9023 109.9C43.4629 109.9 43.8354 110.324 43.8491 110.918H41.918C41.9556 110.327 42.3452 109.9 42.9023 109.9Z" fill="#506677"/>
<path d="M46.833 113.062C47.7422 113.062 48.3438 112.34 48.3438 111.223C48.3438 110.108 47.7388 109.384 46.8433 109.384C46.3408 109.384 45.9272 109.633 45.7051 110.04H45.6914V108.068H45.0967V113H45.6641V112.398H45.6777C45.9067 112.809 46.3135 113.062 46.833 113.062ZM46.7168 109.907C47.3457 109.907 47.7354 110.416 47.7354 111.223C47.7354 112.036 47.3457 112.539 46.7168 112.539C46.1152 112.539 45.688 112.016 45.688 111.223C45.688 110.433 46.1152 109.907 46.7168 109.907Z" fill="#506677"/>
<path d="M51.4233 113.062C51.9019 113.062 52.353 112.795 52.5649 112.388H52.5786V113H53.1426V110.542C53.1426 109.835 52.6162 109.384 51.7822 109.384C50.9414 109.384 50.415 109.855 50.374 110.471H50.9482C51.0234 110.122 51.3105 109.907 51.7686 109.907C52.2607 109.907 52.5479 110.167 52.5479 110.601V110.898L51.5293 110.956C50.709 111.004 50.2407 111.387 50.2407 111.995C50.2407 112.634 50.7158 113.062 51.4233 113.062ZM51.5566 112.556C51.1294 112.556 50.8457 112.333 50.8457 111.995C50.8457 111.66 51.1191 111.448 51.5977 111.417L52.5479 111.359V111.65C52.5479 112.163 52.1172 112.556 51.5566 112.556Z" fill="#506677"/>
<path d="M55.624 109.384C55.1079 109.384 54.6943 109.647 54.4756 110.047H54.4619V109.445H53.8979V114.186H54.4927V112.422H54.5063C54.7183 112.812 55.1284 113.062 55.6377 113.062C56.5332 113.062 57.145 112.337 57.145 111.223C57.145 110.108 56.5298 109.384 55.624 109.384ZM55.5078 112.539C54.8994 112.539 54.4893 112.016 54.4893 111.223C54.4893 110.433 54.8994 109.907 55.5078 109.907C56.1401 109.907 56.5366 110.419 56.5366 111.223C56.5366 112.029 56.1401 112.539 55.5078 112.539Z" fill="#506677"/>
<path d="M59.4727 109.384C58.9565 109.384 58.543 109.647 58.3242 110.047H58.3105V109.445H57.7466V114.186H58.3413V112.422H58.355C58.5669 112.812 58.9771 113.062 59.4863 113.062C60.3818 113.062 60.9937 112.337 60.9937 111.223C60.9937 110.108 60.3784 109.384 59.4727 109.384ZM59.3564 112.539C58.748 112.539 58.3379 112.016 58.3379 111.223C58.3379 110.433 58.748 109.907 59.3564 109.907C59.9888 109.907 60.3853 110.419 60.3853 111.223C60.3853 112.029 59.9888 112.539 59.3564 112.539Z" fill="#506677"/>
<path d="M61.626 113H62.2207V108.068H61.626V113Z" fill="#506677"/>
<path d="M63.3521 108.813C63.5605 108.813 63.7246 108.646 63.7246 108.44C63.7246 108.232 63.5605 108.068 63.3521 108.068C63.147 108.068 62.9795 108.232 62.9795 108.44C62.9795 108.646 63.147 108.813 63.3521 108.813ZM63.0547 113H63.6494V109.445H63.0547V113Z" fill="#506677"/>
<path d="M67.4058 110.611C67.3306 109.972 66.8008 109.384 65.9121 109.384C64.9312 109.384 64.2783 110.102 64.2783 111.223C64.2783 112.368 64.9346 113.062 65.9189 113.062C66.7256 113.062 67.3203 112.562 67.4126 111.855H66.8281C66.7256 112.282 66.4077 112.539 65.9224 112.539C65.3071 112.539 64.8833 112.05 64.8833 111.223C64.8833 110.416 65.3003 109.907 65.9155 109.907C66.4385 109.907 66.7393 110.225 66.8247 110.611H67.4058Z" fill="#506677"/>
<path d="M68.9985 113.062C69.4771 113.062 69.9282 112.795 70.1401 112.388H70.1538V113H70.7178V110.542C70.7178 109.835 70.1914 109.384 69.3574 109.384C68.5166 109.384 67.9902 109.855 67.9492 110.471H68.5234C68.5986 110.122 68.8857 109.907 69.3438 109.907C69.8359 109.907 70.123 110.167 70.123 110.601V110.898L69.1045 110.956C68.2842 111.004 67.8159 111.387 67.8159 111.995C67.8159 112.634 68.291 113.062 68.9985 113.062ZM69.1318 112.556C68.7046 112.556 68.4209 112.333 68.4209 111.995C68.4209 111.66 68.6943 111.448 69.1729 111.417L70.123 111.359V111.65C70.123 112.163 69.6924 112.556 69.1318 112.556Z" fill="#506677"/>
<path d="M71.6646 108.587V109.445H71.1348V109.934H71.6646V112.077C71.6646 112.761 71.9175 113.027 72.5703 113.027C72.7104 113.027 72.8745 113.017 72.9463 113V112.501C72.9053 112.508 72.7686 112.518 72.7002 112.518C72.396 112.518 72.2593 112.371 72.2593 112.046V109.934H72.9497V109.445H72.2593V108.587H71.6646Z" fill="#506677"/>
<path d="M73.9136 108.813C74.1221 108.813 74.2861 108.646 74.2861 108.44C74.2861 108.232 74.1221 108.068 73.9136 108.068C73.7085 108.068 73.541 108.232 73.541 108.44C73.541 108.646 73.7085 108.813 73.9136 108.813ZM73.6162 113H74.2109V109.445H73.6162V113Z" fill="#506677"/>
<path d="M76.4873 113.062C77.4683 113.062 78.1313 112.354 78.1313 111.223C78.1313 110.088 77.4683 109.384 76.4873 109.384C75.5029 109.384 74.8398 110.088 74.8398 111.223C74.8398 112.354 75.5029 113.062 76.4873 113.062ZM76.4873 112.539C75.8584 112.539 75.4448 112.06 75.4448 111.223C75.4448 110.385 75.8584 109.907 76.4873 109.907C77.1162 109.907 77.5264 110.385 77.5264 111.223C77.5264 112.06 77.1162 112.539 76.4873 112.539Z" fill="#506677"/>
<path d="M78.7329 113H79.3276V110.908C79.3276 110.307 79.6934 109.91 80.2539 109.91C80.8008 109.91 81.0708 110.225 81.0708 110.799V113H81.6655V110.693C81.6655 109.886 81.2144 109.384 80.4351 109.384C79.8848 109.384 79.5054 109.63 79.3071 110.013H79.2935V109.445H78.7329V113Z" fill="#506677"/>
<path d="M85.2065 113.062C85.7192 113.062 86.126 112.809 86.355 112.398H86.3652V113H86.9326V108.068H86.3379V110.023H86.3242C86.1123 109.633 85.7021 109.384 85.1929 109.384C84.2974 109.384 83.6855 110.108 83.6855 111.223C83.6855 112.337 84.3008 113.062 85.2065 113.062ZM85.3193 109.907C85.9312 109.907 86.3413 110.43 86.3413 111.223C86.3413 112.019 85.9312 112.539 85.3193 112.539C84.6904 112.539 84.2939 112.029 84.2939 111.223C84.2939 110.419 84.6904 109.907 85.3193 109.907Z" fill="#506677"/>
<path d="M90.0942 111.981C89.9951 112.316 89.6636 112.545 89.2124 112.545C88.5732 112.545 88.1733 112.098 88.1733 111.417V111.383H90.7231V111.158C90.7231 110.081 90.1318 109.384 89.1714 109.384C88.1904 109.384 87.5615 110.132 87.5615 111.236C87.5615 112.354 88.1802 113.062 89.1987 113.062C89.9746 113.062 90.5762 112.604 90.6787 111.981H90.0942ZM89.1611 109.9C89.7217 109.9 90.0942 110.324 90.1079 110.918H88.1768C88.2144 110.327 88.604 109.9 89.1611 109.9Z" fill="#506677"/>
<path d="M94.2402 109.445H93.6216L92.6372 112.368H92.6235L91.6426 109.445H91.0171L92.3262 113H92.9346L94.2402 109.445Z" fill="#506677"/>
<path d="M96.9644 111.981C96.8652 112.316 96.5337 112.545 96.0825 112.545C95.4434 112.545 95.0435 112.098 95.0435 111.417V111.383H97.5933V111.158C97.5933 110.081 97.002 109.384 96.0415 109.384C95.0605 109.384 94.4316 110.132 94.4316 111.236C94.4316 112.354 95.0503 113.062 96.0688 113.062C96.8447 113.062 97.4463 112.604 97.5488 111.981H96.9644ZM96.0312 109.9C96.5918 109.9 96.9644 110.324 96.978 110.918H95.0469C95.0845 110.327 95.4741 109.9 96.0312 109.9Z" fill="#506677"/>
<path d="M98.2256 113H98.8203V108.068H98.2256V113Z" fill="#506677"/>
<path d="M101.097 113.062C102.078 113.062 102.741 112.354 102.741 111.223C102.741 110.088 102.078 109.384 101.097 109.384C100.112 109.384 99.4492 110.088 99.4492 111.223C99.4492 112.354 100.112 113.062 101.097 113.062ZM101.097 112.539C100.468 112.539 100.054 112.06 100.054 111.223C100.054 110.385 100.468 109.907 101.097 109.907C101.726 109.907 102.136 110.385 102.136 111.223C102.136 112.06 101.726 112.539 101.097 112.539Z" fill="#506677"/>
<path d="M105.068 109.384C104.552 109.384 104.139 109.647 103.92 110.047H103.906V109.445H103.342V114.186H103.937V112.422H103.951C104.163 112.812 104.573 113.062 105.082 113.062C105.978 113.062 106.589 112.337 106.589 111.223C106.589 110.108 105.974 109.384 105.068 109.384ZM104.952 112.539C104.344 112.539 103.934 112.016 103.934 111.223C103.934 110.433 104.344 109.907 104.952 109.907C105.584 109.907 105.981 110.419 105.981 111.223C105.981 112.029 105.584 112.539 104.952 112.539Z" fill="#506677"/>
<path d="M107.191 113H107.786V110.771C107.786 110.279 108.127 109.91 108.599 109.91C109.04 109.91 109.327 110.19 109.327 110.618V113H109.922V110.741C109.922 110.259 110.253 109.91 110.725 109.91C111.193 109.91 111.463 110.197 111.463 110.683V113H112.058V110.546C112.058 109.842 111.604 109.384 110.899 109.384C110.4 109.384 109.983 109.637 109.785 110.061H109.771C109.618 109.63 109.259 109.384 108.773 109.384C108.295 109.384 107.933 109.637 107.765 110.013H107.751V109.445H107.191V113Z" fill="#506677"/>
<path d="M115.175 111.981C115.076 112.316 114.745 112.545 114.293 112.545C113.654 112.545 113.254 112.098 113.254 111.417V111.383H115.804V111.158C115.804 110.081 115.213 109.384 114.252 109.384C113.271 109.384 112.643 110.132 112.643 111.236C112.643 112.354 113.261 113.062 114.28 113.062C115.056 113.062 115.657 112.604 115.76 111.981H115.175ZM114.242 109.9C114.803 109.9 115.175 110.324 115.189 110.918H113.258C113.295 110.327 113.685 109.9 114.242 109.9Z" fill="#506677"/>
<path d="M116.406 113H117V110.908C117 110.307 117.366 109.91 117.927 109.91C118.474 109.91 118.744 110.225 118.744 110.799V113H119.338V110.693C119.338 109.886 118.887 109.384 118.108 109.384C117.558 109.384 117.178 109.63 116.98 110.013H116.966V109.445H116.406V113Z" fill="#506677"/>
<path d="M120.289 108.587V109.445H119.759V109.934H120.289V112.077C120.289 112.761 120.542 113.027 121.194 113.027C121.334 113.027 121.499 113.017 121.57 113V112.501C121.529 112.508 121.393 112.518 121.324 112.518C121.02 112.518 120.883 112.371 120.883 112.046V109.934H121.574V109.445H120.883V108.587H120.289Z" fill="#506677"/>
<path d="M123.583 110.426C123.583 110.939 123.908 111.25 124.578 111.411L125.142 111.547C125.549 111.646 125.689 111.793 125.689 112.05C125.689 112.371 125.392 112.576 124.91 112.576C124.428 112.576 124.154 112.381 124.083 111.975H123.488C123.556 112.641 124.076 113.062 124.91 113.062C125.703 113.062 126.287 112.624 126.287 112.005C126.287 111.496 126.027 111.216 125.31 111.042L124.746 110.905C124.349 110.809 124.168 110.642 124.168 110.396C124.168 110.084 124.455 109.869 124.889 109.869C125.327 109.869 125.6 110.098 125.645 110.471H126.212C126.188 109.842 125.668 109.384 124.889 109.384C124.12 109.384 123.583 109.818 123.583 110.426Z" fill="#506677"/>
<path d="M129.264 111.981C129.165 112.316 128.833 112.545 128.382 112.545C127.743 112.545 127.343 112.098 127.343 111.417V111.383H129.893V111.158C129.893 110.081 129.302 109.384 128.341 109.384C127.36 109.384 126.731 110.132 126.731 111.236C126.731 112.354 127.35 113.062 128.369 113.062C129.145 113.062 129.746 112.604 129.849 111.981H129.264ZM128.331 109.9C128.892 109.9 129.264 110.324 129.278 110.918H127.347C127.384 110.327 127.774 109.9 128.331 109.9Z" fill="#506677"/>
<path d="M130.495 113H131.089V110.785C131.089 110.283 131.39 109.951 131.852 109.951C131.995 109.951 132.122 109.968 132.169 109.985V109.408C132.122 109.401 132.033 109.384 131.93 109.384C131.513 109.384 131.185 109.633 131.069 110.026H131.055V109.445H130.495V113Z" fill="#506677"/>
<path d="M135.57 109.445H134.952L133.967 112.368H133.954L132.973 109.445H132.347L133.656 113H134.265L135.57 109.445Z" fill="#506677"/>
<path d="M136.367 108.813C136.575 108.813 136.739 108.646 136.739 108.44C136.739 108.232 136.575 108.068 136.367 108.068C136.162 108.068 135.994 108.232 135.994 108.44C135.994 108.646 136.162 108.813 136.367 108.813ZM136.069 113H136.664V109.445H136.069V113Z" fill="#506677"/>
<path d="M140.42 110.611C140.345 109.972 139.815 109.384 138.927 109.384C137.946 109.384 137.293 110.102 137.293 111.223C137.293 112.368 137.949 113.062 138.934 113.062C139.74 113.062 140.335 112.562 140.427 111.855H139.843C139.74 112.282 139.422 112.539 138.937 112.539C138.322 112.539 137.898 112.05 137.898 111.223C137.898 110.416 138.315 109.907 138.93 109.907C139.453 109.907 139.754 110.225 139.839 110.611H140.42Z" fill="#506677"/>
<path d="M143.333 111.981C143.233 112.316 142.902 112.545 142.451 112.545C141.812 112.545 141.412 112.098 141.412 111.417V111.383H143.961V111.158C143.961 110.081 143.37 109.384 142.41 109.384C141.429 109.384 140.8 110.132 140.8 111.236C140.8 112.354 141.418 113.062 142.437 113.062C143.213 113.062 143.814 112.604 143.917 111.981H143.333ZM142.399 109.9C142.96 109.9 143.333 110.324 143.346 110.918H141.415C141.453 110.327 141.842 109.9 142.399 109.9Z" fill="#506677"/>
<path d="M144.501 110.426C144.501 110.939 144.826 111.25 145.496 111.411L146.06 111.547C146.467 111.646 146.607 111.793 146.607 112.05C146.607 112.371 146.31 112.576 145.828 112.576C145.346 112.576 145.072 112.381 145 111.975H144.406C144.474 112.641 144.994 113.062 145.828 113.062C146.621 113.062 147.205 112.624 147.205 112.005C147.205 111.496 146.945 111.216 146.228 111.042L145.664 110.905C145.267 110.809 145.086 110.642 145.086 110.396C145.086 110.084 145.373 109.869 145.807 109.869C146.245 109.869 146.518 110.098 146.562 110.471H147.13C147.106 109.842 146.586 109.384 145.807 109.384C145.038 109.384 144.501 109.818 144.501 110.426Z" fill="#506677"/>
<path d="M150.985 109.384C150.469 109.384 150.056 109.647 149.837 110.047H149.823V109.445H149.259V114.186H149.854V112.422H149.868C150.08 112.812 150.49 113.062 150.999 113.062C151.895 113.062 152.506 112.337 152.506 111.223C152.506 110.108 151.891 109.384 150.985 109.384ZM150.869 112.539C150.261 112.539 149.851 112.016 149.851 111.223C149.851 110.433 150.261 109.907 150.869 109.907C151.501 109.907 151.898 110.419 151.898 111.223C151.898 112.029 151.501 112.539 150.869 112.539Z" fill="#506677"/>
<path d="M154.581 113.062C155.562 113.062 156.225 112.354 156.225 111.223C156.225 110.088 155.562 109.384 154.581 109.384C153.597 109.384 152.934 110.088 152.934 111.223C152.934 112.354 153.597 113.062 154.581 113.062ZM154.581 112.539C153.952 112.539 153.539 112.06 153.539 111.223C153.539 110.385 153.952 109.907 154.581 109.907C155.21 109.907 155.62 110.385 155.62 111.223C155.62 112.06 155.21 112.539 154.581 112.539Z" fill="#506677"/>
<path d="M161.349 109.445H160.761L160.05 112.337H160.036L159.229 109.445H158.655L157.852 112.337H157.838L157.127 109.445H156.536L157.531 113H158.136L158.936 110.249H158.949L159.752 113H160.357L161.349 109.445Z" fill="#506677"/>
<path d="M164.196 111.981C164.097 112.316 163.765 112.545 163.314 112.545C162.675 112.545 162.275 112.098 162.275 111.417V111.383H164.825V111.158C164.825 110.081 164.233 109.384 163.273 109.384C162.292 109.384 161.663 110.132 161.663 111.236C161.663 112.354 162.282 113.062 163.3 113.062C164.076 113.062 164.678 112.604 164.78 111.981H164.196ZM163.263 109.9C163.823 109.9 164.196 110.324 164.209 110.918H162.278C162.316 110.327 162.706 109.9 163.263 109.9Z" fill="#506677"/>
<path d="M165.426 113H166.021V110.785C166.021 110.283 166.322 109.951 166.783 109.951C166.927 109.951 167.053 109.968 167.101 109.985V109.408C167.053 109.401 166.964 109.384 166.862 109.384C166.445 109.384 166.117 109.633 166 110.026H165.987V109.445H165.426V113Z" fill="#506677"/>
<path d="M169.774 111.981C169.675 112.316 169.343 112.545 168.892 112.545C168.253 112.545 167.853 112.098 167.853 111.417V111.383H170.403V111.158C170.403 110.081 169.812 109.384 168.851 109.384C167.87 109.384 167.241 110.132 167.241 111.236C167.241 112.354 167.86 113.062 168.878 113.062C169.654 113.062 170.256 112.604 170.358 111.981H169.774ZM168.841 109.9C169.401 109.9 169.774 110.324 169.788 110.918H167.856C167.894 110.327 168.284 109.9 168.841 109.9Z" fill="#506677"/>
<path d="M172.351 113.062C172.864 113.062 173.271 112.809 173.5 112.398H173.51V113H174.077V108.068H173.482V110.023H173.469C173.257 109.633 172.847 109.384 172.337 109.384C171.442 109.384 170.83 110.108 170.83 111.223C170.83 112.337 171.445 113.062 172.351 113.062ZM172.464 109.907C173.076 109.907 173.486 110.43 173.486 111.223C173.486 112.019 173.076 112.539 172.464 112.539C171.835 112.539 171.438 112.029 171.438 111.223C171.438 110.419 171.835 109.907 172.464 109.907Z" fill="#506677"/>
<path d="M178.083 113.062C178.992 113.062 179.594 112.34 179.594 111.223C179.594 110.108 178.989 109.384 178.093 109.384C177.591 109.384 177.177 109.633 176.955 110.04H176.941V108.068H176.347V113H176.914V112.398H176.928C177.157 112.809 177.563 113.062 178.083 113.062ZM177.967 109.907C178.596 109.907 178.985 110.416 178.985 111.223C178.985 112.036 178.596 112.539 177.967 112.539C177.365 112.539 176.938 112.016 176.938 111.223C176.938 110.433 177.365 109.907 177.967 109.907Z" fill="#506677"/>
<path d="M180.394 114.33C181.036 114.33 181.33 114.08 181.634 113.25L183.032 109.445H182.407L181.422 112.405H181.412L180.428 109.445H179.792L181.104 113.003L181.022 113.253C180.886 113.667 180.701 113.827 180.37 113.827C180.294 113.827 180.202 113.824 180.137 113.81V114.309C180.202 114.323 180.322 114.33 180.394 114.33Z" fill="#506677"/>
<path d="M185.644 113V110.864H187.828V110.317H185.644V108.622H188.022V108.068H185.028V113H185.644Z" fill="#506677"/>
<path d="M189.434 113.062C189.913 113.062 190.364 112.795 190.576 112.388H190.589V113H191.153V110.542C191.153 109.835 190.627 109.384 189.793 109.384C188.952 109.384 188.426 109.855 188.385 110.471H188.959C189.034 110.122 189.321 109.907 189.779 109.907C190.271 109.907 190.559 110.167 190.559 110.601V110.898L189.54 110.956C188.72 111.004 188.251 111.387 188.251 111.995C188.251 112.634 188.727 113.062 189.434 113.062ZM189.567 112.556C189.14 112.556 188.856 112.333 188.856 111.995C188.856 111.66 189.13 111.448 189.608 111.417L190.559 111.359V111.65C190.559 112.163 190.128 112.556 189.567 112.556Z" fill="#506677"/>
<path d="M194.862 110.611C194.787 109.972 194.257 109.384 193.368 109.384C192.387 109.384 191.734 110.102 191.734 111.223C191.734 112.368 192.391 113.062 193.375 113.062C194.182 113.062 194.776 112.562 194.869 111.855H194.284C194.182 112.282 193.864 112.539 193.378 112.539C192.763 112.539 192.339 112.05 192.339 111.223C192.339 110.416 192.756 109.907 193.372 109.907C193.895 109.907 194.195 110.225 194.281 110.611H194.862Z" fill="#506677"/>
<path d="M195.607 108.587V109.445H195.077V109.934H195.607V112.077C195.607 112.761 195.86 113.027 196.513 113.027C196.653 113.027 196.817 113.017 196.889 113V112.501C196.848 112.508 196.711 112.518 196.643 112.518C196.338 112.518 196.202 112.371 196.202 112.046V109.934H196.892V109.445H196.202V108.587H195.607Z" fill="#506677"/>
<path d="M198.898 113.062C199.879 113.062 200.542 112.354 200.542 111.223C200.542 110.088 199.879 109.384 198.898 109.384C197.914 109.384 197.251 110.088 197.251 111.223C197.251 112.354 197.914 113.062 198.898 113.062ZM198.898 112.539C198.27 112.539 197.856 112.06 197.856 111.223C197.856 110.385 198.27 109.907 198.898 109.907C199.527 109.907 199.938 110.385 199.938 111.223C199.938 112.06 199.527 112.539 198.898 112.539Z" fill="#506677"/>
<path d="M201.144 113H201.739V110.785C201.739 110.283 202.04 109.951 202.501 109.951C202.645 109.951 202.771 109.968 202.819 109.985V109.408C202.771 109.401 202.682 109.384 202.58 109.384C202.163 109.384 201.834 109.633 201.718 110.026H201.705V109.445H201.144V113Z" fill="#506677"/>
<path d="M36.7329 124.062C37.2456 124.062 37.6523 123.809 37.8813 123.398H37.8916V124H38.459V119.068H37.8643V121.023H37.8506C37.6387 120.633 37.2285 120.384 36.7192 120.384C35.8237 120.384 35.2119 121.108 35.2119 122.223C35.2119 123.337 35.8271 124.062 36.7329 124.062ZM36.8457 120.907C37.4575 120.907 37.8677 121.43 37.8677 122.223C37.8677 123.019 37.4575 123.539 36.8457 123.539C36.2168 123.539 35.8203 123.029 35.8203 122.223C35.8203 121.419 36.2168 120.907 36.8457 120.907Z" fill="#506677"/>
<path d="M41.6206 122.981C41.5215 123.316 41.1899 123.545 40.7388 123.545C40.0996 123.545 39.6997 123.098 39.6997 122.417V122.383H42.2495V122.158C42.2495 121.081 41.6582 120.384 40.6978 120.384C39.7168 120.384 39.0879 121.132 39.0879 122.236C39.0879 123.354 39.7065 124.062 40.7251 124.062C41.501 124.062 42.1025 123.604 42.2051 122.981H41.6206ZM40.6875 120.9C41.248 120.9 41.6206 121.324 41.6343 121.918H39.7031C39.7407 121.327 40.1304 120.9 40.6875 120.9Z" fill="#506677"/>
<path d="M42.7896 121.426C42.7896 121.939 43.1143 122.25 43.7842 122.411L44.3481 122.547C44.7549 122.646 44.895 122.793 44.895 123.05C44.895 123.371 44.5977 123.576 44.1157 123.576C43.6338 123.576 43.3604 123.381 43.2886 122.975H42.6938C42.7622 123.641 43.2817 124.062 44.1157 124.062C44.9087 124.062 45.4932 123.624 45.4932 123.005C45.4932 122.496 45.2334 122.216 44.5156 122.042L43.9517 121.905C43.5552 121.809 43.374 121.642 43.374 121.396C43.374 121.084 43.6611 120.869 44.0952 120.869C44.5327 120.869 44.8062 121.098 44.8506 121.471H45.418C45.394 120.842 44.8745 120.384 44.0952 120.384C43.3262 120.384 42.7896 120.818 42.7896 121.426Z" fill="#506677"/>
<path d="M46.4399 119.813C46.6484 119.813 46.8125 119.646 46.8125 119.44C46.8125 119.232 46.6484 119.068 46.4399 119.068C46.2349 119.068 46.0674 119.232 46.0674 119.44C46.0674 119.646 46.2349 119.813 46.4399 119.813ZM46.1426 124H46.7373V120.445H46.1426V124Z" fill="#506677"/>
<path d="M49.0068 125.34C49.9878 125.34 50.6133 124.776 50.6133 123.928V120.445H50.0459V121.043H50.0356C49.7998 120.63 49.3828 120.384 48.8804 120.384C47.9609 120.384 47.3662 121.095 47.3662 122.209C47.3662 123.313 47.9609 124.027 48.8667 124.027C49.3657 124.027 49.7861 123.774 50.0049 123.388H50.0186V123.949C50.0186 124.479 49.646 124.834 49.0308 124.834C48.5864 124.834 48.2344 124.619 48.1182 124.294H47.5063C47.6055 124.899 48.2241 125.34 49.0068 125.34ZM48.9863 123.504C48.3745 123.504 47.9746 123.005 47.9746 122.209C47.9746 121.413 48.3745 120.907 48.9863 120.907C49.605 120.907 50.0186 121.426 50.0186 122.209C50.0186 122.992 49.605 123.504 48.9863 123.504Z" fill="#506677"/>
<path d="M51.3892 124H51.9839V121.908C51.9839 121.307 52.3496 120.91 52.9102 120.91C53.457 120.91 53.7271 121.225 53.7271 121.799V124H54.3218V121.693C54.3218 120.886 53.8706 120.384 53.0913 120.384C52.541 120.384 52.1616 120.63 51.9634 121.013H51.9497V120.445H51.3892V124Z" fill="#506677"/>
<path d="M57.439 122.981C57.3398 123.316 57.0083 123.545 56.5571 123.545C55.918 123.545 55.5181 123.098 55.5181 122.417V122.383H58.0679V122.158C58.0679 121.081 57.4766 120.384 56.5161 120.384C55.5352 120.384 54.9062 121.132 54.9062 122.236C54.9062 123.354 55.5249 124.062 56.5435 124.062C57.3193 124.062 57.9209 123.604 58.0234 122.981H57.439ZM56.5059 120.9C57.0664 120.9 57.439 121.324 57.4526 121.918H55.5215C55.5591 121.327 55.9487 120.9 56.5059 120.9Z" fill="#506677"/>
<path d="M60.0161 124.062C60.5288 124.062 60.9355 123.809 61.1646 123.398H61.1748V124H61.7422V119.068H61.1475V121.023H61.1338C60.9219 120.633 60.5117 120.384 60.0024 120.384C59.1069 120.384 58.4951 121.108 58.4951 122.223C58.4951 123.337 59.1104 124.062 60.0161 124.062ZM60.1289 120.907C60.7407 120.907 61.1509 121.43 61.1509 122.223C61.1509 123.019 60.7407 123.539 60.1289 123.539C59.5 123.539 59.1035 123.029 59.1035 122.223C59.1035 121.419 59.5 120.907 60.1289 120.907Z" fill="#506677"/>
<path d="M64.1724 119.587V120.445H63.6426V120.934H64.1724V123.077C64.1724 123.761 64.4253 124.027 65.0781 124.027C65.2183 124.027 65.3823 124.017 65.4541 124V123.501C65.4131 123.508 65.2764 123.518 65.208 123.518C64.9038 123.518 64.7671 123.371 64.7671 123.046V120.934H65.4575V120.445H64.7671V119.587H64.1724Z" fill="#506677"/>
<path d="M67.4639 124.062C68.4448 124.062 69.1079 123.354 69.1079 122.223C69.1079 121.088 68.4448 120.384 67.4639 120.384C66.4795 120.384 65.8164 121.088 65.8164 122.223C65.8164 123.354 66.4795 124.062 67.4639 124.062ZM67.4639 123.539C66.835 123.539 66.4214 123.06 66.4214 122.223C66.4214 121.385 66.835 120.907 67.4639 120.907C68.0928 120.907 68.5029 121.385 68.5029 122.223C68.5029 123.06 68.0928 123.539 67.4639 123.539Z" fill="#506677"/>
<path d="M71.3364 124H71.9312V120.934H72.6558V120.445H71.9277V120.052C71.9277 119.7 72.0815 119.529 72.4028 119.529C72.502 119.529 72.6011 119.54 72.6729 119.55V119.068C72.5874 119.054 72.4438 119.041 72.3105 119.041C71.6543 119.041 71.3364 119.365 71.3364 120.049V120.445H70.8408V120.934H71.3364V124Z" fill="#506677"/>
<path d="M73.5991 119.813C73.8076 119.813 73.9717 119.646 73.9717 119.44C73.9717 119.232 73.8076 119.068 73.5991 119.068C73.394 119.068 73.2266 119.232 73.2266 119.44C73.2266 119.646 73.394 119.813 73.5991 119.813ZM73.3018 124H73.8965V120.445H73.3018V124Z" fill="#506677"/>
<path d="M74.8911 119.587V120.445H74.3613V120.934H74.8911V123.077C74.8911 123.761 75.144 124.027 75.7969 124.027C75.937 124.027 76.1011 124.017 76.1729 124V123.501C76.1318 123.508 75.9951 123.518 75.9268 123.518C75.6226 123.518 75.4858 123.371 75.4858 123.046V120.934H76.1763V120.445H75.4858V119.587H74.8911Z" fill="#506677"/>
<path d="M78.5449 125.33C79.1875 125.33 79.4814 125.08 79.7856 124.25L81.1836 120.445H80.5581L79.5737 123.405H79.5635L78.5791 120.445H77.9434L79.2559 124.003L79.1738 124.253C79.0371 124.667 78.8525 124.827 78.521 124.827C78.4458 124.827 78.3535 124.824 78.2886 124.81V125.309C78.3535 125.323 78.4731 125.33 78.5449 125.33Z" fill="#506677"/>
<path d="M83.0225 124.062C84.0034 124.062 84.6665 123.354 84.6665 122.223C84.6665 121.088 84.0034 120.384 83.0225 120.384C82.0381 120.384 81.375 121.088 81.375 122.223C81.375 123.354 82.0381 124.062 83.0225 124.062ZM83.0225 123.539C82.3936 123.539 81.98 123.06 81.98 122.223C81.98 121.385 82.3936 120.907 83.0225 120.907C83.6514 120.907 84.0615 121.385 84.0615 122.223C84.0615 123.06 83.6514 123.539 83.0225 123.539Z" fill="#506677"/>
<path d="M88.187 120.445H87.5923V122.534C87.5923 123.139 87.2437 123.535 86.666 123.535C86.1157 123.535 85.8457 123.224 85.8457 122.646V120.445H85.251V122.752C85.251 123.559 85.7056 124.062 86.4814 124.062C87.0283 124.062 87.3975 123.833 87.6094 123.422H87.623V124H88.187V120.445Z" fill="#506677"/>
<path d="M88.9595 124H89.5542V121.785C89.5542 121.283 89.855 120.951 90.3164 120.951C90.46 120.951 90.5864 120.968 90.6343 120.985V120.408C90.5864 120.401 90.4976 120.384 90.395 120.384C89.978 120.384 89.6499 120.633 89.5337 121.026H89.52V120.445H88.9595V124Z" fill="#506677"/>
<path d="M95.5083 121.611C95.4331 120.972 94.9033 120.384 94.0146 120.384C93.0337 120.384 92.3809 121.102 92.3809 122.223C92.3809 123.368 93.0371 124.062 94.0215 124.062C94.8281 124.062 95.4229 123.562 95.5151 122.855H94.9307C94.8281 123.282 94.5103 123.539 94.0249 123.539C93.4097 123.539 92.9858 123.05 92.9858 122.223C92.9858 121.416 93.4028 120.907 94.0181 120.907C94.541 120.907 94.8418 121.225 94.9272 121.611H95.5083Z" fill="#506677"/>
<path d="M98.981 120.445H98.3862V122.534C98.3862 123.139 98.0376 123.535 97.46 123.535C96.9097 123.535 96.6396 123.224 96.6396 122.646V120.445H96.0449V122.752C96.0449 123.559 96.4995 124.062 97.2754 124.062C97.8223 124.062 98.1914 123.833 98.4033 123.422H98.417V124H98.981V120.445Z" fill="#506677"/>
<path d="M99.6919 121.426C99.6919 121.939 100.017 122.25 100.687 122.411L101.25 122.547C101.657 122.646 101.797 122.793 101.797 123.05C101.797 123.371 101.5 123.576 101.018 123.576C100.536 123.576 100.263 123.381 100.191 122.975H99.5962C99.6646 123.641 100.184 124.062 101.018 124.062C101.811 124.062 102.396 123.624 102.396 123.005C102.396 122.496 102.136 122.216 101.418 122.042L100.854 121.905C100.458 121.809 100.276 121.642 100.276 121.396C100.276 121.084 100.563 120.869 100.998 120.869C101.435 120.869 101.708 121.098 101.753 121.471H102.32C102.296 120.842 101.777 120.384 100.998 120.384C100.229 120.384 99.6919 120.818 99.6919 121.426Z" fill="#506677"/>
<path d="M103.206 119.587V120.445H102.676V120.934H103.206V123.077C103.206 123.761 103.458 124.027 104.111 124.027C104.251 124.027 104.416 124.017 104.487 124V123.501C104.446 123.508 104.31 123.518 104.241 123.518C103.937 123.518 103.8 123.371 103.8 123.046V120.934H104.491V120.445H103.8V119.587H103.206Z" fill="#506677"/>
<path d="M106.497 124.062C107.478 124.062 108.141 123.354 108.141 122.223C108.141 121.088 107.478 120.384 106.497 120.384C105.513 120.384 104.85 121.088 104.85 122.223C104.85 123.354 105.513 124.062 106.497 124.062ZM106.497 123.539C105.868 123.539 105.455 123.06 105.455 122.223C105.455 121.385 105.868 120.907 106.497 120.907C107.126 120.907 107.536 121.385 107.536 122.223C107.536 123.06 107.126 123.539 106.497 123.539Z" fill="#506677"/>
<path d="M108.743 124H109.337V121.771C109.337 121.279 109.679 120.91 110.151 120.91C110.592 120.91 110.879 121.19 110.879 121.618V124H111.474V121.741C111.474 121.259 111.805 120.91 112.277 120.91C112.745 120.91 113.015 121.197 113.015 121.683V124H113.61V121.546C113.61 120.842 113.155 120.384 112.451 120.384C111.952 120.384 111.535 120.637 111.337 121.061H111.323C111.169 120.63 110.811 120.384 110.325 120.384C109.847 120.384 109.484 120.637 109.317 121.013H109.303V120.445H108.743V124Z" fill="#506677"/>
<path d="M120.326 120.445H119.738L119.027 123.337H119.014L118.207 120.445H117.633L116.83 123.337H116.816L116.105 120.445H115.514L116.508 124H117.113L117.913 121.249H117.927L118.73 124H119.335L120.326 120.445Z" fill="#506677"/>
<path d="M122.288 124.062C123.269 124.062 123.932 123.354 123.932 122.223C123.932 121.088 123.269 120.384 122.288 120.384C121.304 120.384 120.641 121.088 120.641 122.223C120.641 123.354 121.304 124.062 122.288 124.062ZM122.288 123.539C121.659 123.539 121.246 123.06 121.246 122.223C121.246 121.385 121.659 120.907 122.288 120.907C122.917 120.907 123.327 121.385 123.327 122.223C123.327 123.06 122.917 123.539 122.288 123.539Z" fill="#506677"/>
<path d="M124.534 124H125.128V121.785C125.128 121.283 125.429 120.951 125.891 120.951C126.034 120.951 126.161 120.968 126.208 120.985V120.408C126.161 120.401 126.072 120.384 125.969 120.384C125.552 120.384 125.224 120.633 125.108 121.026H125.094V120.445H124.534V124Z" fill="#506677"/>
<path d="M127.319 122.66L127.651 122.346L128.97 124H129.661L128.071 121.98L129.613 120.445H128.892L127.319 122.024V119.068H126.725V124H127.319V122.66Z" fill="#506677"/>
<path d="M130.283 124H130.877V120.934H131.602V120.445H130.874V120.052C130.874 119.7 131.028 119.529 131.349 119.529C131.448 119.529 131.547 119.54 131.619 119.55V119.068C131.534 119.054 131.39 119.041 131.257 119.041C130.601 119.041 130.283 119.365 130.283 120.049V120.445H129.787V120.934H130.283V124Z" fill="#506677"/>
<path d="M132.248 124H132.843V119.068H132.248V124Z" fill="#506677"/>
<path d="M135.119 124.062C136.1 124.062 136.763 123.354 136.763 122.223C136.763 121.088 136.1 120.384 135.119 120.384C134.135 120.384 133.472 121.088 133.472 122.223C133.472 123.354 134.135 124.062 135.119 124.062ZM135.119 123.539C134.49 123.539 134.077 123.06 134.077 122.223C134.077 121.385 134.49 120.907 135.119 120.907C135.748 120.907 136.158 121.385 136.158 122.223C136.158 123.06 135.748 123.539 135.119 123.539Z" fill="#506677"/>
<path d="M141.887 120.445H141.299L140.588 123.337H140.574L139.768 120.445H139.193L138.39 123.337H138.376L137.666 120.445H137.074L138.069 124H138.674L139.474 121.249H139.487L140.291 124H140.896L141.887 120.445Z" fill="#506677"/>
<path d="M142.468 124.034C142.687 124.034 142.857 123.863 142.857 123.645C142.857 123.426 142.687 123.255 142.468 123.255C142.249 123.255 142.078 123.426 142.078 123.645C142.078 123.863 142.249 124.034 142.468 124.034Z" fill="#506677"/>
<path d="M144.245 124.034C144.464 124.034 144.635 123.863 144.635 123.645C144.635 123.426 144.464 123.255 144.245 123.255C144.026 123.255 143.855 123.426 143.855 123.645C143.855 123.863 144.026 124.034 144.245 124.034Z" fill="#506677"/>
<path d="M94.8027 93L97.4243 88.0679H96.0059L94.2969 91.6943H94.2729L94.0781 88.0679H92.7007L93.2681 93H94.8027Z" fill="#506677"/>
<path d="M98.0737 93L99.123 88.0679H97.8687L96.8193 93H98.0737Z" fill="#506677"/>
<path d="M99.9126 88.0679L98.8667 93H100.121L100.429 91.5542H101.246C102.596 91.5542 103.474 90.7886 103.474 89.5547C103.474 88.6592 102.825 88.0679 101.751 88.0679H99.9126ZM100.962 89.0317H101.492C101.95 89.0317 102.213 89.2437 102.213 89.6675C102.213 90.2212 101.833 90.6074 101.246 90.6074H100.627L100.962 89.0317Z" fill="#506677"/>
<path d="M35 91.6732H36.4113L35.0239 100H38.6339L40.0206 91.6736H41.8357L42.3847 88.9066L40.4604 88.9264C40.6461 87.8775 40.779 87.2539 42.1029 86.8507C42.6024 86.6987 42.982 86.4993 43.3986 86.6311L44 84.2154C43.2598 83.9923 42.3847 83.9664 41.6172 84.0305C38.2287 84.3129 37.3136 86.1607 36.8511 88.9277H35.4398L35 91.6732Z" fill="#506677"/>
<path d="M49.6368 89.1118H53L51.5554 98.2069C51.516 98.4716 51.4944 98.7387 51.4909 99.0063C51.4866 99.2598 51.5082 99.513 51.5554 99.762H48.4294C48.4294 99.762 48.3445 99.5032 48.3445 99.0063C48.3445 98.8334 48.3445 98.6175 48.3661 98.3799H48.3445C47.4391 99.4165 46.1022 100 44.7225 100C42.1175 99.7773 41 97.9294 41 95.4023C41 92.1195 42.8036 89 46.4688 89C47.5902 89 48.8838 89.3086 49.4658 90.3451C49.5074 89.9329 49.5719 89.524 49.6368 89.1118ZM46.7815 91.6618C45.0136 91.6618 43.9355 93.3465 43.9355 94.9879C43.9355 96.2204 44.647 97.1265 45.919 97.1265C47.6869 97.1265 48.765 95.4418 48.765 93.8C48.765 92.5679 48.0535 91.6605 46.7815 91.6605V91.6618Z" fill="#506677"/>
<path d="M61.4626 92.7737C60.9429 92.0661 60.0069 91.7446 59.1749 91.7446C57.4695 91.7446 56.2839 93.31 56.2839 95.004C56.2839 96.3541 57.1368 97.1482 58.4264 97.1482C59.3206 97.1482 60.4018 96.7621 61.109 96.1833L61.4004 98.7992C60.4018 99.6355 58.6965 100 57.4716 100C54.8715 100 53 98.2199 53 95.5183C53 91.9159 55.6414 89 59.1978 89C60.2169 89 61.2515 89.0983 62 89.913L61.4626 92.7737Z" fill="#506677"/>
<path d="M67.569 88.924H70L69.5185 91.6271H67.1106C66.8583 93.0995 66.3994 94.7258 66.3994 96.2198C66.3994 96.8572 66.7207 97.0552 67.3398 97.0552C67.7163 97.0555 68.0896 96.9883 68.4404 96.8572L68.1652 99.648C67.3168 99.8461 66.4684 100 65.574 100C63.7622 100 62.6859 99.2087 62.6859 97.4055C62.6859 95.4933 63.236 93.4705 63.5343 91.6258H62L62.4585 88.9227H63.995L64.2243 87.5606C64.2606 87.2689 64.2757 86.9752 64.2694 86.6815C64.2721 86.4536 64.2571 86.2258 64.2243 86H67.7789C67.7789 86 67.8479 86.2417 67.8479 86.7252C67.8462 87.0566 67.816 87.3874 67.7577 87.7141L67.569 88.924Z" fill="#506677"/>
<path d="M74.0917 100C71.2205 100 69 98.4347 69 95.5398C69 91.8088 71.9382 89 75.9083 89C78.802 89 81 90.5869 81 93.4813C81.0013 97.2123 78.0843 100 74.0917 100ZM75.4599 91.7446C73.6203 91.7446 72.5663 93.4597 72.5663 95.0466C72.5663 96.2474 73.2394 97.1482 74.5626 97.1482C76.4018 97.1482 77.4562 95.4327 77.4562 93.8458C77.4562 92.645 76.7831 91.7446 75.4599 91.7446Z" fill="#506677"/>
<path d="M88.2994 92.4404H88.1179C87.7571 92.243 87.3063 92.1774 86.9003 92.1774C85.1867 92.1774 84.51 93.8207 84.3072 95.2013L83.5178 100H80L81.4882 90.7968C81.531 90.4918 81.5537 90.1844 81.5561 89.8766C81.5588 89.6493 81.544 89.4222 81.5118 89.1971H85.007C85.007 89.1971 85.0748 89.4381 85.0748 89.9202C85.0766 90.1929 85.0468 90.4649 84.9861 90.7312C85.6401 89.7231 86.6549 89 87.9399 89C88.2559 89 88.7293 89.0431 89 89.1971L88.2994 92.4404Z" fill="#506677"/>
<path d="M35 70.5C35 69.1193 36.1193 68 37.5 68H108.5C109.881 68 111 69.1193 111 70.5C111 71.8807 109.881 73 108.5 73H37.5C36.1193 73 35 71.8807 35 70.5Z" fill="#506677"/>
<path d="M324.393 132.112C325.574 130.652 324.984 129.441 323.035 129.441H317C316.576 129.466 316.153 129.393 315.765 129.227C315.378 129.061 315.039 128.807 314.776 128.488C314.514 128.168 314.336 127.793 314.258 127.393C314.181 126.993 314.206 126.582 314.331 126.193L318.5 110.565C318.972 108.755 318.382 108.472 317.189 109.943L297.607 133.854C296.426 135.314 297.016 136.525 298.965 136.525H305C305.424 136.5 305.847 136.573 306.235 136.739C306.622 136.905 306.961 137.159 307.224 137.478C307.486 137.798 307.664 138.173 307.742 138.573C307.819 138.973 307.794 139.384 307.669 139.773L303.5 155.435C303.028 157.245 303.618 157.528 304.811 156.057L324.393 132.112Z" fill="#506677"/>
<path d="M300 127H322V138H300V127Z" fill="white"/>
<path fill-rule="evenodd" clip-rule="evenodd" d="M320 129H302V136H320V129ZM300 127V138H322V127H300Z" fill="#506677"/>
<path fill-rule="evenodd" clip-rule="evenodd" d="M311 91C315.418 91 319 87.4183 319 83C319 78.5817 315.418 75 311 75C306.582 75 303 78.5817 303 83C303 87.4183 306.582 91 311 91ZM311 93C316.523 93 321 88.5228 321 83C321 77.4772 316.523 73 311 73C305.477 73 301 77.4772 301 83C301 88.5228 305.477 93 311 93Z" fill="#506677"/>
<path fill-rule="evenodd" clip-rule="evenodd" d="M304.166 88.8236L316.105 75.8236L317.578 77.1764L305.639 90.1764L304.166 88.8236Z" fill="#506677"/>
<path fill-rule="evenodd" clip-rule="evenodd" d="M317.578 88.8236L305.639 75.8236L304.166 77.1764L316.105 90.1764L317.578 88.8236Z" fill="#506677"/>
<path fill-rule="evenodd" clip-rule="evenodd" d="M278 110C282.418 110 286 106.418 286 102C286 97.5817 282.418 94 278 94C273.582 94 270 97.5817 270 102C270 106.418 273.582 110 278 110ZM278 112C283.523 112 288 107.523 288 102C288 96.4772 283.523 92 278 92C272.477 92 268 96.4772 268 102C268 107.523 272.477 112 278 112Z" fill="#506677"/>
<path fill-rule="evenodd" clip-rule="evenodd" d="M271.166 107.824L283.105 94.8236L284.578 96.1764L272.639 109.176L271.166 107.824Z" fill="#506677"/>
<path fill-rule="evenodd" clip-rule="evenodd" d="M284.578 107.824L272.639 94.8236L271.166 96.1764L283.105 109.176L284.578 107.824Z" fill="#506677"/>
<path fill-rule="evenodd" clip-rule="evenodd" d="M261 140C265.418 140 269 136.418 269 132C269 127.582 265.418 124 261 124C256.582 124 253 127.582 253 132C253 136.418 256.582 140 261 140ZM261 142C266.523 142 271 137.523 271 132C271 126.477 266.523 122 261 122C255.477 122 251 126.477 251 132C251 137.523 255.477 142 261 142Z" fill="#506677"/>
<path fill-rule="evenodd" clip-rule="evenodd" d="M254.166 137.824L266.105 124.824L267.578 126.176L255.639 139.176L254.166 137.824Z" fill="#506677"/>
<path fill-rule="evenodd" clip-rule="evenodd" d="M267.578 137.824L255.639 124.824L254.166 126.176L266.105 139.176L267.578 137.824Z" fill="#506677"/>
<path fill-rule="evenodd" clip-rule="evenodd" d="M278 168C282.418 168 286 164.418 286 160C286 155.582 282.418 152 278 152C273.582 152 270 155.582 270 160C270 164.418 273.582 168 278 168ZM278 170C283.523 170 288 165.523 288 160C288 154.477 283.523 150 278 150C272.477 150 268 154.477 268 160C268 165.523 272.477 170 278 170Z" fill="#506677"/>
<path fill-rule="evenodd" clip-rule="evenodd" d="M271.166 165.824L283.105 152.824L284.578 154.176L272.639 167.176L271.166 165.824Z" fill="#506677"/>
<path fill-rule="evenodd" clip-rule="evenodd" d="M284.578 165.824L272.639 152.824L271.166 154.176L283.105 167.176L284.578 165.824Z" fill="#506677"/>
<path fill-rule="evenodd" clip-rule="evenodd" d="M311 188C315.418 188 319 184.418 319 180C319 175.582 315.418 172 311 172C306.582 172 303 175.582 303 180C303 184.418 306.582 188 311 188ZM311 190C316.523 190 321 185.523 321 180C321 174.477 316.523 170 311 170C305.477 170 301 174.477 301 180C301 185.523 305.477 190 311 190Z" fill="#506677"/>
<path fill-rule="evenodd" clip-rule="evenodd" d="M304.166 185.824L316.105 172.824L317.578 174.176L305.639 187.176L304.166 185.824Z" fill="#506677"/>
<path fill-rule="evenodd" clip-rule="evenodd" d="M317.578 185.824L305.639 172.824L304.166 174.176L316.105 187.176L317.578 185.824Z" fill="#506677"/>
<path fill-rule="evenodd" clip-rule="evenodd" d="M345 168C349.418 168 353 164.418 353 160C353 155.582 349.418 152 345 152C340.582 152 337 155.582 337 160C337 164.418 340.582 168 345 168ZM345 170C350.523 170 355 165.523 355 160C355 154.477 350.523 150 345 150C339.477 150 335 154.477 335 160C335 165.523 339.477 170 345 170Z" fill="#506677"/>
<path fill-rule="evenodd" clip-rule="evenodd" d="M338.166 165.824L350.105 152.824L351.578 154.176L339.639 167.176L338.166 165.824Z" fill="#506677"/>
<path fill-rule="evenodd" clip-rule="evenodd" d="M351.578 165.824L339.639 152.824L338.166 154.176L350.105 167.176L351.578 165.824Z" fill="#506677"/>
<path fill-rule="evenodd" clip-rule="evenodd" d="M358 140C362.418 140 366 136.418 366 132C366 127.582 362.418 124 358 124C353.582 124 350 127.582 350 132C350 136.418 353.582 140 358 140ZM358 142C363.523 142 368 137.523 368 132C368 126.477 363.523 122 358 122C352.477 122 348 126.477 348 132C348 137.523 352.477 142 358 142Z" fill="#506677"/>
<path fill-rule="evenodd" clip-rule="evenodd" d="M351.166 137.824L363.105 124.824L364.578 126.176L352.639 139.176L351.166 137.824Z" fill="#506677"/>
<path fill-rule="evenodd" clip-rule="evenodd" d="M364.578 137.824L352.639 124.824L351.166 126.176L363.105 139.176L364.578 137.824Z" fill="#506677"/>
<path fill-rule="evenodd" clip-rule="evenodd" d="M345 110C349.418 110 353 106.418 353 102C353 97.5817 349.418 94 345 94C340.582 94 337 97.5817 337 102C337 106.418 340.582 110 345 110ZM345 112C350.523 112 355 107.523 355 102C355 96.4772 350.523 92 345 92C339.477 92 335 96.4772 335 102C335 107.523 339.477 112 345 112Z" fill="#506677"/>
<path fill-rule="evenodd" clip-rule="evenodd" d="M338.166 107.824L350.105 94.8236L351.578 96.1764L339.639 109.176L338.166 107.824Z" fill="#506677"/>
<path fill-rule="evenodd" clip-rule="evenodd" d="M350.105 109.176L338.166 96.1764L339.639 94.8236L351.578 107.824L350.105 109.176Z" fill="#506677"/>
<path d="M233 26.1582V31.0159H233.869V29.4101H234.851C235.834 29.4101 236.525 28.7537 236.525 27.7842C236.525 26.8147 235.855 26.1582 234.889 26.1582H233ZM233.869 26.8685H234.66C235.282 26.8685 235.643 27.2018 235.643 27.7842C235.643 28.3733 235.279 28.7099 234.656 28.7099H233.869V26.8685Z" fill="#506677"/>
<path d="M237.077 31.0159H237.915V28.9388C237.915 28.4372 238.201 28.1309 238.676 28.1309C238.817 28.1309 238.945 28.1511 239.016 28.178V27.4206C238.955 27.4071 238.861 27.3869 238.753 27.3869C238.332 27.3869 238.019 27.636 237.898 28.0703H237.881V27.4475H237.077V31.0159Z" fill="#506677"/>
<path d="M240.891 31.0866C241.938 31.0866 242.618 30.3897 242.618 29.2317C242.618 28.077 241.931 27.3735 240.891 27.3735C239.851 27.3735 239.164 28.0804 239.164 29.2317C239.164 30.3897 239.844 31.0866 240.891 31.0866ZM240.891 30.4234C240.359 30.4234 240.015 29.9925 240.015 29.2317C240.015 28.4743 240.362 28.04 240.891 28.04C241.423 28.04 241.766 28.4743 241.766 29.2317C241.766 29.9925 241.423 30.4234 240.891 30.4234Z" fill="#506677"/>
<path d="M244.954 32.0561L246.677 26.1582H245.917L244.193 32.0561H244.954Z" fill="#506677"/>
<path d="M250.522 31.0159C251.559 31.0159 252.188 30.4907 252.188 29.6357C252.188 28.9927 251.727 28.518 251.067 28.4541V28.4271C251.565 28.3463 251.953 27.8919 251.953 27.3701C251.953 26.6329 251.384 26.1582 250.502 26.1582H248.485V31.0159H250.522ZM249.354 26.8349H250.283C250.801 26.8349 251.094 27.0739 251.094 27.498C251.094 27.9491 250.754 28.205 250.148 28.205H249.354V26.8349ZM249.354 30.3392V28.821H250.286C250.953 28.821 251.303 29.0802 251.303 29.5751C251.303 30.0733 250.963 30.3392 250.323 30.3392H249.354Z" fill="#506677"/>
<path d="M255.888 27.4475H255.05V29.5111C255.05 30.0295 254.75 30.3729 254.265 30.3729C253.794 30.3729 253.545 30.0968 253.545 29.5852V27.4475H252.707V29.7535C252.707 30.5782 253.198 31.0798 253.972 31.0798C254.514 31.0798 254.875 30.8307 255.063 30.3965H255.08V31.0159H255.888V27.4475Z" fill="#506677"/>
<path d="M256.511 28.4709C256.511 28.9994 256.854 29.3361 257.537 29.4875L258.13 29.6188C258.503 29.703 258.631 29.8242 258.631 30.0396C258.631 30.3056 258.379 30.4739 257.972 30.4739C257.547 30.4739 257.308 30.2988 257.244 29.9521H256.42C256.487 30.6422 257.039 31.0866 257.972 31.0866C258.847 31.0866 259.466 30.6321 259.466 29.9588C259.466 29.4404 259.18 29.1543 258.44 28.9893L257.847 28.858C257.473 28.7739 257.325 28.6325 257.325 28.4271C257.325 28.1646 257.571 27.9895 257.941 27.9895C258.328 27.9895 258.567 28.1949 258.601 28.518H259.382C259.362 27.8414 258.81 27.3735 257.941 27.3735C257.079 27.3735 256.511 27.8178 256.511 28.4709Z" fill="#506677"/>
<path d="M260.439 26.9089C260.695 26.9089 260.897 26.7036 260.897 26.4545C260.897 26.202 260.695 26 260.439 26C260.183 26 259.978 26.202 259.978 26.4545C259.978 26.7036 260.183 26.9089 260.439 26.9089ZM260.022 31.0159H260.86V27.4475H260.022V31.0159Z" fill="#506677"/>
<path d="M261.563 31.0159H262.402V28.9489C262.402 28.4372 262.708 28.0905 263.189 28.0905C263.667 28.0905 263.903 28.3733 263.903 28.8782V31.0159H264.741V28.7099C264.741 27.8852 264.294 27.3802 263.506 27.3802C262.957 27.3802 262.577 27.636 262.385 28.0602H262.368V27.4475H261.563V31.0159Z" fill="#506677"/>
<path d="M267.778 29.9487C267.687 30.245 267.391 30.4402 267 30.4402C266.451 30.4402 266.101 30.0565 266.101 29.4842V29.4337H268.596V29.161C268.596 28.077 267.963 27.3735 266.95 27.3735C265.92 27.3735 265.266 28.1174 265.266 29.2452C265.266 30.383 265.913 31.0866 266.983 31.0866C267.828 31.0866 268.454 30.622 268.562 29.9487H267.778ZM266.953 28.0232C267.434 28.0232 267.758 28.3766 267.774 28.8816H266.108C266.142 28.3834 266.482 28.0232 266.953 28.0232Z" fill="#506677"/>
<path d="M269.074 28.4709C269.074 28.9994 269.417 29.3361 270.101 29.4875L270.693 29.6188C271.067 29.703 271.195 29.8242 271.195 30.0396C271.195 30.3056 270.942 30.4739 270.535 30.4739C270.111 30.4739 269.872 30.2988 269.808 29.9521H268.983C269.05 30.6422 269.602 31.0866 270.535 31.0866C271.41 31.0866 272.029 30.6321 272.029 29.9588C272.029 29.4404 271.743 29.1543 271.003 28.9893L270.41 28.858C270.037 28.7739 269.888 28.6325 269.888 28.4271C269.888 28.1646 270.134 27.9895 270.504 27.9895C270.892 27.9895 271.131 28.1949 271.164 28.518H271.945C271.925 27.8414 271.373 27.3735 270.504 27.3735C269.643 27.3735 269.074 27.8178 269.074 28.4709Z" fill="#506677"/>
<path d="M272.501 28.4709C272.501 28.9994 272.844 29.3361 273.527 29.4875L274.12 29.6188C274.494 29.703 274.622 29.8242 274.622 30.0396C274.622 30.3056 274.369 30.4739 273.962 30.4739C273.538 30.4739 273.299 30.2988 273.235 29.9521H272.41C272.477 30.6422 273.029 31.0866 273.962 31.0866C274.837 31.0866 275.456 30.6321 275.456 29.9588C275.456 29.4404 275.17 29.1543 274.43 28.9893L273.837 28.858C273.464 28.7739 273.315 28.6325 273.315 28.4271C273.315 28.1646 273.561 27.9895 273.931 27.9895C274.319 27.9895 274.558 28.1949 274.591 28.518H275.372C275.352 27.8414 274.8 27.3735 273.931 27.3735C273.07 27.3735 272.501 27.8178 272.501 28.4709Z" fill="#506677"/>
<path d="M283.65 31.0159V26.8921H285.101V26.1582H281.331V26.8921H282.785V31.0159H283.65Z" fill="#506677"/>
<path d="M285.636 31.0159H286.474V28.9658C286.474 28.4406 286.781 28.0905 287.286 28.0905C287.771 28.0905 288.02 28.3901 288.02 28.8883V31.0159H288.858V28.7166C288.858 27.8986 288.397 27.3802 287.609 27.3802C287.067 27.3802 286.673 27.6259 286.481 28.0602H286.464V26.1582H285.636V31.0159Z" fill="#506677"/>
<path d="M291.894 29.9487C291.803 30.245 291.507 30.4402 291.117 30.4402C290.568 30.4402 290.218 30.0565 290.218 29.4842V29.4337H292.712V29.161C292.712 28.077 292.079 27.3735 291.066 27.3735C290.036 27.3735 289.383 28.1174 289.383 29.2452C289.383 30.383 290.029 31.0866 291.1 31.0866C291.945 31.0866 292.571 30.622 292.679 29.9487H291.894ZM291.07 28.0232C291.551 28.0232 291.874 28.3766 291.891 28.8816H290.225C290.258 28.3834 290.598 28.0232 291.07 28.0232Z" fill="#506677"/>
<path d="M293.254 31.0159H294.093V28.8311C294.093 28.4002 294.375 28.0871 294.779 28.0871C295.17 28.0871 295.412 28.3329 295.412 28.7301V31.0159H296.227V28.8109C296.227 28.3834 296.503 28.0871 296.907 28.0871C297.317 28.0871 297.546 28.3362 297.546 28.7739V31.0159H298.385V28.5685C298.385 27.8549 297.923 27.3802 297.22 27.3802C296.705 27.3802 296.281 27.6562 296.109 28.0972H296.089C295.957 27.6394 295.597 27.3802 295.092 27.3802C294.608 27.3802 294.231 27.6529 294.076 28.0669H294.059V27.4475H293.254V31.0159Z" fill="#506677"/>
<path d="M301.421 29.9487C301.33 30.245 301.034 30.4402 300.643 30.4402C300.095 30.4402 299.745 30.0565 299.745 29.4842V29.4337H302.239V29.161C302.239 28.077 301.606 27.3735 300.593 27.3735C299.563 27.3735 298.91 28.1174 298.91 29.2452C298.91 30.383 299.556 31.0866 300.627 31.0866C301.472 31.0866 302.098 30.622 302.205 29.9487H301.421ZM300.596 28.0232C301.078 28.0232 301.401 28.3766 301.418 28.8816H299.751C299.785 28.3834 300.125 28.0232 300.596 28.0232Z" fill="#506677"/>
<path d="M302.717 28.4709C302.717 28.9994 303.06 29.3361 303.744 29.4875L304.336 29.6188C304.71 29.703 304.838 29.8242 304.838 30.0396C304.838 30.3056 304.585 30.4739 304.178 30.4739C303.754 30.4739 303.515 30.2988 303.451 29.9521H302.626C302.694 30.6422 303.246 31.0866 304.178 31.0866C305.053 31.0866 305.673 30.6321 305.673 29.9588C305.673 29.4404 305.387 29.1543 304.646 28.9893L304.054 28.858C303.68 28.7739 303.532 28.6325 303.532 28.4271C303.532 28.1646 303.777 27.9895 304.148 27.9895C304.535 27.9895 304.774 28.1949 304.808 28.518H305.589C305.568 27.8414 305.016 27.3735 304.148 27.3735C303.286 27.3735 302.717 27.8178 302.717 28.4709Z" fill="#506677"/>
<path d="M311.813 26.1582V31.0159H312.681V29.4101H313.664C314.647 29.4101 315.338 28.7537 315.338 27.7842C315.338 26.8147 314.668 26.1582 313.701 26.1582H311.813ZM312.681 26.8685H313.473C314.095 26.8685 314.456 27.2018 314.456 27.7842C314.456 28.3733 314.092 28.7099 313.469 28.7099H312.681V26.8685Z" fill="#506677"/>
<path d="M315.913 31.0159H316.751V26.1582H315.913V31.0159Z" fill="#506677"/>
<path d="M320.629 27.4475H319.791V29.5111C319.791 30.0295 319.492 30.3729 319.007 30.3729C318.536 30.3729 318.286 30.0968 318.286 29.5852V27.4475H317.448V29.7535C317.448 30.5782 317.94 31.0798 318.714 31.0798C319.256 31.0798 319.616 30.8307 319.805 30.3965H319.822V31.0159H320.629V27.4475Z" fill="#506677"/>
<path d="M322.888 32.3624C323.928 32.3624 324.612 31.8103 324.612 30.9586V27.4475H323.79V28.0602H323.777C323.572 27.6495 323.161 27.3869 322.653 27.3869C321.74 27.3869 321.168 28.0905 321.168 29.2182C321.168 30.3291 321.754 31.0192 322.636 31.0192C323.147 31.0192 323.568 30.7634 323.753 30.3796H323.774V30.9822C323.774 31.4367 323.461 31.743 322.915 31.743C322.518 31.743 322.212 31.5578 322.121 31.2852H321.289C321.373 31.9113 322.006 32.3624 322.888 32.3624ZM322.892 30.3527C322.363 30.3527 322.026 29.9285 322.026 29.2216C322.026 28.5214 322.363 28.077 322.892 28.077C323.427 28.077 323.774 28.5281 323.774 29.2216C323.774 29.9184 323.427 30.3527 322.892 30.3527Z" fill="#506677"/>
<path d="M325.733 26.9089C325.989 26.9089 326.191 26.7036 326.191 26.4545C326.191 26.202 325.989 26 325.733 26C325.477 26 325.272 26.202 325.272 26.4545C325.272 26.7036 325.477 26.9089 325.733 26.9089ZM325.315 31.0159H326.154V27.4475H325.315V31.0159Z" fill="#506677"/>
<path d="M326.857 31.0159H327.695V28.9489C327.695 28.4372 328.002 28.0905 328.483 28.0905C328.961 28.0905 329.197 28.3733 329.197 28.8782V31.0159H330.035V28.7099C330.035 27.8852 329.587 27.3802 328.8 27.3802C328.251 27.3802 327.87 27.636 327.679 28.0602H327.662V27.4475H326.857V31.0159Z" fill="#506677"/>
<path d="M330.644 28.4709C330.644 28.9994 330.988 29.3361 331.671 29.4875L332.264 29.6188C332.637 29.703 332.765 29.8242 332.765 30.0396C332.765 30.3056 332.513 30.4739 332.105 30.4739C331.681 30.4739 331.442 30.2988 331.378 29.9521H330.553C330.621 30.6422 331.173 31.0866 332.105 31.0866C332.981 31.0866 333.6 30.6321 333.6 29.9588C333.6 29.4404 333.314 29.1543 332.573 28.9893L331.981 28.858C331.607 28.7739 331.459 28.6325 331.459 28.4271C331.459 28.1646 331.705 27.9895 332.075 27.9895C332.462 27.9895 332.701 28.1949 332.735 28.518H333.516C333.496 27.8414 332.944 27.3735 332.075 27.3735C331.213 27.3735 330.644 27.8178 330.644 28.4709Z" fill="#506677"/>
<path d="M339.74 26.1582V31.0159H341.514C342.969 31.0159 343.824 30.1137 343.824 28.5753C343.824 27.0368 342.965 26.1582 341.514 26.1582H339.74ZM340.609 26.8921H341.423C342.393 26.8921 342.938 27.4913 342.938 28.5786C342.938 29.6862 342.4 30.282 341.423 30.282H340.609V26.8921Z" fill="#506677"/>
<path d="M346.793 29.9487C346.702 30.245 346.406 30.4402 346.015 30.4402C345.466 30.4402 345.116 30.0565 345.116 29.4842V29.4337H347.611V29.161C347.611 28.077 346.978 27.3735 345.965 27.3735C344.934 27.3735 344.281 28.1174 344.281 29.2452C344.281 30.383 344.928 31.0866 345.998 31.0866C346.843 31.0866 347.469 30.622 347.577 29.9487H346.793ZM345.968 28.0232C346.449 28.0232 346.773 28.3766 346.789 28.8816H345.123C345.157 28.3834 345.497 28.0232 345.968 28.0232Z" fill="#506677"/>
<path d="M351.26 27.4475H350.385L349.556 30.2382H349.54L348.712 27.4475H347.816L349.082 31.0159H350.004L351.26 27.4475Z" fill="#506677"/>
<path d="M353.909 29.9487C353.818 30.245 353.522 30.4402 353.132 30.4402C352.583 30.4402 352.233 30.0565 352.233 29.4842V29.4337H354.727V29.161C354.727 28.077 354.094 27.3735 353.081 27.3735C352.051 27.3735 351.398 28.1174 351.398 29.2452C351.398 30.383 352.044 31.0866 353.115 31.0866C353.96 31.0866 354.586 30.622 354.694 29.9487H353.909ZM353.084 28.0232C353.566 28.0232 353.889 28.3766 353.906 28.8816H352.239C352.273 28.3834 352.613 28.0232 353.084 28.0232Z" fill="#506677"/>
<path d="M355.293 31.0159H356.131V26.1582H355.293V31.0159Z" fill="#506677"/>
<path d="M358.423 31.0866C359.47 31.0866 360.15 30.3897 360.15 29.2317C360.15 28.077 359.464 27.3735 358.423 27.3735C357.383 27.3735 356.697 28.0804 356.697 29.2317C356.697 30.3897 357.377 31.0866 358.423 31.0866ZM358.423 30.4234C357.892 30.4234 357.548 29.9925 357.548 29.2317C357.548 28.4743 357.895 28.04 358.423 28.04C358.955 28.04 359.299 28.4743 359.299 29.2317C359.299 29.9925 358.955 30.4234 358.423 30.4234Z" fill="#506677"/>
<path d="M362.648 27.3869C362.13 27.3869 361.726 27.6495 361.524 28.0636H361.507V27.4475H360.689V32.1907H361.527V30.4234H361.544C361.739 30.824 362.143 31.0731 362.662 31.0731C363.557 31.0731 364.129 30.3695 364.129 29.2317C364.129 28.0905 363.554 27.3869 362.648 27.3869ZM362.392 30.3864C361.871 30.3864 361.524 29.9319 361.52 29.2317C361.524 28.5382 361.871 28.077 362.392 28.077C362.934 28.077 363.271 28.5281 363.271 29.2317C363.271 29.9386 362.934 30.3864 362.392 30.3864Z" fill="#506677"/>
<path d="M371.142 31.0159V29.0331H373.178V28.3261H371.142V26.8921H373.37V26.1582H370.273V31.0159H371.142Z" fill="#506677"/>
<path d="M375.383 31.0866C376.43 31.0866 377.11 30.3897 377.11 29.2317C377.11 28.077 376.423 27.3735 375.383 27.3735C374.343 27.3735 373.656 28.0804 373.656 29.2317C373.656 30.3897 374.336 31.0866 375.383 31.0866ZM375.383 30.4234C374.851 30.4234 374.508 29.9925 374.508 29.2317C374.508 28.4743 374.855 28.04 375.383 28.04C375.915 28.04 376.258 28.4743 376.258 29.2317C376.258 29.9925 375.915 30.4234 375.383 30.4234Z" fill="#506677"/>
<path d="M377.649 31.0159H378.487V28.9388C378.487 28.4372 378.773 28.1309 379.248 28.1309C379.389 28.1309 379.517 28.1511 379.588 28.178V27.4206C379.527 27.4071 379.433 27.3869 379.325 27.3869C378.904 27.3869 378.591 27.636 378.47 28.0703H378.453V27.4475H377.649V31.0159Z" fill="#506677"/>
<path d="M383.183 27.4475H382.345V29.5111C382.345 30.0295 382.045 30.3729 381.56 30.3729C381.089 30.3729 380.84 30.0968 380.84 29.5852V27.4475H380.002V29.7535C380.002 30.5782 380.493 31.0798 381.267 31.0798C381.809 31.0798 382.17 30.8307 382.358 30.3965H382.375V31.0159H383.183V27.4475Z" fill="#506677"/>
<path d="M383.87 31.0159H384.708V28.8311C384.708 28.4002 384.991 28.0871 385.395 28.0871C385.785 28.0871 386.028 28.3329 386.028 28.7301V31.0159H386.842V28.8109C386.842 28.3834 387.118 28.0871 387.522 28.0871C387.933 28.0871 388.162 28.3362 388.162 28.7739V31.0159H389V28.5685C389 27.8549 388.539 27.3802 387.835 27.3802C387.32 27.3802 386.896 27.6562 386.724 28.0972H386.704C386.573 27.6394 386.213 27.3802 385.708 27.3802C385.223 27.3802 384.846 27.6529 384.691 28.0669H384.674V27.4475H383.87V31.0159Z" fill="#506677"/>
<path d="M49 28.9378H49.9082L49.0154 34.2963H51.3385L52.2308 28.9381H53.3989L53.7522 27.1575L52.5138 27.1702C52.6334 26.4953 52.7189 26.0939 53.5709 25.8345C53.8923 25.7367 54.1366 25.6083 54.4047 25.6931L54.7917 24.1386C54.3153 23.995 53.7522 23.9784 53.2583 24.0196C51.0777 24.2014 50.4889 25.3904 50.1912 27.1711H49.283L49 28.9378Z" fill="#506677"/>
<path d="M58.419 27.2897H60.5833L59.6537 33.1426C59.6283 33.3129 59.6144 33.4848 59.6122 33.657C59.6094 33.8201 59.6233 33.9831 59.6537 34.1433H57.642C57.642 34.1433 57.5874 33.9768 57.5874 33.657C57.5874 33.5457 57.5874 33.4068 57.6013 33.2539H57.5874C57.0048 33.921 56.1445 34.2965 55.2566 34.2965C53.5802 34.1532 52.8611 32.964 52.8611 31.3378C52.8611 29.2253 54.0217 27.2178 56.3804 27.2178C57.102 27.2178 57.9344 27.4163 58.309 28.0834C58.3358 27.8181 58.3773 27.555 58.419 27.2897ZM56.5816 28.9307C55.4439 28.9307 54.7501 30.0148 54.7501 31.0711C54.7501 31.8643 55.208 32.4474 56.0265 32.4474C57.1642 32.4474 57.858 31.3632 57.858 30.3067C57.858 29.5138 57.4001 28.9299 56.5816 28.9299V28.9307Z" fill="#506677"/>
<path d="M66.0292 29.6462C65.6947 29.1909 65.0924 28.984 64.557 28.984C63.4596 28.984 62.6966 29.9913 62.6966 31.0815C62.6966 31.9503 63.2454 32.4613 64.0753 32.4613C64.6508 32.4613 65.3466 32.2129 65.8017 31.8403L65.9892 33.5237C65.3466 34.0619 64.2491 34.2965 63.4609 34.2965C61.7877 34.2965 60.5833 33.151 60.5833 31.4124C60.5833 29.0942 62.2831 27.2178 64.5717 27.2178C65.2275 27.2178 65.8933 27.281 66.375 27.8053L66.0292 29.6462Z" fill="#506677"/>
<path d="M69.9588 27.1688H71.5231L71.2133 28.9082H69.6637C69.5014 29.8557 69.2061 30.9023 69.2061 31.8637C69.2061 32.2739 69.4128 32.4014 69.8113 32.4014C70.0536 32.4015 70.2938 32.3583 70.5195 32.2739L70.3424 34.0699C69.7965 34.1973 69.2505 34.2964 68.6749 34.2964C67.509 34.2964 66.8164 33.7871 66.8164 32.6268C66.8164 31.3962 67.1704 30.0945 67.3623 28.9074H66.375L66.67 27.1679H67.6588L67.8064 26.2914C67.8297 26.1037 67.8394 25.9147 67.8354 25.7257C67.8372 25.579 67.8275 25.4324 67.8064 25.2871H70.0938C70.0938 25.2871 70.1382 25.4427 70.1382 25.7538C70.1371 25.9671 70.1177 26.1799 70.0802 26.3902L69.9588 27.1688Z" fill="#506677"/>
<path d="M74.1562 34.2965C72.3086 34.2965 70.8796 33.2892 70.8796 31.4263C70.8796 29.0253 72.7704 27.2178 75.3253 27.2178C77.1874 27.2178 78.6019 28.2389 78.6019 30.1015C78.6027 32.5026 76.7256 34.2965 74.1562 34.2965ZM75.0367 28.984C73.8529 28.984 73.1746 30.0877 73.1746 31.1089C73.1746 31.8816 73.6078 32.4613 74.4593 32.4613C75.6428 32.4613 76.3214 31.3573 76.3214 30.3361C76.3214 29.5634 75.8882 28.984 75.0367 28.984Z" fill="#506677"/>
<path d="M83.2991 29.4318H83.1824C82.9502 29.3047 82.6601 29.2625 82.3988 29.2625C81.2961 29.2625 80.8606 30.32 80.7301 31.2084L80.2221 34.2965H77.9583L78.9161 28.374C78.9436 28.1777 78.9582 27.98 78.9597 27.7819C78.9615 27.6356 78.9519 27.4895 78.9312 27.3446H81.1804C81.1804 27.3446 81.2241 27.4997 81.2241 27.8099C81.2252 27.9854 81.206 28.1605 81.167 28.3318C81.5879 27.6831 82.2409 27.2178 83.0678 27.2178C83.2712 27.2178 83.5758 27.2455 83.75 27.3446L83.2991 29.4318Z" fill="#506677"/>
<path d="M45.3508 35H40.1569C39.9909 35.0006 39.8265 34.9682 39.6732 34.9047C39.5199 34.8412 39.3807 34.7478 39.2638 34.63L35.3052 30.67C35.1594 30.5241 35.0601 30.3382 35.02 30.1359C34.9798 29.9335 35.0005 29.7238 35.0795 29.5333C35.1586 29.3427 35.2923 29.1799 35.4639 29.0654C35.6354 28.9509 35.8371 28.8899 36.0433 28.8901H40.8917V24.0383C40.8917 23.8325 40.9528 23.6314 41.0673 23.4603C41.1818 23.2893 41.3444 23.1561 41.5346 23.0777C41.7253 23.0001 41.9345 22.9801 42.1364 23.0201C42.3383 23.0601 42.524 23.1583 42.6707 23.3028L46.6307 27.2615C46.7482 27.3787 46.8413 27.5181 46.9047 27.6715C46.9681 27.8249 47.0005 27.9893 47 28.1553V33.3508C46.9994 33.7881 46.8255 34.2074 46.5163 34.5165C46.2071 34.8257 45.788 34.9996 45.3508 35ZM40.3731 33.2152H45.2158V28.3714L42.6762 25.8311V30.6749H37.8339L40.3731 33.2152Z" fill="#506677"/>
</svg>
