<svg width="42" height="42" viewBox="0 0 42 42" fill="none" xmlns="http://www.w3.org/2000/svg">
<path d="M31.7119 39.644H5.06782C3.5763 39.644 2.35596 38.4236 2.35596 36.9321V10.288C2.35596 8.79651 3.5763 7.57617 5.06782 7.57617H31.7119C33.2034 7.57617 34.4238 8.79651 34.4238 10.288V36.9321C34.4238 38.4236 33.2034 39.644 31.7119 39.644Z" fill="transparent"/>
<path fill-rule="evenodd" clip-rule="evenodd" d="M5.0678 8.93257C4.32513 8.93257 3.71186 9.54583 3.71186 10.2885V36.9326C3.71186 37.6752 4.32513 38.2885 5.0678 38.2885H31.7119C32.4545 38.2885 33.0678 37.6752 33.0678 36.9326V10.2885C33.0678 9.54583 32.4545 8.93257 31.7119 8.93257H5.0678ZM1 10.2885C1 8.04811 2.82741 6.2207 5.0678 6.2207H31.7119C33.9522 6.2207 35.7797 8.04811 35.7797 10.2885V36.9326C35.7797 39.173 33.9522 41.0004 31.7119 41.0004H5.0678C2.82741 41.0004 1 39.173 1 36.9326V10.2885Z" fill="#0471FF" stroke="#0471FF" stroke-width="1.5" stroke-miterlimit="10"/>
<path d="M34.4237 12.7966C37.3068 12.7966 39.644 10.4594 39.644 7.5763C39.644 4.69318 37.3068 2.35596 34.4237 2.35596C31.5406 2.35596 29.2034 4.69318 29.2034 7.5763C29.2034 10.4594 31.5406 12.7966 34.4237 12.7966Z" fill="transparent"/>
<path fill-rule="evenodd" clip-rule="evenodd" d="M34.4237 3.71186C32.2894 3.71186 30.5593 5.44202 30.5593 7.57627C30.5593 9.71052 32.2894 11.4407 34.4237 11.4407C36.5579 11.4407 38.2881 9.71052 38.2881 7.57627C38.2881 5.44202 36.5579 3.71186 34.4237 3.71186ZM27.8474 7.57627C27.8474 3.9443 30.7917 1 34.4237 1C38.0557 1 41 3.9443 41 7.57627C41 11.2082 38.0557 14.1525 34.4237 14.1525C30.7917 14.1525 27.8474 11.2082 27.8474 7.57627Z" fill="#0471FF" stroke="#0471FF" stroke-width="1.5" stroke-miterlimit="10"/>
</svg>
