<svg width="50" height="50" viewBox="0 0 50 50" fill="none" xmlns="http://www.w3.org/2000/svg">
<path d="M6.10352e-05 25C6.10352e-05 38.8071 11.1929 50 25.0001 50C38.8072 50 50.0001 38.8071 50.0001 25C50.0001 11.1929 38.8072 0 25.0001 0C11.1929 0 6.10352e-05 11.1929 6.10352e-05 25Z" fill="#8B81EA"/>
<path d="M25.0001 49.5C11.4691 49.5 0.500061 38.531 0.500061 25C0.500061 11.469 11.4691 0.5 25.0001 0.5C38.531 0.5 49.5001 11.469 49.5001 25C49.5001 38.531 38.531 49.5 25.0001 49.5Z" stroke="black" stroke-opacity="0.1"/>
<path d="M37.8907 34.375V19.5312C37.8907 19.3155 37.7158 19.1406 37.5001 19.1406H12.8907C12.6749 19.1406 12.5001 19.3155 12.5001 19.5312V34.375C12.5001 34.5907 12.6749 34.7656 12.8907 34.7656H37.5001C37.7158 34.7656 37.8907 34.5907 37.8907 34.375Z" fill="#C9E9F8"/>
<path d="M36.7188 37.5H13.6719C13.0247 37.5 12.5001 36.9753 12.5001 36.3281V34.1864C12.5001 34.0597 12.5615 33.9408 12.6649 33.8676L24.9605 25.1597C25.0956 25.064 25.2765 25.064 25.4118 25.1596L37.7256 33.8676C37.8291 33.9408 37.8907 34.0597 37.8907 34.1865V36.3281C37.8907 36.9753 37.366 37.5 36.7188 37.5Z" fill="#EAF8FF"/>
<path d="M24.9665 10.1265L12.9244 18.8338C12.7127 18.9869 12.7081 19.3006 12.9151 19.4599L24.9572 28.7231C25.0976 28.8311 25.2931 28.8311 25.4335 28.7231L37.4756 19.4599C37.6827 19.3006 37.678 18.9869 37.4663 18.8338L25.4242 10.1265C25.2876 10.0277 25.1031 10.0277 24.9665 10.1265Z" fill="#A3D5F1"/>
<path d="M14.4532 12.8906C14.4532 12.6749 14.6281 12.5 14.8438 12.5H35.9376C36.1533 12.5 36.3282 12.6749 36.3282 12.8906V20.5057C36.3282 20.6298 36.2692 20.7466 36.1693 20.8202L25.4313 28.7324C25.2915 28.8354 25.1005 28.8338 24.9625 28.7284L14.6067 20.8204C14.51 20.7465 14.4532 20.6317 14.4532 20.5099V12.8906Z" fill="#7432E3"/>
<path d="M31.0547 19.5312H19.7266C19.403 19.5312 19.1407 19.7936 19.1407 20.1172C19.1407 20.4408 19.403 20.7031 19.7266 20.7031H31.0547C31.3784 20.7031 31.6407 20.4408 31.6407 20.1172C31.6407 19.7936 31.3784 19.5312 31.0547 19.5312Z" fill="#EAF8FF"/>
<path d="M31.0547 16.4062H19.7266C19.403 16.4062 19.1407 16.6686 19.1407 16.9922C19.1407 17.3158 19.403 17.5781 19.7266 17.5781H31.0547C31.3784 17.5781 31.6407 17.3158 31.6407 16.9922C31.6407 16.6686 31.3784 16.4062 31.0547 16.4062Z" fill="#EAF8FF"/>
</svg>
