<svg width="50" height="50" viewBox="0 0 50 50" fill="none" xmlns="http://www.w3.org/2000/svg">
<rect x="6.10352e-05" width="50" height="50" rx="25" fill="#2F80ED"/>
<rect x="0.500061" y="0.5" width="49" height="49" rx="24.5" stroke="black" stroke-opacity="0.1"/>
<path fill-rule="evenodd" clip-rule="evenodd" d="M11 9H39V41H11V9ZM14.1798 12.1933V37.8067H35.8202V12.1933H14.1798Z" fill="#6DA6F2"/>
<path d="M20.4953 19.627L19.0189 19.369V18.1389H21.8391C22.2681 18.1389 22.8233 18.1124 23.5047 18.0595C23.6688 18.0463 23.8644 18.0331 24.0915 18.0198C24.3186 18.0066 24.5836 18 24.8864 18C26.7918 18 28.123 18.2844 28.8801 18.8532C29.6498 19.4087 30.0347 20.2421 30.0347 21.3532C30.0347 22.332 29.7508 23.1521 29.183 23.8135C28.6278 24.4616 27.8959 24.8585 26.9874 25.004C28.2366 24.9907 29.2145 25.2884 29.9211 25.8968C30.6404 26.5053 31 27.3519 31 28.4365C31 29.8122 30.5394 30.9167 29.6183 31.75C28.6972 32.5833 27.1577 33 25 33C24.4322 33 23.9085 32.9802 23.429 32.9405C23.3028 32.9405 23.0883 32.9272 22.7855 32.9008C22.4826 32.8876 22.1735 32.881 21.858 32.881H19V31.6905L20.4953 31.4921V19.627ZM23.2397 24.5675C23.3785 24.5807 23.6625 24.5873 24.0915 24.5873H24.9811C25.7508 24.5873 26.3249 24.336 26.7035 23.8333C27.082 23.3307 27.2713 22.623 27.2713 21.7103C27.2713 20.8373 27.0757 20.2024 26.6845 19.8056C26.2934 19.4087 25.6435 19.2103 24.735 19.2103C24.4953 19.2103 23.9968 19.2368 23.2397 19.2897V24.5675ZM23.2397 31.5714C23.53 31.6905 24.0852 31.75 24.9054 31.75C25.9779 31.75 26.7539 31.4854 27.2334 30.9563C27.7129 30.4272 27.9527 29.6601 27.9527 28.6548C27.9527 27.6892 27.7319 27.0013 27.2902 26.5913C26.8612 26.168 26.1735 25.9563 25.2271 25.9563C24.1672 25.9563 23.5047 25.9696 23.2397 25.996V31.5714Z" fill="white"/>
</svg>
