<svg width="50" height="50" viewBox="0 0 50 50" fill="none" xmlns="http://www.w3.org/2000/svg">
<path d="M38.3473 47.7613H8.70438C7.89001 47.7613 7.23853 47.1098 7.23853 46.2954V3.70414C7.23853 2.88977 7.89001 2.23828 8.70438 2.23828H38.3473C39.1616 2.23828 39.8132 2.88977 39.8132 3.70414V46.2141C39.8945 47.1098 39.1616 47.7613 38.3473 47.7613Z" fill="#8ECCFD"/>
<path fill-rule="evenodd" clip-rule="evenodd" d="M8.86722 3.86722V46.1328H38.1844V3.86722H8.86722ZM5.60976 3.70434C5.60976 1.99045 6.99045 0.609756 8.70434 0.609756H38.3472C40.0611 0.609756 41.4418 1.99045 41.4418 3.70434V46.1523C41.5689 48.0967 39.9471 49.3902 38.3472 49.3902H8.70434C6.99045 49.3902 5.60976 48.0095 5.60976 46.2956V3.70434Z" fill="#0496FF"/>
<path fill-rule="evenodd" clip-rule="evenodd" d="M9.47698 4.47698V45.523H37.5746V4.47698H9.47698ZM5 3.70434C5 1.6537 6.6537 0 8.70434 0H38.3472C40.3979 0 42.0516 1.6537 42.0516 3.70434V46.1333C42.1928 48.4784 40.2299 50 38.3472 50H8.70434C6.6537 50 5 48.3463 5 46.2956V3.70434ZM41.4418 46.1523V3.70434C41.4418 1.99045 40.0611 0.609756 38.3472 0.609756H8.70434C6.99045 0.609756 5.60976 1.99045 5.60976 3.70434V46.2956C5.60976 48.0095 6.99045 49.3902 8.70434 49.3902H38.3472C39.9471 49.3902 41.5689 48.0967 41.4418 46.1523ZM8.86722 3.86722H38.1844V46.1328H8.86722V3.86722Z" fill="#0496FF"/>
<path d="M14.3234 17.0601H33.2167C33.8682 17.0601 34.3568 17.5486 34.3568 18.2001C34.3568 18.8516 33.8682 19.3402 33.2167 19.3402H14.3234C13.6719 19.3402 13.1833 18.8516 13.1833 18.2001C13.1019 17.6301 13.6719 17.0601 14.3234 17.0601Z" fill="#0496FF"/>
<path d="M14.3234 21.8649H33.2167C33.8682 21.8649 34.3568 22.3535 34.3568 23.005C34.3568 23.6565 33.8682 24.1451 33.2167 24.1451H14.3234C13.6719 24.1451 13.1833 23.6565 13.1833 23.005C13.1019 22.3535 13.6719 21.8649 14.3234 21.8649Z" fill="#0496FF"/>
<path d="M14.3234 26.5065H33.2167C33.8682 26.5065 34.3568 26.9951 34.3568 27.6465C34.3568 28.2981 33.8682 28.7866 33.2167 28.7866H14.3234C13.6719 28.7866 13.1833 28.2981 13.1833 27.6465C13.1019 27.0765 13.6719 26.5065 14.3234 26.5065Z" fill="#0496FF"/>
<path d="M14.3234 31.2297H33.2167C33.8682 31.2297 34.3568 31.7184 34.3568 32.3699C34.3568 33.0213 33.8682 33.51 33.2167 33.51H14.3234C13.6719 33.51 13.1833 33.0213 13.1833 32.3699C13.1019 31.7997 13.6719 31.2297 14.3234 31.2297Z" fill="#0496FF"/>
</svg>
