<svg width="50" height="50" viewBox="0 0 50 50" fill="none" xmlns="http://www.w3.org/2000/svg">
<path d="M25.3678 50.0005C15.7924 50.0005 8 42.2082 8 32.6327V24.0183C8 23.3043 8.57893 22.7254 9.29294 22.7254H15.4527L15.4296 2.7871L10.582 5.77051V17.1252C10.582 17.8392 10.0031 18.4181 9.28908 18.4181C8.57507 18.4181 8 17.8392 8 17.1252V5.62384C8 4.82493 8.42455 4.0646 9.10382 3.64777L14.4763 0.34403C15.1941 -0.095955 16.0934 -0.115253 16.8267 0.293856C17.56 0.702964 18.0154 1.47873 18.0154 2.3201L18.0386 22.7292H25.3717C30.8329 22.7292 35.2752 27.1715 35.2752 32.6327C35.2752 38.0939 30.8329 42.5362 25.3717 42.5362C19.9105 42.5362 15.4682 38.0939 15.4682 32.6327L15.4604 25.3112H10.582V32.6327C10.582 40.784 17.2127 47.4185 25.3678 47.4185C33.523 47.4185 40.1536 40.7879 40.1536 32.6327C40.1536 24.4776 33.5191 17.8469 25.3678 17.8469H23.1254C22.4114 17.8469 21.8325 17.268 21.8325 16.554C21.8325 15.84 22.4114 15.2611 23.1254 15.2611H25.3678C34.9433 15.2611 42.7356 23.0534 42.7356 32.6289C42.7356 42.2043 34.9433 50.0005 25.3678 50.0005ZM18.0386 25.3112L18.0463 32.6327C18.0463 36.6698 21.3308 39.9542 25.3678 39.9542C29.4049 39.9542 32.6893 36.6698 32.6893 32.6327C32.6893 28.5957 29.4049 25.3112 25.3678 25.3112H18.0386Z" fill="#4949e4"/>
</svg>
