<svg width="50" height="50" viewBox="0 0 50 50" fill="none" xmlns="http://www.w3.org/2000/svg">
<path d="M44.3255 34.5065C38.3754 37.0114 31.9926 38.328 25.537 38.382C16.8536 38.3717 8.32247 36.1004 0.783387 31.7918C0.176156 31.4346 -0.288198 32.0597 0.211875 32.524C7.0079 38.652 15.8506 42.0158 25.0012 41.954C32.2203 41.9796 39.279 39.8259 45.2542 35.7745C46.1114 35.0958 45.3256 34.0957 44.4147 34.5065H44.3255ZM49.6834 31.381C49.094 30.6488 43.9504 30.0058 40.7535 32.2026C40.2713 32.5598 40.3606 33.0241 40.8785 32.9527C42.6645 32.7384 46.5936 32.274 47.2902 33.167C47.9867 34.06 46.5043 37.7569 45.8435 39.4179C45.6471 39.9001 46.0757 40.1144 46.5222 39.7215C49.6477 37.2569 50.4156 32.1311 49.8084 31.381H49.6834Z" fill="#FF9A00"/>
<path d="M14.7569 25.594C14.5578 25.2046 14.3789 24.8052 14.2211 24.3974C14.0945 23.9137 14.0344 23.4149 14.0425 22.915V17.5571C14.1073 16.8009 14.0155 16.0395 13.7727 15.3204C13.53 14.6013 13.1415 13.94 12.6316 13.3779C11.4099 12.3776 9.84743 11.891 8.2738 12.0206C7.4003 12.0152 6.52981 12.1232 5.68414 12.342C4.93331 12.5195 4.20742 12.7894 3.52311 13.1457C3.34323 13.228 3.18444 13.3502 3.05875 13.5029C2.97276 13.6805 2.93577 13.8778 2.9516 14.0744V14.896C2.9516 15.2353 3.05875 15.4139 3.29093 15.4139H3.55883L4.20178 15.1639C4.78448 14.936 5.38099 14.7451 5.98775 14.5924C6.57316 14.4542 7.17225 14.3823 7.77373 14.378C8.74345 14.2785 9.71456 14.5532 10.4884 15.146C11.0813 15.8991 11.3568 16.8539 11.2564 17.8071V19.0216C10.5956 18.8608 9.97048 18.7358 9.34539 18.6465C8.75303 18.5698 8.15667 18.5281 7.55941 18.5215C6.10197 18.4419 4.66591 18.8994 3.52311 19.8074C3.02609 20.2221 2.63079 20.7452 2.36761 21.3366C2.10444 21.9279 1.9804 22.5718 2.00503 23.2186C1.97628 23.8079 2.07105 24.3968 2.28327 24.9473C2.49549 25.4979 2.82047 25.998 3.23735 26.4155C3.68011 26.8396 4.20453 27.1691 4.77869 27.384C5.35285 27.5989 5.96474 27.6948 6.57712 27.6657C7.51265 27.68 8.4392 27.4816 9.2869 27.0856C10.1346 26.6896 10.8813 26.1063 11.4707 25.3796C11.6247 25.7166 11.7976 26.0445 11.9886 26.3619C12.1578 26.6378 12.3553 26.8951 12.578 27.1299C12.6418 27.1998 12.7189 27.2563 12.8047 27.2962C12.8906 27.336 12.9835 27.3584 13.0781 27.3621C13.2331 27.3648 13.3843 27.3144 13.5067 27.2192L14.5604 26.5227C14.6382 26.4853 14.7065 26.4308 14.7603 26.3633C14.814 26.2957 14.8517 26.2169 14.8706 26.1327C14.8895 26.0485 14.8891 25.9611 14.8694 25.8771C14.8497 25.793 14.8112 25.7146 14.7569 25.6475V25.594ZM11.31 21.5577C11.3199 22.0448 11.2658 22.5312 11.1492 23.0043C11.0711 23.3987 10.9064 23.7708 10.667 24.0937C10.2403 24.576 9.70012 24.9442 9.09535 25.1653C8.52003 25.3591 7.91644 25.4557 7.30937 25.4511C6.82119 25.4305 6.35014 25.2652 5.95606 24.9764C5.56199 24.6875 5.26268 24.2879 5.09616 23.8286C4.92964 23.3692 4.90342 22.8707 5.02083 22.3964C5.13824 21.9221 5.39399 21.4934 5.75558 21.1647C6.4818 20.6802 7.34982 20.4537 8.22022 20.5218C8.73816 20.5218 9.25609 20.5218 9.79188 20.6111C10.3277 20.7004 10.8277 20.7897 11.31 20.8968V21.5577ZM19.5969 26.4155C19.6481 26.6624 19.7654 26.8908 19.9362 27.0763C20.1271 27.1989 20.353 27.2553 20.5792 27.2371H22.0079C22.2399 27.258 22.4723 27.2015 22.6688 27.0763C22.8393 26.8859 22.951 26.6502 22.9902 26.3976L25.5442 15.6818L28.1338 26.3976C28.1564 26.6462 28.2636 26.8795 28.4375 27.0585C28.6347 27.198 28.8758 27.2615 29.1161 27.2371H30.5449C30.7673 27.2488 30.9873 27.1859 31.17 27.0585C31.3491 26.8835 31.4733 26.66 31.5272 26.4155L35.6707 13.5743C35.7313 13.4452 35.7676 13.3059 35.7778 13.1636C35.7853 13.0744 35.7853 12.9848 35.7778 12.8957C35.7871 12.8396 35.7829 12.7822 35.7655 12.7281C35.7482 12.674 35.7182 12.6249 35.678 12.5847C35.6378 12.5446 35.5887 12.5146 35.5346 12.4972C35.4805 12.4798 35.4231 12.4756 35.367 12.4849H33.8132C33.5882 12.4778 33.3656 12.5335 33.1703 12.6456C33.0126 12.8307 32.9023 13.0514 32.8488 13.2886L29.9555 24.4331L27.2944 13.3779C27.2642 13.1367 27.1578 12.9115 26.9908 12.7349C26.7878 12.6097 26.5498 12.5533 26.3121 12.5742H24.9548C24.8362 12.5537 24.7145 12.5589 24.5981 12.5895C24.4817 12.6201 24.3732 12.6754 24.2801 12.7516C24.1869 12.8279 24.1112 12.9232 24.0581 13.0313C24.0051 13.1394 23.9759 13.2576 23.9725 13.3779L21.3829 24.3081L18.6146 13.3779C18.564 13.1397 18.4533 12.9184 18.2931 12.7349C18.0978 12.6072 17.8645 12.5504 17.6323 12.5742H16.0249C15.757 12.5742 15.632 12.7171 15.632 12.985C15.6466 13.2111 15.6948 13.4338 15.7749 13.6458L19.5969 26.4155ZM37.4566 26.7191C38.0597 27.0273 38.7029 27.2498 39.3676 27.3799C40.2045 27.5787 41.0614 27.6806 41.9216 27.6836C42.7328 27.6865 43.5398 27.5661 44.3148 27.3264C44.9658 27.1383 45.5729 26.8226 46.1007 26.3976C46.6081 26.0045 47.0227 25.5045 47.3152 24.9331C47.6096 24.3335 47.7565 23.6722 47.7438 23.0043C47.7558 22.1661 47.4853 21.3483 46.9759 20.6825C46.3549 19.9337 45.5296 19.3814 44.6005 19.093L42.243 18.3429C41.5902 18.1595 40.9822 17.8433 40.4571 17.4142C40.2965 17.2631 40.1692 17.0803 40.0831 16.8774C39.997 16.6745 39.9541 16.4559 39.957 16.2355C39.9408 15.9403 40.0054 15.6462 40.1438 15.385C40.2823 15.1238 40.4894 14.9053 40.7428 14.7531C41.3858 14.4333 42.0966 14.274 42.8146 14.2887C43.916 14.2687 45.0082 14.4944 46.0114 14.9496C46.2071 15.0502 46.4185 15.1167 46.6365 15.146C46.8866 15.146 47.0295 14.9674 47.0295 14.6102V13.8244C47.0418 13.6323 46.9847 13.4422 46.8687 13.2886C46.7397 13.1068 46.568 12.9596 46.3686 12.86C46.1451 12.7399 45.9122 12.6384 45.6721 12.5563C45.3685 12.5563 45.0649 12.3777 44.7255 12.3063L43.654 12.1099H42.5288C41.823 12.0975 41.1191 12.1877 40.4392 12.3777C39.7952 12.5574 39.1898 12.854 38.6532 13.2529C38.1596 13.6121 37.7511 14.0755 37.4566 14.6102C37.1581 15.1578 37.0044 15.7726 37.0101 16.3962C37.0178 17.2673 37.3059 18.1127 37.8317 18.8073C38.519 19.6377 39.4499 20.2312 40.4928 20.5039L42.9038 21.254C43.5268 21.3937 44.1043 21.6886 44.5827 22.1113C44.7329 22.2646 44.8512 22.4461 44.9309 22.6453C45.0106 22.8446 45.0501 23.0576 45.047 23.2722C45.0565 23.5912 44.9803 23.9068 44.8264 24.1864C44.6725 24.4659 44.4465 24.6991 44.1719 24.8617C43.4273 25.2613 42.5866 25.4468 41.743 25.3975C41.0771 25.4021 40.4126 25.3362 39.7605 25.201C39.1463 25.0757 38.5475 24.8841 37.9746 24.6295L37.5638 24.4509H37.2602C37.0101 24.4509 36.8673 24.6295 36.8673 24.9689V25.8797C36.8689 26.0404 36.9054 26.1989 36.9744 26.3441C37.1257 26.5205 37.3239 26.6505 37.5459 26.7191H37.4566Z" fill="#343B45"/>
</svg>
