<svg width="51" height="50" viewBox="0 0 51 50" fill="none" xmlns="http://www.w3.org/2000/svg">
<path d="M41.2225 35.5229H6.30634C4.17928 35.5229 2.43896 34.171 2.43896 32.5188V3.00405C2.43896 1.35182 4.17928 0 6.30634 0H44.3033C46.4304 0 48.1707 1.35182 48.1707 3.00405V32.5188C48.1707 33.2681 48.1707 39.6168 48.1707 42.0732C46.8442 40.7505 42.3595 36.6566 41.2225 35.5229Z" fill="#8ECCFD"/>
<path fill-rule="evenodd" clip-rule="evenodd" d="M45.5694 4.43056H4.43056L4.43055 35.5694L42.1875 35.5694L45.5694 38.8125V35.5694V4.43056ZM5.55556 0C2.48731 0 0 2.48731 0 5.55556V34.4444C0 37.5127 2.48731 40 5.55555 40H40.125L50 50C50 42.6875 50 37.5127 50 34.4444V5.55556C50 2.48731 47.5127 0 44.4444 0H5.55556Z" fill="#0496FF"/>
<path d="M9.72223 9.72217H39.6003V13.9878H9.72223V9.72217Z" fill="#0496FF"/>
<path d="M9.72217 17.9688H39.6002V22.237H9.72217V17.9688Z" fill="#0496FF"/>
<path d="M9.72217 26.5625H39.6002V30.8308H9.72217V26.5625Z" fill="#0496FF"/>
</svg>
