<svg xmlns="http://www.w3.org/2000/svg" width="150" height="62">
    <g data-name="Rectangle" fill="#fff" stroke="#e7e7e7" stroke-miterlimit="10">
        <rect width="150" height="62" rx="6" stroke="none" />
        <rect x=".5" y=".5" width="149" height="61" rx="5.5" fill="none" />
    </g>
    <g data-name="Group 1551">
        <g data-name="Path 3170">
            <path data-name="Path 3172"
                d="M23.256 16.255v10.5l5.89 8.964 7.171 4.354 3.842 5.126h8.707v-6.147L34.011 25.733v-9.477z"
                fill="none" />
            <path data-name="Path 3173"
                d="M23.255 16.255v10.5l5.891 8.964 7.171 4.354 3.842 5.122h8.708v-6.147l-7.632-6.842h4.876l4.928 4.418 1.082.97v10.855H38.53l-.976-1.3-3.464-4.62-6.634-4.028-.627-.381-.4-.613-5.891-8.965-.535-.814V13h17.266v11.278l.015 4.384-3.27-2.931v-9.476H23.258"
                fill="#4a2ee6" />
        </g>
        <path
            d="M52.585 20.221h-.742v-2.3a4.785 4.785 0 00-4.696-4.857 4.785 4.785 0 00-4.7 4.857v2.3h-.738a1.509 1.509 0 00-1.483 1.534v6.135a1.509 1.509 0 001.483 1.534h10.876a1.509 1.509 0 001.483-1.534v-6.135a1.509 1.509 0 00-1.483-1.534z" />
        <path data-name="Path" d="M49.372 20.22h-4.449v-2.3a2.266 2.266 0 012.225-2.3 2.266 2.266 0 012.224 2.3z"
            fill="#fff" />
    </g>
    <path data-name="Path 3177"
        d="M78.88 31.28a7.405 7.405 0 006.02-2.64l-2.52-2.28a4.138 4.138 0 01-3.3 1.64 3.754 3.754 0 01-3.9-4 3.754 3.754 0 013.9-4 4.138 4.138 0 013.3 1.64l2.52-2.28a7.405 7.405 0 00-6.02-2.64c-4.44 0-7.7 3.02-7.7 7.28s3.26 7.28 7.7 7.28zm14.46 0a7.405 7.405 0 006.02-2.64l-2.52-2.28a4.138 4.138 0 01-3.3 1.64 3.754 3.754 0 01-3.9-4 3.754 3.754 0 013.9-4 4.138 4.138 0 013.3 1.64l2.52-2.28a7.405 7.405 0 00-6.02-2.64c-4.44 0-7.7 3.02-7.7 7.28s3.26 7.28 7.7 7.28zM107.52 17h-6.4v14h3.96v-3.66h2.44c3.82 0 6.22-1.98 6.22-5.16 0-3.2-2.4-5.18-6.22-5.18zm-.24 7.22h-2.2v-4.1h2.2c1.64 0 2.46.76 2.46 2.06 0 1.28-.82 2.04-2.46 2.04zM125.44 31h4.12l-6.2-14h-3.9l-6.18 14h4.04l1.1-2.72h5.92zm-5.86-5.64l1.8-4.48 1.8 4.48z" />
    <path data-name="Path 3176"
        d="M74.68 46.08a3.473 3.473 0 002.67-1.1l-.65-.63a2.6 2.6 0 01-1.97.84 2.644 2.644 0 01-2.75-2.69 2.644 2.644 0 012.75-2.69 2.594 2.594 0 011.97.83l.65-.63a3.459 3.459 0 00-2.66-1.09 3.541 3.541 0 00-3.71 3.58 3.538 3.538 0 003.7 3.58zm7.11 0a3.547 3.547 0 003.71-3.58 3.547 3.547 0 00-3.71-3.58 3.558 3.558 0 00-3.73 3.58 3.558 3.558 0 003.73 3.58zm0-.89a2.633 2.633 0 01-2.73-2.69 2.633 2.633 0 012.73-2.69 2.628 2.628 0 012.71 2.69 2.628 2.628 0 01-2.71 2.69zm12.69.81l-.01-7h-.82l-2.88 4.92L87.85 39h-.82v7h.96v-5.07l2.53 4.22h.46l2.53-4.25.01 5.1zm4.83-7h-2.73v7h1v-2.12h1.73c1.82 0 2.92-.92 2.92-2.44S101.13 39 99.31 39zm-.03 4.01h-1.7v-3.14h1.7c1.28 0 1.95.57 1.95 1.57s-.67 1.57-1.95 1.57zM103.7 46h4.79v-.87h-3.79V39h-1zm5.94 0h1v-7h-1zm8.33 0h1.05l-3.18-7h-.99l-3.17 7h1.03l.77-1.75h3.72zm-4.14-2.55l1.51-3.43 1.51 3.43zM125.08 39v5.22l-4.2-5.22h-.82v7h1v-5.22l4.2 5.22h.82v-7zm4.49 7h.99v-6.13h2.4V39h-5.79v.87h2.4z" />
</svg>