<svg width="46" height="37" viewBox="0 0 46 37" fill="none" xmlns="http://www.w3.org/2000/svg">
<path d="M14.2938 37C31.4646 37 40.8602 22.7608 40.8602 10.4336C40.8602 10.033 40.8602 9.63238 40.842 9.23179C42.6629 7.92077 44.247 6.26378 45.5034 4.38829C43.8282 5.13484 42.0256 5.62648 40.1319 5.86319C42.062 4.71604 43.5369 2.87697 44.247 0.691928C42.4444 1.76624 40.4414 2.531 38.311 2.9498C36.5994 1.12894 34.1777 0 31.501 0C26.3479 0 22.1599 4.18799 22.1599 9.34104C22.1599 10.0694 22.251 10.7795 22.3967 11.4715C14.6398 11.0891 7.75689 7.3563 3.1501 1.71161C2.34892 3.09547 1.8937 4.69784 1.8937 6.40945C1.8937 9.65059 3.55069 12.5093 6.04528 14.1845C4.51575 14.1299 3.07726 13.7111 1.82087 13.0192C1.82087 13.0556 1.82087 13.092 1.82087 13.1467C1.82087 17.6624 5.0438 21.4498 9.30463 22.3056C8.52165 22.5241 7.70226 22.6334 6.84646 22.6334C6.24557 22.6334 5.66289 22.5787 5.09842 22.4695C6.28199 26.1841 9.74163 28.8789 13.8204 28.9518C10.6156 31.4646 6.59154 32.9577 2.22146 32.9577C1.4749 32.9577 0.728346 32.9213 0 32.8302C4.11516 35.4523 9.0315 37 14.2938 37Z" fill="white"/>
</svg>
