<svg width="37" height="37" viewBox="0 0 37 37" fill="none" xmlns="http://www.w3.org/2000/svg">
<g clip-path="url(#clip0_138_494)">
<path d="M0 18.5C0 8.28273 8.28273 0 18.5 0V0C28.7173 0 37 8.28273 37 18.5V18.5C37 28.7173 28.7173 37 18.5 37V37C8.28273 37 0 28.7173 0 18.5V18.5Z" fill="url(#paint0_linear_138_494)"/>
<path d="M29.8469 29.9698C30.7513 31.6965 31.2035 37.9865 31.2035 37.9865H5.79688C5.79688 37.9865 6.24914 31.6965 7.15354 29.9698C8.51021 27.3798 18.5002 24.0498 18.5002 24.0498C18.5002 24.0498 28.4902 27.3798 29.8469 29.9698Z" fill="url(#paint1_linear_138_494)"/>
<mask id="mask0_138_494" style="mask-type:alpha" maskUnits="userSpaceOnUse" x="5" y="24" width="27" height="14">
<path d="M29.8469 29.9698C30.7513 31.6965 31.2035 37.9865 31.2035 37.9865H5.79688C5.79688 37.9865 6.24914 31.6965 7.15354 29.9698C8.51021 27.3798 18.5002 24.0498 18.5002 24.0498C18.5002 24.0498 28.4902 27.3798 29.8469 29.9698Z" fill="url(#paint2_linear_138_494)"/>
</mask>
<g mask="url(#mask0_138_494)">
<path d="M30.0934 36.8764C30.0934 36.7301 30.1368 36.587 30.2181 36.4653C30.2994 36.3436 30.415 36.2488 30.5502 36.1928C30.6855 36.1367 30.8342 36.1221 30.9778 36.1506C31.1213 36.1792 31.2532 36.2497 31.3567 36.3532C31.4602 36.4567 31.5307 36.5885 31.5592 36.7321C31.5878 36.8756 31.5731 37.0244 31.5171 37.1596C31.4611 37.2948 31.3662 37.4104 31.2445 37.4917C31.1229 37.573 30.9798 37.6164 30.8334 37.6164C30.6372 37.6164 30.4489 37.5385 30.3102 37.3997C30.1714 37.2609 30.0934 37.0727 30.0934 36.8764V36.8764ZM25.1601 36.8764C25.1601 36.7301 25.2035 36.587 25.2848 36.4653C25.3661 36.3436 25.4817 36.2488 25.6169 36.1928C25.7521 36.1367 25.9009 36.1221 26.0445 36.1506C26.188 36.1792 26.3199 36.2497 26.4234 36.3532C26.5268 36.4567 26.5973 36.5885 26.6259 36.7321C26.6544 36.8756 26.6398 37.0244 26.5838 37.1596C26.5278 37.2948 26.4329 37.4104 26.3112 37.4917C26.1895 37.573 26.0464 37.6164 25.9001 37.6164C25.7038 37.6164 25.5156 37.5385 25.3768 37.3997C25.2381 37.2609 25.1601 37.0727 25.1601 36.8764ZM20.2268 36.8764C20.2268 36.7301 20.2702 36.587 20.3515 36.4653C20.4328 36.3436 20.5484 36.2488 20.6836 36.1928C20.8188 36.1367 20.9676 36.1221 21.1111 36.1506C21.2547 36.1792 21.3865 36.2497 21.49 36.3532C21.5935 36.4567 21.664 36.5885 21.6925 36.7321C21.7211 36.8756 21.7064 37.0244 21.6504 37.1596C21.5944 37.2948 21.4996 37.4104 21.3779 37.4917C21.2562 37.573 21.1131 37.6164 20.9668 37.6164C20.7705 37.6164 20.5823 37.5385 20.4435 37.3997C20.3047 37.2609 20.2268 37.0727 20.2268 36.8764ZM15.2934 36.8764C15.2934 36.7301 15.3368 36.587 15.4181 36.4653C15.4994 36.3436 15.615 36.2488 15.7502 36.1928C15.8855 36.1367 16.0342 36.1221 16.1778 36.1506C16.3213 36.1792 16.4532 36.2497 16.5567 36.3532C16.6602 36.4567 16.7307 36.5885 16.7592 36.7321C16.7878 36.8756 16.7731 37.0244 16.7171 37.1596C16.6611 37.2948 16.5662 37.4104 16.4445 37.4917C16.3229 37.573 16.1798 37.6164 16.0334 37.6164C15.8372 37.6164 15.6489 37.5385 15.5102 37.3997C15.3714 37.2609 15.2934 37.0727 15.2934 36.8764ZM10.3601 36.8764C10.3601 36.7301 10.4035 36.587 10.4848 36.4653C10.5661 36.3436 10.6817 36.2488 10.8169 36.1928C10.9521 36.1367 11.1009 36.1221 11.2445 36.1506C11.388 36.1792 11.5199 36.2497 11.6234 36.3532C11.7268 36.4567 11.7973 36.5885 11.8259 36.7321C11.8544 36.8756 11.8398 37.0244 11.7838 37.1596C11.7278 37.2948 11.6329 37.4104 11.5112 37.4917C11.3895 37.573 11.2464 37.6164 11.1001 37.6164C10.9038 37.6164 10.7156 37.5385 10.5768 37.3997C10.4381 37.2609 10.3601 37.0727 10.3601 36.8764ZM5.42676 36.8764C5.42676 36.7301 5.47016 36.587 5.55147 36.4653C5.63278 36.3436 5.74835 36.2488 5.88357 36.1928C6.01879 36.1367 6.16758 36.1221 6.31112 36.1506C6.45467 36.1792 6.58653 36.2497 6.69002 36.3532C6.79351 36.4567 6.86399 36.5885 6.89254 36.7321C6.92109 36.8756 6.90644 37.0244 6.85043 37.1596C6.79442 37.2948 6.69957 37.4104 6.57788 37.4917C6.45619 37.573 6.31312 37.6164 6.16676 37.6164C5.9705 37.6164 5.78228 37.5385 5.6435 37.3997C5.50472 37.2609 5.42676 37.0727 5.42676 36.8764V36.8764ZM27.6268 34.4098C27.6268 34.2634 27.6702 34.1203 27.7515 33.9986C27.8328 33.8769 27.9484 33.7821 28.0836 33.7261C28.2188 33.6701 28.3676 33.6554 28.5111 33.684C28.6547 33.7125 28.7865 33.783 28.89 33.8865C28.9935 33.99 29.064 34.1218 29.0925 34.2654C29.1211 34.4089 29.1064 34.5577 29.0504 34.6929C28.9944 34.8282 28.8996 34.9437 28.7779 35.025C28.6562 35.1064 28.5131 35.1498 28.3668 35.1498C28.1705 35.1498 27.9823 35.0718 27.8435 34.933C27.7047 34.7942 27.6268 34.606 27.6268 34.4098ZM22.6934 34.4098C22.6934 34.2634 22.7368 34.1203 22.8181 33.9986C22.8994 33.8769 23.015 33.7821 23.1502 33.7261C23.2855 33.6701 23.4342 33.6554 23.5778 33.684C23.7213 33.7125 23.8532 33.783 23.9567 33.8865C24.0602 33.99 24.1307 34.1218 24.1592 34.2654C24.1878 34.4089 24.1731 34.5577 24.1171 34.6929C24.0611 34.8282 23.9662 34.9437 23.8445 35.025C23.7229 35.1064 23.5798 35.1498 23.4334 35.1498C23.2372 35.1498 23.0489 35.0718 22.9102 34.933C22.7714 34.7942 22.6934 34.606 22.6934 34.4098ZM17.7601 34.4098C17.7601 34.2634 17.8035 34.1203 17.8848 33.9986C17.9661 33.8769 18.0817 33.7821 18.2169 33.7261C18.3521 33.6701 18.5009 33.6554 18.6445 33.684C18.788 33.7125 18.9199 33.783 19.0233 33.8865C19.1268 33.99 19.1973 34.1218 19.2259 34.2654C19.2544 34.4089 19.2398 34.5577 19.1838 34.6929C19.1278 34.8282 19.0329 34.9437 18.9112 35.025C18.7895 35.1064 18.6464 35.1498 18.5001 35.1498C18.3038 35.1498 18.1156 35.0718 17.9768 34.933C17.8381 34.7942 17.7601 34.606 17.7601 34.4098V34.4098ZM12.8268 34.4098C12.8268 34.2634 12.8702 34.1203 12.9515 33.9986C13.0328 33.8769 13.1484 33.7821 13.2836 33.7261C13.4188 33.6701 13.5676 33.6554 13.7111 33.684C13.8547 33.7125 13.9865 33.783 14.09 33.8865C14.1935 33.99 14.264 34.1218 14.2925 34.2654C14.3211 34.4089 14.3064 34.5577 14.2504 34.6929C14.1944 34.8282 14.0996 34.9437 13.9779 35.025C13.8562 35.1064 13.7131 35.1498 13.5668 35.1498C13.3705 35.1498 13.1823 35.0718 13.0435 34.933C12.9047 34.7942 12.8268 34.606 12.8268 34.4098ZM7.89342 34.4098C7.89342 34.2634 7.93682 34.1203 8.01814 33.9986C8.09945 33.8769 8.21502 33.7821 8.35024 33.7261C8.48546 33.6701 8.63425 33.6554 8.77779 33.684C8.92134 33.7125 9.05319 33.783 9.15668 33.8865C9.26017 33.99 9.33065 34.1218 9.35921 34.2654C9.38776 34.4089 9.3731 34.5577 9.3171 34.6929C9.26109 34.8282 9.16624 34.9437 9.04455 35.025C8.92285 35.1064 8.77978 35.1498 8.63342 35.1498C8.43716 35.1498 8.24894 35.0718 8.11017 34.933C7.97139 34.7942 7.89342 34.606 7.89342 34.4098ZM30.0934 31.9431C30.0934 31.7967 30.1368 31.6537 30.2181 31.532C30.2994 31.4103 30.415 31.3154 30.5502 31.2594C30.6855 31.2034 30.8342 31.1888 30.9778 31.2173C31.1213 31.2459 31.2532 31.3164 31.3567 31.4198C31.4602 31.5233 31.5307 31.6552 31.5592 31.7987C31.5878 31.9423 31.5731 32.0911 31.5171 32.2263C31.4611 32.3615 31.3662 32.4771 31.2445 32.5584C31.1229 32.6397 30.9798 32.6831 30.8334 32.6831C30.6372 32.6831 30.4489 32.6051 30.3102 32.4664C30.1714 32.3276 30.0934 32.1394 30.0934 31.9431V31.9431ZM25.1601 31.9431C25.1601 31.7967 25.2035 31.6537 25.2848 31.532C25.3661 31.4103 25.4817 31.3154 25.6169 31.2594C25.7521 31.2034 25.9009 31.1888 26.0445 31.2173C26.188 31.2459 26.3199 31.3164 26.4234 31.4198C26.5268 31.5233 26.5973 31.6552 26.6259 31.7987C26.6544 31.9423 26.6398 32.0911 26.5838 32.2263C26.5278 32.3615 26.4329 32.4771 26.3112 32.5584C26.1895 32.6397 26.0464 32.6831 25.9001 32.6831C25.7038 32.6831 25.5156 32.6051 25.3768 32.4664C25.2381 32.3276 25.1601 32.1394 25.1601 31.9431ZM20.2268 31.9431C20.2268 31.7967 20.2702 31.6537 20.3515 31.532C20.4328 31.4103 20.5484 31.3154 20.6836 31.2594C20.8188 31.2034 20.9676 31.1888 21.1111 31.2173C21.2547 31.2459 21.3865 31.3164 21.49 31.4198C21.5935 31.5233 21.664 31.6552 21.6925 31.7987C21.7211 31.9423 21.7064 32.0911 21.6504 32.2263C21.5944 32.3615 21.4996 32.4771 21.3779 32.5584C21.2562 32.6397 21.1131 32.6831 20.9668 32.6831C20.7705 32.6831 20.5823 32.6051 20.4435 32.4664C20.3047 32.3276 20.2268 32.1394 20.2268 31.9431ZM15.2934 31.9431C15.2934 31.7967 15.3368 31.6537 15.4181 31.532C15.4994 31.4103 15.615 31.3154 15.7502 31.2594C15.8855 31.2034 16.0342 31.1888 16.1778 31.2173C16.3213 31.2459 16.4532 31.3164 16.5567 31.4198C16.6602 31.5233 16.7307 31.6552 16.7592 31.7987C16.7878 31.9423 16.7731 32.0911 16.7171 32.2263C16.6611 32.3615 16.5662 32.4771 16.4445 32.5584C16.3229 32.6397 16.1798 32.6831 16.0334 32.6831C15.8372 32.6831 15.6489 32.6051 15.5102 32.4664C15.3714 32.3276 15.2934 32.1394 15.2934 31.9431ZM10.3601 31.9431C10.3601 31.7967 10.4035 31.6537 10.4848 31.532C10.5661 31.4103 10.6817 31.3154 10.8169 31.2594C10.9521 31.2034 11.1009 31.1888 11.2445 31.2173C11.388 31.2459 11.5199 31.3164 11.6234 31.4198C11.7268 31.5233 11.7973 31.6552 11.8259 31.7987C11.8544 31.9423 11.8398 32.0911 11.7838 32.2263C11.7278 32.3615 11.6329 32.4771 11.5112 32.5584C11.3895 32.6397 11.2464 32.6831 11.1001 32.6831C10.9038 32.6831 10.7156 32.6051 10.5768 32.4664C10.4381 32.3276 10.3601 32.1394 10.3601 31.9431ZM5.42676 31.9431C5.42676 31.7967 5.47016 31.6537 5.55147 31.532C5.63278 31.4103 5.74835 31.3154 5.88357 31.2594C6.01879 31.2034 6.16758 31.1888 6.31112 31.2173C6.45467 31.2459 6.58653 31.3164 6.69002 31.4198C6.79351 31.5233 6.86399 31.6552 6.89254 31.7987C6.92109 31.9423 6.90644 32.0911 6.85043 32.2263C6.79442 32.3615 6.69957 32.4771 6.57788 32.5584C6.45619 32.6397 6.31312 32.6831 6.16676 32.6831C5.9705 32.6831 5.78228 32.6051 5.6435 32.4664C5.50472 32.3276 5.42676 32.1394 5.42676 31.9431V31.9431ZM27.6268 29.4764C27.6268 29.3301 27.6702 29.187 27.7515 29.0653C27.8328 28.9436 27.9484 28.8488 28.0836 28.7928C28.2188 28.7368 28.3676 28.7221 28.5111 28.7507C28.6547 28.7792 28.7865 28.8497 28.89 28.9532C28.9935 29.0567 29.064 29.1885 29.0925 29.3321C29.1211 29.4756 29.1064 29.6244 29.0504 29.7596C28.9944 29.8948 28.8996 30.0104 28.7779 30.0917C28.6562 30.173 28.5131 30.2164 28.3668 30.2164C28.1705 30.2164 27.9823 30.1385 27.8435 29.9997C27.7047 29.8609 27.6268 29.6727 27.6268 29.4764ZM22.6934 29.4764C22.6934 29.3301 22.7368 29.187 22.8181 29.0653C22.8994 28.9436 23.015 28.8488 23.1502 28.7928C23.2855 28.7368 23.4342 28.7221 23.5778 28.7507C23.7213 28.7792 23.8532 28.8497 23.9567 28.9532C24.0602 29.0567 24.1307 29.1885 24.1592 29.3321C24.1878 29.4756 24.1731 29.6244 24.1171 29.7596C24.0611 29.8948 23.9662 30.0104 23.8445 30.0917C23.7229 30.173 23.5798 30.2164 23.4334 30.2164C23.2372 30.2164 23.0489 30.1385 22.9102 29.9997C22.7714 29.8609 22.6934 29.6727 22.6934 29.4764ZM17.7601 29.4764C17.7601 29.3301 17.8035 29.187 17.8848 29.0653C17.9661 28.9436 18.0817 28.8488 18.2169 28.7928C18.3521 28.7368 18.5009 28.7221 18.6445 28.7507C18.788 28.7792 18.9199 28.8497 19.0233 28.9532C19.1268 29.0567 19.1973 29.1885 19.2259 29.3321C19.2544 29.4756 19.2398 29.6244 19.1838 29.7596C19.1278 29.8948 19.0329 30.0104 18.9112 30.0917C18.7895 30.173 18.6464 30.2164 18.5001 30.2164C18.3038 30.2164 18.1156 30.1385 17.9768 29.9997C17.8381 29.8609 17.7601 29.6727 17.7601 29.4764V29.4764ZM12.8268 29.4764C12.8268 29.3301 12.8702 29.187 12.9515 29.0653C13.0328 28.9436 13.1484 28.8488 13.2836 28.7928C13.4188 28.7368 13.5676 28.7221 13.7111 28.7507C13.8547 28.7792 13.9865 28.8497 14.09 28.9532C14.1935 29.0567 14.264 29.1885 14.2925 29.3321C14.3211 29.4756 14.3064 29.6244 14.2504 29.7596C14.1944 29.8948 14.0996 30.0104 13.9779 30.0917C13.8562 30.173 13.7131 30.2164 13.5668 30.2164C13.3705 30.2164 13.1823 30.1385 13.0435 29.9997C12.9047 29.8609 12.8268 29.6727 12.8268 29.4764ZM7.89342 29.4764C7.89342 29.3301 7.93682 29.187 8.01814 29.0653C8.09945 28.9436 8.21502 28.8488 8.35024 28.7928C8.48546 28.7368 8.63425 28.7221 8.77779 28.7507C8.92134 28.7792 9.05319 28.8497 9.15668 28.9532C9.26017 29.0567 9.33065 29.1885 9.35921 29.3321C9.38776 29.4756 9.3731 29.6244 9.3171 29.7596C9.26109 29.8948 9.16624 30.0104 9.04455 30.0917C8.92285 30.173 8.77978 30.2164 8.63342 30.2164C8.43716 30.2164 8.24894 30.1385 8.11017 29.9997C7.97139 29.8609 7.89342 29.6727 7.89342 29.4764ZM30.0934 27.0098C30.0934 26.8634 30.1368 26.7203 30.2181 26.5987C30.2994 26.477 30.415 26.3821 30.5502 26.3261C30.6855 26.2701 30.8342 26.2554 30.9778 26.284C31.1213 26.3125 31.2532 26.383 31.3567 26.4865C31.4602 26.59 31.5307 26.7219 31.5592 26.8654C31.5878 27.009 31.5731 27.1577 31.5171 27.293C31.4611 27.4282 31.3662 27.5437 31.2445 27.6251C31.1229 27.7064 30.9798 27.7498 30.8334 27.7498C30.6372 27.7498 30.4489 27.6718 30.3102 27.533C30.1714 27.3943 30.0934 27.206 30.0934 27.0098V27.0098ZM25.1601 27.0098C25.1601 26.8634 25.2035 26.7203 25.2848 26.5987C25.3661 26.477 25.4817 26.3821 25.6169 26.3261C25.7521 26.2701 25.9009 26.2554 26.0445 26.284C26.188 26.3125 26.3199 26.383 26.4234 26.4865C26.5268 26.59 26.5973 26.7219 26.6259 26.8654C26.6544 27.009 26.6398 27.1577 26.5838 27.293C26.5278 27.4282 26.4329 27.5437 26.3112 27.6251C26.1895 27.7064 26.0464 27.7498 25.9001 27.7498C25.7038 27.7498 25.5156 27.6718 25.3768 27.533C25.2381 27.3943 25.1601 27.206 25.1601 27.0098V27.0098ZM10.3601 27.0098C10.3601 26.8634 10.4035 26.7203 10.4848 26.5987C10.5661 26.477 10.6817 26.3821 10.8169 26.3261C10.9521 26.2701 11.1009 26.2554 11.2445 26.284C11.388 26.3125 11.5199 26.383 11.6234 26.4865C11.7268 26.59 11.7973 26.7219 11.8259 26.8654C11.8544 27.009 11.8398 27.1577 11.7838 27.293C11.7278 27.4282 11.6329 27.5437 11.5112 27.6251C11.3895 27.7064 11.2464 27.7498 11.1001 27.7498C10.9038 27.7498 10.7156 27.6718 10.5768 27.533C10.4381 27.3943 10.3601 27.206 10.3601 27.0098V27.0098ZM5.42676 27.0098C5.42676 26.8634 5.47016 26.7203 5.55147 26.5987C5.63278 26.477 5.74835 26.3821 5.88357 26.3261C6.01879 26.2701 6.16758 26.2554 6.31112 26.284C6.45467 26.3125 6.58653 26.383 6.69002 26.4865C6.79351 26.59 6.86399 26.7219 6.89254 26.8654C6.92109 27.009 6.90644 27.1577 6.85043 27.293C6.79442 27.4282 6.69957 27.5437 6.57788 27.6251C6.45619 27.7064 6.31312 27.7498 6.16676 27.7498C5.9705 27.7498 5.78228 27.6718 5.6435 27.533C5.50472 27.3943 5.42676 27.206 5.42676 27.0098V27.0098Z" fill="white"/>
</g>
<path d="M19.8403 6.49956C19.347 4.34123 21.6862 2.68499 24.0953 3.822C29.7687 6.49956 26.3938 10.2366 24.2971 9.9899C22.2004 9.74323 20.3337 8.6579 19.8403 6.49956Z" fill="url(#paint3_linear_138_494)"/>
<path opacity="0.6" d="M21.8921 6.84497C21.8921 6.84497 26.0854 9.5583 27.1338 8.0783C27.2419 8.69633 26.7445 10.442 25.9621 10.4216C23.6216 10.3607 21.8921 6.84497 21.8921 6.84497Z" fill="black"/>
<path d="M21.2136 20.1033C18.5641 21.3762 18.1775 21.308 12.3336 16.5267C3.5153 9.31165 11.8403 2.71332 20.782 6.22832C30.4636 10.4833 27.2201 17.2182 21.2136 20.1033Z" fill="url(#paint4_linear_138_494)"/>
<path d="M21.4604 25.1599C20.556 26.6399 16.4448 26.6399 15.5404 25.1599V22.6932C15.5404 22.6932 15.1379 22.7056 14.862 22.6932C11.9771 22.5699 11.0132 17.9292 11.4659 13.2876C11.7974 9.88829 14.677 14.5532 19.3637 11.2849C19.1787 14.8616 20.7204 14.4916 21.3987 14.0599C24.482 12.6416 24.5078 18.4558 21.4604 18.0066V25.1599Z" fill="url(#paint5_linear_138_494)"/>
<path d="M15.5402 22.6927C17.2045 22.5692 19.6865 20.8305 19.6865 20.8305C19.6865 20.8305 18.4992 23.3704 15.5403 23.8022L15.5402 22.6927Z" fill="#DB6F3D"/>
<path d="M21.4601 24.8465V24.0498C21.6863 24.0498 22.3339 24.5841 22.6671 25.0365C23.9838 26.8248 22.5233 28.4281 21.3321 28.4281C19.8292 28.4281 18.8331 27.1724 18.5001 26.5683C18.1671 27.1726 17.1711 28.4281 15.6681 28.4281C14.477 28.4281 13.0165 26.8248 14.3332 25.0365C14.6663 24.5841 15.3139 24.0498 15.5401 24.0498V24.8465C15.5401 25.7898 17.6047 26.2264 18.4961 26.2667C19.3398 26.2264 21.4601 25.7898 21.4601 24.8465Z" fill="white"/>
</g>
<defs>
<linearGradient id="paint0_linear_138_494" x1="18.5" y1="37" x2="18.5" y2="0" gradientUnits="userSpaceOnUse">
<stop stop-color="#EBE8FF"/>
<stop offset="1" stop-color="#73CDFF"/>
</linearGradient>
<linearGradient id="paint1_linear_138_494" x1="28.3326" y1="35.9238" x2="18.5682" y2="19.3486" gradientUnits="userSpaceOnUse">
<stop stop-color="#7182AD"/>
<stop offset="1" stop-color="#C5C2DF"/>
</linearGradient>
<linearGradient id="paint2_linear_138_494" x1="28.3326" y1="35.9238" x2="18.5682" y2="19.3485" gradientUnits="userSpaceOnUse">
<stop stop-color="#E2834C"/>
<stop offset="1" stop-color="#DF6638"/>
</linearGradient>
<linearGradient id="paint3_linear_138_494" x1="23.4981" y1="3.45264" x2="23.4981" y2="10.0015" gradientUnits="userSpaceOnUse">
<stop stop-color="#1D0024"/>
<stop offset="1" stop-color="#100014"/>
</linearGradient>
<linearGradient id="paint4_linear_138_494" x1="17.7534" y1="5.25488" x2="17.7534" y2="20.8043" gradientUnits="userSpaceOnUse">
<stop stop-color="#1D0024"/>
<stop offset="1" stop-color="#100014"/>
</linearGradient>
<linearGradient id="paint5_linear_138_494" x1="17.544" y1="11.2849" x2="17.544" y2="26.2699" gradientUnits="userSpaceOnUse">
<stop stop-color="#FFE8DB"/>
<stop offset="1" stop-color="#FFE7D7"/>
</linearGradient>
<clipPath id="clip0_138_494">
<path d="M0 18.5C0 8.28273 8.28273 0 18.5 0V0C28.7173 0 37 8.28273 37 18.5V18.5C37 28.7173 28.7173 37 18.5 37V37C8.28273 37 0 28.7173 0 18.5V18.5Z" fill="white"/>
</clipPath>
</defs>
</svg>
