<svg width="37" height="37" viewBox="0 0 37 37" fill="none" xmlns="http://www.w3.org/2000/svg">
<g clip-path="url(#clip0_144_2546)">
<path d="M37 18.5C37 8.28273 28.7173 0 18.5 0V0C8.28273 0 0 8.28273 0 18.5V18.5C0 28.7173 8.28273 37 18.5 37V37C28.7173 37 37 28.7173 37 18.5V18.5Z" fill="url(#paint0_linear_144_2546)"/>
<path d="M22.4463 23.2835C22.461 24.4347 23.4065 25.3068 25.283 25.8735C23.0219 27.5179 20.7607 28.8335 18.4997 28.8335C16.2386 28.8335 13.9774 27.5179 11.7163 25.8735C13.5801 25.3062 14.5256 24.4593 14.553 23.3329C14.553 23.1321 14.5398 18.7208 14.5313 16.7962C12.7637 14.505 13.413 11.819 13.9669 11.8859C14.646 11.9687 20.5294 6.38564 21.6579 6.09939C22.7864 5.81313 25.653 6.73727 26.1463 9.31185C26.6397 11.8864 26.8459 18.376 24.9747 20.9669C24.4422 21.7041 23.591 21.9905 22.4463 21.8302C22.4447 22.369 22.4463 23.2835 22.4463 23.2835Z" fill="url(#paint1_linear_144_2546)"/>
<path d="M22.4463 21.8301C19.733 21.5218 18.0063 20.3501 18.0063 20.3501C18.0063 20.3501 19.4863 22.8168 22.4463 23.3101V21.8301Z" fill="#341E13"/>
<path d="M13.6281 16.8351C12.7783 14.7914 9.3731 10.6293 12.3084 8.03932C13.2951 3.22932 18.7464 3.76175 22.3848 4.87175C24.8301 5.61779 26.6768 7.09175 27.0714 5.98175C29.5381 8.03932 28.3028 10.0517 26.6768 10.6293C25.201 11.1535 22.7054 11.6777 18.462 11.1843C17.704 11.0961 17.8628 13.4176 17.4577 13.6686C16.8501 14.0452 16.3784 11.6777 14.7124 12.3885C13.0465 13.0994 14.0351 16.3956 15.8234 16.3956C16.4401 16.3956 16.7484 18.0911 15.0834 18.8928C13.8748 19.4867 14.1803 18.163 13.6281 16.8351Z" fill="white"/>
<path d="M5.54981 29.6382C4.37567 32.0255 3.69981 37.5315 3.69981 37.5315H33.2998C33.2998 37.5315 32.6237 32.0249 31.4498 29.6382C30.2759 27.2514 23.4208 25.0377 23.4208 25.0377C22.0995 27.7502 14.8482 27.7502 13.5824 25.0369C13.5824 25.0369 6.72394 27.2508 5.54981 29.6382Z" fill="url(#paint2_linear_144_2546)"/>
<mask id="mask0_144_2546" style="mask-type:alpha" maskUnits="userSpaceOnUse" x="3" y="25" width="31" height="13">
<path d="M5.54981 29.6382C4.37567 32.0255 3.69981 37.5315 3.69981 37.5315H33.2998C33.2998 37.5315 32.6237 32.0249 31.4498 29.6382C30.2759 27.2514 23.4208 25.0377 23.4208 25.0377C22.0995 27.7502 14.8482 27.7502 13.5824 25.0369C13.5824 25.0369 6.72394 27.2508 5.54981 29.6382Z" fill="url(#paint3_linear_144_2546)"/>
</mask>
<g mask="url(#mask0_144_2546)">
<path d="M34.5332 35.0269V34.0403H2.46653V35.0269H34.5332ZM34.5332 32.5603V31.5736H2.46653V32.5603H34.5332ZM34.5332 30.0936V29.1069H2.46653V30.0936H34.5332Z" fill="#6E5C5A"/>
</g>
</g>
<defs>
<linearGradient id="paint0_linear_144_2546" x1="18.5" y1="37" x2="18.5" y2="0" gradientUnits="userSpaceOnUse">
<stop stop-color="#B3FAFF"/>
<stop offset="1" stop-color="#0085FF"/>
</linearGradient>
<linearGradient id="paint1_linear_144_2546" x1="19.1013" y1="6.04932" x2="19.1013" y2="28.8335" gradientUnits="userSpaceOnUse">
<stop stop-color="#997E6E"/>
<stop offset="1" stop-color="#EB965E"/>
</linearGradient>
<linearGradient id="paint2_linear_144_2546" x1="18.4998" y1="25.0369" x2="18.4998" y2="37.5315" gradientUnits="userSpaceOnUse">
<stop stop-color="#1D0024"/>
<stop offset="1" stop-color="#100014"/>
</linearGradient>
<linearGradient id="paint3_linear_144_2546" x1="18.4998" y1="25.0369" x2="18.4998" y2="37.5315" gradientUnits="userSpaceOnUse">
<stop stop-color="#1D0024"/>
<stop offset="1" stop-color="#100014"/>
</linearGradient>
<clipPath id="clip0_144_2546">
<path d="M37 18.5C37 8.28273 28.7173 0 18.5 0V0C8.28273 0 0 8.28273 0 18.5V18.5C0 28.7173 8.28273 37 18.5 37V37C28.7173 37 37 28.7173 37 18.5V18.5Z" fill="white"/>
</clipPath>
</defs>
</svg>
