<svg width="37" height="37" viewBox="0 0 37 37" fill="none" xmlns="http://www.w3.org/2000/svg">
<g clip-path="url(#clip0_138_379)">
<path d="M0 18.5C0 8.28273 8.28273 0 18.5 0V0C28.7173 0 37 8.28273 37 18.5V18.5C37 28.7173 28.7173 37 18.5 37V37C8.28273 37 0 28.7173 0 18.5V18.5Z" fill="url(#paint0_linear_138_379)"/>
<path d="M14.5537 23.2831C14.539 24.4343 13.5935 25.3063 11.717 25.8731C13.9781 27.5175 16.2393 28.8331 18.5003 28.8331C20.7614 28.8331 23.0226 27.5175 25.2837 25.8731C23.4199 25.3057 22.4744 24.4588 22.447 23.3324C22.447 23.1316 22.4602 18.7203 22.4687 16.7957C24.2363 14.5046 23.587 11.8185 23.0331 11.8855C22.354 11.9682 16.4706 6.38515 15.3421 6.0989C14.2136 5.81264 11.347 6.73678 10.8537 9.31136C10.3603 11.8859 10.1541 18.3755 12.0253 20.9664C12.5578 21.7036 13.409 21.99 14.5537 21.8297C14.5553 22.3685 14.5537 23.2831 14.5537 23.2831Z" fill="url(#paint1_linear_138_379)"/>
<path d="M14.5537 21.8296C17.267 21.5213 18.9937 20.3496 18.9937 20.3496C18.9937 20.3496 17.5137 22.8163 14.5537 23.3096V21.8296Z" fill="#DB6F3D"/>
<path d="M23.3719 16.8348C24.2217 14.7912 27.6269 10.6291 24.6916 8.03908C23.7049 3.22908 18.2536 3.76151 14.6152 4.87151C12.1699 5.61755 10.3232 7.09151 9.92856 5.98151C7.46189 8.03908 8.6972 10.0515 10.3232 10.6291C11.799 11.1532 14.2946 11.6774 18.538 11.1841C19.296 11.0959 19.1372 13.4174 19.5423 13.6684C20.1499 14.0449 20.6216 11.6774 22.2876 12.3883C23.9535 13.0992 22.9649 16.3954 21.1766 16.3954C20.5599 16.3954 20.2516 18.0909 21.9166 18.8925C23.1252 19.4865 22.8197 18.1628 23.3719 16.8348Z" fill="white"/>
<path d="M31.4502 29.6379C32.6243 32.0253 33.3002 37.5313 33.3002 37.5313H3.7002C3.7002 37.5313 4.37631 32.0247 5.5502 29.6379C6.72408 27.2512 13.5792 25.0375 13.5792 25.0375C14.9005 27.75 22.1518 27.75 23.4176 25.0366C23.4176 25.0366 30.2761 27.2506 31.4502 29.6379Z" fill="url(#paint2_linear_138_379)"/>
<mask id="mask0_138_379" style="mask-type:alpha" maskUnits="userSpaceOnUse" x="3" y="25" width="31" height="13">
<path d="M31.4502 29.6379C32.6243 32.0253 33.3002 37.5313 33.3002 37.5313H3.7002C3.7002 37.5313 4.37631 32.0247 5.5502 29.6379C6.72408 27.2512 13.5792 25.0375 13.5792 25.0375C14.9005 27.75 22.1518 27.75 23.4176 25.0366C23.4176 25.0366 30.2761 27.2506 31.4502 29.6379Z" fill="url(#paint3_linear_138_379)"/>
</mask>
<g mask="url(#mask0_138_379)">
<path d="M2.4668 35.0265V34.0398H34.5335V35.0265H2.4668ZM2.4668 32.5598V31.5731H34.5335V32.5598H2.4668ZM2.4668 30.0931V29.1064H34.5335V30.0931H2.4668Z" fill="#6E5C5A"/>
</g>
</g>
<defs>
<linearGradient id="paint0_linear_138_379" x1="18.5" y1="37" x2="18.5" y2="0" gradientUnits="userSpaceOnUse">
<stop stop-color="#FFC9B3"/>
<stop offset="1" stop-color="#FFD2C2"/>
</linearGradient>
<linearGradient id="paint1_linear_138_379" x1="17.8987" y1="6.04883" x2="17.8987" y2="28.8331" gradientUnits="userSpaceOnUse">
<stop stop-color="#E6864E"/>
<stop offset="1" stop-color="#EB965E"/>
</linearGradient>
<linearGradient id="paint2_linear_138_379" x1="18.5002" y1="25.0366" x2="18.5002" y2="37.5313" gradientUnits="userSpaceOnUse">
<stop stop-color="#1D0024"/>
<stop offset="1" stop-color="#100014"/>
</linearGradient>
<linearGradient id="paint3_linear_138_379" x1="18.5002" y1="25.0366" x2="18.5002" y2="37.5313" gradientUnits="userSpaceOnUse">
<stop stop-color="#1D0024"/>
<stop offset="1" stop-color="#100014"/>
</linearGradient>
<clipPath id="clip0_138_379">
<path d="M0 18.5C0 8.28273 8.28273 0 18.5 0V0C28.7173 0 37 8.28273 37 18.5V18.5C37 28.7173 28.7173 37 18.5 37V37C8.28273 37 0 28.7173 0 18.5V18.5Z" fill="white"/>
</clipPath>
</defs>
</svg>
