<svg width="37" height="37" viewBox="0 0 37 37" fill="none" xmlns="http://www.w3.org/2000/svg">
<g clip-path="url(#clip0_138_318)">
<path d="M0 18.5C0 8.28273 8.28273 0 18.5 0V0C28.7173 0 37 8.28273 37 18.5V18.5C37 28.7173 28.7173 37 18.5 37V37C8.28273 37 0 28.7173 0 18.5V18.5Z" fill="url(#paint0_linear_138_318)"/>
<path d="M22.3237 21.46V22.94C22.3237 24.9133 25.1603 25.7767 25.1603 25.7767C25.1603 25.7767 21.892 28.2433 18.5003 28.2433C15.1087 28.2433 11.8403 25.7767 11.8403 25.7767C11.8403 25.7767 14.6993 24.9133 14.677 22.94C14.6547 20.9667 14.6696 19.8073 14.6547 16.4265C12.8871 14.1354 13.0005 12.5976 13.9671 11.5163C17.2053 7.89334 26.0237 9.12668 26.0237 9.12668C26.0237 9.12668 26.8465 18.0058 24.9753 20.5967C24.1737 21.7067 22.3237 21.46 22.3237 21.46Z" fill="url(#paint1_linear_138_318)"/>
<path style="mix-blend-mode:multiply" opacity="0.6" d="M22.3235 21.46C19.6102 21.1516 18.0068 19.98 18.0068 19.98C19.0191 21.4776 20.5618 22.5354 22.3235 22.94V21.46Z" fill="url(#paint2_linear_138_318)"/>
<path d="M31.4502 29.5149C32.6243 31.9022 33.3002 37.4082 33.3002 37.4082H3.7002C3.7002 37.4082 4.37631 31.9016 5.5502 29.5149C6.72408 27.1281 13.5792 24.9144 13.5792 24.9144C14.9005 27.6269 22.1518 27.6269 23.4176 24.9136C23.4176 24.9136 30.2761 27.1275 31.4502 29.5149Z" fill="url(#paint3_linear_138_318)"/>
<path d="M18.0068 34.2865C18.0068 34.189 18.0358 34.0936 18.09 34.0124C18.1442 33.9313 18.2212 33.8681 18.3114 33.8307C18.4015 33.7934 18.5007 33.7836 18.5964 33.8027C18.6921 33.8217 18.78 33.8687 18.849 33.9377C18.918 34.0067 18.965 34.0946 18.984 34.1903C19.0031 34.286 18.9933 34.3852 18.9559 34.4753C18.9186 34.5655 18.8554 34.6425 18.7742 34.6967C18.6931 34.7509 18.5977 34.7799 18.5002 34.7799C18.3693 34.7799 18.2438 34.7279 18.1513 34.6354C18.0588 34.5428 18.0068 34.4174 18.0068 34.2865ZM18.0068 31.8199C18.0068 31.7223 18.0358 31.6269 18.09 31.5458C18.1442 31.4647 18.2212 31.4014 18.3114 31.3641C18.4015 31.3267 18.5007 31.317 18.5964 31.336C18.6921 31.355 18.78 31.402 18.849 31.471C18.918 31.54 18.965 31.6279 18.984 31.7236C19.0031 31.8193 18.9933 31.9185 18.9559 32.0087C18.9186 32.0988 18.8554 32.1758 18.7742 32.2301C18.6931 32.2843 18.5977 32.3132 18.5002 32.3132C18.3693 32.3132 18.2438 32.2612 18.1513 32.1687C18.0588 32.0762 18.0068 31.9507 18.0068 31.8199ZM18.0068 29.3532C18.0068 29.2556 18.0358 29.1602 18.09 29.0791C18.1442 28.998 18.2212 28.9348 18.3114 28.8974C18.4015 28.8601 18.5007 28.8503 18.5964 28.8693C18.6921 28.8884 18.78 28.9354 18.849 29.0044C18.918 29.0734 18.965 29.1613 18.984 29.257C19.0031 29.3526 18.9933 29.4518 18.9559 29.542C18.9186 29.6321 18.8554 29.7092 18.7742 29.7634C18.6931 29.8176 18.5977 29.8465 18.5002 29.8465C18.3693 29.8465 18.2438 29.7946 18.1513 29.702C18.0588 29.6095 18.0068 29.484 18.0068 29.3532V29.3532Z" fill="white"/>
<path d="M16.176 12.7291C15.7838 12.3923 15.3072 12.1655 14.6336 12.5155C13.0365 13.3447 14.2452 16.5267 15.6635 16.5267C16.0335 16.5267 16.2175 17.6887 14.5702 18.5C14.5702 17.205 12.5968 13.9983 12.4242 11.0788C10.4385 10.3394 10.9318 7.38102 12.295 7.38102C12.0775 4.66917 16.4202 3.26835 18.1017 4.8247C19.8118 2.77502 24.1285 3.82335 24.3891 5.60157C27.3574 4.01711 29.3085 8.57168 26.5292 10.3398C25.3855 11.0675 22.7102 11.3443 18.8482 11.3443C18.2652 11.3443 17.9387 11.4891 18.1017 12.21C18.4173 13.6069 17.6846 14.4867 16.176 12.7291Z" fill="url(#paint4_linear_138_318)"/>
</g>
<defs>
<linearGradient id="paint0_linear_138_318" x1="18.5" y1="37" x2="18.5" y2="0" gradientUnits="userSpaceOnUse">
<stop stop-color="white"/>
<stop offset="1" stop-color="#D0D2FF"/>
</linearGradient>
<linearGradient id="paint1_linear_138_318" x1="19.0221" y1="8.92432" x2="19.0221" y2="28.2433" gradientUnits="userSpaceOnUse">
<stop stop-color="#FFEADB"/>
<stop offset="1" stop-color="#FFEADB"/>
</linearGradient>
<linearGradient id="paint2_linear_138_318" x1="21.5077" y1="20.5365" x2="20.7516" y2="23.3993" gradientUnits="userSpaceOnUse">
<stop stop-color="#3F45E0"/>
<stop offset="1" stop-color="#5754EB"/>
</linearGradient>
<linearGradient id="paint3_linear_138_318" x1="18.5002" y1="24.9136" x2="18.5002" y2="37.4082" gradientUnits="userSpaceOnUse">
<stop stop-color="#1D0024"/>
<stop offset="1" stop-color="#100014"/>
</linearGradient>
<linearGradient id="paint4_linear_138_318" x1="19.4848" y1="3.69971" x2="19.4848" y2="18.5" gradientUnits="userSpaceOnUse">
<stop stop-color="#1D0024"/>
<stop offset="1" stop-color="#100014"/>
</linearGradient>
<clipPath id="clip0_138_318">
<path d="M0 18.5C0 8.28273 8.28273 0 18.5 0V0C28.7173 0 37 8.28273 37 18.5V18.5C37 28.7173 28.7173 37 18.5 37V37C8.28273 37 0 28.7173 0 18.5V18.5Z" fill="white"/>
</clipPath>
</defs>
</svg>
