<svg width="37" height="37" viewBox="0 0 37 37" fill="none" xmlns="http://www.w3.org/2000/svg">
<g clip-path="url(#clip0_144_2574)">
<path d="M0 18.5C0 8.28273 8.28273 0 18.5 0V0C28.7173 0 37 8.28273 37 18.5V18.5C37 28.7173 28.7173 37 18.5 37V37C8.28273 37 0 28.7173 0 18.5V18.5Z" fill="url(#paint0_linear_144_2574)"/>
<path d="M22.4471 21.7067V24.42C22.4471 24.6886 18.5004 25.5019 18.5004 25.5019C18.5004 25.5019 14.5538 24.8032 14.5538 24.42C14.5538 23.6948 14.5686 20.054 14.5538 16.6732C12.7861 14.382 12.7861 12.95 14.1838 11.47C15.5814 9.99 25.5304 9.25 25.5304 9.25C25.5304 9.25 26.2768 16.4292 26.3938 18.3767C26.4408 19.1598 26.9488 21.7067 24.9754 21.7067H22.4471Z" fill="url(#paint1_linear_144_2574)"/>
<path d="M22.4466 21.4752V22.9597C19.8033 22.4889 18.2822 21.4957 17.8833 19.98C19.0344 20.7611 20.5144 21.2544 22.3233 21.46C22.3644 21.4647 22.4055 21.4697 22.4466 21.4752Z" fill="#DE6530"/>
<path d="M31.4502 30.008C32.2329 31.5995 32.8496 34.2306 33.3002 37.9013H3.7002C4.15094 34.2302 4.7676 31.5991 5.5502 30.008C6.33016 28.422 13.5669 25.3695 13.5669 25.3695L23.4335 25.3687C23.4335 25.3687 30.6717 28.4252 31.4502 30.008Z" fill="url(#paint2_linear_144_2574)"/>
<path d="M19.3634 26.1467L19.98 37.4934H17.02L17.6367 26.1467C17.6367 26.1467 18.2123 25.53 18.5 25.53C18.7878 25.53 19.3634 26.1467 19.3634 26.1467Z" fill="url(#paint3_linear_144_2574)"/>
<path d="M19.4884 28.4429L17.5723 27.3359L17.6369 26.1467C18.0206 25.7356 18.3084 25.53 18.5002 25.53C18.6921 25.53 18.9798 25.7356 19.3636 26.1467L19.4884 28.4429Z" fill="#D24B24"/>
<path d="M18.5 25.529L17.2667 27.7501L13.4434 25.4068L14.5534 23.8035L18.5 25.2614L22.4467 23.8035L23.5567 25.4068L19.7334 27.7501L18.5 25.529Z" fill="white"/>
<path d="M16.1594 12.9755C15.7672 12.6386 15.2906 12.4118 14.617 12.7619C13.0199 13.591 14.0798 16.79 15.8671 16.7276C16.4837 16.7062 16.2011 17.9351 14.5536 18.7467C14.5536 17.4517 12.5802 14.2451 12.4076 11.3255C10.4219 10.5861 10.9152 7.62774 12.2784 7.62774C12.0609 4.91551 16.4036 3.51469 18.0851 5.07103C19.7952 3.02136 24.1119 4.06969 24.3725 5.84791C27.3408 4.26345 29.2919 8.81803 26.5126 10.5861C25.3689 11.3138 22.6936 11.5907 18.8316 11.5907C16.9784 11.5907 18.0441 15.9283 18.6236 17.3284C19.3636 19.1167 23.4952 19.3634 24.7902 19.1784C25.8016 19.034 26.3319 18.6234 26.3936 18.3767C27.3186 20.8434 26.1469 22.3234 24.2969 22.3234C21.1519 22.3234 18.0069 21.3984 17.5136 19.1167C17.1209 17.3009 17.1425 14.3704 16.1594 12.9755Z" fill="url(#paint4_linear_144_2574)"/>
</g>
<defs>
<linearGradient id="paint0_linear_144_2574" x1="18.5" y1="37" x2="18.5" y2="0" gradientUnits="userSpaceOnUse">
<stop stop-color="#535353"/>
<stop offset="1"/>
</linearGradient>
<linearGradient id="paint1_linear_144_2574" x1="19.8321" y1="9.25" x2="19.8321" y2="25.5019" gradientUnits="userSpaceOnUse">
<stop stop-color="#E6864E"/>
<stop offset="1" stop-color="#EB965E"/>
</linearGradient>
<linearGradient id="paint2_linear_144_2574" x1="18.5002" y1="25.3687" x2="18.5002" y2="37.9013" gradientUnits="userSpaceOnUse">
<stop stop-color="#FF0000"/>
<stop offset="1"/>
</linearGradient>
<linearGradient id="paint3_linear_144_2574" x1="18.5" y1="37.4934" x2="18.5" y2="25.53" gradientUnits="userSpaceOnUse">
<stop stop-color="#E6864E"/>
<stop offset="1" stop-color="#E67240"/>
</linearGradient>
<linearGradient id="paint4_linear_144_2574" x1="19.4682" y1="3.94604" x2="19.4682" y2="22.3234" gradientUnits="userSpaceOnUse">
<stop stop-color="#FF0000"/>
<stop offset="1"/>
</linearGradient>
<clipPath id="clip0_144_2574">
<path d="M0 18.5C0 8.28273 8.28273 0 18.5 0V0C28.7173 0 37 8.28273 37 18.5V18.5C37 28.7173 28.7173 37 18.5 37V37C8.28273 37 0 28.7173 0 18.5V18.5Z" fill="white"/>
</clipPath>
</defs>
</svg>
