<svg width="400" height="940" viewBox="0 0 400 940" fill="none" xmlns="http://www.w3.org/2000/svg">
<path d="M400 0H0V940H400V0Z" fill="#2A2B3D"/>
<path d="M30.0079 32.6327H48.9603" stroke="#F97583" stroke-width="5" stroke-linecap="round"/>
<path d="M52.119 32.6327H86.8651" stroke="#B392F0" stroke-width="5" stroke-linecap="round"/>
<path d="M39.4841 38.9592H71.0714" stroke="#B392F0" stroke-width="5" stroke-linecap="round"/>
<path d="M80.5476 38.9592H93.1825" stroke="#D1D5DA" stroke-width="5" stroke-linecap="round"/>
<path d="M45.8016 45.2858H55.2778" stroke="#D1D5DA" stroke-width="5" stroke-linecap="round"/>
<path d="M61.5952 45.2858H105.817" stroke="#79B8FF" stroke-width="5" stroke-linecap="round"/>
<path d="M118.452 45.2858H131.087" stroke="#D1D5DA" stroke-width="5" stroke-linecap="round"/>
<path d="M137.405 45.2858H175.31" stroke="#B392F0" stroke-width="5" stroke-linecap="round"/>
<path d="M181.627 45.2858H232.167" stroke="#FFAB70" stroke-width="5" stroke-linecap="round"/>
<path d="M45.8016 57.9387H55.2778" stroke="#D1D5DA" stroke-width="5" stroke-linecap="round"/>
<path d="M61.5952 57.9387H93.1825" stroke="#79B8FF" stroke-width="5" stroke-linecap="round"/>
<path d="M105.817 57.9387H115.294" stroke="#D1D5DA" stroke-width="5" stroke-linecap="round"/>
<path d="M121.611 57.9387H165.833" stroke="#79B8FF" stroke-width="5" stroke-linecap="round"/>
<path d="M172.151 57.9387H219.532" stroke="#B392F0" stroke-width="5" stroke-linecap="round"/>
<path d="M225.849 57.9387H289.024" stroke="#FFAB70" stroke-width="5" stroke-linecap="round"/>
<path d="M45.8016 70.5918H55.2778" stroke="#D1D5DA" stroke-width="5" stroke-linecap="round"/>
<path d="M61.5952 70.5918H77.3889" stroke="#79B8FF" stroke-width="5" stroke-linecap="round"/>
<path d="M83.7064 70.5918H96.3413" stroke="#79B8FF" stroke-width="5" stroke-linecap="round"/>
<path d="M108.976 70.5918H118.452" stroke="#D1D5DA" stroke-width="5" stroke-linecap="round"/>
<path d="M45.8016 76.9183H55.2778" stroke="#D1D5DA" stroke-width="5" stroke-linecap="round"/>
<path d="M61.5952 76.9183H77.3889" stroke="#79B8FF" stroke-width="5" stroke-linecap="round"/>
<path d="M45.8016 95.8979H55.2778" stroke="#D1D5DA" stroke-width="5" stroke-linecap="round"/>
<path d="M61.5952 95.8979H108.976" stroke="#79B8FF" stroke-width="5" stroke-linecap="round"/>
<path d="M121.611 95.8979H131.087" stroke="#D1D5DA" stroke-width="5" stroke-linecap="round"/>
<path d="M137.405 95.8979H184.786" stroke="#79B8FF" stroke-width="5" stroke-linecap="round"/>
<path d="M191.103 95.8979H200.579" stroke="#B392F0" stroke-width="5" stroke-linecap="round"/>
<path d="M206.897 95.8979H216.373" stroke="#D1D5DA" stroke-width="5" stroke-linecap="round"/>
<path d="M45.8016 108.551H55.2778" stroke="#D1D5DA" stroke-width="5" stroke-linecap="round"/>
<path d="M61.5952 108.551H124.77" stroke="#79B8FF" stroke-width="5" stroke-linecap="round"/>
<path d="M137.405 108.551H153.198" stroke="#D1D5DA" stroke-width="5" stroke-linecap="round"/>
<path d="M159.516 108.551H206.897" stroke="#B392F0" stroke-width="5" stroke-linecap="round"/>
<path d="M213.214 108.551H222.69" stroke="#D1D5DA" stroke-width="5" stroke-linecap="round"/>
<path d="M229.008 108.551H244.802" stroke="#79B8FF" stroke-width="5" stroke-linecap="round"/>
<path d="M254.278 108.551H282.706" stroke="#79B8FF" stroke-width="5" stroke-linecap="round"/>
<path d="M45.8016 127.531H55.2778" stroke="#D1D5DA" stroke-width="5" stroke-linecap="round"/>
<path d="M61.5952 127.531H74.2301" stroke="#79B8FF" stroke-width="5" stroke-linecap="round"/>
<path d="M52.119 133.857H58.4365" stroke="#79B8FF" stroke-width="5" stroke-linecap="round"/>
<path d="M67.9127 133.857H74.2302" stroke="#79B8FF" stroke-width="5" stroke-linecap="round"/>
<path d="M52.119 140.184H67.9127" stroke="#79B8FF" stroke-width="5" stroke-linecap="round"/>
<path d="M77.3889 140.184H83.7064" stroke="#79B8FF" stroke-width="5" stroke-linecap="round"/>
<path d="M52.119 146.51H58.4365" stroke="#79B8FF" stroke-width="5" stroke-linecap="round"/>
<path d="M45.8016 165.49H55.2778" stroke="#D1D5DA" stroke-width="5" stroke-linecap="round"/>
<path d="M61.5952 165.49H105.817" stroke="#79B8FF" stroke-width="5" stroke-linecap="round"/>
<path d="M39.4841 203.449H83.7064" stroke="#B392F0" stroke-width="5" stroke-linecap="round"/>
<path d="M45.8016 209.776H55.2778" stroke="#D1D5DA" stroke-width="5" stroke-linecap="round"/>
<path d="M61.5952 209.776H99.5" stroke="#79B8FF" stroke-width="5" stroke-linecap="round"/>
<path d="M112.135 209.776H146.881" stroke="#FFAB70" stroke-width="5" stroke-linecap="round"/>
<path d="M153.198 209.776H168.992" stroke="#FFAB70" stroke-width="5" stroke-linecap="round"/>
<path d="M39.4841 228.755H77.3889" stroke="#B392F0" stroke-width="5" stroke-linecap="round"/>
<path d="M45.8016 235.082H55.2778" stroke="#D1D5DA" stroke-width="5" stroke-linecap="round"/>
<path d="M61.5952 235.082H99.5" stroke="#79B8FF" stroke-width="5" stroke-linecap="round"/>
<path d="M112.135 235.082H146.881" stroke="#FFAB70" stroke-width="5" stroke-linecap="round"/>
<path d="M153.198 235.082H244.802" stroke="#FFAB70" stroke-width="5" stroke-linecap="round"/>
<path d="M39.4841 254.061H64.754" stroke="#B392F0" stroke-width="5" stroke-linecap="round"/>
<path d="M45.8016 260.388H55.2778" stroke="#D1D5DA" stroke-width="5" stroke-linecap="round"/>
<path d="M61.5952 260.388H77.3889" stroke="#79B8FF" stroke-width="5" stroke-linecap="round"/>
<path d="M83.7064 260.388H131.087" stroke="#B392F0" stroke-width="5" stroke-linecap="round"/>
<path d="M137.405 260.388H172.151" stroke="#FFAB70" stroke-width="5" stroke-linecap="round"/>
<path d="M181.627 260.388H191.103" stroke="#D1D5DA" stroke-width="5" stroke-linecap="round"/>
<path d="M197.421 260.388H244.802" stroke="#79B8FF" stroke-width="5" stroke-linecap="round"/>
<path d="M39.4841 285.694H86.8651" stroke="#B392F0" stroke-width="5" stroke-linecap="round"/>
<path d="M52.119 292.02H93.1825" stroke="#B392F0" stroke-width="5" stroke-linecap="round"/>
<path d="M45.8016 304.673H55.2778" stroke="#D1D5DA" stroke-width="5" stroke-linecap="round"/>
<path d="M61.5952 304.673H105.817" stroke="#B392F0" stroke-width="5" stroke-linecap="round"/>
<path d="M45.8016 317.327H55.2778" stroke="#D1D5DA" stroke-width="5" stroke-linecap="round"/>
<path d="M61.5952 317.327H77.3889" stroke="#79B8FF" stroke-width="5" stroke-linecap="round"/>
<path d="M83.7064 317.327H131.087" stroke="#B392F0" stroke-width="5" stroke-linecap="round"/>
<path d="M137.405 317.327H168.992" stroke="#FFAB70" stroke-width="5" stroke-linecap="round"/>
<path d="M178.468 317.327H187.944" stroke="#D1D5DA" stroke-width="5" stroke-linecap="round"/>
<path d="M194.262 317.327H241.643" stroke="#79B8FF" stroke-width="5" stroke-linecap="round"/>
<path d="M39.4841 336.306H86.8651" stroke="#B392F0" stroke-width="5" stroke-linecap="round"/>
<path d="M45.8016 355.286H55.2778" stroke="#D1D5DA" stroke-width="5" stroke-linecap="round"/>
<path d="M61.5952 355.286H77.3889" stroke="#79B8FF" stroke-width="5" stroke-linecap="round"/>
<path d="M83.7064 355.286H131.087" stroke="#B392F0" stroke-width="5" stroke-linecap="round"/>
<path d="M137.405 355.286H162.675" stroke="#FFAB70" stroke-width="5" stroke-linecap="round"/>
<path d="M172.151 355.286H181.627" stroke="#D1D5DA" stroke-width="5" stroke-linecap="round"/>
<path d="M187.944 355.286H229.008" stroke="#79B8FF" stroke-width="5" stroke-linecap="round"/>
<path d="M45.8016 367.939H58.4365" stroke="#F97583" stroke-width="5" stroke-linecap="round"/>
<path d="M64.754 367.939H80.5476" stroke="#D1D5DA" stroke-width="5" stroke-linecap="round"/>
<path d="M93.1826 367.939H108.976" stroke="#D1D5DA" stroke-width="5" stroke-linecap="round"/>
<path d="M115.294 367.939H162.675" stroke="#B392F0" stroke-width="5" stroke-linecap="round"/>
<path d="M168.992 367.939H178.468" stroke="#D1D5DA" stroke-width="5" stroke-linecap="round"/>
<path d="M184.786 367.939H200.579" stroke="#79B8FF" stroke-width="5" stroke-linecap="round"/>
<path d="M210.056 367.939H235.325" stroke="#79B8FF" stroke-width="5" stroke-linecap="round"/>
<path d="M45.8016 386.918H58.4365" stroke="#F97583" stroke-width="5" stroke-linecap="round"/>
<path d="M64.754 386.918H99.5" stroke="#D1D5DA" stroke-width="5" stroke-linecap="round"/>
<path d="M61.5952 393.245H77.3889" stroke="#B392F0" stroke-width="5" stroke-linecap="round"/>
<path d="M83.7064 393.245H96.3413" stroke="#D1D5DA" stroke-width="5" stroke-linecap="round"/>
<path d="M61.5952 399.571H77.3889" stroke="#B392F0" stroke-width="5" stroke-linecap="round"/>
<path d="M83.7064 399.571H96.3413" stroke="#D1D5DA" stroke-width="5" stroke-linecap="round"/>
<path d="M45.8016 418.551H58.4365" stroke="#F97583" stroke-width="5" stroke-linecap="round"/>
<path d="M64.754 418.551H77.3889" stroke="#D1D5DA" stroke-width="5" stroke-linecap="round"/>
<path d="M61.5952 424.878H71.0714" stroke="#D1D5DA" stroke-width="5" stroke-linecap="round"/>
<path d="M77.3889 424.878H121.611" stroke="#79B8FF" stroke-width="5" stroke-linecap="round"/>
<path d="M140.563 424.878H150.04" stroke="#D1D5DA" stroke-width="5" stroke-linecap="round"/>
<path d="M156.357 424.878H200.579" stroke="#79B8FF" stroke-width="5" stroke-linecap="round"/>
<path d="M229.008 424.878H247.96" stroke="#79B8FF" stroke-width="5" stroke-linecap="round"/>
<path d="M254.278 424.878H257.436" stroke="#79B8FF" stroke-width="5" stroke-linecap="round"/>
<path d="M270.071 424.878H311.135" stroke="#79B8FF" stroke-width="5" stroke-linecap="round"/>
<path d="M326.929 424.878H345.881" stroke="#79B8FF" stroke-width="5" stroke-linecap="round"/>
<path d="M45.8016 450.184H55.2778" stroke="#D1D5DA" stroke-width="5" stroke-linecap="round"/>
<path d="M61.5952 450.184H83.7063" stroke="#79B8FF" stroke-width="5" stroke-linecap="round"/>
<path d="M61.5952 456.51H96.3412" stroke="#D1D5DA" stroke-width="5" stroke-linecap="round"/>
<path d="M115.294 456.51H127.929" stroke="#D1D5DA" stroke-width="5" stroke-linecap="round"/>
<path d="M61.5952 462.837H96.3412" stroke="#D1D5DA" stroke-width="5" stroke-linecap="round"/>
<path d="M115.294 462.837H127.929" stroke="#D1D5DA" stroke-width="5" stroke-linecap="round"/>
<path d="M45.8016 481.816H48.9603" stroke="#F97583" stroke-width="5" stroke-linecap="round"/>
<path d="M58.4365 481.816H67.9127" stroke="#D1D5DA" stroke-width="5" stroke-linecap="round"/>
<path d="M74.2302 481.816H96.3413" stroke="#79B8FF" stroke-width="5" stroke-linecap="round"/>
<path d="M115.294 481.816H124.77" stroke="#D1D5DA" stroke-width="5" stroke-linecap="round"/>
<path d="M131.087 481.816H143.722" stroke="#79B8FF" stroke-width="5" stroke-linecap="round"/>
<path d="M150.04 481.816H156.357" stroke="#79B8FF" stroke-width="5" stroke-linecap="round"/>
<path d="M52.119 488.143H61.5952" stroke="#D1D5DA" stroke-width="5" stroke-linecap="round"/>
<path d="M67.9127 488.143H90.0238" stroke="#79B8FF" stroke-width="5" stroke-linecap="round"/>
<path d="M108.976 488.143H118.452" stroke="#D1D5DA" stroke-width="5" stroke-linecap="round"/>
<path d="M124.77 488.143H137.405" stroke="#79B8FF" stroke-width="5" stroke-linecap="round"/>
<path d="M143.722 488.143H150.04" stroke="#79B8FF" stroke-width="5" stroke-linecap="round"/>
<path d="M52.119 494.469H61.5952" stroke="#F97583" stroke-width="5" stroke-linecap="round"/>
<path d="M67.9127 494.469H71.0715" stroke="#F97583" stroke-width="5" stroke-linecap="round"/>
<path d="M80.5476 494.469H90.0238" stroke="#D1D5DA" stroke-width="5" stroke-linecap="round"/>
<path d="M96.3412 494.469H118.452" stroke="#79B8FF" stroke-width="5" stroke-linecap="round"/>
<path d="M137.405 494.469H146.881" stroke="#D1D5DA" stroke-width="5" stroke-linecap="round"/>
<path d="M153.198 494.469H165.833" stroke="#79B8FF" stroke-width="5" stroke-linecap="round"/>
<path d="M172.151 494.469H178.468" stroke="#79B8FF" stroke-width="5" stroke-linecap="round"/>
<path d="M52.119 500.796H61.5952" stroke="#D1D5DA" stroke-width="5" stroke-linecap="round"/>
<path d="M67.9127 500.796H90.0238" stroke="#79B8FF" stroke-width="5" stroke-linecap="round"/>
<path d="M108.976 500.796H118.452" stroke="#D1D5DA" stroke-width="5" stroke-linecap="round"/>
<path d="M124.77 500.796H137.405" stroke="#79B8FF" stroke-width="5" stroke-linecap="round"/>
<path d="M143.722 500.796H150.04" stroke="#79B8FF" stroke-width="5" stroke-linecap="round"/>
<path d="M45.8016 519.776H55.2778" stroke="#D1D5DA" stroke-width="5" stroke-linecap="round"/>
<path d="M61.5952 519.776H102.659" stroke="#B392F0" stroke-width="5" stroke-linecap="round"/>
<path d="M108.976 519.776H118.452" stroke="#D1D5DA" stroke-width="5" stroke-linecap="round"/>
<path d="M124.77 519.776H146.881" stroke="#79B8FF" stroke-width="5" stroke-linecap="round"/>
<path d="M45.8016 532.428H55.2778" stroke="#D1D5DA" stroke-width="5" stroke-linecap="round"/>
<path d="M61.5952 532.428H105.817" stroke="#79B8FF" stroke-width="5" stroke-linecap="round"/>
<path d="M67.9127 538.755H86.8651" stroke="#79B8FF" stroke-width="5" stroke-linecap="round"/>
<path d="M93.1826 538.755H96.3413" stroke="#79B8FF" stroke-width="5" stroke-linecap="round"/>
<path d="M108.976 538.755H150.04" stroke="#79B8FF" stroke-width="5" stroke-linecap="round"/>
<path d="M165.833 538.755H184.786" stroke="#79B8FF" stroke-width="5" stroke-linecap="round"/>
<path d="M67.9127 545.082H86.8651" stroke="#79B8FF" stroke-width="5" stroke-linecap="round"/>
<path d="M93.1826 545.082H96.3413" stroke="#79B8FF" stroke-width="5" stroke-linecap="round"/>
<path d="M108.976 545.082H150.04" stroke="#79B8FF" stroke-width="5" stroke-linecap="round"/>
<path d="M165.833 545.082H184.786" stroke="#79B8FF" stroke-width="5" stroke-linecap="round"/>
<path d="M39.4841 570.388H80.5476" stroke="#B392F0" stroke-width="5" stroke-linecap="round"/>
<path d="M52.119 576.714H93.1825" stroke="#B392F0" stroke-width="5" stroke-linecap="round"/>
<path d="M45.8016 583.041H55.2778" stroke="#D1D5DA" stroke-width="5" stroke-linecap="round"/>
<path d="M61.5952 583.041H77.3889" stroke="#79B8FF" stroke-width="5" stroke-linecap="round"/>
<path d="M83.7064 583.041H140.563" stroke="#B392F0" stroke-width="5" stroke-linecap="round"/>
<path d="M146.881 583.041H178.468" stroke="#FFAB70" stroke-width="5" stroke-linecap="round"/>
<path d="M187.944 583.041H197.421" stroke="#D1D5DA" stroke-width="5" stroke-linecap="round"/>
<path d="M203.738 583.041H251.119" stroke="#79B8FF" stroke-width="5" stroke-linecap="round"/>
<path d="M45.8016 589.367H55.2778" stroke="#D1D5DA" stroke-width="5" stroke-linecap="round"/>
<path d="M61.5952 589.367H77.3889" stroke="#79B8FF" stroke-width="5" stroke-linecap="round"/>
<path d="M83.7064 589.367H140.563" stroke="#B392F0" stroke-width="5" stroke-linecap="round"/>
<path d="M146.881 589.367H178.468" stroke="#FFAB70" stroke-width="5" stroke-linecap="round"/>
<path d="M187.944 589.367H197.421" stroke="#D1D5DA" stroke-width="5" stroke-linecap="round"/>
<path d="M203.738 589.367H251.119" stroke="#79B8FF" stroke-width="5" stroke-linecap="round"/>
<path d="M45.8016 595.694H55.2778" stroke="#D1D5DA" stroke-width="5" stroke-linecap="round"/>
<path d="M61.5952 595.694H77.3889" stroke="#79B8FF" stroke-width="5" stroke-linecap="round"/>
<path d="M83.7064 595.694H140.563" stroke="#B392F0" stroke-width="5" stroke-linecap="round"/>
<path d="M146.881 595.694H175.31" stroke="#FFAB70" stroke-width="5" stroke-linecap="round"/>
<path d="M184.786 595.694H194.262" stroke="#D1D5DA" stroke-width="5" stroke-linecap="round"/>
<path d="M200.579 595.694H241.643" stroke="#79B8FF" stroke-width="5" stroke-linecap="round"/>
<path d="M45.8016 608.347H55.2778" stroke="#D1D5DA" stroke-width="5" stroke-linecap="round"/>
<path d="M61.5952 608.347H99.5" stroke="#B392F0" stroke-width="5" stroke-linecap="round"/>
<path d="M45.8016 621H55.2778" stroke="#D1D5DA" stroke-width="5" stroke-linecap="round"/>
<path d="M61.5952 621H105.817" stroke="#79B8FF" stroke-width="5" stroke-linecap="round"/>
<path d="M45.8016 652.633H58.4365" stroke="#F97583" stroke-width="5" stroke-linecap="round"/>
<path d="M64.754 652.633H93.1825" stroke="#B392F0" stroke-width="5" stroke-linecap="round"/>
<path d="M108.976 652.633H121.611" stroke="#D1D5DA" stroke-width="5" stroke-linecap="round"/>
<path d="M131.087 652.633H143.722" stroke="#D1D5DA" stroke-width="5" stroke-linecap="round"/>
<path d="M153.198 652.633H156.357" stroke="#79B8FF" stroke-width="5" stroke-linecap="round"/>
<path d="M52.119 658.959H64.7539" stroke="#F97583" stroke-width="5" stroke-linecap="round"/>
<path d="M71.0714 658.959H86.8651" stroke="#D1D5DA" stroke-width="5" stroke-linecap="round"/>
<path d="M102.659 658.959H115.294" stroke="#D1D5DA" stroke-width="5" stroke-linecap="round"/>
<path d="M134.246 658.959H143.722" stroke="#D1D5DA" stroke-width="5" stroke-linecap="round"/>
<path d="M150.04 658.959H162.675" stroke="#79B8FF" stroke-width="5" stroke-linecap="round"/>
<path d="M168.992 658.959H175.31" stroke="#79B8FF" stroke-width="5" stroke-linecap="round"/>
<path d="M52.119 665.286H58.4365" stroke="#F97583" stroke-width="5" stroke-linecap="round"/>
<path d="M64.754 665.286H93.1825" stroke="#D1D5DA" stroke-width="5" stroke-linecap="round"/>
<path d="M52.119 677.939H67.9127" stroke="#F97583" stroke-width="5" stroke-linecap="round"/>
<path d="M77.3889 677.939H86.8651" stroke="#79B8FF" stroke-width="5" stroke-linecap="round"/>
<path d="M58.4365 684.265H67.9127" stroke="#F97583" stroke-width="5" stroke-linecap="round"/>
<path d="M77.3889 684.265H93.1826" stroke="#D1D5DA" stroke-width="5" stroke-linecap="round"/>
<path d="M105.817 684.265H115.294" stroke="#79B8FF" stroke-width="5" stroke-linecap="round"/>
<path d="M64.754 690.592H93.1825" stroke="#D1D5DA" stroke-width="5" stroke-linecap="round"/>
<path d="M64.754 696.918H77.3889" stroke="#F97583" stroke-width="5" stroke-linecap="round"/>
<path d="M58.4365 703.245H67.9127" stroke="#F97583" stroke-width="5" stroke-linecap="round"/>
<path d="M77.3889 703.245H93.1826" stroke="#D1D5DA" stroke-width="5" stroke-linecap="round"/>
<path d="M105.817 703.245H115.294" stroke="#79B8FF" stroke-width="5" stroke-linecap="round"/>
<path d="M64.754 709.571H93.1825" stroke="#D1D5DA" stroke-width="5" stroke-linecap="round"/>
<path d="M64.754 715.898H77.3889" stroke="#F97583" stroke-width="5" stroke-linecap="round"/>
<path d="M58.4365 722.224H67.9127" stroke="#F97583" stroke-width="5" stroke-linecap="round"/>
<path d="M77.3889 722.224H93.1826" stroke="#D1D5DA" stroke-width="5" stroke-linecap="round"/>
<path d="M105.817 722.224H115.294" stroke="#79B8FF" stroke-width="5" stroke-linecap="round"/>
<path d="M64.754 728.551H93.1825" stroke="#D1D5DA" stroke-width="5" stroke-linecap="round"/>
<path d="M64.754 734.878H77.3889" stroke="#F97583" stroke-width="5" stroke-linecap="round"/>
<path d="M52.119 753.857H61.5952" stroke="#D1D5DA" stroke-width="5" stroke-linecap="round"/>
<path d="M67.9127 753.857H83.7064" stroke="#79B8FF" stroke-width="5" stroke-linecap="round"/>
<path d="M90.0238 753.857H102.659" stroke="#79B8FF" stroke-width="5" stroke-linecap="round"/>
<path d="M115.294 753.857H118.452" stroke="#FFAB70" stroke-width="5" stroke-linecap="round"/>
<path d="M52.119 760.184H61.5952" stroke="#D1D5DA" stroke-width="5" stroke-linecap="round"/>
<path d="M67.9127 760.184H83.7064" stroke="#79B8FF" stroke-width="5" stroke-linecap="round"/>
<path d="M96.3412 760.184H105.817" stroke="#D1D5DA" stroke-width="5" stroke-linecap="round"/>
<path d="M112.135 760.184H143.722" stroke="#79B8FF" stroke-width="5" stroke-linecap="round"/>
<path d="M150.04 760.184H178.468" stroke="#D1D5DA" stroke-width="5" stroke-linecap="round"/>
<path d="M187.944 760.184H200.579" stroke="#79B8FF" stroke-width="5" stroke-linecap="round"/>
<path d="M52.119 766.51H61.5952" stroke="#D1D5DA" stroke-width="5" stroke-linecap="round"/>
<path d="M67.9127 766.51H99.5" stroke="#79B8FF" stroke-width="5" stroke-linecap="round"/>
<path d="M105.817 766.51H134.246" stroke="#D1D5DA" stroke-width="5" stroke-linecap="round"/>
<path d="M143.722 766.51H156.357" stroke="#B392F0" stroke-width="5" stroke-linecap="round"/>
<path d="M45.8016 785.49H74.2302" stroke="#B392F0" stroke-width="5" stroke-linecap="round"/>
<path d="M80.5476 785.49H90.0238" stroke="#D1D5DA" stroke-width="5" stroke-linecap="round"/>
<path d="M96.3412 785.49H118.452" stroke="#79B8FF" stroke-width="5" stroke-linecap="round"/>
<path d="M127.929 785.49H137.405" stroke="#D1D5DA" stroke-width="5" stroke-linecap="round"/>
<path d="M143.722 785.49H156.357" stroke="#79B8FF" stroke-width="5" stroke-linecap="round"/>
<path d="M39.4841 804.469H80.5476" stroke="#B392F0" stroke-width="5" stroke-linecap="round"/>
<path d="M90.0238 804.469H102.659" stroke="#D1D5DA" stroke-width="5" stroke-linecap="round"/>
<path d="M45.8016 810.796H55.2778" stroke="#D1D5DA" stroke-width="5" stroke-linecap="round"/>
<path d="M61.5952 810.796H77.3889" stroke="#79B8FF" stroke-width="5" stroke-linecap="round"/>
<path d="M83.7064 810.796H96.3413" stroke="#79B8FF" stroke-width="5" stroke-linecap="round"/>
<path d="M108.976 810.796H140.563" stroke="#FFAB70" stroke-width="5" stroke-linecap="round"/>
<path d="M146.881 810.796H216.373" stroke="#FFAB70" stroke-width="5" stroke-linecap="round"/>
<path d="M222.69 810.796H298.5" stroke="#FFAB70" stroke-width="5" stroke-linecap="round"/>
<path d="M39.4841 829.776H93.1825" stroke="#B392F0" stroke-width="5" stroke-linecap="round"/>
<path d="M102.659 829.776H115.294" stroke="#D1D5DA" stroke-width="5" stroke-linecap="round"/>
<path d="M45.8016 836.102H55.2778" stroke="#D1D5DA" stroke-width="5" stroke-linecap="round"/>
<path d="M61.5952 836.102H77.3889" stroke="#79B8FF" stroke-width="5" stroke-linecap="round"/>
<path d="M90.0238 836.102H102.659" stroke="#D1D5DA" stroke-width="5" stroke-linecap="round"/>
<path d="M108.976 836.102H121.611" stroke="#79B8FF" stroke-width="5" stroke-linecap="round"/>
<path d="M39.4841 855.082H45.8016" stroke="#F97583" stroke-width="5" stroke-linecap="round"/>
<path d="M52.119 855.082H67.9127" stroke="#B392F0" stroke-width="5" stroke-linecap="round"/>
<path d="M77.3889 855.082H93.1826" stroke="#D1D5DA" stroke-width="5" stroke-linecap="round"/>
<path d="M45.8016 861.408H55.2778" stroke="#D1D5DA" stroke-width="5" stroke-linecap="round"/>
<path d="M61.5952 861.408H80.5476" stroke="#79B8FF" stroke-width="5" stroke-linecap="round"/>
<path d="M93.1826 861.408H108.976" stroke="#D1D5DA" stroke-width="5" stroke-linecap="round"/>
<path d="M39.4841 880.388H45.8016" stroke="#F97583" stroke-width="5" stroke-linecap="round"/>
<path d="M52.119 880.388H67.9127" stroke="#B392F0" stroke-width="5" stroke-linecap="round"/>
<path d="M45.8016 886.714H61.5952" stroke="#F97583" stroke-width="5" stroke-linecap="round"/>
<path d="M67.9127 886.714H77.3889" stroke="#D1D5DA" stroke-width="5" stroke-linecap="round"/>
<path d="M83.7064 886.714H102.659" stroke="#79B8FF" stroke-width="5" stroke-linecap="round"/>
<path d="M20.5318 89.5714H17.373" stroke="#CBD9E8" stroke-opacity="0.1" stroke-width="5" stroke-linecap="round"/>
<path d="M20.5318 95.8979H17.373" stroke="#CBD9E8" stroke-opacity="0.1" stroke-width="5" stroke-linecap="round"/>
<path d="M20.5318 102.224H17.373" stroke="#CBD9E8" stroke-opacity="0.1" stroke-width="5" stroke-linecap="round"/>
<path d="M20.5318 108.551H17.373" stroke="#CBD9E8" stroke-opacity="0.1" stroke-width="5" stroke-linecap="round"/>
<path d="M20.5318 114.878H17.373" stroke="#CBD9E8" stroke-opacity="0.1" stroke-width="5" stroke-linecap="round"/>
<path d="M20.5318 121.204H17.373" stroke="#CBD9E8" stroke-opacity="0.1" stroke-width="5" stroke-linecap="round"/>
<path d="M20.5318 127.531H17.373" stroke="#CBD9E8" stroke-opacity="0.1" stroke-width="5" stroke-linecap="round"/>
<path d="M20.5318 133.857H17.373" stroke="#CBD9E8" stroke-opacity="0.1" stroke-width="5" stroke-linecap="round"/>
<path d="M20.5318 140.184H17.373" stroke="#CBD9E8" stroke-opacity="0.1" stroke-width="5" stroke-linecap="round"/>
<path d="M20.5318 146.51H17.373" stroke="#CBD9E8" stroke-opacity="0.1" stroke-width="5" stroke-linecap="round"/>
<path d="M20.5318 152.837H17.373" stroke="#CBD9E8" stroke-opacity="0.1" stroke-width="5" stroke-linecap="round"/>
<path d="M20.5318 159.163H17.373" stroke="#CBD9E8" stroke-opacity="0.1" stroke-width="5" stroke-linecap="round"/>
<path d="M20.5318 165.49H17.373" stroke="#CBD9E8" stroke-opacity="0.1" stroke-width="5" stroke-linecap="round"/>
<path d="M20.5318 171.816H17.373" stroke="#CBD9E8" stroke-opacity="0.1" stroke-width="5" stroke-linecap="round"/>
<path d="M20.5318 178.143H17.373" stroke="#CBD9E8" stroke-opacity="0.1" stroke-width="5" stroke-linecap="round"/>
<path d="M20.5318 184.469H17.373" stroke="#CBD9E8" stroke-opacity="0.1" stroke-width="5" stroke-linecap="round"/>
<path d="M20.5318 190.796H17.373" stroke="#CBD9E8" stroke-opacity="0.1" stroke-width="5" stroke-linecap="round"/>
<path d="M20.5318 197.122H17.373" stroke="#CBD9E8" stroke-opacity="0.1" stroke-width="5" stroke-linecap="round"/>
<path d="M20.5318 203.449H17.373" stroke="#CBD9E8" stroke-opacity="0.1" stroke-width="5" stroke-linecap="round"/>
<path d="M20.5318 209.776H17.373" stroke="#CBD9E8" stroke-opacity="0.1" stroke-width="5" stroke-linecap="round"/>
<path d="M20.5318 216.102H17.373" stroke="#CBD9E8" stroke-opacity="0.1" stroke-width="5" stroke-linecap="round"/>
<path d="M20.5318 222.429H17.373" stroke="#CBD9E8" stroke-opacity="0.1" stroke-width="5" stroke-linecap="round"/>
<path d="M20.5318 228.755H17.373" stroke="#CBD9E8" stroke-opacity="0.1" stroke-width="5" stroke-linecap="round"/>
<path d="M20.5318 235.082H17.373" stroke="#CBD9E8" stroke-opacity="0.1" stroke-width="5" stroke-linecap="round"/>
<path d="M20.5318 241.408H17.373" stroke="#CBD9E8" stroke-opacity="0.1" stroke-width="5" stroke-linecap="round"/>
<path d="M20.5318 247.735H17.373" stroke="#CBD9E8" stroke-opacity="0.1" stroke-width="5" stroke-linecap="round"/>
<path d="M20.5318 254.061H17.373" stroke="#CBD9E8" stroke-opacity="0.1" stroke-width="5" stroke-linecap="round"/>
<path d="M20.5318 260.388H17.373" stroke="#CBD9E8" stroke-opacity="0.1" stroke-width="5" stroke-linecap="round"/>
<path d="M20.5318 266.714H17.373" stroke="#CBD9E8" stroke-opacity="0.1" stroke-width="5" stroke-linecap="round"/>
<path d="M20.5318 273.041H17.373" stroke="#CBD9E8" stroke-opacity="0.1" stroke-width="5" stroke-linecap="round"/>
<path d="M20.5318 279.367H17.373" stroke="#CBD9E8" stroke-opacity="0.1" stroke-width="5" stroke-linecap="round"/>
<path d="M20.5318 285.694H17.373" stroke="#CBD9E8" stroke-opacity="0.1" stroke-width="5" stroke-linecap="round"/>
<path d="M20.5318 292.02H17.373" stroke="#CBD9E8" stroke-opacity="0.1" stroke-width="5" stroke-linecap="round"/>
<path d="M20.5318 298.347H17.373" stroke="#CBD9E8" stroke-opacity="0.1" stroke-width="5" stroke-linecap="round"/>
<path d="M20.5318 304.673H17.373" stroke="#CBD9E8" stroke-opacity="0.1" stroke-width="5" stroke-linecap="round"/>
<path d="M20.5318 311H17.373" stroke="#CBD9E8" stroke-opacity="0.1" stroke-width="5" stroke-linecap="round"/>
<path d="M20.5318 317.327H17.373" stroke="#CBD9E8" stroke-opacity="0.1" stroke-width="5" stroke-linecap="round"/>
<path d="M20.5318 323.653H17.373" stroke="#CBD9E8" stroke-opacity="0.1" stroke-width="5" stroke-linecap="round"/>
<path d="M20.5318 329.98H17.373" stroke="#CBD9E8" stroke-opacity="0.1" stroke-width="5" stroke-linecap="round"/>
<path d="M20.5318 336.306H17.373" stroke="#CBD9E8" stroke-opacity="0.1" stroke-width="5" stroke-linecap="round"/>
<path d="M20.5318 342.633H17.373" stroke="#CBD9E8" stroke-opacity="0.1" stroke-width="5" stroke-linecap="round"/>
<path d="M20.5318 348.959H17.373" stroke="#CBD9E8" stroke-opacity="0.1" stroke-width="5" stroke-linecap="round"/>
<path d="M20.5318 355.286H17.373" stroke="#CBD9E8" stroke-opacity="0.1" stroke-width="5" stroke-linecap="round"/>
<path d="M20.5318 361.612H17.373" stroke="#CBD9E8" stroke-opacity="0.1" stroke-width="5" stroke-linecap="round"/>
<path d="M20.5318 367.939H17.373" stroke="#CBD9E8" stroke-opacity="0.1" stroke-width="5" stroke-linecap="round"/>
<path d="M20.5318 374.265H17.373" stroke="#CBD9E8" stroke-opacity="0.1" stroke-width="5" stroke-linecap="round"/>
<path d="M20.5318 380.592H17.373" stroke="#CBD9E8" stroke-opacity="0.1" stroke-width="5" stroke-linecap="round"/>
<path d="M20.5318 386.918H17.373" stroke="#CBD9E8" stroke-opacity="0.1" stroke-width="5" stroke-linecap="round"/>
<path d="M20.5318 393.245H17.373" stroke="#CBD9E8" stroke-opacity="0.1" stroke-width="5" stroke-linecap="round"/>
<path d="M20.5318 399.571H17.373" stroke="#CBD9E8" stroke-opacity="0.1" stroke-width="5" stroke-linecap="round"/>
<path d="M20.5318 405.898H17.373" stroke="#CBD9E8" stroke-opacity="0.1" stroke-width="5" stroke-linecap="round"/>
<path d="M20.5318 412.224H17.373" stroke="#CBD9E8" stroke-opacity="0.1" stroke-width="5" stroke-linecap="round"/>
<path d="M20.5318 418.551H17.373" stroke="#CBD9E8" stroke-opacity="0.1" stroke-width="5" stroke-linecap="round"/>
<path d="M20.5318 424.878H17.373" stroke="#CBD9E8" stroke-opacity="0.1" stroke-width="5" stroke-linecap="round"/>
<path d="M20.5318 431.204H17.373" stroke="#CBD9E8" stroke-opacity="0.1" stroke-width="5" stroke-linecap="round"/>
<path d="M20.5318 437.531H17.373" stroke="#CBD9E8" stroke-opacity="0.1" stroke-width="5" stroke-linecap="round"/>
<path d="M20.5318 443.857H17.373" stroke="#CBD9E8" stroke-opacity="0.1" stroke-width="5" stroke-linecap="round"/>
<path d="M20.5318 450.184H17.373" stroke="#CBD9E8" stroke-opacity="0.1" stroke-width="5" stroke-linecap="round"/>
<path d="M20.5318 456.51H17.373" stroke="#CBD9E8" stroke-opacity="0.1" stroke-width="5" stroke-linecap="round"/>
<path d="M20.5318 462.837H17.373" stroke="#CBD9E8" stroke-opacity="0.1" stroke-width="5" stroke-linecap="round"/>
<path d="M20.5318 469.163H17.373" stroke="#CBD9E8" stroke-opacity="0.1" stroke-width="5" stroke-linecap="round"/>
<path d="M20.5318 475.49H17.373" stroke="#CBD9E8" stroke-opacity="0.1" stroke-width="5" stroke-linecap="round"/>
<path d="M20.5318 481.816H17.373" stroke="#CBD9E8" stroke-opacity="0.1" stroke-width="5" stroke-linecap="round"/>
<path d="M20.5318 488.143H17.373" stroke="#CBD9E8" stroke-opacity="0.1" stroke-width="5" stroke-linecap="round"/>
<path d="M20.5318 494.469H17.373" stroke="#CBD9E8" stroke-opacity="0.1" stroke-width="5" stroke-linecap="round"/>
<path d="M20.5318 500.796H17.373" stroke="#CBD9E8" stroke-opacity="0.1" stroke-width="5" stroke-linecap="round"/>
<path d="M20.5318 507.122H17.373" stroke="#CBD9E8" stroke-opacity="0.1" stroke-width="5" stroke-linecap="round"/>
<path d="M20.5318 513.449H17.373" stroke="#CBD9E8" stroke-opacity="0.1" stroke-width="5" stroke-linecap="round"/>
<path d="M20.5318 519.776H17.373" stroke="#CBD9E8" stroke-opacity="0.1" stroke-width="5" stroke-linecap="round"/>
<path d="M20.5318 526.102H17.373" stroke="#CBD9E8" stroke-opacity="0.1" stroke-width="5" stroke-linecap="round"/>
<path d="M20.5318 532.428H17.373" stroke="#CBD9E8" stroke-opacity="0.1" stroke-width="5" stroke-linecap="round"/>
<path d="M20.5318 538.755H17.373" stroke="#CBD9E8" stroke-opacity="0.1" stroke-width="5" stroke-linecap="round"/>
<path d="M20.5318 545.082H17.373" stroke="#CBD9E8" stroke-opacity="0.1" stroke-width="5" stroke-linecap="round"/>
<path d="M20.5318 551.408H17.373" stroke="#CBD9E8" stroke-opacity="0.1" stroke-width="5" stroke-linecap="round"/>
<path d="M20.5318 557.735H17.373" stroke="#CBD9E8" stroke-opacity="0.1" stroke-width="5" stroke-linecap="round"/>
<path d="M20.5318 564.061H17.373" stroke="#CBD9E8" stroke-opacity="0.1" stroke-width="5" stroke-linecap="round"/>
<path d="M20.5318 570.388H17.373" stroke="#CBD9E8" stroke-opacity="0.1" stroke-width="5" stroke-linecap="round"/>
<path d="M20.5318 576.714H17.373" stroke="#CBD9E8" stroke-opacity="0.1" stroke-width="5" stroke-linecap="round"/>
<path d="M20.5318 583.041H17.373" stroke="#CBD9E8" stroke-opacity="0.1" stroke-width="5" stroke-linecap="round"/>
<path d="M20.5318 589.367H17.373" stroke="#CBD9E8" stroke-opacity="0.1" stroke-width="5" stroke-linecap="round"/>
<path d="M20.5318 595.694H17.373" stroke="#CBD9E8" stroke-opacity="0.1" stroke-width="5" stroke-linecap="round"/>
<path d="M20.5318 602.02H17.373" stroke="#CBD9E8" stroke-opacity="0.1" stroke-width="5" stroke-linecap="round"/>
<path d="M20.5318 608.347H17.373" stroke="#CBD9E8" stroke-opacity="0.1" stroke-width="5" stroke-linecap="round"/>
<path d="M20.5318 614.673H17.373" stroke="#CBD9E8" stroke-opacity="0.1" stroke-width="5" stroke-linecap="round"/>
<path d="M20.5318 621H17.373" stroke="#CBD9E8" stroke-opacity="0.1" stroke-width="5" stroke-linecap="round"/>
<path d="M20.5318 627.327H17.373" stroke="#CBD9E8" stroke-opacity="0.1" stroke-width="5" stroke-linecap="round"/>
<path d="M20.5318 633.653H17.373" stroke="#CBD9E8" stroke-opacity="0.1" stroke-width="5" stroke-linecap="round"/>
<path d="M20.5318 639.98H17.373" stroke="#CBD9E8" stroke-opacity="0.1" stroke-width="5" stroke-linecap="round"/>
<path d="M20.5318 646.306H17.373" stroke="#CBD9E8" stroke-opacity="0.1" stroke-width="5" stroke-linecap="round"/>
<path d="M20.5318 652.633H17.373" stroke="#CBD9E8" stroke-opacity="0.1" stroke-width="5" stroke-linecap="round"/>
<path d="M20.5318 658.959H14.2143" stroke="#CBD9E8" stroke-opacity="0.1" stroke-width="5" stroke-linecap="round"/>
<path d="M20.5318 665.286H14.2143" stroke="#CBD9E8" stroke-opacity="0.1" stroke-width="5" stroke-linecap="round"/>
<path d="M20.5318 671.612H14.2143" stroke="#CBD9E8" stroke-opacity="0.1" stroke-width="5" stroke-linecap="round"/>
<path d="M20.5318 677.939H14.2143" stroke="#CBD9E8" stroke-opacity="0.1" stroke-width="5" stroke-linecap="round"/>
<path d="M20.5318 684.265H14.2143" stroke="#CBD9E8" stroke-opacity="0.1" stroke-width="5" stroke-linecap="round"/>
<path d="M20.5318 690.592H14.2143" stroke="#CBD9E8" stroke-opacity="0.1" stroke-width="5" stroke-linecap="round"/>
<path d="M20.5318 696.918H14.2143" stroke="#CBD9E8" stroke-opacity="0.1" stroke-width="5" stroke-linecap="round"/>
<path d="M20.5318 703.245H14.2143" stroke="#CBD9E8" stroke-opacity="0.1" stroke-width="5" stroke-linecap="round"/>
<path d="M20.5318 709.571H14.2143" stroke="#CBD9E8" stroke-opacity="0.1" stroke-width="5" stroke-linecap="round"/>
<path d="M20.5318 715.898H14.2143" stroke="#CBD9E8" stroke-opacity="0.1" stroke-width="5" stroke-linecap="round"/>
<path d="M20.5318 722.224H14.2143" stroke="#CBD9E8" stroke-opacity="0.1" stroke-width="5" stroke-linecap="round"/>
<path d="M20.5318 728.551H14.2143" stroke="#CBD9E8" stroke-opacity="0.1" stroke-width="5" stroke-linecap="round"/>
<path d="M20.5318 734.878H14.2143" stroke="#CBD9E8" stroke-opacity="0.1" stroke-width="5" stroke-linecap="round"/>
<path d="M20.5318 741.204H14.2143" stroke="#CBD9E8" stroke-opacity="0.1" stroke-width="5" stroke-linecap="round"/>
<path d="M20.5318 747.531H14.2143" stroke="#CBD9E8" stroke-opacity="0.1" stroke-width="5" stroke-linecap="round"/>
<path d="M20.5318 753.857H14.2143" stroke="#CBD9E8" stroke-opacity="0.1" stroke-width="5" stroke-linecap="round"/>
<path d="M20.5318 760.184H14.2143" stroke="#CBD9E8" stroke-opacity="0.1" stroke-width="5" stroke-linecap="round"/>
<path d="M20.5318 766.51H14.2143" stroke="#CBD9E8" stroke-opacity="0.1" stroke-width="5" stroke-linecap="round"/>
<path d="M20.5318 772.837H14.2143" stroke="#CBD9E8" stroke-opacity="0.1" stroke-width="5" stroke-linecap="round"/>
<path d="M20.5318 779.163H14.2143" stroke="#CBD9E8" stroke-opacity="0.1" stroke-width="5" stroke-linecap="round"/>
<path d="M20.5318 785.49H14.2143" stroke="#CBD9E8" stroke-opacity="0.1" stroke-width="5" stroke-linecap="round"/>
<path d="M20.5318 791.816H14.2143" stroke="#CBD9E8" stroke-opacity="0.1" stroke-width="5" stroke-linecap="round"/>
<path d="M20.5318 798.143H14.2143" stroke="#CBD9E8" stroke-opacity="0.1" stroke-width="5" stroke-linecap="round"/>
<path d="M20.5318 804.469H14.2143" stroke="#CBD9E8" stroke-opacity="0.1" stroke-width="5" stroke-linecap="round"/>
<path d="M20.5318 810.796H14.2143" stroke="#CBD9E8" stroke-opacity="0.1" stroke-width="5" stroke-linecap="round"/>
<path d="M20.5318 817.122H14.2143" stroke="#CBD9E8" stroke-opacity="0.1" stroke-width="5" stroke-linecap="round"/>
<path d="M20.5318 823.449H14.2143" stroke="#CBD9E8" stroke-opacity="0.1" stroke-width="5" stroke-linecap="round"/>
<path d="M20.5318 829.776H14.2143" stroke="#CBD9E8" stroke-opacity="0.1" stroke-width="5" stroke-linecap="round"/>
<path d="M20.5318 836.102H14.2143" stroke="#CBD9E8" stroke-opacity="0.1" stroke-width="5" stroke-linecap="round"/>
<path d="M20.5318 842.429H14.2143" stroke="#CBD9E8" stroke-opacity="0.1" stroke-width="5" stroke-linecap="round"/>
<path d="M20.5318 848.755H14.2143" stroke="#CBD9E8" stroke-opacity="0.1" stroke-width="5" stroke-linecap="round"/>
<path d="M20.5318 855.082H14.2143" stroke="#CBD9E8" stroke-opacity="0.1" stroke-width="5" stroke-linecap="round"/>
<path d="M20.5318 861.408H14.2143" stroke="#CBD9E8" stroke-opacity="0.1" stroke-width="5" stroke-linecap="round"/>
<path d="M20.5318 867.735H14.2143" stroke="#CBD9E8" stroke-opacity="0.1" stroke-width="5" stroke-linecap="round"/>
<path d="M20.5318 874.061H14.2143" stroke="#CBD9E8" stroke-opacity="0.1" stroke-width="5" stroke-linecap="round"/>
<path d="M20.5318 880.388H14.2143" stroke="#CBD9E8" stroke-opacity="0.1" stroke-width="5" stroke-linecap="round"/>
<path d="M20.5318 886.714H14.2143" stroke="#CBD9E8" stroke-opacity="0.1" stroke-width="5" stroke-linecap="round"/>
<path d="M20.5318 893.041H14.2143" stroke="#CBD9E8" stroke-opacity="0.1" stroke-width="5" stroke-linecap="round"/>
<path d="M20.5318 899.367H14.2143" stroke="#CBD9E8" stroke-opacity="0.1" stroke-width="5" stroke-linecap="round"/>
</svg>
