<svg xmlns="http://www.w3.org/2000/svg" fill="none" viewBox="0 0 894 568">
  <defs/>
  <rect width="893" height="568" fill="#fff" rx="4"/>
  <mask id="a" width="893" height="568" x="1" y="0" maskUnits="userSpaceOnUse">
    <path fill="#fff" d="M1 0h893v568H1z"/>
  </mask>
  <g mask="url(#a)">
    <path fill="#F2F3F7" d="M175 0h715a4 4 0 014 4v560a4 4 0 01-4 4H175V0z"/>
    <path fill="#fff" stroke="#D9DBEC" stroke-width=".5" d="M199 66.25h666a3.75 3.75 0 013.75 3.75v497.75h-673.5V70a3.75 3.75 0 013.75-3.75z"/>
    <path stroke="#D9DBEC" stroke-width=".5" d="M174.91-.62v569"/>
    <rect width="9.5" height="9.5" x="205.79" y="81.39" stroke="#D9DBEC" stroke-width=".5" rx="1.75"/>
    <rect width="110.5" height="23.54" x="226.11" y="74.19" stroke="#D9DBEC" stroke-width=".5" rx="3.75"/>
    <path fill="#C4C8CB" d="M297.81 83.38h-60.9c-1.2 0-2.18.77-2.18 1.72v1.72c0 .95.98 1.72 2.18 1.72h60.9c1.2 0 2.18-.77 2.18-1.72V85.1c0-.95-.98-1.72-2.18-1.72zM329.57 85.16c.1-.1.1-.26 0-.36l-.64-.64a.25.25 0 00-.36 0l-2.07 2.07-2.07-2.07a.25.25 0 00-.36 0l-.64.64c-.1.1-.1.26 0 .36l2.9 2.9c.1.09.25.09.35 0l2.9-2.9z"/>
    <rect width="99.5" height="23.54" x="650.11" y="74.19" stroke="#D9DBEC" stroke-width=".5" rx="3.75"/>
    <path fill="#C4C8CB" d="M691.6 83.38h-31.73c-.63 0-1.14.77-1.14 1.72v1.72c0 .95.51 1.72 1.14 1.72h31.73c.63 0 1.13-.77 1.13-1.72V85.1c0-.95-.5-1.72-1.13-1.72zM742.57 85.16c.1-.1.1-.26 0-.36l-.64-.64a.25.25 0 00-.36 0l-2.07 2.07-2.07-2.07a.25.25 0 00-.36 0l-.64.64c-.1.1-.1.26 0 .36l2.9 2.9c.1.09.25.09.35 0l2.9-2.9z"/>
    <rect width="99.5" height="23.54" x="759.11" y="74.19" stroke="#D9DBEC" stroke-width=".5" rx="3.75"/>
    <path fill="#C4C8CB" d="M800.6 83.38h-31.73c-.63 0-1.14.77-1.14 1.72v1.72c0 .95.51 1.72 1.14 1.72h31.73c.63 0 1.13-.77 1.13-1.72V85.1c0-.95-.5-1.72-1.13-1.72zM851.57 85.16c.1-.1.1-.26 0-.36l-.64-.64a.25.25 0 00-.36 0l-2.07 2.07-2.07-2.07a.25.25 0 00-.36 0l-.64.64c-.1.1-.1.26 0 .36l2.9 2.9c.1.09.25.09.35 0l2.9-2.9z"/>
    <path fill="#0472FF" d="M867.96 28.58H792.3c-.92 0-1.67 1.26-1.67 2.82V49.8c0 1.56.75 2.83 1.67 2.83h75.66c.92 0 1.66-1.27 1.66-2.83V31.4c0-1.56-.74-2.82-1.66-2.82z"/>
    <path fill="#fff" fill-opacity=".6" d="M848.44 38.88h-37.58c-.74 0-1.34.63-1.34 1.41v1.41c0 .78.6 1.42 1.34 1.42h37.58c.74 0 1.34-.64 1.34-1.42v-1.4c0-.79-.6-1.42-1.34-1.42z"/>
    <path stroke="#D9DBEC" stroke-width=".5" d="M206.54 558.7h652"/>
    <rect width="25" height="5" x="227" y="529.4" fill="#C4C8CB" fill-opacity=".5" rx="1"/>
    <rect width="126" height="5" x="262" y="529.4" fill="#C4C8CB" fill-opacity=".5" rx="1"/>
    <rect width="80" height="5" x="398" y="529.4" fill="#C4C8CB" fill-opacity=".5" rx="1"/>
    <rect width="30" height="5" x="488" y="529.4" fill="#408DFF" rx="1"/>
    <rect width="200" height="6" x="227" y="512.73" fill="#C4C8CB" rx="1"/>
    <rect width="91.01" height="48.08" x="766.31" y="487.93" fill="#28056B" rx="7"/>
    <path fill="#fff" fill-opacity=".8" fill-rule="evenodd" d="M847.02 529.14H774.9v-.86h72.12v.86z" clip-rule="evenodd"/>
    <path fill="url(#paint0_linear)" d="M781.76 498.23h6.87v29.19h-6.87z"/>
    <path fill="url(#paint1_linear)" d="M792.07 508.53h6.87v18.89h-6.87z"/>
    <path fill="url(#paint2_linear)" d="M802.37 511.97h6.87v15.45h-6.87z"/>
    <path fill="url(#paint3_linear)" d="M812.67 508.53h6.87v18.89h-6.87z"/>
    <path fill="url(#paint4_linear)" d="M822.98 515.4h6.87v12.02h-6.87z"/>
    <path fill="url(#paint5_linear)" d="M833.28 523.99h6.87v3.43h-6.87z"/>
    <path fill="#fff" fill-opacity=".5" fill-rule="evenodd" d="M768.85 508.53h-1.68v-.85h1.68v.85zm6.74 0h-3.37v-.85h3.37v.85zm6.74 0h-3.37v-.85h3.37v.85zm6.73 0h-3.37v-.85h3.37v.85zm6.74 0h-3.37v-.85h3.37v.85zm6.74 0h-3.37v-.85h3.37v.85zm6.73 0h-3.37v-.85h3.37v.85zm6.74 0h-3.37v-.85h3.37v.85zm6.74 0h-3.37v-.85h3.37v.85zm6.73 0h-3.37v-.85h3.37v.85zm6.74 0h-3.37v-.85h3.37v.85zm6.74 0h-3.37v-.85h3.37v.85zm6.73 0h-3.37v-.85h3.37v.85zm5.06 0h-1.69v-.85h1.69v.85z" clip-rule="evenodd"/>
    <rect width="264.45" height="10.3" x="226.86" y="492.01" fill="#C4C8CB" rx="1"/>
    <rect width="9.5" height="9.5" x="205.79" y="491.87" stroke="#D9DBEC" stroke-width=".5" rx="1.75"/>
    <path stroke="#D9DBEC" stroke-width=".5" d="M206.54 467.31h652"/>
    <rect width="25" height="5" x="227" y="438.02" fill="#C4C8CB" fill-opacity=".5" rx="1"/>
    <rect width="126" height="5" x="262" y="438.02" fill="#C4C8CB" fill-opacity=".5" rx="1"/>
    <rect width="80" height="5" x="398" y="438.02" fill="#C4C8CB" fill-opacity=".5" rx="1"/>
    <rect width="30" height="5" x="488" y="438.02" fill="#408DFF" rx="1"/>
    <rect width="200" height="6" x="227" y="421.34" fill="#C4C8CB" rx="1"/>
    <rect width="91.01" height="48.08" fill="#F6F9D2" rx="7" transform="matrix(-1 0 0 1 857.32 396.93)"/>
    <mask id="b" width="92" height="50" x="766" y="396" maskUnits="userSpaceOnUse">
      <rect width="91.01" height="48.08" fill="#F6F9D2" rx="7" transform="matrix(-1 0 0 1 857.32 396.93)"/>
    </mask>
    <g mask="url(#b)">
      <path fill="#6D852F" d="M790.13 425.62c-12-1.2-19.67 11.83-22 18.5l-2.5 6.5h75.5c-.83-4.17-6.2-12.5-21-12.5-18.5 0-15-11-30-12.5z"/>
      <path fill="#8C4B2B" d="M840.63 432.62h4v11h-4v-11z"/>
      <path fill="#66351E" d="M842.63 435.12v8.5h2v-5.5l2-1v-1.5l-2 .75v-3.75h-4v2.5h2z"/>
      <path fill="#43722E" d="M836.63 432.62h13c-1.5-13.5-4.5-19-6.5-25-3 6.5-5 12.5-6.5 25z"/>
      <path fill="#84882F" d="M843.13 407.62c-3 6.5-5 12.5-6.5 25h4.5c-.33-3.34-.4-13 2-25z"/>
      <path fill="#43722E" d="M806.13 425.62c-12-1.2-19.67 11.83-22 18.5l-2.5 6.5h75.5c-.83-4.17-6.2-12.5-21-12.5-18.5 0-15-11-30-12.5z"/>
      <path fill="#66351E" d="M819.63 429.62h-4v19h4z"/>
      <path fill="#8C4B2B" d="M817.63 432.12v16.5h-2v-13.5l-2-1v-1.5l2 .75v-1.25h2z"/>
      <path fill="#43722E" d="M818.13 415.62l-9.96 14.25h19.92l-9.96-14.25z"/>
      <path fill="#83892F" d="M808.17 429.87l9.96-14.25-3 14.25h-6.96z"/>
      <path fill="#43722E" d="M818.13 407.62l-9.96 14.25h19.92l-9.96-14.25z"/>
      <path fill="#83892F" d="M808.17 421.87l9.96-14.25-3 14.25h-6.96z"/>
      <path fill="#43722E" d="M818.13 399.62l-9.96 14.25h19.92l-9.96-14.25z"/>
      <path fill="#83892F" d="M808.17 413.87l9.96-14.25-3 14.25h-6.96z"/>
    </g>
    <circle r="6.5" fill="#FF9852" transform="matrix(-1 0 0 1 787.13 410.12)"/>
    <rect width="264.45" height="10.3" x="226.86" y="400.63" fill="#C4C8CB" rx="1"/>
    <rect width="9.5" height="9.5" x="205.79" y="400.49" stroke="#D9DBEC" stroke-width=".5" rx="1.75"/>
    <path stroke="#D9DBEC" stroke-width=".5" d="M206.54 375.97h652"/>
    <rect width="25" height="5" x="227" y="346.68" fill="#C4C8CB" fill-opacity=".5" rx="1"/>
    <rect width="126" height="5" x="262" y="346.68" fill="#C4C8CB" fill-opacity=".5" rx="1"/>
    <rect width="80" height="5" x="398" y="346.68" fill="#C4C8CB" fill-opacity=".5" rx="1"/>
    <rect width="30" height="5" x="488" y="346.68" fill="#408DFF" rx="1"/>
    <rect width="200" height="6" x="227" y="330" fill="#C4C8CB" rx="1"/>
    <rect width="91.01" height="48.08" x="766.31" y="305.63" fill="url(#paint6_linear)" rx="7"/>
    <path fill="#fff" d="M842.73 322.8h-17.18c0-3.43 2.58-5.15 6.87-5.15.29-1.14 1.72-3.43 5.15-3.43 4.3 0 5.15 4.3 5.15 8.58zM786.06 319.37h17.17c0-3.44-2.58-5.15-6.87-5.15-.29-1.15-1.72-3.44-5.15-3.44-4.3 0-5.15 4.3-5.15 8.59z"/>
    <path fill="#0193D2" d="M766.3 345.13h91.02v1.58a7 7 0 01-7 7h-77.01a7 7 0 01-7-7v-1.58z"/>
    <path fill="url(#paint7_linear)" d="M836.72 348.18c0 1-5.45 4.39-12.31 4.43-7.73.04-19.03-2.21-24.62-2.21-4.18 0-9.35 1.78-15.45 3.22h-11.6c-4.74 0-6.43-4.62-6.43-6.22v-5.22a14.45 14.45 0 017.11-1.74c5.83 0 54.5-3.31 63.3 7.74z" opacity=".5"/>
    <path fill="#71A94A" d="M795.5 330.53c-4.3 6.87-5.74 8.59-8.58 8.59-2.85 0-7.73-5.77-7.73-12.88 0-7.12 4.88-13.74 7.73-13.74.9 0 4.29 0 6 1.72 2.58 3.43.87 5.15 2.58 9.44 1.37 3.22.86 4.3 0 6.87z"/>
    <path fill="#98C150" d="M822.12 333.1c0 3.44-.86 4.3-4.3 6.02-1.71 1.71-2.57 4.29-5.15 4.29-6-3.44-5.86-11.61-5.15-13.74.86-2.57 4.3-9.44 6.87-7.73.86.86.86 2.58 1.72 3.44 3.03 3.04 6 3.43 6 7.73z"/>
    <path fill="#000" fill-rule="evenodd" d="M787.26 319.37c.19 0 .34.15.34.34v26.8a.34.34 0 01-.68 0v-26.8c0-.19.15-.34.34-.34z" clip-rule="evenodd"/>
    <path fill="#000" fill-rule="evenodd" d="M791.44 320.83c.14.13.15.35.02.49l-3.95 4.3a.34.34 0 01-.5-.47l3.95-4.3a.34.34 0 01.48-.02zM783.08 327.7a.34.34 0 00-.02.49l3.95 4.3a.34.34 0 00.5-.47l-3.95-4.3a.34.34 0 00-.48-.02zM816.87 329.44c.13.13.13.35-.01.48l-3.6 3.44a.34.34 0 01-.48-.5l3.6-3.44a.34.34 0 01.5.02z" clip-rule="evenodd"/>
    <path fill="#000" fill-rule="evenodd" d="M812.67 346.5v-18.55a.34.34 0 01.7 0v18.55a.34.34 0 11-.7 0z" clip-rule="evenodd"/>
    <path fill="#000" fill-rule="evenodd" d="M810.71 334.58a.34.34 0 000 .49l2.06 2.06a.34.34 0 10.49-.49l-2.06-2.06a.34.34 0 00-.49 0z" clip-rule="evenodd"/>
    <rect width="264.45" height="10.3" x="226.86" y="309.28" fill="#C4C8CB" rx="1"/>
    <rect width="9.5" height="9.5" x="205.79" y="309.15" stroke="#D9DBEC" stroke-width=".5" rx="1.75"/>
    <path stroke="#D9DBEC" stroke-width=".5" d="M206.54 284.3h652"/>
    <rect width="25" height="5" x="227" y="255" fill="#C4C8CB" fill-opacity=".5" rx="1"/>
    <rect width="126" height="5" x="262" y="255" fill="#C4C8CB" fill-opacity=".5" rx="1"/>
    <rect width="80" height="5" x="398" y="255" fill="#C4C8CB" fill-opacity=".5" rx="1"/>
    <rect width="30" height="5" x="488" y="255" fill="#408DFF" rx="1"/>
    <rect width="200" height="6" x="227" y="236" fill="#C4C8CB" rx="1"/>
    <rect width="91.01" height="48.08" x="766.31" y="213.62" fill="url(#paint8_linear)" rx="7"/>
    <g filter="url(#filter0_f)">
      <ellipse cx="804.09" cy="235.09" fill="url(#paint9_linear)" rx="15.45" ry="14.6"/>
    </g>
    <circle cx="804.39" cy="236.85" r="10.72" fill="url(#paint10_linear)"/>
    <circle cx="808.67" cy="234.7" r="2.14" fill="#C9D5E1"/>
    <circle cx="809.75" cy="229.34" r="1.07" fill="#C9D5E1"/>
    <circle cx="799.02" cy="231.49" r="1.07" fill="#C9D5E1"/>
    <circle cx="801.17" cy="235.77" r="1.07" fill="#CFDCE6"/>
    <circle cx="805.46" cy="231.49" r="1.07" fill="#C9D5E1"/>
    <circle cx="796.35" cy="235.24" r=".54" fill="#CFDCE6"/>
    <path fill="url(#paint11_linear)" d="M838.43 251.4h-41.21c0-2.4 3.25-3.6 6.5-3.6 1.1-6.01 7.6-8.41 11.94-6.01 4.34-9.61 18.43-7.2 17.35 6 3.47 0 5.42 2.4 5.42 3.6z"/>
    <path fill="#C8F1F5" d="M773.56 220.14l.14 1.4 1.16.81-1.4.14-.81 1.16-.14-1.4-1.16-.81 1.4-.14.81-1.16zM830.98 221.24l1.18.77 1.35-.39-.77 1.18.4 1.36-1.19-.78-1.35.4.77-1.19-.39-1.35zM839.38 239.84l.14 1.4 1.16.8-1.4.15-.81 1.15-.14-1.4-1.16-.81 1.4-.14.81-1.16zM785.3 248.4l.77 1.2 1.4.19-1.2.76-.2 1.4-.75-1.2-1.4-.2 1.19-.75.2-1.4z"/>
    <path fill="#C8F1F5" d="M782.07 236.35l.62 1.27 1.37.35-1.27.62-.35 1.37-.62-1.27-1.37-.35 1.27-.62.35-1.37zM847.1 220.67l.62 1.27 1.37.35-1.27.62-.35 1.37-.62-1.27-1.37-.35 1.27-.62.35-1.37zM815.7 250.19l-.36 1.36.8 1.16-1.36-.36-1.17.8.37-1.37-.8-1.16 1.37.37 1.16-.8zM793.92 218.1l-.36 1.36.8 1.17-1.37-.37-1.16.8.36-1.36-.8-1.17 1.37.37 1.16-.8z" opacity=".5"/>
    <rect width="264.45" height="10.3" x="226.86" y="217.61" fill="#C4C8CB" rx="1"/>
    <rect width="9.5" height="9.5" x="205.79" y="217.47" stroke="#D9DBEC" stroke-width=".5" rx="1.75"/>
    <path stroke="#D9DBEC" stroke-width=".5" d="M206.54 192.3h652"/>
    <rect width="25" height="5" x="227" y="163" fill="#C4C8CB" fill-opacity=".5" rx="1"/>
    <rect width="126" height="5" x="262" y="163" fill="#C4C8CB" fill-opacity=".5" rx="1"/>
    <rect width="80" height="5" x="398" y="163" fill="#C4C8CB" fill-opacity=".5" rx="1"/>
    <rect width="30" height="5" x="488" y="163" fill="#408DFF" rx="1"/>
    <rect width="200" height="6" x="227" y="144" fill="#C4C8CB" rx="1"/>
    <rect width="91.01" height="48.08" x="767" y="122" fill="#EB4A4F" rx="7"/>
    <circle cx="813.67" cy="145.65" r="17.17" fill="url(#paint12_linear)"/>
    <path fill="#0194D2" d="M767.3 155.95s12.6-3.43 24.05 0c5.4 1.62 30.05-.86 40.36-1.71 11.16-.94 26.61 1.71 26.61 1.71v6.74a7 7 0 01-7 7h-77.01a7 7 0 01-7-7v-6.74z"/>
    <rect width="264.45" height="10.3" x="226.86" y="125.61" fill="#C4C8CB" rx="1"/>
    <rect width="9.5" height="9.5" x="205.79" y="125.47" stroke="#D9DBEC" stroke-width=".5" rx="1.75"/>
    <path fill="#495E6F" d="M201 47c2.1 0 3.39-1.07 3.39-2.8 0-1.3-.94-2.27-2.28-2.4v-.06a2.19 2.19 0 001.8-2.14c0-1.5-1.16-2.46-2.95-2.46h-4.1V47H201zm-2.37-8.49h1.89c1.05 0 1.65.49 1.65 1.35 0 .91-.7 1.43-1.92 1.43h-1.62v-2.78zm0 7.12v-3.09h1.9c1.35 0 2.06.53 2.06 1.53 0 1.02-.7 1.56-1.99 1.56h-1.97zM205.48 47h1.7v-9.86h-1.7V47zM211.8 47.14c2.12 0 3.5-1.41 3.5-3.76 0-2.35-1.4-3.78-3.5-3.78-2.12 0-3.51 1.44-3.51 3.78 0 2.35 1.38 3.76 3.5 3.76zm0-1.34c-1.08 0-1.78-.88-1.78-2.42s.7-2.42 1.78-2.42 1.77.88 1.77 2.42-.7 2.42-1.77 2.42zM219.55 49.73c2.1 0 3.5-1.12 3.5-2.85v-7.13h-1.67V41h-.03a2.48 2.48 0 00-2.28-1.37c-1.85 0-3.02 1.43-3.02 3.72 0 2.26 1.2 3.66 2.98 3.66 1.04 0 1.9-.52 2.27-1.3h.04v1.22c0 .92-.63 1.55-1.74 1.55-.8 0-1.43-.38-1.61-.93h-1.69c.17 1.27 1.46 2.18 3.25 2.18zm0-4.08c-1.07 0-1.75-.86-1.75-2.3 0-1.42.68-2.32 1.75-2.32 1.1 0 1.8.92 1.8 2.33 0 1.41-.7 2.3-1.8 2.3zM227.32 37.14V47h1.77v-3.26h2c1.99 0 3.4-1.33 3.4-3.3 0-1.97-1.37-3.3-3.33-3.3h-3.84zm1.77 1.44h1.6c1.27 0 2 .67 2 1.86 0 1.2-.74 1.88-2 1.88h-1.6v-3.74zM238.5 47.14c2.12 0 3.5-1.41 3.5-3.76 0-2.35-1.4-3.78-3.5-3.78-2.12 0-3.51 1.44-3.51 3.78 0 2.35 1.38 3.76 3.5 3.76zm0-1.34c-1.09 0-1.78-.88-1.78-2.42s.7-2.42 1.77-2.42c1.08 0 1.78.88 1.78 2.42s-.7 2.42-1.78 2.42zM242.92 41.83c0 1.08.7 1.76 2.09 2.07l1.2.26c.76.17 1.02.42 1.02.86 0 .54-.51.88-1.34.88-.86 0-1.35-.36-1.48-1.06h-1.67c.13 1.4 1.25 2.3 3.15 2.3 1.78 0 3.03-.92 3.03-2.29 0-1.05-.58-1.63-2.08-1.97l-1.2-.26c-.76-.17-1.06-.46-1.06-.88 0-.53.5-.89 1.25-.89.78 0 1.27.42 1.34 1.08h1.58c-.04-1.38-1.16-2.33-2.92-2.33-1.75 0-2.9.9-2.9 2.23zM250.44 38.06v1.7h-1.04v1.3h1.04v4.01c0 1.41.62 1.96 2.18 1.96.36 0 .7-.02.88-.06v-1.3a3.3 3.3 0 01-.48.03c-.6 0-.88-.27-.88-.87v-3.76h1.37v-1.32h-1.37v-1.7h-1.7zM254.5 41.83c0 1.08.7 1.76 2.08 2.07l1.2.26c.77.17 1.03.42 1.03.86 0 .54-.52.88-1.34.88-.87 0-1.35-.36-1.48-1.06h-1.68c.14 1.4 1.26 2.3 3.16 2.3 1.77 0 3.03-.92 3.03-2.29 0-1.05-.58-1.63-2.08-1.97l-1.2-.26c-.77-.17-1.07-.46-1.07-.88 0-.53.5-.89 1.25-.89.8 0 1.28.42 1.35 1.08h1.58c-.04-1.38-1.16-2.33-2.93-2.33-1.74 0-2.9.9-2.9 2.23z"/>
    <rect width="89" height="5" x="40" y="536.06" fill="#889197" rx="1"/>
    <rect width="25" height="4" x="40" y="546.06" fill="#C4C8CB" rx="1"/>
    <rect width="24.04" height="24.04" x="9" y="530" fill="#C4C8CB" rx="2"/>
    <path fill="#C4C8CB" d="M162.57 543.1c.1.1.1.26 0 .36l-.64.65c-.1.1-.26.1-.36 0l-2.07-2.08-2.07 2.08c-.1.1-.26.1-.36 0l-.64-.65a.25.25 0 010-.35l2.9-2.9c.1-.1.25-.1.35 0l2.9 2.9z"/>
    <rect width="89.29" height="5.15" x="41" y="366.06" fill="#C4C8CB" rx="1"/>
    <rect width="10" height="10" x="20.34" y="364.06" fill="#9CA3A9" fill-opacity=".5" rx="5"/>
    <rect width="72" height="5" x="10" y="343.06" fill="#889197" rx="1"/>
    <rect width="89.29" height="5.15" x="41" y="142.06" fill="#C4C8CB" rx="1"/>
    <rect width="10" height="10" x="20.34" y="140.06" fill="#9CA3A9" fill-opacity=".5" rx="5"/>
    <rect width="89.29" height="5.15" x="41" y="167.06" fill="#C4C8CB" rx="1"/>
    <rect width="162" height="24" x="7" y="183.06" fill="#F1F4F9" rx="3"/>
    <rect width="89.29" height="5.15" x="41" y="192.06" fill="#889197" rx="1"/>
    <rect width="10" height="10" x="20.34" y="165.06" fill="#9CA3A9" fill-opacity=".5" rx="5"/>
    <rect width="10" height="10" x="20.34" y="190.06" fill="#9CA3A9" fill-opacity=".5" rx="5"/>
    <rect width="59" height="5" x="41" y="217.06" fill="#C4C8CB" rx="1"/>
    <rect width="89.29" height="5.15" x="41" y="242.06" fill="#C4C8CB" rx="1"/>
    <rect width="59" height="5" x="41" y="255.06" fill="#C4C8CB" rx="1"/>
    <rect width="10" height="10" x="20.34" y="240.06" fill="#9CA3A9" fill-opacity=".5" rx="5"/>
    <rect width="89.29" height="5.15" x="41" y="282.06" fill="#C4C8CB" rx="1"/>
    <rect width="10" height="10" x="20.34" y="280.06" fill="#9CA3A9" fill-opacity=".5" rx="5"/>
    <rect width="89.29" height="5.15" x="41" y="307.06" fill="#C4C8CB" rx="1"/>
    <rect width="10" height="10" x="20.34" y="305.06" fill="#9CA3A9" fill-opacity=".5" rx="5"/>
    <rect width="32" height="5" x="10" y="119.06" fill="#889197" rx="1"/>
    <rect width="89.29" height="5.15" x="41" y="83.06" fill="#C4C8CB" rx="1"/>
    <rect width="10" height="10" x="20.34" y="81.06" fill="#9CA3A9" fill-opacity=".5" rx="5"/>
    <rect width="58" height="5" x="10" y="60.06" fill="#889197" rx="1"/>
    <rect width="54.25" height="5.15" x="41.12" y="14.83" fill="#889197" rx="1"/>
    <rect width="38" height="5" x="41" y="25.06" fill="#C4C8CB" rx="1"/>
    <rect width="24.04" height="24.04" x="10" y="9" fill="#0472FF" rx="2"/>
    <path fill="#fff" d="M26.2 27.38h-5.94a1.43 1.43 0 01-1.02-.43l-4.53-4.53a1.2 1.2 0 01.84-2.04h5.55v-5.55a1.19 1.19 0 012.04-.84l4.53 4.53a1.44 1.44 0 01.43 1.02v5.95a1.89 1.89 0 01-1.9 1.89zm-5.7-2.05h5.55V19.8l-2.9-2.9v5.54H17.6l2.9 2.9z"/>
  </g>
  <defs>
    <linearGradient id="paint0_linear" x1="785.2" x2="785.2" y1="498.23" y2="527.42" gradientUnits="userSpaceOnUse">
      <stop stop-color="#FFA807"/>
      <stop offset="1" stop-color="#E239DE"/>
    </linearGradient>
    <linearGradient id="paint1_linear" x1="795.5" x2="795.5" y1="508.53" y2="527.42" gradientUnits="userSpaceOnUse">
      <stop stop-color="#FFA807"/>
      <stop offset="1" stop-color="#E239DE"/>
    </linearGradient>
    <linearGradient id="paint2_linear" x1="805.8" x2="805.8" y1="511.97" y2="527.42" gradientUnits="userSpaceOnUse">
      <stop stop-color="#FFA807"/>
      <stop offset="1" stop-color="#E239DE"/>
    </linearGradient>
    <linearGradient id="paint3_linear" x1="816.11" x2="816.11" y1="508.53" y2="527.42" gradientUnits="userSpaceOnUse">
      <stop stop-color="#FFA807"/>
      <stop offset="1" stop-color="#E239DE"/>
    </linearGradient>
    <linearGradient id="paint4_linear" x1="826.41" x2="826.41" y1="515.4" y2="527.42" gradientUnits="userSpaceOnUse">
      <stop stop-color="#FFA807"/>
      <stop offset="1" stop-color="#E239DE"/>
    </linearGradient>
    <linearGradient id="paint5_linear" x1="836.72" x2="836.72" y1="523.99" y2="527.42" gradientUnits="userSpaceOnUse">
      <stop stop-color="#FFA807"/>
      <stop offset="1" stop-color="#E239DE"/>
    </linearGradient>
    <linearGradient id="paint6_linear" x1="811.82" x2="811.82" y1="305.63" y2="353.71" gradientUnits="userSpaceOnUse">
      <stop offset=".57" stop-color="#CFFCFF"/>
      <stop offset="1" stop-color="#5EC5CC"/>
    </linearGradient>
    <linearGradient id="paint7_linear" x1="801.51" x2="801.51" y1="339.98" y2="353.62" gradientUnits="userSpaceOnUse">
      <stop stop-color="#59712F"/>
      <stop offset="1" stop-color="#7D974F"/>
    </linearGradient>
    <linearGradient id="paint8_linear" x1="811.82" x2="811.82" y1="213.62" y2="261.7" gradientUnits="userSpaceOnUse">
      <stop stop-color="#0F328C"/>
      <stop offset="1" stop-color="#81398D"/>
    </linearGradient>
    <linearGradient id="paint9_linear" x1="804.09" x2="804.09" y1="220.49" y2="249.68" gradientUnits="userSpaceOnUse">
      <stop stop-color="#EAF3EE"/>
      <stop offset="1" stop-color="#9CAED6"/>
    </linearGradient>
    <linearGradient id="paint10_linear" x1="804.39" x2="804.39" y1="226.13" y2="247.57" gradientUnits="userSpaceOnUse">
      <stop stop-color="#EAF3EE"/>
      <stop offset="1" stop-color="#9CAED6"/>
    </linearGradient>
    <linearGradient id="paint11_linear" x1="817.83" x2="817.83" y1="235.94" y2="251.4" gradientUnits="userSpaceOnUse">
      <stop stop-color="#8CD2F6"/>
      <stop offset="1" stop-color="#6F77E6"/>
    </linearGradient>
    <linearGradient id="paint12_linear" x1="813.67" x2="813.67" y1="128.48" y2="162.82" gradientUnits="userSpaceOnUse">
      <stop stop-color="#F4AE34"/>
      <stop offset="1" stop-color="#F4AE34" stop-opacity="0"/>
    </linearGradient>
    <filter id="filter0_f" width="42.91" height="41.19" x="782.63" y="214.49" color-interpolation-filters="sRGB" filterUnits="userSpaceOnUse">
      <feFlood flood-opacity="0" result="BackgroundImageFix"/>
      <feBlend in="SourceGraphic" in2="BackgroundImageFix" result="shape"/>
      <feGaussianBlur result="effect1_foregroundBlur" stdDeviation="3"/>
    </filter>
  </defs>
</svg>
