<svg width="420" height="248" viewBox="0 0 420 248" fill="none" xmlns="http://www.w3.org/2000/svg">
<path d="M415 0H5C2.23858 0 0 1.64251 0 3.66864V244.331C0 246.357 2.23858 248 5 248H415C417.761 248 420 246.357 420 244.331V3.66864C420 1.64251 417.761 0 415 0Z" fill="white"/>
<path d="M410.11 29H113.89C112.294 29 111 30.0713 111 31.3929V227.607C111 228.929 112.294 230 113.89 230H410.11C411.706 230 413 228.929 413 227.607V31.3929C413 30.0713 411.706 29 410.11 29Z" fill="white" stroke="#ADBACC" stroke-opacity="0.2" stroke-width="2"/>
<path d="M100 6H10C7.79086 6 6 7.27606 6 8.85015V236.15C6 237.724 7.79086 239 10 239H100C102.209 239 104 237.724 104 236.15V8.85015C104 7.27606 102.209 6 100 6Z" fill="#4D394B" fill-opacity="0.07"/>
<path d="M100 7H10C8.34315 7 7 7.95761 7 9.13889V235.861C7 237.042 8.34315 238 10 238H100C101.657 238 103 237.042 103 235.861V9.13889C103 7.95761 101.657 7 100 7Z" fill="#F7F9FE"/>
<path d="M11.8772 85.0372C11.451 85.0723 11.0718 85.1308 10.7677 85.206L10.8878 85.6914C10.7079 85.7359 10.5807 85.7815 10.5 85.8201V88.077H10V90.9806H10.5V95.8198H10V98.7234H10.5V103.563H10V106.466H10.5V111.305H10V114.209H10.5V119.048H10V121.952H10.5V126.791H10V129.695H10.5V134.534H10V137.437H10.5V142.277H10V145.18H10.5V150.019H10V152.923H10.5V155.18C10.5806 155.218 10.7079 155.264 10.8878 155.309L10.7677 155.794C11.0718 155.869 11.451 155.928 11.8772 155.963L11.9183 155.464C12.1967 155.487 12.4977 155.5 12.8125 155.5H15.2095V156H18.0859V155.5H22.88V156H25.7564V155.5H30.5504V156H33.4268V155.5H38.2209V156H41.0973V155.5H45.8913V156H48.7678V155.5H53.5618V156H56.4382V155.5H61.2322V156H64.1087V155.5H68.9027V156H71.7791V155.5H76.5732V156H79.4496V155.5H84.2436V156H87.12V155.5H91.9141V156H94.7905V155.5H97.1875C97.5023 155.5 97.8033 155.487 98.0817 155.464L98.1227 155.963C98.549 155.928 98.9282 155.869 99.2323 155.794L99.1122 155.309C99.2922 155.264 99.4193 155.218 99.5 155.18V152.923H100V150.019H99.5V145.18H100V142.277H99.5V137.437H100V134.534H99.5V129.695H100V126.791H99.5V121.952H100V119.048H99.5V114.209H100V111.305H99.5V106.466H100V103.563H99.5V98.7234H100V95.8198H99.5V90.9806H100V88.077H99.5V85.8201C99.4193 85.7815 99.2922 85.7359 99.1122 85.6914L99.2323 85.206C98.9283 85.1308 98.549 85.0723 98.1227 85.0372L98.0817 85.5355C97.8033 85.5126 97.5023 85.5 97.1875 85.5H94.7905V85H91.9141V85.5H87.12V85H84.2436V85.5H79.4496V85H76.5732V85.5H71.7791V85H68.9027V85.5H64.1087V85H61.2322V85.5H56.4382V85H53.5618V85.5H48.7678V85H45.8913V85.5H41.0973V85H38.2209V85.5H33.4269V85H30.5504V85.5H25.7564V85H22.88V85.5H18.0859V85H15.2095V85.5H12.8125C12.4977 85.5 12.1967 85.5126 11.9183 85.5355L11.8772 85.0372Z" stroke="#3a4854" stroke-opacity="0.5" stroke-dasharray="5 3"/>
<rect x="118" y="55" width="48" height="14" rx="1" fill="white"/>
<rect x="118.5" y="55.5" width="47" height="13" rx="0.5" stroke="#ADBACC" stroke-opacity="0.4"/>
<path d="M153.346 61H130.805C130.36 61 130 61.3611 130 61.8066V62.6131C130 63.0586 130.36 63.4197 130.805 63.4197H153.346C153.791 63.4197 154.151 63.0586 154.151 62.6131V61.8066C154.151 61.3611 153.791 61 153.346 61Z" fill="#3a4854" fill-opacity="0.15"/>
<rect x="169" y="55" width="17" height="14" rx="1" fill="white"/>
<rect x="169.5" y="55.5" width="16" height="13" rx="0.5" stroke="#ADBACC" stroke-opacity="0.4"/>
<path d="M181.7 61H173.3C173.134 61 173 61.2985 173 61.6667V62.3333C173 62.7015 173.134 63 173.3 63H181.7C181.866 63 182 62.7015 182 62.3333V61.6667C182 61.2985 181.866 61 181.7 61Z" fill="#3a4854" fill-opacity="0.15"/>
<path d="M404.737 35H347.263C346.566 35 346 35.7374 346 36.6471V47.3529C346 48.2626 346.566 49 347.263 49H404.737C405.434 49 406 48.2626 406 47.3529V36.6471C406 35.7374 405.434 35 404.737 35Z" fill="#0477FE"/>
<path d="M360.73 45V41.0469H360.766L363.566 45H364.434V39.3633H363.465V43.3125H363.43L360.633 39.3633H359.758V45H360.73ZM368.074 43.7617C367.969 44.1055 367.625 44.332 367.172 44.332C366.535 44.332 366.129 43.8867 366.129 43.2227V43.1641H369.023V42.8477C369.023 41.5898 368.289 40.7734 367.113 40.7734C365.918 40.7734 365.16 41.6367 365.16 42.9453C365.16 44.2656 365.91 45.082 367.152 45.082C368.133 45.082 368.859 44.543 368.984 43.7617H368.074ZM367.117 41.5273C367.676 41.5273 368.051 41.9375 368.07 42.5234H366.137C366.176 41.9453 366.57 41.5273 367.117 41.5273ZM375.254 40.8594H374.293L373.594 44.0391H373.57L372.762 40.8594H371.828L371.02 44.0391H371L370.301 40.8594H369.324L370.445 45H371.461L372.273 41.9727H372.293L373.109 45H374.133L375.254 40.8594ZM377.438 39.3633V45H378.445V43.1367H379.586C380.727 43.1367 381.527 42.375 381.527 41.25C381.527 40.125 380.75 39.3633 379.629 39.3633H377.438ZM378.445 40.1875H379.363C380.086 40.1875 380.504 40.5742 380.504 41.25C380.504 41.9336 380.082 42.3242 379.359 42.3242H378.445V40.1875ZM383.844 45.082C385.059 45.082 385.848 44.2734 385.848 42.9297C385.848 41.5898 385.051 40.7734 383.844 40.7734C382.637 40.7734 381.84 41.5938 381.84 42.9297C381.84 44.2734 382.629 45.082 383.844 45.082ZM383.844 44.3125C383.227 44.3125 382.828 43.8125 382.828 42.9297C382.828 42.0508 383.23 41.5469 383.844 41.5469C384.461 41.5469 384.859 42.0508 384.859 42.9297C384.859 43.8125 384.461 44.3125 383.844 44.3125ZM386.398 42.0469C386.398 42.6602 386.797 43.0508 387.59 43.2266L388.277 43.3789C388.711 43.4766 388.859 43.6172 388.859 43.8672C388.859 44.1758 388.566 44.3711 388.094 44.3711C387.602 44.3711 387.324 44.168 387.25 43.7656H386.293C386.371 44.5664 387.012 45.082 388.094 45.082C389.109 45.082 389.828 44.5547 389.828 43.7734C389.828 43.1719 389.496 42.8398 388.637 42.6484L387.949 42.4961C387.516 42.3984 387.344 42.2344 387.344 41.9961C387.344 41.6914 387.629 41.4883 388.059 41.4883C388.508 41.4883 388.785 41.7266 388.824 42.1016H389.73C389.707 41.3164 389.066 40.7734 388.059 40.7734C387.059 40.7734 386.398 41.2891 386.398 42.0469ZM390.719 39.8906V40.8594H390.125V41.6094H390.719V43.8984C390.719 44.7031 391.07 45.0195 391.965 45.0195C392.172 45.0195 392.363 45.0039 392.469 44.9805V44.2383C392.406 44.25 392.281 44.2578 392.191 44.2578C391.848 44.2578 391.691 44.1016 391.691 43.7617V41.6094H392.473V40.8594H391.691V39.8906H390.719Z" fill="white"/>
<rect x="139" y="76" width="27" height="5" rx="1" fill="#E5E8EB"/>
<rect x="118" y="76" width="5" height="5" rx="1" fill="white"/>
<rect x="118.5" y="76.5" width="4" height="4" rx="0.5" stroke="#ADBACC" stroke-opacity="0.4"/>
<rect x="222" y="215" width="21" height="5" rx="1" fill="#3a4854" fill-opacity="0.15"/>
<rect x="245" y="212" width="11" height="10" rx="1" fill="white"/>
<rect x="245.5" y="212.5" width="10" height="9" rx="0.5" stroke="#ADBACC" stroke-opacity="0.4"/>
<path d="M251.9 216H249.1C249.045 216 249 216.298 249 216.667V217.333C249 217.702 249.045 218 249.1 218H251.9C251.955 218 252 217.702 252 217.333V216.667C252 216.298 251.955 216 251.9 216Z" fill="#3a4854" fill-opacity="0.15"/>
<rect x="259" y="216" width="21" height="3" rx="1" fill="#3a4854" fill-opacity="0.15"/>
<rect x="284" y="212" width="11" height="10" rx="1" fill="white"/>
<rect x="284.5" y="212.5" width="10" height="9" rx="0.5" stroke="#ADBACC" stroke-opacity="0.4"/>
<path d="M290.9 216H288.1C288.045 216 288 216.298 288 216.667V217.333C288 217.702 288.045 218 288.1 218H290.9C290.955 218 291 217.702 291 217.333V216.667C291 216.298 290.955 216 290.9 216Z" fill="#3a4854" fill-opacity="0.15"/>
<rect x="118" y="92" width="12" height="3" rx="1" fill="#3a4854" fill-opacity="0.15"/>
<rect x="139" y="92" width="81" height="3" rx="1" fill="#3a4854" fill-opacity="0.15"/>
<rect x="245" y="92" width="42" height="3" rx="1" fill="#3a4854" fill-opacity="0.15"/>
<rect x="312" y="92" width="42" height="3" rx="1" fill="#3a4854" fill-opacity="0.15"/>
<rect x="379" y="92" width="27" height="3" rx="1" fill="#3a4854" fill-opacity="0.15"/>
<rect x="118" y="108" width="12" height="3" rx="1" fill="#3a4854" fill-opacity="0.15"/>
<rect x="139" y="108" width="81" height="3" rx="1" fill="#3a4854" fill-opacity="0.15"/>
<rect x="245" y="108" width="42" height="3" rx="1" fill="#3a4854" fill-opacity="0.15"/>
<rect x="312" y="108" width="42" height="3" rx="1" fill="#3a4854" fill-opacity="0.15"/>
<rect x="379" y="108" width="27" height="3" rx="1" fill="#3a4854" fill-opacity="0.15"/>
<rect x="118" y="124" width="12" height="3" rx="1" fill="#3a4854" fill-opacity="0.15"/>
<rect x="139" y="124" width="81" height="3" rx="1" fill="#3a4854" fill-opacity="0.15"/>
<rect x="245" y="124" width="42" height="3" rx="1" fill="#3a4854" fill-opacity="0.15"/>
<rect x="312" y="124" width="42" height="3" rx="1" fill="#3a4854" fill-opacity="0.15"/>
<rect x="379" y="124" width="27" height="3" rx="1" fill="#3a4854" fill-opacity="0.15"/>
<rect x="118" y="140" width="12" height="3" rx="1" fill="#3a4854" fill-opacity="0.15"/>
<rect x="139" y="140" width="81" height="3" rx="1" fill="#3a4854" fill-opacity="0.15"/>
<rect x="245" y="140" width="42" height="3" rx="1" fill="#3a4854" fill-opacity="0.15"/>
<rect x="312" y="140" width="42" height="3" rx="1" fill="#3a4854" fill-opacity="0.15"/>
<rect x="379" y="140" width="27" height="3" rx="1" fill="#3a4854" fill-opacity="0.15"/>
<rect x="118" y="156" width="12" height="3" rx="1" fill="#3a4854" fill-opacity="0.15"/>
<rect x="139" y="156" width="81" height="3" rx="1" fill="#3a4854" fill-opacity="0.15"/>
<rect x="245" y="156" width="42" height="3" rx="1" fill="#3a4854" fill-opacity="0.15"/>
<rect x="312" y="156" width="42" height="3" rx="1" fill="#3a4854" fill-opacity="0.15"/>
<rect x="379" y="156" width="27" height="3" rx="1" fill="#3a4854" fill-opacity="0.15"/>
<rect x="118" y="172" width="12" height="3" rx="1" fill="#3a4854" fill-opacity="0.15"/>
<rect x="139" y="172" width="81" height="3" rx="1" fill="#3a4854" fill-opacity="0.15"/>
<rect x="245" y="172" width="42" height="3" rx="1" fill="#3a4854" fill-opacity="0.15"/>
<rect x="312" y="172" width="42" height="3" rx="1" fill="#3a4854" fill-opacity="0.15"/>
<rect x="379" y="172" width="27" height="3" rx="1" fill="#3a4854" fill-opacity="0.15"/>
<rect x="118" y="188" width="12" height="3" rx="1" fill="#3a4854" fill-opacity="0.15"/>
<rect x="139" y="188" width="81" height="3" rx="1" fill="#3a4854" fill-opacity="0.15"/>
<rect x="245" y="188" width="42" height="3" rx="1" fill="#3a4854" fill-opacity="0.15"/>
<rect x="312" y="188" width="42" height="3" rx="1" fill="#3a4854" fill-opacity="0.15"/>
<rect x="379" y="188" width="27" height="3" rx="1" fill="#3a4854" fill-opacity="0.15"/>
<rect x="245" y="76" width="27" height="5" rx="1" fill="#E5E8EB"/>
<rect x="312" y="76" width="27" height="5" rx="1" fill="#E5E8EB"/>
<rect x="379" y="76" width="27" height="5" rx="1" fill="#E5E8EB"/>
<path d="M120.682 39.2495V47H122.068V44.438H123.636C125.205 44.438 126.306 43.3906 126.306 41.8438C126.306 40.2969 125.237 39.2495 123.695 39.2495H120.682ZM122.068 40.3828H123.33C124.324 40.3828 124.898 40.9146 124.898 41.8438C124.898 42.7837 124.318 43.3208 123.325 43.3208H122.068V40.3828ZM129.491 47.1128C131.161 47.1128 132.246 46.001 132.246 44.1533C132.246 42.311 131.15 41.1885 129.491 41.1885C127.831 41.1885 126.735 42.3164 126.735 44.1533C126.735 46.001 127.82 47.1128 129.491 47.1128ZM129.491 46.0547C128.642 46.0547 128.094 45.3672 128.094 44.1533C128.094 42.9448 128.647 42.252 129.491 42.252C130.339 42.252 130.887 42.9448 130.887 44.1533C130.887 45.3672 130.339 46.0547 129.491 46.0547ZM133.003 42.9395C133.003 43.7827 133.551 44.3198 134.642 44.5615L135.587 44.771C136.183 44.9053 136.387 45.0986 136.387 45.4424C136.387 45.8667 135.984 46.1353 135.334 46.1353C134.658 46.1353 134.276 45.856 134.174 45.3027H132.858C132.966 46.4038 133.847 47.1128 135.334 47.1128C136.731 47.1128 137.719 46.3877 137.719 45.3135C137.719 44.4863 137.263 44.0298 136.081 43.7666L135.136 43.5571C134.54 43.4229 134.303 43.1973 134.303 42.8696C134.303 42.4507 134.695 42.1714 135.286 42.1714C135.904 42.1714 136.285 42.499 136.339 43.0146H137.585C137.553 41.9351 136.672 41.1885 135.286 41.1885C133.911 41.1885 133.003 41.8975 133.003 42.9395ZM138.944 39.9746V41.3066H138.127V42.3379H138.944V45.4854C138.944 46.5918 139.427 47.0269 140.657 47.0269C140.942 47.0269 141.205 47.0054 141.35 46.9731V45.9526C141.264 45.9688 141.092 45.9795 140.969 45.9795C140.496 45.9795 140.281 45.7646 140.281 45.2974V42.3379H141.355V41.3066H140.281V39.9746H138.944ZM142.167 42.9395C142.167 43.7827 142.714 44.3198 143.805 44.5615L144.75 44.771C145.346 44.9053 145.55 45.0986 145.55 45.4424C145.55 45.8667 145.147 46.1353 144.498 46.1353C143.821 46.1353 143.439 45.856 143.337 45.3027H142.021C142.129 46.4038 143.01 47.1128 144.498 47.1128C145.894 47.1128 146.882 46.3877 146.882 45.3135C146.882 44.4863 146.426 44.0298 145.244 43.7666L144.299 43.5571C143.703 43.4229 143.466 43.1973 143.466 42.8696C143.466 42.4507 143.858 42.1714 144.449 42.1714C145.067 42.1714 145.448 42.499 145.502 43.0146H146.748C146.716 41.9351 145.835 41.1885 144.449 41.1885C143.074 41.1885 142.167 41.8975 142.167 42.9395Z" fill="#3a4854"/>
<rect x="13" y="56" width="5" height="5" rx="1" fill="#3a4854" fill-opacity="0.15"/>
<path d="M57.5 91H21.5C20.6716 91 20 91.4477 20 92V93C20 93.5523 20.6716 94 21.5 94H57.5C58.3284 94 59 93.5523 59 93V92C59 91.4477 58.3284 91 57.5 91Z" fill="#3a4854" fill-opacity="0.15"/>
<rect x="13" y="90" width="5" height="5" rx="1" fill="#3a4854" fill-opacity="0.15"/>
<rect x="13" y="116" width="5" height="5" rx="1" fill="#3a4854" fill-opacity="0.15"/>
<rect x="13" y="129" width="5" height="5" rx="1" fill="#3a4854" fill-opacity="0.15"/>
<path d="M36.5 104H21.5C20.6716 104 20 104.448 20 105V106C20 106.552 20.6716 107 21.5 107H36.5C37.3284 107 38 106.552 38 106V105C38 104.448 37.3284 104 36.5 104Z" fill="#3a4854" fill-opacity="0.7"/>
<rect x="13" y="103" width="5" height="5" rx="1" fill="#3a4854" fill-opacity="0.7"/>
<path d="M32.4444 117H21.5556C20.6964 117 20 117.448 20 118V119C20 119.552 20.6964 120 21.5556 120H32.4444C33.3036 120 34 119.552 34 119V118C34 117.448 33.3036 117 32.4444 117Z" fill="#3a4854" fill-opacity="0.15"/>
<rect x="13" y="140" width="5" height="5" rx="1" fill="#3a4854" fill-opacity="0.15"/>
<path d="M32.4444 141H21.5556C20.6964 141 20 141.448 20 142V143C20 143.552 20.6964 144 21.5556 144H32.4444C33.3036 144 34 143.552 34 143V142C34 141.448 33.3036 141 32.4444 141Z" fill="#3a4854" fill-opacity="0.15"/>
<path d="M47.4737 130H21.5263C20.6834 130 20 130.448 20 131V132C20 132.552 20.6834 133 21.5263 133H47.4737C48.3166 133 49 132.552 49 132V131C49 130.448 48.3166 130 47.4737 130Z" fill="#3a4854" fill-opacity="0.15"/>
<path d="M48.5 57H21.5C20.6716 57 20 57.4477 20 58V59C20 59.5523 20.6716 60 21.5 60H48.5C49.3284 60 50 59.5523 50 59V58C50 57.4477 49.3284 57 48.5 57Z" fill="#3a4854" fill-opacity="0.15"/>
<path d="M49 42H15C14.4477 42 14 42.4477 14 43V46C14 46.5523 14.4477 47 15 47H49C49.5523 47 50 46.5523 50 46V43C50 42.4477 49.5523 42 49 42Z" fill="#3a4854" fill-opacity="0.15"/>
<path d="M73 75H15C14.4477 75 14 75.4477 14 76V79C14 79.5523 14.4477 80 15 80H73C73.5523 80 74 79.5523 74 79V76C74 75.4477 73.5523 75 73 75Z" fill="#3a4854" fill-opacity="0.15"/>
<rect x="396" y="17" width="29" height="5" rx="1" transform="rotate(-180 396 17)" fill="#3a4854" fill-opacity="0.15"/>
<rect x="412" y="21" width="12" height="12" rx="6" transform="rotate(-180 412 21)" fill="#3a4854" fill-opacity="0.15"/>
<rect x="30" y="18" width="29" height="5" rx="1" fill="#3a4854" fill-opacity="0.15"/>
<rect x="14" y="14" width="12" height="12" rx="1" fill="#0495FE"/>
<path d="M22.1754 23H19.5784C19.4955 23.0003 19.4133 22.9841 19.3366 22.9523C19.26 22.9206 19.1904 22.8739 19.1319 22.815L17.1526 20.835C17.0797 20.762 17.0301 20.6691 17.01 20.5679C16.9899 20.4668 17.0003 20.3619 17.0398 20.2666C17.0793 20.1714 17.1462 20.0899 17.2319 20.0327C17.3177 19.9755 17.4185 19.945 17.5217 19.9451H19.9458V17.5192C19.9459 17.4163 19.9764 17.3157 20.0336 17.2302C20.0909 17.1447 20.1722 17.0781 20.2673 17.0389C20.3626 17.0001 20.4672 16.99 20.5682 17.01C20.6691 17.03 20.762 17.0792 20.8354 17.1514L22.8153 19.1307C22.8741 19.1894 22.9206 19.259 22.9523 19.3357C22.984 19.4124 23.0002 19.4947 23 19.5777V22.1754C22.9997 22.3941 22.9127 22.6037 22.7581 22.7583C22.6036 22.9128 22.394 22.9998 22.1754 23ZM19.6866 22.1076H22.1079V19.6857L20.8381 18.4155V20.8374H18.4169L19.6866 22.1076Z" fill="#F7F9FE"/>
</svg>
