<svg width="95" height="138" viewBox="0 0 95 138" fill="none" xmlns="http://www.w3.org/2000/svg">
<path fill-rule="evenodd" clip-rule="evenodd" d="M93.8739 91.5381V109.994L46.163 137.06L1.10216 110.856V91.5592L93.8739 91.5381Z" fill="#E8EBF2"/>
<path fill-rule="evenodd" clip-rule="evenodd" d="M46.8985 63.9144L1.10223 91.5588L46.8985 118.181L93.9115 91.5583L46.8985 63.9144Z" fill="#384854"/>
<path fill-rule="evenodd" clip-rule="evenodd" d="M93.8739 68.8594V87.3156L46.163 114.381L1.10216 88.1769V68.8805L93.8739 68.8594Z" fill="#E8EBF2"/>
<path fill-rule="evenodd" clip-rule="evenodd" d="M46.899 41.2362L1.10223 68.8801L46.899 95.5026L93.9121 68.8801L46.899 41.2362Z" fill="#384854"/>
<path fill-rule="evenodd" clip-rule="evenodd" d="M93.8739 46.3687V64.8249L46.163 91.8898L1.10216 65.6861V46.389L93.8739 46.3687Z" fill="#E8EBF2"/>
<path fill-rule="evenodd" clip-rule="evenodd" d="M46.8985 18.745L1.10222 46.3893L46.8985 73.0114L93.9115 46.3888L46.8985 18.745Z" fill="#F7F9FE"/>
<path fill-rule="evenodd" clip-rule="evenodd" d="M93.874 91.5381V110.572L46.163 137.06L46.4259 118.012L93.874 91.5381Z" fill="#CED2DD"/>
<path fill-rule="evenodd" clip-rule="evenodd" d="M93.874 68.8594V87.8929L46.163 114.381L46.4259 95.3331L93.874 68.8594Z" fill="#CED2DD"/>
<path fill-rule="evenodd" clip-rule="evenodd" d="M93.8739 46.3687V65.4015L46.163 91.8898L46.4259 72.8416L93.8739 46.3687Z" fill="#CED2DD"/>
<path opacity="0.2" fill-rule="evenodd" clip-rule="evenodd" d="M42.1679 87.0337V73.6829L3.6401 50.8267V64.5939L42.1679 87.0337Z" fill="#BDBDBD"/>
<path opacity="0.2" fill-rule="evenodd" clip-rule="evenodd" d="M42.2865 109.142V95.7916L3.75881 72.9346V86.7025L42.2865 109.142Z" fill="#BDBDBD"/>
<path opacity="0.2" fill-rule="evenodd" clip-rule="evenodd" d="M42.2866 131.821C42.2866 126.607 42.2866 123.684 42.2866 118.47L3.75881 95.6133V109.381L42.2866 131.821Z" fill="#BDBDBD"/>
<path d="M93.8739 68.9307L46.163 95.0834L1.10216 68.8594" stroke="white" stroke-width="1.157"/>
<path d="M94.0138 91.6866L46.2686 117.949L1.10216 91.5381" stroke="white" stroke-width="1.157"/>
<path d="M42.6495 59.7022L30.5884 52.7393C29.8059 52.2875 29.3828 51.6808 29.4021 51.0304L29.6982 40.249C29.7189 39.435 30.5833 38.6988 31.8935 38.3751C33.207 38.0514 34.6905 38.2071 35.6738 38.7748L46.9351 45.2759L58.5573 38.5664C59.5689 37.9825 61.0601 37.7988 62.355 38.0978C63.6309 38.3915 64.4756 39.1314 64.4538 39.9317L64.1591 50.7177C64.1381 51.3689 63.6833 51.9828 62.8773 52.4481L50.433 59.6322C48.2513 60.8899 44.7619 60.9216 42.6495 59.7022ZM35.3693 50.5623L46.6134 57.0535L58.2178 50.3543L58.4068 43.4371L46.8024 50.1363L35.5583 43.6451L35.3693 50.5623Z" fill="#0495FE"/>
</svg>
