<svg width="95" height="120" xmlns="http://www.w3.org/2000/svg" fill="none" viewBox="0 0 95 120">
  <defs />
  <path fill="#E8EBF2" fill-rule="evenodd" d="M93.83 73.54v18.45l-47.71 27.07-45.06-26.2v-19.3l92.77-.02z"
    clip-rule="evenodd" />
  <path fill="#384854" fill-rule="evenodd" d="M46.85 45.91L1.05 73.56l45.8 26.62 47.01-26.62-47-27.65z"
    clip-rule="evenodd" />
  <path fill="#E8EBF2" fill-rule="evenodd" d="M93.83 50.86v18.46L46.12 96.38 1.06 70.18v-19.3l92.77-.02z"
    clip-rule="evenodd" />
  <path fill="#384854" fill-rule="evenodd" d="M46.85 23.24L1.05 50.88l45.8 26.62 47.01-26.62-47-27.64z"
    clip-rule="evenodd" />
  <path fill="#E8EBF2" fill-rule="evenodd" d="M93.83 28.37v18.45L46.12 73.9 1.06 47.69v-19.3l92.77-.02z"
    clip-rule="evenodd" />
  <path fill="#F7F9FE" fill-rule="evenodd" d="M46.85.74L1.05 28.4 46.86 55 93.86 28.4 46.86.74z" clip-rule="evenodd" />
  <path fill="#CED2DD" fill-rule="evenodd"
    d="M93.83 73.54v19.03l-47.71 26.49.26-19.05 47.45-26.47zM93.83 50.86v19.03L46.12 96.4l.26-19.06 47.45-26.47zM93.83 28.37V47.4L46.12 73.9l.26-19.05 47.45-26.47z"
    clip-rule="evenodd" />
  <path fill="#BDBDBD" fill-rule="evenodd"
    d="M42.12 69.03V55.68L3.6 32.83v13.76l38.53 22.44zM42.24 91.14V77.8L3.7 54.93V68.7l38.53 22.44zM42.24 113.82v-13.35L3.7 77.61v13.77l38.53 22.44z"
    clip-rule="evenodd" opacity=".2" />
  <path stroke="#fff" stroke-width="1.16" d="M93.83 50.93L46.12 77.08 1.06 50.86" />
  <path stroke="#fff" stroke-width="1.16" d="M93.97 73.69L46.22 99.95 1.06 73.54" />
  <path fill="#0471FF" fill-rule="evenodd"
    d="M36.08 21.15c4.61-2.67 12.1-2.67 16.71 0l5.14 2.96c4.61 2.67 4.61 6.99 0 9.65-4.62 2.66-12.1 2.66-16.72 0l-5.13-2.97c-4.62-2.66-4.62-6.98 0-9.64zm12.84 2.23a9.91 9.91 0 00-8.97 0c-2.48 1.43-2.48 3.75 0 5.18l5.14 2.96a9.91 9.91 0 008.96 0c2.48-1.43 2.48-3.74 0-5.17l-5.13-2.97z"
    clip-rule="evenodd" />
  <path fill="#0471FF" fill-rule="evenodd"
    d="M32.66 34.17c-.26-.15-.26-.38 0-.53l25.07-14.47a1 1 0 01.9 0l2.97 1.71c.25.15.25.38 0 .53L36.53 35.88a1 1 0 01-.91 0l-2.96-1.71z"
    clip-rule="evenodd" />
</svg>