<svg width="95" height="138" viewBox="0 0 95 138" fill="none" xmlns="http://www.w3.org/2000/svg">
<path fill-rule="evenodd" clip-rule="evenodd" d="M93.874 91.5381V109.994L46.163 137.06L1.10219 110.856V91.5592L93.874 91.5381Z" fill="#E8EBF2"/>
<path fill-rule="evenodd" clip-rule="evenodd" d="M46.8985 63.9144L1.10223 91.5588L46.8985 118.181L93.9115 91.5583L46.8985 63.9144Z" fill="#384854"/>
<path fill-rule="evenodd" clip-rule="evenodd" d="M93.874 68.8594V87.3156L46.163 114.381L1.10219 88.1769V68.8805L93.874 68.8594Z" fill="#E8EBF2"/>
<path fill-rule="evenodd" clip-rule="evenodd" d="M46.899 41.2362L1.10223 68.8801L46.899 95.5026L93.9121 68.8801L46.899 41.2362Z" fill="#384854"/>
<path fill-rule="evenodd" clip-rule="evenodd" d="M93.874 46.3687V64.8249L46.163 91.8898L1.10219 65.6861V46.389L93.874 46.3687Z" fill="#E8EBF2"/>
<path fill-rule="evenodd" clip-rule="evenodd" d="M46.8985 18.745L1.10223 46.3893L46.8985 73.0114L93.9115 46.3888L46.8985 18.745Z" fill="#F7F9FE"/>
<path fill-rule="evenodd" clip-rule="evenodd" d="M93.874 91.5381V110.572L46.163 137.06L46.4259 118.012L93.874 91.5381Z" fill="#CED2DD"/>
<path fill-rule="evenodd" clip-rule="evenodd" d="M93.874 68.8594V87.8929L46.163 114.381L46.4259 95.3331L93.874 68.8594Z" fill="#CED2DD"/>
<path fill-rule="evenodd" clip-rule="evenodd" d="M93.874 46.3687V65.4015L46.163 91.8898L46.4259 72.8416L93.874 46.3687Z" fill="#CED2DD"/>
<path opacity="0.2" fill-rule="evenodd" clip-rule="evenodd" d="M42.1679 87.0337V73.6829L3.64011 50.8267V64.5939L42.1679 87.0337Z" fill="#BDBDBD"/>
<path opacity="0.2" fill-rule="evenodd" clip-rule="evenodd" d="M42.2866 109.142V95.7916L3.75882 72.9346V86.7025L42.2866 109.142Z" fill="#BDBDBD"/>
<path opacity="0.2" fill-rule="evenodd" clip-rule="evenodd" d="M42.2866 131.821C42.2866 126.607 42.2866 123.684 42.2866 118.47L3.75882 95.6133V109.381L42.2866 131.821Z" fill="#BDBDBD"/>
<path d="M93.874 68.9307L46.163 95.0834L1.10219 68.8594" stroke="white" stroke-width="1.157"/>
<path d="M94.0138 91.6866L46.2686 117.949L1.10217 91.5381" stroke="white" stroke-width="1.157"/>
<path fill-rule="evenodd" clip-rule="evenodd" d="M56.737 49.7829L56.7321 49.7804L56.7269 49.7779C56.4492 49.6456 55.046 48.9804 53.7128 48.3486L51.1153 47.1178L50.9503 47.0396L47.0563 48.1608L47.4449 48.3455C50.0756 49.5961 52.8422 50.9082 54.951 51.9077C56.0054 52.4075 56.8954 52.8291 57.5219 53.1257L58.1962 53.445C57.5723 53.7286 56.9404 54.007 56.3063 54.2864L56.3053 54.2868C55.6355 54.582 54.9632 54.8782 54.2992 55.1811C51.516 53.8453 45.3492 50.9151 42.6369 49.6782L42.469 49.6016L42.283 49.6582C41.0743 50.0259 39.8632 50.3756 38.6512 50.7256L38.6182 50.7351C37.3961 51.088 36.1732 51.4413 34.9568 51.8122C31.4183 52.8911 26.8793 52.5147 23.9084 50.7296C20.33 48.5794 20.3821 45.2007 24.0223 43.1829C27.6526 41.1706 32.9376 41.2767 37.111 43.4315L37.116 43.4341L37.1211 43.4365C37.3988 43.5688 38.8117 44.2386 40.1544 44.875L42.9383 46.1942L46.7866 45.0512L46.4032 44.869C43.7727 43.6185 41.1434 42.3687 39.1718 41.4315L36.2 40.019C36.8153 39.7396 37.6461 39.3696 38.4041 39.0331C38.6418 38.9276 38.8725 38.8253 39.0872 38.7301C39.5087 38.5432 39.8682 38.3838 40.096 38.2819C42.8527 39.6056 48.4985 42.2992 51.2112 43.5362L51.3791 43.6128L51.5651 43.5563C52.774 43.1885 53.9852 42.8388 55.1973 42.4887L55.2299 42.4793C56.4519 42.1264 57.6749 41.7731 58.8912 41.4022C62.4298 40.3233 66.9687 40.6998 69.9397 42.4849C73.5181 44.635 73.466 48.0138 69.8258 50.0316C66.1955 52.0439 60.9105 51.9378 56.737 49.7829ZM55.9483 45.4825L55.5216 45.6144L55.905 45.7932C56.3564 46.0038 56.8593 46.2559 57.3939 46.5239L57.6286 46.6414C58.2481 46.9516 58.9025 47.2762 59.5495 47.57C60.1953 47.8632 60.843 48.1299 61.4503 48.3223C62.0499 48.5122 62.6497 48.6428 63.189 48.635C65.7506 48.5979 67.7233 47.5701 67.7444 46.1787C67.7654 44.7923 65.6569 43.4953 62.814 43.5508C62.4564 43.5577 61.9822 43.6499 61.473 43.7756C60.9512 43.9045 60.3486 44.0802 59.7189 44.2748C59.0884 44.4697 58.4244 44.6855 57.7799 44.8953L57.7304 44.9114C57.102 45.1159 56.4936 45.3139 55.9483 45.4825ZM37.8998 47.732L38.3265 47.6001L37.9431 47.4212C37.4917 47.2106 36.9888 46.9586 36.4542 46.6906L36.2195 46.573C35.5999 46.2628 34.9456 45.9382 34.2986 45.6445C33.6528 45.3513 33.0051 45.0846 32.3977 44.8922C31.7982 44.7022 31.1984 44.5717 30.659 44.5795C28.0975 44.6166 26.1248 45.6444 26.1037 47.0357C26.0827 48.4222 28.1912 49.7192 31.0341 49.6637C31.3916 49.6567 31.8658 49.5646 32.3751 49.4388C32.8969 49.31 33.4994 49.1343 34.1292 48.9397C34.7597 48.7448 35.4236 48.5289 36.0682 48.3192L36.1177 48.3031C36.7461 48.0985 37.3544 47.9006 37.8998 47.732Z" fill="#0471FF"/>
</svg>
