<svg width="200" height="200" viewBox="0 0 200 200" fill="none" xmlns="http://www.w3.org/2000/svg">
<path d="M0 200L4.71939e-06 0L200 4.71939e-06L200 200L0 200Z" fill="#0471FF"/>
<path fill-rule="evenodd" clip-rule="evenodd" d="M110.539 56.7684L146.872 102.443L115.132 147.712L114.125 147.452L114.5 146C114.125 147.452 114.126 147.452 114.125 147.452L114.124 147.452L114.119 147.451L113.775 147.362C113.546 147.302 113.208 147.214 112.774 147.101C111.906 146.874 110.652 146.544 109.106 146.132C106.014 145.309 101.753 144.158 97.0746 142.848C87.7408 140.235 76.6769 136.968 69.9642 134.401L69.5574 134.245L50.2972 108.397C50.2971 108.397 50.2966 108.396 51.4994 107.5L50.2972 108.397L49.8853 107.844L57.7267 72.8191L110.539 56.7684ZM53.664 104.698L59.9927 76.4293L81.5108 90.3525L53.664 104.698ZM81.9284 93.512L53.7597 108.023L69.9783 129.789L81.9284 93.512ZM72.3759 132.099C79.0221 134.529 89.1472 137.513 97.8836 139.959C102.546 141.265 106.795 142.412 109.878 143.233C110.827 143.486 111.665 143.707 112.371 143.893L104.15 113.752L85.132 93.3756L72.3759 132.099ZM84.1738 88.5024L105.82 61.338L62.5268 74.4957L84.1738 88.5024ZM108.099 63.2922L86.4796 90.4227L104.284 109.499L108.099 63.2922ZM107.344 114.062L115.106 142.522L141.411 105.006L107.344 114.062ZM142.399 101.639L107.17 111.004L111.183 62.3972L142.399 101.639Z" fill="#A5CCFF"/>
<rect x="73.7539" y="81.0483" width="23.2451" height="23.2451" rx="11.6226" transform="rotate(161.016 73.7539 81.0483)" fill="white"/>
<rect x="85.542" y="138.981" width="23.2451" height="23.2451" rx="11.6226" transform="rotate(161.016 85.542 138.981)" fill="white"/>
<rect x="87.5845" y="99.3635" width="13.8681" height="13.8681" rx="6.93407" transform="rotate(-153.984 87.5845 99.3635)" fill="white"/>
<rect x="157.542" y="109.981" width="23.2451" height="23.2451" rx="11.6226" transform="rotate(161.016 157.542 109.981)" fill="white"/>
<rect x="119.263" y="135.232" width="16.0265" height="16.0265" rx="8.01324" transform="rotate(71.0164 119.263 135.232)" fill="white"/>
<rect x="58.1553" y="105.299" width="9.18539" height="9.18539" rx="4.59269" transform="rotate(116.016 58.1553 105.299)" fill="white"/>
<rect x="119.994" y="119.161" width="23.2451" height="23.2451" rx="11.6226" transform="rotate(161.016 119.994 119.161)" fill="white"/>
<rect x="116.589" y="78.0791" width="28.4747" height="28.4747" rx="14.2374" transform="rotate(-153.984 116.589 78.0791)" fill="white"/>
</svg>
