<svg width="50" height="50" viewBox="0 0 50 50" fill="none" xmlns="http://www.w3.org/2000/svg">
<path d="M0 25C0 38.8071 11.1929 50 25 50C38.8071 50 50 38.8071 50 25C50 11.1929 38.8071 0 25 0C11.1929 0 0 11.1929 0 25Z" fill="#141C23"/>
<path fill-rule="evenodd" clip-rule="evenodd" d="M21.6654 14.1367C21.122 14.1367 20.6055 14.6145 20.6055 15.2771V19.0195H29.3945V15.2771C29.3945 14.6145 28.878 14.1367 28.3346 14.1367H21.6654ZM18.457 15.2771C18.457 13.5036 19.8613 11.9883 21.6654 11.9883H28.3346C30.1387 11.9883 31.543 13.5036 31.543 15.2771V21.168H18.457V15.2771Z" fill="#7DFEC6"/>
<path d="M35.8333 35.2539H14.1667C13.8699 35.2539 13.5742 34.9917 13.5742 34.6168V20.0707C13.5742 19.6958 13.8699 19.4336 14.1667 19.4336H35.8333C36.1301 19.4336 36.4258 19.6958 36.4258 20.0707V34.6596C36.4258 34.9739 36.1476 35.2539 35.8333 35.2539Z" fill="#7DFEC6" stroke="#7DFEC6" stroke-width="5.5" stroke-miterlimit="10"/>
</svg>
