<svg width="250" height="247" viewBox="0 0 250 247" fill="none" xmlns="http://www.w3.org/2000/svg">
<path d="M4 0.5H41.7479H246C247.933 0.5 249.5 2.06701 249.5 4.00001V243.261C249.499 244.173 249.262 245.023 248.869 245.629C248.475 246.236 247.997 246.498 247.572 246.5L2.42738 246.5C2.42682 246.5 2.42627 246.5 2.42571 246.5C2.00098 246.496 1.52384 246.232 1.13131 245.627C0.738882 245.021 0.502009 244.172 0.5 243.261V4C0.5 2.067 2.067 0.5 4 0.5Z" fill="white" stroke="#EAECED"/>
<g filter="url(#filter0_i)">
<path d="M220 40H29C26.7909 40 25 41.7909 25 44V61C25 63.2091 26.7909 65 29 65H220C222.209 65 224 63.2091 224 61V44C224 41.7909 222.209 40 220 40Z" fill="#F7F9FE"/>
</g>
<path d="M29 40.5H220C221.933 40.5 223.5 42.067 223.5 44V61C223.5 62.933 221.933 64.5 220 64.5H29C27.067 64.5 25.5 62.933 25.5 61V44C25.5 42.067 27.067 40.5 29 40.5Z" stroke="#EAECED"/>
<path opacity="0.5" d="M43.2188 57.2319V49.4814H41.8384V52.7041H38.0679V49.4814H36.6821V57.2319H38.0679V53.8696H41.8384V57.2319H43.2188ZM48.2246 55.5293C48.0796 56.002 47.6069 56.3135 46.9839 56.3135C46.1084 56.3135 45.5498 55.7012 45.5498 54.7881V54.7075H49.5298V54.2725C49.5298 52.543 48.52 51.4204 46.9033 51.4204C45.2598 51.4204 44.2178 52.6074 44.2178 54.4067C44.2178 56.2222 45.249 57.3447 46.957 57.3447C48.3052 57.3447 49.3042 56.6035 49.4761 55.5293H48.2246ZM46.9087 52.457C47.6768 52.457 48.1924 53.021 48.2192 53.8267H45.5605C45.6143 53.0317 46.1567 52.457 46.9087 52.457ZM50.4321 57.2319H51.7695V49.4814H50.4321V57.2319ZM52.9458 57.2319H54.2832V49.4814H52.9458V57.2319ZM57.9409 57.3447C59.6113 57.3447 60.6963 56.2329 60.6963 54.3853C60.6963 52.543 59.6006 51.4204 57.9409 51.4204C56.2812 51.4204 55.1855 52.5483 55.1855 54.3853C55.1855 56.2329 56.2705 57.3447 57.9409 57.3447ZM57.9409 56.2866C57.0923 56.2866 56.5444 55.5991 56.5444 54.3853C56.5444 53.1768 57.0977 52.4839 57.9409 52.4839C58.7896 52.4839 59.3374 53.1768 59.3374 54.3853C59.3374 55.5991 58.7896 56.2866 57.9409 56.2866ZM67.1416 57.2319C68.7959 57.2319 69.8003 56.394 69.8003 55.0298C69.8003 54.0039 69.0645 53.2466 68.0117 53.1445V53.1016C68.8066 52.9727 69.4243 52.2476 69.4243 51.415C69.4243 50.2388 68.5166 49.4814 67.1094 49.4814H63.8921V57.2319H67.1416ZM65.2778 50.561H66.7603C67.5874 50.561 68.0547 50.9424 68.0547 51.6191C68.0547 52.3389 67.5122 52.7471 66.5454 52.7471H65.2778V50.561ZM65.2778 56.1523V53.73H66.7656C67.8291 53.73 68.3877 54.1436 68.3877 54.9331C68.3877 55.728 67.8452 56.1523 66.8247 56.1523H65.2778ZM74.4248 55.5293C74.2798 56.002 73.8071 56.3135 73.1841 56.3135C72.3086 56.3135 71.75 55.7012 71.75 54.7881V54.7075H75.73V54.2725C75.73 52.543 74.7202 51.4204 73.1035 51.4204C71.46 51.4204 70.418 52.6074 70.418 54.4067C70.418 56.2222 71.4492 57.3447 73.1572 57.3447C74.5054 57.3447 75.5044 56.6035 75.6763 55.5293H74.4248ZM73.1089 52.457C73.877 52.457 74.3926 53.021 74.4194 53.8267H71.7607C71.8145 53.0317 72.3569 52.457 73.1089 52.457ZM78.2705 57.3232C79.001 57.3232 79.7153 56.9419 80.043 56.3242H80.0698V57.2319H81.3589V53.311C81.3589 52.167 80.4404 51.4204 79.0278 51.4204C77.5776 51.4204 76.6699 52.1831 76.6108 53.2466H77.8516C77.9375 52.7739 78.3403 52.4678 78.9741 52.4678C79.6348 52.4678 80.0376 52.8115 80.0376 53.4077V53.8159L78.5337 53.9019C77.1479 53.9878 76.3691 54.5947 76.3691 55.6045C76.3691 56.6304 77.1694 57.3232 78.2705 57.3232ZM78.6733 56.3135C78.0933 56.3135 77.7065 56.0181 77.7065 55.5508C77.7065 55.0996 78.0771 54.8096 78.7217 54.7666L80.0376 54.686V55.1211C80.0376 55.8086 79.4307 56.3135 78.6733 56.3135ZM87.4873 51.5386H86.1499V54.8311C86.1499 55.6582 85.6719 56.2061 84.8984 56.2061C84.1465 56.2061 83.749 55.7656 83.749 54.9492V51.5386H82.4116V55.2178C82.4116 56.5337 83.1958 57.334 84.4312 57.334C85.2959 57.334 85.8706 56.9365 86.1714 56.2437H86.1982V57.2319H87.4873V51.5386ZM88.9536 50.2065V51.5386H88.1372V52.5698H88.9536V55.7173C88.9536 56.8237 89.437 57.2588 90.667 57.2588C90.9517 57.2588 91.2148 57.2373 91.3599 57.2051V56.1846C91.2739 56.2007 91.1021 56.2114 90.9785 56.2114C90.5059 56.2114 90.291 55.9966 90.291 55.5293V52.5698H91.3652V51.5386H90.291V50.2065H88.9536ZM92.9766 50.6792C93.3848 50.6792 93.707 50.3516 93.707 49.9541C93.707 49.5513 93.3848 49.229 92.9766 49.229C92.5684 49.229 92.2407 49.5513 92.2407 49.9541C92.2407 50.3516 92.5684 50.6792 92.9766 50.6792ZM92.3105 57.2319H93.6479V51.5386H92.3105V57.2319ZM95.1411 57.2319H96.4785V52.5698H97.5957V51.5547H96.457V51.0874C96.457 50.6255 96.688 50.3838 97.1982 50.3838C97.354 50.3838 97.5098 50.3999 97.6226 50.416V49.4814C97.4561 49.4492 97.166 49.4224 96.9028 49.4224C95.6675 49.4224 95.1411 49.9434 95.1411 51.0498V51.5547H94.3623V52.5698H95.1411V57.2319ZM103.525 51.5386H102.188V54.8311C102.188 55.6582 101.71 56.2061 100.937 56.2061C100.185 56.2061 99.7871 55.7656 99.7871 54.9492V51.5386H98.4497V55.2178C98.4497 56.5337 99.2339 57.334 100.469 57.334C101.334 57.334 101.909 56.9365 102.209 56.2437H102.236V57.2319H103.525V51.5386ZM104.659 57.2319H105.996V49.4814H104.659V57.2319ZM107.538 49.4814L107.645 54.6753H108.811L108.918 49.4814H107.538ZM108.225 57.3394C108.666 57.3394 109.009 57.001 109.009 56.5767C109.009 56.1523 108.666 55.8193 108.225 55.8193C107.79 55.8193 107.446 56.1523 107.446 56.5767C107.446 57.001 107.79 57.3394 108.225 57.3394Z" fill="#506677"/>
<rect x="69" y="12.4639" width="111" height="19.5361" rx="2" fill="#c9e1ff"/>
<path d="M108.016 24.2993C108.081 25.7173 109.268 26.5928 111.062 26.5928C112.925 26.5928 114.091 25.6582 114.091 24.1758C114.091 23.0264 113.409 22.3711 111.776 22.0327L110.938 21.8608C109.971 21.6567 109.584 21.3184 109.584 20.792C109.584 20.1421 110.197 19.7339 111.056 19.7339C111.942 19.7339 112.555 20.1743 112.619 20.9048H113.946C113.914 19.519 112.78 18.5845 111.067 18.5845C109.386 18.5845 108.188 19.5083 108.188 20.8726C108.188 22.0059 108.913 22.7363 110.465 23.0532L111.298 23.2251C112.308 23.4346 112.694 23.7783 112.694 24.3369C112.694 24.9814 112.044 25.4434 111.11 25.4434C110.143 25.4434 109.445 25.0137 109.343 24.2993H108.016ZM116.669 26.5552C117.399 26.5552 118.114 26.1738 118.441 25.5562H118.468V26.4639H119.757V22.543C119.757 21.3989 118.839 20.6523 117.426 20.6523C115.976 20.6523 115.068 21.415 115.009 22.4785H116.25C116.336 22.0059 116.739 21.6997 117.373 21.6997C118.033 21.6997 118.436 22.0435 118.436 22.6396V23.0479L116.932 23.1338C115.546 23.2197 114.768 23.8267 114.768 24.8364C114.768 25.8623 115.568 26.5552 116.669 26.5552ZM117.072 25.5454C116.492 25.5454 116.105 25.25 116.105 24.7827C116.105 24.3315 116.476 24.0415 117.12 23.9985L118.436 23.918V24.353C118.436 25.0405 117.829 25.5454 117.072 25.5454ZM125.827 20.7705H124.43L123.109 25.2231H123.082L121.761 20.7705H120.332L122.352 26.4639H123.823L125.827 20.7705ZM130.054 24.7612C129.909 25.2339 129.436 25.5454 128.813 25.5454C127.938 25.5454 127.379 24.9331 127.379 24.02V23.9395H131.359V23.5044C131.359 21.7749 130.349 20.6523 128.732 20.6523C127.089 20.6523 126.047 21.8394 126.047 23.6387C126.047 25.4541 127.078 26.5767 128.786 26.5767C130.134 26.5767 131.133 25.8354 131.305 24.7612H130.054ZM128.738 21.689C129.506 21.689 130.021 22.2529 130.048 23.0586H127.39C127.443 22.2637 127.986 21.689 128.738 21.689ZM134.351 26.5552C135.183 26.5552 135.838 26.1309 136.15 25.4917H136.171V26.4639H137.482V18.7134H136.145V21.7266H136.112C135.812 21.0981 135.167 20.6738 134.351 20.6738C132.917 20.6738 131.987 21.8125 131.987 23.6118C131.987 25.4219 132.917 26.5552 134.351 26.5552ZM134.753 21.7749C135.597 21.7749 136.15 22.5 136.15 23.6172C136.15 24.7451 135.597 25.4595 134.753 25.4595C133.889 25.4595 133.357 24.7505 133.357 23.6172C133.357 22.4893 133.894 21.7749 134.753 21.7749ZM139.007 18.7134L139.115 23.9072H140.28L140.388 18.7134H139.007ZM139.695 26.5713C140.135 26.5713 140.479 26.2329 140.479 25.8086C140.479 25.3843 140.135 25.0513 139.695 25.0513C139.26 25.0513 138.916 25.3843 138.916 25.8086C138.916 26.2329 139.26 26.5713 139.695 26.5713Z" fill="#0471FF"/>
<g filter="url(#filter1_i)">
<path d="M220 80H29C26.7909 80 25 81.7909 25 84V187C25 189.209 26.7909 191 29 191H220C222.209 191 224 189.209 224 187V84C224 81.7909 222.209 80 220 80Z" fill="#F7F9FE"/>
</g>
<path d="M29 80.5H220C221.933 80.5 223.5 82.067 223.5 84V187C223.5 188.933 221.933 190.5 220 190.5H29C27.067 190.5 25.5 188.933 25.5 187V84C25.5 82.067 27.067 80.5 29 80.5Z" stroke="#EAECED"/>
<rect x="36" y="94" width="174" height="5" rx="2.5" fill="#506677" fill-opacity="0.15"/>
<rect x="36" y="105" width="174" height="5" rx="2.5" fill="#506677" fill-opacity="0.15"/>
<rect x="36" y="116" width="174" height="5" rx="2.5" fill="#506677" fill-opacity="0.15"/>
<rect x="36" y="127" width="130" height="5" rx="2.5" fill="#506677" fill-opacity="0.15"/>
<path d="M222.4 207H169.6C168.716 207 168 208.343 168 210V225C168 226.657 168.716 228 169.6 228H222.4C223.284 228 224 226.657 224 225V210C224 208.343 223.284 207 222.4 207Z" fill="#0477FE"/>
<path d="M184.35 219.067C184.415 220.485 185.602 221.361 187.396 221.361C189.259 221.361 190.425 220.426 190.425 218.944C190.425 217.794 189.743 217.139 188.11 216.801L187.272 216.629C186.305 216.425 185.918 216.086 185.918 215.56C185.918 214.91 186.531 214.502 187.39 214.502C188.276 214.502 188.889 214.942 188.953 215.673H190.28C190.248 214.287 189.114 213.353 187.401 213.353C185.72 213.353 184.522 214.276 184.522 215.641C184.522 216.774 185.247 217.504 186.799 217.821L187.632 217.993C188.642 218.203 189.028 218.546 189.028 219.105C189.028 219.75 188.378 220.211 187.444 220.211C186.477 220.211 185.779 219.782 185.677 219.067H184.35ZM193.003 221.323C193.733 221.323 194.448 220.942 194.775 220.324H194.802V221.232H196.091V217.311C196.091 216.167 195.173 215.42 193.76 215.42C192.31 215.42 191.402 216.183 191.343 217.247H192.584C192.67 216.774 193.073 216.468 193.707 216.468C194.367 216.468 194.77 216.812 194.77 217.408V217.816L193.266 217.902C191.88 217.988 191.102 218.595 191.102 219.604C191.102 220.63 191.902 221.323 193.003 221.323ZM193.406 220.313C192.826 220.313 192.439 220.018 192.439 219.551C192.439 219.1 192.81 218.81 193.454 218.767L194.77 218.686V219.121C194.77 219.809 194.163 220.313 193.406 220.313ZM202.161 215.539H200.764L199.443 219.991H199.416L198.095 215.539H196.666L198.686 221.232H200.157L202.161 215.539ZM206.388 219.529C206.243 220.002 205.77 220.313 205.147 220.313C204.271 220.313 203.713 219.701 203.713 218.788V218.708H207.693V218.272C207.693 216.543 206.683 215.42 205.066 215.42C203.423 215.42 202.381 216.607 202.381 218.407C202.381 220.222 203.412 221.345 205.12 221.345C206.468 221.345 207.467 220.604 207.639 219.529H206.388ZM205.072 216.457C205.84 216.457 206.355 217.021 206.382 217.827H203.724C203.777 217.032 204.32 216.457 205.072 216.457Z" fill="white"/>
<defs>
<filter id="filter0_i" x="25" y="40" width="199" height="28" filterUnits="userSpaceOnUse" color-interpolation-filters="sRGB">
<feFlood flood-opacity="0" result="BackgroundImageFix"/>
<feBlend mode="normal" in="SourceGraphic" in2="BackgroundImageFix" result="shape"/>
<feColorMatrix in="SourceAlpha" type="matrix" values="0 0 0 0 0 0 0 0 0 0 0 0 0 0 0 0 0 0 127 0" result="hardAlpha"/>
<feOffset dy="3"/>
<feGaussianBlur stdDeviation="2"/>
<feComposite in2="hardAlpha" operator="arithmetic" k2="-1" k3="1"/>
<feColorMatrix type="matrix" values="0 0 0 0 0.317647 0 0 0 0 0.4 0 0 0 0 0.462745 0 0 0 0.1 0"/>
<feBlend mode="normal" in2="shape" result="effect1_innerShadow"/>
</filter>
<filter id="filter1_i" x="25" y="80" width="199" height="114" filterUnits="userSpaceOnUse" color-interpolation-filters="sRGB">
<feFlood flood-opacity="0" result="BackgroundImageFix"/>
<feBlend mode="normal" in="SourceGraphic" in2="BackgroundImageFix" result="shape"/>
<feColorMatrix in="SourceAlpha" type="matrix" values="0 0 0 0 0 0 0 0 0 0 0 0 0 0 0 0 0 0 127 0" result="hardAlpha"/>
<feOffset dy="3"/>
<feGaussianBlur stdDeviation="2"/>
<feComposite in2="hardAlpha" operator="arithmetic" k2="-1" k3="1"/>
<feColorMatrix type="matrix" values="0 0 0 0 0.317647 0 0 0 0 0.4 0 0 0 0 0.462745 0 0 0 0.1 0"/>
<feBlend mode="normal" in2="shape" result="effect1_innerShadow"/>
</filter>
</defs>
</svg>
