<svg xmlns="http://www.w3.org/2000/svg" fill="none" viewBox="0 0 250 155">
  <defs/>
  <path fill="#fff" d="M0 .41h250V155H0z"/>
  <path fill="#F7F8FC" d="M244.25 16H64.75c-.97 0-1.75.72-1.75 1.6v131.8c0 .88.78 1.6 1.75 1.6h179.5c.97 0 1.75-.72 1.75-1.6V17.6c0-.88-.78-1.6-1.75-1.6z"/>
  <path fill="#DADDED" fill-rule="evenodd" d="M239.86 5.65H9.9a5.5 5.5 0 00-5.5 5.5V144.5a5.5 5.5 0 005.5 5.5h229.96a5.5 5.5 0 005.5-5.5V11.15a5.5 5.5 0 00-5.5-5.5zM9.9 5.15a6 6 0 00-6 6V144.5a6 6 0 006 6h229.96a6 6 0 006-6V11.15a6 6 0 00-6-6H9.9z" clip-rule="evenodd"/>
  <path fill="#fff" d="M238.36 35H70.64c-.9 0-1.64.6-1.64 1.33v109.34c0 .73.73 1.33 1.64 1.33h167.72c.9 0 1.64-.6 1.64-1.33V36.33c0-.73-.73-1.33-1.64-1.33z"/>
  <path fill="#D9DBEC" fill-rule="evenodd" d="M238.36 35.5H70.64c-.73 0-1.14.46-1.14.83v109.34c0 .37.4.83 1.14.83h167.72c.73 0 1.14-.46 1.14-.83V36.33c0-.37-.4-.83-1.14-.83zM70.64 35h167.72c.9 0 1.64.6 1.64 1.33v109.34c0 .73-.73 1.33-1.64 1.33H70.64c-.9 0-1.64-.6-1.64-1.33V36.33c0-.73.73-1.33 1.64-1.33zM62.78 150.6V16.1h.5v134.5h-.5z" clip-rule="evenodd"/>
  <path fill="#D9DBEC" fill-rule="evenodd" d="M155 43.5H73a.5.5 0 00-.5.5v5c0 .28.22.5.5.5h82a.5.5 0 00.5-.5v-5a.5.5 0 00-.5-.5zM73 43a1 1 0 00-1 1v5a1 1 0 001 1h82a1 1 0 001-1v-5a1 1 0 00-1-1H73z" clip-rule="evenodd"/>
  <rect width="55" height="2" x="74" y="45.5" fill="#495E6F" fill-opacity=".2" rx="1"/>
  <rect width="19" height="3" x="72" y="38" fill="#495E6F" fill-opacity=".2" rx="1"/>
  <rect width="23" height="3" x="72" y="55" fill="#495E6F" fill-opacity=".2" rx="1"/>
  <path fill="#D9DBEC" fill-rule="evenodd" d="M219 24.5h-15a.5.5 0 00-.5.5v5c0 .28.22.5.5.5h15a.5.5 0 00.5-.5v-5a.5.5 0 00-.5-.5zm-15-.5a1 1 0 00-1 1v5a1 1 0 001 1h15a1 1 0 001-1v-5a1 1 0 00-1-1h-15z" clip-rule="evenodd"/>
  <path fill="#506677" fill-opacity=".4" d="M216.26 27.07h-9.89c-.2 0-.35.23-.35.5v.51c0 .28.16.5.35.5h9.9c.19 0 .35-.22.35-.5v-.5c0-.28-.16-.5-.36-.5z"/>
  <path fill="#189BFF" d="M239.62 24h-17.24c-.21 0-.38.37-.38.82v5.36c0 .45.17.82.38.82h17.24c.21 0 .38-.37.38-.82v-5.36c0-.45-.17-.82-.38-.82z"/>
  <path fill="#fff" fill-opacity=".4" d="M236.57 27.07h-11.04a.4.4 0 00-.4.41v.42c0 .23.19.42.4.42h11.04a.4.4 0 00.4-.42v-.41a.4.4 0 00-.4-.42z"/>
  <path fill="#D9DBEC" fill-rule="evenodd" d="M234 61.5H73a.5.5 0 00-.5.5v75c0 .28.22.5.5.5h161a.5.5 0 00.5-.5V62a.5.5 0 00-.5-.5zM73 61a1 1 0 00-1 1v75a1 1 0 001 1h161a1 1 0 001-1V62a1 1 0 00-1-1H73z" clip-rule="evenodd"/>
  <path fill="#D9DBEC" fill-rule="evenodd" d="M235 70.25H72v-.5h163v.5zM94.5 68.5v-5h.5v5h-.5zM115.5 68.5v-5h.5v5h-.5zM130.5 68.5v-5h.5v5h-.5zM139 68.5v-5h.5v5h-.5z" clip-rule="evenodd"/>
  <rect width="4" height="4" x="76" y="64" fill="#495E6F" fill-opacity=".2" rx="1"/>
  <rect width="4" height="4" x="97" y="64" fill="#495E6F" fill-opacity=".2" rx="1"/>
  <rect width="4" height="4" x="118" y="64" fill="#495E6F" fill-opacity=".2" rx="1"/>
  <rect width="4" height="4" x="82" y="64" fill="#495E6F" fill-opacity=".2" rx="1"/>
  <rect width="4" height="4" x="103" y="64" fill="#495E6F" fill-opacity=".2" rx="1"/>
  <rect width="4" height="4" x="124" y="64" fill="#495E6F" fill-opacity=".2" rx="1"/>
  <rect width="4" height="4" x="133" y="64" fill="#495E6F" fill-opacity=".2" rx="1"/>
  <rect width="4" height="4" x="142" y="64" fill="#495E6F" fill-opacity=".2" rx="1"/>
  <rect width="4" height="4" x="88" y="64" fill="#495E6F" fill-opacity=".2" rx="1"/>
  <rect width="4" height="4" x="109" y="64" fill="#495E6F" fill-opacity=".2" rx="1"/>
  <rect width="92" height="2" x="77" y="83" fill="#495E6F" fill-opacity=".2" rx="1"/>
  <rect width="153" height="2" x="77" y="76" fill="#495E6F" fill-opacity=".2" rx="1"/>
  <path fill="#495E6F" d="M72.2 30.24h-1.65v-1h1.56v-.5h-1.56v-.96h1.65v-.53h-2.28v3.52h2.28v-.53zM73.63 30.81c.38 0 .68-.2.82-.48h.01v.44h.6v-3.52h-.61v1.37h-.02a.86.86 0 00-.8-.48c-.65 0-1.07.52-1.07 1.33 0 .83.42 1.34 1.07 1.34zm.19-2.17c.38 0 .63.33.63.84 0 .5-.25.83-.63.83-.4 0-.64-.32-.64-.83 0-.52.25-.84.64-.84zM75.87 27.8a.33.33 0 100-.67.33.33 0 00-.34.33c0 .18.15.33.34.33zm-.3 2.97h.6v-2.59h-.6v2.59zM76.84 27.58v.6h-.37v.47h.37v1.43c0 .5.22.7.78.7.13 0 .25 0 .31-.02v-.47l-.17.02c-.22 0-.31-.1-.31-.31v-1.35h.48v-.47h-.48v-.6h-.61zM79.38 27.25v3.52h.63v-1.16h.71c.72 0 1.22-.48 1.22-1.18s-.49-1.18-1.19-1.18h-1.37zm.63.51h.57c.46 0 .72.24.72.67 0 .42-.27.67-.72.67h-.57v-1.34zM82.9 30.81c.33 0 .65-.17.8-.45h.01v.41h.59v-1.78c0-.52-.42-.86-1.06-.86-.66 0-1.07.35-1.1.83h.56c.04-.22.23-.36.51-.36.3 0 .49.16.49.43v.19l-.69.04c-.63.04-.98.31-.98.77 0 .47.36.78.86.78zm.18-.46c-.27 0-.44-.13-.44-.34 0-.2.17-.34.46-.36l.6-.04v.2c0 .31-.28.54-.62.54zM85.91 31.75c.76 0 1.25-.4 1.25-1.02v-2.55h-.6v.45a.89.89 0 00-.82-.5c-.66 0-1.07.52-1.07 1.34 0 .8.42 1.3 1.06 1.3.37 0 .68-.18.81-.46h.02v.44c0 .33-.23.55-.63.55-.28 0-.5-.14-.57-.33h-.6c.06.45.51.78 1.15.78zm0-1.46c-.38 0-.62-.3-.62-.82 0-.5.24-.83.63-.83.38 0 .64.33.64.83 0 .5-.26.82-.64.82zM89.36 30c-.07.21-.28.35-.57.35-.4 0-.65-.28-.65-.7v-.03h1.81v-.2c0-.78-.46-1.3-1.2-1.3s-1.21.55-1.21 1.37c0 .82.47 1.33 1.24 1.33.61 0 1.07-.34 1.15-.82h-.57zm-.6-1.4c.35 0 .58.26.6.62h-1.21c.02-.36.27-.62.61-.62z"/>
  <rect width="26.24" height="1.51" x="17.12" y="23.67" fill="#495E6F" fill-opacity=".4" rx=".76"/>
  <rect width="4.04" height="4.04" x="10.56" y="22.15" fill="#506677" fill-opacity=".15" rx="2.02"/>
  <rect width="26.24" height="1.51" x="17.12" y="45.36" fill="#495E6F" fill-opacity=".4" rx=".76"/>
  <rect width="4.04" height="4.04" x="10.56" y="43.85" fill="#506677" fill-opacity=".15" rx="2.02"/>
  <rect width="26.24" height="1.51" x="17.12" y="54.95" fill="#495E6F" fill-opacity=".4" rx=".76"/>
  <rect width="4.04" height="4.04" x="10.56" y="53.44" fill="#506677" fill-opacity=".15" rx="2.02"/>
  <rect width="26.24" height="1.51" x="17.12" y="64.53" fill="#495E6F" fill-opacity=".4" rx=".76"/>
  <rect width="4.04" height="4.04" x="10.56" y="63.02" fill="#506677" fill-opacity=".15" rx="2.02"/>
  <rect width="26.24" height="1.51" x="17.12" y="74.63" fill="#495E6F" fill-opacity=".7" rx=".76"/>
  <rect width="26.24" height="1.51" x="17.12" y="83.2" fill="#495E6F" fill-opacity=".4" rx=".76"/>
  <rect width="4.04" height="4.04" x="10.56" y="73.11" fill="#506677" fill-opacity=".7" rx="2.02"/>
  <rect width="26.24" height="1.51" x="17.12" y="92.28" fill="#495E6F" fill-opacity=".4" rx=".76"/>
  <rect width="4.04" height="4.04" x="10.56" y="90.77" fill="#506677" fill-opacity=".15" rx="2.02"/>
  <rect width="26.24" height="1.51" x="17.12" y="101.87" fill="#495E6F" fill-opacity=".4" rx=".76"/>
  <rect width="4.04" height="4.04" x="10.56" y="100.36" fill="#506677" fill-opacity=".15" rx="2.02"/>
  <rect width="11.1" height="1.51" x="10.56" y="36.28" fill="#495E6F" fill-opacity=".4" rx=".76"/>
  <path fill="#D9DBEC" fill-rule="evenodd" d="M246 16.35H4v-.5h242v.5z" clip-rule="evenodd"/>
  <rect width="3.53" height=".76" x="242.33" y="9.54" fill="#D9DBEC" rx=".38" transform="rotate(-180 242.33 9.54)"/>
  <rect width="3.53" height=".76" x="242.33" y="11.05" fill="#D9DBEC" rx=".38" transform="rotate(-180 242.33 11.05)"/>
  <rect width="3.53" height=".76" x="242.33" y="12.57" fill="#D9DBEC" rx=".38" transform="rotate(-180 242.33 12.57)"/>
  <path fill="#F6FAFD" d="M237.45 12.04a2 2 0 01-2 2h-3.07a2 2 0 01-2-2V8.97c0-1.1.9-2 2-2h3.07a2 2 0 012 2v3.07z"/>
  <path fill="#D9DBEC" fill-rule="evenodd" d="M232.38 13.54h3.07c.83 0 1.5-.67 1.5-1.5V8.97c0-.83-.67-1.5-1.5-1.5h-3.07c-.82 0-1.5.67-1.5 1.5v3.07c0 .83.68 1.5 1.5 1.5zm3.07.5a2 2 0 002-2V8.97a2 2 0 00-2-2h-3.07a2 2 0 00-2 2v3.07c0 1.1.9 2 2 2h3.07z" clip-rule="evenodd"/>
  <path fill="#F6FAFD" d="M16.61 9.02c0-1.1.9-2 2-2h28.8a2 2 0 012 2v3.06a2 2 0 01-2 2H18.6a2 2 0 01-2-2V9.02z"/>
  <path fill="#D9DBEC" fill-rule="evenodd" d="M47.4 7.52H18.62c-.83 0-1.5.67-1.5 1.5v3.06c0 .83.67 1.5 1.5 1.5h28.8c.83 0 1.5-.67 1.5-1.5V9.02c0-.83-.67-1.5-1.5-1.5zm-28.79-.5a2 2 0 00-2 2v3.06c0 1.1.9 2 2 2h28.8a2 2 0 002-2V9.02a2 2 0 00-2-2H18.6z" clip-rule="evenodd"/>
  <rect width="19.17" height="1.51" x="25.19" y="10.05" fill="#C7CCE4" rx=".76"/>
  <path fill="#C7CCE4" fill-rule="evenodd" d="M20.65 8.86a1.7 1.7 0 100 3.38 1.7 1.7 0 000-3.38zm-2.02 1.69a2.02 2.02 0 114.04 0 2.02 2.02 0 01-4.04 0z" clip-rule="evenodd"/>
  <path fill="#C7CCE4" fill-rule="evenodd" d="M20.14 9.31c-.16.3-.26.75-.26 1.24 0 .5.1.93.26 1.24.16.32.35.45.5.45.17 0 .36-.13.52-.45.15-.3.25-.75.25-1.24 0-.5-.1-.93-.25-1.24-.16-.32-.35-.45-.51-.45-.16 0-.35.13-.51.45zm-.3-.14c.18-.36.46-.64.8-.64.36 0 .63.28.81.64.18.36.29.85.29 1.38 0 .53-.1 1.02-.29 1.38-.18.36-.45.64-.8.64-.35 0-.63-.28-.8-.64a3.17 3.17 0 01-.3-1.38c0-.53.12-1.02.3-1.38z" clip-rule="evenodd"/>
  <path fill="#C7CCE4" fill-rule="evenodd" d="M20.65 11.56c-.56 0-1.05.13-1.36.32l-.17-.27a3 3 0 011.53-.37c.6 0 1.14.13 1.51.36l-.17.27a2.7 2.7 0 00-1.34-.3zM20.65 9.54c.56 0 1.05-.13 1.36-.32l.17.27a3 3 0 01-1.53.37c-.6 0-1.14-.13-1.51-.36l.17-.27c.3.18.79.3 1.34.3zM22.5 10.71h-3.7v-.32h3.7v.32z" clip-rule="evenodd"/>
  <path fill="#C7CCE4" fill-rule="evenodd" d="M20.65 12.24v-3.7h.32v3.7h-.32z" clip-rule="evenodd"/>
  <path fill="#F6FAFD" d="M7.15 9.16c0-1.1.9-2 2-2h3.06a2 2 0 012 2v3.06a2 2 0 01-2 2H9.15a2 2 0 01-2-2V9.16z"/>
  <path fill="#D9DBEC" fill-rule="evenodd" d="M12.21 7.66H9.15c-.83 0-1.5.67-1.5 1.5v3.06c0 .83.67 1.5 1.5 1.5h3.06c.83 0 1.5-.67 1.5-1.5V9.16c0-.83-.67-1.5-1.5-1.5zm-3.06-.5a2 2 0 00-2 2v3.06c0 1.1.9 2 2 2h3.06a2 2 0 002-2V9.16a2 2 0 00-2-2H9.15z" clip-rule="evenodd"/>
  <path fill="#C7CCE4" d="M12 12.56h-1.75a.42.42 0 01-.3-.13L8.62 11.1a.35.35 0 01.24-.6h1.63V8.87a.35.35 0 01.6-.25l1.33 1.33a.42.42 0 01.13.3V12a.56.56 0 01-.56.56zm-1.68-.6h1.63v-1.63l-.86-.86v1.63H9.47l.85.86z"/>
</svg>
