<svg width="90" height="80" viewBox="0 0 90 80" fill="none" xmlns="http://www.w3.org/2000/svg">
<path d="M66.6931 0C66.6931 0 66.6931 0 66.6931 0H3C1.34315 0 0 1.34315 0 3V20.6817C0 22.3386 1.34315 23.6817 3 23.6817H59.5973C62.249 23.6817 63.5968 26.8697 61.7493 28.7719L49.5721 41.3096C47.7247 43.2118 49.0725 46.3998 51.7241 46.3998H66.6931C72.7931 46.2754 78.6011 43.7765 82.8709 39.4393C87.1408 35.102 89.5323 29.2719 89.5323 23.1999C89.5323 17.1279 87.1408 11.2978 82.8709 6.96054C78.6011 2.62326 72.7931 0.124353 66.6931 0C66.6931 0 66.6931 0 66.6931 0V0Z" fill="#FC2A46"/>
<path opacity="0.5" d="M30.5718 56.3187C27.9269 56.3187 26.5761 53.1446 28.41 51.2387L40.4837 38.6904C42.3176 36.7845 40.9668 33.6104 38.3219 33.6104H23.3069C17.1255 33.6104 11.1973 36.0541 6.82643 40.404C2.45554 44.7539 0 50.6537 0 56.8054C0 62.9571 2.45554 68.8568 6.82643 73.2068C11.1973 77.5567 17.1255 80.0004 23.3069 80.0004H86.9804C88.6373 80.0004 89.9804 78.6573 89.9804 77.0004V59.3187C89.9804 57.6619 88.6373 56.3187 86.9804 56.3187H30.5718Z" fill="#FC2A46"/>
</svg>
