<svg xmlns="http://www.w3.org/2000/svg" fill="none" viewBox="0 0 507 323">
  <defs/>
  <rect width="507" height="323" fill="#fff" rx="4"/>
  <mask id="a" width="245" height="323" x="0" y="0" maskUnits="userSpaceOnUse">
    <path fill="#fff" d="M0 0h245v323H0z"/>
  </mask>
  <g mask="url(#a)">
    <path fill="#0B092E" d="M-20 0h322.54v322.54H-20z"/>
    <path fill="#25025A" d="M-20 234.37h87.72v88.17H-20v-88.17z"/>
    <path fill="#3D0D85" fill-rule="evenodd" d="M57.9 161.04h10.03v32.91H57.89v-32.9zm.45.46v32h9.12v-32h-9.12z" clip-rule="evenodd"/>
    <path fill="#1BFEC0" d="M62.91 168.87a1.14 1.14 0 100-2.28 1.14 1.14 0 000 2.28z"/>
    <path fill="#1BFEC0" fill-rule="evenodd" d="M62.91 166.82a.91.91 0 100 1.82.91.91 0 000-1.82zm-1.37.91a1.37 1.37 0 112.74 0 1.37 1.37 0 01-2.74 0z" clip-rule="evenodd"/>
    <path fill="#935BE7" fill-rule="evenodd" d="M62.91 174.13a.91.91 0 100 1.82.91.91 0 000-1.82zm-1.37.91a1.37 1.37 0 112.74 0 1.37 1.37 0 01-2.74 0zM62.91 180.38a.91.91 0 100 1.83.91.91 0 000-1.83zm-1.37.91a1.37 1.37 0 112.74 0 1.37 1.37 0 01-2.74 0zM62.91 186.63a.91.91 0 100 1.83.91.91 0 000-1.83zm-1.37.91a1.37 1.37 0 112.74 0 1.37 1.37 0 01-2.74 0z" clip-rule="evenodd"/>
    <path fill="#25015A" d="M-20 278.22h263.15V323H-20v-44.78z"/>
    <path fill="#3D0D85" d="M67.72 0a43.86 43.86 0 0143.85 43.86H67.72V0zM203.4 190.97h99.14V323H203.4V190.97zM-20 278.22h87.72v43.86H-20v-43.86zM23.86 234.37A43.86 43.86 0 01-20 190.5h43.86v43.86z"/>
    <path fill="#935BE7" fill-rule="evenodd" d="M24.09 212.67c-5.88 0-11.06-2.34-15.21-6.5a22.16 22.16 0 01-6.5-15.66h.46a21.7 21.7 0 006.36 15.34c4.07 4.07 9.13 6.36 14.89 6.36v.46z" clip-rule="evenodd"/>
    <path fill="#935BE7" fill-rule="evenodd" d="M27.65 208.95a3.33 3.33 0 100 6.67 3.33 3.33 0 000-6.67zm-3.8 3.34a3.8 3.8 0 117.6 0 3.8 3.8 0 01-7.6 0z" clip-rule="evenodd"/>
    <path fill="#6515DD" d="M23.86 278.22H-20v43.86h43.86a43.86 43.86 0 0043.86-43.86H23.86z"/>
    <path fill="#935BE7" fill-rule="evenodd" d="M39.43 293.3a21.7 21.7 0 006.36-15.35h.45a22.16 22.16 0 01-22.15 22.16H-20v-.46h44.09a21.7 21.7 0 0015.34-6.35zM52.06 262.34c4.02-4.02 9.98-6.27 15.66-6.27v.45c-5.57 0-11.4 2.22-15.33 6.15-3.93 3.93-6.15 9.71-6.15 15.28h-.45c0-5.68 2.25-11.59 6.27-15.6z" clip-rule="evenodd"/>
    <path fill="#25015A" d="M258.68 234.82H203.4v-43.85h99.14a43.86 43.86 0 01-43.86 43.85z"/>
    <path fill="#935BE7" fill-rule="evenodd" d="M274.25 206.5a21.7 21.7 0 006.36-15.35h.46a22.16 22.16 0 01-22.16 22.16h-55.05v-.46h55.05a21.7 21.7 0 0015.34-6.36z" clip-rule="evenodd"/>
    <path fill="#3D0D85" d="M-20 43.86h322.54v43.86H-20z"/>
    <path fill="#25015A" fill-rule="evenodd" d="M302.54 52.54H-20v-.46h322.54v.46zM-20 53.87h322.54v.46H-20v-.46zm0 2.15h322.54v.45H-20v-.45zm0 1.96h322.54v.45H-20v-.45zm0 1.87h322.54v.45H-20v-.45z" clip-rule="evenodd"/>
    <path fill="#25025A" d="M67.72 43.86H23.86A43.86 43.86 0 00-20 87.72h87.72a43.86 43.86 0 0043.85-43.86H67.72z"/>
    <path fill="#fff" fill-opacity=".5" fill-rule="evenodd" d="M230.62 302.46a6.87 6.87 0 01-6.87-6.88v-60.76h-.46v60.76a7.33 7.33 0 007.33 7.34h71.92v-.46h-71.92z" clip-rule="evenodd"/>
    <path fill="#fff" fill-opacity=".5" fill-rule="evenodd" d="M229.57 304.54a7.68 7.68 0 01-7.66-7.67v-62.05h-.46v62.05a8.11 8.11 0 008.12 8.13h72.97v-.46h-72.97z" clip-rule="evenodd"/>
    <path fill="#fff" fill-opacity=".5" fill-rule="evenodd" d="M231.13 300.3a5.3 5.3 0 01-5.3-5.3v-60.18h-.45V295a5.75 5.75 0 005.75 5.75h71.4v-.45h-71.4z" clip-rule="evenodd"/>
    <path fill="#fff" fill-opacity=".5" fill-rule="evenodd" d="M231.64 297.93a3.71 3.71 0 01-3.72-3.72v-59.39h-.46v59.4a4.17 4.17 0 004.18 4.17h70.9v-.46h-70.9z" clip-rule="evenodd"/>
    <path fill="#fff" fill-opacity=".5" fill-rule="evenodd" d="M230.42 295.53a3 3 0 002.12.87h70v-.45h-70a2.54 2.54 0 01-2.54-2.54v-58.57h-.45v58.57a3 3 0 00.87 2.12z" clip-rule="evenodd"/>
    <path fill="#6515DD" d="M111.57 258h42.4v11.68h-42.4V258zm0-15.47h42.4v11.68h-42.4v-11.68zm0-15.47h42.4v11.68h-42.4v-11.68z"/>
    <path fill="#391077" d="M114.93 238.74h35.69v3.79h-35.69v-3.79zm0 15.47h35.69V258h-35.69v-3.79zm0 15.47h35.69v3.79h-35.69v-3.79z"/>
    <path fill="#1BFEC0" d="M149.37 233.92a1.02 1.02 0 100-2.04 1.02 1.02 0 000 2.04z"/>
    <path fill="#1BFEC0" fill-rule="evenodd" d="M149.37 232.11a.79.79 0 100 1.58.79.79 0 000-1.58zm-1.25.8a1.24 1.24 0 112.5-.01 1.24 1.24 0 01-2.5 0z" clip-rule="evenodd"/>
    <path fill="#1BFEC0" d="M149.37 264.92a1.02 1.02 0 100-2.03 1.02 1.02 0 000 2.03z"/>
    <path fill="#1BFEC0" fill-rule="evenodd" d="M149.37 263.12a.79.79 0 100 1.57.79.79 0 000-1.57zm-1.25.78a1.24 1.24 0 112.5 0 1.24 1.24 0 01-2.5 0z" clip-rule="evenodd"/>
    <path fill="#1BFEC0" d="M149.37 249.33a1.02 1.02 0 100-2.04 1.02 1.02 0 000 2.04z"/>
    <path fill="#1BFEC0" fill-rule="evenodd" d="M149.37 247.52a.79.79 0 100 1.58.79.79 0 000-1.58zm-1.25.79a1.24 1.24 0 112.5 0 1.24 1.24 0 01-2.5 0z" clip-rule="evenodd"/>
    <path fill="#935BE7" fill-rule="evenodd" d="M217.77 128.38v17.84c0 5.56-2.21 11.4-6.14 15.33-3.93 3.93-9.72 6.14-15.29 6.14h-55.07v.46h55.07c5.68 0 11.59-2.26 15.61-6.28 4.02-4.02 6.28-9.98 6.28-15.65v-17.84h-.46z" clip-rule="evenodd"/>
    <path fill="#391077" fill-rule="evenodd" d="M114.92 232.77c0-.26.2-.46.45-.46h10.6a.46.46 0 110 .91h-10.6a.46.46 0 01-.45-.45zm0 15.6c0-.25.2-.46.45-.46h10.6a.46.46 0 110 .92h-10.6a.46.46 0 01-.45-.46zm0 15.47c0-.25.2-.45.45-.45h10.6a.46.46 0 110 .91h-10.6a.46.46 0 01-.45-.46z" clip-rule="evenodd"/>
    <path fill="#935BE7" fill-rule="evenodd" d="M107.5 248.83a1.23 1.23 0 00-1.23 1.24v12.54a1.23 1.23 0 001.23 1.24h4.02v.45h-4.02a1.7 1.7 0 01-1.69-1.69v-6.09h-38.1v-.45h38.1v-6a1.69 1.69 0 011.7-1.7h4.01v.46h-4.02zM132.47 182.17v44.54h-.45v-44.54h.45z" clip-rule="evenodd"/>
    <path fill="#6515DD" d="M153.22 172.27a21.5 21.5 0 10-43.02 0v7.53c0 1.19.97 2.15 2.15 2.15h38.72c1.19 0 2.15-.96 2.15-2.15v-7.53z"/>
    <path fill="#391077" fill-rule="evenodd" d="M115.48 172.99a16.23 16.23 0 0132.46 0 .46.46 0 11-.91 0 15.32 15.32 0 00-30.63 0 .46.46 0 11-.92 0z" clip-rule="evenodd"/>
    <path fill="#1BFEC0" fill-rule="evenodd" d="M131.71 157.67A15.31 15.31 0 00116.4 173a.46.46 0 11-.92 0 16.23 16.23 0 0127.75-11.44.46.46 0 11-.65.64 15.27 15.27 0 00-10.87-4.52z" clip-rule="evenodd"/>
    <path fill="#fff" d="M133.4 175.3a2.8 2.8 0 01-3.96-.1 2.8 2.8 0 01-.1-3.96c.73-.73 5.93-4.04 9.16-6.08.65-.4 1.38.34.97.98-2.03 3.23-5.34 8.43-6.07 9.16z"/>
    <path fill="#3D0D85" fill-rule="evenodd" d="M302.54 126.1H-20v-.46h322.54v.45zM-20 127.42h322.54v.45H-20v-.45zm0 2.14h322.54v.46H-20v-.46zm0 1.96h322.54v.46H-20v-.46zm0 1.87h322.54v.46H-20v-.46z" clip-rule="evenodd"/>
    <path fill="#6515DD" fill-rule="evenodd" d="M147.65 318.98l10.72-5.88.22.4-10.72 5.88-.22-.4zm-25.36.4l-10.72-5.88.22-.4 10.72 5.88-.22.4zm20.88-7.23l6.5-8.8.38.26-6.51 8.81-.37-.27zm-16.51.27l-6.5-8.8.36-.28 6.5 8.81-.36.27zm8.5-11.62v8.53h-.46v-8.53h.46z" clip-rule="evenodd"/>
    <path fill="#3D0D85" d="M134.93 309.33A13.67 13.67 0 00121.26 323h27.34a13.67 13.67 0 00-13.67-13.67z"/>
    <path fill="#6515DD" d="M134.93 311.58A11.42 11.42 0 00123.51 323h22.85a11.41 11.41 0 00-11.43-11.42z"/>
    <path fill="#3D0D85" d="M134.93 315.54a7.47 7.47 0 00-7.47 7.46h14.93a7.47 7.47 0 00-7.46-7.46z"/>
    <path fill="#fff" fill-opacity=".5" d="M134.93 299.24a1.24 1.24 0 100 2.47 1.24 1.24 0 000-2.47zM120.16 302a1.24 1.24 0 100 2.48 1.24 1.24 0 000-2.47zM111.44 311.93a1.24 1.24 0 100 2.47 1.24 1.24 0 000-2.47zM158.72 311.93a1.24 1.24 0 100 2.47 1.24 1.24 0 000-2.47zM150.04 302a1.24 1.24 0 100 2.48 1.24 1.24 0 000-2.47z"/>
    <path fill="#6515DD" d="M195.63 131.28v-17.1c.24-.4.55-.68 1-.83 5.67-2.04 11.34-4.1 17-6.15l3.24-1.21h.47c.13.07.26.14.41.19 6.54 2.37 13.07 4.73 19.62 7.08.5.19.94.41 1.21.9v17.11l-.18 1.47a20.72 20.72 0 01-7.93 14.54 33.61 33.61 0 01-10.5 5.47c-1.03.3-2.1.55-2.45.66-.18.06-.5.2-.65.2-.18-.07-.37-.15-.56-.2-4.1-1.17-8.03-2.75-11.52-5.26a20.76 20.76 0 01-8.9-14.66l-.25-2.2z"/>
    <path fill="#391077" fill-rule="evenodd" d="M201.09 117.45c-.35.11-.6.32-.78.62v12.83l.2 1.65c.65 4.65 3.01 8.29 6.96 11 2.64 1.82 5.52 2.78 8.5 3.77l.95.32h.36c3.64-1.1 7.23-2.4 10.28-4.74 3.64-2.8 5.7-6.44 6.2-10.9l.07-.56.06-.55v-12.83c-.2-.37-.55-.54-.95-.68l-15.66-5.45h-.36c-5.27 1.88-10.55 3.7-15.83 5.52zm15.99-4.6a1525.7 1525.7 0 01-15.7 5.46.55.55 0 00-.16.08v12.46l.2 1.58c.6 4.37 2.82 7.8 6.57 10.37 2.52 1.74 5.29 2.66 8.28 3.66l.8.26h.08c3.57-1.09 6.97-2.34 9.85-4.55a14.47 14.47 0 005.85-10.28l.07-.56.06-.5V118.4a1.76 1.76 0 00-.34-.14l-15.51-5.4h-.05z" clip-rule="evenodd"/>
    <path fill="#1BFEC0" fill-rule="evenodd" d="M227.07 142.73c.15.2.1.49-.1.63a25.24 25.24 0 01-7.6 3.63c-.63.2-1.26.38-1.89.56l-.06.01h-.47l-.07-.02-.15-.05-.22-.07a27.57 27.57 0 01-8.33-3.47.46.46 0 01.5-.77c2.43 1.6 5.17 2.6 8.06 3.36.1.03.22.06.31.1l.05.01h.19l1.8-.54a24.32 24.32 0 007.34-3.48c.2-.15.5-.1.64.1z" clip-rule="evenodd"/>
    <path fill="#fff" d="M224.61 127.1c0-.24-.1-.48-.27-.66l-1.32-1.32a.94.94 0 00-1.31 0l-6.36 6.37-2.85-2.86a.94.94 0 00-1.32 0l-1.31 1.32a.94.94 0 000 1.32l4.82 4.82a.94.94 0 001.32 0l8.33-8.33a.94.94 0 00.27-.66z"/>
    <path fill="#935BE7" fill-rule="evenodd" d="M67.78 21.47A22.16 22.16 0 0183.45 59.3a22.34 22.34 0 01-15.67 6.67H23.93c-5.57 0-10.9 2.2-14.83 6.14a21.08 21.08 0 00-6.26 14.83v103.57H2.4V86.94c0-5.69 2.37-11.14 6.38-15.15a21.43 21.43 0 0115.16-6.28h43.85c5.75 0 11.28-2.46 15.35-6.54a21.7 21.7 0 00-15.35-37.04v-.46z" clip-rule="evenodd"/>
    <path fill="#EDF2F7" d="M27.2 16.61h7.16v1.64l-4.88 6.19h5.1v1.74h-7.61v-1.63l4.87-6.2H27.2v-1.74zM38.57 19.24a3.42 3.42 0 012.54 1.06c.29.32.5.7.66 1.12.15.43.22.88.22 1.35v.24c0 .08 0 .17-.03.26h-4.99c0 .24.05.46.14.66a1.85 1.85 0 00.91.93c.22.1.45.14.7.14.3 0 .56-.06.78-.18.22-.13.4-.3.56-.52h1.83c-.1.28-.25.55-.43.81a3 3 0 01-1.59 1.14 3.93 3.93 0 01-2.6-.08c-.42-.18-.8-.43-1.13-.75a3.73 3.73 0 01-.75-1.15 4.05 4.05 0 01-.27-1.5c0-.48.08-.93.22-1.36a3.21 3.21 0 011.75-1.9c.44-.18.93-.27 1.48-.27zm-.01 1.31c-.24 0-.45.05-.63.13a1.4 1.4 0 00-.48.3 1.64 1.64 0 00-.46 1h3.14c-.05-.39-.21-.73-.5-1a1.43 1.43 0 00-1.07-.43zM42.9 19.46h1.87v.84h.05c.24-.37.53-.64.87-.8.36-.17.73-.25 1.12-.25.76 0 1.38.26 1.86.77.47.5.71 1.27.71 2.3v3.86h-1.9v-3.73c0-.5-.1-.89-.33-1.14-.22-.26-.53-.4-.93-.4-.42 0-.76.15-1.03.44-.26.3-.4.72-.4 1.28v3.55H42.9v-6.72zM50.18 22.81a3.56 3.56 0 011.02-2.57 3.57 3.57 0 012.57-1 3.69 3.69 0 012.58 1.02c.32.32.57.7.75 1.14a3.75 3.75 0 01-.75 3.95c-.32.33-.7.59-1.13.79-.44.18-.93.28-1.45.28a3.62 3.62 0 01-2.57-1.04 3.73 3.73 0 01-.75-1.15 3.75 3.75 0 01-.27-1.42zm1.9.02c0 .28.05.53.13.77.09.23.2.43.35.6a1.6 1.6 0 001.2.53c.53 0 .93-.18 1.23-.54.3-.37.45-.82.45-1.36 0-.27-.04-.5-.11-.73a1.78 1.78 0 00-.32-.6 1.55 1.55 0 00-1.23-.58c-.54 0-.96.18-1.26.55-.29.35-.43.8-.43 1.36z"/>
    <path fill="#6515DD" fill-rule="evenodd" d="M9.15 21.8h8.84l2.15-6.53-9.43.01 1.55 3.07-3.11 3.46z" clip-rule="evenodd"/>
    <path fill="#6515DD" fill-rule="evenodd" d="M23.3 21.41h-8.83l-2.15 6.54 9.43-.02-1.55-3.06 3.1-3.46z" clip-rule="evenodd"/>
  </g>
  <rect width="20" height="3" x="311" y="15" fill="#495E6F" fill-opacity=".4" rx="1"/>
  <rect width="20" height="3" x="339" y="15" fill="#495E6F" fill-opacity=".4" rx="1"/>
  <rect width="20" height="3" x="367" y="15" fill="#495E6F" fill-opacity=".4" rx="1"/>
  <rect width="20" height="3" x="395" y="15" fill="#495E6F" fill-opacity=".4" rx="1"/>
  <rect width="20" height="3" x="423" y="15" fill="#495E6F" fill-opacity=".4" rx="1"/>
  <path fill="#391570" fill-rule="evenodd" d="M326.89 198.5s-.08.02-.19.22c-.11.21-.2.54-.2.93v10.7c0 .4.09.72.2.93.1.2.18.22.19.22h40.22s.08-.02.19-.22c.11-.21.2-.54.2-.93v-10.7c0-.4-.09-.72-.2-.93-.1-.2-.18-.22-.19-.22H326.9zm0-.5h40.23c.48 0 .88.74.88 1.65v10.7c0 .91-.4 1.65-.88 1.65h-40.24c-.48 0-.88-.74-.88-1.65v-10.7c0-.91.4-1.65.88-1.65z" clip-rule="evenodd"/>
  <path fill="#391570" d="M359.13 204h-24.26c-.48 0-.87.3-.87.67v.66c0 .37.39.67.87.67h24.26c.48 0 .87-.3.87-.67v-.66c0-.37-.39-.67-.87-.67z"/>
  <path fill="#6414DE" d="M318.86 198h-51.72c-.63 0-1.14.74-1.14 1.65v10.7c0 .91.5 1.65 1.14 1.65h51.72c.63 0 1.14-.74 1.14-1.65v-10.7c0-.91-.5-1.65-1.14-1.65z"/>
  <path fill="#EFE4FF" d="M310.73 204h-35.46c-.7 0-1.27.3-1.27.67v.66c0 .37.57.67 1.27.67h35.46c.7 0 1.27-.3 1.27-.67v-.66c0-.37-.57-.67-1.27-.67z"/>
  <rect width="80" height="3" x="266" y="180" fill="#495E6F" fill-opacity=".2" rx="1"/>
  <rect width="210" height="3" x="266" y="169" fill="#495E6F" fill-opacity=".2" rx="1"/>
  <rect width="210" height="3" x="266" y="158" fill="#495E6F" fill-opacity=".2" rx="1"/>
  <rect width="141" height="10" x="266" y="137" fill="#495E6F" fill-opacity=".4" rx="3"/>
  <rect width="133" height="10" x="266" y="116" fill="#495E6F" fill-opacity=".4" rx="3"/>
</svg>
