<svg width="200" height="200" xmlns="http://www.w3.org/2000/svg" fill="none" viewBox="0 0 200 200">
  <defs/>
  <path fill="#5233ff" d="M0 0h200v200H0z"/>
  <path fill="#8670ff" fill-rule="evenodd" d="M44.97 37.5h110.06v125.26H44.97V37.5zM57.47 50v100.26h85.06V50H57.47z" clip-rule="evenodd"/>
  <path fill="#fff" d="M81.68 77.5l-6.1-1.02v-4.84h11.64c1.77 0 4.07-.1 6.88-.31l2.42-.16c.94-.05 2.03-.08 3.28-.08 7.87 0 13.36 1.12 16.49 3.36 3.17 2.2 4.76 5.47 4.76 9.85 0 3.85-1.17 7.08-3.51 9.68a14.74 14.74 0 01-9.07 4.7c5.16-.06 9.2 1.11 12.11 3.5 2.97 2.4 4.46 5.74 4.46 10 0 5.42-1.9 9.77-5.7 13.05-3.8 3.29-10.16 4.93-19.07 4.93-2.34 0-4.5-.08-6.48-.24a37 37 0 01-2.66-.15 92.12 92.12 0 00-3.83-.08H75.5V125l6.18-.78V77.5zM93 96.95c.58.06 1.75.08 3.52.08h3.67c3.18 0 5.55-.99 7.11-2.97 1.56-1.98 2.35-4.76 2.35-8.36 0-3.43-.81-5.93-2.43-7.5-1.61-1.56-4.3-2.34-8.04-2.34-1 0-3.05.1-6.18.31v20.78zm0 27.58c1.2.47 3.5.7 6.88.7 4.43 0 7.63-1.04 9.6-3.12 1.99-2.08 2.98-5.1 2.98-9.06 0-3.8-.91-6.51-2.74-8.13-1.77-1.67-4.6-2.5-8.51-2.5-4.38 0-7.11.05-8.2.16v21.95z"/>
</svg>
