<svg width="40" height="36" viewBox="0 0 40 36" fill="none" xmlns="http://www.w3.org/2000/svg">
<path d="M17.7104 25.9933C24.8882 25.9933 30.707 20.1745 30.707 12.9966C30.707 5.81879 24.8882 0 17.7104 0C10.5325 0 4.71375 5.81879 4.71375 12.9966C4.71375 20.1745 10.5325 25.9933 17.7104 25.9933Z" fill="#8ECCFD"/>
<path d="M28.4175 25.4545V23.771L26.8687 22.2222L26.1279 22.8283C23.771 24.8485 20.8081 25.9933 17.7104 25.9933C15.8249 25.9933 14.0067 25.5892 12.2559 24.7811L14.0067 23.0303C15.2189 23.4343 16.431 23.7037 17.7104 23.7037C23.6364 23.7037 28.4175 18.9226 28.4175 12.9966C28.4175 7.07071 23.6364 2.28956 17.7104 2.28956C11.7845 2.28956 7.00337 7.07071 7.00337 12.9966V14.0067H12.3232L5.92593 20.202L0 14.0067H4.7138V12.9966C4.7138 5.92593 10.7071 0 17.7104 0C24.9158 0 30.7071 5.85858 30.7071 12.9966C30.7071 16.0943 29.5623 19.1246 27.5421 21.4815L26.936 22.1549L28.4848 23.7037H30.2357L40 33.468L38.2492 35.2189L28.4175 25.4545Z" fill="#0496FF"/>
</svg>
