<svg width="42" height="42" viewBox="0 0 42 42" fill="none" xmlns="http://www.w3.org/2000/svg">
<path d="M36.6248 39.1247H5.3751C3.62511 39.1247 2.25012 37.7497 2.25012 35.9997V14.7499C7.62508 11.1874 21 2.25 21 2.25C21 2.25 34.5624 11.3124 39.7498 14.7499V35.9997C39.7498 37.6872 38.3748 39.1247 36.6248 39.1247Z" fill="#8ECCFD"/>
<path fill-rule="evenodd" clip-rule="evenodd" d="M21.6946 1.21064L21.0001 2.24996L20.3056 1.21065C20.726 0.929742 21.2742 0.929738 21.6946 1.21064ZM21.0001 3.75325L19.5205 4.74156C18.1825 5.63517 16.3426 6.86377 14.3346 8.20372C10.585 10.7059 6.24785 13.5975 3.50022 15.4208V35.9997C3.50022 37.0593 4.31557 37.8747 5.37521 37.8747H36.625C37.6684 37.8747 38.4999 37.0131 38.4999 35.9997V15.4208C35.8271 13.6473 31.4991 10.7618 27.7359 8.2506C25.7162 6.90284 23.8586 5.66252 22.506 4.75915L21.0001 3.75325ZM29.1235 6.17111C33.1629 8.86662 37.8487 11.9905 40.4404 13.7079C40.7898 13.9394 40.9999 14.3307 40.9999 14.7499V35.9997C40.9999 38.3612 39.0815 40.3747 36.625 40.3747H5.37521C2.93487 40.3747 1.00024 38.44 1.00024 35.9997V14.7499C1.00024 14.3307 1.2103 13.9395 1.55966 13.7079C4.24524 11.928 8.93107 8.80408 12.9469 6.12424C14.9546 4.78452 16.7942 3.55611 18.132 2.66262L20.3056 1.21065C20.3057 1.21058 20.3056 1.21065 21.0001 2.24996C21.6946 1.21064 21.6945 1.21057 21.6946 1.21064L23.8945 2.68019C25.2469 3.58345 27.1042 4.82358 29.1235 6.17111Z" fill="#0496FF"/>
<path fill-rule="evenodd" clip-rule="evenodd" d="M22.1112 0.586984C22.1112 0.586996 22.1111 0.586973 22.1112 0.586984ZM22.1112 0.586984C21.4386 0.137689 20.5615 0.137649 19.889 0.586999C19.889 0.586979 19.889 0.587019 19.889 0.586999L17.7155 2.03893C16.3777 2.93238 14.5381 4.16074 12.5306 5.50038C8.5146 8.18034 3.82975 11.3036 1.14532 13.0828C0.586339 13.4533 0.250244 14.0792 0.250244 14.7499V35.9997C0.250244 38.8542 2.52066 41.1247 5.37521 41.1247H36.625C39.5063 41.1247 41.7499 38.7648 41.7499 35.9997V14.7499C41.7499 14.0792 41.4138 13.4531 40.8547 13.0827C38.2641 11.366 33.5794 8.2429 29.5398 5.54726C27.5206 4.19981 25.6635 2.95975 24.3111 2.05654C24.3111 2.05655 24.3111 2.05653 24.3111 2.05654L22.1112 0.586984ZM20.3765 2.66665L20.0986 2.25084L18.5486 3.28627C17.2108 4.17979 15.371 5.4083 13.3632 6.74809C9.34754 9.42783 4.66073 12.5524 1.97401 14.3331C1.83427 14.4257 1.75024 14.5822 1.75024 14.7499V35.9997C1.75024 38.0258 3.34909 39.6247 5.37521 39.6247H36.625C38.6567 39.6247 40.2499 37.9576 40.2499 35.9997V14.7499C40.2499 14.5822 40.1659 14.4257 40.0261 14.3331C37.4332 12.6149 32.7464 9.49034 28.7072 6.79496C26.6878 5.44736 24.8304 4.20717 23.478 3.30388L21.9015 2.25083L21.6237 2.66664C21.4845 2.87491 21.2506 2.99995 21.0001 2.99996C20.7496 2.99996 20.5157 2.87492 20.3765 2.66665ZM21.0001 4.65518L19.9371 5.36522C18.5991 6.25887 16.759 7.48756 14.7509 8.82757C11.1505 11.2302 7.00754 13.9924 4.25022 15.8231V35.9997C4.25022 36.6451 4.72979 37.1247 5.37521 37.1247H36.625C37.2464 37.1247 37.7499 36.6067 37.7499 35.9997V15.8232C35.0592 14.0368 30.9292 11.2832 27.3196 8.87445C25.2998 7.52662 23.4422 6.28625 22.0895 5.38284L21.0001 4.65518ZM20.5835 3.12959C20.8357 2.96114 21.1645 2.96113 21.4167 3.12958L22.9226 4.13546C22.9226 4.13546 22.9226 4.13545 22.9226 4.13546C24.2751 5.03879 26.1326 6.27907 28.1522 7.62675C31.9155 10.138 36.2427 13.023 38.9146 14.7959C39.124 14.9348 39.2499 15.1695 39.2499 15.4208V35.9997C39.2499 37.4195 38.0904 38.6247 36.625 38.6247H5.37521C3.90136 38.6247 2.75022 37.4735 2.75022 35.9997V15.4208C2.75022 15.1694 2.87612 14.9348 3.08553 14.7958C5.83225 12.9732 10.1686 10.0821 13.9183 7.57987C15.9262 6.23999 17.7661 5.01145 19.104 4.11788L20.5835 3.12959Z" fill="#0496FF"/>
<path fill-rule="evenodd" clip-rule="evenodd" d="M1.19411 14.0809C1.56348 13.4977 2.33571 13.3244 2.91893 13.6937L21 25.1451L39.081 13.6937C39.6642 13.3244 40.4365 13.4977 40.8058 14.0809C41.1752 14.6642 41.0019 15.4364 40.4186 15.8058L21.6688 27.6807C21.2604 27.9393 20.7395 27.9393 20.3312 27.6807L1.58131 15.8058C0.998093 15.4364 0.824735 14.6642 1.19411 14.0809Z" fill="#0496FF"/>
<path fill-rule="evenodd" clip-rule="evenodd" d="M38.6797 13.0601C39.6129 12.4691 40.8485 12.7465 41.4395 13.6797C42.0304 14.6128 41.7531 15.8484 40.8199 16.4394L22.0701 28.3143C21.4167 28.7281 20.5833 28.7281 19.9299 28.3143L1.18003 16.4394C0.246869 15.8484 -0.0305046 14.6128 0.560495 13.6797C1.15149 12.7465 2.38707 12.4691 3.32022 13.0601L21 24.2573L38.6797 13.0601ZM40.1722 14.4822C40.0245 14.249 39.7156 14.1796 39.4823 14.3274L21.4013 25.7787C21.1562 25.9339 20.8437 25.9339 20.5987 25.7787L2.51764 14.3274C2.28436 14.1796 1.97547 14.249 1.82772 14.4822C1.67998 14.7155 1.74932 15.0244 1.9826 15.1722L20.7325 27.0471C20.8958 27.1505 21.1041 27.1505 21.2675 27.0471L40.0173 15.1722C40.2506 15.0244 40.32 14.7155 40.1722 14.4822Z" fill="#0496FF"/>
</svg>
