<svg width="40" height="37" viewBox="0 0 40 37" fill="none" xmlns="http://www.w3.org/2000/svg">
<path d="M36.25 35.4375H3.75C2.375 35.4375 1.25 34.3125 1.25 32.9375V11.6875C1.25 10.3125 2.375 9.1875 3.75 9.1875H36.25C37.625 9.1875 38.75 10.3125 38.75 11.6875V33C38.75 34.3125 37.625 35.4375 36.25 35.4375Z" fill="#8ECCFD"/>
<path fill-rule="evenodd" clip-rule="evenodd" d="M3.75 10.4375C3.06536 10.4375 2.5 11.0029 2.5 11.6875V32.9375C2.5 33.6221 3.06536 34.1875 3.75 34.1875H36.25C36.9552 34.1875 37.5 33.6017 37.5 33V11.6875C37.5 11.0029 36.9346 10.4375 36.25 10.4375H3.75ZM0 11.6875C0 9.62214 1.68464 7.9375 3.75 7.9375H36.25C38.3154 7.9375 40 9.62214 40 11.6875V33C40 35.0233 38.2948 36.6875 36.25 36.6875H3.75C1.68464 36.6875 0 35.0029 0 32.9375V11.6875Z" fill="#0496FF"/>
<path d="M26.4375 9.1875H13.625V3.75C13.625 2.375 14.75 1.25 16.125 1.25H23.9375C25.3125 1.25 26.4375 2.375 26.4375 3.75V9.1875Z" fill="#8ECCFD"/>
<path fill-rule="evenodd" clip-rule="evenodd" d="M16.125 2.5C15.4404 2.5 14.875 3.06536 14.875 3.75V7.9375H25.1875V3.75C25.1875 3.06536 24.6221 2.5 23.9375 2.5H16.125ZM12.375 3.75C12.375 1.68464 14.0596 0 16.125 0H23.9375C26.0029 0 27.6875 1.68464 27.6875 3.75V10.4375H12.375V3.75Z" fill="#0496FF"/>
</svg>
