<svg width="30" height="40" viewBox="0 0 30 40" fill="none" xmlns="http://www.w3.org/2000/svg">
<path d="M26.8448 38.6643H2.53757C1.86979 38.6643 1.33557 38.1301 1.33557 37.4623V2.53745C1.33557 1.86967 1.86979 1.33545 2.53757 1.33545H26.8448C27.5125 1.33545 28.0468 1.86967 28.0468 2.53745V37.3956C28.1135 38.1301 27.5125 38.6643 26.8448 38.6643Z" fill="#8ECCFD"/>
<path fill-rule="evenodd" clip-rule="evenodd" d="M2.67112 2.67112V37.3289H26.7112V2.67112H2.67112ZM0 2.53756C0 1.13217 1.13217 0 2.53756 0H26.8447C28.2501 0 29.3823 1.13217 29.3823 2.53756V37.3449C29.4865 38.9393 28.1566 40 26.8447 40H2.53756C1.13217 40 0 38.8678 0 37.4624V2.53756Z" fill="#0496FF"/>
<path d="M7.14525 13.4893H22.6377C23.172 13.4893 23.5726 13.8899 23.5726 14.4241C23.5726 14.9584 23.172 15.359 22.6377 15.359H7.14525C6.61103 15.359 6.21036 14.9584 6.21036 14.4241C6.14358 13.9567 6.61103 13.4893 7.14525 13.4893Z" fill="#0496FF"/>
<path d="M7.14525 17.4292H22.6377C23.172 17.4292 23.5726 17.8299 23.5726 18.3641C23.5726 18.8983 23.172 19.299 22.6377 19.299H7.14525C6.61103 19.299 6.21036 18.8983 6.21036 18.3641C6.14358 17.8299 6.61103 17.4292 7.14525 17.4292Z" fill="#0496FF"/>
<path d="M7.14525 21.2354H22.6377C23.172 21.2354 23.5726 21.636 23.5726 22.1702C23.5726 22.7045 23.172 23.1051 22.6377 23.1051H7.14525C6.61103 23.1051 6.21036 22.7045 6.21036 22.1702C6.14358 21.7028 6.61103 21.2354 7.14525 21.2354Z" fill="#0496FF"/>
<path d="M7.14525 25.1084H22.6377C23.172 25.1084 23.5726 25.5091 23.5726 26.0433C23.5726 26.5775 23.172 26.9782 22.6377 26.9782H7.14525C6.61103 26.9782 6.21036 26.5775 6.21036 26.0433C6.14358 25.5758 6.61103 25.1084 7.14525 25.1084Z" fill="#0496FF"/>
</svg>
