<svg width="40" height="34" viewBox="0 0 40 34" fill="none" xmlns="http://www.w3.org/2000/svg">
<path d="M40 33.625H0V0H40V33.625ZM2.5 31.125H37.5V2.5H2.5V31.125Z" fill="#0496FF"/>
<path d="M2.5 2.5C14.1875 2.5 25.8125 2.5 37.5 2.5C37.5 12.0625 37.5 21.5625 37.5 31.125C25.8125 31.125 14.1875 31.125 2.5 31.125C2.5 21.625 2.5 12.125 2.5 2.5Z" fill="#8ECCFD"/>
<path d="M16.125 21.375L11.4375 16.6875L16.125 12L14.6875 10.5625L8.625 16.625L14.6875 22.6875L16.125 21.375ZM23.875 21.375L28.5625 16.6875L23.875 12L25.3125 10.5625L31.375 16.625L25.3125 22.6875L23.875 21.375Z" fill="#0496FF"/>
<path d="M16.875 23.6875L20.9375 9.75H23.125L19.0625 23.6875H16.875Z" fill="#0496FF"/>
</svg>
