<svg width="40" height="40" viewBox="0 0 40 40" fill="none" xmlns="http://www.w3.org/2000/svg">
<path d="M35.6248 38.1247H4.3751C2.62511 38.1247 1.25012 36.7497 1.25012 34.9997V13.7499C6.62508 10.1874 20 1.25 20 1.25C20 1.25 33.5624 10.3124 38.7498 13.7499V34.9997C38.7498 36.6872 37.3748 38.1247 35.6248 38.1247Z" fill="#8ECCFD"/>
<path fill-rule="evenodd" clip-rule="evenodd" d="M20.6946 0.210673L20.0001 1.24999L19.3056 0.210683C19.726 -0.070224 20.2742 -0.070228 20.6946 0.210673ZM20.0001 2.75328L18.5205 3.7416C17.1825 4.63521 15.3426 5.86381 13.3346 7.20376C9.585 9.70592 5.24785 12.5975 2.50022 14.4208V34.9997C2.50022 36.0594 3.31557 36.8747 4.37521 36.8747H35.625C36.6684 36.8747 37.4999 36.0132 37.4999 34.9997V14.4208C34.8271 12.6474 30.4991 9.76187 26.7359 7.25063C24.7162 5.90287 22.8586 4.66256 21.506 3.75918L20.0001 2.75328ZM28.1235 5.17114C32.1629 7.86665 36.8487 10.9905 39.4404 12.7079C39.7898 12.9395 39.9999 13.3307 39.9999 13.7499V34.9997C39.9999 37.3612 38.0815 39.3747 35.625 39.3747H4.37521C1.93487 39.3747 0.000244141 37.4401 0.000244141 34.9997V13.7499C0.000244141 13.3308 0.210303 12.9395 0.559663 12.708C3.24524 10.928 7.93107 7.80412 11.9469 5.12427C13.9546 3.78455 15.7942 2.55614 17.132 1.66266L19.3056 0.210683C19.3057 0.210616 19.3056 0.210683 20.0001 1.24999C20.6946 0.210673 20.6945 0.210604 20.6946 0.210673L22.8945 1.68023C24.2469 2.58348 26.1042 3.82361 28.1235 5.17114Z" fill="#0496FF"/>
<path fill-rule="evenodd" clip-rule="evenodd" d="M0.194135 13.0809C0.563508 12.4976 1.33574 12.3243 1.91896 12.6936L20 24.145L38.081 12.6936C38.6643 12.3243 39.4365 12.4976 39.8059 13.0809C40.1752 13.6641 40.0019 14.4363 39.4187 14.8057L20.6688 26.6806C20.2604 26.9392 19.7396 26.9392 19.3312 26.6806L0.581341 14.8057C-0.00188073 14.4363 -0.175239 13.6641 0.194135 13.0809Z" fill="#0496FF"/>
</svg>
