<svg width="40" height="40" viewBox="0 0 40 40" fill="none" xmlns="http://www.w3.org/2000/svg">
<path d="M30.7119 38.644H4.06782C2.5763 38.644 1.35596 37.4236 1.35596 35.9321V9.28804C1.35596 7.79651 2.5763 6.57617 4.06782 6.57617H30.7119C32.2034 6.57617 33.4238 7.79651 33.4238 9.28804V35.9321C33.4238 37.4236 32.2034 38.644 30.7119 38.644Z" fill="#8ECCFD"/>
<path fill-rule="evenodd" clip-rule="evenodd" d="M4.0678 7.93257C3.32513 7.93257 2.71186 8.54583 2.71186 9.2885V35.9326C2.71186 36.6752 3.32513 37.2885 4.0678 37.2885H30.7119C31.4545 37.2885 32.0678 36.6752 32.0678 35.9326V9.2885C32.0678 8.54583 31.4545 7.93257 30.7119 7.93257H4.0678ZM0 9.2885C0 7.04811 1.82741 5.2207 4.0678 5.2207H30.7119C32.9522 5.2207 34.7797 7.04811 34.7797 9.2885V35.9326C34.7797 38.173 32.9522 40.0004 30.7119 40.0004H4.0678C1.82741 40.0004 0 38.173 0 35.9326V9.2885Z" fill="#0496FF"/>
<path d="M33.4237 11.7966C36.3068 11.7966 38.644 9.45941 38.644 6.5763C38.644 3.69318 36.3068 1.35596 33.4237 1.35596C30.5406 1.35596 28.2034 3.69318 28.2034 6.5763C28.2034 9.45941 30.5406 11.7966 33.4237 11.7966Z" fill="#8ECCFD"/>
<path fill-rule="evenodd" clip-rule="evenodd" d="M33.4237 2.71186C31.2894 2.71186 29.5593 4.44202 29.5593 6.57627C29.5593 8.71052 31.2894 10.4407 33.4237 10.4407C35.5579 10.4407 37.2881 8.71052 37.2881 6.57627C37.2881 4.44202 35.5579 2.71186 33.4237 2.71186ZM26.8474 6.57627C26.8474 2.9443 29.7917 0 33.4237 0C37.0557 0 40 2.9443 40 6.57627C40 10.2082 37.0557 13.1525 33.4237 13.1525C29.7917 13.1525 26.8474 10.2082 26.8474 6.57627Z" fill="#0496FF"/>
</svg>
