<svg width="90" height="80" viewBox="0 0 90 80" fill="none" xmlns="http://www.w3.org/2000/svg">
<path opacity="0.4" d="M66.6931 0H0V23.6817H66.6931L44.6283 46.3998H66.6931C72.7931 46.2754 78.6011 43.7765 82.8709 39.4393C87.1408 35.102 89.5323 29.2719 89.5323 23.1999C89.5323 17.1279 87.1408 11.2978 82.8709 6.96054C78.6011 2.62326 72.7931 0.124353 66.6931 0V0Z" fill="#31343C"/>
<path opacity="0.4" d="M23.5221 56.3187L45.3717 33.6104H23.3069C17.1255 33.6104 11.1973 36.0541 6.82643 40.404C2.45554 44.7539 0 50.6537 0 56.8054C0 62.9571 2.45554 68.8568 6.82643 73.2068C11.1973 77.5567 17.1255 80.0004 23.3069 80.0004H89.9804V56.3187H23.5221Z" fill="#31343C"/>
</svg>
