<svg width="220" height="66" viewBox="0 0 220 66" fill="none" xmlns="http://www.w3.org/2000/svg">
<path d="M0 31.0937H5.49371L0.0930415 64.8361H14.1456L19.5434 31.0955H26.6091L28.7463 19.8828L21.2554 19.9629C21.9784 15.7128 22.4959 13.1855 27.6493 11.5516C29.5934 10.9358 31.0714 10.1278 32.6929 10.6617L35.0339 0.872923C32.1524 -0.0312088 28.7463 -0.136216 25.7584 0.123633C12.5682 1.26804 9.00614 8.7556 7.20562 19.9683H1.71191L0 31.0937Z" fill="#506677"/>
<path d="M60.1613 19.9681H74.2092L68.175 58.0555C68.0104 59.1641 67.9204 60.2826 67.9057 61.4033C67.8876 62.4646 67.9779 63.5249 68.175 64.5678H55.1177C55.1177 64.5678 54.7633 63.4839 54.7633 61.4033C54.7633 60.6789 54.7633 59.7748 54.8537 58.7799H54.7633C50.9815 63.1208 45.3974 65.5644 39.6343 65.5644C28.7532 64.6318 24.0853 56.8933 24.0853 46.3107C24.0853 32.5636 31.6188 19.5 46.9285 19.5C51.6124 19.5 57.0157 20.7921 59.4471 25.133C59.6208 23.4066 59.8902 21.6945 60.1613 19.9681ZM48.2346 30.6468C40.85 30.6468 36.3469 37.7019 36.3469 44.5754C36.3469 49.7368 39.3189 53.5313 44.6318 53.5313C52.0164 53.5313 56.5195 46.4762 56.5195 39.6009C56.5195 34.4413 53.5476 30.6415 48.2346 30.6415V30.6468Z" fill="#506677"/>
<path d="M108.602 35.0732C106.351 32.0885 102.298 30.7323 98.6953 30.7323C91.3107 30.7323 86.1768 37.3353 86.1768 44.4812C86.1768 50.1765 89.87 53.526 95.4541 53.526C99.3262 53.526 104.008 51.8975 107.071 49.4557L108.332 60.4903C104.008 64.0179 96.6237 65.5556 91.3196 65.5556C80.061 65.5556 71.9569 58.0467 71.9569 46.6507C71.9569 31.4549 83.3945 19.1548 98.7946 19.1548C103.207 19.1548 107.687 19.5695 110.929 23.0062L108.602 35.0732Z" fill="#506677"/>
<path d="M133.47 19.968H143.017L141.126 31.0935H131.67C130.679 37.1537 128.877 43.8474 128.877 49.9966C128.877 52.62 130.139 53.4351 132.57 53.4351C134.049 53.4361 135.515 53.1597 136.893 52.62L135.812 64.1067C132.48 64.9219 129.148 65.5555 125.636 65.5555C118.521 65.5555 114.294 62.2985 114.294 54.8768C114.294 47.0066 116.454 38.6807 117.626 31.0881H111.6L113.401 19.9627H119.435L120.335 14.3564C120.478 13.1559 120.537 11.9468 120.512 10.7381C120.523 9.79994 120.464 8.86233 120.335 7.93311H134.295C134.295 7.93311 134.566 8.92801 134.566 10.9178C134.559 12.2821 134.44 13.6434 134.211 14.9882L133.47 19.968Z" fill="#506677"/>
<path d="M158.429 65.5556C146.901 65.5556 137.986 58.9526 137.986 46.7415C137.986 31.0028 149.783 19.1548 165.724 19.1548C177.342 19.1548 186.167 25.8486 186.167 38.0579C186.173 53.7966 174.46 65.5556 158.429 65.5556ZM163.923 30.7323C156.537 30.7323 152.305 37.9671 152.305 44.6609C152.305 49.7262 155.007 53.526 160.32 53.526C167.705 53.526 171.939 46.2894 171.939 39.5956C171.939 34.5304 169.236 30.7323 163.923 30.7323Z" fill="#506677"/>
<path d="M217.202 33.3557H216.477C215.036 32.5406 213.236 32.27 211.614 32.27C204.77 32.27 202.067 39.0528 201.258 44.7517L198.105 64.5589H184.055L189.999 26.5712C190.17 25.3122 190.26 24.0436 190.27 22.7731C190.281 21.835 190.222 20.8974 190.093 19.9681H204.052C204.052 19.9681 204.323 20.9631 204.323 22.9529C204.33 24.0786 204.211 25.2015 203.969 26.3006C206.581 22.1395 210.634 19.1548 215.766 19.1548C217.028 19.1548 218.919 19.3328 220 19.9681L217.202 33.3557Z" fill="#506677"/>
</svg>
