<svg width="45" height="30" fill="none" xmlns="http://www.w3.org/2000/svg"><path d="M1.797 2.746C0 2.746 0 2.041 0 1.36S0 0 1.854 0h27.72c8.552.058 15.123 6.678 15.095 15.061-.029 6.476-4.247 12.258-10.446 14.223a14.51 14.51 0 0 1-16.386-5.463c-.66-.954-1.349-1.33-2.468-1.244-.191.014-.3.023-.353.03-.29.033 1.1-.025.058 0h-.058c-1.045-.001-2.151-.026-2.123-1.417.029-1.301 1.09-1.359 2.124-1.33 1.779.029.094.087 1.873-.029 1.263-.058 1.98.405 2.64 1.474 4.39 7.14 14.263 7.893 19.572 1.475 3.185-3.874 3.816-8.297 1.75-12.835-2.037-4.51-5.682-6.88-10.618-7.14H12.873L1.797 2.745z" fill="#0495FE"/><path d="M15.525 6.621h1.021c1.004 0 1.951.174 1.98 1.359.058 1.3-.947 1.474-1.98 1.474H7.519c-1.005 0-1.952-.173-1.98-1.359-.029-1.272.947-1.474 1.98-1.474 2.64.029 5.337 0 8.006 0zM31.153 10.263c-.746 3.151.517 5.464 2.956 7.343.86.636 1.234 1.59.373 2.486-.89.925-1.636.318-2.468-.318-2.927-2.226-4.39-5.001-3.73-8.788.229-1.3.028-2.688.028-4.047 0-1.04.517-1.706 1.55-1.677 1.004.03 1.32.752 1.291 1.706-.029 1.07 0 2.197 0 3.295zM13.959 13.27c1.377 0-.652-.029.725 0 .918 0 1.607.434 1.578 1.446 0 .954-.66 1.358-1.52 1.358-2.87.03-.587.03-3.456 0-.919 0-1.636-.433-1.607-1.445.028-1.012.746-1.359 1.693-1.359h2.587z" fill="#0495FE"/></svg>