<svg width="1026" height="585" viewBox="0 0 1026 585" fill="none" xmlns="http://www.w3.org/2000/svg">
<path d="M1013.79 0H12.2143C5.46852 0 0 3.87446 0 8.65385V576.346C0 581.126 5.46852 585 12.2143 585H1013.79C1020.53 585 1026 581.126 1026 576.346V8.65385C1026 3.87446 1020.53 0 1013.79 0Z" fill="white"/>
<rect x="30" y="124" width="19.1533" height="18.15" rx="1" fill="#CBD5E1"/>
<rect x="30" y="214.75" width="19.1533" height="18.15" rx="1" fill="#CBD5E1"/>
<rect x="30" y="259.3" width="19.1533" height="18.15" rx="1" fill="#CBD5E1"/>
<rect x="30" y="170.2" width="19.1533" height="16.5" rx="1" fill="#CAD3DE"/>
<rect x="919" y="25" width="74" height="36" rx="9.25373" fill="#0D0E11"/>
<path d="M941.607 48V37.5H943.587L948.02 44.6925V37.5H949.85V48H947.877L943.437 40.8075V48H941.607ZM954.839 48.195C954.149 48.195 953.519 48.0175 952.949 47.6625C952.384 47.3075 951.931 46.83 951.591 46.23C951.256 45.63 951.089 44.9675 951.089 44.2425C951.089 43.6975 951.186 43.1875 951.381 42.7125C951.576 42.2325 951.844 41.8125 952.184 41.4525C952.529 41.0875 952.929 40.8025 953.384 40.5975C953.839 40.3925 954.324 40.29 954.839 40.29C955.424 40.29 955.959 40.415 956.444 40.665C956.934 40.91 957.349 41.2475 957.689 41.6775C958.029 42.1075 958.276 42.5975 958.431 43.1475C958.586 43.6975 958.621 44.2725 958.536 44.8725H953.054C953.124 45.1525 953.239 45.405 953.399 45.63C953.559 45.85 953.761 46.0275 954.006 46.1625C954.251 46.2925 954.529 46.36 954.839 46.365C955.159 46.37 955.449 46.295 955.709 46.14C955.974 45.98 956.194 45.765 956.369 45.495L958.236 45.93C957.931 46.595 957.476 47.14 956.871 47.565C956.266 47.985 955.589 48.195 954.839 48.195ZM952.994 43.5H956.684C956.629 43.2 956.511 42.93 956.331 42.69C956.156 42.445 955.939 42.25 955.679 42.105C955.419 41.96 955.139 41.8875 954.839 41.8875C954.539 41.8875 954.261 41.96 954.006 42.105C953.751 42.245 953.534 42.4375 953.354 42.6825C953.179 42.9225 953.059 43.195 952.994 43.5ZM963.275 48H961.46L958.955 40.5H960.747L962.375 45.3525L963.995 40.5H965.802L967.422 45.3525L969.05 40.5H970.842L968.337 48H966.522L964.895 43.125L963.275 48Z" fill="white"/>
<rect x="639" y="77" width="354" height="472" rx="5" stroke="#E2E8F0" stroke-width="2"/>
<path d="M763.083 93H697.917C696.858 93 696 94.3431 696 96V105C696 106.657 696.858 108 697.917 108H763.083C764.142 108 765 106.657 765 105V96C765 94.3431 764.142 93 763.083 93Z" fill="#E6ECF2"/>
<path d="M955.583 123H703.417C699.321 123 696 124.343 696 126V135C696 136.657 699.321 138 703.417 138H955.583C959.679 138 963 136.657 963 135V126C963 124.343 959.679 123 955.583 123Z" fill="#E6ECF2" fill-opacity="0.4"/>
<g clip-path="url(#clip0_124_540)">
<rect x="652" y="91" width="32" height="32" rx="16" fill="url(#paint0_linear_124_540)"/>
<path d="M665.151 113.28C666.075 111.744 668.196 108.8 673.246 104.663C680.866 98.4201 673.674 92.7102 665.948 95.7513C665.121 96.0766 662.831 94.7741 660.709 96.1463C659.341 97.0315 659.873 97.7252 659.34 98.4189C658.808 99.1126 656.753 99.0718 656.303 100.873C656.036 101.94 656.774 103.058 656.675 103.861C656.577 104.665 655.798 105.389 655.761 106.449C655.745 106.897 655.817 107.343 655.974 107.763C656.13 108.183 656.368 108.568 656.673 108.896C656.979 109.224 657.346 109.489 657.753 109.675C658.161 109.861 658.601 109.965 659.049 109.981C659.053 110.867 659.399 111.716 660.014 112.353C660.63 112.989 661.467 113.363 662.352 113.396C662.919 113.417 663.483 113.295 663.991 113.042C664.495 113.506 664.927 113.652 665.151 113.28Z" fill="url(#paint1_linear_124_540)"/>
<path d="M665.333 111.693C665.333 110.733 665.3 105.998 665.302 105.918C662.666 106.307 662.72 101.293 665.386 102.52C665.973 102.893 667.626 102.52 667.466 99.4268C670.346 102.52 673.69 98.9122 673.977 101.852C674.368 105.867 673.974 110.068 671.48 110.068C671.207 110.065 670.935 110.038 670.666 109.987V111.693C670.666 112.76 672.586 113.293 672.586 113.293C672.586 113.293 669.27 116.419 667.893 116.401C666.516 116.384 663.413 113.293 663.413 113.293C663.413 113.293 665.333 112.76 665.333 111.693Z" fill="url(#paint2_linear_124_540)"/>
<path style="mix-blend-mode:multiply" opacity="0.7" d="M670.666 109.986C669.343 109.693 668.089 109.146 666.974 108.376C666.974 108.376 667.894 110.626 670.663 111.053L670.666 109.986Z" fill="url(#paint3_linear_124_540)"/>
<path d="M677.814 116.493C678.588 118.213 678.987 123.427 678.987 123.427H657.014C657.014 123.427 657.413 118.213 658.187 116.493C658.865 114.987 663.332 113.257 664.642 112.76C665.398 113.606 666.481 114.147 668 114.147C669.52 114.147 670.603 113.606 671.359 112.76C672.668 113.257 677.136 114.987 677.814 116.493Z" fill="url(#paint4_linear_124_540)"/>
<path d="M657.981 116.528C658.562 115.424 660.472 114.266 662.239 113.485C663.12 113.096 665.76 124.28 665.76 124.28H656.916C656.916 124.28 656.809 118.757 657.981 116.528Z" fill="url(#paint5_linear_124_540)"/>
</g>
<path d="M763.083 164H697.917C696.858 164 696 165.343 696 167V176C696 177.657 696.858 179 697.917 179H763.083C764.142 179 765 177.657 765 176V167C765 165.343 764.142 164 763.083 164Z" fill="#E6ECF2"/>
<path d="M127.083 261H61.9167C60.8581 261 60 262.343 60 264V273C60 274.657 60.8581 276 61.9167 276H127.083C128.142 276 129 274.657 129 273V264C129 262.343 128.142 261 127.083 261Z" fill="#E6ECF2"/>
<path d="M127.083 216H61.9167C60.8581 216 60 217.343 60 219V228C60 229.657 60.8581 231 61.9167 231H127.083C128.142 231 129 229.657 129 228V219C129 217.343 128.142 216 127.083 216Z" fill="#E6ECF2"/>
<path d="M127.083 171H61.9167C60.8581 171 60 172.343 60 174V183C60 184.657 60.8581 186 61.9167 186H127.083C128.142 186 129 184.657 129 183V174C129 172.343 128.142 171 127.083 171Z" fill="#CAD3DE"/>
<path d="M127.083 126H61.9167C60.8581 126 60 127.343 60 129V138C60 139.657 60.8581 141 61.9167 141H127.083C128.142 141 129 139.657 129 138V129C129 127.343 128.142 126 127.083 126Z" fill="#E6ECF2"/>
<path d="M955.583 194H703.417C699.321 194 696 195.343 696 197V206C696 207.657 699.321 209 703.417 209H955.583C959.679 209 963 207.657 963 206V197C963 195.343 959.679 194 955.583 194Z" fill="#E6ECF2" fill-opacity="0.4"/>
<path d="M763.083 236H697.917C696.858 236 696 237.343 696 239V248C696 249.657 696.858 251 697.917 251H763.083C764.142 251 765 249.657 765 248V239C765 237.343 764.142 236 763.083 236Z" fill="#E6ECF2"/>
<g clip-path="url(#clip1_124_540)">
<rect x="652" y="235" width="32" height="32" rx="16" fill="url(#paint6_linear_124_540)"/>
<path d="M664.587 255.137C664.574 256.133 663.756 256.887 662.133 257.377C664.089 258.799 666.045 259.937 668 259.937C669.956 259.937 671.911 258.799 673.867 257.377C672.255 256.886 671.437 256.154 671.413 255.18C671.413 255.006 671.425 251.191 671.432 249.526C672.961 247.545 672.399 245.222 671.92 245.28C671.333 245.351 666.245 240.523 665.269 240.275C664.293 240.027 661.813 240.827 661.387 243.053C660.96 245.28 660.782 250.893 662.4 253.133C662.861 253.771 663.597 254.019 664.587 253.88C664.588 254.346 664.587 255.137 664.587 255.137Z" fill="url(#paint7_linear_124_540)"/>
<path d="M664.587 253.88C666.934 253.613 668.427 252.6 668.427 252.6C668.427 252.6 667.147 254.733 664.587 255.16V253.88Z" fill="#DB6F3D"/>
<path d="M672.213 249.56C672.948 247.792 675.893 244.193 673.355 241.953C672.501 237.793 667.787 238.253 664.64 239.213C662.525 239.858 660.928 241.133 660.587 240.173C658.453 241.953 659.522 243.693 660.928 244.193C662.204 244.646 664.363 245.099 668.033 244.673C668.688 244.596 668.551 246.604 668.901 246.821C669.427 247.147 669.835 245.099 671.276 245.714C672.716 246.329 671.861 249.18 670.315 249.18C669.781 249.18 669.515 250.646 670.955 251.34C672 251.853 671.736 250.708 672.213 249.56Z" fill="white"/>
<path d="M679.2 260.633C680.216 262.698 680.8 267.46 680.8 267.46H655.2C655.2 267.46 655.785 262.697 656.8 260.633C657.815 258.569 663.744 256.654 663.744 256.654C664.887 259 671.158 259 672.253 256.653C672.253 256.653 678.185 258.568 679.2 260.633Z" fill="url(#paint8_linear_124_540)"/>
<mask id="mask0_124_540" style="mask-type:alpha" maskUnits="userSpaceOnUse" x="655" y="256" width="26" height="12">
<path d="M679.2 260.633C680.216 262.698 680.8 267.46 680.8 267.46H655.2C655.2 267.46 655.785 262.697 656.8 260.633C657.815 258.569 663.744 256.654 663.744 256.654C664.887 259 671.158 259 672.253 256.653C672.253 256.653 678.185 258.568 679.2 260.633Z" fill="url(#paint9_linear_124_540)"/>
</mask>
<g mask="url(#mask0_124_540)">
<path d="M654.134 265.293V264.44H681.867V265.293H654.134ZM654.134 263.16V262.307H681.867V263.16H654.134ZM654.134 261.027V260.173H681.867V261.027H654.134Z" fill="#6E5C5A"/>
</g>
</g>
<path d="M955.583 266H703.417C699.321 266 696 267.343 696 269V278C696 279.657 699.321 281 703.417 281H955.583C959.679 281 963 279.657 963 278V269C963 267.343 959.679 266 955.583 266Z" fill="#E6ECF2" fill-opacity="0.4"/>
<rect x="652" y="307" width="32" height="32" rx="16" fill="url(#paint10_linear_124_540)"/>
<path d="M677.814 332.067C678.596 333.56 678.987 339 678.987 339H657.014C657.014 339 657.405 333.56 658.187 332.067C659.36 329.827 668 326.947 668 326.947C668 326.947 676.64 329.827 677.814 332.067Z" fill="url(#paint11_linear_124_540)"/>
<path d="M677.117 325.711L659.788 323.616C658.934 319.081 659.947 316.224 662.828 315.044C664.16 310.68 669.344 311.035 670.813 311.391C675.813 312.601 677.914 317.375 677.117 325.711Z" fill="url(#paint12_linear_124_540)"/>
<path d="M665.441 328.227V321.827C662.772 321.787 663.292 317.162 665.974 318.573C666.454 318.787 667.681 318.2 667.254 316.76C670.134 318.893 674.147 315.149 674.401 317.453C674.899 321.988 673.935 325.715 671.376 325.715C671.103 325.725 670.83 325.709 670.561 325.667V328.227C669.726 328.724 668.89 328.973 668.055 328.973C667.22 328.973 666.349 328.724 665.441 328.227Z" fill="url(#paint13_linear_124_540)"/>
<path d="M670.56 325.667V326.52C668.96 326.52 667.716 325.756 666.827 324.227C667.894 324.938 669.138 325.418 670.56 325.667Z" fill="#DB6F3D"/>
<path d="M667.997 328.864C668.727 328.829 670.561 328.452 670.561 327.636V326.947C670.756 326.947 671.316 327.409 671.604 327.8C672.743 329.347 671.48 330.733 670.45 330.733C669.15 330.733 668.289 329.647 668.001 329.125C667.713 329.648 666.851 330.733 665.551 330.733C664.521 330.733 663.258 329.347 664.397 327.8C664.685 327.409 665.245 326.947 665.441 326.947V327.636C665.441 328.452 667.226 328.829 667.997 328.864Z" fill="white"/>
<path d="M763.083 311H697.917C696.858 311 696 312.343 696 314V323C696 324.657 696.858 326 697.917 326H763.083C764.142 326 765 324.657 765 323V314C765 312.343 764.142 311 763.083 311Z" fill="#E6ECF2"/>
<path d="M955.583 341H703.417C699.321 341 696 342.343 696 344V353C696 354.657 699.321 356 703.417 356H955.583C959.679 356 963 354.657 963 353V344C963 342.343 959.679 341 955.583 341Z" fill="#E6ECF2" fill-opacity="0.4"/>
<g clip-path="url(#clip2_124_540)">
<rect x="652" y="381" width="32" height="32" rx="16" fill="url(#paint14_linear_124_540)"/>
<path d="M671.413 399.773V402.12C671.413 402.352 668 403.056 668 403.056C668 403.056 664.587 402.451 664.587 402.12C664.587 401.493 664.599 398.344 664.587 395.42C663.058 393.439 663.058 392.2 664.267 390.92C665.475 389.64 674.08 389 674.08 389C674.08 389 674.725 395.209 674.827 396.893C674.867 397.571 675.307 399.773 673.6 399.773H671.413Z" fill="url(#paint15_linear_124_540)"/>
<path d="M671.413 399.573V400.857C669.127 400.45 667.812 399.591 667.467 398.28C668.462 398.956 669.742 399.382 671.307 399.56C671.342 399.564 671.378 399.568 671.413 399.573Z" fill="#DE6530"/>
<path d="M679.2 406.953C679.877 408.33 680.411 410.605 680.8 413.78H655.2C655.59 410.605 656.123 408.329 656.8 406.953C657.475 405.581 663.734 402.941 663.734 402.941L672.267 402.941C672.267 402.941 678.527 405.584 679.2 406.953Z" fill="url(#paint16_linear_124_540)"/>
<path d="M668.746 403.613L669.28 413.427H666.72L667.253 403.613C667.253 403.613 667.751 403.08 668 403.08C668.249 403.08 668.746 403.613 668.746 403.613Z" fill="url(#paint17_linear_124_540)"/>
<path d="M668.854 405.599L667.197 404.642L667.253 403.613C667.585 403.258 667.834 403.08 668 403.08C668.166 403.08 668.415 403.258 668.746 403.613L668.854 405.599Z" fill="#D24B24"/>
<path d="M668 403.079L666.934 405L663.627 402.973L664.587 401.587L668 402.848L671.414 401.587L672.374 402.973L669.067 405L668 403.079Z" fill="white"/>
<path d="M665.976 392.222C665.637 391.931 665.225 391.735 664.642 392.037C663.261 392.754 664.177 395.521 665.723 395.467C666.256 395.449 666.012 396.511 664.587 397.213C664.587 396.093 662.88 393.32 662.731 390.795C661.014 390.156 661.44 387.597 662.619 387.597C662.431 385.251 666.187 384.04 667.641 385.386C669.12 383.613 672.854 384.52 673.079 386.058C675.646 384.687 677.334 388.626 674.93 390.156C673.941 390.785 671.627 391.024 668.287 391.024C666.684 391.024 667.606 394.776 668.107 395.987C668.747 397.533 672.32 397.747 673.44 397.587C674.315 397.462 674.774 397.107 674.827 396.893C675.627 399.027 674.614 400.307 673.014 400.307C670.294 400.307 667.574 399.507 667.147 397.533C666.807 395.963 666.826 393.428 665.976 392.222Z" fill="url(#paint18_linear_124_540)"/>
</g>
<path d="M763.083 386H697.917C696.858 386 696 387.343 696 389V398C696 399.657 696.858 401 697.917 401H763.083C764.142 401 765 399.657 765 398V389C765 387.343 764.142 386 763.083 386Z" fill="#E6ECF2"/>
<path d="M955.583 416H703.417C699.321 416 696 417.343 696 419V428C696 429.657 699.321 431 703.417 431H955.583C959.679 431 963 429.657 963 428V419C963 417.343 959.679 416 955.583 416Z" fill="#E6ECF2" fill-opacity="0.4"/>
<g clip-path="url(#clip3_124_540)">
<rect x="652" y="459" width="32" height="32" rx="16" fill="url(#paint19_linear_124_540)"/>
<path d="M677.814 484.92C678.596 486.413 678.987 491.853 678.987 491.853H657.014C657.014 491.853 657.405 486.413 658.187 484.92C659.36 482.68 668 479.8 668 479.8C668 479.8 676.64 482.68 677.814 484.92Z" fill="url(#paint20_linear_124_540)"/>
<mask id="mask1_124_540" style="mask-type:alpha" maskUnits="userSpaceOnUse" x="657" y="479" width="22" height="13">
<path d="M677.814 484.92C678.596 486.413 678.987 491.853 678.987 491.853H657.014C657.014 491.853 657.405 486.413 658.187 484.92C659.36 482.68 668 479.8 668 479.8C668 479.8 676.64 482.68 677.814 484.92Z" fill="url(#paint21_linear_124_540)"/>
</mask>
<g mask="url(#mask1_124_540)">
<path d="M678.027 490.893C678.027 490.767 678.064 490.643 678.135 490.538C678.205 490.432 678.305 490.35 678.422 490.302C678.539 490.254 678.667 490.241 678.792 490.266C678.916 490.29 679.03 490.351 679.119 490.441C679.209 490.53 679.27 490.644 679.294 490.768C679.319 490.893 679.306 491.021 679.258 491.138C679.21 491.255 679.128 491.355 679.022 491.425C678.917 491.496 678.793 491.533 678.667 491.533C678.497 491.533 678.334 491.466 678.214 491.346C678.094 491.226 678.027 491.063 678.027 490.893V490.893ZM673.76 490.893C673.76 490.767 673.798 490.643 673.868 490.538C673.938 490.432 674.038 490.35 674.155 490.302C674.272 490.254 674.401 490.241 674.525 490.266C674.649 490.29 674.763 490.351 674.853 490.441C674.942 490.53 675.003 490.644 675.028 490.768C675.052 490.893 675.04 491.021 674.991 491.138C674.943 491.255 674.861 491.355 674.756 491.425C674.65 491.496 674.527 491.533 674.4 491.533C674.23 491.533 674.068 491.466 673.947 491.346C673.827 491.226 673.76 491.063 673.76 490.893ZM669.493 490.893C669.493 490.767 669.531 490.643 669.601 490.538C669.672 490.432 669.771 490.35 669.888 490.302C670.005 490.254 670.134 490.241 670.258 490.266C670.382 490.29 670.496 490.351 670.586 490.441C670.675 490.53 670.736 490.644 670.761 490.768C670.786 490.893 670.773 491.021 670.725 491.138C670.676 491.255 670.594 491.355 670.489 491.425C670.384 491.496 670.26 491.533 670.133 491.533C669.964 491.533 669.801 491.466 669.681 491.346C669.561 491.226 669.493 491.063 669.493 490.893ZM665.227 490.893C665.227 490.767 665.264 490.643 665.335 490.538C665.405 490.432 665.505 490.35 665.622 490.302C665.739 490.254 665.867 490.241 665.992 490.266C666.116 490.29 666.23 490.351 666.319 490.441C666.409 490.53 666.47 490.644 666.494 490.768C666.519 490.893 666.506 491.021 666.458 491.138C666.41 491.255 666.328 491.355 666.222 491.425C666.117 491.496 665.993 491.533 665.867 491.533C665.697 491.533 665.534 491.466 665.414 491.346C665.294 491.226 665.227 491.063 665.227 490.893ZM660.96 490.893C660.96 490.767 660.998 490.643 661.068 490.538C661.138 490.432 661.238 490.35 661.355 490.302C661.472 490.254 661.601 490.241 661.725 490.266C661.849 490.29 661.963 490.351 662.053 490.441C662.142 490.53 662.203 490.644 662.228 490.768C662.252 490.893 662.24 491.021 662.191 491.138C662.143 491.255 662.061 491.355 661.956 491.425C661.85 491.496 661.727 491.533 661.6 491.533C661.43 491.533 661.268 491.466 661.147 491.346C661.027 491.226 660.96 491.063 660.96 490.893ZM656.693 490.893C656.693 490.767 656.731 490.643 656.801 490.538C656.872 490.432 656.971 490.35 657.088 490.302C657.205 490.254 657.334 490.241 657.458 490.266C657.582 490.29 657.696 490.351 657.786 490.441C657.875 490.53 657.936 490.644 657.961 490.768C657.986 490.893 657.973 491.021 657.925 491.138C657.876 491.255 657.794 491.355 657.689 491.425C657.584 491.496 657.46 491.533 657.333 491.533C657.164 491.533 657.001 491.466 656.881 491.346C656.761 491.226 656.693 491.063 656.693 490.893V490.893ZM675.893 488.76C675.893 488.633 675.931 488.51 676.001 488.404C676.072 488.299 676.171 488.217 676.288 488.169C676.405 488.12 676.534 488.108 676.658 488.132C676.782 488.157 676.896 488.218 676.986 488.307C677.075 488.397 677.136 488.511 677.161 488.635C677.186 488.759 677.173 488.888 677.125 489.005C677.076 489.122 676.994 489.222 676.889 489.292C676.784 489.362 676.66 489.4 676.533 489.4C676.364 489.4 676.201 489.333 676.081 489.213C675.961 489.092 675.893 488.93 675.893 488.76ZM671.627 488.76C671.627 488.633 671.664 488.51 671.735 488.404C671.805 488.299 671.905 488.217 672.022 488.169C672.139 488.12 672.267 488.108 672.392 488.132C672.516 488.157 672.63 488.218 672.719 488.307C672.809 488.397 672.87 488.511 672.894 488.635C672.919 488.759 672.906 488.888 672.858 489.005C672.81 489.122 672.728 489.222 672.622 489.292C672.517 489.362 672.393 489.4 672.267 489.4C672.097 489.4 671.934 489.333 671.814 489.213C671.694 489.092 671.627 488.93 671.627 488.76ZM667.36 488.76C667.36 488.633 667.398 488.51 667.468 488.404C667.538 488.299 667.638 488.217 667.755 488.169C667.872 488.12 668.001 488.108 668.125 488.132C668.249 488.157 668.363 488.218 668.453 488.307C668.542 488.397 668.603 488.511 668.628 488.635C668.652 488.759 668.64 488.888 668.591 489.005C668.543 489.122 668.461 489.222 668.356 489.292C668.25 489.362 668.127 489.4 668 489.4C667.83 489.4 667.668 489.333 667.547 489.213C667.427 489.092 667.36 488.93 667.36 488.76V488.76ZM663.093 488.76C663.093 488.633 663.131 488.51 663.201 488.404C663.272 488.299 663.371 488.217 663.488 488.169C663.605 488.12 663.734 488.108 663.858 488.132C663.982 488.157 664.096 488.218 664.186 488.307C664.275 488.397 664.336 488.511 664.361 488.635C664.386 488.759 664.373 488.888 664.325 489.005C664.276 489.122 664.194 489.222 664.089 489.292C663.984 489.362 663.86 489.4 663.733 489.4C663.564 489.4 663.401 489.333 663.281 489.213C663.161 489.092 663.093 488.93 663.093 488.76ZM658.827 488.76C658.827 488.633 658.864 488.51 658.935 488.404C659.005 488.299 659.105 488.217 659.222 488.169C659.339 488.12 659.467 488.108 659.592 488.132C659.716 488.157 659.83 488.218 659.919 488.307C660.009 488.397 660.07 488.511 660.094 488.635C660.119 488.759 660.106 488.888 660.058 489.005C660.01 489.122 659.928 489.222 659.822 489.292C659.717 489.362 659.593 489.4 659.467 489.4C659.297 489.4 659.134 489.333 659.014 489.213C658.894 489.092 658.827 488.93 658.827 488.76ZM678.027 486.627C678.027 486.5 678.064 486.376 678.135 486.271C678.205 486.166 678.305 486.084 678.422 486.035C678.539 485.987 678.667 485.974 678.792 485.999C678.916 486.024 679.03 486.085 679.119 486.174C679.209 486.264 679.27 486.378 679.294 486.502C679.319 486.626 679.306 486.755 679.258 486.872C679.21 486.989 679.128 487.088 679.022 487.159C678.917 487.229 678.793 487.267 678.667 487.267C678.497 487.267 678.334 487.199 678.214 487.079C678.094 486.959 678.027 486.796 678.027 486.627V486.627ZM673.76 486.627C673.76 486.5 673.798 486.376 673.868 486.271C673.938 486.166 674.038 486.084 674.155 486.035C674.272 485.987 674.401 485.974 674.525 485.999C674.649 486.024 674.763 486.085 674.853 486.174C674.942 486.264 675.003 486.378 675.028 486.502C675.052 486.626 675.04 486.755 674.991 486.872C674.943 486.989 674.861 487.088 674.756 487.159C674.65 487.229 674.527 487.267 674.4 487.267C674.23 487.267 674.068 487.199 673.947 487.079C673.827 486.959 673.76 486.796 673.76 486.627ZM669.493 486.627C669.493 486.5 669.531 486.376 669.601 486.271C669.672 486.166 669.771 486.084 669.888 486.035C670.005 485.987 670.134 485.974 670.258 485.999C670.382 486.024 670.496 486.085 670.586 486.174C670.675 486.264 670.736 486.378 670.761 486.502C670.786 486.626 670.773 486.755 670.725 486.872C670.676 486.989 670.594 487.088 670.489 487.159C670.384 487.229 670.26 487.267 670.133 487.267C669.964 487.267 669.801 487.199 669.681 487.079C669.561 486.959 669.493 486.796 669.493 486.627ZM665.227 486.627C665.227 486.5 665.264 486.376 665.335 486.271C665.405 486.166 665.505 486.084 665.622 486.035C665.739 485.987 665.867 485.974 665.992 485.999C666.116 486.024 666.23 486.085 666.319 486.174C666.409 486.264 666.47 486.378 666.494 486.502C666.519 486.626 666.506 486.755 666.458 486.872C666.41 486.989 666.328 487.088 666.222 487.159C666.117 487.229 665.993 487.267 665.867 487.267C665.697 487.267 665.534 487.199 665.414 487.079C665.294 486.959 665.227 486.796 665.227 486.627ZM660.96 486.627C660.96 486.5 660.998 486.376 661.068 486.271C661.138 486.166 661.238 486.084 661.355 486.035C661.472 485.987 661.601 485.974 661.725 485.999C661.849 486.024 661.963 486.085 662.053 486.174C662.142 486.264 662.203 486.378 662.228 486.502C662.252 486.626 662.24 486.755 662.191 486.872C662.143 486.989 662.061 487.088 661.956 487.159C661.85 487.229 661.727 487.267 661.6 487.267C661.43 487.267 661.268 487.199 661.147 487.079C661.027 486.959 660.96 486.796 660.96 486.627ZM656.693 486.627C656.693 486.5 656.731 486.376 656.801 486.271C656.872 486.166 656.971 486.084 657.088 486.035C657.205 485.987 657.334 485.974 657.458 485.999C657.582 486.024 657.696 486.085 657.786 486.174C657.875 486.264 657.936 486.378 657.961 486.502C657.986 486.626 657.973 486.755 657.925 486.872C657.876 486.989 657.794 487.088 657.689 487.159C657.584 487.229 657.46 487.267 657.333 487.267C657.164 487.267 657.001 487.199 656.881 487.079C656.761 486.959 656.693 486.796 656.693 486.627V486.627ZM675.893 484.493C675.893 484.367 675.931 484.243 676.001 484.138C676.072 484.032 676.171 483.95 676.288 483.902C676.405 483.854 676.534 483.841 676.658 483.866C676.782 483.89 676.896 483.951 676.986 484.041C677.075 484.13 677.136 484.244 677.161 484.368C677.186 484.493 677.173 484.621 677.125 484.738C677.076 484.855 676.994 484.955 676.889 485.025C676.784 485.096 676.66 485.133 676.533 485.133C676.364 485.133 676.201 485.066 676.081 484.946C675.961 484.826 675.893 484.663 675.893 484.493ZM671.627 484.493C671.627 484.367 671.664 484.243 671.735 484.138C671.805 484.032 671.905 483.95 672.022 483.902C672.139 483.854 672.267 483.841 672.392 483.866C672.516 483.89 672.63 483.951 672.719 484.041C672.809 484.13 672.87 484.244 672.894 484.368C672.919 484.493 672.906 484.621 672.858 484.738C672.81 484.855 672.728 484.955 672.622 485.025C672.517 485.096 672.393 485.133 672.267 485.133C672.097 485.133 671.934 485.066 671.814 484.946C671.694 484.826 671.627 484.663 671.627 484.493ZM667.36 484.493C667.36 484.367 667.398 484.243 667.468 484.138C667.538 484.032 667.638 483.95 667.755 483.902C667.872 483.854 668.001 483.841 668.125 483.866C668.249 483.89 668.363 483.951 668.453 484.041C668.542 484.13 668.603 484.244 668.628 484.368C668.652 484.493 668.64 484.621 668.591 484.738C668.543 484.855 668.461 484.955 668.356 485.025C668.25 485.096 668.127 485.133 668 485.133C667.83 485.133 667.668 485.066 667.547 484.946C667.427 484.826 667.36 484.663 667.36 484.493V484.493ZM663.093 484.493C663.093 484.367 663.131 484.243 663.201 484.138C663.272 484.032 663.371 483.95 663.488 483.902C663.605 483.854 663.734 483.841 663.858 483.866C663.982 483.89 664.096 483.951 664.186 484.041C664.275 484.13 664.336 484.244 664.361 484.368C664.386 484.493 664.373 484.621 664.325 484.738C664.276 484.855 664.194 484.955 664.089 485.025C663.984 485.096 663.86 485.133 663.733 485.133C663.564 485.133 663.401 485.066 663.281 484.946C663.161 484.826 663.093 484.663 663.093 484.493ZM658.827 484.493C658.827 484.367 658.864 484.243 658.935 484.138C659.005 484.032 659.105 483.95 659.222 483.902C659.339 483.854 659.467 483.841 659.592 483.866C659.716 483.89 659.83 483.951 659.919 484.041C660.009 484.13 660.07 484.244 660.094 484.368C660.119 484.493 660.106 484.621 660.058 484.738C660.01 484.855 659.928 484.955 659.822 485.025C659.717 485.096 659.593 485.133 659.467 485.133C659.297 485.133 659.134 485.066 659.014 484.946C658.894 484.826 658.827 484.663 658.827 484.493ZM678.027 482.36C678.027 482.233 678.064 482.11 678.135 482.004C678.205 481.899 678.305 481.817 678.422 481.769C678.539 481.72 678.667 481.708 678.792 481.732C678.916 481.757 679.03 481.818 679.119 481.907C679.209 481.997 679.27 482.111 679.294 482.235C679.319 482.359 679.306 482.488 679.258 482.605C679.21 482.722 679.128 482.822 679.022 482.892C678.917 482.962 678.793 483 678.667 483C678.497 483 678.334 482.933 678.214 482.813C678.094 482.692 678.027 482.53 678.027 482.36V482.36ZM673.76 482.36C673.76 482.233 673.798 482.11 673.868 482.004C673.938 481.899 674.038 481.817 674.155 481.769C674.272 481.72 674.401 481.708 674.525 481.732C674.649 481.757 674.763 481.818 674.853 481.907C674.942 481.997 675.003 482.111 675.028 482.235C675.052 482.359 675.04 482.488 674.991 482.605C674.943 482.722 674.861 482.822 674.756 482.892C674.65 482.962 674.527 483 674.4 483C674.23 483 674.068 482.933 673.947 482.813C673.827 482.692 673.76 482.53 673.76 482.36V482.36ZM660.96 482.36C660.96 482.233 660.998 482.11 661.068 482.004C661.138 481.899 661.238 481.817 661.355 481.769C661.472 481.72 661.601 481.708 661.725 481.732C661.849 481.757 661.963 481.818 662.053 481.907C662.142 481.997 662.203 482.111 662.228 482.235C662.252 482.359 662.24 482.488 662.191 482.605C662.143 482.722 662.061 482.822 661.956 482.892C661.85 482.962 661.727 483 661.6 483C661.43 483 661.268 482.933 661.147 482.813C661.027 482.692 660.96 482.53 660.96 482.36V482.36ZM656.693 482.36C656.693 482.233 656.731 482.11 656.801 482.004C656.872 481.899 656.971 481.817 657.088 481.769C657.205 481.72 657.334 481.708 657.458 481.732C657.582 481.757 657.696 481.818 657.786 481.907C657.875 481.997 657.936 482.111 657.961 482.235C657.986 482.359 657.973 482.488 657.925 482.605C657.876 482.722 657.794 482.822 657.689 482.892C657.584 482.962 657.46 483 657.333 483C657.164 483 657.001 482.933 656.881 482.813C656.761 482.692 656.693 482.53 656.693 482.36V482.36Z" fill="white"/>
</g>
<path d="M669.159 464.621C668.732 462.755 670.755 461.322 672.839 462.306C677.746 464.621 674.827 467.853 673.013 467.64C671.2 467.427 669.586 466.488 669.159 464.621Z" fill="url(#paint22_linear_124_540)"/>
<path opacity="0.6" d="M670.934 464.92C670.934 464.92 674.56 467.267 675.467 465.987C675.56 466.521 675.13 468.031 674.454 468.013C672.429 467.961 670.934 464.92 670.934 464.92Z" fill="black"/>
<path d="M670.347 476.387C668.055 477.487 667.721 477.428 662.667 473.293C655.04 467.053 662.24 461.347 669.973 464.387C678.347 468.067 675.541 473.891 670.347 476.387Z" fill="url(#paint23_linear_124_540)"/>
<path d="M670.56 480.76C669.778 482.04 666.222 482.04 665.44 480.76V478.627C665.44 478.627 665.092 478.637 664.854 478.627C662.358 478.52 661.525 474.506 661.916 470.492C662.203 467.552 664.694 471.587 668.747 468.76C668.587 471.853 669.92 471.533 670.507 471.16C673.174 469.933 673.196 474.962 670.56 474.573V480.76Z" fill="url(#paint24_linear_124_540)"/>
<path d="M665.441 478.626C666.88 478.519 669.027 477.015 669.027 477.015C669.027 477.015 668 479.212 665.441 479.586L665.441 478.626Z" fill="#DB6F3D"/>
<path d="M670.561 480.489V479.8C670.756 479.8 671.316 480.262 671.604 480.653C672.743 482.2 671.48 483.587 670.45 483.587C669.15 483.587 668.289 482.501 668.001 481.978C667.713 482.501 666.851 483.587 665.551 483.587C664.521 483.587 663.258 482.2 664.397 480.653C664.685 480.262 665.245 479.8 665.441 479.8V480.489C665.441 481.305 667.226 481.683 667.997 481.717C668.727 481.683 670.561 481.305 670.561 480.489Z" fill="white"/>
</g>
<path d="M763.083 461H697.917C696.858 461 696 462.343 696 464V473C696 474.657 696.858 476 697.917 476H763.083C764.142 476 765 474.657 765 473V464C765 462.343 764.142 461 763.083 461Z" fill="#E6ECF2"/>
<path d="M955.583 491H703.417C699.321 491 696 492.343 696 494V503C696 504.657 699.321 506 703.417 506H955.583C959.679 506 963 504.657 963 503V494C963 492.343 959.679 491 955.583 491Z" fill="#E6ECF2" fill-opacity="0.4"/>
<g clip-path="url(#clip4_124_540)">
<rect x="652" y="163" width="32" height="32" rx="16" fill="url(#paint25_linear_124_540)"/>
<path d="M671.307 181.56V182.84C671.307 184.547 673.76 185.293 673.76 185.293C673.76 185.293 670.934 187.427 668 187.427C665.067 187.427 662.24 185.293 662.24 185.293C662.24 185.293 664.713 184.547 664.694 182.84C664.674 181.133 664.687 180.131 664.674 177.207C663.146 175.225 663.244 173.895 664.08 172.96C666.88 169.827 674.507 170.893 674.507 170.893C674.507 170.893 675.219 178.573 673.6 180.813C672.907 181.773 671.307 181.56 671.307 181.56Z" fill="url(#paint26_linear_124_540)"/>
<path style="mix-blend-mode:multiply" opacity="0.6" d="M671.307 181.56C668.96 181.293 667.573 180.28 667.573 180.28C668.449 181.575 669.783 182.49 671.307 182.84V181.56Z" fill="url(#paint27_linear_124_540)"/>
<path d="M679.2 188.526C680.216 190.591 680.8 195.353 680.8 195.353H655.2C655.2 195.353 655.785 190.59 656.8 188.526C657.815 186.462 663.744 184.547 663.744 184.547C664.887 186.893 671.158 186.893 672.253 184.547C672.253 184.547 678.185 186.461 679.2 188.526Z" fill="url(#paint28_linear_124_540)"/>
<path d="M667.573 192.653C667.573 192.569 667.598 192.486 667.645 192.416C667.692 192.346 667.759 192.291 667.837 192.259C667.915 192.227 668 192.218 668.083 192.235C668.166 192.251 668.242 192.292 668.302 192.352C668.361 192.411 668.402 192.487 668.418 192.57C668.435 192.653 668.426 192.739 668.394 192.817C668.362 192.895 668.307 192.961 668.237 193.008C668.167 193.055 668.084 193.08 668 193.08C667.887 193.08 667.778 193.035 667.698 192.955C667.618 192.875 667.573 192.766 667.573 192.653ZM667.573 190.52C667.573 190.436 667.598 190.353 667.645 190.283C667.692 190.213 667.759 190.158 667.837 190.126C667.915 190.093 668 190.085 668.083 190.101C668.166 190.118 668.242 190.159 668.302 190.218C668.361 190.278 668.402 190.354 668.418 190.437C668.435 190.519 668.426 190.605 668.394 190.683C668.362 190.761 668.307 190.828 668.237 190.875C668.167 190.922 668.084 190.947 668 190.947C667.887 190.947 667.778 190.902 667.698 190.822C667.618 190.742 667.573 190.633 667.573 190.52ZM667.573 188.387C667.573 188.302 667.598 188.22 667.645 188.15C667.692 188.079 667.759 188.025 667.837 187.992C667.915 187.96 668 187.952 668.083 187.968C668.166 187.985 668.242 188.025 668.302 188.085C668.361 188.145 668.402 188.221 668.418 188.303C668.435 188.386 668.426 188.472 668.394 188.55C668.362 188.628 668.307 188.695 668.237 188.741C668.167 188.788 668.084 188.813 668 188.813C667.887 188.813 667.778 188.768 667.698 188.688C667.618 188.608 667.573 188.5 667.573 188.387V188.387Z" fill="white"/>
<path d="M665.991 174.009C665.651 173.718 665.239 173.521 664.657 173.824C663.275 174.541 664.321 177.293 665.547 177.293C665.867 177.293 666.026 178.298 664.602 179C664.602 177.88 662.895 175.107 662.746 172.582C661.028 171.942 661.455 169.384 662.634 169.384C662.446 167.038 666.202 165.827 667.656 167.173C669.135 165.4 672.868 166.307 673.094 167.845C675.661 166.474 677.348 170.413 674.945 171.942C673.956 172.572 671.642 172.811 668.302 172.811C667.797 172.811 667.515 172.937 667.656 173.56C667.929 174.768 667.295 175.529 665.991 174.009Z" fill="url(#paint29_linear_124_540)"/>
</g>
<path d="M360.806 40H252.194C250.43 40 249 41.9069 249 44.2593V57.037C249 59.3894 250.43 61.2963 252.194 61.2963H360.806C362.57 61.2963 364 59.3894 364 57.037V44.2593C364 41.9069 362.57 40 360.806 40Z" fill="#CAD3DE"/>
<path d="M190.75 40H80.25C78.4551 40 77 41.8804 77 44.2V56.8C77 59.1196 78.4551 61 80.25 61H190.75C192.545 61 194 59.1196 194 56.8V44.2C194 41.8804 192.545 40 190.75 40Z" fill="#F2F5F9"/>
<rect x="250" y="77" width="357" height="470" rx="5" stroke="#E2E8F0" stroke-width="2"/>
<rect x="1" y="-1" width="313" height="44" rx="5" transform="matrix(1 0 0 -1 269 478)" fill="#E6ECF2" fill-opacity="0.1" stroke="#E2E8F0" stroke-width="2"/>
<rect x="510" y="492" width="74" height="36" rx="9.25373" fill="#181818"/>
<rect x="275" y="216" width="224" height="33" rx="9.25373" fill="#CAD3DE"/>
<path d="M415.278 225H288.722C286.666 225 285 226.343 285 228V237C285 238.657 286.666 240 288.722 240H415.278C417.334 240 419 238.657 419 237V228C419 226.343 417.334 225 415.278 225Z" fill="#AFB8C6"/>
<path d="M563.278 280H436.722C434.666 280 433 281.343 433 283V292C433 293.657 434.666 295 436.722 295H563.278C565.334 295 567 293.657 567 292V283C567 281.343 565.334 280 563.278 280Z" fill="#E6ECF2" fill-opacity="0.4"/>
<rect x="358" y="264" width="224" height="63" rx="9.25373" fill="#F2F5F9"/>
<rect x="269" y="351" width="224" height="63" rx="9.25373" fill="#CAD3DE"/>
<path d="M533.248 516.195C532.668 516.195 532.111 516.105 531.576 515.925C531.046 515.74 530.581 515.477 530.181 515.137C529.781 514.792 529.493 514.38 529.318 513.9L531.036 513.27C531.106 513.47 531.248 513.652 531.463 513.817C531.678 513.982 531.941 514.115 532.251 514.215C532.561 514.315 532.893 514.365 533.248 514.365C533.613 514.365 533.953 514.31 534.268 514.2C534.588 514.085 534.846 513.927 535.041 513.727C535.236 513.522 535.333 513.285 535.333 513.015C535.333 512.74 535.231 512.515 535.026 512.34C534.821 512.16 534.558 512.017 534.238 511.912C533.918 511.807 533.588 511.727 533.248 511.672C532.503 511.557 531.836 511.38 531.246 511.14C530.656 510.9 530.188 510.567 529.843 510.142C529.503 509.717 529.333 509.167 529.333 508.492C529.333 507.857 529.516 507.302 529.881 506.827C530.246 506.352 530.726 505.982 531.321 505.717C531.916 505.452 532.558 505.32 533.248 505.32C533.823 505.32 534.378 505.41 534.913 505.59C535.448 505.77 535.916 506.032 536.316 506.377C536.721 506.722 537.011 507.137 537.186 507.622L535.461 508.245C535.391 508.045 535.248 507.863 535.033 507.698C534.818 507.532 534.556 507.402 534.246 507.307C533.936 507.207 533.603 507.157 533.248 507.157C532.893 507.152 532.556 507.21 532.236 507.33C531.921 507.445 531.663 507.602 531.463 507.802C531.263 508.002 531.163 508.232 531.163 508.492C531.163 508.827 531.256 509.08 531.441 509.25C531.631 509.42 531.883 509.545 532.198 509.625C532.513 509.7 532.863 509.77 533.248 509.835C533.948 509.945 534.596 510.13 535.191 510.39C535.786 510.65 536.263 510.997 536.623 511.432C536.983 511.862 537.163 512.39 537.163 513.015C537.163 513.65 536.983 514.207 536.623 514.687C536.263 515.162 535.786 515.532 535.191 515.797C534.596 516.063 533.948 516.195 533.248 516.195ZM541.894 516.195C541.204 516.195 540.574 516.017 540.004 515.662C539.439 515.307 538.987 514.83 538.647 514.23C538.312 513.63 538.144 512.967 538.144 512.242C538.144 511.697 538.242 511.187 538.437 510.712C538.632 510.232 538.899 509.812 539.239 509.452C539.584 509.087 539.984 508.802 540.439 508.597C540.894 508.392 541.379 508.29 541.894 508.29C542.479 508.29 543.014 508.415 543.499 508.665C543.989 508.91 544.404 509.247 544.744 509.677C545.084 510.107 545.332 510.597 545.487 511.147C545.642 511.697 545.677 512.272 545.592 512.872H540.109C540.179 513.152 540.294 513.405 540.454 513.63C540.614 513.85 540.817 514.027 541.062 514.162C541.307 514.292 541.584 514.36 541.894 514.365C542.214 514.37 542.504 514.295 542.764 514.14C543.029 513.98 543.249 513.765 543.424 513.495L545.292 513.93C544.987 514.595 544.532 515.14 543.927 515.565C543.322 515.985 542.644 516.195 541.894 516.195ZM540.049 511.5H543.739C543.684 511.2 543.567 510.93 543.387 510.69C543.212 510.445 542.994 510.25 542.734 510.105C542.474 509.96 542.194 509.887 541.894 509.887C541.594 509.887 541.317 509.96 541.062 510.105C540.807 510.245 540.589 510.437 540.409 510.682C540.234 510.922 540.114 511.195 540.049 511.5ZM553.682 511.26V516H551.852V511.74C551.852 511.445 551.78 511.177 551.635 510.937C551.49 510.692 551.295 510.5 551.05 510.36C550.81 510.215 550.542 510.142 550.247 510.142C549.952 510.142 549.682 510.215 549.437 510.36C549.197 510.5 549.005 510.692 548.86 510.937C548.72 511.177 548.65 511.445 548.65 511.74V516H546.82L546.812 508.5H548.642L548.65 509.167C548.905 508.897 549.21 508.685 549.565 508.53C549.92 508.37 550.302 508.29 550.712 508.29C551.257 508.29 551.755 508.425 552.205 508.695C552.655 508.96 553.012 509.317 553.277 509.767C553.547 510.212 553.682 510.71 553.682 511.26ZM560.7 504.75H562.53V516H560.7V515.062C560.46 515.397 560.157 515.67 559.792 515.88C559.427 516.09 559.005 516.195 558.525 516.195C557.98 516.195 557.47 516.093 556.995 515.887C556.52 515.682 556.1 515.4 555.735 515.04C555.375 514.675 555.092 514.255 554.887 513.78C554.682 513.305 554.58 512.795 554.58 512.25C554.58 511.705 554.682 511.195 554.887 510.72C555.092 510.245 555.375 509.827 555.735 509.467C556.1 509.102 556.52 508.817 556.995 508.612C557.47 508.407 557.98 508.305 558.525 508.305C559.005 508.305 559.427 508.41 559.792 508.62C560.157 508.825 560.46 509.097 560.7 509.437V504.75ZM558.547 514.432C558.937 514.432 559.282 514.335 559.582 514.14C559.882 513.945 560.117 513.682 560.287 513.352C560.457 513.017 560.542 512.65 560.542 512.25C560.542 511.845 560.457 511.477 560.287 511.147C560.117 510.812 559.88 510.547 559.575 510.352C559.275 510.157 558.932 510.06 558.547 510.06C558.162 510.06 557.81 510.16 557.49 510.36C557.175 510.555 556.922 510.817 556.732 511.147C556.547 511.477 556.455 511.845 556.455 512.25C556.455 512.655 556.55 513.022 556.74 513.352C556.93 513.682 557.182 513.945 557.497 514.14C557.817 514.335 558.167 514.432 558.547 514.432Z" fill="white"/>
<path d="M563.278 301H436.722C434.666 301 433 302.343 433 304V313C433 314.657 434.666 316 436.722 316H563.278C565.334 316 567 314.657 567 313V304C567 302.343 565.334 301 563.278 301Z" fill="#CAD3DE"/>
<path d="M561.194 279H397.806C395.152 279 393 280.343 393 282V291C393 292.657 395.152 294 397.806 294H561.194C563.848 294 566 292.657 566 291V282C566 280.343 563.848 279 561.194 279Z" fill="#CAD3DE"/>
<path d="M464.806 366H288.194C285.326 366 283 367.343 283 369V378C283 379.657 285.326 381 288.194 381H464.806C467.674 381 470 379.657 470 378V369C470 367.343 467.674 366 464.806 366Z" fill="#AFB8C6"/>
<path d="M394.806 388H286.194C284.43 388 283 389.343 283 391V400C283 401.657 284.43 403 286.194 403H394.806C396.57 403 398 401.657 398 400V391C398 389.343 396.57 388 394.806 388Z" fill="#AFB8C6"/>
<path d="M467.209 116H366.949C365.32 116 364 117.32 364 118.949V127.795C364 129.424 365.32 130.744 366.949 130.744H467.209C468.837 130.744 470.157 129.424 470.157 127.795V118.949C470.157 117.32 468.837 116 467.209 116Z" fill="#E6ECF2"/>
<path d="M550.667 147H369.333C366.388 147 364 148.343 364 150V159C364 160.657 366.388 162 369.333 162H550.667C553.612 162 556 160.657 556 159V150C556 148.343 553.612 147 550.667 147Z" fill="#E6ECF2" fill-opacity="0.4"/>
<line x1="249" y1="194.5" x2="608" y2="194.5" stroke="#CEDDE9"/>
<path d="M153.166 514.747V521.578H155.388V517.03H163.473V521.578H165.693V514.759L153.166 514.747ZM155.14 512.538H163.682C164.869 512.305 165.751 511.273 166 510.274H152.823C153.069 511.273 153.964 512.305 155.14 512.538ZM146.438 521.582C147.558 521.114 148.161 520.304 148.391 519.357H138.428L138.434 510.28L136.2 510.286V521.582H146.438ZM119.591 512.507H127.48C128.669 512.167 129.668 511.273 129.911 510.283H117.379V516.958H127.636V519.301L119.591 519.307C118.33 519.654 117.261 520.489 116.727 521.591L117.379 521.58H129.84V514.739H119.591V512.507ZM100.115 512.529H108.655C109.843 512.295 110.726 511.264 110.973 510.264H97.7966C98.0426 511.264 98.9385 512.295 100.115 512.529ZM100.115 516.993H108.655C109.843 516.762 110.726 515.73 110.973 514.73H97.7966C98.0426 515.73 98.9385 516.762 100.115 516.993ZM100.115 521.581H108.655C109.843 521.348 110.726 520.316 110.973 519.317H97.7966C98.0426 520.316 98.9385 521.348 100.115 521.581ZM77.8994 510.292C78.1561 511.279 79.023 512.288 80.2123 512.541H83.8069L83.9903 512.612V521.556H86.2349V512.612L86.4388 512.541H90.0365C91.2391 512.235 92.0873 511.279 92.3396 510.292V510.27H77.8994V510.292Z" fill="black"/>
<path d="M44.2025 35.6224C44.2025 35.6224 51.7883 38.2251 48.0521 45.4743C48.0299 45.5186 48.0422 45.7944 48.0422 45.8954C48.0472 46.4888 48.0176 47.0724 47.9856 47.656C49.6195 44.4524 52.2196 43.7901 54.0927 43.7901C55.4137 43.7901 56.3724 44.12 56.3724 44.12C56.3724 44.12 56.1703 50.8792 49.8216 50.8792C49.1636 50.8792 48.4415 50.8078 47.6455 50.6477C47.3719 52.3369 46.9603 53.935 46.4132 55.4198C48.4095 53.216 50.4575 52.5438 52.2172 52.5438C54.9602 52.5438 56.9934 54.1812 56.9934 54.1812C56.9934 54.1812 54.9996 59.1429 50.3934 59.1429C49.0009 59.1429 47.3719 58.6898 45.4865 57.5103C42.9924 62.5434 38.889 65.7789 34.1423 65.7863H34.1374C33.7135 65.7863 33.3783 65.4539 33.3783 65.0378C33.3783 64.6216 33.7135 64.2818 34.1398 64.2818C38.0905 64.2769 41.5531 61.6594 43.8057 57.5177C42.9579 57.8477 41.8587 58.1481 40.6708 58.1481C38.3172 58.1481 35.6185 56.9637 33.8589 52.465C35.6333 51.7361 37.1539 51.4406 38.4527 51.4406C42.0633 51.4406 43.961 53.7183 44.8408 55.2721C45.4323 53.77 45.8808 52.1276 46.1618 50.3769C45.4446 50.4902 44.7841 50.5394 44.1729 50.5394C37.4694 50.5394 36.9568 44.3392 36.9568 44.3392C36.9568 44.3392 38.3418 43.7827 40.0793 43.7827C42.3344 43.7827 45.1809 44.7233 46.3417 49.0497C46.4551 48.0253 46.5315 46.9739 46.5266 45.8978C46.5266 45.856 46.5142 45.7575 46.497 45.7452C40.0424 41.2144 44.2 35.6249 44.2 35.6249M43.3867 33.0025L42.4206 34.3026C42.189 34.6128 40.1828 37.4396 40.7719 41.0839C40.799 41.2563 40.8335 41.4287 40.8705 41.5986C40.6117 41.5789 40.348 41.569 40.0793 41.569C37.9746 41.569 36.3111 42.2142 36.1287 42.2856L34.6105 42.8962L34.7461 44.5238C34.7633 44.7381 34.9531 46.6636 36.1681 48.6114C36.3209 48.8576 36.4934 49.1088 36.6881 49.3599C35.515 49.5397 34.2852 49.8893 33.016 50.4114L31 51.2387L31.7936 53.2677C32.7572 55.7325 34.0856 57.5891 35.7418 58.7858C36.7079 59.4827 37.7651 59.9505 38.9038 60.1845C37.4521 61.4009 35.8182 62.0608 34.1349 62.0632C32.496 62.0632 31.1577 63.3954 31.1577 65.0353C31.1577 66.6753 32.4935 68 34.1349 68C36.9124 67.9951 39.6234 67.0643 41.982 65.3062C43.6381 64.0725 45.1267 62.4228 46.3614 60.4701C47.7391 61.0586 49.0872 61.3566 50.3909 61.3566C56.429 61.3566 58.9453 55.2647 59.0488 55.0037L59.66 53.4819L58.3834 52.4527C58.2158 52.3172 57.2004 51.5317 55.6379 50.9531C56.365 50.2784 56.9786 49.4535 57.4617 48.4883C58.4943 46.4223 58.5806 44.4081 58.588 44.1865L58.6373 42.5564L57.092 42.0246C56.9589 41.9778 55.7365 41.5739 54.0902 41.5739C53.1044 41.5739 52.1728 41.7143 51.3028 41.9852C51.3398 40.8869 51.1549 39.8306 50.7483 38.821C49.2548 35.1053 45.3584 33.6771 44.9197 33.5269L43.3867 33V33.0025Z" fill="#5C7287"/>
<rect x="30" y="500" width="32.5031" height="32.5031" rx="16.2516" fill="#01050E"/>
<path d="M40.6453 513.381C39.2303 513.08 38.199 511.88 37.8936 510.705V510.679H55.0738V510.705C54.7736 511.88 53.7645 513.018 52.3337 513.381H48.0533L47.8107 513.466V524.107H45.1401V513.466L44.922 513.381H40.6453Z" fill="white"/>
<rect x="269" y="112" width="58" height="58" rx="29" fill="#01050E"/>
<path d="M287.996 135.878C285.471 135.341 283.631 133.199 283.086 131.103V131.057H313.743V131.103C313.207 133.199 311.407 135.23 308.853 135.878H301.215L300.782 136.03V155.018H296.017V136.03L295.628 135.878H287.996Z" fill="white"/>
<defs>
<linearGradient id="paint0_linear_124_540" x1="668" y1="91" x2="668" y2="123" gradientUnits="userSpaceOnUse">
<stop stop-color="#806A6A"/>
<stop offset="1" stop-color="#665654"/>
</linearGradient>
<linearGradient id="paint1_linear_124_540" x1="666.412" y1="94.7698" x2="665.755" y2="113.524" gradientUnits="userSpaceOnUse">
<stop stop-color="#1D0024"/>
<stop offset="1" stop-color="#100014"/>
</linearGradient>
<linearGradient id="paint2_linear_124_540" x1="668.731" y1="99.4268" x2="668.731" y2="116.402" gradientUnits="userSpaceOnUse">
<stop stop-color="#E6864E"/>
<stop offset="1" stop-color="#EB965E"/>
</linearGradient>
<linearGradient id="paint3_linear_124_540" x1="667.671" y1="108.879" x2="668.224" y2="111.368" gradientUnits="userSpaceOnUse">
<stop stop-color="#E68349"/>
<stop offset="1" stop-color="#F09960"/>
</linearGradient>
<linearGradient id="paint4_linear_124_540" x1="668" y1="123.427" x2="668" y2="112.76" gradientUnits="userSpaceOnUse">
<stop stop-color="#FFC9B3"/>
<stop offset="1" stop-color="#FFD2C2"/>
</linearGradient>
<linearGradient id="paint5_linear_124_540" x1="661.337" y1="124.28" x2="661.337" y2="113.475" gradientUnits="userSpaceOnUse">
<stop stop-color="#FCF2EB"/>
<stop offset="1" stop-color="#FFF9F5"/>
</linearGradient>
<linearGradient id="paint6_linear_124_540" x1="668" y1="267" x2="668" y2="235" gradientUnits="userSpaceOnUse">
<stop stop-color="#FFC9B3"/>
<stop offset="1" stop-color="#FFD2C2"/>
</linearGradient>
<linearGradient id="paint7_linear_124_540" x1="667.48" y1="240.232" x2="667.48" y2="259.937" gradientUnits="userSpaceOnUse">
<stop stop-color="#E6864E"/>
<stop offset="1" stop-color="#EB965E"/>
</linearGradient>
<linearGradient id="paint8_linear_124_540" x1="668" y1="256.653" x2="668" y2="267.46" gradientUnits="userSpaceOnUse">
<stop stop-color="#1D0024"/>
<stop offset="1" stop-color="#100014"/>
</linearGradient>
<linearGradient id="paint9_linear_124_540" x1="668" y1="256.653" x2="668" y2="267.46" gradientUnits="userSpaceOnUse">
<stop stop-color="#1D0024"/>
<stop offset="1" stop-color="#100014"/>
</linearGradient>
<linearGradient id="paint10_linear_124_540" x1="668" y1="307" x2="668" y2="339" gradientUnits="userSpaceOnUse">
<stop stop-color="#FFDEDE"/>
<stop offset="1" stop-color="#FFA89D"/>
</linearGradient>
<linearGradient id="paint11_linear_124_540" x1="668" y1="339" x2="668" y2="326.947" gradientUnits="userSpaceOnUse">
<stop stop-color="#FF2424"/>
<stop offset="0.822917" stop-color="#9D645A"/>
<stop offset="1" stop-color="#FFD2C2"/>
<stop offset="1" stop-color="#4D2F2F"/>
</linearGradient>
<linearGradient id="paint12_linear_124_540" x1="668.388" y1="311.196" x2="668.388" y2="325.711" gradientUnits="userSpaceOnUse">
<stop stop-color="#1D0024"/>
<stop offset="1" stop-color="#100014"/>
</linearGradient>
<linearGradient id="paint13_linear_124_540" x1="669.105" y1="316.673" x2="669.105" y2="328.973" gradientUnits="userSpaceOnUse">
<stop stop-color="#E6864E"/>
<stop offset="1" stop-color="#EB965E"/>
</linearGradient>
<linearGradient id="paint14_linear_124_540" x1="668" y1="413" x2="668" y2="381" gradientUnits="userSpaceOnUse">
<stop stop-color="#FFC9B3"/>
<stop offset="1" stop-color="#FFD2C2"/>
</linearGradient>
<linearGradient id="paint15_linear_124_540" x1="669.152" y1="389" x2="669.152" y2="403.056" gradientUnits="userSpaceOnUse">
<stop stop-color="#E6864E"/>
<stop offset="1" stop-color="#EB965E"/>
</linearGradient>
<linearGradient id="paint16_linear_124_540" x1="668" y1="402.941" x2="668" y2="413.78" gradientUnits="userSpaceOnUse">
<stop stop-color="#130027"/>
<stop offset="1" stop-color="#130017"/>
</linearGradient>
<linearGradient id="paint17_linear_124_540" x1="668" y1="413.427" x2="668" y2="403.08" gradientUnits="userSpaceOnUse">
<stop stop-color="#E6864E"/>
<stop offset="1" stop-color="#E67240"/>
</linearGradient>
<linearGradient id="paint18_linear_124_540" x1="668.838" y1="384.413" x2="668.838" y2="400.307" gradientUnits="userSpaceOnUse">
<stop stop-color="#130027"/>
<stop offset="1" stop-color="#130017"/>
</linearGradient>
<linearGradient id="paint19_linear_124_540" x1="668" y1="491" x2="668" y2="459" gradientUnits="userSpaceOnUse">
<stop stop-color="#EBE8FF"/>
<stop offset="1" stop-color="#73CDFF"/>
</linearGradient>
<linearGradient id="paint20_linear_124_540" x1="676.504" y1="490.069" x2="668.059" y2="475.734" gradientUnits="userSpaceOnUse">
<stop stop-color="#7182AD"/>
<stop offset="1" stop-color="#C5C2DF"/>
</linearGradient>
<linearGradient id="paint21_linear_124_540" x1="676.504" y1="490.069" x2="668.059" y2="475.734" gradientUnits="userSpaceOnUse">
<stop stop-color="#E2834C"/>
<stop offset="1" stop-color="#DF6638"/>
</linearGradient>
<linearGradient id="paint22_linear_124_540" x1="672.322" y1="461.986" x2="672.322" y2="467.65" gradientUnits="userSpaceOnUse">
<stop stop-color="#1D0024"/>
<stop offset="1" stop-color="#100014"/>
</linearGradient>
<linearGradient id="paint23_linear_124_540" x1="667.354" y1="463.545" x2="667.354" y2="476.993" gradientUnits="userSpaceOnUse">
<stop stop-color="#1D0024"/>
<stop offset="1" stop-color="#100014"/>
</linearGradient>
<linearGradient id="paint24_linear_124_540" x1="667.173" y1="468.76" x2="667.173" y2="481.72" gradientUnits="userSpaceOnUse">
<stop stop-color="#FFE8DB"/>
<stop offset="1" stop-color="#FFE7D7"/>
</linearGradient>
<linearGradient id="paint25_linear_124_540" x1="668" y1="195" x2="668" y2="163" gradientUnits="userSpaceOnUse">
<stop stop-color="white"/>
<stop offset="1" stop-color="#D0D2FF"/>
</linearGradient>
<linearGradient id="paint26_linear_124_540" x1="668.451" y1="170.718" x2="668.451" y2="187.427" gradientUnits="userSpaceOnUse">
<stop stop-color="#FFEADB"/>
<stop offset="1" stop-color="#FFEADB"/>
</linearGradient>
<linearGradient id="paint27_linear_124_540" x1="670.601" y1="180.761" x2="669.947" y2="183.237" gradientUnits="userSpaceOnUse">
<stop stop-color="#3F45E0"/>
<stop offset="1" stop-color="#5754EB"/>
</linearGradient>
<linearGradient id="paint28_linear_124_540" x1="668" y1="184.547" x2="668" y2="195.353" gradientUnits="userSpaceOnUse">
<stop stop-color="#1D0024"/>
<stop offset="1" stop-color="#100014"/>
</linearGradient>
<linearGradient id="paint29_linear_124_540" x1="668.852" y1="166.2" x2="668.852" y2="179" gradientUnits="userSpaceOnUse">
<stop stop-color="#1D0024"/>
<stop offset="1" stop-color="#100014"/>
</linearGradient>
<clipPath id="clip0_124_540">
<rect x="652" y="91" width="32" height="32" rx="16" fill="white"/>
</clipPath>
<clipPath id="clip1_124_540">
<rect x="652" y="235" width="32" height="32" rx="16" fill="white"/>
</clipPath>
<clipPath id="clip2_124_540">
<rect x="652" y="381" width="32" height="32" rx="16" fill="white"/>
</clipPath>
<clipPath id="clip3_124_540">
<rect x="652" y="459" width="32" height="32" rx="16" fill="white"/>
</clipPath>
<clipPath id="clip4_124_540">
<rect x="652" y="163" width="32" height="32" rx="16" fill="white"/>
</clipPath>
</defs>
</svg>
