<svg width="361" height="506" viewBox="0 0 361 506" fill="none" xmlns="http://www.w3.org/2000/svg">
<rect x="1" y="1" width="357" height="426.848" rx="9" fill="white" stroke="#E0E0E0" stroke-width="2"/>
<rect x="1" y="-1" width="313" height="44.0911" rx="4" transform="matrix(1 0 0 -1 20 402.8)" fill="#C2C2C2" fill-opacity="0.1" stroke="#E2E8F0" stroke-width="2"/>
<rect x="20" y="107.212" width="224" height="33.0653" rx="5" fill="#424242"/>
<path d="M164.278 115.228H37.7222C35.6665 115.228 34 116.574 34 118.234V127.252C34 128.912 35.6665 130.257 37.7222 130.257H164.278C166.334 130.257 168 128.912 168 127.252V118.234C168 116.574 166.334 115.228 164.278 115.228Z" fill="#878787"/>
<path d="M314.278 170.337H187.722C185.666 170.337 184 171.682 184 173.343V182.36C184 184.021 185.666 185.366 187.722 185.366H314.278C316.334 185.366 318 184.021 318 182.36V173.343C318 171.682 316.334 170.337 314.278 170.337Z" fill="#E6ECF2" fill-opacity="0.4"/>
<rect x="109" y="154.305" width="224" height="63.1248" rx="5" fill="#DEDEDE"/>
<rect x="20" y="241.477" width="224" height="63.1248" rx="5" fill="#424242"/>
<path d="M314.278 191.378H187.722C185.666 191.378 184 192.724 184 194.384V203.402C184 205.062 185.666 206.408 187.722 206.408H314.278C316.334 206.408 318 205.062 318 203.402V194.384C318 192.724 316.334 191.378 314.278 191.378Z" fill="#9D9D9D"/>
<path d="M312.194 169.335H148.806C146.152 169.335 144 170.681 144 172.341V181.358C144 183.019 146.152 184.364 148.806 184.364H312.194C314.848 184.364 317 183.019 317 181.358V172.341C317 170.681 314.848 169.335 312.194 169.335Z" fill="#9D9D9D"/>
<path d="M215.806 256.507H39.1944C36.3256 256.507 34 257.853 34 259.513V268.531C34 270.191 36.3256 271.537 39.1944 271.537H215.806C218.674 271.537 221 270.191 221 268.531V259.513C221 257.853 218.674 256.507 215.806 256.507Z" fill="#878787"/>
<path d="M145.806 278.551H37.1944C35.4302 278.551 34 279.896 34 281.556V290.574C34 292.234 35.4302 293.58 37.1944 293.58H145.806C147.57 293.58 149 292.234 149 290.574V281.556C149 279.896 147.57 278.551 145.806 278.551Z" fill="#878787"/>
<path d="M184.209 23.0457H83.9488C82.3202 23.0457 81 24.3685 81 26.0003V34.8643C81 36.4961 82.3202 37.8189 83.9488 37.8189H184.209C185.837 37.8189 187.157 36.4961 187.157 34.8643V26.0003C187.157 24.3685 185.837 23.0457 184.209 23.0457Z" fill="#5B5B5B"/>
<path d="M267.667 47.093H86.3333C83.3878 47.093 81 48.4388 81 50.099V59.1168C81 60.7769 83.3878 62.1227 86.3333 62.1227H267.667C270.612 62.1227 273 60.7769 273 59.1168V50.099C273 48.4388 270.612 47.093 267.667 47.093Z" fill="#C5C5C5" fill-opacity="0.4"/>
<line y1="85.5" x2="357" y2="85.5" stroke="#DDDDDD"/>
<path d="M298.216 370.768C298.051 370.723 297.877 370.721 297.711 370.762C297.545 370.803 297.394 370.885 297.274 371C297.153 371.116 297.068 371.26 297.027 371.417C296.987 371.574 296.991 371.739 297.042 371.894L300.125 381.358H310.924C311.176 381.358 311.418 381.452 311.596 381.621C311.775 381.789 311.875 382.017 311.875 382.255C311.875 382.494 311.775 382.722 311.596 382.89C311.418 383.059 311.176 383.153 310.924 383.153H300.125L297.042 392.617C296.991 392.772 296.987 392.937 297.027 393.094C297.068 393.251 297.153 393.395 297.274 393.51C297.394 393.626 297.545 393.708 297.711 393.749C297.877 393.79 298.051 393.788 298.216 393.743C306.604 391.44 314.513 387.801 321.604 382.985C321.727 382.901 321.826 382.792 321.895 382.665C321.964 382.538 322 382.398 322 382.255C322 382.113 321.964 381.973 321.895 381.846C321.826 381.719 321.727 381.609 321.604 381.526C314.513 376.71 306.604 373.071 298.216 370.768Z" fill="#BEC5D8"/>
<rect x="297" y="441.873" width="64" height="64.1267" rx="15" fill="#1C1C1C"/>
<path fill-rule="evenodd" clip-rule="evenodd" d="M344.925 454.149C339.703 453.382 334.432 452.998 329.154 453L327.514 456.32C327.513 456.32 327.513 456.32 327.513 456.32L329.153 453C323.798 453 318.531 453.392 313.382 454.149L313.382 454.149C309.02 454.791 306 458.613 306 462.903V476.174V476.176C306 480.465 309.02 484.286 313.382 484.928L314.924 481.806C314.924 481.806 314.924 481.806 314.924 481.806L313.382 484.928C315.317 485.213 317.267 485.445 319.231 485.625V494.346C319.231 495.015 319.634 495.618 320.252 495.874C320.87 496.13 321.581 495.989 322.054 495.516L331.038 486.531L331.04 486.53C331.35 486.223 331.765 486.046 332.201 486.035L332.205 486.034C336.463 485.917 340.71 485.547 344.925 484.928L344.925 484.928C349.288 484.286 352.307 480.467 352.307 476.174V462.903C352.307 458.61 349.287 454.791 344.925 454.149L344.925 454.149ZM317.831 475.922L314.924 481.806C316.937 482.081 318.966 482.298 321.012 482.457C321.874 482.524 322.538 483.242 322.538 484.106V490.353L328.703 484.189L328.707 484.185C329.615 483.282 330.835 482.761 332.115 482.728C336.242 482.614 340.359 482.256 344.444 481.656C347.067 481.27 349 478.946 349 476.174V462.903C349 460.131 347.067 457.808 344.444 457.422L326.97 457.421L326.97 457.421H344.444C339.381 456.678 334.271 456.306 329.154 456.308H329.154C328.606 456.308 328.059 456.312 327.514 456.32L326.97 457.421H326.969L327.513 456.32C322.884 456.392 318.327 456.765 313.864 457.421H326.969L326.969 457.421L313.864 457.421C311.241 457.807 309.308 460.133 309.308 462.903V476.174V476.176C309.308 478.944 311.24 481.27 313.864 481.656L313.864 481.656C314.217 481.708 314.57 481.758 314.924 481.806L317.831 475.922C317.642 475.862 317.455 475.793 317.272 475.715C316.473 475.376 315.77 474.91 315.165 474.317C314.559 473.711 314.081 473.015 313.73 472.227C313.391 471.44 313.221 470.592 313.221 469.684C313.221 468.776 313.391 467.928 313.73 467.141C314.081 466.354 314.559 465.663 315.165 465.07C315.77 464.465 316.473 463.992 317.272 463.653C318.071 463.314 318.931 463.144 319.852 463.144C320.421 463.144 320.972 463.205 321.505 463.326C322.038 463.447 322.528 463.629 322.976 463.871C323.158 463.968 323.291 464.101 323.376 464.271C323.42 464.342 323.454 464.415 323.478 464.489L326.969 457.421H326.97L323.478 464.49C323.507 464.578 323.521 464.669 323.521 464.761C323.521 465.052 323.424 465.312 323.231 465.542C323.112 465.683 322.973 465.781 322.813 465.836L321.164 469.176H323.231C323.546 469.176 323.806 469.285 324.012 469.503C324.218 469.708 324.321 469.969 324.321 470.284V474.135C324.321 474.377 324.26 474.577 324.139 474.734C324.03 474.892 323.903 475.019 323.757 475.116C323.2 475.455 322.589 475.727 321.923 475.933C321.269 476.127 320.578 476.224 319.852 476.224C319.142 476.224 318.469 476.123 317.831 475.922ZM318.818 473.924C319.149 474.004 319.493 474.044 319.852 474.044C320.215 474.044 320.615 474.008 321.051 473.935C321.406 473.876 321.708 473.801 321.959 473.709V471.355H320.251C320.197 471.355 320.143 471.352 320.091 471.346L318.818 473.924ZM321.163 469.176H320.251C319.937 469.176 319.67 469.278 319.452 469.484C319.246 469.69 319.143 469.951 319.143 470.266C319.143 470.58 319.246 470.841 319.452 471.047C319.632 471.217 319.845 471.316 320.091 471.346L318.818 473.924C318.422 473.827 318.046 473.674 317.69 473.463C317.048 473.063 316.533 472.53 316.146 471.864C315.77 471.198 315.583 470.471 315.583 469.684C315.583 468.885 315.77 468.158 316.146 467.504C316.533 466.838 317.048 466.311 317.69 465.924C318.344 465.524 319.065 465.324 319.852 465.324C320.227 465.324 320.584 465.361 320.924 465.433C321.263 465.506 321.584 465.609 321.886 465.742C321.983 465.791 322.08 465.827 322.177 465.851C322.286 465.875 322.389 465.888 322.486 465.888C322.603 465.888 322.712 465.87 322.813 465.836L321.163 469.176ZM332.973 463.871C332.428 463.508 331.84 463.326 331.211 463.326H327.069C326.754 463.326 326.488 463.435 326.27 463.653C326.064 463.859 325.961 464.119 325.961 464.434V474.934C325.961 475.249 326.058 475.515 326.251 475.733C326.445 475.939 326.693 476.042 326.996 476.042C327.311 476.042 327.565 475.939 327.759 475.733C327.953 475.515 328.05 475.249 328.05 474.934V471.501H331.211C331.84 471.501 332.428 471.319 332.973 470.956C333.53 470.58 333.978 470.084 334.317 469.466C334.656 468.849 334.826 468.164 334.826 467.413C334.826 466.65 334.656 465.96 334.317 465.343C333.978 464.725 333.53 464.234 332.973 463.871ZM331.883 469.139C331.665 469.333 331.441 469.43 331.211 469.43H328.05V465.415H331.211C331.441 465.415 331.665 465.512 331.883 465.706C332.101 465.888 332.283 466.13 332.428 466.432C332.573 466.735 332.646 467.062 332.646 467.413C332.646 467.753 332.573 468.08 332.428 468.394C332.283 468.697 332.101 468.945 331.883 469.139ZM339.831 475.733C340.049 475.939 340.328 476.042 340.667 476.042C341.018 476.042 341.303 475.939 341.521 475.733C341.751 475.515 341.866 475.249 341.866 474.934V465.415H344.718C345.033 465.415 345.293 465.324 345.499 465.143C345.717 464.949 345.826 464.695 345.826 464.38C345.826 464.065 345.717 463.811 345.499 463.617C345.293 463.423 345.033 463.326 344.718 463.326H336.652C336.337 463.326 336.071 463.423 335.853 463.617C335.647 463.798 335.544 464.047 335.544 464.362C335.544 464.676 335.647 464.931 335.853 465.125C336.071 465.318 336.337 465.415 336.652 465.415H339.504V474.934C339.504 475.249 339.613 475.515 339.831 475.733Z" fill="white"/>
<path fill-rule="evenodd" clip-rule="evenodd" d="M55.9245 23.1489C50.7026 22.3824 45.4316 21.9985 40.1537 22.0001L38.5135 25.3204C38.5134 25.3205 38.5132 25.3205 38.5131 25.3205L40.1532 22.0001C34.7979 22.0001 29.5312 22.392 24.3824 23.1489L24.3823 23.149C20.0195 23.7907 16.9999 27.6127 16.9999 31.9033V45.1738V45.176C16.9999 49.4647 20.0198 53.2864 24.3821 53.9281L25.9242 50.8062C25.9243 50.8062 25.9244 50.8062 25.9244 50.8062L24.3823 53.9282C26.317 54.2129 28.2668 54.4453 30.2306 54.6254V63.3462C30.2306 64.0151 30.6336 64.6182 31.2516 64.8742C31.8696 65.1302 32.5809 64.9887 33.0539 64.5157L42.0382 55.5313L42.0399 55.5296C42.3497 55.2227 42.765 55.0456 43.2011 55.0346L43.205 55.0345C47.463 54.9166 51.7103 54.5472 55.9247 53.9282L55.9251 53.9282C60.2875 53.2865 63.3075 49.467 63.3075 45.1738V31.9033C63.3075 27.6101 60.2875 23.7907 55.9251 23.149L55.9245 23.1489ZM28.8312 44.9217L25.9244 50.8062C27.9367 51.0811 29.9664 51.2979 32.0124 51.4567C32.8736 51.5236 33.5383 52.2419 33.5383 53.1056V59.3535L39.7031 53.1887L39.7069 53.1849C40.6155 52.2822 41.8348 51.7609 43.1152 51.728C47.2422 51.6137 51.3589 51.2556 55.4437 50.6557C58.0671 50.2698 59.9998 47.9458 59.9998 45.1738V31.9033C59.9998 29.1315 58.0673 26.8076 55.4442 26.4215L37.9697 26.4215L37.9697 26.4214H55.4437C50.3811 25.6784 45.271 25.3062 40.1542 25.3078H40.1537C39.606 25.3078 39.0593 25.312 38.5135 25.3204L37.9697 26.4214H37.9692L38.5131 25.3205C33.8839 25.3919 29.3274 25.7652 24.8637 26.4214H37.9692L37.9692 26.4215L24.8635 26.4214C22.2405 26.8073 20.3075 29.1332 20.3075 31.9033V45.1738V45.176C20.3075 47.9436 22.2403 50.2698 24.8637 50.6557L24.8638 50.6557C25.2167 50.7077 25.5702 50.7578 25.9242 50.8062L28.8309 44.9216C28.6415 44.8617 28.4553 44.793 28.2722 44.7153C27.4729 44.3762 26.7705 43.9099 26.1649 43.3165C25.5594 42.711 25.081 42.0146 24.7298 41.2274C24.3907 40.4402 24.2212 39.5925 24.2212 38.6842C24.2212 37.7759 24.3907 36.9282 24.7298 36.141C25.081 35.3538 25.5594 34.6635 26.1649 34.07C26.7705 33.4645 27.4729 32.9922 28.2722 32.6531C29.0715 32.314 29.9313 32.1444 30.8518 32.1444C31.421 32.1444 31.972 32.205 32.5049 32.3261C33.0377 32.4472 33.5282 32.6289 33.9763 32.8711C34.158 32.968 34.2912 33.1012 34.376 33.2707C34.42 33.3423 34.454 33.4151 34.4781 33.4892L37.9692 26.4215H37.9697L34.4782 33.4897C34.5069 33.5784 34.5213 33.6689 34.5213 33.7612C34.5213 34.0519 34.4244 34.3123 34.2306 34.5424C34.112 34.6833 33.9729 34.781 33.8134 34.8356L32.1636 38.1755H34.2306C34.5455 38.1755 34.8059 38.2845 35.0118 38.5025C35.2176 38.7084 35.3206 38.9688 35.3206 39.2837V43.1349C35.3206 43.3771 35.26 43.5769 35.1389 43.7343C35.0299 43.8918 34.9028 44.0189 34.7574 44.1158C34.2004 44.4549 33.5888 44.7274 32.9227 44.9333C32.2687 45.1271 31.5784 45.2239 30.8518 45.2239C30.1423 45.2239 29.4687 45.1232 28.8312 44.9217ZM29.8182 42.9236C30.1489 43.0039 30.4934 43.044 30.8518 43.044C31.2151 43.044 31.6147 43.0077 32.0507 42.935C32.4057 42.8759 32.7084 42.8007 32.959 42.7094V40.3555H31.2514C31.1966 40.3555 31.1432 40.3523 31.0914 40.3461L29.8182 42.9236ZM32.1632 38.1755H31.2514C30.9365 38.1755 30.6701 38.2785 30.4521 38.4844C30.2462 38.6903 30.1433 38.9506 30.1433 39.2655C30.1433 39.5804 30.2462 39.8408 30.4521 40.0466C30.6321 40.2166 30.8451 40.3164 31.0911 40.3461L29.8179 42.9235C29.4222 42.8274 29.0462 42.6738 28.69 42.4627C28.0481 42.0631 27.5334 41.5302 27.1459 40.8641C26.7705 40.198 26.5828 39.4714 26.5828 38.6842C26.5828 37.8849 26.7705 37.1583 27.1459 36.5043C27.5334 35.8382 28.0481 35.3114 28.69 34.9238C29.344 34.5242 30.0646 34.3244 30.8518 34.3244C31.2272 34.3244 31.5845 34.3607 31.9236 34.4334C32.2626 34.506 32.5836 34.609 32.8863 34.7422C32.9832 34.7906 33.0801 34.827 33.177 34.8512C33.286 34.8754 33.3889 34.8875 33.4858 34.8875C33.603 34.8875 33.712 34.8703 33.8129 34.8358L32.1632 38.1755ZM43.9728 32.8711C43.4279 32.5078 42.8405 32.3261 42.2107 32.3261H38.0689C37.754 32.3261 37.4876 32.4351 37.2696 32.6531C37.0637 32.859 36.9608 33.1194 36.9608 33.4342V43.9342C36.9608 44.249 37.0577 44.5155 37.2514 44.7335C37.4452 44.9393 37.6935 45.0423 37.9962 45.0423C38.3111 45.0423 38.5654 44.9393 38.7592 44.7335C38.953 44.5155 39.0499 44.249 39.0499 43.9342V40.5008H42.2107C42.8405 40.5008 43.4279 40.3191 43.9728 39.9558C44.5299 39.5804 44.978 39.0838 45.3171 38.4662C45.6562 37.8486 45.8258 37.1643 45.8258 36.4134C45.8258 35.6505 45.6562 34.9602 45.3171 34.3425C44.978 33.7249 44.5299 33.2344 43.9728 32.8711ZM42.8829 38.1392C42.6649 38.333 42.4408 38.4299 42.2107 38.4299H39.0499V34.4152H42.2107C42.4408 34.4152 42.6649 34.5121 42.8829 34.7058C43.1009 34.8875 43.2825 35.1297 43.4279 35.4325C43.5732 35.7353 43.6459 36.0622 43.6459 36.4134C43.6459 36.7525 43.5732 37.0795 43.4279 37.3944C43.2825 37.6972 43.1009 37.9454 42.8829 38.1392ZM50.8312 44.7335C51.0492 44.9393 51.3277 45.0423 51.6668 45.0423C52.0181 45.0423 52.3027 44.9393 52.5206 44.7335C52.7507 44.5155 52.8658 44.249 52.8658 43.9342V34.4152H55.7179C56.0327 34.4152 56.2931 34.3244 56.499 34.1427C56.717 33.9489 56.826 33.6946 56.826 33.3797C56.826 33.0649 56.717 32.8105 56.499 32.6168C56.2931 32.423 56.0327 32.3261 55.7179 32.3261H47.6522C47.3373 32.3261 47.0708 32.423 46.8529 32.6168C46.647 32.7984 46.544 33.0467 46.544 33.3616C46.544 33.6764 46.647 33.9308 46.8529 34.1245C47.0708 34.3183 47.3373 34.4152 47.6522 34.4152H50.5042V43.9342C50.5042 44.249 50.6132 44.5155 50.8312 44.7335Z" fill="#242424"/>
</svg>
