<svg width="229" height="201" viewBox="0 0 229 201" fill="none" xmlns="http://www.w3.org/2000/svg">
<g opacity="0.7">
<path d="M25.9688 35.3672H23.25V30.3633H22.5469V36H25.9688V35.3672Z" fill="#506677"/>
<path d="M27.0117 31.2148C27.25 31.2148 27.4375 31.0234 27.4375 30.7891C27.4375 30.5508 27.25 30.3633 27.0117 30.3633C26.7773 30.3633 26.5859 30.5508 26.5859 30.7891C26.5859 31.0234 26.7773 31.2148 27.0117 31.2148ZM26.6719 36H27.3516V31.9375H26.6719V36Z" fill="#506677"/>
<path d="M28.1992 33.0586C28.1992 33.6445 28.5703 34 29.3359 34.1836L29.9805 34.3398C30.4453 34.4531 30.6055 34.6211 30.6055 34.9141C30.6055 35.2812 30.2656 35.5156 29.7148 35.5156C29.1641 35.5156 28.8516 35.293 28.7695 34.8281H28.0898C28.168 35.5898 28.7617 36.0703 29.7148 36.0703C30.6211 36.0703 31.2891 35.5703 31.2891 34.8633C31.2891 34.2812 30.9922 33.9609 30.1719 33.7617L29.5273 33.6055C29.0742 33.4961 28.8672 33.3047 28.8672 33.0234C28.8672 32.668 29.1953 32.4219 29.6914 32.4219C30.1914 32.4219 30.5039 32.6836 30.5547 33.1094H31.2031C31.1758 32.3906 30.582 31.8672 29.6914 31.8672C28.8125 31.8672 28.1992 32.3633 28.1992 33.0586Z" fill="#506677"/>
<path d="M32.2148 30.957V31.9375H31.6094V32.4961H32.2148V34.9453C32.2148 35.7266 32.5039 36.0312 33.25 36.0312C33.4102 36.0312 33.5977 36.0195 33.6797 36V35.4297C33.6328 35.4375 33.4766 35.4492 33.3984 35.4492C33.0508 35.4492 32.8945 35.2812 32.8945 34.9102V32.4961H33.6836V31.9375H32.8945V30.957H32.2148Z" fill="#506677"/>
<path d="M36.8594 36V30.3633H36.1562V36H36.8594Z" fill="#506677"/>
<path d="M38.0664 30.957V31.9375H37.4609V32.4961H38.0664V34.9453C38.0664 35.7266 38.3555 36.0312 39.1016 36.0312C39.2617 36.0312 39.4492 36.0195 39.5312 36V35.4297C39.4844 35.4375 39.3281 35.4492 39.25 35.4492C38.9023 35.4492 38.7461 35.2812 38.7461 34.9102V32.4961H39.5352V31.9375H38.7461V30.957H38.0664Z" fill="#506677"/>
<path d="M42.8398 34.8359C42.7266 35.2188 42.3477 35.4805 41.832 35.4805C41.1016 35.4805 40.6445 34.9688 40.6445 34.1914V34.1523H43.5586V33.8945C43.5586 32.6641 42.8828 31.8672 41.7852 31.8672C40.6641 31.8672 39.9453 32.7227 39.9453 33.9844C39.9453 35.2617 40.6523 36.0703 41.8164 36.0703C42.7031 36.0703 43.3906 35.5469 43.5078 34.8359H42.8398ZM41.7734 32.457C42.4141 32.457 42.8398 32.9414 42.8555 33.6211H40.6484C40.6914 32.9453 41.1367 32.457 41.7734 32.457Z" fill="#506677"/>
<path d="M44.2461 36H44.9258V33.4531C44.9258 32.8906 45.3164 32.4688 45.8555 32.4688C46.3594 32.4688 46.6875 32.7891 46.6875 33.2773V36H47.3672V33.418C47.3672 32.8672 47.7461 32.4688 48.2852 32.4688C48.8203 32.4688 49.1289 32.7969 49.1289 33.3516V36H49.8086V33.1953C49.8086 32.3906 49.2891 31.8672 48.4844 31.8672C47.9141 31.8672 47.4375 32.1562 47.2109 32.6406H47.1953C47.0195 32.1484 46.6094 31.8672 46.0547 31.8672C45.5078 31.8672 45.0938 32.1562 44.9023 32.5859H44.8867V31.9375H44.2461V36Z" fill="#506677"/>
<path d="M25.9688 52.3672H23.25V47.3633H22.5469V53H25.9688V52.3672Z" fill="#506677"/>
<path d="M27.0117 48.2148C27.25 48.2148 27.4375 48.0234 27.4375 47.7891C27.4375 47.5508 27.25 47.3633 27.0117 47.3633C26.7773 47.3633 26.5859 47.5508 26.5859 47.7891C26.5859 48.0234 26.7773 48.2148 27.0117 48.2148ZM26.6719 53H27.3516V48.9375H26.6719V53Z" fill="#506677"/>
<path d="M28.1992 50.0586C28.1992 50.6445 28.5703 51 29.3359 51.1836L29.9805 51.3398C30.4453 51.4531 30.6055 51.6211 30.6055 51.9141C30.6055 52.2812 30.2656 52.5156 29.7148 52.5156C29.1641 52.5156 28.8516 52.293 28.7695 51.8281H28.0898C28.168 52.5898 28.7617 53.0703 29.7148 53.0703C30.6211 53.0703 31.2891 52.5703 31.2891 51.8633C31.2891 51.2812 30.9922 50.9609 30.1719 50.7617L29.5273 50.6055C29.0742 50.4961 28.8672 50.3047 28.8672 50.0234C28.8672 49.668 29.1953 49.4219 29.6914 49.4219C30.1914 49.4219 30.5039 49.6836 30.5547 50.1094H31.2031C31.1758 49.3906 30.582 48.8672 29.6914 48.8672C28.8125 48.8672 28.1992 49.3633 28.1992 50.0586Z" fill="#506677"/>
<path d="M32.2148 47.957V48.9375H31.6094V49.4961H32.2148V51.9453C32.2148 52.7266 32.5039 53.0312 33.25 53.0312C33.4102 53.0312 33.5977 53.0195 33.6797 53V52.4297C33.6328 52.4375 33.4766 52.4492 33.3984 52.4492C33.0508 52.4492 32.8945 52.2812 32.8945 51.9102V49.4961H33.6836V48.9375H32.8945V47.957H32.2148Z" fill="#506677"/>
<path d="M36.8594 53V47.3633H36.1562V53H36.8594Z" fill="#506677"/>
<path d="M38.0664 47.957V48.9375H37.4609V49.4961H38.0664V51.9453C38.0664 52.7266 38.3555 53.0312 39.1016 53.0312C39.2617 53.0312 39.4492 53.0195 39.5312 53V52.4297C39.4844 52.4375 39.3281 52.4492 39.25 52.4492C38.9023 52.4492 38.7461 52.2812 38.7461 51.9102V49.4961H39.5352V48.9375H38.7461V47.957H38.0664Z" fill="#506677"/>
<path d="M42.8398 51.8359C42.7266 52.2188 42.3477 52.4805 41.832 52.4805C41.1016 52.4805 40.6445 51.9688 40.6445 51.1914V51.1523H43.5586V50.8945C43.5586 49.6641 42.8828 48.8672 41.7852 48.8672C40.6641 48.8672 39.9453 49.7227 39.9453 50.9844C39.9453 52.2617 40.6523 53.0703 41.8164 53.0703C42.7031 53.0703 43.3906 52.5469 43.5078 51.8359H42.8398ZM41.7734 49.457C42.4141 49.457 42.8398 49.9414 42.8555 50.6211H40.6484C40.6914 49.9453 41.1367 49.457 41.7734 49.457Z" fill="#506677"/>
<path d="M44.2461 53H44.9258V50.4531C44.9258 49.8906 45.3164 49.4688 45.8555 49.4688C46.3594 49.4688 46.6875 49.7891 46.6875 50.2773V53H47.3672V50.418C47.3672 49.8672 47.7461 49.4688 48.2852 49.4688C48.8203 49.4688 49.1289 49.7969 49.1289 50.3516V53H49.8086V50.1953C49.8086 49.3906 49.2891 48.8672 48.4844 48.8672C47.9141 48.8672 47.4375 49.1562 47.2109 49.6406H47.1953C47.0195 49.1484 46.6094 48.8672 46.0547 48.8672C45.5078 48.8672 45.0938 49.1562 44.9023 49.5859H44.8867V48.9375H44.2461V53Z" fill="#506677"/>
<path d="M25.9688 69.3672H23.25V64.3633H22.5469V70H25.9688V69.3672Z" fill="#506677"/>
<path d="M27.0117 65.2148C27.25 65.2148 27.4375 65.0234 27.4375 64.7891C27.4375 64.5508 27.25 64.3633 27.0117 64.3633C26.7773 64.3633 26.5859 64.5508 26.5859 64.7891C26.5859 65.0234 26.7773 65.2148 27.0117 65.2148ZM26.6719 70H27.3516V65.9375H26.6719V70Z" fill="#506677"/>
<path d="M28.1992 67.0586C28.1992 67.6445 28.5703 68 29.3359 68.1836L29.9805 68.3398C30.4453 68.4531 30.6055 68.6211 30.6055 68.9141C30.6055 69.2812 30.2656 69.5156 29.7148 69.5156C29.1641 69.5156 28.8516 69.293 28.7695 68.8281H28.0898C28.168 69.5898 28.7617 70.0703 29.7148 70.0703C30.6211 70.0703 31.2891 69.5703 31.2891 68.8633C31.2891 68.2812 30.9922 67.9609 30.1719 67.7617L29.5273 67.6055C29.0742 67.4961 28.8672 67.3047 28.8672 67.0234C28.8672 66.668 29.1953 66.4219 29.6914 66.4219C30.1914 66.4219 30.5039 66.6836 30.5547 67.1094H31.2031C31.1758 66.3906 30.582 65.8672 29.6914 65.8672C28.8125 65.8672 28.1992 66.3633 28.1992 67.0586Z" fill="#506677"/>
<path d="M32.2148 64.957V65.9375H31.6094V66.4961H32.2148V68.9453C32.2148 69.7266 32.5039 70.0312 33.25 70.0312C33.4102 70.0312 33.5977 70.0195 33.6797 70V69.4297C33.6328 69.4375 33.4766 69.4492 33.3984 69.4492C33.0508 69.4492 32.8945 69.2812 32.8945 68.9102V66.4961H33.6836V65.9375H32.8945V64.957H32.2148Z" fill="#506677"/>
<path d="M36.8594 70V64.3633H36.1562V70H36.8594Z" fill="#506677"/>
<path d="M38.0664 64.957V65.9375H37.4609V66.4961H38.0664V68.9453C38.0664 69.7266 38.3555 70.0312 39.1016 70.0312C39.2617 70.0312 39.4492 70.0195 39.5312 70V69.4297C39.4844 69.4375 39.3281 69.4492 39.25 69.4492C38.9023 69.4492 38.7461 69.2812 38.7461 68.9102V66.4961H39.5352V65.9375H38.7461V64.957H38.0664Z" fill="#506677"/>
<path d="M42.8398 68.8359C42.7266 69.2188 42.3477 69.4805 41.832 69.4805C41.1016 69.4805 40.6445 68.9688 40.6445 68.1914V68.1523H43.5586V67.8945C43.5586 66.6641 42.8828 65.8672 41.7852 65.8672C40.6641 65.8672 39.9453 66.7227 39.9453 67.9844C39.9453 69.2617 40.6523 70.0703 41.8164 70.0703C42.7031 70.0703 43.3906 69.5469 43.5078 68.8359H42.8398ZM41.7734 66.457C42.4141 66.457 42.8398 66.9414 42.8555 67.6211H40.6484C40.6914 66.9453 41.1367 66.457 41.7734 66.457Z" fill="#506677"/>
<path d="M44.2461 70H44.9258V67.4531C44.9258 66.8906 45.3164 66.4688 45.8555 66.4688C46.3594 66.4688 46.6875 66.7891 46.6875 67.2773V70H47.3672V67.418C47.3672 66.8672 47.7461 66.4688 48.2852 66.4688C48.8203 66.4688 49.1289 66.7969 49.1289 67.3516V70H49.8086V67.1953C49.8086 66.3906 49.2891 65.8672 48.4844 65.8672C47.9141 65.8672 47.4375 66.1562 47.2109 66.6406H47.1953C47.0195 66.1484 46.6094 65.8672 46.0547 65.8672C45.5078 65.8672 45.0938 66.1562 44.9023 66.5859H44.8867V65.9375H44.2461V70Z" fill="#506677"/>
<path d="M25.9688 86.3672H23.25V81.3633H22.5469V87H25.9688V86.3672Z" fill="#506677"/>
<path d="M27.0117 82.2148C27.25 82.2148 27.4375 82.0234 27.4375 81.7891C27.4375 81.5508 27.25 81.3633 27.0117 81.3633C26.7773 81.3633 26.5859 81.5508 26.5859 81.7891C26.5859 82.0234 26.7773 82.2148 27.0117 82.2148ZM26.6719 87H27.3516V82.9375H26.6719V87Z" fill="#506677"/>
<path d="M28.1992 84.0586C28.1992 84.6445 28.5703 85 29.3359 85.1836L29.9805 85.3398C30.4453 85.4531 30.6055 85.6211 30.6055 85.9141C30.6055 86.2812 30.2656 86.5156 29.7148 86.5156C29.1641 86.5156 28.8516 86.293 28.7695 85.8281H28.0898C28.168 86.5898 28.7617 87.0703 29.7148 87.0703C30.6211 87.0703 31.2891 86.5703 31.2891 85.8633C31.2891 85.2812 30.9922 84.9609 30.1719 84.7617L29.5273 84.6055C29.0742 84.4961 28.8672 84.3047 28.8672 84.0234C28.8672 83.668 29.1953 83.4219 29.6914 83.4219C30.1914 83.4219 30.5039 83.6836 30.5547 84.1094H31.2031C31.1758 83.3906 30.582 82.8672 29.6914 82.8672C28.8125 82.8672 28.1992 83.3633 28.1992 84.0586Z" fill="#506677"/>
<path d="M32.2148 81.957V82.9375H31.6094V83.4961H32.2148V85.9453C32.2148 86.7266 32.5039 87.0312 33.25 87.0312C33.4102 87.0312 33.5977 87.0195 33.6797 87V86.4297C33.6328 86.4375 33.4766 86.4492 33.3984 86.4492C33.0508 86.4492 32.8945 86.2812 32.8945 85.9102V83.4961H33.6836V82.9375H32.8945V81.957H32.2148Z" fill="#506677"/>
<path d="M36.8594 87V81.3633H36.1562V87H36.8594Z" fill="#506677"/>
<path d="M38.0664 81.957V82.9375H37.4609V83.4961H38.0664V85.9453C38.0664 86.7266 38.3555 87.0312 39.1016 87.0312C39.2617 87.0312 39.4492 87.0195 39.5312 87V86.4297C39.4844 86.4375 39.3281 86.4492 39.25 86.4492C38.9023 86.4492 38.7461 86.2812 38.7461 85.9102V83.4961H39.5352V82.9375H38.7461V81.957H38.0664Z" fill="#506677"/>
<path d="M42.8398 85.8359C42.7266 86.2188 42.3477 86.4805 41.832 86.4805C41.1016 86.4805 40.6445 85.9688 40.6445 85.1914V85.1523H43.5586V84.8945C43.5586 83.6641 42.8828 82.8672 41.7852 82.8672C40.6641 82.8672 39.9453 83.7227 39.9453 84.9844C39.9453 86.2617 40.6523 87.0703 41.8164 87.0703C42.7031 87.0703 43.3906 86.5469 43.5078 85.8359H42.8398ZM41.7734 83.457C42.4141 83.457 42.8398 83.9414 42.8555 84.6211H40.6484C40.6914 83.9453 41.1367 83.457 41.7734 83.457Z" fill="#506677"/>
<path d="M44.2461 87H44.9258V84.4531C44.9258 83.8906 45.3164 83.4688 45.8555 83.4688C46.3594 83.4688 46.6875 83.7891 46.6875 84.2773V87H47.3672V84.418C47.3672 83.8672 47.7461 83.4688 48.2852 83.4688C48.8203 83.4688 49.1289 83.7969 49.1289 84.3516V87H49.8086V84.1953C49.8086 83.3906 49.2891 82.8672 48.4844 82.8672C47.9141 82.8672 47.4375 83.1562 47.2109 83.6406H47.1953C47.0195 83.1484 46.6094 82.8672 46.0547 82.8672C45.5078 82.8672 45.0938 83.1562 44.9023 83.5859H44.8867V82.9375H44.2461V87Z" fill="#506677"/>
</g>
<g clip-path="url(#clip0)">
<path d="M11.6047 29.0698C9.06288 29.0698 7 31.1327 7 33.6745C7 36.2162 9.06288 38.2791 11.6047 38.2791C14.1464 38.2791 16.2093 36.2162 16.2093 33.6745C16.2093 31.1327 14.1464 29.0698 11.6047 29.0698Z" fill="#FF0076"/>
<path d="M9.25664 33.7498L10.9338 35.5349L13.9528 32.3216L13.4798 31.8147L10.9338 34.5245L9.72961 33.2463L9.25664 33.7498Z" fill="#F7F7F7"/>
<path fill-rule="evenodd" clip-rule="evenodd" d="M13.4805 31.3721L14.3671 32.3224L10.9338 35.9767L8.84155 33.7498L9.72932 32.8049L10.9335 34.083L13.4805 31.3721ZM13.4791 32.2572L10.9341 34.966L9.7299 33.6878L9.67172 33.7498L10.9338 35.0931L13.5384 32.3209L13.4791 32.2572Z" fill="#F7F7F7"/>
</g>
<g clip-path="url(#clip1)">
<path d="M11.6047 45.9536C9.06288 45.9536 7 48.0165 7 50.5583C7 53.1 9.06288 55.1629 11.6047 55.1629C14.1464 55.1629 16.2093 53.1 16.2093 50.5583C16.2093 48.0165 14.1464 45.9536 11.6047 45.9536Z" fill="#FF0076"/>
<path d="M9.25664 50.6336L10.9338 52.4187L13.9528 49.2054L13.4798 48.6984L10.9338 51.4083L9.72961 50.1301L9.25664 50.6336Z" fill="#F7F7F7"/>
<path fill-rule="evenodd" clip-rule="evenodd" d="M13.4805 48.2559L14.3671 49.2062L10.9338 52.8605L8.84155 50.6336L9.72932 49.6886L10.9335 50.9668L13.4805 48.2559ZM13.4791 49.141L10.9341 51.8498L9.7299 50.5716L9.67172 50.6336L10.9338 51.9769L13.5384 49.2046L13.4791 49.141Z" fill="#F7F7F7"/>
</g>
<g clip-path="url(#clip2)">
<path d="M11.6047 62.8372C9.06288 62.8372 7 64.9 7 67.4418C7 69.9836 9.06288 72.0465 11.6047 72.0465C14.1464 72.0465 16.2093 69.9836 16.2093 67.4418C16.2093 64.9 14.1464 62.8372 11.6047 62.8372Z" fill="#FF0076"/>
<path d="M9.25664 67.5171L10.9338 69.3023L13.9528 66.089L13.4798 65.582L10.9338 68.2919L9.72961 67.0137L9.25664 67.5171Z" fill="#F7F7F7"/>
<path fill-rule="evenodd" clip-rule="evenodd" d="M13.4805 65.1394L14.3671 66.0898L10.9338 69.7441L8.84155 67.5171L9.72932 66.5722L10.9335 67.8504L13.4805 65.1394ZM13.4791 66.0246L10.9341 68.7334L9.7299 67.4552L9.67172 67.5171L10.9338 68.8604L13.5384 66.0882L13.4791 66.0246Z" fill="#F7F7F7"/>
</g>
<g clip-path="url(#clip3)">
<path d="M11.6047 79.7209C9.06288 79.7209 7 81.7838 7 84.3256C7 86.8674 9.06288 88.9302 11.6047 88.9302C14.1464 88.9302 16.2093 86.8674 16.2093 84.3256C16.2093 81.7838 14.1464 79.7209 11.6047 79.7209Z" fill="#FF0076"/>
<path d="M9.25664 84.4009L10.9338 86.186L13.9528 82.9728L13.4798 82.4658L10.9338 85.1756L9.72961 83.8975L9.25664 84.4009Z" fill="#F7F7F7"/>
<path fill-rule="evenodd" clip-rule="evenodd" d="M13.4805 82.0232L14.3671 82.9735L10.9338 86.6278L8.84155 84.4009L9.72932 83.456L10.9335 84.7341L13.4805 82.0232ZM13.4791 82.9084L10.9341 85.6171L9.7299 84.339L9.67172 84.4009L10.9338 85.7442L13.5384 82.972L13.4791 82.9084Z" fill="#F7F7F7"/>
</g>
<g opacity="0.7">
<path d="M141.504 36V33.6992H143.867V32.8789H141.504V31.2148H144.09V30.3633H140.496V36H141.504Z" fill="#506677"/>
<path d="M145.234 31.2344C145.531 31.2344 145.766 30.9961 145.766 30.707C145.766 30.4141 145.531 30.1797 145.234 30.1797C144.938 30.1797 144.699 30.4141 144.699 30.707C144.699 30.9961 144.938 31.2344 145.234 31.2344ZM144.75 36H145.723V31.8594H144.75V36Z" fill="#506677"/>
<path d="M146.539 36H147.512V33.5898C147.512 33.0078 147.844 32.6523 148.395 32.6523C148.559 32.6523 148.707 32.6758 148.789 32.707V31.8281C148.719 31.8125 148.609 31.7891 148.484 31.7891C147.996 31.7891 147.633 32.0781 147.492 32.582H147.473V31.8594H146.539V36Z" fill="#506677"/>
<path d="M149.215 33.0469C149.215 33.6602 149.613 34.0508 150.406 34.2266L151.094 34.3789C151.527 34.4766 151.676 34.6172 151.676 34.8672C151.676 35.1758 151.383 35.3711 150.91 35.3711C150.418 35.3711 150.141 35.168 150.066 34.7656H149.109C149.188 35.5664 149.828 36.082 150.91 36.082C151.926 36.082 152.645 35.5547 152.645 34.7734C152.645 34.1719 152.312 33.8398 151.453 33.6484L150.766 33.4961C150.332 33.3984 150.16 33.2344 150.16 32.9961C150.16 32.6914 150.445 32.4883 150.875 32.4883C151.324 32.4883 151.602 32.7266 151.641 33.1016H152.547C152.523 32.3164 151.883 31.7734 150.875 31.7734C149.875 31.7734 149.215 32.2891 149.215 33.0469Z" fill="#506677"/>
<path d="M153.535 30.8906V31.8594H152.941V32.6094H153.535V34.8984C153.535 35.7031 153.887 36.0195 154.781 36.0195C154.988 36.0195 155.18 36.0039 155.285 35.9805V35.2383C155.223 35.25 155.098 35.2578 155.008 35.2578C154.664 35.2578 154.508 35.1016 154.508 34.7617V32.6094H155.289V31.8594H154.508V30.8906H153.535Z" fill="#506677"/>
<path d="M158.062 31.2344C158.359 31.2344 158.594 30.9961 158.594 30.707C158.594 30.4141 158.359 30.1797 158.062 30.1797C157.766 30.1797 157.527 30.4141 157.527 30.707C157.527 30.9961 157.766 31.2344 158.062 31.2344ZM157.578 36H158.551V31.8594H157.578V36Z" fill="#506677"/>
<path d="M159.637 30.8906V31.8594H159.043V32.6094H159.637V34.8984C159.637 35.7031 159.988 36.0195 160.883 36.0195C161.09 36.0195 161.281 36.0039 161.387 35.9805V35.2383C161.324 35.25 161.199 35.2578 161.109 35.2578C160.766 35.2578 160.609 35.1016 160.609 34.7617V32.6094H161.391V31.8594H160.609V30.8906H159.637Z" fill="#506677"/>
<path d="M164.719 34.7617C164.613 35.1055 164.27 35.332 163.816 35.332C163.18 35.332 162.773 34.8867 162.773 34.2227V34.1641H165.668V33.8477C165.668 32.5898 164.934 31.7734 163.758 31.7734C162.562 31.7734 161.805 32.6367 161.805 33.9453C161.805 35.2656 162.555 36.082 163.797 36.082C164.777 36.082 165.504 35.543 165.629 34.7617H164.719ZM163.762 32.5273C164.32 32.5273 164.695 32.9375 164.715 33.5234H162.781C162.82 32.9453 163.215 32.5273 163.762 32.5273Z" fill="#506677"/>
<path d="M166.297 36H167.27V33.4648C167.27 32.9648 167.598 32.6016 168.066 32.6016C168.52 32.6016 168.801 32.8867 168.801 33.3477V36H169.746V33.4414C169.746 32.9453 170.066 32.6016 170.535 32.6016C171.012 32.6016 171.277 32.8906 171.277 33.3984V36H172.25V33.1602C172.25 32.332 171.715 31.7812 170.898 31.7812C170.301 31.7812 169.809 32.1016 169.609 32.6133H169.586C169.434 32.082 169.016 31.7812 168.43 31.7812C167.867 31.7812 167.43 32.0977 167.25 32.5781H167.23V31.8594H166.297V36Z" fill="#506677"/>
<path d="M140.273 51.4883C140.34 52.4609 141.16 53.0938 142.391 53.0938C143.652 53.0938 144.473 52.4414 144.473 51.3984C144.473 50.6016 144.008 50.1328 142.832 49.875L142.207 49.7383C141.438 49.5703 141.137 49.2656 141.137 48.8203C141.137 48.2461 141.68 47.9023 142.383 47.9023C143.117 47.9023 143.605 48.2812 143.668 48.8984H144.371C144.34 47.9414 143.527 47.2695 142.402 47.2695C141.234 47.2695 140.414 47.9219 140.414 48.8516C140.414 49.6523 140.902 50.1641 142.031 50.4102L142.656 50.5469C143.438 50.7188 143.75 51.0312 143.75 51.5039C143.75 52.0586 143.195 52.4609 142.43 52.4609C141.621 52.4609 141.059 52.0938 140.977 51.4883H140.273Z" fill="#506677"/>
<path d="M147.887 51.8359C147.773 52.2188 147.395 52.4805 146.879 52.4805C146.148 52.4805 145.691 51.9688 145.691 51.1914V51.1523H148.605V50.8945C148.605 49.6641 147.93 48.8672 146.832 48.8672C145.711 48.8672 144.992 49.7227 144.992 50.9844C144.992 52.2617 145.699 53.0703 146.863 53.0703C147.75 53.0703 148.438 52.5469 148.555 51.8359H147.887ZM146.82 49.457C147.461 49.457 147.887 49.9414 147.902 50.6211H145.695C145.738 49.9453 146.184 49.457 146.82 49.457Z" fill="#506677"/>
<path d="M152.668 50.2695C152.582 49.5391 151.977 48.8672 150.961 48.8672C149.84 48.8672 149.094 49.6875 149.094 50.9688C149.094 52.2773 149.844 53.0703 150.969 53.0703C151.891 53.0703 152.57 52.5 152.676 51.6914H152.008C151.891 52.1797 151.527 52.4727 150.973 52.4727C150.27 52.4727 149.785 51.9141 149.785 50.9688C149.785 50.0469 150.262 49.4648 150.965 49.4648C151.562 49.4648 151.906 49.8281 152.004 50.2695H152.668Z" fill="#506677"/>
<path d="M154.984 53.0703C156.105 53.0703 156.863 52.2617 156.863 50.9688C156.863 49.6719 156.105 48.8672 154.984 48.8672C153.859 48.8672 153.102 49.6719 153.102 50.9688C153.102 52.2617 153.859 53.0703 154.984 53.0703ZM154.984 52.4727C154.266 52.4727 153.793 51.9258 153.793 50.9688C153.793 50.0117 154.266 49.4648 154.984 49.4648C155.703 49.4648 156.172 50.0117 156.172 50.9688C156.172 51.9258 155.703 52.4727 154.984 52.4727Z" fill="#506677"/>
<path d="M157.551 53H158.23V50.6094C158.23 49.9219 158.648 49.4688 159.289 49.4688C159.914 49.4688 160.223 49.8281 160.223 50.4844V53H160.902V50.3633C160.902 49.4414 160.387 48.8672 159.496 48.8672C158.867 48.8672 158.434 49.1484 158.207 49.5859H158.191V48.9375H157.551V53Z" fill="#506677"/>
<path d="M163.309 53.0703C163.895 53.0703 164.359 52.7812 164.621 52.3125H164.633V53H165.281V47.3633H164.602V49.5977H164.586C164.344 49.1523 163.875 48.8672 163.293 48.8672C162.27 48.8672 161.57 49.6953 161.57 50.9688C161.57 52.2422 162.273 53.0703 163.309 53.0703ZM163.438 49.4648C164.137 49.4648 164.605 50.0625 164.605 50.9688C164.605 51.8789 164.137 52.4727 163.438 52.4727C162.719 52.4727 162.266 51.8906 162.266 50.9688C162.266 50.0508 162.719 49.4648 163.438 49.4648Z" fill="#506677"/>
<path d="M168.215 48.2148C168.453 48.2148 168.641 48.0234 168.641 47.7891C168.641 47.5508 168.453 47.3633 168.215 47.3633C167.98 47.3633 167.789 47.5508 167.789 47.7891C167.789 48.0234 167.98 48.2148 168.215 48.2148ZM167.875 53H168.555V48.9375H167.875V53Z" fill="#506677"/>
<path d="M169.691 47.957V48.9375H169.086V49.4961H169.691V51.9453C169.691 52.7266 169.98 53.0312 170.727 53.0312C170.887 53.0312 171.074 53.0195 171.156 53V52.4297C171.109 52.4375 170.953 52.4492 170.875 52.4492C170.527 52.4492 170.371 52.2812 170.371 51.9102V49.4961H171.16V48.9375H170.371V47.957H169.691Z" fill="#506677"/>
<path d="M174.465 51.8359C174.352 52.2188 173.973 52.4805 173.457 52.4805C172.727 52.4805 172.27 51.9688 172.27 51.1914V51.1523H175.184V50.8945C175.184 49.6641 174.508 48.8672 173.41 48.8672C172.289 48.8672 171.57 49.7227 171.57 50.9844C171.57 52.2617 172.277 53.0703 173.441 53.0703C174.328 53.0703 175.016 52.5469 175.133 51.8359H174.465ZM173.398 49.457C174.039 49.457 174.465 49.9414 174.48 50.6211H172.273C172.316 49.9453 172.762 49.457 173.398 49.457Z" fill="#506677"/>
<path d="M175.871 53H176.551V50.4531C176.551 49.8906 176.941 49.4688 177.48 49.4688C177.984 49.4688 178.312 49.7891 178.312 50.2773V53H178.992V50.418C178.992 49.8672 179.371 49.4688 179.91 49.4688C180.445 49.4688 180.754 49.7969 180.754 50.3516V53H181.434V50.1953C181.434 49.3906 180.914 48.8672 180.109 48.8672C179.539 48.8672 179.062 49.1562 178.836 49.6406H178.82C178.645 49.1484 178.234 48.8672 177.68 48.8672C177.133 48.8672 176.719 49.1562 176.527 49.5859H176.512V48.9375H175.871V53Z" fill="#506677"/>
<path d="M142.676 70V64.9961H144.453V64.3633H140.195V64.9961H141.973V70H142.676Z" fill="#506677"/>
<path d="M145.125 70H145.805V67.6328C145.805 66.9297 146.223 66.4688 146.898 66.4688C147.535 66.4688 147.859 66.8555 147.859 67.5V70H148.539V67.375C148.539 66.4688 148 65.8672 147.109 65.8672C146.492 65.8672 146.047 66.1328 145.82 66.5859H145.805V64.3633H145.125V70Z" fill="#506677"/>
<path d="M149.777 65.2148C150.016 65.2148 150.203 65.0234 150.203 64.7891C150.203 64.5508 150.016 64.3633 149.777 64.3633C149.543 64.3633 149.352 64.5508 149.352 64.7891C149.352 65.0234 149.543 65.2148 149.777 65.2148ZM149.438 70H150.117V65.9375H149.438V70Z" fill="#506677"/>
<path d="M151.035 70H151.715V67.4688C151.715 66.8945 152.059 66.5156 152.586 66.5156C152.75 66.5156 152.895 66.5352 152.949 66.5547V65.8945C152.895 65.8867 152.793 65.8672 152.676 65.8672C152.199 65.8672 151.824 66.1523 151.691 66.6016H151.676V65.9375H151.035V70Z" fill="#506677"/>
<path d="M154.848 70.0703C155.434 70.0703 155.898 69.7812 156.16 69.3125H156.172V70H156.82V64.3633H156.141V66.5977H156.125C155.883 66.1523 155.414 65.8672 154.832 65.8672C153.809 65.8672 153.109 66.6953 153.109 67.9688C153.109 69.2422 153.812 70.0703 154.848 70.0703ZM154.977 66.4648C155.676 66.4648 156.145 67.0625 156.145 67.9688C156.145 68.8789 155.676 69.4727 154.977 69.4727C154.258 69.4727 153.805 68.8906 153.805 67.9688C153.805 67.0508 154.258 66.4648 154.977 66.4648Z" fill="#506677"/>
<path d="M160.188 70V64.3633H159.484V70H160.188Z" fill="#506677"/>
<path d="M161.395 64.957V65.9375H160.789V66.4961H161.395V68.9453C161.395 69.7266 161.684 70.0312 162.43 70.0312C162.59 70.0312 162.777 70.0195 162.859 70V69.4297C162.812 69.4375 162.656 69.4492 162.578 69.4492C162.23 69.4492 162.074 69.2812 162.074 68.9102V66.4961H162.863V65.9375H162.074V64.957H161.395Z" fill="#506677"/>
<path d="M166.168 68.8359C166.055 69.2188 165.676 69.4805 165.16 69.4805C164.43 69.4805 163.973 68.9688 163.973 68.1914V68.1523H166.887V67.8945C166.887 66.6641 166.211 65.8672 165.113 65.8672C163.992 65.8672 163.273 66.7227 163.273 67.9844C163.273 69.2617 163.98 70.0703 165.145 70.0703C166.031 70.0703 166.719 69.5469 166.836 68.8359H166.168ZM165.102 66.457C165.742 66.457 166.168 66.9414 166.184 67.6211H163.977C164.02 66.9453 164.465 66.457 165.102 66.457Z" fill="#506677"/>
<path d="M167.574 70H168.254V67.4531C168.254 66.8906 168.645 66.4688 169.184 66.4688C169.688 66.4688 170.016 66.7891 170.016 67.2773V70H170.695V67.418C170.695 66.8672 171.074 66.4688 171.613 66.4688C172.148 66.4688 172.457 66.7969 172.457 67.3516V70H173.137V67.1953C173.137 66.3906 172.617 65.8672 171.812 65.8672C171.242 65.8672 170.766 66.1562 170.539 66.6406H170.523C170.348 66.1484 169.938 65.8672 169.383 65.8672C168.836 65.8672 168.422 66.1562 168.23 66.5859H168.215V65.9375H167.574V70Z" fill="#506677"/>
<path d="M141.25 87V84.5586H143.746V83.9336H141.25V81.9961H143.969V81.3633H140.547V87H141.25Z" fill="#506677"/>
<path d="M146.195 87.0703C147.316 87.0703 148.074 86.2617 148.074 84.9688C148.074 83.6719 147.316 82.8672 146.195 82.8672C145.07 82.8672 144.312 83.6719 144.312 84.9688C144.312 86.2617 145.07 87.0703 146.195 87.0703ZM146.195 86.4727C145.477 86.4727 145.004 85.9258 145.004 84.9688C145.004 84.0117 145.477 83.4648 146.195 83.4648C146.914 83.4648 147.383 84.0117 147.383 84.9688C147.383 85.9258 146.914 86.4727 146.195 86.4727Z" fill="#506677"/>
<path d="M152.098 82.9375H151.418V85.3242C151.418 86.0156 151.02 86.4688 150.359 86.4688C149.73 86.4688 149.422 86.1133 149.422 85.4531V82.9375H148.742V85.5742C148.742 86.4961 149.262 87.0703 150.148 87.0703C150.773 87.0703 151.195 86.8086 151.438 86.3398H151.453V87H152.098V82.9375Z" fill="#506677"/>
<path d="M152.98 87H153.66V84.4688C153.66 83.8945 154.004 83.5156 154.531 83.5156C154.695 83.5156 154.84 83.5352 154.895 83.5547V82.8945C154.84 82.8867 154.738 82.8672 154.621 82.8672C154.145 82.8672 153.77 83.1523 153.637 83.6016H153.621V82.9375H152.98V87Z" fill="#506677"/>
<path d="M155.668 81.957V82.9375H155.062V83.4961H155.668V85.9453C155.668 86.7266 155.957 87.0312 156.703 87.0312C156.863 87.0312 157.051 87.0195 157.133 87V86.4297C157.086 86.4375 156.93 86.4492 156.852 86.4492C156.504 86.4492 156.348 86.2812 156.348 85.9102V83.4961H157.137V82.9375H156.348V81.957H155.668Z" fill="#506677"/>
<path d="M157.898 87H158.578V84.6328C158.578 83.9297 158.996 83.4688 159.672 83.4688C160.309 83.4688 160.633 83.8555 160.633 84.5V87H161.312V84.375C161.312 83.4688 160.773 82.8672 159.883 82.8672C159.266 82.8672 158.82 83.1328 158.594 83.5859H158.578V81.3633H157.898V87Z" fill="#506677"/>
<path d="M164.625 87V81.3633H163.922V87H164.625Z" fill="#506677"/>
<path d="M165.832 81.957V82.9375H165.227V83.4961H165.832V85.9453C165.832 86.7266 166.121 87.0312 166.867 87.0312C167.027 87.0312 167.215 87.0195 167.297 87V86.4297C167.25 86.4375 167.094 86.4492 167.016 86.4492C166.668 86.4492 166.512 86.2812 166.512 85.9102V83.4961H167.301V82.9375H166.512V81.957H165.832Z" fill="#506677"/>
<path d="M170.605 85.8359C170.492 86.2188 170.113 86.4805 169.598 86.4805C168.867 86.4805 168.41 85.9688 168.41 85.1914V85.1523H171.324V84.8945C171.324 83.6641 170.648 82.8672 169.551 82.8672C168.43 82.8672 167.711 83.7227 167.711 84.9844C167.711 86.2617 168.418 87.0703 169.582 87.0703C170.469 87.0703 171.156 86.5469 171.273 85.8359H170.605ZM169.539 83.457C170.18 83.457 170.605 83.9414 170.621 84.6211H168.414C168.457 83.9453 168.902 83.457 169.539 83.457Z" fill="#506677"/>
<path d="M172.012 87H172.691V84.4531C172.691 83.8906 173.082 83.4688 173.621 83.4688C174.125 83.4688 174.453 83.7891 174.453 84.2773V87H175.133V84.418C175.133 83.8672 175.512 83.4688 176.051 83.4688C176.586 83.4688 176.895 83.7969 176.895 84.3516V87H177.574V84.1953C177.574 83.3906 177.055 82.8672 176.25 82.8672C175.68 82.8672 175.203 83.1562 174.977 83.6406H174.961C174.785 83.1484 174.375 82.8672 173.82 82.8672C173.273 82.8672 172.859 83.1562 172.668 83.5859H172.652V82.9375H172.012V87Z" fill="#506677"/>
</g>
<g opacity="0.7">
<path d="M126.874 36.1274C128.434 36.1274 129.361 34.8486 129.361 32.8184C129.361 30.7881 128.425 29.5312 126.874 29.5312C125.318 29.5312 124.378 30.7969 124.378 32.8228C124.378 34.8574 125.31 36.1274 126.874 36.1274ZM126.874 35.2002C126.013 35.2002 125.521 34.3213 125.521 32.8184C125.521 31.3418 126.021 30.4585 126.874 30.4585C127.722 30.4585 128.219 31.3374 128.219 32.8228C128.219 34.3257 127.731 35.2002 126.874 35.2002Z" fill="#506677"/>
<path d="M131.748 36H132.859V29.6587H131.739L130.082 30.8232V31.8647L131.721 30.7397H131.748V36Z" fill="#506677"/>
<path d="M126.874 53.1274C128.434 53.1274 129.361 51.8486 129.361 49.8184C129.361 47.7881 128.425 46.5312 126.874 46.5312C125.318 46.5312 124.378 47.7969 124.378 49.8228C124.378 51.8574 125.31 53.1274 126.874 53.1274ZM126.874 52.2002C126.013 52.2002 125.521 51.3213 125.521 49.8184C125.521 48.3418 126.021 47.4585 126.874 47.4585C127.722 47.4585 128.219 48.3374 128.219 49.8228C128.219 51.3257 127.731 52.2002 126.874 52.2002Z" fill="#506677"/>
<path d="M130.086 48.5527H131.15C131.15 47.9067 131.668 47.4409 132.354 47.4409C132.982 47.4409 133.4 47.8628 133.4 48.4165C133.4 48.8911 133.215 49.2075 132.389 50.0205L130.148 52.2266V53H134.604V52.0728H131.646V52.0508L133.044 50.6797C134.151 49.5898 134.507 49.0977 134.507 48.3462C134.507 47.3267 133.646 46.5312 132.354 46.5312C131.036 46.5312 130.086 47.3706 130.086 48.5527Z" fill="#506677"/>
<path d="M126.874 70.1274C128.434 70.1274 129.361 68.8486 129.361 66.8184C129.361 64.7881 128.425 63.5312 126.874 63.5312C125.318 63.5312 124.378 64.7969 124.378 66.8228C124.378 68.8574 125.31 70.1274 126.874 70.1274ZM126.874 69.2002C126.013 69.2002 125.521 68.3213 125.521 66.8184C125.521 65.3418 126.021 64.4585 126.874 64.4585C127.722 64.4585 128.219 65.3374 128.219 66.8228C128.219 68.3257 127.731 69.2002 126.874 69.2002Z" fill="#506677"/>
<path d="M131.655 67.1567H132.407C133.22 67.1567 133.712 67.5347 133.708 68.2114C133.708 68.7915 133.211 69.2002 132.486 69.2002C131.734 69.2002 131.229 68.8223 131.185 68.2466H130.1C130.157 69.3672 131.097 70.1274 132.486 70.1274C133.875 70.1274 134.859 69.3628 134.859 68.2378C134.859 67.3545 134.239 66.792 133.303 66.7041V66.6821C134.068 66.5239 134.635 65.9966 134.635 65.1968C134.635 64.2168 133.791 63.5312 132.477 63.5312C131.203 63.5312 130.311 64.252 130.236 65.3857H131.291C131.33 64.7881 131.809 64.4321 132.477 64.4321C133.176 64.4321 133.545 64.7925 133.545 65.3506C133.545 65.9131 133.079 66.313 132.38 66.313H131.655V67.1567Z" fill="#506677"/>
<path d="M126.874 87.1274C128.434 87.1274 129.361 85.8486 129.361 83.8184C129.361 81.7881 128.425 80.5312 126.874 80.5312C125.318 80.5312 124.378 81.7969 124.378 83.8228C124.378 85.8574 125.31 87.1274 126.874 87.1274ZM126.874 86.2002C126.013 86.2002 125.521 85.3213 125.521 83.8184C125.521 82.3418 126.021 81.4585 126.874 81.4585C127.722 81.4585 128.219 82.3374 128.219 83.8228C128.219 85.3257 127.731 86.2002 126.874 86.2002Z" fill="#506677"/>
<path d="M133.229 87H134.31V85.7827H135.171V84.8511H134.31V80.6587H132.697C131.321 82.6582 130.614 83.7832 130.064 84.8159V85.7827H133.229V87ZM131.084 84.8467C131.589 83.9238 132.205 82.9702 133.229 81.5024H133.246V84.8774H131.084V84.8467Z" fill="#506677"/>
</g>
<path d="M24.4688 193.363V199H25.6484V197.223H26.7031C27.8906 197.223 28.7148 196.449 28.7148 195.293C28.7148 194.133 27.918 193.363 26.7617 193.363H24.4688ZM25.6484 194.297H26.4492C27.125 194.297 27.5156 194.656 27.5156 195.297C27.5156 195.941 27.1211 196.301 26.4453 196.301H25.6484V194.297Z" fill="#FF0076"/>
<path d="M29.3164 199H30.457V196.66C30.457 196.07 30.7852 195.727 31.3477 195.727C31.5117 195.727 31.668 195.754 31.7617 195.793V194.789C31.6836 194.766 31.5703 194.746 31.4375 194.746C30.9453 194.746 30.5898 195.035 30.4414 195.566H30.418V194.812H29.3164V199Z" fill="#FF0076"/>
<path d="M32.8164 194.246C33.1484 194.246 33.4102 193.98 33.4102 193.66C33.4102 193.336 33.1484 193.074 32.8164 193.074C32.4844 193.074 32.2227 193.336 32.2227 193.66C32.2227 193.98 32.4844 194.246 32.8164 194.246ZM32.25 199H33.3906V194.812H32.25V199Z" fill="#FF0076"/>
<path d="M34.1523 199H35.293V196.473C35.293 196.004 35.5859 195.676 36.0195 195.676C36.4414 195.676 36.6953 195.941 36.6953 196.391V199H37.793V196.457C37.793 195.992 38.0781 195.676 38.5117 195.676C38.9531 195.676 39.1953 195.941 39.1953 196.426V199H40.3359V196.141C40.3359 195.297 39.7852 194.734 38.9648 194.734C38.3516 194.734 37.8516 195.066 37.6641 195.594H37.6406C37.5 195.047 37.0781 194.734 36.4727 194.734C35.9023 194.734 35.4531 195.066 35.2773 195.57H35.2539V194.812H34.1523V199Z" fill="#FF0076"/>
<path d="M42.3008 199.066C42.8242 199.066 43.3438 198.805 43.5781 198.359H43.6016V199H44.7031V196.121C44.7031 195.277 44.0039 194.723 42.9297 194.723C41.8203 194.723 41.1289 195.281 41.0859 196.094H42.1289C42.1836 195.785 42.4531 195.574 42.8789 195.574C43.3086 195.574 43.582 195.801 43.582 196.191V196.469L42.5273 196.531C41.4844 196.594 40.8984 197.035 40.8984 197.797C40.8984 198.551 41.5039 199.066 42.3008 199.066ZM42.6758 198.242C42.2891 198.242 42.0312 198.047 42.0312 197.734C42.0312 197.438 42.2734 197.246 42.6992 197.215L43.582 197.16V197.465C43.582 197.918 43.1719 198.242 42.6758 198.242Z" fill="#FF0076"/>
<path d="M45.4414 199H46.582V196.66C46.582 196.07 46.9102 195.727 47.4727 195.727C47.6367 195.727 47.793 195.754 47.8867 195.793V194.789C47.8086 194.766 47.6953 194.746 47.5625 194.746C47.0703 194.746 46.7148 195.035 46.5664 195.566H46.543V194.812H45.4414V199Z" fill="#FF0076"/>
<path d="M48.8945 200.551C49.9609 200.551 50.4883 200.164 50.8438 199.09L52.2852 194.812H51.082L50.1953 198.086H50.1719L49.2812 194.812H48.0312L49.4883 199C49.4922 199.02 49.4492 199.184 49.4492 199.203C49.3711 199.535 49.1641 199.668 48.75 199.668C48.707 199.668 48.5 199.664 48.4609 199.656V200.539C48.5 200.547 48.8516 200.551 48.8945 200.551Z" fill="#FF0076"/>
<path d="M58.0352 198.023H55.5703V193.363H54.3906V199H58.0352V198.023Z" fill="#FF0076"/>
<path d="M59.2227 194.246C59.5547 194.246 59.8164 193.98 59.8164 193.66C59.8164 193.336 59.5547 193.074 59.2227 193.074C58.8906 193.074 58.6289 193.336 58.6289 193.66C58.6289 193.98 58.8906 194.246 59.2227 194.246ZM58.6562 199H59.7969V194.812H58.6562V199Z" fill="#FF0076"/>
<path d="M60.5586 199H61.6992V196.598C61.6992 196.055 62.0234 195.68 62.5352 195.68C63.0469 195.68 63.3047 195.992 63.3047 196.539V199H64.4453V196.301C64.4453 195.32 63.9219 194.734 62.9922 194.734C62.3477 194.734 61.9062 195.039 61.6836 195.559H61.6602V194.812H60.5586V199Z" fill="#FF0076"/>
<path d="M66.3516 196.492H66.3359V193.363H65.1953V199H66.3359V197.617L66.6328 197.297L67.832 199H69.1445L67.4688 196.609L69.0664 194.812H67.7734L66.3516 196.492Z" fill="#FF0076"/>
<path d="M77.5352 196.145C77.5352 196.004 77.4766 195.855 77.3789 195.762L75.4062 193.789C75.3008 193.684 75.168 193.625 75.0469 193.625C74.7383 193.625 74.5312 193.84 74.5312 194.117C74.5312 194.277 74.6016 194.398 74.6992 194.492L75.3516 195.145L75.9102 195.656L75.2656 195.625H72.0117C71.6875 195.625 71.4688 195.832 71.4688 196.145C71.4688 196.457 71.6875 196.664 72.0117 196.664H75.2656L75.9102 196.629L75.3516 197.145L74.6992 197.793C74.6016 197.887 74.5312 198.008 74.5312 198.168C74.5312 198.445 74.7383 198.66 75.0469 198.66C75.168 198.66 75.2969 198.605 75.4062 198.496L77.3789 196.527C77.4766 196.434 77.5352 196.285 77.5352 196.145Z" fill="#FF0076"/>
<path d="M137.254 197.391C137.289 198.453 138.184 199.094 139.527 199.094C140.938 199.094 141.801 198.398 141.801 197.297C141.801 196.441 141.281 195.961 140.09 195.723L139.492 195.602C138.828 195.469 138.555 195.254 138.555 194.906C138.555 194.492 138.945 194.219 139.527 194.219C140.121 194.219 140.539 194.508 140.578 194.988H141.691C141.672 193.953 140.844 193.266 139.527 193.266C138.273 193.266 137.375 193.949 137.375 194.98C137.375 195.82 137.926 196.359 139.051 196.582L139.645 196.699C140.352 196.844 140.617 197.055 140.617 197.426C140.617 197.84 140.188 198.145 139.559 198.145C138.918 198.145 138.441 197.863 138.367 197.391H137.254Z" fill="#0495FE"/>
<path d="M145.199 197.719C145.094 198.039 144.773 198.246 144.355 198.246C143.773 198.246 143.395 197.836 143.395 197.238V197.168H146.281V196.82C146.281 195.547 145.512 194.723 144.293 194.723C143.055 194.723 142.273 195.59 142.273 196.926C142.273 198.266 143.047 199.09 144.336 199.09C145.371 199.09 146.121 198.539 146.246 197.719H145.199ZM144.305 195.566C144.812 195.566 145.16 195.934 145.184 196.469H143.406C143.445 195.945 143.805 195.566 144.305 195.566Z" fill="#0495FE"/>
<path d="M150.676 196.371C150.625 195.422 149.906 194.723 148.773 194.723C147.52 194.723 146.719 195.559 146.719 196.902C146.719 198.27 147.52 199.09 148.781 199.09C149.883 199.09 150.621 198.453 150.68 197.465H149.617C149.547 197.922 149.25 198.195 148.793 198.195C148.227 198.195 147.875 197.727 147.875 196.902C147.875 196.094 148.227 195.617 148.789 195.617C149.258 195.617 149.551 195.93 149.617 196.371H150.676Z" fill="#0495FE"/>
<path d="M153.152 199.09C154.418 199.09 155.227 198.281 155.227 196.902C155.227 195.543 154.406 194.723 153.152 194.723C151.898 194.723 151.078 195.547 151.078 196.902C151.078 198.277 151.887 199.09 153.152 199.09ZM153.152 198.219C152.59 198.219 152.234 197.746 152.234 196.906C152.234 196.074 152.598 195.594 153.152 195.594C153.707 195.594 154.066 196.074 154.066 196.906C154.066 197.746 153.711 198.219 153.152 198.219Z" fill="#0495FE"/>
<path d="M155.816 199H156.957V196.598C156.957 196.055 157.281 195.68 157.793 195.68C158.305 195.68 158.562 195.992 158.562 196.539V199H159.703V196.301C159.703 195.32 159.18 194.734 158.25 194.734C157.605 194.734 157.164 195.039 156.941 195.559H156.918V194.812H155.816V199Z" fill="#0495FE"/>
<path d="M161.98 199.066C162.598 199.066 163.082 198.742 163.285 198.281H163.305V199H164.43V193.363H163.289V195.531H163.266C163.062 195.066 162.594 194.746 161.988 194.746C160.938 194.746 160.273 195.57 160.273 196.898C160.273 198.238 160.934 199.066 161.98 199.066ZM162.367 195.66C162.934 195.66 163.297 196.145 163.297 196.906C163.297 197.672 162.934 198.148 162.367 198.148C161.793 198.148 161.441 197.676 161.441 196.906C161.441 196.141 161.793 195.66 162.367 195.66Z" fill="#0495FE"/>
<path d="M166.434 199.066C166.957 199.066 167.477 198.805 167.711 198.359H167.734V199H168.836V196.121C168.836 195.277 168.137 194.723 167.062 194.723C165.953 194.723 165.262 195.281 165.219 196.094H166.262C166.316 195.785 166.586 195.574 167.012 195.574C167.441 195.574 167.715 195.801 167.715 196.191V196.469L166.66 196.531C165.617 196.594 165.031 197.035 165.031 197.797C165.031 198.551 165.637 199.066 166.434 199.066ZM166.809 198.242C166.422 198.242 166.164 198.047 166.164 197.734C166.164 197.438 166.406 197.246 166.832 197.215L167.715 197.16V197.465C167.715 197.918 167.305 198.242 166.809 198.242Z" fill="#0495FE"/>
<path d="M169.574 199H170.715V196.66C170.715 196.07 171.043 195.727 171.605 195.727C171.77 195.727 171.926 195.754 172.02 195.793V194.789C171.941 194.766 171.828 194.746 171.695 194.746C171.203 194.746 170.848 195.035 170.699 195.566H170.676V194.812H169.574V199Z" fill="#0495FE"/>
<path d="M173.027 200.551C174.094 200.551 174.621 200.164 174.977 199.09L176.418 194.812H175.215L174.328 198.086H174.305L173.414 194.812H172.164L173.621 199C173.625 199.02 173.582 199.184 173.582 199.203C173.504 199.535 173.297 199.668 172.883 199.668C172.84 199.668 172.633 199.664 172.594 199.656V200.539C172.633 200.547 172.984 200.551 173.027 200.551Z" fill="#0495FE"/>
<path d="M183.754 198.023H181.289V193.363H180.109V199H183.754V198.023Z" fill="#0495FE"/>
<path d="M184.941 194.246C185.273 194.246 185.535 193.98 185.535 193.66C185.535 193.336 185.273 193.074 184.941 193.074C184.609 193.074 184.348 193.336 184.348 193.66C184.348 193.98 184.609 194.246 184.941 194.246ZM184.375 199H185.516V194.812H184.375V199Z" fill="#0495FE"/>
<path d="M186.277 199H187.418V196.598C187.418 196.055 187.742 195.68 188.254 195.68C188.766 195.68 189.023 195.992 189.023 196.539V199H190.164V196.301C190.164 195.32 189.641 194.734 188.711 194.734C188.066 194.734 187.625 195.039 187.402 195.559H187.379V194.812H186.277V199Z" fill="#0495FE"/>
<path d="M192.07 196.492H192.055V193.363H190.914V199H192.055V197.617L192.352 197.297L193.551 199H194.863L193.188 196.609L194.785 194.812H193.492L192.07 196.492Z" fill="#0495FE"/>
<path d="M203.254 196.145C203.254 196.004 203.195 195.855 203.098 195.762L201.125 193.789C201.02 193.684 200.887 193.625 200.766 193.625C200.457 193.625 200.25 193.84 200.25 194.117C200.25 194.277 200.32 194.398 200.418 194.492L201.07 195.145L201.629 195.656L200.984 195.625H197.73C197.406 195.625 197.188 195.832 197.188 196.145C197.188 196.457 197.406 196.664 197.73 196.664H200.984L201.629 196.629L201.07 197.145L200.418 197.793C200.32 197.887 200.25 198.008 200.25 198.168C200.25 198.445 200.457 198.66 200.766 198.66C200.887 198.66 201.016 198.605 201.125 198.496L203.098 196.527C203.195 196.434 203.254 196.285 203.254 196.145Z" fill="#0495FE"/>
<rect x="7" y="133" width="89" height="22" rx="3" fill="#FF0076" fill-opacity="0.5"/>
<rect x="7" y="161" width="89" height="22" rx="3" fill="#FF0076" fill-opacity="0.2"/>
<g filter="url(#filter0_d)">
<rect x="7" y="105" width="89" height="22" rx="3" fill="#FF0076"/>
</g>
<path d="M20.125 113.363V119H21.3047V117.223H22.3594C23.5469 117.223 24.3711 116.449 24.3711 115.293C24.3711 114.133 23.5742 113.363 22.418 113.363H20.125ZM21.3047 114.297H22.1055C22.7812 114.297 23.1719 114.656 23.1719 115.297C23.1719 115.941 22.7773 116.301 22.1016 116.301H21.3047V114.297Z" fill="white"/>
<path d="M24.9727 119H26.1133V116.66C26.1133 116.07 26.4414 115.727 27.0039 115.727C27.168 115.727 27.3242 115.754 27.418 115.793V114.789C27.3398 114.766 27.2266 114.746 27.0938 114.746C26.6016 114.746 26.2461 115.035 26.0977 115.566H26.0742V114.812H24.9727V119Z" fill="white"/>
<path d="M28.4727 114.246C28.8047 114.246 29.0664 113.98 29.0664 113.66C29.0664 113.336 28.8047 113.074 28.4727 113.074C28.1406 113.074 27.8789 113.336 27.8789 113.66C27.8789 113.98 28.1406 114.246 28.4727 114.246ZM27.9062 119H29.0469V114.812H27.9062V119Z" fill="white"/>
<path d="M29.8086 119H30.9492V116.473C30.9492 116.004 31.2422 115.676 31.6758 115.676C32.0977 115.676 32.3516 115.941 32.3516 116.391V119H33.4492V116.457C33.4492 115.992 33.7344 115.676 34.168 115.676C34.6094 115.676 34.8516 115.941 34.8516 116.426V119H35.9922V116.141C35.9922 115.297 35.4414 114.734 34.6211 114.734C34.0078 114.734 33.5078 115.066 33.3203 115.594H33.2969C33.1562 115.047 32.7344 114.734 32.1289 114.734C31.5586 114.734 31.1094 115.066 30.9336 115.57H30.9102V114.812H29.8086V119Z" fill="white"/>
<path d="M37.957 119.066C38.4805 119.066 39 118.805 39.2344 118.359H39.2578V119H40.3594V116.121C40.3594 115.277 39.6602 114.723 38.5859 114.723C37.4766 114.723 36.7852 115.281 36.7422 116.094H37.7852C37.8398 115.785 38.1094 115.574 38.5352 115.574C38.9648 115.574 39.2383 115.801 39.2383 116.191V116.469L38.1836 116.531C37.1406 116.594 36.5547 117.035 36.5547 117.797C36.5547 118.551 37.1602 119.066 37.957 119.066ZM38.332 118.242C37.9453 118.242 37.6875 118.047 37.6875 117.734C37.6875 117.438 37.9297 117.246 38.3555 117.215L39.2383 117.16V117.465C39.2383 117.918 38.8281 118.242 38.332 118.242Z" fill="white"/>
<path d="M41.0977 119H42.2383V116.66C42.2383 116.07 42.5664 115.727 43.1289 115.727C43.293 115.727 43.4492 115.754 43.543 115.793V114.789C43.4648 114.766 43.3516 114.746 43.2188 114.746C42.7266 114.746 42.3711 115.035 42.2227 115.566H42.1992V114.812H41.0977V119Z" fill="white"/>
<path d="M44.5508 120.551C45.6172 120.551 46.1445 120.164 46.5 119.09L47.9414 114.812H46.7383L45.8516 118.086H45.8281L44.9375 114.812H43.6875L45.1445 119C45.1484 119.02 45.1055 119.184 45.1055 119.203C45.0273 119.535 44.8203 119.668 44.4062 119.668C44.3633 119.668 44.1562 119.664 44.1172 119.656V120.539C44.1562 120.547 44.5078 120.551 44.5508 120.551Z" fill="white"/>
<path d="M52.543 119C53.7461 119 54.4922 118.379 54.4922 117.387C54.4922 116.641 53.9297 116.082 53.1641 116.023V115.992C53.7617 115.902 54.2227 115.387 54.2227 114.77C54.2227 113.906 53.5586 113.363 52.5 113.363H50.0469V119H52.543ZM51.2266 114.242H52.1953C52.7461 114.242 53.0625 114.5 53.0625 114.953C53.0625 115.43 52.7031 115.707 52.0742 115.707H51.2266V114.242ZM51.2266 118.121V116.484H52.2148C52.9102 116.484 53.2891 116.766 53.2891 117.293C53.2891 117.832 52.9219 118.121 52.2422 118.121H51.2266Z" fill="white"/>
<path d="M58.9336 114.812H57.793V117.211C57.793 117.766 57.4766 118.129 56.9688 118.129C56.4648 118.129 56.1875 117.832 56.1875 117.273V114.812H55.0469V117.512C55.0469 118.488 55.6484 119.078 56.5547 119.078C57.1875 119.078 57.6016 118.773 57.8086 118.246H57.832V119H58.9336V114.812Z" fill="white"/>
<path d="M59.9805 113.848V114.812H59.3906V115.672H59.9805V117.871C59.9805 118.688 60.3633 119.016 61.3477 119.016C61.5781 119.016 61.7734 118.996 61.8906 118.969V118.129C61.8203 118.141 61.7148 118.148 61.6133 118.148C61.2773 118.148 61.1211 117.996 61.1211 117.676V115.672H61.8945V114.812H61.1211V113.848H59.9805Z" fill="white"/>
<path d="M62.8242 113.848V114.812H62.2344V115.672H62.8242V117.871C62.8242 118.688 63.207 119.016 64.1914 119.016C64.4219 119.016 64.6172 118.996 64.7344 118.969V118.129C64.6641 118.141 64.5586 118.148 64.457 118.148C64.1211 118.148 63.9648 117.996 63.9648 117.676V115.672H64.7383V114.812H63.9648V113.848H62.8242Z" fill="white"/>
<path d="M67.2227 119.09C68.4883 119.09 69.2969 118.281 69.2969 116.902C69.2969 115.543 68.4766 114.723 67.2227 114.723C65.9688 114.723 65.1484 115.547 65.1484 116.902C65.1484 118.277 65.957 119.09 67.2227 119.09ZM67.2227 118.219C66.6602 118.219 66.3047 117.746 66.3047 116.906C66.3047 116.074 66.668 115.594 67.2227 115.594C67.7773 115.594 68.1367 116.074 68.1367 116.906C68.1367 117.746 67.7812 118.219 67.2227 118.219Z" fill="white"/>
<path d="M69.8867 119H71.0273V116.598C71.0273 116.055 71.3516 115.68 71.8633 115.68C72.375 115.68 72.6328 115.992 72.6328 116.539V119H73.7734V116.301C73.7734 115.32 73.25 114.734 72.3203 114.734C71.6758 114.734 71.2344 115.039 71.0117 115.559H70.9883V114.812H69.8867V119Z" fill="white"/>
<path d="M82.5586 116.145C82.5586 116.004 82.5 115.855 82.4023 115.762L80.4297 113.789C80.3242 113.684 80.1914 113.625 80.0703 113.625C79.7617 113.625 79.5547 113.84 79.5547 114.117C79.5547 114.277 79.625 114.398 79.7227 114.492L80.375 115.145L80.9336 115.656L80.2891 115.625H77.0352C76.7109 115.625 76.4922 115.832 76.4922 116.145C76.4922 116.457 76.7109 116.664 77.0352 116.664H80.2891L80.9336 116.629L80.375 117.145L79.7227 117.793C79.625 117.887 79.5547 118.008 79.5547 118.168C79.5547 118.445 79.7617 118.66 80.0703 118.66C80.1914 118.66 80.3203 118.605 80.4297 118.496L82.4023 116.527C82.5 116.434 82.5586 116.285 82.5586 116.145Z" fill="white"/>
<rect x="124" y="161" width="98" height="22" rx="3" fill="#0495FE" fill-opacity="0.2"/>
<rect x="124" y="133" width="98" height="22" rx="3" fill="#0495FE" fill-opacity="0.5"/>
<g filter="url(#filter1_d)">
<rect x="124" y="105" width="98" height="22" rx="3" fill="#0495FE"/>
</g>
<path d="M135.844 117.391C135.879 118.453 136.773 119.094 138.117 119.094C139.527 119.094 140.391 118.398 140.391 117.297C140.391 116.441 139.871 115.961 138.68 115.723L138.082 115.602C137.418 115.469 137.145 115.254 137.145 114.906C137.145 114.492 137.535 114.219 138.117 114.219C138.711 114.219 139.129 114.508 139.168 114.988H140.281C140.262 113.953 139.434 113.266 138.117 113.266C136.863 113.266 135.965 113.949 135.965 114.98C135.965 115.82 136.516 116.359 137.641 116.582L138.234 116.699C138.941 116.844 139.207 117.055 139.207 117.426C139.207 117.84 138.777 118.145 138.148 118.145C137.508 118.145 137.031 117.863 136.957 117.391H135.844Z" fill="white"/>
<path d="M143.789 117.719C143.684 118.039 143.363 118.246 142.945 118.246C142.363 118.246 141.984 117.836 141.984 117.238V117.168H144.871V116.82C144.871 115.547 144.102 114.723 142.883 114.723C141.645 114.723 140.863 115.59 140.863 116.926C140.863 118.266 141.637 119.09 142.926 119.09C143.961 119.09 144.711 118.539 144.836 117.719H143.789ZM142.895 115.566C143.402 115.566 143.75 115.934 143.773 116.469H141.996C142.035 115.945 142.395 115.566 142.895 115.566Z" fill="white"/>
<path d="M149.266 116.371C149.215 115.422 148.496 114.723 147.363 114.723C146.109 114.723 145.309 115.559 145.309 116.902C145.309 118.27 146.109 119.09 147.371 119.09C148.473 119.09 149.211 118.453 149.27 117.465H148.207C148.137 117.922 147.84 118.195 147.383 118.195C146.816 118.195 146.465 117.727 146.465 116.902C146.465 116.094 146.816 115.617 147.379 115.617C147.848 115.617 148.141 115.93 148.207 116.371H149.266Z" fill="white"/>
<path d="M151.742 119.09C153.008 119.09 153.816 118.281 153.816 116.902C153.816 115.543 152.996 114.723 151.742 114.723C150.488 114.723 149.668 115.547 149.668 116.902C149.668 118.277 150.477 119.09 151.742 119.09ZM151.742 118.219C151.18 118.219 150.824 117.746 150.824 116.906C150.824 116.074 151.188 115.594 151.742 115.594C152.297 115.594 152.656 116.074 152.656 116.906C152.656 117.746 152.301 118.219 151.742 118.219Z" fill="white"/>
<path d="M154.406 119H155.547V116.598C155.547 116.055 155.871 115.68 156.383 115.68C156.895 115.68 157.152 115.992 157.152 116.539V119H158.293V116.301C158.293 115.32 157.77 114.734 156.84 114.734C156.195 114.734 155.754 115.039 155.531 115.559H155.508V114.812H154.406V119Z" fill="white"/>
<path d="M160.57 119.066C161.188 119.066 161.672 118.742 161.875 118.281H161.895V119H163.02V113.363H161.879V115.531H161.855C161.652 115.066 161.184 114.746 160.578 114.746C159.527 114.746 158.863 115.57 158.863 116.898C158.863 118.238 159.523 119.066 160.57 119.066ZM160.957 115.66C161.523 115.66 161.887 116.145 161.887 116.906C161.887 117.672 161.523 118.148 160.957 118.148C160.383 118.148 160.031 117.676 160.031 116.906C160.031 116.141 160.383 115.66 160.957 115.66Z" fill="white"/>
<path d="M165.023 119.066C165.547 119.066 166.066 118.805 166.301 118.359H166.324V119H167.426V116.121C167.426 115.277 166.727 114.723 165.652 114.723C164.543 114.723 163.852 115.281 163.809 116.094H164.852C164.906 115.785 165.176 115.574 165.602 115.574C166.031 115.574 166.305 115.801 166.305 116.191V116.469L165.25 116.531C164.207 116.594 163.621 117.035 163.621 117.797C163.621 118.551 164.227 119.066 165.023 119.066ZM165.398 118.242C165.012 118.242 164.754 118.047 164.754 117.734C164.754 117.438 164.996 117.246 165.422 117.215L166.305 117.16V117.465C166.305 117.918 165.895 118.242 165.398 118.242Z" fill="white"/>
<path d="M168.164 119H169.305V116.66C169.305 116.07 169.633 115.727 170.195 115.727C170.359 115.727 170.516 115.754 170.609 115.793V114.789C170.531 114.766 170.418 114.746 170.285 114.746C169.793 114.746 169.438 115.035 169.289 115.566H169.266V114.812H168.164V119Z" fill="white"/>
<path d="M171.617 120.551C172.684 120.551 173.211 120.164 173.566 119.09L175.008 114.812H173.805L172.918 118.086H172.895L172.004 114.812H170.754L172.211 119C172.215 119.02 172.172 119.184 172.172 119.203C172.094 119.535 171.887 119.668 171.473 119.668C171.43 119.668 171.223 119.664 171.184 119.656V120.539C171.223 120.547 171.574 120.551 171.617 120.551Z" fill="white"/>
<path d="M179.609 119C180.812 119 181.559 118.379 181.559 117.387C181.559 116.641 180.996 116.082 180.23 116.023V115.992C180.828 115.902 181.289 115.387 181.289 114.77C181.289 113.906 180.625 113.363 179.566 113.363H177.113V119H179.609ZM178.293 114.242H179.262C179.812 114.242 180.129 114.5 180.129 114.953C180.129 115.43 179.77 115.707 179.141 115.707H178.293V114.242ZM178.293 118.121V116.484H179.281C179.977 116.484 180.355 116.766 180.355 117.293C180.355 117.832 179.988 118.121 179.309 118.121H178.293Z" fill="white"/>
<path d="M186 114.812H184.859V117.211C184.859 117.766 184.543 118.129 184.035 118.129C183.531 118.129 183.254 117.832 183.254 117.273V114.812H182.113V117.512C182.113 118.488 182.715 119.078 183.621 119.078C184.254 119.078 184.668 118.773 184.875 118.246H184.898V119H186V114.812Z" fill="white"/>
<path d="M187.047 113.848V114.812H186.457V115.672H187.047V117.871C187.047 118.688 187.43 119.016 188.414 119.016C188.645 119.016 188.84 118.996 188.957 118.969V118.129C188.887 118.141 188.781 118.148 188.68 118.148C188.344 118.148 188.188 117.996 188.188 117.676V115.672H188.961V114.812H188.188V113.848H187.047Z" fill="white"/>
<path d="M189.891 113.848V114.812H189.301V115.672H189.891V117.871C189.891 118.688 190.273 119.016 191.258 119.016C191.488 119.016 191.684 118.996 191.801 118.969V118.129C191.73 118.141 191.625 118.148 191.523 118.148C191.188 118.148 191.031 117.996 191.031 117.676V115.672H191.805V114.812H191.031V113.848H189.891Z" fill="white"/>
<path d="M194.289 119.09C195.555 119.09 196.363 118.281 196.363 116.902C196.363 115.543 195.543 114.723 194.289 114.723C193.035 114.723 192.215 115.547 192.215 116.902C192.215 118.277 193.023 119.09 194.289 119.09ZM194.289 118.219C193.727 118.219 193.371 117.746 193.371 116.906C193.371 116.074 193.734 115.594 194.289 115.594C194.844 115.594 195.203 116.074 195.203 116.906C195.203 117.746 194.848 118.219 194.289 118.219Z" fill="white"/>
<path d="M196.953 119H198.094V116.598C198.094 116.055 198.418 115.68 198.93 115.68C199.441 115.68 199.699 115.992 199.699 116.539V119H200.84V116.301C200.84 115.32 200.316 114.734 199.387 114.734C198.742 114.734 198.301 115.039 198.078 115.559H198.055V114.812H196.953V119Z" fill="white"/>
<path d="M209.625 116.145C209.625 116.004 209.566 115.855 209.469 115.762L207.496 113.789C207.391 113.684 207.258 113.625 207.137 113.625C206.828 113.625 206.621 113.84 206.621 114.117C206.621 114.277 206.691 114.398 206.789 114.492L207.441 115.145L208 115.656L207.355 115.625H204.102C203.777 115.625 203.559 115.832 203.559 116.145C203.559 116.457 203.777 116.664 204.102 116.664H207.355L208 116.629L207.441 117.145L206.789 117.793C206.691 117.887 206.621 118.008 206.621 118.168C206.621 118.445 206.828 118.66 207.137 118.66C207.258 118.66 207.387 118.605 207.496 118.496L209.469 116.527C209.566 116.434 209.625 116.285 209.625 116.145Z" fill="white"/>
<path d="M3.1084 4.36133H1.12793V3.1543H3V2.55371H1.12793V1.41113H3.1084V0.772461H0.37207V5H3.1084V4.36133Z" fill="#FF0076"/>
<path d="M6.43945 4.36133H4.52051V0.772461H3.76465V5H6.43945V4.36133Z" fill="#FF0076"/>
<path d="M9.71777 4.36133H7.7373V3.1543H9.60938V2.55371H7.7373V1.41113H9.71777V0.772461H6.98145V5H9.71777V4.36133Z" fill="#FF0076"/>
<path d="M14.7363 5V0.772461H13.8633L12.5684 3.99805H12.5449L11.25 0.772461H10.374V5H11.0566V2H11.0771L12.2988 5H12.8145L14.0361 2H14.0566V5H14.7363Z" fill="#FF0076"/>
<path d="M18.2197 4.36133H16.2393V3.1543H18.1113V2.55371H16.2393V1.41113H18.2197V0.772461H15.4834V5H18.2197V4.36133Z" fill="#FF0076"/>
<path d="M19.6055 5V2.03516H19.6318L21.7324 5H22.3828V0.772461H21.6562V3.73438H21.6299L19.5322 0.772461H18.876V5H19.6055Z" fill="#FF0076"/>
<path d="M24.917 5V1.41113H26.1797V0.772461H22.8984V1.41113H24.1641V5H24.917Z" fill="#FF0076"/>
<path d="M26.5225 3.81934C26.5576 4.59277 27.2051 5.07031 28.1836 5.07031C29.2002 5.07031 29.8359 4.56055 29.8359 3.75195C29.8359 3.125 29.4639 2.76758 28.5732 2.58301L28.1162 2.48926C27.5889 2.37793 27.3779 2.19336 27.3779 1.90625C27.3779 1.55176 27.7119 1.3291 28.1807 1.3291C28.6641 1.3291 28.998 1.56934 29.0332 1.96777H29.7568C29.7393 1.21191 29.1211 0.702148 28.1865 0.702148C27.2695 0.702148 26.6162 1.20605 26.6162 1.9502C26.6162 2.56836 27.0117 2.9668 27.8584 3.13965L28.3125 3.2334C28.8633 3.34766 29.0742 3.53516 29.0742 3.83984C29.0742 4.19141 28.7197 4.44336 28.21 4.44336C27.6826 4.44336 27.3018 4.20898 27.2461 3.81934H26.5225Z" fill="#FF0076"/>
<defs>
<filter id="filter0_d" x="0" y="101" width="103" height="36" filterUnits="userSpaceOnUse" color-interpolation-filters="sRGB">
<feFlood flood-opacity="0" result="BackgroundImageFix"/>
<feColorMatrix in="SourceAlpha" type="matrix" values="0 0 0 0 0 0 0 0 0 0 0 0 0 0 0 0 0 0 127 0"/>
<feOffset dy="3"/>
<feGaussianBlur stdDeviation="3.5"/>
<feColorMatrix type="matrix" values="0 0 0 0 0 0 0 0 0 0 0 0 0 0 0 0 0 0 0.2 0"/>
<feBlend mode="normal" in2="BackgroundImageFix" result="effect1_dropShadow"/>
<feBlend mode="normal" in="SourceGraphic" in2="effect1_dropShadow" result="shape"/>
</filter>
<filter id="filter1_d" x="117" y="101" width="112" height="36" filterUnits="userSpaceOnUse" color-interpolation-filters="sRGB">
<feFlood flood-opacity="0" result="BackgroundImageFix"/>
<feColorMatrix in="SourceAlpha" type="matrix" values="0 0 0 0 0 0 0 0 0 0 0 0 0 0 0 0 0 0 127 0"/>
<feOffset dy="3"/>
<feGaussianBlur stdDeviation="3.5"/>
<feColorMatrix type="matrix" values="0 0 0 0 0 0 0 0 0 0 0 0 0 0 0 0 0 0 0.2 0"/>
<feBlend mode="normal" in2="BackgroundImageFix" result="effect1_dropShadow"/>
<feBlend mode="normal" in="SourceGraphic" in2="effect1_dropShadow" result="shape"/>
</filter>
<clipPath id="clip0">
<rect width="9.2093" height="9.2093" fill="white" transform="translate(7 29.0698)"/>
</clipPath>
<clipPath id="clip1">
<rect width="9.2093" height="9.2093" fill="white" transform="translate(7 45.9536)"/>
</clipPath>
<clipPath id="clip2">
<rect width="9.2093" height="9.2093" fill="white" transform="translate(7 62.8372)"/>
</clipPath>
<clipPath id="clip3">
<rect width="9.2093" height="9.2093" fill="white" transform="translate(7 79.7209)"/>
</clipPath>
</defs>
</svg>
