<svg width="186" height="60" viewBox="0 0 186 60" fill="none" xmlns="http://www.w3.org/2000/svg">
<rect y="26" width="34" height="34" fill="#1B223C"/>
<rect x="38" y="26" width="34" height="34" fill="#506677"/>
<rect x="76" y="26" width="34" height="34" fill="#FF0076"/>
<rect x="114" y="26" width="34" height="34" fill="#0496FF"/>
<rect x="152" y="26" width="34" height="34" fill="#F6F9FC"/>
<rect x="152.5" y="26.5" width="33" height="33" stroke="#506677" stroke-opacity="0.05"/>
<path d="M1.48242 17C2.08398 17 2.45703 16.6895 2.45703 16.1934C2.45703 15.8203 2.17578 15.541 1.79297 15.5117V15.4961C2.0918 15.4512 2.32227 15.1934 2.32227 14.8848C2.32227 14.4531 1.99023 14.1816 1.46094 14.1816H0.234375V17H1.48242ZM0.824219 14.6211H1.30859C1.58398 14.6211 1.74219 14.75 1.74219 14.9766C1.74219 15.2148 1.5625 15.3535 1.24805 15.3535H0.824219V14.6211ZM0.824219 16.5605V15.7422H1.31836C1.66602 15.7422 1.85547 15.8828 1.85547 16.1465C1.85547 16.416 1.67188 16.5605 1.33203 16.5605H0.824219Z" fill="#506677"/>
<path d="M2.74414 17H3.31445V15.8301C3.31445 15.5352 3.47852 15.3633 3.75977 15.3633C3.8418 15.3633 3.91992 15.377 3.9668 15.3965V14.8945C3.92773 14.8828 3.87109 14.873 3.80469 14.873C3.55859 14.873 3.38086 15.0176 3.30664 15.2832H3.29492V14.9062H2.74414V17Z" fill="#506677"/>
<path d="M4.77148 17.0332C5.0332 17.0332 5.29297 16.9023 5.41016 16.6797H5.42188V17H5.97266V15.5605C5.97266 15.1387 5.62305 14.8613 5.08594 14.8613C4.53125 14.8613 4.18555 15.1406 4.16406 15.5469H4.68555C4.71289 15.3926 4.84766 15.2871 5.06055 15.2871C5.27539 15.2871 5.41211 15.4004 5.41211 15.5957V15.7344L4.88477 15.7656C4.36328 15.7969 4.07031 16.0176 4.07031 16.3984C4.07031 16.7754 4.37305 17.0332 4.77148 17.0332ZM4.95898 16.6211C4.76562 16.6211 4.63672 16.5234 4.63672 16.3672C4.63672 16.2188 4.75781 16.123 4.9707 16.1074L5.41211 16.0801V16.2324C5.41211 16.459 5.20703 16.6211 4.95898 16.6211Z" fill="#506677"/>
<path d="M6.3418 17H6.91211V15.7988C6.91211 15.5273 7.07422 15.3398 7.33008 15.3398C7.58594 15.3398 7.71484 15.4961 7.71484 15.7695V17H8.28516V15.6504C8.28516 15.1602 8.02344 14.8672 7.55859 14.8672C7.23633 14.8672 7.01562 15.0195 6.9043 15.2793H6.89258V14.9062H6.3418V17Z" fill="#506677"/>
<path d="M9.42383 17.0332C9.73242 17.0332 9.97461 16.8711 10.0762 16.6406H10.0859V17H10.6484V14.1816H10.0781V15.2656H10.0664C9.96484 15.0332 9.73047 14.873 9.42773 14.873C8.90234 14.873 8.57031 15.2852 8.57031 15.9492C8.57031 16.6191 8.90039 17.0332 9.42383 17.0332ZM9.61719 15.3301C9.90039 15.3301 10.082 15.5723 10.082 15.9531C10.082 16.3359 9.90039 16.5742 9.61719 16.5742C9.33008 16.5742 9.1543 16.3379 9.1543 15.9531C9.1543 15.5703 9.33008 15.3301 9.61719 15.3301Z" fill="#506677"/>
<path d="M13.1172 17.0469C13.8086 17.0469 14.291 16.6504 14.3574 16.0215H13.7832C13.7207 16.3555 13.4688 16.5605 13.1191 16.5605C12.668 16.5605 12.3848 16.1895 12.3848 15.5879C12.3848 14.9941 12.6719 14.6211 13.1172 14.6211C13.4609 14.6211 13.7266 14.8477 13.7812 15.1934H14.3555C14.3105 14.5625 13.7949 14.1328 13.1172 14.1328C12.3008 14.1328 11.7832 14.6816 11.7832 15.5898C11.7832 16.5 12.2969 17.0469 13.1172 17.0469Z" fill="#506677"/>
<path d="M15.6348 17.0449C16.2676 17.0449 16.6719 16.6406 16.6719 15.9512C16.6719 15.2715 16.2617 14.8613 15.6348 14.8613C15.0078 14.8613 14.5977 15.2734 14.5977 15.9512C14.5977 16.6387 15.002 17.0449 15.6348 17.0449ZM15.6348 16.6094C15.3535 16.6094 15.1758 16.373 15.1758 15.9531C15.1758 15.5371 15.3574 15.2969 15.6348 15.2969C15.9121 15.2969 16.0918 15.5371 16.0918 15.9531C16.0918 16.373 15.9141 16.6094 15.6348 16.6094Z" fill="#506677"/>
<path d="M16.9805 17H17.5508V14.1816H16.9805V17Z" fill="#506677"/>
<path d="M18.8965 17.0449C19.5293 17.0449 19.9336 16.6406 19.9336 15.9512C19.9336 15.2715 19.5234 14.8613 18.8965 14.8613C18.2695 14.8613 17.8594 15.2734 17.8594 15.9512C17.8594 16.6387 18.2637 17.0449 18.8965 17.0449ZM18.8965 16.6094C18.6152 16.6094 18.4375 16.373 18.4375 15.9531C18.4375 15.5371 18.6191 15.2969 18.8965 15.2969C19.1738 15.2969 19.3535 15.5371 19.3535 15.9531C19.3535 16.373 19.1758 16.6094 18.8965 16.6094Z" fill="#506677"/>
<path d="M20.2285 17H20.7988V15.8301C20.7988 15.5352 20.9629 15.3633 21.2441 15.3633C21.3262 15.3633 21.4043 15.377 21.4512 15.3965V14.8945C21.4121 14.8828 21.3555 14.873 21.2891 14.873C21.043 14.873 20.8652 15.0176 20.791 15.2832H20.7793V14.9062H20.2285V17Z" fill="#506677"/>
<path d="M21.6504 15.5215C21.6504 15.8359 21.8555 16.0391 22.2598 16.125L22.6172 16.1992C22.8223 16.2461 22.8945 16.3086 22.8945 16.4199C22.8945 16.5566 22.7617 16.6445 22.5469 16.6445C22.3203 16.6445 22.1895 16.5469 22.1543 16.3633H21.5977C21.6348 16.7754 21.9688 17.0449 22.5469 17.0449C23.0859 17.0449 23.4629 16.7734 23.4629 16.3613C23.4629 16.0547 23.2832 15.8828 22.8457 15.791L22.4883 15.7148C22.2773 15.6699 22.1992 15.5977 22.1992 15.4902C22.1992 15.3516 22.3301 15.2617 22.5273 15.2617C22.7383 15.2617 22.8652 15.377 22.8828 15.5469H23.4082C23.3965 15.1367 23.0645 14.8613 22.5273 14.8613C21.9941 14.8613 21.6504 15.123 21.6504 15.5215Z" fill="#506677"/>
<path d="M2.19434 5.07031C3.19336 5.07031 3.88477 4.52246 4.0166 3.61719H3.27539C3.1582 4.12695 2.75684 4.42871 2.19727 4.42871C1.46484 4.42871 1.00195 3.83398 1.00195 2.88477C1.00195 1.94141 1.46777 1.34375 2.19434 1.34375C2.74219 1.34375 3.17285 1.69238 3.27246 2.22266H4.0166C3.92285 1.31445 3.17578 0.702148 2.19434 0.702148C0.993164 0.702148 0.228516 1.53711 0.228516 2.88477C0.228516 4.24121 0.987305 5.07031 2.19434 5.07031Z" fill="#FF0076"/>
<path d="M6.4541 0.702148C5.2207 0.702148 4.44727 1.54297 4.44727 2.8877C4.44727 4.23242 5.2207 5.07031 6.4541 5.07031C7.68457 5.07031 8.45801 4.23242 8.45801 2.8877C8.45801 1.54297 7.68457 0.702148 6.4541 0.702148ZM6.4541 1.34668C7.20703 1.34668 7.6875 1.94434 7.6875 2.8877C7.6875 3.82812 7.20703 4.42578 6.4541 4.42578C5.69824 4.42578 5.2207 3.82812 5.2207 2.8877C5.2207 1.94434 5.69824 1.34668 6.4541 1.34668Z" fill="#FF0076"/>
<path d="M11.7363 4.36133H9.81738V0.772461H9.06152V5H11.7363V4.36133Z" fill="#FF0076"/>
<path d="M13.9658 0.702148C12.7324 0.702148 11.959 1.54297 11.959 2.8877C11.959 4.23242 12.7324 5.07031 13.9658 5.07031C15.1963 5.07031 15.9697 4.23242 15.9697 2.8877C15.9697 1.54297 15.1963 0.702148 13.9658 0.702148ZM13.9658 1.34668C14.7188 1.34668 15.1992 1.94434 15.1992 2.8877C15.1992 3.82812 14.7188 4.42578 13.9658 4.42578C13.21 4.42578 12.7324 3.82812 12.7324 2.8877C12.7324 1.94434 13.21 1.34668 13.9658 1.34668Z" fill="#FF0076"/>
<path d="M17.3291 3.40918H18.1465L18.9785 5H19.8398L18.917 3.29492C19.4209 3.11328 19.7139 2.64746 19.7139 2.08789C19.7139 1.2793 19.166 0.772461 18.252 0.772461H16.5732V5H17.3291V3.40918ZM17.3291 1.38477H18.167C18.6445 1.38477 18.9404 1.66016 18.9404 2.10547C18.9404 2.5625 18.6621 2.8291 18.1816 2.8291H17.3291V1.38477Z" fill="#FF0076"/>
<path d="M21.5244 0.772461V5H22.2803V3.60254H23.1357C23.9912 3.60254 24.5918 3.03125 24.5918 2.1875C24.5918 1.34375 24.0088 0.772461 23.168 0.772461H21.5244ZM22.2803 1.39062H22.9688C23.5107 1.39062 23.8242 1.68066 23.8242 2.1875C23.8242 2.7002 23.5078 2.99316 22.9658 2.99316H22.2803V1.39062Z" fill="#FF0076"/>
<path d="M27.5391 5H28.3359L26.8359 0.772461H25.9834L24.4834 5H25.2627L25.623 3.90723H27.1787L27.5391 5ZM26.3906 1.51953H26.4111L27 3.32422H25.7988L26.3906 1.51953Z" fill="#FF0076"/>
<path d="M31.4648 4.36133H29.5459V0.772461H28.79V5H31.4648V4.36133Z" fill="#FF0076"/>
<path d="M34.7432 4.36133H32.7627V3.1543H34.6348V2.55371H32.7627V1.41113H34.7432V0.772461H32.0068V5H34.7432V4.36133Z" fill="#FF0076"/>
<path d="M37.1865 5V1.41113H38.4492V0.772461H35.168V1.41113H36.4336V5H37.1865Z" fill="#FF0076"/>
<path d="M40.7549 5V1.41113H42.0176V0.772461H38.7363V1.41113H40.002V5H40.7549Z" fill="#FF0076"/>
<path d="M45.2725 4.36133H43.292V3.1543H45.1641V2.55371H43.292V1.41113H45.2725V0.772461H42.5361V5H45.2725V4.36133Z" fill="#FF0076"/>
</svg>
