<svg width="132" height="56" viewBox="0 0 132 56" fill="none" xmlns="http://www.w3.org/2000/svg">
<path d="M127.131 25.2129L125.918 24L120.465 29.4538L121.677 30.6667L127.131 25.2129ZM130.778 24L121.677 33.1011L118.082 29.514L116.869 30.7269L121.677 35.5355L132 25.2129L130.778 24ZM112 30.7269L116.809 35.5355L118.022 34.3226L113.222 29.514L112 30.7269Z" fill="#FF0076"/>
<path d="M71.6667 34.6667C72.5833 34.6667 73.325 33.9167 73.325 33L73.3333 24.6667C73.3333 23.7417 72.5833 23 71.6667 23H58.3333C57.4083 23 56.6667 23.7417 56.6667 24.6667V33C56.6667 33.9167 57.4083 34.6667 58.3333 34.6667H55V36.3333H75V34.6667H71.6667ZM58.3333 33V24.6667H71.6667V33.0083L58.3333 33ZM65.8333 27.275C62.5917 27.725 61.3 29.9417 60.8333 32.1667C61.9917 30.6083 63.5167 29.9 65.8333 29.9V31.725L69.1667 28.6083L65.8333 25.5V27.275Z" fill="#FF0076"/>
<path d="M10 25V21H0V39H20V25H10ZM4 37H2V35H4V37ZM4 33H2V31H4V33ZM4 29H2V27H4V29ZM4 25H2V23H4V25ZM8 37H6V35H8V37ZM8 33H6V31H8V33ZM8 29H6V27H8V29ZM8 25H6V23H8V25ZM18 37H10V35H12V33H10V31H12V29H10V27H18V37ZM16 29H14V31H16V29ZM16 33H14V35H16V33Z" fill="#FF0076"/>
<path fill-rule="evenodd" clip-rule="evenodd" d="M38.25 -2.22461e-08L38.25 56L37.75 56L37.75 0L38.25 -2.22461e-08Z" fill="#506677" fill-opacity="0.1"/>
<path fill-rule="evenodd" clip-rule="evenodd" d="M95.25 -2.22461e-08L95.25 56L94.75 56L94.75 0L95.25 -2.22461e-08Z" fill="#506677" fill-opacity="0.1"/>
</svg>
