<svg width="382" height="70" viewBox="0 0 382 70" fill="none" xmlns="http://www.w3.org/2000/svg">
<path d="M2.68799 36.9486C4.91028 35.6873 6.93403 34.1682 9.2353 33.0636C10.8075 32.3089 10.5683 32.8326 10.4974 34.1088C10.4287 35.3454 10.1219 35.8064 11.661 35.3117C13.4428 34.739 16.3542 33.1833 15.6643 36.0414C15.2623 37.7067 15.3023 38.1524 16.9659 37.6585C19.1407 37.0129 21.7461 34.8187 23.9865 34.8187C24.6057 34.8187 24.1582 35.8442 24.9133 35.8442C25.6395 35.8442 29.1536 34.0116 29.2914 34.8384C29.9304 38.6727 36.0141 32.9873 36.3909 34.306C36.7126 35.4322 40.1823 34.264 41.0647 34.1877C41.8257 34.1218 43.5696 33.7739 44.1609 34.4835C44.4603 34.8428 44.4368 35.1905 45.0089 35.1737C46.5835 35.1274 51.1243 32.9847 52.4042 34.1482C52.6625 34.3831 52.1836 34.8187 52.7394 34.8187C53.3271 34.8187 53.9062 34.4442 54.4748 34.3257C55.6132 34.0885 55.3704 35.6058 56.5653 35.5287C57.3865 35.4757 60.587 33.1207 60.9827 33.7538C61.5535 34.667 61.3818 34.1482 62.3237 34.1482C63.3871 34.1482 62.3908 36.3115 63.7042 35.5681C65.0587 34.8014 66.4688 33.7568 68.1414 34.1285C69.2757 34.3806 69.8488 35.1402 71.3756 34.8187C72.2516 34.6343 72.9688 34.7303 73.8801 34.5426C75.0096 34.3101 74.7877 37.0669 76.1677 37.1458C77.5051 37.2222 78.4977 36.0776 79.7175 35.9034C80.8073 35.7477 81.3578 35.88 82.3798 36.0414C83.7866 36.2635 85.2535 35.0865 86.462 34.5426C87.0255 34.289 87.5921 37.3551 88.4341 37.5796C90.0747 38.0171 92.2664 35.4161 93.6404 34.8187C94.4579 34.4633 95.5256 34.3469 96.4013 34.1877C97.7019 33.9512 96.2752 35.4916 97.9592 34.3257C98.6571 33.8426 98.3538 34.8187 99.0636 34.8187C99.8661 34.8187 99.4975 35.7127 99.5961 36.2386C99.7036 36.8119 102.721 35.3151 103.146 35.1737" stroke="#3a4854" stroke-width="2" stroke-linecap="round" stroke-linejoin="round"/>
<path d="M4.10791 48.3078C6.79376 47.7706 9.21593 47.5978 11.9371 47.5978C13.6353 47.5978 16.7199 46.9635 18.3069 47.5189C21.2801 48.5595 25.0901 47.5978 28.2462 47.5978C33.6356 47.5978 38.8284 46.8879 44.2201 46.8879C45.8387 46.8879 47.4266 46.3657 49.0122 46.7104C50.4222 47.0169 51.7698 46.4153 53.1733 46.6118C54.4078 46.7846 55.5713 46.8879 56.8217 46.8879C65.5493 46.8879 74.2754 47.9528 82.9715 47.9528C86.4198 47.9528 89.7586 47.5978 93.2263 47.5978C94.2078 47.5978 100.107 47.6404 99.9511 47.9528" stroke="#3a4854" stroke-width="2" stroke-linecap="round" stroke-linejoin="round"/>
<path d="M2.33301 58.602C16.2015 59.8486 30.369 60.1347 44.1806 58.6809C54.2362 57.6224 64.1247 58.247 74.1957 58.247C86.6861 58.247 124.156 58.602 111.665 58.602" stroke="#3a4854" stroke-width="2" stroke-linecap="round" stroke-linejoin="round"/>
<path d="M2.68799 68.1863C9.62578 68.1863 16.5773 68.0659 23.5132 68.2061C27.2266 68.2811 30.8885 68.2452 34.5963 68.1863C36.4452 68.157 38.2613 67.524 40.1181 67.4764C43.2945 67.395 46.451 67.5268 49.5841 67.8117C51.7967 68.0128 53.8744 67.4764 56.0131 67.4764C61.3566 67.4764 66.5922 68.1863 71.9081 68.1863C73.2688 68.1863 74.6295 68.1863 75.9903 68.1863C76.9746 68.1863 79.0296 68.6449 79.7175 68.1863" stroke="#3a4854" stroke-width="2" stroke-linecap="round" stroke-linejoin="round"/>
<path d="M2.333 1.4511C2.333 6.50367 1.69407 11.3616 3.06267 16.3798C3.57602 18.262 3.78786 19.9739 4.1276 21.8424C4.49047 23.8382 5.04751 23.1046 6.67158 23.1046C11.8396 23.1046 17.1384 22.3946 22.3694 22.3946C23.5243 22.3946 24.4613 22.8279 25.4852 22.4735C26.9589 21.9634 26.5422 19.8105 26.4516 18.4504C26.3094 16.318 26.4713 14.2733 26.4713 12.1398C26.4713 10.5869 25.913 9.22045 25.7811 7.70259C25.6507 6.2036 25.6166 4.56736 26.0374 3.14709C26.5567 1.39445 25.7175 1.4511 24.3414 1.4511C21.0719 1.4511 17.7406 1.20757 14.4613 1.0764C10.2149 0.906543 6.18794 2.51602 1.97803 2.51602" stroke="#3a4854" stroke-width="2" stroke-linecap="round" stroke-linejoin="round"/>
<path d="M1.97803 2.51602C4.77945 4.81319 8.30593 6.55357 10.9313 8.98445C12.7359 10.6554 14.3568 12.7034 16.3348 14.2105C18.7746 16.0694 20.7271 18.2174 23.454 19.7323C24.4624 20.2925 25.6004 20.8138 26.4713 21.6847" stroke="#3a4854" stroke-width="2" stroke-linecap="round" stroke-linejoin="round"/>
<path d="M5.17285 22.3946C8.87346 19.7513 11.3317 16.7613 14.4022 13.5202C16.2615 11.5577 18.891 10.499 20.6143 8.39282C21.8193 6.92002 22.2867 5.67216 23.809 4.4881C24.9197 3.62427 25.2611 2.16104 26.8263 2.16104" stroke="#3a4854" stroke-width="2" stroke-linecap="round" stroke-linejoin="round"/>
<path d="M134.739 36.9486C136.961 35.6873 138.985 34.1682 141.286 33.0636C142.858 32.3089 142.619 32.8326 142.548 34.1088C142.479 35.3454 142.172 35.8064 143.711 35.3117C145.493 34.739 148.405 33.1833 147.715 36.0414C147.313 37.7067 147.353 38.1524 149.016 37.6585C151.191 37.0129 153.797 34.8187 156.037 34.8187C156.656 34.8187 156.209 35.8442 156.964 35.8442C157.69 35.8442 161.204 34.0116 161.342 34.8384C161.981 38.6727 168.065 32.9873 168.441 34.306C168.763 35.4322 172.233 34.264 173.115 34.1877C173.876 34.1218 175.62 33.7739 176.211 34.4835C176.511 34.8428 176.487 35.1905 177.059 35.1737C178.634 35.1274 183.175 32.9847 184.455 34.1482C184.713 34.3831 184.234 34.8187 184.79 34.8187C185.378 34.8187 185.957 34.4442 186.525 34.3257C187.664 34.0885 187.421 35.6058 188.616 35.5287C189.437 35.4757 192.638 33.1207 193.033 33.7538C193.604 34.667 193.432 34.1482 194.374 34.1482C195.438 34.1482 194.441 36.3115 195.755 35.5681C197.109 34.8014 198.519 33.7568 200.192 34.1285C201.326 34.3806 201.899 35.1402 203.426 34.8187C204.302 34.6343 205.019 34.7303 205.931 34.5426C207.06 34.3101 206.838 37.0669 208.218 37.1458C209.556 37.2222 210.548 36.0776 211.768 35.9034C212.858 35.7477 213.408 35.88 214.43 36.0414C215.837 36.2635 217.304 35.0865 218.513 34.5426C219.076 34.289 219.643 37.3551 220.485 37.5796C222.125 38.0171 224.317 35.4161 225.691 34.8187C226.508 34.4633 227.576 34.3469 228.452 34.1877C229.752 33.9512 228.326 35.4916 230.01 34.3257C230.708 33.8426 230.404 34.8187 231.114 34.8187C231.917 34.8187 231.548 35.7127 231.647 36.2386C231.754 36.8119 234.772 35.3151 235.196 35.1737" stroke="#3a4854" stroke-width="2" stroke-linecap="round" stroke-linejoin="round"/>
<path d="M136.158 48.3078C138.844 47.7706 141.266 47.5978 143.988 47.5978C145.686 47.5978 148.77 46.9635 150.357 47.5189C153.331 48.5595 157.141 47.5978 160.297 47.5978C165.686 47.5978 170.879 46.8879 176.271 46.8879C177.889 46.8879 179.477 46.3657 181.063 46.7104C182.473 47.0169 183.82 46.4153 185.224 46.6118C186.458 46.7846 187.622 46.8879 188.872 46.8879C197.6 46.8879 206.326 47.9528 215.022 47.9528C218.47 47.9528 221.809 47.5978 225.277 47.5978C226.258 47.5978 232.158 47.6404 232.002 47.9528" stroke="#3a4854" stroke-width="2" stroke-linecap="round" stroke-linejoin="round"/>
<path d="M134.384 58.602C148.252 59.8486 162.42 60.1347 176.231 58.6809C186.287 57.6224 196.175 58.247 206.246 58.247C218.737 58.247 256.206 58.602 243.716 58.602" stroke="#3a4854" stroke-width="2" stroke-linecap="round" stroke-linejoin="round"/>
<path d="M134.739 68.1863C141.676 68.1863 148.628 68.0659 155.564 68.2061C159.277 68.2811 162.939 68.2452 166.647 68.1863C168.496 68.157 170.312 67.524 172.169 67.4764C175.345 67.395 178.502 67.5268 181.635 67.8117C183.847 68.0128 185.925 67.4764 188.064 67.4764C193.407 67.4764 198.643 68.1863 203.959 68.1863C205.319 68.1863 206.68 68.1863 208.041 68.1863C209.025 68.1863 211.08 68.6449 211.768 68.1863" stroke="#3a4854" stroke-width="2" stroke-linecap="round" stroke-linejoin="round"/>
<path d="M134.384 1.4511C134.384 6.50367 133.745 11.3616 135.113 16.3798C135.627 18.262 135.838 19.9739 136.178 21.8424C136.541 23.8382 137.098 23.1046 138.722 23.1046C143.89 23.1046 149.189 22.3946 154.42 22.3946C155.575 22.3946 156.512 22.8279 157.536 22.4735C159.009 21.9634 158.593 19.8105 158.502 18.4504C158.36 16.318 158.522 14.2733 158.522 12.1398C158.522 10.5869 157.964 9.22045 157.832 7.70259C157.701 6.2036 157.667 4.56736 158.088 3.14709C158.607 1.39445 157.768 1.4511 156.392 1.4511C153.122 1.4511 149.791 1.20757 146.512 1.0764C142.265 0.906543 138.238 2.51602 134.029 2.51602" stroke="#3a4854" stroke-width="2" stroke-linecap="round" stroke-linejoin="round"/>
<path d="M134.029 2.51602C136.83 4.81319 140.356 6.55357 142.982 8.98445C144.786 10.6554 146.407 12.7034 148.385 14.2105C150.825 16.0694 152.778 18.2174 155.505 19.7323C156.513 20.2925 157.651 20.8138 158.522 21.6847" stroke="#3a4854" stroke-width="2" stroke-linecap="round" stroke-linejoin="round"/>
<path d="M137.223 22.3946C140.924 19.7513 143.382 16.7613 146.453 13.5202C148.312 11.5577 150.942 10.499 152.665 8.39282C153.87 6.92002 154.337 5.67216 155.86 4.4881C156.97 3.62427 157.312 2.16104 158.877 2.16104" stroke="#3a4854" stroke-width="2" stroke-linecap="round" stroke-linejoin="round"/>
<path d="M268.71 36.9486C270.932 35.6873 272.956 34.1682 275.257 33.0636C276.829 32.3089 276.59 32.8326 276.519 34.1088C276.451 35.3454 276.144 35.8064 277.683 35.3117C279.465 34.739 282.376 33.1833 281.686 36.0414C281.284 37.7067 281.324 38.1524 282.988 37.6585C285.163 37.0129 287.768 34.8187 290.008 34.8187C290.628 34.8187 290.18 35.8442 290.935 35.8442C291.661 35.8442 295.176 34.0116 295.313 34.8384C295.952 38.6727 302.036 32.9873 302.413 34.306C302.735 35.4322 306.204 34.264 307.087 34.1877C307.848 34.1218 309.592 33.7739 310.183 34.4835C310.482 34.8428 310.459 35.1905 311.031 35.1737C312.606 35.1274 317.146 32.9847 318.426 34.1482C318.684 34.3831 318.206 34.8187 318.761 34.8187C319.349 34.8187 319.928 34.4442 320.497 34.3257C321.635 34.0885 321.392 35.6058 322.587 35.5287C323.408 35.4757 326.609 33.1207 327.005 33.7538C327.575 34.667 327.404 34.1482 328.346 34.1482C329.409 34.1482 328.413 36.3115 329.726 35.5681C331.081 34.8014 332.491 33.7568 334.163 34.1285C335.298 34.3806 335.871 35.1402 337.398 34.8187C338.274 34.6343 338.991 34.7303 339.902 34.5426C341.032 34.3101 340.81 37.0669 342.19 37.1458C343.527 37.2222 344.52 36.0776 345.739 35.9034C346.829 35.7477 347.38 35.88 348.402 36.0414C349.809 36.2635 351.275 35.0865 352.484 34.5426C353.048 34.289 353.614 37.3551 354.456 37.5796C356.097 38.0171 358.288 35.4161 359.662 34.8187C360.48 34.4633 361.548 34.3469 362.423 34.1877C363.724 33.9512 362.297 35.4916 363.981 34.3257C364.679 33.8426 364.376 34.8187 365.086 34.8187C365.888 34.8187 365.519 35.7127 365.618 36.2386C365.726 36.8119 368.743 35.3151 369.168 35.1737" stroke="#3a4854" stroke-width="2" stroke-linecap="round" stroke-linejoin="round"/>
<path d="M270.13 48.3078C272.816 47.7706 275.238 47.5978 277.959 47.5978C279.657 47.5978 282.742 46.9635 284.329 47.5189C287.302 48.5595 291.112 47.5978 294.268 47.5978C299.658 47.5978 304.85 46.8879 310.242 46.8879C311.861 46.8879 313.449 46.3657 315.034 46.7104C316.444 47.0169 317.792 46.4153 319.195 46.6118C320.43 46.7846 321.593 46.8879 322.844 46.8879C331.571 46.8879 340.297 47.9528 348.993 47.9528C352.442 47.9528 355.781 47.5978 359.248 47.5978C360.23 47.5978 366.129 47.6404 365.973 47.9528" stroke="#3a4854" stroke-width="2" stroke-linecap="round" stroke-linejoin="round"/>
<path d="M268.355 58.602C282.224 59.8486 296.391 60.1347 310.203 58.6809C320.258 57.6224 330.147 58.247 340.218 58.247C352.708 58.247 390.178 58.602 377.687 58.602" stroke="#3a4854" stroke-width="2" stroke-linecap="round" stroke-linejoin="round"/>
<path d="M268.71 68.1863C275.648 68.1863 282.599 68.0659 289.535 68.2061C293.249 68.2811 296.91 68.2452 300.618 68.1863C302.467 68.157 304.283 67.524 306.14 67.4764C309.317 67.395 312.473 67.5268 315.606 67.8117C317.819 68.0128 319.896 67.4764 322.035 67.4764C327.379 67.4764 332.614 68.1863 337.93 68.1863C339.291 68.1863 340.652 68.1863 342.012 68.1863C342.997 68.1863 345.052 68.6449 345.739 68.1863" stroke="#3a4854" stroke-width="2" stroke-linecap="round" stroke-linejoin="round"/>
<path d="M268.355 1.4511C268.355 6.50367 267.716 11.3616 269.085 16.3798C269.598 18.262 269.81 19.9739 270.15 21.8424C270.512 23.8382 271.069 23.1046 272.694 23.1046C277.862 23.1046 283.16 22.3946 288.391 22.3946C289.546 22.3946 290.483 22.8279 291.507 22.4735C292.981 21.9634 292.564 19.8105 292.474 18.4504C292.331 16.318 292.493 14.2733 292.493 12.1398C292.493 10.5869 291.935 9.22045 291.803 7.70259C291.673 6.2036 291.639 4.56736 292.059 3.14709C292.579 1.39445 291.739 1.4511 290.363 1.4511C287.094 1.4511 283.763 1.20757 280.483 1.0764C276.237 0.906543 272.21 2.51602 268 2.51602" stroke="#3a4854" stroke-width="2" stroke-linecap="round" stroke-linejoin="round"/>
<path d="M268 2.51602C270.801 4.81319 274.328 6.55357 276.953 8.98445C278.758 10.6554 280.379 12.7034 282.357 14.2105C284.797 16.0694 286.749 18.2174 289.476 19.7323C290.484 20.2925 291.622 20.8138 292.493 21.6847" stroke="#3a4854" stroke-width="2" stroke-linecap="round" stroke-linejoin="round"/>
<path d="M271.195 22.3946C274.895 19.7513 277.354 16.7613 280.424 13.5202C282.283 11.5577 284.913 10.499 286.636 8.39282C287.841 6.92002 288.309 5.67216 289.831 4.4881C290.942 3.62427 291.283 2.16104 292.848 2.16104" stroke="#3a4854" stroke-width="2" stroke-linecap="round" stroke-linejoin="round"/>
</svg>
