<svg width="356" height="290" viewBox="0 0 356 290" fill="none" xmlns="http://www.w3.org/2000/svg">
<g clip-path="url(#clip0)">
<path fill-rule="evenodd" clip-rule="evenodd" d="M354 216H198V352H354V216ZM196 214V354H356V214H196Z" fill="#506677"/>
<path fill-rule="evenodd" clip-rule="evenodd" d="M354.657 351.246L198.657 215.246L197.343 216.754L353.343 352.754L354.657 351.246Z" fill="#506677"/>
<path fill-rule="evenodd" clip-rule="evenodd" d="M197.343 351.246L353.343 215.246L354.657 216.754L198.657 352.754L197.343 351.246Z" fill="#506677"/>
</g>
<path d="M197 159C197 157.343 198.343 156 200 156H238C239.657 156 241 157.343 241 159V159C241 160.657 239.657 162 238 162H200C198.343 162 197 160.657 197 159V159Z" fill="#506677"/>
<path d="M197 168.5C197 167.672 197.672 167 198.5 167H354.5C355.328 167 356 167.672 356 168.5V168.5C356 169.328 355.328 170 354.5 170H198.5C197.672 170 197 169.328 197 168.5V168.5Z" fill="#506677" fill-opacity="0.5"/>
<path d="M197 175.5C197 174.672 197.672 174 198.5 174H354.5C355.328 174 356 174.672 356 175.5V175.5C356 176.328 355.328 177 354.5 177H198.5C197.672 177 197 176.328 197 175.5V175.5Z" fill="#506677" fill-opacity="0.5"/>
<path d="M197 182.5C197 181.672 197.672 181 198.5 181H308.5C309.328 181 310 181.672 310 182.5V182.5C310 183.328 309.328 184 308.5 184H198.5C197.672 184 197 183.328 197 182.5V182.5Z" fill="#506677" fill-opacity="0.5"/>
<path fill-rule="evenodd" clip-rule="evenodd" d="M354 2H198V138H354V2ZM196 0V140H356V0H196Z" fill="#506677"/>
<path fill-rule="evenodd" clip-rule="evenodd" d="M354.657 137.246L198.657 1.24622L197.343 2.75376L353.343 138.754L354.657 137.246Z" fill="#506677"/>
<path fill-rule="evenodd" clip-rule="evenodd" d="M197.343 137.246L353.343 1.24622L354.657 2.75376L198.657 138.754L197.343 137.246Z" fill="#506677"/>
<path fill-rule="evenodd" clip-rule="evenodd" d="M0 3.47917V0H3.58973V2H2V3.47917H0ZM15.8974 0H8.71793V2H15.8974V0ZM21.0256 0V2H28.2051V0H21.0256ZM33.3333 0V2H40.5128V0H33.3333ZM45.641 0V2H52.8205V0H45.641ZM57.9487 0V2H65.1282V0H57.9487ZM70.2564 0V2H77.4359V0H70.2564ZM82.5641 0V2H89.7436V0H82.5641ZM94.8718 0V2H102.051V0H94.8718ZM107.179 0V2H114.359V0H107.179ZM119.487 0V2H126.667V0H119.487ZM131.795 0V2H138.974V0H131.795ZM144.103 0V2H151.282V0H144.103ZM156.41 0V2H158V3.47914H160V0H156.41ZM160 8.44938H158V15.4077H160V8.44938ZM160 20.378H158V27.3363H160V20.378ZM160 32.3065H158V39.2649H160V32.3065ZM160 44.2351H158V51.1934H160V44.2351ZM160 56.1637H158V63.122H160V56.1637ZM160 68.0923H158V75.0506H160V68.0923ZM160 80.0208H158V86.9792H160V80.0208ZM160 91.9494H158V98.9077H160V91.9494ZM160 103.878H158V110.836H160V103.878ZM160 115.807H158V122.765H160V115.807ZM160 127.735H158V134.693H160V127.735ZM160 139.664H158V146.622H160V139.664ZM160 151.592H158V158.551H160V151.592ZM160 163.521H158V165H156.41V167H160V163.521ZM151.282 167V165H144.103V167H151.282ZM138.974 167V165H131.795V167H138.974ZM126.667 167V165H119.487V167H126.667ZM114.359 167V165H107.179V167H114.359ZM102.051 167V165H94.8718V167H102.051ZM89.7436 167V165H82.5641V167H89.7436ZM77.4359 167V165H70.2564V167H77.4359ZM65.1282 167V165H57.9487V167H65.1282ZM52.8205 167V165H45.641V167H52.8205ZM40.5128 167V165H33.3333V167H40.5128ZM28.2051 167V165H21.0256V167H28.2051ZM15.8974 167V165H8.71795V167H15.8974ZM3.58974 167V165H2V163.521H0V167H3.58974ZM0 158.551H2V151.592H0V158.551ZM0 146.622H2V139.664H0V146.622ZM0 134.693H2V127.735H0V134.693ZM0 122.765H2V115.807H0V122.765ZM0 110.836H2V103.878H0V110.836ZM0 98.9077H2V91.9494H0V98.9077ZM0 86.9792H2V80.0208H0V86.9792ZM0 75.0506H2V68.0923H0V75.0506ZM0 63.122H2V56.1637H0V63.122ZM0 51.1935H2V44.2351H0V51.1935ZM0 39.2649H2V32.3065H0V39.2649ZM0 27.3363H2V20.378H0V27.3363ZM0 15.4077H2V8.4494H0V15.4077Z" fill="#506677" fill-opacity="0.5"/>
<path d="M10.3271 206.032C10.3857 207.321 11.4648 208.117 13.0957 208.117C14.79 208.117 15.8496 207.268 15.8496 205.92C15.8496 204.875 15.2295 204.279 13.7451 203.972L12.9834 203.815C12.1045 203.63 11.7529 203.322 11.7529 202.844C11.7529 202.253 12.3096 201.882 13.0908 201.882C13.8965 201.882 14.4531 202.282 14.5117 202.946H15.7178C15.6885 201.687 14.6582 200.837 13.1006 200.837C11.5723 200.837 10.4834 201.677 10.4834 202.917C10.4834 203.947 11.1426 204.611 12.5537 204.899L13.3105 205.056C14.2285 205.246 14.5801 205.559 14.5801 206.066C14.5801 206.652 13.9893 207.072 13.1396 207.072C12.2607 207.072 11.626 206.682 11.5332 206.032H10.3271Z" fill="#506677" fill-opacity="0.5"/>
<path d="M17.0068 201.613V202.824H16.2646V203.762H17.0068V206.623C17.0068 207.629 17.4463 208.024 18.5645 208.024C18.8232 208.024 19.0625 208.005 19.1943 207.976V207.048C19.1162 207.062 18.96 207.072 18.8477 207.072C18.418 207.072 18.2227 206.877 18.2227 206.452V203.762H19.1992V202.824H18.2227V201.613H17.0068Z" fill="#506677" fill-opacity="0.5"/>
<path d="M20.6641 202.043C21.0352 202.043 21.3281 201.745 21.3281 201.384C21.3281 201.018 21.0352 200.725 20.6641 200.725C20.293 200.725 19.9951 201.018 19.9951 201.384C19.9951 201.745 20.293 202.043 20.6641 202.043ZM20.0586 208H21.2744V202.824H20.0586V208Z" fill="#506677" fill-opacity="0.5"/>
<path d="M26.8555 204.67C26.7725 203.581 25.9277 202.717 24.5605 202.717C23.0566 202.717 22.0801 203.757 22.0801 205.412C22.0801 207.092 23.0566 208.103 24.5703 208.103C25.8691 208.103 26.7627 207.341 26.8604 206.184H25.7129C25.6006 206.77 25.2002 207.121 24.585 207.121C23.8135 207.121 23.3154 206.496 23.3154 205.412C23.3154 204.348 23.8086 203.703 24.5752 203.703C25.2246 203.703 25.6104 204.118 25.708 204.67H26.8555Z" fill="#506677" fill-opacity="0.5"/>
<path d="M28.8525 204.982H28.8379V200.954H27.6221V208H28.8379V206.203L29.248 205.788L30.8838 208H32.29L30.1318 205.051L32.2021 202.824H30.8008L28.8525 204.982Z" fill="#506677" fill-opacity="0.5"/>
<path d="M33.3545 209.924C34.5361 209.924 35.1074 209.489 35.5469 208.205L37.4219 202.824H36.1426L34.9219 206.965H34.8975L33.6816 202.824H32.3535L34.1943 208.005C34.1992 208.02 34.1211 208.278 34.1211 208.293C33.9893 208.771 33.7305 208.962 33.2275 208.962C33.1543 208.962 32.9395 208.957 32.876 208.942V209.904C32.9395 209.919 33.2812 209.924 33.3545 209.924Z" fill="#506677" fill-opacity="0.5"/>
<path fill-rule="evenodd" clip-rule="evenodd" d="M80.2929 175.793C80.6834 175.402 81.3166 175.402 81.7071 175.793L88.0711 182.157C88.4616 182.547 88.4616 183.181 88.0711 183.571C87.6805 183.962 87.0474 183.962 86.6569 183.571L81.9558 178.87C81.4972 190.873 77.4895 197.872 70.8199 201.799C63.8651 205.894 54.2192 206.5 43.5 206.5V204.5C54.2808 204.5 63.3849 203.856 69.8051 200.076C75.6752 196.62 79.4811 190.412 79.9508 178.963L75.3431 183.571C74.9526 183.962 74.3195 183.962 73.9289 183.571C73.5384 183.181 73.5384 182.547 73.9289 182.157L80.2929 175.793Z" fill="#506677" fill-opacity="0.5"/>
<path d="M21 90.5C21 89.6716 21.6716 89 22.5 89H55.5C56.3284 89 57 89.6716 57 90.5V90.5C57 91.3284 56.3284 92 55.5 92H22.5C21.6716 92 21 91.3284 21 90.5V90.5Z" fill="#506677"/>
<path d="M21 101.5C21 100.672 21.6716 100 22.5 100H65.5C66.3284 100 67 100.672 67 101.5V101.5C67 102.328 66.3284 103 65.5 103H22.5C21.6716 103 21 102.328 21 101.5V101.5Z" fill="#506677"/>
<path d="M21 112.5C21 111.672 21.6716 111 22.5 111H47.5C48.3284 111 49 111.672 49 112.5V112.5C49 113.328 48.3284 114 47.5 114H22.5C21.6716 114 21 113.328 21 112.5V112.5Z" fill="#506677"/>
<path d="M21 123.5C21 122.672 21.6716 122 22.5 122H55.5C56.3284 122 57 122.672 57 123.5V123.5C57 124.328 56.3284 125 55.5 125H22.5C21.6716 125 21 124.328 21 123.5V123.5Z" fill="#506677"/>
<path d="M16 90C16 91.6569 14.6569 93 13 93C11.3431 93 10 91.6569 10 90C10 88.3431 11.3431 87 13 87C14.6569 87 16 88.3431 16 90Z" fill="#506677"/>
<path d="M16 101C16 102.657 14.6569 104 13 104C11.3431 104 10 102.657 10 101C10 99.3431 11.3431 98 13 98C14.6569 98 16 99.3431 16 101Z" fill="#506677"/>
<path d="M16 112C16 113.657 14.6569 115 13 115C11.3431 115 10 113.657 10 112C10 110.343 11.3431 109 13 109C14.6569 109 16 110.343 16 112Z" fill="#506677"/>
<path d="M16 123C16 124.657 14.6569 126 13 126C11.3431 126 10 124.657 10 123C10 121.343 11.3431 120 13 120C14.6569 120 16 121.343 16 123Z" fill="#506677"/>
<path d="M10 137H59V147H10V137Z" fill="#506677"/>
<path d="M10.2393 42.6772C10.2974 43.5283 11.0151 44.082 12.0918 44.082C13.1958 44.082 13.9136 43.5112 13.9136 42.5986C13.9136 41.9014 13.5068 41.4912 12.478 41.2656L11.9312 41.146C11.2578 40.999 10.9946 40.7324 10.9946 40.3428C10.9946 39.8403 11.4697 39.5396 12.085 39.5396C12.7275 39.5396 13.1548 39.8711 13.2095 40.4111H13.8247C13.7974 39.5737 13.0864 38.9858 12.1021 38.9858C11.0801 38.9858 10.3623 39.5566 10.3623 40.3701C10.3623 41.0708 10.7896 41.5186 11.7773 41.7339L12.3242 41.8535C13.0078 42.0039 13.2812 42.2773 13.2812 42.6909C13.2812 43.1763 12.7959 43.5283 12.126 43.5283C11.4185 43.5283 10.9263 43.207 10.8545 42.6772H10.2393Z" fill="#506677"/>
<path d="M16.9009 42.9814C16.8018 43.3164 16.4702 43.5454 16.019 43.5454C15.3799 43.5454 14.98 43.0977 14.98 42.4175V42.3833H17.5298V42.1577C17.5298 41.0811 16.9385 40.3838 15.978 40.3838C14.9971 40.3838 14.3682 41.1323 14.3682 42.2363C14.3682 43.354 14.9868 44.0615 16.0054 44.0615C16.7812 44.0615 17.3828 43.6035 17.4854 42.9814H16.9009ZM15.9678 40.8999C16.5283 40.8999 16.9009 41.3237 16.9146 41.9185H14.9834C15.021 41.3271 15.4106 40.8999 15.9678 40.8999Z" fill="#506677"/>
<path d="M19.478 44.0615C19.9907 44.0615 20.3975 43.8086 20.6265 43.3984H20.6367V44H21.2041V39.0679H20.6094V41.0229H20.5957C20.3838 40.6333 19.9736 40.3838 19.4644 40.3838C18.5688 40.3838 17.957 41.1084 17.957 42.2227C17.957 43.3369 18.5723 44.0615 19.478 44.0615ZM19.5908 40.9067C20.2026 40.9067 20.6128 41.4297 20.6128 42.2227C20.6128 43.019 20.2026 43.5386 19.5908 43.5386C18.9619 43.5386 18.5654 43.0293 18.5654 42.2227C18.5654 41.4194 18.9619 40.9067 19.5908 40.9067Z" fill="#506677"/>
<path d="M26.3618 40.4453H25.7671V42.5337C25.7671 43.1387 25.4185 43.5352 24.8408 43.5352C24.2905 43.5352 24.0205 43.2241 24.0205 42.6465V40.4453H23.4258V42.7524C23.4258 43.5591 23.8804 44.0615 24.6562 44.0615C25.2031 44.0615 25.5723 43.8325 25.7842 43.4224H25.7979V44H26.3618V40.4453Z" fill="#506677"/>
<path d="M27.3257 39.5874V40.4453H26.7959V40.9341H27.3257V43.0771C27.3257 43.7607 27.5786 44.0273 28.2314 44.0273C28.3716 44.0273 28.5356 44.0171 28.6074 44V43.501C28.5664 43.5078 28.4297 43.5181 28.3613 43.5181C28.0571 43.5181 27.9204 43.3711 27.9204 43.0464V40.9341H28.6108V40.4453H27.9204V39.5874H27.3257Z" fill="#506677"/>
<path d="M32.4082 40.3838C31.8921 40.3838 31.4785 40.647 31.2598 41.0469H31.2461V40.4453H30.6821V45.186H31.2769V43.4224H31.2905C31.5024 43.812 31.9126 44.0615 32.4219 44.0615C33.3174 44.0615 33.9292 43.3369 33.9292 42.2227C33.9292 41.1084 33.314 40.3838 32.4082 40.3838ZM32.292 43.5386C31.6836 43.5386 31.2734 43.0156 31.2734 42.2227C31.2734 41.4331 31.6836 40.9067 32.292 40.9067C32.9243 40.9067 33.3208 41.4194 33.3208 42.2227C33.3208 43.0293 32.9243 43.5386 32.292 43.5386Z" fill="#506677"/>
<path d="M36.8892 42.9814C36.79 43.3164 36.4585 43.5454 36.0073 43.5454C35.3682 43.5454 34.9683 43.0977 34.9683 42.4175V42.3833H37.5181V42.1577C37.5181 41.0811 36.9268 40.3838 35.9663 40.3838C34.9854 40.3838 34.3564 41.1323 34.3564 42.2363C34.3564 43.354 34.9751 44.0615 35.9937 44.0615C36.7695 44.0615 37.3711 43.6035 37.4736 42.9814H36.8892ZM35.9561 40.8999C36.5166 40.8999 36.8892 41.3237 36.9028 41.9185H34.9717C35.0093 41.3271 35.3989 40.8999 35.9561 40.8999Z" fill="#506677"/>
<path d="M38.1196 44H38.7144V41.7852C38.7144 41.2827 39.0151 40.9512 39.4766 40.9512C39.6201 40.9512 39.7466 40.9683 39.7944 40.9854V40.4077C39.7466 40.4009 39.6577 40.3838 39.5552 40.3838C39.1382 40.3838 38.8101 40.6333 38.6938 41.0264H38.6802V40.4453H38.1196V44Z" fill="#506677"/>
<path d="M40.2183 41.4263C40.2183 41.939 40.543 42.25 41.2129 42.4106L41.7769 42.5474C42.1836 42.6465 42.3237 42.7935 42.3237 43.0498C42.3237 43.3711 42.0264 43.5762 41.5444 43.5762C41.0625 43.5762 40.7891 43.3813 40.7173 42.9746H40.1226C40.1909 43.6411 40.7104 44.0615 41.5444 44.0615C42.3374 44.0615 42.9219 43.624 42.9219 43.0054C42.9219 42.4961 42.6621 42.2158 41.9443 42.0415L41.3804 41.9048C40.9839 41.8091 40.8027 41.6416 40.8027 41.3955C40.8027 41.0845 41.0898 40.8691 41.5239 40.8691C41.9614 40.8691 42.2349 41.0981 42.2793 41.4707H42.8467C42.8228 40.8418 42.3032 40.3838 41.5239 40.3838C40.7549 40.3838 40.2183 40.8179 40.2183 41.4263Z" fill="#506677"/>
<path d="M45.2666 40.3838C44.7505 40.3838 44.3369 40.647 44.1182 41.0469H44.1045V40.4453H43.5405V45.186H44.1353V43.4224H44.1489C44.3608 43.812 44.771 44.0615 45.2803 44.0615C46.1758 44.0615 46.7876 43.3369 46.7876 42.2227C46.7876 41.1084 46.1724 40.3838 45.2666 40.3838ZM45.1504 43.5386C44.542 43.5386 44.1318 43.0156 44.1318 42.2227C44.1318 41.4331 44.542 40.9067 45.1504 40.9067C45.7827 40.9067 46.1792 41.4194 46.1792 42.2227C46.1792 43.0293 45.7827 43.5386 45.1504 43.5386Z" fill="#506677"/>
<path d="M47.7173 39.813C47.9258 39.813 48.0898 39.6455 48.0898 39.4404C48.0898 39.2319 47.9258 39.0679 47.7173 39.0679C47.5122 39.0679 47.3447 39.2319 47.3447 39.4404C47.3447 39.6455 47.5122 39.813 47.7173 39.813ZM47.4199 44H48.0146V40.4453H47.4199V44Z" fill="#506677"/>
<path d="M51.771 41.6108C51.6958 40.9717 51.166 40.3838 50.2773 40.3838C49.2964 40.3838 48.6436 41.1016 48.6436 42.2227C48.6436 43.3677 49.2998 44.0615 50.2842 44.0615C51.0908 44.0615 51.6855 43.5625 51.7778 42.855H51.1934C51.0908 43.2822 50.7729 43.5386 50.2876 43.5386C49.6724 43.5386 49.2485 43.0498 49.2485 42.2227C49.2485 41.416 49.6655 40.9067 50.2808 40.9067C50.8037 40.9067 51.1045 41.2246 51.1899 41.6108H51.771Z" fill="#506677"/>
<path d="M52.6528 39.813C52.8613 39.813 53.0254 39.6455 53.0254 39.4404C53.0254 39.2319 52.8613 39.0679 52.6528 39.0679C52.4478 39.0679 52.2803 39.2319 52.2803 39.4404C52.2803 39.6455 52.4478 39.813 52.6528 39.813ZM52.3555 44H52.9502V40.4453H52.3555V44Z" fill="#506677"/>
<path d="M54.7925 44.0615C55.271 44.0615 55.7222 43.7949 55.9341 43.3882H55.9478V44H56.5117V41.5425C56.5117 40.835 55.9854 40.3838 55.1514 40.3838C54.3105 40.3838 53.7842 40.8555 53.7432 41.4707H54.3174C54.3926 41.1221 54.6797 40.9067 55.1377 40.9067C55.6299 40.9067 55.917 41.1665 55.917 41.6006V41.8979L54.8984 41.9561C54.0781 42.0039 53.6099 42.3867 53.6099 42.9951C53.6099 43.6343 54.085 44.0615 54.7925 44.0615ZM54.9258 43.5557C54.4985 43.5557 54.2148 43.3335 54.2148 42.9951C54.2148 42.6602 54.4883 42.4482 54.9668 42.4175L55.917 42.3594V42.6499C55.917 43.1626 55.4863 43.5557 54.9258 43.5557Z" fill="#506677"/>
<path d="M57.4585 39.5874V40.4453H56.9287V40.9341H57.4585V43.0771C57.4585 43.7607 57.7114 44.0273 58.3643 44.0273C58.5044 44.0273 58.6685 44.0171 58.7402 44V43.501C58.6992 43.5078 58.5625 43.5181 58.4941 43.5181C58.1899 43.5181 58.0532 43.3711 58.0532 43.0464V40.9341H58.7437V40.4453H58.0532V39.5874H57.4585Z" fill="#506677"/>
<path d="M59.7075 39.813C59.916 39.813 60.0801 39.6455 60.0801 39.4404C60.0801 39.2319 59.916 39.0679 59.7075 39.0679C59.5024 39.0679 59.335 39.2319 59.335 39.4404C59.335 39.6455 59.5024 39.813 59.7075 39.813ZM59.4102 44H60.0049V40.4453H59.4102V44Z" fill="#506677"/>
<path d="M60.7466 41.4263C60.7466 41.939 61.0713 42.25 61.7412 42.4106L62.3052 42.5474C62.7119 42.6465 62.8521 42.7935 62.8521 43.0498C62.8521 43.3711 62.5547 43.5762 62.0728 43.5762C61.5908 43.5762 61.3174 43.3813 61.2456 42.9746H60.6509C60.7192 43.6411 61.2388 44.0615 62.0728 44.0615C62.8657 44.0615 63.4502 43.624 63.4502 43.0054C63.4502 42.4961 63.1904 42.2158 62.4727 42.0415L61.9087 41.9048C61.5122 41.8091 61.3311 41.6416 61.3311 41.3955C61.3311 41.0845 61.6182 40.8691 62.0522 40.8691C62.4897 40.8691 62.7632 41.0981 62.8076 41.4707H63.375C63.3511 40.8418 62.8315 40.3838 62.0522 40.3838C61.2832 40.3838 60.7466 40.8179 60.7466 41.4263Z" fill="#506677"/>
<path d="M68.4233 40.4453H67.8286V42.5337C67.8286 43.1387 67.48 43.5352 66.9023 43.5352C66.3521 43.5352 66.082 43.2241 66.082 42.6465V40.4453H65.4873V42.7524C65.4873 43.5591 65.9419 44.0615 66.7178 44.0615C67.2646 44.0615 67.6338 43.8325 67.8457 43.4224H67.8594V44H68.4233V40.4453Z" fill="#506677"/>
<path d="M69.1958 44H69.7905V41.9082C69.7905 41.3066 70.1562 40.9102 70.7168 40.9102C71.2637 40.9102 71.5337 41.2246 71.5337 41.7988V44H72.1284V41.6929C72.1284 40.8862 71.6772 40.3838 70.8979 40.3838C70.3477 40.3838 69.9683 40.6299 69.77 41.0127H69.7563V40.4453H69.1958V44Z" fill="#506677"/>
<path d="M74.2339 44.0615C74.7466 44.0615 75.1533 43.8086 75.3823 43.3984H75.3926V44H75.96V39.0679H75.3652V41.0229H75.3516C75.1396 40.6333 74.7295 40.3838 74.2202 40.3838C73.3247 40.3838 72.7129 41.1084 72.7129 42.2227C72.7129 43.3369 73.3281 44.0615 74.2339 44.0615ZM74.3467 40.9067C74.9585 40.9067 75.3687 41.4297 75.3687 42.2227C75.3687 43.019 74.9585 43.5386 74.3467 43.5386C73.7178 43.5386 73.3213 43.0293 73.3213 42.2227C73.3213 41.4194 73.7178 40.9067 74.3467 40.9067Z" fill="#506677"/>
<path d="M79.1216 42.9814C79.0225 43.3164 78.6909 43.5454 78.2397 43.5454C77.6006 43.5454 77.2007 43.0977 77.2007 42.4175V42.3833H79.7505V42.1577C79.7505 41.0811 79.1592 40.3838 78.1987 40.3838C77.2178 40.3838 76.5889 41.1323 76.5889 42.2363C76.5889 43.354 77.2075 44.0615 78.2261 44.0615C79.002 44.0615 79.6035 43.6035 79.7061 42.9814H79.1216ZM78.1885 40.8999C78.749 40.8999 79.1216 41.3237 79.1353 41.9185H77.2041C77.2417 41.3271 77.6313 40.8999 78.1885 40.8999Z" fill="#506677"/>
<path d="M83.2607 44.0615C84.2417 44.0615 84.9048 43.354 84.9048 42.2227C84.9048 41.0879 84.2417 40.3838 83.2607 40.3838C82.2764 40.3838 81.6133 41.0879 81.6133 42.2227C81.6133 43.354 82.2764 44.0615 83.2607 44.0615ZM83.2607 43.5386C82.6318 43.5386 82.2183 43.0601 82.2183 42.2227C82.2183 41.3853 82.6318 40.9067 83.2607 40.9067C83.8896 40.9067 84.2998 41.3853 84.2998 42.2227C84.2998 43.0601 83.8896 43.5386 83.2607 43.5386Z" fill="#506677"/>
<path d="M85.5063 44H86.1011V41.7715C86.1011 41.2793 86.4429 40.9102 86.9146 40.9102C87.3555 40.9102 87.6426 41.1904 87.6426 41.6177V44H88.2373V41.7407C88.2373 41.2588 88.5688 40.9102 89.0405 40.9102C89.5088 40.9102 89.7788 41.1973 89.7788 41.6826V44H90.3735V41.5459C90.3735 40.8418 89.9189 40.3838 89.2148 40.3838C88.7158 40.3838 88.2988 40.6367 88.1006 41.0605H88.0869C87.9331 40.6299 87.5742 40.3838 87.0889 40.3838C86.6104 40.3838 86.248 40.6367 86.0806 41.0127H86.0669V40.4453H85.5063V44Z" fill="#506677"/>
<path d="M91.1323 44H91.7271V41.9082C91.7271 41.3066 92.0928 40.9102 92.6533 40.9102C93.2002 40.9102 93.4702 41.2246 93.4702 41.7988V44H94.0649V41.6929C94.0649 40.8862 93.6138 40.3838 92.8345 40.3838C92.2842 40.3838 91.9048 40.6299 91.7065 41.0127H91.6929V40.4453H91.1323V44Z" fill="#506677"/>
<path d="M95.1519 39.813C95.3604 39.813 95.5244 39.6455 95.5244 39.4404C95.5244 39.2319 95.3604 39.0679 95.1519 39.0679C94.9468 39.0679 94.7793 39.2319 94.7793 39.4404C94.7793 39.6455 94.9468 39.813 95.1519 39.813ZM94.8545 44H95.4492V40.4453H94.8545V44Z" fill="#506677"/>
<path d="M96.1909 41.4263C96.1909 41.939 96.5156 42.25 97.1855 42.4106L97.7495 42.5474C98.1562 42.6465 98.2964 42.7935 98.2964 43.0498C98.2964 43.3711 97.999 43.5762 97.5171 43.5762C97.0352 43.5762 96.7617 43.3813 96.6899 42.9746H96.0952C96.1636 43.6411 96.6831 44.0615 97.5171 44.0615C98.3101 44.0615 98.8945 43.624 98.8945 43.0054C98.8945 42.4961 98.6348 42.2158 97.917 42.0415L97.353 41.9048C96.9565 41.8091 96.7754 41.6416 96.7754 41.3955C96.7754 41.0845 97.0625 40.8691 97.4966 40.8691C97.9341 40.8691 98.2075 41.0981 98.252 41.4707H98.8193C98.7954 40.8418 98.2759 40.3838 97.4966 40.3838C96.7275 40.3838 96.1909 40.8179 96.1909 41.4263Z" fill="#506677"/>
<path d="M101.277 39.813C101.485 39.813 101.649 39.6455 101.649 39.4404C101.649 39.2319 101.485 39.0679 101.277 39.0679C101.072 39.0679 100.904 39.2319 100.904 39.4404C100.904 39.6455 101.072 39.813 101.277 39.813ZM100.979 44H101.574V40.4453H100.979V44Z" fill="#506677"/>
<path d="M102.316 41.4263C102.316 41.939 102.641 42.25 103.311 42.4106L103.875 42.5474C104.281 42.6465 104.421 42.7935 104.421 43.0498C104.421 43.3711 104.124 43.5762 103.642 43.5762C103.16 43.5762 102.887 43.3813 102.815 42.9746H102.22C102.289 43.6411 102.808 44.0615 103.642 44.0615C104.435 44.0615 105.02 43.624 105.02 43.0054C105.02 42.4961 104.76 42.2158 104.042 42.0415L103.478 41.9048C103.082 41.8091 102.9 41.6416 102.9 41.3955C102.9 41.0845 103.188 40.8691 103.622 40.8691C104.059 40.8691 104.333 41.0981 104.377 41.4707H104.944C104.92 40.8418 104.401 40.3838 103.622 40.3838C102.853 40.3838 102.316 40.8179 102.316 41.4263Z" fill="#506677"/>
<path d="M105.83 39.5874V40.4453H105.3V40.9341H105.83V43.0771C105.83 43.7607 106.083 44.0273 106.735 44.0273C106.875 44.0273 107.04 44.0171 107.111 44V43.501C107.07 43.5078 106.934 43.5181 106.865 43.5181C106.561 43.5181 106.424 43.3711 106.424 43.0464V40.9341H107.115V40.4453H106.424V39.5874H105.83Z" fill="#506677"/>
<path d="M110.006 42.9814C109.907 43.3164 109.576 43.5454 109.125 43.5454C108.485 43.5454 108.085 43.0977 108.085 42.4175V42.3833H110.635V42.1577C110.635 41.0811 110.044 40.3838 109.083 40.3838C108.103 40.3838 107.474 41.1323 107.474 42.2363C107.474 43.354 108.092 44.0615 109.111 44.0615C109.887 44.0615 110.488 43.6035 110.591 42.9814H110.006ZM109.073 40.8999C109.634 40.8999 110.006 41.3237 110.02 41.9185H108.089C108.126 41.3271 108.516 40.8999 109.073 40.8999Z" fill="#506677"/>
<path d="M112.672 44H113.267V41.9082C113.267 41.3066 113.633 40.9102 114.193 40.9102C114.74 40.9102 115.01 41.2246 115.01 41.7988V44H115.605V41.6929C115.605 40.8862 115.154 40.3838 114.375 40.3838C113.824 40.3838 113.445 40.6299 113.247 41.0127H113.233V40.4453H112.672V44Z" fill="#506677"/>
<path d="M117.403 44.0615C117.881 44.0615 118.333 43.7949 118.544 43.3882H118.558V44H119.122V41.5425C119.122 40.835 118.596 40.3838 117.762 40.3838C116.921 40.3838 116.395 40.8555 116.354 41.4707H116.928C117.003 41.1221 117.29 40.9067 117.748 40.9067C118.24 40.9067 118.527 41.1665 118.527 41.6006V41.8979L117.509 41.9561C116.688 42.0039 116.22 42.3867 116.22 42.9951C116.22 43.6343 116.695 44.0615 117.403 44.0615ZM117.536 43.5557C117.109 43.5557 116.825 43.3335 116.825 42.9951C116.825 42.6602 117.099 42.4482 117.577 42.4175L118.527 42.3594V42.6499C118.527 43.1626 118.097 43.5557 117.536 43.5557Z" fill="#506677"/>
<path d="M120.069 39.5874V40.4453H119.539V40.9341H120.069V43.0771C120.069 43.7607 120.322 44.0273 120.975 44.0273C121.115 44.0273 121.279 44.0171 121.351 44V43.501C121.31 43.5078 121.173 43.5181 121.104 43.5181C120.8 43.5181 120.664 43.3711 120.664 43.0464V40.9341H121.354V40.4453H120.664V39.5874H120.069Z" fill="#506677"/>
<path d="M124.909 40.4453H124.314V42.5337C124.314 43.1387 123.965 43.5352 123.388 43.5352C122.837 43.5352 122.567 43.2241 122.567 42.6465V40.4453H121.973V42.7524C121.973 43.5591 122.427 44.0615 123.203 44.0615C123.75 44.0615 124.119 43.8325 124.331 43.4224H124.345V44H124.909V40.4453Z" fill="#506677"/>
<path d="M125.62 41.4263C125.62 41.939 125.944 42.25 126.614 42.4106L127.178 42.5474C127.585 42.6465 127.725 42.7935 127.725 43.0498C127.725 43.3711 127.428 43.5762 126.946 43.5762C126.464 43.5762 126.19 43.3813 126.119 42.9746H125.524C125.592 43.6411 126.112 44.0615 126.946 44.0615C127.739 44.0615 128.323 43.624 128.323 43.0054C128.323 42.4961 128.063 42.2158 127.346 42.0415L126.782 41.9048C126.385 41.8091 126.204 41.6416 126.204 41.3955C126.204 41.0845 126.491 40.8691 126.925 40.8691C127.363 40.8691 127.636 41.0981 127.681 41.4707H128.248C128.224 40.8418 127.705 40.3838 126.925 40.3838C126.156 40.3838 125.62 40.8179 125.62 41.4263Z" fill="#506677"/>
<path d="M132.736 42.9814C132.637 43.3164 132.305 43.5454 131.854 43.5454C131.215 43.5454 130.815 43.0977 130.815 42.4175V42.3833H133.365V42.1577C133.365 41.0811 132.773 40.3838 131.813 40.3838C130.832 40.3838 130.203 41.1323 130.203 42.2363C130.203 43.354 130.822 44.0615 131.84 44.0615C132.616 44.0615 133.218 43.6035 133.32 42.9814H132.736ZM131.803 40.8999C132.363 40.8999 132.736 41.3237 132.75 41.9185H130.818C130.856 41.3271 131.246 40.8999 131.803 40.8999Z" fill="#506677"/>
<path d="M133.966 44H134.561V41.7852C134.561 41.2827 134.862 40.9512 135.323 40.9512C135.467 40.9512 135.593 40.9683 135.641 40.9854V40.4077C135.593 40.4009 135.504 40.3838 135.402 40.3838C134.985 40.3838 134.657 40.6333 134.541 41.0264H134.527V40.4453H133.966V44Z" fill="#506677"/>
<path d="M136.126 44H136.721V41.7852C136.721 41.2827 137.022 40.9512 137.483 40.9512C137.627 40.9512 137.753 40.9683 137.801 40.9854V40.4077C137.753 40.4009 137.665 40.3838 137.562 40.3838C137.145 40.3838 136.817 40.6333 136.701 41.0264H136.687V40.4453H136.126V44Z" fill="#506677"/>
<path d="M139.589 44.0615C140.57 44.0615 141.233 43.354 141.233 42.2227C141.233 41.0879 140.57 40.3838 139.589 40.3838C138.604 40.3838 137.941 41.0879 137.941 42.2227C137.941 43.354 138.604 44.0615 139.589 44.0615ZM139.589 43.5386C138.96 43.5386 138.546 43.0601 138.546 42.2227C138.546 41.3853 138.96 40.9067 139.589 40.9067C140.218 40.9067 140.628 41.3853 140.628 42.2227C140.628 43.0601 140.218 43.5386 139.589 43.5386Z" fill="#506677"/>
<path d="M141.834 44H142.429V41.7852C142.429 41.2827 142.73 40.9512 143.191 40.9512C143.335 40.9512 143.461 40.9683 143.509 40.9854V40.4077C143.461 40.4009 143.373 40.3838 143.27 40.3838C142.853 40.3838 142.525 40.6333 142.409 41.0264H142.395V40.4453H141.834V44Z" fill="#506677"/>
<path d="M10.3247 52.4263C10.3247 52.939 10.6494 53.25 11.3193 53.4106L11.8833 53.5474C12.29 53.6465 12.4302 53.7935 12.4302 54.0498C12.4302 54.3711 12.1328 54.5762 11.6509 54.5762C11.1689 54.5762 10.8955 54.3813 10.8237 53.9746H10.229C10.2974 54.6411 10.8169 55.0615 11.6509 55.0615C12.4438 55.0615 13.0283 54.624 13.0283 54.0054C13.0283 53.4961 12.7686 53.2158 12.0508 53.0415L11.4868 52.9048C11.0903 52.8091 10.9092 52.6416 10.9092 52.3955C10.9092 52.0845 11.1963 51.8691 11.6304 51.8691C12.0679 51.8691 12.3413 52.0981 12.3857 52.4707H12.9531C12.9292 51.8418 12.4097 51.3838 11.6304 51.3838C10.8613 51.3838 10.3247 51.8179 10.3247 52.4263Z" fill="#506677"/>
<path d="M13.9751 50.813C14.1836 50.813 14.3477 50.6455 14.3477 50.4404C14.3477 50.2319 14.1836 50.0679 13.9751 50.0679C13.77 50.0679 13.6025 50.2319 13.6025 50.4404C13.6025 50.6455 13.77 50.813 13.9751 50.813ZM13.6777 55H14.2725V51.4453H13.6777V55Z" fill="#506677"/>
<path d="M15.2671 50.5874V51.4453H14.7373V51.9341H15.2671V54.0771C15.2671 54.7607 15.52 55.0273 16.1729 55.0273C16.313 55.0273 16.4771 55.0171 16.5488 55V54.501C16.5078 54.5078 16.3711 54.5181 16.3027 54.5181C15.9985 54.5181 15.8618 54.3711 15.8618 54.0464V51.9341H16.5522V51.4453H15.8618V50.5874H15.2671Z" fill="#506677"/>
<path d="M21.5391 51.4453H20.9204L19.936 54.3677H19.9224L18.9414 51.4453H18.3159L19.625 55H20.2334L21.5391 51.4453Z" fill="#506677"/>
<path d="M23.3779 55.0615C24.3589 55.0615 25.022 54.354 25.022 53.2227C25.022 52.0879 24.3589 51.3838 23.3779 51.3838C22.3936 51.3838 21.7305 52.0879 21.7305 53.2227C21.7305 54.354 22.3936 55.0615 23.3779 55.0615ZM23.3779 54.5386C22.749 54.5386 22.3354 54.0601 22.3354 53.2227C22.3354 52.3853 22.749 51.9067 23.3779 51.9067C24.0068 51.9067 24.417 52.3853 24.417 53.2227C24.417 54.0601 24.0068 54.5386 23.3779 54.5386Z" fill="#506677"/>
<path d="M25.6543 55H26.249V50.0679H25.6543V55Z" fill="#506677"/>
<path d="M29.9712 51.4453H29.3765V53.5337C29.3765 54.1387 29.0278 54.5352 28.4502 54.5352C27.8999 54.5352 27.6299 54.2241 27.6299 53.6465V51.4453H27.0352V53.7524C27.0352 54.5591 27.4897 55.0615 28.2656 55.0615C28.8125 55.0615 29.1816 54.8325 29.3936 54.4224H29.4072V55H29.9712V51.4453Z" fill="#506677"/>
<path d="M32.4697 51.3838C31.9536 51.3838 31.54 51.647 31.3213 52.0469H31.3076V51.4453H30.7437V56.186H31.3384V54.4224H31.3521C31.564 54.812 31.9741 55.0615 32.4834 55.0615C33.3789 55.0615 33.9907 54.3369 33.9907 53.2227C33.9907 52.1084 33.3755 51.3838 32.4697 51.3838ZM32.3535 54.5386C31.7451 54.5386 31.335 54.0156 31.335 53.2227C31.335 52.4331 31.7451 51.9067 32.3535 51.9067C32.9858 51.9067 33.3823 52.4194 33.3823 53.2227C33.3823 54.0293 32.9858 54.5386 32.3535 54.5386Z" fill="#506677"/>
<path d="M34.7837 50.5874V51.4453H34.2539V51.9341H34.7837V54.0771C34.7837 54.7607 35.0366 55.0273 35.6895 55.0273C35.8296 55.0273 35.9937 55.0171 36.0654 55V54.501C36.0244 54.5078 35.8877 54.5181 35.8193 54.5181C35.5151 54.5181 35.3784 54.3711 35.3784 54.0464V51.9341H36.0688V51.4453H35.3784V50.5874H34.7837Z" fill="#506677"/>
<path d="M37.6753 55.0615C38.1538 55.0615 38.605 54.7949 38.8169 54.3882H38.8306V55H39.3945V52.5425C39.3945 51.835 38.8682 51.3838 38.0342 51.3838C37.1934 51.3838 36.667 51.8555 36.626 52.4707H37.2002C37.2754 52.1221 37.5625 51.9067 38.0205 51.9067C38.5127 51.9067 38.7998 52.1665 38.7998 52.6006V52.8979L37.7812 52.9561C36.9609 53.0039 36.4927 53.3867 36.4927 53.9951C36.4927 54.6343 36.9678 55.0615 37.6753 55.0615ZM37.8086 54.5557C37.3813 54.5557 37.0977 54.3335 37.0977 53.9951C37.0977 53.6602 37.3711 53.4482 37.8496 53.4175L38.7998 53.3594V53.6499C38.7998 54.1626 38.3691 54.5557 37.8086 54.5557Z" fill="#506677"/>
<path d="M40.3413 50.5874V51.4453H39.8115V51.9341H40.3413V54.0771C40.3413 54.7607 40.5942 55.0273 41.2471 55.0273C41.3872 55.0273 41.5513 55.0171 41.623 55V54.501C41.582 54.5078 41.4453 54.5181 41.377 54.5181C41.0728 54.5181 40.936 54.3711 40.936 54.0464V51.9341H41.6265V51.4453H40.936V50.5874H40.3413Z" fill="#506677"/>
<path d="M44.5181 53.9814C44.4189 54.3164 44.0874 54.5454 43.6362 54.5454C42.9971 54.5454 42.5972 54.0977 42.5972 53.4175V53.3833H45.147V53.1577C45.147 52.0811 44.5557 51.3838 43.5952 51.3838C42.6143 51.3838 41.9854 52.1323 41.9854 53.2363C41.9854 54.354 42.604 55.0615 43.6226 55.0615C44.3984 55.0615 45 54.6035 45.1025 53.9814H44.5181ZM43.585 51.8999C44.1455 51.8999 44.5181 52.3237 44.5317 52.9185H42.6006C42.6382 52.3271 43.0278 51.8999 43.585 51.8999Z" fill="#506677"/>
<path d="M45.7485 55H46.3433V52.7715C46.3433 52.2793 46.6851 51.9102 47.1567 51.9102C47.5977 51.9102 47.8848 52.1904 47.8848 52.6177V55H48.4795V52.7407C48.4795 52.2588 48.811 51.9102 49.2827 51.9102C49.751 51.9102 50.021 52.1973 50.021 52.6826V55H50.6157V52.5459C50.6157 51.8418 50.1611 51.3838 49.457 51.3838C48.958 51.3838 48.541 51.6367 48.3428 52.0605H48.3291C48.1753 51.6299 47.8164 51.3838 47.3311 51.3838C46.8525 51.3838 46.4902 51.6367 46.3228 52.0127H46.3091V51.4453H45.7485V55Z" fill="#506677"/>
<path d="M53.8491 55.0615C54.3276 55.0615 54.7788 54.7949 54.9907 54.3882H55.0044V55H55.5684V52.5425C55.5684 51.835 55.042 51.3838 54.208 51.3838C53.3672 51.3838 52.8408 51.8555 52.7998 52.4707H53.374C53.4492 52.1221 53.7363 51.9067 54.1943 51.9067C54.6865 51.9067 54.9736 52.1665 54.9736 52.6006V52.8979L53.9551 52.9561C53.1348 53.0039 52.6665 53.3867 52.6665 53.9951C52.6665 54.6343 53.1416 55.0615 53.8491 55.0615ZM53.9824 54.5557C53.5552 54.5557 53.2715 54.3335 53.2715 53.9951C53.2715 53.6602 53.5449 53.4482 54.0234 53.4175L54.9736 53.3594V53.6499C54.9736 54.1626 54.543 54.5557 53.9824 54.5557Z" fill="#506677"/>
<path d="M59.2769 52.6108C59.2017 51.9717 58.6719 51.3838 57.7832 51.3838C56.8022 51.3838 56.1494 52.1016 56.1494 53.2227C56.1494 54.3677 56.8057 55.0615 57.79 55.0615C58.5967 55.0615 59.1914 54.5625 59.2837 53.855H58.6992C58.5967 54.2822 58.2788 54.5386 57.7935 54.5386C57.1782 54.5386 56.7544 54.0498 56.7544 53.2227C56.7544 52.416 57.1714 51.9067 57.7866 51.9067C58.3096 51.9067 58.6104 52.2246 58.6958 52.6108H59.2769Z" fill="#506677"/>
<path d="M62.7837 52.6108C62.7085 51.9717 62.1787 51.3838 61.29 51.3838C60.3091 51.3838 59.6562 52.1016 59.6562 53.2227C59.6562 54.3677 60.3125 55.0615 61.2969 55.0615C62.1035 55.0615 62.6982 54.5625 62.7905 53.855H62.2061C62.1035 54.2822 61.7856 54.5386 61.3003 54.5386C60.6851 54.5386 60.2612 54.0498 60.2612 53.2227C60.2612 52.416 60.6782 51.9067 61.2935 51.9067C61.8164 51.9067 62.1172 52.2246 62.2026 52.6108H62.7837Z" fill="#506677"/>
<path d="M66.2563 51.4453H65.6616V53.5337C65.6616 54.1387 65.313 54.5352 64.7354 54.5352C64.1851 54.5352 63.915 54.2241 63.915 53.6465V51.4453H63.3203V53.7524C63.3203 54.5591 63.7749 55.0615 64.5508 55.0615C65.0977 55.0615 65.4668 54.8325 65.6787 54.4224H65.6924V55H66.2563V51.4453Z" fill="#506677"/>
<path d="M66.9673 52.4263C66.9673 52.939 67.292 53.25 67.9619 53.4106L68.5259 53.5474C68.9326 53.6465 69.0728 53.7935 69.0728 54.0498C69.0728 54.3711 68.7754 54.5762 68.2935 54.5762C67.8115 54.5762 67.5381 54.3813 67.4663 53.9746H66.8716C66.9399 54.6411 67.4595 55.0615 68.2935 55.0615C69.0864 55.0615 69.6709 54.624 69.6709 54.0054C69.6709 53.4961 69.4111 53.2158 68.6934 53.0415L68.1294 52.9048C67.7329 52.8091 67.5518 52.6416 67.5518 52.3955C67.5518 52.0845 67.8389 51.8691 68.2729 51.8691C68.7104 51.8691 68.9839 52.0981 69.0283 52.4707H69.5957C69.5718 51.8418 69.0522 51.3838 68.2729 51.3838C67.5039 51.3838 66.9673 51.8179 66.9673 52.4263Z" fill="#506677"/>
<path d="M71.3286 55.0615C71.8071 55.0615 72.2583 54.7949 72.4702 54.3882H72.4839V55H73.0479V52.5425C73.0479 51.835 72.5215 51.3838 71.6875 51.3838C70.8467 51.3838 70.3203 51.8555 70.2793 52.4707H70.8535C70.9287 52.1221 71.2158 51.9067 71.6738 51.9067C72.166 51.9067 72.4531 52.1665 72.4531 52.6006V52.8979L71.4346 52.9561C70.6143 53.0039 70.146 53.3867 70.146 53.9951C70.146 54.6343 70.6211 55.0615 71.3286 55.0615ZM71.4619 54.5557C71.0347 54.5557 70.751 54.3335 70.751 53.9951C70.751 53.6602 71.0244 53.4482 71.5029 53.4175L72.4531 53.3594V53.6499C72.4531 54.1626 72.0225 54.5557 71.4619 54.5557Z" fill="#506677"/>
<path d="M73.8032 55H74.3979V52.9082C74.3979 52.3066 74.7637 51.9102 75.3242 51.9102C75.8711 51.9102 76.1411 52.2246 76.1411 52.7988V55H76.7358V52.6929C76.7358 51.8862 76.2847 51.3838 75.5054 51.3838C74.9551 51.3838 74.5757 51.6299 74.3774 52.0127H74.3638V51.4453H73.8032V55Z" fill="#506677"/>
<path d="M77.686 50.5874V51.4453H77.1562V51.9341H77.686V54.0771C77.686 54.7607 77.939 55.0273 78.5918 55.0273C78.7319 55.0273 78.896 55.0171 78.9678 55V54.501C78.9268 54.5078 78.79 54.5181 78.7217 54.5181C78.4175 54.5181 78.2808 54.3711 78.2808 54.0464V51.9341H78.9712V51.4453H78.2808V50.5874H77.686Z" fill="#506677"/>
<path d="M79.9351 50.813C80.1436 50.813 80.3076 50.6455 80.3076 50.4404C80.3076 50.2319 80.1436 50.0679 79.9351 50.0679C79.73 50.0679 79.5625 50.2319 79.5625 50.4404C79.5625 50.6455 79.73 50.813 79.9351 50.813ZM79.6377 55H80.2324V51.4453H79.6377V55Z" fill="#506677"/>
<path d="M83.9546 51.4453H83.3599V53.5337C83.3599 54.1387 83.0112 54.5352 82.4336 54.5352C81.8833 54.5352 81.6133 54.2241 81.6133 53.6465V51.4453H81.0186V53.7524C81.0186 54.5591 81.4731 55.0615 82.249 55.0615C82.7959 55.0615 83.165 54.8325 83.377 54.4224H83.3906V55H83.9546V51.4453Z" fill="#506677"/>
<path d="M84.7271 55H85.3218V52.7715C85.3218 52.2793 85.6636 51.9102 86.1353 51.9102C86.5762 51.9102 86.8633 52.1904 86.8633 52.6177V55H87.458V52.7407C87.458 52.2588 87.7896 51.9102 88.2612 51.9102C88.7295 51.9102 88.9995 52.1973 88.9995 52.6826V55H89.5942V52.5459C89.5942 51.8418 89.1396 51.3838 88.4355 51.3838C87.9365 51.3838 87.5195 51.6367 87.3213 52.0605H87.3076C87.1538 51.6299 86.7949 51.3838 86.3096 51.3838C85.8311 51.3838 85.4688 51.6367 85.3013 52.0127H85.2876V51.4453H84.7271V55Z" fill="#506677"/>
<path d="M93.1353 55.0615C93.6479 55.0615 94.0547 54.8086 94.2837 54.3984H94.2939V55H94.8613V50.0679H94.2666V52.0229H94.2529C94.041 51.6333 93.6309 51.3838 93.1216 51.3838C92.2261 51.3838 91.6143 52.1084 91.6143 53.2227C91.6143 54.3369 92.2295 55.0615 93.1353 55.0615ZM93.248 51.9067C93.8599 51.9067 94.27 52.4297 94.27 53.2227C94.27 54.019 93.8599 54.5386 93.248 54.5386C92.6191 54.5386 92.2227 54.0293 92.2227 53.2227C92.2227 52.4194 92.6191 51.9067 93.248 51.9067Z" fill="#506677"/>
<path d="M97.1377 55.0615C98.1187 55.0615 98.7817 54.354 98.7817 53.2227C98.7817 52.0879 98.1187 51.3838 97.1377 51.3838C96.1533 51.3838 95.4902 52.0879 95.4902 53.2227C95.4902 54.354 96.1533 55.0615 97.1377 55.0615ZM97.1377 54.5386C96.5088 54.5386 96.0952 54.0601 96.0952 53.2227C96.0952 52.3853 96.5088 51.9067 97.1377 51.9067C97.7666 51.9067 98.1768 52.3853 98.1768 53.2227C98.1768 54.0601 97.7666 54.5386 97.1377 54.5386Z" fill="#506677"/>
<path d="M99.4141 55H100.009V50.0679H99.4141V55Z" fill="#506677"/>
<path d="M102.285 55.0615C103.266 55.0615 103.929 54.354 103.929 53.2227C103.929 52.0879 103.266 51.3838 102.285 51.3838C101.301 51.3838 100.638 52.0879 100.638 53.2227C100.638 54.354 101.301 55.0615 102.285 55.0615ZM102.285 54.5386C101.656 54.5386 101.243 54.0601 101.243 53.2227C101.243 52.3853 101.656 51.9067 102.285 51.9067C102.914 51.9067 103.324 52.3853 103.324 53.2227C103.324 54.0601 102.914 54.5386 102.285 54.5386Z" fill="#506677"/>
<path d="M104.531 55H105.125V52.7852C105.125 52.2827 105.426 51.9512 105.888 51.9512C106.031 51.9512 106.158 51.9683 106.206 51.9854V51.4077C106.158 51.4009 106.069 51.3838 105.966 51.3838C105.549 51.3838 105.221 51.6333 105.105 52.0264H105.091V51.4453H104.531V55Z" fill="#506677"/>
<path d="M108.878 53.9814C108.779 54.3164 108.448 54.5454 107.997 54.5454C107.357 54.5454 106.958 54.0977 106.958 53.4175V53.3833H109.507V53.1577C109.507 52.0811 108.916 51.3838 107.956 51.3838C106.975 51.3838 106.346 52.1323 106.346 53.2363C106.346 54.354 106.964 55.0615 107.983 55.0615C108.759 55.0615 109.36 54.6035 109.463 53.9814H108.878ZM107.945 51.8999C108.506 51.8999 108.878 52.3237 108.892 52.9185H106.961C106.999 52.3271 107.388 51.8999 107.945 51.8999Z" fill="#506677"/>
<path d="M110.109 55H110.704V52.7715C110.704 52.2793 111.045 51.9102 111.517 51.9102C111.958 51.9102 112.245 52.1904 112.245 52.6177V55H112.84V52.7407C112.84 52.2588 113.171 51.9102 113.643 51.9102C114.111 51.9102 114.381 52.1973 114.381 52.6826V55H114.976V52.5459C114.976 51.8418 114.521 51.3838 113.817 51.3838C113.318 51.3838 112.901 51.6367 112.703 52.0605H112.689C112.536 51.6299 112.177 51.3838 111.691 51.3838C111.213 51.3838 110.851 51.6367 110.683 52.0127H110.669V51.4453H110.109V55Z" fill="#506677"/>
<path d="M117.075 51.3838C116.162 51.3838 115.561 52.105 115.561 53.2227C115.561 54.3369 116.162 55.0615 117.061 55.0615C117.563 55.0615 117.977 54.812 118.199 54.4053H118.213V56.186H118.808V51.4453H118.24V52.0469H118.227C117.998 51.6367 117.591 51.3838 117.075 51.3838ZM117.181 54.5386C116.559 54.5386 116.169 54.0327 116.169 53.2227C116.169 52.4092 116.559 51.9067 117.181 51.9067C117.789 51.9067 118.213 52.4297 118.213 53.2227C118.213 54.0156 117.789 54.5386 117.181 54.5386Z" fill="#506677"/>
<path d="M122.502 51.4453H121.908V53.5337C121.908 54.1387 121.559 54.5352 120.981 54.5352C120.431 54.5352 120.161 54.2241 120.161 53.6465V51.4453H119.566V53.7524C119.566 54.5591 120.021 55.0615 120.797 55.0615C121.344 55.0615 121.713 54.8325 121.925 54.4224H121.938V55H122.502V51.4453Z" fill="#506677"/>
<path d="M125.633 53.9814C125.534 54.3164 125.203 54.5454 124.751 54.5454C124.112 54.5454 123.712 54.0977 123.712 53.4175V53.3833H126.262V53.1577C126.262 52.0811 125.671 51.3838 124.71 51.3838C123.729 51.3838 123.101 52.1323 123.101 53.2363C123.101 54.354 123.719 55.0615 124.738 55.0615C125.514 55.0615 126.115 54.6035 126.218 53.9814H125.633ZM124.7 51.8999C125.261 51.8999 125.633 52.3237 125.647 52.9185H123.716C123.753 52.3271 124.143 51.8999 124.7 51.8999Z" fill="#506677"/>
<path d="M127.366 55.0342C127.585 55.0342 127.756 54.8633 127.756 54.6445C127.756 54.4258 127.585 54.2549 127.366 54.2549C127.147 54.2549 126.977 54.4258 126.977 54.6445C126.977 54.8633 127.147 55.0342 127.366 55.0342Z" fill="#506677"/>
<path d="M13.4727 76.4463H11.0938V72.0679H10.4785V77H13.4727V76.4463Z" fill="#506677"/>
<path d="M15.4277 77.0615C16.4087 77.0615 17.0718 76.354 17.0718 75.2227C17.0718 74.0879 16.4087 73.3838 15.4277 73.3838C14.4434 73.3838 13.7803 74.0879 13.7803 75.2227C13.7803 76.354 14.4434 77.0615 15.4277 77.0615ZM15.4277 76.5386C14.7988 76.5386 14.3853 76.0601 14.3853 75.2227C14.3853 74.3853 14.7988 73.9067 15.4277 73.9067C16.0566 73.9067 16.4668 74.3853 16.4668 75.2227C16.4668 76.0601 16.0566 76.5386 15.4277 76.5386Z" fill="#506677"/>
<path d="M17.6733 77H18.2681V74.7852C18.2681 74.2827 18.5688 73.9512 19.0303 73.9512C19.1738 73.9512 19.3003 73.9683 19.3481 73.9854V73.4077C19.3003 73.4009 19.2114 73.3838 19.1089 73.3838C18.6919 73.3838 18.3638 73.6333 18.2476 74.0264H18.2339V73.4453H17.6733V77Z" fill="#506677"/>
<path d="M22.021 75.9814C21.9219 76.3164 21.5903 76.5454 21.1392 76.5454C20.5 76.5454 20.1001 76.0977 20.1001 75.4175V75.3833H22.6499V75.1577C22.6499 74.0811 22.0586 73.3838 21.0981 73.3838C20.1172 73.3838 19.4883 74.1323 19.4883 75.2363C19.4883 76.354 20.1069 77.0615 21.1255 77.0615C21.9014 77.0615 22.5029 76.6035 22.6055 75.9814H22.021ZM21.0879 73.8999C21.6484 73.8999 22.021 74.3237 22.0347 74.9185H20.1035C20.1411 74.3271 20.5308 73.8999 21.0879 73.8999Z" fill="#506677"/>
<path d="M23.2515 77H23.8462V74.7715C23.8462 74.2793 24.188 73.9102 24.6597 73.9102C25.1006 73.9102 25.3877 74.1904 25.3877 74.6177V77H25.9824V74.7407C25.9824 74.2588 26.314 73.9102 26.7856 73.9102C27.2539 73.9102 27.5239 74.1973 27.5239 74.6826V77H28.1187V74.5459C28.1187 73.8418 27.6641 73.3838 26.96 73.3838C26.4609 73.3838 26.0439 73.6367 25.8457 74.0605H25.832C25.6782 73.6299 25.3193 73.3838 24.834 73.3838C24.3555 73.3838 23.9932 73.6367 23.8257 74.0127H23.812V73.4453H23.2515V77Z" fill="#506677"/>
<path d="M31.0205 77V72.0679H30.4053V77H31.0205Z" fill="#506677"/>
<path d="M33.6113 73.3838C33.0952 73.3838 32.6816 73.647 32.4629 74.0469H32.4492V73.4453H31.8853V78.186H32.48V76.4224H32.4937C32.7056 76.812 33.1157 77.0615 33.625 77.0615C34.5205 77.0615 35.1323 76.3369 35.1323 75.2227C35.1323 74.1084 34.5171 73.3838 33.6113 73.3838ZM33.4951 76.5386C32.8867 76.5386 32.4766 76.0156 32.4766 75.2227C32.4766 74.4331 32.8867 73.9067 33.4951 73.9067C34.1274 73.9067 34.5239 74.4194 34.5239 75.2227C34.5239 76.0293 34.1274 76.5386 33.4951 76.5386Z" fill="#506677"/>
<path d="M35.6724 74.4263C35.6724 74.939 35.9971 75.25 36.667 75.4106L37.231 75.5474C37.6377 75.6465 37.7778 75.7935 37.7778 76.0498C37.7778 76.3711 37.4805 76.5762 36.9985 76.5762C36.5166 76.5762 36.2432 76.3813 36.1714 75.9746H35.5767C35.645 76.6411 36.1646 77.0615 36.9985 77.0615C37.7915 77.0615 38.376 76.624 38.376 76.0054C38.376 75.4961 38.1162 75.2158 37.3984 75.0415L36.8345 74.9048C36.438 74.8091 36.2568 74.6416 36.2568 74.3955C36.2568 74.0845 36.5439 73.8691 36.978 73.8691C37.4155 73.8691 37.689 74.0981 37.7334 74.4707H38.3008C38.2769 73.8418 37.7573 73.3838 36.978 73.3838C36.209 73.3838 35.6724 73.8179 35.6724 74.4263Z" fill="#506677"/>
<path d="M41.9136 73.4453H41.3188V75.5337C41.3188 76.1387 40.9702 76.5352 40.3926 76.5352C39.8423 76.5352 39.5723 76.2241 39.5723 75.6465V73.4453H38.9775V75.7524C38.9775 76.5591 39.4321 77.0615 40.208 77.0615C40.7549 77.0615 41.124 76.8325 41.3359 76.4224H41.3496V77H41.9136V73.4453Z" fill="#506677"/>
<path d="M42.686 77H43.2808V74.7715C43.2808 74.2793 43.6226 73.9102 44.0942 73.9102C44.5352 73.9102 44.8223 74.1904 44.8223 74.6177V77H45.417V74.7407C45.417 74.2588 45.7485 73.9102 46.2202 73.9102C46.6885 73.9102 46.9585 74.1973 46.9585 74.6826V77H47.5532V74.5459C47.5532 73.8418 47.0986 73.3838 46.3945 73.3838C45.8955 73.3838 45.4785 73.6367 45.2803 74.0605H45.2666C45.1128 73.6299 44.7539 73.3838 44.2686 73.3838C43.79 73.3838 43.4277 73.6367 43.2603 74.0127H43.2466V73.4453H42.686V77Z" fill="#506677"/>
<path d="M48.8145 74.2793C49.0332 74.2793 49.2041 74.1084 49.2041 73.8896C49.2041 73.6709 49.0332 73.5 48.8145 73.5C48.5957 73.5 48.4248 73.6709 48.4248 73.8896C48.4248 74.1084 48.5957 74.2793 48.8145 74.2793ZM48.8145 77.0342C49.0332 77.0342 49.2041 76.8633 49.2041 76.6445C49.2041 76.4258 49.0332 76.2549 48.8145 76.2549C48.5957 76.2549 48.4248 76.4258 48.4248 76.6445C48.4248 76.8633 48.5957 77.0342 48.8145 77.0342Z" fill="#506677"/>
<path d="M10 24.5C10 23.1193 11.1193 22 12.5 22H83.5C84.8807 22 86 23.1193 86 24.5V24.5C86 25.8807 84.8807 27 83.5 27H12.5C11.1193 27 10 25.8807 10 24.5V24.5Z" fill="#506677"/>
<defs>
<clipPath id="clip0">
<rect width="160" height="76" fill="white" transform="translate(196 214)"/>
</clipPath>
</defs>
</svg>
