<svg width="960" height="960" viewBox="0 0 960 960" fill="none" xmlns="http://www.w3.org/2000/svg">
<path fill-rule="evenodd" clip-rule="evenodd" d="M480 90C575.739 89.9703 671.352 96.9349 766.077 110.838L766.086 110.839C845.219 122.48 900 191.763 900 269.64V510.36C900 588.237 845.219 657.521 766.086 669.161L766.079 669.162C689.632 680.39 612.588 687.09 535.35 689.229L535.278 689.231C527.371 689.43 519.838 692.642 514.219 698.207C514.208 698.219 514.196 698.23 514.185 698.241L351.213 861.213C342.633 869.793 329.73 872.36 318.52 867.716C307.309 863.073 300 852.134 300 840V681.808C264.378 678.542 229.009 674.326 193.914 669.161C114.781 657.521 60 588.197 60 510.4V269.64C60 191.809 114.776 122.48 193.914 110.839L193.916 110.839C287.314 97.1078 382.849 90.0005 479.991 90M757.354 170.201C665.521 156.722 572.826 149.971 480.009 150H480C385.786 150 293.165 156.893 202.646 170.201M757.354 170.201C757.357 170.201 757.36 170.202 757.363 170.202C804.946 177.206 840 219.36 840 269.64V510.36C840 560.641 804.944 602.796 757.361 609.798C683.265 620.681 608.591 627.176 533.73 629.25C510.501 629.846 488.379 639.301 471.895 655.679L471.827 655.747L360 767.574V654.24C360 638.572 347.943 625.542 332.322 624.33C288.678 620.942 245.44 616.099 202.649 609.8L202.646 609.799C155.059 602.8 120 560.603 120 510.4V269.64C120 219.392 155.063 177.201 202.644 170.201" fill="white"/>
<path fill-rule="evenodd" clip-rule="evenodd" d="M403.665 348.974L427.32 404.096H380.227L403.665 348.974ZM528.748 494.281L428.713 255.986C428.001 254.054 427.118 252.294 426.063 250.706C427.118 252.294 428.001 254.054 428.713 255.986L528.748 494.281ZM405.941 239.72C405.619 239.686 405.298 239.659 404.978 239.639C405.298 239.659 405.619 239.686 405.941 239.72C405.941 239.72 405.941 239.72 405.941 239.72ZM332.667 515.952L350.737 473.452H457.084L475.233 515.744L475.249 515.781C478.042 522.401 482.096 528.109 487.611 532.442L487.759 532.558L487.91 532.669C493.845 537.021 500.643 539.329 508.009 539.329C516.858 539.329 524.661 535.865 531.089 529.86C538.603 523.118 542.077 514.097 542.077 504.041C542.077 499.358 541.017 494.715 539.291 490.227L539.23 490.067L439.217 251.826C436.557 244.755 432.06 238.922 425.704 234.84C420.009 230.761 413.533 228.547 406.532 228.429C398.872 227.756 391.636 229.709 385.165 233.896L385.032 233.982L384.902 234.071C378.552 238.437 373.99 244.489 371.086 251.711L269.635 495.357L269.467 495.915C268.387 499.515 267.771 503.189 267.771 506.888C267.771 515.253 270.316 522.984 275.817 529.331C282.183 536.677 291.262 539.329 300.619 539.329C307.612 539.329 314.104 537.22 319.79 533.159L319.848 533.117L319.905 533.076C325.839 528.724 330.064 522.87 332.667 515.952ZM644.315 527.505L644.435 527.398L644.552 527.287C651.938 520.29 655.805 511.368 655.805 501.194V266.152C655.805 256.068 651.995 247.232 644.55 240.46C637.733 233.743 629.298 230.051 619.704 230.051C609.501 230.051 600.328 233.423 593.126 240.565C585.94 247.409 582.383 256.224 582.383 266.152V501.194C582.383 510.968 585.684 519.753 592.379 526.843L592.49 526.96L592.604 527.074C599.681 534.151 608.837 537.296 618.891 537.296C628.508 537.296 637.138 533.926 644.315 527.505Z" fill="white"/>
</svg>
