<svg width="2692" height="557" viewBox="0 0 2692 557" fill="none" xmlns="http://www.w3.org/2000/svg">
<path d="M679.076 292.731C679.403 292.731 679.976 292.813 680.795 292.976C688.326 293.468 693.811 293.713 697.249 293.713C723.281 293.713 742.846 287 755.944 273.575C769.206 260.15 775.837 240.093 775.837 213.406C775.837 189.339 769.779 170.92 757.663 158.149C745.548 145.379 728.111 138.994 705.353 138.994H679.076V292.731ZM573.965 447.205V422.646L603.681 419.945L612.767 412.086V143.905L605.154 136.783L572 134.328V109.769H707.809C755.781 109.769 790.654 117.873 812.429 134.082C834.204 150.291 845.092 175.995 845.092 211.196C845.092 246.561 833.55 274.066 810.464 293.713C787.379 313.196 755.044 322.938 713.458 322.938C709.528 322.938 704.699 322.856 698.968 322.692C693.238 322.365 686.607 321.956 679.076 321.464V412.086L686.689 419.945L722.544 422.646V447.205H573.965Z" fill="black"/>
<path d="M988.78 397.842V315.816C955.708 323.184 933.114 331.206 920.998 339.883C908.882 348.561 902.825 360.349 902.825 375.248C902.825 386.872 906.181 396.123 912.894 402.999C919.606 409.712 928.693 413.068 940.154 413.068C946.539 413.068 953.743 411.84 961.765 409.384C969.952 406.765 978.956 402.917 988.78 397.842ZM988.78 418.471C971.753 430.095 956.281 438.527 942.364 443.766C928.447 449.006 915.104 451.625 902.333 451.625C883.014 451.625 867.215 445.567 854.935 433.452C842.656 421.173 836.516 405.455 836.516 386.299C836.516 362.723 845.521 344.55 863.531 331.779C881.54 319.009 923.536 305.174 989.517 290.275V275.294C989.517 257.121 985.669 243.859 977.974 235.509C970.279 227.159 958.163 222.984 941.627 222.984C938.025 222.984 934.26 223.23 930.33 223.721C926.401 224.212 922.144 224.949 917.56 225.931V273.084H871.144C863.121 273.084 857.227 271.61 853.462 268.663C849.86 265.716 848.059 261.05 848.059 254.665C848.059 238.947 858.619 225.276 879.739 213.652C900.86 202.028 926.81 196.215 957.59 196.215C992.136 196.215 1016.45 202.846 1030.53 216.108C1044.61 229.37 1051.65 252.455 1051.65 285.363V415.524L1058.28 422.646L1085.05 425.102V447.205H995.411L988.78 418.471Z" fill="black"/>
<path d="M1169.55 437.627C1162.51 443.357 1157.19 449.742 1153.59 456.783C1149.99 463.823 1148.19 471.354 1148.19 479.376C1148.19 493.293 1153.83 505.163 1165.13 514.987C1176.43 524.81 1190.26 529.722 1206.63 529.722C1223.99 529.722 1238.32 525.137 1249.61 515.969C1260.91 506.964 1266.56 495.749 1266.56 482.324C1266.56 471.845 1262.79 463.823 1255.26 458.256C1247.89 452.853 1233.57 448.351 1212.28 444.749L1169.55 437.627ZM1204.18 220.774C1191.24 220.774 1180.93 226.095 1173.23 236.737C1165.7 247.215 1161.94 261.378 1161.94 279.224C1161.94 297.724 1165.7 312.541 1173.23 323.675C1180.77 334.644 1190.75 340.129 1203.2 340.129C1215.31 340.129 1225.14 334.562 1232.67 323.429C1240.2 312.132 1243.96 297.233 1243.96 278.732C1243.96 261.541 1240.2 247.625 1232.67 236.983C1225.3 226.177 1215.8 220.774 1204.18 220.774ZM1274.66 211.933H1349.07V240.421H1294.55C1298.32 246.97 1301.1 253.437 1302.9 259.822C1304.87 266.207 1305.85 272.675 1305.85 279.224C1305.85 304.11 1296.11 324.248 1276.63 339.638C1257.14 355.028 1231.28 362.723 1199.02 362.723C1195.26 362.723 1192.31 362.723 1190.18 362.723C1188.22 362.559 1186.33 362.395 1184.53 362.232C1183.06 365.834 1181.99 369.19 1181.34 372.301C1180.85 375.248 1180.6 378.113 1180.6 380.896C1180.6 382.861 1180.68 384.989 1180.85 387.282C1181.18 389.574 1181.58 391.948 1182.08 394.404L1216.21 398.824C1257.63 404.882 1286.29 413.068 1302.17 423.383C1318.21 433.534 1326.24 448.187 1326.24 467.343C1326.24 492.229 1313.38 513.267 1287.68 530.458C1261.97 547.65 1229.8 556.245 1191.16 556.245C1158.75 556.245 1133.29 550.024 1114.79 537.58C1096.28 525.301 1087.03 508.601 1087.03 487.481C1087.03 471.763 1091.62 458.993 1100.79 449.169C1109.96 439.346 1122.56 433.616 1138.61 431.978C1136.48 427.394 1134.84 423.055 1133.7 418.962C1132.71 414.705 1132.22 410.694 1132.22 406.929C1132.22 398.906 1134.43 391.129 1138.85 383.598C1143.27 375.903 1150.31 367.798 1159.97 359.285C1139.84 353.554 1124.36 344.14 1113.56 331.042C1102.92 317.944 1097.59 302.145 1097.59 283.644C1097.59 257.612 1107.25 236.737 1126.57 221.02C1146.06 205.138 1172.25 197.198 1205.16 197.198C1216.29 197.198 1227.67 198.426 1239.3 200.881C1250.92 203.337 1262.71 207.021 1274.66 211.933Z" fill="black"/>
<path d="M1508.23 292.24V286.837C1508.23 266.371 1504.47 250.736 1496.94 239.93C1489.41 228.96 1478.6 223.475 1464.52 223.475C1449.13 223.475 1436.77 229.615 1427.44 241.894C1418.1 254.01 1413.03 270.792 1412.21 292.24H1508.23ZM1574.3 384.826V422.155C1557.11 431.978 1539.75 439.346 1522.23 444.258C1504.71 449.169 1487.2 451.625 1469.68 451.625C1432.18 451.625 1402.06 440.083 1379.3 416.998C1356.71 393.912 1345.41 363.378 1345.41 325.394C1345.41 287.246 1356.95 256.138 1380.04 232.071C1403.29 207.84 1433.17 195.724 1469.68 195.724C1502.75 195.724 1528.45 205.711 1546.79 225.686C1565.13 245.496 1574.3 273.411 1574.3 309.431V319.009H1409.75V320.482C1409.75 349.134 1416.96 371.646 1431.37 388.018C1445.77 404.391 1465.58 412.577 1490.8 412.577C1504.06 412.577 1517.57 410.285 1531.32 405.701C1545.07 401.116 1559.4 394.158 1574.3 384.826Z" fill="black"/>
<path d="M1583.89 447.205V422.646L1614.59 419.945L1623.19 412.086V143.905L1616.07 136.783L1583.89 134.328V109.769H1728.79V134.328L1698.09 136.783L1689.99 143.905V417.98H1786.75L1793.13 409.876L1800.75 348.725H1838.08V447.205H1583.89Z" fill="black"/>
<path d="M1910.3 197.689H1934.61V415.033L1941.98 422.646L1970.22 424.611V447.205H1838.34V424.611L1865.6 422.646L1872.72 415.033V241.403H1839.57V221.265L1910.3 197.689ZM1904.9 83C1915.87 83 1924.87 86.5201 1931.91 93.5602C1938.95 100.437 1942.47 109.196 1942.47 119.838C1942.47 130.971 1938.95 140.14 1931.91 147.344C1925.03 154.384 1916.19 157.904 1905.39 157.904C1894.91 157.904 1886.15 154.384 1879.11 147.344C1872.07 140.303 1868.55 131.462 1868.55 120.82C1868.55 110.015 1871.99 101.01 1878.86 93.8058C1885.9 86.6019 1894.58 83 1904.9 83Z" fill="black"/>
<path d="M1972.45 447.205V424.611L1998.24 422.646L2005.36 415.033V241.403H1970.98V221.265L2043.43 197.689H2067.74V227.405C2086.9 216.763 2103.43 208.986 2117.35 204.074C2131.26 199.162 2143.38 196.707 2153.69 196.707C2176.62 196.707 2193.73 203.583 2205.02 217.336C2216.32 231.089 2221.97 252.045 2221.97 280.206V415.033L2228.6 422.646L2255.12 424.611V447.205H2132.08V424.611L2153.69 422.646L2160.57 415.033V294.695C2160.57 276.031 2156.97 262.36 2149.77 253.683C2142.56 244.841 2131.1 240.421 2115.38 240.421C2109.33 240.421 2102.29 241.158 2094.26 242.631C2086.4 244.105 2077.56 246.233 2067.74 249.016V415.033L2074.62 422.646L2096.72 424.611V447.205H1972.45Z" fill="black"/>
<path d="M2422.88 292.24V286.837C2422.88 266.371 2419.11 250.736 2411.58 239.93C2404.05 228.96 2393.24 223.475 2379.16 223.475C2363.77 223.475 2351.41 229.615 2342.08 241.894C2332.75 254.01 2327.67 270.792 2326.85 292.24H2422.88ZM2488.94 384.826V422.155C2471.75 431.978 2454.39 439.346 2436.88 444.258C2419.36 449.169 2401.84 451.625 2384.32 451.625C2346.83 451.625 2316.7 440.083 2293.94 416.998C2271.35 393.912 2260.05 363.378 2260.05 325.394C2260.05 287.246 2271.6 256.138 2294.68 232.071C2317.93 207.84 2347.81 195.724 2384.32 195.724C2417.39 195.724 2443.1 205.711 2461.43 225.686C2479.77 245.496 2488.94 273.411 2488.94 309.431V319.009H2324.4V320.482C2324.4 349.134 2331.6 371.646 2346.01 388.018C2360.42 404.391 2380.23 412.577 2405.44 412.577C2418.7 412.577 2432.21 410.285 2445.96 405.701C2459.71 401.116 2474.04 394.158 2488.94 384.826Z" fill="black"/>
<path d="M2683.71 208.249V275.294H2653.5L2648.59 237.474L2642.45 231.825C2636.88 229.206 2631.32 227.241 2625.75 225.931C2620.18 224.622 2614.7 223.967 2609.3 223.967C2597.18 223.967 2587.77 226.668 2581.05 232.071C2574.34 237.31 2570.99 244.678 2570.99 254.174C2570.99 262.033 2573.6 268.827 2578.84 274.557C2584.08 280.288 2597.1 288.228 2617.89 298.379L2618.87 298.87C2667.17 322.119 2691.32 345.777 2691.32 369.845C2691.32 395.55 2682.15 415.851 2663.82 430.75C2645.64 445.486 2620.59 452.853 2588.67 452.853C2576.22 452.853 2563.04 451.789 2549.13 449.661C2535.38 447.532 2520.89 444.34 2505.66 440.083V365.67H2535.87L2541.76 408.893L2546.92 414.542C2553.47 417.98 2560.26 420.599 2567.3 422.4C2574.34 424.201 2581.63 425.102 2589.16 425.102C2602.42 425.102 2612.82 421.909 2620.35 415.524C2628.04 408.975 2631.89 400.052 2631.89 388.755C2631.89 374.511 2617.4 360.84 2588.42 347.742C2578.6 343.322 2570.99 339.72 2565.58 336.936C2544.79 326.622 2530.14 316.471 2521.62 306.484C2513.27 296.333 2509.1 284.381 2509.1 270.628C2509.1 248.198 2518.02 230.106 2535.87 216.353C2553.88 202.601 2577.86 195.724 2607.82 195.724C2620.59 195.724 2633.28 196.788 2645.89 198.917C2658.5 200.881 2671.1 203.992 2683.71 208.249Z" fill="black"/>
<path d="M209.6 41.6695C209.6 41.6695 330.031 83.0261 270.715 198.214C270.363 198.918 270.559 203.3 270.559 204.905C270.637 214.334 270.167 223.607 269.659 232.88C295.599 181.977 336.878 171.452 366.614 171.452C387.585 171.452 402.806 176.694 402.806 176.694C402.806 176.694 399.597 284.096 298.808 284.096C288.361 284.096 276.897 282.962 264.259 280.418C259.916 307.259 253.382 332.652 244.696 356.245C276.388 321.227 308.902 310.546 336.839 310.546C380.386 310.546 412.665 336.565 412.665 336.565C412.665 336.565 381.012 415.404 307.885 415.404C285.779 415.404 259.916 408.205 229.985 389.463C190.389 469.438 125.243 520.85 49.8861 520.967H49.8078C43.0781 520.967 37.7569 515.685 37.7569 509.073C37.7569 502.46 43.0781 497.061 49.8469 497.061C112.566 496.983 167.539 455.391 203.3 389.581C189.841 394.824 172.391 399.597 153.532 399.597C116.166 399.597 73.3227 380.777 45.3865 309.294C73.5575 297.712 97.6984 293.017 118.318 293.017C175.638 293.017 205.765 329.209 219.733 353.898C229.124 330.031 236.245 303.933 240.705 276.114C229.319 277.914 218.834 278.697 209.13 278.697C102.707 278.697 94.5683 180.177 94.5683 180.177C94.5683 180.177 116.557 171.334 144.141 171.334C179.942 171.334 225.133 186.28 243.561 255.025C245.361 238.749 246.574 222.042 246.496 204.944C246.496 204.279 246.3 202.713 246.026 202.518C143.554 130.525 209.561 41.7087 209.561 41.7087M196.649 0.0391263L181.311 20.6978C177.634 25.6277 145.785 70.5448 155.136 128.452C155.566 131.191 156.114 133.929 156.701 136.629C152.593 136.316 148.406 136.16 144.141 136.16C110.727 136.16 84.3172 146.411 81.4219 147.545L57.3201 157.249L59.472 183.111C59.7459 186.515 62.7586 217.112 82.0479 248.061C84.4737 251.974 87.2126 255.964 90.3036 259.955C71.6794 262.812 52.1554 268.367 32.0053 276.662L0 289.809L12.5987 322.049C27.8971 361.214 48.9862 390.715 75.279 409.731C90.6166 420.804 107.402 428.238 125.478 431.955C102.433 451.283 76.492 461.769 49.7687 461.808C23.7497 461.808 2.50408 482.975 2.50408 509.033C2.50408 535.092 23.7106 556.142 49.7687 556.142C93.864 556.063 136.903 541.274 174.347 513.337C200.64 493.735 224.272 467.52 243.874 436.493C265.746 445.844 287.148 450.579 307.846 450.579C403.705 450.579 443.653 353.78 445.297 349.633L455 325.453L434.733 309.098C432.072 306.946 415.952 294.465 391.146 285.27C402.688 274.549 412.431 261.442 420.099 246.105C436.493 213.278 437.863 181.272 437.98 177.751L438.763 151.849L414.23 143.398C412.118 142.655 392.711 136.238 366.575 136.238C350.924 136.238 336.134 138.468 322.323 142.772C322.91 125.322 319.975 108.536 313.519 92.4946C289.809 33.453 227.95 10.7597 220.985 8.37303L196.649 0V0.0391263Z" fill="#393939"/>
</svg>
