<svg width="1239" height="667" viewBox="0 0 1239 667" fill="none" xmlns="http://www.w3.org/2000/svg">
<path d="M1224.25 0H14.75C6.6038 0 0 4.41755 0 9.86686V657.133C0 662.582 6.6038 667 14.75 667H1224.25C1232.4 667 1239 662.582 1239 657.133V9.86686C1239 4.41755 1232.4 0 1224.25 0Z" fill="white"/>
<path d="M188.406 100.95H56.6097C53.5768 100.95 51.1182 102.427 51.1182 104.25V107.55C51.1182 109.372 53.5768 110.85 56.6097 110.85H188.406C191.438 110.85 193.897 109.372 193.897 107.55V104.25C193.897 102.427 191.438 100.95 188.406 100.95Z" fill="#CBD5E1"/>
<path d="M188.406 280.95H56.6097C53.5768 280.95 51.1182 282.427 51.1182 284.25V287.55C51.1182 289.372 53.5768 290.85 56.6097 290.85H188.406C191.438 290.85 193.897 289.372 193.897 287.55V284.25C193.897 282.427 191.438 280.95 188.406 280.95Z" fill="#CBD5E1"/>
<rect x="25" y="96" width="19.1533" height="18.15" rx="1" fill="#CBD5E1"/>
<rect x="25" y="276" width="19.1533" height="18.15" rx="1" fill="#CBD5E1"/>
<rect x="25" y="186.75" width="19.1533" height="18.15" rx="1" fill="#CBD5E1"/>
<rect x="25" y="231.3" width="19.1533" height="18.15" rx="1" fill="#CBD5E1"/>
<path d="M111.77 145.5H56.632C53.5868 145.5 51.1182 146.977 51.1182 148.8V152.1C51.1182 153.923 53.5868 155.4 56.632 155.4H111.77C114.815 155.4 117.284 153.923 117.284 152.1V148.8C117.284 146.977 114.815 145.5 111.77 145.5Z" fill="#8585FF"/>
<rect x="25" y="142.2" width="19.1533" height="16.5" rx="1" fill="#8585FF"/>
<path d="M96.0026 190.05H56.7287C53.6301 190.05 51.1182 191.774 51.1182 193.9V197.75C51.1182 199.876 53.6301 201.6 56.7287 201.6H96.0026C99.1012 201.6 101.613 199.876 101.613 197.75V193.9C101.613 191.774 99.1012 190.05 96.0026 190.05Z" fill="#CBD5E1"/>
<path d="M151.742 236.25H56.7084C53.621 236.25 51.1182 237.727 51.1182 239.55V242.85C51.1182 244.672 53.621 246.15 56.7084 246.15H151.742C154.829 246.15 157.332 244.672 157.332 242.85V239.55C157.332 237.727 154.829 236.25 151.742 236.25Z" fill="#CBD5E1"/>
<rect x="1170.52" y="37.9717" width="85.5157" height="13.9718" rx="1" transform="rotate(-180 1170.52 37.9717)" fill="#CBD5E1"/>
<path d="M373.944 100H270.056C268.368 100 267 102.328 267 105.2V120.8C267 123.672 268.368 126 270.056 126H373.944C375.632 126 377 123.672 377 120.8V105.2C377 102.328 375.632 100 373.944 100Z" fill="#E6ECF2"/>
<rect x="1088" y="102" width="98.99" height="25.8593" rx="2" stroke="#E2E8F0" stroke-width="2"/>
<path d="M377.793 444.253H285.914C284.422 444.253 283.212 445.567 283.212 447.187V455.99C283.212 457.61 284.422 458.924 285.914 458.924H377.793C379.286 458.924 380.496 457.61 380.496 455.99V447.187C380.496 445.567 379.286 444.253 377.793 444.253Z" fill="#E6ECF2"/>
<rect x="267.932" y="428.932" width="286.951" height="195.648" rx="4.65829" stroke="#E2E8F0" stroke-width="1.86332"/>
<rect x="282.957" y="485.175" width="15.74" height="13.8599" rx="0.931658" fill="#E2E8F0"/>
<rect x="310.502" y="485.174" width="106.245" height="13.8599" rx="0.931658" fill="#E2E8F0"/>
<rect x="449.538" y="485.174" width="55.0899" height="13.8599" rx="0.931658" fill="#E2E8F0" fill-opacity="0.5"/>
<rect x="282.957" y="514.629" width="15.74" height="13.8599" rx="0.931658" fill="#E2E8F0"/>
<rect x="310.083" y="514.628" width="102.122" height="13.8605" rx="0.931658" fill="#E2E8F0"/>
<rect x="448.905" y="514.628" width="46.2741" height="13.8605" rx="0.931658" fill="#E2E8F0" fill-opacity="0.5"/>
<rect x="282.956" y="547.547" width="15.74" height="13.8599" rx="0.931658" fill="#E2E8F0"/>
<rect x="310.083" y="547.546" width="94.1438" height="13.8605" rx="0.931658" fill="#E2E8F0"/>
<rect x="449.538" y="547.546" width="55.0899" height="13.8599" rx="0.931658" fill="#E2E8F0" fill-opacity="0.5"/>
<rect x="282.957" y="580.466" width="15.74" height="13.8599" rx="0.931658" fill="#E2E8F0"/>
<rect x="310.501" y="580.465" width="106.245" height="13.8599" rx="0.931658" fill="#E2E8F0"/>
<rect x="449.538" y="580.465" width="55.0899" height="13.8599" rx="0.931658" fill="#E2E8F0" fill-opacity="0.5"/>
<path d="M698.284 444.253H606.405C604.913 444.253 603.703 445.567 603.703 447.187V455.99C603.703 457.61 604.913 458.924 606.405 458.924H698.284C699.776 458.924 700.986 457.61 700.986 455.99V447.187C700.986 445.567 699.776 444.253 698.284 444.253Z" fill="#E6ECF2"/>
<rect x="588.422" y="428.932" width="286.951" height="195.648" rx="4.65829" stroke="#E2E8F0" stroke-width="1.86332"/>
<rect x="603.447" y="485.175" width="15.74" height="13.8599" rx="0.931658" fill="#E2E8F0"/>
<rect x="630.992" y="485.174" width="106.245" height="13.8599" rx="0.931658" fill="#E2E8F0"/>
<rect x="770.029" y="485.174" width="55.0899" height="13.8599" rx="0.931658" fill="#E2E8F0" fill-opacity="0.5"/>
<rect x="603.447" y="514.629" width="15.74" height="13.8599" rx="0.931658" fill="#E2E8F0"/>
<rect x="630.573" y="514.628" width="102.122" height="13.8605" rx="0.931658" fill="#E2E8F0"/>
<rect x="769.395" y="514.628" width="46.2741" height="13.8605" rx="0.931658" fill="#E2E8F0" fill-opacity="0.5"/>
<rect x="603.447" y="547.547" width="15.74" height="13.8599" rx="0.931658" fill="#E2E8F0"/>
<rect x="630.573" y="547.546" width="94.1438" height="13.8605" rx="0.931658" fill="#E2E8F0"/>
<rect x="770.028" y="547.546" width="55.0899" height="13.8599" rx="0.931658" fill="#E2E8F0" fill-opacity="0.5"/>
<rect x="603.447" y="580.466" width="15.74" height="13.8599" rx="0.931658" fill="#E2E8F0"/>
<rect x="630.992" y="580.465" width="106.245" height="13.8599" rx="0.931658" fill="#E2E8F0"/>
<rect x="770.028" y="580.465" width="55.0899" height="13.8599" rx="0.931658" fill="#E2E8F0" fill-opacity="0.5"/>
<path d="M1015.98 444.253H924.101C922.608 444.253 921.398 445.567 921.398 447.187V455.99C921.398 457.61 922.608 458.924 924.101 458.924H1015.98C1017.47 458.924 1018.68 457.61 1018.68 455.99V447.187C1018.68 445.567 1017.47 444.253 1015.98 444.253Z" fill="#E6ECF2"/>
<rect x="906.118" y="428.932" width="286.951" height="195.648" rx="4.65829" stroke="#E2E8F0" stroke-width="1.86332"/>
<rect x="921.143" y="485.175" width="15.74" height="13.8599" rx="0.931658" fill="#E2E8F0"/>
<rect x="948.688" y="485.174" width="106.245" height="13.8599" rx="0.931658" fill="#E2E8F0"/>
<rect x="1087.72" y="485.174" width="55.0899" height="13.8599" rx="0.931658" fill="#E2E8F0" fill-opacity="0.5"/>
<rect x="921.143" y="514.629" width="15.74" height="13.8599" rx="0.931658" fill="#E2E8F0"/>
<rect x="948.269" y="514.628" width="102.122" height="13.8605" rx="0.931658" fill="#E2E8F0"/>
<rect x="1087.09" y="514.628" width="46.2741" height="13.8605" rx="0.931658" fill="#E2E8F0" fill-opacity="0.5"/>
<rect x="921.143" y="547.547" width="15.74" height="13.8599" rx="0.931658" fill="#E2E8F0"/>
<rect x="948.269" y="547.546" width="94.1438" height="13.8605" rx="0.931658" fill="#E2E8F0"/>
<rect x="1087.72" y="547.546" width="55.0899" height="13.8599" rx="0.931658" fill="#E2E8F0" fill-opacity="0.5"/>
<rect x="921.143" y="580.466" width="15.74" height="13.8599" rx="0.931658" fill="#E2E8F0"/>
<rect x="948.688" y="580.465" width="106.245" height="13.8599" rx="0.931658" fill="#E2E8F0"/>
<rect x="1087.72" y="580.465" width="55.0899" height="13.8599" rx="0.931658" fill="#E2E8F0" fill-opacity="0.5"/>
<line y1="60.1836" x2="1238" y2="60.1836" stroke="#E2E8F0"/>
<rect x="1.5" y="-1.5" width="440.283" height="212.84" rx="3.28842" transform="matrix(1 0 0 -1 265 382.839)" fill="white" stroke="#E2E8F0" stroke-width="3"/>
<rect x="-1.5" y="1.5" width="445" height="213" rx="3.28842" transform="matrix(-1 0 0 1 1187 170)" fill="white" stroke="#E2E8F0" stroke-width="3"/>
<g clip-path="url(#clip0_139_2521)">
<path d="M1188 31C1188 19.9543 1196.95 11 1208 11V11C1219.05 11 1228 19.9543 1228 31V31C1228 42.0457 1219.05 51 1208 51V51C1196.95 51 1188 42.0457 1188 31V31Z" fill="url(#paint0_linear_139_2521)"/>
<path d="M1200.67 38.9712C1203.11 40.7489 1205.56 42.1712 1208 42.1712C1210.44 42.1712 1212.89 40.7489 1215.33 38.9712C1213.32 38.3578 1212.3 37.4423 1212.27 36.2245C1212.27 36.0074 1212.27 35.6992 1212.27 35.1203C1212.27 35.0284 1212.27 34.9343 1212.27 34.8379C1212.27 33.2859 1212.28 31.2379 1212.29 29.1579C1214.2 26.681 1213.5 23.7771 1212.9 23.8495C1212.17 23.9389 1205.81 17.9031 1204.59 17.5937C1203.37 17.2842 1200.27 18.2833 1199.73 21.0666C1199.2 23.8499 1198.98 30.8657 1201 33.6666C1201.58 34.4637 1202.48 34.7755 1203.72 34.6019C1203.72 35.1845 1203.73 35.5114 1203.73 36.1711C1203.72 37.4443 1202.7 38.3585 1200.67 38.9712Z" fill="url(#paint1_linear_139_2521)"/>
<path d="M1203.73 34.6C1206.67 34.2667 1208.53 33 1208.53 33C1208.53 33 1206.4 35.6667 1203.73 36.2V34.6Z" fill="#5E3015"/>
<path d="M1213.27 29.1999C1214.19 26.9906 1217.87 22.491 1214.69 19.691C1213.63 14.491 1207.73 15.0666 1203.8 16.2666C1201.16 17.0731 1199.16 18.6666 1198.73 17.4666C1196.07 19.691 1197.4 21.8666 1199.16 22.491C1200.76 23.0577 1203.45 23.6243 1208.04 23.091C1208.86 22.9957 1208.69 25.5054 1209.13 25.7767C1209.78 26.1838 1210.29 23.6243 1212.09 24.3929C1213.9 25.1614 1212.83 28.7249 1210.89 28.7249C1210.23 28.7249 1209.89 30.5578 1211.69 31.4245C1213 32.0666 1212.67 30.6355 1213.27 29.1999Z" fill="url(#paint2_linear_139_2521)"/>
<path d="M1222 43.0413C1223.27 45.6222 1224 51.5746 1224 51.5746H1192C1192 51.5746 1192.73 45.6216 1194 43.0413C1195.27 40.461 1202.68 38.0678 1202.68 38.0678C1206.78 39.6669 1209.28 39.6669 1213.32 38.0669C1213.32 38.0669 1220.73 40.4604 1222 43.0413Z" fill="url(#paint3_linear_139_2521)"/>
<path d="M1208.93 39.0002L1209.6 51.2668H1206.4L1207.07 39.0002C1207.07 39.0002 1207.69 38.3335 1208 38.3335C1208.31 38.3335 1208.93 39.0002 1208.93 39.0002Z" fill="url(#paint4_linear_139_2521)"/>
<path d="M1209.09 41.4924L1206.99 40.281L1207.07 39.0002C1207.48 38.5557 1207.79 38.3335 1208 38.3335C1208.21 38.3335 1208.52 38.5557 1208.93 39.0002L1209.09 41.4924H1209.09Z" fill="#645050"/>
<path d="M1208 38.3324L1206.67 40.7335L1202.53 38.2001L1203.73 36.4668L1208 38.0429L1212.27 36.4668L1213.47 38.2001L1209.33 40.7335L1208 38.3324Z" fill="white"/>
</g>
<path fill-rule="evenodd" clip-rule="evenodd" d="M26.0432 19H96.9567V44H26.0432V19ZM26.7645 31.5603C26.7645 25.2208 42.3696 20.0818 61.6203 20.0818C80.8706 20.0818 96.4757 25.2208 96.4757 31.5603C96.4757 37.8997 80.8706 43.0388 61.6203 43.0388C42.37 43.0388 26.7645 37.8997 26.7645 31.5603C26.7645 31.5603 26.7645 37.8997 26.7645 31.5603V31.5603Z" fill="#CEDDE9"/>
<path fill-rule="evenodd" clip-rule="evenodd" d="M26.7646 31.5605C26.7646 25.2211 42.3697 20.082 61.6204 20.082C80.8708 20.082 96.4758 25.2211 96.4758 31.5605C96.4758 37.8999 80.8708 43.039 61.6204 43.039C42.3701 43.039 26.7646 37.8999 26.7646 31.5605C26.7646 31.5605 26.7646 37.8999 26.7646 31.5605V31.5605Z" fill="#8EA6C2"/>
<path fill-rule="evenodd" clip-rule="evenodd" d="M36.2805 26.828H42.4763C42.4763 26.828 42.311 27.0881 42.311 27.4129V35.389C42.311 35.8223 42.4967 36.1907 42.4967 36.1907H36.26C36.26 36.1907 36.4457 35.8219 36.4457 35.4535V27.4777C36.4457 27.1745 36.2805 26.828 36.2805 26.828ZM45.5609 26.8493H51.4523C51.4523 26.8493 51.2871 27.1267 51.2871 27.3833V30.2451L53.3748 27.5755C53.3748 27.5755 53.4991 27.3833 53.4991 27.1912V26.8921H59.4937L56.951 30.4373C56.951 30.4373 56.8271 30.5866 56.8271 30.6935C56.8271 30.8004 56.9306 30.9497 56.9306 30.9497L60.1968 36.1392H52.9817C52.9817 36.1392 53.1061 35.9474 53.1061 35.7548C53.1061 35.563 52.9817 35.3276 52.9817 35.3276L51.2658 32.5299V35.563C51.2658 35.8192 51.4519 36.1604 51.4519 36.1604H45.5609C45.5609 36.1604 45.7262 35.9258 45.7262 35.6695V27.383C45.7262 27.1271 45.5609 26.8493 45.5609 26.8493ZM61.9513 26.9141H72.4898V29.7448C72.4898 29.7448 72.2624 29.5351 71.9739 29.5351H67.6548V30.3107H71.4156V32.8059C71.4156 32.8059 71.1677 32.5963 70.899 32.5963H67.6134V33.4559H72.0353C72.2832 33.4559 72.4284 33.0576 72.4284 33.0576V36.1604H61.9513C61.9513 36.1604 62.1378 35.8878 62.1378 35.6991V27.6062C62.1382 27.2704 61.9513 26.9141 61.9513 26.9141V26.9141ZM77.1524 26.8125H85.5784C85.5784 26.8125 85.4132 27.2025 85.4132 27.4193C85.4132 27.6362 85.5576 28.0262 85.5576 28.0262L88.9238 36.1755H82.6045C82.6045 36.1755 82.7489 35.9371 82.6659 35.7423C82.4919 35.3095 82.3199 34.8759 82.15 34.4414H79.5479C79.5479 34.4414 79.0313 35.5903 79.0313 35.8075C79.0313 36.0235 79.1973 36.1975 79.1973 36.1975H73.9923L77.2555 27.6794C77.2555 27.6794 77.3798 27.5058 77.3798 27.2893C77.3798 27.0729 77.1524 26.8125 77.1524 26.8125ZM80.7252 30.974L80.1055 32.6429H81.4685L80.7252 30.974Z" fill="#CEDDE9"/>
<rect x="773" y="365" width="87" height="24" rx="5.57327" transform="rotate(-90 773 365)" fill="#5233FF"/>
<rect x="826" y="365" width="114" height="24" rx="5.57327" transform="rotate(-90 826 365)" fill="#5233FF"/>
<rect x="878" y="365" width="64" height="23" rx="5.57327" transform="rotate(-90 878 365)" fill="#5233FF"/>
<rect x="930" y="365" width="155" height="23" rx="5.57327" transform="rotate(-90 930 365)" fill="#5233FF"/>
<rect x="981" y="365" width="95" height="24" rx="5.57327" transform="rotate(-90 981 365)" fill="#5233FF"/>
<rect x="1033" y="365" width="167" height="24" rx="5.57327" transform="rotate(-90 1033 365)" fill="#5233FF"/>
<rect x="1085" y="365" width="60" height="23" rx="5.57327" transform="rotate(-90 1085 365)" fill="#5233FF"/>
<rect x="1136" y="365" width="95" height="24" rx="5.57327" transform="rotate(-90 1136 365)" fill="#5233FF"/>
<rect width="87" height="24" rx="5.57327" transform="matrix(6.5867e-08 -1 -1 -2.90083e-08 677 365)" fill="#5233FF"/>
<rect width="114" height="24" rx="5.57327" transform="matrix(6.5867e-08 -1 -1 -2.90083e-08 624 365)" fill="#5233FF"/>
<rect width="64" height="23" rx="5.57327" transform="matrix(6.5867e-08 -1 -1 -2.90083e-08 572 365)" fill="#5233FF"/>
<rect width="155" height="23" rx="5.57327" transform="matrix(6.5867e-08 -1 -1 -2.90083e-08 520 365)" fill="#5233FF"/>
<rect width="95" height="24" rx="5.57327" transform="matrix(6.5867e-08 -1 -1 -2.90083e-08 469 365)" fill="#5233FF"/>
<rect width="54" height="24" rx="5.57327" transform="matrix(6.5867e-08 -1 -1 -2.90083e-08 417 365)" fill="#5233FF"/>
<rect width="60" height="23" rx="5.57327" transform="matrix(6.5867e-08 -1 -1 -2.90083e-08 365 365)" fill="#5233FF"/>
<rect width="95" height="24" rx="5.57327" transform="matrix(6.5867e-08 -1 -1 -2.90083e-08 314 365)" fill="#5233FF"/>
<defs>
<linearGradient id="paint0_linear_139_2521" x1="1208" y1="11" x2="1208" y2="51" gradientUnits="userSpaceOnUse">
<stop stop-color="#EDF6FF"/>
<stop offset="1" stop-color="#FFDDDD"/>
</linearGradient>
<linearGradient id="paint1_linear_139_2521" x1="1207.35" y1="17.5396" x2="1207.35" y2="42.1712" gradientUnits="userSpaceOnUse">
<stop stop-color="#CA7541"/>
<stop offset="1" stop-color="#C18156"/>
</linearGradient>
<linearGradient id="paint2_linear_139_2521" x1="1206.59" y1="15.4517" x2="1206.59" y2="31.5824" gradientUnits="userSpaceOnUse">
<stop stop-color="#1D0024"/>
<stop offset="1" stop-color="#100014"/>
</linearGradient>
<linearGradient id="paint3_linear_139_2521" x1="1208" y1="38.0669" x2="1208" y2="51.5746" gradientUnits="userSpaceOnUse">
<stop stop-color="#1D0024"/>
<stop offset="1" stop-color="#100014"/>
</linearGradient>
<linearGradient id="paint4_linear_139_2521" x1="1208" y1="38.3335" x2="1208" y2="51.2668" gradientUnits="userSpaceOnUse">
<stop stop-color="#EDF6FF"/>
<stop offset="1" stop-color="#FFDDDD"/>
</linearGradient>
<clipPath id="clip0_139_2521">
<path d="M1188 31C1188 19.9543 1196.95 11 1208 11V11C1219.05 11 1228 19.9543 1228 31V31C1228 42.0457 1219.05 51 1208 51V51C1196.95 51 1188 42.0457 1188 31V31Z" fill="white"/>
</clipPath>
</defs>
</svg>
