<svg width="325" height="471" viewBox="0 0 325 471" fill="none" xmlns="http://www.w3.org/2000/svg">
<path d="M321.131 0H3.86905C1.73223 0 0 3.11944 0 6.96746V464.033C0 467.881 1.73223 471 3.86905 471H321.131C323.268 471 325 467.881 325 464.033V6.96746C325 3.11944 323.268 0 321.131 0Z" fill="white"/>
<path d="M205.054 200.464C205.309 199.845 206.418 199.845 206.673 200.464L207.965 203.605C208.021 203.74 208.129 203.857 208.274 203.94C208.419 204.023 208.594 204.068 208.774 204.068H212.956C213.78 204.068 214.123 204.902 213.456 205.285L210.073 207.225C209.928 207.309 209.819 207.426 209.764 207.561C209.708 207.696 209.708 207.842 209.764 207.976L211.056 211.117C211.311 211.737 210.413 212.251 209.747 211.868L206.364 209.928C206.218 209.844 206.043 209.799 205.863 209.799C205.683 209.799 205.508 209.844 205.363 209.928L201.98 211.868C201.313 212.251 200.416 211.736 200.671 211.117L201.963 207.976C202.018 207.842 202.018 207.696 201.963 207.561C201.907 207.426 201.799 207.309 201.654 207.225L198.27 205.285C197.603 204.902 197.947 204.068 198.771 204.068H202.952C203.132 204.068 203.307 204.024 203.452 203.94C203.597 203.857 203.706 203.74 203.761 203.605L205.054 200.464Z" fill="#CEDDE9" stroke="#CEDDE9" stroke-width="0.624" stroke-linecap="round" stroke-linejoin="round"/>
<path d="M225.01 200.464C225.265 199.845 226.374 199.845 226.628 200.464L227.921 203.605C227.976 203.74 228.084 203.857 228.23 203.94C228.375 204.023 228.55 204.068 228.729 204.068H232.911C233.736 204.068 234.078 204.902 233.412 205.285L230.028 207.225C229.883 207.309 229.775 207.426 229.719 207.561C229.664 207.696 229.664 207.842 229.72 207.976L231.011 211.117C231.267 211.737 230.369 212.251 229.703 211.868L226.319 209.928C226.174 209.844 225.999 209.799 225.819 209.799C225.639 209.799 225.464 209.844 225.318 209.928L221.935 211.868C221.269 212.251 220.371 211.736 220.626 211.117L221.918 207.976C221.974 207.842 221.974 207.696 221.918 207.561C221.863 207.426 221.755 207.309 221.609 207.225L218.226 205.285C217.559 204.902 217.902 204.068 218.726 204.068H222.908C223.087 204.068 223.262 204.024 223.408 203.94C223.553 203.857 223.661 203.74 223.717 203.605L225.01 200.464Z" fill="#CEDDE9" stroke="#CEDDE9" stroke-width="0.624" stroke-linecap="round" stroke-linejoin="round"/>
<path d="M244.965 200.464C245.22 199.845 246.329 199.845 246.583 200.464L247.876 203.605C247.931 203.74 248.04 203.857 248.185 203.94C248.33 204.023 248.505 204.068 248.684 204.068H252.867C253.691 204.068 254.033 204.902 253.367 205.285L249.984 207.225C249.838 207.309 249.73 207.426 249.675 207.561C249.619 207.696 249.619 207.842 249.675 207.976L250.966 211.117C251.222 211.737 250.324 212.251 249.658 211.868L246.274 209.928C246.129 209.844 245.954 209.799 245.774 209.799C245.594 209.799 245.419 209.844 245.274 209.928L241.89 211.868C241.224 212.251 240.326 211.736 240.581 211.117L241.873 207.976C241.929 207.842 241.929 207.696 241.873 207.561C241.818 207.426 241.71 207.309 241.564 207.225L238.181 205.285C237.514 204.902 237.858 204.068 238.681 204.068H242.863C243.042 204.068 243.217 204.024 243.363 203.94C243.508 203.857 243.616 203.74 243.672 203.605L244.965 200.464Z" fill="#CEDDE9" stroke="#CEDDE9" stroke-width="0.624" stroke-linecap="round" stroke-linejoin="round"/>
<path d="M264.921 200.464C265.176 199.845 266.285 199.845 266.539 200.464L267.832 203.605C267.887 203.74 267.996 203.857 268.141 203.94C268.286 204.023 268.461 204.068 268.64 204.068H272.823C273.647 204.068 273.989 204.902 273.323 205.285L269.94 207.225C269.794 207.309 269.686 207.426 269.631 207.561C269.575 207.696 269.575 207.842 269.631 207.976L270.922 211.117C271.178 211.737 270.28 212.251 269.614 211.868L266.23 209.928C266.085 209.844 265.91 209.799 265.73 209.799C265.55 209.799 265.375 209.844 265.23 209.928L261.846 211.868C261.18 212.251 260.282 211.736 260.537 211.117L261.829 207.976C261.885 207.842 261.885 207.696 261.829 207.561C261.774 207.426 261.666 207.309 261.52 207.225L258.137 205.285C257.47 204.902 257.814 204.068 258.637 204.068H262.819C262.998 204.068 263.173 204.024 263.319 203.94C263.464 203.857 263.572 203.74 263.628 203.605L264.921 200.464Z" fill="#CEDDE9" stroke="#CEDDE9" stroke-width="0.624" stroke-linecap="round" stroke-linejoin="round"/>
<path d="M284.876 200.464C285.131 199.845 286.24 199.845 286.494 200.464L287.787 203.605C287.843 203.74 287.951 203.857 288.096 203.94C288.241 204.023 288.416 204.068 288.595 204.068H292.778C293.602 204.068 293.944 204.902 293.278 205.285L289.895 207.225C289.749 207.309 289.641 207.426 289.586 207.561C289.53 207.696 289.53 207.842 289.586 207.976L290.878 211.117C291.133 211.737 290.235 212.251 289.569 211.868L286.185 209.928C286.04 209.844 285.865 209.799 285.685 209.799C285.505 209.799 285.33 209.844 285.185 209.928L281.801 211.868C281.135 212.251 280.237 211.736 280.493 211.117L281.784 207.976C281.84 207.842 281.84 207.696 281.784 207.561C281.729 207.426 281.621 207.309 281.475 207.225L278.092 205.285C277.425 204.902 277.769 204.068 278.592 204.068H282.774C282.954 204.068 283.129 204.024 283.274 203.94C283.419 203.857 283.528 203.74 283.583 203.605L284.876 200.464Z" fill="#CEDDE9" stroke="#CEDDE9" stroke-width="0.624" stroke-linecap="round" stroke-linejoin="round"/>
<rect x="132.035" y="212.972" width="105.34" height="13.9718" rx="1" transform="rotate(-180 132.035 212.972)" fill="#CBD5E1"/>
<rect x="24" y="231" width="269" height="99" rx="5" stroke="#E2E8F0" stroke-width="2"/>
<rect x="23" y="350" width="219.933" height="11.3953" rx="1" fill="#E2E8F0"/>
<rect x="23" y="372.791" width="271" height="12.2093" rx="1" fill="#E2E8F0" fill-opacity="0.5"/>
<g clip-path="url(#clip0_115_390)">
<path d="M20 167C20 155.954 28.9543 147 40 147V147C51.0457 147 60 155.954 60 167V167C60 178.046 51.0457 187 40 187V187C28.9543 187 20 178.046 20 167V167Z" fill="url(#paint0_linear_115_390)"/>
<path d="M49.6665 168.267C50.7481 164.675 51.4148 158.533 46.8665 154.333C43.3905 151.123 33.9999 150.8 30.7332 157.8C30.1879 158.969 30.9332 160.8 32.3999 160.733C32.9763 160.707 33.3332 162.533 33.6666 163.667C33.1999 168.267 29.0423 168.352 26.9332 171.867C24.3332 176.2 27.5332 182.6 35.1999 182.6C42.8666 182.6 47.2615 176.254 49.6665 168.267Z" fill="url(#paint1_linear_115_390)"/>
<path d="M52.2666 178.79C53.2443 180.673 53.7333 187.533 53.7333 187.533H26.2666C26.2666 187.533 26.7555 180.673 27.7333 178.79C29.1999 175.965 39.9999 172.333 39.9999 172.333C39.9999 172.333 50.7999 175.965 52.2666 178.79Z" fill="url(#paint2_linear_115_390)"/>
<path d="M43.1998 173.933C43.1998 173.933 41.4977 174.867 39.9318 174.867C38.3659 174.867 36.7998 173.933 36.7998 173.933V171C36.4629 171.053 36.1217 171.074 35.7809 171.061C32.5825 171.06 31.3765 166.401 31.9998 160.733C32.3998 160.733 33.3331 160.733 34.6665 158.867C34.3331 161.467 38.1998 161.067 39.6665 159C38.9331 161.467 40.8665 163.133 42.5331 162.133C45.8013 160.172 46.5359 166.15 43.1998 166.2V173.933Z" fill="url(#paint3_linear_115_390)"/>
<g style="mix-blend-mode:multiply" opacity="0.782">
<path d="M36.7998 171C38.4538 170.696 40.0364 170.085 41.4665 169.2C41.4665 169.2 39.7998 172.067 36.7998 172.067V171Z" fill="#FFD7B8"/>
</g>
<path d="M40.0042 174.73C40.9678 174.686 43.1998 174.214 43.1998 173.195V172.333C43.4443 172.333 44.1444 172.911 44.5046 173.4C45.928 175.333 44.3491 177.067 43.0614 177.067C41.4366 177.067 40.3598 175.709 39.9998 175.056C39.6398 175.709 38.563 177.067 36.9382 177.067C35.6504 177.067 34.0715 175.333 35.495 173.4C35.8551 172.911 36.5552 172.333 36.7998 172.333V173.195C36.7998 174.214 39.092 174.686 40.0042 174.73Z" fill="white"/>
<path d="M39.4668 183.8C39.4668 183.695 39.4981 183.591 39.5567 183.504C39.6153 183.416 39.6986 183.348 39.796 183.307C39.8935 183.267 40.0007 183.256 40.1042 183.277C40.2076 183.298 40.3027 183.348 40.3773 183.423C40.4518 183.497 40.5026 183.593 40.5232 183.696C40.5438 183.799 40.5332 183.907 40.4929 184.004C40.4525 184.102 40.3841 184.185 40.2964 184.243C40.2087 184.302 40.1056 184.333 40.0001 184.333C39.8587 184.333 39.723 184.277 39.623 184.177C39.523 184.077 39.4668 183.941 39.4668 183.8ZM39.4668 181.133C39.4668 181.028 39.4981 180.925 39.5567 180.837C39.6153 180.749 39.6986 180.681 39.796 180.641C39.8935 180.6 40.0007 180.59 40.1042 180.61C40.2076 180.631 40.3027 180.682 40.3773 180.756C40.4518 180.831 40.5026 180.926 40.5232 181.029C40.5438 181.133 40.5332 181.24 40.4929 181.337C40.4525 181.435 40.3841 181.518 40.2964 181.577C40.2087 181.635 40.1056 181.667 40.0001 181.667C39.8587 181.667 39.723 181.61 39.623 181.51C39.523 181.41 39.4668 181.275 39.4668 181.133ZM39.4668 178.467C39.4668 178.361 39.4981 178.258 39.5567 178.17C39.6153 178.083 39.6986 178.014 39.796 177.974C39.8935 177.934 40.0007 177.923 40.1042 177.944C40.2076 177.964 40.3027 178.015 40.3773 178.09C40.4518 178.164 40.5026 178.259 40.5232 178.363C40.5438 178.466 40.5332 178.573 40.4929 178.671C40.4525 178.768 40.3841 178.852 40.2964 178.91C40.2087 178.969 40.1056 179 40.0001 179C39.8587 179 39.723 178.944 39.623 178.844C39.523 178.744 39.4668 178.608 39.4668 178.467V178.467Z" fill="url(#paint4_linear_115_390)"/>
</g>
<path d="M37.5853 21L32.0167 30.1037L26.4649 21H17L27.7358 36.6859L27.7525 48H36.2809V36.6859L47 21H37.5853Z" fill="#0049A2"/>
<path d="M49 21L49.0165 48H72V41.4342H57.4554V37.5864H69.7993V31.4955H57.4554V27.6477H71.6029V21H49Z" fill="#0049A2"/>
<path d="M75 21V27.664H84.0639V48H92.9361V27.6477H102V21H75Z" fill="#0049A2"/>
<path d="M104 21V48H113L112.982 21H104Z" fill="#0049A2"/>
<path d="M18.38 99V82.9H24.5555C25.4295 82.9 26.2192 83.1185 26.9245 83.5555C27.6298 83.9925 28.1895 84.579 28.6035 85.315C29.0175 86.0433 29.2245 86.8522 29.2245 87.7415C29.2245 88.4698 29.0903 89.1407 28.822 89.754C28.5613 90.3597 28.1933 90.8848 27.718 91.3295C27.2503 91.7742 26.7098 92.1115 26.0965 92.3415L29.949 99H26.7175L22.9915 92.5945H21.186V99H18.38ZM21.186 89.7885H24.2335C24.6322 89.7885 24.9963 89.6888 25.326 89.4895C25.6557 89.2902 25.9202 89.0218 26.1195 88.6845C26.3188 88.3472 26.4185 87.9715 26.4185 87.5575C26.4185 87.1358 26.3188 86.7563 26.1195 86.419C25.9202 86.0817 25.6557 85.8133 25.326 85.614C24.9963 85.4147 24.6322 85.315 24.2335 85.315H21.186V89.7885ZM40.0334 87.5H42.8394V99H40.0334L39.9069 97.574C39.5926 98.0877 39.1748 98.5055 38.6534 98.8275C38.1398 99.1418 37.5303 99.299 36.8249 99.299C35.9739 99.299 35.1766 99.138 34.4329 98.816C33.6893 98.494 33.0338 98.0493 32.4664 97.482C31.9068 96.9147 31.4659 96.2592 31.1439 95.5155C30.8296 94.7718 30.6724 93.9745 30.6724 93.1235C30.6724 92.3032 30.8219 91.5327 31.1209 90.812C31.4276 90.0913 31.8531 89.4588 32.3974 88.9145C32.9418 88.3702 33.5704 87.9447 34.2834 87.638C34.9964 87.3313 35.7631 87.178 36.5834 87.178C37.3424 87.178 38.0209 87.3467 38.6189 87.684C39.2246 88.0213 39.7383 88.4507 40.1599 88.972L40.0334 87.5ZM36.7559 96.5965C37.3539 96.5965 37.8829 96.447 38.3429 96.148C38.8029 95.849 39.1633 95.4465 39.4239 94.9405C39.6846 94.4268 39.8149 93.8633 39.8149 93.25C39.8149 92.629 39.6846 92.0655 39.4239 91.5595C39.1633 91.0458 38.7991 90.6395 38.3314 90.3405C37.8714 90.0415 37.3463 89.892 36.7559 89.892C36.1656 89.892 35.6251 90.0453 35.1344 90.352C34.6514 90.651 34.2643 91.0535 33.9729 91.5595C33.6893 92.0655 33.5474 92.629 33.5474 93.25C33.5474 93.871 33.6931 94.4345 33.9844 94.9405C34.2758 95.4465 34.6629 95.849 35.1459 96.148C35.6366 96.447 36.1733 96.5965 36.7559 96.5965ZM45.131 99V87.5H47.937V88.5235C48.328 88.1095 48.7956 87.7837 49.34 87.546C49.8843 87.3007 50.4708 87.178 51.0995 87.178C51.8968 87.178 52.629 87.3658 53.296 87.7415C53.9706 88.1172 54.5073 88.6193 54.906 89.248C55.3123 88.6193 55.849 88.1172 56.516 87.7415C57.183 87.3658 57.9151 87.178 58.7125 87.178C59.5558 87.178 60.3186 87.385 61.001 87.799C61.691 88.2053 62.2391 88.7535 62.6455 89.4435C63.0595 90.1258 63.2665 90.8887 63.2665 91.732V99H60.4605V92.4795C60.4605 92.0348 60.3493 91.6285 60.127 91.2605C59.9123 90.8848 59.621 90.5858 59.253 90.3635C58.8926 90.1335 58.4863 90.0185 58.034 90.0185C57.5816 90.0185 57.1715 90.1297 56.8035 90.352C56.4431 90.5667 56.1518 90.858 55.9295 91.226C55.7071 91.594 55.596 92.0118 55.596 92.4795V99H52.79V92.4795C52.79 92.0118 52.6826 91.594 52.468 91.226C52.2533 90.858 51.962 90.5667 51.594 90.352C51.226 90.1297 50.8158 90.0185 50.3635 90.0185C49.9188 90.0185 49.5125 90.1335 49.1445 90.3635C48.7765 90.5858 48.4813 90.8848 48.259 91.2605C48.0443 91.6285 47.937 92.0348 47.937 92.4795V99H45.131ZM71.7558 87.178C72.8751 87.178 73.8948 87.4502 74.8148 87.9945C75.7348 88.5388 76.467 89.271 77.0113 90.191C77.5556 91.1033 77.8278 92.1153 77.8278 93.227C77.8278 94.0627 77.6706 94.8485 77.3563 95.5845C77.042 96.3205 76.605 96.9683 76.0453 97.528C75.4933 98.08 74.8493 98.5132 74.1133 98.8275C73.385 99.1418 72.5991 99.299 71.7558 99.299C71.0351 99.299 70.395 99.138 69.8353 98.816C69.2833 98.4863 68.8195 98.0608 68.4438 97.5395V99H65.6378V81.75H68.4438V88.9375C68.8195 88.4162 69.2833 87.9945 69.8353 87.6725C70.395 87.3428 71.0351 87.178 71.7558 87.178ZM71.7213 96.585C72.3193 96.585 72.8598 96.4355 73.3428 96.1365C73.8335 95.8298 74.2245 95.4235 74.5158 94.9175C74.8071 94.4115 74.9528 93.848 74.9528 93.227C74.9528 92.6137 74.8071 92.054 74.5158 91.548C74.2245 91.0343 73.8335 90.628 73.3428 90.329C72.8521 90.03 72.3116 89.8805 71.7213 89.8805C71.1386 89.8805 70.6173 90.0338 70.1573 90.3405C69.6973 90.6395 69.337 91.0458 69.0763 91.5595C68.8156 92.0655 68.6853 92.6213 68.6853 93.227C68.6853 93.848 68.8156 94.4153 69.0763 94.929C69.337 95.435 69.6973 95.8375 70.1573 96.1365C70.6173 96.4355 71.1386 96.585 71.7213 96.585ZM79.4738 99V81.75H82.2798V99H79.4738ZM89.9244 99.299C88.8664 99.299 87.9004 99.0268 87.0264 98.4825C86.16 97.9382 85.4662 97.206 84.9449 96.286C84.4312 95.366 84.1744 94.3502 84.1744 93.2385C84.1744 92.4028 84.3239 91.6208 84.6229 90.8925C84.9219 90.1565 85.332 89.5125 85.8534 88.9605C86.3824 88.4008 86.9957 87.9638 87.6934 87.6495C88.391 87.3352 89.1347 87.178 89.9244 87.178C90.8214 87.178 91.6417 87.3697 92.3854 87.753C93.1367 88.1287 93.773 88.6462 94.2944 89.3055C94.8157 89.9648 95.1952 90.7162 95.4329 91.5595C95.6705 92.4028 95.7242 93.2845 95.5939 94.2045H87.1874C87.2947 94.6338 87.471 95.021 87.7164 95.366C87.9617 95.7033 88.2722 95.9755 88.6479 96.1825C89.0235 96.3818 89.449 96.4853 89.9244 96.493C90.415 96.5007 90.8597 96.3857 91.2584 96.148C91.6647 95.9027 92.002 95.573 92.2704 95.159L95.1339 95.826C94.6662 96.8457 93.9685 97.6813 93.0409 98.333C92.1132 98.977 91.0744 99.299 89.9244 99.299ZM87.0954 92.1H92.7534C92.669 91.64 92.4889 91.226 92.2129 90.858C91.9445 90.4823 91.611 90.1833 91.2124 89.961C90.8137 89.7387 90.3844 89.6275 89.9244 89.6275C89.4644 89.6275 89.0389 89.7387 88.6479 89.961C88.2569 90.1757 87.9234 90.4708 87.6474 90.8465C87.379 91.2145 87.195 91.6323 87.0954 92.1ZM97.4765 99L97.465 87.5H100.271L100.282 88.5235C100.673 88.1095 101.141 87.7837 101.685 87.546C102.23 87.3007 102.816 87.178 103.445 87.178C103.867 87.178 104.288 87.2393 104.71 87.362L103.606 90.191C103.315 90.076 103.023 90.0185 102.732 90.0185C102.28 90.0185 101.866 90.1297 101.49 90.352C101.122 90.5667 100.827 90.8618 100.604 91.2375C100.39 91.6055 100.282 92.0157 100.282 92.468V99H97.4765ZM113.404 99V85.706H111.38L112.139 82.9H116.21V99H113.404ZM125.009 99.299C124.074 99.299 123.223 99.0843 122.456 98.655C121.69 98.218 121.026 97.6162 120.467 96.8495C119.915 96.0828 119.489 95.1973 119.19 94.193C118.891 93.181 118.742 92.1 118.742 90.95C118.742 89.8 118.891 88.7228 119.19 87.7185C119.489 86.7065 119.915 85.8172 120.467 85.0505C121.026 84.2838 121.69 83.6858 122.456 83.2565C123.223 82.8195 124.074 82.601 125.009 82.601C125.945 82.601 126.796 82.8195 127.562 83.2565C128.329 83.6858 128.984 84.2838 129.529 85.0505C130.081 85.8172 130.506 86.7065 130.805 87.7185C131.112 88.7228 131.265 89.8 131.265 90.95C131.265 92.1 131.112 93.181 130.805 94.193C130.506 95.1973 130.081 96.0828 129.529 96.8495C128.984 97.6162 128.329 98.218 127.562 98.655C126.796 99.0843 125.945 99.299 125.009 99.299ZM125.009 96.493C125.83 96.493 126.508 96.2323 127.045 95.711C127.581 95.1897 127.98 94.5073 128.241 93.664C128.501 92.8207 128.632 91.916 128.632 90.95C128.632 89.9303 128.494 89.0027 128.218 88.167C127.942 87.3237 127.535 86.6528 126.999 86.1545C126.462 85.6562 125.799 85.407 125.009 85.407C124.388 85.407 123.848 85.5603 123.388 85.867C122.935 86.166 122.56 86.5762 122.261 87.0975C121.962 87.6188 121.739 88.213 121.594 88.88C121.448 89.5393 121.375 90.2293 121.375 90.95C121.375 91.9083 121.506 92.813 121.766 93.664C122.035 94.5073 122.437 95.1897 122.974 95.711C123.518 96.2323 124.197 96.493 125.009 96.493ZM138.395 99.299C137.337 99.299 136.371 99.0268 135.497 98.4825C134.631 97.9382 133.937 97.2098 133.416 96.2975C132.902 95.3775 132.645 94.3617 132.645 93.25C132.645 92.4067 132.795 91.6208 133.094 90.8925C133.393 90.1565 133.803 89.5125 134.324 88.9605C134.853 88.4008 135.466 87.9638 136.164 87.6495C136.862 87.3352 137.605 87.178 138.395 87.178C139.453 87.178 140.415 87.4502 141.282 87.9945C142.156 88.5388 142.849 89.271 143.363 90.191C143.884 91.111 144.145 92.1307 144.145 93.25C144.145 94.0857 143.996 94.8677 143.697 95.596C143.398 96.3243 142.984 96.9683 142.455 97.528C141.933 98.08 141.324 98.5132 140.626 98.8275C139.936 99.1418 139.192 99.299 138.395 99.299ZM138.395 96.493C138.955 96.493 139.457 96.3435 139.902 96.0445C140.346 95.7455 140.695 95.3507 140.948 94.86C141.209 94.3693 141.339 93.8327 141.339 93.25C141.339 92.652 141.205 92.1077 140.937 91.617C140.676 91.1187 140.319 90.7238 139.867 90.4325C139.422 90.1335 138.932 89.984 138.395 89.984C137.843 89.984 137.345 90.1335 136.9 90.4325C136.455 90.7315 136.103 91.1302 135.842 91.6285C135.581 92.1268 135.451 92.6673 135.451 93.25C135.451 93.8557 135.585 94.4038 135.854 94.8945C136.122 95.3852 136.478 95.7762 136.923 96.0675C137.375 96.3512 137.866 96.493 138.395 96.493ZM155.207 90.306L149.422 96.194H155.207V99H145.386V96.194L151.17 90.306H145.386V87.5H155.207V90.306ZM24.176 127.299C23.2867 127.299 22.4318 127.161 21.6115 126.885C20.7988 126.601 20.0858 126.199 19.4725 125.677C18.8592 125.148 18.4183 124.516 18.15 123.78L20.7835 122.814C20.8908 123.121 21.1093 123.4 21.439 123.653C21.7687 123.906 22.1712 124.11 22.6465 124.263C23.1218 124.416 23.6317 124.493 24.176 124.493C24.7357 124.493 25.257 124.409 25.74 124.24C26.2307 124.064 26.6255 123.822 26.9245 123.515C27.2235 123.201 27.373 122.837 27.373 122.423C27.373 122.001 27.2158 121.656 26.9015 121.388C26.5872 121.112 26.1847 120.893 25.694 120.732C25.2033 120.571 24.6973 120.449 24.176 120.364C23.0337 120.188 22.0102 119.916 21.1055 119.548C20.2008 119.18 19.484 118.67 18.955 118.018C18.4337 117.367 18.173 116.523 18.173 115.488C18.173 114.515 18.4528 113.664 19.0125 112.935C19.5722 112.207 20.3082 111.64 21.2205 111.233C22.1328 110.827 23.118 110.624 24.176 110.624C25.0577 110.624 25.9087 110.762 26.729 111.038C27.5493 111.314 28.2662 111.716 28.8795 112.245C29.5005 112.774 29.9452 113.411 30.2135 114.154L27.5685 115.109C27.4612 114.802 27.2427 114.523 26.913 114.27C26.5833 114.016 26.1808 113.817 25.7055 113.671C25.2302 113.518 24.7203 113.441 24.176 113.441C23.6317 113.434 23.1142 113.522 22.6235 113.706C22.1405 113.882 21.7457 114.124 21.439 114.43C21.1323 114.737 20.979 115.09 20.979 115.488C20.979 116.002 21.1208 116.389 21.4045 116.65C21.6958 116.911 22.083 117.102 22.566 117.225C23.049 117.34 23.5857 117.447 24.176 117.547C25.2493 117.716 26.2422 117.999 27.1545 118.398C28.0668 118.797 28.799 119.329 29.351 119.996C29.903 120.656 30.179 121.465 30.179 122.423C30.179 123.397 29.903 124.251 29.351 124.987C28.799 125.716 28.0668 126.283 27.1545 126.689C26.2422 127.096 25.2493 127.299 24.176 127.299ZM38.627 118.306H36.396V127H33.59V118.306H31.888V115.5H33.59V111.889H36.396V115.5H38.627V118.306ZM49.1301 115.5H51.9361V127H49.1301L49.0036 125.574C48.6893 126.088 48.2714 126.505 47.7501 126.827C47.2364 127.142 46.6269 127.299 45.9216 127.299C45.0706 127.299 44.2733 127.138 43.5296 126.816C42.7859 126.494 42.1304 126.049 41.5631 125.482C41.0034 124.915 40.5626 124.259 40.2406 123.515C39.9263 122.772 39.7691 121.974 39.7691 121.123C39.7691 120.303 39.9186 119.533 40.2176 118.812C40.5243 118.091 40.9498 117.459 41.4941 116.914C42.0384 116.37 42.6671 115.945 43.3801 115.638C44.0931 115.331 44.8598 115.178 45.6801 115.178C46.4391 115.178 47.1176 115.347 47.7156 115.684C48.3213 116.021 48.8349 116.451 49.2566 116.972L49.1301 115.5ZM45.8526 124.596C46.4506 124.596 46.9796 124.447 47.4396 124.148C47.8996 123.849 48.2599 123.446 48.5206 122.94C48.7813 122.427 48.9116 121.863 48.9116 121.25C48.9116 120.629 48.7813 120.065 48.5206 119.559C48.2599 119.046 47.8958 118.639 47.4281 118.34C46.9681 118.041 46.4429 117.892 45.8526 117.892C45.2623 117.892 44.7218 118.045 44.2311 118.352C43.7481 118.651 43.3609 119.053 43.0696 119.559C42.7859 120.065 42.6441 120.629 42.6441 121.25C42.6441 121.871 42.7898 122.434 43.0811 122.94C43.3724 123.446 43.7596 123.849 44.2426 124.148C44.7333 124.447 45.2699 124.596 45.8526 124.596ZM61.133 123.538L63.663 124.907C63.134 125.628 62.4709 126.206 61.6735 126.643C60.8762 127.08 60.006 127.299 59.063 127.299C58.005 127.299 57.039 127.027 56.165 126.482C55.2987 125.938 54.6049 125.21 54.0835 124.297C53.5699 123.377 53.313 122.362 53.313 121.25C53.313 120.407 53.4625 119.621 53.7615 118.892C54.0605 118.156 54.4707 117.512 54.992 116.96C55.521 116.401 56.1344 115.964 56.832 115.649C57.5297 115.335 58.2734 115.178 59.063 115.178C60.006 115.178 60.8762 115.396 61.6735 115.833C62.4709 116.27 63.134 116.857 63.663 117.593L61.133 118.95C60.8647 118.643 60.5465 118.406 60.1785 118.237C59.8182 118.068 59.4464 117.984 59.063 117.984C58.511 117.984 58.0127 118.137 57.568 118.444C57.1234 118.743 56.7707 119.142 56.51 119.64C56.2494 120.131 56.119 120.667 56.119 121.25C56.119 121.825 56.2494 122.362 56.51 122.86C56.7707 123.351 57.1234 123.745 57.568 124.045C58.0127 124.343 58.511 124.493 59.063 124.493C59.4617 124.493 59.8412 124.409 60.2015 124.24C60.5619 124.064 60.8724 123.83 61.133 123.538ZM75.6378 127H72.4063L69.7843 122.48L68.1743 124.401V127H65.3683V109.75H68.1743V120.042L71.9808 115.5H75.6493L71.7048 120.203L75.6378 127ZM85.3596 115.5H88.1656V127H85.3596L85.2331 125.574C84.9188 126.088 84.5009 126.505 83.9796 126.827C83.4659 127.142 82.8564 127.299 82.1511 127.299C81.3001 127.299 80.5028 127.138 79.7591 126.816C79.0154 126.494 78.3599 126.049 77.7926 125.482C77.2329 124.915 76.7921 124.259 76.4701 123.515C76.1558 122.772 75.9986 121.974 75.9986 121.123C75.9986 120.303 76.1481 119.533 76.4471 118.812C76.7538 118.091 77.1793 117.459 77.7236 116.914C78.2679 116.37 78.8966 115.945 79.6096 115.638C80.3226 115.331 81.0893 115.178 81.9096 115.178C82.6686 115.178 83.3471 115.347 83.9451 115.684C84.5508 116.021 85.0644 116.451 85.4861 116.972L85.3596 115.5ZM82.0821 124.596C82.6801 124.596 83.2091 124.447 83.6691 124.148C84.1291 123.849 84.4894 123.446 84.7501 122.94C85.0108 122.427 85.1411 121.863 85.1411 121.25C85.1411 120.629 85.0108 120.065 84.7501 119.559C84.4894 119.046 84.1253 118.639 83.6576 118.34C83.1976 118.041 82.6724 117.892 82.0821 117.892C81.4918 117.892 80.9513 118.045 80.4606 118.352C79.9776 118.651 79.5904 119.053 79.2991 119.559C79.0154 120.065 78.8736 120.629 78.8736 121.25C78.8736 121.871 79.0193 122.434 79.3106 122.94C79.6019 123.446 79.9891 123.849 80.4721 124.148C80.9628 124.447 81.4994 124.596 82.0821 124.596ZM96.6425 115.178C97.7619 115.178 98.7815 115.45 99.7015 115.994C100.622 116.539 101.354 117.271 101.898 118.191C102.442 119.103 102.715 120.115 102.715 121.227C102.715 122.063 102.557 122.848 102.243 123.584C101.929 124.32 101.492 124.968 100.932 125.528C100.38 126.08 99.736 126.513 99 126.827C98.2717 127.142 97.4859 127.299 96.6425 127.299C95.9219 127.299 95.2817 127.138 94.722 126.816C94.17 126.486 93.7062 126.061 93.3305 125.539V127H90.5245V109.75H93.3305V116.937C93.7062 116.416 94.17 115.994 94.722 115.672C95.2817 115.343 95.9219 115.178 96.6425 115.178ZM96.608 124.585C97.206 124.585 97.7465 124.435 98.2295 124.136C98.7202 123.83 99.1112 123.423 99.4025 122.917C99.6939 122.411 99.8395 121.848 99.8395 121.227C99.8395 120.614 99.6939 120.054 99.4025 119.548C99.1112 119.034 98.7202 118.628 98.2295 118.329C97.7389 118.03 97.1984 117.88 96.608 117.88C96.0254 117.88 95.504 118.034 95.044 118.34C94.584 118.639 94.2237 119.046 93.963 119.559C93.7024 120.065 93.572 120.621 93.572 121.227C93.572 121.848 93.7024 122.415 93.963 122.929C94.2237 123.435 94.584 123.837 95.044 124.136C95.504 124.435 96.0254 124.585 96.608 124.585ZM104.36 127V109.75H107.166V127H104.36ZM114.811 127.299C113.753 127.299 112.787 127.027 111.913 126.482C111.047 125.938 110.353 125.206 109.832 124.286C109.318 123.366 109.061 122.35 109.061 121.238C109.061 120.403 109.211 119.621 109.51 118.892C109.809 118.156 110.219 117.512 110.74 116.96C111.269 116.401 111.882 115.964 112.58 115.649C113.278 115.335 114.021 115.178 114.811 115.178C115.708 115.178 116.528 115.37 117.272 115.753C118.023 116.129 118.66 116.646 119.181 117.305C119.702 117.965 120.082 118.716 120.32 119.559C120.557 120.403 120.611 121.284 120.481 122.204H112.074C112.181 122.634 112.358 123.021 112.603 123.366C112.848 123.703 113.159 123.975 113.535 124.182C113.91 124.382 114.336 124.485 114.811 124.493C115.302 124.501 115.746 124.386 116.145 124.148C116.551 123.903 116.889 123.573 117.157 123.159L120.021 123.826C119.553 124.846 118.855 125.681 117.928 126.333C117 126.977 115.961 127.299 114.811 127.299ZM111.982 120.1H117.64C117.556 119.64 117.376 119.226 117.1 118.858C116.831 118.482 116.498 118.183 116.099 117.961C115.7 117.739 115.271 117.627 114.811 117.627C114.351 117.627 113.926 117.739 113.535 117.961C113.144 118.176 112.81 118.471 112.534 118.846C112.266 119.214 112.082 119.632 111.982 120.1ZM128.147 127L131.275 110.9H133.598L137.519 121.215L141.441 110.9H143.764L146.892 127H144.028L142.096 117.041L138.474 126.632H136.553L132.931 117.041L131.01 127H128.147ZM149.024 122.745V115.5H151.83V122.009C151.83 122.461 151.942 122.875 152.164 123.251C152.386 123.619 152.681 123.914 153.049 124.136C153.425 124.351 153.835 124.458 154.28 124.458C154.74 124.458 155.154 124.351 155.522 124.136C155.89 123.914 156.185 123.619 156.407 123.251C156.63 122.875 156.741 122.461 156.741 122.009V115.5H159.547L159.558 127H156.752L156.741 125.953C156.342 126.367 155.871 126.697 155.326 126.942C154.782 127.18 154.199 127.299 153.578 127.299C152.743 127.299 151.98 127.096 151.29 126.689C150.6 126.275 150.048 125.727 149.634 125.045C149.228 124.355 149.024 123.588 149.024 122.745ZM170.214 115.5H173.02V127.219C173.02 128.047 172.851 128.798 172.514 129.473C172.176 130.155 171.716 130.738 171.134 131.221C170.551 131.711 169.884 132.087 169.133 132.348C168.381 132.616 167.592 132.75 166.764 132.75C165.959 132.75 165.184 132.585 164.441 132.256C163.697 131.926 163.038 131.474 162.463 130.899C161.895 130.331 161.462 129.683 161.163 128.955L163.728 127.794C163.881 128.215 164.111 128.583 164.418 128.898C164.732 129.22 165.092 129.469 165.499 129.645C165.905 129.829 166.327 129.921 166.764 129.921C167.208 129.921 167.634 129.86 168.04 129.737C168.454 129.614 168.826 129.434 169.156 129.197C169.485 128.967 169.742 128.683 169.926 128.346C170.118 128.016 170.214 127.64 170.214 127.219V125.597C169.853 126.103 169.401 126.513 168.857 126.827C168.312 127.142 167.684 127.299 166.971 127.299C166.143 127.299 165.368 127.142 164.648 126.827C163.927 126.513 163.291 126.08 162.739 125.528C162.194 124.968 161.765 124.324 161.451 123.596C161.144 122.868 160.991 122.086 160.991 121.25C160.991 120.414 161.144 119.632 161.451 118.904C161.765 118.176 162.194 117.535 162.739 116.983C163.291 116.424 163.927 115.987 164.648 115.672C165.368 115.358 166.143 115.201 166.971 115.201C167.684 115.201 168.312 115.358 168.857 115.672C169.401 115.979 169.853 116.385 170.214 116.891V115.5ZM167.005 124.596C167.596 124.596 168.117 124.447 168.569 124.148C169.029 123.841 169.39 123.435 169.65 122.929C169.911 122.415 170.041 121.856 170.041 121.25C170.041 120.637 169.907 120.077 169.639 119.571C169.378 119.065 169.018 118.659 168.558 118.352C168.105 118.045 167.588 117.892 167.005 117.892C166.43 117.892 165.905 118.045 165.43 118.352C164.954 118.651 164.575 119.053 164.291 119.559C164.008 120.065 163.866 120.629 163.866 121.25C163.866 121.871 164.008 122.434 164.291 122.94C164.575 123.446 164.954 123.849 165.43 124.148C165.905 124.447 166.43 124.596 167.005 124.596Z" fill="#18303F"/>
<rect x="201" y="21" width="111.045" height="111.045" rx="9.25373" fill="white" fill-opacity="0.5"/>
<rect x="202" y="22" width="109.045" height="109.045" rx="8.25373" stroke="#E2E8F0" stroke-opacity="0.7" stroke-width="2"/>
<rect x="22" y="409" width="281" height="42" rx="9.25373" fill="#5233FF"/>
<path fill-rule="evenodd" clip-rule="evenodd" d="M244 54C241.791 54 240 55.7909 240 58V60C231.163 60 224 67.1634 224 76C224 84.8366 231.163 92 240 92V94C240 96.2091 241.791 98 244 98H278C280.209 98 282 96.2091 282 94V58C282 55.7909 280.209 54 278 54H244ZM240 65C233.925 65 229 69.9249 229 76C229 82.0751 233.925 87 240 87V65Z" fill="#8585FF"/>
<path d="M103.841 436V423.4H108.341C109.025 423.4 109.643 423.571 110.195 423.913C110.753 424.255 111.194 424.714 111.518 425.29C111.842 425.866 112.004 426.499 112.004 427.189C112.004 427.897 111.836 428.539 111.5 429.115C111.17 429.685 110.726 430.141 110.168 430.483C109.61 430.819 109.001 430.987 108.341 430.987H106.037V436H103.841ZM106.037 428.791H108.107C108.419 428.791 108.704 428.713 108.962 428.557C109.22 428.401 109.424 428.191 109.574 427.927C109.73 427.663 109.808 427.369 109.808 427.045C109.808 426.715 109.73 426.418 109.574 426.154C109.424 425.89 109.22 425.68 108.962 425.524C108.704 425.368 108.419 425.29 108.107 425.29H106.037V428.791ZM112.92 432.67V427H115.116V432.094C115.116 432.448 115.203 432.772 115.377 433.066C115.551 433.354 115.782 433.585 116.07 433.759C116.364 433.927 116.685 434.011 117.033 434.011C117.393 434.011 117.717 433.927 118.005 433.759C118.293 433.585 118.524 433.354 118.698 433.066C118.872 432.772 118.959 432.448 118.959 432.094V427H121.155L121.164 436H118.968L118.959 435.181C118.647 435.505 118.278 435.763 117.852 435.955C117.426 436.141 116.97 436.234 116.484 436.234C115.83 436.234 115.233 436.075 114.693 435.757C114.153 435.433 113.721 435.004 113.397 434.47C113.079 433.93 112.92 433.33 112.92 432.67ZM127.806 426.748C128.682 426.748 129.48 426.961 130.2 427.387C130.92 427.813 131.493 428.386 131.919 429.106C132.345 429.82 132.558 430.612 132.558 431.482C132.558 432.136 132.435 432.751 132.189 433.327C131.943 433.903 131.601 434.41 131.163 434.848C130.731 435.28 130.227 435.619 129.651 435.865C129.081 436.111 128.466 436.234 127.806 436.234C127.242 436.234 126.741 436.108 126.303 435.856C125.871 435.598 125.508 435.265 125.214 434.857V436H123.018V422.5H125.214V428.125C125.508 427.717 125.871 427.387 126.303 427.135C126.741 426.877 127.242 426.748 127.806 426.748ZM127.779 434.11C128.247 434.11 128.67 433.993 129.048 433.759C129.432 433.519 129.738 433.201 129.966 432.805C130.194 432.409 130.308 431.968 130.308 431.482C130.308 431.002 130.194 430.564 129.966 430.168C129.738 429.766 129.432 429.448 129.048 429.214C128.664 428.98 128.241 428.863 127.779 428.863C127.323 428.863 126.915 428.983 126.555 429.223C126.195 429.457 125.913 429.775 125.709 430.177C125.505 430.573 125.403 431.008 125.403 431.482C125.403 431.968 125.505 432.412 125.709 432.814C125.913 433.21 126.195 433.525 126.555 433.759C126.915 433.993 127.323 434.11 127.779 434.11ZM133.847 436V422.5H136.043V436H133.847ZM138.206 427H140.402V436H138.206V427ZM139.322 425.839C138.998 425.839 138.725 425.734 138.503 425.524C138.281 425.308 138.17 425.038 138.17 424.714C138.17 424.396 138.281 424.129 138.503 423.913C138.725 423.697 138.995 423.589 139.313 423.589C139.631 423.589 139.898 423.697 140.114 423.913C140.336 424.129 140.447 424.396 140.447 424.714C140.447 425.038 140.339 425.308 140.123 425.524C139.907 425.734 139.64 425.839 139.322 425.839ZM145.08 436.162C144.612 436.132 144.159 436.039 143.721 435.883C143.289 435.721 142.905 435.502 142.569 435.226C142.233 434.95 141.975 434.62 141.795 434.236L143.649 433.444C143.721 433.564 143.838 433.693 144 433.831C144.162 433.963 144.354 434.074 144.576 434.164C144.804 434.254 145.053 434.299 145.323 434.299C145.551 434.299 145.767 434.269 145.971 434.209C146.181 434.143 146.349 434.044 146.475 433.912C146.607 433.78 146.673 433.609 146.673 433.399C146.673 433.177 146.595 433.006 146.439 432.886C146.289 432.76 146.097 432.667 145.863 432.607C145.635 432.541 145.413 432.481 145.197 432.427C144.627 432.313 144.096 432.136 143.604 431.896C143.118 431.656 142.725 431.347 142.425 430.969C142.131 430.585 141.984 430.123 141.984 429.583C141.984 428.989 142.14 428.476 142.452 428.044C142.77 427.612 143.181 427.279 143.685 427.045C144.195 426.811 144.744 426.694 145.332 426.694C146.046 426.694 146.7 426.844 147.294 427.144C147.894 427.438 148.368 427.855 148.716 428.395L146.979 429.421C146.895 429.277 146.778 429.145 146.628 429.025C146.478 428.899 146.307 428.797 146.115 428.719C145.923 428.635 145.722 428.587 145.512 428.575C145.242 428.563 144.996 428.587 144.774 428.647C144.552 428.707 144.372 428.809 144.234 428.953C144.102 429.097 144.036 429.289 144.036 429.529C144.036 429.757 144.126 429.928 144.306 430.042C144.486 430.15 144.702 430.234 144.954 430.294C145.212 430.354 145.458 430.42 145.692 430.492C146.22 430.666 146.715 430.879 147.177 431.131C147.645 431.383 148.02 431.692 148.302 432.058C148.584 432.424 148.719 432.862 148.707 433.372C148.707 433.954 148.533 434.464 148.185 434.902C147.837 435.334 147.387 435.664 146.835 435.892C146.289 436.12 145.704 436.21 145.08 436.162ZM158.491 430.312V436H156.295V430.888C156.295 430.534 156.208 430.213 156.034 429.925C155.86 429.631 155.626 429.4 155.332 429.232C155.044 429.058 154.723 428.971 154.369 428.971C154.015 428.971 153.691 429.058 153.397 429.232C153.109 429.4 152.878 429.631 152.704 429.925C152.536 430.213 152.452 430.534 152.452 430.888V436H150.256L150.247 422.5H152.443L152.452 427.801C152.758 427.477 153.124 427.222 153.55 427.036C153.976 426.844 154.435 426.748 154.927 426.748C155.581 426.748 156.178 426.91 156.718 427.234C157.258 427.552 157.687 427.981 158.005 428.521C158.329 429.055 158.491 429.652 158.491 430.312ZM164.608 436V423.4H169.441C170.125 423.4 170.743 423.571 171.295 423.913C171.847 424.255 172.285 424.714 172.609 425.29C172.933 425.86 173.095 426.493 173.095 427.189C173.095 427.759 172.99 428.284 172.78 428.764C172.576 429.238 172.288 429.649 171.916 429.997C171.55 430.345 171.127 430.609 170.647 430.789L173.662 436H171.133L168.217 430.987H166.804V436H164.608ZM166.804 428.791H169.189C169.501 428.791 169.786 428.713 170.044 428.557C170.302 428.401 170.509 428.191 170.665 427.927C170.821 427.663 170.899 427.369 170.899 427.045C170.899 426.715 170.821 426.418 170.665 426.154C170.509 425.89 170.302 425.68 170.044 425.524C169.786 425.368 169.501 425.29 169.189 425.29H166.804V428.791ZM178.728 436.234C177.9 436.234 177.144 436.021 176.46 435.595C175.782 435.169 175.239 434.596 174.831 433.876C174.429 433.156 174.228 432.361 174.228 431.491C174.228 430.837 174.345 430.225 174.579 429.655C174.813 429.079 175.134 428.575 175.542 428.143C175.956 427.705 176.436 427.363 176.982 427.117C177.528 426.871 178.11 426.748 178.728 426.748C179.43 426.748 180.072 426.898 180.654 427.198C181.242 427.492 181.74 427.897 182.148 428.413C182.556 428.929 182.853 429.517 183.039 430.177C183.225 430.837 183.267 431.527 183.165 432.247H176.586C176.67 432.583 176.808 432.886 177 433.156C177.192 433.42 177.435 433.633 177.729 433.795C178.023 433.951 178.356 434.032 178.728 434.038C179.112 434.044 179.46 433.954 179.772 433.768C180.09 433.576 180.354 433.318 180.564 432.994L182.805 433.516C182.439 434.314 181.893 434.968 181.167 435.478C180.441 435.982 179.628 436.234 178.728 436.234ZM176.514 430.6H180.942C180.876 430.24 180.735 429.916 180.519 429.628C180.309 429.334 180.048 429.1 179.736 428.926C179.424 428.752 179.088 428.665 178.728 428.665C178.368 428.665 178.035 428.752 177.729 428.926C177.423 429.094 177.162 429.325 176.946 429.619C176.736 429.907 176.592 430.234 176.514 430.6ZM189.779 436H186.944L183.668 426.991H186.008L188.366 433.471L190.715 426.991H193.055L189.779 436ZM194.386 427H196.582V436H194.386V427ZM195.502 425.839C195.178 425.839 194.905 425.734 194.683 425.524C194.461 425.308 194.35 425.038 194.35 424.714C194.35 424.396 194.461 424.129 194.683 423.913C194.905 423.697 195.175 423.589 195.493 423.589C195.811 423.589 196.078 423.697 196.294 423.913C196.516 424.129 196.627 424.396 196.627 424.714C196.627 425.038 196.519 425.308 196.303 425.524C196.087 425.734 195.82 425.839 195.502 425.839ZM202.494 436.234C201.666 436.234 200.91 436.021 200.226 435.595C199.548 435.169 199.005 434.596 198.597 433.876C198.195 433.156 197.994 432.361 197.994 431.491C197.994 430.837 198.111 430.225 198.345 429.655C198.579 429.079 198.9 428.575 199.308 428.143C199.722 427.705 200.202 427.363 200.748 427.117C201.294 426.871 201.876 426.748 202.494 426.748C203.196 426.748 203.838 426.898 204.42 427.198C205.008 427.492 205.506 427.897 205.914 428.413C206.322 428.929 206.619 429.517 206.805 430.177C206.991 430.837 207.033 431.527 206.931 432.247H200.352C200.436 432.583 200.574 432.886 200.766 433.156C200.958 433.42 201.201 433.633 201.495 433.795C201.789 433.951 202.122 434.032 202.494 434.038C202.878 434.044 203.226 433.954 203.538 433.768C203.856 433.576 204.12 433.318 204.33 432.994L206.571 433.516C206.205 434.314 205.659 434.968 204.933 435.478C204.207 435.982 203.394 436.234 202.494 436.234ZM200.28 430.6H204.708C204.642 430.24 204.501 429.916 204.285 429.628C204.075 429.334 203.814 429.1 203.502 428.926C203.19 428.752 202.854 428.665 202.494 428.665C202.134 428.665 201.801 428.752 201.495 428.926C201.189 429.094 200.928 429.325 200.712 429.619C200.502 429.907 200.358 430.234 200.28 430.6ZM212.618 436H210.44L207.434 427H209.585L211.538 432.823L213.482 427H215.651L217.595 432.823L219.548 427H221.699L218.693 436H216.515L214.562 430.15L212.618 436Z" fill="white"/>
<defs>
<linearGradient id="paint0_linear_115_390" x1="40" y1="187" x2="40" y2="147" gradientUnits="userSpaceOnUse">
<stop stop-color="#FFC9B3"/>
<stop offset="1" stop-color="#FFD2C2"/>
</linearGradient>
<linearGradient id="paint1_linear_115_390" x1="38.2508" y1="152.145" x2="38.2508" y2="182.6" gradientUnits="userSpaceOnUse">
<stop stop-color="#130027"/>
<stop offset="1" stop-color="#130017"/>
</linearGradient>
<linearGradient id="paint2_linear_115_390" x1="39.9999" y1="187.533" x2="39.9999" y2="172.333" gradientUnits="userSpaceOnUse">
<stop stop-color="#E6864E"/>
<stop offset="1" stop-color="#E67240"/>
</linearGradient>
<linearGradient id="paint3_linear_115_390" x1="38.606" y1="158.867" x2="38.606" y2="174.867" gradientUnits="userSpaceOnUse">
<stop stop-color="#FFE0CC"/>
<stop offset="1" stop-color="#FFEADB"/>
</linearGradient>
<linearGradient id="paint4_linear_115_390" x1="40.0001" y1="177.933" x2="40.0001" y2="184.333" gradientUnits="userSpaceOnUse">
<stop stop-color="#130027"/>
<stop offset="1" stop-color="#130017"/>
</linearGradient>
<clipPath id="clip0_115_390">
<path d="M20 167C20 155.954 28.9543 147 40 147V147C51.0457 147 60 155.954 60 167V167C60 178.046 51.0457 187 40 187V187C28.9543 187 20 178.046 20 167V167Z" fill="white"/>
</clipPath>
</defs>
</svg>
