<svg width="200" height="200" viewBox="0 0 200 200" fill="none" xmlns="http://www.w3.org/2000/svg">
<rect width="200" height="200" fill="white"/>
<path d="M0 0H200V200H0V0Z" fill="#222648"/>
<path d="M73 67H96V134H73V121C73 119.895 72.1046 119 71 119C69.8954 119 69 119.895 69 121V134C69 136.209 70.7909 138 73 138H100V63H73C70.7909 63 69 64.7909 69 67V82C69 83.1046 69.8954 84 71 84C72.1046 84 73 83.1046 73 82V67Z" fill="#F8D534"/>
<path d="M96 54.4754C96 51.7667 98.6357 49.8412 101.216 50.6647L140.216 63.1115C141.874 63.6408 143 65.1816 143 66.9222V133.078C143 134.818 141.874 136.359 140.216 136.888L101.216 149.335C98.6357 150.159 96 148.233 96 145.525V54.4754Z" fill="#F8D534"/>
<path d="M104 96C104 94.8954 104.895 94 106 94C107.105 94 108 94.8954 108 96V104C108 105.105 107.105 106 106 106C104.895 106 104 105.105 104 104V96Z" fill="#222648"/>
<path d="M55 97.5472C55 96.9949 55.4477 96.5472 56 96.5472H68.9423V91.1555C68.9423 90.3043 69.9381 89.8423 70.5881 90.392L83.0801 100.958C83.5582 101.362 83.5513 102.101 83.0658 102.497L70.5738 112.671C69.9205 113.203 68.9423 112.738 68.9423 111.896V106.925H56C55.4477 106.925 55 106.477 55 105.925V97.5472Z" fill="#F8D534"/>
</svg>
