<svg width="64" height="64" viewBox="0 0 64 64" fill="none" xmlns="http://www.w3.org/2000/svg">
<path d="M32.3788 29.3681C39.6739 29.3681 45.5877 23.4543 45.5877 16.1592C45.5877 8.86416 39.6739 2.95035 32.3788 2.95035C25.0837 2.95035 19.1699 8.86416 19.1699 16.1592C19.1699 23.4543 25.0837 29.3681 32.3788 29.3681Z" fill="#8ECCFD"/>
<path fill-rule="evenodd" clip-rule="evenodd" d="M32.3788 5.90071C26.7132 5.90071 22.1203 10.4936 22.1203 16.1592C22.1203 21.8248 26.7132 26.4177 32.3788 26.4177C38.0445 26.4177 42.6373 21.8248 42.6373 16.1592C42.6373 10.4936 38.0445 5.90071 32.3788 5.90071ZM16.2196 16.1592C16.2196 7.23473 23.4543 0 32.3788 0C41.3033 0 48.5381 7.23473 48.5381 16.1592C48.5381 25.0837 41.3033 32.3185 32.3788 32.3185C23.4543 32.3185 16.2196 25.0837 16.2196 16.1592Z" fill="#0496FF"/>
<path d="M32.3788 61.0496C21.389 61.0496 11.6673 55.4491 5.96106 46.8897C6.06673 38.119 23.6081 37.2109 32.3788 37.2109C41.1495 37.2109 58.6909 38.119 58.7965 46.8897C53.0903 55.3434 43.3686 61.0496 32.3788 61.0496Z" fill="#8ECCFD"/>
<path fill-rule="evenodd" clip-rule="evenodd" d="M9.02236 46.1275C14.2693 53.4037 22.7939 58.0993 32.3789 58.0993C41.9419 58.0993 50.4738 53.3244 55.7331 46.1194C55.529 45.4022 55.0332 44.7319 54.1119 44.0557C52.7714 43.0718 50.7297 42.2518 48.1463 41.6296C43.0087 40.3923 36.7228 40.1612 32.3789 40.1612C28.035 40.1612 21.7491 40.3923 16.6114 41.6296C14.0281 42.2518 11.9864 43.0718 10.6458 44.0557C9.72108 44.7345 9.22502 45.4072 9.02236 46.1275ZM15.2298 35.893C21.0819 34.4835 27.9521 34.2605 32.3789 34.2605C36.8056 34.2605 43.6758 34.4835 49.5279 35.893C52.4395 36.5942 55.3511 37.6457 57.6034 39.2988C59.939 41.0131 61.7064 43.504 61.7468 46.8542L61.7579 47.7762L61.242 48.5404C55.0228 57.754 44.4111 64 32.3789 64C20.3629 64 9.73732 57.8728 3.50629 48.5263L3 47.7669L3.011 46.8542C3.05136 43.504 4.81878 41.0131 7.15438 39.2988C9.40667 37.6457 12.3183 36.5942 15.2298 35.893Z" fill="#0496FF"/>
</svg>
