<svg width="479" height="340" viewBox="0 0 479 340" fill="none" xmlns="http://www.w3.org/2000/svg">
<g filter="url(#filter0_d)">
<rect x="18" y="13" width="443" height="303.772" rx="4" fill="#1B223C"/>
<rect x="19" y="14" width="441" height="301.772" rx="3" stroke="#2D375C" stroke-width="2"/>
</g>
<path d="M35.7718 39.7241H37.3958L38.7258 43.2941C38.8565 43.6395 38.9731 43.9848 39.0758 44.3301C39.1878 44.6661 39.2998 45.0115 39.4118 45.3661H39.4678C39.5798 45.0115 39.6871 44.6661 39.7898 44.3301C39.9018 43.9848 40.0231 43.6395 40.1538 43.2941L41.4838 39.7241H43.0238L40.3498 46.5981H38.5158L35.7718 39.7241ZM44.5863 44.7501C44.5863 44.3675 44.675 44.0315 44.8523 43.7421C45.0297 43.4435 45.3097 43.1915 45.6923 42.9861C46.075 42.7808 46.565 42.6128 47.1623 42.4821C47.7597 42.3515 48.483 42.2581 49.3323 42.2021C49.3043 41.8101 49.1643 41.4881 48.9123 41.2361C48.6603 40.9841 48.2543 40.8581 47.6943 40.8581C47.3023 40.8581 46.915 40.9328 46.5323 41.0821C46.159 41.2221 45.795 41.3901 45.4403 41.5861L44.8523 40.5081C45.2723 40.2655 45.753 40.0461 46.2943 39.8501C46.8357 39.6541 47.4003 39.5561 47.9883 39.5561C48.9497 39.5561 49.6823 39.8128 50.1863 40.3261C50.6903 40.8301 50.9423 41.5628 50.9423 42.5241V46.5981H49.6263L49.5003 45.7441H49.4583C49.0943 46.0241 48.6883 46.2668 48.2403 46.4721C47.8017 46.6681 47.349 46.7661 46.8823 46.7661C46.5463 46.7661 46.2383 46.7148 45.9583 46.6121C45.6783 46.5188 45.4357 46.3835 45.2303 46.2061C45.025 46.0288 44.8663 45.8188 44.7543 45.5761C44.6423 45.3241 44.5863 45.0488 44.5863 44.7501ZM46.1403 44.6241C46.1403 44.9321 46.257 45.1561 46.4903 45.2961C46.733 45.4361 47.027 45.5061 47.3723 45.5061C47.7177 45.5061 48.049 45.4315 48.3663 45.2821C48.693 45.1235 49.015 44.9181 49.3323 44.6661V43.2101C48.7163 43.2568 48.203 43.3221 47.7923 43.4061C47.3817 43.4808 47.055 43.5788 46.8123 43.7001C46.5697 43.8215 46.397 43.9615 46.2943 44.1201C46.1917 44.2695 46.1403 44.4375 46.1403 44.6241ZM53.8069 39.7241H55.1369L55.2769 41.2781H55.3189C55.6735 40.7181 56.0982 40.2935 56.5929 40.0041C57.0969 39.7055 57.6475 39.5561 58.2449 39.5561C58.5249 39.5561 58.7629 39.5795 58.9589 39.6261C59.1642 39.6635 59.3695 39.7335 59.5749 39.8361L59.2389 41.1941C59.0149 41.1195 58.8142 41.0681 58.6369 41.0401C58.4689 41.0028 58.2542 40.9841 57.9929 40.9841C57.5169 40.9841 57.0595 41.1195 56.6209 41.3901C56.1822 41.6608 55.7855 42.1321 55.4309 42.8041V46.5981H53.8069V39.7241ZM69.7699 44.7501C69.7699 44.3675 69.8586 44.0315 70.0359 43.7421C70.2133 43.4435 70.4933 43.1915 70.8759 42.9861C71.2586 42.7808 71.7486 42.6128 72.3459 42.4821C72.9433 42.3515 73.6666 42.2581 74.5159 42.2021C74.4879 41.8101 74.3479 41.4881 74.0959 41.2361C73.8439 40.9841 73.4379 40.8581 72.8779 40.8581C72.4859 40.8581 72.0986 40.9328 71.7159 41.0821C71.3426 41.2221 70.9786 41.3901 70.6239 41.5861L70.0359 40.5081C70.4559 40.2655 70.9366 40.0461 71.4779 39.8501C72.0193 39.6541 72.5839 39.5561 73.1719 39.5561C74.1333 39.5561 74.8659 39.8128 75.3699 40.3261C75.8739 40.8301 76.1259 41.5628 76.1259 42.5241V46.5981H74.8099L74.6839 45.7441H74.6419C74.2779 46.0241 73.8719 46.2668 73.4239 46.4721C72.9853 46.6681 72.5326 46.7661 72.0659 46.7661C71.7299 46.7661 71.4219 46.7148 71.1419 46.6121C70.8619 46.5188 70.6193 46.3835 70.4139 46.2061C70.2086 46.0288 70.0499 45.8188 69.9379 45.5761C69.8259 45.3241 69.7699 45.0488 69.7699 44.7501ZM71.3239 44.6241C71.3239 44.9321 71.4406 45.1561 71.6739 45.2961C71.9166 45.4361 72.2106 45.5061 72.5559 45.5061C72.9013 45.5061 73.2326 45.4315 73.5499 45.2821C73.8766 45.1235 74.1986 44.9181 74.5159 44.6661V43.2101C73.8999 43.2568 73.3866 43.3221 72.9759 43.4061C72.5653 43.4808 72.2386 43.5788 71.9959 43.7001C71.7533 43.8215 71.5806 43.9615 71.4779 44.1201C71.3753 44.2695 71.3239 44.4375 71.3239 44.6241ZM79.9425 47.1581V49.3141H78.3185V39.7241H79.6485L79.7745 40.5081H79.8165C80.1151 40.2375 80.4558 40.0135 80.8385 39.8361C81.2305 39.6495 81.6225 39.5561 82.0145 39.5561C82.4625 39.5561 82.8591 39.6401 83.2045 39.8081C83.5591 39.9668 83.8531 40.2001 84.0865 40.5081C84.3291 40.8161 84.5111 41.1848 84.6325 41.6141C84.7631 42.0435 84.8285 42.5241 84.8285 43.0561C84.8285 43.6441 84.7445 44.1715 84.5765 44.6381C84.4085 45.0955 84.1798 45.4828 83.8905 45.8001C83.6105 46.1081 83.2838 46.3461 82.9105 46.5141C82.5465 46.6821 82.1685 46.7661 81.7765 46.7661C81.4591 46.7661 81.1325 46.6961 80.7965 46.5561C80.4698 46.4161 80.1665 46.2155 79.8865 45.9541L79.9425 47.1581ZM79.9425 44.8061C80.1945 45.0395 80.4511 45.2028 80.7125 45.2961C80.9831 45.3895 81.2258 45.4361 81.4405 45.4361C81.9351 45.4361 82.3458 45.2401 82.6725 44.8481C82.9991 44.4468 83.1625 43.8541 83.1625 43.0701C83.1625 42.3795 83.0365 41.8428 82.7845 41.4601C82.5325 41.0775 82.1265 40.8861 81.5665 40.8861C81.3051 40.8861 81.0391 40.9515 80.7685 41.0821C80.4978 41.2128 80.2225 41.4228 79.9425 41.7121V44.8061ZM88.337 47.1581V49.3141H86.713V39.7241H88.043L88.169 40.5081H88.211C88.5097 40.2375 88.8503 40.0135 89.233 39.8361C89.625 39.6495 90.017 39.5561 90.409 39.5561C90.857 39.5561 91.2537 39.6401 91.599 39.8081C91.9537 39.9668 92.2477 40.2001 92.481 40.5081C92.7237 40.8161 92.9057 41.1848 93.027 41.6141C93.1577 42.0435 93.223 42.5241 93.223 43.0561C93.223 43.6441 93.139 44.1715 92.971 44.6381C92.803 45.0955 92.5743 45.4828 92.285 45.8001C92.005 46.1081 91.6783 46.3461 91.305 46.5141C90.941 46.6821 90.563 46.7661 90.171 46.7661C89.8537 46.7661 89.527 46.6961 89.191 46.5561C88.8643 46.4161 88.561 46.2155 88.281 45.9541L88.337 47.1581ZM88.337 44.8061C88.589 45.0395 88.8457 45.2028 89.107 45.2961C89.3777 45.3895 89.6203 45.4361 89.835 45.4361C90.3297 45.4361 90.7403 45.2401 91.067 44.8481C91.3937 44.4468 91.557 43.8541 91.557 43.0701C91.557 42.3795 91.431 41.8428 91.179 41.4601C90.927 41.0775 90.521 40.8861 89.961 40.8861C89.6997 40.8861 89.4337 40.9515 89.163 41.0821C88.8923 41.2128 88.617 41.4228 88.337 41.7121V44.8061ZM103.446 39.8221H109.662V40.9981H103.446V39.8221ZM103.446 42.9441H109.662V44.1201H103.446V42.9441ZM120.291 39.7241H121.621L121.747 40.7601H121.803C122.13 40.4335 122.489 40.1535 122.881 39.9201C123.282 39.6775 123.749 39.5561 124.281 39.5561C125.074 39.5561 125.658 39.7988 126.031 40.2841C126.404 40.7601 126.591 41.4461 126.591 42.3421V46.5981H124.967V42.5521C124.967 41.9921 124.869 41.5861 124.673 41.3341C124.486 41.0728 124.155 40.9421 123.679 40.9421C123.343 40.9421 123.044 41.0215 122.783 41.1801C122.522 41.3388 122.232 41.5815 121.915 41.9081V46.5981H120.291V39.7241ZM128.406 43.1681C128.406 42.6081 128.504 42.1041 128.7 41.6561C128.905 41.2081 129.171 40.8301 129.498 40.5221C129.824 40.2048 130.198 39.9668 130.618 39.8081C131.047 39.6401 131.486 39.5561 131.934 39.5561C132.447 39.5561 132.9 39.6401 133.292 39.8081C133.693 39.9668 134.029 40.1908 134.3 40.4801C134.57 40.7601 134.776 41.1008 134.916 41.5021C135.056 41.9035 135.126 42.3421 135.126 42.8181C135.126 42.9768 135.116 43.1261 135.098 43.2661C135.088 43.4061 135.074 43.5181 135.056 43.6021H130.058C130.114 44.2181 130.356 44.6941 130.786 45.0301C131.215 45.3568 131.742 45.5201 132.368 45.5201C132.722 45.5201 133.054 45.4735 133.362 45.3801C133.67 45.2775 133.982 45.1375 134.3 44.9601L134.846 45.9681C134.472 46.2015 134.057 46.3928 133.6 46.5421C133.142 46.6915 132.662 46.7661 132.158 46.7661C131.635 46.7661 131.145 46.6868 130.688 46.5281C130.23 46.3601 129.834 46.1221 129.498 45.8141C129.162 45.5061 128.896 45.1328 128.7 44.6941C128.504 44.2461 128.406 43.7375 128.406 43.1681ZM133.642 42.5101C133.642 41.9781 133.502 41.5628 133.222 41.2641C132.942 40.9561 132.526 40.8021 131.976 40.8021C131.509 40.8021 131.094 40.9468 130.73 41.2361C130.366 41.5255 130.137 41.9501 130.044 42.5101H133.642ZM136.016 39.7241H137.612L138.242 43.2941C138.298 43.6208 138.345 43.9475 138.382 44.2741C138.429 44.6008 138.476 44.9321 138.522 45.2681H138.578C138.625 44.9321 138.676 44.6008 138.732 44.2741C138.788 43.9475 138.854 43.6208 138.928 43.2941L139.572 40.3961H140.776L141.42 43.2941C141.495 43.6208 141.56 43.9475 141.616 44.2741C141.682 44.6008 141.742 44.9321 141.798 45.2681H141.854C141.91 44.9321 141.957 44.6008 141.994 44.2741C142.041 43.9475 142.088 43.6208 142.134 43.2941L142.764 39.7241H144.248L142.974 46.5981H141.084L140.482 43.7281C140.426 43.4015 140.37 43.0748 140.314 42.7481C140.268 42.4215 140.216 42.0808 140.16 41.7261H140.104C140.058 41.9968 140.011 42.2908 139.964 42.6081C139.927 42.9161 139.871 43.2941 139.796 43.7421L139.208 46.5981H137.346L136.016 39.7241ZM154.415 37.4421H160.239V38.8141H156.039V41.4041H159.609V42.7761H156.039V46.5981H154.415V37.4421ZM162.11 44.7501C162.11 44.3675 162.198 44.0315 162.376 43.7421C162.553 43.4435 162.833 43.1915 163.216 42.9861C163.598 42.7808 164.088 42.6128 164.686 42.4821C165.283 42.3515 166.006 42.2581 166.856 42.2021C166.828 41.8101 166.688 41.4881 166.436 41.2361C166.184 40.9841 165.778 40.8581 165.218 40.8581C164.826 40.8581 164.438 40.9328 164.056 41.0821C163.682 41.2221 163.318 41.3901 162.964 41.5861L162.376 40.5081C162.796 40.2655 163.276 40.0461 163.818 39.8501C164.359 39.6541 164.924 39.5561 165.512 39.5561C166.473 39.5561 167.206 39.8128 167.71 40.3261C168.214 40.8301 168.466 41.5628 168.466 42.5241V46.5981H167.15L167.024 45.7441H166.982C166.618 46.0241 166.212 46.2668 165.764 46.4721C165.325 46.6681 164.872 46.7661 164.406 46.7661C164.07 46.7661 163.762 46.7148 163.482 46.6121C163.202 46.5188 162.959 46.3835 162.754 46.2061C162.548 46.0288 162.39 45.8188 162.278 45.5761C162.166 45.3241 162.11 45.0488 162.11 44.7501ZM163.664 44.6241C163.664 44.9321 163.78 45.1561 164.014 45.2961C164.256 45.4361 164.55 45.5061 164.896 45.5061C165.241 45.5061 165.572 45.4315 165.89 45.2821C166.216 45.1235 166.538 44.9181 166.856 44.6661V43.2101C166.24 43.2568 165.726 43.3221 165.316 43.4061C164.905 43.4808 164.578 43.5788 164.336 43.7001C164.093 43.8215 163.92 43.9615 163.818 44.1201C163.715 44.2695 163.664 44.4375 163.664 44.6241ZM170.532 43.1681C170.532 42.5988 170.635 42.0901 170.84 41.6421C171.055 41.1941 171.34 40.8161 171.694 40.5081C172.049 40.2001 172.464 39.9668 172.94 39.8081C173.416 39.6401 173.916 39.5561 174.438 39.5561C174.998 39.5561 175.488 39.6495 175.908 39.8361C176.338 40.0228 176.697 40.2515 176.986 40.5221L176.216 41.5301C175.946 41.3155 175.67 41.1521 175.39 41.0401C175.12 40.9281 174.83 40.8721 174.522 40.8721C173.832 40.8721 173.272 41.0821 172.842 41.5021C172.413 41.9128 172.198 42.4681 172.198 43.1681C172.198 43.5135 172.254 43.8261 172.366 44.1061C172.478 44.3861 172.632 44.6288 172.828 44.8341C173.034 45.0301 173.276 45.1841 173.556 45.2961C173.836 45.3988 174.144 45.4501 174.48 45.4501C174.872 45.4501 175.227 45.3755 175.544 45.2261C175.871 45.0768 176.17 44.8995 176.44 44.6941L177.112 45.7301C176.72 46.0755 176.282 46.3368 175.796 46.5141C175.311 46.6821 174.821 46.7661 174.326 46.7661C173.785 46.7661 173.281 46.6868 172.814 46.5281C172.357 46.3695 171.956 46.1361 171.61 45.8281C171.274 45.5201 171.008 45.1421 170.812 44.6941C170.626 44.2461 170.532 43.7375 170.532 43.1681ZM180.565 40.9981H178.731V39.7941L180.635 39.7241L180.845 37.8481H182.175V39.7241H185.311V40.9981H182.175V43.8261C182.175 44.3955 182.291 44.8155 182.525 45.0861C182.758 45.3475 183.169 45.4781 183.757 45.4781C184.055 45.4781 184.326 45.4548 184.569 45.4081C184.811 45.3521 185.045 45.2821 185.269 45.1981L185.577 46.3741C185.269 46.4768 184.928 46.5655 184.555 46.6401C184.181 46.7241 183.785 46.7661 183.365 46.7661C182.842 46.7661 182.403 46.6961 182.049 46.5561C181.694 46.4161 181.405 46.2201 181.181 45.9681C180.966 45.7068 180.807 45.3941 180.705 45.0301C180.611 44.6661 180.565 44.2648 180.565 43.8261V40.9981ZM187.041 43.1681C187.041 42.5988 187.135 42.0901 187.321 41.6421C187.517 41.1941 187.774 40.8161 188.091 40.5081C188.409 40.2001 188.777 39.9668 189.197 39.8081C189.617 39.6401 190.051 39.5561 190.499 39.5561C190.947 39.5561 191.381 39.6401 191.801 39.8081C192.221 39.9668 192.59 40.2001 192.907 40.5081C193.225 40.8161 193.477 41.1941 193.663 41.6421C193.859 42.0901 193.957 42.5988 193.957 43.1681C193.957 43.7375 193.859 44.2461 193.663 44.6941C193.477 45.1421 193.225 45.5201 192.907 45.8281C192.59 46.1361 192.221 46.3695 191.801 46.5281C191.381 46.6868 190.947 46.7661 190.499 46.7661C190.051 46.7661 189.617 46.6868 189.197 46.5281C188.777 46.3695 188.409 46.1361 188.091 45.8281C187.774 45.5201 187.517 45.1421 187.321 44.6941C187.135 44.2461 187.041 43.7375 187.041 43.1681ZM188.707 43.1681C188.707 43.8588 188.866 44.4141 189.183 44.8341C189.501 45.2448 189.939 45.4501 190.499 45.4501C191.059 45.4501 191.498 45.2448 191.815 44.8341C192.133 44.4141 192.291 43.8588 192.291 43.1681C192.291 42.4681 192.133 41.9128 191.815 41.5021C191.498 41.0821 191.059 40.8721 190.499 40.8721C189.939 40.8721 189.501 41.0821 189.183 41.5021C188.866 41.9128 188.707 42.4681 188.707 43.1681ZM196.514 39.7241H197.844L197.984 41.2781H198.026C198.381 40.7181 198.805 40.2935 199.3 40.0041C199.804 39.7055 200.355 39.5561 200.952 39.5561C201.232 39.5561 201.47 39.5795 201.666 39.6261C201.871 39.6635 202.077 39.7335 202.282 39.8361L201.946 41.1941C201.722 41.1195 201.521 41.0681 201.344 41.0401C201.176 41.0028 200.961 40.9841 200.7 40.9841C200.224 40.9841 199.767 41.1195 199.328 41.3901C198.889 41.6608 198.493 42.1321 198.138 42.8041V46.5981H196.514V39.7241ZM208.856 49.0761C207.914 48.2921 207.167 47.3681 206.616 46.3041C206.075 45.2401 205.804 44.0408 205.804 42.7061C205.804 41.3715 206.075 40.1721 206.616 39.1081C207.167 38.0441 207.914 37.1201 208.856 36.3361L209.752 37.0781C208.866 37.8808 208.217 38.7348 207.806 39.6401C207.396 40.5455 207.19 41.5675 207.19 42.7061C207.19 43.8448 207.396 44.8668 207.806 45.7721C208.217 46.6775 208.866 47.5315 209.752 48.3341L208.856 49.0761ZM214.899 46.7941C214.899 46.5421 214.904 46.3135 214.913 46.1081C214.932 45.8935 214.95 45.6881 214.969 45.4921C214.988 45.2961 215.002 45.1001 215.011 44.9041C215.03 44.6988 215.039 44.4795 215.039 44.2461C215.039 44.1248 215.011 44.0035 214.955 43.8821C214.899 43.7515 214.796 43.6395 214.647 43.5461C214.498 43.4435 214.292 43.3595 214.031 43.2941C213.779 43.2288 213.457 43.1961 213.065 43.1961V42.2161C213.457 42.2161 213.779 42.1835 214.031 42.1181C214.292 42.0528 214.498 41.9735 214.647 41.8801C214.796 41.7775 214.899 41.6655 214.955 41.5441C215.011 41.4228 215.039 41.2968 215.039 41.1661C215.039 40.7275 215.016 40.3168 214.969 39.9341C214.922 39.5421 214.899 39.1035 214.899 38.6181C214.899 38.2448 214.95 37.9368 215.053 37.6941C215.156 37.4421 215.314 37.2415 215.529 37.0921C215.744 36.9428 216.014 36.8401 216.341 36.7841C216.668 36.7188 217.055 36.6861 217.503 36.6861H218.469V37.5681H217.825C217.498 37.5681 217.232 37.5868 217.027 37.6241C216.822 37.6615 216.658 37.7268 216.537 37.8201C216.425 37.9041 216.346 38.0208 216.299 38.1701C216.262 38.3101 216.243 38.4828 216.243 38.6881C216.243 39.0801 216.252 39.4721 216.271 39.8641C216.299 40.2561 216.313 40.6668 216.313 41.0961C216.313 41.5908 216.215 41.9595 216.019 42.2021C215.823 42.4355 215.478 42.5941 214.983 42.6781V42.7341C215.478 42.8181 215.823 42.9815 216.019 43.2241C216.215 43.4575 216.313 43.8215 216.313 44.3161C216.313 44.7641 216.299 45.1748 216.271 45.5481C216.252 45.9215 216.243 46.3135 216.243 46.7241C216.243 46.9388 216.262 47.1161 216.299 47.2561C216.346 47.3961 216.425 47.5081 216.537 47.5921C216.658 47.6855 216.822 47.7508 217.027 47.7881C217.232 47.8255 217.498 47.8441 217.825 47.8441H218.469V48.7261H217.503C217.055 48.7261 216.668 48.6935 216.341 48.6281C216.014 48.5721 215.744 48.4695 215.529 48.3201C215.314 48.1708 215.156 47.9701 215.053 47.7181C214.95 47.4755 214.899 47.1675 214.899 46.7941ZM52.8549 67.1681C52.8549 66.6081 52.9529 66.1041 53.1489 65.6561C53.3542 65.2081 53.6202 64.8301 53.9469 64.5221C54.2735 64.2048 54.6469 63.9668 55.0669 63.8081C55.4962 63.6401 55.9349 63.5561 56.3829 63.5561C56.8962 63.5561 57.3489 63.6401 57.7409 63.8081C58.1422 63.9668 58.4782 64.1908 58.7489 64.4801C59.0195 64.7601 59.2249 65.1008 59.3649 65.5021C59.5049 65.9035 59.5749 66.3421 59.5749 66.8181C59.5749 66.9768 59.5655 67.1261 59.5469 67.2661C59.5375 67.4061 59.5235 67.5181 59.5049 67.6021H54.5069C54.5629 68.2181 54.8055 68.6941 55.2349 69.0301C55.6642 69.3568 56.1915 69.5201 56.8169 69.5201C57.1715 69.5201 57.5029 69.4735 57.8109 69.3801C58.1189 69.2775 58.4315 69.1375 58.7489 68.9601L59.2949 69.9681C58.9215 70.2015 58.5062 70.3928 58.0489 70.5421C57.5915 70.6915 57.1109 70.7661 56.6069 70.7661C56.0842 70.7661 55.5942 70.6868 55.1369 70.5281C54.6795 70.3601 54.2829 70.1221 53.9469 69.8141C53.6109 69.5061 53.3449 69.1328 53.1489 68.6941C52.9529 68.2461 52.8549 67.7375 52.8549 67.1681ZM58.0909 66.5101C58.0909 65.9781 57.9509 65.5628 57.6709 65.2641C57.3909 64.9561 56.9755 64.8021 56.4249 64.8021C55.9582 64.8021 55.5429 64.9468 55.1789 65.2361C54.8149 65.5255 54.5862 65.9501 54.4929 66.5101H58.0909ZM61.3754 60.7141H65.1554V68.1761C65.1554 68.6428 65.2721 68.9741 65.5054 69.1701C65.7387 69.3568 66.0327 69.4501 66.3874 69.4501C66.7234 69.4501 67.1154 69.3615 67.5634 69.1841L67.9414 70.3741C67.6147 70.4861 67.3067 70.5795 67.0174 70.6541C66.7374 70.7288 66.3967 70.7661 65.9954 70.7661C65.1834 70.7661 64.5721 70.5328 64.1614 70.0661C63.7507 69.5995 63.5454 68.9415 63.5454 68.0921V61.9881H61.3754V60.7141ZM71.5899 64.5921C71.5899 64.1815 71.7206 63.8455 71.9819 63.5841C72.2433 63.3135 72.5746 63.1781 72.9759 63.1781C73.3773 63.1781 73.7086 63.3135 73.9699 63.5841C74.2313 63.8455 74.3619 64.1815 74.3619 64.5921C74.3619 65.0028 74.2313 65.3435 73.9699 65.6141C73.7086 65.8755 73.3773 66.0061 72.9759 66.0061C72.5746 66.0061 72.2433 65.8755 71.9819 65.6141C71.7206 65.3435 71.5899 65.0028 71.5899 64.5921ZM71.5899 69.3521C71.5899 68.9415 71.7206 68.6055 71.9819 68.3441C72.2433 68.0735 72.5746 67.9381 72.9759 67.9381C73.3773 67.9381 73.7086 68.0735 73.9699 68.3441C74.2313 68.6055 74.3619 68.9415 74.3619 69.3521C74.3619 69.7628 74.2313 70.1035 73.9699 70.3741C73.7086 70.6355 73.3773 70.7661 72.9759 70.7661C72.5746 70.7661 72.2433 70.6355 71.9819 70.3741C71.7206 70.1035 71.5899 69.7628 71.5899 69.3521ZM88.827 62.7861L88.785 60.9941H90.745L90.703 62.7861L90.283 66.0201H89.247L88.827 62.7861ZM96.1295 67.8681H95.0515V66.8041H96.2555L96.4795 64.9981H95.3315V63.9341H96.6055L96.9275 61.4981H97.8795L97.5855 63.9341H99.2375L99.5455 61.4981H100.512L100.218 63.9341H101.324V64.9981H100.092L99.8675 66.8041H101.044V67.8681H99.7415L99.4055 70.5981H98.4255L98.7615 67.8681H97.1095L96.7875 70.5981H95.8075L96.1295 67.8681ZM98.8875 66.8041L99.1115 64.9981H97.4595L97.2355 66.8041H98.8875ZM103.348 68.7501C103.348 68.3675 103.437 68.0315 103.614 67.7421C103.791 67.4435 104.071 67.1915 104.454 66.9861C104.837 66.7808 105.327 66.6128 105.924 66.4821C106.521 66.3515 107.245 66.2581 108.094 66.2021C108.066 65.8101 107.926 65.4881 107.674 65.2361C107.422 64.9841 107.016 64.8581 106.456 64.8581C106.064 64.8581 105.677 64.9328 105.294 65.0821C104.921 65.2221 104.557 65.3901 104.202 65.5861L103.614 64.5081C104.034 64.2655 104.515 64.0461 105.056 63.8501C105.597 63.6541 106.162 63.5561 106.75 63.5561C107.711 63.5561 108.444 63.8128 108.948 64.3261C109.452 64.8301 109.704 65.5628 109.704 66.5241V70.5981H108.388L108.262 69.7441H108.22C107.856 70.0241 107.45 70.2668 107.002 70.4721C106.563 70.6681 106.111 70.7661 105.644 70.7661C105.308 70.7661 105 70.7148 104.72 70.6121C104.44 70.5188 104.197 70.3835 103.992 70.2061C103.787 70.0288 103.628 69.8188 103.516 69.5761C103.404 69.3241 103.348 69.0488 103.348 68.7501ZM104.902 68.6241C104.902 68.9321 105.019 69.1561 105.252 69.2961C105.495 69.4361 105.789 69.5061 106.134 69.5061C106.479 69.5061 106.811 69.4315 107.128 69.2821C107.455 69.1235 107.777 68.9181 108.094 68.6661V67.2101C107.478 67.2568 106.965 67.3221 106.554 67.4061C106.143 67.4808 105.817 67.5788 105.574 67.7001C105.331 67.8215 105.159 67.9615 105.056 68.1201C104.953 68.2695 104.902 68.4375 104.902 68.6241ZM113.521 71.1581V73.3141H111.897V63.7241H113.227L113.353 64.5081H113.395C113.693 64.2375 114.034 64.0135 114.417 63.8361C114.809 63.6495 115.201 63.5561 115.593 63.5561C116.041 63.5561 116.437 63.6401 116.783 63.8081C117.137 63.9668 117.431 64.2001 117.665 64.5081C117.907 64.8161 118.089 65.1848 118.211 65.6141C118.341 66.0435 118.407 66.5241 118.407 67.0561C118.407 67.6441 118.323 68.1715 118.155 68.6381C117.987 69.0955 117.758 69.4828 117.469 69.8001C117.189 70.1081 116.862 70.3461 116.489 70.5141C116.125 70.6821 115.747 70.7661 115.355 70.7661C115.037 70.7661 114.711 70.6961 114.375 70.5561C114.048 70.4161 113.745 70.2155 113.465 69.9541L113.521 71.1581ZM113.521 68.8061C113.773 69.0395 114.029 69.2028 114.291 69.2961C114.561 69.3895 114.804 69.4361 115.019 69.4361C115.513 69.4361 115.924 69.2401 116.251 68.8481C116.577 68.4468 116.741 67.8541 116.741 67.0701C116.741 66.3795 116.615 65.8428 116.363 65.4601C116.111 65.0775 115.705 64.8861 115.145 64.8861C114.883 64.8861 114.617 64.9515 114.347 65.0821C114.076 65.2128 113.801 65.4228 113.521 65.7121V68.8061ZM121.915 71.1581V73.3141H120.291V63.7241H121.621L121.747 64.5081H121.789C122.088 64.2375 122.428 64.0135 122.811 63.8361C123.203 63.6495 123.595 63.5561 123.987 63.5561C124.435 63.5561 124.832 63.6401 125.177 63.8081C125.532 63.9668 125.826 64.2001 126.059 64.5081C126.302 64.8161 126.484 65.1848 126.605 65.6141C126.736 66.0435 126.801 66.5241 126.801 67.0561C126.801 67.6441 126.717 68.1715 126.549 68.6381C126.381 69.0955 126.152 69.4828 125.863 69.8001C125.583 70.1081 125.256 70.3461 124.883 70.5141C124.519 70.6821 124.141 70.7661 123.749 70.7661C123.432 70.7661 123.105 70.6961 122.769 70.5561C122.442 70.4161 122.139 70.2155 121.859 69.9541L121.915 71.1581ZM121.915 68.8061C122.167 69.0395 122.424 69.2028 122.685 69.2961C122.956 69.3895 123.198 69.4361 123.413 69.4361C123.908 69.4361 124.318 69.2401 124.645 68.8481C124.972 68.4468 125.135 67.8541 125.135 67.0701C125.135 66.3795 125.009 65.8428 124.757 65.4601C124.505 65.0775 124.099 64.8861 123.539 64.8861C123.278 64.8861 123.012 64.9515 122.741 65.0821C122.47 65.2128 122.195 65.4228 121.915 65.7121V68.8061ZM130.8 62.7861L130.758 60.9941H132.718L132.676 62.7861L132.256 66.0201H131.22L130.8 62.7861ZM138.578 72.6421C139.764 72.1661 140.361 71.4475 140.37 70.4861C140.324 70.4955 140.258 70.5001 140.174 70.5001C139.82 70.5001 139.512 70.3975 139.25 70.1921C138.989 69.9775 138.858 69.6648 138.858 69.2541C138.858 68.8621 138.989 68.5588 139.25 68.3441C139.521 68.1201 139.838 68.0081 140.202 68.0081C140.706 68.0081 141.084 68.1948 141.336 68.5681C141.588 68.9415 141.714 69.4548 141.714 70.1081C141.714 70.9668 141.481 71.6901 141.014 72.2781C140.548 72.8755 139.876 73.3188 138.998 73.6081L138.578 72.6421ZM52.7289 92.1681C52.7289 91.6081 52.8129 91.1041 52.9809 90.6561C53.1489 90.2081 53.3729 89.8301 53.6529 89.5221C53.9422 89.2141 54.2689 88.9761 54.6329 88.8081C54.9969 88.6401 55.3749 88.5561 55.7669 88.5561C56.1775 88.5561 56.5275 88.6308 56.8169 88.7801C57.1155 88.9201 57.4049 89.1161 57.6849 89.3681L57.6149 88.2061V85.7141H59.2389V95.5981H57.9089L57.7829 94.8001H57.7409C57.4702 95.0708 57.1529 95.2995 56.7889 95.4861C56.4342 95.6728 56.0609 95.7661 55.6689 95.7661C55.2302 95.7661 54.8289 95.6868 54.4649 95.5281C54.1009 95.3601 53.7882 95.1221 53.5269 94.8141C53.2749 94.5061 53.0789 94.1328 52.9389 93.6941C52.7989 93.2461 52.7289 92.7375 52.7289 92.1681ZM54.3949 92.1541C54.3949 92.9008 54.5395 93.4701 54.8289 93.8621C55.1182 94.2448 55.5289 94.4361 56.0609 94.4361C56.6302 94.4361 57.1482 94.1608 57.6149 93.6101V90.5161C57.3722 90.2828 57.1295 90.1195 56.8869 90.0261C56.6442 89.9328 56.3969 89.8861 56.1449 89.8861C55.9022 89.8861 55.6735 89.9375 55.4589 90.0401C55.2535 90.1428 55.0715 90.2921 54.9129 90.4881C54.7542 90.6748 54.6282 90.9081 54.5349 91.1881C54.4415 91.4681 54.3949 91.7901 54.3949 92.1541ZM61.3754 93.7501C61.3754 93.3675 61.4641 93.0315 61.6414 92.7421C61.8187 92.4435 62.0987 92.1915 62.4814 91.9861C62.8641 91.7808 63.3541 91.6128 63.9514 91.4821C64.5487 91.3515 65.2721 91.2581 66.1214 91.2021C66.0934 90.8101 65.9534 90.4881 65.7014 90.2361C65.4494 89.9841 65.0434 89.8581 64.4834 89.8581C64.0914 89.8581 63.7041 89.9328 63.3214 90.0821C62.9481 90.2221 62.5841 90.3901 62.2294 90.5861L61.6414 89.5081C62.0614 89.2655 62.5421 89.0461 63.0834 88.8501C63.6247 88.6541 64.1894 88.5561 64.7774 88.5561C65.7387 88.5561 66.4714 88.8128 66.9754 89.3261C67.4794 89.8301 67.7314 90.5628 67.7314 91.5241V95.5981H66.4154L66.2894 94.7441H66.2474C65.8834 95.0241 65.4774 95.2668 65.0294 95.4721C64.5907 95.6681 64.1381 95.7661 63.6714 95.7661C63.3354 95.7661 63.0274 95.7148 62.7474 95.6121C62.4674 95.5188 62.2247 95.3835 62.0194 95.2061C61.8141 95.0288 61.6554 94.8188 61.5434 94.5761C61.4314 94.3241 61.3754 94.0488 61.3754 93.7501ZM62.9294 93.6241C62.9294 93.9321 63.0461 94.1561 63.2794 94.2961C63.5221 94.4361 63.8161 94.5061 64.1614 94.5061C64.5067 94.5061 64.8381 94.4315 65.1554 94.2821C65.4821 94.1235 65.8041 93.9181 66.1214 93.6661V92.2101C65.5054 92.2568 64.9921 92.3221 64.5814 92.4061C64.1707 92.4808 63.8441 92.5788 63.6014 92.7001C63.3587 92.8215 63.1861 92.9615 63.0834 93.1201C62.9807 93.2695 62.9294 93.4375 62.9294 93.6241ZM71.4359 89.9981H69.6019V88.7941L71.5059 88.7241L71.7159 86.8481H73.0459V88.7241H76.1819V89.9981H73.0459V92.8261C73.0459 93.3955 73.1626 93.8155 73.3959 94.0861C73.6293 94.3475 74.0399 94.4781 74.6279 94.4781C74.9266 94.4781 75.1973 94.4548 75.4399 94.4081C75.6826 94.3521 75.9159 94.2821 76.1399 94.1981L76.4479 95.3741C76.1399 95.4768 75.7993 95.5655 75.4259 95.6401C75.0526 95.7241 74.6559 95.7661 74.2359 95.7661C73.7133 95.7661 73.2746 95.6961 72.9199 95.5561C72.5653 95.4161 72.2759 95.2201 72.0519 94.9681C71.8373 94.7068 71.6786 94.3941 71.5759 94.0301C71.4826 93.6661 71.4359 93.2648 71.4359 92.8261V89.9981ZM78.1645 93.7501C78.1645 93.3675 78.2531 93.0315 78.4305 92.7421C78.6078 92.4435 78.8878 92.1915 79.2705 91.9861C79.6531 91.7808 80.1431 91.6128 80.7405 91.4821C81.3378 91.3515 82.0611 91.2581 82.9105 91.2021C82.8825 90.8101 82.7425 90.4881 82.4905 90.2361C82.2385 89.9841 81.8325 89.8581 81.2725 89.8581C80.8805 89.8581 80.4931 89.9328 80.1105 90.0821C79.7371 90.2221 79.3731 90.3901 79.0185 90.5861L78.4305 89.5081C78.8505 89.2655 79.3311 89.0461 79.8725 88.8501C80.4138 88.6541 80.9785 88.5561 81.5665 88.5561C82.5278 88.5561 83.2605 88.8128 83.7645 89.3261C84.2685 89.8301 84.5205 90.5628 84.5205 91.5241V95.5981H83.2045L83.0785 94.7441H83.0365C82.6725 95.0241 82.2665 95.2668 81.8185 95.4721C81.3798 95.6681 80.9271 95.7661 80.4605 95.7661C80.1245 95.7661 79.8165 95.7148 79.5365 95.6121C79.2565 95.5188 79.0138 95.3835 78.8085 95.2061C78.6031 95.0288 78.4445 94.8188 78.3325 94.5761C78.2205 94.3241 78.1645 94.0488 78.1645 93.7501ZM79.7185 93.6241C79.7185 93.9321 79.8351 94.1561 80.0685 94.2961C80.3111 94.4361 80.6051 94.5061 80.9505 94.5061C81.2958 94.5061 81.6271 94.4315 81.9445 94.2821C82.2711 94.1235 82.5931 93.9181 82.9105 93.6661V92.2101C82.2945 92.2568 81.7811 92.3221 81.3705 92.4061C80.9598 92.4808 80.6331 92.5788 80.3905 92.7001C80.1478 92.8215 79.9751 92.9615 79.8725 93.1201C79.7698 93.2695 79.7185 93.4375 79.7185 93.6241ZM88.379 89.5921C88.379 89.1815 88.5097 88.8455 88.771 88.5841C89.0323 88.3135 89.3637 88.1781 89.765 88.1781C90.1663 88.1781 90.4977 88.3135 90.759 88.5841C91.0203 88.8455 91.151 89.1815 91.151 89.5921C91.151 90.0028 91.0203 90.3435 90.759 90.6141C90.4977 90.8755 90.1663 91.0061 89.765 91.0061C89.3637 91.0061 89.0323 90.8755 88.771 90.6141C88.5097 90.3435 88.379 90.0028 88.379 89.5921ZM88.379 94.3521C88.379 93.9415 88.5097 93.6055 88.771 93.3441C89.0323 93.0735 89.3637 92.9381 89.765 92.9381C90.1663 92.9381 90.4977 93.0735 90.759 93.3441C91.0203 93.6055 91.151 93.9415 91.151 94.3521C91.151 94.7628 91.0203 95.1035 90.759 95.3741C90.4977 95.6355 90.1663 95.7661 89.765 95.7661C89.3637 95.7661 89.0323 95.6355 88.771 95.3741C88.5097 95.1035 88.379 94.7628 88.379 94.3521ZM105.77 95.7941C105.77 95.5421 105.775 95.3135 105.784 95.1081C105.803 94.8935 105.821 94.6881 105.84 94.4921C105.859 94.2961 105.873 94.1001 105.882 93.9041C105.901 93.6988 105.91 93.4795 105.91 93.2461C105.91 93.1248 105.882 93.0035 105.826 92.8821C105.77 92.7515 105.667 92.6395 105.518 92.5461C105.369 92.4435 105.163 92.3595 104.902 92.2941C104.65 92.2288 104.328 92.1961 103.936 92.1961V91.2161C104.328 91.2161 104.65 91.1835 104.902 91.1181C105.163 91.0528 105.369 90.9735 105.518 90.8801C105.667 90.7775 105.77 90.6655 105.826 90.5441C105.882 90.4228 105.91 90.2968 105.91 90.1661C105.91 89.7275 105.887 89.3168 105.84 88.9341C105.793 88.5421 105.77 88.1035 105.77 87.6181C105.77 87.2448 105.821 86.9368 105.924 86.6941C106.027 86.4421 106.185 86.2415 106.4 86.0921C106.615 85.9428 106.885 85.8401 107.212 85.7841C107.539 85.7188 107.926 85.6861 108.374 85.6861H109.34V86.5681H108.696C108.369 86.5681 108.103 86.5868 107.898 86.6241C107.693 86.6615 107.529 86.7268 107.408 86.8201C107.296 86.9041 107.217 87.0208 107.17 87.1701C107.133 87.3101 107.114 87.4828 107.114 87.6881C107.114 88.0801 107.123 88.4721 107.142 88.8641C107.17 89.2561 107.184 89.6668 107.184 90.0961C107.184 90.5908 107.086 90.9595 106.89 91.2021C106.694 91.4355 106.349 91.5941 105.854 91.6781V91.7341C106.349 91.8181 106.694 91.9815 106.89 92.2241C107.086 92.4575 107.184 92.8215 107.184 93.3161C107.184 93.7641 107.17 94.1748 107.142 94.5481C107.123 94.9215 107.114 95.3135 107.114 95.7241C107.114 95.9388 107.133 96.1161 107.17 96.2561C107.217 96.3961 107.296 96.5081 107.408 96.5921C107.529 96.6855 107.693 96.7508 107.898 96.7881C108.103 96.8255 108.369 96.8441 108.696 96.8441H109.34V97.7261H108.374C107.926 97.7261 107.539 97.6935 107.212 97.6281C106.885 97.5721 106.615 97.4695 106.4 97.3201C106.185 97.1708 106.027 96.9701 105.924 96.7181C105.821 96.4755 105.77 96.1675 105.77 95.7941ZM69.4479 113.724H70.6659L70.7919 114.606H70.8339C70.9926 114.307 71.1839 114.06 71.4079 113.864C71.6413 113.659 71.9539 113.556 72.3459 113.556C73.0179 113.556 73.4379 113.939 73.6059 114.704C73.7646 114.377 73.9653 114.107 74.2079 113.892C74.4599 113.668 74.7773 113.556 75.1599 113.556C75.6453 113.556 76.0186 113.747 76.2799 114.13C76.5506 114.503 76.6859 115.035 76.6859 115.726V120.598H75.1599V115.852C75.1599 115.245 74.9686 114.942 74.5859 114.942C74.3993 114.942 74.2359 115.012 74.0959 115.152C73.9559 115.292 73.8206 115.507 73.6899 115.796V120.598H72.4299V115.852C72.4299 115.245 72.2339 114.942 71.8419 114.942C71.6553 114.942 71.4966 115.012 71.3659 115.152C71.2353 115.292 71.1046 115.507 70.9739 115.796V120.598H69.4479V113.724ZM78.0385 117.168C78.0385 116.608 78.1365 116.104 78.3325 115.656C78.5378 115.208 78.8038 114.83 79.1305 114.522C79.4571 114.205 79.8305 113.967 80.2505 113.808C80.6798 113.64 81.1185 113.556 81.5665 113.556C82.0798 113.556 82.5325 113.64 82.9245 113.808C83.3258 113.967 83.6618 114.191 83.9325 114.48C84.2031 114.76 84.4085 115.101 84.5485 115.502C84.6885 115.903 84.7585 116.342 84.7585 116.818C84.7585 116.977 84.7491 117.126 84.7305 117.266C84.7211 117.406 84.7071 117.518 84.6885 117.602H79.6905C79.7465 118.218 79.9891 118.694 80.4185 119.03C80.8478 119.357 81.3751 119.52 82.0005 119.52C82.3551 119.52 82.6865 119.473 82.9945 119.38C83.3025 119.277 83.6151 119.137 83.9325 118.96L84.4785 119.968C84.1051 120.201 83.6898 120.393 83.2325 120.542C82.7751 120.691 82.2945 120.766 81.7905 120.766C81.2678 120.766 80.7778 120.687 80.3205 120.528C79.8631 120.36 79.4665 120.122 79.1305 119.814C78.7945 119.506 78.5285 119.133 78.3325 118.694C78.1365 118.246 78.0385 117.737 78.0385 117.168ZM83.2745 116.51C83.2745 115.978 83.1345 115.563 82.8545 115.264C82.5745 114.956 82.1591 114.802 81.6085 114.802C81.1418 114.802 80.7265 114.947 80.3625 115.236C79.9985 115.525 79.7698 115.95 79.6765 116.51H83.2745ZM87.189 118.68C87.581 118.951 87.987 119.165 88.407 119.324C88.8363 119.473 89.317 119.548 89.849 119.548C90.3903 119.548 90.787 119.473 91.039 119.324C91.291 119.165 91.417 118.965 91.417 118.722C91.417 118.479 91.2537 118.279 90.927 118.12C90.6003 117.952 90.087 117.775 89.387 117.588C89.0603 117.504 88.743 117.401 88.435 117.28C88.127 117.159 87.8563 117.019 87.623 116.86C87.3897 116.701 87.203 116.519 87.063 116.314C86.923 116.109 86.853 115.875 86.853 115.614C86.853 115.007 87.1143 114.513 87.637 114.13C88.1597 113.747 88.911 113.556 89.891 113.556C90.451 113.556 90.9783 113.649 91.473 113.836C91.9677 114.023 92.3923 114.233 92.747 114.466L92.005 115.46C91.697 115.255 91.3657 115.091 91.011 114.97C90.6657 114.839 90.297 114.774 89.905 114.774C89.373 114.774 88.9997 114.849 88.785 114.998C88.5703 115.138 88.463 115.315 88.463 115.53C88.463 115.651 88.5097 115.763 88.603 115.866C88.7057 115.959 88.841 116.048 89.009 116.132C89.1863 116.207 89.3917 116.281 89.625 116.356C89.8583 116.431 90.115 116.501 90.395 116.566C90.7963 116.669 91.1557 116.785 91.473 116.916C91.7997 117.037 92.075 117.177 92.299 117.336C92.5323 117.495 92.7097 117.681 92.831 117.896C92.9617 118.111 93.027 118.358 93.027 118.638C93.027 118.937 92.957 119.217 92.817 119.478C92.677 119.73 92.4717 119.954 92.201 120.15C91.9303 120.337 91.5943 120.486 91.193 120.598C90.7917 120.71 90.3297 120.766 89.807 120.766C89.163 120.766 88.547 120.663 87.959 120.458C87.371 120.253 86.8623 120.001 86.433 119.702L87.189 118.68ZM95.5835 118.68C95.9755 118.951 96.3815 119.165 96.8015 119.324C97.2309 119.473 97.7115 119.548 98.2435 119.548C98.7849 119.548 99.1815 119.473 99.4335 119.324C99.6855 119.165 99.8115 118.965 99.8115 118.722C99.8115 118.479 99.6482 118.279 99.3215 118.12C98.9949 117.952 98.4815 117.775 97.7815 117.588C97.4549 117.504 97.1375 117.401 96.8295 117.28C96.5215 117.159 96.2509 117.019 96.0175 116.86C95.7842 116.701 95.5975 116.519 95.4575 116.314C95.3175 116.109 95.2475 115.875 95.2475 115.614C95.2475 115.007 95.5089 114.513 96.0315 114.13C96.5542 113.747 97.3055 113.556 98.2855 113.556C98.8455 113.556 99.3729 113.649 99.8675 113.836C100.362 114.023 100.787 114.233 101.142 114.466L100.4 115.46C100.092 115.255 99.7602 115.091 99.4055 114.97C99.0602 114.839 98.6915 114.774 98.2995 114.774C97.7675 114.774 97.3942 114.849 97.1795 114.998C96.9649 115.138 96.8575 115.315 96.8575 115.53C96.8575 115.651 96.9042 115.763 96.9975 115.866C97.1002 115.959 97.2355 116.048 97.4035 116.132C97.5809 116.207 97.7862 116.281 98.0195 116.356C98.2529 116.431 98.5095 116.501 98.7895 116.566C99.1909 116.669 99.5502 116.785 99.8675 116.916C100.194 117.037 100.47 117.177 100.694 117.336C100.927 117.495 101.104 117.681 101.226 117.896C101.356 118.111 101.422 118.358 101.422 118.638C101.422 118.937 101.352 119.217 101.212 119.478C101.072 119.73 100.866 119.954 100.596 120.15C100.325 120.337 99.9889 120.486 99.5875 120.598C99.1862 120.71 98.7242 120.766 98.2015 120.766C97.5575 120.766 96.9415 120.663 96.3535 120.458C95.7655 120.253 95.2569 120.001 94.8275 119.702L95.5835 118.68ZM103.348 118.75C103.348 118.367 103.437 118.031 103.614 117.742C103.791 117.443 104.071 117.191 104.454 116.986C104.837 116.781 105.327 116.613 105.924 116.482C106.521 116.351 107.245 116.258 108.094 116.202C108.066 115.81 107.926 115.488 107.674 115.236C107.422 114.984 107.016 114.858 106.456 114.858C106.064 114.858 105.677 114.933 105.294 115.082C104.921 115.222 104.557 115.39 104.202 115.586L103.614 114.508C104.034 114.265 104.515 114.046 105.056 113.85C105.597 113.654 106.162 113.556 106.75 113.556C107.711 113.556 108.444 113.813 108.948 114.326C109.452 114.83 109.704 115.563 109.704 116.524V120.598H108.388L108.262 119.744H108.22C107.856 120.024 107.45 120.267 107.002 120.472C106.563 120.668 106.111 120.766 105.644 120.766C105.308 120.766 105 120.715 104.72 120.612C104.44 120.519 104.197 120.383 103.992 120.206C103.787 120.029 103.628 119.819 103.516 119.576C103.404 119.324 103.348 119.049 103.348 118.75ZM104.902 118.624C104.902 118.932 105.019 119.156 105.252 119.296C105.495 119.436 105.789 119.506 106.134 119.506C106.479 119.506 106.811 119.431 107.128 119.282C107.455 119.123 107.777 118.918 108.094 118.666V117.21C107.478 117.257 106.965 117.322 106.554 117.406C106.143 117.481 105.817 117.579 105.574 117.7C105.331 117.821 105.159 117.961 105.056 118.12C104.953 118.269 104.902 118.437 104.902 118.624ZM112.961 121.592C112.961 121.9 113.129 122.143 113.465 122.32C113.81 122.497 114.305 122.586 114.949 122.586C115.285 122.586 115.588 122.553 115.859 122.488C116.129 122.432 116.363 122.353 116.559 122.25C116.755 122.147 116.904 122.026 117.007 121.886C117.109 121.755 117.161 121.615 117.161 121.466C117.161 121.195 117.044 121.013 116.811 120.92C116.577 120.836 116.232 120.794 115.775 120.794H114.683C114.459 120.794 114.258 120.785 114.081 120.766C113.913 120.757 113.763 120.729 113.633 120.682C113.39 120.831 113.217 120.981 113.115 121.13C113.012 121.279 112.961 121.433 112.961 121.592ZM111.617 121.802C111.617 121.531 111.71 121.27 111.897 121.018C112.083 120.766 112.354 120.547 112.709 120.36V120.304C112.522 120.201 112.359 120.057 112.219 119.87C112.079 119.683 112.009 119.445 112.009 119.156C112.009 118.923 112.083 118.694 112.233 118.47C112.382 118.237 112.583 118.031 112.835 117.854V117.798C112.592 117.63 112.382 117.397 112.205 117.098C112.037 116.799 111.953 116.445 111.953 116.034C111.953 115.642 112.027 115.292 112.177 114.984C112.335 114.676 112.541 114.419 112.793 114.214C113.054 113.999 113.353 113.836 113.689 113.724C114.034 113.612 114.398 113.556 114.781 113.556C115.191 113.556 115.551 113.612 115.859 113.724H118.673V114.914H117.063C117.184 115.054 117.291 115.227 117.385 115.432C117.478 115.628 117.525 115.847 117.525 116.09C117.525 116.473 117.455 116.809 117.315 117.098C117.175 117.387 116.979 117.63 116.727 117.826C116.484 118.022 116.195 118.171 115.859 118.274C115.523 118.367 115.163 118.414 114.781 118.414C114.435 118.414 114.085 118.353 113.731 118.232C113.451 118.409 113.311 118.619 113.311 118.862C113.311 119.301 113.745 119.52 114.613 119.52H116.013C116.909 119.52 117.581 119.651 118.029 119.912C118.486 120.173 118.715 120.603 118.715 121.2C118.715 121.536 118.621 121.853 118.435 122.152C118.248 122.451 117.982 122.707 117.637 122.922C117.301 123.146 116.885 123.319 116.391 123.44C115.905 123.571 115.359 123.636 114.753 123.636C114.277 123.636 113.847 123.599 113.465 123.524C113.082 123.449 112.751 123.333 112.471 123.174C112.2 123.025 111.99 122.833 111.841 122.6C111.691 122.376 111.617 122.11 111.617 121.802ZM114.781 117.406C115.135 117.406 115.443 117.289 115.705 117.056C115.966 116.813 116.097 116.473 116.097 116.034C116.097 115.614 115.966 115.283 115.705 115.04C115.443 114.788 115.135 114.662 114.781 114.662C114.426 114.662 114.118 114.788 113.857 115.04C113.605 115.283 113.479 115.614 113.479 116.034C113.479 116.473 113.605 116.813 113.857 117.056C114.118 117.289 114.426 117.406 114.781 117.406ZM120.011 117.168C120.011 116.608 120.109 116.104 120.305 115.656C120.51 115.208 120.776 114.83 121.103 114.522C121.43 114.205 121.803 113.967 122.223 113.808C122.652 113.64 123.091 113.556 123.539 113.556C124.052 113.556 124.505 113.64 124.897 113.808C125.298 113.967 125.634 114.191 125.905 114.48C126.176 114.76 126.381 115.101 126.521 115.502C126.661 115.903 126.731 116.342 126.731 116.818C126.731 116.977 126.722 117.126 126.703 117.266C126.694 117.406 126.68 117.518 126.661 117.602H121.663C121.719 118.218 121.962 118.694 122.391 119.03C122.82 119.357 123.348 119.52 123.973 119.52C124.328 119.52 124.659 119.473 124.967 119.38C125.275 119.277 125.588 119.137 125.905 118.96L126.451 119.968C126.078 120.201 125.662 120.393 125.205 120.542C124.748 120.691 124.267 120.766 123.763 120.766C123.24 120.766 122.75 120.687 122.293 120.528C121.836 120.36 121.439 120.122 121.103 119.814C120.767 119.506 120.501 119.133 120.305 118.694C120.109 118.246 120.011 117.737 120.011 117.168ZM125.247 116.51C125.247 115.978 125.107 115.563 124.827 115.264C124.547 114.956 124.132 114.802 123.581 114.802C123.114 114.802 122.699 114.947 122.335 115.236C121.971 115.525 121.742 115.95 121.649 116.51H125.247ZM130.352 114.592C130.352 114.181 130.482 113.845 130.744 113.584C131.005 113.313 131.336 113.178 131.738 113.178C132.139 113.178 132.47 113.313 132.732 113.584C132.993 113.845 133.124 114.181 133.124 114.592C133.124 115.003 132.993 115.343 132.732 115.614C132.47 115.875 132.139 116.006 131.738 116.006C131.336 116.006 131.005 115.875 130.744 115.614C130.482 115.343 130.352 115.003 130.352 114.592ZM130.352 119.352C130.352 118.941 130.482 118.605 130.744 118.344C131.005 118.073 131.336 117.938 131.738 117.938C132.139 117.938 132.47 118.073 132.732 118.344C132.993 118.605 133.124 118.941 133.124 119.352C133.124 119.763 132.993 120.103 132.732 120.374C132.47 120.635 132.139 120.766 131.738 120.766C131.336 120.766 131.005 120.635 130.744 120.374C130.482 120.103 130.352 119.763 130.352 119.352ZM147.589 112.786L147.547 110.994H149.507L149.465 112.786L149.045 116.02H148.009L147.589 112.786ZM153.729 111.442H155.353V115.124H158.489V111.442H160.113V120.598H158.489V116.538H155.353V120.598H153.729V111.442ZM161.984 117.168C161.984 116.608 162.082 116.104 162.278 115.656C162.483 115.208 162.749 114.83 163.076 114.522C163.402 114.205 163.776 113.967 164.196 113.808C164.625 113.64 165.064 113.556 165.512 113.556C166.025 113.556 166.478 113.64 166.87 113.808C167.271 113.967 167.607 114.191 167.878 114.48C168.148 114.76 168.354 115.101 168.494 115.502C168.634 115.903 168.704 116.342 168.704 116.818C168.704 116.977 168.694 117.126 168.676 117.266C168.666 117.406 168.652 117.518 168.634 117.602H163.636C163.692 118.218 163.934 118.694 164.364 119.03C164.793 119.357 165.32 119.52 165.946 119.52C166.3 119.52 166.632 119.473 166.94 119.38C167.248 119.277 167.56 119.137 167.878 118.96L168.424 119.968C168.05 120.201 167.635 120.393 167.178 120.542C166.72 120.691 166.24 120.766 165.736 120.766C165.213 120.766 164.723 120.687 164.266 120.528C163.808 120.36 163.412 120.122 163.076 119.814C162.74 119.506 162.474 119.133 162.278 118.694C162.082 118.246 161.984 117.737 161.984 117.168ZM167.22 116.51C167.22 115.978 167.08 115.563 166.8 115.264C166.52 114.956 166.104 114.802 165.554 114.802C165.087 114.802 164.672 114.947 164.308 115.236C163.944 115.525 163.715 115.95 163.622 116.51H167.22ZM170.504 110.714H174.284V118.176C174.284 118.643 174.401 118.974 174.634 119.17C174.868 119.357 175.162 119.45 175.516 119.45C175.852 119.45 176.244 119.361 176.692 119.184L177.07 120.374C176.744 120.486 176.436 120.579 176.146 120.654C175.866 120.729 175.526 120.766 175.124 120.766C174.312 120.766 173.701 120.533 173.29 120.066C172.88 119.599 172.674 118.941 172.674 118.092V111.988H170.504V110.714ZM178.899 110.714H182.679V118.176C182.679 118.643 182.795 118.974 183.029 119.17C183.262 119.357 183.556 119.45 183.911 119.45C184.247 119.45 184.639 119.361 185.087 119.184L185.465 120.374C185.138 120.486 184.83 120.579 184.541 120.654C184.261 120.729 183.92 120.766 183.519 120.766C182.707 120.766 182.095 120.533 181.685 120.066C181.274 119.599 181.069 118.941 181.069 118.092V111.988H178.899V110.714ZM187.041 117.168C187.041 116.599 187.135 116.09 187.321 115.642C187.517 115.194 187.774 114.816 188.091 114.508C188.409 114.2 188.777 113.967 189.197 113.808C189.617 113.64 190.051 113.556 190.499 113.556C190.947 113.556 191.381 113.64 191.801 113.808C192.221 113.967 192.59 114.2 192.907 114.508C193.225 114.816 193.477 115.194 193.663 115.642C193.859 116.09 193.957 116.599 193.957 117.168C193.957 117.737 193.859 118.246 193.663 118.694C193.477 119.142 193.225 119.52 192.907 119.828C192.59 120.136 192.221 120.369 191.801 120.528C191.381 120.687 190.947 120.766 190.499 120.766C190.051 120.766 189.617 120.687 189.197 120.528C188.777 120.369 188.409 120.136 188.091 119.828C187.774 119.52 187.517 119.142 187.321 118.694C187.135 118.246 187.041 117.737 187.041 117.168ZM188.707 117.168C188.707 117.859 188.866 118.414 189.183 118.834C189.501 119.245 189.939 119.45 190.499 119.45C191.059 119.45 191.498 119.245 191.815 118.834C192.133 118.414 192.291 117.859 192.291 117.168C192.291 116.468 192.133 115.913 191.815 115.502C191.498 115.082 191.059 114.872 190.499 114.872C189.939 114.872 189.501 115.082 189.183 115.502C188.866 115.913 188.707 116.468 188.707 117.168ZM204.782 111.442H210.606V112.814H206.406V115.404H209.976V116.776H206.406V120.598H204.782V111.442ZM212.477 118.75C212.477 118.367 212.566 118.031 212.743 117.742C212.92 117.443 213.2 117.191 213.583 116.986C213.966 116.781 214.456 116.613 215.053 116.482C215.65 116.351 216.374 116.258 217.223 116.202C217.195 115.81 217.055 115.488 216.803 115.236C216.551 114.984 216.145 114.858 215.585 114.858C215.193 114.858 214.806 114.933 214.423 115.082C214.05 115.222 213.686 115.39 213.331 115.586L212.743 114.508C213.163 114.265 213.644 114.046 214.185 113.85C214.726 113.654 215.291 113.556 215.879 113.556C216.84 113.556 217.573 113.813 218.077 114.326C218.581 114.83 218.833 115.563 218.833 116.524V120.598H217.517L217.391 119.744H217.349C216.985 120.024 216.579 120.267 216.131 120.472C215.692 120.668 215.24 120.766 214.773 120.766C214.437 120.766 214.129 120.715 213.849 120.612C213.569 120.519 213.326 120.383 213.121 120.206C212.916 120.029 212.757 119.819 212.645 119.576C212.533 119.324 212.477 119.049 212.477 118.75ZM214.031 118.624C214.031 118.932 214.148 119.156 214.381 119.296C214.624 119.436 214.918 119.506 215.263 119.506C215.608 119.506 215.94 119.431 216.257 119.282C216.584 119.123 216.906 118.918 217.223 118.666V117.21C216.607 117.257 216.094 117.322 215.683 117.406C215.272 117.481 214.946 117.579 214.703 117.7C214.46 117.821 214.288 117.961 214.185 118.12C214.082 118.269 214.031 118.437 214.031 118.624ZM220.899 117.168C220.899 116.599 221.002 116.09 221.207 115.642C221.422 115.194 221.707 114.816 222.061 114.508C222.416 114.2 222.831 113.967 223.307 113.808C223.783 113.64 224.283 113.556 224.805 113.556C225.365 113.556 225.855 113.649 226.275 113.836C226.705 114.023 227.064 114.251 227.353 114.522L226.583 115.53C226.313 115.315 226.037 115.152 225.757 115.04C225.487 114.928 225.197 114.872 224.889 114.872C224.199 114.872 223.639 115.082 223.209 115.502C222.78 115.913 222.565 116.468 222.565 117.168C222.565 117.513 222.621 117.826 222.733 118.106C222.845 118.386 222.999 118.629 223.195 118.834C223.401 119.03 223.643 119.184 223.923 119.296C224.203 119.399 224.511 119.45 224.847 119.45C225.239 119.45 225.594 119.375 225.911 119.226C226.238 119.077 226.537 118.899 226.807 118.694L227.479 119.73C227.087 120.075 226.649 120.337 226.163 120.514C225.678 120.682 225.188 120.766 224.693 120.766C224.152 120.766 223.648 120.687 223.181 120.528C222.724 120.369 222.323 120.136 221.977 119.828C221.641 119.52 221.375 119.142 221.179 118.694C220.993 118.246 220.899 117.737 220.899 117.168ZM230.932 114.998H229.098V113.794L231.002 113.724L231.212 111.848H232.542V113.724H235.678V114.998H232.542V117.826C232.542 118.395 232.659 118.815 232.892 119.086C233.125 119.347 233.536 119.478 234.124 119.478C234.423 119.478 234.693 119.455 234.936 119.408C235.179 119.352 235.412 119.282 235.636 119.198L235.944 120.374C235.636 120.477 235.295 120.565 234.922 120.64C234.549 120.724 234.152 120.766 233.732 120.766C233.209 120.766 232.771 120.696 232.416 120.556C232.061 120.416 231.772 120.22 231.548 119.968C231.333 119.707 231.175 119.394 231.072 119.03C230.979 118.666 230.932 118.265 230.932 117.826V114.998ZM237.409 117.168C237.409 116.599 237.502 116.09 237.689 115.642C237.885 115.194 238.141 114.816 238.459 114.508C238.776 114.2 239.145 113.967 239.565 113.808C239.985 113.64 240.419 113.556 240.867 113.556C241.315 113.556 241.749 113.64 242.169 113.808C242.589 113.967 242.957 114.2 243.275 114.508C243.592 114.816 243.844 115.194 244.031 115.642C244.227 116.09 244.325 116.599 244.325 117.168C244.325 117.737 244.227 118.246 244.031 118.694C243.844 119.142 243.592 119.52 243.275 119.828C242.957 120.136 242.589 120.369 242.169 120.528C241.749 120.687 241.315 120.766 240.867 120.766C240.419 120.766 239.985 120.687 239.565 120.528C239.145 120.369 238.776 120.136 238.459 119.828C238.141 119.52 237.885 119.142 237.689 118.694C237.502 118.246 237.409 117.737 237.409 117.168ZM239.075 117.168C239.075 117.859 239.233 118.414 239.551 118.834C239.868 119.245 240.307 119.45 240.867 119.45C241.427 119.45 241.865 119.245 242.183 118.834C242.5 118.414 242.659 117.859 242.659 117.168C242.659 116.468 242.5 115.913 242.183 115.502C241.865 115.082 241.427 114.872 240.867 114.872C240.307 114.872 239.868 115.082 239.551 115.502C239.233 115.913 239.075 116.468 239.075 117.168ZM246.881 113.724H248.211L248.351 115.278H248.393C248.748 114.718 249.172 114.293 249.667 114.004C250.171 113.705 250.722 113.556 251.319 113.556C251.599 113.556 251.837 113.579 252.033 113.626C252.238 113.663 252.444 113.733 252.649 113.836L252.313 115.194C252.089 115.119 251.888 115.068 251.711 115.04C251.543 115.003 251.328 114.984 251.067 114.984C250.591 114.984 250.134 115.119 249.695 115.39C249.256 115.661 248.86 116.132 248.505 116.804V120.598H246.881V113.724ZM256.9 112.814L256.858 111.218H258.454L258.412 112.814L258.188 117.182H257.124L256.9 112.814ZM256.438 119.506C256.438 119.133 256.554 118.834 256.788 118.61C257.021 118.386 257.31 118.274 257.656 118.274C258.001 118.274 258.29 118.386 258.524 118.61C258.757 118.834 258.874 119.133 258.874 119.506C258.874 119.889 258.757 120.197 258.524 120.43C258.29 120.654 258.001 120.766 257.656 120.766C257.31 120.766 257.021 120.654 256.788 120.43C256.554 120.197 256.438 119.889 256.438 119.506ZM265.112 112.786L265.07 110.994H267.03L266.988 112.786L266.568 116.02H265.532L265.112 112.786ZM54.0589 145.844C54.3762 145.844 54.6375 145.825 54.8429 145.788C55.0482 145.751 55.2115 145.685 55.3329 145.592C55.4542 145.508 55.5335 145.396 55.5709 145.256C55.6175 145.116 55.6409 144.939 55.6409 144.724C55.6409 144.313 55.6269 143.921 55.5989 143.548C55.5802 143.175 55.5709 142.764 55.5709 142.316C55.5709 141.821 55.6642 141.457 55.8509 141.224C56.0469 140.981 56.3969 140.818 56.9009 140.734V140.678C56.3969 140.594 56.0469 140.435 55.8509 140.202C55.6642 139.959 55.5709 139.591 55.5709 139.096C55.5709 138.667 55.5802 138.256 55.5989 137.864C55.6269 137.472 55.6409 137.08 55.6409 136.688C55.6409 136.483 55.6175 136.31 55.5709 136.17C55.5335 136.021 55.4542 135.904 55.3329 135.82C55.2115 135.727 55.0482 135.661 54.8429 135.624C54.6375 135.587 54.3762 135.568 54.0589 135.568H53.4149V134.686H54.3809C54.8289 134.686 55.2115 134.719 55.5289 134.784C55.8555 134.84 56.1262 134.943 56.3409 135.092C56.5555 135.241 56.7142 135.442 56.8169 135.694C56.9195 135.937 56.9709 136.245 56.9709 136.618C56.9709 137.103 56.9475 137.542 56.9009 137.934C56.8542 138.317 56.8309 138.727 56.8309 139.166C56.8309 139.297 56.8589 139.423 56.9149 139.544C56.9709 139.665 57.0735 139.777 57.2229 139.88C57.3722 139.973 57.5729 140.053 57.8249 140.118C58.0862 140.183 58.4129 140.216 58.8049 140.216V141.196C58.4129 141.196 58.0862 141.229 57.8249 141.294C57.5729 141.359 57.3722 141.443 57.2229 141.546C57.0735 141.639 56.9709 141.751 56.9149 141.882C56.8589 142.003 56.8309 142.125 56.8309 142.246C56.8309 142.479 56.8355 142.699 56.8449 142.904C56.8635 143.1 56.8822 143.296 56.9009 143.492C56.9195 143.688 56.9335 143.893 56.9429 144.108C56.9615 144.313 56.9709 144.542 56.9709 144.794C56.9709 145.167 56.9195 145.475 56.8169 145.718C56.7142 145.97 56.5555 146.171 56.3409 146.32C56.1262 146.469 55.8555 146.572 55.5289 146.628C55.2115 146.693 54.8289 146.726 54.3809 146.726H53.4149V145.844H54.0589ZM37.2698 170.844C37.5871 170.844 37.8485 170.825 38.0538 170.788C38.2591 170.751 38.4225 170.685 38.5438 170.592C38.6651 170.508 38.7445 170.396 38.7818 170.256C38.8285 170.116 38.8518 169.939 38.8518 169.724C38.8518 169.313 38.8378 168.921 38.8098 168.548C38.7911 168.175 38.7818 167.764 38.7818 167.316C38.7818 166.821 38.8751 166.457 39.0618 166.224C39.2578 165.981 39.6078 165.818 40.1118 165.734V165.678C39.6078 165.594 39.2578 165.435 39.0618 165.202C38.8751 164.959 38.7818 164.591 38.7818 164.096C38.7818 163.667 38.7911 163.256 38.8098 162.864C38.8378 162.472 38.8518 162.08 38.8518 161.688C38.8518 161.483 38.8285 161.31 38.7818 161.17C38.7445 161.021 38.6651 160.904 38.5438 160.82C38.4225 160.727 38.2591 160.661 38.0538 160.624C37.8485 160.587 37.5871 160.568 37.2698 160.568H36.6258V159.686H37.5918C38.0398 159.686 38.4225 159.719 38.7398 159.784C39.0665 159.84 39.3371 159.943 39.5518 160.092C39.7665 160.241 39.9251 160.442 40.0278 160.694C40.1305 160.937 40.1818 161.245 40.1818 161.618C40.1818 162.103 40.1585 162.542 40.1118 162.934C40.0651 163.317 40.0418 163.727 40.0418 164.166C40.0418 164.297 40.0698 164.423 40.1258 164.544C40.1818 164.665 40.2845 164.777 40.4338 164.88C40.5831 164.973 40.7838 165.053 41.0358 165.118C41.2971 165.183 41.6238 165.216 42.0158 165.216V166.196C41.6238 166.196 41.2971 166.229 41.0358 166.294C40.7838 166.359 40.5831 166.443 40.4338 166.546C40.2845 166.639 40.1818 166.751 40.1258 166.882C40.0698 167.003 40.0418 167.125 40.0418 167.246C40.0418 167.479 40.0465 167.699 40.0558 167.904C40.0745 168.1 40.0931 168.296 40.1118 168.492C40.1305 168.688 40.1445 168.893 40.1538 169.108C40.1725 169.313 40.1818 169.542 40.1818 169.794C40.1818 170.167 40.1305 170.475 40.0278 170.718C39.9251 170.97 39.7665 171.171 39.5518 171.32C39.3371 171.469 39.0665 171.572 38.7398 171.628C38.4225 171.693 38.0398 171.726 37.5918 171.726H36.6258V170.844H37.2698ZM45.3283 171.334C46.215 170.531 46.8637 169.677 47.2743 168.772C47.685 167.867 47.8903 166.845 47.8903 165.706C47.8903 164.567 47.685 163.545 47.2743 162.64C46.8637 161.735 46.215 160.881 45.3283 160.078L46.2243 159.336C47.167 160.12 47.909 161.044 48.4503 162.108C49.001 163.172 49.2763 164.371 49.2763 165.706C49.2763 167.041 49.001 168.24 48.4503 169.304C47.909 170.368 47.167 171.292 46.2243 172.076L45.3283 171.334Z" fill="#455285"/>
<defs>
<filter id="filter0_d" x="0" y="0" width="479" height="339.772" filterUnits="userSpaceOnUse" color-interpolation-filters="sRGB">
<feFlood flood-opacity="0" result="BackgroundImageFix"/>
<feColorMatrix in="SourceAlpha" type="matrix" values="0 0 0 0 0 0 0 0 0 0 0 0 0 0 0 0 0 0 127 0"/>
<feOffset dy="5"/>
<feGaussianBlur stdDeviation="9"/>
<feColorMatrix type="matrix" values="0 0 0 0 0 0 0 0 0 0 0 0 0 0 0 0 0 0 0.07 0"/>
<feBlend mode="normal" in2="BackgroundImageFix" result="effect1_dropShadow"/>
<feBlend mode="normal" in="SourceGraphic" in2="effect1_dropShadow" result="shape"/>
</filter>
</defs>
</svg>
