<svg width="1500" height="1200" viewBox="0 0 1500 1200" fill="none" xmlns="http://www.w3.org/2000/svg">
<path d="M1482.14 0H17.8571C7.99492 0 0 7.94761 0 17.7515V1182.25C0 1192.05 7.99492 1200 17.8571 1200H1482.14C1492.01 1200 1500 1192.05 1500 1182.25V17.7515C1500 7.94761 1492.01 0 1482.14 0Z" fill="white"/>
<rect x="308" y="220" width="215" height="52" rx="5" transform="rotate(-180 308 220)" fill="#CBD5E1"/>
<rect x="1376" y="201.438" width="172" height="34.4386" rx="5" transform="rotate(-180 1376 201.438)" fill="#CBD5E1"/>
<rect x="308" y="308" width="215" height="52" rx="5" transform="rotate(-180 308 308)" fill="#E7EDF3"/>
<rect x="1311" y="259.719" width="107" height="34.4386" rx="5" transform="rotate(-180 1311 259.719)" fill="#E7EDF3"/>
<rect x="308" y="396" width="215" height="52" rx="5" transform="rotate(-180 308 396)" fill="#E7EDF3"/>
<rect x="1339" y="318" width="135" height="34.4386" rx="5" transform="rotate(-180 1339 318)" fill="#E7EDF3"/>
<rect x="795.622" y="221.071" width="194.622" height="47.0713" rx="5" transform="rotate(-180 795.622 221.071)" fill="#CBD5E1"/>
<rect x="717.134" y="365.243" width="115.868" height="47.0713" rx="5" transform="rotate(-180 717.134 365.243)" fill="#CBD5E1"/>
<rect x="857.443" y="519.13" width="256.177" height="47.0713" rx="5" transform="rotate(-180 857.443 519.13)" fill="#CBD5E1"/>
<rect x="795.888" y="835.956" width="194.622" height="47.0713" rx="5" transform="rotate(-180 795.888 835.956)" fill="#CBD5E1"/>
<rect x="842.959" y="979.886" width="241.693" height="47.0713" rx="5" transform="rotate(-180 842.959 979.886)" fill="#CBD5E1"/>
<rect x="984.174" y="600.6" width="267.039" height="26.2513" rx="5" transform="rotate(-180 984.174 600.6)" fill="#E0EBF8"/>
<rect x="879.168" y="692.026" width="162.034" height="26.2513" rx="5" transform="rotate(-180 879.168 692.026)" fill="#E0EBF8"/>
<rect x="1311" y="74" width="144" height="18" rx="5" transform="rotate(-180 1311 74)" fill="#CBD5E1" fill-opacity="0.6"/>
<g clip-path="url(#clip0_742_924)">
<path d="M171.363 68.7232C170.416 67.4009 168.716 66.7974 167.202 66.7974C164.099 66.7974 161.943 69.7223 161.943 72.8937C161.943 75.4185 163.493 76.9036 165.84 76.9036C167.614 76.8516 169.323 76.221 170.721 75.0998L171.252 79.9913C169.437 81.5555 166.334 82.2359 164.101 82.2359C159.373 82.2359 155.969 78.9086 155.969 73.8476C155.969 67.1116 160.784 61.6572 167.243 61.6572C169.096 61.6572 171.627 62.2178 172.986 63.7413L171.366 68.721L171.363 68.7232Z" fill="#1E293B"/>
<path d="M181.155 62.0276H185.3L184.478 66.9621H180.371C179.941 69.6497 179.167 72.6176 179.167 75.3482C179.167 76.51 179.716 76.8694 180.77 76.8694C181.412 76.8694 182.049 76.7496 182.648 76.5078L182.168 81.5982C180.727 81.9915 179.242 82.2085 177.747 82.2401C174.655 82.2401 172.818 80.7957 172.818 77.5068C172.818 74.0191 173.756 70.3323 174.261 66.9598L175.033 62.0254H175.044L175.434 59.5389C175.495 59.0078 175.522 58.472 175.511 57.9363C175.516 57.5249 175.491 57.1135 175.434 56.7021H181.496C181.585 57.1339 181.624 57.5747 181.61 58.0154C181.605 58.6212 181.555 59.2248 181.455 59.8215L181.152 62.0231L181.155 62.0276Z" fill="#1E293B"/>
<path d="M185.102 81.7949C184.984 81.3383 184.931 80.8659 184.947 80.3912C184.947 79.8125 185.002 79.2339 185.102 78.6642L187.176 64.912C187.249 64.3672 187.29 63.8157 187.292 63.2664C187.297 62.855 187.269 62.4414 187.212 62.0322H193.279C193.37 62.4685 193.409 62.9138 193.398 63.3568C193.393 63.9626 193.343 64.5639 193.243 65.1606L191.171 78.9129C191.101 79.4034 191.06 79.8984 191.053 80.3934C191.046 80.8636 191.085 81.336 191.171 81.7972H185.104L185.102 81.7949ZM191 59.8193C189.357 59.8193 188.027 58.8586 188.027 57.0503C188.027 54.7244 189.826 53.0811 192.057 53.0811C193.744 53.0811 195.03 54.0417 195.03 55.8478C195.039 58.1376 193.238 59.8193 191 59.8193Z" fill="#1E293B"/>
<path d="M202.26 82.2363C197.505 82.2363 193.835 79.3114 193.835 73.8954C193.835 66.9198 198.7 61.6689 205.275 61.6689C210.067 61.6689 213.7 64.6301 213.7 70.055C213.707 77.0148 208.878 82.234 202.26 82.234V82.2363ZM204.526 66.7978C201.48 66.7978 199.733 70.0053 199.733 72.9642C199.733 75.2087 200.849 76.8927 203.039 76.8927C206.085 76.8927 207.831 73.6852 207.831 70.7264C207.838 68.4818 206.725 66.7978 204.535 66.7978H204.528H204.526Z" fill="#1E293B"/>
<path d="M226.371 81.7956C226.253 81.339 226.2 80.8666 226.216 80.3919C226.216 79.8132 226.271 79.2346 226.371 78.6649L227.466 71.4904C227.587 70.8394 227.653 70.1794 227.66 69.5171C227.66 67.8715 227.034 66.9515 225.351 66.9515C222.613 66.9515 221.713 69.6369 221.36 72.0058L219.833 81.7888H213.729L216.32 64.9986C216.393 64.4244 216.432 63.8503 216.436 63.2716C216.441 62.8602 216.416 62.4466 216.359 62.0374H222.376C222.467 62.4737 222.506 62.919 222.494 63.3643C222.487 63.8616 222.449 64.3544 222.376 64.8449H222.414C223.824 62.919 225.898 61.6758 228.286 61.6758C232.117 61.6758 233.998 63.561 233.998 67.4488C233.998 68.362 233.916 69.2752 233.756 70.1726L232.386 78.9136C232.315 79.4041 232.274 79.8991 232.267 80.3941C232.261 80.8643 232.299 81.3367 232.386 81.8001L226.369 81.7933L226.371 81.7956Z" fill="#1E293B"/>
<path d="M145.467 61.7114C145.793 59.7561 145.998 58.1038 148.347 57.7602C149.219 57.6585 149.545 57.62 150.366 57.7195L151.45 52.55C150.125 52.3194 148.723 52.3556 147.537 52.4686C141.602 53.0427 139.958 56.5554 139.145 61.7091H136.07L135.448 66.8244H138.376C138.376 66.8244 136.63 76.7385 136.514 77.4528C136.395 78.1671 135.692 82.0889 135.692 82.0889L142.005 81.9984C142.005 81.9984 141.898 82.0391 142.221 79.9596L144.577 66.8289H148.871L147.072 78.0834C146.949 78.7887 146.656 81.9419 146.656 81.9419L152.698 81.8967C152.739 80.4727 152.784 80.1042 152.907 78.913C153.03 77.7218 154.489 69.8963 154.489 69.8963C154.719 68.4134 155.074 66.2412 155.388 64.5075C155.675 62.9297 155.516 61.7136 155.516 61.7136H145.467V61.7091V61.7114Z" fill="#1E293B"/>
<path d="M122.468 83.0001H107.682C106.723 83.0001 105.819 82.6181 105.139 81.9197L93.8699 70.3735C93.0184 69.5033 92.7657 68.2013 93.2256 67.0621C93.6877 65.9206 94.7623 65.1814 95.9665 65.1814H109.774V51.0336C109.774 49.8017 110.493 48.7008 111.604 48.2284C112.699 47.7605 114.001 48.0272 114.839 48.8839L126.113 60.4346C126.791 61.133 127.164 62.0575 127.164 63.0385V78.1877C127.164 80.8414 125.056 83.0001 122.468 83.0001ZM108.269 77.8374H121.997V63.6828L114.798 56.2596V70.4142H101.071L108.269 77.8374Z" fill="#2563EB"/>
</g>
<circle cx="1366" cy="65" r="27" fill="#CBD5E1"/>
<path d="M431 250.143V180.857C431 173.204 437.169 167 444.778 167H476.369C478.196 167 479.948 167.73 481.24 169.029L493 180.857H541.222C548.832 180.857 555 187.061 555 194.714V250.143C555 257.796 548.832 264 541.222 264H444.778C437.169 264 431 257.796 431 250.143Z" fill="#2563E0" fill-opacity="0.4" stroke="#2563E0" stroke-width="10" stroke-linecap="round" stroke-linejoin="round"/>
<path d="M431 391.143V321.857C431 314.204 437.169 308 444.778 308H476.369C478.196 308 479.948 308.73 481.24 310.029L493 321.857H541.222C548.832 321.857 555 328.061 555 335.714V391.143C555 398.796 548.832 405 541.222 405H444.778C437.169 405 431 398.796 431 391.143Z" fill="#2563E0" fill-opacity="0.4" stroke="#2563E0" stroke-width="10" stroke-linecap="round" stroke-linejoin="round"/>
<path d="M431 543.143V473.857C431 466.204 437.169 460 444.778 460H476.369C478.196 460 479.948 460.73 481.24 462.029L493 473.857H541.222C548.832 473.857 555 480.061 555 487.714V543.143C555 550.796 548.832 557 541.222 557H444.778C437.169 557 431 550.796 431 543.143Z" fill="#2563E0" fill-opacity="0.4" stroke="#2563E0" stroke-width="10" stroke-linecap="round" stroke-linejoin="round"/>
<path d="M431 862.143V792.857C431 785.204 437.169 779 444.778 779H476.369C478.196 779 479.948 779.73 481.24 781.029L493 792.857H541.222C548.832 792.857 555 799.061 555 806.714V862.143C555 869.796 548.832 876 541.222 876H444.778C437.169 876 431 869.796 431 862.143Z" fill="#2563E0" fill-opacity="0.4" stroke="#2563E0" stroke-width="10" stroke-linecap="round" stroke-linejoin="round"/>
<path d="M601 623V578C601 573.029 605.029 569 610 569H630.636C631.829 569 632.974 569.474 633.818 570.318L641.5 578H673C677.971 578 682 582.029 682 587V623C682 627.971 677.971 632 673 632H610C605.029 632 601 627.971 601 623Z" fill="#2563E0" fill-opacity="0.4" stroke="#2563E0" stroke-width="10" stroke-linecap="round" stroke-linejoin="round"/>
<path d="M431 1003.14V933.857C431 926.204 437.169 920 444.778 920H476.369C478.196 920 479.948 920.73 481.24 922.029L493 933.857H541.222C548.832 933.857 555 940.061 555 947.714V1003.14C555 1010.8 548.832 1017 541.222 1017H444.778C437.169 1017 431 1010.8 431 1003.14Z" fill="#2563E0" fill-opacity="0.4" stroke="#2563E0" stroke-width="10" stroke-linecap="round" stroke-linejoin="round"/>
<path d="M601 714.857V669.143C601 664.093 605.029 660 610 660H630.636C631.829 660 632.974 660.482 633.818 661.339L641.5 669.143H673C677.971 669.143 682 673.236 682 678.286V714.857C682 719.907 677.971 724 673 724H610C605.029 724 601 719.907 601 714.857Z" fill="#2563E0" fill-opacity="0.4" stroke="#2563E0" stroke-width="10" stroke-linecap="round" stroke-linejoin="round"/>
<line x1="3" y1="119" x2="1500" y2="119" stroke="#DCE6F4" stroke-width="2"/>
<defs>
<clipPath id="clip0_742_924">
<rect width="141" height="35" fill="white" transform="translate(93 48)"/>
</clipPath>
</defs>
</svg>
