<svg width="1500" height="1200" viewBox="0 0 1500 1200" fill="none" xmlns="http://www.w3.org/2000/svg">
<rect width="1500" height="1200" rx="15" fill="white"/>
<rect x="628" y="266" width="823" height="872" rx="15" fill="#F4F6F9"/>
<rect x="72" y="266" width="496" height="136" rx="15" fill="#F4F6F9"/>
<rect x="72" y="154" width="908" height="60" rx="15" fill="#E9EFF7"/>
<rect x="96" y="294" width="452" height="14" rx="7" fill="#CCDAEF"/>
<rect x="96" y="348" width="452" height="14" rx="7" fill="#CCDAEF"/>
<rect x="96" y="294" width="191" height="14" rx="7" fill="#0075FF"/>
<rect x="96" y="348" width="141" height="14" rx="7" fill="#0075FF"/>
<rect x="72" y="62" width="844" height="60" rx="15" fill="#E9EFF7"/>
<rect x="1082.09" y="189.176" width="197.015" height="34.532" rx="15" fill="#E8EDF4"/>
<rect x="1302.99" y="189.176" width="147.761" height="34.532" rx="15" fill="#E8EDF4"/>
<rect x="1082" y="69" width="368.657" height="93.0863" rx="15" fill="#FF7D05"/>
<rect x="72" y="434" width="496" height="137" rx="15" fill="#F4F6F9"/>
<rect x="72" y="611" width="496" height="57" rx="15" fill="#F4F6F9"/>
<rect x="72" y="700" width="496" height="57" rx="15" fill="#F4F6F9"/>
<rect x="72" y="797" width="496" height="57" rx="15" fill="#F4F6F9"/>
<rect x="72" y="886" width="496" height="141" rx="15" fill="#F4F6F9"/>
<rect x="96" y="462" width="452" height="14" rx="7" fill="#CCDAEF"/>
<rect x="96" y="634" width="452" height="13" rx="6.5" fill="#CCDAEF"/>
<rect x="94" y="914" width="452" height="14" rx="7" fill="#CCDAEF"/>
<rect x="96" y="462" width="116" height="14" rx="7" fill="#0075FF"/>
<rect x="96" y="634" width="330" height="13" rx="6.5" fill="#0075FF"/>
<rect x="94" y="914" width="161" height="14" rx="7" fill="#0075FF"/>
<path d="M1205.96 129.015C1207.67 129.015 1209.2 128.77 1210.56 128.28C1211.91 127.79 1213.06 127.078 1213.99 126.144C1214.94 125.21 1215.66 124.076 1216.15 122.743C1216.65 121.41 1216.9 119.906 1216.9 118.231V115.395H1206.23V119.24H1211.87L1211.86 119.599C1211.81 120.613 1211.54 121.501 1211.04 122.265C1210.55 123.017 1209.87 123.603 1209 124.025C1208.15 124.435 1207.16 124.64 1206.05 124.64C1205.02 124.64 1204.09 124.446 1203.26 124.059C1202.44 123.672 1201.73 123.113 1201.14 122.384C1200.56 121.655 1200.12 120.766 1199.81 119.718C1199.5 118.659 1199.35 117.462 1199.35 116.129V116.112C1199.35 114.369 1199.6 112.882 1200.12 111.652C1200.64 110.421 1201.39 109.487 1202.35 108.849C1203.33 108.2 1204.5 107.875 1205.86 107.875C1207.25 107.875 1208.42 108.205 1209.38 108.866C1210.33 109.527 1211.02 110.456 1211.43 111.652L1211.5 111.823H1216.68L1216.62 111.583C1216.35 110.034 1215.74 108.65 1214.78 107.431C1213.83 106.212 1212.6 105.255 1211.09 104.56C1209.57 103.853 1207.82 103.5 1205.84 103.5C1203.44 103.5 1201.35 104.007 1199.59 105.021C1197.83 106.035 1196.48 107.488 1195.52 109.379C1194.56 111.259 1194.08 113.52 1194.08 116.164V116.181C1194.08 118.186 1194.36 119.98 1194.9 121.564C1195.45 123.148 1196.24 124.498 1197.26 125.614C1198.29 126.719 1199.53 127.562 1200.99 128.144C1202.46 128.725 1204.11 129.015 1205.96 129.015ZM1227.53 128.964C1228.84 128.964 1229.98 128.793 1230.95 128.451C1231.93 128.109 1232.75 127.654 1233.42 127.084C1234.11 126.514 1234.65 125.888 1235.05 125.204C1235.45 124.521 1235.71 123.843 1235.85 123.17L1235.9 122.982H1231.32L1231.29 123.085C1231.17 123.427 1230.96 123.763 1230.64 124.093C1230.32 124.424 1229.91 124.697 1229.41 124.914C1228.91 125.13 1228.31 125.238 1227.63 125.238C1226.76 125.238 1226.02 125.05 1225.39 124.674C1224.77 124.287 1224.28 123.734 1223.94 123.017C1223.61 122.299 1223.44 121.433 1223.44 120.419V118.488C1223.44 117.44 1223.61 116.557 1223.94 115.839C1224.28 115.11 1224.75 114.557 1225.34 114.181C1225.94 113.805 1226.63 113.617 1227.41 113.617C1228.18 113.617 1228.86 113.799 1229.44 114.164C1230.03 114.529 1230.5 115.076 1230.83 115.805C1231.16 116.522 1231.32 117.417 1231.32 118.488V120.402L1233.7 117.462H1220.97V120.607H1236.06V119.069C1236.06 117.223 1235.7 115.611 1234.98 114.232C1234.27 112.854 1233.26 111.789 1231.95 111.037C1230.66 110.273 1229.11 109.892 1227.32 109.892C1225.53 109.892 1223.98 110.285 1222.66 111.071C1221.35 111.846 1220.33 112.951 1219.6 114.386C1218.88 115.81 1218.52 117.497 1218.52 119.445V119.462C1218.52 121.41 1218.88 123.096 1219.6 124.521C1220.33 125.945 1221.36 127.044 1222.71 127.819C1224.05 128.582 1225.66 128.964 1227.53 128.964ZM1237.94 128.588H1242.93V118.061C1242.93 117.252 1243.07 116.545 1243.37 115.941C1243.68 115.338 1244.11 114.87 1244.65 114.54C1245.2 114.198 1245.84 114.027 1246.58 114.027C1247.7 114.027 1248.54 114.358 1249.1 115.019C1249.67 115.668 1249.95 116.591 1249.95 117.787V128.588H1254.94V116.762C1254.94 114.608 1254.39 112.928 1253.28 111.72C1252.19 110.501 1250.63 109.892 1248.62 109.892C1247.24 109.892 1246.08 110.194 1245.15 110.797C1244.21 111.401 1243.51 112.227 1243.03 113.275H1242.93V110.268H1237.94V128.588ZM1265.74 128.964C1267.05 128.964 1268.19 128.793 1269.16 128.451C1270.14 128.109 1270.97 127.654 1271.64 127.084C1272.32 126.514 1272.86 125.888 1273.26 125.204C1273.66 124.521 1273.93 123.843 1274.06 123.17L1274.12 122.982H1269.54L1269.5 123.085C1269.39 123.427 1269.17 123.763 1268.85 124.093C1268.53 124.424 1268.12 124.697 1267.62 124.914C1267.12 125.13 1266.53 125.238 1265.84 125.238C1264.98 125.238 1264.23 125.05 1263.61 124.674C1262.98 124.287 1262.5 123.734 1262.15 123.017C1261.82 122.299 1261.66 121.433 1261.66 120.419V118.488C1261.66 117.44 1261.82 116.557 1262.15 115.839C1262.5 115.11 1262.96 114.557 1263.55 114.181C1264.16 113.805 1264.85 113.617 1265.62 113.617C1266.4 113.617 1267.08 113.799 1267.66 114.164C1268.25 114.529 1268.71 115.076 1269.04 115.805C1269.37 116.522 1269.54 117.417 1269.54 118.488V120.402L1271.91 117.462H1259.18V120.607H1274.27V119.069C1274.27 117.223 1273.91 115.611 1273.19 114.232C1272.49 112.854 1271.48 111.789 1270.17 111.037C1268.87 110.273 1267.33 109.892 1265.54 109.892C1263.75 109.892 1262.19 110.285 1260.87 111.071C1259.56 111.846 1258.54 112.951 1257.81 114.386C1257.09 115.81 1256.74 117.497 1256.74 119.445V119.462C1256.74 121.41 1257.09 123.096 1257.81 124.521C1258.54 125.945 1259.58 127.044 1260.92 127.819C1262.27 128.582 1263.87 128.964 1265.74 128.964ZM1276.15 128.588H1281.14V118.334C1281.14 117.445 1281.29 116.693 1281.6 116.078C1281.91 115.463 1282.35 114.996 1282.94 114.677C1283.52 114.358 1284.22 114.198 1285.04 114.198C1285.4 114.198 1285.74 114.227 1286.06 114.284C1286.38 114.329 1286.64 114.392 1286.85 114.472V110.08C1286.67 110.023 1286.45 109.977 1286.2 109.943C1285.95 109.909 1285.69 109.892 1285.41 109.892C1284.34 109.892 1283.45 110.205 1282.73 110.832C1282.01 111.458 1281.52 112.335 1281.24 113.463H1281.14V110.268H1276.15V128.588ZM1293.21 128.878C1294.02 128.878 1294.76 128.759 1295.45 128.52C1296.13 128.269 1296.74 127.921 1297.27 127.477C1297.82 127.021 1298.27 126.48 1298.61 125.854H1298.71V128.588H1303.7V116.027C1303.7 114.796 1303.38 113.72 1302.73 112.797C1302.09 111.874 1301.19 111.162 1300.03 110.661C1298.86 110.148 1297.49 109.892 1295.91 109.892C1294.3 109.892 1292.91 110.142 1291.74 110.644C1290.58 111.133 1289.66 111.817 1289 112.694C1288.35 113.572 1287.98 114.574 1287.89 115.702L1287.87 115.907H1292.44L1292.47 115.753C1292.6 115.161 1292.93 114.671 1293.48 114.284C1294.03 113.896 1294.77 113.703 1295.7 113.703C1296.68 113.703 1297.43 113.942 1297.94 114.42C1298.45 114.888 1298.71 115.526 1298.71 116.334V121.889C1298.71 122.527 1298.54 123.102 1298.2 123.615C1297.87 124.116 1297.41 124.515 1296.81 124.811C1296.23 125.096 1295.57 125.238 1294.83 125.238C1293.96 125.238 1293.28 125.05 1292.76 124.674C1292.25 124.287 1291.99 123.757 1291.99 123.085V123.051C1291.99 122.401 1292.24 121.883 1292.75 121.496C1293.25 121.097 1293.98 120.869 1294.93 120.812L1301.32 120.402V117.292L1294.18 117.736C1292.67 117.838 1291.38 118.118 1290.32 118.573C1289.26 119.029 1288.45 119.656 1287.89 120.453C1287.33 121.239 1287.05 122.191 1287.05 123.307V123.341C1287.05 124.412 1287.31 125.369 1287.82 126.212C1288.35 127.044 1289.07 127.699 1289.99 128.178C1290.92 128.645 1291.99 128.878 1293.21 128.878ZM1313.51 128.964C1314.03 128.964 1314.5 128.941 1314.89 128.896C1315.3 128.861 1315.65 128.821 1315.92 128.776V125.119C1315.77 125.141 1315.61 125.164 1315.44 125.187C1315.27 125.198 1315.07 125.204 1314.84 125.204C1314.09 125.204 1313.52 125.039 1313.13 124.708C1312.76 124.367 1312.57 123.769 1312.57 122.914V114.027H1315.92V110.268H1312.57V105.79H1307.53V110.268H1304.98V114.027H1307.53V123.461C1307.53 125.421 1308.02 126.828 1309 127.682C1309.98 128.537 1311.48 128.964 1313.51 128.964ZM1326.07 128.964C1327.38 128.964 1328.52 128.793 1329.49 128.451C1330.47 128.109 1331.3 127.654 1331.97 127.084C1332.65 126.514 1333.19 125.888 1333.59 125.204C1333.99 124.521 1334.26 123.843 1334.39 123.17L1334.45 122.982H1329.87L1329.83 123.085C1329.72 123.427 1329.5 123.763 1329.18 124.093C1328.86 124.424 1328.45 124.697 1327.95 124.914C1327.45 125.13 1326.86 125.238 1326.17 125.238C1325.31 125.238 1324.56 125.05 1323.94 124.674C1323.31 124.287 1322.83 123.734 1322.48 123.017C1322.15 122.299 1321.99 121.433 1321.99 120.419V118.488C1321.99 117.44 1322.15 116.557 1322.48 115.839C1322.83 115.11 1323.29 114.557 1323.88 114.181C1324.49 113.805 1325.18 113.617 1325.95 113.617C1326.73 113.617 1327.41 113.799 1327.99 114.164C1328.58 114.529 1329.04 115.076 1329.37 115.805C1329.7 116.522 1329.87 117.417 1329.87 118.488V120.402L1332.24 117.462H1319.51V120.607H1334.6V119.069C1334.6 117.223 1334.24 115.611 1333.52 114.232C1332.82 112.854 1331.81 111.789 1330.5 111.037C1329.2 110.273 1327.66 109.892 1325.87 109.892C1324.08 109.892 1322.52 110.285 1321.2 111.071C1319.89 111.846 1318.87 112.951 1318.14 114.386C1317.42 115.81 1317.07 117.497 1317.07 119.445V119.462C1317.07 121.41 1317.42 123.096 1318.14 124.521C1318.87 125.945 1319.91 127.044 1321.25 127.819C1322.6 128.582 1324.2 128.964 1326.07 128.964Z" fill="white"/>
<rect x="76" y="1068" width="495" height="72" rx="15" fill="#F4F6F9"/>
<rect x="688" y="348" width="724" height="435" rx="15" fill="#D7DCE6"/>
<rect x="688" y="854" width="196" height="131" rx="15" fill="#D7DCE6"/>
<rect x="952" y="854" width="196" height="131" rx="15" fill="#D7DCE6"/>
<rect x="1216" y="854" width="196" height="131" rx="15" fill="#D7DCE6"/>
</svg>
