<svg width="648" height="702" viewBox="0 0 648 702" fill="none" xmlns="http://www.w3.org/2000/svg">
<rect width="648" height="702" rx="15" fill="white"/>
<rect x="72" y="66" width="496" height="89" rx="15" fill="#FF7D05"/>
<path d="M163.798 122H171.899C173.615 122 175.087 121.723 176.315 121.17C177.555 120.605 178.507 119.814 179.171 118.796C179.846 117.778 180.184 116.571 180.184 115.177V115.144C180.184 114.092 179.935 113.151 179.437 112.321C178.95 111.48 178.274 110.805 177.411 110.296C176.548 109.776 175.557 109.477 174.439 109.399V109.3C175.325 109.178 176.116 108.874 176.814 108.387C177.511 107.889 178.059 107.269 178.457 106.527C178.867 105.775 179.071 104.961 179.071 104.087V104.054C179.071 102.825 178.773 101.763 178.175 100.866C177.577 99.9587 176.731 99.2614 175.635 98.7744C174.539 98.2874 173.233 98.0439 171.717 98.0439H163.798V101.763H170.422C171.595 101.763 172.508 102.028 173.161 102.56C173.814 103.08 174.141 103.816 174.141 104.768V104.801C174.141 105.83 173.77 106.632 173.028 107.208C172.298 107.772 171.224 108.055 169.808 108.055H163.798V111.458H170.405C171.424 111.458 172.276 111.585 172.962 111.84C173.659 112.094 174.185 112.476 174.539 112.985C174.893 113.483 175.07 114.098 175.07 114.828V114.861C175.07 115.968 174.689 116.815 173.925 117.401C173.161 117.977 172.06 118.265 170.621 118.265H163.798V122ZM161.291 122H166.305V98.0439H161.291V122ZM187.24 122.282C188.026 122.282 188.751 122.166 189.415 121.934C190.079 121.69 190.671 121.353 191.191 120.921C191.722 120.478 192.154 119.952 192.486 119.344H192.586V122H197.433V109.798C197.433 108.603 197.118 107.557 196.487 106.66C195.867 105.764 194.993 105.072 193.864 104.585C192.735 104.087 191.401 103.838 189.863 103.838C188.302 103.838 186.952 104.081 185.812 104.568C184.683 105.044 183.798 105.708 183.156 106.561C182.525 107.413 182.165 108.387 182.077 109.482L182.06 109.682H186.493L186.526 109.532C186.648 108.957 186.974 108.481 187.506 108.104C188.037 107.728 188.756 107.54 189.664 107.54C190.616 107.54 191.341 107.772 191.839 108.237C192.337 108.691 192.586 109.311 192.586 110.097V115.492C192.586 116.112 192.42 116.671 192.088 117.169C191.767 117.656 191.318 118.043 190.743 118.331C190.178 118.608 189.537 118.746 188.817 118.746C187.976 118.746 187.306 118.563 186.808 118.198C186.31 117.822 186.061 117.307 186.061 116.654V116.621C186.061 115.99 186.305 115.487 186.792 115.11C187.279 114.723 187.987 114.502 188.917 114.446L195.126 114.048V111.026L188.186 111.458C186.714 111.558 185.464 111.829 184.434 112.271C183.405 112.714 182.619 113.323 182.077 114.098C181.535 114.861 181.263 115.785 181.263 116.87V116.903C181.263 117.944 181.512 118.873 182.01 119.692C182.52 120.5 183.222 121.137 184.119 121.602C185.015 122.055 186.056 122.282 187.24 122.282ZM206.963 122.365C207.472 122.365 207.921 122.343 208.308 122.299C208.706 122.266 209.038 122.227 209.304 122.183V118.63C209.16 118.652 209.005 118.674 208.839 118.696C208.673 118.707 208.48 118.713 208.258 118.713C207.528 118.713 206.974 118.552 206.598 118.231C206.233 117.899 206.05 117.318 206.05 116.488V107.855H209.304V104.203H206.05V99.8535H201.153V104.203H198.679V107.855H201.153V117.02C201.153 118.923 201.629 120.29 202.58 121.12C203.532 121.95 204.993 122.365 206.963 122.365ZM219.199 122.365C220.782 122.365 222.16 122.066 223.333 121.469C224.517 120.86 225.447 120.041 226.122 119.012C226.797 117.982 227.174 116.82 227.251 115.525V115.426H222.735L222.719 115.575C222.553 116.472 222.171 117.197 221.573 117.75C220.987 118.292 220.206 118.563 219.233 118.563C218.436 118.563 217.744 118.353 217.157 117.933C216.582 117.501 216.134 116.881 215.813 116.073C215.503 115.254 215.348 114.264 215.348 113.102V113.085C215.348 111.956 215.503 110.988 215.813 110.18C216.134 109.361 216.582 108.735 217.157 108.304C217.744 107.861 218.43 107.64 219.216 107.64C220.223 107.64 221.02 107.927 221.607 108.503C222.193 109.067 222.558 109.776 222.702 110.628L222.735 110.777H227.234V110.661C227.168 109.377 226.797 108.221 226.122 107.191C225.458 106.162 224.534 105.349 223.35 104.751C222.165 104.142 220.765 103.838 219.149 103.838C217.379 103.838 215.835 104.214 214.518 104.967C213.212 105.708 212.199 106.771 211.48 108.154C210.771 109.527 210.417 111.165 210.417 113.068V113.085C210.417 114.989 210.771 116.638 211.48 118.032C212.188 119.416 213.201 120.484 214.518 121.236C215.835 121.989 217.395 122.365 219.199 122.365ZM229.028 122H233.876V111.807C233.876 111.032 234.02 110.351 234.307 109.765C234.606 109.167 235.016 108.702 235.536 108.37C236.067 108.027 236.687 107.855 237.395 107.855C238.502 107.855 239.349 108.21 239.935 108.918C240.533 109.615 240.832 110.584 240.832 111.823V122H245.679V110.827C245.679 109.388 245.425 108.149 244.916 107.108C244.418 106.068 243.704 105.266 242.774 104.701C241.844 104.126 240.732 103.838 239.437 103.838C238.109 103.838 236.98 104.137 236.051 104.734C235.132 105.321 234.44 106.168 233.975 107.274H233.876V98.0439H229.028V122ZM254.596 122H259.609V98.0439H254.596V122ZM262.499 122H267.346V111.259C267.346 110.584 267.474 109.992 267.728 109.482C267.994 108.973 268.359 108.575 268.824 108.287C269.289 107.999 269.826 107.855 270.434 107.855C271.032 107.855 271.541 107.977 271.962 108.221C272.393 108.453 272.725 108.796 272.958 109.25C273.19 109.704 273.306 110.252 273.306 110.894V122H277.971V111.176C277.971 110.512 278.099 109.931 278.353 109.433C278.608 108.935 278.962 108.547 279.416 108.271C279.881 107.994 280.417 107.855 281.026 107.855C281.657 107.855 282.183 107.977 282.603 108.221C283.035 108.464 283.361 108.824 283.583 109.3C283.815 109.776 283.931 110.357 283.931 111.043V122H288.779V109.831C288.779 108.625 288.536 107.573 288.049 106.677C287.562 105.78 286.881 105.083 286.007 104.585C285.132 104.087 284.114 103.838 282.952 103.838C282.078 103.838 281.27 103.987 280.528 104.286C279.798 104.585 279.161 105.011 278.619 105.564C278.088 106.107 277.689 106.754 277.424 107.507H277.324C277.136 106.721 276.809 106.057 276.345 105.515C275.891 104.972 275.332 104.557 274.668 104.27C274.004 103.982 273.257 103.838 272.427 103.838C271.231 103.838 270.191 104.142 269.305 104.751C268.431 105.36 267.811 106.173 267.446 107.191H267.346V104.203H262.499V122ZM296.466 122.282C297.252 122.282 297.977 122.166 298.641 121.934C299.305 121.69 299.897 121.353 300.417 120.921C300.949 120.478 301.38 119.952 301.712 119.344H301.812V122H306.66V109.798C306.66 108.603 306.344 107.557 305.713 106.66C305.094 105.764 304.219 105.072 303.09 104.585C301.961 104.087 300.628 103.838 299.089 103.838C297.529 103.838 296.179 104.081 295.039 104.568C293.91 105.044 293.024 105.708 292.382 106.561C291.751 107.413 291.392 108.387 291.303 109.482L291.287 109.682H295.719L295.752 109.532C295.874 108.957 296.201 108.481 296.732 108.104C297.263 107.728 297.983 107.54 298.89 107.54C299.842 107.54 300.567 107.772 301.065 108.237C301.563 108.691 301.812 109.311 301.812 110.097V115.492C301.812 116.112 301.646 116.671 301.314 117.169C300.993 117.656 300.545 118.043 299.969 118.331C299.405 118.608 298.763 118.746 298.043 118.746C297.202 118.746 296.533 118.563 296.035 118.198C295.537 117.822 295.288 117.307 295.288 116.654V116.621C295.288 115.99 295.531 115.487 296.018 115.11C296.505 114.723 297.213 114.502 298.143 114.446L304.352 114.048V111.026L297.413 111.458C295.941 111.558 294.69 111.829 293.661 112.271C292.631 112.714 291.846 113.323 291.303 114.098C290.761 114.861 290.49 115.785 290.49 116.87V116.903C290.49 117.944 290.739 118.873 291.237 119.692C291.746 120.5 292.449 121.137 293.345 121.602C294.242 122.055 295.282 122.282 296.466 122.282ZM317.435 128.176C319.217 128.176 320.755 127.894 322.05 127.329C323.356 126.765 324.358 125.979 325.055 124.972C325.763 123.976 326.117 122.819 326.117 121.502V104.203H321.27V107.241H321.17C320.849 106.544 320.423 105.941 319.892 105.432C319.372 104.923 318.763 104.53 318.066 104.253C317.368 103.976 316.599 103.838 315.758 103.838C314.253 103.838 312.958 104.198 311.873 104.917C310.789 105.636 309.947 106.671 309.35 108.021C308.763 109.372 308.47 110.993 308.47 112.886V112.902C308.47 114.74 308.758 116.322 309.333 117.65C309.92 118.967 310.75 119.98 311.823 120.688C312.908 121.397 314.192 121.751 315.675 121.751C316.538 121.751 317.324 121.629 318.032 121.386C318.752 121.131 319.377 120.777 319.908 120.323C320.44 119.869 320.86 119.333 321.17 118.713H321.27V121.436C321.27 122.432 320.943 123.229 320.29 123.826C319.637 124.424 318.685 124.723 317.435 124.723C316.428 124.723 315.609 124.557 314.978 124.225C314.347 123.893 313.932 123.511 313.733 123.079L313.683 122.963H308.968L308.985 123.112C309.139 124.064 309.571 124.922 310.279 125.686C310.999 126.449 311.962 127.052 313.168 127.495C314.386 127.949 315.808 128.176 317.435 128.176ZM317.352 118.198C316.555 118.198 315.858 117.988 315.26 117.567C314.662 117.147 314.203 116.549 313.882 115.774C313.561 115 313.401 114.081 313.401 113.019V113.002C313.401 111.928 313.561 111.01 313.882 110.246C314.203 109.482 314.662 108.896 315.26 108.486C315.858 108.066 316.555 107.855 317.352 107.855C318.138 107.855 318.824 108.066 319.41 108.486C320.008 108.896 320.467 109.488 320.788 110.263C321.12 111.026 321.286 111.939 321.286 113.002V113.019C321.286 114.081 321.12 115 320.788 115.774C320.467 116.549 320.014 117.147 319.427 117.567C318.84 117.988 318.149 118.198 317.352 118.198ZM336.726 122.365C337.999 122.365 339.106 122.199 340.047 121.867C340.999 121.535 341.801 121.092 342.454 120.539C343.118 119.986 343.644 119.377 344.031 118.713C344.418 118.049 344.679 117.39 344.811 116.737L344.861 116.555H340.412L340.379 116.654C340.268 116.986 340.058 117.313 339.748 117.634C339.438 117.955 339.04 118.22 338.553 118.431C338.066 118.641 337.49 118.746 336.826 118.746C335.985 118.746 335.26 118.563 334.651 118.198C334.042 117.822 333.572 117.285 333.24 116.588C332.919 115.891 332.759 115.049 332.759 114.064V112.188C332.759 111.17 332.919 110.312 333.24 109.615C333.572 108.907 334.026 108.37 334.601 108.005C335.188 107.64 335.858 107.457 336.61 107.457C337.363 107.457 338.021 107.634 338.586 107.988C339.161 108.342 339.61 108.874 339.931 109.582C340.251 110.279 340.412 111.148 340.412 112.188V114.048L342.72 111.192H330.351V114.247H345.011V112.753C345.011 110.96 344.662 109.394 343.965 108.055C343.278 106.715 342.299 105.681 341.026 104.95C339.764 104.209 338.265 103.838 336.527 103.838C334.79 103.838 333.279 104.22 331.995 104.983C330.722 105.736 329.732 106.81 329.023 108.204C328.326 109.588 327.977 111.226 327.977 113.118V113.135C327.977 115.027 328.326 116.665 329.023 118.049C329.732 119.432 330.739 120.5 332.045 121.253C333.351 121.994 334.911 122.365 336.726 122.365ZM359.97 122.365C360.479 122.365 360.927 122.343 361.315 122.299C361.713 122.266 362.045 122.227 362.311 122.183V118.63C362.167 118.652 362.012 118.674 361.846 118.696C361.68 118.707 361.486 118.713 361.265 118.713C360.534 118.713 359.981 118.552 359.605 118.231C359.239 117.899 359.057 117.318 359.057 116.488V107.855H362.311V104.203H359.057V99.8535H354.159V104.203H351.686V107.855H354.159V117.02C354.159 118.923 354.635 120.29 355.587 121.12C356.539 121.95 358 122.365 359.97 122.365ZM372.239 122.365C374.032 122.365 375.587 122 376.904 121.27C378.221 120.528 379.239 119.465 379.959 118.082C380.689 116.699 381.055 115.038 381.055 113.102V113.068C381.055 111.143 380.689 109.493 379.959 108.121C379.228 106.738 378.199 105.681 376.871 104.95C375.554 104.209 374.004 103.838 372.223 103.838C370.452 103.838 368.908 104.209 367.591 104.95C366.274 105.692 365.25 106.754 364.519 108.138C363.789 109.51 363.424 111.154 363.424 113.068V113.102C363.424 115.027 363.783 116.682 364.503 118.065C365.222 119.449 366.24 120.511 367.558 121.253C368.875 121.994 370.435 122.365 372.239 122.365ZM372.256 118.563C371.459 118.563 370.767 118.353 370.181 117.933C369.594 117.501 369.14 116.881 368.819 116.073C368.509 115.254 368.354 114.264 368.354 113.102V113.068C368.354 111.917 368.515 110.938 368.836 110.13C369.157 109.322 369.605 108.708 370.181 108.287C370.767 107.855 371.448 107.64 372.223 107.64C373.008 107.64 373.695 107.855 374.281 108.287C374.868 108.708 375.322 109.322 375.642 110.13C375.963 110.938 376.124 111.917 376.124 113.068V113.102C376.124 114.264 375.963 115.254 375.642 116.073C375.333 116.881 374.884 117.501 374.298 117.933C373.722 118.353 373.042 118.563 372.256 118.563ZM389.357 122H394.37V98.0439H389.357V122ZM397.26 122H402.107V111.259C402.107 110.584 402.235 109.992 402.489 109.482C402.755 108.973 403.12 108.575 403.585 108.287C404.05 107.999 404.587 107.855 405.195 107.855C405.793 107.855 406.302 107.977 406.723 108.221C407.154 108.453 407.486 108.796 407.719 109.25C407.951 109.704 408.067 110.252 408.067 110.894V122H412.732V111.176C412.732 110.512 412.86 109.931 413.114 109.433C413.369 108.935 413.723 108.547 414.177 108.271C414.642 107.994 415.178 107.855 415.787 107.855C416.418 107.855 416.944 107.977 417.364 108.221C417.796 108.464 418.122 108.824 418.344 109.3C418.576 109.776 418.692 110.357 418.692 111.043V122H423.54V109.831C423.54 108.625 423.296 107.573 422.81 106.677C422.323 105.78 421.642 105.083 420.768 104.585C419.893 104.087 418.875 103.838 417.713 103.838C416.838 103.838 416.031 103.987 415.289 104.286C414.559 104.585 413.922 105.011 413.38 105.564C412.849 106.107 412.45 106.754 412.185 107.507H412.085C411.897 106.721 411.57 106.057 411.105 105.515C410.652 104.972 410.093 104.557 409.429 104.27C408.765 103.982 408.018 103.838 407.187 103.838C405.992 103.838 404.952 104.142 404.066 104.751C403.192 105.36 402.572 106.173 402.207 107.191H402.107V104.203H397.26V122ZM431.227 122.282C432.013 122.282 432.738 122.166 433.402 121.934C434.066 121.69 434.658 121.353 435.178 120.921C435.71 120.478 436.141 119.952 436.473 119.344H436.573V122H441.421V109.798C441.421 108.603 441.105 107.557 440.474 106.66C439.854 105.764 438.98 105.072 437.851 104.585C436.722 104.087 435.389 103.838 433.85 103.838C432.29 103.838 430.939 104.081 429.799 104.568C428.671 105.044 427.785 105.708 427.143 106.561C426.512 107.413 426.153 108.387 426.064 109.482L426.047 109.682H430.48L430.513 109.532C430.635 108.957 430.962 108.481 431.493 108.104C432.024 107.728 432.743 107.54 433.651 107.54C434.603 107.54 435.328 107.772 435.826 108.237C436.324 108.691 436.573 109.311 436.573 110.097V115.492C436.573 116.112 436.407 116.671 436.075 117.169C435.754 117.656 435.306 118.043 434.73 118.331C434.166 118.608 433.524 118.746 432.804 118.746C431.963 118.746 431.294 118.563 430.796 118.198C430.297 117.822 430.048 117.307 430.048 116.654V116.621C430.048 115.99 430.292 115.487 430.779 115.11C431.266 114.723 431.974 114.502 432.904 114.446L439.113 114.048V111.026L432.173 111.458C430.701 111.558 429.451 111.829 428.422 112.271C427.392 112.714 426.606 113.323 426.064 114.098C425.522 114.861 425.251 115.785 425.251 116.87V116.903C425.251 117.944 425.5 118.873 425.998 119.692C426.507 120.5 427.21 121.137 428.106 121.602C429.003 122.055 430.043 122.282 431.227 122.282ZM452.196 128.176C453.978 128.176 455.516 127.894 456.811 127.329C458.117 126.765 459.118 125.979 459.816 124.972C460.524 123.976 460.878 122.819 460.878 121.502V104.203H456.031V107.241H455.931C455.61 106.544 455.184 105.941 454.653 105.432C454.132 104.923 453.524 104.53 452.826 104.253C452.129 103.976 451.36 103.838 450.519 103.838C449.014 103.838 447.719 104.198 446.634 104.917C445.549 105.636 444.708 106.671 444.111 108.021C443.524 109.372 443.231 110.993 443.231 112.886V112.902C443.231 114.74 443.519 116.322 444.094 117.65C444.681 118.967 445.511 119.98 446.584 120.688C447.669 121.397 448.953 121.751 450.436 121.751C451.299 121.751 452.085 121.629 452.793 121.386C453.513 121.131 454.138 120.777 454.669 120.323C455.201 119.869 455.621 119.333 455.931 118.713H456.031V121.436C456.031 122.432 455.704 123.229 455.051 123.826C454.398 124.424 453.446 124.723 452.196 124.723C451.188 124.723 450.369 124.557 449.739 124.225C449.108 123.893 448.693 123.511 448.493 123.079L448.444 122.963H443.729L443.745 123.112C443.9 124.064 444.332 124.922 445.04 125.686C445.76 126.449 446.723 127.052 447.929 127.495C449.146 127.949 450.569 128.176 452.196 128.176ZM452.113 118.198C451.316 118.198 450.618 117.988 450.021 117.567C449.423 117.147 448.964 116.549 448.643 115.774C448.322 115 448.161 114.081 448.161 113.019V113.002C448.161 111.928 448.322 111.01 448.643 110.246C448.964 109.482 449.423 108.896 450.021 108.486C450.618 108.066 451.316 107.855 452.113 107.855C452.898 107.855 453.585 108.066 454.171 108.486C454.769 108.896 455.228 109.488 455.549 110.263C455.881 111.026 456.047 111.939 456.047 113.002V113.019C456.047 114.081 455.881 115 455.549 115.774C455.228 116.549 454.774 117.147 454.188 117.567C453.601 117.988 452.909 118.198 452.113 118.198ZM471.487 122.365C472.76 122.365 473.867 122.199 474.808 121.867C475.759 121.535 476.562 121.092 477.215 120.539C477.879 119.986 478.405 119.377 478.792 118.713C479.179 118.049 479.439 117.39 479.572 116.737L479.622 116.555H475.173L475.14 116.654C475.029 116.986 474.819 117.313 474.509 117.634C474.199 117.955 473.8 118.22 473.313 118.431C472.826 118.641 472.251 118.746 471.587 118.746C470.746 118.746 470.021 118.563 469.412 118.198C468.803 117.822 468.333 117.285 468.001 116.588C467.68 115.891 467.519 115.049 467.519 114.064V112.188C467.519 111.17 467.68 110.312 468.001 109.615C468.333 108.907 468.787 108.37 469.362 108.005C469.949 107.64 470.618 107.457 471.371 107.457C472.124 107.457 472.782 107.634 473.347 107.988C473.922 108.342 474.37 108.874 474.691 109.582C475.012 110.279 475.173 111.148 475.173 112.188V114.048L477.48 111.192H465.112V114.247H479.771V112.753C479.771 110.96 479.423 109.394 478.726 108.055C478.039 106.715 477.06 105.681 475.787 104.95C474.525 104.209 473.026 103.838 471.288 103.838C469.55 103.838 468.04 104.22 466.756 104.983C465.483 105.736 464.492 106.81 463.784 108.204C463.087 109.588 462.738 111.226 462.738 113.118V113.135C462.738 115.027 463.087 116.665 463.784 118.049C464.492 119.432 465.5 120.5 466.806 121.253C468.112 121.994 469.672 122.365 471.487 122.365Z" fill="white" fill-opacity="0.8"/>
<rect x="72" y="227" width="496" height="136" rx="15" fill="#EDF1FA"/>
<rect x="96" y="255" width="452" height="14" rx="7" fill="#B6C0CF"/>
<rect x="96" y="309" width="452" height="14" rx="7" fill="#B6C0CF"/>
<rect x="96" y="255" width="191" height="14" rx="7" fill="#0075FF"/>
<rect x="96" y="309" width="141" height="14" rx="7" fill="#0075FF"/>
<rect x="72" y="395" width="496" height="137" rx="15" fill="#EDF1FA"/>
<rect x="72" y="572" width="496" height="57" rx="15" fill="#EDF1FA"/>
<rect x="96" y="423" width="452" height="14" rx="7" fill="#B6C0CF"/>
<rect x="96" y="595" width="452" height="13" rx="6.5" fill="#B6C0CF"/>
<rect x="96" y="423" width="116" height="14" rx="7" fill="#0075FF"/>
<rect x="96" y="595" width="330" height="13" rx="6.5" fill="#0075FF"/>
</svg>
