<svg width="64" height="64" viewBox="0 0 64 64" fill="none" xmlns="http://www.w3.org/2000/svg">
<path d="M51.0845 61.1345H13.1416C12.0992 61.1345 11.2653 60.3006 11.2653 59.2581V4.74131C11.2653 3.69891 12.0992 2.86501 13.1416 2.86501H51.0845C52.1269 2.86501 52.9609 3.69891 52.9609 4.74131V59.1541C53.065 60.3006 52.1269 61.1345 51.0845 61.1345Z" fill="#8ECCFD"/>
<path fill-rule="evenodd" clip-rule="evenodd" d="M13.35 4.95004V59.05H50.876V4.95004H13.35ZM9.18048 4.74155C9.18048 2.54778 10.9478 0.780487 13.1415 0.780487H51.0844C53.2782 0.780487 55.0455 2.54778 55.0455 4.74155V59.0749C55.2082 61.5638 53.1323 63.2195 51.0844 63.2195H13.1415C10.9478 63.2195 9.18048 61.4522 9.18048 59.2584V4.74155Z" fill="#0496FF"/>
<path fill-rule="evenodd" clip-rule="evenodd" d="M14.1306 5.73053V58.2694H50.0955V5.73053H14.1306ZM8.40002 4.74156C8.40002 2.11674 10.5168 0 13.1416 0H51.0844C53.7093 0 55.8261 2.11674 55.8261 4.74156V59.0506C56.0068 62.0524 53.4943 64 51.0844 64H13.1416C10.5168 64 8.40002 61.8833 8.40002 59.2584V4.74156ZM55.0455 59.0749V4.74156C55.0455 2.54778 53.2782 0.780488 51.0844 0.780488H13.1416C10.9478 0.780488 9.18052 2.54778 9.18052 4.74156V59.2584C9.18052 61.4522 10.9478 63.2195 13.1416 63.2195H51.0844C53.1323 63.2195 55.2082 61.5638 55.0455 59.0749ZM13.3501 4.95004H50.8761V59.05H13.3501V4.95004Z" fill="#0496FF"/>
<path d="M20.334 21.8369H44.5174C45.3513 21.8369 45.9767 22.4622 45.9767 23.2961C45.9767 24.13 45.3513 24.7555 44.5174 24.7555H20.334C19.5 24.7555 18.8746 24.13 18.8746 23.2961C18.7704 22.5665 19.5 21.8369 20.334 21.8369Z" fill="#0496FF"/>
<path d="M20.334 27.9871H44.5174C45.3513 27.9871 45.9767 28.6125 45.9767 29.4464C45.9767 30.2803 45.3513 30.9057 44.5174 30.9057H20.334C19.5 30.9057 18.8746 30.2803 18.8746 29.4464C18.7704 28.6125 19.5 27.9871 20.334 27.9871Z" fill="#0496FF"/>
<path d="M20.334 33.9283H44.5174C45.3513 33.9283 45.9767 34.5537 45.9767 35.3875C45.9767 36.2216 45.3513 36.8468 44.5174 36.8468H20.334C19.5 36.8468 18.8746 36.2216 18.8746 35.3875C18.7704 34.6579 19.5 33.9283 20.334 33.9283Z" fill="#0496FF"/>
<path d="M20.334 39.974H44.5174C45.3513 39.974 45.9767 40.5995 45.9767 41.4335C45.9767 42.2673 45.3513 42.8928 44.5174 42.8928H20.334C19.5 42.8928 18.8746 42.2673 18.8746 41.4335C18.7704 40.7036 19.5 39.974 20.334 39.974Z" fill="#0496FF"/>
</svg>
