<svg viewBox="0 0 145 145"  xmlns="http://www.w3.org/2000/svg">
<path d="M121.209 145.004H60.3875C56.4361 145.004 52.7248 143.421 49.9304 140.529L3.58277 92.6864C0.0788671 89.0734 -0.958114 83.6812 0.930283 78.9657C2.8296 74.2394 7.25041 71.183 12.2061 71.183H68.9999V12.5674C68.9999 7.46994 71.958 2.9073 76.5317 0.942533C81.0289 -0.98949 86.3994 0.112964 89.8378 3.66046L136.207 51.5135C139.002 54.4061 140.53 58.2374 140.53 62.3088V125.061C140.53 136.053 131.863 144.993 121.209 144.993V145.004ZM62.7999 123.621H119.266V64.9831L89.6522 34.2345V92.8719H33.1968L62.8108 123.621H62.7999Z" fill="currentColor"/>
</svg>
